<?xml version="1.0" encoding="utf-8"?>
<svg xmlns="http://www.w3.org/2000/svg" xmlns:xlink="http://www.w3.org/1999/xlink" width="600" height="400" viewBox="0 0 2400 1600">
<defs>
  <clipPath id="clip530">
    <rect x="0" y="0" width="2400" height="1600"/>
  </clipPath>
</defs>
<path clip-path="url(#clip530)" d="M0 1600 L2400 1600 L2400 0 L0 0  Z" fill="#ffffff" fill-rule="evenodd" fill-opacity="1"/>
<defs>
  <clipPath id="clip531">
    <rect x="480" y="0" width="1681" height="1600"/>
  </clipPath>
</defs>
<path clip-path="url(#clip530)" d="M203.964 1423.18 L2352.76 1423.18 L2352.76 47.2441 L203.964 47.2441  Z" fill="#ffffff" fill-rule="evenodd" fill-opacity="1"/>
<defs>
  <clipPath id="clip532">
    <rect x="203" y="47" width="2150" height="1377"/>
  </clipPath>
</defs>
<polyline clip-path="url(#clip532)" style="stroke:#000000; stroke-linecap:round; stroke-linejoin:round; stroke-width:2; stroke-opacity:0.1; fill:none" points="264.778,1423.18 264.778,47.2441 "/>
<polyline clip-path="url(#clip532)" style="stroke:#000000; stroke-linecap:round; stroke-linejoin:round; stroke-width:2; stroke-opacity:0.1; fill:none" points="861.003,1423.18 861.003,47.2441 "/>
<polyline clip-path="url(#clip532)" style="stroke:#000000; stroke-linecap:round; stroke-linejoin:round; stroke-width:2; stroke-opacity:0.1; fill:none" points="1457.23,1423.18 1457.23,47.2441 "/>
<polyline clip-path="url(#clip532)" style="stroke:#000000; stroke-linecap:round; stroke-linejoin:round; stroke-width:2; stroke-opacity:0.1; fill:none" points="2053.45,1423.18 2053.45,47.2441 "/>
<polyline clip-path="url(#clip532)" style="stroke:#000000; stroke-linecap:round; stroke-linejoin:round; stroke-width:2; stroke-opacity:0.1; fill:none" points="203.964,1384.24 2352.76,1384.24 "/>
<polyline clip-path="url(#clip532)" style="stroke:#000000; stroke-linecap:round; stroke-linejoin:round; stroke-width:2; stroke-opacity:0.1; fill:none" points="203.964,968.893 2352.76,968.893 "/>
<polyline clip-path="url(#clip532)" style="stroke:#000000; stroke-linecap:round; stroke-linejoin:round; stroke-width:2; stroke-opacity:0.1; fill:none" points="203.964,553.548 2352.76,553.548 "/>
<polyline clip-path="url(#clip532)" style="stroke:#000000; stroke-linecap:round; stroke-linejoin:round; stroke-width:2; stroke-opacity:0.1; fill:none" points="203.964,138.202 2352.76,138.202 "/>
<polyline clip-path="url(#clip530)" style="stroke:#000000; stroke-linecap:round; stroke-linejoin:round; stroke-width:4; stroke-opacity:1; fill:none" points="203.964,1423.18 2352.76,1423.18 "/>
<polyline clip-path="url(#clip530)" style="stroke:#000000; stroke-linecap:round; stroke-linejoin:round; stroke-width:4; stroke-opacity:1; fill:none" points="264.778,1423.18 264.778,1404.28 "/>
<polyline clip-path="url(#clip530)" style="stroke:#000000; stroke-linecap:round; stroke-linejoin:round; stroke-width:4; stroke-opacity:1; fill:none" points="861.003,1423.18 861.003,1404.28 "/>
<polyline clip-path="url(#clip530)" style="stroke:#000000; stroke-linecap:round; stroke-linejoin:round; stroke-width:4; stroke-opacity:1; fill:none" points="1457.23,1423.18 1457.23,1404.28 "/>
<polyline clip-path="url(#clip530)" style="stroke:#000000; stroke-linecap:round; stroke-linejoin:round; stroke-width:4; stroke-opacity:1; fill:none" points="2053.45,1423.18 2053.45,1404.28 "/>
<path clip-path="url(#clip530)" d="M264.778 1454.1 Q261.167 1454.1 259.339 1457.66 Q257.533 1461.2 257.533 1468.33 Q257.533 1475.44 259.339 1479.01 Q261.167 1482.55 264.778 1482.55 Q268.413 1482.55 270.218 1479.01 Q272.047 1475.44 272.047 1468.33 Q272.047 1461.2 270.218 1457.66 Q268.413 1454.1 264.778 1454.1 M264.778 1450.39 Q270.589 1450.39 273.644 1455 Q276.723 1459.58 276.723 1468.33 Q276.723 1477.06 273.644 1481.67 Q270.589 1486.25 264.778 1486.25 Q258.968 1486.25 255.89 1481.67 Q252.834 1477.06 252.834 1468.33 Q252.834 1459.58 255.89 1455 Q258.968 1450.39 264.778 1450.39 Z" fill="#000000" fill-rule="nonzero" fill-opacity="1" /><path clip-path="url(#clip530)" d="M851.385 1481.64 L859.024 1481.64 L859.024 1455.28 L850.713 1456.95 L850.713 1452.69 L858.977 1451.02 L863.653 1451.02 L863.653 1481.64 L871.292 1481.64 L871.292 1485.58 L851.385 1485.58 L851.385 1481.64 Z" fill="#000000" fill-rule="nonzero" fill-opacity="1" /><path clip-path="url(#clip530)" d="M1451.88 1481.64 L1468.2 1481.64 L1468.2 1485.58 L1446.25 1485.58 L1446.25 1481.64 Q1448.92 1478.89 1453.5 1474.26 Q1458.11 1469.61 1459.29 1468.27 Q1461.53 1465.74 1462.41 1464.01 Q1463.31 1462.25 1463.31 1460.56 Q1463.31 1457.8 1461.37 1456.07 Q1459.45 1454.33 1456.35 1454.33 Q1454.15 1454.33 1451.69 1455.09 Q1449.26 1455.86 1446.49 1457.41 L1446.49 1452.69 Q1449.31 1451.55 1451.76 1450.97 Q1454.22 1450.39 1456.25 1450.39 Q1461.63 1450.39 1464.82 1453.08 Q1468.01 1455.77 1468.01 1460.26 Q1468.01 1462.39 1467.2 1464.31 Q1466.42 1466.2 1464.31 1468.8 Q1463.73 1469.47 1460.63 1472.69 Q1457.53 1475.88 1451.88 1481.64 Z" fill="#000000" fill-rule="nonzero" fill-opacity="1" /><path clip-path="url(#clip530)" d="M2057.7 1466.95 Q2061.06 1467.66 2062.93 1469.93 Q2064.83 1472.2 2064.83 1475.53 Q2064.83 1480.65 2061.31 1483.45 Q2057.79 1486.25 2051.31 1486.25 Q2049.13 1486.25 2046.82 1485.81 Q2044.53 1485.39 2042.07 1484.54 L2042.07 1480.02 Q2044.02 1481.16 2046.33 1481.74 Q2048.65 1482.32 2051.17 1482.32 Q2055.57 1482.32 2057.86 1480.58 Q2060.18 1478.84 2060.18 1475.53 Q2060.18 1472.48 2058.02 1470.77 Q2055.89 1469.03 2052.07 1469.03 L2048.05 1469.03 L2048.05 1465.19 L2052.26 1465.19 Q2055.71 1465.19 2057.54 1463.82 Q2059.37 1462.43 2059.37 1459.84 Q2059.37 1457.18 2057.47 1455.77 Q2055.59 1454.33 2052.07 1454.33 Q2050.15 1454.33 2047.95 1454.75 Q2045.75 1455.16 2043.12 1456.04 L2043.12 1451.88 Q2045.78 1451.14 2048.09 1450.77 Q2050.43 1450.39 2052.49 1450.39 Q2057.81 1450.39 2060.92 1452.83 Q2064.02 1455.23 2064.02 1459.35 Q2064.02 1462.22 2062.37 1464.21 Q2060.73 1466.18 2057.7 1466.95 Z" fill="#000000" fill-rule="nonzero" fill-opacity="1" /><path clip-path="url(#clip530)" d="M1148.53 1520.52 L1188.73 1520.52 L1188.73 1525.93 L1171.86 1525.93 L1171.86 1568.04 L1165.4 1568.04 L1165.4 1525.93 L1148.53 1525.93 L1148.53 1520.52 Z" fill="#000000" fill-rule="nonzero" fill-opacity="1" /><path clip-path="url(#clip530)" d="M1192.68 1532.4 L1198.53 1532.4 L1198.53 1568.04 L1192.68 1568.04 L1192.68 1532.4 M1192.68 1518.52 L1198.53 1518.52 L1198.53 1525.93 L1192.68 1525.93 L1192.68 1518.52 Z" fill="#000000" fill-rule="nonzero" fill-opacity="1" /><path clip-path="url(#clip530)" d="M1238.54 1539.24 Q1240.74 1535.29 1243.79 1533.41 Q1246.85 1531.54 1250.99 1531.54 Q1256.56 1531.54 1259.58 1535.45 Q1262.6 1539.33 1262.6 1546.53 L1262.6 1568.04 L1256.72 1568.04 L1256.72 1546.72 Q1256.72 1541.59 1254.9 1539.11 Q1253.09 1536.63 1249.36 1536.63 Q1244.81 1536.63 1242.17 1539.65 Q1239.53 1542.68 1239.53 1547.9 L1239.53 1568.04 L1233.64 1568.04 L1233.64 1546.72 Q1233.64 1541.56 1231.83 1539.11 Q1230.01 1536.63 1226.22 1536.63 Q1221.74 1536.63 1219.1 1539.68 Q1216.45 1542.71 1216.45 1547.9 L1216.45 1568.04 L1210.56 1568.04 L1210.56 1532.4 L1216.45 1532.4 L1216.45 1537.93 Q1218.46 1534.66 1221.26 1533.1 Q1224.06 1531.54 1227.91 1531.54 Q1231.79 1531.54 1234.5 1533.51 Q1237.24 1535.48 1238.54 1539.24 Z" fill="#000000" fill-rule="nonzero" fill-opacity="1" /><path clip-path="url(#clip530)" d="M1304.78 1548.76 L1304.78 1551.62 L1277.85 1551.62 Q1278.23 1557.67 1281.48 1560.85 Q1284.76 1564 1290.58 1564 Q1293.96 1564 1297.11 1563.17 Q1300.29 1562.35 1303.41 1560.69 L1303.41 1566.23 Q1300.26 1567.57 1296.95 1568.27 Q1293.64 1568.97 1290.23 1568.97 Q1281.7 1568.97 1276.7 1564 Q1271.74 1559.04 1271.74 1550.57 Q1271.74 1541.82 1276.45 1536.69 Q1281.19 1531.54 1289.21 1531.54 Q1296.41 1531.54 1300.58 1536.18 Q1304.78 1540.8 1304.78 1548.76 M1298.92 1547.04 Q1298.86 1542.23 1296.22 1539.37 Q1293.61 1536.5 1289.28 1536.5 Q1284.38 1536.5 1281.42 1539.27 Q1278.49 1542.04 1278.04 1547.07 L1298.92 1547.04 Z" fill="#000000" fill-rule="nonzero" fill-opacity="1" /><path clip-path="url(#clip530)" d="M1349.18 1518.58 Q1344.91 1525.9 1342.84 1533.06 Q1340.78 1540.23 1340.78 1547.58 Q1340.78 1554.93 1342.84 1562.16 Q1344.95 1569.35 1349.18 1576.64 L1344.09 1576.64 Q1339.31 1569.16 1336.92 1561.93 Q1334.57 1554.71 1334.57 1547.58 Q1334.57 1540.48 1336.92 1533.29 Q1339.28 1526.09 1344.09 1518.58 L1349.18 1518.58 Z" fill="#000000" fill-rule="nonzero" fill-opacity="1" /><path clip-path="url(#clip530)" d="M1383.27 1533.45 L1383.27 1538.98 Q1380.78 1537.71 1378.11 1537.07 Q1375.44 1536.44 1372.57 1536.44 Q1368.21 1536.44 1366.02 1537.77 Q1363.85 1539.11 1363.85 1541.79 Q1363.85 1543.82 1365.41 1545 Q1366.97 1546.15 1371.68 1547.2 L1373.69 1547.64 Q1379.92 1548.98 1382.53 1551.43 Q1385.18 1553.85 1385.18 1558.21 Q1385.18 1563.17 1381.23 1566.07 Q1377.31 1568.97 1370.44 1568.97 Q1367.58 1568.97 1364.46 1568.39 Q1361.37 1567.85 1357.93 1566.74 L1357.93 1560.69 Q1361.18 1562.38 1364.33 1563.24 Q1367.48 1564.07 1370.57 1564.07 Q1374.7 1564.07 1376.93 1562.66 Q1379.16 1561.23 1379.16 1558.65 Q1379.16 1556.27 1377.54 1554.99 Q1375.95 1553.72 1370.5 1552.54 L1368.47 1552.07 Q1363.02 1550.92 1360.6 1548.56 Q1358.19 1546.18 1358.19 1542.04 Q1358.19 1537.01 1361.75 1534.27 Q1365.32 1531.54 1371.87 1531.54 Q1375.12 1531.54 1377.98 1532.01 Q1380.85 1532.49 1383.27 1533.45 Z" fill="#000000" fill-rule="nonzero" fill-opacity="1" /><path clip-path="url(#clip530)" d="M1393.58 1518.58 L1398.67 1518.58 Q1403.45 1526.09 1405.8 1533.29 Q1408.19 1540.48 1408.19 1547.58 Q1408.19 1554.71 1405.8 1561.93 Q1403.45 1569.16 1398.67 1576.64 L1393.58 1576.64 Q1397.81 1569.35 1399.88 1562.16 Q1401.98 1554.93 1401.98 1547.58 Q1401.98 1540.23 1399.88 1533.06 Q1397.81 1525.9 1393.58 1518.58 Z" fill="#000000" fill-rule="nonzero" fill-opacity="1" /><polyline clip-path="url(#clip530)" style="stroke:#000000; stroke-linecap:round; stroke-linejoin:round; stroke-width:4; stroke-opacity:1; fill:none" points="203.964,1423.18 203.964,47.2441 "/>
<polyline clip-path="url(#clip530)" style="stroke:#000000; stroke-linecap:round; stroke-linejoin:round; stroke-width:4; stroke-opacity:1; fill:none" points="203.964,1384.24 222.861,1384.24 "/>
<polyline clip-path="url(#clip530)" style="stroke:#000000; stroke-linecap:round; stroke-linejoin:round; stroke-width:4; stroke-opacity:1; fill:none" points="203.964,968.893 222.861,968.893 "/>
<polyline clip-path="url(#clip530)" style="stroke:#000000; stroke-linecap:round; stroke-linejoin:round; stroke-width:4; stroke-opacity:1; fill:none" points="203.964,553.548 222.861,553.548 "/>
<polyline clip-path="url(#clip530)" style="stroke:#000000; stroke-linecap:round; stroke-linejoin:round; stroke-width:4; stroke-opacity:1; fill:none" points="203.964,138.202 222.861,138.202 "/>
<path clip-path="url(#clip530)" d="M156.019 1370.04 Q152.408 1370.04 150.579 1373.6 Q148.774 1377.14 148.774 1384.27 Q148.774 1391.38 150.579 1394.94 Q152.408 1398.49 156.019 1398.49 Q159.653 1398.49 161.459 1394.94 Q163.288 1391.38 163.288 1384.27 Q163.288 1377.14 161.459 1373.6 Q159.653 1370.04 156.019 1370.04 M156.019 1366.33 Q161.829 1366.33 164.885 1370.94 Q167.964 1375.52 167.964 1384.27 Q167.964 1393 164.885 1397.61 Q161.829 1402.19 156.019 1402.19 Q150.209 1402.19 147.13 1397.61 Q144.075 1393 144.075 1384.27 Q144.075 1375.52 147.13 1370.94 Q150.209 1366.33 156.019 1366.33 Z" fill="#000000" fill-rule="nonzero" fill-opacity="1" /><path clip-path="url(#clip530)" d="M116.668 982.238 L124.306 982.238 L124.306 955.872 L115.996 957.539 L115.996 953.28 L124.26 951.613 L128.936 951.613 L128.936 982.238 L136.575 982.238 L136.575 986.173 L116.668 986.173 L116.668 982.238 Z" fill="#000000" fill-rule="nonzero" fill-opacity="1" /><path clip-path="url(#clip530)" d="M156.019 954.692 Q152.408 954.692 150.579 958.256 Q148.774 961.798 148.774 968.928 Q148.774 976.034 150.579 979.599 Q152.408 983.141 156.019 983.141 Q159.653 983.141 161.459 979.599 Q163.288 976.034 163.288 968.928 Q163.288 961.798 161.459 958.256 Q159.653 954.692 156.019 954.692 M156.019 950.988 Q161.829 950.988 164.885 955.594 Q167.964 960.178 167.964 968.928 Q167.964 977.654 164.885 982.261 Q161.829 986.844 156.019 986.844 Q150.209 986.844 147.13 982.261 Q144.075 977.654 144.075 968.928 Q144.075 960.178 147.13 955.594 Q150.209 950.988 156.019 950.988 Z" fill="#000000" fill-rule="nonzero" fill-opacity="1" /><path clip-path="url(#clip530)" d="M119.885 566.893 L136.204 566.893 L136.204 570.828 L114.26 570.828 L114.26 566.893 Q116.922 564.138 121.505 559.508 Q126.112 554.856 127.292 553.513 Q129.538 550.99 130.417 549.254 Q131.32 547.494 131.32 545.805 Q131.32 543.05 129.376 541.314 Q127.455 539.578 124.353 539.578 Q122.154 539.578 119.7 540.342 Q117.269 541.106 114.492 542.657 L114.492 537.934 Q117.316 536.8 119.769 536.221 Q122.223 535.643 124.26 535.643 Q129.63 535.643 132.825 538.328 Q136.019 541.013 136.019 545.504 Q136.019 547.633 135.209 549.555 Q134.422 551.453 132.316 554.045 Q131.737 554.717 128.635 557.934 Q125.533 561.129 119.885 566.893 Z" fill="#000000" fill-rule="nonzero" fill-opacity="1" /><path clip-path="url(#clip530)" d="M156.019 539.346 Q152.408 539.346 150.579 542.911 Q148.774 546.453 148.774 553.582 Q148.774 560.689 150.579 564.254 Q152.408 567.795 156.019 567.795 Q159.653 567.795 161.459 564.254 Q163.288 560.689 163.288 553.582 Q163.288 546.453 161.459 542.911 Q159.653 539.346 156.019 539.346 M156.019 535.643 Q161.829 535.643 164.885 540.249 Q167.964 544.832 167.964 553.582 Q167.964 562.309 164.885 566.916 Q161.829 571.499 156.019 571.499 Q150.209 571.499 147.13 566.916 Q144.075 562.309 144.075 553.582 Q144.075 544.832 147.13 540.249 Q150.209 535.643 156.019 535.643 Z" fill="#000000" fill-rule="nonzero" fill-opacity="1" /><path clip-path="url(#clip530)" d="M130.024 136.848 Q133.38 137.566 135.255 139.834 Q137.154 142.103 137.154 145.436 Q137.154 150.552 133.635 153.353 Q130.117 156.154 123.635 156.154 Q121.459 156.154 119.144 155.714 Q116.853 155.297 114.399 154.441 L114.399 149.927 Q116.343 151.061 118.658 151.64 Q120.973 152.218 123.496 152.218 Q127.894 152.218 130.186 150.482 Q132.501 148.746 132.501 145.436 Q132.501 142.381 130.348 140.668 Q128.218 138.932 124.399 138.932 L120.371 138.932 L120.371 135.089 L124.584 135.089 Q128.033 135.089 129.862 133.723 Q131.691 132.334 131.691 129.742 Q131.691 127.08 129.792 125.668 Q127.917 124.233 124.399 124.233 Q122.478 124.233 120.279 124.649 Q118.08 125.066 115.441 125.945 L115.441 121.779 Q118.103 121.038 120.418 120.668 Q122.755 120.297 124.816 120.297 Q130.14 120.297 133.242 122.728 Q136.343 125.135 136.343 129.256 Q136.343 132.126 134.7 134.117 Q133.056 136.084 130.024 136.848 Z" fill="#000000" fill-rule="nonzero" fill-opacity="1" /><path clip-path="url(#clip530)" d="M156.019 124.001 Q152.408 124.001 150.579 127.566 Q148.774 131.107 148.774 138.237 Q148.774 145.344 150.579 148.908 Q152.408 152.45 156.019 152.45 Q159.653 152.45 161.459 148.908 Q163.288 145.344 163.288 138.237 Q163.288 131.107 161.459 127.566 Q159.653 124.001 156.019 124.001 M156.019 120.297 Q161.829 120.297 164.885 124.904 Q167.964 129.487 167.964 138.237 Q167.964 146.964 164.885 151.57 Q161.829 156.154 156.019 156.154 Q150.209 156.154 147.13 151.57 Q144.075 146.964 144.075 138.237 Q144.075 129.487 147.13 124.904 Q150.209 120.297 156.019 120.297 Z" fill="#000000" fill-rule="nonzero" fill-opacity="1" /><path clip-path="url(#clip530)" d="M39.4334 772.564 Q44.844 772.564 50.9309 774.303 Q56.9856 776.01 61.8809 778.715 Q66.744 781.42 69.9646 784.963 Q73.153 788.505 73.153 791.887 Q73.153 794.045 71.9613 795.655 Q70.7375 797.233 68.7085 798.103 Q66.6474 798.972 64.393 799.391 Q62.1063 799.81 59.6265 799.81 Q55.9228 799.81 51.8971 799.005 Q47.8391 798.199 44.1677 796.847 Q40.464 795.494 37.1146 793.594 Q33.733 791.694 31.2853 789.6 Q28.8055 787.475 27.3562 785.092 Q25.907 782.708 25.907 780.486 Q25.907 778.876 26.6155 777.588 Q27.2918 776.267 28.4834 775.43 Q29.6428 774.593 31.0277 774.013 Q32.4125 773.401 34.0228 773.111 Q35.6009 772.821 36.9214 772.692 Q38.2096 772.564 39.4334 772.564 M35.3433 776.911 Q33.7008 776.911 32.477 777.04 Q31.2209 777.169 29.9649 777.523 Q28.7089 777.878 28.0325 778.65 Q27.3562 779.391 27.3562 780.551 Q27.3562 783.932 34.2805 787.733 Q36.4383 788.956 39.369 790.051 Q42.2997 791.146 43.6846 791.533 Q45.0694 791.919 48.4833 792.821 L48.4833 779.037 Q39.6911 776.911 35.3433 776.911 M50.5766 779.617 L50.5766 793.336 Q58.6281 795.462 63.6522 795.462 Q68.0322 795.462 69.868 794.56 Q71.6715 793.626 71.6715 791.887 Q71.6715 789.89 69.6747 788.022 Q67.6458 786.154 63.9743 784.254 Q59.2078 781.742 50.5766 779.617 Z" fill="#000000" fill-rule="nonzero" fill-opacity="1" /><path clip-path="url(#clip530)" d="M22.9507 728.256 Q30.2712 732.521 37.4327 734.59 Q44.5941 736.658 51.9465 736.658 Q59.2989 736.658 66.5239 734.59 Q73.7172 732.489 81.0059 728.256 L81.0059 733.348 Q73.5262 738.123 66.3011 740.51 Q59.0761 742.865 51.9465 742.865 Q44.8487 742.865 37.6555 740.51 Q30.4622 738.154 22.9507 733.348 L22.9507 728.256 Z" fill="#000000" fill-rule="nonzero" fill-opacity="1" /><path clip-path="url(#clip530)" d="M28.1387 706.74 Q28.1387 709.286 29.9211 711.036 Q31.6717 712.787 34.218 712.787 Q36.7324 712.787 38.483 711.036 Q40.2017 709.286 40.2017 706.74 Q40.2017 704.193 38.483 702.443 Q36.7324 700.692 34.218 700.692 Q31.7035 700.692 29.9211 702.475 Q28.1387 704.225 28.1387 706.74 M24.0328 706.74 Q24.0328 704.703 24.8286 702.825 Q25.5924 700.947 27.0566 699.578 Q28.4888 698.114 30.3031 697.382 Q32.1173 696.65 34.218 696.65 Q38.4193 696.65 41.3476 699.61 Q44.244 702.538 44.244 706.803 Q44.244 711.1 41.3794 713.965 Q38.5148 716.829 34.218 716.829 Q29.953 716.829 26.9929 713.901 Q24.0328 710.973 24.0328 706.74 Z" fill="#000000" fill-rule="nonzero" fill-opacity="1" /><path clip-path="url(#clip530)" d="M22.9507 685.224 L22.9507 680.131 Q30.4622 675.357 37.6555 673.001 Q44.8487 670.614 51.9465 670.614 Q59.0761 670.614 66.3011 673.001 Q73.5262 675.357 81.0059 680.131 L81.0059 685.224 Q73.7172 680.99 66.5239 678.921 Q59.2989 676.821 51.9465 676.821 Q44.5941 676.821 37.4327 678.921 Q30.2712 680.99 22.9507 685.224 Z" fill="#000000" fill-rule="nonzero" fill-opacity="1" /><polyline clip-path="url(#clip532)" style="stroke:#009af9; stroke-linecap:round; stroke-linejoin:round; stroke-width:4; stroke-opacity:1; fill:none" points="264.778,1384.24 324.401,1277.7 384.023,1027.12 443.646,729.142 503.268,456.876 562.891,252.783 622.513,131.204 682.135,86.1857 741.758,100.218 801.38,151.458 861.003,218.852 920.625,285.365 980.248,339.561 1039.87,375.829 1099.49,393.549 1159.11,395.625 1218.74,386.834 1278.36,372.348 1337.98,356.66 1397.6,342.996 1457.23,333.145 1516.85,327.62 1576.47,325.984 1636.09,327.25 1695.72,330.236 1755.34,333.84 1814.96,337.213 1874.58,339.825 1934.21,341.46 1993.83,342.145 2053.45,342.071 2113.07,341.5 2172.7,340.7 2232.32,339.888 2291.94,339.215 "/>
</svg>
