<?xml version="1.0" encoding="utf-8"?>
<svg xmlns="http://www.w3.org/2000/svg" xmlns:xlink="http://www.w3.org/1999/xlink" width="600" height="400" viewBox="0 0 2400 1600">
<defs>
  <clipPath id="clip770">
    <rect x="0" y="0" width="2400" height="1600"/>
  </clipPath>
</defs>
<path clip-path="url(#clip770)" d="M0 1600 L2400 1600 L2400 0 L0 0  Z" fill="#ffffff" fill-rule="evenodd" fill-opacity="1"/>
<defs>
  <clipPath id="clip771">
    <rect x="203" y="47" width="2150" height="1377"/>
  </clipPath>
</defs>
<path clip-path="url(#clip770)" d="M203.964 1423.18 L1110.81 1423.18 L1110.81 47.2441 L203.964 47.2441  Z" fill="#ffffff" fill-rule="evenodd" fill-opacity="1"/>
<defs>
  <clipPath id="clip772">
    <rect x="203" y="47" width="908" height="1377"/>
  </clipPath>
</defs>
<polyline clip-path="url(#clip772)" style="stroke:#000000; stroke-linecap:round; stroke-linejoin:round; stroke-width:2; stroke-opacity:0.1; fill:none" points="229.629,1423.18 229.629,47.2441 "/>
<polyline clip-path="url(#clip772)" style="stroke:#000000; stroke-linecap:round; stroke-linejoin:round; stroke-width:2; stroke-opacity:0.1; fill:none" points="481.252,1423.18 481.252,47.2441 "/>
<polyline clip-path="url(#clip772)" style="stroke:#000000; stroke-linecap:round; stroke-linejoin:round; stroke-width:2; stroke-opacity:0.1; fill:none" points="732.874,1423.18 732.874,47.2441 "/>
<polyline clip-path="url(#clip772)" style="stroke:#000000; stroke-linecap:round; stroke-linejoin:round; stroke-width:2; stroke-opacity:0.1; fill:none" points="984.497,1423.18 984.497,47.2441 "/>
<polyline clip-path="url(#clip772)" style="stroke:#000000; stroke-linecap:round; stroke-linejoin:round; stroke-width:2; stroke-opacity:0.1; fill:none" points="203.964,1384.41 1110.81,1384.41 "/>
<polyline clip-path="url(#clip772)" style="stroke:#000000; stroke-linecap:round; stroke-linejoin:round; stroke-width:2; stroke-opacity:0.1; fill:none" points="203.964,1160.57 1110.81,1160.57 "/>
<polyline clip-path="url(#clip772)" style="stroke:#000000; stroke-linecap:round; stroke-linejoin:round; stroke-width:2; stroke-opacity:0.1; fill:none" points="203.964,936.726 1110.81,936.726 "/>
<polyline clip-path="url(#clip772)" style="stroke:#000000; stroke-linecap:round; stroke-linejoin:round; stroke-width:2; stroke-opacity:0.1; fill:none" points="203.964,712.882 1110.81,712.882 "/>
<polyline clip-path="url(#clip772)" style="stroke:#000000; stroke-linecap:round; stroke-linejoin:round; stroke-width:2; stroke-opacity:0.1; fill:none" points="203.964,489.039 1110.81,489.039 "/>
<polyline clip-path="url(#clip772)" style="stroke:#000000; stroke-linecap:round; stroke-linejoin:round; stroke-width:2; stroke-opacity:0.1; fill:none" points="203.964,265.195 1110.81,265.195 "/>
<polyline clip-path="url(#clip770)" style="stroke:#000000; stroke-linecap:round; stroke-linejoin:round; stroke-width:4; stroke-opacity:1; fill:none" points="203.964,1423.18 1110.81,1423.18 "/>
<polyline clip-path="url(#clip770)" style="stroke:#000000; stroke-linecap:round; stroke-linejoin:round; stroke-width:4; stroke-opacity:1; fill:none" points="229.629,1423.18 229.629,1404.28 "/>
<polyline clip-path="url(#clip770)" style="stroke:#000000; stroke-linecap:round; stroke-linejoin:round; stroke-width:4; stroke-opacity:1; fill:none" points="481.252,1423.18 481.252,1404.28 "/>
<polyline clip-path="url(#clip770)" style="stroke:#000000; stroke-linecap:round; stroke-linejoin:round; stroke-width:4; stroke-opacity:1; fill:none" points="732.874,1423.18 732.874,1404.28 "/>
<polyline clip-path="url(#clip770)" style="stroke:#000000; stroke-linecap:round; stroke-linejoin:round; stroke-width:4; stroke-opacity:1; fill:none" points="984.497,1423.18 984.497,1404.28 "/>
<path clip-path="url(#clip770)" d="M229.629 1454.1 Q226.018 1454.1 224.189 1457.66 Q222.384 1461.2 222.384 1468.33 Q222.384 1475.44 224.189 1479.01 Q226.018 1482.55 229.629 1482.55 Q233.263 1482.55 235.069 1479.01 Q236.898 1475.44 236.898 1468.33 Q236.898 1461.2 235.069 1457.66 Q233.263 1454.1 229.629 1454.1 M229.629 1450.39 Q235.439 1450.39 238.495 1455 Q241.573 1459.58 241.573 1468.33 Q241.573 1477.06 238.495 1481.67 Q235.439 1486.25 229.629 1486.25 Q223.819 1486.25 220.74 1481.67 Q217.685 1477.06 217.685 1468.33 Q217.685 1459.58 220.74 1455 Q223.819 1450.39 229.629 1450.39 Z" fill="#000000" fill-rule="nonzero" fill-opacity="1" /><path clip-path="url(#clip770)" d="M471.634 1481.64 L479.273 1481.64 L479.273 1455.28 L470.962 1456.95 L470.962 1452.69 L479.226 1451.02 L483.902 1451.02 L483.902 1481.64 L491.541 1481.64 L491.541 1485.58 L471.634 1485.58 L471.634 1481.64 Z" fill="#000000" fill-rule="nonzero" fill-opacity="1" /><path clip-path="url(#clip770)" d="M727.527 1481.64 L743.847 1481.64 L743.847 1485.58 L721.902 1485.58 L721.902 1481.64 Q724.564 1478.89 729.148 1474.26 Q733.754 1469.61 734.935 1468.27 Q737.18 1465.74 738.06 1464.01 Q738.962 1462.25 738.962 1460.56 Q738.962 1457.8 737.018 1456.07 Q735.097 1454.33 731.995 1454.33 Q729.796 1454.33 727.342 1455.09 Q724.912 1455.86 722.134 1457.41 L722.134 1452.69 Q724.958 1451.55 727.411 1450.97 Q729.865 1450.39 731.902 1450.39 Q737.273 1450.39 740.467 1453.08 Q743.661 1455.77 743.661 1460.26 Q743.661 1462.39 742.851 1464.31 Q742.064 1466.2 739.958 1468.8 Q739.379 1469.47 736.277 1472.69 Q733.175 1475.88 727.527 1481.64 Z" fill="#000000" fill-rule="nonzero" fill-opacity="1" /><path clip-path="url(#clip770)" d="M988.745 1466.95 Q992.101 1467.66 993.976 1469.93 Q995.874 1472.2 995.874 1475.53 Q995.874 1480.65 992.356 1483.45 Q988.837 1486.25 982.356 1486.25 Q980.18 1486.25 977.865 1485.81 Q975.574 1485.39 973.12 1484.54 L973.12 1480.02 Q975.064 1481.16 977.379 1481.74 Q979.694 1482.32 982.217 1482.32 Q986.615 1482.32 988.907 1480.58 Q991.222 1478.84 991.222 1475.53 Q991.222 1472.48 989.069 1470.77 Q986.939 1469.03 983.12 1469.03 L979.092 1469.03 L979.092 1465.19 L983.305 1465.19 Q986.754 1465.19 988.583 1463.82 Q990.411 1462.43 990.411 1459.84 Q990.411 1457.18 988.513 1455.77 Q986.638 1454.33 983.12 1454.33 Q981.199 1454.33 978.999 1454.75 Q976.8 1455.16 974.162 1456.04 L974.162 1451.88 Q976.824 1451.14 979.138 1450.77 Q981.476 1450.39 983.536 1450.39 Q988.861 1450.39 991.962 1452.83 Q995.064 1455.23 995.064 1459.35 Q995.064 1462.22 993.421 1464.21 Q991.777 1466.18 988.745 1466.95 Z" fill="#000000" fill-rule="nonzero" fill-opacity="1" /><path clip-path="url(#clip770)" d="M527.559 1520.52 L567.758 1520.52 L567.758 1525.93 L550.889 1525.93 L550.889 1568.04 L544.428 1568.04 L544.428 1525.93 L527.559 1525.93 L527.559 1520.52 Z" fill="#000000" fill-rule="nonzero" fill-opacity="1" /><path clip-path="url(#clip770)" d="M571.705 1532.4 L577.562 1532.4 L577.562 1568.04 L571.705 1568.04 L571.705 1532.4 M571.705 1518.52 L577.562 1518.52 L577.562 1525.93 L571.705 1525.93 L571.705 1518.52 Z" fill="#000000" fill-rule="nonzero" fill-opacity="1" /><path clip-path="url(#clip770)" d="M617.57 1539.24 Q619.766 1535.29 622.822 1533.41 Q625.877 1531.54 630.015 1531.54 Q635.585 1531.54 638.609 1535.45 Q641.633 1539.33 641.633 1546.53 L641.633 1568.04 L635.744 1568.04 L635.744 1546.72 Q635.744 1541.59 633.93 1539.11 Q632.116 1536.63 628.392 1536.63 Q623.84 1536.63 621.199 1539.65 Q618.557 1542.68 618.557 1547.9 L618.557 1568.04 L612.669 1568.04 L612.669 1546.72 Q612.669 1541.56 610.854 1539.11 Q609.04 1536.63 605.252 1536.63 Q600.765 1536.63 598.123 1539.68 Q595.481 1542.71 595.481 1547.9 L595.481 1568.04 L589.593 1568.04 L589.593 1532.4 L595.481 1532.4 L595.481 1537.93 Q597.486 1534.66 600.287 1533.1 Q603.088 1531.54 606.939 1531.54 Q610.822 1531.54 613.528 1533.51 Q616.265 1535.48 617.57 1539.24 Z" fill="#000000" fill-rule="nonzero" fill-opacity="1" /><path clip-path="url(#clip770)" d="M683.805 1548.76 L683.805 1551.62 L656.878 1551.62 Q657.26 1557.67 660.507 1560.85 Q663.785 1564 669.61 1564 Q672.984 1564 676.135 1563.17 Q679.317 1562.35 682.437 1560.69 L682.437 1566.23 Q679.286 1567.57 675.975 1568.27 Q672.665 1568.97 669.26 1568.97 Q660.73 1568.97 655.733 1564 Q650.767 1559.04 650.767 1550.57 Q650.767 1541.82 655.478 1536.69 Q660.22 1531.54 668.241 1531.54 Q675.434 1531.54 679.604 1536.18 Q683.805 1540.8 683.805 1548.76 M677.949 1547.04 Q677.885 1542.23 675.243 1539.37 Q672.633 1536.5 668.305 1536.5 Q663.403 1536.5 660.443 1539.27 Q657.515 1542.04 657.069 1547.07 L677.949 1547.04 Z" fill="#000000" fill-rule="nonzero" fill-opacity="1" /><path clip-path="url(#clip770)" d="M728.206 1518.58 Q723.941 1525.9 721.872 1533.06 Q719.803 1540.23 719.803 1547.58 Q719.803 1554.93 721.872 1562.16 Q723.973 1569.35 728.206 1576.64 L723.114 1576.64 Q718.339 1569.16 715.952 1561.93 Q713.597 1554.71 713.597 1547.58 Q713.597 1540.48 715.952 1533.29 Q718.307 1526.09 723.114 1518.58 L728.206 1518.58 Z" fill="#000000" fill-rule="nonzero" fill-opacity="1" /><path clip-path="url(#clip770)" d="M762.294 1533.45 L762.294 1538.98 Q759.812 1537.71 757.138 1537.07 Q754.465 1536.44 751.6 1536.44 Q747.24 1536.44 745.043 1537.77 Q742.879 1539.11 742.879 1541.79 Q742.879 1543.82 744.439 1545 Q745.998 1546.15 750.709 1547.2 L752.714 1547.64 Q758.952 1548.98 761.562 1551.43 Q764.204 1553.85 764.204 1558.21 Q764.204 1563.17 760.257 1566.07 Q756.343 1568.97 749.468 1568.97 Q746.603 1568.97 743.484 1568.39 Q740.396 1567.85 736.959 1566.74 L736.959 1560.69 Q740.205 1562.38 743.356 1563.24 Q746.508 1564.07 749.595 1564.07 Q753.733 1564.07 755.961 1562.66 Q758.189 1561.23 758.189 1558.65 Q758.189 1556.27 756.565 1554.99 Q754.974 1553.72 749.531 1552.54 L747.494 1552.07 Q742.052 1550.92 739.633 1548.56 Q737.214 1546.18 737.214 1542.04 Q737.214 1537.01 740.778 1534.27 Q744.343 1531.54 750.9 1531.54 Q754.146 1531.54 757.011 1532.01 Q759.876 1532.49 762.294 1533.45 Z" fill="#000000" fill-rule="nonzero" fill-opacity="1" /><path clip-path="url(#clip770)" d="M772.607 1518.58 L777.699 1518.58 Q782.474 1526.09 784.829 1533.29 Q787.216 1540.48 787.216 1547.58 Q787.216 1554.71 784.829 1561.93 Q782.474 1569.16 777.699 1576.64 L772.607 1576.64 Q776.84 1569.35 778.909 1562.16 Q781.01 1554.93 781.01 1547.58 Q781.01 1540.23 778.909 1533.06 Q776.84 1525.9 772.607 1518.58 Z" fill="#000000" fill-rule="nonzero" fill-opacity="1" /><polyline clip-path="url(#clip770)" style="stroke:#000000; stroke-linecap:round; stroke-linejoin:round; stroke-width:4; stroke-opacity:1; fill:none" points="203.964,1423.18 203.964,47.2441 "/>
<polyline clip-path="url(#clip770)" style="stroke:#000000; stroke-linecap:round; stroke-linejoin:round; stroke-width:4; stroke-opacity:1; fill:none" points="203.964,1384.41 222.861,1384.41 "/>
<polyline clip-path="url(#clip770)" style="stroke:#000000; stroke-linecap:round; stroke-linejoin:round; stroke-width:4; stroke-opacity:1; fill:none" points="203.964,1160.57 222.861,1160.57 "/>
<polyline clip-path="url(#clip770)" style="stroke:#000000; stroke-linecap:round; stroke-linejoin:round; stroke-width:4; stroke-opacity:1; fill:none" points="203.964,936.726 222.861,936.726 "/>
<polyline clip-path="url(#clip770)" style="stroke:#000000; stroke-linecap:round; stroke-linejoin:round; stroke-width:4; stroke-opacity:1; fill:none" points="203.964,712.882 222.861,712.882 "/>
<polyline clip-path="url(#clip770)" style="stroke:#000000; stroke-linecap:round; stroke-linejoin:round; stroke-width:4; stroke-opacity:1; fill:none" points="203.964,489.039 222.861,489.039 "/>
<polyline clip-path="url(#clip770)" style="stroke:#000000; stroke-linecap:round; stroke-linejoin:round; stroke-width:4; stroke-opacity:1; fill:none" points="203.964,265.195 222.861,265.195 "/>
<path clip-path="url(#clip770)" d="M156.019 1370.21 Q152.408 1370.21 150.579 1373.78 Q148.774 1377.32 148.774 1384.45 Q148.774 1391.55 150.579 1395.12 Q152.408 1398.66 156.019 1398.66 Q159.653 1398.66 161.459 1395.12 Q163.288 1391.55 163.288 1384.45 Q163.288 1377.32 161.459 1373.78 Q159.653 1370.21 156.019 1370.21 M156.019 1366.51 Q161.829 1366.51 164.885 1371.11 Q167.964 1375.7 167.964 1384.45 Q167.964 1393.17 164.885 1397.78 Q161.829 1402.36 156.019 1402.36 Q150.209 1402.36 147.13 1397.78 Q144.075 1393.17 144.075 1384.45 Q144.075 1375.7 147.13 1371.11 Q150.209 1366.51 156.019 1366.51 Z" fill="#000000" fill-rule="nonzero" fill-opacity="1" /><path clip-path="url(#clip770)" d="M147.061 1143.29 L165.417 1143.29 L165.417 1147.22 L151.343 1147.22 L151.343 1155.7 Q152.362 1155.35 153.38 1155.19 Q154.399 1155 155.417 1155 Q161.204 1155 164.584 1158.17 Q167.964 1161.34 167.964 1166.76 Q167.964 1172.34 164.491 1175.44 Q161.019 1178.52 154.7 1178.52 Q152.524 1178.52 150.255 1178.15 Q148.01 1177.78 145.603 1177.04 L145.603 1172.34 Q147.686 1173.47 149.908 1174.03 Q152.13 1174.59 154.607 1174.59 Q158.612 1174.59 160.95 1172.48 Q163.288 1170.37 163.288 1166.76 Q163.288 1163.15 160.95 1161.04 Q158.612 1158.94 154.607 1158.94 Q152.732 1158.94 150.857 1159.35 Q149.005 1159.77 147.061 1160.65 L147.061 1143.29 Z" fill="#000000" fill-rule="nonzero" fill-opacity="1" /><path clip-path="url(#clip770)" d="M116.668 950.07 L124.306 950.07 L124.306 923.705 L115.996 925.371 L115.996 921.112 L124.26 919.446 L128.936 919.446 L128.936 950.07 L136.575 950.07 L136.575 954.006 L116.668 954.006 L116.668 950.07 Z" fill="#000000" fill-rule="nonzero" fill-opacity="1" /><path clip-path="url(#clip770)" d="M156.019 922.524 Q152.408 922.524 150.579 926.089 Q148.774 929.631 148.774 936.76 Q148.774 943.867 150.579 947.432 Q152.408 950.973 156.019 950.973 Q159.653 950.973 161.459 947.432 Q163.288 943.867 163.288 936.76 Q163.288 929.631 161.459 926.089 Q159.653 922.524 156.019 922.524 M156.019 918.821 Q161.829 918.821 164.885 923.427 Q167.964 928.01 167.964 936.76 Q167.964 945.487 164.885 950.094 Q161.829 954.677 156.019 954.677 Q150.209 954.677 147.13 950.094 Q144.075 945.487 144.075 936.76 Q144.075 928.01 147.13 923.427 Q150.209 918.821 156.019 918.821 Z" fill="#000000" fill-rule="nonzero" fill-opacity="1" /><path clip-path="url(#clip770)" d="M117.663 726.227 L125.302 726.227 L125.302 699.861 L116.992 701.528 L116.992 697.269 L125.255 695.602 L129.931 695.602 L129.931 726.227 L137.57 726.227 L137.57 730.162 L117.663 730.162 L117.663 726.227 Z" fill="#000000" fill-rule="nonzero" fill-opacity="1" /><path clip-path="url(#clip770)" d="M147.061 695.602 L165.417 695.602 L165.417 699.537 L151.343 699.537 L151.343 708.01 Q152.362 707.662 153.38 707.5 Q154.399 707.315 155.417 707.315 Q161.204 707.315 164.584 710.486 Q167.964 713.658 167.964 719.074 Q167.964 724.653 164.491 727.755 Q161.019 730.833 154.7 730.833 Q152.524 730.833 150.255 730.463 Q148.01 730.093 145.603 729.352 L145.603 724.653 Q147.686 725.787 149.908 726.343 Q152.13 726.898 154.607 726.898 Q158.612 726.898 160.95 724.792 Q163.288 722.685 163.288 719.074 Q163.288 715.463 160.95 713.357 Q158.612 711.25 154.607 711.25 Q152.732 711.25 150.857 711.667 Q149.005 712.084 147.061 712.963 L147.061 695.602 Z" fill="#000000" fill-rule="nonzero" fill-opacity="1" /><path clip-path="url(#clip770)" d="M119.885 502.384 L136.204 502.384 L136.204 506.319 L114.26 506.319 L114.26 502.384 Q116.922 499.629 121.505 494.999 Q126.112 490.347 127.292 489.004 Q129.538 486.481 130.417 484.745 Q131.32 482.986 131.32 481.296 Q131.32 478.541 129.376 476.805 Q127.455 475.069 124.353 475.069 Q122.154 475.069 119.7 475.833 Q117.269 476.597 114.492 478.148 L114.492 473.425 Q117.316 472.291 119.769 471.712 Q122.223 471.134 124.26 471.134 Q129.63 471.134 132.825 473.819 Q136.019 476.504 136.019 480.995 Q136.019 483.124 135.209 485.046 Q134.422 486.944 132.316 489.536 Q131.737 490.208 128.635 493.425 Q125.533 496.62 119.885 502.384 Z" fill="#000000" fill-rule="nonzero" fill-opacity="1" /><path clip-path="url(#clip770)" d="M156.019 474.837 Q152.408 474.837 150.579 478.402 Q148.774 481.944 148.774 489.073 Q148.774 496.18 150.579 499.745 Q152.408 503.286 156.019 503.286 Q159.653 503.286 161.459 499.745 Q163.288 496.18 163.288 489.073 Q163.288 481.944 161.459 478.402 Q159.653 474.837 156.019 474.837 M156.019 471.134 Q161.829 471.134 164.885 475.74 Q167.964 480.324 167.964 489.073 Q167.964 497.8 164.885 502.407 Q161.829 506.99 156.019 506.99 Q150.209 506.99 147.13 502.407 Q144.075 497.8 144.075 489.073 Q144.075 480.324 147.13 475.74 Q150.209 471.134 156.019 471.134 Z" fill="#000000" fill-rule="nonzero" fill-opacity="1" /><path clip-path="url(#clip770)" d="M120.88 278.54 L137.2 278.54 L137.2 282.475 L115.256 282.475 L115.256 278.54 Q117.918 275.786 122.501 271.156 Q127.107 266.503 128.288 265.161 Q130.533 262.637 131.413 260.901 Q132.316 259.142 132.316 257.452 Q132.316 254.698 130.371 252.962 Q128.45 251.226 125.348 251.226 Q123.149 251.226 120.695 251.989 Q118.265 252.753 115.487 254.304 L115.487 249.582 Q118.311 248.448 120.765 247.869 Q123.218 247.29 125.255 247.29 Q130.626 247.29 133.82 249.976 Q137.015 252.661 137.015 257.151 Q137.015 259.281 136.204 261.202 Q135.417 263.1 133.311 265.693 Q132.732 266.364 129.63 269.582 Q126.529 272.776 120.88 278.54 Z" fill="#000000" fill-rule="nonzero" fill-opacity="1" /><path clip-path="url(#clip770)" d="M147.061 247.915 L165.417 247.915 L165.417 251.851 L151.343 251.851 L151.343 260.323 Q152.362 259.975 153.38 259.813 Q154.399 259.628 155.417 259.628 Q161.204 259.628 164.584 262.8 Q167.964 265.971 167.964 271.387 Q167.964 276.966 164.491 280.068 Q161.019 283.147 154.7 283.147 Q152.524 283.147 150.255 282.776 Q148.01 282.406 145.603 281.665 L145.603 276.966 Q147.686 278.1 149.908 278.656 Q152.13 279.211 154.607 279.211 Q158.612 279.211 160.95 277.105 Q163.288 274.999 163.288 271.387 Q163.288 267.776 160.95 265.67 Q158.612 263.563 154.607 263.563 Q152.732 263.563 150.857 263.98 Q149.005 264.397 147.061 265.276 L147.061 247.915 Z" fill="#000000" fill-rule="nonzero" fill-opacity="1" /><path clip-path="url(#clip770)" d="M39.4334 772.564 Q44.844 772.564 50.9309 774.303 Q56.9856 776.01 61.8809 778.715 Q66.744 781.42 69.9646 784.963 Q73.153 788.505 73.153 791.887 Q73.153 794.045 71.9613 795.655 Q70.7375 797.233 68.7085 798.103 Q66.6474 798.972 64.393 799.391 Q62.1063 799.81 59.6265 799.81 Q55.9228 799.81 51.8971 799.005 Q47.8391 798.199 44.1677 796.847 Q40.464 795.494 37.1146 793.594 Q33.733 791.694 31.2853 789.6 Q28.8055 787.475 27.3562 785.092 Q25.907 782.708 25.907 780.486 Q25.907 778.876 26.6155 777.588 Q27.2918 776.267 28.4834 775.43 Q29.6428 774.593 31.0277 774.013 Q32.4125 773.401 34.0228 773.111 Q35.6009 772.821 36.9214 772.692 Q38.2096 772.564 39.4334 772.564 M35.3433 776.911 Q33.7008 776.911 32.477 777.04 Q31.2209 777.169 29.9649 777.523 Q28.7089 777.878 28.0325 778.65 Q27.3562 779.391 27.3562 780.551 Q27.3562 783.932 34.2805 787.733 Q36.4383 788.956 39.369 790.051 Q42.2997 791.146 43.6846 791.533 Q45.0694 791.919 48.4833 792.821 L48.4833 779.037 Q39.6911 776.911 35.3433 776.911 M50.5766 779.617 L50.5766 793.336 Q58.6281 795.462 63.6522 795.462 Q68.0322 795.462 69.868 794.56 Q71.6715 793.626 71.6715 791.887 Q71.6715 789.89 69.6747 788.022 Q67.6458 786.154 63.9743 784.254 Q59.2078 781.742 50.5766 779.617 Z" fill="#000000" fill-rule="nonzero" fill-opacity="1" /><path clip-path="url(#clip770)" d="M22.9507 728.256 Q30.2712 732.521 37.4327 734.59 Q44.5941 736.658 51.9465 736.658 Q59.2989 736.658 66.5239 734.59 Q73.7172 732.489 81.0059 728.256 L81.0059 733.348 Q73.5262 738.123 66.3011 740.51 Q59.0761 742.865 51.9465 742.865 Q44.8487 742.865 37.6555 740.51 Q30.4622 738.154 22.9507 733.348 L22.9507 728.256 Z" fill="#000000" fill-rule="nonzero" fill-opacity="1" /><path clip-path="url(#clip770)" d="M28.1387 706.74 Q28.1387 709.286 29.9211 711.036 Q31.6717 712.787 34.218 712.787 Q36.7324 712.787 38.483 711.036 Q40.2017 709.286 40.2017 706.74 Q40.2017 704.193 38.483 702.443 Q36.7324 700.692 34.218 700.692 Q31.7035 700.692 29.9211 702.475 Q28.1387 704.225 28.1387 706.74 M24.0328 706.74 Q24.0328 704.703 24.8286 702.825 Q25.5924 700.947 27.0566 699.578 Q28.4888 698.114 30.3031 697.382 Q32.1173 696.65 34.218 696.65 Q38.4193 696.65 41.3476 699.61 Q44.244 702.538 44.244 706.803 Q44.244 711.1 41.3794 713.965 Q38.5148 716.829 34.218 716.829 Q29.953 716.829 26.9929 713.901 Q24.0328 710.973 24.0328 706.74 Z" fill="#000000" fill-rule="nonzero" fill-opacity="1" /><path clip-path="url(#clip770)" d="M22.9507 685.224 L22.9507 680.131 Q30.4622 675.357 37.6555 673.001 Q44.8487 670.614 51.9465 670.614 Q59.0761 670.614 66.3011 673.001 Q73.5262 675.357 81.0059 680.131 L81.0059 685.224 Q73.7172 680.99 66.5239 678.921 Q59.2989 676.821 51.9465 676.821 Q44.5941 676.821 37.4327 678.921 Q30.2712 680.99 22.9507 685.224 Z" fill="#000000" fill-rule="nonzero" fill-opacity="1" /><polyline clip-path="url(#clip772)" style="stroke:#009af9; stroke-linecap:round; stroke-linejoin:round; stroke-width:4; stroke-opacity:1; fill:none" points="229.629,1384.23 254.791,1282.74 279.954,983.427 305.116,732.447 330.278,442.523 355.44,252.068 380.603,185.297 405.765,116.883 430.927,86.1857 456.089,105.121 481.252,135.197 506.414,166.709 531.576,239.44 556.739,254.071 581.901,251.517 607.063,295.252 632.225,299.076 657.388,255.89 682.55,319.839 707.712,312.518 732.874,260.926 758.037,251.837 783.199,227.46 808.361,298.56 833.524,267.459 858.686,234.355 883.848,278.975 909.01,219.474 934.173,208.709 959.335,238.714 984.497,240.244 1009.66,281.578 1034.82,284.15 1059.98,256.262 1085.15,281.504 "/>
<polyline clip-path="url(#clip772)" style="stroke:#e26f46; stroke-linecap:round; stroke-linejoin:round; stroke-width:3; stroke-opacity:1; fill:none" stroke-dasharray="12, 6, 2, 6" points="229.629,1384.24 254.791,1279.67 279.954,986.79 305.116,722.405 330.278,444.062 355.44,249.406 380.603,175.183 405.765,121.903 430.927,95.2103 456.089,110.053 481.252,140.453 506.414,172.373 531.576,235.941 556.739,259.729 581.901,258.392 607.063,289.854 632.225,299.26 657.388,264.689 682.55,306.523 707.712,312.246 732.874,270.629 758.037,252.421 783.199,230.327 808.361,283.886 833.524,273.665 858.686,242.402 883.848,270.358 909.01,230.761 934.173,211.546 959.335,232.645 984.497,240.547 1009.66,275.123 1034.82,284.879 1059.98,262.722 1085.15,276.359 "/>
<path clip-path="url(#clip770)" d="M961.069 1377.32 L1080.58 1377.32 L1080.58 1221.8 L961.069 1221.8  Z" fill="#ffffff" fill-rule="evenodd" fill-opacity="1"/>
<polyline clip-path="url(#clip770)" style="stroke:#000000; stroke-linecap:round; stroke-linejoin:round; stroke-width:4; stroke-opacity:1; fill:none" points="961.069,1377.32 1080.58,1377.32 1080.58,1221.8 961.069,1221.8 961.069,1377.32 "/>
<polyline clip-path="url(#clip770)" style="stroke:#009af9; stroke-linecap:round; stroke-linejoin:round; stroke-width:4; stroke-opacity:1; fill:none" points="971.145,1273.64 1031.6,1273.64 "/>
<path clip-path="url(#clip770)" d="M1068.45 1260.37 Q1066.97 1260.37 1066.22 1260.51 Q1065.48 1260.63 1065.29 1260.8 Q1065.1 1260.96 1064.89 1261.38 L1054.58 1283.3 Q1053.48 1285.65 1051.42 1287.33 Q1049.38 1289.02 1046.81 1289.02 Q1044.65 1289.02 1043.15 1287.71 Q1041.68 1286.42 1041.68 1284.59 Q1041.68 1283.28 1042.5 1282.53 Q1043.32 1281.81 1044.42 1281.81 Q1045.64 1281.81 1046.41 1282.58 Q1047.21 1283.35 1047.21 1284.55 Q1047.21 1285.32 1046.88 1285.9 Q1046.55 1286.51 1046.25 1286.72 Q1045.96 1286.96 1045.66 1287.1 Q1046.15 1287.29 1046.81 1287.29 Q1047.79 1287.29 1048.63 1286.89 Q1049.5 1286.51 1050.06 1286 Q1050.65 1285.51 1051.23 1284.62 Q1051.82 1283.75 1052.1 1283.19 Q1052.38 1282.65 1052.8 1281.71 L1053.9 1279.42 L1044.93 1260.37 L1041.87 1260.37 L1041.87 1258.13 L1047.35 1258.27 L1053.3 1258.13 L1053.3 1260.37 L1050.7 1260.37 L1056.79 1273.33 L1062.31 1261.52 L1062.55 1260.96 Q1062.55 1260.7 1061.99 1260.56 Q1061.42 1260.4 1060.86 1260.4 L1060.3 1260.37 L1060.3 1258.13 L1064.66 1258.27 Q1066.72 1258.27 1068.45 1258.13 L1068.45 1260.37 Z" fill="#000000" fill-rule="nonzero" fill-opacity="1" /><polyline clip-path="url(#clip770)" style="stroke:#e26f46; stroke-linecap:round; stroke-linejoin:round; stroke-width:3; stroke-opacity:1; fill:none" stroke-dasharray="12, 6, 2, 6" points="971.145,1325.48 1031.6,1325.48 "/>
<path clip-path="url(#clip770)" d="M1064.26 1309.2 L1063.85 1309.87 Q1061.31 1308.77 1058.15 1307.01 Q1054.98 1308.77 1052.44 1309.87 L1052.05 1309.2 Q1054.82 1306.79 1058.15 1304.93 Q1061.51 1306.8 1064.26 1309.2 Z" fill="#000000" fill-rule="nonzero" fill-opacity="1" /><path clip-path="url(#clip770)" d="M1068.45 1317.22 Q1066.97 1317.22 1066.22 1317.36 Q1065.48 1317.48 1065.29 1317.64 Q1065.1 1317.8 1064.89 1318.23 L1054.58 1340.15 Q1053.48 1342.49 1051.42 1344.18 Q1049.38 1345.86 1046.81 1345.86 Q1044.65 1345.86 1043.15 1344.55 Q1041.68 1343.26 1041.68 1341.44 Q1041.68 1340.13 1042.5 1339.38 Q1043.32 1338.65 1044.42 1338.65 Q1045.64 1338.65 1046.41 1339.42 Q1047.21 1340.2 1047.21 1341.39 Q1047.21 1342.16 1046.88 1342.75 Q1046.55 1343.36 1046.25 1343.57 Q1045.96 1343.8 1045.66 1343.94 Q1046.15 1344.13 1046.81 1344.13 Q1047.79 1344.13 1048.63 1343.73 Q1049.5 1343.36 1050.06 1342.84 Q1050.65 1342.35 1051.23 1341.46 Q1051.82 1340.59 1052.1 1340.03 Q1052.38 1339.49 1052.8 1338.56 L1053.9 1336.26 L1044.93 1317.22 L1041.87 1317.22 L1041.87 1314.97 L1047.35 1315.11 L1053.3 1314.97 L1053.3 1317.22 L1050.7 1317.22 L1056.79 1330.17 L1062.31 1318.37 L1062.55 1317.8 Q1062.55 1317.55 1061.99 1317.41 Q1061.42 1317.24 1060.86 1317.24 L1060.3 1317.22 L1060.3 1314.97 L1064.66 1315.11 Q1066.72 1315.11 1068.45 1314.97 L1068.45 1317.22 Z" fill="#000000" fill-rule="nonzero" fill-opacity="1" /><path clip-path="url(#clip770)" d="M1445.91 398.692 L2352.76 398.692 L2352.76 47.2441 L1445.91 47.2441  Z" fill="#ffffff" fill-rule="evenodd" fill-opacity="1"/>
<defs>
  <clipPath id="clip773">
    <rect x="1445" y="47" width="908" height="352"/>
  </clipPath>
</defs>
<polyline clip-path="url(#clip773)" style="stroke:#000000; stroke-linecap:round; stroke-linejoin:round; stroke-width:2; stroke-opacity:0.1; fill:none" points="1471.57,398.692 1471.57,47.2441 "/>
<polyline clip-path="url(#clip773)" style="stroke:#000000; stroke-linecap:round; stroke-linejoin:round; stroke-width:2; stroke-opacity:0.1; fill:none" points="1723.2,398.692 1723.2,47.2441 "/>
<polyline clip-path="url(#clip773)" style="stroke:#000000; stroke-linecap:round; stroke-linejoin:round; stroke-width:2; stroke-opacity:0.1; fill:none" points="1974.82,398.692 1974.82,47.2441 "/>
<polyline clip-path="url(#clip773)" style="stroke:#000000; stroke-linecap:round; stroke-linejoin:round; stroke-width:2; stroke-opacity:0.1; fill:none" points="2226.44,398.692 2226.44,47.2441 "/>
<polyline clip-path="url(#clip773)" style="stroke:#000000; stroke-linecap:round; stroke-linejoin:round; stroke-width:2; stroke-opacity:0.1; fill:none" points="1445.91,388.745 2352.76,388.745 "/>
<polyline clip-path="url(#clip773)" style="stroke:#000000; stroke-linecap:round; stroke-linejoin:round; stroke-width:2; stroke-opacity:0.1; fill:none" points="1445.91,323.008 2352.76,323.008 "/>
<polyline clip-path="url(#clip773)" style="stroke:#000000; stroke-linecap:round; stroke-linejoin:round; stroke-width:2; stroke-opacity:0.1; fill:none" points="1445.91,257.27 2352.76,257.27 "/>
<polyline clip-path="url(#clip773)" style="stroke:#000000; stroke-linecap:round; stroke-linejoin:round; stroke-width:2; stroke-opacity:0.1; fill:none" points="1445.91,191.533 2352.76,191.533 "/>
<polyline clip-path="url(#clip773)" style="stroke:#000000; stroke-linecap:round; stroke-linejoin:round; stroke-width:2; stroke-opacity:0.1; fill:none" points="1445.91,125.796 2352.76,125.796 "/>
<polyline clip-path="url(#clip773)" style="stroke:#000000; stroke-linecap:round; stroke-linejoin:round; stroke-width:2; stroke-opacity:0.1; fill:none" points="1445.91,60.0584 2352.76,60.0584 "/>
<polyline clip-path="url(#clip770)" style="stroke:#000000; stroke-linecap:round; stroke-linejoin:round; stroke-width:4; stroke-opacity:1; fill:none" points="1445.91,398.692 2352.76,398.692 "/>
<polyline clip-path="url(#clip770)" style="stroke:#000000; stroke-linecap:round; stroke-linejoin:round; stroke-width:4; stroke-opacity:1; fill:none" points="1471.57,398.692 1471.57,379.794 "/>
<polyline clip-path="url(#clip770)" style="stroke:#000000; stroke-linecap:round; stroke-linejoin:round; stroke-width:4; stroke-opacity:1; fill:none" points="1723.2,398.692 1723.2,379.794 "/>
<polyline clip-path="url(#clip770)" style="stroke:#000000; stroke-linecap:round; stroke-linejoin:round; stroke-width:4; stroke-opacity:1; fill:none" points="1974.82,398.692 1974.82,379.794 "/>
<polyline clip-path="url(#clip770)" style="stroke:#000000; stroke-linecap:round; stroke-linejoin:round; stroke-width:4; stroke-opacity:1; fill:none" points="2226.44,398.692 2226.44,379.794 "/>
<path clip-path="url(#clip770)" d="M1471.57 429.611 Q1467.96 429.611 1466.13 433.175 Q1464.33 436.717 1464.33 443.847 Q1464.33 450.953 1466.13 454.518 Q1467.96 458.059 1471.57 458.059 Q1475.21 458.059 1477.01 454.518 Q1478.84 450.953 1478.84 443.847 Q1478.84 436.717 1477.01 433.175 Q1475.21 429.611 1471.57 429.611 M1471.57 425.907 Q1477.38 425.907 1480.44 430.513 Q1483.52 435.097 1483.52 443.847 Q1483.52 452.573 1480.44 457.18 Q1477.38 461.763 1471.57 461.763 Q1465.76 461.763 1462.68 457.18 Q1459.63 452.573 1459.63 443.847 Q1459.63 435.097 1462.68 430.513 Q1465.76 425.907 1471.57 425.907 Z" fill="#000000" fill-rule="nonzero" fill-opacity="1" /><path clip-path="url(#clip770)" d="M1713.58 457.157 L1721.22 457.157 L1721.22 430.791 L1712.91 432.458 L1712.91 428.199 L1721.17 426.532 L1725.85 426.532 L1725.85 457.157 L1733.49 457.157 L1733.49 461.092 L1713.58 461.092 L1713.58 457.157 Z" fill="#000000" fill-rule="nonzero" fill-opacity="1" /><path clip-path="url(#clip770)" d="M1969.47 457.157 L1985.79 457.157 L1985.79 461.092 L1963.85 461.092 L1963.85 457.157 Q1966.51 454.402 1971.09 449.772 Q1975.7 445.12 1976.88 443.777 Q1979.12 441.254 1980 439.518 Q1980.91 437.759 1980.91 436.069 Q1980.91 433.314 1978.96 431.578 Q1977.04 429.842 1973.94 429.842 Q1971.74 429.842 1969.29 430.606 Q1966.86 431.37 1964.08 432.921 L1964.08 428.199 Q1966.9 427.064 1969.36 426.486 Q1971.81 425.907 1973.85 425.907 Q1979.22 425.907 1982.41 428.592 Q1985.61 431.277 1985.61 435.768 Q1985.61 437.898 1984.8 439.819 Q1984.01 441.717 1981.9 444.31 Q1981.32 444.981 1978.22 448.198 Q1975.12 451.393 1969.47 457.157 Z" fill="#000000" fill-rule="nonzero" fill-opacity="1" /><path clip-path="url(#clip770)" d="M2230.69 442.458 Q2234.05 443.175 2235.92 445.444 Q2237.82 447.712 2237.82 451.046 Q2237.82 456.161 2234.3 458.962 Q2230.78 461.763 2224.3 461.763 Q2222.12 461.763 2219.81 461.323 Q2217.52 460.907 2215.06 460.05 L2215.06 455.536 Q2217.01 456.671 2219.32 457.249 Q2221.64 457.828 2224.16 457.828 Q2228.56 457.828 2230.85 456.092 Q2233.17 454.356 2233.17 451.046 Q2233.17 447.99 2231.01 446.277 Q2228.88 444.541 2225.06 444.541 L2221.04 444.541 L2221.04 440.698 L2225.25 440.698 Q2228.7 440.698 2230.53 439.333 Q2232.36 437.944 2232.36 435.351 Q2232.36 432.689 2230.46 431.277 Q2228.58 429.842 2225.06 429.842 Q2223.14 429.842 2220.94 430.259 Q2218.74 430.675 2216.11 431.555 L2216.11 427.388 Q2218.77 426.648 2221.08 426.277 Q2223.42 425.907 2225.48 425.907 Q2230.8 425.907 2233.91 428.337 Q2237.01 430.745 2237.01 434.865 Q2237.01 437.736 2235.36 439.726 Q2233.72 441.694 2230.69 442.458 Z" fill="#000000" fill-rule="nonzero" fill-opacity="1" /><polyline clip-path="url(#clip770)" style="stroke:#000000; stroke-linecap:round; stroke-linejoin:round; stroke-width:4; stroke-opacity:1; fill:none" points="1445.91,398.692 1445.91,47.2441 "/>
<polyline clip-path="url(#clip770)" style="stroke:#000000; stroke-linecap:round; stroke-linejoin:round; stroke-width:4; stroke-opacity:1; fill:none" points="1445.91,388.745 1464.81,388.745 "/>
<polyline clip-path="url(#clip770)" style="stroke:#000000; stroke-linecap:round; stroke-linejoin:round; stroke-width:4; stroke-opacity:1; fill:none" points="1445.91,323.008 1464.81,323.008 "/>
<polyline clip-path="url(#clip770)" style="stroke:#000000; stroke-linecap:round; stroke-linejoin:round; stroke-width:4; stroke-opacity:1; fill:none" points="1445.91,257.27 1464.81,257.27 "/>
<polyline clip-path="url(#clip770)" style="stroke:#000000; stroke-linecap:round; stroke-linejoin:round; stroke-width:4; stroke-opacity:1; fill:none" points="1445.91,191.533 1464.81,191.533 "/>
<polyline clip-path="url(#clip770)" style="stroke:#000000; stroke-linecap:round; stroke-linejoin:round; stroke-width:4; stroke-opacity:1; fill:none" points="1445.91,125.796 1464.81,125.796 "/>
<polyline clip-path="url(#clip770)" style="stroke:#000000; stroke-linecap:round; stroke-linejoin:round; stroke-width:4; stroke-opacity:1; fill:none" points="1445.91,60.0584 1464.81,60.0584 "/>
<path clip-path="url(#clip770)" d="M1352.73 374.544 Q1349.12 374.544 1347.29 378.109 Q1345.49 381.65 1345.49 388.78 Q1345.49 395.886 1347.29 399.451 Q1349.12 402.993 1352.73 402.993 Q1356.37 402.993 1358.17 399.451 Q1360 395.886 1360 388.78 Q1360 381.65 1358.17 378.109 Q1356.37 374.544 1352.73 374.544 M1352.73 370.84 Q1358.54 370.84 1361.6 375.447 Q1364.68 380.03 1364.68 388.78 Q1364.68 397.507 1361.6 402.113 Q1358.54 406.697 1352.73 406.697 Q1346.92 406.697 1343.84 402.113 Q1340.79 397.507 1340.79 388.78 Q1340.79 380.03 1343.84 375.447 Q1346.92 370.84 1352.73 370.84 Z" fill="#000000" fill-rule="nonzero" fill-opacity="1" /><path clip-path="url(#clip770)" d="M1372.89 400.146 L1377.78 400.146 L1377.78 406.025 L1372.89 406.025 L1372.89 400.146 Z" fill="#000000" fill-rule="nonzero" fill-opacity="1" /><path clip-path="url(#clip770)" d="M1397.96 374.544 Q1394.35 374.544 1392.52 378.109 Q1390.72 381.65 1390.72 388.78 Q1390.72 395.886 1392.52 399.451 Q1394.35 402.993 1397.96 402.993 Q1401.6 402.993 1403.4 399.451 Q1405.23 395.886 1405.23 388.78 Q1405.23 381.65 1403.4 378.109 Q1401.6 374.544 1397.96 374.544 M1397.96 370.84 Q1403.77 370.84 1406.83 375.447 Q1409.91 380.03 1409.91 388.78 Q1409.91 397.507 1406.83 402.113 Q1403.77 406.697 1397.96 406.697 Q1392.15 406.697 1389.07 402.113 Q1386.02 397.507 1386.02 388.78 Q1386.02 380.03 1389.07 375.447 Q1392.15 370.84 1397.96 370.84 Z" fill="#000000" fill-rule="nonzero" fill-opacity="1" /><path clip-path="url(#clip770)" d="M1353.96 308.807 Q1350.35 308.807 1348.52 312.371 Q1346.71 315.913 1346.71 323.043 Q1346.71 330.149 1348.52 333.714 Q1350.35 337.255 1353.96 337.255 Q1357.59 337.255 1359.4 333.714 Q1361.23 330.149 1361.23 323.043 Q1361.23 315.913 1359.4 312.371 Q1357.59 308.807 1353.96 308.807 M1353.96 305.103 Q1359.77 305.103 1362.82 309.709 Q1365.9 314.293 1365.9 323.043 Q1365.9 331.769 1362.82 336.376 Q1359.77 340.959 1353.96 340.959 Q1348.15 340.959 1345.07 336.376 Q1342.01 331.769 1342.01 323.043 Q1342.01 314.293 1345.07 309.709 Q1348.15 305.103 1353.96 305.103 Z" fill="#000000" fill-rule="nonzero" fill-opacity="1" /><path clip-path="url(#clip770)" d="M1374.12 334.408 L1379.01 334.408 L1379.01 340.288 L1374.12 340.288 L1374.12 334.408 Z" fill="#000000" fill-rule="nonzero" fill-opacity="1" /><path clip-path="url(#clip770)" d="M1390 336.353 L1397.64 336.353 L1397.64 309.987 L1389.33 311.654 L1389.33 307.395 L1397.59 305.728 L1402.27 305.728 L1402.27 336.353 L1409.91 336.353 L1409.91 340.288 L1390 340.288 L1390 336.353 Z" fill="#000000" fill-rule="nonzero" fill-opacity="1" /><path clip-path="url(#clip770)" d="M1354.33 243.069 Q1350.72 243.069 1348.89 246.634 Q1347.08 250.176 1347.08 257.305 Q1347.08 264.412 1348.89 267.976 Q1350.72 271.518 1354.33 271.518 Q1357.96 271.518 1359.77 267.976 Q1361.6 264.412 1361.6 257.305 Q1361.6 250.176 1359.77 246.634 Q1357.96 243.069 1354.33 243.069 M1354.33 239.365 Q1360.14 239.365 1363.2 243.972 Q1366.27 248.555 1366.27 257.305 Q1366.27 266.032 1363.2 270.638 Q1360.14 275.222 1354.33 275.222 Q1348.52 275.222 1345.44 270.638 Q1342.39 266.032 1342.39 257.305 Q1342.39 248.555 1345.44 243.972 Q1348.52 239.365 1354.33 239.365 Z" fill="#000000" fill-rule="nonzero" fill-opacity="1" /><path clip-path="url(#clip770)" d="M1374.49 268.671 L1379.38 268.671 L1379.38 274.55 L1374.49 274.55 L1374.49 268.671 Z" fill="#000000" fill-rule="nonzero" fill-opacity="1" /><path clip-path="url(#clip770)" d="M1393.59 270.615 L1409.91 270.615 L1409.91 274.55 L1387.96 274.55 L1387.96 270.615 Q1390.63 267.861 1395.21 263.231 Q1399.82 258.578 1401 257.236 Q1403.24 254.713 1404.12 252.977 Q1405.02 251.217 1405.02 249.527 Q1405.02 246.773 1403.08 245.037 Q1401.16 243.301 1398.06 243.301 Q1395.86 243.301 1393.4 244.065 Q1390.97 244.828 1388.19 246.379 L1388.19 241.657 Q1391.02 240.523 1393.47 239.944 Q1395.93 239.365 1397.96 239.365 Q1403.33 239.365 1406.53 242.051 Q1409.72 244.736 1409.72 249.227 Q1409.72 251.356 1408.91 253.277 Q1408.13 255.176 1406.02 257.768 Q1405.44 258.439 1402.34 261.657 Q1399.24 264.851 1393.59 270.615 Z" fill="#000000" fill-rule="nonzero" fill-opacity="1" /><path clip-path="url(#clip770)" d="M1353.38 177.332 Q1349.77 177.332 1347.94 180.897 Q1346.13 184.438 1346.13 191.568 Q1346.13 198.674 1347.94 202.239 Q1349.77 205.781 1353.38 205.781 Q1357.01 205.781 1358.82 202.239 Q1360.65 198.674 1360.65 191.568 Q1360.65 184.438 1358.82 180.897 Q1357.01 177.332 1353.38 177.332 M1353.38 173.628 Q1359.19 173.628 1362.25 178.235 Q1365.32 182.818 1365.32 191.568 Q1365.32 200.295 1362.25 204.901 Q1359.19 209.484 1353.38 209.484 Q1347.57 209.484 1344.49 204.901 Q1341.44 200.295 1341.44 191.568 Q1341.44 182.818 1344.49 178.235 Q1347.57 173.628 1353.38 173.628 Z" fill="#000000" fill-rule="nonzero" fill-opacity="1" /><path clip-path="url(#clip770)" d="M1373.54 202.934 L1378.43 202.934 L1378.43 208.813 L1373.54 208.813 L1373.54 202.934 Z" fill="#000000" fill-rule="nonzero" fill-opacity="1" /><path clip-path="url(#clip770)" d="M1402.78 190.179 Q1406.13 190.897 1408.01 193.165 Q1409.91 195.434 1409.91 198.767 Q1409.91 203.883 1406.39 206.683 Q1402.87 209.484 1396.39 209.484 Q1394.21 209.484 1391.9 209.045 Q1389.61 208.628 1387.15 207.771 L1387.15 203.258 Q1389.1 204.392 1391.41 204.971 Q1393.73 205.549 1396.25 205.549 Q1400.65 205.549 1402.94 203.813 Q1405.26 202.077 1405.26 198.767 Q1405.26 195.711 1403.1 193.998 Q1400.97 192.262 1397.15 192.262 L1393.13 192.262 L1393.13 188.42 L1397.34 188.42 Q1400.79 188.42 1402.62 187.054 Q1404.44 185.665 1404.44 183.073 Q1404.44 180.41 1402.55 178.998 Q1400.67 177.563 1397.15 177.563 Q1395.23 177.563 1393.03 177.98 Q1390.83 178.397 1388.19 179.276 L1388.19 175.11 Q1390.86 174.369 1393.17 173.998 Q1395.51 173.628 1397.57 173.628 Q1402.89 173.628 1406 176.059 Q1409.1 178.466 1409.1 182.586 Q1409.1 185.457 1407.45 187.447 Q1405.81 189.415 1402.78 190.179 Z" fill="#000000" fill-rule="nonzero" fill-opacity="1" /><path clip-path="url(#clip770)" d="M1352.25 111.594 Q1348.63 111.594 1346.81 115.159 Q1345 118.701 1345 125.83 Q1345 132.937 1346.81 136.502 Q1348.63 140.043 1352.25 140.043 Q1355.88 140.043 1357.69 136.502 Q1359.51 132.937 1359.51 125.83 Q1359.51 118.701 1357.69 115.159 Q1355.88 111.594 1352.25 111.594 M1352.25 107.891 Q1358.06 107.891 1361.11 112.497 Q1364.19 117.08 1364.19 125.83 Q1364.19 134.557 1361.11 139.164 Q1358.06 143.747 1352.25 143.747 Q1346.44 143.747 1343.36 139.164 Q1340.3 134.557 1340.3 125.83 Q1340.3 117.08 1343.36 112.497 Q1346.44 107.891 1352.25 107.891 Z" fill="#000000" fill-rule="nonzero" fill-opacity="1" /><path clip-path="url(#clip770)" d="M1372.41 137.196 L1377.29 137.196 L1377.29 143.076 L1372.41 143.076 L1372.41 137.196 Z" fill="#000000" fill-rule="nonzero" fill-opacity="1" /><path clip-path="url(#clip770)" d="M1400.32 112.59 L1388.52 131.039 L1400.32 131.039 L1400.32 112.59 M1399.1 108.516 L1404.98 108.516 L1404.98 131.039 L1409.91 131.039 L1409.91 134.928 L1404.98 134.928 L1404.98 143.076 L1400.32 143.076 L1400.32 134.928 L1384.72 134.928 L1384.72 130.414 L1399.1 108.516 Z" fill="#000000" fill-rule="nonzero" fill-opacity="1" /><path clip-path="url(#clip770)" d="M1353.73 45.857 Q1350.12 45.857 1348.29 49.4218 Q1346.48 52.9635 1346.48 60.0931 Q1346.48 67.1995 1348.29 70.7643 Q1350.12 74.306 1353.73 74.306 Q1357.36 74.306 1359.17 70.7643 Q1361 67.1995 1361 60.0931 Q1361 52.9635 1359.17 49.4218 Q1357.36 45.857 1353.73 45.857 M1353.73 42.1534 Q1359.54 42.1534 1362.59 46.7598 Q1365.67 51.3431 1365.67 60.0931 Q1365.67 68.8199 1362.59 73.4263 Q1359.54 78.0096 1353.73 78.0096 Q1347.92 78.0096 1344.84 73.4263 Q1341.78 68.8199 1341.78 60.0931 Q1341.78 51.3431 1344.84 46.7598 Q1347.92 42.1534 1353.73 42.1534 Z" fill="#000000" fill-rule="nonzero" fill-opacity="1" /><path clip-path="url(#clip770)" d="M1373.89 71.4588 L1378.77 71.4588 L1378.77 77.3384 L1373.89 77.3384 L1373.89 71.4588 Z" fill="#000000" fill-rule="nonzero" fill-opacity="1" /><path clip-path="url(#clip770)" d="M1389.01 42.7784 L1407.36 42.7784 L1407.36 46.7135 L1393.29 46.7135 L1393.29 55.1857 Q1394.31 54.8385 1395.32 54.6764 Q1396.34 54.4913 1397.36 54.4913 Q1403.15 54.4913 1406.53 57.6625 Q1409.91 60.8338 1409.91 66.2505 Q1409.91 71.8291 1406.44 74.931 Q1402.96 78.0096 1396.64 78.0096 Q1394.47 78.0096 1392.2 77.6393 Q1389.95 77.2689 1387.55 76.5282 L1387.55 71.8291 Q1389.63 72.9634 1391.85 73.5189 Q1394.07 74.0745 1396.55 74.0745 Q1400.56 74.0745 1402.89 71.968 Q1405.23 69.8615 1405.23 66.2505 Q1405.23 62.6394 1402.89 60.5329 Q1400.56 58.4264 1396.55 58.4264 Q1394.68 58.4264 1392.8 58.8431 Q1390.95 59.2597 1389.01 60.1394 L1389.01 42.7784 Z" fill="#000000" fill-rule="nonzero" fill-opacity="1" /><path clip-path="url(#clip770)" d="M1265.47 298.084 Q1270.89 298.084 1276.97 299.823 Q1283.03 301.53 1287.92 304.235 Q1292.79 306.941 1296.01 310.483 Q1299.19 314.026 1299.19 317.408 Q1299.19 319.565 1298 321.176 Q1296.78 322.754 1294.75 323.623 Q1292.69 324.493 1290.43 324.912 Q1288.15 325.33 1285.67 325.33 Q1281.96 325.33 1277.94 324.525 Q1273.88 323.72 1270.21 322.367 Q1266.51 321.015 1263.16 319.115 Q1259.77 317.214 1257.33 315.121 Q1254.85 312.995 1253.4 310.612 Q1251.95 308.229 1251.95 306.007 Q1251.95 304.396 1252.66 303.108 Q1253.33 301.788 1254.52 300.95 Q1255.68 300.113 1257.07 299.533 Q1258.45 298.921 1260.06 298.632 Q1261.64 298.342 1262.96 298.213 Q1264.25 298.084 1265.47 298.084 M1261.38 302.432 Q1259.74 302.432 1258.52 302.561 Q1257.26 302.69 1256.01 303.044 Q1254.75 303.398 1254.07 304.171 Q1253.4 304.912 1253.4 306.071 Q1253.4 309.453 1260.32 313.253 Q1262.48 314.477 1265.41 315.572 Q1268.34 316.667 1269.73 317.053 Q1271.11 317.44 1274.52 318.342 L1274.52 304.558 Q1265.73 302.432 1261.38 302.432 M1276.62 305.137 L1276.62 318.857 Q1284.67 320.983 1289.69 320.983 Q1294.07 320.983 1295.91 320.081 Q1297.71 319.147 1297.71 317.408 Q1297.71 315.411 1295.72 313.543 Q1293.69 311.675 1290.02 309.775 Q1285.25 307.263 1276.62 305.137 Z" fill="#000000" fill-rule="nonzero" fill-opacity="1" /><path clip-path="url(#clip770)" d="M1248.99 253.776 Q1256.31 258.041 1263.47 260.11 Q1270.64 262.179 1277.99 262.179 Q1285.34 262.179 1292.57 260.11 Q1299.76 258.009 1307.05 253.776 L1307.05 258.869 Q1299.57 263.643 1292.34 266.03 Q1285.12 268.386 1277.99 268.386 Q1270.89 268.386 1263.7 266.03 Q1256.5 263.675 1248.99 258.869 L1248.99 253.776 Z" fill="#000000" fill-rule="nonzero" fill-opacity="1" /><path clip-path="url(#clip770)" d="M1268.28 221.757 Q1267.71 222.743 1267.45 223.921 Q1267.17 225.067 1267.17 226.467 Q1267.17 231.433 1270.41 234.106 Q1273.63 236.748 1279.67 236.748 L1298.45 236.748 L1298.45 242.636 L1262.81 242.636 L1262.81 236.748 L1268.34 236.748 Q1265.1 234.902 1263.54 231.942 Q1261.95 228.982 1261.95 224.749 Q1261.95 224.144 1262.04 223.412 Q1262.11 222.68 1262.26 221.789 L1268.28 221.757 Z" fill="#000000" fill-rule="nonzero" fill-opacity="1" /><path clip-path="url(#clip770)" d="M1280.53 199.413 Q1280.53 206.511 1282.16 209.248 Q1283.78 211.985 1287.7 211.985 Q1290.81 211.985 1292.66 209.948 Q1294.48 207.879 1294.48 204.347 Q1294.48 199.477 1291.04 196.549 Q1287.57 193.588 1281.84 193.588 L1280.53 193.588 L1280.53 199.413 M1278.12 187.732 L1298.45 187.732 L1298.45 193.588 L1293.04 193.588 Q1296.29 195.594 1297.85 198.586 Q1299.38 201.577 1299.38 205.906 Q1299.38 211.381 1296.32 214.627 Q1293.23 217.842 1288.08 217.842 Q1282.06 217.842 1279.01 213.831 Q1275.95 209.789 1275.95 201.8 L1275.95 193.588 L1275.38 193.588 Q1271.34 193.588 1269.14 196.262 Q1266.91 198.904 1266.91 203.71 Q1266.91 206.766 1267.64 209.662 Q1268.38 212.558 1269.84 215.232 L1264.43 215.232 Q1263.19 212.017 1262.58 208.993 Q1261.95 205.97 1261.95 203.105 Q1261.95 195.371 1265.96 191.551 Q1269.97 187.732 1278.12 187.732 Z" fill="#000000" fill-rule="nonzero" fill-opacity="1" /><path clip-path="url(#clip770)" d="M1268.22 152.211 L1248.93 152.211 L1248.93 146.355 L1298.45 146.355 L1298.45 152.211 L1293.11 152.211 Q1296.29 154.057 1297.85 156.89 Q1299.38 159.691 1299.38 163.638 Q1299.38 170.099 1294.22 174.173 Q1289.06 178.215 1280.66 178.215 Q1272.26 178.215 1267.1 174.173 Q1261.95 170.099 1261.95 163.638 Q1261.95 159.691 1263.51 156.89 Q1265.03 154.057 1268.22 152.211 M1280.66 172.168 Q1287.12 172.168 1290.81 169.526 Q1294.48 166.853 1294.48 162.206 Q1294.48 157.559 1290.81 154.885 Q1287.12 152.211 1280.66 152.211 Q1274.2 152.211 1270.54 154.885 Q1266.85 157.559 1266.85 162.206 Q1266.85 166.853 1270.54 169.526 Q1274.2 172.168 1280.66 172.168 Z" fill="#000000" fill-rule="nonzero" fill-opacity="1" /><path clip-path="url(#clip770)" d="M1248.99 135.215 L1248.99 130.122 Q1256.5 125.348 1263.7 122.993 Q1270.89 120.606 1277.99 120.606 Q1285.12 120.606 1292.34 122.993 Q1299.57 125.348 1307.05 130.122 L1307.05 135.215 Q1299.76 130.982 1292.57 128.913 Q1285.34 126.812 1277.99 126.812 Q1270.64 126.812 1263.47 128.913 Q1256.31 130.982 1248.99 135.215 Z" fill="#000000" fill-rule="nonzero" fill-opacity="1" /><polyline clip-path="url(#clip773)" style="stroke:#009af9; stroke-linecap:round; stroke-linejoin:round; stroke-width:4; stroke-opacity:1; fill:none" points="1471.57,388.745 1496.74,360.199 1521.9,295.443 1547.06,220.873 1572.22,154.14 1597.38,104.19 1622.55,73.1593 1647.71,58.8945 1672.87,57.1907 1698.03,63.3911 1723.2,73.3544 1748.36,83.9317 1773.52,93.0966 1798.68,99.8469 1823.85,103.979 1849.01,105.813 1874.17,105.937 1899.33,105.004 1924.49,103.588 1949.66,102.124 1974.82,100.882 1999.98,99.9868 2025.14,99.4565 2050.31,99.2381 2075.47,99.2463 2100.63,99.3907 2125.79,99.593 2150.95,99.7956 2176.12,99.9639 2201.28,100.082 2226.44,100.15 2251.6,100.176 2276.77,100.172 2301.93,100.15 2327.09,100.121 "/>
<polyline clip-path="url(#clip773)" style="stroke:#e26f46; stroke-linecap:round; stroke-linejoin:round; stroke-width:3; stroke-opacity:1; fill:none" stroke-dasharray="12, 6, 2, 6" points="1471.57,388.701 1496.74,361.902 1521.9,286.842 1547.06,219.086 1572.22,147.752 1597.38,97.8654 1622.55,78.8435 1647.71,65.1887 1672.87,58.348 1698.03,62.1519 1723.2,69.9427 1748.36,78.1232 1773.52,94.4145 1798.68,100.511 1823.85,100.168 1849.01,108.231 1874.17,110.642 1899.33,101.782 1924.49,112.503 1949.66,113.97 1974.82,103.304 1999.98,98.638 2025.14,92.9758 2050.31,106.702 2075.47,104.082 2100.63,96.0702 2125.79,103.235 2150.95,93.0869 2176.12,88.1625 2201.28,93.5699 2226.44,95.595 2251.6,104.456 2276.77,106.956 2301.93,101.278 2327.09,104.773 "/>
<path clip-path="url(#clip770)" d="M2203.01 386.977 L2322.53 386.977 L2322.53 231.457 L2203.01 231.457  Z" fill="#ffffff" fill-rule="evenodd" fill-opacity="1"/>
<polyline clip-path="url(#clip770)" style="stroke:#000000; stroke-linecap:round; stroke-linejoin:round; stroke-width:4; stroke-opacity:1; fill:none" points="2203.01,386.977 2322.53,386.977 2322.53,231.457 2203.01,231.457 2203.01,386.977 "/>
<polyline clip-path="url(#clip770)" style="stroke:#009af9; stroke-linecap:round; stroke-linejoin:round; stroke-width:4; stroke-opacity:1; fill:none" points="2213.09,283.297 2273.55,283.297 "/>
<path clip-path="url(#clip770)" d="M2310.63 293.836 L2305.36 293.695 L2299.6 293.836 L2299.6 291.587 L2301.47 291.587 L2296.2 285.357 L2291.54 290.58 L2291.21 291.049 Q2291.21 291.26 2291.75 291.423 Q2292.31 291.587 2292.97 291.587 L2292.97 293.836 L2288.03 293.695 L2283.62 293.836 L2283.62 291.587 Q2285.1 291.587 2285.78 291.564 Q2286.48 291.517 2287.28 291.306 Q2288.07 291.096 2288.47 290.674 L2294.75 283.624 L2287.28 274.794 L2283.86 274.794 L2283.86 272.545 L2289.15 272.686 L2294.94 272.545 L2294.94 274.794 L2293.01 274.794 L2297.72 280.298 L2301.75 275.801 Q2301.77 275.777 2302.15 275.215 Q2301.4 274.794 2300.32 274.794 L2300.32 272.545 L2305.26 272.686 L2309.67 272.545 L2309.67 274.794 Q2307.75 274.794 2306.74 274.934 Q2305.76 275.051 2305.45 275.215 Q2305.17 275.379 2304.77 275.801 L2299.17 282.031 L2307.23 291.587 L2310.63 291.587 L2310.63 293.836 Z" fill="#000000" fill-rule="nonzero" fill-opacity="1" /><polyline clip-path="url(#clip770)" style="stroke:#e26f46; stroke-linecap:round; stroke-linejoin:round; stroke-width:3; stroke-opacity:1; fill:none" stroke-dasharray="12, 6, 2, 6" points="2213.09,335.137 2273.55,335.137 "/>
<path clip-path="url(#clip770)" d="M2306.21 323.615 L2305.8 324.287 Q2303.26 323.189 2300.09 321.434 Q2296.93 323.189 2294.39 324.287 L2293.99 323.615 Q2296.76 321.205 2300.09 319.352 Q2303.45 321.221 2306.21 323.615 Z" fill="#000000" fill-rule="nonzero" fill-opacity="1" /><path clip-path="url(#clip770)" d="M2310.63 350.681 L2305.36 350.54 L2299.6 350.681 L2299.6 348.432 L2301.47 348.432 L2296.2 342.202 L2291.54 347.425 L2291.21 347.893 Q2291.21 348.104 2291.75 348.268 Q2292.31 348.432 2292.97 348.432 L2292.97 350.681 L2288.03 350.54 L2283.62 350.681 L2283.62 348.432 Q2285.1 348.432 2285.78 348.409 Q2286.48 348.362 2287.28 348.151 Q2288.07 347.94 2288.47 347.519 L2294.75 340.468 L2287.28 331.638 L2283.86 331.638 L2283.86 329.39 L2289.15 329.53 L2294.94 329.39 L2294.94 331.638 L2293.01 331.638 L2297.72 337.142 L2301.75 332.645 Q2301.77 332.622 2302.15 332.06 Q2301.4 331.638 2300.32 331.638 L2300.32 329.39 L2305.26 329.53 L2309.67 329.39 L2309.67 331.638 Q2307.75 331.638 2306.74 331.779 Q2305.76 331.896 2305.45 332.06 Q2305.17 332.224 2304.77 332.645 L2299.17 338.876 L2307.23 348.432 L2310.63 348.432 L2310.63 350.681 Z" fill="#000000" fill-rule="nonzero" fill-opacity="1" /><path clip-path="url(#clip770)" d="M1445.91 910.936 L2352.76 910.936 L2352.76 559.488 L1445.91 559.488  Z" fill="#ffffff" fill-rule="evenodd" fill-opacity="1"/>
<defs>
  <clipPath id="clip774">
    <rect x="1445" y="559" width="908" height="352"/>
  </clipPath>
</defs>
<polyline clip-path="url(#clip774)" style="stroke:#000000; stroke-linecap:round; stroke-linejoin:round; stroke-width:2; stroke-opacity:0.1; fill:none" points="1471.57,910.936 1471.57,559.488 "/>
<polyline clip-path="url(#clip774)" style="stroke:#000000; stroke-linecap:round; stroke-linejoin:round; stroke-width:2; stroke-opacity:0.1; fill:none" points="1723.2,910.936 1723.2,559.488 "/>
<polyline clip-path="url(#clip774)" style="stroke:#000000; stroke-linecap:round; stroke-linejoin:round; stroke-width:2; stroke-opacity:0.1; fill:none" points="1974.82,910.936 1974.82,559.488 "/>
<polyline clip-path="url(#clip774)" style="stroke:#000000; stroke-linecap:round; stroke-linejoin:round; stroke-width:2; stroke-opacity:0.1; fill:none" points="2226.44,910.936 2226.44,559.488 "/>
<polyline clip-path="url(#clip774)" style="stroke:#000000; stroke-linecap:round; stroke-linejoin:round; stroke-width:2; stroke-opacity:0.1; fill:none" points="1445.91,854.995 2352.76,854.995 "/>
<polyline clip-path="url(#clip774)" style="stroke:#000000; stroke-linecap:round; stroke-linejoin:round; stroke-width:2; stroke-opacity:0.1; fill:none" points="1445.91,787.926 2352.76,787.926 "/>
<polyline clip-path="url(#clip774)" style="stroke:#000000; stroke-linecap:round; stroke-linejoin:round; stroke-width:2; stroke-opacity:0.1; fill:none" points="1445.91,720.857 2352.76,720.857 "/>
<polyline clip-path="url(#clip774)" style="stroke:#000000; stroke-linecap:round; stroke-linejoin:round; stroke-width:2; stroke-opacity:0.1; fill:none" points="1445.91,653.788 2352.76,653.788 "/>
<polyline clip-path="url(#clip774)" style="stroke:#000000; stroke-linecap:round; stroke-linejoin:round; stroke-width:2; stroke-opacity:0.1; fill:none" points="1445.91,586.719 2352.76,586.719 "/>
<polyline clip-path="url(#clip770)" style="stroke:#000000; stroke-linecap:round; stroke-linejoin:round; stroke-width:4; stroke-opacity:1; fill:none" points="1445.91,910.936 2352.76,910.936 "/>
<polyline clip-path="url(#clip770)" style="stroke:#000000; stroke-linecap:round; stroke-linejoin:round; stroke-width:4; stroke-opacity:1; fill:none" points="1471.57,910.936 1471.57,892.038 "/>
<polyline clip-path="url(#clip770)" style="stroke:#000000; stroke-linecap:round; stroke-linejoin:round; stroke-width:4; stroke-opacity:1; fill:none" points="1723.2,910.936 1723.2,892.038 "/>
<polyline clip-path="url(#clip770)" style="stroke:#000000; stroke-linecap:round; stroke-linejoin:round; stroke-width:4; stroke-opacity:1; fill:none" points="1974.82,910.936 1974.82,892.038 "/>
<polyline clip-path="url(#clip770)" style="stroke:#000000; stroke-linecap:round; stroke-linejoin:round; stroke-width:4; stroke-opacity:1; fill:none" points="2226.44,910.936 2226.44,892.038 "/>
<path clip-path="url(#clip770)" d="M1471.57 941.855 Q1467.96 941.855 1466.13 945.419 Q1464.33 948.961 1464.33 956.091 Q1464.33 963.197 1466.13 966.762 Q1467.96 970.303 1471.57 970.303 Q1475.21 970.303 1477.01 966.762 Q1478.84 963.197 1478.84 956.091 Q1478.84 948.961 1477.01 945.419 Q1475.21 941.855 1471.57 941.855 M1471.57 938.151 Q1477.38 938.151 1480.44 942.757 Q1483.52 947.341 1483.52 956.091 Q1483.52 964.817 1480.44 969.424 Q1477.38 974.007 1471.57 974.007 Q1465.76 974.007 1462.68 969.424 Q1459.63 964.817 1459.63 956.091 Q1459.63 947.341 1462.68 942.757 Q1465.76 938.151 1471.57 938.151 Z" fill="#000000" fill-rule="nonzero" fill-opacity="1" /><path clip-path="url(#clip770)" d="M1713.58 969.401 L1721.22 969.401 L1721.22 943.035 L1712.91 944.702 L1712.91 940.443 L1721.17 938.776 L1725.85 938.776 L1725.85 969.401 L1733.49 969.401 L1733.49 973.336 L1713.58 973.336 L1713.58 969.401 Z" fill="#000000" fill-rule="nonzero" fill-opacity="1" /><path clip-path="url(#clip770)" d="M1969.47 969.401 L1985.79 969.401 L1985.79 973.336 L1963.85 973.336 L1963.85 969.401 Q1966.51 966.646 1971.09 962.016 Q1975.7 957.364 1976.88 956.021 Q1979.12 953.498 1980 951.762 Q1980.91 950.003 1980.91 948.313 Q1980.91 945.558 1978.96 943.822 Q1977.04 942.086 1973.94 942.086 Q1971.74 942.086 1969.29 942.85 Q1966.86 943.614 1964.08 945.165 L1964.08 940.443 Q1966.9 939.308 1969.36 938.73 Q1971.81 938.151 1973.85 938.151 Q1979.22 938.151 1982.41 940.836 Q1985.61 943.521 1985.61 948.012 Q1985.61 950.142 1984.8 952.063 Q1984.01 953.961 1981.9 956.554 Q1981.32 957.225 1978.22 960.442 Q1975.12 963.637 1969.47 969.401 Z" fill="#000000" fill-rule="nonzero" fill-opacity="1" /><path clip-path="url(#clip770)" d="M2230.69 954.702 Q2234.05 955.419 2235.92 957.688 Q2237.82 959.956 2237.82 963.29 Q2237.82 968.405 2234.3 971.206 Q2230.78 974.007 2224.3 974.007 Q2222.12 974.007 2219.81 973.567 Q2217.52 973.151 2215.06 972.294 L2215.06 967.78 Q2217.01 968.915 2219.32 969.493 Q2221.64 970.072 2224.16 970.072 Q2228.56 970.072 2230.85 968.336 Q2233.17 966.6 2233.17 963.29 Q2233.17 960.234 2231.01 958.521 Q2228.88 956.785 2225.06 956.785 L2221.04 956.785 L2221.04 952.942 L2225.25 952.942 Q2228.7 952.942 2230.53 951.577 Q2232.36 950.188 2232.36 947.595 Q2232.36 944.933 2230.46 943.521 Q2228.58 942.086 2225.06 942.086 Q2223.14 942.086 2220.94 942.503 Q2218.74 942.919 2216.11 943.799 L2216.11 939.632 Q2218.77 938.892 2221.08 938.521 Q2223.42 938.151 2225.48 938.151 Q2230.8 938.151 2233.91 940.581 Q2237.01 942.989 2237.01 947.109 Q2237.01 949.979 2235.36 951.97 Q2233.72 953.938 2230.69 954.702 Z" fill="#000000" fill-rule="nonzero" fill-opacity="1" /><polyline clip-path="url(#clip770)" style="stroke:#000000; stroke-linecap:round; stroke-linejoin:round; stroke-width:4; stroke-opacity:1; fill:none" points="1445.91,910.936 1445.91,559.488 "/>
<polyline clip-path="url(#clip770)" style="stroke:#000000; stroke-linecap:round; stroke-linejoin:round; stroke-width:4; stroke-opacity:1; fill:none" points="1445.91,854.995 1464.81,854.995 "/>
<polyline clip-path="url(#clip770)" style="stroke:#000000; stroke-linecap:round; stroke-linejoin:round; stroke-width:4; stroke-opacity:1; fill:none" points="1445.91,787.926 1464.81,787.926 "/>
<polyline clip-path="url(#clip770)" style="stroke:#000000; stroke-linecap:round; stroke-linejoin:round; stroke-width:4; stroke-opacity:1; fill:none" points="1445.91,720.857 1464.81,720.857 "/>
<polyline clip-path="url(#clip770)" style="stroke:#000000; stroke-linecap:round; stroke-linejoin:round; stroke-width:4; stroke-opacity:1; fill:none" points="1445.91,653.788 1464.81,653.788 "/>
<polyline clip-path="url(#clip770)" style="stroke:#000000; stroke-linecap:round; stroke-linejoin:round; stroke-width:4; stroke-opacity:1; fill:none" points="1445.91,586.719 1464.81,586.719 "/>
<path clip-path="url(#clip770)" d="M1352.73 840.793 Q1349.12 840.793 1347.29 844.358 Q1345.49 847.9 1345.49 855.029 Q1345.49 862.136 1347.29 865.701 Q1349.12 869.242 1352.73 869.242 Q1356.37 869.242 1358.17 865.701 Q1360 862.136 1360 855.029 Q1360 847.9 1358.17 844.358 Q1356.37 840.793 1352.73 840.793 M1352.73 837.09 Q1358.54 837.09 1361.6 841.696 Q1364.68 846.28 1364.68 855.029 Q1364.68 863.756 1361.6 868.363 Q1358.54 872.946 1352.73 872.946 Q1346.92 872.946 1343.84 868.363 Q1340.79 863.756 1340.79 855.029 Q1340.79 846.28 1343.84 841.696 Q1346.92 837.09 1352.73 837.09 Z" fill="#000000" fill-rule="nonzero" fill-opacity="1" /><path clip-path="url(#clip770)" d="M1372.89 866.395 L1377.78 866.395 L1377.78 872.275 L1372.89 872.275 L1372.89 866.395 Z" fill="#000000" fill-rule="nonzero" fill-opacity="1" /><path clip-path="url(#clip770)" d="M1397.96 840.793 Q1394.35 840.793 1392.52 844.358 Q1390.72 847.9 1390.72 855.029 Q1390.72 862.136 1392.52 865.701 Q1394.35 869.242 1397.96 869.242 Q1401.6 869.242 1403.4 865.701 Q1405.23 862.136 1405.23 855.029 Q1405.23 847.9 1403.4 844.358 Q1401.6 840.793 1397.96 840.793 M1397.96 837.09 Q1403.77 837.09 1406.83 841.696 Q1409.91 846.28 1409.91 855.029 Q1409.91 863.756 1406.83 868.363 Q1403.77 872.946 1397.96 872.946 Q1392.15 872.946 1389.07 868.363 Q1386.02 863.756 1386.02 855.029 Q1386.02 846.28 1389.07 841.696 Q1392.15 837.09 1397.96 837.09 Z" fill="#000000" fill-rule="nonzero" fill-opacity="1" /><path clip-path="url(#clip770)" d="M1353.38 773.724 Q1349.77 773.724 1347.94 777.289 Q1346.13 780.831 1346.13 787.96 Q1346.13 795.067 1347.94 798.632 Q1349.77 802.173 1353.38 802.173 Q1357.01 802.173 1358.82 798.632 Q1360.65 795.067 1360.65 787.96 Q1360.65 780.831 1358.82 777.289 Q1357.01 773.724 1353.38 773.724 M1353.38 770.021 Q1359.19 770.021 1362.25 774.627 Q1365.32 779.211 1365.32 787.96 Q1365.32 796.687 1362.25 801.294 Q1359.19 805.877 1353.38 805.877 Q1347.57 805.877 1344.49 801.294 Q1341.44 796.687 1341.44 787.96 Q1341.44 779.211 1344.49 774.627 Q1347.57 770.021 1353.38 770.021 Z" fill="#000000" fill-rule="nonzero" fill-opacity="1" /><path clip-path="url(#clip770)" d="M1373.54 799.326 L1378.43 799.326 L1378.43 805.206 L1373.54 805.206 L1373.54 799.326 Z" fill="#000000" fill-rule="nonzero" fill-opacity="1" /><path clip-path="url(#clip770)" d="M1402.78 786.572 Q1406.13 787.289 1408.01 789.558 Q1409.91 791.826 1409.91 795.16 Q1409.91 800.275 1406.39 803.076 Q1402.87 805.877 1396.39 805.877 Q1394.21 805.877 1391.9 805.437 Q1389.61 805.021 1387.15 804.164 L1387.15 799.65 Q1389.1 800.784 1391.41 801.363 Q1393.73 801.942 1396.25 801.942 Q1400.65 801.942 1402.94 800.206 Q1405.26 798.47 1405.26 795.16 Q1405.26 792.104 1403.1 790.391 Q1400.97 788.655 1397.15 788.655 L1393.13 788.655 L1393.13 784.812 L1397.34 784.812 Q1400.79 784.812 1402.62 783.447 Q1404.44 782.058 1404.44 779.465 Q1404.44 776.803 1402.55 775.391 Q1400.67 773.956 1397.15 773.956 Q1395.23 773.956 1393.03 774.373 Q1390.83 774.789 1388.19 775.669 L1388.19 771.502 Q1390.86 770.761 1393.17 770.391 Q1395.51 770.021 1397.57 770.021 Q1402.89 770.021 1406 772.451 Q1409.1 774.859 1409.1 778.979 Q1409.1 781.849 1407.45 783.84 Q1405.81 785.808 1402.78 786.572 Z" fill="#000000" fill-rule="nonzero" fill-opacity="1" /><path clip-path="url(#clip770)" d="M1352.57 706.655 Q1348.96 706.655 1347.13 710.22 Q1345.32 713.762 1345.32 720.891 Q1345.32 727.998 1347.13 731.563 Q1348.96 735.104 1352.57 735.104 Q1356.2 735.104 1358.01 731.563 Q1359.84 727.998 1359.84 720.891 Q1359.84 713.762 1358.01 710.22 Q1356.2 706.655 1352.57 706.655 M1352.57 702.952 Q1358.38 702.952 1361.44 707.558 Q1364.51 712.142 1364.51 720.891 Q1364.51 729.618 1361.44 734.225 Q1358.38 738.808 1352.57 738.808 Q1346.76 738.808 1343.68 734.225 Q1340.63 729.618 1340.63 720.891 Q1340.63 712.142 1343.68 707.558 Q1346.76 702.952 1352.57 702.952 Z" fill="#000000" fill-rule="nonzero" fill-opacity="1" /><path clip-path="url(#clip770)" d="M1372.73 732.257 L1377.62 732.257 L1377.62 738.137 L1372.73 738.137 L1372.73 732.257 Z" fill="#000000" fill-rule="nonzero" fill-opacity="1" /><path clip-path="url(#clip770)" d="M1398.38 718.993 Q1395.23 718.993 1393.38 721.146 Q1391.55 723.299 1391.55 727.049 Q1391.55 730.776 1393.38 732.952 Q1395.23 735.104 1398.38 735.104 Q1401.53 735.104 1403.36 732.952 Q1405.21 730.776 1405.21 727.049 Q1405.21 723.299 1403.36 721.146 Q1401.53 718.993 1398.38 718.993 M1407.66 704.341 L1407.66 708.6 Q1405.9 707.767 1404.1 707.327 Q1402.32 706.887 1400.56 706.887 Q1395.93 706.887 1393.47 710.012 Q1391.04 713.137 1390.69 719.456 Q1392.06 717.442 1394.12 716.378 Q1396.18 715.29 1398.66 715.29 Q1403.87 715.29 1406.88 718.461 Q1409.91 721.609 1409.91 727.049 Q1409.91 732.373 1406.76 735.59 Q1403.61 738.808 1398.38 738.808 Q1392.38 738.808 1389.21 734.225 Q1386.04 729.618 1386.04 720.891 Q1386.04 712.697 1389.93 707.836 Q1393.82 702.952 1400.37 702.952 Q1402.13 702.952 1403.91 703.299 Q1405.72 703.646 1407.66 704.341 Z" fill="#000000" fill-rule="nonzero" fill-opacity="1" /><path clip-path="url(#clip770)" d="M1352.92 639.586 Q1349.31 639.586 1347.48 643.151 Q1345.67 646.693 1345.67 653.822 Q1345.67 660.929 1347.48 664.494 Q1349.31 668.035 1352.92 668.035 Q1356.55 668.035 1358.36 664.494 Q1360.19 660.929 1360.19 653.822 Q1360.19 646.693 1358.36 643.151 Q1356.55 639.586 1352.92 639.586 M1352.92 635.883 Q1358.73 635.883 1361.78 640.489 Q1364.86 645.073 1364.86 653.822 Q1364.86 662.549 1361.78 667.156 Q1358.73 671.739 1352.92 671.739 Q1347.11 671.739 1344.03 667.156 Q1340.97 662.549 1340.97 653.822 Q1340.97 645.073 1344.03 640.489 Q1347.11 635.883 1352.92 635.883 Z" fill="#000000" fill-rule="nonzero" fill-opacity="1" /><path clip-path="url(#clip770)" d="M1373.08 665.188 L1377.96 665.188 L1377.96 671.068 L1373.08 671.068 L1373.08 665.188 Z" fill="#000000" fill-rule="nonzero" fill-opacity="1" /><path clip-path="url(#clip770)" d="M1388.29 670.35 L1388.29 666.091 Q1390.05 666.924 1391.85 667.364 Q1393.66 667.804 1395.39 667.804 Q1400.02 667.804 1402.45 664.702 Q1404.91 661.577 1405.26 655.234 Q1403.91 657.225 1401.85 658.29 Q1399.79 659.355 1397.29 659.355 Q1392.11 659.355 1389.07 656.23 Q1386.07 653.082 1386.07 647.642 Q1386.07 642.318 1389.21 639.1 Q1392.36 635.883 1397.59 635.883 Q1403.59 635.883 1406.74 640.489 Q1409.91 645.073 1409.91 653.822 Q1409.91 661.994 1406.02 666.878 Q1402.15 671.739 1395.6 671.739 Q1393.84 671.739 1392.04 671.392 Q1390.23 671.045 1388.29 670.35 M1397.59 655.697 Q1400.74 655.697 1402.57 653.545 Q1404.42 651.392 1404.42 647.642 Q1404.42 643.915 1402.57 641.762 Q1400.74 639.586 1397.59 639.586 Q1394.44 639.586 1392.59 641.762 Q1390.76 643.915 1390.76 647.642 Q1390.76 651.392 1392.59 653.545 Q1394.44 655.697 1397.59 655.697 Z" fill="#000000" fill-rule="nonzero" fill-opacity="1" /><path clip-path="url(#clip770)" d="M1345.14 600.064 L1352.78 600.064 L1352.78 573.698 L1344.47 575.365 L1344.47 571.105 L1352.73 569.439 L1357.41 569.439 L1357.41 600.064 L1365.05 600.064 L1365.05 603.999 L1345.14 603.999 L1345.14 600.064 Z" fill="#000000" fill-rule="nonzero" fill-opacity="1" /><path clip-path="url(#clip770)" d="M1374.49 598.119 L1379.38 598.119 L1379.38 603.999 L1374.49 603.999 L1374.49 598.119 Z" fill="#000000" fill-rule="nonzero" fill-opacity="1" /><path clip-path="url(#clip770)" d="M1393.59 600.064 L1409.91 600.064 L1409.91 603.999 L1387.96 603.999 L1387.96 600.064 Q1390.63 597.309 1395.21 592.679 Q1399.82 588.027 1401 586.684 Q1403.24 584.161 1404.12 582.425 Q1405.02 580.666 1405.02 578.976 Q1405.02 576.221 1403.08 574.485 Q1401.16 572.749 1398.06 572.749 Q1395.86 572.749 1393.4 573.513 Q1390.97 574.277 1388.19 575.828 L1388.19 571.105 Q1391.02 569.971 1393.47 569.392 Q1395.93 568.814 1397.96 568.814 Q1403.33 568.814 1406.53 571.499 Q1409.72 574.184 1409.72 578.675 Q1409.72 580.804 1408.91 582.726 Q1408.13 584.624 1406.02 587.216 Q1405.44 587.888 1402.34 591.105 Q1399.24 594.3 1393.59 600.064 Z" fill="#000000" fill-rule="nonzero" fill-opacity="1" /><path clip-path="url(#clip770)" d="M1265.64 831.559 Q1268.64 831.559 1274.44 833.072 Q1276.95 833.684 1279.23 834.522 Q1281.49 835.327 1283.68 836.518 Q1285.87 837.71 1287.45 839.095 Q1288.99 840.48 1289.96 842.283 Q1290.92 844.087 1290.92 846.084 Q1290.92 849.24 1289.06 851.108 Q1287.16 852.943 1283.9 853.523 Q1290.92 857.839 1290.92 863.604 Q1290.92 867.178 1288.38 868.853 Q1285.8 870.528 1281.49 870.528 Q1277.85 870.528 1274.08 869.562 Q1266.93 867.726 1261.94 864.151 Q1261.36 863.668 1261.36 862.959 Q1261.36 862.541 1261.49 862.347 Q1261.84 861.768 1262.42 861.768 Q1262.84 861.768 1263.26 862.09 Q1266.38 864.344 1269.06 865.826 Q1271.73 867.307 1274.44 867.984 Q1276.75 868.499 1278.72 868.499 Q1282.04 868.499 1284.1 867.082 Q1286.16 865.632 1286.16 862.766 Q1286.16 860.125 1284.52 857.806 Q1282.84 855.488 1280.04 853.781 Q1276.98 853.684 1274.08 852.943 Q1270.99 852.267 1270.99 850.689 Q1270.99 849.433 1272.7 849.433 Q1273.28 849.433 1274.44 849.691 Q1277.49 850.399 1280.23 851.687 Q1282.91 851.236 1284.55 849.562 Q1286.16 847.887 1286.16 845.214 Q1286.16 842.734 1284.35 840.544 Q1282.55 838.322 1279.91 836.905 Q1277.24 835.456 1274.08 834.65 Q1273.02 834.393 1271.67 834.393 Q1268.06 834.393 1265.84 836.905 Q1265.13 837.613 1264.19 837.613 Q1263.1 837.613 1262.1 836.712 Q1261.04 835.649 1261.04 834.393 Q1261.04 833.459 1261.62 832.879 Q1262.78 831.559 1265.64 831.559 Z" fill="#000000" fill-rule="nonzero" fill-opacity="1" /><path clip-path="url(#clip770)" d="M1240.72 788.989 Q1248.04 793.255 1255.2 795.323 Q1262.37 797.392 1269.72 797.392 Q1277.07 797.392 1284.3 795.323 Q1291.49 793.223 1298.78 788.989 L1298.78 794.082 Q1291.3 798.856 1284.07 801.243 Q1276.85 803.599 1269.72 803.599 Q1262.62 803.599 1255.43 801.243 Q1248.23 798.888 1240.72 794.082 L1240.72 788.989 Z" fill="#000000" fill-rule="nonzero" fill-opacity="1" /><path clip-path="url(#clip770)" d="M1260.01 756.97 Q1259.44 757.957 1259.18 759.134 Q1258.9 760.28 1258.9 761.681 Q1258.9 766.646 1262.14 769.319 Q1265.36 771.961 1271.41 771.961 L1290.18 771.961 L1290.18 777.85 L1254.54 777.85 L1254.54 771.961 L1260.07 771.961 Q1256.83 770.115 1255.27 767.155 Q1253.68 764.195 1253.68 759.962 Q1253.68 759.357 1253.77 758.625 Q1253.84 757.893 1254 757.002 L1260.01 756.97 Z" fill="#000000" fill-rule="nonzero" fill-opacity="1" /><path clip-path="url(#clip770)" d="M1272.26 734.626 Q1272.26 741.724 1273.89 744.461 Q1275.51 747.199 1279.43 747.199 Q1282.55 747.199 1284.39 745.162 Q1286.21 743.093 1286.21 739.56 Q1286.21 734.69 1282.77 731.762 Q1279.3 728.802 1273.57 728.802 L1272.26 728.802 L1272.26 734.626 M1269.85 722.945 L1290.18 722.945 L1290.18 728.802 L1284.77 728.802 Q1288.02 730.807 1289.58 733.799 Q1291.11 736.791 1291.11 741.119 Q1291.11 746.594 1288.05 749.84 Q1284.96 753.055 1279.81 753.055 Q1273.79 753.055 1270.74 749.045 Q1267.68 745.002 1267.68 737.013 L1267.68 728.802 L1267.11 728.802 Q1263.07 728.802 1260.87 731.475 Q1258.64 734.117 1258.64 738.923 Q1258.64 741.979 1259.37 744.875 Q1260.11 747.772 1261.57 750.445 L1256.16 750.445 Q1254.92 747.23 1254.31 744.207 Q1253.68 741.183 1253.68 738.318 Q1253.68 730.584 1257.69 726.765 Q1261.7 722.945 1269.85 722.945 Z" fill="#000000" fill-rule="nonzero" fill-opacity="1" /><path clip-path="url(#clip770)" d="M1259.95 687.425 L1240.66 687.425 L1240.66 681.568 L1290.18 681.568 L1290.18 687.425 L1284.84 687.425 Q1288.02 689.271 1289.58 692.103 Q1291.11 694.904 1291.11 698.851 Q1291.11 705.312 1285.95 709.386 Q1280.79 713.429 1272.39 713.429 Q1263.99 713.429 1258.83 709.386 Q1253.68 705.312 1253.68 698.851 Q1253.68 694.904 1255.24 692.103 Q1256.76 689.271 1259.95 687.425 M1272.39 707.381 Q1278.85 707.381 1282.55 704.739 Q1286.21 702.066 1286.21 697.419 Q1286.21 692.772 1282.55 690.098 Q1278.85 687.425 1272.39 687.425 Q1265.93 687.425 1262.27 690.098 Q1258.58 692.772 1258.58 697.419 Q1258.58 702.066 1262.27 704.739 Q1265.93 707.381 1272.39 707.381 Z" fill="#000000" fill-rule="nonzero" fill-opacity="1" /><path clip-path="url(#clip770)" d="M1242.66 659.097 L1242.66 653.686 L1296.23 670.237 L1296.23 675.648 L1242.66 659.097 Z" fill="#000000" fill-rule="nonzero" fill-opacity="1" /><path clip-path="url(#clip770)" d="M1255.59 624.818 L1261.12 624.818 Q1259.85 627.301 1259.21 629.974 Q1258.58 632.648 1258.58 635.512 Q1258.58 639.873 1259.92 642.069 Q1261.25 644.233 1263.93 644.233 Q1265.96 644.233 1267.14 642.674 Q1268.29 641.114 1269.34 636.404 L1269.78 634.398 Q1271.12 628.16 1273.57 625.55 Q1275.99 622.908 1280.35 622.908 Q1285.31 622.908 1288.21 626.855 Q1291.11 630.77 1291.11 637.645 Q1291.11 640.509 1290.53 643.629 Q1289.99 646.716 1288.88 650.153 L1282.83 650.153 Q1284.52 646.907 1285.38 643.756 Q1286.21 640.605 1286.21 637.517 Q1286.21 633.38 1284.81 631.152 Q1283.37 628.924 1280.79 628.924 Q1278.41 628.924 1277.13 630.547 Q1275.86 632.138 1274.68 637.581 L1274.21 639.618 Q1273.06 645.061 1270.71 647.48 Q1268.32 649.899 1264.18 649.899 Q1259.15 649.899 1256.41 646.334 Q1253.68 642.769 1253.68 636.213 Q1253.68 632.966 1254.15 630.101 Q1254.63 627.237 1255.59 624.818 Z" fill="#000000" fill-rule="nonzero" fill-opacity="1" /><path clip-path="url(#clip770)" d="M1240.72 614.505 L1240.72 609.413 Q1248.23 604.639 1255.43 602.283 Q1262.62 599.896 1269.72 599.896 Q1276.85 599.896 1284.07 602.283 Q1291.3 604.639 1298.78 609.413 L1298.78 614.505 Q1291.49 610.272 1284.3 608.203 Q1277.07 606.103 1269.72 606.103 Q1262.37 606.103 1255.2 608.203 Q1248.04 610.272 1240.72 614.505 Z" fill="#000000" fill-rule="nonzero" fill-opacity="1" /><polyline clip-path="url(#clip774)" style="stroke:#009af9; stroke-linecap:round; stroke-linejoin:round; stroke-width:4; stroke-opacity:1; fill:none" points="1471.57,854.995 1496.74,678.976 1521.9,605.361 1547.06,607.312 1572.22,653.763 1597.38,717.643 1622.55,780.054 1647.71,830.541 1672.87,865.243 1698.03,884.594 1723.2,891.395 1748.36,889.401 1773.52,882.363 1798.68,873.426 1823.85,864.846 1849.01,857.948 1874.17,853.255 1899.33,850.707 1924.49,849.898 1949.66,850.283 1974.82,851.326 1999.98,852.587 2025.14,853.765 2050.31,854.691 2075.47,855.304 2100.63,855.623 2125.79,855.709 2150.95,855.639 2176.12,855.486 2201.28,855.309 2226.44,855.148 2251.6,855.024 2276.77,854.943 2301.93,854.904 2327.09,854.895 "/>
<polyline clip-path="url(#clip774)" style="stroke:#e26f46; stroke-linecap:round; stroke-linejoin:round; stroke-width:3; stroke-opacity:1; fill:none" stroke-dasharray="12, 6, 2, 6" points="1471.57,854.995 1496.74,675.824 1521.9,569.435 1547.06,601.516 1572.22,640.455 1597.38,714.199 1622.55,800.828 1647.71,844.654 1672.87,870.537 1698.03,891.788 1723.2,899.719 1748.36,897.262 1773.52,900.989 1798.68,882.849 1823.85,864.842 1849.01,867.829 1874.17,859.556 1899.33,842.055 1924.49,862.367 1949.66,856.001 1974.82,838.633 1999.98,842.936 2025.14,845.069 2050.31,871.308 2075.47,857.039 2100.63,845.533 2125.79,862.056 2150.95,845.011 2176.12,847.708 2201.28,862.673 2226.44,862.29 2251.6,869.486 2276.77,861.561 2301.93,847.753 2327.09,855.593 "/>
<path clip-path="url(#clip770)" d="M2203.01 726.723 L2322.53 726.723 L2322.53 571.203 L2203.01 571.203  Z" fill="#ffffff" fill-rule="evenodd" fill-opacity="1"/>
<polyline clip-path="url(#clip770)" style="stroke:#000000; stroke-linecap:round; stroke-linejoin:round; stroke-width:4; stroke-opacity:1; fill:none" points="2203.01,726.723 2322.53,726.723 2322.53,571.203 2203.01,571.203 2203.01,726.723 "/>
<polyline clip-path="url(#clip770)" style="stroke:#009af9; stroke-linecap:round; stroke-linejoin:round; stroke-width:4; stroke-opacity:1; fill:none" points="2213.09,623.043 2273.55,623.043 "/>
<path clip-path="url(#clip770)" d="M2310.63 633.582 L2305.36 633.442 L2299.6 633.582 L2299.6 631.334 L2301.47 631.334 L2296.2 625.103 L2291.54 630.326 L2291.21 630.795 Q2291.21 631.006 2291.75 631.17 Q2292.31 631.334 2292.97 631.334 L2292.97 633.582 L2288.03 633.442 L2283.62 633.582 L2283.62 631.334 Q2285.1 631.334 2285.78 631.31 Q2286.48 631.263 2287.28 631.052 Q2288.07 630.842 2288.47 630.42 L2294.75 623.37 L2287.28 614.54 L2283.86 614.54 L2283.86 612.291 L2289.15 612.432 L2294.94 612.291 L2294.94 614.54 L2293.01 614.54 L2297.72 620.044 L2301.75 615.547 Q2301.77 615.523 2302.15 614.961 Q2301.4 614.54 2300.32 614.54 L2300.32 612.291 L2305.26 612.432 L2309.67 612.291 L2309.67 614.54 Q2307.75 614.54 2306.74 614.68 Q2305.76 614.797 2305.45 614.961 Q2305.17 615.125 2304.77 615.547 L2299.17 621.777 L2307.23 631.334 L2310.63 631.334 L2310.63 633.582 Z" fill="#000000" fill-rule="nonzero" fill-opacity="1" /><polyline clip-path="url(#clip770)" style="stroke:#e26f46; stroke-linecap:round; stroke-linejoin:round; stroke-width:3; stroke-opacity:1; fill:none" stroke-dasharray="12, 6, 2, 6" points="2213.09,674.883 2273.55,674.883 "/>
<path clip-path="url(#clip770)" d="M2306.21 663.361 L2305.8 664.033 Q2303.26 662.935 2300.09 661.18 Q2296.93 662.935 2294.39 664.033 L2293.99 663.361 Q2296.76 660.951 2300.09 659.098 Q2303.45 660.967 2306.21 663.361 Z" fill="#000000" fill-rule="nonzero" fill-opacity="1" /><path clip-path="url(#clip770)" d="M2310.63 690.427 L2305.36 690.286 L2299.6 690.427 L2299.6 688.178 L2301.47 688.178 L2296.2 681.948 L2291.54 687.171 L2291.21 687.639 Q2291.21 687.85 2291.75 688.014 Q2292.31 688.178 2292.97 688.178 L2292.97 690.427 L2288.03 690.286 L2283.62 690.427 L2283.62 688.178 Q2285.1 688.178 2285.78 688.155 Q2286.48 688.108 2287.28 687.897 Q2288.07 687.686 2288.47 687.265 L2294.75 680.214 L2287.28 671.384 L2283.86 671.384 L2283.86 669.136 L2289.15 669.276 L2294.94 669.136 L2294.94 671.384 L2293.01 671.384 L2297.72 676.888 L2301.75 672.391 Q2301.77 672.368 2302.15 671.806 Q2301.4 671.384 2300.32 671.384 L2300.32 669.136 L2305.26 669.276 L2309.67 669.136 L2309.67 671.384 Q2307.75 671.384 2306.74 671.525 Q2305.76 671.642 2305.45 671.806 Q2305.17 671.97 2304.77 672.391 L2299.17 678.622 L2307.23 688.178 L2310.63 688.178 L2310.63 690.427 Z" fill="#000000" fill-rule="nonzero" fill-opacity="1" /><path clip-path="url(#clip770)" d="M1445.91 1423.18 L2352.76 1423.18 L2352.76 1071.73 L1445.91 1071.73  Z" fill="#ffffff" fill-rule="evenodd" fill-opacity="1"/>
<defs>
  <clipPath id="clip775">
    <rect x="1445" y="1071" width="908" height="352"/>
  </clipPath>
</defs>
<polyline clip-path="url(#clip775)" style="stroke:#000000; stroke-linecap:round; stroke-linejoin:round; stroke-width:2; stroke-opacity:0.1; fill:none" points="1471.57,1423.18 1471.57,1071.73 "/>
<polyline clip-path="url(#clip775)" style="stroke:#000000; stroke-linecap:round; stroke-linejoin:round; stroke-width:2; stroke-opacity:0.1; fill:none" points="1723.2,1423.18 1723.2,1071.73 "/>
<polyline clip-path="url(#clip775)" style="stroke:#000000; stroke-linecap:round; stroke-linejoin:round; stroke-width:2; stroke-opacity:0.1; fill:none" points="1974.82,1423.18 1974.82,1071.73 "/>
<polyline clip-path="url(#clip775)" style="stroke:#000000; stroke-linecap:round; stroke-linejoin:round; stroke-width:2; stroke-opacity:0.1; fill:none" points="2226.44,1423.18 2226.44,1071.73 "/>
<polyline clip-path="url(#clip775)" style="stroke:#000000; stroke-linecap:round; stroke-linejoin:round; stroke-width:2; stroke-opacity:0.1; fill:none" points="1445.91,1371.43 2352.76,1371.43 "/>
<polyline clip-path="url(#clip775)" style="stroke:#000000; stroke-linecap:round; stroke-linejoin:round; stroke-width:2; stroke-opacity:0.1; fill:none" points="1445.91,1271.58 2352.76,1271.58 "/>
<polyline clip-path="url(#clip775)" style="stroke:#000000; stroke-linecap:round; stroke-linejoin:round; stroke-width:2; stroke-opacity:0.1; fill:none" points="1445.91,1171.72 2352.76,1171.72 "/>
<polyline clip-path="url(#clip775)" style="stroke:#000000; stroke-linecap:round; stroke-linejoin:round; stroke-width:2; stroke-opacity:0.1; fill:none" points="1445.91,1071.86 2352.76,1071.86 "/>
<polyline clip-path="url(#clip770)" style="stroke:#000000; stroke-linecap:round; stroke-linejoin:round; stroke-width:4; stroke-opacity:1; fill:none" points="1445.91,1423.18 2352.76,1423.18 "/>
<polyline clip-path="url(#clip770)" style="stroke:#000000; stroke-linecap:round; stroke-linejoin:round; stroke-width:4; stroke-opacity:1; fill:none" points="1471.57,1423.18 1471.57,1404.28 "/>
<polyline clip-path="url(#clip770)" style="stroke:#000000; stroke-linecap:round; stroke-linejoin:round; stroke-width:4; stroke-opacity:1; fill:none" points="1723.2,1423.18 1723.2,1404.28 "/>
<polyline clip-path="url(#clip770)" style="stroke:#000000; stroke-linecap:round; stroke-linejoin:round; stroke-width:4; stroke-opacity:1; fill:none" points="1974.82,1423.18 1974.82,1404.28 "/>
<polyline clip-path="url(#clip770)" style="stroke:#000000; stroke-linecap:round; stroke-linejoin:round; stroke-width:4; stroke-opacity:1; fill:none" points="2226.44,1423.18 2226.44,1404.28 "/>
<path clip-path="url(#clip770)" d="M1471.57 1454.1 Q1467.96 1454.1 1466.13 1457.66 Q1464.33 1461.2 1464.33 1468.33 Q1464.33 1475.44 1466.13 1479.01 Q1467.96 1482.55 1471.57 1482.55 Q1475.21 1482.55 1477.01 1479.01 Q1478.84 1475.44 1478.84 1468.33 Q1478.84 1461.2 1477.01 1457.66 Q1475.21 1454.1 1471.57 1454.1 M1471.57 1450.39 Q1477.38 1450.39 1480.44 1455 Q1483.52 1459.58 1483.52 1468.33 Q1483.52 1477.06 1480.44 1481.67 Q1477.38 1486.25 1471.57 1486.25 Q1465.76 1486.25 1462.68 1481.67 Q1459.63 1477.06 1459.63 1468.33 Q1459.63 1459.58 1462.68 1455 Q1465.76 1450.39 1471.57 1450.39 Z" fill="#000000" fill-rule="nonzero" fill-opacity="1" /><path clip-path="url(#clip770)" d="M1713.58 1481.64 L1721.22 1481.64 L1721.22 1455.28 L1712.91 1456.95 L1712.91 1452.69 L1721.17 1451.02 L1725.85 1451.02 L1725.85 1481.64 L1733.49 1481.64 L1733.49 1485.58 L1713.58 1485.58 L1713.58 1481.64 Z" fill="#000000" fill-rule="nonzero" fill-opacity="1" /><path clip-path="url(#clip770)" d="M1969.47 1481.64 L1985.79 1481.64 L1985.79 1485.58 L1963.85 1485.58 L1963.85 1481.64 Q1966.51 1478.89 1971.09 1474.26 Q1975.7 1469.61 1976.88 1468.27 Q1979.12 1465.74 1980 1464.01 Q1980.91 1462.25 1980.91 1460.56 Q1980.91 1457.8 1978.96 1456.07 Q1977.04 1454.33 1973.94 1454.33 Q1971.74 1454.33 1969.29 1455.09 Q1966.86 1455.86 1964.08 1457.41 L1964.08 1452.69 Q1966.9 1451.55 1969.36 1450.97 Q1971.81 1450.39 1973.85 1450.39 Q1979.22 1450.39 1982.41 1453.08 Q1985.61 1455.77 1985.61 1460.26 Q1985.61 1462.39 1984.8 1464.31 Q1984.01 1466.2 1981.9 1468.8 Q1981.32 1469.47 1978.22 1472.69 Q1975.12 1475.88 1969.47 1481.64 Z" fill="#000000" fill-rule="nonzero" fill-opacity="1" /><path clip-path="url(#clip770)" d="M2230.69 1466.95 Q2234.05 1467.66 2235.92 1469.93 Q2237.82 1472.2 2237.82 1475.53 Q2237.82 1480.65 2234.3 1483.45 Q2230.78 1486.25 2224.3 1486.25 Q2222.12 1486.25 2219.81 1485.81 Q2217.52 1485.39 2215.06 1484.54 L2215.06 1480.02 Q2217.01 1481.16 2219.32 1481.74 Q2221.64 1482.32 2224.16 1482.32 Q2228.56 1482.32 2230.85 1480.58 Q2233.17 1478.84 2233.17 1475.53 Q2233.17 1472.48 2231.01 1470.77 Q2228.88 1469.03 2225.06 1469.03 L2221.04 1469.03 L2221.04 1465.19 L2225.25 1465.19 Q2228.7 1465.19 2230.53 1463.82 Q2232.36 1462.43 2232.36 1459.84 Q2232.36 1457.18 2230.46 1455.77 Q2228.58 1454.33 2225.06 1454.33 Q2223.14 1454.33 2220.94 1454.75 Q2218.74 1455.16 2216.11 1456.04 L2216.11 1451.88 Q2218.77 1451.14 2221.08 1450.77 Q2223.42 1450.39 2225.48 1450.39 Q2230.8 1450.39 2233.91 1452.83 Q2237.01 1455.23 2237.01 1459.35 Q2237.01 1462.22 2235.36 1464.21 Q2233.72 1466.18 2230.69 1466.95 Z" fill="#000000" fill-rule="nonzero" fill-opacity="1" /><path clip-path="url(#clip770)" d="M1769.5 1520.52 L1809.7 1520.52 L1809.7 1525.93 L1792.83 1525.93 L1792.83 1568.04 L1786.37 1568.04 L1786.37 1525.93 L1769.5 1525.93 L1769.5 1520.52 Z" fill="#000000" fill-rule="nonzero" fill-opacity="1" /><path clip-path="url(#clip770)" d="M1813.65 1532.4 L1819.51 1532.4 L1819.51 1568.04 L1813.65 1568.04 L1813.65 1532.4 M1813.65 1518.52 L1819.51 1518.52 L1819.51 1525.93 L1813.65 1525.93 L1813.65 1518.52 Z" fill="#000000" fill-rule="nonzero" fill-opacity="1" /><path clip-path="url(#clip770)" d="M1859.51 1539.24 Q1861.71 1535.29 1864.77 1533.41 Q1867.82 1531.54 1871.96 1531.54 Q1877.53 1531.54 1880.55 1535.45 Q1883.58 1539.33 1883.58 1546.53 L1883.58 1568.04 L1877.69 1568.04 L1877.69 1546.72 Q1877.69 1541.59 1875.87 1539.11 Q1874.06 1536.63 1870.34 1536.63 Q1865.78 1536.63 1863.14 1539.65 Q1860.5 1542.68 1860.5 1547.9 L1860.5 1568.04 L1854.61 1568.04 L1854.61 1546.72 Q1854.61 1541.56 1852.8 1539.11 Q1850.98 1536.63 1847.2 1536.63 Q1842.71 1536.63 1840.07 1539.68 Q1837.43 1542.71 1837.43 1547.9 L1837.43 1568.04 L1831.54 1568.04 L1831.54 1532.4 L1837.43 1532.4 L1837.43 1537.93 Q1839.43 1534.66 1842.23 1533.1 Q1845.03 1531.54 1848.88 1531.54 Q1852.77 1531.54 1855.47 1533.51 Q1858.21 1535.48 1859.51 1539.24 Z" fill="#000000" fill-rule="nonzero" fill-opacity="1" /><path clip-path="url(#clip770)" d="M1925.75 1548.76 L1925.75 1551.62 L1898.82 1551.62 Q1899.2 1557.67 1902.45 1560.85 Q1905.73 1564 1911.55 1564 Q1914.93 1564 1918.08 1563.17 Q1921.26 1562.35 1924.38 1560.69 L1924.38 1566.23 Q1921.23 1567.57 1917.92 1568.27 Q1914.61 1568.97 1911.2 1568.97 Q1902.67 1568.97 1897.68 1564 Q1892.71 1559.04 1892.71 1550.57 Q1892.71 1541.82 1897.42 1536.69 Q1902.16 1531.54 1910.19 1531.54 Q1917.38 1531.54 1921.55 1536.18 Q1925.75 1540.8 1925.75 1548.76 M1919.89 1547.04 Q1919.83 1542.23 1917.19 1539.37 Q1914.58 1536.5 1910.25 1536.5 Q1905.35 1536.5 1902.39 1539.27 Q1899.46 1542.04 1899.01 1547.07 L1919.89 1547.04 Z" fill="#000000" fill-rule="nonzero" fill-opacity="1" /><path clip-path="url(#clip770)" d="M1970.15 1518.58 Q1965.89 1525.9 1963.82 1533.06 Q1961.75 1540.23 1961.75 1547.58 Q1961.75 1554.93 1963.82 1562.16 Q1965.92 1569.35 1970.15 1576.64 L1965.06 1576.64 Q1960.28 1569.16 1957.9 1561.93 Q1955.54 1554.71 1955.54 1547.58 Q1955.54 1540.48 1957.9 1533.29 Q1960.25 1526.09 1965.06 1518.58 L1970.15 1518.58 Z" fill="#000000" fill-rule="nonzero" fill-opacity="1" /><path clip-path="url(#clip770)" d="M2004.24 1533.45 L2004.24 1538.98 Q2001.76 1537.71 1999.08 1537.07 Q1996.41 1536.44 1993.54 1536.44 Q1989.18 1536.44 1986.99 1537.77 Q1984.82 1539.11 1984.82 1541.79 Q1984.82 1543.82 1986.38 1545 Q1987.94 1546.15 1992.65 1547.2 L1994.66 1547.64 Q2000.9 1548.98 2003.51 1551.43 Q2006.15 1553.85 2006.15 1558.21 Q2006.15 1563.17 2002.2 1566.07 Q1998.29 1568.97 1991.41 1568.97 Q1988.55 1568.97 1985.43 1568.39 Q1982.34 1567.85 1978.9 1566.74 L1978.9 1560.69 Q1982.15 1562.38 1985.3 1563.24 Q1988.45 1564.07 1991.54 1564.07 Q1995.68 1564.07 1997.9 1562.66 Q2000.13 1561.23 2000.13 1558.65 Q2000.13 1556.27 1998.51 1554.99 Q1996.92 1553.72 1991.48 1552.54 L1989.44 1552.07 Q1984 1550.92 1981.58 1548.56 Q1979.16 1546.18 1979.16 1542.04 Q1979.16 1537.01 1982.72 1534.27 Q1986.29 1531.54 1992.84 1531.54 Q1996.09 1531.54 1998.96 1532.01 Q2001.82 1532.49 2004.24 1533.45 Z" fill="#000000" fill-rule="nonzero" fill-opacity="1" /><path clip-path="url(#clip770)" d="M2014.55 1518.58 L2019.64 1518.58 Q2024.42 1526.09 2026.77 1533.29 Q2029.16 1540.48 2029.16 1547.58 Q2029.16 1554.71 2026.77 1561.93 Q2024.42 1569.16 2019.64 1576.64 L2014.55 1576.64 Q2018.78 1569.35 2020.85 1562.16 Q2022.95 1554.93 2022.95 1547.58 Q2022.95 1540.23 2020.85 1533.06 Q2018.78 1525.9 2014.55 1518.58 Z" fill="#000000" fill-rule="nonzero" fill-opacity="1" /><polyline clip-path="url(#clip770)" style="stroke:#000000; stroke-linecap:round; stroke-linejoin:round; stroke-width:4; stroke-opacity:1; fill:none" points="1445.91,1423.18 1445.91,1071.73 "/>
<polyline clip-path="url(#clip770)" style="stroke:#000000; stroke-linecap:round; stroke-linejoin:round; stroke-width:4; stroke-opacity:1; fill:none" points="1445.91,1371.43 1464.81,1371.43 "/>
<polyline clip-path="url(#clip770)" style="stroke:#000000; stroke-linecap:round; stroke-linejoin:round; stroke-width:4; stroke-opacity:1; fill:none" points="1445.91,1271.58 1464.81,1271.58 "/>
<polyline clip-path="url(#clip770)" style="stroke:#000000; stroke-linecap:round; stroke-linejoin:round; stroke-width:4; stroke-opacity:1; fill:none" points="1445.91,1171.72 1464.81,1171.72 "/>
<polyline clip-path="url(#clip770)" style="stroke:#000000; stroke-linecap:round; stroke-linejoin:round; stroke-width:4; stroke-opacity:1; fill:none" points="1445.91,1071.86 1464.81,1071.86 "/>
<path clip-path="url(#clip770)" d="M1272.32 1371.88 L1301.99 1371.88 L1301.99 1375.82 L1272.32 1375.82 L1272.32 1371.88 Z" fill="#000000" fill-rule="nonzero" fill-opacity="1" /><path clip-path="url(#clip770)" d="M1322.08 1357.23 Q1318.47 1357.23 1316.64 1360.8 Q1314.84 1364.34 1314.84 1371.47 Q1314.84 1378.57 1316.64 1382.14 Q1318.47 1385.68 1322.08 1385.68 Q1325.72 1385.68 1327.52 1382.14 Q1329.35 1378.57 1329.35 1371.47 Q1329.35 1364.34 1327.52 1360.8 Q1325.72 1357.23 1322.08 1357.23 M1322.08 1353.53 Q1327.89 1353.53 1330.95 1358.13 Q1334.03 1362.72 1334.03 1371.47 Q1334.03 1380.19 1330.95 1384.8 Q1327.89 1389.38 1322.08 1389.38 Q1316.27 1389.38 1313.2 1384.8 Q1310.14 1380.19 1310.14 1371.47 Q1310.14 1362.72 1313.2 1358.13 Q1316.27 1353.53 1322.08 1353.53 Z" fill="#000000" fill-rule="nonzero" fill-opacity="1" /><path clip-path="url(#clip770)" d="M1342.25 1382.83 L1347.13 1382.83 L1347.13 1388.71 L1342.25 1388.71 L1342.25 1382.83 Z" fill="#000000" fill-rule="nonzero" fill-opacity="1" /><path clip-path="url(#clip770)" d="M1367.32 1357.23 Q1363.7 1357.23 1361.88 1360.8 Q1360.07 1364.34 1360.07 1371.47 Q1360.07 1378.57 1361.88 1382.14 Q1363.7 1385.68 1367.32 1385.68 Q1370.95 1385.68 1372.76 1382.14 Q1374.58 1378.57 1374.58 1371.47 Q1374.58 1364.34 1372.76 1360.8 Q1370.95 1357.23 1367.32 1357.23 M1367.32 1353.53 Q1373.13 1353.53 1376.18 1358.13 Q1379.26 1362.72 1379.26 1371.47 Q1379.26 1380.19 1376.18 1384.8 Q1373.13 1389.38 1367.32 1389.38 Q1361.51 1389.38 1358.43 1384.8 Q1355.37 1380.19 1355.37 1371.47 Q1355.37 1362.72 1358.43 1358.13 Q1361.51 1353.53 1367.32 1353.53 Z" fill="#000000" fill-rule="nonzero" fill-opacity="1" /><path clip-path="url(#clip770)" d="M1400.32 1358.23 L1388.52 1376.68 L1400.32 1376.68 L1400.32 1358.23 M1399.1 1354.15 L1404.98 1354.15 L1404.98 1376.68 L1409.91 1376.68 L1409.91 1380.56 L1404.98 1380.56 L1404.98 1388.71 L1400.32 1388.71 L1400.32 1380.56 L1384.72 1380.56 L1384.72 1376.05 L1399.1 1354.15 Z" fill="#000000" fill-rule="nonzero" fill-opacity="1" /><path clip-path="url(#clip770)" d="M1274.4 1272.03 L1304.08 1272.03 L1304.08 1275.96 L1274.4 1275.96 L1274.4 1272.03 Z" fill="#000000" fill-rule="nonzero" fill-opacity="1" /><path clip-path="url(#clip770)" d="M1324.17 1257.37 Q1320.56 1257.37 1318.73 1260.94 Q1316.92 1264.48 1316.92 1271.61 Q1316.92 1278.72 1318.73 1282.28 Q1320.56 1285.82 1324.17 1285.82 Q1327.8 1285.82 1329.61 1282.28 Q1331.44 1278.72 1331.44 1271.61 Q1331.44 1264.48 1329.61 1260.94 Q1327.8 1257.37 1324.17 1257.37 M1324.17 1253.67 Q1329.98 1253.67 1333.03 1258.28 Q1336.11 1262.86 1336.11 1271.61 Q1336.11 1280.34 1333.03 1284.94 Q1329.98 1289.53 1324.17 1289.53 Q1318.36 1289.53 1315.28 1284.94 Q1312.22 1280.34 1312.22 1271.61 Q1312.22 1262.86 1315.28 1258.28 Q1318.36 1253.67 1324.17 1253.67 Z" fill="#000000" fill-rule="nonzero" fill-opacity="1" /><path clip-path="url(#clip770)" d="M1344.33 1282.98 L1349.21 1282.98 L1349.21 1288.86 L1344.33 1288.86 L1344.33 1282.98 Z" fill="#000000" fill-rule="nonzero" fill-opacity="1" /><path clip-path="url(#clip770)" d="M1369.4 1257.37 Q1365.79 1257.37 1363.96 1260.94 Q1362.15 1264.48 1362.15 1271.61 Q1362.15 1278.72 1363.96 1282.28 Q1365.79 1285.82 1369.4 1285.82 Q1373.03 1285.82 1374.84 1282.28 Q1376.67 1278.72 1376.67 1271.61 Q1376.67 1264.48 1374.84 1260.94 Q1373.03 1257.37 1369.4 1257.37 M1369.4 1253.67 Q1375.21 1253.67 1378.26 1258.28 Q1381.34 1262.86 1381.34 1271.61 Q1381.34 1280.34 1378.26 1284.94 Q1375.21 1289.53 1369.4 1289.53 Q1363.59 1289.53 1360.51 1284.94 Q1357.45 1280.34 1357.45 1271.61 Q1357.45 1262.86 1360.51 1258.28 Q1363.59 1253.67 1369.4 1253.67 Z" fill="#000000" fill-rule="nonzero" fill-opacity="1" /><path clip-path="url(#clip770)" d="M1393.59 1284.92 L1409.91 1284.92 L1409.91 1288.86 L1387.96 1288.86 L1387.96 1284.92 Q1390.63 1282.17 1395.21 1277.54 Q1399.82 1272.88 1401 1271.54 Q1403.24 1269.02 1404.12 1267.28 Q1405.02 1265.52 1405.02 1263.83 Q1405.02 1261.08 1403.08 1259.34 Q1401.16 1257.61 1398.06 1257.61 Q1395.86 1257.61 1393.4 1258.37 Q1390.97 1259.13 1388.19 1260.68 L1388.19 1255.96 Q1391.02 1254.83 1393.47 1254.25 Q1395.93 1253.67 1397.96 1253.67 Q1403.33 1253.67 1406.53 1256.36 Q1409.72 1259.04 1409.72 1263.53 Q1409.72 1265.66 1408.91 1267.58 Q1408.13 1269.48 1406.02 1272.07 Q1405.44 1272.74 1402.34 1275.96 Q1399.24 1279.16 1393.59 1284.92 Z" fill="#000000" fill-rule="nonzero" fill-opacity="1" /><path clip-path="url(#clip770)" d="M1322.57 1157.52 Q1318.96 1157.52 1317.13 1161.08 Q1315.32 1164.62 1315.32 1171.75 Q1315.32 1178.86 1317.13 1182.42 Q1318.96 1185.97 1322.57 1185.97 Q1326.2 1185.97 1328.01 1182.42 Q1329.84 1178.86 1329.84 1171.75 Q1329.84 1164.62 1328.01 1161.08 Q1326.2 1157.52 1322.57 1157.52 M1322.57 1153.81 Q1328.38 1153.81 1331.44 1158.42 Q1334.51 1163 1334.51 1171.75 Q1334.51 1180.48 1331.44 1185.09 Q1328.38 1189.67 1322.57 1189.67 Q1316.76 1189.67 1313.68 1185.09 Q1310.63 1180.48 1310.63 1171.75 Q1310.63 1163 1313.68 1158.42 Q1316.76 1153.81 1322.57 1153.81 Z" fill="#000000" fill-rule="nonzero" fill-opacity="1" /><path clip-path="url(#clip770)" d="M1342.73 1183.12 L1347.62 1183.12 L1347.62 1189 L1342.73 1189 L1342.73 1183.12 Z" fill="#000000" fill-rule="nonzero" fill-opacity="1" /><path clip-path="url(#clip770)" d="M1367.8 1157.52 Q1364.19 1157.52 1362.36 1161.08 Q1360.56 1164.62 1360.56 1171.75 Q1360.56 1178.86 1362.36 1182.42 Q1364.19 1185.97 1367.8 1185.97 Q1371.44 1185.97 1373.24 1182.42 Q1375.07 1178.86 1375.07 1171.75 Q1375.07 1164.62 1373.24 1161.08 Q1371.44 1157.52 1367.8 1157.52 M1367.8 1153.81 Q1373.61 1153.81 1376.67 1158.42 Q1379.75 1163 1379.75 1171.75 Q1379.75 1180.48 1376.67 1185.09 Q1373.61 1189.67 1367.8 1189.67 Q1361.99 1189.67 1358.91 1185.09 Q1355.86 1180.48 1355.86 1171.75 Q1355.86 1163 1358.91 1158.42 Q1361.99 1153.81 1367.8 1153.81 Z" fill="#000000" fill-rule="nonzero" fill-opacity="1" /><path clip-path="url(#clip770)" d="M1397.96 1157.52 Q1394.35 1157.52 1392.52 1161.08 Q1390.72 1164.62 1390.72 1171.75 Q1390.72 1178.86 1392.52 1182.42 Q1394.35 1185.97 1397.96 1185.97 Q1401.6 1185.97 1403.4 1182.42 Q1405.23 1178.86 1405.23 1171.75 Q1405.23 1164.62 1403.4 1161.08 Q1401.6 1157.52 1397.96 1157.52 M1397.96 1153.81 Q1403.77 1153.81 1406.83 1158.42 Q1409.91 1163 1409.91 1171.75 Q1409.91 1180.48 1406.83 1185.09 Q1403.77 1189.67 1397.96 1189.67 Q1392.15 1189.67 1389.07 1185.09 Q1386.02 1180.48 1386.02 1171.75 Q1386.02 1163 1389.07 1158.42 Q1392.15 1153.81 1397.96 1153.81 Z" fill="#000000" fill-rule="nonzero" fill-opacity="1" /><path clip-path="url(#clip770)" d="M1324.17 1057.66 Q1320.56 1057.66 1318.73 1061.22 Q1316.92 1064.77 1316.92 1071.9 Q1316.92 1079 1318.73 1082.57 Q1320.56 1086.11 1324.17 1086.11 Q1327.8 1086.11 1329.61 1082.57 Q1331.44 1079 1331.44 1071.9 Q1331.44 1064.77 1329.61 1061.22 Q1327.8 1057.66 1324.17 1057.66 M1324.17 1053.96 Q1329.98 1053.96 1333.03 1058.56 Q1336.11 1063.15 1336.11 1071.9 Q1336.11 1080.62 1333.03 1085.23 Q1329.98 1089.81 1324.17 1089.81 Q1318.36 1089.81 1315.28 1085.23 Q1312.22 1080.62 1312.22 1071.9 Q1312.22 1063.15 1315.28 1058.56 Q1318.36 1053.96 1324.17 1053.96 Z" fill="#000000" fill-rule="nonzero" fill-opacity="1" /><path clip-path="url(#clip770)" d="M1344.33 1083.26 L1349.21 1083.26 L1349.21 1089.14 L1344.33 1089.14 L1344.33 1083.26 Z" fill="#000000" fill-rule="nonzero" fill-opacity="1" /><path clip-path="url(#clip770)" d="M1369.4 1057.66 Q1365.79 1057.66 1363.96 1061.22 Q1362.15 1064.77 1362.15 1071.9 Q1362.15 1079 1363.96 1082.57 Q1365.79 1086.11 1369.4 1086.11 Q1373.03 1086.11 1374.84 1082.57 Q1376.67 1079 1376.67 1071.9 Q1376.67 1064.77 1374.84 1061.22 Q1373.03 1057.66 1369.4 1057.66 M1369.4 1053.96 Q1375.21 1053.96 1378.26 1058.56 Q1381.34 1063.15 1381.34 1071.9 Q1381.34 1080.62 1378.26 1085.23 Q1375.21 1089.81 1369.4 1089.81 Q1363.59 1089.81 1360.51 1085.23 Q1357.45 1080.62 1357.45 1071.9 Q1357.45 1063.15 1360.51 1058.56 Q1363.59 1053.96 1369.4 1053.96 Z" fill="#000000" fill-rule="nonzero" fill-opacity="1" /><path clip-path="url(#clip770)" d="M1393.59 1085.21 L1409.91 1085.21 L1409.91 1089.14 L1387.96 1089.14 L1387.96 1085.21 Q1390.63 1082.45 1395.21 1077.82 Q1399.82 1073.17 1401 1071.83 Q1403.24 1069.3 1404.12 1067.57 Q1405.02 1065.81 1405.02 1064.12 Q1405.02 1061.36 1403.08 1059.63 Q1401.16 1057.89 1398.06 1057.89 Q1395.86 1057.89 1393.4 1058.65 Q1390.97 1059.42 1388.19 1060.97 L1388.19 1056.25 Q1391.02 1055.11 1393.47 1054.53 Q1395.93 1053.96 1397.96 1053.96 Q1403.33 1053.96 1406.53 1056.64 Q1409.72 1059.33 1409.72 1063.82 Q1409.72 1065.95 1408.91 1067.87 Q1408.13 1069.77 1406.02 1072.36 Q1405.44 1073.03 1402.34 1076.25 Q1399.24 1079.44 1393.59 1085.21 Z" fill="#000000" fill-rule="nonzero" fill-opacity="1" /><path clip-path="url(#clip770)" d="M1182.01 1252.88 L1182.94 1253.44 Q1181.43 1256.93 1179.02 1261.28 Q1181.43 1265.63 1182.94 1269.13 L1182.01 1269.67 Q1178.7 1265.86 1176.15 1261.28 Q1178.72 1256.66 1182.01 1252.88 Z" fill="#000000" fill-rule="nonzero" fill-opacity="1" /><path clip-path="url(#clip770)" d="M1194.31 1249.71 Q1196.12 1249.71 1197.15 1250.84 Q1198.14 1251.97 1198.14 1253.26 Q1198.14 1254.48 1197.44 1255.12 Q1196.73 1255.77 1195.83 1255.77 Q1194.6 1255.77 1193.54 1254.87 Q1192.48 1253.96 1192.25 1252.61 Q1191.41 1253.93 1191.41 1255.9 Q1191.41 1257.18 1192.09 1258.31 Q1192.77 1259.41 1193.64 1260.08 Q1194.51 1260.73 1195.76 1261.31 Q1196.99 1261.85 1197.73 1262.08 Q1198.43 1262.27 1199.21 1262.43 L1208.23 1264.69 Q1212.51 1265.78 1214.02 1265.78 Q1215.89 1265.78 1217.15 1264.88 Q1218.37 1263.98 1218.37 1262.18 Q1218.37 1261.47 1218.18 1260.66 Q1217.95 1259.86 1217.37 1258.83 Q1216.76 1257.76 1215.86 1256.83 Q1214.92 1255.86 1213.35 1254.93 Q1211.77 1254 1209.74 1253.38 Q1209.03 1253.19 1209.03 1252.55 Q1209.03 1251.74 1209.67 1251.74 Q1210.22 1251.74 1211.38 1252.19 Q1212.51 1252.61 1213.99 1253.55 Q1215.44 1254.45 1216.76 1255.64 Q1218.05 1256.83 1218.95 1258.6 Q1219.85 1260.37 1219.85 1262.31 Q1219.85 1265.08 1218.37 1266.91 Q1216.89 1268.75 1214.83 1269.42 Q1215.12 1269.58 1215.5 1269.81 Q1215.89 1270.03 1216.76 1270.71 Q1217.6 1271.36 1218.24 1272.1 Q1218.85 1272.84 1219.34 1274 Q1219.85 1275.12 1219.85 1276.35 Q1219.85 1277.89 1219.4 1279.28 Q1218.95 1280.63 1217.92 1281.6 Q1216.89 1282.56 1215.47 1282.56 Q1213.89 1282.56 1212.8 1281.5 Q1211.67 1280.41 1211.67 1278.92 Q1211.67 1277.99 1212.22 1277.25 Q1212.77 1276.48 1213.96 1276.48 Q1215.28 1276.48 1216.28 1277.38 Q1217.27 1278.28 1217.53 1279.57 Q1218.37 1278.25 1218.37 1276.28 Q1218.37 1274.16 1216.5 1272.48 Q1214.63 1270.81 1211.51 1270 Q1204.01 1268.01 1200.66 1267.23 Q1197.28 1266.46 1195.83 1266.46 Q1194.47 1266.46 1193.54 1266.81 Q1192.61 1267.17 1192.19 1267.78 Q1191.74 1268.36 1191.57 1268.91 Q1191.41 1269.42 1191.41 1270 Q1191.41 1270.97 1191.8 1272.06 Q1192.19 1273.13 1193.09 1274.41 Q1193.96 1275.67 1195.76 1276.86 Q1197.56 1278.05 1200.04 1278.86 Q1200.79 1279.02 1200.79 1279.73 Q1200.75 1280.5 1200.11 1280.5 Q1199.56 1280.5 1198.43 1280.08 Q1197.28 1279.63 1195.83 1278.73 Q1194.38 1277.8 1193.09 1276.6 Q1191.77 1275.38 1190.87 1273.61 Q1189.96 1271.81 1189.96 1269.87 Q1189.96 1269 1190.16 1268.17 Q1190.32 1267.3 1190.8 1266.27 Q1191.28 1265.2 1192.35 1264.27 Q1193.41 1263.34 1194.96 1262.76 Q1194.22 1262.37 1193.51 1261.85 Q1192.8 1261.31 1191.93 1260.47 Q1191.03 1259.6 1190.51 1258.41 Q1189.96 1257.18 1189.96 1255.83 Q1189.96 1254.51 1190.32 1253.22 Q1190.64 1251.94 1191.7 1250.84 Q1192.73 1249.71 1194.31 1249.71 Z" fill="#000000" fill-rule="nonzero" fill-opacity="1" /><path clip-path="url(#clip770)" d="M1231.9 1242.25 Q1230.52 1242.25 1229.87 1241.46 Q1229.22 1240.68 1229.22 1239.66 Q1229.22 1238.6 1229.92 1237.86 Q1230.59 1237.09 1231.79 1237.09 Q1233.07 1237.09 1233.79 1237.99 Q1234.51 1238.87 1234.33 1240.13 Q1236.18 1239.03 1237.02 1237 Q1237.85 1234.95 1237.85 1233.06 Q1237.85 1231.07 1236.14 1229.47 Q1234.42 1227.85 1230.23 1227.85 Q1226.67 1227.85 1224.62 1229.25 Q1222.57 1230.62 1222.57 1233.35 L1222.57 1235.38 Q1222.57 1236.08 1222.5 1236.28 Q1222.43 1236.48 1222.05 1236.48 Q1221.6 1236.48 1221.51 1235.78 Q1221.51 1235.08 1221.37 1233.98 Q1221.28 1231.3 1218.96 1229.88 Q1216.79 1228.59 1213.71 1228.59 Q1210.89 1228.59 1209.72 1229.94 Q1208.52 1231.27 1208.52 1233.01 Q1208.52 1234.63 1209.2 1236.41 Q1209.87 1238.2 1211.38 1239.17 Q1211.38 1236.3 1213.71 1236.3 Q1214.72 1236.3 1215.4 1236.96 Q1216.05 1237.59 1216.05 1238.65 Q1216.05 1239.66 1215.42 1240.34 Q1214.77 1241.01 1213.66 1241.01 Q1211.02 1241.01 1209.2 1238.67 Q1207.37 1236.3 1207.37 1232.83 Q1207.37 1229.4 1209.17 1226.88 Q1210.98 1224.33 1213.75 1224.33 Q1216.48 1224.33 1218.71 1226.13 Q1220.94 1227.94 1221.87 1230.8 Q1222.57 1227.28 1224.96 1225.19 Q1227.32 1223.09 1230.23 1223.09 Q1233.84 1223.09 1236.5 1225.93 Q1239.14 1228.77 1239.14 1232.92 Q1239.14 1236.75 1237.06 1239.5 Q1234.99 1242.25 1231.9 1242.25 Z" fill="#000000" fill-rule="nonzero" fill-opacity="1" /><polyline clip-path="url(#clip775)" style="stroke:#e26f46; stroke-linecap:round; stroke-linejoin:round; stroke-width:3; stroke-opacity:1; fill:none" stroke-dasharray="12, 6, 2, 6" points="1471.57,1171.72 1496.74,1241.89 1521.9,1081.68 1547.06,1330.07 1572.22,1308.86 1597.38,1334.59 1622.55,1413.23 1647.71,1379.3 1672.87,1323.69 1698.03,1295.14 1723.2,1266 1748.36,1235.5 1773.52,1253.96 1798.68,1224.55 1823.85,1189.15 1849.01,1216.77 1874.17,1215.83 1899.33,1171.16 1924.49,1238.64 1949.66,1240.01 1974.82,1190.98 1999.98,1188.02 2025.14,1173.54 2050.31,1247.67 2075.47,1216.34 2100.63,1175.73 2125.79,1219.22 2150.95,1162.26 2176.12,1147.94 2201.28,1178.58 2226.44,1177.05 2251.6,1209.64 2276.77,1205.96 2301.93,1173.37 2327.09,1199.33 "/>
</svg>
