<?xml version="1.0" encoding="utf-8"?>
<svg xmlns="http://www.w3.org/2000/svg" xmlns:xlink="http://www.w3.org/1999/xlink" width="600" height="400" viewBox="0 0 2400 1600">
<defs>
  <clipPath id="clip090">
    <rect x="0" y="0" width="2400" height="1600"/>
  </clipPath>
</defs>
<path clip-path="url(#clip090)" d="M0 1600 L2400 1600 L2400 0 L0 0  Z" fill="#ffffff" fill-rule="evenodd" fill-opacity="1"/>
<defs>
  <clipPath id="clip091">
    <rect x="480" y="0" width="1681" height="1600"/>
  </clipPath>
</defs>
<path clip-path="url(#clip090)" d="M232.389 1423.18 L1140.35 1423.18 L1140.35 47.2441 L232.389 47.2441  Z" fill="#ffffff" fill-rule="evenodd" fill-opacity="1"/>
<defs>
  <clipPath id="clip092">
    <rect x="232" y="47" width="909" height="1377"/>
  </clipPath>
</defs>
<polyline clip-path="url(#clip092)" style="stroke:#000000; stroke-linecap:round; stroke-linejoin:round; stroke-width:2; stroke-opacity:0.1; fill:none" points="258.086,1423.18 258.086,47.2441 "/>
<polyline clip-path="url(#clip092)" style="stroke:#000000; stroke-linecap:round; stroke-linejoin:round; stroke-width:2; stroke-opacity:0.1; fill:none" points="510.017,1423.18 510.017,47.2441 "/>
<polyline clip-path="url(#clip092)" style="stroke:#000000; stroke-linecap:round; stroke-linejoin:round; stroke-width:2; stroke-opacity:0.1; fill:none" points="761.948,1423.18 761.948,47.2441 "/>
<polyline clip-path="url(#clip092)" style="stroke:#000000; stroke-linecap:round; stroke-linejoin:round; stroke-width:2; stroke-opacity:0.1; fill:none" points="1013.88,1423.18 1013.88,47.2441 "/>
<polyline clip-path="url(#clip090)" style="stroke:#000000; stroke-linecap:round; stroke-linejoin:round; stroke-width:4; stroke-opacity:1; fill:none" points="232.389,1423.18 1140.35,1423.18 "/>
<polyline clip-path="url(#clip090)" style="stroke:#000000; stroke-linecap:round; stroke-linejoin:round; stroke-width:4; stroke-opacity:1; fill:none" points="258.086,1423.18 258.086,1404.28 "/>
<polyline clip-path="url(#clip090)" style="stroke:#000000; stroke-linecap:round; stroke-linejoin:round; stroke-width:4; stroke-opacity:1; fill:none" points="510.017,1423.18 510.017,1404.28 "/>
<polyline clip-path="url(#clip090)" style="stroke:#000000; stroke-linecap:round; stroke-linejoin:round; stroke-width:4; stroke-opacity:1; fill:none" points="761.948,1423.18 761.948,1404.28 "/>
<polyline clip-path="url(#clip090)" style="stroke:#000000; stroke-linecap:round; stroke-linejoin:round; stroke-width:4; stroke-opacity:1; fill:none" points="1013.88,1423.18 1013.88,1404.28 "/>
<path clip-path="url(#clip090)" d="M258.086 1454.1 Q254.475 1454.1 252.647 1457.66 Q250.841 1461.2 250.841 1468.33 Q250.841 1475.44 252.647 1479.01 Q254.475 1482.55 258.086 1482.55 Q261.721 1482.55 263.526 1479.01 Q265.355 1475.44 265.355 1468.33 Q265.355 1461.2 263.526 1457.66 Q261.721 1454.1 258.086 1454.1 M258.086 1450.39 Q263.896 1450.39 266.952 1455 Q270.031 1459.58 270.031 1468.33 Q270.031 1477.06 266.952 1481.67 Q263.896 1486.25 258.086 1486.25 Q252.276 1486.25 249.197 1481.67 Q246.142 1477.06 246.142 1468.33 Q246.142 1459.58 249.197 1455 Q252.276 1450.39 258.086 1450.39 Z" fill="#000000" fill-rule="nonzero" fill-opacity="1" /><path clip-path="url(#clip090)" d="M500.399 1481.64 L508.038 1481.64 L508.038 1455.28 L499.728 1456.95 L499.728 1452.69 L507.992 1451.02 L512.668 1451.02 L512.668 1481.64 L520.307 1481.64 L520.307 1485.58 L500.399 1485.58 L500.399 1481.64 Z" fill="#000000" fill-rule="nonzero" fill-opacity="1" /><path clip-path="url(#clip090)" d="M756.601 1481.64 L772.92 1481.64 L772.92 1485.58 L750.976 1485.58 L750.976 1481.64 Q753.638 1478.89 758.221 1474.26 Q762.828 1469.61 764.008 1468.27 Q766.254 1465.74 767.133 1464.01 Q768.036 1462.25 768.036 1460.56 Q768.036 1457.8 766.092 1456.07 Q764.17 1454.33 761.069 1454.33 Q758.87 1454.33 756.416 1455.09 Q753.985 1455.86 751.208 1457.41 L751.208 1452.69 Q754.032 1451.55 756.485 1450.97 Q758.939 1450.39 760.976 1450.39 Q766.346 1450.39 769.541 1453.08 Q772.735 1455.77 772.735 1460.26 Q772.735 1462.39 771.925 1464.31 Q771.138 1466.2 769.032 1468.8 Q768.453 1469.47 765.351 1472.69 Q762.249 1475.88 756.601 1481.64 Z" fill="#000000" fill-rule="nonzero" fill-opacity="1" /><path clip-path="url(#clip090)" d="M1018.13 1466.95 Q1021.48 1467.66 1023.36 1469.93 Q1025.26 1472.2 1025.26 1475.53 Q1025.26 1480.65 1021.74 1483.45 Q1018.22 1486.25 1011.74 1486.25 Q1009.56 1486.25 1007.25 1485.81 Q1004.96 1485.39 1002.5 1484.54 L1002.5 1480.02 Q1004.45 1481.16 1006.76 1481.74 Q1009.08 1482.32 1011.6 1482.32 Q1016 1482.32 1018.29 1480.58 Q1020.6 1478.84 1020.6 1475.53 Q1020.6 1472.48 1018.45 1470.77 Q1016.32 1469.03 1012.5 1469.03 L1008.47 1469.03 L1008.47 1465.19 L1012.69 1465.19 Q1016.14 1465.19 1017.96 1463.82 Q1019.79 1462.43 1019.79 1459.84 Q1019.79 1457.18 1017.9 1455.77 Q1016.02 1454.33 1012.5 1454.33 Q1010.58 1454.33 1008.38 1454.75 Q1006.18 1455.16 1003.54 1456.04 L1003.54 1451.88 Q1006.21 1451.14 1008.52 1450.77 Q1010.86 1450.39 1012.92 1450.39 Q1018.24 1450.39 1021.34 1452.83 Q1024.45 1455.23 1024.45 1459.35 Q1024.45 1462.22 1022.8 1464.21 Q1021.16 1466.18 1018.13 1466.95 Z" fill="#000000" fill-rule="nonzero" fill-opacity="1" /><path clip-path="url(#clip090)" d="M556.54 1520.52 L596.74 1520.52 L596.74 1525.93 L579.871 1525.93 L579.871 1568.04 L573.409 1568.04 L573.409 1525.93 L556.54 1525.93 L556.54 1520.52 Z" fill="#000000" fill-rule="nonzero" fill-opacity="1" /><path clip-path="url(#clip090)" d="M600.687 1532.4 L606.543 1532.4 L606.543 1568.04 L600.687 1568.04 L600.687 1532.4 M600.687 1518.52 L606.543 1518.52 L606.543 1525.93 L600.687 1525.93 L600.687 1518.52 Z" fill="#000000" fill-rule="nonzero" fill-opacity="1" /><path clip-path="url(#clip090)" d="M646.551 1539.24 Q648.748 1535.29 651.803 1533.41 Q654.859 1531.54 658.996 1531.54 Q664.566 1531.54 667.59 1535.45 Q670.614 1539.33 670.614 1546.53 L670.614 1568.04 L664.726 1568.04 L664.726 1546.72 Q664.726 1541.59 662.911 1539.11 Q661.097 1536.63 657.373 1536.63 Q652.822 1536.63 650.18 1539.65 Q647.538 1542.68 647.538 1547.9 L647.538 1568.04 L641.65 1568.04 L641.65 1546.72 Q641.65 1541.56 639.836 1539.11 Q638.021 1536.63 634.234 1536.63 Q629.746 1536.63 627.104 1539.68 Q624.462 1542.71 624.462 1547.9 L624.462 1568.04 L618.574 1568.04 L618.574 1532.4 L624.462 1532.4 L624.462 1537.93 Q626.468 1534.66 629.269 1533.1 Q632.069 1531.54 635.921 1531.54 Q639.804 1531.54 642.509 1533.51 Q645.246 1535.48 646.551 1539.24 Z" fill="#000000" fill-rule="nonzero" fill-opacity="1" /><path clip-path="url(#clip090)" d="M712.787 1548.76 L712.787 1551.62 L685.86 1551.62 Q686.242 1557.67 689.488 1560.85 Q692.766 1564 698.591 1564 Q701.965 1564 705.116 1563.17 Q708.299 1562.35 711.418 1560.69 L711.418 1566.23 Q708.267 1567.57 704.957 1568.27 Q701.647 1568.97 698.241 1568.97 Q689.711 1568.97 684.714 1564 Q679.749 1559.04 679.749 1550.57 Q679.749 1541.82 684.459 1536.69 Q689.202 1531.54 697.222 1531.54 Q704.416 1531.54 708.585 1536.18 Q712.787 1540.8 712.787 1548.76 M706.93 1547.04 Q706.867 1542.23 704.225 1539.37 Q701.615 1536.5 697.286 1536.5 Q692.385 1536.5 689.424 1539.27 Q686.496 1542.04 686.051 1547.07 L706.93 1547.04 Z" fill="#000000" fill-rule="nonzero" fill-opacity="1" /><path clip-path="url(#clip090)" d="M757.187 1518.58 Q752.922 1525.9 750.854 1533.06 Q748.785 1540.23 748.785 1547.58 Q748.785 1554.93 750.854 1562.16 Q752.954 1569.35 757.187 1576.64 L752.095 1576.64 Q747.321 1569.16 744.933 1561.93 Q742.578 1554.71 742.578 1547.58 Q742.578 1540.48 744.933 1533.29 Q747.289 1526.09 752.095 1518.58 L757.187 1518.58 Z" fill="#000000" fill-rule="nonzero" fill-opacity="1" /><path clip-path="url(#clip090)" d="M791.276 1533.45 L791.276 1538.98 Q788.793 1537.71 786.12 1537.07 Q783.446 1536.44 780.581 1536.44 Q776.221 1536.44 774.025 1537.77 Q771.86 1539.11 771.86 1541.79 Q771.86 1543.82 773.42 1545 Q774.98 1546.15 779.69 1547.2 L781.695 1547.64 Q787.934 1548.98 790.544 1551.43 Q793.186 1553.85 793.186 1558.21 Q793.186 1563.17 789.239 1566.07 Q785.324 1568.97 778.449 1568.97 Q775.584 1568.97 772.465 1568.39 Q769.378 1567.85 765.94 1566.74 L765.94 1560.69 Q769.187 1562.38 772.338 1563.24 Q775.489 1564.07 778.576 1564.07 Q782.714 1564.07 784.942 1562.66 Q787.17 1561.23 787.17 1558.65 Q787.17 1556.27 785.547 1554.99 Q783.955 1553.72 778.513 1552.54 L776.476 1552.07 Q771.033 1550.92 768.614 1548.56 Q766.195 1546.18 766.195 1542.04 Q766.195 1537.01 769.76 1534.27 Q773.325 1531.54 779.881 1531.54 Q783.128 1531.54 785.992 1532.01 Q788.857 1532.49 791.276 1533.45 Z" fill="#000000" fill-rule="nonzero" fill-opacity="1" /><path clip-path="url(#clip090)" d="M801.588 1518.58 L806.681 1518.58 Q811.455 1526.09 813.81 1533.29 Q816.198 1540.48 816.198 1547.58 Q816.198 1554.71 813.81 1561.93 Q811.455 1569.16 806.681 1576.64 L801.588 1576.64 Q805.821 1569.35 807.89 1562.16 Q809.991 1554.93 809.991 1547.58 Q809.991 1540.23 807.89 1533.06 Q805.821 1525.9 801.588 1518.58 Z" fill="#000000" fill-rule="nonzero" fill-opacity="1" /><polyline clip-path="url(#clip092)" style="stroke:#000000; stroke-linecap:round; stroke-linejoin:round; stroke-width:2; stroke-opacity:0.1; fill:none" points="232.389,1384.24 1140.35,1384.24 "/>
<polyline clip-path="url(#clip092)" style="stroke:#000000; stroke-linecap:round; stroke-linejoin:round; stroke-width:2; stroke-opacity:0.1; fill:none" points="232.389,1031.29 1140.35,1031.29 "/>
<polyline clip-path="url(#clip092)" style="stroke:#000000; stroke-linecap:round; stroke-linejoin:round; stroke-width:2; stroke-opacity:0.1; fill:none" points="232.389,678.348 1140.35,678.348 "/>
<polyline clip-path="url(#clip092)" style="stroke:#000000; stroke-linecap:round; stroke-linejoin:round; stroke-width:2; stroke-opacity:0.1; fill:none" points="232.389,325.403 1140.35,325.403 "/>
<polyline clip-path="url(#clip090)" style="stroke:#000000; stroke-linecap:round; stroke-linejoin:round; stroke-width:4; stroke-opacity:1; fill:none" points="232.389,1423.18 232.389,47.2441 "/>
<polyline clip-path="url(#clip090)" style="stroke:#000000; stroke-linecap:round; stroke-linejoin:round; stroke-width:4; stroke-opacity:1; fill:none" points="232.389,1384.24 251.287,1384.24 "/>
<polyline clip-path="url(#clip090)" style="stroke:#000000; stroke-linecap:round; stroke-linejoin:round; stroke-width:4; stroke-opacity:1; fill:none" points="232.389,1031.29 251.287,1031.29 "/>
<polyline clip-path="url(#clip090)" style="stroke:#000000; stroke-linecap:round; stroke-linejoin:round; stroke-width:4; stroke-opacity:1; fill:none" points="232.389,678.348 251.287,678.348 "/>
<polyline clip-path="url(#clip090)" style="stroke:#000000; stroke-linecap:round; stroke-linejoin:round; stroke-width:4; stroke-opacity:1; fill:none" points="232.389,325.403 251.287,325.403 "/>
<path clip-path="url(#clip090)" d="M184.445 1370.04 Q180.834 1370.04 179.005 1373.6 Q177.2 1377.14 177.2 1384.27 Q177.2 1391.38 179.005 1394.94 Q180.834 1398.49 184.445 1398.49 Q188.079 1398.49 189.885 1394.94 Q191.713 1391.38 191.713 1384.27 Q191.713 1377.14 189.885 1373.6 Q188.079 1370.04 184.445 1370.04 M184.445 1366.33 Q190.255 1366.33 193.311 1370.94 Q196.389 1375.52 196.389 1384.27 Q196.389 1393 193.311 1397.61 Q190.255 1402.19 184.445 1402.19 Q178.635 1402.19 175.556 1397.61 Q172.501 1393 172.501 1384.27 Q172.501 1375.52 175.556 1370.94 Q178.635 1366.33 184.445 1366.33 Z" fill="#000000" fill-rule="nonzero" fill-opacity="1" /><path clip-path="url(#clip090)" d="M144.329 1014.01 L162.686 1014.01 L162.686 1017.95 L148.612 1017.95 L148.612 1026.42 Q149.63 1026.07 150.649 1025.91 Q151.667 1025.73 152.686 1025.73 Q158.473 1025.73 161.852 1028.9 Q165.232 1032.07 165.232 1037.49 Q165.232 1043.06 161.76 1046.17 Q158.288 1049.24 151.968 1049.24 Q149.792 1049.24 147.524 1048.87 Q145.279 1048.5 142.871 1047.76 L142.871 1043.06 Q144.954 1044.2 147.177 1044.75 Q149.399 1045.31 151.876 1045.31 Q155.88 1045.31 158.218 1043.2 Q160.556 1041.1 160.556 1037.49 Q160.556 1033.87 158.218 1031.77 Q155.88 1029.66 151.876 1029.66 Q150.001 1029.66 148.126 1030.08 Q146.274 1030.49 144.329 1031.37 L144.329 1014.01 Z" fill="#000000" fill-rule="nonzero" fill-opacity="1" /><path clip-path="url(#clip090)" d="M184.445 1017.09 Q180.834 1017.09 179.005 1020.66 Q177.2 1024.2 177.2 1031.33 Q177.2 1038.43 179.005 1042 Q180.834 1045.54 184.445 1045.54 Q188.079 1045.54 189.885 1042 Q191.713 1038.43 191.713 1031.33 Q191.713 1024.2 189.885 1020.66 Q188.079 1017.09 184.445 1017.09 M184.445 1013.39 Q190.255 1013.39 193.311 1017.99 Q196.389 1022.58 196.389 1031.33 Q196.389 1040.05 193.311 1044.66 Q190.255 1049.24 184.445 1049.24 Q178.635 1049.24 175.556 1044.66 Q172.501 1040.05 172.501 1031.33 Q172.501 1022.58 175.556 1017.99 Q178.635 1013.39 184.445 1013.39 Z" fill="#000000" fill-rule="nonzero" fill-opacity="1" /><path clip-path="url(#clip090)" d="M114.931 691.693 L122.57 691.693 L122.57 665.327 L114.26 666.994 L114.26 662.735 L122.524 661.068 L127.2 661.068 L127.2 691.693 L134.839 691.693 L134.839 695.628 L114.931 695.628 L114.931 691.693 Z" fill="#000000" fill-rule="nonzero" fill-opacity="1" /><path clip-path="url(#clip090)" d="M154.283 664.147 Q150.672 664.147 148.843 667.711 Q147.038 671.253 147.038 678.383 Q147.038 685.489 148.843 689.054 Q150.672 692.596 154.283 692.596 Q157.917 692.596 159.723 689.054 Q161.552 685.489 161.552 678.383 Q161.552 671.253 159.723 667.711 Q157.917 664.147 154.283 664.147 M154.283 660.443 Q160.093 660.443 163.149 665.049 Q166.227 669.633 166.227 678.383 Q166.227 687.109 163.149 691.716 Q160.093 696.299 154.283 696.299 Q148.473 696.299 145.394 691.716 Q142.339 687.109 142.339 678.383 Q142.339 669.633 145.394 665.049 Q148.473 660.443 154.283 660.443 Z" fill="#000000" fill-rule="nonzero" fill-opacity="1" /><path clip-path="url(#clip090)" d="M184.445 664.147 Q180.834 664.147 179.005 667.711 Q177.2 671.253 177.2 678.383 Q177.2 685.489 179.005 689.054 Q180.834 692.596 184.445 692.596 Q188.079 692.596 189.885 689.054 Q191.713 685.489 191.713 678.383 Q191.713 671.253 189.885 667.711 Q188.079 664.147 184.445 664.147 M184.445 660.443 Q190.255 660.443 193.311 665.049 Q196.389 669.633 196.389 678.383 Q196.389 687.109 193.311 691.716 Q190.255 696.299 184.445 696.299 Q178.635 696.299 175.556 691.716 Q172.501 687.109 172.501 678.383 Q172.501 669.633 175.556 665.049 Q178.635 660.443 184.445 660.443 Z" fill="#000000" fill-rule="nonzero" fill-opacity="1" /><path clip-path="url(#clip090)" d="M114.931 338.748 L122.57 338.748 L122.57 312.382 L114.26 314.049 L114.26 309.789 L122.524 308.123 L127.2 308.123 L127.2 338.748 L134.839 338.748 L134.839 342.683 L114.931 342.683 L114.931 338.748 Z" fill="#000000" fill-rule="nonzero" fill-opacity="1" /><path clip-path="url(#clip090)" d="M144.329 308.123 L162.686 308.123 L162.686 312.058 L148.612 312.058 L148.612 320.53 Q149.63 320.183 150.649 320.021 Q151.667 319.836 152.686 319.836 Q158.473 319.836 161.852 323.007 Q165.232 326.178 165.232 331.595 Q165.232 337.174 161.76 340.275 Q158.288 343.354 151.968 343.354 Q149.792 343.354 147.524 342.984 Q145.279 342.613 142.871 341.873 L142.871 337.174 Q144.954 338.308 147.177 338.863 Q149.399 339.419 151.876 339.419 Q155.88 339.419 158.218 337.312 Q160.556 335.206 160.556 331.595 Q160.556 327.984 158.218 325.877 Q155.88 323.771 151.876 323.771 Q150.001 323.771 148.126 324.188 Q146.274 324.604 144.329 325.484 L144.329 308.123 Z" fill="#000000" fill-rule="nonzero" fill-opacity="1" /><path clip-path="url(#clip090)" d="M184.445 311.202 Q180.834 311.202 179.005 314.766 Q177.2 318.308 177.2 325.438 Q177.2 332.544 179.005 336.109 Q180.834 339.65 184.445 339.65 Q188.079 339.65 189.885 336.109 Q191.713 332.544 191.713 325.438 Q191.713 318.308 189.885 314.766 Q188.079 311.202 184.445 311.202 M184.445 307.498 Q190.255 307.498 193.311 312.104 Q196.389 316.688 196.389 325.438 Q196.389 334.164 193.311 338.771 Q190.255 343.354 184.445 343.354 Q178.635 343.354 175.556 338.771 Q172.501 334.164 172.501 325.438 Q172.501 316.688 175.556 312.104 Q178.635 307.498 184.445 307.498 Z" fill="#000000" fill-rule="nonzero" fill-opacity="1" /><path clip-path="url(#clip090)" d="M39.4334 772.564 Q44.844 772.564 50.9309 774.303 Q56.9856 776.01 61.8809 778.715 Q66.744 781.42 69.9646 784.963 Q73.153 788.505 73.153 791.887 Q73.153 794.045 71.9613 795.655 Q70.7375 797.233 68.7085 798.103 Q66.6474 798.972 64.393 799.391 Q62.1063 799.81 59.6265 799.81 Q55.9228 799.81 51.8971 799.005 Q47.8391 798.199 44.1677 796.847 Q40.464 795.494 37.1146 793.594 Q33.733 791.694 31.2853 789.6 Q28.8055 787.475 27.3562 785.092 Q25.907 782.708 25.907 780.486 Q25.907 778.876 26.6155 777.588 Q27.2918 776.267 28.4834 775.43 Q29.6428 774.593 31.0277 774.013 Q32.4125 773.401 34.0228 773.111 Q35.6009 772.821 36.9214 772.692 Q38.2096 772.564 39.4334 772.564 M35.3433 776.911 Q33.7008 776.911 32.477 777.04 Q31.2209 777.169 29.9649 777.523 Q28.7089 777.878 28.0325 778.65 Q27.3562 779.391 27.3562 780.551 Q27.3562 783.932 34.2805 787.733 Q36.4383 788.956 39.369 790.051 Q42.2997 791.146 43.6846 791.533 Q45.0694 791.919 48.4833 792.821 L48.4833 779.037 Q39.6911 776.911 35.3433 776.911 M50.5766 779.617 L50.5766 793.336 Q58.6281 795.462 63.6522 795.462 Q68.0322 795.462 69.868 794.56 Q71.6715 793.626 71.6715 791.887 Q71.6715 789.89 69.6747 788.022 Q67.6458 786.154 63.9743 784.254 Q59.2078 781.742 50.5766 779.617 Z" fill="#000000" fill-rule="nonzero" fill-opacity="1" /><path clip-path="url(#clip090)" d="M22.9507 728.256 Q30.2712 732.521 37.4327 734.59 Q44.5941 736.658 51.9465 736.658 Q59.2989 736.658 66.5239 734.59 Q73.7172 732.489 81.0059 728.256 L81.0059 733.348 Q73.5262 738.123 66.3011 740.51 Q59.0761 742.865 51.9465 742.865 Q44.8487 742.865 37.6555 740.51 Q30.4622 738.154 22.9507 733.348 L22.9507 728.256 Z" fill="#000000" fill-rule="nonzero" fill-opacity="1" /><path clip-path="url(#clip090)" d="M28.1387 706.74 Q28.1387 709.286 29.9211 711.036 Q31.6717 712.787 34.218 712.787 Q36.7324 712.787 38.483 711.036 Q40.2017 709.286 40.2017 706.74 Q40.2017 704.193 38.483 702.443 Q36.7324 700.692 34.218 700.692 Q31.7035 700.692 29.9211 702.475 Q28.1387 704.225 28.1387 706.74 M24.0328 706.74 Q24.0328 704.703 24.8286 702.825 Q25.5924 700.947 27.0566 699.578 Q28.4888 698.114 30.3031 697.382 Q32.1173 696.65 34.218 696.65 Q38.4193 696.65 41.3476 699.61 Q44.244 702.538 44.244 706.803 Q44.244 711.1 41.3794 713.965 Q38.5148 716.829 34.218 716.829 Q29.953 716.829 26.9929 713.901 Q24.0328 710.973 24.0328 706.74 Z" fill="#000000" fill-rule="nonzero" fill-opacity="1" /><path clip-path="url(#clip090)" d="M22.9507 685.224 L22.9507 680.131 Q30.4622 675.357 37.6555 673.001 Q44.8487 670.614 51.9465 670.614 Q59.0761 670.614 66.3011 673.001 Q73.5262 675.357 81.0059 680.131 L81.0059 685.224 Q73.7172 680.99 66.5239 678.921 Q59.2989 676.821 51.9465 676.821 Q44.5941 676.821 37.4327 678.921 Q30.2712 680.99 22.9507 685.224 Z" fill="#000000" fill-rule="nonzero" fill-opacity="1" /><polyline clip-path="url(#clip092)" style="stroke:#009af9; stroke-linecap:round; stroke-linejoin:round; stroke-width:4; stroke-opacity:1; fill:none" points="258.086,1384.24 283.279,1331.55 308.473,1270.24 333.666,1209.98 358.859,1110.73 384.052,1000.35 409.245,897.369 434.438,808.097 459.631,731.446 484.824,663.179 510.017,598.273 535.21,531.712 560.403,458.368 585.597,372.384 610.79,272.998 635.983,197.034 661.176,157.173 686.369,131.161 711.562,111.318 736.755,97.6954 761.948,89.9549 787.141,86.6006 812.334,86.1857 837.528,87.6789 862.721,90.3345 887.914,93.5845 913.107,97.0102 938.3,100.326 963.493,103.355 988.686,106 1013.88,108.222 1039.07,110.023 1064.27,111.434 1089.46,112.497 1114.65,113.265 "/>
<polyline clip-path="url(#clip092)" style="stroke:#3da44d; stroke-linecap:round; stroke-linejoin:round; stroke-width:3; stroke-opacity:1; fill:none" stroke-dasharray="12, 8" points="258.086,113.636 283.279,113.636 308.473,113.636 333.666,113.636 358.859,113.636 384.052,113.636 409.245,113.636 434.438,113.636 459.631,113.636 484.824,113.636 510.017,113.636 535.21,113.636 560.403,113.636 585.597,113.636 610.79,113.636 635.983,113.636 661.176,113.636 686.369,113.636 711.562,113.636 736.755,113.636 761.948,113.636 787.141,113.636 812.334,113.636 837.528,113.636 862.721,113.636 887.914,113.636 913.107,113.636 938.3,113.636 963.493,113.636 988.686,113.636 1013.88,113.636 1039.07,113.636 1064.27,113.636 1089.46,113.636 1114.65,113.636 "/>
<path clip-path="url(#clip090)" d="M971.279 1377.32 L1110.08 1377.32 L1110.08 1221.8 L971.279 1221.8  Z" fill="#ffffff" fill-rule="evenodd" fill-opacity="1"/>
<polyline clip-path="url(#clip090)" style="stroke:#000000; stroke-linecap:round; stroke-linejoin:round; stroke-width:4; stroke-opacity:1; fill:none" points="971.279,1377.32 1110.08,1377.32 1110.08,1221.8 971.279,1221.8 971.279,1377.32 "/>
<polyline clip-path="url(#clip090)" style="stroke:#009af9; stroke-linecap:round; stroke-linejoin:round; stroke-width:4; stroke-opacity:1; fill:none" points="981.367,1273.64 1041.9,1273.64 "/>
<path clip-path="url(#clip090)" d="M1078.76 1260.37 Q1077.28 1260.37 1076.53 1260.51 Q1075.78 1260.63 1075.6 1260.8 Q1075.41 1260.96 1075.2 1261.38 L1064.89 1283.3 Q1063.79 1285.65 1061.73 1287.33 Q1059.69 1289.02 1057.12 1289.02 Q1054.96 1289.02 1053.46 1287.71 Q1051.99 1286.42 1051.99 1284.59 Q1051.99 1283.28 1052.81 1282.53 Q1053.63 1281.81 1054.73 1281.81 Q1055.94 1281.81 1056.72 1282.58 Q1057.51 1283.35 1057.51 1284.55 Q1057.51 1285.32 1057.19 1285.9 Q1056.86 1286.51 1056.55 1286.72 Q1056.27 1286.96 1055.97 1287.1 Q1056.46 1287.29 1057.12 1287.29 Q1058.1 1287.29 1058.94 1286.89 Q1059.81 1286.51 1060.37 1286 Q1060.96 1285.51 1061.54 1284.62 Q1062.13 1283.75 1062.41 1283.19 Q1062.69 1282.65 1063.11 1281.71 L1064.21 1279.42 L1055.24 1260.37 L1052.17 1260.37 L1052.17 1258.13 L1057.65 1258.27 L1063.6 1258.13 L1063.6 1260.37 L1061 1260.37 L1067.09 1273.33 L1072.62 1261.52 L1072.86 1260.96 Q1072.86 1260.7 1072.29 1260.56 Q1071.73 1260.4 1071.17 1260.4 L1070.61 1260.37 L1070.61 1258.13 L1074.96 1258.27 Q1077.02 1258.27 1078.76 1258.13 L1078.76 1260.37 Z" fill="#000000" fill-rule="nonzero" fill-opacity="1" /><polyline clip-path="url(#clip090)" style="stroke:#3da44d; stroke-linecap:round; stroke-linejoin:round; stroke-width:3; stroke-opacity:1; fill:none" stroke-dasharray="12, 8" points="981.367,1325.48 1041.9,1325.48 "/>
<path clip-path="url(#clip090)" d="M1071.4 1310.75 Q1071.4 1312.11 1070.51 1312.91 Q1069.62 1313.68 1068.48 1313.68 Q1067.33 1313.68 1066.44 1312.91 Q1065.55 1312.14 1065.55 1310.75 Q1065.55 1310.14 1065.76 1309.61 Q1065.99 1309.04 1066.23 1308.79 L1066.46 1308.55 Q1065.08 1308.55 1064 1309.21 Q1062.92 1309.84 1062.27 1310.82 Q1061.61 1311.81 1061.19 1313.1 Q1060.77 1314.36 1060.61 1315.51 Q1060.46 1316.66 1060.46 1317.76 L1060.46 1326.17 L1064.63 1326.17 L1064.63 1328.41 Q1062.9 1328.27 1058.03 1328.27 L1051.99 1328.41 L1051.99 1326.17 L1055.29 1326.17 L1055.29 1311.34 Q1055.29 1309.98 1054.8 1309.72 Q1054.3 1309.46 1051.99 1309.46 L1051.99 1307.22 L1059.95 1306.82 L1059.95 1312.25 Q1061.94 1306.82 1066.32 1306.82 Q1068.33 1306.82 1069.86 1307.9 Q1071.4 1308.95 1071.4 1310.75 Z" fill="#000000" fill-rule="nonzero" fill-opacity="1" /><path clip-path="url(#clip090)" d="M1095.07 1323.94 Q1094.03 1323.94 1093.51 1324.04 Q1092.98 1324.12 1092.85 1324.23 Q1092.72 1324.35 1092.57 1324.64 L1085.36 1339.99 Q1084.59 1341.63 1083.15 1342.81 Q1081.72 1343.99 1079.92 1343.99 Q1078.41 1343.99 1077.36 1343.07 Q1076.32 1342.17 1076.32 1340.89 Q1076.32 1339.97 1076.9 1339.45 Q1077.47 1338.94 1078.24 1338.94 Q1079.1 1338.94 1079.64 1339.48 Q1080.19 1340.02 1080.19 1340.86 Q1080.19 1341.4 1079.96 1341.81 Q1079.74 1342.23 1079.52 1342.38 Q1079.33 1342.55 1079.11 1342.64 Q1079.46 1342.78 1079.92 1342.78 Q1080.6 1342.78 1081.19 1342.5 Q1081.8 1342.23 1082.19 1341.87 Q1082.6 1341.53 1083.01 1340.91 Q1083.42 1340.3 1083.62 1339.91 Q1083.82 1339.53 1084.11 1338.87 L1084.88 1337.27 L1078.6 1323.94 L1076.46 1323.94 L1076.46 1322.36 L1080.29 1322.46 L1084.46 1322.36 L1084.46 1323.94 L1082.64 1323.94 L1086.9 1333 L1090.77 1324.74 L1090.93 1324.35 Q1090.93 1324.17 1090.54 1324.07 Q1090.15 1323.95 1089.75 1323.95 L1089.36 1323.94 L1089.36 1322.36 L1092.41 1322.46 Q1093.85 1322.46 1095.07 1322.36 L1095.07 1323.94 Z" fill="#000000" fill-rule="nonzero" fill-opacity="1" /><path clip-path="url(#clip090)" d="M1444.8 1423.18 L2352.76 1423.18 L2352.76 47.2441 L1444.8 47.2441  Z" fill="#ffffff" fill-rule="evenodd" fill-opacity="1"/>
<defs>
  <clipPath id="clip093">
    <rect x="1444" y="47" width="909" height="1377"/>
  </clipPath>
</defs>
<polyline clip-path="url(#clip093)" style="stroke:#000000; stroke-linecap:round; stroke-linejoin:round; stroke-width:2; stroke-opacity:0.1; fill:none" points="1470.49,1423.18 1470.49,47.2441 "/>
<polyline clip-path="url(#clip093)" style="stroke:#000000; stroke-linecap:round; stroke-linejoin:round; stroke-width:2; stroke-opacity:0.1; fill:none" points="1722.42,1423.18 1722.42,47.2441 "/>
<polyline clip-path="url(#clip093)" style="stroke:#000000; stroke-linecap:round; stroke-linejoin:round; stroke-width:2; stroke-opacity:0.1; fill:none" points="1974.36,1423.18 1974.36,47.2441 "/>
<polyline clip-path="url(#clip093)" style="stroke:#000000; stroke-linecap:round; stroke-linejoin:round; stroke-width:2; stroke-opacity:0.1; fill:none" points="2226.29,1423.18 2226.29,47.2441 "/>
<polyline clip-path="url(#clip090)" style="stroke:#000000; stroke-linecap:round; stroke-linejoin:round; stroke-width:4; stroke-opacity:1; fill:none" points="1444.8,1423.18 2352.76,1423.18 "/>
<polyline clip-path="url(#clip090)" style="stroke:#000000; stroke-linecap:round; stroke-linejoin:round; stroke-width:4; stroke-opacity:1; fill:none" points="1470.49,1423.18 1470.49,1404.28 "/>
<polyline clip-path="url(#clip090)" style="stroke:#000000; stroke-linecap:round; stroke-linejoin:round; stroke-width:4; stroke-opacity:1; fill:none" points="1722.42,1423.18 1722.42,1404.28 "/>
<polyline clip-path="url(#clip090)" style="stroke:#000000; stroke-linecap:round; stroke-linejoin:round; stroke-width:4; stroke-opacity:1; fill:none" points="1974.36,1423.18 1974.36,1404.28 "/>
<polyline clip-path="url(#clip090)" style="stroke:#000000; stroke-linecap:round; stroke-linejoin:round; stroke-width:4; stroke-opacity:1; fill:none" points="2226.29,1423.18 2226.29,1404.28 "/>
<path clip-path="url(#clip090)" d="M1470.49 1454.1 Q1466.88 1454.1 1465.05 1457.66 Q1463.25 1461.2 1463.25 1468.33 Q1463.25 1475.44 1465.05 1479.01 Q1466.88 1482.55 1470.49 1482.55 Q1474.13 1482.55 1475.93 1479.01 Q1477.76 1475.44 1477.76 1468.33 Q1477.76 1461.2 1475.93 1457.66 Q1474.13 1454.1 1470.49 1454.1 M1470.49 1450.39 Q1476.3 1450.39 1479.36 1455 Q1482.44 1459.58 1482.44 1468.33 Q1482.44 1477.06 1479.36 1481.67 Q1476.3 1486.25 1470.49 1486.25 Q1464.68 1486.25 1461.6 1481.67 Q1458.55 1477.06 1458.55 1468.33 Q1458.55 1459.58 1461.6 1455 Q1464.68 1450.39 1470.49 1450.39 Z" fill="#000000" fill-rule="nonzero" fill-opacity="1" /><path clip-path="url(#clip090)" d="M1712.81 1481.64 L1720.45 1481.64 L1720.45 1455.28 L1712.14 1456.95 L1712.14 1452.69 L1720.4 1451.02 L1725.08 1451.02 L1725.08 1481.64 L1732.71 1481.64 L1732.71 1485.58 L1712.81 1485.58 L1712.81 1481.64 Z" fill="#000000" fill-rule="nonzero" fill-opacity="1" /><path clip-path="url(#clip090)" d="M1969.01 1481.64 L1985.33 1481.64 L1985.33 1485.58 L1963.38 1485.58 L1963.38 1481.64 Q1966.05 1478.89 1970.63 1474.26 Q1975.24 1469.61 1976.42 1468.27 Q1978.66 1465.74 1979.54 1464.01 Q1980.44 1462.25 1980.44 1460.56 Q1980.44 1457.8 1978.5 1456.07 Q1976.58 1454.33 1973.48 1454.33 Q1971.28 1454.33 1968.82 1455.09 Q1966.39 1455.86 1963.61 1457.41 L1963.61 1452.69 Q1966.44 1451.55 1968.89 1450.97 Q1971.35 1450.39 1973.38 1450.39 Q1978.75 1450.39 1981.95 1453.08 Q1985.14 1455.77 1985.14 1460.26 Q1985.14 1462.39 1984.33 1464.31 Q1983.55 1466.2 1981.44 1468.8 Q1980.86 1469.47 1977.76 1472.69 Q1974.66 1475.88 1969.01 1481.64 Z" fill="#000000" fill-rule="nonzero" fill-opacity="1" /><path clip-path="url(#clip090)" d="M2230.53 1466.95 Q2233.89 1467.66 2235.77 1469.93 Q2237.66 1472.2 2237.66 1475.53 Q2237.66 1480.65 2234.15 1483.45 Q2230.63 1486.25 2224.15 1486.25 Q2221.97 1486.25 2219.65 1485.81 Q2217.36 1485.39 2214.91 1484.54 L2214.91 1480.02 Q2216.85 1481.16 2219.17 1481.74 Q2221.48 1482.32 2224.01 1482.32 Q2228.4 1482.32 2230.7 1480.58 Q2233.01 1478.84 2233.01 1475.53 Q2233.01 1472.48 2230.86 1470.77 Q2228.73 1469.03 2224.91 1469.03 L2220.88 1469.03 L2220.88 1465.19 L2225.09 1465.19 Q2228.54 1465.19 2230.37 1463.82 Q2232.2 1462.43 2232.2 1459.84 Q2232.2 1457.18 2230.3 1455.77 Q2228.43 1454.33 2224.91 1454.33 Q2222.99 1454.33 2220.79 1454.75 Q2218.59 1455.16 2215.95 1456.04 L2215.95 1451.88 Q2218.61 1451.14 2220.93 1450.77 Q2223.27 1450.39 2225.33 1450.39 Q2230.65 1450.39 2233.75 1452.83 Q2236.85 1455.23 2236.85 1459.35 Q2236.85 1462.22 2235.21 1464.21 Q2233.57 1466.18 2230.53 1466.95 Z" fill="#000000" fill-rule="nonzero" fill-opacity="1" /><path clip-path="url(#clip090)" d="M1768.95 1520.52 L1809.15 1520.52 L1809.15 1525.93 L1792.28 1525.93 L1792.28 1568.04 L1785.82 1568.04 L1785.82 1525.93 L1768.95 1525.93 L1768.95 1520.52 Z" fill="#000000" fill-rule="nonzero" fill-opacity="1" /><path clip-path="url(#clip090)" d="M1813.09 1532.4 L1818.95 1532.4 L1818.95 1568.04 L1813.09 1568.04 L1813.09 1532.4 M1813.09 1518.52 L1818.95 1518.52 L1818.95 1525.93 L1813.09 1525.93 L1813.09 1518.52 Z" fill="#000000" fill-rule="nonzero" fill-opacity="1" /><path clip-path="url(#clip090)" d="M1858.96 1539.24 Q1861.15 1535.29 1864.21 1533.41 Q1867.27 1531.54 1871.4 1531.54 Q1876.97 1531.54 1880 1535.45 Q1883.02 1539.33 1883.02 1546.53 L1883.02 1568.04 L1877.13 1568.04 L1877.13 1546.72 Q1877.13 1541.59 1875.32 1539.11 Q1873.5 1536.63 1869.78 1536.63 Q1865.23 1536.63 1862.59 1539.65 Q1859.95 1542.68 1859.95 1547.9 L1859.95 1568.04 L1854.06 1568.04 L1854.06 1546.72 Q1854.06 1541.56 1852.24 1539.11 Q1850.43 1536.63 1846.64 1536.63 Q1842.15 1536.63 1839.51 1539.68 Q1836.87 1542.71 1836.87 1547.9 L1836.87 1568.04 L1830.98 1568.04 L1830.98 1532.4 L1836.87 1532.4 L1836.87 1537.93 Q1838.87 1534.66 1841.68 1533.1 Q1844.48 1531.54 1848.33 1531.54 Q1852.21 1531.54 1854.92 1533.51 Q1857.65 1535.48 1858.96 1539.24 Z" fill="#000000" fill-rule="nonzero" fill-opacity="1" /><path clip-path="url(#clip090)" d="M1925.19 1548.76 L1925.19 1551.62 L1898.27 1551.62 Q1898.65 1557.67 1901.9 1560.85 Q1905.17 1564 1911 1564 Q1914.37 1564 1917.52 1563.17 Q1920.71 1562.35 1923.83 1560.69 L1923.83 1566.23 Q1920.67 1567.57 1917.36 1568.27 Q1914.05 1568.97 1910.65 1568.97 Q1902.12 1568.97 1897.12 1564 Q1892.16 1559.04 1892.16 1550.57 Q1892.16 1541.82 1896.87 1536.69 Q1901.61 1531.54 1909.63 1531.54 Q1916.82 1531.54 1920.99 1536.18 Q1925.19 1540.8 1925.19 1548.76 M1919.34 1547.04 Q1919.27 1542.23 1916.63 1539.37 Q1914.02 1536.5 1909.69 1536.5 Q1904.79 1536.5 1901.83 1539.27 Q1898.9 1542.04 1898.46 1547.07 L1919.34 1547.04 Z" fill="#000000" fill-rule="nonzero" fill-opacity="1" /><path clip-path="url(#clip090)" d="M1969.59 1518.58 Q1965.33 1525.9 1963.26 1533.06 Q1961.19 1540.23 1961.19 1547.58 Q1961.19 1554.93 1963.26 1562.16 Q1965.36 1569.35 1969.59 1576.64 L1964.5 1576.64 Q1959.73 1569.16 1957.34 1561.93 Q1954.99 1554.71 1954.99 1547.58 Q1954.99 1540.48 1957.34 1533.29 Q1959.7 1526.09 1964.5 1518.58 L1969.59 1518.58 Z" fill="#000000" fill-rule="nonzero" fill-opacity="1" /><path clip-path="url(#clip090)" d="M2003.68 1533.45 L2003.68 1538.98 Q2001.2 1537.71 1998.53 1537.07 Q1995.85 1536.44 1992.99 1536.44 Q1988.63 1536.44 1986.43 1537.77 Q1984.27 1539.11 1984.27 1541.79 Q1984.27 1543.82 1985.83 1545 Q1987.39 1546.15 1992.1 1547.2 L1994.1 1547.64 Q2000.34 1548.98 2002.95 1551.43 Q2005.59 1553.85 2005.59 1558.21 Q2005.59 1563.17 2001.65 1566.07 Q1997.73 1568.97 1990.86 1568.97 Q1987.99 1568.97 1984.87 1568.39 Q1981.79 1567.85 1978.35 1566.74 L1978.35 1560.69 Q1981.59 1562.38 1984.75 1563.24 Q1987.9 1564.07 1990.98 1564.07 Q1995.12 1564.07 1997.35 1562.66 Q1999.58 1561.23 1999.58 1558.65 Q1999.58 1556.27 1997.95 1554.99 Q1996.36 1553.72 1990.92 1552.54 L1988.88 1552.07 Q1983.44 1550.92 1981.02 1548.56 Q1978.6 1546.18 1978.6 1542.04 Q1978.6 1537.01 1982.17 1534.27 Q1985.73 1531.54 1992.29 1531.54 Q1995.54 1531.54 1998.4 1532.01 Q2001.26 1532.49 2003.68 1533.45 Z" fill="#000000" fill-rule="nonzero" fill-opacity="1" /><path clip-path="url(#clip090)" d="M2014 1518.58 L2019.09 1518.58 Q2023.86 1526.09 2026.22 1533.29 Q2028.6 1540.48 2028.6 1547.58 Q2028.6 1554.71 2026.22 1561.93 Q2023.86 1569.16 2019.09 1576.64 L2014 1576.64 Q2018.23 1569.35 2020.3 1562.16 Q2022.4 1554.93 2022.4 1547.58 Q2022.4 1540.23 2020.3 1533.06 Q2018.23 1525.9 2014 1518.58 Z" fill="#000000" fill-rule="nonzero" fill-opacity="1" /><polyline clip-path="url(#clip093)" style="stroke:#000000; stroke-linecap:round; stroke-linejoin:round; stroke-width:2; stroke-opacity:0.1; fill:none" points="1444.8,1384.24 2352.76,1384.24 "/>
<polyline clip-path="url(#clip093)" style="stroke:#000000; stroke-linecap:round; stroke-linejoin:round; stroke-width:2; stroke-opacity:0.1; fill:none" points="1444.8,1167.9 2352.76,1167.9 "/>
<polyline clip-path="url(#clip093)" style="stroke:#000000; stroke-linecap:round; stroke-linejoin:round; stroke-width:2; stroke-opacity:0.1; fill:none" points="1444.8,951.554 2352.76,951.554 "/>
<polyline clip-path="url(#clip093)" style="stroke:#000000; stroke-linecap:round; stroke-linejoin:round; stroke-width:2; stroke-opacity:0.1; fill:none" points="1444.8,735.212 2352.76,735.212 "/>
<polyline clip-path="url(#clip093)" style="stroke:#000000; stroke-linecap:round; stroke-linejoin:round; stroke-width:2; stroke-opacity:0.1; fill:none" points="1444.8,518.87 2352.76,518.87 "/>
<polyline clip-path="url(#clip093)" style="stroke:#000000; stroke-linecap:round; stroke-linejoin:round; stroke-width:2; stroke-opacity:0.1; fill:none" points="1444.8,302.528 2352.76,302.528 "/>
<polyline clip-path="url(#clip093)" style="stroke:#000000; stroke-linecap:round; stroke-linejoin:round; stroke-width:2; stroke-opacity:0.1; fill:none" points="1444.8,86.1857 2352.76,86.1857 "/>
<polyline clip-path="url(#clip090)" style="stroke:#000000; stroke-linecap:round; stroke-linejoin:round; stroke-width:4; stroke-opacity:1; fill:none" points="1444.8,1423.18 1444.8,47.2441 "/>
<polyline clip-path="url(#clip090)" style="stroke:#000000; stroke-linecap:round; stroke-linejoin:round; stroke-width:4; stroke-opacity:1; fill:none" points="1444.8,1384.24 1463.69,1384.24 "/>
<polyline clip-path="url(#clip090)" style="stroke:#000000; stroke-linecap:round; stroke-linejoin:round; stroke-width:4; stroke-opacity:1; fill:none" points="1444.8,1167.9 1463.69,1167.9 "/>
<polyline clip-path="url(#clip090)" style="stroke:#000000; stroke-linecap:round; stroke-linejoin:round; stroke-width:4; stroke-opacity:1; fill:none" points="1444.8,951.554 1463.69,951.554 "/>
<polyline clip-path="url(#clip090)" style="stroke:#000000; stroke-linecap:round; stroke-linejoin:round; stroke-width:4; stroke-opacity:1; fill:none" points="1444.8,735.212 1463.69,735.212 "/>
<polyline clip-path="url(#clip090)" style="stroke:#000000; stroke-linecap:round; stroke-linejoin:round; stroke-width:4; stroke-opacity:1; fill:none" points="1444.8,518.87 1463.69,518.87 "/>
<polyline clip-path="url(#clip090)" style="stroke:#000000; stroke-linecap:round; stroke-linejoin:round; stroke-width:4; stroke-opacity:1; fill:none" points="1444.8,302.528 1463.69,302.528 "/>
<polyline clip-path="url(#clip090)" style="stroke:#000000; stroke-linecap:round; stroke-linejoin:round; stroke-width:4; stroke-opacity:1; fill:none" points="1444.8,86.1857 1463.69,86.1857 "/>
<path clip-path="url(#clip090)" d="M1302.85 1384.69 L1332.52 1384.69 L1332.52 1388.62 L1302.85 1388.62 L1302.85 1384.69 Z" fill="#000000" fill-rule="nonzero" fill-opacity="1" /><path clip-path="url(#clip090)" d="M1343.43 1397.58 L1351.07 1397.58 L1351.07 1371.22 L1342.76 1372.88 L1342.76 1368.62 L1351.02 1366.96 L1355.7 1366.96 L1355.7 1397.58 L1363.33 1397.58 L1363.33 1401.52 L1343.43 1401.52 L1343.43 1397.58 Z" fill="#000000" fill-rule="nonzero" fill-opacity="1" /><path clip-path="url(#clip090)" d="M1372.78 1395.64 L1377.66 1395.64 L1377.66 1401.52 L1372.78 1401.52 L1372.78 1395.64 Z" fill="#000000" fill-rule="nonzero" fill-opacity="1" /><path clip-path="url(#clip090)" d="M1387.89 1366.96 L1406.25 1366.96 L1406.25 1370.89 L1392.18 1370.89 L1392.18 1379.37 Q1393.19 1379.02 1394.21 1378.86 Q1395.23 1378.67 1396.25 1378.67 Q1402.04 1378.67 1405.42 1381.84 Q1408.8 1385.01 1408.8 1390.43 Q1408.8 1396.01 1405.32 1399.11 Q1401.85 1402.19 1395.53 1402.19 Q1393.36 1402.19 1391.09 1401.82 Q1388.84 1401.45 1386.44 1400.71 L1386.44 1396.01 Q1388.52 1397.14 1390.74 1397.7 Q1392.96 1398.25 1395.44 1398.25 Q1399.44 1398.25 1401.78 1396.15 Q1404.12 1394.04 1404.12 1390.43 Q1404.12 1386.82 1401.78 1384.71 Q1399.44 1382.61 1395.44 1382.61 Q1393.57 1382.61 1391.69 1383.02 Q1389.84 1383.44 1387.89 1384.32 L1387.89 1366.96 Z" fill="#000000" fill-rule="nonzero" fill-opacity="1" /><path clip-path="url(#clip090)" d="M1301.85 1168.35 L1331.53 1168.35 L1331.53 1172.28 L1301.85 1172.28 L1301.85 1168.35 Z" fill="#000000" fill-rule="nonzero" fill-opacity="1" /><path clip-path="url(#clip090)" d="M1342.43 1181.24 L1350.07 1181.24 L1350.07 1154.88 L1341.76 1156.54 L1341.76 1152.28 L1350.02 1150.62 L1354.7 1150.62 L1354.7 1181.24 L1362.34 1181.24 L1362.34 1185.18 L1342.43 1185.18 L1342.43 1181.24 Z" fill="#000000" fill-rule="nonzero" fill-opacity="1" /><path clip-path="url(#clip090)" d="M1371.78 1179.3 L1376.67 1179.3 L1376.67 1185.18 L1371.78 1185.18 L1371.78 1179.3 Z" fill="#000000" fill-rule="nonzero" fill-opacity="1" /><path clip-path="url(#clip090)" d="M1396.85 1153.69 Q1393.24 1153.69 1391.41 1157.26 Q1389.61 1160.8 1389.61 1167.93 Q1389.61 1175.04 1391.41 1178.6 Q1393.24 1182.14 1396.85 1182.14 Q1400.49 1182.14 1402.29 1178.6 Q1404.12 1175.04 1404.12 1167.93 Q1404.12 1160.8 1402.29 1157.26 Q1400.49 1153.69 1396.85 1153.69 M1396.85 1149.99 Q1402.66 1149.99 1405.72 1154.6 Q1408.8 1159.18 1408.8 1167.93 Q1408.8 1176.66 1405.72 1181.26 Q1402.66 1185.85 1396.85 1185.85 Q1391.04 1185.85 1387.96 1181.26 Q1384.91 1176.66 1384.91 1167.93 Q1384.91 1159.18 1387.96 1154.6 Q1391.04 1149.99 1396.85 1149.99 Z" fill="#000000" fill-rule="nonzero" fill-opacity="1" /><path clip-path="url(#clip090)" d="M1302.85 952.005 L1332.52 952.005 L1332.52 955.941 L1302.85 955.941 L1302.85 952.005 Z" fill="#000000" fill-rule="nonzero" fill-opacity="1" /><path clip-path="url(#clip090)" d="M1352.62 937.353 Q1349.01 937.353 1347.18 940.918 Q1345.37 944.459 1345.37 951.589 Q1345.37 958.695 1347.18 962.26 Q1349.01 965.802 1352.62 965.802 Q1356.25 965.802 1358.06 962.26 Q1359.88 958.695 1359.88 951.589 Q1359.88 944.459 1358.06 940.918 Q1356.25 937.353 1352.62 937.353 M1352.62 933.649 Q1358.43 933.649 1361.48 938.256 Q1364.56 942.839 1364.56 951.589 Q1364.56 960.316 1361.48 964.922 Q1358.43 969.505 1352.62 969.505 Q1346.81 969.505 1343.73 964.922 Q1340.67 960.316 1340.67 951.589 Q1340.67 942.839 1343.73 938.256 Q1346.81 933.649 1352.62 933.649 Z" fill="#000000" fill-rule="nonzero" fill-opacity="1" /><path clip-path="url(#clip090)" d="M1372.78 962.954 L1377.66 962.954 L1377.66 968.834 L1372.78 968.834 L1372.78 962.954 Z" fill="#000000" fill-rule="nonzero" fill-opacity="1" /><path clip-path="url(#clip090)" d="M1387.89 934.274 L1406.25 934.274 L1406.25 938.209 L1392.18 938.209 L1392.18 946.681 Q1393.19 946.334 1394.21 946.172 Q1395.23 945.987 1396.25 945.987 Q1402.04 945.987 1405.42 949.158 Q1408.8 952.33 1408.8 957.746 Q1408.8 963.325 1405.32 966.427 Q1401.85 969.505 1395.53 969.505 Q1393.36 969.505 1391.09 969.135 Q1388.84 968.765 1386.44 968.024 L1386.44 963.325 Q1388.52 964.459 1390.74 965.015 Q1392.96 965.57 1395.44 965.57 Q1399.44 965.57 1401.78 963.464 Q1404.12 961.357 1404.12 957.746 Q1404.12 954.135 1401.78 952.029 Q1399.44 949.922 1395.44 949.922 Q1393.57 949.922 1391.69 950.339 Q1389.84 950.755 1387.89 951.635 L1387.89 934.274 Z" fill="#000000" fill-rule="nonzero" fill-opacity="1" /><path clip-path="url(#clip090)" d="M1351.62 721.011 Q1348.01 721.011 1346.18 724.575 Q1344.38 728.117 1344.38 735.247 Q1344.38 742.353 1346.18 745.918 Q1348.01 749.46 1351.62 749.46 Q1355.26 749.46 1357.06 745.918 Q1358.89 742.353 1358.89 735.247 Q1358.89 728.117 1357.06 724.575 Q1355.26 721.011 1351.62 721.011 M1351.62 717.307 Q1357.43 717.307 1360.49 721.913 Q1363.57 726.497 1363.57 735.247 Q1363.57 743.973 1360.49 748.58 Q1357.43 753.163 1351.62 753.163 Q1345.81 753.163 1342.73 748.58 Q1339.68 743.973 1339.68 735.247 Q1339.68 726.497 1342.73 721.913 Q1345.81 717.307 1351.62 717.307 Z" fill="#000000" fill-rule="nonzero" fill-opacity="1" /><path clip-path="url(#clip090)" d="M1371.78 746.612 L1376.67 746.612 L1376.67 752.492 L1371.78 752.492 L1371.78 746.612 Z" fill="#000000" fill-rule="nonzero" fill-opacity="1" /><path clip-path="url(#clip090)" d="M1396.85 721.011 Q1393.24 721.011 1391.41 724.575 Q1389.61 728.117 1389.61 735.247 Q1389.61 742.353 1391.41 745.918 Q1393.24 749.46 1396.85 749.46 Q1400.49 749.46 1402.29 745.918 Q1404.12 742.353 1404.12 735.247 Q1404.12 728.117 1402.29 724.575 Q1400.49 721.011 1396.85 721.011 M1396.85 717.307 Q1402.66 717.307 1405.72 721.913 Q1408.8 726.497 1408.8 735.247 Q1408.8 743.973 1405.72 748.58 Q1402.66 753.163 1396.85 753.163 Q1391.04 753.163 1387.96 748.58 Q1384.91 743.973 1384.91 735.247 Q1384.91 726.497 1387.96 721.913 Q1391.04 717.307 1396.85 717.307 Z" fill="#000000" fill-rule="nonzero" fill-opacity="1" /><path clip-path="url(#clip090)" d="M1352.62 504.669 Q1349.01 504.669 1347.18 508.233 Q1345.37 511.775 1345.37 518.905 Q1345.37 526.011 1347.18 529.576 Q1349.01 533.117 1352.62 533.117 Q1356.25 533.117 1358.06 529.576 Q1359.88 526.011 1359.88 518.905 Q1359.88 511.775 1358.06 508.233 Q1356.25 504.669 1352.62 504.669 M1352.62 500.965 Q1358.43 500.965 1361.48 505.571 Q1364.56 510.155 1364.56 518.905 Q1364.56 527.631 1361.48 532.238 Q1358.43 536.821 1352.62 536.821 Q1346.81 536.821 1343.73 532.238 Q1340.67 527.631 1340.67 518.905 Q1340.67 510.155 1343.73 505.571 Q1346.81 500.965 1352.62 500.965 Z" fill="#000000" fill-rule="nonzero" fill-opacity="1" /><path clip-path="url(#clip090)" d="M1372.78 530.27 L1377.66 530.27 L1377.66 536.15 L1372.78 536.15 L1372.78 530.27 Z" fill="#000000" fill-rule="nonzero" fill-opacity="1" /><path clip-path="url(#clip090)" d="M1387.89 501.59 L1406.25 501.59 L1406.25 505.525 L1392.18 505.525 L1392.18 513.997 Q1393.19 513.65 1394.21 513.488 Q1395.23 513.303 1396.25 513.303 Q1402.04 513.303 1405.42 516.474 Q1408.8 519.645 1408.8 525.062 Q1408.8 530.641 1405.32 533.742 Q1401.85 536.821 1395.53 536.821 Q1393.36 536.821 1391.09 536.451 Q1388.84 536.08 1386.44 535.34 L1386.44 530.641 Q1388.52 531.775 1390.74 532.33 Q1392.96 532.886 1395.44 532.886 Q1399.44 532.886 1401.78 530.78 Q1404.12 528.673 1404.12 525.062 Q1404.12 521.451 1401.78 519.344 Q1399.44 517.238 1395.44 517.238 Q1393.57 517.238 1391.69 517.655 Q1389.84 518.071 1387.89 518.951 L1387.89 501.59 Z" fill="#000000" fill-rule="nonzero" fill-opacity="1" /><path clip-path="url(#clip090)" d="M1342.43 315.873 L1350.07 315.873 L1350.07 289.507 L1341.76 291.174 L1341.76 286.914 L1350.02 285.248 L1354.7 285.248 L1354.7 315.873 L1362.34 315.873 L1362.34 319.808 L1342.43 319.808 L1342.43 315.873 Z" fill="#000000" fill-rule="nonzero" fill-opacity="1" /><path clip-path="url(#clip090)" d="M1371.78 313.928 L1376.67 313.928 L1376.67 319.808 L1371.78 319.808 L1371.78 313.928 Z" fill="#000000" fill-rule="nonzero" fill-opacity="1" /><path clip-path="url(#clip090)" d="M1396.85 288.326 Q1393.24 288.326 1391.41 291.891 Q1389.61 295.433 1389.61 302.562 Q1389.61 309.669 1391.41 313.234 Q1393.24 316.775 1396.85 316.775 Q1400.49 316.775 1402.29 313.234 Q1404.12 309.669 1404.12 302.562 Q1404.12 295.433 1402.29 291.891 Q1400.49 288.326 1396.85 288.326 M1396.85 284.623 Q1402.66 284.623 1405.72 289.229 Q1408.8 293.813 1408.8 302.562 Q1408.8 311.289 1405.72 315.896 Q1402.66 320.479 1396.85 320.479 Q1391.04 320.479 1387.96 315.896 Q1384.91 311.289 1384.91 302.562 Q1384.91 293.813 1387.96 289.229 Q1391.04 284.623 1396.85 284.623 Z" fill="#000000" fill-rule="nonzero" fill-opacity="1" /><path clip-path="url(#clip090)" d="M1343.43 99.5305 L1351.07 99.5305 L1351.07 73.1649 L1342.76 74.8316 L1342.76 70.5723 L1351.02 68.9057 L1355.7 68.9057 L1355.7 99.5305 L1363.33 99.5305 L1363.33 103.466 L1343.43 103.466 L1343.43 99.5305 Z" fill="#000000" fill-rule="nonzero" fill-opacity="1" /><path clip-path="url(#clip090)" d="M1372.78 97.5861 L1377.66 97.5861 L1377.66 103.466 L1372.78 103.466 L1372.78 97.5861 Z" fill="#000000" fill-rule="nonzero" fill-opacity="1" /><path clip-path="url(#clip090)" d="M1387.89 68.9057 L1406.25 68.9057 L1406.25 72.8408 L1392.18 72.8408 L1392.18 81.313 Q1393.19 80.9658 1394.21 80.8038 Q1395.23 80.6186 1396.25 80.6186 Q1402.04 80.6186 1405.42 83.7899 Q1408.8 86.9611 1408.8 92.3778 Q1408.8 97.9564 1405.32 101.058 Q1401.85 104.137 1395.53 104.137 Q1393.36 104.137 1391.09 103.767 Q1388.84 103.396 1386.44 102.655 L1386.44 97.9564 Q1388.52 99.0907 1390.74 99.6462 Q1392.96 100.202 1395.44 100.202 Q1399.44 100.202 1401.78 98.0953 Q1404.12 95.9889 1404.12 92.3778 Q1404.12 88.7667 1401.78 86.6602 Q1399.44 84.5537 1395.44 84.5537 Q1393.57 84.5537 1391.69 84.9704 Q1389.84 85.3871 1387.89 86.2667 L1387.89 68.9057 Z" fill="#000000" fill-rule="nonzero" fill-opacity="1" /><path clip-path="url(#clip090)" d="M1224.17 817.002 Q1226.42 817.002 1226.42 820.255 L1226.42 831.334 L1249 835.746 Q1249.58 835.843 1249.9 835.972 Q1250.22 836.068 1250.77 836.358 Q1251.29 836.616 1251.54 837.163 Q1251.83 837.679 1251.83 838.452 Q1251.83 839.418 1251.25 839.901 Q1250.71 840.352 1250.03 840.352 Q1249.61 840.352 1247.61 839.708 L1226.42 833.234 L1226.42 838.709 Q1226.42 843.862 1231.51 847.083 Q1232.19 847.598 1232.25 847.888 Q1232.28 848.017 1232.28 848.146 Q1232.28 848.5 1232.12 848.725 Q1231.96 848.918 1231.8 848.918 L1231.64 848.951 Q1231.41 848.951 1230.51 848.435 Q1229.58 847.888 1228.19 846.922 Q1226.81 845.923 1225.71 844.925 Q1224.3 843.605 1223.56 842.123 Q1222.78 840.642 1222.69 839.901 Q1222.59 839.128 1222.59 838.13 L1222.59 819.643 Q1222.59 818.806 1222.65 818.355 Q1222.69 817.904 1223.07 817.453 Q1223.43 817.002 1224.17 817.002 Z" fill="#000000" fill-rule="nonzero" fill-opacity="1" /><path clip-path="url(#clip090)" d="M1201.57 779.502 Q1208.89 783.767 1216.05 785.836 Q1223.21 787.905 1230.56 787.905 Q1237.91 787.905 1245.14 785.836 Q1252.33 783.735 1259.62 779.502 L1259.62 784.594 Q1252.14 789.369 1244.92 791.756 Q1237.69 794.111 1230.56 794.111 Q1223.46 794.111 1216.27 791.756 Q1209.08 789.401 1201.57 784.594 L1201.57 779.502 Z" fill="#000000" fill-rule="nonzero" fill-opacity="1" /><path clip-path="url(#clip090)" d="M1203.51 767.885 L1203.51 759.227 L1243.26 738.157 L1203.51 738.157 L1203.51 731.918 L1251.03 731.918 L1251.03 740.576 L1211.27 761.646 L1251.03 761.646 L1251.03 767.885 L1203.51 767.885 Z" fill="#000000" fill-rule="nonzero" fill-opacity="1" /><path clip-path="url(#clip090)" d="M1222.22 670.903 Q1218.28 668.707 1216.4 665.651 Q1214.52 662.596 1214.52 658.458 Q1214.52 652.888 1218.44 649.864 Q1222.32 646.841 1229.51 646.841 L1251.03 646.841 L1251.03 652.729 L1229.7 652.729 Q1224.58 652.729 1222.1 654.543 Q1219.61 656.357 1219.61 660.081 Q1219.61 664.633 1222.64 667.275 Q1225.66 669.916 1230.88 669.916 L1251.03 669.916 L1251.03 675.805 L1229.7 675.805 Q1224.55 675.805 1222.1 677.619 Q1219.61 679.433 1219.61 683.221 Q1219.61 687.708 1222.67 690.35 Q1225.69 692.992 1230.88 692.992 L1251.03 692.992 L1251.03 698.88 L1215.38 698.88 L1215.38 692.992 L1220.92 692.992 Q1217.64 690.987 1216.08 688.186 Q1214.52 685.385 1214.52 681.534 Q1214.52 677.651 1216.49 674.945 Q1218.47 672.208 1222.22 670.903 Z" fill="#000000" fill-rule="nonzero" fill-opacity="1" /><path clip-path="url(#clip090)" d="M1201.57 636.083 L1201.57 630.99 Q1209.08 626.216 1216.27 623.86 Q1223.46 621.473 1230.56 621.473 Q1237.69 621.473 1244.92 623.86 Q1252.14 626.216 1259.62 630.99 L1259.62 636.083 Q1252.33 631.849 1245.14 629.781 Q1237.91 627.68 1230.56 627.68 Q1223.21 627.68 1216.05 629.781 Q1208.89 631.849 1201.57 636.083 Z" fill="#000000" fill-rule="nonzero" fill-opacity="1" /><polyline clip-path="url(#clip093)" style="stroke:#009af9; stroke-linecap:round; stroke-linejoin:round; stroke-width:4; stroke-opacity:1; fill:none" points="1470.49,86.1857 1495.69,86.1857 1495.69,803.916 1520.88,803.916 1520.88,131.58 1546.07,131.58 1546.07,86.1857 1571.27,86.1857 1571.27,86.1857 1596.46,86.1857 1596.46,86.1857 1621.65,86.1857 1621.65,86.1857 1646.85,86.1857 1672.04,86.1857 1697.23,86.1857 1722.42,86.1857 1747.62,86.1857 1772.81,86.1857 1798,86.1857 1798,165.833 1823.2,165.833 1823.2,670.456 1848.39,670.456 1848.39,674.484 1873.58,674.484 1873.58,665.586 1898.78,665.586 1898.78,705.862 1923.97,705.862 1923.97,746.986 1949.16,746.986 1949.16,768.777 1974.36,768.777 1974.36,777.896 1999.55,777.896 1999.55,781.149 2024.74,781.149 2024.74,780.764 2049.93,780.764 2049.93,777.639 2075.13,777.639 2075.13,772.785 2100.32,772.785 2100.32,767.149 2125.51,767.149 2125.51,761.399 2150.71,761.399 2150.71,755.949 2175.9,755.949 2175.9,751.045 2201.09,751.045 2201.09,746.815 2226.29,746.815 2226.29,743.3 2251.48,743.3 2251.48,740.481 2276.67,740.481 2276.67,738.299 2301.87,738.299 2301.87,736.675 2327.06,736.675 2327.06,735.52 "/>
<polyline clip-path="url(#clip093)" style="stroke:#c271d2; stroke-linecap:round; stroke-linejoin:round; stroke-width:6; stroke-opacity:1; fill:none" stroke-dasharray="3, 6" points="1470.49,1384.24 1495.69,1384.24 1520.88,1384.24 1546.07,1384.24 1571.27,1384.24 1596.46,1384.24 1621.65,1384.24 1646.85,1384.24 1672.04,1384.24 1697.23,1384.24 1722.42,1384.24 1747.62,1384.24 1772.81,1384.24 1798,1384.24 1823.2,1384.24 1848.39,1384.24 1873.58,1384.24 1898.78,1384.24 1923.97,1384.24 1949.16,1384.24 1974.36,1384.24 1999.55,1384.24 2024.74,1384.24 2049.93,1384.24 2075.13,1384.24 2100.32,1384.24 2125.51,1384.24 2150.71,1384.24 2175.9,1384.24 2201.09,1384.24 2226.29,1384.24 2251.48,1384.24 2276.67,1384.24 2301.87,1384.24 2327.06,1384.24 "/>
<polyline clip-path="url(#clip093)" style="stroke:#ac8d18; stroke-linecap:round; stroke-linejoin:round; stroke-width:6; stroke-opacity:1; fill:none" stroke-dasharray="3, 6" points="1470.49,86.1857 1495.69,86.1857 1520.88,86.1857 1546.07,86.1857 1571.27,86.1857 1596.46,86.1857 1621.65,86.1857 1646.85,86.1857 1672.04,86.1857 1697.23,86.1857 1722.42,86.1857 1747.62,86.1857 1772.81,86.1857 1798,86.1857 1823.2,86.1857 1848.39,86.1857 1873.58,86.1857 1898.78,86.1857 1923.97,86.1857 1949.16,86.1857 1974.36,86.1857 1999.55,86.1857 2024.74,86.1857 2049.93,86.1857 2075.13,86.1857 2100.32,86.1857 2125.51,86.1857 2150.71,86.1857 2175.9,86.1857 2201.09,86.1857 2226.29,86.1857 2251.48,86.1857 2276.67,86.1857 2301.87,86.1857 2327.06,86.1857 "/>
<path clip-path="url(#clip090)" d="M2124.19 300.469 L2322.49 300.469 L2322.49 93.1086 L2124.19 93.1086  Z" fill="#ffffff" fill-rule="evenodd" fill-opacity="1"/>
<polyline clip-path="url(#clip090)" style="stroke:#000000; stroke-linecap:round; stroke-linejoin:round; stroke-width:4; stroke-opacity:1; fill:none" points="2124.19,300.469 2322.49,300.469 2322.49,93.1086 2124.19,93.1086 2124.19,300.469 "/>
<polyline clip-path="url(#clip090)" style="stroke:#009af9; stroke-linecap:round; stroke-linejoin:round; stroke-width:4; stroke-opacity:1; fill:none" points="2134.28,144.949 2194.81,144.949 "/>
<path clip-path="url(#clip090)" d="M2232.25 155.503 L2223.75 155.784 L2223.75 152.06 Q2221.57 155.784 2216.84 155.784 Q2214.9 155.784 2213.45 155.527 Q2212.02 155.269 2210.75 154.637 Q2209.51 153.981 2208.85 152.716 Q2208.2 151.451 2208.2 149.601 L2208.2 138.428 Q2208.2 137.07 2207.71 136.812 Q2207.21 136.555 2204.9 136.555 L2204.9 134.306 L2213.68 133.908 L2213.68 150.28 Q2213.68 151.428 2213.75 152.013 Q2213.84 152.576 2214.19 153.138 Q2214.57 153.676 2215.37 153.887 Q2216.16 154.075 2217.52 154.075 Q2220.17 154.075 2221.81 152.294 Q2223.47 150.514 2223.47 147.587 L2223.47 138.428 Q2223.47 137.07 2222.95 136.812 Q2222.46 136.555 2220.14 136.555 L2220.14 134.306 L2228.93 133.908 L2228.93 151.381 Q2228.93 152.739 2229.42 152.997 Q2229.93 153.255 2232.25 153.255 L2232.25 155.503 Z" fill="#000000" fill-rule="nonzero" fill-opacity="1" /><polyline clip-path="url(#clip090)" style="stroke:#c271d2; stroke-linecap:round; stroke-linejoin:round; stroke-width:6; stroke-opacity:1; fill:none" stroke-dasharray="3, 6" points="2134.28,196.789 2194.81,196.789 "/>
<path clip-path="url(#clip090)" d="M2232.25 200.508 L2223.75 200.79 L2223.75 197.065 Q2221.57 200.79 2216.84 200.79 Q2214.9 200.79 2213.45 200.532 Q2212.02 200.274 2210.75 199.642 Q2209.51 198.986 2208.85 197.721 Q2208.2 196.456 2208.2 194.606 L2208.2 183.434 Q2208.2 182.075 2207.71 181.817 Q2207.21 181.56 2204.9 181.56 L2204.9 179.311 L2213.68 178.913 L2213.68 195.285 Q2213.68 196.433 2213.75 197.019 Q2213.84 197.581 2214.19 198.143 Q2214.57 198.682 2215.37 198.892 Q2216.16 199.08 2217.52 199.08 Q2220.17 199.08 2221.81 197.3 Q2223.47 195.519 2223.47 192.592 L2223.47 183.434 Q2223.47 182.075 2222.95 181.817 Q2222.46 181.56 2220.14 181.56 L2220.14 179.311 L2228.93 178.913 L2228.93 196.386 Q2228.93 197.745 2229.42 198.002 Q2229.93 198.26 2232.25 198.26 L2232.25 200.508 Z" fill="#000000" fill-rule="nonzero" fill-opacity="1" /><path clip-path="url(#clip090)" d="M2266.98 214.459 L2262.75 214.361 L2258.52 214.459 L2258.52 212.885 L2260.84 212.885 L2260.84 203.819 Q2260.84 201.982 2260.36 201.277 Q2259.88 200.556 2258.95 200.556 Q2258.13 200.556 2257.28 200.884 Q2256.44 201.212 2255.67 201.835 Q2254.92 202.458 2254.42 203.507 Q2253.95 204.556 2253.95 205.868 L2253.95 212.885 L2256.28 212.885 L2256.28 214.459 L2252.05 214.361 L2247.8 214.459 L2247.8 212.885 L2250.13 212.885 L2250.13 203.819 Q2250.13 201.982 2249.65 201.277 Q2249.18 200.556 2248.24 200.556 Q2247.42 200.556 2246.57 200.884 Q2245.73 201.212 2244.96 201.835 Q2244.21 202.458 2243.72 203.507 Q2243.24 204.556 2243.24 205.868 L2243.24 212.885 L2245.55 212.885 L2245.55 214.459 L2241.32 214.361 L2237.09 214.459 L2237.09 212.885 L2239.41 212.885 L2239.41 202.507 Q2239.41 201.556 2239.06 201.376 Q2238.72 201.195 2237.09 201.195 L2237.09 199.621 L2242.87 199.343 L2242.87 202.982 Q2243.73 201.294 2245.21 200.326 Q2246.7 199.343 2248.78 199.343 Q2253.11 199.343 2253.82 202.573 Q2254.59 201.212 2256 200.277 Q2257.41 199.343 2259.49 199.343 Q2262.13 199.343 2263.39 200.49 Q2264.67 201.622 2264.67 204.179 L2264.67 212.885 L2266.98 212.885 L2266.98 214.459 Z" fill="#000000" fill-rule="nonzero" fill-opacity="1" /><path clip-path="url(#clip090)" d="M2276.83 214.459 L2272.9 214.361 L2268.8 214.459 L2268.8 212.885 L2271.13 212.885 L2271.13 202.507 Q2271.13 201.556 2270.78 201.376 Q2270.44 201.195 2268.9 201.195 L2268.9 199.621 L2274.75 199.343 L2274.75 212.885 L2276.83 212.885 L2276.83 214.459 M2274.44 192.227 Q2275.21 192.997 2275.21 194.08 Q2275.21 195.162 2274.44 195.932 Q2273.68 196.703 2272.6 196.703 Q2271.52 196.703 2270.75 195.932 Q2269.98 195.162 2269.98 194.08 Q2269.98 192.997 2270.75 192.227 Q2271.52 191.456 2272.6 191.456 Q2273.68 191.456 2274.44 192.227 Z" fill="#000000" fill-rule="nonzero" fill-opacity="1" /><path clip-path="url(#clip090)" d="M2298.82 214.459 L2294.57 214.361 L2290.34 214.459 L2290.34 212.885 L2292.67 212.885 L2292.67 203.819 Q2292.67 201.999 2292.19 201.277 Q2291.73 200.556 2290.82 200.556 Q2289.98 200.556 2289.13 200.884 Q2288.29 201.212 2287.52 201.835 Q2286.77 202.458 2286.29 203.507 Q2285.82 204.556 2285.82 205.868 L2285.82 212.885 L2288.13 212.885 L2288.13 214.459 L2283.9 214.361 L2279.67 214.459 L2279.67 212.885 L2281.98 212.885 L2281.98 202.507 Q2281.98 201.556 2281.64 201.376 Q2281.29 201.195 2279.67 201.195 L2279.67 199.621 L2285.44 199.343 L2285.44 202.982 Q2285.8 202.277 2286.29 201.687 Q2286.78 201.081 2287.49 200.539 Q2288.19 199.982 2289.18 199.67 Q2290.18 199.343 2291.33 199.343 Q2293.93 199.343 2295.21 200.474 Q2296.49 201.605 2296.49 204.179 L2296.49 212.885 L2298.82 212.885 L2298.82 214.459 Z" fill="#000000" fill-rule="nonzero" fill-opacity="1" /><polyline clip-path="url(#clip090)" style="stroke:#ac8d18; stroke-linecap:round; stroke-linejoin:round; stroke-width:6; stroke-opacity:1; fill:none" stroke-dasharray="3, 6" points="2134.28,248.629 2194.81,248.629 "/>
<path clip-path="url(#clip090)" d="M2232.25 254.563 L2223.75 254.844 L2223.75 251.12 Q2221.57 254.844 2216.84 254.844 Q2214.9 254.844 2213.45 254.587 Q2212.02 254.329 2210.75 253.697 Q2209.51 253.041 2208.85 251.776 Q2208.2 250.511 2208.2 248.661 L2208.2 237.488 Q2208.2 236.13 2207.71 235.872 Q2207.21 235.615 2204.9 235.615 L2204.9 233.366 L2213.68 232.968 L2213.68 249.34 Q2213.68 250.488 2213.75 251.073 Q2213.84 251.636 2214.19 252.198 Q2214.57 252.736 2215.37 252.947 Q2216.16 253.135 2217.52 253.135 Q2220.17 253.135 2221.81 251.354 Q2223.47 249.574 2223.47 246.647 L2223.47 237.488 Q2223.47 236.13 2222.95 235.872 Q2222.46 235.615 2220.14 235.615 L2220.14 233.366 L2228.93 232.968 L2228.93 250.441 Q2228.93 251.799 2229.42 252.057 Q2229.93 252.315 2232.25 252.315 L2232.25 254.563 Z" fill="#000000" fill-rule="nonzero" fill-opacity="1" /><path clip-path="url(#clip090)" d="M2266.98 263.888 L2262.75 263.789 L2258.52 263.888 L2258.52 262.314 L2260.84 262.314 L2260.84 253.247 Q2260.84 251.411 2260.36 250.706 Q2259.88 249.984 2258.95 249.984 Q2258.13 249.984 2257.28 250.312 Q2256.44 250.64 2255.67 251.263 Q2254.92 251.886 2254.42 252.935 Q2253.95 253.985 2253.95 255.296 L2253.95 262.314 L2256.28 262.314 L2256.28 263.888 L2252.05 263.789 L2247.8 263.888 L2247.8 262.314 L2250.13 262.314 L2250.13 253.247 Q2250.13 251.411 2249.65 250.706 Q2249.18 249.984 2248.24 249.984 Q2247.42 249.984 2246.57 250.312 Q2245.73 250.64 2244.96 251.263 Q2244.21 251.886 2243.72 252.935 Q2243.24 253.985 2243.24 255.296 L2243.24 262.314 L2245.55 262.314 L2245.55 263.888 L2241.32 263.789 L2237.09 263.888 L2237.09 262.314 L2239.41 262.314 L2239.41 251.935 Q2239.41 250.984 2239.06 250.804 Q2238.72 250.624 2237.09 250.624 L2237.09 249.05 L2242.87 248.771 L2242.87 252.411 Q2243.73 250.722 2245.21 249.755 Q2246.7 248.771 2248.78 248.771 Q2253.11 248.771 2253.82 252.001 Q2254.59 250.64 2256 249.705 Q2257.41 248.771 2259.49 248.771 Q2262.13 248.771 2263.39 249.919 Q2264.67 251.05 2264.67 253.608 L2264.67 262.314 L2266.98 262.314 L2266.98 263.888 Z" fill="#000000" fill-rule="nonzero" fill-opacity="1" /><path clip-path="url(#clip090)" d="M2287.01 263.084 Q2287.01 263.379 2286.94 263.56 Q2286.88 263.724 2286.7 263.789 Q2286.53 263.855 2286.39 263.871 Q2286.24 263.888 2285.93 263.888 L2284.32 263.888 Q2283.32 263.888 2282.62 263.707 Q2281.93 263.511 2281.58 263.281 Q2281.24 263.052 2281.06 262.642 Q2280.88 262.232 2280.84 261.986 Q2280.83 261.723 2280.83 261.297 Q2280.21 262.494 2278.94 263.297 Q2277.7 264.084 2275.83 264.084 Q2275.04 264.084 2274.25 264.002 Q2273.47 263.92 2272.55 263.675 Q2271.63 263.412 2270.94 263.019 Q2270.25 262.609 2269.79 261.904 Q2269.33 261.182 2269.33 260.264 Q2269.33 255.444 2280.25 254.985 L2280.25 253.854 Q2280.25 249.886 2276.57 249.886 Q2275.22 249.886 2274.14 250.115 Q2274.24 250.181 2274.38 250.345 Q2274.53 250.509 2274.7 250.919 Q2274.88 251.329 2274.88 251.771 Q2274.88 252.771 2274.24 253.329 Q2273.61 253.886 2272.76 253.886 Q2271.97 253.886 2271.32 253.345 Q2270.68 252.788 2270.68 251.771 Q2270.68 248.672 2276.7 248.672 Q2280.32 248.672 2282.19 250.099 Q2284.07 251.509 2284.07 253.854 L2284.07 261.068 Q2284.07 261.428 2284.11 261.592 Q2284.14 261.756 2284.32 261.953 Q2284.5 262.15 2284.93 262.232 Q2285.37 262.297 2286.12 262.314 Q2286.42 262.314 2286.57 262.346 Q2286.71 262.363 2286.86 262.543 Q2287.01 262.724 2287.01 263.084 M2280.25 259.215 L2280.25 256.034 Q2279.68 256.067 2279.14 256.133 Q2278.6 256.198 2277.71 256.362 Q2276.83 256.51 2276.11 256.821 Q2275.4 257.116 2274.71 257.559 Q2274.04 257.985 2273.65 258.674 Q2273.27 259.362 2273.27 260.231 Q2273.27 261.346 2274.16 262.117 Q2275.04 262.888 2276.32 262.888 Q2276.65 262.888 2277.06 262.822 Q2277.47 262.756 2278.06 262.527 Q2278.65 262.281 2279.11 261.904 Q2279.58 261.527 2279.91 260.838 Q2280.25 260.133 2280.25 259.215 Z" fill="#000000" fill-rule="nonzero" fill-opacity="1" /><path clip-path="url(#clip090)" d="M2306.01 263.888 L2302.32 263.789 L2298.28 263.888 L2298.28 262.314 L2299.6 262.314 L2295.91 257.952 L2292.64 261.609 L2292.41 261.937 Q2292.41 262.084 2292.79 262.199 Q2293.18 262.314 2293.64 262.314 L2293.64 263.888 L2290.18 263.789 L2287.1 263.888 L2287.1 262.314 Q2288.13 262.314 2288.61 262.297 Q2289.1 262.265 2289.66 262.117 Q2290.22 261.969 2290.5 261.674 L2294.89 256.739 L2289.66 250.558 L2287.27 250.558 L2287.27 248.984 L2290.97 249.082 L2295.02 248.984 L2295.02 250.558 L2293.68 250.558 L2296.97 254.411 L2299.79 251.263 Q2299.81 251.247 2300.07 250.853 Q2299.55 250.558 2298.79 250.558 L2298.79 248.984 L2302.25 249.082 L2305.33 248.984 L2305.33 250.558 Q2303.99 250.558 2303.28 250.656 Q2302.6 250.738 2302.38 250.853 Q2302.19 250.968 2301.91 251.263 L2297.99 255.624 L2303.63 262.314 L2306.01 262.314 L2306.01 263.888 Z" fill="#000000" fill-rule="nonzero" fill-opacity="1" /></svg>
