<?xml version="1.0" encoding="utf-8"?>
<svg xmlns="http://www.w3.org/2000/svg" xmlns:xlink="http://www.w3.org/1999/xlink" width="600" height="400" viewBox="0 0 2400 1600">
<defs>
  <clipPath id="clip870">
    <rect x="0" y="0" width="2400" height="1600"/>
  </clipPath>
</defs>
<path clip-path="url(#clip870)" d="M0 1600 L2400 1600 L2400 0 L0 0  Z" fill="#ffffff" fill-rule="evenodd" fill-opacity="1"/>
<defs>
  <clipPath id="clip871">
    <rect x="480" y="0" width="1681" height="1600"/>
  </clipPath>
</defs>
<path clip-path="url(#clip870)" d="M203.964 1423.18 L1110.81 1423.18 L1110.81 47.2441 L203.964 47.2441  Z" fill="#ffffff" fill-rule="evenodd" fill-opacity="1"/>
<defs>
  <clipPath id="clip872">
    <rect x="203" y="47" width="908" height="1377"/>
  </clipPath>
</defs>
<polyline clip-path="url(#clip872)" style="stroke:#000000; stroke-linecap:round; stroke-linejoin:round; stroke-width:2; stroke-opacity:0.1; fill:none" points="229.629,1423.18 229.629,47.2441 "/>
<polyline clip-path="url(#clip872)" style="stroke:#000000; stroke-linecap:round; stroke-linejoin:round; stroke-width:2; stroke-opacity:0.1; fill:none" points="481.252,1423.18 481.252,47.2441 "/>
<polyline clip-path="url(#clip872)" style="stroke:#000000; stroke-linecap:round; stroke-linejoin:round; stroke-width:2; stroke-opacity:0.1; fill:none" points="732.874,1423.18 732.874,47.2441 "/>
<polyline clip-path="url(#clip872)" style="stroke:#000000; stroke-linecap:round; stroke-linejoin:round; stroke-width:2; stroke-opacity:0.1; fill:none" points="984.497,1423.18 984.497,47.2441 "/>
<polyline clip-path="url(#clip872)" style="stroke:#000000; stroke-linecap:round; stroke-linejoin:round; stroke-width:2; stroke-opacity:0.1; fill:none" points="203.964,1338.73 1110.81,1338.73 "/>
<polyline clip-path="url(#clip872)" style="stroke:#000000; stroke-linecap:round; stroke-linejoin:round; stroke-width:2; stroke-opacity:0.1; fill:none" points="203.964,911.228 1110.81,911.228 "/>
<polyline clip-path="url(#clip872)" style="stroke:#000000; stroke-linecap:round; stroke-linejoin:round; stroke-width:2; stroke-opacity:0.1; fill:none" points="203.964,483.726 1110.81,483.726 "/>
<polyline clip-path="url(#clip872)" style="stroke:#000000; stroke-linecap:round; stroke-linejoin:round; stroke-width:2; stroke-opacity:0.1; fill:none" points="203.964,56.2238 1110.81,56.2238 "/>
<polyline clip-path="url(#clip870)" style="stroke:#000000; stroke-linecap:round; stroke-linejoin:round; stroke-width:4; stroke-opacity:1; fill:none" points="203.964,1423.18 1110.81,1423.18 "/>
<polyline clip-path="url(#clip870)" style="stroke:#000000; stroke-linecap:round; stroke-linejoin:round; stroke-width:4; stroke-opacity:1; fill:none" points="229.629,1423.18 229.629,1404.28 "/>
<polyline clip-path="url(#clip870)" style="stroke:#000000; stroke-linecap:round; stroke-linejoin:round; stroke-width:4; stroke-opacity:1; fill:none" points="481.252,1423.18 481.252,1404.28 "/>
<polyline clip-path="url(#clip870)" style="stroke:#000000; stroke-linecap:round; stroke-linejoin:round; stroke-width:4; stroke-opacity:1; fill:none" points="732.874,1423.18 732.874,1404.28 "/>
<polyline clip-path="url(#clip870)" style="stroke:#000000; stroke-linecap:round; stroke-linejoin:round; stroke-width:4; stroke-opacity:1; fill:none" points="984.497,1423.18 984.497,1404.28 "/>
<path clip-path="url(#clip870)" d="M229.629 1454.1 Q226.018 1454.1 224.189 1457.66 Q222.384 1461.2 222.384 1468.33 Q222.384 1475.44 224.189 1479.01 Q226.018 1482.55 229.629 1482.55 Q233.263 1482.55 235.069 1479.01 Q236.898 1475.44 236.898 1468.33 Q236.898 1461.2 235.069 1457.66 Q233.263 1454.1 229.629 1454.1 M229.629 1450.39 Q235.439 1450.39 238.495 1455 Q241.573 1459.58 241.573 1468.33 Q241.573 1477.06 238.495 1481.67 Q235.439 1486.25 229.629 1486.25 Q223.819 1486.25 220.74 1481.67 Q217.685 1477.06 217.685 1468.33 Q217.685 1459.58 220.74 1455 Q223.819 1450.39 229.629 1450.39 Z" fill="#000000" fill-rule="nonzero" fill-opacity="1" /><path clip-path="url(#clip870)" d="M471.634 1481.64 L479.273 1481.64 L479.273 1455.28 L470.962 1456.95 L470.962 1452.69 L479.226 1451.02 L483.902 1451.02 L483.902 1481.64 L491.541 1481.64 L491.541 1485.58 L471.634 1485.58 L471.634 1481.64 Z" fill="#000000" fill-rule="nonzero" fill-opacity="1" /><path clip-path="url(#clip870)" d="M727.527 1481.64 L743.847 1481.64 L743.847 1485.58 L721.902 1485.58 L721.902 1481.64 Q724.564 1478.89 729.148 1474.26 Q733.754 1469.61 734.935 1468.27 Q737.18 1465.74 738.06 1464.01 Q738.962 1462.25 738.962 1460.56 Q738.962 1457.8 737.018 1456.07 Q735.097 1454.33 731.995 1454.33 Q729.796 1454.33 727.342 1455.09 Q724.912 1455.86 722.134 1457.41 L722.134 1452.69 Q724.958 1451.55 727.411 1450.97 Q729.865 1450.39 731.902 1450.39 Q737.273 1450.39 740.467 1453.08 Q743.661 1455.77 743.661 1460.26 Q743.661 1462.39 742.851 1464.31 Q742.064 1466.2 739.958 1468.8 Q739.379 1469.47 736.277 1472.69 Q733.175 1475.88 727.527 1481.64 Z" fill="#000000" fill-rule="nonzero" fill-opacity="1" /><path clip-path="url(#clip870)" d="M988.745 1466.95 Q992.101 1467.66 993.976 1469.93 Q995.874 1472.2 995.874 1475.53 Q995.874 1480.65 992.356 1483.45 Q988.837 1486.25 982.356 1486.25 Q980.18 1486.25 977.865 1485.81 Q975.574 1485.39 973.12 1484.54 L973.12 1480.02 Q975.064 1481.16 977.379 1481.74 Q979.694 1482.32 982.217 1482.32 Q986.615 1482.32 988.907 1480.58 Q991.222 1478.84 991.222 1475.53 Q991.222 1472.48 989.069 1470.77 Q986.939 1469.03 983.12 1469.03 L979.092 1469.03 L979.092 1465.19 L983.305 1465.19 Q986.754 1465.19 988.583 1463.82 Q990.411 1462.43 990.411 1459.84 Q990.411 1457.18 988.513 1455.77 Q986.638 1454.33 983.12 1454.33 Q981.199 1454.33 978.999 1454.75 Q976.8 1455.16 974.162 1456.04 L974.162 1451.88 Q976.824 1451.14 979.138 1450.77 Q981.476 1450.39 983.536 1450.39 Q988.861 1450.39 991.962 1452.83 Q995.064 1455.23 995.064 1459.35 Q995.064 1462.22 993.421 1464.21 Q991.777 1466.18 988.745 1466.95 Z" fill="#000000" fill-rule="nonzero" fill-opacity="1" /><path clip-path="url(#clip870)" d="M527.559 1520.52 L567.758 1520.52 L567.758 1525.93 L550.889 1525.93 L550.889 1568.04 L544.428 1568.04 L544.428 1525.93 L527.559 1525.93 L527.559 1520.52 Z" fill="#000000" fill-rule="nonzero" fill-opacity="1" /><path clip-path="url(#clip870)" d="M571.705 1532.4 L577.562 1532.4 L577.562 1568.04 L571.705 1568.04 L571.705 1532.4 M571.705 1518.52 L577.562 1518.52 L577.562 1525.93 L571.705 1525.93 L571.705 1518.52 Z" fill="#000000" fill-rule="nonzero" fill-opacity="1" /><path clip-path="url(#clip870)" d="M617.57 1539.24 Q619.766 1535.29 622.822 1533.41 Q625.877 1531.54 630.015 1531.54 Q635.585 1531.54 638.609 1535.45 Q641.633 1539.33 641.633 1546.53 L641.633 1568.04 L635.744 1568.04 L635.744 1546.72 Q635.744 1541.59 633.93 1539.11 Q632.116 1536.63 628.392 1536.63 Q623.84 1536.63 621.199 1539.65 Q618.557 1542.68 618.557 1547.9 L618.557 1568.04 L612.669 1568.04 L612.669 1546.72 Q612.669 1541.56 610.854 1539.11 Q609.04 1536.63 605.252 1536.63 Q600.765 1536.63 598.123 1539.68 Q595.481 1542.71 595.481 1547.9 L595.481 1568.04 L589.593 1568.04 L589.593 1532.4 L595.481 1532.4 L595.481 1537.93 Q597.486 1534.66 600.287 1533.1 Q603.088 1531.54 606.939 1531.54 Q610.822 1531.54 613.528 1533.51 Q616.265 1535.48 617.57 1539.24 Z" fill="#000000" fill-rule="nonzero" fill-opacity="1" /><path clip-path="url(#clip870)" d="M683.805 1548.76 L683.805 1551.62 L656.878 1551.62 Q657.26 1557.67 660.507 1560.85 Q663.785 1564 669.61 1564 Q672.984 1564 676.135 1563.17 Q679.317 1562.35 682.437 1560.69 L682.437 1566.23 Q679.286 1567.57 675.975 1568.27 Q672.665 1568.97 669.26 1568.97 Q660.73 1568.97 655.733 1564 Q650.767 1559.04 650.767 1550.57 Q650.767 1541.82 655.478 1536.69 Q660.22 1531.54 668.241 1531.54 Q675.434 1531.54 679.604 1536.18 Q683.805 1540.8 683.805 1548.76 M677.949 1547.04 Q677.885 1542.23 675.243 1539.37 Q672.633 1536.5 668.305 1536.5 Q663.403 1536.5 660.443 1539.27 Q657.515 1542.04 657.069 1547.07 L677.949 1547.04 Z" fill="#000000" fill-rule="nonzero" fill-opacity="1" /><path clip-path="url(#clip870)" d="M728.206 1518.58 Q723.941 1525.9 721.872 1533.06 Q719.803 1540.23 719.803 1547.58 Q719.803 1554.93 721.872 1562.16 Q723.973 1569.35 728.206 1576.64 L723.114 1576.64 Q718.339 1569.16 715.952 1561.93 Q713.597 1554.71 713.597 1547.58 Q713.597 1540.48 715.952 1533.29 Q718.307 1526.09 723.114 1518.58 L728.206 1518.58 Z" fill="#000000" fill-rule="nonzero" fill-opacity="1" /><path clip-path="url(#clip870)" d="M762.294 1533.45 L762.294 1538.98 Q759.812 1537.71 757.138 1537.07 Q754.465 1536.44 751.6 1536.44 Q747.24 1536.44 745.043 1537.77 Q742.879 1539.11 742.879 1541.79 Q742.879 1543.82 744.439 1545 Q745.998 1546.15 750.709 1547.2 L752.714 1547.64 Q758.952 1548.98 761.562 1551.43 Q764.204 1553.85 764.204 1558.21 Q764.204 1563.17 760.257 1566.07 Q756.343 1568.97 749.468 1568.97 Q746.603 1568.97 743.484 1568.39 Q740.396 1567.85 736.959 1566.74 L736.959 1560.69 Q740.205 1562.38 743.356 1563.24 Q746.508 1564.07 749.595 1564.07 Q753.733 1564.07 755.961 1562.66 Q758.189 1561.23 758.189 1558.65 Q758.189 1556.27 756.565 1554.99 Q754.974 1553.72 749.531 1552.54 L747.494 1552.07 Q742.052 1550.92 739.633 1548.56 Q737.214 1546.18 737.214 1542.04 Q737.214 1537.01 740.778 1534.27 Q744.343 1531.54 750.9 1531.54 Q754.146 1531.54 757.011 1532.01 Q759.876 1532.49 762.294 1533.45 Z" fill="#000000" fill-rule="nonzero" fill-opacity="1" /><path clip-path="url(#clip870)" d="M772.607 1518.58 L777.699 1518.58 Q782.474 1526.09 784.829 1533.29 Q787.216 1540.48 787.216 1547.58 Q787.216 1554.71 784.829 1561.93 Q782.474 1569.16 777.699 1576.64 L772.607 1576.64 Q776.84 1569.35 778.909 1562.16 Q781.01 1554.93 781.01 1547.58 Q781.01 1540.23 778.909 1533.06 Q776.84 1525.9 772.607 1518.58 Z" fill="#000000" fill-rule="nonzero" fill-opacity="1" /><polyline clip-path="url(#clip870)" style="stroke:#000000; stroke-linecap:round; stroke-linejoin:round; stroke-width:4; stroke-opacity:1; fill:none" points="203.964,1423.18 203.964,47.2441 "/>
<polyline clip-path="url(#clip870)" style="stroke:#000000; stroke-linecap:round; stroke-linejoin:round; stroke-width:4; stroke-opacity:1; fill:none" points="203.964,1338.73 222.861,1338.73 "/>
<polyline clip-path="url(#clip870)" style="stroke:#000000; stroke-linecap:round; stroke-linejoin:round; stroke-width:4; stroke-opacity:1; fill:none" points="203.964,911.228 222.861,911.228 "/>
<polyline clip-path="url(#clip870)" style="stroke:#000000; stroke-linecap:round; stroke-linejoin:round; stroke-width:4; stroke-opacity:1; fill:none" points="203.964,483.726 222.861,483.726 "/>
<polyline clip-path="url(#clip870)" style="stroke:#000000; stroke-linecap:round; stroke-linejoin:round; stroke-width:4; stroke-opacity:1; fill:none" points="203.964,56.2238 222.861,56.2238 "/>
<path clip-path="url(#clip870)" d="M156.019 1324.53 Q152.408 1324.53 150.579 1328.09 Q148.774 1331.64 148.774 1338.76 Q148.774 1345.87 150.579 1349.44 Q152.408 1352.98 156.019 1352.98 Q159.653 1352.98 161.459 1349.44 Q163.288 1345.87 163.288 1338.76 Q163.288 1331.64 161.459 1328.09 Q159.653 1324.53 156.019 1324.53 M156.019 1320.83 Q161.829 1320.83 164.885 1325.43 Q167.964 1330.01 167.964 1338.76 Q167.964 1347.49 164.885 1352.1 Q161.829 1356.68 156.019 1356.68 Q150.209 1356.68 147.13 1352.1 Q144.075 1347.49 144.075 1338.76 Q144.075 1330.01 147.13 1325.43 Q150.209 1320.83 156.019 1320.83 Z" fill="#000000" fill-rule="nonzero" fill-opacity="1" /><path clip-path="url(#clip870)" d="M116.668 924.573 L124.306 924.573 L124.306 898.207 L115.996 899.874 L115.996 895.615 L124.26 893.948 L128.936 893.948 L128.936 924.573 L136.575 924.573 L136.575 928.508 L116.668 928.508 L116.668 924.573 Z" fill="#000000" fill-rule="nonzero" fill-opacity="1" /><path clip-path="url(#clip870)" d="M156.019 897.027 Q152.408 897.027 150.579 900.591 Q148.774 904.133 148.774 911.263 Q148.774 918.369 150.579 921.934 Q152.408 925.476 156.019 925.476 Q159.653 925.476 161.459 921.934 Q163.288 918.369 163.288 911.263 Q163.288 904.133 161.459 900.591 Q159.653 897.027 156.019 897.027 M156.019 893.323 Q161.829 893.323 164.885 897.929 Q167.964 902.513 167.964 911.263 Q167.964 919.989 164.885 924.596 Q161.829 929.179 156.019 929.179 Q150.209 929.179 147.13 924.596 Q144.075 919.989 144.075 911.263 Q144.075 902.513 147.13 897.929 Q150.209 893.323 156.019 893.323 Z" fill="#000000" fill-rule="nonzero" fill-opacity="1" /><path clip-path="url(#clip870)" d="M119.885 497.071 L136.204 497.071 L136.204 501.006 L114.26 501.006 L114.26 497.071 Q116.922 494.316 121.505 489.686 Q126.112 485.034 127.292 483.691 Q129.538 481.168 130.417 479.432 Q131.32 477.673 131.32 475.983 Q131.32 473.228 129.376 471.492 Q127.455 469.756 124.353 469.756 Q122.154 469.756 119.7 470.52 Q117.269 471.284 114.492 472.835 L114.492 468.113 Q117.316 466.978 119.769 466.4 Q122.223 465.821 124.26 465.821 Q129.63 465.821 132.825 468.506 Q136.019 471.191 136.019 475.682 Q136.019 477.812 135.209 479.733 Q134.422 481.631 132.316 484.224 Q131.737 484.895 128.635 488.112 Q125.533 491.307 119.885 497.071 Z" fill="#000000" fill-rule="nonzero" fill-opacity="1" /><path clip-path="url(#clip870)" d="M156.019 469.525 Q152.408 469.525 150.579 473.089 Q148.774 476.631 148.774 483.761 Q148.774 490.867 150.579 494.432 Q152.408 497.973 156.019 497.973 Q159.653 497.973 161.459 494.432 Q163.288 490.867 163.288 483.761 Q163.288 476.631 161.459 473.089 Q159.653 469.525 156.019 469.525 M156.019 465.821 Q161.829 465.821 164.885 470.427 Q167.964 475.011 167.964 483.761 Q167.964 492.487 164.885 497.094 Q161.829 501.677 156.019 501.677 Q150.209 501.677 147.13 497.094 Q144.075 492.487 144.075 483.761 Q144.075 475.011 147.13 470.427 Q150.209 465.821 156.019 465.821 Z" fill="#000000" fill-rule="nonzero" fill-opacity="1" /><path clip-path="url(#clip870)" d="M130.024 54.8696 Q133.38 55.5872 135.255 57.8557 Q137.154 60.1242 137.154 63.4576 Q137.154 68.5733 133.635 71.3742 Q130.117 74.1751 123.635 74.1751 Q121.459 74.1751 119.144 73.7353 Q116.853 73.3186 114.399 72.4621 L114.399 67.9483 Q116.343 69.0825 118.658 69.6612 Q120.973 70.2399 123.496 70.2399 Q127.894 70.2399 130.186 68.5038 Q132.501 66.7677 132.501 63.4576 Q132.501 60.402 130.348 58.6891 Q128.218 56.953 124.399 56.953 L120.371 56.953 L120.371 53.1104 L124.584 53.1104 Q128.033 53.1104 129.862 51.7447 Q131.691 50.3558 131.691 47.7632 Q131.691 45.1012 129.792 43.6891 Q127.917 42.254 124.399 42.254 Q122.478 42.254 120.279 42.6706 Q118.08 43.0873 115.441 43.9669 L115.441 39.8003 Q118.103 39.0595 120.418 38.6892 Q122.755 38.3188 124.816 38.3188 Q130.14 38.3188 133.242 40.7493 Q136.343 43.1567 136.343 47.2771 Q136.343 50.1474 134.7 52.1382 Q133.056 54.1057 130.024 54.8696 Z" fill="#000000" fill-rule="nonzero" fill-opacity="1" /><path clip-path="url(#clip870)" d="M156.019 42.0225 Q152.408 42.0225 150.579 45.5873 Q148.774 49.1289 148.774 56.2585 Q148.774 63.365 150.579 66.9298 Q152.408 70.4714 156.019 70.4714 Q159.653 70.4714 161.459 66.9298 Q163.288 63.365 163.288 56.2585 Q163.288 49.1289 161.459 45.5873 Q159.653 42.0225 156.019 42.0225 M156.019 38.3188 Q161.829 38.3188 164.885 42.9253 Q167.964 47.5086 167.964 56.2585 Q167.964 64.9853 164.885 69.5918 Q161.829 74.1751 156.019 74.1751 Q150.209 74.1751 147.13 69.5918 Q144.075 64.9853 144.075 56.2585 Q144.075 47.5086 147.13 42.9253 Q150.209 38.3188 156.019 38.3188 Z" fill="#000000" fill-rule="nonzero" fill-opacity="1" /><path clip-path="url(#clip870)" d="M39.4334 772.564 Q44.844 772.564 50.9309 774.303 Q56.9856 776.01 61.8809 778.715 Q66.744 781.42 69.9646 784.963 Q73.153 788.505 73.153 791.887 Q73.153 794.045 71.9613 795.655 Q70.7375 797.233 68.7085 798.103 Q66.6474 798.972 64.393 799.391 Q62.1063 799.81 59.6265 799.81 Q55.9228 799.81 51.8971 799.005 Q47.8391 798.199 44.1677 796.847 Q40.464 795.494 37.1146 793.594 Q33.733 791.694 31.2853 789.6 Q28.8055 787.475 27.3562 785.092 Q25.907 782.708 25.907 780.486 Q25.907 778.876 26.6155 777.588 Q27.2918 776.267 28.4834 775.43 Q29.6428 774.593 31.0277 774.013 Q32.4125 773.401 34.0228 773.111 Q35.6009 772.821 36.9214 772.692 Q38.2096 772.564 39.4334 772.564 M35.3433 776.911 Q33.7008 776.911 32.477 777.04 Q31.2209 777.169 29.9649 777.523 Q28.7089 777.878 28.0325 778.65 Q27.3562 779.391 27.3562 780.551 Q27.3562 783.932 34.2805 787.733 Q36.4383 788.956 39.369 790.051 Q42.2997 791.146 43.6846 791.533 Q45.0694 791.919 48.4833 792.821 L48.4833 779.037 Q39.6911 776.911 35.3433 776.911 M50.5766 779.617 L50.5766 793.336 Q58.6281 795.462 63.6522 795.462 Q68.0322 795.462 69.868 794.56 Q71.6715 793.626 71.6715 791.887 Q71.6715 789.89 69.6747 788.022 Q67.6458 786.154 63.9743 784.254 Q59.2078 781.742 50.5766 779.617 Z" fill="#000000" fill-rule="nonzero" fill-opacity="1" /><path clip-path="url(#clip870)" d="M22.9507 728.256 Q30.2712 732.521 37.4327 734.59 Q44.5941 736.658 51.9465 736.658 Q59.2989 736.658 66.5239 734.59 Q73.7172 732.489 81.0059 728.256 L81.0059 733.348 Q73.5262 738.123 66.3011 740.51 Q59.0761 742.865 51.9465 742.865 Q44.8487 742.865 37.6555 740.51 Q30.4622 738.154 22.9507 733.348 L22.9507 728.256 Z" fill="#000000" fill-rule="nonzero" fill-opacity="1" /><path clip-path="url(#clip870)" d="M28.1387 706.74 Q28.1387 709.286 29.9211 711.036 Q31.6717 712.787 34.218 712.787 Q36.7324 712.787 38.483 711.036 Q40.2017 709.286 40.2017 706.74 Q40.2017 704.193 38.483 702.443 Q36.7324 700.692 34.218 700.692 Q31.7035 700.692 29.9211 702.475 Q28.1387 704.225 28.1387 706.74 M24.0328 706.74 Q24.0328 704.703 24.8286 702.825 Q25.5924 700.947 27.0566 699.578 Q28.4888 698.114 30.3031 697.382 Q32.1173 696.65 34.218 696.65 Q38.4193 696.65 41.3476 699.61 Q44.244 702.538 44.244 706.803 Q44.244 711.1 41.3794 713.965 Q38.5148 716.829 34.218 716.829 Q29.953 716.829 26.9929 713.901 Q24.0328 710.973 24.0328 706.74 Z" fill="#000000" fill-rule="nonzero" fill-opacity="1" /><path clip-path="url(#clip870)" d="M22.9507 685.224 L22.9507 680.131 Q30.4622 675.357 37.6555 673.001 Q44.8487 670.614 51.9465 670.614 Q59.0761 670.614 66.3011 673.001 Q73.5262 675.357 81.0059 680.131 L81.0059 685.224 Q73.7172 680.99 66.5239 678.921 Q59.2989 676.821 51.9465 676.821 Q44.5941 676.821 37.4327 678.921 Q30.2712 680.99 22.9507 685.224 Z" fill="#000000" fill-rule="nonzero" fill-opacity="1" /><polyline clip-path="url(#clip872)" style="stroke:#009af9; stroke-linecap:round; stroke-linejoin:round; stroke-width:4; stroke-opacity:1; fill:none" points="229.629,1384.24 254.791,1237.52 279.954,956.459 305.116,739.379 330.278,471.216 355.44,249.564 380.603,153.638 405.765,115.353 430.927,112.042 456.089,98.6063 481.252,86.1857 506.414,170.53 531.576,214.706 556.739,238.675 581.901,280.153 607.063,255.33 632.225,261.686 657.388,303.7 682.55,224.283 707.712,275.855 732.874,236.861 758.037,295.382 783.199,273.098 808.361,255.61 833.524,245.455 858.686,291.406 883.848,286.501 909.01,282.585 934.173,302.964 959.335,260.863 984.497,268.059 1009.66,213.809 1034.82,262.374 1059.98,261.425 1085.15,298.463 "/>
<polyline clip-path="url(#clip872)" style="stroke:#e26f46; stroke-linecap:round; stroke-linejoin:round; stroke-width:3; stroke-opacity:1; fill:none" stroke-dasharray="12, 6, 2, 6" points="229.629,1382.89 254.791,1244.66 279.954,956.798 305.116,724.543 330.278,471.135 355.44,254.355 380.603,149.201 405.765,113.61 430.927,115.109 456.089,110.285 481.252,100.07 506.414,165.235 531.576,216.085 556.739,243.448 581.901,278.72 607.063,263.791 632.225,262.015 657.388,294.941 682.55,239.041 707.712,265.317 732.874,242.675 758.037,283.847 783.199,276.968 808.361,259.518 833.524,246.837 858.686,281.57 883.848,287.081 909.01,283.878 934.173,298.707 959.335,268.377 984.497,266.061 1009.66,223.195 1034.82,252.491 1059.98,261.285 1085.15,292.577 "/>
<path clip-path="url(#clip870)" d="M961.069 1377.32 L1080.58 1377.32 L1080.58 1221.8 L961.069 1221.8  Z" fill="#ffffff" fill-rule="evenodd" fill-opacity="1"/>
<polyline clip-path="url(#clip870)" style="stroke:#000000; stroke-linecap:round; stroke-linejoin:round; stroke-width:4; stroke-opacity:1; fill:none" points="961.069,1377.32 1080.58,1377.32 1080.58,1221.8 961.069,1221.8 961.069,1377.32 "/>
<polyline clip-path="url(#clip870)" style="stroke:#009af9; stroke-linecap:round; stroke-linejoin:round; stroke-width:4; stroke-opacity:1; fill:none" points="971.145,1273.64 1031.6,1273.64 "/>
<path clip-path="url(#clip870)" d="M1068.45 1260.37 Q1066.97 1260.37 1066.22 1260.51 Q1065.48 1260.63 1065.29 1260.8 Q1065.1 1260.96 1064.89 1261.38 L1054.58 1283.3 Q1053.48 1285.65 1051.42 1287.33 Q1049.38 1289.02 1046.81 1289.02 Q1044.65 1289.02 1043.15 1287.71 Q1041.68 1286.42 1041.68 1284.59 Q1041.68 1283.28 1042.5 1282.53 Q1043.32 1281.81 1044.42 1281.81 Q1045.64 1281.81 1046.41 1282.58 Q1047.21 1283.35 1047.21 1284.55 Q1047.21 1285.32 1046.88 1285.9 Q1046.55 1286.51 1046.25 1286.72 Q1045.96 1286.96 1045.66 1287.1 Q1046.15 1287.29 1046.81 1287.29 Q1047.79 1287.29 1048.63 1286.89 Q1049.5 1286.51 1050.06 1286 Q1050.65 1285.51 1051.23 1284.62 Q1051.82 1283.75 1052.1 1283.19 Q1052.38 1282.65 1052.8 1281.71 L1053.9 1279.42 L1044.93 1260.37 L1041.87 1260.37 L1041.87 1258.13 L1047.35 1258.27 L1053.3 1258.13 L1053.3 1260.37 L1050.7 1260.37 L1056.79 1273.33 L1062.31 1261.52 L1062.55 1260.96 Q1062.55 1260.7 1061.99 1260.56 Q1061.42 1260.4 1060.86 1260.4 L1060.3 1260.37 L1060.3 1258.13 L1064.66 1258.27 Q1066.72 1258.27 1068.45 1258.13 L1068.45 1260.37 Z" fill="#000000" fill-rule="nonzero" fill-opacity="1" /><polyline clip-path="url(#clip870)" style="stroke:#e26f46; stroke-linecap:round; stroke-linejoin:round; stroke-width:3; stroke-opacity:1; fill:none" stroke-dasharray="12, 6, 2, 6" points="971.145,1325.48 1031.6,1325.48 "/>
<path clip-path="url(#clip870)" d="M1064.26 1309.2 L1063.85 1309.87 Q1061.31 1308.77 1058.15 1307.01 Q1054.98 1308.77 1052.44 1309.87 L1052.05 1309.2 Q1054.82 1306.79 1058.15 1304.93 Q1061.51 1306.8 1064.26 1309.2 Z" fill="#000000" fill-rule="nonzero" fill-opacity="1" /><path clip-path="url(#clip870)" d="M1068.45 1317.22 Q1066.97 1317.22 1066.22 1317.36 Q1065.48 1317.48 1065.29 1317.64 Q1065.1 1317.8 1064.89 1318.23 L1054.58 1340.15 Q1053.48 1342.49 1051.42 1344.18 Q1049.38 1345.86 1046.81 1345.86 Q1044.65 1345.86 1043.15 1344.55 Q1041.68 1343.26 1041.68 1341.44 Q1041.68 1340.13 1042.5 1339.38 Q1043.32 1338.65 1044.42 1338.65 Q1045.64 1338.65 1046.41 1339.42 Q1047.21 1340.2 1047.21 1341.39 Q1047.21 1342.16 1046.88 1342.75 Q1046.55 1343.36 1046.25 1343.57 Q1045.96 1343.8 1045.66 1343.94 Q1046.15 1344.13 1046.81 1344.13 Q1047.79 1344.13 1048.63 1343.73 Q1049.5 1343.36 1050.06 1342.84 Q1050.65 1342.35 1051.23 1341.46 Q1051.82 1340.59 1052.1 1340.03 Q1052.38 1339.49 1052.8 1338.56 L1053.9 1336.26 L1044.93 1317.22 L1041.87 1317.22 L1041.87 1314.97 L1047.35 1315.11 L1053.3 1314.97 L1053.3 1317.22 L1050.7 1317.22 L1056.79 1330.17 L1062.31 1318.37 L1062.55 1317.8 Q1062.55 1317.55 1061.99 1317.41 Q1061.42 1317.24 1060.86 1317.24 L1060.3 1317.22 L1060.3 1314.97 L1064.66 1315.11 Q1066.72 1315.11 1068.45 1314.97 L1068.45 1317.22 Z" fill="#000000" fill-rule="nonzero" fill-opacity="1" /><path clip-path="url(#clip870)" d="M1445.91 398.692 L2352.76 398.692 L2352.76 47.2441 L1445.91 47.2441  Z" fill="#ffffff" fill-rule="evenodd" fill-opacity="1"/>
<defs>
  <clipPath id="clip873">
    <rect x="1445" y="47" width="908" height="352"/>
  </clipPath>
</defs>
<polyline clip-path="url(#clip873)" style="stroke:#000000; stroke-linecap:round; stroke-linejoin:round; stroke-width:2; stroke-opacity:0.1; fill:none" points="1471.57,398.692 1471.57,47.2441 "/>
<polyline clip-path="url(#clip873)" style="stroke:#000000; stroke-linecap:round; stroke-linejoin:round; stroke-width:2; stroke-opacity:0.1; fill:none" points="1723.2,398.692 1723.2,47.2441 "/>
<polyline clip-path="url(#clip873)" style="stroke:#000000; stroke-linecap:round; stroke-linejoin:round; stroke-width:2; stroke-opacity:0.1; fill:none" points="1974.82,398.692 1974.82,47.2441 "/>
<polyline clip-path="url(#clip873)" style="stroke:#000000; stroke-linecap:round; stroke-linejoin:round; stroke-width:2; stroke-opacity:0.1; fill:none" points="2226.44,398.692 2226.44,47.2441 "/>
<polyline clip-path="url(#clip873)" style="stroke:#000000; stroke-linecap:round; stroke-linejoin:round; stroke-width:2; stroke-opacity:0.1; fill:none" points="1445.91,377.331 2352.76,377.331 "/>
<polyline clip-path="url(#clip873)" style="stroke:#000000; stroke-linecap:round; stroke-linejoin:round; stroke-width:2; stroke-opacity:0.1; fill:none" points="1445.91,314.024 2352.76,314.024 "/>
<polyline clip-path="url(#clip873)" style="stroke:#000000; stroke-linecap:round; stroke-linejoin:round; stroke-width:2; stroke-opacity:0.1; fill:none" points="1445.91,250.718 2352.76,250.718 "/>
<polyline clip-path="url(#clip873)" style="stroke:#000000; stroke-linecap:round; stroke-linejoin:round; stroke-width:2; stroke-opacity:0.1; fill:none" points="1445.91,187.411 2352.76,187.411 "/>
<polyline clip-path="url(#clip873)" style="stroke:#000000; stroke-linecap:round; stroke-linejoin:round; stroke-width:2; stroke-opacity:0.1; fill:none" points="1445.91,124.105 2352.76,124.105 "/>
<polyline clip-path="url(#clip873)" style="stroke:#000000; stroke-linecap:round; stroke-linejoin:round; stroke-width:2; stroke-opacity:0.1; fill:none" points="1445.91,60.798 2352.76,60.798 "/>
<polyline clip-path="url(#clip870)" style="stroke:#000000; stroke-linecap:round; stroke-linejoin:round; stroke-width:4; stroke-opacity:1; fill:none" points="1445.91,398.692 2352.76,398.692 "/>
<polyline clip-path="url(#clip870)" style="stroke:#000000; stroke-linecap:round; stroke-linejoin:round; stroke-width:4; stroke-opacity:1; fill:none" points="1471.57,398.692 1471.57,379.794 "/>
<polyline clip-path="url(#clip870)" style="stroke:#000000; stroke-linecap:round; stroke-linejoin:round; stroke-width:4; stroke-opacity:1; fill:none" points="1723.2,398.692 1723.2,379.794 "/>
<polyline clip-path="url(#clip870)" style="stroke:#000000; stroke-linecap:round; stroke-linejoin:round; stroke-width:4; stroke-opacity:1; fill:none" points="1974.82,398.692 1974.82,379.794 "/>
<polyline clip-path="url(#clip870)" style="stroke:#000000; stroke-linecap:round; stroke-linejoin:round; stroke-width:4; stroke-opacity:1; fill:none" points="2226.44,398.692 2226.44,379.794 "/>
<path clip-path="url(#clip870)" d="M1471.57 429.611 Q1467.96 429.611 1466.13 433.175 Q1464.33 436.717 1464.33 443.847 Q1464.33 450.953 1466.13 454.518 Q1467.96 458.059 1471.57 458.059 Q1475.21 458.059 1477.01 454.518 Q1478.84 450.953 1478.84 443.847 Q1478.84 436.717 1477.01 433.175 Q1475.21 429.611 1471.57 429.611 M1471.57 425.907 Q1477.38 425.907 1480.44 430.513 Q1483.52 435.097 1483.52 443.847 Q1483.52 452.573 1480.44 457.18 Q1477.38 461.763 1471.57 461.763 Q1465.76 461.763 1462.68 457.18 Q1459.63 452.573 1459.63 443.847 Q1459.63 435.097 1462.68 430.513 Q1465.76 425.907 1471.57 425.907 Z" fill="#000000" fill-rule="nonzero" fill-opacity="1" /><path clip-path="url(#clip870)" d="M1713.58 457.157 L1721.22 457.157 L1721.22 430.791 L1712.91 432.458 L1712.91 428.199 L1721.17 426.532 L1725.85 426.532 L1725.85 457.157 L1733.49 457.157 L1733.49 461.092 L1713.58 461.092 L1713.58 457.157 Z" fill="#000000" fill-rule="nonzero" fill-opacity="1" /><path clip-path="url(#clip870)" d="M1969.47 457.157 L1985.79 457.157 L1985.79 461.092 L1963.85 461.092 L1963.85 457.157 Q1966.51 454.402 1971.09 449.772 Q1975.7 445.12 1976.88 443.777 Q1979.12 441.254 1980 439.518 Q1980.91 437.759 1980.91 436.069 Q1980.91 433.314 1978.96 431.578 Q1977.04 429.842 1973.94 429.842 Q1971.74 429.842 1969.29 430.606 Q1966.86 431.37 1964.08 432.921 L1964.08 428.199 Q1966.9 427.064 1969.36 426.486 Q1971.81 425.907 1973.85 425.907 Q1979.22 425.907 1982.41 428.592 Q1985.61 431.277 1985.61 435.768 Q1985.61 437.898 1984.8 439.819 Q1984.01 441.717 1981.9 444.31 Q1981.32 444.981 1978.22 448.198 Q1975.12 451.393 1969.47 457.157 Z" fill="#000000" fill-rule="nonzero" fill-opacity="1" /><path clip-path="url(#clip870)" d="M2230.69 442.458 Q2234.05 443.175 2235.92 445.444 Q2237.82 447.712 2237.82 451.046 Q2237.82 456.161 2234.3 458.962 Q2230.78 461.763 2224.3 461.763 Q2222.12 461.763 2219.81 461.323 Q2217.52 460.907 2215.06 460.05 L2215.06 455.536 Q2217.01 456.671 2219.32 457.249 Q2221.64 457.828 2224.16 457.828 Q2228.56 457.828 2230.85 456.092 Q2233.17 454.356 2233.17 451.046 Q2233.17 447.99 2231.01 446.277 Q2228.88 444.541 2225.06 444.541 L2221.04 444.541 L2221.04 440.698 L2225.25 440.698 Q2228.7 440.698 2230.53 439.333 Q2232.36 437.944 2232.36 435.351 Q2232.36 432.689 2230.46 431.277 Q2228.58 429.842 2225.06 429.842 Q2223.14 429.842 2220.94 430.259 Q2218.74 430.675 2216.11 431.555 L2216.11 427.388 Q2218.77 426.648 2221.08 426.277 Q2223.42 425.907 2225.48 425.907 Q2230.8 425.907 2233.91 428.337 Q2237.01 430.745 2237.01 434.865 Q2237.01 437.736 2235.36 439.726 Q2233.72 441.694 2230.69 442.458 Z" fill="#000000" fill-rule="nonzero" fill-opacity="1" /><polyline clip-path="url(#clip870)" style="stroke:#000000; stroke-linecap:round; stroke-linejoin:round; stroke-width:4; stroke-opacity:1; fill:none" points="1445.91,398.692 1445.91,47.2441 "/>
<polyline clip-path="url(#clip870)" style="stroke:#000000; stroke-linecap:round; stroke-linejoin:round; stroke-width:4; stroke-opacity:1; fill:none" points="1445.91,377.331 1464.81,377.331 "/>
<polyline clip-path="url(#clip870)" style="stroke:#000000; stroke-linecap:round; stroke-linejoin:round; stroke-width:4; stroke-opacity:1; fill:none" points="1445.91,314.024 1464.81,314.024 "/>
<polyline clip-path="url(#clip870)" style="stroke:#000000; stroke-linecap:round; stroke-linejoin:round; stroke-width:4; stroke-opacity:1; fill:none" points="1445.91,250.718 1464.81,250.718 "/>
<polyline clip-path="url(#clip870)" style="stroke:#000000; stroke-linecap:round; stroke-linejoin:round; stroke-width:4; stroke-opacity:1; fill:none" points="1445.91,187.411 1464.81,187.411 "/>
<polyline clip-path="url(#clip870)" style="stroke:#000000; stroke-linecap:round; stroke-linejoin:round; stroke-width:4; stroke-opacity:1; fill:none" points="1445.91,124.105 1464.81,124.105 "/>
<polyline clip-path="url(#clip870)" style="stroke:#000000; stroke-linecap:round; stroke-linejoin:round; stroke-width:4; stroke-opacity:1; fill:none" points="1445.91,60.798 1464.81,60.798 "/>
<path clip-path="url(#clip870)" d="M1352.73 363.13 Q1349.12 363.13 1347.29 366.694 Q1345.49 370.236 1345.49 377.366 Q1345.49 384.472 1347.29 388.037 Q1349.12 391.579 1352.73 391.579 Q1356.37 391.579 1358.17 388.037 Q1360 384.472 1360 377.366 Q1360 370.236 1358.17 366.694 Q1356.37 363.13 1352.73 363.13 M1352.73 359.426 Q1358.54 359.426 1361.6 364.032 Q1364.68 368.616 1364.68 377.366 Q1364.68 386.093 1361.6 390.699 Q1358.54 395.282 1352.73 395.282 Q1346.92 395.282 1343.84 390.699 Q1340.79 386.093 1340.79 377.366 Q1340.79 368.616 1343.84 364.032 Q1346.92 359.426 1352.73 359.426 Z" fill="#000000" fill-rule="nonzero" fill-opacity="1" /><path clip-path="url(#clip870)" d="M1372.89 388.731 L1377.78 388.731 L1377.78 394.611 L1372.89 394.611 L1372.89 388.731 Z" fill="#000000" fill-rule="nonzero" fill-opacity="1" /><path clip-path="url(#clip870)" d="M1397.96 363.13 Q1394.35 363.13 1392.52 366.694 Q1390.72 370.236 1390.72 377.366 Q1390.72 384.472 1392.52 388.037 Q1394.35 391.579 1397.96 391.579 Q1401.6 391.579 1403.4 388.037 Q1405.23 384.472 1405.23 377.366 Q1405.23 370.236 1403.4 366.694 Q1401.6 363.13 1397.96 363.13 M1397.96 359.426 Q1403.77 359.426 1406.83 364.032 Q1409.91 368.616 1409.91 377.366 Q1409.91 386.093 1406.83 390.699 Q1403.77 395.282 1397.96 395.282 Q1392.15 395.282 1389.07 390.699 Q1386.02 386.093 1386.02 377.366 Q1386.02 368.616 1389.07 364.032 Q1392.15 359.426 1397.96 359.426 Z" fill="#000000" fill-rule="nonzero" fill-opacity="1" /><path clip-path="url(#clip870)" d="M1353.96 299.823 Q1350.35 299.823 1348.52 303.388 Q1346.71 306.93 1346.71 314.059 Q1346.71 321.166 1348.52 324.73 Q1350.35 328.272 1353.96 328.272 Q1357.59 328.272 1359.4 324.73 Q1361.23 321.166 1361.23 314.059 Q1361.23 306.93 1359.4 303.388 Q1357.59 299.823 1353.96 299.823 M1353.96 296.119 Q1359.77 296.119 1362.82 300.726 Q1365.9 305.309 1365.9 314.059 Q1365.9 322.786 1362.82 327.392 Q1359.77 331.976 1353.96 331.976 Q1348.15 331.976 1345.07 327.392 Q1342.01 322.786 1342.01 314.059 Q1342.01 305.309 1345.07 300.726 Q1348.15 296.119 1353.96 296.119 Z" fill="#000000" fill-rule="nonzero" fill-opacity="1" /><path clip-path="url(#clip870)" d="M1374.12 325.425 L1379.01 325.425 L1379.01 331.304 L1374.12 331.304 L1374.12 325.425 Z" fill="#000000" fill-rule="nonzero" fill-opacity="1" /><path clip-path="url(#clip870)" d="M1390 327.369 L1397.64 327.369 L1397.64 301.004 L1389.33 302.67 L1389.33 298.411 L1397.59 296.744 L1402.27 296.744 L1402.27 327.369 L1409.91 327.369 L1409.91 331.304 L1390 331.304 L1390 327.369 Z" fill="#000000" fill-rule="nonzero" fill-opacity="1" /><path clip-path="url(#clip870)" d="M1354.33 236.516 Q1350.72 236.516 1348.89 240.081 Q1347.08 243.623 1347.08 250.753 Q1347.08 257.859 1348.89 261.424 Q1350.72 264.965 1354.33 264.965 Q1357.96 264.965 1359.77 261.424 Q1361.6 257.859 1361.6 250.753 Q1361.6 243.623 1359.77 240.081 Q1357.96 236.516 1354.33 236.516 M1354.33 232.813 Q1360.14 232.813 1363.2 237.419 Q1366.27 242.003 1366.27 250.753 Q1366.27 259.479 1363.2 264.086 Q1360.14 268.669 1354.33 268.669 Q1348.52 268.669 1345.44 264.086 Q1342.39 259.479 1342.39 250.753 Q1342.39 242.003 1345.44 237.419 Q1348.52 232.813 1354.33 232.813 Z" fill="#000000" fill-rule="nonzero" fill-opacity="1" /><path clip-path="url(#clip870)" d="M1374.49 262.118 L1379.38 262.118 L1379.38 267.998 L1374.49 267.998 L1374.49 262.118 Z" fill="#000000" fill-rule="nonzero" fill-opacity="1" /><path clip-path="url(#clip870)" d="M1393.59 264.063 L1409.91 264.063 L1409.91 267.998 L1387.96 267.998 L1387.96 264.063 Q1390.63 261.308 1395.21 256.678 Q1399.82 252.026 1401 250.683 Q1403.24 248.16 1404.12 246.424 Q1405.02 244.665 1405.02 242.975 Q1405.02 240.22 1403.08 238.484 Q1401.16 236.748 1398.06 236.748 Q1395.86 236.748 1393.4 237.512 Q1390.97 238.276 1388.19 239.827 L1388.19 235.104 Q1391.02 233.97 1393.47 233.392 Q1395.93 232.813 1397.96 232.813 Q1403.33 232.813 1406.53 235.498 Q1409.72 238.183 1409.72 242.674 Q1409.72 244.803 1408.91 246.725 Q1408.13 248.623 1406.02 251.215 Q1405.44 251.887 1402.34 255.104 Q1399.24 258.299 1393.59 264.063 Z" fill="#000000" fill-rule="nonzero" fill-opacity="1" /><path clip-path="url(#clip870)" d="M1353.38 173.21 Q1349.77 173.21 1347.94 176.775 Q1346.13 180.316 1346.13 187.446 Q1346.13 194.552 1347.94 198.117 Q1349.77 201.659 1353.38 201.659 Q1357.01 201.659 1358.82 198.117 Q1360.65 194.552 1360.65 187.446 Q1360.65 180.316 1358.82 176.775 Q1357.01 173.21 1353.38 173.21 M1353.38 169.506 Q1359.19 169.506 1362.25 174.113 Q1365.32 178.696 1365.32 187.446 Q1365.32 196.173 1362.25 200.779 Q1359.19 205.363 1353.38 205.363 Q1347.57 205.363 1344.49 200.779 Q1341.44 196.173 1341.44 187.446 Q1341.44 178.696 1344.49 174.113 Q1347.57 169.506 1353.38 169.506 Z" fill="#000000" fill-rule="nonzero" fill-opacity="1" /><path clip-path="url(#clip870)" d="M1373.54 198.812 L1378.43 198.812 L1378.43 204.691 L1373.54 204.691 L1373.54 198.812 Z" fill="#000000" fill-rule="nonzero" fill-opacity="1" /><path clip-path="url(#clip870)" d="M1402.78 186.057 Q1406.13 186.775 1408.01 189.043 Q1409.91 191.312 1409.91 194.645 Q1409.91 199.761 1406.39 202.562 Q1402.87 205.363 1396.39 205.363 Q1394.21 205.363 1391.9 204.923 Q1389.61 204.506 1387.15 203.65 L1387.15 199.136 Q1389.1 200.27 1391.41 200.849 Q1393.73 201.427 1396.25 201.427 Q1400.65 201.427 1402.94 199.691 Q1405.26 197.955 1405.26 194.645 Q1405.26 191.589 1403.1 189.876 Q1400.97 188.14 1397.15 188.14 L1393.13 188.14 L1393.13 184.298 L1397.34 184.298 Q1400.79 184.298 1402.62 182.932 Q1404.44 181.543 1404.44 178.951 Q1404.44 176.289 1402.55 174.877 Q1400.67 173.441 1397.15 173.441 Q1395.23 173.441 1393.03 173.858 Q1390.83 174.275 1388.19 175.154 L1388.19 170.988 Q1390.86 170.247 1393.17 169.877 Q1395.51 169.506 1397.57 169.506 Q1402.89 169.506 1406 171.937 Q1409.1 174.344 1409.1 178.465 Q1409.1 181.335 1407.45 183.326 Q1405.81 185.293 1402.78 186.057 Z" fill="#000000" fill-rule="nonzero" fill-opacity="1" /><path clip-path="url(#clip870)" d="M1352.25 109.903 Q1348.63 109.903 1346.81 113.468 Q1345 117.01 1345 124.139 Q1345 131.246 1346.81 134.811 Q1348.63 138.352 1352.25 138.352 Q1355.88 138.352 1357.69 134.811 Q1359.51 131.246 1359.51 124.139 Q1359.51 117.01 1357.69 113.468 Q1355.88 109.903 1352.25 109.903 M1352.25 106.2 Q1358.06 106.2 1361.11 110.806 Q1364.19 115.389 1364.19 124.139 Q1364.19 132.866 1361.11 137.473 Q1358.06 142.056 1352.25 142.056 Q1346.44 142.056 1343.36 137.473 Q1340.3 132.866 1340.3 124.139 Q1340.3 115.389 1343.36 110.806 Q1346.44 106.2 1352.25 106.2 Z" fill="#000000" fill-rule="nonzero" fill-opacity="1" /><path clip-path="url(#clip870)" d="M1372.41 135.505 L1377.29 135.505 L1377.29 141.385 L1372.41 141.385 L1372.41 135.505 Z" fill="#000000" fill-rule="nonzero" fill-opacity="1" /><path clip-path="url(#clip870)" d="M1400.32 110.899 L1388.52 129.348 L1400.32 129.348 L1400.32 110.899 M1399.1 106.825 L1404.98 106.825 L1404.98 129.348 L1409.91 129.348 L1409.91 133.237 L1404.98 133.237 L1404.98 141.385 L1400.32 141.385 L1400.32 133.237 L1384.72 133.237 L1384.72 128.723 L1399.1 106.825 Z" fill="#000000" fill-rule="nonzero" fill-opacity="1" /><path clip-path="url(#clip870)" d="M1353.73 46.5967 Q1350.12 46.5967 1348.29 50.1615 Q1346.48 53.7032 1346.48 60.8327 Q1346.48 67.9392 1348.29 71.504 Q1350.12 75.0456 1353.73 75.0456 Q1357.36 75.0456 1359.17 71.504 Q1361 67.9392 1361 60.8327 Q1361 53.7032 1359.17 50.1615 Q1357.36 46.5967 1353.73 46.5967 M1353.73 42.893 Q1359.54 42.893 1362.59 47.4995 Q1365.67 52.0828 1365.67 60.8327 Q1365.67 69.5595 1362.59 74.166 Q1359.54 78.7493 1353.73 78.7493 Q1347.92 78.7493 1344.84 74.166 Q1341.78 69.5595 1341.78 60.8327 Q1341.78 52.0828 1344.84 47.4995 Q1347.92 42.893 1353.73 42.893 Z" fill="#000000" fill-rule="nonzero" fill-opacity="1" /><path clip-path="url(#clip870)" d="M1373.89 72.1984 L1378.77 72.1984 L1378.77 78.078 L1373.89 78.078 L1373.89 72.1984 Z" fill="#000000" fill-rule="nonzero" fill-opacity="1" /><path clip-path="url(#clip870)" d="M1389.01 43.518 L1407.36 43.518 L1407.36 47.4532 L1393.29 47.4532 L1393.29 55.9254 Q1394.31 55.5781 1395.32 55.4161 Q1396.34 55.2309 1397.36 55.2309 Q1403.15 55.2309 1406.53 58.4022 Q1409.91 61.5735 1409.91 66.9901 Q1409.91 72.5688 1406.44 75.6706 Q1402.96 78.7493 1396.64 78.7493 Q1394.47 78.7493 1392.2 78.3789 Q1389.95 78.0086 1387.55 77.2678 L1387.55 72.5688 Q1389.63 73.703 1391.85 74.2586 Q1394.07 74.8141 1396.55 74.8141 Q1400.56 74.8141 1402.89 72.7077 Q1405.23 70.6012 1405.23 66.9901 Q1405.23 63.379 1402.89 61.2726 Q1400.56 59.1661 1396.55 59.1661 Q1394.68 59.1661 1392.8 59.5827 Q1390.95 59.9994 1389.01 60.879 L1389.01 43.518 Z" fill="#000000" fill-rule="nonzero" fill-opacity="1" /><path clip-path="url(#clip870)" d="M1265.47 298.084 Q1270.89 298.084 1276.97 299.823 Q1283.03 301.53 1287.92 304.235 Q1292.79 306.941 1296.01 310.483 Q1299.19 314.026 1299.19 317.408 Q1299.19 319.565 1298 321.176 Q1296.78 322.754 1294.75 323.623 Q1292.69 324.493 1290.43 324.912 Q1288.15 325.33 1285.67 325.33 Q1281.96 325.33 1277.94 324.525 Q1273.88 323.72 1270.21 322.367 Q1266.51 321.015 1263.16 319.115 Q1259.77 317.214 1257.33 315.121 Q1254.85 312.995 1253.4 310.612 Q1251.95 308.229 1251.95 306.007 Q1251.95 304.396 1252.66 303.108 Q1253.33 301.788 1254.52 300.95 Q1255.68 300.113 1257.07 299.533 Q1258.45 298.921 1260.06 298.632 Q1261.64 298.342 1262.96 298.213 Q1264.25 298.084 1265.47 298.084 M1261.38 302.432 Q1259.74 302.432 1258.52 302.561 Q1257.26 302.69 1256.01 303.044 Q1254.75 303.398 1254.07 304.171 Q1253.4 304.912 1253.4 306.071 Q1253.4 309.453 1260.32 313.253 Q1262.48 314.477 1265.41 315.572 Q1268.34 316.667 1269.73 317.053 Q1271.11 317.44 1274.52 318.342 L1274.52 304.558 Q1265.73 302.432 1261.38 302.432 M1276.62 305.137 L1276.62 318.857 Q1284.67 320.983 1289.69 320.983 Q1294.07 320.983 1295.91 320.081 Q1297.71 319.147 1297.71 317.408 Q1297.71 315.411 1295.72 313.543 Q1293.69 311.675 1290.02 309.775 Q1285.25 307.263 1276.62 305.137 Z" fill="#000000" fill-rule="nonzero" fill-opacity="1" /><path clip-path="url(#clip870)" d="M1248.99 253.776 Q1256.31 258.041 1263.47 260.11 Q1270.64 262.179 1277.99 262.179 Q1285.34 262.179 1292.57 260.11 Q1299.76 258.009 1307.05 253.776 L1307.05 258.869 Q1299.57 263.643 1292.34 266.03 Q1285.12 268.386 1277.99 268.386 Q1270.89 268.386 1263.7 266.03 Q1256.5 263.675 1248.99 258.869 L1248.99 253.776 Z" fill="#000000" fill-rule="nonzero" fill-opacity="1" /><path clip-path="url(#clip870)" d="M1268.28 221.757 Q1267.71 222.743 1267.45 223.921 Q1267.17 225.067 1267.17 226.467 Q1267.17 231.433 1270.41 234.106 Q1273.63 236.748 1279.67 236.748 L1298.45 236.748 L1298.45 242.636 L1262.81 242.636 L1262.81 236.748 L1268.34 236.748 Q1265.1 234.902 1263.54 231.942 Q1261.95 228.982 1261.95 224.749 Q1261.95 224.144 1262.04 223.412 Q1262.11 222.68 1262.26 221.789 L1268.28 221.757 Z" fill="#000000" fill-rule="nonzero" fill-opacity="1" /><path clip-path="url(#clip870)" d="M1280.53 199.413 Q1280.53 206.511 1282.16 209.248 Q1283.78 211.985 1287.7 211.985 Q1290.81 211.985 1292.66 209.948 Q1294.48 207.879 1294.48 204.347 Q1294.48 199.477 1291.04 196.549 Q1287.57 193.588 1281.84 193.588 L1280.53 193.588 L1280.53 199.413 M1278.12 187.732 L1298.45 187.732 L1298.45 193.588 L1293.04 193.588 Q1296.29 195.594 1297.85 198.586 Q1299.38 201.577 1299.38 205.906 Q1299.38 211.381 1296.32 214.627 Q1293.23 217.842 1288.08 217.842 Q1282.06 217.842 1279.01 213.831 Q1275.95 209.789 1275.95 201.8 L1275.95 193.588 L1275.38 193.588 Q1271.34 193.588 1269.14 196.262 Q1266.91 198.904 1266.91 203.71 Q1266.91 206.766 1267.64 209.662 Q1268.38 212.558 1269.84 215.232 L1264.43 215.232 Q1263.19 212.017 1262.58 208.993 Q1261.95 205.97 1261.95 203.105 Q1261.95 195.371 1265.96 191.551 Q1269.97 187.732 1278.12 187.732 Z" fill="#000000" fill-rule="nonzero" fill-opacity="1" /><path clip-path="url(#clip870)" d="M1268.22 152.211 L1248.93 152.211 L1248.93 146.355 L1298.45 146.355 L1298.45 152.211 L1293.11 152.211 Q1296.29 154.057 1297.85 156.89 Q1299.38 159.691 1299.38 163.638 Q1299.38 170.099 1294.22 174.173 Q1289.06 178.215 1280.66 178.215 Q1272.26 178.215 1267.1 174.173 Q1261.95 170.099 1261.95 163.638 Q1261.95 159.691 1263.51 156.89 Q1265.03 154.057 1268.22 152.211 M1280.66 172.168 Q1287.12 172.168 1290.81 169.526 Q1294.48 166.853 1294.48 162.206 Q1294.48 157.559 1290.81 154.885 Q1287.12 152.211 1280.66 152.211 Q1274.2 152.211 1270.54 154.885 Q1266.85 157.559 1266.85 162.206 Q1266.85 166.853 1270.54 169.526 Q1274.2 172.168 1280.66 172.168 Z" fill="#000000" fill-rule="nonzero" fill-opacity="1" /><path clip-path="url(#clip870)" d="M1248.99 135.215 L1248.99 130.122 Q1256.5 125.348 1263.7 122.993 Q1270.89 120.606 1277.99 120.606 Q1285.12 120.606 1292.34 122.993 Q1299.57 125.348 1307.05 130.122 L1307.05 135.215 Q1299.76 130.982 1292.57 128.913 Q1285.34 126.812 1277.99 126.812 Q1270.64 126.812 1263.47 128.913 Q1256.31 130.982 1248.99 135.215 Z" fill="#000000" fill-rule="nonzero" fill-opacity="1" /><polyline clip-path="url(#clip873)" style="stroke:#009af9; stroke-linecap:round; stroke-linejoin:round; stroke-width:4; stroke-opacity:1; fill:none" points="1471.57,377.331 1496.74,349.84 1521.9,287.478 1547.06,215.666 1572.22,151.401 1597.38,103.298 1622.55,73.4145 1647.71,59.6772 1672.87,58.0364 1698.03,64.0075 1723.2,73.6024 1748.36,83.7886 1773.52,92.6146 1798.68,99.1153 1823.85,103.094 1849.01,104.86 1874.17,104.981 1899.33,104.081 1924.49,102.718 1949.66,101.308 1974.82,100.112 1999.98,99.2501 2025.14,98.7393 2050.31,98.529 2075.47,98.5369 2100.63,98.676 2125.79,98.8707 2150.95,99.0659 2176.12,99.2279 2201.28,99.342 2226.44,99.4075 2251.6,99.4323 2276.77,99.4281 2301.93,99.4071 2327.09,99.3794 "/>
<polyline clip-path="url(#clip873)" style="stroke:#e26f46; stroke-linecap:round; stroke-linejoin:round; stroke-width:3; stroke-opacity:1; fill:none" stroke-dasharray="12, 6, 2, 6" points="1471.57,388.745 1496.74,353.019 1521.9,278.618 1547.06,218.59 1572.22,153.095 1597.38,97.0668 1622.55,69.8891 1647.71,60.6904 1672.87,61.0776 1698.03,59.831 1723.2,57.1907 1748.36,74.0331 1773.52,87.1756 1798.68,94.2479 1823.85,103.364 1849.01,99.5055 1874.17,99.0465 1899.33,107.557 1924.49,93.1088 1949.66,99.9 1974.82,94.0479 1999.98,104.689 2025.14,102.911 2050.31,98.4012 2075.47,95.1237 2100.63,104.101 2125.79,105.525 2150.95,104.697 2176.12,108.53 2201.28,100.691 2226.44,100.092 2251.6,89.0133 2276.77,96.5851 2301.93,98.858 2327.09,106.946 "/>
<path clip-path="url(#clip870)" d="M2203.01 386.977 L2322.53 386.977 L2322.53 231.457 L2203.01 231.457  Z" fill="#ffffff" fill-rule="evenodd" fill-opacity="1"/>
<polyline clip-path="url(#clip870)" style="stroke:#000000; stroke-linecap:round; stroke-linejoin:round; stroke-width:4; stroke-opacity:1; fill:none" points="2203.01,386.977 2322.53,386.977 2322.53,231.457 2203.01,231.457 2203.01,386.977 "/>
<polyline clip-path="url(#clip870)" style="stroke:#009af9; stroke-linecap:round; stroke-linejoin:round; stroke-width:4; stroke-opacity:1; fill:none" points="2213.09,283.297 2273.55,283.297 "/>
<path clip-path="url(#clip870)" d="M2310.63 293.836 L2305.36 293.695 L2299.6 293.836 L2299.6 291.587 L2301.47 291.587 L2296.2 285.357 L2291.54 290.58 L2291.21 291.049 Q2291.21 291.26 2291.75 291.423 Q2292.31 291.587 2292.97 291.587 L2292.97 293.836 L2288.03 293.695 L2283.62 293.836 L2283.62 291.587 Q2285.1 291.587 2285.78 291.564 Q2286.48 291.517 2287.28 291.306 Q2288.07 291.096 2288.47 290.674 L2294.75 283.624 L2287.28 274.794 L2283.86 274.794 L2283.86 272.545 L2289.15 272.686 L2294.94 272.545 L2294.94 274.794 L2293.01 274.794 L2297.72 280.298 L2301.75 275.801 Q2301.77 275.777 2302.15 275.215 Q2301.4 274.794 2300.32 274.794 L2300.32 272.545 L2305.26 272.686 L2309.67 272.545 L2309.67 274.794 Q2307.75 274.794 2306.74 274.934 Q2305.76 275.051 2305.45 275.215 Q2305.17 275.379 2304.77 275.801 L2299.17 282.031 L2307.23 291.587 L2310.63 291.587 L2310.63 293.836 Z" fill="#000000" fill-rule="nonzero" fill-opacity="1" /><polyline clip-path="url(#clip870)" style="stroke:#e26f46; stroke-linecap:round; stroke-linejoin:round; stroke-width:3; stroke-opacity:1; fill:none" stroke-dasharray="12, 6, 2, 6" points="2213.09,335.137 2273.55,335.137 "/>
<path clip-path="url(#clip870)" d="M2306.21 323.615 L2305.8 324.287 Q2303.26 323.189 2300.09 321.434 Q2296.93 323.189 2294.39 324.287 L2293.99 323.615 Q2296.76 321.205 2300.09 319.352 Q2303.45 321.221 2306.21 323.615 Z" fill="#000000" fill-rule="nonzero" fill-opacity="1" /><path clip-path="url(#clip870)" d="M2310.63 350.681 L2305.36 350.54 L2299.6 350.681 L2299.6 348.432 L2301.47 348.432 L2296.2 342.202 L2291.54 347.425 L2291.21 347.893 Q2291.21 348.104 2291.75 348.268 Q2292.31 348.432 2292.97 348.432 L2292.97 350.681 L2288.03 350.54 L2283.62 350.681 L2283.62 348.432 Q2285.1 348.432 2285.78 348.409 Q2286.48 348.362 2287.28 348.151 Q2288.07 347.94 2288.47 347.519 L2294.75 340.468 L2287.28 331.638 L2283.86 331.638 L2283.86 329.39 L2289.15 329.53 L2294.94 329.39 L2294.94 331.638 L2293.01 331.638 L2297.72 337.142 L2301.75 332.645 Q2301.77 332.622 2302.15 332.06 Q2301.4 331.638 2300.32 331.638 L2300.32 329.39 L2305.26 329.53 L2309.67 329.39 L2309.67 331.638 Q2307.75 331.638 2306.74 331.779 Q2305.76 331.896 2305.45 332.06 Q2305.17 332.224 2304.77 332.645 L2299.17 338.876 L2307.23 348.432 L2310.63 348.432 L2310.63 350.681 Z" fill="#000000" fill-rule="nonzero" fill-opacity="1" /><path clip-path="url(#clip870)" d="M1445.91 910.936 L2352.76 910.936 L2352.76 559.488 L1445.91 559.488  Z" fill="#ffffff" fill-rule="evenodd" fill-opacity="1"/>
<defs>
  <clipPath id="clip874">
    <rect x="1445" y="559" width="908" height="352"/>
  </clipPath>
</defs>
<polyline clip-path="url(#clip874)" style="stroke:#000000; stroke-linecap:round; stroke-linejoin:round; stroke-width:2; stroke-opacity:0.1; fill:none" points="1471.57,910.936 1471.57,559.488 "/>
<polyline clip-path="url(#clip874)" style="stroke:#000000; stroke-linecap:round; stroke-linejoin:round; stroke-width:2; stroke-opacity:0.1; fill:none" points="1723.2,910.936 1723.2,559.488 "/>
<polyline clip-path="url(#clip874)" style="stroke:#000000; stroke-linecap:round; stroke-linejoin:round; stroke-width:2; stroke-opacity:0.1; fill:none" points="1974.82,910.936 1974.82,559.488 "/>
<polyline clip-path="url(#clip874)" style="stroke:#000000; stroke-linecap:round; stroke-linejoin:round; stroke-width:2; stroke-opacity:0.1; fill:none" points="2226.44,910.936 2226.44,559.488 "/>
<polyline clip-path="url(#clip874)" style="stroke:#000000; stroke-linecap:round; stroke-linejoin:round; stroke-width:2; stroke-opacity:0.1; fill:none" points="1445.91,852.054 2352.76,852.054 "/>
<polyline clip-path="url(#clip874)" style="stroke:#000000; stroke-linecap:round; stroke-linejoin:round; stroke-width:2; stroke-opacity:0.1; fill:none" points="1445.91,789.169 2352.76,789.169 "/>
<polyline clip-path="url(#clip874)" style="stroke:#000000; stroke-linecap:round; stroke-linejoin:round; stroke-width:2; stroke-opacity:0.1; fill:none" points="1445.91,726.284 2352.76,726.284 "/>
<polyline clip-path="url(#clip874)" style="stroke:#000000; stroke-linecap:round; stroke-linejoin:round; stroke-width:2; stroke-opacity:0.1; fill:none" points="1445.91,663.399 2352.76,663.399 "/>
<polyline clip-path="url(#clip874)" style="stroke:#000000; stroke-linecap:round; stroke-linejoin:round; stroke-width:2; stroke-opacity:0.1; fill:none" points="1445.91,600.514 2352.76,600.514 "/>
<polyline clip-path="url(#clip870)" style="stroke:#000000; stroke-linecap:round; stroke-linejoin:round; stroke-width:4; stroke-opacity:1; fill:none" points="1445.91,910.936 2352.76,910.936 "/>
<polyline clip-path="url(#clip870)" style="stroke:#000000; stroke-linecap:round; stroke-linejoin:round; stroke-width:4; stroke-opacity:1; fill:none" points="1471.57,910.936 1471.57,892.038 "/>
<polyline clip-path="url(#clip870)" style="stroke:#000000; stroke-linecap:round; stroke-linejoin:round; stroke-width:4; stroke-opacity:1; fill:none" points="1723.2,910.936 1723.2,892.038 "/>
<polyline clip-path="url(#clip870)" style="stroke:#000000; stroke-linecap:round; stroke-linejoin:round; stroke-width:4; stroke-opacity:1; fill:none" points="1974.82,910.936 1974.82,892.038 "/>
<polyline clip-path="url(#clip870)" style="stroke:#000000; stroke-linecap:round; stroke-linejoin:round; stroke-width:4; stroke-opacity:1; fill:none" points="2226.44,910.936 2226.44,892.038 "/>
<path clip-path="url(#clip870)" d="M1471.57 941.855 Q1467.96 941.855 1466.13 945.419 Q1464.33 948.961 1464.33 956.091 Q1464.33 963.197 1466.13 966.762 Q1467.96 970.303 1471.57 970.303 Q1475.21 970.303 1477.01 966.762 Q1478.84 963.197 1478.84 956.091 Q1478.84 948.961 1477.01 945.419 Q1475.21 941.855 1471.57 941.855 M1471.57 938.151 Q1477.38 938.151 1480.44 942.757 Q1483.52 947.341 1483.52 956.091 Q1483.52 964.817 1480.44 969.424 Q1477.38 974.007 1471.57 974.007 Q1465.76 974.007 1462.68 969.424 Q1459.63 964.817 1459.63 956.091 Q1459.63 947.341 1462.68 942.757 Q1465.76 938.151 1471.57 938.151 Z" fill="#000000" fill-rule="nonzero" fill-opacity="1" /><path clip-path="url(#clip870)" d="M1713.58 969.401 L1721.22 969.401 L1721.22 943.035 L1712.91 944.702 L1712.91 940.443 L1721.17 938.776 L1725.85 938.776 L1725.85 969.401 L1733.49 969.401 L1733.49 973.336 L1713.58 973.336 L1713.58 969.401 Z" fill="#000000" fill-rule="nonzero" fill-opacity="1" /><path clip-path="url(#clip870)" d="M1969.47 969.401 L1985.79 969.401 L1985.79 973.336 L1963.85 973.336 L1963.85 969.401 Q1966.51 966.646 1971.09 962.016 Q1975.7 957.364 1976.88 956.021 Q1979.12 953.498 1980 951.762 Q1980.91 950.003 1980.91 948.313 Q1980.91 945.558 1978.96 943.822 Q1977.04 942.086 1973.94 942.086 Q1971.74 942.086 1969.29 942.85 Q1966.86 943.614 1964.08 945.165 L1964.08 940.443 Q1966.9 939.308 1969.36 938.73 Q1971.81 938.151 1973.85 938.151 Q1979.22 938.151 1982.41 940.836 Q1985.61 943.521 1985.61 948.012 Q1985.61 950.142 1984.8 952.063 Q1984.01 953.961 1981.9 956.554 Q1981.32 957.225 1978.22 960.442 Q1975.12 963.637 1969.47 969.401 Z" fill="#000000" fill-rule="nonzero" fill-opacity="1" /><path clip-path="url(#clip870)" d="M2230.69 954.702 Q2234.05 955.419 2235.92 957.688 Q2237.82 959.956 2237.82 963.29 Q2237.82 968.405 2234.3 971.206 Q2230.78 974.007 2224.3 974.007 Q2222.12 974.007 2219.81 973.567 Q2217.52 973.151 2215.06 972.294 L2215.06 967.78 Q2217.01 968.915 2219.32 969.493 Q2221.64 970.072 2224.16 970.072 Q2228.56 970.072 2230.85 968.336 Q2233.17 966.6 2233.17 963.29 Q2233.17 960.234 2231.01 958.521 Q2228.88 956.785 2225.06 956.785 L2221.04 956.785 L2221.04 952.942 L2225.25 952.942 Q2228.7 952.942 2230.53 951.577 Q2232.36 950.188 2232.36 947.595 Q2232.36 944.933 2230.46 943.521 Q2228.58 942.086 2225.06 942.086 Q2223.14 942.086 2220.94 942.503 Q2218.74 942.919 2216.11 943.799 L2216.11 939.632 Q2218.77 938.892 2221.08 938.521 Q2223.42 938.151 2225.48 938.151 Q2230.8 938.151 2233.91 940.581 Q2237.01 942.989 2237.01 947.109 Q2237.01 949.979 2235.36 951.97 Q2233.72 953.938 2230.69 954.702 Z" fill="#000000" fill-rule="nonzero" fill-opacity="1" /><polyline clip-path="url(#clip870)" style="stroke:#000000; stroke-linecap:round; stroke-linejoin:round; stroke-width:4; stroke-opacity:1; fill:none" points="1445.91,910.936 1445.91,559.488 "/>
<polyline clip-path="url(#clip870)" style="stroke:#000000; stroke-linecap:round; stroke-linejoin:round; stroke-width:4; stroke-opacity:1; fill:none" points="1445.91,852.054 1464.81,852.054 "/>
<polyline clip-path="url(#clip870)" style="stroke:#000000; stroke-linecap:round; stroke-linejoin:round; stroke-width:4; stroke-opacity:1; fill:none" points="1445.91,789.169 1464.81,789.169 "/>
<polyline clip-path="url(#clip870)" style="stroke:#000000; stroke-linecap:round; stroke-linejoin:round; stroke-width:4; stroke-opacity:1; fill:none" points="1445.91,726.284 1464.81,726.284 "/>
<polyline clip-path="url(#clip870)" style="stroke:#000000; stroke-linecap:round; stroke-linejoin:round; stroke-width:4; stroke-opacity:1; fill:none" points="1445.91,663.399 1464.81,663.399 "/>
<polyline clip-path="url(#clip870)" style="stroke:#000000; stroke-linecap:round; stroke-linejoin:round; stroke-width:4; stroke-opacity:1; fill:none" points="1445.91,600.514 1464.81,600.514 "/>
<path clip-path="url(#clip870)" d="M1352.73 837.853 Q1349.12 837.853 1347.29 841.418 Q1345.49 844.959 1345.49 852.089 Q1345.49 859.195 1347.29 862.76 Q1349.12 866.302 1352.73 866.302 Q1356.37 866.302 1358.17 862.76 Q1360 859.195 1360 852.089 Q1360 844.959 1358.17 841.418 Q1356.37 837.853 1352.73 837.853 M1352.73 834.149 Q1358.54 834.149 1361.6 838.756 Q1364.68 843.339 1364.68 852.089 Q1364.68 860.816 1361.6 865.422 Q1358.54 870.006 1352.73 870.006 Q1346.92 870.006 1343.84 865.422 Q1340.79 860.816 1340.79 852.089 Q1340.79 843.339 1343.84 838.756 Q1346.92 834.149 1352.73 834.149 Z" fill="#000000" fill-rule="nonzero" fill-opacity="1" /><path clip-path="url(#clip870)" d="M1372.89 863.455 L1377.78 863.455 L1377.78 869.334 L1372.89 869.334 L1372.89 863.455 Z" fill="#000000" fill-rule="nonzero" fill-opacity="1" /><path clip-path="url(#clip870)" d="M1397.96 837.853 Q1394.35 837.853 1392.52 841.418 Q1390.72 844.959 1390.72 852.089 Q1390.72 859.195 1392.52 862.76 Q1394.35 866.302 1397.96 866.302 Q1401.6 866.302 1403.4 862.76 Q1405.23 859.195 1405.23 852.089 Q1405.23 844.959 1403.4 841.418 Q1401.6 837.853 1397.96 837.853 M1397.96 834.149 Q1403.77 834.149 1406.83 838.756 Q1409.91 843.339 1409.91 852.089 Q1409.91 860.816 1406.83 865.422 Q1403.77 870.006 1397.96 870.006 Q1392.15 870.006 1389.07 865.422 Q1386.02 860.816 1386.02 852.089 Q1386.02 843.339 1389.07 838.756 Q1392.15 834.149 1397.96 834.149 Z" fill="#000000" fill-rule="nonzero" fill-opacity="1" /><path clip-path="url(#clip870)" d="M1353.38 774.968 Q1349.77 774.968 1347.94 778.533 Q1346.13 782.074 1346.13 789.204 Q1346.13 796.31 1347.94 799.875 Q1349.77 803.417 1353.38 803.417 Q1357.01 803.417 1358.82 799.875 Q1360.65 796.31 1360.65 789.204 Q1360.65 782.074 1358.82 778.533 Q1357.01 774.968 1353.38 774.968 M1353.38 771.264 Q1359.19 771.264 1362.25 775.871 Q1365.32 780.454 1365.32 789.204 Q1365.32 797.931 1362.25 802.537 Q1359.19 807.12 1353.38 807.12 Q1347.57 807.12 1344.49 802.537 Q1341.44 797.931 1341.44 789.204 Q1341.44 780.454 1344.49 775.871 Q1347.57 771.264 1353.38 771.264 Z" fill="#000000" fill-rule="nonzero" fill-opacity="1" /><path clip-path="url(#clip870)" d="M1373.54 800.569 L1378.43 800.569 L1378.43 806.449 L1373.54 806.449 L1373.54 800.569 Z" fill="#000000" fill-rule="nonzero" fill-opacity="1" /><path clip-path="url(#clip870)" d="M1402.78 787.815 Q1406.13 788.533 1408.01 790.801 Q1409.91 793.07 1409.91 796.403 Q1409.91 801.519 1406.39 804.319 Q1402.87 807.12 1396.39 807.12 Q1394.21 807.12 1391.9 806.681 Q1389.61 806.264 1387.15 805.407 L1387.15 800.894 Q1389.1 802.028 1391.41 802.607 Q1393.73 803.185 1396.25 803.185 Q1400.65 803.185 1402.94 801.449 Q1405.26 799.713 1405.26 796.403 Q1405.26 793.347 1403.1 791.634 Q1400.97 789.898 1397.15 789.898 L1393.13 789.898 L1393.13 786.056 L1397.34 786.056 Q1400.79 786.056 1402.62 784.69 Q1404.44 783.301 1404.44 780.708 Q1404.44 778.046 1402.55 776.634 Q1400.67 775.199 1397.15 775.199 Q1395.23 775.199 1393.03 775.616 Q1390.83 776.033 1388.19 776.912 L1388.19 772.746 Q1390.86 772.005 1393.17 771.634 Q1395.51 771.264 1397.57 771.264 Q1402.89 771.264 1406 773.695 Q1409.1 776.102 1409.1 780.222 Q1409.1 783.093 1407.45 785.083 Q1405.81 787.051 1402.78 787.815 Z" fill="#000000" fill-rule="nonzero" fill-opacity="1" /><path clip-path="url(#clip870)" d="M1352.57 712.083 Q1348.96 712.083 1347.13 715.647 Q1345.32 719.189 1345.32 726.319 Q1345.32 733.425 1347.13 736.99 Q1348.96 740.532 1352.57 740.532 Q1356.2 740.532 1358.01 736.99 Q1359.84 733.425 1359.84 726.319 Q1359.84 719.189 1358.01 715.647 Q1356.2 712.083 1352.57 712.083 M1352.57 708.379 Q1358.38 708.379 1361.44 712.985 Q1364.51 717.569 1364.51 726.319 Q1364.51 735.045 1361.44 739.652 Q1358.38 744.235 1352.57 744.235 Q1346.76 744.235 1343.68 739.652 Q1340.63 735.045 1340.63 726.319 Q1340.63 717.569 1343.68 712.985 Q1346.76 708.379 1352.57 708.379 Z" fill="#000000" fill-rule="nonzero" fill-opacity="1" /><path clip-path="url(#clip870)" d="M1372.73 737.684 L1377.62 737.684 L1377.62 743.564 L1372.73 743.564 L1372.73 737.684 Z" fill="#000000" fill-rule="nonzero" fill-opacity="1" /><path clip-path="url(#clip870)" d="M1398.38 724.42 Q1395.23 724.42 1393.38 726.573 Q1391.55 728.726 1391.55 732.476 Q1391.55 736.203 1393.38 738.379 Q1395.23 740.532 1398.38 740.532 Q1401.53 740.532 1403.36 738.379 Q1405.21 736.203 1405.21 732.476 Q1405.21 728.726 1403.36 726.573 Q1401.53 724.42 1398.38 724.42 M1407.66 709.768 L1407.66 714.027 Q1405.9 713.194 1404.1 712.754 Q1402.32 712.314 1400.56 712.314 Q1395.93 712.314 1393.47 715.439 Q1391.04 718.564 1390.69 724.883 Q1392.06 722.87 1394.12 721.805 Q1396.18 720.717 1398.66 720.717 Q1403.87 720.717 1406.88 723.888 Q1409.91 727.036 1409.91 732.476 Q1409.91 737.8 1406.76 741.018 Q1403.61 744.235 1398.38 744.235 Q1392.38 744.235 1389.21 739.652 Q1386.04 735.045 1386.04 726.319 Q1386.04 718.124 1389.93 713.263 Q1393.82 708.379 1400.37 708.379 Q1402.13 708.379 1403.91 708.726 Q1405.72 709.073 1407.66 709.768 Z" fill="#000000" fill-rule="nonzero" fill-opacity="1" /><path clip-path="url(#clip870)" d="M1352.92 649.197 Q1349.31 649.197 1347.48 652.762 Q1345.67 656.304 1345.67 663.433 Q1345.67 670.54 1347.48 674.105 Q1349.31 677.646 1352.92 677.646 Q1356.55 677.646 1358.36 674.105 Q1360.19 670.54 1360.19 663.433 Q1360.19 656.304 1358.36 652.762 Q1356.55 649.197 1352.92 649.197 M1352.92 645.494 Q1358.73 645.494 1361.78 650.1 Q1364.86 654.683 1364.86 663.433 Q1364.86 672.16 1361.78 676.767 Q1358.73 681.35 1352.92 681.35 Q1347.11 681.35 1344.03 676.767 Q1340.97 672.16 1340.97 663.433 Q1340.97 654.683 1344.03 650.1 Q1347.11 645.494 1352.92 645.494 Z" fill="#000000" fill-rule="nonzero" fill-opacity="1" /><path clip-path="url(#clip870)" d="M1373.08 674.799 L1377.96 674.799 L1377.96 680.679 L1373.08 680.679 L1373.08 674.799 Z" fill="#000000" fill-rule="nonzero" fill-opacity="1" /><path clip-path="url(#clip870)" d="M1388.29 679.961 L1388.29 675.702 Q1390.05 676.535 1391.85 676.975 Q1393.66 677.415 1395.39 677.415 Q1400.02 677.415 1402.45 674.313 Q1404.91 671.188 1405.26 664.845 Q1403.91 666.836 1401.85 667.901 Q1399.79 668.966 1397.29 668.966 Q1392.11 668.966 1389.07 665.841 Q1386.07 662.693 1386.07 657.253 Q1386.07 651.929 1389.21 648.711 Q1392.36 645.494 1397.59 645.494 Q1403.59 645.494 1406.74 650.1 Q1409.91 654.683 1409.91 663.433 Q1409.91 671.605 1406.02 676.489 Q1402.15 681.35 1395.6 681.35 Q1393.84 681.35 1392.04 681.003 Q1390.23 680.656 1388.29 679.961 M1397.59 665.308 Q1400.74 665.308 1402.57 663.156 Q1404.42 661.003 1404.42 657.253 Q1404.42 653.526 1402.57 651.373 Q1400.74 649.197 1397.59 649.197 Q1394.44 649.197 1392.59 651.373 Q1390.76 653.526 1390.76 657.253 Q1390.76 661.003 1392.59 663.156 Q1394.44 665.308 1397.59 665.308 Z" fill="#000000" fill-rule="nonzero" fill-opacity="1" /><path clip-path="url(#clip870)" d="M1345.14 613.858 L1352.78 613.858 L1352.78 587.493 L1344.47 589.159 L1344.47 584.9 L1352.73 583.234 L1357.41 583.234 L1357.41 613.858 L1365.05 613.858 L1365.05 617.794 L1345.14 617.794 L1345.14 613.858 Z" fill="#000000" fill-rule="nonzero" fill-opacity="1" /><path clip-path="url(#clip870)" d="M1374.49 611.914 L1379.38 611.914 L1379.38 617.794 L1374.49 617.794 L1374.49 611.914 Z" fill="#000000" fill-rule="nonzero" fill-opacity="1" /><path clip-path="url(#clip870)" d="M1393.59 613.858 L1409.91 613.858 L1409.91 617.794 L1387.96 617.794 L1387.96 613.858 Q1390.63 611.104 1395.21 606.474 Q1399.82 601.821 1401 600.479 Q1403.24 597.956 1404.12 596.22 Q1405.02 594.46 1405.02 592.771 Q1405.02 590.016 1403.08 588.28 Q1401.16 586.544 1398.06 586.544 Q1395.86 586.544 1393.4 587.308 Q1390.97 588.071 1388.19 589.622 L1388.19 584.9 Q1391.02 583.766 1393.47 583.187 Q1395.93 582.609 1397.96 582.609 Q1403.33 582.609 1406.53 585.294 Q1409.72 587.979 1409.72 592.47 Q1409.72 594.599 1408.91 596.521 Q1408.13 598.419 1406.02 601.011 Q1405.44 601.683 1402.34 604.9 Q1399.24 608.095 1393.59 613.858 Z" fill="#000000" fill-rule="nonzero" fill-opacity="1" /><path clip-path="url(#clip870)" d="M1265.64 831.559 Q1268.64 831.559 1274.44 833.072 Q1276.95 833.684 1279.23 834.522 Q1281.49 835.327 1283.68 836.518 Q1285.87 837.71 1287.45 839.095 Q1288.99 840.48 1289.96 842.283 Q1290.92 844.087 1290.92 846.084 Q1290.92 849.24 1289.06 851.108 Q1287.16 852.943 1283.9 853.523 Q1290.92 857.839 1290.92 863.604 Q1290.92 867.178 1288.38 868.853 Q1285.8 870.528 1281.49 870.528 Q1277.85 870.528 1274.08 869.562 Q1266.93 867.726 1261.94 864.151 Q1261.36 863.668 1261.36 862.959 Q1261.36 862.541 1261.49 862.347 Q1261.84 861.768 1262.42 861.768 Q1262.84 861.768 1263.26 862.09 Q1266.38 864.344 1269.06 865.826 Q1271.73 867.307 1274.44 867.984 Q1276.75 868.499 1278.72 868.499 Q1282.04 868.499 1284.1 867.082 Q1286.16 865.632 1286.16 862.766 Q1286.16 860.125 1284.52 857.806 Q1282.84 855.488 1280.04 853.781 Q1276.98 853.684 1274.08 852.943 Q1270.99 852.267 1270.99 850.689 Q1270.99 849.433 1272.7 849.433 Q1273.28 849.433 1274.44 849.691 Q1277.49 850.399 1280.23 851.687 Q1282.91 851.236 1284.55 849.562 Q1286.16 847.887 1286.16 845.214 Q1286.16 842.734 1284.35 840.544 Q1282.55 838.322 1279.91 836.905 Q1277.24 835.456 1274.08 834.65 Q1273.02 834.393 1271.67 834.393 Q1268.06 834.393 1265.84 836.905 Q1265.13 837.613 1264.19 837.613 Q1263.1 837.613 1262.1 836.712 Q1261.04 835.649 1261.04 834.393 Q1261.04 833.459 1261.62 832.879 Q1262.78 831.559 1265.64 831.559 Z" fill="#000000" fill-rule="nonzero" fill-opacity="1" /><path clip-path="url(#clip870)" d="M1240.72 788.989 Q1248.04 793.255 1255.2 795.323 Q1262.37 797.392 1269.72 797.392 Q1277.07 797.392 1284.3 795.323 Q1291.49 793.223 1298.78 788.989 L1298.78 794.082 Q1291.3 798.856 1284.07 801.243 Q1276.85 803.599 1269.72 803.599 Q1262.62 803.599 1255.43 801.243 Q1248.23 798.888 1240.72 794.082 L1240.72 788.989 Z" fill="#000000" fill-rule="nonzero" fill-opacity="1" /><path clip-path="url(#clip870)" d="M1260.01 756.97 Q1259.44 757.957 1259.18 759.134 Q1258.9 760.28 1258.9 761.681 Q1258.9 766.646 1262.14 769.319 Q1265.36 771.961 1271.41 771.961 L1290.18 771.961 L1290.18 777.85 L1254.54 777.85 L1254.54 771.961 L1260.07 771.961 Q1256.83 770.115 1255.27 767.155 Q1253.68 764.195 1253.68 759.962 Q1253.68 759.357 1253.77 758.625 Q1253.84 757.893 1254 757.002 L1260.01 756.97 Z" fill="#000000" fill-rule="nonzero" fill-opacity="1" /><path clip-path="url(#clip870)" d="M1272.26 734.626 Q1272.26 741.724 1273.89 744.461 Q1275.51 747.199 1279.43 747.199 Q1282.55 747.199 1284.39 745.162 Q1286.21 743.093 1286.21 739.56 Q1286.21 734.69 1282.77 731.762 Q1279.3 728.802 1273.57 728.802 L1272.26 728.802 L1272.26 734.626 M1269.85 722.945 L1290.18 722.945 L1290.18 728.802 L1284.77 728.802 Q1288.02 730.807 1289.58 733.799 Q1291.11 736.791 1291.11 741.119 Q1291.11 746.594 1288.05 749.84 Q1284.96 753.055 1279.81 753.055 Q1273.79 753.055 1270.74 749.045 Q1267.68 745.002 1267.68 737.013 L1267.68 728.802 L1267.11 728.802 Q1263.07 728.802 1260.87 731.475 Q1258.64 734.117 1258.64 738.923 Q1258.64 741.979 1259.37 744.875 Q1260.11 747.772 1261.57 750.445 L1256.16 750.445 Q1254.92 747.23 1254.31 744.207 Q1253.68 741.183 1253.68 738.318 Q1253.68 730.584 1257.69 726.765 Q1261.7 722.945 1269.85 722.945 Z" fill="#000000" fill-rule="nonzero" fill-opacity="1" /><path clip-path="url(#clip870)" d="M1259.95 687.425 L1240.66 687.425 L1240.66 681.568 L1290.18 681.568 L1290.18 687.425 L1284.84 687.425 Q1288.02 689.271 1289.58 692.103 Q1291.11 694.904 1291.11 698.851 Q1291.11 705.312 1285.95 709.386 Q1280.79 713.429 1272.39 713.429 Q1263.99 713.429 1258.83 709.386 Q1253.68 705.312 1253.68 698.851 Q1253.68 694.904 1255.24 692.103 Q1256.76 689.271 1259.95 687.425 M1272.39 707.381 Q1278.85 707.381 1282.55 704.739 Q1286.21 702.066 1286.21 697.419 Q1286.21 692.772 1282.55 690.098 Q1278.85 687.425 1272.39 687.425 Q1265.93 687.425 1262.27 690.098 Q1258.58 692.772 1258.58 697.419 Q1258.58 702.066 1262.27 704.739 Q1265.93 707.381 1272.39 707.381 Z" fill="#000000" fill-rule="nonzero" fill-opacity="1" /><path clip-path="url(#clip870)" d="M1242.66 659.097 L1242.66 653.686 L1296.23 670.237 L1296.23 675.648 L1242.66 659.097 Z" fill="#000000" fill-rule="nonzero" fill-opacity="1" /><path clip-path="url(#clip870)" d="M1255.59 624.818 L1261.12 624.818 Q1259.85 627.301 1259.21 629.974 Q1258.58 632.648 1258.58 635.512 Q1258.58 639.873 1259.92 642.069 Q1261.25 644.233 1263.93 644.233 Q1265.96 644.233 1267.14 642.674 Q1268.29 641.114 1269.34 636.404 L1269.78 634.398 Q1271.12 628.16 1273.57 625.55 Q1275.99 622.908 1280.35 622.908 Q1285.31 622.908 1288.21 626.855 Q1291.11 630.77 1291.11 637.645 Q1291.11 640.509 1290.53 643.629 Q1289.99 646.716 1288.88 650.153 L1282.83 650.153 Q1284.52 646.907 1285.38 643.756 Q1286.21 640.605 1286.21 637.517 Q1286.21 633.38 1284.81 631.152 Q1283.37 628.924 1280.79 628.924 Q1278.41 628.924 1277.13 630.547 Q1275.86 632.138 1274.68 637.581 L1274.21 639.618 Q1273.06 645.061 1270.71 647.48 Q1268.32 649.899 1264.18 649.899 Q1259.15 649.899 1256.41 646.334 Q1253.68 642.769 1253.68 636.213 Q1253.68 632.966 1254.15 630.101 Q1254.63 627.237 1255.59 624.818 Z" fill="#000000" fill-rule="nonzero" fill-opacity="1" /><path clip-path="url(#clip870)" d="M1240.72 614.505 L1240.72 609.413 Q1248.23 604.639 1255.43 602.283 Q1262.62 599.896 1269.72 599.896 Q1276.85 599.896 1284.07 602.283 Q1291.3 604.639 1298.78 609.413 L1298.78 614.505 Q1291.49 610.272 1284.3 608.203 Q1277.07 606.103 1269.72 606.103 Q1262.37 606.103 1255.2 608.203 Q1248.04 610.272 1240.72 614.505 Z" fill="#000000" fill-rule="nonzero" fill-opacity="1" /><polyline clip-path="url(#clip874)" style="stroke:#009af9; stroke-linecap:round; stroke-linejoin:round; stroke-width:4; stroke-opacity:1; fill:none" points="1471.57,852.054 1496.74,687.016 1521.9,617.992 1547.06,619.822 1572.22,663.375 1597.38,723.271 1622.55,781.788 1647.71,829.126 1672.87,861.664 1698.03,879.807 1723.2,886.183 1748.36,884.314 1773.52,877.715 1798.68,869.336 1823.85,861.291 1849.01,854.824 1874.17,850.423 1899.33,848.034 1924.49,847.276 1949.66,847.637 1974.82,848.614 1999.98,849.797 2025.14,850.902 2050.31,851.769 2075.47,852.344 2100.63,852.644 2125.79,852.724 2150.95,852.658 2176.12,852.515 2201.28,852.349 2226.44,852.198 2251.6,852.081 2276.77,852.006 2301.93,851.969 2327.09,851.961 "/>
<polyline clip-path="url(#clip874)" style="stroke:#e26f46; stroke-linecap:round; stroke-linejoin:round; stroke-width:3; stroke-opacity:1; fill:none" stroke-dasharray="12, 6, 2, 6" points="1471.57,852.054 1496.74,660.187 1521.9,569.435 1547.06,618.516 1572.22,656.737 1597.38,709.587 1622.55,785.795 1647.71,844.132 1672.87,877.659 1698.03,884.196 1723.2,881.241 1748.36,900.989 1773.52,896.347 1798.68,881.181 1823.85,874.367 1849.01,852.986 1874.17,849.897 1899.33,859.791 1924.49,834.023 1949.66,853.948 1974.82,844.827 1999.98,862.754 2025.14,851.795 2050.31,844.925 2075.47,845.27 2100.63,861.103 2125.79,855.586 2150.95,850.404 2176.12,854.397 2201.28,841.17 2226.44,847.248 2251.6,837.462 2276.77,859.126 2301.93,858.734 2327.09,864.525 "/>
<path clip-path="url(#clip870)" d="M2203.01 726.723 L2322.53 726.723 L2322.53 571.203 L2203.01 571.203  Z" fill="#ffffff" fill-rule="evenodd" fill-opacity="1"/>
<polyline clip-path="url(#clip870)" style="stroke:#000000; stroke-linecap:round; stroke-linejoin:round; stroke-width:4; stroke-opacity:1; fill:none" points="2203.01,726.723 2322.53,726.723 2322.53,571.203 2203.01,571.203 2203.01,726.723 "/>
<polyline clip-path="url(#clip870)" style="stroke:#009af9; stroke-linecap:round; stroke-linejoin:round; stroke-width:4; stroke-opacity:1; fill:none" points="2213.09,623.043 2273.55,623.043 "/>
<path clip-path="url(#clip870)" d="M2310.63 633.582 L2305.36 633.442 L2299.6 633.582 L2299.6 631.334 L2301.47 631.334 L2296.2 625.103 L2291.54 630.326 L2291.21 630.795 Q2291.21 631.006 2291.75 631.17 Q2292.31 631.334 2292.97 631.334 L2292.97 633.582 L2288.03 633.442 L2283.62 633.582 L2283.62 631.334 Q2285.1 631.334 2285.78 631.31 Q2286.48 631.263 2287.28 631.052 Q2288.07 630.842 2288.47 630.42 L2294.75 623.37 L2287.28 614.54 L2283.86 614.54 L2283.86 612.291 L2289.15 612.432 L2294.94 612.291 L2294.94 614.54 L2293.01 614.54 L2297.72 620.044 L2301.75 615.547 Q2301.77 615.523 2302.15 614.961 Q2301.4 614.54 2300.32 614.54 L2300.32 612.291 L2305.26 612.432 L2309.67 612.291 L2309.67 614.54 Q2307.75 614.54 2306.74 614.68 Q2305.76 614.797 2305.45 614.961 Q2305.17 615.125 2304.77 615.547 L2299.17 621.777 L2307.23 631.334 L2310.63 631.334 L2310.63 633.582 Z" fill="#000000" fill-rule="nonzero" fill-opacity="1" /><polyline clip-path="url(#clip870)" style="stroke:#e26f46; stroke-linecap:round; stroke-linejoin:round; stroke-width:3; stroke-opacity:1; fill:none" stroke-dasharray="12, 6, 2, 6" points="2213.09,674.883 2273.55,674.883 "/>
<path clip-path="url(#clip870)" d="M2306.21 663.361 L2305.8 664.033 Q2303.26 662.935 2300.09 661.18 Q2296.93 662.935 2294.39 664.033 L2293.99 663.361 Q2296.76 660.951 2300.09 659.098 Q2303.45 660.967 2306.21 663.361 Z" fill="#000000" fill-rule="nonzero" fill-opacity="1" /><path clip-path="url(#clip870)" d="M2310.63 690.427 L2305.36 690.286 L2299.6 690.427 L2299.6 688.178 L2301.47 688.178 L2296.2 681.948 L2291.54 687.171 L2291.21 687.639 Q2291.21 687.85 2291.75 688.014 Q2292.31 688.178 2292.97 688.178 L2292.97 690.427 L2288.03 690.286 L2283.62 690.427 L2283.62 688.178 Q2285.1 688.178 2285.78 688.155 Q2286.48 688.108 2287.28 687.897 Q2288.07 687.686 2288.47 687.265 L2294.75 680.214 L2287.28 671.384 L2283.86 671.384 L2283.86 669.136 L2289.15 669.276 L2294.94 669.136 L2294.94 671.384 L2293.01 671.384 L2297.72 676.888 L2301.75 672.391 Q2301.77 672.368 2302.15 671.806 Q2301.4 671.384 2300.32 671.384 L2300.32 669.136 L2305.26 669.276 L2309.67 669.136 L2309.67 671.384 Q2307.75 671.384 2306.74 671.525 Q2305.76 671.642 2305.45 671.806 Q2305.17 671.97 2304.77 672.391 L2299.17 678.622 L2307.23 688.178 L2310.63 688.178 L2310.63 690.427 Z" fill="#000000" fill-rule="nonzero" fill-opacity="1" /><path clip-path="url(#clip870)" d="M1445.91 1423.18 L2352.76 1423.18 L2352.76 1071.73 L1445.91 1071.73  Z" fill="#ffffff" fill-rule="evenodd" fill-opacity="1"/>
<defs>
  <clipPath id="clip875">
    <rect x="1445" y="1071" width="908" height="352"/>
  </clipPath>
</defs>
<polyline clip-path="url(#clip875)" style="stroke:#000000; stroke-linecap:round; stroke-linejoin:round; stroke-width:2; stroke-opacity:0.1; fill:none" points="1471.57,1423.18 1471.57,1071.73 "/>
<polyline clip-path="url(#clip875)" style="stroke:#000000; stroke-linecap:round; stroke-linejoin:round; stroke-width:2; stroke-opacity:0.1; fill:none" points="1723.2,1423.18 1723.2,1071.73 "/>
<polyline clip-path="url(#clip875)" style="stroke:#000000; stroke-linecap:round; stroke-linejoin:round; stroke-width:2; stroke-opacity:0.1; fill:none" points="1974.82,1423.18 1974.82,1071.73 "/>
<polyline clip-path="url(#clip875)" style="stroke:#000000; stroke-linecap:round; stroke-linejoin:round; stroke-width:2; stroke-opacity:0.1; fill:none" points="2226.44,1423.18 2226.44,1071.73 "/>
<polyline clip-path="url(#clip875)" style="stroke:#000000; stroke-linecap:round; stroke-linejoin:round; stroke-width:2; stroke-opacity:0.1; fill:none" points="1445.91,1415.3 2352.76,1415.3 "/>
<polyline clip-path="url(#clip875)" style="stroke:#000000; stroke-linecap:round; stroke-linejoin:round; stroke-width:2; stroke-opacity:0.1; fill:none" points="1445.91,1329.42 2352.76,1329.42 "/>
<polyline clip-path="url(#clip875)" style="stroke:#000000; stroke-linecap:round; stroke-linejoin:round; stroke-width:2; stroke-opacity:0.1; fill:none" points="1445.91,1243.53 2352.76,1243.53 "/>
<polyline clip-path="url(#clip875)" style="stroke:#000000; stroke-linecap:round; stroke-linejoin:round; stroke-width:2; stroke-opacity:0.1; fill:none" points="1445.91,1157.65 2352.76,1157.65 "/>
<polyline clip-path="url(#clip875)" style="stroke:#000000; stroke-linecap:round; stroke-linejoin:round; stroke-width:2; stroke-opacity:0.1; fill:none" points="1445.91,1071.76 2352.76,1071.76 "/>
<polyline clip-path="url(#clip870)" style="stroke:#000000; stroke-linecap:round; stroke-linejoin:round; stroke-width:4; stroke-opacity:1; fill:none" points="1445.91,1423.18 2352.76,1423.18 "/>
<polyline clip-path="url(#clip870)" style="stroke:#000000; stroke-linecap:round; stroke-linejoin:round; stroke-width:4; stroke-opacity:1; fill:none" points="1471.57,1423.18 1471.57,1404.28 "/>
<polyline clip-path="url(#clip870)" style="stroke:#000000; stroke-linecap:round; stroke-linejoin:round; stroke-width:4; stroke-opacity:1; fill:none" points="1723.2,1423.18 1723.2,1404.28 "/>
<polyline clip-path="url(#clip870)" style="stroke:#000000; stroke-linecap:round; stroke-linejoin:round; stroke-width:4; stroke-opacity:1; fill:none" points="1974.82,1423.18 1974.82,1404.28 "/>
<polyline clip-path="url(#clip870)" style="stroke:#000000; stroke-linecap:round; stroke-linejoin:round; stroke-width:4; stroke-opacity:1; fill:none" points="2226.44,1423.18 2226.44,1404.28 "/>
<path clip-path="url(#clip870)" d="M1471.57 1454.1 Q1467.96 1454.1 1466.13 1457.66 Q1464.33 1461.2 1464.33 1468.33 Q1464.33 1475.44 1466.13 1479.01 Q1467.96 1482.55 1471.57 1482.55 Q1475.21 1482.55 1477.01 1479.01 Q1478.84 1475.44 1478.84 1468.33 Q1478.84 1461.2 1477.01 1457.66 Q1475.21 1454.1 1471.57 1454.1 M1471.57 1450.39 Q1477.38 1450.39 1480.44 1455 Q1483.52 1459.58 1483.52 1468.33 Q1483.52 1477.06 1480.44 1481.67 Q1477.38 1486.25 1471.57 1486.25 Q1465.76 1486.25 1462.68 1481.67 Q1459.63 1477.06 1459.63 1468.33 Q1459.63 1459.58 1462.68 1455 Q1465.76 1450.39 1471.57 1450.39 Z" fill="#000000" fill-rule="nonzero" fill-opacity="1" /><path clip-path="url(#clip870)" d="M1713.58 1481.64 L1721.22 1481.64 L1721.22 1455.28 L1712.91 1456.95 L1712.91 1452.69 L1721.17 1451.02 L1725.85 1451.02 L1725.85 1481.64 L1733.49 1481.64 L1733.49 1485.58 L1713.58 1485.58 L1713.58 1481.64 Z" fill="#000000" fill-rule="nonzero" fill-opacity="1" /><path clip-path="url(#clip870)" d="M1969.47 1481.64 L1985.79 1481.64 L1985.79 1485.58 L1963.85 1485.58 L1963.85 1481.64 Q1966.51 1478.89 1971.09 1474.26 Q1975.7 1469.61 1976.88 1468.27 Q1979.12 1465.74 1980 1464.01 Q1980.91 1462.25 1980.91 1460.56 Q1980.91 1457.8 1978.96 1456.07 Q1977.04 1454.33 1973.94 1454.33 Q1971.74 1454.33 1969.29 1455.09 Q1966.86 1455.86 1964.08 1457.41 L1964.08 1452.69 Q1966.9 1451.55 1969.36 1450.97 Q1971.81 1450.39 1973.85 1450.39 Q1979.22 1450.39 1982.41 1453.08 Q1985.61 1455.77 1985.61 1460.26 Q1985.61 1462.39 1984.8 1464.31 Q1984.01 1466.2 1981.9 1468.8 Q1981.32 1469.47 1978.22 1472.69 Q1975.12 1475.88 1969.47 1481.64 Z" fill="#000000" fill-rule="nonzero" fill-opacity="1" /><path clip-path="url(#clip870)" d="M2230.69 1466.95 Q2234.05 1467.66 2235.92 1469.93 Q2237.82 1472.2 2237.82 1475.53 Q2237.82 1480.65 2234.3 1483.45 Q2230.78 1486.25 2224.3 1486.25 Q2222.12 1486.25 2219.81 1485.81 Q2217.52 1485.39 2215.06 1484.54 L2215.06 1480.02 Q2217.01 1481.16 2219.32 1481.74 Q2221.64 1482.32 2224.16 1482.32 Q2228.56 1482.32 2230.85 1480.58 Q2233.17 1478.84 2233.17 1475.53 Q2233.17 1472.48 2231.01 1470.77 Q2228.88 1469.03 2225.06 1469.03 L2221.04 1469.03 L2221.04 1465.19 L2225.25 1465.19 Q2228.7 1465.19 2230.53 1463.82 Q2232.36 1462.43 2232.36 1459.84 Q2232.36 1457.18 2230.46 1455.77 Q2228.58 1454.33 2225.06 1454.33 Q2223.14 1454.33 2220.94 1454.75 Q2218.74 1455.16 2216.11 1456.04 L2216.11 1451.88 Q2218.77 1451.14 2221.08 1450.77 Q2223.42 1450.39 2225.48 1450.39 Q2230.8 1450.39 2233.91 1452.83 Q2237.01 1455.23 2237.01 1459.35 Q2237.01 1462.22 2235.36 1464.21 Q2233.72 1466.18 2230.69 1466.95 Z" fill="#000000" fill-rule="nonzero" fill-opacity="1" /><path clip-path="url(#clip870)" d="M1769.5 1520.52 L1809.7 1520.52 L1809.7 1525.93 L1792.83 1525.93 L1792.83 1568.04 L1786.37 1568.04 L1786.37 1525.93 L1769.5 1525.93 L1769.5 1520.52 Z" fill="#000000" fill-rule="nonzero" fill-opacity="1" /><path clip-path="url(#clip870)" d="M1813.65 1532.4 L1819.51 1532.4 L1819.51 1568.04 L1813.65 1568.04 L1813.65 1532.4 M1813.65 1518.52 L1819.51 1518.52 L1819.51 1525.93 L1813.65 1525.93 L1813.65 1518.52 Z" fill="#000000" fill-rule="nonzero" fill-opacity="1" /><path clip-path="url(#clip870)" d="M1859.51 1539.24 Q1861.71 1535.29 1864.77 1533.41 Q1867.82 1531.54 1871.96 1531.54 Q1877.53 1531.54 1880.55 1535.45 Q1883.58 1539.33 1883.58 1546.53 L1883.58 1568.04 L1877.69 1568.04 L1877.69 1546.72 Q1877.69 1541.59 1875.87 1539.11 Q1874.06 1536.63 1870.34 1536.63 Q1865.78 1536.63 1863.14 1539.65 Q1860.5 1542.68 1860.5 1547.9 L1860.5 1568.04 L1854.61 1568.04 L1854.61 1546.72 Q1854.61 1541.56 1852.8 1539.11 Q1850.98 1536.63 1847.2 1536.63 Q1842.71 1536.63 1840.07 1539.68 Q1837.43 1542.71 1837.43 1547.9 L1837.43 1568.04 L1831.54 1568.04 L1831.54 1532.4 L1837.43 1532.4 L1837.43 1537.93 Q1839.43 1534.66 1842.23 1533.1 Q1845.03 1531.54 1848.88 1531.54 Q1852.77 1531.54 1855.47 1533.51 Q1858.21 1535.48 1859.51 1539.24 Z" fill="#000000" fill-rule="nonzero" fill-opacity="1" /><path clip-path="url(#clip870)" d="M1925.75 1548.76 L1925.75 1551.62 L1898.82 1551.62 Q1899.2 1557.67 1902.45 1560.85 Q1905.73 1564 1911.55 1564 Q1914.93 1564 1918.08 1563.17 Q1921.26 1562.35 1924.38 1560.69 L1924.38 1566.23 Q1921.23 1567.57 1917.92 1568.27 Q1914.61 1568.97 1911.2 1568.97 Q1902.67 1568.97 1897.68 1564 Q1892.71 1559.04 1892.71 1550.57 Q1892.71 1541.82 1897.42 1536.69 Q1902.16 1531.54 1910.19 1531.54 Q1917.38 1531.54 1921.55 1536.18 Q1925.75 1540.8 1925.75 1548.76 M1919.89 1547.04 Q1919.83 1542.23 1917.19 1539.37 Q1914.58 1536.5 1910.25 1536.5 Q1905.35 1536.5 1902.39 1539.27 Q1899.46 1542.04 1899.01 1547.07 L1919.89 1547.04 Z" fill="#000000" fill-rule="nonzero" fill-opacity="1" /><path clip-path="url(#clip870)" d="M1970.15 1518.58 Q1965.89 1525.9 1963.82 1533.06 Q1961.75 1540.23 1961.75 1547.58 Q1961.75 1554.93 1963.82 1562.16 Q1965.92 1569.35 1970.15 1576.64 L1965.06 1576.64 Q1960.28 1569.16 1957.9 1561.93 Q1955.54 1554.71 1955.54 1547.58 Q1955.54 1540.48 1957.9 1533.29 Q1960.25 1526.09 1965.06 1518.58 L1970.15 1518.58 Z" fill="#000000" fill-rule="nonzero" fill-opacity="1" /><path clip-path="url(#clip870)" d="M2004.24 1533.45 L2004.24 1538.98 Q2001.76 1537.71 1999.08 1537.07 Q1996.41 1536.44 1993.54 1536.44 Q1989.18 1536.44 1986.99 1537.77 Q1984.82 1539.11 1984.82 1541.79 Q1984.82 1543.82 1986.38 1545 Q1987.94 1546.15 1992.65 1547.2 L1994.66 1547.64 Q2000.9 1548.98 2003.51 1551.43 Q2006.15 1553.85 2006.15 1558.21 Q2006.15 1563.17 2002.2 1566.07 Q1998.29 1568.97 1991.41 1568.97 Q1988.55 1568.97 1985.43 1568.39 Q1982.34 1567.85 1978.9 1566.74 L1978.9 1560.69 Q1982.15 1562.38 1985.3 1563.24 Q1988.45 1564.07 1991.54 1564.07 Q1995.68 1564.07 1997.9 1562.66 Q2000.13 1561.23 2000.13 1558.65 Q2000.13 1556.27 1998.51 1554.99 Q1996.92 1553.72 1991.48 1552.54 L1989.44 1552.07 Q1984 1550.92 1981.58 1548.56 Q1979.16 1546.18 1979.16 1542.04 Q1979.16 1537.01 1982.72 1534.27 Q1986.29 1531.54 1992.84 1531.54 Q1996.09 1531.54 1998.96 1532.01 Q2001.82 1532.49 2004.24 1533.45 Z" fill="#000000" fill-rule="nonzero" fill-opacity="1" /><path clip-path="url(#clip870)" d="M2014.55 1518.58 L2019.64 1518.58 Q2024.42 1526.09 2026.77 1533.29 Q2029.16 1540.48 2029.16 1547.58 Q2029.16 1554.71 2026.77 1561.93 Q2024.42 1569.16 2019.64 1576.64 L2014.55 1576.64 Q2018.78 1569.35 2020.85 1562.16 Q2022.95 1554.93 2022.95 1547.58 Q2022.95 1540.23 2020.85 1533.06 Q2018.78 1525.9 2014.55 1518.58 Z" fill="#000000" fill-rule="nonzero" fill-opacity="1" /><polyline clip-path="url(#clip870)" style="stroke:#000000; stroke-linecap:round; stroke-linejoin:round; stroke-width:4; stroke-opacity:1; fill:none" points="1445.91,1423.18 1445.91,1071.73 "/>
<polyline clip-path="url(#clip870)" style="stroke:#000000; stroke-linecap:round; stroke-linejoin:round; stroke-width:4; stroke-opacity:1; fill:none" points="1445.91,1415.3 1464.81,1415.3 "/>
<polyline clip-path="url(#clip870)" style="stroke:#000000; stroke-linecap:round; stroke-linejoin:round; stroke-width:4; stroke-opacity:1; fill:none" points="1445.91,1329.42 1464.81,1329.42 "/>
<polyline clip-path="url(#clip870)" style="stroke:#000000; stroke-linecap:round; stroke-linejoin:round; stroke-width:4; stroke-opacity:1; fill:none" points="1445.91,1243.53 1464.81,1243.53 "/>
<polyline clip-path="url(#clip870)" style="stroke:#000000; stroke-linecap:round; stroke-linejoin:round; stroke-width:4; stroke-opacity:1; fill:none" points="1445.91,1157.65 1464.81,1157.65 "/>
<polyline clip-path="url(#clip870)" style="stroke:#000000; stroke-linecap:round; stroke-linejoin:round; stroke-width:4; stroke-opacity:1; fill:none" points="1445.91,1071.76 1464.81,1071.76 "/>
<path clip-path="url(#clip870)" d="M1272.32 1415.75 L1301.99 1415.75 L1301.99 1419.69 L1272.32 1419.69 L1272.32 1415.75 Z" fill="#000000" fill-rule="nonzero" fill-opacity="1" /><path clip-path="url(#clip870)" d="M1322.08 1401.1 Q1318.47 1401.1 1316.64 1404.66 Q1314.84 1408.21 1314.84 1415.34 Q1314.84 1422.44 1316.64 1426.01 Q1318.47 1429.55 1322.08 1429.55 Q1325.72 1429.55 1327.52 1426.01 Q1329.35 1422.44 1329.35 1415.34 Q1329.35 1408.21 1327.52 1404.66 Q1325.72 1401.1 1322.08 1401.1 M1322.08 1397.4 Q1327.89 1397.4 1330.95 1402 Q1334.03 1406.59 1334.03 1415.34 Q1334.03 1424.06 1330.95 1428.67 Q1327.89 1433.25 1322.08 1433.25 Q1316.27 1433.25 1313.2 1428.67 Q1310.14 1424.06 1310.14 1415.34 Q1310.14 1406.59 1313.2 1402 Q1316.27 1397.4 1322.08 1397.4 Z" fill="#000000" fill-rule="nonzero" fill-opacity="1" /><path clip-path="url(#clip870)" d="M1342.25 1426.7 L1347.13 1426.7 L1347.13 1432.58 L1342.25 1432.58 L1342.25 1426.7 Z" fill="#000000" fill-rule="nonzero" fill-opacity="1" /><path clip-path="url(#clip870)" d="M1367.32 1401.1 Q1363.7 1401.1 1361.88 1404.66 Q1360.07 1408.21 1360.07 1415.34 Q1360.07 1422.44 1361.88 1426.01 Q1363.7 1429.55 1367.32 1429.55 Q1370.95 1429.55 1372.76 1426.01 Q1374.58 1422.44 1374.58 1415.34 Q1374.58 1408.21 1372.76 1404.66 Q1370.95 1401.1 1367.32 1401.1 M1367.32 1397.4 Q1373.13 1397.4 1376.18 1402 Q1379.26 1406.59 1379.26 1415.34 Q1379.26 1424.06 1376.18 1428.67 Q1373.13 1433.25 1367.32 1433.25 Q1361.51 1433.25 1358.43 1428.67 Q1355.37 1424.06 1355.37 1415.34 Q1355.37 1406.59 1358.43 1402 Q1361.51 1397.4 1367.32 1397.4 Z" fill="#000000" fill-rule="nonzero" fill-opacity="1" /><path clip-path="url(#clip870)" d="M1400.32 1402.09 L1388.52 1420.54 L1400.32 1420.54 L1400.32 1402.09 M1399.1 1398.02 L1404.98 1398.02 L1404.98 1420.54 L1409.91 1420.54 L1409.91 1424.43 L1404.98 1424.43 L1404.98 1432.58 L1400.32 1432.58 L1400.32 1424.43 L1384.72 1424.43 L1384.72 1419.92 L1399.1 1398.02 Z" fill="#000000" fill-rule="nonzero" fill-opacity="1" /><path clip-path="url(#clip870)" d="M1274.4 1329.87 L1304.08 1329.87 L1304.08 1333.8 L1274.4 1333.8 L1274.4 1329.87 Z" fill="#000000" fill-rule="nonzero" fill-opacity="1" /><path clip-path="url(#clip870)" d="M1324.17 1315.21 Q1320.56 1315.21 1318.73 1318.78 Q1316.92 1322.32 1316.92 1329.45 Q1316.92 1336.56 1318.73 1340.12 Q1320.56 1343.66 1324.17 1343.66 Q1327.8 1343.66 1329.61 1340.12 Q1331.44 1336.56 1331.44 1329.45 Q1331.44 1322.32 1329.61 1318.78 Q1327.8 1315.21 1324.17 1315.21 M1324.17 1311.51 Q1329.98 1311.51 1333.03 1316.12 Q1336.11 1320.7 1336.11 1329.45 Q1336.11 1338.18 1333.03 1342.78 Q1329.98 1347.37 1324.17 1347.37 Q1318.36 1347.37 1315.28 1342.78 Q1312.22 1338.18 1312.22 1329.45 Q1312.22 1320.7 1315.28 1316.12 Q1318.36 1311.51 1324.17 1311.51 Z" fill="#000000" fill-rule="nonzero" fill-opacity="1" /><path clip-path="url(#clip870)" d="M1344.33 1340.82 L1349.21 1340.82 L1349.21 1346.7 L1344.33 1346.7 L1344.33 1340.82 Z" fill="#000000" fill-rule="nonzero" fill-opacity="1" /><path clip-path="url(#clip870)" d="M1369.4 1315.21 Q1365.79 1315.21 1363.96 1318.78 Q1362.15 1322.32 1362.15 1329.45 Q1362.15 1336.56 1363.96 1340.12 Q1365.79 1343.66 1369.4 1343.66 Q1373.03 1343.66 1374.84 1340.12 Q1376.67 1336.56 1376.67 1329.45 Q1376.67 1322.32 1374.84 1318.78 Q1373.03 1315.21 1369.4 1315.21 M1369.4 1311.51 Q1375.21 1311.51 1378.26 1316.12 Q1381.34 1320.7 1381.34 1329.45 Q1381.34 1338.18 1378.26 1342.78 Q1375.21 1347.37 1369.4 1347.37 Q1363.59 1347.37 1360.51 1342.78 Q1357.45 1338.18 1357.45 1329.45 Q1357.45 1320.7 1360.51 1316.12 Q1363.59 1311.51 1369.4 1311.51 Z" fill="#000000" fill-rule="nonzero" fill-opacity="1" /><path clip-path="url(#clip870)" d="M1393.59 1342.76 L1409.91 1342.76 L1409.91 1346.7 L1387.96 1346.7 L1387.96 1342.76 Q1390.63 1340.01 1395.21 1335.38 Q1399.82 1330.72 1401 1329.38 Q1403.24 1326.86 1404.12 1325.12 Q1405.02 1323.36 1405.02 1321.67 Q1405.02 1318.92 1403.08 1317.18 Q1401.16 1315.45 1398.06 1315.45 Q1395.86 1315.45 1393.4 1316.21 Q1390.97 1316.97 1388.19 1318.52 L1388.19 1313.8 Q1391.02 1312.67 1393.47 1312.09 Q1395.93 1311.51 1397.96 1311.51 Q1403.33 1311.51 1406.53 1314.2 Q1409.72 1316.88 1409.72 1321.37 Q1409.72 1323.5 1408.91 1325.42 Q1408.13 1327.32 1406.02 1329.91 Q1405.44 1330.58 1402.34 1333.8 Q1399.24 1337 1393.59 1342.76 Z" fill="#000000" fill-rule="nonzero" fill-opacity="1" /><path clip-path="url(#clip870)" d="M1322.57 1229.33 Q1318.96 1229.33 1317.13 1232.89 Q1315.32 1236.44 1315.32 1243.57 Q1315.32 1250.67 1317.13 1254.24 Q1318.96 1257.78 1322.57 1257.78 Q1326.2 1257.78 1328.01 1254.24 Q1329.84 1250.67 1329.84 1243.57 Q1329.84 1236.44 1328.01 1232.89 Q1326.2 1229.33 1322.57 1229.33 M1322.57 1225.63 Q1328.38 1225.63 1331.44 1230.23 Q1334.51 1234.82 1334.51 1243.57 Q1334.51 1252.29 1331.44 1256.9 Q1328.38 1261.48 1322.57 1261.48 Q1316.76 1261.48 1313.68 1256.9 Q1310.63 1252.29 1310.63 1243.57 Q1310.63 1234.82 1313.68 1230.23 Q1316.76 1225.63 1322.57 1225.63 Z" fill="#000000" fill-rule="nonzero" fill-opacity="1" /><path clip-path="url(#clip870)" d="M1342.73 1254.93 L1347.62 1254.93 L1347.62 1260.81 L1342.73 1260.81 L1342.73 1254.93 Z" fill="#000000" fill-rule="nonzero" fill-opacity="1" /><path clip-path="url(#clip870)" d="M1367.8 1229.33 Q1364.19 1229.33 1362.36 1232.89 Q1360.56 1236.44 1360.56 1243.57 Q1360.56 1250.67 1362.36 1254.24 Q1364.19 1257.78 1367.8 1257.78 Q1371.44 1257.78 1373.24 1254.24 Q1375.07 1250.67 1375.07 1243.57 Q1375.07 1236.44 1373.24 1232.89 Q1371.44 1229.33 1367.8 1229.33 M1367.8 1225.63 Q1373.61 1225.63 1376.67 1230.23 Q1379.75 1234.82 1379.75 1243.57 Q1379.75 1252.29 1376.67 1256.9 Q1373.61 1261.48 1367.8 1261.48 Q1361.99 1261.48 1358.91 1256.9 Q1355.86 1252.29 1355.86 1243.57 Q1355.86 1234.82 1358.91 1230.23 Q1361.99 1225.63 1367.8 1225.63 Z" fill="#000000" fill-rule="nonzero" fill-opacity="1" /><path clip-path="url(#clip870)" d="M1397.96 1229.33 Q1394.35 1229.33 1392.52 1232.89 Q1390.72 1236.44 1390.72 1243.57 Q1390.72 1250.67 1392.52 1254.24 Q1394.35 1257.78 1397.96 1257.78 Q1401.6 1257.78 1403.4 1254.24 Q1405.23 1250.67 1405.23 1243.57 Q1405.23 1236.44 1403.4 1232.89 Q1401.6 1229.33 1397.96 1229.33 M1397.96 1225.63 Q1403.77 1225.63 1406.83 1230.23 Q1409.91 1234.82 1409.91 1243.57 Q1409.91 1252.29 1406.83 1256.9 Q1403.77 1261.48 1397.96 1261.48 Q1392.15 1261.48 1389.07 1256.9 Q1386.02 1252.29 1386.02 1243.57 Q1386.02 1234.82 1389.07 1230.23 Q1392.15 1225.63 1397.96 1225.63 Z" fill="#000000" fill-rule="nonzero" fill-opacity="1" /><path clip-path="url(#clip870)" d="M1324.17 1143.44 Q1320.56 1143.44 1318.73 1147.01 Q1316.92 1150.55 1316.92 1157.68 Q1316.92 1164.79 1318.73 1168.35 Q1320.56 1171.89 1324.17 1171.89 Q1327.8 1171.89 1329.61 1168.35 Q1331.44 1164.79 1331.44 1157.68 Q1331.44 1150.55 1329.61 1147.01 Q1327.8 1143.44 1324.17 1143.44 M1324.17 1139.74 Q1329.98 1139.74 1333.03 1144.35 Q1336.11 1148.93 1336.11 1157.68 Q1336.11 1166.41 1333.03 1171.01 Q1329.98 1175.6 1324.17 1175.6 Q1318.36 1175.6 1315.28 1171.01 Q1312.22 1166.41 1312.22 1157.68 Q1312.22 1148.93 1315.28 1144.35 Q1318.36 1139.74 1324.17 1139.74 Z" fill="#000000" fill-rule="nonzero" fill-opacity="1" /><path clip-path="url(#clip870)" d="M1344.33 1169.05 L1349.21 1169.05 L1349.21 1174.93 L1344.33 1174.93 L1344.33 1169.05 Z" fill="#000000" fill-rule="nonzero" fill-opacity="1" /><path clip-path="url(#clip870)" d="M1369.4 1143.44 Q1365.79 1143.44 1363.96 1147.01 Q1362.15 1150.55 1362.15 1157.68 Q1362.15 1164.79 1363.96 1168.35 Q1365.79 1171.89 1369.4 1171.89 Q1373.03 1171.89 1374.84 1168.35 Q1376.67 1164.79 1376.67 1157.68 Q1376.67 1150.55 1374.84 1147.01 Q1373.03 1143.44 1369.4 1143.44 M1369.4 1139.74 Q1375.21 1139.74 1378.26 1144.35 Q1381.34 1148.93 1381.34 1157.68 Q1381.34 1166.41 1378.26 1171.01 Q1375.21 1175.6 1369.4 1175.6 Q1363.59 1175.6 1360.51 1171.01 Q1357.45 1166.41 1357.45 1157.68 Q1357.45 1148.93 1360.51 1144.35 Q1363.59 1139.74 1369.4 1139.74 Z" fill="#000000" fill-rule="nonzero" fill-opacity="1" /><path clip-path="url(#clip870)" d="M1393.59 1170.99 L1409.91 1170.99 L1409.91 1174.93 L1387.96 1174.93 L1387.96 1170.99 Q1390.63 1168.24 1395.21 1163.61 Q1399.82 1158.95 1401 1157.61 Q1403.24 1155.09 1404.12 1153.35 Q1405.02 1151.59 1405.02 1149.9 Q1405.02 1147.15 1403.08 1145.41 Q1401.16 1143.68 1398.06 1143.68 Q1395.86 1143.68 1393.4 1144.44 Q1390.97 1145.2 1388.19 1146.75 L1388.19 1142.03 Q1391.02 1140.9 1393.47 1140.32 Q1395.93 1139.74 1397.96 1139.74 Q1403.33 1139.74 1406.53 1142.43 Q1409.72 1145.11 1409.72 1149.6 Q1409.72 1151.73 1408.91 1153.65 Q1408.13 1155.55 1406.02 1158.14 Q1405.44 1158.81 1402.34 1162.03 Q1399.24 1165.23 1393.59 1170.99 Z" fill="#000000" fill-rule="nonzero" fill-opacity="1" /><path clip-path="url(#clip870)" d="M1322.08 1057.56 Q1318.47 1057.56 1316.64 1061.12 Q1314.84 1064.67 1314.84 1071.8 Q1314.84 1078.9 1316.64 1082.47 Q1318.47 1086.01 1322.08 1086.01 Q1325.72 1086.01 1327.52 1082.47 Q1329.35 1078.9 1329.35 1071.8 Q1329.35 1064.67 1327.52 1061.12 Q1325.72 1057.56 1322.08 1057.56 M1322.08 1053.86 Q1327.89 1053.86 1330.95 1058.46 Q1334.03 1063.05 1334.03 1071.8 Q1334.03 1080.52 1330.95 1085.13 Q1327.89 1089.71 1322.08 1089.71 Q1316.27 1089.71 1313.2 1085.13 Q1310.14 1080.52 1310.14 1071.8 Q1310.14 1063.05 1313.2 1058.46 Q1316.27 1053.86 1322.08 1053.86 Z" fill="#000000" fill-rule="nonzero" fill-opacity="1" /><path clip-path="url(#clip870)" d="M1342.25 1083.16 L1347.13 1083.16 L1347.13 1089.04 L1342.25 1089.04 L1342.25 1083.16 Z" fill="#000000" fill-rule="nonzero" fill-opacity="1" /><path clip-path="url(#clip870)" d="M1367.32 1057.56 Q1363.7 1057.56 1361.88 1061.12 Q1360.07 1064.67 1360.07 1071.8 Q1360.07 1078.9 1361.88 1082.47 Q1363.7 1086.01 1367.32 1086.01 Q1370.95 1086.01 1372.76 1082.47 Q1374.58 1078.9 1374.58 1071.8 Q1374.58 1064.67 1372.76 1061.12 Q1370.95 1057.56 1367.32 1057.56 M1367.32 1053.86 Q1373.13 1053.86 1376.18 1058.46 Q1379.26 1063.05 1379.26 1071.8 Q1379.26 1080.52 1376.18 1085.13 Q1373.13 1089.71 1367.32 1089.71 Q1361.51 1089.71 1358.43 1085.13 Q1355.37 1080.52 1355.37 1071.8 Q1355.37 1063.05 1358.43 1058.46 Q1361.51 1053.86 1367.32 1053.86 Z" fill="#000000" fill-rule="nonzero" fill-opacity="1" /><path clip-path="url(#clip870)" d="M1400.32 1058.55 L1388.52 1077 L1400.32 1077 L1400.32 1058.55 M1399.1 1054.48 L1404.98 1054.48 L1404.98 1077 L1409.91 1077 L1409.91 1080.89 L1404.98 1080.89 L1404.98 1089.04 L1400.32 1089.04 L1400.32 1080.89 L1384.72 1080.89 L1384.72 1076.38 L1399.1 1054.48 Z" fill="#000000" fill-rule="nonzero" fill-opacity="1" /><path clip-path="url(#clip870)" d="M1182.01 1252.88 L1182.94 1253.44 Q1181.43 1256.93 1179.02 1261.28 Q1181.43 1265.63 1182.94 1269.13 L1182.01 1269.67 Q1178.7 1265.86 1176.15 1261.28 Q1178.72 1256.66 1182.01 1252.88 Z" fill="#000000" fill-rule="nonzero" fill-opacity="1" /><path clip-path="url(#clip870)" d="M1194.31 1249.71 Q1196.12 1249.71 1197.15 1250.84 Q1198.14 1251.97 1198.14 1253.26 Q1198.14 1254.48 1197.44 1255.12 Q1196.73 1255.77 1195.83 1255.77 Q1194.6 1255.77 1193.54 1254.87 Q1192.48 1253.96 1192.25 1252.61 Q1191.41 1253.93 1191.41 1255.9 Q1191.41 1257.18 1192.09 1258.31 Q1192.77 1259.41 1193.64 1260.08 Q1194.51 1260.73 1195.76 1261.31 Q1196.99 1261.85 1197.73 1262.08 Q1198.43 1262.27 1199.21 1262.43 L1208.23 1264.69 Q1212.51 1265.78 1214.02 1265.78 Q1215.89 1265.78 1217.15 1264.88 Q1218.37 1263.98 1218.37 1262.18 Q1218.37 1261.47 1218.18 1260.66 Q1217.95 1259.86 1217.37 1258.83 Q1216.76 1257.76 1215.86 1256.83 Q1214.92 1255.86 1213.35 1254.93 Q1211.77 1254 1209.74 1253.38 Q1209.03 1253.19 1209.03 1252.55 Q1209.03 1251.74 1209.67 1251.74 Q1210.22 1251.74 1211.38 1252.19 Q1212.51 1252.61 1213.99 1253.55 Q1215.44 1254.45 1216.76 1255.64 Q1218.05 1256.83 1218.95 1258.6 Q1219.85 1260.37 1219.85 1262.31 Q1219.85 1265.08 1218.37 1266.91 Q1216.89 1268.75 1214.83 1269.42 Q1215.12 1269.58 1215.5 1269.81 Q1215.89 1270.03 1216.76 1270.71 Q1217.6 1271.36 1218.24 1272.1 Q1218.85 1272.84 1219.34 1274 Q1219.85 1275.12 1219.85 1276.35 Q1219.85 1277.89 1219.4 1279.28 Q1218.95 1280.63 1217.92 1281.6 Q1216.89 1282.56 1215.47 1282.56 Q1213.89 1282.56 1212.8 1281.5 Q1211.67 1280.41 1211.67 1278.92 Q1211.67 1277.99 1212.22 1277.25 Q1212.77 1276.48 1213.96 1276.48 Q1215.28 1276.48 1216.28 1277.38 Q1217.27 1278.28 1217.53 1279.57 Q1218.37 1278.25 1218.37 1276.28 Q1218.37 1274.16 1216.5 1272.48 Q1214.63 1270.81 1211.51 1270 Q1204.01 1268.01 1200.66 1267.23 Q1197.28 1266.46 1195.83 1266.46 Q1194.47 1266.46 1193.54 1266.81 Q1192.61 1267.17 1192.19 1267.78 Q1191.74 1268.36 1191.57 1268.91 Q1191.41 1269.42 1191.41 1270 Q1191.41 1270.97 1191.8 1272.06 Q1192.19 1273.13 1193.09 1274.41 Q1193.96 1275.67 1195.76 1276.86 Q1197.56 1278.05 1200.04 1278.86 Q1200.79 1279.02 1200.79 1279.73 Q1200.75 1280.5 1200.11 1280.5 Q1199.56 1280.5 1198.43 1280.08 Q1197.28 1279.63 1195.83 1278.73 Q1194.38 1277.8 1193.09 1276.6 Q1191.77 1275.38 1190.87 1273.61 Q1189.96 1271.81 1189.96 1269.87 Q1189.96 1269 1190.16 1268.17 Q1190.32 1267.3 1190.8 1266.27 Q1191.28 1265.2 1192.35 1264.27 Q1193.41 1263.34 1194.96 1262.76 Q1194.22 1262.37 1193.51 1261.85 Q1192.8 1261.31 1191.93 1260.47 Q1191.03 1259.6 1190.51 1258.41 Q1189.96 1257.18 1189.96 1255.83 Q1189.96 1254.51 1190.32 1253.22 Q1190.64 1251.94 1191.7 1250.84 Q1192.73 1249.71 1194.31 1249.71 Z" fill="#000000" fill-rule="nonzero" fill-opacity="1" /><path clip-path="url(#clip870)" d="M1231.9 1242.25 Q1230.52 1242.25 1229.87 1241.46 Q1229.22 1240.68 1229.22 1239.66 Q1229.22 1238.6 1229.92 1237.86 Q1230.59 1237.09 1231.79 1237.09 Q1233.07 1237.09 1233.79 1237.99 Q1234.51 1238.87 1234.33 1240.13 Q1236.18 1239.03 1237.02 1237 Q1237.85 1234.95 1237.85 1233.06 Q1237.85 1231.07 1236.14 1229.47 Q1234.42 1227.85 1230.23 1227.85 Q1226.67 1227.85 1224.62 1229.25 Q1222.57 1230.62 1222.57 1233.35 L1222.57 1235.38 Q1222.57 1236.08 1222.5 1236.28 Q1222.43 1236.48 1222.05 1236.48 Q1221.6 1236.48 1221.51 1235.78 Q1221.51 1235.08 1221.37 1233.98 Q1221.28 1231.3 1218.96 1229.88 Q1216.79 1228.59 1213.71 1228.59 Q1210.89 1228.59 1209.72 1229.94 Q1208.52 1231.27 1208.52 1233.01 Q1208.52 1234.63 1209.2 1236.41 Q1209.87 1238.2 1211.38 1239.17 Q1211.38 1236.3 1213.71 1236.3 Q1214.72 1236.3 1215.4 1236.96 Q1216.05 1237.59 1216.05 1238.65 Q1216.05 1239.66 1215.42 1240.34 Q1214.77 1241.01 1213.66 1241.01 Q1211.02 1241.01 1209.2 1238.67 Q1207.37 1236.3 1207.37 1232.83 Q1207.37 1229.4 1209.17 1226.88 Q1210.98 1224.33 1213.75 1224.33 Q1216.48 1224.33 1218.71 1226.13 Q1220.94 1227.94 1221.87 1230.8 Q1222.57 1227.28 1224.96 1225.19 Q1227.32 1223.09 1230.23 1223.09 Q1233.84 1223.09 1236.5 1225.93 Q1239.14 1228.77 1239.14 1232.92 Q1239.14 1236.75 1237.06 1239.5 Q1234.99 1242.25 1231.9 1242.25 Z" fill="#000000" fill-rule="nonzero" fill-opacity="1" /><polyline clip-path="url(#clip875)" style="stroke:#e26f46; stroke-linecap:round; stroke-linejoin:round; stroke-width:3; stroke-opacity:1; fill:none" stroke-dasharray="12, 6, 2, 6" points="1471.57,1243.53 1496.74,1096.24 1521.9,1081.68 1547.06,1412.23 1572.22,1413.23 1597.38,1371.53 1622.55,1402.61 1647.71,1413.22 1672.87,1396.19 1698.03,1335.3 1723.2,1265.95 1748.36,1291.64 1773.52,1285.09 1798.68,1262.73 1823.85,1269.38 1849.01,1230.39 1874.17,1228.88 1899.33,1268.95 1924.49,1201.6 1949.66,1249.65 1974.82,1223.16 1999.98,1275.68 2025.14,1258.07 2050.31,1240.31 2075.47,1234.02 2100.63,1278.75 2125.79,1276.11 2150.95,1270.24 2176.12,1289.58 2201.28,1255.44 2226.44,1264.52 2251.6,1221.86 2276.77,1266.79 2301.93,1267.43 2327.09,1294.18 "/>
</svg>
