<?xml version="1.0" encoding="utf-8"?>
<svg xmlns="http://www.w3.org/2000/svg" xmlns:xlink="http://www.w3.org/1999/xlink" width="600" height="400" viewBox="0 0 2400 1600">
<defs>
  <clipPath id="clip910">
    <rect x="0" y="0" width="2400" height="1600"/>
  </clipPath>
</defs>
<path clip-path="url(#clip910)" d="M0 1600 L2400 1600 L2400 0 L0 0  Z" fill="#ffffff" fill-rule="evenodd" fill-opacity="1"/>
<defs>
  <clipPath id="clip911">
    <rect x="203" y="47" width="2150" height="1377"/>
  </clipPath>
</defs>
<path clip-path="url(#clip910)" d="M203.964 1423.18 L1110.81 1423.18 L1110.81 47.2441 L203.964 47.2441  Z" fill="#ffffff" fill-rule="evenodd" fill-opacity="1"/>
<defs>
  <clipPath id="clip912">
    <rect x="203" y="47" width="908" height="1377"/>
  </clipPath>
</defs>
<polyline clip-path="url(#clip912)" style="stroke:#000000; stroke-linecap:round; stroke-linejoin:round; stroke-width:2; stroke-opacity:0.1; fill:none" points="229.629,1423.18 229.629,47.2441 "/>
<polyline clip-path="url(#clip912)" style="stroke:#000000; stroke-linecap:round; stroke-linejoin:round; stroke-width:2; stroke-opacity:0.1; fill:none" points="481.252,1423.18 481.252,47.2441 "/>
<polyline clip-path="url(#clip912)" style="stroke:#000000; stroke-linecap:round; stroke-linejoin:round; stroke-width:2; stroke-opacity:0.1; fill:none" points="732.874,1423.18 732.874,47.2441 "/>
<polyline clip-path="url(#clip912)" style="stroke:#000000; stroke-linecap:round; stroke-linejoin:round; stroke-width:2; stroke-opacity:0.1; fill:none" points="984.497,1423.18 984.497,47.2441 "/>
<polyline clip-path="url(#clip912)" style="stroke:#000000; stroke-linecap:round; stroke-linejoin:round; stroke-width:2; stroke-opacity:0.1; fill:none" points="203.964,1368.79 1110.81,1368.79 "/>
<polyline clip-path="url(#clip912)" style="stroke:#000000; stroke-linecap:round; stroke-linejoin:round; stroke-width:2; stroke-opacity:0.1; fill:none" points="203.964,1148.17 1110.81,1148.17 "/>
<polyline clip-path="url(#clip912)" style="stroke:#000000; stroke-linecap:round; stroke-linejoin:round; stroke-width:2; stroke-opacity:0.1; fill:none" points="203.964,927.546 1110.81,927.546 "/>
<polyline clip-path="url(#clip912)" style="stroke:#000000; stroke-linecap:round; stroke-linejoin:round; stroke-width:2; stroke-opacity:0.1; fill:none" points="203.964,706.922 1110.81,706.922 "/>
<polyline clip-path="url(#clip912)" style="stroke:#000000; stroke-linecap:round; stroke-linejoin:round; stroke-width:2; stroke-opacity:0.1; fill:none" points="203.964,486.299 1110.81,486.299 "/>
<polyline clip-path="url(#clip912)" style="stroke:#000000; stroke-linecap:round; stroke-linejoin:round; stroke-width:2; stroke-opacity:0.1; fill:none" points="203.964,265.675 1110.81,265.675 "/>
<polyline clip-path="url(#clip910)" style="stroke:#000000; stroke-linecap:round; stroke-linejoin:round; stroke-width:4; stroke-opacity:1; fill:none" points="203.964,1423.18 1110.81,1423.18 "/>
<polyline clip-path="url(#clip910)" style="stroke:#000000; stroke-linecap:round; stroke-linejoin:round; stroke-width:4; stroke-opacity:1; fill:none" points="229.629,1423.18 229.629,1404.28 "/>
<polyline clip-path="url(#clip910)" style="stroke:#000000; stroke-linecap:round; stroke-linejoin:round; stroke-width:4; stroke-opacity:1; fill:none" points="481.252,1423.18 481.252,1404.28 "/>
<polyline clip-path="url(#clip910)" style="stroke:#000000; stroke-linecap:round; stroke-linejoin:round; stroke-width:4; stroke-opacity:1; fill:none" points="732.874,1423.18 732.874,1404.28 "/>
<polyline clip-path="url(#clip910)" style="stroke:#000000; stroke-linecap:round; stroke-linejoin:round; stroke-width:4; stroke-opacity:1; fill:none" points="984.497,1423.18 984.497,1404.28 "/>
<path clip-path="url(#clip910)" d="M229.629 1454.1 Q226.018 1454.1 224.189 1457.66 Q222.384 1461.2 222.384 1468.33 Q222.384 1475.44 224.189 1479.01 Q226.018 1482.55 229.629 1482.55 Q233.263 1482.55 235.069 1479.01 Q236.898 1475.44 236.898 1468.33 Q236.898 1461.2 235.069 1457.66 Q233.263 1454.1 229.629 1454.1 M229.629 1450.39 Q235.439 1450.39 238.495 1455 Q241.573 1459.58 241.573 1468.33 Q241.573 1477.06 238.495 1481.67 Q235.439 1486.25 229.629 1486.25 Q223.819 1486.25 220.74 1481.67 Q217.685 1477.06 217.685 1468.33 Q217.685 1459.58 220.74 1455 Q223.819 1450.39 229.629 1450.39 Z" fill="#000000" fill-rule="nonzero" fill-opacity="1" /><path clip-path="url(#clip910)" d="M471.634 1481.64 L479.273 1481.64 L479.273 1455.28 L470.962 1456.95 L470.962 1452.69 L479.226 1451.02 L483.902 1451.02 L483.902 1481.64 L491.541 1481.64 L491.541 1485.58 L471.634 1485.58 L471.634 1481.64 Z" fill="#000000" fill-rule="nonzero" fill-opacity="1" /><path clip-path="url(#clip910)" d="M727.527 1481.64 L743.847 1481.64 L743.847 1485.58 L721.902 1485.58 L721.902 1481.64 Q724.564 1478.89 729.148 1474.26 Q733.754 1469.61 734.935 1468.27 Q737.18 1465.74 738.06 1464.01 Q738.962 1462.25 738.962 1460.56 Q738.962 1457.8 737.018 1456.07 Q735.097 1454.33 731.995 1454.33 Q729.796 1454.33 727.342 1455.09 Q724.912 1455.86 722.134 1457.41 L722.134 1452.69 Q724.958 1451.55 727.411 1450.97 Q729.865 1450.39 731.902 1450.39 Q737.273 1450.39 740.467 1453.08 Q743.661 1455.77 743.661 1460.26 Q743.661 1462.39 742.851 1464.31 Q742.064 1466.2 739.958 1468.8 Q739.379 1469.47 736.277 1472.69 Q733.175 1475.88 727.527 1481.64 Z" fill="#000000" fill-rule="nonzero" fill-opacity="1" /><path clip-path="url(#clip910)" d="M988.745 1466.95 Q992.101 1467.66 993.976 1469.93 Q995.874 1472.2 995.874 1475.53 Q995.874 1480.65 992.356 1483.45 Q988.837 1486.25 982.356 1486.25 Q980.18 1486.25 977.865 1485.81 Q975.574 1485.39 973.12 1484.54 L973.12 1480.02 Q975.064 1481.16 977.379 1481.74 Q979.694 1482.32 982.217 1482.32 Q986.615 1482.32 988.907 1480.58 Q991.222 1478.84 991.222 1475.53 Q991.222 1472.48 989.069 1470.77 Q986.939 1469.03 983.12 1469.03 L979.092 1469.03 L979.092 1465.19 L983.305 1465.19 Q986.754 1465.19 988.583 1463.82 Q990.411 1462.43 990.411 1459.84 Q990.411 1457.18 988.513 1455.77 Q986.638 1454.33 983.12 1454.33 Q981.199 1454.33 978.999 1454.75 Q976.8 1455.16 974.162 1456.04 L974.162 1451.88 Q976.824 1451.14 979.138 1450.77 Q981.476 1450.39 983.536 1450.39 Q988.861 1450.39 991.962 1452.83 Q995.064 1455.23 995.064 1459.35 Q995.064 1462.22 993.421 1464.21 Q991.777 1466.18 988.745 1466.95 Z" fill="#000000" fill-rule="nonzero" fill-opacity="1" /><path clip-path="url(#clip910)" d="M527.559 1520.52 L567.758 1520.52 L567.758 1525.93 L550.889 1525.93 L550.889 1568.04 L544.428 1568.04 L544.428 1525.93 L527.559 1525.93 L527.559 1520.52 Z" fill="#000000" fill-rule="nonzero" fill-opacity="1" /><path clip-path="url(#clip910)" d="M571.705 1532.4 L577.562 1532.4 L577.562 1568.04 L571.705 1568.04 L571.705 1532.4 M571.705 1518.52 L577.562 1518.52 L577.562 1525.93 L571.705 1525.93 L571.705 1518.52 Z" fill="#000000" fill-rule="nonzero" fill-opacity="1" /><path clip-path="url(#clip910)" d="M617.57 1539.24 Q619.766 1535.29 622.822 1533.41 Q625.877 1531.54 630.015 1531.54 Q635.585 1531.54 638.609 1535.45 Q641.633 1539.33 641.633 1546.53 L641.633 1568.04 L635.744 1568.04 L635.744 1546.72 Q635.744 1541.59 633.93 1539.11 Q632.116 1536.63 628.392 1536.63 Q623.84 1536.63 621.199 1539.65 Q618.557 1542.68 618.557 1547.9 L618.557 1568.04 L612.669 1568.04 L612.669 1546.72 Q612.669 1541.56 610.854 1539.11 Q609.04 1536.63 605.252 1536.63 Q600.765 1536.63 598.123 1539.68 Q595.481 1542.71 595.481 1547.9 L595.481 1568.04 L589.593 1568.04 L589.593 1532.4 L595.481 1532.4 L595.481 1537.93 Q597.486 1534.66 600.287 1533.1 Q603.088 1531.54 606.939 1531.54 Q610.822 1531.54 613.528 1533.51 Q616.265 1535.48 617.57 1539.24 Z" fill="#000000" fill-rule="nonzero" fill-opacity="1" /><path clip-path="url(#clip910)" d="M683.805 1548.76 L683.805 1551.62 L656.878 1551.62 Q657.26 1557.67 660.507 1560.85 Q663.785 1564 669.61 1564 Q672.984 1564 676.135 1563.17 Q679.317 1562.35 682.437 1560.69 L682.437 1566.23 Q679.286 1567.57 675.975 1568.27 Q672.665 1568.97 669.26 1568.97 Q660.73 1568.97 655.733 1564 Q650.767 1559.04 650.767 1550.57 Q650.767 1541.82 655.478 1536.69 Q660.22 1531.54 668.241 1531.54 Q675.434 1531.54 679.604 1536.18 Q683.805 1540.8 683.805 1548.76 M677.949 1547.04 Q677.885 1542.23 675.243 1539.37 Q672.633 1536.5 668.305 1536.5 Q663.403 1536.5 660.443 1539.27 Q657.515 1542.04 657.069 1547.07 L677.949 1547.04 Z" fill="#000000" fill-rule="nonzero" fill-opacity="1" /><path clip-path="url(#clip910)" d="M728.206 1518.58 Q723.941 1525.9 721.872 1533.06 Q719.803 1540.23 719.803 1547.58 Q719.803 1554.93 721.872 1562.16 Q723.973 1569.35 728.206 1576.64 L723.114 1576.64 Q718.339 1569.16 715.952 1561.93 Q713.597 1554.71 713.597 1547.58 Q713.597 1540.48 715.952 1533.29 Q718.307 1526.09 723.114 1518.58 L728.206 1518.58 Z" fill="#000000" fill-rule="nonzero" fill-opacity="1" /><path clip-path="url(#clip910)" d="M762.294 1533.45 L762.294 1538.98 Q759.812 1537.71 757.138 1537.07 Q754.465 1536.44 751.6 1536.44 Q747.24 1536.44 745.043 1537.77 Q742.879 1539.11 742.879 1541.79 Q742.879 1543.82 744.439 1545 Q745.998 1546.15 750.709 1547.2 L752.714 1547.64 Q758.952 1548.98 761.562 1551.43 Q764.204 1553.85 764.204 1558.21 Q764.204 1563.17 760.257 1566.07 Q756.343 1568.97 749.468 1568.97 Q746.603 1568.97 743.484 1568.39 Q740.396 1567.85 736.959 1566.74 L736.959 1560.69 Q740.205 1562.38 743.356 1563.24 Q746.508 1564.07 749.595 1564.07 Q753.733 1564.07 755.961 1562.66 Q758.189 1561.23 758.189 1558.65 Q758.189 1556.27 756.565 1554.99 Q754.974 1553.72 749.531 1552.54 L747.494 1552.07 Q742.052 1550.92 739.633 1548.56 Q737.214 1546.18 737.214 1542.04 Q737.214 1537.01 740.778 1534.27 Q744.343 1531.54 750.9 1531.54 Q754.146 1531.54 757.011 1532.01 Q759.876 1532.49 762.294 1533.45 Z" fill="#000000" fill-rule="nonzero" fill-opacity="1" /><path clip-path="url(#clip910)" d="M772.607 1518.58 L777.699 1518.58 Q782.474 1526.09 784.829 1533.29 Q787.216 1540.48 787.216 1547.58 Q787.216 1554.71 784.829 1561.93 Q782.474 1569.16 777.699 1576.64 L772.607 1576.64 Q776.84 1569.35 778.909 1562.16 Q781.01 1554.93 781.01 1547.58 Q781.01 1540.23 778.909 1533.06 Q776.84 1525.9 772.607 1518.58 Z" fill="#000000" fill-rule="nonzero" fill-opacity="1" /><polyline clip-path="url(#clip910)" style="stroke:#000000; stroke-linecap:round; stroke-linejoin:round; stroke-width:4; stroke-opacity:1; fill:none" points="203.964,1423.18 203.964,47.2441 "/>
<polyline clip-path="url(#clip910)" style="stroke:#000000; stroke-linecap:round; stroke-linejoin:round; stroke-width:4; stroke-opacity:1; fill:none" points="203.964,1368.79 222.861,1368.79 "/>
<polyline clip-path="url(#clip910)" style="stroke:#000000; stroke-linecap:round; stroke-linejoin:round; stroke-width:4; stroke-opacity:1; fill:none" points="203.964,1148.17 222.861,1148.17 "/>
<polyline clip-path="url(#clip910)" style="stroke:#000000; stroke-linecap:round; stroke-linejoin:round; stroke-width:4; stroke-opacity:1; fill:none" points="203.964,927.546 222.861,927.546 "/>
<polyline clip-path="url(#clip910)" style="stroke:#000000; stroke-linecap:round; stroke-linejoin:round; stroke-width:4; stroke-opacity:1; fill:none" points="203.964,706.922 222.861,706.922 "/>
<polyline clip-path="url(#clip910)" style="stroke:#000000; stroke-linecap:round; stroke-linejoin:round; stroke-width:4; stroke-opacity:1; fill:none" points="203.964,486.299 222.861,486.299 "/>
<polyline clip-path="url(#clip910)" style="stroke:#000000; stroke-linecap:round; stroke-linejoin:round; stroke-width:4; stroke-opacity:1; fill:none" points="203.964,265.675 222.861,265.675 "/>
<path clip-path="url(#clip910)" d="M156.019 1354.59 Q152.408 1354.59 150.579 1358.16 Q148.774 1361.7 148.774 1368.83 Q148.774 1375.93 150.579 1379.5 Q152.408 1383.04 156.019 1383.04 Q159.653 1383.04 161.459 1379.5 Q163.288 1375.93 163.288 1368.83 Q163.288 1361.7 161.459 1358.16 Q159.653 1354.59 156.019 1354.59 M156.019 1350.89 Q161.829 1350.89 164.885 1355.49 Q167.964 1360.08 167.964 1368.83 Q167.964 1377.55 164.885 1382.16 Q161.829 1386.74 156.019 1386.74 Q150.209 1386.74 147.13 1382.16 Q144.075 1377.55 144.075 1368.83 Q144.075 1360.08 147.13 1355.49 Q150.209 1350.89 156.019 1350.89 Z" fill="#000000" fill-rule="nonzero" fill-opacity="1" /><path clip-path="url(#clip910)" d="M147.061 1130.89 L165.417 1130.89 L165.417 1134.82 L151.343 1134.82 L151.343 1143.3 Q152.362 1142.95 153.38 1142.79 Q154.399 1142.6 155.417 1142.6 Q161.204 1142.6 164.584 1145.77 Q167.964 1148.95 167.964 1154.36 Q167.964 1159.94 164.491 1163.04 Q161.019 1166.12 154.7 1166.12 Q152.524 1166.12 150.255 1165.75 Q148.01 1165.38 145.603 1164.64 L145.603 1159.94 Q147.686 1161.07 149.908 1161.63 Q152.13 1162.19 154.607 1162.19 Q158.612 1162.19 160.95 1160.08 Q163.288 1157.97 163.288 1154.36 Q163.288 1150.75 160.95 1148.64 Q158.612 1146.54 154.607 1146.54 Q152.732 1146.54 150.857 1146.95 Q149.005 1147.37 147.061 1148.25 L147.061 1130.89 Z" fill="#000000" fill-rule="nonzero" fill-opacity="1" /><path clip-path="url(#clip910)" d="M116.668 940.891 L124.306 940.891 L124.306 914.525 L115.996 916.192 L115.996 911.933 L124.26 910.266 L128.936 910.266 L128.936 940.891 L136.575 940.891 L136.575 944.826 L116.668 944.826 L116.668 940.891 Z" fill="#000000" fill-rule="nonzero" fill-opacity="1" /><path clip-path="url(#clip910)" d="M156.019 913.345 Q152.408 913.345 150.579 916.91 Q148.774 920.451 148.774 927.581 Q148.774 934.687 150.579 938.252 Q152.408 941.794 156.019 941.794 Q159.653 941.794 161.459 938.252 Q163.288 934.687 163.288 927.581 Q163.288 920.451 161.459 916.91 Q159.653 913.345 156.019 913.345 M156.019 909.641 Q161.829 909.641 164.885 914.248 Q167.964 918.831 167.964 927.581 Q167.964 936.308 164.885 940.914 Q161.829 945.497 156.019 945.497 Q150.209 945.497 147.13 940.914 Q144.075 936.308 144.075 927.581 Q144.075 918.831 147.13 914.248 Q150.209 909.641 156.019 909.641 Z" fill="#000000" fill-rule="nonzero" fill-opacity="1" /><path clip-path="url(#clip910)" d="M117.663 720.267 L125.302 720.267 L125.302 693.902 L116.992 695.568 L116.992 691.309 L125.255 689.642 L129.931 689.642 L129.931 720.267 L137.57 720.267 L137.57 724.202 L117.663 724.202 L117.663 720.267 Z" fill="#000000" fill-rule="nonzero" fill-opacity="1" /><path clip-path="url(#clip910)" d="M147.061 689.642 L165.417 689.642 L165.417 693.578 L151.343 693.578 L151.343 702.05 Q152.362 701.703 153.38 701.541 Q154.399 701.355 155.417 701.355 Q161.204 701.355 164.584 704.527 Q167.964 707.698 167.964 713.115 Q167.964 718.693 164.491 721.795 Q161.019 724.874 154.7 724.874 Q152.524 724.874 150.255 724.503 Q148.01 724.133 145.603 723.392 L145.603 718.693 Q147.686 719.828 149.908 720.383 Q152.13 720.939 154.607 720.939 Q158.612 720.939 160.95 718.832 Q163.288 716.726 163.288 713.115 Q163.288 709.503 160.95 707.397 Q158.612 705.291 154.607 705.291 Q152.732 705.291 150.857 705.707 Q149.005 706.124 147.061 707.004 L147.061 689.642 Z" fill="#000000" fill-rule="nonzero" fill-opacity="1" /><path clip-path="url(#clip910)" d="M119.885 499.644 L136.204 499.644 L136.204 503.579 L114.26 503.579 L114.26 499.644 Q116.922 496.889 121.505 492.259 Q126.112 487.607 127.292 486.264 Q129.538 483.741 130.417 482.005 Q131.32 480.246 131.32 478.556 Q131.32 475.801 129.376 474.065 Q127.455 472.329 124.353 472.329 Q122.154 472.329 119.7 473.093 Q117.269 473.857 114.492 475.408 L114.492 470.685 Q117.316 469.551 119.769 468.973 Q122.223 468.394 124.26 468.394 Q129.63 468.394 132.825 471.079 Q136.019 473.764 136.019 478.255 Q136.019 480.385 135.209 482.306 Q134.422 484.204 132.316 486.797 Q131.737 487.468 128.635 490.685 Q125.533 493.88 119.885 499.644 Z" fill="#000000" fill-rule="nonzero" fill-opacity="1" /><path clip-path="url(#clip910)" d="M156.019 472.098 Q152.408 472.098 150.579 475.662 Q148.774 479.204 148.774 486.334 Q148.774 493.44 150.579 497.005 Q152.408 500.546 156.019 500.546 Q159.653 500.546 161.459 497.005 Q163.288 493.44 163.288 486.334 Q163.288 479.204 161.459 475.662 Q159.653 472.098 156.019 472.098 M156.019 468.394 Q161.829 468.394 164.885 473 Q167.964 477.584 167.964 486.334 Q167.964 495.06 164.885 499.667 Q161.829 504.25 156.019 504.25 Q150.209 504.25 147.13 499.667 Q144.075 495.06 144.075 486.334 Q144.075 477.584 147.13 473 Q150.209 468.394 156.019 468.394 Z" fill="#000000" fill-rule="nonzero" fill-opacity="1" /><path clip-path="url(#clip910)" d="M120.88 279.02 L137.2 279.02 L137.2 282.955 L115.256 282.955 L115.256 279.02 Q117.918 276.265 122.501 271.636 Q127.107 266.983 128.288 265.64 Q130.533 263.117 131.413 261.381 Q132.316 259.622 132.316 257.932 Q132.316 255.178 130.371 253.441 Q128.45 251.705 125.348 251.705 Q123.149 251.705 120.695 252.469 Q118.265 253.233 115.487 254.784 L115.487 250.062 Q118.311 248.928 120.765 248.349 Q123.218 247.77 125.255 247.77 Q130.626 247.77 133.82 250.455 Q137.015 253.141 137.015 257.631 Q137.015 259.761 136.204 261.682 Q135.417 263.58 133.311 266.173 Q132.732 266.844 129.63 270.062 Q126.529 273.256 120.88 279.02 Z" fill="#000000" fill-rule="nonzero" fill-opacity="1" /><path clip-path="url(#clip910)" d="M147.061 248.395 L165.417 248.395 L165.417 252.33 L151.343 252.33 L151.343 260.803 Q152.362 260.455 153.38 260.293 Q154.399 260.108 155.417 260.108 Q161.204 260.108 164.584 263.279 Q167.964 266.451 167.964 271.867 Q167.964 277.446 164.491 280.548 Q161.019 283.626 154.7 283.626 Q152.524 283.626 150.255 283.256 Q148.01 282.886 145.603 282.145 L145.603 277.446 Q147.686 278.58 149.908 279.136 Q152.13 279.691 154.607 279.691 Q158.612 279.691 160.95 277.585 Q163.288 275.478 163.288 271.867 Q163.288 268.256 160.95 266.15 Q158.612 264.043 154.607 264.043 Q152.732 264.043 150.857 264.46 Q149.005 264.877 147.061 265.756 L147.061 248.395 Z" fill="#000000" fill-rule="nonzero" fill-opacity="1" /><path clip-path="url(#clip910)" d="M39.4334 772.564 Q44.844 772.564 50.9309 774.303 Q56.9856 776.01 61.8809 778.715 Q66.744 781.42 69.9646 784.963 Q73.153 788.505 73.153 791.887 Q73.153 794.045 71.9613 795.655 Q70.7375 797.233 68.7085 798.103 Q66.6474 798.972 64.393 799.391 Q62.1063 799.81 59.6265 799.81 Q55.9228 799.81 51.8971 799.005 Q47.8391 798.199 44.1677 796.847 Q40.464 795.494 37.1146 793.594 Q33.733 791.694 31.2853 789.6 Q28.8055 787.475 27.3562 785.092 Q25.907 782.708 25.907 780.486 Q25.907 778.876 26.6155 777.588 Q27.2918 776.267 28.4834 775.43 Q29.6428 774.593 31.0277 774.013 Q32.4125 773.401 34.0228 773.111 Q35.6009 772.821 36.9214 772.692 Q38.2096 772.564 39.4334 772.564 M35.3433 776.911 Q33.7008 776.911 32.477 777.04 Q31.2209 777.169 29.9649 777.523 Q28.7089 777.878 28.0325 778.65 Q27.3562 779.391 27.3562 780.551 Q27.3562 783.932 34.2805 787.733 Q36.4383 788.956 39.369 790.051 Q42.2997 791.146 43.6846 791.533 Q45.0694 791.919 48.4833 792.821 L48.4833 779.037 Q39.6911 776.911 35.3433 776.911 M50.5766 779.617 L50.5766 793.336 Q58.6281 795.462 63.6522 795.462 Q68.0322 795.462 69.868 794.56 Q71.6715 793.626 71.6715 791.887 Q71.6715 789.89 69.6747 788.022 Q67.6458 786.154 63.9743 784.254 Q59.2078 781.742 50.5766 779.617 Z" fill="#000000" fill-rule="nonzero" fill-opacity="1" /><path clip-path="url(#clip910)" d="M22.9507 728.256 Q30.2712 732.521 37.4327 734.59 Q44.5941 736.658 51.9465 736.658 Q59.2989 736.658 66.5239 734.59 Q73.7172 732.489 81.0059 728.256 L81.0059 733.348 Q73.5262 738.123 66.3011 740.51 Q59.0761 742.865 51.9465 742.865 Q44.8487 742.865 37.6555 740.51 Q30.4622 738.154 22.9507 733.348 L22.9507 728.256 Z" fill="#000000" fill-rule="nonzero" fill-opacity="1" /><path clip-path="url(#clip910)" d="M28.1387 706.74 Q28.1387 709.286 29.9211 711.036 Q31.6717 712.787 34.218 712.787 Q36.7324 712.787 38.483 711.036 Q40.2017 709.286 40.2017 706.74 Q40.2017 704.193 38.483 702.443 Q36.7324 700.692 34.218 700.692 Q31.7035 700.692 29.9211 702.475 Q28.1387 704.225 28.1387 706.74 M24.0328 706.74 Q24.0328 704.703 24.8286 702.825 Q25.5924 700.947 27.0566 699.578 Q28.4888 698.114 30.3031 697.382 Q32.1173 696.65 34.218 696.65 Q38.4193 696.65 41.3476 699.61 Q44.244 702.538 44.244 706.803 Q44.244 711.1 41.3794 713.965 Q38.5148 716.829 34.218 716.829 Q29.953 716.829 26.9929 713.901 Q24.0328 710.973 24.0328 706.74 Z" fill="#000000" fill-rule="nonzero" fill-opacity="1" /><path clip-path="url(#clip910)" d="M22.9507 685.224 L22.9507 680.131 Q30.4622 675.357 37.6555 673.001 Q44.8487 670.614 51.9465 670.614 Q59.0761 670.614 66.3011 673.001 Q73.5262 675.357 81.0059 680.131 L81.0059 685.224 Q73.7172 680.99 66.5239 678.921 Q59.2989 676.821 51.9465 676.821 Q44.5941 676.821 37.4327 678.921 Q30.2712 680.99 22.9507 685.224 Z" fill="#000000" fill-rule="nonzero" fill-opacity="1" /><polyline clip-path="url(#clip912)" style="stroke:#009af9; stroke-linecap:round; stroke-linejoin:round; stroke-width:4; stroke-opacity:1; fill:none" points="229.629,1384.24 254.791,1234.92 279.954,975.83 305.116,755.375 330.278,500.425 355.44,190.135 380.603,152.352 405.765,105.329 430.927,127.75 456.089,86.1857 481.252,147.708 506.414,200.92 531.576,239.899 556.739,263.628 581.901,277.182 607.063,260.824 632.225,254.671 657.388,308.595 682.55,240.456 707.712,278.979 732.874,280.61 758.037,280.859 783.199,257.599 808.361,266.257 833.524,254.548 858.686,250.032 883.848,235.727 909.01,254.109 934.173,264.106 959.335,266.752 984.497,275.523 1009.66,260.586 1034.82,280.689 1059.98,296.129 1085.15,267.174 "/>
<polyline clip-path="url(#clip912)" style="stroke:#e26f46; stroke-linecap:round; stroke-linejoin:round; stroke-width:3; stroke-opacity:1; fill:none" stroke-dasharray="12, 6, 2, 6" points="229.629,1383.78 254.791,1242.76 279.954,973.713 305.116,742.262 330.278,499.294 355.44,210.682 380.603,136.163 405.765,103.98 430.927,126.913 456.089,104.116 481.252,148.076 506.414,201.645 531.576,242.917 556.739,267.422 581.901,279.963 607.063,266.713 632.225,256.635 657.388,297.556 682.55,253.239 707.712,271.595 732.874,279 758.037,280.721 783.199,261.966 808.361,264.138 833.524,256.156 858.686,250.827 883.848,238.51 909.01,250.732 934.173,262.502 959.335,267.099 984.497,274.476 1009.66,263.702 1034.82,276.678 1059.98,292.625 1085.15,272.721 "/>
<path clip-path="url(#clip910)" d="M961.069 1377.32 L1080.58 1377.32 L1080.58 1221.8 L961.069 1221.8  Z" fill="#ffffff" fill-rule="evenodd" fill-opacity="1"/>
<polyline clip-path="url(#clip910)" style="stroke:#000000; stroke-linecap:round; stroke-linejoin:round; stroke-width:4; stroke-opacity:1; fill:none" points="961.069,1377.32 1080.58,1377.32 1080.58,1221.8 961.069,1221.8 961.069,1377.32 "/>
<polyline clip-path="url(#clip910)" style="stroke:#009af9; stroke-linecap:round; stroke-linejoin:round; stroke-width:4; stroke-opacity:1; fill:none" points="971.145,1273.64 1031.6,1273.64 "/>
<path clip-path="url(#clip910)" d="M1068.45 1260.37 Q1066.97 1260.37 1066.22 1260.51 Q1065.48 1260.63 1065.29 1260.8 Q1065.1 1260.96 1064.89 1261.38 L1054.58 1283.3 Q1053.48 1285.65 1051.42 1287.33 Q1049.38 1289.02 1046.81 1289.02 Q1044.65 1289.02 1043.15 1287.71 Q1041.68 1286.42 1041.68 1284.59 Q1041.68 1283.28 1042.5 1282.53 Q1043.32 1281.81 1044.42 1281.81 Q1045.64 1281.81 1046.41 1282.58 Q1047.21 1283.35 1047.21 1284.55 Q1047.21 1285.32 1046.88 1285.9 Q1046.55 1286.51 1046.25 1286.72 Q1045.96 1286.96 1045.66 1287.1 Q1046.15 1287.29 1046.81 1287.29 Q1047.79 1287.29 1048.63 1286.89 Q1049.5 1286.51 1050.06 1286 Q1050.65 1285.51 1051.23 1284.62 Q1051.82 1283.75 1052.1 1283.19 Q1052.38 1282.65 1052.8 1281.71 L1053.9 1279.42 L1044.93 1260.37 L1041.87 1260.37 L1041.87 1258.13 L1047.35 1258.27 L1053.3 1258.13 L1053.3 1260.37 L1050.7 1260.37 L1056.79 1273.33 L1062.31 1261.52 L1062.55 1260.96 Q1062.55 1260.7 1061.99 1260.56 Q1061.42 1260.4 1060.86 1260.4 L1060.3 1260.37 L1060.3 1258.13 L1064.66 1258.27 Q1066.72 1258.27 1068.45 1258.13 L1068.45 1260.37 Z" fill="#000000" fill-rule="nonzero" fill-opacity="1" /><polyline clip-path="url(#clip910)" style="stroke:#e26f46; stroke-linecap:round; stroke-linejoin:round; stroke-width:3; stroke-opacity:1; fill:none" stroke-dasharray="12, 6, 2, 6" points="971.145,1325.48 1031.6,1325.48 "/>
<path clip-path="url(#clip910)" d="M1064.26 1309.2 L1063.85 1309.87 Q1061.31 1308.77 1058.15 1307.01 Q1054.98 1308.77 1052.44 1309.87 L1052.05 1309.2 Q1054.82 1306.79 1058.15 1304.93 Q1061.51 1306.8 1064.26 1309.2 Z" fill="#000000" fill-rule="nonzero" fill-opacity="1" /><path clip-path="url(#clip910)" d="M1068.45 1317.22 Q1066.97 1317.22 1066.22 1317.36 Q1065.48 1317.48 1065.29 1317.64 Q1065.1 1317.8 1064.89 1318.23 L1054.58 1340.15 Q1053.48 1342.49 1051.42 1344.18 Q1049.38 1345.86 1046.81 1345.86 Q1044.65 1345.86 1043.15 1344.55 Q1041.68 1343.26 1041.68 1341.44 Q1041.68 1340.13 1042.5 1339.38 Q1043.32 1338.65 1044.42 1338.65 Q1045.64 1338.65 1046.41 1339.42 Q1047.21 1340.2 1047.21 1341.39 Q1047.21 1342.16 1046.88 1342.75 Q1046.55 1343.36 1046.25 1343.57 Q1045.96 1343.8 1045.66 1343.94 Q1046.15 1344.13 1046.81 1344.13 Q1047.79 1344.13 1048.63 1343.73 Q1049.5 1343.36 1050.06 1342.84 Q1050.65 1342.35 1051.23 1341.46 Q1051.82 1340.59 1052.1 1340.03 Q1052.38 1339.49 1052.8 1338.56 L1053.9 1336.26 L1044.93 1317.22 L1041.87 1317.22 L1041.87 1314.97 L1047.35 1315.11 L1053.3 1314.97 L1053.3 1317.22 L1050.7 1317.22 L1056.79 1330.17 L1062.31 1318.37 L1062.55 1317.8 Q1062.55 1317.55 1061.99 1317.41 Q1061.42 1317.24 1060.86 1317.24 L1060.3 1317.22 L1060.3 1314.97 L1064.66 1315.11 Q1066.72 1315.11 1068.45 1314.97 L1068.45 1317.22 Z" fill="#000000" fill-rule="nonzero" fill-opacity="1" /><path clip-path="url(#clip910)" d="M1445.91 398.692 L2352.76 398.692 L2352.76 47.2441 L1445.91 47.2441  Z" fill="#ffffff" fill-rule="evenodd" fill-opacity="1"/>
<defs>
  <clipPath id="clip913">
    <rect x="1445" y="47" width="908" height="352"/>
  </clipPath>
</defs>
<polyline clip-path="url(#clip913)" style="stroke:#000000; stroke-linecap:round; stroke-linejoin:round; stroke-width:2; stroke-opacity:0.1; fill:none" points="1471.57,398.692 1471.57,47.2441 "/>
<polyline clip-path="url(#clip913)" style="stroke:#000000; stroke-linecap:round; stroke-linejoin:round; stroke-width:2; stroke-opacity:0.1; fill:none" points="1723.2,398.692 1723.2,47.2441 "/>
<polyline clip-path="url(#clip913)" style="stroke:#000000; stroke-linecap:round; stroke-linejoin:round; stroke-width:2; stroke-opacity:0.1; fill:none" points="1974.82,398.692 1974.82,47.2441 "/>
<polyline clip-path="url(#clip913)" style="stroke:#000000; stroke-linecap:round; stroke-linejoin:round; stroke-width:2; stroke-opacity:0.1; fill:none" points="2226.44,398.692 2226.44,47.2441 "/>
<polyline clip-path="url(#clip913)" style="stroke:#000000; stroke-linecap:round; stroke-linejoin:round; stroke-width:2; stroke-opacity:0.1; fill:none" points="1445.91,384.893 2352.76,384.893 "/>
<polyline clip-path="url(#clip913)" style="stroke:#000000; stroke-linecap:round; stroke-linejoin:round; stroke-width:2; stroke-opacity:0.1; fill:none" points="1445.91,319.92 2352.76,319.92 "/>
<polyline clip-path="url(#clip913)" style="stroke:#000000; stroke-linecap:round; stroke-linejoin:round; stroke-width:2; stroke-opacity:0.1; fill:none" points="1445.91,254.946 2352.76,254.946 "/>
<polyline clip-path="url(#clip913)" style="stroke:#000000; stroke-linecap:round; stroke-linejoin:round; stroke-width:2; stroke-opacity:0.1; fill:none" points="1445.91,189.972 2352.76,189.972 "/>
<polyline clip-path="url(#clip913)" style="stroke:#000000; stroke-linecap:round; stroke-linejoin:round; stroke-width:2; stroke-opacity:0.1; fill:none" points="1445.91,124.999 2352.76,124.999 "/>
<polyline clip-path="url(#clip913)" style="stroke:#000000; stroke-linecap:round; stroke-linejoin:round; stroke-width:2; stroke-opacity:0.1; fill:none" points="1445.91,60.025 2352.76,60.025 "/>
<polyline clip-path="url(#clip910)" style="stroke:#000000; stroke-linecap:round; stroke-linejoin:round; stroke-width:4; stroke-opacity:1; fill:none" points="1445.91,398.692 2352.76,398.692 "/>
<polyline clip-path="url(#clip910)" style="stroke:#000000; stroke-linecap:round; stroke-linejoin:round; stroke-width:4; stroke-opacity:1; fill:none" points="1471.57,398.692 1471.57,379.794 "/>
<polyline clip-path="url(#clip910)" style="stroke:#000000; stroke-linecap:round; stroke-linejoin:round; stroke-width:4; stroke-opacity:1; fill:none" points="1723.2,398.692 1723.2,379.794 "/>
<polyline clip-path="url(#clip910)" style="stroke:#000000; stroke-linecap:round; stroke-linejoin:round; stroke-width:4; stroke-opacity:1; fill:none" points="1974.82,398.692 1974.82,379.794 "/>
<polyline clip-path="url(#clip910)" style="stroke:#000000; stroke-linecap:round; stroke-linejoin:round; stroke-width:4; stroke-opacity:1; fill:none" points="2226.44,398.692 2226.44,379.794 "/>
<path clip-path="url(#clip910)" d="M1471.57 429.611 Q1467.96 429.611 1466.13 433.175 Q1464.33 436.717 1464.33 443.847 Q1464.33 450.953 1466.13 454.518 Q1467.96 458.059 1471.57 458.059 Q1475.21 458.059 1477.01 454.518 Q1478.84 450.953 1478.84 443.847 Q1478.84 436.717 1477.01 433.175 Q1475.21 429.611 1471.57 429.611 M1471.57 425.907 Q1477.38 425.907 1480.44 430.513 Q1483.52 435.097 1483.52 443.847 Q1483.52 452.573 1480.44 457.18 Q1477.38 461.763 1471.57 461.763 Q1465.76 461.763 1462.68 457.18 Q1459.63 452.573 1459.63 443.847 Q1459.63 435.097 1462.68 430.513 Q1465.76 425.907 1471.57 425.907 Z" fill="#000000" fill-rule="nonzero" fill-opacity="1" /><path clip-path="url(#clip910)" d="M1713.58 457.157 L1721.22 457.157 L1721.22 430.791 L1712.91 432.458 L1712.91 428.199 L1721.17 426.532 L1725.85 426.532 L1725.85 457.157 L1733.49 457.157 L1733.49 461.092 L1713.58 461.092 L1713.58 457.157 Z" fill="#000000" fill-rule="nonzero" fill-opacity="1" /><path clip-path="url(#clip910)" d="M1969.47 457.157 L1985.79 457.157 L1985.79 461.092 L1963.85 461.092 L1963.85 457.157 Q1966.51 454.402 1971.09 449.772 Q1975.7 445.12 1976.88 443.777 Q1979.12 441.254 1980 439.518 Q1980.91 437.759 1980.91 436.069 Q1980.91 433.314 1978.96 431.578 Q1977.04 429.842 1973.94 429.842 Q1971.74 429.842 1969.29 430.606 Q1966.86 431.37 1964.08 432.921 L1964.08 428.199 Q1966.9 427.064 1969.36 426.486 Q1971.81 425.907 1973.85 425.907 Q1979.22 425.907 1982.41 428.592 Q1985.61 431.277 1985.61 435.768 Q1985.61 437.898 1984.8 439.819 Q1984.01 441.717 1981.9 444.31 Q1981.32 444.981 1978.22 448.198 Q1975.12 451.393 1969.47 457.157 Z" fill="#000000" fill-rule="nonzero" fill-opacity="1" /><path clip-path="url(#clip910)" d="M2230.69 442.458 Q2234.05 443.175 2235.92 445.444 Q2237.82 447.712 2237.82 451.046 Q2237.82 456.161 2234.3 458.962 Q2230.78 461.763 2224.3 461.763 Q2222.12 461.763 2219.81 461.323 Q2217.52 460.907 2215.06 460.05 L2215.06 455.536 Q2217.01 456.671 2219.32 457.249 Q2221.64 457.828 2224.16 457.828 Q2228.56 457.828 2230.85 456.092 Q2233.17 454.356 2233.17 451.046 Q2233.17 447.99 2231.01 446.277 Q2228.88 444.541 2225.06 444.541 L2221.04 444.541 L2221.04 440.698 L2225.25 440.698 Q2228.7 440.698 2230.53 439.333 Q2232.36 437.944 2232.36 435.351 Q2232.36 432.689 2230.46 431.277 Q2228.58 429.842 2225.06 429.842 Q2223.14 429.842 2220.94 430.259 Q2218.74 430.675 2216.11 431.555 L2216.11 427.388 Q2218.77 426.648 2221.08 426.277 Q2223.42 425.907 2225.48 425.907 Q2230.8 425.907 2233.91 428.337 Q2237.01 430.745 2237.01 434.865 Q2237.01 437.736 2235.36 439.726 Q2233.72 441.694 2230.69 442.458 Z" fill="#000000" fill-rule="nonzero" fill-opacity="1" /><polyline clip-path="url(#clip910)" style="stroke:#000000; stroke-linecap:round; stroke-linejoin:round; stroke-width:4; stroke-opacity:1; fill:none" points="1445.91,398.692 1445.91,47.2441 "/>
<polyline clip-path="url(#clip910)" style="stroke:#000000; stroke-linecap:round; stroke-linejoin:round; stroke-width:4; stroke-opacity:1; fill:none" points="1445.91,384.893 1464.81,384.893 "/>
<polyline clip-path="url(#clip910)" style="stroke:#000000; stroke-linecap:round; stroke-linejoin:round; stroke-width:4; stroke-opacity:1; fill:none" points="1445.91,319.92 1464.81,319.92 "/>
<polyline clip-path="url(#clip910)" style="stroke:#000000; stroke-linecap:round; stroke-linejoin:round; stroke-width:4; stroke-opacity:1; fill:none" points="1445.91,254.946 1464.81,254.946 "/>
<polyline clip-path="url(#clip910)" style="stroke:#000000; stroke-linecap:round; stroke-linejoin:round; stroke-width:4; stroke-opacity:1; fill:none" points="1445.91,189.972 1464.81,189.972 "/>
<polyline clip-path="url(#clip910)" style="stroke:#000000; stroke-linecap:round; stroke-linejoin:round; stroke-width:4; stroke-opacity:1; fill:none" points="1445.91,124.999 1464.81,124.999 "/>
<polyline clip-path="url(#clip910)" style="stroke:#000000; stroke-linecap:round; stroke-linejoin:round; stroke-width:4; stroke-opacity:1; fill:none" points="1445.91,60.025 1464.81,60.025 "/>
<path clip-path="url(#clip910)" d="M1352.73 370.692 Q1349.12 370.692 1347.29 374.257 Q1345.49 377.798 1345.49 384.928 Q1345.49 392.034 1347.29 395.599 Q1349.12 399.141 1352.73 399.141 Q1356.37 399.141 1358.17 395.599 Q1360 392.034 1360 384.928 Q1360 377.798 1358.17 374.257 Q1356.37 370.692 1352.73 370.692 M1352.73 366.988 Q1358.54 366.988 1361.6 371.595 Q1364.68 376.178 1364.68 384.928 Q1364.68 393.655 1361.6 398.261 Q1358.54 402.845 1352.73 402.845 Q1346.92 402.845 1343.84 398.261 Q1340.79 393.655 1340.79 384.928 Q1340.79 376.178 1343.84 371.595 Q1346.92 366.988 1352.73 366.988 Z" fill="#000000" fill-rule="nonzero" fill-opacity="1" /><path clip-path="url(#clip910)" d="M1372.89 396.294 L1377.78 396.294 L1377.78 402.173 L1372.89 402.173 L1372.89 396.294 Z" fill="#000000" fill-rule="nonzero" fill-opacity="1" /><path clip-path="url(#clip910)" d="M1397.96 370.692 Q1394.35 370.692 1392.52 374.257 Q1390.72 377.798 1390.72 384.928 Q1390.72 392.034 1392.52 395.599 Q1394.35 399.141 1397.96 399.141 Q1401.6 399.141 1403.4 395.599 Q1405.23 392.034 1405.23 384.928 Q1405.23 377.798 1403.4 374.257 Q1401.6 370.692 1397.96 370.692 M1397.96 366.988 Q1403.77 366.988 1406.83 371.595 Q1409.91 376.178 1409.91 384.928 Q1409.91 393.655 1406.83 398.261 Q1403.77 402.845 1397.96 402.845 Q1392.15 402.845 1389.07 398.261 Q1386.02 393.655 1386.02 384.928 Q1386.02 376.178 1389.07 371.595 Q1392.15 366.988 1397.96 366.988 Z" fill="#000000" fill-rule="nonzero" fill-opacity="1" /><path clip-path="url(#clip910)" d="M1353.96 305.718 Q1350.35 305.718 1348.52 309.283 Q1346.71 312.825 1346.71 319.954 Q1346.71 327.061 1348.52 330.626 Q1350.35 334.167 1353.96 334.167 Q1357.59 334.167 1359.4 330.626 Q1361.23 327.061 1361.23 319.954 Q1361.23 312.825 1359.4 309.283 Q1357.59 305.718 1353.96 305.718 M1353.96 302.015 Q1359.77 302.015 1362.82 306.621 Q1365.9 311.204 1365.9 319.954 Q1365.9 328.681 1362.82 333.288 Q1359.77 337.871 1353.96 337.871 Q1348.15 337.871 1345.07 333.288 Q1342.01 328.681 1342.01 319.954 Q1342.01 311.204 1345.07 306.621 Q1348.15 302.015 1353.96 302.015 Z" fill="#000000" fill-rule="nonzero" fill-opacity="1" /><path clip-path="url(#clip910)" d="M1374.12 331.32 L1379.01 331.32 L1379.01 337.2 L1374.12 337.2 L1374.12 331.32 Z" fill="#000000" fill-rule="nonzero" fill-opacity="1" /><path clip-path="url(#clip910)" d="M1390 333.264 L1397.64 333.264 L1397.64 306.899 L1389.33 308.566 L1389.33 304.306 L1397.59 302.64 L1402.27 302.64 L1402.27 333.264 L1409.91 333.264 L1409.91 337.2 L1390 337.2 L1390 333.264 Z" fill="#000000" fill-rule="nonzero" fill-opacity="1" /><path clip-path="url(#clip910)" d="M1354.33 240.745 Q1350.72 240.745 1348.89 244.309 Q1347.08 247.851 1347.08 254.981 Q1347.08 262.087 1348.89 265.652 Q1350.72 269.194 1354.33 269.194 Q1357.96 269.194 1359.77 265.652 Q1361.6 262.087 1361.6 254.981 Q1361.6 247.851 1359.77 244.309 Q1357.96 240.745 1354.33 240.745 M1354.33 237.041 Q1360.14 237.041 1363.2 241.647 Q1366.27 246.231 1366.27 254.981 Q1366.27 263.707 1363.2 268.314 Q1360.14 272.897 1354.33 272.897 Q1348.52 272.897 1345.44 268.314 Q1342.39 263.707 1342.39 254.981 Q1342.39 246.231 1345.44 241.647 Q1348.52 237.041 1354.33 237.041 Z" fill="#000000" fill-rule="nonzero" fill-opacity="1" /><path clip-path="url(#clip910)" d="M1374.49 266.346 L1379.38 266.346 L1379.38 272.226 L1374.49 272.226 L1374.49 266.346 Z" fill="#000000" fill-rule="nonzero" fill-opacity="1" /><path clip-path="url(#clip910)" d="M1393.59 268.291 L1409.91 268.291 L1409.91 272.226 L1387.96 272.226 L1387.96 268.291 Q1390.63 265.536 1395.21 260.907 Q1399.82 256.254 1401 254.911 Q1403.24 252.388 1404.12 250.652 Q1405.02 248.893 1405.02 247.203 Q1405.02 244.448 1403.08 242.712 Q1401.16 240.976 1398.06 240.976 Q1395.86 240.976 1393.4 241.74 Q1390.97 242.504 1388.19 244.055 L1388.19 239.333 Q1391.02 238.198 1393.47 237.62 Q1395.93 237.041 1397.96 237.041 Q1403.33 237.041 1406.53 239.726 Q1409.72 242.411 1409.72 246.902 Q1409.72 249.032 1408.91 250.953 Q1408.13 252.851 1406.02 255.444 Q1405.44 256.115 1402.34 259.333 Q1399.24 262.527 1393.59 268.291 Z" fill="#000000" fill-rule="nonzero" fill-opacity="1" /><path clip-path="url(#clip910)" d="M1353.38 175.771 Q1349.77 175.771 1347.94 179.336 Q1346.13 182.877 1346.13 190.007 Q1346.13 197.113 1347.94 200.678 Q1349.77 204.22 1353.38 204.22 Q1357.01 204.22 1358.82 200.678 Q1360.65 197.113 1360.65 190.007 Q1360.65 182.877 1358.82 179.336 Q1357.01 175.771 1353.38 175.771 M1353.38 172.067 Q1359.19 172.067 1362.25 176.674 Q1365.32 181.257 1365.32 190.007 Q1365.32 198.734 1362.25 203.34 Q1359.19 207.924 1353.38 207.924 Q1347.57 207.924 1344.49 203.34 Q1341.44 198.734 1341.44 190.007 Q1341.44 181.257 1344.49 176.674 Q1347.57 172.067 1353.38 172.067 Z" fill="#000000" fill-rule="nonzero" fill-opacity="1" /><path clip-path="url(#clip910)" d="M1373.54 201.373 L1378.43 201.373 L1378.43 207.252 L1373.54 207.252 L1373.54 201.373 Z" fill="#000000" fill-rule="nonzero" fill-opacity="1" /><path clip-path="url(#clip910)" d="M1402.78 188.618 Q1406.13 189.336 1408.01 191.604 Q1409.91 193.873 1409.91 197.206 Q1409.91 202.322 1406.39 205.123 Q1402.87 207.924 1396.39 207.924 Q1394.21 207.924 1391.9 207.484 Q1389.61 207.067 1387.15 206.211 L1387.15 201.697 Q1389.1 202.831 1391.41 203.41 Q1393.73 203.988 1396.25 203.988 Q1400.65 203.988 1402.94 202.252 Q1405.26 200.516 1405.26 197.206 Q1405.26 194.151 1403.1 192.438 Q1400.97 190.701 1397.15 190.701 L1393.13 190.701 L1393.13 186.859 L1397.34 186.859 Q1400.79 186.859 1402.62 185.493 Q1404.44 184.104 1404.44 181.512 Q1404.44 178.85 1402.55 177.438 Q1400.67 176.002 1397.15 176.002 Q1395.23 176.002 1393.03 176.419 Q1390.83 176.836 1388.19 177.715 L1388.19 173.549 Q1390.86 172.808 1393.17 172.438 Q1395.51 172.067 1397.57 172.067 Q1402.89 172.067 1406 174.498 Q1409.1 176.905 1409.1 181.026 Q1409.1 183.896 1407.45 185.887 Q1405.81 187.854 1402.78 188.618 Z" fill="#000000" fill-rule="nonzero" fill-opacity="1" /><path clip-path="url(#clip910)" d="M1352.25 110.797 Q1348.63 110.797 1346.81 114.362 Q1345 117.904 1345 125.033 Q1345 132.14 1346.81 135.705 Q1348.63 139.246 1352.25 139.246 Q1355.88 139.246 1357.69 135.705 Q1359.51 132.14 1359.51 125.033 Q1359.51 117.904 1357.69 114.362 Q1355.88 110.797 1352.25 110.797 M1352.25 107.094 Q1358.06 107.094 1361.11 111.7 Q1364.19 116.283 1364.19 125.033 Q1364.19 133.76 1361.11 138.367 Q1358.06 142.95 1352.25 142.95 Q1346.44 142.95 1343.36 138.367 Q1340.3 133.76 1340.3 125.033 Q1340.3 116.283 1343.36 111.7 Q1346.44 107.094 1352.25 107.094 Z" fill="#000000" fill-rule="nonzero" fill-opacity="1" /><path clip-path="url(#clip910)" d="M1372.41 136.399 L1377.29 136.399 L1377.29 142.279 L1372.41 142.279 L1372.41 136.399 Z" fill="#000000" fill-rule="nonzero" fill-opacity="1" /><path clip-path="url(#clip910)" d="M1400.32 111.793 L1388.52 130.242 L1400.32 130.242 L1400.32 111.793 M1399.1 107.719 L1404.98 107.719 L1404.98 130.242 L1409.91 130.242 L1409.91 134.131 L1404.98 134.131 L1404.98 142.279 L1400.32 142.279 L1400.32 134.131 L1384.72 134.131 L1384.72 129.617 L1399.1 107.719 Z" fill="#000000" fill-rule="nonzero" fill-opacity="1" /><path clip-path="url(#clip910)" d="M1353.73 45.8237 Q1350.12 45.8237 1348.29 49.3885 Q1346.48 52.9302 1346.48 60.0598 Q1346.48 67.1662 1348.29 70.731 Q1350.12 74.2726 1353.73 74.2726 Q1357.36 74.2726 1359.17 70.731 Q1361 67.1662 1361 60.0598 Q1361 52.9302 1359.17 49.3885 Q1357.36 45.8237 1353.73 45.8237 M1353.73 42.12 Q1359.54 42.12 1362.59 46.7265 Q1365.67 51.3098 1365.67 60.0598 Q1365.67 68.7866 1362.59 73.393 Q1359.54 77.9763 1353.73 77.9763 Q1347.92 77.9763 1344.84 73.393 Q1341.78 68.7866 1341.78 60.0598 Q1341.78 51.3098 1344.84 46.7265 Q1347.92 42.12 1353.73 42.12 Z" fill="#000000" fill-rule="nonzero" fill-opacity="1" /><path clip-path="url(#clip910)" d="M1373.89 71.4254 L1378.77 71.4254 L1378.77 77.305 L1373.89 77.305 L1373.89 71.4254 Z" fill="#000000" fill-rule="nonzero" fill-opacity="1" /><path clip-path="url(#clip910)" d="M1389.01 42.745 L1407.36 42.745 L1407.36 46.6802 L1393.29 46.6802 L1393.29 55.1524 Q1394.31 54.8052 1395.32 54.6431 Q1396.34 54.4579 1397.36 54.4579 Q1403.15 54.4579 1406.53 57.6292 Q1409.91 60.8005 1409.91 66.2171 Q1409.91 71.7958 1406.44 74.8976 Q1402.96 77.9763 1396.64 77.9763 Q1394.47 77.9763 1392.2 77.606 Q1389.95 77.2356 1387.55 76.4949 L1387.55 71.7958 Q1389.63 72.9301 1391.85 73.4856 Q1394.07 74.0412 1396.55 74.0412 Q1400.56 74.0412 1402.89 71.9347 Q1405.23 69.8282 1405.23 66.2171 Q1405.23 62.606 1402.89 60.4996 Q1400.56 58.3931 1396.55 58.3931 Q1394.68 58.3931 1392.8 58.8098 Q1390.95 59.2264 1389.01 60.1061 L1389.01 42.745 Z" fill="#000000" fill-rule="nonzero" fill-opacity="1" /><path clip-path="url(#clip910)" d="M1265.47 298.084 Q1270.89 298.084 1276.97 299.823 Q1283.03 301.53 1287.92 304.235 Q1292.79 306.941 1296.01 310.483 Q1299.19 314.026 1299.19 317.408 Q1299.19 319.565 1298 321.176 Q1296.78 322.754 1294.75 323.623 Q1292.69 324.493 1290.43 324.912 Q1288.15 325.33 1285.67 325.33 Q1281.96 325.33 1277.94 324.525 Q1273.88 323.72 1270.21 322.367 Q1266.51 321.015 1263.16 319.115 Q1259.77 317.214 1257.33 315.121 Q1254.85 312.995 1253.4 310.612 Q1251.95 308.229 1251.95 306.007 Q1251.95 304.396 1252.66 303.108 Q1253.33 301.788 1254.52 300.95 Q1255.68 300.113 1257.07 299.533 Q1258.45 298.921 1260.06 298.632 Q1261.64 298.342 1262.96 298.213 Q1264.25 298.084 1265.47 298.084 M1261.38 302.432 Q1259.74 302.432 1258.52 302.561 Q1257.26 302.69 1256.01 303.044 Q1254.75 303.398 1254.07 304.171 Q1253.4 304.912 1253.4 306.071 Q1253.4 309.453 1260.32 313.253 Q1262.48 314.477 1265.41 315.572 Q1268.34 316.667 1269.73 317.053 Q1271.11 317.44 1274.52 318.342 L1274.52 304.558 Q1265.73 302.432 1261.38 302.432 M1276.62 305.137 L1276.62 318.857 Q1284.67 320.983 1289.69 320.983 Q1294.07 320.983 1295.91 320.081 Q1297.71 319.147 1297.71 317.408 Q1297.71 315.411 1295.72 313.543 Q1293.69 311.675 1290.02 309.775 Q1285.25 307.263 1276.62 305.137 Z" fill="#000000" fill-rule="nonzero" fill-opacity="1" /><path clip-path="url(#clip910)" d="M1248.99 253.776 Q1256.31 258.041 1263.47 260.11 Q1270.64 262.179 1277.99 262.179 Q1285.34 262.179 1292.57 260.11 Q1299.76 258.009 1307.05 253.776 L1307.05 258.869 Q1299.57 263.643 1292.34 266.03 Q1285.12 268.386 1277.99 268.386 Q1270.89 268.386 1263.7 266.03 Q1256.5 263.675 1248.99 258.869 L1248.99 253.776 Z" fill="#000000" fill-rule="nonzero" fill-opacity="1" /><path clip-path="url(#clip910)" d="M1268.28 221.757 Q1267.71 222.743 1267.45 223.921 Q1267.17 225.067 1267.17 226.467 Q1267.17 231.433 1270.41 234.106 Q1273.63 236.748 1279.67 236.748 L1298.45 236.748 L1298.45 242.636 L1262.81 242.636 L1262.81 236.748 L1268.34 236.748 Q1265.1 234.902 1263.54 231.942 Q1261.95 228.982 1261.95 224.749 Q1261.95 224.144 1262.04 223.412 Q1262.11 222.68 1262.26 221.789 L1268.28 221.757 Z" fill="#000000" fill-rule="nonzero" fill-opacity="1" /><path clip-path="url(#clip910)" d="M1280.53 199.413 Q1280.53 206.511 1282.16 209.248 Q1283.78 211.985 1287.7 211.985 Q1290.81 211.985 1292.66 209.948 Q1294.48 207.879 1294.48 204.347 Q1294.48 199.477 1291.04 196.549 Q1287.57 193.588 1281.84 193.588 L1280.53 193.588 L1280.53 199.413 M1278.12 187.732 L1298.45 187.732 L1298.45 193.588 L1293.04 193.588 Q1296.29 195.594 1297.85 198.586 Q1299.38 201.577 1299.38 205.906 Q1299.38 211.381 1296.32 214.627 Q1293.23 217.842 1288.08 217.842 Q1282.06 217.842 1279.01 213.831 Q1275.95 209.789 1275.95 201.8 L1275.95 193.588 L1275.38 193.588 Q1271.34 193.588 1269.14 196.262 Q1266.91 198.904 1266.91 203.71 Q1266.91 206.766 1267.64 209.662 Q1268.38 212.558 1269.84 215.232 L1264.43 215.232 Q1263.19 212.017 1262.58 208.993 Q1261.95 205.97 1261.95 203.105 Q1261.95 195.371 1265.96 191.551 Q1269.97 187.732 1278.12 187.732 Z" fill="#000000" fill-rule="nonzero" fill-opacity="1" /><path clip-path="url(#clip910)" d="M1268.22 152.211 L1248.93 152.211 L1248.93 146.355 L1298.45 146.355 L1298.45 152.211 L1293.11 152.211 Q1296.29 154.057 1297.85 156.89 Q1299.38 159.691 1299.38 163.638 Q1299.38 170.099 1294.22 174.173 Q1289.06 178.215 1280.66 178.215 Q1272.26 178.215 1267.1 174.173 Q1261.95 170.099 1261.95 163.638 Q1261.95 159.691 1263.51 156.89 Q1265.03 154.057 1268.22 152.211 M1280.66 172.168 Q1287.12 172.168 1290.81 169.526 Q1294.48 166.853 1294.48 162.206 Q1294.48 157.559 1290.81 154.885 Q1287.12 152.211 1280.66 152.211 Q1274.2 152.211 1270.54 154.885 Q1266.85 157.559 1266.85 162.206 Q1266.85 166.853 1270.54 169.526 Q1274.2 172.168 1280.66 172.168 Z" fill="#000000" fill-rule="nonzero" fill-opacity="1" /><path clip-path="url(#clip910)" d="M1248.99 135.215 L1248.99 130.122 Q1256.5 125.348 1263.7 122.993 Q1270.89 120.606 1277.99 120.606 Q1285.12 120.606 1292.34 122.993 Q1299.57 125.348 1307.05 130.122 L1307.05 135.215 Q1299.76 130.982 1292.57 128.913 Q1285.34 126.812 1277.99 126.812 Q1270.64 126.812 1263.47 128.913 Q1256.31 130.982 1248.99 135.215 Z" fill="#000000" fill-rule="nonzero" fill-opacity="1" /><polyline clip-path="url(#clip913)" style="stroke:#009af9; stroke-linecap:round; stroke-linejoin:round; stroke-width:4; stroke-opacity:1; fill:none" points="1471.57,384.893 1496.74,356.679 1521.9,292.675 1547.06,218.972 1572.22,153.014 1597.38,103.644 1622.55,72.9738 1647.71,58.8747 1672.87,57.1907 1698.03,63.3191 1723.2,73.1666 1748.36,83.621 1773.52,92.6794 1798.68,99.3513 1823.85,103.435 1849.01,105.248 1874.17,105.371 1899.33,104.448 1924.49,103.049 1949.66,101.602 1974.82,100.374 1999.98,99.4896 2025.14,98.9654 2050.31,98.7496 2075.47,98.7577 2100.63,98.9004 2125.79,99.1003 2150.95,99.3007 2176.12,99.4669 2201.28,99.584 2226.44,99.6513 2251.6,99.6767 2276.77,99.6724 2301.93,99.6508 2327.09,99.6224 "/>
<polyline clip-path="url(#clip913)" style="stroke:#e26f46; stroke-linecap:round; stroke-linejoin:round; stroke-width:3; stroke-opacity:1; fill:none" stroke-dasharray="12, 6, 2, 6" points="1471.57,388.745 1496.74,352.503 1521.9,283.358 1547.06,223.875 1572.22,161.432 1597.38,87.2591 1622.55,68.1076 1647.71,59.8365 1672.87,65.7304 1698.03,59.8716 1723.2,71.1693 1748.36,84.9365 1773.52,95.5433 1798.68,101.841 1823.85,105.064 1849.01,101.659 1874.17,99.0689 1899.33,109.586 1924.49,98.1961 1949.66,102.914 1974.82,104.817 1999.98,105.259 2025.14,100.439 2050.31,100.997 2075.47,98.9459 2100.63,97.5762 2125.79,94.4107 2150.95,97.5519 2176.12,100.577 2201.28,101.758 2226.44,103.654 2251.6,100.885 2276.77,104.22 2301.93,108.318 2327.09,103.203 "/>
<path clip-path="url(#clip910)" d="M2203.01 386.977 L2322.53 386.977 L2322.53 231.457 L2203.01 231.457  Z" fill="#ffffff" fill-rule="evenodd" fill-opacity="1"/>
<polyline clip-path="url(#clip910)" style="stroke:#000000; stroke-linecap:round; stroke-linejoin:round; stroke-width:4; stroke-opacity:1; fill:none" points="2203.01,386.977 2322.53,386.977 2322.53,231.457 2203.01,231.457 2203.01,386.977 "/>
<polyline clip-path="url(#clip910)" style="stroke:#009af9; stroke-linecap:round; stroke-linejoin:round; stroke-width:4; stroke-opacity:1; fill:none" points="2213.09,283.297 2273.55,283.297 "/>
<path clip-path="url(#clip910)" d="M2310.63 293.836 L2305.36 293.695 L2299.6 293.836 L2299.6 291.587 L2301.47 291.587 L2296.2 285.357 L2291.54 290.58 L2291.21 291.049 Q2291.21 291.26 2291.75 291.423 Q2292.31 291.587 2292.97 291.587 L2292.97 293.836 L2288.03 293.695 L2283.62 293.836 L2283.62 291.587 Q2285.1 291.587 2285.78 291.564 Q2286.48 291.517 2287.28 291.306 Q2288.07 291.096 2288.47 290.674 L2294.75 283.624 L2287.28 274.794 L2283.86 274.794 L2283.86 272.545 L2289.15 272.686 L2294.94 272.545 L2294.94 274.794 L2293.01 274.794 L2297.72 280.298 L2301.75 275.801 Q2301.77 275.777 2302.15 275.215 Q2301.4 274.794 2300.32 274.794 L2300.32 272.545 L2305.26 272.686 L2309.67 272.545 L2309.67 274.794 Q2307.75 274.794 2306.74 274.934 Q2305.76 275.051 2305.45 275.215 Q2305.17 275.379 2304.77 275.801 L2299.17 282.031 L2307.23 291.587 L2310.63 291.587 L2310.63 293.836 Z" fill="#000000" fill-rule="nonzero" fill-opacity="1" /><polyline clip-path="url(#clip910)" style="stroke:#e26f46; stroke-linecap:round; stroke-linejoin:round; stroke-width:3; stroke-opacity:1; fill:none" stroke-dasharray="12, 6, 2, 6" points="2213.09,335.137 2273.55,335.137 "/>
<path clip-path="url(#clip910)" d="M2306.21 323.615 L2305.8 324.287 Q2303.26 323.189 2300.09 321.434 Q2296.93 323.189 2294.39 324.287 L2293.99 323.615 Q2296.76 321.205 2300.09 319.352 Q2303.45 321.221 2306.21 323.615 Z" fill="#000000" fill-rule="nonzero" fill-opacity="1" /><path clip-path="url(#clip910)" d="M2310.63 350.681 L2305.36 350.54 L2299.6 350.681 L2299.6 348.432 L2301.47 348.432 L2296.2 342.202 L2291.54 347.425 L2291.21 347.893 Q2291.21 348.104 2291.75 348.268 Q2292.31 348.432 2292.97 348.432 L2292.97 350.681 L2288.03 350.54 L2283.62 350.681 L2283.62 348.432 Q2285.1 348.432 2285.78 348.409 Q2286.48 348.362 2287.28 348.151 Q2288.07 347.94 2288.47 347.519 L2294.75 340.468 L2287.28 331.638 L2283.86 331.638 L2283.86 329.39 L2289.15 329.53 L2294.94 329.39 L2294.94 331.638 L2293.01 331.638 L2297.72 337.142 L2301.75 332.645 Q2301.77 332.622 2302.15 332.06 Q2301.4 331.638 2300.32 331.638 L2300.32 329.39 L2305.26 329.53 L2309.67 329.39 L2309.67 331.638 Q2307.75 331.638 2306.74 331.779 Q2305.76 331.896 2305.45 332.06 Q2305.17 332.224 2304.77 332.645 L2299.17 338.876 L2307.23 348.432 L2310.63 348.432 L2310.63 350.681 Z" fill="#000000" fill-rule="nonzero" fill-opacity="1" /><path clip-path="url(#clip910)" d="M1445.91 910.936 L2352.76 910.936 L2352.76 559.488 L1445.91 559.488  Z" fill="#ffffff" fill-rule="evenodd" fill-opacity="1"/>
<defs>
  <clipPath id="clip914">
    <rect x="1445" y="559" width="908" height="352"/>
  </clipPath>
</defs>
<polyline clip-path="url(#clip914)" style="stroke:#000000; stroke-linecap:round; stroke-linejoin:round; stroke-width:2; stroke-opacity:0.1; fill:none" points="1471.57,910.936 1471.57,559.488 "/>
<polyline clip-path="url(#clip914)" style="stroke:#000000; stroke-linecap:round; stroke-linejoin:round; stroke-width:2; stroke-opacity:0.1; fill:none" points="1723.2,910.936 1723.2,559.488 "/>
<polyline clip-path="url(#clip914)" style="stroke:#000000; stroke-linecap:round; stroke-linejoin:round; stroke-width:2; stroke-opacity:0.1; fill:none" points="1974.82,910.936 1974.82,559.488 "/>
<polyline clip-path="url(#clip914)" style="stroke:#000000; stroke-linecap:round; stroke-linejoin:round; stroke-width:2; stroke-opacity:0.1; fill:none" points="2226.44,910.936 2226.44,559.488 "/>
<polyline clip-path="url(#clip914)" style="stroke:#000000; stroke-linecap:round; stroke-linejoin:round; stroke-width:2; stroke-opacity:0.1; fill:none" points="1445.91,850.967 2352.76,850.967 "/>
<polyline clip-path="url(#clip914)" style="stroke:#000000; stroke-linecap:round; stroke-linejoin:round; stroke-width:2; stroke-opacity:0.1; fill:none" points="1445.91,783.523 2352.76,783.523 "/>
<polyline clip-path="url(#clip914)" style="stroke:#000000; stroke-linecap:round; stroke-linejoin:round; stroke-width:2; stroke-opacity:0.1; fill:none" points="1445.91,716.08 2352.76,716.08 "/>
<polyline clip-path="url(#clip914)" style="stroke:#000000; stroke-linecap:round; stroke-linejoin:round; stroke-width:2; stroke-opacity:0.1; fill:none" points="1445.91,648.636 2352.76,648.636 "/>
<polyline clip-path="url(#clip914)" style="stroke:#000000; stroke-linecap:round; stroke-linejoin:round; stroke-width:2; stroke-opacity:0.1; fill:none" points="1445.91,581.192 2352.76,581.192 "/>
<polyline clip-path="url(#clip910)" style="stroke:#000000; stroke-linecap:round; stroke-linejoin:round; stroke-width:4; stroke-opacity:1; fill:none" points="1445.91,910.936 2352.76,910.936 "/>
<polyline clip-path="url(#clip910)" style="stroke:#000000; stroke-linecap:round; stroke-linejoin:round; stroke-width:4; stroke-opacity:1; fill:none" points="1471.57,910.936 1471.57,892.038 "/>
<polyline clip-path="url(#clip910)" style="stroke:#000000; stroke-linecap:round; stroke-linejoin:round; stroke-width:4; stroke-opacity:1; fill:none" points="1723.2,910.936 1723.2,892.038 "/>
<polyline clip-path="url(#clip910)" style="stroke:#000000; stroke-linecap:round; stroke-linejoin:round; stroke-width:4; stroke-opacity:1; fill:none" points="1974.82,910.936 1974.82,892.038 "/>
<polyline clip-path="url(#clip910)" style="stroke:#000000; stroke-linecap:round; stroke-linejoin:round; stroke-width:4; stroke-opacity:1; fill:none" points="2226.44,910.936 2226.44,892.038 "/>
<path clip-path="url(#clip910)" d="M1471.57 941.855 Q1467.96 941.855 1466.13 945.419 Q1464.33 948.961 1464.33 956.091 Q1464.33 963.197 1466.13 966.762 Q1467.96 970.303 1471.57 970.303 Q1475.21 970.303 1477.01 966.762 Q1478.84 963.197 1478.84 956.091 Q1478.84 948.961 1477.01 945.419 Q1475.21 941.855 1471.57 941.855 M1471.57 938.151 Q1477.38 938.151 1480.44 942.757 Q1483.52 947.341 1483.52 956.091 Q1483.52 964.817 1480.44 969.424 Q1477.38 974.007 1471.57 974.007 Q1465.76 974.007 1462.68 969.424 Q1459.63 964.817 1459.63 956.091 Q1459.63 947.341 1462.68 942.757 Q1465.76 938.151 1471.57 938.151 Z" fill="#000000" fill-rule="nonzero" fill-opacity="1" /><path clip-path="url(#clip910)" d="M1713.58 969.401 L1721.22 969.401 L1721.22 943.035 L1712.91 944.702 L1712.91 940.443 L1721.17 938.776 L1725.85 938.776 L1725.85 969.401 L1733.49 969.401 L1733.49 973.336 L1713.58 973.336 L1713.58 969.401 Z" fill="#000000" fill-rule="nonzero" fill-opacity="1" /><path clip-path="url(#clip910)" d="M1969.47 969.401 L1985.79 969.401 L1985.79 973.336 L1963.85 973.336 L1963.85 969.401 Q1966.51 966.646 1971.09 962.016 Q1975.7 957.364 1976.88 956.021 Q1979.12 953.498 1980 951.762 Q1980.91 950.003 1980.91 948.313 Q1980.91 945.558 1978.96 943.822 Q1977.04 942.086 1973.94 942.086 Q1971.74 942.086 1969.29 942.85 Q1966.86 943.614 1964.08 945.165 L1964.08 940.443 Q1966.9 939.308 1969.36 938.73 Q1971.81 938.151 1973.85 938.151 Q1979.22 938.151 1982.41 940.836 Q1985.61 943.521 1985.61 948.012 Q1985.61 950.142 1984.8 952.063 Q1984.01 953.961 1981.9 956.554 Q1981.32 957.225 1978.22 960.442 Q1975.12 963.637 1969.47 969.401 Z" fill="#000000" fill-rule="nonzero" fill-opacity="1" /><path clip-path="url(#clip910)" d="M2230.69 954.702 Q2234.05 955.419 2235.92 957.688 Q2237.82 959.956 2237.82 963.29 Q2237.82 968.405 2234.3 971.206 Q2230.78 974.007 2224.3 974.007 Q2222.12 974.007 2219.81 973.567 Q2217.52 973.151 2215.06 972.294 L2215.06 967.78 Q2217.01 968.915 2219.32 969.493 Q2221.64 970.072 2224.16 970.072 Q2228.56 970.072 2230.85 968.336 Q2233.17 966.6 2233.17 963.29 Q2233.17 960.234 2231.01 958.521 Q2228.88 956.785 2225.06 956.785 L2221.04 956.785 L2221.04 952.942 L2225.25 952.942 Q2228.7 952.942 2230.53 951.577 Q2232.36 950.188 2232.36 947.595 Q2232.36 944.933 2230.46 943.521 Q2228.58 942.086 2225.06 942.086 Q2223.14 942.086 2220.94 942.503 Q2218.74 942.919 2216.11 943.799 L2216.11 939.632 Q2218.77 938.892 2221.08 938.521 Q2223.42 938.151 2225.48 938.151 Q2230.8 938.151 2233.91 940.581 Q2237.01 942.989 2237.01 947.109 Q2237.01 949.979 2235.36 951.97 Q2233.72 953.938 2230.69 954.702 Z" fill="#000000" fill-rule="nonzero" fill-opacity="1" /><polyline clip-path="url(#clip910)" style="stroke:#000000; stroke-linecap:round; stroke-linejoin:round; stroke-width:4; stroke-opacity:1; fill:none" points="1445.91,910.936 1445.91,559.488 "/>
<polyline clip-path="url(#clip910)" style="stroke:#000000; stroke-linecap:round; stroke-linejoin:round; stroke-width:4; stroke-opacity:1; fill:none" points="1445.91,850.967 1464.81,850.967 "/>
<polyline clip-path="url(#clip910)" style="stroke:#000000; stroke-linecap:round; stroke-linejoin:round; stroke-width:4; stroke-opacity:1; fill:none" points="1445.91,783.523 1464.81,783.523 "/>
<polyline clip-path="url(#clip910)" style="stroke:#000000; stroke-linecap:round; stroke-linejoin:round; stroke-width:4; stroke-opacity:1; fill:none" points="1445.91,716.08 1464.81,716.08 "/>
<polyline clip-path="url(#clip910)" style="stroke:#000000; stroke-linecap:round; stroke-linejoin:round; stroke-width:4; stroke-opacity:1; fill:none" points="1445.91,648.636 1464.81,648.636 "/>
<polyline clip-path="url(#clip910)" style="stroke:#000000; stroke-linecap:round; stroke-linejoin:round; stroke-width:4; stroke-opacity:1; fill:none" points="1445.91,581.192 1464.81,581.192 "/>
<path clip-path="url(#clip910)" d="M1352.73 836.765 Q1349.12 836.765 1347.29 840.33 Q1345.49 843.872 1345.49 851.001 Q1345.49 858.108 1347.29 861.673 Q1349.12 865.214 1352.73 865.214 Q1356.37 865.214 1358.17 861.673 Q1360 858.108 1360 851.001 Q1360 843.872 1358.17 840.33 Q1356.37 836.765 1352.73 836.765 M1352.73 833.062 Q1358.54 833.062 1361.6 837.668 Q1364.68 842.251 1364.68 851.001 Q1364.68 859.728 1361.6 864.335 Q1358.54 868.918 1352.73 868.918 Q1346.92 868.918 1343.84 864.335 Q1340.79 859.728 1340.79 851.001 Q1340.79 842.251 1343.84 837.668 Q1346.92 833.062 1352.73 833.062 Z" fill="#000000" fill-rule="nonzero" fill-opacity="1" /><path clip-path="url(#clip910)" d="M1372.89 862.367 L1377.78 862.367 L1377.78 868.247 L1372.89 868.247 L1372.89 862.367 Z" fill="#000000" fill-rule="nonzero" fill-opacity="1" /><path clip-path="url(#clip910)" d="M1397.96 836.765 Q1394.35 836.765 1392.52 840.33 Q1390.72 843.872 1390.72 851.001 Q1390.72 858.108 1392.52 861.673 Q1394.35 865.214 1397.96 865.214 Q1401.6 865.214 1403.4 861.673 Q1405.23 858.108 1405.23 851.001 Q1405.23 843.872 1403.4 840.33 Q1401.6 836.765 1397.96 836.765 M1397.96 833.062 Q1403.77 833.062 1406.83 837.668 Q1409.91 842.251 1409.91 851.001 Q1409.91 859.728 1406.83 864.335 Q1403.77 868.918 1397.96 868.918 Q1392.15 868.918 1389.07 864.335 Q1386.02 859.728 1386.02 851.001 Q1386.02 842.251 1389.07 837.668 Q1392.15 833.062 1397.96 833.062 Z" fill="#000000" fill-rule="nonzero" fill-opacity="1" /><path clip-path="url(#clip910)" d="M1353.38 769.322 Q1349.77 769.322 1347.94 772.887 Q1346.13 776.428 1346.13 783.558 Q1346.13 790.664 1347.94 794.229 Q1349.77 797.771 1353.38 797.771 Q1357.01 797.771 1358.82 794.229 Q1360.65 790.664 1360.65 783.558 Q1360.65 776.428 1358.82 772.887 Q1357.01 769.322 1353.38 769.322 M1353.38 765.618 Q1359.19 765.618 1362.25 770.225 Q1365.32 774.808 1365.32 783.558 Q1365.32 792.285 1362.25 796.891 Q1359.19 801.474 1353.38 801.474 Q1347.57 801.474 1344.49 796.891 Q1341.44 792.285 1341.44 783.558 Q1341.44 774.808 1344.49 770.225 Q1347.57 765.618 1353.38 765.618 Z" fill="#000000" fill-rule="nonzero" fill-opacity="1" /><path clip-path="url(#clip910)" d="M1373.54 794.923 L1378.43 794.923 L1378.43 800.803 L1373.54 800.803 L1373.54 794.923 Z" fill="#000000" fill-rule="nonzero" fill-opacity="1" /><path clip-path="url(#clip910)" d="M1402.78 782.169 Q1406.13 782.887 1408.01 785.155 Q1409.91 787.424 1409.91 790.757 Q1409.91 795.873 1406.39 798.673 Q1402.87 801.474 1396.39 801.474 Q1394.21 801.474 1391.9 801.035 Q1389.61 800.618 1387.15 799.761 L1387.15 795.248 Q1389.1 796.382 1391.41 796.961 Q1393.73 797.539 1396.25 797.539 Q1400.65 797.539 1402.94 795.803 Q1405.26 794.067 1405.26 790.757 Q1405.26 787.701 1403.1 785.988 Q1400.97 784.252 1397.15 784.252 L1393.13 784.252 L1393.13 780.41 L1397.34 780.41 Q1400.79 780.41 1402.62 779.044 Q1404.44 777.655 1404.44 775.062 Q1404.44 772.4 1402.55 770.988 Q1400.67 769.553 1397.15 769.553 Q1395.23 769.553 1393.03 769.97 Q1390.83 770.387 1388.19 771.266 L1388.19 767.1 Q1390.86 766.359 1393.17 765.988 Q1395.51 765.618 1397.57 765.618 Q1402.89 765.618 1406 768.049 Q1409.1 770.456 1409.1 774.576 Q1409.1 777.447 1407.45 779.437 Q1405.81 781.405 1402.78 782.169 Z" fill="#000000" fill-rule="nonzero" fill-opacity="1" /><path clip-path="url(#clip910)" d="M1352.57 701.878 Q1348.96 701.878 1347.13 705.443 Q1345.32 708.985 1345.32 716.114 Q1345.32 723.221 1347.13 726.786 Q1348.96 730.327 1352.57 730.327 Q1356.2 730.327 1358.01 726.786 Q1359.84 723.221 1359.84 716.114 Q1359.84 708.985 1358.01 705.443 Q1356.2 701.878 1352.57 701.878 M1352.57 698.175 Q1358.38 698.175 1361.44 702.781 Q1364.51 707.364 1364.51 716.114 Q1364.51 724.841 1361.44 729.448 Q1358.38 734.031 1352.57 734.031 Q1346.76 734.031 1343.68 729.448 Q1340.63 724.841 1340.63 716.114 Q1340.63 707.364 1343.68 702.781 Q1346.76 698.175 1352.57 698.175 Z" fill="#000000" fill-rule="nonzero" fill-opacity="1" /><path clip-path="url(#clip910)" d="M1372.73 727.48 L1377.62 727.48 L1377.62 733.36 L1372.73 733.36 L1372.73 727.48 Z" fill="#000000" fill-rule="nonzero" fill-opacity="1" /><path clip-path="url(#clip910)" d="M1398.38 714.216 Q1395.23 714.216 1393.38 716.369 Q1391.55 718.522 1391.55 722.272 Q1391.55 725.998 1393.38 728.174 Q1395.23 730.327 1398.38 730.327 Q1401.53 730.327 1403.36 728.174 Q1405.21 725.998 1405.21 722.272 Q1405.21 718.522 1403.36 716.369 Q1401.53 714.216 1398.38 714.216 M1407.66 699.563 L1407.66 703.823 Q1405.9 702.989 1404.1 702.55 Q1402.32 702.11 1400.56 702.11 Q1395.93 702.11 1393.47 705.235 Q1391.04 708.36 1390.69 714.679 Q1392.06 712.665 1394.12 711.6 Q1396.18 710.512 1398.66 710.512 Q1403.87 710.512 1406.88 713.684 Q1409.91 716.832 1409.91 722.272 Q1409.91 727.596 1406.76 730.813 Q1403.61 734.031 1398.38 734.031 Q1392.38 734.031 1389.21 729.448 Q1386.04 724.841 1386.04 716.114 Q1386.04 707.92 1389.93 703.059 Q1393.82 698.175 1400.37 698.175 Q1402.13 698.175 1403.91 698.522 Q1405.72 698.869 1407.66 699.563 Z" fill="#000000" fill-rule="nonzero" fill-opacity="1" /><path clip-path="url(#clip910)" d="M1352.92 634.435 Q1349.31 634.435 1347.48 637.999 Q1345.67 641.541 1345.67 648.671 Q1345.67 655.777 1347.48 659.342 Q1349.31 662.884 1352.92 662.884 Q1356.55 662.884 1358.36 659.342 Q1360.19 655.777 1360.19 648.671 Q1360.19 641.541 1358.36 637.999 Q1356.55 634.435 1352.92 634.435 M1352.92 630.731 Q1358.73 630.731 1361.78 635.337 Q1364.86 639.921 1364.86 648.671 Q1364.86 657.398 1361.78 662.004 Q1358.73 666.587 1352.92 666.587 Q1347.11 666.587 1344.03 662.004 Q1340.97 657.398 1340.97 648.671 Q1340.97 639.921 1344.03 635.337 Q1347.11 630.731 1352.92 630.731 Z" fill="#000000" fill-rule="nonzero" fill-opacity="1" /><path clip-path="url(#clip910)" d="M1373.08 660.036 L1377.96 660.036 L1377.96 665.916 L1373.08 665.916 L1373.08 660.036 Z" fill="#000000" fill-rule="nonzero" fill-opacity="1" /><path clip-path="url(#clip910)" d="M1388.29 665.198 L1388.29 660.939 Q1390.05 661.773 1391.85 662.212 Q1393.66 662.652 1395.39 662.652 Q1400.02 662.652 1402.45 659.55 Q1404.91 656.425 1405.26 650.083 Q1403.91 652.073 1401.85 653.138 Q1399.79 654.203 1397.29 654.203 Q1392.11 654.203 1389.07 651.078 Q1386.07 647.93 1386.07 642.49 Q1386.07 637.166 1389.21 633.949 Q1392.36 630.731 1397.59 630.731 Q1403.59 630.731 1406.74 635.337 Q1409.91 639.921 1409.91 648.671 Q1409.91 656.842 1406.02 661.726 Q1402.15 666.587 1395.6 666.587 Q1393.84 666.587 1392.04 666.24 Q1390.23 665.893 1388.29 665.198 M1397.59 650.546 Q1400.74 650.546 1402.57 648.393 Q1404.42 646.24 1404.42 642.49 Q1404.42 638.763 1402.57 636.611 Q1400.74 634.435 1397.59 634.435 Q1394.44 634.435 1392.59 636.611 Q1390.76 638.763 1390.76 642.49 Q1390.76 646.24 1392.59 648.393 Q1394.44 650.546 1397.59 650.546 Z" fill="#000000" fill-rule="nonzero" fill-opacity="1" /><path clip-path="url(#clip910)" d="M1345.14 594.537 L1352.78 594.537 L1352.78 568.172 L1344.47 569.838 L1344.47 565.579 L1352.73 563.912 L1357.41 563.912 L1357.41 594.537 L1365.05 594.537 L1365.05 598.472 L1345.14 598.472 L1345.14 594.537 Z" fill="#000000" fill-rule="nonzero" fill-opacity="1" /><path clip-path="url(#clip910)" d="M1374.49 592.593 L1379.38 592.593 L1379.38 598.472 L1374.49 598.472 L1374.49 592.593 Z" fill="#000000" fill-rule="nonzero" fill-opacity="1" /><path clip-path="url(#clip910)" d="M1393.59 594.537 L1409.91 594.537 L1409.91 598.472 L1387.96 598.472 L1387.96 594.537 Q1390.63 591.783 1395.21 587.153 Q1399.82 582.5 1401 581.158 Q1403.24 578.635 1404.12 576.899 Q1405.02 575.139 1405.02 573.449 Q1405.02 570.695 1403.08 568.959 Q1401.16 567.223 1398.06 567.223 Q1395.86 567.223 1393.4 567.987 Q1390.97 568.75 1388.19 570.301 L1388.19 565.579 Q1391.02 564.445 1393.47 563.866 Q1395.93 563.287 1397.96 563.287 Q1403.33 563.287 1406.53 565.973 Q1409.72 568.658 1409.72 573.149 Q1409.72 575.278 1408.91 577.199 Q1408.13 579.098 1406.02 581.69 Q1405.44 582.361 1402.34 585.579 Q1399.24 588.773 1393.59 594.537 Z" fill="#000000" fill-rule="nonzero" fill-opacity="1" /><path clip-path="url(#clip910)" d="M1265.64 831.559 Q1268.64 831.559 1274.44 833.072 Q1276.95 833.684 1279.23 834.522 Q1281.49 835.327 1283.68 836.518 Q1285.87 837.71 1287.45 839.095 Q1288.99 840.48 1289.96 842.283 Q1290.92 844.087 1290.92 846.084 Q1290.92 849.24 1289.06 851.108 Q1287.16 852.943 1283.9 853.523 Q1290.92 857.839 1290.92 863.604 Q1290.92 867.178 1288.38 868.853 Q1285.8 870.528 1281.49 870.528 Q1277.85 870.528 1274.08 869.562 Q1266.93 867.726 1261.94 864.151 Q1261.36 863.668 1261.36 862.959 Q1261.36 862.541 1261.49 862.347 Q1261.84 861.768 1262.42 861.768 Q1262.84 861.768 1263.26 862.09 Q1266.38 864.344 1269.06 865.826 Q1271.73 867.307 1274.44 867.984 Q1276.75 868.499 1278.72 868.499 Q1282.04 868.499 1284.1 867.082 Q1286.16 865.632 1286.16 862.766 Q1286.16 860.125 1284.52 857.806 Q1282.84 855.488 1280.04 853.781 Q1276.98 853.684 1274.08 852.943 Q1270.99 852.267 1270.99 850.689 Q1270.99 849.433 1272.7 849.433 Q1273.28 849.433 1274.44 849.691 Q1277.49 850.399 1280.23 851.687 Q1282.91 851.236 1284.55 849.562 Q1286.16 847.887 1286.16 845.214 Q1286.16 842.734 1284.35 840.544 Q1282.55 838.322 1279.91 836.905 Q1277.24 835.456 1274.08 834.65 Q1273.02 834.393 1271.67 834.393 Q1268.06 834.393 1265.84 836.905 Q1265.13 837.613 1264.19 837.613 Q1263.1 837.613 1262.1 836.712 Q1261.04 835.649 1261.04 834.393 Q1261.04 833.459 1261.62 832.879 Q1262.78 831.559 1265.64 831.559 Z" fill="#000000" fill-rule="nonzero" fill-opacity="1" /><path clip-path="url(#clip910)" d="M1240.72 788.989 Q1248.04 793.255 1255.2 795.323 Q1262.37 797.392 1269.72 797.392 Q1277.07 797.392 1284.3 795.323 Q1291.49 793.223 1298.78 788.989 L1298.78 794.082 Q1291.3 798.856 1284.07 801.243 Q1276.85 803.599 1269.72 803.599 Q1262.62 803.599 1255.43 801.243 Q1248.23 798.888 1240.72 794.082 L1240.72 788.989 Z" fill="#000000" fill-rule="nonzero" fill-opacity="1" /><path clip-path="url(#clip910)" d="M1260.01 756.97 Q1259.44 757.957 1259.18 759.134 Q1258.9 760.28 1258.9 761.681 Q1258.9 766.646 1262.14 769.319 Q1265.36 771.961 1271.41 771.961 L1290.18 771.961 L1290.18 777.85 L1254.54 777.85 L1254.54 771.961 L1260.07 771.961 Q1256.83 770.115 1255.27 767.155 Q1253.68 764.195 1253.68 759.962 Q1253.68 759.357 1253.77 758.625 Q1253.84 757.893 1254 757.002 L1260.01 756.97 Z" fill="#000000" fill-rule="nonzero" fill-opacity="1" /><path clip-path="url(#clip910)" d="M1272.26 734.626 Q1272.26 741.724 1273.89 744.461 Q1275.51 747.199 1279.43 747.199 Q1282.55 747.199 1284.39 745.162 Q1286.21 743.093 1286.21 739.56 Q1286.21 734.69 1282.77 731.762 Q1279.3 728.802 1273.57 728.802 L1272.26 728.802 L1272.26 734.626 M1269.85 722.945 L1290.18 722.945 L1290.18 728.802 L1284.77 728.802 Q1288.02 730.807 1289.58 733.799 Q1291.11 736.791 1291.11 741.119 Q1291.11 746.594 1288.05 749.84 Q1284.96 753.055 1279.81 753.055 Q1273.79 753.055 1270.74 749.045 Q1267.68 745.002 1267.68 737.013 L1267.68 728.802 L1267.11 728.802 Q1263.07 728.802 1260.87 731.475 Q1258.64 734.117 1258.64 738.923 Q1258.64 741.979 1259.37 744.875 Q1260.11 747.772 1261.57 750.445 L1256.16 750.445 Q1254.92 747.23 1254.31 744.207 Q1253.68 741.183 1253.68 738.318 Q1253.68 730.584 1257.69 726.765 Q1261.7 722.945 1269.85 722.945 Z" fill="#000000" fill-rule="nonzero" fill-opacity="1" /><path clip-path="url(#clip910)" d="M1259.95 687.425 L1240.66 687.425 L1240.66 681.568 L1290.18 681.568 L1290.18 687.425 L1284.84 687.425 Q1288.02 689.271 1289.58 692.103 Q1291.11 694.904 1291.11 698.851 Q1291.11 705.312 1285.95 709.386 Q1280.79 713.429 1272.39 713.429 Q1263.99 713.429 1258.83 709.386 Q1253.68 705.312 1253.68 698.851 Q1253.68 694.904 1255.24 692.103 Q1256.76 689.271 1259.95 687.425 M1272.39 707.381 Q1278.85 707.381 1282.55 704.739 Q1286.21 702.066 1286.21 697.419 Q1286.21 692.772 1282.55 690.098 Q1278.85 687.425 1272.39 687.425 Q1265.93 687.425 1262.27 690.098 Q1258.58 692.772 1258.58 697.419 Q1258.58 702.066 1262.27 704.739 Q1265.93 707.381 1272.39 707.381 Z" fill="#000000" fill-rule="nonzero" fill-opacity="1" /><path clip-path="url(#clip910)" d="M1242.66 659.097 L1242.66 653.686 L1296.23 670.237 L1296.23 675.648 L1242.66 659.097 Z" fill="#000000" fill-rule="nonzero" fill-opacity="1" /><path clip-path="url(#clip910)" d="M1255.59 624.818 L1261.12 624.818 Q1259.85 627.301 1259.21 629.974 Q1258.58 632.648 1258.58 635.512 Q1258.58 639.873 1259.92 642.069 Q1261.25 644.233 1263.93 644.233 Q1265.96 644.233 1267.14 642.674 Q1268.29 641.114 1269.34 636.404 L1269.78 634.398 Q1271.12 628.16 1273.57 625.55 Q1275.99 622.908 1280.35 622.908 Q1285.31 622.908 1288.21 626.855 Q1291.11 630.77 1291.11 637.645 Q1291.11 640.509 1290.53 643.629 Q1289.99 646.716 1288.88 650.153 L1282.83 650.153 Q1284.52 646.907 1285.38 643.756 Q1286.21 640.605 1286.21 637.517 Q1286.21 633.38 1284.81 631.152 Q1283.37 628.924 1280.79 628.924 Q1278.41 628.924 1277.13 630.547 Q1275.86 632.138 1274.68 637.581 L1274.21 639.618 Q1273.06 645.061 1270.71 647.48 Q1268.32 649.899 1264.18 649.899 Q1259.15 649.899 1256.41 646.334 Q1253.68 642.769 1253.68 636.213 Q1253.68 632.966 1254.15 630.101 Q1254.63 627.237 1255.59 624.818 Z" fill="#000000" fill-rule="nonzero" fill-opacity="1" /><path clip-path="url(#clip910)" d="M1240.72 614.505 L1240.72 609.413 Q1248.23 604.639 1255.43 602.283 Q1262.62 599.896 1269.72 599.896 Q1276.85 599.896 1284.07 602.283 Q1291.3 604.639 1298.78 609.413 L1298.78 614.505 Q1291.49 610.272 1284.3 608.203 Q1277.07 606.103 1269.72 606.103 Q1262.37 606.103 1255.2 608.203 Q1248.04 610.272 1240.72 614.505 Z" fill="#000000" fill-rule="nonzero" fill-opacity="1" /><polyline clip-path="url(#clip914)" style="stroke:#009af9; stroke-linecap:round; stroke-linejoin:round; stroke-width:4; stroke-opacity:1; fill:none" points="1471.57,850.967 1496.74,673.965 1521.9,599.938 1547.06,601.9 1572.22,648.611 1597.38,712.848 1622.55,775.607 1647.71,826.376 1672.87,861.273 1698.03,880.732 1723.2,887.57 1748.36,885.565 1773.52,878.487 1798.68,869.501 1823.85,860.873 1849.01,853.937 1874.17,849.217 1899.33,846.655 1924.49,845.842 1949.66,846.229 1974.82,847.277 1999.98,848.546 2025.14,849.73 2050.31,850.661 2075.47,851.278 2100.63,851.599 2125.79,851.685 2150.95,851.615 2176.12,851.461 2201.28,851.283 2226.44,851.12 2251.6,850.996 2276.77,850.915 2301.93,850.875 2327.09,850.866 "/>
<polyline clip-path="url(#clip914)" style="stroke:#e26f46; stroke-linecap:round; stroke-linejoin:round; stroke-width:3; stroke-opacity:1; fill:none" stroke-dasharray="12, 6, 2, 6" points="1471.57,850.967 1496.74,649.646 1521.9,569.435 1547.06,612.879 1572.22,654.008 1597.38,676.775 1622.55,786.379 1647.71,846.815 1672.87,887.194 1698.03,881.19 1723.2,898.265 1748.36,900.989 1773.52,890.967 1798.68,876.468 1823.85,864.02 1849.01,849.568 1874.17,846.079 1899.33,862.035 1924.49,837.812 1949.66,852.202 1974.82,852.997 1999.98,850.983 2025.14,843.654 2050.31,849.152 2075.47,847.938 2100.63,848.926 2125.79,847.41 2150.95,855.493 2176.12,857.293 2201.28,854.558 2226.44,853.94 2251.6,847.345 2276.77,853.349 2301.93,855.71 2327.09,844.031 "/>
<path clip-path="url(#clip910)" d="M2203.01 726.723 L2322.53 726.723 L2322.53 571.203 L2203.01 571.203  Z" fill="#ffffff" fill-rule="evenodd" fill-opacity="1"/>
<polyline clip-path="url(#clip910)" style="stroke:#000000; stroke-linecap:round; stroke-linejoin:round; stroke-width:4; stroke-opacity:1; fill:none" points="2203.01,726.723 2322.53,726.723 2322.53,571.203 2203.01,571.203 2203.01,726.723 "/>
<polyline clip-path="url(#clip910)" style="stroke:#009af9; stroke-linecap:round; stroke-linejoin:round; stroke-width:4; stroke-opacity:1; fill:none" points="2213.09,623.043 2273.55,623.043 "/>
<path clip-path="url(#clip910)" d="M2310.63 633.582 L2305.36 633.442 L2299.6 633.582 L2299.6 631.334 L2301.47 631.334 L2296.2 625.103 L2291.54 630.326 L2291.21 630.795 Q2291.21 631.006 2291.75 631.17 Q2292.31 631.334 2292.97 631.334 L2292.97 633.582 L2288.03 633.442 L2283.62 633.582 L2283.62 631.334 Q2285.1 631.334 2285.78 631.31 Q2286.48 631.263 2287.28 631.052 Q2288.07 630.842 2288.47 630.42 L2294.75 623.37 L2287.28 614.54 L2283.86 614.54 L2283.86 612.291 L2289.15 612.432 L2294.94 612.291 L2294.94 614.54 L2293.01 614.54 L2297.72 620.044 L2301.75 615.547 Q2301.77 615.523 2302.15 614.961 Q2301.4 614.54 2300.32 614.54 L2300.32 612.291 L2305.26 612.432 L2309.67 612.291 L2309.67 614.54 Q2307.75 614.54 2306.74 614.68 Q2305.76 614.797 2305.45 614.961 Q2305.17 615.125 2304.77 615.547 L2299.17 621.777 L2307.23 631.334 L2310.63 631.334 L2310.63 633.582 Z" fill="#000000" fill-rule="nonzero" fill-opacity="1" /><polyline clip-path="url(#clip910)" style="stroke:#e26f46; stroke-linecap:round; stroke-linejoin:round; stroke-width:3; stroke-opacity:1; fill:none" stroke-dasharray="12, 6, 2, 6" points="2213.09,674.883 2273.55,674.883 "/>
<path clip-path="url(#clip910)" d="M2306.21 663.361 L2305.8 664.033 Q2303.26 662.935 2300.09 661.18 Q2296.93 662.935 2294.39 664.033 L2293.99 663.361 Q2296.76 660.951 2300.09 659.098 Q2303.45 660.967 2306.21 663.361 Z" fill="#000000" fill-rule="nonzero" fill-opacity="1" /><path clip-path="url(#clip910)" d="M2310.63 690.427 L2305.36 690.286 L2299.6 690.427 L2299.6 688.178 L2301.47 688.178 L2296.2 681.948 L2291.54 687.171 L2291.21 687.639 Q2291.21 687.85 2291.75 688.014 Q2292.31 688.178 2292.97 688.178 L2292.97 690.427 L2288.03 690.286 L2283.62 690.427 L2283.62 688.178 Q2285.1 688.178 2285.78 688.155 Q2286.48 688.108 2287.28 687.897 Q2288.07 687.686 2288.47 687.265 L2294.75 680.214 L2287.28 671.384 L2283.86 671.384 L2283.86 669.136 L2289.15 669.276 L2294.94 669.136 L2294.94 671.384 L2293.01 671.384 L2297.72 676.888 L2301.75 672.391 Q2301.77 672.368 2302.15 671.806 Q2301.4 671.384 2300.32 671.384 L2300.32 669.136 L2305.26 669.276 L2309.67 669.136 L2309.67 671.384 Q2307.75 671.384 2306.74 671.525 Q2305.76 671.642 2305.45 671.806 Q2305.17 671.97 2304.77 672.391 L2299.17 678.622 L2307.23 688.178 L2310.63 688.178 L2310.63 690.427 Z" fill="#000000" fill-rule="nonzero" fill-opacity="1" /><path clip-path="url(#clip910)" d="M1445.91 1423.18 L2352.76 1423.18 L2352.76 1071.73 L1445.91 1071.73  Z" fill="#ffffff" fill-rule="evenodd" fill-opacity="1"/>
<defs>
  <clipPath id="clip915">
    <rect x="1445" y="1071" width="908" height="352"/>
  </clipPath>
</defs>
<polyline clip-path="url(#clip915)" style="stroke:#000000; stroke-linecap:round; stroke-linejoin:round; stroke-width:2; stroke-opacity:0.1; fill:none" points="1471.57,1423.18 1471.57,1071.73 "/>
<polyline clip-path="url(#clip915)" style="stroke:#000000; stroke-linecap:round; stroke-linejoin:round; stroke-width:2; stroke-opacity:0.1; fill:none" points="1723.2,1423.18 1723.2,1071.73 "/>
<polyline clip-path="url(#clip915)" style="stroke:#000000; stroke-linecap:round; stroke-linejoin:round; stroke-width:2; stroke-opacity:0.1; fill:none" points="1974.82,1423.18 1974.82,1071.73 "/>
<polyline clip-path="url(#clip915)" style="stroke:#000000; stroke-linecap:round; stroke-linejoin:round; stroke-width:2; stroke-opacity:0.1; fill:none" points="2226.44,1423.18 2226.44,1071.73 "/>
<polyline clip-path="url(#clip915)" style="stroke:#000000; stroke-linecap:round; stroke-linejoin:round; stroke-width:2; stroke-opacity:0.1; fill:none" points="1445.91,1364.71 2352.76,1364.71 "/>
<polyline clip-path="url(#clip915)" style="stroke:#000000; stroke-linecap:round; stroke-linejoin:round; stroke-width:2; stroke-opacity:0.1; fill:none" points="1445.91,1290.68 2352.76,1290.68 "/>
<polyline clip-path="url(#clip915)" style="stroke:#000000; stroke-linecap:round; stroke-linejoin:round; stroke-width:2; stroke-opacity:0.1; fill:none" points="1445.91,1216.65 2352.76,1216.65 "/>
<polyline clip-path="url(#clip915)" style="stroke:#000000; stroke-linecap:round; stroke-linejoin:round; stroke-width:2; stroke-opacity:0.1; fill:none" points="1445.91,1142.61 2352.76,1142.61 "/>
<polyline clip-path="url(#clip910)" style="stroke:#000000; stroke-linecap:round; stroke-linejoin:round; stroke-width:4; stroke-opacity:1; fill:none" points="1445.91,1423.18 2352.76,1423.18 "/>
<polyline clip-path="url(#clip910)" style="stroke:#000000; stroke-linecap:round; stroke-linejoin:round; stroke-width:4; stroke-opacity:1; fill:none" points="1471.57,1423.18 1471.57,1404.28 "/>
<polyline clip-path="url(#clip910)" style="stroke:#000000; stroke-linecap:round; stroke-linejoin:round; stroke-width:4; stroke-opacity:1; fill:none" points="1723.2,1423.18 1723.2,1404.28 "/>
<polyline clip-path="url(#clip910)" style="stroke:#000000; stroke-linecap:round; stroke-linejoin:round; stroke-width:4; stroke-opacity:1; fill:none" points="1974.82,1423.18 1974.82,1404.28 "/>
<polyline clip-path="url(#clip910)" style="stroke:#000000; stroke-linecap:round; stroke-linejoin:round; stroke-width:4; stroke-opacity:1; fill:none" points="2226.44,1423.18 2226.44,1404.28 "/>
<path clip-path="url(#clip910)" d="M1471.57 1454.1 Q1467.96 1454.1 1466.13 1457.66 Q1464.33 1461.2 1464.33 1468.33 Q1464.33 1475.44 1466.13 1479.01 Q1467.96 1482.55 1471.57 1482.55 Q1475.21 1482.55 1477.01 1479.01 Q1478.84 1475.44 1478.84 1468.33 Q1478.84 1461.2 1477.01 1457.66 Q1475.21 1454.1 1471.57 1454.1 M1471.57 1450.39 Q1477.38 1450.39 1480.44 1455 Q1483.52 1459.58 1483.52 1468.33 Q1483.52 1477.06 1480.44 1481.67 Q1477.38 1486.25 1471.57 1486.25 Q1465.76 1486.25 1462.68 1481.67 Q1459.63 1477.06 1459.63 1468.33 Q1459.63 1459.58 1462.68 1455 Q1465.76 1450.39 1471.57 1450.39 Z" fill="#000000" fill-rule="nonzero" fill-opacity="1" /><path clip-path="url(#clip910)" d="M1713.58 1481.64 L1721.22 1481.64 L1721.22 1455.28 L1712.91 1456.95 L1712.91 1452.69 L1721.17 1451.02 L1725.85 1451.02 L1725.85 1481.64 L1733.49 1481.64 L1733.49 1485.58 L1713.58 1485.58 L1713.58 1481.64 Z" fill="#000000" fill-rule="nonzero" fill-opacity="1" /><path clip-path="url(#clip910)" d="M1969.47 1481.64 L1985.79 1481.64 L1985.79 1485.58 L1963.85 1485.58 L1963.85 1481.64 Q1966.51 1478.89 1971.09 1474.26 Q1975.7 1469.61 1976.88 1468.27 Q1979.12 1465.74 1980 1464.01 Q1980.91 1462.25 1980.91 1460.56 Q1980.91 1457.8 1978.96 1456.07 Q1977.04 1454.33 1973.94 1454.33 Q1971.74 1454.33 1969.29 1455.09 Q1966.86 1455.86 1964.08 1457.41 L1964.08 1452.69 Q1966.9 1451.55 1969.36 1450.97 Q1971.81 1450.39 1973.85 1450.39 Q1979.22 1450.39 1982.41 1453.08 Q1985.61 1455.77 1985.61 1460.26 Q1985.61 1462.39 1984.8 1464.31 Q1984.01 1466.2 1981.9 1468.8 Q1981.32 1469.47 1978.22 1472.69 Q1975.12 1475.88 1969.47 1481.64 Z" fill="#000000" fill-rule="nonzero" fill-opacity="1" /><path clip-path="url(#clip910)" d="M2230.69 1466.95 Q2234.05 1467.66 2235.92 1469.93 Q2237.82 1472.2 2237.82 1475.53 Q2237.82 1480.65 2234.3 1483.45 Q2230.78 1486.25 2224.3 1486.25 Q2222.12 1486.25 2219.81 1485.81 Q2217.52 1485.39 2215.06 1484.54 L2215.06 1480.02 Q2217.01 1481.16 2219.32 1481.74 Q2221.64 1482.32 2224.16 1482.32 Q2228.56 1482.32 2230.85 1480.58 Q2233.17 1478.84 2233.17 1475.53 Q2233.17 1472.48 2231.01 1470.77 Q2228.88 1469.03 2225.06 1469.03 L2221.04 1469.03 L2221.04 1465.19 L2225.25 1465.19 Q2228.7 1465.19 2230.53 1463.82 Q2232.36 1462.43 2232.36 1459.84 Q2232.36 1457.18 2230.46 1455.77 Q2228.58 1454.33 2225.06 1454.33 Q2223.14 1454.33 2220.94 1454.75 Q2218.74 1455.16 2216.11 1456.04 L2216.11 1451.88 Q2218.77 1451.14 2221.08 1450.77 Q2223.42 1450.39 2225.48 1450.39 Q2230.8 1450.39 2233.91 1452.83 Q2237.01 1455.23 2237.01 1459.35 Q2237.01 1462.22 2235.36 1464.21 Q2233.72 1466.18 2230.69 1466.95 Z" fill="#000000" fill-rule="nonzero" fill-opacity="1" /><path clip-path="url(#clip910)" d="M1769.5 1520.52 L1809.7 1520.52 L1809.7 1525.93 L1792.83 1525.93 L1792.83 1568.04 L1786.37 1568.04 L1786.37 1525.93 L1769.5 1525.93 L1769.5 1520.52 Z" fill="#000000" fill-rule="nonzero" fill-opacity="1" /><path clip-path="url(#clip910)" d="M1813.65 1532.4 L1819.51 1532.4 L1819.51 1568.04 L1813.65 1568.04 L1813.65 1532.4 M1813.65 1518.52 L1819.51 1518.52 L1819.51 1525.93 L1813.65 1525.93 L1813.65 1518.52 Z" fill="#000000" fill-rule="nonzero" fill-opacity="1" /><path clip-path="url(#clip910)" d="M1859.51 1539.24 Q1861.71 1535.29 1864.77 1533.41 Q1867.82 1531.54 1871.96 1531.54 Q1877.53 1531.54 1880.55 1535.45 Q1883.58 1539.33 1883.58 1546.53 L1883.58 1568.04 L1877.69 1568.04 L1877.69 1546.72 Q1877.69 1541.59 1875.87 1539.11 Q1874.06 1536.63 1870.34 1536.63 Q1865.78 1536.63 1863.14 1539.65 Q1860.5 1542.68 1860.5 1547.9 L1860.5 1568.04 L1854.61 1568.04 L1854.61 1546.72 Q1854.61 1541.56 1852.8 1539.11 Q1850.98 1536.63 1847.2 1536.63 Q1842.71 1536.63 1840.07 1539.68 Q1837.43 1542.71 1837.43 1547.9 L1837.43 1568.04 L1831.54 1568.04 L1831.54 1532.4 L1837.43 1532.4 L1837.43 1537.93 Q1839.43 1534.66 1842.23 1533.1 Q1845.03 1531.54 1848.88 1531.54 Q1852.77 1531.54 1855.47 1533.51 Q1858.21 1535.48 1859.51 1539.24 Z" fill="#000000" fill-rule="nonzero" fill-opacity="1" /><path clip-path="url(#clip910)" d="M1925.75 1548.76 L1925.75 1551.62 L1898.82 1551.62 Q1899.2 1557.67 1902.45 1560.85 Q1905.73 1564 1911.55 1564 Q1914.93 1564 1918.08 1563.17 Q1921.26 1562.35 1924.38 1560.69 L1924.38 1566.23 Q1921.23 1567.57 1917.92 1568.27 Q1914.61 1568.97 1911.2 1568.97 Q1902.67 1568.97 1897.68 1564 Q1892.71 1559.04 1892.71 1550.57 Q1892.71 1541.82 1897.42 1536.69 Q1902.16 1531.54 1910.19 1531.54 Q1917.38 1531.54 1921.55 1536.18 Q1925.75 1540.8 1925.75 1548.76 M1919.89 1547.04 Q1919.83 1542.23 1917.19 1539.37 Q1914.58 1536.5 1910.25 1536.5 Q1905.35 1536.5 1902.39 1539.27 Q1899.46 1542.04 1899.01 1547.07 L1919.89 1547.04 Z" fill="#000000" fill-rule="nonzero" fill-opacity="1" /><path clip-path="url(#clip910)" d="M1970.15 1518.58 Q1965.89 1525.9 1963.82 1533.06 Q1961.75 1540.23 1961.75 1547.58 Q1961.75 1554.93 1963.82 1562.16 Q1965.92 1569.35 1970.15 1576.64 L1965.06 1576.64 Q1960.28 1569.16 1957.9 1561.93 Q1955.54 1554.71 1955.54 1547.58 Q1955.54 1540.48 1957.9 1533.29 Q1960.25 1526.09 1965.06 1518.58 L1970.15 1518.58 Z" fill="#000000" fill-rule="nonzero" fill-opacity="1" /><path clip-path="url(#clip910)" d="M2004.24 1533.45 L2004.24 1538.98 Q2001.76 1537.71 1999.08 1537.07 Q1996.41 1536.44 1993.54 1536.44 Q1989.18 1536.44 1986.99 1537.77 Q1984.82 1539.11 1984.82 1541.79 Q1984.82 1543.82 1986.38 1545 Q1987.94 1546.15 1992.65 1547.2 L1994.66 1547.64 Q2000.9 1548.98 2003.51 1551.43 Q2006.15 1553.85 2006.15 1558.21 Q2006.15 1563.17 2002.2 1566.07 Q1998.29 1568.97 1991.41 1568.97 Q1988.55 1568.97 1985.43 1568.39 Q1982.34 1567.85 1978.9 1566.74 L1978.9 1560.69 Q1982.15 1562.38 1985.3 1563.24 Q1988.45 1564.07 1991.54 1564.07 Q1995.68 1564.07 1997.9 1562.66 Q2000.13 1561.23 2000.13 1558.65 Q2000.13 1556.27 1998.51 1554.99 Q1996.92 1553.72 1991.48 1552.54 L1989.44 1552.07 Q1984 1550.92 1981.58 1548.56 Q1979.16 1546.18 1979.16 1542.04 Q1979.16 1537.01 1982.72 1534.27 Q1986.29 1531.54 1992.84 1531.54 Q1996.09 1531.54 1998.96 1532.01 Q2001.82 1532.49 2004.24 1533.45 Z" fill="#000000" fill-rule="nonzero" fill-opacity="1" /><path clip-path="url(#clip910)" d="M2014.55 1518.58 L2019.64 1518.58 Q2024.42 1526.09 2026.77 1533.29 Q2029.16 1540.48 2029.16 1547.58 Q2029.16 1554.71 2026.77 1561.93 Q2024.42 1569.16 2019.64 1576.64 L2014.55 1576.64 Q2018.78 1569.35 2020.85 1562.16 Q2022.95 1554.93 2022.95 1547.58 Q2022.95 1540.23 2020.85 1533.06 Q2018.78 1525.9 2014.55 1518.58 Z" fill="#000000" fill-rule="nonzero" fill-opacity="1" /><polyline clip-path="url(#clip910)" style="stroke:#000000; stroke-linecap:round; stroke-linejoin:round; stroke-width:4; stroke-opacity:1; fill:none" points="1445.91,1423.18 1445.91,1071.73 "/>
<polyline clip-path="url(#clip910)" style="stroke:#000000; stroke-linecap:round; stroke-linejoin:round; stroke-width:4; stroke-opacity:1; fill:none" points="1445.91,1364.71 1464.81,1364.71 "/>
<polyline clip-path="url(#clip910)" style="stroke:#000000; stroke-linecap:round; stroke-linejoin:round; stroke-width:4; stroke-opacity:1; fill:none" points="1445.91,1290.68 1464.81,1290.68 "/>
<polyline clip-path="url(#clip910)" style="stroke:#000000; stroke-linecap:round; stroke-linejoin:round; stroke-width:4; stroke-opacity:1; fill:none" points="1445.91,1216.65 1464.81,1216.65 "/>
<polyline clip-path="url(#clip910)" style="stroke:#000000; stroke-linecap:round; stroke-linejoin:round; stroke-width:4; stroke-opacity:1; fill:none" points="1445.91,1142.61 1464.81,1142.61 "/>
<path clip-path="url(#clip910)" d="M1272.32 1365.16 L1301.99 1365.16 L1301.99 1369.1 L1272.32 1369.1 L1272.32 1365.16 Z" fill="#000000" fill-rule="nonzero" fill-opacity="1" /><path clip-path="url(#clip910)" d="M1322.08 1350.51 Q1318.47 1350.51 1316.64 1354.08 Q1314.84 1357.62 1314.84 1364.75 Q1314.84 1371.85 1316.64 1375.42 Q1318.47 1378.96 1322.08 1378.96 Q1325.72 1378.96 1327.52 1375.42 Q1329.35 1371.85 1329.35 1364.75 Q1329.35 1357.62 1327.52 1354.08 Q1325.72 1350.51 1322.08 1350.51 M1322.08 1346.81 Q1327.89 1346.81 1330.95 1351.41 Q1334.03 1356 1334.03 1364.75 Q1334.03 1373.47 1330.95 1378.08 Q1327.89 1382.66 1322.08 1382.66 Q1316.27 1382.66 1313.2 1378.08 Q1310.14 1373.47 1310.14 1364.75 Q1310.14 1356 1313.2 1351.41 Q1316.27 1346.81 1322.08 1346.81 Z" fill="#000000" fill-rule="nonzero" fill-opacity="1" /><path clip-path="url(#clip910)" d="M1342.25 1376.11 L1347.13 1376.11 L1347.13 1381.99 L1342.25 1381.99 L1342.25 1376.11 Z" fill="#000000" fill-rule="nonzero" fill-opacity="1" /><path clip-path="url(#clip910)" d="M1367.32 1350.51 Q1363.7 1350.51 1361.88 1354.08 Q1360.07 1357.62 1360.07 1364.75 Q1360.07 1371.85 1361.88 1375.42 Q1363.7 1378.96 1367.32 1378.96 Q1370.95 1378.96 1372.76 1375.42 Q1374.58 1371.85 1374.58 1364.75 Q1374.58 1357.62 1372.76 1354.08 Q1370.95 1350.51 1367.32 1350.51 M1367.32 1346.81 Q1373.13 1346.81 1376.18 1351.41 Q1379.26 1356 1379.26 1364.75 Q1379.26 1373.47 1376.18 1378.08 Q1373.13 1382.66 1367.32 1382.66 Q1361.51 1382.66 1358.43 1378.08 Q1355.37 1373.47 1355.37 1364.75 Q1355.37 1356 1358.43 1351.41 Q1361.51 1346.81 1367.32 1346.81 Z" fill="#000000" fill-rule="nonzero" fill-opacity="1" /><path clip-path="url(#clip910)" d="M1400.32 1351.51 L1388.52 1369.96 L1400.32 1369.96 L1400.32 1351.51 M1399.1 1347.43 L1404.98 1347.43 L1404.98 1369.96 L1409.91 1369.96 L1409.91 1373.84 L1404.98 1373.84 L1404.98 1381.99 L1400.32 1381.99 L1400.32 1373.84 L1384.72 1373.84 L1384.72 1369.33 L1399.1 1347.43 Z" fill="#000000" fill-rule="nonzero" fill-opacity="1" /><path clip-path="url(#clip910)" d="M1274.4 1291.13 L1304.08 1291.13 L1304.08 1295.07 L1274.4 1295.07 L1274.4 1291.13 Z" fill="#000000" fill-rule="nonzero" fill-opacity="1" /><path clip-path="url(#clip910)" d="M1324.17 1276.48 Q1320.56 1276.48 1318.73 1280.04 Q1316.92 1283.58 1316.92 1290.71 Q1316.92 1297.82 1318.73 1301.39 Q1320.56 1304.93 1324.17 1304.93 Q1327.8 1304.93 1329.61 1301.39 Q1331.44 1297.82 1331.44 1290.71 Q1331.44 1283.58 1329.61 1280.04 Q1327.8 1276.48 1324.17 1276.48 M1324.17 1272.77 Q1329.98 1272.77 1333.03 1277.38 Q1336.11 1281.96 1336.11 1290.71 Q1336.11 1299.44 1333.03 1304.05 Q1329.98 1308.63 1324.17 1308.63 Q1318.36 1308.63 1315.28 1304.05 Q1312.22 1299.44 1312.22 1290.71 Q1312.22 1281.96 1315.28 1277.38 Q1318.36 1272.77 1324.17 1272.77 Z" fill="#000000" fill-rule="nonzero" fill-opacity="1" /><path clip-path="url(#clip910)" d="M1344.33 1302.08 L1349.21 1302.08 L1349.21 1307.96 L1344.33 1307.96 L1344.33 1302.08 Z" fill="#000000" fill-rule="nonzero" fill-opacity="1" /><path clip-path="url(#clip910)" d="M1369.4 1276.48 Q1365.79 1276.48 1363.96 1280.04 Q1362.15 1283.58 1362.15 1290.71 Q1362.15 1297.82 1363.96 1301.39 Q1365.79 1304.93 1369.4 1304.93 Q1373.03 1304.93 1374.84 1301.39 Q1376.67 1297.82 1376.67 1290.71 Q1376.67 1283.58 1374.84 1280.04 Q1373.03 1276.48 1369.4 1276.48 M1369.4 1272.77 Q1375.21 1272.77 1378.26 1277.38 Q1381.34 1281.96 1381.34 1290.71 Q1381.34 1299.44 1378.26 1304.05 Q1375.21 1308.63 1369.4 1308.63 Q1363.59 1308.63 1360.51 1304.05 Q1357.45 1299.44 1357.45 1290.71 Q1357.45 1281.96 1360.51 1277.38 Q1363.59 1272.77 1369.4 1272.77 Z" fill="#000000" fill-rule="nonzero" fill-opacity="1" /><path clip-path="url(#clip910)" d="M1393.59 1304.02 L1409.91 1304.02 L1409.91 1307.96 L1387.96 1307.96 L1387.96 1304.02 Q1390.63 1301.27 1395.21 1296.64 Q1399.82 1291.99 1401 1290.65 Q1403.24 1288.12 1404.12 1286.39 Q1405.02 1284.63 1405.02 1282.94 Q1405.02 1280.18 1403.08 1278.45 Q1401.16 1276.71 1398.06 1276.71 Q1395.86 1276.71 1393.4 1277.47 Q1390.97 1278.24 1388.19 1279.79 L1388.19 1275.07 Q1391.02 1273.93 1393.47 1273.35 Q1395.93 1272.77 1397.96 1272.77 Q1403.33 1272.77 1406.53 1275.46 Q1409.72 1278.15 1409.72 1282.64 Q1409.72 1284.77 1408.91 1286.69 Q1408.13 1288.58 1406.02 1291.18 Q1405.44 1291.85 1402.34 1295.07 Q1399.24 1298.26 1393.59 1304.02 Z" fill="#000000" fill-rule="nonzero" fill-opacity="1" /><path clip-path="url(#clip910)" d="M1322.57 1202.45 Q1318.96 1202.45 1317.13 1206.01 Q1315.32 1209.55 1315.32 1216.68 Q1315.32 1223.79 1317.13 1227.35 Q1318.96 1230.89 1322.57 1230.89 Q1326.2 1230.89 1328.01 1227.35 Q1329.84 1223.79 1329.84 1216.68 Q1329.84 1209.55 1328.01 1206.01 Q1326.2 1202.45 1322.57 1202.45 M1322.57 1198.74 Q1328.38 1198.74 1331.44 1203.35 Q1334.51 1207.93 1334.51 1216.68 Q1334.51 1225.41 1331.44 1230.01 Q1328.38 1234.6 1322.57 1234.6 Q1316.76 1234.6 1313.68 1230.01 Q1310.63 1225.41 1310.63 1216.68 Q1310.63 1207.93 1313.68 1203.35 Q1316.76 1198.74 1322.57 1198.74 Z" fill="#000000" fill-rule="nonzero" fill-opacity="1" /><path clip-path="url(#clip910)" d="M1342.73 1228.05 L1347.62 1228.05 L1347.62 1233.93 L1342.73 1233.93 L1342.73 1228.05 Z" fill="#000000" fill-rule="nonzero" fill-opacity="1" /><path clip-path="url(#clip910)" d="M1367.8 1202.45 Q1364.19 1202.45 1362.36 1206.01 Q1360.56 1209.55 1360.56 1216.68 Q1360.56 1223.79 1362.36 1227.35 Q1364.19 1230.89 1367.8 1230.89 Q1371.44 1230.89 1373.24 1227.35 Q1375.07 1223.79 1375.07 1216.68 Q1375.07 1209.55 1373.24 1206.01 Q1371.44 1202.45 1367.8 1202.45 M1367.8 1198.74 Q1373.61 1198.74 1376.67 1203.35 Q1379.75 1207.93 1379.75 1216.68 Q1379.75 1225.41 1376.67 1230.01 Q1373.61 1234.6 1367.8 1234.6 Q1361.99 1234.6 1358.91 1230.01 Q1355.86 1225.41 1355.86 1216.68 Q1355.86 1207.93 1358.91 1203.35 Q1361.99 1198.74 1367.8 1198.74 Z" fill="#000000" fill-rule="nonzero" fill-opacity="1" /><path clip-path="url(#clip910)" d="M1397.96 1202.45 Q1394.35 1202.45 1392.52 1206.01 Q1390.72 1209.55 1390.72 1216.68 Q1390.72 1223.79 1392.52 1227.35 Q1394.35 1230.89 1397.96 1230.89 Q1401.6 1230.89 1403.4 1227.35 Q1405.23 1223.79 1405.23 1216.68 Q1405.23 1209.55 1403.4 1206.01 Q1401.6 1202.45 1397.96 1202.45 M1397.96 1198.74 Q1403.77 1198.74 1406.83 1203.35 Q1409.91 1207.93 1409.91 1216.68 Q1409.91 1225.41 1406.83 1230.01 Q1403.77 1234.6 1397.96 1234.6 Q1392.15 1234.6 1389.07 1230.01 Q1386.02 1225.41 1386.02 1216.68 Q1386.02 1207.93 1389.07 1203.35 Q1392.15 1198.74 1397.96 1198.74 Z" fill="#000000" fill-rule="nonzero" fill-opacity="1" /><path clip-path="url(#clip910)" d="M1324.17 1128.41 Q1320.56 1128.41 1318.73 1131.98 Q1316.92 1135.52 1316.92 1142.65 Q1316.92 1149.76 1318.73 1153.32 Q1320.56 1156.86 1324.17 1156.86 Q1327.8 1156.86 1329.61 1153.32 Q1331.44 1149.76 1331.44 1142.65 Q1331.44 1135.52 1329.61 1131.98 Q1327.8 1128.41 1324.17 1128.41 M1324.17 1124.71 Q1329.98 1124.71 1333.03 1129.32 Q1336.11 1133.9 1336.11 1142.65 Q1336.11 1151.38 1333.03 1155.98 Q1329.98 1160.57 1324.17 1160.57 Q1318.36 1160.57 1315.28 1155.98 Q1312.22 1151.38 1312.22 1142.65 Q1312.22 1133.9 1315.28 1129.32 Q1318.36 1124.71 1324.17 1124.71 Z" fill="#000000" fill-rule="nonzero" fill-opacity="1" /><path clip-path="url(#clip910)" d="M1344.33 1154.01 L1349.21 1154.01 L1349.21 1159.89 L1344.33 1159.89 L1344.33 1154.01 Z" fill="#000000" fill-rule="nonzero" fill-opacity="1" /><path clip-path="url(#clip910)" d="M1369.4 1128.41 Q1365.79 1128.41 1363.96 1131.98 Q1362.15 1135.52 1362.15 1142.65 Q1362.15 1149.76 1363.96 1153.32 Q1365.79 1156.86 1369.4 1156.86 Q1373.03 1156.86 1374.84 1153.32 Q1376.67 1149.76 1376.67 1142.65 Q1376.67 1135.52 1374.84 1131.98 Q1373.03 1128.41 1369.4 1128.41 M1369.4 1124.71 Q1375.21 1124.71 1378.26 1129.32 Q1381.34 1133.9 1381.34 1142.65 Q1381.34 1151.38 1378.26 1155.98 Q1375.21 1160.57 1369.4 1160.57 Q1363.59 1160.57 1360.51 1155.98 Q1357.45 1151.38 1357.45 1142.65 Q1357.45 1133.9 1360.51 1129.32 Q1363.59 1124.71 1369.4 1124.71 Z" fill="#000000" fill-rule="nonzero" fill-opacity="1" /><path clip-path="url(#clip910)" d="M1393.59 1155.96 L1409.91 1155.96 L1409.91 1159.89 L1387.96 1159.89 L1387.96 1155.96 Q1390.63 1153.2 1395.21 1148.57 Q1399.82 1143.92 1401 1142.58 Q1403.24 1140.06 1404.12 1138.32 Q1405.02 1136.56 1405.02 1134.87 Q1405.02 1132.12 1403.08 1130.38 Q1401.16 1128.64 1398.06 1128.64 Q1395.86 1128.64 1393.4 1129.41 Q1390.97 1130.17 1388.19 1131.72 L1388.19 1127 Q1391.02 1125.87 1393.47 1125.29 Q1395.93 1124.71 1397.96 1124.71 Q1403.33 1124.71 1406.53 1127.39 Q1409.72 1130.08 1409.72 1134.57 Q1409.72 1136.7 1408.91 1138.62 Q1408.13 1140.52 1406.02 1143.11 Q1405.44 1143.78 1402.34 1147 Q1399.24 1150.19 1393.59 1155.96 Z" fill="#000000" fill-rule="nonzero" fill-opacity="1" /><path clip-path="url(#clip910)" d="M1182.01 1252.88 L1182.94 1253.44 Q1181.43 1256.93 1179.02 1261.28 Q1181.43 1265.63 1182.94 1269.13 L1182.01 1269.67 Q1178.7 1265.86 1176.15 1261.28 Q1178.72 1256.66 1182.01 1252.88 Z" fill="#000000" fill-rule="nonzero" fill-opacity="1" /><path clip-path="url(#clip910)" d="M1194.31 1249.71 Q1196.12 1249.71 1197.15 1250.84 Q1198.14 1251.97 1198.14 1253.26 Q1198.14 1254.48 1197.44 1255.12 Q1196.73 1255.77 1195.83 1255.77 Q1194.6 1255.77 1193.54 1254.87 Q1192.48 1253.96 1192.25 1252.61 Q1191.41 1253.93 1191.41 1255.9 Q1191.41 1257.18 1192.09 1258.31 Q1192.77 1259.41 1193.64 1260.08 Q1194.51 1260.73 1195.76 1261.31 Q1196.99 1261.85 1197.73 1262.08 Q1198.43 1262.27 1199.21 1262.43 L1208.23 1264.69 Q1212.51 1265.78 1214.02 1265.78 Q1215.89 1265.78 1217.15 1264.88 Q1218.37 1263.98 1218.37 1262.18 Q1218.37 1261.47 1218.18 1260.66 Q1217.95 1259.86 1217.37 1258.83 Q1216.76 1257.76 1215.86 1256.83 Q1214.92 1255.86 1213.35 1254.93 Q1211.77 1254 1209.74 1253.38 Q1209.03 1253.19 1209.03 1252.55 Q1209.03 1251.74 1209.67 1251.74 Q1210.22 1251.74 1211.38 1252.19 Q1212.51 1252.61 1213.99 1253.55 Q1215.44 1254.45 1216.76 1255.64 Q1218.05 1256.83 1218.95 1258.6 Q1219.85 1260.37 1219.85 1262.31 Q1219.85 1265.08 1218.37 1266.91 Q1216.89 1268.75 1214.83 1269.42 Q1215.12 1269.58 1215.5 1269.81 Q1215.89 1270.03 1216.76 1270.71 Q1217.6 1271.36 1218.24 1272.1 Q1218.85 1272.84 1219.34 1274 Q1219.85 1275.12 1219.85 1276.35 Q1219.85 1277.89 1219.4 1279.28 Q1218.95 1280.63 1217.92 1281.6 Q1216.89 1282.56 1215.47 1282.56 Q1213.89 1282.56 1212.8 1281.5 Q1211.67 1280.41 1211.67 1278.92 Q1211.67 1277.99 1212.22 1277.25 Q1212.77 1276.48 1213.96 1276.48 Q1215.28 1276.48 1216.28 1277.38 Q1217.27 1278.28 1217.53 1279.57 Q1218.37 1278.25 1218.37 1276.28 Q1218.37 1274.16 1216.5 1272.48 Q1214.63 1270.81 1211.51 1270 Q1204.01 1268.01 1200.66 1267.23 Q1197.28 1266.46 1195.83 1266.46 Q1194.47 1266.46 1193.54 1266.81 Q1192.61 1267.17 1192.19 1267.78 Q1191.74 1268.36 1191.57 1268.91 Q1191.41 1269.42 1191.41 1270 Q1191.41 1270.97 1191.8 1272.06 Q1192.19 1273.13 1193.09 1274.41 Q1193.96 1275.67 1195.76 1276.86 Q1197.56 1278.05 1200.04 1278.86 Q1200.79 1279.02 1200.79 1279.73 Q1200.75 1280.5 1200.11 1280.5 Q1199.56 1280.5 1198.43 1280.08 Q1197.28 1279.63 1195.83 1278.73 Q1194.38 1277.8 1193.09 1276.6 Q1191.77 1275.38 1190.87 1273.61 Q1189.96 1271.81 1189.96 1269.87 Q1189.96 1269 1190.16 1268.17 Q1190.32 1267.3 1190.8 1266.27 Q1191.28 1265.2 1192.35 1264.27 Q1193.41 1263.34 1194.96 1262.76 Q1194.22 1262.37 1193.51 1261.85 Q1192.8 1261.31 1191.93 1260.47 Q1191.03 1259.6 1190.51 1258.41 Q1189.96 1257.18 1189.96 1255.83 Q1189.96 1254.51 1190.32 1253.22 Q1190.64 1251.94 1191.7 1250.84 Q1192.73 1249.71 1194.31 1249.71 Z" fill="#000000" fill-rule="nonzero" fill-opacity="1" /><path clip-path="url(#clip910)" d="M1231.9 1242.25 Q1230.52 1242.25 1229.87 1241.46 Q1229.22 1240.68 1229.22 1239.66 Q1229.22 1238.6 1229.92 1237.86 Q1230.59 1237.09 1231.79 1237.09 Q1233.07 1237.09 1233.79 1237.99 Q1234.51 1238.87 1234.33 1240.13 Q1236.18 1239.03 1237.02 1237 Q1237.85 1234.95 1237.85 1233.06 Q1237.85 1231.07 1236.14 1229.47 Q1234.42 1227.85 1230.23 1227.85 Q1226.67 1227.85 1224.62 1229.25 Q1222.57 1230.62 1222.57 1233.35 L1222.57 1235.38 Q1222.57 1236.08 1222.5 1236.28 Q1222.43 1236.48 1222.05 1236.48 Q1221.6 1236.48 1221.51 1235.78 Q1221.51 1235.08 1221.37 1233.98 Q1221.28 1231.3 1218.96 1229.88 Q1216.79 1228.59 1213.71 1228.59 Q1210.89 1228.59 1209.72 1229.94 Q1208.52 1231.27 1208.52 1233.01 Q1208.52 1234.63 1209.2 1236.41 Q1209.87 1238.2 1211.38 1239.17 Q1211.38 1236.3 1213.71 1236.3 Q1214.72 1236.3 1215.4 1236.96 Q1216.05 1237.59 1216.05 1238.65 Q1216.05 1239.66 1215.42 1240.34 Q1214.77 1241.01 1213.66 1241.01 Q1211.02 1241.01 1209.2 1238.67 Q1207.37 1236.3 1207.37 1232.83 Q1207.37 1229.4 1209.17 1226.88 Q1210.98 1224.33 1213.75 1224.33 Q1216.48 1224.33 1218.71 1226.13 Q1220.94 1227.94 1221.87 1230.8 Q1222.57 1227.28 1224.96 1225.19 Q1227.32 1223.09 1230.23 1223.09 Q1233.84 1223.09 1236.5 1225.93 Q1239.14 1228.77 1239.14 1232.92 Q1239.14 1236.75 1237.06 1239.5 Q1234.99 1242.25 1231.9 1242.25 Z" fill="#000000" fill-rule="nonzero" fill-opacity="1" /><polyline clip-path="url(#clip915)" style="stroke:#e26f46; stroke-linecap:round; stroke-linejoin:round; stroke-width:3; stroke-opacity:1; fill:none" stroke-dasharray="12, 6, 2, 6" points="1471.57,1216.65 1496.74,1081.68 1521.9,1157.53 1547.06,1401.51 1572.22,1413.23 1597.38,1263.9 1622.55,1358.62 1647.71,1365.49 1672.87,1369.37 1698.03,1291.32 1723.2,1289.78 1748.36,1286.84 1773.52,1274.87 1798.68,1260.03 1823.85,1249.26 1849.01,1226.6 1874.17,1219.08 1899.33,1261.25 1924.49,1212.53 1949.66,1240.64 1974.82,1246.76 1999.98,1247.29 2025.14,1230.7 2050.31,1238.75 2075.47,1232.64 2100.63,1229.63 2125.79,1219.06 2150.95,1231.88 2176.12,1237.97 2201.28,1236.66 2226.44,1240.63 2251.6,1228.81 2276.77,1244.04 2301.93,1257.33 2327.09,1236.29 "/>
</svg>
