<?xml version="1.0" encoding="utf-8"?>
<svg xmlns="http://www.w3.org/2000/svg" xmlns:xlink="http://www.w3.org/1999/xlink" width="600" height="400" viewBox="0 0 2400 1600">
<defs>
  <clipPath id="clip940">
    <rect x="0" y="0" width="2400" height="1600"/>
  </clipPath>
</defs>
<path clip-path="url(#clip940)" d="M0 1600 L2400 1600 L2400 0 L0 0  Z" fill="#ffffff" fill-rule="evenodd" fill-opacity="1"/>
<defs>
  <clipPath id="clip941">
    <rect x="480" y="0" width="1681" height="1600"/>
  </clipPath>
</defs>
<path clip-path="url(#clip940)" d="M203.964 1423.18 L1110.81 1423.18 L1110.81 47.2441 L203.964 47.2441  Z" fill="#ffffff" fill-rule="evenodd" fill-opacity="1"/>
<defs>
  <clipPath id="clip942">
    <rect x="203" y="47" width="908" height="1377"/>
  </clipPath>
</defs>
<polyline clip-path="url(#clip942)" style="stroke:#000000; stroke-linecap:round; stroke-linejoin:round; stroke-width:2; stroke-opacity:0.1; fill:none" points="229.629,1423.18 229.629,47.2441 "/>
<polyline clip-path="url(#clip942)" style="stroke:#000000; stroke-linecap:round; stroke-linejoin:round; stroke-width:2; stroke-opacity:0.1; fill:none" points="481.252,1423.18 481.252,47.2441 "/>
<polyline clip-path="url(#clip942)" style="stroke:#000000; stroke-linecap:round; stroke-linejoin:round; stroke-width:2; stroke-opacity:0.1; fill:none" points="732.874,1423.18 732.874,47.2441 "/>
<polyline clip-path="url(#clip942)" style="stroke:#000000; stroke-linecap:round; stroke-linejoin:round; stroke-width:2; stroke-opacity:0.1; fill:none" points="984.497,1423.18 984.497,47.2441 "/>
<polyline clip-path="url(#clip942)" style="stroke:#000000; stroke-linecap:round; stroke-linejoin:round; stroke-width:2; stroke-opacity:0.1; fill:none" points="203.964,1344.67 1110.81,1344.67 "/>
<polyline clip-path="url(#clip942)" style="stroke:#000000; stroke-linecap:round; stroke-linejoin:round; stroke-width:2; stroke-opacity:0.1; fill:none" points="203.964,916.036 1110.81,916.036 "/>
<polyline clip-path="url(#clip942)" style="stroke:#000000; stroke-linecap:round; stroke-linejoin:round; stroke-width:2; stroke-opacity:0.1; fill:none" points="203.964,487.397 1110.81,487.397 "/>
<polyline clip-path="url(#clip942)" style="stroke:#000000; stroke-linecap:round; stroke-linejoin:round; stroke-width:2; stroke-opacity:0.1; fill:none" points="203.964,58.7593 1110.81,58.7593 "/>
<polyline clip-path="url(#clip940)" style="stroke:#000000; stroke-linecap:round; stroke-linejoin:round; stroke-width:4; stroke-opacity:1; fill:none" points="203.964,1423.18 1110.81,1423.18 "/>
<polyline clip-path="url(#clip940)" style="stroke:#000000; stroke-linecap:round; stroke-linejoin:round; stroke-width:4; stroke-opacity:1; fill:none" points="229.629,1423.18 229.629,1404.28 "/>
<polyline clip-path="url(#clip940)" style="stroke:#000000; stroke-linecap:round; stroke-linejoin:round; stroke-width:4; stroke-opacity:1; fill:none" points="481.252,1423.18 481.252,1404.28 "/>
<polyline clip-path="url(#clip940)" style="stroke:#000000; stroke-linecap:round; stroke-linejoin:round; stroke-width:4; stroke-opacity:1; fill:none" points="732.874,1423.18 732.874,1404.28 "/>
<polyline clip-path="url(#clip940)" style="stroke:#000000; stroke-linecap:round; stroke-linejoin:round; stroke-width:4; stroke-opacity:1; fill:none" points="984.497,1423.18 984.497,1404.28 "/>
<path clip-path="url(#clip940)" d="M229.629 1454.1 Q226.018 1454.1 224.189 1457.66 Q222.384 1461.2 222.384 1468.33 Q222.384 1475.44 224.189 1479.01 Q226.018 1482.55 229.629 1482.55 Q233.263 1482.55 235.069 1479.01 Q236.898 1475.44 236.898 1468.33 Q236.898 1461.2 235.069 1457.66 Q233.263 1454.1 229.629 1454.1 M229.629 1450.39 Q235.439 1450.39 238.495 1455 Q241.573 1459.58 241.573 1468.33 Q241.573 1477.06 238.495 1481.67 Q235.439 1486.25 229.629 1486.25 Q223.819 1486.25 220.74 1481.67 Q217.685 1477.06 217.685 1468.33 Q217.685 1459.58 220.74 1455 Q223.819 1450.39 229.629 1450.39 Z" fill="#000000" fill-rule="nonzero" fill-opacity="1" /><path clip-path="url(#clip940)" d="M471.634 1481.64 L479.273 1481.64 L479.273 1455.28 L470.962 1456.95 L470.962 1452.69 L479.226 1451.02 L483.902 1451.02 L483.902 1481.64 L491.541 1481.64 L491.541 1485.58 L471.634 1485.58 L471.634 1481.64 Z" fill="#000000" fill-rule="nonzero" fill-opacity="1" /><path clip-path="url(#clip940)" d="M727.527 1481.64 L743.847 1481.64 L743.847 1485.58 L721.902 1485.58 L721.902 1481.64 Q724.564 1478.89 729.148 1474.26 Q733.754 1469.61 734.935 1468.27 Q737.18 1465.74 738.06 1464.01 Q738.962 1462.25 738.962 1460.56 Q738.962 1457.8 737.018 1456.07 Q735.097 1454.33 731.995 1454.33 Q729.796 1454.33 727.342 1455.09 Q724.912 1455.86 722.134 1457.41 L722.134 1452.69 Q724.958 1451.55 727.411 1450.97 Q729.865 1450.39 731.902 1450.39 Q737.273 1450.39 740.467 1453.08 Q743.661 1455.77 743.661 1460.26 Q743.661 1462.39 742.851 1464.31 Q742.064 1466.2 739.958 1468.8 Q739.379 1469.47 736.277 1472.69 Q733.175 1475.88 727.527 1481.64 Z" fill="#000000" fill-rule="nonzero" fill-opacity="1" /><path clip-path="url(#clip940)" d="M988.745 1466.95 Q992.101 1467.66 993.976 1469.93 Q995.874 1472.2 995.874 1475.53 Q995.874 1480.65 992.356 1483.45 Q988.837 1486.25 982.356 1486.25 Q980.18 1486.25 977.865 1485.81 Q975.574 1485.39 973.12 1484.54 L973.12 1480.02 Q975.064 1481.16 977.379 1481.74 Q979.694 1482.32 982.217 1482.32 Q986.615 1482.32 988.907 1480.58 Q991.222 1478.84 991.222 1475.53 Q991.222 1472.48 989.069 1470.77 Q986.939 1469.03 983.12 1469.03 L979.092 1469.03 L979.092 1465.19 L983.305 1465.19 Q986.754 1465.19 988.583 1463.82 Q990.411 1462.43 990.411 1459.84 Q990.411 1457.18 988.513 1455.77 Q986.638 1454.33 983.12 1454.33 Q981.199 1454.33 978.999 1454.75 Q976.8 1455.16 974.162 1456.04 L974.162 1451.88 Q976.824 1451.14 979.138 1450.77 Q981.476 1450.39 983.536 1450.39 Q988.861 1450.39 991.962 1452.83 Q995.064 1455.23 995.064 1459.35 Q995.064 1462.22 993.421 1464.21 Q991.777 1466.18 988.745 1466.95 Z" fill="#000000" fill-rule="nonzero" fill-opacity="1" /><path clip-path="url(#clip940)" d="M527.559 1520.52 L567.758 1520.52 L567.758 1525.93 L550.889 1525.93 L550.889 1568.04 L544.428 1568.04 L544.428 1525.93 L527.559 1525.93 L527.559 1520.52 Z" fill="#000000" fill-rule="nonzero" fill-opacity="1" /><path clip-path="url(#clip940)" d="M571.705 1532.4 L577.562 1532.4 L577.562 1568.04 L571.705 1568.04 L571.705 1532.4 M571.705 1518.52 L577.562 1518.52 L577.562 1525.93 L571.705 1525.93 L571.705 1518.52 Z" fill="#000000" fill-rule="nonzero" fill-opacity="1" /><path clip-path="url(#clip940)" d="M617.57 1539.24 Q619.766 1535.29 622.822 1533.41 Q625.877 1531.54 630.015 1531.54 Q635.585 1531.54 638.609 1535.45 Q641.633 1539.33 641.633 1546.53 L641.633 1568.04 L635.744 1568.04 L635.744 1546.72 Q635.744 1541.59 633.93 1539.11 Q632.116 1536.63 628.392 1536.63 Q623.84 1536.63 621.199 1539.65 Q618.557 1542.68 618.557 1547.9 L618.557 1568.04 L612.669 1568.04 L612.669 1546.72 Q612.669 1541.56 610.854 1539.11 Q609.04 1536.63 605.252 1536.63 Q600.765 1536.63 598.123 1539.68 Q595.481 1542.71 595.481 1547.9 L595.481 1568.04 L589.593 1568.04 L589.593 1532.4 L595.481 1532.4 L595.481 1537.93 Q597.486 1534.66 600.287 1533.1 Q603.088 1531.54 606.939 1531.54 Q610.822 1531.54 613.528 1533.51 Q616.265 1535.48 617.57 1539.24 Z" fill="#000000" fill-rule="nonzero" fill-opacity="1" /><path clip-path="url(#clip940)" d="M683.805 1548.76 L683.805 1551.62 L656.878 1551.62 Q657.26 1557.67 660.507 1560.85 Q663.785 1564 669.61 1564 Q672.984 1564 676.135 1563.17 Q679.317 1562.35 682.437 1560.69 L682.437 1566.23 Q679.286 1567.57 675.975 1568.27 Q672.665 1568.97 669.26 1568.97 Q660.73 1568.97 655.733 1564 Q650.767 1559.04 650.767 1550.57 Q650.767 1541.82 655.478 1536.69 Q660.22 1531.54 668.241 1531.54 Q675.434 1531.54 679.604 1536.18 Q683.805 1540.8 683.805 1548.76 M677.949 1547.04 Q677.885 1542.23 675.243 1539.37 Q672.633 1536.5 668.305 1536.5 Q663.403 1536.5 660.443 1539.27 Q657.515 1542.04 657.069 1547.07 L677.949 1547.04 Z" fill="#000000" fill-rule="nonzero" fill-opacity="1" /><path clip-path="url(#clip940)" d="M728.206 1518.58 Q723.941 1525.9 721.872 1533.06 Q719.803 1540.23 719.803 1547.58 Q719.803 1554.93 721.872 1562.16 Q723.973 1569.35 728.206 1576.64 L723.114 1576.64 Q718.339 1569.16 715.952 1561.93 Q713.597 1554.71 713.597 1547.58 Q713.597 1540.48 715.952 1533.29 Q718.307 1526.09 723.114 1518.58 L728.206 1518.58 Z" fill="#000000" fill-rule="nonzero" fill-opacity="1" /><path clip-path="url(#clip940)" d="M762.294 1533.45 L762.294 1538.98 Q759.812 1537.71 757.138 1537.07 Q754.465 1536.44 751.6 1536.44 Q747.24 1536.44 745.043 1537.77 Q742.879 1539.11 742.879 1541.79 Q742.879 1543.82 744.439 1545 Q745.998 1546.15 750.709 1547.2 L752.714 1547.64 Q758.952 1548.98 761.562 1551.43 Q764.204 1553.85 764.204 1558.21 Q764.204 1563.17 760.257 1566.07 Q756.343 1568.97 749.468 1568.97 Q746.603 1568.97 743.484 1568.39 Q740.396 1567.85 736.959 1566.74 L736.959 1560.69 Q740.205 1562.38 743.356 1563.24 Q746.508 1564.07 749.595 1564.07 Q753.733 1564.07 755.961 1562.66 Q758.189 1561.23 758.189 1558.65 Q758.189 1556.27 756.565 1554.99 Q754.974 1553.72 749.531 1552.54 L747.494 1552.07 Q742.052 1550.92 739.633 1548.56 Q737.214 1546.18 737.214 1542.04 Q737.214 1537.01 740.778 1534.27 Q744.343 1531.54 750.9 1531.54 Q754.146 1531.54 757.011 1532.01 Q759.876 1532.49 762.294 1533.45 Z" fill="#000000" fill-rule="nonzero" fill-opacity="1" /><path clip-path="url(#clip940)" d="M772.607 1518.58 L777.699 1518.58 Q782.474 1526.09 784.829 1533.29 Q787.216 1540.48 787.216 1547.58 Q787.216 1554.71 784.829 1561.93 Q782.474 1569.16 777.699 1576.64 L772.607 1576.64 Q776.84 1569.35 778.909 1562.16 Q781.01 1554.93 781.01 1547.58 Q781.01 1540.23 778.909 1533.06 Q776.84 1525.9 772.607 1518.58 Z" fill="#000000" fill-rule="nonzero" fill-opacity="1" /><polyline clip-path="url(#clip940)" style="stroke:#000000; stroke-linecap:round; stroke-linejoin:round; stroke-width:4; stroke-opacity:1; fill:none" points="203.964,1423.18 203.964,47.2441 "/>
<polyline clip-path="url(#clip940)" style="stroke:#000000; stroke-linecap:round; stroke-linejoin:round; stroke-width:4; stroke-opacity:1; fill:none" points="203.964,1344.67 222.861,1344.67 "/>
<polyline clip-path="url(#clip940)" style="stroke:#000000; stroke-linecap:round; stroke-linejoin:round; stroke-width:4; stroke-opacity:1; fill:none" points="203.964,916.036 222.861,916.036 "/>
<polyline clip-path="url(#clip940)" style="stroke:#000000; stroke-linecap:round; stroke-linejoin:round; stroke-width:4; stroke-opacity:1; fill:none" points="203.964,487.397 222.861,487.397 "/>
<polyline clip-path="url(#clip940)" style="stroke:#000000; stroke-linecap:round; stroke-linejoin:round; stroke-width:4; stroke-opacity:1; fill:none" points="203.964,58.7593 222.861,58.7593 "/>
<path clip-path="url(#clip940)" d="M156.019 1330.47 Q152.408 1330.47 150.579 1334.04 Q148.774 1337.58 148.774 1344.71 Q148.774 1351.81 150.579 1355.38 Q152.408 1358.92 156.019 1358.92 Q159.653 1358.92 161.459 1355.38 Q163.288 1351.81 163.288 1344.71 Q163.288 1337.58 161.459 1334.04 Q159.653 1330.47 156.019 1330.47 M156.019 1326.77 Q161.829 1326.77 164.885 1331.38 Q167.964 1335.96 167.964 1344.71 Q167.964 1353.44 164.885 1358.04 Q161.829 1362.63 156.019 1362.63 Q150.209 1362.63 147.13 1358.04 Q144.075 1353.44 144.075 1344.71 Q144.075 1335.96 147.13 1331.38 Q150.209 1326.77 156.019 1326.77 Z" fill="#000000" fill-rule="nonzero" fill-opacity="1" /><path clip-path="url(#clip940)" d="M116.668 929.38 L124.306 929.38 L124.306 903.015 L115.996 904.681 L115.996 900.422 L124.26 898.756 L128.936 898.756 L128.936 929.38 L136.575 929.38 L136.575 933.316 L116.668 933.316 L116.668 929.38 Z" fill="#000000" fill-rule="nonzero" fill-opacity="1" /><path clip-path="url(#clip940)" d="M156.019 901.834 Q152.408 901.834 150.579 905.399 Q148.774 908.941 148.774 916.07 Q148.774 923.177 150.579 926.742 Q152.408 930.283 156.019 930.283 Q159.653 930.283 161.459 926.742 Q163.288 923.177 163.288 916.07 Q163.288 908.941 161.459 905.399 Q159.653 901.834 156.019 901.834 M156.019 898.131 Q161.829 898.131 164.885 902.737 Q167.964 907.32 167.964 916.07 Q167.964 924.797 164.885 929.404 Q161.829 933.987 156.019 933.987 Q150.209 933.987 147.13 929.404 Q144.075 924.797 144.075 916.07 Q144.075 907.32 147.13 902.737 Q150.209 898.131 156.019 898.131 Z" fill="#000000" fill-rule="nonzero" fill-opacity="1" /><path clip-path="url(#clip940)" d="M119.885 500.742 L136.204 500.742 L136.204 504.677 L114.26 504.677 L114.26 500.742 Q116.922 497.988 121.505 493.358 Q126.112 488.705 127.292 487.363 Q129.538 484.84 130.417 483.103 Q131.32 481.344 131.32 479.654 Q131.32 476.9 129.376 475.164 Q127.455 473.428 124.353 473.428 Q122.154 473.428 119.7 474.191 Q117.269 474.955 114.492 476.506 L114.492 471.784 Q117.316 470.65 119.769 470.071 Q122.223 469.492 124.26 469.492 Q129.63 469.492 132.825 472.178 Q136.019 474.863 136.019 479.353 Q136.019 481.483 135.209 483.404 Q134.422 485.303 132.316 487.895 Q131.737 488.566 128.635 491.784 Q125.533 494.978 119.885 500.742 Z" fill="#000000" fill-rule="nonzero" fill-opacity="1" /><path clip-path="url(#clip940)" d="M156.019 473.196 Q152.408 473.196 150.579 476.761 Q148.774 480.303 148.774 487.432 Q148.774 494.539 150.579 498.103 Q152.408 501.645 156.019 501.645 Q159.653 501.645 161.459 498.103 Q163.288 494.539 163.288 487.432 Q163.288 480.303 161.459 476.761 Q159.653 473.196 156.019 473.196 M156.019 469.492 Q161.829 469.492 164.885 474.099 Q167.964 478.682 167.964 487.432 Q167.964 496.159 164.885 500.765 Q161.829 505.349 156.019 505.349 Q150.209 505.349 147.13 500.765 Q144.075 496.159 144.075 487.432 Q144.075 478.682 147.13 474.099 Q150.209 469.492 156.019 469.492 Z" fill="#000000" fill-rule="nonzero" fill-opacity="1" /><path clip-path="url(#clip940)" d="M130.024 57.4051 Q133.38 58.1227 135.255 60.3912 Q137.154 62.6597 137.154 65.993 Q137.154 71.1087 133.635 73.9096 Q130.117 76.7106 123.635 76.7106 Q121.459 76.7106 119.144 76.2707 Q116.853 75.8541 114.399 74.9976 L114.399 70.4837 Q116.343 71.618 118.658 72.1967 Q120.973 72.7754 123.496 72.7754 Q127.894 72.7754 130.186 71.0393 Q132.501 69.3032 132.501 65.993 Q132.501 62.9375 130.348 61.2245 Q128.218 59.4884 124.399 59.4884 L120.371 59.4884 L120.371 55.6459 L124.584 55.6459 Q128.033 55.6459 129.862 54.2801 Q131.691 52.8912 131.691 50.2987 Q131.691 47.6366 129.792 46.2246 Q127.917 44.7894 124.399 44.7894 Q122.478 44.7894 120.279 45.2061 Q118.08 45.6228 115.441 46.5024 L115.441 42.3357 Q118.103 41.595 120.418 41.2246 Q122.755 40.8543 124.816 40.8543 Q130.14 40.8543 133.242 43.2848 Q136.343 45.6922 136.343 49.8126 Q136.343 52.6829 134.7 54.6736 Q133.056 56.6412 130.024 57.4051 Z" fill="#000000" fill-rule="nonzero" fill-opacity="1" /><path clip-path="url(#clip940)" d="M156.019 44.558 Q152.408 44.558 150.579 48.1227 Q148.774 51.6644 148.774 58.794 Q148.774 65.9004 150.579 69.4652 Q152.408 73.0069 156.019 73.0069 Q159.653 73.0069 161.459 69.4652 Q163.288 65.9004 163.288 58.794 Q163.288 51.6644 161.459 48.1227 Q159.653 44.558 156.019 44.558 M156.019 40.8543 Q161.829 40.8543 164.885 45.4607 Q167.964 50.044 167.964 58.794 Q167.964 67.5208 164.885 72.1272 Q161.829 76.7106 156.019 76.7106 Q150.209 76.7106 147.13 72.1272 Q144.075 67.5208 144.075 58.794 Q144.075 50.044 147.13 45.4607 Q150.209 40.8543 156.019 40.8543 Z" fill="#000000" fill-rule="nonzero" fill-opacity="1" /><path clip-path="url(#clip940)" d="M39.4334 772.564 Q44.844 772.564 50.9309 774.303 Q56.9856 776.01 61.8809 778.715 Q66.744 781.42 69.9646 784.963 Q73.153 788.505 73.153 791.887 Q73.153 794.045 71.9613 795.655 Q70.7375 797.233 68.7085 798.103 Q66.6474 798.972 64.393 799.391 Q62.1063 799.81 59.6265 799.81 Q55.9228 799.81 51.8971 799.005 Q47.8391 798.199 44.1677 796.847 Q40.464 795.494 37.1146 793.594 Q33.733 791.694 31.2853 789.6 Q28.8055 787.475 27.3562 785.092 Q25.907 782.708 25.907 780.486 Q25.907 778.876 26.6155 777.588 Q27.2918 776.267 28.4834 775.43 Q29.6428 774.593 31.0277 774.013 Q32.4125 773.401 34.0228 773.111 Q35.6009 772.821 36.9214 772.692 Q38.2096 772.564 39.4334 772.564 M35.3433 776.911 Q33.7008 776.911 32.477 777.04 Q31.2209 777.169 29.9649 777.523 Q28.7089 777.878 28.0325 778.65 Q27.3562 779.391 27.3562 780.551 Q27.3562 783.932 34.2805 787.733 Q36.4383 788.956 39.369 790.051 Q42.2997 791.146 43.6846 791.533 Q45.0694 791.919 48.4833 792.821 L48.4833 779.037 Q39.6911 776.911 35.3433 776.911 M50.5766 779.617 L50.5766 793.336 Q58.6281 795.462 63.6522 795.462 Q68.0322 795.462 69.868 794.56 Q71.6715 793.626 71.6715 791.887 Q71.6715 789.89 69.6747 788.022 Q67.6458 786.154 63.9743 784.254 Q59.2078 781.742 50.5766 779.617 Z" fill="#000000" fill-rule="nonzero" fill-opacity="1" /><path clip-path="url(#clip940)" d="M22.9507 728.256 Q30.2712 732.521 37.4327 734.59 Q44.5941 736.658 51.9465 736.658 Q59.2989 736.658 66.5239 734.59 Q73.7172 732.489 81.0059 728.256 L81.0059 733.348 Q73.5262 738.123 66.3011 740.51 Q59.0761 742.865 51.9465 742.865 Q44.8487 742.865 37.6555 740.51 Q30.4622 738.154 22.9507 733.348 L22.9507 728.256 Z" fill="#000000" fill-rule="nonzero" fill-opacity="1" /><path clip-path="url(#clip940)" d="M28.1387 706.74 Q28.1387 709.286 29.9211 711.036 Q31.6717 712.787 34.218 712.787 Q36.7324 712.787 38.483 711.036 Q40.2017 709.286 40.2017 706.74 Q40.2017 704.193 38.483 702.443 Q36.7324 700.692 34.218 700.692 Q31.7035 700.692 29.9211 702.475 Q28.1387 704.225 28.1387 706.74 M24.0328 706.74 Q24.0328 704.703 24.8286 702.825 Q25.5924 700.947 27.0566 699.578 Q28.4888 698.114 30.3031 697.382 Q32.1173 696.65 34.218 696.65 Q38.4193 696.65 41.3476 699.61 Q44.244 702.538 44.244 706.803 Q44.244 711.1 41.3794 713.965 Q38.5148 716.829 34.218 716.829 Q29.953 716.829 26.9929 713.901 Q24.0328 710.973 24.0328 706.74 Z" fill="#000000" fill-rule="nonzero" fill-opacity="1" /><path clip-path="url(#clip940)" d="M22.9507 685.224 L22.9507 680.131 Q30.4622 675.357 37.6555 673.001 Q44.8487 670.614 51.9465 670.614 Q59.0761 670.614 66.3011 673.001 Q73.5262 675.357 81.0059 680.131 L81.0059 685.224 Q73.7172 680.99 66.5239 678.921 Q59.2989 676.821 51.9465 676.821 Q44.5941 676.821 37.4327 678.921 Q30.2712 680.99 22.9507 685.224 Z" fill="#000000" fill-rule="nonzero" fill-opacity="1" /><polyline clip-path="url(#clip942)" style="stroke:#009af9; stroke-linecap:round; stroke-linejoin:round; stroke-width:4; stroke-opacity:1; fill:none" points="229.629,1384.24 254.791,1230.47 279.954,996.153 305.116,747.936 330.278,463.852 355.44,282.65 380.603,158.34 405.765,151.684 430.927,86.1857 456.089,162.723 481.252,190.949 506.414,186.914 531.576,251.663 556.739,245.956 581.901,258.334 607.063,300.187 632.225,263.914 657.388,308.614 682.55,272.488 707.712,273.318 732.874,278.546 758.037,279.896 783.199,265.866 808.361,248.802 833.524,251.009 858.686,293.819 883.848,278.536 909.01,281.909 934.173,265.733 959.335,293.795 984.497,267.913 1009.66,263.59 1034.82,267.519 1059.98,255.686 1085.15,294.063 "/>
<polyline clip-path="url(#clip942)" style="stroke:#e26f46; stroke-linecap:round; stroke-linejoin:round; stroke-width:3; stroke-opacity:1; fill:none" stroke-dasharray="12, 6, 2, 6" points="229.629,1383.07 254.791,1239.35 279.954,991.555 305.116,739.865 330.278,467.12 355.44,279.873 380.603,159.178 405.765,144.648 430.927,101.006 456.089,157.284 481.252,196.595 506.414,200.054 531.576,249.13 556.739,254.106 581.901,261.434 607.063,294.915 632.225,272.595 657.388,300.882 682.55,279.002 707.712,273.054 732.874,276.502 758.037,279.045 783.199,268.455 808.361,252.055 833.524,250.346 858.686,285.395 883.848,282.067 909.01,282.292 934.173,268.858 959.335,287.997 984.497,272.489 1009.66,264.52 1034.82,266.28 1059.98,257.81 1085.15,286.758 "/>
<path clip-path="url(#clip940)" d="M961.069 1377.32 L1080.58 1377.32 L1080.58 1221.8 L961.069 1221.8  Z" fill="#ffffff" fill-rule="evenodd" fill-opacity="1"/>
<polyline clip-path="url(#clip940)" style="stroke:#000000; stroke-linecap:round; stroke-linejoin:round; stroke-width:4; stroke-opacity:1; fill:none" points="961.069,1377.32 1080.58,1377.32 1080.58,1221.8 961.069,1221.8 961.069,1377.32 "/>
<polyline clip-path="url(#clip940)" style="stroke:#009af9; stroke-linecap:round; stroke-linejoin:round; stroke-width:4; stroke-opacity:1; fill:none" points="971.145,1273.64 1031.6,1273.64 "/>
<path clip-path="url(#clip940)" d="M1068.45 1260.37 Q1066.97 1260.37 1066.22 1260.51 Q1065.48 1260.63 1065.29 1260.8 Q1065.1 1260.96 1064.89 1261.38 L1054.58 1283.3 Q1053.48 1285.65 1051.42 1287.33 Q1049.38 1289.02 1046.81 1289.02 Q1044.65 1289.02 1043.15 1287.71 Q1041.68 1286.42 1041.68 1284.59 Q1041.68 1283.28 1042.5 1282.53 Q1043.32 1281.81 1044.42 1281.81 Q1045.64 1281.81 1046.41 1282.58 Q1047.21 1283.35 1047.21 1284.55 Q1047.21 1285.32 1046.88 1285.9 Q1046.55 1286.51 1046.25 1286.72 Q1045.96 1286.96 1045.66 1287.1 Q1046.15 1287.29 1046.81 1287.29 Q1047.79 1287.29 1048.63 1286.89 Q1049.5 1286.51 1050.06 1286 Q1050.65 1285.51 1051.23 1284.62 Q1051.82 1283.75 1052.1 1283.19 Q1052.38 1282.65 1052.8 1281.71 L1053.9 1279.42 L1044.93 1260.37 L1041.87 1260.37 L1041.87 1258.13 L1047.35 1258.27 L1053.3 1258.13 L1053.3 1260.37 L1050.7 1260.37 L1056.79 1273.33 L1062.31 1261.52 L1062.55 1260.96 Q1062.55 1260.7 1061.99 1260.56 Q1061.42 1260.4 1060.86 1260.4 L1060.3 1260.37 L1060.3 1258.13 L1064.66 1258.27 Q1066.72 1258.27 1068.45 1258.13 L1068.45 1260.37 Z" fill="#000000" fill-rule="nonzero" fill-opacity="1" /><polyline clip-path="url(#clip940)" style="stroke:#e26f46; stroke-linecap:round; stroke-linejoin:round; stroke-width:3; stroke-opacity:1; fill:none" stroke-dasharray="12, 6, 2, 6" points="971.145,1325.48 1031.6,1325.48 "/>
<path clip-path="url(#clip940)" d="M1064.26 1309.2 L1063.85 1309.87 Q1061.31 1308.77 1058.15 1307.01 Q1054.98 1308.77 1052.44 1309.87 L1052.05 1309.2 Q1054.82 1306.79 1058.15 1304.93 Q1061.51 1306.8 1064.26 1309.2 Z" fill="#000000" fill-rule="nonzero" fill-opacity="1" /><path clip-path="url(#clip940)" d="M1068.45 1317.22 Q1066.97 1317.22 1066.22 1317.36 Q1065.48 1317.48 1065.29 1317.64 Q1065.1 1317.8 1064.89 1318.23 L1054.58 1340.15 Q1053.48 1342.49 1051.42 1344.18 Q1049.38 1345.86 1046.81 1345.86 Q1044.65 1345.86 1043.15 1344.55 Q1041.68 1343.26 1041.68 1341.44 Q1041.68 1340.13 1042.5 1339.38 Q1043.32 1338.65 1044.42 1338.65 Q1045.64 1338.65 1046.41 1339.42 Q1047.21 1340.2 1047.21 1341.39 Q1047.21 1342.16 1046.88 1342.75 Q1046.55 1343.36 1046.25 1343.57 Q1045.96 1343.8 1045.66 1343.94 Q1046.15 1344.13 1046.81 1344.13 Q1047.79 1344.13 1048.63 1343.73 Q1049.5 1343.36 1050.06 1342.84 Q1050.65 1342.35 1051.23 1341.46 Q1051.82 1340.59 1052.1 1340.03 Q1052.38 1339.49 1052.8 1338.56 L1053.9 1336.26 L1044.93 1317.22 L1041.87 1317.22 L1041.87 1314.97 L1047.35 1315.11 L1053.3 1314.97 L1053.3 1317.22 L1050.7 1317.22 L1056.79 1330.17 L1062.31 1318.37 L1062.55 1317.8 Q1062.55 1317.55 1061.99 1317.41 Q1061.42 1317.24 1060.86 1317.24 L1060.3 1317.22 L1060.3 1314.97 L1064.66 1315.11 Q1066.72 1315.11 1068.45 1314.97 L1068.45 1317.22 Z" fill="#000000" fill-rule="nonzero" fill-opacity="1" /><path clip-path="url(#clip940)" d="M1445.91 398.692 L2352.76 398.692 L2352.76 47.2441 L1445.91 47.2441  Z" fill="#ffffff" fill-rule="evenodd" fill-opacity="1"/>
<defs>
  <clipPath id="clip943">
    <rect x="1445" y="47" width="908" height="352"/>
  </clipPath>
</defs>
<polyline clip-path="url(#clip943)" style="stroke:#000000; stroke-linecap:round; stroke-linejoin:round; stroke-width:2; stroke-opacity:0.1; fill:none" points="1471.57,398.692 1471.57,47.2441 "/>
<polyline clip-path="url(#clip943)" style="stroke:#000000; stroke-linecap:round; stroke-linejoin:round; stroke-width:2; stroke-opacity:0.1; fill:none" points="1723.2,398.692 1723.2,47.2441 "/>
<polyline clip-path="url(#clip943)" style="stroke:#000000; stroke-linecap:round; stroke-linejoin:round; stroke-width:2; stroke-opacity:0.1; fill:none" points="1974.82,398.692 1974.82,47.2441 "/>
<polyline clip-path="url(#clip943)" style="stroke:#000000; stroke-linecap:round; stroke-linejoin:round; stroke-width:2; stroke-opacity:0.1; fill:none" points="2226.44,398.692 2226.44,47.2441 "/>
<polyline clip-path="url(#clip943)" style="stroke:#000000; stroke-linecap:round; stroke-linejoin:round; stroke-width:2; stroke-opacity:0.1; fill:none" points="1445.91,378.816 2352.76,378.816 "/>
<polyline clip-path="url(#clip943)" style="stroke:#000000; stroke-linecap:round; stroke-linejoin:round; stroke-width:2; stroke-opacity:0.1; fill:none" points="1445.91,315.303 2352.76,315.303 "/>
<polyline clip-path="url(#clip943)" style="stroke:#000000; stroke-linecap:round; stroke-linejoin:round; stroke-width:2; stroke-opacity:0.1; fill:none" points="1445.91,251.791 2352.76,251.791 "/>
<polyline clip-path="url(#clip943)" style="stroke:#000000; stroke-linecap:round; stroke-linejoin:round; stroke-width:2; stroke-opacity:0.1; fill:none" points="1445.91,188.278 2352.76,188.278 "/>
<polyline clip-path="url(#clip943)" style="stroke:#000000; stroke-linecap:round; stroke-linejoin:round; stroke-width:2; stroke-opacity:0.1; fill:none" points="1445.91,124.766 2352.76,124.766 "/>
<polyline clip-path="url(#clip943)" style="stroke:#000000; stroke-linecap:round; stroke-linejoin:round; stroke-width:2; stroke-opacity:0.1; fill:none" points="1445.91,61.2534 2352.76,61.2534 "/>
<polyline clip-path="url(#clip940)" style="stroke:#000000; stroke-linecap:round; stroke-linejoin:round; stroke-width:4; stroke-opacity:1; fill:none" points="1445.91,398.692 2352.76,398.692 "/>
<polyline clip-path="url(#clip940)" style="stroke:#000000; stroke-linecap:round; stroke-linejoin:round; stroke-width:4; stroke-opacity:1; fill:none" points="1471.57,398.692 1471.57,379.794 "/>
<polyline clip-path="url(#clip940)" style="stroke:#000000; stroke-linecap:round; stroke-linejoin:round; stroke-width:4; stroke-opacity:1; fill:none" points="1723.2,398.692 1723.2,379.794 "/>
<polyline clip-path="url(#clip940)" style="stroke:#000000; stroke-linecap:round; stroke-linejoin:round; stroke-width:4; stroke-opacity:1; fill:none" points="1974.82,398.692 1974.82,379.794 "/>
<polyline clip-path="url(#clip940)" style="stroke:#000000; stroke-linecap:round; stroke-linejoin:round; stroke-width:4; stroke-opacity:1; fill:none" points="2226.44,398.692 2226.44,379.794 "/>
<path clip-path="url(#clip940)" d="M1471.57 429.611 Q1467.96 429.611 1466.13 433.175 Q1464.33 436.717 1464.33 443.847 Q1464.33 450.953 1466.13 454.518 Q1467.96 458.059 1471.57 458.059 Q1475.21 458.059 1477.01 454.518 Q1478.84 450.953 1478.84 443.847 Q1478.84 436.717 1477.01 433.175 Q1475.21 429.611 1471.57 429.611 M1471.57 425.907 Q1477.38 425.907 1480.44 430.513 Q1483.52 435.097 1483.52 443.847 Q1483.52 452.573 1480.44 457.18 Q1477.38 461.763 1471.57 461.763 Q1465.76 461.763 1462.68 457.18 Q1459.63 452.573 1459.63 443.847 Q1459.63 435.097 1462.68 430.513 Q1465.76 425.907 1471.57 425.907 Z" fill="#000000" fill-rule="nonzero" fill-opacity="1" /><path clip-path="url(#clip940)" d="M1713.58 457.157 L1721.22 457.157 L1721.22 430.791 L1712.91 432.458 L1712.91 428.199 L1721.17 426.532 L1725.85 426.532 L1725.85 457.157 L1733.49 457.157 L1733.49 461.092 L1713.58 461.092 L1713.58 457.157 Z" fill="#000000" fill-rule="nonzero" fill-opacity="1" /><path clip-path="url(#clip940)" d="M1969.47 457.157 L1985.79 457.157 L1985.79 461.092 L1963.85 461.092 L1963.85 457.157 Q1966.51 454.402 1971.09 449.772 Q1975.7 445.12 1976.88 443.777 Q1979.12 441.254 1980 439.518 Q1980.91 437.759 1980.91 436.069 Q1980.91 433.314 1978.96 431.578 Q1977.04 429.842 1973.94 429.842 Q1971.74 429.842 1969.29 430.606 Q1966.86 431.37 1964.08 432.921 L1964.08 428.199 Q1966.9 427.064 1969.36 426.486 Q1971.81 425.907 1973.85 425.907 Q1979.22 425.907 1982.41 428.592 Q1985.61 431.277 1985.61 435.768 Q1985.61 437.898 1984.8 439.819 Q1984.01 441.717 1981.9 444.31 Q1981.32 444.981 1978.22 448.198 Q1975.12 451.393 1969.47 457.157 Z" fill="#000000" fill-rule="nonzero" fill-opacity="1" /><path clip-path="url(#clip940)" d="M2230.69 442.458 Q2234.05 443.175 2235.92 445.444 Q2237.82 447.712 2237.82 451.046 Q2237.82 456.161 2234.3 458.962 Q2230.78 461.763 2224.3 461.763 Q2222.12 461.763 2219.81 461.323 Q2217.52 460.907 2215.06 460.05 L2215.06 455.536 Q2217.01 456.671 2219.32 457.249 Q2221.64 457.828 2224.16 457.828 Q2228.56 457.828 2230.85 456.092 Q2233.17 454.356 2233.17 451.046 Q2233.17 447.99 2231.01 446.277 Q2228.88 444.541 2225.06 444.541 L2221.04 444.541 L2221.04 440.698 L2225.25 440.698 Q2228.7 440.698 2230.53 439.333 Q2232.36 437.944 2232.36 435.351 Q2232.36 432.689 2230.46 431.277 Q2228.58 429.842 2225.06 429.842 Q2223.14 429.842 2220.94 430.259 Q2218.74 430.675 2216.11 431.555 L2216.11 427.388 Q2218.77 426.648 2221.08 426.277 Q2223.42 425.907 2225.48 425.907 Q2230.8 425.907 2233.91 428.337 Q2237.01 430.745 2237.01 434.865 Q2237.01 437.736 2235.36 439.726 Q2233.72 441.694 2230.69 442.458 Z" fill="#000000" fill-rule="nonzero" fill-opacity="1" /><polyline clip-path="url(#clip940)" style="stroke:#000000; stroke-linecap:round; stroke-linejoin:round; stroke-width:4; stroke-opacity:1; fill:none" points="1445.91,398.692 1445.91,47.2441 "/>
<polyline clip-path="url(#clip940)" style="stroke:#000000; stroke-linecap:round; stroke-linejoin:round; stroke-width:4; stroke-opacity:1; fill:none" points="1445.91,378.816 1464.81,378.816 "/>
<polyline clip-path="url(#clip940)" style="stroke:#000000; stroke-linecap:round; stroke-linejoin:round; stroke-width:4; stroke-opacity:1; fill:none" points="1445.91,315.303 1464.81,315.303 "/>
<polyline clip-path="url(#clip940)" style="stroke:#000000; stroke-linecap:round; stroke-linejoin:round; stroke-width:4; stroke-opacity:1; fill:none" points="1445.91,251.791 1464.81,251.791 "/>
<polyline clip-path="url(#clip940)" style="stroke:#000000; stroke-linecap:round; stroke-linejoin:round; stroke-width:4; stroke-opacity:1; fill:none" points="1445.91,188.278 1464.81,188.278 "/>
<polyline clip-path="url(#clip940)" style="stroke:#000000; stroke-linecap:round; stroke-linejoin:round; stroke-width:4; stroke-opacity:1; fill:none" points="1445.91,124.766 1464.81,124.766 "/>
<polyline clip-path="url(#clip940)" style="stroke:#000000; stroke-linecap:round; stroke-linejoin:round; stroke-width:4; stroke-opacity:1; fill:none" points="1445.91,61.2534 1464.81,61.2534 "/>
<path clip-path="url(#clip940)" d="M1352.73 364.615 Q1349.12 364.615 1347.29 368.179 Q1345.49 371.721 1345.49 378.851 Q1345.49 385.957 1347.29 389.522 Q1349.12 393.064 1352.73 393.064 Q1356.37 393.064 1358.17 389.522 Q1360 385.957 1360 378.851 Q1360 371.721 1358.17 368.179 Q1356.37 364.615 1352.73 364.615 M1352.73 360.911 Q1358.54 360.911 1361.6 365.517 Q1364.68 370.101 1364.68 378.851 Q1364.68 387.577 1361.6 392.184 Q1358.54 396.767 1352.73 396.767 Q1346.92 396.767 1343.84 392.184 Q1340.79 387.577 1340.79 378.851 Q1340.79 370.101 1343.84 365.517 Q1346.92 360.911 1352.73 360.911 Z" fill="#000000" fill-rule="nonzero" fill-opacity="1" /><path clip-path="url(#clip940)" d="M1372.89 390.216 L1377.78 390.216 L1377.78 396.096 L1372.89 396.096 L1372.89 390.216 Z" fill="#000000" fill-rule="nonzero" fill-opacity="1" /><path clip-path="url(#clip940)" d="M1397.96 364.615 Q1394.35 364.615 1392.52 368.179 Q1390.72 371.721 1390.72 378.851 Q1390.72 385.957 1392.52 389.522 Q1394.35 393.064 1397.96 393.064 Q1401.6 393.064 1403.4 389.522 Q1405.23 385.957 1405.23 378.851 Q1405.23 371.721 1403.4 368.179 Q1401.6 364.615 1397.96 364.615 M1397.96 360.911 Q1403.77 360.911 1406.83 365.517 Q1409.91 370.101 1409.91 378.851 Q1409.91 387.577 1406.83 392.184 Q1403.77 396.767 1397.96 396.767 Q1392.15 396.767 1389.07 392.184 Q1386.02 387.577 1386.02 378.851 Q1386.02 370.101 1389.07 365.517 Q1392.15 360.911 1397.96 360.911 Z" fill="#000000" fill-rule="nonzero" fill-opacity="1" /><path clip-path="url(#clip940)" d="M1353.96 301.102 Q1350.35 301.102 1348.52 304.667 Q1346.71 308.209 1346.71 315.338 Q1346.71 322.445 1348.52 326.009 Q1350.35 329.551 1353.96 329.551 Q1357.59 329.551 1359.4 326.009 Q1361.23 322.445 1361.23 315.338 Q1361.23 308.209 1359.4 304.667 Q1357.59 301.102 1353.96 301.102 M1353.96 297.398 Q1359.77 297.398 1362.82 302.005 Q1365.9 306.588 1365.9 315.338 Q1365.9 324.065 1362.82 328.671 Q1359.77 333.255 1353.96 333.255 Q1348.15 333.255 1345.07 328.671 Q1342.01 324.065 1342.01 315.338 Q1342.01 306.588 1345.07 302.005 Q1348.15 297.398 1353.96 297.398 Z" fill="#000000" fill-rule="nonzero" fill-opacity="1" /><path clip-path="url(#clip940)" d="M1374.12 326.704 L1379.01 326.704 L1379.01 332.583 L1374.12 332.583 L1374.12 326.704 Z" fill="#000000" fill-rule="nonzero" fill-opacity="1" /><path clip-path="url(#clip940)" d="M1390 328.648 L1397.64 328.648 L1397.64 302.283 L1389.33 303.949 L1389.33 299.69 L1397.59 298.023 L1402.27 298.023 L1402.27 328.648 L1409.91 328.648 L1409.91 332.583 L1390 332.583 L1390 328.648 Z" fill="#000000" fill-rule="nonzero" fill-opacity="1" /><path clip-path="url(#clip940)" d="M1354.33 237.59 Q1350.72 237.59 1348.89 241.154 Q1347.08 244.696 1347.08 251.826 Q1347.08 258.932 1348.89 262.497 Q1350.72 266.038 1354.33 266.038 Q1357.96 266.038 1359.77 262.497 Q1361.6 258.932 1361.6 251.826 Q1361.6 244.696 1359.77 241.154 Q1357.96 237.59 1354.33 237.59 M1354.33 233.886 Q1360.14 233.886 1363.2 238.492 Q1366.27 243.076 1366.27 251.826 Q1366.27 260.552 1363.2 265.159 Q1360.14 269.742 1354.33 269.742 Q1348.52 269.742 1345.44 265.159 Q1342.39 260.552 1342.39 251.826 Q1342.39 243.076 1345.44 238.492 Q1348.52 233.886 1354.33 233.886 Z" fill="#000000" fill-rule="nonzero" fill-opacity="1" /><path clip-path="url(#clip940)" d="M1374.49 263.191 L1379.38 263.191 L1379.38 269.071 L1374.49 269.071 L1374.49 263.191 Z" fill="#000000" fill-rule="nonzero" fill-opacity="1" /><path clip-path="url(#clip940)" d="M1393.59 265.136 L1409.91 265.136 L1409.91 269.071 L1387.96 269.071 L1387.96 265.136 Q1390.63 262.381 1395.21 257.752 Q1399.82 253.099 1401 251.756 Q1403.24 249.233 1404.12 247.497 Q1405.02 245.738 1405.02 244.048 Q1405.02 241.293 1403.08 239.557 Q1401.16 237.821 1398.06 237.821 Q1395.86 237.821 1393.4 238.585 Q1390.97 239.349 1388.19 240.9 L1388.19 236.178 Q1391.02 235.043 1393.47 234.465 Q1395.93 233.886 1397.96 233.886 Q1403.33 233.886 1406.53 236.571 Q1409.72 239.256 1409.72 243.747 Q1409.72 245.877 1408.91 247.798 Q1408.13 249.696 1406.02 252.289 Q1405.44 252.96 1402.34 256.177 Q1399.24 259.372 1393.59 265.136 Z" fill="#000000" fill-rule="nonzero" fill-opacity="1" /><path clip-path="url(#clip940)" d="M1353.38 174.077 Q1349.77 174.077 1347.94 177.642 Q1346.13 181.184 1346.13 188.313 Q1346.13 195.42 1347.94 198.984 Q1349.77 202.526 1353.38 202.526 Q1357.01 202.526 1358.82 198.984 Q1360.65 195.42 1360.65 188.313 Q1360.65 181.184 1358.82 177.642 Q1357.01 174.077 1353.38 174.077 M1353.38 170.373 Q1359.19 170.373 1362.25 174.98 Q1365.32 179.563 1365.32 188.313 Q1365.32 197.04 1362.25 201.646 Q1359.19 206.23 1353.38 206.23 Q1347.57 206.23 1344.49 201.646 Q1341.44 197.04 1341.44 188.313 Q1341.44 179.563 1344.49 174.98 Q1347.57 170.373 1353.38 170.373 Z" fill="#000000" fill-rule="nonzero" fill-opacity="1" /><path clip-path="url(#clip940)" d="M1373.54 199.679 L1378.43 199.679 L1378.43 205.558 L1373.54 205.558 L1373.54 199.679 Z" fill="#000000" fill-rule="nonzero" fill-opacity="1" /><path clip-path="url(#clip940)" d="M1402.78 186.924 Q1406.13 187.642 1408.01 189.91 Q1409.91 192.179 1409.91 195.512 Q1409.91 200.628 1406.39 203.429 Q1402.87 206.23 1396.39 206.23 Q1394.21 206.23 1391.9 205.79 Q1389.61 205.373 1387.15 204.517 L1387.15 200.003 Q1389.1 201.137 1391.41 201.716 Q1393.73 202.295 1396.25 202.295 Q1400.65 202.295 1402.94 200.558 Q1405.26 198.822 1405.26 195.512 Q1405.26 192.457 1403.1 190.744 Q1400.97 189.008 1397.15 189.008 L1393.13 189.008 L1393.13 185.165 L1397.34 185.165 Q1400.79 185.165 1402.62 183.799 Q1404.44 182.41 1404.44 179.818 Q1404.44 177.156 1402.55 175.744 Q1400.67 174.309 1397.15 174.309 Q1395.23 174.309 1393.03 174.725 Q1390.83 175.142 1388.19 176.022 L1388.19 171.855 Q1390.86 171.114 1393.17 170.744 Q1395.51 170.373 1397.57 170.373 Q1402.89 170.373 1406 172.804 Q1409.1 175.211 1409.1 179.332 Q1409.1 182.202 1407.45 184.193 Q1405.81 186.16 1402.78 186.924 Z" fill="#000000" fill-rule="nonzero" fill-opacity="1" /><path clip-path="url(#clip940)" d="M1352.25 110.565 Q1348.63 110.565 1346.81 114.129 Q1345 117.671 1345 124.801 Q1345 131.907 1346.81 135.472 Q1348.63 139.013 1352.25 139.013 Q1355.88 139.013 1357.69 135.472 Q1359.51 131.907 1359.51 124.801 Q1359.51 117.671 1357.69 114.129 Q1355.88 110.565 1352.25 110.565 M1352.25 106.861 Q1358.06 106.861 1361.11 111.467 Q1364.19 116.051 1364.19 124.801 Q1364.19 133.527 1361.11 138.134 Q1358.06 142.717 1352.25 142.717 Q1346.44 142.717 1343.36 138.134 Q1340.3 133.527 1340.3 124.801 Q1340.3 116.051 1343.36 111.467 Q1346.44 106.861 1352.25 106.861 Z" fill="#000000" fill-rule="nonzero" fill-opacity="1" /><path clip-path="url(#clip940)" d="M1372.41 136.166 L1377.29 136.166 L1377.29 142.046 L1372.41 142.046 L1372.41 136.166 Z" fill="#000000" fill-rule="nonzero" fill-opacity="1" /><path clip-path="url(#clip940)" d="M1400.32 111.56 L1388.52 130.009 L1400.32 130.009 L1400.32 111.56 M1399.1 107.486 L1404.98 107.486 L1404.98 130.009 L1409.91 130.009 L1409.91 133.898 L1404.98 133.898 L1404.98 142.046 L1400.32 142.046 L1400.32 133.898 L1384.72 133.898 L1384.72 129.384 L1399.1 107.486 Z" fill="#000000" fill-rule="nonzero" fill-opacity="1" /><path clip-path="url(#clip940)" d="M1353.73 47.0521 Q1350.12 47.0521 1348.29 50.6168 Q1346.48 54.1585 1346.48 61.2881 Q1346.48 68.3945 1348.29 71.9593 Q1350.12 75.501 1353.73 75.501 Q1357.36 75.501 1359.17 71.9593 Q1361 68.3945 1361 61.2881 Q1361 54.1585 1359.17 50.6168 Q1357.36 47.0521 1353.73 47.0521 M1353.73 43.3484 Q1359.54 43.3484 1362.59 47.9548 Q1365.67 52.5381 1365.67 61.2881 Q1365.67 70.0149 1362.59 74.6213 Q1359.54 79.2047 1353.73 79.2047 Q1347.92 79.2047 1344.84 74.6213 Q1341.78 70.0149 1341.78 61.2881 Q1341.78 52.5381 1344.84 47.9548 Q1347.92 43.3484 1353.73 43.3484 Z" fill="#000000" fill-rule="nonzero" fill-opacity="1" /><path clip-path="url(#clip940)" d="M1373.89 72.6538 L1378.77 72.6538 L1378.77 78.5334 L1373.89 78.5334 L1373.89 72.6538 Z" fill="#000000" fill-rule="nonzero" fill-opacity="1" /><path clip-path="url(#clip940)" d="M1389.01 43.9734 L1407.36 43.9734 L1407.36 47.9085 L1393.29 47.9085 L1393.29 56.3807 Q1394.31 56.0335 1395.32 55.8714 Q1396.34 55.6863 1397.36 55.6863 Q1403.15 55.6863 1406.53 58.8575 Q1409.91 62.0288 1409.91 67.4455 Q1409.91 73.0241 1406.44 76.126 Q1402.96 79.2047 1396.64 79.2047 Q1394.47 79.2047 1392.2 78.8343 Q1389.95 78.4639 1387.55 77.7232 L1387.55 73.0241 Q1389.63 74.1584 1391.85 74.7139 Q1394.07 75.2695 1396.55 75.2695 Q1400.56 75.2695 1402.89 73.163 Q1405.23 71.0566 1405.23 67.4455 Q1405.23 63.8344 1402.89 61.7279 Q1400.56 59.6214 1396.55 59.6214 Q1394.68 59.6214 1392.8 60.0381 Q1390.95 60.4548 1389.01 61.3344 L1389.01 43.9734 Z" fill="#000000" fill-rule="nonzero" fill-opacity="1" /><path clip-path="url(#clip940)" d="M1265.47 298.084 Q1270.89 298.084 1276.97 299.823 Q1283.03 301.53 1287.92 304.235 Q1292.79 306.941 1296.01 310.483 Q1299.19 314.026 1299.19 317.408 Q1299.19 319.565 1298 321.176 Q1296.78 322.754 1294.75 323.623 Q1292.69 324.493 1290.43 324.912 Q1288.15 325.33 1285.67 325.33 Q1281.96 325.33 1277.94 324.525 Q1273.88 323.72 1270.21 322.367 Q1266.51 321.015 1263.16 319.115 Q1259.77 317.214 1257.33 315.121 Q1254.85 312.995 1253.4 310.612 Q1251.95 308.229 1251.95 306.007 Q1251.95 304.396 1252.66 303.108 Q1253.33 301.788 1254.52 300.95 Q1255.68 300.113 1257.07 299.533 Q1258.45 298.921 1260.06 298.632 Q1261.64 298.342 1262.96 298.213 Q1264.25 298.084 1265.47 298.084 M1261.38 302.432 Q1259.74 302.432 1258.52 302.561 Q1257.26 302.69 1256.01 303.044 Q1254.75 303.398 1254.07 304.171 Q1253.4 304.912 1253.4 306.071 Q1253.4 309.453 1260.32 313.253 Q1262.48 314.477 1265.41 315.572 Q1268.34 316.667 1269.73 317.053 Q1271.11 317.44 1274.52 318.342 L1274.52 304.558 Q1265.73 302.432 1261.38 302.432 M1276.62 305.137 L1276.62 318.857 Q1284.67 320.983 1289.69 320.983 Q1294.07 320.983 1295.91 320.081 Q1297.71 319.147 1297.71 317.408 Q1297.71 315.411 1295.72 313.543 Q1293.69 311.675 1290.02 309.775 Q1285.25 307.263 1276.62 305.137 Z" fill="#000000" fill-rule="nonzero" fill-opacity="1" /><path clip-path="url(#clip940)" d="M1248.99 253.776 Q1256.31 258.041 1263.47 260.11 Q1270.64 262.179 1277.99 262.179 Q1285.34 262.179 1292.57 260.11 Q1299.76 258.009 1307.05 253.776 L1307.05 258.869 Q1299.57 263.643 1292.34 266.03 Q1285.12 268.386 1277.99 268.386 Q1270.89 268.386 1263.7 266.03 Q1256.5 263.675 1248.99 258.869 L1248.99 253.776 Z" fill="#000000" fill-rule="nonzero" fill-opacity="1" /><path clip-path="url(#clip940)" d="M1268.28 221.757 Q1267.71 222.743 1267.45 223.921 Q1267.17 225.067 1267.17 226.467 Q1267.17 231.433 1270.41 234.106 Q1273.63 236.748 1279.67 236.748 L1298.45 236.748 L1298.45 242.636 L1262.81 242.636 L1262.81 236.748 L1268.34 236.748 Q1265.1 234.902 1263.54 231.942 Q1261.95 228.982 1261.95 224.749 Q1261.95 224.144 1262.04 223.412 Q1262.11 222.68 1262.26 221.789 L1268.28 221.757 Z" fill="#000000" fill-rule="nonzero" fill-opacity="1" /><path clip-path="url(#clip940)" d="M1280.53 199.413 Q1280.53 206.511 1282.16 209.248 Q1283.78 211.985 1287.7 211.985 Q1290.81 211.985 1292.66 209.948 Q1294.48 207.879 1294.48 204.347 Q1294.48 199.477 1291.04 196.549 Q1287.57 193.588 1281.84 193.588 L1280.53 193.588 L1280.53 199.413 M1278.12 187.732 L1298.45 187.732 L1298.45 193.588 L1293.04 193.588 Q1296.29 195.594 1297.85 198.586 Q1299.38 201.577 1299.38 205.906 Q1299.38 211.381 1296.32 214.627 Q1293.23 217.842 1288.08 217.842 Q1282.06 217.842 1279.01 213.831 Q1275.95 209.789 1275.95 201.8 L1275.95 193.588 L1275.38 193.588 Q1271.34 193.588 1269.14 196.262 Q1266.91 198.904 1266.91 203.71 Q1266.91 206.766 1267.64 209.662 Q1268.38 212.558 1269.84 215.232 L1264.43 215.232 Q1263.19 212.017 1262.58 208.993 Q1261.95 205.97 1261.95 203.105 Q1261.95 195.371 1265.96 191.551 Q1269.97 187.732 1278.12 187.732 Z" fill="#000000" fill-rule="nonzero" fill-opacity="1" /><path clip-path="url(#clip940)" d="M1268.22 152.211 L1248.93 152.211 L1248.93 146.355 L1298.45 146.355 L1298.45 152.211 L1293.11 152.211 Q1296.29 154.057 1297.85 156.89 Q1299.38 159.691 1299.38 163.638 Q1299.38 170.099 1294.22 174.173 Q1289.06 178.215 1280.66 178.215 Q1272.26 178.215 1267.1 174.173 Q1261.95 170.099 1261.95 163.638 Q1261.95 159.691 1263.51 156.89 Q1265.03 154.057 1268.22 152.211 M1280.66 172.168 Q1287.12 172.168 1290.81 169.526 Q1294.48 166.853 1294.48 162.206 Q1294.48 157.559 1290.81 154.885 Q1287.12 152.211 1280.66 152.211 Q1274.2 152.211 1270.54 154.885 Q1266.85 157.559 1266.85 162.206 Q1266.85 166.853 1270.54 169.526 Q1274.2 172.168 1280.66 172.168 Z" fill="#000000" fill-rule="nonzero" fill-opacity="1" /><path clip-path="url(#clip940)" d="M1248.99 135.215 L1248.99 130.122 Q1256.5 125.348 1263.7 122.993 Q1270.89 120.606 1277.99 120.606 Q1285.12 120.606 1292.34 122.993 Q1299.57 125.348 1307.05 130.122 L1307.05 135.215 Q1299.76 130.982 1292.57 128.913 Q1285.34 126.812 1277.99 126.812 Q1270.64 126.812 1263.47 128.913 Q1256.31 130.982 1248.99 135.215 Z" fill="#000000" fill-rule="nonzero" fill-opacity="1" /><polyline clip-path="url(#clip943)" style="stroke:#009af9; stroke-linecap:round; stroke-linejoin:round; stroke-width:4; stroke-opacity:1; fill:none" points="1471.57,378.816 1496.74,351.236 1521.9,288.671 1547.06,216.626 1572.22,152.151 1597.38,103.891 1622.55,73.9109 1647.71,60.1289 1672.87,58.4828 1698.03,64.4733 1723.2,74.0994 1748.36,84.3187 1773.52,93.1734 1798.68,99.6953 1823.85,103.687 1849.01,105.459 1874.17,105.58 1899.33,104.677 1924.49,103.31 1949.66,101.895 1974.82,100.695 1999.98,99.8305 2025.14,99.3181 2050.31,99.107 2075.47,99.115 2100.63,99.2545 2125.79,99.4499 2150.95,99.6458 2176.12,99.8083 2201.28,99.9228 2226.44,99.9885 2251.6,100.013 2276.77,100.009 2301.93,99.988 2327.09,99.9603 "/>
<polyline clip-path="url(#clip943)" style="stroke:#e26f46; stroke-linecap:round; stroke-linejoin:round; stroke-width:3; stroke-opacity:1; fill:none" stroke-dasharray="12, 6, 2, 6" points="1471.57,388.745 1496.74,351.577 1521.9,287.496 1547.06,222.406 1572.22,151.872 1597.38,103.447 1622.55,72.2346 1647.71,68.477 1672.87,57.1907 1698.03,71.7446 1723.2,81.9109 1748.36,82.8054 1773.52,95.4969 1798.68,96.7838 1823.85,98.6789 1849.01,107.337 1874.17,101.565 1899.33,108.88 1924.49,103.222 1949.66,101.684 1974.82,102.576 1999.98,103.233 2025.14,100.495 2050.31,96.2535 2075.47,95.8115 2100.63,104.875 2125.79,104.015 2150.95,104.073 2176.12,100.599 2201.28,105.548 2226.44,101.538 2251.6,99.477 2276.77,99.9322 2301.93,97.7418 2327.09,105.228 "/>
<path clip-path="url(#clip940)" d="M2203.01 386.977 L2322.53 386.977 L2322.53 231.457 L2203.01 231.457  Z" fill="#ffffff" fill-rule="evenodd" fill-opacity="1"/>
<polyline clip-path="url(#clip940)" style="stroke:#000000; stroke-linecap:round; stroke-linejoin:round; stroke-width:4; stroke-opacity:1; fill:none" points="2203.01,386.977 2322.53,386.977 2322.53,231.457 2203.01,231.457 2203.01,386.977 "/>
<polyline clip-path="url(#clip940)" style="stroke:#009af9; stroke-linecap:round; stroke-linejoin:round; stroke-width:4; stroke-opacity:1; fill:none" points="2213.09,283.297 2273.55,283.297 "/>
<path clip-path="url(#clip940)" d="M2310.63 293.836 L2305.36 293.695 L2299.6 293.836 L2299.6 291.587 L2301.47 291.587 L2296.2 285.357 L2291.54 290.58 L2291.21 291.049 Q2291.21 291.26 2291.75 291.423 Q2292.31 291.587 2292.97 291.587 L2292.97 293.836 L2288.03 293.695 L2283.62 293.836 L2283.62 291.587 Q2285.1 291.587 2285.78 291.564 Q2286.48 291.517 2287.28 291.306 Q2288.07 291.096 2288.47 290.674 L2294.75 283.624 L2287.28 274.794 L2283.86 274.794 L2283.86 272.545 L2289.15 272.686 L2294.94 272.545 L2294.94 274.794 L2293.01 274.794 L2297.72 280.298 L2301.75 275.801 Q2301.77 275.777 2302.15 275.215 Q2301.4 274.794 2300.32 274.794 L2300.32 272.545 L2305.26 272.686 L2309.67 272.545 L2309.67 274.794 Q2307.75 274.794 2306.74 274.934 Q2305.76 275.051 2305.45 275.215 Q2305.17 275.379 2304.77 275.801 L2299.17 282.031 L2307.23 291.587 L2310.63 291.587 L2310.63 293.836 Z" fill="#000000" fill-rule="nonzero" fill-opacity="1" /><polyline clip-path="url(#clip940)" style="stroke:#e26f46; stroke-linecap:round; stroke-linejoin:round; stroke-width:3; stroke-opacity:1; fill:none" stroke-dasharray="12, 6, 2, 6" points="2213.09,335.137 2273.55,335.137 "/>
<path clip-path="url(#clip940)" d="M2306.21 323.615 L2305.8 324.287 Q2303.26 323.189 2300.09 321.434 Q2296.93 323.189 2294.39 324.287 L2293.99 323.615 Q2296.76 321.205 2300.09 319.352 Q2303.45 321.221 2306.21 323.615 Z" fill="#000000" fill-rule="nonzero" fill-opacity="1" /><path clip-path="url(#clip940)" d="M2310.63 350.681 L2305.36 350.54 L2299.6 350.681 L2299.6 348.432 L2301.47 348.432 L2296.2 342.202 L2291.54 347.425 L2291.21 347.893 Q2291.21 348.104 2291.75 348.268 Q2292.31 348.432 2292.97 348.432 L2292.97 350.681 L2288.03 350.54 L2283.62 350.681 L2283.62 348.432 Q2285.1 348.432 2285.78 348.409 Q2286.48 348.362 2287.28 348.151 Q2288.07 347.94 2288.47 347.519 L2294.75 340.468 L2287.28 331.638 L2283.86 331.638 L2283.86 329.39 L2289.15 329.53 L2294.94 329.39 L2294.94 331.638 L2293.01 331.638 L2297.72 337.142 L2301.75 332.645 Q2301.77 332.622 2302.15 332.06 Q2301.4 331.638 2300.32 331.638 L2300.32 329.39 L2305.26 329.53 L2309.67 329.39 L2309.67 331.638 Q2307.75 331.638 2306.74 331.779 Q2305.76 331.896 2305.45 332.06 Q2305.17 332.224 2304.77 332.645 L2299.17 338.876 L2307.23 348.432 L2310.63 348.432 L2310.63 350.681 Z" fill="#000000" fill-rule="nonzero" fill-opacity="1" /><path clip-path="url(#clip940)" d="M1445.91 910.936 L2352.76 910.936 L2352.76 559.488 L1445.91 559.488  Z" fill="#ffffff" fill-rule="evenodd" fill-opacity="1"/>
<defs>
  <clipPath id="clip944">
    <rect x="1445" y="559" width="908" height="352"/>
  </clipPath>
</defs>
<polyline clip-path="url(#clip944)" style="stroke:#000000; stroke-linecap:round; stroke-linejoin:round; stroke-width:2; stroke-opacity:0.1; fill:none" points="1471.57,910.936 1471.57,559.488 "/>
<polyline clip-path="url(#clip944)" style="stroke:#000000; stroke-linecap:round; stroke-linejoin:round; stroke-width:2; stroke-opacity:0.1; fill:none" points="1723.2,910.936 1723.2,559.488 "/>
<polyline clip-path="url(#clip944)" style="stroke:#000000; stroke-linecap:round; stroke-linejoin:round; stroke-width:2; stroke-opacity:0.1; fill:none" points="1974.82,910.936 1974.82,559.488 "/>
<polyline clip-path="url(#clip944)" style="stroke:#000000; stroke-linecap:round; stroke-linejoin:round; stroke-width:2; stroke-opacity:0.1; fill:none" points="2226.44,910.936 2226.44,559.488 "/>
<polyline clip-path="url(#clip944)" style="stroke:#000000; stroke-linecap:round; stroke-linejoin:round; stroke-width:2; stroke-opacity:0.1; fill:none" points="1445.91,847.789 2352.76,847.789 "/>
<polyline clip-path="url(#clip944)" style="stroke:#000000; stroke-linecap:round; stroke-linejoin:round; stroke-width:2; stroke-opacity:0.1; fill:none" points="1445.91,779.448 2352.76,779.448 "/>
<polyline clip-path="url(#clip944)" style="stroke:#000000; stroke-linecap:round; stroke-linejoin:round; stroke-width:2; stroke-opacity:0.1; fill:none" points="1445.91,711.107 2352.76,711.107 "/>
<polyline clip-path="url(#clip944)" style="stroke:#000000; stroke-linecap:round; stroke-linejoin:round; stroke-width:2; stroke-opacity:0.1; fill:none" points="1445.91,642.766 2352.76,642.766 "/>
<polyline clip-path="url(#clip944)" style="stroke:#000000; stroke-linecap:round; stroke-linejoin:round; stroke-width:2; stroke-opacity:0.1; fill:none" points="1445.91,574.426 2352.76,574.426 "/>
<polyline clip-path="url(#clip940)" style="stroke:#000000; stroke-linecap:round; stroke-linejoin:round; stroke-width:4; stroke-opacity:1; fill:none" points="1445.91,910.936 2352.76,910.936 "/>
<polyline clip-path="url(#clip940)" style="stroke:#000000; stroke-linecap:round; stroke-linejoin:round; stroke-width:4; stroke-opacity:1; fill:none" points="1471.57,910.936 1471.57,892.038 "/>
<polyline clip-path="url(#clip940)" style="stroke:#000000; stroke-linecap:round; stroke-linejoin:round; stroke-width:4; stroke-opacity:1; fill:none" points="1723.2,910.936 1723.2,892.038 "/>
<polyline clip-path="url(#clip940)" style="stroke:#000000; stroke-linecap:round; stroke-linejoin:round; stroke-width:4; stroke-opacity:1; fill:none" points="1974.82,910.936 1974.82,892.038 "/>
<polyline clip-path="url(#clip940)" style="stroke:#000000; stroke-linecap:round; stroke-linejoin:round; stroke-width:4; stroke-opacity:1; fill:none" points="2226.44,910.936 2226.44,892.038 "/>
<path clip-path="url(#clip940)" d="M1471.57 941.855 Q1467.96 941.855 1466.13 945.419 Q1464.33 948.961 1464.33 956.091 Q1464.33 963.197 1466.13 966.762 Q1467.96 970.303 1471.57 970.303 Q1475.21 970.303 1477.01 966.762 Q1478.84 963.197 1478.84 956.091 Q1478.84 948.961 1477.01 945.419 Q1475.21 941.855 1471.57 941.855 M1471.57 938.151 Q1477.38 938.151 1480.44 942.757 Q1483.52 947.341 1483.52 956.091 Q1483.52 964.817 1480.44 969.424 Q1477.38 974.007 1471.57 974.007 Q1465.76 974.007 1462.68 969.424 Q1459.63 964.817 1459.63 956.091 Q1459.63 947.341 1462.68 942.757 Q1465.76 938.151 1471.57 938.151 Z" fill="#000000" fill-rule="nonzero" fill-opacity="1" /><path clip-path="url(#clip940)" d="M1713.58 969.401 L1721.22 969.401 L1721.22 943.035 L1712.91 944.702 L1712.91 940.443 L1721.17 938.776 L1725.85 938.776 L1725.85 969.401 L1733.49 969.401 L1733.49 973.336 L1713.58 973.336 L1713.58 969.401 Z" fill="#000000" fill-rule="nonzero" fill-opacity="1" /><path clip-path="url(#clip940)" d="M1969.47 969.401 L1985.79 969.401 L1985.79 973.336 L1963.85 973.336 L1963.85 969.401 Q1966.51 966.646 1971.09 962.016 Q1975.7 957.364 1976.88 956.021 Q1979.12 953.498 1980 951.762 Q1980.91 950.003 1980.91 948.313 Q1980.91 945.558 1978.96 943.822 Q1977.04 942.086 1973.94 942.086 Q1971.74 942.086 1969.29 942.85 Q1966.86 943.614 1964.08 945.165 L1964.08 940.443 Q1966.9 939.308 1969.36 938.73 Q1971.81 938.151 1973.85 938.151 Q1979.22 938.151 1982.41 940.836 Q1985.61 943.521 1985.61 948.012 Q1985.61 950.142 1984.8 952.063 Q1984.01 953.961 1981.9 956.554 Q1981.32 957.225 1978.22 960.442 Q1975.12 963.637 1969.47 969.401 Z" fill="#000000" fill-rule="nonzero" fill-opacity="1" /><path clip-path="url(#clip940)" d="M2230.69 954.702 Q2234.05 955.419 2235.92 957.688 Q2237.82 959.956 2237.82 963.29 Q2237.82 968.405 2234.3 971.206 Q2230.78 974.007 2224.3 974.007 Q2222.12 974.007 2219.81 973.567 Q2217.52 973.151 2215.06 972.294 L2215.06 967.78 Q2217.01 968.915 2219.32 969.493 Q2221.64 970.072 2224.16 970.072 Q2228.56 970.072 2230.85 968.336 Q2233.17 966.6 2233.17 963.29 Q2233.17 960.234 2231.01 958.521 Q2228.88 956.785 2225.06 956.785 L2221.04 956.785 L2221.04 952.942 L2225.25 952.942 Q2228.7 952.942 2230.53 951.577 Q2232.36 950.188 2232.36 947.595 Q2232.36 944.933 2230.46 943.521 Q2228.58 942.086 2225.06 942.086 Q2223.14 942.086 2220.94 942.503 Q2218.74 942.919 2216.11 943.799 L2216.11 939.632 Q2218.77 938.892 2221.08 938.521 Q2223.42 938.151 2225.48 938.151 Q2230.8 938.151 2233.91 940.581 Q2237.01 942.989 2237.01 947.109 Q2237.01 949.979 2235.36 951.97 Q2233.72 953.938 2230.69 954.702 Z" fill="#000000" fill-rule="nonzero" fill-opacity="1" /><polyline clip-path="url(#clip940)" style="stroke:#000000; stroke-linecap:round; stroke-linejoin:round; stroke-width:4; stroke-opacity:1; fill:none" points="1445.91,910.936 1445.91,559.488 "/>
<polyline clip-path="url(#clip940)" style="stroke:#000000; stroke-linecap:round; stroke-linejoin:round; stroke-width:4; stroke-opacity:1; fill:none" points="1445.91,847.789 1464.81,847.789 "/>
<polyline clip-path="url(#clip940)" style="stroke:#000000; stroke-linecap:round; stroke-linejoin:round; stroke-width:4; stroke-opacity:1; fill:none" points="1445.91,779.448 1464.81,779.448 "/>
<polyline clip-path="url(#clip940)" style="stroke:#000000; stroke-linecap:round; stroke-linejoin:round; stroke-width:4; stroke-opacity:1; fill:none" points="1445.91,711.107 1464.81,711.107 "/>
<polyline clip-path="url(#clip940)" style="stroke:#000000; stroke-linecap:round; stroke-linejoin:round; stroke-width:4; stroke-opacity:1; fill:none" points="1445.91,642.766 1464.81,642.766 "/>
<polyline clip-path="url(#clip940)" style="stroke:#000000; stroke-linecap:round; stroke-linejoin:round; stroke-width:4; stroke-opacity:1; fill:none" points="1445.91,574.426 1464.81,574.426 "/>
<path clip-path="url(#clip940)" d="M1352.73 833.587 Q1349.12 833.587 1347.29 837.152 Q1345.49 840.694 1345.49 847.823 Q1345.49 854.93 1347.29 858.495 Q1349.12 862.036 1352.73 862.036 Q1356.37 862.036 1358.17 858.495 Q1360 854.93 1360 847.823 Q1360 840.694 1358.17 837.152 Q1356.37 833.587 1352.73 833.587 M1352.73 829.884 Q1358.54 829.884 1361.6 834.49 Q1364.68 839.073 1364.68 847.823 Q1364.68 856.55 1361.6 861.157 Q1358.54 865.74 1352.73 865.74 Q1346.92 865.74 1343.84 861.157 Q1340.79 856.55 1340.79 847.823 Q1340.79 839.073 1343.84 834.49 Q1346.92 829.884 1352.73 829.884 Z" fill="#000000" fill-rule="nonzero" fill-opacity="1" /><path clip-path="url(#clip940)" d="M1372.89 859.189 L1377.78 859.189 L1377.78 865.069 L1372.89 865.069 L1372.89 859.189 Z" fill="#000000" fill-rule="nonzero" fill-opacity="1" /><path clip-path="url(#clip940)" d="M1397.96 833.587 Q1394.35 833.587 1392.52 837.152 Q1390.72 840.694 1390.72 847.823 Q1390.72 854.93 1392.52 858.495 Q1394.35 862.036 1397.96 862.036 Q1401.6 862.036 1403.4 858.495 Q1405.23 854.93 1405.23 847.823 Q1405.23 840.694 1403.4 837.152 Q1401.6 833.587 1397.96 833.587 M1397.96 829.884 Q1403.77 829.884 1406.83 834.49 Q1409.91 839.073 1409.91 847.823 Q1409.91 856.55 1406.83 861.157 Q1403.77 865.74 1397.96 865.74 Q1392.15 865.74 1389.07 861.157 Q1386.02 856.55 1386.02 847.823 Q1386.02 839.073 1389.07 834.49 Q1392.15 829.884 1397.96 829.884 Z" fill="#000000" fill-rule="nonzero" fill-opacity="1" /><path clip-path="url(#clip940)" d="M1353.38 765.247 Q1349.77 765.247 1347.94 768.811 Q1346.13 772.353 1346.13 779.483 Q1346.13 786.589 1347.94 790.154 Q1349.77 793.696 1353.38 793.696 Q1357.01 793.696 1358.82 790.154 Q1360.65 786.589 1360.65 779.483 Q1360.65 772.353 1358.82 768.811 Q1357.01 765.247 1353.38 765.247 M1353.38 761.543 Q1359.19 761.543 1362.25 766.149 Q1365.32 770.733 1365.32 779.483 Q1365.32 788.209 1362.25 792.816 Q1359.19 797.399 1353.38 797.399 Q1347.57 797.399 1344.49 792.816 Q1341.44 788.209 1341.44 779.483 Q1341.44 770.733 1344.49 766.149 Q1347.57 761.543 1353.38 761.543 Z" fill="#000000" fill-rule="nonzero" fill-opacity="1" /><path clip-path="url(#clip940)" d="M1373.54 790.848 L1378.43 790.848 L1378.43 796.728 L1373.54 796.728 L1373.54 790.848 Z" fill="#000000" fill-rule="nonzero" fill-opacity="1" /><path clip-path="url(#clip940)" d="M1402.78 778.094 Q1406.13 778.811 1408.01 781.08 Q1409.91 783.348 1409.91 786.682 Q1409.91 791.797 1406.39 794.598 Q1402.87 797.399 1396.39 797.399 Q1394.21 797.399 1391.9 796.959 Q1389.61 796.543 1387.15 795.686 L1387.15 791.172 Q1389.1 792.307 1391.41 792.885 Q1393.73 793.464 1396.25 793.464 Q1400.65 793.464 1402.94 791.728 Q1405.26 789.992 1405.26 786.682 Q1405.26 783.626 1403.1 781.913 Q1400.97 780.177 1397.15 780.177 L1393.13 780.177 L1393.13 776.334 L1397.34 776.334 Q1400.79 776.334 1402.62 774.969 Q1404.44 773.58 1404.44 770.987 Q1404.44 768.325 1402.55 766.913 Q1400.67 765.478 1397.15 765.478 Q1395.23 765.478 1393.03 765.895 Q1390.83 766.311 1388.19 767.191 L1388.19 763.024 Q1390.86 762.284 1393.17 761.913 Q1395.51 761.543 1397.57 761.543 Q1402.89 761.543 1406 763.973 Q1409.1 766.381 1409.1 770.501 Q1409.1 773.372 1407.45 775.362 Q1405.81 777.33 1402.78 778.094 Z" fill="#000000" fill-rule="nonzero" fill-opacity="1" /><path clip-path="url(#clip940)" d="M1352.57 696.906 Q1348.96 696.906 1347.13 700.471 Q1345.32 704.012 1345.32 711.142 Q1345.32 718.248 1347.13 721.813 Q1348.96 725.355 1352.57 725.355 Q1356.2 725.355 1358.01 721.813 Q1359.84 718.248 1359.84 711.142 Q1359.84 704.012 1358.01 700.471 Q1356.2 696.906 1352.57 696.906 M1352.57 693.202 Q1358.38 693.202 1361.44 697.809 Q1364.51 702.392 1364.51 711.142 Q1364.51 719.869 1361.44 724.475 Q1358.38 729.058 1352.57 729.058 Q1346.76 729.058 1343.68 724.475 Q1340.63 719.869 1340.63 711.142 Q1340.63 702.392 1343.68 697.809 Q1346.76 693.202 1352.57 693.202 Z" fill="#000000" fill-rule="nonzero" fill-opacity="1" /><path clip-path="url(#clip940)" d="M1372.73 722.508 L1377.62 722.508 L1377.62 728.387 L1372.73 728.387 L1372.73 722.508 Z" fill="#000000" fill-rule="nonzero" fill-opacity="1" /><path clip-path="url(#clip940)" d="M1398.38 709.244 Q1395.23 709.244 1393.38 711.396 Q1391.55 713.549 1391.55 717.299 Q1391.55 721.026 1393.38 723.202 Q1395.23 725.355 1398.38 725.355 Q1401.53 725.355 1403.36 723.202 Q1405.21 721.026 1405.21 717.299 Q1405.21 713.549 1403.36 711.396 Q1401.53 709.244 1398.38 709.244 M1407.66 694.591 L1407.66 698.85 Q1405.9 698.017 1404.1 697.577 Q1402.32 697.137 1400.56 697.137 Q1395.93 697.137 1393.47 700.262 Q1391.04 703.387 1390.69 709.707 Q1392.06 707.693 1394.12 706.628 Q1396.18 705.54 1398.66 705.54 Q1403.87 705.54 1406.88 708.711 Q1409.91 711.859 1409.91 717.299 Q1409.91 722.623 1406.76 725.841 Q1403.61 729.058 1398.38 729.058 Q1392.38 729.058 1389.21 724.475 Q1386.04 719.869 1386.04 711.142 Q1386.04 702.947 1389.93 698.086 Q1393.82 693.202 1400.37 693.202 Q1402.13 693.202 1403.91 693.549 Q1405.72 693.897 1407.66 694.591 Z" fill="#000000" fill-rule="nonzero" fill-opacity="1" /><path clip-path="url(#clip940)" d="M1352.92 628.565 Q1349.31 628.565 1347.48 632.13 Q1345.67 635.672 1345.67 642.801 Q1345.67 649.908 1347.48 653.472 Q1349.31 657.014 1352.92 657.014 Q1356.55 657.014 1358.36 653.472 Q1360.19 649.908 1360.19 642.801 Q1360.19 635.672 1358.36 632.13 Q1356.55 628.565 1352.92 628.565 M1352.92 624.861 Q1358.73 624.861 1361.78 629.468 Q1364.86 634.051 1364.86 642.801 Q1364.86 651.528 1361.78 656.134 Q1358.73 660.718 1352.92 660.718 Q1347.11 660.718 1344.03 656.134 Q1340.97 651.528 1340.97 642.801 Q1340.97 634.051 1344.03 629.468 Q1347.11 624.861 1352.92 624.861 Z" fill="#000000" fill-rule="nonzero" fill-opacity="1" /><path clip-path="url(#clip940)" d="M1373.08 654.167 L1377.96 654.167 L1377.96 660.046 L1373.08 660.046 L1373.08 654.167 Z" fill="#000000" fill-rule="nonzero" fill-opacity="1" /><path clip-path="url(#clip940)" d="M1388.29 659.329 L1388.29 655.07 Q1390.05 655.903 1391.85 656.343 Q1393.66 656.783 1395.39 656.783 Q1400.02 656.783 1402.45 653.681 Q1404.91 650.556 1405.26 644.213 Q1403.91 646.204 1401.85 647.269 Q1399.79 648.333 1397.29 648.333 Q1392.11 648.333 1389.07 645.209 Q1386.07 642.06 1386.07 636.621 Q1386.07 631.297 1389.21 628.079 Q1392.36 624.861 1397.59 624.861 Q1403.59 624.861 1406.74 629.468 Q1409.91 634.051 1409.91 642.801 Q1409.91 650.972 1406.02 655.857 Q1402.15 660.718 1395.6 660.718 Q1393.84 660.718 1392.04 660.37 Q1390.23 660.023 1388.29 659.329 M1397.59 644.676 Q1400.74 644.676 1402.57 642.523 Q1404.42 640.371 1404.42 636.621 Q1404.42 632.894 1402.57 630.741 Q1400.74 628.565 1397.59 628.565 Q1394.44 628.565 1392.59 630.741 Q1390.76 632.894 1390.76 636.621 Q1390.76 640.371 1392.59 642.523 Q1394.44 644.676 1397.59 644.676 Z" fill="#000000" fill-rule="nonzero" fill-opacity="1" /><path clip-path="url(#clip940)" d="M1345.14 587.77 L1352.78 587.77 L1352.78 561.405 L1344.47 563.072 L1344.47 558.812 L1352.73 557.146 L1357.41 557.146 L1357.41 587.77 L1365.05 587.77 L1365.05 591.706 L1345.14 591.706 L1345.14 587.77 Z" fill="#000000" fill-rule="nonzero" fill-opacity="1" /><path clip-path="url(#clip940)" d="M1374.49 585.826 L1379.38 585.826 L1379.38 591.706 L1374.49 591.706 L1374.49 585.826 Z" fill="#000000" fill-rule="nonzero" fill-opacity="1" /><path clip-path="url(#clip940)" d="M1393.59 587.77 L1409.91 587.77 L1409.91 591.706 L1387.96 591.706 L1387.96 587.77 Q1390.63 585.016 1395.21 580.386 Q1399.82 575.733 1401 574.391 Q1403.24 571.868 1404.12 570.132 Q1405.02 568.372 1405.02 566.683 Q1405.02 563.928 1403.08 562.192 Q1401.16 560.456 1398.06 560.456 Q1395.86 560.456 1393.4 561.22 Q1390.97 561.984 1388.19 563.534 L1388.19 558.812 Q1391.02 557.678 1393.47 557.099 Q1395.93 556.521 1397.96 556.521 Q1403.33 556.521 1406.53 559.206 Q1409.72 561.891 1409.72 566.382 Q1409.72 568.511 1408.91 570.433 Q1408.13 572.331 1406.02 574.923 Q1405.44 575.595 1402.34 578.812 Q1399.24 582.007 1393.59 587.77 Z" fill="#000000" fill-rule="nonzero" fill-opacity="1" /><path clip-path="url(#clip940)" d="M1265.64 831.559 Q1268.64 831.559 1274.44 833.072 Q1276.95 833.684 1279.23 834.522 Q1281.49 835.327 1283.68 836.518 Q1285.87 837.71 1287.45 839.095 Q1288.99 840.48 1289.96 842.283 Q1290.92 844.087 1290.92 846.084 Q1290.92 849.24 1289.06 851.108 Q1287.16 852.943 1283.9 853.523 Q1290.92 857.839 1290.92 863.604 Q1290.92 867.178 1288.38 868.853 Q1285.8 870.528 1281.49 870.528 Q1277.85 870.528 1274.08 869.562 Q1266.93 867.726 1261.94 864.151 Q1261.36 863.668 1261.36 862.959 Q1261.36 862.541 1261.49 862.347 Q1261.84 861.768 1262.42 861.768 Q1262.84 861.768 1263.26 862.09 Q1266.38 864.344 1269.06 865.826 Q1271.73 867.307 1274.44 867.984 Q1276.75 868.499 1278.72 868.499 Q1282.04 868.499 1284.1 867.082 Q1286.16 865.632 1286.16 862.766 Q1286.16 860.125 1284.52 857.806 Q1282.84 855.488 1280.04 853.781 Q1276.98 853.684 1274.08 852.943 Q1270.99 852.267 1270.99 850.689 Q1270.99 849.433 1272.7 849.433 Q1273.28 849.433 1274.44 849.691 Q1277.49 850.399 1280.23 851.687 Q1282.91 851.236 1284.55 849.562 Q1286.16 847.887 1286.16 845.214 Q1286.16 842.734 1284.35 840.544 Q1282.55 838.322 1279.91 836.905 Q1277.24 835.456 1274.08 834.65 Q1273.02 834.393 1271.67 834.393 Q1268.06 834.393 1265.84 836.905 Q1265.13 837.613 1264.19 837.613 Q1263.1 837.613 1262.1 836.712 Q1261.04 835.649 1261.04 834.393 Q1261.04 833.459 1261.62 832.879 Q1262.78 831.559 1265.64 831.559 Z" fill="#000000" fill-rule="nonzero" fill-opacity="1" /><path clip-path="url(#clip940)" d="M1240.72 788.989 Q1248.04 793.255 1255.2 795.323 Q1262.37 797.392 1269.72 797.392 Q1277.07 797.392 1284.3 795.323 Q1291.49 793.223 1298.78 788.989 L1298.78 794.082 Q1291.3 798.856 1284.07 801.243 Q1276.85 803.599 1269.72 803.599 Q1262.62 803.599 1255.43 801.243 Q1248.23 798.888 1240.72 794.082 L1240.72 788.989 Z" fill="#000000" fill-rule="nonzero" fill-opacity="1" /><path clip-path="url(#clip940)" d="M1260.01 756.97 Q1259.44 757.957 1259.18 759.134 Q1258.9 760.28 1258.9 761.681 Q1258.9 766.646 1262.14 769.319 Q1265.36 771.961 1271.41 771.961 L1290.18 771.961 L1290.18 777.85 L1254.54 777.85 L1254.54 771.961 L1260.07 771.961 Q1256.83 770.115 1255.27 767.155 Q1253.68 764.195 1253.68 759.962 Q1253.68 759.357 1253.77 758.625 Q1253.84 757.893 1254 757.002 L1260.01 756.97 Z" fill="#000000" fill-rule="nonzero" fill-opacity="1" /><path clip-path="url(#clip940)" d="M1272.26 734.626 Q1272.26 741.724 1273.89 744.461 Q1275.51 747.199 1279.43 747.199 Q1282.55 747.199 1284.39 745.162 Q1286.21 743.093 1286.21 739.56 Q1286.21 734.69 1282.77 731.762 Q1279.3 728.802 1273.57 728.802 L1272.26 728.802 L1272.26 734.626 M1269.85 722.945 L1290.18 722.945 L1290.18 728.802 L1284.77 728.802 Q1288.02 730.807 1289.58 733.799 Q1291.11 736.791 1291.11 741.119 Q1291.11 746.594 1288.05 749.84 Q1284.96 753.055 1279.81 753.055 Q1273.79 753.055 1270.74 749.045 Q1267.68 745.002 1267.68 737.013 L1267.68 728.802 L1267.11 728.802 Q1263.07 728.802 1260.87 731.475 Q1258.64 734.117 1258.64 738.923 Q1258.64 741.979 1259.37 744.875 Q1260.11 747.772 1261.57 750.445 L1256.16 750.445 Q1254.92 747.23 1254.31 744.207 Q1253.68 741.183 1253.68 738.318 Q1253.68 730.584 1257.69 726.765 Q1261.7 722.945 1269.85 722.945 Z" fill="#000000" fill-rule="nonzero" fill-opacity="1" /><path clip-path="url(#clip940)" d="M1259.95 687.425 L1240.66 687.425 L1240.66 681.568 L1290.18 681.568 L1290.18 687.425 L1284.84 687.425 Q1288.02 689.271 1289.58 692.103 Q1291.11 694.904 1291.11 698.851 Q1291.11 705.312 1285.95 709.386 Q1280.79 713.429 1272.39 713.429 Q1263.99 713.429 1258.83 709.386 Q1253.68 705.312 1253.68 698.851 Q1253.68 694.904 1255.24 692.103 Q1256.76 689.271 1259.95 687.425 M1272.39 707.381 Q1278.85 707.381 1282.55 704.739 Q1286.21 702.066 1286.21 697.419 Q1286.21 692.772 1282.55 690.098 Q1278.85 687.425 1272.39 687.425 Q1265.93 687.425 1262.27 690.098 Q1258.58 692.772 1258.58 697.419 Q1258.58 702.066 1262.27 704.739 Q1265.93 707.381 1272.39 707.381 Z" fill="#000000" fill-rule="nonzero" fill-opacity="1" /><path clip-path="url(#clip940)" d="M1242.66 659.097 L1242.66 653.686 L1296.23 670.237 L1296.23 675.648 L1242.66 659.097 Z" fill="#000000" fill-rule="nonzero" fill-opacity="1" /><path clip-path="url(#clip940)" d="M1255.59 624.818 L1261.12 624.818 Q1259.85 627.301 1259.21 629.974 Q1258.58 632.648 1258.58 635.512 Q1258.58 639.873 1259.92 642.069 Q1261.25 644.233 1263.93 644.233 Q1265.96 644.233 1267.14 642.674 Q1268.29 641.114 1269.34 636.404 L1269.78 634.398 Q1271.12 628.16 1273.57 625.55 Q1275.99 622.908 1280.35 622.908 Q1285.31 622.908 1288.21 626.855 Q1291.11 630.77 1291.11 637.645 Q1291.11 640.509 1290.53 643.629 Q1289.99 646.716 1288.88 650.153 L1282.83 650.153 Q1284.52 646.907 1285.38 643.756 Q1286.21 640.605 1286.21 637.517 Q1286.21 633.38 1284.81 631.152 Q1283.37 628.924 1280.79 628.924 Q1278.41 628.924 1277.13 630.547 Q1275.86 632.138 1274.68 637.581 L1274.21 639.618 Q1273.06 645.061 1270.71 647.48 Q1268.32 649.899 1264.18 649.899 Q1259.15 649.899 1256.41 646.334 Q1253.68 642.769 1253.68 636.213 Q1253.68 632.966 1254.15 630.101 Q1254.63 627.237 1255.59 624.818 Z" fill="#000000" fill-rule="nonzero" fill-opacity="1" /><path clip-path="url(#clip940)" d="M1240.72 614.505 L1240.72 609.413 Q1248.23 604.639 1255.43 602.283 Q1262.62 599.896 1269.72 599.896 Q1276.85 599.896 1284.07 602.283 Q1291.3 604.639 1298.78 609.413 L1298.78 614.505 Q1291.49 610.272 1284.3 608.203 Q1277.07 606.103 1269.72 606.103 Q1262.37 606.103 1255.2 608.203 Q1248.04 610.272 1240.72 614.505 Z" fill="#000000" fill-rule="nonzero" fill-opacity="1" /><polyline clip-path="url(#clip944)" style="stroke:#009af9; stroke-linecap:round; stroke-linejoin:round; stroke-width:4; stroke-opacity:1; fill:none" points="1471.57,847.789 1496.74,668.432 1521.9,593.421 1547.06,595.409 1572.22,642.741 1597.38,707.833 1622.55,771.427 1647.71,822.871 1672.87,858.232 1698.03,877.95 1723.2,884.879 1748.36,882.847 1773.52,875.676 1798.68,866.569 1823.85,857.827 1849.01,850.798 1874.17,846.016 1899.33,843.42 1924.49,842.596 1949.66,842.988 1974.82,844.05 1999.98,845.336 2025.14,846.536 2050.31,847.479 2075.47,848.104 2100.63,848.429 2125.79,848.517 2150.95,848.445 2176.12,848.289 2201.28,848.109 2226.44,847.944 2251.6,847.818 2276.77,847.736 2301.93,847.696 2327.09,847.687 "/>
<polyline clip-path="url(#clip944)" style="stroke:#e26f46; stroke-linecap:round; stroke-linejoin:round; stroke-width:3; stroke-opacity:1; fill:none" stroke-dasharray="12, 6, 2, 6" points="1471.57,847.789 1496.74,637.274 1521.9,569.435 1547.06,593.938 1572.22,627.323 1597.38,703.024 1622.55,773.196 1647.71,846.147 1672.87,861.122 1698.03,900.495 1723.2,900.989 1748.36,881.989 1773.52,886.953 1798.68,868.052 1823.85,859.871 1849.01,864.218 1874.17,844.183 1899.33,855.194 1924.49,840.534 1949.66,842.211 1974.82,846.717 1999.98,847.976 2025.14,843.913 2050.31,841.303 2075.47,846.517 2100.63,860.802 2125.79,850.409 2150.95,847.768 2176.12,842.263 2201.28,852.231 2226.44,843.026 2251.6,843.33 2276.77,847.412 2301.93,845.395 2327.09,857.704 "/>
<path clip-path="url(#clip940)" d="M2203.01 726.723 L2322.53 726.723 L2322.53 571.203 L2203.01 571.203  Z" fill="#ffffff" fill-rule="evenodd" fill-opacity="1"/>
<polyline clip-path="url(#clip940)" style="stroke:#000000; stroke-linecap:round; stroke-linejoin:round; stroke-width:4; stroke-opacity:1; fill:none" points="2203.01,726.723 2322.53,726.723 2322.53,571.203 2203.01,571.203 2203.01,726.723 "/>
<polyline clip-path="url(#clip940)" style="stroke:#009af9; stroke-linecap:round; stroke-linejoin:round; stroke-width:4; stroke-opacity:1; fill:none" points="2213.09,623.043 2273.55,623.043 "/>
<path clip-path="url(#clip940)" d="M2310.63 633.582 L2305.36 633.442 L2299.6 633.582 L2299.6 631.334 L2301.47 631.334 L2296.2 625.103 L2291.54 630.326 L2291.21 630.795 Q2291.21 631.006 2291.75 631.17 Q2292.31 631.334 2292.97 631.334 L2292.97 633.582 L2288.03 633.442 L2283.62 633.582 L2283.62 631.334 Q2285.1 631.334 2285.78 631.31 Q2286.48 631.263 2287.28 631.052 Q2288.07 630.842 2288.47 630.42 L2294.75 623.37 L2287.28 614.54 L2283.86 614.54 L2283.86 612.291 L2289.15 612.432 L2294.94 612.291 L2294.94 614.54 L2293.01 614.54 L2297.72 620.044 L2301.75 615.547 Q2301.77 615.523 2302.15 614.961 Q2301.4 614.54 2300.32 614.54 L2300.32 612.291 L2305.26 612.432 L2309.67 612.291 L2309.67 614.54 Q2307.75 614.54 2306.74 614.68 Q2305.76 614.797 2305.45 614.961 Q2305.17 615.125 2304.77 615.547 L2299.17 621.777 L2307.23 631.334 L2310.63 631.334 L2310.63 633.582 Z" fill="#000000" fill-rule="nonzero" fill-opacity="1" /><polyline clip-path="url(#clip940)" style="stroke:#e26f46; stroke-linecap:round; stroke-linejoin:round; stroke-width:3; stroke-opacity:1; fill:none" stroke-dasharray="12, 6, 2, 6" points="2213.09,674.883 2273.55,674.883 "/>
<path clip-path="url(#clip940)" d="M2306.21 663.361 L2305.8 664.033 Q2303.26 662.935 2300.09 661.18 Q2296.93 662.935 2294.39 664.033 L2293.99 663.361 Q2296.76 660.951 2300.09 659.098 Q2303.45 660.967 2306.21 663.361 Z" fill="#000000" fill-rule="nonzero" fill-opacity="1" /><path clip-path="url(#clip940)" d="M2310.63 690.427 L2305.36 690.286 L2299.6 690.427 L2299.6 688.178 L2301.47 688.178 L2296.2 681.948 L2291.54 687.171 L2291.21 687.639 Q2291.21 687.85 2291.75 688.014 Q2292.31 688.178 2292.97 688.178 L2292.97 690.427 L2288.03 690.286 L2283.62 690.427 L2283.62 688.178 Q2285.1 688.178 2285.78 688.155 Q2286.48 688.108 2287.28 687.897 Q2288.07 687.686 2288.47 687.265 L2294.75 680.214 L2287.28 671.384 L2283.86 671.384 L2283.86 669.136 L2289.15 669.276 L2294.94 669.136 L2294.94 671.384 L2293.01 671.384 L2297.72 676.888 L2301.75 672.391 Q2301.77 672.368 2302.15 671.806 Q2301.4 671.384 2300.32 671.384 L2300.32 669.136 L2305.26 669.276 L2309.67 669.136 L2309.67 671.384 Q2307.75 671.384 2306.74 671.525 Q2305.76 671.642 2305.45 671.806 Q2305.17 671.97 2304.77 672.391 L2299.17 678.622 L2307.23 688.178 L2310.63 688.178 L2310.63 690.427 Z" fill="#000000" fill-rule="nonzero" fill-opacity="1" /><path clip-path="url(#clip940)" d="M1445.91 1423.18 L2352.76 1423.18 L2352.76 1071.73 L1445.91 1071.73  Z" fill="#ffffff" fill-rule="evenodd" fill-opacity="1"/>
<defs>
  <clipPath id="clip945">
    <rect x="1445" y="1071" width="908" height="352"/>
  </clipPath>
</defs>
<polyline clip-path="url(#clip945)" style="stroke:#000000; stroke-linecap:round; stroke-linejoin:round; stroke-width:2; stroke-opacity:0.1; fill:none" points="1471.57,1423.18 1471.57,1071.73 "/>
<polyline clip-path="url(#clip945)" style="stroke:#000000; stroke-linecap:round; stroke-linejoin:round; stroke-width:2; stroke-opacity:0.1; fill:none" points="1723.2,1423.18 1723.2,1071.73 "/>
<polyline clip-path="url(#clip945)" style="stroke:#000000; stroke-linecap:round; stroke-linejoin:round; stroke-width:2; stroke-opacity:0.1; fill:none" points="1974.82,1423.18 1974.82,1071.73 "/>
<polyline clip-path="url(#clip945)" style="stroke:#000000; stroke-linecap:round; stroke-linejoin:round; stroke-width:2; stroke-opacity:0.1; fill:none" points="2226.44,1423.18 2226.44,1071.73 "/>
<polyline clip-path="url(#clip945)" style="stroke:#000000; stroke-linecap:round; stroke-linejoin:round; stroke-width:2; stroke-opacity:0.1; fill:none" points="1445.91,1377.86 2352.76,1377.86 "/>
<polyline clip-path="url(#clip945)" style="stroke:#000000; stroke-linecap:round; stroke-linejoin:round; stroke-width:2; stroke-opacity:0.1; fill:none" points="1445.91,1306.07 2352.76,1306.07 "/>
<polyline clip-path="url(#clip945)" style="stroke:#000000; stroke-linecap:round; stroke-linejoin:round; stroke-width:2; stroke-opacity:0.1; fill:none" points="1445.91,1234.28 2352.76,1234.28 "/>
<polyline clip-path="url(#clip945)" style="stroke:#000000; stroke-linecap:round; stroke-linejoin:round; stroke-width:2; stroke-opacity:0.1; fill:none" points="1445.91,1162.49 2352.76,1162.49 "/>
<polyline clip-path="url(#clip945)" style="stroke:#000000; stroke-linecap:round; stroke-linejoin:round; stroke-width:2; stroke-opacity:0.1; fill:none" points="1445.91,1090.7 2352.76,1090.7 "/>
<polyline clip-path="url(#clip940)" style="stroke:#000000; stroke-linecap:round; stroke-linejoin:round; stroke-width:4; stroke-opacity:1; fill:none" points="1445.91,1423.18 2352.76,1423.18 "/>
<polyline clip-path="url(#clip940)" style="stroke:#000000; stroke-linecap:round; stroke-linejoin:round; stroke-width:4; stroke-opacity:1; fill:none" points="1471.57,1423.18 1471.57,1404.28 "/>
<polyline clip-path="url(#clip940)" style="stroke:#000000; stroke-linecap:round; stroke-linejoin:round; stroke-width:4; stroke-opacity:1; fill:none" points="1723.2,1423.18 1723.2,1404.28 "/>
<polyline clip-path="url(#clip940)" style="stroke:#000000; stroke-linecap:round; stroke-linejoin:round; stroke-width:4; stroke-opacity:1; fill:none" points="1974.82,1423.18 1974.82,1404.28 "/>
<polyline clip-path="url(#clip940)" style="stroke:#000000; stroke-linecap:round; stroke-linejoin:round; stroke-width:4; stroke-opacity:1; fill:none" points="2226.44,1423.18 2226.44,1404.28 "/>
<path clip-path="url(#clip940)" d="M1471.57 1454.1 Q1467.96 1454.1 1466.13 1457.66 Q1464.33 1461.2 1464.33 1468.33 Q1464.33 1475.44 1466.13 1479.01 Q1467.96 1482.55 1471.57 1482.55 Q1475.21 1482.55 1477.01 1479.01 Q1478.84 1475.44 1478.84 1468.33 Q1478.84 1461.2 1477.01 1457.66 Q1475.21 1454.1 1471.57 1454.1 M1471.57 1450.39 Q1477.38 1450.39 1480.44 1455 Q1483.52 1459.58 1483.52 1468.33 Q1483.52 1477.06 1480.44 1481.67 Q1477.38 1486.25 1471.57 1486.25 Q1465.76 1486.25 1462.68 1481.67 Q1459.63 1477.06 1459.63 1468.33 Q1459.63 1459.58 1462.68 1455 Q1465.76 1450.39 1471.57 1450.39 Z" fill="#000000" fill-rule="nonzero" fill-opacity="1" /><path clip-path="url(#clip940)" d="M1713.58 1481.64 L1721.22 1481.64 L1721.22 1455.28 L1712.91 1456.95 L1712.91 1452.69 L1721.17 1451.02 L1725.85 1451.02 L1725.85 1481.64 L1733.49 1481.64 L1733.49 1485.58 L1713.58 1485.58 L1713.58 1481.64 Z" fill="#000000" fill-rule="nonzero" fill-opacity="1" /><path clip-path="url(#clip940)" d="M1969.47 1481.64 L1985.79 1481.64 L1985.79 1485.58 L1963.85 1485.58 L1963.85 1481.64 Q1966.51 1478.89 1971.09 1474.26 Q1975.7 1469.61 1976.88 1468.27 Q1979.12 1465.74 1980 1464.01 Q1980.91 1462.25 1980.91 1460.56 Q1980.91 1457.8 1978.96 1456.07 Q1977.04 1454.33 1973.94 1454.33 Q1971.74 1454.33 1969.29 1455.09 Q1966.86 1455.86 1964.08 1457.41 L1964.08 1452.69 Q1966.9 1451.55 1969.36 1450.97 Q1971.81 1450.39 1973.85 1450.39 Q1979.22 1450.39 1982.41 1453.08 Q1985.61 1455.77 1985.61 1460.26 Q1985.61 1462.39 1984.8 1464.31 Q1984.01 1466.2 1981.9 1468.8 Q1981.32 1469.47 1978.22 1472.69 Q1975.12 1475.88 1969.47 1481.64 Z" fill="#000000" fill-rule="nonzero" fill-opacity="1" /><path clip-path="url(#clip940)" d="M2230.69 1466.95 Q2234.05 1467.66 2235.92 1469.93 Q2237.82 1472.2 2237.82 1475.53 Q2237.82 1480.65 2234.3 1483.45 Q2230.78 1486.25 2224.3 1486.25 Q2222.12 1486.25 2219.81 1485.81 Q2217.52 1485.39 2215.06 1484.54 L2215.06 1480.02 Q2217.01 1481.16 2219.32 1481.74 Q2221.64 1482.32 2224.16 1482.32 Q2228.56 1482.32 2230.85 1480.58 Q2233.17 1478.84 2233.17 1475.53 Q2233.17 1472.48 2231.01 1470.77 Q2228.88 1469.03 2225.06 1469.03 L2221.04 1469.03 L2221.04 1465.19 L2225.25 1465.19 Q2228.7 1465.19 2230.53 1463.82 Q2232.36 1462.43 2232.36 1459.84 Q2232.36 1457.18 2230.46 1455.77 Q2228.58 1454.33 2225.06 1454.33 Q2223.14 1454.33 2220.94 1454.75 Q2218.74 1455.16 2216.11 1456.04 L2216.11 1451.88 Q2218.77 1451.14 2221.08 1450.77 Q2223.42 1450.39 2225.48 1450.39 Q2230.8 1450.39 2233.91 1452.83 Q2237.01 1455.23 2237.01 1459.35 Q2237.01 1462.22 2235.36 1464.21 Q2233.72 1466.18 2230.69 1466.95 Z" fill="#000000" fill-rule="nonzero" fill-opacity="1" /><path clip-path="url(#clip940)" d="M1769.5 1520.52 L1809.7 1520.52 L1809.7 1525.93 L1792.83 1525.93 L1792.83 1568.04 L1786.37 1568.04 L1786.37 1525.93 L1769.5 1525.93 L1769.5 1520.52 Z" fill="#000000" fill-rule="nonzero" fill-opacity="1" /><path clip-path="url(#clip940)" d="M1813.65 1532.4 L1819.51 1532.4 L1819.51 1568.04 L1813.65 1568.04 L1813.65 1532.4 M1813.65 1518.52 L1819.51 1518.52 L1819.51 1525.93 L1813.65 1525.93 L1813.65 1518.52 Z" fill="#000000" fill-rule="nonzero" fill-opacity="1" /><path clip-path="url(#clip940)" d="M1859.51 1539.24 Q1861.71 1535.29 1864.77 1533.41 Q1867.82 1531.54 1871.96 1531.54 Q1877.53 1531.54 1880.55 1535.45 Q1883.58 1539.33 1883.58 1546.53 L1883.58 1568.04 L1877.69 1568.04 L1877.69 1546.72 Q1877.69 1541.59 1875.87 1539.11 Q1874.06 1536.63 1870.34 1536.63 Q1865.78 1536.63 1863.14 1539.65 Q1860.5 1542.68 1860.5 1547.9 L1860.5 1568.04 L1854.61 1568.04 L1854.61 1546.72 Q1854.61 1541.56 1852.8 1539.11 Q1850.98 1536.63 1847.2 1536.63 Q1842.71 1536.63 1840.07 1539.68 Q1837.43 1542.71 1837.43 1547.9 L1837.43 1568.04 L1831.54 1568.04 L1831.54 1532.4 L1837.43 1532.4 L1837.43 1537.93 Q1839.43 1534.66 1842.23 1533.1 Q1845.03 1531.54 1848.88 1531.54 Q1852.77 1531.54 1855.47 1533.51 Q1858.21 1535.48 1859.51 1539.24 Z" fill="#000000" fill-rule="nonzero" fill-opacity="1" /><path clip-path="url(#clip940)" d="M1925.75 1548.76 L1925.75 1551.62 L1898.82 1551.62 Q1899.2 1557.67 1902.45 1560.85 Q1905.73 1564 1911.55 1564 Q1914.93 1564 1918.08 1563.17 Q1921.26 1562.35 1924.38 1560.69 L1924.38 1566.23 Q1921.23 1567.57 1917.92 1568.27 Q1914.61 1568.97 1911.2 1568.97 Q1902.67 1568.97 1897.68 1564 Q1892.71 1559.04 1892.71 1550.57 Q1892.71 1541.82 1897.42 1536.69 Q1902.16 1531.54 1910.19 1531.54 Q1917.38 1531.54 1921.55 1536.18 Q1925.75 1540.8 1925.75 1548.76 M1919.89 1547.04 Q1919.83 1542.23 1917.19 1539.37 Q1914.58 1536.5 1910.25 1536.5 Q1905.35 1536.5 1902.39 1539.27 Q1899.46 1542.04 1899.01 1547.07 L1919.89 1547.04 Z" fill="#000000" fill-rule="nonzero" fill-opacity="1" /><path clip-path="url(#clip940)" d="M1970.15 1518.58 Q1965.89 1525.9 1963.82 1533.06 Q1961.75 1540.23 1961.75 1547.58 Q1961.75 1554.93 1963.82 1562.16 Q1965.92 1569.35 1970.15 1576.64 L1965.06 1576.64 Q1960.28 1569.16 1957.9 1561.93 Q1955.54 1554.71 1955.54 1547.58 Q1955.54 1540.48 1957.9 1533.29 Q1960.25 1526.09 1965.06 1518.58 L1970.15 1518.58 Z" fill="#000000" fill-rule="nonzero" fill-opacity="1" /><path clip-path="url(#clip940)" d="M2004.24 1533.45 L2004.24 1538.98 Q2001.76 1537.71 1999.08 1537.07 Q1996.41 1536.44 1993.54 1536.44 Q1989.18 1536.44 1986.99 1537.77 Q1984.82 1539.11 1984.82 1541.79 Q1984.82 1543.82 1986.38 1545 Q1987.94 1546.15 1992.65 1547.2 L1994.66 1547.64 Q2000.9 1548.98 2003.51 1551.43 Q2006.15 1553.85 2006.15 1558.21 Q2006.15 1563.17 2002.2 1566.07 Q1998.29 1568.97 1991.41 1568.97 Q1988.55 1568.97 1985.43 1568.39 Q1982.34 1567.85 1978.9 1566.74 L1978.9 1560.69 Q1982.15 1562.38 1985.3 1563.24 Q1988.45 1564.07 1991.54 1564.07 Q1995.68 1564.07 1997.9 1562.66 Q2000.13 1561.23 2000.13 1558.65 Q2000.13 1556.27 1998.51 1554.99 Q1996.92 1553.72 1991.48 1552.54 L1989.44 1552.07 Q1984 1550.92 1981.58 1548.56 Q1979.16 1546.18 1979.16 1542.04 Q1979.16 1537.01 1982.72 1534.27 Q1986.29 1531.54 1992.84 1531.54 Q1996.09 1531.54 1998.96 1532.01 Q2001.82 1532.49 2004.24 1533.45 Z" fill="#000000" fill-rule="nonzero" fill-opacity="1" /><path clip-path="url(#clip940)" d="M2014.55 1518.58 L2019.64 1518.58 Q2024.42 1526.09 2026.77 1533.29 Q2029.16 1540.48 2029.16 1547.58 Q2029.16 1554.71 2026.77 1561.93 Q2024.42 1569.16 2019.64 1576.64 L2014.55 1576.64 Q2018.78 1569.35 2020.85 1562.16 Q2022.95 1554.93 2022.95 1547.58 Q2022.95 1540.23 2020.85 1533.06 Q2018.78 1525.9 2014.55 1518.58 Z" fill="#000000" fill-rule="nonzero" fill-opacity="1" /><polyline clip-path="url(#clip940)" style="stroke:#000000; stroke-linecap:round; stroke-linejoin:round; stroke-width:4; stroke-opacity:1; fill:none" points="1445.91,1423.18 1445.91,1071.73 "/>
<polyline clip-path="url(#clip940)" style="stroke:#000000; stroke-linecap:round; stroke-linejoin:round; stroke-width:4; stroke-opacity:1; fill:none" points="1445.91,1377.86 1464.81,1377.86 "/>
<polyline clip-path="url(#clip940)" style="stroke:#000000; stroke-linecap:round; stroke-linejoin:round; stroke-width:4; stroke-opacity:1; fill:none" points="1445.91,1306.07 1464.81,1306.07 "/>
<polyline clip-path="url(#clip940)" style="stroke:#000000; stroke-linecap:round; stroke-linejoin:round; stroke-width:4; stroke-opacity:1; fill:none" points="1445.91,1234.28 1464.81,1234.28 "/>
<polyline clip-path="url(#clip940)" style="stroke:#000000; stroke-linecap:round; stroke-linejoin:round; stroke-width:4; stroke-opacity:1; fill:none" points="1445.91,1162.49 1464.81,1162.49 "/>
<polyline clip-path="url(#clip940)" style="stroke:#000000; stroke-linecap:round; stroke-linejoin:round; stroke-width:4; stroke-opacity:1; fill:none" points="1445.91,1090.7 1464.81,1090.7 "/>
<path clip-path="url(#clip940)" d="M1272.32 1378.31 L1301.99 1378.31 L1301.99 1382.25 L1272.32 1382.25 L1272.32 1378.31 Z" fill="#000000" fill-rule="nonzero" fill-opacity="1" /><path clip-path="url(#clip940)" d="M1322.08 1363.66 Q1318.47 1363.66 1316.64 1367.22 Q1314.84 1370.76 1314.84 1377.89 Q1314.84 1385 1316.64 1388.57 Q1318.47 1392.11 1322.08 1392.11 Q1325.72 1392.11 1327.52 1388.57 Q1329.35 1385 1329.35 1377.89 Q1329.35 1370.76 1327.52 1367.22 Q1325.72 1363.66 1322.08 1363.66 M1322.08 1359.95 Q1327.89 1359.95 1330.95 1364.56 Q1334.03 1369.14 1334.03 1377.89 Q1334.03 1386.62 1330.95 1391.23 Q1327.89 1395.81 1322.08 1395.81 Q1316.27 1395.81 1313.2 1391.23 Q1310.14 1386.62 1310.14 1377.89 Q1310.14 1369.14 1313.2 1364.56 Q1316.27 1359.95 1322.08 1359.95 Z" fill="#000000" fill-rule="nonzero" fill-opacity="1" /><path clip-path="url(#clip940)" d="M1342.25 1389.26 L1347.13 1389.26 L1347.13 1395.14 L1342.25 1395.14 L1342.25 1389.26 Z" fill="#000000" fill-rule="nonzero" fill-opacity="1" /><path clip-path="url(#clip940)" d="M1367.32 1363.66 Q1363.7 1363.66 1361.88 1367.22 Q1360.07 1370.76 1360.07 1377.89 Q1360.07 1385 1361.88 1388.57 Q1363.7 1392.11 1367.32 1392.11 Q1370.95 1392.11 1372.76 1388.57 Q1374.58 1385 1374.58 1377.89 Q1374.58 1370.76 1372.76 1367.22 Q1370.95 1363.66 1367.32 1363.66 M1367.32 1359.95 Q1373.13 1359.95 1376.18 1364.56 Q1379.26 1369.14 1379.26 1377.89 Q1379.26 1386.62 1376.18 1391.23 Q1373.13 1395.81 1367.32 1395.81 Q1361.51 1395.81 1358.43 1391.23 Q1355.37 1386.62 1355.37 1377.89 Q1355.37 1369.14 1358.43 1364.56 Q1361.51 1359.95 1367.32 1359.95 Z" fill="#000000" fill-rule="nonzero" fill-opacity="1" /><path clip-path="url(#clip940)" d="M1400.32 1364.65 L1388.52 1383.1 L1400.32 1383.1 L1400.32 1364.65 M1399.1 1360.58 L1404.98 1360.58 L1404.98 1383.1 L1409.91 1383.1 L1409.91 1386.99 L1404.98 1386.99 L1404.98 1395.14 L1400.32 1395.14 L1400.32 1386.99 L1384.72 1386.99 L1384.72 1382.48 L1399.1 1360.58 Z" fill="#000000" fill-rule="nonzero" fill-opacity="1" /><path clip-path="url(#clip940)" d="M1274.4 1306.52 L1304.08 1306.52 L1304.08 1310.45 L1274.4 1310.45 L1274.4 1306.52 Z" fill="#000000" fill-rule="nonzero" fill-opacity="1" /><path clip-path="url(#clip940)" d="M1324.17 1291.87 Q1320.56 1291.87 1318.73 1295.43 Q1316.92 1298.97 1316.92 1306.1 Q1316.92 1313.21 1318.73 1316.77 Q1320.56 1320.32 1324.17 1320.32 Q1327.8 1320.32 1329.61 1316.77 Q1331.44 1313.21 1331.44 1306.1 Q1331.44 1298.97 1329.61 1295.43 Q1327.8 1291.87 1324.17 1291.87 M1324.17 1288.16 Q1329.98 1288.16 1333.03 1292.77 Q1336.11 1297.35 1336.11 1306.1 Q1336.11 1314.83 1333.03 1319.44 Q1329.98 1324.02 1324.17 1324.02 Q1318.36 1324.02 1315.28 1319.44 Q1312.22 1314.83 1312.22 1306.1 Q1312.22 1297.35 1315.28 1292.77 Q1318.36 1288.16 1324.17 1288.16 Z" fill="#000000" fill-rule="nonzero" fill-opacity="1" /><path clip-path="url(#clip940)" d="M1344.33 1317.47 L1349.21 1317.47 L1349.21 1323.35 L1344.33 1323.35 L1344.33 1317.47 Z" fill="#000000" fill-rule="nonzero" fill-opacity="1" /><path clip-path="url(#clip940)" d="M1369.4 1291.87 Q1365.79 1291.87 1363.96 1295.43 Q1362.15 1298.97 1362.15 1306.1 Q1362.15 1313.21 1363.96 1316.77 Q1365.79 1320.32 1369.4 1320.32 Q1373.03 1320.32 1374.84 1316.77 Q1376.67 1313.21 1376.67 1306.1 Q1376.67 1298.97 1374.84 1295.43 Q1373.03 1291.87 1369.4 1291.87 M1369.4 1288.16 Q1375.21 1288.16 1378.26 1292.77 Q1381.34 1297.35 1381.34 1306.1 Q1381.34 1314.83 1378.26 1319.44 Q1375.21 1324.02 1369.4 1324.02 Q1363.59 1324.02 1360.51 1319.44 Q1357.45 1314.83 1357.45 1306.1 Q1357.45 1297.35 1360.51 1292.77 Q1363.59 1288.16 1369.4 1288.16 Z" fill="#000000" fill-rule="nonzero" fill-opacity="1" /><path clip-path="url(#clip940)" d="M1393.59 1319.41 L1409.91 1319.41 L1409.91 1323.35 L1387.96 1323.35 L1387.96 1319.41 Q1390.63 1316.66 1395.21 1312.03 Q1399.82 1307.38 1401 1306.03 Q1403.24 1303.51 1404.12 1301.77 Q1405.02 1300.02 1405.02 1298.33 Q1405.02 1295.57 1403.08 1293.83 Q1401.16 1292.1 1398.06 1292.1 Q1395.86 1292.1 1393.4 1292.86 Q1390.97 1293.63 1388.19 1295.18 L1388.19 1290.45 Q1391.02 1289.32 1393.47 1288.74 Q1395.93 1288.16 1397.96 1288.16 Q1403.33 1288.16 1406.53 1290.85 Q1409.72 1293.53 1409.72 1298.02 Q1409.72 1300.15 1408.91 1302.08 Q1408.13 1303.97 1406.02 1306.57 Q1405.44 1307.24 1402.34 1310.45 Q1399.24 1313.65 1393.59 1319.41 Z" fill="#000000" fill-rule="nonzero" fill-opacity="1" /><path clip-path="url(#clip940)" d="M1322.57 1220.08 Q1318.96 1220.08 1317.13 1223.64 Q1315.32 1227.18 1315.32 1234.31 Q1315.32 1241.42 1317.13 1244.98 Q1318.96 1248.53 1322.57 1248.53 Q1326.2 1248.53 1328.01 1244.98 Q1329.84 1241.42 1329.84 1234.31 Q1329.84 1227.18 1328.01 1223.64 Q1326.2 1220.08 1322.57 1220.08 M1322.57 1216.37 Q1328.38 1216.37 1331.44 1220.98 Q1334.51 1225.56 1334.51 1234.31 Q1334.51 1243.04 1331.44 1247.65 Q1328.38 1252.23 1322.57 1252.23 Q1316.76 1252.23 1313.68 1247.65 Q1310.63 1243.04 1310.63 1234.31 Q1310.63 1225.56 1313.68 1220.98 Q1316.76 1216.37 1322.57 1216.37 Z" fill="#000000" fill-rule="nonzero" fill-opacity="1" /><path clip-path="url(#clip940)" d="M1342.73 1245.68 L1347.62 1245.68 L1347.62 1251.56 L1342.73 1251.56 L1342.73 1245.68 Z" fill="#000000" fill-rule="nonzero" fill-opacity="1" /><path clip-path="url(#clip940)" d="M1367.8 1220.08 Q1364.19 1220.08 1362.36 1223.64 Q1360.56 1227.18 1360.56 1234.31 Q1360.56 1241.42 1362.36 1244.98 Q1364.19 1248.53 1367.8 1248.53 Q1371.44 1248.53 1373.24 1244.98 Q1375.07 1241.42 1375.07 1234.31 Q1375.07 1227.18 1373.24 1223.64 Q1371.44 1220.08 1367.8 1220.08 M1367.8 1216.37 Q1373.61 1216.37 1376.67 1220.98 Q1379.75 1225.56 1379.75 1234.31 Q1379.75 1243.04 1376.67 1247.65 Q1373.61 1252.23 1367.8 1252.23 Q1361.99 1252.23 1358.91 1247.65 Q1355.86 1243.04 1355.86 1234.31 Q1355.86 1225.56 1358.91 1220.98 Q1361.99 1216.37 1367.8 1216.37 Z" fill="#000000" fill-rule="nonzero" fill-opacity="1" /><path clip-path="url(#clip940)" d="M1397.96 1220.08 Q1394.35 1220.08 1392.52 1223.64 Q1390.72 1227.18 1390.72 1234.31 Q1390.72 1241.42 1392.52 1244.98 Q1394.35 1248.53 1397.96 1248.53 Q1401.6 1248.53 1403.4 1244.98 Q1405.23 1241.42 1405.23 1234.31 Q1405.23 1227.18 1403.4 1223.64 Q1401.6 1220.08 1397.96 1220.08 M1397.96 1216.37 Q1403.77 1216.37 1406.83 1220.98 Q1409.91 1225.56 1409.91 1234.31 Q1409.91 1243.04 1406.83 1247.65 Q1403.77 1252.23 1397.96 1252.23 Q1392.15 1252.23 1389.07 1247.65 Q1386.02 1243.04 1386.02 1234.31 Q1386.02 1225.56 1389.07 1220.98 Q1392.15 1216.37 1397.96 1216.37 Z" fill="#000000" fill-rule="nonzero" fill-opacity="1" /><path clip-path="url(#clip940)" d="M1324.17 1148.29 Q1320.56 1148.29 1318.73 1151.85 Q1316.92 1155.39 1316.92 1162.52 Q1316.92 1169.63 1318.73 1173.19 Q1320.56 1176.73 1324.17 1176.73 Q1327.8 1176.73 1329.61 1173.19 Q1331.44 1169.63 1331.44 1162.52 Q1331.44 1155.39 1329.61 1151.85 Q1327.8 1148.29 1324.17 1148.29 M1324.17 1144.58 Q1329.98 1144.58 1333.03 1149.19 Q1336.11 1153.77 1336.11 1162.52 Q1336.11 1171.25 1333.03 1175.85 Q1329.98 1180.44 1324.17 1180.44 Q1318.36 1180.44 1315.28 1175.85 Q1312.22 1171.25 1312.22 1162.52 Q1312.22 1153.77 1315.28 1149.19 Q1318.36 1144.58 1324.17 1144.58 Z" fill="#000000" fill-rule="nonzero" fill-opacity="1" /><path clip-path="url(#clip940)" d="M1344.33 1173.89 L1349.21 1173.89 L1349.21 1179.77 L1344.33 1179.77 L1344.33 1173.89 Z" fill="#000000" fill-rule="nonzero" fill-opacity="1" /><path clip-path="url(#clip940)" d="M1369.4 1148.29 Q1365.79 1148.29 1363.96 1151.85 Q1362.15 1155.39 1362.15 1162.52 Q1362.15 1169.63 1363.96 1173.19 Q1365.79 1176.73 1369.4 1176.73 Q1373.03 1176.73 1374.84 1173.19 Q1376.67 1169.63 1376.67 1162.52 Q1376.67 1155.39 1374.84 1151.85 Q1373.03 1148.29 1369.4 1148.29 M1369.4 1144.58 Q1375.21 1144.58 1378.26 1149.19 Q1381.34 1153.77 1381.34 1162.52 Q1381.34 1171.25 1378.26 1175.85 Q1375.21 1180.44 1369.4 1180.44 Q1363.59 1180.44 1360.51 1175.85 Q1357.45 1171.25 1357.45 1162.52 Q1357.45 1153.77 1360.51 1149.19 Q1363.59 1144.58 1369.4 1144.58 Z" fill="#000000" fill-rule="nonzero" fill-opacity="1" /><path clip-path="url(#clip940)" d="M1393.59 1175.83 L1409.91 1175.83 L1409.91 1179.77 L1387.96 1179.77 L1387.96 1175.83 Q1390.63 1173.08 1395.21 1168.45 Q1399.82 1163.79 1401 1162.45 Q1403.24 1159.93 1404.12 1158.19 Q1405.02 1156.43 1405.02 1154.74 Q1405.02 1151.99 1403.08 1150.25 Q1401.16 1148.52 1398.06 1148.52 Q1395.86 1148.52 1393.4 1149.28 Q1390.97 1150.04 1388.19 1151.6 L1388.19 1146.87 Q1391.02 1145.74 1393.47 1145.16 Q1395.93 1144.58 1397.96 1144.58 Q1403.33 1144.58 1406.53 1147.27 Q1409.72 1149.95 1409.72 1154.44 Q1409.72 1156.57 1408.91 1158.49 Q1408.13 1160.39 1406.02 1162.98 Q1405.44 1163.66 1402.34 1166.87 Q1399.24 1170.07 1393.59 1175.83 Z" fill="#000000" fill-rule="nonzero" fill-opacity="1" /><path clip-path="url(#clip940)" d="M1322.08 1076.49 Q1318.47 1076.49 1316.64 1080.06 Q1314.84 1083.6 1314.84 1090.73 Q1314.84 1097.84 1316.64 1101.4 Q1318.47 1104.94 1322.08 1104.94 Q1325.72 1104.94 1327.52 1101.4 Q1329.35 1097.84 1329.35 1090.73 Q1329.35 1083.6 1327.52 1080.06 Q1325.72 1076.49 1322.08 1076.49 M1322.08 1072.79 Q1327.89 1072.79 1330.95 1077.4 Q1334.03 1081.98 1334.03 1090.73 Q1334.03 1099.46 1330.95 1104.06 Q1327.89 1108.65 1322.08 1108.65 Q1316.27 1108.65 1313.2 1104.06 Q1310.14 1099.46 1310.14 1090.73 Q1310.14 1081.98 1313.2 1077.4 Q1316.27 1072.79 1322.08 1072.79 Z" fill="#000000" fill-rule="nonzero" fill-opacity="1" /><path clip-path="url(#clip940)" d="M1342.25 1102.1 L1347.13 1102.1 L1347.13 1107.98 L1342.25 1107.98 L1342.25 1102.1 Z" fill="#000000" fill-rule="nonzero" fill-opacity="1" /><path clip-path="url(#clip940)" d="M1367.32 1076.49 Q1363.7 1076.49 1361.88 1080.06 Q1360.07 1083.6 1360.07 1090.73 Q1360.07 1097.84 1361.88 1101.4 Q1363.7 1104.94 1367.32 1104.94 Q1370.95 1104.94 1372.76 1101.4 Q1374.58 1097.84 1374.58 1090.73 Q1374.58 1083.6 1372.76 1080.06 Q1370.95 1076.49 1367.32 1076.49 M1367.32 1072.79 Q1373.13 1072.79 1376.18 1077.4 Q1379.26 1081.98 1379.26 1090.73 Q1379.26 1099.46 1376.18 1104.06 Q1373.13 1108.65 1367.32 1108.65 Q1361.51 1108.65 1358.43 1104.06 Q1355.37 1099.46 1355.37 1090.73 Q1355.37 1081.98 1358.43 1077.4 Q1361.51 1072.79 1367.32 1072.79 Z" fill="#000000" fill-rule="nonzero" fill-opacity="1" /><path clip-path="url(#clip940)" d="M1400.32 1077.49 L1388.52 1095.94 L1400.32 1095.94 L1400.32 1077.49 M1399.1 1073.42 L1404.98 1073.42 L1404.98 1095.94 L1409.91 1095.94 L1409.91 1099.83 L1404.98 1099.83 L1404.98 1107.98 L1400.32 1107.98 L1400.32 1099.83 L1384.72 1099.83 L1384.72 1095.31 L1399.1 1073.42 Z" fill="#000000" fill-rule="nonzero" fill-opacity="1" /><path clip-path="url(#clip940)" d="M1182.01 1252.88 L1182.94 1253.44 Q1181.43 1256.93 1179.02 1261.28 Q1181.43 1265.63 1182.94 1269.13 L1182.01 1269.67 Q1178.7 1265.86 1176.15 1261.28 Q1178.72 1256.66 1182.01 1252.88 Z" fill="#000000" fill-rule="nonzero" fill-opacity="1" /><path clip-path="url(#clip940)" d="M1194.31 1249.71 Q1196.12 1249.71 1197.15 1250.84 Q1198.14 1251.97 1198.14 1253.26 Q1198.14 1254.48 1197.44 1255.12 Q1196.73 1255.77 1195.83 1255.77 Q1194.6 1255.77 1193.54 1254.87 Q1192.48 1253.96 1192.25 1252.61 Q1191.41 1253.93 1191.41 1255.9 Q1191.41 1257.18 1192.09 1258.31 Q1192.77 1259.41 1193.64 1260.08 Q1194.51 1260.73 1195.76 1261.31 Q1196.99 1261.85 1197.73 1262.08 Q1198.43 1262.27 1199.21 1262.43 L1208.23 1264.69 Q1212.51 1265.78 1214.02 1265.78 Q1215.89 1265.78 1217.15 1264.88 Q1218.37 1263.98 1218.37 1262.18 Q1218.37 1261.47 1218.18 1260.66 Q1217.95 1259.86 1217.37 1258.83 Q1216.76 1257.76 1215.86 1256.83 Q1214.92 1255.86 1213.35 1254.93 Q1211.77 1254 1209.74 1253.38 Q1209.03 1253.19 1209.03 1252.55 Q1209.03 1251.74 1209.67 1251.74 Q1210.22 1251.74 1211.38 1252.19 Q1212.51 1252.61 1213.99 1253.55 Q1215.44 1254.45 1216.76 1255.64 Q1218.05 1256.83 1218.95 1258.6 Q1219.85 1260.37 1219.85 1262.31 Q1219.85 1265.08 1218.37 1266.91 Q1216.89 1268.75 1214.83 1269.42 Q1215.12 1269.58 1215.5 1269.81 Q1215.89 1270.03 1216.76 1270.71 Q1217.6 1271.36 1218.24 1272.1 Q1218.85 1272.84 1219.34 1274 Q1219.85 1275.12 1219.85 1276.35 Q1219.85 1277.89 1219.4 1279.28 Q1218.95 1280.63 1217.92 1281.6 Q1216.89 1282.56 1215.47 1282.56 Q1213.89 1282.56 1212.8 1281.5 Q1211.67 1280.41 1211.67 1278.92 Q1211.67 1277.99 1212.22 1277.25 Q1212.77 1276.48 1213.96 1276.48 Q1215.28 1276.48 1216.28 1277.38 Q1217.27 1278.28 1217.53 1279.57 Q1218.37 1278.25 1218.37 1276.28 Q1218.37 1274.16 1216.5 1272.48 Q1214.63 1270.81 1211.51 1270 Q1204.01 1268.01 1200.66 1267.23 Q1197.28 1266.46 1195.83 1266.46 Q1194.47 1266.46 1193.54 1266.81 Q1192.61 1267.17 1192.19 1267.78 Q1191.74 1268.36 1191.57 1268.91 Q1191.41 1269.42 1191.41 1270 Q1191.41 1270.97 1191.8 1272.06 Q1192.19 1273.13 1193.09 1274.41 Q1193.96 1275.67 1195.76 1276.86 Q1197.56 1278.05 1200.04 1278.86 Q1200.79 1279.02 1200.79 1279.73 Q1200.75 1280.5 1200.11 1280.5 Q1199.56 1280.5 1198.43 1280.08 Q1197.28 1279.63 1195.83 1278.73 Q1194.38 1277.8 1193.09 1276.6 Q1191.77 1275.38 1190.87 1273.61 Q1189.96 1271.81 1189.96 1269.87 Q1189.96 1269 1190.16 1268.17 Q1190.32 1267.3 1190.8 1266.27 Q1191.28 1265.2 1192.35 1264.27 Q1193.41 1263.34 1194.96 1262.76 Q1194.22 1262.37 1193.51 1261.85 Q1192.8 1261.31 1191.93 1260.47 Q1191.03 1259.6 1190.51 1258.41 Q1189.96 1257.18 1189.96 1255.83 Q1189.96 1254.51 1190.32 1253.22 Q1190.64 1251.94 1191.7 1250.84 Q1192.73 1249.71 1194.31 1249.71 Z" fill="#000000" fill-rule="nonzero" fill-opacity="1" /><path clip-path="url(#clip940)" d="M1231.9 1242.25 Q1230.52 1242.25 1229.87 1241.46 Q1229.22 1240.68 1229.22 1239.66 Q1229.22 1238.6 1229.92 1237.86 Q1230.59 1237.09 1231.79 1237.09 Q1233.07 1237.09 1233.79 1237.99 Q1234.51 1238.87 1234.33 1240.13 Q1236.18 1239.03 1237.02 1237 Q1237.85 1234.95 1237.85 1233.06 Q1237.85 1231.07 1236.14 1229.47 Q1234.42 1227.85 1230.23 1227.85 Q1226.67 1227.85 1224.62 1229.25 Q1222.57 1230.62 1222.57 1233.35 L1222.57 1235.38 Q1222.57 1236.08 1222.5 1236.28 Q1222.43 1236.48 1222.05 1236.48 Q1221.6 1236.48 1221.51 1235.78 Q1221.51 1235.08 1221.37 1233.98 Q1221.28 1231.3 1218.96 1229.88 Q1216.79 1228.59 1213.71 1228.59 Q1210.89 1228.59 1209.72 1229.94 Q1208.52 1231.27 1208.52 1233.01 Q1208.52 1234.63 1209.2 1236.41 Q1209.87 1238.2 1211.38 1239.17 Q1211.38 1236.3 1213.71 1236.3 Q1214.72 1236.3 1215.4 1236.96 Q1216.05 1237.59 1216.05 1238.65 Q1216.05 1239.66 1215.42 1240.34 Q1214.77 1241.01 1213.66 1241.01 Q1211.02 1241.01 1209.2 1238.67 Q1207.37 1236.3 1207.37 1232.83 Q1207.37 1229.4 1209.17 1226.88 Q1210.98 1224.33 1213.75 1224.33 Q1216.48 1224.33 1218.71 1226.13 Q1220.94 1227.94 1221.87 1230.8 Q1222.57 1227.28 1224.96 1225.19 Q1227.32 1223.09 1230.23 1223.09 Q1233.84 1223.09 1236.5 1225.93 Q1239.14 1228.77 1239.14 1232.92 Q1239.14 1236.75 1237.06 1239.5 Q1234.99 1242.25 1231.9 1242.25 Z" fill="#000000" fill-rule="nonzero" fill-opacity="1" /><polyline clip-path="url(#clip945)" style="stroke:#e26f46; stroke-linecap:round; stroke-linejoin:round; stroke-width:3; stroke-opacity:1; fill:none" stroke-dasharray="12, 6, 2, 6" points="1471.57,1234.28 1496.74,1081.68 1521.9,1246.17 1547.06,1396.06 1572.22,1362.24 1597.38,1382.4 1622.55,1377.5 1647.71,1413.23 1672.87,1344.65 1698.03,1368.3 1723.2,1344.79 1748.36,1291.71 1773.52,1301.74 1798.68,1269.92 1823.85,1257.94 1849.01,1278.19 1874.17,1244.99 1899.33,1274.48 1924.49,1249.69 1949.66,1250.7 1974.82,1258.46 1999.98,1261.68 2025.14,1251.86 2050.31,1239.53 2075.47,1242.04 2100.63,1273.98 2125.79,1260.6 2150.95,1259.15 2176.12,1247.31 2201.28,1269.28 2226.44,1251.94 2251.6,1248.42 2276.77,1253.11 2301.93,1245.06 2327.09,1272.74 "/>
</svg>
