<?xml version="1.0" encoding="utf-8"?>
<svg xmlns="http://www.w3.org/2000/svg" xmlns:xlink="http://www.w3.org/1999/xlink" width="600" height="400" viewBox="0 0 2400 1600">
<defs>
  <clipPath id="clip810">
    <rect x="0" y="0" width="2400" height="1600"/>
  </clipPath>
</defs>
<path clip-path="url(#clip810)" d="M0 1600 L2400 1600 L2400 0 L0 0  Z" fill="#ffffff" fill-rule="evenodd" fill-opacity="1"/>
<defs>
  <clipPath id="clip811">
    <rect x="480" y="0" width="1681" height="1600"/>
  </clipPath>
</defs>
<path clip-path="url(#clip810)" d="M203.964 1423.18 L1110.81 1423.18 L1110.81 47.2441 L203.964 47.2441  Z" fill="#ffffff" fill-rule="evenodd" fill-opacity="1"/>
<defs>
  <clipPath id="clip812">
    <rect x="203" y="47" width="908" height="1377"/>
  </clipPath>
</defs>
<polyline clip-path="url(#clip812)" style="stroke:#000000; stroke-linecap:round; stroke-linejoin:round; stroke-width:2; stroke-opacity:0.1; fill:none" points="229.629,1423.18 229.629,47.2441 "/>
<polyline clip-path="url(#clip812)" style="stroke:#000000; stroke-linecap:round; stroke-linejoin:round; stroke-width:2; stroke-opacity:0.1; fill:none" points="481.252,1423.18 481.252,47.2441 "/>
<polyline clip-path="url(#clip812)" style="stroke:#000000; stroke-linecap:round; stroke-linejoin:round; stroke-width:2; stroke-opacity:0.1; fill:none" points="732.874,1423.18 732.874,47.2441 "/>
<polyline clip-path="url(#clip812)" style="stroke:#000000; stroke-linecap:round; stroke-linejoin:round; stroke-width:2; stroke-opacity:0.1; fill:none" points="984.497,1423.18 984.497,47.2441 "/>
<polyline clip-path="url(#clip812)" style="stroke:#000000; stroke-linecap:round; stroke-linejoin:round; stroke-width:2; stroke-opacity:0.1; fill:none" points="203.964,1383.51 1110.81,1383.51 "/>
<polyline clip-path="url(#clip812)" style="stroke:#000000; stroke-linecap:round; stroke-linejoin:round; stroke-width:2; stroke-opacity:0.1; fill:none" points="203.964,940.335 1110.81,940.335 "/>
<polyline clip-path="url(#clip812)" style="stroke:#000000; stroke-linecap:round; stroke-linejoin:round; stroke-width:2; stroke-opacity:0.1; fill:none" points="203.964,497.161 1110.81,497.161 "/>
<polyline clip-path="url(#clip812)" style="stroke:#000000; stroke-linecap:round; stroke-linejoin:round; stroke-width:2; stroke-opacity:0.1; fill:none" points="203.964,53.9876 1110.81,53.9876 "/>
<polyline clip-path="url(#clip810)" style="stroke:#000000; stroke-linecap:round; stroke-linejoin:round; stroke-width:4; stroke-opacity:1; fill:none" points="203.964,1423.18 1110.81,1423.18 "/>
<polyline clip-path="url(#clip810)" style="stroke:#000000; stroke-linecap:round; stroke-linejoin:round; stroke-width:4; stroke-opacity:1; fill:none" points="229.629,1423.18 229.629,1404.28 "/>
<polyline clip-path="url(#clip810)" style="stroke:#000000; stroke-linecap:round; stroke-linejoin:round; stroke-width:4; stroke-opacity:1; fill:none" points="481.252,1423.18 481.252,1404.28 "/>
<polyline clip-path="url(#clip810)" style="stroke:#000000; stroke-linecap:round; stroke-linejoin:round; stroke-width:4; stroke-opacity:1; fill:none" points="732.874,1423.18 732.874,1404.28 "/>
<polyline clip-path="url(#clip810)" style="stroke:#000000; stroke-linecap:round; stroke-linejoin:round; stroke-width:4; stroke-opacity:1; fill:none" points="984.497,1423.18 984.497,1404.28 "/>
<path clip-path="url(#clip810)" d="M229.629 1454.1 Q226.018 1454.1 224.189 1457.66 Q222.384 1461.2 222.384 1468.33 Q222.384 1475.44 224.189 1479.01 Q226.018 1482.55 229.629 1482.55 Q233.263 1482.55 235.069 1479.01 Q236.898 1475.44 236.898 1468.33 Q236.898 1461.2 235.069 1457.66 Q233.263 1454.1 229.629 1454.1 M229.629 1450.39 Q235.439 1450.39 238.495 1455 Q241.573 1459.58 241.573 1468.33 Q241.573 1477.06 238.495 1481.67 Q235.439 1486.25 229.629 1486.25 Q223.819 1486.25 220.74 1481.67 Q217.685 1477.06 217.685 1468.33 Q217.685 1459.58 220.74 1455 Q223.819 1450.39 229.629 1450.39 Z" fill="#000000" fill-rule="nonzero" fill-opacity="1" /><path clip-path="url(#clip810)" d="M471.634 1481.64 L479.273 1481.64 L479.273 1455.28 L470.962 1456.95 L470.962 1452.69 L479.226 1451.02 L483.902 1451.02 L483.902 1481.64 L491.541 1481.64 L491.541 1485.58 L471.634 1485.58 L471.634 1481.64 Z" fill="#000000" fill-rule="nonzero" fill-opacity="1" /><path clip-path="url(#clip810)" d="M727.527 1481.64 L743.847 1481.64 L743.847 1485.58 L721.902 1485.58 L721.902 1481.64 Q724.564 1478.89 729.148 1474.26 Q733.754 1469.61 734.935 1468.27 Q737.18 1465.74 738.06 1464.01 Q738.962 1462.25 738.962 1460.56 Q738.962 1457.8 737.018 1456.07 Q735.097 1454.33 731.995 1454.33 Q729.796 1454.33 727.342 1455.09 Q724.912 1455.86 722.134 1457.41 L722.134 1452.69 Q724.958 1451.55 727.411 1450.97 Q729.865 1450.39 731.902 1450.39 Q737.273 1450.39 740.467 1453.08 Q743.661 1455.77 743.661 1460.26 Q743.661 1462.39 742.851 1464.31 Q742.064 1466.2 739.958 1468.8 Q739.379 1469.47 736.277 1472.69 Q733.175 1475.88 727.527 1481.64 Z" fill="#000000" fill-rule="nonzero" fill-opacity="1" /><path clip-path="url(#clip810)" d="M988.745 1466.95 Q992.101 1467.66 993.976 1469.93 Q995.874 1472.2 995.874 1475.53 Q995.874 1480.65 992.356 1483.45 Q988.837 1486.25 982.356 1486.25 Q980.18 1486.25 977.865 1485.81 Q975.574 1485.39 973.12 1484.54 L973.12 1480.02 Q975.064 1481.16 977.379 1481.74 Q979.694 1482.32 982.217 1482.32 Q986.615 1482.32 988.907 1480.58 Q991.222 1478.84 991.222 1475.53 Q991.222 1472.48 989.069 1470.77 Q986.939 1469.03 983.12 1469.03 L979.092 1469.03 L979.092 1465.19 L983.305 1465.19 Q986.754 1465.19 988.583 1463.82 Q990.411 1462.43 990.411 1459.84 Q990.411 1457.18 988.513 1455.77 Q986.638 1454.33 983.12 1454.33 Q981.199 1454.33 978.999 1454.75 Q976.8 1455.16 974.162 1456.04 L974.162 1451.88 Q976.824 1451.14 979.138 1450.77 Q981.476 1450.39 983.536 1450.39 Q988.861 1450.39 991.962 1452.83 Q995.064 1455.23 995.064 1459.35 Q995.064 1462.22 993.421 1464.21 Q991.777 1466.18 988.745 1466.95 Z" fill="#000000" fill-rule="nonzero" fill-opacity="1" /><path clip-path="url(#clip810)" d="M527.559 1520.52 L567.758 1520.52 L567.758 1525.93 L550.889 1525.93 L550.889 1568.04 L544.428 1568.04 L544.428 1525.93 L527.559 1525.93 L527.559 1520.52 Z" fill="#000000" fill-rule="nonzero" fill-opacity="1" /><path clip-path="url(#clip810)" d="M571.705 1532.4 L577.562 1532.4 L577.562 1568.04 L571.705 1568.04 L571.705 1532.4 M571.705 1518.52 L577.562 1518.52 L577.562 1525.93 L571.705 1525.93 L571.705 1518.52 Z" fill="#000000" fill-rule="nonzero" fill-opacity="1" /><path clip-path="url(#clip810)" d="M617.57 1539.24 Q619.766 1535.29 622.822 1533.41 Q625.877 1531.54 630.015 1531.54 Q635.585 1531.54 638.609 1535.45 Q641.633 1539.33 641.633 1546.53 L641.633 1568.04 L635.744 1568.04 L635.744 1546.72 Q635.744 1541.59 633.93 1539.11 Q632.116 1536.63 628.392 1536.63 Q623.84 1536.63 621.199 1539.65 Q618.557 1542.68 618.557 1547.9 L618.557 1568.04 L612.669 1568.04 L612.669 1546.72 Q612.669 1541.56 610.854 1539.11 Q609.04 1536.63 605.252 1536.63 Q600.765 1536.63 598.123 1539.68 Q595.481 1542.71 595.481 1547.9 L595.481 1568.04 L589.593 1568.04 L589.593 1532.4 L595.481 1532.4 L595.481 1537.93 Q597.486 1534.66 600.287 1533.1 Q603.088 1531.54 606.939 1531.54 Q610.822 1531.54 613.528 1533.51 Q616.265 1535.48 617.57 1539.24 Z" fill="#000000" fill-rule="nonzero" fill-opacity="1" /><path clip-path="url(#clip810)" d="M683.805 1548.76 L683.805 1551.62 L656.878 1551.62 Q657.26 1557.67 660.507 1560.85 Q663.785 1564 669.61 1564 Q672.984 1564 676.135 1563.17 Q679.317 1562.35 682.437 1560.69 L682.437 1566.23 Q679.286 1567.57 675.975 1568.27 Q672.665 1568.97 669.26 1568.97 Q660.73 1568.97 655.733 1564 Q650.767 1559.04 650.767 1550.57 Q650.767 1541.82 655.478 1536.69 Q660.22 1531.54 668.241 1531.54 Q675.434 1531.54 679.604 1536.18 Q683.805 1540.8 683.805 1548.76 M677.949 1547.04 Q677.885 1542.23 675.243 1539.37 Q672.633 1536.5 668.305 1536.5 Q663.403 1536.5 660.443 1539.27 Q657.515 1542.04 657.069 1547.07 L677.949 1547.04 Z" fill="#000000" fill-rule="nonzero" fill-opacity="1" /><path clip-path="url(#clip810)" d="M728.206 1518.58 Q723.941 1525.9 721.872 1533.06 Q719.803 1540.23 719.803 1547.58 Q719.803 1554.93 721.872 1562.16 Q723.973 1569.35 728.206 1576.64 L723.114 1576.64 Q718.339 1569.16 715.952 1561.93 Q713.597 1554.71 713.597 1547.58 Q713.597 1540.48 715.952 1533.29 Q718.307 1526.09 723.114 1518.58 L728.206 1518.58 Z" fill="#000000" fill-rule="nonzero" fill-opacity="1" /><path clip-path="url(#clip810)" d="M762.294 1533.45 L762.294 1538.98 Q759.812 1537.71 757.138 1537.07 Q754.465 1536.44 751.6 1536.44 Q747.24 1536.44 745.043 1537.77 Q742.879 1539.11 742.879 1541.79 Q742.879 1543.82 744.439 1545 Q745.998 1546.15 750.709 1547.2 L752.714 1547.64 Q758.952 1548.98 761.562 1551.43 Q764.204 1553.85 764.204 1558.21 Q764.204 1563.17 760.257 1566.07 Q756.343 1568.97 749.468 1568.97 Q746.603 1568.97 743.484 1568.39 Q740.396 1567.85 736.959 1566.74 L736.959 1560.69 Q740.205 1562.38 743.356 1563.24 Q746.508 1564.07 749.595 1564.07 Q753.733 1564.07 755.961 1562.66 Q758.189 1561.23 758.189 1558.65 Q758.189 1556.27 756.565 1554.99 Q754.974 1553.72 749.531 1552.54 L747.494 1552.07 Q742.052 1550.92 739.633 1548.56 Q737.214 1546.18 737.214 1542.04 Q737.214 1537.01 740.778 1534.27 Q744.343 1531.54 750.9 1531.54 Q754.146 1531.54 757.011 1532.01 Q759.876 1532.49 762.294 1533.45 Z" fill="#000000" fill-rule="nonzero" fill-opacity="1" /><path clip-path="url(#clip810)" d="M772.607 1518.58 L777.699 1518.58 Q782.474 1526.09 784.829 1533.29 Q787.216 1540.48 787.216 1547.58 Q787.216 1554.71 784.829 1561.93 Q782.474 1569.16 777.699 1576.64 L772.607 1576.64 Q776.84 1569.35 778.909 1562.16 Q781.01 1554.93 781.01 1547.58 Q781.01 1540.23 778.909 1533.06 Q776.84 1525.9 772.607 1518.58 Z" fill="#000000" fill-rule="nonzero" fill-opacity="1" /><polyline clip-path="url(#clip810)" style="stroke:#000000; stroke-linecap:round; stroke-linejoin:round; stroke-width:4; stroke-opacity:1; fill:none" points="203.964,1423.18 203.964,47.2441 "/>
<polyline clip-path="url(#clip810)" style="stroke:#000000; stroke-linecap:round; stroke-linejoin:round; stroke-width:4; stroke-opacity:1; fill:none" points="203.964,1383.51 222.861,1383.51 "/>
<polyline clip-path="url(#clip810)" style="stroke:#000000; stroke-linecap:round; stroke-linejoin:round; stroke-width:4; stroke-opacity:1; fill:none" points="203.964,940.335 222.861,940.335 "/>
<polyline clip-path="url(#clip810)" style="stroke:#000000; stroke-linecap:round; stroke-linejoin:round; stroke-width:4; stroke-opacity:1; fill:none" points="203.964,497.161 222.861,497.161 "/>
<polyline clip-path="url(#clip810)" style="stroke:#000000; stroke-linecap:round; stroke-linejoin:round; stroke-width:4; stroke-opacity:1; fill:none" points="203.964,53.9876 222.861,53.9876 "/>
<path clip-path="url(#clip810)" d="M156.019 1369.31 Q152.408 1369.31 150.579 1372.87 Q148.774 1376.41 148.774 1383.54 Q148.774 1390.65 150.579 1394.21 Q152.408 1397.76 156.019 1397.76 Q159.653 1397.76 161.459 1394.21 Q163.288 1390.65 163.288 1383.54 Q163.288 1376.41 161.459 1372.87 Q159.653 1369.31 156.019 1369.31 M156.019 1365.6 Q161.829 1365.6 164.885 1370.21 Q167.964 1374.79 167.964 1383.54 Q167.964 1392.27 164.885 1396.88 Q161.829 1401.46 156.019 1401.46 Q150.209 1401.46 147.13 1396.88 Q144.075 1392.27 144.075 1383.54 Q144.075 1374.79 147.13 1370.21 Q150.209 1365.6 156.019 1365.6 Z" fill="#000000" fill-rule="nonzero" fill-opacity="1" /><path clip-path="url(#clip810)" d="M116.668 953.679 L124.306 953.679 L124.306 927.314 L115.996 928.98 L115.996 924.721 L124.26 923.055 L128.936 923.055 L128.936 953.679 L136.575 953.679 L136.575 957.615 L116.668 957.615 L116.668 953.679 Z" fill="#000000" fill-rule="nonzero" fill-opacity="1" /><path clip-path="url(#clip810)" d="M156.019 926.133 Q152.408 926.133 150.579 929.698 Q148.774 933.24 148.774 940.369 Q148.774 947.476 150.579 951.04 Q152.408 954.582 156.019 954.582 Q159.653 954.582 161.459 951.04 Q163.288 947.476 163.288 940.369 Q163.288 933.24 161.459 929.698 Q159.653 926.133 156.019 926.133 M156.019 922.43 Q161.829 922.43 164.885 927.036 Q167.964 931.619 167.964 940.369 Q167.964 949.096 164.885 953.702 Q161.829 958.286 156.019 958.286 Q150.209 958.286 147.13 953.702 Q144.075 949.096 144.075 940.369 Q144.075 931.619 147.13 927.036 Q150.209 922.43 156.019 922.43 Z" fill="#000000" fill-rule="nonzero" fill-opacity="1" /><path clip-path="url(#clip810)" d="M119.885 510.506 L136.204 510.506 L136.204 514.441 L114.26 514.441 L114.26 510.506 Q116.922 507.751 121.505 503.122 Q126.112 498.469 127.292 497.126 Q129.538 494.603 130.417 492.867 Q131.32 491.108 131.32 489.418 Q131.32 486.663 129.376 484.927 Q127.455 483.191 124.353 483.191 Q122.154 483.191 119.7 483.955 Q117.269 484.719 114.492 486.27 L114.492 481.548 Q117.316 480.413 119.769 479.835 Q122.223 479.256 124.26 479.256 Q129.63 479.256 132.825 481.941 Q136.019 484.626 136.019 489.117 Q136.019 491.247 135.209 493.168 Q134.422 495.066 132.316 497.659 Q131.737 498.33 128.635 501.548 Q125.533 504.742 119.885 510.506 Z" fill="#000000" fill-rule="nonzero" fill-opacity="1" /><path clip-path="url(#clip810)" d="M156.019 482.96 Q152.408 482.96 150.579 486.525 Q148.774 490.066 148.774 497.196 Q148.774 504.302 150.579 507.867 Q152.408 511.409 156.019 511.409 Q159.653 511.409 161.459 507.867 Q163.288 504.302 163.288 497.196 Q163.288 490.066 161.459 486.525 Q159.653 482.96 156.019 482.96 M156.019 479.256 Q161.829 479.256 164.885 483.863 Q167.964 488.446 167.964 497.196 Q167.964 505.923 164.885 510.529 Q161.829 515.112 156.019 515.112 Q150.209 515.112 147.13 510.529 Q144.075 505.923 144.075 497.196 Q144.075 488.446 147.13 483.863 Q150.209 479.256 156.019 479.256 Z" fill="#000000" fill-rule="nonzero" fill-opacity="1" /><path clip-path="url(#clip810)" d="M130.024 52.6335 Q133.38 53.3511 135.255 55.6196 Q137.154 57.8881 137.154 61.2214 Q137.154 66.3371 133.635 69.138 Q130.117 71.9389 123.635 71.9389 Q121.459 71.9389 119.144 71.4991 Q116.853 71.0825 114.399 70.226 L114.399 65.7121 Q116.343 66.8464 118.658 67.4251 Q120.973 68.0038 123.496 68.0038 Q127.894 68.0038 130.186 66.2677 Q132.501 64.5316 132.501 61.2214 Q132.501 58.1659 130.348 56.4529 Q128.218 54.7168 124.399 54.7168 L120.371 54.7168 L120.371 50.8742 L124.584 50.8742 Q128.033 50.8742 129.862 49.5085 Q131.691 48.1196 131.691 45.527 Q131.691 42.865 129.792 41.453 Q127.917 40.0178 124.399 40.0178 Q122.478 40.0178 120.279 40.4345 Q118.08 40.8511 115.441 41.7308 L115.441 37.5641 Q118.103 36.8234 120.418 36.453 Q122.755 36.0826 124.816 36.0826 Q130.14 36.0826 133.242 38.5132 Q136.343 40.9206 136.343 45.0409 Q136.343 47.9113 134.7 49.902 Q133.056 51.8696 130.024 52.6335 Z" fill="#000000" fill-rule="nonzero" fill-opacity="1" /><path clip-path="url(#clip810)" d="M156.019 39.7863 Q152.408 39.7863 150.579 43.3511 Q148.774 46.8928 148.774 54.0224 Q148.774 61.1288 150.579 64.6936 Q152.408 68.2352 156.019 68.2352 Q159.653 68.2352 161.459 64.6936 Q163.288 61.1288 163.288 54.0224 Q163.288 46.8928 161.459 43.3511 Q159.653 39.7863 156.019 39.7863 M156.019 36.0826 Q161.829 36.0826 164.885 40.6891 Q167.964 45.2724 167.964 54.0224 Q167.964 62.7492 164.885 67.3556 Q161.829 71.9389 156.019 71.9389 Q150.209 71.9389 147.13 67.3556 Q144.075 62.7492 144.075 54.0224 Q144.075 45.2724 147.13 40.6891 Q150.209 36.0826 156.019 36.0826 Z" fill="#000000" fill-rule="nonzero" fill-opacity="1" /><path clip-path="url(#clip810)" d="M39.4334 772.564 Q44.844 772.564 50.9309 774.303 Q56.9856 776.01 61.8809 778.715 Q66.744 781.42 69.9646 784.963 Q73.153 788.505 73.153 791.887 Q73.153 794.045 71.9613 795.655 Q70.7375 797.233 68.7085 798.103 Q66.6474 798.972 64.393 799.391 Q62.1063 799.81 59.6265 799.81 Q55.9228 799.81 51.8971 799.005 Q47.8391 798.199 44.1677 796.847 Q40.464 795.494 37.1146 793.594 Q33.733 791.694 31.2853 789.6 Q28.8055 787.475 27.3562 785.092 Q25.907 782.708 25.907 780.486 Q25.907 778.876 26.6155 777.588 Q27.2918 776.267 28.4834 775.43 Q29.6428 774.593 31.0277 774.013 Q32.4125 773.401 34.0228 773.111 Q35.6009 772.821 36.9214 772.692 Q38.2096 772.564 39.4334 772.564 M35.3433 776.911 Q33.7008 776.911 32.477 777.04 Q31.2209 777.169 29.9649 777.523 Q28.7089 777.878 28.0325 778.65 Q27.3562 779.391 27.3562 780.551 Q27.3562 783.932 34.2805 787.733 Q36.4383 788.956 39.369 790.051 Q42.2997 791.146 43.6846 791.533 Q45.0694 791.919 48.4833 792.821 L48.4833 779.037 Q39.6911 776.911 35.3433 776.911 M50.5766 779.617 L50.5766 793.336 Q58.6281 795.462 63.6522 795.462 Q68.0322 795.462 69.868 794.56 Q71.6715 793.626 71.6715 791.887 Q71.6715 789.89 69.6747 788.022 Q67.6458 786.154 63.9743 784.254 Q59.2078 781.742 50.5766 779.617 Z" fill="#000000" fill-rule="nonzero" fill-opacity="1" /><path clip-path="url(#clip810)" d="M22.9507 728.256 Q30.2712 732.521 37.4327 734.59 Q44.5941 736.658 51.9465 736.658 Q59.2989 736.658 66.5239 734.59 Q73.7172 732.489 81.0059 728.256 L81.0059 733.348 Q73.5262 738.123 66.3011 740.51 Q59.0761 742.865 51.9465 742.865 Q44.8487 742.865 37.6555 740.51 Q30.4622 738.154 22.9507 733.348 L22.9507 728.256 Z" fill="#000000" fill-rule="nonzero" fill-opacity="1" /><path clip-path="url(#clip810)" d="M28.1387 706.74 Q28.1387 709.286 29.9211 711.036 Q31.6717 712.787 34.218 712.787 Q36.7324 712.787 38.483 711.036 Q40.2017 709.286 40.2017 706.74 Q40.2017 704.193 38.483 702.443 Q36.7324 700.692 34.218 700.692 Q31.7035 700.692 29.9211 702.475 Q28.1387 704.225 28.1387 706.74 M24.0328 706.74 Q24.0328 704.703 24.8286 702.825 Q25.5924 700.947 27.0566 699.578 Q28.4888 698.114 30.3031 697.382 Q32.1173 696.65 34.218 696.65 Q38.4193 696.65 41.3476 699.61 Q44.244 702.538 44.244 706.803 Q44.244 711.1 41.3794 713.965 Q38.5148 716.829 34.218 716.829 Q29.953 716.829 26.9929 713.901 Q24.0328 710.973 24.0328 706.74 Z" fill="#000000" fill-rule="nonzero" fill-opacity="1" /><path clip-path="url(#clip810)" d="M22.9507 685.224 L22.9507 680.131 Q30.4622 675.357 37.6555 673.001 Q44.8487 670.614 51.9465 670.614 Q59.0761 670.614 66.3011 673.001 Q73.5262 675.357 81.0059 680.131 L81.0059 685.224 Q73.7172 680.99 66.5239 678.921 Q59.2989 676.821 51.9465 676.821 Q44.5941 676.821 37.4327 678.921 Q30.2712 680.99 22.9507 685.224 Z" fill="#000000" fill-rule="nonzero" fill-opacity="1" /><polyline clip-path="url(#clip812)" style="stroke:#009af9; stroke-linecap:round; stroke-linejoin:round; stroke-width:4; stroke-opacity:1; fill:none" points="229.629,1384.24 254.791,1239.13 279.954,1003.29 305.116,733.564 330.278,478.308 355.44,270.568 380.603,148.529 405.765,127.283 430.927,137.579 456.089,86.1857 481.252,143.357 506.414,218.653 531.576,264.684 556.739,233.443 581.901,257.08 607.063,307.783 632.225,299.636 657.388,300.737 682.55,326.07 707.712,223.711 732.874,277.015 758.037,284.375 783.199,294.063 808.361,260.484 833.524,259.899 858.686,246.792 883.848,263.35 909.01,262.376 934.173,282.142 959.335,283.857 984.497,267.403 1009.66,263.722 1034.82,258.214 1059.98,283.976 1085.15,290.897 "/>
<polyline clip-path="url(#clip812)" style="stroke:#e26f46; stroke-linecap:round; stroke-linejoin:round; stroke-width:3; stroke-opacity:1; fill:none" stroke-dasharray="12, 6, 2, 6" points="229.629,1384.22 254.791,1246.33 279.954,999.112 305.116,728.359 330.278,476.218 355.44,272.295 380.603,148.995 405.765,122.527 430.927,137.953 456.089,105.535 481.252,144.112 506.414,214.873 531.576,266.514 556.739,248.545 581.901,258.066 607.063,299.929 632.225,302.488 657.388,301.418 682.55,320.483 707.712,242.533 732.874,265.484 758.037,280.724 783.199,292.49 808.361,267.628 833.524,260.219 858.686,248.814 883.848,260.091 909.01,262.876 934.173,279.135 959.335,284.155 984.497,271.159 1009.66,264.405 1034.82,258.781 1059.98,278.674 1085.15,289.574 "/>
<path clip-path="url(#clip810)" d="M961.069 1377.32 L1080.58 1377.32 L1080.58 1221.8 L961.069 1221.8  Z" fill="#ffffff" fill-rule="evenodd" fill-opacity="1"/>
<polyline clip-path="url(#clip810)" style="stroke:#000000; stroke-linecap:round; stroke-linejoin:round; stroke-width:4; stroke-opacity:1; fill:none" points="961.069,1377.32 1080.58,1377.32 1080.58,1221.8 961.069,1221.8 961.069,1377.32 "/>
<polyline clip-path="url(#clip810)" style="stroke:#009af9; stroke-linecap:round; stroke-linejoin:round; stroke-width:4; stroke-opacity:1; fill:none" points="971.145,1273.64 1031.6,1273.64 "/>
<path clip-path="url(#clip810)" d="M1068.45 1260.37 Q1066.97 1260.37 1066.22 1260.51 Q1065.48 1260.63 1065.29 1260.8 Q1065.1 1260.96 1064.89 1261.38 L1054.58 1283.3 Q1053.48 1285.65 1051.42 1287.33 Q1049.38 1289.02 1046.81 1289.02 Q1044.65 1289.02 1043.15 1287.71 Q1041.68 1286.42 1041.68 1284.59 Q1041.68 1283.28 1042.5 1282.53 Q1043.32 1281.81 1044.42 1281.81 Q1045.64 1281.81 1046.41 1282.58 Q1047.21 1283.35 1047.21 1284.55 Q1047.21 1285.32 1046.88 1285.9 Q1046.55 1286.51 1046.25 1286.72 Q1045.96 1286.96 1045.66 1287.1 Q1046.15 1287.29 1046.81 1287.29 Q1047.79 1287.29 1048.63 1286.89 Q1049.5 1286.51 1050.06 1286 Q1050.65 1285.51 1051.23 1284.62 Q1051.82 1283.75 1052.1 1283.19 Q1052.38 1282.65 1052.8 1281.71 L1053.9 1279.42 L1044.93 1260.37 L1041.87 1260.37 L1041.87 1258.13 L1047.35 1258.27 L1053.3 1258.13 L1053.3 1260.37 L1050.7 1260.37 L1056.79 1273.33 L1062.31 1261.52 L1062.55 1260.96 Q1062.55 1260.7 1061.99 1260.56 Q1061.42 1260.4 1060.86 1260.4 L1060.3 1260.37 L1060.3 1258.13 L1064.66 1258.27 Q1066.72 1258.27 1068.45 1258.13 L1068.45 1260.37 Z" fill="#000000" fill-rule="nonzero" fill-opacity="1" /><polyline clip-path="url(#clip810)" style="stroke:#e26f46; stroke-linecap:round; stroke-linejoin:round; stroke-width:3; stroke-opacity:1; fill:none" stroke-dasharray="12, 6, 2, 6" points="971.145,1325.48 1031.6,1325.48 "/>
<path clip-path="url(#clip810)" d="M1064.26 1309.2 L1063.85 1309.87 Q1061.31 1308.77 1058.15 1307.01 Q1054.98 1308.77 1052.44 1309.87 L1052.05 1309.2 Q1054.82 1306.79 1058.15 1304.93 Q1061.51 1306.8 1064.26 1309.2 Z" fill="#000000" fill-rule="nonzero" fill-opacity="1" /><path clip-path="url(#clip810)" d="M1068.45 1317.22 Q1066.97 1317.22 1066.22 1317.36 Q1065.48 1317.48 1065.29 1317.64 Q1065.1 1317.8 1064.89 1318.23 L1054.58 1340.15 Q1053.48 1342.49 1051.42 1344.18 Q1049.38 1345.86 1046.81 1345.86 Q1044.65 1345.86 1043.15 1344.55 Q1041.68 1343.26 1041.68 1341.44 Q1041.68 1340.13 1042.5 1339.38 Q1043.32 1338.65 1044.42 1338.65 Q1045.64 1338.65 1046.41 1339.42 Q1047.21 1340.2 1047.21 1341.39 Q1047.21 1342.16 1046.88 1342.75 Q1046.55 1343.36 1046.25 1343.57 Q1045.96 1343.8 1045.66 1343.94 Q1046.15 1344.13 1046.81 1344.13 Q1047.79 1344.13 1048.63 1343.73 Q1049.5 1343.36 1050.06 1342.84 Q1050.65 1342.35 1051.23 1341.46 Q1051.82 1340.59 1052.1 1340.03 Q1052.38 1339.49 1052.8 1338.56 L1053.9 1336.26 L1044.93 1317.22 L1041.87 1317.22 L1041.87 1314.97 L1047.35 1315.11 L1053.3 1314.97 L1053.3 1317.22 L1050.7 1317.22 L1056.79 1330.17 L1062.31 1318.37 L1062.55 1317.8 Q1062.55 1317.55 1061.99 1317.41 Q1061.42 1317.24 1060.86 1317.24 L1060.3 1317.22 L1060.3 1314.97 L1064.66 1315.11 Q1066.72 1315.11 1068.45 1314.97 L1068.45 1317.22 Z" fill="#000000" fill-rule="nonzero" fill-opacity="1" /><path clip-path="url(#clip810)" d="M1445.91 398.692 L2352.76 398.692 L2352.76 47.2441 L1445.91 47.2441  Z" fill="#ffffff" fill-rule="evenodd" fill-opacity="1"/>
<defs>
  <clipPath id="clip813">
    <rect x="1445" y="47" width="908" height="352"/>
  </clipPath>
</defs>
<polyline clip-path="url(#clip813)" style="stroke:#000000; stroke-linecap:round; stroke-linejoin:round; stroke-width:2; stroke-opacity:0.1; fill:none" points="1471.57,398.692 1471.57,47.2441 "/>
<polyline clip-path="url(#clip813)" style="stroke:#000000; stroke-linecap:round; stroke-linejoin:round; stroke-width:2; stroke-opacity:0.1; fill:none" points="1723.2,398.692 1723.2,47.2441 "/>
<polyline clip-path="url(#clip813)" style="stroke:#000000; stroke-linecap:round; stroke-linejoin:round; stroke-width:2; stroke-opacity:0.1; fill:none" points="1974.82,398.692 1974.82,47.2441 "/>
<polyline clip-path="url(#clip813)" style="stroke:#000000; stroke-linecap:round; stroke-linejoin:round; stroke-width:2; stroke-opacity:0.1; fill:none" points="2226.44,398.692 2226.44,47.2441 "/>
<polyline clip-path="url(#clip813)" style="stroke:#000000; stroke-linecap:round; stroke-linejoin:round; stroke-width:2; stroke-opacity:0.1; fill:none" points="1445.91,388.562 2352.76,388.562 "/>
<polyline clip-path="url(#clip813)" style="stroke:#000000; stroke-linecap:round; stroke-linejoin:round; stroke-width:2; stroke-opacity:0.1; fill:none" points="1445.91,322.861 2352.76,322.861 "/>
<polyline clip-path="url(#clip813)" style="stroke:#000000; stroke-linecap:round; stroke-linejoin:round; stroke-width:2; stroke-opacity:0.1; fill:none" points="1445.91,257.16 2352.76,257.16 "/>
<polyline clip-path="url(#clip813)" style="stroke:#000000; stroke-linecap:round; stroke-linejoin:round; stroke-width:2; stroke-opacity:0.1; fill:none" points="1445.91,191.459 2352.76,191.459 "/>
<polyline clip-path="url(#clip813)" style="stroke:#000000; stroke-linecap:round; stroke-linejoin:round; stroke-width:2; stroke-opacity:0.1; fill:none" points="1445.91,125.758 2352.76,125.758 "/>
<polyline clip-path="url(#clip813)" style="stroke:#000000; stroke-linecap:round; stroke-linejoin:round; stroke-width:2; stroke-opacity:0.1; fill:none" points="1445.91,60.0568 2352.76,60.0568 "/>
<polyline clip-path="url(#clip810)" style="stroke:#000000; stroke-linecap:round; stroke-linejoin:round; stroke-width:4; stroke-opacity:1; fill:none" points="1445.91,398.692 2352.76,398.692 "/>
<polyline clip-path="url(#clip810)" style="stroke:#000000; stroke-linecap:round; stroke-linejoin:round; stroke-width:4; stroke-opacity:1; fill:none" points="1471.57,398.692 1471.57,379.794 "/>
<polyline clip-path="url(#clip810)" style="stroke:#000000; stroke-linecap:round; stroke-linejoin:round; stroke-width:4; stroke-opacity:1; fill:none" points="1723.2,398.692 1723.2,379.794 "/>
<polyline clip-path="url(#clip810)" style="stroke:#000000; stroke-linecap:round; stroke-linejoin:round; stroke-width:4; stroke-opacity:1; fill:none" points="1974.82,398.692 1974.82,379.794 "/>
<polyline clip-path="url(#clip810)" style="stroke:#000000; stroke-linecap:round; stroke-linejoin:round; stroke-width:4; stroke-opacity:1; fill:none" points="2226.44,398.692 2226.44,379.794 "/>
<path clip-path="url(#clip810)" d="M1471.57 429.611 Q1467.96 429.611 1466.13 433.175 Q1464.33 436.717 1464.33 443.847 Q1464.33 450.953 1466.13 454.518 Q1467.96 458.059 1471.57 458.059 Q1475.21 458.059 1477.01 454.518 Q1478.84 450.953 1478.84 443.847 Q1478.84 436.717 1477.01 433.175 Q1475.21 429.611 1471.57 429.611 M1471.57 425.907 Q1477.38 425.907 1480.44 430.513 Q1483.52 435.097 1483.52 443.847 Q1483.52 452.573 1480.44 457.18 Q1477.38 461.763 1471.57 461.763 Q1465.76 461.763 1462.68 457.18 Q1459.63 452.573 1459.63 443.847 Q1459.63 435.097 1462.68 430.513 Q1465.76 425.907 1471.57 425.907 Z" fill="#000000" fill-rule="nonzero" fill-opacity="1" /><path clip-path="url(#clip810)" d="M1713.58 457.157 L1721.22 457.157 L1721.22 430.791 L1712.91 432.458 L1712.91 428.199 L1721.17 426.532 L1725.85 426.532 L1725.85 457.157 L1733.49 457.157 L1733.49 461.092 L1713.58 461.092 L1713.58 457.157 Z" fill="#000000" fill-rule="nonzero" fill-opacity="1" /><path clip-path="url(#clip810)" d="M1969.47 457.157 L1985.79 457.157 L1985.79 461.092 L1963.85 461.092 L1963.85 457.157 Q1966.51 454.402 1971.09 449.772 Q1975.7 445.12 1976.88 443.777 Q1979.12 441.254 1980 439.518 Q1980.91 437.759 1980.91 436.069 Q1980.91 433.314 1978.96 431.578 Q1977.04 429.842 1973.94 429.842 Q1971.74 429.842 1969.29 430.606 Q1966.86 431.37 1964.08 432.921 L1964.08 428.199 Q1966.9 427.064 1969.36 426.486 Q1971.81 425.907 1973.85 425.907 Q1979.22 425.907 1982.41 428.592 Q1985.61 431.277 1985.61 435.768 Q1985.61 437.898 1984.8 439.819 Q1984.01 441.717 1981.9 444.31 Q1981.32 444.981 1978.22 448.198 Q1975.12 451.393 1969.47 457.157 Z" fill="#000000" fill-rule="nonzero" fill-opacity="1" /><path clip-path="url(#clip810)" d="M2230.69 442.458 Q2234.05 443.175 2235.92 445.444 Q2237.82 447.712 2237.82 451.046 Q2237.82 456.161 2234.3 458.962 Q2230.78 461.763 2224.3 461.763 Q2222.12 461.763 2219.81 461.323 Q2217.52 460.907 2215.06 460.05 L2215.06 455.536 Q2217.01 456.671 2219.32 457.249 Q2221.64 457.828 2224.16 457.828 Q2228.56 457.828 2230.85 456.092 Q2233.17 454.356 2233.17 451.046 Q2233.17 447.99 2231.01 446.277 Q2228.88 444.541 2225.06 444.541 L2221.04 444.541 L2221.04 440.698 L2225.25 440.698 Q2228.7 440.698 2230.53 439.333 Q2232.36 437.944 2232.36 435.351 Q2232.36 432.689 2230.46 431.277 Q2228.58 429.842 2225.06 429.842 Q2223.14 429.842 2220.94 430.259 Q2218.74 430.675 2216.11 431.555 L2216.11 427.388 Q2218.77 426.648 2221.08 426.277 Q2223.42 425.907 2225.48 425.907 Q2230.8 425.907 2233.91 428.337 Q2237.01 430.745 2237.01 434.865 Q2237.01 437.736 2235.36 439.726 Q2233.72 441.694 2230.69 442.458 Z" fill="#000000" fill-rule="nonzero" fill-opacity="1" /><polyline clip-path="url(#clip810)" style="stroke:#000000; stroke-linecap:round; stroke-linejoin:round; stroke-width:4; stroke-opacity:1; fill:none" points="1445.91,398.692 1445.91,47.2441 "/>
<polyline clip-path="url(#clip810)" style="stroke:#000000; stroke-linecap:round; stroke-linejoin:round; stroke-width:4; stroke-opacity:1; fill:none" points="1445.91,388.562 1464.81,388.562 "/>
<polyline clip-path="url(#clip810)" style="stroke:#000000; stroke-linecap:round; stroke-linejoin:round; stroke-width:4; stroke-opacity:1; fill:none" points="1445.91,322.861 1464.81,322.861 "/>
<polyline clip-path="url(#clip810)" style="stroke:#000000; stroke-linecap:round; stroke-linejoin:round; stroke-width:4; stroke-opacity:1; fill:none" points="1445.91,257.16 1464.81,257.16 "/>
<polyline clip-path="url(#clip810)" style="stroke:#000000; stroke-linecap:round; stroke-linejoin:round; stroke-width:4; stroke-opacity:1; fill:none" points="1445.91,191.459 1464.81,191.459 "/>
<polyline clip-path="url(#clip810)" style="stroke:#000000; stroke-linecap:round; stroke-linejoin:round; stroke-width:4; stroke-opacity:1; fill:none" points="1445.91,125.758 1464.81,125.758 "/>
<polyline clip-path="url(#clip810)" style="stroke:#000000; stroke-linecap:round; stroke-linejoin:round; stroke-width:4; stroke-opacity:1; fill:none" points="1445.91,60.0568 1464.81,60.0568 "/>
<path clip-path="url(#clip810)" d="M1352.73 374.361 Q1349.12 374.361 1347.29 377.925 Q1345.49 381.467 1345.49 388.597 Q1345.49 395.703 1347.29 399.268 Q1349.12 402.809 1352.73 402.809 Q1356.37 402.809 1358.17 399.268 Q1360 395.703 1360 388.597 Q1360 381.467 1358.17 377.925 Q1356.37 374.361 1352.73 374.361 M1352.73 370.657 Q1358.54 370.657 1361.6 375.263 Q1364.68 379.847 1364.68 388.597 Q1364.68 397.323 1361.6 401.93 Q1358.54 406.513 1352.73 406.513 Q1346.92 406.513 1343.84 401.93 Q1340.79 397.323 1340.79 388.597 Q1340.79 379.847 1343.84 375.263 Q1346.92 370.657 1352.73 370.657 Z" fill="#000000" fill-rule="nonzero" fill-opacity="1" /><path clip-path="url(#clip810)" d="M1372.89 399.962 L1377.78 399.962 L1377.78 405.842 L1372.89 405.842 L1372.89 399.962 Z" fill="#000000" fill-rule="nonzero" fill-opacity="1" /><path clip-path="url(#clip810)" d="M1397.96 374.361 Q1394.35 374.361 1392.52 377.925 Q1390.72 381.467 1390.72 388.597 Q1390.72 395.703 1392.52 399.268 Q1394.35 402.809 1397.96 402.809 Q1401.6 402.809 1403.4 399.268 Q1405.23 395.703 1405.23 388.597 Q1405.23 381.467 1403.4 377.925 Q1401.6 374.361 1397.96 374.361 M1397.96 370.657 Q1403.77 370.657 1406.83 375.263 Q1409.91 379.847 1409.91 388.597 Q1409.91 397.323 1406.83 401.93 Q1403.77 406.513 1397.96 406.513 Q1392.15 406.513 1389.07 401.93 Q1386.02 397.323 1386.02 388.597 Q1386.02 379.847 1389.07 375.263 Q1392.15 370.657 1397.96 370.657 Z" fill="#000000" fill-rule="nonzero" fill-opacity="1" /><path clip-path="url(#clip810)" d="M1353.96 308.66 Q1350.35 308.66 1348.52 312.224 Q1346.71 315.766 1346.71 322.896 Q1346.71 330.002 1348.52 333.567 Q1350.35 337.108 1353.96 337.108 Q1357.59 337.108 1359.4 333.567 Q1361.23 330.002 1361.23 322.896 Q1361.23 315.766 1359.4 312.224 Q1357.59 308.66 1353.96 308.66 M1353.96 304.956 Q1359.77 304.956 1362.82 309.562 Q1365.9 314.146 1365.9 322.896 Q1365.9 331.622 1362.82 336.229 Q1359.77 340.812 1353.96 340.812 Q1348.15 340.812 1345.07 336.229 Q1342.01 331.622 1342.01 322.896 Q1342.01 314.146 1345.07 309.562 Q1348.15 304.956 1353.96 304.956 Z" fill="#000000" fill-rule="nonzero" fill-opacity="1" /><path clip-path="url(#clip810)" d="M1374.12 334.261 L1379.01 334.261 L1379.01 340.141 L1374.12 340.141 L1374.12 334.261 Z" fill="#000000" fill-rule="nonzero" fill-opacity="1" /><path clip-path="url(#clip810)" d="M1390 336.206 L1397.64 336.206 L1397.64 309.84 L1389.33 311.507 L1389.33 307.247 L1397.59 305.581 L1402.27 305.581 L1402.27 336.206 L1409.91 336.206 L1409.91 340.141 L1390 340.141 L1390 336.206 Z" fill="#000000" fill-rule="nonzero" fill-opacity="1" /><path clip-path="url(#clip810)" d="M1354.33 242.959 Q1350.72 242.959 1348.89 246.523 Q1347.08 250.065 1347.08 257.195 Q1347.08 264.301 1348.89 267.866 Q1350.72 271.407 1354.33 271.407 Q1357.96 271.407 1359.77 267.866 Q1361.6 264.301 1361.6 257.195 Q1361.6 250.065 1359.77 246.523 Q1357.96 242.959 1354.33 242.959 M1354.33 239.255 Q1360.14 239.255 1363.2 243.861 Q1366.27 248.445 1366.27 257.195 Q1366.27 265.921 1363.2 270.528 Q1360.14 275.111 1354.33 275.111 Q1348.52 275.111 1345.44 270.528 Q1342.39 265.921 1342.39 257.195 Q1342.39 248.445 1345.44 243.861 Q1348.52 239.255 1354.33 239.255 Z" fill="#000000" fill-rule="nonzero" fill-opacity="1" /><path clip-path="url(#clip810)" d="M1374.49 268.56 L1379.38 268.56 L1379.38 274.44 L1374.49 274.44 L1374.49 268.56 Z" fill="#000000" fill-rule="nonzero" fill-opacity="1" /><path clip-path="url(#clip810)" d="M1393.59 270.505 L1409.91 270.505 L1409.91 274.44 L1387.96 274.44 L1387.96 270.505 Q1390.63 267.75 1395.21 263.12 Q1399.82 258.468 1401 257.125 Q1403.24 254.602 1404.12 252.866 Q1405.02 251.107 1405.02 249.417 Q1405.02 246.662 1403.08 244.926 Q1401.16 243.19 1398.06 243.19 Q1395.86 243.19 1393.4 243.954 Q1390.97 244.718 1388.19 246.269 L1388.19 241.546 Q1391.02 240.412 1393.47 239.834 Q1395.93 239.255 1397.96 239.255 Q1403.33 239.255 1406.53 241.94 Q1409.72 244.625 1409.72 249.116 Q1409.72 251.245 1408.91 253.167 Q1408.13 255.065 1406.02 257.657 Q1405.44 258.329 1402.34 261.546 Q1399.24 264.741 1393.59 270.505 Z" fill="#000000" fill-rule="nonzero" fill-opacity="1" /><path clip-path="url(#clip810)" d="M1353.38 177.257 Q1349.77 177.257 1347.94 180.822 Q1346.13 184.364 1346.13 191.494 Q1346.13 198.6 1347.94 202.165 Q1349.77 205.706 1353.38 205.706 Q1357.01 205.706 1358.82 202.165 Q1360.65 198.6 1360.65 191.494 Q1360.65 184.364 1358.82 180.822 Q1357.01 177.257 1353.38 177.257 M1353.38 173.554 Q1359.19 173.554 1362.25 178.16 Q1365.32 182.744 1365.32 191.494 Q1365.32 200.22 1362.25 204.827 Q1359.19 209.41 1353.38 209.41 Q1347.57 209.41 1344.49 204.827 Q1341.44 200.22 1341.44 191.494 Q1341.44 182.744 1344.49 178.16 Q1347.57 173.554 1353.38 173.554 Z" fill="#000000" fill-rule="nonzero" fill-opacity="1" /><path clip-path="url(#clip810)" d="M1373.54 202.859 L1378.43 202.859 L1378.43 208.739 L1373.54 208.739 L1373.54 202.859 Z" fill="#000000" fill-rule="nonzero" fill-opacity="1" /><path clip-path="url(#clip810)" d="M1402.78 190.105 Q1406.13 190.822 1408.01 193.091 Q1409.91 195.359 1409.91 198.693 Q1409.91 203.808 1406.39 206.609 Q1402.87 209.41 1396.39 209.41 Q1394.21 209.41 1391.9 208.97 Q1389.61 208.554 1387.15 207.697 L1387.15 203.183 Q1389.1 204.318 1391.41 204.896 Q1393.73 205.475 1396.25 205.475 Q1400.65 205.475 1402.94 203.739 Q1405.26 202.003 1405.26 198.693 Q1405.26 195.637 1403.1 193.924 Q1400.97 192.188 1397.15 192.188 L1393.13 192.188 L1393.13 188.345 L1397.34 188.345 Q1400.79 188.345 1402.62 186.98 Q1404.44 185.591 1404.44 182.998 Q1404.44 180.336 1402.55 178.924 Q1400.67 177.489 1397.15 177.489 Q1395.23 177.489 1393.03 177.906 Q1390.83 178.322 1388.19 179.202 L1388.19 175.035 Q1390.86 174.295 1393.17 173.924 Q1395.51 173.554 1397.57 173.554 Q1402.89 173.554 1406 175.984 Q1409.1 178.392 1409.1 182.512 Q1409.1 185.382 1407.45 187.373 Q1405.81 189.341 1402.78 190.105 Z" fill="#000000" fill-rule="nonzero" fill-opacity="1" /><path clip-path="url(#clip810)" d="M1352.25 111.556 Q1348.63 111.556 1346.81 115.121 Q1345 118.663 1345 125.793 Q1345 132.899 1346.81 136.464 Q1348.63 140.005 1352.25 140.005 Q1355.88 140.005 1357.69 136.464 Q1359.51 132.899 1359.51 125.793 Q1359.51 118.663 1357.69 115.121 Q1355.88 111.556 1352.25 111.556 M1352.25 107.853 Q1358.06 107.853 1361.11 112.459 Q1364.19 117.043 1364.19 125.793 Q1364.19 134.519 1361.11 139.126 Q1358.06 143.709 1352.25 143.709 Q1346.44 143.709 1343.36 139.126 Q1340.3 134.519 1340.3 125.793 Q1340.3 117.043 1343.36 112.459 Q1346.44 107.853 1352.25 107.853 Z" fill="#000000" fill-rule="nonzero" fill-opacity="1" /><path clip-path="url(#clip810)" d="M1372.41 137.158 L1377.29 137.158 L1377.29 143.038 L1372.41 143.038 L1372.41 137.158 Z" fill="#000000" fill-rule="nonzero" fill-opacity="1" /><path clip-path="url(#clip810)" d="M1400.32 112.552 L1388.52 131.001 L1400.32 131.001 L1400.32 112.552 M1399.1 108.478 L1404.98 108.478 L1404.98 131.001 L1409.91 131.001 L1409.91 134.89 L1404.98 134.89 L1404.98 143.038 L1400.32 143.038 L1400.32 134.89 L1384.72 134.89 L1384.72 130.376 L1399.1 108.478 Z" fill="#000000" fill-rule="nonzero" fill-opacity="1" /><path clip-path="url(#clip810)" d="M1353.73 45.8555 Q1350.12 45.8555 1348.29 49.4203 Q1346.48 52.9619 1346.48 60.0915 Q1346.48 67.1979 1348.29 70.7627 Q1350.12 74.3044 1353.73 74.3044 Q1357.36 74.3044 1359.17 70.7627 Q1361 67.1979 1361 60.0915 Q1361 52.9619 1359.17 49.4203 Q1357.36 45.8555 1353.73 45.8555 M1353.73 42.1518 Q1359.54 42.1518 1362.59 46.7582 Q1365.67 51.3415 1365.67 60.0915 Q1365.67 68.8183 1362.59 73.4248 Q1359.54 78.0081 1353.73 78.0081 Q1347.92 78.0081 1344.84 73.4248 Q1341.78 68.8183 1341.78 60.0915 Q1341.78 51.3415 1344.84 46.7582 Q1347.92 42.1518 1353.73 42.1518 Z" fill="#000000" fill-rule="nonzero" fill-opacity="1" /><path clip-path="url(#clip810)" d="M1373.89 71.4572 L1378.77 71.4572 L1378.77 77.3368 L1373.89 77.3368 L1373.89 71.4572 Z" fill="#000000" fill-rule="nonzero" fill-opacity="1" /><path clip-path="url(#clip810)" d="M1389.01 42.7768 L1407.36 42.7768 L1407.36 46.7119 L1393.29 46.7119 L1393.29 55.1841 Q1394.31 54.8369 1395.32 54.6749 Q1396.34 54.4897 1397.36 54.4897 Q1403.15 54.4897 1406.53 57.6609 Q1409.91 60.8322 1409.91 66.2489 Q1409.91 71.8275 1406.44 74.9294 Q1402.96 78.0081 1396.64 78.0081 Q1394.47 78.0081 1392.2 77.6377 Q1389.95 77.2673 1387.55 76.5266 L1387.55 71.8275 Q1389.63 72.9618 1391.85 73.5173 Q1394.07 74.0729 1396.55 74.0729 Q1400.56 74.0729 1402.89 71.9664 Q1405.23 69.86 1405.23 66.2489 Q1405.23 62.6378 1402.89 60.5313 Q1400.56 58.4248 1396.55 58.4248 Q1394.68 58.4248 1392.8 58.8415 Q1390.95 59.2582 1389.01 60.1378 L1389.01 42.7768 Z" fill="#000000" fill-rule="nonzero" fill-opacity="1" /><path clip-path="url(#clip810)" d="M1265.47 298.084 Q1270.89 298.084 1276.97 299.823 Q1283.03 301.53 1287.92 304.235 Q1292.79 306.941 1296.01 310.483 Q1299.19 314.026 1299.19 317.408 Q1299.19 319.565 1298 321.176 Q1296.78 322.754 1294.75 323.623 Q1292.69 324.493 1290.43 324.912 Q1288.15 325.33 1285.67 325.33 Q1281.96 325.33 1277.94 324.525 Q1273.88 323.72 1270.21 322.367 Q1266.51 321.015 1263.16 319.115 Q1259.77 317.214 1257.33 315.121 Q1254.85 312.995 1253.4 310.612 Q1251.95 308.229 1251.95 306.007 Q1251.95 304.396 1252.66 303.108 Q1253.33 301.788 1254.52 300.95 Q1255.68 300.113 1257.07 299.533 Q1258.45 298.921 1260.06 298.632 Q1261.64 298.342 1262.96 298.213 Q1264.25 298.084 1265.47 298.084 M1261.38 302.432 Q1259.74 302.432 1258.52 302.561 Q1257.26 302.69 1256.01 303.044 Q1254.75 303.398 1254.07 304.171 Q1253.4 304.912 1253.4 306.071 Q1253.4 309.453 1260.32 313.253 Q1262.48 314.477 1265.41 315.572 Q1268.34 316.667 1269.73 317.053 Q1271.11 317.44 1274.52 318.342 L1274.52 304.558 Q1265.73 302.432 1261.38 302.432 M1276.62 305.137 L1276.62 318.857 Q1284.67 320.983 1289.69 320.983 Q1294.07 320.983 1295.91 320.081 Q1297.71 319.147 1297.71 317.408 Q1297.71 315.411 1295.72 313.543 Q1293.69 311.675 1290.02 309.775 Q1285.25 307.263 1276.62 305.137 Z" fill="#000000" fill-rule="nonzero" fill-opacity="1" /><path clip-path="url(#clip810)" d="M1248.99 253.776 Q1256.31 258.041 1263.47 260.11 Q1270.64 262.179 1277.99 262.179 Q1285.34 262.179 1292.57 260.11 Q1299.76 258.009 1307.05 253.776 L1307.05 258.869 Q1299.57 263.643 1292.34 266.03 Q1285.12 268.386 1277.99 268.386 Q1270.89 268.386 1263.7 266.03 Q1256.5 263.675 1248.99 258.869 L1248.99 253.776 Z" fill="#000000" fill-rule="nonzero" fill-opacity="1" /><path clip-path="url(#clip810)" d="M1268.28 221.757 Q1267.71 222.743 1267.45 223.921 Q1267.17 225.067 1267.17 226.467 Q1267.17 231.433 1270.41 234.106 Q1273.63 236.748 1279.67 236.748 L1298.45 236.748 L1298.45 242.636 L1262.81 242.636 L1262.81 236.748 L1268.34 236.748 Q1265.1 234.902 1263.54 231.942 Q1261.95 228.982 1261.95 224.749 Q1261.95 224.144 1262.04 223.412 Q1262.11 222.68 1262.26 221.789 L1268.28 221.757 Z" fill="#000000" fill-rule="nonzero" fill-opacity="1" /><path clip-path="url(#clip810)" d="M1280.53 199.413 Q1280.53 206.511 1282.16 209.248 Q1283.78 211.985 1287.7 211.985 Q1290.81 211.985 1292.66 209.948 Q1294.48 207.879 1294.48 204.347 Q1294.48 199.477 1291.04 196.549 Q1287.57 193.588 1281.84 193.588 L1280.53 193.588 L1280.53 199.413 M1278.12 187.732 L1298.45 187.732 L1298.45 193.588 L1293.04 193.588 Q1296.29 195.594 1297.85 198.586 Q1299.38 201.577 1299.38 205.906 Q1299.38 211.381 1296.32 214.627 Q1293.23 217.842 1288.08 217.842 Q1282.06 217.842 1279.01 213.831 Q1275.95 209.789 1275.95 201.8 L1275.95 193.588 L1275.38 193.588 Q1271.34 193.588 1269.14 196.262 Q1266.91 198.904 1266.91 203.71 Q1266.91 206.766 1267.64 209.662 Q1268.38 212.558 1269.84 215.232 L1264.43 215.232 Q1263.19 212.017 1262.58 208.993 Q1261.95 205.97 1261.95 203.105 Q1261.95 195.371 1265.96 191.551 Q1269.97 187.732 1278.12 187.732 Z" fill="#000000" fill-rule="nonzero" fill-opacity="1" /><path clip-path="url(#clip810)" d="M1268.22 152.211 L1248.93 152.211 L1248.93 146.355 L1298.45 146.355 L1298.45 152.211 L1293.11 152.211 Q1296.29 154.057 1297.85 156.89 Q1299.38 159.691 1299.38 163.638 Q1299.38 170.099 1294.22 174.173 Q1289.06 178.215 1280.66 178.215 Q1272.26 178.215 1267.1 174.173 Q1261.95 170.099 1261.95 163.638 Q1261.95 159.691 1263.51 156.89 Q1265.03 154.057 1268.22 152.211 M1280.66 172.168 Q1287.12 172.168 1290.81 169.526 Q1294.48 166.853 1294.48 162.206 Q1294.48 157.559 1290.81 154.885 Q1287.12 152.211 1280.66 152.211 Q1274.2 152.211 1270.54 154.885 Q1266.85 157.559 1266.85 162.206 Q1266.85 166.853 1270.54 169.526 Q1274.2 172.168 1280.66 172.168 Z" fill="#000000" fill-rule="nonzero" fill-opacity="1" /><path clip-path="url(#clip810)" d="M1248.99 135.215 L1248.99 130.122 Q1256.5 125.348 1263.7 122.993 Q1270.89 120.606 1277.99 120.606 Q1285.12 120.606 1292.34 122.993 Q1299.57 125.348 1307.05 130.122 L1307.05 135.215 Q1299.76 130.982 1292.57 128.913 Q1285.34 126.812 1277.99 126.812 Q1270.64 126.812 1263.47 128.913 Q1256.31 130.982 1248.99 135.215 Z" fill="#000000" fill-rule="nonzero" fill-opacity="1" /><polyline clip-path="url(#clip813)" style="stroke:#009af9; stroke-linecap:round; stroke-linejoin:round; stroke-width:4; stroke-opacity:1; fill:none" points="1471.57,388.562 1496.74,360.031 1521.9,295.311 1547.06,220.783 1572.22,154.087 1597.38,104.164 1622.55,73.1505 1647.71,58.8935 1672.87,57.1907 1698.03,63.3877 1723.2,73.3454 1748.36,83.9169 1773.52,93.0767 1798.68,99.8233 1823.85,103.953 1849.01,105.786 1874.17,105.91 1899.33,104.977 1924.49,103.563 1949.66,102.099 1974.82,100.857 1999.98,99.9632 2025.14,99.4331 2050.31,99.2148 2075.47,99.2231 2100.63,99.3674 2125.79,99.5695 2150.95,99.7721 2176.12,99.9402 2201.28,100.059 2226.44,100.127 2251.6,100.152 2276.77,100.148 2301.93,100.126 2327.09,100.097 "/>
<polyline clip-path="url(#clip813)" style="stroke:#e26f46; stroke-linecap:round; stroke-linejoin:round; stroke-width:3; stroke-opacity:1; fill:none" stroke-dasharray="12, 6, 2, 6" points="1471.57,388.745 1496.74,353.068 1521.9,289.1 1547.06,219.044 1572.22,153.803 1597.38,101.039 1622.55,69.135 1647.71,62.2866 1672.87,66.2779 1698.03,57.8898 1723.2,67.8715 1748.36,86.1807 1773.52,99.5426 1798.68,94.8933 1823.85,97.3567 1849.01,108.189 1874.17,108.851 1899.33,108.574 1924.49,113.507 1949.66,93.3377 1974.82,99.2764 1999.98,103.22 2025.14,106.264 2050.31,99.8311 2075.47,97.9138 2100.63,94.963 2125.79,97.8808 2150.95,98.6015 2176.12,102.808 2201.28,104.107 2226.44,100.745 2251.6,98.9971 2276.77,97.5418 2301.93,102.689 2327.09,105.509 "/>
<path clip-path="url(#clip810)" d="M2203.01 386.977 L2322.53 386.977 L2322.53 231.457 L2203.01 231.457  Z" fill="#ffffff" fill-rule="evenodd" fill-opacity="1"/>
<polyline clip-path="url(#clip810)" style="stroke:#000000; stroke-linecap:round; stroke-linejoin:round; stroke-width:4; stroke-opacity:1; fill:none" points="2203.01,386.977 2322.53,386.977 2322.53,231.457 2203.01,231.457 2203.01,386.977 "/>
<polyline clip-path="url(#clip810)" style="stroke:#009af9; stroke-linecap:round; stroke-linejoin:round; stroke-width:4; stroke-opacity:1; fill:none" points="2213.09,283.297 2273.55,283.297 "/>
<path clip-path="url(#clip810)" d="M2310.63 293.836 L2305.36 293.695 L2299.6 293.836 L2299.6 291.587 L2301.47 291.587 L2296.2 285.357 L2291.54 290.58 L2291.21 291.049 Q2291.21 291.26 2291.75 291.423 Q2292.31 291.587 2292.97 291.587 L2292.97 293.836 L2288.03 293.695 L2283.62 293.836 L2283.62 291.587 Q2285.1 291.587 2285.78 291.564 Q2286.48 291.517 2287.28 291.306 Q2288.07 291.096 2288.47 290.674 L2294.75 283.624 L2287.28 274.794 L2283.86 274.794 L2283.86 272.545 L2289.15 272.686 L2294.94 272.545 L2294.94 274.794 L2293.01 274.794 L2297.72 280.298 L2301.75 275.801 Q2301.77 275.777 2302.15 275.215 Q2301.4 274.794 2300.32 274.794 L2300.32 272.545 L2305.26 272.686 L2309.67 272.545 L2309.67 274.794 Q2307.75 274.794 2306.74 274.934 Q2305.76 275.051 2305.45 275.215 Q2305.17 275.379 2304.77 275.801 L2299.17 282.031 L2307.23 291.587 L2310.63 291.587 L2310.63 293.836 Z" fill="#000000" fill-rule="nonzero" fill-opacity="1" /><polyline clip-path="url(#clip810)" style="stroke:#e26f46; stroke-linecap:round; stroke-linejoin:round; stroke-width:3; stroke-opacity:1; fill:none" stroke-dasharray="12, 6, 2, 6" points="2213.09,335.137 2273.55,335.137 "/>
<path clip-path="url(#clip810)" d="M2306.21 323.615 L2305.8 324.287 Q2303.26 323.189 2300.09 321.434 Q2296.93 323.189 2294.39 324.287 L2293.99 323.615 Q2296.76 321.205 2300.09 319.352 Q2303.45 321.221 2306.21 323.615 Z" fill="#000000" fill-rule="nonzero" fill-opacity="1" /><path clip-path="url(#clip810)" d="M2310.63 350.681 L2305.36 350.54 L2299.6 350.681 L2299.6 348.432 L2301.47 348.432 L2296.2 342.202 L2291.54 347.425 L2291.21 347.893 Q2291.21 348.104 2291.75 348.268 Q2292.31 348.432 2292.97 348.432 L2292.97 350.681 L2288.03 350.54 L2283.62 350.681 L2283.62 348.432 Q2285.1 348.432 2285.78 348.409 Q2286.48 348.362 2287.28 348.151 Q2288.07 347.94 2288.47 347.519 L2294.75 340.468 L2287.28 331.638 L2283.86 331.638 L2283.86 329.39 L2289.15 329.53 L2294.94 329.39 L2294.94 331.638 L2293.01 331.638 L2297.72 337.142 L2301.75 332.645 Q2301.77 332.622 2302.15 332.06 Q2301.4 331.638 2300.32 331.638 L2300.32 329.39 L2305.26 329.53 L2309.67 329.39 L2309.67 331.638 Q2307.75 331.638 2306.74 331.779 Q2305.76 331.896 2305.45 332.06 Q2305.17 332.224 2304.77 332.645 L2299.17 338.876 L2307.23 348.432 L2310.63 348.432 L2310.63 350.681 Z" fill="#000000" fill-rule="nonzero" fill-opacity="1" /><path clip-path="url(#clip810)" d="M1445.91 910.936 L2352.76 910.936 L2352.76 559.488 L1445.91 559.488  Z" fill="#ffffff" fill-rule="evenodd" fill-opacity="1"/>
<defs>
  <clipPath id="clip814">
    <rect x="1445" y="559" width="908" height="352"/>
  </clipPath>
</defs>
<polyline clip-path="url(#clip814)" style="stroke:#000000; stroke-linecap:round; stroke-linejoin:round; stroke-width:2; stroke-opacity:0.1; fill:none" points="1471.57,910.936 1471.57,559.488 "/>
<polyline clip-path="url(#clip814)" style="stroke:#000000; stroke-linecap:round; stroke-linejoin:round; stroke-width:2; stroke-opacity:0.1; fill:none" points="1723.2,910.936 1723.2,559.488 "/>
<polyline clip-path="url(#clip814)" style="stroke:#000000; stroke-linecap:round; stroke-linejoin:round; stroke-width:2; stroke-opacity:0.1; fill:none" points="1974.82,910.936 1974.82,559.488 "/>
<polyline clip-path="url(#clip814)" style="stroke:#000000; stroke-linecap:round; stroke-linejoin:round; stroke-width:2; stroke-opacity:0.1; fill:none" points="2226.44,910.936 2226.44,559.488 "/>
<polyline clip-path="url(#clip814)" style="stroke:#000000; stroke-linecap:round; stroke-linejoin:round; stroke-width:2; stroke-opacity:0.1; fill:none" points="1445.91,843.364 2352.76,843.364 "/>
<polyline clip-path="url(#clip814)" style="stroke:#000000; stroke-linecap:round; stroke-linejoin:round; stroke-width:2; stroke-opacity:0.1; fill:none" points="1445.91,773.427 2352.76,773.427 "/>
<polyline clip-path="url(#clip814)" style="stroke:#000000; stroke-linecap:round; stroke-linejoin:round; stroke-width:2; stroke-opacity:0.1; fill:none" points="1445.91,703.489 2352.76,703.489 "/>
<polyline clip-path="url(#clip814)" style="stroke:#000000; stroke-linecap:round; stroke-linejoin:round; stroke-width:2; stroke-opacity:0.1; fill:none" points="1445.91,633.551 2352.76,633.551 "/>
<polyline clip-path="url(#clip814)" style="stroke:#000000; stroke-linecap:round; stroke-linejoin:round; stroke-width:2; stroke-opacity:0.1; fill:none" points="1445.91,563.614 2352.76,563.614 "/>
<polyline clip-path="url(#clip810)" style="stroke:#000000; stroke-linecap:round; stroke-linejoin:round; stroke-width:4; stroke-opacity:1; fill:none" points="1445.91,910.936 2352.76,910.936 "/>
<polyline clip-path="url(#clip810)" style="stroke:#000000; stroke-linecap:round; stroke-linejoin:round; stroke-width:4; stroke-opacity:1; fill:none" points="1471.57,910.936 1471.57,892.038 "/>
<polyline clip-path="url(#clip810)" style="stroke:#000000; stroke-linecap:round; stroke-linejoin:round; stroke-width:4; stroke-opacity:1; fill:none" points="1723.2,910.936 1723.2,892.038 "/>
<polyline clip-path="url(#clip810)" style="stroke:#000000; stroke-linecap:round; stroke-linejoin:round; stroke-width:4; stroke-opacity:1; fill:none" points="1974.82,910.936 1974.82,892.038 "/>
<polyline clip-path="url(#clip810)" style="stroke:#000000; stroke-linecap:round; stroke-linejoin:round; stroke-width:4; stroke-opacity:1; fill:none" points="2226.44,910.936 2226.44,892.038 "/>
<path clip-path="url(#clip810)" d="M1471.57 941.855 Q1467.96 941.855 1466.13 945.419 Q1464.33 948.961 1464.33 956.091 Q1464.33 963.197 1466.13 966.762 Q1467.96 970.303 1471.57 970.303 Q1475.21 970.303 1477.01 966.762 Q1478.84 963.197 1478.84 956.091 Q1478.84 948.961 1477.01 945.419 Q1475.21 941.855 1471.57 941.855 M1471.57 938.151 Q1477.38 938.151 1480.44 942.757 Q1483.52 947.341 1483.52 956.091 Q1483.52 964.817 1480.44 969.424 Q1477.38 974.007 1471.57 974.007 Q1465.76 974.007 1462.68 969.424 Q1459.63 964.817 1459.63 956.091 Q1459.63 947.341 1462.68 942.757 Q1465.76 938.151 1471.57 938.151 Z" fill="#000000" fill-rule="nonzero" fill-opacity="1" /><path clip-path="url(#clip810)" d="M1713.58 969.401 L1721.22 969.401 L1721.22 943.035 L1712.91 944.702 L1712.91 940.443 L1721.17 938.776 L1725.85 938.776 L1725.85 969.401 L1733.49 969.401 L1733.49 973.336 L1713.58 973.336 L1713.58 969.401 Z" fill="#000000" fill-rule="nonzero" fill-opacity="1" /><path clip-path="url(#clip810)" d="M1969.47 969.401 L1985.79 969.401 L1985.79 973.336 L1963.85 973.336 L1963.85 969.401 Q1966.51 966.646 1971.09 962.016 Q1975.7 957.364 1976.88 956.021 Q1979.12 953.498 1980 951.762 Q1980.91 950.003 1980.91 948.313 Q1980.91 945.558 1978.96 943.822 Q1977.04 942.086 1973.94 942.086 Q1971.74 942.086 1969.29 942.85 Q1966.86 943.614 1964.08 945.165 L1964.08 940.443 Q1966.9 939.308 1969.36 938.73 Q1971.81 938.151 1973.85 938.151 Q1979.22 938.151 1982.41 940.836 Q1985.61 943.521 1985.61 948.012 Q1985.61 950.142 1984.8 952.063 Q1984.01 953.961 1981.9 956.554 Q1981.32 957.225 1978.22 960.442 Q1975.12 963.637 1969.47 969.401 Z" fill="#000000" fill-rule="nonzero" fill-opacity="1" /><path clip-path="url(#clip810)" d="M2230.69 954.702 Q2234.05 955.419 2235.92 957.688 Q2237.82 959.956 2237.82 963.29 Q2237.82 968.405 2234.3 971.206 Q2230.78 974.007 2224.3 974.007 Q2222.12 974.007 2219.81 973.567 Q2217.52 973.151 2215.06 972.294 L2215.06 967.78 Q2217.01 968.915 2219.32 969.493 Q2221.64 970.072 2224.16 970.072 Q2228.56 970.072 2230.85 968.336 Q2233.17 966.6 2233.17 963.29 Q2233.17 960.234 2231.01 958.521 Q2228.88 956.785 2225.06 956.785 L2221.04 956.785 L2221.04 952.942 L2225.25 952.942 Q2228.7 952.942 2230.53 951.577 Q2232.36 950.188 2232.36 947.595 Q2232.36 944.933 2230.46 943.521 Q2228.58 942.086 2225.06 942.086 Q2223.14 942.086 2220.94 942.503 Q2218.74 942.919 2216.11 943.799 L2216.11 939.632 Q2218.77 938.892 2221.08 938.521 Q2223.42 938.151 2225.48 938.151 Q2230.8 938.151 2233.91 940.581 Q2237.01 942.989 2237.01 947.109 Q2237.01 949.979 2235.36 951.97 Q2233.72 953.938 2230.69 954.702 Z" fill="#000000" fill-rule="nonzero" fill-opacity="1" /><polyline clip-path="url(#clip810)" style="stroke:#000000; stroke-linecap:round; stroke-linejoin:round; stroke-width:4; stroke-opacity:1; fill:none" points="1445.91,910.936 1445.91,559.488 "/>
<polyline clip-path="url(#clip810)" style="stroke:#000000; stroke-linecap:round; stroke-linejoin:round; stroke-width:4; stroke-opacity:1; fill:none" points="1445.91,843.364 1464.81,843.364 "/>
<polyline clip-path="url(#clip810)" style="stroke:#000000; stroke-linecap:round; stroke-linejoin:round; stroke-width:4; stroke-opacity:1; fill:none" points="1445.91,773.427 1464.81,773.427 "/>
<polyline clip-path="url(#clip810)" style="stroke:#000000; stroke-linecap:round; stroke-linejoin:round; stroke-width:4; stroke-opacity:1; fill:none" points="1445.91,703.489 1464.81,703.489 "/>
<polyline clip-path="url(#clip810)" style="stroke:#000000; stroke-linecap:round; stroke-linejoin:round; stroke-width:4; stroke-opacity:1; fill:none" points="1445.91,633.551 1464.81,633.551 "/>
<polyline clip-path="url(#clip810)" style="stroke:#000000; stroke-linecap:round; stroke-linejoin:round; stroke-width:4; stroke-opacity:1; fill:none" points="1445.91,563.614 1464.81,563.614 "/>
<path clip-path="url(#clip810)" d="M1352.73 829.163 Q1349.12 829.163 1347.29 832.728 Q1345.49 836.27 1345.49 843.399 Q1345.49 850.506 1347.29 854.07 Q1349.12 857.612 1352.73 857.612 Q1356.37 857.612 1358.17 854.07 Q1360 850.506 1360 843.399 Q1360 836.27 1358.17 832.728 Q1356.37 829.163 1352.73 829.163 M1352.73 825.459 Q1358.54 825.459 1361.6 830.066 Q1364.68 834.649 1364.68 843.399 Q1364.68 852.126 1361.6 856.732 Q1358.54 861.316 1352.73 861.316 Q1346.92 861.316 1343.84 856.732 Q1340.79 852.126 1340.79 843.399 Q1340.79 834.649 1343.84 830.066 Q1346.92 825.459 1352.73 825.459 Z" fill="#000000" fill-rule="nonzero" fill-opacity="1" /><path clip-path="url(#clip810)" d="M1372.89 854.765 L1377.78 854.765 L1377.78 860.644 L1372.89 860.644 L1372.89 854.765 Z" fill="#000000" fill-rule="nonzero" fill-opacity="1" /><path clip-path="url(#clip810)" d="M1397.96 829.163 Q1394.35 829.163 1392.52 832.728 Q1390.72 836.27 1390.72 843.399 Q1390.72 850.506 1392.52 854.07 Q1394.35 857.612 1397.96 857.612 Q1401.6 857.612 1403.4 854.07 Q1405.23 850.506 1405.23 843.399 Q1405.23 836.27 1403.4 832.728 Q1401.6 829.163 1397.96 829.163 M1397.96 825.459 Q1403.77 825.459 1406.83 830.066 Q1409.91 834.649 1409.91 843.399 Q1409.91 852.126 1406.83 856.732 Q1403.77 861.316 1397.96 861.316 Q1392.15 861.316 1389.07 856.732 Q1386.02 852.126 1386.02 843.399 Q1386.02 834.649 1389.07 830.066 Q1392.15 825.459 1397.96 825.459 Z" fill="#000000" fill-rule="nonzero" fill-opacity="1" /><path clip-path="url(#clip810)" d="M1353.38 759.225 Q1349.77 759.225 1347.94 762.79 Q1346.13 766.332 1346.13 773.461 Q1346.13 780.568 1347.94 784.133 Q1349.77 787.674 1353.38 787.674 Q1357.01 787.674 1358.82 784.133 Q1360.65 780.568 1360.65 773.461 Q1360.65 766.332 1358.82 762.79 Q1357.01 759.225 1353.38 759.225 M1353.38 755.522 Q1359.19 755.522 1362.25 760.128 Q1365.32 764.712 1365.32 773.461 Q1365.32 782.188 1362.25 786.795 Q1359.19 791.378 1353.38 791.378 Q1347.57 791.378 1344.49 786.795 Q1341.44 782.188 1341.44 773.461 Q1341.44 764.712 1344.49 760.128 Q1347.57 755.522 1353.38 755.522 Z" fill="#000000" fill-rule="nonzero" fill-opacity="1" /><path clip-path="url(#clip810)" d="M1373.54 784.827 L1378.43 784.827 L1378.43 790.707 L1373.54 790.707 L1373.54 784.827 Z" fill="#000000" fill-rule="nonzero" fill-opacity="1" /><path clip-path="url(#clip810)" d="M1402.78 772.073 Q1406.13 772.79 1408.01 775.059 Q1409.91 777.327 1409.91 780.661 Q1409.91 785.776 1406.39 788.577 Q1402.87 791.378 1396.39 791.378 Q1394.21 791.378 1391.9 790.938 Q1389.61 790.522 1387.15 789.665 L1387.15 785.151 Q1389.1 786.285 1391.41 786.864 Q1393.73 787.443 1396.25 787.443 Q1400.65 787.443 1402.94 785.707 Q1405.26 783.971 1405.26 780.661 Q1405.26 777.605 1403.1 775.892 Q1400.97 774.156 1397.15 774.156 L1393.13 774.156 L1393.13 770.313 L1397.34 770.313 Q1400.79 770.313 1402.62 768.948 Q1404.44 767.559 1404.44 764.966 Q1404.44 762.304 1402.55 760.892 Q1400.67 759.457 1397.15 759.457 Q1395.23 759.457 1393.03 759.874 Q1390.83 760.29 1388.19 761.17 L1388.19 757.003 Q1390.86 756.263 1393.17 755.892 Q1395.51 755.522 1397.57 755.522 Q1402.89 755.522 1406 757.952 Q1409.1 760.36 1409.1 764.48 Q1409.1 767.35 1407.45 769.341 Q1405.81 771.309 1402.78 772.073 Z" fill="#000000" fill-rule="nonzero" fill-opacity="1" /><path clip-path="url(#clip810)" d="M1352.57 689.288 Q1348.96 689.288 1347.13 692.853 Q1345.32 696.394 1345.32 703.524 Q1345.32 710.63 1347.13 714.195 Q1348.96 717.737 1352.57 717.737 Q1356.2 717.737 1358.01 714.195 Q1359.84 710.63 1359.84 703.524 Q1359.84 696.394 1358.01 692.853 Q1356.2 689.288 1352.57 689.288 M1352.57 685.584 Q1358.38 685.584 1361.44 690.191 Q1364.51 694.774 1364.51 703.524 Q1364.51 712.251 1361.44 716.857 Q1358.38 721.44 1352.57 721.44 Q1346.76 721.44 1343.68 716.857 Q1340.63 712.251 1340.63 703.524 Q1340.63 694.774 1343.68 690.191 Q1346.76 685.584 1352.57 685.584 Z" fill="#000000" fill-rule="nonzero" fill-opacity="1" /><path clip-path="url(#clip810)" d="M1372.73 714.889 L1377.62 714.889 L1377.62 720.769 L1372.73 720.769 L1372.73 714.889 Z" fill="#000000" fill-rule="nonzero" fill-opacity="1" /><path clip-path="url(#clip810)" d="M1398.38 701.626 Q1395.23 701.626 1393.38 703.778 Q1391.55 705.931 1391.55 709.681 Q1391.55 713.408 1393.38 715.584 Q1395.23 717.737 1398.38 717.737 Q1401.53 717.737 1403.36 715.584 Q1405.21 713.408 1405.21 709.681 Q1405.21 705.931 1403.36 703.778 Q1401.53 701.626 1398.38 701.626 M1407.66 686.973 L1407.66 691.232 Q1405.9 690.399 1404.1 689.959 Q1402.32 689.519 1400.56 689.519 Q1395.93 689.519 1393.47 692.644 Q1391.04 695.769 1390.69 702.089 Q1392.06 700.075 1394.12 699.01 Q1396.18 697.922 1398.66 697.922 Q1403.87 697.922 1406.88 701.093 Q1409.91 704.241 1409.91 709.681 Q1409.91 715.005 1406.76 718.223 Q1403.61 721.44 1398.38 721.44 Q1392.38 721.44 1389.21 716.857 Q1386.04 712.251 1386.04 703.524 Q1386.04 695.329 1389.93 690.468 Q1393.82 685.584 1400.37 685.584 Q1402.13 685.584 1403.91 685.931 Q1405.72 686.279 1407.66 686.973 Z" fill="#000000" fill-rule="nonzero" fill-opacity="1" /><path clip-path="url(#clip810)" d="M1352.92 619.35 Q1349.31 619.35 1347.48 622.915 Q1345.67 626.456 1345.67 633.586 Q1345.67 640.693 1347.48 644.257 Q1349.31 647.799 1352.92 647.799 Q1356.55 647.799 1358.36 644.257 Q1360.19 640.693 1360.19 633.586 Q1360.19 626.456 1358.36 622.915 Q1356.55 619.35 1352.92 619.35 M1352.92 615.646 Q1358.73 615.646 1361.78 620.253 Q1364.86 624.836 1364.86 633.586 Q1364.86 642.313 1361.78 646.919 Q1358.73 651.503 1352.92 651.503 Q1347.11 651.503 1344.03 646.919 Q1340.97 642.313 1340.97 633.586 Q1340.97 624.836 1344.03 620.253 Q1347.11 615.646 1352.92 615.646 Z" fill="#000000" fill-rule="nonzero" fill-opacity="1" /><path clip-path="url(#clip810)" d="M1373.08 644.952 L1377.96 644.952 L1377.96 650.831 L1373.08 650.831 L1373.08 644.952 Z" fill="#000000" fill-rule="nonzero" fill-opacity="1" /><path clip-path="url(#clip810)" d="M1388.29 650.114 L1388.29 645.855 Q1390.05 646.688 1391.85 647.128 Q1393.66 647.567 1395.39 647.567 Q1400.02 647.567 1402.45 644.466 Q1404.91 641.341 1405.26 634.998 Q1403.91 636.989 1401.85 638.054 Q1399.79 639.118 1397.29 639.118 Q1392.11 639.118 1389.07 635.993 Q1386.07 632.845 1386.07 627.406 Q1386.07 622.082 1389.21 618.864 Q1392.36 615.646 1397.59 615.646 Q1403.59 615.646 1406.74 620.253 Q1409.91 624.836 1409.91 633.586 Q1409.91 641.757 1406.02 646.642 Q1402.15 651.503 1395.6 651.503 Q1393.84 651.503 1392.04 651.155 Q1390.23 650.808 1388.29 650.114 M1397.59 635.461 Q1400.74 635.461 1402.57 633.308 Q1404.42 631.156 1404.42 627.406 Q1404.42 623.679 1402.57 621.526 Q1400.74 619.35 1397.59 619.35 Q1394.44 619.35 1392.59 621.526 Q1390.76 623.679 1390.76 627.406 Q1390.76 631.156 1392.59 633.308 Q1394.44 635.461 1397.59 635.461 Z" fill="#000000" fill-rule="nonzero" fill-opacity="1" /><path clip-path="url(#clip810)" d="M1345.14 576.958 L1352.78 576.958 L1352.78 550.593 L1344.47 552.26 L1344.47 548 L1352.73 546.334 L1357.41 546.334 L1357.41 576.958 L1365.05 576.958 L1365.05 580.894 L1345.14 580.894 L1345.14 576.958 Z" fill="#000000" fill-rule="nonzero" fill-opacity="1" /><path clip-path="url(#clip810)" d="M1374.49 575.014 L1379.38 575.014 L1379.38 580.894 L1374.49 580.894 L1374.49 575.014 Z" fill="#000000" fill-rule="nonzero" fill-opacity="1" /><path clip-path="url(#clip810)" d="M1393.59 576.958 L1409.91 576.958 L1409.91 580.894 L1387.96 580.894 L1387.96 576.958 Q1390.63 574.204 1395.21 569.574 Q1399.82 564.922 1401 563.579 Q1403.24 561.056 1404.12 559.32 Q1405.02 557.56 1405.02 555.871 Q1405.02 553.116 1403.08 551.38 Q1401.16 549.644 1398.06 549.644 Q1395.86 549.644 1393.4 550.408 Q1390.97 551.172 1388.19 552.723 L1388.19 548 Q1391.02 546.866 1393.47 546.287 Q1395.93 545.709 1397.96 545.709 Q1403.33 545.709 1406.53 548.394 Q1409.72 551.079 1409.72 555.57 Q1409.72 557.699 1408.91 559.621 Q1408.13 561.519 1406.02 564.111 Q1405.44 564.783 1402.34 568 Q1399.24 571.195 1393.59 576.958 Z" fill="#000000" fill-rule="nonzero" fill-opacity="1" /><path clip-path="url(#clip810)" d="M1265.64 831.559 Q1268.64 831.559 1274.44 833.072 Q1276.95 833.684 1279.23 834.522 Q1281.49 835.327 1283.68 836.518 Q1285.87 837.71 1287.45 839.095 Q1288.99 840.48 1289.96 842.283 Q1290.92 844.087 1290.92 846.084 Q1290.92 849.24 1289.06 851.108 Q1287.16 852.943 1283.9 853.523 Q1290.92 857.839 1290.92 863.604 Q1290.92 867.178 1288.38 868.853 Q1285.8 870.528 1281.49 870.528 Q1277.85 870.528 1274.08 869.562 Q1266.93 867.726 1261.94 864.151 Q1261.36 863.668 1261.36 862.959 Q1261.36 862.541 1261.49 862.347 Q1261.84 861.768 1262.42 861.768 Q1262.84 861.768 1263.26 862.09 Q1266.38 864.344 1269.06 865.826 Q1271.73 867.307 1274.44 867.984 Q1276.75 868.499 1278.72 868.499 Q1282.04 868.499 1284.1 867.082 Q1286.16 865.632 1286.16 862.766 Q1286.16 860.125 1284.52 857.806 Q1282.84 855.488 1280.04 853.781 Q1276.98 853.684 1274.08 852.943 Q1270.99 852.267 1270.99 850.689 Q1270.99 849.433 1272.7 849.433 Q1273.28 849.433 1274.44 849.691 Q1277.49 850.399 1280.23 851.687 Q1282.91 851.236 1284.55 849.562 Q1286.16 847.887 1286.16 845.214 Q1286.16 842.734 1284.35 840.544 Q1282.55 838.322 1279.91 836.905 Q1277.24 835.456 1274.08 834.65 Q1273.02 834.393 1271.67 834.393 Q1268.06 834.393 1265.84 836.905 Q1265.13 837.613 1264.19 837.613 Q1263.1 837.613 1262.1 836.712 Q1261.04 835.649 1261.04 834.393 Q1261.04 833.459 1261.62 832.879 Q1262.78 831.559 1265.64 831.559 Z" fill="#000000" fill-rule="nonzero" fill-opacity="1" /><path clip-path="url(#clip810)" d="M1240.72 788.989 Q1248.04 793.255 1255.2 795.323 Q1262.37 797.392 1269.72 797.392 Q1277.07 797.392 1284.3 795.323 Q1291.49 793.223 1298.78 788.989 L1298.78 794.082 Q1291.3 798.856 1284.07 801.243 Q1276.85 803.599 1269.72 803.599 Q1262.62 803.599 1255.43 801.243 Q1248.23 798.888 1240.72 794.082 L1240.72 788.989 Z" fill="#000000" fill-rule="nonzero" fill-opacity="1" /><path clip-path="url(#clip810)" d="M1260.01 756.97 Q1259.44 757.957 1259.18 759.134 Q1258.9 760.28 1258.9 761.681 Q1258.9 766.646 1262.14 769.319 Q1265.36 771.961 1271.41 771.961 L1290.18 771.961 L1290.18 777.85 L1254.54 777.85 L1254.54 771.961 L1260.07 771.961 Q1256.83 770.115 1255.27 767.155 Q1253.68 764.195 1253.68 759.962 Q1253.68 759.357 1253.77 758.625 Q1253.84 757.893 1254 757.002 L1260.01 756.97 Z" fill="#000000" fill-rule="nonzero" fill-opacity="1" /><path clip-path="url(#clip810)" d="M1272.26 734.626 Q1272.26 741.724 1273.89 744.461 Q1275.51 747.199 1279.43 747.199 Q1282.55 747.199 1284.39 745.162 Q1286.21 743.093 1286.21 739.56 Q1286.21 734.69 1282.77 731.762 Q1279.3 728.802 1273.57 728.802 L1272.26 728.802 L1272.26 734.626 M1269.85 722.945 L1290.18 722.945 L1290.18 728.802 L1284.77 728.802 Q1288.02 730.807 1289.58 733.799 Q1291.11 736.791 1291.11 741.119 Q1291.11 746.594 1288.05 749.84 Q1284.96 753.055 1279.81 753.055 Q1273.79 753.055 1270.74 749.045 Q1267.68 745.002 1267.68 737.013 L1267.68 728.802 L1267.11 728.802 Q1263.07 728.802 1260.87 731.475 Q1258.64 734.117 1258.64 738.923 Q1258.64 741.979 1259.37 744.875 Q1260.11 747.772 1261.57 750.445 L1256.16 750.445 Q1254.92 747.23 1254.31 744.207 Q1253.68 741.183 1253.68 738.318 Q1253.68 730.584 1257.69 726.765 Q1261.7 722.945 1269.85 722.945 Z" fill="#000000" fill-rule="nonzero" fill-opacity="1" /><path clip-path="url(#clip810)" d="M1259.95 687.425 L1240.66 687.425 L1240.66 681.568 L1290.18 681.568 L1290.18 687.425 L1284.84 687.425 Q1288.02 689.271 1289.58 692.103 Q1291.11 694.904 1291.11 698.851 Q1291.11 705.312 1285.95 709.386 Q1280.79 713.429 1272.39 713.429 Q1263.99 713.429 1258.83 709.386 Q1253.68 705.312 1253.68 698.851 Q1253.68 694.904 1255.24 692.103 Q1256.76 689.271 1259.95 687.425 M1272.39 707.381 Q1278.85 707.381 1282.55 704.739 Q1286.21 702.066 1286.21 697.419 Q1286.21 692.772 1282.55 690.098 Q1278.85 687.425 1272.39 687.425 Q1265.93 687.425 1262.27 690.098 Q1258.58 692.772 1258.58 697.419 Q1258.58 702.066 1262.27 704.739 Q1265.93 707.381 1272.39 707.381 Z" fill="#000000" fill-rule="nonzero" fill-opacity="1" /><path clip-path="url(#clip810)" d="M1242.66 659.097 L1242.66 653.686 L1296.23 670.237 L1296.23 675.648 L1242.66 659.097 Z" fill="#000000" fill-rule="nonzero" fill-opacity="1" /><path clip-path="url(#clip810)" d="M1255.59 624.818 L1261.12 624.818 Q1259.85 627.301 1259.21 629.974 Q1258.58 632.648 1258.58 635.512 Q1258.58 639.873 1259.92 642.069 Q1261.25 644.233 1263.93 644.233 Q1265.96 644.233 1267.14 642.674 Q1268.29 641.114 1269.34 636.404 L1269.78 634.398 Q1271.12 628.16 1273.57 625.55 Q1275.99 622.908 1280.35 622.908 Q1285.31 622.908 1288.21 626.855 Q1291.11 630.77 1291.11 637.645 Q1291.11 640.509 1290.53 643.629 Q1289.99 646.716 1288.88 650.153 L1282.83 650.153 Q1284.52 646.907 1285.38 643.756 Q1286.21 640.605 1286.21 637.517 Q1286.21 633.38 1284.81 631.152 Q1283.37 628.924 1280.79 628.924 Q1278.41 628.924 1277.13 630.547 Q1275.86 632.138 1274.68 637.581 L1274.21 639.618 Q1273.06 645.061 1270.71 647.48 Q1268.32 649.899 1264.18 649.899 Q1259.15 649.899 1256.41 646.334 Q1253.68 642.769 1253.68 636.213 Q1253.68 632.966 1254.15 630.101 Q1254.63 627.237 1255.59 624.818 Z" fill="#000000" fill-rule="nonzero" fill-opacity="1" /><path clip-path="url(#clip810)" d="M1240.72 614.505 L1240.72 609.413 Q1248.23 604.639 1255.43 602.283 Q1262.62 599.896 1269.72 599.896 Q1276.85 599.896 1284.07 602.283 Q1291.3 604.639 1298.78 609.413 L1298.78 614.505 Q1291.49 610.272 1284.3 608.203 Q1277.07 606.103 1269.72 606.103 Q1262.37 606.103 1255.2 608.203 Q1248.04 610.272 1240.72 614.505 Z" fill="#000000" fill-rule="nonzero" fill-opacity="1" /><polyline clip-path="url(#clip814)" style="stroke:#009af9; stroke-linecap:round; stroke-linejoin:round; stroke-width:4; stroke-opacity:1; fill:none" points="1471.57,843.364 1496.74,659.817 1521.9,583.053 1547.06,585.087 1572.22,633.525 1597.38,700.138 1622.55,765.218 1647.71,817.865 1672.87,854.052 1698.03,874.23 1723.2,881.321 1748.36,879.242 1773.52,871.903 1798.68,862.584 1823.85,853.637 1849.01,846.444 1874.17,841.551 1899.33,838.893 1924.49,838.05 1949.66,838.452 1974.82,839.538 1999.98,840.854 2025.14,842.082 2050.31,843.047 2075.47,843.687 2100.63,844.02 2125.79,844.11 2150.95,844.036 2176.12,843.877 2201.28,843.692 2226.44,843.524 2251.6,843.395 2276.77,843.311 2301.93,843.269 2327.09,843.26 "/>
<polyline clip-path="url(#clip814)" style="stroke:#e26f46; stroke-linecap:round; stroke-linejoin:round; stroke-width:3; stroke-opacity:1; fill:none" stroke-dasharray="12, 6, 2, 6" points="1471.57,843.364 1496.74,638.325 1521.9,569.435 1547.06,582.336 1572.22,631.094 1597.38,695.215 1622.55,767.108 1647.71,837.076 1672.87,876.842 1698.03,869.861 1723.2,889.418 1748.36,900.989 1773.52,890.25 1798.68,856.615 1823.85,853.103 1849.01,861.234 1874.17,847.745 1899.33,841.247 1924.49,845.867 1949.66,814.528 1974.82,842.532 1999.98,849.111 2025.14,849.129 2050.31,836.014 2075.47,838.776 2100.63,839.143 2125.79,847.582 2150.95,846.896 2176.12,850.623 2201.28,846.882 2226.44,839.061 2251.6,839.256 2276.77,840.343 2301.93,849.652 2327.09,848.59 "/>
<path clip-path="url(#clip810)" d="M2203.01 726.723 L2322.53 726.723 L2322.53 571.203 L2203.01 571.203  Z" fill="#ffffff" fill-rule="evenodd" fill-opacity="1"/>
<polyline clip-path="url(#clip810)" style="stroke:#000000; stroke-linecap:round; stroke-linejoin:round; stroke-width:4; stroke-opacity:1; fill:none" points="2203.01,726.723 2322.53,726.723 2322.53,571.203 2203.01,571.203 2203.01,726.723 "/>
<polyline clip-path="url(#clip810)" style="stroke:#009af9; stroke-linecap:round; stroke-linejoin:round; stroke-width:4; stroke-opacity:1; fill:none" points="2213.09,623.043 2273.55,623.043 "/>
<path clip-path="url(#clip810)" d="M2310.63 633.582 L2305.36 633.442 L2299.6 633.582 L2299.6 631.334 L2301.47 631.334 L2296.2 625.103 L2291.54 630.326 L2291.21 630.795 Q2291.21 631.006 2291.75 631.17 Q2292.31 631.334 2292.97 631.334 L2292.97 633.582 L2288.03 633.442 L2283.62 633.582 L2283.62 631.334 Q2285.1 631.334 2285.78 631.31 Q2286.48 631.263 2287.28 631.052 Q2288.07 630.842 2288.47 630.42 L2294.75 623.37 L2287.28 614.54 L2283.86 614.54 L2283.86 612.291 L2289.15 612.432 L2294.94 612.291 L2294.94 614.54 L2293.01 614.54 L2297.72 620.044 L2301.75 615.547 Q2301.77 615.523 2302.15 614.961 Q2301.4 614.54 2300.32 614.54 L2300.32 612.291 L2305.26 612.432 L2309.67 612.291 L2309.67 614.54 Q2307.75 614.54 2306.74 614.68 Q2305.76 614.797 2305.45 614.961 Q2305.17 615.125 2304.77 615.547 L2299.17 621.777 L2307.23 631.334 L2310.63 631.334 L2310.63 633.582 Z" fill="#000000" fill-rule="nonzero" fill-opacity="1" /><polyline clip-path="url(#clip810)" style="stroke:#e26f46; stroke-linecap:round; stroke-linejoin:round; stroke-width:3; stroke-opacity:1; fill:none" stroke-dasharray="12, 6, 2, 6" points="2213.09,674.883 2273.55,674.883 "/>
<path clip-path="url(#clip810)" d="M2306.21 663.361 L2305.8 664.033 Q2303.26 662.935 2300.09 661.18 Q2296.93 662.935 2294.39 664.033 L2293.99 663.361 Q2296.76 660.951 2300.09 659.098 Q2303.45 660.967 2306.21 663.361 Z" fill="#000000" fill-rule="nonzero" fill-opacity="1" /><path clip-path="url(#clip810)" d="M2310.63 690.427 L2305.36 690.286 L2299.6 690.427 L2299.6 688.178 L2301.47 688.178 L2296.2 681.948 L2291.54 687.171 L2291.21 687.639 Q2291.21 687.85 2291.75 688.014 Q2292.31 688.178 2292.97 688.178 L2292.97 690.427 L2288.03 690.286 L2283.62 690.427 L2283.62 688.178 Q2285.1 688.178 2285.78 688.155 Q2286.48 688.108 2287.28 687.897 Q2288.07 687.686 2288.47 687.265 L2294.75 680.214 L2287.28 671.384 L2283.86 671.384 L2283.86 669.136 L2289.15 669.276 L2294.94 669.136 L2294.94 671.384 L2293.01 671.384 L2297.72 676.888 L2301.75 672.391 Q2301.77 672.368 2302.15 671.806 Q2301.4 671.384 2300.32 671.384 L2300.32 669.136 L2305.26 669.276 L2309.67 669.136 L2309.67 671.384 Q2307.75 671.384 2306.74 671.525 Q2305.76 671.642 2305.45 671.806 Q2305.17 671.97 2304.77 672.391 L2299.17 678.622 L2307.23 688.178 L2310.63 688.178 L2310.63 690.427 Z" fill="#000000" fill-rule="nonzero" fill-opacity="1" /><path clip-path="url(#clip810)" d="M1445.91 1423.18 L2352.76 1423.18 L2352.76 1071.73 L1445.91 1071.73  Z" fill="#ffffff" fill-rule="evenodd" fill-opacity="1"/>
<defs>
  <clipPath id="clip815">
    <rect x="1445" y="1071" width="908" height="352"/>
  </clipPath>
</defs>
<polyline clip-path="url(#clip815)" style="stroke:#000000; stroke-linecap:round; stroke-linejoin:round; stroke-width:2; stroke-opacity:0.1; fill:none" points="1471.57,1423.18 1471.57,1071.73 "/>
<polyline clip-path="url(#clip815)" style="stroke:#000000; stroke-linecap:round; stroke-linejoin:round; stroke-width:2; stroke-opacity:0.1; fill:none" points="1723.2,1423.18 1723.2,1071.73 "/>
<polyline clip-path="url(#clip815)" style="stroke:#000000; stroke-linecap:round; stroke-linejoin:round; stroke-width:2; stroke-opacity:0.1; fill:none" points="1974.82,1423.18 1974.82,1071.73 "/>
<polyline clip-path="url(#clip815)" style="stroke:#000000; stroke-linecap:round; stroke-linejoin:round; stroke-width:2; stroke-opacity:0.1; fill:none" points="2226.44,1423.18 2226.44,1071.73 "/>
<polyline clip-path="url(#clip815)" style="stroke:#000000; stroke-linecap:round; stroke-linejoin:round; stroke-width:2; stroke-opacity:0.1; fill:none" points="1445.91,1407.82 2352.76,1407.82 "/>
<polyline clip-path="url(#clip815)" style="stroke:#000000; stroke-linecap:round; stroke-linejoin:round; stroke-width:2; stroke-opacity:0.1; fill:none" points="1445.91,1318.89 2352.76,1318.89 "/>
<polyline clip-path="url(#clip815)" style="stroke:#000000; stroke-linecap:round; stroke-linejoin:round; stroke-width:2; stroke-opacity:0.1; fill:none" points="1445.91,1229.96 2352.76,1229.96 "/>
<polyline clip-path="url(#clip815)" style="stroke:#000000; stroke-linecap:round; stroke-linejoin:round; stroke-width:2; stroke-opacity:0.1; fill:none" points="1445.91,1141.04 2352.76,1141.04 "/>
<polyline clip-path="url(#clip810)" style="stroke:#000000; stroke-linecap:round; stroke-linejoin:round; stroke-width:4; stroke-opacity:1; fill:none" points="1445.91,1423.18 2352.76,1423.18 "/>
<polyline clip-path="url(#clip810)" style="stroke:#000000; stroke-linecap:round; stroke-linejoin:round; stroke-width:4; stroke-opacity:1; fill:none" points="1471.57,1423.18 1471.57,1404.28 "/>
<polyline clip-path="url(#clip810)" style="stroke:#000000; stroke-linecap:round; stroke-linejoin:round; stroke-width:4; stroke-opacity:1; fill:none" points="1723.2,1423.18 1723.2,1404.28 "/>
<polyline clip-path="url(#clip810)" style="stroke:#000000; stroke-linecap:round; stroke-linejoin:round; stroke-width:4; stroke-opacity:1; fill:none" points="1974.82,1423.18 1974.82,1404.28 "/>
<polyline clip-path="url(#clip810)" style="stroke:#000000; stroke-linecap:round; stroke-linejoin:round; stroke-width:4; stroke-opacity:1; fill:none" points="2226.44,1423.18 2226.44,1404.28 "/>
<path clip-path="url(#clip810)" d="M1471.57 1454.1 Q1467.96 1454.1 1466.13 1457.66 Q1464.33 1461.2 1464.33 1468.33 Q1464.33 1475.44 1466.13 1479.01 Q1467.96 1482.55 1471.57 1482.55 Q1475.21 1482.55 1477.01 1479.01 Q1478.84 1475.44 1478.84 1468.33 Q1478.84 1461.2 1477.01 1457.66 Q1475.21 1454.1 1471.57 1454.1 M1471.57 1450.39 Q1477.38 1450.39 1480.44 1455 Q1483.52 1459.58 1483.52 1468.33 Q1483.52 1477.06 1480.44 1481.67 Q1477.38 1486.25 1471.57 1486.25 Q1465.76 1486.25 1462.68 1481.67 Q1459.63 1477.06 1459.63 1468.33 Q1459.63 1459.58 1462.68 1455 Q1465.76 1450.39 1471.57 1450.39 Z" fill="#000000" fill-rule="nonzero" fill-opacity="1" /><path clip-path="url(#clip810)" d="M1713.58 1481.64 L1721.22 1481.64 L1721.22 1455.28 L1712.91 1456.95 L1712.91 1452.69 L1721.17 1451.02 L1725.85 1451.02 L1725.85 1481.64 L1733.49 1481.64 L1733.49 1485.58 L1713.58 1485.58 L1713.58 1481.64 Z" fill="#000000" fill-rule="nonzero" fill-opacity="1" /><path clip-path="url(#clip810)" d="M1969.47 1481.64 L1985.79 1481.64 L1985.79 1485.58 L1963.85 1485.58 L1963.85 1481.64 Q1966.51 1478.89 1971.09 1474.26 Q1975.7 1469.61 1976.88 1468.27 Q1979.12 1465.74 1980 1464.01 Q1980.91 1462.25 1980.91 1460.56 Q1980.91 1457.8 1978.96 1456.07 Q1977.04 1454.33 1973.94 1454.33 Q1971.74 1454.33 1969.29 1455.09 Q1966.86 1455.86 1964.08 1457.41 L1964.08 1452.69 Q1966.9 1451.55 1969.36 1450.97 Q1971.81 1450.39 1973.85 1450.39 Q1979.22 1450.39 1982.41 1453.08 Q1985.61 1455.77 1985.61 1460.26 Q1985.61 1462.39 1984.8 1464.31 Q1984.01 1466.2 1981.9 1468.8 Q1981.32 1469.47 1978.22 1472.69 Q1975.12 1475.88 1969.47 1481.64 Z" fill="#000000" fill-rule="nonzero" fill-opacity="1" /><path clip-path="url(#clip810)" d="M2230.69 1466.95 Q2234.05 1467.66 2235.92 1469.93 Q2237.82 1472.2 2237.82 1475.53 Q2237.82 1480.65 2234.3 1483.45 Q2230.78 1486.25 2224.3 1486.25 Q2222.12 1486.25 2219.81 1485.81 Q2217.52 1485.39 2215.06 1484.54 L2215.06 1480.02 Q2217.01 1481.16 2219.32 1481.74 Q2221.64 1482.32 2224.16 1482.32 Q2228.56 1482.32 2230.85 1480.58 Q2233.17 1478.84 2233.17 1475.53 Q2233.17 1472.48 2231.01 1470.77 Q2228.88 1469.03 2225.06 1469.03 L2221.04 1469.03 L2221.04 1465.19 L2225.25 1465.19 Q2228.7 1465.19 2230.53 1463.82 Q2232.36 1462.43 2232.36 1459.84 Q2232.36 1457.18 2230.46 1455.77 Q2228.58 1454.33 2225.06 1454.33 Q2223.14 1454.33 2220.94 1454.75 Q2218.74 1455.16 2216.11 1456.04 L2216.11 1451.88 Q2218.77 1451.14 2221.08 1450.77 Q2223.42 1450.39 2225.48 1450.39 Q2230.8 1450.39 2233.91 1452.83 Q2237.01 1455.23 2237.01 1459.35 Q2237.01 1462.22 2235.36 1464.21 Q2233.72 1466.18 2230.69 1466.95 Z" fill="#000000" fill-rule="nonzero" fill-opacity="1" /><path clip-path="url(#clip810)" d="M1769.5 1520.52 L1809.7 1520.52 L1809.7 1525.93 L1792.83 1525.93 L1792.83 1568.04 L1786.37 1568.04 L1786.37 1525.93 L1769.5 1525.93 L1769.5 1520.52 Z" fill="#000000" fill-rule="nonzero" fill-opacity="1" /><path clip-path="url(#clip810)" d="M1813.65 1532.4 L1819.51 1532.4 L1819.51 1568.04 L1813.65 1568.04 L1813.65 1532.4 M1813.65 1518.52 L1819.51 1518.52 L1819.51 1525.93 L1813.65 1525.93 L1813.65 1518.52 Z" fill="#000000" fill-rule="nonzero" fill-opacity="1" /><path clip-path="url(#clip810)" d="M1859.51 1539.24 Q1861.71 1535.29 1864.77 1533.41 Q1867.82 1531.54 1871.96 1531.54 Q1877.53 1531.54 1880.55 1535.45 Q1883.58 1539.33 1883.58 1546.53 L1883.58 1568.04 L1877.69 1568.04 L1877.69 1546.72 Q1877.69 1541.59 1875.87 1539.11 Q1874.06 1536.63 1870.34 1536.63 Q1865.78 1536.63 1863.14 1539.65 Q1860.5 1542.68 1860.5 1547.9 L1860.5 1568.04 L1854.61 1568.04 L1854.61 1546.72 Q1854.61 1541.56 1852.8 1539.11 Q1850.98 1536.63 1847.2 1536.63 Q1842.71 1536.63 1840.07 1539.68 Q1837.43 1542.71 1837.43 1547.9 L1837.43 1568.04 L1831.54 1568.04 L1831.54 1532.4 L1837.43 1532.4 L1837.43 1537.93 Q1839.43 1534.66 1842.23 1533.1 Q1845.03 1531.54 1848.88 1531.54 Q1852.77 1531.54 1855.47 1533.51 Q1858.21 1535.48 1859.51 1539.24 Z" fill="#000000" fill-rule="nonzero" fill-opacity="1" /><path clip-path="url(#clip810)" d="M1925.75 1548.76 L1925.75 1551.62 L1898.82 1551.62 Q1899.2 1557.67 1902.45 1560.85 Q1905.73 1564 1911.55 1564 Q1914.93 1564 1918.08 1563.17 Q1921.26 1562.35 1924.38 1560.69 L1924.38 1566.23 Q1921.23 1567.57 1917.92 1568.27 Q1914.61 1568.97 1911.2 1568.97 Q1902.67 1568.97 1897.68 1564 Q1892.71 1559.04 1892.71 1550.57 Q1892.71 1541.82 1897.42 1536.69 Q1902.16 1531.54 1910.19 1531.54 Q1917.38 1531.54 1921.55 1536.18 Q1925.75 1540.8 1925.75 1548.76 M1919.89 1547.04 Q1919.83 1542.23 1917.19 1539.37 Q1914.58 1536.5 1910.25 1536.5 Q1905.35 1536.5 1902.39 1539.27 Q1899.46 1542.04 1899.01 1547.07 L1919.89 1547.04 Z" fill="#000000" fill-rule="nonzero" fill-opacity="1" /><path clip-path="url(#clip810)" d="M1970.15 1518.58 Q1965.89 1525.9 1963.82 1533.06 Q1961.75 1540.23 1961.75 1547.58 Q1961.75 1554.93 1963.82 1562.16 Q1965.92 1569.35 1970.15 1576.64 L1965.06 1576.64 Q1960.28 1569.16 1957.9 1561.93 Q1955.54 1554.71 1955.54 1547.58 Q1955.54 1540.48 1957.9 1533.29 Q1960.25 1526.09 1965.06 1518.58 L1970.15 1518.58 Z" fill="#000000" fill-rule="nonzero" fill-opacity="1" /><path clip-path="url(#clip810)" d="M2004.24 1533.45 L2004.24 1538.98 Q2001.76 1537.71 1999.08 1537.07 Q1996.41 1536.44 1993.54 1536.44 Q1989.18 1536.44 1986.99 1537.77 Q1984.82 1539.11 1984.82 1541.79 Q1984.82 1543.82 1986.38 1545 Q1987.94 1546.15 1992.65 1547.2 L1994.66 1547.64 Q2000.9 1548.98 2003.51 1551.43 Q2006.15 1553.85 2006.15 1558.21 Q2006.15 1563.17 2002.2 1566.07 Q1998.29 1568.97 1991.41 1568.97 Q1988.55 1568.97 1985.43 1568.39 Q1982.34 1567.85 1978.9 1566.74 L1978.9 1560.69 Q1982.15 1562.38 1985.3 1563.24 Q1988.45 1564.07 1991.54 1564.07 Q1995.68 1564.07 1997.9 1562.66 Q2000.13 1561.23 2000.13 1558.65 Q2000.13 1556.27 1998.51 1554.99 Q1996.92 1553.72 1991.48 1552.54 L1989.44 1552.07 Q1984 1550.92 1981.58 1548.56 Q1979.16 1546.18 1979.16 1542.04 Q1979.16 1537.01 1982.72 1534.27 Q1986.29 1531.54 1992.84 1531.54 Q1996.09 1531.54 1998.96 1532.01 Q2001.82 1532.49 2004.24 1533.45 Z" fill="#000000" fill-rule="nonzero" fill-opacity="1" /><path clip-path="url(#clip810)" d="M2014.55 1518.58 L2019.64 1518.58 Q2024.42 1526.09 2026.77 1533.29 Q2029.16 1540.48 2029.16 1547.58 Q2029.16 1554.71 2026.77 1561.93 Q2024.42 1569.16 2019.64 1576.64 L2014.55 1576.64 Q2018.78 1569.35 2020.85 1562.16 Q2022.95 1554.93 2022.95 1547.58 Q2022.95 1540.23 2020.85 1533.06 Q2018.78 1525.9 2014.55 1518.58 Z" fill="#000000" fill-rule="nonzero" fill-opacity="1" /><polyline clip-path="url(#clip810)" style="stroke:#000000; stroke-linecap:round; stroke-linejoin:round; stroke-width:4; stroke-opacity:1; fill:none" points="1445.91,1423.18 1445.91,1071.73 "/>
<polyline clip-path="url(#clip810)" style="stroke:#000000; stroke-linecap:round; stroke-linejoin:round; stroke-width:4; stroke-opacity:1; fill:none" points="1445.91,1407.82 1464.81,1407.82 "/>
<polyline clip-path="url(#clip810)" style="stroke:#000000; stroke-linecap:round; stroke-linejoin:round; stroke-width:4; stroke-opacity:1; fill:none" points="1445.91,1318.89 1464.81,1318.89 "/>
<polyline clip-path="url(#clip810)" style="stroke:#000000; stroke-linecap:round; stroke-linejoin:round; stroke-width:4; stroke-opacity:1; fill:none" points="1445.91,1229.96 1464.81,1229.96 "/>
<polyline clip-path="url(#clip810)" style="stroke:#000000; stroke-linecap:round; stroke-linejoin:round; stroke-width:4; stroke-opacity:1; fill:none" points="1445.91,1141.04 1464.81,1141.04 "/>
<path clip-path="url(#clip810)" d="M1272.32 1408.27 L1301.99 1408.27 L1301.99 1412.2 L1272.32 1412.2 L1272.32 1408.27 Z" fill="#000000" fill-rule="nonzero" fill-opacity="1" /><path clip-path="url(#clip810)" d="M1322.08 1393.62 Q1318.47 1393.62 1316.64 1397.18 Q1314.84 1400.72 1314.84 1407.85 Q1314.84 1414.96 1316.64 1418.52 Q1318.47 1422.06 1322.08 1422.06 Q1325.72 1422.06 1327.52 1418.52 Q1329.35 1414.96 1329.35 1407.85 Q1329.35 1400.72 1327.52 1397.18 Q1325.72 1393.62 1322.08 1393.62 M1322.08 1389.91 Q1327.89 1389.91 1330.95 1394.52 Q1334.03 1399.1 1334.03 1407.85 Q1334.03 1416.58 1330.95 1421.18 Q1327.89 1425.77 1322.08 1425.77 Q1316.27 1425.77 1313.2 1421.18 Q1310.14 1416.58 1310.14 1407.85 Q1310.14 1399.1 1313.2 1394.52 Q1316.27 1389.91 1322.08 1389.91 Z" fill="#000000" fill-rule="nonzero" fill-opacity="1" /><path clip-path="url(#clip810)" d="M1342.25 1419.22 L1347.13 1419.22 L1347.13 1425.1 L1342.25 1425.1 L1342.25 1419.22 Z" fill="#000000" fill-rule="nonzero" fill-opacity="1" /><path clip-path="url(#clip810)" d="M1367.32 1393.62 Q1363.7 1393.62 1361.88 1397.18 Q1360.07 1400.72 1360.07 1407.85 Q1360.07 1414.96 1361.88 1418.52 Q1363.7 1422.06 1367.32 1422.06 Q1370.95 1422.06 1372.76 1418.52 Q1374.58 1414.96 1374.58 1407.85 Q1374.58 1400.72 1372.76 1397.18 Q1370.95 1393.62 1367.32 1393.62 M1367.32 1389.91 Q1373.13 1389.91 1376.18 1394.52 Q1379.26 1399.1 1379.26 1407.85 Q1379.26 1416.58 1376.18 1421.18 Q1373.13 1425.77 1367.32 1425.77 Q1361.51 1425.77 1358.43 1421.18 Q1355.37 1416.58 1355.37 1407.85 Q1355.37 1399.1 1358.43 1394.52 Q1361.51 1389.91 1367.32 1389.91 Z" fill="#000000" fill-rule="nonzero" fill-opacity="1" /><path clip-path="url(#clip810)" d="M1400.32 1394.61 L1388.52 1413.06 L1400.32 1413.06 L1400.32 1394.61 M1399.1 1390.54 L1404.98 1390.54 L1404.98 1413.06 L1409.91 1413.06 L1409.91 1416.95 L1404.98 1416.95 L1404.98 1425.1 L1400.32 1425.1 L1400.32 1416.95 L1384.72 1416.95 L1384.72 1412.43 L1399.1 1390.54 Z" fill="#000000" fill-rule="nonzero" fill-opacity="1" /><path clip-path="url(#clip810)" d="M1274.4 1319.34 L1304.08 1319.34 L1304.08 1323.28 L1274.4 1323.28 L1274.4 1319.34 Z" fill="#000000" fill-rule="nonzero" fill-opacity="1" /><path clip-path="url(#clip810)" d="M1324.17 1304.69 Q1320.56 1304.69 1318.73 1308.25 Q1316.92 1311.8 1316.92 1318.92 Q1316.92 1326.03 1318.73 1329.6 Q1320.56 1333.14 1324.17 1333.14 Q1327.8 1333.14 1329.61 1329.6 Q1331.44 1326.03 1331.44 1318.92 Q1331.44 1311.8 1329.61 1308.25 Q1327.8 1304.69 1324.17 1304.69 M1324.17 1300.98 Q1329.98 1300.98 1333.03 1305.59 Q1336.11 1310.17 1336.11 1318.92 Q1336.11 1327.65 1333.03 1332.26 Q1329.98 1336.84 1324.17 1336.84 Q1318.36 1336.84 1315.28 1332.26 Q1312.22 1327.65 1312.22 1318.92 Q1312.22 1310.17 1315.28 1305.59 Q1318.36 1300.98 1324.17 1300.98 Z" fill="#000000" fill-rule="nonzero" fill-opacity="1" /><path clip-path="url(#clip810)" d="M1344.33 1330.29 L1349.21 1330.29 L1349.21 1336.17 L1344.33 1336.17 L1344.33 1330.29 Z" fill="#000000" fill-rule="nonzero" fill-opacity="1" /><path clip-path="url(#clip810)" d="M1369.4 1304.69 Q1365.79 1304.69 1363.96 1308.25 Q1362.15 1311.8 1362.15 1318.92 Q1362.15 1326.03 1363.96 1329.6 Q1365.79 1333.14 1369.4 1333.14 Q1373.03 1333.14 1374.84 1329.6 Q1376.67 1326.03 1376.67 1318.92 Q1376.67 1311.8 1374.84 1308.25 Q1373.03 1304.69 1369.4 1304.69 M1369.4 1300.98 Q1375.21 1300.98 1378.26 1305.59 Q1381.34 1310.17 1381.34 1318.92 Q1381.34 1327.65 1378.26 1332.26 Q1375.21 1336.84 1369.4 1336.84 Q1363.59 1336.84 1360.51 1332.26 Q1357.45 1327.65 1357.45 1318.92 Q1357.45 1310.17 1360.51 1305.59 Q1363.59 1300.98 1369.4 1300.98 Z" fill="#000000" fill-rule="nonzero" fill-opacity="1" /><path clip-path="url(#clip810)" d="M1393.59 1332.23 L1409.91 1332.23 L1409.91 1336.17 L1387.96 1336.17 L1387.96 1332.23 Q1390.63 1329.48 1395.21 1324.85 Q1399.82 1320.2 1401 1318.86 Q1403.24 1316.33 1404.12 1314.6 Q1405.02 1312.84 1405.02 1311.15 Q1405.02 1308.39 1403.08 1306.66 Q1401.16 1304.92 1398.06 1304.92 Q1395.86 1304.92 1393.4 1305.68 Q1390.97 1306.45 1388.19 1308 L1388.19 1303.28 Q1391.02 1302.14 1393.47 1301.56 Q1395.93 1300.98 1397.96 1300.98 Q1403.33 1300.98 1406.53 1303.67 Q1409.72 1306.36 1409.72 1310.85 Q1409.72 1312.98 1408.91 1314.9 Q1408.13 1316.8 1406.02 1319.39 Q1405.44 1320.06 1402.34 1323.28 Q1399.24 1326.47 1393.59 1332.23 Z" fill="#000000" fill-rule="nonzero" fill-opacity="1" /><path clip-path="url(#clip810)" d="M1322.57 1215.76 Q1318.96 1215.76 1317.13 1219.33 Q1315.32 1222.87 1315.32 1230 Q1315.32 1237.1 1317.13 1240.67 Q1318.96 1244.21 1322.57 1244.21 Q1326.2 1244.21 1328.01 1240.67 Q1329.84 1237.1 1329.84 1230 Q1329.84 1222.87 1328.01 1219.33 Q1326.2 1215.76 1322.57 1215.76 M1322.57 1212.06 Q1328.38 1212.06 1331.44 1216.66 Q1334.51 1221.25 1334.51 1230 Q1334.51 1238.72 1331.44 1243.33 Q1328.38 1247.91 1322.57 1247.91 Q1316.76 1247.91 1313.68 1243.33 Q1310.63 1238.72 1310.63 1230 Q1310.63 1221.25 1313.68 1216.66 Q1316.76 1212.06 1322.57 1212.06 Z" fill="#000000" fill-rule="nonzero" fill-opacity="1" /><path clip-path="url(#clip810)" d="M1342.73 1241.36 L1347.62 1241.36 L1347.62 1247.24 L1342.73 1247.24 L1342.73 1241.36 Z" fill="#000000" fill-rule="nonzero" fill-opacity="1" /><path clip-path="url(#clip810)" d="M1367.8 1215.76 Q1364.19 1215.76 1362.36 1219.33 Q1360.56 1222.87 1360.56 1230 Q1360.56 1237.1 1362.36 1240.67 Q1364.19 1244.21 1367.8 1244.21 Q1371.44 1244.21 1373.24 1240.67 Q1375.07 1237.1 1375.07 1230 Q1375.07 1222.87 1373.24 1219.33 Q1371.44 1215.76 1367.8 1215.76 M1367.8 1212.06 Q1373.61 1212.06 1376.67 1216.66 Q1379.75 1221.25 1379.75 1230 Q1379.75 1238.72 1376.67 1243.33 Q1373.61 1247.91 1367.8 1247.91 Q1361.99 1247.91 1358.91 1243.33 Q1355.86 1238.72 1355.86 1230 Q1355.86 1221.25 1358.91 1216.66 Q1361.99 1212.06 1367.8 1212.06 Z" fill="#000000" fill-rule="nonzero" fill-opacity="1" /><path clip-path="url(#clip810)" d="M1397.96 1215.76 Q1394.35 1215.76 1392.52 1219.33 Q1390.72 1222.87 1390.72 1230 Q1390.72 1237.1 1392.52 1240.67 Q1394.35 1244.21 1397.96 1244.21 Q1401.6 1244.21 1403.4 1240.67 Q1405.23 1237.1 1405.23 1230 Q1405.23 1222.87 1403.4 1219.33 Q1401.6 1215.76 1397.96 1215.76 M1397.96 1212.06 Q1403.77 1212.06 1406.83 1216.66 Q1409.91 1221.25 1409.91 1230 Q1409.91 1238.72 1406.83 1243.33 Q1403.77 1247.91 1397.96 1247.91 Q1392.15 1247.91 1389.07 1243.33 Q1386.02 1238.72 1386.02 1230 Q1386.02 1221.25 1389.07 1216.66 Q1392.15 1212.06 1397.96 1212.06 Z" fill="#000000" fill-rule="nonzero" fill-opacity="1" /><path clip-path="url(#clip810)" d="M1324.17 1126.84 Q1320.56 1126.84 1318.73 1130.4 Q1316.92 1133.94 1316.92 1141.07 Q1316.92 1148.18 1318.73 1151.74 Q1320.56 1155.28 1324.17 1155.28 Q1327.8 1155.28 1329.61 1151.74 Q1331.44 1148.18 1331.44 1141.07 Q1331.44 1133.94 1329.61 1130.4 Q1327.8 1126.84 1324.17 1126.84 M1324.17 1123.13 Q1329.98 1123.13 1333.03 1127.74 Q1336.11 1132.32 1336.11 1141.07 Q1336.11 1149.8 1333.03 1154.4 Q1329.98 1158.99 1324.17 1158.99 Q1318.36 1158.99 1315.28 1154.4 Q1312.22 1149.8 1312.22 1141.07 Q1312.22 1132.32 1315.28 1127.74 Q1318.36 1123.13 1324.17 1123.13 Z" fill="#000000" fill-rule="nonzero" fill-opacity="1" /><path clip-path="url(#clip810)" d="M1344.33 1152.44 L1349.21 1152.44 L1349.21 1158.32 L1344.33 1158.32 L1344.33 1152.44 Z" fill="#000000" fill-rule="nonzero" fill-opacity="1" /><path clip-path="url(#clip810)" d="M1369.4 1126.84 Q1365.79 1126.84 1363.96 1130.4 Q1362.15 1133.94 1362.15 1141.07 Q1362.15 1148.18 1363.96 1151.74 Q1365.79 1155.28 1369.4 1155.28 Q1373.03 1155.28 1374.84 1151.74 Q1376.67 1148.18 1376.67 1141.07 Q1376.67 1133.94 1374.84 1130.4 Q1373.03 1126.84 1369.4 1126.84 M1369.4 1123.13 Q1375.21 1123.13 1378.26 1127.74 Q1381.34 1132.32 1381.34 1141.07 Q1381.34 1149.8 1378.26 1154.4 Q1375.21 1158.99 1369.4 1158.99 Q1363.59 1158.99 1360.51 1154.4 Q1357.45 1149.8 1357.45 1141.07 Q1357.45 1132.32 1360.51 1127.74 Q1363.59 1123.13 1369.4 1123.13 Z" fill="#000000" fill-rule="nonzero" fill-opacity="1" /><path clip-path="url(#clip810)" d="M1393.59 1154.38 L1409.91 1154.38 L1409.91 1158.32 L1387.96 1158.32 L1387.96 1154.38 Q1390.63 1151.63 1395.21 1147 Q1399.82 1142.34 1401 1141 Q1403.24 1138.48 1404.12 1136.74 Q1405.02 1134.98 1405.02 1133.29 Q1405.02 1130.54 1403.08 1128.8 Q1401.16 1127.07 1398.06 1127.07 Q1395.86 1127.07 1393.4 1127.83 Q1390.97 1128.59 1388.19 1130.15 L1388.19 1125.42 Q1391.02 1124.29 1393.47 1123.71 Q1395.93 1123.13 1397.96 1123.13 Q1403.33 1123.13 1406.53 1125.82 Q1409.72 1128.5 1409.72 1132.99 Q1409.72 1135.12 1408.91 1137.04 Q1408.13 1138.94 1406.02 1141.53 Q1405.44 1142.21 1402.34 1145.42 Q1399.24 1148.62 1393.59 1154.38 Z" fill="#000000" fill-rule="nonzero" fill-opacity="1" /><path clip-path="url(#clip810)" d="M1182.01 1252.88 L1182.94 1253.44 Q1181.43 1256.93 1179.02 1261.28 Q1181.43 1265.63 1182.94 1269.13 L1182.01 1269.67 Q1178.7 1265.86 1176.15 1261.28 Q1178.72 1256.66 1182.01 1252.88 Z" fill="#000000" fill-rule="nonzero" fill-opacity="1" /><path clip-path="url(#clip810)" d="M1194.31 1249.71 Q1196.12 1249.71 1197.15 1250.84 Q1198.14 1251.97 1198.14 1253.26 Q1198.14 1254.48 1197.44 1255.12 Q1196.73 1255.77 1195.83 1255.77 Q1194.6 1255.77 1193.54 1254.87 Q1192.48 1253.96 1192.25 1252.61 Q1191.41 1253.93 1191.41 1255.9 Q1191.41 1257.18 1192.09 1258.31 Q1192.77 1259.41 1193.64 1260.08 Q1194.51 1260.73 1195.76 1261.31 Q1196.99 1261.85 1197.73 1262.08 Q1198.43 1262.27 1199.21 1262.43 L1208.23 1264.69 Q1212.51 1265.78 1214.02 1265.78 Q1215.89 1265.78 1217.15 1264.88 Q1218.37 1263.98 1218.37 1262.18 Q1218.37 1261.47 1218.18 1260.66 Q1217.95 1259.86 1217.37 1258.83 Q1216.76 1257.76 1215.86 1256.83 Q1214.92 1255.86 1213.35 1254.93 Q1211.77 1254 1209.74 1253.38 Q1209.03 1253.19 1209.03 1252.55 Q1209.03 1251.74 1209.67 1251.74 Q1210.22 1251.74 1211.38 1252.19 Q1212.51 1252.61 1213.99 1253.55 Q1215.44 1254.45 1216.76 1255.64 Q1218.05 1256.83 1218.95 1258.6 Q1219.85 1260.37 1219.85 1262.31 Q1219.85 1265.08 1218.37 1266.91 Q1216.89 1268.75 1214.83 1269.42 Q1215.12 1269.58 1215.5 1269.81 Q1215.89 1270.03 1216.76 1270.71 Q1217.6 1271.36 1218.24 1272.1 Q1218.85 1272.84 1219.34 1274 Q1219.85 1275.12 1219.85 1276.35 Q1219.85 1277.89 1219.4 1279.28 Q1218.95 1280.63 1217.92 1281.6 Q1216.89 1282.56 1215.47 1282.56 Q1213.89 1282.56 1212.8 1281.5 Q1211.67 1280.41 1211.67 1278.92 Q1211.67 1277.99 1212.22 1277.25 Q1212.77 1276.48 1213.96 1276.48 Q1215.28 1276.48 1216.28 1277.38 Q1217.27 1278.28 1217.53 1279.57 Q1218.37 1278.25 1218.37 1276.28 Q1218.37 1274.16 1216.5 1272.48 Q1214.63 1270.81 1211.51 1270 Q1204.01 1268.01 1200.66 1267.23 Q1197.28 1266.46 1195.83 1266.46 Q1194.47 1266.46 1193.54 1266.81 Q1192.61 1267.17 1192.19 1267.78 Q1191.74 1268.36 1191.57 1268.91 Q1191.41 1269.42 1191.41 1270 Q1191.41 1270.97 1191.8 1272.06 Q1192.19 1273.13 1193.09 1274.41 Q1193.96 1275.67 1195.76 1276.86 Q1197.56 1278.05 1200.04 1278.86 Q1200.79 1279.02 1200.79 1279.73 Q1200.75 1280.5 1200.11 1280.5 Q1199.56 1280.5 1198.43 1280.08 Q1197.28 1279.63 1195.83 1278.73 Q1194.38 1277.8 1193.09 1276.6 Q1191.77 1275.38 1190.87 1273.61 Q1189.96 1271.81 1189.96 1269.87 Q1189.96 1269 1190.16 1268.17 Q1190.32 1267.3 1190.8 1266.27 Q1191.28 1265.2 1192.35 1264.27 Q1193.41 1263.34 1194.96 1262.76 Q1194.22 1262.37 1193.51 1261.85 Q1192.8 1261.31 1191.93 1260.47 Q1191.03 1259.6 1190.51 1258.41 Q1189.96 1257.18 1189.96 1255.83 Q1189.96 1254.51 1190.32 1253.22 Q1190.64 1251.94 1191.7 1250.84 Q1192.73 1249.71 1194.31 1249.71 Z" fill="#000000" fill-rule="nonzero" fill-opacity="1" /><path clip-path="url(#clip810)" d="M1231.9 1242.25 Q1230.52 1242.25 1229.87 1241.46 Q1229.22 1240.68 1229.22 1239.66 Q1229.22 1238.6 1229.92 1237.86 Q1230.59 1237.09 1231.79 1237.09 Q1233.07 1237.09 1233.79 1237.99 Q1234.51 1238.87 1234.33 1240.13 Q1236.18 1239.03 1237.02 1237 Q1237.85 1234.95 1237.85 1233.06 Q1237.85 1231.07 1236.14 1229.47 Q1234.42 1227.85 1230.23 1227.85 Q1226.67 1227.85 1224.62 1229.25 Q1222.57 1230.62 1222.57 1233.35 L1222.57 1235.38 Q1222.57 1236.08 1222.5 1236.28 Q1222.43 1236.48 1222.05 1236.48 Q1221.6 1236.48 1221.51 1235.78 Q1221.51 1235.08 1221.37 1233.98 Q1221.28 1231.3 1218.96 1229.88 Q1216.79 1228.59 1213.71 1228.59 Q1210.89 1228.59 1209.72 1229.94 Q1208.52 1231.27 1208.52 1233.01 Q1208.52 1234.63 1209.2 1236.41 Q1209.87 1238.2 1211.38 1239.17 Q1211.38 1236.3 1213.71 1236.3 Q1214.72 1236.3 1215.4 1236.96 Q1216.05 1237.59 1216.05 1238.65 Q1216.05 1239.66 1215.42 1240.34 Q1214.77 1241.01 1213.66 1241.01 Q1211.02 1241.01 1209.2 1238.67 Q1207.37 1236.3 1207.37 1232.83 Q1207.37 1229.4 1209.17 1226.88 Q1210.98 1224.33 1213.75 1224.33 Q1216.48 1224.33 1218.71 1226.13 Q1220.94 1227.94 1221.87 1230.8 Q1222.57 1227.28 1224.96 1225.19 Q1227.32 1223.09 1230.23 1223.09 Q1233.84 1223.09 1236.5 1225.93 Q1239.14 1228.77 1239.14 1232.92 Q1239.14 1236.75 1237.06 1239.5 Q1234.99 1242.25 1231.9 1242.25 Z" fill="#000000" fill-rule="nonzero" fill-opacity="1" /><polyline clip-path="url(#clip815)" style="stroke:#e26f46; stroke-linecap:round; stroke-linejoin:round; stroke-width:3; stroke-opacity:1; fill:none" stroke-dasharray="12, 6, 2, 6" points="1471.57,1229.96 1496.74,1081.68 1521.9,1260.83 1547.06,1376.65 1572.22,1402.57 1597.38,1387.56 1622.55,1384.3 1647.71,1413.23 1672.87,1411.16 1698.03,1310.43 1723.2,1306.66 1748.36,1324.97 1773.52,1316.3 1798.68,1245.68 1823.85,1241.11 1849.01,1277.27 1874.17,1264.2 1899.33,1261.1 1924.49,1286.56 1949.66,1200.9 1974.82,1253.36 1999.98,1269.96 2025.14,1277.11 2050.31,1244.66 2075.47,1243.21 2100.63,1234.03 2125.79,1248.83 2150.95,1246.56 2176.12,1260.21 2201.28,1258.86 2226.44,1241.81 2251.6,1238.71 2276.77,1236.13 2301.93,1260.21 2327.09,1266.21 "/>
</svg>
