<?xml version="1.0" encoding="utf-8"?>
<svg xmlns="http://www.w3.org/2000/svg" xmlns:xlink="http://www.w3.org/1999/xlink" width="600" height="400" viewBox="0 0 2400 1600">
<defs>
  <clipPath id="clip850">
    <rect x="0" y="0" width="2400" height="1600"/>
  </clipPath>
</defs>
<path clip-path="url(#clip850)" d="M0 1600 L2400 1600 L2400 0 L0 0  Z" fill="#ffffff" fill-rule="evenodd" fill-opacity="1"/>
<defs>
  <clipPath id="clip851">
    <rect x="480" y="0" width="1681" height="1600"/>
  </clipPath>
</defs>
<path clip-path="url(#clip850)" d="M232.389 654.814 L1140.35 654.814 L1140.35 47.2441 L232.389 47.2441  Z" fill="#ffffff" fill-rule="evenodd" fill-opacity="1"/>
<defs>
  <clipPath id="clip852">
    <rect x="232" y="47" width="909" height="609"/>
  </clipPath>
</defs>
<polyline clip-path="url(#clip852)" style="stroke:#000000; stroke-linecap:round; stroke-linejoin:round; stroke-width:2; stroke-opacity:0.1; fill:none" points="258.086,654.814 258.086,47.2441 "/>
<polyline clip-path="url(#clip852)" style="stroke:#000000; stroke-linecap:round; stroke-linejoin:round; stroke-width:2; stroke-opacity:0.1; fill:none" points="510.017,654.814 510.017,47.2441 "/>
<polyline clip-path="url(#clip852)" style="stroke:#000000; stroke-linecap:round; stroke-linejoin:round; stroke-width:2; stroke-opacity:0.1; fill:none" points="761.948,654.814 761.948,47.2441 "/>
<polyline clip-path="url(#clip852)" style="stroke:#000000; stroke-linecap:round; stroke-linejoin:round; stroke-width:2; stroke-opacity:0.1; fill:none" points="1013.88,654.814 1013.88,47.2441 "/>
<polyline clip-path="url(#clip850)" style="stroke:#000000; stroke-linecap:round; stroke-linejoin:round; stroke-width:4; stroke-opacity:1; fill:none" points="232.389,654.814 1140.35,654.814 "/>
<polyline clip-path="url(#clip850)" style="stroke:#000000; stroke-linecap:round; stroke-linejoin:round; stroke-width:4; stroke-opacity:1; fill:none" points="258.086,654.814 258.086,635.916 "/>
<polyline clip-path="url(#clip850)" style="stroke:#000000; stroke-linecap:round; stroke-linejoin:round; stroke-width:4; stroke-opacity:1; fill:none" points="510.017,654.814 510.017,635.916 "/>
<polyline clip-path="url(#clip850)" style="stroke:#000000; stroke-linecap:round; stroke-linejoin:round; stroke-width:4; stroke-opacity:1; fill:none" points="761.948,654.814 761.948,635.916 "/>
<polyline clip-path="url(#clip850)" style="stroke:#000000; stroke-linecap:round; stroke-linejoin:round; stroke-width:4; stroke-opacity:1; fill:none" points="1013.88,654.814 1013.88,635.916 "/>
<path clip-path="url(#clip850)" d="M258.086 685.733 Q254.475 685.733 252.647 689.297 Q250.841 692.839 250.841 699.969 Q250.841 707.075 252.647 710.64 Q254.475 714.181 258.086 714.181 Q261.721 714.181 263.526 710.64 Q265.355 707.075 265.355 699.969 Q265.355 692.839 263.526 689.297 Q261.721 685.733 258.086 685.733 M258.086 682.029 Q263.896 682.029 266.952 686.635 Q270.031 691.219 270.031 699.969 Q270.031 708.695 266.952 713.302 Q263.896 717.885 258.086 717.885 Q252.276 717.885 249.197 713.302 Q246.142 708.695 246.142 699.969 Q246.142 691.219 249.197 686.635 Q252.276 682.029 258.086 682.029 Z" fill="#000000" fill-rule="nonzero" fill-opacity="1" /><path clip-path="url(#clip850)" d="M500.399 713.279 L508.038 713.279 L508.038 686.913 L499.728 688.58 L499.728 684.321 L507.992 682.654 L512.668 682.654 L512.668 713.279 L520.307 713.279 L520.307 717.214 L500.399 717.214 L500.399 713.279 Z" fill="#000000" fill-rule="nonzero" fill-opacity="1" /><path clip-path="url(#clip850)" d="M756.601 713.279 L772.92 713.279 L772.92 717.214 L750.976 717.214 L750.976 713.279 Q753.638 710.524 758.221 705.894 Q762.828 701.242 764.008 699.899 Q766.254 697.376 767.133 695.64 Q768.036 693.881 768.036 692.191 Q768.036 689.436 766.092 687.7 Q764.17 685.964 761.069 685.964 Q758.87 685.964 756.416 686.728 Q753.985 687.492 751.208 689.043 L751.208 684.321 Q754.032 683.186 756.485 682.608 Q758.939 682.029 760.976 682.029 Q766.346 682.029 769.541 684.714 Q772.735 687.399 772.735 691.89 Q772.735 694.02 771.925 695.941 Q771.138 697.839 769.032 700.432 Q768.453 701.103 765.351 704.32 Q762.249 707.515 756.601 713.279 Z" fill="#000000" fill-rule="nonzero" fill-opacity="1" /><path clip-path="url(#clip850)" d="M1018.13 698.58 Q1021.48 699.297 1023.36 701.566 Q1025.26 703.834 1025.26 707.168 Q1025.26 712.283 1021.74 715.084 Q1018.22 717.885 1011.74 717.885 Q1009.56 717.885 1007.25 717.445 Q1004.96 717.029 1002.5 716.172 L1002.5 711.658 Q1004.45 712.793 1006.76 713.371 Q1009.08 713.95 1011.6 713.95 Q1016 713.95 1018.29 712.214 Q1020.6 710.478 1020.6 707.168 Q1020.6 704.112 1018.45 702.399 Q1016.32 700.663 1012.5 700.663 L1008.47 700.663 L1008.47 696.82 L1012.69 696.82 Q1016.14 696.82 1017.96 695.455 Q1019.79 694.066 1019.79 691.473 Q1019.79 688.811 1017.9 687.399 Q1016.02 685.964 1012.5 685.964 Q1010.58 685.964 1008.38 686.381 Q1006.18 686.797 1003.54 687.677 L1003.54 683.51 Q1006.21 682.77 1008.52 682.399 Q1010.86 682.029 1012.92 682.029 Q1018.24 682.029 1021.34 684.459 Q1024.45 686.867 1024.45 690.987 Q1024.45 693.858 1022.8 695.848 Q1021.16 697.816 1018.13 698.58 Z" fill="#000000" fill-rule="nonzero" fill-opacity="1" /><polyline clip-path="url(#clip852)" style="stroke:#000000; stroke-linecap:round; stroke-linejoin:round; stroke-width:2; stroke-opacity:0.1; fill:none" points="232.389,637.618 1140.35,637.618 "/>
<polyline clip-path="url(#clip852)" style="stroke:#000000; stroke-linecap:round; stroke-linejoin:round; stroke-width:2; stroke-opacity:0.1; fill:none" points="232.389,483.31 1140.35,483.31 "/>
<polyline clip-path="url(#clip852)" style="stroke:#000000; stroke-linecap:round; stroke-linejoin:round; stroke-width:2; stroke-opacity:0.1; fill:none" points="232.389,329.002 1140.35,329.002 "/>
<polyline clip-path="url(#clip852)" style="stroke:#000000; stroke-linecap:round; stroke-linejoin:round; stroke-width:2; stroke-opacity:0.1; fill:none" points="232.389,174.693 1140.35,174.693 "/>
<polyline clip-path="url(#clip850)" style="stroke:#000000; stroke-linecap:round; stroke-linejoin:round; stroke-width:4; stroke-opacity:1; fill:none" points="232.389,654.814 232.389,47.2441 "/>
<polyline clip-path="url(#clip850)" style="stroke:#000000; stroke-linecap:round; stroke-linejoin:round; stroke-width:4; stroke-opacity:1; fill:none" points="232.389,637.618 251.287,637.618 "/>
<polyline clip-path="url(#clip850)" style="stroke:#000000; stroke-linecap:round; stroke-linejoin:round; stroke-width:4; stroke-opacity:1; fill:none" points="232.389,483.31 251.287,483.31 "/>
<polyline clip-path="url(#clip850)" style="stroke:#000000; stroke-linecap:round; stroke-linejoin:round; stroke-width:4; stroke-opacity:1; fill:none" points="232.389,329.002 251.287,329.002 "/>
<polyline clip-path="url(#clip850)" style="stroke:#000000; stroke-linecap:round; stroke-linejoin:round; stroke-width:4; stroke-opacity:1; fill:none" points="232.389,174.693 251.287,174.693 "/>
<path clip-path="url(#clip850)" d="M184.445 623.417 Q180.834 623.417 179.005 626.982 Q177.2 630.524 177.2 637.653 Q177.2 644.76 179.005 648.324 Q180.834 651.866 184.445 651.866 Q188.079 651.866 189.885 648.324 Q191.713 644.76 191.713 637.653 Q191.713 630.524 189.885 626.982 Q188.079 623.417 184.445 623.417 M184.445 619.713 Q190.255 619.713 193.311 624.32 Q196.389 628.903 196.389 637.653 Q196.389 646.38 193.311 650.986 Q190.255 655.57 184.445 655.57 Q178.635 655.57 175.556 650.986 Q172.501 646.38 172.501 637.653 Q172.501 628.903 175.556 624.32 Q178.635 619.713 184.445 619.713 Z" fill="#000000" fill-rule="nonzero" fill-opacity="1" /><path clip-path="url(#clip850)" d="M144.329 466.03 L162.686 466.03 L162.686 469.965 L148.612 469.965 L148.612 478.437 Q149.63 478.09 150.649 477.928 Q151.667 477.743 152.686 477.743 Q158.473 477.743 161.852 480.914 Q165.232 484.085 165.232 489.502 Q165.232 495.081 161.76 498.183 Q158.288 501.261 151.968 501.261 Q149.792 501.261 147.524 500.891 Q145.279 500.521 142.871 499.78 L142.871 495.081 Q144.954 496.215 147.177 496.771 Q149.399 497.326 151.876 497.326 Q155.88 497.326 158.218 495.22 Q160.556 493.113 160.556 489.502 Q160.556 485.891 158.218 483.785 Q155.88 481.678 151.876 481.678 Q150.001 481.678 148.126 482.095 Q146.274 482.511 144.329 483.391 L144.329 466.03 Z" fill="#000000" fill-rule="nonzero" fill-opacity="1" /><path clip-path="url(#clip850)" d="M184.445 469.109 Q180.834 469.109 179.005 472.674 Q177.2 476.215 177.2 483.345 Q177.2 490.451 179.005 494.016 Q180.834 497.558 184.445 497.558 Q188.079 497.558 189.885 494.016 Q191.713 490.451 191.713 483.345 Q191.713 476.215 189.885 472.674 Q188.079 469.109 184.445 469.109 M184.445 465.405 Q190.255 465.405 193.311 470.011 Q196.389 474.595 196.389 483.345 Q196.389 492.072 193.311 496.678 Q190.255 501.261 184.445 501.261 Q178.635 501.261 175.556 496.678 Q172.501 492.072 172.501 483.345 Q172.501 474.595 175.556 470.011 Q178.635 465.405 184.445 465.405 Z" fill="#000000" fill-rule="nonzero" fill-opacity="1" /><path clip-path="url(#clip850)" d="M114.931 342.346 L122.57 342.346 L122.57 315.981 L114.26 317.647 L114.26 313.388 L122.524 311.722 L127.2 311.722 L127.2 342.346 L134.839 342.346 L134.839 346.282 L114.931 346.282 L114.931 342.346 Z" fill="#000000" fill-rule="nonzero" fill-opacity="1" /><path clip-path="url(#clip850)" d="M154.283 314.8 Q150.672 314.8 148.843 318.365 Q147.038 321.907 147.038 329.036 Q147.038 336.143 148.843 339.708 Q150.672 343.249 154.283 343.249 Q157.917 343.249 159.723 339.708 Q161.552 336.143 161.552 329.036 Q161.552 321.907 159.723 318.365 Q157.917 314.8 154.283 314.8 M154.283 311.097 Q160.093 311.097 163.149 315.703 Q166.227 320.286 166.227 329.036 Q166.227 337.763 163.149 342.37 Q160.093 346.953 154.283 346.953 Q148.473 346.953 145.394 342.37 Q142.339 337.763 142.339 329.036 Q142.339 320.286 145.394 315.703 Q148.473 311.097 154.283 311.097 Z" fill="#000000" fill-rule="nonzero" fill-opacity="1" /><path clip-path="url(#clip850)" d="M184.445 314.8 Q180.834 314.8 179.005 318.365 Q177.2 321.907 177.2 329.036 Q177.2 336.143 179.005 339.708 Q180.834 343.249 184.445 343.249 Q188.079 343.249 189.885 339.708 Q191.713 336.143 191.713 329.036 Q191.713 321.907 189.885 318.365 Q188.079 314.8 184.445 314.8 M184.445 311.097 Q190.255 311.097 193.311 315.703 Q196.389 320.286 196.389 329.036 Q196.389 337.763 193.311 342.37 Q190.255 346.953 184.445 346.953 Q178.635 346.953 175.556 342.37 Q172.501 337.763 172.501 329.036 Q172.501 320.286 175.556 315.703 Q178.635 311.097 184.445 311.097 Z" fill="#000000" fill-rule="nonzero" fill-opacity="1" /><path clip-path="url(#clip850)" d="M114.931 188.038 L122.57 188.038 L122.57 161.672 L114.26 163.339 L114.26 159.08 L122.524 157.413 L127.2 157.413 L127.2 188.038 L134.839 188.038 L134.839 191.973 L114.931 191.973 L114.931 188.038 Z" fill="#000000" fill-rule="nonzero" fill-opacity="1" /><path clip-path="url(#clip850)" d="M144.329 157.413 L162.686 157.413 L162.686 161.348 L148.612 161.348 L148.612 169.82 Q149.63 169.473 150.649 169.311 Q151.667 169.126 152.686 169.126 Q158.473 169.126 161.852 172.297 Q165.232 175.469 165.232 180.885 Q165.232 186.464 161.76 189.566 Q158.288 192.644 151.968 192.644 Q149.792 192.644 147.524 192.274 Q145.279 191.904 142.871 191.163 L142.871 186.464 Q144.954 187.598 147.177 188.154 Q149.399 188.709 151.876 188.709 Q155.88 188.709 158.218 186.603 Q160.556 184.496 160.556 180.885 Q160.556 177.274 158.218 175.168 Q155.88 173.061 151.876 173.061 Q150.001 173.061 148.126 173.478 Q146.274 173.894 144.329 174.774 L144.329 157.413 Z" fill="#000000" fill-rule="nonzero" fill-opacity="1" /><path clip-path="url(#clip850)" d="M184.445 160.492 Q180.834 160.492 179.005 164.057 Q177.2 167.598 177.2 174.728 Q177.2 181.834 179.005 185.399 Q180.834 188.941 184.445 188.941 Q188.079 188.941 189.885 185.399 Q191.713 181.834 191.713 174.728 Q191.713 167.598 189.885 164.057 Q188.079 160.492 184.445 160.492 M184.445 156.788 Q190.255 156.788 193.311 161.395 Q196.389 165.978 196.389 174.728 Q196.389 183.455 193.311 188.061 Q190.255 192.644 184.445 192.644 Q178.635 192.644 175.556 188.061 Q172.501 183.455 172.501 174.728 Q172.501 165.978 175.556 161.395 Q178.635 156.788 184.445 156.788 Z" fill="#000000" fill-rule="nonzero" fill-opacity="1" /><path clip-path="url(#clip850)" d="M21.7178 350.252 Q22.1687 350.252 23.2315 350.541 L48.4165 356.854 Q54.0203 358.239 57.9494 362.747 Q61.8785 367.224 61.8785 372.313 Q61.8785 375.372 60.236 377.337 Q58.6257 379.301 56.1459 379.301 Q53.9559 379.301 52.8931 378.142 Q51.8625 376.982 51.8625 375.598 Q51.8625 375.147 51.9913 374.664 Q52.1201 374.181 52.6676 373.665 Q53.2151 373.15 54.1491 373.15 Q55.6628 373.15 56.8544 374.47 Q57.4019 375.115 57.5307 375.726 Q57.6596 376.306 57.6596 377.305 Q58.5613 376.918 59.1732 376.21 Q59.7851 375.501 60.0106 374.696 Q60.2682 373.891 60.3326 373.375 Q60.4293 372.828 60.4293 372.313 Q60.4293 368.19 56.2747 365.034 Q55.0187 364.1 53.7626 363.424 Q52.5388 362.715 51.0252 362.2 Q49.5437 361.685 48.7385 361.459 Q47.9334 361.202 46.0977 360.751 Q49.0928 363.746 49.0928 367.417 Q49.0928 368.963 48.6741 370.348 Q48.2554 371.701 47.3859 372.892 Q46.4841 374.084 44.906 374.792 Q43.3279 375.469 41.2346 375.469 Q39.0124 375.469 35.985 374.599 Q32.9577 373.73 27.386 371.636 Q24.2621 370.509 22.7484 370.509 Q22.0077 370.509 21.5568 370.67 Q21.0737 370.831 20.9127 371.153 Q20.7194 371.475 20.6872 371.669 Q20.655 371.83 20.655 372.152 Q20.655 374.052 22.5874 375.823 Q24.5197 377.594 28.8353 378.818 Q29.6405 379.076 29.8337 379.237 Q30.0269 379.398 30.0269 379.881 Q29.9947 380.686 29.3506 380.686 Q29.093 380.686 28.0946 380.396 Q27.064 380.106 25.5503 379.43 Q24.0044 378.722 22.6196 377.755 Q21.2025 376.789 20.2041 375.276 Q19.2058 373.73 19.2058 371.958 Q19.2058 369.543 20.7838 368.061 Q22.3297 366.548 24.6163 366.548 Q25.5503 366.548 26.3877 366.805 Q27.1928 367.031 29.3506 367.868 Q38.0462 371.25 42.2974 371.25 Q43.3279 371.25 44.1975 371.089 Q45.0349 370.896 45.8722 370.477 Q46.6774 370.058 47.1604 369.221 Q47.6113 368.351 47.6113 367.16 Q47.6113 365.646 46.9028 364.229 Q46.1621 362.78 45.1637 361.878 Q44.1653 360.944 43.3279 360.396 Q42.4584 359.817 42.0075 359.688 L30.1558 356.725 L24.874 355.405 Q22.0077 354.793 21.2991 354.503 Q20.6228 354.116 20.2686 353.44 Q19.9143 352.764 19.9143 352.184 Q19.9143 351.379 20.3974 350.831 Q20.8805 350.252 21.7178 350.252 Z" fill="#000000" fill-rule="nonzero" fill-opacity="1" /><path clip-path="url(#clip850)" d="M53.6652 343.506 L52.2224 343.506 Q52.2224 337.96 49.2691 335.097 Q49.2691 334.308 49.4494 334.172 Q49.6298 334.037 50.4639 334.037 L76.3671 334.037 Q77.7423 334.037 78.1706 333.361 Q78.599 332.684 78.599 329.731 L78.599 328.266 L80.0193 328.266 Q79.884 329.889 79.884 335.75 Q79.884 341.612 80.0193 343.212 L78.599 343.212 L78.599 341.747 Q78.599 338.839 78.1932 338.14 Q77.7648 337.441 76.3671 337.441 L52.4478 337.441 Q53.6652 339.853 53.6652 343.506 Z" fill="#000000" fill-rule="nonzero" fill-opacity="1" /><polyline clip-path="url(#clip852)" style="stroke:#009af9; stroke-linecap:round; stroke-linejoin:round; stroke-width:4; stroke-opacity:1; fill:none" points="258.086,637.618 283.279,637.618 308.473,582.361 333.666,499.474 358.859,416.092 384.052,349.65 409.245,302.321 434.438,266.648 459.631,234.603 484.824,200.763 510.017,161.484 535.21,113.525 560.403,92.2981 585.597,83.9 610.79,77.053 635.983,68.6994 661.176,65.0973 686.369,64.4395 711.562,65.6944 736.755,66.6806 761.948,68.4473 787.141,70.3261 812.334,72.5476 837.528,74.3823 862.721,76.1473 887.914,77.5684 913.107,78.8721 938.3,79.8543 963.493,80.6823 988.686,81.2663 1013.88,81.7361 1039.07,82.0387 1064.27,82.2626 1089.46,82.3812 1114.65,82.4568 "/>
<polyline clip-path="url(#clip852)" style="stroke:#3da44d; stroke-linecap:round; stroke-linejoin:round; stroke-width:3; stroke-opacity:1; fill:none" stroke-dasharray="12, 8" points="258.086,82.108 283.279,82.108 308.473,82.108 333.666,82.108 358.859,82.108 384.052,82.108 409.245,82.108 434.438,82.108 459.631,82.108 484.824,82.108 510.017,82.108 535.21,82.108 560.403,82.108 585.597,82.108 610.79,82.108 635.983,82.108 661.176,82.108 686.369,82.108 711.562,82.108 736.755,82.108 761.948,82.108 787.141,82.108 812.334,82.108 837.528,82.108 862.721,82.108 887.914,82.108 913.107,82.108 938.3,82.108 963.493,82.108 988.686,82.108 1013.88,82.108 1039.07,82.108 1064.27,82.108 1089.46,82.108 1114.65,82.108 "/>
<path clip-path="url(#clip850)" d="M971.279 634.562 L1110.08 634.562 L1110.08 479.042 L971.279 479.042  Z" fill="#ffffff" fill-rule="evenodd" fill-opacity="1"/>
<polyline clip-path="url(#clip850)" style="stroke:#000000; stroke-linecap:round; stroke-linejoin:round; stroke-width:4; stroke-opacity:1; fill:none" points="971.279,634.562 1110.08,634.562 1110.08,479.042 971.279,479.042 971.279,634.562 "/>
<polyline clip-path="url(#clip850)" style="stroke:#009af9; stroke-linecap:round; stroke-linejoin:round; stroke-width:4; stroke-opacity:1; fill:none" points="981.367,530.882 1041.9,530.882 "/>
<path clip-path="url(#clip850)" d="M1078.76 517.62 Q1077.28 517.62 1076.53 517.761 Q1075.78 517.878 1075.6 518.042 Q1075.41 518.206 1075.2 518.628 L1064.89 540.551 Q1063.79 542.893 1061.73 544.58 Q1059.69 546.266 1057.12 546.266 Q1054.96 546.266 1053.46 544.954 Q1051.99 543.666 1051.99 541.839 Q1051.99 540.527 1052.81 539.778 Q1053.63 539.052 1054.73 539.052 Q1055.94 539.052 1056.72 539.825 Q1057.51 540.598 1057.51 541.792 Q1057.51 542.565 1057.19 543.151 Q1056.86 543.76 1056.55 543.971 Q1056.27 544.205 1055.97 544.345 Q1056.46 544.533 1057.12 544.533 Q1058.1 544.533 1058.94 544.135 Q1059.81 543.76 1060.37 543.244 Q1060.96 542.753 1061.54 541.863 Q1062.13 540.996 1062.41 540.434 Q1062.69 539.895 1063.11 538.958 L1064.21 536.663 L1055.24 517.62 L1052.17 517.62 L1052.17 515.372 L1057.65 515.512 L1063.6 515.372 L1063.6 517.62 L1061 517.62 L1067.09 530.573 L1072.62 518.768 L1072.86 518.206 Q1072.86 517.948 1072.29 517.808 Q1071.73 517.644 1071.17 517.644 L1070.61 517.62 L1070.61 515.372 L1074.96 515.512 Q1077.02 515.512 1078.76 515.372 L1078.76 517.62 Z" fill="#000000" fill-rule="nonzero" fill-opacity="1" /><polyline clip-path="url(#clip850)" style="stroke:#3da44d; stroke-linecap:round; stroke-linejoin:round; stroke-width:3; stroke-opacity:1; fill:none" stroke-dasharray="12, 8" points="981.367,582.722 1041.9,582.722 "/>
<path clip-path="url(#clip850)" d="M1071.4 567.999 Q1071.4 569.358 1070.51 570.154 Q1069.62 570.927 1068.48 570.927 Q1067.33 570.927 1066.44 570.154 Q1065.55 569.381 1065.55 567.999 Q1065.55 567.39 1065.76 566.852 Q1065.99 566.29 1066.23 566.032 L1066.46 565.798 Q1065.08 565.798 1064 566.454 Q1062.92 567.086 1062.27 568.07 Q1061.61 569.053 1061.19 570.342 Q1060.77 571.607 1060.61 572.754 Q1060.46 573.902 1060.46 575.003 L1060.46 583.411 L1064.63 583.411 L1064.63 585.66 Q1062.9 585.519 1058.03 585.519 L1051.99 585.66 L1051.99 583.411 L1055.29 583.411 L1055.29 568.585 Q1055.29 567.227 1054.8 566.969 Q1054.3 566.711 1051.99 566.711 L1051.99 564.463 L1059.95 564.064 L1059.95 569.498 Q1061.94 564.064 1066.32 564.064 Q1068.33 564.064 1069.86 565.142 Q1071.4 566.196 1071.4 567.999 Z" fill="#000000" fill-rule="nonzero" fill-opacity="1" /><path clip-path="url(#clip850)" d="M1095.07 581.183 Q1094.03 581.183 1093.51 581.281 Q1092.98 581.363 1092.85 581.478 Q1092.72 581.593 1092.57 581.888 L1085.36 597.234 Q1084.59 598.874 1083.15 600.055 Q1081.72 601.235 1079.92 601.235 Q1078.41 601.235 1077.36 600.317 Q1076.32 599.415 1076.32 598.136 Q1076.32 597.218 1076.9 596.693 Q1077.47 596.185 1078.24 596.185 Q1079.1 596.185 1079.64 596.726 Q1080.19 597.267 1080.19 598.103 Q1080.19 598.645 1079.96 599.054 Q1079.74 599.481 1079.52 599.628 Q1079.33 599.792 1079.11 599.891 Q1079.46 600.022 1079.92 600.022 Q1080.6 600.022 1081.19 599.743 Q1081.8 599.481 1082.19 599.12 Q1082.6 598.776 1083.01 598.153 Q1083.42 597.546 1083.62 597.152 Q1083.82 596.775 1084.11 596.12 L1084.88 594.513 L1078.6 581.183 L1076.46 581.183 L1076.46 579.609 L1080.29 579.707 L1084.46 579.609 L1084.46 581.183 L1082.64 581.183 L1086.9 590.25 L1090.77 581.986 L1090.93 581.593 Q1090.93 581.413 1090.54 581.314 Q1090.15 581.199 1089.75 581.199 L1089.36 581.183 L1089.36 579.609 L1092.41 579.707 Q1093.85 579.707 1095.07 579.609 L1095.07 581.183 Z" fill="#000000" fill-rule="nonzero" fill-opacity="1" /><path clip-path="url(#clip850)" d="M232.389 1423.18 L1140.35 1423.18 L1140.35 815.61 L232.389 815.61  Z" fill="#ffffff" fill-rule="evenodd" fill-opacity="1"/>
<defs>
  <clipPath id="clip853">
    <rect x="232" y="815" width="909" height="609"/>
  </clipPath>
</defs>
<polyline clip-path="url(#clip853)" style="stroke:#000000; stroke-linecap:round; stroke-linejoin:round; stroke-width:2; stroke-opacity:0.1; fill:none" points="258.086,1423.18 258.086,815.61 "/>
<polyline clip-path="url(#clip853)" style="stroke:#000000; stroke-linecap:round; stroke-linejoin:round; stroke-width:2; stroke-opacity:0.1; fill:none" points="510.017,1423.18 510.017,815.61 "/>
<polyline clip-path="url(#clip853)" style="stroke:#000000; stroke-linecap:round; stroke-linejoin:round; stroke-width:2; stroke-opacity:0.1; fill:none" points="761.948,1423.18 761.948,815.61 "/>
<polyline clip-path="url(#clip853)" style="stroke:#000000; stroke-linecap:round; stroke-linejoin:round; stroke-width:2; stroke-opacity:0.1; fill:none" points="1013.88,1423.18 1013.88,815.61 "/>
<polyline clip-path="url(#clip850)" style="stroke:#000000; stroke-linecap:round; stroke-linejoin:round; stroke-width:4; stroke-opacity:1; fill:none" points="232.389,1423.18 1140.35,1423.18 "/>
<polyline clip-path="url(#clip850)" style="stroke:#000000; stroke-linecap:round; stroke-linejoin:round; stroke-width:4; stroke-opacity:1; fill:none" points="258.086,1423.18 258.086,1404.28 "/>
<polyline clip-path="url(#clip850)" style="stroke:#000000; stroke-linecap:round; stroke-linejoin:round; stroke-width:4; stroke-opacity:1; fill:none" points="510.017,1423.18 510.017,1404.28 "/>
<polyline clip-path="url(#clip850)" style="stroke:#000000; stroke-linecap:round; stroke-linejoin:round; stroke-width:4; stroke-opacity:1; fill:none" points="761.948,1423.18 761.948,1404.28 "/>
<polyline clip-path="url(#clip850)" style="stroke:#000000; stroke-linecap:round; stroke-linejoin:round; stroke-width:4; stroke-opacity:1; fill:none" points="1013.88,1423.18 1013.88,1404.28 "/>
<path clip-path="url(#clip850)" d="M258.086 1454.1 Q254.475 1454.1 252.647 1457.66 Q250.841 1461.2 250.841 1468.33 Q250.841 1475.44 252.647 1479.01 Q254.475 1482.55 258.086 1482.55 Q261.721 1482.55 263.526 1479.01 Q265.355 1475.44 265.355 1468.33 Q265.355 1461.2 263.526 1457.66 Q261.721 1454.1 258.086 1454.1 M258.086 1450.39 Q263.896 1450.39 266.952 1455 Q270.031 1459.58 270.031 1468.33 Q270.031 1477.06 266.952 1481.67 Q263.896 1486.25 258.086 1486.25 Q252.276 1486.25 249.197 1481.67 Q246.142 1477.06 246.142 1468.33 Q246.142 1459.58 249.197 1455 Q252.276 1450.39 258.086 1450.39 Z" fill="#000000" fill-rule="nonzero" fill-opacity="1" /><path clip-path="url(#clip850)" d="M500.399 1481.64 L508.038 1481.64 L508.038 1455.28 L499.728 1456.95 L499.728 1452.69 L507.992 1451.02 L512.668 1451.02 L512.668 1481.64 L520.307 1481.64 L520.307 1485.58 L500.399 1485.58 L500.399 1481.64 Z" fill="#000000" fill-rule="nonzero" fill-opacity="1" /><path clip-path="url(#clip850)" d="M756.601 1481.64 L772.92 1481.64 L772.92 1485.58 L750.976 1485.58 L750.976 1481.64 Q753.638 1478.89 758.221 1474.26 Q762.828 1469.61 764.008 1468.27 Q766.254 1465.74 767.133 1464.01 Q768.036 1462.25 768.036 1460.56 Q768.036 1457.8 766.092 1456.07 Q764.17 1454.33 761.069 1454.33 Q758.87 1454.33 756.416 1455.09 Q753.985 1455.86 751.208 1457.41 L751.208 1452.69 Q754.032 1451.55 756.485 1450.97 Q758.939 1450.39 760.976 1450.39 Q766.346 1450.39 769.541 1453.08 Q772.735 1455.77 772.735 1460.26 Q772.735 1462.39 771.925 1464.31 Q771.138 1466.2 769.032 1468.8 Q768.453 1469.47 765.351 1472.69 Q762.249 1475.88 756.601 1481.64 Z" fill="#000000" fill-rule="nonzero" fill-opacity="1" /><path clip-path="url(#clip850)" d="M1018.13 1466.95 Q1021.48 1467.66 1023.36 1469.93 Q1025.26 1472.2 1025.26 1475.53 Q1025.26 1480.65 1021.74 1483.45 Q1018.22 1486.25 1011.74 1486.25 Q1009.56 1486.25 1007.25 1485.81 Q1004.96 1485.39 1002.5 1484.54 L1002.5 1480.02 Q1004.45 1481.16 1006.76 1481.74 Q1009.08 1482.32 1011.6 1482.32 Q1016 1482.32 1018.29 1480.58 Q1020.6 1478.84 1020.6 1475.53 Q1020.6 1472.48 1018.45 1470.77 Q1016.32 1469.03 1012.5 1469.03 L1008.47 1469.03 L1008.47 1465.19 L1012.69 1465.19 Q1016.14 1465.19 1017.96 1463.82 Q1019.79 1462.43 1019.79 1459.84 Q1019.79 1457.18 1017.9 1455.77 Q1016.02 1454.33 1012.5 1454.33 Q1010.58 1454.33 1008.38 1454.75 Q1006.18 1455.16 1003.54 1456.04 L1003.54 1451.88 Q1006.21 1451.14 1008.52 1450.77 Q1010.86 1450.39 1012.92 1450.39 Q1018.24 1450.39 1021.34 1452.83 Q1024.45 1455.23 1024.45 1459.35 Q1024.45 1462.22 1022.8 1464.21 Q1021.16 1466.18 1018.13 1466.95 Z" fill="#000000" fill-rule="nonzero" fill-opacity="1" /><path clip-path="url(#clip850)" d="M556.54 1520.52 L596.74 1520.52 L596.74 1525.93 L579.871 1525.93 L579.871 1568.04 L573.409 1568.04 L573.409 1525.93 L556.54 1525.93 L556.54 1520.52 Z" fill="#000000" fill-rule="nonzero" fill-opacity="1" /><path clip-path="url(#clip850)" d="M600.687 1532.4 L606.543 1532.4 L606.543 1568.04 L600.687 1568.04 L600.687 1532.4 M600.687 1518.52 L606.543 1518.52 L606.543 1525.93 L600.687 1525.93 L600.687 1518.52 Z" fill="#000000" fill-rule="nonzero" fill-opacity="1" /><path clip-path="url(#clip850)" d="M646.551 1539.24 Q648.748 1535.29 651.803 1533.41 Q654.859 1531.54 658.996 1531.54 Q664.566 1531.54 667.59 1535.45 Q670.614 1539.33 670.614 1546.53 L670.614 1568.04 L664.726 1568.04 L664.726 1546.72 Q664.726 1541.59 662.911 1539.11 Q661.097 1536.63 657.373 1536.63 Q652.822 1536.63 650.18 1539.65 Q647.538 1542.68 647.538 1547.9 L647.538 1568.04 L641.65 1568.04 L641.65 1546.72 Q641.65 1541.56 639.836 1539.11 Q638.021 1536.63 634.234 1536.63 Q629.746 1536.63 627.104 1539.68 Q624.462 1542.71 624.462 1547.9 L624.462 1568.04 L618.574 1568.04 L618.574 1532.4 L624.462 1532.4 L624.462 1537.93 Q626.468 1534.66 629.269 1533.1 Q632.069 1531.54 635.921 1531.54 Q639.804 1531.54 642.509 1533.51 Q645.246 1535.48 646.551 1539.24 Z" fill="#000000" fill-rule="nonzero" fill-opacity="1" /><path clip-path="url(#clip850)" d="M712.787 1548.76 L712.787 1551.62 L685.86 1551.62 Q686.242 1557.67 689.488 1560.85 Q692.766 1564 698.591 1564 Q701.965 1564 705.116 1563.17 Q708.299 1562.35 711.418 1560.69 L711.418 1566.23 Q708.267 1567.57 704.957 1568.27 Q701.647 1568.97 698.241 1568.97 Q689.711 1568.97 684.714 1564 Q679.749 1559.04 679.749 1550.57 Q679.749 1541.82 684.459 1536.69 Q689.202 1531.54 697.222 1531.54 Q704.416 1531.54 708.585 1536.18 Q712.787 1540.8 712.787 1548.76 M706.93 1547.04 Q706.867 1542.23 704.225 1539.37 Q701.615 1536.5 697.286 1536.5 Q692.385 1536.5 689.424 1539.27 Q686.496 1542.04 686.051 1547.07 L706.93 1547.04 Z" fill="#000000" fill-rule="nonzero" fill-opacity="1" /><path clip-path="url(#clip850)" d="M757.187 1518.58 Q752.922 1525.9 750.854 1533.06 Q748.785 1540.23 748.785 1547.58 Q748.785 1554.93 750.854 1562.16 Q752.954 1569.35 757.187 1576.64 L752.095 1576.64 Q747.321 1569.16 744.933 1561.93 Q742.578 1554.71 742.578 1547.58 Q742.578 1540.48 744.933 1533.29 Q747.289 1526.09 752.095 1518.58 L757.187 1518.58 Z" fill="#000000" fill-rule="nonzero" fill-opacity="1" /><path clip-path="url(#clip850)" d="M791.276 1533.45 L791.276 1538.98 Q788.793 1537.71 786.12 1537.07 Q783.446 1536.44 780.581 1536.44 Q776.221 1536.44 774.025 1537.77 Q771.86 1539.11 771.86 1541.79 Q771.86 1543.82 773.42 1545 Q774.98 1546.15 779.69 1547.2 L781.695 1547.64 Q787.934 1548.98 790.544 1551.43 Q793.186 1553.85 793.186 1558.21 Q793.186 1563.17 789.239 1566.07 Q785.324 1568.97 778.449 1568.97 Q775.584 1568.97 772.465 1568.39 Q769.378 1567.85 765.94 1566.74 L765.94 1560.69 Q769.187 1562.38 772.338 1563.24 Q775.489 1564.07 778.576 1564.07 Q782.714 1564.07 784.942 1562.66 Q787.17 1561.23 787.17 1558.65 Q787.17 1556.27 785.547 1554.99 Q783.955 1553.72 778.513 1552.54 L776.476 1552.07 Q771.033 1550.92 768.614 1548.56 Q766.195 1546.18 766.195 1542.04 Q766.195 1537.01 769.76 1534.27 Q773.325 1531.54 779.881 1531.54 Q783.128 1531.54 785.992 1532.01 Q788.857 1532.49 791.276 1533.45 Z" fill="#000000" fill-rule="nonzero" fill-opacity="1" /><path clip-path="url(#clip850)" d="M801.588 1518.58 L806.681 1518.58 Q811.455 1526.09 813.81 1533.29 Q816.198 1540.48 816.198 1547.58 Q816.198 1554.71 813.81 1561.93 Q811.455 1569.16 806.681 1576.64 L801.588 1576.64 Q805.821 1569.35 807.89 1562.16 Q809.991 1554.93 809.991 1547.58 Q809.991 1540.23 807.89 1533.06 Q805.821 1525.9 801.588 1518.58 Z" fill="#000000" fill-rule="nonzero" fill-opacity="1" /><polyline clip-path="url(#clip853)" style="stroke:#000000; stroke-linecap:round; stroke-linejoin:round; stroke-width:2; stroke-opacity:0.1; fill:none" points="232.389,1391.11 1140.35,1391.11 "/>
<polyline clip-path="url(#clip853)" style="stroke:#000000; stroke-linecap:round; stroke-linejoin:round; stroke-width:2; stroke-opacity:0.1; fill:none" points="232.389,1272.71 1140.35,1272.71 "/>
<polyline clip-path="url(#clip853)" style="stroke:#000000; stroke-linecap:round; stroke-linejoin:round; stroke-width:2; stroke-opacity:0.1; fill:none" points="232.389,1154.32 1140.35,1154.32 "/>
<polyline clip-path="url(#clip853)" style="stroke:#000000; stroke-linecap:round; stroke-linejoin:round; stroke-width:2; stroke-opacity:0.1; fill:none" points="232.389,1035.92 1140.35,1035.92 "/>
<polyline clip-path="url(#clip853)" style="stroke:#000000; stroke-linecap:round; stroke-linejoin:round; stroke-width:2; stroke-opacity:0.1; fill:none" points="232.389,917.522 1140.35,917.522 "/>
<polyline clip-path="url(#clip850)" style="stroke:#000000; stroke-linecap:round; stroke-linejoin:round; stroke-width:4; stroke-opacity:1; fill:none" points="232.389,1423.18 232.389,815.61 "/>
<polyline clip-path="url(#clip850)" style="stroke:#000000; stroke-linecap:round; stroke-linejoin:round; stroke-width:4; stroke-opacity:1; fill:none" points="232.389,1391.11 251.287,1391.11 "/>
<polyline clip-path="url(#clip850)" style="stroke:#000000; stroke-linecap:round; stroke-linejoin:round; stroke-width:4; stroke-opacity:1; fill:none" points="232.389,1272.71 251.287,1272.71 "/>
<polyline clip-path="url(#clip850)" style="stroke:#000000; stroke-linecap:round; stroke-linejoin:round; stroke-width:4; stroke-opacity:1; fill:none" points="232.389,1154.32 251.287,1154.32 "/>
<polyline clip-path="url(#clip850)" style="stroke:#000000; stroke-linecap:round; stroke-linejoin:round; stroke-width:4; stroke-opacity:1; fill:none" points="232.389,1035.92 251.287,1035.92 "/>
<polyline clip-path="url(#clip850)" style="stroke:#000000; stroke-linecap:round; stroke-linejoin:round; stroke-width:4; stroke-opacity:1; fill:none" points="232.389,917.522 251.287,917.522 "/>
<path clip-path="url(#clip850)" d="M184.445 1376.91 Q180.834 1376.91 179.005 1380.47 Q177.2 1384.02 177.2 1391.14 Q177.2 1398.25 179.005 1401.82 Q180.834 1405.36 184.445 1405.36 Q188.079 1405.36 189.885 1401.82 Q191.713 1398.25 191.713 1391.14 Q191.713 1384.02 189.885 1380.47 Q188.079 1376.91 184.445 1376.91 M184.445 1373.2 Q190.255 1373.2 193.311 1377.81 Q196.389 1382.39 196.389 1391.14 Q196.389 1399.87 193.311 1404.48 Q190.255 1409.06 184.445 1409.06 Q178.635 1409.06 175.556 1404.48 Q172.501 1399.87 172.501 1391.14 Q172.501 1382.39 175.556 1377.81 Q178.635 1373.2 184.445 1373.2 Z" fill="#000000" fill-rule="nonzero" fill-opacity="1" /><path clip-path="url(#clip850)" d="M176.482 1286.06 L184.121 1286.06 L184.121 1259.69 L175.811 1261.36 L175.811 1257.1 L184.075 1255.43 L188.75 1255.43 L188.75 1286.06 L196.389 1286.06 L196.389 1289.99 L176.482 1289.99 L176.482 1286.06 Z" fill="#000000" fill-rule="nonzero" fill-opacity="1" /><path clip-path="url(#clip850)" d="M180.07 1167.66 L196.389 1167.66 L196.389 1171.6 L174.445 1171.6 L174.445 1167.66 Q177.107 1164.91 181.69 1160.28 Q186.297 1155.62 187.477 1154.28 Q189.723 1151.76 190.602 1150.02 Q191.505 1148.26 191.505 1146.57 Q191.505 1143.82 189.561 1142.08 Q187.639 1140.35 184.538 1140.35 Q182.338 1140.35 179.885 1141.11 Q177.454 1141.87 174.677 1143.42 L174.677 1138.7 Q177.501 1137.57 179.954 1136.99 Q182.408 1136.41 184.445 1136.41 Q189.815 1136.41 193.01 1139.1 Q196.204 1141.78 196.204 1146.27 Q196.204 1148.4 195.394 1150.32 Q194.607 1152.22 192.5 1154.81 Q191.922 1155.48 188.82 1158.7 Q185.718 1161.9 180.07 1167.66 Z" fill="#000000" fill-rule="nonzero" fill-opacity="1" /><path clip-path="url(#clip850)" d="M189.26 1034.56 Q192.616 1035.28 194.491 1037.55 Q196.389 1039.82 196.389 1043.15 Q196.389 1048.27 192.871 1051.07 Q189.352 1053.87 182.871 1053.87 Q180.695 1053.87 178.38 1053.43 Q176.089 1053.01 173.635 1052.16 L173.635 1047.64 Q175.579 1048.78 177.894 1049.36 Q180.209 1049.93 182.732 1049.93 Q187.13 1049.93 189.422 1048.2 Q191.737 1046.46 191.737 1043.15 Q191.737 1040.1 189.584 1038.38 Q187.454 1036.65 183.635 1036.65 L179.607 1036.65 L179.607 1032.81 L183.82 1032.81 Q187.269 1032.81 189.098 1031.44 Q190.926 1030.05 190.926 1027.46 Q190.926 1024.8 189.028 1023.38 Q187.153 1021.95 183.635 1021.95 Q181.713 1021.95 179.514 1022.37 Q177.315 1022.78 174.677 1023.66 L174.677 1019.5 Q177.339 1018.75 179.653 1018.38 Q181.991 1018.01 184.051 1018.01 Q189.375 1018.01 192.477 1020.44 Q195.579 1022.85 195.579 1026.97 Q195.579 1029.84 193.936 1031.83 Q192.292 1033.8 189.26 1034.56 Z" fill="#000000" fill-rule="nonzero" fill-opacity="1" /><path clip-path="url(#clip850)" d="M186.806 904.316 L175.001 922.765 L186.806 922.765 L186.806 904.316 M185.579 900.242 L191.459 900.242 L191.459 922.765 L196.389 922.765 L196.389 926.653 L191.459 926.653 L191.459 934.802 L186.806 934.802 L186.806 926.653 L171.204 926.653 L171.204 922.14 L185.579 900.242 Z" fill="#000000" fill-rule="nonzero" fill-opacity="1" /><path clip-path="url(#clip850)" d="M78.662 1120.2 Q79.1128 1120.2 80.1756 1120.49 L105.361 1126.8 Q110.964 1128.19 114.894 1132.69 Q118.823 1137.17 118.823 1142.26 Q118.823 1145.32 117.18 1147.28 Q115.57 1149.25 113.09 1149.25 Q110.9 1149.25 109.837 1148.09 Q108.807 1146.93 108.807 1145.54 Q108.807 1145.09 108.935 1144.61 Q109.064 1144.13 109.612 1143.61 Q110.159 1143.1 111.093 1143.1 Q112.607 1143.1 113.799 1144.42 Q114.346 1145.06 114.475 1145.67 Q114.604 1146.25 114.604 1147.25 Q115.505 1146.86 116.117 1146.16 Q116.729 1145.45 116.955 1144.64 Q117.212 1143.84 117.277 1143.32 Q117.373 1142.77 117.373 1142.26 Q117.373 1138.14 113.219 1134.98 Q111.963 1134.05 110.707 1133.37 Q109.483 1132.66 107.969 1132.15 Q106.488 1131.63 105.683 1131.41 Q104.878 1131.15 103.042 1130.7 Q106.037 1133.69 106.037 1137.36 Q106.037 1138.91 105.618 1140.29 Q105.2 1141.65 104.33 1142.84 Q103.428 1144.03 101.85 1144.74 Q100.272 1145.42 98.1787 1145.42 Q95.9565 1145.42 92.9292 1144.55 Q89.9018 1143.68 84.3302 1141.58 Q81.2062 1140.46 79.6925 1140.46 Q78.9518 1140.46 78.5009 1140.62 Q78.0178 1140.78 77.8568 1141.1 Q77.6636 1141.42 77.6314 1141.61 Q77.5992 1141.78 77.5992 1142.1 Q77.5992 1144 79.5315 1145.77 Q81.4639 1147.54 85.7795 1148.76 Q86.5846 1149.02 86.7778 1149.18 Q86.9711 1149.34 86.9711 1149.83 Q86.9389 1150.63 86.2947 1150.63 Q86.0371 1150.63 85.0387 1150.34 Q84.0081 1150.05 82.4945 1149.38 Q80.9486 1148.67 79.5637 1147.7 Q78.1467 1146.74 77.1483 1145.22 Q76.1499 1143.68 76.1499 1141.9 Q76.1499 1139.49 77.728 1138.01 Q79.2739 1136.49 81.5605 1136.49 Q82.4945 1136.49 83.3318 1136.75 Q84.137 1136.98 86.2947 1137.81 Q94.9903 1141.2 99.2415 1141.2 Q100.272 1141.2 101.142 1141.04 Q101.979 1140.84 102.816 1140.42 Q103.621 1140 104.105 1139.17 Q104.555 1138.3 104.555 1137.11 Q104.555 1135.59 103.847 1134.18 Q103.106 1132.73 102.108 1131.82 Q101.109 1130.89 100.272 1130.34 Q99.4025 1129.76 98.9516 1129.63 L87.0999 1126.67 L81.8181 1125.35 Q78.9518 1124.74 78.2433 1124.45 Q77.567 1124.06 77.2127 1123.39 Q76.8584 1122.71 76.8584 1122.13 Q76.8584 1121.33 77.3415 1120.78 Q77.8246 1120.2 78.662 1120.2 Z" fill="#000000" fill-rule="nonzero" fill-opacity="1" /><path clip-path="url(#clip850)" d="M136.963 1113.45 Q136.129 1113.45 135.881 1113.38 Q135.633 1113.29 135.25 1112.93 L125.376 1104.07 Q119.92 1099.23 115.163 1099.23 Q112.075 1099.23 109.865 1100.85 Q107.656 1102.45 107.656 1105.4 Q107.656 1107.43 108.896 1109.15 Q110.136 1110.86 112.345 1111.65 Q112.3 1111.51 112.3 1111.04 Q112.3 1109.89 113.022 1109.26 Q113.743 1108.61 114.712 1108.61 Q115.952 1108.61 116.561 1109.42 Q117.147 1110.21 117.147 1110.99 Q117.147 1111.31 117.079 1111.74 Q117.012 1112.14 116.381 1112.8 Q115.727 1113.45 114.577 1113.45 Q111.353 1113.45 108.783 1111.02 Q106.213 1108.56 106.213 1104.82 Q106.213 1100.58 108.738 1097.81 Q111.241 1095.01 115.163 1095.01 Q116.538 1095.01 117.801 1095.44 Q119.041 1095.85 120.01 1096.41 Q120.98 1096.95 122.535 1098.44 Q124.091 1099.93 125.195 1101.12 Q126.3 1102.32 128.645 1105 L133.401 1109.89 L133.401 1101.57 Q133.401 1097.51 133.041 1097.2 Q132.387 1096.75 128.938 1096.18 L128.938 1095.01 L136.963 1096.32 L136.963 1113.45 Z" fill="#000000" fill-rule="nonzero" fill-opacity="1" /><polyline clip-path="url(#clip853)" style="stroke:#009af9; stroke-linecap:round; stroke-linejoin:round; stroke-width:4; stroke-opacity:1; fill:none" points="258.086,1391.11 283.279,1021.12 308.473,836.124 333.666,832.805 358.859,946.227 384.052,1074.21 409.245,1152.26 434.438,1176.54 459.631,1164.53 484.824,1128.11 510.017,1069.99 535.21,1248.98 560.403,1334.88 585.597,1345.26 610.79,1335.18 635.983,1366.99 661.176,1386.7 686.369,1399.51 711.562,1397.71 736.755,1402.94 761.948,1403.69 787.141,1405.98 812.334,1403.39 837.528,1402.93 862.721,1400.62 887.914,1399.84 913.107,1397.69 938.3,1396.65 963.493,1395.02 988.686,1394.26 1013.88,1393.14 1039.07,1392.61 1064.27,1391.9 1089.46,1391.62 1114.65,1391.22 "/>
<path clip-path="url(#clip850)" d="M1444.8 1423.18 L2352.76 1423.18 L2352.76 47.2441 L1444.8 47.2441  Z" fill="#ffffff" fill-rule="evenodd" fill-opacity="1"/>
<defs>
  <clipPath id="clip854">
    <rect x="1444" y="47" width="909" height="1377"/>
  </clipPath>
</defs>
<polyline clip-path="url(#clip854)" style="stroke:#000000; stroke-linecap:round; stroke-linejoin:round; stroke-width:2; stroke-opacity:0.1; fill:none" points="1470.49,1423.18 1470.49,47.2441 "/>
<polyline clip-path="url(#clip854)" style="stroke:#000000; stroke-linecap:round; stroke-linejoin:round; stroke-width:2; stroke-opacity:0.1; fill:none" points="1722.42,1423.18 1722.42,47.2441 "/>
<polyline clip-path="url(#clip854)" style="stroke:#000000; stroke-linecap:round; stroke-linejoin:round; stroke-width:2; stroke-opacity:0.1; fill:none" points="1974.36,1423.18 1974.36,47.2441 "/>
<polyline clip-path="url(#clip854)" style="stroke:#000000; stroke-linecap:round; stroke-linejoin:round; stroke-width:2; stroke-opacity:0.1; fill:none" points="2226.29,1423.18 2226.29,47.2441 "/>
<polyline clip-path="url(#clip850)" style="stroke:#000000; stroke-linecap:round; stroke-linejoin:round; stroke-width:4; stroke-opacity:1; fill:none" points="1444.8,1423.18 2352.76,1423.18 "/>
<polyline clip-path="url(#clip850)" style="stroke:#000000; stroke-linecap:round; stroke-linejoin:round; stroke-width:4; stroke-opacity:1; fill:none" points="1470.49,1423.18 1470.49,1404.28 "/>
<polyline clip-path="url(#clip850)" style="stroke:#000000; stroke-linecap:round; stroke-linejoin:round; stroke-width:4; stroke-opacity:1; fill:none" points="1722.42,1423.18 1722.42,1404.28 "/>
<polyline clip-path="url(#clip850)" style="stroke:#000000; stroke-linecap:round; stroke-linejoin:round; stroke-width:4; stroke-opacity:1; fill:none" points="1974.36,1423.18 1974.36,1404.28 "/>
<polyline clip-path="url(#clip850)" style="stroke:#000000; stroke-linecap:round; stroke-linejoin:round; stroke-width:4; stroke-opacity:1; fill:none" points="2226.29,1423.18 2226.29,1404.28 "/>
<path clip-path="url(#clip850)" d="M1470.49 1454.1 Q1466.88 1454.1 1465.05 1457.66 Q1463.25 1461.2 1463.25 1468.33 Q1463.25 1475.44 1465.05 1479.01 Q1466.88 1482.55 1470.49 1482.55 Q1474.13 1482.55 1475.93 1479.01 Q1477.76 1475.44 1477.76 1468.33 Q1477.76 1461.2 1475.93 1457.66 Q1474.13 1454.1 1470.49 1454.1 M1470.49 1450.39 Q1476.3 1450.39 1479.36 1455 Q1482.44 1459.58 1482.44 1468.33 Q1482.44 1477.06 1479.36 1481.67 Q1476.3 1486.25 1470.49 1486.25 Q1464.68 1486.25 1461.6 1481.67 Q1458.55 1477.06 1458.55 1468.33 Q1458.55 1459.58 1461.6 1455 Q1464.68 1450.39 1470.49 1450.39 Z" fill="#000000" fill-rule="nonzero" fill-opacity="1" /><path clip-path="url(#clip850)" d="M1712.81 1481.64 L1720.45 1481.64 L1720.45 1455.28 L1712.14 1456.95 L1712.14 1452.69 L1720.4 1451.02 L1725.08 1451.02 L1725.08 1481.64 L1732.71 1481.64 L1732.71 1485.58 L1712.81 1485.58 L1712.81 1481.64 Z" fill="#000000" fill-rule="nonzero" fill-opacity="1" /><path clip-path="url(#clip850)" d="M1969.01 1481.64 L1985.33 1481.64 L1985.33 1485.58 L1963.38 1485.58 L1963.38 1481.64 Q1966.05 1478.89 1970.63 1474.26 Q1975.24 1469.61 1976.42 1468.27 Q1978.66 1465.74 1979.54 1464.01 Q1980.44 1462.25 1980.44 1460.56 Q1980.44 1457.8 1978.5 1456.07 Q1976.58 1454.33 1973.48 1454.33 Q1971.28 1454.33 1968.82 1455.09 Q1966.39 1455.86 1963.61 1457.41 L1963.61 1452.69 Q1966.44 1451.55 1968.89 1450.97 Q1971.35 1450.39 1973.38 1450.39 Q1978.75 1450.39 1981.95 1453.08 Q1985.14 1455.77 1985.14 1460.26 Q1985.14 1462.39 1984.33 1464.31 Q1983.55 1466.2 1981.44 1468.8 Q1980.86 1469.47 1977.76 1472.69 Q1974.66 1475.88 1969.01 1481.64 Z" fill="#000000" fill-rule="nonzero" fill-opacity="1" /><path clip-path="url(#clip850)" d="M2230.53 1466.95 Q2233.89 1467.66 2235.77 1469.93 Q2237.66 1472.2 2237.66 1475.53 Q2237.66 1480.65 2234.15 1483.45 Q2230.63 1486.25 2224.15 1486.25 Q2221.97 1486.25 2219.65 1485.81 Q2217.36 1485.39 2214.91 1484.54 L2214.91 1480.02 Q2216.85 1481.16 2219.17 1481.74 Q2221.48 1482.32 2224.01 1482.32 Q2228.4 1482.32 2230.7 1480.58 Q2233.01 1478.84 2233.01 1475.53 Q2233.01 1472.48 2230.86 1470.77 Q2228.73 1469.03 2224.91 1469.03 L2220.88 1469.03 L2220.88 1465.19 L2225.09 1465.19 Q2228.54 1465.19 2230.37 1463.82 Q2232.2 1462.43 2232.2 1459.84 Q2232.2 1457.18 2230.3 1455.77 Q2228.43 1454.33 2224.91 1454.33 Q2222.99 1454.33 2220.79 1454.75 Q2218.59 1455.16 2215.95 1456.04 L2215.95 1451.88 Q2218.61 1451.14 2220.93 1450.77 Q2223.27 1450.39 2225.33 1450.39 Q2230.65 1450.39 2233.75 1452.83 Q2236.85 1455.23 2236.85 1459.35 Q2236.85 1462.22 2235.21 1464.21 Q2233.57 1466.18 2230.53 1466.95 Z" fill="#000000" fill-rule="nonzero" fill-opacity="1" /><path clip-path="url(#clip850)" d="M1768.95 1520.52 L1809.15 1520.52 L1809.15 1525.93 L1792.28 1525.93 L1792.28 1568.04 L1785.82 1568.04 L1785.82 1525.93 L1768.95 1525.93 L1768.95 1520.52 Z" fill="#000000" fill-rule="nonzero" fill-opacity="1" /><path clip-path="url(#clip850)" d="M1813.09 1532.4 L1818.95 1532.4 L1818.95 1568.04 L1813.09 1568.04 L1813.09 1532.4 M1813.09 1518.52 L1818.95 1518.52 L1818.95 1525.93 L1813.09 1525.93 L1813.09 1518.52 Z" fill="#000000" fill-rule="nonzero" fill-opacity="1" /><path clip-path="url(#clip850)" d="M1858.96 1539.24 Q1861.15 1535.29 1864.21 1533.41 Q1867.27 1531.54 1871.4 1531.54 Q1876.97 1531.54 1880 1535.45 Q1883.02 1539.33 1883.02 1546.53 L1883.02 1568.04 L1877.13 1568.04 L1877.13 1546.72 Q1877.13 1541.59 1875.32 1539.11 Q1873.5 1536.63 1869.78 1536.63 Q1865.23 1536.63 1862.59 1539.65 Q1859.95 1542.68 1859.95 1547.9 L1859.95 1568.04 L1854.06 1568.04 L1854.06 1546.72 Q1854.06 1541.56 1852.24 1539.11 Q1850.43 1536.63 1846.64 1536.63 Q1842.15 1536.63 1839.51 1539.68 Q1836.87 1542.71 1836.87 1547.9 L1836.87 1568.04 L1830.98 1568.04 L1830.98 1532.4 L1836.87 1532.4 L1836.87 1537.93 Q1838.87 1534.66 1841.68 1533.1 Q1844.48 1531.54 1848.33 1531.54 Q1852.21 1531.54 1854.92 1533.51 Q1857.65 1535.48 1858.96 1539.24 Z" fill="#000000" fill-rule="nonzero" fill-opacity="1" /><path clip-path="url(#clip850)" d="M1925.19 1548.76 L1925.19 1551.62 L1898.27 1551.62 Q1898.65 1557.67 1901.9 1560.85 Q1905.17 1564 1911 1564 Q1914.37 1564 1917.52 1563.17 Q1920.71 1562.35 1923.83 1560.69 L1923.83 1566.23 Q1920.67 1567.57 1917.36 1568.27 Q1914.05 1568.97 1910.65 1568.97 Q1902.12 1568.97 1897.12 1564 Q1892.16 1559.04 1892.16 1550.57 Q1892.16 1541.82 1896.87 1536.69 Q1901.61 1531.54 1909.63 1531.54 Q1916.82 1531.54 1920.99 1536.18 Q1925.19 1540.8 1925.19 1548.76 M1919.34 1547.04 Q1919.27 1542.23 1916.63 1539.37 Q1914.02 1536.5 1909.69 1536.5 Q1904.79 1536.5 1901.83 1539.27 Q1898.9 1542.04 1898.46 1547.07 L1919.34 1547.04 Z" fill="#000000" fill-rule="nonzero" fill-opacity="1" /><path clip-path="url(#clip850)" d="M1969.59 1518.58 Q1965.33 1525.9 1963.26 1533.06 Q1961.19 1540.23 1961.19 1547.58 Q1961.19 1554.93 1963.26 1562.16 Q1965.36 1569.35 1969.59 1576.64 L1964.5 1576.64 Q1959.73 1569.16 1957.34 1561.93 Q1954.99 1554.71 1954.99 1547.58 Q1954.99 1540.48 1957.34 1533.29 Q1959.7 1526.09 1964.5 1518.58 L1969.59 1518.58 Z" fill="#000000" fill-rule="nonzero" fill-opacity="1" /><path clip-path="url(#clip850)" d="M2003.68 1533.45 L2003.68 1538.98 Q2001.2 1537.71 1998.53 1537.07 Q1995.85 1536.44 1992.99 1536.44 Q1988.63 1536.44 1986.43 1537.77 Q1984.27 1539.11 1984.27 1541.79 Q1984.27 1543.82 1985.83 1545 Q1987.39 1546.15 1992.1 1547.2 L1994.1 1547.64 Q2000.34 1548.98 2002.95 1551.43 Q2005.59 1553.85 2005.59 1558.21 Q2005.59 1563.17 2001.65 1566.07 Q1997.73 1568.97 1990.86 1568.97 Q1987.99 1568.97 1984.87 1568.39 Q1981.79 1567.85 1978.35 1566.74 L1978.35 1560.69 Q1981.59 1562.38 1984.75 1563.24 Q1987.9 1564.07 1990.98 1564.07 Q1995.12 1564.07 1997.35 1562.66 Q1999.58 1561.23 1999.58 1558.65 Q1999.58 1556.27 1997.95 1554.99 Q1996.36 1553.72 1990.92 1552.54 L1988.88 1552.07 Q1983.44 1550.92 1981.02 1548.56 Q1978.6 1546.18 1978.6 1542.04 Q1978.6 1537.01 1982.17 1534.27 Q1985.73 1531.54 1992.29 1531.54 Q1995.54 1531.54 1998.4 1532.01 Q2001.26 1532.49 2003.68 1533.45 Z" fill="#000000" fill-rule="nonzero" fill-opacity="1" /><path clip-path="url(#clip850)" d="M2014 1518.58 L2019.09 1518.58 Q2023.86 1526.09 2026.22 1533.29 Q2028.6 1540.48 2028.6 1547.58 Q2028.6 1554.71 2026.22 1561.93 Q2023.86 1569.16 2019.09 1576.64 L2014 1576.64 Q2018.23 1569.35 2020.3 1562.16 Q2022.4 1554.93 2022.4 1547.58 Q2022.4 1540.23 2020.3 1533.06 Q2018.23 1525.9 2014 1518.58 Z" fill="#000000" fill-rule="nonzero" fill-opacity="1" /><polyline clip-path="url(#clip854)" style="stroke:#000000; stroke-linecap:round; stroke-linejoin:round; stroke-width:2; stroke-opacity:0.1; fill:none" points="1444.8,1384.24 2352.76,1384.24 "/>
<polyline clip-path="url(#clip854)" style="stroke:#000000; stroke-linecap:round; stroke-linejoin:round; stroke-width:2; stroke-opacity:0.1; fill:none" points="1444.8,1167.9 2352.76,1167.9 "/>
<polyline clip-path="url(#clip854)" style="stroke:#000000; stroke-linecap:round; stroke-linejoin:round; stroke-width:2; stroke-opacity:0.1; fill:none" points="1444.8,951.554 2352.76,951.554 "/>
<polyline clip-path="url(#clip854)" style="stroke:#000000; stroke-linecap:round; stroke-linejoin:round; stroke-width:2; stroke-opacity:0.1; fill:none" points="1444.8,735.212 2352.76,735.212 "/>
<polyline clip-path="url(#clip854)" style="stroke:#000000; stroke-linecap:round; stroke-linejoin:round; stroke-width:2; stroke-opacity:0.1; fill:none" points="1444.8,518.87 2352.76,518.87 "/>
<polyline clip-path="url(#clip854)" style="stroke:#000000; stroke-linecap:round; stroke-linejoin:round; stroke-width:2; stroke-opacity:0.1; fill:none" points="1444.8,302.528 2352.76,302.528 "/>
<polyline clip-path="url(#clip854)" style="stroke:#000000; stroke-linecap:round; stroke-linejoin:round; stroke-width:2; stroke-opacity:0.1; fill:none" points="1444.8,86.1857 2352.76,86.1857 "/>
<polyline clip-path="url(#clip850)" style="stroke:#000000; stroke-linecap:round; stroke-linejoin:round; stroke-width:4; stroke-opacity:1; fill:none" points="1444.8,1423.18 1444.8,47.2441 "/>
<polyline clip-path="url(#clip850)" style="stroke:#000000; stroke-linecap:round; stroke-linejoin:round; stroke-width:4; stroke-opacity:1; fill:none" points="1444.8,1384.24 1463.69,1384.24 "/>
<polyline clip-path="url(#clip850)" style="stroke:#000000; stroke-linecap:round; stroke-linejoin:round; stroke-width:4; stroke-opacity:1; fill:none" points="1444.8,1167.9 1463.69,1167.9 "/>
<polyline clip-path="url(#clip850)" style="stroke:#000000; stroke-linecap:round; stroke-linejoin:round; stroke-width:4; stroke-opacity:1; fill:none" points="1444.8,951.554 1463.69,951.554 "/>
<polyline clip-path="url(#clip850)" style="stroke:#000000; stroke-linecap:round; stroke-linejoin:round; stroke-width:4; stroke-opacity:1; fill:none" points="1444.8,735.212 1463.69,735.212 "/>
<polyline clip-path="url(#clip850)" style="stroke:#000000; stroke-linecap:round; stroke-linejoin:round; stroke-width:4; stroke-opacity:1; fill:none" points="1444.8,518.87 1463.69,518.87 "/>
<polyline clip-path="url(#clip850)" style="stroke:#000000; stroke-linecap:round; stroke-linejoin:round; stroke-width:4; stroke-opacity:1; fill:none" points="1444.8,302.528 1463.69,302.528 "/>
<polyline clip-path="url(#clip850)" style="stroke:#000000; stroke-linecap:round; stroke-linejoin:round; stroke-width:4; stroke-opacity:1; fill:none" points="1444.8,86.1857 1463.69,86.1857 "/>
<path clip-path="url(#clip850)" d="M1302.85 1384.69 L1332.52 1384.69 L1332.52 1388.62 L1302.85 1388.62 L1302.85 1384.69 Z" fill="#000000" fill-rule="nonzero" fill-opacity="1" /><path clip-path="url(#clip850)" d="M1343.43 1397.58 L1351.07 1397.58 L1351.07 1371.22 L1342.76 1372.88 L1342.76 1368.62 L1351.02 1366.96 L1355.7 1366.96 L1355.7 1397.58 L1363.33 1397.58 L1363.33 1401.52 L1343.43 1401.52 L1343.43 1397.58 Z" fill="#000000" fill-rule="nonzero" fill-opacity="1" /><path clip-path="url(#clip850)" d="M1372.78 1395.64 L1377.66 1395.64 L1377.66 1401.52 L1372.78 1401.52 L1372.78 1395.64 Z" fill="#000000" fill-rule="nonzero" fill-opacity="1" /><path clip-path="url(#clip850)" d="M1387.89 1366.96 L1406.25 1366.96 L1406.25 1370.89 L1392.18 1370.89 L1392.18 1379.37 Q1393.19 1379.02 1394.21 1378.86 Q1395.23 1378.67 1396.25 1378.67 Q1402.04 1378.67 1405.42 1381.84 Q1408.8 1385.01 1408.8 1390.43 Q1408.8 1396.01 1405.32 1399.11 Q1401.85 1402.19 1395.53 1402.19 Q1393.36 1402.19 1391.09 1401.82 Q1388.84 1401.45 1386.44 1400.71 L1386.44 1396.01 Q1388.52 1397.14 1390.74 1397.7 Q1392.96 1398.25 1395.44 1398.25 Q1399.44 1398.25 1401.78 1396.15 Q1404.12 1394.04 1404.12 1390.43 Q1404.12 1386.82 1401.78 1384.71 Q1399.44 1382.61 1395.44 1382.61 Q1393.57 1382.61 1391.69 1383.02 Q1389.84 1383.44 1387.89 1384.32 L1387.89 1366.96 Z" fill="#000000" fill-rule="nonzero" fill-opacity="1" /><path clip-path="url(#clip850)" d="M1301.85 1168.35 L1331.53 1168.35 L1331.53 1172.28 L1301.85 1172.28 L1301.85 1168.35 Z" fill="#000000" fill-rule="nonzero" fill-opacity="1" /><path clip-path="url(#clip850)" d="M1342.43 1181.24 L1350.07 1181.24 L1350.07 1154.88 L1341.76 1156.54 L1341.76 1152.28 L1350.02 1150.62 L1354.7 1150.62 L1354.7 1181.24 L1362.34 1181.24 L1362.34 1185.18 L1342.43 1185.18 L1342.43 1181.24 Z" fill="#000000" fill-rule="nonzero" fill-opacity="1" /><path clip-path="url(#clip850)" d="M1371.78 1179.3 L1376.67 1179.3 L1376.67 1185.18 L1371.78 1185.18 L1371.78 1179.3 Z" fill="#000000" fill-rule="nonzero" fill-opacity="1" /><path clip-path="url(#clip850)" d="M1396.85 1153.69 Q1393.24 1153.69 1391.41 1157.26 Q1389.61 1160.8 1389.61 1167.93 Q1389.61 1175.04 1391.41 1178.6 Q1393.24 1182.14 1396.85 1182.14 Q1400.49 1182.14 1402.29 1178.6 Q1404.12 1175.04 1404.12 1167.93 Q1404.12 1160.8 1402.29 1157.26 Q1400.49 1153.69 1396.85 1153.69 M1396.85 1149.99 Q1402.66 1149.99 1405.72 1154.6 Q1408.8 1159.18 1408.8 1167.93 Q1408.8 1176.66 1405.72 1181.26 Q1402.66 1185.85 1396.85 1185.85 Q1391.04 1185.85 1387.96 1181.26 Q1384.91 1176.66 1384.91 1167.93 Q1384.91 1159.18 1387.96 1154.6 Q1391.04 1149.99 1396.85 1149.99 Z" fill="#000000" fill-rule="nonzero" fill-opacity="1" /><path clip-path="url(#clip850)" d="M1302.85 952.005 L1332.52 952.005 L1332.52 955.941 L1302.85 955.941 L1302.85 952.005 Z" fill="#000000" fill-rule="nonzero" fill-opacity="1" /><path clip-path="url(#clip850)" d="M1352.62 937.353 Q1349.01 937.353 1347.18 940.918 Q1345.37 944.459 1345.37 951.589 Q1345.37 958.695 1347.18 962.26 Q1349.01 965.802 1352.62 965.802 Q1356.25 965.802 1358.06 962.26 Q1359.88 958.695 1359.88 951.589 Q1359.88 944.459 1358.06 940.918 Q1356.25 937.353 1352.62 937.353 M1352.62 933.649 Q1358.43 933.649 1361.48 938.256 Q1364.56 942.839 1364.56 951.589 Q1364.56 960.316 1361.48 964.922 Q1358.43 969.505 1352.62 969.505 Q1346.81 969.505 1343.73 964.922 Q1340.67 960.316 1340.67 951.589 Q1340.67 942.839 1343.73 938.256 Q1346.81 933.649 1352.62 933.649 Z" fill="#000000" fill-rule="nonzero" fill-opacity="1" /><path clip-path="url(#clip850)" d="M1372.78 962.954 L1377.66 962.954 L1377.66 968.834 L1372.78 968.834 L1372.78 962.954 Z" fill="#000000" fill-rule="nonzero" fill-opacity="1" /><path clip-path="url(#clip850)" d="M1387.89 934.274 L1406.25 934.274 L1406.25 938.209 L1392.18 938.209 L1392.18 946.681 Q1393.19 946.334 1394.21 946.172 Q1395.23 945.987 1396.25 945.987 Q1402.04 945.987 1405.42 949.158 Q1408.8 952.33 1408.8 957.746 Q1408.8 963.325 1405.32 966.427 Q1401.85 969.505 1395.53 969.505 Q1393.36 969.505 1391.09 969.135 Q1388.84 968.765 1386.44 968.024 L1386.44 963.325 Q1388.52 964.459 1390.74 965.015 Q1392.96 965.57 1395.44 965.57 Q1399.44 965.57 1401.78 963.464 Q1404.12 961.357 1404.12 957.746 Q1404.12 954.135 1401.78 952.029 Q1399.44 949.922 1395.44 949.922 Q1393.57 949.922 1391.69 950.339 Q1389.84 950.755 1387.89 951.635 L1387.89 934.274 Z" fill="#000000" fill-rule="nonzero" fill-opacity="1" /><path clip-path="url(#clip850)" d="M1351.62 721.011 Q1348.01 721.011 1346.18 724.575 Q1344.38 728.117 1344.38 735.247 Q1344.38 742.353 1346.18 745.918 Q1348.01 749.46 1351.62 749.46 Q1355.26 749.46 1357.06 745.918 Q1358.89 742.353 1358.89 735.247 Q1358.89 728.117 1357.06 724.575 Q1355.26 721.011 1351.62 721.011 M1351.62 717.307 Q1357.43 717.307 1360.49 721.913 Q1363.57 726.497 1363.57 735.247 Q1363.57 743.973 1360.49 748.58 Q1357.43 753.163 1351.62 753.163 Q1345.81 753.163 1342.73 748.58 Q1339.68 743.973 1339.68 735.247 Q1339.68 726.497 1342.73 721.913 Q1345.81 717.307 1351.62 717.307 Z" fill="#000000" fill-rule="nonzero" fill-opacity="1" /><path clip-path="url(#clip850)" d="M1371.78 746.612 L1376.67 746.612 L1376.67 752.492 L1371.78 752.492 L1371.78 746.612 Z" fill="#000000" fill-rule="nonzero" fill-opacity="1" /><path clip-path="url(#clip850)" d="M1396.85 721.011 Q1393.24 721.011 1391.41 724.575 Q1389.61 728.117 1389.61 735.247 Q1389.61 742.353 1391.41 745.918 Q1393.24 749.46 1396.85 749.46 Q1400.49 749.46 1402.29 745.918 Q1404.12 742.353 1404.12 735.247 Q1404.12 728.117 1402.29 724.575 Q1400.49 721.011 1396.85 721.011 M1396.85 717.307 Q1402.66 717.307 1405.72 721.913 Q1408.8 726.497 1408.8 735.247 Q1408.8 743.973 1405.72 748.58 Q1402.66 753.163 1396.85 753.163 Q1391.04 753.163 1387.96 748.58 Q1384.91 743.973 1384.91 735.247 Q1384.91 726.497 1387.96 721.913 Q1391.04 717.307 1396.85 717.307 Z" fill="#000000" fill-rule="nonzero" fill-opacity="1" /><path clip-path="url(#clip850)" d="M1352.62 504.669 Q1349.01 504.669 1347.18 508.233 Q1345.37 511.775 1345.37 518.905 Q1345.37 526.011 1347.18 529.576 Q1349.01 533.117 1352.62 533.117 Q1356.25 533.117 1358.06 529.576 Q1359.88 526.011 1359.88 518.905 Q1359.88 511.775 1358.06 508.233 Q1356.25 504.669 1352.62 504.669 M1352.62 500.965 Q1358.43 500.965 1361.48 505.571 Q1364.56 510.155 1364.56 518.905 Q1364.56 527.631 1361.48 532.238 Q1358.43 536.821 1352.62 536.821 Q1346.81 536.821 1343.73 532.238 Q1340.67 527.631 1340.67 518.905 Q1340.67 510.155 1343.73 505.571 Q1346.81 500.965 1352.62 500.965 Z" fill="#000000" fill-rule="nonzero" fill-opacity="1" /><path clip-path="url(#clip850)" d="M1372.78 530.27 L1377.66 530.27 L1377.66 536.15 L1372.78 536.15 L1372.78 530.27 Z" fill="#000000" fill-rule="nonzero" fill-opacity="1" /><path clip-path="url(#clip850)" d="M1387.89 501.59 L1406.25 501.59 L1406.25 505.525 L1392.18 505.525 L1392.18 513.997 Q1393.19 513.65 1394.21 513.488 Q1395.23 513.303 1396.25 513.303 Q1402.04 513.303 1405.42 516.474 Q1408.8 519.645 1408.8 525.062 Q1408.8 530.641 1405.32 533.742 Q1401.85 536.821 1395.53 536.821 Q1393.36 536.821 1391.09 536.451 Q1388.84 536.08 1386.44 535.34 L1386.44 530.641 Q1388.52 531.775 1390.74 532.33 Q1392.96 532.886 1395.44 532.886 Q1399.44 532.886 1401.78 530.78 Q1404.12 528.673 1404.12 525.062 Q1404.12 521.451 1401.78 519.344 Q1399.44 517.238 1395.44 517.238 Q1393.57 517.238 1391.69 517.655 Q1389.84 518.071 1387.89 518.951 L1387.89 501.59 Z" fill="#000000" fill-rule="nonzero" fill-opacity="1" /><path clip-path="url(#clip850)" d="M1342.43 315.873 L1350.07 315.873 L1350.07 289.507 L1341.76 291.174 L1341.76 286.914 L1350.02 285.248 L1354.7 285.248 L1354.7 315.873 L1362.34 315.873 L1362.34 319.808 L1342.43 319.808 L1342.43 315.873 Z" fill="#000000" fill-rule="nonzero" fill-opacity="1" /><path clip-path="url(#clip850)" d="M1371.78 313.928 L1376.67 313.928 L1376.67 319.808 L1371.78 319.808 L1371.78 313.928 Z" fill="#000000" fill-rule="nonzero" fill-opacity="1" /><path clip-path="url(#clip850)" d="M1396.85 288.326 Q1393.24 288.326 1391.41 291.891 Q1389.61 295.433 1389.61 302.562 Q1389.61 309.669 1391.41 313.234 Q1393.24 316.775 1396.85 316.775 Q1400.49 316.775 1402.29 313.234 Q1404.12 309.669 1404.12 302.562 Q1404.12 295.433 1402.29 291.891 Q1400.49 288.326 1396.85 288.326 M1396.85 284.623 Q1402.66 284.623 1405.72 289.229 Q1408.8 293.813 1408.8 302.562 Q1408.8 311.289 1405.72 315.896 Q1402.66 320.479 1396.85 320.479 Q1391.04 320.479 1387.96 315.896 Q1384.91 311.289 1384.91 302.562 Q1384.91 293.813 1387.96 289.229 Q1391.04 284.623 1396.85 284.623 Z" fill="#000000" fill-rule="nonzero" fill-opacity="1" /><path clip-path="url(#clip850)" d="M1343.43 99.5305 L1351.07 99.5305 L1351.07 73.1649 L1342.76 74.8316 L1342.76 70.5723 L1351.02 68.9057 L1355.7 68.9057 L1355.7 99.5305 L1363.33 99.5305 L1363.33 103.466 L1343.43 103.466 L1343.43 99.5305 Z" fill="#000000" fill-rule="nonzero" fill-opacity="1" /><path clip-path="url(#clip850)" d="M1372.78 97.5861 L1377.66 97.5861 L1377.66 103.466 L1372.78 103.466 L1372.78 97.5861 Z" fill="#000000" fill-rule="nonzero" fill-opacity="1" /><path clip-path="url(#clip850)" d="M1387.89 68.9057 L1406.25 68.9057 L1406.25 72.8408 L1392.18 72.8408 L1392.18 81.313 Q1393.19 80.9658 1394.21 80.8038 Q1395.23 80.6186 1396.25 80.6186 Q1402.04 80.6186 1405.42 83.7899 Q1408.8 86.9611 1408.8 92.3778 Q1408.8 97.9564 1405.32 101.058 Q1401.85 104.137 1395.53 104.137 Q1393.36 104.137 1391.09 103.767 Q1388.84 103.396 1386.44 102.655 L1386.44 97.9564 Q1388.52 99.0907 1390.74 99.6463 Q1392.96 100.202 1395.44 100.202 Q1399.44 100.202 1401.78 98.0953 Q1404.12 95.9889 1404.12 92.3778 Q1404.12 88.7667 1401.78 86.6602 Q1399.44 84.5537 1395.44 84.5537 Q1393.57 84.5537 1391.69 84.9704 Q1389.84 85.3871 1387.89 86.2667 L1387.89 68.9057 Z" fill="#000000" fill-rule="nonzero" fill-opacity="1" /><path clip-path="url(#clip850)" d="M1232.84 732.675 Q1236.99 733.512 1239.37 734.64 Q1243.01 736.475 1243.01 739.535 Q1243.01 741.661 1241.82 743.271 Q1240.6 744.849 1238.57 745.396 Q1239.37 746.008 1239.92 746.556 Q1240.47 747.071 1241.31 748.07 Q1242.11 749.068 1242.56 750.421 Q1243.01 751.741 1243.01 753.255 Q1243.01 754.414 1242.79 755.477 Q1242.59 756.54 1242.05 757.667 Q1241.47 758.762 1240.6 759.567 Q1239.73 760.34 1238.31 760.855 Q1236.89 761.371 1235.09 761.371 Q1232.84 761.371 1229.78 760.501 Q1226.72 759.599 1221.24 757.538 Q1218.34 756.411 1216.73 756.411 Q1215.99 756.411 1215.51 756.572 Q1215.03 756.733 1214.87 757.055 Q1214.67 757.345 1214.64 757.538 Q1214.58 757.731 1214.58 758.053 Q1214.58 760.05 1216.6 761.789 Q1218.63 763.528 1222.76 764.72 Q1223.56 764.978 1223.75 765.139 Q1223.95 765.3 1223.95 765.783 Q1223.92 766.588 1223.27 766.588 Q1223.01 766.588 1222.02 766.298 Q1220.98 766.008 1219.47 765.332 Q1217.93 764.623 1216.54 763.657 Q1215.12 762.691 1214.12 761.177 Q1213.13 759.631 1213.13 757.86 Q1213.13 755.445 1214.7 753.963 Q1216.25 752.45 1218.54 752.45 Q1219.95 752.45 1222.69 753.577 Q1232.19 757.152 1236.15 757.152 Q1241.53 757.152 1241.53 753.061 Q1241.53 751.709 1240.98 750.453 Q1240.44 749.165 1239.66 748.327 Q1238.89 747.49 1238.05 746.846 Q1237.22 746.169 1236.67 745.88 Q1236.12 745.557 1235.99 745.525 L1216.15 740.598 Q1215.38 740.405 1214.87 740.05 Q1214.32 739.664 1214.12 739.213 Q1213.93 738.762 1213.9 738.504 Q1213.84 738.247 1213.84 738.021 Q1213.84 737.216 1214.32 736.669 Q1214.8 736.089 1215.64 736.089 Q1215.8 736.089 1216.57 736.282 Q1217.31 736.443 1218.41 736.701 Q1219.47 736.959 1220.05 737.087 Q1224.11 738.118 1224.53 738.215 L1231.64 740.05 Q1232.06 740.147 1233.42 740.469 Q1234.77 740.759 1235.48 740.92 Q1236.15 741.081 1237.09 741.242 Q1237.99 741.371 1238.5 741.371 Q1240.12 741.371 1240.82 740.888 Q1241.53 740.405 1241.53 739.342 Q1241.53 738.343 1240.86 737.57 Q1240.15 736.765 1238.79 736.153 Q1237.41 735.541 1236.28 735.187 Q1235.16 734.833 1233.38 734.382 Q1232.61 734.221 1232.42 734.092 Q1232.19 733.931 1232.19 733.48 Q1232.19 732.675 1232.84 732.675 Z" fill="#000000" fill-rule="nonzero" fill-opacity="1" /><path clip-path="url(#clip850)" d="M1234.93 725.97 L1233.49 725.97 Q1233.49 720.424 1230.53 717.561 Q1230.53 716.772 1230.71 716.637 Q1230.89 716.501 1231.73 716.501 L1257.63 716.501 Q1259.01 716.501 1259.44 715.825 Q1259.86 715.149 1259.86 712.195 L1259.86 710.73 L1261.28 710.73 Q1261.15 712.353 1261.15 718.215 Q1261.15 724.076 1261.28 725.677 L1259.86 725.677 L1259.86 724.211 Q1259.86 721.303 1259.46 720.604 Q1259.03 719.905 1257.63 719.905 L1233.71 719.905 Q1234.93 722.318 1234.93 725.97 Z" fill="#000000" fill-rule="nonzero" fill-opacity="1" /><polyline clip-path="url(#clip854)" style="stroke:#009af9; stroke-linecap:round; stroke-linejoin:round; stroke-width:4; stroke-opacity:1; fill:none" points="1470.49,86.1857 1495.69,86.1857 1495.69,86.1857 1520.88,86.1857 1520.88,86.1857 1546.07,86.1857 1546.07,86.1857 1571.27,86.1857 1571.27,86.1857 1596.46,86.1857 1596.46,86.1857 1621.65,86.1857 1621.65,86.1857 1646.85,86.1857 1646.85,86.1857 1672.04,86.1857 1672.04,86.1857 1697.23,86.1857 1697.23,86.1857 1722.42,86.1857 1722.42,546.725 1747.62,546.725 1747.62,671.3 1772.81,671.3 1772.81,674.804 1798,674.804 1798,672.149 1823.2,672.149 1823.2,756.506 1848.39,756.506 1848.39,787.187 1873.58,787.187 1873.58,802.691 1898.78,802.691 1898.78,790.184 1923.97,790.184 1923.97,797.337 1949.16,797.337 1949.16,791.242 1974.36,791.242 1974.36,789.542 1999.55,789.542 1999.55,777.594 2024.74,777.594 2024.74,772.666 2049.93,772.666 2049.93,763.762 2075.13,763.762 2075.13,759.329 2100.32,759.329 2100.32,752.153 2125.51,752.153 2125.51,748.481 2150.71,748.481 2150.71,743.694 2175.9,743.694 2175.9,741.403 2201.09,741.403 2201.09,738.429 2226.29,738.429 2226.29,737.136 2251.48,737.136 2251.48,735.489 2276.67,735.489 2276.67,734.958 2301.87,734.958 2301.87,734.178 2327.06,734.178 2327.06,734.087 "/>
<polyline clip-path="url(#clip854)" style="stroke:#c271d2; stroke-linecap:round; stroke-linejoin:round; stroke-width:6; stroke-opacity:1; fill:none" stroke-dasharray="3, 6" points="1470.49,1384.24 1495.69,1384.24 1520.88,1384.24 1546.07,1384.24 1571.27,1384.24 1596.46,1384.24 1621.65,1384.24 1646.85,1384.24 1672.04,1384.24 1697.23,1384.24 1722.42,1384.24 1747.62,1384.24 1772.81,1384.24 1798,1384.24 1823.2,1384.24 1848.39,1384.24 1873.58,1384.24 1898.78,1384.24 1923.97,1384.24 1949.16,1384.24 1974.36,1384.24 1999.55,1384.24 2024.74,1384.24 2049.93,1384.24 2075.13,1384.24 2100.32,1384.24 2125.51,1384.24 2150.71,1384.24 2175.9,1384.24 2201.09,1384.24 2226.29,1384.24 2251.48,1384.24 2276.67,1384.24 2301.87,1384.24 2327.06,1384.24 "/>
<polyline clip-path="url(#clip854)" style="stroke:#ac8d18; stroke-linecap:round; stroke-linejoin:round; stroke-width:6; stroke-opacity:1; fill:none" stroke-dasharray="3, 6" points="1470.49,86.1857 1495.69,86.1857 1520.88,86.1857 1546.07,86.1857 1571.27,86.1857 1596.46,86.1857 1621.65,86.1857 1646.85,86.1857 1672.04,86.1857 1697.23,86.1857 1722.42,86.1857 1747.62,86.1857 1772.81,86.1857 1798,86.1857 1823.2,86.1857 1848.39,86.1857 1873.58,86.1857 1898.78,86.1857 1923.97,86.1857 1949.16,86.1857 1974.36,86.1857 1999.55,86.1857 2024.74,86.1857 2049.93,86.1857 2075.13,86.1857 2100.32,86.1857 2125.51,86.1857 2150.71,86.1857 2175.9,86.1857 2201.09,86.1857 2226.29,86.1857 2251.48,86.1857 2276.67,86.1857 2301.87,86.1857 2327.06,86.1857 "/>
<path clip-path="url(#clip850)" d="M2124.19 300.469 L2322.49 300.469 L2322.49 93.1086 L2124.19 93.1086  Z" fill="#ffffff" fill-rule="evenodd" fill-opacity="1"/>
<polyline clip-path="url(#clip850)" style="stroke:#000000; stroke-linecap:round; stroke-linejoin:round; stroke-width:4; stroke-opacity:1; fill:none" points="2124.19,300.469 2322.49,300.469 2322.49,93.1086 2124.19,93.1086 2124.19,300.469 "/>
<polyline clip-path="url(#clip850)" style="stroke:#009af9; stroke-linecap:round; stroke-linejoin:round; stroke-width:4; stroke-opacity:1; fill:none" points="2134.28,144.949 2194.81,144.949 "/>
<path clip-path="url(#clip850)" d="M2232.25 155.503 L2223.75 155.784 L2223.75 152.06 Q2221.57 155.784 2216.84 155.784 Q2214.9 155.784 2213.45 155.527 Q2212.02 155.269 2210.75 154.637 Q2209.51 153.981 2208.85 152.716 Q2208.2 151.451 2208.2 149.601 L2208.2 138.428 Q2208.2 137.07 2207.71 136.812 Q2207.21 136.555 2204.9 136.555 L2204.9 134.306 L2213.68 133.908 L2213.68 150.28 Q2213.68 151.428 2213.75 152.013 Q2213.84 152.576 2214.19 153.138 Q2214.57 153.676 2215.37 153.887 Q2216.16 154.075 2217.52 154.075 Q2220.17 154.075 2221.81 152.294 Q2223.47 150.514 2223.47 147.587 L2223.47 138.428 Q2223.47 137.07 2222.95 136.812 Q2222.46 136.555 2220.14 136.555 L2220.14 134.306 L2228.93 133.908 L2228.93 151.381 Q2228.93 152.739 2229.42 152.997 Q2229.93 153.255 2232.25 153.255 L2232.25 155.503 Z" fill="#000000" fill-rule="nonzero" fill-opacity="1" /><polyline clip-path="url(#clip850)" style="stroke:#c271d2; stroke-linecap:round; stroke-linejoin:round; stroke-width:6; stroke-opacity:1; fill:none" stroke-dasharray="3, 6" points="2134.28,196.789 2194.81,196.789 "/>
<path clip-path="url(#clip850)" d="M2232.25 200.508 L2223.75 200.79 L2223.75 197.065 Q2221.57 200.79 2216.84 200.79 Q2214.9 200.79 2213.45 200.532 Q2212.02 200.274 2210.75 199.642 Q2209.51 198.986 2208.85 197.721 Q2208.2 196.456 2208.2 194.606 L2208.2 183.434 Q2208.2 182.075 2207.71 181.817 Q2207.21 181.56 2204.9 181.56 L2204.9 179.311 L2213.68 178.913 L2213.68 195.285 Q2213.68 196.433 2213.75 197.019 Q2213.84 197.581 2214.19 198.143 Q2214.57 198.682 2215.37 198.892 Q2216.16 199.08 2217.52 199.08 Q2220.17 199.08 2221.81 197.3 Q2223.47 195.519 2223.47 192.592 L2223.47 183.434 Q2223.47 182.075 2222.95 181.817 Q2222.46 181.56 2220.14 181.56 L2220.14 179.311 L2228.93 178.913 L2228.93 196.386 Q2228.93 197.745 2229.42 198.002 Q2229.93 198.26 2232.25 198.26 L2232.25 200.508 Z" fill="#000000" fill-rule="nonzero" fill-opacity="1" /><path clip-path="url(#clip850)" d="M2266.98 214.459 L2262.75 214.361 L2258.52 214.459 L2258.52 212.885 L2260.84 212.885 L2260.84 203.819 Q2260.84 201.982 2260.36 201.277 Q2259.88 200.556 2258.95 200.556 Q2258.13 200.556 2257.28 200.884 Q2256.44 201.212 2255.67 201.835 Q2254.92 202.458 2254.42 203.507 Q2253.95 204.556 2253.95 205.868 L2253.95 212.885 L2256.28 212.885 L2256.28 214.459 L2252.05 214.361 L2247.8 214.459 L2247.8 212.885 L2250.13 212.885 L2250.13 203.819 Q2250.13 201.982 2249.65 201.277 Q2249.18 200.556 2248.24 200.556 Q2247.42 200.556 2246.57 200.884 Q2245.73 201.212 2244.96 201.835 Q2244.21 202.458 2243.72 203.507 Q2243.24 204.556 2243.24 205.868 L2243.24 212.885 L2245.55 212.885 L2245.55 214.459 L2241.32 214.361 L2237.09 214.459 L2237.09 212.885 L2239.41 212.885 L2239.41 202.507 Q2239.41 201.556 2239.06 201.376 Q2238.72 201.195 2237.09 201.195 L2237.09 199.621 L2242.87 199.343 L2242.87 202.982 Q2243.73 201.294 2245.21 200.326 Q2246.7 199.343 2248.78 199.343 Q2253.11 199.343 2253.82 202.573 Q2254.59 201.212 2256 200.277 Q2257.41 199.343 2259.49 199.343 Q2262.13 199.343 2263.39 200.49 Q2264.67 201.622 2264.67 204.179 L2264.67 212.885 L2266.98 212.885 L2266.98 214.459 Z" fill="#000000" fill-rule="nonzero" fill-opacity="1" /><path clip-path="url(#clip850)" d="M2276.83 214.459 L2272.9 214.361 L2268.8 214.459 L2268.8 212.885 L2271.13 212.885 L2271.13 202.507 Q2271.13 201.556 2270.78 201.376 Q2270.44 201.195 2268.9 201.195 L2268.9 199.621 L2274.75 199.343 L2274.75 212.885 L2276.83 212.885 L2276.83 214.459 M2274.44 192.227 Q2275.21 192.997 2275.21 194.08 Q2275.21 195.162 2274.44 195.932 Q2273.68 196.703 2272.6 196.703 Q2271.52 196.703 2270.75 195.932 Q2269.98 195.162 2269.98 194.08 Q2269.98 192.997 2270.75 192.227 Q2271.52 191.456 2272.6 191.456 Q2273.68 191.456 2274.44 192.227 Z" fill="#000000" fill-rule="nonzero" fill-opacity="1" /><path clip-path="url(#clip850)" d="M2298.82 214.459 L2294.57 214.361 L2290.34 214.459 L2290.34 212.885 L2292.67 212.885 L2292.67 203.819 Q2292.67 201.999 2292.19 201.277 Q2291.73 200.556 2290.82 200.556 Q2289.98 200.556 2289.13 200.884 Q2288.29 201.212 2287.52 201.835 Q2286.77 202.458 2286.29 203.507 Q2285.82 204.556 2285.82 205.868 L2285.82 212.885 L2288.13 212.885 L2288.13 214.459 L2283.9 214.361 L2279.67 214.459 L2279.67 212.885 L2281.98 212.885 L2281.98 202.507 Q2281.98 201.556 2281.64 201.376 Q2281.29 201.195 2279.67 201.195 L2279.67 199.621 L2285.44 199.343 L2285.44 202.982 Q2285.8 202.277 2286.29 201.687 Q2286.78 201.081 2287.49 200.539 Q2288.19 199.982 2289.18 199.67 Q2290.18 199.343 2291.33 199.343 Q2293.93 199.343 2295.21 200.474 Q2296.49 201.605 2296.49 204.179 L2296.49 212.885 L2298.82 212.885 L2298.82 214.459 Z" fill="#000000" fill-rule="nonzero" fill-opacity="1" /><polyline clip-path="url(#clip850)" style="stroke:#ac8d18; stroke-linecap:round; stroke-linejoin:round; stroke-width:6; stroke-opacity:1; fill:none" stroke-dasharray="3, 6" points="2134.28,248.629 2194.81,248.629 "/>
<path clip-path="url(#clip850)" d="M2232.25 254.563 L2223.75 254.844 L2223.75 251.12 Q2221.57 254.844 2216.84 254.844 Q2214.9 254.844 2213.45 254.587 Q2212.02 254.329 2210.75 253.697 Q2209.51 253.041 2208.85 251.776 Q2208.2 250.511 2208.2 248.661 L2208.2 237.488 Q2208.2 236.13 2207.71 235.872 Q2207.21 235.615 2204.9 235.615 L2204.9 233.366 L2213.68 232.968 L2213.68 249.34 Q2213.68 250.488 2213.75 251.073 Q2213.84 251.636 2214.19 252.198 Q2214.57 252.736 2215.37 252.947 Q2216.16 253.135 2217.52 253.135 Q2220.17 253.135 2221.81 251.354 Q2223.47 249.574 2223.47 246.647 L2223.47 237.488 Q2223.47 236.13 2222.95 235.872 Q2222.46 235.615 2220.14 235.615 L2220.14 233.366 L2228.93 232.968 L2228.93 250.441 Q2228.93 251.799 2229.42 252.057 Q2229.93 252.315 2232.25 252.315 L2232.25 254.563 Z" fill="#000000" fill-rule="nonzero" fill-opacity="1" /><path clip-path="url(#clip850)" d="M2266.98 263.888 L2262.75 263.789 L2258.52 263.888 L2258.52 262.314 L2260.84 262.314 L2260.84 253.247 Q2260.84 251.411 2260.36 250.706 Q2259.88 249.984 2258.95 249.984 Q2258.13 249.984 2257.28 250.312 Q2256.44 250.64 2255.67 251.263 Q2254.92 251.886 2254.42 252.935 Q2253.95 253.985 2253.95 255.296 L2253.95 262.314 L2256.28 262.314 L2256.28 263.888 L2252.05 263.789 L2247.8 263.888 L2247.8 262.314 L2250.13 262.314 L2250.13 253.247 Q2250.13 251.411 2249.65 250.706 Q2249.18 249.984 2248.24 249.984 Q2247.42 249.984 2246.57 250.312 Q2245.73 250.64 2244.96 251.263 Q2244.21 251.886 2243.72 252.935 Q2243.24 253.985 2243.24 255.296 L2243.24 262.314 L2245.55 262.314 L2245.55 263.888 L2241.32 263.789 L2237.09 263.888 L2237.09 262.314 L2239.41 262.314 L2239.41 251.935 Q2239.41 250.984 2239.06 250.804 Q2238.72 250.624 2237.09 250.624 L2237.09 249.05 L2242.87 248.771 L2242.87 252.411 Q2243.73 250.722 2245.21 249.755 Q2246.7 248.771 2248.78 248.771 Q2253.11 248.771 2253.82 252.001 Q2254.59 250.64 2256 249.705 Q2257.41 248.771 2259.49 248.771 Q2262.13 248.771 2263.39 249.919 Q2264.67 251.05 2264.67 253.608 L2264.67 262.314 L2266.98 262.314 L2266.98 263.888 Z" fill="#000000" fill-rule="nonzero" fill-opacity="1" /><path clip-path="url(#clip850)" d="M2287.01 263.084 Q2287.01 263.379 2286.94 263.56 Q2286.88 263.724 2286.7 263.789 Q2286.53 263.855 2286.39 263.871 Q2286.24 263.888 2285.93 263.888 L2284.32 263.888 Q2283.32 263.888 2282.62 263.707 Q2281.93 263.511 2281.58 263.281 Q2281.24 263.052 2281.06 262.642 Q2280.88 262.232 2280.84 261.986 Q2280.83 261.723 2280.83 261.297 Q2280.21 262.494 2278.94 263.297 Q2277.7 264.084 2275.83 264.084 Q2275.04 264.084 2274.25 264.002 Q2273.47 263.92 2272.55 263.675 Q2271.63 263.412 2270.94 263.019 Q2270.25 262.609 2269.79 261.904 Q2269.33 261.182 2269.33 260.264 Q2269.33 255.444 2280.25 254.985 L2280.25 253.854 Q2280.25 249.886 2276.57 249.886 Q2275.22 249.886 2274.14 250.115 Q2274.24 250.181 2274.38 250.345 Q2274.53 250.509 2274.7 250.919 Q2274.88 251.329 2274.88 251.771 Q2274.88 252.771 2274.24 253.329 Q2273.61 253.886 2272.76 253.886 Q2271.97 253.886 2271.32 253.345 Q2270.68 252.788 2270.68 251.771 Q2270.68 248.672 2276.7 248.672 Q2280.32 248.672 2282.19 250.099 Q2284.07 251.509 2284.07 253.854 L2284.07 261.068 Q2284.07 261.428 2284.11 261.592 Q2284.14 261.756 2284.32 261.953 Q2284.5 262.15 2284.93 262.232 Q2285.37 262.297 2286.12 262.314 Q2286.42 262.314 2286.57 262.346 Q2286.71 262.363 2286.86 262.543 Q2287.01 262.724 2287.01 263.084 M2280.25 259.215 L2280.25 256.034 Q2279.68 256.067 2279.14 256.133 Q2278.6 256.198 2277.71 256.362 Q2276.83 256.51 2276.11 256.821 Q2275.4 257.116 2274.71 257.559 Q2274.04 257.985 2273.65 258.674 Q2273.27 259.362 2273.27 260.231 Q2273.27 261.346 2274.16 262.117 Q2275.04 262.888 2276.32 262.888 Q2276.65 262.888 2277.06 262.822 Q2277.47 262.756 2278.06 262.527 Q2278.65 262.281 2279.11 261.904 Q2279.58 261.527 2279.91 260.838 Q2280.25 260.133 2280.25 259.215 Z" fill="#000000" fill-rule="nonzero" fill-opacity="1" /><path clip-path="url(#clip850)" d="M2306.01 263.888 L2302.32 263.789 L2298.28 263.888 L2298.28 262.314 L2299.6 262.314 L2295.91 257.952 L2292.64 261.609 L2292.41 261.937 Q2292.41 262.084 2292.79 262.199 Q2293.18 262.314 2293.64 262.314 L2293.64 263.888 L2290.18 263.789 L2287.1 263.888 L2287.1 262.314 Q2288.13 262.314 2288.61 262.297 Q2289.1 262.265 2289.66 262.117 Q2290.22 261.969 2290.5 261.674 L2294.89 256.739 L2289.66 250.558 L2287.27 250.558 L2287.27 248.984 L2290.97 249.082 L2295.02 248.984 L2295.02 250.558 L2293.68 250.558 L2296.97 254.411 L2299.79 251.263 Q2299.81 251.247 2300.07 250.853 Q2299.55 250.558 2298.79 250.558 L2298.79 248.984 L2302.25 249.082 L2305.33 248.984 L2305.33 250.558 Q2303.99 250.558 2303.28 250.656 Q2302.6 250.738 2302.38 250.853 Q2302.19 250.968 2301.91 251.263 L2297.99 255.624 L2303.63 262.314 L2306.01 262.314 L2306.01 263.888 Z" fill="#000000" fill-rule="nonzero" fill-opacity="1" /></svg>
