<?xml version="1.0" encoding="utf-8"?>
<svg xmlns="http://www.w3.org/2000/svg" xmlns:xlink="http://www.w3.org/1999/xlink" width="600" height="400" viewBox="0 0 2400 1600">
<defs>
  <clipPath id="clip760">
    <rect x="0" y="0" width="2400" height="1600"/>
  </clipPath>
</defs>
<path clip-path="url(#clip760)" d="M0 1600 L2400 1600 L2400 0 L0 0  Z" fill="#ffffff" fill-rule="evenodd" fill-opacity="1"/>
<defs>
  <clipPath id="clip761">
    <rect x="480" y="0" width="1681" height="1600"/>
  </clipPath>
</defs>
<path clip-path="url(#clip760)" d="M203.964 1423.18 L1110.81 1423.18 L1110.81 47.2441 L203.964 47.2441  Z" fill="#ffffff" fill-rule="evenodd" fill-opacity="1"/>
<defs>
  <clipPath id="clip762">
    <rect x="203" y="47" width="908" height="1377"/>
  </clipPath>
</defs>
<polyline clip-path="url(#clip762)" style="stroke:#000000; stroke-linecap:round; stroke-linejoin:round; stroke-width:2; stroke-opacity:0.1; fill:none" points="229.629,1423.18 229.629,47.2441 "/>
<polyline clip-path="url(#clip762)" style="stroke:#000000; stroke-linecap:round; stroke-linejoin:round; stroke-width:2; stroke-opacity:0.1; fill:none" points="481.252,1423.18 481.252,47.2441 "/>
<polyline clip-path="url(#clip762)" style="stroke:#000000; stroke-linecap:round; stroke-linejoin:round; stroke-width:2; stroke-opacity:0.1; fill:none" points="732.874,1423.18 732.874,47.2441 "/>
<polyline clip-path="url(#clip762)" style="stroke:#000000; stroke-linecap:round; stroke-linejoin:round; stroke-width:2; stroke-opacity:0.1; fill:none" points="984.497,1423.18 984.497,47.2441 "/>
<polyline clip-path="url(#clip760)" style="stroke:#000000; stroke-linecap:round; stroke-linejoin:round; stroke-width:4; stroke-opacity:1; fill:none" points="203.964,1423.18 1110.81,1423.18 "/>
<polyline clip-path="url(#clip760)" style="stroke:#000000; stroke-linecap:round; stroke-linejoin:round; stroke-width:4; stroke-opacity:1; fill:none" points="229.629,1423.18 229.629,1404.28 "/>
<polyline clip-path="url(#clip760)" style="stroke:#000000; stroke-linecap:round; stroke-linejoin:round; stroke-width:4; stroke-opacity:1; fill:none" points="481.252,1423.18 481.252,1404.28 "/>
<polyline clip-path="url(#clip760)" style="stroke:#000000; stroke-linecap:round; stroke-linejoin:round; stroke-width:4; stroke-opacity:1; fill:none" points="732.874,1423.18 732.874,1404.28 "/>
<polyline clip-path="url(#clip760)" style="stroke:#000000; stroke-linecap:round; stroke-linejoin:round; stroke-width:4; stroke-opacity:1; fill:none" points="984.497,1423.18 984.497,1404.28 "/>
<path clip-path="url(#clip760)" d="M229.629 1454.1 Q226.018 1454.1 224.189 1457.66 Q222.384 1461.2 222.384 1468.33 Q222.384 1475.44 224.189 1479.01 Q226.018 1482.55 229.629 1482.55 Q233.263 1482.55 235.069 1479.01 Q236.898 1475.44 236.898 1468.33 Q236.898 1461.2 235.069 1457.66 Q233.263 1454.1 229.629 1454.1 M229.629 1450.39 Q235.439 1450.39 238.495 1455 Q241.573 1459.58 241.573 1468.33 Q241.573 1477.06 238.495 1481.67 Q235.439 1486.25 229.629 1486.25 Q223.819 1486.25 220.74 1481.67 Q217.685 1477.06 217.685 1468.33 Q217.685 1459.58 220.74 1455 Q223.819 1450.39 229.629 1450.39 Z" fill="#000000" fill-rule="nonzero" fill-opacity="1" /><path clip-path="url(#clip760)" d="M471.634 1481.64 L479.273 1481.64 L479.273 1455.28 L470.962 1456.95 L470.962 1452.69 L479.226 1451.02 L483.902 1451.02 L483.902 1481.64 L491.541 1481.64 L491.541 1485.58 L471.634 1485.58 L471.634 1481.64 Z" fill="#000000" fill-rule="nonzero" fill-opacity="1" /><path clip-path="url(#clip760)" d="M727.527 1481.64 L743.847 1481.64 L743.847 1485.58 L721.902 1485.58 L721.902 1481.64 Q724.564 1478.89 729.148 1474.26 Q733.754 1469.61 734.935 1468.27 Q737.18 1465.74 738.06 1464.01 Q738.962 1462.25 738.962 1460.56 Q738.962 1457.8 737.018 1456.07 Q735.097 1454.33 731.995 1454.33 Q729.796 1454.33 727.342 1455.09 Q724.912 1455.86 722.134 1457.41 L722.134 1452.69 Q724.958 1451.55 727.411 1450.97 Q729.865 1450.39 731.902 1450.39 Q737.273 1450.39 740.467 1453.08 Q743.661 1455.77 743.661 1460.26 Q743.661 1462.39 742.851 1464.31 Q742.064 1466.2 739.958 1468.8 Q739.379 1469.47 736.277 1472.69 Q733.175 1475.88 727.527 1481.64 Z" fill="#000000" fill-rule="nonzero" fill-opacity="1" /><path clip-path="url(#clip760)" d="M988.745 1466.95 Q992.101 1467.66 993.976 1469.93 Q995.874 1472.2 995.874 1475.53 Q995.874 1480.65 992.356 1483.45 Q988.837 1486.25 982.356 1486.25 Q980.18 1486.25 977.865 1485.81 Q975.574 1485.39 973.12 1484.54 L973.12 1480.02 Q975.064 1481.16 977.379 1481.74 Q979.694 1482.32 982.217 1482.32 Q986.615 1482.32 988.907 1480.58 Q991.222 1478.84 991.222 1475.53 Q991.222 1472.48 989.069 1470.77 Q986.939 1469.03 983.12 1469.03 L979.092 1469.03 L979.092 1465.19 L983.305 1465.19 Q986.754 1465.19 988.583 1463.82 Q990.411 1462.43 990.411 1459.84 Q990.411 1457.18 988.513 1455.77 Q986.638 1454.33 983.12 1454.33 Q981.199 1454.33 978.999 1454.75 Q976.8 1455.16 974.162 1456.04 L974.162 1451.88 Q976.824 1451.14 979.138 1450.77 Q981.476 1450.39 983.536 1450.39 Q988.861 1450.39 991.962 1452.83 Q995.064 1455.23 995.064 1459.35 Q995.064 1462.22 993.421 1464.21 Q991.777 1466.18 988.745 1466.95 Z" fill="#000000" fill-rule="nonzero" fill-opacity="1" /><path clip-path="url(#clip760)" d="M527.559 1520.52 L567.758 1520.52 L567.758 1525.93 L550.889 1525.93 L550.889 1568.04 L544.428 1568.04 L544.428 1525.93 L527.559 1525.93 L527.559 1520.52 Z" fill="#000000" fill-rule="nonzero" fill-opacity="1" /><path clip-path="url(#clip760)" d="M571.705 1532.4 L577.562 1532.4 L577.562 1568.04 L571.705 1568.04 L571.705 1532.4 M571.705 1518.52 L577.562 1518.52 L577.562 1525.93 L571.705 1525.93 L571.705 1518.52 Z" fill="#000000" fill-rule="nonzero" fill-opacity="1" /><path clip-path="url(#clip760)" d="M617.57 1539.24 Q619.766 1535.29 622.822 1533.41 Q625.877 1531.54 630.015 1531.54 Q635.585 1531.54 638.609 1535.45 Q641.633 1539.33 641.633 1546.53 L641.633 1568.04 L635.744 1568.04 L635.744 1546.72 Q635.744 1541.59 633.93 1539.11 Q632.116 1536.63 628.392 1536.63 Q623.84 1536.63 621.199 1539.65 Q618.557 1542.68 618.557 1547.9 L618.557 1568.04 L612.669 1568.04 L612.669 1546.72 Q612.669 1541.56 610.854 1539.11 Q609.04 1536.63 605.252 1536.63 Q600.765 1536.63 598.123 1539.68 Q595.481 1542.71 595.481 1547.9 L595.481 1568.04 L589.593 1568.04 L589.593 1532.4 L595.481 1532.4 L595.481 1537.93 Q597.486 1534.66 600.287 1533.1 Q603.088 1531.54 606.939 1531.54 Q610.822 1531.54 613.528 1533.51 Q616.265 1535.48 617.57 1539.24 Z" fill="#000000" fill-rule="nonzero" fill-opacity="1" /><path clip-path="url(#clip760)" d="M683.805 1548.76 L683.805 1551.62 L656.878 1551.62 Q657.26 1557.67 660.507 1560.85 Q663.785 1564 669.61 1564 Q672.984 1564 676.135 1563.17 Q679.317 1562.35 682.437 1560.69 L682.437 1566.23 Q679.286 1567.57 675.975 1568.27 Q672.665 1568.97 669.26 1568.97 Q660.73 1568.97 655.733 1564 Q650.767 1559.04 650.767 1550.57 Q650.767 1541.82 655.478 1536.69 Q660.22 1531.54 668.241 1531.54 Q675.434 1531.54 679.604 1536.18 Q683.805 1540.8 683.805 1548.76 M677.949 1547.04 Q677.885 1542.23 675.243 1539.37 Q672.633 1536.5 668.305 1536.5 Q663.403 1536.5 660.443 1539.27 Q657.515 1542.04 657.069 1547.07 L677.949 1547.04 Z" fill="#000000" fill-rule="nonzero" fill-opacity="1" /><path clip-path="url(#clip760)" d="M728.206 1518.58 Q723.941 1525.9 721.872 1533.06 Q719.803 1540.23 719.803 1547.58 Q719.803 1554.93 721.872 1562.16 Q723.973 1569.35 728.206 1576.64 L723.114 1576.64 Q718.339 1569.16 715.952 1561.93 Q713.597 1554.71 713.597 1547.58 Q713.597 1540.48 715.952 1533.29 Q718.307 1526.09 723.114 1518.58 L728.206 1518.58 Z" fill="#000000" fill-rule="nonzero" fill-opacity="1" /><path clip-path="url(#clip760)" d="M762.294 1533.45 L762.294 1538.98 Q759.812 1537.71 757.138 1537.07 Q754.465 1536.44 751.6 1536.44 Q747.24 1536.44 745.043 1537.77 Q742.879 1539.11 742.879 1541.79 Q742.879 1543.82 744.439 1545 Q745.998 1546.15 750.709 1547.2 L752.714 1547.64 Q758.952 1548.98 761.562 1551.43 Q764.204 1553.85 764.204 1558.21 Q764.204 1563.17 760.257 1566.07 Q756.343 1568.97 749.468 1568.97 Q746.603 1568.97 743.484 1568.39 Q740.396 1567.85 736.959 1566.74 L736.959 1560.69 Q740.205 1562.38 743.356 1563.24 Q746.508 1564.07 749.595 1564.07 Q753.733 1564.07 755.961 1562.66 Q758.189 1561.23 758.189 1558.65 Q758.189 1556.27 756.565 1554.99 Q754.974 1553.72 749.531 1552.54 L747.494 1552.07 Q742.052 1550.92 739.633 1548.56 Q737.214 1546.18 737.214 1542.04 Q737.214 1537.01 740.778 1534.27 Q744.343 1531.54 750.9 1531.54 Q754.146 1531.54 757.011 1532.01 Q759.876 1532.49 762.294 1533.45 Z" fill="#000000" fill-rule="nonzero" fill-opacity="1" /><path clip-path="url(#clip760)" d="M772.607 1518.58 L777.699 1518.58 Q782.474 1526.09 784.829 1533.29 Q787.216 1540.48 787.216 1547.58 Q787.216 1554.71 784.829 1561.93 Q782.474 1569.16 777.699 1576.64 L772.607 1576.64 Q776.84 1569.35 778.909 1562.16 Q781.01 1554.93 781.01 1547.58 Q781.01 1540.23 778.909 1533.06 Q776.84 1525.9 772.607 1518.58 Z" fill="#000000" fill-rule="nonzero" fill-opacity="1" /><polyline clip-path="url(#clip762)" style="stroke:#000000; stroke-linecap:round; stroke-linejoin:round; stroke-width:2; stroke-opacity:0.1; fill:none" points="203.964,1384.24 1110.81,1384.24 "/>
<polyline clip-path="url(#clip762)" style="stroke:#000000; stroke-linecap:round; stroke-linejoin:round; stroke-width:2; stroke-opacity:0.1; fill:none" points="203.964,1030.32 1110.81,1030.32 "/>
<polyline clip-path="url(#clip762)" style="stroke:#000000; stroke-linecap:round; stroke-linejoin:round; stroke-width:2; stroke-opacity:0.1; fill:none" points="203.964,676.404 1110.81,676.404 "/>
<polyline clip-path="url(#clip762)" style="stroke:#000000; stroke-linecap:round; stroke-linejoin:round; stroke-width:2; stroke-opacity:0.1; fill:none" points="203.964,322.486 1110.81,322.486 "/>
<polyline clip-path="url(#clip760)" style="stroke:#000000; stroke-linecap:round; stroke-linejoin:round; stroke-width:4; stroke-opacity:1; fill:none" points="203.964,1423.18 203.964,47.2441 "/>
<polyline clip-path="url(#clip760)" style="stroke:#000000; stroke-linecap:round; stroke-linejoin:round; stroke-width:4; stroke-opacity:1; fill:none" points="203.964,1384.24 222.861,1384.24 "/>
<polyline clip-path="url(#clip760)" style="stroke:#000000; stroke-linecap:round; stroke-linejoin:round; stroke-width:4; stroke-opacity:1; fill:none" points="203.964,1030.32 222.861,1030.32 "/>
<polyline clip-path="url(#clip760)" style="stroke:#000000; stroke-linecap:round; stroke-linejoin:round; stroke-width:4; stroke-opacity:1; fill:none" points="203.964,676.404 222.861,676.404 "/>
<polyline clip-path="url(#clip760)" style="stroke:#000000; stroke-linecap:round; stroke-linejoin:round; stroke-width:4; stroke-opacity:1; fill:none" points="203.964,322.486 222.861,322.486 "/>
<path clip-path="url(#clip760)" d="M156.019 1370.04 Q152.408 1370.04 150.579 1373.6 Q148.774 1377.14 148.774 1384.27 Q148.774 1391.38 150.579 1394.94 Q152.408 1398.49 156.019 1398.49 Q159.653 1398.49 161.459 1394.94 Q163.288 1391.38 163.288 1384.27 Q163.288 1377.14 161.459 1373.6 Q159.653 1370.04 156.019 1370.04 M156.019 1366.33 Q161.829 1366.33 164.885 1370.94 Q167.964 1375.52 167.964 1384.27 Q167.964 1393 164.885 1397.61 Q161.829 1402.19 156.019 1402.19 Q150.209 1402.19 147.13 1397.61 Q144.075 1393 144.075 1384.27 Q144.075 1375.52 147.13 1370.94 Q150.209 1366.33 156.019 1366.33 Z" fill="#000000" fill-rule="nonzero" fill-opacity="1" /><path clip-path="url(#clip760)" d="M116.668 1043.67 L124.306 1043.67 L124.306 1017.3 L115.996 1018.97 L115.996 1014.71 L124.26 1013.04 L128.936 1013.04 L128.936 1043.67 L136.575 1043.67 L136.575 1047.6 L116.668 1047.6 L116.668 1043.67 Z" fill="#000000" fill-rule="nonzero" fill-opacity="1" /><path clip-path="url(#clip760)" d="M156.019 1016.12 Q152.408 1016.12 150.579 1019.68 Q148.774 1023.23 148.774 1030.36 Q148.774 1037.46 150.579 1041.03 Q152.408 1044.57 156.019 1044.57 Q159.653 1044.57 161.459 1041.03 Q163.288 1037.46 163.288 1030.36 Q163.288 1023.23 161.459 1019.68 Q159.653 1016.12 156.019 1016.12 M156.019 1012.42 Q161.829 1012.42 164.885 1017.02 Q167.964 1021.61 167.964 1030.36 Q167.964 1039.08 164.885 1043.69 Q161.829 1048.27 156.019 1048.27 Q150.209 1048.27 147.13 1043.69 Q144.075 1039.08 144.075 1030.36 Q144.075 1021.61 147.13 1017.02 Q150.209 1012.42 156.019 1012.42 Z" fill="#000000" fill-rule="nonzero" fill-opacity="1" /><path clip-path="url(#clip760)" d="M119.885 689.748 L136.204 689.748 L136.204 693.684 L114.26 693.684 L114.26 689.748 Q116.922 686.994 121.505 682.364 Q126.112 677.711 127.292 676.369 Q129.538 673.846 130.417 672.11 Q131.32 670.35 131.32 668.661 Q131.32 665.906 129.376 664.17 Q127.455 662.434 124.353 662.434 Q122.154 662.434 119.7 663.198 Q117.269 663.962 114.492 665.512 L114.492 660.79 Q117.316 659.656 119.769 659.077 Q122.223 658.499 124.26 658.499 Q129.63 658.499 132.825 661.184 Q136.019 663.869 136.019 668.36 Q136.019 670.489 135.209 672.411 Q134.422 674.309 132.316 676.901 Q131.737 677.573 128.635 680.79 Q125.533 683.985 119.885 689.748 Z" fill="#000000" fill-rule="nonzero" fill-opacity="1" /><path clip-path="url(#clip760)" d="M156.019 662.202 Q152.408 662.202 150.579 665.767 Q148.774 669.309 148.774 676.438 Q148.774 683.545 150.579 687.11 Q152.408 690.651 156.019 690.651 Q159.653 690.651 161.459 687.11 Q163.288 683.545 163.288 676.438 Q163.288 669.309 161.459 665.767 Q159.653 662.202 156.019 662.202 M156.019 658.499 Q161.829 658.499 164.885 663.105 Q167.964 667.688 167.964 676.438 Q167.964 685.165 164.885 689.772 Q161.829 694.355 156.019 694.355 Q150.209 694.355 147.13 689.772 Q144.075 685.165 144.075 676.438 Q144.075 667.688 147.13 663.105 Q150.209 658.499 156.019 658.499 Z" fill="#000000" fill-rule="nonzero" fill-opacity="1" /><path clip-path="url(#clip760)" d="M130.024 321.132 Q133.38 321.85 135.255 324.118 Q137.154 326.387 137.154 329.72 Q137.154 334.836 133.635 337.637 Q130.117 340.438 123.635 340.438 Q121.459 340.438 119.144 339.998 Q116.853 339.581 114.399 338.725 L114.399 334.211 Q116.343 335.345 118.658 335.924 Q120.973 336.502 123.496 336.502 Q127.894 336.502 130.186 334.766 Q132.501 333.03 132.501 329.72 Q132.501 326.664 130.348 324.951 Q128.218 323.215 124.399 323.215 L120.371 323.215 L120.371 319.373 L124.584 319.373 Q128.033 319.373 129.862 318.007 Q131.691 316.618 131.691 314.026 Q131.691 311.364 129.792 309.952 Q127.917 308.516 124.399 308.516 Q122.478 308.516 120.279 308.933 Q118.08 309.35 115.441 310.229 L115.441 306.063 Q118.103 305.322 120.418 304.952 Q122.755 304.581 124.816 304.581 Q130.14 304.581 133.242 307.012 Q136.343 309.419 136.343 313.54 Q136.343 316.41 134.7 318.401 Q133.056 320.368 130.024 321.132 Z" fill="#000000" fill-rule="nonzero" fill-opacity="1" /><path clip-path="url(#clip760)" d="M156.019 308.285 Q152.408 308.285 150.579 311.85 Q148.774 315.391 148.774 322.521 Q148.774 329.627 150.579 333.192 Q152.408 336.734 156.019 336.734 Q159.653 336.734 161.459 333.192 Q163.288 329.627 163.288 322.521 Q163.288 315.391 161.459 311.85 Q159.653 308.285 156.019 308.285 M156.019 304.581 Q161.829 304.581 164.885 309.188 Q167.964 313.771 167.964 322.521 Q167.964 331.248 164.885 335.854 Q161.829 340.438 156.019 340.438 Q150.209 340.438 147.13 335.854 Q144.075 331.248 144.075 322.521 Q144.075 313.771 147.13 309.188 Q150.209 304.581 156.019 304.581 Z" fill="#000000" fill-rule="nonzero" fill-opacity="1" /><path clip-path="url(#clip760)" d="M21.7178 734.435 Q22.1687 734.435 23.2315 734.724 L48.4165 741.037 Q54.0203 742.422 57.9494 746.93 Q61.8785 751.407 61.8785 756.496 Q61.8785 759.555 60.236 761.52 Q58.6257 763.484 56.1459 763.484 Q53.9559 763.484 52.8931 762.325 Q51.8625 761.165 51.8625 759.781 Q51.8625 759.33 51.9913 758.847 Q52.1201 758.364 52.6676 757.848 Q53.2151 757.333 54.1491 757.333 Q55.6628 757.333 56.8544 758.653 Q57.4019 759.298 57.5307 759.909 Q57.6596 760.489 57.6596 761.488 Q58.5613 761.101 59.1732 760.393 Q59.7851 759.684 60.0106 758.879 Q60.2682 758.074 60.3326 757.558 Q60.4293 757.011 60.4293 756.496 Q60.4293 752.373 56.2747 749.217 Q55.0187 748.283 53.7626 747.607 Q52.5388 746.898 51.0252 746.383 Q49.5437 745.868 48.7385 745.642 Q47.9334 745.385 46.0977 744.934 Q49.0928 747.929 49.0928 751.6 Q49.0928 753.146 48.6741 754.531 Q48.2554 755.884 47.3859 757.075 Q46.4841 758.267 44.906 758.975 Q43.3279 759.652 41.2346 759.652 Q39.0124 759.652 35.985 758.782 Q32.9577 757.913 27.386 755.819 Q24.2621 754.692 22.7484 754.692 Q22.0077 754.692 21.5568 754.853 Q21.0737 755.014 20.9127 755.336 Q20.7194 755.658 20.6872 755.852 Q20.655 756.013 20.655 756.335 Q20.655 758.235 22.5874 760.006 Q24.5197 761.777 28.8353 763.001 Q29.6405 763.259 29.8337 763.42 Q30.0269 763.581 30.0269 764.064 Q29.9947 764.869 29.3506 764.869 Q29.093 764.869 28.0946 764.579 Q27.064 764.289 25.5503 763.613 Q24.0044 762.905 22.6196 761.938 Q21.2025 760.972 20.2041 759.459 Q19.2058 757.913 19.2058 756.141 Q19.2058 753.726 20.7838 752.244 Q22.3297 750.731 24.6163 750.731 Q25.5503 750.731 26.3877 750.988 Q27.1928 751.214 29.3506 752.051 Q38.0462 755.433 42.2974 755.433 Q43.3279 755.433 44.1975 755.272 Q45.0349 755.079 45.8722 754.66 Q46.6774 754.241 47.1604 753.404 Q47.6113 752.534 47.6113 751.343 Q47.6113 749.829 46.9028 748.412 Q46.1621 746.963 45.1637 746.061 Q44.1653 745.127 43.3279 744.579 Q42.4584 744 42.0075 743.871 L30.1558 740.908 L24.874 739.588 Q22.0077 738.976 21.2991 738.686 Q20.6228 738.299 20.2686 737.623 Q19.9143 736.947 19.9143 736.367 Q19.9143 735.562 20.3974 735.014 Q20.8805 734.435 21.7178 734.435 Z" fill="#000000" fill-rule="nonzero" fill-opacity="1" /><path clip-path="url(#clip760)" d="M53.6652 727.689 L52.2224 727.689 Q52.2224 722.143 49.2691 719.28 Q49.2691 718.491 49.4494 718.355 Q49.6298 718.22 50.4639 718.22 L76.3671 718.22 Q77.7423 718.22 78.1706 717.544 Q78.599 716.867 78.599 713.914 L78.599 712.449 L80.0193 712.449 Q79.884 714.072 79.884 719.933 Q79.884 725.795 80.0193 727.395 L78.599 727.395 L78.599 725.93 Q78.599 723.022 78.1932 722.323 Q77.7648 721.624 76.3671 721.624 L52.4478 721.624 Q53.6652 724.036 53.6652 727.689 Z" fill="#000000" fill-rule="nonzero" fill-opacity="1" /><polyline clip-path="url(#clip762)" style="stroke:#009af9; stroke-linecap:round; stroke-linejoin:round; stroke-width:4; stroke-opacity:1; fill:none" points="229.629,1382.23 254.791,1376.74 279.954,1186.12 305.116,907.506 330.278,540.899 355.44,294.95 380.603,122.231 405.765,110.972 430.927,180.16 456.089,307.342 481.252,411.071 506.414,534.535 531.576,584.913 556.739,617.931 581.901,612.688 607.063,547.023 632.225,538.035 657.388,502.087 682.55,457.272 707.712,444.249 732.874,439.695 758.037,484.69 783.199,450.971 808.361,516.257 833.524,500.677 858.686,525.329 883.848,502.324 909.01,517.975 934.173,514.082 959.335,485.276 984.497,526.186 1009.66,507.204 1034.82,471.56 1059.98,476.242 1085.15,481.565 "/>
<polyline clip-path="url(#clip762)" style="stroke:#e26f46; stroke-linecap:round; stroke-linejoin:round; stroke-width:3; stroke-opacity:1; fill:none" stroke-dasharray="12, 6, 2, 6" points="229.629,1384.24 254.791,1382.23 279.954,1165.39 305.116,875.911 330.278,601.475 355.44,252.727 380.603,145.759 405.765,86.1857 430.927,195.592 456.089,326.306 481.252,472.509 506.414,540.731 531.576,633.775 556.739,620.326 581.901,615.091 607.063,579.191 632.225,483.721 657.388,502.123 682.55,471.024 707.712,431.308 732.874,440.035 758.037,448.032 783.199,516.655 808.361,450.983 833.524,547.783 858.686,501.083 883.848,532.143 909.01,489.292 934.173,517.378 959.335,508.978 984.497,469.33 1009.66,539.477 1034.82,501.427 1059.98,454.246 1085.15,476.582 "/>
<path clip-path="url(#clip760)" d="M961.069 248.629 L1080.58 248.629 L1080.58 93.1086 L961.069 93.1086  Z" fill="#ffffff" fill-rule="evenodd" fill-opacity="1"/>
<polyline clip-path="url(#clip760)" style="stroke:#000000; stroke-linecap:round; stroke-linejoin:round; stroke-width:4; stroke-opacity:1; fill:none" points="961.069,248.629 1080.58,248.629 1080.58,93.1086 961.069,93.1086 961.069,248.629 "/>
<polyline clip-path="url(#clip760)" style="stroke:#009af9; stroke-linecap:round; stroke-linejoin:round; stroke-width:4; stroke-opacity:1; fill:none" points="971.145,144.949 1031.6,144.949 "/>
<path clip-path="url(#clip760)" d="M1068.45 131.687 Q1066.97 131.687 1066.22 131.828 Q1065.48 131.945 1065.29 132.109 Q1065.1 132.273 1064.89 132.695 L1054.58 154.618 Q1053.48 156.96 1051.42 158.647 Q1049.38 160.333 1046.81 160.333 Q1044.65 160.333 1043.15 159.021 Q1041.68 157.733 1041.68 155.906 Q1041.68 154.595 1042.5 153.845 Q1043.32 153.119 1044.42 153.119 Q1045.64 153.119 1046.41 153.892 Q1047.21 154.665 1047.21 155.859 Q1047.21 156.632 1046.88 157.218 Q1046.55 157.827 1046.25 158.038 Q1045.96 158.272 1045.66 158.412 Q1046.15 158.6 1046.81 158.6 Q1047.79 158.6 1048.63 158.202 Q1049.5 157.827 1050.06 157.312 Q1050.65 156.82 1051.23 155.93 Q1051.82 155.063 1052.1 154.501 Q1052.38 153.962 1052.8 153.025 L1053.9 150.73 L1044.93 131.687 L1041.87 131.687 L1041.87 129.439 L1047.35 129.579 L1053.3 129.439 L1053.3 131.687 L1050.7 131.687 L1056.79 144.64 L1062.31 132.835 L1062.55 132.273 Q1062.55 132.015 1061.99 131.875 Q1061.42 131.711 1060.86 131.711 L1060.3 131.687 L1060.3 129.439 L1064.66 129.579 Q1066.72 129.579 1068.45 129.439 L1068.45 131.687 Z" fill="#000000" fill-rule="nonzero" fill-opacity="1" /><polyline clip-path="url(#clip760)" style="stroke:#e26f46; stroke-linecap:round; stroke-linejoin:round; stroke-width:3; stroke-opacity:1; fill:none" stroke-dasharray="12, 6, 2, 6" points="971.145,196.789 1031.6,196.789 "/>
<path clip-path="url(#clip760)" d="M1064.26 180.509 L1063.85 181.181 Q1061.31 180.083 1058.15 178.328 Q1054.98 180.083 1052.44 181.181 L1052.05 180.509 Q1054.82 178.099 1058.15 176.246 Q1061.51 178.115 1064.26 180.509 Z" fill="#000000" fill-rule="nonzero" fill-opacity="1" /><path clip-path="url(#clip760)" d="M1068.45 188.532 Q1066.97 188.532 1066.22 188.672 Q1065.48 188.79 1065.29 188.954 Q1065.1 189.118 1064.89 189.539 L1054.58 211.463 Q1053.48 213.805 1051.42 215.491 Q1049.38 217.178 1046.81 217.178 Q1044.65 217.178 1043.15 215.866 Q1041.68 214.578 1041.68 212.751 Q1041.68 211.439 1042.5 210.69 Q1043.32 209.963 1044.42 209.963 Q1045.64 209.963 1046.41 210.736 Q1047.21 211.509 1047.21 212.704 Q1047.21 213.477 1046.88 214.062 Q1046.55 214.671 1046.25 214.882 Q1045.96 215.116 1045.66 215.257 Q1046.15 215.444 1046.81 215.444 Q1047.79 215.444 1048.63 215.046 Q1049.5 214.671 1050.06 214.156 Q1050.65 213.664 1051.23 212.774 Q1051.82 211.908 1052.1 211.345 Q1052.38 210.807 1052.8 209.87 L1053.9 207.574 L1044.93 188.532 L1041.87 188.532 L1041.87 186.283 L1047.35 186.424 L1053.3 186.283 L1053.3 188.532 L1050.7 188.532 L1056.79 201.485 L1062.31 189.68 L1062.55 189.118 Q1062.55 188.86 1061.99 188.719 Q1061.42 188.555 1060.86 188.555 L1060.3 188.532 L1060.3 186.283 L1064.66 186.424 Q1066.72 186.424 1068.45 186.283 L1068.45 188.532 Z" fill="#000000" fill-rule="nonzero" fill-opacity="1" /><path clip-path="url(#clip760)" d="M1445.91 398.692 L2352.76 398.692 L2352.76 47.2441 L1445.91 47.2441  Z" fill="#ffffff" fill-rule="evenodd" fill-opacity="1"/>
<defs>
  <clipPath id="clip763">
    <rect x="1445" y="47" width="908" height="352"/>
  </clipPath>
</defs>
<polyline clip-path="url(#clip763)" style="stroke:#000000; stroke-linecap:round; stroke-linejoin:round; stroke-width:2; stroke-opacity:0.1; fill:none" points="1471.57,398.692 1471.57,47.2441 "/>
<polyline clip-path="url(#clip763)" style="stroke:#000000; stroke-linecap:round; stroke-linejoin:round; stroke-width:2; stroke-opacity:0.1; fill:none" points="1723.2,398.692 1723.2,47.2441 "/>
<polyline clip-path="url(#clip763)" style="stroke:#000000; stroke-linecap:round; stroke-linejoin:round; stroke-width:2; stroke-opacity:0.1; fill:none" points="1974.82,398.692 1974.82,47.2441 "/>
<polyline clip-path="url(#clip763)" style="stroke:#000000; stroke-linecap:round; stroke-linejoin:round; stroke-width:2; stroke-opacity:0.1; fill:none" points="2226.44,398.692 2226.44,47.2441 "/>
<polyline clip-path="url(#clip760)" style="stroke:#000000; stroke-linecap:round; stroke-linejoin:round; stroke-width:4; stroke-opacity:1; fill:none" points="1445.91,398.692 2352.76,398.692 "/>
<polyline clip-path="url(#clip760)" style="stroke:#000000; stroke-linecap:round; stroke-linejoin:round; stroke-width:4; stroke-opacity:1; fill:none" points="1471.57,398.692 1471.57,379.794 "/>
<polyline clip-path="url(#clip760)" style="stroke:#000000; stroke-linecap:round; stroke-linejoin:round; stroke-width:4; stroke-opacity:1; fill:none" points="1723.2,398.692 1723.2,379.794 "/>
<polyline clip-path="url(#clip760)" style="stroke:#000000; stroke-linecap:round; stroke-linejoin:round; stroke-width:4; stroke-opacity:1; fill:none" points="1974.82,398.692 1974.82,379.794 "/>
<polyline clip-path="url(#clip760)" style="stroke:#000000; stroke-linecap:round; stroke-linejoin:round; stroke-width:4; stroke-opacity:1; fill:none" points="2226.44,398.692 2226.44,379.794 "/>
<path clip-path="url(#clip760)" d="M1471.57 429.611 Q1467.96 429.611 1466.13 433.175 Q1464.33 436.717 1464.33 443.847 Q1464.33 450.953 1466.13 454.518 Q1467.96 458.059 1471.57 458.059 Q1475.21 458.059 1477.01 454.518 Q1478.84 450.953 1478.84 443.847 Q1478.84 436.717 1477.01 433.175 Q1475.21 429.611 1471.57 429.611 M1471.57 425.907 Q1477.38 425.907 1480.44 430.513 Q1483.52 435.097 1483.52 443.847 Q1483.52 452.573 1480.44 457.18 Q1477.38 461.763 1471.57 461.763 Q1465.76 461.763 1462.68 457.18 Q1459.63 452.573 1459.63 443.847 Q1459.63 435.097 1462.68 430.513 Q1465.76 425.907 1471.57 425.907 Z" fill="#000000" fill-rule="nonzero" fill-opacity="1" /><path clip-path="url(#clip760)" d="M1713.58 457.157 L1721.22 457.157 L1721.22 430.791 L1712.91 432.458 L1712.91 428.199 L1721.17 426.532 L1725.85 426.532 L1725.85 457.157 L1733.49 457.157 L1733.49 461.092 L1713.58 461.092 L1713.58 457.157 Z" fill="#000000" fill-rule="nonzero" fill-opacity="1" /><path clip-path="url(#clip760)" d="M1969.47 457.157 L1985.79 457.157 L1985.79 461.092 L1963.85 461.092 L1963.85 457.157 Q1966.51 454.402 1971.09 449.772 Q1975.7 445.12 1976.88 443.777 Q1979.12 441.254 1980 439.518 Q1980.91 437.759 1980.91 436.069 Q1980.91 433.314 1978.96 431.578 Q1977.04 429.842 1973.94 429.842 Q1971.74 429.842 1969.29 430.606 Q1966.86 431.37 1964.08 432.921 L1964.08 428.199 Q1966.9 427.064 1969.36 426.486 Q1971.81 425.907 1973.85 425.907 Q1979.22 425.907 1982.41 428.592 Q1985.61 431.277 1985.61 435.768 Q1985.61 437.898 1984.8 439.819 Q1984.01 441.717 1981.9 444.31 Q1981.32 444.981 1978.22 448.198 Q1975.12 451.393 1969.47 457.157 Z" fill="#000000" fill-rule="nonzero" fill-opacity="1" /><path clip-path="url(#clip760)" d="M2230.69 442.458 Q2234.05 443.175 2235.92 445.444 Q2237.82 447.712 2237.82 451.046 Q2237.82 456.161 2234.3 458.962 Q2230.78 461.763 2224.3 461.763 Q2222.12 461.763 2219.81 461.323 Q2217.52 460.907 2215.06 460.05 L2215.06 455.536 Q2217.01 456.671 2219.32 457.249 Q2221.64 457.828 2224.16 457.828 Q2228.56 457.828 2230.85 456.092 Q2233.17 454.356 2233.17 451.046 Q2233.17 447.99 2231.01 446.277 Q2228.88 444.541 2225.06 444.541 L2221.04 444.541 L2221.04 440.698 L2225.25 440.698 Q2228.7 440.698 2230.53 439.333 Q2232.36 437.944 2232.36 435.351 Q2232.36 432.689 2230.46 431.277 Q2228.58 429.842 2225.06 429.842 Q2223.14 429.842 2220.94 430.259 Q2218.74 430.675 2216.11 431.555 L2216.11 427.388 Q2218.77 426.648 2221.08 426.277 Q2223.42 425.907 2225.48 425.907 Q2230.8 425.907 2233.91 428.337 Q2237.01 430.745 2237.01 434.865 Q2237.01 437.736 2235.36 439.726 Q2233.72 441.694 2230.69 442.458 Z" fill="#000000" fill-rule="nonzero" fill-opacity="1" /><polyline clip-path="url(#clip763)" style="stroke:#000000; stroke-linecap:round; stroke-linejoin:round; stroke-width:2; stroke-opacity:0.1; fill:none" points="1445.91,388.745 2352.76,388.745 "/>
<polyline clip-path="url(#clip763)" style="stroke:#000000; stroke-linecap:round; stroke-linejoin:round; stroke-width:2; stroke-opacity:0.1; fill:none" points="1445.91,336.95 2352.76,336.95 "/>
<polyline clip-path="url(#clip763)" style="stroke:#000000; stroke-linecap:round; stroke-linejoin:round; stroke-width:2; stroke-opacity:0.1; fill:none" points="1445.91,285.155 2352.76,285.155 "/>
<polyline clip-path="url(#clip763)" style="stroke:#000000; stroke-linecap:round; stroke-linejoin:round; stroke-width:2; stroke-opacity:0.1; fill:none" points="1445.91,233.36 2352.76,233.36 "/>
<polyline clip-path="url(#clip763)" style="stroke:#000000; stroke-linecap:round; stroke-linejoin:round; stroke-width:2; stroke-opacity:0.1; fill:none" points="1445.91,181.566 2352.76,181.566 "/>
<polyline clip-path="url(#clip763)" style="stroke:#000000; stroke-linecap:round; stroke-linejoin:round; stroke-width:2; stroke-opacity:0.1; fill:none" points="1445.91,129.771 2352.76,129.771 "/>
<polyline clip-path="url(#clip763)" style="stroke:#000000; stroke-linecap:round; stroke-linejoin:round; stroke-width:2; stroke-opacity:0.1; fill:none" points="1445.91,77.9757 2352.76,77.9757 "/>
<polyline clip-path="url(#clip760)" style="stroke:#000000; stroke-linecap:round; stroke-linejoin:round; stroke-width:4; stroke-opacity:1; fill:none" points="1445.91,398.692 1445.91,47.2441 "/>
<polyline clip-path="url(#clip760)" style="stroke:#000000; stroke-linecap:round; stroke-linejoin:round; stroke-width:4; stroke-opacity:1; fill:none" points="1445.91,388.745 1464.81,388.745 "/>
<polyline clip-path="url(#clip760)" style="stroke:#000000; stroke-linecap:round; stroke-linejoin:round; stroke-width:4; stroke-opacity:1; fill:none" points="1445.91,336.95 1464.81,336.95 "/>
<polyline clip-path="url(#clip760)" style="stroke:#000000; stroke-linecap:round; stroke-linejoin:round; stroke-width:4; stroke-opacity:1; fill:none" points="1445.91,285.155 1464.81,285.155 "/>
<polyline clip-path="url(#clip760)" style="stroke:#000000; stroke-linecap:round; stroke-linejoin:round; stroke-width:4; stroke-opacity:1; fill:none" points="1445.91,233.36 1464.81,233.36 "/>
<polyline clip-path="url(#clip760)" style="stroke:#000000; stroke-linecap:round; stroke-linejoin:round; stroke-width:4; stroke-opacity:1; fill:none" points="1445.91,181.566 1464.81,181.566 "/>
<polyline clip-path="url(#clip760)" style="stroke:#000000; stroke-linecap:round; stroke-linejoin:round; stroke-width:4; stroke-opacity:1; fill:none" points="1445.91,129.771 1464.81,129.771 "/>
<polyline clip-path="url(#clip760)" style="stroke:#000000; stroke-linecap:round; stroke-linejoin:round; stroke-width:4; stroke-opacity:1; fill:none" points="1445.91,77.9757 1464.81,77.9757 "/>
<path clip-path="url(#clip760)" d="M1352.73 374.544 Q1349.12 374.544 1347.29 378.109 Q1345.49 381.65 1345.49 388.78 Q1345.49 395.886 1347.29 399.451 Q1349.12 402.993 1352.73 402.993 Q1356.37 402.993 1358.17 399.451 Q1360 395.886 1360 388.78 Q1360 381.65 1358.17 378.109 Q1356.37 374.544 1352.73 374.544 M1352.73 370.84 Q1358.54 370.84 1361.6 375.447 Q1364.68 380.03 1364.68 388.78 Q1364.68 397.507 1361.6 402.113 Q1358.54 406.697 1352.73 406.697 Q1346.92 406.697 1343.84 402.113 Q1340.79 397.507 1340.79 388.78 Q1340.79 380.03 1343.84 375.447 Q1346.92 370.84 1352.73 370.84 Z" fill="#000000" fill-rule="nonzero" fill-opacity="1" /><path clip-path="url(#clip760)" d="M1372.89 400.146 L1377.78 400.146 L1377.78 406.025 L1372.89 406.025 L1372.89 400.146 Z" fill="#000000" fill-rule="nonzero" fill-opacity="1" /><path clip-path="url(#clip760)" d="M1397.96 374.544 Q1394.35 374.544 1392.52 378.109 Q1390.72 381.65 1390.72 388.78 Q1390.72 395.886 1392.52 399.451 Q1394.35 402.993 1397.96 402.993 Q1401.6 402.993 1403.4 399.451 Q1405.23 395.886 1405.23 388.78 Q1405.23 381.65 1403.4 378.109 Q1401.6 374.544 1397.96 374.544 M1397.96 370.84 Q1403.77 370.84 1406.83 375.447 Q1409.91 380.03 1409.91 388.78 Q1409.91 397.507 1406.83 402.113 Q1403.77 406.697 1397.96 406.697 Q1392.15 406.697 1389.07 402.113 Q1386.02 397.507 1386.02 388.78 Q1386.02 380.03 1389.07 375.447 Q1392.15 370.84 1397.96 370.84 Z" fill="#000000" fill-rule="nonzero" fill-opacity="1" /><path clip-path="url(#clip760)" d="M1353.96 322.749 Q1350.35 322.749 1348.52 326.314 Q1346.71 329.855 1346.71 336.985 Q1346.71 344.091 1348.52 347.656 Q1350.35 351.198 1353.96 351.198 Q1357.59 351.198 1359.4 347.656 Q1361.23 344.091 1361.23 336.985 Q1361.23 329.855 1359.4 326.314 Q1357.59 322.749 1353.96 322.749 M1353.96 319.045 Q1359.77 319.045 1362.82 323.652 Q1365.9 328.235 1365.9 336.985 Q1365.9 345.712 1362.82 350.318 Q1359.77 354.902 1353.96 354.902 Q1348.15 354.902 1345.07 350.318 Q1342.01 345.712 1342.01 336.985 Q1342.01 328.235 1345.07 323.652 Q1348.15 319.045 1353.96 319.045 Z" fill="#000000" fill-rule="nonzero" fill-opacity="1" /><path clip-path="url(#clip760)" d="M1374.12 348.351 L1379.01 348.351 L1379.01 354.23 L1374.12 354.23 L1374.12 348.351 Z" fill="#000000" fill-rule="nonzero" fill-opacity="1" /><path clip-path="url(#clip760)" d="M1390 350.295 L1397.64 350.295 L1397.64 323.93 L1389.33 325.596 L1389.33 321.337 L1397.59 319.67 L1402.27 319.67 L1402.27 350.295 L1409.91 350.295 L1409.91 354.23 L1390 354.23 L1390 350.295 Z" fill="#000000" fill-rule="nonzero" fill-opacity="1" /><path clip-path="url(#clip760)" d="M1354.33 270.954 Q1350.72 270.954 1348.89 274.519 Q1347.08 278.061 1347.08 285.19 Q1347.08 292.297 1348.89 295.861 Q1350.72 299.403 1354.33 299.403 Q1357.96 299.403 1359.77 295.861 Q1361.6 292.297 1361.6 285.19 Q1361.6 278.061 1359.77 274.519 Q1357.96 270.954 1354.33 270.954 M1354.33 267.25 Q1360.14 267.25 1363.2 271.857 Q1366.27 276.44 1366.27 285.19 Q1366.27 293.917 1363.2 298.523 Q1360.14 303.107 1354.33 303.107 Q1348.52 303.107 1345.44 298.523 Q1342.39 293.917 1342.39 285.19 Q1342.39 276.44 1345.44 271.857 Q1348.52 267.25 1354.33 267.25 Z" fill="#000000" fill-rule="nonzero" fill-opacity="1" /><path clip-path="url(#clip760)" d="M1374.49 296.556 L1379.38 296.556 L1379.38 302.435 L1374.49 302.435 L1374.49 296.556 Z" fill="#000000" fill-rule="nonzero" fill-opacity="1" /><path clip-path="url(#clip760)" d="M1393.59 298.5 L1409.91 298.5 L1409.91 302.435 L1387.96 302.435 L1387.96 298.5 Q1390.63 295.746 1395.21 291.116 Q1399.82 286.463 1401 285.121 Q1403.24 282.598 1404.12 280.861 Q1405.02 279.102 1405.02 277.412 Q1405.02 274.658 1403.08 272.922 Q1401.16 271.186 1398.06 271.186 Q1395.86 271.186 1393.4 271.949 Q1390.97 272.713 1388.19 274.264 L1388.19 269.542 Q1391.02 268.408 1393.47 267.829 Q1395.93 267.25 1397.96 267.25 Q1403.33 267.25 1406.53 269.936 Q1409.72 272.621 1409.72 277.111 Q1409.72 279.241 1408.91 281.162 Q1408.13 283.061 1406.02 285.653 Q1405.44 286.324 1402.34 289.542 Q1399.24 292.736 1393.59 298.5 Z" fill="#000000" fill-rule="nonzero" fill-opacity="1" /><path clip-path="url(#clip760)" d="M1353.38 219.159 Q1349.77 219.159 1347.94 222.724 Q1346.13 226.266 1346.13 233.395 Q1346.13 240.502 1347.94 244.066 Q1349.77 247.608 1353.38 247.608 Q1357.01 247.608 1358.82 244.066 Q1360.65 240.502 1360.65 233.395 Q1360.65 226.266 1358.82 222.724 Q1357.01 219.159 1353.38 219.159 M1353.38 215.455 Q1359.19 215.455 1362.25 220.062 Q1365.32 224.645 1365.32 233.395 Q1365.32 242.122 1362.25 246.728 Q1359.19 251.312 1353.38 251.312 Q1347.57 251.312 1344.49 246.728 Q1341.44 242.122 1341.44 233.395 Q1341.44 224.645 1344.49 220.062 Q1347.57 215.455 1353.38 215.455 Z" fill="#000000" fill-rule="nonzero" fill-opacity="1" /><path clip-path="url(#clip760)" d="M1373.54 244.761 L1378.43 244.761 L1378.43 250.64 L1373.54 250.64 L1373.54 244.761 Z" fill="#000000" fill-rule="nonzero" fill-opacity="1" /><path clip-path="url(#clip760)" d="M1402.78 232.006 Q1406.13 232.724 1408.01 234.992 Q1409.91 237.261 1409.91 240.594 Q1409.91 245.71 1406.39 248.511 Q1402.87 251.312 1396.39 251.312 Q1394.21 251.312 1391.9 250.872 Q1389.61 250.455 1387.15 249.599 L1387.15 245.085 Q1389.1 246.219 1391.41 246.798 Q1393.73 247.377 1396.25 247.377 Q1400.65 247.377 1402.94 245.641 Q1405.26 243.904 1405.26 240.594 Q1405.26 237.539 1403.1 235.826 Q1400.97 234.09 1397.15 234.09 L1393.13 234.09 L1393.13 230.247 L1397.34 230.247 Q1400.79 230.247 1402.62 228.881 Q1404.44 227.492 1404.44 224.9 Q1404.44 222.238 1402.55 220.826 Q1400.67 219.391 1397.15 219.391 Q1395.23 219.391 1393.03 219.807 Q1390.83 220.224 1388.19 221.104 L1388.19 216.937 Q1390.86 216.196 1393.17 215.826 Q1395.51 215.455 1397.57 215.455 Q1402.89 215.455 1406 217.886 Q1409.1 220.293 1409.1 224.414 Q1409.1 227.284 1407.45 229.275 Q1405.81 231.242 1402.78 232.006 Z" fill="#000000" fill-rule="nonzero" fill-opacity="1" /><path clip-path="url(#clip760)" d="M1352.25 167.364 Q1348.63 167.364 1346.81 170.929 Q1345 174.471 1345 181.6 Q1345 188.707 1346.81 192.272 Q1348.63 195.813 1352.25 195.813 Q1355.88 195.813 1357.69 192.272 Q1359.51 188.707 1359.51 181.6 Q1359.51 174.471 1357.69 170.929 Q1355.88 167.364 1352.25 167.364 M1352.25 163.661 Q1358.06 163.661 1361.11 168.267 Q1364.19 172.85 1364.19 181.6 Q1364.19 190.327 1361.11 194.934 Q1358.06 199.517 1352.25 199.517 Q1346.44 199.517 1343.36 194.934 Q1340.3 190.327 1340.3 181.6 Q1340.3 172.85 1343.36 168.267 Q1346.44 163.661 1352.25 163.661 Z" fill="#000000" fill-rule="nonzero" fill-opacity="1" /><path clip-path="url(#clip760)" d="M1372.41 192.966 L1377.29 192.966 L1377.29 198.846 L1372.41 198.846 L1372.41 192.966 Z" fill="#000000" fill-rule="nonzero" fill-opacity="1" /><path clip-path="url(#clip760)" d="M1400.32 168.36 L1388.52 186.809 L1400.32 186.809 L1400.32 168.36 M1399.1 164.286 L1404.98 164.286 L1404.98 186.809 L1409.91 186.809 L1409.91 190.697 L1404.98 190.697 L1404.98 198.846 L1400.32 198.846 L1400.32 190.697 L1384.72 190.697 L1384.72 186.184 L1399.1 164.286 Z" fill="#000000" fill-rule="nonzero" fill-opacity="1" /><path clip-path="url(#clip760)" d="M1353.73 115.569 Q1350.12 115.569 1348.29 119.134 Q1346.48 122.676 1346.48 129.805 Q1346.48 136.912 1348.29 140.477 Q1350.12 144.018 1353.73 144.018 Q1357.36 144.018 1359.17 140.477 Q1361 136.912 1361 129.805 Q1361 122.676 1359.17 119.134 Q1357.36 115.569 1353.73 115.569 M1353.73 111.866 Q1359.54 111.866 1362.59 116.472 Q1365.67 121.055 1365.67 129.805 Q1365.67 138.532 1362.59 143.139 Q1359.54 147.722 1353.73 147.722 Q1347.92 147.722 1344.84 143.139 Q1341.78 138.532 1341.78 129.805 Q1341.78 121.055 1344.84 116.472 Q1347.92 111.866 1353.73 111.866 Z" fill="#000000" fill-rule="nonzero" fill-opacity="1" /><path clip-path="url(#clip760)" d="M1373.89 141.171 L1378.77 141.171 L1378.77 147.051 L1373.89 147.051 L1373.89 141.171 Z" fill="#000000" fill-rule="nonzero" fill-opacity="1" /><path clip-path="url(#clip760)" d="M1389.01 112.491 L1407.36 112.491 L1407.36 116.426 L1393.29 116.426 L1393.29 124.898 Q1394.31 124.551 1395.32 124.389 Q1396.34 124.204 1397.36 124.204 Q1403.15 124.204 1406.53 127.375 Q1409.91 130.546 1409.91 135.963 Q1409.91 141.541 1406.44 144.643 Q1402.96 147.722 1396.64 147.722 Q1394.47 147.722 1392.2 147.352 Q1389.95 146.981 1387.55 146.24 L1387.55 141.541 Q1389.63 142.676 1391.85 143.231 Q1394.07 143.787 1396.55 143.787 Q1400.56 143.787 1402.89 141.68 Q1405.23 139.574 1405.23 135.963 Q1405.23 132.352 1402.89 130.245 Q1400.56 128.139 1396.55 128.139 Q1394.68 128.139 1392.8 128.555 Q1390.95 128.972 1389.01 129.852 L1389.01 112.491 Z" fill="#000000" fill-rule="nonzero" fill-opacity="1" /><path clip-path="url(#clip760)" d="M1352.57 63.7744 Q1348.96 63.7744 1347.13 67.3392 Q1345.32 70.8809 1345.32 78.0105 Q1345.32 85.1169 1347.13 88.6817 Q1348.96 92.2234 1352.57 92.2234 Q1356.2 92.2234 1358.01 88.6817 Q1359.84 85.1169 1359.84 78.0105 Q1359.84 70.8809 1358.01 67.3392 Q1356.2 63.7744 1352.57 63.7744 M1352.57 60.0707 Q1358.38 60.0707 1361.44 64.6772 Q1364.51 69.2605 1364.51 78.0105 Q1364.51 86.7373 1361.44 91.3437 Q1358.38 95.927 1352.57 95.927 Q1346.76 95.927 1343.68 91.3437 Q1340.63 86.7373 1340.63 78.0105 Q1340.63 69.2605 1343.68 64.6772 Q1346.76 60.0707 1352.57 60.0707 Z" fill="#000000" fill-rule="nonzero" fill-opacity="1" /><path clip-path="url(#clip760)" d="M1372.73 89.3761 L1377.62 89.3761 L1377.62 95.2557 L1372.73 95.2557 L1372.73 89.3761 Z" fill="#000000" fill-rule="nonzero" fill-opacity="1" /><path clip-path="url(#clip760)" d="M1398.38 76.1123 Q1395.23 76.1123 1393.38 78.2651 Q1391.55 80.4179 1391.55 84.1678 Q1391.55 87.8947 1393.38 90.0706 Q1395.23 92.2234 1398.38 92.2234 Q1401.53 92.2234 1403.36 90.0706 Q1405.21 87.8947 1405.21 84.1678 Q1405.21 80.4179 1403.36 78.2651 Q1401.53 76.1123 1398.38 76.1123 M1407.66 61.4596 L1407.66 65.7189 Q1405.9 64.8855 1404.1 64.4457 Q1402.32 64.0059 1400.56 64.0059 Q1395.93 64.0059 1393.47 67.1309 Q1391.04 70.2559 1390.69 76.5753 Q1392.06 74.5614 1394.12 73.4966 Q1396.18 72.4086 1398.66 72.4086 Q1403.87 72.4086 1406.88 75.5799 Q1409.91 78.7281 1409.91 84.1678 Q1409.91 89.4919 1406.76 92.7095 Q1403.61 95.927 1398.38 95.927 Q1392.38 95.927 1389.21 91.3437 Q1386.04 86.7373 1386.04 78.0105 Q1386.04 69.8161 1389.93 64.955 Q1393.82 60.0707 1400.37 60.0707 Q1402.13 60.0707 1403.91 60.418 Q1405.72 60.7652 1407.66 61.4596 Z" fill="#000000" fill-rule="nonzero" fill-opacity="1" /><path clip-path="url(#clip760)" d="M1255.92 220.971 Q1257.73 220.971 1258.76 222.098 Q1259.76 223.225 1259.76 224.513 Q1259.76 225.737 1259.05 226.381 Q1258.34 227.025 1257.44 227.025 Q1256.21 227.025 1255.15 226.123 Q1254.09 225.222 1253.86 223.869 Q1253.02 225.189 1253.02 227.154 Q1253.02 228.442 1253.7 229.569 Q1254.38 230.664 1255.25 231.341 Q1256.12 231.985 1257.37 232.565 Q1258.6 233.112 1259.34 233.338 Q1260.05 233.531 1260.82 233.692 L1269.84 235.946 Q1274.12 237.041 1275.63 237.041 Q1277.5 237.041 1278.76 236.139 Q1279.98 235.238 1279.98 233.434 Q1279.98 232.726 1279.79 231.92 Q1279.56 231.115 1278.98 230.085 Q1278.37 229.022 1277.47 228.088 Q1276.53 227.122 1274.96 226.188 Q1273.38 225.254 1271.35 224.642 Q1270.64 224.449 1270.64 223.805 Q1270.64 222.999 1271.29 222.999 Q1271.83 222.999 1272.99 223.45 Q1274.12 223.869 1275.6 224.803 Q1277.05 225.705 1278.37 226.896 Q1279.66 228.088 1280.56 229.859 Q1281.46 231.631 1281.46 233.563 Q1281.46 236.333 1279.98 238.168 Q1278.5 240.004 1276.44 240.68 Q1276.73 240.842 1277.11 241.067 Q1277.5 241.292 1278.37 241.969 Q1279.21 242.613 1279.85 243.354 Q1280.46 244.094 1280.95 245.254 Q1281.46 246.381 1281.46 247.605 Q1281.46 249.151 1281.01 250.535 Q1280.56 251.888 1279.53 252.854 Q1278.5 253.82 1277.08 253.82 Q1275.5 253.82 1274.41 252.758 Q1273.28 251.663 1273.28 250.181 Q1273.28 249.247 1273.83 248.507 Q1274.38 247.734 1275.57 247.734 Q1276.89 247.734 1277.89 248.635 Q1278.89 249.537 1279.14 250.825 Q1279.98 249.505 1279.98 247.54 Q1279.98 245.415 1278.11 243.74 Q1276.25 242.065 1273.12 241.26 Q1265.62 239.263 1262.27 238.49 Q1258.89 237.718 1257.44 237.718 Q1256.08 237.718 1255.15 238.072 Q1254.22 238.426 1253.8 239.038 Q1253.35 239.618 1253.19 240.165 Q1253.02 240.68 1253.02 241.26 Q1253.02 242.226 1253.41 243.321 Q1253.8 244.384 1254.7 245.672 Q1255.57 246.928 1257.37 248.12 Q1259.18 249.312 1261.66 250.117 Q1262.4 250.278 1262.4 250.986 Q1262.36 251.759 1261.72 251.759 Q1261.17 251.759 1260.05 251.341 Q1258.89 250.89 1257.44 249.988 Q1255.99 249.054 1254.7 247.862 Q1253.38 246.639 1252.48 244.867 Q1251.58 243.064 1251.58 241.131 Q1251.58 240.262 1251.77 239.424 Q1251.93 238.555 1252.41 237.524 Q1252.9 236.462 1253.96 235.528 Q1255.02 234.594 1256.57 234.014 Q1255.83 233.627 1255.12 233.112 Q1254.41 232.565 1253.54 231.727 Q1252.64 230.858 1252.12 229.666 Q1251.58 228.442 1251.58 227.09 Q1251.58 225.769 1251.93 224.481 Q1252.25 223.193 1253.31 222.098 Q1254.35 220.971 1255.92 220.971 Z" fill="#000000" fill-rule="nonzero" fill-opacity="1" /><path clip-path="url(#clip760)" d="M1273.38 214.249 L1271.94 214.249 Q1271.94 208.703 1268.98 205.84 Q1268.98 205.051 1269.16 204.916 Q1269.34 204.781 1270.18 204.781 L1296.08 204.781 Q1297.46 204.781 1297.88 204.104 Q1298.31 203.428 1298.31 200.475 L1298.31 199.009 L1299.73 199.009 Q1299.6 200.633 1299.6 206.494 Q1299.6 212.356 1299.73 213.956 L1298.31 213.956 L1298.31 212.491 Q1298.31 209.583 1297.91 208.884 Q1297.48 208.185 1296.08 208.185 L1272.16 208.185 Q1273.38 210.597 1273.38 214.249 Z" fill="#000000" fill-rule="nonzero" fill-opacity="1" /><polyline clip-path="url(#clip763)" style="stroke:#009af9; stroke-linecap:round; stroke-linejoin:round; stroke-width:4; stroke-opacity:1; fill:none" points="1471.57,388.745 1496.74,388.745 1521.9,334.792 1547.06,253.863 1572.22,172.639 1597.38,110.749 1622.55,77.2735 1647.71,71.4686 1672.87,86.4068 1698.03,112.885 1723.2,142.108 1748.36,167.202 1773.52,183.965 1798.68,191.031 1823.85,189.485 1849.01,182.032 1874.17,171.975 1899.33,162.305 1924.49,155.088 1949.66,151.255 1974.82,150.709 1999.98,152.65 2025.14,155.956 2050.31,159.516 2075.47,162.476 2100.63,164.349 2125.79,165.021 2150.95,164.678 2176.12,163.677 2201.28,162.424 2226.44,161.267 2251.6,160.436 2276.77,160.026 2301.93,160.009 2327.09,160.281 "/>
<polyline clip-path="url(#clip763)" style="stroke:#e26f46; stroke-linecap:round; stroke-linejoin:round; stroke-width:3; stroke-opacity:1; fill:none" stroke-dasharray="12, 6, 2, 6" points="1471.57,388.745 1496.74,388.232 1521.9,332.847 1547.06,258.906 1572.22,188.808 1597.38,99.7295 1622.55,72.4073 1647.71,57.1907 1672.87,85.1358 1698.03,118.523 1723.2,155.867 1748.36,173.293 1773.52,197.059 1798.68,193.623 1823.85,192.286 1849.01,183.116 1874.17,158.731 1899.33,163.431 1924.49,155.488 1949.66,145.343 1974.82,147.572 1999.98,149.615 2025.14,167.143 2050.31,150.369 2075.47,175.094 2100.63,163.166 2125.79,171.099 2150.95,160.154 2176.12,167.328 2201.28,165.182 2226.44,155.055 2251.6,172.973 2276.77,163.253 2301.93,151.202 2327.09,156.907 "/>
<path clip-path="url(#clip760)" d="M2203.01 214.479 L2322.53 214.479 L2322.53 58.959 L2203.01 58.959  Z" fill="#ffffff" fill-rule="evenodd" fill-opacity="1"/>
<polyline clip-path="url(#clip760)" style="stroke:#000000; stroke-linecap:round; stroke-linejoin:round; stroke-width:4; stroke-opacity:1; fill:none" points="2203.01,214.479 2322.53,214.479 2322.53,58.959 2203.01,58.959 2203.01,214.479 "/>
<polyline clip-path="url(#clip760)" style="stroke:#009af9; stroke-linecap:round; stroke-linejoin:round; stroke-width:4; stroke-opacity:1; fill:none" points="2213.09,110.799 2273.55,110.799 "/>
<path clip-path="url(#clip760)" d="M2310.63 121.338 L2305.36 121.198 L2299.6 121.338 L2299.6 119.09 L2301.47 119.09 L2296.2 112.859 L2291.54 118.082 L2291.21 118.551 Q2291.21 118.762 2291.75 118.926 Q2292.31 119.09 2292.97 119.09 L2292.97 121.338 L2288.03 121.198 L2283.62 121.338 L2283.62 119.09 Q2285.1 119.09 2285.78 119.066 Q2286.48 119.019 2287.28 118.808 Q2288.07 118.598 2288.47 118.176 L2294.75 111.126 L2287.28 102.296 L2283.86 102.296 L2283.86 100.047 L2289.15 100.188 L2294.94 100.047 L2294.94 102.296 L2293.01 102.296 L2297.72 107.8 L2301.75 103.303 Q2301.77 103.279 2302.15 102.717 Q2301.4 102.296 2300.32 102.296 L2300.32 100.047 L2305.26 100.188 L2309.67 100.047 L2309.67 102.296 Q2307.75 102.296 2306.74 102.436 Q2305.76 102.553 2305.45 102.717 Q2305.17 102.881 2304.77 103.303 L2299.17 109.533 L2307.23 119.09 L2310.63 119.09 L2310.63 121.338 Z" fill="#000000" fill-rule="nonzero" fill-opacity="1" /><polyline clip-path="url(#clip760)" style="stroke:#e26f46; stroke-linecap:round; stroke-linejoin:round; stroke-width:3; stroke-opacity:1; fill:none" stroke-dasharray="12, 6, 2, 6" points="2213.09,162.639 2273.55,162.639 "/>
<path clip-path="url(#clip760)" d="M2306.21 151.117 L2305.8 151.789 Q2303.26 150.691 2300.09 148.936 Q2296.93 150.691 2294.39 151.789 L2293.99 151.117 Q2296.76 148.707 2300.09 146.854 Q2303.45 148.723 2306.21 151.117 Z" fill="#000000" fill-rule="nonzero" fill-opacity="1" /><path clip-path="url(#clip760)" d="M2310.63 178.183 L2305.36 178.042 L2299.6 178.183 L2299.6 175.934 L2301.47 175.934 L2296.2 169.704 L2291.54 174.927 L2291.21 175.395 Q2291.21 175.606 2291.75 175.77 Q2292.31 175.934 2292.97 175.934 L2292.97 178.183 L2288.03 178.042 L2283.62 178.183 L2283.62 175.934 Q2285.1 175.934 2285.78 175.911 Q2286.48 175.864 2287.28 175.653 Q2288.07 175.442 2288.47 175.021 L2294.75 167.97 L2287.28 159.14 L2283.86 159.14 L2283.86 156.892 L2289.15 157.032 L2294.94 156.892 L2294.94 159.14 L2293.01 159.14 L2297.72 164.644 L2301.75 160.147 Q2301.77 160.124 2302.15 159.562 Q2301.4 159.14 2300.32 159.14 L2300.32 156.892 L2305.26 157.032 L2309.67 156.892 L2309.67 159.14 Q2307.75 159.14 2306.74 159.281 Q2305.76 159.398 2305.45 159.562 Q2305.17 159.726 2304.77 160.147 L2299.17 166.378 L2307.23 175.934 L2310.63 175.934 L2310.63 178.183 Z" fill="#000000" fill-rule="nonzero" fill-opacity="1" /><path clip-path="url(#clip760)" d="M1445.91 910.936 L2352.76 910.936 L2352.76 559.488 L1445.91 559.488  Z" fill="#ffffff" fill-rule="evenodd" fill-opacity="1"/>
<defs>
  <clipPath id="clip764">
    <rect x="1445" y="559" width="908" height="352"/>
  </clipPath>
</defs>
<polyline clip-path="url(#clip764)" style="stroke:#000000; stroke-linecap:round; stroke-linejoin:round; stroke-width:2; stroke-opacity:0.1; fill:none" points="1471.57,910.936 1471.57,559.488 "/>
<polyline clip-path="url(#clip764)" style="stroke:#000000; stroke-linecap:round; stroke-linejoin:round; stroke-width:2; stroke-opacity:0.1; fill:none" points="1723.2,910.936 1723.2,559.488 "/>
<polyline clip-path="url(#clip764)" style="stroke:#000000; stroke-linecap:round; stroke-linejoin:round; stroke-width:2; stroke-opacity:0.1; fill:none" points="1974.82,910.936 1974.82,559.488 "/>
<polyline clip-path="url(#clip764)" style="stroke:#000000; stroke-linecap:round; stroke-linejoin:round; stroke-width:2; stroke-opacity:0.1; fill:none" points="2226.44,910.936 2226.44,559.488 "/>
<polyline clip-path="url(#clip760)" style="stroke:#000000; stroke-linecap:round; stroke-linejoin:round; stroke-width:4; stroke-opacity:1; fill:none" points="1445.91,910.936 2352.76,910.936 "/>
<polyline clip-path="url(#clip760)" style="stroke:#000000; stroke-linecap:round; stroke-linejoin:round; stroke-width:4; stroke-opacity:1; fill:none" points="1471.57,910.936 1471.57,892.038 "/>
<polyline clip-path="url(#clip760)" style="stroke:#000000; stroke-linecap:round; stroke-linejoin:round; stroke-width:4; stroke-opacity:1; fill:none" points="1723.2,910.936 1723.2,892.038 "/>
<polyline clip-path="url(#clip760)" style="stroke:#000000; stroke-linecap:round; stroke-linejoin:round; stroke-width:4; stroke-opacity:1; fill:none" points="1974.82,910.936 1974.82,892.038 "/>
<polyline clip-path="url(#clip760)" style="stroke:#000000; stroke-linecap:round; stroke-linejoin:round; stroke-width:4; stroke-opacity:1; fill:none" points="2226.44,910.936 2226.44,892.038 "/>
<path clip-path="url(#clip760)" d="M1471.57 941.855 Q1467.96 941.855 1466.13 945.419 Q1464.33 948.961 1464.33 956.091 Q1464.33 963.197 1466.13 966.762 Q1467.96 970.303 1471.57 970.303 Q1475.21 970.303 1477.01 966.762 Q1478.84 963.197 1478.84 956.091 Q1478.84 948.961 1477.01 945.419 Q1475.21 941.855 1471.57 941.855 M1471.57 938.151 Q1477.38 938.151 1480.44 942.757 Q1483.52 947.341 1483.52 956.091 Q1483.52 964.817 1480.44 969.424 Q1477.38 974.007 1471.57 974.007 Q1465.76 974.007 1462.68 969.424 Q1459.63 964.817 1459.63 956.091 Q1459.63 947.341 1462.68 942.757 Q1465.76 938.151 1471.57 938.151 Z" fill="#000000" fill-rule="nonzero" fill-opacity="1" /><path clip-path="url(#clip760)" d="M1713.58 969.401 L1721.22 969.401 L1721.22 943.035 L1712.91 944.702 L1712.91 940.443 L1721.17 938.776 L1725.85 938.776 L1725.85 969.401 L1733.49 969.401 L1733.49 973.336 L1713.58 973.336 L1713.58 969.401 Z" fill="#000000" fill-rule="nonzero" fill-opacity="1" /><path clip-path="url(#clip760)" d="M1969.47 969.401 L1985.79 969.401 L1985.79 973.336 L1963.85 973.336 L1963.85 969.401 Q1966.51 966.646 1971.09 962.016 Q1975.7 957.364 1976.88 956.021 Q1979.12 953.498 1980 951.762 Q1980.91 950.003 1980.91 948.313 Q1980.91 945.558 1978.96 943.822 Q1977.04 942.086 1973.94 942.086 Q1971.74 942.086 1969.29 942.85 Q1966.86 943.614 1964.08 945.165 L1964.08 940.443 Q1966.9 939.308 1969.36 938.73 Q1971.81 938.151 1973.85 938.151 Q1979.22 938.151 1982.41 940.836 Q1985.61 943.521 1985.61 948.012 Q1985.61 950.142 1984.8 952.063 Q1984.01 953.961 1981.9 956.554 Q1981.32 957.225 1978.22 960.442 Q1975.12 963.637 1969.47 969.401 Z" fill="#000000" fill-rule="nonzero" fill-opacity="1" /><path clip-path="url(#clip760)" d="M2230.69 954.702 Q2234.05 955.419 2235.92 957.688 Q2237.82 959.956 2237.82 963.29 Q2237.82 968.405 2234.3 971.206 Q2230.78 974.007 2224.3 974.007 Q2222.12 974.007 2219.81 973.567 Q2217.52 973.151 2215.06 972.294 L2215.06 967.78 Q2217.01 968.915 2219.32 969.493 Q2221.64 970.072 2224.16 970.072 Q2228.56 970.072 2230.85 968.336 Q2233.17 966.6 2233.17 963.29 Q2233.17 960.234 2231.01 958.521 Q2228.88 956.785 2225.06 956.785 L2221.04 956.785 L2221.04 952.942 L2225.25 952.942 Q2228.7 952.942 2230.53 951.577 Q2232.36 950.188 2232.36 947.595 Q2232.36 944.933 2230.46 943.521 Q2228.58 942.086 2225.06 942.086 Q2223.14 942.086 2220.94 942.503 Q2218.74 942.919 2216.11 943.799 L2216.11 939.632 Q2218.77 938.892 2221.08 938.521 Q2223.42 938.151 2225.48 938.151 Q2230.8 938.151 2233.91 940.581 Q2237.01 942.989 2237.01 947.109 Q2237.01 949.979 2235.36 951.97 Q2233.72 953.938 2230.69 954.702 Z" fill="#000000" fill-rule="nonzero" fill-opacity="1" /><polyline clip-path="url(#clip764)" style="stroke:#000000; stroke-linecap:round; stroke-linejoin:round; stroke-width:2; stroke-opacity:0.1; fill:none" points="1445.91,854.307 2352.76,854.307 "/>
<polyline clip-path="url(#clip764)" style="stroke:#000000; stroke-linecap:round; stroke-linejoin:round; stroke-width:2; stroke-opacity:0.1; fill:none" points="1445.91,788.306 2352.76,788.306 "/>
<polyline clip-path="url(#clip764)" style="stroke:#000000; stroke-linecap:round; stroke-linejoin:round; stroke-width:2; stroke-opacity:0.1; fill:none" points="1445.91,722.305 2352.76,722.305 "/>
<polyline clip-path="url(#clip764)" style="stroke:#000000; stroke-linecap:round; stroke-linejoin:round; stroke-width:2; stroke-opacity:0.1; fill:none" points="1445.91,656.304 2352.76,656.304 "/>
<polyline clip-path="url(#clip764)" style="stroke:#000000; stroke-linecap:round; stroke-linejoin:round; stroke-width:2; stroke-opacity:0.1; fill:none" points="1445.91,590.303 2352.76,590.303 "/>
<polyline clip-path="url(#clip760)" style="stroke:#000000; stroke-linecap:round; stroke-linejoin:round; stroke-width:4; stroke-opacity:1; fill:none" points="1445.91,910.936 1445.91,559.488 "/>
<polyline clip-path="url(#clip760)" style="stroke:#000000; stroke-linecap:round; stroke-linejoin:round; stroke-width:4; stroke-opacity:1; fill:none" points="1445.91,854.307 1464.81,854.307 "/>
<polyline clip-path="url(#clip760)" style="stroke:#000000; stroke-linecap:round; stroke-linejoin:round; stroke-width:4; stroke-opacity:1; fill:none" points="1445.91,788.306 1464.81,788.306 "/>
<polyline clip-path="url(#clip760)" style="stroke:#000000; stroke-linecap:round; stroke-linejoin:round; stroke-width:4; stroke-opacity:1; fill:none" points="1445.91,722.305 1464.81,722.305 "/>
<polyline clip-path="url(#clip760)" style="stroke:#000000; stroke-linecap:round; stroke-linejoin:round; stroke-width:4; stroke-opacity:1; fill:none" points="1445.91,656.304 1464.81,656.304 "/>
<polyline clip-path="url(#clip760)" style="stroke:#000000; stroke-linecap:round; stroke-linejoin:round; stroke-width:4; stroke-opacity:1; fill:none" points="1445.91,590.303 1464.81,590.303 "/>
<path clip-path="url(#clip760)" d="M1303.96 854.758 L1333.64 854.758 L1333.64 858.693 L1303.96 858.693 L1303.96 854.758 Z" fill="#000000" fill-rule="nonzero" fill-opacity="1" /><path clip-path="url(#clip760)" d="M1353.73 840.105 Q1350.12 840.105 1348.29 843.67 Q1346.48 847.212 1346.48 854.341 Q1346.48 861.448 1348.29 865.013 Q1350.12 868.554 1353.73 868.554 Q1357.36 868.554 1359.17 865.013 Q1361 861.448 1361 854.341 Q1361 847.212 1359.17 843.67 Q1357.36 840.105 1353.73 840.105 M1353.73 836.402 Q1359.54 836.402 1362.59 841.008 Q1365.67 845.591 1365.67 854.341 Q1365.67 863.068 1362.59 867.675 Q1359.54 872.258 1353.73 872.258 Q1347.92 872.258 1344.84 867.675 Q1341.78 863.068 1341.78 854.341 Q1341.78 845.591 1344.84 841.008 Q1347.92 836.402 1353.73 836.402 Z" fill="#000000" fill-rule="nonzero" fill-opacity="1" /><path clip-path="url(#clip760)" d="M1373.89 865.707 L1378.77 865.707 L1378.77 871.587 L1373.89 871.587 L1373.89 865.707 Z" fill="#000000" fill-rule="nonzero" fill-opacity="1" /><path clip-path="url(#clip760)" d="M1389.01 837.027 L1407.36 837.027 L1407.36 840.962 L1393.29 840.962 L1393.29 849.434 Q1394.31 849.087 1395.32 848.925 Q1396.34 848.74 1397.36 848.74 Q1403.15 848.74 1406.53 851.911 Q1409.91 855.082 1409.91 860.499 Q1409.91 866.077 1406.44 869.179 Q1402.96 872.258 1396.64 872.258 Q1394.47 872.258 1392.2 871.888 Q1389.95 871.517 1387.55 870.776 L1387.55 866.077 Q1389.63 867.212 1391.85 867.767 Q1394.07 868.323 1396.55 868.323 Q1400.56 868.323 1402.89 866.216 Q1405.23 864.11 1405.23 860.499 Q1405.23 856.888 1402.89 854.781 Q1400.56 852.675 1396.55 852.675 Q1394.68 852.675 1392.8 853.091 Q1390.95 853.508 1389.01 854.388 L1389.01 837.027 Z" fill="#000000" fill-rule="nonzero" fill-opacity="1" /><path clip-path="url(#clip760)" d="M1352.73 774.104 Q1349.12 774.104 1347.29 777.669 Q1345.49 781.211 1345.49 788.34 Q1345.49 795.447 1347.29 799.012 Q1349.12 802.553 1352.73 802.553 Q1356.37 802.553 1358.17 799.012 Q1360 795.447 1360 788.34 Q1360 781.211 1358.17 777.669 Q1356.37 774.104 1352.73 774.104 M1352.73 770.401 Q1358.54 770.401 1361.6 775.007 Q1364.68 779.591 1364.68 788.34 Q1364.68 797.067 1361.6 801.674 Q1358.54 806.257 1352.73 806.257 Q1346.92 806.257 1343.84 801.674 Q1340.79 797.067 1340.79 788.34 Q1340.79 779.591 1343.84 775.007 Q1346.92 770.401 1352.73 770.401 Z" fill="#000000" fill-rule="nonzero" fill-opacity="1" /><path clip-path="url(#clip760)" d="M1372.89 799.706 L1377.78 799.706 L1377.78 805.586 L1372.89 805.586 L1372.89 799.706 Z" fill="#000000" fill-rule="nonzero" fill-opacity="1" /><path clip-path="url(#clip760)" d="M1397.96 774.104 Q1394.35 774.104 1392.52 777.669 Q1390.72 781.211 1390.72 788.34 Q1390.72 795.447 1392.52 799.012 Q1394.35 802.553 1397.96 802.553 Q1401.6 802.553 1403.4 799.012 Q1405.23 795.447 1405.23 788.34 Q1405.23 781.211 1403.4 777.669 Q1401.6 774.104 1397.96 774.104 M1397.96 770.401 Q1403.77 770.401 1406.83 775.007 Q1409.91 779.591 1409.91 788.34 Q1409.91 797.067 1406.83 801.674 Q1403.77 806.257 1397.96 806.257 Q1392.15 806.257 1389.07 801.674 Q1386.02 797.067 1386.02 788.34 Q1386.02 779.591 1389.07 775.007 Q1392.15 770.401 1397.96 770.401 Z" fill="#000000" fill-rule="nonzero" fill-opacity="1" /><path clip-path="url(#clip760)" d="M1353.73 708.104 Q1350.12 708.104 1348.29 711.668 Q1346.48 715.21 1346.48 722.34 Q1346.48 729.446 1348.29 733.011 Q1350.12 736.553 1353.73 736.553 Q1357.36 736.553 1359.17 733.011 Q1361 729.446 1361 722.34 Q1361 715.21 1359.17 711.668 Q1357.36 708.104 1353.73 708.104 M1353.73 704.4 Q1359.54 704.4 1362.59 709.006 Q1365.67 713.59 1365.67 722.34 Q1365.67 731.066 1362.59 735.673 Q1359.54 740.256 1353.73 740.256 Q1347.92 740.256 1344.84 735.673 Q1341.78 731.066 1341.78 722.34 Q1341.78 713.59 1344.84 709.006 Q1347.92 704.4 1353.73 704.4 Z" fill="#000000" fill-rule="nonzero" fill-opacity="1" /><path clip-path="url(#clip760)" d="M1373.89 733.705 L1378.77 733.705 L1378.77 739.585 L1373.89 739.585 L1373.89 733.705 Z" fill="#000000" fill-rule="nonzero" fill-opacity="1" /><path clip-path="url(#clip760)" d="M1389.01 705.025 L1407.36 705.025 L1407.36 708.96 L1393.29 708.96 L1393.29 717.432 Q1394.31 717.085 1395.32 716.923 Q1396.34 716.738 1397.36 716.738 Q1403.15 716.738 1406.53 719.909 Q1409.91 723.08 1409.91 728.497 Q1409.91 734.076 1406.44 737.178 Q1402.96 740.256 1396.64 740.256 Q1394.47 740.256 1392.2 739.886 Q1389.95 739.515 1387.55 738.775 L1387.55 734.076 Q1389.63 735.21 1391.85 735.766 Q1394.07 736.321 1396.55 736.321 Q1400.56 736.321 1402.89 734.215 Q1405.23 732.108 1405.23 728.497 Q1405.23 724.886 1402.89 722.779 Q1400.56 720.673 1396.55 720.673 Q1394.68 720.673 1392.8 721.09 Q1390.95 721.506 1389.01 722.386 L1389.01 705.025 Z" fill="#000000" fill-rule="nonzero" fill-opacity="1" /><path clip-path="url(#clip760)" d="M1343.54 669.649 L1351.18 669.649 L1351.18 643.283 L1342.87 644.95 L1342.87 640.691 L1351.13 639.024 L1355.81 639.024 L1355.81 669.649 L1363.45 669.649 L1363.45 673.584 L1343.54 673.584 L1343.54 669.649 Z" fill="#000000" fill-rule="nonzero" fill-opacity="1" /><path clip-path="url(#clip760)" d="M1372.89 667.704 L1377.78 667.704 L1377.78 673.584 L1372.89 673.584 L1372.89 667.704 Z" fill="#000000" fill-rule="nonzero" fill-opacity="1" /><path clip-path="url(#clip760)" d="M1397.96 642.103 Q1394.35 642.103 1392.52 645.668 Q1390.72 649.209 1390.72 656.339 Q1390.72 663.445 1392.52 667.01 Q1394.35 670.552 1397.96 670.552 Q1401.6 670.552 1403.4 667.01 Q1405.23 663.445 1405.23 656.339 Q1405.23 649.209 1403.4 645.668 Q1401.6 642.103 1397.96 642.103 M1397.96 638.399 Q1403.77 638.399 1406.83 643.006 Q1409.91 647.589 1409.91 656.339 Q1409.91 665.066 1406.83 669.672 Q1403.77 674.255 1397.96 674.255 Q1392.15 674.255 1389.07 669.672 Q1386.02 665.066 1386.02 656.339 Q1386.02 647.589 1389.07 643.006 Q1392.15 638.399 1397.96 638.399 Z" fill="#000000" fill-rule="nonzero" fill-opacity="1" /><path clip-path="url(#clip760)" d="M1344.54 603.648 L1352.18 603.648 L1352.18 577.282 L1343.87 578.949 L1343.87 574.69 L1352.13 573.023 L1356.81 573.023 L1356.81 603.648 L1364.45 603.648 L1364.45 607.583 L1344.54 607.583 L1344.54 603.648 Z" fill="#000000" fill-rule="nonzero" fill-opacity="1" /><path clip-path="url(#clip760)" d="M1373.89 601.704 L1378.77 601.704 L1378.77 607.583 L1373.89 607.583 L1373.89 601.704 Z" fill="#000000" fill-rule="nonzero" fill-opacity="1" /><path clip-path="url(#clip760)" d="M1389.01 573.023 L1407.36 573.023 L1407.36 576.958 L1393.29 576.958 L1393.29 585.431 Q1394.31 585.083 1395.32 584.921 Q1396.34 584.736 1397.36 584.736 Q1403.15 584.736 1406.53 587.907 Q1409.91 591.079 1409.91 596.495 Q1409.91 602.074 1406.44 605.176 Q1402.96 608.255 1396.64 608.255 Q1394.47 608.255 1392.2 607.884 Q1389.95 607.514 1387.55 606.773 L1387.55 602.074 Q1389.63 603.208 1391.85 603.764 Q1394.07 604.319 1396.55 604.319 Q1400.56 604.319 1402.89 602.213 Q1405.23 600.106 1405.23 596.495 Q1405.23 592.884 1402.89 590.778 Q1400.56 588.671 1396.55 588.671 Q1394.68 588.671 1392.8 589.088 Q1390.95 589.505 1389.01 590.384 L1389.01 573.023 Z" fill="#000000" fill-rule="nonzero" fill-opacity="1" /><path clip-path="url(#clip760)" d="M1219.58 734.795 Q1221.38 734.795 1222.41 735.922 Q1223.41 737.049 1223.41 738.338 Q1223.41 739.561 1222.7 740.206 Q1222 740.85 1221.09 740.85 Q1219.87 740.85 1218.81 739.948 Q1217.75 739.046 1217.52 737.693 Q1216.68 739.014 1216.68 740.978 Q1216.68 742.267 1217.36 743.394 Q1218.03 744.489 1218.9 745.165 Q1219.77 745.809 1221.03 746.389 Q1222.25 746.937 1222.99 747.162 Q1223.7 747.355 1224.48 747.516 L1233.49 749.771 Q1237.78 750.866 1239.29 750.866 Q1241.16 750.866 1242.41 749.964 Q1243.64 749.062 1243.64 747.259 Q1243.64 746.55 1243.45 745.745 Q1243.22 744.94 1242.64 743.909 Q1242.03 742.846 1241.13 741.912 Q1240.19 740.946 1238.61 740.012 Q1237.04 739.078 1235.01 738.466 Q1234.3 738.273 1234.3 737.629 Q1234.3 736.824 1234.94 736.824 Q1235.49 736.824 1236.65 737.275 Q1237.78 737.693 1239.26 738.627 Q1240.71 739.529 1242.03 740.721 Q1243.32 741.912 1244.22 743.684 Q1245.12 745.455 1245.12 747.387 Q1245.12 750.157 1243.64 751.993 Q1242.16 753.829 1240.1 754.505 Q1240.39 754.666 1240.77 754.891 Q1241.16 755.117 1242.03 755.793 Q1242.87 756.437 1243.51 757.178 Q1244.12 757.919 1244.6 759.078 Q1245.12 760.205 1245.12 761.429 Q1245.12 762.975 1244.67 764.36 Q1244.22 765.713 1243.19 766.679 Q1242.16 767.645 1240.74 767.645 Q1239.16 767.645 1238.07 766.582 Q1236.94 765.487 1236.94 764.006 Q1236.94 763.072 1237.49 762.331 Q1238.03 761.558 1239.23 761.558 Q1240.55 761.558 1241.55 762.46 Q1242.54 763.362 1242.8 764.65 Q1243.64 763.329 1243.64 761.365 Q1243.64 759.239 1241.77 757.565 Q1239.9 755.89 1236.78 755.085 Q1229.27 753.088 1225.93 752.315 Q1222.54 751.542 1221.09 751.542 Q1219.74 751.542 1218.81 751.896 Q1217.87 752.251 1217.46 752.862 Q1217 753.442 1216.84 753.99 Q1216.68 754.505 1216.68 755.085 Q1216.68 756.051 1217.07 757.146 Q1217.46 758.209 1218.36 759.497 Q1219.23 760.753 1221.03 761.944 Q1222.83 763.136 1225.31 763.941 Q1226.05 764.102 1226.05 764.811 Q1226.02 765.584 1225.38 765.584 Q1224.83 765.584 1223.7 765.165 Q1222.54 764.714 1221.09 763.812 Q1219.65 762.878 1218.36 761.687 Q1217.04 760.463 1216.13 758.692 Q1215.23 756.888 1215.23 754.956 Q1215.23 754.086 1215.43 753.249 Q1215.59 752.379 1216.07 751.349 Q1216.55 750.286 1217.62 749.352 Q1218.68 748.418 1220.22 747.838 Q1219.48 747.452 1218.78 746.937 Q1218.07 746.389 1217.2 745.552 Q1216.3 744.682 1215.78 743.491 Q1215.23 742.267 1215.23 740.914 Q1215.23 739.594 1215.59 738.305 Q1215.91 737.017 1216.97 735.922 Q1218 734.795 1219.58 734.795 Z" fill="#000000" fill-rule="nonzero" fill-opacity="1" /><path clip-path="url(#clip760)" d="M1263.39 728.074 Q1262.56 728.074 1262.31 728.006 Q1262.06 727.916 1261.68 727.555 L1251.8 718.695 Q1246.35 713.848 1241.59 713.848 Q1238.5 713.848 1236.29 715.472 Q1234.08 717.072 1234.08 720.025 Q1234.08 722.054 1235.32 723.768 Q1236.56 725.481 1238.77 726.27 Q1238.73 726.135 1238.73 725.661 Q1238.73 724.512 1239.45 723.88 Q1240.17 723.227 1241.14 723.227 Q1242.38 723.227 1242.99 724.038 Q1243.57 724.827 1243.57 725.616 Q1243.57 725.932 1243.51 726.36 Q1243.44 726.766 1242.81 727.42 Q1242.15 728.074 1241 728.074 Q1237.78 728.074 1235.21 725.639 Q1232.64 723.182 1232.64 719.439 Q1232.64 715.201 1235.17 712.428 Q1237.67 709.633 1241.59 709.633 Q1242.97 709.633 1244.23 710.061 Q1245.47 710.467 1246.44 711.03 Q1247.41 711.571 1248.96 713.059 Q1250.52 714.547 1251.62 715.742 Q1252.73 716.937 1255.07 719.62 L1259.83 724.512 L1259.83 716.193 Q1259.83 712.135 1259.47 711.819 Q1258.81 711.369 1255.36 710.805 L1255.36 709.633 L1263.39 710.94 L1263.39 728.074 Z" fill="#000000" fill-rule="nonzero" fill-opacity="1" /><polyline clip-path="url(#clip764)" style="stroke:#009af9; stroke-linecap:round; stroke-linejoin:round; stroke-width:4; stroke-opacity:1; fill:none" points="1471.57,788.306 1496.74,650.804 1521.9,582.053 1547.06,581.305 1572.22,630.575 1597.38,702.992 1622.55,773.512 1647.71,826.376 1672.87,855.786 1698.03,862.783 1723.2,852.26 1748.36,831.025 1773.52,806.314 1798.68,784.367 1823.85,769.31 1849.01,762.676 1874.17,763.661 1899.33,769.915 1924.49,778.535 1949.66,786.914 1974.82,793.254 1999.98,796.73 2025.14,797.38 2050.31,795.849 2075.47,793.078 2100.63,790.02 2125.79,787.431 2150.95,785.755 2176.12,785.112 2201.28,785.357 2226.44,786.189 2251.6,787.26 2276.77,788.264 2301.93,788.998 2327.09,789.374 "/>
<polyline clip-path="url(#clip764)" style="stroke:#e26f46; stroke-linecap:round; stroke-linejoin:round; stroke-width:3; stroke-opacity:1; fill:none" stroke-dasharray="12, 6, 2, 6" points="1471.57,788.306 1496.74,651.124 1521.9,569.435 1547.06,571.514 1572.22,625.782 1597.38,676.737 1622.55,772.036 1647.71,836.277 1672.87,887.721 1698.03,900.989 1723.2,889.291 1748.36,854.572 1773.52,824.453 1798.68,787.098 1823.85,767.143 1849.01,755.702 1874.17,750.403 1899.33,768.095 1924.49,775.082 1949.66,782.101 1974.82,793.823 1999.98,799.311 2025.14,805.879 2050.31,791.372 2075.47,801.167 2100.63,786.258 2125.79,787.796 2150.95,780.247 2176.12,785.865 2201.28,784.264 2226.44,781.754 2251.6,793.176 2276.77,785.021 2301.93,782.644 2327.09,791.205 "/>
<path clip-path="url(#clip760)" d="M2203.01 726.723 L2322.53 726.723 L2322.53 571.203 L2203.01 571.203  Z" fill="#ffffff" fill-rule="evenodd" fill-opacity="1"/>
<polyline clip-path="url(#clip760)" style="stroke:#000000; stroke-linecap:round; stroke-linejoin:round; stroke-width:4; stroke-opacity:1; fill:none" points="2203.01,726.723 2322.53,726.723 2322.53,571.203 2203.01,571.203 2203.01,726.723 "/>
<polyline clip-path="url(#clip760)" style="stroke:#009af9; stroke-linecap:round; stroke-linejoin:round; stroke-width:4; stroke-opacity:1; fill:none" points="2213.09,623.043 2273.55,623.043 "/>
<path clip-path="url(#clip760)" d="M2310.63 633.582 L2305.36 633.442 L2299.6 633.582 L2299.6 631.334 L2301.47 631.334 L2296.2 625.103 L2291.54 630.326 L2291.21 630.795 Q2291.21 631.006 2291.75 631.17 Q2292.31 631.334 2292.97 631.334 L2292.97 633.582 L2288.03 633.442 L2283.62 633.582 L2283.62 631.334 Q2285.1 631.334 2285.78 631.31 Q2286.48 631.263 2287.28 631.052 Q2288.07 630.842 2288.47 630.42 L2294.75 623.37 L2287.28 614.54 L2283.86 614.54 L2283.86 612.291 L2289.15 612.432 L2294.94 612.291 L2294.94 614.54 L2293.01 614.54 L2297.72 620.044 L2301.75 615.547 Q2301.77 615.523 2302.15 614.961 Q2301.4 614.54 2300.32 614.54 L2300.32 612.291 L2305.26 612.432 L2309.67 612.291 L2309.67 614.54 Q2307.75 614.54 2306.74 614.68 Q2305.76 614.797 2305.45 614.961 Q2305.17 615.125 2304.77 615.547 L2299.17 621.777 L2307.23 631.334 L2310.63 631.334 L2310.63 633.582 Z" fill="#000000" fill-rule="nonzero" fill-opacity="1" /><polyline clip-path="url(#clip760)" style="stroke:#e26f46; stroke-linecap:round; stroke-linejoin:round; stroke-width:3; stroke-opacity:1; fill:none" stroke-dasharray="12, 6, 2, 6" points="2213.09,674.883 2273.55,674.883 "/>
<path clip-path="url(#clip760)" d="M2306.21 663.361 L2305.8 664.033 Q2303.26 662.935 2300.09 661.18 Q2296.93 662.935 2294.39 664.033 L2293.99 663.361 Q2296.76 660.951 2300.09 659.098 Q2303.45 660.967 2306.21 663.361 Z" fill="#000000" fill-rule="nonzero" fill-opacity="1" /><path clip-path="url(#clip760)" d="M2310.63 690.427 L2305.36 690.286 L2299.6 690.427 L2299.6 688.178 L2301.47 688.178 L2296.2 681.948 L2291.54 687.171 L2291.21 687.639 Q2291.21 687.85 2291.75 688.014 Q2292.31 688.178 2292.97 688.178 L2292.97 690.427 L2288.03 690.286 L2283.62 690.427 L2283.62 688.178 Q2285.1 688.178 2285.78 688.155 Q2286.48 688.108 2287.28 687.897 Q2288.07 687.686 2288.47 687.265 L2294.75 680.214 L2287.28 671.384 L2283.86 671.384 L2283.86 669.136 L2289.15 669.276 L2294.94 669.136 L2294.94 671.384 L2293.01 671.384 L2297.72 676.888 L2301.75 672.391 Q2301.77 672.368 2302.15 671.806 Q2301.4 671.384 2300.32 671.384 L2300.32 669.136 L2305.26 669.276 L2309.67 669.136 L2309.67 671.384 Q2307.75 671.384 2306.74 671.525 Q2305.76 671.642 2305.45 671.806 Q2305.17 671.97 2304.77 672.391 L2299.17 678.622 L2307.23 688.178 L2310.63 688.178 L2310.63 690.427 Z" fill="#000000" fill-rule="nonzero" fill-opacity="1" /><path clip-path="url(#clip760)" d="M1445.91 1423.18 L2352.76 1423.18 L2352.76 1071.73 L1445.91 1071.73  Z" fill="#ffffff" fill-rule="evenodd" fill-opacity="1"/>
<defs>
  <clipPath id="clip765">
    <rect x="1445" y="1071" width="908" height="352"/>
  </clipPath>
</defs>
<polyline clip-path="url(#clip765)" style="stroke:#000000; stroke-linecap:round; stroke-linejoin:round; stroke-width:2; stroke-opacity:0.1; fill:none" points="1471.57,1423.18 1471.57,1071.73 "/>
<polyline clip-path="url(#clip765)" style="stroke:#000000; stroke-linecap:round; stroke-linejoin:round; stroke-width:2; stroke-opacity:0.1; fill:none" points="1723.2,1423.18 1723.2,1071.73 "/>
<polyline clip-path="url(#clip765)" style="stroke:#000000; stroke-linecap:round; stroke-linejoin:round; stroke-width:2; stroke-opacity:0.1; fill:none" points="1974.82,1423.18 1974.82,1071.73 "/>
<polyline clip-path="url(#clip765)" style="stroke:#000000; stroke-linecap:round; stroke-linejoin:round; stroke-width:2; stroke-opacity:0.1; fill:none" points="2226.44,1423.18 2226.44,1071.73 "/>
<polyline clip-path="url(#clip760)" style="stroke:#000000; stroke-linecap:round; stroke-linejoin:round; stroke-width:4; stroke-opacity:1; fill:none" points="1445.91,1423.18 2352.76,1423.18 "/>
<polyline clip-path="url(#clip760)" style="stroke:#000000; stroke-linecap:round; stroke-linejoin:round; stroke-width:4; stroke-opacity:1; fill:none" points="1471.57,1423.18 1471.57,1404.28 "/>
<polyline clip-path="url(#clip760)" style="stroke:#000000; stroke-linecap:round; stroke-linejoin:round; stroke-width:4; stroke-opacity:1; fill:none" points="1723.2,1423.18 1723.2,1404.28 "/>
<polyline clip-path="url(#clip760)" style="stroke:#000000; stroke-linecap:round; stroke-linejoin:round; stroke-width:4; stroke-opacity:1; fill:none" points="1974.82,1423.18 1974.82,1404.28 "/>
<polyline clip-path="url(#clip760)" style="stroke:#000000; stroke-linecap:round; stroke-linejoin:round; stroke-width:4; stroke-opacity:1; fill:none" points="2226.44,1423.18 2226.44,1404.28 "/>
<path clip-path="url(#clip760)" d="M1471.57 1454.1 Q1467.96 1454.1 1466.13 1457.66 Q1464.33 1461.2 1464.33 1468.33 Q1464.33 1475.44 1466.13 1479.01 Q1467.96 1482.55 1471.57 1482.55 Q1475.21 1482.55 1477.01 1479.01 Q1478.84 1475.44 1478.84 1468.33 Q1478.84 1461.2 1477.01 1457.66 Q1475.21 1454.1 1471.57 1454.1 M1471.57 1450.39 Q1477.38 1450.39 1480.44 1455 Q1483.52 1459.58 1483.52 1468.33 Q1483.52 1477.06 1480.44 1481.67 Q1477.38 1486.25 1471.57 1486.25 Q1465.76 1486.25 1462.68 1481.67 Q1459.63 1477.06 1459.63 1468.33 Q1459.63 1459.58 1462.68 1455 Q1465.76 1450.39 1471.57 1450.39 Z" fill="#000000" fill-rule="nonzero" fill-opacity="1" /><path clip-path="url(#clip760)" d="M1713.58 1481.64 L1721.22 1481.64 L1721.22 1455.28 L1712.91 1456.95 L1712.91 1452.69 L1721.17 1451.02 L1725.85 1451.02 L1725.85 1481.64 L1733.49 1481.64 L1733.49 1485.58 L1713.58 1485.58 L1713.58 1481.64 Z" fill="#000000" fill-rule="nonzero" fill-opacity="1" /><path clip-path="url(#clip760)" d="M1969.47 1481.64 L1985.79 1481.64 L1985.79 1485.58 L1963.85 1485.58 L1963.85 1481.64 Q1966.51 1478.89 1971.09 1474.26 Q1975.7 1469.61 1976.88 1468.27 Q1979.12 1465.74 1980 1464.01 Q1980.91 1462.25 1980.91 1460.56 Q1980.91 1457.8 1978.96 1456.07 Q1977.04 1454.33 1973.94 1454.33 Q1971.74 1454.33 1969.29 1455.09 Q1966.86 1455.86 1964.08 1457.41 L1964.08 1452.69 Q1966.9 1451.55 1969.36 1450.97 Q1971.81 1450.39 1973.85 1450.39 Q1979.22 1450.39 1982.41 1453.08 Q1985.61 1455.77 1985.61 1460.26 Q1985.61 1462.39 1984.8 1464.31 Q1984.01 1466.2 1981.9 1468.8 Q1981.32 1469.47 1978.22 1472.69 Q1975.12 1475.88 1969.47 1481.64 Z" fill="#000000" fill-rule="nonzero" fill-opacity="1" /><path clip-path="url(#clip760)" d="M2230.69 1466.95 Q2234.05 1467.66 2235.92 1469.93 Q2237.82 1472.2 2237.82 1475.53 Q2237.82 1480.65 2234.3 1483.45 Q2230.78 1486.25 2224.3 1486.25 Q2222.12 1486.25 2219.81 1485.81 Q2217.52 1485.39 2215.06 1484.54 L2215.06 1480.02 Q2217.01 1481.16 2219.32 1481.74 Q2221.64 1482.32 2224.16 1482.32 Q2228.56 1482.32 2230.85 1480.58 Q2233.17 1478.84 2233.17 1475.53 Q2233.17 1472.48 2231.01 1470.77 Q2228.88 1469.03 2225.06 1469.03 L2221.04 1469.03 L2221.04 1465.19 L2225.25 1465.19 Q2228.7 1465.19 2230.53 1463.82 Q2232.36 1462.43 2232.36 1459.84 Q2232.36 1457.18 2230.46 1455.77 Q2228.58 1454.33 2225.06 1454.33 Q2223.14 1454.33 2220.94 1454.75 Q2218.74 1455.16 2216.11 1456.04 L2216.11 1451.88 Q2218.77 1451.14 2221.08 1450.77 Q2223.42 1450.39 2225.48 1450.39 Q2230.8 1450.39 2233.91 1452.83 Q2237.01 1455.23 2237.01 1459.35 Q2237.01 1462.22 2235.36 1464.21 Q2233.72 1466.18 2230.69 1466.95 Z" fill="#000000" fill-rule="nonzero" fill-opacity="1" /><path clip-path="url(#clip760)" d="M1769.5 1520.52 L1809.7 1520.52 L1809.7 1525.93 L1792.83 1525.93 L1792.83 1568.04 L1786.37 1568.04 L1786.37 1525.93 L1769.5 1525.93 L1769.5 1520.52 Z" fill="#000000" fill-rule="nonzero" fill-opacity="1" /><path clip-path="url(#clip760)" d="M1813.65 1532.4 L1819.51 1532.4 L1819.51 1568.04 L1813.65 1568.04 L1813.65 1532.4 M1813.65 1518.52 L1819.51 1518.52 L1819.51 1525.93 L1813.65 1525.93 L1813.65 1518.52 Z" fill="#000000" fill-rule="nonzero" fill-opacity="1" /><path clip-path="url(#clip760)" d="M1859.51 1539.24 Q1861.71 1535.29 1864.77 1533.41 Q1867.82 1531.54 1871.96 1531.54 Q1877.53 1531.54 1880.55 1535.45 Q1883.58 1539.33 1883.58 1546.53 L1883.58 1568.04 L1877.69 1568.04 L1877.69 1546.72 Q1877.69 1541.59 1875.87 1539.11 Q1874.06 1536.63 1870.34 1536.63 Q1865.78 1536.63 1863.14 1539.65 Q1860.5 1542.68 1860.5 1547.9 L1860.5 1568.04 L1854.61 1568.04 L1854.61 1546.72 Q1854.61 1541.56 1852.8 1539.11 Q1850.98 1536.63 1847.2 1536.63 Q1842.71 1536.63 1840.07 1539.68 Q1837.43 1542.71 1837.43 1547.9 L1837.43 1568.04 L1831.54 1568.04 L1831.54 1532.4 L1837.43 1532.4 L1837.43 1537.93 Q1839.43 1534.66 1842.23 1533.1 Q1845.03 1531.54 1848.88 1531.54 Q1852.77 1531.54 1855.47 1533.51 Q1858.21 1535.48 1859.51 1539.24 Z" fill="#000000" fill-rule="nonzero" fill-opacity="1" /><path clip-path="url(#clip760)" d="M1925.75 1548.76 L1925.75 1551.62 L1898.82 1551.62 Q1899.2 1557.67 1902.45 1560.85 Q1905.73 1564 1911.55 1564 Q1914.93 1564 1918.08 1563.17 Q1921.26 1562.35 1924.38 1560.69 L1924.38 1566.23 Q1921.23 1567.57 1917.92 1568.27 Q1914.61 1568.97 1911.2 1568.97 Q1902.67 1568.97 1897.68 1564 Q1892.71 1559.04 1892.71 1550.57 Q1892.71 1541.82 1897.42 1536.69 Q1902.16 1531.54 1910.19 1531.54 Q1917.38 1531.54 1921.55 1536.18 Q1925.75 1540.8 1925.75 1548.76 M1919.89 1547.04 Q1919.83 1542.23 1917.19 1539.37 Q1914.58 1536.5 1910.25 1536.5 Q1905.35 1536.5 1902.39 1539.27 Q1899.46 1542.04 1899.01 1547.07 L1919.89 1547.04 Z" fill="#000000" fill-rule="nonzero" fill-opacity="1" /><path clip-path="url(#clip760)" d="M1970.15 1518.58 Q1965.89 1525.9 1963.82 1533.06 Q1961.75 1540.23 1961.75 1547.58 Q1961.75 1554.93 1963.82 1562.16 Q1965.92 1569.35 1970.15 1576.64 L1965.06 1576.64 Q1960.28 1569.16 1957.9 1561.93 Q1955.54 1554.71 1955.54 1547.58 Q1955.54 1540.48 1957.9 1533.29 Q1960.25 1526.09 1965.06 1518.58 L1970.15 1518.58 Z" fill="#000000" fill-rule="nonzero" fill-opacity="1" /><path clip-path="url(#clip760)" d="M2004.24 1533.45 L2004.24 1538.98 Q2001.76 1537.71 1999.08 1537.07 Q1996.41 1536.44 1993.54 1536.44 Q1989.18 1536.44 1986.99 1537.77 Q1984.82 1539.11 1984.82 1541.79 Q1984.82 1543.82 1986.38 1545 Q1987.94 1546.15 1992.65 1547.2 L1994.66 1547.64 Q2000.9 1548.98 2003.51 1551.43 Q2006.15 1553.85 2006.15 1558.21 Q2006.15 1563.17 2002.2 1566.07 Q1998.29 1568.97 1991.41 1568.97 Q1988.55 1568.97 1985.43 1568.39 Q1982.34 1567.85 1978.9 1566.74 L1978.9 1560.69 Q1982.15 1562.38 1985.3 1563.24 Q1988.45 1564.07 1991.54 1564.07 Q1995.68 1564.07 1997.9 1562.66 Q2000.13 1561.23 2000.13 1558.65 Q2000.13 1556.27 1998.51 1554.99 Q1996.92 1553.72 1991.48 1552.54 L1989.44 1552.07 Q1984 1550.92 1981.58 1548.56 Q1979.16 1546.18 1979.16 1542.04 Q1979.16 1537.01 1982.72 1534.27 Q1986.29 1531.54 1992.84 1531.54 Q1996.09 1531.54 1998.96 1532.01 Q2001.82 1532.49 2004.24 1533.45 Z" fill="#000000" fill-rule="nonzero" fill-opacity="1" /><path clip-path="url(#clip760)" d="M2014.55 1518.58 L2019.64 1518.58 Q2024.42 1526.09 2026.77 1533.29 Q2029.16 1540.48 2029.16 1547.58 Q2029.16 1554.71 2026.77 1561.93 Q2024.42 1569.16 2019.64 1576.64 L2014.55 1576.64 Q2018.78 1569.35 2020.85 1562.16 Q2022.95 1554.93 2022.95 1547.58 Q2022.95 1540.23 2020.85 1533.06 Q2018.78 1525.9 2014.55 1518.58 Z" fill="#000000" fill-rule="nonzero" fill-opacity="1" /><polyline clip-path="url(#clip765)" style="stroke:#000000; stroke-linecap:round; stroke-linejoin:round; stroke-width:2; stroke-opacity:0.1; fill:none" points="1445.91,1377.52 2352.76,1377.52 "/>
<polyline clip-path="url(#clip765)" style="stroke:#000000; stroke-linecap:round; stroke-linejoin:round; stroke-width:2; stroke-opacity:0.1; fill:none" points="1445.91,1303.09 2352.76,1303.09 "/>
<polyline clip-path="url(#clip765)" style="stroke:#000000; stroke-linecap:round; stroke-linejoin:round; stroke-width:2; stroke-opacity:0.1; fill:none" points="1445.91,1228.66 2352.76,1228.66 "/>
<polyline clip-path="url(#clip765)" style="stroke:#000000; stroke-linecap:round; stroke-linejoin:round; stroke-width:2; stroke-opacity:0.1; fill:none" points="1445.91,1154.23 2352.76,1154.23 "/>
<polyline clip-path="url(#clip765)" style="stroke:#000000; stroke-linecap:round; stroke-linejoin:round; stroke-width:2; stroke-opacity:0.1; fill:none" points="1445.91,1079.8 2352.76,1079.8 "/>
<polyline clip-path="url(#clip760)" style="stroke:#000000; stroke-linecap:round; stroke-linejoin:round; stroke-width:4; stroke-opacity:1; fill:none" points="1445.91,1423.18 1445.91,1071.73 "/>
<polyline clip-path="url(#clip760)" style="stroke:#000000; stroke-linecap:round; stroke-linejoin:round; stroke-width:4; stroke-opacity:1; fill:none" points="1445.91,1377.52 1464.81,1377.52 "/>
<polyline clip-path="url(#clip760)" style="stroke:#000000; stroke-linecap:round; stroke-linejoin:round; stroke-width:4; stroke-opacity:1; fill:none" points="1445.91,1303.09 1464.81,1303.09 "/>
<polyline clip-path="url(#clip760)" style="stroke:#000000; stroke-linecap:round; stroke-linejoin:round; stroke-width:4; stroke-opacity:1; fill:none" points="1445.91,1228.66 1464.81,1228.66 "/>
<polyline clip-path="url(#clip760)" style="stroke:#000000; stroke-linecap:round; stroke-linejoin:round; stroke-width:4; stroke-opacity:1; fill:none" points="1445.91,1154.23 1464.81,1154.23 "/>
<polyline clip-path="url(#clip760)" style="stroke:#000000; stroke-linecap:round; stroke-linejoin:round; stroke-width:4; stroke-opacity:1; fill:none" points="1445.91,1079.8 1464.81,1079.8 "/>
<path clip-path="url(#clip760)" d="M1272.64 1377.97 L1302.32 1377.97 L1302.32 1381.9 L1272.64 1381.9 L1272.64 1377.97 Z" fill="#000000" fill-rule="nonzero" fill-opacity="1" /><path clip-path="url(#clip760)" d="M1322.41 1363.32 Q1318.8 1363.32 1316.97 1366.88 Q1315.16 1370.42 1315.16 1377.55 Q1315.16 1384.66 1316.97 1388.22 Q1318.8 1391.77 1322.41 1391.77 Q1326.04 1391.77 1327.85 1388.22 Q1329.68 1384.66 1329.68 1377.55 Q1329.68 1370.42 1327.85 1366.88 Q1326.04 1363.32 1322.41 1363.32 M1322.41 1359.61 Q1328.22 1359.61 1331.27 1364.22 Q1334.35 1368.8 1334.35 1377.55 Q1334.35 1386.28 1331.27 1390.89 Q1328.22 1395.47 1322.41 1395.47 Q1316.6 1395.47 1313.52 1390.89 Q1310.46 1386.28 1310.46 1377.55 Q1310.46 1368.8 1313.52 1364.22 Q1316.6 1359.61 1322.41 1359.61 Z" fill="#000000" fill-rule="nonzero" fill-opacity="1" /><path clip-path="url(#clip760)" d="M1342.57 1388.92 L1347.45 1388.92 L1347.45 1394.8 L1342.57 1394.8 L1342.57 1388.92 Z" fill="#000000" fill-rule="nonzero" fill-opacity="1" /><path clip-path="url(#clip760)" d="M1367.64 1363.32 Q1364.03 1363.32 1362.2 1366.88 Q1360.39 1370.42 1360.39 1377.55 Q1360.39 1384.66 1362.2 1388.22 Q1364.03 1391.77 1367.64 1391.77 Q1371.27 1391.77 1373.08 1388.22 Q1374.91 1384.66 1374.91 1377.55 Q1374.91 1370.42 1373.08 1366.88 Q1371.27 1363.32 1367.64 1363.32 M1367.64 1359.61 Q1373.45 1359.61 1376.51 1364.22 Q1379.58 1368.8 1379.58 1377.55 Q1379.58 1386.28 1376.51 1390.89 Q1373.45 1395.47 1367.64 1395.47 Q1361.83 1395.47 1358.75 1390.89 Q1355.7 1386.28 1355.7 1377.55 Q1355.7 1368.8 1358.75 1364.22 Q1361.83 1359.61 1367.64 1359.61 Z" fill="#000000" fill-rule="nonzero" fill-opacity="1" /><path clip-path="url(#clip760)" d="M1398.38 1375.65 Q1395.23 1375.65 1393.38 1377.81 Q1391.55 1379.96 1391.55 1383.71 Q1391.55 1387.44 1393.38 1389.61 Q1395.23 1391.77 1398.38 1391.77 Q1401.53 1391.77 1403.36 1389.61 Q1405.21 1387.44 1405.21 1383.71 Q1405.21 1379.96 1403.36 1377.81 Q1401.53 1375.65 1398.38 1375.65 M1407.66 1361 L1407.66 1365.26 Q1405.9 1364.43 1404.1 1363.99 Q1402.32 1363.55 1400.56 1363.55 Q1395.93 1363.55 1393.47 1366.67 Q1391.04 1369.8 1390.69 1376.12 Q1392.06 1374.1 1394.12 1373.04 Q1396.18 1371.95 1398.66 1371.95 Q1403.87 1371.95 1406.88 1375.12 Q1409.91 1378.27 1409.91 1383.71 Q1409.91 1389.03 1406.76 1392.25 Q1403.61 1395.47 1398.38 1395.47 Q1392.38 1395.47 1389.21 1390.89 Q1386.04 1386.28 1386.04 1377.55 Q1386.04 1369.36 1389.93 1364.5 Q1393.82 1359.61 1400.37 1359.61 Q1402.13 1359.61 1403.91 1359.96 Q1405.72 1360.31 1407.66 1361 Z" fill="#000000" fill-rule="nonzero" fill-opacity="1" /><path clip-path="url(#clip760)" d="M1272.32 1303.54 L1301.99 1303.54 L1301.99 1307.47 L1272.32 1307.47 L1272.32 1303.54 Z" fill="#000000" fill-rule="nonzero" fill-opacity="1" /><path clip-path="url(#clip760)" d="M1322.08 1288.89 Q1318.47 1288.89 1316.64 1292.45 Q1314.84 1295.99 1314.84 1303.12 Q1314.84 1310.23 1316.64 1313.79 Q1318.47 1317.34 1322.08 1317.34 Q1325.72 1317.34 1327.52 1313.79 Q1329.35 1310.23 1329.35 1303.12 Q1329.35 1295.99 1327.52 1292.45 Q1325.72 1288.89 1322.08 1288.89 M1322.08 1285.18 Q1327.89 1285.18 1330.95 1289.79 Q1334.03 1294.37 1334.03 1303.12 Q1334.03 1311.85 1330.95 1316.46 Q1327.89 1321.04 1322.08 1321.04 Q1316.27 1321.04 1313.2 1316.46 Q1310.14 1311.85 1310.14 1303.12 Q1310.14 1294.37 1313.2 1289.79 Q1316.27 1285.18 1322.08 1285.18 Z" fill="#000000" fill-rule="nonzero" fill-opacity="1" /><path clip-path="url(#clip760)" d="M1342.25 1314.49 L1347.13 1314.49 L1347.13 1320.37 L1342.25 1320.37 L1342.25 1314.49 Z" fill="#000000" fill-rule="nonzero" fill-opacity="1" /><path clip-path="url(#clip760)" d="M1367.32 1288.89 Q1363.7 1288.89 1361.88 1292.45 Q1360.07 1295.99 1360.07 1303.12 Q1360.07 1310.23 1361.88 1313.79 Q1363.7 1317.34 1367.32 1317.34 Q1370.95 1317.34 1372.76 1313.79 Q1374.58 1310.23 1374.58 1303.12 Q1374.58 1295.99 1372.76 1292.45 Q1370.95 1288.89 1367.32 1288.89 M1367.32 1285.18 Q1373.13 1285.18 1376.18 1289.79 Q1379.26 1294.37 1379.26 1303.12 Q1379.26 1311.85 1376.18 1316.46 Q1373.13 1321.04 1367.32 1321.04 Q1361.51 1321.04 1358.43 1316.46 Q1355.37 1311.85 1355.37 1303.12 Q1355.37 1294.37 1358.43 1289.79 Q1361.51 1285.18 1367.32 1285.18 Z" fill="#000000" fill-rule="nonzero" fill-opacity="1" /><path clip-path="url(#clip760)" d="M1400.32 1289.88 L1388.52 1308.33 L1400.32 1308.33 L1400.32 1289.88 M1399.1 1285.81 L1404.98 1285.81 L1404.98 1308.33 L1409.91 1308.33 L1409.91 1312.22 L1404.98 1312.22 L1404.98 1320.37 L1400.32 1320.37 L1400.32 1312.22 L1384.72 1312.22 L1384.72 1307.71 L1399.1 1285.81 Z" fill="#000000" fill-rule="nonzero" fill-opacity="1" /><path clip-path="url(#clip760)" d="M1274.4 1229.11 L1304.08 1229.11 L1304.08 1233.04 L1274.4 1233.04 L1274.4 1229.11 Z" fill="#000000" fill-rule="nonzero" fill-opacity="1" /><path clip-path="url(#clip760)" d="M1324.17 1214.46 Q1320.56 1214.46 1318.73 1218.02 Q1316.92 1221.56 1316.92 1228.69 Q1316.92 1235.8 1318.73 1239.36 Q1320.56 1242.9 1324.17 1242.9 Q1327.8 1242.9 1329.61 1239.36 Q1331.44 1235.8 1331.44 1228.69 Q1331.44 1221.56 1329.61 1218.02 Q1327.8 1214.46 1324.17 1214.46 M1324.17 1210.75 Q1329.98 1210.75 1333.03 1215.36 Q1336.11 1219.94 1336.11 1228.69 Q1336.11 1237.42 1333.03 1242.03 Q1329.98 1246.61 1324.17 1246.61 Q1318.36 1246.61 1315.28 1242.03 Q1312.22 1237.42 1312.22 1228.69 Q1312.22 1219.94 1315.28 1215.36 Q1318.36 1210.75 1324.17 1210.75 Z" fill="#000000" fill-rule="nonzero" fill-opacity="1" /><path clip-path="url(#clip760)" d="M1344.33 1240.06 L1349.21 1240.06 L1349.21 1245.94 L1344.33 1245.94 L1344.33 1240.06 Z" fill="#000000" fill-rule="nonzero" fill-opacity="1" /><path clip-path="url(#clip760)" d="M1369.4 1214.46 Q1365.79 1214.46 1363.96 1218.02 Q1362.15 1221.56 1362.15 1228.69 Q1362.15 1235.8 1363.96 1239.36 Q1365.79 1242.9 1369.4 1242.9 Q1373.03 1242.9 1374.84 1239.36 Q1376.67 1235.8 1376.67 1228.69 Q1376.67 1221.56 1374.84 1218.02 Q1373.03 1214.46 1369.4 1214.46 M1369.4 1210.75 Q1375.21 1210.75 1378.26 1215.36 Q1381.34 1219.94 1381.34 1228.69 Q1381.34 1237.42 1378.26 1242.03 Q1375.21 1246.61 1369.4 1246.61 Q1363.59 1246.61 1360.51 1242.03 Q1357.45 1237.42 1357.45 1228.69 Q1357.45 1219.94 1360.51 1215.36 Q1363.59 1210.75 1369.4 1210.75 Z" fill="#000000" fill-rule="nonzero" fill-opacity="1" /><path clip-path="url(#clip760)" d="M1393.59 1242 L1409.91 1242 L1409.91 1245.94 L1387.96 1245.94 L1387.96 1242 Q1390.63 1239.25 1395.21 1234.62 Q1399.82 1229.97 1401 1228.62 Q1403.24 1226.1 1404.12 1224.36 Q1405.02 1222.6 1405.02 1220.91 Q1405.02 1218.16 1403.08 1216.42 Q1401.16 1214.69 1398.06 1214.69 Q1395.86 1214.69 1393.4 1215.45 Q1390.97 1216.22 1388.19 1217.77 L1388.19 1213.04 Q1391.02 1211.91 1393.47 1211.33 Q1395.93 1210.75 1397.96 1210.75 Q1403.33 1210.75 1406.53 1213.44 Q1409.72 1216.12 1409.72 1220.61 Q1409.72 1222.74 1408.91 1224.66 Q1408.13 1226.56 1406.02 1229.15 Q1405.44 1229.83 1402.34 1233.04 Q1399.24 1236.24 1393.59 1242 Z" fill="#000000" fill-rule="nonzero" fill-opacity="1" /><path clip-path="url(#clip760)" d="M1322.57 1140.03 Q1318.96 1140.03 1317.13 1143.59 Q1315.32 1147.13 1315.32 1154.26 Q1315.32 1161.37 1317.13 1164.93 Q1318.96 1168.47 1322.57 1168.47 Q1326.2 1168.47 1328.01 1164.93 Q1329.84 1161.37 1329.84 1154.26 Q1329.84 1147.13 1328.01 1143.59 Q1326.2 1140.03 1322.57 1140.03 M1322.57 1136.32 Q1328.38 1136.32 1331.44 1140.93 Q1334.51 1145.51 1334.51 1154.26 Q1334.51 1162.99 1331.44 1167.59 Q1328.38 1172.18 1322.57 1172.18 Q1316.76 1172.18 1313.68 1167.59 Q1310.63 1162.99 1310.63 1154.26 Q1310.63 1145.51 1313.68 1140.93 Q1316.76 1136.32 1322.57 1136.32 Z" fill="#000000" fill-rule="nonzero" fill-opacity="1" /><path clip-path="url(#clip760)" d="M1342.73 1165.63 L1347.62 1165.63 L1347.62 1171.51 L1342.73 1171.51 L1342.73 1165.63 Z" fill="#000000" fill-rule="nonzero" fill-opacity="1" /><path clip-path="url(#clip760)" d="M1367.8 1140.03 Q1364.19 1140.03 1362.36 1143.59 Q1360.56 1147.13 1360.56 1154.26 Q1360.56 1161.37 1362.36 1164.93 Q1364.19 1168.47 1367.8 1168.47 Q1371.44 1168.47 1373.24 1164.93 Q1375.07 1161.37 1375.07 1154.26 Q1375.07 1147.13 1373.24 1143.59 Q1371.44 1140.03 1367.8 1140.03 M1367.8 1136.32 Q1373.61 1136.32 1376.67 1140.93 Q1379.75 1145.51 1379.75 1154.26 Q1379.75 1162.99 1376.67 1167.59 Q1373.61 1172.18 1367.8 1172.18 Q1361.99 1172.18 1358.91 1167.59 Q1355.86 1162.99 1355.86 1154.26 Q1355.86 1145.51 1358.91 1140.93 Q1361.99 1136.32 1367.8 1136.32 Z" fill="#000000" fill-rule="nonzero" fill-opacity="1" /><path clip-path="url(#clip760)" d="M1397.96 1140.03 Q1394.35 1140.03 1392.52 1143.59 Q1390.72 1147.13 1390.72 1154.26 Q1390.72 1161.37 1392.52 1164.93 Q1394.35 1168.47 1397.96 1168.47 Q1401.6 1168.47 1403.4 1164.93 Q1405.23 1161.37 1405.23 1154.26 Q1405.23 1147.13 1403.4 1143.59 Q1401.6 1140.03 1397.96 1140.03 M1397.96 1136.32 Q1403.77 1136.32 1406.83 1140.93 Q1409.91 1145.51 1409.91 1154.26 Q1409.91 1162.99 1406.83 1167.59 Q1403.77 1172.18 1397.96 1172.18 Q1392.15 1172.18 1389.07 1167.59 Q1386.02 1162.99 1386.02 1154.26 Q1386.02 1145.51 1389.07 1140.93 Q1392.15 1136.32 1397.96 1136.32 Z" fill="#000000" fill-rule="nonzero" fill-opacity="1" /><path clip-path="url(#clip760)" d="M1324.17 1065.6 Q1320.56 1065.6 1318.73 1069.16 Q1316.92 1072.7 1316.92 1079.83 Q1316.92 1086.94 1318.73 1090.5 Q1320.56 1094.04 1324.17 1094.04 Q1327.8 1094.04 1329.61 1090.5 Q1331.44 1086.94 1331.44 1079.83 Q1331.44 1072.7 1329.61 1069.16 Q1327.8 1065.6 1324.17 1065.6 M1324.17 1061.89 Q1329.98 1061.89 1333.03 1066.5 Q1336.11 1071.08 1336.11 1079.83 Q1336.11 1088.56 1333.03 1093.16 Q1329.98 1097.75 1324.17 1097.75 Q1318.36 1097.75 1315.28 1093.16 Q1312.22 1088.56 1312.22 1079.83 Q1312.22 1071.08 1315.28 1066.5 Q1318.36 1061.89 1324.17 1061.89 Z" fill="#000000" fill-rule="nonzero" fill-opacity="1" /><path clip-path="url(#clip760)" d="M1344.33 1091.2 L1349.21 1091.2 L1349.21 1097.08 L1344.33 1097.08 L1344.33 1091.2 Z" fill="#000000" fill-rule="nonzero" fill-opacity="1" /><path clip-path="url(#clip760)" d="M1369.4 1065.6 Q1365.79 1065.6 1363.96 1069.16 Q1362.15 1072.7 1362.15 1079.83 Q1362.15 1086.94 1363.96 1090.5 Q1365.79 1094.04 1369.4 1094.04 Q1373.03 1094.04 1374.84 1090.5 Q1376.67 1086.94 1376.67 1079.83 Q1376.67 1072.7 1374.84 1069.16 Q1373.03 1065.6 1369.4 1065.6 M1369.4 1061.89 Q1375.21 1061.89 1378.26 1066.5 Q1381.34 1071.08 1381.34 1079.83 Q1381.34 1088.56 1378.26 1093.16 Q1375.21 1097.75 1369.4 1097.75 Q1363.59 1097.75 1360.51 1093.16 Q1357.45 1088.56 1357.45 1079.83 Q1357.45 1071.08 1360.51 1066.5 Q1363.59 1061.89 1369.4 1061.89 Z" fill="#000000" fill-rule="nonzero" fill-opacity="1" /><path clip-path="url(#clip760)" d="M1393.59 1093.14 L1409.91 1093.14 L1409.91 1097.08 L1387.96 1097.08 L1387.96 1093.14 Q1390.63 1090.39 1395.21 1085.76 Q1399.82 1081.1 1401 1079.76 Q1403.24 1077.24 1404.12 1075.5 Q1405.02 1073.74 1405.02 1072.05 Q1405.02 1069.3 1403.08 1067.56 Q1401.16 1065.83 1398.06 1065.83 Q1395.86 1065.83 1393.4 1066.59 Q1390.97 1067.35 1388.19 1068.91 L1388.19 1064.18 Q1391.02 1063.05 1393.47 1062.47 Q1395.93 1061.89 1397.96 1061.89 Q1403.33 1061.89 1406.53 1064.58 Q1409.72 1067.26 1409.72 1071.75 Q1409.72 1073.88 1408.91 1075.8 Q1408.13 1077.7 1406.02 1080.29 Q1405.44 1080.97 1402.34 1084.18 Q1399.24 1087.38 1393.59 1093.14 Z" fill="#000000" fill-rule="nonzero" fill-opacity="1" /><path clip-path="url(#clip760)" d="M1182.01 1250.93 L1182.94 1251.49 Q1181.43 1254.99 1179.02 1259.34 Q1181.43 1263.69 1182.94 1267.19 L1182.01 1267.73 Q1178.7 1263.92 1176.15 1259.34 Q1178.72 1254.72 1182.01 1250.93 Z" fill="#000000" fill-rule="nonzero" fill-opacity="1" /><path clip-path="url(#clip760)" d="M1194.31 1247.77 Q1196.12 1247.77 1197.15 1248.9 Q1198.14 1250.02 1198.14 1251.31 Q1198.14 1252.54 1197.44 1253.18 Q1196.73 1253.82 1195.83 1253.82 Q1194.6 1253.82 1193.54 1252.92 Q1192.48 1252.02 1192.25 1250.67 Q1191.41 1251.99 1191.41 1253.95 Q1191.41 1255.24 1192.09 1256.37 Q1192.77 1257.46 1193.64 1258.14 Q1194.51 1258.78 1195.76 1259.36 Q1196.99 1259.91 1197.73 1260.14 Q1198.43 1260.33 1199.21 1260.49 L1208.23 1262.74 Q1212.51 1263.84 1214.02 1263.84 Q1215.89 1263.84 1217.15 1262.94 Q1218.37 1262.04 1218.37 1260.23 Q1218.37 1259.52 1218.18 1258.72 Q1217.95 1257.91 1217.37 1256.88 Q1216.76 1255.82 1215.86 1254.89 Q1214.92 1253.92 1213.35 1252.99 Q1211.77 1252.05 1209.74 1251.44 Q1209.03 1251.25 1209.03 1250.6 Q1209.03 1249.8 1209.67 1249.8 Q1210.22 1249.8 1211.38 1250.25 Q1212.51 1250.67 1213.99 1251.6 Q1215.44 1252.5 1216.76 1253.69 Q1218.05 1254.89 1218.95 1256.66 Q1219.85 1258.43 1219.85 1260.36 Q1219.85 1263.13 1218.37 1264.97 Q1216.89 1266.8 1214.83 1267.48 Q1215.12 1267.64 1215.5 1267.87 Q1215.89 1268.09 1216.76 1268.77 Q1217.6 1269.41 1218.24 1270.15 Q1218.85 1270.89 1219.34 1272.05 Q1219.85 1273.18 1219.85 1274.4 Q1219.85 1275.95 1219.4 1277.33 Q1218.95 1278.69 1217.92 1279.65 Q1216.89 1280.62 1215.47 1280.62 Q1213.89 1280.62 1212.8 1279.56 Q1211.67 1278.46 1211.67 1276.98 Q1211.67 1276.05 1212.22 1275.3 Q1212.77 1274.53 1213.96 1274.53 Q1215.28 1274.53 1216.28 1275.43 Q1217.27 1276.34 1217.53 1277.62 Q1218.37 1276.3 1218.37 1274.34 Q1218.37 1272.21 1216.5 1270.54 Q1214.63 1268.86 1211.51 1268.06 Q1204.01 1266.06 1200.66 1265.29 Q1197.28 1264.52 1195.83 1264.52 Q1194.47 1264.52 1193.54 1264.87 Q1192.61 1265.22 1192.19 1265.84 Q1191.74 1266.42 1191.57 1266.96 Q1191.41 1267.48 1191.41 1268.06 Q1191.41 1269.02 1191.8 1270.12 Q1192.19 1271.18 1193.09 1272.47 Q1193.96 1273.73 1195.76 1274.92 Q1197.56 1276.11 1200.04 1276.92 Q1200.79 1277.08 1200.79 1277.78 Q1200.75 1278.56 1200.11 1278.56 Q1199.56 1278.56 1198.43 1278.14 Q1197.28 1277.69 1195.83 1276.79 Q1194.38 1275.85 1193.09 1274.66 Q1191.77 1273.44 1190.87 1271.67 Q1189.96 1269.86 1189.96 1267.93 Q1189.96 1267.06 1190.16 1266.22 Q1190.32 1265.35 1190.8 1264.32 Q1191.28 1263.26 1192.35 1262.33 Q1193.41 1261.39 1194.96 1260.81 Q1194.22 1260.43 1193.51 1259.91 Q1192.8 1259.36 1191.93 1258.53 Q1191.03 1257.66 1190.51 1256.46 Q1189.96 1255.24 1189.96 1253.89 Q1189.96 1252.57 1190.32 1251.28 Q1190.64 1249.99 1191.7 1248.9 Q1192.73 1247.77 1194.31 1247.77 Z" fill="#000000" fill-rule="nonzero" fill-opacity="1" /><path clip-path="url(#clip760)" d="M1231.9 1240.31 Q1230.52 1240.31 1229.87 1239.52 Q1229.22 1238.73 1229.22 1237.72 Q1229.22 1236.66 1229.92 1235.91 Q1230.59 1235.15 1231.79 1235.15 Q1233.07 1235.15 1233.79 1236.05 Q1234.51 1236.93 1234.33 1238.19 Q1236.18 1237.09 1237.02 1235.06 Q1237.85 1233.01 1237.85 1231.11 Q1237.85 1229.13 1236.14 1227.53 Q1234.42 1225.9 1230.23 1225.9 Q1226.67 1225.9 1224.62 1227.3 Q1222.57 1228.68 1222.57 1231.4 L1222.57 1233.43 Q1222.57 1234.13 1222.5 1234.34 Q1222.43 1234.54 1222.05 1234.54 Q1221.6 1234.54 1221.51 1233.84 Q1221.51 1233.14 1221.37 1232.04 Q1221.28 1229.35 1218.96 1227.93 Q1216.79 1226.65 1213.71 1226.65 Q1210.89 1226.65 1209.72 1228 Q1208.52 1229.33 1208.52 1231.07 Q1208.52 1232.69 1209.2 1234.47 Q1209.87 1236.25 1211.38 1237.22 Q1211.38 1234.36 1213.71 1234.36 Q1214.72 1234.36 1215.4 1235.01 Q1216.05 1235.64 1216.05 1236.7 Q1216.05 1237.72 1215.42 1238.39 Q1214.77 1239.07 1213.66 1239.07 Q1211.02 1239.07 1209.2 1236.73 Q1207.37 1234.36 1207.37 1230.89 Q1207.37 1227.46 1209.17 1224.93 Q1210.98 1222.39 1213.75 1222.39 Q1216.48 1222.39 1218.71 1224.19 Q1220.94 1225.99 1221.87 1228.86 Q1222.57 1225.34 1224.96 1223.24 Q1227.32 1221.15 1230.23 1221.15 Q1233.84 1221.15 1236.5 1223.99 Q1239.14 1226.83 1239.14 1230.98 Q1239.14 1234.81 1237.06 1237.56 Q1234.99 1240.31 1231.9 1240.31 Z" fill="#000000" fill-rule="nonzero" fill-opacity="1" /><polyline clip-path="url(#clip765)" style="stroke:#e26f46; stroke-linecap:round; stroke-linejoin:round; stroke-width:3; stroke-opacity:1; fill:none" stroke-dasharray="12, 6, 2, 6" points="1471.57,1154.23 1496.74,1154.23 1521.9,1154.23 1547.06,1293.75 1572.22,1413.23 1597.38,1261.58 1622.55,1342.85 1647.71,1304.14 1672.87,1341.47 1698.03,1319.31 1723.2,1292.73 1748.36,1207.71 1773.52,1199.19 1798.68,1132.22 1823.85,1128.94 1849.01,1125.65 1874.17,1081.68 1899.33,1155.91 1924.49,1155.86 1949.66,1137.07 1974.82,1154.76 1999.98,1154.29 2025.14,1204.39 2050.31,1114.62 2075.47,1203.83 2100.63,1139.45 2125.79,1172.59 2150.95,1131.84 2176.12,1171.03 2201.28,1166.53 2226.44,1134.14 2251.6,1211.83 2276.77,1167.73 2301.93,1126.92 2327.09,1156.97 "/>
</svg>
