<?xml version="1.0" encoding="utf-8"?>
<svg xmlns="http://www.w3.org/2000/svg" xmlns:xlink="http://www.w3.org/1999/xlink" width="600" height="400" viewBox="0 0 2400 1600">
<defs>
  <clipPath id="clip060">
    <rect x="0" y="0" width="2400" height="1600"/>
  </clipPath>
</defs>
<path clip-path="url(#clip060)" d="M0 1600 L2400 1600 L2400 0 L0 0  Z" fill="#ffffff" fill-rule="evenodd" fill-opacity="1"/>
<defs>
  <clipPath id="clip061">
    <rect x="480" y="0" width="1681" height="1600"/>
  </clipPath>
</defs>
<path clip-path="url(#clip060)" d="M203.964 1423.18 L1110.81 1423.18 L1110.81 47.2441 L203.964 47.2441  Z" fill="#ffffff" fill-rule="evenodd" fill-opacity="1"/>
<defs>
  <clipPath id="clip062">
    <rect x="203" y="47" width="908" height="1377"/>
  </clipPath>
</defs>
<polyline clip-path="url(#clip062)" style="stroke:#000000; stroke-linecap:round; stroke-linejoin:round; stroke-width:2; stroke-opacity:0.1; fill:none" points="229.629,1423.18 229.629,47.2441 "/>
<polyline clip-path="url(#clip062)" style="stroke:#000000; stroke-linecap:round; stroke-linejoin:round; stroke-width:2; stroke-opacity:0.1; fill:none" points="481.252,1423.18 481.252,47.2441 "/>
<polyline clip-path="url(#clip062)" style="stroke:#000000; stroke-linecap:round; stroke-linejoin:round; stroke-width:2; stroke-opacity:0.1; fill:none" points="732.874,1423.18 732.874,47.2441 "/>
<polyline clip-path="url(#clip062)" style="stroke:#000000; stroke-linecap:round; stroke-linejoin:round; stroke-width:2; stroke-opacity:0.1; fill:none" points="984.497,1423.18 984.497,47.2441 "/>
<polyline clip-path="url(#clip062)" style="stroke:#000000; stroke-linecap:round; stroke-linejoin:round; stroke-width:2; stroke-opacity:0.1; fill:none" points="203.964,1208.32 1110.81,1208.32 "/>
<polyline clip-path="url(#clip062)" style="stroke:#000000; stroke-linecap:round; stroke-linejoin:round; stroke-width:2; stroke-opacity:0.1; fill:none" points="203.964,981.309 1110.81,981.309 "/>
<polyline clip-path="url(#clip062)" style="stroke:#000000; stroke-linecap:round; stroke-linejoin:round; stroke-width:2; stroke-opacity:0.1; fill:none" points="203.964,754.294 1110.81,754.294 "/>
<polyline clip-path="url(#clip062)" style="stroke:#000000; stroke-linecap:round; stroke-linejoin:round; stroke-width:2; stroke-opacity:0.1; fill:none" points="203.964,527.28 1110.81,527.28 "/>
<polyline clip-path="url(#clip062)" style="stroke:#000000; stroke-linecap:round; stroke-linejoin:round; stroke-width:2; stroke-opacity:0.1; fill:none" points="203.964,300.265 1110.81,300.265 "/>
<polyline clip-path="url(#clip062)" style="stroke:#000000; stroke-linecap:round; stroke-linejoin:round; stroke-width:2; stroke-opacity:0.1; fill:none" points="203.964,73.2509 1110.81,73.2509 "/>
<polyline clip-path="url(#clip060)" style="stroke:#000000; stroke-linecap:round; stroke-linejoin:round; stroke-width:4; stroke-opacity:1; fill:none" points="203.964,1423.18 1110.81,1423.18 "/>
<polyline clip-path="url(#clip060)" style="stroke:#000000; stroke-linecap:round; stroke-linejoin:round; stroke-width:4; stroke-opacity:1; fill:none" points="229.629,1423.18 229.629,1404.28 "/>
<polyline clip-path="url(#clip060)" style="stroke:#000000; stroke-linecap:round; stroke-linejoin:round; stroke-width:4; stroke-opacity:1; fill:none" points="481.252,1423.18 481.252,1404.28 "/>
<polyline clip-path="url(#clip060)" style="stroke:#000000; stroke-linecap:round; stroke-linejoin:round; stroke-width:4; stroke-opacity:1; fill:none" points="732.874,1423.18 732.874,1404.28 "/>
<polyline clip-path="url(#clip060)" style="stroke:#000000; stroke-linecap:round; stroke-linejoin:round; stroke-width:4; stroke-opacity:1; fill:none" points="984.497,1423.18 984.497,1404.28 "/>
<path clip-path="url(#clip060)" d="M229.629 1454.1 Q226.018 1454.1 224.189 1457.66 Q222.384 1461.2 222.384 1468.33 Q222.384 1475.44 224.189 1479.01 Q226.018 1482.55 229.629 1482.55 Q233.263 1482.55 235.069 1479.01 Q236.898 1475.44 236.898 1468.33 Q236.898 1461.2 235.069 1457.66 Q233.263 1454.1 229.629 1454.1 M229.629 1450.39 Q235.439 1450.39 238.495 1455 Q241.573 1459.58 241.573 1468.33 Q241.573 1477.06 238.495 1481.67 Q235.439 1486.25 229.629 1486.25 Q223.819 1486.25 220.74 1481.67 Q217.685 1477.06 217.685 1468.33 Q217.685 1459.58 220.74 1455 Q223.819 1450.39 229.629 1450.39 Z" fill="#000000" fill-rule="nonzero" fill-opacity="1" /><path clip-path="url(#clip060)" d="M471.634 1481.64 L479.273 1481.64 L479.273 1455.28 L470.962 1456.95 L470.962 1452.69 L479.226 1451.02 L483.902 1451.02 L483.902 1481.64 L491.541 1481.64 L491.541 1485.58 L471.634 1485.58 L471.634 1481.64 Z" fill="#000000" fill-rule="nonzero" fill-opacity="1" /><path clip-path="url(#clip060)" d="M727.527 1481.64 L743.847 1481.64 L743.847 1485.58 L721.902 1485.58 L721.902 1481.64 Q724.564 1478.89 729.148 1474.26 Q733.754 1469.61 734.935 1468.27 Q737.18 1465.74 738.06 1464.01 Q738.962 1462.25 738.962 1460.56 Q738.962 1457.8 737.018 1456.07 Q735.097 1454.33 731.995 1454.33 Q729.796 1454.33 727.342 1455.09 Q724.912 1455.86 722.134 1457.41 L722.134 1452.69 Q724.958 1451.55 727.411 1450.97 Q729.865 1450.39 731.902 1450.39 Q737.273 1450.39 740.467 1453.08 Q743.661 1455.77 743.661 1460.26 Q743.661 1462.39 742.851 1464.31 Q742.064 1466.2 739.958 1468.8 Q739.379 1469.47 736.277 1472.69 Q733.175 1475.88 727.527 1481.64 Z" fill="#000000" fill-rule="nonzero" fill-opacity="1" /><path clip-path="url(#clip060)" d="M988.745 1466.95 Q992.101 1467.66 993.976 1469.93 Q995.874 1472.2 995.874 1475.53 Q995.874 1480.65 992.356 1483.45 Q988.837 1486.25 982.356 1486.25 Q980.18 1486.25 977.865 1485.81 Q975.574 1485.39 973.12 1484.54 L973.12 1480.02 Q975.064 1481.16 977.379 1481.74 Q979.694 1482.32 982.217 1482.32 Q986.615 1482.32 988.907 1480.58 Q991.222 1478.84 991.222 1475.53 Q991.222 1472.48 989.069 1470.77 Q986.939 1469.03 983.12 1469.03 L979.092 1469.03 L979.092 1465.19 L983.305 1465.19 Q986.754 1465.19 988.583 1463.82 Q990.411 1462.43 990.411 1459.84 Q990.411 1457.18 988.513 1455.77 Q986.638 1454.33 983.12 1454.33 Q981.199 1454.33 978.999 1454.75 Q976.8 1455.16 974.162 1456.04 L974.162 1451.88 Q976.824 1451.14 979.138 1450.77 Q981.476 1450.39 983.536 1450.39 Q988.861 1450.39 991.962 1452.83 Q995.064 1455.23 995.064 1459.35 Q995.064 1462.22 993.421 1464.21 Q991.777 1466.18 988.745 1466.95 Z" fill="#000000" fill-rule="nonzero" fill-opacity="1" /><path clip-path="url(#clip060)" d="M527.559 1520.52 L567.758 1520.52 L567.758 1525.93 L550.889 1525.93 L550.889 1568.04 L544.428 1568.04 L544.428 1525.93 L527.559 1525.93 L527.559 1520.52 Z" fill="#000000" fill-rule="nonzero" fill-opacity="1" /><path clip-path="url(#clip060)" d="M571.705 1532.4 L577.562 1532.4 L577.562 1568.04 L571.705 1568.04 L571.705 1532.4 M571.705 1518.52 L577.562 1518.52 L577.562 1525.93 L571.705 1525.93 L571.705 1518.52 Z" fill="#000000" fill-rule="nonzero" fill-opacity="1" /><path clip-path="url(#clip060)" d="M617.57 1539.24 Q619.766 1535.29 622.822 1533.41 Q625.877 1531.54 630.015 1531.54 Q635.585 1531.54 638.609 1535.45 Q641.633 1539.33 641.633 1546.53 L641.633 1568.04 L635.744 1568.04 L635.744 1546.72 Q635.744 1541.59 633.93 1539.11 Q632.116 1536.63 628.392 1536.63 Q623.84 1536.63 621.199 1539.65 Q618.557 1542.68 618.557 1547.9 L618.557 1568.04 L612.669 1568.04 L612.669 1546.72 Q612.669 1541.56 610.854 1539.11 Q609.04 1536.63 605.252 1536.63 Q600.765 1536.63 598.123 1539.68 Q595.481 1542.71 595.481 1547.9 L595.481 1568.04 L589.593 1568.04 L589.593 1532.4 L595.481 1532.4 L595.481 1537.93 Q597.486 1534.66 600.287 1533.1 Q603.088 1531.54 606.939 1531.54 Q610.822 1531.54 613.528 1533.51 Q616.265 1535.48 617.57 1539.24 Z" fill="#000000" fill-rule="nonzero" fill-opacity="1" /><path clip-path="url(#clip060)" d="M683.805 1548.76 L683.805 1551.62 L656.878 1551.62 Q657.26 1557.67 660.507 1560.85 Q663.785 1564 669.61 1564 Q672.984 1564 676.135 1563.17 Q679.317 1562.35 682.437 1560.69 L682.437 1566.23 Q679.286 1567.57 675.975 1568.27 Q672.665 1568.97 669.26 1568.97 Q660.73 1568.97 655.733 1564 Q650.767 1559.04 650.767 1550.57 Q650.767 1541.82 655.478 1536.69 Q660.22 1531.54 668.241 1531.54 Q675.434 1531.54 679.604 1536.18 Q683.805 1540.8 683.805 1548.76 M677.949 1547.04 Q677.885 1542.23 675.243 1539.37 Q672.633 1536.5 668.305 1536.5 Q663.403 1536.5 660.443 1539.27 Q657.515 1542.04 657.069 1547.07 L677.949 1547.04 Z" fill="#000000" fill-rule="nonzero" fill-opacity="1" /><path clip-path="url(#clip060)" d="M728.206 1518.58 Q723.941 1525.9 721.872 1533.06 Q719.803 1540.23 719.803 1547.58 Q719.803 1554.93 721.872 1562.16 Q723.973 1569.35 728.206 1576.64 L723.114 1576.64 Q718.339 1569.16 715.952 1561.93 Q713.597 1554.71 713.597 1547.58 Q713.597 1540.48 715.952 1533.29 Q718.307 1526.09 723.114 1518.58 L728.206 1518.58 Z" fill="#000000" fill-rule="nonzero" fill-opacity="1" /><path clip-path="url(#clip060)" d="M762.294 1533.45 L762.294 1538.98 Q759.812 1537.71 757.138 1537.07 Q754.465 1536.44 751.6 1536.44 Q747.24 1536.44 745.043 1537.77 Q742.879 1539.11 742.879 1541.79 Q742.879 1543.82 744.439 1545 Q745.998 1546.15 750.709 1547.2 L752.714 1547.64 Q758.952 1548.98 761.562 1551.43 Q764.204 1553.85 764.204 1558.21 Q764.204 1563.17 760.257 1566.07 Q756.343 1568.97 749.468 1568.97 Q746.603 1568.97 743.484 1568.39 Q740.396 1567.85 736.959 1566.74 L736.959 1560.69 Q740.205 1562.38 743.356 1563.24 Q746.508 1564.07 749.595 1564.07 Q753.733 1564.07 755.961 1562.66 Q758.189 1561.23 758.189 1558.65 Q758.189 1556.27 756.565 1554.99 Q754.974 1553.72 749.531 1552.54 L747.494 1552.07 Q742.052 1550.92 739.633 1548.56 Q737.214 1546.18 737.214 1542.04 Q737.214 1537.01 740.778 1534.27 Q744.343 1531.54 750.9 1531.54 Q754.146 1531.54 757.011 1532.01 Q759.876 1532.49 762.294 1533.45 Z" fill="#000000" fill-rule="nonzero" fill-opacity="1" /><path clip-path="url(#clip060)" d="M772.607 1518.58 L777.699 1518.58 Q782.474 1526.09 784.829 1533.29 Q787.216 1540.48 787.216 1547.58 Q787.216 1554.71 784.829 1561.93 Q782.474 1569.16 777.699 1576.64 L772.607 1576.64 Q776.84 1569.35 778.909 1562.16 Q781.01 1554.93 781.01 1547.58 Q781.01 1540.23 778.909 1533.06 Q776.84 1525.9 772.607 1518.58 Z" fill="#000000" fill-rule="nonzero" fill-opacity="1" /><polyline clip-path="url(#clip060)" style="stroke:#000000; stroke-linecap:round; stroke-linejoin:round; stroke-width:4; stroke-opacity:1; fill:none" points="203.964,1423.18 203.964,47.2441 "/>
<polyline clip-path="url(#clip060)" style="stroke:#000000; stroke-linecap:round; stroke-linejoin:round; stroke-width:4; stroke-opacity:1; fill:none" points="203.964,1208.32 222.861,1208.32 "/>
<polyline clip-path="url(#clip060)" style="stroke:#000000; stroke-linecap:round; stroke-linejoin:round; stroke-width:4; stroke-opacity:1; fill:none" points="203.964,981.309 222.861,981.309 "/>
<polyline clip-path="url(#clip060)" style="stroke:#000000; stroke-linecap:round; stroke-linejoin:round; stroke-width:4; stroke-opacity:1; fill:none" points="203.964,754.294 222.861,754.294 "/>
<polyline clip-path="url(#clip060)" style="stroke:#000000; stroke-linecap:round; stroke-linejoin:round; stroke-width:4; stroke-opacity:1; fill:none" points="203.964,527.28 222.861,527.28 "/>
<polyline clip-path="url(#clip060)" style="stroke:#000000; stroke-linecap:round; stroke-linejoin:round; stroke-width:4; stroke-opacity:1; fill:none" points="203.964,300.265 222.861,300.265 "/>
<polyline clip-path="url(#clip060)" style="stroke:#000000; stroke-linecap:round; stroke-linejoin:round; stroke-width:4; stroke-opacity:1; fill:none" points="203.964,73.2509 222.861,73.2509 "/>
<path clip-path="url(#clip060)" d="M147.061 1191.04 L165.417 1191.04 L165.417 1194.98 L151.343 1194.98 L151.343 1203.45 Q152.362 1203.1 153.38 1202.94 Q154.399 1202.76 155.417 1202.76 Q161.204 1202.76 164.584 1205.93 Q167.964 1209.1 167.964 1214.52 Q167.964 1220.09 164.491 1223.2 Q161.019 1226.27 154.7 1226.27 Q152.524 1226.27 150.255 1225.9 Q148.01 1225.53 145.603 1224.79 L145.603 1220.09 Q147.686 1221.23 149.908 1221.78 Q152.13 1222.34 154.607 1222.34 Q158.612 1222.34 160.95 1220.23 Q163.288 1218.13 163.288 1214.52 Q163.288 1210.9 160.95 1208.8 Q158.612 1206.69 154.607 1206.69 Q152.732 1206.69 150.857 1207.11 Q149.005 1207.52 147.061 1208.4 L147.061 1191.04 Z" fill="#000000" fill-rule="nonzero" fill-opacity="1" /><path clip-path="url(#clip060)" d="M116.668 994.653 L124.306 994.653 L124.306 968.288 L115.996 969.954 L115.996 965.695 L124.26 964.029 L128.936 964.029 L128.936 994.653 L136.575 994.653 L136.575 998.589 L116.668 998.589 L116.668 994.653 Z" fill="#000000" fill-rule="nonzero" fill-opacity="1" /><path clip-path="url(#clip060)" d="M156.019 967.107 Q152.408 967.107 150.579 970.672 Q148.774 974.214 148.774 981.343 Q148.774 988.45 150.579 992.015 Q152.408 995.556 156.019 995.556 Q159.653 995.556 161.459 992.015 Q163.288 988.45 163.288 981.343 Q163.288 974.214 161.459 970.672 Q159.653 967.107 156.019 967.107 M156.019 963.404 Q161.829 963.404 164.885 968.01 Q167.964 972.593 167.964 981.343 Q167.964 990.07 164.885 994.677 Q161.829 999.26 156.019 999.26 Q150.209 999.26 147.13 994.677 Q144.075 990.07 144.075 981.343 Q144.075 972.593 147.13 968.01 Q150.209 963.404 156.019 963.404 Z" fill="#000000" fill-rule="nonzero" fill-opacity="1" /><path clip-path="url(#clip060)" d="M117.663 767.639 L125.302 767.639 L125.302 741.273 L116.992 742.94 L116.992 738.681 L125.255 737.014 L129.931 737.014 L129.931 767.639 L137.57 767.639 L137.57 771.574 L117.663 771.574 L117.663 767.639 Z" fill="#000000" fill-rule="nonzero" fill-opacity="1" /><path clip-path="url(#clip060)" d="M147.061 737.014 L165.417 737.014 L165.417 740.949 L151.343 740.949 L151.343 749.421 Q152.362 749.074 153.38 748.912 Q154.399 748.727 155.417 748.727 Q161.204 748.727 164.584 751.898 Q167.964 755.07 167.964 760.486 Q167.964 766.065 164.491 769.167 Q161.019 772.245 154.7 772.245 Q152.524 772.245 150.255 771.875 Q148.01 771.505 145.603 770.764 L145.603 766.065 Q147.686 767.199 149.908 767.755 Q152.13 768.31 154.607 768.31 Q158.612 768.31 160.95 766.204 Q163.288 764.097 163.288 760.486 Q163.288 756.875 160.95 754.769 Q158.612 752.662 154.607 752.662 Q152.732 752.662 150.857 753.079 Q149.005 753.496 147.061 754.375 L147.061 737.014 Z" fill="#000000" fill-rule="nonzero" fill-opacity="1" /><path clip-path="url(#clip060)" d="M119.885 540.625 L136.204 540.625 L136.204 544.56 L114.26 544.56 L114.26 540.625 Q116.922 537.87 121.505 533.24 Q126.112 528.588 127.292 527.245 Q129.538 524.722 130.417 522.986 Q131.32 521.227 131.32 519.537 Q131.32 516.782 129.376 515.046 Q127.455 513.31 124.353 513.31 Q122.154 513.31 119.7 514.074 Q117.269 514.838 114.492 516.389 L114.492 511.666 Q117.316 510.532 119.769 509.953 Q122.223 509.375 124.26 509.375 Q129.63 509.375 132.825 512.06 Q136.019 514.745 136.019 519.236 Q136.019 521.365 135.209 523.287 Q134.422 525.185 132.316 527.777 Q131.737 528.449 128.635 531.666 Q125.533 534.861 119.885 540.625 Z" fill="#000000" fill-rule="nonzero" fill-opacity="1" /><path clip-path="url(#clip060)" d="M156.019 513.078 Q152.408 513.078 150.579 516.643 Q148.774 520.185 148.774 527.314 Q148.774 534.421 150.579 537.986 Q152.408 541.527 156.019 541.527 Q159.653 541.527 161.459 537.986 Q163.288 534.421 163.288 527.314 Q163.288 520.185 161.459 516.643 Q159.653 513.078 156.019 513.078 M156.019 509.375 Q161.829 509.375 164.885 513.981 Q167.964 518.565 167.964 527.314 Q167.964 536.041 164.885 540.648 Q161.829 545.231 156.019 545.231 Q150.209 545.231 147.13 540.648 Q144.075 536.041 144.075 527.314 Q144.075 518.565 147.13 513.981 Q150.209 509.375 156.019 509.375 Z" fill="#000000" fill-rule="nonzero" fill-opacity="1" /><path clip-path="url(#clip060)" d="M120.88 313.61 L137.2 313.61 L137.2 317.545 L115.256 317.545 L115.256 313.61 Q117.918 310.856 122.501 306.226 Q127.107 301.573 128.288 300.231 Q130.533 297.707 131.413 295.971 Q132.316 294.212 132.316 292.522 Q132.316 289.768 130.371 288.032 Q128.45 286.295 125.348 286.295 Q123.149 286.295 120.695 287.059 Q118.265 287.823 115.487 289.374 L115.487 284.652 Q118.311 283.518 120.765 282.939 Q123.218 282.36 125.255 282.36 Q130.626 282.36 133.82 285.045 Q137.015 287.731 137.015 292.221 Q137.015 294.351 136.204 296.272 Q135.417 298.17 133.311 300.763 Q132.732 301.434 129.63 304.652 Q126.529 307.846 120.88 313.61 Z" fill="#000000" fill-rule="nonzero" fill-opacity="1" /><path clip-path="url(#clip060)" d="M147.061 282.985 L165.417 282.985 L165.417 286.92 L151.343 286.92 L151.343 295.393 Q152.362 295.045 153.38 294.883 Q154.399 294.698 155.417 294.698 Q161.204 294.698 164.584 297.87 Q167.964 301.041 167.964 306.457 Q167.964 312.036 164.491 315.138 Q161.019 318.217 154.7 318.217 Q152.524 318.217 150.255 317.846 Q148.01 317.476 145.603 316.735 L145.603 312.036 Q147.686 313.17 149.908 313.726 Q152.13 314.281 154.607 314.281 Q158.612 314.281 160.95 312.175 Q163.288 310.069 163.288 306.457 Q163.288 302.846 160.95 300.74 Q158.612 298.633 154.607 298.633 Q152.732 298.633 150.857 299.05 Q149.005 299.467 147.061 300.346 L147.061 282.985 Z" fill="#000000" fill-rule="nonzero" fill-opacity="1" /><path clip-path="url(#clip060)" d="M130.024 71.8968 Q133.38 72.6143 135.255 74.8828 Q137.154 77.1514 137.154 80.4847 Q137.154 85.6004 133.635 88.4013 Q130.117 91.2022 123.635 91.2022 Q121.459 91.2022 119.144 90.7624 Q116.853 90.3457 114.399 89.4892 L114.399 84.9754 Q116.343 86.1096 118.658 86.6883 Q120.973 87.267 123.496 87.267 Q127.894 87.267 130.186 85.5309 Q132.501 83.7948 132.501 80.4847 Q132.501 77.4291 130.348 75.7162 Q128.218 73.9801 124.399 73.9801 L120.371 73.9801 L120.371 70.1375 L124.584 70.1375 Q128.033 70.1375 129.862 68.7718 Q131.691 67.3829 131.691 64.7903 Q131.691 62.1283 129.792 60.7163 Q127.917 59.2811 124.399 59.2811 Q122.478 59.2811 120.279 59.6977 Q118.08 60.1144 115.441 60.994 L115.441 56.8274 Q118.103 56.0867 120.418 55.7163 Q122.755 55.3459 124.816 55.3459 Q130.14 55.3459 133.242 57.7765 Q136.343 60.1839 136.343 64.3042 Q136.343 67.1746 134.7 69.1653 Q133.056 71.1329 130.024 71.8968 Z" fill="#000000" fill-rule="nonzero" fill-opacity="1" /><path clip-path="url(#clip060)" d="M156.019 59.0496 Q152.408 59.0496 150.579 62.6144 Q148.774 66.156 148.774 73.2856 Q148.774 80.3921 150.579 83.9569 Q152.408 87.4985 156.019 87.4985 Q159.653 87.4985 161.459 83.9569 Q163.288 80.3921 163.288 73.2856 Q163.288 66.156 161.459 62.6144 Q159.653 59.0496 156.019 59.0496 M156.019 55.3459 Q161.829 55.3459 164.885 59.9524 Q167.964 64.5357 167.964 73.2856 Q167.964 82.0124 164.885 86.6189 Q161.829 91.2022 156.019 91.2022 Q150.209 91.2022 147.13 86.6189 Q144.075 82.0124 144.075 73.2856 Q144.075 64.5357 147.13 59.9524 Q150.209 55.3459 156.019 55.3459 Z" fill="#000000" fill-rule="nonzero" fill-opacity="1" /><path clip-path="url(#clip060)" d="M39.4334 772.564 Q44.844 772.564 50.9309 774.303 Q56.9856 776.01 61.8809 778.715 Q66.744 781.42 69.9646 784.963 Q73.153 788.505 73.153 791.887 Q73.153 794.045 71.9613 795.655 Q70.7375 797.233 68.7085 798.103 Q66.6474 798.972 64.393 799.391 Q62.1063 799.81 59.6265 799.81 Q55.9228 799.81 51.8971 799.005 Q47.8391 798.199 44.1677 796.847 Q40.464 795.494 37.1146 793.594 Q33.733 791.694 31.2853 789.6 Q28.8055 787.475 27.3562 785.092 Q25.907 782.708 25.907 780.486 Q25.907 778.876 26.6155 777.588 Q27.2918 776.267 28.4834 775.43 Q29.6428 774.593 31.0277 774.013 Q32.4125 773.401 34.0228 773.111 Q35.6009 772.821 36.9214 772.692 Q38.2096 772.564 39.4334 772.564 M35.3433 776.911 Q33.7008 776.911 32.477 777.04 Q31.2209 777.169 29.9649 777.523 Q28.7089 777.878 28.0325 778.65 Q27.3562 779.391 27.3562 780.551 Q27.3562 783.932 34.2805 787.733 Q36.4383 788.956 39.369 790.051 Q42.2997 791.146 43.6846 791.533 Q45.0694 791.919 48.4833 792.821 L48.4833 779.037 Q39.6911 776.911 35.3433 776.911 M50.5766 779.617 L50.5766 793.336 Q58.6281 795.462 63.6522 795.462 Q68.0322 795.462 69.868 794.56 Q71.6715 793.626 71.6715 791.887 Q71.6715 789.89 69.6747 788.022 Q67.6458 786.154 63.9743 784.254 Q59.2078 781.742 50.5766 779.617 Z" fill="#000000" fill-rule="nonzero" fill-opacity="1" /><path clip-path="url(#clip060)" d="M22.9507 728.256 Q30.2712 732.521 37.4327 734.59 Q44.5941 736.658 51.9465 736.658 Q59.2989 736.658 66.5239 734.59 Q73.7172 732.489 81.0059 728.256 L81.0059 733.348 Q73.5262 738.123 66.3011 740.51 Q59.0761 742.865 51.9465 742.865 Q44.8487 742.865 37.6555 740.51 Q30.4622 738.154 22.9507 733.348 L22.9507 728.256 Z" fill="#000000" fill-rule="nonzero" fill-opacity="1" /><path clip-path="url(#clip060)" d="M28.1387 706.74 Q28.1387 709.286 29.9211 711.036 Q31.6717 712.787 34.218 712.787 Q36.7324 712.787 38.483 711.036 Q40.2017 709.286 40.2017 706.74 Q40.2017 704.193 38.483 702.443 Q36.7324 700.692 34.218 700.692 Q31.7035 700.692 29.9211 702.475 Q28.1387 704.225 28.1387 706.74 M24.0328 706.74 Q24.0328 704.703 24.8286 702.825 Q25.5924 700.947 27.0566 699.578 Q28.4888 698.114 30.3031 697.382 Q32.1173 696.65 34.218 696.65 Q38.4193 696.65 41.3476 699.61 Q44.244 702.538 44.244 706.803 Q44.244 711.1 41.3794 713.965 Q38.5148 716.829 34.218 716.829 Q29.953 716.829 26.9929 713.901 Q24.0328 710.973 24.0328 706.74 Z" fill="#000000" fill-rule="nonzero" fill-opacity="1" /><path clip-path="url(#clip060)" d="M22.9507 685.224 L22.9507 680.131 Q30.4622 675.357 37.6555 673.001 Q44.8487 670.614 51.9465 670.614 Q59.0761 670.614 66.3011 673.001 Q73.5262 675.357 81.0059 680.131 L81.0059 685.224 Q73.7172 680.99 66.5239 678.921 Q59.2989 676.821 51.9465 676.821 Q44.5941 676.821 37.4327 678.921 Q30.2712 680.99 22.9507 685.224 Z" fill="#000000" fill-rule="nonzero" fill-opacity="1" /><polyline clip-path="url(#clip062)" style="stroke:#009af9; stroke-linecap:round; stroke-linejoin:round; stroke-width:4; stroke-opacity:1; fill:none" points="229.629,1382.68 254.791,1320.22 279.954,1093.65 305.116,731.434 330.278,533.942 355.44,314.485 380.603,162.914 405.765,118.906 430.927,86.1857 456.089,147.544 481.252,171.973 506.414,209.865 531.576,274.724 556.739,261.58 581.901,291.723 607.063,317.227 632.225,282.031 657.388,313.577 682.55,308.126 707.712,275.647 732.874,290.814 758.037,303.009 783.199,307.816 808.361,282.75 833.524,311.201 858.686,320.134 883.848,274.73 909.01,258.799 934.173,292.568 959.335,316.078 984.497,289.841 1009.66,272.851 1034.82,248.147 1059.98,292.011 1085.15,289.929 "/>
<polyline clip-path="url(#clip062)" style="stroke:#e26f46; stroke-linecap:round; stroke-linejoin:round; stroke-width:3; stroke-opacity:1; fill:none" stroke-dasharray="12, 6, 2, 6" points="229.629,1384.24 254.791,1309.39 279.954,1091.42 305.116,742.214 330.278,521.315 355.44,317.363 380.603,169.434 405.765,118.427 430.927,94.1939 456.089,145.179 481.252,179.944 506.414,216.205 531.576,273.474 556.739,272.741 581.901,291.877 607.063,314.946 632.225,290.339 657.388,307.819 682.55,308.267 707.712,281.628 732.874,287.146 758.037,299.647 783.199,306.808 808.361,287.842 833.524,305.553 858.686,317.838 883.848,283.712 909.01,261.75 934.173,285.035 959.335,311.301 984.497,295.983 1009.66,276.965 1034.82,252.624 1059.98,283.035 1085.15,290.38 "/>
<path clip-path="url(#clip060)" d="M961.069 1377.32 L1080.58 1377.32 L1080.58 1221.8 L961.069 1221.8  Z" fill="#ffffff" fill-rule="evenodd" fill-opacity="1"/>
<polyline clip-path="url(#clip060)" style="stroke:#000000; stroke-linecap:round; stroke-linejoin:round; stroke-width:4; stroke-opacity:1; fill:none" points="961.069,1377.32 1080.58,1377.32 1080.58,1221.8 961.069,1221.8 961.069,1377.32 "/>
<polyline clip-path="url(#clip060)" style="stroke:#009af9; stroke-linecap:round; stroke-linejoin:round; stroke-width:4; stroke-opacity:1; fill:none" points="971.145,1273.64 1031.6,1273.64 "/>
<path clip-path="url(#clip060)" d="M1068.45 1260.37 Q1066.97 1260.37 1066.22 1260.51 Q1065.48 1260.63 1065.29 1260.8 Q1065.1 1260.96 1064.89 1261.38 L1054.58 1283.3 Q1053.48 1285.65 1051.42 1287.33 Q1049.38 1289.02 1046.81 1289.02 Q1044.65 1289.02 1043.15 1287.71 Q1041.68 1286.42 1041.68 1284.59 Q1041.68 1283.28 1042.5 1282.53 Q1043.32 1281.81 1044.42 1281.81 Q1045.64 1281.81 1046.41 1282.58 Q1047.21 1283.35 1047.21 1284.55 Q1047.21 1285.32 1046.88 1285.9 Q1046.55 1286.51 1046.25 1286.72 Q1045.96 1286.96 1045.66 1287.1 Q1046.15 1287.29 1046.81 1287.29 Q1047.79 1287.29 1048.63 1286.89 Q1049.5 1286.51 1050.06 1286 Q1050.65 1285.51 1051.23 1284.62 Q1051.82 1283.75 1052.1 1283.19 Q1052.38 1282.65 1052.8 1281.71 L1053.9 1279.42 L1044.93 1260.37 L1041.87 1260.37 L1041.87 1258.13 L1047.35 1258.27 L1053.3 1258.13 L1053.3 1260.37 L1050.7 1260.37 L1056.79 1273.33 L1062.31 1261.52 L1062.55 1260.96 Q1062.55 1260.7 1061.99 1260.56 Q1061.42 1260.4 1060.86 1260.4 L1060.3 1260.37 L1060.3 1258.13 L1064.66 1258.27 Q1066.72 1258.27 1068.45 1258.13 L1068.45 1260.37 Z" fill="#000000" fill-rule="nonzero" fill-opacity="1" /><polyline clip-path="url(#clip060)" style="stroke:#e26f46; stroke-linecap:round; stroke-linejoin:round; stroke-width:3; stroke-opacity:1; fill:none" stroke-dasharray="12, 6, 2, 6" points="971.145,1325.48 1031.6,1325.48 "/>
<path clip-path="url(#clip060)" d="M1064.26 1309.2 L1063.85 1309.87 Q1061.31 1308.77 1058.15 1307.01 Q1054.98 1308.77 1052.44 1309.87 L1052.05 1309.2 Q1054.82 1306.79 1058.15 1304.93 Q1061.51 1306.8 1064.26 1309.2 Z" fill="#000000" fill-rule="nonzero" fill-opacity="1" /><path clip-path="url(#clip060)" d="M1068.45 1317.22 Q1066.97 1317.22 1066.22 1317.36 Q1065.48 1317.48 1065.29 1317.64 Q1065.1 1317.8 1064.89 1318.23 L1054.58 1340.15 Q1053.48 1342.49 1051.42 1344.18 Q1049.38 1345.86 1046.81 1345.86 Q1044.65 1345.86 1043.15 1344.55 Q1041.68 1343.26 1041.68 1341.44 Q1041.68 1340.13 1042.5 1339.38 Q1043.32 1338.65 1044.42 1338.65 Q1045.64 1338.65 1046.41 1339.42 Q1047.21 1340.2 1047.21 1341.39 Q1047.21 1342.16 1046.88 1342.75 Q1046.55 1343.36 1046.25 1343.57 Q1045.96 1343.8 1045.66 1343.94 Q1046.15 1344.13 1046.81 1344.13 Q1047.79 1344.13 1048.63 1343.73 Q1049.5 1343.36 1050.06 1342.84 Q1050.65 1342.35 1051.23 1341.46 Q1051.82 1340.59 1052.1 1340.03 Q1052.38 1339.49 1052.8 1338.56 L1053.9 1336.26 L1044.93 1317.22 L1041.87 1317.22 L1041.87 1314.97 L1047.35 1315.11 L1053.3 1314.97 L1053.3 1317.22 L1050.7 1317.22 L1056.79 1330.17 L1062.31 1318.37 L1062.55 1317.8 Q1062.55 1317.55 1061.99 1317.41 Q1061.42 1317.24 1060.86 1317.24 L1060.3 1317.22 L1060.3 1314.97 L1064.66 1315.11 Q1066.72 1315.11 1068.45 1314.97 L1068.45 1317.22 Z" fill="#000000" fill-rule="nonzero" fill-opacity="1" /><path clip-path="url(#clip060)" d="M1445.91 398.692 L2352.76 398.692 L2352.76 47.2441 L1445.91 47.2441  Z" fill="#ffffff" fill-rule="evenodd" fill-opacity="1"/>
<defs>
  <clipPath id="clip063">
    <rect x="1445" y="47" width="908" height="352"/>
  </clipPath>
</defs>
<polyline clip-path="url(#clip063)" style="stroke:#000000; stroke-linecap:round; stroke-linejoin:round; stroke-width:2; stroke-opacity:0.1; fill:none" points="1471.57,398.692 1471.57,47.2441 "/>
<polyline clip-path="url(#clip063)" style="stroke:#000000; stroke-linecap:round; stroke-linejoin:round; stroke-width:2; stroke-opacity:0.1; fill:none" points="1723.2,398.692 1723.2,47.2441 "/>
<polyline clip-path="url(#clip063)" style="stroke:#000000; stroke-linecap:round; stroke-linejoin:round; stroke-width:2; stroke-opacity:0.1; fill:none" points="1974.82,398.692 1974.82,47.2441 "/>
<polyline clip-path="url(#clip063)" style="stroke:#000000; stroke-linecap:round; stroke-linejoin:round; stroke-width:2; stroke-opacity:0.1; fill:none" points="2226.44,398.692 2226.44,47.2441 "/>
<polyline clip-path="url(#clip063)" style="stroke:#000000; stroke-linecap:round; stroke-linejoin:round; stroke-width:2; stroke-opacity:0.1; fill:none" points="1445.91,388.745 2352.76,388.745 "/>
<polyline clip-path="url(#clip063)" style="stroke:#000000; stroke-linecap:round; stroke-linejoin:round; stroke-width:2; stroke-opacity:0.1; fill:none" points="1445.91,324.434 2352.76,324.434 "/>
<polyline clip-path="url(#clip063)" style="stroke:#000000; stroke-linecap:round; stroke-linejoin:round; stroke-width:2; stroke-opacity:0.1; fill:none" points="1445.91,260.123 2352.76,260.123 "/>
<polyline clip-path="url(#clip063)" style="stroke:#000000; stroke-linecap:round; stroke-linejoin:round; stroke-width:2; stroke-opacity:0.1; fill:none" points="1445.91,195.812 2352.76,195.812 "/>
<polyline clip-path="url(#clip063)" style="stroke:#000000; stroke-linecap:round; stroke-linejoin:round; stroke-width:2; stroke-opacity:0.1; fill:none" points="1445.91,131.501 2352.76,131.501 "/>
<polyline clip-path="url(#clip063)" style="stroke:#000000; stroke-linecap:round; stroke-linejoin:round; stroke-width:2; stroke-opacity:0.1; fill:none" points="1445.91,67.1899 2352.76,67.1899 "/>
<polyline clip-path="url(#clip060)" style="stroke:#000000; stroke-linecap:round; stroke-linejoin:round; stroke-width:4; stroke-opacity:1; fill:none" points="1445.91,398.692 2352.76,398.692 "/>
<polyline clip-path="url(#clip060)" style="stroke:#000000; stroke-linecap:round; stroke-linejoin:round; stroke-width:4; stroke-opacity:1; fill:none" points="1471.57,398.692 1471.57,379.794 "/>
<polyline clip-path="url(#clip060)" style="stroke:#000000; stroke-linecap:round; stroke-linejoin:round; stroke-width:4; stroke-opacity:1; fill:none" points="1723.2,398.692 1723.2,379.794 "/>
<polyline clip-path="url(#clip060)" style="stroke:#000000; stroke-linecap:round; stroke-linejoin:round; stroke-width:4; stroke-opacity:1; fill:none" points="1974.82,398.692 1974.82,379.794 "/>
<polyline clip-path="url(#clip060)" style="stroke:#000000; stroke-linecap:round; stroke-linejoin:round; stroke-width:4; stroke-opacity:1; fill:none" points="2226.44,398.692 2226.44,379.794 "/>
<path clip-path="url(#clip060)" d="M1471.57 429.611 Q1467.96 429.611 1466.13 433.175 Q1464.33 436.717 1464.33 443.847 Q1464.33 450.953 1466.13 454.518 Q1467.96 458.059 1471.57 458.059 Q1475.21 458.059 1477.01 454.518 Q1478.84 450.953 1478.84 443.847 Q1478.84 436.717 1477.01 433.175 Q1475.21 429.611 1471.57 429.611 M1471.57 425.907 Q1477.38 425.907 1480.44 430.513 Q1483.52 435.097 1483.52 443.847 Q1483.52 452.573 1480.44 457.18 Q1477.38 461.763 1471.57 461.763 Q1465.76 461.763 1462.68 457.18 Q1459.63 452.573 1459.63 443.847 Q1459.63 435.097 1462.68 430.513 Q1465.76 425.907 1471.57 425.907 Z" fill="#000000" fill-rule="nonzero" fill-opacity="1" /><path clip-path="url(#clip060)" d="M1713.58 457.157 L1721.22 457.157 L1721.22 430.791 L1712.91 432.458 L1712.91 428.199 L1721.17 426.532 L1725.85 426.532 L1725.85 457.157 L1733.49 457.157 L1733.49 461.092 L1713.58 461.092 L1713.58 457.157 Z" fill="#000000" fill-rule="nonzero" fill-opacity="1" /><path clip-path="url(#clip060)" d="M1969.47 457.157 L1985.79 457.157 L1985.79 461.092 L1963.85 461.092 L1963.85 457.157 Q1966.51 454.402 1971.09 449.772 Q1975.7 445.12 1976.88 443.777 Q1979.12 441.254 1980 439.518 Q1980.91 437.759 1980.91 436.069 Q1980.91 433.314 1978.96 431.578 Q1977.04 429.842 1973.94 429.842 Q1971.74 429.842 1969.29 430.606 Q1966.86 431.37 1964.08 432.921 L1964.08 428.199 Q1966.9 427.064 1969.36 426.486 Q1971.81 425.907 1973.85 425.907 Q1979.22 425.907 1982.41 428.592 Q1985.61 431.277 1985.61 435.768 Q1985.61 437.898 1984.8 439.819 Q1984.01 441.717 1981.9 444.31 Q1981.32 444.981 1978.22 448.198 Q1975.12 451.393 1969.47 457.157 Z" fill="#000000" fill-rule="nonzero" fill-opacity="1" /><path clip-path="url(#clip060)" d="M2230.69 442.458 Q2234.05 443.175 2235.92 445.444 Q2237.82 447.712 2237.82 451.046 Q2237.82 456.161 2234.3 458.962 Q2230.78 461.763 2224.3 461.763 Q2222.12 461.763 2219.81 461.323 Q2217.52 460.907 2215.06 460.05 L2215.06 455.536 Q2217.01 456.671 2219.32 457.249 Q2221.64 457.828 2224.16 457.828 Q2228.56 457.828 2230.85 456.092 Q2233.17 454.356 2233.17 451.046 Q2233.17 447.99 2231.01 446.277 Q2228.88 444.541 2225.06 444.541 L2221.04 444.541 L2221.04 440.698 L2225.25 440.698 Q2228.7 440.698 2230.53 439.333 Q2232.36 437.944 2232.36 435.351 Q2232.36 432.689 2230.46 431.277 Q2228.58 429.842 2225.06 429.842 Q2223.14 429.842 2220.94 430.259 Q2218.74 430.675 2216.11 431.555 L2216.11 427.388 Q2218.77 426.648 2221.08 426.277 Q2223.42 425.907 2225.48 425.907 Q2230.8 425.907 2233.91 428.337 Q2237.01 430.745 2237.01 434.865 Q2237.01 437.736 2235.36 439.726 Q2233.72 441.694 2230.69 442.458 Z" fill="#000000" fill-rule="nonzero" fill-opacity="1" /><polyline clip-path="url(#clip060)" style="stroke:#000000; stroke-linecap:round; stroke-linejoin:round; stroke-width:4; stroke-opacity:1; fill:none" points="1445.91,398.692 1445.91,47.2441 "/>
<polyline clip-path="url(#clip060)" style="stroke:#000000; stroke-linecap:round; stroke-linejoin:round; stroke-width:4; stroke-opacity:1; fill:none" points="1445.91,388.745 1464.81,388.745 "/>
<polyline clip-path="url(#clip060)" style="stroke:#000000; stroke-linecap:round; stroke-linejoin:round; stroke-width:4; stroke-opacity:1; fill:none" points="1445.91,324.434 1464.81,324.434 "/>
<polyline clip-path="url(#clip060)" style="stroke:#000000; stroke-linecap:round; stroke-linejoin:round; stroke-width:4; stroke-opacity:1; fill:none" points="1445.91,260.123 1464.81,260.123 "/>
<polyline clip-path="url(#clip060)" style="stroke:#000000; stroke-linecap:round; stroke-linejoin:round; stroke-width:4; stroke-opacity:1; fill:none" points="1445.91,195.812 1464.81,195.812 "/>
<polyline clip-path="url(#clip060)" style="stroke:#000000; stroke-linecap:round; stroke-linejoin:round; stroke-width:4; stroke-opacity:1; fill:none" points="1445.91,131.501 1464.81,131.501 "/>
<polyline clip-path="url(#clip060)" style="stroke:#000000; stroke-linecap:round; stroke-linejoin:round; stroke-width:4; stroke-opacity:1; fill:none" points="1445.91,67.1899 1464.81,67.1899 "/>
<path clip-path="url(#clip060)" d="M1352.73 374.544 Q1349.12 374.544 1347.29 378.109 Q1345.49 381.65 1345.49 388.78 Q1345.49 395.886 1347.29 399.451 Q1349.12 402.993 1352.73 402.993 Q1356.37 402.993 1358.17 399.451 Q1360 395.886 1360 388.78 Q1360 381.65 1358.17 378.109 Q1356.37 374.544 1352.73 374.544 M1352.73 370.84 Q1358.54 370.84 1361.6 375.447 Q1364.68 380.03 1364.68 388.78 Q1364.68 397.507 1361.6 402.113 Q1358.54 406.697 1352.73 406.697 Q1346.92 406.697 1343.84 402.113 Q1340.79 397.507 1340.79 388.78 Q1340.79 380.03 1343.84 375.447 Q1346.92 370.84 1352.73 370.84 Z" fill="#000000" fill-rule="nonzero" fill-opacity="1" /><path clip-path="url(#clip060)" d="M1372.89 400.146 L1377.78 400.146 L1377.78 406.025 L1372.89 406.025 L1372.89 400.146 Z" fill="#000000" fill-rule="nonzero" fill-opacity="1" /><path clip-path="url(#clip060)" d="M1397.96 374.544 Q1394.35 374.544 1392.52 378.109 Q1390.72 381.65 1390.72 388.78 Q1390.72 395.886 1392.52 399.451 Q1394.35 402.993 1397.96 402.993 Q1401.6 402.993 1403.4 399.451 Q1405.23 395.886 1405.23 388.78 Q1405.23 381.65 1403.4 378.109 Q1401.6 374.544 1397.96 374.544 M1397.96 370.84 Q1403.77 370.84 1406.83 375.447 Q1409.91 380.03 1409.91 388.78 Q1409.91 397.507 1406.83 402.113 Q1403.77 406.697 1397.96 406.697 Q1392.15 406.697 1389.07 402.113 Q1386.02 397.507 1386.02 388.78 Q1386.02 380.03 1389.07 375.447 Q1392.15 370.84 1397.96 370.84 Z" fill="#000000" fill-rule="nonzero" fill-opacity="1" /><path clip-path="url(#clip060)" d="M1353.96 310.233 Q1350.35 310.233 1348.52 313.798 Q1346.71 317.339 1346.71 324.469 Q1346.71 331.575 1348.52 335.14 Q1350.35 338.682 1353.96 338.682 Q1357.59 338.682 1359.4 335.14 Q1361.23 331.575 1361.23 324.469 Q1361.23 317.339 1359.4 313.798 Q1357.59 310.233 1353.96 310.233 M1353.96 306.529 Q1359.77 306.529 1362.82 311.136 Q1365.9 315.719 1365.9 324.469 Q1365.9 333.196 1362.82 337.802 Q1359.77 342.385 1353.96 342.385 Q1348.15 342.385 1345.07 337.802 Q1342.01 333.196 1342.01 324.469 Q1342.01 315.719 1345.07 311.136 Q1348.15 306.529 1353.96 306.529 Z" fill="#000000" fill-rule="nonzero" fill-opacity="1" /><path clip-path="url(#clip060)" d="M1374.12 335.835 L1379.01 335.835 L1379.01 341.714 L1374.12 341.714 L1374.12 335.835 Z" fill="#000000" fill-rule="nonzero" fill-opacity="1" /><path clip-path="url(#clip060)" d="M1390 337.779 L1397.64 337.779 L1397.64 311.413 L1389.33 313.08 L1389.33 308.821 L1397.59 307.154 L1402.27 307.154 L1402.27 337.779 L1409.91 337.779 L1409.91 341.714 L1390 341.714 L1390 337.779 Z" fill="#000000" fill-rule="nonzero" fill-opacity="1" /><path clip-path="url(#clip060)" d="M1354.33 245.922 Q1350.72 245.922 1348.89 249.487 Q1347.08 253.028 1347.08 260.158 Q1347.08 267.264 1348.89 270.829 Q1350.72 274.371 1354.33 274.371 Q1357.96 274.371 1359.77 270.829 Q1361.6 267.264 1361.6 260.158 Q1361.6 253.028 1359.77 249.487 Q1357.96 245.922 1354.33 245.922 M1354.33 242.218 Q1360.14 242.218 1363.2 246.825 Q1366.27 251.408 1366.27 260.158 Q1366.27 268.885 1363.2 273.491 Q1360.14 278.074 1354.33 278.074 Q1348.52 278.074 1345.44 273.491 Q1342.39 268.885 1342.39 260.158 Q1342.39 251.408 1345.44 246.825 Q1348.52 242.218 1354.33 242.218 Z" fill="#000000" fill-rule="nonzero" fill-opacity="1" /><path clip-path="url(#clip060)" d="M1374.49 271.523 L1379.38 271.523 L1379.38 277.403 L1374.49 277.403 L1374.49 271.523 Z" fill="#000000" fill-rule="nonzero" fill-opacity="1" /><path clip-path="url(#clip060)" d="M1393.59 273.468 L1409.91 273.468 L1409.91 277.403 L1387.96 277.403 L1387.96 273.468 Q1390.63 270.713 1395.21 266.084 Q1399.82 261.431 1401 260.088 Q1403.24 257.565 1404.12 255.829 Q1405.02 254.07 1405.02 252.38 Q1405.02 249.625 1403.08 247.889 Q1401.16 246.153 1398.06 246.153 Q1395.86 246.153 1393.4 246.917 Q1390.97 247.681 1388.19 249.232 L1388.19 244.51 Q1391.02 243.375 1393.47 242.797 Q1395.93 242.218 1397.96 242.218 Q1403.33 242.218 1406.53 244.903 Q1409.72 247.588 1409.72 252.079 Q1409.72 254.209 1408.91 256.13 Q1408.13 258.028 1406.02 260.621 Q1405.44 261.292 1402.34 264.51 Q1399.24 267.704 1393.59 273.468 Z" fill="#000000" fill-rule="nonzero" fill-opacity="1" /><path clip-path="url(#clip060)" d="M1353.38 181.611 Q1349.77 181.611 1347.94 185.175 Q1346.13 188.717 1346.13 195.847 Q1346.13 202.953 1347.94 206.518 Q1349.77 210.06 1353.38 210.06 Q1357.01 210.06 1358.82 206.518 Q1360.65 202.953 1360.65 195.847 Q1360.65 188.717 1358.82 185.175 Q1357.01 181.611 1353.38 181.611 M1353.38 177.907 Q1359.19 177.907 1362.25 182.513 Q1365.32 187.097 1365.32 195.847 Q1365.32 204.574 1362.25 209.18 Q1359.19 213.763 1353.38 213.763 Q1347.57 213.763 1344.49 209.18 Q1341.44 204.574 1341.44 195.847 Q1341.44 187.097 1344.49 182.513 Q1347.57 177.907 1353.38 177.907 Z" fill="#000000" fill-rule="nonzero" fill-opacity="1" /><path clip-path="url(#clip060)" d="M1373.54 207.212 L1378.43 207.212 L1378.43 213.092 L1373.54 213.092 L1373.54 207.212 Z" fill="#000000" fill-rule="nonzero" fill-opacity="1" /><path clip-path="url(#clip060)" d="M1402.78 194.458 Q1406.13 195.175 1408.01 197.444 Q1409.91 199.712 1409.91 203.046 Q1409.91 208.161 1406.39 210.962 Q1402.87 213.763 1396.39 213.763 Q1394.21 213.763 1391.9 213.323 Q1389.61 212.907 1387.15 212.05 L1387.15 207.536 Q1389.1 208.671 1391.41 209.249 Q1393.73 209.828 1396.25 209.828 Q1400.65 209.828 1402.94 208.092 Q1405.26 206.356 1405.26 203.046 Q1405.26 199.99 1403.1 198.277 Q1400.97 196.541 1397.15 196.541 L1393.13 196.541 L1393.13 192.699 L1397.34 192.699 Q1400.79 192.699 1402.62 191.333 Q1404.44 189.944 1404.44 187.351 Q1404.44 184.689 1402.55 183.277 Q1400.67 181.842 1397.15 181.842 Q1395.23 181.842 1393.03 182.259 Q1390.83 182.676 1388.19 183.555 L1388.19 179.388 Q1390.86 178.648 1393.17 178.277 Q1395.51 177.907 1397.57 177.907 Q1402.89 177.907 1406 180.338 Q1409.1 182.745 1409.1 186.865 Q1409.1 189.736 1407.45 191.726 Q1405.81 193.694 1402.78 194.458 Z" fill="#000000" fill-rule="nonzero" fill-opacity="1" /><path clip-path="url(#clip060)" d="M1352.25 117.3 Q1348.63 117.3 1346.81 120.864 Q1345 124.406 1345 131.536 Q1345 138.642 1346.81 142.207 Q1348.63 145.749 1352.25 145.749 Q1355.88 145.749 1357.69 142.207 Q1359.51 138.642 1359.51 131.536 Q1359.51 124.406 1357.69 120.864 Q1355.88 117.3 1352.25 117.3 M1352.25 113.596 Q1358.06 113.596 1361.11 118.202 Q1364.19 122.786 1364.19 131.536 Q1364.19 140.262 1361.11 144.869 Q1358.06 149.452 1352.25 149.452 Q1346.44 149.452 1343.36 144.869 Q1340.3 140.262 1340.3 131.536 Q1340.3 122.786 1343.36 118.202 Q1346.44 113.596 1352.25 113.596 Z" fill="#000000" fill-rule="nonzero" fill-opacity="1" /><path clip-path="url(#clip060)" d="M1372.41 142.901 L1377.29 142.901 L1377.29 148.781 L1372.41 148.781 L1372.41 142.901 Z" fill="#000000" fill-rule="nonzero" fill-opacity="1" /><path clip-path="url(#clip060)" d="M1400.32 118.295 L1388.52 136.744 L1400.32 136.744 L1400.32 118.295 M1399.1 114.221 L1404.98 114.221 L1404.98 136.744 L1409.91 136.744 L1409.91 140.633 L1404.98 140.633 L1404.98 148.781 L1400.32 148.781 L1400.32 140.633 L1384.72 140.633 L1384.72 136.119 L1399.1 114.221 Z" fill="#000000" fill-rule="nonzero" fill-opacity="1" /><path clip-path="url(#clip060)" d="M1353.73 52.9886 Q1350.12 52.9886 1348.29 56.5534 Q1346.48 60.095 1346.48 67.2246 Q1346.48 74.331 1348.29 77.8958 Q1350.12 81.4375 1353.73 81.4375 Q1357.36 81.4375 1359.17 77.8958 Q1361 74.331 1361 67.2246 Q1361 60.095 1359.17 56.5534 Q1357.36 52.9886 1353.73 52.9886 M1353.73 49.2849 Q1359.54 49.2849 1362.59 53.8913 Q1365.67 58.4746 1365.67 67.2246 Q1365.67 75.9514 1362.59 80.5579 Q1359.54 85.1412 1353.73 85.1412 Q1347.92 85.1412 1344.84 80.5579 Q1341.78 75.9514 1341.78 67.2246 Q1341.78 58.4746 1344.84 53.8913 Q1347.92 49.2849 1353.73 49.2849 Z" fill="#000000" fill-rule="nonzero" fill-opacity="1" /><path clip-path="url(#clip060)" d="M1373.89 78.5903 L1378.77 78.5903 L1378.77 84.4699 L1373.89 84.4699 L1373.89 78.5903 Z" fill="#000000" fill-rule="nonzero" fill-opacity="1" /><path clip-path="url(#clip060)" d="M1389.01 49.9099 L1407.36 49.9099 L1407.36 53.845 L1393.29 53.845 L1393.29 62.3172 Q1394.31 61.97 1395.32 61.808 Q1396.34 61.6228 1397.36 61.6228 Q1403.15 61.6228 1406.53 64.7941 Q1409.91 67.9653 1409.91 73.382 Q1409.91 78.9606 1406.44 82.0625 Q1402.96 85.1412 1396.64 85.1412 Q1394.47 85.1412 1392.2 84.7708 Q1389.95 84.4004 1387.55 83.6597 L1387.55 78.9606 Q1389.63 80.0949 1391.85 80.6504 Q1394.07 81.206 1396.55 81.206 Q1400.56 81.206 1402.89 79.0995 Q1405.23 76.9931 1405.23 73.382 Q1405.23 69.7709 1402.89 67.6644 Q1400.56 65.5579 1396.55 65.5579 Q1394.68 65.5579 1392.8 65.9746 Q1390.95 66.3913 1389.01 67.2709 L1389.01 49.9099 Z" fill="#000000" fill-rule="nonzero" fill-opacity="1" /><path clip-path="url(#clip060)" d="M1265.47 298.084 Q1270.89 298.084 1276.97 299.823 Q1283.03 301.53 1287.92 304.235 Q1292.79 306.941 1296.01 310.483 Q1299.19 314.026 1299.19 317.408 Q1299.19 319.565 1298 321.176 Q1296.78 322.754 1294.75 323.623 Q1292.69 324.493 1290.43 324.912 Q1288.15 325.33 1285.67 325.33 Q1281.96 325.33 1277.94 324.525 Q1273.88 323.72 1270.21 322.367 Q1266.51 321.015 1263.16 319.115 Q1259.77 317.214 1257.33 315.121 Q1254.85 312.995 1253.4 310.612 Q1251.95 308.229 1251.95 306.007 Q1251.95 304.396 1252.66 303.108 Q1253.33 301.788 1254.52 300.95 Q1255.68 300.113 1257.07 299.533 Q1258.45 298.921 1260.06 298.632 Q1261.64 298.342 1262.96 298.213 Q1264.25 298.084 1265.47 298.084 M1261.38 302.432 Q1259.74 302.432 1258.52 302.561 Q1257.26 302.69 1256.01 303.044 Q1254.75 303.398 1254.07 304.171 Q1253.4 304.912 1253.4 306.071 Q1253.4 309.453 1260.32 313.253 Q1262.48 314.477 1265.41 315.572 Q1268.34 316.667 1269.73 317.053 Q1271.11 317.44 1274.52 318.342 L1274.52 304.558 Q1265.73 302.432 1261.38 302.432 M1276.62 305.137 L1276.62 318.857 Q1284.67 320.983 1289.69 320.983 Q1294.07 320.983 1295.91 320.081 Q1297.71 319.147 1297.71 317.408 Q1297.71 315.411 1295.72 313.543 Q1293.69 311.675 1290.02 309.775 Q1285.25 307.263 1276.62 305.137 Z" fill="#000000" fill-rule="nonzero" fill-opacity="1" /><path clip-path="url(#clip060)" d="M1248.99 253.776 Q1256.31 258.041 1263.47 260.11 Q1270.64 262.179 1277.99 262.179 Q1285.34 262.179 1292.57 260.11 Q1299.76 258.009 1307.05 253.776 L1307.05 258.869 Q1299.57 263.643 1292.34 266.03 Q1285.12 268.386 1277.99 268.386 Q1270.89 268.386 1263.7 266.03 Q1256.5 263.675 1248.99 258.869 L1248.99 253.776 Z" fill="#000000" fill-rule="nonzero" fill-opacity="1" /><path clip-path="url(#clip060)" d="M1268.28 221.757 Q1267.71 222.743 1267.45 223.921 Q1267.17 225.067 1267.17 226.467 Q1267.17 231.433 1270.41 234.106 Q1273.63 236.748 1279.67 236.748 L1298.45 236.748 L1298.45 242.636 L1262.81 242.636 L1262.81 236.748 L1268.34 236.748 Q1265.1 234.902 1263.54 231.942 Q1261.95 228.982 1261.95 224.749 Q1261.95 224.144 1262.04 223.412 Q1262.11 222.68 1262.26 221.789 L1268.28 221.757 Z" fill="#000000" fill-rule="nonzero" fill-opacity="1" /><path clip-path="url(#clip060)" d="M1280.53 199.413 Q1280.53 206.511 1282.16 209.248 Q1283.78 211.985 1287.7 211.985 Q1290.81 211.985 1292.66 209.948 Q1294.48 207.879 1294.48 204.347 Q1294.48 199.477 1291.04 196.549 Q1287.57 193.588 1281.84 193.588 L1280.53 193.588 L1280.53 199.413 M1278.12 187.732 L1298.45 187.732 L1298.45 193.588 L1293.04 193.588 Q1296.29 195.594 1297.85 198.586 Q1299.38 201.577 1299.38 205.906 Q1299.38 211.381 1296.32 214.627 Q1293.23 217.842 1288.08 217.842 Q1282.06 217.842 1279.01 213.831 Q1275.95 209.789 1275.95 201.8 L1275.95 193.588 L1275.38 193.588 Q1271.34 193.588 1269.14 196.262 Q1266.91 198.904 1266.91 203.71 Q1266.91 206.766 1267.64 209.662 Q1268.38 212.558 1269.84 215.232 L1264.43 215.232 Q1263.19 212.017 1262.58 208.993 Q1261.95 205.97 1261.95 203.105 Q1261.95 195.371 1265.96 191.551 Q1269.97 187.732 1278.12 187.732 Z" fill="#000000" fill-rule="nonzero" fill-opacity="1" /><path clip-path="url(#clip060)" d="M1268.22 152.211 L1248.93 152.211 L1248.93 146.355 L1298.45 146.355 L1298.45 152.211 L1293.11 152.211 Q1296.29 154.057 1297.85 156.89 Q1299.38 159.691 1299.38 163.638 Q1299.38 170.099 1294.22 174.173 Q1289.06 178.215 1280.66 178.215 Q1272.26 178.215 1267.1 174.173 Q1261.95 170.099 1261.95 163.638 Q1261.95 159.691 1263.51 156.89 Q1265.03 154.057 1268.22 152.211 M1280.66 172.168 Q1287.12 172.168 1290.81 169.526 Q1294.48 166.853 1294.48 162.206 Q1294.48 157.559 1290.81 154.885 Q1287.12 152.211 1280.66 152.211 Q1274.2 152.211 1270.54 154.885 Q1266.85 157.559 1266.85 162.206 Q1266.85 166.853 1270.54 169.526 Q1274.2 172.168 1280.66 172.168 Z" fill="#000000" fill-rule="nonzero" fill-opacity="1" /><path clip-path="url(#clip060)" d="M1248.99 135.215 L1248.99 130.122 Q1256.5 125.348 1263.7 122.993 Q1270.89 120.606 1277.99 120.606 Q1285.12 120.606 1292.34 122.993 Q1299.57 125.348 1307.05 130.122 L1307.05 135.215 Q1299.76 130.982 1292.57 128.913 Q1285.34 126.812 1277.99 126.812 Q1270.64 126.812 1263.47 128.913 Q1256.31 130.982 1248.99 135.215 Z" fill="#000000" fill-rule="nonzero" fill-opacity="1" /><polyline clip-path="url(#clip063)" style="stroke:#009af9; stroke-linecap:round; stroke-linejoin:round; stroke-width:4; stroke-opacity:1; fill:none" points="1471.57,388.745 1496.74,360.818 1521.9,297.467 1547.06,224.516 1572.22,159.23 1597.38,110.364 1622.55,80.0066 1647.71,66.0513 1672.87,64.3845 1698.03,70.4503 1723.2,80.1974 1748.36,90.5452 1773.52,99.5113 1798.68,106.115 1823.85,110.157 1849.01,111.951 1874.17,112.073 1899.33,111.16 1924.49,109.775 1949.66,108.343 1974.82,107.127 1999.98,106.252 2025.14,105.733 2050.31,105.519 2075.47,105.528 2100.63,105.669 2125.79,105.867 2150.95,106.065 2176.12,106.23 2201.28,106.345 2226.44,106.412 2251.6,106.437 2276.77,106.433 2301.93,106.412 2327.09,106.383 "/>
<polyline clip-path="url(#clip063)" style="stroke:#e26f46; stroke-linecap:round; stroke-linejoin:round; stroke-width:3; stroke-opacity:1; fill:none" stroke-dasharray="12, 6, 2, 6" points="1471.57,376.113 1496.74,357.608 1521.9,303.723 1547.06,217.393 1572.22,162.783 1597.38,112.362 1622.55,75.7913 1647.71,63.1816 1672.87,57.1907 1698.03,69.7952 1723.2,78.3896 1748.36,87.354 1773.52,101.512 1798.68,101.331 1823.85,106.061 1849.01,111.765 1874.17,105.681 1899.33,110.003 1924.49,110.113 1949.66,103.528 1974.82,104.892 1999.98,107.982 2025.14,109.753 2050.31,105.064 2075.47,109.442 2100.63,112.48 2125.79,104.043 2150.95,98.6136 2176.12,104.37 2201.28,110.863 2226.44,107.077 2251.6,102.375 2276.77,96.3574 2301.93,103.875 2327.09,105.692 "/>
<path clip-path="url(#clip060)" d="M2203.01 386.977 L2322.53 386.977 L2322.53 231.457 L2203.01 231.457  Z" fill="#ffffff" fill-rule="evenodd" fill-opacity="1"/>
<polyline clip-path="url(#clip060)" style="stroke:#000000; stroke-linecap:round; stroke-linejoin:round; stroke-width:4; stroke-opacity:1; fill:none" points="2203.01,386.977 2322.53,386.977 2322.53,231.457 2203.01,231.457 2203.01,386.977 "/>
<polyline clip-path="url(#clip060)" style="stroke:#009af9; stroke-linecap:round; stroke-linejoin:round; stroke-width:4; stroke-opacity:1; fill:none" points="2213.09,283.297 2273.55,283.297 "/>
<path clip-path="url(#clip060)" d="M2310.63 293.836 L2305.36 293.695 L2299.6 293.836 L2299.6 291.587 L2301.47 291.587 L2296.2 285.357 L2291.54 290.58 L2291.21 291.049 Q2291.21 291.26 2291.75 291.423 Q2292.31 291.587 2292.97 291.587 L2292.97 293.836 L2288.03 293.695 L2283.62 293.836 L2283.62 291.587 Q2285.1 291.587 2285.78 291.564 Q2286.48 291.517 2287.28 291.306 Q2288.07 291.096 2288.47 290.674 L2294.75 283.624 L2287.28 274.794 L2283.86 274.794 L2283.86 272.545 L2289.15 272.686 L2294.94 272.545 L2294.94 274.794 L2293.01 274.794 L2297.72 280.298 L2301.75 275.801 Q2301.77 275.777 2302.15 275.215 Q2301.4 274.794 2300.32 274.794 L2300.32 272.545 L2305.26 272.686 L2309.67 272.545 L2309.67 274.794 Q2307.75 274.794 2306.74 274.934 Q2305.76 275.051 2305.45 275.215 Q2305.17 275.379 2304.77 275.801 L2299.17 282.031 L2307.23 291.587 L2310.63 291.587 L2310.63 293.836 Z" fill="#000000" fill-rule="nonzero" fill-opacity="1" /><polyline clip-path="url(#clip060)" style="stroke:#e26f46; stroke-linecap:round; stroke-linejoin:round; stroke-width:3; stroke-opacity:1; fill:none" stroke-dasharray="12, 6, 2, 6" points="2213.09,335.137 2273.55,335.137 "/>
<path clip-path="url(#clip060)" d="M2306.21 323.615 L2305.8 324.287 Q2303.26 323.189 2300.09 321.434 Q2296.93 323.189 2294.39 324.287 L2293.99 323.615 Q2296.76 321.205 2300.09 319.352 Q2303.45 321.221 2306.21 323.615 Z" fill="#000000" fill-rule="nonzero" fill-opacity="1" /><path clip-path="url(#clip060)" d="M2310.63 350.681 L2305.36 350.54 L2299.6 350.681 L2299.6 348.432 L2301.47 348.432 L2296.2 342.202 L2291.54 347.425 L2291.21 347.893 Q2291.21 348.104 2291.75 348.268 Q2292.31 348.432 2292.97 348.432 L2292.97 350.681 L2288.03 350.54 L2283.62 350.681 L2283.62 348.432 Q2285.1 348.432 2285.78 348.409 Q2286.48 348.362 2287.28 348.151 Q2288.07 347.94 2288.47 347.519 L2294.75 340.468 L2287.28 331.638 L2283.86 331.638 L2283.86 329.39 L2289.15 329.53 L2294.94 329.39 L2294.94 331.638 L2293.01 331.638 L2297.72 337.142 L2301.75 332.645 Q2301.77 332.622 2302.15 332.06 Q2301.4 331.638 2300.32 331.638 L2300.32 329.39 L2305.26 329.53 L2309.67 329.39 L2309.67 331.638 Q2307.75 331.638 2306.74 331.779 Q2305.76 331.896 2305.45 332.06 Q2305.17 332.224 2304.77 332.645 L2299.17 338.876 L2307.23 348.432 L2310.63 348.432 L2310.63 350.681 Z" fill="#000000" fill-rule="nonzero" fill-opacity="1" /><path clip-path="url(#clip060)" d="M1445.91 910.936 L2352.76 910.936 L2352.76 559.488 L1445.91 559.488  Z" fill="#ffffff" fill-rule="evenodd" fill-opacity="1"/>
<defs>
  <clipPath id="clip064">
    <rect x="1445" y="559" width="908" height="352"/>
  </clipPath>
</defs>
<polyline clip-path="url(#clip064)" style="stroke:#000000; stroke-linecap:round; stroke-linejoin:round; stroke-width:2; stroke-opacity:0.1; fill:none" points="1471.57,910.936 1471.57,559.488 "/>
<polyline clip-path="url(#clip064)" style="stroke:#000000; stroke-linecap:round; stroke-linejoin:round; stroke-width:2; stroke-opacity:0.1; fill:none" points="1723.2,910.936 1723.2,559.488 "/>
<polyline clip-path="url(#clip064)" style="stroke:#000000; stroke-linecap:round; stroke-linejoin:round; stroke-width:2; stroke-opacity:0.1; fill:none" points="1974.82,910.936 1974.82,559.488 "/>
<polyline clip-path="url(#clip064)" style="stroke:#000000; stroke-linecap:round; stroke-linejoin:round; stroke-width:2; stroke-opacity:0.1; fill:none" points="2226.44,910.936 2226.44,559.488 "/>
<polyline clip-path="url(#clip064)" style="stroke:#000000; stroke-linecap:round; stroke-linejoin:round; stroke-width:2; stroke-opacity:0.1; fill:none" points="1445.91,847.743 2352.76,847.743 "/>
<polyline clip-path="url(#clip064)" style="stroke:#000000; stroke-linecap:round; stroke-linejoin:round; stroke-width:2; stroke-opacity:0.1; fill:none" points="1445.91,779.106 2352.76,779.106 "/>
<polyline clip-path="url(#clip064)" style="stroke:#000000; stroke-linecap:round; stroke-linejoin:round; stroke-width:2; stroke-opacity:0.1; fill:none" points="1445.91,710.469 2352.76,710.469 "/>
<polyline clip-path="url(#clip064)" style="stroke:#000000; stroke-linecap:round; stroke-linejoin:round; stroke-width:2; stroke-opacity:0.1; fill:none" points="1445.91,641.831 2352.76,641.831 "/>
<polyline clip-path="url(#clip064)" style="stroke:#000000; stroke-linecap:round; stroke-linejoin:round; stroke-width:2; stroke-opacity:0.1; fill:none" points="1445.91,573.194 2352.76,573.194 "/>
<polyline clip-path="url(#clip060)" style="stroke:#000000; stroke-linecap:round; stroke-linejoin:round; stroke-width:4; stroke-opacity:1; fill:none" points="1445.91,910.936 2352.76,910.936 "/>
<polyline clip-path="url(#clip060)" style="stroke:#000000; stroke-linecap:round; stroke-linejoin:round; stroke-width:4; stroke-opacity:1; fill:none" points="1471.57,910.936 1471.57,892.038 "/>
<polyline clip-path="url(#clip060)" style="stroke:#000000; stroke-linecap:round; stroke-linejoin:round; stroke-width:4; stroke-opacity:1; fill:none" points="1723.2,910.936 1723.2,892.038 "/>
<polyline clip-path="url(#clip060)" style="stroke:#000000; stroke-linecap:round; stroke-linejoin:round; stroke-width:4; stroke-opacity:1; fill:none" points="1974.82,910.936 1974.82,892.038 "/>
<polyline clip-path="url(#clip060)" style="stroke:#000000; stroke-linecap:round; stroke-linejoin:round; stroke-width:4; stroke-opacity:1; fill:none" points="2226.44,910.936 2226.44,892.038 "/>
<path clip-path="url(#clip060)" d="M1471.57 941.855 Q1467.96 941.855 1466.13 945.419 Q1464.33 948.961 1464.33 956.091 Q1464.33 963.197 1466.13 966.762 Q1467.96 970.303 1471.57 970.303 Q1475.21 970.303 1477.01 966.762 Q1478.84 963.197 1478.84 956.091 Q1478.84 948.961 1477.01 945.419 Q1475.21 941.855 1471.57 941.855 M1471.57 938.151 Q1477.38 938.151 1480.44 942.757 Q1483.52 947.341 1483.52 956.091 Q1483.52 964.817 1480.44 969.424 Q1477.38 974.007 1471.57 974.007 Q1465.76 974.007 1462.68 969.424 Q1459.63 964.817 1459.63 956.091 Q1459.63 947.341 1462.68 942.757 Q1465.76 938.151 1471.57 938.151 Z" fill="#000000" fill-rule="nonzero" fill-opacity="1" /><path clip-path="url(#clip060)" d="M1713.58 969.401 L1721.22 969.401 L1721.22 943.035 L1712.91 944.702 L1712.91 940.443 L1721.17 938.776 L1725.85 938.776 L1725.85 969.401 L1733.49 969.401 L1733.49 973.336 L1713.58 973.336 L1713.58 969.401 Z" fill="#000000" fill-rule="nonzero" fill-opacity="1" /><path clip-path="url(#clip060)" d="M1969.47 969.401 L1985.79 969.401 L1985.79 973.336 L1963.85 973.336 L1963.85 969.401 Q1966.51 966.646 1971.09 962.016 Q1975.7 957.364 1976.88 956.021 Q1979.12 953.498 1980 951.762 Q1980.91 950.003 1980.91 948.313 Q1980.91 945.558 1978.96 943.822 Q1977.04 942.086 1973.94 942.086 Q1971.74 942.086 1969.29 942.85 Q1966.86 943.614 1964.08 945.165 L1964.08 940.443 Q1966.9 939.308 1969.36 938.73 Q1971.81 938.151 1973.85 938.151 Q1979.22 938.151 1982.41 940.836 Q1985.61 943.521 1985.61 948.012 Q1985.61 950.142 1984.8 952.063 Q1984.01 953.961 1981.9 956.554 Q1981.32 957.225 1978.22 960.442 Q1975.12 963.637 1969.47 969.401 Z" fill="#000000" fill-rule="nonzero" fill-opacity="1" /><path clip-path="url(#clip060)" d="M2230.69 954.702 Q2234.05 955.419 2235.92 957.688 Q2237.82 959.956 2237.82 963.29 Q2237.82 968.405 2234.3 971.206 Q2230.78 974.007 2224.3 974.007 Q2222.12 974.007 2219.81 973.567 Q2217.52 973.151 2215.06 972.294 L2215.06 967.78 Q2217.01 968.915 2219.32 969.493 Q2221.64 970.072 2224.16 970.072 Q2228.56 970.072 2230.85 968.336 Q2233.17 966.6 2233.17 963.29 Q2233.17 960.234 2231.01 958.521 Q2228.88 956.785 2225.06 956.785 L2221.04 956.785 L2221.04 952.942 L2225.25 952.942 Q2228.7 952.942 2230.53 951.577 Q2232.36 950.188 2232.36 947.595 Q2232.36 944.933 2230.46 943.521 Q2228.58 942.086 2225.06 942.086 Q2223.14 942.086 2220.94 942.503 Q2218.74 942.919 2216.11 943.799 L2216.11 939.632 Q2218.77 938.892 2221.08 938.521 Q2223.42 938.151 2225.48 938.151 Q2230.8 938.151 2233.91 940.581 Q2237.01 942.989 2237.01 947.109 Q2237.01 949.979 2235.36 951.97 Q2233.72 953.938 2230.69 954.702 Z" fill="#000000" fill-rule="nonzero" fill-opacity="1" /><polyline clip-path="url(#clip060)" style="stroke:#000000; stroke-linecap:round; stroke-linejoin:round; stroke-width:4; stroke-opacity:1; fill:none" points="1445.91,910.936 1445.91,559.488 "/>
<polyline clip-path="url(#clip060)" style="stroke:#000000; stroke-linecap:round; stroke-linejoin:round; stroke-width:4; stroke-opacity:1; fill:none" points="1445.91,847.743 1464.81,847.743 "/>
<polyline clip-path="url(#clip060)" style="stroke:#000000; stroke-linecap:round; stroke-linejoin:round; stroke-width:4; stroke-opacity:1; fill:none" points="1445.91,779.106 1464.81,779.106 "/>
<polyline clip-path="url(#clip060)" style="stroke:#000000; stroke-linecap:round; stroke-linejoin:round; stroke-width:4; stroke-opacity:1; fill:none" points="1445.91,710.469 1464.81,710.469 "/>
<polyline clip-path="url(#clip060)" style="stroke:#000000; stroke-linecap:round; stroke-linejoin:round; stroke-width:4; stroke-opacity:1; fill:none" points="1445.91,641.831 1464.81,641.831 "/>
<polyline clip-path="url(#clip060)" style="stroke:#000000; stroke-linecap:round; stroke-linejoin:round; stroke-width:4; stroke-opacity:1; fill:none" points="1445.91,573.194 1464.81,573.194 "/>
<path clip-path="url(#clip060)" d="M1352.73 833.542 Q1349.12 833.542 1347.29 837.107 Q1345.49 840.648 1345.49 847.778 Q1345.49 854.884 1347.29 858.449 Q1349.12 861.991 1352.73 861.991 Q1356.37 861.991 1358.17 858.449 Q1360 854.884 1360 847.778 Q1360 840.648 1358.17 837.107 Q1356.37 833.542 1352.73 833.542 M1352.73 829.838 Q1358.54 829.838 1361.6 834.445 Q1364.68 839.028 1364.68 847.778 Q1364.68 856.505 1361.6 861.111 Q1358.54 865.694 1352.73 865.694 Q1346.92 865.694 1343.84 861.111 Q1340.79 856.505 1340.79 847.778 Q1340.79 839.028 1343.84 834.445 Q1346.92 829.838 1352.73 829.838 Z" fill="#000000" fill-rule="nonzero" fill-opacity="1" /><path clip-path="url(#clip060)" d="M1372.89 859.143 L1377.78 859.143 L1377.78 865.023 L1372.89 865.023 L1372.89 859.143 Z" fill="#000000" fill-rule="nonzero" fill-opacity="1" /><path clip-path="url(#clip060)" d="M1397.96 833.542 Q1394.35 833.542 1392.52 837.107 Q1390.72 840.648 1390.72 847.778 Q1390.72 854.884 1392.52 858.449 Q1394.35 861.991 1397.96 861.991 Q1401.6 861.991 1403.4 858.449 Q1405.23 854.884 1405.23 847.778 Q1405.23 840.648 1403.4 837.107 Q1401.6 833.542 1397.96 833.542 M1397.96 829.838 Q1403.77 829.838 1406.83 834.445 Q1409.91 839.028 1409.91 847.778 Q1409.91 856.505 1406.83 861.111 Q1403.77 865.694 1397.96 865.694 Q1392.15 865.694 1389.07 861.111 Q1386.02 856.505 1386.02 847.778 Q1386.02 839.028 1389.07 834.445 Q1392.15 829.838 1397.96 829.838 Z" fill="#000000" fill-rule="nonzero" fill-opacity="1" /><path clip-path="url(#clip060)" d="M1353.38 764.905 Q1349.77 764.905 1347.94 768.469 Q1346.13 772.011 1346.13 779.141 Q1346.13 786.247 1347.94 789.812 Q1349.77 793.353 1353.38 793.353 Q1357.01 793.353 1358.82 789.812 Q1360.65 786.247 1360.65 779.141 Q1360.65 772.011 1358.82 768.469 Q1357.01 764.905 1353.38 764.905 M1353.38 761.201 Q1359.19 761.201 1362.25 765.807 Q1365.32 770.391 1365.32 779.141 Q1365.32 787.867 1362.25 792.474 Q1359.19 797.057 1353.38 797.057 Q1347.57 797.057 1344.49 792.474 Q1341.44 787.867 1341.44 779.141 Q1341.44 770.391 1344.49 765.807 Q1347.57 761.201 1353.38 761.201 Z" fill="#000000" fill-rule="nonzero" fill-opacity="1" /><path clip-path="url(#clip060)" d="M1373.54 790.506 L1378.43 790.506 L1378.43 796.386 L1373.54 796.386 L1373.54 790.506 Z" fill="#000000" fill-rule="nonzero" fill-opacity="1" /><path clip-path="url(#clip060)" d="M1402.78 777.752 Q1406.13 778.469 1408.01 780.738 Q1409.91 783.006 1409.91 786.34 Q1409.91 791.455 1406.39 794.256 Q1402.87 797.057 1396.39 797.057 Q1394.21 797.057 1391.9 796.617 Q1389.61 796.201 1387.15 795.344 L1387.15 790.83 Q1389.1 791.965 1391.41 792.543 Q1393.73 793.122 1396.25 793.122 Q1400.65 793.122 1402.94 791.386 Q1405.26 789.65 1405.26 786.34 Q1405.26 783.284 1403.1 781.571 Q1400.97 779.835 1397.15 779.835 L1393.13 779.835 L1393.13 775.992 L1397.34 775.992 Q1400.79 775.992 1402.62 774.627 Q1404.44 773.238 1404.44 770.645 Q1404.44 767.983 1402.55 766.571 Q1400.67 765.136 1397.15 765.136 Q1395.23 765.136 1393.03 765.553 Q1390.83 765.969 1388.19 766.849 L1388.19 762.682 Q1390.86 761.942 1393.17 761.571 Q1395.51 761.201 1397.57 761.201 Q1402.89 761.201 1406 763.631 Q1409.1 766.039 1409.1 770.159 Q1409.1 773.029 1407.45 775.02 Q1405.81 776.988 1402.78 777.752 Z" fill="#000000" fill-rule="nonzero" fill-opacity="1" /><path clip-path="url(#clip060)" d="M1352.57 696.267 Q1348.96 696.267 1347.13 699.832 Q1345.32 703.374 1345.32 710.503 Q1345.32 717.61 1347.13 721.175 Q1348.96 724.716 1352.57 724.716 Q1356.2 724.716 1358.01 721.175 Q1359.84 717.61 1359.84 710.503 Q1359.84 703.374 1358.01 699.832 Q1356.2 696.267 1352.57 696.267 M1352.57 692.564 Q1358.38 692.564 1361.44 697.17 Q1364.51 701.753 1364.51 710.503 Q1364.51 719.23 1361.44 723.837 Q1358.38 728.42 1352.57 728.42 Q1346.76 728.42 1343.68 723.837 Q1340.63 719.23 1340.63 710.503 Q1340.63 701.753 1343.68 697.17 Q1346.76 692.564 1352.57 692.564 Z" fill="#000000" fill-rule="nonzero" fill-opacity="1" /><path clip-path="url(#clip060)" d="M1372.73 721.869 L1377.62 721.869 L1377.62 727.749 L1372.73 727.749 L1372.73 721.869 Z" fill="#000000" fill-rule="nonzero" fill-opacity="1" /><path clip-path="url(#clip060)" d="M1398.38 708.605 Q1395.23 708.605 1393.38 710.758 Q1391.55 712.911 1391.55 716.661 Q1391.55 720.388 1393.38 722.563 Q1395.23 724.716 1398.38 724.716 Q1401.53 724.716 1403.36 722.563 Q1405.21 720.388 1405.21 716.661 Q1405.21 712.911 1403.36 710.758 Q1401.53 708.605 1398.38 708.605 M1407.66 693.952 L1407.66 698.212 Q1405.9 697.378 1404.1 696.939 Q1402.32 696.499 1400.56 696.499 Q1395.93 696.499 1393.47 699.624 Q1391.04 702.749 1390.69 709.068 Q1392.06 707.054 1394.12 705.989 Q1396.18 704.901 1398.66 704.901 Q1403.87 704.901 1406.88 708.073 Q1409.91 711.221 1409.91 716.661 Q1409.91 721.985 1406.76 725.202 Q1403.61 728.42 1398.38 728.42 Q1392.38 728.42 1389.21 723.837 Q1386.04 719.23 1386.04 710.503 Q1386.04 702.309 1389.93 697.448 Q1393.82 692.564 1400.37 692.564 Q1402.13 692.564 1403.91 692.911 Q1405.72 693.258 1407.66 693.952 Z" fill="#000000" fill-rule="nonzero" fill-opacity="1" /><path clip-path="url(#clip060)" d="M1352.92 627.63 Q1349.31 627.63 1347.48 631.195 Q1345.67 634.736 1345.67 641.866 Q1345.67 648.973 1347.48 652.537 Q1349.31 656.079 1352.92 656.079 Q1356.55 656.079 1358.36 652.537 Q1360.19 648.973 1360.19 641.866 Q1360.19 634.736 1358.36 631.195 Q1356.55 627.63 1352.92 627.63 M1352.92 623.926 Q1358.73 623.926 1361.78 628.533 Q1364.86 633.116 1364.86 641.866 Q1364.86 650.593 1361.78 655.199 Q1358.73 659.783 1352.92 659.783 Q1347.11 659.783 1344.03 655.199 Q1340.97 650.593 1340.97 641.866 Q1340.97 633.116 1344.03 628.533 Q1347.11 623.926 1352.92 623.926 Z" fill="#000000" fill-rule="nonzero" fill-opacity="1" /><path clip-path="url(#clip060)" d="M1373.08 653.232 L1377.96 653.232 L1377.96 659.111 L1373.08 659.111 L1373.08 653.232 Z" fill="#000000" fill-rule="nonzero" fill-opacity="1" /><path clip-path="url(#clip060)" d="M1388.29 658.394 L1388.29 654.135 Q1390.05 654.968 1391.85 655.408 Q1393.66 655.847 1395.39 655.847 Q1400.02 655.847 1402.45 652.746 Q1404.91 649.621 1405.26 643.278 Q1403.91 645.269 1401.85 646.334 Q1399.79 647.398 1397.29 647.398 Q1392.11 647.398 1389.07 644.273 Q1386.07 641.125 1386.07 635.686 Q1386.07 630.362 1389.21 627.144 Q1392.36 623.926 1397.59 623.926 Q1403.59 623.926 1406.74 628.533 Q1409.91 633.116 1409.91 641.866 Q1409.91 650.037 1406.02 654.922 Q1402.15 659.783 1395.6 659.783 Q1393.84 659.783 1392.04 659.435 Q1390.23 659.088 1388.29 658.394 M1397.59 643.741 Q1400.74 643.741 1402.57 641.588 Q1404.42 639.436 1404.42 635.686 Q1404.42 631.959 1402.57 629.806 Q1400.74 627.63 1397.59 627.63 Q1394.44 627.63 1392.59 629.806 Q1390.76 631.959 1390.76 635.686 Q1390.76 639.436 1392.59 641.588 Q1394.44 643.741 1397.59 643.741 Z" fill="#000000" fill-rule="nonzero" fill-opacity="1" /><path clip-path="url(#clip060)" d="M1345.14 586.539 L1352.78 586.539 L1352.78 560.173 L1344.47 561.84 L1344.47 557.581 L1352.73 555.914 L1357.41 555.914 L1357.41 586.539 L1365.05 586.539 L1365.05 590.474 L1345.14 590.474 L1345.14 586.539 Z" fill="#000000" fill-rule="nonzero" fill-opacity="1" /><path clip-path="url(#clip060)" d="M1374.49 584.595 L1379.38 584.595 L1379.38 590.474 L1374.49 590.474 L1374.49 584.595 Z" fill="#000000" fill-rule="nonzero" fill-opacity="1" /><path clip-path="url(#clip060)" d="M1393.59 586.539 L1409.91 586.539 L1409.91 590.474 L1387.96 590.474 L1387.96 586.539 Q1390.63 583.784 1395.21 579.155 Q1399.82 574.502 1401 573.159 Q1403.24 570.636 1404.12 568.9 Q1405.02 567.141 1405.02 565.451 Q1405.02 562.696 1403.08 560.96 Q1401.16 559.224 1398.06 559.224 Q1395.86 559.224 1393.4 559.988 Q1390.97 560.752 1388.19 562.303 L1388.19 557.581 Q1391.02 556.447 1393.47 555.868 Q1395.93 555.289 1397.96 555.289 Q1403.33 555.289 1406.53 557.974 Q1409.72 560.659 1409.72 565.15 Q1409.72 567.28 1408.91 569.201 Q1408.13 571.099 1406.02 573.692 Q1405.44 574.363 1402.34 577.581 Q1399.24 580.775 1393.59 586.539 Z" fill="#000000" fill-rule="nonzero" fill-opacity="1" /><path clip-path="url(#clip060)" d="M1265.64 831.559 Q1268.64 831.559 1274.44 833.072 Q1276.95 833.684 1279.23 834.522 Q1281.49 835.327 1283.68 836.518 Q1285.87 837.71 1287.45 839.095 Q1288.99 840.48 1289.96 842.283 Q1290.92 844.087 1290.92 846.084 Q1290.92 849.24 1289.06 851.108 Q1287.16 852.943 1283.9 853.523 Q1290.92 857.839 1290.92 863.604 Q1290.92 867.178 1288.38 868.853 Q1285.8 870.528 1281.49 870.528 Q1277.85 870.528 1274.08 869.562 Q1266.93 867.726 1261.94 864.151 Q1261.36 863.668 1261.36 862.959 Q1261.36 862.541 1261.49 862.347 Q1261.84 861.768 1262.42 861.768 Q1262.84 861.768 1263.26 862.09 Q1266.38 864.344 1269.06 865.826 Q1271.73 867.307 1274.44 867.984 Q1276.75 868.499 1278.72 868.499 Q1282.04 868.499 1284.1 867.082 Q1286.16 865.632 1286.16 862.766 Q1286.16 860.125 1284.52 857.806 Q1282.84 855.488 1280.04 853.781 Q1276.98 853.684 1274.08 852.943 Q1270.99 852.267 1270.99 850.689 Q1270.99 849.433 1272.7 849.433 Q1273.28 849.433 1274.44 849.691 Q1277.49 850.399 1280.23 851.687 Q1282.91 851.236 1284.55 849.562 Q1286.16 847.887 1286.16 845.214 Q1286.16 842.734 1284.35 840.544 Q1282.55 838.322 1279.91 836.905 Q1277.24 835.456 1274.08 834.65 Q1273.02 834.393 1271.67 834.393 Q1268.06 834.393 1265.84 836.905 Q1265.13 837.613 1264.19 837.613 Q1263.1 837.613 1262.1 836.712 Q1261.04 835.649 1261.04 834.393 Q1261.04 833.459 1261.62 832.879 Q1262.78 831.559 1265.64 831.559 Z" fill="#000000" fill-rule="nonzero" fill-opacity="1" /><path clip-path="url(#clip060)" d="M1240.72 788.989 Q1248.04 793.255 1255.2 795.323 Q1262.37 797.392 1269.72 797.392 Q1277.07 797.392 1284.3 795.323 Q1291.49 793.223 1298.78 788.989 L1298.78 794.082 Q1291.3 798.856 1284.07 801.243 Q1276.85 803.599 1269.72 803.599 Q1262.62 803.599 1255.43 801.243 Q1248.23 798.888 1240.72 794.082 L1240.72 788.989 Z" fill="#000000" fill-rule="nonzero" fill-opacity="1" /><path clip-path="url(#clip060)" d="M1260.01 756.97 Q1259.44 757.957 1259.18 759.134 Q1258.9 760.28 1258.9 761.681 Q1258.9 766.646 1262.14 769.319 Q1265.36 771.961 1271.41 771.961 L1290.18 771.961 L1290.18 777.85 L1254.54 777.85 L1254.54 771.961 L1260.07 771.961 Q1256.83 770.115 1255.27 767.155 Q1253.68 764.195 1253.68 759.962 Q1253.68 759.357 1253.77 758.625 Q1253.84 757.893 1254 757.002 L1260.01 756.97 Z" fill="#000000" fill-rule="nonzero" fill-opacity="1" /><path clip-path="url(#clip060)" d="M1272.26 734.626 Q1272.26 741.724 1273.89 744.461 Q1275.51 747.199 1279.43 747.199 Q1282.55 747.199 1284.39 745.162 Q1286.21 743.093 1286.21 739.56 Q1286.21 734.69 1282.77 731.762 Q1279.3 728.802 1273.57 728.802 L1272.26 728.802 L1272.26 734.626 M1269.85 722.945 L1290.18 722.945 L1290.18 728.802 L1284.77 728.802 Q1288.02 730.807 1289.58 733.799 Q1291.11 736.791 1291.11 741.119 Q1291.11 746.594 1288.05 749.84 Q1284.96 753.055 1279.81 753.055 Q1273.79 753.055 1270.74 749.045 Q1267.68 745.002 1267.68 737.013 L1267.68 728.802 L1267.11 728.802 Q1263.07 728.802 1260.87 731.475 Q1258.64 734.117 1258.64 738.923 Q1258.64 741.979 1259.37 744.875 Q1260.11 747.772 1261.57 750.445 L1256.16 750.445 Q1254.92 747.23 1254.31 744.207 Q1253.68 741.183 1253.68 738.318 Q1253.68 730.584 1257.69 726.765 Q1261.7 722.945 1269.85 722.945 Z" fill="#000000" fill-rule="nonzero" fill-opacity="1" /><path clip-path="url(#clip060)" d="M1259.95 687.425 L1240.66 687.425 L1240.66 681.568 L1290.18 681.568 L1290.18 687.425 L1284.84 687.425 Q1288.02 689.271 1289.58 692.103 Q1291.11 694.904 1291.11 698.851 Q1291.11 705.312 1285.95 709.386 Q1280.79 713.429 1272.39 713.429 Q1263.99 713.429 1258.83 709.386 Q1253.68 705.312 1253.68 698.851 Q1253.68 694.904 1255.24 692.103 Q1256.76 689.271 1259.95 687.425 M1272.39 707.381 Q1278.85 707.381 1282.55 704.739 Q1286.21 702.066 1286.21 697.419 Q1286.21 692.772 1282.55 690.098 Q1278.85 687.425 1272.39 687.425 Q1265.93 687.425 1262.27 690.098 Q1258.58 692.772 1258.58 697.419 Q1258.58 702.066 1262.27 704.739 Q1265.93 707.381 1272.39 707.381 Z" fill="#000000" fill-rule="nonzero" fill-opacity="1" /><path clip-path="url(#clip060)" d="M1242.66 659.097 L1242.66 653.686 L1296.23 670.237 L1296.23 675.648 L1242.66 659.097 Z" fill="#000000" fill-rule="nonzero" fill-opacity="1" /><path clip-path="url(#clip060)" d="M1255.59 624.818 L1261.12 624.818 Q1259.85 627.301 1259.21 629.974 Q1258.58 632.648 1258.58 635.512 Q1258.58 639.873 1259.92 642.069 Q1261.25 644.233 1263.93 644.233 Q1265.96 644.233 1267.14 642.674 Q1268.29 641.114 1269.34 636.404 L1269.78 634.398 Q1271.12 628.16 1273.57 625.55 Q1275.99 622.908 1280.35 622.908 Q1285.31 622.908 1288.21 626.855 Q1291.11 630.77 1291.11 637.645 Q1291.11 640.509 1290.53 643.629 Q1289.99 646.716 1288.88 650.153 L1282.83 650.153 Q1284.52 646.907 1285.38 643.756 Q1286.21 640.605 1286.21 637.517 Q1286.21 633.38 1284.81 631.152 Q1283.37 628.924 1280.79 628.924 Q1278.41 628.924 1277.13 630.547 Q1275.86 632.138 1274.68 637.581 L1274.21 639.618 Q1273.06 645.061 1270.71 647.48 Q1268.32 649.899 1264.18 649.899 Q1259.15 649.899 1256.41 646.334 Q1253.68 642.769 1253.68 636.213 Q1253.68 632.966 1254.15 630.101 Q1254.63 627.237 1255.59 624.818 Z" fill="#000000" fill-rule="nonzero" fill-opacity="1" /><path clip-path="url(#clip060)" d="M1240.72 614.505 L1240.72 609.413 Q1248.23 604.639 1255.43 602.283 Q1262.62 599.896 1269.72 599.896 Q1276.85 599.896 1284.07 602.283 Q1291.3 604.639 1298.78 609.413 L1298.78 614.505 Q1291.49 610.272 1284.3 608.203 Q1277.07 606.103 1269.72 606.103 Q1262.37 606.103 1255.2 608.203 Q1248.04 610.272 1240.72 614.505 Z" fill="#000000" fill-rule="nonzero" fill-opacity="1" /><polyline clip-path="url(#clip064)" style="stroke:#009af9; stroke-linecap:round; stroke-linejoin:round; stroke-width:4; stroke-opacity:1; fill:none" points="1471.57,847.743 1496.74,667.609 1521.9,592.272 1547.06,594.269 1572.22,641.806 1597.38,707.18 1622.55,771.05 1647.71,822.718 1672.87,858.231 1698.03,878.035 1723.2,884.994 1748.36,882.954 1773.52,875.751 1798.68,866.605 1823.85,857.825 1849.01,850.766 1874.17,845.963 1899.33,843.355 1924.49,842.528 1949.66,842.922 1974.82,843.988 1999.98,845.279 2025.14,846.485 2050.31,847.432 2075.47,848.06 2100.63,848.386 2125.79,848.474 2150.95,848.403 2176.12,848.246 2201.28,848.065 2226.44,847.9 2251.6,847.773 2276.77,847.691 2301.93,847.65 2327.09,847.641 "/>
<polyline clip-path="url(#clip064)" style="stroke:#e26f46; stroke-linecap:round; stroke-linejoin:round; stroke-width:3; stroke-opacity:1; fill:none" stroke-dasharray="12, 6, 2, 6" points="1471.57,847.743 1496.74,686.066 1521.9,618.235 1547.06,569.435 1572.22,649.295 1597.38,708.496 1622.55,767.494 1647.71,832.373 1672.87,866.117 1698.03,900.989 1723.2,900.643 1748.36,894.278 1773.52,892.711 1798.68,867.072 1823.85,862.35 1849.01,859.768 1874.17,841.71 1899.33,850.13 1924.49,846.855 1949.66,837.196 1974.82,845.947 1999.98,851.227 2025.14,850.601 2050.31,841.563 2075.47,851.251 2100.63,851.971 2125.79,836.681 2150.95,837.414 2176.12,853.783 2201.28,859.066 2226.44,845.695 2251.6,840.526 2276.77,838.381 2301.93,856.723 2327.09,853.915 "/>
<path clip-path="url(#clip060)" d="M2203.01 726.723 L2322.53 726.723 L2322.53 571.203 L2203.01 571.203  Z" fill="#ffffff" fill-rule="evenodd" fill-opacity="1"/>
<polyline clip-path="url(#clip060)" style="stroke:#000000; stroke-linecap:round; stroke-linejoin:round; stroke-width:4; stroke-opacity:1; fill:none" points="2203.01,726.723 2322.53,726.723 2322.53,571.203 2203.01,571.203 2203.01,726.723 "/>
<polyline clip-path="url(#clip060)" style="stroke:#009af9; stroke-linecap:round; stroke-linejoin:round; stroke-width:4; stroke-opacity:1; fill:none" points="2213.09,623.043 2273.55,623.043 "/>
<path clip-path="url(#clip060)" d="M2310.63 633.582 L2305.36 633.442 L2299.6 633.582 L2299.6 631.334 L2301.47 631.334 L2296.2 625.103 L2291.54 630.326 L2291.21 630.795 Q2291.21 631.006 2291.75 631.17 Q2292.31 631.334 2292.97 631.334 L2292.97 633.582 L2288.03 633.442 L2283.62 633.582 L2283.62 631.334 Q2285.1 631.334 2285.78 631.31 Q2286.48 631.263 2287.28 631.052 Q2288.07 630.842 2288.47 630.42 L2294.75 623.37 L2287.28 614.54 L2283.86 614.54 L2283.86 612.291 L2289.15 612.432 L2294.94 612.291 L2294.94 614.54 L2293.01 614.54 L2297.72 620.044 L2301.75 615.547 Q2301.77 615.523 2302.15 614.961 Q2301.4 614.54 2300.32 614.54 L2300.32 612.291 L2305.26 612.432 L2309.67 612.291 L2309.67 614.54 Q2307.75 614.54 2306.74 614.68 Q2305.76 614.797 2305.45 614.961 Q2305.17 615.125 2304.77 615.547 L2299.17 621.777 L2307.23 631.334 L2310.63 631.334 L2310.63 633.582 Z" fill="#000000" fill-rule="nonzero" fill-opacity="1" /><polyline clip-path="url(#clip060)" style="stroke:#e26f46; stroke-linecap:round; stroke-linejoin:round; stroke-width:3; stroke-opacity:1; fill:none" stroke-dasharray="12, 6, 2, 6" points="2213.09,674.883 2273.55,674.883 "/>
<path clip-path="url(#clip060)" d="M2306.21 663.361 L2305.8 664.033 Q2303.26 662.935 2300.09 661.18 Q2296.93 662.935 2294.39 664.033 L2293.99 663.361 Q2296.76 660.951 2300.09 659.098 Q2303.45 660.967 2306.21 663.361 Z" fill="#000000" fill-rule="nonzero" fill-opacity="1" /><path clip-path="url(#clip060)" d="M2310.63 690.427 L2305.36 690.286 L2299.6 690.427 L2299.6 688.178 L2301.47 688.178 L2296.2 681.948 L2291.54 687.171 L2291.21 687.639 Q2291.21 687.85 2291.75 688.014 Q2292.31 688.178 2292.97 688.178 L2292.97 690.427 L2288.03 690.286 L2283.62 690.427 L2283.62 688.178 Q2285.1 688.178 2285.78 688.155 Q2286.48 688.108 2287.28 687.897 Q2288.07 687.686 2288.47 687.265 L2294.75 680.214 L2287.28 671.384 L2283.86 671.384 L2283.86 669.136 L2289.15 669.276 L2294.94 669.136 L2294.94 671.384 L2293.01 671.384 L2297.72 676.888 L2301.75 672.391 Q2301.77 672.368 2302.15 671.806 Q2301.4 671.384 2300.32 671.384 L2300.32 669.136 L2305.26 669.276 L2309.67 669.136 L2309.67 671.384 Q2307.75 671.384 2306.74 671.525 Q2305.76 671.642 2305.45 671.806 Q2305.17 671.97 2304.77 672.391 L2299.17 678.622 L2307.23 688.178 L2310.63 688.178 L2310.63 690.427 Z" fill="#000000" fill-rule="nonzero" fill-opacity="1" /><path clip-path="url(#clip060)" d="M1445.91 1423.18 L2352.76 1423.18 L2352.76 1071.73 L1445.91 1071.73  Z" fill="#ffffff" fill-rule="evenodd" fill-opacity="1"/>
<defs>
  <clipPath id="clip065">
    <rect x="1445" y="1071" width="908" height="352"/>
  </clipPath>
</defs>
<polyline clip-path="url(#clip065)" style="stroke:#000000; stroke-linecap:round; stroke-linejoin:round; stroke-width:2; stroke-opacity:0.1; fill:none" points="1471.57,1423.18 1471.57,1071.73 "/>
<polyline clip-path="url(#clip065)" style="stroke:#000000; stroke-linecap:round; stroke-linejoin:round; stroke-width:2; stroke-opacity:0.1; fill:none" points="1723.2,1423.18 1723.2,1071.73 "/>
<polyline clip-path="url(#clip065)" style="stroke:#000000; stroke-linecap:round; stroke-linejoin:round; stroke-width:2; stroke-opacity:0.1; fill:none" points="1974.82,1423.18 1974.82,1071.73 "/>
<polyline clip-path="url(#clip065)" style="stroke:#000000; stroke-linecap:round; stroke-linejoin:round; stroke-width:2; stroke-opacity:0.1; fill:none" points="2226.44,1423.18 2226.44,1071.73 "/>
<polyline clip-path="url(#clip065)" style="stroke:#000000; stroke-linecap:round; stroke-linejoin:round; stroke-width:2; stroke-opacity:0.1; fill:none" points="1445.91,1369.73 2352.76,1369.73 "/>
<polyline clip-path="url(#clip065)" style="stroke:#000000; stroke-linecap:round; stroke-linejoin:round; stroke-width:2; stroke-opacity:0.1; fill:none" points="1445.91,1282.22 2352.76,1282.22 "/>
<polyline clip-path="url(#clip065)" style="stroke:#000000; stroke-linecap:round; stroke-linejoin:round; stroke-width:2; stroke-opacity:0.1; fill:none" points="1445.91,1194.72 2352.76,1194.72 "/>
<polyline clip-path="url(#clip065)" style="stroke:#000000; stroke-linecap:round; stroke-linejoin:round; stroke-width:2; stroke-opacity:0.1; fill:none" points="1445.91,1107.21 2352.76,1107.21 "/>
<polyline clip-path="url(#clip060)" style="stroke:#000000; stroke-linecap:round; stroke-linejoin:round; stroke-width:4; stroke-opacity:1; fill:none" points="1445.91,1423.18 2352.76,1423.18 "/>
<polyline clip-path="url(#clip060)" style="stroke:#000000; stroke-linecap:round; stroke-linejoin:round; stroke-width:4; stroke-opacity:1; fill:none" points="1471.57,1423.18 1471.57,1404.28 "/>
<polyline clip-path="url(#clip060)" style="stroke:#000000; stroke-linecap:round; stroke-linejoin:round; stroke-width:4; stroke-opacity:1; fill:none" points="1723.2,1423.18 1723.2,1404.28 "/>
<polyline clip-path="url(#clip060)" style="stroke:#000000; stroke-linecap:round; stroke-linejoin:round; stroke-width:4; stroke-opacity:1; fill:none" points="1974.82,1423.18 1974.82,1404.28 "/>
<polyline clip-path="url(#clip060)" style="stroke:#000000; stroke-linecap:round; stroke-linejoin:round; stroke-width:4; stroke-opacity:1; fill:none" points="2226.44,1423.18 2226.44,1404.28 "/>
<path clip-path="url(#clip060)" d="M1471.57 1454.1 Q1467.96 1454.1 1466.13 1457.66 Q1464.33 1461.2 1464.33 1468.33 Q1464.33 1475.44 1466.13 1479.01 Q1467.96 1482.55 1471.57 1482.55 Q1475.21 1482.55 1477.01 1479.01 Q1478.84 1475.44 1478.84 1468.33 Q1478.84 1461.2 1477.01 1457.66 Q1475.21 1454.1 1471.57 1454.1 M1471.57 1450.39 Q1477.38 1450.39 1480.44 1455 Q1483.52 1459.58 1483.52 1468.33 Q1483.52 1477.06 1480.44 1481.67 Q1477.38 1486.25 1471.57 1486.25 Q1465.76 1486.25 1462.68 1481.67 Q1459.63 1477.06 1459.63 1468.33 Q1459.63 1459.58 1462.68 1455 Q1465.76 1450.39 1471.57 1450.39 Z" fill="#000000" fill-rule="nonzero" fill-opacity="1" /><path clip-path="url(#clip060)" d="M1713.58 1481.64 L1721.22 1481.64 L1721.22 1455.28 L1712.91 1456.95 L1712.91 1452.69 L1721.17 1451.02 L1725.85 1451.02 L1725.85 1481.64 L1733.49 1481.64 L1733.49 1485.58 L1713.58 1485.58 L1713.58 1481.64 Z" fill="#000000" fill-rule="nonzero" fill-opacity="1" /><path clip-path="url(#clip060)" d="M1969.47 1481.64 L1985.79 1481.64 L1985.79 1485.58 L1963.85 1485.58 L1963.85 1481.64 Q1966.51 1478.89 1971.09 1474.26 Q1975.7 1469.61 1976.88 1468.27 Q1979.12 1465.74 1980 1464.01 Q1980.91 1462.25 1980.91 1460.56 Q1980.91 1457.8 1978.96 1456.07 Q1977.04 1454.33 1973.94 1454.33 Q1971.74 1454.33 1969.29 1455.09 Q1966.86 1455.86 1964.08 1457.41 L1964.08 1452.69 Q1966.9 1451.55 1969.36 1450.97 Q1971.81 1450.39 1973.85 1450.39 Q1979.22 1450.39 1982.41 1453.08 Q1985.61 1455.77 1985.61 1460.26 Q1985.61 1462.39 1984.8 1464.31 Q1984.01 1466.2 1981.9 1468.8 Q1981.32 1469.47 1978.22 1472.69 Q1975.12 1475.88 1969.47 1481.64 Z" fill="#000000" fill-rule="nonzero" fill-opacity="1" /><path clip-path="url(#clip060)" d="M2230.69 1466.95 Q2234.05 1467.66 2235.92 1469.93 Q2237.82 1472.2 2237.82 1475.53 Q2237.82 1480.65 2234.3 1483.45 Q2230.78 1486.25 2224.3 1486.25 Q2222.12 1486.25 2219.81 1485.81 Q2217.52 1485.39 2215.06 1484.54 L2215.06 1480.02 Q2217.01 1481.16 2219.32 1481.74 Q2221.64 1482.32 2224.16 1482.32 Q2228.56 1482.32 2230.85 1480.58 Q2233.17 1478.84 2233.17 1475.53 Q2233.17 1472.48 2231.01 1470.77 Q2228.88 1469.03 2225.06 1469.03 L2221.04 1469.03 L2221.04 1465.19 L2225.25 1465.19 Q2228.7 1465.19 2230.53 1463.82 Q2232.36 1462.43 2232.36 1459.84 Q2232.36 1457.18 2230.46 1455.77 Q2228.58 1454.33 2225.06 1454.33 Q2223.14 1454.33 2220.94 1454.75 Q2218.74 1455.16 2216.11 1456.04 L2216.11 1451.88 Q2218.77 1451.14 2221.08 1450.77 Q2223.42 1450.39 2225.48 1450.39 Q2230.8 1450.39 2233.91 1452.83 Q2237.01 1455.23 2237.01 1459.35 Q2237.01 1462.22 2235.36 1464.21 Q2233.72 1466.18 2230.69 1466.95 Z" fill="#000000" fill-rule="nonzero" fill-opacity="1" /><path clip-path="url(#clip060)" d="M1769.5 1520.52 L1809.7 1520.52 L1809.7 1525.93 L1792.83 1525.93 L1792.83 1568.04 L1786.37 1568.04 L1786.37 1525.93 L1769.5 1525.93 L1769.5 1520.52 Z" fill="#000000" fill-rule="nonzero" fill-opacity="1" /><path clip-path="url(#clip060)" d="M1813.65 1532.4 L1819.51 1532.4 L1819.51 1568.04 L1813.65 1568.04 L1813.65 1532.4 M1813.65 1518.52 L1819.51 1518.52 L1819.51 1525.93 L1813.65 1525.93 L1813.65 1518.52 Z" fill="#000000" fill-rule="nonzero" fill-opacity="1" /><path clip-path="url(#clip060)" d="M1859.51 1539.24 Q1861.71 1535.29 1864.77 1533.41 Q1867.82 1531.54 1871.96 1531.54 Q1877.53 1531.54 1880.55 1535.45 Q1883.58 1539.33 1883.58 1546.53 L1883.58 1568.04 L1877.69 1568.04 L1877.69 1546.72 Q1877.69 1541.59 1875.87 1539.11 Q1874.06 1536.63 1870.34 1536.63 Q1865.78 1536.63 1863.14 1539.65 Q1860.5 1542.68 1860.5 1547.9 L1860.5 1568.04 L1854.61 1568.04 L1854.61 1546.72 Q1854.61 1541.56 1852.8 1539.11 Q1850.98 1536.63 1847.2 1536.63 Q1842.71 1536.63 1840.07 1539.68 Q1837.43 1542.71 1837.43 1547.9 L1837.43 1568.04 L1831.54 1568.04 L1831.54 1532.4 L1837.43 1532.4 L1837.43 1537.93 Q1839.43 1534.66 1842.23 1533.1 Q1845.03 1531.54 1848.88 1531.54 Q1852.77 1531.54 1855.47 1533.51 Q1858.21 1535.48 1859.51 1539.24 Z" fill="#000000" fill-rule="nonzero" fill-opacity="1" /><path clip-path="url(#clip060)" d="M1925.75 1548.76 L1925.75 1551.62 L1898.82 1551.62 Q1899.2 1557.67 1902.45 1560.85 Q1905.73 1564 1911.55 1564 Q1914.93 1564 1918.08 1563.17 Q1921.26 1562.35 1924.38 1560.69 L1924.38 1566.23 Q1921.23 1567.57 1917.92 1568.27 Q1914.61 1568.97 1911.2 1568.97 Q1902.67 1568.97 1897.68 1564 Q1892.71 1559.04 1892.71 1550.57 Q1892.71 1541.82 1897.42 1536.69 Q1902.16 1531.54 1910.19 1531.54 Q1917.38 1531.54 1921.55 1536.18 Q1925.75 1540.8 1925.75 1548.76 M1919.89 1547.04 Q1919.83 1542.23 1917.19 1539.37 Q1914.58 1536.5 1910.25 1536.5 Q1905.35 1536.5 1902.39 1539.27 Q1899.46 1542.04 1899.01 1547.07 L1919.89 1547.04 Z" fill="#000000" fill-rule="nonzero" fill-opacity="1" /><path clip-path="url(#clip060)" d="M1970.15 1518.58 Q1965.89 1525.9 1963.82 1533.06 Q1961.75 1540.23 1961.75 1547.58 Q1961.75 1554.93 1963.82 1562.16 Q1965.92 1569.35 1970.15 1576.64 L1965.06 1576.64 Q1960.28 1569.16 1957.9 1561.93 Q1955.54 1554.71 1955.54 1547.58 Q1955.54 1540.48 1957.9 1533.29 Q1960.25 1526.09 1965.06 1518.58 L1970.15 1518.58 Z" fill="#000000" fill-rule="nonzero" fill-opacity="1" /><path clip-path="url(#clip060)" d="M2004.24 1533.45 L2004.24 1538.98 Q2001.76 1537.71 1999.08 1537.07 Q1996.41 1536.44 1993.54 1536.44 Q1989.18 1536.44 1986.99 1537.77 Q1984.82 1539.11 1984.82 1541.79 Q1984.82 1543.82 1986.38 1545 Q1987.94 1546.15 1992.65 1547.2 L1994.66 1547.64 Q2000.9 1548.98 2003.51 1551.43 Q2006.15 1553.85 2006.15 1558.21 Q2006.15 1563.17 2002.2 1566.07 Q1998.29 1568.97 1991.41 1568.97 Q1988.55 1568.97 1985.43 1568.39 Q1982.34 1567.85 1978.9 1566.74 L1978.9 1560.69 Q1982.15 1562.38 1985.3 1563.24 Q1988.45 1564.07 1991.54 1564.07 Q1995.68 1564.07 1997.9 1562.66 Q2000.13 1561.23 2000.13 1558.65 Q2000.13 1556.27 1998.51 1554.99 Q1996.92 1553.72 1991.48 1552.54 L1989.44 1552.07 Q1984 1550.92 1981.58 1548.56 Q1979.16 1546.18 1979.16 1542.04 Q1979.16 1537.01 1982.72 1534.27 Q1986.29 1531.54 1992.84 1531.54 Q1996.09 1531.54 1998.96 1532.01 Q2001.82 1532.49 2004.24 1533.45 Z" fill="#000000" fill-rule="nonzero" fill-opacity="1" /><path clip-path="url(#clip060)" d="M2014.55 1518.58 L2019.64 1518.58 Q2024.42 1526.09 2026.77 1533.29 Q2029.16 1540.48 2029.16 1547.58 Q2029.16 1554.71 2026.77 1561.93 Q2024.42 1569.16 2019.64 1576.64 L2014.55 1576.64 Q2018.78 1569.35 2020.85 1562.16 Q2022.95 1554.93 2022.95 1547.58 Q2022.95 1540.23 2020.85 1533.06 Q2018.78 1525.9 2014.55 1518.58 Z" fill="#000000" fill-rule="nonzero" fill-opacity="1" /><polyline clip-path="url(#clip060)" style="stroke:#000000; stroke-linecap:round; stroke-linejoin:round; stroke-width:4; stroke-opacity:1; fill:none" points="1445.91,1423.18 1445.91,1071.73 "/>
<polyline clip-path="url(#clip060)" style="stroke:#000000; stroke-linecap:round; stroke-linejoin:round; stroke-width:4; stroke-opacity:1; fill:none" points="1445.91,1369.73 1464.81,1369.73 "/>
<polyline clip-path="url(#clip060)" style="stroke:#000000; stroke-linecap:round; stroke-linejoin:round; stroke-width:4; stroke-opacity:1; fill:none" points="1445.91,1282.22 1464.81,1282.22 "/>
<polyline clip-path="url(#clip060)" style="stroke:#000000; stroke-linecap:round; stroke-linejoin:round; stroke-width:4; stroke-opacity:1; fill:none" points="1445.91,1194.72 1464.81,1194.72 "/>
<polyline clip-path="url(#clip060)" style="stroke:#000000; stroke-linecap:round; stroke-linejoin:round; stroke-width:4; stroke-opacity:1; fill:none" points="1445.91,1107.21 1464.81,1107.21 "/>
<path clip-path="url(#clip060)" d="M1272.64 1370.18 L1302.32 1370.18 L1302.32 1374.12 L1272.64 1374.12 L1272.64 1370.18 Z" fill="#000000" fill-rule="nonzero" fill-opacity="1" /><path clip-path="url(#clip060)" d="M1322.41 1355.53 Q1318.8 1355.53 1316.97 1359.09 Q1315.16 1362.63 1315.16 1369.76 Q1315.16 1376.87 1316.97 1380.44 Q1318.8 1383.98 1322.41 1383.98 Q1326.04 1383.98 1327.85 1380.44 Q1329.68 1376.87 1329.68 1369.76 Q1329.68 1362.63 1327.85 1359.09 Q1326.04 1355.53 1322.41 1355.53 M1322.41 1351.82 Q1328.22 1351.82 1331.27 1356.43 Q1334.35 1361.01 1334.35 1369.76 Q1334.35 1378.49 1331.27 1383.1 Q1328.22 1387.68 1322.41 1387.68 Q1316.6 1387.68 1313.52 1383.1 Q1310.46 1378.49 1310.46 1369.76 Q1310.46 1361.01 1313.52 1356.43 Q1316.6 1351.82 1322.41 1351.82 Z" fill="#000000" fill-rule="nonzero" fill-opacity="1" /><path clip-path="url(#clip060)" d="M1342.57 1381.13 L1347.45 1381.13 L1347.45 1387.01 L1342.57 1387.01 L1342.57 1381.13 Z" fill="#000000" fill-rule="nonzero" fill-opacity="1" /><path clip-path="url(#clip060)" d="M1367.64 1355.53 Q1364.03 1355.53 1362.2 1359.09 Q1360.39 1362.63 1360.39 1369.76 Q1360.39 1376.87 1362.2 1380.44 Q1364.03 1383.98 1367.64 1383.98 Q1371.27 1383.98 1373.08 1380.44 Q1374.91 1376.87 1374.91 1369.76 Q1374.91 1362.63 1373.08 1359.09 Q1371.27 1355.53 1367.64 1355.53 M1367.64 1351.82 Q1373.45 1351.82 1376.51 1356.43 Q1379.58 1361.01 1379.58 1369.76 Q1379.58 1378.49 1376.51 1383.1 Q1373.45 1387.68 1367.64 1387.68 Q1361.83 1387.68 1358.75 1383.1 Q1355.7 1378.49 1355.7 1369.76 Q1355.7 1361.01 1358.75 1356.43 Q1361.83 1351.82 1367.64 1351.82 Z" fill="#000000" fill-rule="nonzero" fill-opacity="1" /><path clip-path="url(#clip060)" d="M1398.38 1367.87 Q1395.23 1367.87 1393.38 1370.02 Q1391.55 1372.17 1391.55 1375.92 Q1391.55 1379.65 1393.38 1381.82 Q1395.23 1383.98 1398.38 1383.98 Q1401.53 1383.98 1403.36 1381.82 Q1405.21 1379.65 1405.21 1375.92 Q1405.21 1372.17 1403.36 1370.02 Q1401.53 1367.87 1398.38 1367.87 M1407.66 1353.21 L1407.66 1357.47 Q1405.9 1356.64 1404.1 1356.2 Q1402.32 1355.76 1400.56 1355.76 Q1395.93 1355.76 1393.47 1358.88 Q1391.04 1362.01 1390.69 1368.33 Q1392.06 1366.32 1394.12 1365.25 Q1396.18 1364.16 1398.66 1364.16 Q1403.87 1364.16 1406.88 1367.33 Q1409.91 1370.48 1409.91 1375.92 Q1409.91 1381.25 1406.76 1384.46 Q1403.61 1387.68 1398.38 1387.68 Q1392.38 1387.68 1389.21 1383.1 Q1386.04 1378.49 1386.04 1369.76 Q1386.04 1361.57 1389.93 1356.71 Q1393.82 1351.82 1400.37 1351.82 Q1402.13 1351.82 1403.91 1352.17 Q1405.72 1352.52 1407.66 1353.21 Z" fill="#000000" fill-rule="nonzero" fill-opacity="1" /><path clip-path="url(#clip060)" d="M1272.32 1282.68 L1301.99 1282.68 L1301.99 1286.61 L1272.32 1286.61 L1272.32 1282.68 Z" fill="#000000" fill-rule="nonzero" fill-opacity="1" /><path clip-path="url(#clip060)" d="M1322.08 1268.02 Q1318.47 1268.02 1316.64 1271.59 Q1314.84 1275.13 1314.84 1282.26 Q1314.84 1289.37 1316.64 1292.93 Q1318.47 1296.47 1322.08 1296.47 Q1325.72 1296.47 1327.52 1292.93 Q1329.35 1289.37 1329.35 1282.26 Q1329.35 1275.13 1327.52 1271.59 Q1325.72 1268.02 1322.08 1268.02 M1322.08 1264.32 Q1327.89 1264.32 1330.95 1268.93 Q1334.03 1273.51 1334.03 1282.26 Q1334.03 1290.99 1330.95 1295.59 Q1327.89 1300.18 1322.08 1300.18 Q1316.27 1300.18 1313.2 1295.59 Q1310.14 1290.99 1310.14 1282.26 Q1310.14 1273.51 1313.2 1268.93 Q1316.27 1264.32 1322.08 1264.32 Z" fill="#000000" fill-rule="nonzero" fill-opacity="1" /><path clip-path="url(#clip060)" d="M1342.25 1293.62 L1347.13 1293.62 L1347.13 1299.5 L1342.25 1299.5 L1342.25 1293.62 Z" fill="#000000" fill-rule="nonzero" fill-opacity="1" /><path clip-path="url(#clip060)" d="M1367.32 1268.02 Q1363.7 1268.02 1361.88 1271.59 Q1360.07 1275.13 1360.07 1282.26 Q1360.07 1289.37 1361.88 1292.93 Q1363.7 1296.47 1367.32 1296.47 Q1370.95 1296.47 1372.76 1292.93 Q1374.58 1289.37 1374.58 1282.26 Q1374.58 1275.13 1372.76 1271.59 Q1370.95 1268.02 1367.32 1268.02 M1367.32 1264.32 Q1373.13 1264.32 1376.18 1268.93 Q1379.26 1273.51 1379.26 1282.26 Q1379.26 1290.99 1376.18 1295.59 Q1373.13 1300.18 1367.32 1300.18 Q1361.51 1300.18 1358.43 1295.59 Q1355.37 1290.99 1355.37 1282.26 Q1355.37 1273.51 1358.43 1268.93 Q1361.51 1264.32 1367.32 1264.32 Z" fill="#000000" fill-rule="nonzero" fill-opacity="1" /><path clip-path="url(#clip060)" d="M1400.32 1269.02 L1388.52 1287.47 L1400.32 1287.47 L1400.32 1269.02 M1399.1 1264.94 L1404.98 1264.94 L1404.98 1287.47 L1409.91 1287.47 L1409.91 1291.36 L1404.98 1291.36 L1404.98 1299.5 L1400.32 1299.5 L1400.32 1291.36 L1384.72 1291.36 L1384.72 1286.84 L1399.1 1264.94 Z" fill="#000000" fill-rule="nonzero" fill-opacity="1" /><path clip-path="url(#clip060)" d="M1274.4 1195.17 L1304.08 1195.17 L1304.08 1199.11 L1274.4 1199.11 L1274.4 1195.17 Z" fill="#000000" fill-rule="nonzero" fill-opacity="1" /><path clip-path="url(#clip060)" d="M1324.17 1180.52 Q1320.56 1180.52 1318.73 1184.08 Q1316.92 1187.62 1316.92 1194.75 Q1316.92 1201.86 1318.73 1205.43 Q1320.56 1208.97 1324.17 1208.97 Q1327.8 1208.97 1329.61 1205.43 Q1331.44 1201.86 1331.44 1194.75 Q1331.44 1187.62 1329.61 1184.08 Q1327.8 1180.52 1324.17 1180.52 M1324.17 1176.81 Q1329.98 1176.81 1333.03 1181.42 Q1336.11 1186 1336.11 1194.75 Q1336.11 1203.48 1333.03 1208.09 Q1329.98 1212.67 1324.17 1212.67 Q1318.36 1212.67 1315.28 1208.09 Q1312.22 1203.48 1312.22 1194.75 Q1312.22 1186 1315.28 1181.42 Q1318.36 1176.81 1324.17 1176.81 Z" fill="#000000" fill-rule="nonzero" fill-opacity="1" /><path clip-path="url(#clip060)" d="M1344.33 1206.12 L1349.21 1206.12 L1349.21 1212 L1344.33 1212 L1344.33 1206.12 Z" fill="#000000" fill-rule="nonzero" fill-opacity="1" /><path clip-path="url(#clip060)" d="M1369.4 1180.52 Q1365.79 1180.52 1363.96 1184.08 Q1362.15 1187.62 1362.15 1194.75 Q1362.15 1201.86 1363.96 1205.43 Q1365.79 1208.97 1369.4 1208.97 Q1373.03 1208.97 1374.84 1205.43 Q1376.67 1201.86 1376.67 1194.75 Q1376.67 1187.62 1374.84 1184.08 Q1373.03 1180.52 1369.4 1180.52 M1369.4 1176.81 Q1375.21 1176.81 1378.26 1181.42 Q1381.34 1186 1381.34 1194.75 Q1381.34 1203.48 1378.26 1208.09 Q1375.21 1212.67 1369.4 1212.67 Q1363.59 1212.67 1360.51 1208.09 Q1357.45 1203.48 1357.45 1194.75 Q1357.45 1186 1360.51 1181.42 Q1363.59 1176.81 1369.4 1176.81 Z" fill="#000000" fill-rule="nonzero" fill-opacity="1" /><path clip-path="url(#clip060)" d="M1393.59 1208.06 L1409.91 1208.06 L1409.91 1212 L1387.96 1212 L1387.96 1208.06 Q1390.63 1205.31 1395.21 1200.68 Q1399.82 1196.03 1401 1194.68 Q1403.24 1192.16 1404.12 1190.43 Q1405.02 1188.67 1405.02 1186.98 Q1405.02 1184.22 1403.08 1182.49 Q1401.16 1180.75 1398.06 1180.75 Q1395.86 1180.75 1393.4 1181.51 Q1390.97 1182.28 1388.19 1183.83 L1388.19 1179.11 Q1391.02 1177.97 1393.47 1177.39 Q1395.93 1176.81 1397.96 1176.81 Q1403.33 1176.81 1406.53 1179.5 Q1409.72 1182.18 1409.72 1186.68 Q1409.72 1188.8 1408.91 1190.73 Q1408.13 1192.62 1406.02 1195.22 Q1405.44 1195.89 1402.34 1199.11 Q1399.24 1202.3 1393.59 1208.06 Z" fill="#000000" fill-rule="nonzero" fill-opacity="1" /><path clip-path="url(#clip060)" d="M1322.57 1093.01 Q1318.96 1093.01 1317.13 1096.58 Q1315.32 1100.12 1315.32 1107.25 Q1315.32 1114.36 1317.13 1117.92 Q1318.96 1121.46 1322.57 1121.46 Q1326.2 1121.46 1328.01 1117.92 Q1329.84 1114.36 1329.84 1107.25 Q1329.84 1100.12 1328.01 1096.58 Q1326.2 1093.01 1322.57 1093.01 M1322.57 1089.31 Q1328.38 1089.31 1331.44 1093.92 Q1334.51 1098.5 1334.51 1107.25 Q1334.51 1115.98 1331.44 1120.58 Q1328.38 1125.17 1322.57 1125.17 Q1316.76 1125.17 1313.68 1120.58 Q1310.63 1115.98 1310.63 1107.25 Q1310.63 1098.5 1313.68 1093.92 Q1316.76 1089.31 1322.57 1089.31 Z" fill="#000000" fill-rule="nonzero" fill-opacity="1" /><path clip-path="url(#clip060)" d="M1342.73 1118.61 L1347.62 1118.61 L1347.62 1124.49 L1342.73 1124.49 L1342.73 1118.61 Z" fill="#000000" fill-rule="nonzero" fill-opacity="1" /><path clip-path="url(#clip060)" d="M1367.8 1093.01 Q1364.19 1093.01 1362.36 1096.58 Q1360.56 1100.12 1360.56 1107.25 Q1360.56 1114.36 1362.36 1117.92 Q1364.19 1121.46 1367.8 1121.46 Q1371.44 1121.46 1373.24 1117.92 Q1375.07 1114.36 1375.07 1107.25 Q1375.07 1100.12 1373.24 1096.58 Q1371.44 1093.01 1367.8 1093.01 M1367.8 1089.31 Q1373.61 1089.31 1376.67 1093.92 Q1379.75 1098.5 1379.75 1107.25 Q1379.75 1115.98 1376.67 1120.58 Q1373.61 1125.17 1367.8 1125.17 Q1361.99 1125.17 1358.91 1120.58 Q1355.86 1115.98 1355.86 1107.25 Q1355.86 1098.5 1358.91 1093.92 Q1361.99 1089.31 1367.8 1089.31 Z" fill="#000000" fill-rule="nonzero" fill-opacity="1" /><path clip-path="url(#clip060)" d="M1397.96 1093.01 Q1394.35 1093.01 1392.52 1096.58 Q1390.72 1100.12 1390.72 1107.25 Q1390.72 1114.36 1392.52 1117.92 Q1394.35 1121.46 1397.96 1121.46 Q1401.6 1121.46 1403.4 1117.92 Q1405.23 1114.36 1405.23 1107.25 Q1405.23 1100.12 1403.4 1096.58 Q1401.6 1093.01 1397.96 1093.01 M1397.96 1089.31 Q1403.77 1089.31 1406.83 1093.92 Q1409.91 1098.5 1409.91 1107.25 Q1409.91 1115.98 1406.83 1120.58 Q1403.77 1125.17 1397.96 1125.17 Q1392.15 1125.17 1389.07 1120.58 Q1386.02 1115.98 1386.02 1107.25 Q1386.02 1098.5 1389.07 1093.92 Q1392.15 1089.31 1397.96 1089.31 Z" fill="#000000" fill-rule="nonzero" fill-opacity="1" /><path clip-path="url(#clip060)" d="M1182.01 1252.88 L1182.94 1253.44 Q1181.43 1256.93 1179.02 1261.28 Q1181.43 1265.63 1182.94 1269.13 L1182.01 1269.67 Q1178.7 1265.86 1176.15 1261.28 Q1178.72 1256.66 1182.01 1252.88 Z" fill="#000000" fill-rule="nonzero" fill-opacity="1" /><path clip-path="url(#clip060)" d="M1194.31 1249.71 Q1196.12 1249.71 1197.15 1250.84 Q1198.14 1251.97 1198.14 1253.26 Q1198.14 1254.48 1197.44 1255.12 Q1196.73 1255.77 1195.83 1255.77 Q1194.6 1255.77 1193.54 1254.87 Q1192.48 1253.96 1192.25 1252.61 Q1191.41 1253.93 1191.41 1255.9 Q1191.41 1257.18 1192.09 1258.31 Q1192.77 1259.41 1193.64 1260.08 Q1194.51 1260.73 1195.76 1261.31 Q1196.99 1261.85 1197.73 1262.08 Q1198.43 1262.27 1199.21 1262.43 L1208.23 1264.69 Q1212.51 1265.78 1214.02 1265.78 Q1215.89 1265.78 1217.15 1264.88 Q1218.37 1263.98 1218.37 1262.18 Q1218.37 1261.47 1218.18 1260.66 Q1217.95 1259.86 1217.37 1258.83 Q1216.76 1257.76 1215.86 1256.83 Q1214.92 1255.86 1213.35 1254.93 Q1211.77 1254 1209.74 1253.38 Q1209.03 1253.19 1209.03 1252.55 Q1209.03 1251.74 1209.67 1251.74 Q1210.22 1251.74 1211.38 1252.19 Q1212.51 1252.61 1213.99 1253.55 Q1215.44 1254.45 1216.76 1255.64 Q1218.05 1256.83 1218.95 1258.6 Q1219.85 1260.37 1219.85 1262.31 Q1219.85 1265.08 1218.37 1266.91 Q1216.89 1268.75 1214.83 1269.42 Q1215.12 1269.58 1215.5 1269.81 Q1215.89 1270.03 1216.76 1270.71 Q1217.6 1271.36 1218.24 1272.1 Q1218.85 1272.84 1219.34 1274 Q1219.85 1275.12 1219.85 1276.35 Q1219.85 1277.89 1219.4 1279.28 Q1218.95 1280.63 1217.92 1281.6 Q1216.89 1282.56 1215.47 1282.56 Q1213.89 1282.56 1212.8 1281.5 Q1211.67 1280.41 1211.67 1278.92 Q1211.67 1277.99 1212.22 1277.25 Q1212.77 1276.48 1213.96 1276.48 Q1215.28 1276.48 1216.28 1277.38 Q1217.27 1278.28 1217.53 1279.57 Q1218.37 1278.25 1218.37 1276.28 Q1218.37 1274.16 1216.5 1272.48 Q1214.63 1270.81 1211.51 1270 Q1204.01 1268.01 1200.66 1267.23 Q1197.28 1266.46 1195.83 1266.46 Q1194.47 1266.46 1193.54 1266.81 Q1192.61 1267.17 1192.19 1267.78 Q1191.74 1268.36 1191.57 1268.91 Q1191.41 1269.42 1191.41 1270 Q1191.41 1270.97 1191.8 1272.06 Q1192.19 1273.13 1193.09 1274.41 Q1193.96 1275.67 1195.76 1276.86 Q1197.56 1278.05 1200.04 1278.86 Q1200.79 1279.02 1200.79 1279.73 Q1200.75 1280.5 1200.11 1280.5 Q1199.56 1280.5 1198.43 1280.08 Q1197.28 1279.63 1195.83 1278.73 Q1194.38 1277.8 1193.09 1276.6 Q1191.77 1275.38 1190.87 1273.61 Q1189.96 1271.81 1189.96 1269.87 Q1189.96 1269 1190.16 1268.17 Q1190.32 1267.3 1190.8 1266.27 Q1191.28 1265.2 1192.35 1264.27 Q1193.41 1263.34 1194.96 1262.76 Q1194.22 1262.37 1193.51 1261.85 Q1192.8 1261.31 1191.93 1260.47 Q1191.03 1259.6 1190.51 1258.41 Q1189.96 1257.18 1189.96 1255.83 Q1189.96 1254.51 1190.32 1253.22 Q1190.64 1251.94 1191.7 1250.84 Q1192.73 1249.71 1194.31 1249.71 Z" fill="#000000" fill-rule="nonzero" fill-opacity="1" /><path clip-path="url(#clip060)" d="M1231.9 1242.25 Q1230.52 1242.25 1229.87 1241.46 Q1229.22 1240.68 1229.22 1239.66 Q1229.22 1238.6 1229.92 1237.86 Q1230.59 1237.09 1231.79 1237.09 Q1233.07 1237.09 1233.79 1237.99 Q1234.51 1238.87 1234.33 1240.13 Q1236.18 1239.03 1237.02 1237 Q1237.85 1234.95 1237.85 1233.06 Q1237.85 1231.07 1236.14 1229.47 Q1234.42 1227.85 1230.23 1227.85 Q1226.67 1227.85 1224.62 1229.25 Q1222.57 1230.62 1222.57 1233.35 L1222.57 1235.38 Q1222.57 1236.08 1222.5 1236.28 Q1222.43 1236.48 1222.05 1236.48 Q1221.6 1236.48 1221.51 1235.78 Q1221.51 1235.08 1221.37 1233.98 Q1221.28 1231.3 1218.96 1229.88 Q1216.79 1228.59 1213.71 1228.59 Q1210.89 1228.59 1209.72 1229.94 Q1208.52 1231.27 1208.52 1233.01 Q1208.52 1234.63 1209.2 1236.41 Q1209.87 1238.2 1211.38 1239.17 Q1211.38 1236.3 1213.71 1236.3 Q1214.72 1236.3 1215.4 1236.96 Q1216.05 1237.59 1216.05 1238.65 Q1216.05 1239.66 1215.42 1240.34 Q1214.77 1241.01 1213.66 1241.01 Q1211.02 1241.01 1209.2 1238.67 Q1207.37 1236.3 1207.37 1232.83 Q1207.37 1229.4 1209.17 1226.88 Q1210.98 1224.33 1213.75 1224.33 Q1216.48 1224.33 1218.71 1226.13 Q1220.94 1227.94 1221.87 1230.8 Q1222.57 1227.28 1224.96 1225.19 Q1227.32 1223.09 1230.23 1223.09 Q1233.84 1223.09 1236.5 1225.93 Q1239.14 1228.77 1239.14 1232.92 Q1239.14 1236.75 1237.06 1239.5 Q1234.99 1242.25 1231.9 1242.25 Z" fill="#000000" fill-rule="nonzero" fill-opacity="1" /><polyline clip-path="url(#clip065)" style="stroke:#e26f46; stroke-linecap:round; stroke-linejoin:round; stroke-width:3; stroke-opacity:1; fill:none" stroke-dasharray="12, 6, 2, 6" points="1471.57,1107.21 1496.74,1321.43 1521.9,1413.23 1547.06,1182.93 1572.22,1333.35 1597.38,1309.32 1622.55,1265.53 1647.71,1268.33 1672.87,1225.67 1698.03,1237.5 1723.2,1199.31 1748.36,1169.82 1773.52,1175.51 1798.68,1125.38 1823.85,1124.69 1849.01,1134.77 1874.17,1098.21 1899.33,1123.48 1924.49,1122.86 1949.66,1096.71 1974.82,1112.74 1999.98,1127.42 2025.14,1131.82 2050.31,1109.61 2075.47,1134.24 2100.63,1144.25 2125.79,1105.09 2150.95,1092.22 2176.12,1125.08 2201.28,1145.92 2226.44,1119.14 2251.6,1101.2 2276.77,1081.68 2301.93,1120.83 2327.09,1118.87 "/>
</svg>
