<?xml version="1.0" encoding="utf-8"?>
<svg xmlns="http://www.w3.org/2000/svg" xmlns:xlink="http://www.w3.org/1999/xlink" width="600" height="400" viewBox="0 0 2400 1600">
<defs>
  <clipPath id="clip680">
    <rect x="0" y="0" width="2400" height="1600"/>
  </clipPath>
</defs>
<path clip-path="url(#clip680)" d="M0 1600 L2400 1600 L2400 0 L0 0  Z" fill="#ffffff" fill-rule="evenodd" fill-opacity="1"/>
<defs>
  <clipPath id="clip681">
    <rect x="480" y="0" width="1681" height="1600"/>
  </clipPath>
</defs>
<path clip-path="url(#clip680)" d="M203.964 1423.18 L1110.81 1423.18 L1110.81 47.2441 L203.964 47.2441  Z" fill="#ffffff" fill-rule="evenodd" fill-opacity="1"/>
<defs>
  <clipPath id="clip682">
    <rect x="203" y="47" width="908" height="1377"/>
  </clipPath>
</defs>
<polyline clip-path="url(#clip682)" style="stroke:#000000; stroke-linecap:round; stroke-linejoin:round; stroke-width:2; stroke-opacity:0.1; fill:none" points="229.629,1423.18 229.629,47.2441 "/>
<polyline clip-path="url(#clip682)" style="stroke:#000000; stroke-linecap:round; stroke-linejoin:round; stroke-width:2; stroke-opacity:0.1; fill:none" points="481.252,1423.18 481.252,47.2441 "/>
<polyline clip-path="url(#clip682)" style="stroke:#000000; stroke-linecap:round; stroke-linejoin:round; stroke-width:2; stroke-opacity:0.1; fill:none" points="732.874,1423.18 732.874,47.2441 "/>
<polyline clip-path="url(#clip682)" style="stroke:#000000; stroke-linecap:round; stroke-linejoin:round; stroke-width:2; stroke-opacity:0.1; fill:none" points="984.497,1423.18 984.497,47.2441 "/>
<polyline clip-path="url(#clip682)" style="stroke:#000000; stroke-linecap:round; stroke-linejoin:round; stroke-width:2; stroke-opacity:0.1; fill:none" points="203.964,1389.78 1110.81,1389.78 "/>
<polyline clip-path="url(#clip682)" style="stroke:#000000; stroke-linecap:round; stroke-linejoin:round; stroke-width:2; stroke-opacity:0.1; fill:none" points="203.964,943.825 1110.81,943.825 "/>
<polyline clip-path="url(#clip682)" style="stroke:#000000; stroke-linecap:round; stroke-linejoin:round; stroke-width:2; stroke-opacity:0.1; fill:none" points="203.964,497.87 1110.81,497.87 "/>
<polyline clip-path="url(#clip682)" style="stroke:#000000; stroke-linecap:round; stroke-linejoin:round; stroke-width:2; stroke-opacity:0.1; fill:none" points="203.964,51.9156 1110.81,51.9156 "/>
<polyline clip-path="url(#clip680)" style="stroke:#000000; stroke-linecap:round; stroke-linejoin:round; stroke-width:4; stroke-opacity:1; fill:none" points="203.964,1423.18 1110.81,1423.18 "/>
<polyline clip-path="url(#clip680)" style="stroke:#000000; stroke-linecap:round; stroke-linejoin:round; stroke-width:4; stroke-opacity:1; fill:none" points="229.629,1423.18 229.629,1404.28 "/>
<polyline clip-path="url(#clip680)" style="stroke:#000000; stroke-linecap:round; stroke-linejoin:round; stroke-width:4; stroke-opacity:1; fill:none" points="481.252,1423.18 481.252,1404.28 "/>
<polyline clip-path="url(#clip680)" style="stroke:#000000; stroke-linecap:round; stroke-linejoin:round; stroke-width:4; stroke-opacity:1; fill:none" points="732.874,1423.18 732.874,1404.28 "/>
<polyline clip-path="url(#clip680)" style="stroke:#000000; stroke-linecap:round; stroke-linejoin:round; stroke-width:4; stroke-opacity:1; fill:none" points="984.497,1423.18 984.497,1404.28 "/>
<path clip-path="url(#clip680)" d="M229.629 1454.1 Q226.018 1454.1 224.189 1457.66 Q222.384 1461.2 222.384 1468.33 Q222.384 1475.44 224.189 1479.01 Q226.018 1482.55 229.629 1482.55 Q233.263 1482.55 235.069 1479.01 Q236.898 1475.44 236.898 1468.33 Q236.898 1461.2 235.069 1457.66 Q233.263 1454.1 229.629 1454.1 M229.629 1450.39 Q235.439 1450.39 238.495 1455 Q241.573 1459.58 241.573 1468.33 Q241.573 1477.06 238.495 1481.67 Q235.439 1486.25 229.629 1486.25 Q223.819 1486.25 220.74 1481.67 Q217.685 1477.06 217.685 1468.33 Q217.685 1459.58 220.74 1455 Q223.819 1450.39 229.629 1450.39 Z" fill="#000000" fill-rule="nonzero" fill-opacity="1" /><path clip-path="url(#clip680)" d="M471.634 1481.64 L479.273 1481.64 L479.273 1455.28 L470.962 1456.95 L470.962 1452.69 L479.226 1451.02 L483.902 1451.02 L483.902 1481.64 L491.541 1481.64 L491.541 1485.58 L471.634 1485.58 L471.634 1481.64 Z" fill="#000000" fill-rule="nonzero" fill-opacity="1" /><path clip-path="url(#clip680)" d="M727.527 1481.64 L743.847 1481.64 L743.847 1485.58 L721.902 1485.58 L721.902 1481.64 Q724.564 1478.89 729.148 1474.26 Q733.754 1469.61 734.935 1468.27 Q737.18 1465.74 738.06 1464.01 Q738.962 1462.25 738.962 1460.56 Q738.962 1457.8 737.018 1456.07 Q735.097 1454.33 731.995 1454.33 Q729.796 1454.33 727.342 1455.09 Q724.912 1455.86 722.134 1457.41 L722.134 1452.69 Q724.958 1451.55 727.411 1450.97 Q729.865 1450.39 731.902 1450.39 Q737.273 1450.39 740.467 1453.08 Q743.661 1455.77 743.661 1460.26 Q743.661 1462.39 742.851 1464.31 Q742.064 1466.2 739.958 1468.8 Q739.379 1469.47 736.277 1472.69 Q733.175 1475.88 727.527 1481.64 Z" fill="#000000" fill-rule="nonzero" fill-opacity="1" /><path clip-path="url(#clip680)" d="M988.745 1466.95 Q992.101 1467.66 993.976 1469.93 Q995.874 1472.2 995.874 1475.53 Q995.874 1480.65 992.356 1483.45 Q988.837 1486.25 982.356 1486.25 Q980.18 1486.25 977.865 1485.81 Q975.574 1485.39 973.12 1484.54 L973.12 1480.02 Q975.064 1481.16 977.379 1481.74 Q979.694 1482.32 982.217 1482.32 Q986.615 1482.32 988.907 1480.58 Q991.222 1478.84 991.222 1475.53 Q991.222 1472.48 989.069 1470.77 Q986.939 1469.03 983.12 1469.03 L979.092 1469.03 L979.092 1465.19 L983.305 1465.19 Q986.754 1465.19 988.583 1463.82 Q990.411 1462.43 990.411 1459.84 Q990.411 1457.18 988.513 1455.77 Q986.638 1454.33 983.12 1454.33 Q981.199 1454.33 978.999 1454.75 Q976.8 1455.16 974.162 1456.04 L974.162 1451.88 Q976.824 1451.14 979.138 1450.77 Q981.476 1450.39 983.536 1450.39 Q988.861 1450.39 991.962 1452.83 Q995.064 1455.23 995.064 1459.35 Q995.064 1462.22 993.421 1464.21 Q991.777 1466.18 988.745 1466.95 Z" fill="#000000" fill-rule="nonzero" fill-opacity="1" /><path clip-path="url(#clip680)" d="M527.559 1520.52 L567.758 1520.52 L567.758 1525.93 L550.889 1525.93 L550.889 1568.04 L544.428 1568.04 L544.428 1525.93 L527.559 1525.93 L527.559 1520.52 Z" fill="#000000" fill-rule="nonzero" fill-opacity="1" /><path clip-path="url(#clip680)" d="M571.705 1532.4 L577.562 1532.4 L577.562 1568.04 L571.705 1568.04 L571.705 1532.4 M571.705 1518.52 L577.562 1518.52 L577.562 1525.93 L571.705 1525.93 L571.705 1518.52 Z" fill="#000000" fill-rule="nonzero" fill-opacity="1" /><path clip-path="url(#clip680)" d="M617.57 1539.24 Q619.766 1535.29 622.822 1533.41 Q625.877 1531.54 630.015 1531.54 Q635.585 1531.54 638.609 1535.45 Q641.633 1539.33 641.633 1546.53 L641.633 1568.04 L635.744 1568.04 L635.744 1546.72 Q635.744 1541.59 633.93 1539.11 Q632.116 1536.63 628.392 1536.63 Q623.84 1536.63 621.199 1539.65 Q618.557 1542.68 618.557 1547.9 L618.557 1568.04 L612.669 1568.04 L612.669 1546.72 Q612.669 1541.56 610.854 1539.11 Q609.04 1536.63 605.252 1536.63 Q600.765 1536.63 598.123 1539.68 Q595.481 1542.71 595.481 1547.9 L595.481 1568.04 L589.593 1568.04 L589.593 1532.4 L595.481 1532.4 L595.481 1537.93 Q597.486 1534.66 600.287 1533.1 Q603.088 1531.54 606.939 1531.54 Q610.822 1531.54 613.528 1533.51 Q616.265 1535.48 617.57 1539.24 Z" fill="#000000" fill-rule="nonzero" fill-opacity="1" /><path clip-path="url(#clip680)" d="M683.805 1548.76 L683.805 1551.62 L656.878 1551.62 Q657.26 1557.67 660.507 1560.85 Q663.785 1564 669.61 1564 Q672.984 1564 676.135 1563.17 Q679.317 1562.35 682.437 1560.69 L682.437 1566.23 Q679.286 1567.57 675.975 1568.27 Q672.665 1568.97 669.26 1568.97 Q660.73 1568.97 655.733 1564 Q650.767 1559.04 650.767 1550.57 Q650.767 1541.82 655.478 1536.69 Q660.22 1531.54 668.241 1531.54 Q675.434 1531.54 679.604 1536.18 Q683.805 1540.8 683.805 1548.76 M677.949 1547.04 Q677.885 1542.23 675.243 1539.37 Q672.633 1536.5 668.305 1536.5 Q663.403 1536.5 660.443 1539.27 Q657.515 1542.04 657.069 1547.07 L677.949 1547.04 Z" fill="#000000" fill-rule="nonzero" fill-opacity="1" /><path clip-path="url(#clip680)" d="M728.206 1518.58 Q723.941 1525.9 721.872 1533.06 Q719.803 1540.23 719.803 1547.58 Q719.803 1554.93 721.872 1562.16 Q723.973 1569.35 728.206 1576.64 L723.114 1576.64 Q718.339 1569.16 715.952 1561.93 Q713.597 1554.71 713.597 1547.58 Q713.597 1540.48 715.952 1533.29 Q718.307 1526.09 723.114 1518.58 L728.206 1518.58 Z" fill="#000000" fill-rule="nonzero" fill-opacity="1" /><path clip-path="url(#clip680)" d="M762.294 1533.45 L762.294 1538.98 Q759.812 1537.71 757.138 1537.07 Q754.465 1536.44 751.6 1536.44 Q747.24 1536.44 745.043 1537.77 Q742.879 1539.11 742.879 1541.79 Q742.879 1543.82 744.439 1545 Q745.998 1546.15 750.709 1547.2 L752.714 1547.64 Q758.952 1548.98 761.562 1551.43 Q764.204 1553.85 764.204 1558.21 Q764.204 1563.17 760.257 1566.07 Q756.343 1568.97 749.468 1568.97 Q746.603 1568.97 743.484 1568.39 Q740.396 1567.85 736.959 1566.74 L736.959 1560.69 Q740.205 1562.38 743.356 1563.24 Q746.508 1564.07 749.595 1564.07 Q753.733 1564.07 755.961 1562.66 Q758.189 1561.23 758.189 1558.65 Q758.189 1556.27 756.565 1554.99 Q754.974 1553.72 749.531 1552.54 L747.494 1552.07 Q742.052 1550.92 739.633 1548.56 Q737.214 1546.18 737.214 1542.04 Q737.214 1537.01 740.778 1534.27 Q744.343 1531.54 750.9 1531.54 Q754.146 1531.54 757.011 1532.01 Q759.876 1532.49 762.294 1533.45 Z" fill="#000000" fill-rule="nonzero" fill-opacity="1" /><path clip-path="url(#clip680)" d="M772.607 1518.58 L777.699 1518.58 Q782.474 1526.09 784.829 1533.29 Q787.216 1540.48 787.216 1547.58 Q787.216 1554.71 784.829 1561.93 Q782.474 1569.16 777.699 1576.64 L772.607 1576.64 Q776.84 1569.35 778.909 1562.16 Q781.01 1554.93 781.01 1547.58 Q781.01 1540.23 778.909 1533.06 Q776.84 1525.9 772.607 1518.58 Z" fill="#000000" fill-rule="nonzero" fill-opacity="1" /><polyline clip-path="url(#clip680)" style="stroke:#000000; stroke-linecap:round; stroke-linejoin:round; stroke-width:4; stroke-opacity:1; fill:none" points="203.964,1423.18 203.964,47.2441 "/>
<polyline clip-path="url(#clip680)" style="stroke:#000000; stroke-linecap:round; stroke-linejoin:round; stroke-width:4; stroke-opacity:1; fill:none" points="203.964,1389.78 222.861,1389.78 "/>
<polyline clip-path="url(#clip680)" style="stroke:#000000; stroke-linecap:round; stroke-linejoin:round; stroke-width:4; stroke-opacity:1; fill:none" points="203.964,943.825 222.861,943.825 "/>
<polyline clip-path="url(#clip680)" style="stroke:#000000; stroke-linecap:round; stroke-linejoin:round; stroke-width:4; stroke-opacity:1; fill:none" points="203.964,497.87 222.861,497.87 "/>
<polyline clip-path="url(#clip680)" style="stroke:#000000; stroke-linecap:round; stroke-linejoin:round; stroke-width:4; stroke-opacity:1; fill:none" points="203.964,51.9156 222.861,51.9156 "/>
<path clip-path="url(#clip680)" d="M156.019 1375.58 Q152.408 1375.58 150.579 1379.14 Q148.774 1382.68 148.774 1389.81 Q148.774 1396.92 150.579 1400.49 Q152.408 1404.03 156.019 1404.03 Q159.653 1404.03 161.459 1400.49 Q163.288 1396.92 163.288 1389.81 Q163.288 1382.68 161.459 1379.14 Q159.653 1375.58 156.019 1375.58 M156.019 1371.87 Q161.829 1371.87 164.885 1376.48 Q167.964 1381.06 167.964 1389.81 Q167.964 1398.54 164.885 1403.15 Q161.829 1407.73 156.019 1407.73 Q150.209 1407.73 147.13 1403.15 Q144.075 1398.54 144.075 1389.81 Q144.075 1381.06 147.13 1376.48 Q150.209 1371.87 156.019 1371.87 Z" fill="#000000" fill-rule="nonzero" fill-opacity="1" /><path clip-path="url(#clip680)" d="M116.668 957.169 L124.306 957.169 L124.306 930.804 L115.996 932.47 L115.996 928.211 L124.26 926.545 L128.936 926.545 L128.936 957.169 L136.575 957.169 L136.575 961.105 L116.668 961.105 L116.668 957.169 Z" fill="#000000" fill-rule="nonzero" fill-opacity="1" /><path clip-path="url(#clip680)" d="M156.019 929.623 Q152.408 929.623 150.579 933.188 Q148.774 936.73 148.774 943.859 Q148.774 950.966 150.579 954.531 Q152.408 958.072 156.019 958.072 Q159.653 958.072 161.459 954.531 Q163.288 950.966 163.288 943.859 Q163.288 936.73 161.459 933.188 Q159.653 929.623 156.019 929.623 M156.019 925.92 Q161.829 925.92 164.885 930.526 Q167.964 935.109 167.964 943.859 Q167.964 952.586 164.885 957.193 Q161.829 961.776 156.019 961.776 Q150.209 961.776 147.13 957.193 Q144.075 952.586 144.075 943.859 Q144.075 935.109 147.13 930.526 Q150.209 925.92 156.019 925.92 Z" fill="#000000" fill-rule="nonzero" fill-opacity="1" /><path clip-path="url(#clip680)" d="M119.885 511.215 L136.204 511.215 L136.204 515.15 L114.26 515.15 L114.26 511.215 Q116.922 508.46 121.505 503.831 Q126.112 499.178 127.292 497.835 Q129.538 495.312 130.417 493.576 Q131.32 491.817 131.32 490.127 Q131.32 487.372 129.376 485.636 Q127.455 483.9 124.353 483.9 Q122.154 483.9 119.7 484.664 Q117.269 485.428 114.492 486.979 L114.492 482.257 Q117.316 481.122 119.769 480.544 Q122.223 479.965 124.26 479.965 Q129.63 479.965 132.825 482.65 Q136.019 485.335 136.019 489.826 Q136.019 491.956 135.209 493.877 Q134.422 495.775 132.316 498.368 Q131.737 499.039 128.635 502.257 Q125.533 505.451 119.885 511.215 Z" fill="#000000" fill-rule="nonzero" fill-opacity="1" /><path clip-path="url(#clip680)" d="M156.019 483.669 Q152.408 483.669 150.579 487.234 Q148.774 490.775 148.774 497.905 Q148.774 505.011 150.579 508.576 Q152.408 512.118 156.019 512.118 Q159.653 512.118 161.459 508.576 Q163.288 505.011 163.288 497.905 Q163.288 490.775 161.459 487.234 Q159.653 483.669 156.019 483.669 M156.019 479.965 Q161.829 479.965 164.885 484.572 Q167.964 489.155 167.964 497.905 Q167.964 506.632 164.885 511.238 Q161.829 515.821 156.019 515.821 Q150.209 515.821 147.13 511.238 Q144.075 506.632 144.075 497.905 Q144.075 489.155 147.13 484.572 Q150.209 479.965 156.019 479.965 Z" fill="#000000" fill-rule="nonzero" fill-opacity="1" /><path clip-path="url(#clip680)" d="M130.024 50.5614 Q133.38 51.279 135.255 53.5475 Q137.154 55.816 137.154 59.1493 Q137.154 64.265 133.635 67.066 Q130.117 69.8669 123.635 69.8669 Q121.459 69.8669 119.144 69.4271 Q116.853 69.0104 114.399 68.1539 L114.399 63.64 Q116.343 64.7743 118.658 65.353 Q120.973 65.9317 123.496 65.9317 Q127.894 65.9317 130.186 64.1956 Q132.501 62.4595 132.501 59.1493 Q132.501 56.0938 130.348 54.3808 Q128.218 52.6447 124.399 52.6447 L120.371 52.6447 L120.371 48.8022 L124.584 48.8022 Q128.033 48.8022 129.862 47.4364 Q131.691 46.0476 131.691 43.455 Q131.691 40.7929 129.792 39.3809 Q127.917 37.9457 124.399 37.9457 Q122.478 37.9457 120.279 38.3624 Q118.08 38.7791 115.441 39.6587 L115.441 35.4921 Q118.103 34.7513 120.418 34.3809 Q122.755 34.0106 124.816 34.0106 Q130.14 34.0106 133.242 36.4411 Q136.343 38.8485 136.343 42.9689 Q136.343 45.8392 134.7 47.8299 Q133.056 49.7975 130.024 50.5614 Z" fill="#000000" fill-rule="nonzero" fill-opacity="1" /><path clip-path="url(#clip680)" d="M156.019 37.7143 Q152.408 37.7143 150.579 41.2791 Q148.774 44.8207 148.774 51.9503 Q148.774 59.0567 150.579 62.6215 Q152.408 66.1632 156.019 66.1632 Q159.653 66.1632 161.459 62.6215 Q163.288 59.0567 163.288 51.9503 Q163.288 44.8207 161.459 41.2791 Q159.653 37.7143 156.019 37.7143 M156.019 34.0106 Q161.829 34.0106 164.885 38.617 Q167.964 43.2003 167.964 51.9503 Q167.964 60.6771 164.885 65.2836 Q161.829 69.8669 156.019 69.8669 Q150.209 69.8669 147.13 65.2836 Q144.075 60.6771 144.075 51.9503 Q144.075 43.2003 147.13 38.617 Q150.209 34.0106 156.019 34.0106 Z" fill="#000000" fill-rule="nonzero" fill-opacity="1" /><path clip-path="url(#clip680)" d="M39.4334 772.564 Q44.844 772.564 50.9309 774.303 Q56.9856 776.01 61.8809 778.715 Q66.744 781.42 69.9646 784.963 Q73.153 788.505 73.153 791.887 Q73.153 794.045 71.9613 795.655 Q70.7375 797.233 68.7085 798.103 Q66.6474 798.972 64.393 799.391 Q62.1063 799.81 59.6265 799.81 Q55.9228 799.81 51.8971 799.005 Q47.8391 798.199 44.1677 796.847 Q40.464 795.494 37.1146 793.594 Q33.733 791.694 31.2853 789.6 Q28.8055 787.475 27.3562 785.092 Q25.907 782.708 25.907 780.486 Q25.907 778.876 26.6155 777.588 Q27.2918 776.267 28.4834 775.43 Q29.6428 774.593 31.0277 774.013 Q32.4125 773.401 34.0228 773.111 Q35.6009 772.821 36.9214 772.692 Q38.2096 772.564 39.4334 772.564 M35.3433 776.911 Q33.7008 776.911 32.477 777.04 Q31.2209 777.169 29.9649 777.523 Q28.7089 777.878 28.0325 778.65 Q27.3562 779.391 27.3562 780.551 Q27.3562 783.932 34.2805 787.733 Q36.4383 788.956 39.369 790.051 Q42.2997 791.146 43.6846 791.533 Q45.0694 791.919 48.4833 792.821 L48.4833 779.037 Q39.6911 776.911 35.3433 776.911 M50.5766 779.617 L50.5766 793.336 Q58.6281 795.462 63.6522 795.462 Q68.0322 795.462 69.868 794.56 Q71.6715 793.626 71.6715 791.887 Q71.6715 789.89 69.6747 788.022 Q67.6458 786.154 63.9743 784.254 Q59.2078 781.742 50.5766 779.617 Z" fill="#000000" fill-rule="nonzero" fill-opacity="1" /><path clip-path="url(#clip680)" d="M22.9507 728.256 Q30.2712 732.521 37.4327 734.59 Q44.5941 736.658 51.9465 736.658 Q59.2989 736.658 66.5239 734.59 Q73.7172 732.489 81.0059 728.256 L81.0059 733.348 Q73.5262 738.123 66.3011 740.51 Q59.0761 742.865 51.9465 742.865 Q44.8487 742.865 37.6555 740.51 Q30.4622 738.154 22.9507 733.348 L22.9507 728.256 Z" fill="#000000" fill-rule="nonzero" fill-opacity="1" /><path clip-path="url(#clip680)" d="M28.1387 706.74 Q28.1387 709.286 29.9211 711.036 Q31.6717 712.787 34.218 712.787 Q36.7324 712.787 38.483 711.036 Q40.2017 709.286 40.2017 706.74 Q40.2017 704.193 38.483 702.443 Q36.7324 700.692 34.218 700.692 Q31.7035 700.692 29.9211 702.475 Q28.1387 704.225 28.1387 706.74 M24.0328 706.74 Q24.0328 704.703 24.8286 702.825 Q25.5924 700.947 27.0566 699.578 Q28.4888 698.114 30.3031 697.382 Q32.1173 696.65 34.218 696.65 Q38.4193 696.65 41.3476 699.61 Q44.244 702.538 44.244 706.803 Q44.244 711.1 41.3794 713.965 Q38.5148 716.829 34.218 716.829 Q29.953 716.829 26.9929 713.901 Q24.0328 710.973 24.0328 706.74 Z" fill="#000000" fill-rule="nonzero" fill-opacity="1" /><path clip-path="url(#clip680)" d="M22.9507 685.224 L22.9507 680.131 Q30.4622 675.357 37.6555 673.001 Q44.8487 670.614 51.9465 670.614 Q59.0761 670.614 66.3011 673.001 Q73.5262 675.357 81.0059 680.131 L81.0059 685.224 Q73.7172 680.99 66.5239 678.921 Q59.2989 676.821 51.9465 676.821 Q44.5941 676.821 37.4327 678.921 Q30.2712 680.99 22.9507 685.224 Z" fill="#000000" fill-rule="nonzero" fill-opacity="1" /><polyline clip-path="url(#clip682)" style="stroke:#009af9; stroke-linecap:round; stroke-linejoin:round; stroke-width:4; stroke-opacity:1; fill:none" points="229.629,1384.07 254.791,1286.98 279.954,1023.31 305.116,687.131 330.278,492.682 355.44,273.725 380.603,143.638 405.765,86.1857 430.927,115.245 456.089,139.032 481.252,189.316 506.414,211.922 531.576,244.285 556.739,230.12 581.901,327.604 607.063,276.817 632.225,283.69 657.388,268.029 682.55,296.355 707.712,254.479 732.874,271.62 758.037,245.364 783.199,245.354 808.361,260 833.524,263.264 858.686,258.713 883.848,307.859 909.01,232.166 934.173,292.086 959.335,252.06 984.497,257.224 1009.66,264.544 1034.82,254.395 1059.98,237.376 1085.15,268.284 "/>
<polyline clip-path="url(#clip682)" style="stroke:#e26f46; stroke-linecap:round; stroke-linejoin:round; stroke-width:3; stroke-opacity:1; fill:none" stroke-dasharray="12, 6, 2, 6" points="229.629,1384.24 254.791,1283.17 279.954,1023.35 305.116,690.251 330.278,477.674 355.44,276.277 380.603,146.307 405.765,88.3305 430.927,111.659 456.089,143.659 481.252,192.411 506.414,219.879 531.576,248.275 556.739,240.057 581.901,313.294 607.063,289.162 632.225,284.557 657.388,270.456 682.55,289.978 707.712,261.877 732.874,268.179 758.037,249.803 783.199,245.458 808.361,257.151 833.524,263.164 858.686,260.509 883.848,298.874 909.01,247.229 934.173,280.86 959.335,258.761 984.497,256.556 1009.66,262.675 1034.82,256.402 1059.98,241 1085.15,262.349 "/>
<path clip-path="url(#clip680)" d="M961.069 1377.32 L1080.58 1377.32 L1080.58 1221.8 L961.069 1221.8  Z" fill="#ffffff" fill-rule="evenodd" fill-opacity="1"/>
<polyline clip-path="url(#clip680)" style="stroke:#000000; stroke-linecap:round; stroke-linejoin:round; stroke-width:4; stroke-opacity:1; fill:none" points="961.069,1377.32 1080.58,1377.32 1080.58,1221.8 961.069,1221.8 961.069,1377.32 "/>
<polyline clip-path="url(#clip680)" style="stroke:#009af9; stroke-linecap:round; stroke-linejoin:round; stroke-width:4; stroke-opacity:1; fill:none" points="971.145,1273.64 1031.6,1273.64 "/>
<path clip-path="url(#clip680)" d="M1068.45 1260.37 Q1066.97 1260.37 1066.22 1260.51 Q1065.48 1260.63 1065.29 1260.8 Q1065.1 1260.96 1064.89 1261.38 L1054.58 1283.3 Q1053.48 1285.65 1051.42 1287.33 Q1049.38 1289.02 1046.81 1289.02 Q1044.65 1289.02 1043.15 1287.71 Q1041.68 1286.42 1041.68 1284.59 Q1041.68 1283.28 1042.5 1282.53 Q1043.32 1281.81 1044.42 1281.81 Q1045.64 1281.81 1046.41 1282.58 Q1047.21 1283.35 1047.21 1284.55 Q1047.21 1285.32 1046.88 1285.9 Q1046.55 1286.51 1046.25 1286.72 Q1045.96 1286.96 1045.66 1287.1 Q1046.15 1287.29 1046.81 1287.29 Q1047.79 1287.29 1048.63 1286.89 Q1049.5 1286.51 1050.06 1286 Q1050.65 1285.51 1051.23 1284.62 Q1051.82 1283.75 1052.1 1283.19 Q1052.38 1282.65 1052.8 1281.71 L1053.9 1279.42 L1044.93 1260.37 L1041.87 1260.37 L1041.87 1258.13 L1047.35 1258.27 L1053.3 1258.13 L1053.3 1260.37 L1050.7 1260.37 L1056.79 1273.33 L1062.31 1261.52 L1062.55 1260.96 Q1062.55 1260.7 1061.99 1260.56 Q1061.42 1260.4 1060.86 1260.4 L1060.3 1260.37 L1060.3 1258.13 L1064.66 1258.27 Q1066.72 1258.27 1068.45 1258.13 L1068.45 1260.37 Z" fill="#000000" fill-rule="nonzero" fill-opacity="1" /><polyline clip-path="url(#clip680)" style="stroke:#e26f46; stroke-linecap:round; stroke-linejoin:round; stroke-width:3; stroke-opacity:1; fill:none" stroke-dasharray="12, 6, 2, 6" points="971.145,1325.48 1031.6,1325.48 "/>
<path clip-path="url(#clip680)" d="M1064.26 1309.2 L1063.85 1309.87 Q1061.31 1308.77 1058.15 1307.01 Q1054.98 1308.77 1052.44 1309.87 L1052.05 1309.2 Q1054.82 1306.79 1058.15 1304.93 Q1061.51 1306.8 1064.26 1309.2 Z" fill="#000000" fill-rule="nonzero" fill-opacity="1" /><path clip-path="url(#clip680)" d="M1068.45 1317.22 Q1066.97 1317.22 1066.22 1317.36 Q1065.48 1317.48 1065.29 1317.64 Q1065.1 1317.8 1064.89 1318.23 L1054.58 1340.15 Q1053.48 1342.49 1051.42 1344.18 Q1049.38 1345.86 1046.81 1345.86 Q1044.65 1345.86 1043.15 1344.55 Q1041.68 1343.26 1041.68 1341.44 Q1041.68 1340.13 1042.5 1339.38 Q1043.32 1338.65 1044.42 1338.65 Q1045.64 1338.65 1046.41 1339.42 Q1047.21 1340.2 1047.21 1341.39 Q1047.21 1342.16 1046.88 1342.75 Q1046.55 1343.36 1046.25 1343.57 Q1045.96 1343.8 1045.66 1343.94 Q1046.15 1344.13 1046.81 1344.13 Q1047.79 1344.13 1048.63 1343.73 Q1049.5 1343.36 1050.06 1342.84 Q1050.65 1342.35 1051.23 1341.46 Q1051.82 1340.59 1052.1 1340.03 Q1052.38 1339.49 1052.8 1338.56 L1053.9 1336.26 L1044.93 1317.22 L1041.87 1317.22 L1041.87 1314.97 L1047.35 1315.11 L1053.3 1314.97 L1053.3 1317.22 L1050.7 1317.22 L1056.79 1330.17 L1062.31 1318.37 L1062.55 1317.8 Q1062.55 1317.55 1061.99 1317.41 Q1061.42 1317.24 1060.86 1317.24 L1060.3 1317.22 L1060.3 1314.97 L1064.66 1315.11 Q1066.72 1315.11 1068.45 1314.97 L1068.45 1317.22 Z" fill="#000000" fill-rule="nonzero" fill-opacity="1" /><path clip-path="url(#clip680)" d="M1445.91 398.692 L2352.76 398.692 L2352.76 47.2441 L1445.91 47.2441  Z" fill="#ffffff" fill-rule="evenodd" fill-opacity="1"/>
<defs>
  <clipPath id="clip683">
    <rect x="1445" y="47" width="908" height="352"/>
  </clipPath>
</defs>
<polyline clip-path="url(#clip683)" style="stroke:#000000; stroke-linecap:round; stroke-linejoin:round; stroke-width:2; stroke-opacity:0.1; fill:none" points="1471.57,398.692 1471.57,47.2441 "/>
<polyline clip-path="url(#clip683)" style="stroke:#000000; stroke-linecap:round; stroke-linejoin:round; stroke-width:2; stroke-opacity:0.1; fill:none" points="1723.2,398.692 1723.2,47.2441 "/>
<polyline clip-path="url(#clip683)" style="stroke:#000000; stroke-linecap:round; stroke-linejoin:round; stroke-width:2; stroke-opacity:0.1; fill:none" points="1974.82,398.692 1974.82,47.2441 "/>
<polyline clip-path="url(#clip683)" style="stroke:#000000; stroke-linecap:round; stroke-linejoin:round; stroke-width:2; stroke-opacity:0.1; fill:none" points="2226.44,398.692 2226.44,47.2441 "/>
<polyline clip-path="url(#clip683)" style="stroke:#000000; stroke-linecap:round; stroke-linejoin:round; stroke-width:2; stroke-opacity:0.1; fill:none" points="1445.91,388.745 2352.76,388.745 "/>
<polyline clip-path="url(#clip683)" style="stroke:#000000; stroke-linecap:round; stroke-linejoin:round; stroke-width:2; stroke-opacity:0.1; fill:none" points="1445.91,323.651 2352.76,323.651 "/>
<polyline clip-path="url(#clip683)" style="stroke:#000000; stroke-linecap:round; stroke-linejoin:round; stroke-width:2; stroke-opacity:0.1; fill:none" points="1445.91,258.557 2352.76,258.557 "/>
<polyline clip-path="url(#clip683)" style="stroke:#000000; stroke-linecap:round; stroke-linejoin:round; stroke-width:2; stroke-opacity:0.1; fill:none" points="1445.91,193.463 2352.76,193.463 "/>
<polyline clip-path="url(#clip683)" style="stroke:#000000; stroke-linecap:round; stroke-linejoin:round; stroke-width:2; stroke-opacity:0.1; fill:none" points="1445.91,128.369 2352.76,128.369 "/>
<polyline clip-path="url(#clip683)" style="stroke:#000000; stroke-linecap:round; stroke-linejoin:round; stroke-width:2; stroke-opacity:0.1; fill:none" points="1445.91,63.2751 2352.76,63.2751 "/>
<polyline clip-path="url(#clip680)" style="stroke:#000000; stroke-linecap:round; stroke-linejoin:round; stroke-width:4; stroke-opacity:1; fill:none" points="1445.91,398.692 2352.76,398.692 "/>
<polyline clip-path="url(#clip680)" style="stroke:#000000; stroke-linecap:round; stroke-linejoin:round; stroke-width:4; stroke-opacity:1; fill:none" points="1471.57,398.692 1471.57,379.794 "/>
<polyline clip-path="url(#clip680)" style="stroke:#000000; stroke-linecap:round; stroke-linejoin:round; stroke-width:4; stroke-opacity:1; fill:none" points="1723.2,398.692 1723.2,379.794 "/>
<polyline clip-path="url(#clip680)" style="stroke:#000000; stroke-linecap:round; stroke-linejoin:round; stroke-width:4; stroke-opacity:1; fill:none" points="1974.82,398.692 1974.82,379.794 "/>
<polyline clip-path="url(#clip680)" style="stroke:#000000; stroke-linecap:round; stroke-linejoin:round; stroke-width:4; stroke-opacity:1; fill:none" points="2226.44,398.692 2226.44,379.794 "/>
<path clip-path="url(#clip680)" d="M1471.57 429.611 Q1467.96 429.611 1466.13 433.175 Q1464.33 436.717 1464.33 443.847 Q1464.33 450.953 1466.13 454.518 Q1467.96 458.059 1471.57 458.059 Q1475.21 458.059 1477.01 454.518 Q1478.84 450.953 1478.84 443.847 Q1478.84 436.717 1477.01 433.175 Q1475.21 429.611 1471.57 429.611 M1471.57 425.907 Q1477.38 425.907 1480.44 430.513 Q1483.52 435.097 1483.52 443.847 Q1483.52 452.573 1480.44 457.18 Q1477.38 461.763 1471.57 461.763 Q1465.76 461.763 1462.68 457.18 Q1459.63 452.573 1459.63 443.847 Q1459.63 435.097 1462.68 430.513 Q1465.76 425.907 1471.57 425.907 Z" fill="#000000" fill-rule="nonzero" fill-opacity="1" /><path clip-path="url(#clip680)" d="M1713.58 457.157 L1721.22 457.157 L1721.22 430.791 L1712.91 432.458 L1712.91 428.199 L1721.17 426.532 L1725.85 426.532 L1725.85 457.157 L1733.49 457.157 L1733.49 461.092 L1713.58 461.092 L1713.58 457.157 Z" fill="#000000" fill-rule="nonzero" fill-opacity="1" /><path clip-path="url(#clip680)" d="M1969.47 457.157 L1985.79 457.157 L1985.79 461.092 L1963.85 461.092 L1963.85 457.157 Q1966.51 454.402 1971.09 449.772 Q1975.7 445.12 1976.88 443.777 Q1979.12 441.254 1980 439.518 Q1980.91 437.759 1980.91 436.069 Q1980.91 433.314 1978.96 431.578 Q1977.04 429.842 1973.94 429.842 Q1971.74 429.842 1969.29 430.606 Q1966.86 431.37 1964.08 432.921 L1964.08 428.199 Q1966.9 427.064 1969.36 426.486 Q1971.81 425.907 1973.85 425.907 Q1979.22 425.907 1982.41 428.592 Q1985.61 431.277 1985.61 435.768 Q1985.61 437.898 1984.8 439.819 Q1984.01 441.717 1981.9 444.31 Q1981.32 444.981 1978.22 448.198 Q1975.12 451.393 1969.47 457.157 Z" fill="#000000" fill-rule="nonzero" fill-opacity="1" /><path clip-path="url(#clip680)" d="M2230.69 442.458 Q2234.05 443.175 2235.92 445.444 Q2237.82 447.712 2237.82 451.046 Q2237.82 456.161 2234.3 458.962 Q2230.78 461.763 2224.3 461.763 Q2222.12 461.763 2219.81 461.323 Q2217.52 460.907 2215.06 460.05 L2215.06 455.536 Q2217.01 456.671 2219.32 457.249 Q2221.64 457.828 2224.16 457.828 Q2228.56 457.828 2230.85 456.092 Q2233.17 454.356 2233.17 451.046 Q2233.17 447.99 2231.01 446.277 Q2228.88 444.541 2225.06 444.541 L2221.04 444.541 L2221.04 440.698 L2225.25 440.698 Q2228.7 440.698 2230.53 439.333 Q2232.36 437.944 2232.36 435.351 Q2232.36 432.689 2230.46 431.277 Q2228.58 429.842 2225.06 429.842 Q2223.14 429.842 2220.94 430.259 Q2218.74 430.675 2216.11 431.555 L2216.11 427.388 Q2218.77 426.648 2221.08 426.277 Q2223.42 425.907 2225.48 425.907 Q2230.8 425.907 2233.91 428.337 Q2237.01 430.745 2237.01 434.865 Q2237.01 437.736 2235.36 439.726 Q2233.72 441.694 2230.69 442.458 Z" fill="#000000" fill-rule="nonzero" fill-opacity="1" /><polyline clip-path="url(#clip680)" style="stroke:#000000; stroke-linecap:round; stroke-linejoin:round; stroke-width:4; stroke-opacity:1; fill:none" points="1445.91,398.692 1445.91,47.2441 "/>
<polyline clip-path="url(#clip680)" style="stroke:#000000; stroke-linecap:round; stroke-linejoin:round; stroke-width:4; stroke-opacity:1; fill:none" points="1445.91,388.745 1464.81,388.745 "/>
<polyline clip-path="url(#clip680)" style="stroke:#000000; stroke-linecap:round; stroke-linejoin:round; stroke-width:4; stroke-opacity:1; fill:none" points="1445.91,323.651 1464.81,323.651 "/>
<polyline clip-path="url(#clip680)" style="stroke:#000000; stroke-linecap:round; stroke-linejoin:round; stroke-width:4; stroke-opacity:1; fill:none" points="1445.91,258.557 1464.81,258.557 "/>
<polyline clip-path="url(#clip680)" style="stroke:#000000; stroke-linecap:round; stroke-linejoin:round; stroke-width:4; stroke-opacity:1; fill:none" points="1445.91,193.463 1464.81,193.463 "/>
<polyline clip-path="url(#clip680)" style="stroke:#000000; stroke-linecap:round; stroke-linejoin:round; stroke-width:4; stroke-opacity:1; fill:none" points="1445.91,128.369 1464.81,128.369 "/>
<polyline clip-path="url(#clip680)" style="stroke:#000000; stroke-linecap:round; stroke-linejoin:round; stroke-width:4; stroke-opacity:1; fill:none" points="1445.91,63.2751 1464.81,63.2751 "/>
<path clip-path="url(#clip680)" d="M1352.73 374.544 Q1349.12 374.544 1347.29 378.109 Q1345.49 381.65 1345.49 388.78 Q1345.49 395.886 1347.29 399.451 Q1349.12 402.993 1352.73 402.993 Q1356.37 402.993 1358.17 399.451 Q1360 395.886 1360 388.78 Q1360 381.65 1358.17 378.109 Q1356.37 374.544 1352.73 374.544 M1352.73 370.84 Q1358.54 370.84 1361.6 375.447 Q1364.68 380.03 1364.68 388.78 Q1364.68 397.507 1361.6 402.113 Q1358.54 406.697 1352.73 406.697 Q1346.92 406.697 1343.84 402.113 Q1340.79 397.507 1340.79 388.78 Q1340.79 380.03 1343.84 375.447 Q1346.92 370.84 1352.73 370.84 Z" fill="#000000" fill-rule="nonzero" fill-opacity="1" /><path clip-path="url(#clip680)" d="M1372.89 400.146 L1377.78 400.146 L1377.78 406.025 L1372.89 406.025 L1372.89 400.146 Z" fill="#000000" fill-rule="nonzero" fill-opacity="1" /><path clip-path="url(#clip680)" d="M1397.96 374.544 Q1394.35 374.544 1392.52 378.109 Q1390.72 381.65 1390.72 388.78 Q1390.72 395.886 1392.52 399.451 Q1394.35 402.993 1397.96 402.993 Q1401.6 402.993 1403.4 399.451 Q1405.23 395.886 1405.23 388.78 Q1405.23 381.65 1403.4 378.109 Q1401.6 374.544 1397.96 374.544 M1397.96 370.84 Q1403.77 370.84 1406.83 375.447 Q1409.91 380.03 1409.91 388.78 Q1409.91 397.507 1406.83 402.113 Q1403.77 406.697 1397.96 406.697 Q1392.15 406.697 1389.07 402.113 Q1386.02 397.507 1386.02 388.78 Q1386.02 380.03 1389.07 375.447 Q1392.15 370.84 1397.96 370.84 Z" fill="#000000" fill-rule="nonzero" fill-opacity="1" /><path clip-path="url(#clip680)" d="M1353.96 309.45 Q1350.35 309.45 1348.52 313.015 Q1346.71 316.556 1346.71 323.686 Q1346.71 330.792 1348.52 334.357 Q1350.35 337.899 1353.96 337.899 Q1357.59 337.899 1359.4 334.357 Q1361.23 330.792 1361.23 323.686 Q1361.23 316.556 1359.4 313.015 Q1357.59 309.45 1353.96 309.45 M1353.96 305.746 Q1359.77 305.746 1362.82 310.353 Q1365.9 314.936 1365.9 323.686 Q1365.9 332.413 1362.82 337.019 Q1359.77 341.603 1353.96 341.603 Q1348.15 341.603 1345.07 337.019 Q1342.01 332.413 1342.01 323.686 Q1342.01 314.936 1345.07 310.353 Q1348.15 305.746 1353.96 305.746 Z" fill="#000000" fill-rule="nonzero" fill-opacity="1" /><path clip-path="url(#clip680)" d="M1374.12 335.052 L1379.01 335.052 L1379.01 340.931 L1374.12 340.931 L1374.12 335.052 Z" fill="#000000" fill-rule="nonzero" fill-opacity="1" /><path clip-path="url(#clip680)" d="M1390 336.996 L1397.64 336.996 L1397.64 310.63 L1389.33 312.297 L1389.33 308.038 L1397.59 306.371 L1402.27 306.371 L1402.27 336.996 L1409.91 336.996 L1409.91 340.931 L1390 340.931 L1390 336.996 Z" fill="#000000" fill-rule="nonzero" fill-opacity="1" /><path clip-path="url(#clip680)" d="M1354.33 244.356 Q1350.72 244.356 1348.89 247.921 Q1347.08 251.462 1347.08 258.592 Q1347.08 265.698 1348.89 269.263 Q1350.72 272.805 1354.33 272.805 Q1357.96 272.805 1359.77 269.263 Q1361.6 265.698 1361.6 258.592 Q1361.6 251.462 1359.77 247.921 Q1357.96 244.356 1354.33 244.356 M1354.33 240.652 Q1360.14 240.652 1363.2 245.259 Q1366.27 249.842 1366.27 258.592 Q1366.27 267.319 1363.2 271.925 Q1360.14 276.508 1354.33 276.508 Q1348.52 276.508 1345.44 271.925 Q1342.39 267.319 1342.39 258.592 Q1342.39 249.842 1345.44 245.259 Q1348.52 240.652 1354.33 240.652 Z" fill="#000000" fill-rule="nonzero" fill-opacity="1" /><path clip-path="url(#clip680)" d="M1374.49 269.958 L1379.38 269.958 L1379.38 275.837 L1374.49 275.837 L1374.49 269.958 Z" fill="#000000" fill-rule="nonzero" fill-opacity="1" /><path clip-path="url(#clip680)" d="M1393.59 271.902 L1409.91 271.902 L1409.91 275.837 L1387.96 275.837 L1387.96 271.902 Q1390.63 269.147 1395.21 264.518 Q1399.82 259.865 1401 258.522 Q1403.24 255.999 1404.12 254.263 Q1405.02 252.504 1405.02 250.814 Q1405.02 248.06 1403.08 246.323 Q1401.16 244.587 1398.06 244.587 Q1395.86 244.587 1393.4 245.351 Q1390.97 246.115 1388.19 247.666 L1388.19 242.944 Q1391.02 241.81 1393.47 241.231 Q1395.93 240.652 1397.96 240.652 Q1403.33 240.652 1406.53 243.337 Q1409.72 246.023 1409.72 250.513 Q1409.72 252.643 1408.91 254.564 Q1408.13 256.462 1406.02 259.055 Q1405.44 259.726 1402.34 262.944 Q1399.24 266.138 1393.59 271.902 Z" fill="#000000" fill-rule="nonzero" fill-opacity="1" /><path clip-path="url(#clip680)" d="M1353.38 179.262 Q1349.77 179.262 1347.94 182.827 Q1346.13 186.368 1346.13 193.498 Q1346.13 200.604 1347.94 204.169 Q1349.77 207.711 1353.38 207.711 Q1357.01 207.711 1358.82 204.169 Q1360.65 200.604 1360.65 193.498 Q1360.65 186.368 1358.82 182.827 Q1357.01 179.262 1353.38 179.262 M1353.38 175.558 Q1359.19 175.558 1362.25 180.165 Q1365.32 184.748 1365.32 193.498 Q1365.32 202.225 1362.25 206.831 Q1359.19 211.414 1353.38 211.414 Q1347.57 211.414 1344.49 206.831 Q1341.44 202.225 1341.44 193.498 Q1341.44 184.748 1344.49 180.165 Q1347.57 175.558 1353.38 175.558 Z" fill="#000000" fill-rule="nonzero" fill-opacity="1" /><path clip-path="url(#clip680)" d="M1373.54 204.864 L1378.43 204.864 L1378.43 210.743 L1373.54 210.743 L1373.54 204.864 Z" fill="#000000" fill-rule="nonzero" fill-opacity="1" /><path clip-path="url(#clip680)" d="M1402.78 192.109 Q1406.13 192.827 1408.01 195.095 Q1409.91 197.364 1409.91 200.697 Q1409.91 205.813 1406.39 208.614 Q1402.87 211.414 1396.39 211.414 Q1394.21 211.414 1391.9 210.975 Q1389.61 210.558 1387.15 209.702 L1387.15 205.188 Q1389.1 206.322 1391.41 206.901 Q1393.73 207.479 1396.25 207.479 Q1400.65 207.479 1402.94 205.743 Q1405.26 204.007 1405.26 200.697 Q1405.26 197.641 1403.1 195.928 Q1400.97 194.192 1397.15 194.192 L1393.13 194.192 L1393.13 190.35 L1397.34 190.35 Q1400.79 190.35 1402.62 188.984 Q1404.44 187.595 1404.44 185.003 Q1404.44 182.341 1402.55 180.929 Q1400.67 179.493 1397.15 179.493 Q1395.23 179.493 1393.03 179.91 Q1390.83 180.327 1388.19 181.206 L1388.19 177.04 Q1390.86 176.299 1393.17 175.929 Q1395.51 175.558 1397.57 175.558 Q1402.89 175.558 1406 177.989 Q1409.1 180.396 1409.1 184.516 Q1409.1 187.387 1407.45 189.378 Q1405.81 191.345 1402.78 192.109 Z" fill="#000000" fill-rule="nonzero" fill-opacity="1" /><path clip-path="url(#clip680)" d="M1352.25 114.168 Q1348.63 114.168 1346.81 117.733 Q1345 121.274 1345 128.404 Q1345 135.51 1346.81 139.075 Q1348.63 142.617 1352.25 142.617 Q1355.88 142.617 1357.69 139.075 Q1359.51 135.51 1359.51 128.404 Q1359.51 121.274 1357.69 117.733 Q1355.88 114.168 1352.25 114.168 M1352.25 110.464 Q1358.06 110.464 1361.11 115.071 Q1364.19 119.654 1364.19 128.404 Q1364.19 137.131 1361.11 141.737 Q1358.06 146.32 1352.25 146.32 Q1346.44 146.32 1343.36 141.737 Q1340.3 137.131 1340.3 128.404 Q1340.3 119.654 1343.36 115.071 Q1346.44 110.464 1352.25 110.464 Z" fill="#000000" fill-rule="nonzero" fill-opacity="1" /><path clip-path="url(#clip680)" d="M1372.41 139.77 L1377.29 139.77 L1377.29 145.649 L1372.41 145.649 L1372.41 139.77 Z" fill="#000000" fill-rule="nonzero" fill-opacity="1" /><path clip-path="url(#clip680)" d="M1400.32 115.163 L1388.52 133.612 L1400.32 133.612 L1400.32 115.163 M1399.1 111.089 L1404.98 111.089 L1404.98 133.612 L1409.91 133.612 L1409.91 137.501 L1404.98 137.501 L1404.98 145.649 L1400.32 145.649 L1400.32 137.501 L1384.72 137.501 L1384.72 132.987 L1399.1 111.089 Z" fill="#000000" fill-rule="nonzero" fill-opacity="1" /><path clip-path="url(#clip680)" d="M1353.73 49.0738 Q1350.12 49.0738 1348.29 52.6386 Q1346.48 56.1803 1346.48 63.3099 Q1346.48 70.4163 1348.29 73.9811 Q1350.12 77.5227 1353.73 77.5227 Q1357.36 77.5227 1359.17 73.9811 Q1361 70.4163 1361 63.3099 Q1361 56.1803 1359.17 52.6386 Q1357.36 49.0738 1353.73 49.0738 M1353.73 45.3701 Q1359.54 45.3701 1362.59 49.9766 Q1365.67 54.5599 1365.67 63.3099 Q1365.67 72.0367 1362.59 76.6431 Q1359.54 81.2264 1353.73 81.2264 Q1347.92 81.2264 1344.84 76.6431 Q1341.78 72.0367 1341.78 63.3099 Q1341.78 54.5599 1344.84 49.9766 Q1347.92 45.3701 1353.73 45.3701 Z" fill="#000000" fill-rule="nonzero" fill-opacity="1" /><path clip-path="url(#clip680)" d="M1373.89 74.6755 L1378.77 74.6755 L1378.77 80.5551 L1373.89 80.5551 L1373.89 74.6755 Z" fill="#000000" fill-rule="nonzero" fill-opacity="1" /><path clip-path="url(#clip680)" d="M1389.01 45.9951 L1407.36 45.9951 L1407.36 49.9303 L1393.29 49.9303 L1393.29 58.4025 Q1394.31 58.0553 1395.32 57.8932 Q1396.34 57.708 1397.36 57.708 Q1403.15 57.708 1406.53 60.8793 Q1409.91 64.0506 1409.91 69.4672 Q1409.91 75.0459 1406.44 78.1477 Q1402.96 81.2264 1396.64 81.2264 Q1394.47 81.2264 1392.2 80.8561 Q1389.95 80.4857 1387.55 79.745 L1387.55 75.0459 Q1389.63 76.1802 1391.85 76.7357 Q1394.07 77.2913 1396.55 77.2913 Q1400.56 77.2913 1402.89 75.1848 Q1405.23 73.0783 1405.23 69.4672 Q1405.23 65.8561 1402.89 63.7497 Q1400.56 61.6432 1396.55 61.6432 Q1394.68 61.6432 1392.8 62.0599 Q1390.95 62.4765 1389.01 63.3562 L1389.01 45.9951 Z" fill="#000000" fill-rule="nonzero" fill-opacity="1" /><path clip-path="url(#clip680)" d="M1265.47 298.084 Q1270.89 298.084 1276.97 299.823 Q1283.03 301.53 1287.92 304.235 Q1292.79 306.941 1296.01 310.483 Q1299.19 314.026 1299.19 317.408 Q1299.19 319.565 1298 321.176 Q1296.78 322.754 1294.75 323.623 Q1292.69 324.493 1290.43 324.912 Q1288.15 325.33 1285.67 325.33 Q1281.96 325.33 1277.94 324.525 Q1273.88 323.72 1270.21 322.367 Q1266.51 321.015 1263.16 319.115 Q1259.77 317.214 1257.33 315.121 Q1254.85 312.995 1253.4 310.612 Q1251.95 308.229 1251.95 306.007 Q1251.95 304.396 1252.66 303.108 Q1253.33 301.788 1254.52 300.95 Q1255.68 300.113 1257.07 299.533 Q1258.45 298.921 1260.06 298.632 Q1261.64 298.342 1262.96 298.213 Q1264.25 298.084 1265.47 298.084 M1261.38 302.432 Q1259.74 302.432 1258.52 302.561 Q1257.26 302.69 1256.01 303.044 Q1254.75 303.398 1254.07 304.171 Q1253.4 304.912 1253.4 306.071 Q1253.4 309.453 1260.32 313.253 Q1262.48 314.477 1265.41 315.572 Q1268.34 316.667 1269.73 317.053 Q1271.11 317.44 1274.52 318.342 L1274.52 304.558 Q1265.73 302.432 1261.38 302.432 M1276.62 305.137 L1276.62 318.857 Q1284.67 320.983 1289.69 320.983 Q1294.07 320.983 1295.91 320.081 Q1297.71 319.147 1297.71 317.408 Q1297.71 315.411 1295.72 313.543 Q1293.69 311.675 1290.02 309.775 Q1285.25 307.263 1276.62 305.137 Z" fill="#000000" fill-rule="nonzero" fill-opacity="1" /><path clip-path="url(#clip680)" d="M1248.99 253.776 Q1256.31 258.041 1263.47 260.11 Q1270.64 262.179 1277.99 262.179 Q1285.34 262.179 1292.57 260.11 Q1299.76 258.009 1307.05 253.776 L1307.05 258.869 Q1299.57 263.643 1292.34 266.03 Q1285.12 268.386 1277.99 268.386 Q1270.89 268.386 1263.7 266.03 Q1256.5 263.675 1248.99 258.869 L1248.99 253.776 Z" fill="#000000" fill-rule="nonzero" fill-opacity="1" /><path clip-path="url(#clip680)" d="M1268.28 221.757 Q1267.71 222.743 1267.45 223.921 Q1267.17 225.067 1267.17 226.467 Q1267.17 231.433 1270.41 234.106 Q1273.63 236.748 1279.67 236.748 L1298.45 236.748 L1298.45 242.636 L1262.81 242.636 L1262.81 236.748 L1268.34 236.748 Q1265.1 234.902 1263.54 231.942 Q1261.95 228.982 1261.95 224.749 Q1261.95 224.144 1262.04 223.412 Q1262.11 222.68 1262.26 221.789 L1268.28 221.757 Z" fill="#000000" fill-rule="nonzero" fill-opacity="1" /><path clip-path="url(#clip680)" d="M1280.53 199.413 Q1280.53 206.511 1282.16 209.248 Q1283.78 211.985 1287.7 211.985 Q1290.81 211.985 1292.66 209.948 Q1294.48 207.879 1294.48 204.347 Q1294.48 199.477 1291.04 196.549 Q1287.57 193.588 1281.84 193.588 L1280.53 193.588 L1280.53 199.413 M1278.12 187.732 L1298.45 187.732 L1298.45 193.588 L1293.04 193.588 Q1296.29 195.594 1297.85 198.586 Q1299.38 201.577 1299.38 205.906 Q1299.38 211.381 1296.32 214.627 Q1293.23 217.842 1288.08 217.842 Q1282.06 217.842 1279.01 213.831 Q1275.95 209.789 1275.95 201.8 L1275.95 193.588 L1275.38 193.588 Q1271.34 193.588 1269.14 196.262 Q1266.91 198.904 1266.91 203.71 Q1266.91 206.766 1267.64 209.662 Q1268.38 212.558 1269.84 215.232 L1264.43 215.232 Q1263.19 212.017 1262.58 208.993 Q1261.95 205.97 1261.95 203.105 Q1261.95 195.371 1265.96 191.551 Q1269.97 187.732 1278.12 187.732 Z" fill="#000000" fill-rule="nonzero" fill-opacity="1" /><path clip-path="url(#clip680)" d="M1268.22 152.211 L1248.93 152.211 L1248.93 146.355 L1298.45 146.355 L1298.45 152.211 L1293.11 152.211 Q1296.29 154.057 1297.85 156.89 Q1299.38 159.691 1299.38 163.638 Q1299.38 170.099 1294.22 174.173 Q1289.06 178.215 1280.66 178.215 Q1272.26 178.215 1267.1 174.173 Q1261.95 170.099 1261.95 163.638 Q1261.95 159.691 1263.51 156.89 Q1265.03 154.057 1268.22 152.211 M1280.66 172.168 Q1287.12 172.168 1290.81 169.526 Q1294.48 166.853 1294.48 162.206 Q1294.48 157.559 1290.81 154.885 Q1287.12 152.211 1280.66 152.211 Q1274.2 152.211 1270.54 154.885 Q1266.85 157.559 1266.85 162.206 Q1266.85 166.853 1270.54 169.526 Q1274.2 172.168 1280.66 172.168 Z" fill="#000000" fill-rule="nonzero" fill-opacity="1" /><path clip-path="url(#clip680)" d="M1248.99 135.215 L1248.99 130.122 Q1256.5 125.348 1263.7 122.993 Q1270.89 120.606 1277.99 120.606 Q1285.12 120.606 1292.34 122.993 Q1299.57 125.348 1307.05 130.122 L1307.05 135.215 Q1299.76 130.982 1292.57 128.913 Q1285.34 126.812 1277.99 126.812 Q1270.64 126.812 1263.47 128.913 Q1256.31 130.982 1248.99 135.215 Z" fill="#000000" fill-rule="nonzero" fill-opacity="1" /><polyline clip-path="url(#clip683)" style="stroke:#009af9; stroke-linecap:round; stroke-linejoin:round; stroke-width:4; stroke-opacity:1; fill:none" points="1471.57,388.745 1496.74,360.478 1521.9,296.356 1547.06,222.516 1572.22,156.436 1597.38,106.975 1622.55,76.2478 1647.71,62.1227 1672.87,60.4356 1698.03,66.5753 1723.2,76.441 1748.36,86.9148 1773.52,95.99 1798.68,102.674 1823.85,106.765 1849.01,108.582 1874.17,108.705 1899.33,107.781 1924.49,106.379 1949.66,104.929 1974.82,103.699 1999.98,102.813 2025.14,102.288 2050.31,102.071 2075.47,102.08 2100.63,102.223 2125.79,102.423 2150.95,102.624 2176.12,102.79 2201.28,102.907 2226.44,102.975 2251.6,103 2276.77,102.996 2301.93,102.974 2327.09,102.946 "/>
<polyline clip-path="url(#clip683)" style="stroke:#e26f46; stroke-linecap:round; stroke-linejoin:round; stroke-width:3; stroke-opacity:1; fill:none" stroke-dasharray="12, 6, 2, 6" points="1471.57,387.334 1496.74,361.585 1521.9,295.395 1547.06,210.535 1572.22,156.379 1597.38,105.072 1622.55,71.9608 1647.71,57.1907 1672.87,63.1338 1698.03,71.2861 1723.2,83.7062 1748.36,90.7038 1773.52,97.9379 1798.68,95.8443 1823.85,114.502 1849.01,108.354 1874.17,107.181 1899.33,103.589 1924.49,108.562 1949.66,101.403 1974.82,103.008 1999.98,98.3271 2025.14,97.2203 2050.31,100.199 2075.47,101.731 2100.63,101.055 2125.79,110.828 2150.95,97.6714 2176.12,106.239 2201.28,100.609 2226.44,100.048 2251.6,101.606 2276.77,100.008 2301.93,96.0845 2327.09,101.523 "/>
<path clip-path="url(#clip680)" d="M2203.01 386.977 L2322.53 386.977 L2322.53 231.457 L2203.01 231.457  Z" fill="#ffffff" fill-rule="evenodd" fill-opacity="1"/>
<polyline clip-path="url(#clip680)" style="stroke:#000000; stroke-linecap:round; stroke-linejoin:round; stroke-width:4; stroke-opacity:1; fill:none" points="2203.01,386.977 2322.53,386.977 2322.53,231.457 2203.01,231.457 2203.01,386.977 "/>
<polyline clip-path="url(#clip680)" style="stroke:#009af9; stroke-linecap:round; stroke-linejoin:round; stroke-width:4; stroke-opacity:1; fill:none" points="2213.09,283.297 2273.55,283.297 "/>
<path clip-path="url(#clip680)" d="M2310.63 293.836 L2305.36 293.695 L2299.6 293.836 L2299.6 291.587 L2301.47 291.587 L2296.2 285.357 L2291.54 290.58 L2291.21 291.049 Q2291.21 291.26 2291.75 291.423 Q2292.31 291.587 2292.97 291.587 L2292.97 293.836 L2288.03 293.695 L2283.62 293.836 L2283.62 291.587 Q2285.1 291.587 2285.78 291.564 Q2286.48 291.517 2287.28 291.306 Q2288.07 291.096 2288.47 290.674 L2294.75 283.624 L2287.28 274.794 L2283.86 274.794 L2283.86 272.545 L2289.15 272.686 L2294.94 272.545 L2294.94 274.794 L2293.01 274.794 L2297.72 280.298 L2301.75 275.801 Q2301.77 275.777 2302.15 275.215 Q2301.4 274.794 2300.32 274.794 L2300.32 272.545 L2305.26 272.686 L2309.67 272.545 L2309.67 274.794 Q2307.75 274.794 2306.74 274.934 Q2305.76 275.051 2305.45 275.215 Q2305.17 275.379 2304.77 275.801 L2299.17 282.031 L2307.23 291.587 L2310.63 291.587 L2310.63 293.836 Z" fill="#000000" fill-rule="nonzero" fill-opacity="1" /><polyline clip-path="url(#clip680)" style="stroke:#e26f46; stroke-linecap:round; stroke-linejoin:round; stroke-width:3; stroke-opacity:1; fill:none" stroke-dasharray="12, 6, 2, 6" points="2213.09,335.137 2273.55,335.137 "/>
<path clip-path="url(#clip680)" d="M2306.21 323.615 L2305.8 324.287 Q2303.26 323.189 2300.09 321.434 Q2296.93 323.189 2294.39 324.287 L2293.99 323.615 Q2296.76 321.205 2300.09 319.352 Q2303.45 321.221 2306.21 323.615 Z" fill="#000000" fill-rule="nonzero" fill-opacity="1" /><path clip-path="url(#clip680)" d="M2310.63 350.681 L2305.36 350.54 L2299.6 350.681 L2299.6 348.432 L2301.47 348.432 L2296.2 342.202 L2291.54 347.425 L2291.21 347.893 Q2291.21 348.104 2291.75 348.268 Q2292.31 348.432 2292.97 348.432 L2292.97 350.681 L2288.03 350.54 L2283.62 350.681 L2283.62 348.432 Q2285.1 348.432 2285.78 348.409 Q2286.48 348.362 2287.28 348.151 Q2288.07 347.94 2288.47 347.519 L2294.75 340.468 L2287.28 331.638 L2283.86 331.638 L2283.86 329.39 L2289.15 329.53 L2294.94 329.39 L2294.94 331.638 L2293.01 331.638 L2297.72 337.142 L2301.75 332.645 Q2301.77 332.622 2302.15 332.06 Q2301.4 331.638 2300.32 331.638 L2300.32 329.39 L2305.26 329.53 L2309.67 329.39 L2309.67 331.638 Q2307.75 331.638 2306.74 331.779 Q2305.76 331.896 2305.45 332.06 Q2305.17 332.224 2304.77 332.645 L2299.17 338.876 L2307.23 348.432 L2310.63 348.432 L2310.63 350.681 Z" fill="#000000" fill-rule="nonzero" fill-opacity="1" /><path clip-path="url(#clip680)" d="M1445.91 910.936 L2352.76 910.936 L2352.76 559.488 L1445.91 559.488  Z" fill="#ffffff" fill-rule="evenodd" fill-opacity="1"/>
<defs>
  <clipPath id="clip684">
    <rect x="1445" y="559" width="908" height="352"/>
  </clipPath>
</defs>
<polyline clip-path="url(#clip684)" style="stroke:#000000; stroke-linecap:round; stroke-linejoin:round; stroke-width:2; stroke-opacity:0.1; fill:none" points="1471.57,910.936 1471.57,559.488 "/>
<polyline clip-path="url(#clip684)" style="stroke:#000000; stroke-linecap:round; stroke-linejoin:round; stroke-width:2; stroke-opacity:0.1; fill:none" points="1723.2,910.936 1723.2,559.488 "/>
<polyline clip-path="url(#clip684)" style="stroke:#000000; stroke-linecap:round; stroke-linejoin:round; stroke-width:2; stroke-opacity:0.1; fill:none" points="1974.82,910.936 1974.82,559.488 "/>
<polyline clip-path="url(#clip684)" style="stroke:#000000; stroke-linecap:round; stroke-linejoin:round; stroke-width:2; stroke-opacity:0.1; fill:none" points="2226.44,910.936 2226.44,559.488 "/>
<polyline clip-path="url(#clip684)" style="stroke:#000000; stroke-linecap:round; stroke-linejoin:round; stroke-width:2; stroke-opacity:0.1; fill:none" points="1445.91,848.515 2352.76,848.515 "/>
<polyline clip-path="url(#clip684)" style="stroke:#000000; stroke-linecap:round; stroke-linejoin:round; stroke-width:2; stroke-opacity:0.1; fill:none" points="1445.91,781.991 2352.76,781.991 "/>
<polyline clip-path="url(#clip684)" style="stroke:#000000; stroke-linecap:round; stroke-linejoin:round; stroke-width:2; stroke-opacity:0.1; fill:none" points="1445.91,715.467 2352.76,715.467 "/>
<polyline clip-path="url(#clip684)" style="stroke:#000000; stroke-linecap:round; stroke-linejoin:round; stroke-width:2; stroke-opacity:0.1; fill:none" points="1445.91,648.943 2352.76,648.943 "/>
<polyline clip-path="url(#clip684)" style="stroke:#000000; stroke-linecap:round; stroke-linejoin:round; stroke-width:2; stroke-opacity:0.1; fill:none" points="1445.91,582.419 2352.76,582.419 "/>
<polyline clip-path="url(#clip680)" style="stroke:#000000; stroke-linecap:round; stroke-linejoin:round; stroke-width:4; stroke-opacity:1; fill:none" points="1445.91,910.936 2352.76,910.936 "/>
<polyline clip-path="url(#clip680)" style="stroke:#000000; stroke-linecap:round; stroke-linejoin:round; stroke-width:4; stroke-opacity:1; fill:none" points="1471.57,910.936 1471.57,892.038 "/>
<polyline clip-path="url(#clip680)" style="stroke:#000000; stroke-linecap:round; stroke-linejoin:round; stroke-width:4; stroke-opacity:1; fill:none" points="1723.2,910.936 1723.2,892.038 "/>
<polyline clip-path="url(#clip680)" style="stroke:#000000; stroke-linecap:round; stroke-linejoin:round; stroke-width:4; stroke-opacity:1; fill:none" points="1974.82,910.936 1974.82,892.038 "/>
<polyline clip-path="url(#clip680)" style="stroke:#000000; stroke-linecap:round; stroke-linejoin:round; stroke-width:4; stroke-opacity:1; fill:none" points="2226.44,910.936 2226.44,892.038 "/>
<path clip-path="url(#clip680)" d="M1471.57 941.855 Q1467.96 941.855 1466.13 945.419 Q1464.33 948.961 1464.33 956.091 Q1464.33 963.197 1466.13 966.762 Q1467.96 970.303 1471.57 970.303 Q1475.21 970.303 1477.01 966.762 Q1478.84 963.197 1478.84 956.091 Q1478.84 948.961 1477.01 945.419 Q1475.21 941.855 1471.57 941.855 M1471.57 938.151 Q1477.38 938.151 1480.44 942.757 Q1483.52 947.341 1483.52 956.091 Q1483.52 964.817 1480.44 969.424 Q1477.38 974.007 1471.57 974.007 Q1465.76 974.007 1462.68 969.424 Q1459.63 964.817 1459.63 956.091 Q1459.63 947.341 1462.68 942.757 Q1465.76 938.151 1471.57 938.151 Z" fill="#000000" fill-rule="nonzero" fill-opacity="1" /><path clip-path="url(#clip680)" d="M1713.58 969.401 L1721.22 969.401 L1721.22 943.035 L1712.91 944.702 L1712.91 940.443 L1721.17 938.776 L1725.85 938.776 L1725.85 969.401 L1733.49 969.401 L1733.49 973.336 L1713.58 973.336 L1713.58 969.401 Z" fill="#000000" fill-rule="nonzero" fill-opacity="1" /><path clip-path="url(#clip680)" d="M1969.47 969.401 L1985.79 969.401 L1985.79 973.336 L1963.85 973.336 L1963.85 969.401 Q1966.51 966.646 1971.09 962.016 Q1975.7 957.364 1976.88 956.021 Q1979.12 953.498 1980 951.762 Q1980.91 950.003 1980.91 948.313 Q1980.91 945.558 1978.96 943.822 Q1977.04 942.086 1973.94 942.086 Q1971.74 942.086 1969.29 942.85 Q1966.86 943.614 1964.08 945.165 L1964.08 940.443 Q1966.9 939.308 1969.36 938.73 Q1971.81 938.151 1973.85 938.151 Q1979.22 938.151 1982.41 940.836 Q1985.61 943.521 1985.61 948.012 Q1985.61 950.142 1984.8 952.063 Q1984.01 953.961 1981.9 956.554 Q1981.32 957.225 1978.22 960.442 Q1975.12 963.637 1969.47 969.401 Z" fill="#000000" fill-rule="nonzero" fill-opacity="1" /><path clip-path="url(#clip680)" d="M2230.69 954.702 Q2234.05 955.419 2235.92 957.688 Q2237.82 959.956 2237.82 963.29 Q2237.82 968.405 2234.3 971.206 Q2230.78 974.007 2224.3 974.007 Q2222.12 974.007 2219.81 973.567 Q2217.52 973.151 2215.06 972.294 L2215.06 967.78 Q2217.01 968.915 2219.32 969.493 Q2221.64 970.072 2224.16 970.072 Q2228.56 970.072 2230.85 968.336 Q2233.17 966.6 2233.17 963.29 Q2233.17 960.234 2231.01 958.521 Q2228.88 956.785 2225.06 956.785 L2221.04 956.785 L2221.04 952.942 L2225.25 952.942 Q2228.7 952.942 2230.53 951.577 Q2232.36 950.188 2232.36 947.595 Q2232.36 944.933 2230.46 943.521 Q2228.58 942.086 2225.06 942.086 Q2223.14 942.086 2220.94 942.503 Q2218.74 942.919 2216.11 943.799 L2216.11 939.632 Q2218.77 938.892 2221.08 938.521 Q2223.42 938.151 2225.48 938.151 Q2230.8 938.151 2233.91 940.581 Q2237.01 942.989 2237.01 947.109 Q2237.01 949.979 2235.36 951.97 Q2233.72 953.938 2230.69 954.702 Z" fill="#000000" fill-rule="nonzero" fill-opacity="1" /><polyline clip-path="url(#clip680)" style="stroke:#000000; stroke-linecap:round; stroke-linejoin:round; stroke-width:4; stroke-opacity:1; fill:none" points="1445.91,910.936 1445.91,559.488 "/>
<polyline clip-path="url(#clip680)" style="stroke:#000000; stroke-linecap:round; stroke-linejoin:round; stroke-width:4; stroke-opacity:1; fill:none" points="1445.91,848.515 1464.81,848.515 "/>
<polyline clip-path="url(#clip680)" style="stroke:#000000; stroke-linecap:round; stroke-linejoin:round; stroke-width:4; stroke-opacity:1; fill:none" points="1445.91,781.991 1464.81,781.991 "/>
<polyline clip-path="url(#clip680)" style="stroke:#000000; stroke-linecap:round; stroke-linejoin:round; stroke-width:4; stroke-opacity:1; fill:none" points="1445.91,715.467 1464.81,715.467 "/>
<polyline clip-path="url(#clip680)" style="stroke:#000000; stroke-linecap:round; stroke-linejoin:round; stroke-width:4; stroke-opacity:1; fill:none" points="1445.91,648.943 1464.81,648.943 "/>
<polyline clip-path="url(#clip680)" style="stroke:#000000; stroke-linecap:round; stroke-linejoin:round; stroke-width:4; stroke-opacity:1; fill:none" points="1445.91,582.419 1464.81,582.419 "/>
<path clip-path="url(#clip680)" d="M1352.73 834.314 Q1349.12 834.314 1347.29 837.879 Q1345.49 841.42 1345.49 848.55 Q1345.49 855.656 1347.29 859.221 Q1349.12 862.763 1352.73 862.763 Q1356.37 862.763 1358.17 859.221 Q1360 855.656 1360 848.55 Q1360 841.42 1358.17 837.879 Q1356.37 834.314 1352.73 834.314 M1352.73 830.61 Q1358.54 830.61 1361.6 835.217 Q1364.68 839.8 1364.68 848.55 Q1364.68 857.277 1361.6 861.883 Q1358.54 866.467 1352.73 866.467 Q1346.92 866.467 1343.84 861.883 Q1340.79 857.277 1340.79 848.55 Q1340.79 839.8 1343.84 835.217 Q1346.92 830.61 1352.73 830.61 Z" fill="#000000" fill-rule="nonzero" fill-opacity="1" /><path clip-path="url(#clip680)" d="M1372.89 859.916 L1377.78 859.916 L1377.78 865.795 L1372.89 865.795 L1372.89 859.916 Z" fill="#000000" fill-rule="nonzero" fill-opacity="1" /><path clip-path="url(#clip680)" d="M1397.96 834.314 Q1394.35 834.314 1392.52 837.879 Q1390.72 841.42 1390.72 848.55 Q1390.72 855.656 1392.52 859.221 Q1394.35 862.763 1397.96 862.763 Q1401.6 862.763 1403.4 859.221 Q1405.23 855.656 1405.23 848.55 Q1405.23 841.42 1403.4 837.879 Q1401.6 834.314 1397.96 834.314 M1397.96 830.61 Q1403.77 830.61 1406.83 835.217 Q1409.91 839.8 1409.91 848.55 Q1409.91 857.277 1406.83 861.883 Q1403.77 866.467 1397.96 866.467 Q1392.15 866.467 1389.07 861.883 Q1386.02 857.277 1386.02 848.55 Q1386.02 839.8 1389.07 835.217 Q1392.15 830.61 1397.96 830.61 Z" fill="#000000" fill-rule="nonzero" fill-opacity="1" /><path clip-path="url(#clip680)" d="M1353.38 767.79 Q1349.77 767.79 1347.94 771.355 Q1346.13 774.896 1346.13 782.026 Q1346.13 789.132 1347.94 792.697 Q1349.77 796.239 1353.38 796.239 Q1357.01 796.239 1358.82 792.697 Q1360.65 789.132 1360.65 782.026 Q1360.65 774.896 1358.82 771.355 Q1357.01 767.79 1353.38 767.79 M1353.38 764.086 Q1359.19 764.086 1362.25 768.693 Q1365.32 773.276 1365.32 782.026 Q1365.32 790.753 1362.25 795.359 Q1359.19 799.943 1353.38 799.943 Q1347.57 799.943 1344.49 795.359 Q1341.44 790.753 1341.44 782.026 Q1341.44 773.276 1344.49 768.693 Q1347.57 764.086 1353.38 764.086 Z" fill="#000000" fill-rule="nonzero" fill-opacity="1" /><path clip-path="url(#clip680)" d="M1373.54 793.392 L1378.43 793.392 L1378.43 799.271 L1373.54 799.271 L1373.54 793.392 Z" fill="#000000" fill-rule="nonzero" fill-opacity="1" /><path clip-path="url(#clip680)" d="M1402.78 780.637 Q1406.13 781.355 1408.01 783.623 Q1409.91 785.892 1409.91 789.225 Q1409.91 794.341 1406.39 797.142 Q1402.87 799.943 1396.39 799.943 Q1394.21 799.943 1391.9 799.503 Q1389.61 799.086 1387.15 798.23 L1387.15 793.716 Q1389.1 794.85 1391.41 795.429 Q1393.73 796.007 1396.25 796.007 Q1400.65 796.007 1402.94 794.271 Q1405.26 792.535 1405.26 789.225 Q1405.26 786.169 1403.1 784.457 Q1400.97 782.72 1397.15 782.72 L1393.13 782.72 L1393.13 778.878 L1397.34 778.878 Q1400.79 778.878 1402.62 777.512 Q1404.44 776.123 1404.44 773.531 Q1404.44 770.869 1402.55 769.457 Q1400.67 768.021 1397.15 768.021 Q1395.23 768.021 1393.03 768.438 Q1390.83 768.855 1388.19 769.734 L1388.19 765.568 Q1390.86 764.827 1393.17 764.457 Q1395.51 764.086 1397.57 764.086 Q1402.89 764.086 1406 766.517 Q1409.1 768.924 1409.1 773.045 Q1409.1 775.915 1407.45 777.906 Q1405.81 779.873 1402.78 780.637 Z" fill="#000000" fill-rule="nonzero" fill-opacity="1" /><path clip-path="url(#clip680)" d="M1352.57 701.266 Q1348.96 701.266 1347.13 704.831 Q1345.32 708.372 1345.32 715.502 Q1345.32 722.608 1347.13 726.173 Q1348.96 729.715 1352.57 729.715 Q1356.2 729.715 1358.01 726.173 Q1359.84 722.608 1359.84 715.502 Q1359.84 708.372 1358.01 704.831 Q1356.2 701.266 1352.57 701.266 M1352.57 697.562 Q1358.38 697.562 1361.44 702.169 Q1364.51 706.752 1364.51 715.502 Q1364.51 724.229 1361.44 728.835 Q1358.38 733.419 1352.57 733.419 Q1346.76 733.419 1343.68 728.835 Q1340.63 724.229 1340.63 715.502 Q1340.63 706.752 1343.68 702.169 Q1346.76 697.562 1352.57 697.562 Z" fill="#000000" fill-rule="nonzero" fill-opacity="1" /><path clip-path="url(#clip680)" d="M1372.73 726.868 L1377.62 726.868 L1377.62 732.747 L1372.73 732.747 L1372.73 726.868 Z" fill="#000000" fill-rule="nonzero" fill-opacity="1" /><path clip-path="url(#clip680)" d="M1398.38 713.604 Q1395.23 713.604 1393.38 715.757 Q1391.55 717.909 1391.55 721.659 Q1391.55 725.386 1393.38 727.562 Q1395.23 729.715 1398.38 729.715 Q1401.53 729.715 1403.36 727.562 Q1405.21 725.386 1405.21 721.659 Q1405.21 717.909 1403.36 715.757 Q1401.53 713.604 1398.38 713.604 M1407.66 698.951 L1407.66 703.21 Q1405.9 702.377 1404.1 701.937 Q1402.32 701.497 1400.56 701.497 Q1395.93 701.497 1393.47 704.622 Q1391.04 707.747 1390.69 714.067 Q1392.06 712.053 1394.12 710.988 Q1396.18 709.9 1398.66 709.9 Q1403.87 709.9 1406.88 713.071 Q1409.91 716.22 1409.91 721.659 Q1409.91 726.983 1406.76 730.201 Q1403.61 733.419 1398.38 733.419 Q1392.38 733.419 1389.21 728.835 Q1386.04 724.229 1386.04 715.502 Q1386.04 707.308 1389.93 702.447 Q1393.82 697.562 1400.37 697.562 Q1402.13 697.562 1403.91 697.909 Q1405.72 698.257 1407.66 698.951 Z" fill="#000000" fill-rule="nonzero" fill-opacity="1" /><path clip-path="url(#clip680)" d="M1352.92 634.742 Q1349.31 634.742 1347.48 638.307 Q1345.67 641.848 1345.67 648.978 Q1345.67 656.084 1347.48 659.649 Q1349.31 663.191 1352.92 663.191 Q1356.55 663.191 1358.36 659.649 Q1360.19 656.084 1360.19 648.978 Q1360.19 641.848 1358.36 638.307 Q1356.55 634.742 1352.92 634.742 M1352.92 631.038 Q1358.73 631.038 1361.78 635.645 Q1364.86 640.228 1364.86 648.978 Q1364.86 657.705 1361.78 662.311 Q1358.73 666.895 1352.92 666.895 Q1347.11 666.895 1344.03 662.311 Q1340.97 657.705 1340.97 648.978 Q1340.97 640.228 1344.03 635.645 Q1347.11 631.038 1352.92 631.038 Z" fill="#000000" fill-rule="nonzero" fill-opacity="1" /><path clip-path="url(#clip680)" d="M1373.08 660.344 L1377.96 660.344 L1377.96 666.223 L1373.08 666.223 L1373.08 660.344 Z" fill="#000000" fill-rule="nonzero" fill-opacity="1" /><path clip-path="url(#clip680)" d="M1388.29 665.506 L1388.29 661.246 Q1390.05 662.08 1391.85 662.52 Q1393.66 662.959 1395.39 662.959 Q1400.02 662.959 1402.45 659.858 Q1404.91 656.733 1405.26 650.39 Q1403.91 652.381 1401.85 653.446 Q1399.79 654.51 1397.29 654.51 Q1392.11 654.51 1389.07 651.385 Q1386.07 648.237 1386.07 642.797 Q1386.07 637.473 1389.21 634.256 Q1392.36 631.038 1397.59 631.038 Q1403.59 631.038 1406.74 635.645 Q1409.91 640.228 1409.91 648.978 Q1409.91 657.149 1406.02 662.033 Q1402.15 666.895 1395.6 666.895 Q1393.84 666.895 1392.04 666.547 Q1390.23 666.2 1388.29 665.506 M1397.59 650.853 Q1400.74 650.853 1402.57 648.7 Q1404.42 646.547 1404.42 642.797 Q1404.42 639.071 1402.57 636.918 Q1400.74 634.742 1397.59 634.742 Q1394.44 634.742 1392.59 636.918 Q1390.76 639.071 1390.76 642.797 Q1390.76 646.547 1392.59 648.7 Q1394.44 650.853 1397.59 650.853 Z" fill="#000000" fill-rule="nonzero" fill-opacity="1" /><path clip-path="url(#clip680)" d="M1345.14 595.764 L1352.78 595.764 L1352.78 569.399 L1344.47 571.065 L1344.47 566.806 L1352.73 565.139 L1357.41 565.139 L1357.41 595.764 L1365.05 595.764 L1365.05 599.699 L1345.14 599.699 L1345.14 595.764 Z" fill="#000000" fill-rule="nonzero" fill-opacity="1" /><path clip-path="url(#clip680)" d="M1374.49 593.82 L1379.38 593.82 L1379.38 599.699 L1374.49 599.699 L1374.49 593.82 Z" fill="#000000" fill-rule="nonzero" fill-opacity="1" /><path clip-path="url(#clip680)" d="M1393.59 595.764 L1409.91 595.764 L1409.91 599.699 L1387.96 599.699 L1387.96 595.764 Q1390.63 593.01 1395.21 588.38 Q1399.82 583.727 1401 582.385 Q1403.24 579.861 1404.12 578.125 Q1405.02 576.366 1405.02 574.676 Q1405.02 571.922 1403.08 570.186 Q1401.16 568.449 1398.06 568.449 Q1395.86 568.449 1393.4 569.213 Q1390.97 569.977 1388.19 571.528 L1388.19 566.806 Q1391.02 565.672 1393.47 565.093 Q1395.93 564.514 1397.96 564.514 Q1403.33 564.514 1406.53 567.199 Q1409.72 569.885 1409.72 574.375 Q1409.72 576.505 1408.91 578.426 Q1408.13 580.324 1406.02 582.917 Q1405.44 583.588 1402.34 586.806 Q1399.24 590 1393.59 595.764 Z" fill="#000000" fill-rule="nonzero" fill-opacity="1" /><path clip-path="url(#clip680)" d="M1265.64 831.559 Q1268.64 831.559 1274.44 833.072 Q1276.95 833.684 1279.23 834.522 Q1281.49 835.327 1283.68 836.518 Q1285.87 837.71 1287.45 839.095 Q1288.99 840.48 1289.96 842.283 Q1290.92 844.087 1290.92 846.084 Q1290.92 849.24 1289.06 851.108 Q1287.16 852.943 1283.9 853.523 Q1290.92 857.839 1290.92 863.604 Q1290.92 867.178 1288.38 868.853 Q1285.8 870.528 1281.49 870.528 Q1277.85 870.528 1274.08 869.562 Q1266.93 867.726 1261.94 864.151 Q1261.36 863.668 1261.36 862.959 Q1261.36 862.541 1261.49 862.347 Q1261.84 861.768 1262.42 861.768 Q1262.84 861.768 1263.26 862.09 Q1266.38 864.344 1269.06 865.826 Q1271.73 867.307 1274.44 867.984 Q1276.75 868.499 1278.72 868.499 Q1282.04 868.499 1284.1 867.082 Q1286.16 865.632 1286.16 862.766 Q1286.16 860.125 1284.52 857.806 Q1282.84 855.488 1280.04 853.781 Q1276.98 853.684 1274.08 852.943 Q1270.99 852.267 1270.99 850.689 Q1270.99 849.433 1272.7 849.433 Q1273.28 849.433 1274.44 849.691 Q1277.49 850.399 1280.23 851.687 Q1282.91 851.236 1284.55 849.562 Q1286.16 847.887 1286.16 845.214 Q1286.16 842.734 1284.35 840.544 Q1282.55 838.322 1279.91 836.905 Q1277.24 835.456 1274.08 834.65 Q1273.02 834.393 1271.67 834.393 Q1268.06 834.393 1265.84 836.905 Q1265.13 837.613 1264.19 837.613 Q1263.1 837.613 1262.1 836.712 Q1261.04 835.649 1261.04 834.393 Q1261.04 833.459 1261.62 832.879 Q1262.78 831.559 1265.64 831.559 Z" fill="#000000" fill-rule="nonzero" fill-opacity="1" /><path clip-path="url(#clip680)" d="M1240.72 788.989 Q1248.04 793.255 1255.2 795.323 Q1262.37 797.392 1269.72 797.392 Q1277.07 797.392 1284.3 795.323 Q1291.49 793.223 1298.78 788.989 L1298.78 794.082 Q1291.3 798.856 1284.07 801.243 Q1276.85 803.599 1269.72 803.599 Q1262.62 803.599 1255.43 801.243 Q1248.23 798.888 1240.72 794.082 L1240.72 788.989 Z" fill="#000000" fill-rule="nonzero" fill-opacity="1" /><path clip-path="url(#clip680)" d="M1260.01 756.97 Q1259.44 757.957 1259.18 759.134 Q1258.9 760.28 1258.9 761.681 Q1258.9 766.646 1262.14 769.319 Q1265.36 771.961 1271.41 771.961 L1290.18 771.961 L1290.18 777.85 L1254.54 777.85 L1254.54 771.961 L1260.07 771.961 Q1256.83 770.115 1255.27 767.155 Q1253.68 764.195 1253.68 759.962 Q1253.68 759.357 1253.77 758.625 Q1253.84 757.893 1254 757.002 L1260.01 756.97 Z" fill="#000000" fill-rule="nonzero" fill-opacity="1" /><path clip-path="url(#clip680)" d="M1272.26 734.626 Q1272.26 741.724 1273.89 744.461 Q1275.51 747.199 1279.43 747.199 Q1282.55 747.199 1284.39 745.162 Q1286.21 743.093 1286.21 739.56 Q1286.21 734.69 1282.77 731.762 Q1279.3 728.802 1273.57 728.802 L1272.26 728.802 L1272.26 734.626 M1269.85 722.945 L1290.18 722.945 L1290.18 728.802 L1284.77 728.802 Q1288.02 730.807 1289.58 733.799 Q1291.11 736.791 1291.11 741.119 Q1291.11 746.594 1288.05 749.84 Q1284.96 753.055 1279.81 753.055 Q1273.79 753.055 1270.74 749.045 Q1267.68 745.002 1267.68 737.013 L1267.68 728.802 L1267.11 728.802 Q1263.07 728.802 1260.87 731.475 Q1258.64 734.117 1258.64 738.923 Q1258.64 741.979 1259.37 744.875 Q1260.11 747.772 1261.57 750.445 L1256.16 750.445 Q1254.92 747.23 1254.31 744.207 Q1253.68 741.183 1253.68 738.318 Q1253.68 730.584 1257.69 726.765 Q1261.7 722.945 1269.85 722.945 Z" fill="#000000" fill-rule="nonzero" fill-opacity="1" /><path clip-path="url(#clip680)" d="M1259.95 687.425 L1240.66 687.425 L1240.66 681.568 L1290.18 681.568 L1290.18 687.425 L1284.84 687.425 Q1288.02 689.271 1289.58 692.103 Q1291.11 694.904 1291.11 698.851 Q1291.11 705.312 1285.95 709.386 Q1280.79 713.429 1272.39 713.429 Q1263.99 713.429 1258.83 709.386 Q1253.68 705.312 1253.68 698.851 Q1253.68 694.904 1255.24 692.103 Q1256.76 689.271 1259.95 687.425 M1272.39 707.381 Q1278.85 707.381 1282.55 704.739 Q1286.21 702.066 1286.21 697.419 Q1286.21 692.772 1282.55 690.098 Q1278.85 687.425 1272.39 687.425 Q1265.93 687.425 1262.27 690.098 Q1258.58 692.772 1258.58 697.419 Q1258.58 702.066 1262.27 704.739 Q1265.93 707.381 1272.39 707.381 Z" fill="#000000" fill-rule="nonzero" fill-opacity="1" /><path clip-path="url(#clip680)" d="M1242.66 659.097 L1242.66 653.686 L1296.23 670.237 L1296.23 675.648 L1242.66 659.097 Z" fill="#000000" fill-rule="nonzero" fill-opacity="1" /><path clip-path="url(#clip680)" d="M1255.59 624.818 L1261.12 624.818 Q1259.85 627.301 1259.21 629.974 Q1258.58 632.648 1258.58 635.512 Q1258.58 639.873 1259.92 642.069 Q1261.25 644.233 1263.93 644.233 Q1265.96 644.233 1267.14 642.674 Q1268.29 641.114 1269.34 636.404 L1269.78 634.398 Q1271.12 628.16 1273.57 625.55 Q1275.99 622.908 1280.35 622.908 Q1285.31 622.908 1288.21 626.855 Q1291.11 630.77 1291.11 637.645 Q1291.11 640.509 1290.53 643.629 Q1289.99 646.716 1288.88 650.153 L1282.83 650.153 Q1284.52 646.907 1285.38 643.756 Q1286.21 640.605 1286.21 637.517 Q1286.21 633.38 1284.81 631.152 Q1283.37 628.924 1280.79 628.924 Q1278.41 628.924 1277.13 630.547 Q1275.86 632.138 1274.68 637.581 L1274.21 639.618 Q1273.06 645.061 1270.71 647.48 Q1268.32 649.899 1264.18 649.899 Q1259.15 649.899 1256.41 646.334 Q1253.68 642.769 1253.68 636.213 Q1253.68 632.966 1254.15 630.101 Q1254.63 627.237 1255.59 624.818 Z" fill="#000000" fill-rule="nonzero" fill-opacity="1" /><path clip-path="url(#clip680)" d="M1240.72 614.505 L1240.72 609.413 Q1248.23 604.639 1255.43 602.283 Q1262.62 599.896 1269.72 599.896 Q1276.85 599.896 1284.07 602.283 Q1291.3 604.639 1298.78 609.413 L1298.78 614.505 Q1291.49 610.272 1284.3 608.203 Q1277.07 606.103 1269.72 606.103 Q1262.37 606.103 1255.2 608.203 Q1248.04 610.272 1240.72 614.505 Z" fill="#000000" fill-rule="nonzero" fill-opacity="1" /><polyline clip-path="url(#clip684)" style="stroke:#009af9; stroke-linecap:round; stroke-linejoin:round; stroke-width:4; stroke-opacity:1; fill:none" points="1471.57,848.515 1496.74,673.927 1521.9,600.91 1547.06,602.845 1572.22,648.919 1597.38,712.28 1622.55,774.183 1647.71,824.26 1672.87,858.681 1698.03,877.874 1723.2,884.619 1748.36,882.642 1773.52,875.661 1798.68,866.797 1823.85,858.287 1849.01,851.445 1874.17,846.79 1899.33,844.262 1924.49,843.46 1949.66,843.842 1974.82,844.876 1999.98,846.127 2025.14,847.296 2050.31,848.214 2075.47,848.822 2100.63,849.139 2125.79,849.224 2150.95,849.154 2176.12,849.003 2201.28,848.827 2226.44,848.667 2251.6,848.544 2276.77,848.464 2301.93,848.425 2327.09,848.416 "/>
<polyline clip-path="url(#clip684)" style="stroke:#e26f46; stroke-linecap:round; stroke-linejoin:round; stroke-width:3; stroke-opacity:1; fill:none" stroke-dasharray="12, 6, 2, 6" points="1471.57,848.515 1496.74,672.957 1521.9,587.648 1547.06,569.435 1572.22,654.139 1597.38,711.973 1622.55,775.294 1647.71,831.587 1672.87,880.71 1698.03,896.297 1723.2,900.989 1748.36,888.779 1773.52,879.644 1798.68,860.705 1823.85,878.594 1849.01,848.823 1874.17,845.211 1899.33,841.458 1924.49,851.837 1949.66,839.609 1974.82,847.889 1999.98,842.935 2025.14,846.735 2050.31,853.392 2075.47,853.052 2100.63,849.537 2125.79,861.078 2150.95,834.458 2176.12,854.86 2201.28,842.855 2226.44,846.14 2251.6,850.199 2276.77,847.365 2301.93,843.823 2327.09,855.031 "/>
<path clip-path="url(#clip680)" d="M2203.01 726.723 L2322.53 726.723 L2322.53 571.203 L2203.01 571.203  Z" fill="#ffffff" fill-rule="evenodd" fill-opacity="1"/>
<polyline clip-path="url(#clip680)" style="stroke:#000000; stroke-linecap:round; stroke-linejoin:round; stroke-width:4; stroke-opacity:1; fill:none" points="2203.01,726.723 2322.53,726.723 2322.53,571.203 2203.01,571.203 2203.01,726.723 "/>
<polyline clip-path="url(#clip680)" style="stroke:#009af9; stroke-linecap:round; stroke-linejoin:round; stroke-width:4; stroke-opacity:1; fill:none" points="2213.09,623.043 2273.55,623.043 "/>
<path clip-path="url(#clip680)" d="M2310.63 633.582 L2305.36 633.442 L2299.6 633.582 L2299.6 631.334 L2301.47 631.334 L2296.2 625.103 L2291.54 630.326 L2291.21 630.795 Q2291.21 631.006 2291.75 631.17 Q2292.31 631.334 2292.97 631.334 L2292.97 633.582 L2288.03 633.442 L2283.62 633.582 L2283.62 631.334 Q2285.1 631.334 2285.78 631.31 Q2286.48 631.263 2287.28 631.052 Q2288.07 630.842 2288.47 630.42 L2294.75 623.37 L2287.28 614.54 L2283.86 614.54 L2283.86 612.291 L2289.15 612.432 L2294.94 612.291 L2294.94 614.54 L2293.01 614.54 L2297.72 620.044 L2301.75 615.547 Q2301.77 615.523 2302.15 614.961 Q2301.4 614.54 2300.32 614.54 L2300.32 612.291 L2305.26 612.432 L2309.67 612.291 L2309.67 614.54 Q2307.75 614.54 2306.74 614.68 Q2305.76 614.797 2305.45 614.961 Q2305.17 615.125 2304.77 615.547 L2299.17 621.777 L2307.23 631.334 L2310.63 631.334 L2310.63 633.582 Z" fill="#000000" fill-rule="nonzero" fill-opacity="1" /><polyline clip-path="url(#clip680)" style="stroke:#e26f46; stroke-linecap:round; stroke-linejoin:round; stroke-width:3; stroke-opacity:1; fill:none" stroke-dasharray="12, 6, 2, 6" points="2213.09,674.883 2273.55,674.883 "/>
<path clip-path="url(#clip680)" d="M2306.21 663.361 L2305.8 664.033 Q2303.26 662.935 2300.09 661.18 Q2296.93 662.935 2294.39 664.033 L2293.99 663.361 Q2296.76 660.951 2300.09 659.098 Q2303.45 660.967 2306.21 663.361 Z" fill="#000000" fill-rule="nonzero" fill-opacity="1" /><path clip-path="url(#clip680)" d="M2310.63 690.427 L2305.36 690.286 L2299.6 690.427 L2299.6 688.178 L2301.47 688.178 L2296.2 681.948 L2291.54 687.171 L2291.21 687.639 Q2291.21 687.85 2291.75 688.014 Q2292.31 688.178 2292.97 688.178 L2292.97 690.427 L2288.03 690.286 L2283.62 690.427 L2283.62 688.178 Q2285.1 688.178 2285.78 688.155 Q2286.48 688.108 2287.28 687.897 Q2288.07 687.686 2288.47 687.265 L2294.75 680.214 L2287.28 671.384 L2283.86 671.384 L2283.86 669.136 L2289.15 669.276 L2294.94 669.136 L2294.94 671.384 L2293.01 671.384 L2297.72 676.888 L2301.75 672.391 Q2301.77 672.368 2302.15 671.806 Q2301.4 671.384 2300.32 671.384 L2300.32 669.136 L2305.26 669.276 L2309.67 669.136 L2309.67 671.384 Q2307.75 671.384 2306.74 671.525 Q2305.76 671.642 2305.45 671.806 Q2305.17 671.97 2304.77 672.391 L2299.17 678.622 L2307.23 688.178 L2310.63 688.178 L2310.63 690.427 Z" fill="#000000" fill-rule="nonzero" fill-opacity="1" /><path clip-path="url(#clip680)" d="M1445.91 1423.18 L2352.76 1423.18 L2352.76 1071.73 L1445.91 1071.73  Z" fill="#ffffff" fill-rule="evenodd" fill-opacity="1"/>
<defs>
  <clipPath id="clip685">
    <rect x="1445" y="1071" width="908" height="352"/>
  </clipPath>
</defs>
<polyline clip-path="url(#clip685)" style="stroke:#000000; stroke-linecap:round; stroke-linejoin:round; stroke-width:2; stroke-opacity:0.1; fill:none" points="1471.57,1423.18 1471.57,1071.73 "/>
<polyline clip-path="url(#clip685)" style="stroke:#000000; stroke-linecap:round; stroke-linejoin:round; stroke-width:2; stroke-opacity:0.1; fill:none" points="1723.2,1423.18 1723.2,1071.73 "/>
<polyline clip-path="url(#clip685)" style="stroke:#000000; stroke-linecap:round; stroke-linejoin:round; stroke-width:2; stroke-opacity:0.1; fill:none" points="1974.82,1423.18 1974.82,1071.73 "/>
<polyline clip-path="url(#clip685)" style="stroke:#000000; stroke-linecap:round; stroke-linejoin:round; stroke-width:2; stroke-opacity:0.1; fill:none" points="2226.44,1423.18 2226.44,1071.73 "/>
<polyline clip-path="url(#clip685)" style="stroke:#000000; stroke-linecap:round; stroke-linejoin:round; stroke-width:2; stroke-opacity:0.1; fill:none" points="1445.91,1391.04 2352.76,1391.04 "/>
<polyline clip-path="url(#clip685)" style="stroke:#000000; stroke-linecap:round; stroke-linejoin:round; stroke-width:2; stroke-opacity:0.1; fill:none" points="1445.91,1322.03 2352.76,1322.03 "/>
<polyline clip-path="url(#clip685)" style="stroke:#000000; stroke-linecap:round; stroke-linejoin:round; stroke-width:2; stroke-opacity:0.1; fill:none" points="1445.91,1253.01 2352.76,1253.01 "/>
<polyline clip-path="url(#clip685)" style="stroke:#000000; stroke-linecap:round; stroke-linejoin:round; stroke-width:2; stroke-opacity:0.1; fill:none" points="1445.91,1184 2352.76,1184 "/>
<polyline clip-path="url(#clip685)" style="stroke:#000000; stroke-linecap:round; stroke-linejoin:round; stroke-width:2; stroke-opacity:0.1; fill:none" points="1445.91,1114.99 2352.76,1114.99 "/>
<polyline clip-path="url(#clip680)" style="stroke:#000000; stroke-linecap:round; stroke-linejoin:round; stroke-width:4; stroke-opacity:1; fill:none" points="1445.91,1423.18 2352.76,1423.18 "/>
<polyline clip-path="url(#clip680)" style="stroke:#000000; stroke-linecap:round; stroke-linejoin:round; stroke-width:4; stroke-opacity:1; fill:none" points="1471.57,1423.18 1471.57,1404.28 "/>
<polyline clip-path="url(#clip680)" style="stroke:#000000; stroke-linecap:round; stroke-linejoin:round; stroke-width:4; stroke-opacity:1; fill:none" points="1723.2,1423.18 1723.2,1404.28 "/>
<polyline clip-path="url(#clip680)" style="stroke:#000000; stroke-linecap:round; stroke-linejoin:round; stroke-width:4; stroke-opacity:1; fill:none" points="1974.82,1423.18 1974.82,1404.28 "/>
<polyline clip-path="url(#clip680)" style="stroke:#000000; stroke-linecap:round; stroke-linejoin:round; stroke-width:4; stroke-opacity:1; fill:none" points="2226.44,1423.18 2226.44,1404.28 "/>
<path clip-path="url(#clip680)" d="M1471.57 1454.1 Q1467.96 1454.1 1466.13 1457.66 Q1464.33 1461.2 1464.33 1468.33 Q1464.33 1475.44 1466.13 1479.01 Q1467.96 1482.55 1471.57 1482.55 Q1475.21 1482.55 1477.01 1479.01 Q1478.84 1475.44 1478.84 1468.33 Q1478.84 1461.2 1477.01 1457.66 Q1475.21 1454.1 1471.57 1454.1 M1471.57 1450.39 Q1477.38 1450.39 1480.44 1455 Q1483.52 1459.58 1483.52 1468.33 Q1483.52 1477.06 1480.44 1481.67 Q1477.38 1486.25 1471.57 1486.25 Q1465.76 1486.25 1462.68 1481.67 Q1459.63 1477.06 1459.63 1468.33 Q1459.63 1459.58 1462.68 1455 Q1465.76 1450.39 1471.57 1450.39 Z" fill="#000000" fill-rule="nonzero" fill-opacity="1" /><path clip-path="url(#clip680)" d="M1713.58 1481.64 L1721.22 1481.64 L1721.22 1455.28 L1712.91 1456.95 L1712.91 1452.69 L1721.17 1451.02 L1725.85 1451.02 L1725.85 1481.64 L1733.49 1481.64 L1733.49 1485.58 L1713.58 1485.58 L1713.58 1481.64 Z" fill="#000000" fill-rule="nonzero" fill-opacity="1" /><path clip-path="url(#clip680)" d="M1969.47 1481.64 L1985.79 1481.64 L1985.79 1485.58 L1963.85 1485.58 L1963.85 1481.64 Q1966.51 1478.89 1971.09 1474.26 Q1975.7 1469.61 1976.88 1468.27 Q1979.12 1465.74 1980 1464.01 Q1980.91 1462.25 1980.91 1460.56 Q1980.91 1457.8 1978.96 1456.07 Q1977.04 1454.33 1973.94 1454.33 Q1971.74 1454.33 1969.29 1455.09 Q1966.86 1455.86 1964.08 1457.41 L1964.08 1452.69 Q1966.9 1451.55 1969.36 1450.97 Q1971.81 1450.39 1973.85 1450.39 Q1979.22 1450.39 1982.41 1453.08 Q1985.61 1455.77 1985.61 1460.26 Q1985.61 1462.39 1984.8 1464.31 Q1984.01 1466.2 1981.9 1468.8 Q1981.32 1469.47 1978.22 1472.69 Q1975.12 1475.88 1969.47 1481.64 Z" fill="#000000" fill-rule="nonzero" fill-opacity="1" /><path clip-path="url(#clip680)" d="M2230.69 1466.95 Q2234.05 1467.66 2235.92 1469.93 Q2237.82 1472.2 2237.82 1475.53 Q2237.82 1480.65 2234.3 1483.45 Q2230.78 1486.25 2224.3 1486.25 Q2222.12 1486.25 2219.81 1485.81 Q2217.52 1485.39 2215.06 1484.54 L2215.06 1480.02 Q2217.01 1481.16 2219.32 1481.74 Q2221.64 1482.32 2224.16 1482.32 Q2228.56 1482.32 2230.85 1480.58 Q2233.17 1478.84 2233.17 1475.53 Q2233.17 1472.48 2231.01 1470.77 Q2228.88 1469.03 2225.06 1469.03 L2221.04 1469.03 L2221.04 1465.19 L2225.25 1465.19 Q2228.7 1465.19 2230.53 1463.82 Q2232.36 1462.43 2232.36 1459.84 Q2232.36 1457.18 2230.46 1455.77 Q2228.58 1454.33 2225.06 1454.33 Q2223.14 1454.33 2220.94 1454.75 Q2218.74 1455.16 2216.11 1456.04 L2216.11 1451.88 Q2218.77 1451.14 2221.08 1450.77 Q2223.42 1450.39 2225.48 1450.39 Q2230.8 1450.39 2233.91 1452.83 Q2237.01 1455.23 2237.01 1459.35 Q2237.01 1462.22 2235.36 1464.21 Q2233.72 1466.18 2230.69 1466.95 Z" fill="#000000" fill-rule="nonzero" fill-opacity="1" /><path clip-path="url(#clip680)" d="M1769.5 1520.52 L1809.7 1520.52 L1809.7 1525.93 L1792.83 1525.93 L1792.83 1568.04 L1786.37 1568.04 L1786.37 1525.93 L1769.5 1525.93 L1769.5 1520.52 Z" fill="#000000" fill-rule="nonzero" fill-opacity="1" /><path clip-path="url(#clip680)" d="M1813.65 1532.4 L1819.51 1532.4 L1819.51 1568.04 L1813.65 1568.04 L1813.65 1532.4 M1813.65 1518.52 L1819.51 1518.52 L1819.51 1525.93 L1813.65 1525.93 L1813.65 1518.52 Z" fill="#000000" fill-rule="nonzero" fill-opacity="1" /><path clip-path="url(#clip680)" d="M1859.51 1539.24 Q1861.71 1535.29 1864.77 1533.41 Q1867.82 1531.54 1871.96 1531.54 Q1877.53 1531.54 1880.55 1535.45 Q1883.58 1539.33 1883.58 1546.53 L1883.58 1568.04 L1877.69 1568.04 L1877.69 1546.72 Q1877.69 1541.59 1875.87 1539.11 Q1874.06 1536.63 1870.34 1536.63 Q1865.78 1536.63 1863.14 1539.65 Q1860.5 1542.68 1860.5 1547.9 L1860.5 1568.04 L1854.61 1568.04 L1854.61 1546.72 Q1854.61 1541.56 1852.8 1539.11 Q1850.98 1536.63 1847.2 1536.63 Q1842.71 1536.63 1840.07 1539.68 Q1837.43 1542.71 1837.43 1547.9 L1837.43 1568.04 L1831.54 1568.04 L1831.54 1532.4 L1837.43 1532.4 L1837.43 1537.93 Q1839.43 1534.66 1842.23 1533.1 Q1845.03 1531.54 1848.88 1531.54 Q1852.77 1531.54 1855.47 1533.51 Q1858.21 1535.48 1859.51 1539.24 Z" fill="#000000" fill-rule="nonzero" fill-opacity="1" /><path clip-path="url(#clip680)" d="M1925.75 1548.76 L1925.75 1551.62 L1898.82 1551.62 Q1899.2 1557.67 1902.45 1560.85 Q1905.73 1564 1911.55 1564 Q1914.93 1564 1918.08 1563.17 Q1921.26 1562.35 1924.38 1560.69 L1924.38 1566.23 Q1921.23 1567.57 1917.92 1568.27 Q1914.61 1568.97 1911.2 1568.97 Q1902.67 1568.97 1897.68 1564 Q1892.71 1559.04 1892.71 1550.57 Q1892.71 1541.82 1897.42 1536.69 Q1902.16 1531.54 1910.19 1531.54 Q1917.38 1531.54 1921.55 1536.18 Q1925.75 1540.8 1925.75 1548.76 M1919.89 1547.04 Q1919.83 1542.23 1917.19 1539.37 Q1914.58 1536.5 1910.25 1536.5 Q1905.35 1536.5 1902.39 1539.27 Q1899.46 1542.04 1899.01 1547.07 L1919.89 1547.04 Z" fill="#000000" fill-rule="nonzero" fill-opacity="1" /><path clip-path="url(#clip680)" d="M1970.15 1518.58 Q1965.89 1525.9 1963.82 1533.06 Q1961.75 1540.23 1961.75 1547.58 Q1961.75 1554.93 1963.82 1562.16 Q1965.92 1569.35 1970.15 1576.64 L1965.06 1576.64 Q1960.28 1569.16 1957.9 1561.93 Q1955.54 1554.71 1955.54 1547.58 Q1955.54 1540.48 1957.9 1533.29 Q1960.25 1526.09 1965.06 1518.58 L1970.15 1518.58 Z" fill="#000000" fill-rule="nonzero" fill-opacity="1" /><path clip-path="url(#clip680)" d="M2004.24 1533.45 L2004.24 1538.98 Q2001.76 1537.71 1999.08 1537.07 Q1996.41 1536.44 1993.54 1536.44 Q1989.18 1536.44 1986.99 1537.77 Q1984.82 1539.11 1984.82 1541.79 Q1984.82 1543.82 1986.38 1545 Q1987.94 1546.15 1992.65 1547.2 L1994.66 1547.64 Q2000.9 1548.98 2003.51 1551.43 Q2006.15 1553.85 2006.15 1558.21 Q2006.15 1563.17 2002.2 1566.07 Q1998.29 1568.97 1991.41 1568.97 Q1988.55 1568.97 1985.43 1568.39 Q1982.34 1567.85 1978.9 1566.74 L1978.9 1560.69 Q1982.15 1562.38 1985.3 1563.24 Q1988.45 1564.07 1991.54 1564.07 Q1995.68 1564.07 1997.9 1562.66 Q2000.13 1561.23 2000.13 1558.65 Q2000.13 1556.27 1998.51 1554.99 Q1996.92 1553.72 1991.48 1552.54 L1989.44 1552.07 Q1984 1550.92 1981.58 1548.56 Q1979.16 1546.18 1979.16 1542.04 Q1979.16 1537.01 1982.72 1534.27 Q1986.29 1531.54 1992.84 1531.54 Q1996.09 1531.54 1998.96 1532.01 Q2001.82 1532.49 2004.24 1533.45 Z" fill="#000000" fill-rule="nonzero" fill-opacity="1" /><path clip-path="url(#clip680)" d="M2014.55 1518.58 L2019.64 1518.58 Q2024.42 1526.09 2026.77 1533.29 Q2029.16 1540.48 2029.16 1547.58 Q2029.16 1554.71 2026.77 1561.93 Q2024.42 1569.16 2019.64 1576.64 L2014.55 1576.64 Q2018.78 1569.35 2020.85 1562.16 Q2022.95 1554.93 2022.95 1547.58 Q2022.95 1540.23 2020.85 1533.06 Q2018.78 1525.9 2014.55 1518.58 Z" fill="#000000" fill-rule="nonzero" fill-opacity="1" /><polyline clip-path="url(#clip680)" style="stroke:#000000; stroke-linecap:round; stroke-linejoin:round; stroke-width:4; stroke-opacity:1; fill:none" points="1445.91,1423.18 1445.91,1071.73 "/>
<polyline clip-path="url(#clip680)" style="stroke:#000000; stroke-linecap:round; stroke-linejoin:round; stroke-width:4; stroke-opacity:1; fill:none" points="1445.91,1391.04 1464.81,1391.04 "/>
<polyline clip-path="url(#clip680)" style="stroke:#000000; stroke-linecap:round; stroke-linejoin:round; stroke-width:4; stroke-opacity:1; fill:none" points="1445.91,1322.03 1464.81,1322.03 "/>
<polyline clip-path="url(#clip680)" style="stroke:#000000; stroke-linecap:round; stroke-linejoin:round; stroke-width:4; stroke-opacity:1; fill:none" points="1445.91,1253.01 1464.81,1253.01 "/>
<polyline clip-path="url(#clip680)" style="stroke:#000000; stroke-linecap:round; stroke-linejoin:round; stroke-width:4; stroke-opacity:1; fill:none" points="1445.91,1184 1464.81,1184 "/>
<polyline clip-path="url(#clip680)" style="stroke:#000000; stroke-linecap:round; stroke-linejoin:round; stroke-width:4; stroke-opacity:1; fill:none" points="1445.91,1114.99 1464.81,1114.99 "/>
<path clip-path="url(#clip680)" d="M1272.32 1391.49 L1301.99 1391.49 L1301.99 1395.43 L1272.32 1395.43 L1272.32 1391.49 Z" fill="#000000" fill-rule="nonzero" fill-opacity="1" /><path clip-path="url(#clip680)" d="M1322.08 1376.84 Q1318.47 1376.84 1316.64 1380.4 Q1314.84 1383.94 1314.84 1391.07 Q1314.84 1398.18 1316.64 1401.75 Q1318.47 1405.29 1322.08 1405.29 Q1325.72 1405.29 1327.52 1401.75 Q1329.35 1398.18 1329.35 1391.07 Q1329.35 1383.94 1327.52 1380.4 Q1325.72 1376.84 1322.08 1376.84 M1322.08 1373.13 Q1327.89 1373.13 1330.95 1377.74 Q1334.03 1382.32 1334.03 1391.07 Q1334.03 1399.8 1330.95 1404.41 Q1327.89 1408.99 1322.08 1408.99 Q1316.27 1408.99 1313.2 1404.41 Q1310.14 1399.8 1310.14 1391.07 Q1310.14 1382.32 1313.2 1377.74 Q1316.27 1373.13 1322.08 1373.13 Z" fill="#000000" fill-rule="nonzero" fill-opacity="1" /><path clip-path="url(#clip680)" d="M1342.25 1402.44 L1347.13 1402.44 L1347.13 1408.32 L1342.25 1408.32 L1342.25 1402.44 Z" fill="#000000" fill-rule="nonzero" fill-opacity="1" /><path clip-path="url(#clip680)" d="M1367.32 1376.84 Q1363.7 1376.84 1361.88 1380.4 Q1360.07 1383.94 1360.07 1391.07 Q1360.07 1398.18 1361.88 1401.75 Q1363.7 1405.29 1367.32 1405.29 Q1370.95 1405.29 1372.76 1401.75 Q1374.58 1398.18 1374.58 1391.07 Q1374.58 1383.94 1372.76 1380.4 Q1370.95 1376.84 1367.32 1376.84 M1367.32 1373.13 Q1373.13 1373.13 1376.18 1377.74 Q1379.26 1382.32 1379.26 1391.07 Q1379.26 1399.8 1376.18 1404.41 Q1373.13 1408.99 1367.32 1408.99 Q1361.51 1408.99 1358.43 1404.41 Q1355.37 1399.8 1355.37 1391.07 Q1355.37 1382.32 1358.43 1377.74 Q1361.51 1373.13 1367.32 1373.13 Z" fill="#000000" fill-rule="nonzero" fill-opacity="1" /><path clip-path="url(#clip680)" d="M1400.32 1377.83 L1388.52 1396.28 L1400.32 1396.28 L1400.32 1377.83 M1399.1 1373.76 L1404.98 1373.76 L1404.98 1396.28 L1409.91 1396.28 L1409.91 1400.17 L1404.98 1400.17 L1404.98 1408.32 L1400.32 1408.32 L1400.32 1400.17 L1384.72 1400.17 L1384.72 1395.66 L1399.1 1373.76 Z" fill="#000000" fill-rule="nonzero" fill-opacity="1" /><path clip-path="url(#clip680)" d="M1273.45 1322.48 L1303.13 1322.48 L1303.13 1326.41 L1273.45 1326.41 L1273.45 1322.48 Z" fill="#000000" fill-rule="nonzero" fill-opacity="1" /><path clip-path="url(#clip680)" d="M1323.22 1307.83 Q1319.61 1307.83 1317.78 1311.39 Q1315.97 1314.93 1315.97 1322.06 Q1315.97 1329.17 1317.78 1332.73 Q1319.61 1336.27 1323.22 1336.27 Q1326.85 1336.27 1328.66 1332.73 Q1330.49 1329.17 1330.49 1322.06 Q1330.49 1314.93 1328.66 1311.39 Q1326.85 1307.83 1323.22 1307.83 M1323.22 1304.12 Q1329.03 1304.12 1332.08 1308.73 Q1335.16 1313.31 1335.16 1322.06 Q1335.16 1330.79 1332.08 1335.39 Q1329.03 1339.98 1323.22 1339.98 Q1317.41 1339.98 1314.33 1335.39 Q1311.27 1330.79 1311.27 1322.06 Q1311.27 1313.31 1314.33 1308.73 Q1317.41 1304.12 1323.22 1304.12 Z" fill="#000000" fill-rule="nonzero" fill-opacity="1" /><path clip-path="url(#clip680)" d="M1343.38 1333.43 L1348.26 1333.43 L1348.26 1339.31 L1343.38 1339.31 L1343.38 1333.43 Z" fill="#000000" fill-rule="nonzero" fill-opacity="1" /><path clip-path="url(#clip680)" d="M1368.45 1307.83 Q1364.84 1307.83 1363.01 1311.39 Q1361.2 1314.93 1361.2 1322.06 Q1361.2 1329.17 1363.01 1332.73 Q1364.84 1336.27 1368.45 1336.27 Q1372.08 1336.27 1373.89 1332.73 Q1375.72 1329.17 1375.72 1322.06 Q1375.72 1314.93 1373.89 1311.39 Q1372.08 1307.83 1368.45 1307.83 M1368.45 1304.12 Q1374.26 1304.12 1377.32 1308.73 Q1380.39 1313.31 1380.39 1322.06 Q1380.39 1330.79 1377.32 1335.39 Q1374.26 1339.98 1368.45 1339.98 Q1362.64 1339.98 1359.56 1335.39 Q1356.51 1330.79 1356.51 1322.06 Q1356.51 1313.31 1359.56 1308.73 Q1362.64 1304.12 1368.45 1304.12 Z" fill="#000000" fill-rule="nonzero" fill-opacity="1" /><path clip-path="url(#clip680)" d="M1402.78 1320.67 Q1406.13 1321.39 1408.01 1323.66 Q1409.91 1325.93 1409.91 1329.26 Q1409.91 1334.38 1406.39 1337.18 Q1402.87 1339.98 1396.39 1339.98 Q1394.21 1339.98 1391.9 1339.54 Q1389.61 1339.12 1387.15 1338.26 L1387.15 1333.75 Q1389.1 1334.89 1391.41 1335.46 Q1393.73 1336.04 1396.25 1336.04 Q1400.65 1336.04 1402.94 1334.31 Q1405.26 1332.57 1405.26 1329.26 Q1405.26 1326.2 1403.1 1324.49 Q1400.97 1322.76 1397.15 1322.76 L1393.13 1322.76 L1393.13 1318.91 L1397.34 1318.91 Q1400.79 1318.91 1402.62 1317.55 Q1404.44 1316.16 1404.44 1313.57 Q1404.44 1310.9 1402.55 1309.49 Q1400.67 1308.06 1397.15 1308.06 Q1395.23 1308.06 1393.03 1308.47 Q1390.83 1308.89 1388.19 1309.77 L1388.19 1305.6 Q1390.86 1304.86 1393.17 1304.49 Q1395.51 1304.12 1397.57 1304.12 Q1402.89 1304.12 1406 1306.55 Q1409.1 1308.96 1409.1 1313.08 Q1409.1 1315.95 1407.45 1317.94 Q1405.81 1319.91 1402.78 1320.67 Z" fill="#000000" fill-rule="nonzero" fill-opacity="1" /><path clip-path="url(#clip680)" d="M1274.4 1253.46 L1304.08 1253.46 L1304.08 1257.4 L1274.4 1257.4 L1274.4 1253.46 Z" fill="#000000" fill-rule="nonzero" fill-opacity="1" /><path clip-path="url(#clip680)" d="M1324.17 1238.81 Q1320.56 1238.81 1318.73 1242.38 Q1316.92 1245.92 1316.92 1253.05 Q1316.92 1260.15 1318.73 1263.72 Q1320.56 1267.26 1324.17 1267.26 Q1327.8 1267.26 1329.61 1263.72 Q1331.44 1260.15 1331.44 1253.05 Q1331.44 1245.92 1329.61 1242.38 Q1327.8 1238.81 1324.17 1238.81 M1324.17 1235.11 Q1329.98 1235.11 1333.03 1239.72 Q1336.11 1244.3 1336.11 1253.05 Q1336.11 1261.78 1333.03 1266.38 Q1329.98 1270.96 1324.17 1270.96 Q1318.36 1270.96 1315.28 1266.38 Q1312.22 1261.78 1312.22 1253.05 Q1312.22 1244.3 1315.28 1239.72 Q1318.36 1235.11 1324.17 1235.11 Z" fill="#000000" fill-rule="nonzero" fill-opacity="1" /><path clip-path="url(#clip680)" d="M1344.33 1264.41 L1349.21 1264.41 L1349.21 1270.29 L1344.33 1270.29 L1344.33 1264.41 Z" fill="#000000" fill-rule="nonzero" fill-opacity="1" /><path clip-path="url(#clip680)" d="M1369.4 1238.81 Q1365.79 1238.81 1363.96 1242.38 Q1362.15 1245.92 1362.15 1253.05 Q1362.15 1260.15 1363.96 1263.72 Q1365.79 1267.26 1369.4 1267.26 Q1373.03 1267.26 1374.84 1263.72 Q1376.67 1260.15 1376.67 1253.05 Q1376.67 1245.92 1374.84 1242.38 Q1373.03 1238.81 1369.4 1238.81 M1369.4 1235.11 Q1375.21 1235.11 1378.26 1239.72 Q1381.34 1244.3 1381.34 1253.05 Q1381.34 1261.78 1378.26 1266.38 Q1375.21 1270.96 1369.4 1270.96 Q1363.59 1270.96 1360.51 1266.38 Q1357.45 1261.78 1357.45 1253.05 Q1357.45 1244.3 1360.51 1239.72 Q1363.59 1235.11 1369.4 1235.11 Z" fill="#000000" fill-rule="nonzero" fill-opacity="1" /><path clip-path="url(#clip680)" d="M1393.59 1266.36 L1409.91 1266.36 L1409.91 1270.29 L1387.96 1270.29 L1387.96 1266.36 Q1390.63 1263.6 1395.21 1258.97 Q1399.82 1254.32 1401 1252.98 Q1403.24 1250.46 1404.12 1248.72 Q1405.02 1246.96 1405.02 1245.27 Q1405.02 1242.52 1403.08 1240.78 Q1401.16 1239.04 1398.06 1239.04 Q1395.86 1239.04 1393.4 1239.81 Q1390.97 1240.57 1388.19 1242.12 L1388.19 1237.4 Q1391.02 1236.27 1393.47 1235.69 Q1395.93 1235.11 1397.96 1235.11 Q1403.33 1235.11 1406.53 1237.79 Q1409.72 1240.48 1409.72 1244.97 Q1409.72 1247.1 1408.91 1249.02 Q1408.13 1250.92 1406.02 1253.51 Q1405.44 1254.18 1402.34 1257.4 Q1399.24 1260.59 1393.59 1266.36 Z" fill="#000000" fill-rule="nonzero" fill-opacity="1" /><path clip-path="url(#clip680)" d="M1274.03 1184.45 L1303.7 1184.45 L1303.7 1188.39 L1274.03 1188.39 L1274.03 1184.45 Z" fill="#000000" fill-rule="nonzero" fill-opacity="1" /><path clip-path="url(#clip680)" d="M1323.8 1169.8 Q1320.19 1169.8 1318.36 1173.36 Q1316.55 1176.91 1316.55 1184.04 Q1316.55 1191.14 1318.36 1194.71 Q1320.19 1198.25 1323.8 1198.25 Q1327.43 1198.25 1329.24 1194.71 Q1331.07 1191.14 1331.07 1184.04 Q1331.07 1176.91 1329.24 1173.36 Q1327.43 1169.8 1323.8 1169.8 M1323.8 1166.1 Q1329.61 1166.1 1332.66 1170.7 Q1335.74 1175.29 1335.74 1184.04 Q1335.74 1192.76 1332.66 1197.37 Q1329.61 1201.95 1323.8 1201.95 Q1317.99 1201.95 1314.91 1197.37 Q1311.85 1192.76 1311.85 1184.04 Q1311.85 1175.29 1314.91 1170.7 Q1317.99 1166.1 1323.8 1166.1 Z" fill="#000000" fill-rule="nonzero" fill-opacity="1" /><path clip-path="url(#clip680)" d="M1343.96 1195.4 L1348.84 1195.4 L1348.84 1201.28 L1343.96 1201.28 L1343.96 1195.4 Z" fill="#000000" fill-rule="nonzero" fill-opacity="1" /><path clip-path="url(#clip680)" d="M1369.03 1169.8 Q1365.42 1169.8 1363.59 1173.36 Q1361.78 1176.91 1361.78 1184.04 Q1361.78 1191.14 1363.59 1194.71 Q1365.42 1198.25 1369.03 1198.25 Q1372.66 1198.25 1374.47 1194.71 Q1376.3 1191.14 1376.3 1184.04 Q1376.3 1176.91 1374.47 1173.36 Q1372.66 1169.8 1369.03 1169.8 M1369.03 1166.1 Q1374.84 1166.1 1377.89 1170.7 Q1380.97 1175.29 1380.97 1184.04 Q1380.97 1192.76 1377.89 1197.37 Q1374.84 1201.95 1369.03 1201.95 Q1363.22 1201.95 1360.14 1197.37 Q1357.08 1192.76 1357.08 1184.04 Q1357.08 1175.29 1360.14 1170.7 Q1363.22 1166.1 1369.03 1166.1 Z" fill="#000000" fill-rule="nonzero" fill-opacity="1" /><path clip-path="url(#clip680)" d="M1390 1197.35 L1397.64 1197.35 L1397.64 1170.98 L1389.33 1172.65 L1389.33 1168.39 L1397.59 1166.72 L1402.27 1166.72 L1402.27 1197.35 L1409.91 1197.35 L1409.91 1201.28 L1390 1201.28 L1390 1197.35 Z" fill="#000000" fill-rule="nonzero" fill-opacity="1" /><path clip-path="url(#clip680)" d="M1322.57 1100.79 Q1318.96 1100.79 1317.13 1104.35 Q1315.32 1107.89 1315.32 1115.02 Q1315.32 1122.13 1317.13 1125.69 Q1318.96 1129.24 1322.57 1129.24 Q1326.2 1129.24 1328.01 1125.69 Q1329.84 1122.13 1329.84 1115.02 Q1329.84 1107.89 1328.01 1104.35 Q1326.2 1100.79 1322.57 1100.79 M1322.57 1097.08 Q1328.38 1097.08 1331.44 1101.69 Q1334.51 1106.27 1334.51 1115.02 Q1334.51 1123.75 1331.44 1128.36 Q1328.38 1132.94 1322.57 1132.94 Q1316.76 1132.94 1313.68 1128.36 Q1310.63 1123.75 1310.63 1115.02 Q1310.63 1106.27 1313.68 1101.69 Q1316.76 1097.08 1322.57 1097.08 Z" fill="#000000" fill-rule="nonzero" fill-opacity="1" /><path clip-path="url(#clip680)" d="M1342.73 1126.39 L1347.62 1126.39 L1347.62 1132.27 L1342.73 1132.27 L1342.73 1126.39 Z" fill="#000000" fill-rule="nonzero" fill-opacity="1" /><path clip-path="url(#clip680)" d="M1367.8 1100.79 Q1364.19 1100.79 1362.36 1104.35 Q1360.56 1107.89 1360.56 1115.02 Q1360.56 1122.13 1362.36 1125.69 Q1364.19 1129.24 1367.8 1129.24 Q1371.44 1129.24 1373.24 1125.69 Q1375.07 1122.13 1375.07 1115.02 Q1375.07 1107.89 1373.24 1104.35 Q1371.44 1100.79 1367.8 1100.79 M1367.8 1097.08 Q1373.61 1097.08 1376.67 1101.69 Q1379.75 1106.27 1379.75 1115.02 Q1379.75 1123.75 1376.67 1128.36 Q1373.61 1132.94 1367.8 1132.94 Q1361.99 1132.94 1358.91 1128.36 Q1355.86 1123.75 1355.86 1115.02 Q1355.86 1106.27 1358.91 1101.69 Q1361.99 1097.08 1367.8 1097.08 Z" fill="#000000" fill-rule="nonzero" fill-opacity="1" /><path clip-path="url(#clip680)" d="M1397.96 1100.79 Q1394.35 1100.79 1392.52 1104.35 Q1390.72 1107.89 1390.72 1115.02 Q1390.72 1122.13 1392.52 1125.69 Q1394.35 1129.24 1397.96 1129.24 Q1401.6 1129.24 1403.4 1125.69 Q1405.23 1122.13 1405.23 1115.02 Q1405.23 1107.89 1403.4 1104.35 Q1401.6 1100.79 1397.96 1100.79 M1397.96 1097.08 Q1403.77 1097.08 1406.83 1101.69 Q1409.91 1106.27 1409.91 1115.02 Q1409.91 1123.75 1406.83 1128.36 Q1403.77 1132.94 1397.96 1132.94 Q1392.15 1132.94 1389.07 1128.36 Q1386.02 1123.75 1386.02 1115.02 Q1386.02 1106.27 1389.07 1101.69 Q1392.15 1097.08 1397.96 1097.08 Z" fill="#000000" fill-rule="nonzero" fill-opacity="1" /><path clip-path="url(#clip680)" d="M1182.01 1252.88 L1182.94 1253.44 Q1181.43 1256.93 1179.02 1261.28 Q1181.43 1265.63 1182.94 1269.13 L1182.01 1269.67 Q1178.7 1265.86 1176.15 1261.28 Q1178.72 1256.66 1182.01 1252.88 Z" fill="#000000" fill-rule="nonzero" fill-opacity="1" /><path clip-path="url(#clip680)" d="M1194.31 1249.71 Q1196.12 1249.71 1197.15 1250.84 Q1198.14 1251.97 1198.14 1253.26 Q1198.14 1254.48 1197.44 1255.12 Q1196.73 1255.77 1195.83 1255.77 Q1194.6 1255.77 1193.54 1254.87 Q1192.48 1253.96 1192.25 1252.61 Q1191.41 1253.93 1191.41 1255.9 Q1191.41 1257.18 1192.09 1258.31 Q1192.77 1259.41 1193.64 1260.08 Q1194.51 1260.73 1195.76 1261.31 Q1196.99 1261.85 1197.73 1262.08 Q1198.43 1262.27 1199.21 1262.43 L1208.23 1264.69 Q1212.51 1265.78 1214.02 1265.78 Q1215.89 1265.78 1217.15 1264.88 Q1218.37 1263.98 1218.37 1262.18 Q1218.37 1261.47 1218.18 1260.66 Q1217.95 1259.86 1217.37 1258.83 Q1216.76 1257.76 1215.86 1256.83 Q1214.92 1255.86 1213.35 1254.93 Q1211.77 1254 1209.74 1253.38 Q1209.03 1253.19 1209.03 1252.55 Q1209.03 1251.74 1209.67 1251.74 Q1210.22 1251.74 1211.38 1252.19 Q1212.51 1252.61 1213.99 1253.55 Q1215.44 1254.45 1216.76 1255.64 Q1218.05 1256.83 1218.95 1258.6 Q1219.85 1260.37 1219.85 1262.31 Q1219.85 1265.08 1218.37 1266.91 Q1216.89 1268.75 1214.83 1269.42 Q1215.12 1269.58 1215.5 1269.81 Q1215.89 1270.03 1216.76 1270.71 Q1217.6 1271.36 1218.24 1272.1 Q1218.85 1272.84 1219.34 1274 Q1219.85 1275.12 1219.85 1276.35 Q1219.85 1277.89 1219.4 1279.28 Q1218.95 1280.63 1217.92 1281.6 Q1216.89 1282.56 1215.47 1282.56 Q1213.89 1282.56 1212.8 1281.5 Q1211.67 1280.41 1211.67 1278.92 Q1211.67 1277.99 1212.22 1277.25 Q1212.77 1276.48 1213.96 1276.48 Q1215.28 1276.48 1216.28 1277.38 Q1217.27 1278.28 1217.53 1279.57 Q1218.37 1278.25 1218.37 1276.28 Q1218.37 1274.16 1216.5 1272.48 Q1214.63 1270.81 1211.51 1270 Q1204.01 1268.01 1200.66 1267.23 Q1197.28 1266.46 1195.83 1266.46 Q1194.47 1266.46 1193.54 1266.81 Q1192.61 1267.17 1192.19 1267.78 Q1191.74 1268.36 1191.57 1268.91 Q1191.41 1269.42 1191.41 1270 Q1191.41 1270.97 1191.8 1272.06 Q1192.19 1273.13 1193.09 1274.41 Q1193.96 1275.67 1195.76 1276.86 Q1197.56 1278.05 1200.04 1278.86 Q1200.79 1279.02 1200.79 1279.73 Q1200.75 1280.5 1200.11 1280.5 Q1199.56 1280.5 1198.43 1280.08 Q1197.28 1279.63 1195.83 1278.73 Q1194.38 1277.8 1193.09 1276.6 Q1191.77 1275.38 1190.87 1273.61 Q1189.96 1271.81 1189.96 1269.87 Q1189.96 1269 1190.16 1268.17 Q1190.32 1267.3 1190.8 1266.27 Q1191.28 1265.2 1192.35 1264.27 Q1193.41 1263.34 1194.96 1262.76 Q1194.22 1262.37 1193.51 1261.85 Q1192.8 1261.31 1191.93 1260.47 Q1191.03 1259.6 1190.51 1258.41 Q1189.96 1257.18 1189.96 1255.83 Q1189.96 1254.51 1190.32 1253.22 Q1190.64 1251.94 1191.7 1250.84 Q1192.73 1249.71 1194.31 1249.71 Z" fill="#000000" fill-rule="nonzero" fill-opacity="1" /><path clip-path="url(#clip680)" d="M1231.9 1242.25 Q1230.52 1242.25 1229.87 1241.46 Q1229.22 1240.68 1229.22 1239.66 Q1229.22 1238.6 1229.92 1237.86 Q1230.59 1237.09 1231.79 1237.09 Q1233.07 1237.09 1233.79 1237.99 Q1234.51 1238.87 1234.33 1240.13 Q1236.18 1239.03 1237.02 1237 Q1237.85 1234.95 1237.85 1233.06 Q1237.85 1231.07 1236.14 1229.47 Q1234.42 1227.85 1230.23 1227.85 Q1226.67 1227.85 1224.62 1229.25 Q1222.57 1230.62 1222.57 1233.35 L1222.57 1235.38 Q1222.57 1236.08 1222.5 1236.28 Q1222.43 1236.48 1222.05 1236.48 Q1221.6 1236.48 1221.51 1235.78 Q1221.51 1235.08 1221.37 1233.98 Q1221.28 1231.3 1218.96 1229.88 Q1216.79 1228.59 1213.71 1228.59 Q1210.89 1228.59 1209.72 1229.94 Q1208.52 1231.27 1208.52 1233.01 Q1208.52 1234.63 1209.2 1236.41 Q1209.87 1238.2 1211.38 1239.17 Q1211.38 1236.3 1213.71 1236.3 Q1214.72 1236.3 1215.4 1236.96 Q1216.05 1237.59 1216.05 1238.65 Q1216.05 1239.66 1215.42 1240.34 Q1214.77 1241.01 1213.66 1241.01 Q1211.02 1241.01 1209.2 1238.67 Q1207.37 1236.3 1207.37 1232.83 Q1207.37 1229.4 1209.17 1226.88 Q1210.98 1224.33 1213.75 1224.33 Q1216.48 1224.33 1218.71 1226.13 Q1220.94 1227.94 1221.87 1230.8 Q1222.57 1227.28 1224.96 1225.19 Q1227.32 1223.09 1230.23 1223.09 Q1233.84 1223.09 1236.5 1225.93 Q1239.14 1228.77 1239.14 1232.92 Q1239.14 1236.75 1237.06 1239.5 Q1234.99 1242.25 1231.9 1242.25 Z" fill="#000000" fill-rule="nonzero" fill-opacity="1" /><polyline clip-path="url(#clip685)" style="stroke:#e26f46; stroke-linecap:round; stroke-linejoin:round; stroke-width:3; stroke-opacity:1; fill:none" stroke-dasharray="12, 6, 2, 6" points="1471.57,1114.99 1496.74,1235.95 1521.9,1233.11 1547.06,1126.05 1572.22,1413.23 1597.38,1378.99 1622.55,1350.2 1647.71,1330.07 1672.87,1360.75 1698.03,1323.59 1723.2,1299.78 1748.36,1240.37 1773.52,1211.18 1798.68,1139.5 1823.85,1241.77 1849.01,1154.15 1874.17,1148.03 1899.33,1130.93 1924.49,1175.78 1949.66,1123.83 1974.82,1147.97 1999.98,1116.85 2025.14,1116.12 2050.31,1136.09 2075.47,1136.79 2100.63,1124.21 2125.79,1187.14 2150.95,1081.68 2176.12,1160.3 2201.28,1113.37 2226.44,1118.05 2251.6,1131.14 2276.77,1117.09 2301.93,1091.72 2327.09,1133.29 "/>
</svg>
