<?xml version="1.0" encoding="utf-8"?>
<svg xmlns="http://www.w3.org/2000/svg" xmlns:xlink="http://www.w3.org/1999/xlink" width="600" height="400" viewBox="0 0 2400 1600">
<defs>
  <clipPath id="clip660">
    <rect x="0" y="0" width="2400" height="1600"/>
  </clipPath>
</defs>
<path clip-path="url(#clip660)" d="M0 1600 L2400 1600 L2400 0 L0 0  Z" fill="#ffffff" fill-rule="evenodd" fill-opacity="1"/>
<defs>
  <clipPath id="clip661">
    <rect x="480" y="0" width="1681" height="1600"/>
  </clipPath>
</defs>
<path clip-path="url(#clip660)" d="M257.204 623.18 L1152.76 623.18 L1152.76 47.2441 L257.204 47.2441  Z" fill="#ffffff" fill-rule="evenodd" fill-opacity="1"/>
<defs>
  <clipPath id="clip662">
    <rect x="257" y="47" width="897" height="577"/>
  </clipPath>
</defs>
<polyline clip-path="url(#clip662)" style="stroke:#000000; stroke-linecap:round; stroke-linejoin:round; stroke-width:2; stroke-opacity:0.1; fill:none" points="282.55,623.18 282.55,47.2441 "/>
<polyline clip-path="url(#clip662)" style="stroke:#000000; stroke-linecap:round; stroke-linejoin:round; stroke-width:2; stroke-opacity:0.1; fill:none" points="531.038,623.18 531.038,47.2441 "/>
<polyline clip-path="url(#clip662)" style="stroke:#000000; stroke-linecap:round; stroke-linejoin:round; stroke-width:2; stroke-opacity:0.1; fill:none" points="779.526,623.18 779.526,47.2441 "/>
<polyline clip-path="url(#clip662)" style="stroke:#000000; stroke-linecap:round; stroke-linejoin:round; stroke-width:2; stroke-opacity:0.1; fill:none" points="1028.01,623.18 1028.01,47.2441 "/>
<polyline clip-path="url(#clip660)" style="stroke:#000000; stroke-linecap:round; stroke-linejoin:round; stroke-width:4; stroke-opacity:1; fill:none" points="257.204,623.18 1152.76,623.18 "/>
<polyline clip-path="url(#clip660)" style="stroke:#000000; stroke-linecap:round; stroke-linejoin:round; stroke-width:4; stroke-opacity:1; fill:none" points="282.55,623.18 282.55,604.282 "/>
<polyline clip-path="url(#clip660)" style="stroke:#000000; stroke-linecap:round; stroke-linejoin:round; stroke-width:4; stroke-opacity:1; fill:none" points="531.038,623.18 531.038,604.282 "/>
<polyline clip-path="url(#clip660)" style="stroke:#000000; stroke-linecap:round; stroke-linejoin:round; stroke-width:4; stroke-opacity:1; fill:none" points="779.526,623.18 779.526,604.282 "/>
<polyline clip-path="url(#clip660)" style="stroke:#000000; stroke-linecap:round; stroke-linejoin:round; stroke-width:4; stroke-opacity:1; fill:none" points="1028.01,623.18 1028.01,604.282 "/>
<path clip-path="url(#clip660)" d="M282.55 654.099 Q278.939 654.099 277.11 657.663 Q275.305 661.205 275.305 668.335 Q275.305 675.441 277.11 679.006 Q278.939 682.547 282.55 682.547 Q286.184 682.547 287.99 679.006 Q289.818 675.441 289.818 668.335 Q289.818 661.205 287.99 657.663 Q286.184 654.099 282.55 654.099 M282.55 650.395 Q288.36 650.395 291.416 655.001 Q294.494 659.585 294.494 668.335 Q294.494 677.061 291.416 681.668 Q288.36 686.251 282.55 686.251 Q276.74 686.251 273.661 681.668 Q270.605 677.061 270.605 668.335 Q270.605 659.585 273.661 655.001 Q276.74 650.395 282.55 650.395 Z" fill="#000000" fill-rule="nonzero" fill-opacity="1" /><path clip-path="url(#clip660)" d="M521.42 681.645 L529.059 681.645 L529.059 655.279 L520.749 656.946 L520.749 652.687 L529.013 651.02 L533.689 651.02 L533.689 681.645 L541.327 681.645 L541.327 685.58 L521.42 685.58 L521.42 681.645 Z" fill="#000000" fill-rule="nonzero" fill-opacity="1" /><path clip-path="url(#clip660)" d="M774.179 681.645 L790.499 681.645 L790.499 685.58 L768.554 685.58 L768.554 681.645 Q771.216 678.89 775.8 674.26 Q780.406 669.608 781.587 668.265 Q783.832 665.742 784.712 664.006 Q785.614 662.247 785.614 660.557 Q785.614 657.802 783.67 656.066 Q781.749 654.33 778.647 654.33 Q776.448 654.33 773.994 655.094 Q771.564 655.858 768.786 657.409 L768.786 652.687 Q771.61 651.552 774.064 650.974 Q776.517 650.395 778.554 650.395 Q783.925 650.395 787.119 653.08 Q790.313 655.765 790.313 660.256 Q790.313 662.386 789.503 664.307 Q788.716 666.205 786.61 668.798 Q786.031 669.469 782.929 672.686 Q779.827 675.881 774.179 681.645 Z" fill="#000000" fill-rule="nonzero" fill-opacity="1" /><path clip-path="url(#clip660)" d="M1032.26 666.946 Q1035.62 667.663 1037.49 669.932 Q1039.39 672.2 1039.39 675.534 Q1039.39 680.649 1035.87 683.45 Q1032.36 686.251 1025.87 686.251 Q1023.7 686.251 1021.38 685.811 Q1019.09 685.395 1016.64 684.538 L1016.64 680.024 Q1018.58 681.159 1020.9 681.737 Q1023.21 682.316 1025.73 682.316 Q1030.13 682.316 1032.42 680.58 Q1034.74 678.844 1034.74 675.534 Q1034.74 672.478 1032.59 670.765 Q1030.46 669.029 1026.64 669.029 L1022.61 669.029 L1022.61 665.186 L1026.82 665.186 Q1030.27 665.186 1032.1 663.821 Q1033.93 662.432 1033.93 659.839 Q1033.93 657.177 1032.03 655.765 Q1030.16 654.33 1026.64 654.33 Q1024.72 654.33 1022.52 654.747 Q1020.32 655.163 1017.68 656.043 L1017.68 651.876 Q1020.34 651.136 1022.66 650.765 Q1024.99 650.395 1027.05 650.395 Q1032.38 650.395 1035.48 652.825 Q1038.58 655.233 1038.58 659.353 Q1038.58 662.223 1036.94 664.214 Q1035.29 666.182 1032.26 666.946 Z" fill="#000000" fill-rule="nonzero" fill-opacity="1" /><path clip-path="url(#clip660)" d="M575.151 720.524 L615.351 720.524 L615.351 725.935 L598.482 725.935 L598.482 768.044 L592.021 768.044 L592.021 725.935 L575.151 725.935 L575.151 720.524 Z" fill="#000000" fill-rule="nonzero" fill-opacity="1" /><path clip-path="url(#clip660)" d="M619.298 732.396 L625.154 732.396 L625.154 768.044 L619.298 768.044 L619.298 732.396 M619.298 718.519 L625.154 718.519 L625.154 725.935 L619.298 725.935 L619.298 718.519 Z" fill="#000000" fill-rule="nonzero" fill-opacity="1" /><path clip-path="url(#clip660)" d="M665.162 739.239 Q667.359 735.292 670.414 733.414 Q673.47 731.537 677.607 731.537 Q683.177 731.537 686.201 735.451 Q689.225 739.335 689.225 746.528 L689.225 768.044 L683.337 768.044 L683.337 746.719 Q683.337 741.594 681.522 739.112 Q679.708 736.629 675.984 736.629 Q671.433 736.629 668.791 739.653 Q666.149 742.677 666.149 747.896 L666.149 768.044 L660.261 768.044 L660.261 746.719 Q660.261 741.563 658.447 739.112 Q656.632 736.629 652.845 736.629 Q648.357 736.629 645.715 739.685 Q643.073 742.708 643.073 747.896 L643.073 768.044 L637.185 768.044 L637.185 732.396 L643.073 732.396 L643.073 737.934 Q645.079 734.656 647.88 733.096 Q650.68 731.537 654.532 731.537 Q658.415 731.537 661.12 733.51 Q663.858 735.483 665.162 739.239 Z" fill="#000000" fill-rule="nonzero" fill-opacity="1" /><path clip-path="url(#clip660)" d="M731.398 748.756 L731.398 751.62 L704.471 751.62 Q704.853 757.668 708.099 760.851 Q711.378 764.002 717.202 764.002 Q720.576 764.002 723.727 763.174 Q726.91 762.347 730.029 760.691 L730.029 766.23 Q726.878 767.566 723.568 768.267 Q720.258 768.967 716.852 768.967 Q708.322 768.967 703.325 764.002 Q698.36 759.036 698.36 750.57 Q698.36 741.817 703.07 736.693 Q707.813 731.537 715.833 731.537 Q723.027 731.537 727.196 736.183 Q731.398 740.799 731.398 748.756 M725.541 747.037 Q725.478 742.231 722.836 739.366 Q720.226 736.502 715.897 736.502 Q710.996 736.502 708.036 739.271 Q705.107 742.04 704.662 747.069 L725.541 747.037 Z" fill="#000000" fill-rule="nonzero" fill-opacity="1" /><path clip-path="url(#clip660)" d="M775.798 718.582 Q771.533 725.903 769.465 733.064 Q767.396 740.226 767.396 747.578 Q767.396 754.93 769.465 762.156 Q771.565 769.349 775.798 776.638 L770.706 776.638 Q765.932 769.158 763.544 761.933 Q761.189 754.708 761.189 747.578 Q761.189 740.48 763.544 733.287 Q765.9 726.094 770.706 718.582 L775.798 718.582 Z" fill="#000000" fill-rule="nonzero" fill-opacity="1" /><path clip-path="url(#clip660)" d="M809.887 733.446 L809.887 738.984 Q807.404 737.711 804.731 737.075 Q802.057 736.438 799.192 736.438 Q794.832 736.438 792.636 737.775 Q790.471 739.112 790.471 741.785 Q790.471 743.822 792.031 745 Q793.591 746.146 798.301 747.196 L800.306 747.642 Q806.545 748.979 809.155 751.429 Q811.797 753.848 811.797 758.209 Q811.797 763.174 807.85 766.07 Q803.935 768.967 797.06 768.967 Q794.195 768.967 791.076 768.394 Q787.989 767.853 784.551 766.739 L784.551 760.691 Q787.798 762.378 790.949 763.238 Q794.1 764.065 797.187 764.065 Q801.325 764.065 803.553 762.665 Q805.781 761.233 805.781 758.654 Q805.781 756.267 804.158 754.994 Q802.566 753.721 797.124 752.543 L795.087 752.066 Q789.644 750.92 787.225 748.565 Q784.806 746.178 784.806 742.04 Q784.806 737.011 788.371 734.274 Q791.936 731.537 798.492 731.537 Q801.739 731.537 804.603 732.014 Q807.468 732.491 809.887 733.446 Z" fill="#000000" fill-rule="nonzero" fill-opacity="1" /><path clip-path="url(#clip660)" d="M820.199 718.582 L825.292 718.582 Q830.066 726.094 832.421 733.287 Q834.809 740.48 834.809 747.578 Q834.809 754.708 832.421 761.933 Q830.066 769.158 825.292 776.638 L820.199 776.638 Q824.432 769.349 826.501 762.156 Q828.602 754.93 828.602 747.578 Q828.602 740.226 826.501 733.064 Q824.432 725.903 820.199 718.582 Z" fill="#000000" fill-rule="nonzero" fill-opacity="1" /><polyline clip-path="url(#clip662)" style="stroke:#000000; stroke-linecap:round; stroke-linejoin:round; stroke-width:2; stroke-opacity:0.1; fill:none" points="257.204,566.847 1152.76,566.847 "/>
<polyline clip-path="url(#clip662)" style="stroke:#000000; stroke-linecap:round; stroke-linejoin:round; stroke-width:2; stroke-opacity:0.1; fill:none" points="257.204,441.021 1152.76,441.021 "/>
<polyline clip-path="url(#clip662)" style="stroke:#000000; stroke-linecap:round; stroke-linejoin:round; stroke-width:2; stroke-opacity:0.1; fill:none" points="257.204,315.195 1152.76,315.195 "/>
<polyline clip-path="url(#clip662)" style="stroke:#000000; stroke-linecap:round; stroke-linejoin:round; stroke-width:2; stroke-opacity:0.1; fill:none" points="257.204,189.37 1152.76,189.37 "/>
<polyline clip-path="url(#clip662)" style="stroke:#000000; stroke-linecap:round; stroke-linejoin:round; stroke-width:2; stroke-opacity:0.1; fill:none" points="257.204,63.5442 1152.76,63.5442 "/>
<polyline clip-path="url(#clip660)" style="stroke:#000000; stroke-linecap:round; stroke-linejoin:round; stroke-width:4; stroke-opacity:1; fill:none" points="257.204,623.18 257.204,47.2441 "/>
<polyline clip-path="url(#clip660)" style="stroke:#000000; stroke-linecap:round; stroke-linejoin:round; stroke-width:4; stroke-opacity:1; fill:none" points="257.204,566.847 276.102,566.847 "/>
<polyline clip-path="url(#clip660)" style="stroke:#000000; stroke-linecap:round; stroke-linejoin:round; stroke-width:4; stroke-opacity:1; fill:none" points="257.204,441.021 276.102,441.021 "/>
<polyline clip-path="url(#clip660)" style="stroke:#000000; stroke-linecap:round; stroke-linejoin:round; stroke-width:4; stroke-opacity:1; fill:none" points="257.204,315.195 276.102,315.195 "/>
<polyline clip-path="url(#clip660)" style="stroke:#000000; stroke-linecap:round; stroke-linejoin:round; stroke-width:4; stroke-opacity:1; fill:none" points="257.204,189.37 276.102,189.37 "/>
<polyline clip-path="url(#clip660)" style="stroke:#000000; stroke-linecap:round; stroke-linejoin:round; stroke-width:4; stroke-opacity:1; fill:none" points="257.204,63.5442 276.102,63.5442 "/>
<path clip-path="url(#clip660)" d="M139.746 580.191 L147.385 580.191 L147.385 553.826 L139.075 555.492 L139.075 551.233 L147.339 549.567 L152.015 549.567 L152.015 580.191 L159.653 580.191 L159.653 584.127 L139.746 584.127 L139.746 580.191 Z" fill="#000000" fill-rule="nonzero" fill-opacity="1" /><path clip-path="url(#clip660)" d="M167.917 549.567 L190.139 549.567 L190.139 551.557 L177.593 584.127 L172.709 584.127 L184.514 553.502 L167.917 553.502 L167.917 549.567 Z" fill="#000000" fill-rule="nonzero" fill-opacity="1" /><path clip-path="url(#clip660)" d="M209.26 552.645 Q205.649 552.645 203.82 556.21 Q202.014 559.752 202.014 566.881 Q202.014 573.988 203.82 577.553 Q205.649 581.094 209.26 581.094 Q212.894 581.094 214.699 577.553 Q216.528 573.988 216.528 566.881 Q216.528 559.752 214.699 556.21 Q212.894 552.645 209.26 552.645 M209.26 548.942 Q215.07 548.942 218.125 553.548 Q221.204 558.131 221.204 566.881 Q221.204 575.608 218.125 580.215 Q215.07 584.798 209.26 584.798 Q203.449 584.798 200.371 580.215 Q197.315 575.608 197.315 566.881 Q197.315 558.131 200.371 553.548 Q203.449 548.942 209.26 548.942 Z" fill="#000000" fill-rule="nonzero" fill-opacity="1" /><path clip-path="url(#clip660)" d="M140.741 454.366 L148.38 454.366 L148.38 428 L140.07 429.667 L140.07 425.408 L148.334 423.741 L153.01 423.741 L153.01 454.366 L160.649 454.366 L160.649 458.301 L140.741 458.301 L140.741 454.366 Z" fill="#000000" fill-rule="nonzero" fill-opacity="1" /><path clip-path="url(#clip660)" d="M168.913 423.741 L191.135 423.741 L191.135 425.732 L178.589 458.301 L173.704 458.301 L185.51 427.676 L168.913 427.676 L168.913 423.741 Z" fill="#000000" fill-rule="nonzero" fill-opacity="1" /><path clip-path="url(#clip660)" d="M200.301 423.741 L218.658 423.741 L218.658 427.676 L204.584 427.676 L204.584 436.148 Q205.602 435.801 206.621 435.639 Q207.639 435.454 208.658 435.454 Q214.445 435.454 217.824 438.625 Q221.204 441.796 221.204 447.213 Q221.204 452.792 217.732 455.894 Q214.26 458.972 207.94 458.972 Q205.764 458.972 203.496 458.602 Q201.25 458.232 198.843 457.491 L198.843 452.792 Q200.926 453.926 203.149 454.482 Q205.371 455.037 207.848 455.037 Q211.852 455.037 214.19 452.931 Q216.528 450.824 216.528 447.213 Q216.528 443.602 214.19 441.495 Q211.852 439.389 207.848 439.389 Q205.973 439.389 204.098 439.806 Q202.246 440.222 200.301 441.102 L200.301 423.741 Z" fill="#000000" fill-rule="nonzero" fill-opacity="1" /><path clip-path="url(#clip660)" d="M139.746 328.54 L147.385 328.54 L147.385 302.175 L139.075 303.841 L139.075 299.582 L147.339 297.915 L152.015 297.915 L152.015 328.54 L159.653 328.54 L159.653 332.475 L139.746 332.475 L139.746 328.54 Z" fill="#000000" fill-rule="nonzero" fill-opacity="1" /><path clip-path="url(#clip660)" d="M179.098 316.063 Q175.764 316.063 173.843 317.846 Q171.945 319.628 171.945 322.753 Q171.945 325.878 173.843 327.661 Q175.764 329.443 179.098 329.443 Q182.431 329.443 184.352 327.661 Q186.274 325.855 186.274 322.753 Q186.274 319.628 184.352 317.846 Q182.454 316.063 179.098 316.063 M174.422 314.073 Q171.413 313.332 169.723 311.272 Q168.056 309.212 168.056 306.249 Q168.056 302.105 170.996 299.698 Q173.959 297.29 179.098 297.29 Q184.26 297.29 187.2 299.698 Q190.139 302.105 190.139 306.249 Q190.139 309.212 188.45 311.272 Q186.783 313.332 183.797 314.073 Q187.176 314.86 189.051 317.151 Q190.95 319.443 190.95 322.753 Q190.95 327.776 187.871 330.461 Q184.815 333.147 179.098 333.147 Q173.38 333.147 170.302 330.461 Q167.246 327.776 167.246 322.753 Q167.246 319.443 169.144 317.151 Q171.042 314.86 174.422 314.073 M172.709 306.688 Q172.709 309.374 174.376 310.878 Q176.065 312.383 179.098 312.383 Q182.107 312.383 183.797 310.878 Q185.51 309.374 185.51 306.688 Q185.51 304.003 183.797 302.499 Q182.107 300.994 179.098 300.994 Q176.065 300.994 174.376 302.499 Q172.709 304.003 172.709 306.688 Z" fill="#000000" fill-rule="nonzero" fill-opacity="1" /><path clip-path="url(#clip660)" d="M209.26 300.994 Q205.649 300.994 203.82 304.559 Q202.014 308.1 202.014 315.23 Q202.014 322.337 203.82 325.901 Q205.649 329.443 209.26 329.443 Q212.894 329.443 214.699 325.901 Q216.528 322.337 216.528 315.23 Q216.528 308.1 214.699 304.559 Q212.894 300.994 209.26 300.994 M209.26 297.29 Q215.07 297.29 218.125 301.897 Q221.204 306.48 221.204 315.23 Q221.204 323.957 218.125 328.563 Q215.07 333.147 209.26 333.147 Q203.449 333.147 200.371 328.563 Q197.315 323.957 197.315 315.23 Q197.315 306.48 200.371 301.897 Q203.449 297.29 209.26 297.29 Z" fill="#000000" fill-rule="nonzero" fill-opacity="1" /><path clip-path="url(#clip660)" d="M140.741 202.715 L148.38 202.715 L148.38 176.349 L140.07 178.016 L140.07 173.756 L148.334 172.09 L153.01 172.09 L153.01 202.715 L160.649 202.715 L160.649 206.65 L140.741 206.65 L140.741 202.715 Z" fill="#000000" fill-rule="nonzero" fill-opacity="1" /><path clip-path="url(#clip660)" d="M180.093 190.238 Q176.76 190.238 174.839 192.02 Q172.94 193.803 172.94 196.928 Q172.94 200.053 174.839 201.835 Q176.76 203.617 180.093 203.617 Q183.426 203.617 185.348 201.835 Q187.269 200.029 187.269 196.928 Q187.269 193.803 185.348 192.02 Q183.45 190.238 180.093 190.238 M175.417 188.247 Q172.408 187.506 170.718 185.446 Q169.052 183.386 169.052 180.423 Q169.052 176.28 171.991 173.872 Q174.954 171.465 180.093 171.465 Q185.255 171.465 188.195 173.872 Q191.135 176.28 191.135 180.423 Q191.135 183.386 189.445 185.446 Q187.778 187.506 184.792 188.247 Q188.172 189.034 190.047 191.326 Q191.945 193.617 191.945 196.928 Q191.945 201.951 188.866 204.636 Q185.811 207.321 180.093 207.321 Q174.376 207.321 171.297 204.636 Q168.241 201.951 168.241 196.928 Q168.241 193.617 170.139 191.326 Q172.038 189.034 175.417 188.247 M173.704 180.863 Q173.704 183.548 175.371 185.053 Q177.061 186.557 180.093 186.557 Q183.102 186.557 184.792 185.053 Q186.505 183.548 186.505 180.863 Q186.505 178.178 184.792 176.673 Q183.102 175.168 180.093 175.168 Q177.061 175.168 175.371 176.673 Q173.704 178.178 173.704 180.863 Z" fill="#000000" fill-rule="nonzero" fill-opacity="1" /><path clip-path="url(#clip660)" d="M200.301 172.09 L218.658 172.09 L218.658 176.025 L204.584 176.025 L204.584 184.497 Q205.602 184.15 206.621 183.988 Q207.639 183.803 208.658 183.803 Q214.445 183.803 217.824 186.974 Q221.204 190.145 221.204 195.562 Q221.204 201.141 217.732 204.242 Q214.26 207.321 207.94 207.321 Q205.764 207.321 203.496 206.951 Q201.25 206.58 198.843 205.84 L198.843 201.141 Q200.926 202.275 203.149 202.83 Q205.371 203.386 207.848 203.386 Q211.852 203.386 214.19 201.279 Q216.528 199.173 216.528 195.562 Q216.528 191.951 214.19 189.844 Q211.852 187.738 207.848 187.738 Q205.973 187.738 204.098 188.154 Q202.246 188.571 200.301 189.451 L200.301 172.09 Z" fill="#000000" fill-rule="nonzero" fill-opacity="1" /><path clip-path="url(#clip660)" d="M139.746 76.889 L147.385 76.889 L147.385 50.5234 L139.075 52.1901 L139.075 47.9308 L147.339 46.2642 L152.015 46.2642 L152.015 76.889 L159.653 76.889 L159.653 80.8242 L139.746 80.8242 L139.746 76.889 Z" fill="#000000" fill-rule="nonzero" fill-opacity="1" /><path clip-path="url(#clip660)" d="M169.237 80.1066 L169.237 75.8473 Q170.996 76.6807 172.802 77.1205 Q174.607 77.5603 176.343 77.5603 Q180.973 77.5603 183.403 74.4585 Q185.857 71.3335 186.204 64.9909 Q184.862 66.9816 182.801 68.0465 Q180.741 69.1113 178.241 69.1113 Q173.056 69.1113 170.024 65.9863 Q167.015 62.8381 167.015 57.3984 Q167.015 52.0743 170.163 48.8567 Q173.311 45.6392 178.542 45.6392 Q184.538 45.6392 187.686 50.2456 Q190.857 54.8289 190.857 63.5789 Q190.857 71.7501 186.968 76.6344 Q183.102 81.4955 176.551 81.4955 Q174.792 81.4955 172.987 81.1482 Q171.181 80.801 169.237 80.1066 M178.542 65.4539 Q181.69 65.4539 183.519 63.3011 Q185.371 61.1483 185.371 57.3984 Q185.371 53.6715 183.519 51.5188 Q181.69 49.3429 178.542 49.3429 Q175.394 49.3429 173.542 51.5188 Q171.714 53.6715 171.714 57.3984 Q171.714 61.1483 173.542 63.3011 Q175.394 65.4539 178.542 65.4539 Z" fill="#000000" fill-rule="nonzero" fill-opacity="1" /><path clip-path="url(#clip660)" d="M209.26 49.3429 Q205.649 49.3429 203.82 52.9076 Q202.014 56.4493 202.014 63.5789 Q202.014 70.6853 203.82 74.2501 Q205.649 77.7918 209.26 77.7918 Q212.894 77.7918 214.699 74.2501 Q216.528 70.6853 216.528 63.5789 Q216.528 56.4493 214.699 52.9076 Q212.894 49.3429 209.26 49.3429 M209.26 45.6392 Q215.07 45.6392 218.125 50.2456 Q221.204 54.8289 221.204 63.5789 Q221.204 72.3057 218.125 76.9121 Q215.07 81.4955 209.26 81.4955 Q203.449 81.4955 200.371 76.9121 Q197.315 72.3057 197.315 63.5789 Q197.315 54.8289 200.371 50.2456 Q203.449 45.6392 209.26 45.6392 Z" fill="#000000" fill-rule="nonzero" fill-opacity="1" /><path clip-path="url(#clip660)" d="M46.5325 334.435 Q46.9834 334.435 48.0462 334.724 L73.2312 341.037 Q78.835 342.422 82.7641 346.93 Q86.6932 351.407 86.6932 356.496 Q86.6932 359.555 85.0507 361.52 Q83.4404 363.484 80.9606 363.484 Q78.7706 363.484 77.7078 362.325 Q76.6772 361.165 76.6772 359.781 Q76.6772 359.33 76.806 358.847 Q76.9348 358.364 77.4823 357.848 Q78.0298 357.333 78.9638 357.333 Q80.4775 357.333 81.6691 358.653 Q82.2166 359.298 82.3454 359.909 Q82.4742 360.489 82.4742 361.488 Q83.376 361.101 83.9879 360.393 Q84.5998 359.684 84.8253 358.879 Q85.0829 358.074 85.1473 357.558 Q85.2439 357.011 85.2439 356.496 Q85.2439 352.373 81.0894 349.217 Q79.8334 348.283 78.5773 347.607 Q77.3535 346.898 75.8398 346.383 Q74.3584 345.868 73.5532 345.642 Q72.7481 345.385 70.9123 344.934 Q73.9075 347.929 73.9075 351.6 Q73.9075 353.146 73.4888 354.531 Q73.0701 355.884 72.2006 357.075 Q71.2988 358.267 69.7207 358.975 Q68.1426 359.652 66.0493 359.652 Q63.827 359.652 60.7997 358.782 Q57.7723 357.913 52.2007 355.819 Q49.0768 354.692 47.5631 354.692 Q46.8224 354.692 46.3715 354.853 Q45.8884 355.014 45.7274 355.336 Q45.5341 355.658 45.5019 355.852 Q45.4697 356.013 45.4697 356.335 Q45.4697 358.235 47.4021 360.006 Q49.3344 361.777 53.65 363.001 Q54.4551 363.259 54.6484 363.42 Q54.8416 363.581 54.8416 364.064 Q54.8094 364.869 54.1653 364.869 Q53.9076 364.869 52.9093 364.579 Q51.8787 364.289 50.365 363.613 Q48.8191 362.905 47.4343 361.938 Q46.0172 360.972 45.0188 359.459 Q44.0204 357.913 44.0204 356.141 Q44.0204 353.726 45.5985 352.244 Q47.1444 350.731 49.431 350.731 Q50.365 350.731 51.2023 350.988 Q52.0075 351.214 54.1653 352.051 Q62.8609 355.433 67.112 355.433 Q68.1426 355.433 69.0122 355.272 Q69.8495 355.079 70.6869 354.66 Q71.492 354.241 71.9751 353.404 Q72.426 352.534 72.426 351.343 Q72.426 349.829 71.7175 348.412 Q70.9767 346.963 69.9784 346.061 Q68.98 345.127 68.1426 344.579 Q67.2731 344 66.8222 343.871 L54.9704 340.908 L49.6887 339.588 Q46.8224 338.976 46.1138 338.686 Q45.4375 338.299 45.0832 337.623 Q44.729 336.947 44.729 336.367 Q44.729 335.562 45.2121 335.014 Q45.6951 334.435 46.5325 334.435 Z" fill="#000000" fill-rule="nonzero" fill-opacity="1" /><path clip-path="url(#clip660)" d="M78.4799 327.689 L77.0371 327.689 Q77.0371 322.143 74.0838 319.28 Q74.0838 318.491 74.2641 318.355 Q74.4445 318.22 75.2786 318.22 L101.182 318.22 Q102.557 318.22 102.985 317.544 Q103.414 316.867 103.414 313.914 L103.414 312.449 L104.834 312.449 Q104.699 314.072 104.699 319.933 Q104.699 325.795 104.834 327.395 L103.414 327.395 L103.414 325.93 Q103.414 323.022 103.008 322.323 Q102.58 321.624 101.182 321.624 L77.2625 321.624 Q78.4799 324.036 78.4799 327.689 Z" fill="#000000" fill-rule="nonzero" fill-opacity="1" /><polyline clip-path="url(#clip662)" style="stroke:#009af9; stroke-linecap:round; stroke-linejoin:round; stroke-width:4; stroke-opacity:1; fill:none" points="282.55,63.5442 307.399,63.5442 332.247,63.5442 357.096,437.825 381.945,490.799 406.794,602.539 431.643,561.669 456.492,606.88 481.34,561.979 506.189,559.347 531.038,504.714 555.887,487.95 580.736,445.262 605.585,428.041 630.433,395.681 655.282,381.519 680.131,359.561 704.98,350.088 729.829,336.113 754.678,330.471 779.526,322.259 804.375,319.511 829.224,315.131 854.073,314.201 878.922,312.16 903.771,312.241 928.619,311.511 953.468,312.038 978.317,311.953 1003.17,312.589 1028.01,312.763 1052.86,313.338 1077.71,313.567 1102.56,314.015 1127.41,314.211 "/>
<polyline clip-path="url(#clip662)" style="stroke:#3da44d; stroke-linecap:round; stroke-linejoin:round; stroke-width:3; stroke-opacity:1; fill:none" stroke-dasharray="12, 8" points="282.55,315.195 307.399,315.195 332.247,315.195 357.096,315.195 381.945,315.195 406.794,315.195 431.643,315.195 456.492,315.195 481.34,315.195 506.189,315.195 531.038,315.195 555.887,315.195 580.736,315.195 605.585,315.195 630.433,315.195 655.282,315.195 680.131,315.195 704.98,315.195 729.829,315.195 754.678,315.195 779.526,315.195 804.375,315.195 829.224,315.195 854.073,315.195 878.922,315.195 903.771,315.195 928.619,315.195 953.468,315.195 978.317,315.195 1003.17,315.195 1028.01,315.195 1052.86,315.195 1077.71,315.195 1102.56,315.195 1127.41,315.195 "/>
<path clip-path="url(#clip660)" d="M985.34 221.962 L1122.9 221.962 L1122.9 66.442 L985.34 66.442  Z" fill="#ffffff" fill-rule="evenodd" fill-opacity="1"/>
<polyline clip-path="url(#clip660)" style="stroke:#000000; stroke-linecap:round; stroke-linejoin:round; stroke-width:4; stroke-opacity:1; fill:none" points="985.34,221.962 1122.9,221.962 1122.9,66.442 985.34,66.442 985.34,221.962 "/>
<polyline clip-path="url(#clip660)" style="stroke:#009af9; stroke-linecap:round; stroke-linejoin:round; stroke-width:4; stroke-opacity:1; fill:none" points="995.291,118.282 1054.99,118.282 "/>
<path clip-path="url(#clip660)" d="M1091.72 105.021 Q1090.24 105.021 1089.49 105.161 Q1088.74 105.278 1088.55 105.442 Q1088.37 105.606 1088.16 106.028 L1077.85 127.951 Q1076.75 130.294 1074.69 131.98 Q1072.65 133.666 1070.07 133.666 Q1067.92 133.666 1066.42 132.355 Q1064.94 131.067 1064.94 129.24 Q1064.94 127.928 1065.76 127.178 Q1066.58 126.452 1067.69 126.452 Q1068.9 126.452 1069.68 127.225 Q1070.47 127.998 1070.47 129.193 Q1070.47 129.966 1070.14 130.551 Q1069.82 131.16 1069.51 131.371 Q1069.23 131.605 1068.93 131.746 Q1069.42 131.933 1070.07 131.933 Q1071.06 131.933 1071.9 131.535 Q1072.77 131.16 1073.33 130.645 Q1073.92 130.153 1074.5 129.263 Q1075.09 128.396 1075.37 127.834 Q1075.65 127.296 1076.07 126.359 L1077.17 124.063 L1068.2 105.021 L1065.13 105.021 L1065.13 102.772 L1070.61 102.913 L1076.56 102.772 L1076.56 105.021 L1073.96 105.021 L1080.05 117.973 L1085.58 106.168 L1085.81 105.606 Q1085.81 105.349 1085.25 105.208 Q1084.69 105.044 1084.13 105.044 L1083.57 105.021 L1083.57 102.772 L1087.92 102.913 Q1089.98 102.913 1091.72 102.772 L1091.72 105.021 Z" fill="#000000" fill-rule="nonzero" fill-opacity="1" /><polyline clip-path="url(#clip660)" style="stroke:#3da44d; stroke-linecap:round; stroke-linejoin:round; stroke-width:3; stroke-opacity:1; fill:none" stroke-dasharray="12, 8" points="995.291,170.122 1054.99,170.122 "/>
<path clip-path="url(#clip660)" d="M1084.36 155.4 Q1084.36 156.758 1083.47 157.555 Q1082.58 158.328 1081.43 158.328 Q1080.29 158.328 1079.4 157.555 Q1078.51 156.782 1078.51 155.4 Q1078.51 154.791 1078.72 154.252 Q1078.95 153.69 1079.19 153.432 L1079.42 153.198 Q1078.04 153.198 1076.96 153.854 Q1075.88 154.486 1075.23 155.47 Q1074.57 156.454 1074.15 157.742 Q1073.73 159.007 1073.56 160.155 Q1073.42 161.302 1073.42 162.403 L1073.42 170.812 L1077.59 170.812 L1077.59 173.06 Q1075.86 172.92 1070.99 172.92 L1064.94 173.06 L1064.94 170.812 L1068.25 170.812 L1068.25 155.985 Q1068.25 154.627 1067.76 154.369 Q1067.26 154.112 1064.94 154.112 L1064.94 151.863 L1072.91 151.465 L1072.91 156.899 Q1074.9 151.465 1079.28 151.465 Q1081.29 151.465 1082.82 152.542 Q1084.36 153.596 1084.36 155.4 Z" fill="#000000" fill-rule="nonzero" fill-opacity="1" /><path clip-path="url(#clip660)" d="M1108.02 168.583 Q1106.99 168.583 1106.47 168.682 Q1105.94 168.764 1105.81 168.879 Q1105.68 168.993 1105.53 169.289 L1098.32 184.635 Q1097.55 186.274 1096.1 187.455 Q1094.68 188.635 1092.87 188.635 Q1091.37 188.635 1090.32 187.717 Q1089.28 186.816 1089.28 185.537 Q1089.28 184.618 1089.86 184.094 Q1090.43 183.586 1091.2 183.586 Q1092.05 183.586 1092.6 184.127 Q1093.15 184.668 1093.15 185.504 Q1093.15 186.045 1092.92 186.455 Q1092.69 186.881 1092.48 187.029 Q1092.28 187.193 1092.07 187.291 Q1092.42 187.422 1092.87 187.422 Q1093.56 187.422 1094.15 187.143 Q1094.76 186.881 1095.15 186.52 Q1095.56 186.176 1095.97 185.553 Q1096.38 184.946 1096.58 184.553 Q1096.78 184.176 1097.07 183.52 L1097.84 181.913 L1091.56 168.583 L1089.41 168.583 L1089.41 167.01 L1093.25 167.108 L1097.42 167.01 L1097.42 168.583 L1095.6 168.583 L1099.86 177.65 L1103.73 169.387 L1103.89 168.993 Q1103.89 168.813 1103.5 168.715 Q1103.11 168.6 1102.71 168.6 L1102.32 168.583 L1102.32 167.01 L1105.37 167.108 Q1106.81 167.108 1108.02 167.01 L1108.02 168.583 Z" fill="#000000" fill-rule="nonzero" fill-opacity="1" /><path clip-path="url(#clip660)" d="M257.204 1423.18 L1152.76 1423.18 L1152.76 847.244 L257.204 847.244  Z" fill="#ffffff" fill-rule="evenodd" fill-opacity="1"/>
<defs>
  <clipPath id="clip663">
    <rect x="257" y="847" width="897" height="577"/>
  </clipPath>
</defs>
<polyline clip-path="url(#clip663)" style="stroke:#000000; stroke-linecap:round; stroke-linejoin:round; stroke-width:2; stroke-opacity:0.1; fill:none" points="282.55,1423.18 282.55,847.244 "/>
<polyline clip-path="url(#clip663)" style="stroke:#000000; stroke-linecap:round; stroke-linejoin:round; stroke-width:2; stroke-opacity:0.1; fill:none" points="531.038,1423.18 531.038,847.244 "/>
<polyline clip-path="url(#clip663)" style="stroke:#000000; stroke-linecap:round; stroke-linejoin:round; stroke-width:2; stroke-opacity:0.1; fill:none" points="779.526,1423.18 779.526,847.244 "/>
<polyline clip-path="url(#clip663)" style="stroke:#000000; stroke-linecap:round; stroke-linejoin:round; stroke-width:2; stroke-opacity:0.1; fill:none" points="1028.01,1423.18 1028.01,847.244 "/>
<polyline clip-path="url(#clip660)" style="stroke:#000000; stroke-linecap:round; stroke-linejoin:round; stroke-width:4; stroke-opacity:1; fill:none" points="257.204,1423.18 1152.76,1423.18 "/>
<polyline clip-path="url(#clip660)" style="stroke:#000000; stroke-linecap:round; stroke-linejoin:round; stroke-width:4; stroke-opacity:1; fill:none" points="282.55,1423.18 282.55,1404.28 "/>
<polyline clip-path="url(#clip660)" style="stroke:#000000; stroke-linecap:round; stroke-linejoin:round; stroke-width:4; stroke-opacity:1; fill:none" points="531.038,1423.18 531.038,1404.28 "/>
<polyline clip-path="url(#clip660)" style="stroke:#000000; stroke-linecap:round; stroke-linejoin:round; stroke-width:4; stroke-opacity:1; fill:none" points="779.526,1423.18 779.526,1404.28 "/>
<polyline clip-path="url(#clip660)" style="stroke:#000000; stroke-linecap:round; stroke-linejoin:round; stroke-width:4; stroke-opacity:1; fill:none" points="1028.01,1423.18 1028.01,1404.28 "/>
<path clip-path="url(#clip660)" d="M282.55 1454.1 Q278.939 1454.1 277.11 1457.66 Q275.305 1461.2 275.305 1468.33 Q275.305 1475.44 277.11 1479.01 Q278.939 1482.55 282.55 1482.55 Q286.184 1482.55 287.99 1479.01 Q289.818 1475.44 289.818 1468.33 Q289.818 1461.2 287.99 1457.66 Q286.184 1454.1 282.55 1454.1 M282.55 1450.39 Q288.36 1450.39 291.416 1455 Q294.494 1459.58 294.494 1468.33 Q294.494 1477.06 291.416 1481.67 Q288.36 1486.25 282.55 1486.25 Q276.74 1486.25 273.661 1481.67 Q270.605 1477.06 270.605 1468.33 Q270.605 1459.58 273.661 1455 Q276.74 1450.39 282.55 1450.39 Z" fill="#000000" fill-rule="nonzero" fill-opacity="1" /><path clip-path="url(#clip660)" d="M521.42 1481.64 L529.059 1481.64 L529.059 1455.28 L520.749 1456.95 L520.749 1452.69 L529.013 1451.02 L533.689 1451.02 L533.689 1481.64 L541.327 1481.64 L541.327 1485.58 L521.42 1485.58 L521.42 1481.64 Z" fill="#000000" fill-rule="nonzero" fill-opacity="1" /><path clip-path="url(#clip660)" d="M774.179 1481.64 L790.499 1481.64 L790.499 1485.58 L768.554 1485.58 L768.554 1481.64 Q771.216 1478.89 775.8 1474.26 Q780.406 1469.61 781.587 1468.27 Q783.832 1465.74 784.712 1464.01 Q785.614 1462.25 785.614 1460.56 Q785.614 1457.8 783.67 1456.07 Q781.749 1454.33 778.647 1454.33 Q776.448 1454.33 773.994 1455.09 Q771.564 1455.86 768.786 1457.41 L768.786 1452.69 Q771.61 1451.55 774.064 1450.97 Q776.517 1450.39 778.554 1450.39 Q783.925 1450.39 787.119 1453.08 Q790.313 1455.77 790.313 1460.26 Q790.313 1462.39 789.503 1464.31 Q788.716 1466.2 786.61 1468.8 Q786.031 1469.47 782.929 1472.69 Q779.827 1475.88 774.179 1481.64 Z" fill="#000000" fill-rule="nonzero" fill-opacity="1" /><path clip-path="url(#clip660)" d="M1032.26 1466.95 Q1035.62 1467.66 1037.49 1469.93 Q1039.39 1472.2 1039.39 1475.53 Q1039.39 1480.65 1035.87 1483.45 Q1032.36 1486.25 1025.87 1486.25 Q1023.7 1486.25 1021.38 1485.81 Q1019.09 1485.39 1016.64 1484.54 L1016.64 1480.02 Q1018.58 1481.16 1020.9 1481.74 Q1023.21 1482.32 1025.73 1482.32 Q1030.13 1482.32 1032.42 1480.58 Q1034.74 1478.84 1034.74 1475.53 Q1034.74 1472.48 1032.59 1470.77 Q1030.46 1469.03 1026.64 1469.03 L1022.61 1469.03 L1022.61 1465.19 L1026.82 1465.19 Q1030.27 1465.19 1032.1 1463.82 Q1033.93 1462.43 1033.93 1459.84 Q1033.93 1457.18 1032.03 1455.77 Q1030.16 1454.33 1026.64 1454.33 Q1024.72 1454.33 1022.52 1454.75 Q1020.32 1455.16 1017.68 1456.04 L1017.68 1451.88 Q1020.34 1451.14 1022.66 1450.77 Q1024.99 1450.39 1027.05 1450.39 Q1032.38 1450.39 1035.48 1452.83 Q1038.58 1455.23 1038.58 1459.35 Q1038.58 1462.22 1036.94 1464.21 Q1035.29 1466.18 1032.26 1466.95 Z" fill="#000000" fill-rule="nonzero" fill-opacity="1" /><path clip-path="url(#clip660)" d="M575.151 1520.52 L615.351 1520.52 L615.351 1525.93 L598.482 1525.93 L598.482 1568.04 L592.021 1568.04 L592.021 1525.93 L575.151 1525.93 L575.151 1520.52 Z" fill="#000000" fill-rule="nonzero" fill-opacity="1" /><path clip-path="url(#clip660)" d="M619.298 1532.4 L625.154 1532.4 L625.154 1568.04 L619.298 1568.04 L619.298 1532.4 M619.298 1518.52 L625.154 1518.52 L625.154 1525.93 L619.298 1525.93 L619.298 1518.52 Z" fill="#000000" fill-rule="nonzero" fill-opacity="1" /><path clip-path="url(#clip660)" d="M665.162 1539.24 Q667.359 1535.29 670.414 1533.41 Q673.47 1531.54 677.607 1531.54 Q683.177 1531.54 686.201 1535.45 Q689.225 1539.33 689.225 1546.53 L689.225 1568.04 L683.337 1568.04 L683.337 1546.72 Q683.337 1541.59 681.522 1539.11 Q679.708 1536.63 675.984 1536.63 Q671.433 1536.63 668.791 1539.65 Q666.149 1542.68 666.149 1547.9 L666.149 1568.04 L660.261 1568.04 L660.261 1546.72 Q660.261 1541.56 658.447 1539.11 Q656.632 1536.63 652.845 1536.63 Q648.357 1536.63 645.715 1539.68 Q643.073 1542.71 643.073 1547.9 L643.073 1568.04 L637.185 1568.04 L637.185 1532.4 L643.073 1532.4 L643.073 1537.93 Q645.079 1534.66 647.88 1533.1 Q650.68 1531.54 654.532 1531.54 Q658.415 1531.54 661.12 1533.51 Q663.858 1535.48 665.162 1539.24 Z" fill="#000000" fill-rule="nonzero" fill-opacity="1" /><path clip-path="url(#clip660)" d="M731.398 1548.76 L731.398 1551.62 L704.471 1551.62 Q704.853 1557.67 708.099 1560.85 Q711.378 1564 717.202 1564 Q720.576 1564 723.727 1563.17 Q726.91 1562.35 730.029 1560.69 L730.029 1566.23 Q726.878 1567.57 723.568 1568.27 Q720.258 1568.97 716.852 1568.97 Q708.322 1568.97 703.325 1564 Q698.36 1559.04 698.36 1550.57 Q698.36 1541.82 703.07 1536.69 Q707.813 1531.54 715.833 1531.54 Q723.027 1531.54 727.196 1536.18 Q731.398 1540.8 731.398 1548.76 M725.541 1547.04 Q725.478 1542.23 722.836 1539.37 Q720.226 1536.5 715.897 1536.5 Q710.996 1536.5 708.036 1539.27 Q705.107 1542.04 704.662 1547.07 L725.541 1547.04 Z" fill="#000000" fill-rule="nonzero" fill-opacity="1" /><path clip-path="url(#clip660)" d="M775.798 1518.58 Q771.533 1525.9 769.465 1533.06 Q767.396 1540.23 767.396 1547.58 Q767.396 1554.93 769.465 1562.16 Q771.565 1569.35 775.798 1576.64 L770.706 1576.64 Q765.932 1569.16 763.544 1561.93 Q761.189 1554.71 761.189 1547.58 Q761.189 1540.48 763.544 1533.29 Q765.9 1526.09 770.706 1518.58 L775.798 1518.58 Z" fill="#000000" fill-rule="nonzero" fill-opacity="1" /><path clip-path="url(#clip660)" d="M809.887 1533.45 L809.887 1538.98 Q807.404 1537.71 804.731 1537.07 Q802.057 1536.44 799.192 1536.44 Q794.832 1536.44 792.636 1537.77 Q790.471 1539.11 790.471 1541.79 Q790.471 1543.82 792.031 1545 Q793.591 1546.15 798.301 1547.2 L800.306 1547.64 Q806.545 1548.98 809.155 1551.43 Q811.797 1553.85 811.797 1558.21 Q811.797 1563.17 807.85 1566.07 Q803.935 1568.97 797.06 1568.97 Q794.195 1568.97 791.076 1568.39 Q787.989 1567.85 784.551 1566.74 L784.551 1560.69 Q787.798 1562.38 790.949 1563.24 Q794.1 1564.07 797.187 1564.07 Q801.325 1564.07 803.553 1562.66 Q805.781 1561.23 805.781 1558.65 Q805.781 1556.27 804.158 1554.99 Q802.566 1553.72 797.124 1552.54 L795.087 1552.07 Q789.644 1550.92 787.225 1548.56 Q784.806 1546.18 784.806 1542.04 Q784.806 1537.01 788.371 1534.27 Q791.936 1531.54 798.492 1531.54 Q801.739 1531.54 804.603 1532.01 Q807.468 1532.49 809.887 1533.45 Z" fill="#000000" fill-rule="nonzero" fill-opacity="1" /><path clip-path="url(#clip660)" d="M820.199 1518.58 L825.292 1518.58 Q830.066 1526.09 832.421 1533.29 Q834.809 1540.48 834.809 1547.58 Q834.809 1554.71 832.421 1561.93 Q830.066 1569.16 825.292 1576.64 L820.199 1576.64 Q824.432 1569.35 826.501 1562.16 Q828.602 1554.93 828.602 1547.58 Q828.602 1540.23 826.501 1533.06 Q824.432 1525.9 820.199 1518.58 Z" fill="#000000" fill-rule="nonzero" fill-opacity="1" /><polyline clip-path="url(#clip663)" style="stroke:#000000; stroke-linecap:round; stroke-linejoin:round; stroke-width:2; stroke-opacity:0.1; fill:none" points="257.204,1389.38 1152.76,1389.38 "/>
<polyline clip-path="url(#clip663)" style="stroke:#000000; stroke-linecap:round; stroke-linejoin:round; stroke-width:2; stroke-opacity:0.1; fill:none" points="257.204,1298.05 1152.76,1298.05 "/>
<polyline clip-path="url(#clip663)" style="stroke:#000000; stroke-linecap:round; stroke-linejoin:round; stroke-width:2; stroke-opacity:0.1; fill:none" points="257.204,1206.73 1152.76,1206.73 "/>
<polyline clip-path="url(#clip663)" style="stroke:#000000; stroke-linecap:round; stroke-linejoin:round; stroke-width:2; stroke-opacity:0.1; fill:none" points="257.204,1115.4 1152.76,1115.4 "/>
<polyline clip-path="url(#clip663)" style="stroke:#000000; stroke-linecap:round; stroke-linejoin:round; stroke-width:2; stroke-opacity:0.1; fill:none" points="257.204,1024.08 1152.76,1024.08 "/>
<polyline clip-path="url(#clip663)" style="stroke:#000000; stroke-linecap:round; stroke-linejoin:round; stroke-width:2; stroke-opacity:0.1; fill:none" points="257.204,932.751 1152.76,932.751 "/>
<polyline clip-path="url(#clip660)" style="stroke:#000000; stroke-linecap:round; stroke-linejoin:round; stroke-width:4; stroke-opacity:1; fill:none" points="257.204,1423.18 257.204,847.244 "/>
<polyline clip-path="url(#clip660)" style="stroke:#000000; stroke-linecap:round; stroke-linejoin:round; stroke-width:4; stroke-opacity:1; fill:none" points="257.204,1389.38 276.102,1389.38 "/>
<polyline clip-path="url(#clip660)" style="stroke:#000000; stroke-linecap:round; stroke-linejoin:round; stroke-width:4; stroke-opacity:1; fill:none" points="257.204,1298.05 276.102,1298.05 "/>
<polyline clip-path="url(#clip660)" style="stroke:#000000; stroke-linecap:round; stroke-linejoin:round; stroke-width:4; stroke-opacity:1; fill:none" points="257.204,1206.73 276.102,1206.73 "/>
<polyline clip-path="url(#clip660)" style="stroke:#000000; stroke-linecap:round; stroke-linejoin:round; stroke-width:4; stroke-opacity:1; fill:none" points="257.204,1115.4 276.102,1115.4 "/>
<polyline clip-path="url(#clip660)" style="stroke:#000000; stroke-linecap:round; stroke-linejoin:round; stroke-width:4; stroke-opacity:1; fill:none" points="257.204,1024.08 276.102,1024.08 "/>
<polyline clip-path="url(#clip660)" style="stroke:#000000; stroke-linecap:round; stroke-linejoin:round; stroke-width:4; stroke-opacity:1; fill:none" points="257.204,932.751 276.102,932.751 "/>
<path clip-path="url(#clip660)" d="M115.256 1389.83 L144.931 1389.83 L144.931 1393.76 L115.256 1393.76 L115.256 1389.83 Z" fill="#000000" fill-rule="nonzero" fill-opacity="1" /><path clip-path="url(#clip660)" d="M159.052 1402.72 L175.371 1402.72 L175.371 1406.66 L153.427 1406.66 L153.427 1402.72 Q156.089 1399.97 160.672 1395.34 Q165.278 1390.68 166.459 1389.34 Q168.704 1386.82 169.584 1385.08 Q170.487 1383.32 170.487 1381.63 Q170.487 1378.88 168.542 1377.14 Q166.621 1375.41 163.519 1375.41 Q161.32 1375.41 158.866 1376.17 Q156.436 1376.93 153.658 1378.49 L153.658 1373.76 Q156.482 1372.63 158.936 1372.05 Q161.39 1371.47 163.427 1371.47 Q168.797 1371.47 171.991 1374.16 Q175.186 1376.84 175.186 1381.33 Q175.186 1383.46 174.376 1385.38 Q173.589 1387.28 171.482 1389.87 Q170.903 1390.55 167.802 1393.76 Q164.7 1396.96 159.052 1402.72 Z" fill="#000000" fill-rule="nonzero" fill-opacity="1" /><path clip-path="url(#clip660)" d="M185.186 1400.78 L190.07 1400.78 L190.07 1406.66 L185.186 1406.66 L185.186 1400.78 Z" fill="#000000" fill-rule="nonzero" fill-opacity="1" /><path clip-path="url(#clip660)" d="M200.301 1372.1 L218.658 1372.1 L218.658 1376.03 L204.584 1376.03 L204.584 1384.5 Q205.602 1384.16 206.621 1383.99 Q207.639 1383.81 208.658 1383.81 Q214.445 1383.81 217.824 1386.98 Q221.204 1390.15 221.204 1395.57 Q221.204 1401.15 217.732 1404.25 Q214.26 1407.33 207.94 1407.33 Q205.764 1407.33 203.496 1406.96 Q201.25 1406.59 198.843 1405.85 L198.843 1401.15 Q200.926 1402.28 203.149 1402.84 Q205.371 1403.39 207.848 1403.39 Q211.852 1403.39 214.19 1401.29 Q216.528 1399.18 216.528 1395.57 Q216.528 1391.96 214.19 1389.85 Q211.852 1387.74 207.848 1387.74 Q205.973 1387.74 204.098 1388.16 Q202.246 1388.58 200.301 1389.46 L200.301 1372.1 Z" fill="#000000" fill-rule="nonzero" fill-opacity="1" /><path clip-path="url(#clip660)" d="M114.26 1298.5 L143.936 1298.5 L143.936 1302.44 L114.26 1302.44 L114.26 1298.5 Z" fill="#000000" fill-rule="nonzero" fill-opacity="1" /><path clip-path="url(#clip660)" d="M158.056 1311.4 L174.376 1311.4 L174.376 1315.33 L152.431 1315.33 L152.431 1311.4 Q155.093 1308.64 159.677 1304.01 Q164.283 1299.36 165.464 1298.02 Q167.709 1295.49 168.589 1293.76 Q169.491 1292 169.491 1290.31 Q169.491 1287.55 167.547 1285.82 Q165.626 1284.08 162.524 1284.08 Q160.325 1284.08 157.871 1284.85 Q155.44 1285.61 152.663 1287.16 L152.663 1282.44 Q155.487 1281.3 157.94 1280.72 Q160.394 1280.15 162.431 1280.15 Q167.802 1280.15 170.996 1282.83 Q174.19 1285.52 174.19 1290.01 Q174.19 1292.14 173.38 1294.06 Q172.593 1295.96 170.487 1298.55 Q169.908 1299.22 166.806 1302.44 Q163.704 1305.63 158.056 1311.4 Z" fill="#000000" fill-rule="nonzero" fill-opacity="1" /><path clip-path="url(#clip660)" d="M184.19 1309.45 L189.075 1309.45 L189.075 1315.33 L184.19 1315.33 L184.19 1309.45 Z" fill="#000000" fill-rule="nonzero" fill-opacity="1" /><path clip-path="url(#clip660)" d="M209.26 1283.85 Q205.649 1283.85 203.82 1287.41 Q202.014 1290.96 202.014 1298.09 Q202.014 1305.19 203.82 1308.76 Q205.649 1312.3 209.26 1312.3 Q212.894 1312.3 214.699 1308.76 Q216.528 1305.19 216.528 1298.09 Q216.528 1290.96 214.699 1287.41 Q212.894 1283.85 209.26 1283.85 M209.26 1280.15 Q215.07 1280.15 218.125 1284.75 Q221.204 1289.34 221.204 1298.09 Q221.204 1306.81 218.125 1311.42 Q215.07 1316 209.26 1316 Q203.449 1316 200.371 1311.42 Q197.315 1306.81 197.315 1298.09 Q197.315 1289.34 200.371 1284.75 Q203.449 1280.15 209.26 1280.15 Z" fill="#000000" fill-rule="nonzero" fill-opacity="1" /><path clip-path="url(#clip660)" d="M115.256 1207.18 L144.931 1207.18 L144.931 1211.11 L115.256 1211.11 L115.256 1207.18 Z" fill="#000000" fill-rule="nonzero" fill-opacity="1" /><path clip-path="url(#clip660)" d="M155.834 1220.07 L163.473 1220.07 L163.473 1193.71 L155.163 1195.37 L155.163 1191.11 L163.427 1189.45 L168.102 1189.45 L168.102 1220.07 L175.741 1220.07 L175.741 1224.01 L155.834 1224.01 L155.834 1220.07 Z" fill="#000000" fill-rule="nonzero" fill-opacity="1" /><path clip-path="url(#clip660)" d="M185.186 1218.13 L190.07 1218.13 L190.07 1224.01 L185.186 1224.01 L185.186 1218.13 Z" fill="#000000" fill-rule="nonzero" fill-opacity="1" /><path clip-path="url(#clip660)" d="M200.301 1189.45 L218.658 1189.45 L218.658 1193.38 L204.584 1193.38 L204.584 1201.85 Q205.602 1201.51 206.621 1201.34 Q207.639 1201.16 208.658 1201.16 Q214.445 1201.16 217.824 1204.33 Q221.204 1207.5 221.204 1212.92 Q221.204 1218.5 217.732 1221.6 Q214.26 1224.68 207.94 1224.68 Q205.764 1224.68 203.496 1224.31 Q201.25 1223.94 198.843 1223.2 L198.843 1218.5 Q200.926 1219.63 203.149 1220.19 Q205.371 1220.74 207.848 1220.74 Q211.852 1220.74 214.19 1218.64 Q216.528 1216.53 216.528 1212.92 Q216.528 1209.31 214.19 1207.2 Q211.852 1205.09 207.848 1205.09 Q205.973 1205.09 204.098 1205.51 Q202.246 1205.93 200.301 1206.81 L200.301 1189.45 Z" fill="#000000" fill-rule="nonzero" fill-opacity="1" /><path clip-path="url(#clip660)" d="M114.26 1115.85 L143.936 1115.85 L143.936 1119.79 L114.26 1119.79 L114.26 1115.85 Z" fill="#000000" fill-rule="nonzero" fill-opacity="1" /><path clip-path="url(#clip660)" d="M154.839 1128.75 L162.477 1128.75 L162.477 1102.38 L154.167 1104.05 L154.167 1099.79 L162.431 1098.12 L167.107 1098.12 L167.107 1128.75 L174.746 1128.75 L174.746 1132.68 L154.839 1132.68 L154.839 1128.75 Z" fill="#000000" fill-rule="nonzero" fill-opacity="1" /><path clip-path="url(#clip660)" d="M184.19 1126.8 L189.075 1126.8 L189.075 1132.68 L184.19 1132.68 L184.19 1126.8 Z" fill="#000000" fill-rule="nonzero" fill-opacity="1" /><path clip-path="url(#clip660)" d="M209.26 1101.2 Q205.649 1101.2 203.82 1104.76 Q202.014 1108.31 202.014 1115.44 Q202.014 1122.54 203.82 1126.11 Q205.649 1129.65 209.26 1129.65 Q212.894 1129.65 214.699 1126.11 Q216.528 1122.54 216.528 1115.44 Q216.528 1108.31 214.699 1104.76 Q212.894 1101.2 209.26 1101.2 M209.26 1097.5 Q215.07 1097.5 218.125 1102.1 Q221.204 1106.69 221.204 1115.44 Q221.204 1124.16 218.125 1128.77 Q215.07 1133.35 209.26 1133.35 Q203.449 1133.35 200.371 1128.77 Q197.315 1124.16 197.315 1115.44 Q197.315 1106.69 200.371 1102.1 Q203.449 1097.5 209.26 1097.5 Z" fill="#000000" fill-rule="nonzero" fill-opacity="1" /><path clip-path="url(#clip660)" d="M115.256 1024.53 L144.931 1024.53 L144.931 1028.46 L115.256 1028.46 L115.256 1024.53 Z" fill="#000000" fill-rule="nonzero" fill-opacity="1" /><path clip-path="url(#clip660)" d="M165.024 1009.88 Q161.413 1009.88 159.584 1013.44 Q157.778 1016.98 157.778 1024.11 Q157.778 1031.22 159.584 1034.78 Q161.413 1038.32 165.024 1038.32 Q168.658 1038.32 170.464 1034.78 Q172.292 1031.22 172.292 1024.11 Q172.292 1016.98 170.464 1013.44 Q168.658 1009.88 165.024 1009.88 M165.024 1006.17 Q170.834 1006.17 173.889 1010.78 Q176.968 1015.36 176.968 1024.11 Q176.968 1032.84 173.889 1037.44 Q170.834 1042.03 165.024 1042.03 Q159.214 1042.03 156.135 1037.44 Q153.079 1032.84 153.079 1024.11 Q153.079 1015.36 156.135 1010.78 Q159.214 1006.17 165.024 1006.17 Z" fill="#000000" fill-rule="nonzero" fill-opacity="1" /><path clip-path="url(#clip660)" d="M185.186 1035.48 L190.07 1035.48 L190.07 1041.36 L185.186 1041.36 L185.186 1035.48 Z" fill="#000000" fill-rule="nonzero" fill-opacity="1" /><path clip-path="url(#clip660)" d="M200.301 1006.8 L218.658 1006.8 L218.658 1010.73 L204.584 1010.73 L204.584 1019.2 Q205.602 1018.86 206.621 1018.69 Q207.639 1018.51 208.658 1018.51 Q214.445 1018.51 217.824 1021.68 Q221.204 1024.85 221.204 1030.27 Q221.204 1035.85 217.732 1038.95 Q214.26 1042.03 207.94 1042.03 Q205.764 1042.03 203.496 1041.66 Q201.25 1041.29 198.843 1040.55 L198.843 1035.85 Q200.926 1036.98 203.149 1037.54 Q205.371 1038.09 207.848 1038.09 Q211.852 1038.09 214.19 1035.99 Q216.528 1033.88 216.528 1030.27 Q216.528 1026.66 214.19 1024.55 Q211.852 1022.44 207.848 1022.44 Q205.973 1022.44 204.098 1022.86 Q202.246 1023.28 200.301 1024.16 L200.301 1006.8 Z" fill="#000000" fill-rule="nonzero" fill-opacity="1" /><path clip-path="url(#clip660)" d="M164.028 918.55 Q160.417 918.55 158.589 922.115 Q156.783 925.657 156.783 932.786 Q156.783 939.893 158.589 943.457 Q160.417 946.999 164.028 946.999 Q167.663 946.999 169.468 943.457 Q171.297 939.893 171.297 932.786 Q171.297 925.657 169.468 922.115 Q167.663 918.55 164.028 918.55 M164.028 914.846 Q169.839 914.846 172.894 919.453 Q175.973 924.036 175.973 932.786 Q175.973 941.513 172.894 946.119 Q169.839 950.703 164.028 950.703 Q158.218 950.703 155.14 946.119 Q152.084 941.513 152.084 932.786 Q152.084 924.036 155.14 919.453 Q158.218 914.846 164.028 914.846 Z" fill="#000000" fill-rule="nonzero" fill-opacity="1" /><path clip-path="url(#clip660)" d="M184.19 944.152 L189.075 944.152 L189.075 950.031 L184.19 950.031 L184.19 944.152 Z" fill="#000000" fill-rule="nonzero" fill-opacity="1" /><path clip-path="url(#clip660)" d="M209.26 918.55 Q205.649 918.55 203.82 922.115 Q202.014 925.657 202.014 932.786 Q202.014 939.893 203.82 943.457 Q205.649 946.999 209.26 946.999 Q212.894 946.999 214.699 943.457 Q216.528 939.893 216.528 932.786 Q216.528 925.657 214.699 922.115 Q212.894 918.55 209.26 918.55 M209.26 914.846 Q215.07 914.846 218.125 919.453 Q221.204 924.036 221.204 932.786 Q221.204 941.513 218.125 946.119 Q215.07 950.703 209.26 950.703 Q203.449 950.703 200.371 946.119 Q197.315 941.513 197.315 932.786 Q197.315 924.036 200.371 919.453 Q203.449 914.846 209.26 914.846 Z" fill="#000000" fill-rule="nonzero" fill-opacity="1" /><path clip-path="url(#clip660)" d="M21.7178 1136.02 Q22.1687 1136.02 23.2315 1136.3 L48.4165 1142.62 Q54.0203 1144 57.9494 1148.51 Q61.8785 1152.99 61.8785 1158.08 Q61.8785 1161.14 60.236 1163.1 Q58.6257 1165.06 56.1459 1165.06 Q53.9559 1165.06 52.8931 1163.91 Q51.8625 1162.75 51.8625 1161.36 Q51.8625 1160.91 51.9913 1160.43 Q52.1201 1159.94 52.6676 1159.43 Q53.2151 1158.91 54.1491 1158.91 Q55.6628 1158.91 56.8544 1160.23 Q57.4019 1160.88 57.5307 1161.49 Q57.6596 1162.07 57.6596 1163.07 Q58.5613 1162.68 59.1732 1161.97 Q59.7851 1161.26 60.0106 1160.46 Q60.2682 1159.65 60.3326 1159.14 Q60.4293 1158.59 60.4293 1158.08 Q60.4293 1153.95 56.2747 1150.8 Q55.0187 1149.86 53.7626 1149.19 Q52.5388 1148.48 51.0252 1147.96 Q49.5437 1147.45 48.7385 1147.22 Q47.9334 1146.97 46.0977 1146.51 Q49.0928 1149.51 49.0928 1153.18 Q49.0928 1154.73 48.6741 1156.11 Q48.2554 1157.46 47.3859 1158.66 Q46.4841 1159.85 44.906 1160.56 Q43.3279 1161.23 41.2346 1161.23 Q39.0124 1161.23 35.985 1160.36 Q32.9577 1159.49 27.386 1157.4 Q24.2621 1156.27 22.7484 1156.27 Q22.0077 1156.27 21.5568 1156.43 Q21.0737 1156.59 20.9127 1156.92 Q20.7194 1157.24 20.6872 1157.43 Q20.655 1157.59 20.655 1157.92 Q20.655 1159.82 22.5874 1161.59 Q24.5197 1163.36 28.8353 1164.58 Q29.6405 1164.84 29.8337 1165 Q30.0269 1165.16 30.0269 1165.64 Q29.9947 1166.45 29.3506 1166.45 Q29.093 1166.45 28.0946 1166.16 Q27.064 1165.87 25.5503 1165.19 Q24.0044 1164.49 22.6196 1163.52 Q21.2025 1162.55 20.2041 1161.04 Q19.2058 1159.49 19.2058 1157.72 Q19.2058 1155.31 20.7838 1153.82 Q22.3297 1152.31 24.6163 1152.31 Q25.5503 1152.31 26.3877 1152.57 Q27.1928 1152.79 29.3506 1153.63 Q38.0462 1157.01 42.2974 1157.01 Q43.3279 1157.01 44.1975 1156.85 Q45.0349 1156.66 45.8722 1156.24 Q46.6774 1155.82 47.1604 1154.98 Q47.6113 1154.11 47.6113 1152.92 Q47.6113 1151.41 46.9028 1149.99 Q46.1621 1148.54 45.1637 1147.64 Q44.1653 1146.71 43.3279 1146.16 Q42.4584 1145.58 42.0075 1145.45 L30.1558 1142.49 L24.874 1141.17 Q22.0077 1140.56 21.2991 1140.27 Q20.6228 1139.88 20.2686 1139.2 Q19.9143 1138.53 19.9143 1137.95 Q19.9143 1137.14 20.3974 1136.59 Q20.8805 1136.02 21.7178 1136.02 Z" fill="#000000" fill-rule="nonzero" fill-opacity="1" /><path clip-path="url(#clip660)" d="M80.0193 1129.27 Q79.1851 1129.27 78.9371 1129.2 Q78.6891 1129.11 78.3059 1128.75 L68.4316 1119.89 Q62.9759 1115.04 58.2191 1115.04 Q55.1306 1115.04 52.9212 1116.67 Q50.7119 1118.27 50.7119 1121.22 Q50.7119 1123.25 51.9518 1124.96 Q53.1918 1126.68 55.4011 1127.47 Q55.356 1127.33 55.356 1126.86 Q55.356 1125.71 56.0774 1125.08 Q56.7988 1124.42 57.7682 1124.42 Q59.0081 1124.42 59.6168 1125.23 Q60.203 1126.02 60.203 1126.81 Q60.203 1127.13 60.1354 1127.56 Q60.0677 1127.96 59.4365 1128.62 Q58.7827 1129.27 57.633 1129.27 Q54.4092 1129.27 51.8391 1126.83 Q49.2691 1124.38 49.2691 1120.63 Q49.2691 1116.4 51.794 1113.62 Q54.2964 1110.83 58.2191 1110.83 Q59.5943 1110.83 60.8568 1111.26 Q62.0967 1111.66 63.0661 1112.23 Q64.0355 1112.77 65.591 1114.25 Q67.1466 1115.74 68.2512 1116.94 Q69.3559 1118.13 71.7005 1120.81 L76.4573 1125.71 L76.4573 1117.39 Q76.4573 1113.33 76.0966 1113.01 Q75.4428 1112.56 71.9936 1112 L71.9936 1110.83 L80.0193 1112.14 L80.0193 1129.27 Z" fill="#000000" fill-rule="nonzero" fill-opacity="1" /><polyline clip-path="url(#clip663)" style="stroke:#009af9; stroke-linecap:round; stroke-linejoin:round; stroke-width:4; stroke-opacity:1; fill:none" points="282.55,932.751 307.399,932.751 332.247,1406.88 357.096,999.857 381.945,1074.3 406.794,880.979 431.643,990.023 456.492,875.872 481.34,929.417 506.189,863.544 531.038,911.516 555.887,878.675 580.736,910.936 605.585,891.76 630.433,914.811 655.282,904.936 680.131,920.752 704.98,915.048 729.829,925.605 754.678,922.348 779.526,929.27 804.375,927.204 829.224,931.573 854.073,930.167 878.922,932.854 903.771,931.827 928.619,933.419 953.468,932.643 978.317,933.558 1003.17,932.971 1028.01,933.48 1052.86,933.042 1077.71,933.319 1102.56,933 1127.41,933.149 "/>
<path clip-path="url(#clip660)" d="M1457.2 1423.18 L2352.76 1423.18 L2352.76 47.2441 L1457.2 47.2441  Z" fill="#ffffff" fill-rule="evenodd" fill-opacity="1"/>
<defs>
  <clipPath id="clip664">
    <rect x="1457" y="47" width="897" height="1377"/>
  </clipPath>
</defs>
<polyline clip-path="url(#clip664)" style="stroke:#000000; stroke-linecap:round; stroke-linejoin:round; stroke-width:2; stroke-opacity:0.1; fill:none" points="1482.55,1423.18 1482.55,47.2441 "/>
<polyline clip-path="url(#clip664)" style="stroke:#000000; stroke-linecap:round; stroke-linejoin:round; stroke-width:2; stroke-opacity:0.1; fill:none" points="1731.04,1423.18 1731.04,47.2441 "/>
<polyline clip-path="url(#clip664)" style="stroke:#000000; stroke-linecap:round; stroke-linejoin:round; stroke-width:2; stroke-opacity:0.1; fill:none" points="1979.53,1423.18 1979.53,47.2441 "/>
<polyline clip-path="url(#clip664)" style="stroke:#000000; stroke-linecap:round; stroke-linejoin:round; stroke-width:2; stroke-opacity:0.1; fill:none" points="2228.01,1423.18 2228.01,47.2441 "/>
<polyline clip-path="url(#clip660)" style="stroke:#000000; stroke-linecap:round; stroke-linejoin:round; stroke-width:4; stroke-opacity:1; fill:none" points="1457.2,1423.18 2352.76,1423.18 "/>
<polyline clip-path="url(#clip660)" style="stroke:#000000; stroke-linecap:round; stroke-linejoin:round; stroke-width:4; stroke-opacity:1; fill:none" points="1482.55,1423.18 1482.55,1404.28 "/>
<polyline clip-path="url(#clip660)" style="stroke:#000000; stroke-linecap:round; stroke-linejoin:round; stroke-width:4; stroke-opacity:1; fill:none" points="1731.04,1423.18 1731.04,1404.28 "/>
<polyline clip-path="url(#clip660)" style="stroke:#000000; stroke-linecap:round; stroke-linejoin:round; stroke-width:4; stroke-opacity:1; fill:none" points="1979.53,1423.18 1979.53,1404.28 "/>
<polyline clip-path="url(#clip660)" style="stroke:#000000; stroke-linecap:round; stroke-linejoin:round; stroke-width:4; stroke-opacity:1; fill:none" points="2228.01,1423.18 2228.01,1404.28 "/>
<path clip-path="url(#clip660)" d="M1482.55 1454.1 Q1478.94 1454.1 1477.11 1457.66 Q1475.3 1461.2 1475.3 1468.33 Q1475.3 1475.44 1477.11 1479.01 Q1478.94 1482.55 1482.55 1482.55 Q1486.18 1482.55 1487.99 1479.01 Q1489.82 1475.44 1489.82 1468.33 Q1489.82 1461.2 1487.99 1457.66 Q1486.18 1454.1 1482.55 1454.1 M1482.55 1450.39 Q1488.36 1450.39 1491.42 1455 Q1494.49 1459.58 1494.49 1468.33 Q1494.49 1477.06 1491.42 1481.67 Q1488.36 1486.25 1482.55 1486.25 Q1476.74 1486.25 1473.66 1481.67 Q1470.61 1477.06 1470.61 1468.33 Q1470.61 1459.58 1473.66 1455 Q1476.74 1450.39 1482.55 1450.39 Z" fill="#000000" fill-rule="nonzero" fill-opacity="1" /><path clip-path="url(#clip660)" d="M1721.42 1481.64 L1729.06 1481.64 L1729.06 1455.28 L1720.75 1456.95 L1720.75 1452.69 L1729.01 1451.02 L1733.69 1451.02 L1733.69 1481.64 L1741.33 1481.64 L1741.33 1485.58 L1721.42 1485.58 L1721.42 1481.64 Z" fill="#000000" fill-rule="nonzero" fill-opacity="1" /><path clip-path="url(#clip660)" d="M1974.18 1481.64 L1990.5 1481.64 L1990.5 1485.58 L1968.55 1485.58 L1968.55 1481.64 Q1971.22 1478.89 1975.8 1474.26 Q1980.41 1469.61 1981.59 1468.27 Q1983.83 1465.74 1984.71 1464.01 Q1985.61 1462.25 1985.61 1460.56 Q1985.61 1457.8 1983.67 1456.07 Q1981.75 1454.33 1978.65 1454.33 Q1976.45 1454.33 1973.99 1455.09 Q1971.56 1455.86 1968.79 1457.41 L1968.79 1452.69 Q1971.61 1451.55 1974.06 1450.97 Q1976.52 1450.39 1978.55 1450.39 Q1983.92 1450.39 1987.12 1453.08 Q1990.31 1455.77 1990.31 1460.26 Q1990.31 1462.39 1989.5 1464.31 Q1988.72 1466.2 1986.61 1468.8 Q1986.03 1469.47 1982.93 1472.69 Q1979.83 1475.88 1974.18 1481.64 Z" fill="#000000" fill-rule="nonzero" fill-opacity="1" /><path clip-path="url(#clip660)" d="M2232.26 1466.95 Q2235.62 1467.66 2237.49 1469.93 Q2239.39 1472.2 2239.39 1475.53 Q2239.39 1480.65 2235.87 1483.45 Q2232.36 1486.25 2225.87 1486.25 Q2223.7 1486.25 2221.38 1485.81 Q2219.09 1485.39 2216.64 1484.54 L2216.64 1480.02 Q2218.58 1481.16 2220.9 1481.74 Q2223.21 1482.32 2225.73 1482.32 Q2230.13 1482.32 2232.42 1480.58 Q2234.74 1478.84 2234.74 1475.53 Q2234.74 1472.48 2232.59 1470.77 Q2230.46 1469.03 2226.64 1469.03 L2222.61 1469.03 L2222.61 1465.19 L2226.82 1465.19 Q2230.27 1465.19 2232.1 1463.82 Q2233.93 1462.43 2233.93 1459.84 Q2233.93 1457.18 2232.03 1455.77 Q2230.16 1454.33 2226.64 1454.33 Q2224.72 1454.33 2222.52 1454.75 Q2220.32 1455.16 2217.68 1456.04 L2217.68 1451.88 Q2220.34 1451.14 2222.66 1450.77 Q2224.99 1450.39 2227.05 1450.39 Q2232.38 1450.39 2235.48 1452.83 Q2238.58 1455.23 2238.58 1459.35 Q2238.58 1462.22 2236.94 1464.21 Q2235.29 1466.18 2232.26 1466.95 Z" fill="#000000" fill-rule="nonzero" fill-opacity="1" /><path clip-path="url(#clip660)" d="M1775.15 1520.52 L1815.35 1520.52 L1815.35 1525.93 L1798.48 1525.93 L1798.48 1568.04 L1792.02 1568.04 L1792.02 1525.93 L1775.15 1525.93 L1775.15 1520.52 Z" fill="#000000" fill-rule="nonzero" fill-opacity="1" /><path clip-path="url(#clip660)" d="M1819.3 1532.4 L1825.15 1532.4 L1825.15 1568.04 L1819.3 1568.04 L1819.3 1532.4 M1819.3 1518.52 L1825.15 1518.52 L1825.15 1525.93 L1819.3 1525.93 L1819.3 1518.52 Z" fill="#000000" fill-rule="nonzero" fill-opacity="1" /><path clip-path="url(#clip660)" d="M1865.16 1539.24 Q1867.36 1535.29 1870.41 1533.41 Q1873.47 1531.54 1877.61 1531.54 Q1883.18 1531.54 1886.2 1535.45 Q1889.22 1539.33 1889.22 1546.53 L1889.22 1568.04 L1883.34 1568.04 L1883.34 1546.72 Q1883.34 1541.59 1881.52 1539.11 Q1879.71 1536.63 1875.98 1536.63 Q1871.43 1536.63 1868.79 1539.65 Q1866.15 1542.68 1866.15 1547.9 L1866.15 1568.04 L1860.26 1568.04 L1860.26 1546.72 Q1860.26 1541.56 1858.45 1539.11 Q1856.63 1536.63 1852.84 1536.63 Q1848.36 1536.63 1845.72 1539.68 Q1843.07 1542.71 1843.07 1547.9 L1843.07 1568.04 L1837.19 1568.04 L1837.19 1532.4 L1843.07 1532.4 L1843.07 1537.93 Q1845.08 1534.66 1847.88 1533.1 Q1850.68 1531.54 1854.53 1531.54 Q1858.41 1531.54 1861.12 1533.51 Q1863.86 1535.48 1865.16 1539.24 Z" fill="#000000" fill-rule="nonzero" fill-opacity="1" /><path clip-path="url(#clip660)" d="M1931.4 1548.76 L1931.4 1551.62 L1904.47 1551.62 Q1904.85 1557.67 1908.1 1560.85 Q1911.38 1564 1917.2 1564 Q1920.58 1564 1923.73 1563.17 Q1926.91 1562.35 1930.03 1560.69 L1930.03 1566.23 Q1926.88 1567.57 1923.57 1568.27 Q1920.26 1568.97 1916.85 1568.97 Q1908.32 1568.97 1903.32 1564 Q1898.36 1559.04 1898.36 1550.57 Q1898.36 1541.82 1903.07 1536.69 Q1907.81 1531.54 1915.83 1531.54 Q1923.03 1531.54 1927.2 1536.18 Q1931.4 1540.8 1931.4 1548.76 M1925.54 1547.04 Q1925.48 1542.23 1922.84 1539.37 Q1920.23 1536.5 1915.9 1536.5 Q1911 1536.5 1908.04 1539.27 Q1905.11 1542.04 1904.66 1547.07 L1925.54 1547.04 Z" fill="#000000" fill-rule="nonzero" fill-opacity="1" /><path clip-path="url(#clip660)" d="M1975.8 1518.58 Q1971.53 1525.9 1969.46 1533.06 Q1967.4 1540.23 1967.4 1547.58 Q1967.4 1554.93 1969.46 1562.16 Q1971.57 1569.35 1975.8 1576.64 L1970.71 1576.64 Q1965.93 1569.16 1963.54 1561.93 Q1961.19 1554.71 1961.19 1547.58 Q1961.19 1540.48 1963.54 1533.29 Q1965.9 1526.09 1970.71 1518.58 L1975.8 1518.58 Z" fill="#000000" fill-rule="nonzero" fill-opacity="1" /><path clip-path="url(#clip660)" d="M2009.89 1533.45 L2009.89 1538.98 Q2007.4 1537.71 2004.73 1537.07 Q2002.06 1536.44 1999.19 1536.44 Q1994.83 1536.44 1992.64 1537.77 Q1990.47 1539.11 1990.47 1541.79 Q1990.47 1543.82 1992.03 1545 Q1993.59 1546.15 1998.3 1547.2 L2000.31 1547.64 Q2006.54 1548.98 2009.15 1551.43 Q2011.8 1553.85 2011.8 1558.21 Q2011.8 1563.17 2007.85 1566.07 Q2003.93 1568.97 1997.06 1568.97 Q1994.2 1568.97 1991.08 1568.39 Q1987.99 1567.85 1984.55 1566.74 L1984.55 1560.69 Q1987.8 1562.38 1990.95 1563.24 Q1994.1 1564.07 1997.19 1564.07 Q2001.32 1564.07 2003.55 1562.66 Q2005.78 1561.23 2005.78 1558.65 Q2005.78 1556.27 2004.16 1554.99 Q2002.57 1553.72 1997.12 1552.54 L1995.09 1552.07 Q1989.64 1550.92 1987.22 1548.56 Q1984.81 1546.18 1984.81 1542.04 Q1984.81 1537.01 1988.37 1534.27 Q1991.94 1531.54 1998.49 1531.54 Q2001.74 1531.54 2004.6 1532.01 Q2007.47 1532.49 2009.89 1533.45 Z" fill="#000000" fill-rule="nonzero" fill-opacity="1" /><path clip-path="url(#clip660)" d="M2020.2 1518.58 L2025.29 1518.58 Q2030.07 1526.09 2032.42 1533.29 Q2034.81 1540.48 2034.81 1547.58 Q2034.81 1554.71 2032.42 1561.93 Q2030.07 1569.16 2025.29 1576.64 L2020.2 1576.64 Q2024.43 1569.35 2026.5 1562.16 Q2028.6 1554.93 2028.6 1547.58 Q2028.6 1540.23 2026.5 1533.06 Q2024.43 1525.9 2020.2 1518.58 Z" fill="#000000" fill-rule="nonzero" fill-opacity="1" /><polyline clip-path="url(#clip664)" style="stroke:#000000; stroke-linecap:round; stroke-linejoin:round; stroke-width:2; stroke-opacity:0.1; fill:none" points="1457.2,1384.24 2352.76,1384.24 "/>
<polyline clip-path="url(#clip664)" style="stroke:#000000; stroke-linecap:round; stroke-linejoin:round; stroke-width:2; stroke-opacity:0.1; fill:none" points="1457.2,1167.9 2352.76,1167.9 "/>
<polyline clip-path="url(#clip664)" style="stroke:#000000; stroke-linecap:round; stroke-linejoin:round; stroke-width:2; stroke-opacity:0.1; fill:none" points="1457.2,951.554 2352.76,951.554 "/>
<polyline clip-path="url(#clip664)" style="stroke:#000000; stroke-linecap:round; stroke-linejoin:round; stroke-width:2; stroke-opacity:0.1; fill:none" points="1457.2,735.212 2352.76,735.212 "/>
<polyline clip-path="url(#clip664)" style="stroke:#000000; stroke-linecap:round; stroke-linejoin:round; stroke-width:2; stroke-opacity:0.1; fill:none" points="1457.2,518.87 2352.76,518.87 "/>
<polyline clip-path="url(#clip664)" style="stroke:#000000; stroke-linecap:round; stroke-linejoin:round; stroke-width:2; stroke-opacity:0.1; fill:none" points="1457.2,302.528 2352.76,302.528 "/>
<polyline clip-path="url(#clip664)" style="stroke:#000000; stroke-linecap:round; stroke-linejoin:round; stroke-width:2; stroke-opacity:0.1; fill:none" points="1457.2,86.1857 2352.76,86.1857 "/>
<polyline clip-path="url(#clip660)" style="stroke:#000000; stroke-linecap:round; stroke-linejoin:round; stroke-width:4; stroke-opacity:1; fill:none" points="1457.2,1423.18 1457.2,47.2441 "/>
<polyline clip-path="url(#clip660)" style="stroke:#000000; stroke-linecap:round; stroke-linejoin:round; stroke-width:4; stroke-opacity:1; fill:none" points="1457.2,1384.24 1476.1,1384.24 "/>
<polyline clip-path="url(#clip660)" style="stroke:#000000; stroke-linecap:round; stroke-linejoin:round; stroke-width:4; stroke-opacity:1; fill:none" points="1457.2,1167.9 1476.1,1167.9 "/>
<polyline clip-path="url(#clip660)" style="stroke:#000000; stroke-linecap:round; stroke-linejoin:round; stroke-width:4; stroke-opacity:1; fill:none" points="1457.2,951.554 1476.1,951.554 "/>
<polyline clip-path="url(#clip660)" style="stroke:#000000; stroke-linecap:round; stroke-linejoin:round; stroke-width:4; stroke-opacity:1; fill:none" points="1457.2,735.212 1476.1,735.212 "/>
<polyline clip-path="url(#clip660)" style="stroke:#000000; stroke-linecap:round; stroke-linejoin:round; stroke-width:4; stroke-opacity:1; fill:none" points="1457.2,518.87 1476.1,518.87 "/>
<polyline clip-path="url(#clip660)" style="stroke:#000000; stroke-linecap:round; stroke-linejoin:round; stroke-width:4; stroke-opacity:1; fill:none" points="1457.2,302.528 1476.1,302.528 "/>
<polyline clip-path="url(#clip660)" style="stroke:#000000; stroke-linecap:round; stroke-linejoin:round; stroke-width:4; stroke-opacity:1; fill:none" points="1457.2,86.1857 1476.1,86.1857 "/>
<path clip-path="url(#clip660)" d="M1315.26 1384.69 L1344.93 1384.69 L1344.93 1388.62 L1315.26 1388.62 L1315.26 1384.69 Z" fill="#000000" fill-rule="nonzero" fill-opacity="1" /><path clip-path="url(#clip660)" d="M1355.83 1397.58 L1363.47 1397.58 L1363.47 1371.22 L1355.16 1372.88 L1355.16 1368.62 L1363.43 1366.96 L1368.1 1366.96 L1368.1 1397.58 L1375.74 1397.58 L1375.74 1401.52 L1355.83 1401.52 L1355.83 1397.58 Z" fill="#000000" fill-rule="nonzero" fill-opacity="1" /><path clip-path="url(#clip660)" d="M1385.19 1395.64 L1390.07 1395.64 L1390.07 1401.52 L1385.19 1401.52 L1385.19 1395.64 Z" fill="#000000" fill-rule="nonzero" fill-opacity="1" /><path clip-path="url(#clip660)" d="M1400.3 1366.96 L1418.66 1366.96 L1418.66 1370.89 L1404.58 1370.89 L1404.58 1379.37 Q1405.6 1379.02 1406.62 1378.86 Q1407.64 1378.67 1408.66 1378.67 Q1414.44 1378.67 1417.82 1381.84 Q1421.2 1385.01 1421.2 1390.43 Q1421.2 1396.01 1417.73 1399.11 Q1414.26 1402.19 1407.94 1402.19 Q1405.76 1402.19 1403.5 1401.82 Q1401.25 1401.45 1398.84 1400.71 L1398.84 1396.01 Q1400.93 1397.14 1403.15 1397.7 Q1405.37 1398.25 1407.85 1398.25 Q1411.85 1398.25 1414.19 1396.15 Q1416.53 1394.04 1416.53 1390.43 Q1416.53 1386.82 1414.19 1384.71 Q1411.85 1382.61 1407.85 1382.61 Q1405.97 1382.61 1404.1 1383.02 Q1402.25 1383.44 1400.3 1384.32 L1400.3 1366.96 Z" fill="#000000" fill-rule="nonzero" fill-opacity="1" /><path clip-path="url(#clip660)" d="M1314.26 1168.35 L1343.94 1168.35 L1343.94 1172.28 L1314.26 1172.28 L1314.26 1168.35 Z" fill="#000000" fill-rule="nonzero" fill-opacity="1" /><path clip-path="url(#clip660)" d="M1354.84 1181.24 L1362.48 1181.24 L1362.48 1154.88 L1354.17 1156.54 L1354.17 1152.28 L1362.43 1150.62 L1367.11 1150.62 L1367.11 1181.24 L1374.75 1181.24 L1374.75 1185.18 L1354.84 1185.18 L1354.84 1181.24 Z" fill="#000000" fill-rule="nonzero" fill-opacity="1" /><path clip-path="url(#clip660)" d="M1384.19 1179.3 L1389.07 1179.3 L1389.07 1185.18 L1384.19 1185.18 L1384.19 1179.3 Z" fill="#000000" fill-rule="nonzero" fill-opacity="1" /><path clip-path="url(#clip660)" d="M1409.26 1153.69 Q1405.65 1153.69 1403.82 1157.26 Q1402.01 1160.8 1402.01 1167.93 Q1402.01 1175.04 1403.82 1178.6 Q1405.65 1182.14 1409.26 1182.14 Q1412.89 1182.14 1414.7 1178.6 Q1416.53 1175.04 1416.53 1167.93 Q1416.53 1160.8 1414.7 1157.26 Q1412.89 1153.69 1409.26 1153.69 M1409.26 1149.99 Q1415.07 1149.99 1418.13 1154.6 Q1421.2 1159.18 1421.2 1167.93 Q1421.2 1176.66 1418.13 1181.26 Q1415.07 1185.85 1409.26 1185.85 Q1403.45 1185.85 1400.37 1181.26 Q1397.32 1176.66 1397.32 1167.93 Q1397.32 1159.18 1400.37 1154.6 Q1403.45 1149.99 1409.26 1149.99 Z" fill="#000000" fill-rule="nonzero" fill-opacity="1" /><path clip-path="url(#clip660)" d="M1315.26 952.005 L1344.93 952.005 L1344.93 955.941 L1315.26 955.941 L1315.26 952.005 Z" fill="#000000" fill-rule="nonzero" fill-opacity="1" /><path clip-path="url(#clip660)" d="M1365.02 937.353 Q1361.41 937.353 1359.58 940.918 Q1357.78 944.459 1357.78 951.589 Q1357.78 958.695 1359.58 962.26 Q1361.41 965.802 1365.02 965.802 Q1368.66 965.802 1370.46 962.26 Q1372.29 958.695 1372.29 951.589 Q1372.29 944.459 1370.46 940.918 Q1368.66 937.353 1365.02 937.353 M1365.02 933.649 Q1370.83 933.649 1373.89 938.256 Q1376.97 942.839 1376.97 951.589 Q1376.97 960.316 1373.89 964.922 Q1370.83 969.505 1365.02 969.505 Q1359.21 969.505 1356.13 964.922 Q1353.08 960.316 1353.08 951.589 Q1353.08 942.839 1356.13 938.256 Q1359.21 933.649 1365.02 933.649 Z" fill="#000000" fill-rule="nonzero" fill-opacity="1" /><path clip-path="url(#clip660)" d="M1385.19 962.954 L1390.07 962.954 L1390.07 968.834 L1385.19 968.834 L1385.19 962.954 Z" fill="#000000" fill-rule="nonzero" fill-opacity="1" /><path clip-path="url(#clip660)" d="M1400.3 934.274 L1418.66 934.274 L1418.66 938.209 L1404.58 938.209 L1404.58 946.681 Q1405.6 946.334 1406.62 946.172 Q1407.64 945.987 1408.66 945.987 Q1414.44 945.987 1417.82 949.158 Q1421.2 952.33 1421.2 957.746 Q1421.2 963.325 1417.73 966.427 Q1414.26 969.505 1407.94 969.505 Q1405.76 969.505 1403.5 969.135 Q1401.25 968.765 1398.84 968.024 L1398.84 963.325 Q1400.93 964.459 1403.15 965.015 Q1405.37 965.57 1407.85 965.57 Q1411.85 965.57 1414.19 963.464 Q1416.53 961.357 1416.53 957.746 Q1416.53 954.135 1414.19 952.029 Q1411.85 949.922 1407.85 949.922 Q1405.97 949.922 1404.1 950.339 Q1402.25 950.755 1400.3 951.635 L1400.3 934.274 Z" fill="#000000" fill-rule="nonzero" fill-opacity="1" /><path clip-path="url(#clip660)" d="M1364.03 721.011 Q1360.42 721.011 1358.59 724.575 Q1356.78 728.117 1356.78 735.247 Q1356.78 742.353 1358.59 745.918 Q1360.42 749.46 1364.03 749.46 Q1367.66 749.46 1369.47 745.918 Q1371.3 742.353 1371.3 735.247 Q1371.3 728.117 1369.47 724.575 Q1367.66 721.011 1364.03 721.011 M1364.03 717.307 Q1369.84 717.307 1372.89 721.913 Q1375.97 726.497 1375.97 735.247 Q1375.97 743.973 1372.89 748.58 Q1369.84 753.163 1364.03 753.163 Q1358.22 753.163 1355.14 748.58 Q1352.08 743.973 1352.08 735.247 Q1352.08 726.497 1355.14 721.913 Q1358.22 717.307 1364.03 717.307 Z" fill="#000000" fill-rule="nonzero" fill-opacity="1" /><path clip-path="url(#clip660)" d="M1384.19 746.612 L1389.07 746.612 L1389.07 752.492 L1384.19 752.492 L1384.19 746.612 Z" fill="#000000" fill-rule="nonzero" fill-opacity="1" /><path clip-path="url(#clip660)" d="M1409.26 721.011 Q1405.65 721.011 1403.82 724.575 Q1402.01 728.117 1402.01 735.247 Q1402.01 742.353 1403.82 745.918 Q1405.65 749.46 1409.26 749.46 Q1412.89 749.46 1414.7 745.918 Q1416.53 742.353 1416.53 735.247 Q1416.53 728.117 1414.7 724.575 Q1412.89 721.011 1409.26 721.011 M1409.26 717.307 Q1415.07 717.307 1418.13 721.913 Q1421.2 726.497 1421.2 735.247 Q1421.2 743.973 1418.13 748.58 Q1415.07 753.163 1409.26 753.163 Q1403.45 753.163 1400.37 748.58 Q1397.32 743.973 1397.32 735.247 Q1397.32 726.497 1400.37 721.913 Q1403.45 717.307 1409.26 717.307 Z" fill="#000000" fill-rule="nonzero" fill-opacity="1" /><path clip-path="url(#clip660)" d="M1365.02 504.669 Q1361.41 504.669 1359.58 508.233 Q1357.78 511.775 1357.78 518.905 Q1357.78 526.011 1359.58 529.576 Q1361.41 533.117 1365.02 533.117 Q1368.66 533.117 1370.46 529.576 Q1372.29 526.011 1372.29 518.905 Q1372.29 511.775 1370.46 508.233 Q1368.66 504.669 1365.02 504.669 M1365.02 500.965 Q1370.83 500.965 1373.89 505.571 Q1376.97 510.155 1376.97 518.905 Q1376.97 527.631 1373.89 532.238 Q1370.83 536.821 1365.02 536.821 Q1359.21 536.821 1356.13 532.238 Q1353.08 527.631 1353.08 518.905 Q1353.08 510.155 1356.13 505.571 Q1359.21 500.965 1365.02 500.965 Z" fill="#000000" fill-rule="nonzero" fill-opacity="1" /><path clip-path="url(#clip660)" d="M1385.19 530.27 L1390.07 530.27 L1390.07 536.15 L1385.19 536.15 L1385.19 530.27 Z" fill="#000000" fill-rule="nonzero" fill-opacity="1" /><path clip-path="url(#clip660)" d="M1400.3 501.59 L1418.66 501.59 L1418.66 505.525 L1404.58 505.525 L1404.58 513.997 Q1405.6 513.65 1406.62 513.488 Q1407.64 513.303 1408.66 513.303 Q1414.44 513.303 1417.82 516.474 Q1421.2 519.645 1421.2 525.062 Q1421.2 530.641 1417.73 533.742 Q1414.26 536.821 1407.94 536.821 Q1405.76 536.821 1403.5 536.451 Q1401.25 536.08 1398.84 535.34 L1398.84 530.641 Q1400.93 531.775 1403.15 532.33 Q1405.37 532.886 1407.85 532.886 Q1411.85 532.886 1414.19 530.78 Q1416.53 528.673 1416.53 525.062 Q1416.53 521.451 1414.19 519.344 Q1411.85 517.238 1407.85 517.238 Q1405.97 517.238 1404.1 517.655 Q1402.25 518.071 1400.3 518.951 L1400.3 501.59 Z" fill="#000000" fill-rule="nonzero" fill-opacity="1" /><path clip-path="url(#clip660)" d="M1354.84 315.873 L1362.48 315.873 L1362.48 289.507 L1354.17 291.174 L1354.17 286.914 L1362.43 285.248 L1367.11 285.248 L1367.11 315.873 L1374.75 315.873 L1374.75 319.808 L1354.84 319.808 L1354.84 315.873 Z" fill="#000000" fill-rule="nonzero" fill-opacity="1" /><path clip-path="url(#clip660)" d="M1384.19 313.928 L1389.07 313.928 L1389.07 319.808 L1384.19 319.808 L1384.19 313.928 Z" fill="#000000" fill-rule="nonzero" fill-opacity="1" /><path clip-path="url(#clip660)" d="M1409.26 288.326 Q1405.65 288.326 1403.82 291.891 Q1402.01 295.433 1402.01 302.562 Q1402.01 309.669 1403.82 313.234 Q1405.65 316.775 1409.26 316.775 Q1412.89 316.775 1414.7 313.234 Q1416.53 309.669 1416.53 302.562 Q1416.53 295.433 1414.7 291.891 Q1412.89 288.326 1409.26 288.326 M1409.26 284.623 Q1415.07 284.623 1418.13 289.229 Q1421.2 293.813 1421.2 302.562 Q1421.2 311.289 1418.13 315.896 Q1415.07 320.479 1409.26 320.479 Q1403.45 320.479 1400.37 315.896 Q1397.32 311.289 1397.32 302.562 Q1397.32 293.813 1400.37 289.229 Q1403.45 284.623 1409.26 284.623 Z" fill="#000000" fill-rule="nonzero" fill-opacity="1" /><path clip-path="url(#clip660)" d="M1355.83 99.5305 L1363.47 99.5305 L1363.47 73.1649 L1355.16 74.8316 L1355.16 70.5723 L1363.43 68.9057 L1368.1 68.9057 L1368.1 99.5305 L1375.74 99.5305 L1375.74 103.466 L1355.83 103.466 L1355.83 99.5305 Z" fill="#000000" fill-rule="nonzero" fill-opacity="1" /><path clip-path="url(#clip660)" d="M1385.19 97.5861 L1390.07 97.5861 L1390.07 103.466 L1385.19 103.466 L1385.19 97.5861 Z" fill="#000000" fill-rule="nonzero" fill-opacity="1" /><path clip-path="url(#clip660)" d="M1400.3 68.9057 L1418.66 68.9057 L1418.66 72.8408 L1404.58 72.8408 L1404.58 81.313 Q1405.6 80.9658 1406.62 80.8038 Q1407.64 80.6186 1408.66 80.6186 Q1414.44 80.6186 1417.82 83.7899 Q1421.2 86.9611 1421.2 92.3778 Q1421.2 97.9564 1417.73 101.058 Q1414.26 104.137 1407.94 104.137 Q1405.76 104.137 1403.5 103.767 Q1401.25 103.396 1398.84 102.655 L1398.84 97.9564 Q1400.93 99.0907 1403.15 99.6462 Q1405.37 100.202 1407.85 100.202 Q1411.85 100.202 1414.19 98.0953 Q1416.53 95.9889 1416.53 92.3778 Q1416.53 88.7667 1414.19 86.6602 Q1411.85 84.5537 1407.85 84.5537 Q1405.97 84.5537 1404.1 84.9704 Q1402.25 85.3871 1400.3 86.2667 L1400.3 68.9057 Z" fill="#000000" fill-rule="nonzero" fill-opacity="1" /><path clip-path="url(#clip660)" d="M1245.24 732.675 Q1249.4 733.512 1251.78 734.64 Q1255.42 736.475 1255.42 739.535 Q1255.42 741.661 1254.23 743.271 Q1253.01 744.849 1250.98 745.396 Q1251.78 746.008 1252.33 746.556 Q1252.88 747.071 1253.71 748.07 Q1254.52 749.068 1254.97 750.421 Q1255.42 751.741 1255.42 753.255 Q1255.42 754.414 1255.2 755.477 Q1255 756.54 1254.45 757.667 Q1253.88 758.762 1253.01 759.567 Q1252.14 760.34 1250.72 760.855 Q1249.3 761.371 1247.5 761.371 Q1245.24 761.371 1242.18 760.501 Q1239.12 759.599 1233.65 757.538 Q1230.75 756.411 1229.14 756.411 Q1228.4 756.411 1227.92 756.572 Q1227.43 756.733 1227.27 757.055 Q1227.08 757.345 1227.05 757.538 Q1226.98 757.731 1226.98 758.053 Q1226.98 760.05 1229.01 761.789 Q1231.04 763.528 1235.16 764.72 Q1235.97 764.978 1236.16 765.139 Q1236.36 765.3 1236.36 765.783 Q1236.32 766.588 1235.68 766.588 Q1235.42 766.588 1234.42 766.298 Q1233.39 766.008 1231.88 765.332 Q1230.33 764.623 1228.95 763.657 Q1227.53 762.691 1226.53 761.177 Q1225.53 759.631 1225.53 757.86 Q1225.53 755.445 1227.11 753.963 Q1228.66 752.45 1230.94 752.45 Q1232.36 752.45 1235.1 753.577 Q1244.6 757.152 1248.56 757.152 Q1253.94 757.152 1253.94 753.061 Q1253.94 751.709 1253.39 750.453 Q1252.84 749.165 1252.07 748.327 Q1251.3 747.49 1250.46 746.846 Q1249.62 746.169 1249.08 745.88 Q1248.53 745.557 1248.4 745.525 L1228.56 740.598 Q1227.79 740.405 1227.27 740.05 Q1226.73 739.664 1226.53 739.213 Q1226.34 738.762 1226.31 738.504 Q1226.24 738.247 1226.24 738.021 Q1226.24 737.216 1226.73 736.669 Q1227.21 736.089 1228.05 736.089 Q1228.21 736.089 1228.98 736.282 Q1229.72 736.443 1230.82 736.701 Q1231.88 736.959 1232.46 737.087 Q1236.52 738.118 1236.93 738.215 L1244.05 740.05 Q1244.47 740.147 1245.82 740.469 Q1247.18 740.759 1247.88 740.92 Q1248.56 741.081 1249.5 741.242 Q1250.4 741.371 1250.91 741.371 Q1252.52 741.371 1253.23 740.888 Q1253.94 740.405 1253.94 739.342 Q1253.94 738.343 1253.26 737.57 Q1252.55 736.765 1251.2 736.153 Q1249.82 735.541 1248.69 735.187 Q1247.56 734.833 1245.79 734.382 Q1245.02 734.221 1244.83 734.092 Q1244.6 733.931 1244.6 733.48 Q1244.6 732.675 1245.24 732.675 Z" fill="#000000" fill-rule="nonzero" fill-opacity="1" /><path clip-path="url(#clip660)" d="M1247.34 725.97 L1245.89 725.97 Q1245.89 720.424 1242.94 717.561 Q1242.94 716.772 1243.12 716.637 Q1243.3 716.501 1244.14 716.501 L1270.04 716.501 Q1271.41 716.501 1271.84 715.825 Q1272.27 715.149 1272.27 712.195 L1272.27 710.73 L1273.69 710.73 Q1273.56 712.353 1273.56 718.215 Q1273.56 724.076 1273.69 725.677 L1272.27 725.677 L1272.27 724.211 Q1272.27 721.303 1271.87 720.604 Q1271.44 719.905 1270.04 719.905 L1246.12 719.905 Q1247.34 722.318 1247.34 725.97 Z" fill="#000000" fill-rule="nonzero" fill-opacity="1" /><polyline clip-path="url(#clip664)" style="stroke:#009af9; stroke-linecap:round; stroke-linejoin:round; stroke-width:4; stroke-opacity:1; fill:none" points="1482.55,735.212 1507.4,735.212 1507.4,1274.34 1532.25,1274.34 1532.25,541.955 1557.1,541.955 1557.1,727.405 1581.95,727.405 1581.95,447.283 1606.79,447.283 1606.79,643.956 1631.64,643.956 1631.64,465.66 1656.49,465.66 1656.49,576.52 1681.34,576.52 1681.34,485.996 1706.19,485.996 1706.19,578.87 1731.04,578.87 1731.04,532.523 1755.89,532.523 1755.89,593.53 1780.74,593.53 1780.74,567.862 1805.58,567.862 1805.58,610.851 1830.43,610.851 1830.43,597.604 1855.28,597.604 1855.28,626.074 1880.13,626.074 1880.13,618.171 1904.98,618.171 1904.98,636.693 1929.83,636.693 1929.83,631.827 1954.68,631.827 1954.68,643.505 1979.53,643.505 1979.53,640.071 2004.38,640.071 2004.38,647.168 2029.22,647.168 2029.22,644.606 2054.07,644.606 2054.07,648.785 2078.92,648.785 2078.92,646.799 2103.77,646.799 2103.77,649.165 2128.62,649.165 2128.62,647.632 2153.47,647.632 2153.47,648.93 2178.32,648.93 2178.32,647.772 2203.17,647.772 2203.17,648.463 2228.01,648.463 2228.01,647.615 2252.86,647.615 2252.86,647.979 2277.71,647.979 2277.71,647.38 2302.56,647.38 2302.56,647.575 2327.41,647.575 2327.41,647.167 "/>
<polyline clip-path="url(#clip664)" style="stroke:#c271d2; stroke-linecap:round; stroke-linejoin:round; stroke-width:6; stroke-opacity:1; fill:none" stroke-dasharray="3, 6" points="1482.55,1384.24 1507.4,1384.24 1532.25,1384.24 1557.1,1384.24 1581.95,1384.24 1606.79,1384.24 1631.64,1384.24 1656.49,1384.24 1681.34,1384.24 1706.19,1384.24 1731.04,1384.24 1755.89,1384.24 1780.74,1384.24 1805.58,1384.24 1830.43,1384.24 1855.28,1384.24 1880.13,1384.24 1904.98,1384.24 1929.83,1384.24 1954.68,1384.24 1979.53,1384.24 2004.38,1384.24 2029.22,1384.24 2054.07,1384.24 2078.92,1384.24 2103.77,1384.24 2128.62,1384.24 2153.47,1384.24 2178.32,1384.24 2203.17,1384.24 2228.01,1384.24 2252.86,1384.24 2277.71,1384.24 2302.56,1384.24 2327.41,1384.24 "/>
<polyline clip-path="url(#clip664)" style="stroke:#ac8d18; stroke-linecap:round; stroke-linejoin:round; stroke-width:6; stroke-opacity:1; fill:none" stroke-dasharray="3, 6" points="1482.55,86.1857 1507.4,86.1857 1532.25,86.1857 1557.1,86.1857 1581.95,86.1857 1606.79,86.1857 1631.64,86.1857 1656.49,86.1857 1681.34,86.1857 1706.19,86.1857 1731.04,86.1857 1755.89,86.1857 1780.74,86.1857 1805.58,86.1857 1830.43,86.1857 1855.28,86.1857 1880.13,86.1857 1904.98,86.1857 1929.83,86.1857 1954.68,86.1857 1979.53,86.1857 2004.38,86.1857 2029.22,86.1857 2054.07,86.1857 2078.92,86.1857 2103.77,86.1857 2128.62,86.1857 2153.47,86.1857 2178.32,86.1857 2203.17,86.1857 2228.01,86.1857 2252.86,86.1857 2277.71,86.1857 2302.56,86.1857 2327.41,86.1857 "/>
<path clip-path="url(#clip660)" d="M2125.84 300.469 L2322.9 300.469 L2322.9 93.1086 L2125.84 93.1086  Z" fill="#ffffff" fill-rule="evenodd" fill-opacity="1"/>
<polyline clip-path="url(#clip660)" style="stroke:#000000; stroke-linecap:round; stroke-linejoin:round; stroke-width:4; stroke-opacity:1; fill:none" points="2125.84,300.469 2322.9,300.469 2322.9,93.1086 2125.84,93.1086 2125.84,300.469 "/>
<polyline clip-path="url(#clip660)" style="stroke:#009af9; stroke-linecap:round; stroke-linejoin:round; stroke-width:4; stroke-opacity:1; fill:none" points="2135.79,144.949 2195.5,144.949 "/>
<path clip-path="url(#clip660)" d="M2232.8 155.503 L2224.3 155.784 L2224.3 152.06 Q2222.12 155.784 2217.39 155.784 Q2215.45 155.784 2214 155.527 Q2212.57 155.269 2211.3 154.637 Q2210.06 153.981 2209.41 152.716 Q2208.75 151.451 2208.75 149.601 L2208.75 138.428 Q2208.75 137.07 2208.26 136.812 Q2207.77 136.555 2205.45 136.555 L2205.45 134.306 L2214.23 133.908 L2214.23 150.28 Q2214.23 151.428 2214.3 152.013 Q2214.39 152.576 2214.75 153.138 Q2215.12 153.676 2215.92 153.887 Q2216.71 154.075 2218.07 154.075 Q2220.72 154.075 2222.36 152.294 Q2224.02 150.514 2224.02 147.587 L2224.02 138.428 Q2224.02 137.07 2223.51 136.812 Q2223.01 136.555 2220.7 136.555 L2220.7 134.306 L2229.48 133.908 L2229.48 151.381 Q2229.48 152.739 2229.97 152.997 Q2230.49 153.255 2232.8 153.255 L2232.8 155.503 Z" fill="#000000" fill-rule="nonzero" fill-opacity="1" /><polyline clip-path="url(#clip660)" style="stroke:#c271d2; stroke-linecap:round; stroke-linejoin:round; stroke-width:6; stroke-opacity:1; fill:none" stroke-dasharray="3, 6" points="2135.79,196.789 2195.5,196.789 "/>
<path clip-path="url(#clip660)" d="M2232.8 200.508 L2224.3 200.79 L2224.3 197.065 Q2222.12 200.79 2217.39 200.79 Q2215.45 200.79 2214 200.532 Q2212.57 200.274 2211.3 199.642 Q2210.06 198.986 2209.41 197.721 Q2208.75 196.456 2208.75 194.606 L2208.75 183.434 Q2208.75 182.075 2208.26 181.817 Q2207.77 181.56 2205.45 181.56 L2205.45 179.311 L2214.23 178.913 L2214.23 195.285 Q2214.23 196.433 2214.3 197.019 Q2214.39 197.581 2214.75 198.143 Q2215.12 198.682 2215.92 198.892 Q2216.71 199.08 2218.07 199.08 Q2220.72 199.08 2222.36 197.3 Q2224.02 195.519 2224.02 192.592 L2224.02 183.434 Q2224.02 182.075 2223.51 181.817 Q2223.01 181.56 2220.7 181.56 L2220.7 179.311 L2229.48 178.913 L2229.48 196.386 Q2229.48 197.745 2229.97 198.002 Q2230.49 198.26 2232.8 198.26 L2232.8 200.508 Z" fill="#000000" fill-rule="nonzero" fill-opacity="1" /><path clip-path="url(#clip660)" d="M2267.53 214.459 L2263.3 214.361 L2259.07 214.459 L2259.07 212.885 L2261.39 212.885 L2261.39 203.819 Q2261.39 201.982 2260.91 201.277 Q2260.44 200.556 2259.5 200.556 Q2258.68 200.556 2257.83 200.884 Q2256.99 201.212 2256.22 201.835 Q2255.47 202.458 2254.98 203.507 Q2254.5 204.556 2254.5 205.868 L2254.5 212.885 L2256.83 212.885 L2256.83 214.459 L2252.6 214.361 L2248.35 214.459 L2248.35 212.885 L2250.68 212.885 L2250.68 203.819 Q2250.68 201.982 2250.2 201.277 Q2249.73 200.556 2248.79 200.556 Q2247.97 200.556 2247.12 200.884 Q2246.29 201.212 2245.52 201.835 Q2244.76 202.458 2244.27 203.507 Q2243.79 204.556 2243.79 205.868 L2243.79 212.885 L2246.11 212.885 L2246.11 214.459 L2241.88 214.361 L2237.65 214.459 L2237.65 212.885 L2239.96 212.885 L2239.96 202.507 Q2239.96 201.556 2239.61 201.376 Q2239.27 201.195 2237.65 201.195 L2237.65 199.621 L2243.42 199.343 L2243.42 202.982 Q2244.29 201.294 2245.76 200.326 Q2247.25 199.343 2249.34 199.343 Q2253.66 199.343 2254.37 202.573 Q2255.14 201.212 2256.55 200.277 Q2257.96 199.343 2260.04 199.343 Q2262.68 199.343 2263.94 200.49 Q2265.22 201.622 2265.22 204.179 L2265.22 212.885 L2267.53 212.885 L2267.53 214.459 Z" fill="#000000" fill-rule="nonzero" fill-opacity="1" /><path clip-path="url(#clip660)" d="M2277.38 214.459 L2273.45 214.361 L2269.35 214.459 L2269.35 212.885 L2271.68 212.885 L2271.68 202.507 Q2271.68 201.556 2271.33 201.376 Q2270.99 201.195 2269.45 201.195 L2269.45 199.621 L2275.3 199.343 L2275.3 212.885 L2277.38 212.885 L2277.38 214.459 M2274.99 192.227 Q2275.76 192.997 2275.76 194.08 Q2275.76 195.162 2274.99 195.932 Q2274.23 196.703 2273.15 196.703 Q2272.07 196.703 2271.3 195.932 Q2270.53 195.162 2270.53 194.08 Q2270.53 192.997 2271.3 192.227 Q2272.07 191.456 2273.15 191.456 Q2274.23 191.456 2274.99 192.227 Z" fill="#000000" fill-rule="nonzero" fill-opacity="1" /><path clip-path="url(#clip660)" d="M2299.37 214.459 L2295.12 214.361 L2290.89 214.459 L2290.89 212.885 L2293.22 212.885 L2293.22 203.819 Q2293.22 201.999 2292.75 201.277 Q2292.29 200.556 2291.37 200.556 Q2290.53 200.556 2289.68 200.884 Q2288.84 201.212 2288.07 201.835 Q2287.32 202.458 2286.84 203.507 Q2286.37 204.556 2286.37 205.868 L2286.37 212.885 L2288.68 212.885 L2288.68 214.459 L2284.45 214.361 L2280.22 214.459 L2280.22 212.885 L2282.53 212.885 L2282.53 202.507 Q2282.53 201.556 2282.19 201.376 Q2281.84 201.195 2280.22 201.195 L2280.22 199.621 L2285.99 199.343 L2285.99 202.982 Q2286.35 202.277 2286.84 201.687 Q2287.33 201.081 2288.04 200.539 Q2288.74 199.982 2289.73 199.67 Q2290.73 199.343 2291.88 199.343 Q2294.48 199.343 2295.76 200.474 Q2297.04 201.605 2297.04 204.179 L2297.04 212.885 L2299.37 212.885 L2299.37 214.459 Z" fill="#000000" fill-rule="nonzero" fill-opacity="1" /><polyline clip-path="url(#clip660)" style="stroke:#ac8d18; stroke-linecap:round; stroke-linejoin:round; stroke-width:6; stroke-opacity:1; fill:none" stroke-dasharray="3, 6" points="2135.79,248.629 2195.5,248.629 "/>
<path clip-path="url(#clip660)" d="M2232.8 254.563 L2224.3 254.844 L2224.3 251.12 Q2222.12 254.844 2217.39 254.844 Q2215.45 254.844 2214 254.587 Q2212.57 254.329 2211.3 253.697 Q2210.06 253.041 2209.41 251.776 Q2208.75 250.511 2208.75 248.661 L2208.75 237.488 Q2208.75 236.13 2208.26 235.872 Q2207.77 235.615 2205.45 235.615 L2205.45 233.366 L2214.23 232.968 L2214.23 249.34 Q2214.23 250.488 2214.3 251.073 Q2214.39 251.636 2214.75 252.198 Q2215.12 252.736 2215.92 252.947 Q2216.71 253.135 2218.07 253.135 Q2220.72 253.135 2222.36 251.354 Q2224.02 249.574 2224.02 246.647 L2224.02 237.488 Q2224.02 236.13 2223.51 235.872 Q2223.01 235.615 2220.7 235.615 L2220.7 233.366 L2229.48 232.968 L2229.48 250.441 Q2229.48 251.799 2229.97 252.057 Q2230.49 252.315 2232.8 252.315 L2232.8 254.563 Z" fill="#000000" fill-rule="nonzero" fill-opacity="1" /><path clip-path="url(#clip660)" d="M2267.53 263.888 L2263.3 263.789 L2259.07 263.888 L2259.07 262.314 L2261.39 262.314 L2261.39 253.247 Q2261.39 251.411 2260.91 250.706 Q2260.44 249.984 2259.5 249.984 Q2258.68 249.984 2257.83 250.312 Q2256.99 250.64 2256.22 251.263 Q2255.47 251.886 2254.98 252.935 Q2254.5 253.985 2254.5 255.296 L2254.5 262.314 L2256.83 262.314 L2256.83 263.888 L2252.6 263.789 L2248.35 263.888 L2248.35 262.314 L2250.68 262.314 L2250.68 253.247 Q2250.68 251.411 2250.2 250.706 Q2249.73 249.984 2248.79 249.984 Q2247.97 249.984 2247.12 250.312 Q2246.29 250.64 2245.52 251.263 Q2244.76 251.886 2244.27 252.935 Q2243.79 253.985 2243.79 255.296 L2243.79 262.314 L2246.11 262.314 L2246.11 263.888 L2241.88 263.789 L2237.65 263.888 L2237.65 262.314 L2239.96 262.314 L2239.96 251.935 Q2239.96 250.984 2239.61 250.804 Q2239.27 250.624 2237.65 250.624 L2237.65 249.05 L2243.42 248.771 L2243.42 252.411 Q2244.29 250.722 2245.76 249.755 Q2247.25 248.771 2249.34 248.771 Q2253.66 248.771 2254.37 252.001 Q2255.14 250.64 2256.55 249.705 Q2257.96 248.771 2260.04 248.771 Q2262.68 248.771 2263.94 249.919 Q2265.22 251.05 2265.22 253.608 L2265.22 262.314 L2267.53 262.314 L2267.53 263.888 Z" fill="#000000" fill-rule="nonzero" fill-opacity="1" /><path clip-path="url(#clip660)" d="M2287.56 263.084 Q2287.56 263.379 2287.5 263.56 Q2287.43 263.724 2287.25 263.789 Q2287.09 263.855 2286.94 263.871 Q2286.79 263.888 2286.48 263.888 L2284.87 263.888 Q2283.87 263.888 2283.17 263.707 Q2282.48 263.511 2282.13 263.281 Q2281.79 263.052 2281.61 262.642 Q2281.43 262.232 2281.4 261.986 Q2281.38 261.723 2281.38 261.297 Q2280.76 262.494 2279.49 263.297 Q2278.25 264.084 2276.38 264.084 Q2275.59 264.084 2274.8 264.002 Q2274.02 263.92 2273.1 263.675 Q2272.18 263.412 2271.49 263.019 Q2270.8 262.609 2270.35 261.904 Q2269.89 261.182 2269.89 260.264 Q2269.89 255.444 2280.81 254.985 L2280.81 253.854 Q2280.81 249.886 2277.12 249.886 Q2275.77 249.886 2274.69 250.115 Q2274.79 250.181 2274.94 250.345 Q2275.08 250.509 2275.25 250.919 Q2275.43 251.329 2275.43 251.771 Q2275.43 252.771 2274.79 253.329 Q2274.17 253.886 2273.31 253.886 Q2272.53 253.886 2271.87 253.345 Q2271.23 252.788 2271.23 251.771 Q2271.23 248.672 2277.25 248.672 Q2280.87 248.672 2282.74 250.099 Q2284.63 251.509 2284.63 253.854 L2284.63 261.068 Q2284.63 261.428 2284.66 261.592 Q2284.69 261.756 2284.87 261.953 Q2285.05 262.15 2285.48 262.232 Q2285.92 262.297 2286.68 262.314 Q2286.97 262.314 2287.12 262.346 Q2287.27 262.363 2287.41 262.543 Q2287.56 262.724 2287.56 263.084 M2280.81 259.215 L2280.81 256.034 Q2280.23 256.067 2279.69 256.133 Q2279.15 256.198 2278.26 256.362 Q2277.38 256.51 2276.66 256.821 Q2275.95 257.116 2275.26 257.559 Q2274.59 257.985 2274.2 258.674 Q2273.82 259.362 2273.82 260.231 Q2273.82 261.346 2274.71 262.117 Q2275.59 262.888 2276.87 262.888 Q2277.2 262.888 2277.61 262.822 Q2278.02 262.756 2278.61 262.527 Q2279.2 262.281 2279.66 261.904 Q2280.13 261.527 2280.46 260.838 Q2280.81 260.133 2280.81 259.215 Z" fill="#000000" fill-rule="nonzero" fill-opacity="1" /><path clip-path="url(#clip660)" d="M2306.56 263.888 L2302.87 263.789 L2298.83 263.888 L2298.83 262.314 L2300.15 262.314 L2296.46 257.952 L2293.19 261.609 L2292.97 261.937 Q2292.97 262.084 2293.34 262.199 Q2293.74 262.314 2294.19 262.314 L2294.19 263.888 L2290.74 263.789 L2287.65 263.888 L2287.65 262.314 Q2288.69 262.314 2289.16 262.297 Q2289.65 262.265 2290.21 262.117 Q2290.77 261.969 2291.05 261.674 L2295.44 256.739 L2290.21 250.558 L2287.82 250.558 L2287.82 248.984 L2291.52 249.082 L2295.57 248.984 L2295.57 250.558 L2294.23 250.558 L2297.52 254.411 L2300.34 251.263 Q2300.36 251.247 2300.62 250.853 Q2300.1 250.558 2299.34 250.558 L2299.34 248.984 L2302.8 249.082 L2305.89 248.984 L2305.89 250.558 Q2304.54 250.558 2303.84 250.656 Q2303.15 250.738 2302.93 250.853 Q2302.74 250.968 2302.46 251.263 L2298.54 255.624 L2304.18 262.314 L2306.56 262.314 L2306.56 263.888 Z" fill="#000000" fill-rule="nonzero" fill-opacity="1" /></svg>
