<?xml version="1.0" encoding="utf-8"?>
<svg xmlns="http://www.w3.org/2000/svg" xmlns:xlink="http://www.w3.org/1999/xlink" width="600" height="400" viewBox="0 0 2400 1600">
<defs>
  <clipPath id="clip630">
    <rect x="0" y="0" width="2400" height="1600"/>
  </clipPath>
</defs>
<path clip-path="url(#clip630)" d="M0 1600 L2400 1600 L2400 0 L0 0  Z" fill="#ffffff" fill-rule="evenodd" fill-opacity="1"/>
<defs>
  <clipPath id="clip631">
    <rect x="480" y="0" width="1681" height="1600"/>
  </clipPath>
</defs>
<path clip-path="url(#clip630)" d="M232.389 623.18 L1140.35 623.18 L1140.35 47.2441 L232.389 47.2441  Z" fill="#ffffff" fill-rule="evenodd" fill-opacity="1"/>
<defs>
  <clipPath id="clip632">
    <rect x="232" y="47" width="909" height="577"/>
  </clipPath>
</defs>
<polyline clip-path="url(#clip632)" style="stroke:#000000; stroke-linecap:round; stroke-linejoin:round; stroke-width:2; stroke-opacity:0.1; fill:none" points="258.086,623.18 258.086,47.2441 "/>
<polyline clip-path="url(#clip632)" style="stroke:#000000; stroke-linecap:round; stroke-linejoin:round; stroke-width:2; stroke-opacity:0.1; fill:none" points="510.017,623.18 510.017,47.2441 "/>
<polyline clip-path="url(#clip632)" style="stroke:#000000; stroke-linecap:round; stroke-linejoin:round; stroke-width:2; stroke-opacity:0.1; fill:none" points="761.948,623.18 761.948,47.2441 "/>
<polyline clip-path="url(#clip632)" style="stroke:#000000; stroke-linecap:round; stroke-linejoin:round; stroke-width:2; stroke-opacity:0.1; fill:none" points="1013.88,623.18 1013.88,47.2441 "/>
<polyline clip-path="url(#clip630)" style="stroke:#000000; stroke-linecap:round; stroke-linejoin:round; stroke-width:4; stroke-opacity:1; fill:none" points="232.389,623.18 1140.35,623.18 "/>
<polyline clip-path="url(#clip630)" style="stroke:#000000; stroke-linecap:round; stroke-linejoin:round; stroke-width:4; stroke-opacity:1; fill:none" points="258.086,623.18 258.086,604.282 "/>
<polyline clip-path="url(#clip630)" style="stroke:#000000; stroke-linecap:round; stroke-linejoin:round; stroke-width:4; stroke-opacity:1; fill:none" points="510.017,623.18 510.017,604.282 "/>
<polyline clip-path="url(#clip630)" style="stroke:#000000; stroke-linecap:round; stroke-linejoin:round; stroke-width:4; stroke-opacity:1; fill:none" points="761.948,623.18 761.948,604.282 "/>
<polyline clip-path="url(#clip630)" style="stroke:#000000; stroke-linecap:round; stroke-linejoin:round; stroke-width:4; stroke-opacity:1; fill:none" points="1013.88,623.18 1013.88,604.282 "/>
<path clip-path="url(#clip630)" d="M258.086 654.099 Q254.475 654.099 252.647 657.663 Q250.841 661.205 250.841 668.335 Q250.841 675.441 252.647 679.006 Q254.475 682.547 258.086 682.547 Q261.721 682.547 263.526 679.006 Q265.355 675.441 265.355 668.335 Q265.355 661.205 263.526 657.663 Q261.721 654.099 258.086 654.099 M258.086 650.395 Q263.896 650.395 266.952 655.001 Q270.031 659.585 270.031 668.335 Q270.031 677.061 266.952 681.668 Q263.896 686.251 258.086 686.251 Q252.276 686.251 249.197 681.668 Q246.142 677.061 246.142 668.335 Q246.142 659.585 249.197 655.001 Q252.276 650.395 258.086 650.395 Z" fill="#000000" fill-rule="nonzero" fill-opacity="1" /><path clip-path="url(#clip630)" d="M500.399 681.645 L508.038 681.645 L508.038 655.279 L499.728 656.946 L499.728 652.687 L507.992 651.02 L512.668 651.02 L512.668 681.645 L520.307 681.645 L520.307 685.58 L500.399 685.58 L500.399 681.645 Z" fill="#000000" fill-rule="nonzero" fill-opacity="1" /><path clip-path="url(#clip630)" d="M756.601 681.645 L772.92 681.645 L772.92 685.58 L750.976 685.58 L750.976 681.645 Q753.638 678.89 758.221 674.26 Q762.828 669.608 764.008 668.265 Q766.254 665.742 767.133 664.006 Q768.036 662.247 768.036 660.557 Q768.036 657.802 766.092 656.066 Q764.17 654.33 761.069 654.33 Q758.87 654.33 756.416 655.094 Q753.985 655.858 751.208 657.409 L751.208 652.687 Q754.032 651.552 756.485 650.974 Q758.939 650.395 760.976 650.395 Q766.346 650.395 769.541 653.08 Q772.735 655.765 772.735 660.256 Q772.735 662.386 771.925 664.307 Q771.138 666.205 769.032 668.798 Q768.453 669.469 765.351 672.686 Q762.249 675.881 756.601 681.645 Z" fill="#000000" fill-rule="nonzero" fill-opacity="1" /><path clip-path="url(#clip630)" d="M1018.13 666.946 Q1021.48 667.663 1023.36 669.932 Q1025.26 672.2 1025.26 675.534 Q1025.26 680.649 1021.74 683.45 Q1018.22 686.251 1011.74 686.251 Q1009.56 686.251 1007.25 685.811 Q1004.96 685.395 1002.5 684.538 L1002.5 680.024 Q1004.45 681.159 1006.76 681.737 Q1009.08 682.316 1011.6 682.316 Q1016 682.316 1018.29 680.58 Q1020.6 678.844 1020.6 675.534 Q1020.6 672.478 1018.45 670.765 Q1016.32 669.029 1012.5 669.029 L1008.47 669.029 L1008.47 665.186 L1012.69 665.186 Q1016.14 665.186 1017.96 663.821 Q1019.79 662.432 1019.79 659.839 Q1019.79 657.177 1017.9 655.765 Q1016.02 654.33 1012.5 654.33 Q1010.58 654.33 1008.38 654.747 Q1006.18 655.163 1003.54 656.043 L1003.54 651.876 Q1006.21 651.136 1008.52 650.765 Q1010.86 650.395 1012.92 650.395 Q1018.24 650.395 1021.34 652.825 Q1024.45 655.233 1024.45 659.353 Q1024.45 662.223 1022.8 664.214 Q1021.16 666.182 1018.13 666.946 Z" fill="#000000" fill-rule="nonzero" fill-opacity="1" /><path clip-path="url(#clip630)" d="M556.54 720.524 L596.74 720.524 L596.74 725.935 L579.871 725.935 L579.871 768.044 L573.409 768.044 L573.409 725.935 L556.54 725.935 L556.54 720.524 Z" fill="#000000" fill-rule="nonzero" fill-opacity="1" /><path clip-path="url(#clip630)" d="M600.687 732.396 L606.543 732.396 L606.543 768.044 L600.687 768.044 L600.687 732.396 M600.687 718.519 L606.543 718.519 L606.543 725.935 L600.687 725.935 L600.687 718.519 Z" fill="#000000" fill-rule="nonzero" fill-opacity="1" /><path clip-path="url(#clip630)" d="M646.551 739.239 Q648.748 735.292 651.803 733.414 Q654.859 731.537 658.996 731.537 Q664.566 731.537 667.59 735.451 Q670.614 739.335 670.614 746.528 L670.614 768.044 L664.726 768.044 L664.726 746.719 Q664.726 741.594 662.911 739.112 Q661.097 736.629 657.373 736.629 Q652.822 736.629 650.18 739.653 Q647.538 742.677 647.538 747.896 L647.538 768.044 L641.65 768.044 L641.65 746.719 Q641.65 741.563 639.836 739.112 Q638.021 736.629 634.234 736.629 Q629.746 736.629 627.104 739.685 Q624.462 742.708 624.462 747.896 L624.462 768.044 L618.574 768.044 L618.574 732.396 L624.462 732.396 L624.462 737.934 Q626.468 734.656 629.269 733.096 Q632.069 731.537 635.921 731.537 Q639.804 731.537 642.509 733.51 Q645.246 735.483 646.551 739.239 Z" fill="#000000" fill-rule="nonzero" fill-opacity="1" /><path clip-path="url(#clip630)" d="M712.787 748.756 L712.787 751.62 L685.86 751.62 Q686.242 757.668 689.488 760.851 Q692.766 764.002 698.591 764.002 Q701.965 764.002 705.116 763.174 Q708.299 762.347 711.418 760.691 L711.418 766.23 Q708.267 767.566 704.957 768.267 Q701.647 768.967 698.241 768.967 Q689.711 768.967 684.714 764.002 Q679.749 759.036 679.749 750.57 Q679.749 741.817 684.459 736.693 Q689.202 731.537 697.222 731.537 Q704.416 731.537 708.585 736.183 Q712.787 740.799 712.787 748.756 M706.93 747.037 Q706.867 742.231 704.225 739.366 Q701.615 736.502 697.286 736.502 Q692.385 736.502 689.424 739.271 Q686.496 742.04 686.051 747.069 L706.93 747.037 Z" fill="#000000" fill-rule="nonzero" fill-opacity="1" /><path clip-path="url(#clip630)" d="M757.187 718.582 Q752.922 725.903 750.854 733.064 Q748.785 740.226 748.785 747.578 Q748.785 754.93 750.854 762.156 Q752.954 769.349 757.187 776.638 L752.095 776.638 Q747.321 769.158 744.933 761.933 Q742.578 754.708 742.578 747.578 Q742.578 740.48 744.933 733.287 Q747.289 726.094 752.095 718.582 L757.187 718.582 Z" fill="#000000" fill-rule="nonzero" fill-opacity="1" /><path clip-path="url(#clip630)" d="M791.276 733.446 L791.276 738.984 Q788.793 737.711 786.12 737.075 Q783.446 736.438 780.581 736.438 Q776.221 736.438 774.025 737.775 Q771.86 739.112 771.86 741.785 Q771.86 743.822 773.42 745 Q774.98 746.146 779.69 747.196 L781.695 747.642 Q787.934 748.979 790.544 751.429 Q793.186 753.848 793.186 758.209 Q793.186 763.174 789.239 766.07 Q785.324 768.967 778.449 768.967 Q775.584 768.967 772.465 768.394 Q769.378 767.853 765.94 766.739 L765.94 760.691 Q769.187 762.378 772.338 763.238 Q775.489 764.065 778.576 764.065 Q782.714 764.065 784.942 762.665 Q787.17 761.233 787.17 758.654 Q787.17 756.267 785.547 754.994 Q783.955 753.721 778.513 752.543 L776.476 752.066 Q771.033 750.92 768.614 748.565 Q766.195 746.178 766.195 742.04 Q766.195 737.011 769.76 734.274 Q773.325 731.537 779.881 731.537 Q783.128 731.537 785.992 732.014 Q788.857 732.491 791.276 733.446 Z" fill="#000000" fill-rule="nonzero" fill-opacity="1" /><path clip-path="url(#clip630)" d="M801.588 718.582 L806.681 718.582 Q811.455 726.094 813.81 733.287 Q816.198 740.48 816.198 747.578 Q816.198 754.708 813.81 761.933 Q811.455 769.158 806.681 776.638 L801.588 776.638 Q805.821 769.349 807.89 762.156 Q809.991 754.93 809.991 747.578 Q809.991 740.226 807.89 733.064 Q805.821 725.903 801.588 718.582 Z" fill="#000000" fill-rule="nonzero" fill-opacity="1" /><polyline clip-path="url(#clip632)" style="stroke:#000000; stroke-linecap:round; stroke-linejoin:round; stroke-width:2; stroke-opacity:0.1; fill:none" points="232.389,606.88 1140.35,606.88 "/>
<polyline clip-path="url(#clip632)" style="stroke:#000000; stroke-linecap:round; stroke-linejoin:round; stroke-width:2; stroke-opacity:0.1; fill:none" points="232.389,460.257 1140.35,460.257 "/>
<polyline clip-path="url(#clip632)" style="stroke:#000000; stroke-linecap:round; stroke-linejoin:round; stroke-width:2; stroke-opacity:0.1; fill:none" points="232.389,313.635 1140.35,313.635 "/>
<polyline clip-path="url(#clip632)" style="stroke:#000000; stroke-linecap:round; stroke-linejoin:round; stroke-width:2; stroke-opacity:0.1; fill:none" points="232.389,167.012 1140.35,167.012 "/>
<polyline clip-path="url(#clip630)" style="stroke:#000000; stroke-linecap:round; stroke-linejoin:round; stroke-width:4; stroke-opacity:1; fill:none" points="232.389,623.18 232.389,47.2441 "/>
<polyline clip-path="url(#clip630)" style="stroke:#000000; stroke-linecap:round; stroke-linejoin:round; stroke-width:4; stroke-opacity:1; fill:none" points="232.389,606.88 251.287,606.88 "/>
<polyline clip-path="url(#clip630)" style="stroke:#000000; stroke-linecap:round; stroke-linejoin:round; stroke-width:4; stroke-opacity:1; fill:none" points="232.389,460.257 251.287,460.257 "/>
<polyline clip-path="url(#clip630)" style="stroke:#000000; stroke-linecap:round; stroke-linejoin:round; stroke-width:4; stroke-opacity:1; fill:none" points="232.389,313.635 251.287,313.635 "/>
<polyline clip-path="url(#clip630)" style="stroke:#000000; stroke-linecap:round; stroke-linejoin:round; stroke-width:4; stroke-opacity:1; fill:none" points="232.389,167.012 251.287,167.012 "/>
<path clip-path="url(#clip630)" d="M184.445 592.678 Q180.834 592.678 179.005 596.243 Q177.2 599.785 177.2 606.914 Q177.2 614.021 179.005 617.586 Q180.834 621.127 184.445 621.127 Q188.079 621.127 189.885 617.586 Q191.713 614.021 191.713 606.914 Q191.713 599.785 189.885 596.243 Q188.079 592.678 184.445 592.678 M184.445 588.975 Q190.255 588.975 193.311 593.581 Q196.389 598.165 196.389 606.914 Q196.389 615.641 193.311 620.248 Q190.255 624.831 184.445 624.831 Q178.635 624.831 175.556 620.248 Q172.501 615.641 172.501 606.914 Q172.501 598.165 175.556 593.581 Q178.635 588.975 184.445 588.975 Z" fill="#000000" fill-rule="nonzero" fill-opacity="1" /><path clip-path="url(#clip630)" d="M144.329 442.977 L162.686 442.977 L162.686 446.912 L148.612 446.912 L148.612 455.385 Q149.63 455.037 150.649 454.875 Q151.667 454.69 152.686 454.69 Q158.473 454.69 161.852 457.861 Q165.232 461.033 165.232 466.449 Q165.232 472.028 161.76 475.13 Q158.288 478.209 151.968 478.209 Q149.792 478.209 147.524 477.838 Q145.279 477.468 142.871 476.727 L142.871 472.028 Q144.954 473.162 147.177 473.718 Q149.399 474.273 151.876 474.273 Q155.88 474.273 158.218 472.167 Q160.556 470.06 160.556 466.449 Q160.556 462.838 158.218 460.732 Q155.88 458.625 151.876 458.625 Q150.001 458.625 148.126 459.042 Q146.274 459.459 144.329 460.338 L144.329 442.977 Z" fill="#000000" fill-rule="nonzero" fill-opacity="1" /><path clip-path="url(#clip630)" d="M184.445 446.056 Q180.834 446.056 179.005 449.621 Q177.2 453.162 177.2 460.292 Q177.2 467.398 179.005 470.963 Q180.834 474.505 184.445 474.505 Q188.079 474.505 189.885 470.963 Q191.713 467.398 191.713 460.292 Q191.713 453.162 189.885 449.621 Q188.079 446.056 184.445 446.056 M184.445 442.352 Q190.255 442.352 193.311 446.959 Q196.389 451.542 196.389 460.292 Q196.389 469.019 193.311 473.625 Q190.255 478.209 184.445 478.209 Q178.635 478.209 175.556 473.625 Q172.501 469.019 172.501 460.292 Q172.501 451.542 175.556 446.959 Q178.635 442.352 184.445 442.352 Z" fill="#000000" fill-rule="nonzero" fill-opacity="1" /><path clip-path="url(#clip630)" d="M114.931 326.98 L122.57 326.98 L122.57 300.614 L114.26 302.281 L114.26 298.021 L122.524 296.355 L127.2 296.355 L127.2 326.98 L134.839 326.98 L134.839 330.915 L114.931 330.915 L114.931 326.98 Z" fill="#000000" fill-rule="nonzero" fill-opacity="1" /><path clip-path="url(#clip630)" d="M154.283 299.433 Q150.672 299.433 148.843 302.998 Q147.038 306.54 147.038 313.669 Q147.038 320.776 148.843 324.341 Q150.672 327.882 154.283 327.882 Q157.917 327.882 159.723 324.341 Q161.552 320.776 161.552 313.669 Q161.552 306.54 159.723 302.998 Q157.917 299.433 154.283 299.433 M154.283 295.73 Q160.093 295.73 163.149 300.336 Q166.227 304.919 166.227 313.669 Q166.227 322.396 163.149 327.003 Q160.093 331.586 154.283 331.586 Q148.473 331.586 145.394 327.003 Q142.339 322.396 142.339 313.669 Q142.339 304.919 145.394 300.336 Q148.473 295.73 154.283 295.73 Z" fill="#000000" fill-rule="nonzero" fill-opacity="1" /><path clip-path="url(#clip630)" d="M184.445 299.433 Q180.834 299.433 179.005 302.998 Q177.2 306.54 177.2 313.669 Q177.2 320.776 179.005 324.341 Q180.834 327.882 184.445 327.882 Q188.079 327.882 189.885 324.341 Q191.713 320.776 191.713 313.669 Q191.713 306.54 189.885 302.998 Q188.079 299.433 184.445 299.433 M184.445 295.73 Q190.255 295.73 193.311 300.336 Q196.389 304.919 196.389 313.669 Q196.389 322.396 193.311 327.003 Q190.255 331.586 184.445 331.586 Q178.635 331.586 175.556 327.003 Q172.501 322.396 172.501 313.669 Q172.501 304.919 175.556 300.336 Q178.635 295.73 184.445 295.73 Z" fill="#000000" fill-rule="nonzero" fill-opacity="1" /><path clip-path="url(#clip630)" d="M114.931 180.357 L122.57 180.357 L122.57 153.991 L114.26 155.658 L114.26 151.399 L122.524 149.732 L127.2 149.732 L127.2 180.357 L134.839 180.357 L134.839 184.292 L114.931 184.292 L114.931 180.357 Z" fill="#000000" fill-rule="nonzero" fill-opacity="1" /><path clip-path="url(#clip630)" d="M144.329 149.732 L162.686 149.732 L162.686 153.667 L148.612 153.667 L148.612 162.14 Q149.63 161.792 150.649 161.63 Q151.667 161.445 152.686 161.445 Q158.473 161.445 161.852 164.616 Q165.232 167.788 165.232 173.204 Q165.232 178.783 161.76 181.885 Q158.288 184.963 151.968 184.963 Q149.792 184.963 147.524 184.593 Q145.279 184.223 142.871 183.482 L142.871 178.783 Q144.954 179.917 147.177 180.473 Q149.399 181.028 151.876 181.028 Q155.88 181.028 158.218 178.922 Q160.556 176.815 160.556 173.204 Q160.556 169.593 158.218 167.487 Q155.88 165.38 151.876 165.38 Q150.001 165.38 148.126 165.797 Q146.274 166.214 144.329 167.093 L144.329 149.732 Z" fill="#000000" fill-rule="nonzero" fill-opacity="1" /><path clip-path="url(#clip630)" d="M184.445 152.811 Q180.834 152.811 179.005 156.376 Q177.2 159.917 177.2 167.047 Q177.2 174.153 179.005 177.718 Q180.834 181.26 184.445 181.26 Q188.079 181.26 189.885 177.718 Q191.713 174.153 191.713 167.047 Q191.713 159.917 189.885 156.376 Q188.079 152.811 184.445 152.811 M184.445 149.107 Q190.255 149.107 193.311 153.714 Q196.389 158.297 196.389 167.047 Q196.389 175.774 193.311 180.38 Q190.255 184.963 184.445 184.963 Q178.635 184.963 175.556 180.38 Q172.501 175.774 172.501 167.047 Q172.501 158.297 175.556 153.714 Q178.635 149.107 184.445 149.107 Z" fill="#000000" fill-rule="nonzero" fill-opacity="1" /><path clip-path="url(#clip630)" d="M21.7178 334.435 Q22.1687 334.435 23.2315 334.724 L48.4165 341.037 Q54.0203 342.422 57.9494 346.93 Q61.8785 351.407 61.8785 356.496 Q61.8785 359.555 60.236 361.52 Q58.6257 363.484 56.1459 363.484 Q53.9559 363.484 52.8931 362.325 Q51.8625 361.165 51.8625 359.781 Q51.8625 359.33 51.9913 358.847 Q52.1201 358.364 52.6676 357.848 Q53.2151 357.333 54.1491 357.333 Q55.6628 357.333 56.8544 358.653 Q57.4019 359.298 57.5307 359.909 Q57.6596 360.489 57.6596 361.488 Q58.5613 361.101 59.1732 360.393 Q59.7851 359.684 60.0106 358.879 Q60.2682 358.074 60.3326 357.558 Q60.4293 357.011 60.4293 356.496 Q60.4293 352.373 56.2747 349.217 Q55.0187 348.283 53.7626 347.607 Q52.5388 346.898 51.0252 346.383 Q49.5437 345.868 48.7385 345.642 Q47.9334 345.385 46.0977 344.934 Q49.0928 347.929 49.0928 351.6 Q49.0928 353.146 48.6741 354.531 Q48.2554 355.884 47.3859 357.075 Q46.4841 358.267 44.906 358.975 Q43.3279 359.652 41.2346 359.652 Q39.0124 359.652 35.985 358.782 Q32.9577 357.913 27.386 355.819 Q24.2621 354.692 22.7484 354.692 Q22.0077 354.692 21.5568 354.853 Q21.0737 355.014 20.9127 355.336 Q20.7194 355.658 20.6872 355.852 Q20.655 356.013 20.655 356.335 Q20.655 358.235 22.5874 360.006 Q24.5197 361.777 28.8353 363.001 Q29.6405 363.259 29.8337 363.42 Q30.0269 363.581 30.0269 364.064 Q29.9947 364.869 29.3506 364.869 Q29.093 364.869 28.0946 364.579 Q27.064 364.289 25.5503 363.613 Q24.0044 362.905 22.6196 361.938 Q21.2025 360.972 20.2041 359.459 Q19.2058 357.913 19.2058 356.141 Q19.2058 353.726 20.7838 352.244 Q22.3297 350.731 24.6163 350.731 Q25.5503 350.731 26.3877 350.988 Q27.1928 351.214 29.3506 352.051 Q38.0462 355.433 42.2974 355.433 Q43.3279 355.433 44.1975 355.272 Q45.0349 355.079 45.8722 354.66 Q46.6774 354.241 47.1604 353.404 Q47.6113 352.534 47.6113 351.343 Q47.6113 349.829 46.9028 348.412 Q46.1621 346.963 45.1637 346.061 Q44.1653 345.127 43.3279 344.579 Q42.4584 344 42.0075 343.871 L30.1558 340.908 L24.874 339.588 Q22.0077 338.976 21.2991 338.686 Q20.6228 338.299 20.2686 337.623 Q19.9143 336.947 19.9143 336.367 Q19.9143 335.562 20.3974 335.014 Q20.8805 334.435 21.7178 334.435 Z" fill="#000000" fill-rule="nonzero" fill-opacity="1" /><path clip-path="url(#clip630)" d="M53.6652 327.689 L52.2224 327.689 Q52.2224 322.143 49.2691 319.28 Q49.2691 318.491 49.4494 318.355 Q49.6298 318.22 50.4639 318.22 L76.3671 318.22 Q77.7423 318.22 78.1706 317.544 Q78.599 316.867 78.599 313.914 L78.599 312.449 L80.0193 312.449 Q79.884 314.072 79.884 319.933 Q79.884 325.795 80.0193 327.395 L78.599 327.395 L78.599 325.93 Q78.599 323.022 78.1932 322.323 Q77.7648 321.624 76.3671 321.624 L52.4478 321.624 Q53.6652 324.036 53.6652 327.689 Z" fill="#000000" fill-rule="nonzero" fill-opacity="1" /><polyline clip-path="url(#clip632)" style="stroke:#009af9; stroke-linecap:round; stroke-linejoin:round; stroke-width:4; stroke-opacity:1; fill:none" points="258.086,606.88 283.279,606.88 308.473,554.374 333.666,475.616 358.859,396.388 384.052,333.254 409.245,288.283 434.438,254.387 459.631,223.938 484.824,191.783 510.017,154.461 535.21,108.891 560.403,93.4873 585.597,83.0718 610.79,77.0258 635.983,67.6181 661.176,65.2187 686.369,63.5442 711.562,64.9626 736.755,65.0777 761.948,66.9677 787.141,68.2467 812.334,70.4514 837.528,71.8432 862.721,73.5937 887.914,74.7369 913.107,76.0336 938.3,76.8413 963.493,77.6766 988.686,78.1627 1013.88,78.6503 1039.07,78.901 1064.27,79.1468 1089.46,79.2412 1114.65,79.3386 "/>
<polyline clip-path="url(#clip632)" style="stroke:#3da44d; stroke-linecap:round; stroke-linejoin:round; stroke-width:3; stroke-opacity:1; fill:none" stroke-dasharray="12, 8" points="258.086,79.0387 283.279,79.0387 308.473,79.0387 333.666,79.0387 358.859,79.0387 384.052,79.0387 409.245,79.0387 434.438,79.0387 459.631,79.0387 484.824,79.0387 510.017,79.0387 535.21,79.0387 560.403,79.0387 585.597,79.0387 610.79,79.0387 635.983,79.0387 661.176,79.0387 686.369,79.0387 711.562,79.0387 736.755,79.0387 761.948,79.0387 787.141,79.0387 812.334,79.0387 837.528,79.0387 862.721,79.0387 887.914,79.0387 913.107,79.0387 938.3,79.0387 963.493,79.0387 988.686,79.0387 1013.88,79.0387 1039.07,79.0387 1064.27,79.0387 1089.46,79.0387 1114.65,79.0387 "/>
<path clip-path="url(#clip630)" d="M971.279 603.982 L1110.08 603.982 L1110.08 448.462 L971.279 448.462  Z" fill="#ffffff" fill-rule="evenodd" fill-opacity="1"/>
<polyline clip-path="url(#clip630)" style="stroke:#000000; stroke-linecap:round; stroke-linejoin:round; stroke-width:4; stroke-opacity:1; fill:none" points="971.279,603.982 1110.08,603.982 1110.08,448.462 971.279,448.462 971.279,603.982 "/>
<polyline clip-path="url(#clip630)" style="stroke:#009af9; stroke-linecap:round; stroke-linejoin:round; stroke-width:4; stroke-opacity:1; fill:none" points="981.367,500.302 1041.9,500.302 "/>
<path clip-path="url(#clip630)" d="M1078.76 487.041 Q1077.28 487.041 1076.53 487.181 Q1075.78 487.298 1075.6 487.462 Q1075.41 487.626 1075.2 488.048 L1064.89 509.971 Q1063.79 512.314 1061.73 514 Q1059.69 515.686 1057.12 515.686 Q1054.96 515.686 1053.46 514.375 Q1051.99 513.087 1051.99 511.26 Q1051.99 509.948 1052.81 509.198 Q1053.63 508.472 1054.73 508.472 Q1055.94 508.472 1056.72 509.245 Q1057.51 510.018 1057.51 511.213 Q1057.51 511.986 1057.19 512.571 Q1056.86 513.18 1056.55 513.391 Q1056.27 513.625 1055.97 513.766 Q1056.46 513.953 1057.12 513.953 Q1058.1 513.953 1058.94 513.555 Q1059.81 513.18 1060.37 512.665 Q1060.96 512.173 1061.54 511.283 Q1062.13 510.416 1062.41 509.854 Q1062.69 509.316 1063.11 508.379 L1064.21 506.083 L1055.24 487.041 L1052.17 487.041 L1052.17 484.792 L1057.65 484.933 L1063.6 484.792 L1063.6 487.041 L1061 487.041 L1067.09 499.993 L1072.62 488.188 L1072.86 487.626 Q1072.86 487.369 1072.29 487.228 Q1071.73 487.064 1071.17 487.064 L1070.61 487.041 L1070.61 484.792 L1074.96 484.933 Q1077.02 484.933 1078.76 484.792 L1078.76 487.041 Z" fill="#000000" fill-rule="nonzero" fill-opacity="1" /><polyline clip-path="url(#clip630)" style="stroke:#3da44d; stroke-linecap:round; stroke-linejoin:round; stroke-width:3; stroke-opacity:1; fill:none" stroke-dasharray="12, 8" points="981.367,552.142 1041.9,552.142 "/>
<path clip-path="url(#clip630)" d="M1071.4 537.42 Q1071.4 538.778 1070.51 539.575 Q1069.62 540.348 1068.48 540.348 Q1067.33 540.348 1066.44 539.575 Q1065.55 538.802 1065.55 537.42 Q1065.55 536.811 1065.76 536.272 Q1065.99 535.71 1066.23 535.452 L1066.46 535.218 Q1065.08 535.218 1064 535.874 Q1062.92 536.506 1062.27 537.49 Q1061.61 538.474 1061.19 539.762 Q1060.77 541.027 1060.61 542.175 Q1060.46 543.322 1060.46 544.423 L1060.46 552.832 L1064.63 552.832 L1064.63 555.08 Q1062.9 554.94 1058.03 554.94 L1051.99 555.08 L1051.99 552.832 L1055.29 552.832 L1055.29 538.005 Q1055.29 536.647 1054.8 536.389 Q1054.3 536.132 1051.99 536.132 L1051.99 533.883 L1059.95 533.485 L1059.95 538.919 Q1061.94 533.485 1066.32 533.485 Q1068.33 533.485 1069.86 534.562 Q1071.4 535.616 1071.4 537.42 Z" fill="#000000" fill-rule="nonzero" fill-opacity="1" /><path clip-path="url(#clip630)" d="M1095.07 550.604 Q1094.03 550.604 1093.51 550.702 Q1092.98 550.784 1092.85 550.899 Q1092.72 551.013 1092.57 551.309 L1085.36 566.655 Q1084.59 568.294 1083.15 569.475 Q1081.72 570.655 1079.92 570.655 Q1078.41 570.655 1077.36 569.737 Q1076.32 568.836 1076.32 567.557 Q1076.32 566.639 1076.9 566.114 Q1077.47 565.606 1078.24 565.606 Q1079.1 565.606 1079.64 566.147 Q1080.19 566.688 1080.19 567.524 Q1080.19 568.065 1079.96 568.475 Q1079.74 568.901 1079.52 569.049 Q1079.33 569.213 1079.11 569.311 Q1079.46 569.442 1079.92 569.442 Q1080.6 569.442 1081.19 569.163 Q1081.8 568.901 1082.19 568.54 Q1082.6 568.196 1083.01 567.573 Q1083.42 566.966 1083.62 566.573 Q1083.82 566.196 1084.11 565.54 L1084.88 563.933 L1078.6 550.604 L1076.46 550.604 L1076.46 549.03 L1080.29 549.128 L1084.46 549.03 L1084.46 550.604 L1082.64 550.604 L1086.9 559.67 L1090.77 551.407 L1090.93 551.013 Q1090.93 550.833 1090.54 550.735 Q1090.15 550.62 1089.75 550.62 L1089.36 550.604 L1089.36 549.03 L1092.41 549.128 Q1093.85 549.128 1095.07 549.03 L1095.07 550.604 Z" fill="#000000" fill-rule="nonzero" fill-opacity="1" /><path clip-path="url(#clip630)" d="M232.389 1423.18 L1140.35 1423.18 L1140.35 847.244 L232.389 847.244  Z" fill="#ffffff" fill-rule="evenodd" fill-opacity="1"/>
<defs>
  <clipPath id="clip633">
    <rect x="232" y="847" width="909" height="577"/>
  </clipPath>
</defs>
<polyline clip-path="url(#clip633)" style="stroke:#000000; stroke-linecap:round; stroke-linejoin:round; stroke-width:2; stroke-opacity:0.1; fill:none" points="258.086,1423.18 258.086,847.244 "/>
<polyline clip-path="url(#clip633)" style="stroke:#000000; stroke-linecap:round; stroke-linejoin:round; stroke-width:2; stroke-opacity:0.1; fill:none" points="510.017,1423.18 510.017,847.244 "/>
<polyline clip-path="url(#clip633)" style="stroke:#000000; stroke-linecap:round; stroke-linejoin:round; stroke-width:2; stroke-opacity:0.1; fill:none" points="761.948,1423.18 761.948,847.244 "/>
<polyline clip-path="url(#clip633)" style="stroke:#000000; stroke-linecap:round; stroke-linejoin:round; stroke-width:2; stroke-opacity:0.1; fill:none" points="1013.88,1423.18 1013.88,847.244 "/>
<polyline clip-path="url(#clip630)" style="stroke:#000000; stroke-linecap:round; stroke-linejoin:round; stroke-width:4; stroke-opacity:1; fill:none" points="232.389,1423.18 1140.35,1423.18 "/>
<polyline clip-path="url(#clip630)" style="stroke:#000000; stroke-linecap:round; stroke-linejoin:round; stroke-width:4; stroke-opacity:1; fill:none" points="258.086,1423.18 258.086,1404.28 "/>
<polyline clip-path="url(#clip630)" style="stroke:#000000; stroke-linecap:round; stroke-linejoin:round; stroke-width:4; stroke-opacity:1; fill:none" points="510.017,1423.18 510.017,1404.28 "/>
<polyline clip-path="url(#clip630)" style="stroke:#000000; stroke-linecap:round; stroke-linejoin:round; stroke-width:4; stroke-opacity:1; fill:none" points="761.948,1423.18 761.948,1404.28 "/>
<polyline clip-path="url(#clip630)" style="stroke:#000000; stroke-linecap:round; stroke-linejoin:round; stroke-width:4; stroke-opacity:1; fill:none" points="1013.88,1423.18 1013.88,1404.28 "/>
<path clip-path="url(#clip630)" d="M258.086 1454.1 Q254.475 1454.1 252.647 1457.66 Q250.841 1461.2 250.841 1468.33 Q250.841 1475.44 252.647 1479.01 Q254.475 1482.55 258.086 1482.55 Q261.721 1482.55 263.526 1479.01 Q265.355 1475.44 265.355 1468.33 Q265.355 1461.2 263.526 1457.66 Q261.721 1454.1 258.086 1454.1 M258.086 1450.39 Q263.896 1450.39 266.952 1455 Q270.031 1459.58 270.031 1468.33 Q270.031 1477.06 266.952 1481.67 Q263.896 1486.25 258.086 1486.25 Q252.276 1486.25 249.197 1481.67 Q246.142 1477.06 246.142 1468.33 Q246.142 1459.58 249.197 1455 Q252.276 1450.39 258.086 1450.39 Z" fill="#000000" fill-rule="nonzero" fill-opacity="1" /><path clip-path="url(#clip630)" d="M500.399 1481.64 L508.038 1481.64 L508.038 1455.28 L499.728 1456.95 L499.728 1452.69 L507.992 1451.02 L512.668 1451.02 L512.668 1481.64 L520.307 1481.64 L520.307 1485.58 L500.399 1485.58 L500.399 1481.64 Z" fill="#000000" fill-rule="nonzero" fill-opacity="1" /><path clip-path="url(#clip630)" d="M756.601 1481.64 L772.92 1481.64 L772.92 1485.58 L750.976 1485.58 L750.976 1481.64 Q753.638 1478.89 758.221 1474.26 Q762.828 1469.61 764.008 1468.27 Q766.254 1465.74 767.133 1464.01 Q768.036 1462.25 768.036 1460.56 Q768.036 1457.8 766.092 1456.07 Q764.17 1454.33 761.069 1454.33 Q758.87 1454.33 756.416 1455.09 Q753.985 1455.86 751.208 1457.41 L751.208 1452.69 Q754.032 1451.55 756.485 1450.97 Q758.939 1450.39 760.976 1450.39 Q766.346 1450.39 769.541 1453.08 Q772.735 1455.77 772.735 1460.26 Q772.735 1462.39 771.925 1464.31 Q771.138 1466.2 769.032 1468.8 Q768.453 1469.47 765.351 1472.69 Q762.249 1475.88 756.601 1481.64 Z" fill="#000000" fill-rule="nonzero" fill-opacity="1" /><path clip-path="url(#clip630)" d="M1018.13 1466.95 Q1021.48 1467.66 1023.36 1469.93 Q1025.26 1472.2 1025.26 1475.53 Q1025.26 1480.65 1021.74 1483.45 Q1018.22 1486.25 1011.74 1486.25 Q1009.56 1486.25 1007.25 1485.81 Q1004.96 1485.39 1002.5 1484.54 L1002.5 1480.02 Q1004.45 1481.16 1006.76 1481.74 Q1009.08 1482.32 1011.6 1482.32 Q1016 1482.32 1018.29 1480.58 Q1020.6 1478.84 1020.6 1475.53 Q1020.6 1472.48 1018.45 1470.77 Q1016.32 1469.03 1012.5 1469.03 L1008.47 1469.03 L1008.47 1465.19 L1012.69 1465.19 Q1016.14 1465.19 1017.96 1463.82 Q1019.79 1462.43 1019.79 1459.84 Q1019.79 1457.18 1017.9 1455.77 Q1016.02 1454.33 1012.5 1454.33 Q1010.58 1454.33 1008.38 1454.75 Q1006.18 1455.16 1003.54 1456.04 L1003.54 1451.88 Q1006.21 1451.14 1008.52 1450.77 Q1010.86 1450.39 1012.92 1450.39 Q1018.24 1450.39 1021.34 1452.83 Q1024.45 1455.23 1024.45 1459.35 Q1024.45 1462.22 1022.8 1464.21 Q1021.16 1466.18 1018.13 1466.95 Z" fill="#000000" fill-rule="nonzero" fill-opacity="1" /><path clip-path="url(#clip630)" d="M556.54 1520.52 L596.74 1520.52 L596.74 1525.93 L579.871 1525.93 L579.871 1568.04 L573.409 1568.04 L573.409 1525.93 L556.54 1525.93 L556.54 1520.52 Z" fill="#000000" fill-rule="nonzero" fill-opacity="1" /><path clip-path="url(#clip630)" d="M600.687 1532.4 L606.543 1532.4 L606.543 1568.04 L600.687 1568.04 L600.687 1532.4 M600.687 1518.52 L606.543 1518.52 L606.543 1525.93 L600.687 1525.93 L600.687 1518.52 Z" fill="#000000" fill-rule="nonzero" fill-opacity="1" /><path clip-path="url(#clip630)" d="M646.551 1539.24 Q648.748 1535.29 651.803 1533.41 Q654.859 1531.54 658.996 1531.54 Q664.566 1531.54 667.59 1535.45 Q670.614 1539.33 670.614 1546.53 L670.614 1568.04 L664.726 1568.04 L664.726 1546.72 Q664.726 1541.59 662.911 1539.11 Q661.097 1536.63 657.373 1536.63 Q652.822 1536.63 650.18 1539.65 Q647.538 1542.68 647.538 1547.9 L647.538 1568.04 L641.65 1568.04 L641.65 1546.72 Q641.65 1541.56 639.836 1539.11 Q638.021 1536.63 634.234 1536.63 Q629.746 1536.63 627.104 1539.68 Q624.462 1542.71 624.462 1547.9 L624.462 1568.04 L618.574 1568.04 L618.574 1532.4 L624.462 1532.4 L624.462 1537.93 Q626.468 1534.66 629.269 1533.1 Q632.069 1531.54 635.921 1531.54 Q639.804 1531.54 642.509 1533.51 Q645.246 1535.48 646.551 1539.24 Z" fill="#000000" fill-rule="nonzero" fill-opacity="1" /><path clip-path="url(#clip630)" d="M712.787 1548.76 L712.787 1551.62 L685.86 1551.62 Q686.242 1557.67 689.488 1560.85 Q692.766 1564 698.591 1564 Q701.965 1564 705.116 1563.17 Q708.299 1562.35 711.418 1560.69 L711.418 1566.23 Q708.267 1567.57 704.957 1568.27 Q701.647 1568.97 698.241 1568.97 Q689.711 1568.97 684.714 1564 Q679.749 1559.04 679.749 1550.57 Q679.749 1541.82 684.459 1536.69 Q689.202 1531.54 697.222 1531.54 Q704.416 1531.54 708.585 1536.18 Q712.787 1540.8 712.787 1548.76 M706.93 1547.04 Q706.867 1542.23 704.225 1539.37 Q701.615 1536.5 697.286 1536.5 Q692.385 1536.5 689.424 1539.27 Q686.496 1542.04 686.051 1547.07 L706.93 1547.04 Z" fill="#000000" fill-rule="nonzero" fill-opacity="1" /><path clip-path="url(#clip630)" d="M757.187 1518.58 Q752.922 1525.9 750.854 1533.06 Q748.785 1540.23 748.785 1547.58 Q748.785 1554.93 750.854 1562.16 Q752.954 1569.35 757.187 1576.64 L752.095 1576.64 Q747.321 1569.16 744.933 1561.93 Q742.578 1554.71 742.578 1547.58 Q742.578 1540.48 744.933 1533.29 Q747.289 1526.09 752.095 1518.58 L757.187 1518.58 Z" fill="#000000" fill-rule="nonzero" fill-opacity="1" /><path clip-path="url(#clip630)" d="M791.276 1533.45 L791.276 1538.98 Q788.793 1537.71 786.12 1537.07 Q783.446 1536.44 780.581 1536.44 Q776.221 1536.44 774.025 1537.77 Q771.86 1539.11 771.86 1541.79 Q771.86 1543.82 773.42 1545 Q774.98 1546.15 779.69 1547.2 L781.695 1547.64 Q787.934 1548.98 790.544 1551.43 Q793.186 1553.85 793.186 1558.21 Q793.186 1563.17 789.239 1566.07 Q785.324 1568.97 778.449 1568.97 Q775.584 1568.97 772.465 1568.39 Q769.378 1567.85 765.94 1566.74 L765.94 1560.69 Q769.187 1562.38 772.338 1563.24 Q775.489 1564.07 778.576 1564.07 Q782.714 1564.07 784.942 1562.66 Q787.17 1561.23 787.17 1558.65 Q787.17 1556.27 785.547 1554.99 Q783.955 1553.72 778.513 1552.54 L776.476 1552.07 Q771.033 1550.92 768.614 1548.56 Q766.195 1546.18 766.195 1542.04 Q766.195 1537.01 769.76 1534.27 Q773.325 1531.54 779.881 1531.54 Q783.128 1531.54 785.992 1532.01 Q788.857 1532.49 791.276 1533.45 Z" fill="#000000" fill-rule="nonzero" fill-opacity="1" /><path clip-path="url(#clip630)" d="M801.588 1518.58 L806.681 1518.58 Q811.455 1526.09 813.81 1533.29 Q816.198 1540.48 816.198 1547.58 Q816.198 1554.71 813.81 1561.93 Q811.455 1569.16 806.681 1576.64 L801.588 1576.64 Q805.821 1569.35 807.89 1562.16 Q809.991 1554.93 809.991 1547.58 Q809.991 1540.23 807.89 1533.06 Q805.821 1525.9 801.588 1518.58 Z" fill="#000000" fill-rule="nonzero" fill-opacity="1" /><polyline clip-path="url(#clip633)" style="stroke:#000000; stroke-linecap:round; stroke-linejoin:round; stroke-width:2; stroke-opacity:0.1; fill:none" points="232.389,1392.17 1140.35,1392.17 "/>
<polyline clip-path="url(#clip633)" style="stroke:#000000; stroke-linecap:round; stroke-linejoin:round; stroke-width:2; stroke-opacity:0.1; fill:none" points="232.389,1280.07 1140.35,1280.07 "/>
<polyline clip-path="url(#clip633)" style="stroke:#000000; stroke-linecap:round; stroke-linejoin:round; stroke-width:2; stroke-opacity:0.1; fill:none" points="232.389,1167.96 1140.35,1167.96 "/>
<polyline clip-path="url(#clip633)" style="stroke:#000000; stroke-linecap:round; stroke-linejoin:round; stroke-width:2; stroke-opacity:0.1; fill:none" points="232.389,1055.86 1140.35,1055.86 "/>
<polyline clip-path="url(#clip633)" style="stroke:#000000; stroke-linecap:round; stroke-linejoin:round; stroke-width:2; stroke-opacity:0.1; fill:none" points="232.389,943.757 1140.35,943.757 "/>
<polyline clip-path="url(#clip630)" style="stroke:#000000; stroke-linecap:round; stroke-linejoin:round; stroke-width:4; stroke-opacity:1; fill:none" points="232.389,1423.18 232.389,847.244 "/>
<polyline clip-path="url(#clip630)" style="stroke:#000000; stroke-linecap:round; stroke-linejoin:round; stroke-width:4; stroke-opacity:1; fill:none" points="232.389,1392.17 251.287,1392.17 "/>
<polyline clip-path="url(#clip630)" style="stroke:#000000; stroke-linecap:round; stroke-linejoin:round; stroke-width:4; stroke-opacity:1; fill:none" points="232.389,1280.07 251.287,1280.07 "/>
<polyline clip-path="url(#clip630)" style="stroke:#000000; stroke-linecap:round; stroke-linejoin:round; stroke-width:4; stroke-opacity:1; fill:none" points="232.389,1167.96 251.287,1167.96 "/>
<polyline clip-path="url(#clip630)" style="stroke:#000000; stroke-linecap:round; stroke-linejoin:round; stroke-width:4; stroke-opacity:1; fill:none" points="232.389,1055.86 251.287,1055.86 "/>
<polyline clip-path="url(#clip630)" style="stroke:#000000; stroke-linecap:round; stroke-linejoin:round; stroke-width:4; stroke-opacity:1; fill:none" points="232.389,943.757 251.287,943.757 "/>
<path clip-path="url(#clip630)" d="M184.445 1377.97 Q180.834 1377.97 179.005 1381.53 Q177.2 1385.08 177.2 1392.2 Q177.2 1399.31 179.005 1402.88 Q180.834 1406.42 184.445 1406.42 Q188.079 1406.42 189.885 1402.88 Q191.713 1399.31 191.713 1392.2 Q191.713 1385.08 189.885 1381.53 Q188.079 1377.97 184.445 1377.97 M184.445 1374.27 Q190.255 1374.27 193.311 1378.87 Q196.389 1383.45 196.389 1392.2 Q196.389 1400.93 193.311 1405.54 Q190.255 1410.12 184.445 1410.12 Q178.635 1410.12 175.556 1405.54 Q172.501 1400.93 172.501 1392.2 Q172.501 1383.45 175.556 1378.87 Q178.635 1374.27 184.445 1374.27 Z" fill="#000000" fill-rule="nonzero" fill-opacity="1" /><path clip-path="url(#clip630)" d="M176.482 1293.41 L184.121 1293.41 L184.121 1267.05 L175.811 1268.71 L175.811 1264.45 L184.075 1262.79 L188.75 1262.79 L188.75 1293.41 L196.389 1293.41 L196.389 1297.35 L176.482 1297.35 L176.482 1293.41 Z" fill="#000000" fill-rule="nonzero" fill-opacity="1" /><path clip-path="url(#clip630)" d="M180.07 1181.31 L196.389 1181.31 L196.389 1185.24 L174.445 1185.24 L174.445 1181.31 Q177.107 1178.55 181.69 1173.92 Q186.297 1169.27 187.477 1167.93 Q189.723 1165.41 190.602 1163.67 Q191.505 1161.91 191.505 1160.22 Q191.505 1157.47 189.561 1155.73 Q187.639 1153.99 184.538 1153.99 Q182.338 1153.99 179.885 1154.76 Q177.454 1155.52 174.677 1157.07 L174.677 1152.35 Q177.501 1151.22 179.954 1150.64 Q182.408 1150.06 184.445 1150.06 Q189.815 1150.06 193.01 1152.74 Q196.204 1155.43 196.204 1159.92 Q196.204 1162.05 195.394 1163.97 Q194.607 1165.87 192.5 1168.46 Q191.922 1169.13 188.82 1172.35 Q185.718 1175.54 180.07 1181.31 Z" fill="#000000" fill-rule="nonzero" fill-opacity="1" /><path clip-path="url(#clip630)" d="M189.26 1054.51 Q192.616 1055.22 194.491 1057.49 Q196.389 1059.76 196.389 1063.09 Q196.389 1068.21 192.871 1071.01 Q189.352 1073.81 182.871 1073.81 Q180.695 1073.81 178.38 1073.37 Q176.089 1072.96 173.635 1072.1 L173.635 1067.58 Q175.579 1068.72 177.894 1069.3 Q180.209 1069.88 182.732 1069.88 Q187.13 1069.88 189.422 1068.14 Q191.737 1066.4 191.737 1063.09 Q191.737 1060.04 189.584 1058.33 Q187.454 1056.59 183.635 1056.59 L179.607 1056.59 L179.607 1052.75 L183.82 1052.75 Q187.269 1052.75 189.098 1051.38 Q190.926 1049.99 190.926 1047.4 Q190.926 1044.74 189.028 1043.33 Q187.153 1041.89 183.635 1041.89 Q181.713 1041.89 179.514 1042.31 Q177.315 1042.72 174.677 1043.6 L174.677 1039.44 Q177.339 1038.7 179.653 1038.33 Q181.991 1037.96 184.051 1037.96 Q189.375 1037.96 192.477 1040.39 Q195.579 1042.79 195.579 1046.91 Q195.579 1049.78 193.936 1051.77 Q192.292 1053.74 189.26 1054.51 Z" fill="#000000" fill-rule="nonzero" fill-opacity="1" /><path clip-path="url(#clip630)" d="M186.806 930.551 L175.001 949 L186.806 949 L186.806 930.551 M185.579 926.477 L191.459 926.477 L191.459 949 L196.389 949 L196.389 952.889 L191.459 952.889 L191.459 961.037 L186.806 961.037 L186.806 952.889 L171.204 952.889 L171.204 948.375 L185.579 926.477 Z" fill="#000000" fill-rule="nonzero" fill-opacity="1" /><path clip-path="url(#clip630)" d="M78.662 1136.02 Q79.1128 1136.02 80.1756 1136.3 L105.361 1142.62 Q110.964 1144 114.894 1148.51 Q118.823 1152.99 118.823 1158.08 Q118.823 1161.14 117.18 1163.1 Q115.57 1165.06 113.09 1165.06 Q110.9 1165.06 109.837 1163.91 Q108.807 1162.75 108.807 1161.36 Q108.807 1160.91 108.935 1160.43 Q109.064 1159.94 109.612 1159.43 Q110.159 1158.91 111.093 1158.91 Q112.607 1158.91 113.799 1160.23 Q114.346 1160.88 114.475 1161.49 Q114.604 1162.07 114.604 1163.07 Q115.505 1162.68 116.117 1161.97 Q116.729 1161.26 116.955 1160.46 Q117.212 1159.65 117.277 1159.14 Q117.373 1158.59 117.373 1158.08 Q117.373 1153.95 113.219 1150.8 Q111.963 1149.86 110.707 1149.19 Q109.483 1148.48 107.969 1147.96 Q106.488 1147.45 105.683 1147.22 Q104.878 1146.97 103.042 1146.51 Q106.037 1149.51 106.037 1153.18 Q106.037 1154.73 105.618 1156.11 Q105.2 1157.46 104.33 1158.66 Q103.428 1159.85 101.85 1160.56 Q100.272 1161.23 98.1787 1161.23 Q95.9565 1161.23 92.9292 1160.36 Q89.9018 1159.49 84.3302 1157.4 Q81.2062 1156.27 79.6925 1156.27 Q78.9518 1156.27 78.5009 1156.43 Q78.0178 1156.59 77.8568 1156.92 Q77.6636 1157.24 77.6314 1157.43 Q77.5992 1157.59 77.5992 1157.92 Q77.5992 1159.82 79.5315 1161.59 Q81.4639 1163.36 85.7795 1164.58 Q86.5846 1164.84 86.7778 1165 Q86.9711 1165.16 86.9711 1165.64 Q86.9389 1166.45 86.2947 1166.45 Q86.0371 1166.45 85.0387 1166.16 Q84.0081 1165.87 82.4945 1165.19 Q80.9486 1164.49 79.5637 1163.52 Q78.1467 1162.55 77.1483 1161.04 Q76.1499 1159.49 76.1499 1157.72 Q76.1499 1155.31 77.728 1153.82 Q79.2739 1152.31 81.5605 1152.31 Q82.4945 1152.31 83.3318 1152.57 Q84.137 1152.79 86.2947 1153.63 Q94.9903 1157.01 99.2415 1157.01 Q100.272 1157.01 101.142 1156.85 Q101.979 1156.66 102.816 1156.24 Q103.621 1155.82 104.105 1154.98 Q104.555 1154.11 104.555 1152.92 Q104.555 1151.41 103.847 1149.99 Q103.106 1148.54 102.108 1147.64 Q101.109 1146.71 100.272 1146.16 Q99.4025 1145.58 98.9516 1145.45 L87.0999 1142.49 L81.8181 1141.17 Q78.9518 1140.56 78.2433 1140.27 Q77.567 1139.88 77.2127 1139.2 Q76.8584 1138.53 76.8584 1137.95 Q76.8584 1137.14 77.3415 1136.59 Q77.8246 1136.02 78.662 1136.02 Z" fill="#000000" fill-rule="nonzero" fill-opacity="1" /><path clip-path="url(#clip630)" d="M136.963 1129.27 Q136.129 1129.27 135.881 1129.2 Q135.633 1129.11 135.25 1128.75 L125.376 1119.89 Q119.92 1115.04 115.163 1115.04 Q112.075 1115.04 109.865 1116.67 Q107.656 1118.27 107.656 1121.22 Q107.656 1123.25 108.896 1124.96 Q110.136 1126.68 112.345 1127.47 Q112.3 1127.33 112.3 1126.86 Q112.3 1125.71 113.022 1125.08 Q113.743 1124.42 114.712 1124.42 Q115.952 1124.42 116.561 1125.23 Q117.147 1126.02 117.147 1126.81 Q117.147 1127.13 117.079 1127.56 Q117.012 1127.96 116.381 1128.62 Q115.727 1129.27 114.577 1129.27 Q111.353 1129.27 108.783 1126.83 Q106.213 1124.38 106.213 1120.63 Q106.213 1116.4 108.738 1113.62 Q111.241 1110.83 115.163 1110.83 Q116.538 1110.83 117.801 1111.26 Q119.041 1111.66 120.01 1112.23 Q120.98 1112.77 122.535 1114.25 Q124.091 1115.74 125.195 1116.94 Q126.3 1118.13 128.645 1120.81 L133.401 1125.71 L133.401 1117.39 Q133.401 1113.33 133.041 1113.01 Q132.387 1112.56 128.938 1112 L128.938 1110.83 L136.963 1112.14 L136.963 1129.27 Z" fill="#000000" fill-rule="nonzero" fill-opacity="1" /><polyline clip-path="url(#clip633)" style="stroke:#009af9; stroke-linecap:round; stroke-linejoin:round; stroke-width:4; stroke-opacity:1; fill:none" points="258.086,1392.17 283.279,1041.85 308.473,866.686 333.666,863.544 358.859,970.936 384.052,1092.11 409.245,1166.01 434.438,1189.01 459.631,1177.63 484.824,1143.15 510.017,1088.12 535.21,1289.4 560.403,1322.68 585.597,1351.83 610.79,1329.4 635.983,1376.16 661.176,1381 686.369,1401.63 711.562,1392.94 736.755,1404.78 761.948,1400.7 787.141,1406.88 812.334,1401.46 837.528,1403.85 862.721,1399.8 887.914,1400.82 913.107,1397.56 938.3,1397.74 963.493,1395.41 988.686,1395.42 1013.88,1393.84 1039.07,1393.81 1064.27,1392.8 1089.46,1392.82 1114.65,1392.22 "/>
<path clip-path="url(#clip630)" d="M1444.8 1423.18 L2352.76 1423.18 L2352.76 47.2441 L1444.8 47.2441  Z" fill="#ffffff" fill-rule="evenodd" fill-opacity="1"/>
<defs>
  <clipPath id="clip634">
    <rect x="1444" y="47" width="909" height="1377"/>
  </clipPath>
</defs>
<polyline clip-path="url(#clip634)" style="stroke:#000000; stroke-linecap:round; stroke-linejoin:round; stroke-width:2; stroke-opacity:0.1; fill:none" points="1470.49,1423.18 1470.49,47.2441 "/>
<polyline clip-path="url(#clip634)" style="stroke:#000000; stroke-linecap:round; stroke-linejoin:round; stroke-width:2; stroke-opacity:0.1; fill:none" points="1722.42,1423.18 1722.42,47.2441 "/>
<polyline clip-path="url(#clip634)" style="stroke:#000000; stroke-linecap:round; stroke-linejoin:round; stroke-width:2; stroke-opacity:0.1; fill:none" points="1974.36,1423.18 1974.36,47.2441 "/>
<polyline clip-path="url(#clip634)" style="stroke:#000000; stroke-linecap:round; stroke-linejoin:round; stroke-width:2; stroke-opacity:0.1; fill:none" points="2226.29,1423.18 2226.29,47.2441 "/>
<polyline clip-path="url(#clip630)" style="stroke:#000000; stroke-linecap:round; stroke-linejoin:round; stroke-width:4; stroke-opacity:1; fill:none" points="1444.8,1423.18 2352.76,1423.18 "/>
<polyline clip-path="url(#clip630)" style="stroke:#000000; stroke-linecap:round; stroke-linejoin:round; stroke-width:4; stroke-opacity:1; fill:none" points="1470.49,1423.18 1470.49,1404.28 "/>
<polyline clip-path="url(#clip630)" style="stroke:#000000; stroke-linecap:round; stroke-linejoin:round; stroke-width:4; stroke-opacity:1; fill:none" points="1722.42,1423.18 1722.42,1404.28 "/>
<polyline clip-path="url(#clip630)" style="stroke:#000000; stroke-linecap:round; stroke-linejoin:round; stroke-width:4; stroke-opacity:1; fill:none" points="1974.36,1423.18 1974.36,1404.28 "/>
<polyline clip-path="url(#clip630)" style="stroke:#000000; stroke-linecap:round; stroke-linejoin:round; stroke-width:4; stroke-opacity:1; fill:none" points="2226.29,1423.18 2226.29,1404.28 "/>
<path clip-path="url(#clip630)" d="M1470.49 1454.1 Q1466.88 1454.1 1465.05 1457.66 Q1463.25 1461.2 1463.25 1468.33 Q1463.25 1475.44 1465.05 1479.01 Q1466.88 1482.55 1470.49 1482.55 Q1474.13 1482.55 1475.93 1479.01 Q1477.76 1475.44 1477.76 1468.33 Q1477.76 1461.2 1475.93 1457.66 Q1474.13 1454.1 1470.49 1454.1 M1470.49 1450.39 Q1476.3 1450.39 1479.36 1455 Q1482.44 1459.58 1482.44 1468.33 Q1482.44 1477.06 1479.36 1481.67 Q1476.3 1486.25 1470.49 1486.25 Q1464.68 1486.25 1461.6 1481.67 Q1458.55 1477.06 1458.55 1468.33 Q1458.55 1459.58 1461.6 1455 Q1464.68 1450.39 1470.49 1450.39 Z" fill="#000000" fill-rule="nonzero" fill-opacity="1" /><path clip-path="url(#clip630)" d="M1712.81 1481.64 L1720.45 1481.64 L1720.45 1455.28 L1712.14 1456.95 L1712.14 1452.69 L1720.4 1451.02 L1725.08 1451.02 L1725.08 1481.64 L1732.71 1481.64 L1732.71 1485.58 L1712.81 1485.58 L1712.81 1481.64 Z" fill="#000000" fill-rule="nonzero" fill-opacity="1" /><path clip-path="url(#clip630)" d="M1969.01 1481.64 L1985.33 1481.64 L1985.33 1485.58 L1963.38 1485.58 L1963.38 1481.64 Q1966.05 1478.89 1970.63 1474.26 Q1975.24 1469.61 1976.42 1468.27 Q1978.66 1465.74 1979.54 1464.01 Q1980.44 1462.25 1980.44 1460.56 Q1980.44 1457.8 1978.5 1456.07 Q1976.58 1454.33 1973.48 1454.33 Q1971.28 1454.33 1968.82 1455.09 Q1966.39 1455.86 1963.61 1457.41 L1963.61 1452.69 Q1966.44 1451.55 1968.89 1450.97 Q1971.35 1450.39 1973.38 1450.39 Q1978.75 1450.39 1981.95 1453.08 Q1985.14 1455.77 1985.14 1460.26 Q1985.14 1462.39 1984.33 1464.31 Q1983.55 1466.2 1981.44 1468.8 Q1980.86 1469.47 1977.76 1472.69 Q1974.66 1475.88 1969.01 1481.64 Z" fill="#000000" fill-rule="nonzero" fill-opacity="1" /><path clip-path="url(#clip630)" d="M2230.53 1466.95 Q2233.89 1467.66 2235.77 1469.93 Q2237.66 1472.2 2237.66 1475.53 Q2237.66 1480.65 2234.15 1483.45 Q2230.63 1486.25 2224.15 1486.25 Q2221.97 1486.25 2219.65 1485.81 Q2217.36 1485.39 2214.91 1484.54 L2214.91 1480.02 Q2216.85 1481.16 2219.17 1481.74 Q2221.48 1482.32 2224.01 1482.32 Q2228.4 1482.32 2230.7 1480.58 Q2233.01 1478.84 2233.01 1475.53 Q2233.01 1472.48 2230.86 1470.77 Q2228.73 1469.03 2224.91 1469.03 L2220.88 1469.03 L2220.88 1465.19 L2225.09 1465.19 Q2228.54 1465.19 2230.37 1463.82 Q2232.2 1462.43 2232.2 1459.84 Q2232.2 1457.18 2230.3 1455.77 Q2228.43 1454.33 2224.91 1454.33 Q2222.99 1454.33 2220.79 1454.75 Q2218.59 1455.16 2215.95 1456.04 L2215.95 1451.88 Q2218.61 1451.14 2220.93 1450.77 Q2223.27 1450.39 2225.33 1450.39 Q2230.65 1450.39 2233.75 1452.83 Q2236.85 1455.23 2236.85 1459.35 Q2236.85 1462.22 2235.21 1464.21 Q2233.57 1466.18 2230.53 1466.95 Z" fill="#000000" fill-rule="nonzero" fill-opacity="1" /><path clip-path="url(#clip630)" d="M1768.95 1520.52 L1809.15 1520.52 L1809.15 1525.93 L1792.28 1525.93 L1792.28 1568.04 L1785.82 1568.04 L1785.82 1525.93 L1768.95 1525.93 L1768.95 1520.52 Z" fill="#000000" fill-rule="nonzero" fill-opacity="1" /><path clip-path="url(#clip630)" d="M1813.09 1532.4 L1818.95 1532.4 L1818.95 1568.04 L1813.09 1568.04 L1813.09 1532.4 M1813.09 1518.52 L1818.95 1518.52 L1818.95 1525.93 L1813.09 1525.93 L1813.09 1518.52 Z" fill="#000000" fill-rule="nonzero" fill-opacity="1" /><path clip-path="url(#clip630)" d="M1858.96 1539.24 Q1861.15 1535.29 1864.21 1533.41 Q1867.27 1531.54 1871.4 1531.54 Q1876.97 1531.54 1880 1535.45 Q1883.02 1539.33 1883.02 1546.53 L1883.02 1568.04 L1877.13 1568.04 L1877.13 1546.72 Q1877.13 1541.59 1875.32 1539.11 Q1873.5 1536.63 1869.78 1536.63 Q1865.23 1536.63 1862.59 1539.65 Q1859.95 1542.68 1859.95 1547.9 L1859.95 1568.04 L1854.06 1568.04 L1854.06 1546.72 Q1854.06 1541.56 1852.24 1539.11 Q1850.43 1536.63 1846.64 1536.63 Q1842.15 1536.63 1839.51 1539.68 Q1836.87 1542.71 1836.87 1547.9 L1836.87 1568.04 L1830.98 1568.04 L1830.98 1532.4 L1836.87 1532.4 L1836.87 1537.93 Q1838.87 1534.66 1841.68 1533.1 Q1844.48 1531.54 1848.33 1531.54 Q1852.21 1531.54 1854.92 1533.51 Q1857.65 1535.48 1858.96 1539.24 Z" fill="#000000" fill-rule="nonzero" fill-opacity="1" /><path clip-path="url(#clip630)" d="M1925.19 1548.76 L1925.19 1551.62 L1898.27 1551.62 Q1898.65 1557.67 1901.9 1560.85 Q1905.17 1564 1911 1564 Q1914.37 1564 1917.52 1563.17 Q1920.71 1562.35 1923.83 1560.69 L1923.83 1566.23 Q1920.67 1567.57 1917.36 1568.27 Q1914.05 1568.97 1910.65 1568.97 Q1902.12 1568.97 1897.12 1564 Q1892.16 1559.04 1892.16 1550.57 Q1892.16 1541.82 1896.87 1536.69 Q1901.61 1531.54 1909.63 1531.54 Q1916.82 1531.54 1920.99 1536.18 Q1925.19 1540.8 1925.19 1548.76 M1919.34 1547.04 Q1919.27 1542.23 1916.63 1539.37 Q1914.02 1536.5 1909.69 1536.5 Q1904.79 1536.5 1901.83 1539.27 Q1898.9 1542.04 1898.46 1547.07 L1919.34 1547.04 Z" fill="#000000" fill-rule="nonzero" fill-opacity="1" /><path clip-path="url(#clip630)" d="M1969.59 1518.58 Q1965.33 1525.9 1963.26 1533.06 Q1961.19 1540.23 1961.19 1547.58 Q1961.19 1554.93 1963.26 1562.16 Q1965.36 1569.35 1969.59 1576.64 L1964.5 1576.64 Q1959.73 1569.16 1957.34 1561.93 Q1954.99 1554.71 1954.99 1547.58 Q1954.99 1540.48 1957.34 1533.29 Q1959.7 1526.09 1964.5 1518.58 L1969.59 1518.58 Z" fill="#000000" fill-rule="nonzero" fill-opacity="1" /><path clip-path="url(#clip630)" d="M2003.68 1533.45 L2003.68 1538.98 Q2001.2 1537.71 1998.53 1537.07 Q1995.85 1536.44 1992.99 1536.44 Q1988.63 1536.44 1986.43 1537.77 Q1984.27 1539.11 1984.27 1541.79 Q1984.27 1543.82 1985.83 1545 Q1987.39 1546.15 1992.1 1547.2 L1994.1 1547.64 Q2000.34 1548.98 2002.95 1551.43 Q2005.59 1553.85 2005.59 1558.21 Q2005.59 1563.17 2001.65 1566.07 Q1997.73 1568.97 1990.86 1568.97 Q1987.99 1568.97 1984.87 1568.39 Q1981.79 1567.85 1978.35 1566.74 L1978.35 1560.69 Q1981.59 1562.38 1984.75 1563.24 Q1987.9 1564.07 1990.98 1564.07 Q1995.12 1564.07 1997.35 1562.66 Q1999.58 1561.23 1999.58 1558.65 Q1999.58 1556.27 1997.95 1554.99 Q1996.36 1553.72 1990.92 1552.54 L1988.88 1552.07 Q1983.44 1550.92 1981.02 1548.56 Q1978.6 1546.18 1978.6 1542.04 Q1978.6 1537.01 1982.17 1534.27 Q1985.73 1531.54 1992.29 1531.54 Q1995.54 1531.54 1998.4 1532.01 Q2001.26 1532.49 2003.68 1533.45 Z" fill="#000000" fill-rule="nonzero" fill-opacity="1" /><path clip-path="url(#clip630)" d="M2014 1518.58 L2019.09 1518.58 Q2023.86 1526.09 2026.22 1533.29 Q2028.6 1540.48 2028.6 1547.58 Q2028.6 1554.71 2026.22 1561.93 Q2023.86 1569.16 2019.09 1576.64 L2014 1576.64 Q2018.23 1569.35 2020.3 1562.16 Q2022.4 1554.93 2022.4 1547.58 Q2022.4 1540.23 2020.3 1533.06 Q2018.23 1525.9 2014 1518.58 Z" fill="#000000" fill-rule="nonzero" fill-opacity="1" /><polyline clip-path="url(#clip634)" style="stroke:#000000; stroke-linecap:round; stroke-linejoin:round; stroke-width:2; stroke-opacity:0.1; fill:none" points="1444.8,1384.24 2352.76,1384.24 "/>
<polyline clip-path="url(#clip634)" style="stroke:#000000; stroke-linecap:round; stroke-linejoin:round; stroke-width:2; stroke-opacity:0.1; fill:none" points="1444.8,1167.9 2352.76,1167.9 "/>
<polyline clip-path="url(#clip634)" style="stroke:#000000; stroke-linecap:round; stroke-linejoin:round; stroke-width:2; stroke-opacity:0.1; fill:none" points="1444.8,951.554 2352.76,951.554 "/>
<polyline clip-path="url(#clip634)" style="stroke:#000000; stroke-linecap:round; stroke-linejoin:round; stroke-width:2; stroke-opacity:0.1; fill:none" points="1444.8,735.212 2352.76,735.212 "/>
<polyline clip-path="url(#clip634)" style="stroke:#000000; stroke-linecap:round; stroke-linejoin:round; stroke-width:2; stroke-opacity:0.1; fill:none" points="1444.8,518.87 2352.76,518.87 "/>
<polyline clip-path="url(#clip634)" style="stroke:#000000; stroke-linecap:round; stroke-linejoin:round; stroke-width:2; stroke-opacity:0.1; fill:none" points="1444.8,302.528 2352.76,302.528 "/>
<polyline clip-path="url(#clip634)" style="stroke:#000000; stroke-linecap:round; stroke-linejoin:round; stroke-width:2; stroke-opacity:0.1; fill:none" points="1444.8,86.1857 2352.76,86.1857 "/>
<polyline clip-path="url(#clip630)" style="stroke:#000000; stroke-linecap:round; stroke-linejoin:round; stroke-width:4; stroke-opacity:1; fill:none" points="1444.8,1423.18 1444.8,47.2441 "/>
<polyline clip-path="url(#clip630)" style="stroke:#000000; stroke-linecap:round; stroke-linejoin:round; stroke-width:4; stroke-opacity:1; fill:none" points="1444.8,1384.24 1463.69,1384.24 "/>
<polyline clip-path="url(#clip630)" style="stroke:#000000; stroke-linecap:round; stroke-linejoin:round; stroke-width:4; stroke-opacity:1; fill:none" points="1444.8,1167.9 1463.69,1167.9 "/>
<polyline clip-path="url(#clip630)" style="stroke:#000000; stroke-linecap:round; stroke-linejoin:round; stroke-width:4; stroke-opacity:1; fill:none" points="1444.8,951.554 1463.69,951.554 "/>
<polyline clip-path="url(#clip630)" style="stroke:#000000; stroke-linecap:round; stroke-linejoin:round; stroke-width:4; stroke-opacity:1; fill:none" points="1444.8,735.212 1463.69,735.212 "/>
<polyline clip-path="url(#clip630)" style="stroke:#000000; stroke-linecap:round; stroke-linejoin:round; stroke-width:4; stroke-opacity:1; fill:none" points="1444.8,518.87 1463.69,518.87 "/>
<polyline clip-path="url(#clip630)" style="stroke:#000000; stroke-linecap:round; stroke-linejoin:round; stroke-width:4; stroke-opacity:1; fill:none" points="1444.8,302.528 1463.69,302.528 "/>
<polyline clip-path="url(#clip630)" style="stroke:#000000; stroke-linecap:round; stroke-linejoin:round; stroke-width:4; stroke-opacity:1; fill:none" points="1444.8,86.1857 1463.69,86.1857 "/>
<path clip-path="url(#clip630)" d="M1302.85 1384.69 L1332.52 1384.69 L1332.52 1388.62 L1302.85 1388.62 L1302.85 1384.69 Z" fill="#000000" fill-rule="nonzero" fill-opacity="1" /><path clip-path="url(#clip630)" d="M1343.43 1397.58 L1351.07 1397.58 L1351.07 1371.22 L1342.76 1372.88 L1342.76 1368.62 L1351.02 1366.96 L1355.7 1366.96 L1355.7 1397.58 L1363.33 1397.58 L1363.33 1401.52 L1343.43 1401.52 L1343.43 1397.58 Z" fill="#000000" fill-rule="nonzero" fill-opacity="1" /><path clip-path="url(#clip630)" d="M1372.78 1395.64 L1377.66 1395.64 L1377.66 1401.52 L1372.78 1401.52 L1372.78 1395.64 Z" fill="#000000" fill-rule="nonzero" fill-opacity="1" /><path clip-path="url(#clip630)" d="M1387.89 1366.96 L1406.25 1366.96 L1406.25 1370.89 L1392.18 1370.89 L1392.18 1379.37 Q1393.19 1379.02 1394.21 1378.86 Q1395.23 1378.67 1396.25 1378.67 Q1402.04 1378.67 1405.42 1381.84 Q1408.8 1385.01 1408.8 1390.43 Q1408.8 1396.01 1405.32 1399.11 Q1401.85 1402.19 1395.53 1402.19 Q1393.36 1402.19 1391.09 1401.82 Q1388.84 1401.45 1386.44 1400.71 L1386.44 1396.01 Q1388.52 1397.14 1390.74 1397.7 Q1392.96 1398.25 1395.44 1398.25 Q1399.44 1398.25 1401.78 1396.15 Q1404.12 1394.04 1404.12 1390.43 Q1404.12 1386.82 1401.78 1384.71 Q1399.44 1382.61 1395.44 1382.61 Q1393.57 1382.61 1391.69 1383.02 Q1389.84 1383.44 1387.89 1384.32 L1387.89 1366.96 Z" fill="#000000" fill-rule="nonzero" fill-opacity="1" /><path clip-path="url(#clip630)" d="M1301.85 1168.35 L1331.53 1168.35 L1331.53 1172.28 L1301.85 1172.28 L1301.85 1168.35 Z" fill="#000000" fill-rule="nonzero" fill-opacity="1" /><path clip-path="url(#clip630)" d="M1342.43 1181.24 L1350.07 1181.24 L1350.07 1154.88 L1341.76 1156.54 L1341.76 1152.28 L1350.02 1150.62 L1354.7 1150.62 L1354.7 1181.24 L1362.34 1181.24 L1362.34 1185.18 L1342.43 1185.18 L1342.43 1181.24 Z" fill="#000000" fill-rule="nonzero" fill-opacity="1" /><path clip-path="url(#clip630)" d="M1371.78 1179.3 L1376.67 1179.3 L1376.67 1185.18 L1371.78 1185.18 L1371.78 1179.3 Z" fill="#000000" fill-rule="nonzero" fill-opacity="1" /><path clip-path="url(#clip630)" d="M1396.85 1153.69 Q1393.24 1153.69 1391.41 1157.26 Q1389.61 1160.8 1389.61 1167.93 Q1389.61 1175.04 1391.41 1178.6 Q1393.24 1182.14 1396.85 1182.14 Q1400.49 1182.14 1402.29 1178.6 Q1404.12 1175.04 1404.12 1167.93 Q1404.12 1160.8 1402.29 1157.26 Q1400.49 1153.69 1396.85 1153.69 M1396.85 1149.99 Q1402.66 1149.99 1405.72 1154.6 Q1408.8 1159.18 1408.8 1167.93 Q1408.8 1176.66 1405.72 1181.26 Q1402.66 1185.85 1396.85 1185.85 Q1391.04 1185.85 1387.96 1181.26 Q1384.91 1176.66 1384.91 1167.93 Q1384.91 1159.18 1387.96 1154.6 Q1391.04 1149.99 1396.85 1149.99 Z" fill="#000000" fill-rule="nonzero" fill-opacity="1" /><path clip-path="url(#clip630)" d="M1302.85 952.005 L1332.52 952.005 L1332.52 955.941 L1302.85 955.941 L1302.85 952.005 Z" fill="#000000" fill-rule="nonzero" fill-opacity="1" /><path clip-path="url(#clip630)" d="M1352.62 937.353 Q1349.01 937.353 1347.18 940.918 Q1345.37 944.459 1345.37 951.589 Q1345.37 958.695 1347.18 962.26 Q1349.01 965.802 1352.62 965.802 Q1356.25 965.802 1358.06 962.26 Q1359.88 958.695 1359.88 951.589 Q1359.88 944.459 1358.06 940.918 Q1356.25 937.353 1352.62 937.353 M1352.62 933.649 Q1358.43 933.649 1361.48 938.256 Q1364.56 942.839 1364.56 951.589 Q1364.56 960.316 1361.48 964.922 Q1358.43 969.505 1352.62 969.505 Q1346.81 969.505 1343.73 964.922 Q1340.67 960.316 1340.67 951.589 Q1340.67 942.839 1343.73 938.256 Q1346.81 933.649 1352.62 933.649 Z" fill="#000000" fill-rule="nonzero" fill-opacity="1" /><path clip-path="url(#clip630)" d="M1372.78 962.954 L1377.66 962.954 L1377.66 968.834 L1372.78 968.834 L1372.78 962.954 Z" fill="#000000" fill-rule="nonzero" fill-opacity="1" /><path clip-path="url(#clip630)" d="M1387.89 934.274 L1406.25 934.274 L1406.25 938.209 L1392.18 938.209 L1392.18 946.681 Q1393.19 946.334 1394.21 946.172 Q1395.23 945.987 1396.25 945.987 Q1402.04 945.987 1405.42 949.158 Q1408.8 952.33 1408.8 957.746 Q1408.8 963.325 1405.32 966.427 Q1401.85 969.505 1395.53 969.505 Q1393.36 969.505 1391.09 969.135 Q1388.84 968.765 1386.44 968.024 L1386.44 963.325 Q1388.52 964.459 1390.74 965.015 Q1392.96 965.57 1395.44 965.57 Q1399.44 965.57 1401.78 963.464 Q1404.12 961.357 1404.12 957.746 Q1404.12 954.135 1401.78 952.029 Q1399.44 949.922 1395.44 949.922 Q1393.57 949.922 1391.69 950.339 Q1389.84 950.755 1387.89 951.635 L1387.89 934.274 Z" fill="#000000" fill-rule="nonzero" fill-opacity="1" /><path clip-path="url(#clip630)" d="M1351.62 721.011 Q1348.01 721.011 1346.18 724.575 Q1344.38 728.117 1344.38 735.247 Q1344.38 742.353 1346.18 745.918 Q1348.01 749.46 1351.62 749.46 Q1355.26 749.46 1357.06 745.918 Q1358.89 742.353 1358.89 735.247 Q1358.89 728.117 1357.06 724.575 Q1355.26 721.011 1351.62 721.011 M1351.62 717.307 Q1357.43 717.307 1360.49 721.913 Q1363.57 726.497 1363.57 735.247 Q1363.57 743.973 1360.49 748.58 Q1357.43 753.163 1351.62 753.163 Q1345.81 753.163 1342.73 748.58 Q1339.68 743.973 1339.68 735.247 Q1339.68 726.497 1342.73 721.913 Q1345.81 717.307 1351.62 717.307 Z" fill="#000000" fill-rule="nonzero" fill-opacity="1" /><path clip-path="url(#clip630)" d="M1371.78 746.612 L1376.67 746.612 L1376.67 752.492 L1371.78 752.492 L1371.78 746.612 Z" fill="#000000" fill-rule="nonzero" fill-opacity="1" /><path clip-path="url(#clip630)" d="M1396.85 721.011 Q1393.24 721.011 1391.41 724.575 Q1389.61 728.117 1389.61 735.247 Q1389.61 742.353 1391.41 745.918 Q1393.24 749.46 1396.85 749.46 Q1400.49 749.46 1402.29 745.918 Q1404.12 742.353 1404.12 735.247 Q1404.12 728.117 1402.29 724.575 Q1400.49 721.011 1396.85 721.011 M1396.85 717.307 Q1402.66 717.307 1405.72 721.913 Q1408.8 726.497 1408.8 735.247 Q1408.8 743.973 1405.72 748.58 Q1402.66 753.163 1396.85 753.163 Q1391.04 753.163 1387.96 748.58 Q1384.91 743.973 1384.91 735.247 Q1384.91 726.497 1387.96 721.913 Q1391.04 717.307 1396.85 717.307 Z" fill="#000000" fill-rule="nonzero" fill-opacity="1" /><path clip-path="url(#clip630)" d="M1352.62 504.669 Q1349.01 504.669 1347.18 508.233 Q1345.37 511.775 1345.37 518.905 Q1345.37 526.011 1347.18 529.576 Q1349.01 533.117 1352.62 533.117 Q1356.25 533.117 1358.06 529.576 Q1359.88 526.011 1359.88 518.905 Q1359.88 511.775 1358.06 508.233 Q1356.25 504.669 1352.62 504.669 M1352.62 500.965 Q1358.43 500.965 1361.48 505.571 Q1364.56 510.155 1364.56 518.905 Q1364.56 527.631 1361.48 532.238 Q1358.43 536.821 1352.62 536.821 Q1346.81 536.821 1343.73 532.238 Q1340.67 527.631 1340.67 518.905 Q1340.67 510.155 1343.73 505.571 Q1346.81 500.965 1352.62 500.965 Z" fill="#000000" fill-rule="nonzero" fill-opacity="1" /><path clip-path="url(#clip630)" d="M1372.78 530.27 L1377.66 530.27 L1377.66 536.15 L1372.78 536.15 L1372.78 530.27 Z" fill="#000000" fill-rule="nonzero" fill-opacity="1" /><path clip-path="url(#clip630)" d="M1387.89 501.59 L1406.25 501.59 L1406.25 505.525 L1392.18 505.525 L1392.18 513.997 Q1393.19 513.65 1394.21 513.488 Q1395.23 513.303 1396.25 513.303 Q1402.04 513.303 1405.42 516.474 Q1408.8 519.645 1408.8 525.062 Q1408.8 530.641 1405.32 533.742 Q1401.85 536.821 1395.53 536.821 Q1393.36 536.821 1391.09 536.451 Q1388.84 536.08 1386.44 535.34 L1386.44 530.641 Q1388.52 531.775 1390.74 532.33 Q1392.96 532.886 1395.44 532.886 Q1399.44 532.886 1401.78 530.78 Q1404.12 528.673 1404.12 525.062 Q1404.12 521.451 1401.78 519.344 Q1399.44 517.238 1395.44 517.238 Q1393.57 517.238 1391.69 517.655 Q1389.84 518.071 1387.89 518.951 L1387.89 501.59 Z" fill="#000000" fill-rule="nonzero" fill-opacity="1" /><path clip-path="url(#clip630)" d="M1342.43 315.873 L1350.07 315.873 L1350.07 289.507 L1341.76 291.174 L1341.76 286.914 L1350.02 285.248 L1354.7 285.248 L1354.7 315.873 L1362.34 315.873 L1362.34 319.808 L1342.43 319.808 L1342.43 315.873 Z" fill="#000000" fill-rule="nonzero" fill-opacity="1" /><path clip-path="url(#clip630)" d="M1371.78 313.928 L1376.67 313.928 L1376.67 319.808 L1371.78 319.808 L1371.78 313.928 Z" fill="#000000" fill-rule="nonzero" fill-opacity="1" /><path clip-path="url(#clip630)" d="M1396.85 288.326 Q1393.24 288.326 1391.41 291.891 Q1389.61 295.433 1389.61 302.562 Q1389.61 309.669 1391.41 313.234 Q1393.24 316.775 1396.85 316.775 Q1400.49 316.775 1402.29 313.234 Q1404.12 309.669 1404.12 302.562 Q1404.12 295.433 1402.29 291.891 Q1400.49 288.326 1396.85 288.326 M1396.85 284.623 Q1402.66 284.623 1405.72 289.229 Q1408.8 293.813 1408.8 302.562 Q1408.8 311.289 1405.72 315.896 Q1402.66 320.479 1396.85 320.479 Q1391.04 320.479 1387.96 315.896 Q1384.91 311.289 1384.91 302.562 Q1384.91 293.813 1387.96 289.229 Q1391.04 284.623 1396.85 284.623 Z" fill="#000000" fill-rule="nonzero" fill-opacity="1" /><path clip-path="url(#clip630)" d="M1343.43 99.5305 L1351.07 99.5305 L1351.07 73.1649 L1342.76 74.8316 L1342.76 70.5723 L1351.02 68.9057 L1355.7 68.9057 L1355.7 99.5305 L1363.33 99.5305 L1363.33 103.466 L1343.43 103.466 L1343.43 99.5305 Z" fill="#000000" fill-rule="nonzero" fill-opacity="1" /><path clip-path="url(#clip630)" d="M1372.78 97.5861 L1377.66 97.5861 L1377.66 103.466 L1372.78 103.466 L1372.78 97.5861 Z" fill="#000000" fill-rule="nonzero" fill-opacity="1" /><path clip-path="url(#clip630)" d="M1387.89 68.9057 L1406.25 68.9057 L1406.25 72.8408 L1392.18 72.8408 L1392.18 81.313 Q1393.19 80.9658 1394.21 80.8038 Q1395.23 80.6186 1396.25 80.6186 Q1402.04 80.6186 1405.42 83.7899 Q1408.8 86.9611 1408.8 92.3778 Q1408.8 97.9564 1405.32 101.058 Q1401.85 104.137 1395.53 104.137 Q1393.36 104.137 1391.09 103.767 Q1388.84 103.396 1386.44 102.655 L1386.44 97.9564 Q1388.52 99.0907 1390.74 99.6463 Q1392.96 100.202 1395.44 100.202 Q1399.44 100.202 1401.78 98.0953 Q1404.12 95.9889 1404.12 92.3778 Q1404.12 88.7667 1401.78 86.6602 Q1399.44 84.5537 1395.44 84.5537 Q1393.57 84.5537 1391.69 84.9704 Q1389.84 85.3871 1387.89 86.2667 L1387.89 68.9057 Z" fill="#000000" fill-rule="nonzero" fill-opacity="1" /><path clip-path="url(#clip630)" d="M1232.84 732.675 Q1236.99 733.512 1239.37 734.64 Q1243.01 736.475 1243.01 739.535 Q1243.01 741.661 1241.82 743.271 Q1240.6 744.849 1238.57 745.396 Q1239.37 746.008 1239.92 746.556 Q1240.47 747.071 1241.31 748.07 Q1242.11 749.068 1242.56 750.421 Q1243.01 751.741 1243.01 753.255 Q1243.01 754.414 1242.79 755.477 Q1242.59 756.54 1242.05 757.667 Q1241.47 758.762 1240.6 759.567 Q1239.73 760.34 1238.31 760.855 Q1236.89 761.371 1235.09 761.371 Q1232.84 761.371 1229.78 760.501 Q1226.72 759.599 1221.24 757.538 Q1218.34 756.411 1216.73 756.411 Q1215.99 756.411 1215.51 756.572 Q1215.03 756.733 1214.87 757.055 Q1214.67 757.345 1214.64 757.538 Q1214.58 757.731 1214.58 758.053 Q1214.58 760.05 1216.6 761.789 Q1218.63 763.528 1222.76 764.72 Q1223.56 764.978 1223.75 765.139 Q1223.95 765.3 1223.95 765.783 Q1223.92 766.588 1223.27 766.588 Q1223.01 766.588 1222.02 766.298 Q1220.98 766.008 1219.47 765.332 Q1217.93 764.623 1216.54 763.657 Q1215.12 762.691 1214.12 761.177 Q1213.13 759.631 1213.13 757.86 Q1213.13 755.445 1214.7 753.963 Q1216.25 752.45 1218.54 752.45 Q1219.95 752.45 1222.69 753.577 Q1232.19 757.152 1236.15 757.152 Q1241.53 757.152 1241.53 753.061 Q1241.53 751.709 1240.98 750.453 Q1240.44 749.165 1239.66 748.327 Q1238.89 747.49 1238.05 746.846 Q1237.22 746.169 1236.67 745.88 Q1236.12 745.557 1235.99 745.525 L1216.15 740.598 Q1215.38 740.405 1214.87 740.05 Q1214.32 739.664 1214.12 739.213 Q1213.93 738.762 1213.9 738.504 Q1213.84 738.247 1213.84 738.021 Q1213.84 737.216 1214.32 736.669 Q1214.8 736.089 1215.64 736.089 Q1215.8 736.089 1216.57 736.282 Q1217.31 736.443 1218.41 736.701 Q1219.47 736.959 1220.05 737.087 Q1224.11 738.118 1224.53 738.215 L1231.64 740.05 Q1232.06 740.147 1233.42 740.469 Q1234.77 740.759 1235.48 740.92 Q1236.15 741.081 1237.09 741.242 Q1237.99 741.371 1238.5 741.371 Q1240.12 741.371 1240.82 740.888 Q1241.53 740.405 1241.53 739.342 Q1241.53 738.343 1240.86 737.57 Q1240.15 736.765 1238.79 736.153 Q1237.41 735.541 1236.28 735.187 Q1235.16 734.833 1233.38 734.382 Q1232.61 734.221 1232.42 734.092 Q1232.19 733.931 1232.19 733.48 Q1232.19 732.675 1232.84 732.675 Z" fill="#000000" fill-rule="nonzero" fill-opacity="1" /><path clip-path="url(#clip630)" d="M1234.93 725.97 L1233.49 725.97 Q1233.49 720.424 1230.53 717.561 Q1230.53 716.772 1230.71 716.637 Q1230.89 716.501 1231.73 716.501 L1257.63 716.501 Q1259.01 716.501 1259.44 715.825 Q1259.86 715.149 1259.86 712.195 L1259.86 710.73 L1261.28 710.73 Q1261.15 712.353 1261.15 718.215 Q1261.15 724.076 1261.28 725.677 L1259.86 725.677 L1259.86 724.211 Q1259.86 721.303 1259.46 720.604 Q1259.03 719.905 1257.63 719.905 L1233.71 719.905 Q1234.93 722.318 1234.93 725.97 Z" fill="#000000" fill-rule="nonzero" fill-opacity="1" /><polyline clip-path="url(#clip634)" style="stroke:#009af9; stroke-linecap:round; stroke-linejoin:round; stroke-width:4; stroke-opacity:1; fill:none" points="1470.49,86.1857 1495.69,86.1857 1495.69,86.1857 1520.88,86.1857 1520.88,86.1857 1546.07,86.1857 1546.07,86.1857 1571.27,86.1857 1571.27,86.1857 1596.46,86.1857 1596.46,86.1857 1621.65,86.1857 1621.65,86.1857 1646.85,86.1857 1646.85,86.1857 1672.04,86.1857 1672.04,86.1857 1697.23,86.1857 1697.23,86.1857 1722.42,86.1857 1722.42,605.64 1747.62,605.64 1747.62,611.734 1772.81,611.734 1772.81,681.147 1798,681.147 1798,644.076 1823.2,644.076 1823.2,769.793 1848.39,769.793 1848.39,763.903 1873.58,763.903 1873.58,804.902 1898.78,804.902 1898.78,774.727 1923.97,774.727 1923.97,800.442 1949.16,800.442 1949.16,781.572 1974.36,781.572 1974.36,791.084 1999.55,791.084 1999.55,771.452 2024.74,771.452 2024.74,774.242 2049.93,774.242 2049.93,760.309 2075.13,760.309 2075.13,760.663 2100.32,760.663 2100.32,750.207 2125.51,750.207 2125.51,749.647 2150.71,749.647 2150.71,742.711 2175.9,742.711 2175.9,742.361 2201.09,742.361 2201.09,737.949 2226.29,737.949 2226.29,737.878 2251.48,737.878 2251.48,735.276 2276.67,735.276 2276.67,735.505 2301.87,735.505 2301.87,734.085 2327.06,734.085 2327.06,734.467 "/>
<polyline clip-path="url(#clip634)" style="stroke:#c271d2; stroke-linecap:round; stroke-linejoin:round; stroke-width:6; stroke-opacity:1; fill:none" stroke-dasharray="3, 6" points="1470.49,1384.24 1495.69,1384.24 1520.88,1384.24 1546.07,1384.24 1571.27,1384.24 1596.46,1384.24 1621.65,1384.24 1646.85,1384.24 1672.04,1384.24 1697.23,1384.24 1722.42,1384.24 1747.62,1384.24 1772.81,1384.24 1798,1384.24 1823.2,1384.24 1848.39,1384.24 1873.58,1384.24 1898.78,1384.24 1923.97,1384.24 1949.16,1384.24 1974.36,1384.24 1999.55,1384.24 2024.74,1384.24 2049.93,1384.24 2075.13,1384.24 2100.32,1384.24 2125.51,1384.24 2150.71,1384.24 2175.9,1384.24 2201.09,1384.24 2226.29,1384.24 2251.48,1384.24 2276.67,1384.24 2301.87,1384.24 2327.06,1384.24 "/>
<polyline clip-path="url(#clip634)" style="stroke:#ac8d18; stroke-linecap:round; stroke-linejoin:round; stroke-width:6; stroke-opacity:1; fill:none" stroke-dasharray="3, 6" points="1470.49,86.1857 1495.69,86.1857 1520.88,86.1857 1546.07,86.1857 1571.27,86.1857 1596.46,86.1857 1621.65,86.1857 1646.85,86.1857 1672.04,86.1857 1697.23,86.1857 1722.42,86.1857 1747.62,86.1857 1772.81,86.1857 1798,86.1857 1823.2,86.1857 1848.39,86.1857 1873.58,86.1857 1898.78,86.1857 1923.97,86.1857 1949.16,86.1857 1974.36,86.1857 1999.55,86.1857 2024.74,86.1857 2049.93,86.1857 2075.13,86.1857 2100.32,86.1857 2125.51,86.1857 2150.71,86.1857 2175.9,86.1857 2201.09,86.1857 2226.29,86.1857 2251.48,86.1857 2276.67,86.1857 2301.87,86.1857 2327.06,86.1857 "/>
<path clip-path="url(#clip630)" d="M2124.19 300.469 L2322.49 300.469 L2322.49 93.1086 L2124.19 93.1086  Z" fill="#ffffff" fill-rule="evenodd" fill-opacity="1"/>
<polyline clip-path="url(#clip630)" style="stroke:#000000; stroke-linecap:round; stroke-linejoin:round; stroke-width:4; stroke-opacity:1; fill:none" points="2124.19,300.469 2322.49,300.469 2322.49,93.1086 2124.19,93.1086 2124.19,300.469 "/>
<polyline clip-path="url(#clip630)" style="stroke:#009af9; stroke-linecap:round; stroke-linejoin:round; stroke-width:4; stroke-opacity:1; fill:none" points="2134.28,144.949 2194.81,144.949 "/>
<path clip-path="url(#clip630)" d="M2232.25 155.503 L2223.75 155.784 L2223.75 152.06 Q2221.57 155.784 2216.84 155.784 Q2214.9 155.784 2213.45 155.527 Q2212.02 155.269 2210.75 154.637 Q2209.51 153.981 2208.85 152.716 Q2208.2 151.451 2208.2 149.601 L2208.2 138.428 Q2208.2 137.07 2207.71 136.812 Q2207.21 136.555 2204.9 136.555 L2204.9 134.306 L2213.68 133.908 L2213.68 150.28 Q2213.68 151.428 2213.75 152.013 Q2213.84 152.576 2214.19 153.138 Q2214.57 153.676 2215.37 153.887 Q2216.16 154.075 2217.52 154.075 Q2220.17 154.075 2221.81 152.294 Q2223.47 150.514 2223.47 147.587 L2223.47 138.428 Q2223.47 137.07 2222.95 136.812 Q2222.46 136.555 2220.14 136.555 L2220.14 134.306 L2228.93 133.908 L2228.93 151.381 Q2228.93 152.739 2229.42 152.997 Q2229.93 153.255 2232.25 153.255 L2232.25 155.503 Z" fill="#000000" fill-rule="nonzero" fill-opacity="1" /><polyline clip-path="url(#clip630)" style="stroke:#c271d2; stroke-linecap:round; stroke-linejoin:round; stroke-width:6; stroke-opacity:1; fill:none" stroke-dasharray="3, 6" points="2134.28,196.789 2194.81,196.789 "/>
<path clip-path="url(#clip630)" d="M2232.25 200.508 L2223.75 200.79 L2223.75 197.065 Q2221.57 200.79 2216.84 200.79 Q2214.9 200.79 2213.45 200.532 Q2212.02 200.274 2210.75 199.642 Q2209.51 198.986 2208.85 197.721 Q2208.2 196.456 2208.2 194.606 L2208.2 183.434 Q2208.2 182.075 2207.71 181.817 Q2207.21 181.56 2204.9 181.56 L2204.9 179.311 L2213.68 178.913 L2213.68 195.285 Q2213.68 196.433 2213.75 197.019 Q2213.84 197.581 2214.19 198.143 Q2214.57 198.682 2215.37 198.892 Q2216.16 199.08 2217.52 199.08 Q2220.17 199.08 2221.81 197.3 Q2223.47 195.519 2223.47 192.592 L2223.47 183.434 Q2223.47 182.075 2222.95 181.817 Q2222.46 181.56 2220.14 181.56 L2220.14 179.311 L2228.93 178.913 L2228.93 196.386 Q2228.93 197.745 2229.42 198.002 Q2229.93 198.26 2232.25 198.26 L2232.25 200.508 Z" fill="#000000" fill-rule="nonzero" fill-opacity="1" /><path clip-path="url(#clip630)" d="M2266.98 214.459 L2262.75 214.361 L2258.52 214.459 L2258.52 212.885 L2260.84 212.885 L2260.84 203.819 Q2260.84 201.982 2260.36 201.277 Q2259.88 200.556 2258.95 200.556 Q2258.13 200.556 2257.28 200.884 Q2256.44 201.212 2255.67 201.835 Q2254.92 202.458 2254.42 203.507 Q2253.95 204.556 2253.95 205.868 L2253.95 212.885 L2256.28 212.885 L2256.28 214.459 L2252.05 214.361 L2247.8 214.459 L2247.8 212.885 L2250.13 212.885 L2250.13 203.819 Q2250.13 201.982 2249.65 201.277 Q2249.18 200.556 2248.24 200.556 Q2247.42 200.556 2246.57 200.884 Q2245.73 201.212 2244.96 201.835 Q2244.21 202.458 2243.72 203.507 Q2243.24 204.556 2243.24 205.868 L2243.24 212.885 L2245.55 212.885 L2245.55 214.459 L2241.32 214.361 L2237.09 214.459 L2237.09 212.885 L2239.41 212.885 L2239.41 202.507 Q2239.41 201.556 2239.06 201.376 Q2238.72 201.195 2237.09 201.195 L2237.09 199.621 L2242.87 199.343 L2242.87 202.982 Q2243.73 201.294 2245.21 200.326 Q2246.7 199.343 2248.78 199.343 Q2253.11 199.343 2253.82 202.573 Q2254.59 201.212 2256 200.277 Q2257.41 199.343 2259.49 199.343 Q2262.13 199.343 2263.39 200.49 Q2264.67 201.622 2264.67 204.179 L2264.67 212.885 L2266.98 212.885 L2266.98 214.459 Z" fill="#000000" fill-rule="nonzero" fill-opacity="1" /><path clip-path="url(#clip630)" d="M2276.83 214.459 L2272.9 214.361 L2268.8 214.459 L2268.8 212.885 L2271.13 212.885 L2271.13 202.507 Q2271.13 201.556 2270.78 201.376 Q2270.44 201.195 2268.9 201.195 L2268.9 199.621 L2274.75 199.343 L2274.75 212.885 L2276.83 212.885 L2276.83 214.459 M2274.44 192.227 Q2275.21 192.997 2275.21 194.08 Q2275.21 195.162 2274.44 195.932 Q2273.68 196.703 2272.6 196.703 Q2271.52 196.703 2270.75 195.932 Q2269.98 195.162 2269.98 194.08 Q2269.98 192.997 2270.75 192.227 Q2271.52 191.456 2272.6 191.456 Q2273.68 191.456 2274.44 192.227 Z" fill="#000000" fill-rule="nonzero" fill-opacity="1" /><path clip-path="url(#clip630)" d="M2298.82 214.459 L2294.57 214.361 L2290.34 214.459 L2290.34 212.885 L2292.67 212.885 L2292.67 203.819 Q2292.67 201.999 2292.19 201.277 Q2291.73 200.556 2290.82 200.556 Q2289.98 200.556 2289.13 200.884 Q2288.29 201.212 2287.52 201.835 Q2286.77 202.458 2286.29 203.507 Q2285.82 204.556 2285.82 205.868 L2285.82 212.885 L2288.13 212.885 L2288.13 214.459 L2283.9 214.361 L2279.67 214.459 L2279.67 212.885 L2281.98 212.885 L2281.98 202.507 Q2281.98 201.556 2281.64 201.376 Q2281.29 201.195 2279.67 201.195 L2279.67 199.621 L2285.44 199.343 L2285.44 202.982 Q2285.8 202.277 2286.29 201.687 Q2286.78 201.081 2287.49 200.539 Q2288.19 199.982 2289.18 199.67 Q2290.18 199.343 2291.33 199.343 Q2293.93 199.343 2295.21 200.474 Q2296.49 201.605 2296.49 204.179 L2296.49 212.885 L2298.82 212.885 L2298.82 214.459 Z" fill="#000000" fill-rule="nonzero" fill-opacity="1" /><polyline clip-path="url(#clip630)" style="stroke:#ac8d18; stroke-linecap:round; stroke-linejoin:round; stroke-width:6; stroke-opacity:1; fill:none" stroke-dasharray="3, 6" points="2134.28,248.629 2194.81,248.629 "/>
<path clip-path="url(#clip630)" d="M2232.25 254.563 L2223.75 254.844 L2223.75 251.12 Q2221.57 254.844 2216.84 254.844 Q2214.9 254.844 2213.45 254.587 Q2212.02 254.329 2210.75 253.697 Q2209.51 253.041 2208.85 251.776 Q2208.2 250.511 2208.2 248.661 L2208.2 237.488 Q2208.2 236.13 2207.71 235.872 Q2207.21 235.615 2204.9 235.615 L2204.9 233.366 L2213.68 232.968 L2213.68 249.34 Q2213.68 250.488 2213.75 251.073 Q2213.84 251.636 2214.19 252.198 Q2214.57 252.736 2215.37 252.947 Q2216.16 253.135 2217.52 253.135 Q2220.17 253.135 2221.81 251.354 Q2223.47 249.574 2223.47 246.647 L2223.47 237.488 Q2223.47 236.13 2222.95 235.872 Q2222.46 235.615 2220.14 235.615 L2220.14 233.366 L2228.93 232.968 L2228.93 250.441 Q2228.93 251.799 2229.42 252.057 Q2229.93 252.315 2232.25 252.315 L2232.25 254.563 Z" fill="#000000" fill-rule="nonzero" fill-opacity="1" /><path clip-path="url(#clip630)" d="M2266.98 263.888 L2262.75 263.789 L2258.52 263.888 L2258.52 262.314 L2260.84 262.314 L2260.84 253.247 Q2260.84 251.411 2260.36 250.706 Q2259.88 249.984 2258.95 249.984 Q2258.13 249.984 2257.28 250.312 Q2256.44 250.64 2255.67 251.263 Q2254.92 251.886 2254.42 252.935 Q2253.95 253.985 2253.95 255.296 L2253.95 262.314 L2256.28 262.314 L2256.28 263.888 L2252.05 263.789 L2247.8 263.888 L2247.8 262.314 L2250.13 262.314 L2250.13 253.247 Q2250.13 251.411 2249.65 250.706 Q2249.18 249.984 2248.24 249.984 Q2247.42 249.984 2246.57 250.312 Q2245.73 250.64 2244.96 251.263 Q2244.21 251.886 2243.72 252.935 Q2243.24 253.985 2243.24 255.296 L2243.24 262.314 L2245.55 262.314 L2245.55 263.888 L2241.32 263.789 L2237.09 263.888 L2237.09 262.314 L2239.41 262.314 L2239.41 251.935 Q2239.41 250.984 2239.06 250.804 Q2238.72 250.624 2237.09 250.624 L2237.09 249.05 L2242.87 248.771 L2242.87 252.411 Q2243.73 250.722 2245.21 249.755 Q2246.7 248.771 2248.78 248.771 Q2253.11 248.771 2253.82 252.001 Q2254.59 250.64 2256 249.705 Q2257.41 248.771 2259.49 248.771 Q2262.13 248.771 2263.39 249.919 Q2264.67 251.05 2264.67 253.608 L2264.67 262.314 L2266.98 262.314 L2266.98 263.888 Z" fill="#000000" fill-rule="nonzero" fill-opacity="1" /><path clip-path="url(#clip630)" d="M2287.01 263.084 Q2287.01 263.379 2286.94 263.56 Q2286.88 263.724 2286.7 263.789 Q2286.53 263.855 2286.39 263.871 Q2286.24 263.888 2285.93 263.888 L2284.32 263.888 Q2283.32 263.888 2282.62 263.707 Q2281.93 263.511 2281.58 263.281 Q2281.24 263.052 2281.06 262.642 Q2280.88 262.232 2280.84 261.986 Q2280.83 261.723 2280.83 261.297 Q2280.21 262.494 2278.94 263.297 Q2277.7 264.084 2275.83 264.084 Q2275.04 264.084 2274.25 264.002 Q2273.47 263.92 2272.55 263.675 Q2271.63 263.412 2270.94 263.019 Q2270.25 262.609 2269.79 261.904 Q2269.33 261.182 2269.33 260.264 Q2269.33 255.444 2280.25 254.985 L2280.25 253.854 Q2280.25 249.886 2276.57 249.886 Q2275.22 249.886 2274.14 250.115 Q2274.24 250.181 2274.38 250.345 Q2274.53 250.509 2274.7 250.919 Q2274.88 251.329 2274.88 251.771 Q2274.88 252.771 2274.24 253.329 Q2273.61 253.886 2272.76 253.886 Q2271.97 253.886 2271.32 253.345 Q2270.68 252.788 2270.68 251.771 Q2270.68 248.672 2276.7 248.672 Q2280.32 248.672 2282.19 250.099 Q2284.07 251.509 2284.07 253.854 L2284.07 261.068 Q2284.07 261.428 2284.11 261.592 Q2284.14 261.756 2284.32 261.953 Q2284.5 262.15 2284.93 262.232 Q2285.37 262.297 2286.12 262.314 Q2286.42 262.314 2286.57 262.346 Q2286.71 262.363 2286.86 262.543 Q2287.01 262.724 2287.01 263.084 M2280.25 259.215 L2280.25 256.034 Q2279.68 256.067 2279.14 256.133 Q2278.6 256.198 2277.71 256.362 Q2276.83 256.51 2276.11 256.821 Q2275.4 257.116 2274.71 257.559 Q2274.04 257.985 2273.65 258.674 Q2273.27 259.362 2273.27 260.231 Q2273.27 261.346 2274.16 262.117 Q2275.04 262.888 2276.32 262.888 Q2276.65 262.888 2277.06 262.822 Q2277.47 262.756 2278.06 262.527 Q2278.65 262.281 2279.11 261.904 Q2279.58 261.527 2279.91 260.838 Q2280.25 260.133 2280.25 259.215 Z" fill="#000000" fill-rule="nonzero" fill-opacity="1" /><path clip-path="url(#clip630)" d="M2306.01 263.888 L2302.32 263.789 L2298.28 263.888 L2298.28 262.314 L2299.6 262.314 L2295.91 257.952 L2292.64 261.609 L2292.41 261.937 Q2292.41 262.084 2292.79 262.199 Q2293.18 262.314 2293.64 262.314 L2293.64 263.888 L2290.18 263.789 L2287.1 263.888 L2287.1 262.314 Q2288.13 262.314 2288.61 262.297 Q2289.1 262.265 2289.66 262.117 Q2290.22 261.969 2290.5 261.674 L2294.89 256.739 L2289.66 250.558 L2287.27 250.558 L2287.27 248.984 L2290.97 249.082 L2295.02 248.984 L2295.02 250.558 L2293.68 250.558 L2296.97 254.411 L2299.79 251.263 Q2299.81 251.247 2300.07 250.853 Q2299.55 250.558 2298.79 250.558 L2298.79 248.984 L2302.25 249.082 L2305.33 248.984 L2305.33 250.558 Q2303.99 250.558 2303.28 250.656 Q2302.6 250.738 2302.38 250.853 Q2302.19 250.968 2301.91 251.263 L2297.99 255.624 L2303.63 262.314 L2306.01 262.314 L2306.01 263.888 Z" fill="#000000" fill-rule="nonzero" fill-opacity="1" /></svg>
