<?xml version="1.0" encoding="utf-8"?>
<svg xmlns="http://www.w3.org/2000/svg" xmlns:xlink="http://www.w3.org/1999/xlink" width="600" height="400" viewBox="0 0 2400 1600">
<defs>
  <clipPath id="clip400">
    <rect x="0" y="0" width="2400" height="1600"/>
  </clipPath>
</defs>
<path clip-path="url(#clip400)" d="M0 1600 L2400 1600 L2400 0 L0 0  Z" fill="#ffffff" fill-rule="evenodd" fill-opacity="1"/>
<defs>
  <clipPath id="clip401">
    <rect x="480" y="0" width="1681" height="1600"/>
  </clipPath>
</defs>
<path clip-path="url(#clip400)" d="M232.389 623.18 L1140.35 623.18 L1140.35 47.2441 L232.389 47.2441  Z" fill="#ffffff" fill-rule="evenodd" fill-opacity="1"/>
<defs>
  <clipPath id="clip402">
    <rect x="232" y="47" width="909" height="577"/>
  </clipPath>
</defs>
<polyline clip-path="url(#clip402)" style="stroke:#000000; stroke-linecap:round; stroke-linejoin:round; stroke-width:2; stroke-opacity:0.1; fill:none" points="258.086,623.18 258.086,47.2441 "/>
<polyline clip-path="url(#clip402)" style="stroke:#000000; stroke-linecap:round; stroke-linejoin:round; stroke-width:2; stroke-opacity:0.1; fill:none" points="510.017,623.18 510.017,47.2441 "/>
<polyline clip-path="url(#clip402)" style="stroke:#000000; stroke-linecap:round; stroke-linejoin:round; stroke-width:2; stroke-opacity:0.1; fill:none" points="761.948,623.18 761.948,47.2441 "/>
<polyline clip-path="url(#clip402)" style="stroke:#000000; stroke-linecap:round; stroke-linejoin:round; stroke-width:2; stroke-opacity:0.1; fill:none" points="1013.88,623.18 1013.88,47.2441 "/>
<polyline clip-path="url(#clip402)" style="stroke:#000000; stroke-linecap:round; stroke-linejoin:round; stroke-width:2; stroke-opacity:0.1; fill:none" points="232.389,606.88 1140.35,606.88 "/>
<polyline clip-path="url(#clip402)" style="stroke:#000000; stroke-linecap:round; stroke-linejoin:round; stroke-width:2; stroke-opacity:0.1; fill:none" points="232.389,458.14 1140.35,458.14 "/>
<polyline clip-path="url(#clip402)" style="stroke:#000000; stroke-linecap:round; stroke-linejoin:round; stroke-width:2; stroke-opacity:0.1; fill:none" points="232.389,309.399 1140.35,309.399 "/>
<polyline clip-path="url(#clip402)" style="stroke:#000000; stroke-linecap:round; stroke-linejoin:round; stroke-width:2; stroke-opacity:0.1; fill:none" points="232.389,160.659 1140.35,160.659 "/>
<polyline clip-path="url(#clip400)" style="stroke:#000000; stroke-linecap:round; stroke-linejoin:round; stroke-width:4; stroke-opacity:1; fill:none" points="232.389,623.18 1140.35,623.18 "/>
<polyline clip-path="url(#clip400)" style="stroke:#000000; stroke-linecap:round; stroke-linejoin:round; stroke-width:4; stroke-opacity:1; fill:none" points="258.086,623.18 258.086,604.282 "/>
<polyline clip-path="url(#clip400)" style="stroke:#000000; stroke-linecap:round; stroke-linejoin:round; stroke-width:4; stroke-opacity:1; fill:none" points="510.017,623.18 510.017,604.282 "/>
<polyline clip-path="url(#clip400)" style="stroke:#000000; stroke-linecap:round; stroke-linejoin:round; stroke-width:4; stroke-opacity:1; fill:none" points="761.948,623.18 761.948,604.282 "/>
<polyline clip-path="url(#clip400)" style="stroke:#000000; stroke-linecap:round; stroke-linejoin:round; stroke-width:4; stroke-opacity:1; fill:none" points="1013.88,623.18 1013.88,604.282 "/>
<path clip-path="url(#clip400)" d="M258.086 654.099 Q254.475 654.099 252.647 657.663 Q250.841 661.205 250.841 668.335 Q250.841 675.441 252.647 679.006 Q254.475 682.547 258.086 682.547 Q261.721 682.547 263.526 679.006 Q265.355 675.441 265.355 668.335 Q265.355 661.205 263.526 657.663 Q261.721 654.099 258.086 654.099 M258.086 650.395 Q263.896 650.395 266.952 655.001 Q270.031 659.585 270.031 668.335 Q270.031 677.061 266.952 681.668 Q263.896 686.251 258.086 686.251 Q252.276 686.251 249.197 681.668 Q246.142 677.061 246.142 668.335 Q246.142 659.585 249.197 655.001 Q252.276 650.395 258.086 650.395 Z" fill="#000000" fill-rule="nonzero" fill-opacity="1" /><path clip-path="url(#clip400)" d="M500.399 681.645 L508.038 681.645 L508.038 655.279 L499.728 656.946 L499.728 652.687 L507.992 651.02 L512.668 651.02 L512.668 681.645 L520.307 681.645 L520.307 685.58 L500.399 685.58 L500.399 681.645 Z" fill="#000000" fill-rule="nonzero" fill-opacity="1" /><path clip-path="url(#clip400)" d="M756.601 681.645 L772.92 681.645 L772.92 685.58 L750.976 685.58 L750.976 681.645 Q753.638 678.89 758.221 674.26 Q762.828 669.608 764.008 668.265 Q766.254 665.742 767.133 664.006 Q768.036 662.247 768.036 660.557 Q768.036 657.802 766.092 656.066 Q764.17 654.33 761.069 654.33 Q758.87 654.33 756.416 655.094 Q753.985 655.858 751.208 657.409 L751.208 652.687 Q754.032 651.552 756.485 650.974 Q758.939 650.395 760.976 650.395 Q766.346 650.395 769.541 653.08 Q772.735 655.765 772.735 660.256 Q772.735 662.386 771.925 664.307 Q771.138 666.205 769.032 668.798 Q768.453 669.469 765.351 672.686 Q762.249 675.881 756.601 681.645 Z" fill="#000000" fill-rule="nonzero" fill-opacity="1" /><path clip-path="url(#clip400)" d="M1018.13 666.946 Q1021.48 667.663 1023.36 669.932 Q1025.26 672.2 1025.26 675.534 Q1025.26 680.649 1021.74 683.45 Q1018.22 686.251 1011.74 686.251 Q1009.56 686.251 1007.25 685.811 Q1004.96 685.395 1002.5 684.538 L1002.5 680.024 Q1004.45 681.159 1006.76 681.737 Q1009.08 682.316 1011.6 682.316 Q1016 682.316 1018.29 680.58 Q1020.6 678.844 1020.6 675.534 Q1020.6 672.478 1018.45 670.765 Q1016.32 669.029 1012.5 669.029 L1008.47 669.029 L1008.47 665.186 L1012.69 665.186 Q1016.14 665.186 1017.96 663.821 Q1019.79 662.432 1019.79 659.839 Q1019.79 657.177 1017.9 655.765 Q1016.02 654.33 1012.5 654.33 Q1010.58 654.33 1008.38 654.747 Q1006.18 655.163 1003.54 656.043 L1003.54 651.876 Q1006.21 651.136 1008.52 650.765 Q1010.86 650.395 1012.92 650.395 Q1018.24 650.395 1021.34 652.825 Q1024.45 655.233 1024.45 659.353 Q1024.45 662.223 1022.8 664.214 Q1021.16 666.182 1018.13 666.946 Z" fill="#000000" fill-rule="nonzero" fill-opacity="1" /><path clip-path="url(#clip400)" d="M556.54 720.524 L596.74 720.524 L596.74 725.935 L579.871 725.935 L579.871 768.044 L573.409 768.044 L573.409 725.935 L556.54 725.935 L556.54 720.524 Z" fill="#000000" fill-rule="nonzero" fill-opacity="1" /><path clip-path="url(#clip400)" d="M600.687 732.396 L606.543 732.396 L606.543 768.044 L600.687 768.044 L600.687 732.396 M600.687 718.519 L606.543 718.519 L606.543 725.935 L600.687 725.935 L600.687 718.519 Z" fill="#000000" fill-rule="nonzero" fill-opacity="1" /><path clip-path="url(#clip400)" d="M646.551 739.239 Q648.748 735.292 651.803 733.414 Q654.859 731.537 658.996 731.537 Q664.566 731.537 667.59 735.451 Q670.614 739.335 670.614 746.528 L670.614 768.044 L664.726 768.044 L664.726 746.719 Q664.726 741.594 662.911 739.112 Q661.097 736.629 657.373 736.629 Q652.822 736.629 650.18 739.653 Q647.538 742.677 647.538 747.896 L647.538 768.044 L641.65 768.044 L641.65 746.719 Q641.65 741.563 639.836 739.112 Q638.021 736.629 634.234 736.629 Q629.746 736.629 627.104 739.685 Q624.462 742.708 624.462 747.896 L624.462 768.044 L618.574 768.044 L618.574 732.396 L624.462 732.396 L624.462 737.934 Q626.468 734.656 629.269 733.096 Q632.069 731.537 635.921 731.537 Q639.804 731.537 642.509 733.51 Q645.246 735.483 646.551 739.239 Z" fill="#000000" fill-rule="nonzero" fill-opacity="1" /><path clip-path="url(#clip400)" d="M712.787 748.756 L712.787 751.62 L685.86 751.62 Q686.242 757.668 689.488 760.851 Q692.766 764.002 698.591 764.002 Q701.965 764.002 705.116 763.174 Q708.299 762.347 711.418 760.691 L711.418 766.23 Q708.267 767.566 704.957 768.267 Q701.647 768.967 698.241 768.967 Q689.711 768.967 684.714 764.002 Q679.749 759.036 679.749 750.57 Q679.749 741.817 684.459 736.693 Q689.202 731.537 697.222 731.537 Q704.416 731.537 708.585 736.183 Q712.787 740.799 712.787 748.756 M706.93 747.037 Q706.867 742.231 704.225 739.366 Q701.615 736.502 697.286 736.502 Q692.385 736.502 689.424 739.271 Q686.496 742.04 686.051 747.069 L706.93 747.037 Z" fill="#000000" fill-rule="nonzero" fill-opacity="1" /><path clip-path="url(#clip400)" d="M757.187 718.582 Q752.922 725.903 750.854 733.064 Q748.785 740.226 748.785 747.578 Q748.785 754.93 750.854 762.156 Q752.954 769.349 757.187 776.638 L752.095 776.638 Q747.321 769.158 744.933 761.933 Q742.578 754.708 742.578 747.578 Q742.578 740.48 744.933 733.287 Q747.289 726.094 752.095 718.582 L757.187 718.582 Z" fill="#000000" fill-rule="nonzero" fill-opacity="1" /><path clip-path="url(#clip400)" d="M791.276 733.446 L791.276 738.984 Q788.793 737.711 786.12 737.075 Q783.446 736.438 780.581 736.438 Q776.221 736.438 774.025 737.775 Q771.86 739.112 771.86 741.785 Q771.86 743.822 773.42 745 Q774.98 746.146 779.69 747.196 L781.695 747.642 Q787.934 748.979 790.544 751.429 Q793.186 753.848 793.186 758.209 Q793.186 763.174 789.239 766.07 Q785.324 768.967 778.449 768.967 Q775.584 768.967 772.465 768.394 Q769.378 767.853 765.94 766.739 L765.94 760.691 Q769.187 762.378 772.338 763.238 Q775.489 764.065 778.576 764.065 Q782.714 764.065 784.942 762.665 Q787.17 761.233 787.17 758.654 Q787.17 756.267 785.547 754.994 Q783.955 753.721 778.513 752.543 L776.476 752.066 Q771.033 750.92 768.614 748.565 Q766.195 746.178 766.195 742.04 Q766.195 737.011 769.76 734.274 Q773.325 731.537 779.881 731.537 Q783.128 731.537 785.992 732.014 Q788.857 732.491 791.276 733.446 Z" fill="#000000" fill-rule="nonzero" fill-opacity="1" /><path clip-path="url(#clip400)" d="M801.588 718.582 L806.681 718.582 Q811.455 726.094 813.81 733.287 Q816.198 740.48 816.198 747.578 Q816.198 754.708 813.81 761.933 Q811.455 769.158 806.681 776.638 L801.588 776.638 Q805.821 769.349 807.89 762.156 Q809.991 754.93 809.991 747.578 Q809.991 740.226 807.89 733.064 Q805.821 725.903 801.588 718.582 Z" fill="#000000" fill-rule="nonzero" fill-opacity="1" /><polyline clip-path="url(#clip400)" style="stroke:#000000; stroke-linecap:round; stroke-linejoin:round; stroke-width:4; stroke-opacity:1; fill:none" points="232.389,623.18 232.389,47.2441 "/>
<polyline clip-path="url(#clip400)" style="stroke:#000000; stroke-linecap:round; stroke-linejoin:round; stroke-width:4; stroke-opacity:1; fill:none" points="232.389,606.88 251.287,606.88 "/>
<polyline clip-path="url(#clip400)" style="stroke:#000000; stroke-linecap:round; stroke-linejoin:round; stroke-width:4; stroke-opacity:1; fill:none" points="232.389,458.14 251.287,458.14 "/>
<polyline clip-path="url(#clip400)" style="stroke:#000000; stroke-linecap:round; stroke-linejoin:round; stroke-width:4; stroke-opacity:1; fill:none" points="232.389,309.399 251.287,309.399 "/>
<polyline clip-path="url(#clip400)" style="stroke:#000000; stroke-linecap:round; stroke-linejoin:round; stroke-width:4; stroke-opacity:1; fill:none" points="232.389,160.659 251.287,160.659 "/>
<path clip-path="url(#clip400)" d="M184.445 592.678 Q180.834 592.678 179.005 596.243 Q177.2 599.785 177.2 606.914 Q177.2 614.021 179.005 617.586 Q180.834 621.127 184.445 621.127 Q188.079 621.127 189.885 617.586 Q191.713 614.021 191.713 606.914 Q191.713 599.785 189.885 596.243 Q188.079 592.678 184.445 592.678 M184.445 588.975 Q190.255 588.975 193.311 593.581 Q196.389 598.165 196.389 606.914 Q196.389 615.641 193.311 620.248 Q190.255 624.831 184.445 624.831 Q178.635 624.831 175.556 620.248 Q172.501 615.641 172.501 606.914 Q172.501 598.165 175.556 593.581 Q178.635 588.975 184.445 588.975 Z" fill="#000000" fill-rule="nonzero" fill-opacity="1" /><path clip-path="url(#clip400)" d="M144.329 440.86 L162.686 440.86 L162.686 444.795 L148.612 444.795 L148.612 453.267 Q149.63 452.92 150.649 452.758 Q151.667 452.572 152.686 452.572 Q158.473 452.572 161.852 455.744 Q165.232 458.915 165.232 464.332 Q165.232 469.91 161.76 473.012 Q158.288 476.091 151.968 476.091 Q149.792 476.091 147.524 475.721 Q145.279 475.35 142.871 474.609 L142.871 469.91 Q144.954 471.045 147.177 471.6 Q149.399 472.156 151.876 472.156 Q155.88 472.156 158.218 470.049 Q160.556 467.943 160.556 464.332 Q160.556 460.721 158.218 458.614 Q155.88 456.508 151.876 456.508 Q150.001 456.508 148.126 456.924 Q146.274 457.341 144.329 458.221 L144.329 440.86 Z" fill="#000000" fill-rule="nonzero" fill-opacity="1" /><path clip-path="url(#clip400)" d="M184.445 443.938 Q180.834 443.938 179.005 447.503 Q177.2 451.045 177.2 458.174 Q177.2 465.281 179.005 468.846 Q180.834 472.387 184.445 472.387 Q188.079 472.387 189.885 468.846 Q191.713 465.281 191.713 458.174 Q191.713 451.045 189.885 447.503 Q188.079 443.938 184.445 443.938 M184.445 440.235 Q190.255 440.235 193.311 444.841 Q196.389 449.424 196.389 458.174 Q196.389 466.901 193.311 471.508 Q190.255 476.091 184.445 476.091 Q178.635 476.091 175.556 471.508 Q172.501 466.901 172.501 458.174 Q172.501 449.424 175.556 444.841 Q178.635 440.235 184.445 440.235 Z" fill="#000000" fill-rule="nonzero" fill-opacity="1" /><path clip-path="url(#clip400)" d="M114.931 322.744 L122.57 322.744 L122.57 296.379 L114.26 298.045 L114.26 293.786 L122.524 292.119 L127.2 292.119 L127.2 322.744 L134.839 322.744 L134.839 326.679 L114.931 326.679 L114.931 322.744 Z" fill="#000000" fill-rule="nonzero" fill-opacity="1" /><path clip-path="url(#clip400)" d="M154.283 295.198 Q150.672 295.198 148.843 298.763 Q147.038 302.305 147.038 309.434 Q147.038 316.541 148.843 320.105 Q150.672 323.647 154.283 323.647 Q157.917 323.647 159.723 320.105 Q161.552 316.541 161.552 309.434 Q161.552 302.305 159.723 298.763 Q157.917 295.198 154.283 295.198 M154.283 291.494 Q160.093 291.494 163.149 296.101 Q166.227 300.684 166.227 309.434 Q166.227 318.161 163.149 322.767 Q160.093 327.351 154.283 327.351 Q148.473 327.351 145.394 322.767 Q142.339 318.161 142.339 309.434 Q142.339 300.684 145.394 296.101 Q148.473 291.494 154.283 291.494 Z" fill="#000000" fill-rule="nonzero" fill-opacity="1" /><path clip-path="url(#clip400)" d="M184.445 295.198 Q180.834 295.198 179.005 298.763 Q177.2 302.305 177.2 309.434 Q177.2 316.541 179.005 320.105 Q180.834 323.647 184.445 323.647 Q188.079 323.647 189.885 320.105 Q191.713 316.541 191.713 309.434 Q191.713 302.305 189.885 298.763 Q188.079 295.198 184.445 295.198 M184.445 291.494 Q190.255 291.494 193.311 296.101 Q196.389 300.684 196.389 309.434 Q196.389 318.161 193.311 322.767 Q190.255 327.351 184.445 327.351 Q178.635 327.351 175.556 322.767 Q172.501 318.161 172.501 309.434 Q172.501 300.684 175.556 296.101 Q178.635 291.494 184.445 291.494 Z" fill="#000000" fill-rule="nonzero" fill-opacity="1" /><path clip-path="url(#clip400)" d="M114.931 174.004 L122.57 174.004 L122.57 147.638 L114.26 149.305 L114.26 145.046 L122.524 143.379 L127.2 143.379 L127.2 174.004 L134.839 174.004 L134.839 177.939 L114.931 177.939 L114.931 174.004 Z" fill="#000000" fill-rule="nonzero" fill-opacity="1" /><path clip-path="url(#clip400)" d="M144.329 143.379 L162.686 143.379 L162.686 147.314 L148.612 147.314 L148.612 155.787 Q149.63 155.439 150.649 155.277 Q151.667 155.092 152.686 155.092 Q158.473 155.092 161.852 158.263 Q165.232 161.435 165.232 166.851 Q165.232 172.43 161.76 175.532 Q158.288 178.61 151.968 178.61 Q149.792 178.61 147.524 178.24 Q145.279 177.87 142.871 177.129 L142.871 172.43 Q144.954 173.564 147.177 174.12 Q149.399 174.675 151.876 174.675 Q155.88 174.675 158.218 172.569 Q160.556 170.462 160.556 166.851 Q160.556 163.24 158.218 161.134 Q155.88 159.027 151.876 159.027 Q150.001 159.027 148.126 159.444 Q146.274 159.861 144.329 160.74 L144.329 143.379 Z" fill="#000000" fill-rule="nonzero" fill-opacity="1" /><path clip-path="url(#clip400)" d="M184.445 146.458 Q180.834 146.458 179.005 150.023 Q177.2 153.564 177.2 160.694 Q177.2 167.8 179.005 171.365 Q180.834 174.907 184.445 174.907 Q188.079 174.907 189.885 171.365 Q191.713 167.8 191.713 160.694 Q191.713 153.564 189.885 150.023 Q188.079 146.458 184.445 146.458 M184.445 142.754 Q190.255 142.754 193.311 147.361 Q196.389 151.944 196.389 160.694 Q196.389 169.421 193.311 174.027 Q190.255 178.61 184.445 178.61 Q178.635 178.61 175.556 174.027 Q172.501 169.421 172.501 160.694 Q172.501 151.944 175.556 147.361 Q178.635 142.754 184.445 142.754 Z" fill="#000000" fill-rule="nonzero" fill-opacity="1" /><path clip-path="url(#clip400)" d="M39.4334 372.564 Q44.844 372.564 50.9309 374.303 Q56.9856 376.01 61.8809 378.715 Q66.744 381.42 69.9646 384.963 Q73.153 388.505 73.153 391.887 Q73.153 394.045 71.9613 395.655 Q70.7375 397.233 68.7085 398.103 Q66.6474 398.972 64.393 399.391 Q62.1063 399.81 59.6265 399.81 Q55.9228 399.81 51.8971 399.005 Q47.8391 398.199 44.1677 396.847 Q40.464 395.494 37.1146 393.594 Q33.733 391.694 31.2853 389.6 Q28.8055 387.475 27.3562 385.092 Q25.907 382.708 25.907 380.486 Q25.907 378.876 26.6155 377.588 Q27.2918 376.267 28.4834 375.43 Q29.6428 374.593 31.0277 374.013 Q32.4125 373.401 34.0228 373.111 Q35.6009 372.821 36.9214 372.692 Q38.2096 372.564 39.4334 372.564 M35.3433 376.911 Q33.7008 376.911 32.477 377.04 Q31.2209 377.169 29.9649 377.523 Q28.7089 377.878 28.0325 378.65 Q27.3562 379.391 27.3562 380.551 Q27.3562 383.932 34.2805 387.733 Q36.4383 388.956 39.369 390.051 Q42.2997 391.146 43.6846 391.533 Q45.0694 391.919 48.4833 392.821 L48.4833 379.037 Q39.6911 376.911 35.3433 376.911 M50.5766 379.617 L50.5766 393.336 Q58.6281 395.462 63.6522 395.462 Q68.0322 395.462 69.868 394.56 Q71.6715 393.626 71.6715 391.887 Q71.6715 389.89 69.6747 388.022 Q67.6458 386.154 63.9743 384.254 Q59.2078 381.742 50.5766 379.617 Z" fill="#000000" fill-rule="nonzero" fill-opacity="1" /><path clip-path="url(#clip400)" d="M22.9507 328.256 Q30.2712 332.521 37.4327 334.59 Q44.5941 336.658 51.9465 336.658 Q59.2989 336.658 66.5239 334.59 Q73.7172 332.489 81.0059 328.256 L81.0059 333.348 Q73.5262 338.123 66.3011 340.51 Q59.0761 342.865 51.9465 342.865 Q44.8487 342.865 37.6555 340.51 Q30.4622 338.154 22.9507 333.348 L22.9507 328.256 Z" fill="#000000" fill-rule="nonzero" fill-opacity="1" /><path clip-path="url(#clip400)" d="M28.1387 306.74 Q28.1387 309.286 29.9211 311.036 Q31.6717 312.787 34.218 312.787 Q36.7324 312.787 38.483 311.036 Q40.2017 309.286 40.2017 306.74 Q40.2017 304.193 38.483 302.443 Q36.7324 300.692 34.218 300.692 Q31.7035 300.692 29.9211 302.475 Q28.1387 304.225 28.1387 306.74 M24.0328 306.74 Q24.0328 304.703 24.8286 302.825 Q25.5924 300.947 27.0566 299.578 Q28.4888 298.114 30.3031 297.382 Q32.1173 296.65 34.218 296.65 Q38.4193 296.65 41.3476 299.61 Q44.244 302.538 44.244 306.803 Q44.244 311.1 41.3794 313.965 Q38.5148 316.829 34.218 316.829 Q29.953 316.829 26.9929 313.901 Q24.0328 310.973 24.0328 306.74 Z" fill="#000000" fill-rule="nonzero" fill-opacity="1" /><path clip-path="url(#clip400)" d="M22.9507 285.224 L22.9507 280.131 Q30.4622 275.357 37.6555 273.001 Q44.8487 270.614 51.9465 270.614 Q59.0761 270.614 66.3011 273.001 Q73.5262 275.357 81.0059 280.131 L81.0059 285.224 Q73.7172 280.99 66.5239 278.921 Q59.2989 276.821 51.9465 276.821 Q44.5941 276.821 37.4327 278.921 Q30.2712 280.99 22.9507 285.224 Z" fill="#000000" fill-rule="nonzero" fill-opacity="1" /><polyline clip-path="url(#clip402)" style="stroke:#009af9; stroke-linecap:round; stroke-linejoin:round; stroke-width:4; stroke-opacity:1; fill:none" points="258.086,606.88 283.279,588.055 308.473,555.425 333.666,522.415 358.859,485.456 384.052,448.084 409.245,413.524 434.438,381.561 459.631,352.076 484.824,324.986 510.017,299.309 535.21,273.682 560.403,246.541 585.597,216.08 610.79,180.038 635.983,138.924 661.176,105.776 686.369,87.0751 711.562,76.5681 736.755,70.1248 761.948,66.3038 787.141,64.3105 812.334,63.5442 837.528,63.5532 862.721,64.0185 887.914,64.7246 913.107,65.5311 938.3,66.3496 963.493,67.1274 988.686,67.8357 1013.88,68.4619 1039.07,69.0031 1064.27,69.4627 1089.46,69.8473 1114.65,70.1653 "/>
<polyline clip-path="url(#clip402)" style="stroke:#3da44d; stroke-linecap:round; stroke-linejoin:round; stroke-width:3; stroke-opacity:1; fill:none" stroke-dasharray="12, 8" points="258.086,71.4151 283.279,71.4151 308.473,71.4151 333.666,71.4151 358.859,71.4151 384.052,71.4151 409.245,71.4151 434.438,71.4151 459.631,71.4151 484.824,71.4151 510.017,71.4151 535.21,71.4151 560.403,71.4151 585.597,71.4151 610.79,71.4151 635.983,71.4151 661.176,71.4151 686.369,71.4151 711.562,71.4151 736.755,71.4151 761.948,71.4151 787.141,71.4151 812.334,71.4151 837.528,71.4151 862.721,71.4151 887.914,71.4151 913.107,71.4151 938.3,71.4151 963.493,71.4151 988.686,71.4151 1013.88,71.4151 1039.07,71.4151 1064.27,71.4151 1089.46,71.4151 1114.65,71.4151 "/>
<path clip-path="url(#clip400)" d="M971.279 603.982 L1110.08 603.982 L1110.08 448.462 L971.279 448.462  Z" fill="#ffffff" fill-rule="evenodd" fill-opacity="1"/>
<polyline clip-path="url(#clip400)" style="stroke:#000000; stroke-linecap:round; stroke-linejoin:round; stroke-width:4; stroke-opacity:1; fill:none" points="971.279,603.982 1110.08,603.982 1110.08,448.462 971.279,448.462 971.279,603.982 "/>
<polyline clip-path="url(#clip400)" style="stroke:#009af9; stroke-linecap:round; stroke-linejoin:round; stroke-width:4; stroke-opacity:1; fill:none" points="981.367,500.302 1041.9,500.302 "/>
<path clip-path="url(#clip400)" d="M1078.76 487.041 Q1077.28 487.041 1076.53 487.181 Q1075.78 487.298 1075.6 487.462 Q1075.41 487.626 1075.2 488.048 L1064.89 509.971 Q1063.79 512.314 1061.73 514 Q1059.69 515.686 1057.12 515.686 Q1054.96 515.686 1053.46 514.375 Q1051.99 513.087 1051.99 511.26 Q1051.99 509.948 1052.81 509.198 Q1053.63 508.472 1054.73 508.472 Q1055.94 508.472 1056.72 509.245 Q1057.51 510.018 1057.51 511.213 Q1057.51 511.986 1057.19 512.571 Q1056.86 513.18 1056.55 513.391 Q1056.27 513.625 1055.97 513.766 Q1056.46 513.953 1057.12 513.953 Q1058.1 513.953 1058.94 513.555 Q1059.81 513.18 1060.37 512.665 Q1060.96 512.173 1061.54 511.283 Q1062.13 510.416 1062.41 509.854 Q1062.69 509.316 1063.11 508.379 L1064.21 506.083 L1055.24 487.041 L1052.17 487.041 L1052.17 484.792 L1057.65 484.933 L1063.6 484.792 L1063.6 487.041 L1061 487.041 L1067.09 499.993 L1072.62 488.188 L1072.86 487.626 Q1072.86 487.369 1072.29 487.228 Q1071.73 487.064 1071.17 487.064 L1070.61 487.041 L1070.61 484.792 L1074.96 484.933 Q1077.02 484.933 1078.76 484.792 L1078.76 487.041 Z" fill="#000000" fill-rule="nonzero" fill-opacity="1" /><polyline clip-path="url(#clip400)" style="stroke:#3da44d; stroke-linecap:round; stroke-linejoin:round; stroke-width:3; stroke-opacity:1; fill:none" stroke-dasharray="12, 8" points="981.367,552.142 1041.9,552.142 "/>
<path clip-path="url(#clip400)" d="M1071.4 537.42 Q1071.4 538.778 1070.51 539.575 Q1069.62 540.348 1068.48 540.348 Q1067.33 540.348 1066.44 539.575 Q1065.55 538.802 1065.55 537.42 Q1065.55 536.811 1065.76 536.272 Q1065.99 535.71 1066.23 535.452 L1066.46 535.218 Q1065.08 535.218 1064 535.874 Q1062.92 536.506 1062.27 537.49 Q1061.61 538.474 1061.19 539.762 Q1060.77 541.027 1060.61 542.175 Q1060.46 543.322 1060.46 544.423 L1060.46 552.832 L1064.63 552.832 L1064.63 555.08 Q1062.9 554.94 1058.03 554.94 L1051.99 555.08 L1051.99 552.832 L1055.29 552.832 L1055.29 538.005 Q1055.29 536.647 1054.8 536.389 Q1054.3 536.132 1051.99 536.132 L1051.99 533.883 L1059.95 533.485 L1059.95 538.919 Q1061.94 533.485 1066.32 533.485 Q1068.33 533.485 1069.86 534.562 Q1071.4 535.616 1071.4 537.42 Z" fill="#000000" fill-rule="nonzero" fill-opacity="1" /><path clip-path="url(#clip400)" d="M1095.07 550.604 Q1094.03 550.604 1093.51 550.702 Q1092.98 550.784 1092.85 550.899 Q1092.72 551.013 1092.57 551.309 L1085.36 566.655 Q1084.59 568.294 1083.15 569.475 Q1081.72 570.655 1079.92 570.655 Q1078.41 570.655 1077.36 569.737 Q1076.32 568.836 1076.32 567.557 Q1076.32 566.639 1076.9 566.114 Q1077.47 565.606 1078.24 565.606 Q1079.1 565.606 1079.64 566.147 Q1080.19 566.688 1080.19 567.524 Q1080.19 568.065 1079.96 568.475 Q1079.74 568.901 1079.52 569.049 Q1079.33 569.213 1079.11 569.311 Q1079.46 569.442 1079.92 569.442 Q1080.6 569.442 1081.19 569.163 Q1081.8 568.901 1082.19 568.54 Q1082.6 568.196 1083.01 567.573 Q1083.42 566.966 1083.62 566.573 Q1083.82 566.196 1084.11 565.54 L1084.88 563.933 L1078.6 550.604 L1076.46 550.604 L1076.46 549.03 L1080.29 549.128 L1084.46 549.03 L1084.46 550.604 L1082.64 550.604 L1086.9 559.67 L1090.77 551.407 L1090.93 551.013 Q1090.93 550.833 1090.54 550.735 Q1090.15 550.62 1089.75 550.62 L1089.36 550.604 L1089.36 549.03 L1092.41 549.128 Q1093.85 549.128 1095.07 549.03 L1095.07 550.604 Z" fill="#000000" fill-rule="nonzero" fill-opacity="1" /><path clip-path="url(#clip400)" d="M1444.8 623.18 L2352.76 623.18 L2352.76 47.2441 L1444.8 47.2441  Z" fill="#ffffff" fill-rule="evenodd" fill-opacity="1"/>
<defs>
  <clipPath id="clip403">
    <rect x="1444" y="47" width="909" height="577"/>
  </clipPath>
</defs>
<polyline clip-path="url(#clip403)" style="stroke:#000000; stroke-linecap:round; stroke-linejoin:round; stroke-width:2; stroke-opacity:0.1; fill:none" points="1470.49,623.18 1470.49,47.2441 "/>
<polyline clip-path="url(#clip403)" style="stroke:#000000; stroke-linecap:round; stroke-linejoin:round; stroke-width:2; stroke-opacity:0.1; fill:none" points="1722.42,623.18 1722.42,47.2441 "/>
<polyline clip-path="url(#clip403)" style="stroke:#000000; stroke-linecap:round; stroke-linejoin:round; stroke-width:2; stroke-opacity:0.1; fill:none" points="1974.36,623.18 1974.36,47.2441 "/>
<polyline clip-path="url(#clip403)" style="stroke:#000000; stroke-linecap:round; stroke-linejoin:round; stroke-width:2; stroke-opacity:0.1; fill:none" points="2226.29,623.18 2226.29,47.2441 "/>
<polyline clip-path="url(#clip403)" style="stroke:#000000; stroke-linecap:round; stroke-linejoin:round; stroke-width:2; stroke-opacity:0.1; fill:none" points="1444.8,606.88 2352.76,606.88 "/>
<polyline clip-path="url(#clip403)" style="stroke:#000000; stroke-linecap:round; stroke-linejoin:round; stroke-width:2; stroke-opacity:0.1; fill:none" points="1444.8,516.324 2352.76,516.324 "/>
<polyline clip-path="url(#clip403)" style="stroke:#000000; stroke-linecap:round; stroke-linejoin:round; stroke-width:2; stroke-opacity:0.1; fill:none" points="1444.8,425.768 2352.76,425.768 "/>
<polyline clip-path="url(#clip403)" style="stroke:#000000; stroke-linecap:round; stroke-linejoin:round; stroke-width:2; stroke-opacity:0.1; fill:none" points="1444.8,335.212 2352.76,335.212 "/>
<polyline clip-path="url(#clip403)" style="stroke:#000000; stroke-linecap:round; stroke-linejoin:round; stroke-width:2; stroke-opacity:0.1; fill:none" points="1444.8,244.656 2352.76,244.656 "/>
<polyline clip-path="url(#clip403)" style="stroke:#000000; stroke-linecap:round; stroke-linejoin:round; stroke-width:2; stroke-opacity:0.1; fill:none" points="1444.8,154.1 2352.76,154.1 "/>
<polyline clip-path="url(#clip403)" style="stroke:#000000; stroke-linecap:round; stroke-linejoin:round; stroke-width:2; stroke-opacity:0.1; fill:none" points="1444.8,63.5442 2352.76,63.5442 "/>
<polyline clip-path="url(#clip400)" style="stroke:#000000; stroke-linecap:round; stroke-linejoin:round; stroke-width:4; stroke-opacity:1; fill:none" points="1444.8,623.18 2352.76,623.18 "/>
<polyline clip-path="url(#clip400)" style="stroke:#000000; stroke-linecap:round; stroke-linejoin:round; stroke-width:4; stroke-opacity:1; fill:none" points="1470.49,623.18 1470.49,604.282 "/>
<polyline clip-path="url(#clip400)" style="stroke:#000000; stroke-linecap:round; stroke-linejoin:round; stroke-width:4; stroke-opacity:1; fill:none" points="1722.42,623.18 1722.42,604.282 "/>
<polyline clip-path="url(#clip400)" style="stroke:#000000; stroke-linecap:round; stroke-linejoin:round; stroke-width:4; stroke-opacity:1; fill:none" points="1974.36,623.18 1974.36,604.282 "/>
<polyline clip-path="url(#clip400)" style="stroke:#000000; stroke-linecap:round; stroke-linejoin:round; stroke-width:4; stroke-opacity:1; fill:none" points="2226.29,623.18 2226.29,604.282 "/>
<path clip-path="url(#clip400)" d="M1470.49 654.099 Q1466.88 654.099 1465.05 657.663 Q1463.25 661.205 1463.25 668.335 Q1463.25 675.441 1465.05 679.006 Q1466.88 682.547 1470.49 682.547 Q1474.13 682.547 1475.93 679.006 Q1477.76 675.441 1477.76 668.335 Q1477.76 661.205 1475.93 657.663 Q1474.13 654.099 1470.49 654.099 M1470.49 650.395 Q1476.3 650.395 1479.36 655.001 Q1482.44 659.585 1482.44 668.335 Q1482.44 677.061 1479.36 681.668 Q1476.3 686.251 1470.49 686.251 Q1464.68 686.251 1461.6 681.668 Q1458.55 677.061 1458.55 668.335 Q1458.55 659.585 1461.6 655.001 Q1464.68 650.395 1470.49 650.395 Z" fill="#000000" fill-rule="nonzero" fill-opacity="1" /><path clip-path="url(#clip400)" d="M1712.81 681.645 L1720.45 681.645 L1720.45 655.279 L1712.14 656.946 L1712.14 652.687 L1720.4 651.02 L1725.08 651.02 L1725.08 681.645 L1732.71 681.645 L1732.71 685.58 L1712.81 685.58 L1712.81 681.645 Z" fill="#000000" fill-rule="nonzero" fill-opacity="1" /><path clip-path="url(#clip400)" d="M1969.01 681.645 L1985.33 681.645 L1985.33 685.58 L1963.38 685.58 L1963.38 681.645 Q1966.05 678.89 1970.63 674.26 Q1975.24 669.608 1976.42 668.265 Q1978.66 665.742 1979.54 664.006 Q1980.44 662.247 1980.44 660.557 Q1980.44 657.802 1978.5 656.066 Q1976.58 654.33 1973.48 654.33 Q1971.28 654.33 1968.82 655.094 Q1966.39 655.858 1963.61 657.409 L1963.61 652.687 Q1966.44 651.552 1968.89 650.974 Q1971.35 650.395 1973.38 650.395 Q1978.75 650.395 1981.95 653.08 Q1985.14 655.765 1985.14 660.256 Q1985.14 662.386 1984.33 664.307 Q1983.55 666.205 1981.44 668.798 Q1980.86 669.469 1977.76 672.686 Q1974.66 675.881 1969.01 681.645 Z" fill="#000000" fill-rule="nonzero" fill-opacity="1" /><path clip-path="url(#clip400)" d="M2230.53 666.946 Q2233.89 667.663 2235.77 669.932 Q2237.66 672.2 2237.66 675.534 Q2237.66 680.649 2234.15 683.45 Q2230.63 686.251 2224.15 686.251 Q2221.97 686.251 2219.65 685.811 Q2217.36 685.395 2214.91 684.538 L2214.91 680.024 Q2216.85 681.159 2219.17 681.737 Q2221.48 682.316 2224.01 682.316 Q2228.4 682.316 2230.7 680.58 Q2233.01 678.844 2233.01 675.534 Q2233.01 672.478 2230.86 670.765 Q2228.73 669.029 2224.91 669.029 L2220.88 669.029 L2220.88 665.186 L2225.09 665.186 Q2228.54 665.186 2230.37 663.821 Q2232.2 662.432 2232.2 659.839 Q2232.2 657.177 2230.3 655.765 Q2228.43 654.33 2224.91 654.33 Q2222.99 654.33 2220.79 654.747 Q2218.59 655.163 2215.95 656.043 L2215.95 651.876 Q2218.61 651.136 2220.93 650.765 Q2223.27 650.395 2225.33 650.395 Q2230.65 650.395 2233.75 652.825 Q2236.85 655.233 2236.85 659.353 Q2236.85 662.223 2235.21 664.214 Q2233.57 666.182 2230.53 666.946 Z" fill="#000000" fill-rule="nonzero" fill-opacity="1" /><path clip-path="url(#clip400)" d="M1768.95 720.524 L1809.15 720.524 L1809.15 725.935 L1792.28 725.935 L1792.28 768.044 L1785.82 768.044 L1785.82 725.935 L1768.95 725.935 L1768.95 720.524 Z" fill="#000000" fill-rule="nonzero" fill-opacity="1" /><path clip-path="url(#clip400)" d="M1813.09 732.396 L1818.95 732.396 L1818.95 768.044 L1813.09 768.044 L1813.09 732.396 M1813.09 718.519 L1818.95 718.519 L1818.95 725.935 L1813.09 725.935 L1813.09 718.519 Z" fill="#000000" fill-rule="nonzero" fill-opacity="1" /><path clip-path="url(#clip400)" d="M1858.96 739.239 Q1861.15 735.292 1864.21 733.414 Q1867.27 731.537 1871.4 731.537 Q1876.97 731.537 1880 735.451 Q1883.02 739.335 1883.02 746.528 L1883.02 768.044 L1877.13 768.044 L1877.13 746.719 Q1877.13 741.594 1875.32 739.112 Q1873.5 736.629 1869.78 736.629 Q1865.23 736.629 1862.59 739.653 Q1859.95 742.677 1859.95 747.896 L1859.95 768.044 L1854.06 768.044 L1854.06 746.719 Q1854.06 741.563 1852.24 739.112 Q1850.43 736.629 1846.64 736.629 Q1842.15 736.629 1839.51 739.685 Q1836.87 742.708 1836.87 747.896 L1836.87 768.044 L1830.98 768.044 L1830.98 732.396 L1836.87 732.396 L1836.87 737.934 Q1838.87 734.656 1841.68 733.096 Q1844.48 731.537 1848.33 731.537 Q1852.21 731.537 1854.92 733.51 Q1857.65 735.483 1858.96 739.239 Z" fill="#000000" fill-rule="nonzero" fill-opacity="1" /><path clip-path="url(#clip400)" d="M1925.19 748.756 L1925.19 751.62 L1898.27 751.62 Q1898.65 757.668 1901.9 760.851 Q1905.17 764.002 1911 764.002 Q1914.37 764.002 1917.52 763.174 Q1920.71 762.347 1923.83 760.691 L1923.83 766.23 Q1920.67 767.566 1917.36 768.267 Q1914.05 768.967 1910.65 768.967 Q1902.12 768.967 1897.12 764.002 Q1892.16 759.036 1892.16 750.57 Q1892.16 741.817 1896.87 736.693 Q1901.61 731.537 1909.63 731.537 Q1916.82 731.537 1920.99 736.183 Q1925.19 740.799 1925.19 748.756 M1919.34 747.037 Q1919.27 742.231 1916.63 739.366 Q1914.02 736.502 1909.69 736.502 Q1904.79 736.502 1901.83 739.271 Q1898.9 742.04 1898.46 747.069 L1919.34 747.037 Z" fill="#000000" fill-rule="nonzero" fill-opacity="1" /><path clip-path="url(#clip400)" d="M1969.59 718.582 Q1965.33 725.903 1963.26 733.064 Q1961.19 740.226 1961.19 747.578 Q1961.19 754.93 1963.26 762.156 Q1965.36 769.349 1969.59 776.638 L1964.5 776.638 Q1959.73 769.158 1957.34 761.933 Q1954.99 754.708 1954.99 747.578 Q1954.99 740.48 1957.34 733.287 Q1959.7 726.094 1964.5 718.582 L1969.59 718.582 Z" fill="#000000" fill-rule="nonzero" fill-opacity="1" /><path clip-path="url(#clip400)" d="M2003.68 733.446 L2003.68 738.984 Q2001.2 737.711 1998.53 737.075 Q1995.85 736.438 1992.99 736.438 Q1988.63 736.438 1986.43 737.775 Q1984.27 739.112 1984.27 741.785 Q1984.27 743.822 1985.83 745 Q1987.39 746.146 1992.1 747.196 L1994.1 747.642 Q2000.34 748.979 2002.95 751.429 Q2005.59 753.848 2005.59 758.209 Q2005.59 763.174 2001.65 766.07 Q1997.73 768.967 1990.86 768.967 Q1987.99 768.967 1984.87 768.394 Q1981.79 767.853 1978.35 766.739 L1978.35 760.691 Q1981.59 762.378 1984.75 763.238 Q1987.9 764.065 1990.98 764.065 Q1995.12 764.065 1997.35 762.665 Q1999.58 761.233 1999.58 758.654 Q1999.58 756.267 1997.95 754.994 Q1996.36 753.721 1990.92 752.543 L1988.88 752.066 Q1983.44 750.92 1981.02 748.565 Q1978.6 746.178 1978.6 742.04 Q1978.6 737.011 1982.17 734.274 Q1985.73 731.537 1992.29 731.537 Q1995.54 731.537 1998.4 732.014 Q2001.26 732.491 2003.68 733.446 Z" fill="#000000" fill-rule="nonzero" fill-opacity="1" /><path clip-path="url(#clip400)" d="M2014 718.582 L2019.09 718.582 Q2023.86 726.094 2026.22 733.287 Q2028.6 740.48 2028.6 747.578 Q2028.6 754.708 2026.22 761.933 Q2023.86 769.158 2019.09 776.638 L2014 776.638 Q2018.23 769.349 2020.3 762.156 Q2022.4 754.93 2022.4 747.578 Q2022.4 740.226 2020.3 733.064 Q2018.23 725.903 2014 718.582 Z" fill="#000000" fill-rule="nonzero" fill-opacity="1" /><polyline clip-path="url(#clip400)" style="stroke:#000000; stroke-linecap:round; stroke-linejoin:round; stroke-width:4; stroke-opacity:1; fill:none" points="1444.8,623.18 1444.8,47.2441 "/>
<polyline clip-path="url(#clip400)" style="stroke:#000000; stroke-linecap:round; stroke-linejoin:round; stroke-width:4; stroke-opacity:1; fill:none" points="1444.8,606.88 1463.69,606.88 "/>
<polyline clip-path="url(#clip400)" style="stroke:#000000; stroke-linecap:round; stroke-linejoin:round; stroke-width:4; stroke-opacity:1; fill:none" points="1444.8,516.324 1463.69,516.324 "/>
<polyline clip-path="url(#clip400)" style="stroke:#000000; stroke-linecap:round; stroke-linejoin:round; stroke-width:4; stroke-opacity:1; fill:none" points="1444.8,425.768 1463.69,425.768 "/>
<polyline clip-path="url(#clip400)" style="stroke:#000000; stroke-linecap:round; stroke-linejoin:round; stroke-width:4; stroke-opacity:1; fill:none" points="1444.8,335.212 1463.69,335.212 "/>
<polyline clip-path="url(#clip400)" style="stroke:#000000; stroke-linecap:round; stroke-linejoin:round; stroke-width:4; stroke-opacity:1; fill:none" points="1444.8,244.656 1463.69,244.656 "/>
<polyline clip-path="url(#clip400)" style="stroke:#000000; stroke-linecap:round; stroke-linejoin:round; stroke-width:4; stroke-opacity:1; fill:none" points="1444.8,154.1 1463.69,154.1 "/>
<polyline clip-path="url(#clip400)" style="stroke:#000000; stroke-linecap:round; stroke-linejoin:round; stroke-width:4; stroke-opacity:1; fill:none" points="1444.8,63.5442 1463.69,63.5442 "/>
<path clip-path="url(#clip400)" d="M1302.85 607.331 L1332.52 607.331 L1332.52 611.266 L1302.85 611.266 L1302.85 607.331 Z" fill="#000000" fill-rule="nonzero" fill-opacity="1" /><path clip-path="url(#clip400)" d="M1343.43 620.225 L1351.07 620.225 L1351.07 593.859 L1342.76 595.526 L1342.76 591.266 L1351.02 589.6 L1355.7 589.6 L1355.7 620.225 L1363.33 620.225 L1363.33 624.16 L1343.43 624.16 L1343.43 620.225 Z" fill="#000000" fill-rule="nonzero" fill-opacity="1" /><path clip-path="url(#clip400)" d="M1372.78 618.28 L1377.66 618.28 L1377.66 624.16 L1372.78 624.16 L1372.78 618.28 Z" fill="#000000" fill-rule="nonzero" fill-opacity="1" /><path clip-path="url(#clip400)" d="M1387.89 589.6 L1406.25 589.6 L1406.25 593.535 L1392.18 593.535 L1392.18 602.007 Q1393.19 601.66 1394.21 601.498 Q1395.23 601.313 1396.25 601.313 Q1402.04 601.313 1405.42 604.484 Q1408.8 607.655 1408.8 613.072 Q1408.8 618.651 1405.32 621.752 Q1401.85 624.831 1395.53 624.831 Q1393.36 624.831 1391.09 624.461 Q1388.84 624.09 1386.44 623.35 L1386.44 618.651 Q1388.52 619.785 1390.74 620.34 Q1392.96 620.896 1395.44 620.896 Q1399.44 620.896 1401.78 618.789 Q1404.12 616.683 1404.12 613.072 Q1404.12 609.461 1401.78 607.354 Q1399.44 605.248 1395.44 605.248 Q1393.57 605.248 1391.69 605.665 Q1389.84 606.081 1387.89 606.961 L1387.89 589.6 Z" fill="#000000" fill-rule="nonzero" fill-opacity="1" /><path clip-path="url(#clip400)" d="M1301.85 516.775 L1331.53 516.775 L1331.53 520.71 L1301.85 520.71 L1301.85 516.775 Z" fill="#000000" fill-rule="nonzero" fill-opacity="1" /><path clip-path="url(#clip400)" d="M1342.43 529.669 L1350.07 529.669 L1350.07 503.303 L1341.76 504.97 L1341.76 500.71 L1350.02 499.044 L1354.7 499.044 L1354.7 529.669 L1362.34 529.669 L1362.34 533.604 L1342.43 533.604 L1342.43 529.669 Z" fill="#000000" fill-rule="nonzero" fill-opacity="1" /><path clip-path="url(#clip400)" d="M1371.78 527.724 L1376.67 527.724 L1376.67 533.604 L1371.78 533.604 L1371.78 527.724 Z" fill="#000000" fill-rule="nonzero" fill-opacity="1" /><path clip-path="url(#clip400)" d="M1396.85 502.123 Q1393.24 502.123 1391.41 505.687 Q1389.61 509.229 1389.61 516.359 Q1389.61 523.465 1391.41 527.03 Q1393.24 530.571 1396.85 530.571 Q1400.49 530.571 1402.29 527.03 Q1404.12 523.465 1404.12 516.359 Q1404.12 509.229 1402.29 505.687 Q1400.49 502.123 1396.85 502.123 M1396.85 498.419 Q1402.66 498.419 1405.72 503.025 Q1408.8 507.609 1408.8 516.359 Q1408.8 525.085 1405.72 529.692 Q1402.66 534.275 1396.85 534.275 Q1391.04 534.275 1387.96 529.692 Q1384.91 525.085 1384.91 516.359 Q1384.91 507.609 1387.96 503.025 Q1391.04 498.419 1396.85 498.419 Z" fill="#000000" fill-rule="nonzero" fill-opacity="1" /><path clip-path="url(#clip400)" d="M1302.85 426.219 L1332.52 426.219 L1332.52 430.154 L1302.85 430.154 L1302.85 426.219 Z" fill="#000000" fill-rule="nonzero" fill-opacity="1" /><path clip-path="url(#clip400)" d="M1352.62 411.567 Q1349.01 411.567 1347.18 415.131 Q1345.37 418.673 1345.37 425.803 Q1345.37 432.909 1347.18 436.474 Q1349.01 440.016 1352.62 440.016 Q1356.25 440.016 1358.06 436.474 Q1359.88 432.909 1359.88 425.803 Q1359.88 418.673 1358.06 415.131 Q1356.25 411.567 1352.62 411.567 M1352.62 407.863 Q1358.43 407.863 1361.48 412.469 Q1364.56 417.053 1364.56 425.803 Q1364.56 434.529 1361.48 439.136 Q1358.43 443.719 1352.62 443.719 Q1346.81 443.719 1343.73 439.136 Q1340.67 434.529 1340.67 425.803 Q1340.67 417.053 1343.73 412.469 Q1346.81 407.863 1352.62 407.863 Z" fill="#000000" fill-rule="nonzero" fill-opacity="1" /><path clip-path="url(#clip400)" d="M1372.78 437.168 L1377.66 437.168 L1377.66 443.048 L1372.78 443.048 L1372.78 437.168 Z" fill="#000000" fill-rule="nonzero" fill-opacity="1" /><path clip-path="url(#clip400)" d="M1387.89 408.488 L1406.25 408.488 L1406.25 412.423 L1392.18 412.423 L1392.18 420.895 Q1393.19 420.548 1394.21 420.386 Q1395.23 420.201 1396.25 420.201 Q1402.04 420.201 1405.42 423.372 Q1408.8 426.543 1408.8 431.96 Q1408.8 437.539 1405.32 440.641 Q1401.85 443.719 1395.53 443.719 Q1393.36 443.719 1391.09 443.349 Q1388.84 442.978 1386.44 442.238 L1386.44 437.539 Q1388.52 438.673 1390.74 439.228 Q1392.96 439.784 1395.44 439.784 Q1399.44 439.784 1401.78 437.678 Q1404.12 435.571 1404.12 431.96 Q1404.12 428.349 1401.78 426.242 Q1399.44 424.136 1395.44 424.136 Q1393.57 424.136 1391.69 424.553 Q1389.84 424.969 1387.89 425.849 L1387.89 408.488 Z" fill="#000000" fill-rule="nonzero" fill-opacity="1" /><path clip-path="url(#clip400)" d="M1351.62 321.011 Q1348.01 321.011 1346.18 324.575 Q1344.38 328.117 1344.38 335.247 Q1344.38 342.353 1346.18 345.918 Q1348.01 349.46 1351.62 349.46 Q1355.26 349.46 1357.06 345.918 Q1358.89 342.353 1358.89 335.247 Q1358.89 328.117 1357.06 324.575 Q1355.26 321.011 1351.62 321.011 M1351.62 317.307 Q1357.43 317.307 1360.49 321.913 Q1363.57 326.497 1363.57 335.247 Q1363.57 343.973 1360.49 348.58 Q1357.43 353.163 1351.62 353.163 Q1345.81 353.163 1342.73 348.58 Q1339.68 343.973 1339.68 335.247 Q1339.68 326.497 1342.73 321.913 Q1345.81 317.307 1351.62 317.307 Z" fill="#000000" fill-rule="nonzero" fill-opacity="1" /><path clip-path="url(#clip400)" d="M1371.78 346.612 L1376.67 346.612 L1376.67 352.492 L1371.78 352.492 L1371.78 346.612 Z" fill="#000000" fill-rule="nonzero" fill-opacity="1" /><path clip-path="url(#clip400)" d="M1396.85 321.011 Q1393.24 321.011 1391.41 324.575 Q1389.61 328.117 1389.61 335.247 Q1389.61 342.353 1391.41 345.918 Q1393.24 349.46 1396.85 349.46 Q1400.49 349.46 1402.29 345.918 Q1404.12 342.353 1404.12 335.247 Q1404.12 328.117 1402.29 324.575 Q1400.49 321.011 1396.85 321.011 M1396.85 317.307 Q1402.66 317.307 1405.72 321.913 Q1408.8 326.497 1408.8 335.247 Q1408.8 343.973 1405.72 348.58 Q1402.66 353.163 1396.85 353.163 Q1391.04 353.163 1387.96 348.58 Q1384.91 343.973 1384.91 335.247 Q1384.91 326.497 1387.96 321.913 Q1391.04 317.307 1396.85 317.307 Z" fill="#000000" fill-rule="nonzero" fill-opacity="1" /><path clip-path="url(#clip400)" d="M1352.62 230.455 Q1349.01 230.455 1347.18 234.02 Q1345.37 237.561 1345.37 244.691 Q1345.37 251.797 1347.18 255.362 Q1349.01 258.904 1352.62 258.904 Q1356.25 258.904 1358.06 255.362 Q1359.88 251.797 1359.88 244.691 Q1359.88 237.561 1358.06 234.02 Q1356.25 230.455 1352.62 230.455 M1352.62 226.751 Q1358.43 226.751 1361.48 231.357 Q1364.56 235.941 1364.56 244.691 Q1364.56 253.418 1361.48 258.024 Q1358.43 262.607 1352.62 262.607 Q1346.81 262.607 1343.73 258.024 Q1340.67 253.418 1340.67 244.691 Q1340.67 235.941 1343.73 231.357 Q1346.81 226.751 1352.62 226.751 Z" fill="#000000" fill-rule="nonzero" fill-opacity="1" /><path clip-path="url(#clip400)" d="M1372.78 256.056 L1377.66 256.056 L1377.66 261.936 L1372.78 261.936 L1372.78 256.056 Z" fill="#000000" fill-rule="nonzero" fill-opacity="1" /><path clip-path="url(#clip400)" d="M1387.89 227.376 L1406.25 227.376 L1406.25 231.311 L1392.18 231.311 L1392.18 239.783 Q1393.19 239.436 1394.21 239.274 Q1395.23 239.089 1396.25 239.089 Q1402.04 239.089 1405.42 242.26 Q1408.8 245.431 1408.8 250.848 Q1408.8 256.427 1405.32 259.529 Q1401.85 262.607 1395.53 262.607 Q1393.36 262.607 1391.09 262.237 Q1388.84 261.867 1386.44 261.126 L1386.44 256.427 Q1388.52 257.561 1390.74 258.117 Q1392.96 258.672 1395.44 258.672 Q1399.44 258.672 1401.78 256.566 Q1404.12 254.459 1404.12 250.848 Q1404.12 247.237 1401.78 245.131 Q1399.44 243.024 1395.44 243.024 Q1393.57 243.024 1391.69 243.441 Q1389.84 243.857 1387.89 244.737 L1387.89 227.376 Z" fill="#000000" fill-rule="nonzero" fill-opacity="1" /><path clip-path="url(#clip400)" d="M1342.43 167.445 L1350.07 167.445 L1350.07 141.079 L1341.76 142.746 L1341.76 138.487 L1350.02 136.82 L1354.7 136.82 L1354.7 167.445 L1362.34 167.445 L1362.34 171.38 L1342.43 171.38 L1342.43 167.445 Z" fill="#000000" fill-rule="nonzero" fill-opacity="1" /><path clip-path="url(#clip400)" d="M1371.78 165.501 L1376.67 165.501 L1376.67 171.38 L1371.78 171.38 L1371.78 165.501 Z" fill="#000000" fill-rule="nonzero" fill-opacity="1" /><path clip-path="url(#clip400)" d="M1396.85 139.899 Q1393.24 139.899 1391.41 143.464 Q1389.61 147.005 1389.61 154.135 Q1389.61 161.241 1391.41 164.806 Q1393.24 168.348 1396.85 168.348 Q1400.49 168.348 1402.29 164.806 Q1404.12 161.241 1404.12 154.135 Q1404.12 147.005 1402.29 143.464 Q1400.49 139.899 1396.85 139.899 M1396.85 136.195 Q1402.66 136.195 1405.72 140.802 Q1408.8 145.385 1408.8 154.135 Q1408.8 162.862 1405.72 167.468 Q1402.66 172.051 1396.85 172.051 Q1391.04 172.051 1387.96 167.468 Q1384.91 162.862 1384.91 154.135 Q1384.91 145.385 1387.96 140.802 Q1391.04 136.195 1396.85 136.195 Z" fill="#000000" fill-rule="nonzero" fill-opacity="1" /><path clip-path="url(#clip400)" d="M1343.43 76.889 L1351.07 76.889 L1351.07 50.5234 L1342.76 52.1901 L1342.76 47.9308 L1351.02 46.2642 L1355.7 46.2642 L1355.7 76.889 L1363.33 76.889 L1363.33 80.8242 L1343.43 80.8242 L1343.43 76.889 Z" fill="#000000" fill-rule="nonzero" fill-opacity="1" /><path clip-path="url(#clip400)" d="M1372.78 74.9446 L1377.66 74.9446 L1377.66 80.8242 L1372.78 80.8242 L1372.78 74.9446 Z" fill="#000000" fill-rule="nonzero" fill-opacity="1" /><path clip-path="url(#clip400)" d="M1387.89 46.2642 L1406.25 46.2642 L1406.25 50.1993 L1392.18 50.1993 L1392.18 58.6715 Q1393.19 58.3243 1394.21 58.1622 Q1395.23 57.9771 1396.25 57.9771 Q1402.04 57.9771 1405.42 61.1483 Q1408.8 64.3196 1408.8 69.7363 Q1408.8 75.3149 1405.32 78.4168 Q1401.85 81.4955 1395.53 81.4955 Q1393.36 81.4955 1391.09 81.1251 Q1388.84 80.7547 1386.44 80.014 L1386.44 75.3149 Q1388.52 76.4492 1390.74 77.0047 Q1392.96 77.5603 1395.44 77.5603 Q1399.44 77.5603 1401.78 75.4538 Q1404.12 73.3474 1404.12 69.7363 Q1404.12 66.1252 1401.78 64.0187 Q1399.44 61.9122 1395.44 61.9122 Q1393.57 61.9122 1391.69 62.3289 Q1389.84 62.7456 1387.89 63.6252 L1387.89 46.2642 Z" fill="#000000" fill-rule="nonzero" fill-opacity="1" /><path clip-path="url(#clip400)" d="M1224.17 406.642 Q1226.42 406.642 1226.42 409.895 L1226.42 420.974 L1249 425.386 Q1249.58 425.483 1249.9 425.612 Q1250.22 425.708 1250.77 425.998 Q1251.29 426.256 1251.54 426.803 Q1251.83 427.318 1251.83 428.091 Q1251.83 429.058 1251.25 429.541 Q1250.71 429.992 1250.03 429.992 Q1249.61 429.992 1247.61 429.347 L1226.42 422.874 L1226.42 428.349 Q1226.42 433.502 1231.51 436.723 Q1232.19 437.238 1232.25 437.528 Q1232.28 437.657 1232.28 437.785 Q1232.28 438.14 1232.12 438.365 Q1231.96 438.558 1231.8 438.558 L1231.64 438.59 Q1231.41 438.59 1230.51 438.075 Q1229.58 437.528 1228.19 436.562 Q1226.81 435.563 1225.71 434.565 Q1224.3 433.244 1223.56 431.763 Q1222.78 430.281 1222.69 429.541 Q1222.59 428.768 1222.59 427.769 L1222.59 409.283 Q1222.59 408.446 1222.65 407.995 Q1222.69 407.544 1223.07 407.093 Q1223.43 406.642 1224.17 406.642 Z" fill="#000000" fill-rule="nonzero" fill-opacity="1" /><path clip-path="url(#clip400)" d="M1201.57 369.142 Q1208.89 373.407 1216.05 375.476 Q1223.21 377.544 1230.56 377.544 Q1237.91 377.544 1245.14 375.476 Q1252.33 373.375 1259.62 369.142 L1259.62 374.234 Q1252.14 379.009 1244.92 381.396 Q1237.69 383.751 1230.56 383.751 Q1223.46 383.751 1216.27 381.396 Q1209.08 379.04 1201.57 374.234 L1201.57 369.142 Z" fill="#000000" fill-rule="nonzero" fill-opacity="1" /><path clip-path="url(#clip400)" d="M1203.51 357.524 L1203.51 348.867 L1243.26 327.796 L1203.51 327.796 L1203.51 321.558 L1251.03 321.558 L1251.03 330.215 L1211.27 351.286 L1251.03 351.286 L1251.03 357.524 L1203.51 357.524 Z" fill="#000000" fill-rule="nonzero" fill-opacity="1" /><path clip-path="url(#clip400)" d="M1222.22 281.263 Q1218.28 279.067 1216.4 276.011 Q1214.52 272.956 1214.52 268.818 Q1214.52 263.248 1218.44 260.224 Q1222.32 257.201 1229.51 257.201 L1251.03 257.201 L1251.03 263.089 L1229.7 263.089 Q1224.58 263.089 1222.1 264.903 Q1219.61 266.718 1219.61 270.441 Q1219.61 274.993 1222.64 277.635 Q1225.66 280.276 1230.88 280.276 L1251.03 280.276 L1251.03 286.165 L1229.7 286.165 Q1224.55 286.165 1222.1 287.979 Q1219.61 289.793 1219.61 293.581 Q1219.61 298.069 1222.67 300.71 Q1225.69 303.352 1230.88 303.352 L1251.03 303.352 L1251.03 309.24 L1215.38 309.24 L1215.38 303.352 L1220.92 303.352 Q1217.64 301.347 1216.08 298.546 Q1214.52 295.745 1214.52 291.894 Q1214.52 288.011 1216.49 285.305 Q1218.47 282.568 1222.22 281.263 Z" fill="#000000" fill-rule="nonzero" fill-opacity="1" /><path clip-path="url(#clip400)" d="M1201.57 246.443 L1201.57 241.35 Q1209.08 236.576 1216.27 234.221 Q1223.46 231.833 1230.56 231.833 Q1237.69 231.833 1244.92 234.221 Q1252.14 236.576 1259.62 241.35 L1259.62 246.443 Q1252.33 242.21 1245.14 240.141 Q1237.91 238.04 1230.56 238.04 Q1223.21 238.04 1216.05 240.141 Q1208.89 242.21 1201.57 246.443 Z" fill="#000000" fill-rule="nonzero" fill-opacity="1" /><polyline clip-path="url(#clip403)" style="stroke:#009af9; stroke-linecap:round; stroke-linejoin:round; stroke-width:4; stroke-opacity:1; fill:none" points="1470.49,104.891 1495.69,104.891 1495.69,228.363 1520.88,228.363 1520.88,147.778 1546.07,147.778 1546.07,101.272 1571.27,101.272 1571.27,95.5989 1596.46,95.5989 1596.46,79.5281 1621.65,79.5281 1621.65,63.5442 1646.85,63.5442 1646.85,63.5442 1672.04,63.5442 1672.04,63.5442 1697.23,63.5442 1697.23,63.5442 1722.42,63.5442 1722.42,63.5442 1747.62,63.5442 1747.62,63.5442 1772.81,63.5442 1772.81,63.5442 1798,63.5442 1798,63.5442 1823.2,63.5442 1823.2,105.285 1848.39,105.285 1848.39,281.638 1873.58,281.638 1873.58,319.367 1898.78,319.367 1898.78,323.099 1923.97,323.099 1923.97,333.061 1949.16,333.061 1949.16,341.207 1974.36,341.207 1974.36,345.852 1999.55,345.852 1999.55,347.867 2024.74,347.867 2024.74,348.263 2049.93,348.263 2049.93,347.72 2075.13,347.72 2075.13,346.673 2100.32,346.673 2100.32,345.385 2125.51,345.385 2125.51,344.035 2150.71,344.035 2150.71,342.725 2175.9,342.725 2175.9,341.514 2201.09,341.514 2201.09,340.434 2226.29,340.434 2226.29,339.492 2251.48,339.492 2251.48,338.687 2276.67,338.687 2276.67,338.011 2301.87,338.011 2301.87,337.449 2327.06,337.449 2327.06,336.988 "/>
<polyline clip-path="url(#clip403)" style="stroke:#c271d2; stroke-linecap:round; stroke-linejoin:round; stroke-width:6; stroke-opacity:1; fill:none" stroke-dasharray="3, 6" points="1470.49,606.88 1495.69,606.88 1520.88,606.88 1546.07,606.88 1571.27,606.88 1596.46,606.88 1621.65,606.88 1646.85,606.88 1672.04,606.88 1697.23,606.88 1722.42,606.88 1747.62,606.88 1772.81,606.88 1798,606.88 1823.2,606.88 1848.39,606.88 1873.58,606.88 1898.78,606.88 1923.97,606.88 1949.16,606.88 1974.36,606.88 1999.55,606.88 2024.74,606.88 2049.93,606.88 2075.13,606.88 2100.32,606.88 2125.51,606.88 2150.71,606.88 2175.9,606.88 2201.09,606.88 2226.29,606.88 2251.48,606.88 2276.67,606.88 2301.87,606.88 2327.06,606.88 "/>
<polyline clip-path="url(#clip403)" style="stroke:#ac8d18; stroke-linecap:round; stroke-linejoin:round; stroke-width:6; stroke-opacity:1; fill:none" stroke-dasharray="3, 6" points="1470.49,63.5442 1495.69,63.5442 1520.88,63.5442 1546.07,63.5442 1571.27,63.5442 1596.46,63.5442 1621.65,63.5442 1646.85,63.5442 1672.04,63.5442 1697.23,63.5442 1722.42,63.5442 1747.62,63.5442 1772.81,63.5442 1798,63.5442 1823.2,63.5442 1848.39,63.5442 1873.58,63.5442 1898.78,63.5442 1923.97,63.5442 1949.16,63.5442 1974.36,63.5442 1999.55,63.5442 2024.74,63.5442 2049.93,63.5442 2075.13,63.5442 2100.32,63.5442 2125.51,63.5442 2150.71,63.5442 2175.9,63.5442 2201.09,63.5442 2226.29,63.5442 2251.48,63.5442 2276.67,63.5442 2301.87,63.5442 2327.06,63.5442 "/>
<path clip-path="url(#clip400)" d="M2124.19 273.802 L2322.49 273.802 L2322.49 66.442 L2124.19 66.442  Z" fill="#ffffff" fill-rule="evenodd" fill-opacity="1"/>
<polyline clip-path="url(#clip400)" style="stroke:#000000; stroke-linecap:round; stroke-linejoin:round; stroke-width:4; stroke-opacity:1; fill:none" points="2124.19,273.802 2322.49,273.802 2322.49,66.442 2124.19,66.442 2124.19,273.802 "/>
<polyline clip-path="url(#clip400)" style="stroke:#009af9; stroke-linecap:round; stroke-linejoin:round; stroke-width:4; stroke-opacity:1; fill:none" points="2134.28,118.282 2194.81,118.282 "/>
<path clip-path="url(#clip400)" d="M2232.25 128.837 L2223.75 129.118 L2223.75 125.394 Q2221.57 129.118 2216.84 129.118 Q2214.9 129.118 2213.45 128.86 Q2212.02 128.602 2210.75 127.97 Q2209.51 127.314 2208.85 126.049 Q2208.2 124.785 2208.2 122.934 L2208.2 111.762 Q2208.2 110.403 2207.71 110.146 Q2207.21 109.888 2204.9 109.888 L2204.9 107.639 L2213.68 107.241 L2213.68 123.613 Q2213.68 124.761 2213.75 125.347 Q2213.84 125.909 2214.19 126.471 Q2214.57 127.01 2215.37 127.22 Q2216.16 127.408 2217.52 127.408 Q2220.17 127.408 2221.81 125.628 Q2223.47 123.848 2223.47 120.92 L2223.47 111.762 Q2223.47 110.403 2222.95 110.146 Q2222.46 109.888 2220.14 109.888 L2220.14 107.639 L2228.93 107.241 L2228.93 124.714 Q2228.93 126.073 2229.42 126.33 Q2229.93 126.588 2232.25 126.588 L2232.25 128.837 Z" fill="#000000" fill-rule="nonzero" fill-opacity="1" /><polyline clip-path="url(#clip400)" style="stroke:#c271d2; stroke-linecap:round; stroke-linejoin:round; stroke-width:6; stroke-opacity:1; fill:none" stroke-dasharray="3, 6" points="2134.28,170.122 2194.81,170.122 "/>
<path clip-path="url(#clip400)" d="M2232.25 173.842 L2223.75 174.123 L2223.75 170.399 Q2221.57 174.123 2216.84 174.123 Q2214.9 174.123 2213.45 173.865 Q2212.02 173.608 2210.75 172.975 Q2209.51 172.319 2208.85 171.055 Q2208.2 169.79 2208.2 167.939 L2208.2 156.767 Q2208.2 155.408 2207.71 155.151 Q2207.21 154.893 2204.9 154.893 L2204.9 152.644 L2213.68 152.246 L2213.68 168.619 Q2213.68 169.766 2213.75 170.352 Q2213.84 170.914 2214.19 171.476 Q2214.57 172.015 2215.37 172.226 Q2216.16 172.413 2217.52 172.413 Q2220.17 172.413 2221.81 170.633 Q2223.47 168.853 2223.47 165.925 L2223.47 156.767 Q2223.47 155.408 2222.95 155.151 Q2222.46 154.893 2220.14 154.893 L2220.14 152.644 L2228.93 152.246 L2228.93 169.719 Q2228.93 171.078 2229.42 171.336 Q2229.93 171.593 2232.25 171.593 L2232.25 173.842 Z" fill="#000000" fill-rule="nonzero" fill-opacity="1" /><path clip-path="url(#clip400)" d="M2266.98 187.793 L2262.75 187.694 L2258.52 187.793 L2258.52 186.219 L2260.84 186.219 L2260.84 177.152 Q2260.84 175.316 2260.36 174.611 Q2259.88 173.889 2258.95 173.889 Q2258.13 173.889 2257.28 174.217 Q2256.44 174.545 2255.67 175.168 Q2254.92 175.791 2254.42 176.84 Q2253.95 177.89 2253.95 179.201 L2253.95 186.219 L2256.28 186.219 L2256.28 187.793 L2252.05 187.694 L2247.8 187.793 L2247.8 186.219 L2250.13 186.219 L2250.13 177.152 Q2250.13 175.316 2249.65 174.611 Q2249.18 173.889 2248.24 173.889 Q2247.42 173.889 2246.57 174.217 Q2245.73 174.545 2244.96 175.168 Q2244.21 175.791 2243.72 176.84 Q2243.24 177.89 2243.24 179.201 L2243.24 186.219 L2245.55 186.219 L2245.55 187.793 L2241.32 187.694 L2237.09 187.793 L2237.09 186.219 L2239.41 186.219 L2239.41 175.84 Q2239.41 174.889 2239.06 174.709 Q2238.72 174.529 2237.09 174.529 L2237.09 172.955 L2242.87 172.676 L2242.87 176.316 Q2243.73 174.627 2245.21 173.66 Q2246.7 172.676 2248.78 172.676 Q2253.11 172.676 2253.82 175.906 Q2254.59 174.545 2256 173.61 Q2257.41 172.676 2259.49 172.676 Q2262.13 172.676 2263.39 173.824 Q2264.67 174.955 2264.67 177.513 L2264.67 186.219 L2266.98 186.219 L2266.98 187.793 Z" fill="#000000" fill-rule="nonzero" fill-opacity="1" /><path clip-path="url(#clip400)" d="M2276.83 187.793 L2272.9 187.694 L2268.8 187.793 L2268.8 186.219 L2271.13 186.219 L2271.13 175.84 Q2271.13 174.889 2270.78 174.709 Q2270.44 174.529 2268.9 174.529 L2268.9 172.955 L2274.75 172.676 L2274.75 186.219 L2276.83 186.219 L2276.83 187.793 M2274.44 165.56 Q2275.21 166.331 2275.21 167.413 Q2275.21 168.495 2274.44 169.266 Q2273.68 170.036 2272.6 170.036 Q2271.52 170.036 2270.75 169.266 Q2269.98 168.495 2269.98 167.413 Q2269.98 166.331 2270.75 165.56 Q2271.52 164.79 2272.6 164.79 Q2273.68 164.79 2274.44 165.56 Z" fill="#000000" fill-rule="nonzero" fill-opacity="1" /><path clip-path="url(#clip400)" d="M2298.82 187.793 L2294.57 187.694 L2290.34 187.793 L2290.34 186.219 L2292.67 186.219 L2292.67 177.152 Q2292.67 175.332 2292.19 174.611 Q2291.73 173.889 2290.82 173.889 Q2289.98 173.889 2289.13 174.217 Q2288.29 174.545 2287.52 175.168 Q2286.77 175.791 2286.29 176.84 Q2285.82 177.89 2285.82 179.201 L2285.82 186.219 L2288.13 186.219 L2288.13 187.793 L2283.9 187.694 L2279.67 187.793 L2279.67 186.219 L2281.98 186.219 L2281.98 175.84 Q2281.98 174.889 2281.64 174.709 Q2281.29 174.529 2279.67 174.529 L2279.67 172.955 L2285.44 172.676 L2285.44 176.316 Q2285.8 175.611 2286.29 175.02 Q2286.78 174.414 2287.49 173.873 Q2288.19 173.315 2289.18 173.004 Q2290.18 172.676 2291.33 172.676 Q2293.93 172.676 2295.21 173.807 Q2296.49 174.938 2296.49 177.513 L2296.49 186.219 L2298.82 186.219 L2298.82 187.793 Z" fill="#000000" fill-rule="nonzero" fill-opacity="1" /><polyline clip-path="url(#clip400)" style="stroke:#ac8d18; stroke-linecap:round; stroke-linejoin:round; stroke-width:6; stroke-opacity:1; fill:none" stroke-dasharray="3, 6" points="2134.28,221.962 2194.81,221.962 "/>
<path clip-path="url(#clip400)" d="M2232.25 227.897 L2223.75 228.178 L2223.75 224.454 Q2221.57 228.178 2216.84 228.178 Q2214.9 228.178 2213.45 227.92 Q2212.02 227.662 2210.75 227.03 Q2209.51 226.374 2208.85 225.109 Q2208.2 223.845 2208.2 221.994 L2208.2 210.822 Q2208.2 209.463 2207.71 209.206 Q2207.21 208.948 2204.9 208.948 L2204.9 206.699 L2213.68 206.301 L2213.68 222.673 Q2213.68 223.821 2213.75 224.407 Q2213.84 224.969 2214.19 225.531 Q2214.57 226.07 2215.37 226.28 Q2216.16 226.468 2217.52 226.468 Q2220.17 226.468 2221.81 224.688 Q2223.47 222.908 2223.47 219.98 L2223.47 210.822 Q2223.47 209.463 2222.95 209.206 Q2222.46 208.948 2220.14 208.948 L2220.14 206.699 L2228.93 206.301 L2228.93 223.774 Q2228.93 225.133 2229.42 225.39 Q2229.93 225.648 2232.25 225.648 L2232.25 227.897 Z" fill="#000000" fill-rule="nonzero" fill-opacity="1" /><path clip-path="url(#clip400)" d="M2266.98 237.221 L2262.75 237.123 L2258.52 237.221 L2258.52 235.647 L2260.84 235.647 L2260.84 226.58 Q2260.84 224.744 2260.36 224.039 Q2259.88 223.317 2258.95 223.317 Q2258.13 223.317 2257.28 223.645 Q2256.44 223.973 2255.67 224.596 Q2254.92 225.219 2254.42 226.269 Q2253.95 227.318 2253.95 228.63 L2253.95 235.647 L2256.28 235.647 L2256.28 237.221 L2252.05 237.123 L2247.8 237.221 L2247.8 235.647 L2250.13 235.647 L2250.13 226.58 Q2250.13 224.744 2249.65 224.039 Q2249.18 223.317 2248.24 223.317 Q2247.42 223.317 2246.57 223.645 Q2245.73 223.973 2244.96 224.596 Q2244.21 225.219 2243.72 226.269 Q2243.24 227.318 2243.24 228.63 L2243.24 235.647 L2245.55 235.647 L2245.55 237.221 L2241.32 237.123 L2237.09 237.221 L2237.09 235.647 L2239.41 235.647 L2239.41 225.269 Q2239.41 224.318 2239.06 224.137 Q2238.72 223.957 2237.09 223.957 L2237.09 222.383 L2242.87 222.104 L2242.87 225.744 Q2243.73 224.055 2245.21 223.088 Q2246.7 222.104 2248.78 222.104 Q2253.11 222.104 2253.82 225.334 Q2254.59 223.973 2256 223.039 Q2257.41 222.104 2259.49 222.104 Q2262.13 222.104 2263.39 223.252 Q2264.67 224.383 2264.67 226.941 L2264.67 235.647 L2266.98 235.647 L2266.98 237.221 Z" fill="#000000" fill-rule="nonzero" fill-opacity="1" /><path clip-path="url(#clip400)" d="M2287.01 236.418 Q2287.01 236.713 2286.94 236.893 Q2286.88 237.057 2286.7 237.123 Q2286.53 237.188 2286.39 237.205 Q2286.24 237.221 2285.93 237.221 L2284.32 237.221 Q2283.32 237.221 2282.62 237.041 Q2281.93 236.844 2281.58 236.614 Q2281.24 236.385 2281.06 235.975 Q2280.88 235.565 2280.84 235.319 Q2280.83 235.057 2280.83 234.63 Q2280.21 235.827 2278.94 236.631 Q2277.7 237.418 2275.83 237.418 Q2275.04 237.418 2274.25 237.336 Q2273.47 237.254 2272.55 237.008 Q2271.63 236.746 2270.94 236.352 Q2270.25 235.942 2269.79 235.237 Q2269.33 234.516 2269.33 233.598 Q2269.33 228.777 2280.25 228.318 L2280.25 227.187 Q2280.25 223.219 2276.57 223.219 Q2275.22 223.219 2274.14 223.449 Q2274.24 223.514 2274.38 223.678 Q2274.53 223.842 2274.7 224.252 Q2274.88 224.662 2274.88 225.105 Q2274.88 226.105 2274.24 226.662 Q2273.61 227.22 2272.76 227.22 Q2271.97 227.22 2271.32 226.679 Q2270.68 226.121 2270.68 225.105 Q2270.68 222.006 2276.7 222.006 Q2280.32 222.006 2282.19 223.432 Q2284.07 224.842 2284.07 227.187 L2284.07 234.401 Q2284.07 234.762 2284.11 234.926 Q2284.14 235.09 2284.32 235.286 Q2284.5 235.483 2284.93 235.565 Q2285.37 235.631 2286.12 235.647 Q2286.42 235.647 2286.57 235.68 Q2286.71 235.696 2286.86 235.877 Q2287.01 236.057 2287.01 236.418 M2280.25 232.548 L2280.25 229.367 Q2279.68 229.4 2279.14 229.466 Q2278.6 229.531 2277.71 229.695 Q2276.83 229.843 2276.11 230.154 Q2275.4 230.45 2274.71 230.892 Q2274.04 231.319 2273.65 232.007 Q2273.27 232.696 2273.27 233.565 Q2273.27 234.68 2274.16 235.45 Q2275.04 236.221 2276.32 236.221 Q2276.65 236.221 2277.06 236.155 Q2277.47 236.09 2278.06 235.86 Q2278.65 235.614 2279.11 235.237 Q2279.58 234.86 2279.91 234.171 Q2280.25 233.466 2280.25 232.548 Z" fill="#000000" fill-rule="nonzero" fill-opacity="1" /><path clip-path="url(#clip400)" d="M2306.01 237.221 L2302.32 237.123 L2298.28 237.221 L2298.28 235.647 L2299.6 235.647 L2295.91 231.286 L2292.64 234.942 L2292.41 235.27 Q2292.41 235.417 2292.79 235.532 Q2293.18 235.647 2293.64 235.647 L2293.64 237.221 L2290.18 237.123 L2287.1 237.221 L2287.1 235.647 Q2288.13 235.647 2288.61 235.631 Q2289.1 235.598 2289.66 235.45 Q2290.22 235.303 2290.5 235.008 L2294.89 230.072 L2289.66 223.891 L2287.27 223.891 L2287.27 222.317 L2290.97 222.416 L2295.02 222.317 L2295.02 223.891 L2293.68 223.891 L2296.97 227.744 L2299.79 224.596 Q2299.81 224.58 2300.07 224.186 Q2299.55 223.891 2298.79 223.891 L2298.79 222.317 L2302.25 222.416 L2305.33 222.317 L2305.33 223.891 Q2303.99 223.891 2303.28 223.99 Q2302.6 224.072 2302.38 224.186 Q2302.19 224.301 2301.91 224.596 L2297.99 228.958 L2303.63 235.647 L2306.01 235.647 L2306.01 237.221 Z" fill="#000000" fill-rule="nonzero" fill-opacity="1" /><path clip-path="url(#clip400)" d="M232.389 1423.18 L2352.76 1423.18 L2352.76 847.244 L232.389 847.244  Z" fill="#ffffff" fill-rule="evenodd" fill-opacity="1"/>
<defs>
  <clipPath id="clip404">
    <rect x="232" y="847" width="2121" height="577"/>
  </clipPath>
</defs>
<polyline clip-path="url(#clip404)" style="stroke:#000000; stroke-linecap:round; stroke-linejoin:round; stroke-width:2; stroke-opacity:0.1; fill:none" points="292.4,1423.18 292.4,847.244 "/>
<polyline clip-path="url(#clip404)" style="stroke:#000000; stroke-linecap:round; stroke-linejoin:round; stroke-width:2; stroke-opacity:0.1; fill:none" points="880.737,1423.18 880.737,847.244 "/>
<polyline clip-path="url(#clip404)" style="stroke:#000000; stroke-linecap:round; stroke-linejoin:round; stroke-width:2; stroke-opacity:0.1; fill:none" points="1469.07,1423.18 1469.07,847.244 "/>
<polyline clip-path="url(#clip404)" style="stroke:#000000; stroke-linecap:round; stroke-linejoin:round; stroke-width:2; stroke-opacity:0.1; fill:none" points="2057.41,1423.18 2057.41,847.244 "/>
<polyline clip-path="url(#clip404)" style="stroke:#000000; stroke-linecap:round; stroke-linejoin:round; stroke-width:2; stroke-opacity:0.1; fill:none" points="232.389,1405.08 2352.76,1405.08 "/>
<polyline clip-path="url(#clip404)" style="stroke:#000000; stroke-linecap:round; stroke-linejoin:round; stroke-width:2; stroke-opacity:0.1; fill:none" points="232.389,1224.57 2352.76,1224.57 "/>
<polyline clip-path="url(#clip404)" style="stroke:#000000; stroke-linecap:round; stroke-linejoin:round; stroke-width:2; stroke-opacity:0.1; fill:none" points="232.389,1044.06 2352.76,1044.06 "/>
<polyline clip-path="url(#clip404)" style="stroke:#000000; stroke-linecap:round; stroke-linejoin:round; stroke-width:2; stroke-opacity:0.1; fill:none" points="232.389,863.544 2352.76,863.544 "/>
<polyline clip-path="url(#clip400)" style="stroke:#000000; stroke-linecap:round; stroke-linejoin:round; stroke-width:4; stroke-opacity:1; fill:none" points="232.389,1423.18 2352.76,1423.18 "/>
<polyline clip-path="url(#clip400)" style="stroke:#000000; stroke-linecap:round; stroke-linejoin:round; stroke-width:4; stroke-opacity:1; fill:none" points="292.4,1423.18 292.4,1404.28 "/>
<polyline clip-path="url(#clip400)" style="stroke:#000000; stroke-linecap:round; stroke-linejoin:round; stroke-width:4; stroke-opacity:1; fill:none" points="880.737,1423.18 880.737,1404.28 "/>
<polyline clip-path="url(#clip400)" style="stroke:#000000; stroke-linecap:round; stroke-linejoin:round; stroke-width:4; stroke-opacity:1; fill:none" points="1469.07,1423.18 1469.07,1404.28 "/>
<polyline clip-path="url(#clip400)" style="stroke:#000000; stroke-linecap:round; stroke-linejoin:round; stroke-width:4; stroke-opacity:1; fill:none" points="2057.41,1423.18 2057.41,1404.28 "/>
<path clip-path="url(#clip400)" d="M292.4 1454.1 Q288.789 1454.1 286.96 1457.66 Q285.154 1461.2 285.154 1468.33 Q285.154 1475.44 286.96 1479.01 Q288.789 1482.55 292.4 1482.55 Q296.034 1482.55 297.84 1479.01 Q299.668 1475.44 299.668 1468.33 Q299.668 1461.2 297.84 1457.66 Q296.034 1454.1 292.4 1454.1 M292.4 1450.39 Q298.21 1450.39 301.265 1455 Q304.344 1459.58 304.344 1468.33 Q304.344 1477.06 301.265 1481.67 Q298.21 1486.25 292.4 1486.25 Q286.59 1486.25 283.511 1481.67 Q280.455 1477.06 280.455 1468.33 Q280.455 1459.58 283.511 1455 Q286.59 1450.39 292.4 1450.39 Z" fill="#000000" fill-rule="nonzero" fill-opacity="1" /><path clip-path="url(#clip400)" d="M871.119 1481.64 L878.758 1481.64 L878.758 1455.28 L870.447 1456.95 L870.447 1452.69 L878.711 1451.02 L883.387 1451.02 L883.387 1481.64 L891.026 1481.64 L891.026 1485.58 L871.119 1485.58 L871.119 1481.64 Z" fill="#000000" fill-rule="nonzero" fill-opacity="1" /><path clip-path="url(#clip400)" d="M1463.73 1481.64 L1480.05 1481.64 L1480.05 1485.58 L1458.1 1485.58 L1458.1 1481.64 Q1460.76 1478.89 1465.35 1474.26 Q1469.95 1469.61 1471.13 1468.27 Q1473.38 1465.74 1474.26 1464.01 Q1475.16 1462.25 1475.16 1460.56 Q1475.16 1457.8 1473.22 1456.07 Q1471.3 1454.33 1468.19 1454.33 Q1466 1454.33 1463.54 1455.09 Q1461.11 1455.86 1458.33 1457.41 L1458.33 1452.69 Q1461.16 1451.55 1463.61 1450.97 Q1466.06 1450.39 1468.1 1450.39 Q1473.47 1450.39 1476.67 1453.08 Q1479.86 1455.77 1479.86 1460.26 Q1479.86 1462.39 1479.05 1464.31 Q1478.26 1466.2 1476.16 1468.8 Q1475.58 1469.47 1472.48 1472.69 Q1469.37 1475.88 1463.73 1481.64 Z" fill="#000000" fill-rule="nonzero" fill-opacity="1" /><path clip-path="url(#clip400)" d="M2061.66 1466.95 Q2065.01 1467.66 2066.89 1469.93 Q2068.79 1472.2 2068.79 1475.53 Q2068.79 1480.65 2065.27 1483.45 Q2061.75 1486.25 2055.27 1486.25 Q2053.09 1486.25 2050.78 1485.81 Q2048.49 1485.39 2046.03 1484.54 L2046.03 1480.02 Q2047.98 1481.16 2050.29 1481.74 Q2052.61 1482.32 2055.13 1482.32 Q2059.53 1482.32 2061.82 1480.58 Q2064.14 1478.84 2064.14 1475.53 Q2064.14 1472.48 2061.98 1470.77 Q2059.85 1469.03 2056.03 1469.03 L2052.01 1469.03 L2052.01 1465.19 L2056.22 1465.19 Q2059.67 1465.19 2061.5 1463.82 Q2063.33 1462.43 2063.33 1459.84 Q2063.33 1457.18 2061.43 1455.77 Q2059.55 1454.33 2056.03 1454.33 Q2054.11 1454.33 2051.91 1454.75 Q2049.71 1455.16 2047.08 1456.04 L2047.08 1451.88 Q2049.74 1451.14 2052.05 1450.77 Q2054.39 1450.39 2056.45 1450.39 Q2061.77 1450.39 2064.88 1452.83 Q2067.98 1455.23 2067.98 1459.35 Q2067.98 1462.22 2066.33 1464.21 Q2064.69 1466.18 2061.66 1466.95 Z" fill="#000000" fill-rule="nonzero" fill-opacity="1" /><path clip-path="url(#clip400)" d="M1162.74 1520.52 L1202.94 1520.52 L1202.94 1525.93 L1186.07 1525.93 L1186.07 1568.04 L1179.61 1568.04 L1179.61 1525.93 L1162.74 1525.93 L1162.74 1520.52 Z" fill="#000000" fill-rule="nonzero" fill-opacity="1" /><path clip-path="url(#clip400)" d="M1206.89 1532.4 L1212.75 1532.4 L1212.75 1568.04 L1206.89 1568.04 L1206.89 1532.4 M1206.89 1518.52 L1212.75 1518.52 L1212.75 1525.93 L1206.89 1525.93 L1206.89 1518.52 Z" fill="#000000" fill-rule="nonzero" fill-opacity="1" /><path clip-path="url(#clip400)" d="M1252.76 1539.24 Q1254.95 1535.29 1258.01 1533.41 Q1261.06 1531.54 1265.2 1531.54 Q1270.77 1531.54 1273.79 1535.45 Q1276.82 1539.33 1276.82 1546.53 L1276.82 1568.04 L1270.93 1568.04 L1270.93 1546.72 Q1270.93 1541.59 1269.11 1539.11 Q1267.3 1536.63 1263.58 1536.63 Q1259.03 1536.63 1256.38 1539.65 Q1253.74 1542.68 1253.74 1547.9 L1253.74 1568.04 L1247.85 1568.04 L1247.85 1546.72 Q1247.85 1541.56 1246.04 1539.11 Q1244.23 1536.63 1240.44 1536.63 Q1235.95 1536.63 1233.31 1539.68 Q1230.67 1542.71 1230.67 1547.9 L1230.67 1568.04 L1224.78 1568.04 L1224.78 1532.4 L1230.67 1532.4 L1230.67 1537.93 Q1232.67 1534.66 1235.47 1533.1 Q1238.27 1531.54 1242.12 1531.54 Q1246.01 1531.54 1248.71 1533.51 Q1251.45 1535.48 1252.76 1539.24 Z" fill="#000000" fill-rule="nonzero" fill-opacity="1" /><path clip-path="url(#clip400)" d="M1318.99 1548.76 L1318.99 1551.62 L1292.06 1551.62 Q1292.45 1557.67 1295.69 1560.85 Q1298.97 1564 1304.79 1564 Q1308.17 1564 1311.32 1563.17 Q1314.5 1562.35 1317.62 1560.69 L1317.62 1566.23 Q1314.47 1567.57 1311.16 1568.27 Q1307.85 1568.97 1304.44 1568.97 Q1295.91 1568.97 1290.92 1564 Q1285.95 1559.04 1285.95 1550.57 Q1285.95 1541.82 1290.66 1536.69 Q1295.41 1531.54 1303.43 1531.54 Q1310.62 1531.54 1314.79 1536.18 Q1318.99 1540.8 1318.99 1548.76 M1313.13 1547.04 Q1313.07 1542.23 1310.43 1539.37 Q1307.82 1536.5 1303.49 1536.5 Q1298.59 1536.5 1295.63 1539.27 Q1292.7 1542.04 1292.25 1547.07 L1313.13 1547.04 Z" fill="#000000" fill-rule="nonzero" fill-opacity="1" /><path clip-path="url(#clip400)" d="M1363.39 1518.58 Q1359.13 1525.9 1357.06 1533.06 Q1354.99 1540.23 1354.99 1547.58 Q1354.99 1554.93 1357.06 1562.16 Q1359.16 1569.35 1363.39 1576.64 L1358.3 1576.64 Q1353.52 1569.16 1351.14 1561.93 Q1348.78 1554.71 1348.78 1547.58 Q1348.78 1540.48 1351.14 1533.29 Q1353.49 1526.09 1358.3 1518.58 L1363.39 1518.58 Z" fill="#000000" fill-rule="nonzero" fill-opacity="1" /><path clip-path="url(#clip400)" d="M1397.48 1533.45 L1397.48 1538.98 Q1395 1537.71 1392.32 1537.07 Q1389.65 1536.44 1386.79 1536.44 Q1382.42 1536.44 1380.23 1537.77 Q1378.06 1539.11 1378.06 1541.79 Q1378.06 1543.82 1379.62 1545 Q1381.18 1546.15 1385.89 1547.2 L1387.9 1547.64 Q1394.14 1548.98 1396.75 1551.43 Q1399.39 1553.85 1399.39 1558.21 Q1399.39 1563.17 1395.44 1566.07 Q1391.53 1568.97 1384.65 1568.97 Q1381.79 1568.97 1378.67 1568.39 Q1375.58 1567.85 1372.14 1566.74 L1372.14 1560.69 Q1375.39 1562.38 1378.54 1563.24 Q1381.69 1564.07 1384.78 1564.07 Q1388.92 1564.07 1391.15 1562.66 Q1393.37 1561.23 1393.37 1558.65 Q1393.37 1556.27 1391.75 1554.99 Q1390.16 1553.72 1384.72 1552.54 L1382.68 1552.07 Q1377.24 1550.92 1374.82 1548.56 Q1372.4 1546.18 1372.4 1542.04 Q1372.4 1537.01 1375.96 1534.27 Q1379.53 1531.54 1386.08 1531.54 Q1389.33 1531.54 1392.2 1532.01 Q1395.06 1532.49 1397.48 1533.45 Z" fill="#000000" fill-rule="nonzero" fill-opacity="1" /><path clip-path="url(#clip400)" d="M1407.79 1518.58 L1412.88 1518.58 Q1417.66 1526.09 1420.01 1533.29 Q1422.4 1540.48 1422.4 1547.58 Q1422.4 1554.71 1420.01 1561.93 Q1417.66 1569.16 1412.88 1576.64 L1407.79 1576.64 Q1412.03 1569.35 1414.09 1562.16 Q1416.19 1554.93 1416.19 1547.58 Q1416.19 1540.23 1414.09 1533.06 Q1412.03 1525.9 1407.79 1518.58 Z" fill="#000000" fill-rule="nonzero" fill-opacity="1" /><polyline clip-path="url(#clip400)" style="stroke:#000000; stroke-linecap:round; stroke-linejoin:round; stroke-width:4; stroke-opacity:1; fill:none" points="232.389,1423.18 232.389,847.244 "/>
<polyline clip-path="url(#clip400)" style="stroke:#000000; stroke-linecap:round; stroke-linejoin:round; stroke-width:4; stroke-opacity:1; fill:none" points="232.389,1405.08 251.287,1405.08 "/>
<polyline clip-path="url(#clip400)" style="stroke:#000000; stroke-linecap:round; stroke-linejoin:round; stroke-width:4; stroke-opacity:1; fill:none" points="232.389,1224.57 251.287,1224.57 "/>
<polyline clip-path="url(#clip400)" style="stroke:#000000; stroke-linecap:round; stroke-linejoin:round; stroke-width:4; stroke-opacity:1; fill:none" points="232.389,1044.06 251.287,1044.06 "/>
<polyline clip-path="url(#clip400)" style="stroke:#000000; stroke-linecap:round; stroke-linejoin:round; stroke-width:4; stroke-opacity:1; fill:none" points="232.389,863.544 251.287,863.544 "/>
<path clip-path="url(#clip400)" d="M184.445 1390.88 Q180.834 1390.88 179.005 1394.44 Q177.2 1397.98 177.2 1405.11 Q177.2 1412.22 179.005 1415.79 Q180.834 1419.33 184.445 1419.33 Q188.079 1419.33 189.885 1415.79 Q191.713 1412.22 191.713 1405.11 Q191.713 1397.98 189.885 1394.44 Q188.079 1390.88 184.445 1390.88 M184.445 1387.17 Q190.255 1387.17 193.311 1391.78 Q196.389 1396.36 196.389 1405.11 Q196.389 1413.84 193.311 1418.45 Q190.255 1423.03 184.445 1423.03 Q178.635 1423.03 175.556 1418.45 Q172.501 1413.84 172.501 1405.11 Q172.501 1396.36 175.556 1391.78 Q178.635 1387.17 184.445 1387.17 Z" fill="#000000" fill-rule="nonzero" fill-opacity="1" /><path clip-path="url(#clip400)" d="M176.482 1237.91 L184.121 1237.91 L184.121 1211.55 L175.811 1213.21 L175.811 1208.95 L184.075 1207.29 L188.75 1207.29 L188.75 1237.91 L196.389 1237.91 L196.389 1241.85 L176.482 1241.85 L176.482 1237.91 Z" fill="#000000" fill-rule="nonzero" fill-opacity="1" /><path clip-path="url(#clip400)" d="M180.07 1057.4 L196.389 1057.4 L196.389 1061.34 L174.445 1061.34 L174.445 1057.4 Q177.107 1054.65 181.69 1050.02 Q186.297 1045.36 187.477 1044.02 Q189.723 1041.5 190.602 1039.76 Q191.505 1038 191.505 1036.31 Q191.505 1033.56 189.561 1031.82 Q187.639 1030.09 184.538 1030.09 Q182.338 1030.09 179.885 1030.85 Q177.454 1031.61 174.677 1033.16 L174.677 1028.44 Q177.501 1027.31 179.954 1026.73 Q182.408 1026.15 184.445 1026.15 Q189.815 1026.15 193.01 1028.84 Q196.204 1031.52 196.204 1036.01 Q196.204 1038.14 195.394 1040.06 Q194.607 1041.96 192.5 1044.55 Q191.922 1045.22 188.82 1048.44 Q185.718 1051.64 180.07 1057.4 Z" fill="#000000" fill-rule="nonzero" fill-opacity="1" /><path clip-path="url(#clip400)" d="M189.26 862.19 Q192.616 862.908 194.491 865.176 Q196.389 867.445 196.389 870.778 Q196.389 875.894 192.871 878.695 Q189.352 881.495 182.871 881.495 Q180.695 881.495 178.38 881.056 Q176.089 880.639 173.635 879.783 L173.635 875.269 Q175.579 876.403 177.894 876.982 Q180.209 877.56 182.732 877.56 Q187.13 877.56 189.422 875.824 Q191.737 874.088 191.737 870.778 Q191.737 867.722 189.584 866.009 Q187.454 864.273 183.635 864.273 L179.607 864.273 L179.607 860.431 L183.82 860.431 Q187.269 860.431 189.098 859.065 Q190.926 857.676 190.926 855.084 Q190.926 852.422 189.028 851.01 Q187.153 849.574 183.635 849.574 Q181.713 849.574 179.514 849.991 Q177.315 850.408 174.677 851.287 L174.677 847.121 Q177.339 846.38 179.653 846.01 Q181.991 845.639 184.051 845.639 Q189.375 845.639 192.477 848.07 Q195.579 850.477 195.579 854.597 Q195.579 857.468 193.936 859.459 Q192.292 861.426 189.26 862.19 Z" fill="#000000" fill-rule="nonzero" fill-opacity="1" /><path clip-path="url(#clip400)" d="M95.1967 1174.3 Q98.8038 1174.3 102.121 1176.97 Q105.438 1179.61 107.467 1183.93 Q109.464 1188.21 109.464 1192.82 L109.464 1204.03 L125.953 1208.12 Q126.05 1208.15 126.469 1208.25 Q126.855 1208.34 127.081 1208.34 Q127.886 1208.34 128.079 1207.34 Q128.272 1206.31 128.272 1204.03 Q128.272 1202.55 128.53 1202.32 Q128.691 1202.19 128.981 1202.19 Q129.432 1202.19 129.754 1202.32 Q130.043 1202.45 130.14 1202.71 Q130.237 1202.93 130.269 1203.09 Q130.301 1203.25 130.301 1203.51 Q130.301 1204.19 130.237 1205.64 Q130.172 1207.05 130.172 1207.8 L130.108 1212.01 L130.301 1220.39 Q130.301 1221.39 129.496 1221.39 Q128.884 1221.39 128.626 1221.13 Q128.337 1220.87 128.304 1220.58 Q128.272 1220.29 128.272 1219.55 Q128.272 1217.94 128.175 1216.97 Q128.079 1216.01 127.95 1215.4 Q127.789 1214.75 127.338 1214.43 Q126.887 1214.08 126.501 1213.91 Q126.082 1213.75 125.148 1213.53 L89.7217 1204.7 Q88.6589 1204.45 88.4979 1204.45 Q87.9504 1204.45 87.7571 1204.77 Q87.5317 1205.06 87.4351 1205.89 Q87.3063 1207.51 87.3063 1208.73 Q87.3063 1209.53 87.2741 1209.86 Q87.2418 1210.15 87.0808 1210.4 Q86.8876 1210.63 86.5011 1210.63 Q85.8892 1210.63 85.6316 1210.37 Q85.3417 1210.08 85.3095 1209.76 Q85.2451 1209.44 85.2451 1208.66 L85.2451 1187.28 Q85.2451 1181.13 88.1758 1177.71 Q91.1066 1174.3 95.1967 1174.3 M93.6186 1180.42 Q87.3063 1180.42 87.3063 1189.41 L87.3063 1195.72 Q87.3063 1197.81 87.6927 1198.33 Q88.047 1198.84 89.8183 1199.29 L107.757 1203.77 L107.757 1194.46 Q107.757 1188.21 104.247 1184.32 Q102.636 1182.55 99.2868 1181.48 Q95.9374 1180.42 93.6186 1180.42 Z" fill="#000000" fill-rule="nonzero" fill-opacity="1" /><path clip-path="url(#clip400)" d="M80.8395 1138.54 Q88.1601 1142.8 95.3215 1144.87 Q102.483 1146.94 109.835 1146.94 Q117.188 1146.94 124.413 1144.87 Q131.606 1142.77 138.895 1138.54 L138.895 1143.63 Q131.415 1148.41 124.19 1150.79 Q116.965 1153.15 109.835 1153.15 Q102.738 1153.15 95.5443 1150.79 Q88.3511 1148.44 80.8395 1143.63 L80.8395 1138.54 Z" fill="#000000" fill-rule="nonzero" fill-opacity="1" /><path clip-path="url(#clip400)" d="M82.7811 1131.16 L82.7811 1124.66 L122.949 1114.67 L82.7811 1104.71 L82.7811 1097.48 L122.949 1087.49 L82.7811 1077.52 L82.7811 1071 L130.301 1082.94 L130.301 1091.02 L89.0513 1101.05 L130.301 1111.17 L130.301 1119.25 L82.7811 1131.16 Z" fill="#000000" fill-rule="nonzero" fill-opacity="1" /><path clip-path="url(#clip400)" d="M80.8395 1063.65 L80.8395 1058.55 Q88.3511 1053.78 95.5443 1051.43 Q102.738 1049.04 109.835 1049.04 Q116.965 1049.04 124.19 1051.43 Q131.415 1053.78 138.895 1058.55 L138.895 1063.65 Q131.606 1059.41 124.413 1057.35 Q117.188 1055.24 109.835 1055.24 Q102.483 1055.24 95.3215 1057.35 Q88.1601 1059.41 80.8395 1063.65 Z" fill="#000000" fill-rule="nonzero" fill-opacity="1" /><polyline clip-path="url(#clip404)" style="stroke:#009af9; stroke-linecap:round; stroke-linejoin:round; stroke-width:4; stroke-opacity:1; fill:none" points="292.4,1405.08 351.233,1191.81 410.067,1074.53 468.901,935.915 527.735,871.525 586.568,869.615 645.402,883.56 704.236,915.43 763.069,957.465 821.903,989.16 880.737,1001.36 939.57,990.209 998.404,952.657 1057.24,883.526 1116.07,870.306 1174.91,1268.3 1233.74,1381.25 1292.57,1395.42 1351.41,1404.03 1410.24,1406.88 1469.07,1406.87 1527.91,1406.07 1586.74,1405.33 1645.57,1404.87 1704.41,1404.66 1763.24,1404.61 1822.08,1404.64 1880.91,1404.72 1939.74,1404.8 1998.58,1404.87 2057.41,1404.93 2116.24,1404.97 2175.08,1405.01 2233.91,1405.03 2292.75,1405.05 "/>
<polyline clip-path="url(#clip404)" style="stroke:#e26f46; stroke-linecap:round; stroke-linejoin:round; stroke-width:6; stroke-opacity:1; fill:none" stroke-dasharray="3, 6" points="292.4,863.544 351.233,863.544 410.067,863.544 468.901,863.544 527.735,863.544 586.568,863.544 645.402,863.544 704.236,863.544 763.069,863.544 821.903,863.544 880.737,863.544 939.57,863.544 998.404,863.544 1057.24,863.544 1116.07,863.544 1174.91,863.544 1233.74,863.544 1292.57,863.544 1351.41,863.544 1410.24,863.544 1469.07,863.544 1527.91,863.544 1586.74,863.544 1645.57,863.544 1704.41,863.544 1763.24,863.544 1822.08,863.544 1880.91,863.544 1939.74,863.544 1998.58,863.544 2057.41,863.544 2116.24,863.544 2175.08,863.544 2233.91,863.544 2292.75,863.544 "/>
<path clip-path="url(#clip400)" d="M1964.47 1206.25 L2282.08 1206.25 L2282.08 1050.73 L1964.47 1050.73  Z" fill="#ffffff" fill-rule="evenodd" fill-opacity="1"/>
<polyline clip-path="url(#clip400)" style="stroke:#000000; stroke-linecap:round; stroke-linejoin:round; stroke-width:4; stroke-opacity:1; fill:none" points="1964.47,1206.25 2282.08,1206.25 2282.08,1050.73 1964.47,1050.73 1964.47,1206.25 "/>
<polyline clip-path="url(#clip400)" style="stroke:#009af9; stroke-linecap:round; stroke-linejoin:round; stroke-width:4; stroke-opacity:1; fill:none" points="1988.03,1102.57 2129.39,1102.57 "/>
<path clip-path="url(#clip400)" d="M2187.19 1093.27 Q2187.19 1095.89 2185.25 1098.3 Q2183.33 1100.71 2180.19 1102.19 Q2177.08 1103.64 2173.73 1103.64 L2165.57 1103.64 L2162.6 1115.63 Q2162.58 1115.7 2162.51 1116.01 Q2162.44 1116.29 2162.44 1116.45 Q2162.44 1117.04 2163.16 1117.18 Q2163.91 1117.32 2165.57 1117.32 Q2166.65 1117.32 2166.82 1117.51 Q2166.91 1117.63 2166.91 1117.84 Q2166.91 1118.16 2166.82 1118.4 Q2166.72 1118.61 2166.54 1118.68 Q2166.37 1118.75 2166.25 1118.77 Q2166.14 1118.8 2165.95 1118.8 Q2165.46 1118.8 2164.4 1118.75 Q2163.37 1118.7 2162.83 1118.7 L2159.77 1118.66 L2153.68 1118.8 Q2152.95 1118.8 2152.95 1118.21 Q2152.95 1117.77 2153.14 1117.58 Q2153.32 1117.37 2153.54 1117.34 Q2153.75 1117.32 2154.29 1117.32 Q2155.46 1117.32 2156.16 1117.25 Q2156.86 1117.18 2157.31 1117.09 Q2157.78 1116.97 2158.01 1116.64 Q2158.27 1116.31 2158.38 1116.03 Q2158.5 1115.73 2158.67 1115.05 L2165.08 1089.28 Q2165.27 1088.51 2165.27 1088.39 Q2165.27 1088 2165.04 1087.86 Q2164.83 1087.69 2164.22 1087.62 Q2163.05 1087.53 2162.16 1087.53 Q2161.57 1087.53 2161.34 1087.5 Q2161.12 1087.48 2160.94 1087.36 Q2160.77 1087.22 2160.77 1086.94 Q2160.77 1086.5 2160.96 1086.31 Q2161.17 1086.1 2161.41 1086.08 Q2161.64 1086.03 2162.2 1086.03 L2177.75 1086.03 Q2182.23 1086.03 2184.71 1088.16 Q2187.19 1090.29 2187.19 1093.27 M2182.74 1092.12 Q2182.74 1087.53 2176.21 1087.53 L2171.62 1087.53 Q2170.1 1087.53 2169.72 1087.81 Q2169.35 1088.07 2169.02 1089.35 L2165.76 1102.4 L2172.53 1102.4 Q2177.08 1102.4 2179.91 1099.85 Q2181.2 1098.68 2181.97 1096.24 Q2182.74 1093.8 2182.74 1092.12 Z" fill="#000000" fill-rule="nonzero" fill-opacity="1" /><polyline clip-path="url(#clip400)" style="stroke:#e26f46; stroke-linecap:round; stroke-linejoin:round; stroke-width:6; stroke-opacity:1; fill:none" stroke-dasharray="3, 6" points="1988.03,1154.41 2129.39,1154.41 "/>
<path clip-path="url(#clip400)" d="M2187.19 1140.45 Q2187.19 1143.07 2185.25 1145.48 Q2183.33 1147.9 2180.19 1149.37 Q2177.08 1150.82 2173.73 1150.82 L2165.57 1150.82 L2162.6 1162.82 Q2162.58 1162.89 2162.51 1163.19 Q2162.44 1163.47 2162.44 1163.64 Q2162.44 1164.22 2163.16 1164.36 Q2163.91 1164.5 2165.57 1164.5 Q2166.65 1164.5 2166.82 1164.69 Q2166.91 1164.81 2166.91 1165.02 Q2166.91 1165.35 2166.82 1165.58 Q2166.72 1165.79 2166.54 1165.86 Q2166.37 1165.93 2166.25 1165.95 Q2166.14 1165.98 2165.95 1165.98 Q2165.46 1165.98 2164.4 1165.93 Q2163.37 1165.88 2162.83 1165.88 L2159.77 1165.84 L2153.68 1165.98 Q2152.95 1165.98 2152.95 1165.39 Q2152.95 1164.95 2153.14 1164.76 Q2153.32 1164.55 2153.54 1164.53 Q2153.75 1164.5 2154.29 1164.5 Q2155.46 1164.5 2156.16 1164.43 Q2156.86 1164.36 2157.31 1164.27 Q2157.78 1164.15 2158.01 1163.82 Q2158.27 1163.5 2158.38 1163.21 Q2158.5 1162.91 2158.67 1162.23 L2165.08 1136.47 Q2165.27 1135.69 2165.27 1135.58 Q2165.27 1135.18 2165.04 1135.04 Q2164.83 1134.87 2164.22 1134.8 Q2163.05 1134.71 2162.16 1134.71 Q2161.57 1134.71 2161.34 1134.69 Q2161.12 1134.66 2160.94 1134.55 Q2160.77 1134.4 2160.77 1134.12 Q2160.77 1133.68 2160.96 1133.49 Q2161.17 1133.28 2161.41 1133.26 Q2161.64 1133.21 2162.2 1133.21 L2177.75 1133.21 Q2182.23 1133.21 2184.71 1135.34 Q2187.19 1137.47 2187.19 1140.45 M2182.74 1139.3 Q2182.74 1134.71 2176.21 1134.71 L2171.62 1134.71 Q2170.1 1134.71 2169.72 1134.99 Q2169.35 1135.25 2169.02 1136.54 L2165.76 1149.58 L2172.53 1149.58 Q2177.08 1149.58 2179.91 1147.03 Q2181.2 1145.86 2181.97 1143.42 Q2182.74 1140.99 2182.74 1139.3 Z" fill="#000000" fill-rule="nonzero" fill-opacity="1" /><path clip-path="url(#clip400)" d="M2191.98 1174.92 L2191.98 1173.89 Q2193.76 1173.89 2194.17 1173.68 Q2194.58 1173.45 2194.58 1172.37 L2194.58 1163.36 Q2194.58 1162.12 2194.14 1161.81 Q2193.71 1161.49 2191.98 1161.49 L2191.98 1160.45 L2196.7 1160.08 L2196.7 1163.61 Q2198.27 1160.08 2201.67 1160.08 Q2205.6 1160.08 2206.14 1163.36 Q2206.72 1162.08 2207.91 1161.08 Q2209.13 1160.08 2211.01 1160.08 Q2213.54 1160.08 2214.54 1161.33 Q2215.27 1162.17 2215.42 1163.1 Q2215.57 1164.04 2215.57 1166.46 L2215.57 1172.87 Q2215.6 1173.58 2216.14 1173.74 Q2216.68 1173.89 2218.19 1173.89 L2218.19 1174.92 Q2214.77 1174.82 2214.44 1174.82 Q2214.18 1174.82 2210.63 1174.92 L2210.63 1173.89 Q2212.42 1173.89 2212.83 1173.68 Q2213.26 1173.45 2213.26 1172.37 L2213.26 1164.54 Q2213.26 1162.84 2212.73 1161.84 Q2212.21 1160.82 2210.77 1160.82 Q2209.03 1160.82 2207.63 1162.28 Q2206.24 1163.74 2206.24 1166.2 L2206.24 1172.37 Q2206.24 1173.45 2206.65 1173.68 Q2207.08 1173.89 2208.86 1173.89 L2208.86 1174.92 Q2205.44 1174.82 2205.09 1174.82 Q2204.83 1174.82 2201.31 1174.92 L2201.31 1173.89 Q2203.09 1173.89 2203.5 1173.68 Q2203.93 1173.45 2203.93 1172.37 L2203.93 1164.54 Q2203.93 1162.84 2203.4 1161.84 Q2202.88 1160.82 2201.44 1160.82 Q2199.7 1160.82 2198.31 1162.28 Q2196.91 1163.74 2196.91 1166.2 L2196.91 1172.37 Q2196.91 1173.45 2197.32 1173.68 Q2197.75 1173.89 2199.52 1173.89 L2199.52 1174.92 Q2196.09 1174.82 2195.76 1174.82 Q2195.5 1174.82 2191.98 1174.92 Z" fill="#000000" fill-rule="nonzero" fill-opacity="1" /><path clip-path="url(#clip400)" d="M2220.06 1171.73 Q2220.06 1168.87 2223.42 1167.36 Q2225.44 1166.4 2229.6 1166.15 L2229.6 1164.92 Q2229.6 1162.84 2228.5 1161.74 Q2227.42 1160.63 2226.05 1160.63 Q2223.59 1160.63 2222.41 1162.17 Q2223.41 1162.2 2223.77 1162.71 Q2224.13 1163.2 2224.13 1163.71 Q2224.13 1164.38 2223.7 1164.82 Q2223.29 1165.25 2222.59 1165.25 Q2221.91 1165.25 2221.47 1164.84 Q2221.03 1164.41 2221.03 1163.68 Q2221.03 1162.04 2222.5 1160.95 Q2224 1159.87 2226.11 1159.87 Q2228.87 1159.87 2230.7 1161.72 Q2231.28 1162.3 2231.55 1163.04 Q2231.85 1163.77 2231.88 1164.27 Q2231.91 1164.74 2231.91 1165.69 L2231.91 1172.4 Q2231.91 1172.59 2231.98 1172.92 Q2232.05 1173.25 2232.34 1173.68 Q2232.65 1174.09 2233.16 1174.09 Q2234.37 1174.09 2234.36 1171.94 L2234.36 1170.05 L2235.21 1170.05 L2235.21 1171.94 Q2235.21 1173.73 2234.26 1174.43 Q2233.32 1175.12 2232.46 1175.12 Q2231.34 1175.12 2230.64 1174.3 Q2229.93 1173.48 2229.83 1172.37 Q2229.32 1173.64 2228.16 1174.48 Q2227.01 1175.3 2225.44 1175.3 Q2224.23 1175.3 2223.08 1174.99 Q2221.95 1174.69 2221 1173.86 Q2220.06 1173 2220.06 1171.73 M2222.65 1171.69 Q2222.65 1172.94 2223.54 1173.74 Q2224.42 1174.55 2225.67 1174.55 Q2227.08 1174.55 2228.34 1173.46 Q2229.6 1172.37 2229.6 1170.22 L2229.6 1166.86 Q2225.88 1166.99 2224.26 1168.48 Q2222.65 1169.95 2222.65 1171.69 Z" fill="#000000" fill-rule="nonzero" fill-opacity="1" /><path clip-path="url(#clip400)" d="M2235.88 1174.92 L2235.88 1173.89 Q2238.5 1173.89 2240.18 1171.87 Q2240.18 1171.87 2243.32 1167.87 L2239.99 1163.54 Q2238.81 1162.04 2238.29 1161.77 Q2237.78 1161.49 2236.04 1161.49 L2236.04 1160.45 Q2237.42 1160.54 2239.22 1160.54 Q2240.22 1160.54 2242.86 1160.45 L2242.86 1161.49 Q2241.68 1161.56 2241.68 1162.33 Q2241.68 1162.59 2241.98 1162.94 L2244.6 1166.33 L2246.68 1163.71 Q2247.19 1163.1 2247.19 1162.53 Q2247.19 1161.59 2246.21 1161.49 L2246.21 1160.45 Q2247.52 1160.54 2249.44 1160.54 Q2250.88 1160.54 2252.19 1160.45 L2252.19 1161.49 Q2249.64 1161.56 2248.19 1163.23 Q2247.55 1163.94 2245.11 1167.04 L2249.6 1172.84 Q2250.14 1173.55 2250.75 1173.73 Q2251.36 1173.89 2252.8 1173.89 L2252.8 1174.92 Q2251.29 1174.82 2249.57 1174.82 Q2248.96 1174.82 2245.95 1174.92 L2245.95 1173.89 Q2246.55 1173.86 2246.85 1173.59 Q2247.16 1173.32 2247.16 1173.04 Q2247.16 1172.91 2246.45 1171.94 L2243.9 1168.58 Q2241.34 1171.59 2241.01 1172.3 Q2240.88 1172.59 2240.88 1172.84 Q2240.88 1173.74 2241.85 1173.89 L2241.85 1174.92 Q2239.44 1174.82 2238.67 1174.82 Q2237.19 1174.82 2235.88 1174.92 Z" fill="#000000" fill-rule="nonzero" fill-opacity="1" /></svg>
