<?xml version="1.0" encoding="utf-8"?>
<svg xmlns="http://www.w3.org/2000/svg" xmlns:xlink="http://www.w3.org/1999/xlink" width="600" height="400" viewBox="0 0 2400 1600">
<defs>
  <clipPath id="clip750">
    <rect x="0" y="0" width="2400" height="1600"/>
  </clipPath>
</defs>
<path clip-path="url(#clip750)" d="M0 1600 L2400 1600 L2400 0 L0 0  Z" fill="#ffffff" fill-rule="evenodd" fill-opacity="1"/>
<defs>
  <clipPath id="clip751">
    <rect x="480" y="0" width="1681" height="1600"/>
  </clipPath>
</defs>
<path clip-path="url(#clip750)" d="M203.964 1423.18 L1110.81 1423.18 L1110.81 47.2441 L203.964 47.2441  Z" fill="#ffffff" fill-rule="evenodd" fill-opacity="1"/>
<defs>
  <clipPath id="clip752">
    <rect x="203" y="47" width="908" height="1377"/>
  </clipPath>
</defs>
<polyline clip-path="url(#clip752)" style="stroke:#000000; stroke-linecap:round; stroke-linejoin:round; stroke-width:2; stroke-opacity:0.1; fill:none" points="229.629,1423.18 229.629,47.2441 "/>
<polyline clip-path="url(#clip752)" style="stroke:#000000; stroke-linecap:round; stroke-linejoin:round; stroke-width:2; stroke-opacity:0.1; fill:none" points="481.252,1423.18 481.252,47.2441 "/>
<polyline clip-path="url(#clip752)" style="stroke:#000000; stroke-linecap:round; stroke-linejoin:round; stroke-width:2; stroke-opacity:0.1; fill:none" points="732.874,1423.18 732.874,47.2441 "/>
<polyline clip-path="url(#clip752)" style="stroke:#000000; stroke-linecap:round; stroke-linejoin:round; stroke-width:2; stroke-opacity:0.1; fill:none" points="984.497,1423.18 984.497,47.2441 "/>
<polyline clip-path="url(#clip750)" style="stroke:#000000; stroke-linecap:round; stroke-linejoin:round; stroke-width:4; stroke-opacity:1; fill:none" points="203.964,1423.18 1110.81,1423.18 "/>
<polyline clip-path="url(#clip750)" style="stroke:#000000; stroke-linecap:round; stroke-linejoin:round; stroke-width:4; stroke-opacity:1; fill:none" points="229.629,1423.18 229.629,1404.28 "/>
<polyline clip-path="url(#clip750)" style="stroke:#000000; stroke-linecap:round; stroke-linejoin:round; stroke-width:4; stroke-opacity:1; fill:none" points="481.252,1423.18 481.252,1404.28 "/>
<polyline clip-path="url(#clip750)" style="stroke:#000000; stroke-linecap:round; stroke-linejoin:round; stroke-width:4; stroke-opacity:1; fill:none" points="732.874,1423.18 732.874,1404.28 "/>
<polyline clip-path="url(#clip750)" style="stroke:#000000; stroke-linecap:round; stroke-linejoin:round; stroke-width:4; stroke-opacity:1; fill:none" points="984.497,1423.18 984.497,1404.28 "/>
<path clip-path="url(#clip750)" d="M229.629 1454.1 Q226.018 1454.1 224.189 1457.66 Q222.384 1461.2 222.384 1468.33 Q222.384 1475.44 224.189 1479.01 Q226.018 1482.55 229.629 1482.55 Q233.263 1482.55 235.069 1479.01 Q236.898 1475.44 236.898 1468.33 Q236.898 1461.2 235.069 1457.66 Q233.263 1454.1 229.629 1454.1 M229.629 1450.39 Q235.439 1450.39 238.495 1455 Q241.573 1459.58 241.573 1468.33 Q241.573 1477.06 238.495 1481.67 Q235.439 1486.25 229.629 1486.25 Q223.819 1486.25 220.74 1481.67 Q217.685 1477.06 217.685 1468.33 Q217.685 1459.58 220.74 1455 Q223.819 1450.39 229.629 1450.39 Z" fill="#000000" fill-rule="nonzero" fill-opacity="1" /><path clip-path="url(#clip750)" d="M471.634 1481.64 L479.273 1481.64 L479.273 1455.28 L470.962 1456.95 L470.962 1452.69 L479.226 1451.02 L483.902 1451.02 L483.902 1481.64 L491.541 1481.64 L491.541 1485.58 L471.634 1485.58 L471.634 1481.64 Z" fill="#000000" fill-rule="nonzero" fill-opacity="1" /><path clip-path="url(#clip750)" d="M727.527 1481.64 L743.847 1481.64 L743.847 1485.58 L721.902 1485.58 L721.902 1481.64 Q724.564 1478.89 729.148 1474.26 Q733.754 1469.61 734.935 1468.27 Q737.18 1465.74 738.06 1464.01 Q738.962 1462.25 738.962 1460.56 Q738.962 1457.8 737.018 1456.07 Q735.097 1454.33 731.995 1454.33 Q729.796 1454.33 727.342 1455.09 Q724.912 1455.86 722.134 1457.41 L722.134 1452.69 Q724.958 1451.55 727.411 1450.97 Q729.865 1450.39 731.902 1450.39 Q737.273 1450.39 740.467 1453.08 Q743.661 1455.77 743.661 1460.26 Q743.661 1462.39 742.851 1464.31 Q742.064 1466.2 739.958 1468.8 Q739.379 1469.47 736.277 1472.69 Q733.175 1475.88 727.527 1481.64 Z" fill="#000000" fill-rule="nonzero" fill-opacity="1" /><path clip-path="url(#clip750)" d="M988.745 1466.95 Q992.101 1467.66 993.976 1469.93 Q995.874 1472.2 995.874 1475.53 Q995.874 1480.65 992.356 1483.45 Q988.837 1486.25 982.356 1486.25 Q980.18 1486.25 977.865 1485.81 Q975.574 1485.39 973.12 1484.54 L973.12 1480.02 Q975.064 1481.16 977.379 1481.74 Q979.694 1482.32 982.217 1482.32 Q986.615 1482.32 988.907 1480.58 Q991.222 1478.84 991.222 1475.53 Q991.222 1472.48 989.069 1470.77 Q986.939 1469.03 983.12 1469.03 L979.092 1469.03 L979.092 1465.19 L983.305 1465.19 Q986.754 1465.19 988.583 1463.82 Q990.411 1462.43 990.411 1459.84 Q990.411 1457.18 988.513 1455.77 Q986.638 1454.33 983.12 1454.33 Q981.199 1454.33 978.999 1454.75 Q976.8 1455.16 974.162 1456.04 L974.162 1451.88 Q976.824 1451.14 979.138 1450.77 Q981.476 1450.39 983.536 1450.39 Q988.861 1450.39 991.962 1452.83 Q995.064 1455.23 995.064 1459.35 Q995.064 1462.22 993.421 1464.21 Q991.777 1466.18 988.745 1466.95 Z" fill="#000000" fill-rule="nonzero" fill-opacity="1" /><path clip-path="url(#clip750)" d="M527.559 1520.52 L567.758 1520.52 L567.758 1525.93 L550.889 1525.93 L550.889 1568.04 L544.428 1568.04 L544.428 1525.93 L527.559 1525.93 L527.559 1520.52 Z" fill="#000000" fill-rule="nonzero" fill-opacity="1" /><path clip-path="url(#clip750)" d="M571.705 1532.4 L577.562 1532.4 L577.562 1568.04 L571.705 1568.04 L571.705 1532.4 M571.705 1518.52 L577.562 1518.52 L577.562 1525.93 L571.705 1525.93 L571.705 1518.52 Z" fill="#000000" fill-rule="nonzero" fill-opacity="1" /><path clip-path="url(#clip750)" d="M617.57 1539.24 Q619.766 1535.29 622.822 1533.41 Q625.877 1531.54 630.015 1531.54 Q635.585 1531.54 638.609 1535.45 Q641.633 1539.33 641.633 1546.53 L641.633 1568.04 L635.744 1568.04 L635.744 1546.72 Q635.744 1541.59 633.93 1539.11 Q632.116 1536.63 628.392 1536.63 Q623.84 1536.63 621.199 1539.65 Q618.557 1542.68 618.557 1547.9 L618.557 1568.04 L612.669 1568.04 L612.669 1546.72 Q612.669 1541.56 610.854 1539.11 Q609.04 1536.63 605.252 1536.63 Q600.765 1536.63 598.123 1539.68 Q595.481 1542.71 595.481 1547.9 L595.481 1568.04 L589.593 1568.04 L589.593 1532.4 L595.481 1532.4 L595.481 1537.93 Q597.486 1534.66 600.287 1533.1 Q603.088 1531.54 606.939 1531.54 Q610.822 1531.54 613.528 1533.51 Q616.265 1535.48 617.57 1539.24 Z" fill="#000000" fill-rule="nonzero" fill-opacity="1" /><path clip-path="url(#clip750)" d="M683.805 1548.76 L683.805 1551.62 L656.878 1551.62 Q657.26 1557.67 660.507 1560.85 Q663.785 1564 669.61 1564 Q672.984 1564 676.135 1563.17 Q679.317 1562.35 682.437 1560.69 L682.437 1566.23 Q679.286 1567.57 675.975 1568.27 Q672.665 1568.97 669.26 1568.97 Q660.73 1568.97 655.733 1564 Q650.767 1559.04 650.767 1550.57 Q650.767 1541.82 655.478 1536.69 Q660.22 1531.54 668.241 1531.54 Q675.434 1531.54 679.604 1536.18 Q683.805 1540.8 683.805 1548.76 M677.949 1547.04 Q677.885 1542.23 675.243 1539.37 Q672.633 1536.5 668.305 1536.5 Q663.403 1536.5 660.443 1539.27 Q657.515 1542.04 657.069 1547.07 L677.949 1547.04 Z" fill="#000000" fill-rule="nonzero" fill-opacity="1" /><path clip-path="url(#clip750)" d="M728.206 1518.58 Q723.941 1525.9 721.872 1533.06 Q719.803 1540.23 719.803 1547.58 Q719.803 1554.93 721.872 1562.16 Q723.973 1569.35 728.206 1576.64 L723.114 1576.64 Q718.339 1569.16 715.952 1561.93 Q713.597 1554.71 713.597 1547.58 Q713.597 1540.48 715.952 1533.29 Q718.307 1526.09 723.114 1518.58 L728.206 1518.58 Z" fill="#000000" fill-rule="nonzero" fill-opacity="1" /><path clip-path="url(#clip750)" d="M762.294 1533.45 L762.294 1538.98 Q759.812 1537.71 757.138 1537.07 Q754.465 1536.44 751.6 1536.44 Q747.24 1536.44 745.043 1537.77 Q742.879 1539.11 742.879 1541.79 Q742.879 1543.82 744.439 1545 Q745.998 1546.15 750.709 1547.2 L752.714 1547.64 Q758.952 1548.98 761.562 1551.43 Q764.204 1553.85 764.204 1558.21 Q764.204 1563.17 760.257 1566.07 Q756.343 1568.97 749.468 1568.97 Q746.603 1568.97 743.484 1568.39 Q740.396 1567.85 736.959 1566.74 L736.959 1560.69 Q740.205 1562.38 743.356 1563.24 Q746.508 1564.07 749.595 1564.07 Q753.733 1564.07 755.961 1562.66 Q758.189 1561.23 758.189 1558.65 Q758.189 1556.27 756.565 1554.99 Q754.974 1553.72 749.531 1552.54 L747.494 1552.07 Q742.052 1550.92 739.633 1548.56 Q737.214 1546.18 737.214 1542.04 Q737.214 1537.01 740.778 1534.27 Q744.343 1531.54 750.9 1531.54 Q754.146 1531.54 757.011 1532.01 Q759.876 1532.49 762.294 1533.45 Z" fill="#000000" fill-rule="nonzero" fill-opacity="1" /><path clip-path="url(#clip750)" d="M772.607 1518.58 L777.699 1518.58 Q782.474 1526.09 784.829 1533.29 Q787.216 1540.48 787.216 1547.58 Q787.216 1554.71 784.829 1561.93 Q782.474 1569.16 777.699 1576.64 L772.607 1576.64 Q776.84 1569.35 778.909 1562.16 Q781.01 1554.93 781.01 1547.58 Q781.01 1540.23 778.909 1533.06 Q776.84 1525.9 772.607 1518.58 Z" fill="#000000" fill-rule="nonzero" fill-opacity="1" /><polyline clip-path="url(#clip752)" style="stroke:#000000; stroke-linecap:round; stroke-linejoin:round; stroke-width:2; stroke-opacity:0.1; fill:none" points="203.964,1350.03 1110.81,1350.03 "/>
<polyline clip-path="url(#clip752)" style="stroke:#000000; stroke-linecap:round; stroke-linejoin:round; stroke-width:2; stroke-opacity:0.1; fill:none" points="203.964,992.167 1110.81,992.167 "/>
<polyline clip-path="url(#clip752)" style="stroke:#000000; stroke-linecap:round; stroke-linejoin:round; stroke-width:2; stroke-opacity:0.1; fill:none" points="203.964,634.3 1110.81,634.3 "/>
<polyline clip-path="url(#clip752)" style="stroke:#000000; stroke-linecap:round; stroke-linejoin:round; stroke-width:2; stroke-opacity:0.1; fill:none" points="203.964,276.433 1110.81,276.433 "/>
<polyline clip-path="url(#clip750)" style="stroke:#000000; stroke-linecap:round; stroke-linejoin:round; stroke-width:4; stroke-opacity:1; fill:none" points="203.964,1423.18 203.964,47.2441 "/>
<polyline clip-path="url(#clip750)" style="stroke:#000000; stroke-linecap:round; stroke-linejoin:round; stroke-width:4; stroke-opacity:1; fill:none" points="203.964,1350.03 222.861,1350.03 "/>
<polyline clip-path="url(#clip750)" style="stroke:#000000; stroke-linecap:round; stroke-linejoin:round; stroke-width:4; stroke-opacity:1; fill:none" points="203.964,992.167 222.861,992.167 "/>
<polyline clip-path="url(#clip750)" style="stroke:#000000; stroke-linecap:round; stroke-linejoin:round; stroke-width:4; stroke-opacity:1; fill:none" points="203.964,634.3 222.861,634.3 "/>
<polyline clip-path="url(#clip750)" style="stroke:#000000; stroke-linecap:round; stroke-linejoin:round; stroke-width:4; stroke-opacity:1; fill:none" points="203.964,276.433 222.861,276.433 "/>
<path clip-path="url(#clip750)" d="M156.019 1335.83 Q152.408 1335.83 150.579 1339.4 Q148.774 1342.94 148.774 1350.07 Q148.774 1357.18 150.579 1360.74 Q152.408 1364.28 156.019 1364.28 Q159.653 1364.28 161.459 1360.74 Q163.288 1357.18 163.288 1350.07 Q163.288 1342.94 161.459 1339.4 Q159.653 1335.83 156.019 1335.83 M156.019 1332.13 Q161.829 1332.13 164.885 1336.74 Q167.964 1341.32 167.964 1350.07 Q167.964 1358.8 164.885 1363.4 Q161.829 1367.99 156.019 1367.99 Q150.209 1367.99 147.13 1363.4 Q144.075 1358.8 144.075 1350.07 Q144.075 1341.32 147.13 1336.74 Q150.209 1332.13 156.019 1332.13 Z" fill="#000000" fill-rule="nonzero" fill-opacity="1" /><path clip-path="url(#clip750)" d="M116.668 1005.51 L124.306 1005.51 L124.306 979.147 L115.996 980.813 L115.996 976.554 L124.26 974.887 L128.936 974.887 L128.936 1005.51 L136.575 1005.51 L136.575 1009.45 L116.668 1009.45 L116.668 1005.51 Z" fill="#000000" fill-rule="nonzero" fill-opacity="1" /><path clip-path="url(#clip750)" d="M156.019 977.966 Q152.408 977.966 150.579 981.531 Q148.774 985.072 148.774 992.202 Q148.774 999.309 150.579 1002.87 Q152.408 1006.41 156.019 1006.41 Q159.653 1006.41 161.459 1002.87 Q163.288 999.309 163.288 992.202 Q163.288 985.072 161.459 981.531 Q159.653 977.966 156.019 977.966 M156.019 974.262 Q161.829 974.262 164.885 978.869 Q167.964 983.452 167.964 992.202 Q167.964 1000.93 164.885 1005.54 Q161.829 1010.12 156.019 1010.12 Q150.209 1010.12 147.13 1005.54 Q144.075 1000.93 144.075 992.202 Q144.075 983.452 147.13 978.869 Q150.209 974.262 156.019 974.262 Z" fill="#000000" fill-rule="nonzero" fill-opacity="1" /><path clip-path="url(#clip750)" d="M119.885 647.645 L136.204 647.645 L136.204 651.58 L114.26 651.58 L114.26 647.645 Q116.922 644.89 121.505 640.261 Q126.112 635.608 127.292 634.265 Q129.538 631.742 130.417 630.006 Q131.32 628.247 131.32 626.557 Q131.32 623.802 129.376 622.066 Q127.455 620.33 124.353 620.33 Q122.154 620.33 119.7 621.094 Q117.269 621.858 114.492 623.409 L114.492 618.687 Q117.316 617.552 119.769 616.974 Q122.223 616.395 124.26 616.395 Q129.63 616.395 132.825 619.08 Q136.019 621.765 136.019 626.256 Q136.019 628.386 135.209 630.307 Q134.422 632.205 132.316 634.798 Q131.737 635.469 128.635 638.687 Q125.533 641.881 119.885 647.645 Z" fill="#000000" fill-rule="nonzero" fill-opacity="1" /><path clip-path="url(#clip750)" d="M156.019 620.099 Q152.408 620.099 150.579 623.664 Q148.774 627.205 148.774 634.335 Q148.774 641.441 150.579 645.006 Q152.408 648.548 156.019 648.548 Q159.653 648.548 161.459 645.006 Q163.288 641.441 163.288 634.335 Q163.288 627.205 161.459 623.664 Q159.653 620.099 156.019 620.099 M156.019 616.395 Q161.829 616.395 164.885 621.001 Q167.964 625.585 167.964 634.335 Q167.964 643.062 164.885 647.668 Q161.829 652.251 156.019 652.251 Q150.209 652.251 147.13 647.668 Q144.075 643.062 144.075 634.335 Q144.075 625.585 147.13 621.001 Q150.209 616.395 156.019 616.395 Z" fill="#000000" fill-rule="nonzero" fill-opacity="1" /><path clip-path="url(#clip750)" d="M130.024 275.079 Q133.38 275.796 135.255 278.065 Q137.154 280.333 137.154 283.666 Q137.154 288.782 133.635 291.583 Q130.117 294.384 123.635 294.384 Q121.459 294.384 119.144 293.944 Q116.853 293.528 114.399 292.671 L114.399 288.157 Q116.343 289.291 118.658 289.87 Q120.973 290.449 123.496 290.449 Q127.894 290.449 130.186 288.713 Q132.501 286.977 132.501 283.666 Q132.501 280.611 130.348 278.898 Q128.218 277.162 124.399 277.162 L120.371 277.162 L120.371 273.319 L124.584 273.319 Q128.033 273.319 129.862 271.954 Q131.691 270.565 131.691 267.972 Q131.691 265.31 129.792 263.898 Q127.917 262.463 124.399 262.463 Q122.478 262.463 120.279 262.88 Q118.08 263.296 115.441 264.176 L115.441 260.009 Q118.103 259.268 120.418 258.898 Q122.755 258.528 124.816 258.528 Q130.14 258.528 133.242 260.958 Q136.343 263.366 136.343 267.486 Q136.343 270.356 134.7 272.347 Q133.056 274.315 130.024 275.079 Z" fill="#000000" fill-rule="nonzero" fill-opacity="1" /><path clip-path="url(#clip750)" d="M156.019 262.231 Q152.408 262.231 150.579 265.796 Q148.774 269.338 148.774 276.467 Q148.774 283.574 150.579 287.139 Q152.408 290.68 156.019 290.68 Q159.653 290.68 161.459 287.139 Q163.288 283.574 163.288 276.467 Q163.288 269.338 161.459 265.796 Q159.653 262.231 156.019 262.231 M156.019 258.528 Q161.829 258.528 164.885 263.134 Q167.964 267.717 167.964 276.467 Q167.964 285.194 164.885 289.801 Q161.829 294.384 156.019 294.384 Q150.209 294.384 147.13 289.801 Q144.075 285.194 144.075 276.467 Q144.075 267.717 147.13 263.134 Q150.209 258.528 156.019 258.528 Z" fill="#000000" fill-rule="nonzero" fill-opacity="1" /><path clip-path="url(#clip750)" d="M21.7178 734.435 Q22.1687 734.435 23.2315 734.724 L48.4165 741.037 Q54.0203 742.422 57.9494 746.93 Q61.8785 751.407 61.8785 756.496 Q61.8785 759.555 60.236 761.52 Q58.6257 763.484 56.1459 763.484 Q53.9559 763.484 52.8931 762.325 Q51.8625 761.165 51.8625 759.781 Q51.8625 759.33 51.9913 758.847 Q52.1201 758.364 52.6676 757.848 Q53.2151 757.333 54.1491 757.333 Q55.6628 757.333 56.8544 758.653 Q57.4019 759.298 57.5307 759.909 Q57.6596 760.489 57.6596 761.488 Q58.5613 761.101 59.1732 760.393 Q59.7851 759.684 60.0106 758.879 Q60.2682 758.074 60.3326 757.558 Q60.4293 757.011 60.4293 756.496 Q60.4293 752.373 56.2747 749.217 Q55.0187 748.283 53.7626 747.607 Q52.5388 746.898 51.0252 746.383 Q49.5437 745.868 48.7385 745.642 Q47.9334 745.385 46.0977 744.934 Q49.0928 747.929 49.0928 751.6 Q49.0928 753.146 48.6741 754.531 Q48.2554 755.884 47.3859 757.075 Q46.4841 758.267 44.906 758.975 Q43.3279 759.652 41.2346 759.652 Q39.0124 759.652 35.985 758.782 Q32.9577 757.913 27.386 755.819 Q24.2621 754.692 22.7484 754.692 Q22.0077 754.692 21.5568 754.853 Q21.0737 755.014 20.9127 755.336 Q20.7194 755.658 20.6872 755.852 Q20.655 756.013 20.655 756.335 Q20.655 758.235 22.5874 760.006 Q24.5197 761.777 28.8353 763.001 Q29.6405 763.259 29.8337 763.42 Q30.0269 763.581 30.0269 764.064 Q29.9947 764.869 29.3506 764.869 Q29.093 764.869 28.0946 764.579 Q27.064 764.289 25.5503 763.613 Q24.0044 762.905 22.6196 761.938 Q21.2025 760.972 20.2041 759.459 Q19.2058 757.913 19.2058 756.141 Q19.2058 753.726 20.7838 752.244 Q22.3297 750.731 24.6163 750.731 Q25.5503 750.731 26.3877 750.988 Q27.1928 751.214 29.3506 752.051 Q38.0462 755.433 42.2974 755.433 Q43.3279 755.433 44.1975 755.272 Q45.0349 755.079 45.8722 754.66 Q46.6774 754.241 47.1604 753.404 Q47.6113 752.534 47.6113 751.343 Q47.6113 749.829 46.9028 748.412 Q46.1621 746.963 45.1637 746.061 Q44.1653 745.127 43.3279 744.579 Q42.4584 744 42.0075 743.871 L30.1558 740.908 L24.874 739.588 Q22.0077 738.976 21.2991 738.686 Q20.6228 738.299 20.2686 737.623 Q19.9143 736.947 19.9143 736.367 Q19.9143 735.562 20.3974 735.014 Q20.8805 734.435 21.7178 734.435 Z" fill="#000000" fill-rule="nonzero" fill-opacity="1" /><path clip-path="url(#clip750)" d="M53.6652 727.689 L52.2224 727.689 Q52.2224 722.143 49.2691 719.28 Q49.2691 718.491 49.4494 718.355 Q49.6298 718.22 50.4639 718.22 L76.3671 718.22 Q77.7423 718.22 78.1706 717.544 Q78.599 716.867 78.599 713.914 L78.599 712.449 L80.0193 712.449 Q79.884 714.072 79.884 719.933 Q79.884 725.795 80.0193 727.395 L78.599 727.395 L78.599 725.93 Q78.599 723.022 78.1932 722.323 Q77.7648 721.624 76.3671 721.624 L52.4478 721.624 Q53.6652 724.036 53.6652 727.689 Z" fill="#000000" fill-rule="nonzero" fill-opacity="1" /><polyline clip-path="url(#clip752)" style="stroke:#009af9; stroke-linecap:round; stroke-linejoin:round; stroke-width:4; stroke-opacity:1; fill:none" points="229.629,1384.24 254.791,1356.08 279.954,1148.33 305.116,820.653 330.278,461.991 355.44,259.291 380.603,104.312 405.765,110.609 430.927,148.674 456.089,261.605 481.252,384.059 506.414,462.94 531.576,500.042 556.739,575.576 581.901,537.911 607.063,525.48 632.225,511.986 657.388,467.901 682.55,446.73 707.712,438.4 732.874,380.774 758.037,440.592 783.199,414.247 808.361,470.041 833.524,474.937 858.686,445.266 883.848,460.327 909.01,479.909 934.173,478.842 959.335,451.888 984.497,414.911 1009.66,438.666 1034.82,439.117 1059.98,450.138 1085.15,435.449 "/>
<polyline clip-path="url(#clip752)" style="stroke:#e26f46; stroke-linecap:round; stroke-linejoin:round; stroke-width:3; stroke-opacity:1; fill:none" stroke-dasharray="12, 6, 2, 6" points="229.629,1350.03 254.791,1384.23 279.954,1130.99 305.116,819.839 330.278,473.275 355.44,174.667 380.603,138.999 405.765,86.1857 430.927,205.972 456.089,280.051 481.252,413.945 506.414,518.037 531.576,544.511 556.739,528.523 581.901,594.693 607.063,499.28 632.225,485.672 657.388,478.677 682.55,430.375 707.712,425.883 732.874,433.317 758.037,362.195 783.199,471.991 808.361,419.176 833.524,500.087 858.686,484.743 883.848,431.786 909.01,461.238 934.173,486.722 959.335,476.788 984.497,436.446 1009.66,394.895 1034.82,447.574 1059.98,445.699 1085.15,459.03 "/>
<path clip-path="url(#clip750)" d="M961.069 248.629 L1080.58 248.629 L1080.58 93.1086 L961.069 93.1086  Z" fill="#ffffff" fill-rule="evenodd" fill-opacity="1"/>
<polyline clip-path="url(#clip750)" style="stroke:#000000; stroke-linecap:round; stroke-linejoin:round; stroke-width:4; stroke-opacity:1; fill:none" points="961.069,248.629 1080.58,248.629 1080.58,93.1086 961.069,93.1086 961.069,248.629 "/>
<polyline clip-path="url(#clip750)" style="stroke:#009af9; stroke-linecap:round; stroke-linejoin:round; stroke-width:4; stroke-opacity:1; fill:none" points="971.145,144.949 1031.6,144.949 "/>
<path clip-path="url(#clip750)" d="M1068.45 131.687 Q1066.97 131.687 1066.22 131.828 Q1065.48 131.945 1065.29 132.109 Q1065.1 132.273 1064.89 132.695 L1054.58 154.618 Q1053.48 156.96 1051.42 158.647 Q1049.38 160.333 1046.81 160.333 Q1044.65 160.333 1043.15 159.021 Q1041.68 157.733 1041.68 155.906 Q1041.68 154.595 1042.5 153.845 Q1043.32 153.119 1044.42 153.119 Q1045.64 153.119 1046.41 153.892 Q1047.21 154.665 1047.21 155.859 Q1047.21 156.632 1046.88 157.218 Q1046.55 157.827 1046.25 158.038 Q1045.96 158.272 1045.66 158.412 Q1046.15 158.6 1046.81 158.6 Q1047.79 158.6 1048.63 158.202 Q1049.5 157.827 1050.06 157.312 Q1050.65 156.82 1051.23 155.93 Q1051.82 155.063 1052.1 154.501 Q1052.38 153.962 1052.8 153.025 L1053.9 150.73 L1044.93 131.687 L1041.87 131.687 L1041.87 129.439 L1047.35 129.579 L1053.3 129.439 L1053.3 131.687 L1050.7 131.687 L1056.79 144.64 L1062.31 132.835 L1062.55 132.273 Q1062.55 132.015 1061.99 131.875 Q1061.42 131.711 1060.86 131.711 L1060.3 131.687 L1060.3 129.439 L1064.66 129.579 Q1066.72 129.579 1068.45 129.439 L1068.45 131.687 Z" fill="#000000" fill-rule="nonzero" fill-opacity="1" /><polyline clip-path="url(#clip750)" style="stroke:#e26f46; stroke-linecap:round; stroke-linejoin:round; stroke-width:3; stroke-opacity:1; fill:none" stroke-dasharray="12, 6, 2, 6" points="971.145,196.789 1031.6,196.789 "/>
<path clip-path="url(#clip750)" d="M1064.26 180.509 L1063.85 181.181 Q1061.31 180.083 1058.15 178.328 Q1054.98 180.083 1052.44 181.181 L1052.05 180.509 Q1054.82 178.099 1058.15 176.246 Q1061.51 178.115 1064.26 180.509 Z" fill="#000000" fill-rule="nonzero" fill-opacity="1" /><path clip-path="url(#clip750)" d="M1068.45 188.532 Q1066.97 188.532 1066.22 188.672 Q1065.48 188.79 1065.29 188.954 Q1065.1 189.118 1064.89 189.539 L1054.58 211.463 Q1053.48 213.805 1051.42 215.491 Q1049.38 217.178 1046.81 217.178 Q1044.65 217.178 1043.15 215.866 Q1041.68 214.578 1041.68 212.751 Q1041.68 211.439 1042.5 210.69 Q1043.32 209.963 1044.42 209.963 Q1045.64 209.963 1046.41 210.736 Q1047.21 211.509 1047.21 212.704 Q1047.21 213.477 1046.88 214.062 Q1046.55 214.671 1046.25 214.882 Q1045.96 215.116 1045.66 215.257 Q1046.15 215.444 1046.81 215.444 Q1047.79 215.444 1048.63 215.046 Q1049.5 214.671 1050.06 214.156 Q1050.65 213.664 1051.23 212.774 Q1051.82 211.908 1052.1 211.345 Q1052.38 210.807 1052.8 209.87 L1053.9 207.574 L1044.93 188.532 L1041.87 188.532 L1041.87 186.283 L1047.35 186.424 L1053.3 186.283 L1053.3 188.532 L1050.7 188.532 L1056.79 201.485 L1062.31 189.68 L1062.55 189.118 Q1062.55 188.86 1061.99 188.719 Q1061.42 188.555 1060.86 188.555 L1060.3 188.532 L1060.3 186.283 L1064.66 186.424 Q1066.72 186.424 1068.45 186.283 L1068.45 188.532 Z" fill="#000000" fill-rule="nonzero" fill-opacity="1" /><path clip-path="url(#clip750)" d="M1445.91 398.692 L2352.76 398.692 L2352.76 47.2441 L1445.91 47.2441  Z" fill="#ffffff" fill-rule="evenodd" fill-opacity="1"/>
<defs>
  <clipPath id="clip753">
    <rect x="1445" y="47" width="908" height="352"/>
  </clipPath>
</defs>
<polyline clip-path="url(#clip753)" style="stroke:#000000; stroke-linecap:round; stroke-linejoin:round; stroke-width:2; stroke-opacity:0.1; fill:none" points="1471.57,398.692 1471.57,47.2441 "/>
<polyline clip-path="url(#clip753)" style="stroke:#000000; stroke-linecap:round; stroke-linejoin:round; stroke-width:2; stroke-opacity:0.1; fill:none" points="1723.2,398.692 1723.2,47.2441 "/>
<polyline clip-path="url(#clip753)" style="stroke:#000000; stroke-linecap:round; stroke-linejoin:round; stroke-width:2; stroke-opacity:0.1; fill:none" points="1974.82,398.692 1974.82,47.2441 "/>
<polyline clip-path="url(#clip753)" style="stroke:#000000; stroke-linecap:round; stroke-linejoin:round; stroke-width:2; stroke-opacity:0.1; fill:none" points="2226.44,398.692 2226.44,47.2441 "/>
<polyline clip-path="url(#clip750)" style="stroke:#000000; stroke-linecap:round; stroke-linejoin:round; stroke-width:4; stroke-opacity:1; fill:none" points="1445.91,398.692 2352.76,398.692 "/>
<polyline clip-path="url(#clip750)" style="stroke:#000000; stroke-linecap:round; stroke-linejoin:round; stroke-width:4; stroke-opacity:1; fill:none" points="1471.57,398.692 1471.57,379.794 "/>
<polyline clip-path="url(#clip750)" style="stroke:#000000; stroke-linecap:round; stroke-linejoin:round; stroke-width:4; stroke-opacity:1; fill:none" points="1723.2,398.692 1723.2,379.794 "/>
<polyline clip-path="url(#clip750)" style="stroke:#000000; stroke-linecap:round; stroke-linejoin:round; stroke-width:4; stroke-opacity:1; fill:none" points="1974.82,398.692 1974.82,379.794 "/>
<polyline clip-path="url(#clip750)" style="stroke:#000000; stroke-linecap:round; stroke-linejoin:round; stroke-width:4; stroke-opacity:1; fill:none" points="2226.44,398.692 2226.44,379.794 "/>
<path clip-path="url(#clip750)" d="M1471.57 429.611 Q1467.96 429.611 1466.13 433.175 Q1464.33 436.717 1464.33 443.847 Q1464.33 450.953 1466.13 454.518 Q1467.96 458.059 1471.57 458.059 Q1475.21 458.059 1477.01 454.518 Q1478.84 450.953 1478.84 443.847 Q1478.84 436.717 1477.01 433.175 Q1475.21 429.611 1471.57 429.611 M1471.57 425.907 Q1477.38 425.907 1480.44 430.513 Q1483.52 435.097 1483.52 443.847 Q1483.52 452.573 1480.44 457.18 Q1477.38 461.763 1471.57 461.763 Q1465.76 461.763 1462.68 457.18 Q1459.63 452.573 1459.63 443.847 Q1459.63 435.097 1462.68 430.513 Q1465.76 425.907 1471.57 425.907 Z" fill="#000000" fill-rule="nonzero" fill-opacity="1" /><path clip-path="url(#clip750)" d="M1713.58 457.157 L1721.22 457.157 L1721.22 430.791 L1712.91 432.458 L1712.91 428.199 L1721.17 426.532 L1725.85 426.532 L1725.85 457.157 L1733.49 457.157 L1733.49 461.092 L1713.58 461.092 L1713.58 457.157 Z" fill="#000000" fill-rule="nonzero" fill-opacity="1" /><path clip-path="url(#clip750)" d="M1969.47 457.157 L1985.79 457.157 L1985.79 461.092 L1963.85 461.092 L1963.85 457.157 Q1966.51 454.402 1971.09 449.772 Q1975.7 445.12 1976.88 443.777 Q1979.12 441.254 1980 439.518 Q1980.91 437.759 1980.91 436.069 Q1980.91 433.314 1978.96 431.578 Q1977.04 429.842 1973.94 429.842 Q1971.74 429.842 1969.29 430.606 Q1966.86 431.37 1964.08 432.921 L1964.08 428.199 Q1966.9 427.064 1969.36 426.486 Q1971.81 425.907 1973.85 425.907 Q1979.22 425.907 1982.41 428.592 Q1985.61 431.277 1985.61 435.768 Q1985.61 437.898 1984.8 439.819 Q1984.01 441.717 1981.9 444.31 Q1981.32 444.981 1978.22 448.198 Q1975.12 451.393 1969.47 457.157 Z" fill="#000000" fill-rule="nonzero" fill-opacity="1" /><path clip-path="url(#clip750)" d="M2230.69 442.458 Q2234.05 443.175 2235.92 445.444 Q2237.82 447.712 2237.82 451.046 Q2237.82 456.161 2234.3 458.962 Q2230.78 461.763 2224.3 461.763 Q2222.12 461.763 2219.81 461.323 Q2217.52 460.907 2215.06 460.05 L2215.06 455.536 Q2217.01 456.671 2219.32 457.249 Q2221.64 457.828 2224.16 457.828 Q2228.56 457.828 2230.85 456.092 Q2233.17 454.356 2233.17 451.046 Q2233.17 447.99 2231.01 446.277 Q2228.88 444.541 2225.06 444.541 L2221.04 444.541 L2221.04 440.698 L2225.25 440.698 Q2228.7 440.698 2230.53 439.333 Q2232.36 437.944 2232.36 435.351 Q2232.36 432.689 2230.46 431.277 Q2228.58 429.842 2225.06 429.842 Q2223.14 429.842 2220.94 430.259 Q2218.74 430.675 2216.11 431.555 L2216.11 427.388 Q2218.77 426.648 2221.08 426.277 Q2223.42 425.907 2225.48 425.907 Q2230.8 425.907 2233.91 428.337 Q2237.01 430.745 2237.01 434.865 Q2237.01 437.736 2235.36 439.726 Q2233.72 441.694 2230.69 442.458 Z" fill="#000000" fill-rule="nonzero" fill-opacity="1" /><polyline clip-path="url(#clip753)" style="stroke:#000000; stroke-linecap:round; stroke-linejoin:round; stroke-width:2; stroke-opacity:0.1; fill:none" points="1445.91,380.011 2352.76,380.011 "/>
<polyline clip-path="url(#clip753)" style="stroke:#000000; stroke-linecap:round; stroke-linejoin:round; stroke-width:2; stroke-opacity:0.1; fill:none" points="1445.91,327.638 2352.76,327.638 "/>
<polyline clip-path="url(#clip753)" style="stroke:#000000; stroke-linecap:round; stroke-linejoin:round; stroke-width:2; stroke-opacity:0.1; fill:none" points="1445.91,275.265 2352.76,275.265 "/>
<polyline clip-path="url(#clip753)" style="stroke:#000000; stroke-linecap:round; stroke-linejoin:round; stroke-width:2; stroke-opacity:0.1; fill:none" points="1445.91,222.891 2352.76,222.891 "/>
<polyline clip-path="url(#clip753)" style="stroke:#000000; stroke-linecap:round; stroke-linejoin:round; stroke-width:2; stroke-opacity:0.1; fill:none" points="1445.91,170.518 2352.76,170.518 "/>
<polyline clip-path="url(#clip753)" style="stroke:#000000; stroke-linecap:round; stroke-linejoin:round; stroke-width:2; stroke-opacity:0.1; fill:none" points="1445.91,118.144 2352.76,118.144 "/>
<polyline clip-path="url(#clip753)" style="stroke:#000000; stroke-linecap:round; stroke-linejoin:round; stroke-width:2; stroke-opacity:0.1; fill:none" points="1445.91,65.771 2352.76,65.771 "/>
<polyline clip-path="url(#clip750)" style="stroke:#000000; stroke-linecap:round; stroke-linejoin:round; stroke-width:4; stroke-opacity:1; fill:none" points="1445.91,398.692 1445.91,47.2441 "/>
<polyline clip-path="url(#clip750)" style="stroke:#000000; stroke-linecap:round; stroke-linejoin:round; stroke-width:4; stroke-opacity:1; fill:none" points="1445.91,380.011 1464.81,380.011 "/>
<polyline clip-path="url(#clip750)" style="stroke:#000000; stroke-linecap:round; stroke-linejoin:round; stroke-width:4; stroke-opacity:1; fill:none" points="1445.91,327.638 1464.81,327.638 "/>
<polyline clip-path="url(#clip750)" style="stroke:#000000; stroke-linecap:round; stroke-linejoin:round; stroke-width:4; stroke-opacity:1; fill:none" points="1445.91,275.265 1464.81,275.265 "/>
<polyline clip-path="url(#clip750)" style="stroke:#000000; stroke-linecap:round; stroke-linejoin:round; stroke-width:4; stroke-opacity:1; fill:none" points="1445.91,222.891 1464.81,222.891 "/>
<polyline clip-path="url(#clip750)" style="stroke:#000000; stroke-linecap:round; stroke-linejoin:round; stroke-width:4; stroke-opacity:1; fill:none" points="1445.91,170.518 1464.81,170.518 "/>
<polyline clip-path="url(#clip750)" style="stroke:#000000; stroke-linecap:round; stroke-linejoin:round; stroke-width:4; stroke-opacity:1; fill:none" points="1445.91,118.144 1464.81,118.144 "/>
<polyline clip-path="url(#clip750)" style="stroke:#000000; stroke-linecap:round; stroke-linejoin:round; stroke-width:4; stroke-opacity:1; fill:none" points="1445.91,65.771 1464.81,65.771 "/>
<path clip-path="url(#clip750)" d="M1352.73 365.81 Q1349.12 365.81 1347.29 369.375 Q1345.49 372.917 1345.49 380.046 Q1345.49 387.153 1347.29 390.717 Q1349.12 394.259 1352.73 394.259 Q1356.37 394.259 1358.17 390.717 Q1360 387.153 1360 380.046 Q1360 372.917 1358.17 369.375 Q1356.37 365.81 1352.73 365.81 M1352.73 362.106 Q1358.54 362.106 1361.6 366.713 Q1364.68 371.296 1364.68 380.046 Q1364.68 388.773 1361.6 393.379 Q1358.54 397.963 1352.73 397.963 Q1346.92 397.963 1343.84 393.379 Q1340.79 388.773 1340.79 380.046 Q1340.79 371.296 1343.84 366.713 Q1346.92 362.106 1352.73 362.106 Z" fill="#000000" fill-rule="nonzero" fill-opacity="1" /><path clip-path="url(#clip750)" d="M1372.89 391.412 L1377.78 391.412 L1377.78 397.291 L1372.89 397.291 L1372.89 391.412 Z" fill="#000000" fill-rule="nonzero" fill-opacity="1" /><path clip-path="url(#clip750)" d="M1397.96 365.81 Q1394.35 365.81 1392.52 369.375 Q1390.72 372.917 1390.72 380.046 Q1390.72 387.153 1392.52 390.717 Q1394.35 394.259 1397.96 394.259 Q1401.6 394.259 1403.4 390.717 Q1405.23 387.153 1405.23 380.046 Q1405.23 372.917 1403.4 369.375 Q1401.6 365.81 1397.96 365.81 M1397.96 362.106 Q1403.77 362.106 1406.83 366.713 Q1409.91 371.296 1409.91 380.046 Q1409.91 388.773 1406.83 393.379 Q1403.77 397.963 1397.96 397.963 Q1392.15 397.963 1389.07 393.379 Q1386.02 388.773 1386.02 380.046 Q1386.02 371.296 1389.07 366.713 Q1392.15 362.106 1397.96 362.106 Z" fill="#000000" fill-rule="nonzero" fill-opacity="1" /><path clip-path="url(#clip750)" d="M1353.96 313.437 Q1350.35 313.437 1348.52 317.001 Q1346.71 320.543 1346.71 327.673 Q1346.71 334.779 1348.52 338.344 Q1350.35 341.886 1353.96 341.886 Q1357.59 341.886 1359.4 338.344 Q1361.23 334.779 1361.23 327.673 Q1361.23 320.543 1359.4 317.001 Q1357.59 313.437 1353.96 313.437 M1353.96 309.733 Q1359.77 309.733 1362.82 314.339 Q1365.9 318.923 1365.9 327.673 Q1365.9 336.4 1362.82 341.006 Q1359.77 345.589 1353.96 345.589 Q1348.15 345.589 1345.07 341.006 Q1342.01 336.4 1342.01 327.673 Q1342.01 318.923 1345.07 314.339 Q1348.15 309.733 1353.96 309.733 Z" fill="#000000" fill-rule="nonzero" fill-opacity="1" /><path clip-path="url(#clip750)" d="M1374.12 339.038 L1379.01 339.038 L1379.01 344.918 L1374.12 344.918 L1374.12 339.038 Z" fill="#000000" fill-rule="nonzero" fill-opacity="1" /><path clip-path="url(#clip750)" d="M1390 340.983 L1397.64 340.983 L1397.64 314.617 L1389.33 316.284 L1389.33 312.025 L1397.59 310.358 L1402.27 310.358 L1402.27 340.983 L1409.91 340.983 L1409.91 344.918 L1390 344.918 L1390 340.983 Z" fill="#000000" fill-rule="nonzero" fill-opacity="1" /><path clip-path="url(#clip750)" d="M1354.33 261.063 Q1350.72 261.063 1348.89 264.628 Q1347.08 268.17 1347.08 275.299 Q1347.08 282.406 1348.89 285.971 Q1350.72 289.512 1354.33 289.512 Q1357.96 289.512 1359.77 285.971 Q1361.6 282.406 1361.6 275.299 Q1361.6 268.17 1359.77 264.628 Q1357.96 261.063 1354.33 261.063 M1354.33 257.36 Q1360.14 257.36 1363.2 261.966 Q1366.27 266.549 1366.27 275.299 Q1366.27 284.026 1363.2 288.633 Q1360.14 293.216 1354.33 293.216 Q1348.52 293.216 1345.44 288.633 Q1342.39 284.026 1342.39 275.299 Q1342.39 266.549 1345.44 261.966 Q1348.52 257.36 1354.33 257.36 Z" fill="#000000" fill-rule="nonzero" fill-opacity="1" /><path clip-path="url(#clip750)" d="M1374.49 286.665 L1379.38 286.665 L1379.38 292.545 L1374.49 292.545 L1374.49 286.665 Z" fill="#000000" fill-rule="nonzero" fill-opacity="1" /><path clip-path="url(#clip750)" d="M1393.59 288.609 L1409.91 288.609 L1409.91 292.545 L1387.96 292.545 L1387.96 288.609 Q1390.63 285.855 1395.21 281.225 Q1399.82 276.572 1401 275.23 Q1403.24 272.707 1404.12 270.971 Q1405.02 269.211 1405.02 267.522 Q1405.02 264.767 1403.08 263.031 Q1401.16 261.295 1398.06 261.295 Q1395.86 261.295 1393.4 262.059 Q1390.97 262.823 1388.19 264.373 L1388.19 259.651 Q1391.02 258.517 1393.47 257.938 Q1395.93 257.36 1397.96 257.36 Q1403.33 257.36 1406.53 260.045 Q1409.72 262.73 1409.72 267.221 Q1409.72 269.35 1408.91 271.272 Q1408.13 273.17 1406.02 275.762 Q1405.44 276.434 1402.34 279.651 Q1399.24 282.846 1393.59 288.609 Z" fill="#000000" fill-rule="nonzero" fill-opacity="1" /><path clip-path="url(#clip750)" d="M1353.38 208.69 Q1349.77 208.69 1347.94 212.255 Q1346.13 215.796 1346.13 222.926 Q1346.13 230.032 1347.94 233.597 Q1349.77 237.139 1353.38 237.139 Q1357.01 237.139 1358.82 233.597 Q1360.65 230.032 1360.65 222.926 Q1360.65 215.796 1358.82 212.255 Q1357.01 208.69 1353.38 208.69 M1353.38 204.986 Q1359.19 204.986 1362.25 209.593 Q1365.32 214.176 1365.32 222.926 Q1365.32 231.653 1362.25 236.259 Q1359.19 240.842 1353.38 240.842 Q1347.57 240.842 1344.49 236.259 Q1341.44 231.653 1341.44 222.926 Q1341.44 214.176 1344.49 209.593 Q1347.57 204.986 1353.38 204.986 Z" fill="#000000" fill-rule="nonzero" fill-opacity="1" /><path clip-path="url(#clip750)" d="M1373.54 234.292 L1378.43 234.292 L1378.43 240.171 L1373.54 240.171 L1373.54 234.292 Z" fill="#000000" fill-rule="nonzero" fill-opacity="1" /><path clip-path="url(#clip750)" d="M1402.78 221.537 Q1406.13 222.255 1408.01 224.523 Q1409.91 226.792 1409.91 230.125 Q1409.91 235.241 1406.39 238.042 Q1402.87 240.842 1396.39 240.842 Q1394.21 240.842 1391.9 240.403 Q1389.61 239.986 1387.15 239.13 L1387.15 234.616 Q1389.1 235.75 1391.41 236.329 Q1393.73 236.907 1396.25 236.907 Q1400.65 236.907 1402.94 235.171 Q1405.26 233.435 1405.26 230.125 Q1405.26 227.069 1403.1 225.356 Q1400.97 223.62 1397.15 223.62 L1393.13 223.62 L1393.13 219.778 L1397.34 219.778 Q1400.79 219.778 1402.62 218.412 Q1404.44 217.023 1404.44 214.431 Q1404.44 211.769 1402.55 210.357 Q1400.67 208.921 1397.15 208.921 Q1395.23 208.921 1393.03 209.338 Q1390.83 209.755 1388.19 210.634 L1388.19 206.468 Q1390.86 205.727 1393.17 205.357 Q1395.51 204.986 1397.57 204.986 Q1402.89 204.986 1406 207.417 Q1409.1 209.824 1409.1 213.944 Q1409.1 216.815 1407.45 218.806 Q1405.81 220.773 1402.78 221.537 Z" fill="#000000" fill-rule="nonzero" fill-opacity="1" /><path clip-path="url(#clip750)" d="M1352.25 156.316 Q1348.63 156.316 1346.81 159.881 Q1345 163.423 1345 170.552 Q1345 177.659 1346.81 181.224 Q1348.63 184.765 1352.25 184.765 Q1355.88 184.765 1357.69 181.224 Q1359.51 177.659 1359.51 170.552 Q1359.51 163.423 1357.69 159.881 Q1355.88 156.316 1352.25 156.316 M1352.25 152.613 Q1358.06 152.613 1361.11 157.219 Q1364.19 161.803 1364.19 170.552 Q1364.19 179.279 1361.11 183.886 Q1358.06 188.469 1352.25 188.469 Q1346.44 188.469 1343.36 183.886 Q1340.3 179.279 1340.3 170.552 Q1340.3 161.803 1343.36 157.219 Q1346.44 152.613 1352.25 152.613 Z" fill="#000000" fill-rule="nonzero" fill-opacity="1" /><path clip-path="url(#clip750)" d="M1372.41 181.918 L1377.29 181.918 L1377.29 187.798 L1372.41 187.798 L1372.41 181.918 Z" fill="#000000" fill-rule="nonzero" fill-opacity="1" /><path clip-path="url(#clip750)" d="M1400.32 157.312 L1388.52 175.761 L1400.32 175.761 L1400.32 157.312 M1399.1 153.238 L1404.98 153.238 L1404.98 175.761 L1409.91 175.761 L1409.91 179.65 L1404.98 179.65 L1404.98 187.798 L1400.32 187.798 L1400.32 179.65 L1384.72 179.65 L1384.72 175.136 L1399.1 153.238 Z" fill="#000000" fill-rule="nonzero" fill-opacity="1" /><path clip-path="url(#clip750)" d="M1353.73 103.943 Q1350.12 103.943 1348.29 107.508 Q1346.48 111.049 1346.48 118.179 Q1346.48 125.286 1348.29 128.85 Q1350.12 132.392 1353.73 132.392 Q1357.36 132.392 1359.17 128.85 Q1361 125.286 1361 118.179 Q1361 111.049 1359.17 107.508 Q1357.36 103.943 1353.73 103.943 M1353.73 100.239 Q1359.54 100.239 1362.59 104.846 Q1365.67 109.429 1365.67 118.179 Q1365.67 126.906 1362.59 131.512 Q1359.54 136.096 1353.73 136.096 Q1347.92 136.096 1344.84 131.512 Q1341.78 126.906 1341.78 118.179 Q1341.78 109.429 1344.84 104.846 Q1347.92 100.239 1353.73 100.239 Z" fill="#000000" fill-rule="nonzero" fill-opacity="1" /><path clip-path="url(#clip750)" d="M1373.89 129.545 L1378.77 129.545 L1378.77 135.424 L1373.89 135.424 L1373.89 129.545 Z" fill="#000000" fill-rule="nonzero" fill-opacity="1" /><path clip-path="url(#clip750)" d="M1389.01 100.864 L1407.36 100.864 L1407.36 104.8 L1393.29 104.8 L1393.29 113.272 Q1394.31 112.924 1395.32 112.762 Q1396.34 112.577 1397.36 112.577 Q1403.15 112.577 1406.53 115.749 Q1409.91 118.92 1409.91 124.336 Q1409.91 129.915 1406.44 133.017 Q1402.96 136.096 1396.64 136.096 Q1394.47 136.096 1392.2 135.725 Q1389.95 135.355 1387.55 134.614 L1387.55 129.915 Q1389.63 131.049 1391.85 131.605 Q1394.07 132.16 1396.55 132.16 Q1400.56 132.16 1402.89 130.054 Q1405.23 127.948 1405.23 124.336 Q1405.23 120.725 1402.89 118.619 Q1400.56 116.512 1396.55 116.512 Q1394.68 116.512 1392.8 116.929 Q1390.95 117.346 1389.01 118.225 L1389.01 100.864 Z" fill="#000000" fill-rule="nonzero" fill-opacity="1" /><path clip-path="url(#clip750)" d="M1352.57 51.5697 Q1348.96 51.5697 1347.13 55.1344 Q1345.32 58.6761 1345.32 65.8057 Q1345.32 72.9121 1347.13 76.4769 Q1348.96 80.0186 1352.57 80.0186 Q1356.2 80.0186 1358.01 76.4769 Q1359.84 72.9121 1359.84 65.8057 Q1359.84 58.6761 1358.01 55.1344 Q1356.2 51.5697 1352.57 51.5697 M1352.57 47.866 Q1358.38 47.866 1361.44 52.4724 Q1364.51 57.0557 1364.51 65.8057 Q1364.51 74.5325 1361.44 79.1389 Q1358.38 83.7223 1352.57 83.7223 Q1346.76 83.7223 1343.68 79.1389 Q1340.63 74.5325 1340.63 65.8057 Q1340.63 57.0557 1343.68 52.4724 Q1346.76 47.866 1352.57 47.866 Z" fill="#000000" fill-rule="nonzero" fill-opacity="1" /><path clip-path="url(#clip750)" d="M1372.73 77.1714 L1377.62 77.1714 L1377.62 83.051 L1372.73 83.051 L1372.73 77.1714 Z" fill="#000000" fill-rule="nonzero" fill-opacity="1" /><path clip-path="url(#clip750)" d="M1398.38 63.9075 Q1395.23 63.9075 1393.38 66.0603 Q1391.55 68.2131 1391.55 71.9631 Q1391.55 75.6899 1393.38 77.8658 Q1395.23 80.0186 1398.38 80.0186 Q1401.53 80.0186 1403.36 77.8658 Q1405.21 75.6899 1405.21 71.9631 Q1405.21 68.2131 1403.36 66.0603 Q1401.53 63.9075 1398.38 63.9075 M1407.66 49.2548 L1407.66 53.5141 Q1405.9 52.6808 1404.1 52.2409 Q1402.32 51.8011 1400.56 51.8011 Q1395.93 51.8011 1393.47 54.9261 Q1391.04 58.0511 1390.69 64.3705 Q1392.06 62.3566 1394.12 61.2918 Q1396.18 60.2039 1398.66 60.2039 Q1403.87 60.2039 1406.88 63.3751 Q1409.91 66.5233 1409.91 71.9631 Q1409.91 77.2871 1406.76 80.5047 Q1403.61 83.7223 1398.38 83.7223 Q1392.38 83.7223 1389.21 79.1389 Q1386.04 74.5325 1386.04 65.8057 Q1386.04 57.6113 1389.93 52.7502 Q1393.82 47.866 1400.37 47.866 Q1402.13 47.866 1403.91 48.2132 Q1405.72 48.5604 1407.66 49.2548 Z" fill="#000000" fill-rule="nonzero" fill-opacity="1" /><path clip-path="url(#clip750)" d="M1255.92 220.971 Q1257.73 220.971 1258.76 222.098 Q1259.76 223.225 1259.76 224.513 Q1259.76 225.737 1259.05 226.381 Q1258.34 227.025 1257.44 227.025 Q1256.21 227.025 1255.15 226.123 Q1254.09 225.222 1253.86 223.869 Q1253.02 225.189 1253.02 227.154 Q1253.02 228.442 1253.7 229.569 Q1254.38 230.664 1255.25 231.341 Q1256.12 231.985 1257.37 232.565 Q1258.6 233.112 1259.34 233.338 Q1260.05 233.531 1260.82 233.692 L1269.84 235.946 Q1274.12 237.041 1275.63 237.041 Q1277.5 237.041 1278.76 236.139 Q1279.98 235.238 1279.98 233.434 Q1279.98 232.726 1279.79 231.92 Q1279.56 231.115 1278.98 230.085 Q1278.37 229.022 1277.47 228.088 Q1276.53 227.122 1274.96 226.188 Q1273.38 225.254 1271.35 224.642 Q1270.64 224.449 1270.64 223.805 Q1270.64 222.999 1271.29 222.999 Q1271.83 222.999 1272.99 223.45 Q1274.12 223.869 1275.6 224.803 Q1277.05 225.705 1278.37 226.896 Q1279.66 228.088 1280.56 229.859 Q1281.46 231.631 1281.46 233.563 Q1281.46 236.333 1279.98 238.168 Q1278.5 240.004 1276.44 240.68 Q1276.73 240.842 1277.11 241.067 Q1277.5 241.292 1278.37 241.969 Q1279.21 242.613 1279.85 243.354 Q1280.46 244.094 1280.95 245.254 Q1281.46 246.381 1281.46 247.605 Q1281.46 249.151 1281.01 250.535 Q1280.56 251.888 1279.53 252.854 Q1278.5 253.82 1277.08 253.82 Q1275.5 253.82 1274.41 252.758 Q1273.28 251.663 1273.28 250.181 Q1273.28 249.247 1273.83 248.507 Q1274.38 247.734 1275.57 247.734 Q1276.89 247.734 1277.89 248.635 Q1278.89 249.537 1279.14 250.825 Q1279.98 249.505 1279.98 247.54 Q1279.98 245.415 1278.11 243.74 Q1276.25 242.065 1273.12 241.26 Q1265.62 239.263 1262.27 238.49 Q1258.89 237.718 1257.44 237.718 Q1256.08 237.718 1255.15 238.072 Q1254.22 238.426 1253.8 239.038 Q1253.35 239.618 1253.19 240.165 Q1253.02 240.68 1253.02 241.26 Q1253.02 242.226 1253.41 243.321 Q1253.8 244.384 1254.7 245.672 Q1255.57 246.928 1257.37 248.12 Q1259.18 249.312 1261.66 250.117 Q1262.4 250.278 1262.4 250.986 Q1262.36 251.759 1261.72 251.759 Q1261.17 251.759 1260.05 251.341 Q1258.89 250.89 1257.44 249.988 Q1255.99 249.054 1254.7 247.862 Q1253.38 246.639 1252.48 244.867 Q1251.58 243.064 1251.58 241.131 Q1251.58 240.262 1251.77 239.424 Q1251.93 238.555 1252.41 237.524 Q1252.9 236.462 1253.96 235.528 Q1255.02 234.594 1256.57 234.014 Q1255.83 233.627 1255.12 233.112 Q1254.41 232.565 1253.54 231.727 Q1252.64 230.858 1252.12 229.666 Q1251.58 228.442 1251.58 227.09 Q1251.58 225.769 1251.93 224.481 Q1252.25 223.193 1253.31 222.098 Q1254.35 220.971 1255.92 220.971 Z" fill="#000000" fill-rule="nonzero" fill-opacity="1" /><path clip-path="url(#clip750)" d="M1273.38 214.249 L1271.94 214.249 Q1271.94 208.703 1268.98 205.84 Q1268.98 205.051 1269.16 204.916 Q1269.34 204.781 1270.18 204.781 L1296.08 204.781 Q1297.46 204.781 1297.88 204.104 Q1298.31 203.428 1298.31 200.475 L1298.31 199.009 L1299.73 199.009 Q1299.6 200.633 1299.6 206.494 Q1299.6 212.356 1299.73 213.956 L1298.31 213.956 L1298.31 212.491 Q1298.31 209.583 1297.91 208.884 Q1297.48 208.185 1296.08 208.185 L1272.16 208.185 Q1273.38 210.597 1273.38 214.249 Z" fill="#000000" fill-rule="nonzero" fill-opacity="1" /><polyline clip-path="url(#clip753)" style="stroke:#009af9; stroke-linecap:round; stroke-linejoin:round; stroke-width:4; stroke-opacity:1; fill:none" points="1471.57,380.011 1496.74,380.011 1521.9,325.456 1547.06,243.622 1572.22,161.492 1597.38,98.91 1622.55,65.0608 1647.71,59.1912 1672.87,74.2962 1698.03,101.07 1723.2,130.62 1748.36,155.994 1773.52,172.944 1798.68,180.089 1823.85,178.526 1849.01,170.989 1874.17,160.82 1899.33,151.042 1924.49,143.745 1949.66,139.868 1974.82,139.316 1999.98,141.28 2025.14,144.622 2050.31,148.222 2075.47,151.215 2100.63,153.108 2125.79,153.789 2150.95,153.441 2176.12,152.429 2201.28,151.162 2226.44,149.992 2251.6,149.152 2276.77,148.737 2301.93,148.721 2327.09,148.995 "/>
<polyline clip-path="url(#clip753)" style="stroke:#e26f46; stroke-linecap:round; stroke-linejoin:round; stroke-width:3; stroke-opacity:1; fill:none" stroke-dasharray="12, 6, 2, 6" points="1471.57,380.011 1496.74,388.745 1521.9,324.061 1547.06,244.585 1572.22,156.064 1597.38,79.7911 1622.55,70.6808 1647.71,57.1907 1672.87,87.7874 1698.03,106.709 1723.2,140.909 1748.36,167.497 1773.52,174.259 1798.68,170.175 1823.85,187.077 1849.01,162.706 1874.17,159.23 1899.33,157.444 1924.49,145.106 1949.66,143.958 1974.82,145.857 1999.98,127.691 2025.14,155.736 2050.31,142.245 2075.47,162.912 2100.63,158.993 2125.79,145.466 2150.95,152.989 2176.12,159.498 2201.28,156.961 2226.44,146.656 2251.6,136.043 2276.77,149.499 2301.93,149.02 2327.09,152.425 "/>
<path clip-path="url(#clip750)" d="M2203.01 214.479 L2322.53 214.479 L2322.53 58.959 L2203.01 58.959  Z" fill="#ffffff" fill-rule="evenodd" fill-opacity="1"/>
<polyline clip-path="url(#clip750)" style="stroke:#000000; stroke-linecap:round; stroke-linejoin:round; stroke-width:4; stroke-opacity:1; fill:none" points="2203.01,214.479 2322.53,214.479 2322.53,58.959 2203.01,58.959 2203.01,214.479 "/>
<polyline clip-path="url(#clip750)" style="stroke:#009af9; stroke-linecap:round; stroke-linejoin:round; stroke-width:4; stroke-opacity:1; fill:none" points="2213.09,110.799 2273.55,110.799 "/>
<path clip-path="url(#clip750)" d="M2310.63 121.338 L2305.36 121.198 L2299.6 121.338 L2299.6 119.09 L2301.47 119.09 L2296.2 112.859 L2291.54 118.082 L2291.21 118.551 Q2291.21 118.762 2291.75 118.926 Q2292.31 119.09 2292.97 119.09 L2292.97 121.338 L2288.03 121.198 L2283.62 121.338 L2283.62 119.09 Q2285.1 119.09 2285.78 119.066 Q2286.48 119.019 2287.28 118.808 Q2288.07 118.598 2288.47 118.176 L2294.75 111.126 L2287.28 102.296 L2283.86 102.296 L2283.86 100.047 L2289.15 100.188 L2294.94 100.047 L2294.94 102.296 L2293.01 102.296 L2297.72 107.8 L2301.75 103.303 Q2301.77 103.279 2302.15 102.717 Q2301.4 102.296 2300.32 102.296 L2300.32 100.047 L2305.26 100.188 L2309.67 100.047 L2309.67 102.296 Q2307.75 102.296 2306.74 102.436 Q2305.76 102.553 2305.45 102.717 Q2305.17 102.881 2304.77 103.303 L2299.17 109.533 L2307.23 119.09 L2310.63 119.09 L2310.63 121.338 Z" fill="#000000" fill-rule="nonzero" fill-opacity="1" /><polyline clip-path="url(#clip750)" style="stroke:#e26f46; stroke-linecap:round; stroke-linejoin:round; stroke-width:3; stroke-opacity:1; fill:none" stroke-dasharray="12, 6, 2, 6" points="2213.09,162.639 2273.55,162.639 "/>
<path clip-path="url(#clip750)" d="M2306.21 151.117 L2305.8 151.789 Q2303.26 150.691 2300.09 148.936 Q2296.93 150.691 2294.39 151.789 L2293.99 151.117 Q2296.76 148.707 2300.09 146.854 Q2303.45 148.723 2306.21 151.117 Z" fill="#000000" fill-rule="nonzero" fill-opacity="1" /><path clip-path="url(#clip750)" d="M2310.63 178.183 L2305.36 178.042 L2299.6 178.183 L2299.6 175.934 L2301.47 175.934 L2296.2 169.704 L2291.54 174.927 L2291.21 175.395 Q2291.21 175.606 2291.75 175.77 Q2292.31 175.934 2292.97 175.934 L2292.97 178.183 L2288.03 178.042 L2283.62 178.183 L2283.62 175.934 Q2285.1 175.934 2285.78 175.911 Q2286.48 175.864 2287.28 175.653 Q2288.07 175.442 2288.47 175.021 L2294.75 167.97 L2287.28 159.14 L2283.86 159.14 L2283.86 156.892 L2289.15 157.032 L2294.94 156.892 L2294.94 159.14 L2293.01 159.14 L2297.72 164.644 L2301.75 160.147 Q2301.77 160.124 2302.15 159.562 Q2301.4 159.14 2300.32 159.14 L2300.32 156.892 L2305.26 157.032 L2309.67 156.892 L2309.67 159.14 Q2307.75 159.14 2306.74 159.281 Q2305.76 159.398 2305.45 159.562 Q2305.17 159.726 2304.77 160.147 L2299.17 166.378 L2307.23 175.934 L2310.63 175.934 L2310.63 178.183 Z" fill="#000000" fill-rule="nonzero" fill-opacity="1" /><path clip-path="url(#clip750)" d="M1445.91 910.936 L2352.76 910.936 L2352.76 559.488 L1445.91 559.488  Z" fill="#ffffff" fill-rule="evenodd" fill-opacity="1"/>
<defs>
  <clipPath id="clip754">
    <rect x="1445" y="559" width="908" height="352"/>
  </clipPath>
</defs>
<polyline clip-path="url(#clip754)" style="stroke:#000000; stroke-linecap:round; stroke-linejoin:round; stroke-width:2; stroke-opacity:0.1; fill:none" points="1471.57,910.936 1471.57,559.488 "/>
<polyline clip-path="url(#clip754)" style="stroke:#000000; stroke-linecap:round; stroke-linejoin:round; stroke-width:2; stroke-opacity:0.1; fill:none" points="1723.2,910.936 1723.2,559.488 "/>
<polyline clip-path="url(#clip754)" style="stroke:#000000; stroke-linecap:round; stroke-linejoin:round; stroke-width:2; stroke-opacity:0.1; fill:none" points="1974.82,910.936 1974.82,559.488 "/>
<polyline clip-path="url(#clip754)" style="stroke:#000000; stroke-linecap:round; stroke-linejoin:round; stroke-width:2; stroke-opacity:0.1; fill:none" points="2226.44,910.936 2226.44,559.488 "/>
<polyline clip-path="url(#clip750)" style="stroke:#000000; stroke-linecap:round; stroke-linejoin:round; stroke-width:4; stroke-opacity:1; fill:none" points="1445.91,910.936 2352.76,910.936 "/>
<polyline clip-path="url(#clip750)" style="stroke:#000000; stroke-linecap:round; stroke-linejoin:round; stroke-width:4; stroke-opacity:1; fill:none" points="1471.57,910.936 1471.57,892.038 "/>
<polyline clip-path="url(#clip750)" style="stroke:#000000; stroke-linecap:round; stroke-linejoin:round; stroke-width:4; stroke-opacity:1; fill:none" points="1723.2,910.936 1723.2,892.038 "/>
<polyline clip-path="url(#clip750)" style="stroke:#000000; stroke-linecap:round; stroke-linejoin:round; stroke-width:4; stroke-opacity:1; fill:none" points="1974.82,910.936 1974.82,892.038 "/>
<polyline clip-path="url(#clip750)" style="stroke:#000000; stroke-linecap:round; stroke-linejoin:round; stroke-width:4; stroke-opacity:1; fill:none" points="2226.44,910.936 2226.44,892.038 "/>
<path clip-path="url(#clip750)" d="M1471.57 941.855 Q1467.96 941.855 1466.13 945.419 Q1464.33 948.961 1464.33 956.091 Q1464.33 963.197 1466.13 966.762 Q1467.96 970.303 1471.57 970.303 Q1475.21 970.303 1477.01 966.762 Q1478.84 963.197 1478.84 956.091 Q1478.84 948.961 1477.01 945.419 Q1475.21 941.855 1471.57 941.855 M1471.57 938.151 Q1477.38 938.151 1480.44 942.757 Q1483.52 947.341 1483.52 956.091 Q1483.52 964.817 1480.44 969.424 Q1477.38 974.007 1471.57 974.007 Q1465.76 974.007 1462.68 969.424 Q1459.63 964.817 1459.63 956.091 Q1459.63 947.341 1462.68 942.757 Q1465.76 938.151 1471.57 938.151 Z" fill="#000000" fill-rule="nonzero" fill-opacity="1" /><path clip-path="url(#clip750)" d="M1713.58 969.401 L1721.22 969.401 L1721.22 943.035 L1712.91 944.702 L1712.91 940.443 L1721.17 938.776 L1725.85 938.776 L1725.85 969.401 L1733.49 969.401 L1733.49 973.336 L1713.58 973.336 L1713.58 969.401 Z" fill="#000000" fill-rule="nonzero" fill-opacity="1" /><path clip-path="url(#clip750)" d="M1969.47 969.401 L1985.79 969.401 L1985.79 973.336 L1963.85 973.336 L1963.85 969.401 Q1966.51 966.646 1971.09 962.016 Q1975.7 957.364 1976.88 956.021 Q1979.12 953.498 1980 951.762 Q1980.91 950.003 1980.91 948.313 Q1980.91 945.558 1978.96 943.822 Q1977.04 942.086 1973.94 942.086 Q1971.74 942.086 1969.29 942.85 Q1966.86 943.614 1964.08 945.165 L1964.08 940.443 Q1966.9 939.308 1969.36 938.73 Q1971.81 938.151 1973.85 938.151 Q1979.22 938.151 1982.41 940.836 Q1985.61 943.521 1985.61 948.012 Q1985.61 950.142 1984.8 952.063 Q1984.01 953.961 1981.9 956.554 Q1981.32 957.225 1978.22 960.442 Q1975.12 963.637 1969.47 969.401 Z" fill="#000000" fill-rule="nonzero" fill-opacity="1" /><path clip-path="url(#clip750)" d="M2230.69 954.702 Q2234.05 955.419 2235.92 957.688 Q2237.82 959.956 2237.82 963.29 Q2237.82 968.405 2234.3 971.206 Q2230.78 974.007 2224.3 974.007 Q2222.12 974.007 2219.81 973.567 Q2217.52 973.151 2215.06 972.294 L2215.06 967.78 Q2217.01 968.915 2219.32 969.493 Q2221.64 970.072 2224.16 970.072 Q2228.56 970.072 2230.85 968.336 Q2233.17 966.6 2233.17 963.29 Q2233.17 960.234 2231.01 958.521 Q2228.88 956.785 2225.06 956.785 L2221.04 956.785 L2221.04 952.942 L2225.25 952.942 Q2228.7 952.942 2230.53 951.577 Q2232.36 950.188 2232.36 947.595 Q2232.36 944.933 2230.46 943.521 Q2228.58 942.086 2225.06 942.086 Q2223.14 942.086 2220.94 942.503 Q2218.74 942.919 2216.11 943.799 L2216.11 939.632 Q2218.77 938.892 2221.08 938.521 Q2223.42 938.151 2225.48 938.151 Q2230.8 938.151 2233.91 940.581 Q2237.01 942.989 2237.01 947.109 Q2237.01 949.979 2235.36 951.97 Q2233.72 953.938 2230.69 954.702 Z" fill="#000000" fill-rule="nonzero" fill-opacity="1" /><polyline clip-path="url(#clip754)" style="stroke:#000000; stroke-linecap:round; stroke-linejoin:round; stroke-width:2; stroke-opacity:0.1; fill:none" points="1445.91,863.607 2352.76,863.607 "/>
<polyline clip-path="url(#clip754)" style="stroke:#000000; stroke-linecap:round; stroke-linejoin:round; stroke-width:2; stroke-opacity:0.1; fill:none" points="1445.91,796.999 2352.76,796.999 "/>
<polyline clip-path="url(#clip754)" style="stroke:#000000; stroke-linecap:round; stroke-linejoin:round; stroke-width:2; stroke-opacity:0.1; fill:none" points="1445.91,730.392 2352.76,730.392 "/>
<polyline clip-path="url(#clip754)" style="stroke:#000000; stroke-linecap:round; stroke-linejoin:round; stroke-width:2; stroke-opacity:0.1; fill:none" points="1445.91,663.784 2352.76,663.784 "/>
<polyline clip-path="url(#clip754)" style="stroke:#000000; stroke-linecap:round; stroke-linejoin:round; stroke-width:2; stroke-opacity:0.1; fill:none" points="1445.91,597.176 2352.76,597.176 "/>
<polyline clip-path="url(#clip750)" style="stroke:#000000; stroke-linecap:round; stroke-linejoin:round; stroke-width:4; stroke-opacity:1; fill:none" points="1445.91,910.936 1445.91,559.488 "/>
<polyline clip-path="url(#clip750)" style="stroke:#000000; stroke-linecap:round; stroke-linejoin:round; stroke-width:4; stroke-opacity:1; fill:none" points="1445.91,863.607 1464.81,863.607 "/>
<polyline clip-path="url(#clip750)" style="stroke:#000000; stroke-linecap:round; stroke-linejoin:round; stroke-width:4; stroke-opacity:1; fill:none" points="1445.91,796.999 1464.81,796.999 "/>
<polyline clip-path="url(#clip750)" style="stroke:#000000; stroke-linecap:round; stroke-linejoin:round; stroke-width:4; stroke-opacity:1; fill:none" points="1445.91,730.392 1464.81,730.392 "/>
<polyline clip-path="url(#clip750)" style="stroke:#000000; stroke-linecap:round; stroke-linejoin:round; stroke-width:4; stroke-opacity:1; fill:none" points="1445.91,663.784 1464.81,663.784 "/>
<polyline clip-path="url(#clip750)" style="stroke:#000000; stroke-linecap:round; stroke-linejoin:round; stroke-width:4; stroke-opacity:1; fill:none" points="1445.91,597.176 1464.81,597.176 "/>
<path clip-path="url(#clip750)" d="M1303.96 864.058 L1333.64 864.058 L1333.64 867.994 L1303.96 867.994 L1303.96 864.058 Z" fill="#000000" fill-rule="nonzero" fill-opacity="1" /><path clip-path="url(#clip750)" d="M1353.73 849.406 Q1350.12 849.406 1348.29 852.971 Q1346.48 856.512 1346.48 863.642 Q1346.48 870.748 1348.29 874.313 Q1350.12 877.855 1353.73 877.855 Q1357.36 877.855 1359.17 874.313 Q1361 870.748 1361 863.642 Q1361 856.512 1359.17 852.971 Q1357.36 849.406 1353.73 849.406 M1353.73 845.702 Q1359.54 845.702 1362.59 850.309 Q1365.67 854.892 1365.67 863.642 Q1365.67 872.369 1362.59 876.975 Q1359.54 881.558 1353.73 881.558 Q1347.92 881.558 1344.84 876.975 Q1341.78 872.369 1341.78 863.642 Q1341.78 854.892 1344.84 850.309 Q1347.92 845.702 1353.73 845.702 Z" fill="#000000" fill-rule="nonzero" fill-opacity="1" /><path clip-path="url(#clip750)" d="M1373.89 875.007 L1378.77 875.007 L1378.77 880.887 L1373.89 880.887 L1373.89 875.007 Z" fill="#000000" fill-rule="nonzero" fill-opacity="1" /><path clip-path="url(#clip750)" d="M1389.01 846.327 L1407.36 846.327 L1407.36 850.262 L1393.29 850.262 L1393.29 858.734 Q1394.31 858.387 1395.32 858.225 Q1396.34 858.04 1397.36 858.04 Q1403.15 858.04 1406.53 861.211 Q1409.91 864.383 1409.91 869.799 Q1409.91 875.378 1406.44 878.48 Q1402.96 881.558 1396.64 881.558 Q1394.47 881.558 1392.2 881.188 Q1389.95 880.818 1387.55 880.077 L1387.55 875.378 Q1389.63 876.512 1391.85 877.068 Q1394.07 877.623 1396.55 877.623 Q1400.56 877.623 1402.89 875.517 Q1405.23 873.41 1405.23 869.799 Q1405.23 866.188 1402.89 864.082 Q1400.56 861.975 1396.55 861.975 Q1394.68 861.975 1392.8 862.392 Q1390.95 862.808 1389.01 863.688 L1389.01 846.327 Z" fill="#000000" fill-rule="nonzero" fill-opacity="1" /><path clip-path="url(#clip750)" d="M1352.73 782.798 Q1349.12 782.798 1347.29 786.363 Q1345.49 789.904 1345.49 797.034 Q1345.49 804.14 1347.29 807.705 Q1349.12 811.247 1352.73 811.247 Q1356.37 811.247 1358.17 807.705 Q1360 804.14 1360 797.034 Q1360 789.904 1358.17 786.363 Q1356.37 782.798 1352.73 782.798 M1352.73 779.094 Q1358.54 779.094 1361.6 783.701 Q1364.68 788.284 1364.68 797.034 Q1364.68 805.761 1361.6 810.367 Q1358.54 814.951 1352.73 814.951 Q1346.92 814.951 1343.84 810.367 Q1340.79 805.761 1340.79 797.034 Q1340.79 788.284 1343.84 783.701 Q1346.92 779.094 1352.73 779.094 Z" fill="#000000" fill-rule="nonzero" fill-opacity="1" /><path clip-path="url(#clip750)" d="M1372.89 808.4 L1377.78 808.4 L1377.78 814.279 L1372.89 814.279 L1372.89 808.4 Z" fill="#000000" fill-rule="nonzero" fill-opacity="1" /><path clip-path="url(#clip750)" d="M1397.96 782.798 Q1394.35 782.798 1392.52 786.363 Q1390.72 789.904 1390.72 797.034 Q1390.72 804.14 1392.52 807.705 Q1394.35 811.247 1397.96 811.247 Q1401.6 811.247 1403.4 807.705 Q1405.23 804.14 1405.23 797.034 Q1405.23 789.904 1403.4 786.363 Q1401.6 782.798 1397.96 782.798 M1397.96 779.094 Q1403.77 779.094 1406.83 783.701 Q1409.91 788.284 1409.91 797.034 Q1409.91 805.761 1406.83 810.367 Q1403.77 814.951 1397.96 814.951 Q1392.15 814.951 1389.07 810.367 Q1386.02 805.761 1386.02 797.034 Q1386.02 788.284 1389.07 783.701 Q1392.15 779.094 1397.96 779.094 Z" fill="#000000" fill-rule="nonzero" fill-opacity="1" /><path clip-path="url(#clip750)" d="M1353.73 716.19 Q1350.12 716.19 1348.29 719.755 Q1346.48 723.297 1346.48 730.426 Q1346.48 737.533 1348.29 741.098 Q1350.12 744.639 1353.73 744.639 Q1357.36 744.639 1359.17 741.098 Q1361 737.533 1361 730.426 Q1361 723.297 1359.17 719.755 Q1357.36 716.19 1353.73 716.19 M1353.73 712.487 Q1359.54 712.487 1362.59 717.093 Q1365.67 721.676 1365.67 730.426 Q1365.67 739.153 1362.59 743.76 Q1359.54 748.343 1353.73 748.343 Q1347.92 748.343 1344.84 743.76 Q1341.78 739.153 1341.78 730.426 Q1341.78 721.676 1344.84 717.093 Q1347.92 712.487 1353.73 712.487 Z" fill="#000000" fill-rule="nonzero" fill-opacity="1" /><path clip-path="url(#clip750)" d="M1373.89 741.792 L1378.77 741.792 L1378.77 747.672 L1373.89 747.672 L1373.89 741.792 Z" fill="#000000" fill-rule="nonzero" fill-opacity="1" /><path clip-path="url(#clip750)" d="M1389.01 713.112 L1407.36 713.112 L1407.36 717.047 L1393.29 717.047 L1393.29 725.519 Q1394.31 725.172 1395.32 725.01 Q1396.34 724.824 1397.36 724.824 Q1403.15 724.824 1406.53 727.996 Q1409.91 731.167 1409.91 736.584 Q1409.91 742.162 1406.44 745.264 Q1402.96 748.343 1396.64 748.343 Q1394.47 748.343 1392.2 747.972 Q1389.95 747.602 1387.55 746.861 L1387.55 742.162 Q1389.63 743.297 1391.85 743.852 Q1394.07 744.408 1396.55 744.408 Q1400.56 744.408 1402.89 742.301 Q1405.23 740.195 1405.23 736.584 Q1405.23 732.973 1402.89 730.866 Q1400.56 728.76 1396.55 728.76 Q1394.68 728.76 1392.8 729.176 Q1390.95 729.593 1389.01 730.473 L1389.01 713.112 Z" fill="#000000" fill-rule="nonzero" fill-opacity="1" /><path clip-path="url(#clip750)" d="M1343.54 677.129 L1351.18 677.129 L1351.18 650.763 L1342.87 652.43 L1342.87 648.17 L1351.13 646.504 L1355.81 646.504 L1355.81 677.129 L1363.45 677.129 L1363.45 681.064 L1343.54 681.064 L1343.54 677.129 Z" fill="#000000" fill-rule="nonzero" fill-opacity="1" /><path clip-path="url(#clip750)" d="M1372.89 675.184 L1377.78 675.184 L1377.78 681.064 L1372.89 681.064 L1372.89 675.184 Z" fill="#000000" fill-rule="nonzero" fill-opacity="1" /><path clip-path="url(#clip750)" d="M1397.96 649.582 Q1394.35 649.582 1392.52 653.147 Q1390.72 656.689 1390.72 663.819 Q1390.72 670.925 1392.52 674.49 Q1394.35 678.031 1397.96 678.031 Q1401.6 678.031 1403.4 674.49 Q1405.23 670.925 1405.23 663.819 Q1405.23 656.689 1403.4 653.147 Q1401.6 649.582 1397.96 649.582 M1397.96 645.879 Q1403.77 645.879 1406.83 650.485 Q1409.91 655.069 1409.91 663.819 Q1409.91 672.545 1406.83 677.152 Q1403.77 681.735 1397.96 681.735 Q1392.15 681.735 1389.07 677.152 Q1386.02 672.545 1386.02 663.819 Q1386.02 655.069 1389.07 650.485 Q1392.15 645.879 1397.96 645.879 Z" fill="#000000" fill-rule="nonzero" fill-opacity="1" /><path clip-path="url(#clip750)" d="M1344.54 610.521 L1352.18 610.521 L1352.18 584.155 L1343.87 585.822 L1343.87 581.563 L1352.13 579.896 L1356.81 579.896 L1356.81 610.521 L1364.45 610.521 L1364.45 614.456 L1344.54 614.456 L1344.54 610.521 Z" fill="#000000" fill-rule="nonzero" fill-opacity="1" /><path clip-path="url(#clip750)" d="M1373.89 608.576 L1378.77 608.576 L1378.77 614.456 L1373.89 614.456 L1373.89 608.576 Z" fill="#000000" fill-rule="nonzero" fill-opacity="1" /><path clip-path="url(#clip750)" d="M1389.01 579.896 L1407.36 579.896 L1407.36 583.831 L1393.29 583.831 L1393.29 592.303 Q1394.31 591.956 1395.32 591.794 Q1396.34 591.609 1397.36 591.609 Q1403.15 591.609 1406.53 594.78 Q1409.91 597.952 1409.91 603.368 Q1409.91 608.947 1406.44 612.049 Q1402.96 615.127 1396.64 615.127 Q1394.47 615.127 1392.2 614.757 Q1389.95 614.387 1387.55 613.646 L1387.55 608.947 Q1389.63 610.081 1391.85 610.637 Q1394.07 611.192 1396.55 611.192 Q1400.56 611.192 1402.89 609.086 Q1405.23 606.979 1405.23 603.368 Q1405.23 599.757 1402.89 597.651 Q1400.56 595.544 1396.55 595.544 Q1394.68 595.544 1392.8 595.961 Q1390.95 596.377 1389.01 597.257 L1389.01 579.896 Z" fill="#000000" fill-rule="nonzero" fill-opacity="1" /><path clip-path="url(#clip750)" d="M1219.58 734.795 Q1221.38 734.795 1222.41 735.922 Q1223.41 737.049 1223.41 738.338 Q1223.41 739.561 1222.7 740.206 Q1222 740.85 1221.09 740.85 Q1219.87 740.85 1218.81 739.948 Q1217.75 739.046 1217.52 737.693 Q1216.68 739.014 1216.68 740.978 Q1216.68 742.267 1217.36 743.394 Q1218.03 744.489 1218.9 745.165 Q1219.77 745.809 1221.03 746.389 Q1222.25 746.937 1222.99 747.162 Q1223.7 747.355 1224.48 747.516 L1233.49 749.771 Q1237.78 750.866 1239.29 750.866 Q1241.16 750.866 1242.41 749.964 Q1243.64 749.062 1243.64 747.259 Q1243.64 746.55 1243.45 745.745 Q1243.22 744.94 1242.64 743.909 Q1242.03 742.846 1241.13 741.912 Q1240.19 740.946 1238.61 740.012 Q1237.04 739.078 1235.01 738.466 Q1234.3 738.273 1234.3 737.629 Q1234.3 736.824 1234.94 736.824 Q1235.49 736.824 1236.65 737.275 Q1237.78 737.693 1239.26 738.627 Q1240.71 739.529 1242.03 740.721 Q1243.32 741.912 1244.22 743.684 Q1245.12 745.455 1245.12 747.387 Q1245.12 750.157 1243.64 751.993 Q1242.16 753.829 1240.1 754.505 Q1240.39 754.666 1240.77 754.891 Q1241.16 755.117 1242.03 755.793 Q1242.87 756.437 1243.51 757.178 Q1244.12 757.919 1244.6 759.078 Q1245.12 760.205 1245.12 761.429 Q1245.12 762.975 1244.67 764.36 Q1244.22 765.713 1243.19 766.679 Q1242.16 767.645 1240.74 767.645 Q1239.16 767.645 1238.07 766.582 Q1236.94 765.487 1236.94 764.006 Q1236.94 763.072 1237.49 762.331 Q1238.03 761.558 1239.23 761.558 Q1240.55 761.558 1241.55 762.46 Q1242.54 763.362 1242.8 764.65 Q1243.64 763.329 1243.64 761.365 Q1243.64 759.239 1241.77 757.565 Q1239.9 755.89 1236.78 755.085 Q1229.27 753.088 1225.93 752.315 Q1222.54 751.542 1221.09 751.542 Q1219.74 751.542 1218.81 751.896 Q1217.87 752.251 1217.46 752.862 Q1217 753.442 1216.84 753.99 Q1216.68 754.505 1216.68 755.085 Q1216.68 756.051 1217.07 757.146 Q1217.46 758.209 1218.36 759.497 Q1219.23 760.753 1221.03 761.944 Q1222.83 763.136 1225.31 763.941 Q1226.05 764.102 1226.05 764.811 Q1226.02 765.584 1225.38 765.584 Q1224.83 765.584 1223.7 765.165 Q1222.54 764.714 1221.09 763.812 Q1219.65 762.878 1218.36 761.687 Q1217.04 760.463 1216.13 758.692 Q1215.23 756.888 1215.23 754.956 Q1215.23 754.086 1215.43 753.249 Q1215.59 752.379 1216.07 751.349 Q1216.55 750.286 1217.62 749.352 Q1218.68 748.418 1220.22 747.838 Q1219.48 747.452 1218.78 746.937 Q1218.07 746.389 1217.2 745.552 Q1216.3 744.682 1215.78 743.491 Q1215.23 742.267 1215.23 740.914 Q1215.23 739.594 1215.59 738.305 Q1215.91 737.017 1216.97 735.922 Q1218 734.795 1219.58 734.795 Z" fill="#000000" fill-rule="nonzero" fill-opacity="1" /><path clip-path="url(#clip750)" d="M1263.39 728.074 Q1262.56 728.074 1262.31 728.006 Q1262.06 727.916 1261.68 727.555 L1251.8 718.695 Q1246.35 713.848 1241.59 713.848 Q1238.5 713.848 1236.29 715.472 Q1234.08 717.072 1234.08 720.025 Q1234.08 722.054 1235.32 723.768 Q1236.56 725.481 1238.77 726.27 Q1238.73 726.135 1238.73 725.661 Q1238.73 724.512 1239.45 723.88 Q1240.17 723.227 1241.14 723.227 Q1242.38 723.227 1242.99 724.038 Q1243.57 724.827 1243.57 725.616 Q1243.57 725.932 1243.51 726.36 Q1243.44 726.766 1242.81 727.42 Q1242.15 728.074 1241 728.074 Q1237.78 728.074 1235.21 725.639 Q1232.64 723.182 1232.64 719.439 Q1232.64 715.201 1235.17 712.428 Q1237.67 709.633 1241.59 709.633 Q1242.97 709.633 1244.23 710.061 Q1245.47 710.467 1246.44 711.03 Q1247.41 711.571 1248.96 713.059 Q1250.52 714.547 1251.62 715.742 Q1252.73 716.937 1255.07 719.62 L1259.83 724.512 L1259.83 716.193 Q1259.83 712.135 1259.47 711.819 Q1258.81 711.369 1255.36 710.805 L1255.36 709.633 L1263.39 710.94 L1263.39 728.074 Z" fill="#000000" fill-rule="nonzero" fill-opacity="1" /><polyline clip-path="url(#clip754)" style="stroke:#009af9; stroke-linecap:round; stroke-linejoin:round; stroke-width:4; stroke-opacity:1; fill:none" points="1471.57,796.999 1496.74,658.233 1521.9,588.85 1547.06,588.095 1572.22,637.818 1597.38,710.901 1622.55,782.069 1647.71,835.42 1672.87,865.1 1698.03,872.161 1723.2,861.541 1748.36,840.112 1773.52,815.173 1798.68,793.024 1823.85,777.829 1849.01,771.134 1874.17,772.128 1899.33,778.439 1924.49,787.139 1949.66,795.595 1974.82,801.993 1999.98,805.501 2025.14,806.157 2050.31,804.612 2075.47,801.815 2100.63,798.729 2125.79,796.116 2150.95,794.425 2176.12,793.776 2201.28,794.024 2226.44,794.863 2251.6,795.943 2276.77,796.957 2301.93,797.698 2327.09,798.077 "/>
<polyline clip-path="url(#clip754)" style="stroke:#e26f46; stroke-linecap:round; stroke-linejoin:round; stroke-width:3; stroke-opacity:1; fill:none" stroke-dasharray="12, 6, 2, 6" points="1471.57,796.999 1496.74,652.791 1521.9,569.435 1547.06,570.858 1572.22,614.987 1597.38,689.937 1622.55,795.808 1647.71,851.962 1672.87,898.213 1698.03,900.989 1723.2,892.095 1748.36,864.767 1773.52,827.398 1798.68,796.848 1823.85,787.063 1849.01,764.141 1874.17,768.335 1899.33,775.495 1924.49,779.09 1949.66,790.356 1974.82,798.953 1999.98,796.474 2025.14,815.613 2050.31,802.944 2075.47,810.082 2100.63,798.777 2125.79,789.973 2150.95,796.442 2176.12,797.768 2201.28,793.612 2226.44,789.743 2251.6,791.104 2276.77,803.533 2301.93,801.592 2327.09,801.383 "/>
<path clip-path="url(#clip750)" d="M2203.01 726.723 L2322.53 726.723 L2322.53 571.203 L2203.01 571.203  Z" fill="#ffffff" fill-rule="evenodd" fill-opacity="1"/>
<polyline clip-path="url(#clip750)" style="stroke:#000000; stroke-linecap:round; stroke-linejoin:round; stroke-width:4; stroke-opacity:1; fill:none" points="2203.01,726.723 2322.53,726.723 2322.53,571.203 2203.01,571.203 2203.01,726.723 "/>
<polyline clip-path="url(#clip750)" style="stroke:#009af9; stroke-linecap:round; stroke-linejoin:round; stroke-width:4; stroke-opacity:1; fill:none" points="2213.09,623.043 2273.55,623.043 "/>
<path clip-path="url(#clip750)" d="M2310.63 633.582 L2305.36 633.442 L2299.6 633.582 L2299.6 631.334 L2301.47 631.334 L2296.2 625.103 L2291.54 630.326 L2291.21 630.795 Q2291.21 631.006 2291.75 631.17 Q2292.31 631.334 2292.97 631.334 L2292.97 633.582 L2288.03 633.442 L2283.62 633.582 L2283.62 631.334 Q2285.1 631.334 2285.78 631.31 Q2286.48 631.263 2287.28 631.052 Q2288.07 630.842 2288.47 630.42 L2294.75 623.37 L2287.28 614.54 L2283.86 614.54 L2283.86 612.291 L2289.15 612.432 L2294.94 612.291 L2294.94 614.54 L2293.01 614.54 L2297.72 620.044 L2301.75 615.547 Q2301.77 615.523 2302.15 614.961 Q2301.4 614.54 2300.32 614.54 L2300.32 612.291 L2305.26 612.432 L2309.67 612.291 L2309.67 614.54 Q2307.75 614.54 2306.74 614.68 Q2305.76 614.797 2305.45 614.961 Q2305.17 615.125 2304.77 615.547 L2299.17 621.777 L2307.23 631.334 L2310.63 631.334 L2310.63 633.582 Z" fill="#000000" fill-rule="nonzero" fill-opacity="1" /><polyline clip-path="url(#clip750)" style="stroke:#e26f46; stroke-linecap:round; stroke-linejoin:round; stroke-width:3; stroke-opacity:1; fill:none" stroke-dasharray="12, 6, 2, 6" points="2213.09,674.883 2273.55,674.883 "/>
<path clip-path="url(#clip750)" d="M2306.21 663.361 L2305.8 664.033 Q2303.26 662.935 2300.09 661.18 Q2296.93 662.935 2294.39 664.033 L2293.99 663.361 Q2296.76 660.951 2300.09 659.098 Q2303.45 660.967 2306.21 663.361 Z" fill="#000000" fill-rule="nonzero" fill-opacity="1" /><path clip-path="url(#clip750)" d="M2310.63 690.427 L2305.36 690.286 L2299.6 690.427 L2299.6 688.178 L2301.47 688.178 L2296.2 681.948 L2291.54 687.171 L2291.21 687.639 Q2291.21 687.85 2291.75 688.014 Q2292.31 688.178 2292.97 688.178 L2292.97 690.427 L2288.03 690.286 L2283.62 690.427 L2283.62 688.178 Q2285.1 688.178 2285.78 688.155 Q2286.48 688.108 2287.28 687.897 Q2288.07 687.686 2288.47 687.265 L2294.75 680.214 L2287.28 671.384 L2283.86 671.384 L2283.86 669.136 L2289.15 669.276 L2294.94 669.136 L2294.94 671.384 L2293.01 671.384 L2297.72 676.888 L2301.75 672.391 Q2301.77 672.368 2302.15 671.806 Q2301.4 671.384 2300.32 671.384 L2300.32 669.136 L2305.26 669.276 L2309.67 669.136 L2309.67 671.384 Q2307.75 671.384 2306.74 671.525 Q2305.76 671.642 2305.45 671.806 Q2305.17 671.97 2304.77 672.391 L2299.17 678.622 L2307.23 688.178 L2310.63 688.178 L2310.63 690.427 Z" fill="#000000" fill-rule="nonzero" fill-opacity="1" /><path clip-path="url(#clip750)" d="M1445.91 1423.18 L2352.76 1423.18 L2352.76 1071.73 L1445.91 1071.73  Z" fill="#ffffff" fill-rule="evenodd" fill-opacity="1"/>
<defs>
  <clipPath id="clip755">
    <rect x="1445" y="1071" width="908" height="352"/>
  </clipPath>
</defs>
<polyline clip-path="url(#clip755)" style="stroke:#000000; stroke-linecap:round; stroke-linejoin:round; stroke-width:2; stroke-opacity:0.1; fill:none" points="1471.57,1423.18 1471.57,1071.73 "/>
<polyline clip-path="url(#clip755)" style="stroke:#000000; stroke-linecap:round; stroke-linejoin:round; stroke-width:2; stroke-opacity:0.1; fill:none" points="1723.2,1423.18 1723.2,1071.73 "/>
<polyline clip-path="url(#clip755)" style="stroke:#000000; stroke-linecap:round; stroke-linejoin:round; stroke-width:2; stroke-opacity:0.1; fill:none" points="1974.82,1423.18 1974.82,1071.73 "/>
<polyline clip-path="url(#clip755)" style="stroke:#000000; stroke-linecap:round; stroke-linejoin:round; stroke-width:2; stroke-opacity:0.1; fill:none" points="2226.44,1423.18 2226.44,1071.73 "/>
<polyline clip-path="url(#clip750)" style="stroke:#000000; stroke-linecap:round; stroke-linejoin:round; stroke-width:4; stroke-opacity:1; fill:none" points="1445.91,1423.18 2352.76,1423.18 "/>
<polyline clip-path="url(#clip750)" style="stroke:#000000; stroke-linecap:round; stroke-linejoin:round; stroke-width:4; stroke-opacity:1; fill:none" points="1471.57,1423.18 1471.57,1404.28 "/>
<polyline clip-path="url(#clip750)" style="stroke:#000000; stroke-linecap:round; stroke-linejoin:round; stroke-width:4; stroke-opacity:1; fill:none" points="1723.2,1423.18 1723.2,1404.28 "/>
<polyline clip-path="url(#clip750)" style="stroke:#000000; stroke-linecap:round; stroke-linejoin:round; stroke-width:4; stroke-opacity:1; fill:none" points="1974.82,1423.18 1974.82,1404.28 "/>
<polyline clip-path="url(#clip750)" style="stroke:#000000; stroke-linecap:round; stroke-linejoin:round; stroke-width:4; stroke-opacity:1; fill:none" points="2226.44,1423.18 2226.44,1404.28 "/>
<path clip-path="url(#clip750)" d="M1471.57 1454.1 Q1467.96 1454.1 1466.13 1457.66 Q1464.33 1461.2 1464.33 1468.33 Q1464.33 1475.44 1466.13 1479.01 Q1467.96 1482.55 1471.57 1482.55 Q1475.21 1482.55 1477.01 1479.01 Q1478.84 1475.44 1478.84 1468.33 Q1478.84 1461.2 1477.01 1457.66 Q1475.21 1454.1 1471.57 1454.1 M1471.57 1450.39 Q1477.38 1450.39 1480.44 1455 Q1483.52 1459.58 1483.52 1468.33 Q1483.52 1477.06 1480.44 1481.67 Q1477.38 1486.25 1471.57 1486.25 Q1465.76 1486.25 1462.68 1481.67 Q1459.63 1477.06 1459.63 1468.33 Q1459.63 1459.58 1462.68 1455 Q1465.76 1450.39 1471.57 1450.39 Z" fill="#000000" fill-rule="nonzero" fill-opacity="1" /><path clip-path="url(#clip750)" d="M1713.58 1481.64 L1721.22 1481.64 L1721.22 1455.28 L1712.91 1456.95 L1712.91 1452.69 L1721.17 1451.02 L1725.85 1451.02 L1725.85 1481.64 L1733.49 1481.64 L1733.49 1485.58 L1713.58 1485.58 L1713.58 1481.64 Z" fill="#000000" fill-rule="nonzero" fill-opacity="1" /><path clip-path="url(#clip750)" d="M1969.47 1481.64 L1985.79 1481.64 L1985.79 1485.58 L1963.85 1485.58 L1963.85 1481.64 Q1966.51 1478.89 1971.09 1474.26 Q1975.7 1469.61 1976.88 1468.27 Q1979.12 1465.74 1980 1464.01 Q1980.91 1462.25 1980.91 1460.56 Q1980.91 1457.8 1978.96 1456.07 Q1977.04 1454.33 1973.94 1454.33 Q1971.74 1454.33 1969.29 1455.09 Q1966.86 1455.86 1964.08 1457.41 L1964.08 1452.69 Q1966.9 1451.55 1969.36 1450.97 Q1971.81 1450.39 1973.85 1450.39 Q1979.22 1450.39 1982.41 1453.08 Q1985.61 1455.77 1985.61 1460.26 Q1985.61 1462.39 1984.8 1464.31 Q1984.01 1466.2 1981.9 1468.8 Q1981.32 1469.47 1978.22 1472.69 Q1975.12 1475.88 1969.47 1481.64 Z" fill="#000000" fill-rule="nonzero" fill-opacity="1" /><path clip-path="url(#clip750)" d="M2230.69 1466.95 Q2234.05 1467.66 2235.92 1469.93 Q2237.82 1472.2 2237.82 1475.53 Q2237.82 1480.65 2234.3 1483.45 Q2230.78 1486.25 2224.3 1486.25 Q2222.12 1486.25 2219.81 1485.81 Q2217.52 1485.39 2215.06 1484.54 L2215.06 1480.02 Q2217.01 1481.16 2219.32 1481.74 Q2221.64 1482.32 2224.16 1482.32 Q2228.56 1482.32 2230.85 1480.58 Q2233.17 1478.84 2233.17 1475.53 Q2233.17 1472.48 2231.01 1470.77 Q2228.88 1469.03 2225.06 1469.03 L2221.04 1469.03 L2221.04 1465.19 L2225.25 1465.19 Q2228.7 1465.19 2230.53 1463.82 Q2232.36 1462.43 2232.36 1459.84 Q2232.36 1457.18 2230.46 1455.77 Q2228.58 1454.33 2225.06 1454.33 Q2223.14 1454.33 2220.94 1454.75 Q2218.74 1455.16 2216.11 1456.04 L2216.11 1451.88 Q2218.77 1451.14 2221.08 1450.77 Q2223.42 1450.39 2225.48 1450.39 Q2230.8 1450.39 2233.91 1452.83 Q2237.01 1455.23 2237.01 1459.35 Q2237.01 1462.22 2235.36 1464.21 Q2233.72 1466.18 2230.69 1466.95 Z" fill="#000000" fill-rule="nonzero" fill-opacity="1" /><path clip-path="url(#clip750)" d="M1769.5 1520.52 L1809.7 1520.52 L1809.7 1525.93 L1792.83 1525.93 L1792.83 1568.04 L1786.37 1568.04 L1786.37 1525.93 L1769.5 1525.93 L1769.5 1520.52 Z" fill="#000000" fill-rule="nonzero" fill-opacity="1" /><path clip-path="url(#clip750)" d="M1813.65 1532.4 L1819.51 1532.4 L1819.51 1568.04 L1813.65 1568.04 L1813.65 1532.4 M1813.65 1518.52 L1819.51 1518.52 L1819.51 1525.93 L1813.65 1525.93 L1813.65 1518.52 Z" fill="#000000" fill-rule="nonzero" fill-opacity="1" /><path clip-path="url(#clip750)" d="M1859.51 1539.24 Q1861.71 1535.29 1864.77 1533.41 Q1867.82 1531.54 1871.96 1531.54 Q1877.53 1531.54 1880.55 1535.45 Q1883.58 1539.33 1883.58 1546.53 L1883.58 1568.04 L1877.69 1568.04 L1877.69 1546.72 Q1877.69 1541.59 1875.87 1539.11 Q1874.06 1536.63 1870.34 1536.63 Q1865.78 1536.63 1863.14 1539.65 Q1860.5 1542.68 1860.5 1547.9 L1860.5 1568.04 L1854.61 1568.04 L1854.61 1546.72 Q1854.61 1541.56 1852.8 1539.11 Q1850.98 1536.63 1847.2 1536.63 Q1842.71 1536.63 1840.07 1539.68 Q1837.43 1542.71 1837.43 1547.9 L1837.43 1568.04 L1831.54 1568.04 L1831.54 1532.4 L1837.43 1532.4 L1837.43 1537.93 Q1839.43 1534.66 1842.23 1533.1 Q1845.03 1531.54 1848.88 1531.54 Q1852.77 1531.54 1855.47 1533.51 Q1858.21 1535.48 1859.51 1539.24 Z" fill="#000000" fill-rule="nonzero" fill-opacity="1" /><path clip-path="url(#clip750)" d="M1925.75 1548.76 L1925.75 1551.62 L1898.82 1551.62 Q1899.2 1557.67 1902.45 1560.85 Q1905.73 1564 1911.55 1564 Q1914.93 1564 1918.08 1563.17 Q1921.26 1562.35 1924.38 1560.69 L1924.38 1566.23 Q1921.23 1567.57 1917.92 1568.27 Q1914.61 1568.97 1911.2 1568.97 Q1902.67 1568.97 1897.68 1564 Q1892.71 1559.04 1892.71 1550.57 Q1892.71 1541.82 1897.42 1536.69 Q1902.16 1531.54 1910.19 1531.54 Q1917.38 1531.54 1921.55 1536.18 Q1925.75 1540.8 1925.75 1548.76 M1919.89 1547.04 Q1919.83 1542.23 1917.19 1539.37 Q1914.58 1536.5 1910.25 1536.5 Q1905.35 1536.5 1902.39 1539.27 Q1899.46 1542.04 1899.01 1547.07 L1919.89 1547.04 Z" fill="#000000" fill-rule="nonzero" fill-opacity="1" /><path clip-path="url(#clip750)" d="M1970.15 1518.58 Q1965.89 1525.9 1963.82 1533.06 Q1961.75 1540.23 1961.75 1547.58 Q1961.75 1554.93 1963.82 1562.16 Q1965.92 1569.35 1970.15 1576.64 L1965.06 1576.64 Q1960.28 1569.16 1957.9 1561.93 Q1955.54 1554.71 1955.54 1547.58 Q1955.54 1540.48 1957.9 1533.29 Q1960.25 1526.09 1965.06 1518.58 L1970.15 1518.58 Z" fill="#000000" fill-rule="nonzero" fill-opacity="1" /><path clip-path="url(#clip750)" d="M2004.24 1533.45 L2004.24 1538.98 Q2001.76 1537.71 1999.08 1537.07 Q1996.41 1536.44 1993.54 1536.44 Q1989.18 1536.44 1986.99 1537.77 Q1984.82 1539.11 1984.82 1541.79 Q1984.82 1543.82 1986.38 1545 Q1987.94 1546.15 1992.65 1547.2 L1994.66 1547.64 Q2000.9 1548.98 2003.51 1551.43 Q2006.15 1553.85 2006.15 1558.21 Q2006.15 1563.17 2002.2 1566.07 Q1998.29 1568.97 1991.41 1568.97 Q1988.55 1568.97 1985.43 1568.39 Q1982.34 1567.85 1978.9 1566.74 L1978.9 1560.69 Q1982.15 1562.38 1985.3 1563.24 Q1988.45 1564.07 1991.54 1564.07 Q1995.68 1564.07 1997.9 1562.66 Q2000.13 1561.23 2000.13 1558.65 Q2000.13 1556.27 1998.51 1554.99 Q1996.92 1553.72 1991.48 1552.54 L1989.44 1552.07 Q1984 1550.92 1981.58 1548.56 Q1979.16 1546.18 1979.16 1542.04 Q1979.16 1537.01 1982.72 1534.27 Q1986.29 1531.54 1992.84 1531.54 Q1996.09 1531.54 1998.96 1532.01 Q2001.82 1532.49 2004.24 1533.45 Z" fill="#000000" fill-rule="nonzero" fill-opacity="1" /><path clip-path="url(#clip750)" d="M2014.55 1518.58 L2019.64 1518.58 Q2024.42 1526.09 2026.77 1533.29 Q2029.16 1540.48 2029.16 1547.58 Q2029.16 1554.71 2026.77 1561.93 Q2024.42 1569.16 2019.64 1576.64 L2014.55 1576.64 Q2018.78 1569.35 2020.85 1562.16 Q2022.95 1554.93 2022.95 1547.58 Q2022.95 1540.23 2020.85 1533.06 Q2018.78 1525.9 2014.55 1518.58 Z" fill="#000000" fill-rule="nonzero" fill-opacity="1" /><polyline clip-path="url(#clip755)" style="stroke:#000000; stroke-linecap:round; stroke-linejoin:round; stroke-width:2; stroke-opacity:0.1; fill:none" points="1445.91,1383.5 2352.76,1383.5 "/>
<polyline clip-path="url(#clip755)" style="stroke:#000000; stroke-linecap:round; stroke-linejoin:round; stroke-width:2; stroke-opacity:0.1; fill:none" points="1445.91,1305.46 2352.76,1305.46 "/>
<polyline clip-path="url(#clip755)" style="stroke:#000000; stroke-linecap:round; stroke-linejoin:round; stroke-width:2; stroke-opacity:0.1; fill:none" points="1445.91,1227.42 2352.76,1227.42 "/>
<polyline clip-path="url(#clip755)" style="stroke:#000000; stroke-linecap:round; stroke-linejoin:round; stroke-width:2; stroke-opacity:0.1; fill:none" points="1445.91,1149.39 2352.76,1149.39 "/>
<polyline clip-path="url(#clip750)" style="stroke:#000000; stroke-linecap:round; stroke-linejoin:round; stroke-width:4; stroke-opacity:1; fill:none" points="1445.91,1423.18 1445.91,1071.73 "/>
<polyline clip-path="url(#clip750)" style="stroke:#000000; stroke-linecap:round; stroke-linejoin:round; stroke-width:4; stroke-opacity:1; fill:none" points="1445.91,1383.5 1464.81,1383.5 "/>
<polyline clip-path="url(#clip750)" style="stroke:#000000; stroke-linecap:round; stroke-linejoin:round; stroke-width:4; stroke-opacity:1; fill:none" points="1445.91,1305.46 1464.81,1305.46 "/>
<polyline clip-path="url(#clip750)" style="stroke:#000000; stroke-linecap:round; stroke-linejoin:round; stroke-width:4; stroke-opacity:1; fill:none" points="1445.91,1227.42 1464.81,1227.42 "/>
<polyline clip-path="url(#clip750)" style="stroke:#000000; stroke-linecap:round; stroke-linejoin:round; stroke-width:4; stroke-opacity:1; fill:none" points="1445.91,1149.39 1464.81,1149.39 "/>
<path clip-path="url(#clip750)" d="M1272.64 1383.95 L1302.32 1383.95 L1302.32 1387.88 L1272.64 1387.88 L1272.64 1383.95 Z" fill="#000000" fill-rule="nonzero" fill-opacity="1" /><path clip-path="url(#clip750)" d="M1322.41 1369.29 Q1318.8 1369.29 1316.97 1372.86 Q1315.16 1376.4 1315.16 1383.53 Q1315.16 1390.64 1316.97 1394.2 Q1318.8 1397.74 1322.41 1397.74 Q1326.04 1397.74 1327.85 1394.2 Q1329.68 1390.64 1329.68 1383.53 Q1329.68 1376.4 1327.85 1372.86 Q1326.04 1369.29 1322.41 1369.29 M1322.41 1365.59 Q1328.22 1365.59 1331.27 1370.2 Q1334.35 1374.78 1334.35 1383.53 Q1334.35 1392.26 1331.27 1396.86 Q1328.22 1401.45 1322.41 1401.45 Q1316.6 1401.45 1313.52 1396.86 Q1310.46 1392.26 1310.46 1383.53 Q1310.46 1374.78 1313.52 1370.2 Q1316.6 1365.59 1322.41 1365.59 Z" fill="#000000" fill-rule="nonzero" fill-opacity="1" /><path clip-path="url(#clip750)" d="M1342.57 1394.9 L1347.45 1394.9 L1347.45 1400.78 L1342.57 1400.78 L1342.57 1394.9 Z" fill="#000000" fill-rule="nonzero" fill-opacity="1" /><path clip-path="url(#clip750)" d="M1367.64 1369.29 Q1364.03 1369.29 1362.2 1372.86 Q1360.39 1376.4 1360.39 1383.53 Q1360.39 1390.64 1362.2 1394.2 Q1364.03 1397.74 1367.64 1397.74 Q1371.27 1397.74 1373.08 1394.2 Q1374.91 1390.64 1374.91 1383.53 Q1374.91 1376.4 1373.08 1372.86 Q1371.27 1369.29 1367.64 1369.29 M1367.64 1365.59 Q1373.45 1365.59 1376.51 1370.2 Q1379.58 1374.78 1379.58 1383.53 Q1379.58 1392.26 1376.51 1396.86 Q1373.45 1401.45 1367.64 1401.45 Q1361.83 1401.45 1358.75 1396.86 Q1355.7 1392.26 1355.7 1383.53 Q1355.7 1374.78 1358.75 1370.2 Q1361.83 1365.59 1367.64 1365.59 Z" fill="#000000" fill-rule="nonzero" fill-opacity="1" /><path clip-path="url(#clip750)" d="M1398.38 1381.63 Q1395.23 1381.63 1393.38 1383.78 Q1391.55 1385.94 1391.55 1389.69 Q1391.55 1393.41 1393.38 1395.59 Q1395.23 1397.74 1398.38 1397.74 Q1401.53 1397.74 1403.36 1395.59 Q1405.21 1393.41 1405.21 1389.69 Q1405.21 1385.94 1403.36 1383.78 Q1401.53 1381.63 1398.38 1381.63 M1407.66 1366.98 L1407.66 1371.24 Q1405.9 1370.4 1404.1 1369.97 Q1402.32 1369.53 1400.56 1369.53 Q1395.93 1369.53 1393.47 1372.65 Q1391.04 1375.78 1390.69 1382.09 Q1392.06 1380.08 1394.12 1379.02 Q1396.18 1377.93 1398.66 1377.93 Q1403.87 1377.93 1406.88 1381.1 Q1409.91 1384.25 1409.91 1389.69 Q1409.91 1395.01 1406.76 1398.23 Q1403.61 1401.45 1398.38 1401.45 Q1392.38 1401.45 1389.21 1396.86 Q1386.04 1392.26 1386.04 1383.53 Q1386.04 1375.34 1389.93 1370.47 Q1393.82 1365.59 1400.37 1365.59 Q1402.13 1365.59 1403.91 1365.94 Q1405.72 1366.28 1407.66 1366.98 Z" fill="#000000" fill-rule="nonzero" fill-opacity="1" /><path clip-path="url(#clip750)" d="M1272.32 1305.91 L1301.99 1305.91 L1301.99 1309.85 L1272.32 1309.85 L1272.32 1305.91 Z" fill="#000000" fill-rule="nonzero" fill-opacity="1" /><path clip-path="url(#clip750)" d="M1322.08 1291.26 Q1318.47 1291.26 1316.64 1294.82 Q1314.84 1298.36 1314.84 1305.49 Q1314.84 1312.6 1316.64 1316.17 Q1318.47 1319.71 1322.08 1319.71 Q1325.72 1319.71 1327.52 1316.17 Q1329.35 1312.6 1329.35 1305.49 Q1329.35 1298.36 1327.52 1294.82 Q1325.72 1291.26 1322.08 1291.26 M1322.08 1287.55 Q1327.89 1287.55 1330.95 1292.16 Q1334.03 1296.74 1334.03 1305.49 Q1334.03 1314.22 1330.95 1318.83 Q1327.89 1323.41 1322.08 1323.41 Q1316.27 1323.41 1313.2 1318.83 Q1310.14 1314.22 1310.14 1305.49 Q1310.14 1296.74 1313.2 1292.16 Q1316.27 1287.55 1322.08 1287.55 Z" fill="#000000" fill-rule="nonzero" fill-opacity="1" /><path clip-path="url(#clip750)" d="M1342.25 1316.86 L1347.13 1316.86 L1347.13 1322.74 L1342.25 1322.74 L1342.25 1316.86 Z" fill="#000000" fill-rule="nonzero" fill-opacity="1" /><path clip-path="url(#clip750)" d="M1367.32 1291.26 Q1363.7 1291.26 1361.88 1294.82 Q1360.07 1298.36 1360.07 1305.49 Q1360.07 1312.6 1361.88 1316.17 Q1363.7 1319.71 1367.32 1319.71 Q1370.95 1319.71 1372.76 1316.17 Q1374.58 1312.6 1374.58 1305.49 Q1374.58 1298.36 1372.76 1294.82 Q1370.95 1291.26 1367.32 1291.26 M1367.32 1287.55 Q1373.13 1287.55 1376.18 1292.16 Q1379.26 1296.74 1379.26 1305.49 Q1379.26 1314.22 1376.18 1318.83 Q1373.13 1323.41 1367.32 1323.41 Q1361.51 1323.41 1358.43 1318.83 Q1355.37 1314.22 1355.37 1305.49 Q1355.37 1296.74 1358.43 1292.16 Q1361.51 1287.55 1367.32 1287.55 Z" fill="#000000" fill-rule="nonzero" fill-opacity="1" /><path clip-path="url(#clip750)" d="M1400.32 1292.25 L1388.52 1310.7 L1400.32 1310.7 L1400.32 1292.25 M1399.1 1288.18 L1404.98 1288.18 L1404.98 1310.7 L1409.91 1310.7 L1409.91 1314.59 L1404.98 1314.59 L1404.98 1322.74 L1400.32 1322.74 L1400.32 1314.59 L1384.72 1314.59 L1384.72 1310.08 L1399.1 1288.18 Z" fill="#000000" fill-rule="nonzero" fill-opacity="1" /><path clip-path="url(#clip750)" d="M1274.4 1227.88 L1304.08 1227.88 L1304.08 1231.81 L1274.4 1231.81 L1274.4 1227.88 Z" fill="#000000" fill-rule="nonzero" fill-opacity="1" /><path clip-path="url(#clip750)" d="M1324.17 1213.22 Q1320.56 1213.22 1318.73 1216.79 Q1316.92 1220.33 1316.92 1227.46 Q1316.92 1234.57 1318.73 1238.13 Q1320.56 1241.67 1324.17 1241.67 Q1327.8 1241.67 1329.61 1238.13 Q1331.44 1234.57 1331.44 1227.46 Q1331.44 1220.33 1329.61 1216.79 Q1327.8 1213.22 1324.17 1213.22 M1324.17 1209.52 Q1329.98 1209.52 1333.03 1214.13 Q1336.11 1218.71 1336.11 1227.46 Q1336.11 1236.19 1333.03 1240.79 Q1329.98 1245.38 1324.17 1245.38 Q1318.36 1245.38 1315.28 1240.79 Q1312.22 1236.19 1312.22 1227.46 Q1312.22 1218.71 1315.28 1214.13 Q1318.36 1209.52 1324.17 1209.52 Z" fill="#000000" fill-rule="nonzero" fill-opacity="1" /><path clip-path="url(#clip750)" d="M1344.33 1238.82 L1349.21 1238.82 L1349.21 1244.7 L1344.33 1244.7 L1344.33 1238.82 Z" fill="#000000" fill-rule="nonzero" fill-opacity="1" /><path clip-path="url(#clip750)" d="M1369.4 1213.22 Q1365.79 1213.22 1363.96 1216.79 Q1362.15 1220.33 1362.15 1227.46 Q1362.15 1234.57 1363.96 1238.13 Q1365.79 1241.67 1369.4 1241.67 Q1373.03 1241.67 1374.84 1238.13 Q1376.67 1234.57 1376.67 1227.46 Q1376.67 1220.33 1374.84 1216.79 Q1373.03 1213.22 1369.4 1213.22 M1369.4 1209.52 Q1375.21 1209.52 1378.26 1214.13 Q1381.34 1218.71 1381.34 1227.46 Q1381.34 1236.19 1378.26 1240.79 Q1375.21 1245.38 1369.4 1245.38 Q1363.59 1245.38 1360.51 1240.79 Q1357.45 1236.19 1357.45 1227.46 Q1357.45 1218.71 1360.51 1214.13 Q1363.59 1209.52 1369.4 1209.52 Z" fill="#000000" fill-rule="nonzero" fill-opacity="1" /><path clip-path="url(#clip750)" d="M1393.59 1240.77 L1409.91 1240.77 L1409.91 1244.7 L1387.96 1244.7 L1387.96 1240.77 Q1390.63 1238.01 1395.21 1233.38 Q1399.82 1228.73 1401 1227.39 Q1403.24 1224.87 1404.12 1223.13 Q1405.02 1221.37 1405.02 1219.68 Q1405.02 1216.93 1403.08 1215.19 Q1401.16 1213.45 1398.06 1213.45 Q1395.86 1213.45 1393.4 1214.22 Q1390.97 1214.98 1388.19 1216.53 L1388.19 1211.81 Q1391.02 1210.68 1393.47 1210.1 Q1395.93 1209.52 1397.96 1209.52 Q1403.33 1209.52 1406.53 1212.2 Q1409.72 1214.89 1409.72 1219.38 Q1409.72 1221.51 1408.91 1223.43 Q1408.13 1225.33 1406.02 1227.92 Q1405.44 1228.59 1402.34 1231.81 Q1399.24 1235 1393.59 1240.77 Z" fill="#000000" fill-rule="nonzero" fill-opacity="1" /><path clip-path="url(#clip750)" d="M1322.57 1135.19 Q1318.96 1135.19 1317.13 1138.75 Q1315.32 1142.29 1315.32 1149.42 Q1315.32 1156.53 1317.13 1160.09 Q1318.96 1163.64 1322.57 1163.64 Q1326.2 1163.64 1328.01 1160.09 Q1329.84 1156.53 1329.84 1149.42 Q1329.84 1142.29 1328.01 1138.75 Q1326.2 1135.19 1322.57 1135.19 M1322.57 1131.48 Q1328.38 1131.48 1331.44 1136.09 Q1334.51 1140.67 1334.51 1149.42 Q1334.51 1158.15 1331.44 1162.76 Q1328.38 1167.34 1322.57 1167.34 Q1316.76 1167.34 1313.68 1162.76 Q1310.63 1158.15 1310.63 1149.42 Q1310.63 1140.67 1313.68 1136.09 Q1316.76 1131.48 1322.57 1131.48 Z" fill="#000000" fill-rule="nonzero" fill-opacity="1" /><path clip-path="url(#clip750)" d="M1342.73 1160.79 L1347.62 1160.79 L1347.62 1166.67 L1342.73 1166.67 L1342.73 1160.79 Z" fill="#000000" fill-rule="nonzero" fill-opacity="1" /><path clip-path="url(#clip750)" d="M1367.8 1135.19 Q1364.19 1135.19 1362.36 1138.75 Q1360.56 1142.29 1360.56 1149.42 Q1360.56 1156.53 1362.36 1160.09 Q1364.19 1163.64 1367.8 1163.64 Q1371.44 1163.64 1373.24 1160.09 Q1375.07 1156.53 1375.07 1149.42 Q1375.07 1142.29 1373.24 1138.75 Q1371.44 1135.19 1367.8 1135.19 M1367.8 1131.48 Q1373.61 1131.48 1376.67 1136.09 Q1379.75 1140.67 1379.75 1149.42 Q1379.75 1158.15 1376.67 1162.76 Q1373.61 1167.34 1367.8 1167.34 Q1361.99 1167.34 1358.91 1162.76 Q1355.86 1158.15 1355.86 1149.42 Q1355.86 1140.67 1358.91 1136.09 Q1361.99 1131.48 1367.8 1131.48 Z" fill="#000000" fill-rule="nonzero" fill-opacity="1" /><path clip-path="url(#clip750)" d="M1397.96 1135.19 Q1394.35 1135.19 1392.52 1138.75 Q1390.72 1142.29 1390.72 1149.42 Q1390.72 1156.53 1392.52 1160.09 Q1394.35 1163.64 1397.96 1163.64 Q1401.6 1163.64 1403.4 1160.09 Q1405.23 1156.53 1405.23 1149.42 Q1405.23 1142.29 1403.4 1138.75 Q1401.6 1135.19 1397.96 1135.19 M1397.96 1131.48 Q1403.77 1131.48 1406.83 1136.09 Q1409.91 1140.67 1409.91 1149.42 Q1409.91 1158.15 1406.83 1162.76 Q1403.77 1167.34 1397.96 1167.34 Q1392.15 1167.34 1389.07 1162.76 Q1386.02 1158.15 1386.02 1149.42 Q1386.02 1140.67 1389.07 1136.09 Q1392.15 1131.48 1397.96 1131.48 Z" fill="#000000" fill-rule="nonzero" fill-opacity="1" /><path clip-path="url(#clip750)" d="M1182.01 1250.93 L1182.94 1251.49 Q1181.43 1254.99 1179.02 1259.34 Q1181.43 1263.69 1182.94 1267.19 L1182.01 1267.73 Q1178.7 1263.92 1176.15 1259.34 Q1178.72 1254.72 1182.01 1250.93 Z" fill="#000000" fill-rule="nonzero" fill-opacity="1" /><path clip-path="url(#clip750)" d="M1194.31 1247.77 Q1196.12 1247.77 1197.15 1248.9 Q1198.14 1250.02 1198.14 1251.31 Q1198.14 1252.54 1197.44 1253.18 Q1196.73 1253.82 1195.83 1253.82 Q1194.6 1253.82 1193.54 1252.92 Q1192.48 1252.02 1192.25 1250.67 Q1191.41 1251.99 1191.41 1253.95 Q1191.41 1255.24 1192.09 1256.37 Q1192.77 1257.46 1193.64 1258.14 Q1194.51 1258.78 1195.76 1259.36 Q1196.99 1259.91 1197.73 1260.14 Q1198.43 1260.33 1199.21 1260.49 L1208.23 1262.74 Q1212.51 1263.84 1214.02 1263.84 Q1215.89 1263.84 1217.15 1262.94 Q1218.37 1262.04 1218.37 1260.23 Q1218.37 1259.52 1218.18 1258.72 Q1217.95 1257.91 1217.37 1256.88 Q1216.76 1255.82 1215.86 1254.89 Q1214.92 1253.92 1213.35 1252.99 Q1211.77 1252.05 1209.74 1251.44 Q1209.03 1251.25 1209.03 1250.6 Q1209.03 1249.8 1209.67 1249.8 Q1210.22 1249.8 1211.38 1250.25 Q1212.51 1250.67 1213.99 1251.6 Q1215.44 1252.5 1216.76 1253.69 Q1218.05 1254.89 1218.95 1256.66 Q1219.85 1258.43 1219.85 1260.36 Q1219.85 1263.13 1218.37 1264.97 Q1216.89 1266.8 1214.83 1267.48 Q1215.12 1267.64 1215.5 1267.87 Q1215.89 1268.09 1216.76 1268.77 Q1217.6 1269.41 1218.24 1270.15 Q1218.85 1270.89 1219.34 1272.05 Q1219.85 1273.18 1219.85 1274.4 Q1219.85 1275.95 1219.4 1277.33 Q1218.95 1278.69 1217.92 1279.65 Q1216.89 1280.62 1215.47 1280.62 Q1213.89 1280.62 1212.8 1279.56 Q1211.67 1278.46 1211.67 1276.98 Q1211.67 1276.05 1212.22 1275.3 Q1212.77 1274.53 1213.96 1274.53 Q1215.28 1274.53 1216.28 1275.43 Q1217.27 1276.34 1217.53 1277.62 Q1218.37 1276.3 1218.37 1274.34 Q1218.37 1272.21 1216.5 1270.54 Q1214.63 1268.86 1211.51 1268.06 Q1204.01 1266.06 1200.66 1265.29 Q1197.28 1264.52 1195.83 1264.52 Q1194.47 1264.52 1193.54 1264.87 Q1192.61 1265.22 1192.19 1265.84 Q1191.74 1266.42 1191.57 1266.96 Q1191.41 1267.48 1191.41 1268.06 Q1191.41 1269.02 1191.8 1270.12 Q1192.19 1271.18 1193.09 1272.47 Q1193.96 1273.73 1195.76 1274.92 Q1197.56 1276.11 1200.04 1276.92 Q1200.79 1277.08 1200.79 1277.78 Q1200.75 1278.56 1200.11 1278.56 Q1199.56 1278.56 1198.43 1278.14 Q1197.28 1277.69 1195.83 1276.79 Q1194.38 1275.85 1193.09 1274.66 Q1191.77 1273.44 1190.87 1271.67 Q1189.96 1269.86 1189.96 1267.93 Q1189.96 1267.06 1190.16 1266.22 Q1190.32 1265.35 1190.8 1264.32 Q1191.28 1263.26 1192.35 1262.33 Q1193.41 1261.39 1194.96 1260.81 Q1194.22 1260.43 1193.51 1259.91 Q1192.8 1259.36 1191.93 1258.53 Q1191.03 1257.66 1190.51 1256.46 Q1189.96 1255.24 1189.96 1253.89 Q1189.96 1252.57 1190.32 1251.28 Q1190.64 1249.99 1191.7 1248.9 Q1192.73 1247.77 1194.31 1247.77 Z" fill="#000000" fill-rule="nonzero" fill-opacity="1" /><path clip-path="url(#clip750)" d="M1231.9 1240.31 Q1230.52 1240.31 1229.87 1239.52 Q1229.22 1238.73 1229.22 1237.72 Q1229.22 1236.66 1229.92 1235.91 Q1230.59 1235.15 1231.79 1235.15 Q1233.07 1235.15 1233.79 1236.05 Q1234.51 1236.93 1234.33 1238.19 Q1236.18 1237.09 1237.02 1235.06 Q1237.85 1233.01 1237.85 1231.11 Q1237.85 1229.13 1236.14 1227.53 Q1234.42 1225.9 1230.23 1225.9 Q1226.67 1225.9 1224.62 1227.3 Q1222.57 1228.68 1222.57 1231.4 L1222.57 1233.43 Q1222.57 1234.13 1222.5 1234.34 Q1222.43 1234.54 1222.05 1234.54 Q1221.6 1234.54 1221.51 1233.84 Q1221.51 1233.14 1221.37 1232.04 Q1221.28 1229.35 1218.96 1227.93 Q1216.79 1226.65 1213.71 1226.65 Q1210.89 1226.65 1209.72 1228 Q1208.52 1229.33 1208.52 1231.07 Q1208.52 1232.69 1209.2 1234.47 Q1209.87 1236.25 1211.38 1237.22 Q1211.38 1234.36 1213.71 1234.36 Q1214.72 1234.36 1215.4 1235.01 Q1216.05 1235.64 1216.05 1236.7 Q1216.05 1237.72 1215.42 1238.39 Q1214.77 1239.07 1213.66 1239.07 Q1211.02 1239.07 1209.2 1236.73 Q1207.37 1234.36 1207.37 1230.89 Q1207.37 1227.46 1209.17 1224.93 Q1210.98 1222.39 1213.75 1222.39 Q1216.48 1222.39 1218.71 1224.19 Q1220.94 1225.99 1221.87 1228.86 Q1222.57 1225.34 1224.96 1223.24 Q1227.32 1221.15 1230.23 1221.15 Q1233.84 1221.15 1236.5 1223.99 Q1239.14 1226.83 1239.14 1230.98 Q1239.14 1234.81 1237.06 1237.56 Q1234.99 1240.31 1231.9 1240.31 Z" fill="#000000" fill-rule="nonzero" fill-opacity="1" /><polyline clip-path="url(#clip755)" style="stroke:#e26f46; stroke-linecap:round; stroke-linejoin:round; stroke-width:3; stroke-opacity:1; fill:none" stroke-dasharray="12, 6, 2, 6" points="1471.57,1149.39 1496.74,1149.39 1521.9,1149.39 1547.06,1270.45 1572.22,1273.64 1597.38,1244.35 1622.55,1413.23 1647.71,1354.06 1672.87,1392.2 1698.03,1306.86 1723.2,1280.06 1748.36,1237.18 1773.52,1158.63 1798.68,1095.42 1823.85,1162.19 1849.01,1081.68 1874.17,1118.82 1899.33,1156.11 1924.49,1140.84 1949.66,1164.01 1974.82,1181.75 1999.98,1107.3 2025.14,1218.38 2050.31,1136.56 2075.47,1208.64 2100.63,1173 2125.79,1117.06 2150.95,1157.51 2176.12,1183.96 2201.28,1172.8 2226.44,1137.51 2251.6,1107 2276.77,1169.02 2301.93,1157.04 2327.09,1163.33 "/>
</svg>
