<svg xmlns="http://www.w3.org/2000/svg" xmlns:xlink="http://www.w3.org/1999/xlink" width="600" height="400" viewBox="0 0 2400 1600">
<defs>
  <clipPath id="clip870">
    <rect x="0" y="0" width="2400" height="1600"></rect>
  </clipPath>
</defs>
<path clip-path="url(#clip870)" d="M0 1600 L2400 1600 L2400 0 L0 0  Z" fill="#ffffff" fill-rule="evenodd" fill-opacity="1"></path>
<defs>
  <clipPath id="clip871">
    <rect x="480" y="0" width="1681" height="1600"></rect>
  </clipPath>
</defs>
<path clip-path="url(#clip870)" d="M257.69 1423.18 L755.634 1423.18 L755.634 47.2441 L257.69 47.2441  Z" fill="#ffffff" fill-rule="evenodd" fill-opacity="1"></path>
<defs>
  <clipPath id="clip872">
    <rect x="257" y="47" width="499" height="1377"></rect>
  </clipPath>
</defs>
<polyline clip-path="url(#clip872)" style="stroke:#000000; stroke-linecap:round; stroke-linejoin:round; stroke-width:2; stroke-opacity:0.1; fill:none" points="271.783,1423.18 271.783,47.2441 "></polyline>
<polyline clip-path="url(#clip872)" style="stroke:#000000; stroke-linecap:round; stroke-linejoin:round; stroke-width:2; stroke-opacity:0.1; fill:none" points="369.649,1423.18 369.649,47.2441 "></polyline>
<polyline clip-path="url(#clip872)" style="stroke:#000000; stroke-linecap:round; stroke-linejoin:round; stroke-width:2; stroke-opacity:0.1; fill:none" points="467.516,1423.18 467.516,47.2441 "></polyline>
<polyline clip-path="url(#clip872)" style="stroke:#000000; stroke-linecap:round; stroke-linejoin:round; stroke-width:2; stroke-opacity:0.1; fill:none" points="565.382,1423.18 565.382,47.2441 "></polyline>
<polyline clip-path="url(#clip872)" style="stroke:#000000; stroke-linecap:round; stroke-linejoin:round; stroke-width:2; stroke-opacity:0.1; fill:none" points="663.248,1423.18 663.248,47.2441 "></polyline>
<polyline clip-path="url(#clip870)" style="stroke:#000000; stroke-linecap:round; stroke-linejoin:round; stroke-width:4; stroke-opacity:1; fill:none" points="257.69,1423.18 755.634,1423.18 "></polyline>
<polyline clip-path="url(#clip870)" style="stroke:#000000; stroke-linecap:round; stroke-linejoin:round; stroke-width:4; stroke-opacity:1; fill:none" points="271.783,1423.18 271.783,1404.28 "></polyline>
<polyline clip-path="url(#clip870)" style="stroke:#000000; stroke-linecap:round; stroke-linejoin:round; stroke-width:4; stroke-opacity:1; fill:none" points="369.649,1423.18 369.649,1404.28 "></polyline>
<polyline clip-path="url(#clip870)" style="stroke:#000000; stroke-linecap:round; stroke-linejoin:round; stroke-width:4; stroke-opacity:1; fill:none" points="467.516,1423.18 467.516,1404.28 "></polyline>
<polyline clip-path="url(#clip870)" style="stroke:#000000; stroke-linecap:round; stroke-linejoin:round; stroke-width:4; stroke-opacity:1; fill:none" points="565.382,1423.18 565.382,1404.28 "></polyline>
<polyline clip-path="url(#clip870)" style="stroke:#000000; stroke-linecap:round; stroke-linejoin:round; stroke-width:4; stroke-opacity:1; fill:none" points="663.248,1423.18 663.248,1404.28 "></polyline>
<path clip-path="url(#clip870)" d="M271.783 1454.1 Q268.172 1454.1 266.343 1457.66 Q264.538 1461.2 264.538 1468.33 Q264.538 1475.44 266.343 1479.01 Q268.172 1482.55 271.783 1482.55 Q275.417 1482.55 277.223 1479.01 Q279.051 1475.44 279.051 1468.33 Q279.051 1461.2 277.223 1457.66 Q275.417 1454.1 271.783 1454.1 M271.783 1450.39 Q277.593 1450.39 280.649 1455 Q283.727 1459.58 283.727 1468.33 Q283.727 1477.06 280.649 1481.67 Q277.593 1486.25 271.783 1486.25 Q265.973 1486.25 262.894 1481.67 Q259.839 1477.06 259.839 1468.33 Q259.839 1459.58 262.894 1455 Q265.973 1450.39 271.783 1450.39 Z" fill="#000000" fill-rule="nonzero" fill-opacity="1"></path><path clip-path="url(#clip870)" d="M359.927 1451.02 L378.283 1451.02 L378.283 1454.96 L364.209 1454.96 L364.209 1463.43 Q365.228 1463.08 366.246 1462.92 Q367.265 1462.73 368.283 1462.73 Q374.07 1462.73 377.45 1465.9 Q380.83 1469.08 380.83 1474.49 Q380.83 1480.07 377.358 1483.17 Q373.885 1486.25 367.566 1486.25 Q365.39 1486.25 363.121 1485.88 Q360.876 1485.51 358.469 1484.77 L358.469 1480.07 Q360.552 1481.2 362.774 1481.76 Q364.996 1482.32 367.473 1482.32 Q371.478 1482.32 373.816 1480.21 Q376.154 1478.1 376.154 1474.49 Q376.154 1470.88 373.816 1468.77 Q371.478 1466.67 367.473 1466.67 Q365.598 1466.67 363.723 1467.08 Q361.871 1467.5 359.927 1468.38 L359.927 1451.02 Z" fill="#000000" fill-rule="nonzero" fill-opacity="1"></path><path clip-path="url(#clip870)" d="M442.203 1481.64 L449.842 1481.64 L449.842 1455.28 L441.532 1456.95 L441.532 1452.69 L449.796 1451.02 L454.472 1451.02 L454.472 1481.64 L462.11 1481.64 L462.11 1485.58 L442.203 1485.58 L442.203 1481.64 Z" fill="#000000" fill-rule="nonzero" fill-opacity="1"></path><path clip-path="url(#clip870)" d="M481.555 1454.1 Q477.944 1454.1 476.115 1457.66 Q474.309 1461.2 474.309 1468.33 Q474.309 1475.44 476.115 1479.01 Q477.944 1482.55 481.555 1482.55 Q485.189 1482.55 486.995 1479.01 Q488.823 1475.44 488.823 1468.33 Q488.823 1461.2 486.995 1457.66 Q485.189 1454.1 481.555 1454.1 M481.555 1450.39 Q487.365 1450.39 490.42 1455 Q493.499 1459.58 493.499 1468.33 Q493.499 1477.06 490.42 1481.67 Q487.365 1486.25 481.555 1486.25 Q475.745 1486.25 472.666 1481.67 Q469.61 1477.06 469.61 1468.33 Q469.61 1459.58 472.666 1455 Q475.745 1450.39 481.555 1450.39 Z" fill="#000000" fill-rule="nonzero" fill-opacity="1"></path><path clip-path="url(#clip870)" d="M540.567 1481.64 L548.206 1481.64 L548.206 1455.28 L539.896 1456.95 L539.896 1452.69 L548.16 1451.02 L552.836 1451.02 L552.836 1481.64 L560.474 1481.64 L560.474 1485.58 L540.567 1485.58 L540.567 1481.64 Z" fill="#000000" fill-rule="nonzero" fill-opacity="1"></path><path clip-path="url(#clip870)" d="M569.965 1451.02 L588.322 1451.02 L588.322 1454.96 L574.248 1454.96 L574.248 1463.43 Q575.266 1463.08 576.285 1462.92 Q577.303 1462.73 578.322 1462.73 Q584.109 1462.73 587.488 1465.9 Q590.868 1469.08 590.868 1474.49 Q590.868 1480.07 587.396 1483.17 Q583.923 1486.25 577.604 1486.25 Q575.428 1486.25 573.16 1485.88 Q570.914 1485.51 568.507 1484.77 L568.507 1480.07 Q570.59 1481.2 572.812 1481.76 Q575.035 1482.32 577.511 1482.32 Q581.516 1482.32 583.854 1480.21 Q586.192 1478.1 586.192 1474.49 Q586.192 1470.88 583.854 1468.77 Q581.516 1466.67 577.511 1466.67 Q575.636 1466.67 573.761 1467.08 Q571.91 1467.5 569.965 1468.38 L569.965 1451.02 Z" fill="#000000" fill-rule="nonzero" fill-opacity="1"></path><path clip-path="url(#clip870)" d="M642.021 1481.64 L658.341 1481.64 L658.341 1485.58 L636.396 1485.58 L636.396 1481.64 Q639.058 1478.89 643.642 1474.26 Q648.248 1469.61 649.429 1468.27 Q651.674 1465.74 652.554 1464.01 Q653.457 1462.25 653.457 1460.56 Q653.457 1457.8 651.512 1456.07 Q649.591 1454.33 646.489 1454.33 Q644.29 1454.33 641.836 1455.09 Q639.406 1455.86 636.628 1457.41 L636.628 1452.69 Q639.452 1451.55 641.906 1450.97 Q644.359 1450.39 646.396 1450.39 Q651.767 1450.39 654.961 1453.08 Q658.156 1455.77 658.156 1460.26 Q658.156 1462.39 657.345 1464.31 Q656.558 1466.2 654.452 1468.8 Q653.873 1469.47 650.771 1472.69 Q647.67 1475.88 642.021 1481.64 Z" fill="#000000" fill-rule="nonzero" fill-opacity="1"></path><path clip-path="url(#clip870)" d="M678.155 1454.1 Q674.544 1454.1 672.716 1457.66 Q670.91 1461.2 670.91 1468.33 Q670.91 1475.44 672.716 1479.01 Q674.544 1482.55 678.155 1482.55 Q681.79 1482.55 683.595 1479.01 Q685.424 1475.44 685.424 1468.33 Q685.424 1461.2 683.595 1457.66 Q681.79 1454.1 678.155 1454.1 M678.155 1450.39 Q683.966 1450.39 687.021 1455 Q690.1 1459.58 690.1 1468.33 Q690.1 1477.06 687.021 1481.67 Q683.966 1486.25 678.155 1486.25 Q672.345 1486.25 669.267 1481.67 Q666.211 1477.06 666.211 1468.33 Q666.211 1459.58 669.267 1455 Q672.345 1450.39 678.155 1450.39 Z" fill="#000000" fill-rule="nonzero" fill-opacity="1"></path><path clip-path="url(#clip870)" d="M376.833 1520.52 L417.033 1520.52 L417.033 1525.93 L400.164 1525.93 L400.164 1568.04 L393.703 1568.04 L393.703 1525.93 L376.833 1525.93 L376.833 1520.52 Z" fill="#000000" fill-rule="nonzero" fill-opacity="1"></path><path clip-path="url(#clip870)" d="M420.98 1532.4 L426.836 1532.4 L426.836 1568.04 L420.98 1568.04 L420.98 1532.4 M420.98 1518.52 L426.836 1518.52 L426.836 1525.93 L420.98 1525.93 L420.98 1518.52 Z" fill="#000000" fill-rule="nonzero" fill-opacity="1"></path><path clip-path="url(#clip870)" d="M466.845 1539.24 Q469.041 1535.29 472.096 1533.41 Q475.152 1531.54 479.29 1531.54 Q484.86 1531.54 487.883 1535.45 Q490.907 1539.33 490.907 1546.53 L490.907 1568.04 L485.019 1568.04 L485.019 1546.72 Q485.019 1541.59 483.204 1539.11 Q481.39 1536.63 477.666 1536.63 Q473.115 1536.63 470.473 1539.65 Q467.831 1542.68 467.831 1547.9 L467.831 1568.04 L461.943 1568.04 L461.943 1546.72 Q461.943 1541.56 460.129 1539.11 Q458.315 1536.63 454.527 1536.63 Q450.039 1536.63 447.397 1539.68 Q444.756 1542.71 444.756 1547.9 L444.756 1568.04 L438.867 1568.04 L438.867 1532.4 L444.756 1532.4 L444.756 1537.93 Q446.761 1534.66 449.562 1533.1 Q452.363 1531.54 456.214 1531.54 Q460.097 1531.54 462.802 1533.51 Q465.54 1535.48 466.845 1539.24 Z" fill="#000000" fill-rule="nonzero" fill-opacity="1"></path><path clip-path="url(#clip870)" d="M533.08 1548.76 L533.08 1551.62 L506.153 1551.62 Q506.535 1557.67 509.781 1560.85 Q513.06 1564 518.884 1564 Q522.258 1564 525.409 1563.17 Q528.592 1562.35 531.711 1560.69 L531.711 1566.23 Q528.56 1567.57 525.25 1568.27 Q521.94 1568.97 518.534 1568.97 Q510.004 1568.97 505.007 1564 Q500.042 1559.04 500.042 1550.57 Q500.042 1541.82 504.752 1536.69 Q509.495 1531.54 517.516 1531.54 Q524.709 1531.54 528.878 1536.18 Q533.08 1540.8 533.08 1548.76 M527.223 1547.04 Q527.16 1542.23 524.518 1539.37 Q521.908 1536.5 517.579 1536.5 Q512.678 1536.5 509.718 1539.27 Q506.789 1542.04 506.344 1547.07 L527.223 1547.04 Z" fill="#000000" fill-rule="nonzero" fill-opacity="1"></path><path clip-path="url(#clip870)" d="M577.481 1518.58 Q573.216 1525.9 571.147 1533.06 Q569.078 1540.23 569.078 1547.58 Q569.078 1554.93 571.147 1562.16 Q573.247 1569.35 577.481 1576.64 L572.388 1576.64 Q567.614 1569.16 565.227 1561.93 Q562.871 1554.71 562.871 1547.58 Q562.871 1540.48 565.227 1533.29 Q567.582 1526.09 572.388 1518.58 L577.481 1518.58 Z" fill="#000000" fill-rule="nonzero" fill-opacity="1"></path><path clip-path="url(#clip870)" d="M611.569 1533.45 L611.569 1538.98 Q609.086 1537.71 606.413 1537.07 Q603.739 1536.44 600.875 1536.44 Q596.514 1536.44 594.318 1537.77 Q592.153 1539.11 592.153 1541.79 Q592.153 1543.82 593.713 1545 Q595.273 1546.15 599.983 1547.2 L601.989 1547.64 Q608.227 1548.98 610.837 1551.43 Q613.479 1553.85 613.479 1558.21 Q613.479 1563.17 609.532 1566.07 Q605.617 1568.97 598.742 1568.97 Q595.877 1568.97 592.758 1568.39 Q589.671 1567.85 586.233 1566.74 L586.233 1560.69 Q589.48 1562.38 592.631 1563.24 Q595.782 1564.07 598.869 1564.07 Q603.007 1564.07 605.235 1562.66 Q607.463 1561.23 607.463 1558.65 Q607.463 1556.27 605.84 1554.99 Q604.248 1553.72 598.806 1552.54 L596.769 1552.07 Q591.326 1550.92 588.907 1548.56 Q586.488 1546.18 586.488 1542.04 Q586.488 1537.01 590.053 1534.27 Q593.618 1531.54 600.174 1531.54 Q603.421 1531.54 606.285 1532.01 Q609.15 1532.49 611.569 1533.45 Z" fill="#000000" fill-rule="nonzero" fill-opacity="1"></path><path clip-path="url(#clip870)" d="M621.881 1518.58 L626.974 1518.58 Q631.748 1526.09 634.104 1533.29 Q636.491 1540.48 636.491 1547.58 Q636.491 1554.71 634.104 1561.93 Q631.748 1569.16 626.974 1576.64 L621.881 1576.64 Q626.115 1569.35 628.183 1562.16 Q630.284 1554.93 630.284 1547.58 Q630.284 1540.23 628.183 1533.06 Q626.115 1525.9 621.881 1518.58 Z" fill="#000000" fill-rule="nonzero" fill-opacity="1"></path><polyline clip-path="url(#clip872)" style="stroke:#000000; stroke-linecap:round; stroke-linejoin:round; stroke-width:2; stroke-opacity:0.1; fill:none" points="257.69,1111.51 755.634,1111.51 "></polyline>
<polyline clip-path="url(#clip872)" style="stroke:#000000; stroke-linecap:round; stroke-linejoin:round; stroke-width:2; stroke-opacity:0.1; fill:none" points="257.69,769.734 755.634,769.734 "></polyline>
<polyline clip-path="url(#clip872)" style="stroke:#000000; stroke-linecap:round; stroke-linejoin:round; stroke-width:2; stroke-opacity:0.1; fill:none" points="257.69,427.96 755.634,427.96 "></polyline>
<polyline clip-path="url(#clip872)" style="stroke:#000000; stroke-linecap:round; stroke-linejoin:round; stroke-width:2; stroke-opacity:0.1; fill:none" points="257.69,86.1857 755.634,86.1857 "></polyline>
<polyline clip-path="url(#clip870)" style="stroke:#000000; stroke-linecap:round; stroke-linejoin:round; stroke-width:4; stroke-opacity:1; fill:none" points="257.69,1423.18 257.69,47.2441 "></polyline>
<polyline clip-path="url(#clip870)" style="stroke:#000000; stroke-linecap:round; stroke-linejoin:round; stroke-width:4; stroke-opacity:1; fill:none" points="257.69,1111.51 276.588,1111.51 "></polyline>
<polyline clip-path="url(#clip870)" style="stroke:#000000; stroke-linecap:round; stroke-linejoin:round; stroke-width:4; stroke-opacity:1; fill:none" points="257.69,769.734 276.588,769.734 "></polyline>
<polyline clip-path="url(#clip870)" style="stroke:#000000; stroke-linecap:round; stroke-linejoin:round; stroke-width:4; stroke-opacity:1; fill:none" points="257.69,427.96 276.588,427.96 "></polyline>
<polyline clip-path="url(#clip870)" style="stroke:#000000; stroke-linecap:round; stroke-linejoin:round; stroke-width:4; stroke-opacity:1; fill:none" points="257.69,86.1857 276.588,86.1857 "></polyline>
<path clip-path="url(#clip870)" d="M114.584 1111.96 L144.26 1111.96 L144.26 1115.9 L114.584 1115.9 L114.584 1111.96 Z" fill="#000000" fill-rule="nonzero" fill-opacity="1"></path><path clip-path="url(#clip870)" d="M164.352 1097.31 Q160.741 1097.31 158.913 1100.87 Q157.107 1104.41 157.107 1111.54 Q157.107 1118.65 158.913 1122.21 Q160.741 1125.76 164.352 1125.76 Q167.987 1125.76 169.792 1122.21 Q171.621 1118.65 171.621 1111.54 Q171.621 1104.41 169.792 1100.87 Q167.987 1097.31 164.352 1097.31 M164.352 1093.6 Q170.163 1093.6 173.218 1098.21 Q176.297 1102.79 176.297 1111.54 Q176.297 1120.27 173.218 1124.88 Q170.163 1129.46 164.352 1129.46 Q158.542 1129.46 155.464 1124.88 Q152.408 1120.27 152.408 1111.54 Q152.408 1102.79 155.464 1098.21 Q158.542 1093.6 164.352 1093.6 Z" fill="#000000" fill-rule="nonzero" fill-opacity="1"></path><path clip-path="url(#clip870)" d="M184.514 1122.91 L189.399 1122.91 L189.399 1128.79 L184.514 1128.79 L184.514 1122.91 Z" fill="#000000" fill-rule="nonzero" fill-opacity="1"></path><path clip-path="url(#clip870)" d="M210.162 1109.65 Q207.014 1109.65 205.162 1111.8 Q203.334 1113.95 203.334 1117.7 Q203.334 1121.43 205.162 1123.6 Q207.014 1125.76 210.162 1125.76 Q213.311 1125.76 215.139 1123.6 Q216.991 1121.43 216.991 1117.7 Q216.991 1113.95 215.139 1111.8 Q213.311 1109.65 210.162 1109.65 M219.445 1094.99 L219.445 1099.25 Q217.686 1098.42 215.88 1097.98 Q214.098 1097.54 212.338 1097.54 Q207.709 1097.54 205.255 1100.66 Q202.824 1103.79 202.477 1110.11 Q203.843 1108.09 205.903 1107.03 Q207.963 1105.94 210.44 1105.94 Q215.649 1105.94 218.658 1109.11 Q221.69 1112.26 221.69 1117.7 Q221.69 1123.02 218.542 1126.24 Q215.394 1129.46 210.162 1129.46 Q204.167 1129.46 200.996 1124.88 Q197.825 1120.27 197.825 1111.54 Q197.825 1103.35 201.713 1098.49 Q205.602 1093.6 212.153 1093.6 Q213.912 1093.6 215.695 1093.95 Q217.5 1094.3 219.445 1094.99 Z" fill="#000000" fill-rule="nonzero" fill-opacity="1"></path><path clip-path="url(#clip870)" d="M114.26 770.186 L143.936 770.186 L143.936 774.121 L114.26 774.121 L114.26 770.186 Z" fill="#000000" fill-rule="nonzero" fill-opacity="1"></path><path clip-path="url(#clip870)" d="M164.028 755.533 Q160.417 755.533 158.589 759.098 Q156.783 762.639 156.783 769.769 Q156.783 776.875 158.589 780.44 Q160.417 783.982 164.028 783.982 Q167.663 783.982 169.468 780.44 Q171.297 776.875 171.297 769.769 Q171.297 762.639 169.468 759.098 Q167.663 755.533 164.028 755.533 M164.028 751.829 Q169.839 751.829 172.894 756.436 Q175.973 761.019 175.973 769.769 Q175.973 778.496 172.894 783.102 Q169.839 787.686 164.028 787.686 Q158.218 787.686 155.14 783.102 Q152.084 778.496 152.084 769.769 Q152.084 761.019 155.14 756.436 Q158.218 751.829 164.028 751.829 Z" fill="#000000" fill-rule="nonzero" fill-opacity="1"></path><path clip-path="url(#clip870)" d="M184.19 781.135 L189.075 781.135 L189.075 787.014 L184.19 787.014 L184.19 781.135 Z" fill="#000000" fill-rule="nonzero" fill-opacity="1"></path><path clip-path="url(#clip870)" d="M212.107 756.528 L200.301 774.977 L212.107 774.977 L212.107 756.528 M210.88 752.454 L216.76 752.454 L216.76 774.977 L221.69 774.977 L221.69 778.866 L216.76 778.866 L216.76 787.014 L212.107 787.014 L212.107 778.866 L196.505 778.866 L196.505 774.352 L210.88 752.454 Z" fill="#000000" fill-rule="nonzero" fill-opacity="1"></path><path clip-path="url(#clip870)" d="M116.343 428.411 L146.019 428.411 L146.019 432.347 L116.343 432.347 L116.343 428.411 Z" fill="#000000" fill-rule="nonzero" fill-opacity="1"></path><path clip-path="url(#clip870)" d="M166.112 413.759 Q162.501 413.759 160.672 417.323 Q158.866 420.865 158.866 427.995 Q158.866 435.101 160.672 438.666 Q162.501 442.208 166.112 442.208 Q169.746 442.208 171.552 438.666 Q173.38 435.101 173.38 427.995 Q173.38 420.865 171.552 417.323 Q169.746 413.759 166.112 413.759 M166.112 410.055 Q171.922 410.055 174.977 414.661 Q178.056 419.245 178.056 427.995 Q178.056 436.722 174.977 441.328 Q171.922 445.911 166.112 445.911 Q160.302 445.911 157.223 441.328 Q154.167 436.722 154.167 427.995 Q154.167 419.245 157.223 414.661 Q160.302 410.055 166.112 410.055 Z" fill="#000000" fill-rule="nonzero" fill-opacity="1"></path><path clip-path="url(#clip870)" d="M186.274 439.36 L191.158 439.36 L191.158 445.24 L186.274 445.24 L186.274 439.36 Z" fill="#000000" fill-rule="nonzero" fill-opacity="1"></path><path clip-path="url(#clip870)" d="M205.371 441.305 L221.69 441.305 L221.69 445.24 L199.746 445.24 L199.746 441.305 Q202.408 438.55 206.991 433.921 Q211.598 429.268 212.778 427.925 Q215.024 425.402 215.903 423.666 Q216.806 421.907 216.806 420.217 Q216.806 417.462 214.861 415.726 Q212.94 413.99 209.838 413.99 Q207.639 413.99 205.186 414.754 Q202.755 415.518 199.977 417.069 L199.977 412.347 Q202.801 411.212 205.255 410.634 Q207.709 410.055 209.746 410.055 Q215.116 410.055 218.311 412.74 Q221.505 415.425 221.505 419.916 Q221.505 422.046 220.695 423.967 Q219.908 425.865 217.801 428.458 Q217.223 429.129 214.121 432.347 Q211.019 435.541 205.371 441.305 Z" fill="#000000" fill-rule="nonzero" fill-opacity="1"></path><path clip-path="url(#clip870)" d="M164.515 71.9844 Q160.903 71.9844 159.075 75.5492 Q157.269 79.0908 157.269 86.2204 Q157.269 93.3268 159.075 96.8916 Q160.903 100.433 164.515 100.433 Q168.149 100.433 169.954 96.8916 Q171.783 93.3268 171.783 86.2204 Q171.783 79.0908 169.954 75.5492 Q168.149 71.9844 164.515 71.9844 M164.515 68.2807 Q170.325 68.2807 173.38 72.8871 Q176.459 77.4704 176.459 86.2204 Q176.459 94.9472 173.38 99.5537 Q170.325 104.137 164.515 104.137 Q158.704 104.137 155.626 99.5537 Q152.57 94.9472 152.57 86.2204 Q152.57 77.4704 155.626 72.8871 Q158.704 68.2807 164.515 68.2807 Z" fill="#000000" fill-rule="nonzero" fill-opacity="1"></path><path clip-path="url(#clip870)" d="M184.676 97.5861 L189.561 97.5861 L189.561 103.466 L184.676 103.466 L184.676 97.5861 Z" fill="#000000" fill-rule="nonzero" fill-opacity="1"></path><path clip-path="url(#clip870)" d="M209.746 71.9844 Q206.135 71.9844 204.306 75.5492 Q202.5 79.0908 202.5 86.2204 Q202.5 93.3268 204.306 96.8916 Q206.135 100.433 209.746 100.433 Q213.38 100.433 215.186 96.8916 Q217.014 93.3268 217.014 86.2204 Q217.014 79.0908 215.186 75.5492 Q213.38 71.9844 209.746 71.9844 M209.746 68.2807 Q215.556 68.2807 218.611 72.8871 Q221.69 77.4704 221.69 86.2204 Q221.69 94.9472 218.611 99.5537 Q215.556 104.137 209.746 104.137 Q203.936 104.137 200.857 99.5537 Q197.801 94.9472 197.801 86.2204 Q197.801 77.4704 200.857 72.8871 Q203.936 68.2807 209.746 68.2807 Z" fill="#000000" fill-rule="nonzero" fill-opacity="1"></path><path clip-path="url(#clip870)" d="M21.7178 738.32 Q22.1687 738.32 23.2315 738.61 L48.4165 744.922 Q54.0203 746.307 57.9494 750.816 Q61.8785 755.293 61.8785 760.381 Q61.8785 763.441 60.236 765.405 Q58.6257 767.37 56.1459 767.37 Q53.9559 767.37 52.8931 766.21 Q51.8625 765.051 51.8625 763.666 Q51.8625 763.215 51.9913 762.732 Q52.1201 762.249 52.6676 761.734 Q53.2151 761.219 54.1491 761.219 Q55.6628 761.219 56.8544 762.539 Q57.4019 763.183 57.5307 763.795 Q57.6596 764.375 57.6596 765.373 Q58.5613 764.987 59.1732 764.278 Q59.7851 763.57 60.0106 762.764 Q60.2682 761.959 60.3326 761.444 Q60.4293 760.896 60.4293 760.381 Q60.4293 756.259 56.2747 753.103 Q55.0187 752.169 53.7626 751.492 Q52.5388 750.784 51.0252 750.269 Q49.5437 749.753 48.7385 749.528 Q47.9334 749.27 46.0977 748.819 Q49.0928 751.814 49.0928 755.486 Q49.0928 757.032 48.6741 758.417 Q48.2554 759.769 47.3859 760.961 Q46.4841 762.153 44.906 762.861 Q43.3279 763.537 41.2346 763.537 Q39.0124 763.537 35.985 762.668 Q32.9577 761.798 27.386 759.705 Q24.2621 758.578 22.7484 758.578 Q22.0077 758.578 21.5568 758.739 Q21.0737 758.9 20.9127 759.222 Q20.7194 759.544 20.6872 759.737 Q20.655 759.898 20.655 760.22 Q20.655 762.12 22.5874 763.892 Q24.5197 765.663 28.8353 766.887 Q29.6405 767.144 29.8337 767.305 Q30.0269 767.466 30.0269 767.95 Q29.9947 768.755 29.3506 768.755 Q29.093 768.755 28.0946 768.465 Q27.064 768.175 25.5503 767.499 Q24.0044 766.79 22.6196 765.824 Q21.2025 764.858 20.2041 763.344 Q19.2058 761.798 19.2058 760.027 Q19.2058 757.611 20.7838 756.13 Q22.3297 754.616 24.6163 754.616 Q25.5503 754.616 26.3877 754.874 Q27.1928 755.099 29.3506 755.937 Q38.0462 759.318 42.2974 759.318 Q43.3279 759.318 44.1975 759.157 Q45.0349 758.964 45.8722 758.545 Q46.6774 758.127 47.1604 757.289 Q47.6113 756.42 47.6113 755.228 Q47.6113 753.715 46.9028 752.298 Q46.1621 750.848 45.1637 749.946 Q44.1653 749.013 43.3279 748.465 Q42.4584 747.885 42.0075 747.756 L30.1558 744.794 L24.874 743.473 Q22.0077 742.861 21.2991 742.571 Q20.6228 742.185 20.2686 741.509 Q19.9143 740.832 19.9143 740.253 Q19.9143 739.447 20.3974 738.9 Q20.8805 738.32 21.7178 738.32 Z" fill="#000000" fill-rule="nonzero" fill-opacity="1"></path><path clip-path="url(#clip870)" d="M53.6652 731.574 L52.2224 731.574 Q52.2224 726.028 49.2691 723.165 Q49.2691 722.376 49.4494 722.241 Q49.6298 722.106 50.4639 722.106 L76.3671 722.106 Q77.7423 722.106 78.1706 721.429 Q78.599 720.753 78.599 717.8 L78.599 716.334 L80.0193 716.334 Q79.884 717.957 79.884 723.819 Q79.884 729.68 80.0193 731.281 L78.599 731.281 L78.599 729.816 Q78.599 726.907 78.1932 726.209 Q77.7648 725.51 76.3671 725.51 L52.4478 725.51 Q53.6652 727.922 53.6652 731.574 Z" fill="#000000" fill-rule="nonzero" fill-opacity="1"></path><polyline clip-path="url(#clip872)" style="stroke:#009af9; stroke-linecap:round; stroke-linejoin:round; stroke-width:4; stroke-opacity:1; fill:none" points="271.783,86.1857 291.356,705.717 310.929,1212.95 330.503,1384.24 350.076,1315.69 369.649,1160.43 389.222,1003.6 408.796,870.154 428.369,759.523 447.942,666.21 467.516,586.171 487.089,517.07 506.662,457.4 526.235,405.944 545.809,361.613 565.382,323.433 584.955,290.548 604.528,262.223 624.102,237.824 643.675,216.806 663.248,198.702 682.821,183.107 702.395,169.673 721.968,158.101 741.541,148.134 "></polyline>
<polyline clip-path="url(#clip872)" style="stroke:#e26f46; stroke-linecap:round; stroke-linejoin:round; stroke-width:3; stroke-opacity:1; fill:none" stroke-dasharray="12, 6, 2, 6" points="271.783,86.1857 291.356,86.1857 310.929,503.033 330.503,722.579 350.076,731.476 369.649,653.126 389.222,565.455 408.796,492.413 428.369,434.045 447.942,385.818 467.516,344.635 487.089,309.009 506.662,278.177 526.235,251.562 545.809,228.629 565.382,208.88 584.955,191.873 604.528,177.225 624.102,164.607 643.675,153.738 663.248,144.375 682.821,136.309 702.395,129.362 721.968,123.378 741.541,118.223 "></polyline>
<polyline clip-path="url(#clip872)" style="stroke:#3da44d; stroke-linecap:round; stroke-linejoin:round; stroke-width:3; stroke-opacity:1; fill:none" stroke-dasharray="12, 8" points="271.783,86.1857 291.356,86.1857 310.929,86.1857 330.503,86.1857 350.076,86.1857 369.649,86.1857 389.222,86.1857 408.796,86.1857 428.369,86.1857 447.942,86.1857 467.516,86.1857 487.089,86.1857 506.662,86.1857 526.235,86.1857 545.809,86.1857 565.382,86.1857 584.955,86.1857 604.528,86.1857 624.102,86.1857 643.675,86.1857 663.248,86.1857 682.821,86.1857 702.395,86.1857 721.968,86.1857 741.541,86.1857 "></polyline>
<path clip-path="url(#clip870)" d="M641.233 1377.32 L739.036 1377.32 L739.036 1169.96 L641.233 1169.96  Z" fill="#ffffff" fill-rule="evenodd" fill-opacity="1"></path>
<polyline clip-path="url(#clip870)" style="stroke:#000000; stroke-linecap:round; stroke-linejoin:round; stroke-width:4; stroke-opacity:1; fill:none" points="641.233,1377.32 739.036,1377.32 739.036,1169.96 641.233,1169.96 641.233,1377.32 "></polyline>
<polyline clip-path="url(#clip870)" style="stroke:#009af9; stroke-linecap:round; stroke-linejoin:round; stroke-width:4; stroke-opacity:1; fill:none" points="646.765,1221.8 679.962,1221.8 "></polyline>
<path clip-path="url(#clip870)" d="M712.266 1208.53 Q710.791 1208.53 710.041 1208.67 Q709.292 1208.79 709.104 1208.96 Q708.917 1209.12 708.706 1209.54 L698.4 1231.46 Q697.299 1233.81 695.238 1235.49 Q693.2 1237.18 690.624 1237.18 Q688.469 1237.18 686.97 1235.87 Q685.494 1234.58 685.494 1232.75 Q685.494 1231.44 686.314 1230.69 Q687.134 1229.97 688.235 1229.97 Q689.453 1229.97 690.226 1230.74 Q691.022 1231.51 691.022 1232.71 Q691.022 1233.48 690.694 1234.06 Q690.366 1234.67 690.062 1234.88 Q689.781 1235.12 689.476 1235.26 Q689.968 1235.45 690.624 1235.45 Q691.608 1235.45 692.451 1235.05 Q693.317 1234.67 693.88 1234.16 Q694.465 1233.67 695.051 1232.78 Q695.636 1231.91 695.917 1231.35 Q696.198 1230.81 696.62 1229.87 L697.721 1227.58 L688.75 1208.53 L685.682 1208.53 L685.682 1206.29 L691.163 1206.43 L697.112 1206.29 L697.112 1208.53 L694.512 1208.53 L700.602 1221.49 L706.13 1209.68 L706.364 1209.12 Q706.364 1208.86 705.802 1208.72 Q705.24 1208.56 704.677 1208.56 L704.115 1208.53 L704.115 1206.29 L708.472 1206.43 Q710.533 1206.43 712.266 1206.29 L712.266 1208.53 Z" fill="#000000" fill-rule="nonzero" fill-opacity="1"></path><polyline clip-path="url(#clip870)" style="stroke:#e26f46; stroke-linecap:round; stroke-linejoin:round; stroke-width:3; stroke-opacity:1; fill:none" stroke-dasharray="12, 6, 2, 6" points="646.765,1273.64 679.962,1273.64 "></polyline>
<path clip-path="url(#clip870)" d="M708.08 1257.36 L707.67 1258.03 Q705.129 1256.93 701.964 1255.17 Q698.8 1256.93 696.259 1258.03 L695.865 1257.36 Q698.636 1254.95 701.964 1253.09 Q705.325 1254.96 708.08 1257.36 Z" fill="#000000" fill-rule="nonzero" fill-opacity="1"></path><path clip-path="url(#clip870)" d="M712.266 1265.38 Q710.791 1265.38 710.041 1265.52 Q709.292 1265.64 709.104 1265.8 Q708.917 1265.96 708.706 1266.39 L698.4 1288.31 Q697.299 1290.65 695.238 1292.34 Q693.2 1294.02 690.624 1294.02 Q688.469 1294.02 686.97 1292.71 Q685.494 1291.42 685.494 1289.6 Q685.494 1288.29 686.314 1287.54 Q687.134 1286.81 688.235 1286.81 Q689.453 1286.81 690.226 1287.58 Q691.022 1288.36 691.022 1289.55 Q691.022 1290.32 690.694 1290.91 Q690.366 1291.52 690.062 1291.73 Q689.781 1291.96 689.476 1292.1 Q689.968 1292.29 690.624 1292.29 Q691.608 1292.29 692.451 1291.89 Q693.317 1291.52 693.88 1291 Q694.465 1290.51 695.051 1289.62 Q695.636 1288.75 695.917 1288.19 Q696.198 1287.65 696.62 1286.72 L697.721 1284.42 L688.75 1265.38 L685.682 1265.38 L685.682 1263.13 L691.163 1263.27 L697.112 1263.13 L697.112 1265.38 L694.512 1265.38 L700.602 1278.33 L706.13 1266.53 L706.364 1265.96 Q706.364 1265.71 705.802 1265.57 Q705.24 1265.4 704.677 1265.4 L704.115 1265.38 L704.115 1263.13 L708.472 1263.27 Q710.533 1263.27 712.266 1263.13 L712.266 1265.38 Z" fill="#000000" fill-rule="nonzero" fill-opacity="1"></path><polyline clip-path="url(#clip870)" style="stroke:#3da44d; stroke-linecap:round; stroke-linejoin:round; stroke-width:3; stroke-opacity:1; fill:none" stroke-dasharray="12, 8" points="646.765,1325.48 679.962,1325.48 "></polyline>
<path clip-path="url(#clip870)" d="M704.912 1310.75 Q704.912 1312.11 704.022 1312.91 Q703.131 1313.68 701.984 1313.68 Q700.836 1313.68 699.946 1312.91 Q699.056 1312.14 699.056 1310.75 Q699.056 1310.14 699.267 1309.61 Q699.501 1309.04 699.735 1308.79 L699.969 1308.55 Q698.588 1308.55 697.51 1309.21 Q696.433 1309.84 695.777 1310.82 Q695.121 1311.81 694.699 1313.1 Q694.278 1314.36 694.114 1315.51 Q693.973 1316.66 693.973 1317.76 L693.973 1326.17 L698.143 1326.17 L698.143 1328.41 Q696.409 1328.27 691.537 1328.27 L685.494 1328.41 L685.494 1326.17 L688.797 1326.17 L688.797 1311.34 Q688.797 1309.98 688.305 1309.72 Q687.813 1309.46 685.494 1309.46 L685.494 1307.22 L693.458 1306.82 L693.458 1312.25 Q695.449 1306.82 699.829 1306.82 Q701.843 1306.82 703.366 1307.9 Q704.912 1308.95 704.912 1310.75 Z" fill="#000000" fill-rule="nonzero" fill-opacity="1"></path><path clip-path="url(#clip870)" d="M728.573 1323.94 Q727.541 1323.94 727.016 1324.04 Q726.491 1324.12 726.36 1324.23 Q726.229 1324.35 726.081 1324.64 L718.867 1339.99 Q718.097 1341.63 716.654 1342.81 Q715.227 1343.99 713.424 1343.99 Q711.915 1343.99 710.866 1343.07 Q709.833 1342.17 709.833 1340.89 Q709.833 1339.97 710.407 1339.45 Q710.981 1338.94 711.751 1338.94 Q712.604 1338.94 713.145 1339.48 Q713.703 1340.02 713.703 1340.86 Q713.703 1341.4 713.473 1341.81 Q713.243 1342.23 713.03 1342.38 Q712.834 1342.55 712.62 1342.64 Q712.965 1342.78 713.424 1342.78 Q714.112 1342.78 714.703 1342.5 Q715.309 1342.23 715.703 1341.87 Q716.113 1341.53 716.523 1340.91 Q716.932 1340.3 717.129 1339.91 Q717.326 1339.53 717.621 1338.87 L718.392 1337.27 L712.112 1323.94 L709.964 1323.94 L709.964 1322.36 L713.801 1322.46 L717.965 1322.36 L717.965 1323.94 L716.145 1323.94 L720.408 1333 L724.278 1324.74 L724.442 1324.35 Q724.442 1324.17 724.048 1324.07 Q723.655 1323.95 723.261 1323.95 L722.868 1323.94 L722.868 1322.36 L725.917 1322.46 Q727.36 1322.46 728.573 1322.36 L728.573 1323.94 Z" fill="#000000" fill-rule="nonzero" fill-opacity="1"></path><path clip-path="url(#clip870)" d="M1052.42 1423.18 L1550.36 1423.18 L1550.36 47.2441 L1052.42 47.2441  Z" fill="#ffffff" fill-rule="evenodd" fill-opacity="1"></path>
<defs>
  <clipPath id="clip873">
    <rect x="1052" y="47" width="499" height="1377"></rect>
  </clipPath>
</defs>
<polyline clip-path="url(#clip873)" style="stroke:#000000; stroke-linecap:round; stroke-linejoin:round; stroke-width:2; stroke-opacity:0.1; fill:none" points="1066.51,1423.18 1066.51,47.2441 "></polyline>
<polyline clip-path="url(#clip873)" style="stroke:#000000; stroke-linecap:round; stroke-linejoin:round; stroke-width:2; stroke-opacity:0.1; fill:none" points="1164.38,1423.18 1164.38,47.2441 "></polyline>
<polyline clip-path="url(#clip873)" style="stroke:#000000; stroke-linecap:round; stroke-linejoin:round; stroke-width:2; stroke-opacity:0.1; fill:none" points="1262.25,1423.18 1262.25,47.2441 "></polyline>
<polyline clip-path="url(#clip873)" style="stroke:#000000; stroke-linecap:round; stroke-linejoin:round; stroke-width:2; stroke-opacity:0.1; fill:none" points="1360.11,1423.18 1360.11,47.2441 "></polyline>
<polyline clip-path="url(#clip873)" style="stroke:#000000; stroke-linecap:round; stroke-linejoin:round; stroke-width:2; stroke-opacity:0.1; fill:none" points="1457.98,1423.18 1457.98,47.2441 "></polyline>
<polyline clip-path="url(#clip870)" style="stroke:#000000; stroke-linecap:round; stroke-linejoin:round; stroke-width:4; stroke-opacity:1; fill:none" points="1052.42,1423.18 1550.36,1423.18 "></polyline>
<polyline clip-path="url(#clip870)" style="stroke:#000000; stroke-linecap:round; stroke-linejoin:round; stroke-width:4; stroke-opacity:1; fill:none" points="1066.51,1423.18 1066.51,1404.28 "></polyline>
<polyline clip-path="url(#clip870)" style="stroke:#000000; stroke-linecap:round; stroke-linejoin:round; stroke-width:4; stroke-opacity:1; fill:none" points="1164.38,1423.18 1164.38,1404.28 "></polyline>
<polyline clip-path="url(#clip870)" style="stroke:#000000; stroke-linecap:round; stroke-linejoin:round; stroke-width:4; stroke-opacity:1; fill:none" points="1262.25,1423.18 1262.25,1404.28 "></polyline>
<polyline clip-path="url(#clip870)" style="stroke:#000000; stroke-linecap:round; stroke-linejoin:round; stroke-width:4; stroke-opacity:1; fill:none" points="1360.11,1423.18 1360.11,1404.28 "></polyline>
<polyline clip-path="url(#clip870)" style="stroke:#000000; stroke-linecap:round; stroke-linejoin:round; stroke-width:4; stroke-opacity:1; fill:none" points="1457.98,1423.18 1457.98,1404.28 "></polyline>
<path clip-path="url(#clip870)" d="M1066.51 1454.1 Q1062.9 1454.1 1061.07 1457.66 Q1059.27 1461.2 1059.27 1468.33 Q1059.27 1475.44 1061.07 1479.01 Q1062.9 1482.55 1066.51 1482.55 Q1070.15 1482.55 1071.95 1479.01 Q1073.78 1475.44 1073.78 1468.33 Q1073.78 1461.2 1071.95 1457.66 Q1070.15 1454.1 1066.51 1454.1 M1066.51 1450.39 Q1072.32 1450.39 1075.38 1455 Q1078.46 1459.58 1078.46 1468.33 Q1078.46 1477.06 1075.38 1481.67 Q1072.32 1486.25 1066.51 1486.25 Q1060.7 1486.25 1057.62 1481.67 Q1054.57 1477.06 1054.57 1468.33 Q1054.57 1459.58 1057.62 1455 Q1060.7 1450.39 1066.51 1450.39 Z" fill="#000000" fill-rule="nonzero" fill-opacity="1"></path><path clip-path="url(#clip870)" d="M1154.66 1451.02 L1173.01 1451.02 L1173.01 1454.96 L1158.94 1454.96 L1158.94 1463.43 Q1159.96 1463.08 1160.98 1462.92 Q1161.99 1462.73 1163.01 1462.73 Q1168.8 1462.73 1172.18 1465.9 Q1175.56 1469.08 1175.56 1474.49 Q1175.56 1480.07 1172.09 1483.17 Q1168.62 1486.25 1162.3 1486.25 Q1160.12 1486.25 1157.85 1485.88 Q1155.61 1485.51 1153.2 1484.77 L1153.2 1480.07 Q1155.28 1481.2 1157.5 1481.76 Q1159.73 1482.32 1162.2 1482.32 Q1166.21 1482.32 1168.55 1480.21 Q1170.88 1478.1 1170.88 1474.49 Q1170.88 1470.88 1168.55 1468.77 Q1166.21 1466.67 1162.2 1466.67 Q1160.33 1466.67 1158.45 1467.08 Q1156.6 1467.5 1154.66 1468.38 L1154.66 1451.02 Z" fill="#000000" fill-rule="nonzero" fill-opacity="1"></path><path clip-path="url(#clip870)" d="M1236.93 1481.64 L1244.57 1481.64 L1244.57 1455.28 L1236.26 1456.95 L1236.26 1452.69 L1244.53 1451.02 L1249.2 1451.02 L1249.2 1481.64 L1256.84 1481.64 L1256.84 1485.58 L1236.93 1485.58 L1236.93 1481.64 Z" fill="#000000" fill-rule="nonzero" fill-opacity="1"></path><path clip-path="url(#clip870)" d="M1276.28 1454.1 Q1272.67 1454.1 1270.84 1457.66 Q1269.04 1461.2 1269.04 1468.33 Q1269.04 1475.44 1270.84 1479.01 Q1272.67 1482.55 1276.28 1482.55 Q1279.92 1482.55 1281.72 1479.01 Q1283.55 1475.44 1283.55 1468.33 Q1283.55 1461.2 1281.72 1457.66 Q1279.92 1454.1 1276.28 1454.1 M1276.28 1450.39 Q1282.09 1450.39 1285.15 1455 Q1288.23 1459.58 1288.23 1468.33 Q1288.23 1477.06 1285.15 1481.67 Q1282.09 1486.25 1276.28 1486.25 Q1270.47 1486.25 1267.4 1481.67 Q1264.34 1477.06 1264.34 1468.33 Q1264.34 1459.58 1267.4 1455 Q1270.47 1450.39 1276.28 1450.39 Z" fill="#000000" fill-rule="nonzero" fill-opacity="1"></path><path clip-path="url(#clip870)" d="M1335.3 1481.64 L1342.94 1481.64 L1342.94 1455.28 L1334.63 1456.95 L1334.63 1452.69 L1342.89 1451.02 L1347.57 1451.02 L1347.57 1481.64 L1355.2 1481.64 L1355.2 1485.58 L1335.3 1485.58 L1335.3 1481.64 Z" fill="#000000" fill-rule="nonzero" fill-opacity="1"></path><path clip-path="url(#clip870)" d="M1364.7 1451.02 L1383.05 1451.02 L1383.05 1454.96 L1368.98 1454.96 L1368.98 1463.43 Q1370 1463.08 1371.01 1462.92 Q1372.03 1462.73 1373.05 1462.73 Q1378.84 1462.73 1382.22 1465.9 Q1385.6 1469.08 1385.6 1474.49 Q1385.6 1480.07 1382.13 1483.17 Q1378.65 1486.25 1372.33 1486.25 Q1370.16 1486.25 1367.89 1485.88 Q1365.64 1485.51 1363.24 1484.77 L1363.24 1480.07 Q1365.32 1481.2 1367.54 1481.76 Q1369.76 1482.32 1372.24 1482.32 Q1376.25 1482.32 1378.58 1480.21 Q1380.92 1478.1 1380.92 1474.49 Q1380.92 1470.88 1378.58 1468.77 Q1376.25 1466.67 1372.24 1466.67 Q1370.37 1466.67 1368.49 1467.08 Q1366.64 1467.5 1364.7 1468.38 L1364.7 1451.02 Z" fill="#000000" fill-rule="nonzero" fill-opacity="1"></path><path clip-path="url(#clip870)" d="M1436.75 1481.64 L1453.07 1481.64 L1453.07 1485.58 L1431.13 1485.58 L1431.13 1481.64 Q1433.79 1478.89 1438.37 1474.26 Q1442.98 1469.61 1444.16 1468.27 Q1446.4 1465.74 1447.28 1464.01 Q1448.19 1462.25 1448.19 1460.56 Q1448.19 1457.8 1446.24 1456.07 Q1444.32 1454.33 1441.22 1454.33 Q1439.02 1454.33 1436.57 1455.09 Q1434.14 1455.86 1431.36 1457.41 L1431.36 1452.69 Q1434.18 1451.55 1436.64 1450.97 Q1439.09 1450.39 1441.13 1450.39 Q1446.5 1450.39 1449.69 1453.08 Q1452.89 1455.77 1452.89 1460.26 Q1452.89 1462.39 1452.08 1464.31 Q1451.29 1466.2 1449.18 1468.8 Q1448.6 1469.47 1445.5 1472.69 Q1442.4 1475.88 1436.75 1481.64 Z" fill="#000000" fill-rule="nonzero" fill-opacity="1"></path><path clip-path="url(#clip870)" d="M1472.89 1454.1 Q1469.27 1454.1 1467.45 1457.66 Q1465.64 1461.2 1465.64 1468.33 Q1465.64 1475.44 1467.45 1479.01 Q1469.27 1482.55 1472.89 1482.55 Q1476.52 1482.55 1478.33 1479.01 Q1480.15 1475.44 1480.15 1468.33 Q1480.15 1461.2 1478.33 1457.66 Q1476.52 1454.1 1472.89 1454.1 M1472.89 1450.39 Q1478.7 1450.39 1481.75 1455 Q1484.83 1459.58 1484.83 1468.33 Q1484.83 1477.06 1481.75 1481.67 Q1478.7 1486.25 1472.89 1486.25 Q1467.08 1486.25 1464 1481.67 Q1460.94 1477.06 1460.94 1468.33 Q1460.94 1459.58 1464 1455 Q1467.08 1450.39 1472.89 1450.39 Z" fill="#000000" fill-rule="nonzero" fill-opacity="1"></path><path clip-path="url(#clip870)" d="M1171.56 1520.52 L1211.76 1520.52 L1211.76 1525.93 L1194.89 1525.93 L1194.89 1568.04 L1188.43 1568.04 L1188.43 1525.93 L1171.56 1525.93 L1171.56 1520.52 Z" fill="#000000" fill-rule="nonzero" fill-opacity="1"></path><path clip-path="url(#clip870)" d="M1215.71 1532.4 L1221.57 1532.4 L1221.57 1568.04 L1215.71 1568.04 L1215.71 1532.4 M1215.71 1518.52 L1221.57 1518.52 L1221.57 1525.93 L1215.71 1525.93 L1215.71 1518.52 Z" fill="#000000" fill-rule="nonzero" fill-opacity="1"></path><path clip-path="url(#clip870)" d="M1261.57 1539.24 Q1263.77 1535.29 1266.83 1533.41 Q1269.88 1531.54 1274.02 1531.54 Q1279.59 1531.54 1282.61 1535.45 Q1285.64 1539.33 1285.64 1546.53 L1285.64 1568.04 L1279.75 1568.04 L1279.75 1546.72 Q1279.75 1541.59 1277.93 1539.11 Q1276.12 1536.63 1272.4 1536.63 Q1267.84 1536.63 1265.2 1539.65 Q1262.56 1542.68 1262.56 1547.9 L1262.56 1568.04 L1256.67 1568.04 L1256.67 1546.72 Q1256.67 1541.56 1254.86 1539.11 Q1253.04 1536.63 1249.26 1536.63 Q1244.77 1536.63 1242.13 1539.68 Q1239.49 1542.71 1239.49 1547.9 L1239.49 1568.04 L1233.6 1568.04 L1233.6 1532.4 L1239.49 1532.4 L1239.49 1537.93 Q1241.49 1534.66 1244.29 1533.1 Q1247.09 1531.54 1250.94 1531.54 Q1254.83 1531.54 1257.53 1533.51 Q1260.27 1535.48 1261.57 1539.24 Z" fill="#000000" fill-rule="nonzero" fill-opacity="1"></path><path clip-path="url(#clip870)" d="M1327.81 1548.76 L1327.81 1551.62 L1300.88 1551.62 Q1301.26 1557.67 1304.51 1560.85 Q1307.79 1564 1313.61 1564 Q1316.99 1564 1320.14 1563.17 Q1323.32 1562.35 1326.44 1560.69 L1326.44 1566.23 Q1323.29 1567.57 1319.98 1568.27 Q1316.67 1568.97 1313.26 1568.97 Q1304.73 1568.97 1299.74 1564 Q1294.77 1559.04 1294.77 1550.57 Q1294.77 1541.82 1299.48 1536.69 Q1304.22 1531.54 1312.25 1531.54 Q1319.44 1531.54 1323.61 1536.18 Q1327.81 1540.8 1327.81 1548.76 M1321.95 1547.04 Q1321.89 1542.23 1319.25 1539.37 Q1316.64 1536.5 1312.31 1536.5 Q1307.41 1536.5 1304.45 1539.27 Q1301.52 1542.04 1301.07 1547.07 L1321.95 1547.04 Z" fill="#000000" fill-rule="nonzero" fill-opacity="1"></path><path clip-path="url(#clip870)" d="M1372.21 1518.58 Q1367.95 1525.9 1365.88 1533.06 Q1363.81 1540.23 1363.81 1547.58 Q1363.81 1554.93 1365.88 1562.16 Q1367.98 1569.35 1372.21 1576.64 L1367.12 1576.64 Q1362.34 1569.16 1359.96 1561.93 Q1357.6 1554.71 1357.6 1547.58 Q1357.6 1540.48 1359.96 1533.29 Q1362.31 1526.09 1367.12 1518.58 L1372.21 1518.58 Z" fill="#000000" fill-rule="nonzero" fill-opacity="1"></path><path clip-path="url(#clip870)" d="M1406.3 1533.45 L1406.3 1538.98 Q1403.82 1537.71 1401.14 1537.07 Q1398.47 1536.44 1395.6 1536.44 Q1391.24 1536.44 1389.05 1537.77 Q1386.88 1539.11 1386.88 1541.79 Q1386.88 1543.82 1388.44 1545 Q1390 1546.15 1394.71 1547.2 L1396.72 1547.64 Q1402.96 1548.98 1405.57 1551.43 Q1408.21 1553.85 1408.21 1558.21 Q1408.21 1563.17 1404.26 1566.07 Q1400.35 1568.97 1393.47 1568.97 Q1390.61 1568.97 1387.49 1568.39 Q1384.4 1567.85 1380.96 1566.74 L1380.96 1560.69 Q1384.21 1562.38 1387.36 1563.24 Q1390.51 1564.07 1393.6 1564.07 Q1397.74 1564.07 1399.96 1562.66 Q1402.19 1561.23 1402.19 1558.65 Q1402.19 1556.27 1400.57 1554.99 Q1398.98 1553.72 1393.54 1552.54 L1391.5 1552.07 Q1386.06 1550.92 1383.64 1548.56 Q1381.22 1546.18 1381.22 1542.04 Q1381.22 1537.01 1384.78 1534.27 Q1388.35 1531.54 1394.9 1531.54 Q1398.15 1531.54 1401.02 1532.01 Q1403.88 1532.49 1406.3 1533.45 Z" fill="#000000" fill-rule="nonzero" fill-opacity="1"></path><path clip-path="url(#clip870)" d="M1416.61 1518.58 L1421.7 1518.58 Q1426.48 1526.09 1428.83 1533.29 Q1431.22 1540.48 1431.22 1547.58 Q1431.22 1554.71 1428.83 1561.93 Q1426.48 1569.16 1421.7 1576.64 L1416.61 1576.64 Q1420.84 1569.35 1422.91 1562.16 Q1425.01 1554.93 1425.01 1547.58 Q1425.01 1540.23 1422.91 1533.06 Q1420.84 1525.9 1416.61 1518.58 Z" fill="#000000" fill-rule="nonzero" fill-opacity="1"></path><polyline clip-path="url(#clip873)" style="stroke:#000000; stroke-linecap:round; stroke-linejoin:round; stroke-width:2; stroke-opacity:0.1; fill:none" points="1052.42,1384.24 1550.36,1384.24 "></polyline>
<polyline clip-path="url(#clip873)" style="stroke:#000000; stroke-linecap:round; stroke-linejoin:round; stroke-width:2; stroke-opacity:0.1; fill:none" points="1052.42,1059.73 1550.36,1059.73 "></polyline>
<polyline clip-path="url(#clip873)" style="stroke:#000000; stroke-linecap:round; stroke-linejoin:round; stroke-width:2; stroke-opacity:0.1; fill:none" points="1052.42,735.212 1550.36,735.212 "></polyline>
<polyline clip-path="url(#clip873)" style="stroke:#000000; stroke-linecap:round; stroke-linejoin:round; stroke-width:2; stroke-opacity:0.1; fill:none" points="1052.42,410.699 1550.36,410.699 "></polyline>
<polyline clip-path="url(#clip873)" style="stroke:#000000; stroke-linecap:round; stroke-linejoin:round; stroke-width:2; stroke-opacity:0.1; fill:none" points="1052.42,86.1857 1550.36,86.1857 "></polyline>
<polyline clip-path="url(#clip870)" style="stroke:#000000; stroke-linecap:round; stroke-linejoin:round; stroke-width:4; stroke-opacity:1; fill:none" points="1052.42,1423.18 1052.42,47.2441 "></polyline>
<polyline clip-path="url(#clip870)" style="stroke:#000000; stroke-linecap:round; stroke-linejoin:round; stroke-width:4; stroke-opacity:1; fill:none" points="1052.42,1384.24 1071.32,1384.24 "></polyline>
<polyline clip-path="url(#clip870)" style="stroke:#000000; stroke-linecap:round; stroke-linejoin:round; stroke-width:4; stroke-opacity:1; fill:none" points="1052.42,1059.73 1071.32,1059.73 "></polyline>
<polyline clip-path="url(#clip870)" style="stroke:#000000; stroke-linecap:round; stroke-linejoin:round; stroke-width:4; stroke-opacity:1; fill:none" points="1052.42,735.212 1071.32,735.212 "></polyline>
<polyline clip-path="url(#clip870)" style="stroke:#000000; stroke-linecap:round; stroke-linejoin:round; stroke-width:4; stroke-opacity:1; fill:none" points="1052.42,410.699 1071.32,410.699 "></polyline>
<polyline clip-path="url(#clip870)" style="stroke:#000000; stroke-linecap:round; stroke-linejoin:round; stroke-width:4; stroke-opacity:1; fill:none" points="1052.42,86.1857 1071.32,86.1857 "></polyline>
<path clip-path="url(#clip870)" d="M929.083 1370.04 Q925.472 1370.04 923.643 1373.6 Q921.837 1377.14 921.837 1384.27 Q921.837 1391.38 923.643 1394.94 Q925.472 1398.49 929.083 1398.49 Q932.717 1398.49 934.522 1394.94 Q936.351 1391.38 936.351 1384.27 Q936.351 1377.14 934.522 1373.6 Q932.717 1370.04 929.083 1370.04 M929.083 1366.33 Q934.893 1366.33 937.948 1370.94 Q941.027 1375.52 941.027 1384.27 Q941.027 1393 937.948 1397.61 Q934.893 1402.19 929.083 1402.19 Q923.272 1402.19 920.194 1397.61 Q917.138 1393 917.138 1384.27 Q917.138 1375.52 920.194 1370.94 Q923.272 1366.33 929.083 1366.33 Z" fill="#000000" fill-rule="nonzero" fill-opacity="1"></path><path clip-path="url(#clip870)" d="M949.245 1395.64 L954.129 1395.64 L954.129 1401.52 L949.245 1401.52 L949.245 1395.64 Z" fill="#000000" fill-rule="nonzero" fill-opacity="1"></path><path clip-path="url(#clip870)" d="M974.314 1370.04 Q970.703 1370.04 968.874 1373.6 Q967.069 1377.14 967.069 1384.27 Q967.069 1391.38 968.874 1394.94 Q970.703 1398.49 974.314 1398.49 Q977.948 1398.49 979.754 1394.94 Q981.582 1391.38 981.582 1384.27 Q981.582 1377.14 979.754 1373.6 Q977.948 1370.04 974.314 1370.04 M974.314 1366.33 Q980.124 1366.33 983.18 1370.94 Q986.258 1375.52 986.258 1384.27 Q986.258 1393 983.18 1397.61 Q980.124 1402.19 974.314 1402.19 Q968.504 1402.19 965.425 1397.61 Q962.369 1393 962.369 1384.27 Q962.369 1375.52 965.425 1370.94 Q968.504 1366.33 974.314 1366.33 Z" fill="#000000" fill-rule="nonzero" fill-opacity="1"></path><path clip-path="url(#clip870)" d="M1004.48 1370.04 Q1000.86 1370.04 999.036 1373.6 Q997.23 1377.14 997.23 1384.27 Q997.23 1391.38 999.036 1394.94 Q1000.86 1398.49 1004.48 1398.49 Q1008.11 1398.49 1009.92 1394.94 Q1011.74 1391.38 1011.74 1384.27 Q1011.74 1377.14 1009.92 1373.6 Q1008.11 1370.04 1004.48 1370.04 M1004.48 1366.33 Q1010.29 1366.33 1013.34 1370.94 Q1016.42 1375.52 1016.42 1384.27 Q1016.42 1393 1013.34 1397.61 Q1010.29 1402.19 1004.48 1402.19 Q998.666 1402.19 995.587 1397.61 Q992.531 1393 992.531 1384.27 Q992.531 1375.52 995.587 1370.94 Q998.666 1366.33 1004.48 1366.33 Z" fill="#000000" fill-rule="nonzero" fill-opacity="1"></path><path clip-path="url(#clip870)" d="M930.078 1045.52 Q926.467 1045.52 924.638 1049.09 Q922.833 1052.63 922.833 1059.76 Q922.833 1066.87 924.638 1070.43 Q926.467 1073.97 930.078 1073.97 Q933.712 1073.97 935.518 1070.43 Q937.346 1066.87 937.346 1059.76 Q937.346 1052.63 935.518 1049.09 Q933.712 1045.52 930.078 1045.52 M930.078 1041.82 Q935.888 1041.82 938.944 1046.43 Q942.022 1051.01 942.022 1059.76 Q942.022 1068.49 938.944 1073.09 Q935.888 1077.68 930.078 1077.68 Q924.268 1077.68 921.189 1073.09 Q918.134 1068.49 918.134 1059.76 Q918.134 1051.01 921.189 1046.43 Q924.268 1041.82 930.078 1041.82 Z" fill="#000000" fill-rule="nonzero" fill-opacity="1"></path><path clip-path="url(#clip870)" d="M950.24 1071.13 L955.124 1071.13 L955.124 1077.01 L950.24 1077.01 L950.24 1071.13 Z" fill="#000000" fill-rule="nonzero" fill-opacity="1"></path><path clip-path="url(#clip870)" d="M969.337 1073.07 L985.656 1073.07 L985.656 1077.01 L963.712 1077.01 L963.712 1073.07 Q966.374 1070.32 970.957 1065.69 Q975.564 1061.03 976.744 1059.69 Q978.99 1057.17 979.869 1055.43 Q980.772 1053.67 980.772 1051.98 Q980.772 1049.23 978.828 1047.49 Q976.906 1045.76 973.805 1045.76 Q971.606 1045.76 969.152 1046.52 Q966.721 1047.28 963.944 1048.83 L963.944 1044.11 Q966.768 1042.98 969.221 1042.4 Q971.675 1041.82 973.712 1041.82 Q979.082 1041.82 982.277 1044.51 Q985.471 1047.19 985.471 1051.68 Q985.471 1053.81 984.661 1055.73 Q983.874 1057.63 981.768 1060.22 Q981.189 1060.89 978.087 1064.11 Q974.985 1067.31 969.337 1073.07 Z" fill="#000000" fill-rule="nonzero" fill-opacity="1"></path><path clip-path="url(#clip870)" d="M995.517 1042.45 L1013.87 1042.45 L1013.87 1046.38 L999.8 1046.38 L999.8 1054.85 Q1000.82 1054.51 1001.84 1054.34 Q1002.86 1054.16 1003.87 1054.16 Q1009.66 1054.16 1013.04 1057.33 Q1016.42 1060.5 1016.42 1065.92 Q1016.42 1071.5 1012.95 1074.6 Q1009.48 1077.68 1003.16 1077.68 Q1000.98 1077.68 998.712 1077.31 Q996.467 1076.94 994.059 1076.19 L994.059 1071.5 Q996.142 1072.63 998.365 1073.19 Q1000.59 1073.74 1003.06 1073.74 Q1007.07 1073.74 1009.41 1071.63 Q1011.74 1069.53 1011.74 1065.92 Q1011.74 1062.31 1009.41 1060.2 Q1007.07 1058.09 1003.06 1058.09 Q1001.19 1058.09 999.314 1058.51 Q997.462 1058.93 995.517 1059.81 L995.517 1042.45 Z" fill="#000000" fill-rule="nonzero" fill-opacity="1"></path><path clip-path="url(#clip870)" d="M929.083 721.011 Q925.472 721.011 923.643 724.575 Q921.837 728.117 921.837 735.247 Q921.837 742.353 923.643 745.918 Q925.472 749.46 929.083 749.46 Q932.717 749.46 934.522 745.918 Q936.351 742.353 936.351 735.247 Q936.351 728.117 934.522 724.575 Q932.717 721.011 929.083 721.011 M929.083 717.307 Q934.893 717.307 937.948 721.913 Q941.027 726.497 941.027 735.247 Q941.027 743.973 937.948 748.58 Q934.893 753.163 929.083 753.163 Q923.272 753.163 920.194 748.58 Q917.138 743.973 917.138 735.247 Q917.138 726.497 920.194 721.913 Q923.272 717.307 929.083 717.307 Z" fill="#000000" fill-rule="nonzero" fill-opacity="1"></path><path clip-path="url(#clip870)" d="M949.245 746.612 L954.129 746.612 L954.129 752.492 L949.245 752.492 L949.245 746.612 Z" fill="#000000" fill-rule="nonzero" fill-opacity="1"></path><path clip-path="url(#clip870)" d="M964.36 717.932 L982.717 717.932 L982.717 721.867 L968.643 721.867 L968.643 730.339 Q969.661 729.992 970.68 729.83 Q971.698 729.645 972.717 729.645 Q978.504 729.645 981.883 732.816 Q985.263 735.987 985.263 741.404 Q985.263 746.983 981.791 750.085 Q978.318 753.163 971.999 753.163 Q969.823 753.163 967.555 752.793 Q965.309 752.423 962.902 751.682 L962.902 746.983 Q964.985 748.117 967.207 748.673 Q969.43 749.228 971.906 749.228 Q975.911 749.228 978.249 747.122 Q980.587 745.015 980.587 741.404 Q980.587 737.793 978.249 735.687 Q975.911 733.58 971.906 733.58 Q970.031 733.58 968.156 733.997 Q966.305 734.413 964.36 735.293 L964.36 717.932 Z" fill="#000000" fill-rule="nonzero" fill-opacity="1"></path><path clip-path="url(#clip870)" d="M1004.48 721.011 Q1000.86 721.011 999.036 724.575 Q997.23 728.117 997.23 735.247 Q997.23 742.353 999.036 745.918 Q1000.86 749.46 1004.48 749.46 Q1008.11 749.46 1009.92 745.918 Q1011.74 742.353 1011.74 735.247 Q1011.74 728.117 1009.92 724.575 Q1008.11 721.011 1004.48 721.011 M1004.48 717.307 Q1010.29 717.307 1013.34 721.913 Q1016.42 726.497 1016.42 735.247 Q1016.42 743.973 1013.34 748.58 Q1010.29 753.163 1004.48 753.163 Q998.666 753.163 995.587 748.58 Q992.531 743.973 992.531 735.247 Q992.531 726.497 995.587 721.913 Q998.666 717.307 1004.48 717.307 Z" fill="#000000" fill-rule="nonzero" fill-opacity="1"></path><path clip-path="url(#clip870)" d="M930.078 396.498 Q926.467 396.498 924.638 400.062 Q922.833 403.604 922.833 410.734 Q922.833 417.84 924.638 421.405 Q926.467 424.946 930.078 424.946 Q933.712 424.946 935.518 421.405 Q937.346 417.84 937.346 410.734 Q937.346 403.604 935.518 400.062 Q933.712 396.498 930.078 396.498 M930.078 392.794 Q935.888 392.794 938.944 397.4 Q942.022 401.984 942.022 410.734 Q942.022 419.46 938.944 424.067 Q935.888 428.65 930.078 428.65 Q924.268 428.65 921.189 424.067 Q918.134 419.46 918.134 410.734 Q918.134 401.984 921.189 397.4 Q924.268 392.794 930.078 392.794 Z" fill="#000000" fill-rule="nonzero" fill-opacity="1"></path><path clip-path="url(#clip870)" d="M950.24 422.099 L955.124 422.099 L955.124 427.979 L950.24 427.979 L950.24 422.099 Z" fill="#000000" fill-rule="nonzero" fill-opacity="1"></path><path clip-path="url(#clip870)" d="M964.129 393.419 L986.351 393.419 L986.351 395.41 L973.805 427.979 L968.92 427.979 L980.726 397.354 L964.129 397.354 L964.129 393.419 Z" fill="#000000" fill-rule="nonzero" fill-opacity="1"></path><path clip-path="url(#clip870)" d="M995.517 393.419 L1013.87 393.419 L1013.87 397.354 L999.8 397.354 L999.8 405.826 Q1000.82 405.479 1001.84 405.317 Q1002.86 405.132 1003.87 405.132 Q1009.66 405.132 1013.04 408.303 Q1016.42 411.474 1016.42 416.891 Q1016.42 422.47 1012.95 425.571 Q1009.48 428.65 1003.16 428.65 Q1000.98 428.65 998.712 428.28 Q996.467 427.909 994.059 427.169 L994.059 422.47 Q996.142 423.604 998.365 424.159 Q1000.59 424.715 1003.06 424.715 Q1007.07 424.715 1009.41 422.608 Q1011.74 420.502 1011.74 416.891 Q1011.74 413.28 1009.41 411.173 Q1007.07 409.067 1003.06 409.067 Q1001.19 409.067 999.314 409.484 Q997.462 409.9 995.517 410.78 L995.517 393.419 Z" fill="#000000" fill-rule="nonzero" fill-opacity="1"></path><path clip-path="url(#clip870)" d="M919.893 99.5305 L927.532 99.5305 L927.532 73.1649 L919.222 74.8316 L919.222 70.5723 L927.485 68.9057 L932.161 68.9057 L932.161 99.5305 L939.8 99.5305 L939.8 103.466 L919.893 103.466 L919.893 99.5305 Z" fill="#000000" fill-rule="nonzero" fill-opacity="1"></path><path clip-path="url(#clip870)" d="M949.245 97.5861 L954.129 97.5861 L954.129 103.466 L949.245 103.466 L949.245 97.5861 Z" fill="#000000" fill-rule="nonzero" fill-opacity="1"></path><path clip-path="url(#clip870)" d="M974.314 71.9844 Q970.703 71.9844 968.874 75.5492 Q967.069 79.0908 967.069 86.2204 Q967.069 93.3268 968.874 96.8916 Q970.703 100.433 974.314 100.433 Q977.948 100.433 979.754 96.8916 Q981.582 93.3268 981.582 86.2204 Q981.582 79.0908 979.754 75.5492 Q977.948 71.9844 974.314 71.9844 M974.314 68.2807 Q980.124 68.2807 983.18 72.8871 Q986.258 77.4704 986.258 86.2204 Q986.258 94.9472 983.18 99.5537 Q980.124 104.137 974.314 104.137 Q968.504 104.137 965.425 99.5537 Q962.369 94.9472 962.369 86.2204 Q962.369 77.4704 965.425 72.8871 Q968.504 68.2807 974.314 68.2807 Z" fill="#000000" fill-rule="nonzero" fill-opacity="1"></path><path clip-path="url(#clip870)" d="M1004.48 71.9844 Q1000.86 71.9844 999.036 75.5492 Q997.23 79.0908 997.23 86.2204 Q997.23 93.3268 999.036 96.8916 Q1000.86 100.433 1004.48 100.433 Q1008.11 100.433 1009.92 96.8916 Q1011.74 93.3268 1011.74 86.2204 Q1011.74 79.0908 1009.92 75.5492 Q1008.11 71.9844 1004.48 71.9844 M1004.48 68.2807 Q1010.29 68.2807 1013.34 72.8871 Q1016.42 77.4704 1016.42 86.2204 Q1016.42 94.9472 1013.34 99.5537 Q1010.29 104.137 1004.48 104.137 Q998.666 104.137 995.587 99.5537 Q992.531 94.9472 992.531 86.2204 Q992.531 77.4704 995.587 72.8871 Q998.666 68.2807 1004.48 68.2807 Z" fill="#000000" fill-rule="nonzero" fill-opacity="1"></path><path clip-path="url(#clip870)" d="M848.122 736.561 Q852.276 737.398 854.66 738.525 Q858.299 740.361 858.299 743.421 Q858.299 745.546 857.107 747.156 Q855.884 748.734 853.855 749.282 Q854.66 749.894 855.207 750.441 Q855.755 750.957 856.592 751.955 Q857.397 752.953 857.848 754.306 Q858.299 755.627 858.299 757.14 Q858.299 758.3 858.074 759.362 Q857.88 760.425 857.333 761.552 Q856.753 762.647 855.884 763.453 Q855.014 764.226 853.597 764.741 Q852.18 765.256 850.376 765.256 Q848.122 765.256 845.062 764.387 Q842.003 763.485 836.528 761.424 Q833.629 760.296 832.019 760.296 Q831.278 760.296 830.795 760.457 Q830.312 760.618 830.151 760.941 Q829.958 761.23 829.926 761.424 Q829.861 761.617 829.861 761.939 Q829.861 763.936 831.89 765.675 Q833.919 767.414 838.042 768.606 Q838.847 768.863 839.04 769.024 Q839.233 769.185 839.233 769.668 Q839.201 770.473 838.557 770.473 Q838.299 770.473 837.301 770.184 Q836.27 769.894 834.757 769.217 Q833.211 768.509 831.826 767.543 Q830.409 766.577 829.41 765.063 Q828.412 763.517 828.412 761.746 Q828.412 759.33 829.99 757.849 Q831.536 756.335 833.823 756.335 Q835.24 756.335 837.977 757.462 Q847.478 761.037 851.439 761.037 Q856.818 761.037 856.818 756.947 Q856.818 755.594 856.27 754.338 Q855.723 753.05 854.95 752.213 Q854.177 751.375 853.339 750.731 Q852.502 750.055 851.954 749.765 Q851.407 749.443 851.278 749.411 L831.439 744.483 Q830.666 744.29 830.151 743.936 Q829.604 743.549 829.41 743.098 Q829.217 742.648 829.185 742.39 Q829.12 742.132 829.12 741.907 Q829.12 741.102 829.604 740.554 Q830.087 739.975 830.924 739.975 Q831.085 739.975 831.858 740.168 Q832.599 740.329 833.694 740.586 Q834.757 740.844 835.336 740.973 Q839.394 742.003 839.813 742.1 L846.93 743.936 Q847.349 744.032 848.702 744.354 Q850.054 744.644 850.763 744.805 Q851.439 744.966 852.373 745.127 Q853.275 745.256 853.79 745.256 Q855.4 745.256 856.109 744.773 Q856.818 744.29 856.818 743.227 Q856.818 742.229 856.141 741.456 Q855.433 740.651 854.08 740.039 Q852.695 739.427 851.568 739.073 Q850.441 738.718 848.669 738.268 Q847.897 738.107 847.703 737.978 Q847.478 737.817 847.478 737.366 Q847.478 736.561 848.122 736.561 Z" fill="#000000" fill-rule="nonzero" fill-opacity="1"></path><path clip-path="url(#clip870)" d="M850.215 729.855 L848.772 729.855 Q848.772 724.309 845.819 721.446 Q845.819 720.657 845.999 720.522 Q846.18 720.387 847.014 720.387 L872.917 720.387 Q874.292 720.387 874.721 719.71 Q875.149 719.034 875.149 716.081 L875.149 714.616 L876.569 714.616 Q876.434 716.239 876.434 722.1 Q876.434 727.962 876.569 729.562 L875.149 729.562 L875.149 728.097 Q875.149 725.189 874.743 724.49 Q874.315 723.791 872.917 723.791 L848.998 723.791 Q850.215 726.203 850.215 729.855 Z" fill="#000000" fill-rule="nonzero" fill-opacity="1"></path><polyline clip-path="url(#clip873)" style="stroke:#009af9; stroke-linecap:round; stroke-linejoin:round; stroke-width:4; stroke-opacity:1; fill:none" points="1066.51,1384.24 1086.09,1384.24 1105.66,1384.24 1105.66,873.02 1125.23,873.02 1125.23,435.564 1144.81,435.564 1144.81,227.833 1164.38,227.833 1164.38,165.588 1183.95,165.588 1183.95,155.027 1203.53,155.027 1203.53,152.139 1223.1,152.139 1223.1,146.408 1242.67,146.408 1242.67,138.778 1262.25,138.778 1262.25,131.297 1281.82,131.297 1281.82,124.813 1301.39,124.813 1301.39,119.361 1320.97,119.361 1320.97,114.747 1340.54,114.747 1340.54,110.796 1360.11,110.796 1360.11,107.392 1379.69,107.392 1379.69,104.455 1399.26,104.455 1399.26,101.923 1418.83,101.923 1418.83,99.7414 1438.4,99.7414 1438.4,97.8623 1457.98,97.8623 1457.98,96.2438 1477.55,96.2438 1477.55,94.8497 1497.12,94.8497 1497.12,93.6488 1516.7,93.6488 1516.7,92.6144 1536.27,92.6144 1536.27,91.7234 "></polyline>
<polyline clip-path="url(#clip873)" style="stroke:#ac8d18; stroke-linecap:round; stroke-linejoin:round; stroke-width:6; stroke-opacity:1; fill:none" stroke-dasharray="3, 6" points="1066.51,86.1857 1086.09,86.1857 1105.66,86.1857 1125.23,86.1857 1144.81,86.1857 1164.38,86.1857 1183.95,86.1857 1203.53,86.1857 1223.1,86.1857 1242.67,86.1857 1262.25,86.1857 1281.82,86.1857 1301.39,86.1857 1320.97,86.1857 1340.54,86.1857 1360.11,86.1857 1379.69,86.1857 1399.26,86.1857 1418.83,86.1857 1438.4,86.1857 1457.98,86.1857 1477.55,86.1857 1497.12,86.1857 1516.7,86.1857 1536.27,86.1857 "></polyline>
<path clip-path="url(#clip870)" d="M1376.47 1377.32 L1533.77 1377.32 L1533.77 1221.8 L1376.47 1221.8  Z" fill="#ffffff" fill-rule="evenodd" fill-opacity="1"></path>
<polyline clip-path="url(#clip870)" style="stroke:#000000; stroke-linecap:round; stroke-linejoin:round; stroke-width:4; stroke-opacity:1; fill:none" points="1376.47,1377.32 1533.77,1377.32 1533.77,1221.8 1376.47,1221.8 1376.47,1377.32 "></polyline>
<polyline clip-path="url(#clip870)" style="stroke:#009af9; stroke-linecap:round; stroke-linejoin:round; stroke-width:4; stroke-opacity:1; fill:none" points="1382,1273.64 1415.19,1273.64 "></polyline>
<path clip-path="url(#clip870)" d="M1448.08 1284.19 L1439.58 1284.47 L1439.58 1280.75 Q1437.4 1284.47 1432.67 1284.47 Q1430.73 1284.47 1429.28 1284.21 Q1427.85 1283.96 1426.58 1283.32 Q1425.34 1282.67 1424.69 1281.4 Q1424.03 1280.14 1424.03 1278.29 L1424.03 1267.12 Q1424.03 1265.76 1423.54 1265.5 Q1423.05 1265.24 1420.73 1265.24 L1420.73 1262.99 L1429.51 1262.59 L1429.51 1278.97 Q1429.51 1280.11 1429.58 1280.7 Q1429.67 1281.26 1430.03 1281.82 Q1430.4 1282.36 1431.2 1282.57 Q1431.99 1282.76 1433.35 1282.76 Q1436 1282.76 1437.64 1280.98 Q1439.3 1279.2 1439.3 1276.27 L1439.3 1267.12 Q1439.3 1265.76 1438.79 1265.5 Q1438.29 1265.24 1435.97 1265.24 L1435.97 1262.99 L1444.76 1262.59 L1444.76 1280.07 Q1444.76 1281.43 1445.25 1281.68 Q1445.77 1281.94 1448.08 1281.94 L1448.08 1284.19 Z" fill="#000000" fill-rule="nonzero" fill-opacity="1"></path><polyline clip-path="url(#clip870)" style="stroke:#ac8d18; stroke-linecap:round; stroke-linejoin:round; stroke-width:6; stroke-opacity:1; fill:none" stroke-dasharray="3, 6" points="1382,1325.48 1415.19,1325.48 "></polyline>
<path clip-path="url(#clip870)" d="M1448.08 1331.41 L1439.58 1331.69 L1439.58 1327.97 Q1437.4 1331.69 1432.67 1331.69 Q1430.73 1331.69 1429.28 1331.43 Q1427.85 1331.18 1426.58 1330.54 Q1425.34 1329.89 1424.69 1328.62 Q1424.03 1327.36 1424.03 1325.51 L1424.03 1314.34 Q1424.03 1312.98 1423.54 1312.72 Q1423.05 1312.46 1420.73 1312.46 L1420.73 1310.21 L1429.51 1309.81 L1429.51 1326.19 Q1429.51 1327.33 1429.58 1327.92 Q1429.67 1328.48 1430.03 1329.04 Q1430.4 1329.58 1431.2 1329.79 Q1431.99 1329.98 1433.35 1329.98 Q1436 1329.98 1437.64 1328.2 Q1439.3 1326.42 1439.3 1323.49 L1439.3 1314.34 Q1439.3 1312.98 1438.79 1312.72 Q1438.29 1312.46 1435.97 1312.46 L1435.97 1310.21 L1444.76 1309.81 L1444.76 1327.29 Q1444.76 1328.65 1445.25 1328.9 Q1445.77 1329.16 1448.08 1329.16 L1448.08 1331.41 Z" fill="#000000" fill-rule="nonzero" fill-opacity="1"></path><path clip-path="url(#clip870)" d="M1482.81 1340.73 L1478.58 1340.64 L1474.35 1340.73 L1474.35 1339.16 L1476.67 1339.16 L1476.67 1330.09 Q1476.67 1328.26 1476.19 1327.55 Q1475.72 1326.83 1474.78 1326.83 Q1473.96 1326.83 1473.11 1327.16 Q1472.27 1327.49 1471.5 1328.11 Q1470.75 1328.73 1470.26 1329.78 Q1469.78 1330.83 1469.78 1332.14 L1469.78 1339.16 L1472.11 1339.16 L1472.11 1340.73 L1467.88 1340.64 L1463.63 1340.73 L1463.63 1339.16 L1465.96 1339.16 L1465.96 1330.09 Q1465.96 1328.26 1465.48 1327.55 Q1465.01 1326.83 1464.07 1326.83 Q1463.25 1326.83 1462.4 1327.16 Q1461.57 1327.49 1460.79 1328.11 Q1460.04 1328.73 1459.55 1329.78 Q1459.07 1330.83 1459.07 1332.14 L1459.07 1339.16 L1461.39 1339.16 L1461.39 1340.73 L1457.16 1340.64 L1452.92 1340.73 L1452.92 1339.16 L1455.24 1339.16 L1455.24 1328.78 Q1455.24 1327.83 1454.89 1327.65 Q1454.55 1327.47 1452.92 1327.47 L1452.92 1325.9 L1458.7 1325.62 L1458.7 1329.26 Q1459.57 1327.57 1461.04 1326.6 Q1462.53 1325.62 1464.62 1325.62 Q1468.94 1325.62 1469.65 1328.85 Q1470.42 1327.49 1471.83 1326.55 Q1473.24 1325.62 1475.32 1325.62 Q1477.96 1325.62 1479.22 1326.77 Q1480.5 1327.9 1480.5 1330.45 L1480.5 1339.16 L1482.81 1339.16 L1482.81 1340.73 Z" fill="#000000" fill-rule="nonzero" fill-opacity="1"></path><path clip-path="url(#clip870)" d="M1502.84 1339.93 Q1502.84 1340.23 1502.77 1340.41 Q1502.71 1340.57 1502.53 1340.64 Q1502.36 1340.7 1502.22 1340.72 Q1502.07 1340.73 1501.76 1340.73 L1500.15 1340.73 Q1499.15 1340.73 1498.45 1340.55 Q1497.76 1340.36 1497.41 1340.13 Q1497.07 1339.9 1496.89 1339.49 Q1496.71 1339.08 1496.68 1338.83 Q1496.66 1338.57 1496.66 1338.14 Q1496.04 1339.34 1494.77 1340.14 Q1493.53 1340.93 1491.66 1340.93 Q1490.87 1340.93 1490.08 1340.85 Q1489.3 1340.77 1488.38 1340.52 Q1487.46 1340.26 1486.77 1339.87 Q1486.08 1339.46 1485.62 1338.75 Q1485.17 1338.03 1485.17 1337.11 Q1485.17 1332.29 1496.09 1331.83 L1496.09 1330.7 Q1496.09 1326.73 1492.4 1326.73 Q1491.05 1326.73 1489.97 1326.96 Q1490.07 1327.03 1490.22 1327.19 Q1490.36 1327.36 1490.53 1327.77 Q1490.71 1328.18 1490.71 1328.62 Q1490.71 1329.62 1490.07 1330.18 Q1489.45 1330.73 1488.59 1330.73 Q1487.81 1330.73 1487.15 1330.19 Q1486.51 1329.63 1486.51 1328.62 Q1486.51 1325.52 1492.53 1325.52 Q1496.15 1325.52 1498.02 1326.95 Q1499.91 1328.36 1499.91 1330.7 L1499.91 1337.91 Q1499.91 1338.28 1499.94 1338.44 Q1499.97 1338.6 1500.15 1338.8 Q1500.33 1339 1500.76 1339.08 Q1501.2 1339.14 1501.95 1339.16 Q1502.25 1339.16 1502.4 1339.19 Q1502.55 1339.21 1502.69 1339.39 Q1502.84 1339.57 1502.84 1339.93 M1496.09 1336.06 L1496.09 1332.88 Q1495.51 1332.91 1494.97 1332.98 Q1494.43 1333.04 1493.54 1333.21 Q1492.66 1333.36 1491.94 1333.67 Q1491.23 1333.96 1490.54 1334.41 Q1489.87 1334.83 1489.48 1335.52 Q1489.1 1336.21 1489.1 1337.08 Q1489.1 1338.19 1489.99 1338.96 Q1490.87 1339.73 1492.15 1339.73 Q1492.48 1339.73 1492.89 1339.67 Q1493.3 1339.6 1493.89 1339.37 Q1494.48 1339.13 1494.94 1338.75 Q1495.41 1338.37 1495.74 1337.68 Q1496.09 1336.98 1496.09 1336.06 Z" fill="#000000" fill-rule="nonzero" fill-opacity="1"></path><path clip-path="url(#clip870)" d="M1521.84 1340.73 L1518.15 1340.64 L1514.11 1340.73 L1514.11 1339.16 L1515.43 1339.16 L1511.74 1334.8 L1508.47 1338.46 L1508.24 1338.78 Q1508.24 1338.93 1508.62 1339.05 Q1509.02 1339.16 1509.47 1339.16 L1509.47 1340.73 L1506.01 1340.64 L1502.93 1340.73 L1502.93 1339.16 Q1503.97 1339.16 1504.44 1339.14 Q1504.93 1339.11 1505.49 1338.96 Q1506.05 1338.82 1506.33 1338.52 L1510.72 1333.59 L1505.49 1327.4 L1503.1 1327.4 L1503.1 1325.83 L1506.8 1325.93 L1510.85 1325.83 L1510.85 1327.4 L1509.51 1327.4 L1512.8 1331.26 L1515.62 1328.11 Q1515.64 1328.09 1515.9 1327.7 Q1515.38 1327.4 1514.62 1327.4 L1514.62 1325.83 L1518.08 1325.93 L1521.16 1325.83 L1521.16 1327.4 Q1519.82 1327.4 1519.12 1327.5 Q1518.43 1327.59 1518.21 1327.7 Q1518.02 1327.81 1517.74 1328.11 L1513.82 1332.47 L1519.46 1339.16 L1521.84 1339.16 L1521.84 1340.73 Z" fill="#000000" fill-rule="nonzero" fill-opacity="1"></path><path clip-path="url(#clip870)" d="M1854.81 1423.18 L2352.76 1423.18 L2352.76 47.2441 L1854.81 47.2441  Z" fill="#ffffff" fill-rule="evenodd" fill-opacity="1"></path>
<defs>
  <clipPath id="clip874">
    <rect x="1854" y="47" width="499" height="1377"></rect>
  </clipPath>
</defs>
<polyline clip-path="url(#clip874)" style="stroke:#000000; stroke-linecap:round; stroke-linejoin:round; stroke-width:2; stroke-opacity:0.1; fill:none" points="1868.9,1423.18 1868.9,47.2441 "></polyline>
<polyline clip-path="url(#clip874)" style="stroke:#000000; stroke-linecap:round; stroke-linejoin:round; stroke-width:2; stroke-opacity:0.1; fill:none" points="1966.77,1423.18 1966.77,47.2441 "></polyline>
<polyline clip-path="url(#clip874)" style="stroke:#000000; stroke-linecap:round; stroke-linejoin:round; stroke-width:2; stroke-opacity:0.1; fill:none" points="2064.64,1423.18 2064.64,47.2441 "></polyline>
<polyline clip-path="url(#clip874)" style="stroke:#000000; stroke-linecap:round; stroke-linejoin:round; stroke-width:2; stroke-opacity:0.1; fill:none" points="2162.5,1423.18 2162.5,47.2441 "></polyline>
<polyline clip-path="url(#clip874)" style="stroke:#000000; stroke-linecap:round; stroke-linejoin:round; stroke-width:2; stroke-opacity:0.1; fill:none" points="2260.37,1423.18 2260.37,47.2441 "></polyline>
<polyline clip-path="url(#clip870)" style="stroke:#000000; stroke-linecap:round; stroke-linejoin:round; stroke-width:4; stroke-opacity:1; fill:none" points="1854.81,1423.18 2352.76,1423.18 "></polyline>
<polyline clip-path="url(#clip870)" style="stroke:#000000; stroke-linecap:round; stroke-linejoin:round; stroke-width:4; stroke-opacity:1; fill:none" points="1868.9,1423.18 1868.9,1404.28 "></polyline>
<polyline clip-path="url(#clip870)" style="stroke:#000000; stroke-linecap:round; stroke-linejoin:round; stroke-width:4; stroke-opacity:1; fill:none" points="1966.77,1423.18 1966.77,1404.28 "></polyline>
<polyline clip-path="url(#clip870)" style="stroke:#000000; stroke-linecap:round; stroke-linejoin:round; stroke-width:4; stroke-opacity:1; fill:none" points="2064.64,1423.18 2064.64,1404.28 "></polyline>
<polyline clip-path="url(#clip870)" style="stroke:#000000; stroke-linecap:round; stroke-linejoin:round; stroke-width:4; stroke-opacity:1; fill:none" points="2162.5,1423.18 2162.5,1404.28 "></polyline>
<polyline clip-path="url(#clip870)" style="stroke:#000000; stroke-linecap:round; stroke-linejoin:round; stroke-width:4; stroke-opacity:1; fill:none" points="2260.37,1423.18 2260.37,1404.28 "></polyline>
<path clip-path="url(#clip870)" d="M1868.9 1454.1 Q1865.29 1454.1 1863.47 1457.66 Q1861.66 1461.2 1861.66 1468.33 Q1861.66 1475.44 1863.47 1479.01 Q1865.29 1482.55 1868.9 1482.55 Q1872.54 1482.55 1874.34 1479.01 Q1876.17 1475.44 1876.17 1468.33 Q1876.17 1461.2 1874.34 1457.66 Q1872.54 1454.1 1868.9 1454.1 M1868.9 1450.39 Q1874.71 1450.39 1877.77 1455 Q1880.85 1459.58 1880.85 1468.33 Q1880.85 1477.06 1877.77 1481.67 Q1874.71 1486.25 1868.9 1486.25 Q1863.09 1486.25 1860.02 1481.67 Q1856.96 1477.06 1856.96 1468.33 Q1856.96 1459.58 1860.02 1455 Q1863.09 1450.39 1868.9 1450.39 Z" fill="#000000" fill-rule="nonzero" fill-opacity="1"></path><path clip-path="url(#clip870)" d="M1957.05 1451.02 L1975.41 1451.02 L1975.41 1454.96 L1961.33 1454.96 L1961.33 1463.43 Q1962.35 1463.08 1963.37 1462.92 Q1964.39 1462.73 1965.41 1462.73 Q1971.19 1462.73 1974.57 1465.9 Q1977.95 1469.08 1977.95 1474.49 Q1977.95 1480.07 1974.48 1483.17 Q1971.01 1486.25 1964.69 1486.25 Q1962.51 1486.25 1960.24 1485.88 Q1958 1485.51 1955.59 1484.77 L1955.59 1480.07 Q1957.67 1481.2 1959.9 1481.76 Q1962.12 1482.32 1964.6 1482.32 Q1968.6 1482.32 1970.94 1480.21 Q1973.28 1478.1 1973.28 1474.49 Q1973.28 1470.88 1970.94 1468.77 Q1968.6 1466.67 1964.6 1466.67 Q1962.72 1466.67 1960.85 1467.08 Q1958.99 1467.5 1957.05 1468.38 L1957.05 1451.02 Z" fill="#000000" fill-rule="nonzero" fill-opacity="1"></path><path clip-path="url(#clip870)" d="M2039.33 1481.64 L2046.96 1481.64 L2046.96 1455.28 L2038.65 1456.95 L2038.65 1452.69 L2046.92 1451.02 L2051.59 1451.02 L2051.59 1481.64 L2059.23 1481.64 L2059.23 1485.58 L2039.33 1485.58 L2039.33 1481.64 Z" fill="#000000" fill-rule="nonzero" fill-opacity="1"></path><path clip-path="url(#clip870)" d="M2078.68 1454.1 Q2075.07 1454.1 2073.24 1457.66 Q2071.43 1461.2 2071.43 1468.33 Q2071.43 1475.44 2073.24 1479.01 Q2075.07 1482.55 2078.68 1482.55 Q2082.31 1482.55 2084.12 1479.01 Q2085.95 1475.44 2085.95 1468.33 Q2085.95 1461.2 2084.12 1457.66 Q2082.31 1454.1 2078.68 1454.1 M2078.68 1450.39 Q2084.49 1450.39 2087.54 1455 Q2090.62 1459.58 2090.62 1468.33 Q2090.62 1477.06 2087.54 1481.67 Q2084.49 1486.25 2078.68 1486.25 Q2072.87 1486.25 2069.79 1481.67 Q2066.73 1477.06 2066.73 1468.33 Q2066.73 1459.58 2069.79 1455 Q2072.87 1450.39 2078.68 1450.39 Z" fill="#000000" fill-rule="nonzero" fill-opacity="1"></path><path clip-path="url(#clip870)" d="M2137.69 1481.64 L2145.33 1481.64 L2145.33 1455.28 L2137.02 1456.95 L2137.02 1452.69 L2145.28 1451.02 L2149.96 1451.02 L2149.96 1481.64 L2157.6 1481.64 L2157.6 1485.58 L2137.69 1485.58 L2137.69 1481.64 Z" fill="#000000" fill-rule="nonzero" fill-opacity="1"></path><path clip-path="url(#clip870)" d="M2167.09 1451.02 L2185.44 1451.02 L2185.44 1454.96 L2171.37 1454.96 L2171.37 1463.43 Q2172.39 1463.08 2173.41 1462.92 Q2174.43 1462.73 2175.44 1462.73 Q2181.23 1462.73 2184.61 1465.9 Q2187.99 1469.08 2187.99 1474.49 Q2187.99 1480.07 2184.52 1483.17 Q2181.05 1486.25 2174.73 1486.25 Q2172.55 1486.25 2170.28 1485.88 Q2168.04 1485.51 2165.63 1484.77 L2165.63 1480.07 Q2167.71 1481.2 2169.93 1481.76 Q2172.16 1482.32 2174.63 1482.32 Q2178.64 1482.32 2180.98 1480.21 Q2183.31 1478.1 2183.31 1474.49 Q2183.31 1470.88 2180.98 1468.77 Q2178.64 1466.67 2174.63 1466.67 Q2172.76 1466.67 2170.88 1467.08 Q2169.03 1467.5 2167.09 1468.38 L2167.09 1451.02 Z" fill="#000000" fill-rule="nonzero" fill-opacity="1"></path><path clip-path="url(#clip870)" d="M2239.14 1481.64 L2255.46 1481.64 L2255.46 1485.58 L2233.52 1485.58 L2233.52 1481.64 Q2236.18 1478.89 2240.76 1474.26 Q2245.37 1469.61 2246.55 1468.27 Q2248.8 1465.74 2249.68 1464.01 Q2250.58 1462.25 2250.58 1460.56 Q2250.58 1457.8 2248.63 1456.07 Q2246.71 1454.33 2243.61 1454.33 Q2241.41 1454.33 2238.96 1455.09 Q2236.53 1455.86 2233.75 1457.41 L2233.75 1452.69 Q2236.57 1451.55 2239.03 1450.97 Q2241.48 1450.39 2243.52 1450.39 Q2248.89 1450.39 2252.08 1453.08 Q2255.28 1455.77 2255.28 1460.26 Q2255.28 1462.39 2254.47 1464.31 Q2253.68 1466.2 2251.57 1468.8 Q2251 1469.47 2247.89 1472.69 Q2244.79 1475.88 2239.14 1481.64 Z" fill="#000000" fill-rule="nonzero" fill-opacity="1"></path><path clip-path="url(#clip870)" d="M2275.28 1454.1 Q2271.67 1454.1 2269.84 1457.66 Q2268.03 1461.2 2268.03 1468.33 Q2268.03 1475.44 2269.84 1479.01 Q2271.67 1482.55 2275.28 1482.55 Q2278.91 1482.55 2280.72 1479.01 Q2282.55 1475.44 2282.55 1468.33 Q2282.55 1461.2 2280.72 1457.66 Q2278.91 1454.1 2275.28 1454.1 M2275.28 1450.39 Q2281.09 1450.39 2284.14 1455 Q2287.22 1459.58 2287.22 1468.33 Q2287.22 1477.06 2284.14 1481.67 Q2281.09 1486.25 2275.28 1486.25 Q2269.47 1486.25 2266.39 1481.67 Q2263.33 1477.06 2263.33 1468.33 Q2263.33 1459.58 2266.39 1455 Q2269.47 1450.39 2275.28 1450.39 Z" fill="#000000" fill-rule="nonzero" fill-opacity="1"></path><path clip-path="url(#clip870)" d="M1973.96 1520.52 L2014.15 1520.52 L2014.15 1525.93 L1997.29 1525.93 L1997.29 1568.04 L1990.82 1568.04 L1990.82 1525.93 L1973.96 1525.93 L1973.96 1520.52 Z" fill="#000000" fill-rule="nonzero" fill-opacity="1"></path><path clip-path="url(#clip870)" d="M2018.1 1532.4 L2023.96 1532.4 L2023.96 1568.04 L2018.1 1568.04 L2018.1 1532.4 M2018.1 1518.52 L2023.96 1518.52 L2023.96 1525.93 L2018.1 1525.93 L2018.1 1518.52 Z" fill="#000000" fill-rule="nonzero" fill-opacity="1"></path><path clip-path="url(#clip870)" d="M2063.97 1539.24 Q2066.16 1535.29 2069.22 1533.41 Q2072.27 1531.54 2076.41 1531.54 Q2081.98 1531.54 2085.01 1535.45 Q2088.03 1539.33 2088.03 1546.53 L2088.03 1568.04 L2082.14 1568.04 L2082.14 1546.72 Q2082.14 1541.59 2080.33 1539.11 Q2078.51 1536.63 2074.79 1536.63 Q2070.24 1536.63 2067.59 1539.65 Q2064.95 1542.68 2064.95 1547.9 L2064.95 1568.04 L2059.06 1568.04 L2059.06 1546.72 Q2059.06 1541.56 2057.25 1539.11 Q2055.44 1536.63 2051.65 1536.63 Q2047.16 1536.63 2044.52 1539.68 Q2041.88 1542.71 2041.88 1547.9 L2041.88 1568.04 L2035.99 1568.04 L2035.99 1532.4 L2041.88 1532.4 L2041.88 1537.93 Q2043.88 1534.66 2046.68 1533.1 Q2049.48 1531.54 2053.34 1531.54 Q2057.22 1531.54 2059.92 1533.51 Q2062.66 1535.48 2063.97 1539.24 Z" fill="#000000" fill-rule="nonzero" fill-opacity="1"></path><path clip-path="url(#clip870)" d="M2130.2 1548.76 L2130.2 1551.62 L2103.27 1551.62 Q2103.66 1557.67 2106.9 1560.85 Q2110.18 1564 2116.01 1564 Q2119.38 1564 2122.53 1563.17 Q2125.71 1562.35 2128.83 1560.69 L2128.83 1566.23 Q2125.68 1567.57 2122.37 1568.27 Q2119.06 1568.97 2115.66 1568.97 Q2107.13 1568.97 2102.13 1564 Q2097.16 1559.04 2097.16 1550.57 Q2097.16 1541.82 2101.87 1536.69 Q2106.62 1531.54 2114.64 1531.54 Q2121.83 1531.54 2126 1536.18 Q2130.2 1540.8 2130.2 1548.76 M2124.35 1547.04 Q2124.28 1542.23 2121.64 1539.37 Q2119.03 1536.5 2114.7 1536.5 Q2109.8 1536.5 2106.84 1539.27 Q2103.91 1542.04 2103.47 1547.07 L2124.35 1547.04 Z" fill="#000000" fill-rule="nonzero" fill-opacity="1"></path><path clip-path="url(#clip870)" d="M2174.6 1518.58 Q2170.34 1525.9 2168.27 1533.06 Q2166.2 1540.23 2166.2 1547.58 Q2166.2 1554.93 2168.27 1562.16 Q2170.37 1569.35 2174.6 1576.64 L2169.51 1576.64 Q2164.74 1569.16 2162.35 1561.93 Q2159.99 1554.71 2159.99 1547.58 Q2159.99 1540.48 2162.35 1533.29 Q2164.7 1526.09 2169.51 1518.58 L2174.6 1518.58 Z" fill="#000000" fill-rule="nonzero" fill-opacity="1"></path><path clip-path="url(#clip870)" d="M2208.69 1533.45 L2208.69 1538.98 Q2206.21 1537.71 2203.53 1537.07 Q2200.86 1536.44 2198 1536.44 Q2193.64 1536.44 2191.44 1537.77 Q2189.28 1539.11 2189.28 1541.79 Q2189.28 1543.82 2190.84 1545 Q2192.39 1546.15 2197.11 1547.2 L2199.11 1547.64 Q2205.35 1548.98 2207.96 1551.43 Q2210.6 1553.85 2210.6 1558.21 Q2210.6 1563.17 2206.65 1566.07 Q2202.74 1568.97 2195.86 1568.97 Q2193 1568.97 2189.88 1568.39 Q2186.79 1567.85 2183.36 1566.74 L2183.36 1560.69 Q2186.6 1562.38 2189.75 1563.24 Q2192.9 1564.07 2195.99 1564.07 Q2200.13 1564.07 2202.36 1562.66 Q2204.58 1561.23 2204.58 1558.65 Q2204.58 1556.27 2202.96 1554.99 Q2201.37 1553.72 2195.93 1552.54 L2193.89 1552.07 Q2188.45 1550.92 2186.03 1548.56 Q2183.61 1546.18 2183.61 1542.04 Q2183.61 1537.01 2187.17 1534.27 Q2190.74 1531.54 2197.3 1531.54 Q2200.54 1531.54 2203.41 1532.01 Q2206.27 1532.49 2208.69 1533.45 Z" fill="#000000" fill-rule="nonzero" fill-opacity="1"></path><path clip-path="url(#clip870)" d="M2219 1518.58 L2224.1 1518.58 Q2228.87 1526.09 2231.23 1533.29 Q2233.61 1540.48 2233.61 1547.58 Q2233.61 1554.71 2231.23 1561.93 Q2228.87 1569.16 2224.1 1576.64 L2219 1576.64 Q2223.24 1569.35 2225.31 1562.16 Q2227.41 1554.93 2227.41 1547.58 Q2227.41 1540.23 2225.31 1533.06 Q2223.24 1525.9 2219 1518.58 Z" fill="#000000" fill-rule="nonzero" fill-opacity="1"></path><polyline clip-path="url(#clip874)" style="stroke:#000000; stroke-linecap:round; stroke-linejoin:round; stroke-width:2; stroke-opacity:0.1; fill:none" points="1854.81,1094.56 2352.76,1094.56 "></polyline>
<polyline clip-path="url(#clip874)" style="stroke:#000000; stroke-linecap:round; stroke-linejoin:round; stroke-width:2; stroke-opacity:0.1; fill:none" points="1854.81,758.435 2352.76,758.435 "></polyline>
<polyline clip-path="url(#clip874)" style="stroke:#000000; stroke-linecap:round; stroke-linejoin:round; stroke-width:2; stroke-opacity:0.1; fill:none" points="1854.81,422.31 2352.76,422.31 "></polyline>
<polyline clip-path="url(#clip874)" style="stroke:#000000; stroke-linecap:round; stroke-linejoin:round; stroke-width:2; stroke-opacity:0.1; fill:none" points="1854.81,86.1857 2352.76,86.1857 "></polyline>
<polyline clip-path="url(#clip870)" style="stroke:#000000; stroke-linecap:round; stroke-linejoin:round; stroke-width:4; stroke-opacity:1; fill:none" points="1854.81,1423.18 1854.81,47.2441 "></polyline>
<polyline clip-path="url(#clip870)" style="stroke:#000000; stroke-linecap:round; stroke-linejoin:round; stroke-width:4; stroke-opacity:1; fill:none" points="1854.81,1094.56 1873.71,1094.56 "></polyline>
<polyline clip-path="url(#clip870)" style="stroke:#000000; stroke-linecap:round; stroke-linejoin:round; stroke-width:4; stroke-opacity:1; fill:none" points="1854.81,758.435 1873.71,758.435 "></polyline>
<polyline clip-path="url(#clip870)" style="stroke:#000000; stroke-linecap:round; stroke-linejoin:round; stroke-width:4; stroke-opacity:1; fill:none" points="1854.81,422.31 1873.71,422.31 "></polyline>
<polyline clip-path="url(#clip870)" style="stroke:#000000; stroke-linecap:round; stroke-linejoin:round; stroke-width:4; stroke-opacity:1; fill:none" points="1854.81,86.1857 1873.71,86.1857 "></polyline>
<path clip-path="url(#clip870)" d="M1712.86 1095.01 L1742.54 1095.01 L1742.54 1098.95 L1712.86 1098.95 L1712.86 1095.01 Z" fill="#000000" fill-rule="nonzero" fill-opacity="1"></path><path clip-path="url(#clip870)" d="M1753.44 1107.9 L1761.08 1107.9 L1761.08 1081.54 L1752.77 1083.2 L1752.77 1078.95 L1761.03 1077.28 L1765.71 1077.28 L1765.71 1107.9 L1773.35 1107.9 L1773.35 1111.84 L1753.44 1111.84 L1753.44 1107.9 Z" fill="#000000" fill-rule="nonzero" fill-opacity="1"></path><path clip-path="url(#clip870)" d="M1782.79 1105.96 L1787.68 1105.96 L1787.68 1111.84 L1782.79 1111.84 L1782.79 1105.96 Z" fill="#000000" fill-rule="nonzero" fill-opacity="1"></path><path clip-path="url(#clip870)" d="M1797.91 1077.28 L1816.27 1077.28 L1816.27 1081.21 L1802.19 1081.21 L1802.19 1089.69 Q1803.21 1089.34 1804.23 1089.18 Q1805.25 1088.99 1806.27 1088.99 Q1812.05 1088.99 1815.43 1092.16 Q1818.81 1095.33 1818.81 1100.75 Q1818.81 1106.33 1815.34 1109.43 Q1811.87 1112.51 1805.55 1112.51 Q1803.37 1112.51 1801.1 1112.14 Q1798.86 1111.77 1796.45 1111.03 L1796.45 1106.33 Q1798.53 1107.46 1800.76 1108.02 Q1802.98 1108.58 1805.46 1108.58 Q1809.46 1108.58 1811.8 1106.47 Q1814.14 1104.36 1814.14 1100.75 Q1814.14 1097.14 1811.8 1095.03 Q1809.46 1092.93 1805.46 1092.93 Q1803.58 1092.93 1801.71 1093.34 Q1799.85 1093.76 1797.91 1094.64 L1797.91 1077.28 Z" fill="#000000" fill-rule="nonzero" fill-opacity="1"></path><path clip-path="url(#clip870)" d="M1711.87 758.886 L1741.54 758.886 L1741.54 762.821 L1711.87 762.821 L1711.87 758.886 Z" fill="#000000" fill-rule="nonzero" fill-opacity="1"></path><path clip-path="url(#clip870)" d="M1752.45 771.779 L1760.09 771.779 L1760.09 745.414 L1751.78 747.08 L1751.78 742.821 L1760.04 741.155 L1764.72 741.155 L1764.72 771.779 L1772.35 771.779 L1772.35 775.715 L1752.45 775.715 L1752.45 771.779 Z" fill="#000000" fill-rule="nonzero" fill-opacity="1"></path><path clip-path="url(#clip870)" d="M1781.8 769.835 L1786.68 769.835 L1786.68 775.715 L1781.8 775.715 L1781.8 769.835 Z" fill="#000000" fill-rule="nonzero" fill-opacity="1"></path><path clip-path="url(#clip870)" d="M1806.87 744.233 Q1803.26 744.233 1801.43 747.798 Q1799.62 751.34 1799.62 758.469 Q1799.62 765.576 1801.43 769.14 Q1803.26 772.682 1806.87 772.682 Q1810.5 772.682 1812.31 769.14 Q1814.14 765.576 1814.14 758.469 Q1814.14 751.34 1812.31 747.798 Q1810.5 744.233 1806.87 744.233 M1806.87 740.53 Q1812.68 740.53 1815.73 745.136 Q1818.81 749.719 1818.81 758.469 Q1818.81 767.196 1815.73 771.803 Q1812.68 776.386 1806.87 776.386 Q1801.06 776.386 1797.98 771.803 Q1794.92 767.196 1794.92 758.469 Q1794.92 749.719 1797.98 745.136 Q1801.06 740.53 1806.87 740.53 Z" fill="#000000" fill-rule="nonzero" fill-opacity="1"></path><path clip-path="url(#clip870)" d="M1712.86 422.761 L1742.54 422.761 L1742.54 426.697 L1712.86 426.697 L1712.86 422.761 Z" fill="#000000" fill-rule="nonzero" fill-opacity="1"></path><path clip-path="url(#clip870)" d="M1762.63 408.109 Q1759.02 408.109 1757.19 411.674 Q1755.39 415.215 1755.39 422.345 Q1755.39 429.451 1757.19 433.016 Q1759.02 436.558 1762.63 436.558 Q1766.27 436.558 1768.07 433.016 Q1769.9 429.451 1769.9 422.345 Q1769.9 415.215 1768.07 411.674 Q1766.27 408.109 1762.63 408.109 M1762.63 404.405 Q1768.44 404.405 1771.5 409.012 Q1774.58 413.595 1774.58 422.345 Q1774.58 431.072 1771.5 435.678 Q1768.44 440.261 1762.63 440.261 Q1756.82 440.261 1753.74 435.678 Q1750.69 431.072 1750.69 422.345 Q1750.69 413.595 1753.74 409.012 Q1756.82 404.405 1762.63 404.405 Z" fill="#000000" fill-rule="nonzero" fill-opacity="1"></path><path clip-path="url(#clip870)" d="M1782.79 433.711 L1787.68 433.711 L1787.68 439.59 L1782.79 439.59 L1782.79 433.711 Z" fill="#000000" fill-rule="nonzero" fill-opacity="1"></path><path clip-path="url(#clip870)" d="M1797.91 405.03 L1816.27 405.03 L1816.27 408.965 L1802.19 408.965 L1802.19 417.437 Q1803.21 417.09 1804.23 416.928 Q1805.25 416.743 1806.27 416.743 Q1812.05 416.743 1815.43 419.914 Q1818.81 423.086 1818.81 428.502 Q1818.81 434.081 1815.34 437.183 Q1811.87 440.261 1805.55 440.261 Q1803.37 440.261 1801.1 439.891 Q1798.86 439.521 1796.45 438.78 L1796.45 434.081 Q1798.53 435.215 1800.76 435.771 Q1802.98 436.326 1805.46 436.326 Q1809.46 436.326 1811.8 434.22 Q1814.14 432.113 1814.14 428.502 Q1814.14 424.891 1811.8 422.785 Q1809.46 420.678 1805.46 420.678 Q1803.58 420.678 1801.71 421.095 Q1799.85 421.511 1797.91 422.391 L1797.91 405.03 Z" fill="#000000" fill-rule="nonzero" fill-opacity="1"></path><path clip-path="url(#clip870)" d="M1761.64 71.9844 Q1758.03 71.9844 1756.2 75.5492 Q1754.39 79.0908 1754.39 86.2204 Q1754.39 93.3268 1756.2 96.8916 Q1758.03 100.433 1761.64 100.433 Q1765.27 100.433 1767.08 96.8916 Q1768.9 93.3268 1768.9 86.2204 Q1768.9 79.0908 1767.08 75.5492 Q1765.27 71.9844 1761.64 71.9844 M1761.64 68.2807 Q1767.45 68.2807 1770.5 72.8871 Q1773.58 77.4704 1773.58 86.2204 Q1773.58 94.9472 1770.5 99.5537 Q1767.45 104.137 1761.64 104.137 Q1755.83 104.137 1752.75 99.5537 Q1749.69 94.9472 1749.69 86.2204 Q1749.69 77.4704 1752.75 72.8871 Q1755.83 68.2807 1761.64 68.2807 Z" fill="#000000" fill-rule="nonzero" fill-opacity="1"></path><path clip-path="url(#clip870)" d="M1781.8 97.5861 L1786.68 97.5861 L1786.68 103.466 L1781.8 103.466 L1781.8 97.5861 Z" fill="#000000" fill-rule="nonzero" fill-opacity="1"></path><path clip-path="url(#clip870)" d="M1806.87 71.9844 Q1803.26 71.9844 1801.43 75.5492 Q1799.62 79.0908 1799.62 86.2204 Q1799.62 93.3268 1801.43 96.8916 Q1803.26 100.433 1806.87 100.433 Q1810.5 100.433 1812.31 96.8916 Q1814.14 93.3268 1814.14 86.2204 Q1814.14 79.0908 1812.31 75.5492 Q1810.5 71.9844 1806.87 71.9844 M1806.87 68.2807 Q1812.68 68.2807 1815.73 72.8871 Q1818.81 77.4704 1818.81 86.2204 Q1818.81 94.9472 1815.73 99.5537 Q1812.68 104.137 1806.87 104.137 Q1801.06 104.137 1797.98 99.5537 Q1794.92 94.9472 1794.92 86.2204 Q1794.92 77.4704 1797.98 72.8871 Q1801.06 68.2807 1806.87 68.2807 Z" fill="#000000" fill-rule="nonzero" fill-opacity="1"></path><path clip-path="url(#clip870)" d="M1622.07 740.631 L1622.99 741.195 Q1621.48 744.689 1619.07 749.04 Q1621.48 753.391 1622.99 756.885 L1622.07 757.426 Q1618.76 753.616 1616.21 749.04 Q1618.78 744.418 1622.07 740.631 Z" fill="#000000" fill-rule="nonzero" fill-opacity="1"></path><path clip-path="url(#clip870)" d="M1634.37 737.469 Q1636.17 737.469 1637.2 738.596 Q1638.2 739.723 1638.2 741.012 Q1638.2 742.235 1637.49 742.88 Q1636.78 743.524 1635.88 743.524 Q1634.66 743.524 1633.59 742.622 Q1632.53 741.72 1632.31 740.368 Q1631.47 741.688 1631.47 743.653 Q1631.47 744.941 1632.15 746.068 Q1632.82 747.163 1633.69 747.839 Q1634.56 748.483 1635.82 749.063 Q1637.04 749.611 1637.78 749.836 Q1638.49 750.029 1639.26 750.19 L1648.28 752.445 Q1652.56 753.54 1654.08 753.54 Q1655.95 753.54 1657.2 752.638 Q1658.43 751.736 1658.43 749.933 Q1658.43 749.224 1658.23 748.419 Q1658.01 747.614 1657.43 746.583 Q1656.82 745.52 1655.91 744.586 Q1654.98 743.62 1653.4 742.686 Q1651.82 741.752 1649.79 741.14 Q1649.09 740.947 1649.09 740.303 Q1649.09 739.498 1649.73 739.498 Q1650.28 739.498 1651.44 739.949 Q1652.56 740.368 1654.05 741.301 Q1655.49 742.203 1656.82 743.395 Q1658.1 744.586 1659.01 746.358 Q1659.91 748.129 1659.91 750.061 Q1659.91 752.831 1658.43 754.667 Q1656.94 756.503 1654.88 757.179 Q1655.17 757.34 1655.56 757.565 Q1655.95 757.791 1656.82 758.467 Q1657.65 759.111 1658.3 759.852 Q1658.91 760.593 1659.39 761.752 Q1659.91 762.879 1659.91 764.103 Q1659.91 765.649 1659.46 767.034 Q1659.01 768.387 1657.97 769.353 Q1656.94 770.319 1655.53 770.319 Q1653.95 770.319 1652.85 769.256 Q1651.73 768.161 1651.73 766.68 Q1651.73 765.746 1652.27 765.005 Q1652.82 764.232 1654.01 764.232 Q1655.33 764.232 1656.33 765.134 Q1657.33 766.036 1657.59 767.324 Q1658.43 766.003 1658.43 764.039 Q1658.43 761.913 1656.56 760.239 Q1654.69 758.564 1651.57 757.759 Q1644.06 755.762 1640.71 754.989 Q1637.33 754.216 1635.88 754.216 Q1634.53 754.216 1633.59 754.57 Q1632.66 754.925 1632.24 755.536 Q1631.79 756.116 1631.63 756.664 Q1631.47 757.179 1631.47 757.759 Q1631.47 758.725 1631.86 759.82 Q1632.24 760.883 1633.14 762.171 Q1634.01 763.427 1635.82 764.619 Q1637.62 765.81 1640.1 766.615 Q1640.84 766.776 1640.84 767.485 Q1640.81 768.258 1640.16 768.258 Q1639.62 768.258 1638.49 767.839 Q1637.33 767.388 1635.88 766.486 Q1634.43 765.552 1633.14 764.361 Q1631.82 763.137 1630.92 761.366 Q1630.02 759.562 1630.02 757.63 Q1630.02 756.76 1630.21 755.923 Q1630.37 755.053 1630.86 754.023 Q1631.34 752.96 1632.4 752.026 Q1633.47 751.092 1635.01 750.512 Q1634.27 750.126 1633.56 749.611 Q1632.85 749.063 1631.98 748.226 Q1631.08 747.356 1630.57 746.165 Q1630.02 744.941 1630.02 743.588 Q1630.02 742.268 1630.37 740.979 Q1630.7 739.691 1631.76 738.596 Q1632.79 737.469 1634.37 737.469 Z" fill="#000000" fill-rule="nonzero" fill-opacity="1"></path><path clip-path="url(#clip870)" d="M1678.18 730.01 Q1677.34 730.01 1677.09 729.942 Q1676.85 729.852 1676.46 729.491 L1666.59 720.631 Q1661.13 715.784 1656.38 715.784 Q1653.29 715.784 1651.08 717.408 Q1648.87 719.008 1648.87 721.962 Q1648.87 723.991 1650.11 725.704 Q1651.35 727.417 1653.56 728.206 Q1653.51 728.071 1653.51 727.598 Q1653.51 726.448 1654.24 725.817 Q1654.96 725.163 1655.93 725.163 Q1657.17 725.163 1657.77 725.974 Q1658.36 726.763 1658.36 727.553 Q1658.36 727.868 1658.29 728.296 Q1658.23 728.702 1657.59 729.356 Q1656.94 730.01 1655.79 730.01 Q1652.57 730.01 1650 727.575 Q1647.43 725.118 1647.43 721.375 Q1647.43 717.137 1649.95 714.364 Q1652.45 711.569 1656.38 711.569 Q1657.75 711.569 1659.01 711.997 Q1660.25 712.403 1661.22 712.966 Q1662.19 713.508 1663.75 714.995 Q1665.3 716.483 1666.41 717.678 Q1667.51 718.873 1669.86 721.556 L1674.62 726.448 L1674.62 718.129 Q1674.62 714.071 1674.25 713.756 Q1673.6 713.305 1670.15 712.741 L1670.15 711.569 L1678.18 712.876 L1678.18 730.01 Z" fill="#000000" fill-rule="nonzero" fill-opacity="1"></path><polyline clip-path="url(#clip874)" style="stroke:#e26f46; stroke-linecap:round; stroke-linejoin:round; stroke-width:3; stroke-opacity:1; fill:none" stroke-dasharray="12, 6, 2, 6" points="1868.9,86.1857 1888.48,86.1857 1908.05,219.523 1927.62,372.312 1947.2,514.715 1966.77,640.451 1986.34,749.633 2005.92,843.931 2025.49,925.229 2045.06,995.279 2064.64,1055.63 2084.21,1107.61 2103.78,1152.39 2123.36,1190.96 2142.93,1224.19 2162.5,1252.81 2182.08,1277.46 2201.65,1298.7 2221.22,1316.99 2240.8,1332.75 2260.37,1346.32 2279.94,1358.02 2299.52,1368.09 2319.09,1376.76 2338.66,1384.24 "></polyline>
</svg>