<?xml version="1.0" encoding="utf-8"?>
<svg xmlns="http://www.w3.org/2000/svg" xmlns:xlink="http://www.w3.org/1999/xlink" width="600" height="400" viewBox="0 0 2400 1600">
<defs>
  <clipPath id="clip580">
    <rect x="0" y="0" width="2400" height="1600"/>
  </clipPath>
</defs>
<path clip-path="url(#clip580)" d="M0 1600 L2400 1600 L2400 0 L0 0  Z" fill="#ffffff" fill-rule="evenodd" fill-opacity="1"/>
<defs>
  <clipPath id="clip581">
    <rect x="480" y="0" width="1681" height="1600"/>
  </clipPath>
</defs>
<path clip-path="url(#clip580)" d="M232.389 623.18 L1145.22 623.18 L1145.22 47.2441 L232.389 47.2441  Z" fill="#ffffff" fill-rule="evenodd" fill-opacity="1"/>
<defs>
  <clipPath id="clip582">
    <rect x="232" y="47" width="914" height="577"/>
  </clipPath>
</defs>
<polyline clip-path="url(#clip582)" style="stroke:#000000; stroke-linecap:round; stroke-linejoin:round; stroke-width:2; stroke-opacity:0.1; fill:none" points="258.224,623.18 258.224,47.2441 "/>
<polyline clip-path="url(#clip582)" style="stroke:#000000; stroke-linecap:round; stroke-linejoin:round; stroke-width:2; stroke-opacity:0.1; fill:none" points="511.507,623.18 511.507,47.2441 "/>
<polyline clip-path="url(#clip582)" style="stroke:#000000; stroke-linecap:round; stroke-linejoin:round; stroke-width:2; stroke-opacity:0.1; fill:none" points="764.79,623.18 764.79,47.2441 "/>
<polyline clip-path="url(#clip582)" style="stroke:#000000; stroke-linecap:round; stroke-linejoin:round; stroke-width:2; stroke-opacity:0.1; fill:none" points="1018.07,623.18 1018.07,47.2441 "/>
<polyline clip-path="url(#clip582)" style="stroke:#000000; stroke-linecap:round; stroke-linejoin:round; stroke-width:2; stroke-opacity:0.1; fill:none" points="232.389,606.88 1145.22,606.88 "/>
<polyline clip-path="url(#clip582)" style="stroke:#000000; stroke-linecap:round; stroke-linejoin:round; stroke-width:2; stroke-opacity:0.1; fill:none" points="232.389,463.008 1145.22,463.008 "/>
<polyline clip-path="url(#clip582)" style="stroke:#000000; stroke-linecap:round; stroke-linejoin:round; stroke-width:2; stroke-opacity:0.1; fill:none" points="232.389,319.135 1145.22,319.135 "/>
<polyline clip-path="url(#clip582)" style="stroke:#000000; stroke-linecap:round; stroke-linejoin:round; stroke-width:2; stroke-opacity:0.1; fill:none" points="232.389,175.263 1145.22,175.263 "/>
<polyline clip-path="url(#clip580)" style="stroke:#000000; stroke-linecap:round; stroke-linejoin:round; stroke-width:4; stroke-opacity:1; fill:none" points="232.389,623.18 1145.22,623.18 "/>
<polyline clip-path="url(#clip580)" style="stroke:#000000; stroke-linecap:round; stroke-linejoin:round; stroke-width:4; stroke-opacity:1; fill:none" points="258.224,623.18 258.224,604.282 "/>
<polyline clip-path="url(#clip580)" style="stroke:#000000; stroke-linecap:round; stroke-linejoin:round; stroke-width:4; stroke-opacity:1; fill:none" points="511.507,623.18 511.507,604.282 "/>
<polyline clip-path="url(#clip580)" style="stroke:#000000; stroke-linecap:round; stroke-linejoin:round; stroke-width:4; stroke-opacity:1; fill:none" points="764.79,623.18 764.79,604.282 "/>
<polyline clip-path="url(#clip580)" style="stroke:#000000; stroke-linecap:round; stroke-linejoin:round; stroke-width:4; stroke-opacity:1; fill:none" points="1018.07,623.18 1018.07,604.282 "/>
<path clip-path="url(#clip580)" d="M258.224 654.099 Q254.613 654.099 252.784 657.663 Q250.979 661.205 250.979 668.335 Q250.979 675.441 252.784 679.006 Q254.613 682.547 258.224 682.547 Q261.858 682.547 263.664 679.006 Q265.493 675.441 265.493 668.335 Q265.493 661.205 263.664 657.663 Q261.858 654.099 258.224 654.099 M258.224 650.395 Q264.034 650.395 267.09 655.001 Q270.169 659.585 270.169 668.335 Q270.169 677.061 267.09 681.668 Q264.034 686.251 258.224 686.251 Q252.414 686.251 249.335 681.668 Q246.28 677.061 246.28 668.335 Q246.28 659.585 249.335 655.001 Q252.414 650.395 258.224 650.395 Z" fill="#000000" fill-rule="nonzero" fill-opacity="1" /><path clip-path="url(#clip580)" d="M501.889 681.645 L509.528 681.645 L509.528 655.279 L501.218 656.946 L501.218 652.687 L509.482 651.02 L514.158 651.02 L514.158 681.645 L521.796 681.645 L521.796 685.58 L501.889 685.58 L501.889 681.645 Z" fill="#000000" fill-rule="nonzero" fill-opacity="1" /><path clip-path="url(#clip580)" d="M759.443 681.645 L775.762 681.645 L775.762 685.58 L753.818 685.58 L753.818 681.645 Q756.48 678.89 761.063 674.26 Q765.67 669.608 766.85 668.265 Q769.096 665.742 769.975 664.006 Q770.878 662.247 770.878 660.557 Q770.878 657.802 768.934 656.066 Q767.012 654.33 763.911 654.33 Q761.711 654.33 759.258 655.094 Q756.827 655.858 754.049 657.409 L754.049 652.687 Q756.874 651.552 759.327 650.974 Q761.781 650.395 763.818 650.395 Q769.188 650.395 772.383 653.08 Q775.577 655.765 775.577 660.256 Q775.577 662.386 774.767 664.307 Q773.98 666.205 771.873 668.798 Q771.295 669.469 768.193 672.686 Q765.091 675.881 759.443 681.645 Z" fill="#000000" fill-rule="nonzero" fill-opacity="1" /><path clip-path="url(#clip580)" d="M1022.32 666.946 Q1025.68 667.663 1027.55 669.932 Q1029.45 672.2 1029.45 675.534 Q1029.45 680.649 1025.93 683.45 Q1022.41 686.251 1015.93 686.251 Q1013.76 686.251 1011.44 685.811 Q1009.15 685.395 1006.7 684.538 L1006.7 680.024 Q1008.64 681.159 1010.96 681.737 Q1013.27 682.316 1015.79 682.316 Q1020.19 682.316 1022.48 680.58 Q1024.8 678.844 1024.8 675.534 Q1024.8 672.478 1022.64 670.765 Q1020.52 669.029 1016.7 669.029 L1012.67 669.029 L1012.67 665.186 L1016.88 665.186 Q1020.33 665.186 1022.16 663.821 Q1023.99 662.432 1023.99 659.839 Q1023.99 657.177 1022.09 655.765 Q1020.21 654.33 1016.7 654.33 Q1014.77 654.33 1012.58 654.747 Q1010.38 655.163 1007.74 656.043 L1007.74 651.876 Q1010.4 651.136 1012.71 650.765 Q1015.05 650.395 1017.11 650.395 Q1022.44 650.395 1025.54 652.825 Q1028.64 655.233 1028.64 659.353 Q1028.64 662.223 1027 664.214 Q1025.35 666.182 1022.32 666.946 Z" fill="#000000" fill-rule="nonzero" fill-opacity="1" /><path clip-path="url(#clip580)" d="M558.977 720.524 L599.176 720.524 L599.176 725.935 L582.307 725.935 L582.307 768.044 L575.846 768.044 L575.846 725.935 L558.977 725.935 L558.977 720.524 Z" fill="#000000" fill-rule="nonzero" fill-opacity="1" /><path clip-path="url(#clip580)" d="M603.123 732.396 L608.979 732.396 L608.979 768.044 L603.123 768.044 L603.123 732.396 M603.123 718.519 L608.979 718.519 L608.979 725.935 L603.123 725.935 L603.123 718.519 Z" fill="#000000" fill-rule="nonzero" fill-opacity="1" /><path clip-path="url(#clip580)" d="M648.988 739.239 Q651.184 735.292 654.239 733.414 Q657.295 731.537 661.433 731.537 Q667.003 731.537 670.026 735.451 Q673.05 739.335 673.05 746.528 L673.05 768.044 L667.162 768.044 L667.162 746.719 Q667.162 741.594 665.348 739.112 Q663.533 736.629 659.809 736.629 Q655.258 736.629 652.616 739.653 Q649.974 742.677 649.974 747.896 L649.974 768.044 L644.086 768.044 L644.086 746.719 Q644.086 741.563 642.272 739.112 Q640.458 736.629 636.67 736.629 Q632.182 736.629 629.541 739.685 Q626.899 742.708 626.899 747.896 L626.899 768.044 L621.011 768.044 L621.011 732.396 L626.899 732.396 L626.899 737.934 Q628.904 734.656 631.705 733.096 Q634.506 731.537 638.357 731.537 Q642.24 731.537 644.946 733.51 Q647.683 735.483 648.988 739.239 Z" fill="#000000" fill-rule="nonzero" fill-opacity="1" /><path clip-path="url(#clip580)" d="M715.223 748.756 L715.223 751.62 L688.296 751.62 Q688.678 757.668 691.924 760.851 Q695.203 764.002 701.027 764.002 Q704.401 764.002 707.552 763.174 Q710.735 762.347 713.854 760.691 L713.854 766.23 Q710.703 767.566 707.393 768.267 Q704.083 768.967 700.677 768.967 Q692.147 768.967 687.15 764.002 Q682.185 759.036 682.185 750.57 Q682.185 741.817 686.896 736.693 Q691.638 731.537 699.659 731.537 Q706.852 731.537 711.022 736.183 Q715.223 740.799 715.223 748.756 M709.367 747.037 Q709.303 742.231 706.661 739.366 Q704.051 736.502 699.722 736.502 Q694.821 736.502 691.861 739.271 Q688.933 742.04 688.487 747.069 L709.367 747.037 Z" fill="#000000" fill-rule="nonzero" fill-opacity="1" /><path clip-path="url(#clip580)" d="M759.624 718.582 Q755.359 725.903 753.29 733.064 Q751.221 740.226 751.221 747.578 Q751.221 754.93 753.29 762.156 Q755.391 769.349 759.624 776.638 L754.531 776.638 Q749.757 769.158 747.37 761.933 Q745.014 754.708 745.014 747.578 Q745.014 740.48 747.37 733.287 Q749.725 726.094 754.531 718.582 L759.624 718.582 Z" fill="#000000" fill-rule="nonzero" fill-opacity="1" /><path clip-path="url(#clip580)" d="M793.712 733.446 L793.712 738.984 Q791.23 737.711 788.556 737.075 Q785.882 736.438 783.018 736.438 Q778.657 736.438 776.461 737.775 Q774.297 739.112 774.297 741.785 Q774.297 743.822 775.856 745 Q777.416 746.146 782.127 747.196 L784.132 747.642 Q790.37 748.979 792.98 751.429 Q795.622 753.848 795.622 758.209 Q795.622 763.174 791.675 766.07 Q787.76 768.967 780.885 768.967 Q778.021 768.967 774.901 768.394 Q771.814 767.853 768.377 766.739 L768.377 760.691 Q771.623 762.378 774.774 763.238 Q777.925 764.065 781.013 764.065 Q785.15 764.065 787.378 762.665 Q789.606 761.233 789.606 758.654 Q789.606 756.267 787.983 754.994 Q786.392 753.721 780.949 752.543 L778.912 752.066 Q773.469 750.92 771.05 748.565 Q768.631 746.178 768.631 742.04 Q768.631 737.011 772.196 734.274 Q775.761 731.537 782.318 731.537 Q785.564 731.537 788.429 732.014 Q791.293 732.491 793.712 733.446 Z" fill="#000000" fill-rule="nonzero" fill-opacity="1" /><path clip-path="url(#clip580)" d="M804.025 718.582 L809.117 718.582 Q813.891 726.094 816.247 733.287 Q818.634 740.48 818.634 747.578 Q818.634 754.708 816.247 761.933 Q813.891 769.158 809.117 776.638 L804.025 776.638 Q808.258 769.349 810.327 762.156 Q812.427 754.93 812.427 747.578 Q812.427 740.226 810.327 733.064 Q808.258 725.903 804.025 718.582 Z" fill="#000000" fill-rule="nonzero" fill-opacity="1" /><polyline clip-path="url(#clip580)" style="stroke:#000000; stroke-linecap:round; stroke-linejoin:round; stroke-width:4; stroke-opacity:1; fill:none" points="232.389,623.18 232.389,47.2441 "/>
<polyline clip-path="url(#clip580)" style="stroke:#000000; stroke-linecap:round; stroke-linejoin:round; stroke-width:4; stroke-opacity:1; fill:none" points="232.389,606.88 251.287,606.88 "/>
<polyline clip-path="url(#clip580)" style="stroke:#000000; stroke-linecap:round; stroke-linejoin:round; stroke-width:4; stroke-opacity:1; fill:none" points="232.389,463.008 251.287,463.008 "/>
<polyline clip-path="url(#clip580)" style="stroke:#000000; stroke-linecap:round; stroke-linejoin:round; stroke-width:4; stroke-opacity:1; fill:none" points="232.389,319.135 251.287,319.135 "/>
<polyline clip-path="url(#clip580)" style="stroke:#000000; stroke-linecap:round; stroke-linejoin:round; stroke-width:4; stroke-opacity:1; fill:none" points="232.389,175.263 251.287,175.263 "/>
<path clip-path="url(#clip580)" d="M184.445 592.678 Q180.834 592.678 179.005 596.243 Q177.2 599.785 177.2 606.914 Q177.2 614.021 179.005 617.586 Q180.834 621.127 184.445 621.127 Q188.079 621.127 189.885 617.586 Q191.713 614.021 191.713 606.914 Q191.713 599.785 189.885 596.243 Q188.079 592.678 184.445 592.678 M184.445 588.975 Q190.255 588.975 193.311 593.581 Q196.389 598.165 196.389 606.914 Q196.389 615.641 193.311 620.248 Q190.255 624.831 184.445 624.831 Q178.635 624.831 175.556 620.248 Q172.501 615.641 172.501 606.914 Q172.501 598.165 175.556 593.581 Q178.635 588.975 184.445 588.975 Z" fill="#000000" fill-rule="nonzero" fill-opacity="1" /><path clip-path="url(#clip580)" d="M144.329 445.728 L162.686 445.728 L162.686 449.663 L148.612 449.663 L148.612 458.135 Q149.63 457.788 150.649 457.626 Q151.667 457.44 152.686 457.44 Q158.473 457.44 161.852 460.612 Q165.232 463.783 165.232 469.2 Q165.232 474.778 161.76 477.88 Q158.288 480.959 151.968 480.959 Q149.792 480.959 147.524 480.588 Q145.279 480.218 142.871 479.477 L142.871 474.778 Q144.954 475.913 147.177 476.468 Q149.399 477.024 151.876 477.024 Q155.88 477.024 158.218 474.917 Q160.556 472.811 160.556 469.2 Q160.556 465.589 158.218 463.482 Q155.88 461.376 151.876 461.376 Q150.001 461.376 148.126 461.792 Q146.274 462.209 144.329 463.089 L144.329 445.728 Z" fill="#000000" fill-rule="nonzero" fill-opacity="1" /><path clip-path="url(#clip580)" d="M184.445 448.806 Q180.834 448.806 179.005 452.371 Q177.2 455.913 177.2 463.042 Q177.2 470.149 179.005 473.713 Q180.834 477.255 184.445 477.255 Q188.079 477.255 189.885 473.713 Q191.713 470.149 191.713 463.042 Q191.713 455.913 189.885 452.371 Q188.079 448.806 184.445 448.806 M184.445 445.103 Q190.255 445.103 193.311 449.709 Q196.389 454.292 196.389 463.042 Q196.389 471.769 193.311 476.375 Q190.255 480.959 184.445 480.959 Q178.635 480.959 175.556 476.375 Q172.501 471.769 172.501 463.042 Q172.501 454.292 175.556 449.709 Q178.635 445.103 184.445 445.103 Z" fill="#000000" fill-rule="nonzero" fill-opacity="1" /><path clip-path="url(#clip580)" d="M114.931 332.48 L122.57 332.48 L122.57 306.114 L114.26 307.781 L114.26 303.522 L122.524 301.855 L127.2 301.855 L127.2 332.48 L134.839 332.48 L134.839 336.415 L114.931 336.415 L114.931 332.48 Z" fill="#000000" fill-rule="nonzero" fill-opacity="1" /><path clip-path="url(#clip580)" d="M154.283 304.934 Q150.672 304.934 148.843 308.499 Q147.038 312.04 147.038 319.17 Q147.038 326.276 148.843 329.841 Q150.672 333.383 154.283 333.383 Q157.917 333.383 159.723 329.841 Q161.552 326.276 161.552 319.17 Q161.552 312.04 159.723 308.499 Q157.917 304.934 154.283 304.934 M154.283 301.23 Q160.093 301.23 163.149 305.837 Q166.227 310.42 166.227 319.17 Q166.227 327.897 163.149 332.503 Q160.093 337.087 154.283 337.087 Q148.473 337.087 145.394 332.503 Q142.339 327.897 142.339 319.17 Q142.339 310.42 145.394 305.837 Q148.473 301.23 154.283 301.23 Z" fill="#000000" fill-rule="nonzero" fill-opacity="1" /><path clip-path="url(#clip580)" d="M184.445 304.934 Q180.834 304.934 179.005 308.499 Q177.2 312.04 177.2 319.17 Q177.2 326.276 179.005 329.841 Q180.834 333.383 184.445 333.383 Q188.079 333.383 189.885 329.841 Q191.713 326.276 191.713 319.17 Q191.713 312.04 189.885 308.499 Q188.079 304.934 184.445 304.934 M184.445 301.23 Q190.255 301.23 193.311 305.837 Q196.389 310.42 196.389 319.17 Q196.389 327.897 193.311 332.503 Q190.255 337.087 184.445 337.087 Q178.635 337.087 175.556 332.503 Q172.501 327.897 172.501 319.17 Q172.501 310.42 175.556 305.837 Q178.635 301.23 184.445 301.23 Z" fill="#000000" fill-rule="nonzero" fill-opacity="1" /><path clip-path="url(#clip580)" d="M114.931 188.608 L122.57 188.608 L122.57 162.242 L114.26 163.909 L114.26 159.65 L122.524 157.983 L127.2 157.983 L127.2 188.608 L134.839 188.608 L134.839 192.543 L114.931 192.543 L114.931 188.608 Z" fill="#000000" fill-rule="nonzero" fill-opacity="1" /><path clip-path="url(#clip580)" d="M144.329 157.983 L162.686 157.983 L162.686 161.918 L148.612 161.918 L148.612 170.39 Q149.63 170.043 150.649 169.881 Q151.667 169.696 152.686 169.696 Q158.473 169.696 161.852 172.867 Q165.232 176.038 165.232 181.455 Q165.232 187.034 161.76 190.136 Q158.288 193.214 151.968 193.214 Q149.792 193.214 147.524 192.844 Q145.279 192.474 142.871 191.733 L142.871 187.034 Q144.954 188.168 147.177 188.724 Q149.399 189.279 151.876 189.279 Q155.88 189.279 158.218 187.173 Q160.556 185.066 160.556 181.455 Q160.556 177.844 158.218 175.738 Q155.88 173.631 151.876 173.631 Q150.001 173.631 148.126 174.048 Q146.274 174.464 144.329 175.344 L144.329 157.983 Z" fill="#000000" fill-rule="nonzero" fill-opacity="1" /><path clip-path="url(#clip580)" d="M184.445 161.062 Q180.834 161.062 179.005 164.626 Q177.2 168.168 177.2 175.298 Q177.2 182.404 179.005 185.969 Q180.834 189.511 184.445 189.511 Q188.079 189.511 189.885 185.969 Q191.713 182.404 191.713 175.298 Q191.713 168.168 189.885 164.626 Q188.079 161.062 184.445 161.062 M184.445 157.358 Q190.255 157.358 193.311 161.964 Q196.389 166.548 196.389 175.298 Q196.389 184.025 193.311 188.631 Q190.255 193.214 184.445 193.214 Q178.635 193.214 175.556 188.631 Q172.501 184.025 172.501 175.298 Q172.501 166.548 175.556 161.964 Q178.635 157.358 184.445 157.358 Z" fill="#000000" fill-rule="nonzero" fill-opacity="1" /><path clip-path="url(#clip580)" d="M39.4334 372.564 Q44.844 372.564 50.9309 374.303 Q56.9856 376.01 61.8809 378.715 Q66.744 381.42 69.9646 384.963 Q73.153 388.505 73.153 391.887 Q73.153 394.045 71.9613 395.655 Q70.7375 397.233 68.7085 398.103 Q66.6474 398.972 64.393 399.391 Q62.1063 399.81 59.6265 399.81 Q55.9228 399.81 51.8971 399.005 Q47.8391 398.199 44.1677 396.847 Q40.464 395.494 37.1146 393.594 Q33.733 391.694 31.2853 389.6 Q28.8055 387.475 27.3562 385.092 Q25.907 382.708 25.907 380.486 Q25.907 378.876 26.6155 377.588 Q27.2918 376.267 28.4834 375.43 Q29.6428 374.593 31.0277 374.013 Q32.4125 373.401 34.0228 373.111 Q35.6009 372.821 36.9214 372.692 Q38.2096 372.564 39.4334 372.564 M35.3433 376.911 Q33.7008 376.911 32.477 377.04 Q31.2209 377.169 29.9649 377.523 Q28.7089 377.878 28.0325 378.65 Q27.3562 379.391 27.3562 380.551 Q27.3562 383.932 34.2805 387.733 Q36.4383 388.956 39.369 390.051 Q42.2997 391.146 43.6846 391.533 Q45.0694 391.919 48.4833 392.821 L48.4833 379.037 Q39.6911 376.911 35.3433 376.911 M50.5766 379.617 L50.5766 393.336 Q58.6281 395.462 63.6522 395.462 Q68.0322 395.462 69.868 394.56 Q71.6715 393.626 71.6715 391.887 Q71.6715 389.89 69.6747 388.022 Q67.6458 386.154 63.9743 384.254 Q59.2078 381.742 50.5766 379.617 Z" fill="#000000" fill-rule="nonzero" fill-opacity="1" /><path clip-path="url(#clip580)" d="M22.9507 328.256 Q30.2712 332.521 37.4327 334.59 Q44.5941 336.658 51.9465 336.658 Q59.2989 336.658 66.5239 334.59 Q73.7172 332.489 81.0059 328.256 L81.0059 333.348 Q73.5262 338.123 66.3011 340.51 Q59.0761 342.865 51.9465 342.865 Q44.8487 342.865 37.6555 340.51 Q30.4622 338.154 22.9507 333.348 L22.9507 328.256 Z" fill="#000000" fill-rule="nonzero" fill-opacity="1" /><path clip-path="url(#clip580)" d="M28.1387 306.74 Q28.1387 309.286 29.9211 311.036 Q31.6717 312.787 34.218 312.787 Q36.7324 312.787 38.483 311.036 Q40.2017 309.286 40.2017 306.74 Q40.2017 304.193 38.483 302.443 Q36.7324 300.692 34.218 300.692 Q31.7035 300.692 29.9211 302.475 Q28.1387 304.225 28.1387 306.74 M24.0328 306.74 Q24.0328 304.703 24.8286 302.825 Q25.5924 300.947 27.0566 299.578 Q28.4888 298.114 30.3031 297.382 Q32.1173 296.65 34.218 296.65 Q38.4193 296.65 41.3476 299.61 Q44.244 302.538 44.244 306.803 Q44.244 311.1 41.3794 313.965 Q38.5148 316.829 34.218 316.829 Q29.953 316.829 26.9929 313.901 Q24.0328 310.973 24.0328 306.74 Z" fill="#000000" fill-rule="nonzero" fill-opacity="1" /><path clip-path="url(#clip580)" d="M22.9507 285.224 L22.9507 280.131 Q30.4622 275.357 37.6555 273.001 Q44.8487 270.614 51.9465 270.614 Q59.0761 270.614 66.3011 273.001 Q73.5262 275.357 81.0059 280.131 L81.0059 285.224 Q73.7172 280.99 66.5239 278.921 Q59.2989 276.821 51.9465 276.821 Q44.5941 276.821 37.4327 278.921 Q30.2712 280.99 22.9507 285.224 Z" fill="#000000" fill-rule="nonzero" fill-opacity="1" /><polyline clip-path="url(#clip582)" style="stroke:#009af9; stroke-linecap:round; stroke-linejoin:round; stroke-width:4; stroke-opacity:1; fill:none" points="258.224,606.88 283.553,463.996 308.881,281.237 334.209,197.188 359.537,147.452 384.866,108.921 410.194,83.7523 435.522,71.1884 460.851,65.4095 486.179,63.5442 511.507,64.0075 536.835,65.7885 562.164,68.2221 587.492,70.8839 612.82,73.5158 638.149,75.9717 663.477,78.178 688.805,80.1071 714.134,81.7595 739.462,83.1522 764.79,84.3105 790.118,85.2629 815.447,86.0388 840.775,86.665 866.103,87.1664 891.432,87.5652 916.76,87.8803 942.088,88.1279 967.417,88.321 992.745,88.4707 1018.07,88.5863 1043.4,88.675 1068.73,88.7427 1094.06,88.794 1119.39,88.8328 "/>
<polyline clip-path="url(#clip582)" style="stroke:#3da44d; stroke-linecap:round; stroke-linejoin:round; stroke-width:3; stroke-opacity:1; fill:none" stroke-dasharray="12, 8" points="258.224,88.9396 283.553,88.9396 308.881,88.9396 334.209,88.9396 359.537,88.9396 384.866,88.9396 410.194,88.9396 435.522,88.9396 460.851,88.9396 486.179,88.9396 511.507,88.9396 536.835,88.9396 562.164,88.9396 587.492,88.9396 612.82,88.9396 638.149,88.9396 663.477,88.9396 688.805,88.9396 714.134,88.9396 739.462,88.9396 764.79,88.9396 790.118,88.9396 815.447,88.9396 840.775,88.9396 866.103,88.9396 891.432,88.9396 916.76,88.9396 942.088,88.9396 967.417,88.9396 992.745,88.9396 1018.07,88.9396 1043.4,88.9396 1068.73,88.9396 1094.06,88.9396 1119.39,88.9396 "/>
<path clip-path="url(#clip580)" d="M975.502 603.982 L1114.79 603.982 L1114.79 448.462 L975.502 448.462  Z" fill="#ffffff" fill-rule="evenodd" fill-opacity="1"/>
<polyline clip-path="url(#clip580)" style="stroke:#000000; stroke-linecap:round; stroke-linejoin:round; stroke-width:4; stroke-opacity:1; fill:none" points="975.502,603.982 1114.79,603.982 1114.79,448.462 975.502,448.462 975.502,603.982 "/>
<polyline clip-path="url(#clip580)" style="stroke:#009af9; stroke-linecap:round; stroke-linejoin:round; stroke-width:4; stroke-opacity:1; fill:none" points="985.644,500.302 1046.5,500.302 "/>
<path clip-path="url(#clip580)" d="M1083.41 487.041 Q1081.94 487.041 1081.19 487.181 Q1080.44 487.298 1080.25 487.462 Q1080.06 487.626 1079.85 488.048 L1069.55 509.971 Q1068.45 512.314 1066.39 514 Q1064.35 515.686 1061.77 515.686 Q1059.62 515.686 1058.12 514.375 Q1056.64 513.087 1056.64 511.26 Q1056.64 509.948 1057.46 509.198 Q1058.28 508.472 1059.38 508.472 Q1060.6 508.472 1061.37 509.245 Q1062.17 510.018 1062.17 511.213 Q1062.17 511.986 1061.84 512.571 Q1061.51 513.18 1061.21 513.391 Q1060.93 513.625 1060.62 513.766 Q1061.12 513.953 1061.77 513.953 Q1062.76 513.953 1063.6 513.555 Q1064.47 513.18 1065.03 512.665 Q1065.61 512.173 1066.2 511.283 Q1066.78 510.416 1067.07 509.854 Q1067.35 509.316 1067.77 508.379 L1068.87 506.083 L1059.9 487.041 L1056.83 487.041 L1056.83 484.792 L1062.31 484.933 L1068.26 484.792 L1068.26 487.041 L1065.66 487.041 L1071.75 499.993 L1077.28 488.188 L1077.51 487.626 Q1077.51 487.369 1076.95 487.228 Q1076.39 487.064 1075.83 487.064 L1075.26 487.041 L1075.26 484.792 L1079.62 484.933 Q1081.68 484.933 1083.41 484.792 L1083.41 487.041 Z" fill="#000000" fill-rule="nonzero" fill-opacity="1" /><polyline clip-path="url(#clip580)" style="stroke:#3da44d; stroke-linecap:round; stroke-linejoin:round; stroke-width:3; stroke-opacity:1; fill:none" stroke-dasharray="12, 8" points="985.644,552.142 1046.5,552.142 "/>
<path clip-path="url(#clip580)" d="M1076.06 537.42 Q1076.06 538.778 1075.17 539.575 Q1074.28 540.348 1073.13 540.348 Q1071.98 540.348 1071.09 539.575 Q1070.2 538.802 1070.2 537.42 Q1070.2 536.811 1070.41 536.272 Q1070.65 535.71 1070.88 535.452 L1071.12 535.218 Q1069.74 535.218 1068.66 535.874 Q1067.58 536.506 1066.92 537.49 Q1066.27 538.474 1065.85 539.762 Q1065.43 541.027 1065.26 542.175 Q1065.12 543.322 1065.12 544.423 L1065.12 552.832 L1069.29 552.832 L1069.29 555.08 Q1067.56 554.94 1062.69 554.94 L1056.64 555.08 L1056.64 552.832 L1059.94 552.832 L1059.94 538.005 Q1059.94 536.647 1059.45 536.389 Q1058.96 536.132 1056.64 536.132 L1056.64 533.883 L1064.61 533.485 L1064.61 538.919 Q1066.6 533.485 1070.98 533.485 Q1072.99 533.485 1074.51 534.562 Q1076.06 535.616 1076.06 537.42 Z" fill="#000000" fill-rule="nonzero" fill-opacity="1" /><path clip-path="url(#clip580)" d="M1099.72 550.604 Q1098.69 550.604 1098.16 550.702 Q1097.64 550.784 1097.51 550.899 Q1097.38 551.013 1097.23 551.309 L1090.01 566.655 Q1089.24 568.294 1087.8 569.475 Q1086.38 570.655 1084.57 570.655 Q1083.06 570.655 1082.01 569.737 Q1080.98 568.836 1080.98 567.557 Q1080.98 566.639 1081.55 566.114 Q1082.13 565.606 1082.9 565.606 Q1083.75 565.606 1084.29 566.147 Q1084.85 566.688 1084.85 567.524 Q1084.85 568.065 1084.62 568.475 Q1084.39 568.901 1084.18 569.049 Q1083.98 569.213 1083.77 569.311 Q1084.11 569.442 1084.57 569.442 Q1085.26 569.442 1085.85 569.163 Q1086.46 568.901 1086.85 568.54 Q1087.26 568.196 1087.67 567.573 Q1088.08 566.966 1088.28 566.573 Q1088.47 566.196 1088.77 565.54 L1089.54 563.933 L1083.26 550.604 L1081.11 550.604 L1081.11 549.03 L1084.95 549.128 L1089.11 549.03 L1089.11 550.604 L1087.29 550.604 L1091.56 559.67 L1095.43 551.407 L1095.59 551.013 Q1095.59 550.833 1095.2 550.735 Q1094.8 550.62 1094.41 550.62 L1094.02 550.604 L1094.02 549.03 L1097.07 549.128 Q1098.51 549.128 1099.72 549.03 L1099.72 550.604 Z" fill="#000000" fill-rule="nonzero" fill-opacity="1" /><path clip-path="url(#clip580)" d="M1439.92 623.18 L2352.76 623.18 L2352.76 47.2441 L1439.92 47.2441  Z" fill="#ffffff" fill-rule="evenodd" fill-opacity="1"/>
<defs>
  <clipPath id="clip583">
    <rect x="1439" y="47" width="914" height="577"/>
  </clipPath>
</defs>
<polyline clip-path="url(#clip583)" style="stroke:#000000; stroke-linecap:round; stroke-linejoin:round; stroke-width:2; stroke-opacity:0.1; fill:none" points="1465.76,623.18 1465.76,47.2441 "/>
<polyline clip-path="url(#clip583)" style="stroke:#000000; stroke-linecap:round; stroke-linejoin:round; stroke-width:2; stroke-opacity:0.1; fill:none" points="1719.04,623.18 1719.04,47.2441 "/>
<polyline clip-path="url(#clip583)" style="stroke:#000000; stroke-linecap:round; stroke-linejoin:round; stroke-width:2; stroke-opacity:0.1; fill:none" points="1972.32,623.18 1972.32,47.2441 "/>
<polyline clip-path="url(#clip583)" style="stroke:#000000; stroke-linecap:round; stroke-linejoin:round; stroke-width:2; stroke-opacity:0.1; fill:none" points="2225.61,623.18 2225.61,47.2441 "/>
<polyline clip-path="url(#clip583)" style="stroke:#000000; stroke-linecap:round; stroke-linejoin:round; stroke-width:2; stroke-opacity:0.1; fill:none" points="1439.92,587.099 2352.76,587.099 "/>
<polyline clip-path="url(#clip583)" style="stroke:#000000; stroke-linecap:round; stroke-linejoin:round; stroke-width:2; stroke-opacity:0.1; fill:none" points="1439.92,455.793 2352.76,455.793 "/>
<polyline clip-path="url(#clip583)" style="stroke:#000000; stroke-linecap:round; stroke-linejoin:round; stroke-width:2; stroke-opacity:0.1; fill:none" points="1439.92,324.486 2352.76,324.486 "/>
<polyline clip-path="url(#clip583)" style="stroke:#000000; stroke-linecap:round; stroke-linejoin:round; stroke-width:2; stroke-opacity:0.1; fill:none" points="1439.92,193.18 2352.76,193.18 "/>
<polyline clip-path="url(#clip583)" style="stroke:#000000; stroke-linecap:round; stroke-linejoin:round; stroke-width:2; stroke-opacity:0.1; fill:none" points="1439.92,61.8743 2352.76,61.8743 "/>
<polyline clip-path="url(#clip580)" style="stroke:#000000; stroke-linecap:round; stroke-linejoin:round; stroke-width:4; stroke-opacity:1; fill:none" points="1439.92,623.18 2352.76,623.18 "/>
<polyline clip-path="url(#clip580)" style="stroke:#000000; stroke-linecap:round; stroke-linejoin:round; stroke-width:4; stroke-opacity:1; fill:none" points="1465.76,623.18 1465.76,604.282 "/>
<polyline clip-path="url(#clip580)" style="stroke:#000000; stroke-linecap:round; stroke-linejoin:round; stroke-width:4; stroke-opacity:1; fill:none" points="1719.04,623.18 1719.04,604.282 "/>
<polyline clip-path="url(#clip580)" style="stroke:#000000; stroke-linecap:round; stroke-linejoin:round; stroke-width:4; stroke-opacity:1; fill:none" points="1972.32,623.18 1972.32,604.282 "/>
<polyline clip-path="url(#clip580)" style="stroke:#000000; stroke-linecap:round; stroke-linejoin:round; stroke-width:4; stroke-opacity:1; fill:none" points="2225.61,623.18 2225.61,604.282 "/>
<path clip-path="url(#clip580)" d="M1465.76 654.099 Q1462.15 654.099 1460.32 657.663 Q1458.51 661.205 1458.51 668.335 Q1458.51 675.441 1460.32 679.006 Q1462.15 682.547 1465.76 682.547 Q1469.39 682.547 1471.2 679.006 Q1473.03 675.441 1473.03 668.335 Q1473.03 661.205 1471.2 657.663 Q1469.39 654.099 1465.76 654.099 M1465.76 650.395 Q1471.57 650.395 1474.62 655.001 Q1477.7 659.585 1477.7 668.335 Q1477.7 677.061 1474.62 681.668 Q1471.57 686.251 1465.76 686.251 Q1459.95 686.251 1456.87 681.668 Q1453.81 677.061 1453.81 668.335 Q1453.81 659.585 1456.87 655.001 Q1459.95 650.395 1465.76 650.395 Z" fill="#000000" fill-rule="nonzero" fill-opacity="1" /><path clip-path="url(#clip580)" d="M1709.42 681.645 L1717.06 681.645 L1717.06 655.279 L1708.75 656.946 L1708.75 652.687 L1717.02 651.02 L1721.69 651.02 L1721.69 681.645 L1729.33 681.645 L1729.33 685.58 L1709.42 685.58 L1709.42 681.645 Z" fill="#000000" fill-rule="nonzero" fill-opacity="1" /><path clip-path="url(#clip580)" d="M1966.98 681.645 L1983.3 681.645 L1983.3 685.58 L1961.35 685.58 L1961.35 681.645 Q1964.01 678.89 1968.6 674.26 Q1973.2 669.608 1974.39 668.265 Q1976.63 665.742 1977.51 664.006 Q1978.41 662.247 1978.41 660.557 Q1978.41 657.802 1976.47 656.066 Q1974.55 654.33 1971.45 654.33 Q1969.25 654.33 1966.79 655.094 Q1964.36 655.858 1961.58 657.409 L1961.58 652.687 Q1964.41 651.552 1966.86 650.974 Q1969.32 650.395 1971.35 650.395 Q1976.72 650.395 1979.92 653.08 Q1983.11 655.765 1983.11 660.256 Q1983.11 662.386 1982.3 664.307 Q1981.51 666.205 1979.41 668.798 Q1978.83 669.469 1975.73 672.686 Q1972.63 675.881 1966.98 681.645 Z" fill="#000000" fill-rule="nonzero" fill-opacity="1" /><path clip-path="url(#clip580)" d="M2229.86 666.946 Q2233.21 667.663 2235.09 669.932 Q2236.99 672.2 2236.99 675.534 Q2236.99 680.649 2233.47 683.45 Q2229.95 686.251 2223.47 686.251 Q2221.29 686.251 2218.98 685.811 Q2216.68 685.395 2214.23 684.538 L2214.23 680.024 Q2216.18 681.159 2218.49 681.737 Q2220.8 682.316 2223.33 682.316 Q2227.73 682.316 2230.02 680.58 Q2232.33 678.844 2232.33 675.534 Q2232.33 672.478 2230.18 670.765 Q2228.05 669.029 2224.23 669.029 L2220.2 669.029 L2220.2 665.186 L2224.42 665.186 Q2227.86 665.186 2229.69 663.821 Q2231.52 662.432 2231.52 659.839 Q2231.52 657.177 2229.62 655.765 Q2227.75 654.33 2224.23 654.33 Q2222.31 654.33 2220.11 654.747 Q2217.91 655.163 2215.27 656.043 L2215.27 651.876 Q2217.93 651.136 2220.25 650.765 Q2222.59 650.395 2224.65 650.395 Q2229.97 650.395 2233.07 652.825 Q2236.17 655.233 2236.17 659.353 Q2236.17 662.223 2234.53 664.214 Q2232.89 666.182 2229.86 666.946 Z" fill="#000000" fill-rule="nonzero" fill-opacity="1" /><path clip-path="url(#clip580)" d="M1766.51 720.524 L1806.71 720.524 L1806.71 725.935 L1789.84 725.935 L1789.84 768.044 L1783.38 768.044 L1783.38 725.935 L1766.51 725.935 L1766.51 720.524 Z" fill="#000000" fill-rule="nonzero" fill-opacity="1" /><path clip-path="url(#clip580)" d="M1810.66 732.396 L1816.51 732.396 L1816.51 768.044 L1810.66 768.044 L1810.66 732.396 M1810.66 718.519 L1816.51 718.519 L1816.51 725.935 L1810.66 725.935 L1810.66 718.519 Z" fill="#000000" fill-rule="nonzero" fill-opacity="1" /><path clip-path="url(#clip580)" d="M1856.52 739.239 Q1858.72 735.292 1861.77 733.414 Q1864.83 731.537 1868.97 731.537 Q1874.54 731.537 1877.56 735.451 Q1880.58 739.335 1880.58 746.528 L1880.58 768.044 L1874.7 768.044 L1874.7 746.719 Q1874.7 741.594 1872.88 739.112 Q1871.07 736.629 1867.34 736.629 Q1862.79 736.629 1860.15 739.653 Q1857.51 742.677 1857.51 747.896 L1857.51 768.044 L1851.62 768.044 L1851.62 746.719 Q1851.62 741.563 1849.81 739.112 Q1847.99 736.629 1844.2 736.629 Q1839.72 736.629 1837.08 739.685 Q1834.43 742.708 1834.43 747.896 L1834.43 768.044 L1828.55 768.044 L1828.55 732.396 L1834.43 732.396 L1834.43 737.934 Q1836.44 734.656 1839.24 733.096 Q1842.04 731.537 1845.89 731.537 Q1849.77 731.537 1852.48 733.51 Q1855.22 735.483 1856.52 739.239 Z" fill="#000000" fill-rule="nonzero" fill-opacity="1" /><path clip-path="url(#clip580)" d="M1922.76 748.756 L1922.76 751.62 L1895.83 751.62 Q1896.21 757.668 1899.46 760.851 Q1902.74 764.002 1908.56 764.002 Q1911.94 764.002 1915.09 763.174 Q1918.27 762.347 1921.39 760.691 L1921.39 766.23 Q1918.24 767.566 1914.93 768.267 Q1911.62 768.967 1908.21 768.967 Q1899.68 768.967 1894.68 764.002 Q1889.72 759.036 1889.72 750.57 Q1889.72 741.817 1894.43 736.693 Q1899.17 731.537 1907.19 731.537 Q1914.39 731.537 1918.56 736.183 Q1922.76 740.799 1922.76 748.756 M1916.9 747.037 Q1916.84 742.231 1914.2 739.366 Q1911.59 736.502 1907.26 736.502 Q1902.36 736.502 1899.4 739.271 Q1896.47 742.04 1896.02 747.069 L1916.9 747.037 Z" fill="#000000" fill-rule="nonzero" fill-opacity="1" /><path clip-path="url(#clip580)" d="M1967.16 718.582 Q1962.89 725.903 1960.82 733.064 Q1958.76 740.226 1958.76 747.578 Q1958.76 754.93 1960.82 762.156 Q1962.93 769.349 1967.16 776.638 L1962.07 776.638 Q1957.29 769.158 1954.9 761.933 Q1952.55 754.708 1952.55 747.578 Q1952.55 740.48 1954.9 733.287 Q1957.26 726.094 1962.07 718.582 L1967.16 718.582 Z" fill="#000000" fill-rule="nonzero" fill-opacity="1" /><path clip-path="url(#clip580)" d="M2001.25 733.446 L2001.25 738.984 Q1998.76 737.711 1996.09 737.075 Q1993.42 736.438 1990.55 736.438 Q1986.19 736.438 1984 737.775 Q1981.83 739.112 1981.83 741.785 Q1981.83 743.822 1983.39 745 Q1984.95 746.146 1989.66 747.196 L1991.67 747.642 Q1997.9 748.979 2000.51 751.429 Q2003.16 753.848 2003.16 758.209 Q2003.16 763.174 1999.21 766.07 Q1995.29 768.967 1988.42 768.967 Q1985.56 768.967 1982.44 768.394 Q1979.35 767.853 1975.91 766.739 L1975.91 760.691 Q1979.16 762.378 1982.31 763.238 Q1985.46 764.065 1988.55 764.065 Q1992.68 764.065 1994.91 762.665 Q1997.14 761.233 1997.14 758.654 Q1997.14 756.267 1995.52 754.994 Q1993.93 753.721 1988.48 752.543 L1986.45 752.066 Q1981 750.92 1978.58 748.565 Q1976.17 746.178 1976.17 742.04 Q1976.17 737.011 1979.73 734.274 Q1983.3 731.537 1989.85 731.537 Q1993.1 731.537 1995.96 732.014 Q1998.83 732.491 2001.25 733.446 Z" fill="#000000" fill-rule="nonzero" fill-opacity="1" /><path clip-path="url(#clip580)" d="M2011.56 718.582 L2016.65 718.582 Q2021.43 726.094 2023.78 733.287 Q2026.17 740.48 2026.17 747.578 Q2026.17 754.708 2023.78 761.933 Q2021.43 769.158 2016.65 776.638 L2011.56 776.638 Q2015.79 769.349 2017.86 762.156 Q2019.96 754.93 2019.96 747.578 Q2019.96 740.226 2017.86 733.064 Q2015.79 725.903 2011.56 718.582 Z" fill="#000000" fill-rule="nonzero" fill-opacity="1" /><polyline clip-path="url(#clip580)" style="stroke:#000000; stroke-linecap:round; stroke-linejoin:round; stroke-width:4; stroke-opacity:1; fill:none" points="1439.92,623.18 1439.92,47.2441 "/>
<polyline clip-path="url(#clip580)" style="stroke:#000000; stroke-linecap:round; stroke-linejoin:round; stroke-width:4; stroke-opacity:1; fill:none" points="1439.92,587.099 1458.82,587.099 "/>
<polyline clip-path="url(#clip580)" style="stroke:#000000; stroke-linecap:round; stroke-linejoin:round; stroke-width:4; stroke-opacity:1; fill:none" points="1439.92,455.793 1458.82,455.793 "/>
<polyline clip-path="url(#clip580)" style="stroke:#000000; stroke-linecap:round; stroke-linejoin:round; stroke-width:4; stroke-opacity:1; fill:none" points="1439.92,324.486 1458.82,324.486 "/>
<polyline clip-path="url(#clip580)" style="stroke:#000000; stroke-linecap:round; stroke-linejoin:round; stroke-width:4; stroke-opacity:1; fill:none" points="1439.92,193.18 1458.82,193.18 "/>
<polyline clip-path="url(#clip580)" style="stroke:#000000; stroke-linecap:round; stroke-linejoin:round; stroke-width:4; stroke-opacity:1; fill:none" points="1439.92,61.8743 1458.82,61.8743 "/>
<path clip-path="url(#clip580)" d="M1346.75 572.897 Q1343.14 572.897 1341.31 576.462 Q1339.5 580.004 1339.5 587.133 Q1339.5 594.24 1341.31 597.805 Q1343.14 601.346 1346.75 601.346 Q1350.38 601.346 1352.19 597.805 Q1354.02 594.24 1354.02 587.133 Q1354.02 580.004 1352.19 576.462 Q1350.38 572.897 1346.75 572.897 M1346.75 569.194 Q1352.56 569.194 1355.61 573.8 Q1358.69 578.383 1358.69 587.133 Q1358.69 595.86 1355.61 600.467 Q1352.56 605.05 1346.75 605.05 Q1340.94 605.05 1337.86 600.467 Q1334.8 595.86 1334.8 587.133 Q1334.8 578.383 1337.86 573.8 Q1340.94 569.194 1346.75 569.194 Z" fill="#000000" fill-rule="nonzero" fill-opacity="1" /><path clip-path="url(#clip580)" d="M1366.91 598.499 L1371.79 598.499 L1371.79 604.379 L1366.91 604.379 L1366.91 598.499 Z" fill="#000000" fill-rule="nonzero" fill-opacity="1" /><path clip-path="url(#clip580)" d="M1391.98 572.897 Q1388.37 572.897 1386.54 576.462 Q1384.73 580.004 1384.73 587.133 Q1384.73 594.24 1386.54 597.805 Q1388.37 601.346 1391.98 601.346 Q1395.61 601.346 1397.42 597.805 Q1399.25 594.24 1399.25 587.133 Q1399.25 580.004 1397.42 576.462 Q1395.61 572.897 1391.98 572.897 M1391.98 569.194 Q1397.79 569.194 1400.85 573.8 Q1403.92 578.383 1403.92 587.133 Q1403.92 595.86 1400.85 600.467 Q1397.79 605.05 1391.98 605.05 Q1386.17 605.05 1383.09 600.467 Q1380.04 595.86 1380.04 587.133 Q1380.04 578.383 1383.09 573.8 Q1386.17 569.194 1391.98 569.194 Z" fill="#000000" fill-rule="nonzero" fill-opacity="1" /><path clip-path="url(#clip580)" d="M1341.77 469.137 L1358.09 469.137 L1358.09 473.073 L1336.15 473.073 L1336.15 469.137 Q1338.81 466.383 1343.39 461.753 Q1348 457.1 1349.18 455.758 Q1351.42 453.235 1352.3 451.499 Q1353.21 449.739 1353.21 448.05 Q1353.21 445.295 1351.26 443.559 Q1349.34 441.823 1346.24 441.823 Q1344.04 441.823 1341.59 442.587 Q1339.16 443.351 1336.38 444.901 L1336.38 440.179 Q1339.2 439.045 1341.66 438.466 Q1344.11 437.888 1346.15 437.888 Q1351.52 437.888 1354.71 440.573 Q1357.91 443.258 1357.91 447.749 Q1357.91 449.878 1357.1 451.8 Q1356.31 453.698 1354.2 456.29 Q1353.62 456.962 1350.52 460.179 Q1347.42 463.374 1341.77 469.137 Z" fill="#000000" fill-rule="nonzero" fill-opacity="1" /><path clip-path="url(#clip580)" d="M1367.91 467.193 L1372.79 467.193 L1372.79 473.073 L1367.91 473.073 L1367.91 467.193 Z" fill="#000000" fill-rule="nonzero" fill-opacity="1" /><path clip-path="url(#clip580)" d="M1383.02 438.513 L1401.38 438.513 L1401.38 442.448 L1387.3 442.448 L1387.3 450.92 Q1388.32 450.573 1389.34 450.411 Q1390.36 450.225 1391.38 450.225 Q1397.16 450.225 1400.54 453.397 Q1403.92 456.568 1403.92 461.985 Q1403.92 467.563 1400.45 470.665 Q1396.98 473.744 1390.66 473.744 Q1388.48 473.744 1386.22 473.373 Q1383.97 473.003 1381.56 472.262 L1381.56 467.563 Q1383.65 468.698 1385.87 469.253 Q1388.09 469.809 1390.57 469.809 Q1394.57 469.809 1396.91 467.702 Q1399.25 465.596 1399.25 461.985 Q1399.25 458.374 1396.91 456.267 Q1394.57 454.161 1390.57 454.161 Q1388.69 454.161 1386.82 454.577 Q1384.97 454.994 1383.02 455.874 L1383.02 438.513 Z" fill="#000000" fill-rule="nonzero" fill-opacity="1" /><path clip-path="url(#clip580)" d="M1336.79 307.206 L1355.15 307.206 L1355.15 311.142 L1341.08 311.142 L1341.08 319.614 Q1342.1 319.267 1343.11 319.105 Q1344.13 318.919 1345.15 318.919 Q1350.94 318.919 1354.32 322.091 Q1357.7 325.262 1357.7 330.679 Q1357.7 336.257 1354.23 339.359 Q1350.75 342.438 1344.43 342.438 Q1342.26 342.438 1339.99 342.067 Q1337.74 341.697 1335.34 340.956 L1335.34 336.257 Q1337.42 337.392 1339.64 337.947 Q1341.86 338.503 1344.34 338.503 Q1348.35 338.503 1350.68 336.396 Q1353.02 334.29 1353.02 330.679 Q1353.02 327.067 1350.68 324.961 Q1348.35 322.855 1344.34 322.855 Q1342.47 322.855 1340.59 323.271 Q1338.74 323.688 1336.79 324.568 L1336.79 307.206 Z" fill="#000000" fill-rule="nonzero" fill-opacity="1" /><path clip-path="url(#clip580)" d="M1366.91 335.887 L1371.79 335.887 L1371.79 341.766 L1366.91 341.766 L1366.91 335.887 Z" fill="#000000" fill-rule="nonzero" fill-opacity="1" /><path clip-path="url(#clip580)" d="M1391.98 310.285 Q1388.37 310.285 1386.54 313.85 Q1384.73 317.392 1384.73 324.521 Q1384.73 331.628 1386.54 335.192 Q1388.37 338.734 1391.98 338.734 Q1395.61 338.734 1397.42 335.192 Q1399.25 331.628 1399.25 324.521 Q1399.25 317.392 1397.42 313.85 Q1395.61 310.285 1391.98 310.285 M1391.98 306.581 Q1397.79 306.581 1400.85 311.188 Q1403.92 315.771 1403.92 324.521 Q1403.92 333.248 1400.85 337.854 Q1397.79 342.438 1391.98 342.438 Q1386.17 342.438 1383.09 337.854 Q1380.04 333.248 1380.04 324.521 Q1380.04 315.771 1383.09 311.188 Q1386.17 306.581 1391.98 306.581 Z" fill="#000000" fill-rule="nonzero" fill-opacity="1" /><path clip-path="url(#clip580)" d="M1336.56 175.9 L1358.79 175.9 L1358.79 177.891 L1346.24 210.46 L1341.35 210.46 L1353.16 179.836 L1336.56 179.836 L1336.56 175.9 Z" fill="#000000" fill-rule="nonzero" fill-opacity="1" /><path clip-path="url(#clip580)" d="M1367.91 204.581 L1372.79 204.581 L1372.79 210.46 L1367.91 210.46 L1367.91 204.581 Z" fill="#000000" fill-rule="nonzero" fill-opacity="1" /><path clip-path="url(#clip580)" d="M1383.02 175.9 L1401.38 175.9 L1401.38 179.836 L1387.3 179.836 L1387.3 188.308 Q1388.32 187.961 1389.34 187.798 Q1390.36 187.613 1391.38 187.613 Q1397.16 187.613 1400.54 190.785 Q1403.92 193.956 1403.92 199.373 Q1403.92 204.951 1400.45 208.053 Q1396.98 211.132 1390.66 211.132 Q1388.48 211.132 1386.22 210.761 Q1383.97 210.391 1381.56 209.65 L1381.56 204.951 Q1383.65 206.085 1385.87 206.641 Q1388.09 207.197 1390.57 207.197 Q1394.57 207.197 1396.91 205.09 Q1399.25 202.984 1399.25 199.373 Q1399.25 195.761 1396.91 193.655 Q1394.57 191.548 1390.57 191.548 Q1388.69 191.548 1386.82 191.965 Q1384.97 192.382 1383.02 193.261 L1383.02 175.9 Z" fill="#000000" fill-rule="nonzero" fill-opacity="1" /><path clip-path="url(#clip580)" d="M1307.4 75.2192 L1315.04 75.2192 L1315.04 48.8536 L1306.73 50.5202 L1306.73 46.261 L1314.99 44.5943 L1319.67 44.5943 L1319.67 75.2192 L1327.3 75.2192 L1327.3 79.1543 L1307.4 79.1543 L1307.4 75.2192 Z" fill="#000000" fill-rule="nonzero" fill-opacity="1" /><path clip-path="url(#clip580)" d="M1346.75 47.673 Q1343.14 47.673 1341.31 51.2378 Q1339.5 54.7795 1339.5 61.9091 Q1339.5 69.0155 1341.31 72.5803 Q1343.14 76.1219 1346.75 76.1219 Q1350.38 76.1219 1352.19 72.5803 Q1354.02 69.0155 1354.02 61.9091 Q1354.02 54.7795 1352.19 51.2378 Q1350.38 47.673 1346.75 47.673 M1346.75 43.9693 Q1352.56 43.9693 1355.61 48.5758 Q1358.69 53.1591 1358.69 61.9091 Q1358.69 70.6359 1355.61 75.2423 Q1352.56 79.8256 1346.75 79.8256 Q1340.94 79.8256 1337.86 75.2423 Q1334.8 70.6359 1334.8 61.9091 Q1334.8 53.1591 1337.86 48.5758 Q1340.94 43.9693 1346.75 43.9693 Z" fill="#000000" fill-rule="nonzero" fill-opacity="1" /><path clip-path="url(#clip580)" d="M1366.91 73.2747 L1371.79 73.2747 L1371.79 79.1543 L1366.91 79.1543 L1366.91 73.2747 Z" fill="#000000" fill-rule="nonzero" fill-opacity="1" /><path clip-path="url(#clip580)" d="M1391.98 47.673 Q1388.37 47.673 1386.54 51.2378 Q1384.73 54.7795 1384.73 61.9091 Q1384.73 69.0155 1386.54 72.5803 Q1388.37 76.1219 1391.98 76.1219 Q1395.61 76.1219 1397.42 72.5803 Q1399.25 69.0155 1399.25 61.9091 Q1399.25 54.7795 1397.42 51.2378 Q1395.61 47.673 1391.98 47.673 M1391.98 43.9693 Q1397.79 43.9693 1400.85 48.5758 Q1403.92 53.1591 1403.92 61.9091 Q1403.92 70.6359 1400.85 75.2423 Q1397.79 79.8256 1391.98 79.8256 Q1386.17 79.8256 1383.09 75.2423 Q1380.04 70.6359 1380.04 61.9091 Q1380.04 53.1591 1383.09 48.5758 Q1386.17 43.9693 1391.98 43.9693 Z" fill="#000000" fill-rule="nonzero" fill-opacity="1" /><path clip-path="url(#clip580)" d="M1229.04 406.642 Q1231.3 406.642 1231.3 409.895 L1231.3 420.974 L1253.87 425.386 Q1254.45 425.483 1254.77 425.612 Q1255.1 425.708 1255.64 425.998 Q1256.16 426.256 1256.42 426.803 Q1256.71 427.318 1256.71 428.091 Q1256.71 429.058 1256.13 429.541 Q1255.58 429.992 1254.9 429.992 Q1254.48 429.992 1252.49 429.347 L1231.3 422.874 L1231.3 428.349 Q1231.3 433.502 1236.38 436.723 Q1237.06 437.238 1237.12 437.528 Q1237.16 437.657 1237.16 437.785 Q1237.16 438.14 1237 438.365 Q1236.84 438.558 1236.67 438.558 L1236.51 438.59 Q1236.29 438.59 1235.39 438.075 Q1234.45 437.528 1233.07 436.562 Q1231.68 435.563 1230.59 434.565 Q1229.17 433.244 1228.43 431.763 Q1227.66 430.281 1227.56 429.541 Q1227.46 428.768 1227.46 427.769 L1227.46 409.283 Q1227.46 408.446 1227.53 407.995 Q1227.56 407.544 1227.95 407.093 Q1228.3 406.642 1229.04 406.642 Z" fill="#000000" fill-rule="nonzero" fill-opacity="1" /><path clip-path="url(#clip580)" d="M1206.44 369.142 Q1213.76 373.407 1220.92 375.476 Q1228.08 377.544 1235.44 377.544 Q1242.79 377.544 1250.01 375.476 Q1257.21 373.375 1264.49 369.142 L1264.49 374.234 Q1257.01 379.009 1249.79 381.396 Q1242.56 383.751 1235.44 383.751 Q1228.34 383.751 1221.14 381.396 Q1213.95 379.04 1206.44 374.234 L1206.44 369.142 Z" fill="#000000" fill-rule="nonzero" fill-opacity="1" /><path clip-path="url(#clip580)" d="M1208.38 357.524 L1208.38 348.867 L1248.13 327.796 L1208.38 327.796 L1208.38 321.558 L1255.9 321.558 L1255.9 330.215 L1216.15 351.286 L1255.9 351.286 L1255.9 357.524 L1208.38 357.524 Z" fill="#000000" fill-rule="nonzero" fill-opacity="1" /><path clip-path="url(#clip580)" d="M1227.1 281.263 Q1223.15 279.067 1221.27 276.011 Q1219.39 272.956 1219.39 268.818 Q1219.39 263.248 1223.31 260.224 Q1227.19 257.201 1234.38 257.201 L1255.9 257.201 L1255.9 263.089 L1234.58 263.089 Q1229.45 263.089 1226.97 264.903 Q1224.49 266.718 1224.49 270.441 Q1224.49 274.993 1227.51 277.635 Q1230.53 280.276 1235.75 280.276 L1255.9 280.276 L1255.9 286.165 L1234.58 286.165 Q1229.42 286.165 1226.97 287.979 Q1224.49 289.793 1224.49 293.581 Q1224.49 298.069 1227.54 300.71 Q1230.57 303.352 1235.75 303.352 L1255.9 303.352 L1255.9 309.24 L1220.25 309.24 L1220.25 303.352 L1225.79 303.352 Q1222.51 301.347 1220.95 298.546 Q1219.39 295.745 1219.39 291.894 Q1219.39 288.011 1221.37 285.305 Q1223.34 282.568 1227.1 281.263 Z" fill="#000000" fill-rule="nonzero" fill-opacity="1" /><path clip-path="url(#clip580)" d="M1206.44 246.443 L1206.44 241.35 Q1213.95 236.576 1221.14 234.221 Q1228.34 231.833 1235.44 231.833 Q1242.56 231.833 1249.79 234.221 Q1257.01 236.576 1264.49 241.35 L1264.49 246.443 Q1257.21 242.21 1250.01 240.141 Q1242.79 238.04 1235.44 238.04 Q1228.08 238.04 1220.92 240.141 Q1213.76 242.21 1206.44 246.443 Z" fill="#000000" fill-rule="nonzero" fill-opacity="1" /><polyline clip-path="url(#clip583)" style="stroke:#009af9; stroke-linecap:round; stroke-linejoin:round; stroke-width:4; stroke-opacity:1; fill:none" points="1465.76,63.5442 1491.09,63.5442 1491.09,606.88 1516.42,606.88 1516.42,566.095 1541.74,566.095 1541.74,541.23 1567.07,541.23 1567.07,557.291 1592.4,557.291 1592.4,592.327 1617.73,592.327 1617.73,596.059 1643.06,596.059 1643.06,598.396 1668.39,598.396 1668.39,599.605 1693.71,599.605 1693.71,599.665 1719.04,599.665 1719.04,598.944 1744.37,598.944 1744.37,597.806 1769.7,597.806 1769.7,596.502 1795.03,596.502 1795.03,595.181 1820.36,595.181 1820.36,593.929 1845.68,593.929 1845.68,592.792 1871.01,592.792 1871.01,591.789 1896.34,591.789 1896.34,590.925 1921.67,590.925 1921.67,590.192 1947,590.192 1947,589.58 1972.32,589.58 1972.32,589.074 1997.65,589.074 1997.65,588.662 2022.98,588.662 2022.98,588.325 2048.31,588.325 2048.31,588.058 2073.64,588.058 2073.64,587.844 2098.97,587.844 2098.97,587.674 2124.29,587.674 2124.29,587.541 2149.62,587.541 2149.62,587.435 2174.95,587.435 2174.95,587.355 2200.28,587.355 2200.28,587.292 2225.61,587.292 2225.61,587.244 2250.94,587.244 2250.94,587.207 2276.26,587.207 2276.26,587.179 2301.59,587.179 2301.59,587.158 2326.92,587.158 2326.92,587.141 "/>
<path clip-path="url(#clip580)" d="M232.389 1423.18 L2352.76 1423.18 L2352.76 847.244 L232.389 847.244  Z" fill="#ffffff" fill-rule="evenodd" fill-opacity="1"/>
<defs>
  <clipPath id="clip584">
    <rect x="232" y="847" width="2121" height="577"/>
  </clipPath>
</defs>
<polyline clip-path="url(#clip584)" style="stroke:#000000; stroke-linecap:round; stroke-linejoin:round; stroke-width:2; stroke-opacity:0.1; fill:none" points="292.4,1423.18 292.4,847.244 "/>
<polyline clip-path="url(#clip584)" style="stroke:#000000; stroke-linecap:round; stroke-linejoin:round; stroke-width:2; stroke-opacity:0.1; fill:none" points="880.737,1423.18 880.737,847.244 "/>
<polyline clip-path="url(#clip584)" style="stroke:#000000; stroke-linecap:round; stroke-linejoin:round; stroke-width:2; stroke-opacity:0.1; fill:none" points="1469.07,1423.18 1469.07,847.244 "/>
<polyline clip-path="url(#clip584)" style="stroke:#000000; stroke-linecap:round; stroke-linejoin:round; stroke-width:2; stroke-opacity:0.1; fill:none" points="2057.41,1423.18 2057.41,847.244 "/>
<polyline clip-path="url(#clip584)" style="stroke:#000000; stroke-linecap:round; stroke-linejoin:round; stroke-width:2; stroke-opacity:0.1; fill:none" points="232.389,1411.17 2352.76,1411.17 "/>
<polyline clip-path="url(#clip584)" style="stroke:#000000; stroke-linecap:round; stroke-linejoin:round; stroke-width:2; stroke-opacity:0.1; fill:none" points="232.389,1290.72 2352.76,1290.72 "/>
<polyline clip-path="url(#clip584)" style="stroke:#000000; stroke-linecap:round; stroke-linejoin:round; stroke-width:2; stroke-opacity:0.1; fill:none" points="232.389,1170.26 2352.76,1170.26 "/>
<polyline clip-path="url(#clip584)" style="stroke:#000000; stroke-linecap:round; stroke-linejoin:round; stroke-width:2; stroke-opacity:0.1; fill:none" points="232.389,1049.8 2352.76,1049.8 "/>
<polyline clip-path="url(#clip584)" style="stroke:#000000; stroke-linecap:round; stroke-linejoin:round; stroke-width:2; stroke-opacity:0.1; fill:none" points="232.389,929.344 2352.76,929.344 "/>
<polyline clip-path="url(#clip580)" style="stroke:#000000; stroke-linecap:round; stroke-linejoin:round; stroke-width:4; stroke-opacity:1; fill:none" points="232.389,1423.18 2352.76,1423.18 "/>
<polyline clip-path="url(#clip580)" style="stroke:#000000; stroke-linecap:round; stroke-linejoin:round; stroke-width:4; stroke-opacity:1; fill:none" points="292.4,1423.18 292.4,1404.28 "/>
<polyline clip-path="url(#clip580)" style="stroke:#000000; stroke-linecap:round; stroke-linejoin:round; stroke-width:4; stroke-opacity:1; fill:none" points="880.737,1423.18 880.737,1404.28 "/>
<polyline clip-path="url(#clip580)" style="stroke:#000000; stroke-linecap:round; stroke-linejoin:round; stroke-width:4; stroke-opacity:1; fill:none" points="1469.07,1423.18 1469.07,1404.28 "/>
<polyline clip-path="url(#clip580)" style="stroke:#000000; stroke-linecap:round; stroke-linejoin:round; stroke-width:4; stroke-opacity:1; fill:none" points="2057.41,1423.18 2057.41,1404.28 "/>
<path clip-path="url(#clip580)" d="M292.4 1454.1 Q288.789 1454.1 286.96 1457.66 Q285.154 1461.2 285.154 1468.33 Q285.154 1475.44 286.96 1479.01 Q288.789 1482.55 292.4 1482.55 Q296.034 1482.55 297.84 1479.01 Q299.668 1475.44 299.668 1468.33 Q299.668 1461.2 297.84 1457.66 Q296.034 1454.1 292.4 1454.1 M292.4 1450.39 Q298.21 1450.39 301.265 1455 Q304.344 1459.58 304.344 1468.33 Q304.344 1477.06 301.265 1481.67 Q298.21 1486.25 292.4 1486.25 Q286.59 1486.25 283.511 1481.67 Q280.455 1477.06 280.455 1468.33 Q280.455 1459.58 283.511 1455 Q286.59 1450.39 292.4 1450.39 Z" fill="#000000" fill-rule="nonzero" fill-opacity="1" /><path clip-path="url(#clip580)" d="M871.119 1481.64 L878.758 1481.64 L878.758 1455.28 L870.447 1456.95 L870.447 1452.69 L878.711 1451.02 L883.387 1451.02 L883.387 1481.64 L891.026 1481.64 L891.026 1485.58 L871.119 1485.58 L871.119 1481.64 Z" fill="#000000" fill-rule="nonzero" fill-opacity="1" /><path clip-path="url(#clip580)" d="M1463.73 1481.64 L1480.05 1481.64 L1480.05 1485.58 L1458.1 1485.58 L1458.1 1481.64 Q1460.76 1478.89 1465.35 1474.26 Q1469.95 1469.61 1471.13 1468.27 Q1473.38 1465.74 1474.26 1464.01 Q1475.16 1462.25 1475.16 1460.56 Q1475.16 1457.8 1473.22 1456.07 Q1471.3 1454.33 1468.19 1454.33 Q1466 1454.33 1463.54 1455.09 Q1461.11 1455.86 1458.33 1457.41 L1458.33 1452.69 Q1461.16 1451.55 1463.61 1450.97 Q1466.06 1450.39 1468.1 1450.39 Q1473.47 1450.39 1476.67 1453.08 Q1479.86 1455.77 1479.86 1460.26 Q1479.86 1462.39 1479.05 1464.31 Q1478.26 1466.2 1476.16 1468.8 Q1475.58 1469.47 1472.48 1472.69 Q1469.37 1475.88 1463.73 1481.64 Z" fill="#000000" fill-rule="nonzero" fill-opacity="1" /><path clip-path="url(#clip580)" d="M2061.66 1466.95 Q2065.01 1467.66 2066.89 1469.93 Q2068.79 1472.2 2068.79 1475.53 Q2068.79 1480.65 2065.27 1483.45 Q2061.75 1486.25 2055.27 1486.25 Q2053.09 1486.25 2050.78 1485.81 Q2048.49 1485.39 2046.03 1484.54 L2046.03 1480.02 Q2047.98 1481.16 2050.29 1481.74 Q2052.61 1482.32 2055.13 1482.32 Q2059.53 1482.32 2061.82 1480.58 Q2064.14 1478.84 2064.14 1475.53 Q2064.14 1472.48 2061.98 1470.77 Q2059.85 1469.03 2056.03 1469.03 L2052.01 1469.03 L2052.01 1465.19 L2056.22 1465.19 Q2059.67 1465.19 2061.5 1463.82 Q2063.33 1462.43 2063.33 1459.84 Q2063.33 1457.18 2061.43 1455.77 Q2059.55 1454.33 2056.03 1454.33 Q2054.11 1454.33 2051.91 1454.75 Q2049.71 1455.16 2047.08 1456.04 L2047.08 1451.88 Q2049.74 1451.14 2052.05 1450.77 Q2054.39 1450.39 2056.45 1450.39 Q2061.77 1450.39 2064.88 1452.83 Q2067.98 1455.23 2067.98 1459.35 Q2067.98 1462.22 2066.33 1464.21 Q2064.69 1466.18 2061.66 1466.95 Z" fill="#000000" fill-rule="nonzero" fill-opacity="1" /><path clip-path="url(#clip580)" d="M1162.74 1520.52 L1202.94 1520.52 L1202.94 1525.93 L1186.07 1525.93 L1186.07 1568.04 L1179.61 1568.04 L1179.61 1525.93 L1162.74 1525.93 L1162.74 1520.52 Z" fill="#000000" fill-rule="nonzero" fill-opacity="1" /><path clip-path="url(#clip580)" d="M1206.89 1532.4 L1212.75 1532.4 L1212.75 1568.04 L1206.89 1568.04 L1206.89 1532.4 M1206.89 1518.52 L1212.75 1518.52 L1212.75 1525.93 L1206.89 1525.93 L1206.89 1518.52 Z" fill="#000000" fill-rule="nonzero" fill-opacity="1" /><path clip-path="url(#clip580)" d="M1252.76 1539.24 Q1254.95 1535.29 1258.01 1533.41 Q1261.06 1531.54 1265.2 1531.54 Q1270.77 1531.54 1273.79 1535.45 Q1276.82 1539.33 1276.82 1546.53 L1276.82 1568.04 L1270.93 1568.04 L1270.93 1546.72 Q1270.93 1541.59 1269.11 1539.11 Q1267.3 1536.63 1263.58 1536.63 Q1259.03 1536.63 1256.38 1539.65 Q1253.74 1542.68 1253.74 1547.9 L1253.74 1568.04 L1247.85 1568.04 L1247.85 1546.72 Q1247.85 1541.56 1246.04 1539.11 Q1244.23 1536.63 1240.44 1536.63 Q1235.95 1536.63 1233.31 1539.68 Q1230.67 1542.71 1230.67 1547.9 L1230.67 1568.04 L1224.78 1568.04 L1224.78 1532.4 L1230.67 1532.4 L1230.67 1537.93 Q1232.67 1534.66 1235.47 1533.1 Q1238.27 1531.54 1242.12 1531.54 Q1246.01 1531.54 1248.71 1533.51 Q1251.45 1535.48 1252.76 1539.24 Z" fill="#000000" fill-rule="nonzero" fill-opacity="1" /><path clip-path="url(#clip580)" d="M1318.99 1548.76 L1318.99 1551.62 L1292.06 1551.62 Q1292.45 1557.67 1295.69 1560.85 Q1298.97 1564 1304.79 1564 Q1308.17 1564 1311.32 1563.17 Q1314.5 1562.35 1317.62 1560.69 L1317.62 1566.23 Q1314.47 1567.57 1311.16 1568.27 Q1307.85 1568.97 1304.44 1568.97 Q1295.91 1568.97 1290.92 1564 Q1285.95 1559.04 1285.95 1550.57 Q1285.95 1541.82 1290.66 1536.69 Q1295.41 1531.54 1303.43 1531.54 Q1310.62 1531.54 1314.79 1536.18 Q1318.99 1540.8 1318.99 1548.76 M1313.13 1547.04 Q1313.07 1542.23 1310.43 1539.37 Q1307.82 1536.5 1303.49 1536.5 Q1298.59 1536.5 1295.63 1539.27 Q1292.7 1542.04 1292.25 1547.07 L1313.13 1547.04 Z" fill="#000000" fill-rule="nonzero" fill-opacity="1" /><path clip-path="url(#clip580)" d="M1363.39 1518.58 Q1359.13 1525.9 1357.06 1533.06 Q1354.99 1540.23 1354.99 1547.58 Q1354.99 1554.93 1357.06 1562.16 Q1359.16 1569.35 1363.39 1576.64 L1358.3 1576.64 Q1353.52 1569.16 1351.14 1561.93 Q1348.78 1554.71 1348.78 1547.58 Q1348.78 1540.48 1351.14 1533.29 Q1353.49 1526.09 1358.3 1518.58 L1363.39 1518.58 Z" fill="#000000" fill-rule="nonzero" fill-opacity="1" /><path clip-path="url(#clip580)" d="M1397.48 1533.45 L1397.48 1538.98 Q1395 1537.71 1392.32 1537.07 Q1389.65 1536.44 1386.79 1536.44 Q1382.42 1536.44 1380.23 1537.77 Q1378.06 1539.11 1378.06 1541.79 Q1378.06 1543.82 1379.62 1545 Q1381.18 1546.15 1385.89 1547.2 L1387.9 1547.64 Q1394.14 1548.98 1396.75 1551.43 Q1399.39 1553.85 1399.39 1558.21 Q1399.39 1563.17 1395.44 1566.07 Q1391.53 1568.97 1384.65 1568.97 Q1381.79 1568.97 1378.67 1568.39 Q1375.58 1567.85 1372.14 1566.74 L1372.14 1560.69 Q1375.39 1562.38 1378.54 1563.24 Q1381.69 1564.07 1384.78 1564.07 Q1388.92 1564.07 1391.15 1562.66 Q1393.37 1561.23 1393.37 1558.65 Q1393.37 1556.27 1391.75 1554.99 Q1390.16 1553.72 1384.72 1552.54 L1382.68 1552.07 Q1377.24 1550.92 1374.82 1548.56 Q1372.4 1546.18 1372.4 1542.04 Q1372.4 1537.01 1375.96 1534.27 Q1379.53 1531.54 1386.08 1531.54 Q1389.33 1531.54 1392.2 1532.01 Q1395.06 1532.49 1397.48 1533.45 Z" fill="#000000" fill-rule="nonzero" fill-opacity="1" /><path clip-path="url(#clip580)" d="M1407.79 1518.58 L1412.88 1518.58 Q1417.66 1526.09 1420.01 1533.29 Q1422.4 1540.48 1422.4 1547.58 Q1422.4 1554.71 1420.01 1561.93 Q1417.66 1569.16 1412.88 1576.64 L1407.79 1576.64 Q1412.03 1569.35 1414.09 1562.16 Q1416.19 1554.93 1416.19 1547.58 Q1416.19 1540.23 1414.09 1533.06 Q1412.03 1525.9 1407.79 1518.58 Z" fill="#000000" fill-rule="nonzero" fill-opacity="1" /><polyline clip-path="url(#clip580)" style="stroke:#000000; stroke-linecap:round; stroke-linejoin:round; stroke-width:4; stroke-opacity:1; fill:none" points="232.389,1423.18 232.389,847.244 "/>
<polyline clip-path="url(#clip580)" style="stroke:#000000; stroke-linecap:round; stroke-linejoin:round; stroke-width:4; stroke-opacity:1; fill:none" points="232.389,1411.17 251.287,1411.17 "/>
<polyline clip-path="url(#clip580)" style="stroke:#000000; stroke-linecap:round; stroke-linejoin:round; stroke-width:4; stroke-opacity:1; fill:none" points="232.389,1290.72 251.287,1290.72 "/>
<polyline clip-path="url(#clip580)" style="stroke:#000000; stroke-linecap:round; stroke-linejoin:round; stroke-width:4; stroke-opacity:1; fill:none" points="232.389,1170.26 251.287,1170.26 "/>
<polyline clip-path="url(#clip580)" style="stroke:#000000; stroke-linecap:round; stroke-linejoin:round; stroke-width:4; stroke-opacity:1; fill:none" points="232.389,1049.8 251.287,1049.8 "/>
<polyline clip-path="url(#clip580)" style="stroke:#000000; stroke-linecap:round; stroke-linejoin:round; stroke-width:4; stroke-opacity:1; fill:none" points="232.389,929.344 251.287,929.344 "/>
<path clip-path="url(#clip580)" d="M134.515 1411.63 L164.19 1411.63 L164.19 1415.56 L134.515 1415.56 L134.515 1411.63 Z" fill="#000000" fill-rule="nonzero" fill-opacity="1" /><path clip-path="url(#clip580)" d="M184.862 1409.31 Q181.713 1409.31 179.862 1411.46 Q178.033 1413.62 178.033 1417.37 Q178.033 1421.09 179.862 1423.27 Q181.713 1425.42 184.862 1425.42 Q188.01 1425.42 189.838 1423.27 Q191.69 1421.09 191.69 1417.37 Q191.69 1413.62 189.838 1411.46 Q188.01 1409.31 184.862 1409.31 M194.144 1394.66 L194.144 1398.92 Q192.385 1398.08 190.579 1397.64 Q188.797 1397.2 187.038 1397.2 Q182.408 1397.2 179.954 1400.33 Q177.524 1403.45 177.176 1409.77 Q178.542 1407.76 180.602 1406.7 Q182.663 1405.61 185.139 1405.61 Q190.348 1405.61 193.357 1408.78 Q196.389 1411.93 196.389 1417.37 Q196.389 1422.69 193.241 1425.91 Q190.093 1429.13 184.862 1429.13 Q178.866 1429.13 175.695 1424.54 Q172.524 1419.94 172.524 1411.21 Q172.524 1403.01 176.413 1398.15 Q180.301 1393.27 186.852 1393.27 Q188.612 1393.27 190.394 1393.62 Q192.2 1393.96 194.144 1394.66 Z" fill="#000000" fill-rule="nonzero" fill-opacity="1" /><path clip-path="url(#clip580)" d="M134.191 1291.17 L163.866 1291.17 L163.866 1295.1 L134.191 1295.1 L134.191 1291.17 Z" fill="#000000" fill-rule="nonzero" fill-opacity="1" /><path clip-path="url(#clip580)" d="M186.806 1277.51 L175.001 1295.96 L186.806 1295.96 L186.806 1277.51 M185.579 1273.44 L191.459 1273.44 L191.459 1295.96 L196.389 1295.96 L196.389 1299.85 L191.459 1299.85 L191.459 1308 L186.806 1308 L186.806 1299.85 L171.204 1299.85 L171.204 1295.34 L185.579 1273.44 Z" fill="#000000" fill-rule="nonzero" fill-opacity="1" /><path clip-path="url(#clip580)" d="M136.274 1170.71 L165.95 1170.71 L165.95 1174.65 L136.274 1174.65 L136.274 1170.71 Z" fill="#000000" fill-rule="nonzero" fill-opacity="1" /><path clip-path="url(#clip580)" d="M180.07 1183.6 L196.389 1183.6 L196.389 1187.54 L174.445 1187.54 L174.445 1183.6 Q177.107 1180.85 181.69 1176.22 Q186.297 1171.57 187.477 1170.22 Q189.723 1167.7 190.602 1165.97 Q191.505 1164.21 191.505 1162.52 Q191.505 1159.76 189.561 1158.03 Q187.639 1156.29 184.538 1156.29 Q182.338 1156.29 179.885 1157.05 Q177.454 1157.82 174.677 1159.37 L174.677 1154.65 Q177.501 1153.51 179.954 1152.93 Q182.408 1152.35 184.445 1152.35 Q189.815 1152.35 193.01 1155.04 Q196.204 1157.72 196.204 1162.22 Q196.204 1164.35 195.394 1166.27 Q194.607 1168.16 192.5 1170.76 Q191.922 1171.43 188.82 1174.65 Q185.718 1177.84 180.07 1183.6 Z" fill="#000000" fill-rule="nonzero" fill-opacity="1" /><path clip-path="url(#clip580)" d="M184.445 1035.6 Q180.834 1035.6 179.005 1039.17 Q177.2 1042.71 177.2 1049.84 Q177.2 1056.94 179.005 1060.51 Q180.834 1064.05 184.445 1064.05 Q188.079 1064.05 189.885 1060.51 Q191.713 1056.94 191.713 1049.84 Q191.713 1042.71 189.885 1039.17 Q188.079 1035.6 184.445 1035.6 M184.445 1031.9 Q190.255 1031.9 193.311 1036.5 Q196.389 1041.09 196.389 1049.84 Q196.389 1058.56 193.311 1063.17 Q190.255 1067.75 184.445 1067.75 Q178.635 1067.75 175.556 1063.17 Q172.501 1058.56 172.501 1049.84 Q172.501 1041.09 175.556 1036.5 Q178.635 1031.9 184.445 1031.9 Z" fill="#000000" fill-rule="nonzero" fill-opacity="1" /><path clip-path="url(#clip580)" d="M180.07 942.689 L196.389 942.689 L196.389 946.624 L174.445 946.624 L174.445 942.689 Q177.107 939.934 181.69 935.305 Q186.297 930.652 187.477 929.309 Q189.723 926.786 190.602 925.05 Q191.505 923.291 191.505 921.601 Q191.505 918.846 189.561 917.11 Q187.639 915.374 184.538 915.374 Q182.338 915.374 179.885 916.138 Q177.454 916.902 174.677 918.453 L174.677 913.731 Q177.501 912.596 179.954 912.018 Q182.408 911.439 184.445 911.439 Q189.815 911.439 193.01 914.124 Q196.204 916.809 196.204 921.3 Q196.204 923.43 195.394 925.351 Q194.607 927.249 192.5 929.842 Q191.922 930.513 188.82 933.731 Q185.718 936.925 180.07 942.689 Z" fill="#000000" fill-rule="nonzero" fill-opacity="1" /><path clip-path="url(#clip580)" d="M56.8867 1174.3 Q60.4938 1174.3 63.811 1176.97 Q67.1282 1179.61 69.1572 1183.93 Q71.1539 1188.21 71.1539 1192.82 L71.1539 1204.03 L87.6433 1208.12 Q87.7399 1208.15 88.1586 1208.25 Q88.5451 1208.34 88.7705 1208.34 Q89.5757 1208.34 89.7689 1207.34 Q89.9621 1206.31 89.9621 1204.03 Q89.9621 1202.55 90.2198 1202.32 Q90.3808 1202.19 90.6707 1202.19 Q91.1215 1202.19 91.4436 1202.32 Q91.7335 1202.45 91.8301 1202.71 Q91.9267 1202.93 91.9589 1203.09 Q91.9911 1203.25 91.9911 1203.51 Q91.9911 1204.19 91.9267 1205.64 Q91.8623 1207.05 91.8623 1207.8 L91.7979 1212.01 L91.9911 1220.39 Q91.9911 1221.39 91.186 1221.39 Q90.574 1221.39 90.3164 1221.13 Q90.0265 1220.87 89.9943 1220.58 Q89.9621 1220.29 89.9621 1219.55 Q89.9621 1217.94 89.8655 1216.97 Q89.7689 1216.01 89.6401 1215.4 Q89.479 1214.75 89.0282 1214.43 Q88.5773 1214.08 88.1908 1213.91 Q87.7721 1213.75 86.8382 1213.53 L51.4117 1204.7 Q50.3489 1204.45 50.1879 1204.45 Q49.6404 1204.45 49.4472 1204.77 Q49.2217 1205.06 49.1251 1205.89 Q48.9963 1207.51 48.9963 1208.73 Q48.9963 1209.53 48.9641 1209.86 Q48.9319 1210.15 48.7708 1210.4 Q48.5776 1210.63 48.1911 1210.63 Q47.5792 1210.63 47.3216 1210.37 Q47.0317 1210.08 46.9995 1209.76 Q46.9351 1209.44 46.9351 1208.66 L46.9351 1187.28 Q46.9351 1181.13 49.8658 1177.71 Q52.7966 1174.3 56.8867 1174.3 M55.3086 1180.42 Q48.9963 1180.42 48.9963 1189.41 L48.9963 1195.72 Q48.9963 1197.81 49.3828 1198.33 Q49.737 1198.84 51.5083 1199.29 L69.447 1203.77 L69.447 1194.46 Q69.447 1188.21 65.9366 1184.32 Q64.3263 1182.55 60.9769 1181.48 Q57.6275 1180.42 55.3086 1180.42 Z" fill="#000000" fill-rule="nonzero" fill-opacity="1" /><path clip-path="url(#clip580)" d="M42.5296 1138.54 Q49.8501 1142.8 57.0115 1144.87 Q64.173 1146.94 71.5254 1146.94 Q78.8778 1146.94 86.1028 1144.87 Q93.2961 1142.77 100.585 1138.54 L100.585 1143.63 Q93.1051 1148.41 85.88 1150.79 Q78.655 1153.15 71.5254 1153.15 Q64.4276 1153.15 57.2343 1150.79 Q50.0411 1148.44 42.5296 1143.63 L42.5296 1138.54 Z" fill="#000000" fill-rule="nonzero" fill-opacity="1" /><path clip-path="url(#clip580)" d="M44.4711 1131.16 L44.4711 1124.66 L84.6387 1114.67 L44.4711 1104.71 L44.4711 1097.48 L84.6387 1087.49 L44.4711 1077.52 L44.4711 1071 L91.9911 1082.94 L91.9911 1091.02 L50.7413 1101.05 L91.9911 1111.17 L91.9911 1119.25 L44.4711 1131.16 Z" fill="#000000" fill-rule="nonzero" fill-opacity="1" /><path clip-path="url(#clip580)" d="M42.5296 1063.65 L42.5296 1058.55 Q50.0411 1053.78 57.2343 1051.43 Q64.4276 1049.04 71.5254 1049.04 Q78.655 1049.04 85.88 1051.43 Q93.1051 1053.78 100.585 1058.55 L100.585 1063.65 Q93.2961 1059.41 86.1028 1057.35 Q78.8778 1055.24 71.5254 1055.24 Q64.173 1055.24 57.0115 1057.35 Q49.8501 1059.41 42.5296 1063.65 Z" fill="#000000" fill-rule="nonzero" fill-opacity="1" /><polyline clip-path="url(#clip584)" style="stroke:#009af9; stroke-linecap:round; stroke-linejoin:round; stroke-width:4; stroke-opacity:1; fill:none" points="292.4,1049.8 351.233,1406.88 410.067,878.371 468.901,863.544 527.735,957.93 586.568,1062.62 645.402,1060.92 704.236,1056.64 763.069,1052.92 821.903,1050.25 880.737,1048.74 939.57,1048.12 998.404,1048.05 1057.24,1048.25 1116.07,1048.55 1174.91,1048.85 1233.74,1049.11 1292.57,1049.31 1351.41,1049.47 1410.24,1049.58 1469.07,1049.65 1527.91,1049.71 1586.74,1049.74 1645.57,1049.76 1704.41,1049.78 1763.24,1049.79 1822.08,1049.79 1880.91,1049.8 1939.74,1049.8 1998.58,1049.8 2057.41,1049.8 2116.24,1049.8 2175.08,1049.8 2233.91,1049.8 2292.75,1049.8 "/>
<polyline clip-path="url(#clip584)" style="stroke:#e26f46; stroke-linecap:round; stroke-linejoin:round; stroke-width:6; stroke-opacity:1; fill:none" stroke-dasharray="3, 6" points="292.4,869.115 351.233,869.115 410.067,869.115 468.901,869.115 527.735,869.115 586.568,869.115 645.402,869.115 704.236,869.115 763.069,869.115 821.903,869.115 880.737,869.115 939.57,869.115 998.404,869.115 1057.24,869.115 1116.07,869.115 1174.91,869.115 1233.74,869.115 1292.57,869.115 1351.41,869.115 1410.24,869.115 1469.07,869.115 1527.91,869.115 1586.74,869.115 1645.57,869.115 1704.41,869.115 1763.24,869.115 1822.08,869.115 1880.91,869.115 1939.74,869.115 1998.58,869.115 2057.41,869.115 2116.24,869.115 2175.08,869.115 2233.91,869.115 2292.75,869.115 "/>
<path clip-path="url(#clip580)" d="M1964.47 1206.25 L2282.08 1206.25 L2282.08 1050.73 L1964.47 1050.73  Z" fill="#ffffff" fill-rule="evenodd" fill-opacity="1"/>
<polyline clip-path="url(#clip580)" style="stroke:#000000; stroke-linecap:round; stroke-linejoin:round; stroke-width:4; stroke-opacity:1; fill:none" points="1964.47,1206.25 2282.08,1206.25 2282.08,1050.73 1964.47,1050.73 1964.47,1206.25 "/>
<polyline clip-path="url(#clip580)" style="stroke:#009af9; stroke-linecap:round; stroke-linejoin:round; stroke-width:4; stroke-opacity:1; fill:none" points="1988.03,1102.57 2129.39,1102.57 "/>
<path clip-path="url(#clip580)" d="M2187.19 1093.27 Q2187.19 1095.89 2185.25 1098.3 Q2183.33 1100.71 2180.19 1102.19 Q2177.08 1103.64 2173.73 1103.64 L2165.57 1103.64 L2162.6 1115.63 Q2162.58 1115.7 2162.51 1116.01 Q2162.44 1116.29 2162.44 1116.45 Q2162.44 1117.04 2163.16 1117.18 Q2163.91 1117.32 2165.57 1117.32 Q2166.65 1117.32 2166.82 1117.51 Q2166.91 1117.63 2166.91 1117.84 Q2166.91 1118.16 2166.82 1118.4 Q2166.72 1118.61 2166.54 1118.68 Q2166.37 1118.75 2166.25 1118.77 Q2166.14 1118.8 2165.95 1118.8 Q2165.46 1118.8 2164.4 1118.75 Q2163.37 1118.7 2162.83 1118.7 L2159.77 1118.66 L2153.68 1118.8 Q2152.95 1118.8 2152.95 1118.21 Q2152.95 1117.77 2153.14 1117.58 Q2153.32 1117.37 2153.54 1117.34 Q2153.75 1117.32 2154.29 1117.32 Q2155.46 1117.32 2156.16 1117.25 Q2156.86 1117.18 2157.31 1117.09 Q2157.78 1116.97 2158.01 1116.64 Q2158.27 1116.31 2158.38 1116.03 Q2158.5 1115.73 2158.67 1115.05 L2165.08 1089.28 Q2165.27 1088.51 2165.27 1088.39 Q2165.27 1088 2165.04 1087.86 Q2164.83 1087.69 2164.22 1087.62 Q2163.05 1087.53 2162.16 1087.53 Q2161.57 1087.53 2161.34 1087.5 Q2161.12 1087.48 2160.94 1087.36 Q2160.77 1087.22 2160.77 1086.94 Q2160.77 1086.5 2160.96 1086.31 Q2161.17 1086.1 2161.41 1086.08 Q2161.64 1086.03 2162.2 1086.03 L2177.75 1086.03 Q2182.23 1086.03 2184.71 1088.16 Q2187.19 1090.29 2187.19 1093.27 M2182.74 1092.12 Q2182.74 1087.53 2176.21 1087.53 L2171.62 1087.53 Q2170.1 1087.53 2169.72 1087.81 Q2169.35 1088.07 2169.02 1089.35 L2165.76 1102.4 L2172.53 1102.4 Q2177.08 1102.4 2179.91 1099.85 Q2181.2 1098.68 2181.97 1096.24 Q2182.74 1093.8 2182.74 1092.12 Z" fill="#000000" fill-rule="nonzero" fill-opacity="1" /><polyline clip-path="url(#clip580)" style="stroke:#e26f46; stroke-linecap:round; stroke-linejoin:round; stroke-width:6; stroke-opacity:1; fill:none" stroke-dasharray="3, 6" points="1988.03,1154.41 2129.39,1154.41 "/>
<path clip-path="url(#clip580)" d="M2187.19 1140.45 Q2187.19 1143.07 2185.25 1145.48 Q2183.33 1147.9 2180.19 1149.37 Q2177.08 1150.82 2173.73 1150.82 L2165.57 1150.82 L2162.6 1162.82 Q2162.58 1162.89 2162.51 1163.19 Q2162.44 1163.47 2162.44 1163.64 Q2162.44 1164.22 2163.16 1164.36 Q2163.91 1164.5 2165.57 1164.5 Q2166.65 1164.5 2166.82 1164.69 Q2166.91 1164.81 2166.91 1165.02 Q2166.91 1165.35 2166.82 1165.58 Q2166.72 1165.79 2166.54 1165.86 Q2166.37 1165.93 2166.25 1165.95 Q2166.14 1165.98 2165.95 1165.98 Q2165.46 1165.98 2164.4 1165.93 Q2163.37 1165.88 2162.83 1165.88 L2159.77 1165.84 L2153.68 1165.98 Q2152.95 1165.98 2152.95 1165.39 Q2152.95 1164.95 2153.14 1164.76 Q2153.32 1164.55 2153.54 1164.53 Q2153.75 1164.5 2154.29 1164.5 Q2155.46 1164.5 2156.16 1164.43 Q2156.86 1164.36 2157.31 1164.27 Q2157.78 1164.15 2158.01 1163.82 Q2158.27 1163.5 2158.38 1163.21 Q2158.5 1162.91 2158.67 1162.23 L2165.08 1136.47 Q2165.27 1135.69 2165.27 1135.58 Q2165.27 1135.18 2165.04 1135.04 Q2164.83 1134.87 2164.22 1134.8 Q2163.05 1134.71 2162.16 1134.71 Q2161.57 1134.71 2161.34 1134.69 Q2161.12 1134.66 2160.94 1134.55 Q2160.77 1134.4 2160.77 1134.12 Q2160.77 1133.68 2160.96 1133.49 Q2161.17 1133.28 2161.41 1133.26 Q2161.64 1133.21 2162.2 1133.21 L2177.75 1133.21 Q2182.23 1133.21 2184.71 1135.34 Q2187.19 1137.47 2187.19 1140.45 M2182.74 1139.3 Q2182.74 1134.71 2176.21 1134.71 L2171.62 1134.71 Q2170.1 1134.71 2169.72 1134.99 Q2169.35 1135.25 2169.02 1136.54 L2165.76 1149.58 L2172.53 1149.58 Q2177.08 1149.58 2179.91 1147.03 Q2181.2 1145.86 2181.97 1143.42 Q2182.74 1140.99 2182.74 1139.3 Z" fill="#000000" fill-rule="nonzero" fill-opacity="1" /><path clip-path="url(#clip580)" d="M2191.98 1174.92 L2191.98 1173.89 Q2193.76 1173.89 2194.17 1173.68 Q2194.58 1173.45 2194.58 1172.37 L2194.58 1163.36 Q2194.58 1162.12 2194.14 1161.81 Q2193.71 1161.49 2191.98 1161.49 L2191.98 1160.45 L2196.7 1160.08 L2196.7 1163.61 Q2198.27 1160.08 2201.67 1160.08 Q2205.6 1160.08 2206.14 1163.36 Q2206.72 1162.08 2207.91 1161.08 Q2209.13 1160.08 2211.01 1160.08 Q2213.54 1160.08 2214.54 1161.33 Q2215.27 1162.17 2215.42 1163.1 Q2215.57 1164.04 2215.57 1166.46 L2215.57 1172.87 Q2215.6 1173.58 2216.14 1173.74 Q2216.68 1173.89 2218.19 1173.89 L2218.19 1174.92 Q2214.77 1174.82 2214.44 1174.82 Q2214.18 1174.82 2210.63 1174.92 L2210.63 1173.89 Q2212.42 1173.89 2212.83 1173.68 Q2213.26 1173.45 2213.26 1172.37 L2213.26 1164.54 Q2213.26 1162.84 2212.73 1161.84 Q2212.21 1160.82 2210.77 1160.82 Q2209.03 1160.82 2207.63 1162.28 Q2206.24 1163.74 2206.24 1166.2 L2206.24 1172.37 Q2206.24 1173.45 2206.65 1173.68 Q2207.08 1173.89 2208.86 1173.89 L2208.86 1174.92 Q2205.44 1174.82 2205.09 1174.82 Q2204.83 1174.82 2201.31 1174.92 L2201.31 1173.89 Q2203.09 1173.89 2203.5 1173.68 Q2203.93 1173.45 2203.93 1172.37 L2203.93 1164.54 Q2203.93 1162.84 2203.4 1161.84 Q2202.88 1160.82 2201.44 1160.82 Q2199.7 1160.82 2198.31 1162.28 Q2196.91 1163.74 2196.91 1166.2 L2196.91 1172.37 Q2196.91 1173.45 2197.32 1173.68 Q2197.75 1173.89 2199.52 1173.89 L2199.52 1174.92 Q2196.09 1174.82 2195.76 1174.82 Q2195.5 1174.82 2191.98 1174.92 Z" fill="#000000" fill-rule="nonzero" fill-opacity="1" /><path clip-path="url(#clip580)" d="M2220.06 1171.73 Q2220.06 1168.87 2223.42 1167.36 Q2225.44 1166.4 2229.6 1166.15 L2229.6 1164.92 Q2229.6 1162.84 2228.5 1161.74 Q2227.42 1160.63 2226.05 1160.63 Q2223.59 1160.63 2222.41 1162.17 Q2223.41 1162.2 2223.77 1162.71 Q2224.13 1163.2 2224.13 1163.71 Q2224.13 1164.38 2223.7 1164.82 Q2223.29 1165.25 2222.59 1165.25 Q2221.91 1165.25 2221.47 1164.84 Q2221.03 1164.41 2221.03 1163.68 Q2221.03 1162.04 2222.5 1160.95 Q2224 1159.87 2226.11 1159.87 Q2228.87 1159.87 2230.7 1161.72 Q2231.28 1162.3 2231.55 1163.04 Q2231.85 1163.77 2231.88 1164.27 Q2231.91 1164.74 2231.91 1165.69 L2231.91 1172.4 Q2231.91 1172.59 2231.98 1172.92 Q2232.05 1173.25 2232.34 1173.68 Q2232.65 1174.09 2233.16 1174.09 Q2234.37 1174.09 2234.36 1171.94 L2234.36 1170.05 L2235.21 1170.05 L2235.21 1171.94 Q2235.21 1173.73 2234.26 1174.43 Q2233.32 1175.12 2232.46 1175.12 Q2231.34 1175.12 2230.64 1174.3 Q2229.93 1173.48 2229.83 1172.37 Q2229.32 1173.64 2228.16 1174.48 Q2227.01 1175.3 2225.44 1175.3 Q2224.23 1175.3 2223.08 1174.99 Q2221.95 1174.69 2221 1173.86 Q2220.06 1173 2220.06 1171.73 M2222.65 1171.69 Q2222.65 1172.94 2223.54 1173.74 Q2224.42 1174.55 2225.67 1174.55 Q2227.08 1174.55 2228.34 1173.46 Q2229.6 1172.37 2229.6 1170.22 L2229.6 1166.86 Q2225.88 1166.99 2224.26 1168.48 Q2222.65 1169.95 2222.65 1171.69 Z" fill="#000000" fill-rule="nonzero" fill-opacity="1" /><path clip-path="url(#clip580)" d="M2235.88 1174.92 L2235.88 1173.89 Q2238.5 1173.89 2240.18 1171.87 Q2240.18 1171.87 2243.32 1167.87 L2239.99 1163.54 Q2238.81 1162.04 2238.29 1161.77 Q2237.78 1161.49 2236.04 1161.49 L2236.04 1160.45 Q2237.42 1160.54 2239.22 1160.54 Q2240.22 1160.54 2242.86 1160.45 L2242.86 1161.49 Q2241.68 1161.56 2241.68 1162.33 Q2241.68 1162.59 2241.98 1162.94 L2244.6 1166.33 L2246.68 1163.71 Q2247.19 1163.1 2247.19 1162.53 Q2247.19 1161.59 2246.21 1161.49 L2246.21 1160.45 Q2247.52 1160.54 2249.44 1160.54 Q2250.88 1160.54 2252.19 1160.45 L2252.19 1161.49 Q2249.64 1161.56 2248.19 1163.23 Q2247.55 1163.94 2245.11 1167.04 L2249.6 1172.84 Q2250.14 1173.55 2250.75 1173.73 Q2251.36 1173.89 2252.8 1173.89 L2252.8 1174.92 Q2251.29 1174.82 2249.57 1174.82 Q2248.96 1174.82 2245.95 1174.92 L2245.95 1173.89 Q2246.55 1173.86 2246.85 1173.59 Q2247.16 1173.32 2247.16 1173.04 Q2247.16 1172.91 2246.45 1171.94 L2243.9 1168.58 Q2241.34 1171.59 2241.01 1172.3 Q2240.88 1172.59 2240.88 1172.84 Q2240.88 1173.74 2241.85 1173.89 L2241.85 1174.92 Q2239.44 1174.82 2238.67 1174.82 Q2237.19 1174.82 2235.88 1174.92 Z" fill="#000000" fill-rule="nonzero" fill-opacity="1" /></svg>
