<?xml version="1.0" encoding="utf-8"?>
<svg xmlns="http://www.w3.org/2000/svg" xmlns:xlink="http://www.w3.org/1999/xlink" width="600" height="400" viewBox="0 0 2400 1600">
<defs>
  <clipPath id="clip420">
    <rect x="0" y="0" width="2400" height="1600"/>
  </clipPath>
</defs>
<path clip-path="url(#clip420)" d="M0 1600 L2400 1600 L2400 0 L0 0  Z" fill="#ffffff" fill-rule="evenodd" fill-opacity="1"/>
<defs>
  <clipPath id="clip421">
    <rect x="203" y="47" width="2150" height="1377"/>
  </clipPath>
</defs>
<path clip-path="url(#clip420)" d="M203.964 1423.18 L1110.81 1423.18 L1110.81 47.2441 L203.964 47.2441  Z" fill="#ffffff" fill-rule="evenodd" fill-opacity="1"/>
<defs>
  <clipPath id="clip422">
    <rect x="203" y="47" width="908" height="1377"/>
  </clipPath>
</defs>
<polyline clip-path="url(#clip422)" style="stroke:#000000; stroke-linecap:round; stroke-linejoin:round; stroke-width:2; stroke-opacity:0.1; fill:none" points="229.629,1423.18 229.629,47.2441 "/>
<polyline clip-path="url(#clip422)" style="stroke:#000000; stroke-linecap:round; stroke-linejoin:round; stroke-width:2; stroke-opacity:0.1; fill:none" points="481.252,1423.18 481.252,47.2441 "/>
<polyline clip-path="url(#clip422)" style="stroke:#000000; stroke-linecap:round; stroke-linejoin:round; stroke-width:2; stroke-opacity:0.1; fill:none" points="732.874,1423.18 732.874,47.2441 "/>
<polyline clip-path="url(#clip422)" style="stroke:#000000; stroke-linecap:round; stroke-linejoin:round; stroke-width:2; stroke-opacity:0.1; fill:none" points="984.497,1423.18 984.497,47.2441 "/>
<polyline clip-path="url(#clip422)" style="stroke:#000000; stroke-linecap:round; stroke-linejoin:round; stroke-width:2; stroke-opacity:0.1; fill:none" points="203.964,1351.7 1110.81,1351.7 "/>
<polyline clip-path="url(#clip422)" style="stroke:#000000; stroke-linecap:round; stroke-linejoin:round; stroke-width:2; stroke-opacity:0.1; fill:none" points="203.964,920.046 1110.81,920.046 "/>
<polyline clip-path="url(#clip422)" style="stroke:#000000; stroke-linecap:round; stroke-linejoin:round; stroke-width:2; stroke-opacity:0.1; fill:none" points="203.964,488.388 1110.81,488.388 "/>
<polyline clip-path="url(#clip422)" style="stroke:#000000; stroke-linecap:round; stroke-linejoin:round; stroke-width:2; stroke-opacity:0.1; fill:none" points="203.964,56.7298 1110.81,56.7298 "/>
<polyline clip-path="url(#clip420)" style="stroke:#000000; stroke-linecap:round; stroke-linejoin:round; stroke-width:4; stroke-opacity:1; fill:none" points="203.964,1423.18 1110.81,1423.18 "/>
<polyline clip-path="url(#clip420)" style="stroke:#000000; stroke-linecap:round; stroke-linejoin:round; stroke-width:4; stroke-opacity:1; fill:none" points="229.629,1423.18 229.629,1404.28 "/>
<polyline clip-path="url(#clip420)" style="stroke:#000000; stroke-linecap:round; stroke-linejoin:round; stroke-width:4; stroke-opacity:1; fill:none" points="481.252,1423.18 481.252,1404.28 "/>
<polyline clip-path="url(#clip420)" style="stroke:#000000; stroke-linecap:round; stroke-linejoin:round; stroke-width:4; stroke-opacity:1; fill:none" points="732.874,1423.18 732.874,1404.28 "/>
<polyline clip-path="url(#clip420)" style="stroke:#000000; stroke-linecap:round; stroke-linejoin:round; stroke-width:4; stroke-opacity:1; fill:none" points="984.497,1423.18 984.497,1404.28 "/>
<path clip-path="url(#clip420)" d="M229.629 1454.1 Q226.018 1454.1 224.189 1457.66 Q222.384 1461.2 222.384 1468.33 Q222.384 1475.44 224.189 1479.01 Q226.018 1482.55 229.629 1482.55 Q233.263 1482.55 235.069 1479.01 Q236.898 1475.44 236.898 1468.33 Q236.898 1461.2 235.069 1457.66 Q233.263 1454.1 229.629 1454.1 M229.629 1450.39 Q235.439 1450.39 238.495 1455 Q241.573 1459.58 241.573 1468.33 Q241.573 1477.06 238.495 1481.67 Q235.439 1486.25 229.629 1486.25 Q223.819 1486.25 220.74 1481.67 Q217.685 1477.06 217.685 1468.33 Q217.685 1459.58 220.74 1455 Q223.819 1450.39 229.629 1450.39 Z" fill="#000000" fill-rule="nonzero" fill-opacity="1" /><path clip-path="url(#clip420)" d="M471.634 1481.64 L479.273 1481.64 L479.273 1455.28 L470.962 1456.95 L470.962 1452.69 L479.226 1451.02 L483.902 1451.02 L483.902 1481.64 L491.541 1481.64 L491.541 1485.58 L471.634 1485.58 L471.634 1481.64 Z" fill="#000000" fill-rule="nonzero" fill-opacity="1" /><path clip-path="url(#clip420)" d="M727.527 1481.64 L743.847 1481.64 L743.847 1485.58 L721.902 1485.58 L721.902 1481.64 Q724.564 1478.89 729.148 1474.26 Q733.754 1469.61 734.935 1468.27 Q737.18 1465.74 738.06 1464.01 Q738.962 1462.25 738.962 1460.56 Q738.962 1457.8 737.018 1456.07 Q735.097 1454.33 731.995 1454.33 Q729.796 1454.33 727.342 1455.09 Q724.912 1455.86 722.134 1457.41 L722.134 1452.69 Q724.958 1451.55 727.411 1450.97 Q729.865 1450.39 731.902 1450.39 Q737.273 1450.39 740.467 1453.08 Q743.661 1455.77 743.661 1460.26 Q743.661 1462.39 742.851 1464.31 Q742.064 1466.2 739.958 1468.8 Q739.379 1469.47 736.277 1472.69 Q733.175 1475.88 727.527 1481.64 Z" fill="#000000" fill-rule="nonzero" fill-opacity="1" /><path clip-path="url(#clip420)" d="M988.745 1466.95 Q992.101 1467.66 993.976 1469.93 Q995.874 1472.2 995.874 1475.53 Q995.874 1480.65 992.356 1483.45 Q988.837 1486.25 982.356 1486.25 Q980.18 1486.25 977.865 1485.81 Q975.574 1485.39 973.12 1484.54 L973.12 1480.02 Q975.064 1481.16 977.379 1481.74 Q979.694 1482.32 982.217 1482.32 Q986.615 1482.32 988.907 1480.58 Q991.222 1478.84 991.222 1475.53 Q991.222 1472.48 989.069 1470.77 Q986.939 1469.03 983.12 1469.03 L979.092 1469.03 L979.092 1465.19 L983.305 1465.19 Q986.754 1465.19 988.583 1463.82 Q990.411 1462.43 990.411 1459.84 Q990.411 1457.18 988.513 1455.77 Q986.638 1454.33 983.12 1454.33 Q981.199 1454.33 978.999 1454.75 Q976.8 1455.16 974.162 1456.04 L974.162 1451.88 Q976.824 1451.14 979.138 1450.77 Q981.476 1450.39 983.536 1450.39 Q988.861 1450.39 991.962 1452.83 Q995.064 1455.23 995.064 1459.35 Q995.064 1462.22 993.421 1464.21 Q991.777 1466.18 988.745 1466.95 Z" fill="#000000" fill-rule="nonzero" fill-opacity="1" /><path clip-path="url(#clip420)" d="M527.559 1520.52 L567.758 1520.52 L567.758 1525.93 L550.889 1525.93 L550.889 1568.04 L544.428 1568.04 L544.428 1525.93 L527.559 1525.93 L527.559 1520.52 Z" fill="#000000" fill-rule="nonzero" fill-opacity="1" /><path clip-path="url(#clip420)" d="M571.705 1532.4 L577.562 1532.4 L577.562 1568.04 L571.705 1568.04 L571.705 1532.4 M571.705 1518.52 L577.562 1518.52 L577.562 1525.93 L571.705 1525.93 L571.705 1518.52 Z" fill="#000000" fill-rule="nonzero" fill-opacity="1" /><path clip-path="url(#clip420)" d="M617.57 1539.24 Q619.766 1535.29 622.822 1533.41 Q625.877 1531.54 630.015 1531.54 Q635.585 1531.54 638.609 1535.45 Q641.633 1539.33 641.633 1546.53 L641.633 1568.04 L635.744 1568.04 L635.744 1546.72 Q635.744 1541.59 633.93 1539.11 Q632.116 1536.63 628.392 1536.63 Q623.84 1536.63 621.199 1539.65 Q618.557 1542.68 618.557 1547.9 L618.557 1568.04 L612.669 1568.04 L612.669 1546.72 Q612.669 1541.56 610.854 1539.11 Q609.04 1536.63 605.252 1536.63 Q600.765 1536.63 598.123 1539.68 Q595.481 1542.71 595.481 1547.9 L595.481 1568.04 L589.593 1568.04 L589.593 1532.4 L595.481 1532.4 L595.481 1537.93 Q597.486 1534.66 600.287 1533.1 Q603.088 1531.54 606.939 1531.54 Q610.822 1531.54 613.528 1533.51 Q616.265 1535.48 617.57 1539.24 Z" fill="#000000" fill-rule="nonzero" fill-opacity="1" /><path clip-path="url(#clip420)" d="M683.805 1548.76 L683.805 1551.62 L656.878 1551.62 Q657.26 1557.67 660.507 1560.85 Q663.785 1564 669.61 1564 Q672.984 1564 676.135 1563.17 Q679.317 1562.35 682.437 1560.69 L682.437 1566.23 Q679.286 1567.57 675.975 1568.27 Q672.665 1568.97 669.26 1568.97 Q660.73 1568.97 655.733 1564 Q650.767 1559.04 650.767 1550.57 Q650.767 1541.82 655.478 1536.69 Q660.22 1531.54 668.241 1531.54 Q675.434 1531.54 679.604 1536.18 Q683.805 1540.8 683.805 1548.76 M677.949 1547.04 Q677.885 1542.23 675.243 1539.37 Q672.633 1536.5 668.305 1536.5 Q663.403 1536.5 660.443 1539.27 Q657.515 1542.04 657.069 1547.07 L677.949 1547.04 Z" fill="#000000" fill-rule="nonzero" fill-opacity="1" /><path clip-path="url(#clip420)" d="M728.206 1518.58 Q723.941 1525.9 721.872 1533.06 Q719.803 1540.23 719.803 1547.58 Q719.803 1554.93 721.872 1562.16 Q723.973 1569.35 728.206 1576.64 L723.114 1576.64 Q718.339 1569.16 715.952 1561.93 Q713.597 1554.71 713.597 1547.58 Q713.597 1540.48 715.952 1533.29 Q718.307 1526.09 723.114 1518.58 L728.206 1518.58 Z" fill="#000000" fill-rule="nonzero" fill-opacity="1" /><path clip-path="url(#clip420)" d="M762.294 1533.45 L762.294 1538.98 Q759.812 1537.71 757.138 1537.07 Q754.465 1536.44 751.6 1536.44 Q747.24 1536.44 745.043 1537.77 Q742.879 1539.11 742.879 1541.79 Q742.879 1543.82 744.439 1545 Q745.998 1546.15 750.709 1547.2 L752.714 1547.64 Q758.952 1548.98 761.562 1551.43 Q764.204 1553.85 764.204 1558.21 Q764.204 1563.17 760.257 1566.07 Q756.343 1568.97 749.468 1568.97 Q746.603 1568.97 743.484 1568.39 Q740.396 1567.85 736.959 1566.74 L736.959 1560.69 Q740.205 1562.38 743.356 1563.24 Q746.508 1564.07 749.595 1564.07 Q753.733 1564.07 755.961 1562.66 Q758.189 1561.23 758.189 1558.65 Q758.189 1556.27 756.565 1554.99 Q754.974 1553.72 749.531 1552.54 L747.494 1552.07 Q742.052 1550.92 739.633 1548.56 Q737.214 1546.18 737.214 1542.04 Q737.214 1537.01 740.778 1534.27 Q744.343 1531.54 750.9 1531.54 Q754.146 1531.54 757.011 1532.01 Q759.876 1532.49 762.294 1533.45 Z" fill="#000000" fill-rule="nonzero" fill-opacity="1" /><path clip-path="url(#clip420)" d="M772.607 1518.58 L777.699 1518.58 Q782.474 1526.09 784.829 1533.29 Q787.216 1540.48 787.216 1547.58 Q787.216 1554.71 784.829 1561.93 Q782.474 1569.16 777.699 1576.64 L772.607 1576.64 Q776.84 1569.35 778.909 1562.16 Q781.01 1554.93 781.01 1547.58 Q781.01 1540.23 778.909 1533.06 Q776.84 1525.9 772.607 1518.58 Z" fill="#000000" fill-rule="nonzero" fill-opacity="1" /><polyline clip-path="url(#clip420)" style="stroke:#000000; stroke-linecap:round; stroke-linejoin:round; stroke-width:4; stroke-opacity:1; fill:none" points="203.964,1423.18 203.964,47.2441 "/>
<polyline clip-path="url(#clip420)" style="stroke:#000000; stroke-linecap:round; stroke-linejoin:round; stroke-width:4; stroke-opacity:1; fill:none" points="203.964,1351.7 222.861,1351.7 "/>
<polyline clip-path="url(#clip420)" style="stroke:#000000; stroke-linecap:round; stroke-linejoin:round; stroke-width:4; stroke-opacity:1; fill:none" points="203.964,920.046 222.861,920.046 "/>
<polyline clip-path="url(#clip420)" style="stroke:#000000; stroke-linecap:round; stroke-linejoin:round; stroke-width:4; stroke-opacity:1; fill:none" points="203.964,488.388 222.861,488.388 "/>
<polyline clip-path="url(#clip420)" style="stroke:#000000; stroke-linecap:round; stroke-linejoin:round; stroke-width:4; stroke-opacity:1; fill:none" points="203.964,56.7298 222.861,56.7298 "/>
<path clip-path="url(#clip420)" d="M156.019 1337.5 Q152.408 1337.5 150.579 1341.07 Q148.774 1344.61 148.774 1351.74 Q148.774 1358.84 150.579 1362.41 Q152.408 1365.95 156.019 1365.95 Q159.653 1365.95 161.459 1362.41 Q163.288 1358.84 163.288 1351.74 Q163.288 1344.61 161.459 1341.07 Q159.653 1337.5 156.019 1337.5 M156.019 1333.8 Q161.829 1333.8 164.885 1338.41 Q167.964 1342.99 167.964 1351.74 Q167.964 1360.47 164.885 1365.07 Q161.829 1369.65 156.019 1369.65 Q150.209 1369.65 147.13 1365.07 Q144.075 1360.47 144.075 1351.74 Q144.075 1342.99 147.13 1338.41 Q150.209 1333.8 156.019 1333.8 Z" fill="#000000" fill-rule="nonzero" fill-opacity="1" /><path clip-path="url(#clip420)" d="M116.668 933.39 L124.306 933.39 L124.306 907.025 L115.996 908.692 L115.996 904.432 L124.26 902.766 L128.936 902.766 L128.936 933.39 L136.575 933.39 L136.575 937.326 L116.668 937.326 L116.668 933.39 Z" fill="#000000" fill-rule="nonzero" fill-opacity="1" /><path clip-path="url(#clip420)" d="M156.019 905.844 Q152.408 905.844 150.579 909.409 Q148.774 912.951 148.774 920.08 Q148.774 927.187 150.579 930.752 Q152.408 934.293 156.019 934.293 Q159.653 934.293 161.459 930.752 Q163.288 927.187 163.288 920.08 Q163.288 912.951 161.459 909.409 Q159.653 905.844 156.019 905.844 M156.019 902.141 Q161.829 902.141 164.885 906.747 Q167.964 911.33 167.964 920.08 Q167.964 928.807 164.885 933.414 Q161.829 937.997 156.019 937.997 Q150.209 937.997 147.13 933.414 Q144.075 928.807 144.075 920.08 Q144.075 911.33 147.13 906.747 Q150.209 902.141 156.019 902.141 Z" fill="#000000" fill-rule="nonzero" fill-opacity="1" /><path clip-path="url(#clip420)" d="M119.885 501.733 L136.204 501.733 L136.204 505.668 L114.26 505.668 L114.26 501.733 Q116.922 498.978 121.505 494.348 Q126.112 489.696 127.292 488.353 Q129.538 485.83 130.417 484.094 Q131.32 482.334 131.32 480.645 Q131.32 477.89 129.376 476.154 Q127.455 474.418 124.353 474.418 Q122.154 474.418 119.7 475.182 Q117.269 475.946 114.492 477.497 L114.492 472.774 Q117.316 471.64 119.769 471.061 Q122.223 470.483 124.26 470.483 Q129.63 470.483 132.825 473.168 Q136.019 475.853 136.019 480.344 Q136.019 482.473 135.209 484.395 Q134.422 486.293 132.316 488.885 Q131.737 489.557 128.635 492.774 Q125.533 495.969 119.885 501.733 Z" fill="#000000" fill-rule="nonzero" fill-opacity="1" /><path clip-path="url(#clip420)" d="M156.019 474.186 Q152.408 474.186 150.579 477.751 Q148.774 481.293 148.774 488.422 Q148.774 495.529 150.579 499.094 Q152.408 502.635 156.019 502.635 Q159.653 502.635 161.459 499.094 Q163.288 495.529 163.288 488.422 Q163.288 481.293 161.459 477.751 Q159.653 474.186 156.019 474.186 M156.019 470.483 Q161.829 470.483 164.885 475.089 Q167.964 479.672 167.964 488.422 Q167.964 497.149 164.885 501.756 Q161.829 506.339 156.019 506.339 Q150.209 506.339 147.13 501.756 Q144.075 497.149 144.075 488.422 Q144.075 479.672 147.13 475.089 Q150.209 470.483 156.019 470.483 Z" fill="#000000" fill-rule="nonzero" fill-opacity="1" /><path clip-path="url(#clip420)" d="M130.024 55.3756 Q133.38 56.0932 135.255 58.3617 Q137.154 60.6302 137.154 63.9635 Q137.154 69.0793 133.635 71.8802 Q130.117 74.6811 123.635 74.6811 Q121.459 74.6811 119.144 74.2413 Q116.853 73.8246 114.399 72.9681 L114.399 68.4543 Q116.343 69.5885 118.658 70.1672 Q120.973 70.7459 123.496 70.7459 Q127.894 70.7459 130.186 69.0098 Q132.501 67.2737 132.501 63.9635 Q132.501 60.908 130.348 59.195 Q128.218 57.4589 124.399 57.4589 L120.371 57.4589 L120.371 53.6164 L124.584 53.6164 Q128.033 53.6164 129.862 52.2506 Q131.691 50.8618 131.691 48.2692 Q131.691 45.6072 129.792 44.1951 Q127.917 42.76 124.399 42.76 Q122.478 42.76 120.279 43.1766 Q118.08 43.5933 115.441 44.4729 L115.441 40.3063 Q118.103 39.5655 120.418 39.1952 Q122.755 38.8248 124.816 38.8248 Q130.14 38.8248 133.242 41.2553 Q136.343 43.6627 136.343 47.7831 Q136.343 50.6534 134.7 52.6442 Q133.056 54.6117 130.024 55.3756 Z" fill="#000000" fill-rule="nonzero" fill-opacity="1" /><path clip-path="url(#clip420)" d="M156.019 42.5285 Q152.408 42.5285 150.579 46.0933 Q148.774 49.6349 148.774 56.7645 Q148.774 63.8709 150.579 67.4357 Q152.408 70.9774 156.019 70.9774 Q159.653 70.9774 161.459 67.4357 Q163.288 63.8709 163.288 56.7645 Q163.288 49.6349 161.459 46.0933 Q159.653 42.5285 156.019 42.5285 M156.019 38.8248 Q161.829 38.8248 164.885 43.4312 Q167.964 48.0146 167.964 56.7645 Q167.964 65.4913 164.885 70.0978 Q161.829 74.6811 156.019 74.6811 Q150.209 74.6811 147.13 70.0978 Q144.075 65.4913 144.075 56.7645 Q144.075 48.0146 147.13 43.4312 Q150.209 38.8248 156.019 38.8248 Z" fill="#000000" fill-rule="nonzero" fill-opacity="1" /><path clip-path="url(#clip420)" d="M39.4334 772.564 Q44.844 772.564 50.9309 774.303 Q56.9856 776.01 61.8809 778.715 Q66.744 781.42 69.9646 784.963 Q73.153 788.505 73.153 791.887 Q73.153 794.045 71.9613 795.655 Q70.7375 797.233 68.7085 798.103 Q66.6474 798.972 64.393 799.391 Q62.1063 799.81 59.6265 799.81 Q55.9228 799.81 51.8971 799.005 Q47.8391 798.199 44.1677 796.847 Q40.464 795.494 37.1146 793.594 Q33.733 791.694 31.2853 789.6 Q28.8055 787.475 27.3562 785.092 Q25.907 782.708 25.907 780.486 Q25.907 778.876 26.6155 777.588 Q27.2918 776.267 28.4834 775.43 Q29.6428 774.593 31.0277 774.013 Q32.4125 773.401 34.0228 773.111 Q35.6009 772.821 36.9214 772.692 Q38.2096 772.564 39.4334 772.564 M35.3433 776.911 Q33.7008 776.911 32.477 777.04 Q31.2209 777.169 29.9649 777.523 Q28.7089 777.878 28.0325 778.65 Q27.3562 779.391 27.3562 780.551 Q27.3562 783.932 34.2805 787.733 Q36.4383 788.956 39.369 790.051 Q42.2997 791.146 43.6846 791.533 Q45.0694 791.919 48.4833 792.821 L48.4833 779.037 Q39.6911 776.911 35.3433 776.911 M50.5766 779.617 L50.5766 793.336 Q58.6281 795.462 63.6522 795.462 Q68.0322 795.462 69.868 794.56 Q71.6715 793.626 71.6715 791.887 Q71.6715 789.89 69.6747 788.022 Q67.6458 786.154 63.9743 784.254 Q59.2078 781.742 50.5766 779.617 Z" fill="#000000" fill-rule="nonzero" fill-opacity="1" /><path clip-path="url(#clip420)" d="M22.9507 728.256 Q30.2712 732.521 37.4327 734.59 Q44.5941 736.658 51.9465 736.658 Q59.2989 736.658 66.5239 734.59 Q73.7172 732.489 81.0059 728.256 L81.0059 733.348 Q73.5262 738.123 66.3011 740.51 Q59.0761 742.865 51.9465 742.865 Q44.8487 742.865 37.6555 740.51 Q30.4622 738.154 22.9507 733.348 L22.9507 728.256 Z" fill="#000000" fill-rule="nonzero" fill-opacity="1" /><path clip-path="url(#clip420)" d="M28.1387 706.74 Q28.1387 709.286 29.9211 711.036 Q31.6717 712.787 34.218 712.787 Q36.7324 712.787 38.483 711.036 Q40.2017 709.286 40.2017 706.74 Q40.2017 704.193 38.483 702.443 Q36.7324 700.692 34.218 700.692 Q31.7035 700.692 29.9211 702.475 Q28.1387 704.225 28.1387 706.74 M24.0328 706.74 Q24.0328 704.703 24.8286 702.825 Q25.5924 700.947 27.0566 699.578 Q28.4888 698.114 30.3031 697.382 Q32.1173 696.65 34.218 696.65 Q38.4193 696.65 41.3476 699.61 Q44.244 702.538 44.244 706.803 Q44.244 711.1 41.3794 713.965 Q38.5148 716.829 34.218 716.829 Q29.953 716.829 26.9929 713.901 Q24.0328 710.973 24.0328 706.74 Z" fill="#000000" fill-rule="nonzero" fill-opacity="1" /><path clip-path="url(#clip420)" d="M22.9507 685.224 L22.9507 680.131 Q30.4622 675.357 37.6555 673.001 Q44.8487 670.614 51.9465 670.614 Q59.0761 670.614 66.3011 673.001 Q73.5262 675.357 81.0059 680.131 L81.0059 685.224 Q73.7172 680.99 66.5239 678.921 Q59.2989 676.821 51.9465 676.821 Q44.5941 676.821 37.4327 678.921 Q30.2712 680.99 22.9507 685.224 Z" fill="#000000" fill-rule="nonzero" fill-opacity="1" /><polyline clip-path="url(#clip422)" style="stroke:#009af9; stroke-linecap:round; stroke-linejoin:round; stroke-width:4; stroke-opacity:1; fill:none" points="229.629,1384.24 254.791,1248.98 279.954,1025.72 305.116,697.509 330.278,471.696 355.44,318.255 380.603,125.65 405.765,87.1186 430.927,136.321 456.089,124.841 481.252,168.346 506.414,146.174 531.576,205.259 556.739,271.636 581.901,254.308 607.063,256.206 632.225,276.148 657.388,279.672 682.55,293.516 707.712,253.984 732.874,275.274 758.037,263.588 783.199,238.551 808.361,268.182 833.524,248.349 858.686,288.582 883.848,288.797 909.01,242.814 934.173,272.993 959.335,255.725 984.497,274.74 1009.66,256.507 1034.82,233.555 1059.98,266.398 1085.15,265 "/>
<polyline clip-path="url(#clip422)" style="stroke:#e26f46; stroke-linecap:round; stroke-linejoin:round; stroke-width:3; stroke-opacity:1; fill:none" stroke-dasharray="12, 6, 2, 6" points="229.629,1383.28 254.791,1253.63 279.954,1020.5 305.116,700.76 330.278,463.179 355.44,309.686 380.603,140.118 405.765,86.1857 430.927,128.039 456.089,136.204 481.252,172.9 506.414,162.206 531.576,203.843 556.739,265.991 581.901,263.955 607.063,260.264 632.225,273.579 657.388,279.124 682.55,290.754 707.712,261.219 732.874,270.423 758.037,264.573 783.199,243.079 808.361,262.037 833.524,251.931 858.686,281.315 883.848,288.935 909.01,252.391 934.173,266.865 959.335,258.068 984.497,271.099 1009.66,260.001 1034.82,238.307 1059.98,259.811 1085.15,265.158 "/>
<path clip-path="url(#clip420)" d="M961.069 1377.32 L1080.58 1377.32 L1080.58 1221.8 L961.069 1221.8  Z" fill="#ffffff" fill-rule="evenodd" fill-opacity="1"/>
<polyline clip-path="url(#clip420)" style="stroke:#000000; stroke-linecap:round; stroke-linejoin:round; stroke-width:4; stroke-opacity:1; fill:none" points="961.069,1377.32 1080.58,1377.32 1080.58,1221.8 961.069,1221.8 961.069,1377.32 "/>
<polyline clip-path="url(#clip420)" style="stroke:#009af9; stroke-linecap:round; stroke-linejoin:round; stroke-width:4; stroke-opacity:1; fill:none" points="971.145,1273.64 1031.6,1273.64 "/>
<path clip-path="url(#clip420)" d="M1068.45 1260.37 Q1066.97 1260.37 1066.22 1260.51 Q1065.48 1260.63 1065.29 1260.8 Q1065.1 1260.96 1064.89 1261.38 L1054.58 1283.3 Q1053.48 1285.65 1051.42 1287.33 Q1049.38 1289.02 1046.81 1289.02 Q1044.65 1289.02 1043.15 1287.71 Q1041.68 1286.42 1041.68 1284.59 Q1041.68 1283.28 1042.5 1282.53 Q1043.32 1281.81 1044.42 1281.81 Q1045.64 1281.81 1046.41 1282.58 Q1047.21 1283.35 1047.21 1284.55 Q1047.21 1285.32 1046.88 1285.9 Q1046.55 1286.51 1046.25 1286.72 Q1045.96 1286.96 1045.66 1287.1 Q1046.15 1287.29 1046.81 1287.29 Q1047.79 1287.29 1048.63 1286.89 Q1049.5 1286.51 1050.06 1286 Q1050.65 1285.51 1051.23 1284.62 Q1051.82 1283.75 1052.1 1283.19 Q1052.38 1282.65 1052.8 1281.71 L1053.9 1279.42 L1044.93 1260.37 L1041.87 1260.37 L1041.87 1258.13 L1047.35 1258.27 L1053.3 1258.13 L1053.3 1260.37 L1050.7 1260.37 L1056.79 1273.33 L1062.31 1261.52 L1062.55 1260.96 Q1062.55 1260.7 1061.99 1260.56 Q1061.42 1260.4 1060.86 1260.4 L1060.3 1260.37 L1060.3 1258.13 L1064.66 1258.27 Q1066.72 1258.27 1068.45 1258.13 L1068.45 1260.37 Z" fill="#000000" fill-rule="nonzero" fill-opacity="1" /><polyline clip-path="url(#clip420)" style="stroke:#e26f46; stroke-linecap:round; stroke-linejoin:round; stroke-width:3; stroke-opacity:1; fill:none" stroke-dasharray="12, 6, 2, 6" points="971.145,1325.48 1031.6,1325.48 "/>
<path clip-path="url(#clip420)" d="M1064.26 1309.2 L1063.85 1309.87 Q1061.31 1308.77 1058.15 1307.01 Q1054.98 1308.77 1052.44 1309.87 L1052.05 1309.2 Q1054.82 1306.79 1058.15 1304.93 Q1061.51 1306.8 1064.26 1309.2 Z" fill="#000000" fill-rule="nonzero" fill-opacity="1" /><path clip-path="url(#clip420)" d="M1068.45 1317.22 Q1066.97 1317.22 1066.22 1317.36 Q1065.48 1317.48 1065.29 1317.64 Q1065.1 1317.8 1064.89 1318.23 L1054.58 1340.15 Q1053.48 1342.49 1051.42 1344.18 Q1049.38 1345.86 1046.81 1345.86 Q1044.65 1345.86 1043.15 1344.55 Q1041.68 1343.26 1041.68 1341.44 Q1041.68 1340.13 1042.5 1339.38 Q1043.32 1338.65 1044.42 1338.65 Q1045.64 1338.65 1046.41 1339.42 Q1047.21 1340.2 1047.21 1341.39 Q1047.21 1342.16 1046.88 1342.75 Q1046.55 1343.36 1046.25 1343.57 Q1045.96 1343.8 1045.66 1343.94 Q1046.15 1344.13 1046.81 1344.13 Q1047.79 1344.13 1048.63 1343.73 Q1049.5 1343.36 1050.06 1342.84 Q1050.65 1342.35 1051.23 1341.46 Q1051.82 1340.59 1052.1 1340.03 Q1052.38 1339.49 1052.8 1338.56 L1053.9 1336.26 L1044.93 1317.22 L1041.87 1317.22 L1041.87 1314.97 L1047.35 1315.11 L1053.3 1314.97 L1053.3 1317.22 L1050.7 1317.22 L1056.79 1330.17 L1062.31 1318.37 L1062.55 1317.8 Q1062.55 1317.55 1061.99 1317.41 Q1061.42 1317.24 1060.86 1317.24 L1060.3 1317.22 L1060.3 1314.97 L1064.66 1315.11 Q1066.72 1315.11 1068.45 1314.97 L1068.45 1317.22 Z" fill="#000000" fill-rule="nonzero" fill-opacity="1" /><path clip-path="url(#clip420)" d="M1445.91 398.692 L2352.76 398.692 L2352.76 47.2441 L1445.91 47.2441  Z" fill="#ffffff" fill-rule="evenodd" fill-opacity="1"/>
<defs>
  <clipPath id="clip423">
    <rect x="1445" y="47" width="908" height="352"/>
  </clipPath>
</defs>
<polyline clip-path="url(#clip423)" style="stroke:#000000; stroke-linecap:round; stroke-linejoin:round; stroke-width:2; stroke-opacity:0.1; fill:none" points="1471.57,398.692 1471.57,47.2441 "/>
<polyline clip-path="url(#clip423)" style="stroke:#000000; stroke-linecap:round; stroke-linejoin:round; stroke-width:2; stroke-opacity:0.1; fill:none" points="1723.2,398.692 1723.2,47.2441 "/>
<polyline clip-path="url(#clip423)" style="stroke:#000000; stroke-linecap:round; stroke-linejoin:round; stroke-width:2; stroke-opacity:0.1; fill:none" points="1974.82,398.692 1974.82,47.2441 "/>
<polyline clip-path="url(#clip423)" style="stroke:#000000; stroke-linecap:round; stroke-linejoin:round; stroke-width:2; stroke-opacity:0.1; fill:none" points="2226.44,398.692 2226.44,47.2441 "/>
<polyline clip-path="url(#clip423)" style="stroke:#000000; stroke-linecap:round; stroke-linejoin:round; stroke-width:2; stroke-opacity:0.1; fill:none" points="1445.91,380.675 2352.76,380.675 "/>
<polyline clip-path="url(#clip423)" style="stroke:#000000; stroke-linecap:round; stroke-linejoin:round; stroke-width:2; stroke-opacity:0.1; fill:none" points="1445.91,317.456 2352.76,317.456 "/>
<polyline clip-path="url(#clip423)" style="stroke:#000000; stroke-linecap:round; stroke-linejoin:round; stroke-width:2; stroke-opacity:0.1; fill:none" points="1445.91,254.237 2352.76,254.237 "/>
<polyline clip-path="url(#clip423)" style="stroke:#000000; stroke-linecap:round; stroke-linejoin:round; stroke-width:2; stroke-opacity:0.1; fill:none" points="1445.91,191.018 2352.76,191.018 "/>
<polyline clip-path="url(#clip423)" style="stroke:#000000; stroke-linecap:round; stroke-linejoin:round; stroke-width:2; stroke-opacity:0.1; fill:none" points="1445.91,127.799 2352.76,127.799 "/>
<polyline clip-path="url(#clip423)" style="stroke:#000000; stroke-linecap:round; stroke-linejoin:round; stroke-width:2; stroke-opacity:0.1; fill:none" points="1445.91,64.5803 2352.76,64.5803 "/>
<polyline clip-path="url(#clip420)" style="stroke:#000000; stroke-linecap:round; stroke-linejoin:round; stroke-width:4; stroke-opacity:1; fill:none" points="1445.91,398.692 2352.76,398.692 "/>
<polyline clip-path="url(#clip420)" style="stroke:#000000; stroke-linecap:round; stroke-linejoin:round; stroke-width:4; stroke-opacity:1; fill:none" points="1471.57,398.692 1471.57,379.794 "/>
<polyline clip-path="url(#clip420)" style="stroke:#000000; stroke-linecap:round; stroke-linejoin:round; stroke-width:4; stroke-opacity:1; fill:none" points="1723.2,398.692 1723.2,379.794 "/>
<polyline clip-path="url(#clip420)" style="stroke:#000000; stroke-linecap:round; stroke-linejoin:round; stroke-width:4; stroke-opacity:1; fill:none" points="1974.82,398.692 1974.82,379.794 "/>
<polyline clip-path="url(#clip420)" style="stroke:#000000; stroke-linecap:round; stroke-linejoin:round; stroke-width:4; stroke-opacity:1; fill:none" points="2226.44,398.692 2226.44,379.794 "/>
<path clip-path="url(#clip420)" d="M1471.57 429.611 Q1467.96 429.611 1466.13 433.175 Q1464.33 436.717 1464.33 443.847 Q1464.33 450.953 1466.13 454.518 Q1467.96 458.059 1471.57 458.059 Q1475.21 458.059 1477.01 454.518 Q1478.84 450.953 1478.84 443.847 Q1478.84 436.717 1477.01 433.175 Q1475.21 429.611 1471.57 429.611 M1471.57 425.907 Q1477.38 425.907 1480.44 430.513 Q1483.52 435.097 1483.52 443.847 Q1483.52 452.573 1480.44 457.18 Q1477.38 461.763 1471.57 461.763 Q1465.76 461.763 1462.68 457.18 Q1459.63 452.573 1459.63 443.847 Q1459.63 435.097 1462.68 430.513 Q1465.76 425.907 1471.57 425.907 Z" fill="#000000" fill-rule="nonzero" fill-opacity="1" /><path clip-path="url(#clip420)" d="M1713.58 457.157 L1721.22 457.157 L1721.22 430.791 L1712.91 432.458 L1712.91 428.199 L1721.17 426.532 L1725.85 426.532 L1725.85 457.157 L1733.49 457.157 L1733.49 461.092 L1713.58 461.092 L1713.58 457.157 Z" fill="#000000" fill-rule="nonzero" fill-opacity="1" /><path clip-path="url(#clip420)" d="M1969.47 457.157 L1985.79 457.157 L1985.79 461.092 L1963.85 461.092 L1963.85 457.157 Q1966.51 454.402 1971.09 449.772 Q1975.7 445.12 1976.88 443.777 Q1979.12 441.254 1980 439.518 Q1980.91 437.759 1980.91 436.069 Q1980.91 433.314 1978.96 431.578 Q1977.04 429.842 1973.94 429.842 Q1971.74 429.842 1969.29 430.606 Q1966.86 431.37 1964.08 432.921 L1964.08 428.199 Q1966.9 427.064 1969.36 426.486 Q1971.81 425.907 1973.85 425.907 Q1979.22 425.907 1982.41 428.592 Q1985.61 431.277 1985.61 435.768 Q1985.61 437.898 1984.8 439.819 Q1984.01 441.717 1981.9 444.31 Q1981.32 444.981 1978.22 448.198 Q1975.12 451.393 1969.47 457.157 Z" fill="#000000" fill-rule="nonzero" fill-opacity="1" /><path clip-path="url(#clip420)" d="M2230.69 442.458 Q2234.05 443.175 2235.92 445.444 Q2237.82 447.712 2237.82 451.046 Q2237.82 456.161 2234.3 458.962 Q2230.78 461.763 2224.3 461.763 Q2222.12 461.763 2219.81 461.323 Q2217.52 460.907 2215.06 460.05 L2215.06 455.536 Q2217.01 456.671 2219.32 457.249 Q2221.64 457.828 2224.16 457.828 Q2228.56 457.828 2230.85 456.092 Q2233.17 454.356 2233.17 451.046 Q2233.17 447.99 2231.01 446.277 Q2228.88 444.541 2225.06 444.541 L2221.04 444.541 L2221.04 440.698 L2225.25 440.698 Q2228.7 440.698 2230.53 439.333 Q2232.36 437.944 2232.36 435.351 Q2232.36 432.689 2230.46 431.277 Q2228.58 429.842 2225.06 429.842 Q2223.14 429.842 2220.94 430.259 Q2218.74 430.675 2216.11 431.555 L2216.11 427.388 Q2218.77 426.648 2221.08 426.277 Q2223.42 425.907 2225.48 425.907 Q2230.8 425.907 2233.91 428.337 Q2237.01 430.745 2237.01 434.865 Q2237.01 437.736 2235.36 439.726 Q2233.72 441.694 2230.69 442.458 Z" fill="#000000" fill-rule="nonzero" fill-opacity="1" /><polyline clip-path="url(#clip420)" style="stroke:#000000; stroke-linecap:round; stroke-linejoin:round; stroke-width:4; stroke-opacity:1; fill:none" points="1445.91,398.692 1445.91,47.2441 "/>
<polyline clip-path="url(#clip420)" style="stroke:#000000; stroke-linecap:round; stroke-linejoin:round; stroke-width:4; stroke-opacity:1; fill:none" points="1445.91,380.675 1464.81,380.675 "/>
<polyline clip-path="url(#clip420)" style="stroke:#000000; stroke-linecap:round; stroke-linejoin:round; stroke-width:4; stroke-opacity:1; fill:none" points="1445.91,317.456 1464.81,317.456 "/>
<polyline clip-path="url(#clip420)" style="stroke:#000000; stroke-linecap:round; stroke-linejoin:round; stroke-width:4; stroke-opacity:1; fill:none" points="1445.91,254.237 1464.81,254.237 "/>
<polyline clip-path="url(#clip420)" style="stroke:#000000; stroke-linecap:round; stroke-linejoin:round; stroke-width:4; stroke-opacity:1; fill:none" points="1445.91,191.018 1464.81,191.018 "/>
<polyline clip-path="url(#clip420)" style="stroke:#000000; stroke-linecap:round; stroke-linejoin:round; stroke-width:4; stroke-opacity:1; fill:none" points="1445.91,127.799 1464.81,127.799 "/>
<polyline clip-path="url(#clip420)" style="stroke:#000000; stroke-linecap:round; stroke-linejoin:round; stroke-width:4; stroke-opacity:1; fill:none" points="1445.91,64.5803 1464.81,64.5803 "/>
<path clip-path="url(#clip420)" d="M1352.73 366.473 Q1349.12 366.473 1347.29 370.038 Q1345.49 373.58 1345.49 380.709 Q1345.49 387.816 1347.29 391.381 Q1349.12 394.922 1352.73 394.922 Q1356.37 394.922 1358.17 391.381 Q1360 387.816 1360 380.709 Q1360 373.58 1358.17 370.038 Q1356.37 366.473 1352.73 366.473 M1352.73 362.77 Q1358.54 362.77 1361.6 367.376 Q1364.68 371.96 1364.68 380.709 Q1364.68 389.436 1361.6 394.043 Q1358.54 398.626 1352.73 398.626 Q1346.92 398.626 1343.84 394.043 Q1340.79 389.436 1340.79 380.709 Q1340.79 371.96 1343.84 367.376 Q1346.92 362.77 1352.73 362.77 Z" fill="#000000" fill-rule="nonzero" fill-opacity="1" /><path clip-path="url(#clip420)" d="M1372.89 392.075 L1377.78 392.075 L1377.78 397.955 L1372.89 397.955 L1372.89 392.075 Z" fill="#000000" fill-rule="nonzero" fill-opacity="1" /><path clip-path="url(#clip420)" d="M1397.96 366.473 Q1394.35 366.473 1392.52 370.038 Q1390.72 373.58 1390.72 380.709 Q1390.72 387.816 1392.52 391.381 Q1394.35 394.922 1397.96 394.922 Q1401.6 394.922 1403.4 391.381 Q1405.23 387.816 1405.23 380.709 Q1405.23 373.58 1403.4 370.038 Q1401.6 366.473 1397.96 366.473 M1397.96 362.77 Q1403.77 362.77 1406.83 367.376 Q1409.91 371.96 1409.91 380.709 Q1409.91 389.436 1406.83 394.043 Q1403.77 398.626 1397.96 398.626 Q1392.15 398.626 1389.07 394.043 Q1386.02 389.436 1386.02 380.709 Q1386.02 371.96 1389.07 367.376 Q1392.15 362.77 1397.96 362.77 Z" fill="#000000" fill-rule="nonzero" fill-opacity="1" /><path clip-path="url(#clip420)" d="M1353.96 303.255 Q1350.35 303.255 1348.52 306.819 Q1346.71 310.361 1346.71 317.491 Q1346.71 324.597 1348.52 328.162 Q1350.35 331.703 1353.96 331.703 Q1357.59 331.703 1359.4 328.162 Q1361.23 324.597 1361.23 317.491 Q1361.23 310.361 1359.4 306.819 Q1357.59 303.255 1353.96 303.255 M1353.96 299.551 Q1359.77 299.551 1362.82 304.157 Q1365.9 308.741 1365.9 317.491 Q1365.9 326.217 1362.82 330.824 Q1359.77 335.407 1353.96 335.407 Q1348.15 335.407 1345.07 330.824 Q1342.01 326.217 1342.01 317.491 Q1342.01 308.741 1345.07 304.157 Q1348.15 299.551 1353.96 299.551 Z" fill="#000000" fill-rule="nonzero" fill-opacity="1" /><path clip-path="url(#clip420)" d="M1374.12 328.856 L1379.01 328.856 L1379.01 334.736 L1374.12 334.736 L1374.12 328.856 Z" fill="#000000" fill-rule="nonzero" fill-opacity="1" /><path clip-path="url(#clip420)" d="M1390 330.801 L1397.64 330.801 L1397.64 304.435 L1389.33 306.102 L1389.33 301.843 L1397.59 300.176 L1402.27 300.176 L1402.27 330.801 L1409.91 330.801 L1409.91 334.736 L1390 334.736 L1390 330.801 Z" fill="#000000" fill-rule="nonzero" fill-opacity="1" /><path clip-path="url(#clip420)" d="M1354.33 240.036 Q1350.72 240.036 1348.89 243.6 Q1347.08 247.142 1347.08 254.272 Q1347.08 261.378 1348.89 264.943 Q1350.72 268.485 1354.33 268.485 Q1357.96 268.485 1359.77 264.943 Q1361.6 261.378 1361.6 254.272 Q1361.6 247.142 1359.77 243.6 Q1357.96 240.036 1354.33 240.036 M1354.33 236.332 Q1360.14 236.332 1363.2 240.938 Q1366.27 245.522 1366.27 254.272 Q1366.27 262.998 1363.2 267.605 Q1360.14 272.188 1354.33 272.188 Q1348.52 272.188 1345.44 267.605 Q1342.39 262.998 1342.39 254.272 Q1342.39 245.522 1345.44 240.938 Q1348.52 236.332 1354.33 236.332 Z" fill="#000000" fill-rule="nonzero" fill-opacity="1" /><path clip-path="url(#clip420)" d="M1374.49 265.637 L1379.38 265.637 L1379.38 271.517 L1374.49 271.517 L1374.49 265.637 Z" fill="#000000" fill-rule="nonzero" fill-opacity="1" /><path clip-path="url(#clip420)" d="M1393.59 267.582 L1409.91 267.582 L1409.91 271.517 L1387.96 271.517 L1387.96 267.582 Q1390.63 264.827 1395.21 260.198 Q1399.82 255.545 1401 254.202 Q1403.24 251.679 1404.12 249.943 Q1405.02 248.184 1405.02 246.494 Q1405.02 243.739 1403.08 242.003 Q1401.16 240.267 1398.06 240.267 Q1395.86 240.267 1393.4 241.031 Q1390.97 241.795 1388.19 243.346 L1388.19 238.624 Q1391.02 237.489 1393.47 236.911 Q1395.93 236.332 1397.96 236.332 Q1403.33 236.332 1406.53 239.017 Q1409.72 241.702 1409.72 246.193 Q1409.72 248.323 1408.91 250.244 Q1408.13 252.142 1406.02 254.735 Q1405.44 255.406 1402.34 258.624 Q1399.24 261.818 1393.59 267.582 Z" fill="#000000" fill-rule="nonzero" fill-opacity="1" /><path clip-path="url(#clip420)" d="M1353.38 176.817 Q1349.77 176.817 1347.94 180.382 Q1346.13 183.923 1346.13 191.053 Q1346.13 198.159 1347.94 201.724 Q1349.77 205.266 1353.38 205.266 Q1357.01 205.266 1358.82 201.724 Q1360.65 198.159 1360.65 191.053 Q1360.65 183.923 1358.82 180.382 Q1357.01 176.817 1353.38 176.817 M1353.38 173.113 Q1359.19 173.113 1362.25 177.72 Q1365.32 182.303 1365.32 191.053 Q1365.32 199.78 1362.25 204.386 Q1359.19 208.969 1353.38 208.969 Q1347.57 208.969 1344.49 204.386 Q1341.44 199.78 1341.44 191.053 Q1341.44 182.303 1344.49 177.72 Q1347.57 173.113 1353.38 173.113 Z" fill="#000000" fill-rule="nonzero" fill-opacity="1" /><path clip-path="url(#clip420)" d="M1373.54 202.418 L1378.43 202.418 L1378.43 208.298 L1373.54 208.298 L1373.54 202.418 Z" fill="#000000" fill-rule="nonzero" fill-opacity="1" /><path clip-path="url(#clip420)" d="M1402.78 189.664 Q1406.13 190.381 1408.01 192.65 Q1409.91 194.919 1409.91 198.252 Q1409.91 203.368 1406.39 206.168 Q1402.87 208.969 1396.39 208.969 Q1394.21 208.969 1391.9 208.53 Q1389.61 208.113 1387.15 207.256 L1387.15 202.743 Q1389.1 203.877 1391.41 204.455 Q1393.73 205.034 1396.25 205.034 Q1400.65 205.034 1402.94 203.298 Q1405.26 201.562 1405.26 198.252 Q1405.26 195.196 1403.1 193.483 Q1400.97 191.747 1397.15 191.747 L1393.13 191.747 L1393.13 187.905 L1397.34 187.905 Q1400.79 187.905 1402.62 186.539 Q1404.44 185.15 1404.44 182.557 Q1404.44 179.895 1402.55 178.483 Q1400.67 177.048 1397.15 177.048 Q1395.23 177.048 1393.03 177.465 Q1390.83 177.882 1388.19 178.761 L1388.19 174.595 Q1390.86 173.854 1393.17 173.483 Q1395.51 173.113 1397.57 173.113 Q1402.89 173.113 1406 175.544 Q1409.1 177.951 1409.1 182.071 Q1409.1 184.942 1407.45 186.932 Q1405.81 188.9 1402.78 189.664 Z" fill="#000000" fill-rule="nonzero" fill-opacity="1" /><path clip-path="url(#clip420)" d="M1352.25 113.598 Q1348.63 113.598 1346.81 117.163 Q1345 120.704 1345 127.834 Q1345 134.94 1346.81 138.505 Q1348.63 142.047 1352.25 142.047 Q1355.88 142.047 1357.69 138.505 Q1359.51 134.94 1359.51 127.834 Q1359.51 120.704 1357.69 117.163 Q1355.88 113.598 1352.25 113.598 M1352.25 109.894 Q1358.06 109.894 1361.11 114.501 Q1364.19 119.084 1364.19 127.834 Q1364.19 136.561 1361.11 141.167 Q1358.06 145.75 1352.25 145.75 Q1346.44 145.75 1343.36 141.167 Q1340.3 136.561 1340.3 127.834 Q1340.3 119.084 1343.36 114.501 Q1346.44 109.894 1352.25 109.894 Z" fill="#000000" fill-rule="nonzero" fill-opacity="1" /><path clip-path="url(#clip420)" d="M1372.41 139.2 L1377.29 139.2 L1377.29 145.079 L1372.41 145.079 L1372.41 139.2 Z" fill="#000000" fill-rule="nonzero" fill-opacity="1" /><path clip-path="url(#clip420)" d="M1400.32 114.593 L1388.52 133.042 L1400.32 133.042 L1400.32 114.593 M1399.1 110.519 L1404.98 110.519 L1404.98 133.042 L1409.91 133.042 L1409.91 136.931 L1404.98 136.931 L1404.98 145.079 L1400.32 145.079 L1400.32 136.931 L1384.72 136.931 L1384.72 132.417 L1399.1 110.519 Z" fill="#000000" fill-rule="nonzero" fill-opacity="1" /><path clip-path="url(#clip420)" d="M1353.73 50.379 Q1350.12 50.379 1348.29 53.9438 Q1346.48 57.4854 1346.48 64.615 Q1346.48 71.7214 1348.29 75.2862 Q1350.12 78.8279 1353.73 78.8279 Q1357.36 78.8279 1359.17 75.2862 Q1361 71.7214 1361 64.615 Q1361 57.4854 1359.17 53.9438 Q1357.36 50.379 1353.73 50.379 M1353.73 46.6753 Q1359.54 46.6753 1362.59 51.2817 Q1365.67 55.865 1365.67 64.615 Q1365.67 73.3418 1362.59 77.9483 Q1359.54 82.5316 1353.73 82.5316 Q1347.92 82.5316 1344.84 77.9483 Q1341.78 73.3418 1341.78 64.615 Q1341.78 55.865 1344.84 51.2817 Q1347.92 46.6753 1353.73 46.6753 Z" fill="#000000" fill-rule="nonzero" fill-opacity="1" /><path clip-path="url(#clip420)" d="M1373.89 75.9807 L1378.77 75.9807 L1378.77 81.8603 L1373.89 81.8603 L1373.89 75.9807 Z" fill="#000000" fill-rule="nonzero" fill-opacity="1" /><path clip-path="url(#clip420)" d="M1389.01 47.3003 L1407.36 47.3003 L1407.36 51.2354 L1393.29 51.2354 L1393.29 59.7076 Q1394.31 59.3604 1395.32 59.1984 Q1396.34 59.0132 1397.36 59.0132 Q1403.15 59.0132 1406.53 62.1845 Q1409.91 65.3557 1409.91 70.7724 Q1409.91 76.351 1406.44 79.4529 Q1402.96 82.5316 1396.64 82.5316 Q1394.47 82.5316 1392.2 82.1612 Q1389.95 81.7908 1387.55 81.0501 L1387.55 76.351 Q1389.63 77.4853 1391.85 78.0409 Q1394.07 78.5964 1396.55 78.5964 Q1400.56 78.5964 1402.89 76.4899 Q1405.23 74.3835 1405.23 70.7724 Q1405.23 67.1613 1402.89 65.0548 Q1400.56 62.9483 1396.55 62.9483 Q1394.68 62.9483 1392.8 63.365 Q1390.95 63.7817 1389.01 64.6613 L1389.01 47.3003 Z" fill="#000000" fill-rule="nonzero" fill-opacity="1" /><path clip-path="url(#clip420)" d="M1265.47 298.084 Q1270.89 298.084 1276.97 299.823 Q1283.03 301.53 1287.92 304.235 Q1292.79 306.941 1296.01 310.483 Q1299.19 314.026 1299.19 317.408 Q1299.19 319.565 1298 321.176 Q1296.78 322.754 1294.75 323.623 Q1292.69 324.493 1290.43 324.912 Q1288.15 325.33 1285.67 325.33 Q1281.96 325.33 1277.94 324.525 Q1273.88 323.72 1270.21 322.367 Q1266.51 321.015 1263.16 319.115 Q1259.77 317.214 1257.33 315.121 Q1254.85 312.995 1253.4 310.612 Q1251.95 308.229 1251.95 306.007 Q1251.95 304.396 1252.66 303.108 Q1253.33 301.788 1254.52 300.95 Q1255.68 300.113 1257.07 299.533 Q1258.45 298.921 1260.06 298.632 Q1261.64 298.342 1262.96 298.213 Q1264.25 298.084 1265.47 298.084 M1261.38 302.432 Q1259.74 302.432 1258.52 302.561 Q1257.26 302.69 1256.01 303.044 Q1254.75 303.398 1254.07 304.171 Q1253.4 304.912 1253.4 306.071 Q1253.4 309.453 1260.32 313.253 Q1262.48 314.477 1265.41 315.572 Q1268.34 316.667 1269.73 317.053 Q1271.11 317.44 1274.52 318.342 L1274.52 304.558 Q1265.73 302.432 1261.38 302.432 M1276.62 305.137 L1276.62 318.857 Q1284.67 320.983 1289.69 320.983 Q1294.07 320.983 1295.91 320.081 Q1297.71 319.147 1297.71 317.408 Q1297.71 315.411 1295.72 313.543 Q1293.69 311.675 1290.02 309.775 Q1285.25 307.263 1276.62 305.137 Z" fill="#000000" fill-rule="nonzero" fill-opacity="1" /><path clip-path="url(#clip420)" d="M1248.99 253.776 Q1256.31 258.041 1263.47 260.11 Q1270.64 262.179 1277.99 262.179 Q1285.34 262.179 1292.57 260.11 Q1299.76 258.009 1307.05 253.776 L1307.05 258.869 Q1299.57 263.643 1292.34 266.03 Q1285.12 268.386 1277.99 268.386 Q1270.89 268.386 1263.7 266.03 Q1256.5 263.675 1248.99 258.869 L1248.99 253.776 Z" fill="#000000" fill-rule="nonzero" fill-opacity="1" /><path clip-path="url(#clip420)" d="M1268.28 221.757 Q1267.71 222.743 1267.45 223.921 Q1267.17 225.067 1267.17 226.467 Q1267.17 231.433 1270.41 234.106 Q1273.63 236.748 1279.67 236.748 L1298.45 236.748 L1298.45 242.636 L1262.81 242.636 L1262.81 236.748 L1268.34 236.748 Q1265.1 234.902 1263.54 231.942 Q1261.95 228.982 1261.95 224.749 Q1261.95 224.144 1262.04 223.412 Q1262.11 222.68 1262.26 221.789 L1268.28 221.757 Z" fill="#000000" fill-rule="nonzero" fill-opacity="1" /><path clip-path="url(#clip420)" d="M1280.53 199.413 Q1280.53 206.511 1282.16 209.248 Q1283.78 211.985 1287.7 211.985 Q1290.81 211.985 1292.66 209.948 Q1294.48 207.879 1294.48 204.347 Q1294.48 199.477 1291.04 196.549 Q1287.57 193.588 1281.84 193.588 L1280.53 193.588 L1280.53 199.413 M1278.12 187.732 L1298.45 187.732 L1298.45 193.588 L1293.04 193.588 Q1296.29 195.594 1297.85 198.586 Q1299.38 201.577 1299.38 205.906 Q1299.38 211.381 1296.32 214.627 Q1293.23 217.842 1288.08 217.842 Q1282.06 217.842 1279.01 213.831 Q1275.95 209.789 1275.95 201.8 L1275.95 193.588 L1275.38 193.588 Q1271.34 193.588 1269.14 196.262 Q1266.91 198.904 1266.91 203.71 Q1266.91 206.766 1267.64 209.662 Q1268.38 212.558 1269.84 215.232 L1264.43 215.232 Q1263.19 212.017 1262.58 208.993 Q1261.95 205.97 1261.95 203.105 Q1261.95 195.371 1265.96 191.551 Q1269.97 187.732 1278.12 187.732 Z" fill="#000000" fill-rule="nonzero" fill-opacity="1" /><path clip-path="url(#clip420)" d="M1268.22 152.211 L1248.93 152.211 L1248.93 146.355 L1298.45 146.355 L1298.45 152.211 L1293.11 152.211 Q1296.29 154.057 1297.85 156.89 Q1299.38 159.691 1299.38 163.638 Q1299.38 170.099 1294.22 174.173 Q1289.06 178.215 1280.66 178.215 Q1272.26 178.215 1267.1 174.173 Q1261.95 170.099 1261.95 163.638 Q1261.95 159.691 1263.51 156.89 Q1265.03 154.057 1268.22 152.211 M1280.66 172.168 Q1287.12 172.168 1290.81 169.526 Q1294.48 166.853 1294.48 162.206 Q1294.48 157.559 1290.81 154.885 Q1287.12 152.211 1280.66 152.211 Q1274.2 152.211 1270.54 154.885 Q1266.85 157.559 1266.85 162.206 Q1266.85 166.853 1270.54 169.526 Q1274.2 172.168 1280.66 172.168 Z" fill="#000000" fill-rule="nonzero" fill-opacity="1" /><path clip-path="url(#clip420)" d="M1248.99 135.215 L1248.99 130.122 Q1256.5 125.348 1263.7 122.993 Q1270.89 120.606 1277.99 120.606 Q1285.12 120.606 1292.34 122.993 Q1299.57 125.348 1307.05 130.122 L1307.05 135.215 Q1299.76 130.982 1292.57 128.913 Q1285.34 126.812 1277.99 126.812 Q1270.64 126.812 1263.47 128.913 Q1256.31 130.982 1248.99 135.215 Z" fill="#000000" fill-rule="nonzero" fill-opacity="1" /><polyline clip-path="url(#clip423)" style="stroke:#009af9; stroke-linecap:round; stroke-linejoin:round; stroke-width:4; stroke-opacity:1; fill:none" points="1471.57,380.675 1496.74,353.222 1521.9,290.947 1547.06,219.234 1572.22,155.058 1597.38,107.021 1622.55,77.1793 1647.71,63.461 1672.87,61.8225 1698.03,67.7854 1723.2,77.3669 1748.36,87.539 1773.52,96.3528 1798.68,102.844 1823.85,106.818 1849.01,108.582 1874.17,108.702 1899.33,107.804 1924.49,106.443 1949.66,105.034 1974.82,103.84 1999.98,102.979 2025.14,102.469 2050.31,102.259 2075.47,102.267 2100.63,102.406 2125.79,102.6 2150.95,102.795 2176.12,102.957 2201.28,103.071 2226.44,103.136 2251.6,103.161 2276.77,103.157 2301.93,103.136 2327.09,103.108 "/>
<polyline clip-path="url(#clip423)" style="stroke:#e26f46; stroke-linecap:round; stroke-linejoin:round; stroke-width:3; stroke-opacity:1; fill:none" stroke-dasharray="12, 6, 2, 6" points="1471.57,388.745 1496.74,355.607 1521.9,296.016 1547.06,214.284 1572.22,153.555 1597.38,114.321 1622.55,70.9766 1647.71,57.1907 1672.87,67.8891 1698.03,69.9761 1723.2,79.3561 1748.36,76.6227 1773.52,87.2655 1798.68,103.151 1823.85,102.631 1849.01,101.688 1874.17,105.091 1899.33,106.508 1924.49,109.481 1949.66,101.932 1974.82,104.284 1999.98,102.789 2025.14,97.295 2050.31,102.141 2075.47,99.5575 2100.63,107.069 2125.79,109.016 2150.95,99.675 2176.12,103.375 2201.28,101.126 2226.44,104.457 2251.6,101.62 2276.77,96.075 2301.93,101.572 2327.09,102.939 "/>
<path clip-path="url(#clip420)" d="M2203.01 386.977 L2322.53 386.977 L2322.53 231.457 L2203.01 231.457  Z" fill="#ffffff" fill-rule="evenodd" fill-opacity="1"/>
<polyline clip-path="url(#clip420)" style="stroke:#000000; stroke-linecap:round; stroke-linejoin:round; stroke-width:4; stroke-opacity:1; fill:none" points="2203.01,386.977 2322.53,386.977 2322.53,231.457 2203.01,231.457 2203.01,386.977 "/>
<polyline clip-path="url(#clip420)" style="stroke:#009af9; stroke-linecap:round; stroke-linejoin:round; stroke-width:4; stroke-opacity:1; fill:none" points="2213.09,283.297 2273.55,283.297 "/>
<path clip-path="url(#clip420)" d="M2310.63 293.836 L2305.36 293.695 L2299.6 293.836 L2299.6 291.587 L2301.47 291.587 L2296.2 285.357 L2291.54 290.58 L2291.21 291.049 Q2291.21 291.26 2291.75 291.423 Q2292.31 291.587 2292.97 291.587 L2292.97 293.836 L2288.03 293.695 L2283.62 293.836 L2283.62 291.587 Q2285.1 291.587 2285.78 291.564 Q2286.48 291.517 2287.28 291.306 Q2288.07 291.096 2288.47 290.674 L2294.75 283.624 L2287.28 274.794 L2283.86 274.794 L2283.86 272.545 L2289.15 272.686 L2294.94 272.545 L2294.94 274.794 L2293.01 274.794 L2297.72 280.298 L2301.75 275.801 Q2301.77 275.777 2302.15 275.215 Q2301.4 274.794 2300.32 274.794 L2300.32 272.545 L2305.26 272.686 L2309.67 272.545 L2309.67 274.794 Q2307.75 274.794 2306.74 274.934 Q2305.76 275.051 2305.45 275.215 Q2305.17 275.379 2304.77 275.801 L2299.17 282.031 L2307.23 291.587 L2310.63 291.587 L2310.63 293.836 Z" fill="#000000" fill-rule="nonzero" fill-opacity="1" /><polyline clip-path="url(#clip420)" style="stroke:#e26f46; stroke-linecap:round; stroke-linejoin:round; stroke-width:3; stroke-opacity:1; fill:none" stroke-dasharray="12, 6, 2, 6" points="2213.09,335.137 2273.55,335.137 "/>
<path clip-path="url(#clip420)" d="M2306.21 323.615 L2305.8 324.287 Q2303.26 323.189 2300.09 321.434 Q2296.93 323.189 2294.39 324.287 L2293.99 323.615 Q2296.76 321.205 2300.09 319.352 Q2303.45 321.221 2306.21 323.615 Z" fill="#000000" fill-rule="nonzero" fill-opacity="1" /><path clip-path="url(#clip420)" d="M2310.63 350.681 L2305.36 350.54 L2299.6 350.681 L2299.6 348.432 L2301.47 348.432 L2296.2 342.202 L2291.54 347.425 L2291.21 347.893 Q2291.21 348.104 2291.75 348.268 Q2292.31 348.432 2292.97 348.432 L2292.97 350.681 L2288.03 350.54 L2283.62 350.681 L2283.62 348.432 Q2285.1 348.432 2285.78 348.409 Q2286.48 348.362 2287.28 348.151 Q2288.07 347.94 2288.47 347.519 L2294.75 340.468 L2287.28 331.638 L2283.86 331.638 L2283.86 329.39 L2289.15 329.53 L2294.94 329.39 L2294.94 331.638 L2293.01 331.638 L2297.72 337.142 L2301.75 332.645 Q2301.77 332.622 2302.15 332.06 Q2301.4 331.638 2300.32 331.638 L2300.32 329.39 L2305.26 329.53 L2309.67 329.39 L2309.67 331.638 Q2307.75 331.638 2306.74 331.779 Q2305.76 331.896 2305.45 332.06 Q2305.17 332.224 2304.77 332.645 L2299.17 338.876 L2307.23 348.432 L2310.63 348.432 L2310.63 350.681 Z" fill="#000000" fill-rule="nonzero" fill-opacity="1" /><path clip-path="url(#clip420)" d="M1445.91 910.936 L2352.76 910.936 L2352.76 559.488 L1445.91 559.488  Z" fill="#ffffff" fill-rule="evenodd" fill-opacity="1"/>
<defs>
  <clipPath id="clip424">
    <rect x="1445" y="559" width="908" height="352"/>
  </clipPath>
</defs>
<polyline clip-path="url(#clip424)" style="stroke:#000000; stroke-linecap:round; stroke-linejoin:round; stroke-width:2; stroke-opacity:0.1; fill:none" points="1471.57,910.936 1471.57,559.488 "/>
<polyline clip-path="url(#clip424)" style="stroke:#000000; stroke-linecap:round; stroke-linejoin:round; stroke-width:2; stroke-opacity:0.1; fill:none" points="1723.2,910.936 1723.2,559.488 "/>
<polyline clip-path="url(#clip424)" style="stroke:#000000; stroke-linecap:round; stroke-linejoin:round; stroke-width:2; stroke-opacity:0.1; fill:none" points="1974.82,910.936 1974.82,559.488 "/>
<polyline clip-path="url(#clip424)" style="stroke:#000000; stroke-linecap:round; stroke-linejoin:round; stroke-width:2; stroke-opacity:0.1; fill:none" points="2226.44,910.936 2226.44,559.488 "/>
<polyline clip-path="url(#clip424)" style="stroke:#000000; stroke-linecap:round; stroke-linejoin:round; stroke-width:2; stroke-opacity:0.1; fill:none" points="1445.91,851.689 2352.76,851.689 "/>
<polyline clip-path="url(#clip424)" style="stroke:#000000; stroke-linecap:round; stroke-linejoin:round; stroke-width:2; stroke-opacity:0.1; fill:none" points="1445.91,783.839 2352.76,783.839 "/>
<polyline clip-path="url(#clip424)" style="stroke:#000000; stroke-linecap:round; stroke-linejoin:round; stroke-width:2; stroke-opacity:0.1; fill:none" points="1445.91,715.99 2352.76,715.99 "/>
<polyline clip-path="url(#clip424)" style="stroke:#000000; stroke-linecap:round; stroke-linejoin:round; stroke-width:2; stroke-opacity:0.1; fill:none" points="1445.91,648.14 2352.76,648.14 "/>
<polyline clip-path="url(#clip424)" style="stroke:#000000; stroke-linecap:round; stroke-linejoin:round; stroke-width:2; stroke-opacity:0.1; fill:none" points="1445.91,580.29 2352.76,580.29 "/>
<polyline clip-path="url(#clip420)" style="stroke:#000000; stroke-linecap:round; stroke-linejoin:round; stroke-width:4; stroke-opacity:1; fill:none" points="1445.91,910.936 2352.76,910.936 "/>
<polyline clip-path="url(#clip420)" style="stroke:#000000; stroke-linecap:round; stroke-linejoin:round; stroke-width:4; stroke-opacity:1; fill:none" points="1471.57,910.936 1471.57,892.038 "/>
<polyline clip-path="url(#clip420)" style="stroke:#000000; stroke-linecap:round; stroke-linejoin:round; stroke-width:4; stroke-opacity:1; fill:none" points="1723.2,910.936 1723.2,892.038 "/>
<polyline clip-path="url(#clip420)" style="stroke:#000000; stroke-linecap:round; stroke-linejoin:round; stroke-width:4; stroke-opacity:1; fill:none" points="1974.82,910.936 1974.82,892.038 "/>
<polyline clip-path="url(#clip420)" style="stroke:#000000; stroke-linecap:round; stroke-linejoin:round; stroke-width:4; stroke-opacity:1; fill:none" points="2226.44,910.936 2226.44,892.038 "/>
<path clip-path="url(#clip420)" d="M1471.57 941.855 Q1467.96 941.855 1466.13 945.419 Q1464.33 948.961 1464.33 956.091 Q1464.33 963.197 1466.13 966.762 Q1467.96 970.303 1471.57 970.303 Q1475.21 970.303 1477.01 966.762 Q1478.84 963.197 1478.84 956.091 Q1478.84 948.961 1477.01 945.419 Q1475.21 941.855 1471.57 941.855 M1471.57 938.151 Q1477.38 938.151 1480.44 942.757 Q1483.52 947.341 1483.52 956.091 Q1483.52 964.817 1480.44 969.424 Q1477.38 974.007 1471.57 974.007 Q1465.76 974.007 1462.68 969.424 Q1459.63 964.817 1459.63 956.091 Q1459.63 947.341 1462.68 942.757 Q1465.76 938.151 1471.57 938.151 Z" fill="#000000" fill-rule="nonzero" fill-opacity="1" /><path clip-path="url(#clip420)" d="M1713.58 969.401 L1721.22 969.401 L1721.22 943.035 L1712.91 944.702 L1712.91 940.443 L1721.17 938.776 L1725.85 938.776 L1725.85 969.401 L1733.49 969.401 L1733.49 973.336 L1713.58 973.336 L1713.58 969.401 Z" fill="#000000" fill-rule="nonzero" fill-opacity="1" /><path clip-path="url(#clip420)" d="M1969.47 969.401 L1985.79 969.401 L1985.79 973.336 L1963.85 973.336 L1963.85 969.401 Q1966.51 966.646 1971.09 962.016 Q1975.7 957.364 1976.88 956.021 Q1979.12 953.498 1980 951.762 Q1980.91 950.003 1980.91 948.313 Q1980.91 945.558 1978.96 943.822 Q1977.04 942.086 1973.94 942.086 Q1971.74 942.086 1969.29 942.85 Q1966.86 943.614 1964.08 945.165 L1964.08 940.443 Q1966.9 939.308 1969.36 938.73 Q1971.81 938.151 1973.85 938.151 Q1979.22 938.151 1982.41 940.836 Q1985.61 943.521 1985.61 948.012 Q1985.61 950.142 1984.8 952.063 Q1984.01 953.961 1981.9 956.554 Q1981.32 957.225 1978.22 960.442 Q1975.12 963.637 1969.47 969.401 Z" fill="#000000" fill-rule="nonzero" fill-opacity="1" /><path clip-path="url(#clip420)" d="M2230.69 954.702 Q2234.05 955.419 2235.92 957.688 Q2237.82 959.956 2237.82 963.29 Q2237.82 968.405 2234.3 971.206 Q2230.78 974.007 2224.3 974.007 Q2222.12 974.007 2219.81 973.567 Q2217.52 973.151 2215.06 972.294 L2215.06 967.78 Q2217.01 968.915 2219.32 969.493 Q2221.64 970.072 2224.16 970.072 Q2228.56 970.072 2230.85 968.336 Q2233.17 966.6 2233.17 963.29 Q2233.17 960.234 2231.01 958.521 Q2228.88 956.785 2225.06 956.785 L2221.04 956.785 L2221.04 952.942 L2225.25 952.942 Q2228.7 952.942 2230.53 951.577 Q2232.36 950.188 2232.36 947.595 Q2232.36 944.933 2230.46 943.521 Q2228.58 942.086 2225.06 942.086 Q2223.14 942.086 2220.94 942.503 Q2218.74 942.919 2216.11 943.799 L2216.11 939.632 Q2218.77 938.892 2221.08 938.521 Q2223.42 938.151 2225.48 938.151 Q2230.8 938.151 2233.91 940.581 Q2237.01 942.989 2237.01 947.109 Q2237.01 949.979 2235.36 951.97 Q2233.72 953.938 2230.69 954.702 Z" fill="#000000" fill-rule="nonzero" fill-opacity="1" /><polyline clip-path="url(#clip420)" style="stroke:#000000; stroke-linecap:round; stroke-linejoin:round; stroke-width:4; stroke-opacity:1; fill:none" points="1445.91,910.936 1445.91,559.488 "/>
<polyline clip-path="url(#clip420)" style="stroke:#000000; stroke-linecap:round; stroke-linejoin:round; stroke-width:4; stroke-opacity:1; fill:none" points="1445.91,851.689 1464.81,851.689 "/>
<polyline clip-path="url(#clip420)" style="stroke:#000000; stroke-linecap:round; stroke-linejoin:round; stroke-width:4; stroke-opacity:1; fill:none" points="1445.91,783.839 1464.81,783.839 "/>
<polyline clip-path="url(#clip420)" style="stroke:#000000; stroke-linecap:round; stroke-linejoin:round; stroke-width:4; stroke-opacity:1; fill:none" points="1445.91,715.99 1464.81,715.99 "/>
<polyline clip-path="url(#clip420)" style="stroke:#000000; stroke-linecap:round; stroke-linejoin:round; stroke-width:4; stroke-opacity:1; fill:none" points="1445.91,648.14 1464.81,648.14 "/>
<polyline clip-path="url(#clip420)" style="stroke:#000000; stroke-linecap:round; stroke-linejoin:round; stroke-width:4; stroke-opacity:1; fill:none" points="1445.91,580.29 1464.81,580.29 "/>
<path clip-path="url(#clip420)" d="M1352.73 837.488 Q1349.12 837.488 1347.29 841.053 Q1345.49 844.594 1345.49 851.724 Q1345.49 858.83 1347.29 862.395 Q1349.12 865.937 1352.73 865.937 Q1356.37 865.937 1358.17 862.395 Q1360 858.83 1360 851.724 Q1360 844.594 1358.17 841.053 Q1356.37 837.488 1352.73 837.488 M1352.73 833.784 Q1358.54 833.784 1361.6 838.391 Q1364.68 842.974 1364.68 851.724 Q1364.68 860.451 1361.6 865.057 Q1358.54 869.641 1352.73 869.641 Q1346.92 869.641 1343.84 865.057 Q1340.79 860.451 1340.79 851.724 Q1340.79 842.974 1343.84 838.391 Q1346.92 833.784 1352.73 833.784 Z" fill="#000000" fill-rule="nonzero" fill-opacity="1" /><path clip-path="url(#clip420)" d="M1372.89 863.09 L1377.78 863.09 L1377.78 868.969 L1372.89 868.969 L1372.89 863.09 Z" fill="#000000" fill-rule="nonzero" fill-opacity="1" /><path clip-path="url(#clip420)" d="M1397.96 837.488 Q1394.35 837.488 1392.52 841.053 Q1390.72 844.594 1390.72 851.724 Q1390.72 858.83 1392.52 862.395 Q1394.35 865.937 1397.96 865.937 Q1401.6 865.937 1403.4 862.395 Q1405.23 858.83 1405.23 851.724 Q1405.23 844.594 1403.4 841.053 Q1401.6 837.488 1397.96 837.488 M1397.96 833.784 Q1403.77 833.784 1406.83 838.391 Q1409.91 842.974 1409.91 851.724 Q1409.91 860.451 1406.83 865.057 Q1403.77 869.641 1397.96 869.641 Q1392.15 869.641 1389.07 865.057 Q1386.02 860.451 1386.02 851.724 Q1386.02 842.974 1389.07 838.391 Q1392.15 833.784 1397.96 833.784 Z" fill="#000000" fill-rule="nonzero" fill-opacity="1" /><path clip-path="url(#clip420)" d="M1353.38 769.638 Q1349.77 769.638 1347.94 773.203 Q1346.13 776.745 1346.13 783.874 Q1346.13 790.981 1347.94 794.545 Q1349.77 798.087 1353.38 798.087 Q1357.01 798.087 1358.82 794.545 Q1360.65 790.981 1360.65 783.874 Q1360.65 776.745 1358.82 773.203 Q1357.01 769.638 1353.38 769.638 M1353.38 765.934 Q1359.19 765.934 1362.25 770.541 Q1365.32 775.124 1365.32 783.874 Q1365.32 792.601 1362.25 797.207 Q1359.19 801.791 1353.38 801.791 Q1347.57 801.791 1344.49 797.207 Q1341.44 792.601 1341.44 783.874 Q1341.44 775.124 1344.49 770.541 Q1347.57 765.934 1353.38 765.934 Z" fill="#000000" fill-rule="nonzero" fill-opacity="1" /><path clip-path="url(#clip420)" d="M1373.54 795.24 L1378.43 795.24 L1378.43 801.119 L1373.54 801.119 L1373.54 795.24 Z" fill="#000000" fill-rule="nonzero" fill-opacity="1" /><path clip-path="url(#clip420)" d="M1402.78 782.485 Q1406.13 783.203 1408.01 785.471 Q1409.91 787.74 1409.91 791.073 Q1409.91 796.189 1406.39 798.99 Q1402.87 801.791 1396.39 801.791 Q1394.21 801.791 1391.9 801.351 Q1389.61 800.934 1387.15 800.078 L1387.15 795.564 Q1389.1 796.698 1391.41 797.277 Q1393.73 797.856 1396.25 797.856 Q1400.65 797.856 1402.94 796.119 Q1405.26 794.383 1405.26 791.073 Q1405.26 788.018 1403.1 786.305 Q1400.97 784.569 1397.15 784.569 L1393.13 784.569 L1393.13 780.726 L1397.34 780.726 Q1400.79 780.726 1402.62 779.36 Q1404.44 777.971 1404.44 775.379 Q1404.44 772.717 1402.55 771.305 Q1400.67 769.87 1397.15 769.87 Q1395.23 769.87 1393.03 770.286 Q1390.83 770.703 1388.19 771.583 L1388.19 767.416 Q1390.86 766.675 1393.17 766.305 Q1395.51 765.934 1397.57 765.934 Q1402.89 765.934 1406 768.365 Q1409.1 770.772 1409.1 774.893 Q1409.1 777.763 1407.45 779.754 Q1405.81 781.721 1402.78 782.485 Z" fill="#000000" fill-rule="nonzero" fill-opacity="1" /><path clip-path="url(#clip420)" d="M1352.57 701.788 Q1348.96 701.788 1347.13 705.353 Q1345.32 708.895 1345.32 716.024 Q1345.32 723.131 1347.13 726.696 Q1348.96 730.237 1352.57 730.237 Q1356.2 730.237 1358.01 726.696 Q1359.84 723.131 1359.84 716.024 Q1359.84 708.895 1358.01 705.353 Q1356.2 701.788 1352.57 701.788 M1352.57 698.085 Q1358.38 698.085 1361.44 702.691 Q1364.51 707.274 1364.51 716.024 Q1364.51 724.751 1361.44 729.358 Q1358.38 733.941 1352.57 733.941 Q1346.76 733.941 1343.68 729.358 Q1340.63 724.751 1340.63 716.024 Q1340.63 707.274 1343.68 702.691 Q1346.76 698.085 1352.57 698.085 Z" fill="#000000" fill-rule="nonzero" fill-opacity="1" /><path clip-path="url(#clip420)" d="M1372.73 727.39 L1377.62 727.39 L1377.62 733.27 L1372.73 733.27 L1372.73 727.39 Z" fill="#000000" fill-rule="nonzero" fill-opacity="1" /><path clip-path="url(#clip420)" d="M1398.38 714.126 Q1395.23 714.126 1393.38 716.279 Q1391.55 718.432 1391.55 722.182 Q1391.55 725.909 1393.38 728.084 Q1395.23 730.237 1398.38 730.237 Q1401.53 730.237 1403.36 728.084 Q1405.21 725.909 1405.21 722.182 Q1405.21 718.432 1403.36 716.279 Q1401.53 714.126 1398.38 714.126 M1407.66 699.473 L1407.66 703.733 Q1405.9 702.899 1404.1 702.46 Q1402.32 702.02 1400.56 702.02 Q1395.93 702.02 1393.47 705.145 Q1391.04 708.27 1390.69 714.589 Q1392.06 712.575 1394.12 711.51 Q1396.18 710.423 1398.66 710.423 Q1403.87 710.423 1406.88 713.594 Q1409.91 716.742 1409.91 722.182 Q1409.91 727.506 1406.76 730.723 Q1403.61 733.941 1398.38 733.941 Q1392.38 733.941 1389.21 729.358 Q1386.04 724.751 1386.04 716.024 Q1386.04 707.83 1389.93 702.969 Q1393.82 698.085 1400.37 698.085 Q1402.13 698.085 1403.91 698.432 Q1405.72 698.779 1407.66 699.473 Z" fill="#000000" fill-rule="nonzero" fill-opacity="1" /><path clip-path="url(#clip420)" d="M1352.92 633.939 Q1349.31 633.939 1347.48 637.503 Q1345.67 641.045 1345.67 648.175 Q1345.67 655.281 1347.48 658.846 Q1349.31 662.387 1352.92 662.387 Q1356.55 662.387 1358.36 658.846 Q1360.19 655.281 1360.19 648.175 Q1360.19 641.045 1358.36 637.503 Q1356.55 633.939 1352.92 633.939 M1352.92 630.235 Q1358.73 630.235 1361.78 634.841 Q1364.86 639.425 1364.86 648.175 Q1364.86 656.901 1361.78 661.508 Q1358.73 666.091 1352.92 666.091 Q1347.11 666.091 1344.03 661.508 Q1340.97 656.901 1340.97 648.175 Q1340.97 639.425 1344.03 634.841 Q1347.11 630.235 1352.92 630.235 Z" fill="#000000" fill-rule="nonzero" fill-opacity="1" /><path clip-path="url(#clip420)" d="M1373.08 659.54 L1377.96 659.54 L1377.96 665.42 L1373.08 665.42 L1373.08 659.54 Z" fill="#000000" fill-rule="nonzero" fill-opacity="1" /><path clip-path="url(#clip420)" d="M1388.29 664.702 L1388.29 660.443 Q1390.05 661.276 1391.85 661.716 Q1393.66 662.156 1395.39 662.156 Q1400.02 662.156 1402.45 659.054 Q1404.91 655.929 1405.26 649.587 Q1403.91 651.577 1401.85 652.642 Q1399.79 653.707 1397.29 653.707 Q1392.11 653.707 1389.07 650.582 Q1386.07 647.434 1386.07 641.994 Q1386.07 636.67 1389.21 633.452 Q1392.36 630.235 1397.59 630.235 Q1403.59 630.235 1406.74 634.841 Q1409.91 639.425 1409.91 648.175 Q1409.91 656.346 1406.02 661.23 Q1402.15 666.091 1395.6 666.091 Q1393.84 666.091 1392.04 665.744 Q1390.23 665.397 1388.29 664.702 M1397.59 650.05 Q1400.74 650.05 1402.57 647.897 Q1404.42 645.744 1404.42 641.994 Q1404.42 638.267 1402.57 636.114 Q1400.74 633.939 1397.59 633.939 Q1394.44 633.939 1392.59 636.114 Q1390.76 638.267 1390.76 641.994 Q1390.76 645.744 1392.59 647.897 Q1394.44 650.05 1397.59 650.05 Z" fill="#000000" fill-rule="nonzero" fill-opacity="1" /><path clip-path="url(#clip420)" d="M1345.14 593.635 L1352.78 593.635 L1352.78 567.269 L1344.47 568.936 L1344.47 564.677 L1352.73 563.01 L1357.41 563.01 L1357.41 593.635 L1365.05 593.635 L1365.05 597.57 L1345.14 597.57 L1345.14 593.635 Z" fill="#000000" fill-rule="nonzero" fill-opacity="1" /><path clip-path="url(#clip420)" d="M1374.49 591.69 L1379.38 591.69 L1379.38 597.57 L1374.49 597.57 L1374.49 591.69 Z" fill="#000000" fill-rule="nonzero" fill-opacity="1" /><path clip-path="url(#clip420)" d="M1393.59 593.635 L1409.91 593.635 L1409.91 597.57 L1387.96 597.57 L1387.96 593.635 Q1390.63 590.88 1395.21 586.251 Q1399.82 581.598 1401 580.255 Q1403.24 577.732 1404.12 575.996 Q1405.02 574.237 1405.02 572.547 Q1405.02 569.792 1403.08 568.056 Q1401.16 566.32 1398.06 566.32 Q1395.86 566.32 1393.4 567.084 Q1390.97 567.848 1388.19 569.399 L1388.19 564.677 Q1391.02 563.542 1393.47 562.964 Q1395.93 562.385 1397.96 562.385 Q1403.33 562.385 1406.53 565.07 Q1409.72 567.755 1409.72 572.246 Q1409.72 574.376 1408.91 576.297 Q1408.13 578.195 1406.02 580.788 Q1405.44 581.459 1402.34 584.677 Q1399.24 587.871 1393.59 593.635 Z" fill="#000000" fill-rule="nonzero" fill-opacity="1" /><path clip-path="url(#clip420)" d="M1265.64 831.559 Q1268.64 831.559 1274.44 833.072 Q1276.95 833.684 1279.23 834.522 Q1281.49 835.327 1283.68 836.518 Q1285.87 837.71 1287.45 839.095 Q1288.99 840.48 1289.96 842.283 Q1290.92 844.087 1290.92 846.084 Q1290.92 849.24 1289.06 851.108 Q1287.16 852.943 1283.9 853.523 Q1290.92 857.839 1290.92 863.604 Q1290.92 867.178 1288.38 868.853 Q1285.8 870.528 1281.49 870.528 Q1277.85 870.528 1274.08 869.562 Q1266.93 867.726 1261.94 864.151 Q1261.36 863.668 1261.36 862.959 Q1261.36 862.541 1261.49 862.347 Q1261.84 861.768 1262.42 861.768 Q1262.84 861.768 1263.26 862.09 Q1266.38 864.344 1269.06 865.826 Q1271.73 867.307 1274.44 867.984 Q1276.75 868.499 1278.72 868.499 Q1282.04 868.499 1284.1 867.082 Q1286.16 865.632 1286.16 862.766 Q1286.16 860.125 1284.52 857.806 Q1282.84 855.488 1280.04 853.781 Q1276.98 853.684 1274.08 852.943 Q1270.99 852.267 1270.99 850.689 Q1270.99 849.433 1272.7 849.433 Q1273.28 849.433 1274.44 849.691 Q1277.49 850.399 1280.23 851.687 Q1282.91 851.236 1284.55 849.562 Q1286.16 847.887 1286.16 845.214 Q1286.16 842.734 1284.35 840.544 Q1282.55 838.322 1279.91 836.905 Q1277.24 835.456 1274.08 834.65 Q1273.02 834.393 1271.67 834.393 Q1268.06 834.393 1265.84 836.905 Q1265.13 837.613 1264.19 837.613 Q1263.1 837.613 1262.1 836.712 Q1261.04 835.649 1261.04 834.393 Q1261.04 833.459 1261.62 832.879 Q1262.78 831.559 1265.64 831.559 Z" fill="#000000" fill-rule="nonzero" fill-opacity="1" /><path clip-path="url(#clip420)" d="M1240.72 788.989 Q1248.04 793.255 1255.2 795.323 Q1262.37 797.392 1269.72 797.392 Q1277.07 797.392 1284.3 795.323 Q1291.49 793.223 1298.78 788.989 L1298.78 794.082 Q1291.3 798.856 1284.07 801.243 Q1276.85 803.599 1269.72 803.599 Q1262.62 803.599 1255.43 801.243 Q1248.23 798.888 1240.72 794.082 L1240.72 788.989 Z" fill="#000000" fill-rule="nonzero" fill-opacity="1" /><path clip-path="url(#clip420)" d="M1260.01 756.97 Q1259.44 757.957 1259.18 759.134 Q1258.9 760.28 1258.9 761.681 Q1258.9 766.646 1262.14 769.319 Q1265.36 771.961 1271.41 771.961 L1290.18 771.961 L1290.18 777.85 L1254.54 777.85 L1254.54 771.961 L1260.07 771.961 Q1256.83 770.115 1255.27 767.155 Q1253.68 764.195 1253.68 759.962 Q1253.68 759.357 1253.77 758.625 Q1253.84 757.893 1254 757.002 L1260.01 756.97 Z" fill="#000000" fill-rule="nonzero" fill-opacity="1" /><path clip-path="url(#clip420)" d="M1272.26 734.626 Q1272.26 741.724 1273.89 744.461 Q1275.51 747.199 1279.43 747.199 Q1282.55 747.199 1284.39 745.162 Q1286.21 743.093 1286.21 739.56 Q1286.21 734.69 1282.77 731.762 Q1279.3 728.802 1273.57 728.802 L1272.26 728.802 L1272.26 734.626 M1269.85 722.945 L1290.18 722.945 L1290.18 728.802 L1284.77 728.802 Q1288.02 730.807 1289.58 733.799 Q1291.11 736.791 1291.11 741.119 Q1291.11 746.594 1288.05 749.84 Q1284.96 753.055 1279.81 753.055 Q1273.79 753.055 1270.74 749.045 Q1267.68 745.002 1267.68 737.013 L1267.68 728.802 L1267.11 728.802 Q1263.07 728.802 1260.87 731.475 Q1258.64 734.117 1258.64 738.923 Q1258.64 741.979 1259.37 744.875 Q1260.11 747.772 1261.57 750.445 L1256.16 750.445 Q1254.92 747.23 1254.31 744.207 Q1253.68 741.183 1253.68 738.318 Q1253.68 730.584 1257.69 726.765 Q1261.7 722.945 1269.85 722.945 Z" fill="#000000" fill-rule="nonzero" fill-opacity="1" /><path clip-path="url(#clip420)" d="M1259.95 687.425 L1240.66 687.425 L1240.66 681.568 L1290.18 681.568 L1290.18 687.425 L1284.84 687.425 Q1288.02 689.271 1289.58 692.103 Q1291.11 694.904 1291.11 698.851 Q1291.11 705.312 1285.95 709.386 Q1280.79 713.429 1272.39 713.429 Q1263.99 713.429 1258.83 709.386 Q1253.68 705.312 1253.68 698.851 Q1253.68 694.904 1255.24 692.103 Q1256.76 689.271 1259.95 687.425 M1272.39 707.381 Q1278.85 707.381 1282.55 704.739 Q1286.21 702.066 1286.21 697.419 Q1286.21 692.772 1282.55 690.098 Q1278.85 687.425 1272.39 687.425 Q1265.93 687.425 1262.27 690.098 Q1258.58 692.772 1258.58 697.419 Q1258.58 702.066 1262.27 704.739 Q1265.93 707.381 1272.39 707.381 Z" fill="#000000" fill-rule="nonzero" fill-opacity="1" /><path clip-path="url(#clip420)" d="M1242.66 659.097 L1242.66 653.686 L1296.23 670.237 L1296.23 675.648 L1242.66 659.097 Z" fill="#000000" fill-rule="nonzero" fill-opacity="1" /><path clip-path="url(#clip420)" d="M1255.59 624.818 L1261.12 624.818 Q1259.85 627.301 1259.21 629.974 Q1258.58 632.648 1258.58 635.512 Q1258.58 639.873 1259.92 642.069 Q1261.25 644.233 1263.93 644.233 Q1265.96 644.233 1267.14 642.674 Q1268.29 641.114 1269.34 636.404 L1269.78 634.398 Q1271.12 628.16 1273.57 625.55 Q1275.99 622.908 1280.35 622.908 Q1285.31 622.908 1288.21 626.855 Q1291.11 630.77 1291.11 637.645 Q1291.11 640.509 1290.53 643.629 Q1289.99 646.716 1288.88 650.153 L1282.83 650.153 Q1284.52 646.907 1285.38 643.756 Q1286.21 640.605 1286.21 637.517 Q1286.21 633.38 1284.81 631.152 Q1283.37 628.924 1280.79 628.924 Q1278.41 628.924 1277.13 630.547 Q1275.86 632.138 1274.68 637.581 L1274.21 639.618 Q1273.06 645.061 1270.71 647.48 Q1268.32 649.899 1264.18 649.899 Q1259.15 649.899 1256.41 646.334 Q1253.68 642.769 1253.68 636.213 Q1253.68 632.966 1254.15 630.101 Q1254.63 627.237 1255.59 624.818 Z" fill="#000000" fill-rule="nonzero" fill-opacity="1" /><path clip-path="url(#clip420)" d="M1240.72 614.505 L1240.72 609.413 Q1248.23 604.639 1255.43 602.283 Q1262.62 599.896 1269.72 599.896 Q1276.85 599.896 1284.07 602.283 Q1291.3 604.639 1298.78 609.413 L1298.78 614.505 Q1291.49 610.272 1284.3 608.203 Q1277.07 606.103 1269.72 606.103 Q1262.37 606.103 1255.2 608.203 Q1248.04 610.272 1240.72 614.505 Z" fill="#000000" fill-rule="nonzero" fill-opacity="1" /><polyline clip-path="url(#clip424)" style="stroke:#009af9; stroke-linecap:round; stroke-linejoin:round; stroke-width:4; stroke-opacity:1; fill:none" points="1471.57,851.689 1496.74,673.621 1521.9,599.149 1547.06,601.123 1572.22,648.115 1597.38,712.739 1622.55,775.876 1647.71,826.951 1672.87,862.057 1698.03,881.633 1723.2,888.513 1748.36,886.496 1773.52,879.376 1798.68,870.335 1823.85,861.656 1849.01,854.677 1874.17,849.929 1899.33,847.352 1924.49,846.534 1949.66,846.923 1974.82,847.977 1999.98,849.254 2025.14,850.445 2050.31,851.382 2075.47,852.002 2100.63,852.325 2125.79,852.412 2150.95,852.341 2176.12,852.186 2201.28,852.007 2226.44,851.844 2251.6,851.718 2276.77,851.637 2301.93,851.597 2327.09,851.588 "/>
<polyline clip-path="url(#clip424)" style="stroke:#e26f46; stroke-linecap:round; stroke-linejoin:round; stroke-width:3; stroke-opacity:1; fill:none" stroke-dasharray="12, 6, 2, 6" points="1471.57,851.689 1496.74,651.464 1521.9,590.271 1547.06,569.435 1572.22,639.599 1597.38,724.621 1622.55,764.143 1647.71,831.725 1672.87,891.579 1698.03,895.151 1723.2,900.989 1748.36,880.673 1773.52,888.193 1798.68,892.432 1823.85,866.298 1849.01,855.082 1874.17,856.503 1899.33,853.47 1924.49,854.019 1949.66,840.01 1974.82,850.06 1999.98,848.48 2025.14,843.297 2050.31,856.386 2075.47,850.265 2100.63,861.591 2125.79,856.344 2150.95,839.215 2176.12,852.52 2201.28,848.942 2226.44,855.441 2251.6,848.931 2276.77,843.805 2301.93,857.77 2327.09,855.974 "/>
<path clip-path="url(#clip420)" d="M2203.01 726.723 L2322.53 726.723 L2322.53 571.203 L2203.01 571.203  Z" fill="#ffffff" fill-rule="evenodd" fill-opacity="1"/>
<polyline clip-path="url(#clip420)" style="stroke:#000000; stroke-linecap:round; stroke-linejoin:round; stroke-width:4; stroke-opacity:1; fill:none" points="2203.01,726.723 2322.53,726.723 2322.53,571.203 2203.01,571.203 2203.01,726.723 "/>
<polyline clip-path="url(#clip420)" style="stroke:#009af9; stroke-linecap:round; stroke-linejoin:round; stroke-width:4; stroke-opacity:1; fill:none" points="2213.09,623.043 2273.55,623.043 "/>
<path clip-path="url(#clip420)" d="M2310.63 633.582 L2305.36 633.442 L2299.6 633.582 L2299.6 631.334 L2301.47 631.334 L2296.2 625.103 L2291.54 630.326 L2291.21 630.795 Q2291.21 631.006 2291.75 631.17 Q2292.31 631.334 2292.97 631.334 L2292.97 633.582 L2288.03 633.442 L2283.62 633.582 L2283.62 631.334 Q2285.1 631.334 2285.78 631.31 Q2286.48 631.263 2287.28 631.052 Q2288.07 630.842 2288.47 630.42 L2294.75 623.37 L2287.28 614.54 L2283.86 614.54 L2283.86 612.291 L2289.15 612.432 L2294.94 612.291 L2294.94 614.54 L2293.01 614.54 L2297.72 620.044 L2301.75 615.547 Q2301.77 615.523 2302.15 614.961 Q2301.4 614.54 2300.32 614.54 L2300.32 612.291 L2305.26 612.432 L2309.67 612.291 L2309.67 614.54 Q2307.75 614.54 2306.74 614.68 Q2305.76 614.797 2305.45 614.961 Q2305.17 615.125 2304.77 615.547 L2299.17 621.777 L2307.23 631.334 L2310.63 631.334 L2310.63 633.582 Z" fill="#000000" fill-rule="nonzero" fill-opacity="1" /><polyline clip-path="url(#clip420)" style="stroke:#e26f46; stroke-linecap:round; stroke-linejoin:round; stroke-width:3; stroke-opacity:1; fill:none" stroke-dasharray="12, 6, 2, 6" points="2213.09,674.883 2273.55,674.883 "/>
<path clip-path="url(#clip420)" d="M2306.21 663.361 L2305.8 664.033 Q2303.26 662.935 2300.09 661.18 Q2296.93 662.935 2294.39 664.033 L2293.99 663.361 Q2296.76 660.951 2300.09 659.098 Q2303.45 660.967 2306.21 663.361 Z" fill="#000000" fill-rule="nonzero" fill-opacity="1" /><path clip-path="url(#clip420)" d="M2310.63 690.427 L2305.36 690.286 L2299.6 690.427 L2299.6 688.178 L2301.47 688.178 L2296.2 681.948 L2291.54 687.171 L2291.21 687.639 Q2291.21 687.85 2291.75 688.014 Q2292.31 688.178 2292.97 688.178 L2292.97 690.427 L2288.03 690.286 L2283.62 690.427 L2283.62 688.178 Q2285.1 688.178 2285.78 688.155 Q2286.48 688.108 2287.28 687.897 Q2288.07 687.686 2288.47 687.265 L2294.75 680.214 L2287.28 671.384 L2283.86 671.384 L2283.86 669.136 L2289.15 669.276 L2294.94 669.136 L2294.94 671.384 L2293.01 671.384 L2297.72 676.888 L2301.75 672.391 Q2301.77 672.368 2302.15 671.806 Q2301.4 671.384 2300.32 671.384 L2300.32 669.136 L2305.26 669.276 L2309.67 669.136 L2309.67 671.384 Q2307.75 671.384 2306.74 671.525 Q2305.76 671.642 2305.45 671.806 Q2305.17 671.97 2304.77 672.391 L2299.17 678.622 L2307.23 688.178 L2310.63 688.178 L2310.63 690.427 Z" fill="#000000" fill-rule="nonzero" fill-opacity="1" /><path clip-path="url(#clip420)" d="M1445.91 1423.18 L2352.76 1423.18 L2352.76 1071.73 L1445.91 1071.73  Z" fill="#ffffff" fill-rule="evenodd" fill-opacity="1"/>
<defs>
  <clipPath id="clip425">
    <rect x="1445" y="1071" width="908" height="352"/>
  </clipPath>
</defs>
<polyline clip-path="url(#clip425)" style="stroke:#000000; stroke-linecap:round; stroke-linejoin:round; stroke-width:2; stroke-opacity:0.1; fill:none" points="1471.57,1423.18 1471.57,1071.73 "/>
<polyline clip-path="url(#clip425)" style="stroke:#000000; stroke-linecap:round; stroke-linejoin:round; stroke-width:2; stroke-opacity:0.1; fill:none" points="1723.2,1423.18 1723.2,1071.73 "/>
<polyline clip-path="url(#clip425)" style="stroke:#000000; stroke-linecap:round; stroke-linejoin:round; stroke-width:2; stroke-opacity:0.1; fill:none" points="1974.82,1423.18 1974.82,1071.73 "/>
<polyline clip-path="url(#clip425)" style="stroke:#000000; stroke-linecap:round; stroke-linejoin:round; stroke-width:2; stroke-opacity:0.1; fill:none" points="2226.44,1423.18 2226.44,1071.73 "/>
<polyline clip-path="url(#clip425)" style="stroke:#000000; stroke-linecap:round; stroke-linejoin:round; stroke-width:2; stroke-opacity:0.1; fill:none" points="1445.91,1350.9 2352.76,1350.9 "/>
<polyline clip-path="url(#clip425)" style="stroke:#000000; stroke-linecap:round; stroke-linejoin:round; stroke-width:2; stroke-opacity:0.1; fill:none" points="1445.91,1264.25 2352.76,1264.25 "/>
<polyline clip-path="url(#clip425)" style="stroke:#000000; stroke-linecap:round; stroke-linejoin:round; stroke-width:2; stroke-opacity:0.1; fill:none" points="1445.91,1177.6 2352.76,1177.6 "/>
<polyline clip-path="url(#clip425)" style="stroke:#000000; stroke-linecap:round; stroke-linejoin:round; stroke-width:2; stroke-opacity:0.1; fill:none" points="1445.91,1090.94 2352.76,1090.94 "/>
<polyline clip-path="url(#clip420)" style="stroke:#000000; stroke-linecap:round; stroke-linejoin:round; stroke-width:4; stroke-opacity:1; fill:none" points="1445.91,1423.18 2352.76,1423.18 "/>
<polyline clip-path="url(#clip420)" style="stroke:#000000; stroke-linecap:round; stroke-linejoin:round; stroke-width:4; stroke-opacity:1; fill:none" points="1471.57,1423.18 1471.57,1404.28 "/>
<polyline clip-path="url(#clip420)" style="stroke:#000000; stroke-linecap:round; stroke-linejoin:round; stroke-width:4; stroke-opacity:1; fill:none" points="1723.2,1423.18 1723.2,1404.28 "/>
<polyline clip-path="url(#clip420)" style="stroke:#000000; stroke-linecap:round; stroke-linejoin:round; stroke-width:4; stroke-opacity:1; fill:none" points="1974.82,1423.18 1974.82,1404.28 "/>
<polyline clip-path="url(#clip420)" style="stroke:#000000; stroke-linecap:round; stroke-linejoin:round; stroke-width:4; stroke-opacity:1; fill:none" points="2226.44,1423.18 2226.44,1404.28 "/>
<path clip-path="url(#clip420)" d="M1471.57 1454.1 Q1467.96 1454.1 1466.13 1457.66 Q1464.33 1461.2 1464.33 1468.33 Q1464.33 1475.44 1466.13 1479.01 Q1467.96 1482.55 1471.57 1482.55 Q1475.21 1482.55 1477.01 1479.01 Q1478.84 1475.44 1478.84 1468.33 Q1478.84 1461.2 1477.01 1457.66 Q1475.21 1454.1 1471.57 1454.1 M1471.57 1450.39 Q1477.38 1450.39 1480.44 1455 Q1483.52 1459.58 1483.52 1468.33 Q1483.52 1477.06 1480.44 1481.67 Q1477.38 1486.25 1471.57 1486.25 Q1465.76 1486.25 1462.68 1481.67 Q1459.63 1477.06 1459.63 1468.33 Q1459.63 1459.58 1462.68 1455 Q1465.76 1450.39 1471.57 1450.39 Z" fill="#000000" fill-rule="nonzero" fill-opacity="1" /><path clip-path="url(#clip420)" d="M1713.58 1481.64 L1721.22 1481.64 L1721.22 1455.28 L1712.91 1456.95 L1712.91 1452.69 L1721.17 1451.02 L1725.85 1451.02 L1725.85 1481.64 L1733.49 1481.64 L1733.49 1485.58 L1713.58 1485.58 L1713.58 1481.64 Z" fill="#000000" fill-rule="nonzero" fill-opacity="1" /><path clip-path="url(#clip420)" d="M1969.47 1481.64 L1985.79 1481.64 L1985.79 1485.58 L1963.85 1485.58 L1963.85 1481.64 Q1966.51 1478.89 1971.09 1474.26 Q1975.7 1469.61 1976.88 1468.27 Q1979.12 1465.74 1980 1464.01 Q1980.91 1462.25 1980.91 1460.56 Q1980.91 1457.8 1978.96 1456.07 Q1977.04 1454.33 1973.94 1454.33 Q1971.74 1454.33 1969.29 1455.09 Q1966.86 1455.86 1964.08 1457.41 L1964.08 1452.69 Q1966.9 1451.55 1969.36 1450.97 Q1971.81 1450.39 1973.85 1450.39 Q1979.22 1450.39 1982.41 1453.08 Q1985.61 1455.77 1985.61 1460.26 Q1985.61 1462.39 1984.8 1464.31 Q1984.01 1466.2 1981.9 1468.8 Q1981.32 1469.47 1978.22 1472.69 Q1975.12 1475.88 1969.47 1481.64 Z" fill="#000000" fill-rule="nonzero" fill-opacity="1" /><path clip-path="url(#clip420)" d="M2230.69 1466.95 Q2234.05 1467.66 2235.92 1469.93 Q2237.82 1472.2 2237.82 1475.53 Q2237.82 1480.65 2234.3 1483.45 Q2230.78 1486.25 2224.3 1486.25 Q2222.12 1486.25 2219.81 1485.81 Q2217.52 1485.39 2215.06 1484.54 L2215.06 1480.02 Q2217.01 1481.16 2219.32 1481.74 Q2221.64 1482.32 2224.16 1482.32 Q2228.56 1482.32 2230.85 1480.58 Q2233.17 1478.84 2233.17 1475.53 Q2233.17 1472.48 2231.01 1470.77 Q2228.88 1469.03 2225.06 1469.03 L2221.04 1469.03 L2221.04 1465.19 L2225.25 1465.19 Q2228.7 1465.19 2230.53 1463.82 Q2232.36 1462.43 2232.36 1459.84 Q2232.36 1457.18 2230.46 1455.77 Q2228.58 1454.33 2225.06 1454.33 Q2223.14 1454.33 2220.94 1454.75 Q2218.74 1455.16 2216.11 1456.04 L2216.11 1451.88 Q2218.77 1451.14 2221.08 1450.77 Q2223.42 1450.39 2225.48 1450.39 Q2230.8 1450.39 2233.91 1452.83 Q2237.01 1455.23 2237.01 1459.35 Q2237.01 1462.22 2235.36 1464.21 Q2233.72 1466.18 2230.69 1466.95 Z" fill="#000000" fill-rule="nonzero" fill-opacity="1" /><path clip-path="url(#clip420)" d="M1769.5 1520.52 L1809.7 1520.52 L1809.7 1525.93 L1792.83 1525.93 L1792.83 1568.04 L1786.37 1568.04 L1786.37 1525.93 L1769.5 1525.93 L1769.5 1520.52 Z" fill="#000000" fill-rule="nonzero" fill-opacity="1" /><path clip-path="url(#clip420)" d="M1813.65 1532.4 L1819.51 1532.4 L1819.51 1568.04 L1813.65 1568.04 L1813.65 1532.4 M1813.65 1518.52 L1819.51 1518.52 L1819.51 1525.93 L1813.65 1525.93 L1813.65 1518.52 Z" fill="#000000" fill-rule="nonzero" fill-opacity="1" /><path clip-path="url(#clip420)" d="M1859.51 1539.24 Q1861.71 1535.29 1864.77 1533.41 Q1867.82 1531.54 1871.96 1531.54 Q1877.53 1531.54 1880.55 1535.45 Q1883.58 1539.33 1883.58 1546.53 L1883.58 1568.04 L1877.69 1568.04 L1877.69 1546.72 Q1877.69 1541.59 1875.87 1539.11 Q1874.06 1536.63 1870.34 1536.63 Q1865.78 1536.63 1863.14 1539.65 Q1860.5 1542.68 1860.5 1547.9 L1860.5 1568.04 L1854.61 1568.04 L1854.61 1546.72 Q1854.61 1541.56 1852.8 1539.11 Q1850.98 1536.63 1847.2 1536.63 Q1842.71 1536.63 1840.07 1539.68 Q1837.43 1542.71 1837.43 1547.9 L1837.43 1568.04 L1831.54 1568.04 L1831.54 1532.4 L1837.43 1532.4 L1837.43 1537.93 Q1839.43 1534.66 1842.23 1533.1 Q1845.03 1531.54 1848.88 1531.54 Q1852.77 1531.54 1855.47 1533.51 Q1858.21 1535.48 1859.51 1539.24 Z" fill="#000000" fill-rule="nonzero" fill-opacity="1" /><path clip-path="url(#clip420)" d="M1925.75 1548.76 L1925.75 1551.62 L1898.82 1551.62 Q1899.2 1557.67 1902.45 1560.85 Q1905.73 1564 1911.55 1564 Q1914.93 1564 1918.08 1563.17 Q1921.26 1562.35 1924.38 1560.69 L1924.38 1566.23 Q1921.23 1567.57 1917.92 1568.27 Q1914.61 1568.97 1911.2 1568.97 Q1902.67 1568.97 1897.68 1564 Q1892.71 1559.04 1892.71 1550.57 Q1892.71 1541.82 1897.42 1536.69 Q1902.16 1531.54 1910.19 1531.54 Q1917.38 1531.54 1921.55 1536.18 Q1925.75 1540.8 1925.75 1548.76 M1919.89 1547.04 Q1919.83 1542.23 1917.19 1539.37 Q1914.58 1536.5 1910.25 1536.5 Q1905.35 1536.5 1902.39 1539.27 Q1899.46 1542.04 1899.01 1547.07 L1919.89 1547.04 Z" fill="#000000" fill-rule="nonzero" fill-opacity="1" /><path clip-path="url(#clip420)" d="M1970.15 1518.58 Q1965.89 1525.9 1963.82 1533.06 Q1961.75 1540.23 1961.75 1547.58 Q1961.75 1554.93 1963.82 1562.16 Q1965.92 1569.35 1970.15 1576.64 L1965.06 1576.64 Q1960.28 1569.16 1957.9 1561.93 Q1955.54 1554.71 1955.54 1547.58 Q1955.54 1540.48 1957.9 1533.29 Q1960.25 1526.09 1965.06 1518.58 L1970.15 1518.58 Z" fill="#000000" fill-rule="nonzero" fill-opacity="1" /><path clip-path="url(#clip420)" d="M2004.24 1533.45 L2004.24 1538.98 Q2001.76 1537.71 1999.08 1537.07 Q1996.41 1536.44 1993.54 1536.44 Q1989.18 1536.44 1986.99 1537.77 Q1984.82 1539.11 1984.82 1541.79 Q1984.82 1543.82 1986.38 1545 Q1987.94 1546.15 1992.65 1547.2 L1994.66 1547.64 Q2000.9 1548.98 2003.51 1551.43 Q2006.15 1553.85 2006.15 1558.21 Q2006.15 1563.17 2002.2 1566.07 Q1998.29 1568.97 1991.41 1568.97 Q1988.55 1568.97 1985.43 1568.39 Q1982.34 1567.85 1978.9 1566.74 L1978.9 1560.69 Q1982.15 1562.38 1985.3 1563.24 Q1988.45 1564.07 1991.54 1564.07 Q1995.68 1564.07 1997.9 1562.66 Q2000.13 1561.23 2000.13 1558.65 Q2000.13 1556.27 1998.51 1554.99 Q1996.92 1553.72 1991.48 1552.54 L1989.44 1552.07 Q1984 1550.92 1981.58 1548.56 Q1979.16 1546.18 1979.16 1542.04 Q1979.16 1537.01 1982.72 1534.27 Q1986.29 1531.54 1992.84 1531.54 Q1996.09 1531.54 1998.96 1532.01 Q2001.82 1532.49 2004.24 1533.45 Z" fill="#000000" fill-rule="nonzero" fill-opacity="1" /><path clip-path="url(#clip420)" d="M2014.55 1518.58 L2019.64 1518.58 Q2024.42 1526.09 2026.77 1533.29 Q2029.16 1540.48 2029.16 1547.58 Q2029.16 1554.71 2026.77 1561.93 Q2024.42 1569.16 2019.64 1576.64 L2014.55 1576.64 Q2018.78 1569.35 2020.85 1562.16 Q2022.95 1554.93 2022.95 1547.58 Q2022.95 1540.23 2020.85 1533.06 Q2018.78 1525.9 2014.55 1518.58 Z" fill="#000000" fill-rule="nonzero" fill-opacity="1" /><polyline clip-path="url(#clip420)" style="stroke:#000000; stroke-linecap:round; stroke-linejoin:round; stroke-width:4; stroke-opacity:1; fill:none" points="1445.91,1423.18 1445.91,1071.73 "/>
<polyline clip-path="url(#clip420)" style="stroke:#000000; stroke-linecap:round; stroke-linejoin:round; stroke-width:4; stroke-opacity:1; fill:none" points="1445.91,1350.9 1464.81,1350.9 "/>
<polyline clip-path="url(#clip420)" style="stroke:#000000; stroke-linecap:round; stroke-linejoin:round; stroke-width:4; stroke-opacity:1; fill:none" points="1445.91,1264.25 1464.81,1264.25 "/>
<polyline clip-path="url(#clip420)" style="stroke:#000000; stroke-linecap:round; stroke-linejoin:round; stroke-width:4; stroke-opacity:1; fill:none" points="1445.91,1177.6 1464.81,1177.6 "/>
<polyline clip-path="url(#clip420)" style="stroke:#000000; stroke-linecap:round; stroke-linejoin:round; stroke-width:4; stroke-opacity:1; fill:none" points="1445.91,1090.94 1464.81,1090.94 "/>
<path clip-path="url(#clip420)" d="M1272.32 1351.36 L1301.99 1351.36 L1301.99 1355.29 L1272.32 1355.29 L1272.32 1351.36 Z" fill="#000000" fill-rule="nonzero" fill-opacity="1" /><path clip-path="url(#clip420)" d="M1322.08 1336.7 Q1318.47 1336.7 1316.64 1340.27 Q1314.84 1343.81 1314.84 1350.94 Q1314.84 1358.05 1316.64 1361.61 Q1318.47 1365.15 1322.08 1365.15 Q1325.72 1365.15 1327.52 1361.61 Q1329.35 1358.05 1329.35 1350.94 Q1329.35 1343.81 1327.52 1340.27 Q1325.72 1336.7 1322.08 1336.7 M1322.08 1333 Q1327.89 1333 1330.95 1337.61 Q1334.03 1342.19 1334.03 1350.94 Q1334.03 1359.67 1330.95 1364.27 Q1327.89 1368.86 1322.08 1368.86 Q1316.27 1368.86 1313.2 1364.27 Q1310.14 1359.67 1310.14 1350.94 Q1310.14 1342.19 1313.2 1337.61 Q1316.27 1333 1322.08 1333 Z" fill="#000000" fill-rule="nonzero" fill-opacity="1" /><path clip-path="url(#clip420)" d="M1342.25 1362.3 L1347.13 1362.3 L1347.13 1368.18 L1342.25 1368.18 L1342.25 1362.3 Z" fill="#000000" fill-rule="nonzero" fill-opacity="1" /><path clip-path="url(#clip420)" d="M1367.32 1336.7 Q1363.7 1336.7 1361.88 1340.27 Q1360.07 1343.81 1360.07 1350.94 Q1360.07 1358.05 1361.88 1361.61 Q1363.7 1365.15 1367.32 1365.15 Q1370.95 1365.15 1372.76 1361.61 Q1374.58 1358.05 1374.58 1350.94 Q1374.58 1343.81 1372.76 1340.27 Q1370.95 1336.7 1367.32 1336.7 M1367.32 1333 Q1373.13 1333 1376.18 1337.61 Q1379.26 1342.19 1379.26 1350.94 Q1379.26 1359.67 1376.18 1364.27 Q1373.13 1368.86 1367.32 1368.86 Q1361.51 1368.86 1358.43 1364.27 Q1355.37 1359.67 1355.37 1350.94 Q1355.37 1342.19 1358.43 1337.61 Q1361.51 1333 1367.32 1333 Z" fill="#000000" fill-rule="nonzero" fill-opacity="1" /><path clip-path="url(#clip420)" d="M1400.32 1337.7 L1388.52 1356.15 L1400.32 1356.15 L1400.32 1337.7 M1399.1 1333.62 L1404.98 1333.62 L1404.98 1356.15 L1409.91 1356.15 L1409.91 1360.04 L1404.98 1360.04 L1404.98 1368.18 L1400.32 1368.18 L1400.32 1360.04 L1384.72 1360.04 L1384.72 1355.52 L1399.1 1333.62 Z" fill="#000000" fill-rule="nonzero" fill-opacity="1" /><path clip-path="url(#clip420)" d="M1274.4 1264.7 L1304.08 1264.7 L1304.08 1268.64 L1274.4 1268.64 L1274.4 1264.7 Z" fill="#000000" fill-rule="nonzero" fill-opacity="1" /><path clip-path="url(#clip420)" d="M1324.17 1250.05 Q1320.56 1250.05 1318.73 1253.61 Q1316.92 1257.16 1316.92 1264.29 Q1316.92 1271.39 1318.73 1274.96 Q1320.56 1278.5 1324.17 1278.5 Q1327.8 1278.5 1329.61 1274.96 Q1331.44 1271.39 1331.44 1264.29 Q1331.44 1257.16 1329.61 1253.61 Q1327.8 1250.05 1324.17 1250.05 M1324.17 1246.35 Q1329.98 1246.35 1333.03 1250.95 Q1336.11 1255.54 1336.11 1264.29 Q1336.11 1273.01 1333.03 1277.62 Q1329.98 1282.2 1324.17 1282.2 Q1318.36 1282.2 1315.28 1277.62 Q1312.22 1273.01 1312.22 1264.29 Q1312.22 1255.54 1315.28 1250.95 Q1318.36 1246.35 1324.17 1246.35 Z" fill="#000000" fill-rule="nonzero" fill-opacity="1" /><path clip-path="url(#clip420)" d="M1344.33 1275.65 L1349.21 1275.65 L1349.21 1281.53 L1344.33 1281.53 L1344.33 1275.65 Z" fill="#000000" fill-rule="nonzero" fill-opacity="1" /><path clip-path="url(#clip420)" d="M1369.4 1250.05 Q1365.79 1250.05 1363.96 1253.61 Q1362.15 1257.16 1362.15 1264.29 Q1362.15 1271.39 1363.96 1274.96 Q1365.79 1278.5 1369.4 1278.5 Q1373.03 1278.5 1374.84 1274.96 Q1376.67 1271.39 1376.67 1264.29 Q1376.67 1257.16 1374.84 1253.61 Q1373.03 1250.05 1369.4 1250.05 M1369.4 1246.35 Q1375.21 1246.35 1378.26 1250.95 Q1381.34 1255.54 1381.34 1264.29 Q1381.34 1273.01 1378.26 1277.62 Q1375.21 1282.2 1369.4 1282.2 Q1363.59 1282.2 1360.51 1277.62 Q1357.45 1273.01 1357.45 1264.29 Q1357.45 1255.54 1360.51 1250.95 Q1363.59 1246.35 1369.4 1246.35 Z" fill="#000000" fill-rule="nonzero" fill-opacity="1" /><path clip-path="url(#clip420)" d="M1393.59 1277.6 L1409.91 1277.6 L1409.91 1281.53 L1387.96 1281.53 L1387.96 1277.6 Q1390.63 1274.84 1395.21 1270.21 Q1399.82 1265.56 1401 1264.22 Q1403.24 1261.69 1404.12 1259.96 Q1405.02 1258.2 1405.02 1256.51 Q1405.02 1253.75 1403.08 1252.02 Q1401.16 1250.28 1398.06 1250.28 Q1395.86 1250.28 1393.4 1251.04 Q1390.97 1251.81 1388.19 1253.36 L1388.19 1248.64 Q1391.02 1247.5 1393.47 1246.92 Q1395.93 1246.35 1397.96 1246.35 Q1403.33 1246.35 1406.53 1249.03 Q1409.72 1251.72 1409.72 1256.21 Q1409.72 1258.34 1408.91 1260.26 Q1408.13 1262.16 1406.02 1264.75 Q1405.44 1265.42 1402.34 1268.64 Q1399.24 1271.83 1393.59 1277.6 Z" fill="#000000" fill-rule="nonzero" fill-opacity="1" /><path clip-path="url(#clip420)" d="M1322.57 1163.39 Q1318.96 1163.39 1317.13 1166.96 Q1315.32 1170.5 1315.32 1177.63 Q1315.32 1184.74 1317.13 1188.3 Q1318.96 1191.84 1322.57 1191.84 Q1326.2 1191.84 1328.01 1188.3 Q1329.84 1184.74 1329.84 1177.63 Q1329.84 1170.5 1328.01 1166.96 Q1326.2 1163.39 1322.57 1163.39 M1322.57 1159.69 Q1328.38 1159.69 1331.44 1164.3 Q1334.51 1168.88 1334.51 1177.63 Q1334.51 1186.36 1331.44 1190.96 Q1328.38 1195.55 1322.57 1195.55 Q1316.76 1195.55 1313.68 1190.96 Q1310.63 1186.36 1310.63 1177.63 Q1310.63 1168.88 1313.68 1164.3 Q1316.76 1159.69 1322.57 1159.69 Z" fill="#000000" fill-rule="nonzero" fill-opacity="1" /><path clip-path="url(#clip420)" d="M1342.73 1189 L1347.62 1189 L1347.62 1194.88 L1342.73 1194.88 L1342.73 1189 Z" fill="#000000" fill-rule="nonzero" fill-opacity="1" /><path clip-path="url(#clip420)" d="M1367.8 1163.39 Q1364.19 1163.39 1362.36 1166.96 Q1360.56 1170.5 1360.56 1177.63 Q1360.56 1184.74 1362.36 1188.3 Q1364.19 1191.84 1367.8 1191.84 Q1371.44 1191.84 1373.24 1188.3 Q1375.07 1184.74 1375.07 1177.63 Q1375.07 1170.5 1373.24 1166.96 Q1371.44 1163.39 1367.8 1163.39 M1367.8 1159.69 Q1373.61 1159.69 1376.67 1164.3 Q1379.75 1168.88 1379.75 1177.63 Q1379.75 1186.36 1376.67 1190.96 Q1373.61 1195.55 1367.8 1195.55 Q1361.99 1195.55 1358.91 1190.96 Q1355.86 1186.36 1355.86 1177.63 Q1355.86 1168.88 1358.91 1164.3 Q1361.99 1159.69 1367.8 1159.69 Z" fill="#000000" fill-rule="nonzero" fill-opacity="1" /><path clip-path="url(#clip420)" d="M1397.96 1163.39 Q1394.35 1163.39 1392.52 1166.96 Q1390.72 1170.5 1390.72 1177.63 Q1390.72 1184.74 1392.52 1188.3 Q1394.35 1191.84 1397.96 1191.84 Q1401.6 1191.84 1403.4 1188.3 Q1405.23 1184.74 1405.23 1177.63 Q1405.23 1170.5 1403.4 1166.96 Q1401.6 1163.39 1397.96 1163.39 M1397.96 1159.69 Q1403.77 1159.69 1406.83 1164.3 Q1409.91 1168.88 1409.91 1177.63 Q1409.91 1186.36 1406.83 1190.96 Q1403.77 1195.55 1397.96 1195.55 Q1392.15 1195.55 1389.07 1190.96 Q1386.02 1186.36 1386.02 1177.63 Q1386.02 1168.88 1389.07 1164.3 Q1392.15 1159.69 1397.96 1159.69 Z" fill="#000000" fill-rule="nonzero" fill-opacity="1" /><path clip-path="url(#clip420)" d="M1324.17 1076.74 Q1320.56 1076.74 1318.73 1080.31 Q1316.92 1083.85 1316.92 1090.98 Q1316.92 1098.08 1318.73 1101.65 Q1320.56 1105.19 1324.17 1105.19 Q1327.8 1105.19 1329.61 1101.65 Q1331.44 1098.08 1331.44 1090.98 Q1331.44 1083.85 1329.61 1080.31 Q1327.8 1076.74 1324.17 1076.74 M1324.17 1073.04 Q1329.98 1073.04 1333.03 1077.64 Q1336.11 1082.23 1336.11 1090.98 Q1336.11 1099.7 1333.03 1104.31 Q1329.98 1108.89 1324.17 1108.89 Q1318.36 1108.89 1315.28 1104.31 Q1312.22 1099.7 1312.22 1090.98 Q1312.22 1082.23 1315.28 1077.64 Q1318.36 1073.04 1324.17 1073.04 Z" fill="#000000" fill-rule="nonzero" fill-opacity="1" /><path clip-path="url(#clip420)" d="M1344.33 1102.34 L1349.21 1102.34 L1349.21 1108.22 L1344.33 1108.22 L1344.33 1102.34 Z" fill="#000000" fill-rule="nonzero" fill-opacity="1" /><path clip-path="url(#clip420)" d="M1369.4 1076.74 Q1365.79 1076.74 1363.96 1080.31 Q1362.15 1083.85 1362.15 1090.98 Q1362.15 1098.08 1363.96 1101.65 Q1365.79 1105.19 1369.4 1105.19 Q1373.03 1105.19 1374.84 1101.65 Q1376.67 1098.08 1376.67 1090.98 Q1376.67 1083.85 1374.84 1080.31 Q1373.03 1076.74 1369.4 1076.74 M1369.4 1073.04 Q1375.21 1073.04 1378.26 1077.64 Q1381.34 1082.23 1381.34 1090.98 Q1381.34 1099.7 1378.26 1104.31 Q1375.21 1108.89 1369.4 1108.89 Q1363.59 1108.89 1360.51 1104.31 Q1357.45 1099.7 1357.45 1090.98 Q1357.45 1082.23 1360.51 1077.64 Q1363.59 1073.04 1369.4 1073.04 Z" fill="#000000" fill-rule="nonzero" fill-opacity="1" /><path clip-path="url(#clip420)" d="M1393.59 1104.29 L1409.91 1104.29 L1409.91 1108.22 L1387.96 1108.22 L1387.96 1104.29 Q1390.63 1101.53 1395.21 1096.9 Q1399.82 1092.25 1401 1090.91 Q1403.24 1088.38 1404.12 1086.65 Q1405.02 1084.89 1405.02 1083.2 Q1405.02 1080.44 1403.08 1078.71 Q1401.16 1076.97 1398.06 1076.97 Q1395.86 1076.97 1393.4 1077.74 Q1390.97 1078.5 1388.19 1080.05 L1388.19 1075.33 Q1391.02 1074.19 1393.47 1073.62 Q1395.93 1073.04 1397.96 1073.04 Q1403.33 1073.04 1406.53 1075.72 Q1409.72 1078.41 1409.72 1082.9 Q1409.72 1085.03 1408.91 1086.95 Q1408.13 1088.85 1406.02 1091.44 Q1405.44 1092.11 1402.34 1095.33 Q1399.24 1098.52 1393.59 1104.29 Z" fill="#000000" fill-rule="nonzero" fill-opacity="1" /><path clip-path="url(#clip420)" d="M1182.01 1252.88 L1182.94 1253.44 Q1181.43 1256.93 1179.02 1261.28 Q1181.43 1265.63 1182.94 1269.13 L1182.01 1269.67 Q1178.7 1265.86 1176.15 1261.28 Q1178.72 1256.66 1182.01 1252.88 Z" fill="#000000" fill-rule="nonzero" fill-opacity="1" /><path clip-path="url(#clip420)" d="M1194.31 1249.71 Q1196.12 1249.71 1197.15 1250.84 Q1198.14 1251.97 1198.14 1253.26 Q1198.14 1254.48 1197.44 1255.12 Q1196.73 1255.77 1195.83 1255.77 Q1194.6 1255.77 1193.54 1254.87 Q1192.48 1253.96 1192.25 1252.61 Q1191.41 1253.93 1191.41 1255.9 Q1191.41 1257.18 1192.09 1258.31 Q1192.77 1259.41 1193.64 1260.08 Q1194.51 1260.73 1195.76 1261.31 Q1196.99 1261.85 1197.73 1262.08 Q1198.43 1262.27 1199.21 1262.43 L1208.23 1264.69 Q1212.51 1265.78 1214.02 1265.78 Q1215.89 1265.78 1217.15 1264.88 Q1218.37 1263.98 1218.37 1262.18 Q1218.37 1261.47 1218.18 1260.66 Q1217.95 1259.86 1217.37 1258.83 Q1216.76 1257.76 1215.86 1256.83 Q1214.92 1255.86 1213.35 1254.93 Q1211.77 1254 1209.74 1253.38 Q1209.03 1253.19 1209.03 1252.55 Q1209.03 1251.74 1209.67 1251.74 Q1210.22 1251.74 1211.38 1252.19 Q1212.51 1252.61 1213.99 1253.55 Q1215.44 1254.45 1216.76 1255.64 Q1218.05 1256.83 1218.95 1258.6 Q1219.85 1260.37 1219.85 1262.31 Q1219.85 1265.08 1218.37 1266.91 Q1216.89 1268.75 1214.83 1269.42 Q1215.12 1269.58 1215.5 1269.81 Q1215.89 1270.03 1216.76 1270.71 Q1217.6 1271.36 1218.24 1272.1 Q1218.85 1272.84 1219.34 1274 Q1219.85 1275.12 1219.85 1276.35 Q1219.85 1277.89 1219.4 1279.28 Q1218.95 1280.63 1217.92 1281.6 Q1216.89 1282.56 1215.47 1282.56 Q1213.89 1282.56 1212.8 1281.5 Q1211.67 1280.41 1211.67 1278.92 Q1211.67 1277.99 1212.22 1277.25 Q1212.77 1276.48 1213.96 1276.48 Q1215.28 1276.48 1216.28 1277.38 Q1217.27 1278.28 1217.53 1279.57 Q1218.37 1278.25 1218.37 1276.28 Q1218.37 1274.16 1216.5 1272.48 Q1214.63 1270.81 1211.51 1270 Q1204.01 1268.01 1200.66 1267.23 Q1197.28 1266.46 1195.83 1266.46 Q1194.47 1266.46 1193.54 1266.81 Q1192.61 1267.17 1192.19 1267.78 Q1191.74 1268.36 1191.57 1268.91 Q1191.41 1269.42 1191.41 1270 Q1191.41 1270.97 1191.8 1272.06 Q1192.19 1273.13 1193.09 1274.41 Q1193.96 1275.67 1195.76 1276.86 Q1197.56 1278.05 1200.04 1278.86 Q1200.79 1279.02 1200.79 1279.73 Q1200.75 1280.5 1200.11 1280.5 Q1199.56 1280.5 1198.43 1280.08 Q1197.28 1279.63 1195.83 1278.73 Q1194.38 1277.8 1193.09 1276.6 Q1191.77 1275.38 1190.87 1273.61 Q1189.96 1271.81 1189.96 1269.87 Q1189.96 1269 1190.16 1268.17 Q1190.32 1267.3 1190.8 1266.27 Q1191.28 1265.2 1192.35 1264.27 Q1193.41 1263.34 1194.96 1262.76 Q1194.22 1262.37 1193.51 1261.85 Q1192.8 1261.31 1191.93 1260.47 Q1191.03 1259.6 1190.51 1258.41 Q1189.96 1257.18 1189.96 1255.83 Q1189.96 1254.51 1190.32 1253.22 Q1190.64 1251.94 1191.7 1250.84 Q1192.73 1249.71 1194.31 1249.71 Z" fill="#000000" fill-rule="nonzero" fill-opacity="1" /><path clip-path="url(#clip420)" d="M1231.9 1242.25 Q1230.52 1242.25 1229.87 1241.46 Q1229.22 1240.68 1229.22 1239.66 Q1229.22 1238.6 1229.92 1237.86 Q1230.59 1237.09 1231.79 1237.09 Q1233.07 1237.09 1233.79 1237.99 Q1234.51 1238.87 1234.33 1240.13 Q1236.18 1239.03 1237.02 1237 Q1237.85 1234.95 1237.85 1233.06 Q1237.85 1231.07 1236.14 1229.47 Q1234.42 1227.85 1230.23 1227.85 Q1226.67 1227.85 1224.62 1229.25 Q1222.57 1230.62 1222.57 1233.35 L1222.57 1235.38 Q1222.57 1236.08 1222.5 1236.28 Q1222.43 1236.48 1222.05 1236.48 Q1221.6 1236.48 1221.51 1235.78 Q1221.51 1235.08 1221.37 1233.98 Q1221.28 1231.3 1218.96 1229.88 Q1216.79 1228.59 1213.71 1228.59 Q1210.89 1228.59 1209.72 1229.94 Q1208.52 1231.27 1208.52 1233.01 Q1208.52 1234.63 1209.2 1236.41 Q1209.87 1238.2 1211.38 1239.17 Q1211.38 1236.3 1213.71 1236.3 Q1214.72 1236.3 1215.4 1236.96 Q1216.05 1237.59 1216.05 1238.65 Q1216.05 1239.66 1215.42 1240.34 Q1214.77 1241.01 1213.66 1241.01 Q1211.02 1241.01 1209.2 1238.67 Q1207.37 1236.3 1207.37 1232.83 Q1207.37 1229.4 1209.17 1226.88 Q1210.98 1224.33 1213.75 1224.33 Q1216.48 1224.33 1218.71 1226.13 Q1220.94 1227.94 1221.87 1230.8 Q1222.57 1227.28 1224.96 1225.19 Q1227.32 1223.09 1230.23 1223.09 Q1233.84 1223.09 1236.5 1225.93 Q1239.14 1228.77 1239.14 1232.92 Q1239.14 1236.75 1237.06 1239.5 Q1234.99 1242.25 1231.9 1242.25 Z" fill="#000000" fill-rule="nonzero" fill-opacity="1" /><polyline clip-path="url(#clip425)" style="stroke:#e26f46; stroke-linecap:round; stroke-linejoin:round; stroke-width:3; stroke-opacity:1; fill:none" stroke-dasharray="12, 6, 2, 6" points="1471.57,1177.6 1496.74,1081.68 1521.9,1305.35 1547.06,1232.98 1572.22,1338.67 1597.38,1413.23 1622.55,1312.03 1647.71,1317.71 1672.87,1363.68 1698.03,1304.48 1723.2,1281.76 1748.36,1204.09 1773.52,1210.81 1798.68,1237.25 1823.85,1192.54 1849.01,1173.85 1874.17,1185.63 1899.33,1188.14 1924.49,1200.73 1949.66,1167.78 1974.82,1189.86 1999.98,1185.38 2025.14,1164.8 2050.31,1192.73 2075.47,1176.46 2100.63,1209.47 2125.79,1208.84 2150.95,1165.35 2176.12,1193.19 2201.28,1182.55 2226.44,1199.09 2251.6,1183.22 2276.77,1161.64 2301.93,1191.56 2327.09,1190.84 "/>
</svg>
