<?xml version="1.0" encoding="utf-8"?>
<svg xmlns="http://www.w3.org/2000/svg" xmlns:xlink="http://www.w3.org/1999/xlink" width="600" height="400" viewBox="0 0 2400 1600">
<defs>
  <clipPath id="clip250">
    <rect x="0" y="0" width="2400" height="1600"/>
  </clipPath>
</defs>
<path clip-path="url(#clip250)" d="M0 1600 L2400 1600 L2400 0 L0 0  Z" fill="#ffffff" fill-rule="evenodd" fill-opacity="1"/>
<defs>
  <clipPath id="clip251">
    <rect x="480" y="0" width="1681" height="1600"/>
  </clipPath>
</defs>
<path clip-path="url(#clip250)" d="M203.964 1423.18 L1096.47 1423.18 L1096.47 47.2441 L203.964 47.2441  Z" fill="#ffffff" fill-rule="evenodd" fill-opacity="1"/>
<defs>
  <clipPath id="clip252">
    <rect x="203" y="47" width="894" height="1377"/>
  </clipPath>
</defs>
<polyline clip-path="url(#clip252)" style="stroke:#000000; stroke-linecap:round; stroke-linejoin:round; stroke-width:2; stroke-opacity:0.1; fill:none" points="229.223,1423.18 229.223,47.2441 "/>
<polyline clip-path="url(#clip252)" style="stroke:#000000; stroke-linecap:round; stroke-linejoin:round; stroke-width:2; stroke-opacity:0.1; fill:none" points="476.867,1423.18 476.867,47.2441 "/>
<polyline clip-path="url(#clip252)" style="stroke:#000000; stroke-linecap:round; stroke-linejoin:round; stroke-width:2; stroke-opacity:0.1; fill:none" points="724.511,1423.18 724.511,47.2441 "/>
<polyline clip-path="url(#clip252)" style="stroke:#000000; stroke-linecap:round; stroke-linejoin:round; stroke-width:2; stroke-opacity:0.1; fill:none" points="972.154,1423.18 972.154,47.2441 "/>
<polyline clip-path="url(#clip252)" style="stroke:#000000; stroke-linecap:round; stroke-linejoin:round; stroke-width:2; stroke-opacity:0.1; fill:none" points="203.964,1386.12 1096.47,1386.12 "/>
<polyline clip-path="url(#clip252)" style="stroke:#000000; stroke-linecap:round; stroke-linejoin:round; stroke-width:2; stroke-opacity:0.1; fill:none" points="203.964,1162.22 1096.47,1162.22 "/>
<polyline clip-path="url(#clip252)" style="stroke:#000000; stroke-linecap:round; stroke-linejoin:round; stroke-width:2; stroke-opacity:0.1; fill:none" points="203.964,938.334 1096.47,938.334 "/>
<polyline clip-path="url(#clip252)" style="stroke:#000000; stroke-linecap:round; stroke-linejoin:round; stroke-width:2; stroke-opacity:0.1; fill:none" points="203.964,714.442 1096.47,714.442 "/>
<polyline clip-path="url(#clip252)" style="stroke:#000000; stroke-linecap:round; stroke-linejoin:round; stroke-width:2; stroke-opacity:0.1; fill:none" points="203.964,490.551 1096.47,490.551 "/>
<polyline clip-path="url(#clip252)" style="stroke:#000000; stroke-linecap:round; stroke-linejoin:round; stroke-width:2; stroke-opacity:0.1; fill:none" points="203.964,266.66 1096.47,266.66 "/>
<polyline clip-path="url(#clip250)" style="stroke:#000000; stroke-linecap:round; stroke-linejoin:round; stroke-width:4; stroke-opacity:1; fill:none" points="203.964,1423.18 1096.47,1423.18 "/>
<polyline clip-path="url(#clip250)" style="stroke:#000000; stroke-linecap:round; stroke-linejoin:round; stroke-width:4; stroke-opacity:1; fill:none" points="229.223,1423.18 229.223,1404.28 "/>
<polyline clip-path="url(#clip250)" style="stroke:#000000; stroke-linecap:round; stroke-linejoin:round; stroke-width:4; stroke-opacity:1; fill:none" points="476.867,1423.18 476.867,1404.28 "/>
<polyline clip-path="url(#clip250)" style="stroke:#000000; stroke-linecap:round; stroke-linejoin:round; stroke-width:4; stroke-opacity:1; fill:none" points="724.511,1423.18 724.511,1404.28 "/>
<polyline clip-path="url(#clip250)" style="stroke:#000000; stroke-linecap:round; stroke-linejoin:round; stroke-width:4; stroke-opacity:1; fill:none" points="972.154,1423.18 972.154,1404.28 "/>
<path clip-path="url(#clip250)" d="M229.223 1454.1 Q225.612 1454.1 223.783 1457.66 Q221.978 1461.2 221.978 1468.33 Q221.978 1475.44 223.783 1479.01 Q225.612 1482.55 229.223 1482.55 Q232.857 1482.55 234.663 1479.01 Q236.492 1475.44 236.492 1468.33 Q236.492 1461.2 234.663 1457.66 Q232.857 1454.1 229.223 1454.1 M229.223 1450.39 Q235.033 1450.39 238.089 1455 Q241.168 1459.58 241.168 1468.33 Q241.168 1477.06 238.089 1481.67 Q235.033 1486.25 229.223 1486.25 Q223.413 1486.25 220.334 1481.67 Q217.279 1477.06 217.279 1468.33 Q217.279 1459.58 220.334 1455 Q223.413 1450.39 229.223 1450.39 Z" fill="#000000" fill-rule="nonzero" fill-opacity="1" /><path clip-path="url(#clip250)" d="M467.249 1481.64 L474.888 1481.64 L474.888 1455.28 L466.578 1456.95 L466.578 1452.69 L474.841 1451.02 L479.517 1451.02 L479.517 1481.64 L487.156 1481.64 L487.156 1485.58 L467.249 1485.58 L467.249 1481.64 Z" fill="#000000" fill-rule="nonzero" fill-opacity="1" /><path clip-path="url(#clip250)" d="M719.163 1481.64 L735.483 1481.64 L735.483 1485.58 L713.538 1485.58 L713.538 1481.64 Q716.2 1478.89 720.784 1474.26 Q725.39 1469.61 726.571 1468.27 Q728.816 1465.74 729.696 1464.01 Q730.599 1462.25 730.599 1460.56 Q730.599 1457.8 728.654 1456.07 Q726.733 1454.33 723.631 1454.33 Q721.432 1454.33 718.978 1455.09 Q716.548 1455.86 713.77 1457.41 L713.77 1452.69 Q716.594 1451.55 719.048 1450.97 Q721.501 1450.39 723.538 1450.39 Q728.909 1450.39 732.103 1453.08 Q735.298 1455.77 735.298 1460.26 Q735.298 1462.39 734.487 1464.31 Q733.7 1466.2 731.594 1468.8 Q731.015 1469.47 727.913 1472.69 Q724.812 1475.88 719.163 1481.64 Z" fill="#000000" fill-rule="nonzero" fill-opacity="1" /><path clip-path="url(#clip250)" d="M976.402 1466.95 Q979.758 1467.66 981.633 1469.93 Q983.532 1472.2 983.532 1475.53 Q983.532 1480.65 980.013 1483.45 Q976.495 1486.25 970.013 1486.25 Q967.837 1486.25 965.522 1485.81 Q963.231 1485.39 960.777 1484.54 L960.777 1480.02 Q962.722 1481.16 965.036 1481.74 Q967.351 1482.32 969.874 1482.32 Q974.272 1482.32 976.564 1480.58 Q978.879 1478.84 978.879 1475.53 Q978.879 1472.48 976.726 1470.77 Q974.596 1469.03 970.777 1469.03 L966.749 1469.03 L966.749 1465.19 L970.962 1465.19 Q974.411 1465.19 976.24 1463.82 Q978.069 1462.43 978.069 1459.84 Q978.069 1457.18 976.171 1455.77 Q974.296 1454.33 970.777 1454.33 Q968.856 1454.33 966.657 1454.75 Q964.458 1455.16 961.819 1456.04 L961.819 1451.88 Q964.481 1451.14 966.796 1450.77 Q969.134 1450.39 971.194 1450.39 Q976.518 1450.39 979.62 1452.83 Q982.721 1455.23 982.721 1459.35 Q982.721 1462.22 981.078 1464.21 Q979.434 1466.18 976.402 1466.95 Z" fill="#000000" fill-rule="nonzero" fill-opacity="1" /><path clip-path="url(#clip250)" d="M520.389 1520.52 L560.588 1520.52 L560.588 1525.93 L543.719 1525.93 L543.719 1568.04 L537.258 1568.04 L537.258 1525.93 L520.389 1525.93 L520.389 1520.52 Z" fill="#000000" fill-rule="nonzero" fill-opacity="1" /><path clip-path="url(#clip250)" d="M564.535 1532.4 L570.392 1532.4 L570.392 1568.04 L564.535 1568.04 L564.535 1532.4 M564.535 1518.52 L570.392 1518.52 L570.392 1525.93 L564.535 1525.93 L564.535 1518.52 Z" fill="#000000" fill-rule="nonzero" fill-opacity="1" /><path clip-path="url(#clip250)" d="M610.4 1539.24 Q612.596 1535.29 615.652 1533.41 Q618.707 1531.54 622.845 1531.54 Q628.415 1531.54 631.439 1535.45 Q634.462 1539.33 634.462 1546.53 L634.462 1568.04 L628.574 1568.04 L628.574 1546.72 Q628.574 1541.59 626.76 1539.11 Q624.946 1536.63 621.222 1536.63 Q616.67 1536.63 614.028 1539.65 Q611.387 1542.68 611.387 1547.9 L611.387 1568.04 L605.498 1568.04 L605.498 1546.72 Q605.498 1541.56 603.684 1539.11 Q601.87 1536.63 598.082 1536.63 Q593.595 1536.63 590.953 1539.68 Q588.311 1542.71 588.311 1547.9 L588.311 1568.04 L582.423 1568.04 L582.423 1532.4 L588.311 1532.4 L588.311 1537.93 Q590.316 1534.66 593.117 1533.1 Q595.918 1531.54 599.769 1531.54 Q603.652 1531.54 606.358 1533.51 Q609.095 1535.48 610.4 1539.24 Z" fill="#000000" fill-rule="nonzero" fill-opacity="1" /><path clip-path="url(#clip250)" d="M676.635 1548.76 L676.635 1551.62 L649.708 1551.62 Q650.09 1557.67 653.337 1560.85 Q656.615 1564 662.44 1564 Q665.814 1564 668.965 1563.17 Q672.147 1562.35 675.267 1560.69 L675.267 1566.23 Q672.116 1567.57 668.805 1568.27 Q665.495 1568.97 662.09 1568.97 Q653.56 1568.97 648.562 1564 Q643.597 1559.04 643.597 1550.57 Q643.597 1541.82 648.308 1536.69 Q653.05 1531.54 661.071 1531.54 Q668.264 1531.54 672.434 1536.18 Q676.635 1540.8 676.635 1548.76 M670.779 1547.04 Q670.715 1542.23 668.073 1539.37 Q665.463 1536.5 661.135 1536.5 Q656.233 1536.5 653.273 1539.27 Q650.345 1542.04 649.899 1547.07 L670.779 1547.04 Z" fill="#000000" fill-rule="nonzero" fill-opacity="1" /><path clip-path="url(#clip250)" d="M721.036 1518.58 Q716.771 1525.9 714.702 1533.06 Q712.633 1540.23 712.633 1547.58 Q712.633 1554.93 714.702 1562.16 Q716.803 1569.35 721.036 1576.64 L715.943 1576.64 Q711.169 1569.16 708.782 1561.93 Q706.427 1554.71 706.427 1547.58 Q706.427 1540.48 708.782 1533.29 Q711.137 1526.09 715.943 1518.58 L721.036 1518.58 Z" fill="#000000" fill-rule="nonzero" fill-opacity="1" /><path clip-path="url(#clip250)" d="M755.124 1533.45 L755.124 1538.98 Q752.642 1537.71 749.968 1537.07 Q747.295 1536.44 744.43 1536.44 Q740.069 1536.44 737.873 1537.77 Q735.709 1539.11 735.709 1541.79 Q735.709 1543.82 737.269 1545 Q738.828 1546.15 743.539 1547.2 L745.544 1547.64 Q751.782 1548.98 754.392 1551.43 Q757.034 1553.85 757.034 1558.21 Q757.034 1563.17 753.087 1566.07 Q749.172 1568.97 742.297 1568.97 Q739.433 1568.97 736.314 1568.39 Q733.226 1567.85 729.789 1566.74 L729.789 1560.69 Q733.035 1562.38 736.186 1563.24 Q739.337 1564.07 742.425 1564.07 Q746.562 1564.07 748.79 1562.66 Q751.018 1561.23 751.018 1558.65 Q751.018 1556.27 749.395 1554.99 Q747.804 1553.72 742.361 1552.54 L740.324 1552.07 Q734.881 1550.92 732.462 1548.56 Q730.043 1546.18 730.043 1542.04 Q730.043 1537.01 733.608 1534.27 Q737.173 1531.54 743.73 1531.54 Q746.976 1531.54 749.841 1532.01 Q752.705 1532.49 755.124 1533.45 Z" fill="#000000" fill-rule="nonzero" fill-opacity="1" /><path clip-path="url(#clip250)" d="M765.437 1518.58 L770.529 1518.58 Q775.304 1526.09 777.659 1533.29 Q780.046 1540.48 780.046 1547.58 Q780.046 1554.71 777.659 1561.93 Q775.304 1569.16 770.529 1576.64 L765.437 1576.64 Q769.67 1569.35 771.739 1562.16 Q773.84 1554.93 773.84 1547.58 Q773.84 1540.23 771.739 1533.06 Q769.67 1525.9 765.437 1518.58 Z" fill="#000000" fill-rule="nonzero" fill-opacity="1" /><polyline clip-path="url(#clip250)" style="stroke:#000000; stroke-linecap:round; stroke-linejoin:round; stroke-width:4; stroke-opacity:1; fill:none" points="203.964,1423.18 203.964,47.2441 "/>
<polyline clip-path="url(#clip250)" style="stroke:#000000; stroke-linecap:round; stroke-linejoin:round; stroke-width:4; stroke-opacity:1; fill:none" points="203.964,1386.12 222.861,1386.12 "/>
<polyline clip-path="url(#clip250)" style="stroke:#000000; stroke-linecap:round; stroke-linejoin:round; stroke-width:4; stroke-opacity:1; fill:none" points="203.964,1162.22 222.861,1162.22 "/>
<polyline clip-path="url(#clip250)" style="stroke:#000000; stroke-linecap:round; stroke-linejoin:round; stroke-width:4; stroke-opacity:1; fill:none" points="203.964,938.334 222.861,938.334 "/>
<polyline clip-path="url(#clip250)" style="stroke:#000000; stroke-linecap:round; stroke-linejoin:round; stroke-width:4; stroke-opacity:1; fill:none" points="203.964,714.442 222.861,714.442 "/>
<polyline clip-path="url(#clip250)" style="stroke:#000000; stroke-linecap:round; stroke-linejoin:round; stroke-width:4; stroke-opacity:1; fill:none" points="203.964,490.551 222.861,490.551 "/>
<polyline clip-path="url(#clip250)" style="stroke:#000000; stroke-linecap:round; stroke-linejoin:round; stroke-width:4; stroke-opacity:1; fill:none" points="203.964,266.66 222.861,266.66 "/>
<path clip-path="url(#clip250)" d="M156.019 1371.91 Q152.408 1371.91 150.579 1375.48 Q148.774 1379.02 148.774 1386.15 Q148.774 1393.26 150.579 1396.82 Q152.408 1400.36 156.019 1400.36 Q159.653 1400.36 161.459 1396.82 Q163.288 1393.26 163.288 1386.15 Q163.288 1379.02 161.459 1375.48 Q159.653 1371.91 156.019 1371.91 M156.019 1368.21 Q161.829 1368.21 164.885 1372.82 Q167.964 1377.4 167.964 1386.15 Q167.964 1394.88 164.885 1399.48 Q161.829 1404.07 156.019 1404.07 Q150.209 1404.07 147.13 1399.48 Q144.075 1394.88 144.075 1386.15 Q144.075 1377.4 147.13 1372.82 Q150.209 1368.21 156.019 1368.21 Z" fill="#000000" fill-rule="nonzero" fill-opacity="1" /><path clip-path="url(#clip250)" d="M147.061 1144.94 L165.417 1144.94 L165.417 1148.88 L151.343 1148.88 L151.343 1157.35 Q152.362 1157 153.38 1156.84 Q154.399 1156.66 155.417 1156.66 Q161.204 1156.66 164.584 1159.83 Q167.964 1163 167.964 1168.42 Q167.964 1174 164.491 1177.1 Q161.019 1180.18 154.7 1180.18 Q152.524 1180.18 150.255 1179.81 Q148.01 1179.44 145.603 1178.69 L145.603 1174 Q147.686 1175.13 149.908 1175.69 Q152.13 1176.24 154.607 1176.24 Q158.612 1176.24 160.95 1174.13 Q163.288 1172.03 163.288 1168.42 Q163.288 1164.81 160.95 1162.7 Q158.612 1160.59 154.607 1160.59 Q152.732 1160.59 150.857 1161.01 Q149.005 1161.43 147.061 1162.31 L147.061 1144.94 Z" fill="#000000" fill-rule="nonzero" fill-opacity="1" /><path clip-path="url(#clip250)" d="M116.668 951.678 L124.306 951.678 L124.306 925.313 L115.996 926.979 L115.996 922.72 L124.26 921.054 L128.936 921.054 L128.936 951.678 L136.575 951.678 L136.575 955.614 L116.668 955.614 L116.668 951.678 Z" fill="#000000" fill-rule="nonzero" fill-opacity="1" /><path clip-path="url(#clip250)" d="M156.019 924.132 Q152.408 924.132 150.579 927.697 Q148.774 931.239 148.774 938.368 Q148.774 945.475 150.579 949.04 Q152.408 952.581 156.019 952.581 Q159.653 952.581 161.459 949.04 Q163.288 945.475 163.288 938.368 Q163.288 931.239 161.459 927.697 Q159.653 924.132 156.019 924.132 M156.019 920.429 Q161.829 920.429 164.885 925.035 Q167.964 929.618 167.964 938.368 Q167.964 947.095 164.885 951.702 Q161.829 956.285 156.019 956.285 Q150.209 956.285 147.13 951.702 Q144.075 947.095 144.075 938.368 Q144.075 929.618 147.13 925.035 Q150.209 920.429 156.019 920.429 Z" fill="#000000" fill-rule="nonzero" fill-opacity="1" /><path clip-path="url(#clip250)" d="M117.663 727.787 L125.302 727.787 L125.302 701.422 L116.992 703.088 L116.992 698.829 L125.255 697.162 L129.931 697.162 L129.931 727.787 L137.57 727.787 L137.57 731.722 L117.663 731.722 L117.663 727.787 Z" fill="#000000" fill-rule="nonzero" fill-opacity="1" /><path clip-path="url(#clip250)" d="M147.061 697.162 L165.417 697.162 L165.417 701.097 L151.343 701.097 L151.343 709.57 Q152.362 709.222 153.38 709.06 Q154.399 708.875 155.417 708.875 Q161.204 708.875 164.584 712.046 Q167.964 715.218 167.964 720.634 Q167.964 726.213 164.491 729.315 Q161.019 732.394 154.7 732.394 Q152.524 732.394 150.255 732.023 Q148.01 731.653 145.603 730.912 L145.603 726.213 Q147.686 727.347 149.908 727.903 Q152.13 728.458 154.607 728.458 Q158.612 728.458 160.95 726.352 Q163.288 724.245 163.288 720.634 Q163.288 717.023 160.95 714.917 Q158.612 712.81 154.607 712.81 Q152.732 712.81 150.857 713.227 Q149.005 713.644 147.061 714.523 L147.061 697.162 Z" fill="#000000" fill-rule="nonzero" fill-opacity="1" /><path clip-path="url(#clip250)" d="M119.885 503.896 L136.204 503.896 L136.204 507.831 L114.26 507.831 L114.26 503.896 Q116.922 501.141 121.505 496.512 Q126.112 491.859 127.292 490.516 Q129.538 487.993 130.417 486.257 Q131.32 484.498 131.32 482.808 Q131.32 480.053 129.376 478.317 Q127.455 476.581 124.353 476.581 Q122.154 476.581 119.7 477.345 Q117.269 478.109 114.492 479.66 L114.492 474.938 Q117.316 473.803 119.769 473.225 Q122.223 472.646 124.26 472.646 Q129.63 472.646 132.825 475.331 Q136.019 478.016 136.019 482.507 Q136.019 484.637 135.209 486.558 Q134.422 488.456 132.316 491.049 Q131.737 491.72 128.635 494.938 Q125.533 498.132 119.885 503.896 Z" fill="#000000" fill-rule="nonzero" fill-opacity="1" /><path clip-path="url(#clip250)" d="M156.019 476.35 Q152.408 476.35 150.579 479.915 Q148.774 483.456 148.774 490.586 Q148.774 497.692 150.579 501.257 Q152.408 504.799 156.019 504.799 Q159.653 504.799 161.459 501.257 Q163.288 497.692 163.288 490.586 Q163.288 483.456 161.459 479.915 Q159.653 476.35 156.019 476.35 M156.019 472.646 Q161.829 472.646 164.885 477.253 Q167.964 481.836 167.964 490.586 Q167.964 499.313 164.885 503.919 Q161.829 508.502 156.019 508.502 Q150.209 508.502 147.13 503.919 Q144.075 499.313 144.075 490.586 Q144.075 481.836 147.13 477.253 Q150.209 472.646 156.019 472.646 Z" fill="#000000" fill-rule="nonzero" fill-opacity="1" /><path clip-path="url(#clip250)" d="M120.88 280.005 L137.2 280.005 L137.2 283.94 L115.256 283.94 L115.256 280.005 Q117.918 277.25 122.501 272.62 Q127.107 267.968 128.288 266.625 Q130.533 264.102 131.413 262.366 Q132.316 260.607 132.316 258.917 Q132.316 256.162 130.371 254.426 Q128.45 252.69 125.348 252.69 Q123.149 252.69 120.695 253.454 Q118.265 254.218 115.487 255.769 L115.487 251.046 Q118.311 249.912 120.765 249.333 Q123.218 248.755 125.255 248.755 Q130.626 248.755 133.82 251.44 Q137.015 254.125 137.015 258.616 Q137.015 260.745 136.204 262.667 Q135.417 264.565 133.311 267.157 Q132.732 267.829 129.63 271.046 Q126.529 274.241 120.88 280.005 Z" fill="#000000" fill-rule="nonzero" fill-opacity="1" /><path clip-path="url(#clip250)" d="M147.061 249.38 L165.417 249.38 L165.417 253.315 L151.343 253.315 L151.343 261.787 Q152.362 261.44 153.38 261.278 Q154.399 261.093 155.417 261.093 Q161.204 261.093 164.584 264.264 Q167.964 267.435 167.964 272.852 Q167.964 278.431 164.491 281.532 Q161.019 284.611 154.7 284.611 Q152.524 284.611 150.255 284.241 Q148.01 283.87 145.603 283.13 L145.603 278.431 Q147.686 279.565 149.908 280.12 Q152.13 280.676 154.607 280.676 Q158.612 280.676 160.95 278.569 Q163.288 276.463 163.288 272.852 Q163.288 269.241 160.95 267.134 Q158.612 265.028 154.607 265.028 Q152.732 265.028 150.857 265.445 Q149.005 265.861 147.061 266.741 L147.061 249.38 Z" fill="#000000" fill-rule="nonzero" fill-opacity="1" /><path clip-path="url(#clip250)" d="M39.4334 772.564 Q44.844 772.564 50.9309 774.303 Q56.9856 776.01 61.8809 778.715 Q66.744 781.42 69.9646 784.963 Q73.153 788.505 73.153 791.887 Q73.153 794.045 71.9613 795.655 Q70.7375 797.233 68.7085 798.103 Q66.6474 798.972 64.393 799.391 Q62.1063 799.81 59.6265 799.81 Q55.9228 799.81 51.8971 799.005 Q47.8391 798.199 44.1677 796.847 Q40.464 795.494 37.1146 793.594 Q33.733 791.694 31.2853 789.6 Q28.8055 787.475 27.3562 785.092 Q25.907 782.708 25.907 780.486 Q25.907 778.876 26.6155 777.588 Q27.2918 776.267 28.4834 775.43 Q29.6428 774.593 31.0277 774.013 Q32.4125 773.401 34.0228 773.111 Q35.6009 772.821 36.9214 772.692 Q38.2096 772.564 39.4334 772.564 M35.3433 776.911 Q33.7008 776.911 32.477 777.04 Q31.2209 777.169 29.9649 777.523 Q28.7089 777.878 28.0325 778.65 Q27.3562 779.391 27.3562 780.551 Q27.3562 783.932 34.2805 787.733 Q36.4383 788.956 39.369 790.051 Q42.2997 791.146 43.6846 791.533 Q45.0694 791.919 48.4833 792.821 L48.4833 779.037 Q39.6911 776.911 35.3433 776.911 M50.5766 779.617 L50.5766 793.336 Q58.6281 795.462 63.6522 795.462 Q68.0322 795.462 69.868 794.56 Q71.6715 793.626 71.6715 791.887 Q71.6715 789.89 69.6747 788.022 Q67.6458 786.154 63.9743 784.254 Q59.2078 781.742 50.5766 779.617 Z" fill="#000000" fill-rule="nonzero" fill-opacity="1" /><path clip-path="url(#clip250)" d="M22.9507 728.256 Q30.2712 732.521 37.4327 734.59 Q44.5941 736.658 51.9465 736.658 Q59.2989 736.658 66.5239 734.59 Q73.7172 732.489 81.0059 728.256 L81.0059 733.348 Q73.5262 738.123 66.3011 740.51 Q59.0761 742.865 51.9465 742.865 Q44.8487 742.865 37.6555 740.51 Q30.4622 738.154 22.9507 733.348 L22.9507 728.256 Z" fill="#000000" fill-rule="nonzero" fill-opacity="1" /><path clip-path="url(#clip250)" d="M28.1387 706.74 Q28.1387 709.286 29.9211 711.036 Q31.6717 712.787 34.218 712.787 Q36.7324 712.787 38.483 711.036 Q40.2017 709.286 40.2017 706.74 Q40.2017 704.193 38.483 702.443 Q36.7324 700.692 34.218 700.692 Q31.7035 700.692 29.9211 702.475 Q28.1387 704.225 28.1387 706.74 M24.0328 706.74 Q24.0328 704.703 24.8286 702.825 Q25.5924 700.947 27.0566 699.578 Q28.4888 698.114 30.3031 697.382 Q32.1173 696.65 34.218 696.65 Q38.4193 696.65 41.3476 699.61 Q44.244 702.538 44.244 706.803 Q44.244 711.1 41.3794 713.965 Q38.5148 716.829 34.218 716.829 Q29.953 716.829 26.9929 713.901 Q24.0328 710.973 24.0328 706.74 Z" fill="#000000" fill-rule="nonzero" fill-opacity="1" /><path clip-path="url(#clip250)" d="M22.9507 685.224 L22.9507 680.131 Q30.4622 675.357 37.6555 673.001 Q44.8487 670.614 51.9465 670.614 Q59.0761 670.614 66.3011 673.001 Q73.5262 675.357 81.0059 680.131 L81.0059 685.224 Q73.7172 680.99 66.5239 678.921 Q59.2989 676.821 51.9465 676.821 Q44.5941 676.821 37.4327 678.921 Q30.2712 680.99 22.9507 685.224 Z" fill="#000000" fill-rule="nonzero" fill-opacity="1" /><polyline clip-path="url(#clip252)" style="stroke:#009af9; stroke-linecap:round; stroke-linejoin:round; stroke-width:4; stroke-opacity:1; fill:none" points="229.223,1384.18 253.988,1207.58 278.752,1028.12 303.516,728.576 328.281,466.272 353.045,288.418 377.809,148.899 402.574,86.1857 427.338,114.98 452.103,115.662 476.867,165.703 501.631,225.763 526.396,181.918 551.16,224.694 575.924,298.589 600.689,318.027 625.453,299.23 650.218,280.318 674.982,323.537 699.746,235.951 724.511,261.762 749.275,286.232 774.039,249.211 798.804,235.975 823.568,285.194 848.332,275.737 873.097,245.875 897.861,229.47 922.626,229.155 947.39,238.065 972.154,254.378 996.919,219.81 1021.68,308.63 1046.45,232.003 1071.21,256.924 "/>
<polyline clip-path="url(#clip252)" style="stroke:#e26f46; stroke-linecap:round; stroke-linejoin:round; stroke-width:3; stroke-opacity:1; fill:none" stroke-dasharray="12, 6, 2, 6" points="229.223,1384.24 253.988,1221.83 278.752,1017.05 303.516,729.361 328.281,466.052 353.045,284.597 377.809,152.673 402.574,89.466 427.338,111.258 452.103,124.426 476.867,168.618 501.631,226.225 526.396,201.083 551.16,224.38 575.924,288.464 600.689,317.803 625.453,305.646 650.218,284.371 674.982,313.528 699.746,251.227 724.511,255.847 749.275,279.569 774.039,256.448 798.804,239.256 823.568,275.481 848.332,277.843 873.097,252.918 897.861,232.933 922.626,228.81 947.39,236.349 972.154,251.973 996.919,227.737 1021.68,292.337 1046.45,247.242 1071.21,253.283 "/>
<path clip-path="url(#clip250)" d="M948.641 1377.32 L1066.72 1377.32 L1066.72 1221.8 L948.641 1221.8  Z" fill="#ffffff" fill-rule="evenodd" fill-opacity="1"/>
<polyline clip-path="url(#clip250)" style="stroke:#000000; stroke-linecap:round; stroke-linejoin:round; stroke-width:4; stroke-opacity:1; fill:none" points="948.641,1377.32 1066.72,1377.32 1066.72,1221.8 948.641,1221.8 948.641,1377.32 "/>
<polyline clip-path="url(#clip250)" style="stroke:#009af9; stroke-linecap:round; stroke-linejoin:round; stroke-width:4; stroke-opacity:1; fill:none" points="958.558,1273.64 1018.06,1273.64 "/>
<path clip-path="url(#clip250)" d="M1054.75 1260.37 Q1053.27 1260.37 1052.52 1260.51 Q1051.77 1260.63 1051.58 1260.8 Q1051.4 1260.96 1051.19 1261.38 L1040.88 1283.3 Q1039.78 1285.65 1037.72 1287.33 Q1035.68 1289.02 1033.1 1289.02 Q1030.95 1289.02 1029.45 1287.71 Q1027.98 1286.42 1027.98 1284.59 Q1027.98 1283.28 1028.79 1282.53 Q1029.61 1281.81 1030.72 1281.81 Q1031.93 1281.81 1032.71 1282.58 Q1033.5 1283.35 1033.5 1284.55 Q1033.5 1285.32 1033.17 1285.9 Q1032.85 1286.51 1032.54 1286.72 Q1032.26 1286.96 1031.96 1287.1 Q1032.45 1287.29 1033.1 1287.29 Q1034.09 1287.29 1034.93 1286.89 Q1035.8 1286.51 1036.36 1286 Q1036.95 1285.51 1037.53 1284.62 Q1038.12 1283.75 1038.4 1283.19 Q1038.68 1282.65 1039.1 1281.71 L1040.2 1279.42 L1031.23 1260.37 L1028.16 1260.37 L1028.16 1258.13 L1033.64 1258.27 L1039.59 1258.13 L1039.59 1260.37 L1036.99 1260.37 L1043.08 1273.33 L1048.61 1261.52 L1048.84 1260.96 Q1048.84 1260.7 1048.28 1260.56 Q1047.72 1260.4 1047.16 1260.4 L1046.6 1260.37 L1046.6 1258.13 L1050.95 1258.27 Q1053.01 1258.27 1054.75 1258.13 L1054.75 1260.37 Z" fill="#000000" fill-rule="nonzero" fill-opacity="1" /><polyline clip-path="url(#clip250)" style="stroke:#e26f46; stroke-linecap:round; stroke-linejoin:round; stroke-width:3; stroke-opacity:1; fill:none" stroke-dasharray="12, 6, 2, 6" points="958.558,1325.48 1018.06,1325.48 "/>
<path clip-path="url(#clip250)" d="M1050.56 1309.2 L1050.15 1309.87 Q1047.61 1308.77 1044.45 1307.01 Q1041.28 1308.77 1038.74 1309.87 L1038.35 1309.2 Q1041.12 1306.79 1044.45 1304.93 Q1047.81 1306.8 1050.56 1309.2 Z" fill="#000000" fill-rule="nonzero" fill-opacity="1" /><path clip-path="url(#clip250)" d="M1054.75 1317.22 Q1053.27 1317.22 1052.52 1317.36 Q1051.77 1317.48 1051.58 1317.64 Q1051.4 1317.8 1051.19 1318.23 L1040.88 1340.15 Q1039.78 1342.49 1037.72 1344.18 Q1035.68 1345.86 1033.1 1345.86 Q1030.95 1345.86 1029.45 1344.55 Q1027.98 1343.26 1027.98 1341.44 Q1027.98 1340.13 1028.79 1339.38 Q1029.61 1338.65 1030.72 1338.65 Q1031.93 1338.65 1032.71 1339.42 Q1033.5 1340.2 1033.5 1341.39 Q1033.5 1342.16 1033.17 1342.75 Q1032.85 1343.36 1032.54 1343.57 Q1032.26 1343.8 1031.96 1343.94 Q1032.45 1344.13 1033.1 1344.13 Q1034.09 1344.13 1034.93 1343.73 Q1035.8 1343.36 1036.36 1342.84 Q1036.95 1342.35 1037.53 1341.46 Q1038.12 1340.59 1038.4 1340.03 Q1038.68 1339.49 1039.1 1338.56 L1040.2 1336.26 L1031.23 1317.22 L1028.16 1317.22 L1028.16 1314.97 L1033.64 1315.11 L1039.59 1314.97 L1039.59 1317.22 L1036.99 1317.22 L1043.08 1330.17 L1048.61 1318.37 L1048.84 1317.8 Q1048.84 1317.55 1048.28 1317.41 Q1047.72 1317.24 1047.16 1317.24 L1046.6 1317.22 L1046.6 1314.97 L1050.95 1315.11 Q1053.01 1315.11 1054.75 1314.97 L1054.75 1317.22 Z" fill="#000000" fill-rule="nonzero" fill-opacity="1" /><path clip-path="url(#clip250)" d="M1460.25 398.692 L2352.76 398.692 L2352.76 47.2441 L1460.25 47.2441  Z" fill="#ffffff" fill-rule="evenodd" fill-opacity="1"/>
<defs>
  <clipPath id="clip253">
    <rect x="1460" y="47" width="894" height="352"/>
  </clipPath>
</defs>
<polyline clip-path="url(#clip253)" style="stroke:#000000; stroke-linecap:round; stroke-linejoin:round; stroke-width:2; stroke-opacity:0.1; fill:none" points="1485.51,398.692 1485.51,47.2441 "/>
<polyline clip-path="url(#clip253)" style="stroke:#000000; stroke-linecap:round; stroke-linejoin:round; stroke-width:2; stroke-opacity:0.1; fill:none" points="1733.15,398.692 1733.15,47.2441 "/>
<polyline clip-path="url(#clip253)" style="stroke:#000000; stroke-linecap:round; stroke-linejoin:round; stroke-width:2; stroke-opacity:0.1; fill:none" points="1980.8,398.692 1980.8,47.2441 "/>
<polyline clip-path="url(#clip253)" style="stroke:#000000; stroke-linecap:round; stroke-linejoin:round; stroke-width:2; stroke-opacity:0.1; fill:none" points="2228.44,398.692 2228.44,47.2441 "/>
<polyline clip-path="url(#clip253)" style="stroke:#000000; stroke-linecap:round; stroke-linejoin:round; stroke-width:2; stroke-opacity:0.1; fill:none" points="1460.25,388.745 2352.76,388.745 "/>
<polyline clip-path="url(#clip253)" style="stroke:#000000; stroke-linecap:round; stroke-linejoin:round; stroke-width:2; stroke-opacity:0.1; fill:none" points="1460.25,323.143 2352.76,323.143 "/>
<polyline clip-path="url(#clip253)" style="stroke:#000000; stroke-linecap:round; stroke-linejoin:round; stroke-width:2; stroke-opacity:0.1; fill:none" points="1460.25,257.54 2352.76,257.54 "/>
<polyline clip-path="url(#clip253)" style="stroke:#000000; stroke-linecap:round; stroke-linejoin:round; stroke-width:2; stroke-opacity:0.1; fill:none" points="1460.25,191.937 2352.76,191.937 "/>
<polyline clip-path="url(#clip253)" style="stroke:#000000; stroke-linecap:round; stroke-linejoin:round; stroke-width:2; stroke-opacity:0.1; fill:none" points="1460.25,126.334 2352.76,126.334 "/>
<polyline clip-path="url(#clip253)" style="stroke:#000000; stroke-linecap:round; stroke-linejoin:round; stroke-width:2; stroke-opacity:0.1; fill:none" points="1460.25,60.7316 2352.76,60.7316 "/>
<polyline clip-path="url(#clip250)" style="stroke:#000000; stroke-linecap:round; stroke-linejoin:round; stroke-width:4; stroke-opacity:1; fill:none" points="1460.25,398.692 2352.76,398.692 "/>
<polyline clip-path="url(#clip250)" style="stroke:#000000; stroke-linecap:round; stroke-linejoin:round; stroke-width:4; stroke-opacity:1; fill:none" points="1485.51,398.692 1485.51,379.794 "/>
<polyline clip-path="url(#clip250)" style="stroke:#000000; stroke-linecap:round; stroke-linejoin:round; stroke-width:4; stroke-opacity:1; fill:none" points="1733.15,398.692 1733.15,379.794 "/>
<polyline clip-path="url(#clip250)" style="stroke:#000000; stroke-linecap:round; stroke-linejoin:round; stroke-width:4; stroke-opacity:1; fill:none" points="1980.8,398.692 1980.8,379.794 "/>
<polyline clip-path="url(#clip250)" style="stroke:#000000; stroke-linecap:round; stroke-linejoin:round; stroke-width:4; stroke-opacity:1; fill:none" points="2228.44,398.692 2228.44,379.794 "/>
<path clip-path="url(#clip250)" d="M1485.51 429.611 Q1481.9 429.611 1480.07 433.175 Q1478.26 436.717 1478.26 443.847 Q1478.26 450.953 1480.07 454.518 Q1481.9 458.059 1485.51 458.059 Q1489.14 458.059 1490.95 454.518 Q1492.78 450.953 1492.78 443.847 Q1492.78 436.717 1490.95 433.175 Q1489.14 429.611 1485.51 429.611 M1485.51 425.907 Q1491.32 425.907 1494.37 430.513 Q1497.45 435.097 1497.45 443.847 Q1497.45 452.573 1494.37 457.18 Q1491.32 461.763 1485.51 461.763 Q1479.7 461.763 1476.62 457.18 Q1473.56 452.573 1473.56 443.847 Q1473.56 435.097 1476.62 430.513 Q1479.7 425.907 1485.51 425.907 Z" fill="#000000" fill-rule="nonzero" fill-opacity="1" /><path clip-path="url(#clip250)" d="M1723.53 457.157 L1731.17 457.157 L1731.17 430.791 L1722.86 432.458 L1722.86 428.199 L1731.13 426.532 L1735.8 426.532 L1735.8 457.157 L1743.44 457.157 L1743.44 461.092 L1723.53 461.092 L1723.53 457.157 Z" fill="#000000" fill-rule="nonzero" fill-opacity="1" /><path clip-path="url(#clip250)" d="M1975.45 457.157 L1991.77 457.157 L1991.77 461.092 L1969.82 461.092 L1969.82 457.157 Q1972.48 454.402 1977.07 449.772 Q1981.67 445.12 1982.86 443.777 Q1985.1 441.254 1985.98 439.518 Q1986.88 437.759 1986.88 436.069 Q1986.88 433.314 1984.94 431.578 Q1983.02 429.842 1979.92 429.842 Q1977.72 429.842 1975.26 430.606 Q1972.83 431.37 1970.05 432.921 L1970.05 428.199 Q1972.88 427.064 1975.33 426.486 Q1977.79 425.907 1979.82 425.907 Q1985.19 425.907 1988.39 428.592 Q1991.58 431.277 1991.58 435.768 Q1991.58 437.898 1990.77 439.819 Q1989.98 441.717 1987.88 444.31 Q1987.3 444.981 1984.2 448.198 Q1981.1 451.393 1975.45 457.157 Z" fill="#000000" fill-rule="nonzero" fill-opacity="1" /><path clip-path="url(#clip250)" d="M2232.69 442.458 Q2236.04 443.175 2237.92 445.444 Q2239.82 447.712 2239.82 451.046 Q2239.82 456.161 2236.3 458.962 Q2232.78 461.763 2226.3 461.763 Q2224.12 461.763 2221.81 461.323 Q2219.52 460.907 2217.06 460.05 L2217.06 455.536 Q2219.01 456.671 2221.32 457.249 Q2223.64 457.828 2226.16 457.828 Q2230.56 457.828 2232.85 456.092 Q2235.16 454.356 2235.16 451.046 Q2235.16 447.99 2233.01 446.277 Q2230.88 444.541 2227.06 444.541 L2223.03 444.541 L2223.03 440.698 L2227.25 440.698 Q2230.7 440.698 2232.52 439.333 Q2234.35 437.944 2234.35 435.351 Q2234.35 432.689 2232.45 431.277 Q2230.58 429.842 2227.06 429.842 Q2225.14 429.842 2222.94 430.259 Q2220.74 430.675 2218.1 431.555 L2218.1 427.388 Q2220.77 426.648 2223.08 426.277 Q2225.42 425.907 2227.48 425.907 Q2232.8 425.907 2235.9 428.337 Q2239.01 430.745 2239.01 434.865 Q2239.01 437.736 2237.36 439.726 Q2235.72 441.694 2232.69 442.458 Z" fill="#000000" fill-rule="nonzero" fill-opacity="1" /><polyline clip-path="url(#clip250)" style="stroke:#000000; stroke-linecap:round; stroke-linejoin:round; stroke-width:4; stroke-opacity:1; fill:none" points="1460.25,398.692 1460.25,47.2441 "/>
<polyline clip-path="url(#clip250)" style="stroke:#000000; stroke-linecap:round; stroke-linejoin:round; stroke-width:4; stroke-opacity:1; fill:none" points="1460.25,388.745 1479.15,388.745 "/>
<polyline clip-path="url(#clip250)" style="stroke:#000000; stroke-linecap:round; stroke-linejoin:round; stroke-width:4; stroke-opacity:1; fill:none" points="1460.25,323.143 1479.15,323.143 "/>
<polyline clip-path="url(#clip250)" style="stroke:#000000; stroke-linecap:round; stroke-linejoin:round; stroke-width:4; stroke-opacity:1; fill:none" points="1460.25,257.54 1479.15,257.54 "/>
<polyline clip-path="url(#clip250)" style="stroke:#000000; stroke-linecap:round; stroke-linejoin:round; stroke-width:4; stroke-opacity:1; fill:none" points="1460.25,191.937 1479.15,191.937 "/>
<polyline clip-path="url(#clip250)" style="stroke:#000000; stroke-linecap:round; stroke-linejoin:round; stroke-width:4; stroke-opacity:1; fill:none" points="1460.25,126.334 1479.15,126.334 "/>
<polyline clip-path="url(#clip250)" style="stroke:#000000; stroke-linecap:round; stroke-linejoin:round; stroke-width:4; stroke-opacity:1; fill:none" points="1460.25,60.7316 1479.15,60.7316 "/>
<path clip-path="url(#clip250)" d="M1367.07 374.544 Q1363.46 374.544 1361.63 378.109 Q1359.83 381.65 1359.83 388.78 Q1359.83 395.886 1361.63 399.451 Q1363.46 402.993 1367.07 402.993 Q1370.71 402.993 1372.51 399.451 Q1374.34 395.886 1374.34 388.78 Q1374.34 381.65 1372.51 378.109 Q1370.71 374.544 1367.07 374.544 M1367.07 370.84 Q1372.88 370.84 1375.94 375.447 Q1379.02 380.03 1379.02 388.78 Q1379.02 397.507 1375.94 402.113 Q1372.88 406.697 1367.07 406.697 Q1361.26 406.697 1358.18 402.113 Q1355.13 397.507 1355.13 388.78 Q1355.13 380.03 1358.18 375.447 Q1361.26 370.84 1367.07 370.84 Z" fill="#000000" fill-rule="nonzero" fill-opacity="1" /><path clip-path="url(#clip250)" d="M1387.23 400.146 L1392.12 400.146 L1392.12 406.025 L1387.23 406.025 L1387.23 400.146 Z" fill="#000000" fill-rule="nonzero" fill-opacity="1" /><path clip-path="url(#clip250)" d="M1412.3 374.544 Q1408.69 374.544 1406.86 378.109 Q1405.06 381.65 1405.06 388.78 Q1405.06 395.886 1406.86 399.451 Q1408.69 402.993 1412.3 402.993 Q1415.94 402.993 1417.74 399.451 Q1419.57 395.886 1419.57 388.78 Q1419.57 381.65 1417.74 378.109 Q1415.94 374.544 1412.3 374.544 M1412.3 370.84 Q1418.11 370.84 1421.17 375.447 Q1424.25 380.03 1424.25 388.78 Q1424.25 397.507 1421.17 402.113 Q1418.11 406.697 1412.3 406.697 Q1406.49 406.697 1403.41 402.113 Q1400.36 397.507 1400.36 388.78 Q1400.36 380.03 1403.41 375.447 Q1406.49 370.84 1412.3 370.84 Z" fill="#000000" fill-rule="nonzero" fill-opacity="1" /><path clip-path="url(#clip250)" d="M1368.3 308.941 Q1364.69 308.941 1362.86 312.506 Q1361.05 316.048 1361.05 323.177 Q1361.05 330.284 1362.86 333.848 Q1364.69 337.39 1368.3 337.39 Q1371.93 337.39 1373.74 333.848 Q1375.57 330.284 1375.57 323.177 Q1375.57 316.048 1373.74 312.506 Q1371.93 308.941 1368.3 308.941 M1368.3 305.238 Q1374.11 305.238 1377.16 309.844 Q1380.24 314.427 1380.24 323.177 Q1380.24 331.904 1377.16 336.51 Q1374.11 341.094 1368.3 341.094 Q1362.49 341.094 1359.41 336.51 Q1356.35 331.904 1356.35 323.177 Q1356.35 314.427 1359.41 309.844 Q1362.49 305.238 1368.3 305.238 Z" fill="#000000" fill-rule="nonzero" fill-opacity="1" /><path clip-path="url(#clip250)" d="M1388.46 334.543 L1393.35 334.543 L1393.35 340.423 L1388.46 340.423 L1388.46 334.543 Z" fill="#000000" fill-rule="nonzero" fill-opacity="1" /><path clip-path="url(#clip250)" d="M1404.34 336.487 L1411.98 336.487 L1411.98 310.122 L1403.67 311.788 L1403.67 307.529 L1411.93 305.863 L1416.61 305.863 L1416.61 336.487 L1424.25 336.487 L1424.25 340.423 L1404.34 340.423 L1404.34 336.487 Z" fill="#000000" fill-rule="nonzero" fill-opacity="1" /><path clip-path="url(#clip250)" d="M1368.67 243.338 Q1365.06 243.338 1363.23 246.903 Q1361.42 250.445 1361.42 257.574 Q1361.42 264.681 1363.23 268.246 Q1365.06 271.787 1368.67 271.787 Q1372.3 271.787 1374.11 268.246 Q1375.94 264.681 1375.94 257.574 Q1375.94 250.445 1374.11 246.903 Q1372.3 243.338 1368.67 243.338 M1368.67 239.635 Q1374.48 239.635 1377.54 244.241 Q1380.61 248.825 1380.61 257.574 Q1380.61 266.301 1377.54 270.908 Q1374.48 275.491 1368.67 275.491 Q1362.86 275.491 1359.78 270.908 Q1356.73 266.301 1356.73 257.574 Q1356.73 248.825 1359.78 244.241 Q1362.86 239.635 1368.67 239.635 Z" fill="#000000" fill-rule="nonzero" fill-opacity="1" /><path clip-path="url(#clip250)" d="M1388.83 268.94 L1393.72 268.94 L1393.72 274.82 L1388.83 274.82 L1388.83 268.94 Z" fill="#000000" fill-rule="nonzero" fill-opacity="1" /><path clip-path="url(#clip250)" d="M1407.93 270.885 L1424.25 270.885 L1424.25 274.82 L1402.3 274.82 L1402.3 270.885 Q1404.97 268.13 1409.55 263.5 Q1414.16 258.848 1415.34 257.505 Q1417.58 254.982 1418.46 253.246 Q1419.36 251.487 1419.36 249.797 Q1419.36 247.042 1417.42 245.306 Q1415.5 243.57 1412.4 243.57 Q1410.2 243.57 1407.74 244.334 Q1405.31 245.098 1402.54 246.649 L1402.54 241.926 Q1405.36 240.792 1407.81 240.213 Q1410.27 239.635 1412.3 239.635 Q1417.67 239.635 1420.87 242.32 Q1424.06 245.005 1424.06 249.496 Q1424.06 251.625 1423.25 253.547 Q1422.47 255.445 1420.36 258.037 Q1419.78 258.709 1416.68 261.926 Q1413.58 265.121 1407.93 270.885 Z" fill="#000000" fill-rule="nonzero" fill-opacity="1" /><path clip-path="url(#clip250)" d="M1367.72 177.736 Q1364.11 177.736 1362.28 181.301 Q1360.48 184.842 1360.48 191.972 Q1360.48 199.078 1362.28 202.643 Q1364.11 206.185 1367.72 206.185 Q1371.35 206.185 1373.16 202.643 Q1374.99 199.078 1374.99 191.972 Q1374.99 184.842 1373.16 181.301 Q1371.35 177.736 1367.72 177.736 M1367.72 174.032 Q1373.53 174.032 1376.59 178.639 Q1379.66 183.222 1379.66 191.972 Q1379.66 200.699 1376.59 205.305 Q1373.53 209.888 1367.72 209.888 Q1361.91 209.888 1358.83 205.305 Q1355.78 200.699 1355.78 191.972 Q1355.78 183.222 1358.83 178.639 Q1361.91 174.032 1367.72 174.032 Z" fill="#000000" fill-rule="nonzero" fill-opacity="1" /><path clip-path="url(#clip250)" d="M1387.88 203.337 L1392.77 203.337 L1392.77 209.217 L1387.88 209.217 L1387.88 203.337 Z" fill="#000000" fill-rule="nonzero" fill-opacity="1" /><path clip-path="url(#clip250)" d="M1417.12 190.583 Q1420.47 191.3 1422.35 193.569 Q1424.25 195.837 1424.25 199.171 Q1424.25 204.287 1420.73 207.087 Q1417.21 209.888 1410.73 209.888 Q1408.55 209.888 1406.24 209.449 Q1403.95 209.032 1401.49 208.175 L1401.49 203.662 Q1403.44 204.796 1405.75 205.374 Q1408.07 205.953 1410.59 205.953 Q1414.99 205.953 1417.28 204.217 Q1419.6 202.481 1419.6 199.171 Q1419.6 196.115 1417.44 194.402 Q1415.31 192.666 1411.49 192.666 L1407.47 192.666 L1407.47 188.824 L1411.68 188.824 Q1415.13 188.824 1416.96 187.458 Q1418.79 186.069 1418.79 183.476 Q1418.79 180.814 1416.89 179.402 Q1415.01 177.967 1411.49 177.967 Q1409.57 177.967 1407.37 178.384 Q1405.17 178.801 1402.54 179.68 L1402.54 175.514 Q1405.2 174.773 1407.51 174.402 Q1409.85 174.032 1411.91 174.032 Q1417.23 174.032 1420.34 176.463 Q1423.44 178.87 1423.44 182.99 Q1423.44 185.861 1421.79 187.851 Q1420.15 189.819 1417.12 190.583 Z" fill="#000000" fill-rule="nonzero" fill-opacity="1" /><path clip-path="url(#clip250)" d="M1366.59 112.133 Q1362.98 112.133 1361.15 115.698 Q1359.34 119.239 1359.34 126.369 Q1359.34 133.475 1361.15 137.04 Q1362.98 140.582 1366.59 140.582 Q1370.22 140.582 1372.03 137.04 Q1373.85 133.475 1373.85 126.369 Q1373.85 119.239 1372.03 115.698 Q1370.22 112.133 1366.59 112.133 M1366.59 108.429 Q1372.4 108.429 1375.45 113.036 Q1378.53 117.619 1378.53 126.369 Q1378.53 135.096 1375.45 139.702 Q1372.4 144.286 1366.59 144.286 Q1360.78 144.286 1357.7 139.702 Q1354.64 135.096 1354.64 126.369 Q1354.64 117.619 1357.7 113.036 Q1360.78 108.429 1366.59 108.429 Z" fill="#000000" fill-rule="nonzero" fill-opacity="1" /><path clip-path="url(#clip250)" d="M1386.75 137.735 L1391.63 137.735 L1391.63 143.614 L1386.75 143.614 L1386.75 137.735 Z" fill="#000000" fill-rule="nonzero" fill-opacity="1" /><path clip-path="url(#clip250)" d="M1414.66 113.128 L1402.86 131.577 L1414.66 131.577 L1414.66 113.128 M1413.44 109.054 L1419.32 109.054 L1419.32 131.577 L1424.25 131.577 L1424.25 135.466 L1419.32 135.466 L1419.32 143.614 L1414.66 143.614 L1414.66 135.466 L1399.06 135.466 L1399.06 130.952 L1413.44 109.054 Z" fill="#000000" fill-rule="nonzero" fill-opacity="1" /><path clip-path="url(#clip250)" d="M1368.07 46.5303 Q1364.46 46.5303 1362.63 50.0951 Q1360.82 53.6367 1360.82 60.7663 Q1360.82 67.8728 1362.63 71.4376 Q1364.46 74.9792 1368.07 74.9792 Q1371.7 74.9792 1373.51 71.4376 Q1375.34 67.8728 1375.34 60.7663 Q1375.34 53.6367 1373.51 50.0951 Q1371.7 46.5303 1368.07 46.5303 M1368.07 42.8266 Q1373.88 42.8266 1376.93 47.4331 Q1380.01 52.0164 1380.01 60.7663 Q1380.01 69.4931 1376.93 74.0996 Q1373.88 78.6829 1368.07 78.6829 Q1362.26 78.6829 1359.18 74.0996 Q1356.12 69.4931 1356.12 60.7663 Q1356.12 52.0164 1359.18 47.4331 Q1362.26 42.8266 1368.07 42.8266 Z" fill="#000000" fill-rule="nonzero" fill-opacity="1" /><path clip-path="url(#clip250)" d="M1388.23 72.132 L1393.11 72.132 L1393.11 78.0116 L1388.23 78.0116 L1388.23 72.132 Z" fill="#000000" fill-rule="nonzero" fill-opacity="1" /><path clip-path="url(#clip250)" d="M1403.35 43.4516 L1421.7 43.4516 L1421.7 47.3868 L1407.63 47.3868 L1407.63 55.8589 Q1408.65 55.5117 1409.66 55.3497 Q1410.68 55.1645 1411.7 55.1645 Q1417.49 55.1645 1420.87 58.3358 Q1424.25 61.5071 1424.25 66.9237 Q1424.25 72.5024 1420.78 75.6042 Q1417.3 78.6829 1410.98 78.6829 Q1408.81 78.6829 1406.54 78.3125 Q1404.29 77.9422 1401.89 77.2014 L1401.89 72.5024 Q1403.97 73.6366 1406.19 74.1922 Q1408.41 74.7477 1410.89 74.7477 Q1414.9 74.7477 1417.23 72.6413 Q1419.57 70.5348 1419.57 66.9237 Q1419.57 63.3126 1417.23 61.2061 Q1414.9 59.0997 1410.89 59.0997 Q1409.02 59.0997 1407.14 59.5163 Q1405.29 59.933 1403.35 60.8126 L1403.35 43.4516 Z" fill="#000000" fill-rule="nonzero" fill-opacity="1" /><path clip-path="url(#clip250)" d="M1279.82 298.084 Q1285.23 298.084 1291.31 299.823 Q1297.37 301.53 1302.26 304.235 Q1307.13 306.941 1310.35 310.483 Q1313.53 314.026 1313.53 317.408 Q1313.53 319.565 1312.34 321.176 Q1311.12 322.754 1309.09 323.623 Q1307.03 324.493 1304.77 324.912 Q1302.49 325.33 1300.01 325.33 Q1296.3 325.33 1292.28 324.525 Q1288.22 323.72 1284.55 322.367 Q1280.85 321.015 1277.5 319.115 Q1274.11 317.214 1271.67 315.121 Q1269.19 312.995 1267.74 310.612 Q1266.29 308.229 1266.29 306.007 Q1266.29 304.396 1267 303.108 Q1267.67 301.788 1268.87 300.95 Q1270.02 300.113 1271.41 299.533 Q1272.79 298.921 1274.4 298.632 Q1275.98 298.342 1277.3 298.213 Q1278.59 298.084 1279.82 298.084 M1275.73 302.432 Q1274.08 302.432 1272.86 302.561 Q1271.6 302.69 1270.35 303.044 Q1269.09 303.398 1268.41 304.171 Q1267.74 304.912 1267.74 306.071 Q1267.74 309.453 1274.66 313.253 Q1276.82 314.477 1279.75 315.572 Q1282.68 316.667 1284.07 317.053 Q1285.45 317.44 1288.86 318.342 L1288.86 304.558 Q1280.07 302.432 1275.73 302.432 M1290.96 305.137 L1290.96 318.857 Q1299.01 320.983 1304.03 320.983 Q1308.41 320.983 1310.25 320.081 Q1312.05 319.147 1312.05 317.408 Q1312.05 315.411 1310.06 313.543 Q1308.03 311.675 1304.36 309.775 Q1299.59 307.263 1290.96 305.137 Z" fill="#000000" fill-rule="nonzero" fill-opacity="1" /><path clip-path="url(#clip250)" d="M1263.33 253.776 Q1270.65 258.041 1277.81 260.11 Q1284.98 262.179 1292.33 262.179 Q1299.68 262.179 1306.91 260.11 Q1314.1 258.009 1321.39 253.776 L1321.39 258.869 Q1313.91 263.643 1306.68 266.03 Q1299.46 268.386 1292.33 268.386 Q1285.23 268.386 1278.04 266.03 Q1270.84 263.675 1263.33 258.869 L1263.33 253.776 Z" fill="#000000" fill-rule="nonzero" fill-opacity="1" /><path clip-path="url(#clip250)" d="M1282.62 221.757 Q1282.05 222.743 1281.79 223.921 Q1281.51 225.067 1281.51 226.467 Q1281.51 231.433 1284.75 234.106 Q1287.97 236.748 1294.02 236.748 L1312.79 236.748 L1312.79 242.636 L1277.15 242.636 L1277.15 236.748 L1282.68 236.748 Q1279.44 234.902 1277.88 231.942 Q1276.29 228.982 1276.29 224.749 Q1276.29 224.144 1276.38 223.412 Q1276.45 222.68 1276.6 221.789 L1282.62 221.757 Z" fill="#000000" fill-rule="nonzero" fill-opacity="1" /><path clip-path="url(#clip250)" d="M1294.87 199.413 Q1294.87 206.511 1296.5 209.248 Q1298.12 211.985 1302.04 211.985 Q1305.16 211.985 1307 209.948 Q1308.82 207.879 1308.82 204.347 Q1308.82 199.477 1305.38 196.549 Q1301.91 193.588 1296.18 193.588 L1294.87 193.588 L1294.87 199.413 M1292.46 187.732 L1312.79 187.732 L1312.79 193.588 L1307.38 193.588 Q1310.63 195.594 1312.19 198.586 Q1313.72 201.577 1313.72 205.906 Q1313.72 211.381 1310.66 214.627 Q1307.57 217.842 1302.42 217.842 Q1296.4 217.842 1293.35 213.831 Q1290.29 209.789 1290.29 201.8 L1290.29 193.588 L1289.72 193.588 Q1285.68 193.588 1283.48 196.262 Q1281.25 198.904 1281.25 203.71 Q1281.25 206.766 1281.98 209.662 Q1282.72 212.558 1284.18 215.232 L1278.77 215.232 Q1277.53 212.017 1276.92 208.993 Q1276.29 205.97 1276.29 203.105 Q1276.29 195.371 1280.3 191.551 Q1284.31 187.732 1292.46 187.732 Z" fill="#000000" fill-rule="nonzero" fill-opacity="1" /><path clip-path="url(#clip250)" d="M1282.56 152.211 L1263.27 152.211 L1263.27 146.355 L1312.79 146.355 L1312.79 152.211 L1307.45 152.211 Q1310.63 154.057 1312.19 156.89 Q1313.72 159.691 1313.72 163.638 Q1313.72 170.099 1308.56 174.173 Q1303.4 178.215 1295 178.215 Q1286.6 178.215 1281.44 174.173 Q1276.29 170.099 1276.29 163.638 Q1276.29 159.691 1277.85 156.89 Q1279.37 154.057 1282.56 152.211 M1295 172.168 Q1301.46 172.168 1305.16 169.526 Q1308.82 166.853 1308.82 162.206 Q1308.82 157.559 1305.16 154.885 Q1301.46 152.211 1295 152.211 Q1288.54 152.211 1284.88 154.885 Q1281.19 157.559 1281.19 162.206 Q1281.19 166.853 1284.88 169.526 Q1288.54 172.168 1295 172.168 Z" fill="#000000" fill-rule="nonzero" fill-opacity="1" /><path clip-path="url(#clip250)" d="M1263.33 135.215 L1263.33 130.122 Q1270.84 125.348 1278.04 122.993 Q1285.23 120.606 1292.33 120.606 Q1299.46 120.606 1306.68 122.993 Q1313.91 125.348 1321.39 130.122 L1321.39 135.215 Q1314.1 130.982 1306.91 128.913 Q1299.68 126.812 1292.33 126.812 Q1284.98 126.812 1277.81 128.913 Q1270.65 130.982 1263.33 135.215 Z" fill="#000000" fill-rule="nonzero" fill-opacity="1" /><polyline clip-path="url(#clip253)" style="stroke:#009af9; stroke-linecap:round; stroke-linejoin:round; stroke-width:4; stroke-opacity:1; fill:none" points="1485.51,388.745 1510.27,360.258 1535.04,295.634 1559.8,221.217 1584.57,154.621 1609.33,104.773 1634.09,73.8057 1658.86,59.5701 1683.62,57.8698 1708.39,64.0575 1733.15,74.0004 1757.92,84.556 1782.68,93.7022 1807.44,100.439 1832.21,104.562 1856.97,106.392 1881.74,106.517 1906.5,105.585 1931.27,104.172 1956.03,102.711 1980.8,101.471 2005.56,100.578 2030.32,100.049 2055.09,99.831 2079.85,99.8393 2104.62,99.9834 2129.38,100.185 2154.15,100.387 2178.91,100.555 2203.67,100.674 2228.44,100.741 2253.2,100.767 2277.97,100.763 2302.73,100.741 2327.5,100.712 "/>
<polyline clip-path="url(#clip253)" style="stroke:#e26f46; stroke-linecap:round; stroke-linejoin:round; stroke-width:3; stroke-opacity:1; fill:none" stroke-dasharray="12, 6, 2, 6" points="1485.51,388.265 1510.27,346.738 1535.04,294.375 1559.8,220.812 1584.57,153.484 1609.33,107.086 1634.09,73.3529 1658.86,57.1907 1683.62,62.7629 1708.39,66.13 1733.15,77.4299 1757.92,92.16 1782.68,85.7314 1807.44,91.6883 1832.21,108.075 1856.97,115.577 1881.74,112.468 1906.5,107.028 1931.27,114.483 1956.03,98.5532 1980.8,99.7345 2005.56,105.8 2030.32,99.8881 2055.09,95.4922 2079.85,104.755 2104.62,105.359 2129.38,98.9855 2154.15,93.8754 2178.91,92.821 2203.67,94.7489 2228.44,98.744 2253.2,92.5468 2277.97,109.065 2302.73,97.5341 2327.5,99.079 "/>
<path clip-path="url(#clip250)" d="M2204.93 386.977 L2323.01 386.977 L2323.01 231.457 L2204.93 231.457  Z" fill="#ffffff" fill-rule="evenodd" fill-opacity="1"/>
<polyline clip-path="url(#clip250)" style="stroke:#000000; stroke-linecap:round; stroke-linejoin:round; stroke-width:4; stroke-opacity:1; fill:none" points="2204.93,386.977 2323.01,386.977 2323.01,231.457 2204.93,231.457 2204.93,386.977 "/>
<polyline clip-path="url(#clip250)" style="stroke:#009af9; stroke-linecap:round; stroke-linejoin:round; stroke-width:4; stroke-opacity:1; fill:none" points="2214.84,283.297 2274.34,283.297 "/>
<path clip-path="url(#clip250)" d="M2311.27 293.836 L2306 293.695 L2300.23 293.836 L2300.23 291.587 L2302.11 291.587 L2296.84 285.357 L2292.18 290.58 L2291.85 291.049 Q2291.85 291.26 2292.39 291.423 Q2292.95 291.587 2293.61 291.587 L2293.61 293.836 L2288.66 293.695 L2284.26 293.836 L2284.26 291.587 Q2285.74 291.587 2286.41 291.564 Q2287.12 291.517 2287.91 291.306 Q2288.71 291.096 2289.11 290.674 L2295.39 283.624 L2287.91 274.794 L2284.49 274.794 L2284.49 272.545 L2289.79 272.686 L2295.57 272.545 L2295.57 274.794 L2293.65 274.794 L2298.36 280.298 L2302.39 275.801 Q2302.41 275.777 2302.79 275.215 Q2302.04 274.794 2300.96 274.794 L2300.96 272.545 L2305.9 272.686 L2310.31 272.545 L2310.31 274.794 Q2308.38 274.794 2307.38 274.934 Q2306.39 275.051 2306.09 275.215 Q2305.81 275.379 2305.41 275.801 L2299.81 282.031 L2307.87 291.587 L2311.27 291.587 L2311.27 293.836 Z" fill="#000000" fill-rule="nonzero" fill-opacity="1" /><polyline clip-path="url(#clip250)" style="stroke:#e26f46; stroke-linecap:round; stroke-linejoin:round; stroke-width:3; stroke-opacity:1; fill:none" stroke-dasharray="12, 6, 2, 6" points="2214.84,335.137 2274.34,335.137 "/>
<path clip-path="url(#clip250)" d="M2306.85 323.615 L2306.44 324.287 Q2303.89 323.189 2300.73 321.434 Q2297.57 323.189 2295.02 324.287 L2294.63 323.615 Q2297.4 321.205 2300.73 319.352 Q2304.09 321.221 2306.85 323.615 Z" fill="#000000" fill-rule="nonzero" fill-opacity="1" /><path clip-path="url(#clip250)" d="M2311.27 350.681 L2306 350.54 L2300.23 350.681 L2300.23 348.432 L2302.11 348.432 L2296.84 342.202 L2292.18 347.425 L2291.85 347.893 Q2291.85 348.104 2292.39 348.268 Q2292.95 348.432 2293.61 348.432 L2293.61 350.681 L2288.66 350.54 L2284.26 350.681 L2284.26 348.432 Q2285.74 348.432 2286.41 348.409 Q2287.12 348.362 2287.91 348.151 Q2288.71 347.94 2289.11 347.519 L2295.39 340.468 L2287.91 331.638 L2284.49 331.638 L2284.49 329.39 L2289.79 329.53 L2295.57 329.39 L2295.57 331.638 L2293.65 331.638 L2298.36 337.142 L2302.39 332.645 Q2302.41 332.622 2302.79 332.06 Q2302.04 331.638 2300.96 331.638 L2300.96 329.39 L2305.9 329.53 L2310.31 329.39 L2310.31 331.638 Q2308.38 331.638 2307.38 331.779 Q2306.39 331.896 2306.09 332.06 Q2305.81 332.224 2305.41 332.645 L2299.81 338.876 L2307.87 348.432 L2311.27 348.432 L2311.27 350.681 Z" fill="#000000" fill-rule="nonzero" fill-opacity="1" /><path clip-path="url(#clip250)" d="M1460.25 910.936 L2352.76 910.936 L2352.76 559.488 L1460.25 559.488  Z" fill="#ffffff" fill-rule="evenodd" fill-opacity="1"/>
<defs>
  <clipPath id="clip254">
    <rect x="1460" y="559" width="894" height="352"/>
  </clipPath>
</defs>
<polyline clip-path="url(#clip254)" style="stroke:#000000; stroke-linecap:round; stroke-linejoin:round; stroke-width:2; stroke-opacity:0.1; fill:none" points="1485.51,910.936 1485.51,559.488 "/>
<polyline clip-path="url(#clip254)" style="stroke:#000000; stroke-linecap:round; stroke-linejoin:round; stroke-width:2; stroke-opacity:0.1; fill:none" points="1733.15,910.936 1733.15,559.488 "/>
<polyline clip-path="url(#clip254)" style="stroke:#000000; stroke-linecap:round; stroke-linejoin:round; stroke-width:2; stroke-opacity:0.1; fill:none" points="1980.8,910.936 1980.8,559.488 "/>
<polyline clip-path="url(#clip254)" style="stroke:#000000; stroke-linecap:round; stroke-linejoin:round; stroke-width:2; stroke-opacity:0.1; fill:none" points="2228.44,910.936 2228.44,559.488 "/>
<polyline clip-path="url(#clip254)" style="stroke:#000000; stroke-linecap:round; stroke-linejoin:round; stroke-width:2; stroke-opacity:0.1; fill:none" points="1460.25,844.959 2352.76,844.959 "/>
<polyline clip-path="url(#clip254)" style="stroke:#000000; stroke-linecap:round; stroke-linejoin:round; stroke-width:2; stroke-opacity:0.1; fill:none" points="1460.25,770.934 2352.76,770.934 "/>
<polyline clip-path="url(#clip254)" style="stroke:#000000; stroke-linecap:round; stroke-linejoin:round; stroke-width:2; stroke-opacity:0.1; fill:none" points="1460.25,696.909 2352.76,696.909 "/>
<polyline clip-path="url(#clip254)" style="stroke:#000000; stroke-linecap:round; stroke-linejoin:round; stroke-width:2; stroke-opacity:0.1; fill:none" points="1460.25,622.884 2352.76,622.884 "/>
<polyline clip-path="url(#clip250)" style="stroke:#000000; stroke-linecap:round; stroke-linejoin:round; stroke-width:4; stroke-opacity:1; fill:none" points="1460.25,910.936 2352.76,910.936 "/>
<polyline clip-path="url(#clip250)" style="stroke:#000000; stroke-linecap:round; stroke-linejoin:round; stroke-width:4; stroke-opacity:1; fill:none" points="1485.51,910.936 1485.51,892.038 "/>
<polyline clip-path="url(#clip250)" style="stroke:#000000; stroke-linecap:round; stroke-linejoin:round; stroke-width:4; stroke-opacity:1; fill:none" points="1733.15,910.936 1733.15,892.038 "/>
<polyline clip-path="url(#clip250)" style="stroke:#000000; stroke-linecap:round; stroke-linejoin:round; stroke-width:4; stroke-opacity:1; fill:none" points="1980.8,910.936 1980.8,892.038 "/>
<polyline clip-path="url(#clip250)" style="stroke:#000000; stroke-linecap:round; stroke-linejoin:round; stroke-width:4; stroke-opacity:1; fill:none" points="2228.44,910.936 2228.44,892.038 "/>
<path clip-path="url(#clip250)" d="M1485.51 941.855 Q1481.9 941.855 1480.07 945.419 Q1478.26 948.961 1478.26 956.091 Q1478.26 963.197 1480.07 966.762 Q1481.9 970.303 1485.51 970.303 Q1489.14 970.303 1490.95 966.762 Q1492.78 963.197 1492.78 956.091 Q1492.78 948.961 1490.95 945.419 Q1489.14 941.855 1485.51 941.855 M1485.51 938.151 Q1491.32 938.151 1494.37 942.757 Q1497.45 947.341 1497.45 956.091 Q1497.45 964.817 1494.37 969.424 Q1491.32 974.007 1485.51 974.007 Q1479.7 974.007 1476.62 969.424 Q1473.56 964.817 1473.56 956.091 Q1473.56 947.341 1476.62 942.757 Q1479.7 938.151 1485.51 938.151 Z" fill="#000000" fill-rule="nonzero" fill-opacity="1" /><path clip-path="url(#clip250)" d="M1723.53 969.401 L1731.17 969.401 L1731.17 943.035 L1722.86 944.702 L1722.86 940.443 L1731.13 938.776 L1735.8 938.776 L1735.8 969.401 L1743.44 969.401 L1743.44 973.336 L1723.53 973.336 L1723.53 969.401 Z" fill="#000000" fill-rule="nonzero" fill-opacity="1" /><path clip-path="url(#clip250)" d="M1975.45 969.401 L1991.77 969.401 L1991.77 973.336 L1969.82 973.336 L1969.82 969.401 Q1972.48 966.646 1977.07 962.016 Q1981.67 957.364 1982.86 956.021 Q1985.1 953.498 1985.98 951.762 Q1986.88 950.003 1986.88 948.313 Q1986.88 945.558 1984.94 943.822 Q1983.02 942.086 1979.92 942.086 Q1977.72 942.086 1975.26 942.85 Q1972.83 943.614 1970.05 945.165 L1970.05 940.443 Q1972.88 939.308 1975.33 938.73 Q1977.79 938.151 1979.82 938.151 Q1985.19 938.151 1988.39 940.836 Q1991.58 943.521 1991.58 948.012 Q1991.58 950.142 1990.77 952.063 Q1989.98 953.961 1987.88 956.554 Q1987.3 957.225 1984.2 960.442 Q1981.1 963.637 1975.45 969.401 Z" fill="#000000" fill-rule="nonzero" fill-opacity="1" /><path clip-path="url(#clip250)" d="M2232.69 954.702 Q2236.04 955.419 2237.92 957.688 Q2239.82 959.956 2239.82 963.29 Q2239.82 968.405 2236.3 971.206 Q2232.78 974.007 2226.3 974.007 Q2224.12 974.007 2221.81 973.567 Q2219.52 973.151 2217.06 972.294 L2217.06 967.78 Q2219.01 968.915 2221.32 969.493 Q2223.64 970.072 2226.16 970.072 Q2230.56 970.072 2232.85 968.336 Q2235.16 966.6 2235.16 963.29 Q2235.16 960.234 2233.01 958.521 Q2230.88 956.785 2227.06 956.785 L2223.03 956.785 L2223.03 952.942 L2227.25 952.942 Q2230.7 952.942 2232.52 951.577 Q2234.35 950.188 2234.35 947.595 Q2234.35 944.933 2232.45 943.521 Q2230.58 942.086 2227.06 942.086 Q2225.14 942.086 2222.94 942.503 Q2220.74 942.919 2218.1 943.799 L2218.1 939.632 Q2220.77 938.892 2223.08 938.521 Q2225.42 938.151 2227.48 938.151 Q2232.8 938.151 2235.9 940.581 Q2239.01 942.989 2239.01 947.109 Q2239.01 949.979 2237.36 951.97 Q2235.72 953.938 2232.69 954.702 Z" fill="#000000" fill-rule="nonzero" fill-opacity="1" /><polyline clip-path="url(#clip250)" style="stroke:#000000; stroke-linecap:round; stroke-linejoin:round; stroke-width:4; stroke-opacity:1; fill:none" points="1460.25,910.936 1460.25,559.488 "/>
<polyline clip-path="url(#clip250)" style="stroke:#000000; stroke-linecap:round; stroke-linejoin:round; stroke-width:4; stroke-opacity:1; fill:none" points="1460.25,844.959 1479.15,844.959 "/>
<polyline clip-path="url(#clip250)" style="stroke:#000000; stroke-linecap:round; stroke-linejoin:round; stroke-width:4; stroke-opacity:1; fill:none" points="1460.25,770.934 1479.15,770.934 "/>
<polyline clip-path="url(#clip250)" style="stroke:#000000; stroke-linecap:round; stroke-linejoin:round; stroke-width:4; stroke-opacity:1; fill:none" points="1460.25,696.909 1479.15,696.909 "/>
<polyline clip-path="url(#clip250)" style="stroke:#000000; stroke-linecap:round; stroke-linejoin:round; stroke-width:4; stroke-opacity:1; fill:none" points="1460.25,622.884 1479.15,622.884 "/>
<path clip-path="url(#clip250)" d="M1367.07 830.757 Q1363.46 830.757 1361.63 834.322 Q1359.83 837.864 1359.83 844.993 Q1359.83 852.1 1361.63 855.664 Q1363.46 859.206 1367.07 859.206 Q1370.71 859.206 1372.51 855.664 Q1374.34 852.1 1374.34 844.993 Q1374.34 837.864 1372.51 834.322 Q1370.71 830.757 1367.07 830.757 M1367.07 827.054 Q1372.88 827.054 1375.94 831.66 Q1379.02 836.243 1379.02 844.993 Q1379.02 853.72 1375.94 858.327 Q1372.88 862.91 1367.07 862.91 Q1361.26 862.91 1358.18 858.327 Q1355.13 853.72 1355.13 844.993 Q1355.13 836.243 1358.18 831.66 Q1361.26 827.054 1367.07 827.054 Z" fill="#000000" fill-rule="nonzero" fill-opacity="1" /><path clip-path="url(#clip250)" d="M1387.23 856.359 L1392.12 856.359 L1392.12 862.239 L1387.23 862.239 L1387.23 856.359 Z" fill="#000000" fill-rule="nonzero" fill-opacity="1" /><path clip-path="url(#clip250)" d="M1412.3 830.757 Q1408.69 830.757 1406.86 834.322 Q1405.06 837.864 1405.06 844.993 Q1405.06 852.1 1406.86 855.664 Q1408.69 859.206 1412.3 859.206 Q1415.94 859.206 1417.74 855.664 Q1419.57 852.1 1419.57 844.993 Q1419.57 837.864 1417.74 834.322 Q1415.94 830.757 1412.3 830.757 M1412.3 827.054 Q1418.11 827.054 1421.17 831.66 Q1424.25 836.243 1424.25 844.993 Q1424.25 853.72 1421.17 858.327 Q1418.11 862.91 1412.3 862.91 Q1406.49 862.91 1403.41 858.327 Q1400.36 853.72 1400.36 844.993 Q1400.36 836.243 1403.41 831.66 Q1406.49 827.054 1412.3 827.054 Z" fill="#000000" fill-rule="nonzero" fill-opacity="1" /><path clip-path="url(#clip250)" d="M1367.72 756.732 Q1364.11 756.732 1362.28 760.297 Q1360.48 763.839 1360.48 770.969 Q1360.48 778.075 1362.28 781.64 Q1364.11 785.181 1367.72 785.181 Q1371.35 785.181 1373.16 781.64 Q1374.99 778.075 1374.99 770.969 Q1374.99 763.839 1373.16 760.297 Q1371.35 756.732 1367.72 756.732 M1367.72 753.029 Q1373.53 753.029 1376.59 757.635 Q1379.66 762.219 1379.66 770.969 Q1379.66 779.695 1376.59 784.302 Q1373.53 788.885 1367.72 788.885 Q1361.91 788.885 1358.83 784.302 Q1355.78 779.695 1355.78 770.969 Q1355.78 762.219 1358.83 757.635 Q1361.91 753.029 1367.72 753.029 Z" fill="#000000" fill-rule="nonzero" fill-opacity="1" /><path clip-path="url(#clip250)" d="M1387.88 782.334 L1392.77 782.334 L1392.77 788.214 L1387.88 788.214 L1387.88 782.334 Z" fill="#000000" fill-rule="nonzero" fill-opacity="1" /><path clip-path="url(#clip250)" d="M1417.12 769.58 Q1420.47 770.297 1422.35 772.566 Q1424.25 774.834 1424.25 778.168 Q1424.25 783.283 1420.73 786.084 Q1417.21 788.885 1410.73 788.885 Q1408.55 788.885 1406.24 788.445 Q1403.95 788.029 1401.49 787.172 L1401.49 782.658 Q1403.44 783.793 1405.75 784.371 Q1408.07 784.95 1410.59 784.95 Q1414.99 784.95 1417.28 783.214 Q1419.6 781.478 1419.6 778.168 Q1419.6 775.112 1417.44 773.399 Q1415.31 771.663 1411.49 771.663 L1407.47 771.663 L1407.47 767.82 L1411.68 767.82 Q1415.13 767.82 1416.96 766.455 Q1418.79 765.066 1418.79 762.473 Q1418.79 759.811 1416.89 758.399 Q1415.01 756.964 1411.49 756.964 Q1409.57 756.964 1407.37 757.381 Q1405.17 757.797 1402.54 758.677 L1402.54 754.51 Q1405.2 753.77 1407.51 753.399 Q1409.85 753.029 1411.91 753.029 Q1417.23 753.029 1420.34 755.459 Q1423.44 757.867 1423.44 761.987 Q1423.44 764.857 1421.79 766.848 Q1420.15 768.816 1417.12 769.58 Z" fill="#000000" fill-rule="nonzero" fill-opacity="1" /><path clip-path="url(#clip250)" d="M1366.91 682.708 Q1363.3 682.708 1361.47 686.273 Q1359.67 689.814 1359.67 696.944 Q1359.67 704.05 1361.47 707.615 Q1363.3 711.157 1366.91 711.157 Q1370.54 711.157 1372.35 707.615 Q1374.18 704.05 1374.18 696.944 Q1374.18 689.814 1372.35 686.273 Q1370.54 682.708 1366.91 682.708 M1366.91 679.004 Q1372.72 679.004 1375.78 683.611 Q1378.85 688.194 1378.85 696.944 Q1378.85 705.671 1375.78 710.277 Q1372.72 714.86 1366.91 714.86 Q1361.1 714.86 1358.02 710.277 Q1354.97 705.671 1354.97 696.944 Q1354.97 688.194 1358.02 683.611 Q1361.1 679.004 1366.91 679.004 Z" fill="#000000" fill-rule="nonzero" fill-opacity="1" /><path clip-path="url(#clip250)" d="M1387.07 708.309 L1391.96 708.309 L1391.96 714.189 L1387.07 714.189 L1387.07 708.309 Z" fill="#000000" fill-rule="nonzero" fill-opacity="1" /><path clip-path="url(#clip250)" d="M1412.72 695.046 Q1409.57 695.046 1407.72 697.198 Q1405.89 699.351 1405.89 703.101 Q1405.89 706.828 1407.72 709.004 Q1409.57 711.157 1412.72 711.157 Q1415.87 711.157 1417.7 709.004 Q1419.55 706.828 1419.55 703.101 Q1419.55 699.351 1417.7 697.198 Q1415.87 695.046 1412.72 695.046 M1422 680.393 L1422 684.652 Q1420.24 683.819 1418.44 683.379 Q1416.66 682.939 1414.9 682.939 Q1410.27 682.939 1407.81 686.064 Q1405.38 689.189 1405.04 695.509 Q1406.4 693.495 1408.46 692.43 Q1410.52 691.342 1413 691.342 Q1418.21 691.342 1421.22 694.513 Q1424.25 697.661 1424.25 703.101 Q1424.25 708.425 1421.1 711.643 Q1417.95 714.86 1412.72 714.86 Q1406.72 714.86 1403.55 710.277 Q1400.38 705.671 1400.38 696.944 Q1400.38 688.749 1404.27 683.888 Q1408.16 679.004 1414.71 679.004 Q1416.47 679.004 1418.25 679.351 Q1420.06 679.699 1422 680.393 Z" fill="#000000" fill-rule="nonzero" fill-opacity="1" /><path clip-path="url(#clip250)" d="M1367.26 608.683 Q1363.65 608.683 1361.82 612.248 Q1360.01 615.789 1360.01 622.919 Q1360.01 630.025 1361.82 633.59 Q1363.65 637.132 1367.26 637.132 Q1370.89 637.132 1372.7 633.59 Q1374.53 630.025 1374.53 622.919 Q1374.53 615.789 1372.7 612.248 Q1370.89 608.683 1367.26 608.683 M1367.26 604.979 Q1373.07 604.979 1376.12 609.586 Q1379.2 614.169 1379.2 622.919 Q1379.2 631.646 1376.12 636.252 Q1373.07 640.836 1367.26 640.836 Q1361.45 640.836 1358.37 636.252 Q1355.31 631.646 1355.31 622.919 Q1355.31 614.169 1358.37 609.586 Q1361.45 604.979 1367.26 604.979 Z" fill="#000000" fill-rule="nonzero" fill-opacity="1" /><path clip-path="url(#clip250)" d="M1387.42 634.285 L1392.3 634.285 L1392.3 640.164 L1387.42 640.164 L1387.42 634.285 Z" fill="#000000" fill-rule="nonzero" fill-opacity="1" /><path clip-path="url(#clip250)" d="M1402.63 639.447 L1402.63 635.188 Q1404.39 636.021 1406.19 636.461 Q1408 636.9 1409.73 636.9 Q1414.36 636.9 1416.79 633.799 Q1419.25 630.674 1419.6 624.331 Q1418.25 626.322 1416.19 627.387 Q1414.13 628.451 1411.63 628.451 Q1406.45 628.451 1403.41 625.326 Q1400.41 622.178 1400.41 616.739 Q1400.41 611.414 1403.55 608.197 Q1406.7 604.979 1411.93 604.979 Q1417.93 604.979 1421.08 609.586 Q1424.25 614.169 1424.25 622.919 Q1424.25 631.09 1420.36 635.975 Q1416.49 640.836 1409.94 640.836 Q1408.18 640.836 1406.38 640.488 Q1404.57 640.141 1402.63 639.447 M1411.93 624.794 Q1415.08 624.794 1416.91 622.641 Q1418.76 620.489 1418.76 616.739 Q1418.76 613.012 1416.91 610.859 Q1415.08 608.683 1411.93 608.683 Q1408.79 608.683 1406.93 610.859 Q1405.1 613.012 1405.1 616.739 Q1405.1 620.489 1406.93 622.641 Q1408.79 624.794 1411.93 624.794 Z" fill="#000000" fill-rule="nonzero" fill-opacity="1" /><path clip-path="url(#clip250)" d="M1279.98 831.559 Q1282.98 831.559 1288.78 833.072 Q1291.29 833.684 1293.57 834.522 Q1295.83 835.327 1298.02 836.518 Q1300.21 837.71 1301.79 839.095 Q1303.33 840.48 1304.3 842.283 Q1305.27 844.087 1305.27 846.084 Q1305.27 849.24 1303.4 851.108 Q1301.5 852.943 1298.24 853.523 Q1305.27 857.839 1305.27 863.604 Q1305.27 867.178 1302.72 868.853 Q1300.14 870.528 1295.83 870.528 Q1292.19 870.528 1288.42 869.562 Q1281.27 867.726 1276.28 864.151 Q1275.7 863.668 1275.7 862.959 Q1275.7 862.541 1275.83 862.347 Q1276.18 861.768 1276.76 861.768 Q1277.18 861.768 1277.6 862.09 Q1280.72 864.344 1283.4 865.826 Q1286.07 867.307 1288.78 867.984 Q1291.09 868.499 1293.06 868.499 Q1296.38 868.499 1298.44 867.082 Q1300.5 865.632 1300.5 862.766 Q1300.5 860.125 1298.86 857.806 Q1297.18 855.488 1294.38 853.781 Q1291.32 853.684 1288.42 852.943 Q1285.33 852.267 1285.33 850.689 Q1285.33 849.433 1287.04 849.433 Q1287.62 849.433 1288.78 849.691 Q1291.84 850.399 1294.57 851.687 Q1297.25 851.236 1298.89 849.562 Q1300.5 847.887 1300.5 845.214 Q1300.5 842.734 1298.7 840.544 Q1296.89 838.322 1294.25 836.905 Q1291.58 835.456 1288.42 834.65 Q1287.36 834.393 1286.01 834.393 Q1282.4 834.393 1280.18 836.905 Q1279.47 837.613 1278.53 837.613 Q1277.44 837.613 1276.44 836.712 Q1275.38 835.649 1275.38 834.393 Q1275.38 833.459 1275.96 832.879 Q1277.12 831.559 1279.98 831.559 Z" fill="#000000" fill-rule="nonzero" fill-opacity="1" /><path clip-path="url(#clip250)" d="M1255.06 788.989 Q1262.38 793.255 1269.54 795.323 Q1276.71 797.392 1284.06 797.392 Q1291.41 797.392 1298.64 795.323 Q1305.83 793.223 1313.12 788.989 L1313.12 794.082 Q1305.64 798.856 1298.41 801.243 Q1291.19 803.599 1284.06 803.599 Q1276.96 803.599 1269.77 801.243 Q1262.57 798.888 1255.06 794.082 L1255.06 788.989 Z" fill="#000000" fill-rule="nonzero" fill-opacity="1" /><path clip-path="url(#clip250)" d="M1274.35 756.97 Q1273.78 757.957 1273.52 759.134 Q1273.24 760.28 1273.24 761.681 Q1273.24 766.646 1276.48 769.319 Q1279.7 771.961 1285.75 771.961 L1304.52 771.961 L1304.52 777.85 L1268.88 777.85 L1268.88 771.961 L1274.41 771.961 Q1271.17 770.115 1269.61 767.155 Q1268.02 764.195 1268.02 759.962 Q1268.02 759.357 1268.11 758.625 Q1268.18 757.893 1268.34 757.002 L1274.35 756.97 Z" fill="#000000" fill-rule="nonzero" fill-opacity="1" /><path clip-path="url(#clip250)" d="M1286.6 734.626 Q1286.6 741.724 1288.23 744.461 Q1289.85 747.199 1293.77 747.199 Q1296.89 747.199 1298.73 745.162 Q1300.55 743.093 1300.55 739.56 Q1300.55 734.69 1297.11 731.762 Q1293.64 728.802 1287.91 728.802 L1286.6 728.802 L1286.6 734.626 M1284.19 722.945 L1304.52 722.945 L1304.52 728.802 L1299.11 728.802 Q1302.36 730.807 1303.92 733.799 Q1305.45 736.791 1305.45 741.119 Q1305.45 746.594 1302.39 749.84 Q1299.3 753.055 1294.15 753.055 Q1288.13 753.055 1285.08 749.045 Q1282.02 745.002 1282.02 737.013 L1282.02 728.802 L1281.45 728.802 Q1277.41 728.802 1275.21 731.475 Q1272.98 734.117 1272.98 738.923 Q1272.98 741.979 1273.71 744.875 Q1274.45 747.772 1275.91 750.445 L1270.5 750.445 Q1269.26 747.23 1268.65 744.207 Q1268.02 741.183 1268.02 738.318 Q1268.02 730.584 1272.03 726.765 Q1276.04 722.945 1284.19 722.945 Z" fill="#000000" fill-rule="nonzero" fill-opacity="1" /><path clip-path="url(#clip250)" d="M1274.29 687.425 L1255 687.425 L1255 681.568 L1304.52 681.568 L1304.52 687.425 L1299.18 687.425 Q1302.36 689.271 1303.92 692.103 Q1305.45 694.904 1305.45 698.851 Q1305.45 705.312 1300.29 709.386 Q1295.13 713.429 1286.73 713.429 Q1278.33 713.429 1273.17 709.386 Q1268.02 705.312 1268.02 698.851 Q1268.02 694.904 1269.58 692.103 Q1271.1 689.271 1274.29 687.425 M1286.73 707.381 Q1293.19 707.381 1296.89 704.739 Q1300.55 702.066 1300.55 697.419 Q1300.55 692.772 1296.89 690.098 Q1293.19 687.425 1286.73 687.425 Q1280.27 687.425 1276.61 690.098 Q1272.92 692.772 1272.92 697.419 Q1272.92 702.066 1276.61 704.739 Q1280.27 707.381 1286.73 707.381 Z" fill="#000000" fill-rule="nonzero" fill-opacity="1" /><path clip-path="url(#clip250)" d="M1257 659.097 L1257 653.686 L1310.57 670.237 L1310.57 675.648 L1257 659.097 Z" fill="#000000" fill-rule="nonzero" fill-opacity="1" /><path clip-path="url(#clip250)" d="M1269.93 624.818 L1275.46 624.818 Q1274.19 627.301 1273.56 629.974 Q1272.92 632.648 1272.92 635.512 Q1272.92 639.873 1274.26 642.069 Q1275.59 644.233 1278.27 644.233 Q1280.3 644.233 1281.48 642.674 Q1282.63 641.114 1283.68 636.404 L1284.12 634.398 Q1285.46 628.16 1287.91 625.55 Q1290.33 622.908 1294.69 622.908 Q1299.65 622.908 1302.55 626.855 Q1305.45 630.77 1305.45 637.645 Q1305.45 640.509 1304.87 643.629 Q1304.33 646.716 1303.22 650.153 L1297.17 650.153 Q1298.86 646.907 1299.72 643.756 Q1300.55 640.605 1300.55 637.517 Q1300.55 633.38 1299.15 631.152 Q1297.71 628.924 1295.13 628.924 Q1292.75 628.924 1291.47 630.547 Q1290.2 632.138 1289.02 637.581 L1288.55 639.618 Q1287.4 645.061 1285.05 647.48 Q1282.66 649.899 1278.52 649.899 Q1273.49 649.899 1270.75 646.334 Q1268.02 642.769 1268.02 636.213 Q1268.02 632.966 1268.49 630.101 Q1268.97 627.237 1269.93 624.818 Z" fill="#000000" fill-rule="nonzero" fill-opacity="1" /><path clip-path="url(#clip250)" d="M1255.06 614.505 L1255.06 609.413 Q1262.57 604.639 1269.77 602.283 Q1276.96 599.896 1284.06 599.896 Q1291.19 599.896 1298.41 602.283 Q1305.64 604.639 1313.12 609.413 L1313.12 614.505 Q1305.83 610.272 1298.64 608.203 Q1291.41 606.103 1284.06 606.103 Q1276.71 606.103 1269.54 608.203 Q1262.38 610.272 1255.06 614.505 Z" fill="#000000" fill-rule="nonzero" fill-opacity="1" /><polyline clip-path="url(#clip254)" style="stroke:#009af9; stroke-linecap:round; stroke-linejoin:round; stroke-width:4; stroke-opacity:1; fill:none" points="1485.51,844.959 1510.27,650.685 1535.04,569.435 1559.8,571.588 1584.57,622.857 1609.33,693.362 1634.09,762.245 1658.86,817.969 1683.62,856.27 1708.39,877.628 1733.15,885.133 1757.92,882.933 1782.68,875.165 1807.44,865.301 1832.21,855.832 1856.97,848.219 1881.74,843.039 1906.5,840.226 1931.27,839.334 1956.03,839.759 1980.8,840.909 2005.56,842.301 2030.32,843.602 2055.09,844.623 2079.85,845.3 2104.62,845.652 2129.38,845.747 2154.15,845.67 2178.91,845.501 2203.67,845.305 2228.44,845.127 2253.2,844.99 2277.97,844.902 2302.73,844.858 2327.5,844.848 "/>
<polyline clip-path="url(#clip254)" style="stroke:#e26f46; stroke-linecap:round; stroke-linejoin:round; stroke-width:3; stroke-opacity:1; fill:none" stroke-dasharray="12, 6, 2, 6" points="1485.51,844.959 1510.27,615.533 1535.04,584.199 1559.8,570.874 1584.57,617.064 1609.33,697.561 1634.09,763.928 1658.86,823.837 1683.62,879.163 1708.39,890.688 1733.15,900.282 1757.92,900.989 1782.68,864.319 1807.44,867.108 1832.21,879.129 1856.97,865.366 1881.74,842.93 1906.5,832.542 1931.27,848.421 1956.03,820.929 1980.8,839.173 2005.56,852.626 2030.32,839.465 2055.09,838.276 2079.85,857.652 2104.62,850.082 2129.38,837.344 2154.15,836.246 2178.91,842.953 2203.67,849.687 2228.44,854.07 2253.2,840.279 2277.97,867.533 2302.73,834.441 2327.5,843.202 "/>
<path clip-path="url(#clip250)" d="M2204.93 726.723 L2323.01 726.723 L2323.01 571.203 L2204.93 571.203  Z" fill="#ffffff" fill-rule="evenodd" fill-opacity="1"/>
<polyline clip-path="url(#clip250)" style="stroke:#000000; stroke-linecap:round; stroke-linejoin:round; stroke-width:4; stroke-opacity:1; fill:none" points="2204.93,726.723 2323.01,726.723 2323.01,571.203 2204.93,571.203 2204.93,726.723 "/>
<polyline clip-path="url(#clip250)" style="stroke:#009af9; stroke-linecap:round; stroke-linejoin:round; stroke-width:4; stroke-opacity:1; fill:none" points="2214.84,623.043 2274.34,623.043 "/>
<path clip-path="url(#clip250)" d="M2311.27 633.582 L2306 633.442 L2300.23 633.582 L2300.23 631.334 L2302.11 631.334 L2296.84 625.103 L2292.18 630.326 L2291.85 630.795 Q2291.85 631.006 2292.39 631.17 Q2292.95 631.334 2293.61 631.334 L2293.61 633.582 L2288.66 633.442 L2284.26 633.582 L2284.26 631.334 Q2285.74 631.334 2286.41 631.31 Q2287.12 631.263 2287.91 631.052 Q2288.71 630.842 2289.11 630.42 L2295.39 623.37 L2287.91 614.54 L2284.49 614.54 L2284.49 612.291 L2289.79 612.432 L2295.57 612.291 L2295.57 614.54 L2293.65 614.54 L2298.36 620.044 L2302.39 615.547 Q2302.41 615.523 2302.79 614.961 Q2302.04 614.54 2300.96 614.54 L2300.96 612.291 L2305.9 612.432 L2310.31 612.291 L2310.31 614.54 Q2308.38 614.54 2307.38 614.68 Q2306.39 614.797 2306.09 614.961 Q2305.81 615.125 2305.41 615.547 L2299.81 621.777 L2307.87 631.334 L2311.27 631.334 L2311.27 633.582 Z" fill="#000000" fill-rule="nonzero" fill-opacity="1" /><polyline clip-path="url(#clip250)" style="stroke:#e26f46; stroke-linecap:round; stroke-linejoin:round; stroke-width:3; stroke-opacity:1; fill:none" stroke-dasharray="12, 6, 2, 6" points="2214.84,674.883 2274.34,674.883 "/>
<path clip-path="url(#clip250)" d="M2306.85 663.361 L2306.44 664.033 Q2303.89 662.935 2300.73 661.18 Q2297.57 662.935 2295.02 664.033 L2294.63 663.361 Q2297.4 660.951 2300.73 659.098 Q2304.09 660.967 2306.85 663.361 Z" fill="#000000" fill-rule="nonzero" fill-opacity="1" /><path clip-path="url(#clip250)" d="M2311.27 690.427 L2306 690.286 L2300.23 690.427 L2300.23 688.178 L2302.11 688.178 L2296.84 681.948 L2292.18 687.171 L2291.85 687.639 Q2291.85 687.85 2292.39 688.014 Q2292.95 688.178 2293.61 688.178 L2293.61 690.427 L2288.66 690.286 L2284.26 690.427 L2284.26 688.178 Q2285.74 688.178 2286.41 688.155 Q2287.12 688.108 2287.91 687.897 Q2288.71 687.686 2289.11 687.265 L2295.39 680.214 L2287.91 671.384 L2284.49 671.384 L2284.49 669.136 L2289.79 669.276 L2295.57 669.136 L2295.57 671.384 L2293.65 671.384 L2298.36 676.888 L2302.39 672.391 Q2302.41 672.368 2302.79 671.806 Q2302.04 671.384 2300.96 671.384 L2300.96 669.136 L2305.9 669.276 L2310.31 669.136 L2310.31 671.384 Q2308.38 671.384 2307.38 671.525 Q2306.39 671.642 2306.09 671.806 Q2305.81 671.97 2305.41 672.391 L2299.81 678.622 L2307.87 688.178 L2311.27 688.178 L2311.27 690.427 Z" fill="#000000" fill-rule="nonzero" fill-opacity="1" /><path clip-path="url(#clip250)" d="M1460.25 1423.18 L2352.76 1423.18 L2352.76 1071.73 L1460.25 1071.73  Z" fill="#ffffff" fill-rule="evenodd" fill-opacity="1"/>
<defs>
  <clipPath id="clip255">
    <rect x="1460" y="1071" width="894" height="352"/>
  </clipPath>
</defs>
<polyline clip-path="url(#clip255)" style="stroke:#000000; stroke-linecap:round; stroke-linejoin:round; stroke-width:2; stroke-opacity:0.1; fill:none" points="1485.51,1423.18 1485.51,1071.73 "/>
<polyline clip-path="url(#clip255)" style="stroke:#000000; stroke-linecap:round; stroke-linejoin:round; stroke-width:2; stroke-opacity:0.1; fill:none" points="1733.15,1423.18 1733.15,1071.73 "/>
<polyline clip-path="url(#clip255)" style="stroke:#000000; stroke-linecap:round; stroke-linejoin:round; stroke-width:2; stroke-opacity:0.1; fill:none" points="1980.8,1423.18 1980.8,1071.73 "/>
<polyline clip-path="url(#clip255)" style="stroke:#000000; stroke-linecap:round; stroke-linejoin:round; stroke-width:2; stroke-opacity:0.1; fill:none" points="2228.44,1423.18 2228.44,1071.73 "/>
<polyline clip-path="url(#clip255)" style="stroke:#000000; stroke-linecap:round; stroke-linejoin:round; stroke-width:2; stroke-opacity:0.1; fill:none" points="1460.25,1354.64 2352.76,1354.64 "/>
<polyline clip-path="url(#clip255)" style="stroke:#000000; stroke-linecap:round; stroke-linejoin:round; stroke-width:2; stroke-opacity:0.1; fill:none" points="1460.25,1279.09 2352.76,1279.09 "/>
<polyline clip-path="url(#clip255)" style="stroke:#000000; stroke-linecap:round; stroke-linejoin:round; stroke-width:2; stroke-opacity:0.1; fill:none" points="1460.25,1203.54 2352.76,1203.54 "/>
<polyline clip-path="url(#clip255)" style="stroke:#000000; stroke-linecap:round; stroke-linejoin:round; stroke-width:2; stroke-opacity:0.1; fill:none" points="1460.25,1127.98 2352.76,1127.98 "/>
<polyline clip-path="url(#clip250)" style="stroke:#000000; stroke-linecap:round; stroke-linejoin:round; stroke-width:4; stroke-opacity:1; fill:none" points="1460.25,1423.18 2352.76,1423.18 "/>
<polyline clip-path="url(#clip250)" style="stroke:#000000; stroke-linecap:round; stroke-linejoin:round; stroke-width:4; stroke-opacity:1; fill:none" points="1485.51,1423.18 1485.51,1404.28 "/>
<polyline clip-path="url(#clip250)" style="stroke:#000000; stroke-linecap:round; stroke-linejoin:round; stroke-width:4; stroke-opacity:1; fill:none" points="1733.15,1423.18 1733.15,1404.28 "/>
<polyline clip-path="url(#clip250)" style="stroke:#000000; stroke-linecap:round; stroke-linejoin:round; stroke-width:4; stroke-opacity:1; fill:none" points="1980.8,1423.18 1980.8,1404.28 "/>
<polyline clip-path="url(#clip250)" style="stroke:#000000; stroke-linecap:round; stroke-linejoin:round; stroke-width:4; stroke-opacity:1; fill:none" points="2228.44,1423.18 2228.44,1404.28 "/>
<path clip-path="url(#clip250)" d="M1485.51 1454.1 Q1481.9 1454.1 1480.07 1457.66 Q1478.26 1461.2 1478.26 1468.33 Q1478.26 1475.44 1480.07 1479.01 Q1481.9 1482.55 1485.51 1482.55 Q1489.14 1482.55 1490.95 1479.01 Q1492.78 1475.44 1492.78 1468.33 Q1492.78 1461.2 1490.95 1457.66 Q1489.14 1454.1 1485.51 1454.1 M1485.51 1450.39 Q1491.32 1450.39 1494.37 1455 Q1497.45 1459.58 1497.45 1468.33 Q1497.45 1477.06 1494.37 1481.67 Q1491.32 1486.25 1485.51 1486.25 Q1479.7 1486.25 1476.62 1481.67 Q1473.56 1477.06 1473.56 1468.33 Q1473.56 1459.58 1476.62 1455 Q1479.7 1450.39 1485.51 1450.39 Z" fill="#000000" fill-rule="nonzero" fill-opacity="1" /><path clip-path="url(#clip250)" d="M1723.53 1481.64 L1731.17 1481.64 L1731.17 1455.28 L1722.86 1456.95 L1722.86 1452.69 L1731.13 1451.02 L1735.8 1451.02 L1735.8 1481.64 L1743.44 1481.64 L1743.44 1485.58 L1723.53 1485.58 L1723.53 1481.64 Z" fill="#000000" fill-rule="nonzero" fill-opacity="1" /><path clip-path="url(#clip250)" d="M1975.45 1481.64 L1991.77 1481.64 L1991.77 1485.58 L1969.82 1485.58 L1969.82 1481.64 Q1972.48 1478.89 1977.07 1474.26 Q1981.67 1469.61 1982.86 1468.27 Q1985.1 1465.74 1985.98 1464.01 Q1986.88 1462.25 1986.88 1460.56 Q1986.88 1457.8 1984.94 1456.07 Q1983.02 1454.33 1979.92 1454.33 Q1977.72 1454.33 1975.26 1455.09 Q1972.83 1455.86 1970.05 1457.41 L1970.05 1452.69 Q1972.88 1451.55 1975.33 1450.97 Q1977.79 1450.39 1979.82 1450.39 Q1985.19 1450.39 1988.39 1453.08 Q1991.58 1455.77 1991.58 1460.26 Q1991.58 1462.39 1990.77 1464.31 Q1989.98 1466.2 1987.88 1468.8 Q1987.3 1469.47 1984.2 1472.69 Q1981.1 1475.88 1975.45 1481.64 Z" fill="#000000" fill-rule="nonzero" fill-opacity="1" /><path clip-path="url(#clip250)" d="M2232.69 1466.95 Q2236.04 1467.66 2237.92 1469.93 Q2239.82 1472.2 2239.82 1475.53 Q2239.82 1480.65 2236.3 1483.45 Q2232.78 1486.25 2226.3 1486.25 Q2224.12 1486.25 2221.81 1485.81 Q2219.52 1485.39 2217.06 1484.54 L2217.06 1480.02 Q2219.01 1481.16 2221.32 1481.74 Q2223.64 1482.32 2226.16 1482.32 Q2230.56 1482.32 2232.85 1480.58 Q2235.16 1478.84 2235.16 1475.53 Q2235.16 1472.48 2233.01 1470.77 Q2230.88 1469.03 2227.06 1469.03 L2223.03 1469.03 L2223.03 1465.19 L2227.25 1465.19 Q2230.7 1465.19 2232.52 1463.82 Q2234.35 1462.43 2234.35 1459.84 Q2234.35 1457.18 2232.45 1455.77 Q2230.58 1454.33 2227.06 1454.33 Q2225.14 1454.33 2222.94 1454.75 Q2220.74 1455.16 2218.1 1456.04 L2218.1 1451.88 Q2220.77 1451.14 2223.08 1450.77 Q2225.42 1450.39 2227.48 1450.39 Q2232.8 1450.39 2235.9 1452.83 Q2239.01 1455.23 2239.01 1459.35 Q2239.01 1462.22 2237.36 1464.21 Q2235.72 1466.18 2232.69 1466.95 Z" fill="#000000" fill-rule="nonzero" fill-opacity="1" /><path clip-path="url(#clip250)" d="M1776.67 1520.52 L1816.87 1520.52 L1816.87 1525.93 L1800 1525.93 L1800 1568.04 L1793.54 1568.04 L1793.54 1525.93 L1776.67 1525.93 L1776.67 1520.52 Z" fill="#000000" fill-rule="nonzero" fill-opacity="1" /><path clip-path="url(#clip250)" d="M1820.82 1532.4 L1826.68 1532.4 L1826.68 1568.04 L1820.82 1568.04 L1820.82 1532.4 M1820.82 1518.52 L1826.68 1518.52 L1826.68 1525.93 L1820.82 1525.93 L1820.82 1518.52 Z" fill="#000000" fill-rule="nonzero" fill-opacity="1" /><path clip-path="url(#clip250)" d="M1866.68 1539.24 Q1868.88 1535.29 1871.94 1533.41 Q1874.99 1531.54 1879.13 1531.54 Q1884.7 1531.54 1887.72 1535.45 Q1890.75 1539.33 1890.75 1546.53 L1890.75 1568.04 L1884.86 1568.04 L1884.86 1546.72 Q1884.86 1541.59 1883.04 1539.11 Q1881.23 1536.63 1877.51 1536.63 Q1872.95 1536.63 1870.31 1539.65 Q1867.67 1542.68 1867.67 1547.9 L1867.67 1568.04 L1861.78 1568.04 L1861.78 1546.72 Q1861.78 1541.56 1859.97 1539.11 Q1858.15 1536.63 1854.37 1536.63 Q1849.88 1536.63 1847.24 1539.68 Q1844.6 1542.71 1844.6 1547.9 L1844.6 1568.04 L1838.71 1568.04 L1838.71 1532.4 L1844.6 1532.4 L1844.6 1537.93 Q1846.6 1534.66 1849.4 1533.1 Q1852.2 1531.54 1856.05 1531.54 Q1859.94 1531.54 1862.64 1533.51 Q1865.38 1535.48 1866.68 1539.24 Z" fill="#000000" fill-rule="nonzero" fill-opacity="1" /><path clip-path="url(#clip250)" d="M1932.92 1548.76 L1932.92 1551.62 L1905.99 1551.62 Q1906.37 1557.67 1909.62 1560.85 Q1912.9 1564 1918.72 1564 Q1922.1 1564 1925.25 1563.17 Q1928.43 1562.35 1931.55 1560.69 L1931.55 1566.23 Q1928.4 1567.57 1925.09 1568.27 Q1921.78 1568.97 1918.37 1568.97 Q1909.84 1568.97 1904.85 1564 Q1899.88 1559.04 1899.88 1550.57 Q1899.88 1541.82 1904.59 1536.69 Q1909.33 1531.54 1917.36 1531.54 Q1924.55 1531.54 1928.72 1536.18 Q1932.92 1540.8 1932.92 1548.76 M1927.06 1547.04 Q1927 1542.23 1924.36 1539.37 Q1921.75 1536.5 1917.42 1536.5 Q1912.52 1536.5 1909.56 1539.27 Q1906.63 1542.04 1906.18 1547.07 L1927.06 1547.04 Z" fill="#000000" fill-rule="nonzero" fill-opacity="1" /><path clip-path="url(#clip250)" d="M1977.32 1518.58 Q1973.06 1525.9 1970.99 1533.06 Q1968.92 1540.23 1968.92 1547.58 Q1968.92 1554.93 1970.99 1562.16 Q1973.09 1569.35 1977.32 1576.64 L1972.23 1576.64 Q1967.45 1569.16 1965.07 1561.93 Q1962.71 1554.71 1962.71 1547.58 Q1962.71 1540.48 1965.07 1533.29 Q1967.42 1526.09 1972.23 1518.58 L1977.32 1518.58 Z" fill="#000000" fill-rule="nonzero" fill-opacity="1" /><path clip-path="url(#clip250)" d="M2011.41 1533.45 L2011.41 1538.98 Q2008.93 1537.71 2006.25 1537.07 Q2003.58 1536.44 2000.71 1536.44 Q1996.35 1536.44 1994.16 1537.77 Q1991.99 1539.11 1991.99 1541.79 Q1991.99 1543.82 1993.55 1545 Q1995.11 1546.15 1999.82 1547.2 L2001.83 1547.64 Q2008.07 1548.98 2010.68 1551.43 Q2013.32 1553.85 2013.32 1558.21 Q2013.32 1563.17 2009.37 1566.07 Q2005.46 1568.97 1998.58 1568.97 Q1995.72 1568.97 1992.6 1568.39 Q1989.51 1567.85 1986.07 1566.74 L1986.07 1560.69 Q1989.32 1562.38 1992.47 1563.24 Q1995.62 1564.07 1998.71 1564.07 Q2002.85 1564.07 2005.07 1562.66 Q2007.3 1561.23 2007.3 1558.65 Q2007.3 1556.27 2005.68 1554.99 Q2004.09 1553.72 1998.65 1552.54 L1996.61 1552.07 Q1991.17 1550.92 1988.75 1548.56 Q1986.33 1546.18 1986.33 1542.04 Q1986.33 1537.01 1989.89 1534.27 Q1993.46 1531.54 2000.01 1531.54 Q2003.26 1531.54 2006.13 1532.01 Q2008.99 1532.49 2011.41 1533.45 Z" fill="#000000" fill-rule="nonzero" fill-opacity="1" /><path clip-path="url(#clip250)" d="M2021.72 1518.58 L2026.81 1518.58 Q2031.59 1526.09 2033.94 1533.29 Q2036.33 1540.48 2036.33 1547.58 Q2036.33 1554.71 2033.94 1561.93 Q2031.59 1569.16 2026.81 1576.64 L2021.72 1576.64 Q2025.95 1569.35 2028.02 1562.16 Q2030.12 1554.93 2030.12 1547.58 Q2030.12 1540.23 2028.02 1533.06 Q2025.95 1525.9 2021.72 1518.58 Z" fill="#000000" fill-rule="nonzero" fill-opacity="1" /><polyline clip-path="url(#clip250)" style="stroke:#000000; stroke-linecap:round; stroke-linejoin:round; stroke-width:4; stroke-opacity:1; fill:none" points="1460.25,1423.18 1460.25,1071.73 "/>
<polyline clip-path="url(#clip250)" style="stroke:#000000; stroke-linecap:round; stroke-linejoin:round; stroke-width:4; stroke-opacity:1; fill:none" points="1460.25,1354.64 1479.15,1354.64 "/>
<polyline clip-path="url(#clip250)" style="stroke:#000000; stroke-linecap:round; stroke-linejoin:round; stroke-width:4; stroke-opacity:1; fill:none" points="1460.25,1279.09 1479.15,1279.09 "/>
<polyline clip-path="url(#clip250)" style="stroke:#000000; stroke-linecap:round; stroke-linejoin:round; stroke-width:4; stroke-opacity:1; fill:none" points="1460.25,1203.54 1479.15,1203.54 "/>
<polyline clip-path="url(#clip250)" style="stroke:#000000; stroke-linecap:round; stroke-linejoin:round; stroke-width:4; stroke-opacity:1; fill:none" points="1460.25,1127.98 1479.15,1127.98 "/>
<path clip-path="url(#clip250)" d="M1257.98 1355.1 L1287.65 1355.1 L1287.65 1359.03 L1257.98 1359.03 L1257.98 1355.1 Z" fill="#000000" fill-rule="nonzero" fill-opacity="1" /><path clip-path="url(#clip250)" d="M1307.74 1340.44 Q1304.13 1340.44 1302.3 1344.01 Q1300.5 1347.55 1300.5 1354.68 Q1300.5 1361.79 1302.3 1365.35 Q1304.13 1368.89 1307.74 1368.89 Q1311.38 1368.89 1313.18 1365.35 Q1315.01 1361.79 1315.01 1354.68 Q1315.01 1347.55 1313.18 1344.01 Q1311.38 1340.44 1307.74 1340.44 M1307.74 1336.74 Q1313.55 1336.74 1316.61 1341.35 Q1319.69 1345.93 1319.69 1354.68 Q1319.69 1363.41 1316.61 1368.01 Q1313.55 1372.6 1307.74 1372.6 Q1301.93 1372.6 1298.86 1368.01 Q1295.8 1363.41 1295.8 1354.68 Q1295.8 1345.93 1298.86 1341.35 Q1301.93 1336.74 1307.74 1336.74 Z" fill="#000000" fill-rule="nonzero" fill-opacity="1" /><path clip-path="url(#clip250)" d="M1327.91 1366.04 L1332.79 1366.04 L1332.79 1371.92 L1327.91 1371.92 L1327.91 1366.04 Z" fill="#000000" fill-rule="nonzero" fill-opacity="1" /><path clip-path="url(#clip250)" d="M1352.98 1340.44 Q1349.36 1340.44 1347.54 1344.01 Q1345.73 1347.55 1345.73 1354.68 Q1345.73 1361.79 1347.54 1365.35 Q1349.36 1368.89 1352.98 1368.89 Q1356.61 1368.89 1358.42 1365.35 Q1360.24 1361.79 1360.24 1354.68 Q1360.24 1347.55 1358.42 1344.01 Q1356.61 1340.44 1352.98 1340.44 M1352.98 1336.74 Q1358.79 1336.74 1361.84 1341.35 Q1364.92 1345.93 1364.92 1354.68 Q1364.92 1363.41 1361.84 1368.01 Q1358.79 1372.6 1352.98 1372.6 Q1347.17 1372.6 1344.09 1368.01 Q1341.03 1363.41 1341.03 1354.68 Q1341.03 1345.93 1344.09 1341.35 Q1347.17 1336.74 1352.98 1336.74 Z" fill="#000000" fill-rule="nonzero" fill-opacity="1" /><path clip-path="url(#clip250)" d="M1377.16 1367.99 L1393.48 1367.99 L1393.48 1371.92 L1371.54 1371.92 L1371.54 1367.99 Q1374.2 1365.23 1378.79 1360.61 Q1383.39 1355.95 1384.57 1354.61 Q1386.82 1352.09 1387.7 1350.35 Q1388.6 1348.59 1388.6 1346.9 Q1388.6 1344.15 1386.66 1342.41 Q1384.73 1340.67 1381.63 1340.67 Q1379.43 1340.67 1376.98 1341.44 Q1374.55 1342.2 1371.77 1343.75 L1371.77 1339.03 Q1374.6 1337.9 1377.05 1337.32 Q1379.5 1336.74 1381.54 1336.74 Q1386.91 1336.74 1390.1 1339.42 Q1393.3 1342.11 1393.3 1346.6 Q1393.3 1348.73 1392.49 1350.65 Q1391.7 1352.55 1389.6 1355.14 Q1389.02 1355.81 1385.91 1359.03 Q1382.81 1362.23 1377.16 1367.99 Z" fill="#000000" fill-rule="nonzero" fill-opacity="1" /><path clip-path="url(#clip250)" d="M1403.35 1337.36 L1421.7 1337.36 L1421.7 1341.3 L1407.63 1341.3 L1407.63 1349.77 Q1408.65 1349.42 1409.66 1349.26 Q1410.68 1349.08 1411.7 1349.08 Q1417.49 1349.08 1420.87 1352.25 Q1424.25 1355.42 1424.25 1360.84 Q1424.25 1366.42 1420.78 1369.52 Q1417.3 1372.6 1410.98 1372.6 Q1408.81 1372.6 1406.54 1372.23 Q1404.29 1371.86 1401.89 1371.11 L1401.89 1366.42 Q1403.97 1367.55 1406.19 1368.11 Q1408.41 1368.66 1410.89 1368.66 Q1414.9 1368.66 1417.23 1366.55 Q1419.57 1364.45 1419.57 1360.84 Q1419.57 1357.23 1417.23 1355.12 Q1414.9 1353.01 1410.89 1353.01 Q1409.02 1353.01 1407.14 1353.43 Q1405.29 1353.85 1403.35 1354.73 L1403.35 1337.36 Z" fill="#000000" fill-rule="nonzero" fill-opacity="1" /><path clip-path="url(#clip250)" d="M1306.75 1264.89 Q1303.14 1264.89 1301.31 1268.45 Q1299.5 1272 1299.5 1279.13 Q1299.5 1286.23 1301.31 1289.8 Q1303.14 1293.34 1306.75 1293.34 Q1310.38 1293.34 1312.19 1289.8 Q1314.02 1286.23 1314.02 1279.13 Q1314.02 1272 1312.19 1268.45 Q1310.38 1264.89 1306.75 1264.89 M1306.75 1261.19 Q1312.56 1261.19 1315.61 1265.79 Q1318.69 1270.38 1318.69 1279.13 Q1318.69 1287.85 1315.61 1292.46 Q1312.56 1297.04 1306.75 1297.04 Q1300.94 1297.04 1297.86 1292.46 Q1294.8 1287.85 1294.8 1279.13 Q1294.8 1270.38 1297.86 1265.79 Q1300.94 1261.19 1306.75 1261.19 Z" fill="#000000" fill-rule="nonzero" fill-opacity="1" /><path clip-path="url(#clip250)" d="M1326.91 1290.49 L1331.79 1290.49 L1331.79 1296.37 L1326.91 1296.37 L1326.91 1290.49 Z" fill="#000000" fill-rule="nonzero" fill-opacity="1" /><path clip-path="url(#clip250)" d="M1351.98 1264.89 Q1348.37 1264.89 1346.54 1268.45 Q1344.73 1272 1344.73 1279.13 Q1344.73 1286.23 1346.54 1289.8 Q1348.37 1293.34 1351.98 1293.34 Q1355.61 1293.34 1357.42 1289.8 Q1359.25 1286.23 1359.25 1279.13 Q1359.25 1272 1357.42 1268.45 Q1355.61 1264.89 1351.98 1264.89 M1351.98 1261.19 Q1357.79 1261.19 1360.85 1265.79 Q1363.92 1270.38 1363.92 1279.13 Q1363.92 1287.85 1360.85 1292.46 Q1357.79 1297.04 1351.98 1297.04 Q1346.17 1297.04 1343.09 1292.46 Q1340.04 1287.85 1340.04 1279.13 Q1340.04 1270.38 1343.09 1265.79 Q1346.17 1261.19 1351.98 1261.19 Z" fill="#000000" fill-rule="nonzero" fill-opacity="1" /><path clip-path="url(#clip250)" d="M1382.14 1264.89 Q1378.53 1264.89 1376.7 1268.45 Q1374.9 1272 1374.9 1279.13 Q1374.9 1286.23 1376.7 1289.8 Q1378.53 1293.34 1382.14 1293.34 Q1385.78 1293.34 1387.58 1289.8 Q1389.41 1286.23 1389.41 1279.13 Q1389.41 1272 1387.58 1268.45 Q1385.78 1264.89 1382.14 1264.89 M1382.14 1261.19 Q1387.95 1261.19 1391.01 1265.79 Q1394.09 1270.38 1394.09 1279.13 Q1394.09 1287.85 1391.01 1292.46 Q1387.95 1297.04 1382.14 1297.04 Q1376.33 1297.04 1373.25 1292.46 Q1370.2 1287.85 1370.2 1279.13 Q1370.2 1270.38 1373.25 1265.79 Q1376.33 1261.19 1382.14 1261.19 Z" fill="#000000" fill-rule="nonzero" fill-opacity="1" /><path clip-path="url(#clip250)" d="M1412.3 1264.89 Q1408.69 1264.89 1406.86 1268.45 Q1405.06 1272 1405.06 1279.13 Q1405.06 1286.23 1406.86 1289.8 Q1408.69 1293.34 1412.3 1293.34 Q1415.94 1293.34 1417.74 1289.8 Q1419.57 1286.23 1419.57 1279.13 Q1419.57 1272 1417.74 1268.45 Q1415.94 1264.89 1412.3 1264.89 M1412.3 1261.19 Q1418.11 1261.19 1421.17 1265.79 Q1424.25 1270.38 1424.25 1279.13 Q1424.25 1287.85 1421.17 1292.46 Q1418.11 1297.04 1412.3 1297.04 Q1406.49 1297.04 1403.41 1292.46 Q1400.36 1287.85 1400.36 1279.13 Q1400.36 1270.38 1403.41 1265.79 Q1406.49 1261.19 1412.3 1261.19 Z" fill="#000000" fill-rule="nonzero" fill-opacity="1" /><path clip-path="url(#clip250)" d="M1307.74 1189.34 Q1304.13 1189.34 1302.3 1192.9 Q1300.5 1196.44 1300.5 1203.57 Q1300.5 1210.68 1302.3 1214.24 Q1304.13 1217.78 1307.74 1217.78 Q1311.38 1217.78 1313.18 1214.24 Q1315.01 1210.68 1315.01 1203.57 Q1315.01 1196.44 1313.18 1192.9 Q1311.38 1189.34 1307.74 1189.34 M1307.74 1185.63 Q1313.55 1185.63 1316.61 1190.24 Q1319.69 1194.82 1319.69 1203.57 Q1319.69 1212.3 1316.61 1216.91 Q1313.55 1221.49 1307.74 1221.49 Q1301.93 1221.49 1298.86 1216.91 Q1295.8 1212.3 1295.8 1203.57 Q1295.8 1194.82 1298.86 1190.24 Q1301.93 1185.63 1307.74 1185.63 Z" fill="#000000" fill-rule="nonzero" fill-opacity="1" /><path clip-path="url(#clip250)" d="M1327.91 1214.94 L1332.79 1214.94 L1332.79 1220.82 L1327.91 1220.82 L1327.91 1214.94 Z" fill="#000000" fill-rule="nonzero" fill-opacity="1" /><path clip-path="url(#clip250)" d="M1352.98 1189.34 Q1349.36 1189.34 1347.54 1192.9 Q1345.73 1196.44 1345.73 1203.57 Q1345.73 1210.68 1347.54 1214.24 Q1349.36 1217.78 1352.98 1217.78 Q1356.61 1217.78 1358.42 1214.24 Q1360.24 1210.68 1360.24 1203.57 Q1360.24 1196.44 1358.42 1192.9 Q1356.61 1189.34 1352.98 1189.34 M1352.98 1185.63 Q1358.79 1185.63 1361.84 1190.24 Q1364.92 1194.82 1364.92 1203.57 Q1364.92 1212.3 1361.84 1216.91 Q1358.79 1221.49 1352.98 1221.49 Q1347.17 1221.49 1344.09 1216.91 Q1341.03 1212.3 1341.03 1203.57 Q1341.03 1194.82 1344.09 1190.24 Q1347.17 1185.63 1352.98 1185.63 Z" fill="#000000" fill-rule="nonzero" fill-opacity="1" /><path clip-path="url(#clip250)" d="M1377.16 1216.88 L1393.48 1216.88 L1393.48 1220.82 L1371.54 1220.82 L1371.54 1216.88 Q1374.2 1214.13 1378.79 1209.5 Q1383.39 1204.85 1384.57 1203.5 Q1386.82 1200.98 1387.7 1199.24 Q1388.6 1197.48 1388.6 1195.79 Q1388.6 1193.04 1386.66 1191.3 Q1384.73 1189.57 1381.63 1189.57 Q1379.43 1189.57 1376.98 1190.33 Q1374.55 1191.1 1371.77 1192.65 L1371.77 1187.92 Q1374.6 1186.79 1377.05 1186.21 Q1379.5 1185.63 1381.54 1185.63 Q1386.91 1185.63 1390.1 1188.32 Q1393.3 1191 1393.3 1195.49 Q1393.3 1197.62 1392.49 1199.54 Q1391.7 1201.44 1389.6 1204.04 Q1389.02 1204.71 1385.91 1207.92 Q1382.81 1211.12 1377.16 1216.88 Z" fill="#000000" fill-rule="nonzero" fill-opacity="1" /><path clip-path="url(#clip250)" d="M1403.35 1186.26 L1421.7 1186.26 L1421.7 1190.19 L1407.63 1190.19 L1407.63 1198.66 Q1408.65 1198.32 1409.66 1198.16 Q1410.68 1197.97 1411.7 1197.97 Q1417.49 1197.97 1420.87 1201.14 Q1424.25 1204.31 1424.25 1209.73 Q1424.25 1215.31 1420.78 1218.41 Q1417.3 1221.49 1410.98 1221.49 Q1408.81 1221.49 1406.54 1221.12 Q1404.29 1220.75 1401.89 1220.01 L1401.89 1215.31 Q1403.97 1216.44 1406.19 1217 Q1408.41 1217.55 1410.89 1217.55 Q1414.9 1217.55 1417.23 1215.45 Q1419.57 1213.34 1419.57 1209.73 Q1419.57 1206.12 1417.23 1204.01 Q1414.9 1201.91 1410.89 1201.91 Q1409.02 1201.91 1407.14 1202.32 Q1405.29 1202.74 1403.35 1203.62 L1403.35 1186.26 Z" fill="#000000" fill-rule="nonzero" fill-opacity="1" /><path clip-path="url(#clip250)" d="M1306.75 1113.78 Q1303.14 1113.78 1301.31 1117.35 Q1299.5 1120.89 1299.5 1128.02 Q1299.5 1135.12 1301.31 1138.69 Q1303.14 1142.23 1306.75 1142.23 Q1310.38 1142.23 1312.19 1138.69 Q1314.02 1135.12 1314.02 1128.02 Q1314.02 1120.89 1312.19 1117.35 Q1310.38 1113.78 1306.75 1113.78 M1306.75 1110.08 Q1312.56 1110.08 1315.61 1114.69 Q1318.69 1119.27 1318.69 1128.02 Q1318.69 1136.75 1315.61 1141.35 Q1312.56 1145.94 1306.75 1145.94 Q1300.94 1145.94 1297.86 1141.35 Q1294.8 1136.75 1294.8 1128.02 Q1294.8 1119.27 1297.86 1114.69 Q1300.94 1110.08 1306.75 1110.08 Z" fill="#000000" fill-rule="nonzero" fill-opacity="1" /><path clip-path="url(#clip250)" d="M1326.91 1139.38 L1331.79 1139.38 L1331.79 1145.26 L1326.91 1145.26 L1326.91 1139.38 Z" fill="#000000" fill-rule="nonzero" fill-opacity="1" /><path clip-path="url(#clip250)" d="M1351.98 1113.78 Q1348.37 1113.78 1346.54 1117.35 Q1344.73 1120.89 1344.73 1128.02 Q1344.73 1135.12 1346.54 1138.69 Q1348.37 1142.23 1351.98 1142.23 Q1355.61 1142.23 1357.42 1138.69 Q1359.25 1135.12 1359.25 1128.02 Q1359.25 1120.89 1357.42 1117.35 Q1355.61 1113.78 1351.98 1113.78 M1351.98 1110.08 Q1357.79 1110.08 1360.85 1114.69 Q1363.92 1119.27 1363.92 1128.02 Q1363.92 1136.75 1360.85 1141.35 Q1357.79 1145.94 1351.98 1145.94 Q1346.17 1145.94 1343.09 1141.35 Q1340.04 1136.75 1340.04 1128.02 Q1340.04 1119.27 1343.09 1114.69 Q1346.17 1110.08 1351.98 1110.08 Z" fill="#000000" fill-rule="nonzero" fill-opacity="1" /><path clip-path="url(#clip250)" d="M1372.19 1110.7 L1390.54 1110.7 L1390.54 1114.64 L1376.47 1114.64 L1376.47 1123.11 Q1377.49 1122.76 1378.51 1122.6 Q1379.53 1122.42 1380.54 1122.42 Q1386.33 1122.42 1389.71 1125.59 Q1393.09 1128.76 1393.09 1134.18 Q1393.09 1139.75 1389.62 1142.86 Q1386.15 1145.94 1379.83 1145.94 Q1377.65 1145.94 1375.38 1145.56 Q1373.14 1145.19 1370.73 1144.45 L1370.73 1139.75 Q1372.81 1140.89 1375.04 1141.44 Q1377.26 1142 1379.73 1142 Q1383.74 1142 1386.08 1139.89 Q1388.41 1137.79 1388.41 1134.18 Q1388.41 1130.56 1386.08 1128.46 Q1383.74 1126.35 1379.73 1126.35 Q1377.86 1126.35 1375.98 1126.77 Q1374.13 1127.19 1372.19 1128.06 L1372.19 1110.7 Z" fill="#000000" fill-rule="nonzero" fill-opacity="1" /><path clip-path="url(#clip250)" d="M1412.3 1113.78 Q1408.69 1113.78 1406.86 1117.35 Q1405.06 1120.89 1405.06 1128.02 Q1405.06 1135.12 1406.86 1138.69 Q1408.69 1142.23 1412.3 1142.23 Q1415.94 1142.23 1417.74 1138.69 Q1419.57 1135.12 1419.57 1128.02 Q1419.57 1120.89 1417.74 1117.35 Q1415.94 1113.78 1412.3 1113.78 M1412.3 1110.08 Q1418.11 1110.08 1421.17 1114.69 Q1424.25 1119.27 1424.25 1128.02 Q1424.25 1136.75 1421.17 1141.35 Q1418.11 1145.94 1412.3 1145.94 Q1406.49 1145.94 1403.41 1141.35 Q1400.36 1136.75 1400.36 1128.02 Q1400.36 1119.27 1403.41 1114.69 Q1406.49 1110.08 1412.3 1110.08 Z" fill="#000000" fill-rule="nonzero" fill-opacity="1" /><path clip-path="url(#clip250)" d="M1167.67 1252.88 L1168.6 1253.44 Q1167.09 1256.93 1164.68 1261.28 Q1167.09 1265.63 1168.6 1269.13 L1167.67 1269.67 Q1164.36 1265.86 1161.81 1261.28 Q1164.38 1256.66 1167.67 1252.88 Z" fill="#000000" fill-rule="nonzero" fill-opacity="1" /><path clip-path="url(#clip250)" d="M1179.97 1249.71 Q1181.78 1249.71 1182.81 1250.84 Q1183.8 1251.97 1183.8 1253.26 Q1183.8 1254.48 1183.1 1255.12 Q1182.39 1255.77 1181.49 1255.77 Q1180.26 1255.77 1179.2 1254.87 Q1178.14 1253.96 1177.91 1252.61 Q1177.07 1253.93 1177.07 1255.9 Q1177.07 1257.18 1177.75 1258.31 Q1178.43 1259.41 1179.3 1260.08 Q1180.17 1260.73 1181.42 1261.31 Q1182.65 1261.85 1183.39 1262.08 Q1184.09 1262.27 1184.87 1262.43 L1193.88 1264.69 Q1198.17 1265.78 1199.68 1265.78 Q1201.55 1265.78 1202.81 1264.88 Q1204.03 1263.98 1204.03 1262.18 Q1204.03 1261.47 1203.84 1260.66 Q1203.61 1259.86 1203.03 1258.83 Q1202.42 1257.76 1201.52 1256.83 Q1200.58 1255.86 1199.01 1254.93 Q1197.43 1254 1195.4 1253.38 Q1194.69 1253.19 1194.69 1252.55 Q1194.69 1251.74 1195.33 1251.74 Q1195.88 1251.74 1197.04 1252.19 Q1198.17 1252.61 1199.65 1253.55 Q1201.1 1254.45 1202.42 1255.64 Q1203.71 1256.83 1204.61 1258.6 Q1205.51 1260.37 1205.51 1262.31 Q1205.51 1265.08 1204.03 1266.91 Q1202.55 1268.75 1200.49 1269.42 Q1200.78 1269.58 1201.16 1269.81 Q1201.55 1270.03 1202.42 1270.71 Q1203.26 1271.36 1203.9 1272.1 Q1204.51 1272.84 1205 1274 Q1205.51 1275.12 1205.51 1276.35 Q1205.51 1277.89 1205.06 1279.28 Q1204.61 1280.63 1203.58 1281.6 Q1202.55 1282.56 1201.13 1282.56 Q1199.55 1282.56 1198.46 1281.5 Q1197.33 1280.41 1197.33 1278.92 Q1197.33 1277.99 1197.88 1277.25 Q1198.43 1276.48 1199.62 1276.48 Q1200.94 1276.48 1201.94 1277.38 Q1202.93 1278.28 1203.19 1279.57 Q1204.03 1278.25 1204.03 1276.28 Q1204.03 1274.16 1202.16 1272.48 Q1200.29 1270.81 1197.17 1270 Q1189.67 1268.01 1186.32 1267.23 Q1182.93 1266.46 1181.49 1266.46 Q1180.13 1266.46 1179.2 1266.81 Q1178.27 1267.17 1177.85 1267.78 Q1177.4 1268.36 1177.23 1268.91 Q1177.07 1269.42 1177.07 1270 Q1177.07 1270.97 1177.46 1272.06 Q1177.85 1273.13 1178.75 1274.41 Q1179.62 1275.67 1181.42 1276.86 Q1183.22 1278.05 1185.7 1278.86 Q1186.45 1279.02 1186.45 1279.73 Q1186.41 1280.5 1185.77 1280.5 Q1185.22 1280.5 1184.09 1280.08 Q1182.93 1279.63 1181.49 1278.73 Q1180.04 1277.8 1178.75 1276.6 Q1177.43 1275.38 1176.53 1273.61 Q1175.62 1271.81 1175.62 1269.87 Q1175.62 1269 1175.82 1268.17 Q1175.98 1267.3 1176.46 1266.27 Q1176.94 1265.2 1178.01 1264.27 Q1179.07 1263.34 1180.62 1262.76 Q1179.88 1262.37 1179.17 1261.85 Q1178.46 1261.31 1177.59 1260.47 Q1176.69 1259.6 1176.17 1258.41 Q1175.62 1257.18 1175.62 1255.83 Q1175.62 1254.51 1175.98 1253.22 Q1176.3 1251.94 1177.36 1250.84 Q1178.39 1249.71 1179.97 1249.71 Z" fill="#000000" fill-rule="nonzero" fill-opacity="1" /><path clip-path="url(#clip250)" d="M1217.56 1242.25 Q1216.18 1242.25 1215.53 1241.46 Q1214.88 1240.68 1214.88 1239.66 Q1214.88 1238.6 1215.58 1237.86 Q1216.25 1237.09 1217.45 1237.09 Q1218.73 1237.09 1219.45 1237.99 Q1220.17 1238.87 1219.99 1240.13 Q1221.84 1239.03 1222.68 1237 Q1223.51 1234.95 1223.51 1233.06 Q1223.51 1231.07 1221.8 1229.47 Q1220.08 1227.85 1215.89 1227.85 Q1212.33 1227.85 1210.28 1229.25 Q1208.23 1230.62 1208.23 1233.35 L1208.23 1235.38 Q1208.23 1236.08 1208.16 1236.28 Q1208.09 1236.48 1207.71 1236.48 Q1207.26 1236.48 1207.17 1235.78 Q1207.17 1235.08 1207.03 1233.98 Q1206.94 1231.3 1204.62 1229.88 Q1202.45 1228.59 1199.37 1228.59 Q1196.55 1228.59 1195.38 1229.94 Q1194.18 1231.27 1194.18 1233.01 Q1194.18 1234.63 1194.86 1236.41 Q1195.53 1238.2 1197.04 1239.17 Q1197.04 1236.3 1199.37 1236.3 Q1200.38 1236.3 1201.06 1236.96 Q1201.71 1237.59 1201.71 1238.65 Q1201.71 1239.66 1201.08 1240.34 Q1200.43 1241.01 1199.32 1241.01 Q1196.68 1241.01 1194.86 1238.67 Q1193.03 1236.3 1193.03 1232.83 Q1193.03 1229.4 1194.83 1226.88 Q1196.64 1224.33 1199.41 1224.33 Q1202.14 1224.33 1204.37 1226.13 Q1206.6 1227.94 1207.53 1230.8 Q1208.23 1227.28 1210.62 1225.19 Q1212.98 1223.09 1215.89 1223.09 Q1219.5 1223.09 1222.16 1225.93 Q1224.8 1228.77 1224.8 1232.92 Q1224.8 1236.75 1222.72 1239.5 Q1220.65 1242.25 1217.56 1242.25 Z" fill="#000000" fill-rule="nonzero" fill-opacity="1" /><polyline clip-path="url(#clip255)" style="stroke:#e26f46; stroke-linecap:round; stroke-linejoin:round; stroke-width:3; stroke-opacity:1; fill:none" stroke-dasharray="12, 6, 2, 6" points="1485.51,1279.09 1510.27,1081.68 1535.04,1400.8 1559.8,1389.04 1584.57,1390.88 1609.33,1413.23 1634.09,1395.48 1658.86,1382.06 1683.62,1395.94 1708.39,1365.24 1733.15,1355.46 1757.92,1353.96 1782.68,1292.81 1807.44,1293.8 1832.21,1325.37 1856.97,1326.06 1881.74,1306.3 1906.5,1293.85 1931.27,1324.54 1956.03,1277.77 1980.8,1295.87 2005.56,1316.25 2030.32,1294.13 2055.09,1284.1 2079.85,1313.79 2104.62,1307.36 2129.38,1285.85 2154.15,1275.27 2178.91,1276.33 2203.67,1281.57 2228.44,1288.92 2253.2,1264.71 2277.97,1314.47 2302.73,1267.95 2327.5,1279.07 "/>
</svg>
