<?xml version="1.0" encoding="utf-8"?>
<svg xmlns="http://www.w3.org/2000/svg" xmlns:xlink="http://www.w3.org/1999/xlink" width="600" height="400" viewBox="0 0 2400 1600">
<defs>
  <clipPath id="clip340">
    <rect x="0" y="0" width="2400" height="1600"/>
  </clipPath>
</defs>
<path clip-path="url(#clip340)" d="M0 1600 L2400 1600 L2400 0 L0 0  Z" fill="#ffffff" fill-rule="evenodd" fill-opacity="1"/>
<defs>
  <clipPath id="clip341">
    <rect x="480" y="0" width="1681" height="1600"/>
  </clipPath>
</defs>
<path clip-path="url(#clip340)" d="M203.964 1423.18 L1110.81 1423.18 L1110.81 47.2441 L203.964 47.2441  Z" fill="#ffffff" fill-rule="evenodd" fill-opacity="1"/>
<defs>
  <clipPath id="clip342">
    <rect x="203" y="47" width="908" height="1377"/>
  </clipPath>
</defs>
<polyline clip-path="url(#clip342)" style="stroke:#000000; stroke-linecap:round; stroke-linejoin:round; stroke-width:2; stroke-opacity:0.1; fill:none" points="229.629,1423.18 229.629,47.2441 "/>
<polyline clip-path="url(#clip342)" style="stroke:#000000; stroke-linecap:round; stroke-linejoin:round; stroke-width:2; stroke-opacity:0.1; fill:none" points="481.252,1423.18 481.252,47.2441 "/>
<polyline clip-path="url(#clip342)" style="stroke:#000000; stroke-linecap:round; stroke-linejoin:round; stroke-width:2; stroke-opacity:0.1; fill:none" points="732.874,1423.18 732.874,47.2441 "/>
<polyline clip-path="url(#clip342)" style="stroke:#000000; stroke-linecap:round; stroke-linejoin:round; stroke-width:2; stroke-opacity:0.1; fill:none" points="984.497,1423.18 984.497,47.2441 "/>
<polyline clip-path="url(#clip340)" style="stroke:#000000; stroke-linecap:round; stroke-linejoin:round; stroke-width:4; stroke-opacity:1; fill:none" points="203.964,1423.18 1110.81,1423.18 "/>
<polyline clip-path="url(#clip340)" style="stroke:#000000; stroke-linecap:round; stroke-linejoin:round; stroke-width:4; stroke-opacity:1; fill:none" points="229.629,1423.18 229.629,1404.28 "/>
<polyline clip-path="url(#clip340)" style="stroke:#000000; stroke-linecap:round; stroke-linejoin:round; stroke-width:4; stroke-opacity:1; fill:none" points="481.252,1423.18 481.252,1404.28 "/>
<polyline clip-path="url(#clip340)" style="stroke:#000000; stroke-linecap:round; stroke-linejoin:round; stroke-width:4; stroke-opacity:1; fill:none" points="732.874,1423.18 732.874,1404.28 "/>
<polyline clip-path="url(#clip340)" style="stroke:#000000; stroke-linecap:round; stroke-linejoin:round; stroke-width:4; stroke-opacity:1; fill:none" points="984.497,1423.18 984.497,1404.28 "/>
<path clip-path="url(#clip340)" d="M229.629 1454.1 Q226.018 1454.1 224.189 1457.66 Q222.384 1461.2 222.384 1468.33 Q222.384 1475.44 224.189 1479.01 Q226.018 1482.55 229.629 1482.55 Q233.263 1482.55 235.069 1479.01 Q236.898 1475.44 236.898 1468.33 Q236.898 1461.2 235.069 1457.66 Q233.263 1454.1 229.629 1454.1 M229.629 1450.39 Q235.439 1450.39 238.495 1455 Q241.573 1459.58 241.573 1468.33 Q241.573 1477.06 238.495 1481.67 Q235.439 1486.25 229.629 1486.25 Q223.819 1486.25 220.74 1481.67 Q217.685 1477.06 217.685 1468.33 Q217.685 1459.58 220.74 1455 Q223.819 1450.39 229.629 1450.39 Z" fill="#000000" fill-rule="nonzero" fill-opacity="1" /><path clip-path="url(#clip340)" d="M471.634 1481.64 L479.273 1481.64 L479.273 1455.28 L470.962 1456.95 L470.962 1452.69 L479.226 1451.02 L483.902 1451.02 L483.902 1481.64 L491.541 1481.64 L491.541 1485.58 L471.634 1485.58 L471.634 1481.64 Z" fill="#000000" fill-rule="nonzero" fill-opacity="1" /><path clip-path="url(#clip340)" d="M727.527 1481.64 L743.847 1481.64 L743.847 1485.58 L721.902 1485.58 L721.902 1481.64 Q724.564 1478.89 729.148 1474.26 Q733.754 1469.61 734.935 1468.27 Q737.18 1465.74 738.06 1464.01 Q738.962 1462.25 738.962 1460.56 Q738.962 1457.8 737.018 1456.07 Q735.097 1454.33 731.995 1454.33 Q729.796 1454.33 727.342 1455.09 Q724.912 1455.86 722.134 1457.41 L722.134 1452.69 Q724.958 1451.55 727.411 1450.97 Q729.865 1450.39 731.902 1450.39 Q737.273 1450.39 740.467 1453.08 Q743.661 1455.77 743.661 1460.26 Q743.661 1462.39 742.851 1464.31 Q742.064 1466.2 739.958 1468.8 Q739.379 1469.47 736.277 1472.69 Q733.175 1475.88 727.527 1481.64 Z" fill="#000000" fill-rule="nonzero" fill-opacity="1" /><path clip-path="url(#clip340)" d="M988.745 1466.95 Q992.101 1467.66 993.976 1469.93 Q995.874 1472.2 995.874 1475.53 Q995.874 1480.65 992.356 1483.45 Q988.837 1486.25 982.356 1486.25 Q980.18 1486.25 977.865 1485.81 Q975.574 1485.39 973.12 1484.54 L973.12 1480.02 Q975.064 1481.16 977.379 1481.74 Q979.694 1482.32 982.217 1482.32 Q986.615 1482.32 988.907 1480.58 Q991.222 1478.84 991.222 1475.53 Q991.222 1472.48 989.069 1470.77 Q986.939 1469.03 983.12 1469.03 L979.092 1469.03 L979.092 1465.19 L983.305 1465.19 Q986.754 1465.19 988.583 1463.82 Q990.411 1462.43 990.411 1459.84 Q990.411 1457.18 988.513 1455.77 Q986.638 1454.33 983.12 1454.33 Q981.199 1454.33 978.999 1454.75 Q976.8 1455.16 974.162 1456.04 L974.162 1451.88 Q976.824 1451.14 979.138 1450.77 Q981.476 1450.39 983.536 1450.39 Q988.861 1450.39 991.962 1452.83 Q995.064 1455.23 995.064 1459.35 Q995.064 1462.22 993.421 1464.21 Q991.777 1466.18 988.745 1466.95 Z" fill="#000000" fill-rule="nonzero" fill-opacity="1" /><path clip-path="url(#clip340)" d="M527.559 1520.52 L567.758 1520.52 L567.758 1525.93 L550.889 1525.93 L550.889 1568.04 L544.428 1568.04 L544.428 1525.93 L527.559 1525.93 L527.559 1520.52 Z" fill="#000000" fill-rule="nonzero" fill-opacity="1" /><path clip-path="url(#clip340)" d="M571.705 1532.4 L577.562 1532.4 L577.562 1568.04 L571.705 1568.04 L571.705 1532.4 M571.705 1518.52 L577.562 1518.52 L577.562 1525.93 L571.705 1525.93 L571.705 1518.52 Z" fill="#000000" fill-rule="nonzero" fill-opacity="1" /><path clip-path="url(#clip340)" d="M617.57 1539.24 Q619.766 1535.29 622.822 1533.41 Q625.877 1531.54 630.015 1531.54 Q635.585 1531.54 638.609 1535.45 Q641.633 1539.33 641.633 1546.53 L641.633 1568.04 L635.744 1568.04 L635.744 1546.72 Q635.744 1541.59 633.93 1539.11 Q632.116 1536.63 628.392 1536.63 Q623.84 1536.63 621.199 1539.65 Q618.557 1542.68 618.557 1547.9 L618.557 1568.04 L612.669 1568.04 L612.669 1546.72 Q612.669 1541.56 610.854 1539.11 Q609.04 1536.63 605.252 1536.63 Q600.765 1536.63 598.123 1539.68 Q595.481 1542.71 595.481 1547.9 L595.481 1568.04 L589.593 1568.04 L589.593 1532.4 L595.481 1532.4 L595.481 1537.93 Q597.486 1534.66 600.287 1533.1 Q603.088 1531.54 606.939 1531.54 Q610.822 1531.54 613.528 1533.51 Q616.265 1535.48 617.57 1539.24 Z" fill="#000000" fill-rule="nonzero" fill-opacity="1" /><path clip-path="url(#clip340)" d="M683.805 1548.76 L683.805 1551.62 L656.878 1551.62 Q657.26 1557.67 660.507 1560.85 Q663.785 1564 669.61 1564 Q672.984 1564 676.135 1563.17 Q679.317 1562.35 682.437 1560.69 L682.437 1566.23 Q679.286 1567.57 675.975 1568.27 Q672.665 1568.97 669.26 1568.97 Q660.73 1568.97 655.733 1564 Q650.767 1559.04 650.767 1550.57 Q650.767 1541.82 655.478 1536.69 Q660.22 1531.54 668.241 1531.54 Q675.434 1531.54 679.604 1536.18 Q683.805 1540.8 683.805 1548.76 M677.949 1547.04 Q677.885 1542.23 675.243 1539.37 Q672.633 1536.5 668.305 1536.5 Q663.403 1536.5 660.443 1539.27 Q657.515 1542.04 657.069 1547.07 L677.949 1547.04 Z" fill="#000000" fill-rule="nonzero" fill-opacity="1" /><path clip-path="url(#clip340)" d="M728.206 1518.58 Q723.941 1525.9 721.872 1533.06 Q719.803 1540.23 719.803 1547.58 Q719.803 1554.93 721.872 1562.16 Q723.973 1569.35 728.206 1576.64 L723.114 1576.64 Q718.339 1569.16 715.952 1561.93 Q713.597 1554.71 713.597 1547.58 Q713.597 1540.48 715.952 1533.29 Q718.307 1526.09 723.114 1518.58 L728.206 1518.58 Z" fill="#000000" fill-rule="nonzero" fill-opacity="1" /><path clip-path="url(#clip340)" d="M762.294 1533.45 L762.294 1538.98 Q759.812 1537.71 757.138 1537.07 Q754.465 1536.44 751.6 1536.44 Q747.24 1536.44 745.043 1537.77 Q742.879 1539.11 742.879 1541.79 Q742.879 1543.82 744.439 1545 Q745.998 1546.15 750.709 1547.2 L752.714 1547.64 Q758.952 1548.98 761.562 1551.43 Q764.204 1553.85 764.204 1558.21 Q764.204 1563.17 760.257 1566.07 Q756.343 1568.97 749.468 1568.97 Q746.603 1568.97 743.484 1568.39 Q740.396 1567.85 736.959 1566.74 L736.959 1560.69 Q740.205 1562.38 743.356 1563.24 Q746.508 1564.07 749.595 1564.07 Q753.733 1564.07 755.961 1562.66 Q758.189 1561.23 758.189 1558.65 Q758.189 1556.27 756.565 1554.99 Q754.974 1553.72 749.531 1552.54 L747.494 1552.07 Q742.052 1550.92 739.633 1548.56 Q737.214 1546.18 737.214 1542.04 Q737.214 1537.01 740.778 1534.27 Q744.343 1531.54 750.9 1531.54 Q754.146 1531.54 757.011 1532.01 Q759.876 1532.49 762.294 1533.45 Z" fill="#000000" fill-rule="nonzero" fill-opacity="1" /><path clip-path="url(#clip340)" d="M772.607 1518.58 L777.699 1518.58 Q782.474 1526.09 784.829 1533.29 Q787.216 1540.48 787.216 1547.58 Q787.216 1554.71 784.829 1561.93 Q782.474 1569.16 777.699 1576.64 L772.607 1576.64 Q776.84 1569.35 778.909 1562.16 Q781.01 1554.93 781.01 1547.58 Q781.01 1540.23 778.909 1533.06 Q776.84 1525.9 772.607 1518.58 Z" fill="#000000" fill-rule="nonzero" fill-opacity="1" /><polyline clip-path="url(#clip342)" style="stroke:#000000; stroke-linecap:round; stroke-linejoin:round; stroke-width:2; stroke-opacity:0.1; fill:none" points="203.964,1370.69 1110.81,1370.69 "/>
<polyline clip-path="url(#clip342)" style="stroke:#000000; stroke-linecap:round; stroke-linejoin:round; stroke-width:2; stroke-opacity:0.1; fill:none" points="203.964,1011.58 1110.81,1011.58 "/>
<polyline clip-path="url(#clip342)" style="stroke:#000000; stroke-linecap:round; stroke-linejoin:round; stroke-width:2; stroke-opacity:0.1; fill:none" points="203.964,652.471 1110.81,652.471 "/>
<polyline clip-path="url(#clip342)" style="stroke:#000000; stroke-linecap:round; stroke-linejoin:round; stroke-width:2; stroke-opacity:0.1; fill:none" points="203.964,293.359 1110.81,293.359 "/>
<polyline clip-path="url(#clip340)" style="stroke:#000000; stroke-linecap:round; stroke-linejoin:round; stroke-width:4; stroke-opacity:1; fill:none" points="203.964,1423.18 203.964,47.2441 "/>
<polyline clip-path="url(#clip340)" style="stroke:#000000; stroke-linecap:round; stroke-linejoin:round; stroke-width:4; stroke-opacity:1; fill:none" points="203.964,1370.69 222.861,1370.69 "/>
<polyline clip-path="url(#clip340)" style="stroke:#000000; stroke-linecap:round; stroke-linejoin:round; stroke-width:4; stroke-opacity:1; fill:none" points="203.964,1011.58 222.861,1011.58 "/>
<polyline clip-path="url(#clip340)" style="stroke:#000000; stroke-linecap:round; stroke-linejoin:round; stroke-width:4; stroke-opacity:1; fill:none" points="203.964,652.471 222.861,652.471 "/>
<polyline clip-path="url(#clip340)" style="stroke:#000000; stroke-linecap:round; stroke-linejoin:round; stroke-width:4; stroke-opacity:1; fill:none" points="203.964,293.359 222.861,293.359 "/>
<path clip-path="url(#clip340)" d="M156.019 1356.49 Q152.408 1356.49 150.579 1360.06 Q148.774 1363.6 148.774 1370.73 Q148.774 1377.84 150.579 1381.4 Q152.408 1384.94 156.019 1384.94 Q159.653 1384.94 161.459 1381.4 Q163.288 1377.84 163.288 1370.73 Q163.288 1363.6 161.459 1360.06 Q159.653 1356.49 156.019 1356.49 M156.019 1352.79 Q161.829 1352.79 164.885 1357.4 Q167.964 1361.98 167.964 1370.73 Q167.964 1379.46 164.885 1384.06 Q161.829 1388.65 156.019 1388.65 Q150.209 1388.65 147.13 1384.06 Q144.075 1379.46 144.075 1370.73 Q144.075 1361.98 147.13 1357.4 Q150.209 1352.79 156.019 1352.79 Z" fill="#000000" fill-rule="nonzero" fill-opacity="1" /><path clip-path="url(#clip340)" d="M116.668 1024.93 L124.306 1024.93 L124.306 998.562 L115.996 1000.23 L115.996 995.969 L124.26 994.303 L128.936 994.303 L128.936 1024.93 L136.575 1024.93 L136.575 1028.86 L116.668 1028.86 L116.668 1024.93 Z" fill="#000000" fill-rule="nonzero" fill-opacity="1" /><path clip-path="url(#clip340)" d="M156.019 997.381 Q152.408 997.381 150.579 1000.95 Q148.774 1004.49 148.774 1011.62 Q148.774 1018.72 150.579 1022.29 Q152.408 1025.83 156.019 1025.83 Q159.653 1025.83 161.459 1022.29 Q163.288 1018.72 163.288 1011.62 Q163.288 1004.49 161.459 1000.95 Q159.653 997.381 156.019 997.381 M156.019 993.678 Q161.829 993.678 164.885 998.284 Q167.964 1002.87 167.964 1011.62 Q167.964 1020.34 164.885 1024.95 Q161.829 1029.53 156.019 1029.53 Q150.209 1029.53 147.13 1024.95 Q144.075 1020.34 144.075 1011.62 Q144.075 1002.87 147.13 998.284 Q150.209 993.678 156.019 993.678 Z" fill="#000000" fill-rule="nonzero" fill-opacity="1" /><path clip-path="url(#clip340)" d="M119.885 665.816 L136.204 665.816 L136.204 669.751 L114.26 669.751 L114.26 665.816 Q116.922 663.061 121.505 658.432 Q126.112 653.779 127.292 652.436 Q129.538 649.913 130.417 648.177 Q131.32 646.418 131.32 644.728 Q131.32 641.973 129.376 640.237 Q127.455 638.501 124.353 638.501 Q122.154 638.501 119.7 639.265 Q117.269 640.029 114.492 641.58 L114.492 636.858 Q117.316 635.723 119.769 635.145 Q122.223 634.566 124.26 634.566 Q129.63 634.566 132.825 637.251 Q136.019 639.936 136.019 644.427 Q136.019 646.557 135.209 648.478 Q134.422 650.376 132.316 652.969 Q131.737 653.64 128.635 656.857 Q125.533 660.052 119.885 665.816 Z" fill="#000000" fill-rule="nonzero" fill-opacity="1" /><path clip-path="url(#clip340)" d="M156.019 638.27 Q152.408 638.27 150.579 641.834 Q148.774 645.376 148.774 652.506 Q148.774 659.612 150.579 663.177 Q152.408 666.719 156.019 666.719 Q159.653 666.719 161.459 663.177 Q163.288 659.612 163.288 652.506 Q163.288 645.376 161.459 641.834 Q159.653 638.27 156.019 638.27 M156.019 634.566 Q161.829 634.566 164.885 639.172 Q167.964 643.756 167.964 652.506 Q167.964 661.232 164.885 665.839 Q161.829 670.422 156.019 670.422 Q150.209 670.422 147.13 665.839 Q144.075 661.232 144.075 652.506 Q144.075 643.756 147.13 639.172 Q150.209 634.566 156.019 634.566 Z" fill="#000000" fill-rule="nonzero" fill-opacity="1" /><path clip-path="url(#clip340)" d="M130.024 292.005 Q133.38 292.723 135.255 294.991 Q137.154 297.26 137.154 300.593 Q137.154 305.709 133.635 308.51 Q130.117 311.311 123.635 311.311 Q121.459 311.311 119.144 310.871 Q116.853 310.454 114.399 309.598 L114.399 305.084 Q116.343 306.218 118.658 306.797 Q120.973 307.375 123.496 307.375 Q127.894 307.375 130.186 305.639 Q132.501 303.903 132.501 300.593 Q132.501 297.537 130.348 295.825 Q128.218 294.088 124.399 294.088 L120.371 294.088 L120.371 290.246 L124.584 290.246 Q128.033 290.246 129.862 288.88 Q131.691 287.491 131.691 284.899 Q131.691 282.237 129.792 280.825 Q127.917 279.389 124.399 279.389 Q122.478 279.389 120.279 279.806 Q118.08 280.223 115.441 281.102 L115.441 276.936 Q118.103 276.195 120.418 275.825 Q122.755 275.454 124.816 275.454 Q130.14 275.454 133.242 277.885 Q136.343 280.292 136.343 284.413 Q136.343 287.283 134.7 289.274 Q133.056 291.241 130.024 292.005 Z" fill="#000000" fill-rule="nonzero" fill-opacity="1" /><path clip-path="url(#clip340)" d="M156.019 279.158 Q152.408 279.158 150.579 282.723 Q148.774 286.264 148.774 293.394 Q148.774 300.5 150.579 304.065 Q152.408 307.607 156.019 307.607 Q159.653 307.607 161.459 304.065 Q163.288 300.5 163.288 293.394 Q163.288 286.264 161.459 282.723 Q159.653 279.158 156.019 279.158 M156.019 275.454 Q161.829 275.454 164.885 280.061 Q167.964 284.644 167.964 293.394 Q167.964 302.121 164.885 306.727 Q161.829 311.311 156.019 311.311 Q150.209 311.311 147.13 306.727 Q144.075 302.121 144.075 293.394 Q144.075 284.644 147.13 280.061 Q150.209 275.454 156.019 275.454 Z" fill="#000000" fill-rule="nonzero" fill-opacity="1" /><path clip-path="url(#clip340)" d="M21.7178 734.435 Q22.1687 734.435 23.2315 734.724 L48.4165 741.037 Q54.0203 742.422 57.9494 746.93 Q61.8785 751.407 61.8785 756.496 Q61.8785 759.555 60.236 761.52 Q58.6257 763.484 56.1459 763.484 Q53.9559 763.484 52.8931 762.325 Q51.8625 761.165 51.8625 759.781 Q51.8625 759.33 51.9913 758.847 Q52.1201 758.364 52.6676 757.848 Q53.2151 757.333 54.1491 757.333 Q55.6628 757.333 56.8544 758.653 Q57.4019 759.298 57.5307 759.909 Q57.6596 760.489 57.6596 761.488 Q58.5613 761.101 59.1732 760.393 Q59.7851 759.684 60.0106 758.879 Q60.2682 758.074 60.3326 757.558 Q60.4293 757.011 60.4293 756.496 Q60.4293 752.373 56.2747 749.217 Q55.0187 748.283 53.7626 747.607 Q52.5388 746.898 51.0252 746.383 Q49.5437 745.868 48.7385 745.642 Q47.9334 745.385 46.0977 744.934 Q49.0928 747.929 49.0928 751.6 Q49.0928 753.146 48.6741 754.531 Q48.2554 755.884 47.3859 757.075 Q46.4841 758.267 44.906 758.975 Q43.3279 759.652 41.2346 759.652 Q39.0124 759.652 35.985 758.782 Q32.9577 757.913 27.386 755.819 Q24.2621 754.692 22.7484 754.692 Q22.0077 754.692 21.5568 754.853 Q21.0737 755.014 20.9127 755.336 Q20.7194 755.658 20.6872 755.852 Q20.655 756.013 20.655 756.335 Q20.655 758.235 22.5874 760.006 Q24.5197 761.777 28.8353 763.001 Q29.6405 763.259 29.8337 763.42 Q30.0269 763.581 30.0269 764.064 Q29.9947 764.869 29.3506 764.869 Q29.093 764.869 28.0946 764.579 Q27.064 764.289 25.5503 763.613 Q24.0044 762.905 22.6196 761.938 Q21.2025 760.972 20.2041 759.459 Q19.2058 757.913 19.2058 756.141 Q19.2058 753.726 20.7838 752.244 Q22.3297 750.731 24.6163 750.731 Q25.5503 750.731 26.3877 750.988 Q27.1928 751.214 29.3506 752.051 Q38.0462 755.433 42.2974 755.433 Q43.3279 755.433 44.1975 755.272 Q45.0349 755.079 45.8722 754.66 Q46.6774 754.241 47.1604 753.404 Q47.6113 752.534 47.6113 751.343 Q47.6113 749.829 46.9028 748.412 Q46.1621 746.963 45.1637 746.061 Q44.1653 745.127 43.3279 744.579 Q42.4584 744 42.0075 743.871 L30.1558 740.908 L24.874 739.588 Q22.0077 738.976 21.2991 738.686 Q20.6228 738.299 20.2686 737.623 Q19.9143 736.947 19.9143 736.367 Q19.9143 735.562 20.3974 735.014 Q20.8805 734.435 21.7178 734.435 Z" fill="#000000" fill-rule="nonzero" fill-opacity="1" /><path clip-path="url(#clip340)" d="M53.6652 727.689 L52.2224 727.689 Q52.2224 722.143 49.2691 719.28 Q49.2691 718.491 49.4494 718.355 Q49.6298 718.22 50.4639 718.22 L76.3671 718.22 Q77.7423 718.22 78.1706 717.544 Q78.599 716.867 78.599 713.914 L78.599 712.449 L80.0193 712.449 Q79.884 714.072 79.884 719.933 Q79.884 725.795 80.0193 727.395 L78.599 727.395 L78.599 725.93 Q78.599 723.022 78.1932 722.323 Q77.7648 721.624 76.3671 721.624 L52.4478 721.624 Q53.6652 724.036 53.6652 727.689 Z" fill="#000000" fill-rule="nonzero" fill-opacity="1" /><polyline clip-path="url(#clip342)" style="stroke:#009af9; stroke-linecap:round; stroke-linejoin:round; stroke-width:4; stroke-opacity:1; fill:none" points="229.629,1334.22 254.791,1384.24 279.954,1169.81 305.116,837.675 330.278,499.934 355.44,278.329 380.603,116.517 405.765,131.041 430.927,185.806 456.089,281.828 481.252,394.774 506.414,465.546 531.576,570.159 556.739,586.042 581.901,605.056 607.063,574.136 632.225,554.669 657.388,481.111 682.55,445.97 707.712,461.789 732.874,431.02 758.037,439.42 783.199,390.43 808.361,501.582 833.524,481.412 858.686,477.762 883.848,448.586 909.01,473.531 934.173,479.139 959.335,449.308 984.497,494.622 1009.66,450.579 1034.82,479.353 1059.98,501.075 1085.15,474.721 "/>
<polyline clip-path="url(#clip342)" style="stroke:#e26f46; stroke-linecap:round; stroke-linejoin:round; stroke-width:3; stroke-opacity:1; fill:none" stroke-dasharray="12, 6, 2, 6" points="229.629,1370.69 254.791,1334.23 279.954,1184.39 305.116,814.197 330.278,468.021 355.44,212.2 380.603,141.229 405.765,86.1857 430.927,224.629 456.089,322.401 481.252,426.029 506.414,521.073 531.576,542.011 556.739,626.917 581.901,583.792 607.063,582.752 632.225,526.707 657.388,512.786 682.55,426.93 707.712,416.617 732.874,468.984 758.037,429.592 783.199,453.064 808.361,383.191 833.524,556.944 858.686,489.139 883.848,475.368 909.01,433.06 934.173,480.01 959.335,482.825 984.497,436.383 1009.66,510.722 1034.82,434.756 1059.98,487.441 1085.15,511.694 "/>
<path clip-path="url(#clip340)" d="M961.069 248.629 L1080.58 248.629 L1080.58 93.1086 L961.069 93.1086  Z" fill="#ffffff" fill-rule="evenodd" fill-opacity="1"/>
<polyline clip-path="url(#clip340)" style="stroke:#000000; stroke-linecap:round; stroke-linejoin:round; stroke-width:4; stroke-opacity:1; fill:none" points="961.069,248.629 1080.58,248.629 1080.58,93.1086 961.069,93.1086 961.069,248.629 "/>
<polyline clip-path="url(#clip340)" style="stroke:#009af9; stroke-linecap:round; stroke-linejoin:round; stroke-width:4; stroke-opacity:1; fill:none" points="971.145,144.949 1031.6,144.949 "/>
<path clip-path="url(#clip340)" d="M1068.45 131.687 Q1066.97 131.687 1066.22 131.828 Q1065.48 131.945 1065.29 132.109 Q1065.1 132.273 1064.89 132.695 L1054.58 154.618 Q1053.48 156.96 1051.42 158.647 Q1049.38 160.333 1046.81 160.333 Q1044.65 160.333 1043.15 159.021 Q1041.68 157.733 1041.68 155.906 Q1041.68 154.595 1042.5 153.845 Q1043.32 153.119 1044.42 153.119 Q1045.64 153.119 1046.41 153.892 Q1047.21 154.665 1047.21 155.859 Q1047.21 156.632 1046.88 157.218 Q1046.55 157.827 1046.25 158.038 Q1045.96 158.272 1045.66 158.412 Q1046.15 158.6 1046.81 158.6 Q1047.79 158.6 1048.63 158.202 Q1049.5 157.827 1050.06 157.312 Q1050.65 156.82 1051.23 155.93 Q1051.82 155.063 1052.1 154.501 Q1052.38 153.962 1052.8 153.025 L1053.9 150.73 L1044.93 131.687 L1041.87 131.687 L1041.87 129.439 L1047.35 129.579 L1053.3 129.439 L1053.3 131.687 L1050.7 131.687 L1056.79 144.64 L1062.31 132.835 L1062.55 132.273 Q1062.55 132.015 1061.99 131.875 Q1061.42 131.711 1060.86 131.711 L1060.3 131.687 L1060.3 129.439 L1064.66 129.579 Q1066.72 129.579 1068.45 129.439 L1068.45 131.687 Z" fill="#000000" fill-rule="nonzero" fill-opacity="1" /><polyline clip-path="url(#clip340)" style="stroke:#e26f46; stroke-linecap:round; stroke-linejoin:round; stroke-width:3; stroke-opacity:1; fill:none" stroke-dasharray="12, 6, 2, 6" points="971.145,196.789 1031.6,196.789 "/>
<path clip-path="url(#clip340)" d="M1064.26 180.509 L1063.85 181.181 Q1061.31 180.083 1058.15 178.328 Q1054.98 180.083 1052.44 181.181 L1052.05 180.509 Q1054.82 178.099 1058.15 176.246 Q1061.51 178.115 1064.26 180.509 Z" fill="#000000" fill-rule="nonzero" fill-opacity="1" /><path clip-path="url(#clip340)" d="M1068.45 188.532 Q1066.97 188.532 1066.22 188.672 Q1065.48 188.79 1065.29 188.954 Q1065.1 189.118 1064.89 189.539 L1054.58 211.463 Q1053.48 213.805 1051.42 215.491 Q1049.38 217.178 1046.81 217.178 Q1044.65 217.178 1043.15 215.866 Q1041.68 214.578 1041.68 212.751 Q1041.68 211.439 1042.5 210.69 Q1043.32 209.963 1044.42 209.963 Q1045.64 209.963 1046.41 210.736 Q1047.21 211.509 1047.21 212.704 Q1047.21 213.477 1046.88 214.062 Q1046.55 214.671 1046.25 214.882 Q1045.96 215.116 1045.66 215.257 Q1046.15 215.444 1046.81 215.444 Q1047.79 215.444 1048.63 215.046 Q1049.5 214.671 1050.06 214.156 Q1050.65 213.664 1051.23 212.774 Q1051.82 211.908 1052.1 211.345 Q1052.38 210.807 1052.8 209.87 L1053.9 207.574 L1044.93 188.532 L1041.87 188.532 L1041.87 186.283 L1047.35 186.424 L1053.3 186.283 L1053.3 188.532 L1050.7 188.532 L1056.79 201.485 L1062.31 189.68 L1062.55 189.118 Q1062.55 188.86 1061.99 188.719 Q1061.42 188.555 1060.86 188.555 L1060.3 188.532 L1060.3 186.283 L1064.66 186.424 Q1066.72 186.424 1068.45 186.283 L1068.45 188.532 Z" fill="#000000" fill-rule="nonzero" fill-opacity="1" /><path clip-path="url(#clip340)" d="M1445.91 398.692 L2352.76 398.692 L2352.76 47.2441 L1445.91 47.2441  Z" fill="#ffffff" fill-rule="evenodd" fill-opacity="1"/>
<defs>
  <clipPath id="clip343">
    <rect x="1445" y="47" width="908" height="352"/>
  </clipPath>
</defs>
<polyline clip-path="url(#clip343)" style="stroke:#000000; stroke-linecap:round; stroke-linejoin:round; stroke-width:2; stroke-opacity:0.1; fill:none" points="1471.57,398.692 1471.57,47.2441 "/>
<polyline clip-path="url(#clip343)" style="stroke:#000000; stroke-linecap:round; stroke-linejoin:round; stroke-width:2; stroke-opacity:0.1; fill:none" points="1723.2,398.692 1723.2,47.2441 "/>
<polyline clip-path="url(#clip343)" style="stroke:#000000; stroke-linecap:round; stroke-linejoin:round; stroke-width:2; stroke-opacity:0.1; fill:none" points="1974.82,398.692 1974.82,47.2441 "/>
<polyline clip-path="url(#clip343)" style="stroke:#000000; stroke-linecap:round; stroke-linejoin:round; stroke-width:2; stroke-opacity:0.1; fill:none" points="2226.44,398.692 2226.44,47.2441 "/>
<polyline clip-path="url(#clip340)" style="stroke:#000000; stroke-linecap:round; stroke-linejoin:round; stroke-width:4; stroke-opacity:1; fill:none" points="1445.91,398.692 2352.76,398.692 "/>
<polyline clip-path="url(#clip340)" style="stroke:#000000; stroke-linecap:round; stroke-linejoin:round; stroke-width:4; stroke-opacity:1; fill:none" points="1471.57,398.692 1471.57,379.794 "/>
<polyline clip-path="url(#clip340)" style="stroke:#000000; stroke-linecap:round; stroke-linejoin:round; stroke-width:4; stroke-opacity:1; fill:none" points="1723.2,398.692 1723.2,379.794 "/>
<polyline clip-path="url(#clip340)" style="stroke:#000000; stroke-linecap:round; stroke-linejoin:round; stroke-width:4; stroke-opacity:1; fill:none" points="1974.82,398.692 1974.82,379.794 "/>
<polyline clip-path="url(#clip340)" style="stroke:#000000; stroke-linecap:round; stroke-linejoin:round; stroke-width:4; stroke-opacity:1; fill:none" points="2226.44,398.692 2226.44,379.794 "/>
<path clip-path="url(#clip340)" d="M1471.57 429.611 Q1467.96 429.611 1466.13 433.175 Q1464.33 436.717 1464.33 443.847 Q1464.33 450.953 1466.13 454.518 Q1467.96 458.059 1471.57 458.059 Q1475.21 458.059 1477.01 454.518 Q1478.84 450.953 1478.84 443.847 Q1478.84 436.717 1477.01 433.175 Q1475.21 429.611 1471.57 429.611 M1471.57 425.907 Q1477.38 425.907 1480.44 430.513 Q1483.52 435.097 1483.52 443.847 Q1483.52 452.573 1480.44 457.18 Q1477.38 461.763 1471.57 461.763 Q1465.76 461.763 1462.68 457.18 Q1459.63 452.573 1459.63 443.847 Q1459.63 435.097 1462.68 430.513 Q1465.76 425.907 1471.57 425.907 Z" fill="#000000" fill-rule="nonzero" fill-opacity="1" /><path clip-path="url(#clip340)" d="M1713.58 457.157 L1721.22 457.157 L1721.22 430.791 L1712.91 432.458 L1712.91 428.199 L1721.17 426.532 L1725.85 426.532 L1725.85 457.157 L1733.49 457.157 L1733.49 461.092 L1713.58 461.092 L1713.58 457.157 Z" fill="#000000" fill-rule="nonzero" fill-opacity="1" /><path clip-path="url(#clip340)" d="M1969.47 457.157 L1985.79 457.157 L1985.79 461.092 L1963.85 461.092 L1963.85 457.157 Q1966.51 454.402 1971.09 449.772 Q1975.7 445.12 1976.88 443.777 Q1979.12 441.254 1980 439.518 Q1980.91 437.759 1980.91 436.069 Q1980.91 433.314 1978.96 431.578 Q1977.04 429.842 1973.94 429.842 Q1971.74 429.842 1969.29 430.606 Q1966.86 431.37 1964.08 432.921 L1964.08 428.199 Q1966.9 427.064 1969.36 426.486 Q1971.81 425.907 1973.85 425.907 Q1979.22 425.907 1982.41 428.592 Q1985.61 431.277 1985.61 435.768 Q1985.61 437.898 1984.8 439.819 Q1984.01 441.717 1981.9 444.31 Q1981.32 444.981 1978.22 448.198 Q1975.12 451.393 1969.47 457.157 Z" fill="#000000" fill-rule="nonzero" fill-opacity="1" /><path clip-path="url(#clip340)" d="M2230.69 442.458 Q2234.05 443.175 2235.92 445.444 Q2237.82 447.712 2237.82 451.046 Q2237.82 456.161 2234.3 458.962 Q2230.78 461.763 2224.3 461.763 Q2222.12 461.763 2219.81 461.323 Q2217.52 460.907 2215.06 460.05 L2215.06 455.536 Q2217.01 456.671 2219.32 457.249 Q2221.64 457.828 2224.16 457.828 Q2228.56 457.828 2230.85 456.092 Q2233.17 454.356 2233.17 451.046 Q2233.17 447.99 2231.01 446.277 Q2228.88 444.541 2225.06 444.541 L2221.04 444.541 L2221.04 440.698 L2225.25 440.698 Q2228.7 440.698 2230.53 439.333 Q2232.36 437.944 2232.36 435.351 Q2232.36 432.689 2230.46 431.277 Q2228.58 429.842 2225.06 429.842 Q2223.14 429.842 2220.94 430.259 Q2218.74 430.675 2216.11 431.555 L2216.11 427.388 Q2218.77 426.648 2221.08 426.277 Q2223.42 425.907 2225.48 425.907 Q2230.8 425.907 2233.91 428.337 Q2237.01 430.745 2237.01 434.865 Q2237.01 437.736 2235.36 439.726 Q2233.72 441.694 2230.69 442.458 Z" fill="#000000" fill-rule="nonzero" fill-opacity="1" /><polyline clip-path="url(#clip343)" style="stroke:#000000; stroke-linecap:round; stroke-linejoin:round; stroke-width:2; stroke-opacity:0.1; fill:none" points="1445.91,388.745 2352.76,388.745 "/>
<polyline clip-path="url(#clip343)" style="stroke:#000000; stroke-linecap:round; stroke-linejoin:round; stroke-width:2; stroke-opacity:0.1; fill:none" points="1445.91,335.636 2352.76,335.636 "/>
<polyline clip-path="url(#clip343)" style="stroke:#000000; stroke-linecap:round; stroke-linejoin:round; stroke-width:2; stroke-opacity:0.1; fill:none" points="1445.91,282.527 2352.76,282.527 "/>
<polyline clip-path="url(#clip343)" style="stroke:#000000; stroke-linecap:round; stroke-linejoin:round; stroke-width:2; stroke-opacity:0.1; fill:none" points="1445.91,229.418 2352.76,229.418 "/>
<polyline clip-path="url(#clip343)" style="stroke:#000000; stroke-linecap:round; stroke-linejoin:round; stroke-width:2; stroke-opacity:0.1; fill:none" points="1445.91,176.308 2352.76,176.308 "/>
<polyline clip-path="url(#clip343)" style="stroke:#000000; stroke-linecap:round; stroke-linejoin:round; stroke-width:2; stroke-opacity:0.1; fill:none" points="1445.91,123.199 2352.76,123.199 "/>
<polyline clip-path="url(#clip343)" style="stroke:#000000; stroke-linecap:round; stroke-linejoin:round; stroke-width:2; stroke-opacity:0.1; fill:none" points="1445.91,70.0898 2352.76,70.0898 "/>
<polyline clip-path="url(#clip340)" style="stroke:#000000; stroke-linecap:round; stroke-linejoin:round; stroke-width:4; stroke-opacity:1; fill:none" points="1445.91,398.692 1445.91,47.2441 "/>
<polyline clip-path="url(#clip340)" style="stroke:#000000; stroke-linecap:round; stroke-linejoin:round; stroke-width:4; stroke-opacity:1; fill:none" points="1445.91,388.745 1464.81,388.745 "/>
<polyline clip-path="url(#clip340)" style="stroke:#000000; stroke-linecap:round; stroke-linejoin:round; stroke-width:4; stroke-opacity:1; fill:none" points="1445.91,335.636 1464.81,335.636 "/>
<polyline clip-path="url(#clip340)" style="stroke:#000000; stroke-linecap:round; stroke-linejoin:round; stroke-width:4; stroke-opacity:1; fill:none" points="1445.91,282.527 1464.81,282.527 "/>
<polyline clip-path="url(#clip340)" style="stroke:#000000; stroke-linecap:round; stroke-linejoin:round; stroke-width:4; stroke-opacity:1; fill:none" points="1445.91,229.418 1464.81,229.418 "/>
<polyline clip-path="url(#clip340)" style="stroke:#000000; stroke-linecap:round; stroke-linejoin:round; stroke-width:4; stroke-opacity:1; fill:none" points="1445.91,176.308 1464.81,176.308 "/>
<polyline clip-path="url(#clip340)" style="stroke:#000000; stroke-linecap:round; stroke-linejoin:round; stroke-width:4; stroke-opacity:1; fill:none" points="1445.91,123.199 1464.81,123.199 "/>
<polyline clip-path="url(#clip340)" style="stroke:#000000; stroke-linecap:round; stroke-linejoin:round; stroke-width:4; stroke-opacity:1; fill:none" points="1445.91,70.0898 1464.81,70.0898 "/>
<path clip-path="url(#clip340)" d="M1352.73 374.544 Q1349.12 374.544 1347.29 378.109 Q1345.49 381.65 1345.49 388.78 Q1345.49 395.886 1347.29 399.451 Q1349.12 402.993 1352.73 402.993 Q1356.37 402.993 1358.17 399.451 Q1360 395.886 1360 388.78 Q1360 381.65 1358.17 378.109 Q1356.37 374.544 1352.73 374.544 M1352.73 370.84 Q1358.54 370.84 1361.6 375.447 Q1364.68 380.03 1364.68 388.78 Q1364.68 397.507 1361.6 402.113 Q1358.54 406.697 1352.73 406.697 Q1346.92 406.697 1343.84 402.113 Q1340.79 397.507 1340.79 388.78 Q1340.79 380.03 1343.84 375.447 Q1346.92 370.84 1352.73 370.84 Z" fill="#000000" fill-rule="nonzero" fill-opacity="1" /><path clip-path="url(#clip340)" d="M1372.89 400.146 L1377.78 400.146 L1377.78 406.025 L1372.89 406.025 L1372.89 400.146 Z" fill="#000000" fill-rule="nonzero" fill-opacity="1" /><path clip-path="url(#clip340)" d="M1397.96 374.544 Q1394.35 374.544 1392.52 378.109 Q1390.72 381.65 1390.72 388.78 Q1390.72 395.886 1392.52 399.451 Q1394.35 402.993 1397.96 402.993 Q1401.6 402.993 1403.4 399.451 Q1405.23 395.886 1405.23 388.78 Q1405.23 381.65 1403.4 378.109 Q1401.6 374.544 1397.96 374.544 M1397.96 370.84 Q1403.77 370.84 1406.83 375.447 Q1409.91 380.03 1409.91 388.78 Q1409.91 397.507 1406.83 402.113 Q1403.77 406.697 1397.96 406.697 Q1392.15 406.697 1389.07 402.113 Q1386.02 397.507 1386.02 388.78 Q1386.02 380.03 1389.07 375.447 Q1392.15 370.84 1397.96 370.84 Z" fill="#000000" fill-rule="nonzero" fill-opacity="1" /><path clip-path="url(#clip340)" d="M1353.96 321.435 Q1350.35 321.435 1348.52 324.999 Q1346.71 328.541 1346.71 335.671 Q1346.71 342.777 1348.52 346.342 Q1350.35 349.884 1353.96 349.884 Q1357.59 349.884 1359.4 346.342 Q1361.23 342.777 1361.23 335.671 Q1361.23 328.541 1359.4 324.999 Q1357.59 321.435 1353.96 321.435 M1353.96 317.731 Q1359.77 317.731 1362.82 322.337 Q1365.9 326.921 1365.9 335.671 Q1365.9 344.398 1362.82 349.004 Q1359.77 353.587 1353.96 353.587 Q1348.15 353.587 1345.07 349.004 Q1342.01 344.398 1342.01 335.671 Q1342.01 326.921 1345.07 322.337 Q1348.15 317.731 1353.96 317.731 Z" fill="#000000" fill-rule="nonzero" fill-opacity="1" /><path clip-path="url(#clip340)" d="M1374.12 347.036 L1379.01 347.036 L1379.01 352.916 L1374.12 352.916 L1374.12 347.036 Z" fill="#000000" fill-rule="nonzero" fill-opacity="1" /><path clip-path="url(#clip340)" d="M1390 348.981 L1397.64 348.981 L1397.64 322.615 L1389.33 324.282 L1389.33 320.023 L1397.59 318.356 L1402.27 318.356 L1402.27 348.981 L1409.91 348.981 L1409.91 352.916 L1390 352.916 L1390 348.981 Z" fill="#000000" fill-rule="nonzero" fill-opacity="1" /><path clip-path="url(#clip340)" d="M1354.33 268.325 Q1350.72 268.325 1348.89 271.89 Q1347.08 275.432 1347.08 282.561 Q1347.08 289.668 1348.89 293.233 Q1350.72 296.774 1354.33 296.774 Q1357.96 296.774 1359.77 293.233 Q1361.6 289.668 1361.6 282.561 Q1361.6 275.432 1359.77 271.89 Q1357.96 268.325 1354.33 268.325 M1354.33 264.622 Q1360.14 264.622 1363.2 269.228 Q1366.27 273.812 1366.27 282.561 Q1366.27 291.288 1363.2 295.895 Q1360.14 300.478 1354.33 300.478 Q1348.52 300.478 1345.44 295.895 Q1342.39 291.288 1342.39 282.561 Q1342.39 273.812 1345.44 269.228 Q1348.52 264.622 1354.33 264.622 Z" fill="#000000" fill-rule="nonzero" fill-opacity="1" /><path clip-path="url(#clip340)" d="M1374.49 293.927 L1379.38 293.927 L1379.38 299.807 L1374.49 299.807 L1374.49 293.927 Z" fill="#000000" fill-rule="nonzero" fill-opacity="1" /><path clip-path="url(#clip340)" d="M1393.59 295.872 L1409.91 295.872 L1409.91 299.807 L1387.96 299.807 L1387.96 295.872 Q1390.63 293.117 1395.21 288.487 Q1399.82 283.835 1401 282.492 Q1403.24 279.969 1404.12 278.233 Q1405.02 276.474 1405.02 274.784 Q1405.02 272.029 1403.08 270.293 Q1401.16 268.557 1398.06 268.557 Q1395.86 268.557 1393.4 269.321 Q1390.97 270.085 1388.19 271.636 L1388.19 266.913 Q1391.02 265.779 1393.47 265.2 Q1395.93 264.622 1397.96 264.622 Q1403.33 264.622 1406.53 267.307 Q1409.72 269.992 1409.72 274.483 Q1409.72 276.612 1408.91 278.534 Q1408.13 280.432 1406.02 283.024 Q1405.44 283.696 1402.34 286.913 Q1399.24 290.108 1393.59 295.872 Z" fill="#000000" fill-rule="nonzero" fill-opacity="1" /><path clip-path="url(#clip340)" d="M1353.38 215.216 Q1349.77 215.216 1347.94 218.781 Q1346.13 222.323 1346.13 229.452 Q1346.13 236.559 1347.94 240.123 Q1349.77 243.665 1353.38 243.665 Q1357.01 243.665 1358.82 240.123 Q1360.65 236.559 1360.65 229.452 Q1360.65 222.323 1358.82 218.781 Q1357.01 215.216 1353.38 215.216 M1353.38 211.513 Q1359.19 211.513 1362.25 216.119 Q1365.32 220.702 1365.32 229.452 Q1365.32 238.179 1362.25 242.786 Q1359.19 247.369 1353.38 247.369 Q1347.57 247.369 1344.49 242.786 Q1341.44 238.179 1341.44 229.452 Q1341.44 220.702 1344.49 216.119 Q1347.57 211.513 1353.38 211.513 Z" fill="#000000" fill-rule="nonzero" fill-opacity="1" /><path clip-path="url(#clip340)" d="M1373.54 240.818 L1378.43 240.818 L1378.43 246.698 L1373.54 246.698 L1373.54 240.818 Z" fill="#000000" fill-rule="nonzero" fill-opacity="1" /><path clip-path="url(#clip340)" d="M1402.78 228.063 Q1406.13 228.781 1408.01 231.049 Q1409.91 233.318 1409.91 236.651 Q1409.91 241.767 1406.39 244.568 Q1402.87 247.369 1396.39 247.369 Q1394.21 247.369 1391.9 246.929 Q1389.61 246.512 1387.15 245.656 L1387.15 241.142 Q1389.1 242.276 1391.41 242.855 Q1393.73 243.434 1396.25 243.434 Q1400.65 243.434 1402.94 241.698 Q1405.26 239.961 1405.26 236.651 Q1405.26 233.596 1403.1 231.883 Q1400.97 230.147 1397.15 230.147 L1393.13 230.147 L1393.13 226.304 L1397.34 226.304 Q1400.79 226.304 1402.62 224.938 Q1404.44 223.549 1404.44 220.957 Q1404.44 218.295 1402.55 216.883 Q1400.67 215.448 1397.15 215.448 Q1395.23 215.448 1393.03 215.864 Q1390.83 216.281 1388.19 217.161 L1388.19 212.994 Q1390.86 212.253 1393.17 211.883 Q1395.51 211.513 1397.57 211.513 Q1402.89 211.513 1406 213.943 Q1409.1 216.35 1409.1 220.471 Q1409.1 223.341 1407.45 225.332 Q1405.81 227.299 1402.78 228.063 Z" fill="#000000" fill-rule="nonzero" fill-opacity="1" /><path clip-path="url(#clip340)" d="M1352.25 162.107 Q1348.63 162.107 1346.81 165.672 Q1345 169.213 1345 176.343 Q1345 183.449 1346.81 187.014 Q1348.63 190.556 1352.25 190.556 Q1355.88 190.556 1357.69 187.014 Q1359.51 183.449 1359.51 176.343 Q1359.51 169.213 1357.69 165.672 Q1355.88 162.107 1352.25 162.107 M1352.25 158.403 Q1358.06 158.403 1361.11 163.01 Q1364.19 167.593 1364.19 176.343 Q1364.19 185.07 1361.11 189.676 Q1358.06 194.26 1352.25 194.26 Q1346.44 194.26 1343.36 189.676 Q1340.3 185.07 1340.3 176.343 Q1340.3 167.593 1343.36 163.01 Q1346.44 158.403 1352.25 158.403 Z" fill="#000000" fill-rule="nonzero" fill-opacity="1" /><path clip-path="url(#clip340)" d="M1372.41 187.709 L1377.29 187.709 L1377.29 193.588 L1372.41 193.588 L1372.41 187.709 Z" fill="#000000" fill-rule="nonzero" fill-opacity="1" /><path clip-path="url(#clip340)" d="M1400.32 163.102 L1388.52 181.551 L1400.32 181.551 L1400.32 163.102 M1399.1 159.028 L1404.98 159.028 L1404.98 181.551 L1409.91 181.551 L1409.91 185.44 L1404.98 185.44 L1404.98 193.588 L1400.32 193.588 L1400.32 185.44 L1384.72 185.44 L1384.72 180.926 L1399.1 159.028 Z" fill="#000000" fill-rule="nonzero" fill-opacity="1" /><path clip-path="url(#clip340)" d="M1353.73 108.998 Q1350.12 108.998 1348.29 112.563 Q1346.48 116.104 1346.48 123.234 Q1346.48 130.34 1348.29 133.905 Q1350.12 137.447 1353.73 137.447 Q1357.36 137.447 1359.17 133.905 Q1361 130.34 1361 123.234 Q1361 116.104 1359.17 112.563 Q1357.36 108.998 1353.73 108.998 M1353.73 105.294 Q1359.54 105.294 1362.59 109.901 Q1365.67 114.484 1365.67 123.234 Q1365.67 131.961 1362.59 136.567 Q1359.54 141.15 1353.73 141.15 Q1347.92 141.15 1344.84 136.567 Q1341.78 131.961 1341.78 123.234 Q1341.78 114.484 1344.84 109.901 Q1347.92 105.294 1353.73 105.294 Z" fill="#000000" fill-rule="nonzero" fill-opacity="1" /><path clip-path="url(#clip340)" d="M1373.89 134.599 L1378.77 134.599 L1378.77 140.479 L1373.89 140.479 L1373.89 134.599 Z" fill="#000000" fill-rule="nonzero" fill-opacity="1" /><path clip-path="url(#clip340)" d="M1389.01 105.919 L1407.36 105.919 L1407.36 109.854 L1393.29 109.854 L1393.29 118.326 Q1394.31 117.979 1395.32 117.817 Q1396.34 117.632 1397.36 117.632 Q1403.15 117.632 1406.53 120.803 Q1409.91 123.975 1409.91 129.391 Q1409.91 134.97 1406.44 138.072 Q1402.96 141.15 1396.64 141.15 Q1394.47 141.15 1392.2 140.78 Q1389.95 140.41 1387.55 139.669 L1387.55 134.97 Q1389.63 136.104 1391.85 136.66 Q1394.07 137.215 1396.55 137.215 Q1400.56 137.215 1402.89 135.109 Q1405.23 133.002 1405.23 129.391 Q1405.23 125.78 1402.89 123.674 Q1400.56 121.567 1396.55 121.567 Q1394.68 121.567 1392.8 121.984 Q1390.95 122.4 1389.01 123.28 L1389.01 105.919 Z" fill="#000000" fill-rule="nonzero" fill-opacity="1" /><path clip-path="url(#clip340)" d="M1352.57 55.8885 Q1348.96 55.8885 1347.13 59.4533 Q1345.32 62.9949 1345.32 70.1245 Q1345.32 77.231 1347.13 80.7958 Q1348.96 84.3374 1352.57 84.3374 Q1356.2 84.3374 1358.01 80.7958 Q1359.84 77.231 1359.84 70.1245 Q1359.84 62.9949 1358.01 59.4533 Q1356.2 55.8885 1352.57 55.8885 M1352.57 52.1848 Q1358.38 52.1848 1361.44 56.7913 Q1364.51 61.3746 1364.51 70.1245 Q1364.51 78.8513 1361.44 83.4578 Q1358.38 88.0411 1352.57 88.0411 Q1346.76 88.0411 1343.68 83.4578 Q1340.63 78.8513 1340.63 70.1245 Q1340.63 61.3746 1343.68 56.7913 Q1346.76 52.1848 1352.57 52.1848 Z" fill="#000000" fill-rule="nonzero" fill-opacity="1" /><path clip-path="url(#clip340)" d="M1372.73 81.4902 L1377.62 81.4902 L1377.62 87.3698 L1372.73 87.3698 L1372.73 81.4902 Z" fill="#000000" fill-rule="nonzero" fill-opacity="1" /><path clip-path="url(#clip340)" d="M1398.38 68.2264 Q1395.23 68.2264 1393.38 70.3792 Q1391.55 72.5319 1391.55 76.2819 Q1391.55 80.0087 1393.38 82.1847 Q1395.23 84.3374 1398.38 84.3374 Q1401.53 84.3374 1403.36 82.1847 Q1405.21 80.0087 1405.21 76.2819 Q1405.21 72.5319 1403.36 70.3792 Q1401.53 68.2264 1398.38 68.2264 M1407.66 53.5737 L1407.66 57.8329 Q1405.9 56.9996 1404.1 56.5598 Q1402.32 56.12 1400.56 56.12 Q1395.93 56.12 1393.47 59.245 Q1391.04 62.3699 1390.69 68.6894 Q1392.06 66.6755 1394.12 65.6107 Q1396.18 64.5227 1398.66 64.5227 Q1403.87 64.5227 1406.88 67.694 Q1409.91 70.8421 1409.91 76.2819 Q1409.91 81.606 1406.76 84.8235 Q1403.61 88.0411 1398.38 88.0411 Q1392.38 88.0411 1389.21 83.4578 Q1386.04 78.8513 1386.04 70.1245 Q1386.04 61.9301 1389.93 57.069 Q1393.82 52.1848 1400.37 52.1848 Q1402.13 52.1848 1403.91 52.532 Q1405.72 52.8793 1407.66 53.5737 Z" fill="#000000" fill-rule="nonzero" fill-opacity="1" /><path clip-path="url(#clip340)" d="M1255.92 220.971 Q1257.73 220.971 1258.76 222.098 Q1259.76 223.225 1259.76 224.513 Q1259.76 225.737 1259.05 226.381 Q1258.34 227.025 1257.44 227.025 Q1256.21 227.025 1255.15 226.123 Q1254.09 225.222 1253.86 223.869 Q1253.02 225.189 1253.02 227.154 Q1253.02 228.442 1253.7 229.569 Q1254.38 230.664 1255.25 231.341 Q1256.12 231.985 1257.37 232.565 Q1258.6 233.112 1259.34 233.338 Q1260.05 233.531 1260.82 233.692 L1269.84 235.946 Q1274.12 237.041 1275.63 237.041 Q1277.5 237.041 1278.76 236.139 Q1279.98 235.238 1279.98 233.434 Q1279.98 232.726 1279.79 231.92 Q1279.56 231.115 1278.98 230.085 Q1278.37 229.022 1277.47 228.088 Q1276.53 227.122 1274.96 226.188 Q1273.38 225.254 1271.35 224.642 Q1270.64 224.449 1270.64 223.805 Q1270.64 222.999 1271.29 222.999 Q1271.83 222.999 1272.99 223.45 Q1274.12 223.869 1275.6 224.803 Q1277.05 225.705 1278.37 226.896 Q1279.66 228.088 1280.56 229.859 Q1281.46 231.631 1281.46 233.563 Q1281.46 236.333 1279.98 238.168 Q1278.5 240.004 1276.44 240.68 Q1276.73 240.842 1277.11 241.067 Q1277.5 241.292 1278.37 241.969 Q1279.21 242.613 1279.85 243.354 Q1280.46 244.094 1280.95 245.254 Q1281.46 246.381 1281.46 247.605 Q1281.46 249.151 1281.01 250.535 Q1280.56 251.888 1279.53 252.854 Q1278.5 253.82 1277.08 253.82 Q1275.5 253.82 1274.41 252.758 Q1273.28 251.663 1273.28 250.181 Q1273.28 249.247 1273.83 248.507 Q1274.38 247.734 1275.57 247.734 Q1276.89 247.734 1277.89 248.635 Q1278.89 249.537 1279.14 250.825 Q1279.98 249.505 1279.98 247.54 Q1279.98 245.415 1278.11 243.74 Q1276.25 242.065 1273.12 241.26 Q1265.62 239.263 1262.27 238.49 Q1258.89 237.718 1257.44 237.718 Q1256.08 237.718 1255.15 238.072 Q1254.22 238.426 1253.8 239.038 Q1253.35 239.618 1253.19 240.165 Q1253.02 240.68 1253.02 241.26 Q1253.02 242.226 1253.41 243.321 Q1253.8 244.384 1254.7 245.672 Q1255.57 246.928 1257.37 248.12 Q1259.18 249.312 1261.66 250.117 Q1262.4 250.278 1262.4 250.986 Q1262.36 251.759 1261.72 251.759 Q1261.17 251.759 1260.05 251.341 Q1258.89 250.89 1257.44 249.988 Q1255.99 249.054 1254.7 247.862 Q1253.38 246.639 1252.48 244.867 Q1251.58 243.064 1251.58 241.131 Q1251.58 240.262 1251.77 239.424 Q1251.93 238.555 1252.41 237.524 Q1252.9 236.462 1253.96 235.528 Q1255.02 234.594 1256.57 234.014 Q1255.83 233.627 1255.12 233.112 Q1254.41 232.565 1253.54 231.727 Q1252.64 230.858 1252.12 229.666 Q1251.58 228.442 1251.58 227.09 Q1251.58 225.769 1251.93 224.481 Q1252.25 223.193 1253.31 222.098 Q1254.35 220.971 1255.92 220.971 Z" fill="#000000" fill-rule="nonzero" fill-opacity="1" /><path clip-path="url(#clip340)" d="M1273.38 214.249 L1271.94 214.249 Q1271.94 208.703 1268.98 205.84 Q1268.98 205.051 1269.16 204.916 Q1269.34 204.781 1270.18 204.781 L1296.08 204.781 Q1297.46 204.781 1297.88 204.104 Q1298.31 203.428 1298.31 200.475 L1298.31 199.009 L1299.73 199.009 Q1299.6 200.633 1299.6 206.494 Q1299.6 212.356 1299.73 213.956 L1298.31 213.956 L1298.31 212.491 Q1298.31 209.583 1297.91 208.884 Q1297.48 208.185 1296.08 208.185 L1272.16 208.185 Q1273.38 210.597 1273.38 214.249 Z" fill="#000000" fill-rule="nonzero" fill-opacity="1" /><polyline clip-path="url(#clip343)" style="stroke:#009af9; stroke-linecap:round; stroke-linejoin:round; stroke-width:4; stroke-opacity:1; fill:none" points="1471.57,388.745 1496.74,388.745 1521.9,333.423 1547.06,250.44 1572.22,167.156 1597.38,103.694 1622.55,69.3697 1647.71,63.4176 1672.87,78.7348 1698.03,105.885 1723.2,135.85 1748.36,161.581 1773.52,178.768 1798.68,186.014 1823.85,184.429 1849.01,176.786 1874.17,166.474 1899.33,156.559 1924.49,149.159 1949.66,145.228 1974.82,144.668 1999.98,146.659 2025.14,150.049 2050.31,153.699 2075.47,156.734 2100.63,158.654 2125.79,159.344 2150.95,158.992 2176.12,157.966 2201.28,156.681 2226.44,155.494 2251.6,154.643 2276.77,154.222 2301.93,154.205 2327.09,154.483 "/>
<polyline clip-path="url(#clip343)" style="stroke:#e26f46; stroke-linecap:round; stroke-linejoin:round; stroke-width:3; stroke-opacity:1; fill:none" stroke-dasharray="12, 6, 2, 6" points="1471.57,388.745 1496.74,379.334 1521.9,340.658 1547.06,245.103 1572.22,155.749 1597.38,89.7172 1622.55,71.3983 1647.71,57.1907 1672.87,92.9255 1698.03,118.162 1723.2,144.91 1748.36,169.443 1773.52,174.847 1798.68,196.763 1823.85,185.632 1849.01,185.363 1874.17,170.897 1899.33,167.304 1924.49,145.143 1949.66,142.481 1974.82,155.998 1999.98,145.83 2025.14,151.889 2050.31,133.853 2075.47,178.702 2100.63,161.2 2125.79,157.646 2150.95,146.725 2176.12,158.844 2201.28,159.57 2226.44,147.583 2251.6,166.771 2276.77,147.163 2301.93,160.762 2327.09,167.022 "/>
<path clip-path="url(#clip340)" d="M2203.01 214.479 L2322.53 214.479 L2322.53 58.959 L2203.01 58.959  Z" fill="#ffffff" fill-rule="evenodd" fill-opacity="1"/>
<polyline clip-path="url(#clip340)" style="stroke:#000000; stroke-linecap:round; stroke-linejoin:round; stroke-width:4; stroke-opacity:1; fill:none" points="2203.01,214.479 2322.53,214.479 2322.53,58.959 2203.01,58.959 2203.01,214.479 "/>
<polyline clip-path="url(#clip340)" style="stroke:#009af9; stroke-linecap:round; stroke-linejoin:round; stroke-width:4; stroke-opacity:1; fill:none" points="2213.09,110.799 2273.55,110.799 "/>
<path clip-path="url(#clip340)" d="M2310.63 121.338 L2305.36 121.198 L2299.6 121.338 L2299.6 119.09 L2301.47 119.09 L2296.2 112.859 L2291.54 118.082 L2291.21 118.551 Q2291.21 118.762 2291.75 118.926 Q2292.31 119.09 2292.97 119.09 L2292.97 121.338 L2288.03 121.198 L2283.62 121.338 L2283.62 119.09 Q2285.1 119.09 2285.78 119.066 Q2286.48 119.019 2287.28 118.808 Q2288.07 118.598 2288.47 118.176 L2294.75 111.126 L2287.28 102.296 L2283.86 102.296 L2283.86 100.047 L2289.15 100.188 L2294.94 100.047 L2294.94 102.296 L2293.01 102.296 L2297.72 107.8 L2301.75 103.303 Q2301.77 103.279 2302.15 102.717 Q2301.4 102.296 2300.32 102.296 L2300.32 100.047 L2305.26 100.188 L2309.67 100.047 L2309.67 102.296 Q2307.75 102.296 2306.74 102.436 Q2305.76 102.553 2305.45 102.717 Q2305.17 102.881 2304.77 103.303 L2299.17 109.533 L2307.23 119.09 L2310.63 119.09 L2310.63 121.338 Z" fill="#000000" fill-rule="nonzero" fill-opacity="1" /><polyline clip-path="url(#clip340)" style="stroke:#e26f46; stroke-linecap:round; stroke-linejoin:round; stroke-width:3; stroke-opacity:1; fill:none" stroke-dasharray="12, 6, 2, 6" points="2213.09,162.639 2273.55,162.639 "/>
<path clip-path="url(#clip340)" d="M2306.21 151.117 L2305.8 151.789 Q2303.26 150.691 2300.09 148.936 Q2296.93 150.691 2294.39 151.789 L2293.99 151.117 Q2296.76 148.707 2300.09 146.854 Q2303.45 148.723 2306.21 151.117 Z" fill="#000000" fill-rule="nonzero" fill-opacity="1" /><path clip-path="url(#clip340)" d="M2310.63 178.183 L2305.36 178.042 L2299.6 178.183 L2299.6 175.934 L2301.47 175.934 L2296.2 169.704 L2291.54 174.927 L2291.21 175.395 Q2291.21 175.606 2291.75 175.77 Q2292.31 175.934 2292.97 175.934 L2292.97 178.183 L2288.03 178.042 L2283.62 178.183 L2283.62 175.934 Q2285.1 175.934 2285.78 175.911 Q2286.48 175.864 2287.28 175.653 Q2288.07 175.442 2288.47 175.021 L2294.75 167.97 L2287.28 159.14 L2283.86 159.14 L2283.86 156.892 L2289.15 157.032 L2294.94 156.892 L2294.94 159.14 L2293.01 159.14 L2297.72 164.644 L2301.75 160.147 Q2301.77 160.124 2302.15 159.562 Q2301.4 159.14 2300.32 159.14 L2300.32 156.892 L2305.26 157.032 L2309.67 156.892 L2309.67 159.14 Q2307.75 159.14 2306.74 159.281 Q2305.76 159.398 2305.45 159.562 Q2305.17 159.726 2304.77 160.147 L2299.17 166.378 L2307.23 175.934 L2310.63 175.934 L2310.63 178.183 Z" fill="#000000" fill-rule="nonzero" fill-opacity="1" /><path clip-path="url(#clip340)" d="M1445.91 910.936 L2352.76 910.936 L2352.76 559.488 L1445.91 559.488  Z" fill="#ffffff" fill-rule="evenodd" fill-opacity="1"/>
<defs>
  <clipPath id="clip344">
    <rect x="1445" y="559" width="908" height="352"/>
  </clipPath>
</defs>
<polyline clip-path="url(#clip344)" style="stroke:#000000; stroke-linecap:round; stroke-linejoin:round; stroke-width:2; stroke-opacity:0.1; fill:none" points="1471.57,910.936 1471.57,559.488 "/>
<polyline clip-path="url(#clip344)" style="stroke:#000000; stroke-linecap:round; stroke-linejoin:round; stroke-width:2; stroke-opacity:0.1; fill:none" points="1723.2,910.936 1723.2,559.488 "/>
<polyline clip-path="url(#clip344)" style="stroke:#000000; stroke-linecap:round; stroke-linejoin:round; stroke-width:2; stroke-opacity:0.1; fill:none" points="1974.82,910.936 1974.82,559.488 "/>
<polyline clip-path="url(#clip344)" style="stroke:#000000; stroke-linecap:round; stroke-linejoin:round; stroke-width:2; stroke-opacity:0.1; fill:none" points="2226.44,910.936 2226.44,559.488 "/>
<polyline clip-path="url(#clip340)" style="stroke:#000000; stroke-linecap:round; stroke-linejoin:round; stroke-width:4; stroke-opacity:1; fill:none" points="1445.91,910.936 2352.76,910.936 "/>
<polyline clip-path="url(#clip340)" style="stroke:#000000; stroke-linecap:round; stroke-linejoin:round; stroke-width:4; stroke-opacity:1; fill:none" points="1471.57,910.936 1471.57,892.038 "/>
<polyline clip-path="url(#clip340)" style="stroke:#000000; stroke-linecap:round; stroke-linejoin:round; stroke-width:4; stroke-opacity:1; fill:none" points="1723.2,910.936 1723.2,892.038 "/>
<polyline clip-path="url(#clip340)" style="stroke:#000000; stroke-linecap:round; stroke-linejoin:round; stroke-width:4; stroke-opacity:1; fill:none" points="1974.82,910.936 1974.82,892.038 "/>
<polyline clip-path="url(#clip340)" style="stroke:#000000; stroke-linecap:round; stroke-linejoin:round; stroke-width:4; stroke-opacity:1; fill:none" points="2226.44,910.936 2226.44,892.038 "/>
<path clip-path="url(#clip340)" d="M1471.57 941.855 Q1467.96 941.855 1466.13 945.419 Q1464.33 948.961 1464.33 956.091 Q1464.33 963.197 1466.13 966.762 Q1467.96 970.303 1471.57 970.303 Q1475.21 970.303 1477.01 966.762 Q1478.84 963.197 1478.84 956.091 Q1478.84 948.961 1477.01 945.419 Q1475.21 941.855 1471.57 941.855 M1471.57 938.151 Q1477.38 938.151 1480.44 942.757 Q1483.52 947.341 1483.52 956.091 Q1483.52 964.817 1480.44 969.424 Q1477.38 974.007 1471.57 974.007 Q1465.76 974.007 1462.68 969.424 Q1459.63 964.817 1459.63 956.091 Q1459.63 947.341 1462.68 942.757 Q1465.76 938.151 1471.57 938.151 Z" fill="#000000" fill-rule="nonzero" fill-opacity="1" /><path clip-path="url(#clip340)" d="M1713.58 969.401 L1721.22 969.401 L1721.22 943.035 L1712.91 944.702 L1712.91 940.443 L1721.17 938.776 L1725.85 938.776 L1725.85 969.401 L1733.49 969.401 L1733.49 973.336 L1713.58 973.336 L1713.58 969.401 Z" fill="#000000" fill-rule="nonzero" fill-opacity="1" /><path clip-path="url(#clip340)" d="M1969.47 969.401 L1985.79 969.401 L1985.79 973.336 L1963.85 973.336 L1963.85 969.401 Q1966.51 966.646 1971.09 962.016 Q1975.7 957.364 1976.88 956.021 Q1979.12 953.498 1980 951.762 Q1980.91 950.003 1980.91 948.313 Q1980.91 945.558 1978.96 943.822 Q1977.04 942.086 1973.94 942.086 Q1971.74 942.086 1969.29 942.85 Q1966.86 943.614 1964.08 945.165 L1964.08 940.443 Q1966.9 939.308 1969.36 938.73 Q1971.81 938.151 1973.85 938.151 Q1979.22 938.151 1982.41 940.836 Q1985.61 943.521 1985.61 948.012 Q1985.61 950.142 1984.8 952.063 Q1984.01 953.961 1981.9 956.554 Q1981.32 957.225 1978.22 960.442 Q1975.12 963.637 1969.47 969.401 Z" fill="#000000" fill-rule="nonzero" fill-opacity="1" /><path clip-path="url(#clip340)" d="M2230.69 954.702 Q2234.05 955.419 2235.92 957.688 Q2237.82 959.956 2237.82 963.29 Q2237.82 968.405 2234.3 971.206 Q2230.78 974.007 2224.3 974.007 Q2222.12 974.007 2219.81 973.567 Q2217.52 973.151 2215.06 972.294 L2215.06 967.78 Q2217.01 968.915 2219.32 969.493 Q2221.64 970.072 2224.16 970.072 Q2228.56 970.072 2230.85 968.336 Q2233.17 966.6 2233.17 963.29 Q2233.17 960.234 2231.01 958.521 Q2228.88 956.785 2225.06 956.785 L2221.04 956.785 L2221.04 952.942 L2225.25 952.942 Q2228.7 952.942 2230.53 951.577 Q2232.36 950.188 2232.36 947.595 Q2232.36 944.933 2230.46 943.521 Q2228.58 942.086 2225.06 942.086 Q2223.14 942.086 2220.94 942.503 Q2218.74 942.919 2216.11 943.799 L2216.11 939.632 Q2218.77 938.892 2221.08 938.521 Q2223.42 938.151 2225.48 938.151 Q2230.8 938.151 2233.91 940.581 Q2237.01 942.989 2237.01 947.109 Q2237.01 949.979 2235.36 951.97 Q2233.72 953.938 2230.69 954.702 Z" fill="#000000" fill-rule="nonzero" fill-opacity="1" /><polyline clip-path="url(#clip344)" style="stroke:#000000; stroke-linecap:round; stroke-linejoin:round; stroke-width:2; stroke-opacity:0.1; fill:none" points="1445.91,865.902 2352.76,865.902 "/>
<polyline clip-path="url(#clip344)" style="stroke:#000000; stroke-linecap:round; stroke-linejoin:round; stroke-width:2; stroke-opacity:0.1; fill:none" points="1445.91,803.985 2352.76,803.985 "/>
<polyline clip-path="url(#clip344)" style="stroke:#000000; stroke-linecap:round; stroke-linejoin:round; stroke-width:2; stroke-opacity:0.1; fill:none" points="1445.91,742.069 2352.76,742.069 "/>
<polyline clip-path="url(#clip344)" style="stroke:#000000; stroke-linecap:round; stroke-linejoin:round; stroke-width:2; stroke-opacity:0.1; fill:none" points="1445.91,680.152 2352.76,680.152 "/>
<polyline clip-path="url(#clip344)" style="stroke:#000000; stroke-linecap:round; stroke-linejoin:round; stroke-width:2; stroke-opacity:0.1; fill:none" points="1445.91,618.236 2352.76,618.236 "/>
<polyline clip-path="url(#clip340)" style="stroke:#000000; stroke-linecap:round; stroke-linejoin:round; stroke-width:4; stroke-opacity:1; fill:none" points="1445.91,910.936 1445.91,559.488 "/>
<polyline clip-path="url(#clip340)" style="stroke:#000000; stroke-linecap:round; stroke-linejoin:round; stroke-width:4; stroke-opacity:1; fill:none" points="1445.91,865.902 1464.81,865.902 "/>
<polyline clip-path="url(#clip340)" style="stroke:#000000; stroke-linecap:round; stroke-linejoin:round; stroke-width:4; stroke-opacity:1; fill:none" points="1445.91,803.985 1464.81,803.985 "/>
<polyline clip-path="url(#clip340)" style="stroke:#000000; stroke-linecap:round; stroke-linejoin:round; stroke-width:4; stroke-opacity:1; fill:none" points="1445.91,742.069 1464.81,742.069 "/>
<polyline clip-path="url(#clip340)" style="stroke:#000000; stroke-linecap:round; stroke-linejoin:round; stroke-width:4; stroke-opacity:1; fill:none" points="1445.91,680.152 1464.81,680.152 "/>
<polyline clip-path="url(#clip340)" style="stroke:#000000; stroke-linecap:round; stroke-linejoin:round; stroke-width:4; stroke-opacity:1; fill:none" points="1445.91,618.236 1464.81,618.236 "/>
<path clip-path="url(#clip340)" d="M1303.96 866.353 L1333.64 866.353 L1333.64 870.288 L1303.96 870.288 L1303.96 866.353 Z" fill="#000000" fill-rule="nonzero" fill-opacity="1" /><path clip-path="url(#clip340)" d="M1353.73 851.7 Q1350.12 851.7 1348.29 855.265 Q1346.48 858.807 1346.48 865.936 Q1346.48 873.043 1348.29 876.608 Q1350.12 880.149 1353.73 880.149 Q1357.36 880.149 1359.17 876.608 Q1361 873.043 1361 865.936 Q1361 858.807 1359.17 855.265 Q1357.36 851.7 1353.73 851.7 M1353.73 847.997 Q1359.54 847.997 1362.59 852.603 Q1365.67 857.186 1365.67 865.936 Q1365.67 874.663 1362.59 879.27 Q1359.54 883.853 1353.73 883.853 Q1347.92 883.853 1344.84 879.27 Q1341.78 874.663 1341.78 865.936 Q1341.78 857.186 1344.84 852.603 Q1347.92 847.997 1353.73 847.997 Z" fill="#000000" fill-rule="nonzero" fill-opacity="1" /><path clip-path="url(#clip340)" d="M1373.89 877.302 L1378.77 877.302 L1378.77 883.182 L1373.89 883.182 L1373.89 877.302 Z" fill="#000000" fill-rule="nonzero" fill-opacity="1" /><path clip-path="url(#clip340)" d="M1389.01 848.622 L1407.36 848.622 L1407.36 852.557 L1393.29 852.557 L1393.29 861.029 Q1394.31 860.682 1395.32 860.52 Q1396.34 860.334 1397.36 860.334 Q1403.15 860.334 1406.53 863.506 Q1409.91 866.677 1409.91 872.094 Q1409.91 877.672 1406.44 880.774 Q1402.96 883.853 1396.64 883.853 Q1394.47 883.853 1392.2 883.482 Q1389.95 883.112 1387.55 882.371 L1387.55 877.672 Q1389.63 878.807 1391.85 879.362 Q1394.07 879.918 1396.55 879.918 Q1400.56 879.918 1402.89 877.811 Q1405.23 875.705 1405.23 872.094 Q1405.23 868.483 1402.89 866.376 Q1400.56 864.27 1396.55 864.27 Q1394.68 864.27 1392.8 864.686 Q1390.95 865.103 1389.01 865.983 L1389.01 848.622 Z" fill="#000000" fill-rule="nonzero" fill-opacity="1" /><path clip-path="url(#clip340)" d="M1352.73 789.784 Q1349.12 789.784 1347.29 793.349 Q1345.49 796.89 1345.49 804.02 Q1345.49 811.126 1347.29 814.691 Q1349.12 818.233 1352.73 818.233 Q1356.37 818.233 1358.17 814.691 Q1360 811.126 1360 804.02 Q1360 796.89 1358.17 793.349 Q1356.37 789.784 1352.73 789.784 M1352.73 786.08 Q1358.54 786.08 1361.6 790.687 Q1364.68 795.27 1364.68 804.02 Q1364.68 812.747 1361.6 817.353 Q1358.54 821.936 1352.73 821.936 Q1346.92 821.936 1343.84 817.353 Q1340.79 812.747 1340.79 804.02 Q1340.79 795.27 1343.84 790.687 Q1346.92 786.08 1352.73 786.08 Z" fill="#000000" fill-rule="nonzero" fill-opacity="1" /><path clip-path="url(#clip340)" d="M1372.89 815.386 L1377.78 815.386 L1377.78 821.265 L1372.89 821.265 L1372.89 815.386 Z" fill="#000000" fill-rule="nonzero" fill-opacity="1" /><path clip-path="url(#clip340)" d="M1397.96 789.784 Q1394.35 789.784 1392.52 793.349 Q1390.72 796.89 1390.72 804.02 Q1390.72 811.126 1392.52 814.691 Q1394.35 818.233 1397.96 818.233 Q1401.6 818.233 1403.4 814.691 Q1405.23 811.126 1405.23 804.02 Q1405.23 796.89 1403.4 793.349 Q1401.6 789.784 1397.96 789.784 M1397.96 786.08 Q1403.77 786.08 1406.83 790.687 Q1409.91 795.27 1409.91 804.02 Q1409.91 812.747 1406.83 817.353 Q1403.77 821.936 1397.96 821.936 Q1392.15 821.936 1389.07 817.353 Q1386.02 812.747 1386.02 804.02 Q1386.02 795.27 1389.07 790.687 Q1392.15 786.08 1397.96 786.08 Z" fill="#000000" fill-rule="nonzero" fill-opacity="1" /><path clip-path="url(#clip340)" d="M1353.73 727.867 Q1350.12 727.867 1348.29 731.432 Q1346.48 734.974 1346.48 742.104 Q1346.48 749.21 1348.29 752.775 Q1350.12 756.316 1353.73 756.316 Q1357.36 756.316 1359.17 752.775 Q1361 749.21 1361 742.104 Q1361 734.974 1359.17 731.432 Q1357.36 727.867 1353.73 727.867 M1353.73 724.164 Q1359.54 724.164 1362.59 728.77 Q1365.67 733.354 1365.67 742.104 Q1365.67 750.83 1362.59 755.437 Q1359.54 760.02 1353.73 760.02 Q1347.92 760.02 1344.84 755.437 Q1341.78 750.83 1341.78 742.104 Q1341.78 733.354 1344.84 728.77 Q1347.92 724.164 1353.73 724.164 Z" fill="#000000" fill-rule="nonzero" fill-opacity="1" /><path clip-path="url(#clip340)" d="M1373.89 753.469 L1378.77 753.469 L1378.77 759.349 L1373.89 759.349 L1373.89 753.469 Z" fill="#000000" fill-rule="nonzero" fill-opacity="1" /><path clip-path="url(#clip340)" d="M1389.01 724.789 L1407.36 724.789 L1407.36 728.724 L1393.29 728.724 L1393.29 737.196 Q1394.31 736.849 1395.32 736.687 Q1396.34 736.502 1397.36 736.502 Q1403.15 736.502 1406.53 739.673 Q1409.91 742.844 1409.91 748.261 Q1409.91 753.84 1406.44 756.941 Q1402.96 760.02 1396.64 760.02 Q1394.47 760.02 1392.2 759.65 Q1389.95 759.279 1387.55 758.539 L1387.55 753.84 Q1389.63 754.974 1391.85 755.529 Q1394.07 756.085 1396.55 756.085 Q1400.56 756.085 1402.89 753.978 Q1405.23 751.872 1405.23 748.261 Q1405.23 744.65 1402.89 742.543 Q1400.56 740.437 1396.55 740.437 Q1394.68 740.437 1392.8 740.854 Q1390.95 741.27 1389.01 742.15 L1389.01 724.789 Z" fill="#000000" fill-rule="nonzero" fill-opacity="1" /><path clip-path="url(#clip340)" d="M1343.54 693.497 L1351.18 693.497 L1351.18 667.132 L1342.87 668.798 L1342.87 664.539 L1351.13 662.872 L1355.81 662.872 L1355.81 693.497 L1363.45 693.497 L1363.45 697.432 L1343.54 697.432 L1343.54 693.497 Z" fill="#000000" fill-rule="nonzero" fill-opacity="1" /><path clip-path="url(#clip340)" d="M1372.89 691.553 L1377.78 691.553 L1377.78 697.432 L1372.89 697.432 L1372.89 691.553 Z" fill="#000000" fill-rule="nonzero" fill-opacity="1" /><path clip-path="url(#clip340)" d="M1397.96 665.951 Q1394.35 665.951 1392.52 669.516 Q1390.72 673.058 1390.72 680.187 Q1390.72 687.294 1392.52 690.858 Q1394.35 694.4 1397.96 694.4 Q1401.6 694.4 1403.4 690.858 Q1405.23 687.294 1405.23 680.187 Q1405.23 673.058 1403.4 669.516 Q1401.6 665.951 1397.96 665.951 M1397.96 662.247 Q1403.77 662.247 1406.83 666.854 Q1409.91 671.437 1409.91 680.187 Q1409.91 688.914 1406.83 693.52 Q1403.77 698.104 1397.96 698.104 Q1392.15 698.104 1389.07 693.52 Q1386.02 688.914 1386.02 680.187 Q1386.02 671.437 1389.07 666.854 Q1392.15 662.247 1397.96 662.247 Z" fill="#000000" fill-rule="nonzero" fill-opacity="1" /><path clip-path="url(#clip340)" d="M1344.54 631.581 L1352.18 631.581 L1352.18 605.215 L1343.87 606.882 L1343.87 602.623 L1352.13 600.956 L1356.81 600.956 L1356.81 631.581 L1364.45 631.581 L1364.45 635.516 L1344.54 635.516 L1344.54 631.581 Z" fill="#000000" fill-rule="nonzero" fill-opacity="1" /><path clip-path="url(#clip340)" d="M1373.89 629.636 L1378.77 629.636 L1378.77 635.516 L1373.89 635.516 L1373.89 629.636 Z" fill="#000000" fill-rule="nonzero" fill-opacity="1" /><path clip-path="url(#clip340)" d="M1389.01 600.956 L1407.36 600.956 L1407.36 604.891 L1393.29 604.891 L1393.29 613.363 Q1394.31 613.016 1395.32 612.854 Q1396.34 612.669 1397.36 612.669 Q1403.15 612.669 1406.53 615.84 Q1409.91 619.011 1409.91 624.428 Q1409.91 630.007 1406.44 633.109 Q1402.96 636.187 1396.64 636.187 Q1394.47 636.187 1392.2 635.817 Q1389.95 635.447 1387.55 634.706 L1387.55 630.007 Q1389.63 631.141 1391.85 631.697 Q1394.07 632.252 1396.55 632.252 Q1400.56 632.252 1402.89 630.146 Q1405.23 628.039 1405.23 624.428 Q1405.23 620.817 1402.89 618.711 Q1400.56 616.604 1396.55 616.604 Q1394.68 616.604 1392.8 617.021 Q1390.95 617.437 1389.01 618.317 L1389.01 600.956 Z" fill="#000000" fill-rule="nonzero" fill-opacity="1" /><path clip-path="url(#clip340)" d="M1219.58 734.795 Q1221.38 734.795 1222.41 735.922 Q1223.41 737.049 1223.41 738.338 Q1223.41 739.561 1222.7 740.206 Q1222 740.85 1221.09 740.85 Q1219.87 740.85 1218.81 739.948 Q1217.75 739.046 1217.52 737.693 Q1216.68 739.014 1216.68 740.978 Q1216.68 742.267 1217.36 743.394 Q1218.03 744.489 1218.9 745.165 Q1219.77 745.809 1221.03 746.389 Q1222.25 746.937 1222.99 747.162 Q1223.7 747.355 1224.48 747.516 L1233.49 749.771 Q1237.78 750.866 1239.29 750.866 Q1241.16 750.866 1242.41 749.964 Q1243.64 749.062 1243.64 747.259 Q1243.64 746.55 1243.45 745.745 Q1243.22 744.94 1242.64 743.909 Q1242.03 742.846 1241.13 741.912 Q1240.19 740.946 1238.61 740.012 Q1237.04 739.078 1235.01 738.466 Q1234.3 738.273 1234.3 737.629 Q1234.3 736.824 1234.94 736.824 Q1235.49 736.824 1236.65 737.275 Q1237.78 737.693 1239.26 738.627 Q1240.71 739.529 1242.03 740.721 Q1243.32 741.912 1244.22 743.684 Q1245.12 745.455 1245.12 747.387 Q1245.12 750.157 1243.64 751.993 Q1242.16 753.829 1240.1 754.505 Q1240.39 754.666 1240.77 754.891 Q1241.16 755.117 1242.03 755.793 Q1242.87 756.437 1243.51 757.178 Q1244.12 757.919 1244.6 759.078 Q1245.12 760.205 1245.12 761.429 Q1245.12 762.975 1244.67 764.36 Q1244.22 765.713 1243.19 766.679 Q1242.16 767.645 1240.74 767.645 Q1239.16 767.645 1238.07 766.582 Q1236.94 765.487 1236.94 764.006 Q1236.94 763.072 1237.49 762.331 Q1238.03 761.558 1239.23 761.558 Q1240.55 761.558 1241.55 762.46 Q1242.54 763.362 1242.8 764.65 Q1243.64 763.329 1243.64 761.365 Q1243.64 759.239 1241.77 757.565 Q1239.9 755.89 1236.78 755.085 Q1229.27 753.088 1225.93 752.315 Q1222.54 751.542 1221.09 751.542 Q1219.74 751.542 1218.81 751.896 Q1217.87 752.251 1217.46 752.862 Q1217 753.442 1216.84 753.99 Q1216.68 754.505 1216.68 755.085 Q1216.68 756.051 1217.07 757.146 Q1217.46 758.209 1218.36 759.497 Q1219.23 760.753 1221.03 761.944 Q1222.83 763.136 1225.31 763.941 Q1226.05 764.102 1226.05 764.811 Q1226.02 765.584 1225.38 765.584 Q1224.83 765.584 1223.7 765.165 Q1222.54 764.714 1221.09 763.812 Q1219.65 762.878 1218.36 761.687 Q1217.04 760.463 1216.13 758.692 Q1215.23 756.888 1215.23 754.956 Q1215.23 754.086 1215.43 753.249 Q1215.59 752.379 1216.07 751.349 Q1216.55 750.286 1217.62 749.352 Q1218.68 748.418 1220.22 747.838 Q1219.48 747.452 1218.78 746.937 Q1218.07 746.389 1217.2 745.552 Q1216.3 744.682 1215.78 743.491 Q1215.23 742.267 1215.23 740.914 Q1215.23 739.594 1215.59 738.305 Q1215.91 737.017 1216.97 735.922 Q1218 734.795 1219.58 734.795 Z" fill="#000000" fill-rule="nonzero" fill-opacity="1" /><path clip-path="url(#clip340)" d="M1263.39 728.074 Q1262.56 728.074 1262.31 728.006 Q1262.06 727.916 1261.68 727.555 L1251.8 718.695 Q1246.35 713.848 1241.59 713.848 Q1238.5 713.848 1236.29 715.472 Q1234.08 717.072 1234.08 720.025 Q1234.08 722.054 1235.32 723.768 Q1236.56 725.481 1238.77 726.27 Q1238.73 726.135 1238.73 725.661 Q1238.73 724.512 1239.45 723.88 Q1240.17 723.227 1241.14 723.227 Q1242.38 723.227 1242.99 724.038 Q1243.57 724.827 1243.57 725.616 Q1243.57 725.932 1243.51 726.36 Q1243.44 726.766 1242.81 727.42 Q1242.15 728.074 1241 728.074 Q1237.78 728.074 1235.21 725.639 Q1232.64 723.182 1232.64 719.439 Q1232.64 715.201 1235.17 712.428 Q1237.67 709.633 1241.59 709.633 Q1242.97 709.633 1244.23 710.061 Q1245.47 710.467 1246.44 711.03 Q1247.41 711.571 1248.96 713.059 Q1250.52 714.547 1251.62 715.742 Q1252.73 716.937 1255.07 719.62 L1259.83 724.512 L1259.83 716.193 Q1259.83 712.135 1259.47 711.819 Q1258.81 711.369 1255.36 710.805 L1255.36 709.633 L1263.39 710.94 L1263.39 728.074 Z" fill="#000000" fill-rule="nonzero" fill-opacity="1" /><polyline clip-path="url(#clip344)" style="stroke:#009af9; stroke-linecap:round; stroke-linejoin:round; stroke-width:4; stroke-opacity:1; fill:none" points="1471.57,803.985 1496.74,674.993 1521.9,610.496 1547.06,609.794 1572.22,656.015 1597.38,723.951 1622.55,790.107 1647.71,839.7 1672.87,867.289 1698.03,873.853 1723.2,863.981 1748.36,844.061 1773.52,820.879 1798.68,800.29 1823.85,786.165 1849.01,779.942 1874.17,780.865 1899.33,786.732 1924.49,794.819 1949.66,802.68 1974.82,808.627 1999.98,811.888 2025.14,812.498 2050.31,811.062 2075.47,808.462 2100.63,805.593 2125.79,803.164 2150.95,801.592 2176.12,800.989 2201.28,801.219 2226.44,802 2251.6,803.004 2276.77,803.946 2301.93,804.634 2327.09,804.987 "/>
<polyline clip-path="url(#clip344)" style="stroke:#e26f46; stroke-linecap:round; stroke-linejoin:round; stroke-width:3; stroke-opacity:1; fill:none" stroke-dasharray="12, 6, 2, 6" points="1471.57,803.985 1496.74,680.368 1521.9,600.984 1547.06,569.435 1572.22,618.606 1597.38,700.545 1622.55,792.716 1647.71,848.41 1672.87,896.148 1698.03,900.989 1723.2,887.796 1748.36,863.796 1773.52,831.17 1798.68,812.747 1823.85,785.302 1849.01,777.571 1874.17,771.865 1899.33,779.208 1924.49,781.612 1949.66,797.147 1974.82,812.512 1999.98,809.767 2025.14,815.114 2050.31,808.032 2075.47,827.31 2100.63,805.357 2125.79,801.263 2150.95,797.879 2176.12,806.419 2201.28,804.493 2226.44,799.275 2251.6,809.332 2276.77,797.827 2301.93,807.005 2327.09,806.214 "/>
<path clip-path="url(#clip340)" d="M2203.01 726.723 L2322.53 726.723 L2322.53 571.203 L2203.01 571.203  Z" fill="#ffffff" fill-rule="evenodd" fill-opacity="1"/>
<polyline clip-path="url(#clip340)" style="stroke:#000000; stroke-linecap:round; stroke-linejoin:round; stroke-width:4; stroke-opacity:1; fill:none" points="2203.01,726.723 2322.53,726.723 2322.53,571.203 2203.01,571.203 2203.01,726.723 "/>
<polyline clip-path="url(#clip340)" style="stroke:#009af9; stroke-linecap:round; stroke-linejoin:round; stroke-width:4; stroke-opacity:1; fill:none" points="2213.09,623.043 2273.55,623.043 "/>
<path clip-path="url(#clip340)" d="M2310.63 633.582 L2305.36 633.442 L2299.6 633.582 L2299.6 631.334 L2301.47 631.334 L2296.2 625.103 L2291.54 630.326 L2291.21 630.795 Q2291.21 631.006 2291.75 631.17 Q2292.31 631.334 2292.97 631.334 L2292.97 633.582 L2288.03 633.442 L2283.62 633.582 L2283.62 631.334 Q2285.1 631.334 2285.78 631.31 Q2286.48 631.263 2287.28 631.052 Q2288.07 630.842 2288.47 630.42 L2294.75 623.37 L2287.28 614.54 L2283.86 614.54 L2283.86 612.291 L2289.15 612.432 L2294.94 612.291 L2294.94 614.54 L2293.01 614.54 L2297.72 620.044 L2301.75 615.547 Q2301.77 615.523 2302.15 614.961 Q2301.4 614.54 2300.32 614.54 L2300.32 612.291 L2305.26 612.432 L2309.67 612.291 L2309.67 614.54 Q2307.75 614.54 2306.74 614.68 Q2305.76 614.797 2305.45 614.961 Q2305.17 615.125 2304.77 615.547 L2299.17 621.777 L2307.23 631.334 L2310.63 631.334 L2310.63 633.582 Z" fill="#000000" fill-rule="nonzero" fill-opacity="1" /><polyline clip-path="url(#clip340)" style="stroke:#e26f46; stroke-linecap:round; stroke-linejoin:round; stroke-width:3; stroke-opacity:1; fill:none" stroke-dasharray="12, 6, 2, 6" points="2213.09,674.883 2273.55,674.883 "/>
<path clip-path="url(#clip340)" d="M2306.21 663.361 L2305.8 664.033 Q2303.26 662.935 2300.09 661.18 Q2296.93 662.935 2294.39 664.033 L2293.99 663.361 Q2296.76 660.951 2300.09 659.098 Q2303.45 660.967 2306.21 663.361 Z" fill="#000000" fill-rule="nonzero" fill-opacity="1" /><path clip-path="url(#clip340)" d="M2310.63 690.427 L2305.36 690.286 L2299.6 690.427 L2299.6 688.178 L2301.47 688.178 L2296.2 681.948 L2291.54 687.171 L2291.21 687.639 Q2291.21 687.85 2291.75 688.014 Q2292.31 688.178 2292.97 688.178 L2292.97 690.427 L2288.03 690.286 L2283.62 690.427 L2283.62 688.178 Q2285.1 688.178 2285.78 688.155 Q2286.48 688.108 2287.28 687.897 Q2288.07 687.686 2288.47 687.265 L2294.75 680.214 L2287.28 671.384 L2283.86 671.384 L2283.86 669.136 L2289.15 669.276 L2294.94 669.136 L2294.94 671.384 L2293.01 671.384 L2297.72 676.888 L2301.75 672.391 Q2301.77 672.368 2302.15 671.806 Q2301.4 671.384 2300.32 671.384 L2300.32 669.136 L2305.26 669.276 L2309.67 669.136 L2309.67 671.384 Q2307.75 671.384 2306.74 671.525 Q2305.76 671.642 2305.45 671.806 Q2305.17 671.97 2304.77 672.391 L2299.17 678.622 L2307.23 688.178 L2310.63 688.178 L2310.63 690.427 Z" fill="#000000" fill-rule="nonzero" fill-opacity="1" /><path clip-path="url(#clip340)" d="M1445.91 1423.18 L2352.76 1423.18 L2352.76 1071.73 L1445.91 1071.73  Z" fill="#ffffff" fill-rule="evenodd" fill-opacity="1"/>
<defs>
  <clipPath id="clip345">
    <rect x="1445" y="1071" width="908" height="352"/>
  </clipPath>
</defs>
<polyline clip-path="url(#clip345)" style="stroke:#000000; stroke-linecap:round; stroke-linejoin:round; stroke-width:2; stroke-opacity:0.1; fill:none" points="1471.57,1423.18 1471.57,1071.73 "/>
<polyline clip-path="url(#clip345)" style="stroke:#000000; stroke-linecap:round; stroke-linejoin:round; stroke-width:2; stroke-opacity:0.1; fill:none" points="1723.2,1423.18 1723.2,1071.73 "/>
<polyline clip-path="url(#clip345)" style="stroke:#000000; stroke-linecap:round; stroke-linejoin:round; stroke-width:2; stroke-opacity:0.1; fill:none" points="1974.82,1423.18 1974.82,1071.73 "/>
<polyline clip-path="url(#clip345)" style="stroke:#000000; stroke-linecap:round; stroke-linejoin:round; stroke-width:2; stroke-opacity:0.1; fill:none" points="2226.44,1423.18 2226.44,1071.73 "/>
<polyline clip-path="url(#clip340)" style="stroke:#000000; stroke-linecap:round; stroke-linejoin:round; stroke-width:4; stroke-opacity:1; fill:none" points="1445.91,1423.18 2352.76,1423.18 "/>
<polyline clip-path="url(#clip340)" style="stroke:#000000; stroke-linecap:round; stroke-linejoin:round; stroke-width:4; stroke-opacity:1; fill:none" points="1471.57,1423.18 1471.57,1404.28 "/>
<polyline clip-path="url(#clip340)" style="stroke:#000000; stroke-linecap:round; stroke-linejoin:round; stroke-width:4; stroke-opacity:1; fill:none" points="1723.2,1423.18 1723.2,1404.28 "/>
<polyline clip-path="url(#clip340)" style="stroke:#000000; stroke-linecap:round; stroke-linejoin:round; stroke-width:4; stroke-opacity:1; fill:none" points="1974.82,1423.18 1974.82,1404.28 "/>
<polyline clip-path="url(#clip340)" style="stroke:#000000; stroke-linecap:round; stroke-linejoin:round; stroke-width:4; stroke-opacity:1; fill:none" points="2226.44,1423.18 2226.44,1404.28 "/>
<path clip-path="url(#clip340)" d="M1471.57 1454.1 Q1467.96 1454.1 1466.13 1457.66 Q1464.33 1461.2 1464.33 1468.33 Q1464.33 1475.44 1466.13 1479.01 Q1467.96 1482.55 1471.57 1482.55 Q1475.21 1482.55 1477.01 1479.01 Q1478.84 1475.44 1478.84 1468.33 Q1478.84 1461.2 1477.01 1457.66 Q1475.21 1454.1 1471.57 1454.1 M1471.57 1450.39 Q1477.38 1450.39 1480.44 1455 Q1483.52 1459.58 1483.52 1468.33 Q1483.52 1477.06 1480.44 1481.67 Q1477.38 1486.25 1471.57 1486.25 Q1465.76 1486.25 1462.68 1481.67 Q1459.63 1477.06 1459.63 1468.33 Q1459.63 1459.58 1462.68 1455 Q1465.76 1450.39 1471.57 1450.39 Z" fill="#000000" fill-rule="nonzero" fill-opacity="1" /><path clip-path="url(#clip340)" d="M1713.58 1481.64 L1721.22 1481.64 L1721.22 1455.28 L1712.91 1456.95 L1712.91 1452.69 L1721.17 1451.02 L1725.85 1451.02 L1725.85 1481.64 L1733.49 1481.64 L1733.49 1485.58 L1713.58 1485.58 L1713.58 1481.64 Z" fill="#000000" fill-rule="nonzero" fill-opacity="1" /><path clip-path="url(#clip340)" d="M1969.47 1481.64 L1985.79 1481.64 L1985.79 1485.58 L1963.85 1485.58 L1963.85 1481.64 Q1966.51 1478.89 1971.09 1474.26 Q1975.7 1469.61 1976.88 1468.27 Q1979.12 1465.74 1980 1464.01 Q1980.91 1462.25 1980.91 1460.56 Q1980.91 1457.8 1978.96 1456.07 Q1977.04 1454.33 1973.94 1454.33 Q1971.74 1454.33 1969.29 1455.09 Q1966.86 1455.86 1964.08 1457.41 L1964.08 1452.69 Q1966.9 1451.55 1969.36 1450.97 Q1971.81 1450.39 1973.85 1450.39 Q1979.22 1450.39 1982.41 1453.08 Q1985.61 1455.77 1985.61 1460.26 Q1985.61 1462.39 1984.8 1464.31 Q1984.01 1466.2 1981.9 1468.8 Q1981.32 1469.47 1978.22 1472.69 Q1975.12 1475.88 1969.47 1481.64 Z" fill="#000000" fill-rule="nonzero" fill-opacity="1" /><path clip-path="url(#clip340)" d="M2230.69 1466.95 Q2234.05 1467.66 2235.92 1469.93 Q2237.82 1472.2 2237.82 1475.53 Q2237.82 1480.65 2234.3 1483.45 Q2230.78 1486.25 2224.3 1486.25 Q2222.12 1486.25 2219.81 1485.81 Q2217.52 1485.39 2215.06 1484.54 L2215.06 1480.02 Q2217.01 1481.16 2219.32 1481.74 Q2221.64 1482.32 2224.16 1482.32 Q2228.56 1482.32 2230.85 1480.58 Q2233.17 1478.84 2233.17 1475.53 Q2233.17 1472.48 2231.01 1470.77 Q2228.88 1469.03 2225.06 1469.03 L2221.04 1469.03 L2221.04 1465.19 L2225.25 1465.19 Q2228.7 1465.19 2230.53 1463.82 Q2232.36 1462.43 2232.36 1459.84 Q2232.36 1457.18 2230.46 1455.77 Q2228.58 1454.33 2225.06 1454.33 Q2223.14 1454.33 2220.94 1454.75 Q2218.74 1455.16 2216.11 1456.04 L2216.11 1451.88 Q2218.77 1451.14 2221.08 1450.77 Q2223.42 1450.39 2225.48 1450.39 Q2230.8 1450.39 2233.91 1452.83 Q2237.01 1455.23 2237.01 1459.35 Q2237.01 1462.22 2235.36 1464.21 Q2233.72 1466.18 2230.69 1466.95 Z" fill="#000000" fill-rule="nonzero" fill-opacity="1" /><path clip-path="url(#clip340)" d="M1769.5 1520.52 L1809.7 1520.52 L1809.7 1525.93 L1792.83 1525.93 L1792.83 1568.04 L1786.37 1568.04 L1786.37 1525.93 L1769.5 1525.93 L1769.5 1520.52 Z" fill="#000000" fill-rule="nonzero" fill-opacity="1" /><path clip-path="url(#clip340)" d="M1813.65 1532.4 L1819.51 1532.4 L1819.51 1568.04 L1813.65 1568.04 L1813.65 1532.4 M1813.65 1518.52 L1819.51 1518.52 L1819.51 1525.93 L1813.65 1525.93 L1813.65 1518.52 Z" fill="#000000" fill-rule="nonzero" fill-opacity="1" /><path clip-path="url(#clip340)" d="M1859.51 1539.24 Q1861.71 1535.29 1864.77 1533.41 Q1867.82 1531.54 1871.96 1531.54 Q1877.53 1531.54 1880.55 1535.45 Q1883.58 1539.33 1883.58 1546.53 L1883.58 1568.04 L1877.69 1568.04 L1877.69 1546.72 Q1877.69 1541.59 1875.87 1539.11 Q1874.06 1536.63 1870.34 1536.63 Q1865.78 1536.63 1863.14 1539.65 Q1860.5 1542.68 1860.5 1547.9 L1860.5 1568.04 L1854.61 1568.04 L1854.61 1546.72 Q1854.61 1541.56 1852.8 1539.11 Q1850.98 1536.63 1847.2 1536.63 Q1842.71 1536.63 1840.07 1539.68 Q1837.43 1542.71 1837.43 1547.9 L1837.43 1568.04 L1831.54 1568.04 L1831.54 1532.4 L1837.43 1532.4 L1837.43 1537.93 Q1839.43 1534.66 1842.23 1533.1 Q1845.03 1531.54 1848.88 1531.54 Q1852.77 1531.54 1855.47 1533.51 Q1858.21 1535.48 1859.51 1539.24 Z" fill="#000000" fill-rule="nonzero" fill-opacity="1" /><path clip-path="url(#clip340)" d="M1925.75 1548.76 L1925.75 1551.62 L1898.82 1551.62 Q1899.2 1557.67 1902.45 1560.85 Q1905.73 1564 1911.55 1564 Q1914.93 1564 1918.08 1563.17 Q1921.26 1562.35 1924.38 1560.69 L1924.38 1566.23 Q1921.23 1567.57 1917.92 1568.27 Q1914.61 1568.97 1911.2 1568.97 Q1902.67 1568.97 1897.68 1564 Q1892.71 1559.04 1892.71 1550.57 Q1892.71 1541.82 1897.42 1536.69 Q1902.16 1531.54 1910.19 1531.54 Q1917.38 1531.54 1921.55 1536.18 Q1925.75 1540.8 1925.75 1548.76 M1919.89 1547.04 Q1919.83 1542.23 1917.19 1539.37 Q1914.58 1536.5 1910.25 1536.5 Q1905.35 1536.5 1902.39 1539.27 Q1899.46 1542.04 1899.01 1547.07 L1919.89 1547.04 Z" fill="#000000" fill-rule="nonzero" fill-opacity="1" /><path clip-path="url(#clip340)" d="M1970.15 1518.58 Q1965.89 1525.9 1963.82 1533.06 Q1961.75 1540.23 1961.75 1547.58 Q1961.75 1554.93 1963.82 1562.16 Q1965.92 1569.35 1970.15 1576.64 L1965.06 1576.64 Q1960.28 1569.16 1957.9 1561.93 Q1955.54 1554.71 1955.54 1547.58 Q1955.54 1540.48 1957.9 1533.29 Q1960.25 1526.09 1965.06 1518.58 L1970.15 1518.58 Z" fill="#000000" fill-rule="nonzero" fill-opacity="1" /><path clip-path="url(#clip340)" d="M2004.24 1533.45 L2004.24 1538.98 Q2001.76 1537.71 1999.08 1537.07 Q1996.41 1536.44 1993.54 1536.44 Q1989.18 1536.44 1986.99 1537.77 Q1984.82 1539.11 1984.82 1541.79 Q1984.82 1543.82 1986.38 1545 Q1987.94 1546.15 1992.65 1547.2 L1994.66 1547.64 Q2000.9 1548.98 2003.51 1551.43 Q2006.15 1553.85 2006.15 1558.21 Q2006.15 1563.17 2002.2 1566.07 Q1998.29 1568.97 1991.41 1568.97 Q1988.55 1568.97 1985.43 1568.39 Q1982.34 1567.85 1978.9 1566.74 L1978.9 1560.69 Q1982.15 1562.38 1985.3 1563.24 Q1988.45 1564.07 1991.54 1564.07 Q1995.68 1564.07 1997.9 1562.66 Q2000.13 1561.23 2000.13 1558.65 Q2000.13 1556.27 1998.51 1554.99 Q1996.92 1553.72 1991.48 1552.54 L1989.44 1552.07 Q1984 1550.92 1981.58 1548.56 Q1979.16 1546.18 1979.16 1542.04 Q1979.16 1537.01 1982.72 1534.27 Q1986.29 1531.54 1992.84 1531.54 Q1996.09 1531.54 1998.96 1532.01 Q2001.82 1532.49 2004.24 1533.45 Z" fill="#000000" fill-rule="nonzero" fill-opacity="1" /><path clip-path="url(#clip340)" d="M2014.55 1518.58 L2019.64 1518.58 Q2024.42 1526.09 2026.77 1533.29 Q2029.16 1540.48 2029.16 1547.58 Q2029.16 1554.71 2026.77 1561.93 Q2024.42 1569.16 2019.64 1576.64 L2014.55 1576.64 Q2018.78 1569.35 2020.85 1562.16 Q2022.95 1554.93 2022.95 1547.58 Q2022.95 1540.23 2020.85 1533.06 Q2018.78 1525.9 2014.55 1518.58 Z" fill="#000000" fill-rule="nonzero" fill-opacity="1" /><polyline clip-path="url(#clip345)" style="stroke:#000000; stroke-linecap:round; stroke-linejoin:round; stroke-width:2; stroke-opacity:0.1; fill:none" points="1445.91,1415.19 2352.76,1415.19 "/>
<polyline clip-path="url(#clip345)" style="stroke:#000000; stroke-linecap:round; stroke-linejoin:round; stroke-width:2; stroke-opacity:0.1; fill:none" points="1445.91,1337.63 2352.76,1337.63 "/>
<polyline clip-path="url(#clip345)" style="stroke:#000000; stroke-linecap:round; stroke-linejoin:round; stroke-width:2; stroke-opacity:0.1; fill:none" points="1445.91,1260.07 2352.76,1260.07 "/>
<polyline clip-path="url(#clip345)" style="stroke:#000000; stroke-linecap:round; stroke-linejoin:round; stroke-width:2; stroke-opacity:0.1; fill:none" points="1445.91,1182.52 2352.76,1182.52 "/>
<polyline clip-path="url(#clip345)" style="stroke:#000000; stroke-linecap:round; stroke-linejoin:round; stroke-width:2; stroke-opacity:0.1; fill:none" points="1445.91,1104.96 2352.76,1104.96 "/>
<polyline clip-path="url(#clip340)" style="stroke:#000000; stroke-linecap:round; stroke-linejoin:round; stroke-width:4; stroke-opacity:1; fill:none" points="1445.91,1423.18 1445.91,1071.73 "/>
<polyline clip-path="url(#clip340)" style="stroke:#000000; stroke-linecap:round; stroke-linejoin:round; stroke-width:4; stroke-opacity:1; fill:none" points="1445.91,1415.19 1464.81,1415.19 "/>
<polyline clip-path="url(#clip340)" style="stroke:#000000; stroke-linecap:round; stroke-linejoin:round; stroke-width:4; stroke-opacity:1; fill:none" points="1445.91,1337.63 1464.81,1337.63 "/>
<polyline clip-path="url(#clip340)" style="stroke:#000000; stroke-linecap:round; stroke-linejoin:round; stroke-width:4; stroke-opacity:1; fill:none" points="1445.91,1260.07 1464.81,1260.07 "/>
<polyline clip-path="url(#clip340)" style="stroke:#000000; stroke-linecap:round; stroke-linejoin:round; stroke-width:4; stroke-opacity:1; fill:none" points="1445.91,1182.52 1464.81,1182.52 "/>
<polyline clip-path="url(#clip340)" style="stroke:#000000; stroke-linecap:round; stroke-linejoin:round; stroke-width:4; stroke-opacity:1; fill:none" points="1445.91,1104.96 1464.81,1104.96 "/>
<path clip-path="url(#clip340)" d="M1272.64 1415.64 L1302.32 1415.64 L1302.32 1419.57 L1272.64 1419.57 L1272.64 1415.64 Z" fill="#000000" fill-rule="nonzero" fill-opacity="1" /><path clip-path="url(#clip340)" d="M1322.41 1400.98 Q1318.8 1400.98 1316.97 1404.55 Q1315.16 1408.09 1315.16 1415.22 Q1315.16 1422.33 1316.97 1425.89 Q1318.8 1429.43 1322.41 1429.43 Q1326.04 1429.43 1327.85 1425.89 Q1329.68 1422.33 1329.68 1415.22 Q1329.68 1408.09 1327.85 1404.55 Q1326.04 1400.98 1322.41 1400.98 M1322.41 1397.28 Q1328.22 1397.28 1331.27 1401.89 Q1334.35 1406.47 1334.35 1415.22 Q1334.35 1423.95 1331.27 1428.55 Q1328.22 1433.14 1322.41 1433.14 Q1316.6 1433.14 1313.52 1428.55 Q1310.46 1423.95 1310.46 1415.22 Q1310.46 1406.47 1313.52 1401.89 Q1316.6 1397.28 1322.41 1397.28 Z" fill="#000000" fill-rule="nonzero" fill-opacity="1" /><path clip-path="url(#clip340)" d="M1342.57 1426.59 L1347.45 1426.59 L1347.45 1432.47 L1342.57 1432.47 L1342.57 1426.59 Z" fill="#000000" fill-rule="nonzero" fill-opacity="1" /><path clip-path="url(#clip340)" d="M1367.64 1400.98 Q1364.03 1400.98 1362.2 1404.55 Q1360.39 1408.09 1360.39 1415.22 Q1360.39 1422.33 1362.2 1425.89 Q1364.03 1429.43 1367.64 1429.43 Q1371.27 1429.43 1373.08 1425.89 Q1374.91 1422.33 1374.91 1415.22 Q1374.91 1408.09 1373.08 1404.55 Q1371.27 1400.98 1367.64 1400.98 M1367.64 1397.28 Q1373.45 1397.28 1376.51 1401.89 Q1379.58 1406.47 1379.58 1415.22 Q1379.58 1423.95 1376.51 1428.55 Q1373.45 1433.14 1367.64 1433.14 Q1361.83 1433.14 1358.75 1428.55 Q1355.7 1423.95 1355.7 1415.22 Q1355.7 1406.47 1358.75 1401.89 Q1361.83 1397.28 1367.64 1397.28 Z" fill="#000000" fill-rule="nonzero" fill-opacity="1" /><path clip-path="url(#clip340)" d="M1398.38 1413.32 Q1395.23 1413.32 1393.38 1415.47 Q1391.55 1417.63 1391.55 1421.38 Q1391.55 1425.1 1393.38 1427.28 Q1395.23 1429.43 1398.38 1429.43 Q1401.53 1429.43 1403.36 1427.28 Q1405.21 1425.1 1405.21 1421.38 Q1405.21 1417.63 1403.36 1415.47 Q1401.53 1413.32 1398.38 1413.32 M1407.66 1398.67 L1407.66 1402.93 Q1405.9 1402.09 1404.1 1401.66 Q1402.32 1401.22 1400.56 1401.22 Q1395.93 1401.22 1393.47 1404.34 Q1391.04 1407.47 1390.69 1413.78 Q1392.06 1411.77 1394.12 1410.71 Q1396.18 1409.62 1398.66 1409.62 Q1403.87 1409.62 1406.88 1412.79 Q1409.91 1415.94 1409.91 1421.38 Q1409.91 1426.7 1406.76 1429.92 Q1403.61 1433.14 1398.38 1433.14 Q1392.38 1433.14 1389.21 1428.55 Q1386.04 1423.95 1386.04 1415.22 Q1386.04 1407.03 1389.93 1402.16 Q1393.82 1397.28 1400.37 1397.28 Q1402.13 1397.28 1403.91 1397.63 Q1405.72 1397.97 1407.66 1398.67 Z" fill="#000000" fill-rule="nonzero" fill-opacity="1" /><path clip-path="url(#clip340)" d="M1272.32 1338.08 L1301.99 1338.08 L1301.99 1342.02 L1272.32 1342.02 L1272.32 1338.08 Z" fill="#000000" fill-rule="nonzero" fill-opacity="1" /><path clip-path="url(#clip340)" d="M1322.08 1323.43 Q1318.47 1323.43 1316.64 1326.99 Q1314.84 1330.53 1314.84 1337.66 Q1314.84 1344.77 1316.64 1348.34 Q1318.47 1351.88 1322.08 1351.88 Q1325.72 1351.88 1327.52 1348.34 Q1329.35 1344.77 1329.35 1337.66 Q1329.35 1330.53 1327.52 1326.99 Q1325.72 1323.43 1322.08 1323.43 M1322.08 1319.72 Q1327.89 1319.72 1330.95 1324.33 Q1334.03 1328.91 1334.03 1337.66 Q1334.03 1346.39 1330.95 1351 Q1327.89 1355.58 1322.08 1355.58 Q1316.27 1355.58 1313.2 1351 Q1310.14 1346.39 1310.14 1337.66 Q1310.14 1328.91 1313.2 1324.33 Q1316.27 1319.72 1322.08 1319.72 Z" fill="#000000" fill-rule="nonzero" fill-opacity="1" /><path clip-path="url(#clip340)" d="M1342.25 1349.03 L1347.13 1349.03 L1347.13 1354.91 L1342.25 1354.91 L1342.25 1349.03 Z" fill="#000000" fill-rule="nonzero" fill-opacity="1" /><path clip-path="url(#clip340)" d="M1367.32 1323.43 Q1363.7 1323.43 1361.88 1326.99 Q1360.07 1330.53 1360.07 1337.66 Q1360.07 1344.77 1361.88 1348.34 Q1363.7 1351.88 1367.32 1351.88 Q1370.95 1351.88 1372.76 1348.34 Q1374.58 1344.77 1374.58 1337.66 Q1374.58 1330.53 1372.76 1326.99 Q1370.95 1323.43 1367.32 1323.43 M1367.32 1319.72 Q1373.13 1319.72 1376.18 1324.33 Q1379.26 1328.91 1379.26 1337.66 Q1379.26 1346.39 1376.18 1351 Q1373.13 1355.58 1367.32 1355.58 Q1361.51 1355.58 1358.43 1351 Q1355.37 1346.39 1355.37 1337.66 Q1355.37 1328.91 1358.43 1324.33 Q1361.51 1319.72 1367.32 1319.72 Z" fill="#000000" fill-rule="nonzero" fill-opacity="1" /><path clip-path="url(#clip340)" d="M1400.32 1324.42 L1388.52 1342.87 L1400.32 1342.87 L1400.32 1324.42 M1399.1 1320.35 L1404.98 1320.35 L1404.98 1342.87 L1409.91 1342.87 L1409.91 1346.76 L1404.98 1346.76 L1404.98 1354.91 L1400.32 1354.91 L1400.32 1346.76 L1384.72 1346.76 L1384.72 1342.25 L1399.1 1320.35 Z" fill="#000000" fill-rule="nonzero" fill-opacity="1" /><path clip-path="url(#clip340)" d="M1274.4 1260.53 L1304.08 1260.53 L1304.08 1264.46 L1274.4 1264.46 L1274.4 1260.53 Z" fill="#000000" fill-rule="nonzero" fill-opacity="1" /><path clip-path="url(#clip340)" d="M1324.17 1245.87 Q1320.56 1245.87 1318.73 1249.44 Q1316.92 1252.98 1316.92 1260.11 Q1316.92 1267.22 1318.73 1270.78 Q1320.56 1274.32 1324.17 1274.32 Q1327.8 1274.32 1329.61 1270.78 Q1331.44 1267.22 1331.44 1260.11 Q1331.44 1252.98 1329.61 1249.44 Q1327.8 1245.87 1324.17 1245.87 M1324.17 1242.17 Q1329.98 1242.17 1333.03 1246.78 Q1336.11 1251.36 1336.11 1260.11 Q1336.11 1268.84 1333.03 1273.44 Q1329.98 1278.03 1324.17 1278.03 Q1318.36 1278.03 1315.28 1273.44 Q1312.22 1268.84 1312.22 1260.11 Q1312.22 1251.36 1315.28 1246.78 Q1318.36 1242.17 1324.17 1242.17 Z" fill="#000000" fill-rule="nonzero" fill-opacity="1" /><path clip-path="url(#clip340)" d="M1344.33 1271.47 L1349.21 1271.47 L1349.21 1277.35 L1344.33 1277.35 L1344.33 1271.47 Z" fill="#000000" fill-rule="nonzero" fill-opacity="1" /><path clip-path="url(#clip340)" d="M1369.4 1245.87 Q1365.79 1245.87 1363.96 1249.44 Q1362.15 1252.98 1362.15 1260.11 Q1362.15 1267.22 1363.96 1270.78 Q1365.79 1274.32 1369.4 1274.32 Q1373.03 1274.32 1374.84 1270.78 Q1376.67 1267.22 1376.67 1260.11 Q1376.67 1252.98 1374.84 1249.44 Q1373.03 1245.87 1369.4 1245.87 M1369.4 1242.17 Q1375.21 1242.17 1378.26 1246.78 Q1381.34 1251.36 1381.34 1260.11 Q1381.34 1268.84 1378.26 1273.44 Q1375.21 1278.03 1369.4 1278.03 Q1363.59 1278.03 1360.51 1273.44 Q1357.45 1268.84 1357.45 1260.11 Q1357.45 1251.36 1360.51 1246.78 Q1363.59 1242.17 1369.4 1242.17 Z" fill="#000000" fill-rule="nonzero" fill-opacity="1" /><path clip-path="url(#clip340)" d="M1393.59 1273.42 L1409.91 1273.42 L1409.91 1277.35 L1387.96 1277.35 L1387.96 1273.42 Q1390.63 1270.66 1395.21 1266.03 Q1399.82 1261.38 1401 1260.04 Q1403.24 1257.52 1404.12 1255.78 Q1405.02 1254.02 1405.02 1252.33 Q1405.02 1249.58 1403.08 1247.84 Q1401.16 1246.1 1398.06 1246.1 Q1395.86 1246.1 1393.4 1246.87 Q1390.97 1247.63 1388.19 1249.18 L1388.19 1244.46 Q1391.02 1243.33 1393.47 1242.75 Q1395.93 1242.17 1397.96 1242.17 Q1403.33 1242.17 1406.53 1244.85 Q1409.72 1247.54 1409.72 1252.03 Q1409.72 1254.16 1408.91 1256.08 Q1408.13 1257.98 1406.02 1260.57 Q1405.44 1261.24 1402.34 1264.46 Q1399.24 1267.66 1393.59 1273.42 Z" fill="#000000" fill-rule="nonzero" fill-opacity="1" /><path clip-path="url(#clip340)" d="M1322.57 1168.32 Q1318.96 1168.32 1317.13 1171.88 Q1315.32 1175.42 1315.32 1182.55 Q1315.32 1189.66 1317.13 1193.22 Q1318.96 1196.77 1322.57 1196.77 Q1326.2 1196.77 1328.01 1193.22 Q1329.84 1189.66 1329.84 1182.55 Q1329.84 1175.42 1328.01 1171.88 Q1326.2 1168.32 1322.57 1168.32 M1322.57 1164.61 Q1328.38 1164.61 1331.44 1169.22 Q1334.51 1173.8 1334.51 1182.55 Q1334.51 1191.28 1331.44 1195.89 Q1328.38 1200.47 1322.57 1200.47 Q1316.76 1200.47 1313.68 1195.89 Q1310.63 1191.28 1310.63 1182.55 Q1310.63 1173.8 1313.68 1169.22 Q1316.76 1164.61 1322.57 1164.61 Z" fill="#000000" fill-rule="nonzero" fill-opacity="1" /><path clip-path="url(#clip340)" d="M1342.73 1193.92 L1347.62 1193.92 L1347.62 1199.8 L1342.73 1199.8 L1342.73 1193.92 Z" fill="#000000" fill-rule="nonzero" fill-opacity="1" /><path clip-path="url(#clip340)" d="M1367.8 1168.32 Q1364.19 1168.32 1362.36 1171.88 Q1360.56 1175.42 1360.56 1182.55 Q1360.56 1189.66 1362.36 1193.22 Q1364.19 1196.77 1367.8 1196.77 Q1371.44 1196.77 1373.24 1193.22 Q1375.07 1189.66 1375.07 1182.55 Q1375.07 1175.42 1373.24 1171.88 Q1371.44 1168.32 1367.8 1168.32 M1367.8 1164.61 Q1373.61 1164.61 1376.67 1169.22 Q1379.75 1173.8 1379.75 1182.55 Q1379.75 1191.28 1376.67 1195.89 Q1373.61 1200.47 1367.8 1200.47 Q1361.99 1200.47 1358.91 1195.89 Q1355.86 1191.28 1355.86 1182.55 Q1355.86 1173.8 1358.91 1169.22 Q1361.99 1164.61 1367.8 1164.61 Z" fill="#000000" fill-rule="nonzero" fill-opacity="1" /><path clip-path="url(#clip340)" d="M1397.96 1168.32 Q1394.35 1168.32 1392.52 1171.88 Q1390.72 1175.42 1390.72 1182.55 Q1390.72 1189.66 1392.52 1193.22 Q1394.35 1196.77 1397.96 1196.77 Q1401.6 1196.77 1403.4 1193.22 Q1405.23 1189.66 1405.23 1182.55 Q1405.23 1175.42 1403.4 1171.88 Q1401.6 1168.32 1397.96 1168.32 M1397.96 1164.61 Q1403.77 1164.61 1406.83 1169.22 Q1409.91 1173.8 1409.91 1182.55 Q1409.91 1191.28 1406.83 1195.89 Q1403.77 1200.47 1397.96 1200.47 Q1392.15 1200.47 1389.07 1195.89 Q1386.02 1191.28 1386.02 1182.55 Q1386.02 1173.8 1389.07 1169.22 Q1392.15 1164.61 1397.96 1164.61 Z" fill="#000000" fill-rule="nonzero" fill-opacity="1" /><path clip-path="url(#clip340)" d="M1324.17 1090.76 Q1320.56 1090.76 1318.73 1094.33 Q1316.92 1097.87 1316.92 1105 Q1316.92 1112.1 1318.73 1115.67 Q1320.56 1119.21 1324.17 1119.21 Q1327.8 1119.21 1329.61 1115.67 Q1331.44 1112.1 1331.44 1105 Q1331.44 1097.87 1329.61 1094.33 Q1327.8 1090.76 1324.17 1090.76 M1324.17 1087.06 Q1329.98 1087.06 1333.03 1091.66 Q1336.11 1096.25 1336.11 1105 Q1336.11 1113.72 1333.03 1118.33 Q1329.98 1122.91 1324.17 1122.91 Q1318.36 1122.91 1315.28 1118.33 Q1312.22 1113.72 1312.22 1105 Q1312.22 1096.25 1315.28 1091.66 Q1318.36 1087.06 1324.17 1087.06 Z" fill="#000000" fill-rule="nonzero" fill-opacity="1" /><path clip-path="url(#clip340)" d="M1344.33 1116.36 L1349.21 1116.36 L1349.21 1122.24 L1344.33 1122.24 L1344.33 1116.36 Z" fill="#000000" fill-rule="nonzero" fill-opacity="1" /><path clip-path="url(#clip340)" d="M1369.4 1090.76 Q1365.79 1090.76 1363.96 1094.33 Q1362.15 1097.87 1362.15 1105 Q1362.15 1112.1 1363.96 1115.67 Q1365.79 1119.21 1369.4 1119.21 Q1373.03 1119.21 1374.84 1115.67 Q1376.67 1112.1 1376.67 1105 Q1376.67 1097.87 1374.84 1094.33 Q1373.03 1090.76 1369.4 1090.76 M1369.4 1087.06 Q1375.21 1087.06 1378.26 1091.66 Q1381.34 1096.25 1381.34 1105 Q1381.34 1113.72 1378.26 1118.33 Q1375.21 1122.91 1369.4 1122.91 Q1363.59 1122.91 1360.51 1118.33 Q1357.45 1113.72 1357.45 1105 Q1357.45 1096.25 1360.51 1091.66 Q1363.59 1087.06 1369.4 1087.06 Z" fill="#000000" fill-rule="nonzero" fill-opacity="1" /><path clip-path="url(#clip340)" d="M1393.59 1118.31 L1409.91 1118.31 L1409.91 1122.24 L1387.96 1122.24 L1387.96 1118.31 Q1390.63 1115.55 1395.21 1110.92 Q1399.82 1106.27 1401 1104.93 Q1403.24 1102.41 1404.12 1100.67 Q1405.02 1098.91 1405.02 1097.22 Q1405.02 1094.47 1403.08 1092.73 Q1401.16 1090.99 1398.06 1090.99 Q1395.86 1090.99 1393.4 1091.76 Q1390.97 1092.52 1388.19 1094.07 L1388.19 1089.35 Q1391.02 1088.22 1393.47 1087.64 Q1395.93 1087.06 1397.96 1087.06 Q1403.33 1087.06 1406.53 1089.74 Q1409.72 1092.43 1409.72 1096.92 Q1409.72 1099.05 1408.91 1100.97 Q1408.13 1102.87 1406.02 1105.46 Q1405.44 1106.13 1402.34 1109.35 Q1399.24 1112.54 1393.59 1118.31 Z" fill="#000000" fill-rule="nonzero" fill-opacity="1" /><path clip-path="url(#clip340)" d="M1182.01 1250.93 L1182.94 1251.49 Q1181.43 1254.99 1179.02 1259.34 Q1181.43 1263.69 1182.94 1267.19 L1182.01 1267.73 Q1178.7 1263.92 1176.15 1259.34 Q1178.72 1254.72 1182.01 1250.93 Z" fill="#000000" fill-rule="nonzero" fill-opacity="1" /><path clip-path="url(#clip340)" d="M1194.31 1247.77 Q1196.12 1247.77 1197.15 1248.9 Q1198.14 1250.02 1198.14 1251.31 Q1198.14 1252.54 1197.44 1253.18 Q1196.73 1253.82 1195.83 1253.82 Q1194.6 1253.82 1193.54 1252.92 Q1192.48 1252.02 1192.25 1250.67 Q1191.41 1251.99 1191.41 1253.95 Q1191.41 1255.24 1192.09 1256.37 Q1192.77 1257.46 1193.64 1258.14 Q1194.51 1258.78 1195.76 1259.36 Q1196.99 1259.91 1197.73 1260.14 Q1198.43 1260.33 1199.21 1260.49 L1208.23 1262.74 Q1212.51 1263.84 1214.02 1263.84 Q1215.89 1263.84 1217.15 1262.94 Q1218.37 1262.04 1218.37 1260.23 Q1218.37 1259.52 1218.18 1258.72 Q1217.95 1257.91 1217.37 1256.88 Q1216.76 1255.82 1215.86 1254.89 Q1214.92 1253.92 1213.35 1252.99 Q1211.77 1252.05 1209.74 1251.44 Q1209.03 1251.25 1209.03 1250.6 Q1209.03 1249.8 1209.67 1249.8 Q1210.22 1249.8 1211.38 1250.25 Q1212.51 1250.67 1213.99 1251.6 Q1215.44 1252.5 1216.76 1253.69 Q1218.05 1254.89 1218.95 1256.66 Q1219.85 1258.43 1219.85 1260.36 Q1219.85 1263.13 1218.37 1264.97 Q1216.89 1266.8 1214.83 1267.48 Q1215.12 1267.64 1215.5 1267.87 Q1215.89 1268.09 1216.76 1268.77 Q1217.6 1269.41 1218.24 1270.15 Q1218.85 1270.89 1219.34 1272.05 Q1219.85 1273.18 1219.85 1274.4 Q1219.85 1275.95 1219.4 1277.33 Q1218.95 1278.69 1217.92 1279.65 Q1216.89 1280.62 1215.47 1280.62 Q1213.89 1280.62 1212.8 1279.56 Q1211.67 1278.46 1211.67 1276.98 Q1211.67 1276.05 1212.22 1275.3 Q1212.77 1274.53 1213.96 1274.53 Q1215.28 1274.53 1216.28 1275.43 Q1217.27 1276.34 1217.53 1277.62 Q1218.37 1276.3 1218.37 1274.34 Q1218.37 1272.21 1216.5 1270.54 Q1214.63 1268.86 1211.51 1268.06 Q1204.01 1266.06 1200.66 1265.29 Q1197.28 1264.52 1195.83 1264.52 Q1194.47 1264.52 1193.54 1264.87 Q1192.61 1265.22 1192.19 1265.84 Q1191.74 1266.42 1191.57 1266.96 Q1191.41 1267.48 1191.41 1268.06 Q1191.41 1269.02 1191.8 1270.12 Q1192.19 1271.18 1193.09 1272.47 Q1193.96 1273.73 1195.76 1274.92 Q1197.56 1276.11 1200.04 1276.92 Q1200.79 1277.08 1200.79 1277.78 Q1200.75 1278.56 1200.11 1278.56 Q1199.56 1278.56 1198.43 1278.14 Q1197.28 1277.69 1195.83 1276.79 Q1194.38 1275.85 1193.09 1274.66 Q1191.77 1273.44 1190.87 1271.67 Q1189.96 1269.86 1189.96 1267.93 Q1189.96 1267.06 1190.16 1266.22 Q1190.32 1265.35 1190.8 1264.32 Q1191.28 1263.26 1192.35 1262.33 Q1193.41 1261.39 1194.96 1260.81 Q1194.22 1260.43 1193.51 1259.91 Q1192.8 1259.36 1191.93 1258.53 Q1191.03 1257.66 1190.51 1256.46 Q1189.96 1255.24 1189.96 1253.89 Q1189.96 1252.57 1190.32 1251.28 Q1190.64 1249.99 1191.7 1248.9 Q1192.73 1247.77 1194.31 1247.77 Z" fill="#000000" fill-rule="nonzero" fill-opacity="1" /><path clip-path="url(#clip340)" d="M1231.9 1240.31 Q1230.52 1240.31 1229.87 1239.52 Q1229.22 1238.73 1229.22 1237.72 Q1229.22 1236.66 1229.92 1235.91 Q1230.59 1235.15 1231.79 1235.15 Q1233.07 1235.15 1233.79 1236.05 Q1234.51 1236.93 1234.33 1238.19 Q1236.18 1237.09 1237.02 1235.06 Q1237.85 1233.01 1237.85 1231.11 Q1237.85 1229.13 1236.14 1227.53 Q1234.42 1225.9 1230.23 1225.9 Q1226.67 1225.9 1224.62 1227.3 Q1222.57 1228.68 1222.57 1231.4 L1222.57 1233.43 Q1222.57 1234.13 1222.5 1234.34 Q1222.43 1234.54 1222.05 1234.54 Q1221.6 1234.54 1221.51 1233.84 Q1221.51 1233.14 1221.37 1232.04 Q1221.28 1229.35 1218.96 1227.93 Q1216.79 1226.65 1213.71 1226.65 Q1210.89 1226.65 1209.72 1228 Q1208.52 1229.33 1208.52 1231.07 Q1208.52 1232.69 1209.2 1234.47 Q1209.87 1236.25 1211.38 1237.22 Q1211.38 1234.36 1213.71 1234.36 Q1214.72 1234.36 1215.4 1235.01 Q1216.05 1235.64 1216.05 1236.7 Q1216.05 1237.72 1215.42 1238.39 Q1214.77 1239.07 1213.66 1239.07 Q1211.02 1239.07 1209.2 1236.73 Q1207.37 1234.36 1207.37 1230.89 Q1207.37 1227.46 1209.17 1224.93 Q1210.98 1222.39 1213.75 1222.39 Q1216.48 1222.39 1218.71 1224.19 Q1220.94 1225.99 1221.87 1228.86 Q1222.57 1225.34 1224.96 1223.24 Q1227.32 1221.15 1230.23 1221.15 Q1233.84 1221.15 1236.5 1223.99 Q1239.14 1226.83 1239.14 1230.98 Q1239.14 1234.81 1237.06 1237.56 Q1234.99 1240.31 1231.9 1240.31 Z" fill="#000000" fill-rule="nonzero" fill-opacity="1" /><polyline clip-path="url(#clip345)" style="stroke:#e26f46; stroke-linecap:round; stroke-linejoin:round; stroke-width:3; stroke-opacity:1; fill:none" stroke-dasharray="12, 6, 2, 6" points="1471.57,1182.52 1496.74,1182.52 1521.9,1182.52 1547.06,1081.68 1572.22,1172.85 1597.38,1254.9 1622.55,1385.61 1647.71,1343.85 1672.87,1413.23 1698.03,1355.97 1723.2,1297.58 1748.36,1253.17 1773.52,1174.76 1798.68,1214.38 1823.85,1156.93 1849.01,1186.79 1874.17,1174.7 1899.33,1213.94 1924.49,1169.49 1949.66,1196.21 1974.82,1259.6 1999.98,1206.33 2025.14,1220.12 2050.31,1132.22 2075.47,1298.37 2100.63,1192.37 2125.79,1176.4 2150.95,1138.82 2176.12,1195.61 2201.28,1194.39 2226.44,1147.35 2251.6,1229.08 2276.77,1144.68 2301.93,1207.27 2327.09,1226.4 "/>
</svg>
