<svg xmlns="http://www.w3.org/2000/svg" xmlns:xlink="http://www.w3.org/1999/xlink" width="600" height="400" viewBox="0 0 2400 1600">
<defs>
  <clipPath id="clip780">
    <rect x="0" y="0" width="2400" height="1600"></rect>
  </clipPath>
</defs>
<path clip-path="url(#clip780)" d="M0 1600 L2400 1600 L2400 0 L0 0  Z" fill="#ffffff" fill-rule="evenodd" fill-opacity="1"></path>
<defs>
  <clipPath id="clip781">
    <rect x="480" y="0" width="1681" height="1600"></rect>
  </clipPath>
</defs>
<defs>
  <clipPath id="clip782">
    <rect x="1403" y="47" width="951" height="1377"></rect>
  </clipPath>
</defs>
<path clip-path="url(#clip780)" d="M203.964 623.18 L1153.62 623.18 L1153.62 47.2441 L203.964 47.2441  Z" fill="#ffffff" fill-rule="evenodd" fill-opacity="1"></path>
<defs>
  <clipPath id="clip783">
    <rect x="203" y="47" width="951" height="577"></rect>
  </clipPath>
</defs>
<polyline clip-path="url(#clip783)" style="stroke:#000000; stroke-linecap:round; stroke-linejoin:round; stroke-width:2; stroke-opacity:0.1; fill:none" points="230.841,623.18 230.841,47.2441 "></polyline>
<polyline clip-path="url(#clip783)" style="stroke:#000000; stroke-linecap:round; stroke-linejoin:round; stroke-width:2; stroke-opacity:0.1; fill:none" points="460.56,623.18 460.56,47.2441 "></polyline>
<polyline clip-path="url(#clip783)" style="stroke:#000000; stroke-linecap:round; stroke-linejoin:round; stroke-width:2; stroke-opacity:0.1; fill:none" points="690.28,623.18 690.28,47.2441 "></polyline>
<polyline clip-path="url(#clip783)" style="stroke:#000000; stroke-linecap:round; stroke-linejoin:round; stroke-width:2; stroke-opacity:0.1; fill:none" points="919.999,623.18 919.999,47.2441 "></polyline>
<polyline clip-path="url(#clip783)" style="stroke:#000000; stroke-linecap:round; stroke-linejoin:round; stroke-width:2; stroke-opacity:0.1; fill:none" points="1149.72,623.18 1149.72,47.2441 "></polyline>
<polyline clip-path="url(#clip780)" style="stroke:#000000; stroke-linecap:round; stroke-linejoin:round; stroke-width:4; stroke-opacity:1; fill:none" points="203.964,623.18 1153.62,623.18 "></polyline>
<polyline clip-path="url(#clip780)" style="stroke:#000000; stroke-linecap:round; stroke-linejoin:round; stroke-width:4; stroke-opacity:1; fill:none" points="230.841,623.18 230.841,604.282 "></polyline>
<polyline clip-path="url(#clip780)" style="stroke:#000000; stroke-linecap:round; stroke-linejoin:round; stroke-width:4; stroke-opacity:1; fill:none" points="460.56,623.18 460.56,604.282 "></polyline>
<polyline clip-path="url(#clip780)" style="stroke:#000000; stroke-linecap:round; stroke-linejoin:round; stroke-width:4; stroke-opacity:1; fill:none" points="690.28,623.18 690.28,604.282 "></polyline>
<polyline clip-path="url(#clip780)" style="stroke:#000000; stroke-linecap:round; stroke-linejoin:round; stroke-width:4; stroke-opacity:1; fill:none" points="919.999,623.18 919.999,604.282 "></polyline>
<polyline clip-path="url(#clip780)" style="stroke:#000000; stroke-linecap:round; stroke-linejoin:round; stroke-width:4; stroke-opacity:1; fill:none" points="1149.72,623.18 1149.72,604.282 "></polyline>
<path clip-path="url(#clip780)" d="M230.841 654.099 Q227.23 654.099 225.401 657.663 Q223.595 661.205 223.595 668.335 Q223.595 675.441 225.401 679.006 Q227.23 682.547 230.841 682.547 Q234.475 682.547 236.281 679.006 Q238.109 675.441 238.109 668.335 Q238.109 661.205 236.281 657.663 Q234.475 654.099 230.841 654.099 M230.841 650.395 Q236.651 650.395 239.706 655.001 Q242.785 659.585 242.785 668.335 Q242.785 677.061 239.706 681.668 Q236.651 686.251 230.841 686.251 Q225.031 686.251 221.952 681.668 Q218.896 677.061 218.896 668.335 Q218.896 659.585 221.952 655.001 Q225.031 650.395 230.841 650.395 Z" fill="#000000" fill-rule="nonzero" fill-opacity="1"></path><path clip-path="url(#clip780)" d="M435.248 681.645 L442.887 681.645 L442.887 655.279 L434.577 656.946 L434.577 652.687 L442.84 651.02 L447.516 651.02 L447.516 681.645 L455.155 681.645 L455.155 685.58 L435.248 685.58 L435.248 681.645 Z" fill="#000000" fill-rule="nonzero" fill-opacity="1"></path><path clip-path="url(#clip780)" d="M474.6 654.099 Q470.988 654.099 469.16 657.663 Q467.354 661.205 467.354 668.335 Q467.354 675.441 469.16 679.006 Q470.988 682.547 474.6 682.547 Q478.234 682.547 480.039 679.006 Q481.868 675.441 481.868 668.335 Q481.868 661.205 480.039 657.663 Q478.234 654.099 474.6 654.099 M474.6 650.395 Q480.41 650.395 483.465 655.001 Q486.544 659.585 486.544 668.335 Q486.544 677.061 483.465 681.668 Q480.41 686.251 474.6 686.251 Q468.789 686.251 465.711 681.668 Q462.655 677.061 462.655 668.335 Q462.655 659.585 465.711 655.001 Q468.789 650.395 474.6 650.395 Z" fill="#000000" fill-rule="nonzero" fill-opacity="1"></path><path clip-path="url(#clip780)" d="M669.053 681.645 L685.372 681.645 L685.372 685.58 L663.428 685.58 L663.428 681.645 Q666.09 678.89 670.673 674.26 Q675.28 669.608 676.46 668.265 Q678.706 665.742 679.585 664.006 Q680.488 662.247 680.488 660.557 Q680.488 657.802 678.544 656.066 Q676.622 654.33 673.521 654.33 Q671.322 654.33 668.868 655.094 Q666.437 655.858 663.66 657.409 L663.66 652.687 Q666.484 651.552 668.937 650.974 Q671.391 650.395 673.428 650.395 Q678.798 650.395 681.993 653.08 Q685.187 655.765 685.187 660.256 Q685.187 662.386 684.377 664.307 Q683.59 666.205 681.483 668.798 Q680.905 669.469 677.803 672.686 Q674.701 675.881 669.053 681.645 Z" fill="#000000" fill-rule="nonzero" fill-opacity="1"></path><path clip-path="url(#clip780)" d="M705.187 654.099 Q701.576 654.099 699.747 657.663 Q697.942 661.205 697.942 668.335 Q697.942 675.441 699.747 679.006 Q701.576 682.547 705.187 682.547 Q708.821 682.547 710.627 679.006 Q712.456 675.441 712.456 668.335 Q712.456 661.205 710.627 657.663 Q708.821 654.099 705.187 654.099 M705.187 650.395 Q710.997 650.395 714.053 655.001 Q717.131 659.585 717.131 668.335 Q717.131 677.061 714.053 681.668 Q710.997 686.251 705.187 686.251 Q699.377 686.251 696.298 681.668 Q693.243 677.061 693.243 668.335 Q693.243 659.585 696.298 655.001 Q699.377 650.395 705.187 650.395 Z" fill="#000000" fill-rule="nonzero" fill-opacity="1"></path><path clip-path="url(#clip780)" d="M908.842 666.946 Q912.198 667.663 914.073 669.932 Q915.971 672.2 915.971 675.534 Q915.971 680.649 912.453 683.45 Q908.934 686.251 902.453 686.251 Q900.277 686.251 897.962 685.811 Q895.671 685.395 893.217 684.538 L893.217 680.024 Q895.161 681.159 897.476 681.737 Q899.791 682.316 902.314 682.316 Q906.712 682.316 909.004 680.58 Q911.319 678.844 911.319 675.534 Q911.319 672.478 909.166 670.765 Q907.036 669.029 903.217 669.029 L899.189 669.029 L899.189 665.186 L903.402 665.186 Q906.851 665.186 908.68 663.821 Q910.509 662.432 910.509 659.839 Q910.509 657.177 908.61 655.765 Q906.735 654.33 903.217 654.33 Q901.296 654.33 899.097 654.747 Q896.898 655.163 894.259 656.043 L894.259 651.876 Q896.921 651.136 899.235 650.765 Q901.573 650.395 903.634 650.395 Q908.958 650.395 912.059 652.825 Q915.161 655.233 915.161 659.353 Q915.161 662.223 913.518 664.214 Q911.874 666.182 908.842 666.946 Z" fill="#000000" fill-rule="nonzero" fill-opacity="1"></path><path clip-path="url(#clip780)" d="M934.837 654.099 Q931.226 654.099 929.397 657.663 Q927.592 661.205 927.592 668.335 Q927.592 675.441 929.397 679.006 Q931.226 682.547 934.837 682.547 Q938.471 682.547 940.277 679.006 Q942.106 675.441 942.106 668.335 Q942.106 661.205 940.277 657.663 Q938.471 654.099 934.837 654.099 M934.837 650.395 Q940.647 650.395 943.703 655.001 Q946.781 659.585 946.781 668.335 Q946.781 677.061 943.703 681.668 Q940.647 686.251 934.837 686.251 Q929.027 686.251 925.948 681.668 Q922.893 677.061 922.893 668.335 Q922.893 659.585 925.948 655.001 Q929.027 650.395 934.837 650.395 Z" fill="#000000" fill-rule="nonzero" fill-opacity="1"></path><path clip-path="url(#clip780)" d="M1137.89 655.094 L1126.08 673.543 L1137.89 673.543 L1137.89 655.094 M1136.66 651.02 L1142.54 651.02 L1142.54 673.543 L1147.47 673.543 L1147.47 677.432 L1142.54 677.432 L1142.54 685.58 L1137.89 685.58 L1137.89 677.432 L1122.29 677.432 L1122.29 672.918 L1136.66 651.02 Z" fill="#000000" fill-rule="nonzero" fill-opacity="1"></path><path clip-path="url(#clip780)" d="M1165.2 654.099 Q1161.59 654.099 1159.76 657.663 Q1157.96 661.205 1157.96 668.335 Q1157.96 675.441 1159.76 679.006 Q1161.59 682.547 1165.2 682.547 Q1168.84 682.547 1170.64 679.006 Q1172.47 675.441 1172.47 668.335 Q1172.47 661.205 1170.64 657.663 Q1168.84 654.099 1165.2 654.099 M1165.2 650.395 Q1171.01 650.395 1174.07 655.001 Q1177.15 659.585 1177.15 668.335 Q1177.15 677.061 1174.07 681.668 Q1171.01 686.251 1165.2 686.251 Q1159.39 686.251 1156.32 681.668 Q1153.26 677.061 1153.26 668.335 Q1153.26 659.585 1156.32 655.001 Q1159.39 650.395 1165.2 650.395 Z" fill="#000000" fill-rule="nonzero" fill-opacity="1"></path><path clip-path="url(#clip780)" d="M548.965 720.524 L589.165 720.524 L589.165 725.935 L572.295 725.935 L572.295 768.044 L565.834 768.044 L565.834 725.935 L548.965 725.935 L548.965 720.524 Z" fill="#000000" fill-rule="nonzero" fill-opacity="1"></path><path clip-path="url(#clip780)" d="M593.111 732.396 L598.968 732.396 L598.968 768.044 L593.111 768.044 L593.111 732.396 M593.111 718.519 L598.968 718.519 L598.968 725.935 L593.111 725.935 L593.111 718.519 Z" fill="#000000" fill-rule="nonzero" fill-opacity="1"></path><path clip-path="url(#clip780)" d="M638.976 739.239 Q641.172 735.292 644.228 733.414 Q647.284 731.537 651.421 731.537 Q656.991 731.537 660.015 735.451 Q663.039 739.335 663.039 746.528 L663.039 768.044 L657.15 768.044 L657.15 746.719 Q657.15 741.594 655.336 739.112 Q653.522 736.629 649.798 736.629 Q645.246 736.629 642.605 739.653 Q639.963 742.677 639.963 747.896 L639.963 768.044 L634.075 768.044 L634.075 746.719 Q634.075 741.563 632.26 739.112 Q630.446 736.629 626.659 736.629 Q622.171 736.629 619.529 739.685 Q616.887 742.708 616.887 747.896 L616.887 768.044 L610.999 768.044 L610.999 732.396 L616.887 732.396 L616.887 737.934 Q618.892 734.656 621.693 733.096 Q624.494 731.537 628.346 731.537 Q632.229 731.537 634.934 733.51 Q637.671 735.483 638.976 739.239 Z" fill="#000000" fill-rule="nonzero" fill-opacity="1"></path><path clip-path="url(#clip780)" d="M705.211 748.756 L705.211 751.62 L678.285 751.62 Q678.666 757.668 681.913 760.851 Q685.191 764.002 691.016 764.002 Q694.39 764.002 697.541 763.174 Q700.724 762.347 703.843 760.691 L703.843 766.23 Q700.692 767.566 697.382 768.267 Q694.071 768.967 690.666 768.967 Q682.136 768.967 677.139 764.002 Q672.173 759.036 672.173 750.57 Q672.173 741.817 676.884 736.693 Q681.627 731.537 689.647 731.537 Q696.841 731.537 701.01 736.183 Q705.211 740.799 705.211 748.756 M699.355 747.037 Q699.291 742.231 696.65 739.366 Q694.04 736.502 689.711 736.502 Q684.809 736.502 681.849 739.271 Q678.921 742.04 678.475 747.069 L699.355 747.037 Z" fill="#000000" fill-rule="nonzero" fill-opacity="1"></path><path clip-path="url(#clip780)" d="M749.612 718.582 Q745.347 725.903 743.278 733.064 Q741.21 740.226 741.21 747.578 Q741.21 754.93 743.278 762.156 Q745.379 769.349 749.612 776.638 L744.52 776.638 Q739.745 769.158 737.358 761.933 Q735.003 754.708 735.003 747.578 Q735.003 740.48 737.358 733.287 Q739.714 726.094 744.52 718.582 L749.612 718.582 Z" fill="#000000" fill-rule="nonzero" fill-opacity="1"></path><path clip-path="url(#clip780)" d="M783.701 733.446 L783.701 738.984 Q781.218 737.711 778.544 737.075 Q775.871 736.438 773.006 736.438 Q768.646 736.438 766.45 737.775 Q764.285 739.112 764.285 741.785 Q764.285 743.822 765.845 745 Q767.404 746.146 772.115 747.196 L774.12 747.642 Q780.359 748.979 782.969 751.429 Q785.61 753.848 785.61 758.209 Q785.61 763.174 781.664 766.07 Q777.749 768.967 770.874 768.967 Q768.009 768.967 764.89 768.394 Q761.803 767.853 758.365 766.739 L758.365 760.691 Q761.612 762.378 764.763 763.238 Q767.914 764.065 771.001 764.065 Q775.139 764.065 777.367 762.665 Q779.595 761.233 779.595 758.654 Q779.595 756.267 777.971 754.994 Q776.38 753.721 770.937 752.543 L768.9 752.066 Q763.458 750.92 761.039 748.565 Q758.62 746.178 758.62 742.04 Q758.62 737.011 762.185 734.274 Q765.749 731.537 772.306 731.537 Q775.553 731.537 778.417 732.014 Q781.282 732.491 783.701 733.446 Z" fill="#000000" fill-rule="nonzero" fill-opacity="1"></path><path clip-path="url(#clip780)" d="M794.013 718.582 L799.106 718.582 Q803.88 726.094 806.235 733.287 Q808.622 740.48 808.622 747.578 Q808.622 754.708 806.235 761.933 Q803.88 769.158 799.106 776.638 L794.013 776.638 Q798.246 769.349 800.315 762.156 Q802.416 754.93 802.416 747.578 Q802.416 740.226 800.315 733.064 Q798.246 725.903 794.013 718.582 Z" fill="#000000" fill-rule="nonzero" fill-opacity="1"></path><polyline clip-path="url(#clip783)" style="stroke:#000000; stroke-linecap:round; stroke-linejoin:round; stroke-width:2; stroke-opacity:0.1; fill:none" points="203.964,606.88 1153.62,606.88 "></polyline>
<polyline clip-path="url(#clip783)" style="stroke:#000000; stroke-linecap:round; stroke-linejoin:round; stroke-width:2; stroke-opacity:0.1; fill:none" points="203.964,498.592 1153.62,498.592 "></polyline>
<polyline clip-path="url(#clip783)" style="stroke:#000000; stroke-linecap:round; stroke-linejoin:round; stroke-width:2; stroke-opacity:0.1; fill:none" points="203.964,390.304 1153.62,390.304 "></polyline>
<polyline clip-path="url(#clip783)" style="stroke:#000000; stroke-linecap:round; stroke-linejoin:round; stroke-width:2; stroke-opacity:0.1; fill:none" points="203.964,282.015 1153.62,282.015 "></polyline>
<polyline clip-path="url(#clip783)" style="stroke:#000000; stroke-linecap:round; stroke-linejoin:round; stroke-width:2; stroke-opacity:0.1; fill:none" points="203.964,173.727 1153.62,173.727 "></polyline>
<polyline clip-path="url(#clip783)" style="stroke:#000000; stroke-linecap:round; stroke-linejoin:round; stroke-width:2; stroke-opacity:0.1; fill:none" points="203.964,65.4392 1153.62,65.4392 "></polyline>
<polyline clip-path="url(#clip780)" style="stroke:#000000; stroke-linecap:round; stroke-linejoin:round; stroke-width:4; stroke-opacity:1; fill:none" points="203.964,623.18 203.964,47.2441 "></polyline>
<polyline clip-path="url(#clip780)" style="stroke:#000000; stroke-linecap:round; stroke-linejoin:round; stroke-width:4; stroke-opacity:1; fill:none" points="203.964,606.88 222.861,606.88 "></polyline>
<polyline clip-path="url(#clip780)" style="stroke:#000000; stroke-linecap:round; stroke-linejoin:round; stroke-width:4; stroke-opacity:1; fill:none" points="203.964,498.592 222.861,498.592 "></polyline>
<polyline clip-path="url(#clip780)" style="stroke:#000000; stroke-linecap:round; stroke-linejoin:round; stroke-width:4; stroke-opacity:1; fill:none" points="203.964,390.304 222.861,390.304 "></polyline>
<polyline clip-path="url(#clip780)" style="stroke:#000000; stroke-linecap:round; stroke-linejoin:round; stroke-width:4; stroke-opacity:1; fill:none" points="203.964,282.015 222.861,282.015 "></polyline>
<polyline clip-path="url(#clip780)" style="stroke:#000000; stroke-linecap:round; stroke-linejoin:round; stroke-width:4; stroke-opacity:1; fill:none" points="203.964,173.727 222.861,173.727 "></polyline>
<polyline clip-path="url(#clip780)" style="stroke:#000000; stroke-linecap:round; stroke-linejoin:round; stroke-width:4; stroke-opacity:1; fill:none" points="203.964,65.4392 222.861,65.4392 "></polyline>
<path clip-path="url(#clip780)" d="M156.019 592.678 Q152.408 592.678 150.579 596.243 Q148.774 599.785 148.774 606.914 Q148.774 614.021 150.579 617.586 Q152.408 621.127 156.019 621.127 Q159.653 621.127 161.459 617.586 Q163.288 614.021 163.288 606.914 Q163.288 599.785 161.459 596.243 Q159.653 592.678 156.019 592.678 M156.019 588.975 Q161.829 588.975 164.885 593.581 Q167.964 598.165 167.964 606.914 Q167.964 615.641 164.885 620.248 Q161.829 624.831 156.019 624.831 Q150.209 624.831 147.13 620.248 Q144.075 615.641 144.075 606.914 Q144.075 598.165 147.13 593.581 Q150.209 588.975 156.019 588.975 Z" fill="#000000" fill-rule="nonzero" fill-opacity="1"></path><path clip-path="url(#clip780)" d="M148.056 511.936 L155.695 511.936 L155.695 485.571 L147.385 487.238 L147.385 482.978 L155.649 481.312 L160.325 481.312 L160.325 511.936 L167.964 511.936 L167.964 515.872 L148.056 515.872 L148.056 511.936 Z" fill="#000000" fill-rule="nonzero" fill-opacity="1"></path><path clip-path="url(#clip780)" d="M151.644 403.648 L167.964 403.648 L167.964 407.584 L146.019 407.584 L146.019 403.648 Q148.681 400.894 153.265 396.264 Q157.871 391.611 159.052 390.269 Q161.297 387.746 162.177 386.01 Q163.079 384.25 163.079 382.561 Q163.079 379.806 161.135 378.07 Q159.214 376.334 156.112 376.334 Q153.913 376.334 151.459 377.098 Q149.028 377.861 146.251 379.412 L146.251 374.69 Q149.075 373.556 151.528 372.977 Q153.982 372.399 156.019 372.399 Q161.39 372.399 164.584 375.084 Q167.778 377.769 167.778 382.26 Q167.778 384.389 166.968 386.31 Q166.181 388.209 164.075 390.801 Q163.496 391.473 160.394 394.69 Q157.292 397.885 151.644 403.648 Z" fill="#000000" fill-rule="nonzero" fill-opacity="1"></path><path clip-path="url(#clip780)" d="M160.834 280.661 Q164.19 281.379 166.065 283.647 Q167.964 285.916 167.964 289.249 Q167.964 294.365 164.445 297.166 Q160.927 299.967 154.445 299.967 Q152.269 299.967 149.954 299.527 Q147.663 299.11 145.209 298.254 L145.209 293.74 Q147.153 294.874 149.468 295.453 Q151.783 296.032 154.306 296.032 Q158.704 296.032 160.996 294.295 Q163.311 292.559 163.311 289.249 Q163.311 286.194 161.158 284.481 Q159.028 282.745 155.209 282.745 L151.181 282.745 L151.181 278.902 L155.394 278.902 Q158.843 278.902 160.672 277.536 Q162.501 276.147 162.501 273.555 Q162.501 270.893 160.603 269.481 Q158.728 268.046 155.209 268.046 Q153.288 268.046 151.089 268.462 Q148.89 268.879 146.251 269.759 L146.251 265.592 Q148.913 264.851 151.228 264.481 Q153.566 264.11 155.626 264.11 Q160.95 264.11 164.052 266.541 Q167.153 268.948 167.153 273.069 Q167.153 275.939 165.51 277.93 Q163.866 279.897 160.834 280.661 Z" fill="#000000" fill-rule="nonzero" fill-opacity="1"></path><path clip-path="url(#clip780)" d="M158.38 160.521 L146.575 178.97 L158.38 178.97 L158.38 160.521 M157.153 156.447 L163.033 156.447 L163.033 178.97 L167.964 178.97 L167.964 182.859 L163.033 182.859 L163.033 191.007 L158.38 191.007 L158.38 182.859 L142.779 182.859 L142.779 178.345 L157.153 156.447 Z" fill="#000000" fill-rule="nonzero" fill-opacity="1"></path><path clip-path="url(#clip780)" d="M147.061 48.1592 L165.417 48.1592 L165.417 52.0943 L151.343 52.0943 L151.343 60.5665 Q152.362 60.2193 153.38 60.0572 Q154.399 59.8721 155.417 59.8721 Q161.204 59.8721 164.584 63.0433 Q167.964 66.2146 167.964 71.6313 Q167.964 77.2099 164.491 80.3118 Q161.019 83.3904 154.7 83.3904 Q152.524 83.3904 150.255 83.0201 Q148.01 82.6497 145.603 81.909 L145.603 77.2099 Q147.686 78.3442 149.908 78.8997 Q152.13 79.4553 154.607 79.4553 Q158.612 79.4553 160.95 77.3488 Q163.288 75.2423 163.288 71.6313 Q163.288 68.0202 160.95 65.9137 Q158.612 63.8072 154.607 63.8072 Q152.732 63.8072 150.857 64.2239 Q149.005 64.6405 147.061 65.5202 L147.061 48.1592 Z" fill="#000000" fill-rule="nonzero" fill-opacity="1"></path><path clip-path="url(#clip780)" d="M50.2362 334.435 Q50.6871 334.435 51.7499 334.724 L76.9348 341.037 Q82.5387 342.422 86.4678 346.93 Q90.3969 351.407 90.3969 356.496 Q90.3969 359.555 88.7544 361.52 Q87.1441 363.484 84.6642 363.484 Q82.4742 363.484 81.4115 362.325 Q80.3809 361.165 80.3809 359.781 Q80.3809 359.33 80.5097 358.847 Q80.6385 358.364 81.186 357.848 Q81.7335 357.333 82.6675 357.333 Q84.1812 357.333 85.3728 358.653 Q85.9203 359.298 86.0491 359.909 Q86.1779 360.489 86.1779 361.488 Q87.0797 361.101 87.6916 360.393 Q88.3035 359.684 88.529 358.879 Q88.7866 358.074 88.851 357.558 Q88.9476 357.011 88.9476 356.496 Q88.9476 352.373 84.7931 349.217 Q83.537 348.283 82.281 347.607 Q81.0572 346.898 79.5435 346.383 Q78.062 345.868 77.2569 345.642 Q76.4518 345.385 74.616 344.934 Q77.6112 347.929 77.6112 351.6 Q77.6112 353.146 77.1925 354.531 Q76.7738 355.884 75.9043 357.075 Q75.0025 358.267 73.4244 358.975 Q71.8463 359.652 69.7529 359.652 Q67.5307 359.652 64.5034 358.782 Q61.476 357.913 55.9044 355.819 Q52.7804 354.692 51.2668 354.692 Q50.526 354.692 50.0752 354.853 Q49.5921 355.014 49.431 355.336 Q49.2378 355.658 49.2056 355.852 Q49.1734 356.013 49.1734 356.335 Q49.1734 358.235 51.1057 360.006 Q53.0381 361.777 57.3537 363.001 Q58.1588 363.259 58.3521 363.42 Q58.5453 363.581 58.5453 364.064 Q58.5131 364.869 57.869 364.869 Q57.6113 364.869 56.6129 364.579 Q55.5824 364.289 54.0687 363.613 Q52.5228 362.905 51.1379 361.938 Q49.7209 360.972 48.7225 359.459 Q47.7241 357.913 47.7241 356.141 Q47.7241 353.726 49.3022 352.244 Q50.8481 350.731 53.1347 350.731 Q54.0687 350.731 54.906 350.988 Q55.7112 351.214 57.869 352.051 Q66.5646 355.433 70.8157 355.433 Q71.8463 355.433 72.7159 355.272 Q73.5532 355.079 74.3906 354.66 Q75.1957 354.241 75.6788 353.404 Q76.1297 352.534 76.1297 351.343 Q76.1297 349.829 75.4212 348.412 Q74.6804 346.963 73.682 346.061 Q72.6837 345.127 71.8463 344.579 Q70.9768 344 70.5259 343.871 L58.6741 340.908 L53.3924 339.588 Q50.526 338.976 49.8175 338.686 Q49.1412 338.299 48.7869 337.623 Q48.4327 336.947 48.4327 336.367 Q48.4327 335.562 48.9157 335.014 Q49.3988 334.435 50.2362 334.435 Z" fill="#000000" fill-rule="nonzero" fill-opacity="1"></path><path clip-path="url(#clip780)" d="M82.1836 327.689 L80.7407 327.689 Q80.7407 322.143 77.7875 319.28 Q77.7875 318.491 77.9678 318.355 Q78.1482 318.22 78.9823 318.22 L104.885 318.22 Q106.261 318.22 106.689 317.544 Q107.117 316.867 107.117 313.914 L107.117 312.449 L108.538 312.449 Q108.402 314.072 108.402 319.933 Q108.402 325.795 108.538 327.395 L107.117 327.395 L107.117 325.93 Q107.117 323.022 106.712 322.323 Q106.283 321.624 104.885 321.624 L80.9662 321.624 Q82.1836 324.036 82.1836 327.689 Z" fill="#000000" fill-rule="nonzero" fill-opacity="1"></path><polyline clip-path="url(#clip783)" style="stroke:#009af9; stroke-linecap:round; stroke-linejoin:round; stroke-width:4; stroke-opacity:1; fill:none" points="230.841,606.88 253.813,606.88 276.785,606.88 299.757,606.88 322.729,606.88 345.701,606.88 368.672,606.88 391.644,606.88 414.616,606.88 437.588,606.88 460.56,606.88 483.532,606.88 506.504,606.88 529.476,606.88 552.448,606.88 575.42,606.88 598.392,606.88 621.364,606.88 644.336,606.88 667.308,606.88 690.28,606.88 713.252,376.171 736.224,251.694 759.196,213.359 782.168,178.673 805.139,147.258 828.111,118.887 851.083,93.1892 874.055,75.7907 897.027,67.0248 919.999,63.9049 942.971,63.5442 965.943,64.116 988.915,64.7552 1011.89,65.1857 1034.86,65.4017 1057.83,65.478 1080.8,65.4863 1103.77,65.4719 1126.75,65.456 "></polyline>
<polyline clip-path="url(#clip783)" style="stroke:#3da44d; stroke-linecap:round; stroke-linejoin:round; stroke-width:3; stroke-opacity:1; fill:none" stroke-dasharray="12, 8" points="230.841,65.4392 253.813,65.4392 276.785,65.4392 299.757,65.4392 322.729,65.4392 345.701,65.4392 368.672,65.4392 391.644,65.4392 414.616,65.4392 437.588,65.4392 460.56,65.4392 483.532,65.4392 506.504,65.4392 529.476,65.4392 552.448,65.4392 575.42,65.4392 598.392,65.4392 621.364,65.4392 644.336,65.4392 667.308,65.4392 690.28,65.4392 713.252,65.4392 736.224,65.4392 759.196,65.4392 782.168,65.4392 805.139,65.4392 828.111,65.4392 851.083,65.4392 874.055,65.4392 897.027,65.4392 919.999,65.4392 942.971,65.4392 965.943,65.4392 988.915,65.4392 1011.89,65.4392 1034.86,65.4392 1057.83,65.4392 1080.8,65.4392 1103.77,65.4392 1126.75,65.4392 "></polyline>
<path clip-path="url(#clip780)" d="M978.994 603.982 L1121.97 603.982 L1121.97 448.462 L978.994 448.462  Z" fill="#ffffff" fill-rule="evenodd" fill-opacity="1"></path>
<polyline clip-path="url(#clip780)" style="stroke:#000000; stroke-linecap:round; stroke-linejoin:round; stroke-width:4; stroke-opacity:1; fill:none" points="978.994,603.982 1121.97,603.982 1121.97,448.462 978.994,448.462 978.994,603.982 "></polyline>
<polyline clip-path="url(#clip780)" style="stroke:#009af9; stroke-linecap:round; stroke-linejoin:round; stroke-width:4; stroke-opacity:1; fill:none" points="989.546,500.302 1052.86,500.302 "></polyline>
<path clip-path="url(#clip780)" d="M1090.18 487.041 Q1088.7 487.041 1087.95 487.181 Q1087.21 487.298 1087.02 487.462 Q1086.83 487.626 1086.62 488.048 L1076.31 509.971 Q1075.21 512.314 1073.15 514 Q1071.11 515.686 1068.54 515.686 Q1066.38 515.686 1064.88 514.375 Q1063.41 513.087 1063.41 511.26 Q1063.41 509.948 1064.23 509.198 Q1065.05 508.472 1066.15 508.472 Q1067.37 508.472 1068.14 509.245 Q1068.94 510.018 1068.94 511.213 Q1068.94 511.986 1068.61 512.571 Q1068.28 513.18 1067.98 513.391 Q1067.69 513.625 1067.39 513.766 Q1067.88 513.953 1068.54 513.953 Q1069.52 513.953 1070.36 513.555 Q1071.23 513.18 1071.79 512.665 Q1072.38 512.173 1072.96 511.283 Q1073.55 510.416 1073.83 509.854 Q1074.11 509.316 1074.53 508.379 L1075.63 506.083 L1066.66 487.041 L1063.6 487.041 L1063.6 484.792 L1069.08 484.933 L1075.03 484.792 L1075.03 487.041 L1072.43 487.041 L1078.52 499.993 L1084.04 488.188 L1084.28 487.626 Q1084.28 487.369 1083.72 487.228 Q1083.15 487.064 1082.59 487.064 L1082.03 487.041 L1082.03 484.792 L1086.39 484.933 Q1088.45 484.933 1090.18 484.792 L1090.18 487.041 Z" fill="#000000" fill-rule="nonzero" fill-opacity="1"></path><polyline clip-path="url(#clip780)" style="stroke:#3da44d; stroke-linecap:round; stroke-linejoin:round; stroke-width:3; stroke-opacity:1; fill:none" stroke-dasharray="12, 8" points="989.546,552.142 1052.86,552.142 "></polyline>
<path clip-path="url(#clip780)" d="M1082.83 537.42 Q1082.83 538.778 1081.94 539.575 Q1081.05 540.348 1079.9 540.348 Q1078.75 540.348 1077.86 539.575 Q1076.97 538.802 1076.97 537.42 Q1076.97 536.811 1077.18 536.272 Q1077.41 535.71 1077.65 535.452 L1077.88 535.218 Q1076.5 535.218 1075.42 535.874 Q1074.35 536.506 1073.69 537.49 Q1073.03 538.474 1072.61 539.762 Q1072.19 541.027 1072.03 542.175 Q1071.89 543.322 1071.89 544.423 L1071.89 552.832 L1076.06 552.832 L1076.06 555.08 Q1074.32 554.94 1069.45 554.94 L1063.41 555.08 L1063.41 552.832 L1066.71 552.832 L1066.71 538.005 Q1066.71 536.647 1066.22 536.389 Q1065.73 536.132 1063.41 536.132 L1063.41 533.883 L1071.37 533.485 L1071.37 538.919 Q1073.36 533.485 1077.74 533.485 Q1079.76 533.485 1081.28 534.562 Q1082.83 535.616 1082.83 537.42 Z" fill="#000000" fill-rule="nonzero" fill-opacity="1"></path><path clip-path="url(#clip780)" d="M1106.49 550.604 Q1105.45 550.604 1104.93 550.702 Q1104.4 550.784 1104.27 550.899 Q1104.14 551.013 1103.99 551.309 L1096.78 566.655 Q1096.01 568.294 1094.57 569.475 Q1093.14 570.655 1091.34 570.655 Q1089.83 570.655 1088.78 569.737 Q1087.75 568.836 1087.75 567.557 Q1087.75 566.639 1088.32 566.114 Q1088.89 565.606 1089.67 565.606 Q1090.52 565.606 1091.06 566.147 Q1091.62 566.688 1091.62 567.524 Q1091.62 568.065 1091.39 568.475 Q1091.16 568.901 1090.94 569.049 Q1090.75 569.213 1090.53 569.311 Q1090.88 569.442 1091.34 569.442 Q1092.03 569.442 1092.62 569.163 Q1093.22 568.901 1093.62 568.54 Q1094.03 568.196 1094.44 567.573 Q1094.85 566.966 1095.04 566.573 Q1095.24 566.196 1095.53 565.54 L1096.31 563.933 L1090.03 550.604 L1087.88 550.604 L1087.88 549.03 L1091.71 549.128 L1095.88 549.03 L1095.88 550.604 L1094.06 550.604 L1098.32 559.67 L1102.19 551.407 L1102.36 551.013 Q1102.36 550.833 1101.96 550.735 Q1101.57 550.62 1101.17 550.62 L1100.78 550.604 L1100.78 549.03 L1103.83 549.128 Q1105.27 549.128 1106.49 549.03 L1106.49 550.604 Z" fill="#000000" fill-rule="nonzero" fill-opacity="1"></path><path clip-path="url(#clip780)" d="M203.964 1423.18 L1153.62 1423.18 L1153.62 847.244 L203.964 847.244  Z" fill="#ffffff" fill-rule="evenodd" fill-opacity="1"></path>
<defs>
  <clipPath id="clip784">
    <rect x="203" y="847" width="951" height="577"></rect>
  </clipPath>
</defs>
<polyline clip-path="url(#clip784)" style="stroke:#000000; stroke-linecap:round; stroke-linejoin:round; stroke-width:2; stroke-opacity:0.1; fill:none" points="230.841,1423.18 230.841,847.244 "></polyline>
<polyline clip-path="url(#clip784)" style="stroke:#000000; stroke-linecap:round; stroke-linejoin:round; stroke-width:2; stroke-opacity:0.1; fill:none" points="460.56,1423.18 460.56,847.244 "></polyline>
<polyline clip-path="url(#clip784)" style="stroke:#000000; stroke-linecap:round; stroke-linejoin:round; stroke-width:2; stroke-opacity:0.1; fill:none" points="690.28,1423.18 690.28,847.244 "></polyline>
<polyline clip-path="url(#clip784)" style="stroke:#000000; stroke-linecap:round; stroke-linejoin:round; stroke-width:2; stroke-opacity:0.1; fill:none" points="919.999,1423.18 919.999,847.244 "></polyline>
<polyline clip-path="url(#clip784)" style="stroke:#000000; stroke-linecap:round; stroke-linejoin:round; stroke-width:2; stroke-opacity:0.1; fill:none" points="1149.72,1423.18 1149.72,847.244 "></polyline>
<polyline clip-path="url(#clip780)" style="stroke:#000000; stroke-linecap:round; stroke-linejoin:round; stroke-width:4; stroke-opacity:1; fill:none" points="203.964,1423.18 1153.62,1423.18 "></polyline>
<polyline clip-path="url(#clip780)" style="stroke:#000000; stroke-linecap:round; stroke-linejoin:round; stroke-width:4; stroke-opacity:1; fill:none" points="230.841,1423.18 230.841,1404.28 "></polyline>
<polyline clip-path="url(#clip780)" style="stroke:#000000; stroke-linecap:round; stroke-linejoin:round; stroke-width:4; stroke-opacity:1; fill:none" points="460.56,1423.18 460.56,1404.28 "></polyline>
<polyline clip-path="url(#clip780)" style="stroke:#000000; stroke-linecap:round; stroke-linejoin:round; stroke-width:4; stroke-opacity:1; fill:none" points="690.28,1423.18 690.28,1404.28 "></polyline>
<polyline clip-path="url(#clip780)" style="stroke:#000000; stroke-linecap:round; stroke-linejoin:round; stroke-width:4; stroke-opacity:1; fill:none" points="919.999,1423.18 919.999,1404.28 "></polyline>
<polyline clip-path="url(#clip780)" style="stroke:#000000; stroke-linecap:round; stroke-linejoin:round; stroke-width:4; stroke-opacity:1; fill:none" points="1149.72,1423.18 1149.72,1404.28 "></polyline>
<path clip-path="url(#clip780)" d="M230.841 1454.1 Q227.23 1454.1 225.401 1457.66 Q223.595 1461.2 223.595 1468.33 Q223.595 1475.44 225.401 1479.01 Q227.23 1482.55 230.841 1482.55 Q234.475 1482.55 236.281 1479.01 Q238.109 1475.44 238.109 1468.33 Q238.109 1461.2 236.281 1457.66 Q234.475 1454.1 230.841 1454.1 M230.841 1450.39 Q236.651 1450.39 239.706 1455 Q242.785 1459.58 242.785 1468.33 Q242.785 1477.06 239.706 1481.67 Q236.651 1486.25 230.841 1486.25 Q225.031 1486.25 221.952 1481.67 Q218.896 1477.06 218.896 1468.33 Q218.896 1459.58 221.952 1455 Q225.031 1450.39 230.841 1450.39 Z" fill="#000000" fill-rule="nonzero" fill-opacity="1"></path><path clip-path="url(#clip780)" d="M435.248 1481.64 L442.887 1481.64 L442.887 1455.28 L434.577 1456.95 L434.577 1452.69 L442.84 1451.02 L447.516 1451.02 L447.516 1481.64 L455.155 1481.64 L455.155 1485.58 L435.248 1485.58 L435.248 1481.64 Z" fill="#000000" fill-rule="nonzero" fill-opacity="1"></path><path clip-path="url(#clip780)" d="M474.6 1454.1 Q470.988 1454.1 469.16 1457.66 Q467.354 1461.2 467.354 1468.33 Q467.354 1475.44 469.16 1479.01 Q470.988 1482.55 474.6 1482.55 Q478.234 1482.55 480.039 1479.01 Q481.868 1475.44 481.868 1468.33 Q481.868 1461.2 480.039 1457.66 Q478.234 1454.1 474.6 1454.1 M474.6 1450.39 Q480.41 1450.39 483.465 1455 Q486.544 1459.58 486.544 1468.33 Q486.544 1477.06 483.465 1481.67 Q480.41 1486.25 474.6 1486.25 Q468.789 1486.25 465.711 1481.67 Q462.655 1477.06 462.655 1468.33 Q462.655 1459.58 465.711 1455 Q468.789 1450.39 474.6 1450.39 Z" fill="#000000" fill-rule="nonzero" fill-opacity="1"></path><path clip-path="url(#clip780)" d="M669.053 1481.64 L685.372 1481.64 L685.372 1485.58 L663.428 1485.58 L663.428 1481.64 Q666.09 1478.89 670.673 1474.26 Q675.28 1469.61 676.46 1468.27 Q678.706 1465.74 679.585 1464.01 Q680.488 1462.25 680.488 1460.56 Q680.488 1457.8 678.544 1456.07 Q676.622 1454.33 673.521 1454.33 Q671.322 1454.33 668.868 1455.09 Q666.437 1455.86 663.66 1457.41 L663.66 1452.69 Q666.484 1451.55 668.937 1450.97 Q671.391 1450.39 673.428 1450.39 Q678.798 1450.39 681.993 1453.08 Q685.187 1455.77 685.187 1460.26 Q685.187 1462.39 684.377 1464.31 Q683.59 1466.2 681.483 1468.8 Q680.905 1469.47 677.803 1472.69 Q674.701 1475.88 669.053 1481.64 Z" fill="#000000" fill-rule="nonzero" fill-opacity="1"></path><path clip-path="url(#clip780)" d="M705.187 1454.1 Q701.576 1454.1 699.747 1457.66 Q697.942 1461.2 697.942 1468.33 Q697.942 1475.44 699.747 1479.01 Q701.576 1482.55 705.187 1482.55 Q708.821 1482.55 710.627 1479.01 Q712.456 1475.44 712.456 1468.33 Q712.456 1461.2 710.627 1457.66 Q708.821 1454.1 705.187 1454.1 M705.187 1450.39 Q710.997 1450.39 714.053 1455 Q717.131 1459.58 717.131 1468.33 Q717.131 1477.06 714.053 1481.67 Q710.997 1486.25 705.187 1486.25 Q699.377 1486.25 696.298 1481.67 Q693.243 1477.06 693.243 1468.33 Q693.243 1459.58 696.298 1455 Q699.377 1450.39 705.187 1450.39 Z" fill="#000000" fill-rule="nonzero" fill-opacity="1"></path><path clip-path="url(#clip780)" d="M908.842 1466.95 Q912.198 1467.66 914.073 1469.93 Q915.971 1472.2 915.971 1475.53 Q915.971 1480.65 912.453 1483.45 Q908.934 1486.25 902.453 1486.25 Q900.277 1486.25 897.962 1485.81 Q895.671 1485.39 893.217 1484.54 L893.217 1480.02 Q895.161 1481.16 897.476 1481.74 Q899.791 1482.32 902.314 1482.32 Q906.712 1482.32 909.004 1480.58 Q911.319 1478.84 911.319 1475.53 Q911.319 1472.48 909.166 1470.77 Q907.036 1469.03 903.217 1469.03 L899.189 1469.03 L899.189 1465.19 L903.402 1465.19 Q906.851 1465.19 908.68 1463.82 Q910.509 1462.43 910.509 1459.84 Q910.509 1457.18 908.61 1455.77 Q906.735 1454.33 903.217 1454.33 Q901.296 1454.33 899.097 1454.75 Q896.898 1455.16 894.259 1456.04 L894.259 1451.88 Q896.921 1451.14 899.235 1450.77 Q901.573 1450.39 903.634 1450.39 Q908.958 1450.39 912.059 1452.83 Q915.161 1455.23 915.161 1459.35 Q915.161 1462.22 913.518 1464.21 Q911.874 1466.18 908.842 1466.95 Z" fill="#000000" fill-rule="nonzero" fill-opacity="1"></path><path clip-path="url(#clip780)" d="M934.837 1454.1 Q931.226 1454.1 929.397 1457.66 Q927.592 1461.2 927.592 1468.33 Q927.592 1475.44 929.397 1479.01 Q931.226 1482.55 934.837 1482.55 Q938.471 1482.55 940.277 1479.01 Q942.106 1475.44 942.106 1468.33 Q942.106 1461.2 940.277 1457.66 Q938.471 1454.1 934.837 1454.1 M934.837 1450.39 Q940.647 1450.39 943.703 1455 Q946.781 1459.58 946.781 1468.33 Q946.781 1477.06 943.703 1481.67 Q940.647 1486.25 934.837 1486.25 Q929.027 1486.25 925.948 1481.67 Q922.893 1477.06 922.893 1468.33 Q922.893 1459.58 925.948 1455 Q929.027 1450.39 934.837 1450.39 Z" fill="#000000" fill-rule="nonzero" fill-opacity="1"></path><path clip-path="url(#clip780)" d="M1137.89 1455.09 L1126.08 1473.54 L1137.89 1473.54 L1137.89 1455.09 M1136.66 1451.02 L1142.54 1451.02 L1142.54 1473.54 L1147.47 1473.54 L1147.47 1477.43 L1142.54 1477.43 L1142.54 1485.58 L1137.89 1485.58 L1137.89 1477.43 L1122.29 1477.43 L1122.29 1472.92 L1136.66 1451.02 Z" fill="#000000" fill-rule="nonzero" fill-opacity="1"></path><path clip-path="url(#clip780)" d="M1165.2 1454.1 Q1161.59 1454.1 1159.76 1457.66 Q1157.96 1461.2 1157.96 1468.33 Q1157.96 1475.44 1159.76 1479.01 Q1161.59 1482.55 1165.2 1482.55 Q1168.84 1482.55 1170.64 1479.01 Q1172.47 1475.44 1172.47 1468.33 Q1172.47 1461.2 1170.64 1457.66 Q1168.84 1454.1 1165.2 1454.1 M1165.2 1450.39 Q1171.01 1450.39 1174.07 1455 Q1177.15 1459.58 1177.15 1468.33 Q1177.15 1477.06 1174.07 1481.67 Q1171.01 1486.25 1165.2 1486.25 Q1159.39 1486.25 1156.32 1481.67 Q1153.26 1477.06 1153.26 1468.33 Q1153.26 1459.58 1156.32 1455 Q1159.39 1450.39 1165.2 1450.39 Z" fill="#000000" fill-rule="nonzero" fill-opacity="1"></path><path clip-path="url(#clip780)" d="M548.965 1520.52 L589.165 1520.52 L589.165 1525.93 L572.295 1525.93 L572.295 1568.04 L565.834 1568.04 L565.834 1525.93 L548.965 1525.93 L548.965 1520.52 Z" fill="#000000" fill-rule="nonzero" fill-opacity="1"></path><path clip-path="url(#clip780)" d="M593.111 1532.4 L598.968 1532.4 L598.968 1568.04 L593.111 1568.04 L593.111 1532.4 M593.111 1518.52 L598.968 1518.52 L598.968 1525.93 L593.111 1525.93 L593.111 1518.52 Z" fill="#000000" fill-rule="nonzero" fill-opacity="1"></path><path clip-path="url(#clip780)" d="M638.976 1539.24 Q641.172 1535.29 644.228 1533.41 Q647.284 1531.54 651.421 1531.54 Q656.991 1531.54 660.015 1535.45 Q663.039 1539.33 663.039 1546.53 L663.039 1568.04 L657.15 1568.04 L657.15 1546.72 Q657.15 1541.59 655.336 1539.11 Q653.522 1536.63 649.798 1536.63 Q645.246 1536.63 642.605 1539.65 Q639.963 1542.68 639.963 1547.9 L639.963 1568.04 L634.075 1568.04 L634.075 1546.72 Q634.075 1541.56 632.26 1539.11 Q630.446 1536.63 626.659 1536.63 Q622.171 1536.63 619.529 1539.68 Q616.887 1542.71 616.887 1547.9 L616.887 1568.04 L610.999 1568.04 L610.999 1532.4 L616.887 1532.4 L616.887 1537.93 Q618.892 1534.66 621.693 1533.1 Q624.494 1531.54 628.346 1531.54 Q632.229 1531.54 634.934 1533.51 Q637.671 1535.48 638.976 1539.24 Z" fill="#000000" fill-rule="nonzero" fill-opacity="1"></path><path clip-path="url(#clip780)" d="M705.211 1548.76 L705.211 1551.62 L678.285 1551.62 Q678.666 1557.67 681.913 1560.85 Q685.191 1564 691.016 1564 Q694.39 1564 697.541 1563.17 Q700.724 1562.35 703.843 1560.69 L703.843 1566.23 Q700.692 1567.57 697.382 1568.27 Q694.071 1568.97 690.666 1568.97 Q682.136 1568.97 677.139 1564 Q672.173 1559.04 672.173 1550.57 Q672.173 1541.82 676.884 1536.69 Q681.627 1531.54 689.647 1531.54 Q696.841 1531.54 701.01 1536.18 Q705.211 1540.8 705.211 1548.76 M699.355 1547.04 Q699.291 1542.23 696.65 1539.37 Q694.04 1536.5 689.711 1536.5 Q684.809 1536.5 681.849 1539.27 Q678.921 1542.04 678.475 1547.07 L699.355 1547.04 Z" fill="#000000" fill-rule="nonzero" fill-opacity="1"></path><path clip-path="url(#clip780)" d="M749.612 1518.58 Q745.347 1525.9 743.278 1533.06 Q741.21 1540.23 741.21 1547.58 Q741.21 1554.93 743.278 1562.16 Q745.379 1569.35 749.612 1576.64 L744.52 1576.64 Q739.745 1569.16 737.358 1561.93 Q735.003 1554.71 735.003 1547.58 Q735.003 1540.48 737.358 1533.29 Q739.714 1526.09 744.52 1518.58 L749.612 1518.58 Z" fill="#000000" fill-rule="nonzero" fill-opacity="1"></path><path clip-path="url(#clip780)" d="M783.701 1533.45 L783.701 1538.98 Q781.218 1537.71 778.544 1537.07 Q775.871 1536.44 773.006 1536.44 Q768.646 1536.44 766.45 1537.77 Q764.285 1539.11 764.285 1541.79 Q764.285 1543.82 765.845 1545 Q767.404 1546.15 772.115 1547.2 L774.12 1547.64 Q780.359 1548.98 782.969 1551.43 Q785.61 1553.85 785.61 1558.21 Q785.61 1563.17 781.664 1566.07 Q777.749 1568.97 770.874 1568.97 Q768.009 1568.97 764.89 1568.39 Q761.803 1567.85 758.365 1566.74 L758.365 1560.69 Q761.612 1562.38 764.763 1563.24 Q767.914 1564.07 771.001 1564.07 Q775.139 1564.07 777.367 1562.66 Q779.595 1561.23 779.595 1558.65 Q779.595 1556.27 777.971 1554.99 Q776.38 1553.72 770.937 1552.54 L768.9 1552.07 Q763.458 1550.92 761.039 1548.56 Q758.62 1546.18 758.62 1542.04 Q758.62 1537.01 762.185 1534.27 Q765.749 1531.54 772.306 1531.54 Q775.553 1531.54 778.417 1532.01 Q781.282 1532.49 783.701 1533.45 Z" fill="#000000" fill-rule="nonzero" fill-opacity="1"></path><path clip-path="url(#clip780)" d="M794.013 1518.58 L799.106 1518.58 Q803.88 1526.09 806.235 1533.29 Q808.622 1540.48 808.622 1547.58 Q808.622 1554.71 806.235 1561.93 Q803.88 1569.16 799.106 1576.64 L794.013 1576.64 Q798.246 1569.35 800.315 1562.16 Q802.416 1554.93 802.416 1547.58 Q802.416 1540.23 800.315 1533.06 Q798.246 1525.9 794.013 1518.58 Z" fill="#000000" fill-rule="nonzero" fill-opacity="1"></path><polyline clip-path="url(#clip784)" style="stroke:#000000; stroke-linecap:round; stroke-linejoin:round; stroke-width:2; stroke-opacity:0.1; fill:none" points="203.964,1406.88 1153.62,1406.88 "></polyline>
<polyline clip-path="url(#clip784)" style="stroke:#000000; stroke-linecap:round; stroke-linejoin:round; stroke-width:2; stroke-opacity:0.1; fill:none" points="203.964,1251.66 1153.62,1251.66 "></polyline>
<polyline clip-path="url(#clip784)" style="stroke:#000000; stroke-linecap:round; stroke-linejoin:round; stroke-width:2; stroke-opacity:0.1; fill:none" points="203.964,1096.43 1153.62,1096.43 "></polyline>
<polyline clip-path="url(#clip784)" style="stroke:#000000; stroke-linecap:round; stroke-linejoin:round; stroke-width:2; stroke-opacity:0.1; fill:none" points="203.964,941.206 1153.62,941.206 "></polyline>
<polyline clip-path="url(#clip780)" style="stroke:#000000; stroke-linecap:round; stroke-linejoin:round; stroke-width:4; stroke-opacity:1; fill:none" points="203.964,1423.18 203.964,847.244 "></polyline>
<polyline clip-path="url(#clip780)" style="stroke:#000000; stroke-linecap:round; stroke-linejoin:round; stroke-width:4; stroke-opacity:1; fill:none" points="203.964,1406.88 222.861,1406.88 "></polyline>
<polyline clip-path="url(#clip780)" style="stroke:#000000; stroke-linecap:round; stroke-linejoin:round; stroke-width:4; stroke-opacity:1; fill:none" points="203.964,1251.66 222.861,1251.66 "></polyline>
<polyline clip-path="url(#clip780)" style="stroke:#000000; stroke-linecap:round; stroke-linejoin:round; stroke-width:4; stroke-opacity:1; fill:none" points="203.964,1096.43 222.861,1096.43 "></polyline>
<polyline clip-path="url(#clip780)" style="stroke:#000000; stroke-linecap:round; stroke-linejoin:round; stroke-width:4; stroke-opacity:1; fill:none" points="203.964,941.206 222.861,941.206 "></polyline>
<path clip-path="url(#clip780)" d="M156.019 1392.68 Q152.408 1392.68 150.579 1396.24 Q148.774 1399.78 148.774 1406.91 Q148.774 1414.02 150.579 1417.59 Q152.408 1421.13 156.019 1421.13 Q159.653 1421.13 161.459 1417.59 Q163.288 1414.02 163.288 1406.91 Q163.288 1399.78 161.459 1396.24 Q159.653 1392.68 156.019 1392.68 M156.019 1388.97 Q161.829 1388.97 164.885 1393.58 Q167.964 1398.16 167.964 1406.91 Q167.964 1415.64 164.885 1420.25 Q161.829 1424.83 156.019 1424.83 Q150.209 1424.83 147.13 1420.25 Q144.075 1415.64 144.075 1406.91 Q144.075 1398.16 147.13 1393.58 Q150.209 1388.97 156.019 1388.97 Z" fill="#000000" fill-rule="nonzero" fill-opacity="1"></path><path clip-path="url(#clip780)" d="M116.668 1265 L124.306 1265 L124.306 1238.63 L115.996 1240.3 L115.996 1236.04 L124.26 1234.38 L128.936 1234.38 L128.936 1265 L136.575 1265 L136.575 1268.94 L116.668 1268.94 L116.668 1265 Z" fill="#000000" fill-rule="nonzero" fill-opacity="1"></path><path clip-path="url(#clip780)" d="M156.019 1237.45 Q152.408 1237.45 150.579 1241.02 Q148.774 1244.56 148.774 1251.69 Q148.774 1258.8 150.579 1262.36 Q152.408 1265.9 156.019 1265.9 Q159.653 1265.9 161.459 1262.36 Q163.288 1258.8 163.288 1251.69 Q163.288 1244.56 161.459 1241.02 Q159.653 1237.45 156.019 1237.45 M156.019 1233.75 Q161.829 1233.75 164.885 1238.36 Q167.964 1242.94 167.964 1251.69 Q167.964 1260.42 164.885 1265.02 Q161.829 1269.61 156.019 1269.61 Q150.209 1269.61 147.13 1265.02 Q144.075 1260.42 144.075 1251.69 Q144.075 1242.94 147.13 1238.36 Q150.209 1233.75 156.019 1233.75 Z" fill="#000000" fill-rule="nonzero" fill-opacity="1"></path><path clip-path="url(#clip780)" d="M119.885 1109.78 L136.204 1109.78 L136.204 1113.71 L114.26 1113.71 L114.26 1109.78 Q116.922 1107.02 121.505 1102.39 Q126.112 1097.74 127.292 1096.4 Q129.538 1093.87 130.417 1092.14 Q131.32 1090.38 131.32 1088.69 Q131.32 1085.93 129.376 1084.2 Q127.455 1082.46 124.353 1082.46 Q122.154 1082.46 119.7 1083.22 Q117.269 1083.99 114.492 1085.54 L114.492 1080.82 Q117.316 1079.68 119.769 1079.1 Q122.223 1078.53 124.26 1078.53 Q129.63 1078.53 132.825 1081.21 Q136.019 1083.9 136.019 1088.39 Q136.019 1090.52 135.209 1092.44 Q134.422 1094.34 132.316 1096.93 Q131.737 1097.6 128.635 1100.82 Q125.533 1104.01 119.885 1109.78 Z" fill="#000000" fill-rule="nonzero" fill-opacity="1"></path><path clip-path="url(#clip780)" d="M156.019 1082.23 Q152.408 1082.23 150.579 1085.79 Q148.774 1089.34 148.774 1096.47 Q148.774 1103.57 150.579 1107.14 Q152.408 1110.68 156.019 1110.68 Q159.653 1110.68 161.459 1107.14 Q163.288 1103.57 163.288 1096.47 Q163.288 1089.34 161.459 1085.79 Q159.653 1082.23 156.019 1082.23 M156.019 1078.53 Q161.829 1078.53 164.885 1083.13 Q167.964 1087.72 167.964 1096.47 Q167.964 1105.19 164.885 1109.8 Q161.829 1114.38 156.019 1114.38 Q150.209 1114.38 147.13 1109.8 Q144.075 1105.19 144.075 1096.47 Q144.075 1087.72 147.13 1083.13 Q150.209 1078.53 156.019 1078.53 Z" fill="#000000" fill-rule="nonzero" fill-opacity="1"></path><path clip-path="url(#clip780)" d="M130.024 939.852 Q133.38 940.57 135.255 942.838 Q137.154 945.107 137.154 948.44 Q137.154 953.556 133.635 956.357 Q130.117 959.158 123.635 959.158 Q121.459 959.158 119.144 958.718 Q116.853 958.301 114.399 957.445 L114.399 952.931 Q116.343 954.065 118.658 954.644 Q120.973 955.222 123.496 955.222 Q127.894 955.222 130.186 953.486 Q132.501 951.75 132.501 948.44 Q132.501 945.385 130.348 943.672 Q128.218 941.935 124.399 941.935 L120.371 941.935 L120.371 938.093 L124.584 938.093 Q128.033 938.093 129.862 936.727 Q131.691 935.338 131.691 932.746 Q131.691 930.084 129.792 928.672 Q127.917 927.236 124.399 927.236 Q122.478 927.236 120.279 927.653 Q118.08 928.07 115.441 928.949 L115.441 924.783 Q118.103 924.042 120.418 923.672 Q122.755 923.301 124.816 923.301 Q130.14 923.301 133.242 925.732 Q136.343 928.139 136.343 932.26 Q136.343 935.13 134.7 937.121 Q133.056 939.088 130.024 939.852 Z" fill="#000000" fill-rule="nonzero" fill-opacity="1"></path><path clip-path="url(#clip780)" d="M156.019 927.005 Q152.408 927.005 150.579 930.57 Q148.774 934.111 148.774 941.241 Q148.774 948.347 150.579 951.912 Q152.408 955.454 156.019 955.454 Q159.653 955.454 161.459 951.912 Q163.288 948.347 163.288 941.241 Q163.288 934.111 161.459 930.57 Q159.653 927.005 156.019 927.005 M156.019 923.301 Q161.829 923.301 164.885 927.908 Q167.964 932.491 167.964 941.241 Q167.964 949.968 164.885 954.574 Q161.829 959.158 156.019 959.158 Q150.209 959.158 147.13 954.574 Q144.075 949.968 144.075 941.241 Q144.075 932.491 147.13 927.908 Q150.209 923.301 156.019 923.301 Z" fill="#000000" fill-rule="nonzero" fill-opacity="1"></path><path clip-path="url(#clip780)" d="M21.7178 1136.02 Q22.1687 1136.02 23.2315 1136.3 L48.4165 1142.62 Q54.0203 1144 57.9494 1148.51 Q61.8785 1152.99 61.8785 1158.08 Q61.8785 1161.14 60.236 1163.1 Q58.6257 1165.06 56.1459 1165.06 Q53.9559 1165.06 52.8931 1163.91 Q51.8625 1162.75 51.8625 1161.36 Q51.8625 1160.91 51.9913 1160.43 Q52.1201 1159.94 52.6676 1159.43 Q53.2151 1158.91 54.1491 1158.91 Q55.6628 1158.91 56.8544 1160.23 Q57.4019 1160.88 57.5307 1161.49 Q57.6596 1162.07 57.6596 1163.07 Q58.5613 1162.68 59.1732 1161.97 Q59.7851 1161.26 60.0106 1160.46 Q60.2682 1159.65 60.3326 1159.14 Q60.4293 1158.59 60.4293 1158.08 Q60.4293 1153.95 56.2747 1150.8 Q55.0187 1149.86 53.7626 1149.19 Q52.5388 1148.48 51.0252 1147.96 Q49.5437 1147.45 48.7385 1147.22 Q47.9334 1146.97 46.0977 1146.51 Q49.0928 1149.51 49.0928 1153.18 Q49.0928 1154.73 48.6741 1156.11 Q48.2554 1157.46 47.3859 1158.66 Q46.4841 1159.85 44.906 1160.56 Q43.3279 1161.23 41.2346 1161.23 Q39.0124 1161.23 35.985 1160.36 Q32.9577 1159.49 27.386 1157.4 Q24.2621 1156.27 22.7484 1156.27 Q22.0077 1156.27 21.5568 1156.43 Q21.0737 1156.59 20.9127 1156.92 Q20.7194 1157.24 20.6872 1157.43 Q20.655 1157.59 20.655 1157.92 Q20.655 1159.82 22.5874 1161.59 Q24.5197 1163.36 28.8353 1164.58 Q29.6405 1164.84 29.8337 1165 Q30.0269 1165.16 30.0269 1165.64 Q29.9947 1166.45 29.3506 1166.45 Q29.093 1166.45 28.0946 1166.16 Q27.064 1165.87 25.5503 1165.19 Q24.0044 1164.49 22.6196 1163.52 Q21.2025 1162.55 20.2041 1161.04 Q19.2058 1159.49 19.2058 1157.72 Q19.2058 1155.31 20.7838 1153.82 Q22.3297 1152.31 24.6163 1152.31 Q25.5503 1152.31 26.3877 1152.57 Q27.1928 1152.79 29.3506 1153.63 Q38.0462 1157.01 42.2974 1157.01 Q43.3279 1157.01 44.1975 1156.85 Q45.0349 1156.66 45.8722 1156.24 Q46.6774 1155.82 47.1604 1154.98 Q47.6113 1154.11 47.6113 1152.92 Q47.6113 1151.41 46.9028 1149.99 Q46.1621 1148.54 45.1637 1147.64 Q44.1653 1146.71 43.3279 1146.16 Q42.4584 1145.58 42.0075 1145.45 L30.1558 1142.49 L24.874 1141.17 Q22.0077 1140.56 21.2991 1140.27 Q20.6228 1139.88 20.2686 1139.2 Q19.9143 1138.53 19.9143 1137.95 Q19.9143 1137.14 20.3974 1136.59 Q20.8805 1136.02 21.7178 1136.02 Z" fill="#000000" fill-rule="nonzero" fill-opacity="1"></path><path clip-path="url(#clip780)" d="M80.0193 1129.27 Q79.1851 1129.27 78.9371 1129.2 Q78.6891 1129.11 78.3059 1128.75 L68.4316 1119.89 Q62.9759 1115.04 58.2191 1115.04 Q55.1306 1115.04 52.9212 1116.67 Q50.7119 1118.27 50.7119 1121.22 Q50.7119 1123.25 51.9518 1124.96 Q53.1918 1126.68 55.4011 1127.47 Q55.356 1127.33 55.356 1126.86 Q55.356 1125.71 56.0774 1125.08 Q56.7988 1124.42 57.7682 1124.42 Q59.0081 1124.42 59.6168 1125.23 Q60.203 1126.02 60.203 1126.81 Q60.203 1127.13 60.1354 1127.56 Q60.0677 1127.96 59.4365 1128.62 Q58.7827 1129.27 57.633 1129.27 Q54.4092 1129.27 51.8391 1126.83 Q49.2691 1124.38 49.2691 1120.63 Q49.2691 1116.4 51.794 1113.62 Q54.2964 1110.83 58.2191 1110.83 Q59.5943 1110.83 60.8568 1111.26 Q62.0967 1111.66 63.0661 1112.23 Q64.0355 1112.77 65.591 1114.25 Q67.1466 1115.74 68.2512 1116.94 Q69.3559 1118.13 71.7005 1120.81 L76.4573 1125.71 L76.4573 1117.39 Q76.4573 1113.33 76.0966 1113.01 Q75.4428 1112.56 71.9936 1112 L71.9936 1110.83 L80.0193 1112.14 L80.0193 1129.27 Z" fill="#000000" fill-rule="nonzero" fill-opacity="1"></path><polyline clip-path="url(#clip784)" style="stroke:#009af9; stroke-linecap:round; stroke-linejoin:round; stroke-width:4; stroke-opacity:1; fill:none" points="230.841,1406.88 253.813,1022.53 276.785,863.594 299.757,863.594 322.729,863.594 345.701,863.544 368.672,863.597 391.644,863.594 414.616,873.344 437.588,892.56 460.56,915.542 483.532,937.543 506.504,956.173 529.476,970.885 552.448,982.097 575.42,990.539 598.392,996.916 621.364,1001.78 644.336,1005.53 667.308,1008.45 690.28,1010.73 713.252,1012.51 736.224,1013.9 759.196,1014.99 782.168,1015.84 805.139,1016.5 828.111,1017.01 851.083,1017.41 874.055,1017.72 897.027,1017.96 919.999,1018.15 942.971,1018.3 965.943,1018.42 988.915,1018.5 1011.89,1018.57 1034.86,1018.63 1057.83,1018.67 1080.8,1018.7 1103.77,1018.73 1126.75,1018.75 "></polyline>
<polyline clip-path="url(#clip784)" style="stroke:#ac8d18; stroke-linecap:round; stroke-linejoin:round; stroke-width:8; stroke-opacity:1; fill:none" stroke-dasharray="4, 8" points="230.841,863.594 253.813,863.594 276.785,863.594 299.757,863.594 322.729,863.594 345.701,863.594 368.672,863.594 391.644,863.594 414.616,863.594 437.588,863.594 460.56,863.594 483.532,863.594 506.504,863.594 529.476,863.594 552.448,863.594 575.42,863.594 598.392,863.594 621.364,863.594 644.336,863.594 667.308,863.594 690.28,863.594 713.252,863.594 736.224,863.594 759.196,863.594 782.168,863.594 805.139,863.594 828.111,863.594 851.083,863.594 874.055,863.594 897.027,863.594 919.999,863.594 942.971,863.594 965.943,863.594 988.915,863.594 1011.89,863.594 1034.86,863.594 1057.83,863.594 1080.8,863.594 1103.77,863.594 1126.75,863.594 "></polyline>
<path clip-path="url(#clip780)" d="M920.074 1403.98 L1121.97 1403.98 L1121.97 1248.46 L920.074 1248.46  Z" fill="#ffffff" fill-rule="evenodd" fill-opacity="1"></path>
<polyline clip-path="url(#clip780)" style="stroke:#000000; stroke-linecap:round; stroke-linejoin:round; stroke-width:4; stroke-opacity:1; fill:none" points="920.074,1403.98 1121.97,1403.98 1121.97,1248.46 920.074,1248.46 920.074,1403.98 "></polyline>
<polyline clip-path="url(#clip780)" style="stroke:#009af9; stroke-linecap:round; stroke-linejoin:round; stroke-width:4; stroke-opacity:1; fill:none" points="930.626,1300.3 993.937,1300.3 "></polyline>
<path clip-path="url(#clip780)" d="M1031.26 1287.04 Q1029.78 1287.04 1029.04 1287.18 Q1028.29 1287.3 1028.1 1287.46 Q1027.91 1287.63 1027.7 1288.05 L1017.39 1309.97 Q1016.29 1312.31 1014.23 1314 Q1012.19 1315.69 1009.62 1315.69 Q1007.46 1315.69 1005.96 1314.37 Q1004.49 1313.09 1004.49 1311.26 Q1004.49 1309.95 1005.31 1309.2 Q1006.13 1308.47 1007.23 1308.47 Q1008.45 1308.47 1009.22 1309.25 Q1010.02 1310.02 1010.02 1311.21 Q1010.02 1311.99 1009.69 1312.57 Q1009.36 1313.18 1009.06 1313.39 Q1008.78 1313.63 1008.47 1313.77 Q1008.96 1313.95 1009.62 1313.95 Q1010.6 1313.95 1011.45 1313.55 Q1012.31 1313.18 1012.87 1312.66 Q1013.46 1312.17 1014.05 1311.28 Q1014.63 1310.42 1014.91 1309.85 Q1015.19 1309.32 1015.61 1308.38 L1016.72 1306.08 L1007.74 1287.04 L1004.68 1287.04 L1004.68 1284.79 L1010.16 1284.93 L1016.11 1284.79 L1016.11 1287.04 L1013.51 1287.04 L1019.6 1299.99 L1025.12 1288.19 L1025.36 1287.63 Q1025.36 1287.37 1024.8 1287.23 Q1024.23 1287.06 1023.67 1287.06 L1023.11 1287.04 L1023.11 1284.79 L1027.47 1284.93 Q1029.53 1284.93 1031.26 1284.79 L1031.26 1287.04 Z" fill="#000000" fill-rule="nonzero" fill-opacity="1"></path><polyline clip-path="url(#clip780)" style="stroke:#ac8d18; stroke-linecap:round; stroke-linejoin:round; stroke-width:8; stroke-opacity:1; fill:none" stroke-dasharray="4, 8" points="930.626,1352.14 993.937,1352.14 "></polyline>
<path clip-path="url(#clip780)" d="M1027.07 1331.24 L1026.66 1331.91 Q1024.12 1330.82 1020.96 1329.06 Q1017.79 1330.82 1015.25 1331.91 L1014.86 1331.24 Q1017.63 1328.83 1020.96 1326.98 Q1024.32 1328.85 1027.07 1331.24 Z" fill="#000000" fill-rule="nonzero" fill-opacity="1"></path><path clip-path="url(#clip780)" d="M1031.26 1339.27 Q1029.78 1339.27 1029.04 1339.41 Q1028.29 1339.52 1028.1 1339.69 Q1027.91 1339.85 1027.7 1340.27 L1017.39 1362.2 Q1016.29 1364.54 1014.23 1366.22 Q1012.19 1367.91 1009.62 1367.91 Q1007.46 1367.91 1005.96 1366.6 Q1004.49 1365.31 1004.49 1363.48 Q1004.49 1362.17 1005.31 1361.42 Q1006.13 1360.7 1007.23 1360.7 Q1008.45 1360.7 1009.22 1361.47 Q1010.02 1362.24 1010.02 1363.44 Q1010.02 1364.21 1009.69 1364.8 Q1009.36 1365.4 1009.06 1365.62 Q1008.78 1365.85 1008.47 1365.99 Q1008.96 1366.18 1009.62 1366.18 Q1010.6 1366.18 1011.45 1365.78 Q1012.31 1365.4 1012.87 1364.89 Q1013.46 1364.4 1014.05 1363.51 Q1014.63 1362.64 1014.91 1362.08 Q1015.19 1361.54 1015.61 1360.6 L1016.72 1358.31 L1007.74 1339.27 L1004.68 1339.27 L1004.68 1337.02 L1010.16 1337.16 L1016.11 1337.02 L1016.11 1339.27 L1013.51 1339.27 L1019.6 1352.22 L1025.12 1340.41 L1025.36 1339.85 Q1025.36 1339.59 1024.8 1339.45 Q1024.23 1339.29 1023.67 1339.29 L1023.11 1339.27 L1023.11 1337.02 L1027.47 1337.16 Q1029.53 1337.16 1031.26 1337.02 L1031.26 1339.27 Z" fill="#000000" fill-rule="nonzero" fill-opacity="1"></path><path clip-path="url(#clip780)" d="M1066 1376.87 L1061.77 1376.77 L1057.54 1376.87 L1057.54 1375.29 L1059.85 1375.29 L1059.85 1366.23 Q1059.85 1364.39 1059.37 1363.68 Q1058.9 1362.96 1057.96 1362.96 Q1057.14 1362.96 1056.29 1363.29 Q1055.46 1363.62 1054.69 1364.24 Q1053.93 1364.86 1053.44 1365.91 Q1052.96 1366.96 1052.96 1368.28 L1052.96 1375.29 L1055.29 1375.29 L1055.29 1376.87 L1051.06 1376.77 L1046.82 1376.87 L1046.82 1375.29 L1049.14 1375.29 L1049.14 1366.23 Q1049.14 1364.39 1048.67 1363.68 Q1048.19 1362.96 1047.26 1362.96 Q1046.44 1362.96 1045.59 1363.29 Q1044.75 1363.62 1043.98 1364.24 Q1043.22 1364.86 1042.73 1365.91 Q1042.26 1366.96 1042.26 1368.28 L1042.26 1375.29 L1044.57 1375.29 L1044.57 1376.87 L1040.34 1376.77 L1036.11 1376.87 L1036.11 1375.29 L1038.42 1375.29 L1038.42 1364.91 Q1038.42 1363.96 1038.08 1363.78 Q1037.73 1363.6 1036.11 1363.6 L1036.11 1362.03 L1041.88 1361.75 L1041.88 1365.39 Q1042.75 1363.7 1044.22 1362.73 Q1045.72 1361.75 1047.8 1361.75 Q1052.13 1361.75 1052.83 1364.98 Q1053.6 1363.62 1055.01 1362.68 Q1056.42 1361.75 1058.51 1361.75 Q1061.14 1361.75 1062.41 1362.9 Q1063.69 1364.03 1063.69 1366.59 L1063.69 1375.29 L1066 1375.29 L1066 1376.87 Z" fill="#000000" fill-rule="nonzero" fill-opacity="1"></path><path clip-path="url(#clip780)" d="M1086.02 1376.06 Q1086.02 1376.36 1085.96 1376.54 Q1085.89 1376.7 1085.71 1376.77 Q1085.55 1376.83 1085.4 1376.85 Q1085.25 1376.87 1084.94 1376.87 L1083.34 1376.87 Q1082.33 1376.87 1081.63 1376.69 Q1080.94 1376.49 1080.6 1376.26 Q1080.25 1376.03 1080.07 1375.62 Q1079.89 1375.21 1079.86 1374.96 Q1079.84 1374.7 1079.84 1374.28 Q1079.22 1375.47 1077.96 1376.28 Q1076.71 1377.06 1074.84 1377.06 Q1074.06 1377.06 1073.27 1376.98 Q1072.48 1376.9 1071.56 1376.65 Q1070.64 1376.39 1069.96 1376 Q1069.27 1375.59 1068.81 1374.88 Q1068.35 1374.16 1068.35 1373.24 Q1068.35 1368.42 1079.27 1367.96 L1079.27 1366.83 Q1079.27 1362.86 1075.58 1362.86 Q1074.24 1362.86 1073.15 1363.09 Q1073.25 1363.16 1073.4 1363.32 Q1073.55 1363.49 1073.71 1363.9 Q1073.89 1364.31 1073.89 1364.75 Q1073.89 1365.75 1073.25 1366.31 Q1072.63 1366.87 1071.78 1366.87 Q1070.99 1366.87 1070.33 1366.32 Q1069.69 1365.77 1069.69 1364.75 Q1069.69 1361.65 1075.71 1361.65 Q1079.33 1361.65 1081.2 1363.08 Q1083.09 1364.49 1083.09 1366.83 L1083.09 1374.05 Q1083.09 1374.41 1083.12 1374.57 Q1083.15 1374.74 1083.34 1374.93 Q1083.52 1375.13 1083.94 1375.21 Q1084.38 1375.28 1085.14 1375.29 Q1085.43 1375.29 1085.58 1375.33 Q1085.73 1375.34 1085.88 1375.52 Q1086.02 1375.7 1086.02 1376.06 M1079.27 1372.19 L1079.27 1369.01 Q1078.7 1369.05 1078.15 1369.11 Q1077.61 1369.18 1076.73 1369.34 Q1075.84 1369.49 1075.12 1369.8 Q1074.42 1370.1 1073.73 1370.54 Q1073.06 1370.96 1072.66 1371.65 Q1072.28 1372.34 1072.28 1373.21 Q1072.28 1374.33 1073.17 1375.1 Q1074.06 1375.87 1075.33 1375.87 Q1075.66 1375.87 1076.07 1375.8 Q1076.48 1375.74 1077.07 1375.51 Q1077.66 1375.26 1078.12 1374.88 Q1078.6 1374.51 1078.92 1373.82 Q1079.27 1373.11 1079.27 1372.19 Z" fill="#000000" fill-rule="nonzero" fill-opacity="1"></path><path clip-path="url(#clip780)" d="M1105.02 1376.87 L1101.33 1376.77 L1097.3 1376.87 L1097.3 1375.29 L1098.61 1375.29 L1094.92 1370.93 L1091.66 1374.59 L1091.43 1374.92 Q1091.43 1375.06 1091.81 1375.18 Q1092.2 1375.29 1092.66 1375.29 L1092.66 1376.87 L1089.2 1376.77 L1086.12 1376.87 L1086.12 1375.29 Q1087.15 1375.29 1087.62 1375.28 Q1088.12 1375.24 1088.67 1375.1 Q1089.23 1374.95 1089.51 1374.65 L1093.9 1369.72 L1088.67 1363.54 L1086.28 1363.54 L1086.28 1361.96 L1089.99 1362.06 L1094.04 1361.96 L1094.04 1363.54 L1092.69 1363.54 L1095.99 1367.39 L1098.81 1364.24 Q1098.82 1364.23 1099.09 1363.83 Q1098.56 1363.54 1097.81 1363.54 L1097.81 1361.96 L1101.27 1362.06 L1104.35 1361.96 L1104.35 1363.54 Q1103 1363.54 1102.3 1363.64 Q1101.61 1363.72 1101.4 1363.83 Q1101.2 1363.95 1100.92 1364.24 L1097 1368.6 L1102.64 1375.29 L1105.02 1375.29 L1105.02 1376.87 Z" fill="#000000" fill-rule="nonzero" fill-opacity="1"></path><path clip-path="url(#clip780)" d="M1403.1 1423.18 L2352.76 1423.18 L2352.76 47.2441 L1403.1 47.2441  Z" fill="#ffffff" fill-rule="evenodd" fill-opacity="1"></path>
<polyline clip-path="url(#clip782)" style="stroke:#000000; stroke-linecap:round; stroke-linejoin:round; stroke-width:2; stroke-opacity:0.1; fill:none" points="1429.97,1423.18 1429.97,47.2441 "></polyline>
<polyline clip-path="url(#clip782)" style="stroke:#000000; stroke-linecap:round; stroke-linejoin:round; stroke-width:2; stroke-opacity:0.1; fill:none" points="1659.69,1423.18 1659.69,47.2441 "></polyline>
<polyline clip-path="url(#clip782)" style="stroke:#000000; stroke-linecap:round; stroke-linejoin:round; stroke-width:2; stroke-opacity:0.1; fill:none" points="1889.41,1423.18 1889.41,47.2441 "></polyline>
<polyline clip-path="url(#clip782)" style="stroke:#000000; stroke-linecap:round; stroke-linejoin:round; stroke-width:2; stroke-opacity:0.1; fill:none" points="2119.13,1423.18 2119.13,47.2441 "></polyline>
<polyline clip-path="url(#clip782)" style="stroke:#000000; stroke-linecap:round; stroke-linejoin:round; stroke-width:2; stroke-opacity:0.1; fill:none" points="2348.85,1423.18 2348.85,47.2441 "></polyline>
<polyline clip-path="url(#clip780)" style="stroke:#000000; stroke-linecap:round; stroke-linejoin:round; stroke-width:4; stroke-opacity:1; fill:none" points="1403.1,1423.18 2352.76,1423.18 "></polyline>
<polyline clip-path="url(#clip780)" style="stroke:#000000; stroke-linecap:round; stroke-linejoin:round; stroke-width:4; stroke-opacity:1; fill:none" points="1429.97,1423.18 1429.97,1404.28 "></polyline>
<polyline clip-path="url(#clip780)" style="stroke:#000000; stroke-linecap:round; stroke-linejoin:round; stroke-width:4; stroke-opacity:1; fill:none" points="1659.69,1423.18 1659.69,1404.28 "></polyline>
<polyline clip-path="url(#clip780)" style="stroke:#000000; stroke-linecap:round; stroke-linejoin:round; stroke-width:4; stroke-opacity:1; fill:none" points="1889.41,1423.18 1889.41,1404.28 "></polyline>
<polyline clip-path="url(#clip780)" style="stroke:#000000; stroke-linecap:round; stroke-linejoin:round; stroke-width:4; stroke-opacity:1; fill:none" points="2119.13,1423.18 2119.13,1404.28 "></polyline>
<polyline clip-path="url(#clip780)" style="stroke:#000000; stroke-linecap:round; stroke-linejoin:round; stroke-width:4; stroke-opacity:1; fill:none" points="2348.85,1423.18 2348.85,1404.28 "></polyline>
<path clip-path="url(#clip780)" d="M1429.97 1454.1 Q1426.36 1454.1 1424.53 1457.66 Q1422.73 1461.2 1422.73 1468.33 Q1422.73 1475.44 1424.53 1479.01 Q1426.36 1482.55 1429.97 1482.55 Q1433.61 1482.55 1435.41 1479.01 Q1437.24 1475.44 1437.24 1468.33 Q1437.24 1461.2 1435.41 1457.66 Q1433.61 1454.1 1429.97 1454.1 M1429.97 1450.39 Q1435.78 1450.39 1438.84 1455 Q1441.92 1459.58 1441.92 1468.33 Q1441.92 1477.06 1438.84 1481.67 Q1435.78 1486.25 1429.97 1486.25 Q1424.16 1486.25 1421.08 1481.67 Q1418.03 1477.06 1418.03 1468.33 Q1418.03 1459.58 1421.08 1455 Q1424.16 1450.39 1429.97 1450.39 Z" fill="#000000" fill-rule="nonzero" fill-opacity="1"></path><path clip-path="url(#clip780)" d="M1634.38 1481.64 L1642.02 1481.64 L1642.02 1455.28 L1633.71 1456.95 L1633.71 1452.69 L1641.97 1451.02 L1646.65 1451.02 L1646.65 1481.64 L1654.29 1481.64 L1654.29 1485.58 L1634.38 1485.58 L1634.38 1481.64 Z" fill="#000000" fill-rule="nonzero" fill-opacity="1"></path><path clip-path="url(#clip780)" d="M1673.73 1454.1 Q1670.12 1454.1 1668.29 1457.66 Q1666.49 1461.2 1666.49 1468.33 Q1666.49 1475.44 1668.29 1479.01 Q1670.12 1482.55 1673.73 1482.55 Q1677.37 1482.55 1679.17 1479.01 Q1681 1475.44 1681 1468.33 Q1681 1461.2 1679.17 1457.66 Q1677.37 1454.1 1673.73 1454.1 M1673.73 1450.39 Q1679.54 1450.39 1682.6 1455 Q1685.68 1459.58 1685.68 1468.33 Q1685.68 1477.06 1682.6 1481.67 Q1679.54 1486.25 1673.73 1486.25 Q1667.92 1486.25 1664.84 1481.67 Q1661.79 1477.06 1661.79 1468.33 Q1661.79 1459.58 1664.84 1455 Q1667.92 1450.39 1673.73 1450.39 Z" fill="#000000" fill-rule="nonzero" fill-opacity="1"></path><path clip-path="url(#clip780)" d="M1868.18 1481.64 L1884.5 1481.64 L1884.5 1485.58 L1862.56 1485.58 L1862.56 1481.64 Q1865.22 1478.89 1869.81 1474.26 Q1874.41 1469.61 1875.59 1468.27 Q1877.84 1465.74 1878.72 1464.01 Q1879.62 1462.25 1879.62 1460.56 Q1879.62 1457.8 1877.68 1456.07 Q1875.75 1454.33 1872.65 1454.33 Q1870.45 1454.33 1868 1455.09 Q1865.57 1455.86 1862.79 1457.41 L1862.79 1452.69 Q1865.62 1451.55 1868.07 1450.97 Q1870.52 1450.39 1872.56 1450.39 Q1877.93 1450.39 1881.12 1453.08 Q1884.32 1455.77 1884.32 1460.26 Q1884.32 1462.39 1883.51 1464.31 Q1882.72 1466.2 1880.62 1468.8 Q1880.04 1469.47 1876.93 1472.69 Q1873.83 1475.88 1868.18 1481.64 Z" fill="#000000" fill-rule="nonzero" fill-opacity="1"></path><path clip-path="url(#clip780)" d="M1904.32 1454.1 Q1900.71 1454.1 1898.88 1457.66 Q1897.07 1461.2 1897.07 1468.33 Q1897.07 1475.44 1898.88 1479.01 Q1900.71 1482.55 1904.32 1482.55 Q1907.95 1482.55 1909.76 1479.01 Q1911.59 1475.44 1911.59 1468.33 Q1911.59 1461.2 1909.76 1457.66 Q1907.95 1454.1 1904.32 1454.1 M1904.32 1450.39 Q1910.13 1450.39 1913.18 1455 Q1916.26 1459.58 1916.26 1468.33 Q1916.26 1477.06 1913.18 1481.67 Q1910.13 1486.25 1904.32 1486.25 Q1898.51 1486.25 1895.43 1481.67 Q1892.37 1477.06 1892.37 1468.33 Q1892.37 1459.58 1895.43 1455 Q1898.51 1450.39 1904.32 1450.39 Z" fill="#000000" fill-rule="nonzero" fill-opacity="1"></path><path clip-path="url(#clip780)" d="M2107.97 1466.95 Q2111.33 1467.66 2113.21 1469.93 Q2115.1 1472.2 2115.1 1475.53 Q2115.1 1480.65 2111.58 1483.45 Q2108.07 1486.25 2101.58 1486.25 Q2099.41 1486.25 2097.09 1485.81 Q2094.8 1485.39 2092.35 1484.54 L2092.35 1480.02 Q2094.29 1481.16 2096.61 1481.74 Q2098.92 1482.32 2101.45 1482.32 Q2105.84 1482.32 2108.14 1480.58 Q2110.45 1478.84 2110.45 1475.53 Q2110.45 1472.48 2108.3 1470.77 Q2106.17 1469.03 2102.35 1469.03 L2098.32 1469.03 L2098.32 1465.19 L2102.53 1465.19 Q2105.98 1465.19 2107.81 1463.82 Q2109.64 1462.43 2109.64 1459.84 Q2109.64 1457.18 2107.74 1455.77 Q2105.87 1454.33 2102.35 1454.33 Q2100.43 1454.33 2098.23 1454.75 Q2096.03 1455.16 2093.39 1456.04 L2093.39 1451.88 Q2096.05 1451.14 2098.37 1450.77 Q2100.71 1450.39 2102.77 1450.39 Q2108.09 1450.39 2111.19 1452.83 Q2114.29 1455.23 2114.29 1459.35 Q2114.29 1462.22 2112.65 1464.21 Q2111.01 1466.18 2107.97 1466.95 Z" fill="#000000" fill-rule="nonzero" fill-opacity="1"></path><path clip-path="url(#clip780)" d="M2133.97 1454.1 Q2130.36 1454.1 2128.53 1457.66 Q2126.72 1461.2 2126.72 1468.33 Q2126.72 1475.44 2128.53 1479.01 Q2130.36 1482.55 2133.97 1482.55 Q2137.6 1482.55 2139.41 1479.01 Q2141.24 1475.44 2141.24 1468.33 Q2141.24 1461.2 2139.41 1457.66 Q2137.6 1454.1 2133.97 1454.1 M2133.97 1450.39 Q2139.78 1450.39 2142.83 1455 Q2145.91 1459.58 2145.91 1468.33 Q2145.91 1477.06 2142.83 1481.67 Q2139.78 1486.25 2133.97 1486.25 Q2128.16 1486.25 2125.08 1481.67 Q2122.02 1477.06 2122.02 1468.33 Q2122.02 1459.58 2125.08 1455 Q2128.16 1450.39 2133.97 1450.39 Z" fill="#000000" fill-rule="nonzero" fill-opacity="1"></path><path clip-path="url(#clip780)" d="M2337.02 1455.09 L2325.22 1473.54 L2337.02 1473.54 L2337.02 1455.09 M2335.8 1451.02 L2341.67 1451.02 L2341.67 1473.54 L2346.61 1473.54 L2346.61 1477.43 L2341.67 1477.43 L2341.67 1485.58 L2337.02 1485.58 L2337.02 1477.43 L2321.42 1477.43 L2321.42 1472.92 L2335.8 1451.02 Z" fill="#000000" fill-rule="nonzero" fill-opacity="1"></path><path clip-path="url(#clip780)" d="M2364.34 1454.1 Q2360.73 1454.1 2358.9 1457.66 Q2357.09 1461.2 2357.09 1468.33 Q2357.09 1475.44 2358.9 1479.01 Q2360.73 1482.55 2364.34 1482.55 Q2367.97 1482.55 2369.78 1479.01 Q2371.61 1475.44 2371.61 1468.33 Q2371.61 1461.2 2369.78 1457.66 Q2367.97 1454.1 2364.34 1454.1 M2364.34 1450.39 Q2370.15 1450.39 2373.2 1455 Q2376.28 1459.58 2376.28 1468.33 Q2376.28 1477.06 2373.2 1481.67 Q2370.15 1486.25 2364.34 1486.25 Q2358.53 1486.25 2355.45 1481.67 Q2352.39 1477.06 2352.39 1468.33 Q2352.39 1459.58 2355.45 1455 Q2358.53 1450.39 2364.34 1450.39 Z" fill="#000000" fill-rule="nonzero" fill-opacity="1"></path><path clip-path="url(#clip780)" d="M1748.1 1520.52 L1788.3 1520.52 L1788.3 1525.93 L1771.43 1525.93 L1771.43 1568.04 L1764.97 1568.04 L1764.97 1525.93 L1748.1 1525.93 L1748.1 1520.52 Z" fill="#000000" fill-rule="nonzero" fill-opacity="1"></path><path clip-path="url(#clip780)" d="M1792.24 1532.4 L1798.1 1532.4 L1798.1 1568.04 L1792.24 1568.04 L1792.24 1532.4 M1792.24 1518.52 L1798.1 1518.52 L1798.1 1525.93 L1792.24 1525.93 L1792.24 1518.52 Z" fill="#000000" fill-rule="nonzero" fill-opacity="1"></path><path clip-path="url(#clip780)" d="M1838.11 1539.24 Q1840.3 1535.29 1843.36 1533.41 Q1846.42 1531.54 1850.55 1531.54 Q1856.12 1531.54 1859.15 1535.45 Q1862.17 1539.33 1862.17 1546.53 L1862.17 1568.04 L1856.28 1568.04 L1856.28 1546.72 Q1856.28 1541.59 1854.47 1539.11 Q1852.65 1536.63 1848.93 1536.63 Q1844.38 1536.63 1841.74 1539.65 Q1839.09 1542.68 1839.09 1547.9 L1839.09 1568.04 L1833.21 1568.04 L1833.21 1546.72 Q1833.21 1541.56 1831.39 1539.11 Q1829.58 1536.63 1825.79 1536.63 Q1821.3 1536.63 1818.66 1539.68 Q1816.02 1542.71 1816.02 1547.9 L1816.02 1568.04 L1810.13 1568.04 L1810.13 1532.4 L1816.02 1532.4 L1816.02 1537.93 Q1818.02 1534.66 1820.83 1533.1 Q1823.63 1531.54 1827.48 1531.54 Q1831.36 1531.54 1834.07 1533.51 Q1836.8 1535.48 1838.11 1539.24 Z" fill="#000000" fill-rule="nonzero" fill-opacity="1"></path><path clip-path="url(#clip780)" d="M1904.34 1548.76 L1904.34 1551.62 L1877.42 1551.62 Q1877.8 1557.67 1881.04 1560.85 Q1884.32 1564 1890.15 1564 Q1893.52 1564 1896.67 1563.17 Q1899.86 1562.35 1902.97 1560.69 L1902.97 1566.23 Q1899.82 1567.57 1896.51 1568.27 Q1893.2 1568.97 1889.8 1568.97 Q1881.27 1568.97 1876.27 1564 Q1871.31 1559.04 1871.31 1550.57 Q1871.31 1541.82 1876.02 1536.69 Q1880.76 1531.54 1888.78 1531.54 Q1895.97 1531.54 1900.14 1536.18 Q1904.34 1540.8 1904.34 1548.76 M1898.49 1547.04 Q1898.42 1542.23 1895.78 1539.37 Q1893.17 1536.5 1888.84 1536.5 Q1883.94 1536.5 1880.98 1539.27 Q1878.05 1542.04 1877.61 1547.07 L1898.49 1547.04 Z" fill="#000000" fill-rule="nonzero" fill-opacity="1"></path><path clip-path="url(#clip780)" d="M1948.74 1518.58 Q1944.48 1525.9 1942.41 1533.06 Q1940.34 1540.23 1940.34 1547.58 Q1940.34 1554.93 1942.41 1562.16 Q1944.51 1569.35 1948.74 1576.64 L1943.65 1576.64 Q1938.88 1569.16 1936.49 1561.93 Q1934.13 1554.71 1934.13 1547.58 Q1934.13 1540.48 1936.49 1533.29 Q1938.85 1526.09 1943.65 1518.58 L1948.74 1518.58 Z" fill="#000000" fill-rule="nonzero" fill-opacity="1"></path><path clip-path="url(#clip780)" d="M1982.83 1533.45 L1982.83 1538.98 Q1980.35 1537.71 1977.68 1537.07 Q1975 1536.44 1972.14 1536.44 Q1967.78 1536.44 1965.58 1537.77 Q1963.42 1539.11 1963.42 1541.79 Q1963.42 1543.82 1964.98 1545 Q1966.54 1546.15 1971.25 1547.2 L1973.25 1547.64 Q1979.49 1548.98 1982.1 1551.43 Q1984.74 1553.85 1984.74 1558.21 Q1984.74 1563.17 1980.8 1566.07 Q1976.88 1568.97 1970.01 1568.97 Q1967.14 1568.97 1964.02 1568.39 Q1960.93 1567.85 1957.5 1566.74 L1957.5 1560.69 Q1960.74 1562.38 1963.89 1563.24 Q1967.05 1564.07 1970.13 1564.07 Q1974.27 1564.07 1976.5 1562.66 Q1978.73 1561.23 1978.73 1558.65 Q1978.73 1556.27 1977.1 1554.99 Q1975.51 1553.72 1970.07 1552.54 L1968.03 1552.07 Q1962.59 1550.92 1960.17 1548.56 Q1957.75 1546.18 1957.75 1542.04 Q1957.75 1537.01 1961.32 1534.27 Q1964.88 1531.54 1971.44 1531.54 Q1974.68 1531.54 1977.55 1532.01 Q1980.41 1532.49 1982.83 1533.45 Z" fill="#000000" fill-rule="nonzero" fill-opacity="1"></path><path clip-path="url(#clip780)" d="M1993.15 1518.58 L1998.24 1518.58 Q2003.01 1526.09 2005.37 1533.29 Q2007.75 1540.48 2007.75 1547.58 Q2007.75 1554.71 2005.37 1561.93 Q2003.01 1569.16 1998.24 1576.64 L1993.15 1576.64 Q1997.38 1569.35 1999.45 1562.16 Q2001.55 1554.93 2001.55 1547.58 Q2001.55 1540.23 1999.45 1533.06 Q1997.38 1525.9 1993.15 1518.58 Z" fill="#000000" fill-rule="nonzero" fill-opacity="1"></path><polyline clip-path="url(#clip782)" style="stroke:#000000; stroke-linecap:round; stroke-linejoin:round; stroke-width:2; stroke-opacity:0.1; fill:none" points="1403.1,1157.21 2352.76,1157.21 "></polyline>
<polyline clip-path="url(#clip782)" style="stroke:#000000; stroke-linecap:round; stroke-linejoin:round; stroke-width:2; stroke-opacity:0.1; fill:none" points="1403.1,859.459 2352.76,859.459 "></polyline>
<polyline clip-path="url(#clip782)" style="stroke:#000000; stroke-linecap:round; stroke-linejoin:round; stroke-width:2; stroke-opacity:0.1; fill:none" points="1403.1,561.704 2352.76,561.704 "></polyline>
<polyline clip-path="url(#clip782)" style="stroke:#000000; stroke-linecap:round; stroke-linejoin:round; stroke-width:2; stroke-opacity:0.1; fill:none" points="1403.1,263.95 2352.76,263.95 "></polyline>
<polyline clip-path="url(#clip780)" style="stroke:#000000; stroke-linecap:round; stroke-linejoin:round; stroke-width:4; stroke-opacity:1; fill:none" points="1403.1,1423.18 1403.1,47.2441 "></polyline>
<polyline clip-path="url(#clip780)" style="stroke:#000000; stroke-linecap:round; stroke-linejoin:round; stroke-width:4; stroke-opacity:1; fill:none" points="1403.1,1157.21 1421.99,1157.21 "></polyline>
<polyline clip-path="url(#clip780)" style="stroke:#000000; stroke-linecap:round; stroke-linejoin:round; stroke-width:4; stroke-opacity:1; fill:none" points="1403.1,859.459 1421.99,859.459 "></polyline>
<polyline clip-path="url(#clip780)" style="stroke:#000000; stroke-linecap:round; stroke-linejoin:round; stroke-width:4; stroke-opacity:1; fill:none" points="1403.1,561.704 1421.99,561.704 "></polyline>
<polyline clip-path="url(#clip780)" style="stroke:#000000; stroke-linecap:round; stroke-linejoin:round; stroke-width:4; stroke-opacity:1; fill:none" points="1403.1,263.95 1421.99,263.95 "></polyline>
<path clip-path="url(#clip780)" d="M1357.51 1144.01 L1345.71 1162.46 L1357.51 1162.46 L1357.51 1144.01 M1356.29 1139.93 L1362.16 1139.93 L1362.16 1162.46 L1367.1 1162.46 L1367.1 1166.35 L1362.16 1166.35 L1362.16 1174.49 L1357.51 1174.49 L1357.51 1166.35 L1341.91 1166.35 L1341.91 1161.83 L1356.29 1139.93 Z" fill="#000000" fill-rule="nonzero" fill-opacity="1"></path><path clip-path="url(#clip780)" d="M1355.57 857.596 Q1352.42 857.596 1350.57 859.749 Q1348.74 861.901 1348.74 865.651 Q1348.74 869.378 1350.57 871.554 Q1352.42 873.707 1355.57 873.707 Q1358.72 873.707 1360.54 871.554 Q1362.4 869.378 1362.4 865.651 Q1362.4 861.901 1360.54 859.749 Q1358.72 857.596 1355.57 857.596 M1364.85 842.943 L1364.85 847.202 Q1363.09 846.369 1361.29 845.929 Q1359.5 845.489 1357.74 845.489 Q1353.11 845.489 1350.66 848.614 Q1348.23 851.739 1347.88 858.059 Q1349.25 856.045 1351.31 854.98 Q1353.37 853.892 1355.85 853.892 Q1361.05 853.892 1364.06 857.063 Q1367.1 860.212 1367.1 865.651 Q1367.1 870.975 1363.95 874.193 Q1360.8 877.411 1355.57 877.411 Q1349.57 877.411 1346.4 872.827 Q1343.23 868.221 1343.23 859.494 Q1343.23 851.3 1347.12 846.439 Q1351.01 841.554 1357.56 841.554 Q1359.32 841.554 1361.1 841.902 Q1362.91 842.249 1364.85 842.943 Z" fill="#000000" fill-rule="nonzero" fill-opacity="1"></path><path clip-path="url(#clip780)" d="M1355.24 562.573 Q1351.91 562.573 1349.99 564.355 Q1348.09 566.137 1348.09 569.262 Q1348.09 572.387 1349.99 574.17 Q1351.91 575.952 1355.24 575.952 Q1358.58 575.952 1360.5 574.17 Q1362.42 572.364 1362.42 569.262 Q1362.42 566.137 1360.5 564.355 Q1358.6 562.573 1355.24 562.573 M1350.57 560.582 Q1347.56 559.841 1345.87 557.781 Q1344.2 555.721 1344.2 552.758 Q1344.2 548.614 1347.14 546.207 Q1350.1 543.799 1355.24 543.799 Q1360.41 543.799 1363.35 546.207 Q1366.29 548.614 1366.29 552.758 Q1366.29 555.721 1364.6 557.781 Q1362.93 559.841 1359.94 560.582 Q1363.32 561.369 1365.2 563.66 Q1367.1 565.952 1367.1 569.262 Q1367.1 574.285 1364.02 576.971 Q1360.96 579.656 1355.24 579.656 Q1349.53 579.656 1346.45 576.971 Q1343.39 574.285 1343.39 569.262 Q1343.39 565.952 1345.29 563.66 Q1347.19 561.369 1350.57 560.582 M1348.85 553.198 Q1348.85 555.883 1350.52 557.387 Q1352.21 558.892 1355.24 558.892 Q1358.25 558.892 1359.94 557.387 Q1361.66 555.883 1361.66 553.198 Q1361.66 550.512 1359.94 549.008 Q1358.25 547.503 1355.24 547.503 Q1352.21 547.503 1350.52 549.008 Q1348.85 550.512 1348.85 553.198 Z" fill="#000000" fill-rule="nonzero" fill-opacity="1"></path><path clip-path="url(#clip780)" d="M1315.8 277.294 L1323.44 277.294 L1323.44 250.929 L1315.13 252.596 L1315.13 248.336 L1323.39 246.67 L1328.07 246.67 L1328.07 277.294 L1335.71 277.294 L1335.71 281.23 L1315.8 281.23 L1315.8 277.294 Z" fill="#000000" fill-rule="nonzero" fill-opacity="1"></path><path clip-path="url(#clip780)" d="M1355.15 249.748 Q1351.54 249.748 1349.71 253.313 Q1347.91 256.855 1347.91 263.984 Q1347.91 271.091 1349.71 274.656 Q1351.54 278.197 1355.15 278.197 Q1358.79 278.197 1360.59 274.656 Q1362.42 271.091 1362.42 263.984 Q1362.42 256.855 1360.59 253.313 Q1358.79 249.748 1355.15 249.748 M1355.15 246.045 Q1360.96 246.045 1364.02 250.651 Q1367.1 255.234 1367.1 263.984 Q1367.1 272.711 1364.02 277.318 Q1360.96 281.901 1355.15 281.901 Q1349.34 281.901 1346.26 277.318 Q1343.21 272.711 1343.21 263.984 Q1343.21 255.234 1346.26 250.651 Q1349.34 246.045 1355.15 246.045 Z" fill="#000000" fill-rule="nonzero" fill-opacity="1"></path><path clip-path="url(#clip780)" d="M1246.11 732.675 Q1250.27 733.512 1252.65 734.64 Q1256.29 736.475 1256.29 739.535 Q1256.29 741.661 1255.1 743.271 Q1253.87 744.849 1251.84 745.396 Q1252.65 746.008 1253.2 746.556 Q1253.74 747.071 1254.58 748.07 Q1255.39 749.068 1255.84 750.421 Q1256.29 751.741 1256.29 753.255 Q1256.29 754.414 1256.06 755.477 Q1255.87 756.54 1255.32 757.667 Q1254.74 758.762 1253.87 759.567 Q1253 760.34 1251.59 760.855 Q1250.17 761.371 1248.37 761.371 Q1246.11 761.371 1243.05 760.501 Q1239.99 759.599 1234.52 757.538 Q1231.62 756.411 1230.01 756.411 Q1229.27 756.411 1228.79 756.572 Q1228.3 756.733 1228.14 757.055 Q1227.95 757.345 1227.92 757.538 Q1227.85 757.731 1227.85 758.053 Q1227.85 760.05 1229.88 761.789 Q1231.91 763.528 1236.03 764.72 Q1236.84 764.978 1237.03 765.139 Q1237.22 765.3 1237.22 765.783 Q1237.19 766.588 1236.55 766.588 Q1236.29 766.588 1235.29 766.298 Q1234.26 766.008 1232.75 765.332 Q1231.2 764.623 1229.82 763.657 Q1228.4 762.691 1227.4 761.177 Q1226.4 759.631 1226.4 757.86 Q1226.4 755.445 1227.98 753.963 Q1229.53 752.45 1231.81 752.45 Q1233.23 752.45 1235.97 753.577 Q1245.47 757.152 1249.43 757.152 Q1254.81 757.152 1254.81 753.061 Q1254.81 751.709 1254.26 750.453 Q1253.71 749.165 1252.94 748.327 Q1252.17 747.49 1251.33 746.846 Q1250.49 746.169 1249.94 745.88 Q1249.4 745.557 1249.27 745.525 L1229.43 740.598 Q1228.66 740.405 1228.14 740.05 Q1227.59 739.664 1227.4 739.213 Q1227.21 738.762 1227.17 738.504 Q1227.11 738.247 1227.11 738.021 Q1227.11 737.216 1227.59 736.669 Q1228.08 736.089 1228.91 736.089 Q1229.08 736.089 1229.85 736.282 Q1230.59 736.443 1231.68 736.701 Q1232.75 736.959 1233.33 737.087 Q1237.38 738.118 1237.8 738.215 L1244.92 740.05 Q1245.34 740.147 1246.69 740.469 Q1248.04 740.759 1248.75 740.92 Q1249.43 741.081 1250.36 741.242 Q1251.26 741.371 1251.78 741.371 Q1253.39 741.371 1254.1 740.888 Q1254.81 740.405 1254.81 739.342 Q1254.81 738.343 1254.13 737.57 Q1253.42 736.765 1252.07 736.153 Q1250.69 735.541 1249.56 735.187 Q1248.43 734.833 1246.66 734.382 Q1245.89 734.221 1245.69 734.092 Q1245.47 733.931 1245.47 733.48 Q1245.47 732.675 1246.11 732.675 Z" fill="#000000" fill-rule="nonzero" fill-opacity="1"></path><path clip-path="url(#clip780)" d="M1248.21 725.97 L1246.76 725.97 Q1246.76 720.424 1243.81 717.561 Q1243.81 716.772 1243.99 716.637 Q1244.17 716.501 1245 716.501 L1270.91 716.501 Q1272.28 716.501 1272.71 715.825 Q1273.14 715.149 1273.14 712.195 L1273.14 710.73 L1274.56 710.73 Q1274.42 712.353 1274.42 718.215 Q1274.42 724.076 1274.56 725.677 L1273.14 725.677 L1273.14 724.211 Q1273.14 721.303 1272.73 720.604 Q1272.3 719.905 1270.91 719.905 L1246.99 719.905 Q1248.21 722.318 1248.21 725.97 Z" fill="#000000" fill-rule="nonzero" fill-opacity="1"></path><polyline clip-path="url(#clip782)" style="stroke:#009af9; stroke-linecap:round; stroke-linejoin:round; stroke-width:4; stroke-opacity:1; fill:none" points="1429.97,86.1857 1452.94,86.1857 1452.94,694.962 1475.92,694.962 1475.92,1231.65 1498.89,1231.65 1498.89,1231.65 1521.86,1231.65 1521.86,1231.44 1544.83,1231.44 1544.83,1231.84 1567.8,1231.84 1567.8,1231.64 1590.78,1231.64 1590.78,1273.93 1613.75,1273.93 1613.75,1324.33 1636.72,1324.33 1636.72,1359.08 1659.69,1359.08 1659.69,1376.87 1682.66,1376.87 1682.66,1383.36 1705.64,1383.36 1705.64,1384.24 1728.61,1384.24 1728.61,1383.17 1751.58,1383.17 1751.58,1381.92 1774.55,1381.92 1774.55,1381.06 1797.52,1381.06 1797.52,1380.62 1820.5,1380.62 1820.5,1380.46 1843.47,1380.46 1843.47,1380.44 1866.44,1380.44 1866.44,1380.46 1889.41,1380.46 1889.41,1380.5 1912.38,1380.5 1912.38,1380.52 1935.36,1380.52 1935.36,1380.53 1958.33,1380.53 1958.33,1380.53 1981.3,1380.53 1981.3,1380.53 2004.27,1380.53 2004.27,1380.53 2027.24,1380.53 2027.24,1380.53 2050.22,1380.53 2050.22,1380.53 2073.19,1380.53 2073.19,1380.53 2096.16,1380.53 2096.16,1380.53 2119.13,1380.53 2119.13,1380.53 2142.1,1380.53 2142.1,1380.53 2165.08,1380.53 2165.08,1380.53 2188.05,1380.53 2188.05,1380.53 2211.02,1380.53 2211.02,1380.53 2233.99,1380.53 2233.99,1380.53 2256.96,1380.53 2256.96,1380.53 2279.93,1380.53 2279.93,1380.53 2302.91,1380.53 2302.91,1380.53 2325.88,1380.53 2325.88,1380.53 "></polyline>
</svg>