<?xml version="1.0" encoding="utf-8"?>
<svg xmlns="http://www.w3.org/2000/svg" xmlns:xlink="http://www.w3.org/1999/xlink" width="600" height="400" viewBox="0 0 2400 1600">
<defs>
  <clipPath id="clip600">
    <rect x="0" y="0" width="2400" height="1600"/>
  </clipPath>
</defs>
<path clip-path="url(#clip600)" d="M0 1600 L2400 1600 L2400 0 L0 0  Z" fill="#ffffff" fill-rule="evenodd" fill-opacity="1"/>
<defs>
  <clipPath id="clip601">
    <rect x="480" y="0" width="1681" height="1600"/>
  </clipPath>
</defs>
<path clip-path="url(#clip600)" d="M232.389 623.18 L1140.35 623.18 L1140.35 47.2441 L232.389 47.2441  Z" fill="#ffffff" fill-rule="evenodd" fill-opacity="1"/>
<defs>
  <clipPath id="clip602">
    <rect x="232" y="47" width="909" height="577"/>
  </clipPath>
</defs>
<polyline clip-path="url(#clip602)" style="stroke:#000000; stroke-linecap:round; stroke-linejoin:round; stroke-width:2; stroke-opacity:0.1; fill:none" points="258.086,623.18 258.086,47.2441 "/>
<polyline clip-path="url(#clip602)" style="stroke:#000000; stroke-linecap:round; stroke-linejoin:round; stroke-width:2; stroke-opacity:0.1; fill:none" points="510.017,623.18 510.017,47.2441 "/>
<polyline clip-path="url(#clip602)" style="stroke:#000000; stroke-linecap:round; stroke-linejoin:round; stroke-width:2; stroke-opacity:0.1; fill:none" points="761.948,623.18 761.948,47.2441 "/>
<polyline clip-path="url(#clip602)" style="stroke:#000000; stroke-linecap:round; stroke-linejoin:round; stroke-width:2; stroke-opacity:0.1; fill:none" points="1013.88,623.18 1013.88,47.2441 "/>
<polyline clip-path="url(#clip600)" style="stroke:#000000; stroke-linecap:round; stroke-linejoin:round; stroke-width:4; stroke-opacity:1; fill:none" points="232.389,623.18 1140.35,623.18 "/>
<polyline clip-path="url(#clip600)" style="stroke:#000000; stroke-linecap:round; stroke-linejoin:round; stroke-width:4; stroke-opacity:1; fill:none" points="258.086,623.18 258.086,604.282 "/>
<polyline clip-path="url(#clip600)" style="stroke:#000000; stroke-linecap:round; stroke-linejoin:round; stroke-width:4; stroke-opacity:1; fill:none" points="510.017,623.18 510.017,604.282 "/>
<polyline clip-path="url(#clip600)" style="stroke:#000000; stroke-linecap:round; stroke-linejoin:round; stroke-width:4; stroke-opacity:1; fill:none" points="761.948,623.18 761.948,604.282 "/>
<polyline clip-path="url(#clip600)" style="stroke:#000000; stroke-linecap:round; stroke-linejoin:round; stroke-width:4; stroke-opacity:1; fill:none" points="1013.88,623.18 1013.88,604.282 "/>
<path clip-path="url(#clip600)" d="M258.086 654.099 Q254.475 654.099 252.647 657.663 Q250.841 661.205 250.841 668.335 Q250.841 675.441 252.647 679.006 Q254.475 682.547 258.086 682.547 Q261.721 682.547 263.526 679.006 Q265.355 675.441 265.355 668.335 Q265.355 661.205 263.526 657.663 Q261.721 654.099 258.086 654.099 M258.086 650.395 Q263.896 650.395 266.952 655.001 Q270.031 659.585 270.031 668.335 Q270.031 677.061 266.952 681.668 Q263.896 686.251 258.086 686.251 Q252.276 686.251 249.197 681.668 Q246.142 677.061 246.142 668.335 Q246.142 659.585 249.197 655.001 Q252.276 650.395 258.086 650.395 Z" fill="#000000" fill-rule="nonzero" fill-opacity="1" /><path clip-path="url(#clip600)" d="M500.399 681.645 L508.038 681.645 L508.038 655.279 L499.728 656.946 L499.728 652.687 L507.992 651.02 L512.668 651.02 L512.668 681.645 L520.307 681.645 L520.307 685.58 L500.399 685.58 L500.399 681.645 Z" fill="#000000" fill-rule="nonzero" fill-opacity="1" /><path clip-path="url(#clip600)" d="M756.601 681.645 L772.92 681.645 L772.92 685.58 L750.976 685.58 L750.976 681.645 Q753.638 678.89 758.221 674.26 Q762.828 669.608 764.008 668.265 Q766.254 665.742 767.133 664.006 Q768.036 662.247 768.036 660.557 Q768.036 657.802 766.092 656.066 Q764.17 654.33 761.069 654.33 Q758.87 654.33 756.416 655.094 Q753.985 655.858 751.208 657.409 L751.208 652.687 Q754.032 651.552 756.485 650.974 Q758.939 650.395 760.976 650.395 Q766.346 650.395 769.541 653.08 Q772.735 655.765 772.735 660.256 Q772.735 662.386 771.925 664.307 Q771.138 666.205 769.032 668.798 Q768.453 669.469 765.351 672.686 Q762.249 675.881 756.601 681.645 Z" fill="#000000" fill-rule="nonzero" fill-opacity="1" /><path clip-path="url(#clip600)" d="M1018.13 666.946 Q1021.48 667.663 1023.36 669.932 Q1025.26 672.2 1025.26 675.534 Q1025.26 680.649 1021.74 683.45 Q1018.22 686.251 1011.74 686.251 Q1009.56 686.251 1007.25 685.811 Q1004.96 685.395 1002.5 684.538 L1002.5 680.024 Q1004.45 681.159 1006.76 681.737 Q1009.08 682.316 1011.6 682.316 Q1016 682.316 1018.29 680.58 Q1020.6 678.844 1020.6 675.534 Q1020.6 672.478 1018.45 670.765 Q1016.32 669.029 1012.5 669.029 L1008.47 669.029 L1008.47 665.186 L1012.69 665.186 Q1016.14 665.186 1017.96 663.821 Q1019.79 662.432 1019.79 659.839 Q1019.79 657.177 1017.9 655.765 Q1016.02 654.33 1012.5 654.33 Q1010.58 654.33 1008.38 654.747 Q1006.18 655.163 1003.54 656.043 L1003.54 651.876 Q1006.21 651.136 1008.52 650.765 Q1010.86 650.395 1012.92 650.395 Q1018.24 650.395 1021.34 652.825 Q1024.45 655.233 1024.45 659.353 Q1024.45 662.223 1022.8 664.214 Q1021.16 666.182 1018.13 666.946 Z" fill="#000000" fill-rule="nonzero" fill-opacity="1" /><path clip-path="url(#clip600)" d="M556.54 720.524 L596.74 720.524 L596.74 725.935 L579.871 725.935 L579.871 768.044 L573.409 768.044 L573.409 725.935 L556.54 725.935 L556.54 720.524 Z" fill="#000000" fill-rule="nonzero" fill-opacity="1" /><path clip-path="url(#clip600)" d="M600.687 732.396 L606.543 732.396 L606.543 768.044 L600.687 768.044 L600.687 732.396 M600.687 718.519 L606.543 718.519 L606.543 725.935 L600.687 725.935 L600.687 718.519 Z" fill="#000000" fill-rule="nonzero" fill-opacity="1" /><path clip-path="url(#clip600)" d="M646.551 739.239 Q648.748 735.292 651.803 733.414 Q654.859 731.537 658.996 731.537 Q664.566 731.537 667.59 735.451 Q670.614 739.335 670.614 746.528 L670.614 768.044 L664.726 768.044 L664.726 746.719 Q664.726 741.594 662.911 739.112 Q661.097 736.629 657.373 736.629 Q652.822 736.629 650.18 739.653 Q647.538 742.677 647.538 747.896 L647.538 768.044 L641.65 768.044 L641.65 746.719 Q641.65 741.563 639.836 739.112 Q638.021 736.629 634.234 736.629 Q629.746 736.629 627.104 739.685 Q624.462 742.708 624.462 747.896 L624.462 768.044 L618.574 768.044 L618.574 732.396 L624.462 732.396 L624.462 737.934 Q626.468 734.656 629.269 733.096 Q632.069 731.537 635.921 731.537 Q639.804 731.537 642.509 733.51 Q645.246 735.483 646.551 739.239 Z" fill="#000000" fill-rule="nonzero" fill-opacity="1" /><path clip-path="url(#clip600)" d="M712.787 748.756 L712.787 751.62 L685.86 751.62 Q686.242 757.668 689.488 760.851 Q692.766 764.002 698.591 764.002 Q701.965 764.002 705.116 763.174 Q708.299 762.347 711.418 760.691 L711.418 766.23 Q708.267 767.566 704.957 768.267 Q701.647 768.967 698.241 768.967 Q689.711 768.967 684.714 764.002 Q679.749 759.036 679.749 750.57 Q679.749 741.817 684.459 736.693 Q689.202 731.537 697.222 731.537 Q704.416 731.537 708.585 736.183 Q712.787 740.799 712.787 748.756 M706.93 747.037 Q706.867 742.231 704.225 739.366 Q701.615 736.502 697.286 736.502 Q692.385 736.502 689.424 739.271 Q686.496 742.04 686.051 747.069 L706.93 747.037 Z" fill="#000000" fill-rule="nonzero" fill-opacity="1" /><path clip-path="url(#clip600)" d="M757.187 718.582 Q752.922 725.903 750.854 733.064 Q748.785 740.226 748.785 747.578 Q748.785 754.93 750.854 762.156 Q752.954 769.349 757.187 776.638 L752.095 776.638 Q747.321 769.158 744.933 761.933 Q742.578 754.708 742.578 747.578 Q742.578 740.48 744.933 733.287 Q747.289 726.094 752.095 718.582 L757.187 718.582 Z" fill="#000000" fill-rule="nonzero" fill-opacity="1" /><path clip-path="url(#clip600)" d="M791.276 733.446 L791.276 738.984 Q788.793 737.711 786.12 737.075 Q783.446 736.438 780.581 736.438 Q776.221 736.438 774.025 737.775 Q771.86 739.112 771.86 741.785 Q771.86 743.822 773.42 745 Q774.98 746.146 779.69 747.196 L781.695 747.642 Q787.934 748.979 790.544 751.429 Q793.186 753.848 793.186 758.209 Q793.186 763.174 789.239 766.07 Q785.324 768.967 778.449 768.967 Q775.584 768.967 772.465 768.394 Q769.378 767.853 765.94 766.739 L765.94 760.691 Q769.187 762.378 772.338 763.238 Q775.489 764.065 778.576 764.065 Q782.714 764.065 784.942 762.665 Q787.17 761.233 787.17 758.654 Q787.17 756.267 785.547 754.994 Q783.955 753.721 778.513 752.543 L776.476 752.066 Q771.033 750.92 768.614 748.565 Q766.195 746.178 766.195 742.04 Q766.195 737.011 769.76 734.274 Q773.325 731.537 779.881 731.537 Q783.128 731.537 785.992 732.014 Q788.857 732.491 791.276 733.446 Z" fill="#000000" fill-rule="nonzero" fill-opacity="1" /><path clip-path="url(#clip600)" d="M801.588 718.582 L806.681 718.582 Q811.455 726.094 813.81 733.287 Q816.198 740.48 816.198 747.578 Q816.198 754.708 813.81 761.933 Q811.455 769.158 806.681 776.638 L801.588 776.638 Q805.821 769.349 807.89 762.156 Q809.991 754.93 809.991 747.578 Q809.991 740.226 807.89 733.064 Q805.821 725.903 801.588 718.582 Z" fill="#000000" fill-rule="nonzero" fill-opacity="1" /><polyline clip-path="url(#clip602)" style="stroke:#000000; stroke-linecap:round; stroke-linejoin:round; stroke-width:2; stroke-opacity:0.1; fill:none" points="232.389,543.678 1140.35,543.678 "/>
<polyline clip-path="url(#clip602)" style="stroke:#000000; stroke-linecap:round; stroke-linejoin:round; stroke-width:2; stroke-opacity:0.1; fill:none" points="232.389,383.633 1140.35,383.633 "/>
<polyline clip-path="url(#clip602)" style="stroke:#000000; stroke-linecap:round; stroke-linejoin:round; stroke-width:2; stroke-opacity:0.1; fill:none" points="232.389,223.589 1140.35,223.589 "/>
<polyline clip-path="url(#clip602)" style="stroke:#000000; stroke-linecap:round; stroke-linejoin:round; stroke-width:2; stroke-opacity:0.1; fill:none" points="232.389,63.5442 1140.35,63.5442 "/>
<polyline clip-path="url(#clip600)" style="stroke:#000000; stroke-linecap:round; stroke-linejoin:round; stroke-width:4; stroke-opacity:1; fill:none" points="232.389,623.18 232.389,47.2441 "/>
<polyline clip-path="url(#clip600)" style="stroke:#000000; stroke-linecap:round; stroke-linejoin:round; stroke-width:4; stroke-opacity:1; fill:none" points="232.389,543.678 251.287,543.678 "/>
<polyline clip-path="url(#clip600)" style="stroke:#000000; stroke-linecap:round; stroke-linejoin:round; stroke-width:4; stroke-opacity:1; fill:none" points="232.389,383.633 251.287,383.633 "/>
<polyline clip-path="url(#clip600)" style="stroke:#000000; stroke-linecap:round; stroke-linejoin:round; stroke-width:4; stroke-opacity:1; fill:none" points="232.389,223.589 251.287,223.589 "/>
<polyline clip-path="url(#clip600)" style="stroke:#000000; stroke-linecap:round; stroke-linejoin:round; stroke-width:4; stroke-opacity:1; fill:none" points="232.389,63.5442 251.287,63.5442 "/>
<path clip-path="url(#clip600)" d="M115.927 557.023 L123.566 557.023 L123.566 530.657 L115.256 532.324 L115.256 528.065 L123.519 526.398 L128.195 526.398 L128.195 557.023 L135.834 557.023 L135.834 560.958 L115.927 560.958 L115.927 557.023 Z" fill="#000000" fill-rule="nonzero" fill-opacity="1" /><path clip-path="url(#clip600)" d="M144.098 526.398 L166.32 526.398 L166.32 528.389 L153.774 560.958 L148.89 560.958 L160.695 530.333 L144.098 530.333 L144.098 526.398 Z" fill="#000000" fill-rule="nonzero" fill-opacity="1" /><path clip-path="url(#clip600)" d="M175.487 526.398 L193.843 526.398 L193.843 530.333 L179.769 530.333 L179.769 538.805 Q180.788 538.458 181.806 538.296 Q182.825 538.111 183.843 538.111 Q189.63 538.111 193.01 541.282 Q196.389 544.453 196.389 549.87 Q196.389 555.449 192.917 558.551 Q189.445 561.629 183.126 561.629 Q180.95 561.629 178.681 561.259 Q176.436 560.889 174.028 560.148 L174.028 555.449 Q176.112 556.583 178.334 557.139 Q180.556 557.694 183.033 557.694 Q187.038 557.694 189.375 555.588 Q191.713 553.481 191.713 549.87 Q191.713 546.259 189.375 544.153 Q187.038 542.046 183.033 542.046 Q181.158 542.046 179.283 542.463 Q177.431 542.879 175.487 543.759 L175.487 526.398 Z" fill="#000000" fill-rule="nonzero" fill-opacity="1" /><path clip-path="url(#clip600)" d="M114.931 396.978 L122.57 396.978 L122.57 370.613 L114.26 372.279 L114.26 368.02 L122.524 366.353 L127.2 366.353 L127.2 396.978 L134.839 396.978 L134.839 400.913 L114.931 400.913 L114.931 396.978 Z" fill="#000000" fill-rule="nonzero" fill-opacity="1" /><path clip-path="url(#clip600)" d="M154.283 384.501 Q150.95 384.501 149.028 386.284 Q147.13 388.066 147.13 391.191 Q147.13 394.316 149.028 396.099 Q150.95 397.881 154.283 397.881 Q157.616 397.881 159.538 396.099 Q161.459 394.293 161.459 391.191 Q161.459 388.066 159.538 386.284 Q157.64 384.501 154.283 384.501 M149.607 382.511 Q146.598 381.77 144.908 379.71 Q143.241 377.65 143.241 374.687 Q143.241 370.543 146.181 368.136 Q149.144 365.728 154.283 365.728 Q159.445 365.728 162.385 368.136 Q165.325 370.543 165.325 374.687 Q165.325 377.65 163.635 379.71 Q161.968 381.77 158.982 382.511 Q162.362 383.298 164.237 385.589 Q166.135 387.881 166.135 391.191 Q166.135 396.214 163.056 398.9 Q160.001 401.585 154.283 401.585 Q148.566 401.585 145.487 398.9 Q142.431 396.214 142.431 391.191 Q142.431 387.881 144.329 385.589 Q146.228 383.298 149.607 382.511 M147.894 375.126 Q147.894 377.812 149.561 379.316 Q151.251 380.821 154.283 380.821 Q157.292 380.821 158.982 379.316 Q160.695 377.812 160.695 375.126 Q160.695 372.441 158.982 370.937 Q157.292 369.432 154.283 369.432 Q151.251 369.432 149.561 370.937 Q147.894 372.441 147.894 375.126 Z" fill="#000000" fill-rule="nonzero" fill-opacity="1" /><path clip-path="url(#clip600)" d="M184.445 369.432 Q180.834 369.432 179.005 372.997 Q177.2 376.539 177.2 383.668 Q177.2 390.775 179.005 394.339 Q180.834 397.881 184.445 397.881 Q188.079 397.881 189.885 394.339 Q191.713 390.775 191.713 383.668 Q191.713 376.539 189.885 372.997 Q188.079 369.432 184.445 369.432 M184.445 365.728 Q190.255 365.728 193.311 370.335 Q196.389 374.918 196.389 383.668 Q196.389 392.395 193.311 397.001 Q190.255 401.585 184.445 401.585 Q178.635 401.585 175.556 397.001 Q172.501 392.395 172.501 383.668 Q172.501 374.918 175.556 370.335 Q178.635 365.728 184.445 365.728 Z" fill="#000000" fill-rule="nonzero" fill-opacity="1" /><path clip-path="url(#clip600)" d="M115.927 236.934 L123.566 236.934 L123.566 210.568 L115.256 212.235 L115.256 207.975 L123.519 206.309 L128.195 206.309 L128.195 236.934 L135.834 236.934 L135.834 240.869 L115.927 240.869 L115.927 236.934 Z" fill="#000000" fill-rule="nonzero" fill-opacity="1" /><path clip-path="url(#clip600)" d="M155.278 224.457 Q151.945 224.457 150.024 226.239 Q148.126 228.022 148.126 231.147 Q148.126 234.272 150.024 236.054 Q151.945 237.836 155.278 237.836 Q158.612 237.836 160.533 236.054 Q162.454 234.248 162.454 231.147 Q162.454 228.022 160.533 226.239 Q158.635 224.457 155.278 224.457 M150.603 222.466 Q147.593 221.725 145.904 219.665 Q144.237 217.605 144.237 214.642 Q144.237 210.499 147.177 208.091 Q150.14 205.684 155.278 205.684 Q160.44 205.684 163.38 208.091 Q166.32 210.499 166.32 214.642 Q166.32 217.605 164.63 219.665 Q162.964 221.725 159.978 222.466 Q163.357 223.253 165.232 225.545 Q167.13 227.836 167.13 231.147 Q167.13 236.17 164.052 238.855 Q160.996 241.54 155.278 241.54 Q149.561 241.54 146.482 238.855 Q143.427 236.17 143.427 231.147 Q143.427 227.836 145.325 225.545 Q147.223 223.253 150.603 222.466 M148.89 215.082 Q148.89 217.767 150.556 219.272 Q152.246 220.776 155.278 220.776 Q158.288 220.776 159.978 219.272 Q161.69 217.767 161.69 215.082 Q161.69 212.397 159.978 210.892 Q158.288 209.387 155.278 209.387 Q152.246 209.387 150.556 210.892 Q148.89 212.397 148.89 215.082 Z" fill="#000000" fill-rule="nonzero" fill-opacity="1" /><path clip-path="url(#clip600)" d="M175.487 206.309 L193.843 206.309 L193.843 210.244 L179.769 210.244 L179.769 218.716 Q180.788 218.369 181.806 218.207 Q182.825 218.022 183.843 218.022 Q189.63 218.022 193.01 221.193 Q196.389 224.364 196.389 229.781 Q196.389 235.36 192.917 238.461 Q189.445 241.54 183.126 241.54 Q180.95 241.54 178.681 241.17 Q176.436 240.799 174.028 240.059 L174.028 235.36 Q176.112 236.494 178.334 237.049 Q180.556 237.605 183.033 237.605 Q187.038 237.605 189.375 235.498 Q191.713 233.392 191.713 229.781 Q191.713 226.17 189.375 224.063 Q187.038 221.957 183.033 221.957 Q181.158 221.957 179.283 222.374 Q177.431 222.79 175.487 223.67 L175.487 206.309 Z" fill="#000000" fill-rule="nonzero" fill-opacity="1" /><path clip-path="url(#clip600)" d="M114.931 76.889 L122.57 76.889 L122.57 50.5234 L114.26 52.1901 L114.26 47.9308 L122.524 46.2642 L127.2 46.2642 L127.2 76.889 L134.839 76.889 L134.839 80.8242 L114.931 80.8242 L114.931 76.889 Z" fill="#000000" fill-rule="nonzero" fill-opacity="1" /><path clip-path="url(#clip600)" d="M144.422 80.1066 L144.422 75.8473 Q146.181 76.6807 147.987 77.1205 Q149.792 77.5603 151.528 77.5603 Q156.158 77.5603 158.589 74.4585 Q161.042 71.3335 161.39 64.9909 Q160.047 66.9816 157.987 68.0465 Q155.927 69.1113 153.427 69.1113 Q148.241 69.1113 145.209 65.9863 Q142.2 62.8381 142.2 57.3984 Q142.2 52.0743 145.348 48.8567 Q148.496 45.6392 153.728 45.6392 Q159.723 45.6392 162.871 50.2456 Q166.042 54.8289 166.042 63.5789 Q166.042 71.7501 162.153 76.6344 Q158.288 81.4955 151.737 81.4955 Q149.978 81.4955 148.172 81.1482 Q146.366 80.801 144.422 80.1066 M153.728 65.4539 Q156.876 65.4539 158.704 63.3011 Q160.556 61.1483 160.556 57.3984 Q160.556 53.6715 158.704 51.5188 Q156.876 49.3429 153.728 49.3429 Q150.579 49.3429 148.728 51.5188 Q146.899 53.6715 146.899 57.3984 Q146.899 61.1483 148.728 63.3011 Q150.579 65.4539 153.728 65.4539 Z" fill="#000000" fill-rule="nonzero" fill-opacity="1" /><path clip-path="url(#clip600)" d="M184.445 49.3429 Q180.834 49.3429 179.005 52.9076 Q177.2 56.4493 177.2 63.5789 Q177.2 70.6853 179.005 74.2501 Q180.834 77.7918 184.445 77.7918 Q188.079 77.7918 189.885 74.2501 Q191.713 70.6853 191.713 63.5789 Q191.713 56.4493 189.885 52.9076 Q188.079 49.3429 184.445 49.3429 M184.445 45.6392 Q190.255 45.6392 193.311 50.2456 Q196.389 54.8289 196.389 63.5789 Q196.389 72.3057 193.311 76.9121 Q190.255 81.4955 184.445 81.4955 Q178.635 81.4955 175.556 76.9121 Q172.501 72.3057 172.501 63.5789 Q172.501 54.8289 175.556 50.2456 Q178.635 45.6392 184.445 45.6392 Z" fill="#000000" fill-rule="nonzero" fill-opacity="1" /><path clip-path="url(#clip600)" d="M21.7178 334.435 Q22.1687 334.435 23.2315 334.724 L48.4165 341.037 Q54.0203 342.422 57.9494 346.93 Q61.8785 351.407 61.8785 356.496 Q61.8785 359.555 60.236 361.52 Q58.6257 363.484 56.1459 363.484 Q53.9559 363.484 52.8931 362.325 Q51.8625 361.165 51.8625 359.781 Q51.8625 359.33 51.9913 358.847 Q52.1201 358.364 52.6676 357.848 Q53.2151 357.333 54.1491 357.333 Q55.6628 357.333 56.8544 358.653 Q57.4019 359.298 57.5307 359.909 Q57.6596 360.489 57.6596 361.488 Q58.5613 361.101 59.1732 360.393 Q59.7851 359.684 60.0106 358.879 Q60.2682 358.074 60.3326 357.558 Q60.4293 357.011 60.4293 356.496 Q60.4293 352.373 56.2747 349.217 Q55.0187 348.283 53.7626 347.607 Q52.5388 346.898 51.0252 346.383 Q49.5437 345.868 48.7385 345.642 Q47.9334 345.385 46.0977 344.934 Q49.0928 347.929 49.0928 351.6 Q49.0928 353.146 48.6741 354.531 Q48.2554 355.884 47.3859 357.075 Q46.4841 358.267 44.906 358.975 Q43.3279 359.652 41.2346 359.652 Q39.0124 359.652 35.985 358.782 Q32.9577 357.913 27.386 355.819 Q24.2621 354.692 22.7484 354.692 Q22.0077 354.692 21.5568 354.853 Q21.0737 355.014 20.9127 355.336 Q20.7194 355.658 20.6872 355.852 Q20.655 356.013 20.655 356.335 Q20.655 358.235 22.5874 360.006 Q24.5197 361.777 28.8353 363.001 Q29.6405 363.259 29.8337 363.42 Q30.0269 363.581 30.0269 364.064 Q29.9947 364.869 29.3506 364.869 Q29.093 364.869 28.0946 364.579 Q27.064 364.289 25.5503 363.613 Q24.0044 362.905 22.6196 361.938 Q21.2025 360.972 20.2041 359.459 Q19.2058 357.913 19.2058 356.141 Q19.2058 353.726 20.7838 352.244 Q22.3297 350.731 24.6163 350.731 Q25.5503 350.731 26.3877 350.988 Q27.1928 351.214 29.3506 352.051 Q38.0462 355.433 42.2974 355.433 Q43.3279 355.433 44.1975 355.272 Q45.0349 355.079 45.8722 354.66 Q46.6774 354.241 47.1604 353.404 Q47.6113 352.534 47.6113 351.343 Q47.6113 349.829 46.9028 348.412 Q46.1621 346.963 45.1637 346.061 Q44.1653 345.127 43.3279 344.579 Q42.4584 344 42.0075 343.871 L30.1558 340.908 L24.874 339.588 Q22.0077 338.976 21.2991 338.686 Q20.6228 338.299 20.2686 337.623 Q19.9143 336.947 19.9143 336.367 Q19.9143 335.562 20.3974 335.014 Q20.8805 334.435 21.7178 334.435 Z" fill="#000000" fill-rule="nonzero" fill-opacity="1" /><path clip-path="url(#clip600)" d="M53.6652 327.689 L52.2224 327.689 Q52.2224 322.143 49.2691 319.28 Q49.2691 318.491 49.4494 318.355 Q49.6298 318.22 50.4639 318.22 L76.3671 318.22 Q77.7423 318.22 78.1706 317.544 Q78.599 316.867 78.599 313.914 L78.599 312.449 L80.0193 312.449 Q79.884 314.072 79.884 319.933 Q79.884 325.795 80.0193 327.395 L78.599 327.395 L78.599 325.93 Q78.599 323.022 78.1932 322.323 Q77.7648 321.624 76.3671 321.624 L52.4478 321.624 Q53.6652 324.036 53.6652 327.689 Z" fill="#000000" fill-rule="nonzero" fill-opacity="1" /><polyline clip-path="url(#clip602)" style="stroke:#009af9; stroke-linecap:round; stroke-linejoin:round; stroke-width:4; stroke-opacity:1; fill:none" points="258.086,63.5442 283.279,63.5442 308.473,63.5442 333.666,543.069 358.859,606.88 384.052,419.156 409.245,386.86 434.438,474.728 459.631,490.377 484.824,459.729 510.017,432.09 535.21,431.499 560.403,426.724 585.597,418.737 610.79,407.289 635.983,401.908 661.176,396.813 686.369,393.562 711.562,389.479 736.755,387.313 761.948,385.25 787.141,384.328 812.334,383.242 837.528,382.863 862.721,382.432 887.914,382.438 913.107,382.347 938.3,382.49 963.493,382.548 988.686,382.733 1013.88,382.84 1039.07,383.006 1064.27,383.107 1089.46,383.235 1114.65,383.313 "/>
<polyline clip-path="url(#clip602)" style="stroke:#3da44d; stroke-linecap:round; stroke-linejoin:round; stroke-width:3; stroke-opacity:1; fill:none" stroke-dasharray="12, 8" points="258.086,383.633 283.279,383.633 308.473,383.633 333.666,383.633 358.859,383.633 384.052,383.633 409.245,383.633 434.438,383.633 459.631,383.633 484.824,383.633 510.017,383.633 535.21,383.633 560.403,383.633 585.597,383.633 610.79,383.633 635.983,383.633 661.176,383.633 686.369,383.633 711.562,383.633 736.755,383.633 761.948,383.633 787.141,383.633 812.334,383.633 837.528,383.633 862.721,383.633 887.914,383.633 913.107,383.633 938.3,383.633 963.493,383.633 988.686,383.633 1013.88,383.633 1039.07,383.633 1064.27,383.633 1089.46,383.633 1114.65,383.633 "/>
<path clip-path="url(#clip600)" d="M971.279 221.962 L1110.08 221.962 L1110.08 66.442 L971.279 66.442  Z" fill="#ffffff" fill-rule="evenodd" fill-opacity="1"/>
<polyline clip-path="url(#clip600)" style="stroke:#000000; stroke-linecap:round; stroke-linejoin:round; stroke-width:4; stroke-opacity:1; fill:none" points="971.279,221.962 1110.08,221.962 1110.08,66.442 971.279,66.442 971.279,221.962 "/>
<polyline clip-path="url(#clip600)" style="stroke:#009af9; stroke-linecap:round; stroke-linejoin:round; stroke-width:4; stroke-opacity:1; fill:none" points="981.367,118.282 1041.9,118.282 "/>
<path clip-path="url(#clip600)" d="M1078.76 105.021 Q1077.28 105.021 1076.53 105.161 Q1075.78 105.278 1075.6 105.442 Q1075.41 105.606 1075.2 106.028 L1064.89 127.951 Q1063.79 130.294 1061.73 131.98 Q1059.69 133.666 1057.12 133.666 Q1054.96 133.666 1053.46 132.355 Q1051.99 131.067 1051.99 129.24 Q1051.99 127.928 1052.81 127.178 Q1053.63 126.452 1054.73 126.452 Q1055.94 126.452 1056.72 127.225 Q1057.51 127.998 1057.51 129.193 Q1057.51 129.966 1057.19 130.551 Q1056.86 131.16 1056.55 131.371 Q1056.27 131.605 1055.97 131.746 Q1056.46 131.933 1057.12 131.933 Q1058.1 131.933 1058.94 131.535 Q1059.81 131.16 1060.37 130.645 Q1060.96 130.153 1061.54 129.263 Q1062.13 128.396 1062.41 127.834 Q1062.69 127.296 1063.11 126.359 L1064.21 124.063 L1055.24 105.021 L1052.17 105.021 L1052.17 102.772 L1057.65 102.913 L1063.6 102.772 L1063.6 105.021 L1061 105.021 L1067.09 117.973 L1072.62 106.168 L1072.86 105.606 Q1072.86 105.349 1072.29 105.208 Q1071.73 105.044 1071.17 105.044 L1070.61 105.021 L1070.61 102.772 L1074.96 102.913 Q1077.02 102.913 1078.76 102.772 L1078.76 105.021 Z" fill="#000000" fill-rule="nonzero" fill-opacity="1" /><polyline clip-path="url(#clip600)" style="stroke:#3da44d; stroke-linecap:round; stroke-linejoin:round; stroke-width:3; stroke-opacity:1; fill:none" stroke-dasharray="12, 8" points="981.367,170.122 1041.9,170.122 "/>
<path clip-path="url(#clip600)" d="M1071.4 155.4 Q1071.4 156.758 1070.51 157.555 Q1069.62 158.328 1068.48 158.328 Q1067.33 158.328 1066.44 157.555 Q1065.55 156.782 1065.55 155.4 Q1065.55 154.791 1065.76 154.252 Q1065.99 153.69 1066.23 153.432 L1066.46 153.198 Q1065.08 153.198 1064 153.854 Q1062.92 154.486 1062.27 155.47 Q1061.61 156.454 1061.19 157.742 Q1060.77 159.007 1060.61 160.155 Q1060.46 161.302 1060.46 162.403 L1060.46 170.812 L1064.63 170.812 L1064.63 173.06 Q1062.9 172.92 1058.03 172.92 L1051.99 173.06 L1051.99 170.812 L1055.29 170.812 L1055.29 155.985 Q1055.29 154.627 1054.8 154.369 Q1054.3 154.112 1051.99 154.112 L1051.99 151.863 L1059.95 151.465 L1059.95 156.899 Q1061.94 151.465 1066.32 151.465 Q1068.33 151.465 1069.86 152.542 Q1071.4 153.596 1071.4 155.4 Z" fill="#000000" fill-rule="nonzero" fill-opacity="1" /><path clip-path="url(#clip600)" d="M1095.07 168.583 Q1094.03 168.583 1093.51 168.682 Q1092.98 168.764 1092.85 168.879 Q1092.72 168.993 1092.57 169.289 L1085.36 184.635 Q1084.59 186.274 1083.15 187.455 Q1081.72 188.635 1079.92 188.635 Q1078.41 188.635 1077.36 187.717 Q1076.32 186.816 1076.32 185.537 Q1076.32 184.618 1076.9 184.094 Q1077.47 183.586 1078.24 183.586 Q1079.1 183.586 1079.64 184.127 Q1080.19 184.668 1080.19 185.504 Q1080.19 186.045 1079.96 186.455 Q1079.74 186.881 1079.52 187.029 Q1079.33 187.193 1079.11 187.291 Q1079.46 187.422 1079.92 187.422 Q1080.6 187.422 1081.19 187.143 Q1081.8 186.881 1082.19 186.52 Q1082.6 186.176 1083.01 185.553 Q1083.42 184.946 1083.62 184.553 Q1083.82 184.176 1084.11 183.52 L1084.88 181.913 L1078.6 168.583 L1076.46 168.583 L1076.46 167.01 L1080.29 167.108 L1084.46 167.01 L1084.46 168.583 L1082.64 168.583 L1086.9 177.65 L1090.77 169.387 L1090.93 168.993 Q1090.93 168.813 1090.54 168.715 Q1090.15 168.6 1089.75 168.6 L1089.36 168.583 L1089.36 167.01 L1092.41 167.108 Q1093.85 167.108 1095.07 167.01 L1095.07 168.583 Z" fill="#000000" fill-rule="nonzero" fill-opacity="1" /><path clip-path="url(#clip600)" d="M232.389 1423.18 L1140.35 1423.18 L1140.35 847.244 L232.389 847.244  Z" fill="#ffffff" fill-rule="evenodd" fill-opacity="1"/>
<defs>
  <clipPath id="clip603">
    <rect x="232" y="847" width="909" height="577"/>
  </clipPath>
</defs>
<polyline clip-path="url(#clip603)" style="stroke:#000000; stroke-linecap:round; stroke-linejoin:round; stroke-width:2; stroke-opacity:0.1; fill:none" points="258.086,1423.18 258.086,847.244 "/>
<polyline clip-path="url(#clip603)" style="stroke:#000000; stroke-linecap:round; stroke-linejoin:round; stroke-width:2; stroke-opacity:0.1; fill:none" points="510.017,1423.18 510.017,847.244 "/>
<polyline clip-path="url(#clip603)" style="stroke:#000000; stroke-linecap:round; stroke-linejoin:round; stroke-width:2; stroke-opacity:0.1; fill:none" points="761.948,1423.18 761.948,847.244 "/>
<polyline clip-path="url(#clip603)" style="stroke:#000000; stroke-linecap:round; stroke-linejoin:round; stroke-width:2; stroke-opacity:0.1; fill:none" points="1013.88,1423.18 1013.88,847.244 "/>
<polyline clip-path="url(#clip600)" style="stroke:#000000; stroke-linecap:round; stroke-linejoin:round; stroke-width:4; stroke-opacity:1; fill:none" points="232.389,1423.18 1140.35,1423.18 "/>
<polyline clip-path="url(#clip600)" style="stroke:#000000; stroke-linecap:round; stroke-linejoin:round; stroke-width:4; stroke-opacity:1; fill:none" points="258.086,1423.18 258.086,1404.28 "/>
<polyline clip-path="url(#clip600)" style="stroke:#000000; stroke-linecap:round; stroke-linejoin:round; stroke-width:4; stroke-opacity:1; fill:none" points="510.017,1423.18 510.017,1404.28 "/>
<polyline clip-path="url(#clip600)" style="stroke:#000000; stroke-linecap:round; stroke-linejoin:round; stroke-width:4; stroke-opacity:1; fill:none" points="761.948,1423.18 761.948,1404.28 "/>
<polyline clip-path="url(#clip600)" style="stroke:#000000; stroke-linecap:round; stroke-linejoin:round; stroke-width:4; stroke-opacity:1; fill:none" points="1013.88,1423.18 1013.88,1404.28 "/>
<path clip-path="url(#clip600)" d="M258.086 1454.1 Q254.475 1454.1 252.647 1457.66 Q250.841 1461.2 250.841 1468.33 Q250.841 1475.44 252.647 1479.01 Q254.475 1482.55 258.086 1482.55 Q261.721 1482.55 263.526 1479.01 Q265.355 1475.44 265.355 1468.33 Q265.355 1461.2 263.526 1457.66 Q261.721 1454.1 258.086 1454.1 M258.086 1450.39 Q263.896 1450.39 266.952 1455 Q270.031 1459.58 270.031 1468.33 Q270.031 1477.06 266.952 1481.67 Q263.896 1486.25 258.086 1486.25 Q252.276 1486.25 249.197 1481.67 Q246.142 1477.06 246.142 1468.33 Q246.142 1459.58 249.197 1455 Q252.276 1450.39 258.086 1450.39 Z" fill="#000000" fill-rule="nonzero" fill-opacity="1" /><path clip-path="url(#clip600)" d="M500.399 1481.64 L508.038 1481.64 L508.038 1455.28 L499.728 1456.95 L499.728 1452.69 L507.992 1451.02 L512.668 1451.02 L512.668 1481.64 L520.307 1481.64 L520.307 1485.58 L500.399 1485.58 L500.399 1481.64 Z" fill="#000000" fill-rule="nonzero" fill-opacity="1" /><path clip-path="url(#clip600)" d="M756.601 1481.64 L772.92 1481.64 L772.92 1485.58 L750.976 1485.58 L750.976 1481.64 Q753.638 1478.89 758.221 1474.26 Q762.828 1469.61 764.008 1468.27 Q766.254 1465.74 767.133 1464.01 Q768.036 1462.25 768.036 1460.56 Q768.036 1457.8 766.092 1456.07 Q764.17 1454.33 761.069 1454.33 Q758.87 1454.33 756.416 1455.09 Q753.985 1455.86 751.208 1457.41 L751.208 1452.69 Q754.032 1451.55 756.485 1450.97 Q758.939 1450.39 760.976 1450.39 Q766.346 1450.39 769.541 1453.08 Q772.735 1455.77 772.735 1460.26 Q772.735 1462.39 771.925 1464.31 Q771.138 1466.2 769.032 1468.8 Q768.453 1469.47 765.351 1472.69 Q762.249 1475.88 756.601 1481.64 Z" fill="#000000" fill-rule="nonzero" fill-opacity="1" /><path clip-path="url(#clip600)" d="M1018.13 1466.95 Q1021.48 1467.66 1023.36 1469.93 Q1025.26 1472.2 1025.26 1475.53 Q1025.26 1480.65 1021.74 1483.45 Q1018.22 1486.25 1011.74 1486.25 Q1009.56 1486.25 1007.25 1485.81 Q1004.96 1485.39 1002.5 1484.54 L1002.5 1480.02 Q1004.45 1481.16 1006.76 1481.74 Q1009.08 1482.32 1011.6 1482.32 Q1016 1482.32 1018.29 1480.58 Q1020.6 1478.84 1020.6 1475.53 Q1020.6 1472.48 1018.45 1470.77 Q1016.32 1469.03 1012.5 1469.03 L1008.47 1469.03 L1008.47 1465.19 L1012.69 1465.19 Q1016.14 1465.19 1017.96 1463.82 Q1019.79 1462.43 1019.79 1459.84 Q1019.79 1457.18 1017.9 1455.77 Q1016.02 1454.33 1012.5 1454.33 Q1010.58 1454.33 1008.38 1454.75 Q1006.18 1455.16 1003.54 1456.04 L1003.54 1451.88 Q1006.21 1451.14 1008.52 1450.77 Q1010.86 1450.39 1012.92 1450.39 Q1018.24 1450.39 1021.34 1452.83 Q1024.45 1455.23 1024.45 1459.35 Q1024.45 1462.22 1022.8 1464.21 Q1021.16 1466.18 1018.13 1466.95 Z" fill="#000000" fill-rule="nonzero" fill-opacity="1" /><path clip-path="url(#clip600)" d="M556.54 1520.52 L596.74 1520.52 L596.74 1525.93 L579.871 1525.93 L579.871 1568.04 L573.409 1568.04 L573.409 1525.93 L556.54 1525.93 L556.54 1520.52 Z" fill="#000000" fill-rule="nonzero" fill-opacity="1" /><path clip-path="url(#clip600)" d="M600.687 1532.4 L606.543 1532.4 L606.543 1568.04 L600.687 1568.04 L600.687 1532.4 M600.687 1518.52 L606.543 1518.52 L606.543 1525.93 L600.687 1525.93 L600.687 1518.52 Z" fill="#000000" fill-rule="nonzero" fill-opacity="1" /><path clip-path="url(#clip600)" d="M646.551 1539.24 Q648.748 1535.29 651.803 1533.41 Q654.859 1531.54 658.996 1531.54 Q664.566 1531.54 667.59 1535.45 Q670.614 1539.33 670.614 1546.53 L670.614 1568.04 L664.726 1568.04 L664.726 1546.72 Q664.726 1541.59 662.911 1539.11 Q661.097 1536.63 657.373 1536.63 Q652.822 1536.63 650.18 1539.65 Q647.538 1542.68 647.538 1547.9 L647.538 1568.04 L641.65 1568.04 L641.65 1546.72 Q641.65 1541.56 639.836 1539.11 Q638.021 1536.63 634.234 1536.63 Q629.746 1536.63 627.104 1539.68 Q624.462 1542.71 624.462 1547.9 L624.462 1568.04 L618.574 1568.04 L618.574 1532.4 L624.462 1532.4 L624.462 1537.93 Q626.468 1534.66 629.269 1533.1 Q632.069 1531.54 635.921 1531.54 Q639.804 1531.54 642.509 1533.51 Q645.246 1535.48 646.551 1539.24 Z" fill="#000000" fill-rule="nonzero" fill-opacity="1" /><path clip-path="url(#clip600)" d="M712.787 1548.76 L712.787 1551.62 L685.86 1551.62 Q686.242 1557.67 689.488 1560.85 Q692.766 1564 698.591 1564 Q701.965 1564 705.116 1563.17 Q708.299 1562.35 711.418 1560.69 L711.418 1566.23 Q708.267 1567.57 704.957 1568.27 Q701.647 1568.97 698.241 1568.97 Q689.711 1568.97 684.714 1564 Q679.749 1559.04 679.749 1550.57 Q679.749 1541.82 684.459 1536.69 Q689.202 1531.54 697.222 1531.54 Q704.416 1531.54 708.585 1536.18 Q712.787 1540.8 712.787 1548.76 M706.93 1547.04 Q706.867 1542.23 704.225 1539.37 Q701.615 1536.5 697.286 1536.5 Q692.385 1536.5 689.424 1539.27 Q686.496 1542.04 686.051 1547.07 L706.93 1547.04 Z" fill="#000000" fill-rule="nonzero" fill-opacity="1" /><path clip-path="url(#clip600)" d="M757.187 1518.58 Q752.922 1525.9 750.854 1533.06 Q748.785 1540.23 748.785 1547.58 Q748.785 1554.93 750.854 1562.16 Q752.954 1569.35 757.187 1576.64 L752.095 1576.64 Q747.321 1569.16 744.933 1561.93 Q742.578 1554.71 742.578 1547.58 Q742.578 1540.48 744.933 1533.29 Q747.289 1526.09 752.095 1518.58 L757.187 1518.58 Z" fill="#000000" fill-rule="nonzero" fill-opacity="1" /><path clip-path="url(#clip600)" d="M791.276 1533.45 L791.276 1538.98 Q788.793 1537.71 786.12 1537.07 Q783.446 1536.44 780.581 1536.44 Q776.221 1536.44 774.025 1537.77 Q771.86 1539.11 771.86 1541.79 Q771.86 1543.82 773.42 1545 Q774.98 1546.15 779.69 1547.2 L781.695 1547.64 Q787.934 1548.98 790.544 1551.43 Q793.186 1553.85 793.186 1558.21 Q793.186 1563.17 789.239 1566.07 Q785.324 1568.97 778.449 1568.97 Q775.584 1568.97 772.465 1568.39 Q769.378 1567.85 765.94 1566.74 L765.94 1560.69 Q769.187 1562.38 772.338 1563.24 Q775.489 1564.07 778.576 1564.07 Q782.714 1564.07 784.942 1562.66 Q787.17 1561.23 787.17 1558.65 Q787.17 1556.27 785.547 1554.99 Q783.955 1553.72 778.513 1552.54 L776.476 1552.07 Q771.033 1550.92 768.614 1548.56 Q766.195 1546.18 766.195 1542.04 Q766.195 1537.01 769.76 1534.27 Q773.325 1531.54 779.881 1531.54 Q783.128 1531.54 785.992 1532.01 Q788.857 1532.49 791.276 1533.45 Z" fill="#000000" fill-rule="nonzero" fill-opacity="1" /><path clip-path="url(#clip600)" d="M801.588 1518.58 L806.681 1518.58 Q811.455 1526.09 813.81 1533.29 Q816.198 1540.48 816.198 1547.58 Q816.198 1554.71 813.81 1561.93 Q811.455 1569.16 806.681 1576.64 L801.588 1576.64 Q805.821 1569.35 807.89 1562.16 Q809.991 1554.93 809.991 1547.58 Q809.991 1540.23 807.89 1533.06 Q805.821 1525.9 801.588 1518.58 Z" fill="#000000" fill-rule="nonzero" fill-opacity="1" /><polyline clip-path="url(#clip603)" style="stroke:#000000; stroke-linecap:round; stroke-linejoin:round; stroke-width:2; stroke-opacity:0.1; fill:none" points="232.389,1315.08 1140.35,1315.08 "/>
<polyline clip-path="url(#clip603)" style="stroke:#000000; stroke-linecap:round; stroke-linejoin:round; stroke-width:2; stroke-opacity:0.1; fill:none" points="232.389,1165.75 1140.35,1165.75 "/>
<polyline clip-path="url(#clip603)" style="stroke:#000000; stroke-linecap:round; stroke-linejoin:round; stroke-width:2; stroke-opacity:0.1; fill:none" points="232.389,1016.41 1140.35,1016.41 "/>
<polyline clip-path="url(#clip603)" style="stroke:#000000; stroke-linecap:round; stroke-linejoin:round; stroke-width:2; stroke-opacity:0.1; fill:none" points="232.389,867.067 1140.35,867.067 "/>
<polyline clip-path="url(#clip600)" style="stroke:#000000; stroke-linecap:round; stroke-linejoin:round; stroke-width:4; stroke-opacity:1; fill:none" points="232.389,1423.18 232.389,847.244 "/>
<polyline clip-path="url(#clip600)" style="stroke:#000000; stroke-linecap:round; stroke-linejoin:round; stroke-width:4; stroke-opacity:1; fill:none" points="232.389,1315.08 251.287,1315.08 "/>
<polyline clip-path="url(#clip600)" style="stroke:#000000; stroke-linecap:round; stroke-linejoin:round; stroke-width:4; stroke-opacity:1; fill:none" points="232.389,1165.75 251.287,1165.75 "/>
<polyline clip-path="url(#clip600)" style="stroke:#000000; stroke-linecap:round; stroke-linejoin:round; stroke-width:4; stroke-opacity:1; fill:none" points="232.389,1016.41 251.287,1016.41 "/>
<polyline clip-path="url(#clip600)" style="stroke:#000000; stroke-linecap:round; stroke-linejoin:round; stroke-width:4; stroke-opacity:1; fill:none" points="232.389,867.067 251.287,867.067 "/>
<path clip-path="url(#clip600)" d="M136.274 1315.54 L165.95 1315.54 L165.95 1319.47 L136.274 1319.47 L136.274 1315.54 Z" fill="#000000" fill-rule="nonzero" fill-opacity="1" /><path clip-path="url(#clip600)" d="M180.07 1328.43 L196.389 1328.43 L196.389 1332.36 L174.445 1332.36 L174.445 1328.43 Q177.107 1325.68 181.69 1321.05 Q186.297 1316.39 187.477 1315.05 Q189.723 1312.53 190.602 1310.79 Q191.505 1309.03 191.505 1307.34 Q191.505 1304.59 189.561 1302.85 Q187.639 1301.12 184.538 1301.12 Q182.338 1301.12 179.885 1301.88 Q177.454 1302.64 174.677 1304.19 L174.677 1299.47 Q177.501 1298.34 179.954 1297.76 Q182.408 1297.18 184.445 1297.18 Q189.815 1297.18 193.01 1299.87 Q196.204 1302.55 196.204 1307.04 Q196.204 1309.17 195.394 1311.09 Q194.607 1312.99 192.5 1315.58 Q191.922 1316.25 188.82 1319.47 Q185.718 1322.67 180.07 1328.43 Z" fill="#000000" fill-rule="nonzero" fill-opacity="1" /><path clip-path="url(#clip600)" d="M135.904 1166.2 L165.579 1166.2 L165.579 1170.13 L135.904 1170.13 L135.904 1166.2 Z" fill="#000000" fill-rule="nonzero" fill-opacity="1" /><path clip-path="url(#clip600)" d="M176.482 1179.09 L184.121 1179.09 L184.121 1152.72 L175.811 1154.39 L175.811 1150.13 L184.075 1148.47 L188.75 1148.47 L188.75 1179.09 L196.389 1179.09 L196.389 1183.03 L176.482 1183.03 L176.482 1179.09 Z" fill="#000000" fill-rule="nonzero" fill-opacity="1" /><path clip-path="url(#clip600)" d="M184.445 1002.2 Q180.834 1002.2 179.005 1005.77 Q177.2 1009.31 177.2 1016.44 Q177.2 1023.55 179.005 1027.11 Q180.834 1030.65 184.445 1030.65 Q188.079 1030.65 189.885 1027.11 Q191.713 1023.55 191.713 1016.44 Q191.713 1009.31 189.885 1005.77 Q188.079 1002.2 184.445 1002.2 M184.445 998.501 Q190.255 998.501 193.311 1003.11 Q196.389 1007.69 196.389 1016.44 Q196.389 1025.17 193.311 1029.77 Q190.255 1034.36 184.445 1034.36 Q178.635 1034.36 175.556 1029.77 Q172.501 1025.17 172.501 1016.44 Q172.501 1007.69 175.556 1003.11 Q178.635 998.501 184.445 998.501 Z" fill="#000000" fill-rule="nonzero" fill-opacity="1" /><path clip-path="url(#clip600)" d="M176.482 880.412 L184.121 880.412 L184.121 854.046 L175.811 855.713 L175.811 851.454 L184.075 849.787 L188.75 849.787 L188.75 880.412 L196.389 880.412 L196.389 884.347 L176.482 884.347 L176.482 880.412 Z" fill="#000000" fill-rule="nonzero" fill-opacity="1" /><path clip-path="url(#clip600)" d="M43.3612 1136.02 Q43.8121 1136.02 44.8749 1136.3 L70.0599 1142.62 Q75.6637 1144 79.5928 1148.51 Q83.5219 1152.99 83.5219 1158.08 Q83.5219 1161.14 81.8794 1163.1 Q80.2691 1165.06 77.7893 1165.06 Q75.5993 1165.06 74.5365 1163.91 Q73.5059 1162.75 73.5059 1161.36 Q73.5059 1160.91 73.6347 1160.43 Q73.7636 1159.94 74.3111 1159.43 Q74.8586 1158.91 75.7925 1158.91 Q77.3062 1158.91 78.4978 1160.23 Q79.0453 1160.88 79.1741 1161.49 Q79.303 1162.07 79.303 1163.07 Q80.2047 1162.68 80.8166 1161.97 Q81.4285 1161.26 81.654 1160.46 Q81.9116 1159.65 81.976 1159.14 Q82.0727 1158.59 82.0727 1158.08 Q82.0727 1153.95 77.9181 1150.8 Q76.6621 1149.86 75.4061 1149.19 Q74.1822 1148.48 72.6686 1147.96 Q71.1871 1147.45 70.3819 1147.22 Q69.5768 1146.97 67.7411 1146.51 Q70.7362 1149.51 70.7362 1153.18 Q70.7362 1154.73 70.3175 1156.11 Q69.8988 1157.46 69.0293 1158.66 Q68.1275 1159.85 66.5494 1160.56 Q64.9714 1161.23 62.878 1161.23 Q60.6558 1161.23 57.6284 1160.36 Q54.6011 1159.49 49.0295 1157.4 Q45.9055 1156.27 44.3918 1156.27 Q43.6511 1156.27 43.2002 1156.43 Q42.7171 1156.59 42.5561 1156.92 Q42.3628 1157.24 42.3306 1157.43 Q42.2984 1157.59 42.2984 1157.92 Q42.2984 1159.82 44.2308 1161.59 Q46.1631 1163.36 50.4787 1164.58 Q51.2839 1164.84 51.4771 1165 Q51.6703 1165.16 51.6703 1165.64 Q51.6381 1166.45 50.994 1166.45 Q50.7364 1166.45 49.738 1166.16 Q48.7074 1165.87 47.1937 1165.19 Q45.6478 1164.49 44.263 1163.52 Q42.8459 1162.55 41.8475 1161.04 Q40.8492 1159.49 40.8492 1157.72 Q40.8492 1155.31 42.4272 1153.82 Q43.9731 1152.31 46.2597 1152.31 Q47.1937 1152.31 48.0311 1152.57 Q48.8362 1152.79 50.994 1153.63 Q59.6896 1157.01 63.9408 1157.01 Q64.9714 1157.01 65.8409 1156.85 Q66.6783 1156.66 67.5156 1156.24 Q68.3208 1155.82 68.8038 1154.98 Q69.2547 1154.11 69.2547 1152.92 Q69.2547 1151.41 68.5462 1149.99 Q67.8055 1148.54 66.8071 1147.64 Q65.8087 1146.71 64.9714 1146.16 Q64.1018 1145.58 63.6509 1145.45 L51.7992 1142.49 L46.5174 1141.17 Q43.6511 1140.56 42.9425 1140.27 Q42.2662 1139.88 41.912 1139.2 Q41.5577 1138.53 41.5577 1137.95 Q41.5577 1137.14 42.0408 1136.59 Q42.5239 1136.02 43.3612 1136.02 Z" fill="#000000" fill-rule="nonzero" fill-opacity="1" /><path clip-path="url(#clip600)" d="M101.663 1129.27 Q100.829 1129.27 100.581 1129.2 Q100.333 1129.11 99.9493 1128.75 L90.075 1119.89 Q84.6193 1115.04 79.8625 1115.04 Q76.774 1115.04 74.5646 1116.67 Q72.3553 1118.27 72.3553 1121.22 Q72.3553 1123.25 73.5952 1124.96 Q74.8352 1126.68 77.0445 1127.47 Q76.9994 1127.33 76.9994 1126.86 Q76.9994 1125.71 77.7208 1125.08 Q78.4422 1124.42 79.4116 1124.42 Q80.6515 1124.42 81.2602 1125.23 Q81.8464 1126.02 81.8464 1126.81 Q81.8464 1127.13 81.7788 1127.56 Q81.7111 1127.96 81.0799 1128.62 Q80.4261 1129.27 79.2764 1129.27 Q76.0526 1129.27 73.4825 1126.83 Q70.9125 1124.38 70.9125 1120.63 Q70.9125 1116.4 73.4374 1113.62 Q75.9398 1110.83 79.8625 1110.83 Q81.2377 1110.83 82.5002 1111.26 Q83.7401 1111.66 84.7095 1112.23 Q85.6789 1112.77 87.2344 1114.25 Q88.79 1115.74 89.8946 1116.94 Q90.9993 1118.13 93.3439 1120.81 L98.1007 1125.71 L98.1007 1117.39 Q98.1007 1113.33 97.74 1113.01 Q97.0862 1112.56 93.637 1112 L93.637 1110.83 L101.663 1112.14 L101.663 1129.27 Z" fill="#000000" fill-rule="nonzero" fill-opacity="1" /><polyline clip-path="url(#clip603)" style="stroke:#009af9; stroke-linecap:round; stroke-linejoin:round; stroke-width:4; stroke-opacity:1; fill:none" points="258.086,1016.41 283.279,1016.41 308.473,1406.88 333.666,1068.37 358.859,863.544 384.052,990.108 409.245,1087.96 434.438,1029.15 459.631,991.45 484.824,993.9 510.017,1015.92 535.21,1012.52 560.403,1009.9 585.597,1007.08 610.79,1012.02 635.983,1012.26 661.176,1013.76 686.369,1013.08 711.562,1014.64 736.755,1014.73 761.948,1015.66 787.141,1015.52 812.334,1016.1 837.528,1016.06 862.721,1016.41 887.914,1016.33 913.107,1016.52 938.3,1016.45 963.493,1016.56 988.686,1016.49 1013.88,1016.54 1039.07,1016.49 1064.27,1016.51 1089.46,1016.47 1114.65,1016.48 "/>
<path clip-path="url(#clip600)" d="M1444.8 1423.18 L2352.76 1423.18 L2352.76 47.2441 L1444.8 47.2441  Z" fill="#ffffff" fill-rule="evenodd" fill-opacity="1"/>
<defs>
  <clipPath id="clip604">
    <rect x="1444" y="47" width="909" height="1377"/>
  </clipPath>
</defs>
<polyline clip-path="url(#clip604)" style="stroke:#000000; stroke-linecap:round; stroke-linejoin:round; stroke-width:2; stroke-opacity:0.1; fill:none" points="1470.49,1423.18 1470.49,47.2441 "/>
<polyline clip-path="url(#clip604)" style="stroke:#000000; stroke-linecap:round; stroke-linejoin:round; stroke-width:2; stroke-opacity:0.1; fill:none" points="1722.42,1423.18 1722.42,47.2441 "/>
<polyline clip-path="url(#clip604)" style="stroke:#000000; stroke-linecap:round; stroke-linejoin:round; stroke-width:2; stroke-opacity:0.1; fill:none" points="1974.36,1423.18 1974.36,47.2441 "/>
<polyline clip-path="url(#clip604)" style="stroke:#000000; stroke-linecap:round; stroke-linejoin:round; stroke-width:2; stroke-opacity:0.1; fill:none" points="2226.29,1423.18 2226.29,47.2441 "/>
<polyline clip-path="url(#clip600)" style="stroke:#000000; stroke-linecap:round; stroke-linejoin:round; stroke-width:4; stroke-opacity:1; fill:none" points="1444.8,1423.18 2352.76,1423.18 "/>
<polyline clip-path="url(#clip600)" style="stroke:#000000; stroke-linecap:round; stroke-linejoin:round; stroke-width:4; stroke-opacity:1; fill:none" points="1470.49,1423.18 1470.49,1404.28 "/>
<polyline clip-path="url(#clip600)" style="stroke:#000000; stroke-linecap:round; stroke-linejoin:round; stroke-width:4; stroke-opacity:1; fill:none" points="1722.42,1423.18 1722.42,1404.28 "/>
<polyline clip-path="url(#clip600)" style="stroke:#000000; stroke-linecap:round; stroke-linejoin:round; stroke-width:4; stroke-opacity:1; fill:none" points="1974.36,1423.18 1974.36,1404.28 "/>
<polyline clip-path="url(#clip600)" style="stroke:#000000; stroke-linecap:round; stroke-linejoin:round; stroke-width:4; stroke-opacity:1; fill:none" points="2226.29,1423.18 2226.29,1404.28 "/>
<path clip-path="url(#clip600)" d="M1470.49 1454.1 Q1466.88 1454.1 1465.05 1457.66 Q1463.25 1461.2 1463.25 1468.33 Q1463.25 1475.44 1465.05 1479.01 Q1466.88 1482.55 1470.49 1482.55 Q1474.13 1482.55 1475.93 1479.01 Q1477.76 1475.44 1477.76 1468.33 Q1477.76 1461.2 1475.93 1457.66 Q1474.13 1454.1 1470.49 1454.1 M1470.49 1450.39 Q1476.3 1450.39 1479.36 1455 Q1482.44 1459.58 1482.44 1468.33 Q1482.44 1477.06 1479.36 1481.67 Q1476.3 1486.25 1470.49 1486.25 Q1464.68 1486.25 1461.6 1481.67 Q1458.55 1477.06 1458.55 1468.33 Q1458.55 1459.58 1461.6 1455 Q1464.68 1450.39 1470.49 1450.39 Z" fill="#000000" fill-rule="nonzero" fill-opacity="1" /><path clip-path="url(#clip600)" d="M1712.81 1481.64 L1720.45 1481.64 L1720.45 1455.28 L1712.14 1456.95 L1712.14 1452.69 L1720.4 1451.02 L1725.08 1451.02 L1725.08 1481.64 L1732.71 1481.64 L1732.71 1485.58 L1712.81 1485.58 L1712.81 1481.64 Z" fill="#000000" fill-rule="nonzero" fill-opacity="1" /><path clip-path="url(#clip600)" d="M1969.01 1481.64 L1985.33 1481.64 L1985.33 1485.58 L1963.38 1485.58 L1963.38 1481.64 Q1966.05 1478.89 1970.63 1474.26 Q1975.24 1469.61 1976.42 1468.27 Q1978.66 1465.74 1979.54 1464.01 Q1980.44 1462.25 1980.44 1460.56 Q1980.44 1457.8 1978.5 1456.07 Q1976.58 1454.33 1973.48 1454.33 Q1971.28 1454.33 1968.82 1455.09 Q1966.39 1455.86 1963.61 1457.41 L1963.61 1452.69 Q1966.44 1451.55 1968.89 1450.97 Q1971.35 1450.39 1973.38 1450.39 Q1978.75 1450.39 1981.95 1453.08 Q1985.14 1455.77 1985.14 1460.26 Q1985.14 1462.39 1984.33 1464.31 Q1983.55 1466.2 1981.44 1468.8 Q1980.86 1469.47 1977.76 1472.69 Q1974.66 1475.88 1969.01 1481.64 Z" fill="#000000" fill-rule="nonzero" fill-opacity="1" /><path clip-path="url(#clip600)" d="M2230.53 1466.95 Q2233.89 1467.66 2235.77 1469.93 Q2237.66 1472.2 2237.66 1475.53 Q2237.66 1480.65 2234.15 1483.45 Q2230.63 1486.25 2224.15 1486.25 Q2221.97 1486.25 2219.65 1485.81 Q2217.36 1485.39 2214.91 1484.54 L2214.91 1480.02 Q2216.85 1481.16 2219.17 1481.74 Q2221.48 1482.32 2224.01 1482.32 Q2228.4 1482.32 2230.7 1480.58 Q2233.01 1478.84 2233.01 1475.53 Q2233.01 1472.48 2230.86 1470.77 Q2228.73 1469.03 2224.91 1469.03 L2220.88 1469.03 L2220.88 1465.19 L2225.09 1465.19 Q2228.54 1465.19 2230.37 1463.82 Q2232.2 1462.43 2232.2 1459.84 Q2232.2 1457.18 2230.3 1455.77 Q2228.43 1454.33 2224.91 1454.33 Q2222.99 1454.33 2220.79 1454.75 Q2218.59 1455.16 2215.95 1456.04 L2215.95 1451.88 Q2218.61 1451.14 2220.93 1450.77 Q2223.27 1450.39 2225.33 1450.39 Q2230.65 1450.39 2233.75 1452.83 Q2236.85 1455.23 2236.85 1459.35 Q2236.85 1462.22 2235.21 1464.21 Q2233.57 1466.18 2230.53 1466.95 Z" fill="#000000" fill-rule="nonzero" fill-opacity="1" /><path clip-path="url(#clip600)" d="M1768.95 1520.52 L1809.15 1520.52 L1809.15 1525.93 L1792.28 1525.93 L1792.28 1568.04 L1785.82 1568.04 L1785.82 1525.93 L1768.95 1525.93 L1768.95 1520.52 Z" fill="#000000" fill-rule="nonzero" fill-opacity="1" /><path clip-path="url(#clip600)" d="M1813.09 1532.4 L1818.95 1532.4 L1818.95 1568.04 L1813.09 1568.04 L1813.09 1532.4 M1813.09 1518.52 L1818.95 1518.52 L1818.95 1525.93 L1813.09 1525.93 L1813.09 1518.52 Z" fill="#000000" fill-rule="nonzero" fill-opacity="1" /><path clip-path="url(#clip600)" d="M1858.96 1539.24 Q1861.15 1535.29 1864.21 1533.41 Q1867.27 1531.54 1871.4 1531.54 Q1876.97 1531.54 1880 1535.45 Q1883.02 1539.33 1883.02 1546.53 L1883.02 1568.04 L1877.13 1568.04 L1877.13 1546.72 Q1877.13 1541.59 1875.32 1539.11 Q1873.5 1536.63 1869.78 1536.63 Q1865.23 1536.63 1862.59 1539.65 Q1859.95 1542.68 1859.95 1547.9 L1859.95 1568.04 L1854.06 1568.04 L1854.06 1546.72 Q1854.06 1541.56 1852.24 1539.11 Q1850.43 1536.63 1846.64 1536.63 Q1842.15 1536.63 1839.51 1539.68 Q1836.87 1542.71 1836.87 1547.9 L1836.87 1568.04 L1830.98 1568.04 L1830.98 1532.4 L1836.87 1532.4 L1836.87 1537.93 Q1838.87 1534.66 1841.68 1533.1 Q1844.48 1531.54 1848.33 1531.54 Q1852.21 1531.54 1854.92 1533.51 Q1857.65 1535.48 1858.96 1539.24 Z" fill="#000000" fill-rule="nonzero" fill-opacity="1" /><path clip-path="url(#clip600)" d="M1925.19 1548.76 L1925.19 1551.62 L1898.27 1551.62 Q1898.65 1557.67 1901.9 1560.85 Q1905.17 1564 1911 1564 Q1914.37 1564 1917.52 1563.17 Q1920.71 1562.35 1923.83 1560.69 L1923.83 1566.23 Q1920.67 1567.57 1917.36 1568.27 Q1914.05 1568.97 1910.65 1568.97 Q1902.12 1568.97 1897.12 1564 Q1892.16 1559.04 1892.16 1550.57 Q1892.16 1541.82 1896.87 1536.69 Q1901.61 1531.54 1909.63 1531.54 Q1916.82 1531.54 1920.99 1536.18 Q1925.19 1540.8 1925.19 1548.76 M1919.34 1547.04 Q1919.27 1542.23 1916.63 1539.37 Q1914.02 1536.5 1909.69 1536.5 Q1904.79 1536.5 1901.83 1539.27 Q1898.9 1542.04 1898.46 1547.07 L1919.34 1547.04 Z" fill="#000000" fill-rule="nonzero" fill-opacity="1" /><path clip-path="url(#clip600)" d="M1969.59 1518.58 Q1965.33 1525.9 1963.26 1533.06 Q1961.19 1540.23 1961.19 1547.58 Q1961.19 1554.93 1963.26 1562.16 Q1965.36 1569.35 1969.59 1576.64 L1964.5 1576.64 Q1959.73 1569.16 1957.34 1561.93 Q1954.99 1554.71 1954.99 1547.58 Q1954.99 1540.48 1957.34 1533.29 Q1959.7 1526.09 1964.5 1518.58 L1969.59 1518.58 Z" fill="#000000" fill-rule="nonzero" fill-opacity="1" /><path clip-path="url(#clip600)" d="M2003.68 1533.45 L2003.68 1538.98 Q2001.2 1537.71 1998.53 1537.07 Q1995.85 1536.44 1992.99 1536.44 Q1988.63 1536.44 1986.43 1537.77 Q1984.27 1539.11 1984.27 1541.79 Q1984.27 1543.82 1985.83 1545 Q1987.39 1546.15 1992.1 1547.2 L1994.1 1547.64 Q2000.34 1548.98 2002.95 1551.43 Q2005.59 1553.85 2005.59 1558.21 Q2005.59 1563.17 2001.65 1566.07 Q1997.73 1568.97 1990.86 1568.97 Q1987.99 1568.97 1984.87 1568.39 Q1981.79 1567.85 1978.35 1566.74 L1978.35 1560.69 Q1981.59 1562.38 1984.75 1563.24 Q1987.9 1564.07 1990.98 1564.07 Q1995.12 1564.07 1997.35 1562.66 Q1999.58 1561.23 1999.58 1558.65 Q1999.58 1556.27 1997.95 1554.99 Q1996.36 1553.72 1990.92 1552.54 L1988.88 1552.07 Q1983.44 1550.92 1981.02 1548.56 Q1978.6 1546.18 1978.6 1542.04 Q1978.6 1537.01 1982.17 1534.27 Q1985.73 1531.54 1992.29 1531.54 Q1995.54 1531.54 1998.4 1532.01 Q2001.26 1532.49 2003.68 1533.45 Z" fill="#000000" fill-rule="nonzero" fill-opacity="1" /><path clip-path="url(#clip600)" d="M2014 1518.58 L2019.09 1518.58 Q2023.86 1526.09 2026.22 1533.29 Q2028.6 1540.48 2028.6 1547.58 Q2028.6 1554.71 2026.22 1561.93 Q2023.86 1569.16 2019.09 1576.64 L2014 1576.64 Q2018.23 1569.35 2020.3 1562.16 Q2022.4 1554.93 2022.4 1547.58 Q2022.4 1540.23 2020.3 1533.06 Q2018.23 1525.9 2014 1518.58 Z" fill="#000000" fill-rule="nonzero" fill-opacity="1" /><polyline clip-path="url(#clip604)" style="stroke:#000000; stroke-linecap:round; stroke-linejoin:round; stroke-width:2; stroke-opacity:0.1; fill:none" points="1444.8,1384.24 2352.76,1384.24 "/>
<polyline clip-path="url(#clip604)" style="stroke:#000000; stroke-linecap:round; stroke-linejoin:round; stroke-width:2; stroke-opacity:0.1; fill:none" points="1444.8,1167.9 2352.76,1167.9 "/>
<polyline clip-path="url(#clip604)" style="stroke:#000000; stroke-linecap:round; stroke-linejoin:round; stroke-width:2; stroke-opacity:0.1; fill:none" points="1444.8,951.554 2352.76,951.554 "/>
<polyline clip-path="url(#clip604)" style="stroke:#000000; stroke-linecap:round; stroke-linejoin:round; stroke-width:2; stroke-opacity:0.1; fill:none" points="1444.8,735.212 2352.76,735.212 "/>
<polyline clip-path="url(#clip604)" style="stroke:#000000; stroke-linecap:round; stroke-linejoin:round; stroke-width:2; stroke-opacity:0.1; fill:none" points="1444.8,518.87 2352.76,518.87 "/>
<polyline clip-path="url(#clip604)" style="stroke:#000000; stroke-linecap:round; stroke-linejoin:round; stroke-width:2; stroke-opacity:0.1; fill:none" points="1444.8,302.528 2352.76,302.528 "/>
<polyline clip-path="url(#clip604)" style="stroke:#000000; stroke-linecap:round; stroke-linejoin:round; stroke-width:2; stroke-opacity:0.1; fill:none" points="1444.8,86.1857 2352.76,86.1857 "/>
<polyline clip-path="url(#clip600)" style="stroke:#000000; stroke-linecap:round; stroke-linejoin:round; stroke-width:4; stroke-opacity:1; fill:none" points="1444.8,1423.18 1444.8,47.2441 "/>
<polyline clip-path="url(#clip600)" style="stroke:#000000; stroke-linecap:round; stroke-linejoin:round; stroke-width:4; stroke-opacity:1; fill:none" points="1444.8,1384.24 1463.69,1384.24 "/>
<polyline clip-path="url(#clip600)" style="stroke:#000000; stroke-linecap:round; stroke-linejoin:round; stroke-width:4; stroke-opacity:1; fill:none" points="1444.8,1167.9 1463.69,1167.9 "/>
<polyline clip-path="url(#clip600)" style="stroke:#000000; stroke-linecap:round; stroke-linejoin:round; stroke-width:4; stroke-opacity:1; fill:none" points="1444.8,951.554 1463.69,951.554 "/>
<polyline clip-path="url(#clip600)" style="stroke:#000000; stroke-linecap:round; stroke-linejoin:round; stroke-width:4; stroke-opacity:1; fill:none" points="1444.8,735.212 1463.69,735.212 "/>
<polyline clip-path="url(#clip600)" style="stroke:#000000; stroke-linecap:round; stroke-linejoin:round; stroke-width:4; stroke-opacity:1; fill:none" points="1444.8,518.87 1463.69,518.87 "/>
<polyline clip-path="url(#clip600)" style="stroke:#000000; stroke-linecap:round; stroke-linejoin:round; stroke-width:4; stroke-opacity:1; fill:none" points="1444.8,302.528 1463.69,302.528 "/>
<polyline clip-path="url(#clip600)" style="stroke:#000000; stroke-linecap:round; stroke-linejoin:round; stroke-width:4; stroke-opacity:1; fill:none" points="1444.8,86.1857 1463.69,86.1857 "/>
<path clip-path="url(#clip600)" d="M1302.85 1384.69 L1332.52 1384.69 L1332.52 1388.62 L1302.85 1388.62 L1302.85 1384.69 Z" fill="#000000" fill-rule="nonzero" fill-opacity="1" /><path clip-path="url(#clip600)" d="M1343.43 1397.58 L1351.07 1397.58 L1351.07 1371.22 L1342.76 1372.88 L1342.76 1368.62 L1351.02 1366.96 L1355.7 1366.96 L1355.7 1397.58 L1363.33 1397.58 L1363.33 1401.52 L1343.43 1401.52 L1343.43 1397.58 Z" fill="#000000" fill-rule="nonzero" fill-opacity="1" /><path clip-path="url(#clip600)" d="M1372.78 1395.64 L1377.66 1395.64 L1377.66 1401.52 L1372.78 1401.52 L1372.78 1395.64 Z" fill="#000000" fill-rule="nonzero" fill-opacity="1" /><path clip-path="url(#clip600)" d="M1387.89 1366.96 L1406.25 1366.96 L1406.25 1370.89 L1392.18 1370.89 L1392.18 1379.37 Q1393.19 1379.02 1394.21 1378.86 Q1395.23 1378.67 1396.25 1378.67 Q1402.04 1378.67 1405.42 1381.84 Q1408.8 1385.01 1408.8 1390.43 Q1408.8 1396.01 1405.32 1399.11 Q1401.85 1402.19 1395.53 1402.19 Q1393.36 1402.19 1391.09 1401.82 Q1388.84 1401.45 1386.44 1400.71 L1386.44 1396.01 Q1388.52 1397.14 1390.74 1397.7 Q1392.96 1398.25 1395.44 1398.25 Q1399.44 1398.25 1401.78 1396.15 Q1404.12 1394.04 1404.12 1390.43 Q1404.12 1386.82 1401.78 1384.71 Q1399.44 1382.61 1395.44 1382.61 Q1393.57 1382.61 1391.69 1383.02 Q1389.84 1383.44 1387.89 1384.32 L1387.89 1366.96 Z" fill="#000000" fill-rule="nonzero" fill-opacity="1" /><path clip-path="url(#clip600)" d="M1301.85 1168.35 L1331.53 1168.35 L1331.53 1172.28 L1301.85 1172.28 L1301.85 1168.35 Z" fill="#000000" fill-rule="nonzero" fill-opacity="1" /><path clip-path="url(#clip600)" d="M1342.43 1181.24 L1350.07 1181.24 L1350.07 1154.88 L1341.76 1156.54 L1341.76 1152.28 L1350.02 1150.62 L1354.7 1150.62 L1354.7 1181.24 L1362.34 1181.24 L1362.34 1185.18 L1342.43 1185.18 L1342.43 1181.24 Z" fill="#000000" fill-rule="nonzero" fill-opacity="1" /><path clip-path="url(#clip600)" d="M1371.78 1179.3 L1376.67 1179.3 L1376.67 1185.18 L1371.78 1185.18 L1371.78 1179.3 Z" fill="#000000" fill-rule="nonzero" fill-opacity="1" /><path clip-path="url(#clip600)" d="M1396.85 1153.69 Q1393.24 1153.69 1391.41 1157.26 Q1389.61 1160.8 1389.61 1167.93 Q1389.61 1175.04 1391.41 1178.6 Q1393.24 1182.14 1396.85 1182.14 Q1400.49 1182.14 1402.29 1178.6 Q1404.12 1175.04 1404.12 1167.93 Q1404.12 1160.8 1402.29 1157.26 Q1400.49 1153.69 1396.85 1153.69 M1396.85 1149.99 Q1402.66 1149.99 1405.72 1154.6 Q1408.8 1159.18 1408.8 1167.93 Q1408.8 1176.66 1405.72 1181.26 Q1402.66 1185.85 1396.85 1185.85 Q1391.04 1185.85 1387.96 1181.26 Q1384.91 1176.66 1384.91 1167.93 Q1384.91 1159.18 1387.96 1154.6 Q1391.04 1149.99 1396.85 1149.99 Z" fill="#000000" fill-rule="nonzero" fill-opacity="1" /><path clip-path="url(#clip600)" d="M1302.85 952.005 L1332.52 952.005 L1332.52 955.941 L1302.85 955.941 L1302.85 952.005 Z" fill="#000000" fill-rule="nonzero" fill-opacity="1" /><path clip-path="url(#clip600)" d="M1352.62 937.353 Q1349.01 937.353 1347.18 940.918 Q1345.37 944.459 1345.37 951.589 Q1345.37 958.695 1347.18 962.26 Q1349.01 965.802 1352.62 965.802 Q1356.25 965.802 1358.06 962.26 Q1359.88 958.695 1359.88 951.589 Q1359.88 944.459 1358.06 940.918 Q1356.25 937.353 1352.62 937.353 M1352.62 933.649 Q1358.43 933.649 1361.48 938.256 Q1364.56 942.839 1364.56 951.589 Q1364.56 960.316 1361.48 964.922 Q1358.43 969.505 1352.62 969.505 Q1346.81 969.505 1343.73 964.922 Q1340.67 960.316 1340.67 951.589 Q1340.67 942.839 1343.73 938.256 Q1346.81 933.649 1352.62 933.649 Z" fill="#000000" fill-rule="nonzero" fill-opacity="1" /><path clip-path="url(#clip600)" d="M1372.78 962.954 L1377.66 962.954 L1377.66 968.834 L1372.78 968.834 L1372.78 962.954 Z" fill="#000000" fill-rule="nonzero" fill-opacity="1" /><path clip-path="url(#clip600)" d="M1387.89 934.274 L1406.25 934.274 L1406.25 938.209 L1392.18 938.209 L1392.18 946.681 Q1393.19 946.334 1394.21 946.172 Q1395.23 945.987 1396.25 945.987 Q1402.04 945.987 1405.42 949.158 Q1408.8 952.33 1408.8 957.746 Q1408.8 963.325 1405.32 966.427 Q1401.85 969.505 1395.53 969.505 Q1393.36 969.505 1391.09 969.135 Q1388.84 968.765 1386.44 968.024 L1386.44 963.325 Q1388.52 964.459 1390.74 965.015 Q1392.96 965.57 1395.44 965.57 Q1399.44 965.57 1401.78 963.464 Q1404.12 961.357 1404.12 957.746 Q1404.12 954.135 1401.78 952.029 Q1399.44 949.922 1395.44 949.922 Q1393.57 949.922 1391.69 950.339 Q1389.84 950.755 1387.89 951.635 L1387.89 934.274 Z" fill="#000000" fill-rule="nonzero" fill-opacity="1" /><path clip-path="url(#clip600)" d="M1351.62 721.011 Q1348.01 721.011 1346.18 724.575 Q1344.38 728.117 1344.38 735.247 Q1344.38 742.353 1346.18 745.918 Q1348.01 749.46 1351.62 749.46 Q1355.26 749.46 1357.06 745.918 Q1358.89 742.353 1358.89 735.247 Q1358.89 728.117 1357.06 724.575 Q1355.26 721.011 1351.62 721.011 M1351.62 717.307 Q1357.43 717.307 1360.49 721.913 Q1363.57 726.497 1363.57 735.247 Q1363.57 743.973 1360.49 748.58 Q1357.43 753.163 1351.62 753.163 Q1345.81 753.163 1342.73 748.58 Q1339.68 743.973 1339.68 735.247 Q1339.68 726.497 1342.73 721.913 Q1345.81 717.307 1351.62 717.307 Z" fill="#000000" fill-rule="nonzero" fill-opacity="1" /><path clip-path="url(#clip600)" d="M1371.78 746.612 L1376.67 746.612 L1376.67 752.492 L1371.78 752.492 L1371.78 746.612 Z" fill="#000000" fill-rule="nonzero" fill-opacity="1" /><path clip-path="url(#clip600)" d="M1396.85 721.011 Q1393.24 721.011 1391.41 724.575 Q1389.61 728.117 1389.61 735.247 Q1389.61 742.353 1391.41 745.918 Q1393.24 749.46 1396.85 749.46 Q1400.49 749.46 1402.29 745.918 Q1404.12 742.353 1404.12 735.247 Q1404.12 728.117 1402.29 724.575 Q1400.49 721.011 1396.85 721.011 M1396.85 717.307 Q1402.66 717.307 1405.72 721.913 Q1408.8 726.497 1408.8 735.247 Q1408.8 743.973 1405.72 748.58 Q1402.66 753.163 1396.85 753.163 Q1391.04 753.163 1387.96 748.58 Q1384.91 743.973 1384.91 735.247 Q1384.91 726.497 1387.96 721.913 Q1391.04 717.307 1396.85 717.307 Z" fill="#000000" fill-rule="nonzero" fill-opacity="1" /><path clip-path="url(#clip600)" d="M1352.62 504.669 Q1349.01 504.669 1347.18 508.233 Q1345.37 511.775 1345.37 518.905 Q1345.37 526.011 1347.18 529.576 Q1349.01 533.117 1352.62 533.117 Q1356.25 533.117 1358.06 529.576 Q1359.88 526.011 1359.88 518.905 Q1359.88 511.775 1358.06 508.233 Q1356.25 504.669 1352.62 504.669 M1352.62 500.965 Q1358.43 500.965 1361.48 505.571 Q1364.56 510.155 1364.56 518.905 Q1364.56 527.631 1361.48 532.238 Q1358.43 536.821 1352.62 536.821 Q1346.81 536.821 1343.73 532.238 Q1340.67 527.631 1340.67 518.905 Q1340.67 510.155 1343.73 505.571 Q1346.81 500.965 1352.62 500.965 Z" fill="#000000" fill-rule="nonzero" fill-opacity="1" /><path clip-path="url(#clip600)" d="M1372.78 530.27 L1377.66 530.27 L1377.66 536.15 L1372.78 536.15 L1372.78 530.27 Z" fill="#000000" fill-rule="nonzero" fill-opacity="1" /><path clip-path="url(#clip600)" d="M1387.89 501.59 L1406.25 501.59 L1406.25 505.525 L1392.18 505.525 L1392.18 513.997 Q1393.19 513.65 1394.21 513.488 Q1395.23 513.303 1396.25 513.303 Q1402.04 513.303 1405.42 516.474 Q1408.8 519.645 1408.8 525.062 Q1408.8 530.641 1405.32 533.742 Q1401.85 536.821 1395.53 536.821 Q1393.36 536.821 1391.09 536.451 Q1388.84 536.08 1386.44 535.34 L1386.44 530.641 Q1388.52 531.775 1390.74 532.33 Q1392.96 532.886 1395.44 532.886 Q1399.44 532.886 1401.78 530.78 Q1404.12 528.673 1404.12 525.062 Q1404.12 521.451 1401.78 519.344 Q1399.44 517.238 1395.44 517.238 Q1393.57 517.238 1391.69 517.655 Q1389.84 518.071 1387.89 518.951 L1387.89 501.59 Z" fill="#000000" fill-rule="nonzero" fill-opacity="1" /><path clip-path="url(#clip600)" d="M1342.43 315.873 L1350.07 315.873 L1350.07 289.507 L1341.76 291.174 L1341.76 286.914 L1350.02 285.248 L1354.7 285.248 L1354.7 315.873 L1362.34 315.873 L1362.34 319.808 L1342.43 319.808 L1342.43 315.873 Z" fill="#000000" fill-rule="nonzero" fill-opacity="1" /><path clip-path="url(#clip600)" d="M1371.78 313.928 L1376.67 313.928 L1376.67 319.808 L1371.78 319.808 L1371.78 313.928 Z" fill="#000000" fill-rule="nonzero" fill-opacity="1" /><path clip-path="url(#clip600)" d="M1396.85 288.326 Q1393.24 288.326 1391.41 291.891 Q1389.61 295.433 1389.61 302.562 Q1389.61 309.669 1391.41 313.234 Q1393.24 316.775 1396.85 316.775 Q1400.49 316.775 1402.29 313.234 Q1404.12 309.669 1404.12 302.562 Q1404.12 295.433 1402.29 291.891 Q1400.49 288.326 1396.85 288.326 M1396.85 284.623 Q1402.66 284.623 1405.72 289.229 Q1408.8 293.813 1408.8 302.562 Q1408.8 311.289 1405.72 315.896 Q1402.66 320.479 1396.85 320.479 Q1391.04 320.479 1387.96 315.896 Q1384.91 311.289 1384.91 302.562 Q1384.91 293.813 1387.96 289.229 Q1391.04 284.623 1396.85 284.623 Z" fill="#000000" fill-rule="nonzero" fill-opacity="1" /><path clip-path="url(#clip600)" d="M1343.43 99.5305 L1351.07 99.5305 L1351.07 73.1649 L1342.76 74.8316 L1342.76 70.5723 L1351.02 68.9057 L1355.7 68.9057 L1355.7 99.5305 L1363.33 99.5305 L1363.33 103.466 L1343.43 103.466 L1343.43 99.5305 Z" fill="#000000" fill-rule="nonzero" fill-opacity="1" /><path clip-path="url(#clip600)" d="M1372.78 97.5861 L1377.66 97.5861 L1377.66 103.466 L1372.78 103.466 L1372.78 97.5861 Z" fill="#000000" fill-rule="nonzero" fill-opacity="1" /><path clip-path="url(#clip600)" d="M1387.89 68.9057 L1406.25 68.9057 L1406.25 72.8408 L1392.18 72.8408 L1392.18 81.313 Q1393.19 80.9658 1394.21 80.8038 Q1395.23 80.6186 1396.25 80.6186 Q1402.04 80.6186 1405.42 83.7899 Q1408.8 86.9611 1408.8 92.3778 Q1408.8 97.9564 1405.32 101.058 Q1401.85 104.137 1395.53 104.137 Q1393.36 104.137 1391.09 103.767 Q1388.84 103.396 1386.44 102.655 L1386.44 97.9564 Q1388.52 99.0907 1390.74 99.6462 Q1392.96 100.202 1395.44 100.202 Q1399.44 100.202 1401.78 98.0953 Q1404.12 95.9889 1404.12 92.3778 Q1404.12 88.7667 1401.78 86.6602 Q1399.44 84.5537 1395.44 84.5537 Q1393.57 84.5537 1391.69 84.9704 Q1389.84 85.3871 1387.89 86.2667 L1387.89 68.9057 Z" fill="#000000" fill-rule="nonzero" fill-opacity="1" /><path clip-path="url(#clip600)" d="M1232.84 732.675 Q1236.99 733.512 1239.37 734.64 Q1243.01 736.475 1243.01 739.535 Q1243.01 741.661 1241.82 743.271 Q1240.6 744.849 1238.57 745.396 Q1239.37 746.008 1239.92 746.556 Q1240.47 747.071 1241.31 748.07 Q1242.11 749.068 1242.56 750.421 Q1243.01 751.741 1243.01 753.255 Q1243.01 754.414 1242.79 755.477 Q1242.59 756.54 1242.05 757.667 Q1241.47 758.762 1240.6 759.567 Q1239.73 760.34 1238.31 760.855 Q1236.89 761.371 1235.09 761.371 Q1232.84 761.371 1229.78 760.501 Q1226.72 759.599 1221.24 757.538 Q1218.34 756.411 1216.73 756.411 Q1215.99 756.411 1215.51 756.572 Q1215.03 756.733 1214.87 757.055 Q1214.67 757.345 1214.64 757.538 Q1214.58 757.731 1214.58 758.053 Q1214.58 760.05 1216.6 761.789 Q1218.63 763.528 1222.76 764.72 Q1223.56 764.978 1223.75 765.139 Q1223.95 765.3 1223.95 765.783 Q1223.92 766.588 1223.27 766.588 Q1223.01 766.588 1222.02 766.298 Q1220.98 766.008 1219.47 765.332 Q1217.93 764.623 1216.54 763.657 Q1215.12 762.691 1214.12 761.177 Q1213.13 759.631 1213.13 757.86 Q1213.13 755.445 1214.7 753.963 Q1216.25 752.45 1218.54 752.45 Q1219.95 752.45 1222.69 753.577 Q1232.19 757.152 1236.15 757.152 Q1241.53 757.152 1241.53 753.061 Q1241.53 751.709 1240.98 750.453 Q1240.44 749.165 1239.66 748.327 Q1238.89 747.49 1238.05 746.846 Q1237.22 746.169 1236.67 745.88 Q1236.12 745.557 1235.99 745.525 L1216.15 740.598 Q1215.38 740.405 1214.87 740.05 Q1214.32 739.664 1214.12 739.213 Q1213.93 738.762 1213.9 738.504 Q1213.84 738.247 1213.84 738.021 Q1213.84 737.216 1214.32 736.669 Q1214.8 736.089 1215.64 736.089 Q1215.8 736.089 1216.57 736.282 Q1217.31 736.443 1218.41 736.701 Q1219.47 736.959 1220.05 737.087 Q1224.11 738.118 1224.53 738.215 L1231.64 740.05 Q1232.06 740.147 1233.42 740.469 Q1234.77 740.759 1235.48 740.92 Q1236.15 741.081 1237.09 741.242 Q1237.99 741.371 1238.5 741.371 Q1240.12 741.371 1240.82 740.888 Q1241.53 740.405 1241.53 739.342 Q1241.53 738.343 1240.86 737.57 Q1240.15 736.765 1238.79 736.153 Q1237.41 735.541 1236.28 735.187 Q1235.16 734.833 1233.38 734.382 Q1232.61 734.221 1232.42 734.092 Q1232.19 733.931 1232.19 733.48 Q1232.19 732.675 1232.84 732.675 Z" fill="#000000" fill-rule="nonzero" fill-opacity="1" /><path clip-path="url(#clip600)" d="M1234.93 725.97 L1233.49 725.97 Q1233.49 720.424 1230.53 717.561 Q1230.53 716.772 1230.71 716.637 Q1230.89 716.501 1231.73 716.501 L1257.63 716.501 Q1259.01 716.501 1259.44 715.825 Q1259.86 715.149 1259.86 712.195 L1259.86 710.73 L1261.28 710.73 Q1261.15 712.353 1261.15 718.215 Q1261.15 724.076 1261.28 725.677 L1259.86 725.677 L1259.86 724.211 Q1259.86 721.303 1259.46 720.604 Q1259.03 719.905 1257.63 719.905 L1233.71 719.905 Q1234.93 722.318 1234.93 725.97 Z" fill="#000000" fill-rule="nonzero" fill-opacity="1" /><polyline clip-path="url(#clip604)" style="stroke:#009af9; stroke-linecap:round; stroke-linejoin:round; stroke-width:4; stroke-opacity:1; fill:none" points="1470.49,735.212 1495.69,735.212 1495.69,1278.25 1520.88,1278.25 1520.88,535.956 1546.07,535.956 1546.07,354.96 1571.27,354.96 1571.27,656.38 1596.46,656.38 1596.46,754.957 1621.65,754.957 1621.65,613.94 1646.85,613.94 1646.85,578.515 1672.04,578.515 1672.04,603.908 1697.23,603.908 1697.23,641.123 1722.42,641.123 1722.42,628.573 1747.62,628.573 1747.62,627.466 1772.81,627.466 1772.81,626.662 1798,626.662 1798,637.667 1823.2,637.667 1823.2,637.674 1848.39,637.674 1848.39,641.069 1873.58,641.069 1873.58,640.471 1898.78,640.471 1898.78,644.001 1923.97,644.001 1923.97,644.146 1949.16,644.146 1949.16,645.973 1974.36,645.973 1974.36,645.703 1999.55,645.703 1999.55,646.85 2024.74,646.85 2024.74,646.687 2049.93,646.687 2049.93,647.314 2075.13,647.314 2075.13,647.076 2100.32,647.076 2100.32,647.393 2125.51,647.393 2125.51,647.189 2150.71,647.189 2150.71,647.343 2175.9,647.343 2175.9,647.165 2201.09,647.165 2201.09,647.228 2226.29,647.228 2226.29,647.09 2251.48,647.09 2251.48,647.113 2276.67,647.113 2276.67,647.012 2301.87,647.012 2301.87,647.018 2327.06,647.018 2327.06,646.949 "/>
<polyline clip-path="url(#clip604)" style="stroke:#c271d2; stroke-linecap:round; stroke-linejoin:round; stroke-width:6; stroke-opacity:1; fill:none" stroke-dasharray="3, 6" points="1470.49,1384.24 1495.69,1384.24 1520.88,1384.24 1546.07,1384.24 1571.27,1384.24 1596.46,1384.24 1621.65,1384.24 1646.85,1384.24 1672.04,1384.24 1697.23,1384.24 1722.42,1384.24 1747.62,1384.24 1772.81,1384.24 1798,1384.24 1823.2,1384.24 1848.39,1384.24 1873.58,1384.24 1898.78,1384.24 1923.97,1384.24 1949.16,1384.24 1974.36,1384.24 1999.55,1384.24 2024.74,1384.24 2049.93,1384.24 2075.13,1384.24 2100.32,1384.24 2125.51,1384.24 2150.71,1384.24 2175.9,1384.24 2201.09,1384.24 2226.29,1384.24 2251.48,1384.24 2276.67,1384.24 2301.87,1384.24 2327.06,1384.24 "/>
<polyline clip-path="url(#clip604)" style="stroke:#ac8d18; stroke-linecap:round; stroke-linejoin:round; stroke-width:6; stroke-opacity:1; fill:none" stroke-dasharray="3, 6" points="1470.49,86.1857 1495.69,86.1857 1520.88,86.1857 1546.07,86.1857 1571.27,86.1857 1596.46,86.1857 1621.65,86.1857 1646.85,86.1857 1672.04,86.1857 1697.23,86.1857 1722.42,86.1857 1747.62,86.1857 1772.81,86.1857 1798,86.1857 1823.2,86.1857 1848.39,86.1857 1873.58,86.1857 1898.78,86.1857 1923.97,86.1857 1949.16,86.1857 1974.36,86.1857 1999.55,86.1857 2024.74,86.1857 2049.93,86.1857 2075.13,86.1857 2100.32,86.1857 2125.51,86.1857 2150.71,86.1857 2175.9,86.1857 2201.09,86.1857 2226.29,86.1857 2251.48,86.1857 2276.67,86.1857 2301.87,86.1857 2327.06,86.1857 "/>
<path clip-path="url(#clip600)" d="M2124.19 300.469 L2322.49 300.469 L2322.49 93.1086 L2124.19 93.1086  Z" fill="#ffffff" fill-rule="evenodd" fill-opacity="1"/>
<polyline clip-path="url(#clip600)" style="stroke:#000000; stroke-linecap:round; stroke-linejoin:round; stroke-width:4; stroke-opacity:1; fill:none" points="2124.19,300.469 2322.49,300.469 2322.49,93.1086 2124.19,93.1086 2124.19,300.469 "/>
<polyline clip-path="url(#clip600)" style="stroke:#009af9; stroke-linecap:round; stroke-linejoin:round; stroke-width:4; stroke-opacity:1; fill:none" points="2134.28,144.949 2194.81,144.949 "/>
<path clip-path="url(#clip600)" d="M2232.25 155.503 L2223.75 155.784 L2223.75 152.06 Q2221.57 155.784 2216.84 155.784 Q2214.9 155.784 2213.45 155.527 Q2212.02 155.269 2210.75 154.637 Q2209.51 153.981 2208.85 152.716 Q2208.2 151.451 2208.2 149.601 L2208.2 138.428 Q2208.2 137.07 2207.71 136.812 Q2207.21 136.555 2204.9 136.555 L2204.9 134.306 L2213.68 133.908 L2213.68 150.28 Q2213.68 151.428 2213.75 152.013 Q2213.84 152.576 2214.19 153.138 Q2214.57 153.676 2215.37 153.887 Q2216.16 154.075 2217.52 154.075 Q2220.17 154.075 2221.81 152.294 Q2223.47 150.514 2223.47 147.587 L2223.47 138.428 Q2223.47 137.07 2222.95 136.812 Q2222.46 136.555 2220.14 136.555 L2220.14 134.306 L2228.93 133.908 L2228.93 151.381 Q2228.93 152.739 2229.42 152.997 Q2229.93 153.255 2232.25 153.255 L2232.25 155.503 Z" fill="#000000" fill-rule="nonzero" fill-opacity="1" /><polyline clip-path="url(#clip600)" style="stroke:#c271d2; stroke-linecap:round; stroke-linejoin:round; stroke-width:6; stroke-opacity:1; fill:none" stroke-dasharray="3, 6" points="2134.28,196.789 2194.81,196.789 "/>
<path clip-path="url(#clip600)" d="M2232.25 200.508 L2223.75 200.79 L2223.75 197.065 Q2221.57 200.79 2216.84 200.79 Q2214.9 200.79 2213.45 200.532 Q2212.02 200.274 2210.75 199.642 Q2209.51 198.986 2208.85 197.721 Q2208.2 196.456 2208.2 194.606 L2208.2 183.434 Q2208.2 182.075 2207.71 181.817 Q2207.21 181.56 2204.9 181.56 L2204.9 179.311 L2213.68 178.913 L2213.68 195.285 Q2213.68 196.433 2213.75 197.019 Q2213.84 197.581 2214.19 198.143 Q2214.57 198.682 2215.37 198.892 Q2216.16 199.08 2217.52 199.08 Q2220.17 199.08 2221.81 197.3 Q2223.47 195.519 2223.47 192.592 L2223.47 183.434 Q2223.47 182.075 2222.95 181.817 Q2222.46 181.56 2220.14 181.56 L2220.14 179.311 L2228.93 178.913 L2228.93 196.386 Q2228.93 197.745 2229.42 198.002 Q2229.93 198.26 2232.25 198.26 L2232.25 200.508 Z" fill="#000000" fill-rule="nonzero" fill-opacity="1" /><path clip-path="url(#clip600)" d="M2266.98 214.459 L2262.75 214.361 L2258.52 214.459 L2258.52 212.885 L2260.84 212.885 L2260.84 203.819 Q2260.84 201.982 2260.36 201.277 Q2259.88 200.556 2258.95 200.556 Q2258.13 200.556 2257.28 200.884 Q2256.44 201.212 2255.67 201.835 Q2254.92 202.458 2254.42 203.507 Q2253.95 204.556 2253.95 205.868 L2253.95 212.885 L2256.28 212.885 L2256.28 214.459 L2252.05 214.361 L2247.8 214.459 L2247.8 212.885 L2250.13 212.885 L2250.13 203.819 Q2250.13 201.982 2249.65 201.277 Q2249.18 200.556 2248.24 200.556 Q2247.42 200.556 2246.57 200.884 Q2245.73 201.212 2244.96 201.835 Q2244.21 202.458 2243.72 203.507 Q2243.24 204.556 2243.24 205.868 L2243.24 212.885 L2245.55 212.885 L2245.55 214.459 L2241.32 214.361 L2237.09 214.459 L2237.09 212.885 L2239.41 212.885 L2239.41 202.507 Q2239.41 201.556 2239.06 201.376 Q2238.72 201.195 2237.09 201.195 L2237.09 199.621 L2242.87 199.343 L2242.87 202.982 Q2243.73 201.294 2245.21 200.326 Q2246.7 199.343 2248.78 199.343 Q2253.11 199.343 2253.82 202.573 Q2254.59 201.212 2256 200.277 Q2257.41 199.343 2259.49 199.343 Q2262.13 199.343 2263.39 200.49 Q2264.67 201.622 2264.67 204.179 L2264.67 212.885 L2266.98 212.885 L2266.98 214.459 Z" fill="#000000" fill-rule="nonzero" fill-opacity="1" /><path clip-path="url(#clip600)" d="M2276.83 214.459 L2272.9 214.361 L2268.8 214.459 L2268.8 212.885 L2271.13 212.885 L2271.13 202.507 Q2271.13 201.556 2270.78 201.376 Q2270.44 201.195 2268.9 201.195 L2268.9 199.621 L2274.75 199.343 L2274.75 212.885 L2276.83 212.885 L2276.83 214.459 M2274.44 192.227 Q2275.21 192.997 2275.21 194.08 Q2275.21 195.162 2274.44 195.932 Q2273.68 196.703 2272.6 196.703 Q2271.52 196.703 2270.75 195.932 Q2269.98 195.162 2269.98 194.08 Q2269.98 192.997 2270.75 192.227 Q2271.52 191.456 2272.6 191.456 Q2273.68 191.456 2274.44 192.227 Z" fill="#000000" fill-rule="nonzero" fill-opacity="1" /><path clip-path="url(#clip600)" d="M2298.82 214.459 L2294.57 214.361 L2290.34 214.459 L2290.34 212.885 L2292.67 212.885 L2292.67 203.819 Q2292.67 201.999 2292.19 201.277 Q2291.73 200.556 2290.82 200.556 Q2289.98 200.556 2289.13 200.884 Q2288.29 201.212 2287.52 201.835 Q2286.77 202.458 2286.29 203.507 Q2285.82 204.556 2285.82 205.868 L2285.82 212.885 L2288.13 212.885 L2288.13 214.459 L2283.9 214.361 L2279.67 214.459 L2279.67 212.885 L2281.98 212.885 L2281.98 202.507 Q2281.98 201.556 2281.64 201.376 Q2281.29 201.195 2279.67 201.195 L2279.67 199.621 L2285.44 199.343 L2285.44 202.982 Q2285.8 202.277 2286.29 201.687 Q2286.78 201.081 2287.49 200.539 Q2288.19 199.982 2289.18 199.67 Q2290.18 199.343 2291.33 199.343 Q2293.93 199.343 2295.21 200.474 Q2296.49 201.605 2296.49 204.179 L2296.49 212.885 L2298.82 212.885 L2298.82 214.459 Z" fill="#000000" fill-rule="nonzero" fill-opacity="1" /><polyline clip-path="url(#clip600)" style="stroke:#ac8d18; stroke-linecap:round; stroke-linejoin:round; stroke-width:6; stroke-opacity:1; fill:none" stroke-dasharray="3, 6" points="2134.28,248.629 2194.81,248.629 "/>
<path clip-path="url(#clip600)" d="M2232.25 254.563 L2223.75 254.844 L2223.75 251.12 Q2221.57 254.844 2216.84 254.844 Q2214.9 254.844 2213.45 254.587 Q2212.02 254.329 2210.75 253.697 Q2209.51 253.041 2208.85 251.776 Q2208.2 250.511 2208.2 248.661 L2208.2 237.488 Q2208.2 236.13 2207.71 235.872 Q2207.21 235.615 2204.9 235.615 L2204.9 233.366 L2213.68 232.968 L2213.68 249.34 Q2213.68 250.488 2213.75 251.073 Q2213.84 251.636 2214.19 252.198 Q2214.57 252.736 2215.37 252.947 Q2216.16 253.135 2217.52 253.135 Q2220.17 253.135 2221.81 251.354 Q2223.47 249.574 2223.47 246.647 L2223.47 237.488 Q2223.47 236.13 2222.95 235.872 Q2222.46 235.615 2220.14 235.615 L2220.14 233.366 L2228.93 232.968 L2228.93 250.441 Q2228.93 251.799 2229.42 252.057 Q2229.93 252.315 2232.25 252.315 L2232.25 254.563 Z" fill="#000000" fill-rule="nonzero" fill-opacity="1" /><path clip-path="url(#clip600)" d="M2266.98 263.888 L2262.75 263.789 L2258.52 263.888 L2258.52 262.314 L2260.84 262.314 L2260.84 253.247 Q2260.84 251.411 2260.36 250.706 Q2259.88 249.984 2258.95 249.984 Q2258.13 249.984 2257.28 250.312 Q2256.44 250.64 2255.67 251.263 Q2254.92 251.886 2254.42 252.935 Q2253.95 253.985 2253.95 255.296 L2253.95 262.314 L2256.28 262.314 L2256.28 263.888 L2252.05 263.789 L2247.8 263.888 L2247.8 262.314 L2250.13 262.314 L2250.13 253.247 Q2250.13 251.411 2249.65 250.706 Q2249.18 249.984 2248.24 249.984 Q2247.42 249.984 2246.57 250.312 Q2245.73 250.64 2244.96 251.263 Q2244.21 251.886 2243.72 252.935 Q2243.24 253.985 2243.24 255.296 L2243.24 262.314 L2245.55 262.314 L2245.55 263.888 L2241.32 263.789 L2237.09 263.888 L2237.09 262.314 L2239.41 262.314 L2239.41 251.935 Q2239.41 250.984 2239.06 250.804 Q2238.72 250.624 2237.09 250.624 L2237.09 249.05 L2242.87 248.771 L2242.87 252.411 Q2243.73 250.722 2245.21 249.755 Q2246.7 248.771 2248.78 248.771 Q2253.11 248.771 2253.82 252.001 Q2254.59 250.64 2256 249.705 Q2257.41 248.771 2259.49 248.771 Q2262.13 248.771 2263.39 249.919 Q2264.67 251.05 2264.67 253.608 L2264.67 262.314 L2266.98 262.314 L2266.98 263.888 Z" fill="#000000" fill-rule="nonzero" fill-opacity="1" /><path clip-path="url(#clip600)" d="M2287.01 263.084 Q2287.01 263.379 2286.94 263.56 Q2286.88 263.724 2286.7 263.789 Q2286.53 263.855 2286.39 263.871 Q2286.24 263.888 2285.93 263.888 L2284.32 263.888 Q2283.32 263.888 2282.62 263.707 Q2281.93 263.511 2281.58 263.281 Q2281.24 263.052 2281.06 262.642 Q2280.88 262.232 2280.84 261.986 Q2280.83 261.723 2280.83 261.297 Q2280.21 262.494 2278.94 263.297 Q2277.7 264.084 2275.83 264.084 Q2275.04 264.084 2274.25 264.002 Q2273.47 263.92 2272.55 263.675 Q2271.63 263.412 2270.94 263.019 Q2270.25 262.609 2269.79 261.904 Q2269.33 261.182 2269.33 260.264 Q2269.33 255.444 2280.25 254.985 L2280.25 253.854 Q2280.25 249.886 2276.57 249.886 Q2275.22 249.886 2274.14 250.115 Q2274.24 250.181 2274.38 250.345 Q2274.53 250.509 2274.7 250.919 Q2274.88 251.329 2274.88 251.771 Q2274.88 252.771 2274.24 253.329 Q2273.61 253.886 2272.76 253.886 Q2271.97 253.886 2271.32 253.345 Q2270.68 252.788 2270.68 251.771 Q2270.68 248.672 2276.7 248.672 Q2280.32 248.672 2282.19 250.099 Q2284.07 251.509 2284.07 253.854 L2284.07 261.068 Q2284.07 261.428 2284.11 261.592 Q2284.14 261.756 2284.32 261.953 Q2284.5 262.15 2284.93 262.232 Q2285.37 262.297 2286.12 262.314 Q2286.42 262.314 2286.57 262.346 Q2286.71 262.363 2286.86 262.543 Q2287.01 262.724 2287.01 263.084 M2280.25 259.215 L2280.25 256.034 Q2279.68 256.067 2279.14 256.133 Q2278.6 256.198 2277.71 256.362 Q2276.83 256.51 2276.11 256.821 Q2275.4 257.116 2274.71 257.559 Q2274.04 257.985 2273.65 258.674 Q2273.27 259.362 2273.27 260.231 Q2273.27 261.346 2274.16 262.117 Q2275.04 262.888 2276.32 262.888 Q2276.65 262.888 2277.06 262.822 Q2277.47 262.756 2278.06 262.527 Q2278.65 262.281 2279.11 261.904 Q2279.58 261.527 2279.91 260.838 Q2280.25 260.133 2280.25 259.215 Z" fill="#000000" fill-rule="nonzero" fill-opacity="1" /><path clip-path="url(#clip600)" d="M2306.01 263.888 L2302.32 263.789 L2298.28 263.888 L2298.28 262.314 L2299.6 262.314 L2295.91 257.952 L2292.64 261.609 L2292.41 261.937 Q2292.41 262.084 2292.79 262.199 Q2293.18 262.314 2293.64 262.314 L2293.64 263.888 L2290.18 263.789 L2287.1 263.888 L2287.1 262.314 Q2288.13 262.314 2288.61 262.297 Q2289.1 262.265 2289.66 262.117 Q2290.22 261.969 2290.5 261.674 L2294.89 256.739 L2289.66 250.558 L2287.27 250.558 L2287.27 248.984 L2290.97 249.082 L2295.02 248.984 L2295.02 250.558 L2293.68 250.558 L2296.97 254.411 L2299.79 251.263 Q2299.81 251.247 2300.07 250.853 Q2299.55 250.558 2298.79 250.558 L2298.79 248.984 L2302.25 249.082 L2305.33 248.984 L2305.33 250.558 Q2303.99 250.558 2303.28 250.656 Q2302.6 250.738 2302.38 250.853 Q2302.19 250.968 2301.91 251.263 L2297.99 255.624 L2303.63 262.314 L2306.01 262.314 L2306.01 263.888 Z" fill="#000000" fill-rule="nonzero" fill-opacity="1" /></svg>
