<?xml version="1.0" encoding="utf-8"?>
<svg xmlns="http://www.w3.org/2000/svg" xmlns:xlink="http://www.w3.org/1999/xlink" width="600" height="400" viewBox="0 0 2400 1600">
<defs>
  <clipPath id="clip660">
    <rect x="0" y="0" width="2400" height="1600"/>
  </clipPath>
</defs>
<path clip-path="url(#clip660)" d="M0 1600 L2400 1600 L2400 0 L0 0  Z" fill="#ffffff" fill-rule="evenodd" fill-opacity="1"/>
<defs>
  <clipPath id="clip661">
    <rect x="480" y="0" width="1681" height="1600"/>
  </clipPath>
</defs>
<path clip-path="url(#clip660)" d="M203.964 1423.18 L1110.81 1423.18 L1110.81 47.2441 L203.964 47.2441  Z" fill="#ffffff" fill-rule="evenodd" fill-opacity="1"/>
<defs>
  <clipPath id="clip662">
    <rect x="203" y="47" width="908" height="1377"/>
  </clipPath>
</defs>
<polyline clip-path="url(#clip662)" style="stroke:#000000; stroke-linecap:round; stroke-linejoin:round; stroke-width:2; stroke-opacity:0.1; fill:none" points="229.629,1423.18 229.629,47.2441 "/>
<polyline clip-path="url(#clip662)" style="stroke:#000000; stroke-linecap:round; stroke-linejoin:round; stroke-width:2; stroke-opacity:0.1; fill:none" points="481.252,1423.18 481.252,47.2441 "/>
<polyline clip-path="url(#clip662)" style="stroke:#000000; stroke-linecap:round; stroke-linejoin:round; stroke-width:2; stroke-opacity:0.1; fill:none" points="732.874,1423.18 732.874,47.2441 "/>
<polyline clip-path="url(#clip662)" style="stroke:#000000; stroke-linecap:round; stroke-linejoin:round; stroke-width:2; stroke-opacity:0.1; fill:none" points="984.497,1423.18 984.497,47.2441 "/>
<polyline clip-path="url(#clip660)" style="stroke:#000000; stroke-linecap:round; stroke-linejoin:round; stroke-width:4; stroke-opacity:1; fill:none" points="203.964,1423.18 1110.81,1423.18 "/>
<polyline clip-path="url(#clip660)" style="stroke:#000000; stroke-linecap:round; stroke-linejoin:round; stroke-width:4; stroke-opacity:1; fill:none" points="229.629,1423.18 229.629,1404.28 "/>
<polyline clip-path="url(#clip660)" style="stroke:#000000; stroke-linecap:round; stroke-linejoin:round; stroke-width:4; stroke-opacity:1; fill:none" points="481.252,1423.18 481.252,1404.28 "/>
<polyline clip-path="url(#clip660)" style="stroke:#000000; stroke-linecap:round; stroke-linejoin:round; stroke-width:4; stroke-opacity:1; fill:none" points="732.874,1423.18 732.874,1404.28 "/>
<polyline clip-path="url(#clip660)" style="stroke:#000000; stroke-linecap:round; stroke-linejoin:round; stroke-width:4; stroke-opacity:1; fill:none" points="984.497,1423.18 984.497,1404.28 "/>
<path clip-path="url(#clip660)" d="M229.629 1454.1 Q226.018 1454.1 224.189 1457.66 Q222.384 1461.2 222.384 1468.33 Q222.384 1475.44 224.189 1479.01 Q226.018 1482.55 229.629 1482.55 Q233.263 1482.55 235.069 1479.01 Q236.898 1475.44 236.898 1468.33 Q236.898 1461.2 235.069 1457.66 Q233.263 1454.1 229.629 1454.1 M229.629 1450.39 Q235.439 1450.39 238.495 1455 Q241.573 1459.58 241.573 1468.33 Q241.573 1477.06 238.495 1481.67 Q235.439 1486.25 229.629 1486.25 Q223.819 1486.25 220.74 1481.67 Q217.685 1477.06 217.685 1468.33 Q217.685 1459.58 220.74 1455 Q223.819 1450.39 229.629 1450.39 Z" fill="#000000" fill-rule="nonzero" fill-opacity="1" /><path clip-path="url(#clip660)" d="M471.634 1481.64 L479.273 1481.64 L479.273 1455.28 L470.962 1456.95 L470.962 1452.69 L479.226 1451.02 L483.902 1451.02 L483.902 1481.64 L491.541 1481.64 L491.541 1485.58 L471.634 1485.58 L471.634 1481.64 Z" fill="#000000" fill-rule="nonzero" fill-opacity="1" /><path clip-path="url(#clip660)" d="M727.527 1481.64 L743.847 1481.64 L743.847 1485.58 L721.902 1485.58 L721.902 1481.64 Q724.564 1478.89 729.148 1474.26 Q733.754 1469.61 734.935 1468.27 Q737.18 1465.74 738.06 1464.01 Q738.962 1462.25 738.962 1460.56 Q738.962 1457.8 737.018 1456.07 Q735.097 1454.33 731.995 1454.33 Q729.796 1454.33 727.342 1455.09 Q724.912 1455.86 722.134 1457.41 L722.134 1452.69 Q724.958 1451.55 727.411 1450.97 Q729.865 1450.39 731.902 1450.39 Q737.273 1450.39 740.467 1453.08 Q743.661 1455.77 743.661 1460.26 Q743.661 1462.39 742.851 1464.31 Q742.064 1466.2 739.958 1468.8 Q739.379 1469.47 736.277 1472.69 Q733.175 1475.88 727.527 1481.64 Z" fill="#000000" fill-rule="nonzero" fill-opacity="1" /><path clip-path="url(#clip660)" d="M988.745 1466.95 Q992.101 1467.66 993.976 1469.93 Q995.874 1472.2 995.874 1475.53 Q995.874 1480.65 992.356 1483.45 Q988.837 1486.25 982.356 1486.25 Q980.18 1486.25 977.865 1485.81 Q975.574 1485.39 973.12 1484.54 L973.12 1480.02 Q975.064 1481.16 977.379 1481.74 Q979.694 1482.32 982.217 1482.32 Q986.615 1482.32 988.907 1480.58 Q991.222 1478.84 991.222 1475.53 Q991.222 1472.48 989.069 1470.77 Q986.939 1469.03 983.12 1469.03 L979.092 1469.03 L979.092 1465.19 L983.305 1465.19 Q986.754 1465.19 988.583 1463.82 Q990.411 1462.43 990.411 1459.84 Q990.411 1457.18 988.513 1455.77 Q986.638 1454.33 983.12 1454.33 Q981.199 1454.33 978.999 1454.75 Q976.8 1455.16 974.162 1456.04 L974.162 1451.88 Q976.824 1451.14 979.138 1450.77 Q981.476 1450.39 983.536 1450.39 Q988.861 1450.39 991.962 1452.83 Q995.064 1455.23 995.064 1459.35 Q995.064 1462.22 993.421 1464.21 Q991.777 1466.18 988.745 1466.95 Z" fill="#000000" fill-rule="nonzero" fill-opacity="1" /><path clip-path="url(#clip660)" d="M527.559 1520.52 L567.758 1520.52 L567.758 1525.93 L550.889 1525.93 L550.889 1568.04 L544.428 1568.04 L544.428 1525.93 L527.559 1525.93 L527.559 1520.52 Z" fill="#000000" fill-rule="nonzero" fill-opacity="1" /><path clip-path="url(#clip660)" d="M571.705 1532.4 L577.562 1532.4 L577.562 1568.04 L571.705 1568.04 L571.705 1532.4 M571.705 1518.52 L577.562 1518.52 L577.562 1525.93 L571.705 1525.93 L571.705 1518.52 Z" fill="#000000" fill-rule="nonzero" fill-opacity="1" /><path clip-path="url(#clip660)" d="M617.57 1539.24 Q619.766 1535.29 622.822 1533.41 Q625.877 1531.54 630.015 1531.54 Q635.585 1531.54 638.609 1535.45 Q641.633 1539.33 641.633 1546.53 L641.633 1568.04 L635.744 1568.04 L635.744 1546.72 Q635.744 1541.59 633.93 1539.11 Q632.116 1536.63 628.392 1536.63 Q623.84 1536.63 621.199 1539.65 Q618.557 1542.68 618.557 1547.9 L618.557 1568.04 L612.669 1568.04 L612.669 1546.72 Q612.669 1541.56 610.854 1539.11 Q609.04 1536.63 605.252 1536.63 Q600.765 1536.63 598.123 1539.68 Q595.481 1542.71 595.481 1547.9 L595.481 1568.04 L589.593 1568.04 L589.593 1532.4 L595.481 1532.4 L595.481 1537.93 Q597.486 1534.66 600.287 1533.1 Q603.088 1531.54 606.939 1531.54 Q610.822 1531.54 613.528 1533.51 Q616.265 1535.48 617.57 1539.24 Z" fill="#000000" fill-rule="nonzero" fill-opacity="1" /><path clip-path="url(#clip660)" d="M683.805 1548.76 L683.805 1551.62 L656.878 1551.62 Q657.26 1557.67 660.507 1560.85 Q663.785 1564 669.61 1564 Q672.984 1564 676.135 1563.17 Q679.317 1562.35 682.437 1560.69 L682.437 1566.23 Q679.286 1567.57 675.975 1568.27 Q672.665 1568.97 669.26 1568.97 Q660.73 1568.97 655.733 1564 Q650.767 1559.04 650.767 1550.57 Q650.767 1541.82 655.478 1536.69 Q660.22 1531.54 668.241 1531.54 Q675.434 1531.54 679.604 1536.18 Q683.805 1540.8 683.805 1548.76 M677.949 1547.04 Q677.885 1542.23 675.243 1539.37 Q672.633 1536.5 668.305 1536.5 Q663.403 1536.5 660.443 1539.27 Q657.515 1542.04 657.069 1547.07 L677.949 1547.04 Z" fill="#000000" fill-rule="nonzero" fill-opacity="1" /><path clip-path="url(#clip660)" d="M728.206 1518.58 Q723.941 1525.9 721.872 1533.06 Q719.803 1540.23 719.803 1547.58 Q719.803 1554.93 721.872 1562.16 Q723.973 1569.35 728.206 1576.64 L723.114 1576.64 Q718.339 1569.16 715.952 1561.93 Q713.597 1554.71 713.597 1547.58 Q713.597 1540.48 715.952 1533.29 Q718.307 1526.09 723.114 1518.58 L728.206 1518.58 Z" fill="#000000" fill-rule="nonzero" fill-opacity="1" /><path clip-path="url(#clip660)" d="M762.294 1533.45 L762.294 1538.98 Q759.812 1537.71 757.138 1537.07 Q754.465 1536.44 751.6 1536.44 Q747.24 1536.44 745.043 1537.77 Q742.879 1539.11 742.879 1541.79 Q742.879 1543.82 744.439 1545 Q745.998 1546.15 750.709 1547.2 L752.714 1547.64 Q758.952 1548.98 761.562 1551.43 Q764.204 1553.85 764.204 1558.21 Q764.204 1563.17 760.257 1566.07 Q756.343 1568.97 749.468 1568.97 Q746.603 1568.97 743.484 1568.39 Q740.396 1567.85 736.959 1566.74 L736.959 1560.69 Q740.205 1562.38 743.356 1563.24 Q746.508 1564.07 749.595 1564.07 Q753.733 1564.07 755.961 1562.66 Q758.189 1561.23 758.189 1558.65 Q758.189 1556.27 756.565 1554.99 Q754.974 1553.72 749.531 1552.54 L747.494 1552.07 Q742.052 1550.92 739.633 1548.56 Q737.214 1546.18 737.214 1542.04 Q737.214 1537.01 740.778 1534.27 Q744.343 1531.54 750.9 1531.54 Q754.146 1531.54 757.011 1532.01 Q759.876 1532.49 762.294 1533.45 Z" fill="#000000" fill-rule="nonzero" fill-opacity="1" /><path clip-path="url(#clip660)" d="M772.607 1518.58 L777.699 1518.58 Q782.474 1526.09 784.829 1533.29 Q787.216 1540.48 787.216 1547.58 Q787.216 1554.71 784.829 1561.93 Q782.474 1569.16 777.699 1576.64 L772.607 1576.64 Q776.84 1569.35 778.909 1562.16 Q781.01 1554.93 781.01 1547.58 Q781.01 1540.23 778.909 1533.06 Q776.84 1525.9 772.607 1518.58 Z" fill="#000000" fill-rule="nonzero" fill-opacity="1" /><polyline clip-path="url(#clip662)" style="stroke:#000000; stroke-linecap:round; stroke-linejoin:round; stroke-width:2; stroke-opacity:0.1; fill:none" points="203.964,1384.24 1110.81,1384.24 "/>
<polyline clip-path="url(#clip662)" style="stroke:#000000; stroke-linecap:round; stroke-linejoin:round; stroke-width:2; stroke-opacity:0.1; fill:none" points="203.964,947.495 1110.81,947.495 "/>
<polyline clip-path="url(#clip662)" style="stroke:#000000; stroke-linecap:round; stroke-linejoin:round; stroke-width:2; stroke-opacity:0.1; fill:none" points="203.964,510.752 1110.81,510.752 "/>
<polyline clip-path="url(#clip662)" style="stroke:#000000; stroke-linecap:round; stroke-linejoin:round; stroke-width:2; stroke-opacity:0.1; fill:none" points="203.964,74.0095 1110.81,74.0095 "/>
<polyline clip-path="url(#clip660)" style="stroke:#000000; stroke-linecap:round; stroke-linejoin:round; stroke-width:4; stroke-opacity:1; fill:none" points="203.964,1423.18 203.964,47.2441 "/>
<polyline clip-path="url(#clip660)" style="stroke:#000000; stroke-linecap:round; stroke-linejoin:round; stroke-width:4; stroke-opacity:1; fill:none" points="203.964,1384.24 222.861,1384.24 "/>
<polyline clip-path="url(#clip660)" style="stroke:#000000; stroke-linecap:round; stroke-linejoin:round; stroke-width:4; stroke-opacity:1; fill:none" points="203.964,947.495 222.861,947.495 "/>
<polyline clip-path="url(#clip660)" style="stroke:#000000; stroke-linecap:round; stroke-linejoin:round; stroke-width:4; stroke-opacity:1; fill:none" points="203.964,510.752 222.861,510.752 "/>
<polyline clip-path="url(#clip660)" style="stroke:#000000; stroke-linecap:round; stroke-linejoin:round; stroke-width:4; stroke-opacity:1; fill:none" points="203.964,74.0095 222.861,74.0095 "/>
<path clip-path="url(#clip660)" d="M156.019 1370.04 Q152.408 1370.04 150.579 1373.6 Q148.774 1377.14 148.774 1384.27 Q148.774 1391.38 150.579 1394.94 Q152.408 1398.49 156.019 1398.49 Q159.653 1398.49 161.459 1394.94 Q163.288 1391.38 163.288 1384.27 Q163.288 1377.14 161.459 1373.6 Q159.653 1370.04 156.019 1370.04 M156.019 1366.33 Q161.829 1366.33 164.885 1370.94 Q167.964 1375.52 167.964 1384.27 Q167.964 1393 164.885 1397.61 Q161.829 1402.19 156.019 1402.19 Q150.209 1402.19 147.13 1397.61 Q144.075 1393 144.075 1384.27 Q144.075 1375.52 147.13 1370.94 Q150.209 1366.33 156.019 1366.33 Z" fill="#000000" fill-rule="nonzero" fill-opacity="1" /><path clip-path="url(#clip660)" d="M116.668 960.84 L124.306 960.84 L124.306 934.475 L115.996 936.141 L115.996 931.882 L124.26 930.215 L128.936 930.215 L128.936 960.84 L136.575 960.84 L136.575 964.775 L116.668 964.775 L116.668 960.84 Z" fill="#000000" fill-rule="nonzero" fill-opacity="1" /><path clip-path="url(#clip660)" d="M156.019 933.294 Q152.408 933.294 150.579 936.859 Q148.774 940.4 148.774 947.53 Q148.774 954.637 150.579 958.201 Q152.408 961.743 156.019 961.743 Q159.653 961.743 161.459 958.201 Q163.288 954.637 163.288 947.53 Q163.288 940.4 161.459 936.859 Q159.653 933.294 156.019 933.294 M156.019 929.59 Q161.829 929.59 164.885 934.197 Q167.964 938.78 167.964 947.53 Q167.964 956.257 164.885 960.863 Q161.829 965.447 156.019 965.447 Q150.209 965.447 147.13 960.863 Q144.075 956.257 144.075 947.53 Q144.075 938.78 147.13 934.197 Q150.209 929.59 156.019 929.59 Z" fill="#000000" fill-rule="nonzero" fill-opacity="1" /><path clip-path="url(#clip660)" d="M119.885 524.097 L136.204 524.097 L136.204 528.032 L114.26 528.032 L114.26 524.097 Q116.922 521.343 121.505 516.713 Q126.112 512.06 127.292 510.718 Q129.538 508.195 130.417 506.458 Q131.32 504.699 131.32 503.009 Q131.32 500.255 129.376 498.519 Q127.455 496.783 124.353 496.783 Q122.154 496.783 119.7 497.546 Q117.269 498.31 114.492 499.861 L114.492 495.139 Q117.316 494.005 119.769 493.426 Q122.223 492.847 124.26 492.847 Q129.63 492.847 132.825 495.533 Q136.019 498.218 136.019 502.708 Q136.019 504.838 135.209 506.759 Q134.422 508.658 132.316 511.25 Q131.737 511.921 128.635 515.139 Q125.533 518.333 119.885 524.097 Z" fill="#000000" fill-rule="nonzero" fill-opacity="1" /><path clip-path="url(#clip660)" d="M156.019 496.551 Q152.408 496.551 150.579 500.116 Q148.774 503.658 148.774 510.787 Q148.774 517.894 150.579 521.458 Q152.408 525 156.019 525 Q159.653 525 161.459 521.458 Q163.288 517.894 163.288 510.787 Q163.288 503.658 161.459 500.116 Q159.653 496.551 156.019 496.551 M156.019 492.847 Q161.829 492.847 164.885 497.454 Q167.964 502.037 167.964 510.787 Q167.964 519.514 164.885 524.12 Q161.829 528.704 156.019 528.704 Q150.209 528.704 147.13 524.12 Q144.075 519.514 144.075 510.787 Q144.075 502.037 147.13 497.454 Q150.209 492.847 156.019 492.847 Z" fill="#000000" fill-rule="nonzero" fill-opacity="1" /><path clip-path="url(#clip660)" d="M130.024 72.6554 Q133.38 73.3729 135.255 75.6414 Q137.154 77.91 137.154 81.2433 Q137.154 86.359 133.635 89.1599 Q130.117 91.9608 123.635 91.9608 Q121.459 91.9608 119.144 91.521 Q116.853 91.1043 114.399 90.2479 L114.399 85.734 Q116.343 86.8682 118.658 87.4469 Q120.973 88.0256 123.496 88.0256 Q127.894 88.0256 130.186 86.2895 Q132.501 84.5534 132.501 81.2433 Q132.501 78.1877 130.348 76.4748 Q128.218 74.7387 124.399 74.7387 L120.371 74.7387 L120.371 70.8961 L124.584 70.8961 Q128.033 70.8961 129.862 69.5304 Q131.691 68.1415 131.691 65.5489 Q131.691 62.8869 129.792 61.4749 Q127.917 60.0397 124.399 60.0397 Q122.478 60.0397 120.279 60.4563 Q118.08 60.873 115.441 61.7526 L115.441 57.586 Q118.103 56.8453 120.418 56.4749 Q122.755 56.1045 124.816 56.1045 Q130.14 56.1045 133.242 58.5351 Q136.343 60.9425 136.343 65.0628 Q136.343 67.9332 134.7 69.9239 Q133.056 71.8915 130.024 72.6554 Z" fill="#000000" fill-rule="nonzero" fill-opacity="1" /><path clip-path="url(#clip660)" d="M156.019 59.8082 Q152.408 59.8082 150.579 63.373 Q148.774 66.9146 148.774 74.0442 Q148.774 81.1507 150.579 84.7155 Q152.408 88.2571 156.019 88.2571 Q159.653 88.2571 161.459 84.7155 Q163.288 81.1507 163.288 74.0442 Q163.288 66.9146 161.459 63.373 Q159.653 59.8082 156.019 59.8082 M156.019 56.1045 Q161.829 56.1045 164.885 60.711 Q167.964 65.2943 167.964 74.0442 Q167.964 82.771 164.885 87.3775 Q161.829 91.9608 156.019 91.9608 Q150.209 91.9608 147.13 87.3775 Q144.075 82.771 144.075 74.0442 Q144.075 65.2943 147.13 60.711 Q150.209 56.1045 156.019 56.1045 Z" fill="#000000" fill-rule="nonzero" fill-opacity="1" /><path clip-path="url(#clip660)" d="M21.7178 734.435 Q22.1687 734.435 23.2315 734.724 L48.4165 741.037 Q54.0203 742.422 57.9494 746.93 Q61.8785 751.407 61.8785 756.496 Q61.8785 759.555 60.236 761.52 Q58.6257 763.484 56.1459 763.484 Q53.9559 763.484 52.8931 762.325 Q51.8625 761.165 51.8625 759.781 Q51.8625 759.33 51.9913 758.847 Q52.1201 758.364 52.6676 757.848 Q53.2151 757.333 54.1491 757.333 Q55.6628 757.333 56.8544 758.653 Q57.4019 759.298 57.5307 759.909 Q57.6596 760.489 57.6596 761.488 Q58.5613 761.101 59.1732 760.393 Q59.7851 759.684 60.0106 758.879 Q60.2682 758.074 60.3326 757.558 Q60.4293 757.011 60.4293 756.496 Q60.4293 752.373 56.2747 749.217 Q55.0187 748.283 53.7626 747.607 Q52.5388 746.898 51.0252 746.383 Q49.5437 745.868 48.7385 745.642 Q47.9334 745.385 46.0977 744.934 Q49.0928 747.929 49.0928 751.6 Q49.0928 753.146 48.6741 754.531 Q48.2554 755.884 47.3859 757.075 Q46.4841 758.267 44.906 758.975 Q43.3279 759.652 41.2346 759.652 Q39.0124 759.652 35.985 758.782 Q32.9577 757.913 27.386 755.819 Q24.2621 754.692 22.7484 754.692 Q22.0077 754.692 21.5568 754.853 Q21.0737 755.014 20.9127 755.336 Q20.7194 755.658 20.6872 755.852 Q20.655 756.013 20.655 756.335 Q20.655 758.235 22.5874 760.006 Q24.5197 761.777 28.8353 763.001 Q29.6405 763.259 29.8337 763.42 Q30.0269 763.581 30.0269 764.064 Q29.9947 764.869 29.3506 764.869 Q29.093 764.869 28.0946 764.579 Q27.064 764.289 25.5503 763.613 Q24.0044 762.905 22.6196 761.938 Q21.2025 760.972 20.2041 759.459 Q19.2058 757.913 19.2058 756.141 Q19.2058 753.726 20.7838 752.244 Q22.3297 750.731 24.6163 750.731 Q25.5503 750.731 26.3877 750.988 Q27.1928 751.214 29.3506 752.051 Q38.0462 755.433 42.2974 755.433 Q43.3279 755.433 44.1975 755.272 Q45.0349 755.079 45.8722 754.66 Q46.6774 754.241 47.1604 753.404 Q47.6113 752.534 47.6113 751.343 Q47.6113 749.829 46.9028 748.412 Q46.1621 746.963 45.1637 746.061 Q44.1653 745.127 43.3279 744.579 Q42.4584 744 42.0075 743.871 L30.1558 740.908 L24.874 739.588 Q22.0077 738.976 21.2991 738.686 Q20.6228 738.299 20.2686 737.623 Q19.9143 736.947 19.9143 736.367 Q19.9143 735.562 20.3974 735.014 Q20.8805 734.435 21.7178 734.435 Z" fill="#000000" fill-rule="nonzero" fill-opacity="1" /><path clip-path="url(#clip660)" d="M53.6652 727.689 L52.2224 727.689 Q52.2224 722.143 49.2691 719.28 Q49.2691 718.491 49.4494 718.355 Q49.6298 718.22 50.4639 718.22 L76.3671 718.22 Q77.7423 718.22 78.1706 717.544 Q78.599 716.867 78.599 713.914 L78.599 712.449 L80.0193 712.449 Q79.884 714.072 79.884 719.933 Q79.884 725.795 80.0193 727.395 L78.599 727.395 L78.599 725.93 Q78.599 723.022 78.1932 722.323 Q77.7648 721.624 76.3671 721.624 L52.4478 721.624 Q53.6652 724.036 53.6652 727.689 Z" fill="#000000" fill-rule="nonzero" fill-opacity="1" /><polyline clip-path="url(#clip662)" style="stroke:#009af9; stroke-linecap:round; stroke-linejoin:round; stroke-width:4; stroke-opacity:1; fill:none" points="229.629,1361.52 254.791,1281.29 279.954,1026.79 305.116,715.123 330.278,478.503 355.44,286.8 380.603,219.671 405.765,108.605 430.927,86.1857 456.089,124.947 481.252,195.94 506.414,234.111 531.576,246.285 556.739,259.631 581.901,265.703 607.063,237.075 632.225,327.991 657.388,320.917 682.55,333.196 707.712,291.732 732.874,276.475 758.037,269.526 783.199,287.246 808.361,252.399 833.524,304.16 858.686,303.664 883.848,266.959 909.01,302.978 934.173,293.978 959.335,270.463 984.497,304.609 1009.66,298.041 1034.82,255.234 1059.98,267.515 1085.15,275.934 "/>
<polyline clip-path="url(#clip662)" style="stroke:#e26f46; stroke-linecap:round; stroke-linejoin:round; stroke-width:3; stroke-opacity:1; fill:none" stroke-dasharray="12, 6, 2, 6" points="229.629,1384.24 254.791,1251.88 279.954,1050.87 305.116,728.792 330.278,433.762 355.44,286.373 380.603,173.002 405.765,192.564 430.927,106.461 456.089,120.868 481.252,185.572 506.414,264.846 531.576,285.762 556.739,276.259 581.901,277.052 607.063,273.704 632.225,231.668 657.388,348.575 682.55,321.055 707.712,330.154 732.874,274.384 758.037,264.1 783.199,263.55 808.361,290.858 833.524,245.61 858.686,316.817 883.848,307.265 909.01,257.595 934.173,309.226 959.335,293.013 984.497,263.552 1009.66,311.453 1034.82,297.945 1059.98,243.789 1085.15,268.548 "/>
<path clip-path="url(#clip660)" d="M961.069 1377.32 L1080.58 1377.32 L1080.58 1221.8 L961.069 1221.8  Z" fill="#ffffff" fill-rule="evenodd" fill-opacity="1"/>
<polyline clip-path="url(#clip660)" style="stroke:#000000; stroke-linecap:round; stroke-linejoin:round; stroke-width:4; stroke-opacity:1; fill:none" points="961.069,1377.32 1080.58,1377.32 1080.58,1221.8 961.069,1221.8 961.069,1377.32 "/>
<polyline clip-path="url(#clip660)" style="stroke:#009af9; stroke-linecap:round; stroke-linejoin:round; stroke-width:4; stroke-opacity:1; fill:none" points="971.145,1273.64 1031.6,1273.64 "/>
<path clip-path="url(#clip660)" d="M1068.45 1260.37 Q1066.97 1260.37 1066.22 1260.51 Q1065.48 1260.63 1065.29 1260.8 Q1065.1 1260.96 1064.89 1261.38 L1054.58 1283.3 Q1053.48 1285.65 1051.42 1287.33 Q1049.38 1289.02 1046.81 1289.02 Q1044.65 1289.02 1043.15 1287.71 Q1041.68 1286.42 1041.68 1284.59 Q1041.68 1283.28 1042.5 1282.53 Q1043.32 1281.81 1044.42 1281.81 Q1045.64 1281.81 1046.41 1282.58 Q1047.21 1283.35 1047.21 1284.55 Q1047.21 1285.32 1046.88 1285.9 Q1046.55 1286.51 1046.25 1286.72 Q1045.96 1286.96 1045.66 1287.1 Q1046.15 1287.29 1046.81 1287.29 Q1047.79 1287.29 1048.63 1286.89 Q1049.5 1286.51 1050.06 1286 Q1050.65 1285.51 1051.23 1284.62 Q1051.82 1283.75 1052.1 1283.19 Q1052.38 1282.65 1052.8 1281.71 L1053.9 1279.42 L1044.93 1260.37 L1041.87 1260.37 L1041.87 1258.13 L1047.35 1258.27 L1053.3 1258.13 L1053.3 1260.37 L1050.7 1260.37 L1056.79 1273.33 L1062.31 1261.52 L1062.55 1260.96 Q1062.55 1260.7 1061.99 1260.56 Q1061.42 1260.4 1060.86 1260.4 L1060.3 1260.37 L1060.3 1258.13 L1064.66 1258.27 Q1066.72 1258.27 1068.45 1258.13 L1068.45 1260.37 Z" fill="#000000" fill-rule="nonzero" fill-opacity="1" /><polyline clip-path="url(#clip660)" style="stroke:#e26f46; stroke-linecap:round; stroke-linejoin:round; stroke-width:3; stroke-opacity:1; fill:none" stroke-dasharray="12, 6, 2, 6" points="971.145,1325.48 1031.6,1325.48 "/>
<path clip-path="url(#clip660)" d="M1064.26 1309.2 L1063.85 1309.87 Q1061.31 1308.77 1058.15 1307.01 Q1054.98 1308.77 1052.44 1309.87 L1052.05 1309.2 Q1054.82 1306.79 1058.15 1304.93 Q1061.51 1306.8 1064.26 1309.2 Z" fill="#000000" fill-rule="nonzero" fill-opacity="1" /><path clip-path="url(#clip660)" d="M1068.45 1317.22 Q1066.97 1317.22 1066.22 1317.36 Q1065.48 1317.48 1065.29 1317.64 Q1065.1 1317.8 1064.89 1318.23 L1054.58 1340.15 Q1053.48 1342.49 1051.42 1344.18 Q1049.38 1345.86 1046.81 1345.86 Q1044.65 1345.86 1043.15 1344.55 Q1041.68 1343.26 1041.68 1341.44 Q1041.68 1340.13 1042.5 1339.38 Q1043.32 1338.65 1044.42 1338.65 Q1045.64 1338.65 1046.41 1339.42 Q1047.21 1340.2 1047.21 1341.39 Q1047.21 1342.16 1046.88 1342.75 Q1046.55 1343.36 1046.25 1343.57 Q1045.96 1343.8 1045.66 1343.94 Q1046.15 1344.13 1046.81 1344.13 Q1047.79 1344.13 1048.63 1343.73 Q1049.5 1343.36 1050.06 1342.84 Q1050.65 1342.35 1051.23 1341.46 Q1051.82 1340.59 1052.1 1340.03 Q1052.38 1339.49 1052.8 1338.56 L1053.9 1336.26 L1044.93 1317.22 L1041.87 1317.22 L1041.87 1314.97 L1047.35 1315.11 L1053.3 1314.97 L1053.3 1317.22 L1050.7 1317.22 L1056.79 1330.17 L1062.31 1318.37 L1062.55 1317.8 Q1062.55 1317.55 1061.99 1317.41 Q1061.42 1317.24 1060.86 1317.24 L1060.3 1317.22 L1060.3 1314.97 L1064.66 1315.11 Q1066.72 1315.11 1068.45 1314.97 L1068.45 1317.22 Z" fill="#000000" fill-rule="nonzero" fill-opacity="1" /><path clip-path="url(#clip660)" d="M1445.91 398.692 L2352.76 398.692 L2352.76 47.2441 L1445.91 47.2441  Z" fill="#ffffff" fill-rule="evenodd" fill-opacity="1"/>
<defs>
  <clipPath id="clip663">
    <rect x="1445" y="47" width="908" height="352"/>
  </clipPath>
</defs>
<polyline clip-path="url(#clip663)" style="stroke:#000000; stroke-linecap:round; stroke-linejoin:round; stroke-width:2; stroke-opacity:0.1; fill:none" points="1471.57,398.692 1471.57,47.2441 "/>
<polyline clip-path="url(#clip663)" style="stroke:#000000; stroke-linecap:round; stroke-linejoin:round; stroke-width:2; stroke-opacity:0.1; fill:none" points="1723.2,398.692 1723.2,47.2441 "/>
<polyline clip-path="url(#clip663)" style="stroke:#000000; stroke-linecap:round; stroke-linejoin:round; stroke-width:2; stroke-opacity:0.1; fill:none" points="1974.82,398.692 1974.82,47.2441 "/>
<polyline clip-path="url(#clip663)" style="stroke:#000000; stroke-linecap:round; stroke-linejoin:round; stroke-width:2; stroke-opacity:0.1; fill:none" points="2226.44,398.692 2226.44,47.2441 "/>
<polyline clip-path="url(#clip660)" style="stroke:#000000; stroke-linecap:round; stroke-linejoin:round; stroke-width:4; stroke-opacity:1; fill:none" points="1445.91,398.692 2352.76,398.692 "/>
<polyline clip-path="url(#clip660)" style="stroke:#000000; stroke-linecap:round; stroke-linejoin:round; stroke-width:4; stroke-opacity:1; fill:none" points="1471.57,398.692 1471.57,379.794 "/>
<polyline clip-path="url(#clip660)" style="stroke:#000000; stroke-linecap:round; stroke-linejoin:round; stroke-width:4; stroke-opacity:1; fill:none" points="1723.2,398.692 1723.2,379.794 "/>
<polyline clip-path="url(#clip660)" style="stroke:#000000; stroke-linecap:round; stroke-linejoin:round; stroke-width:4; stroke-opacity:1; fill:none" points="1974.82,398.692 1974.82,379.794 "/>
<polyline clip-path="url(#clip660)" style="stroke:#000000; stroke-linecap:round; stroke-linejoin:round; stroke-width:4; stroke-opacity:1; fill:none" points="2226.44,398.692 2226.44,379.794 "/>
<path clip-path="url(#clip660)" d="M1471.57 429.611 Q1467.96 429.611 1466.13 433.175 Q1464.33 436.717 1464.33 443.847 Q1464.33 450.953 1466.13 454.518 Q1467.96 458.059 1471.57 458.059 Q1475.21 458.059 1477.01 454.518 Q1478.84 450.953 1478.84 443.847 Q1478.84 436.717 1477.01 433.175 Q1475.21 429.611 1471.57 429.611 M1471.57 425.907 Q1477.38 425.907 1480.44 430.513 Q1483.52 435.097 1483.52 443.847 Q1483.52 452.573 1480.44 457.18 Q1477.38 461.763 1471.57 461.763 Q1465.76 461.763 1462.68 457.18 Q1459.63 452.573 1459.63 443.847 Q1459.63 435.097 1462.68 430.513 Q1465.76 425.907 1471.57 425.907 Z" fill="#000000" fill-rule="nonzero" fill-opacity="1" /><path clip-path="url(#clip660)" d="M1713.58 457.157 L1721.22 457.157 L1721.22 430.791 L1712.91 432.458 L1712.91 428.199 L1721.17 426.532 L1725.85 426.532 L1725.85 457.157 L1733.49 457.157 L1733.49 461.092 L1713.58 461.092 L1713.58 457.157 Z" fill="#000000" fill-rule="nonzero" fill-opacity="1" /><path clip-path="url(#clip660)" d="M1969.47 457.157 L1985.79 457.157 L1985.79 461.092 L1963.85 461.092 L1963.85 457.157 Q1966.51 454.402 1971.09 449.772 Q1975.7 445.12 1976.88 443.777 Q1979.12 441.254 1980 439.518 Q1980.91 437.759 1980.91 436.069 Q1980.91 433.314 1978.96 431.578 Q1977.04 429.842 1973.94 429.842 Q1971.74 429.842 1969.29 430.606 Q1966.86 431.37 1964.08 432.921 L1964.08 428.199 Q1966.9 427.064 1969.36 426.486 Q1971.81 425.907 1973.85 425.907 Q1979.22 425.907 1982.41 428.592 Q1985.61 431.277 1985.61 435.768 Q1985.61 437.898 1984.8 439.819 Q1984.01 441.717 1981.9 444.31 Q1981.32 444.981 1978.22 448.198 Q1975.12 451.393 1969.47 457.157 Z" fill="#000000" fill-rule="nonzero" fill-opacity="1" /><path clip-path="url(#clip660)" d="M2230.69 442.458 Q2234.05 443.175 2235.92 445.444 Q2237.82 447.712 2237.82 451.046 Q2237.82 456.161 2234.3 458.962 Q2230.78 461.763 2224.3 461.763 Q2222.12 461.763 2219.81 461.323 Q2217.52 460.907 2215.06 460.05 L2215.06 455.536 Q2217.01 456.671 2219.32 457.249 Q2221.64 457.828 2224.16 457.828 Q2228.56 457.828 2230.85 456.092 Q2233.17 454.356 2233.17 451.046 Q2233.17 447.99 2231.01 446.277 Q2228.88 444.541 2225.06 444.541 L2221.04 444.541 L2221.04 440.698 L2225.25 440.698 Q2228.7 440.698 2230.53 439.333 Q2232.36 437.944 2232.36 435.351 Q2232.36 432.689 2230.46 431.277 Q2228.58 429.842 2225.06 429.842 Q2223.14 429.842 2220.94 430.259 Q2218.74 430.675 2216.11 431.555 L2216.11 427.388 Q2218.77 426.648 2221.08 426.277 Q2223.42 425.907 2225.48 425.907 Q2230.8 425.907 2233.91 428.337 Q2237.01 430.745 2237.01 434.865 Q2237.01 437.736 2235.36 439.726 Q2233.72 441.694 2230.69 442.458 Z" fill="#000000" fill-rule="nonzero" fill-opacity="1" /><polyline clip-path="url(#clip663)" style="stroke:#000000; stroke-linecap:round; stroke-linejoin:round; stroke-width:2; stroke-opacity:0.1; fill:none" points="1445.91,388.745 2352.76,388.745 "/>
<polyline clip-path="url(#clip663)" style="stroke:#000000; stroke-linecap:round; stroke-linejoin:round; stroke-width:2; stroke-opacity:0.1; fill:none" points="1445.91,323.815 2352.76,323.815 "/>
<polyline clip-path="url(#clip663)" style="stroke:#000000; stroke-linecap:round; stroke-linejoin:round; stroke-width:2; stroke-opacity:0.1; fill:none" points="1445.91,258.884 2352.76,258.884 "/>
<polyline clip-path="url(#clip663)" style="stroke:#000000; stroke-linecap:round; stroke-linejoin:round; stroke-width:2; stroke-opacity:0.1; fill:none" points="1445.91,193.954 2352.76,193.954 "/>
<polyline clip-path="url(#clip663)" style="stroke:#000000; stroke-linecap:round; stroke-linejoin:round; stroke-width:2; stroke-opacity:0.1; fill:none" points="1445.91,129.023 2352.76,129.023 "/>
<polyline clip-path="url(#clip663)" style="stroke:#000000; stroke-linecap:round; stroke-linejoin:round; stroke-width:2; stroke-opacity:0.1; fill:none" points="1445.91,64.093 2352.76,64.093 "/>
<polyline clip-path="url(#clip660)" style="stroke:#000000; stroke-linecap:round; stroke-linejoin:round; stroke-width:4; stroke-opacity:1; fill:none" points="1445.91,398.692 1445.91,47.2441 "/>
<polyline clip-path="url(#clip660)" style="stroke:#000000; stroke-linecap:round; stroke-linejoin:round; stroke-width:4; stroke-opacity:1; fill:none" points="1445.91,388.745 1464.81,388.745 "/>
<polyline clip-path="url(#clip660)" style="stroke:#000000; stroke-linecap:round; stroke-linejoin:round; stroke-width:4; stroke-opacity:1; fill:none" points="1445.91,323.815 1464.81,323.815 "/>
<polyline clip-path="url(#clip660)" style="stroke:#000000; stroke-linecap:round; stroke-linejoin:round; stroke-width:4; stroke-opacity:1; fill:none" points="1445.91,258.884 1464.81,258.884 "/>
<polyline clip-path="url(#clip660)" style="stroke:#000000; stroke-linecap:round; stroke-linejoin:round; stroke-width:4; stroke-opacity:1; fill:none" points="1445.91,193.954 1464.81,193.954 "/>
<polyline clip-path="url(#clip660)" style="stroke:#000000; stroke-linecap:round; stroke-linejoin:round; stroke-width:4; stroke-opacity:1; fill:none" points="1445.91,129.023 1464.81,129.023 "/>
<polyline clip-path="url(#clip660)" style="stroke:#000000; stroke-linecap:round; stroke-linejoin:round; stroke-width:4; stroke-opacity:1; fill:none" points="1445.91,64.093 1464.81,64.093 "/>
<path clip-path="url(#clip660)" d="M1352.73 374.544 Q1349.12 374.544 1347.29 378.109 Q1345.49 381.65 1345.49 388.78 Q1345.49 395.886 1347.29 399.451 Q1349.12 402.993 1352.73 402.993 Q1356.37 402.993 1358.17 399.451 Q1360 395.886 1360 388.78 Q1360 381.65 1358.17 378.109 Q1356.37 374.544 1352.73 374.544 M1352.73 370.84 Q1358.54 370.84 1361.6 375.447 Q1364.68 380.03 1364.68 388.78 Q1364.68 397.507 1361.6 402.113 Q1358.54 406.697 1352.73 406.697 Q1346.92 406.697 1343.84 402.113 Q1340.79 397.507 1340.79 388.78 Q1340.79 380.03 1343.84 375.447 Q1346.92 370.84 1352.73 370.84 Z" fill="#000000" fill-rule="nonzero" fill-opacity="1" /><path clip-path="url(#clip660)" d="M1372.89 400.146 L1377.78 400.146 L1377.78 406.025 L1372.89 406.025 L1372.89 400.146 Z" fill="#000000" fill-rule="nonzero" fill-opacity="1" /><path clip-path="url(#clip660)" d="M1397.96 374.544 Q1394.35 374.544 1392.52 378.109 Q1390.72 381.65 1390.72 388.78 Q1390.72 395.886 1392.52 399.451 Q1394.35 402.993 1397.96 402.993 Q1401.6 402.993 1403.4 399.451 Q1405.23 395.886 1405.23 388.78 Q1405.23 381.65 1403.4 378.109 Q1401.6 374.544 1397.96 374.544 M1397.96 370.84 Q1403.77 370.84 1406.83 375.447 Q1409.91 380.03 1409.91 388.78 Q1409.91 397.507 1406.83 402.113 Q1403.77 406.697 1397.96 406.697 Q1392.15 406.697 1389.07 402.113 Q1386.02 397.507 1386.02 388.78 Q1386.02 380.03 1389.07 375.447 Q1392.15 370.84 1397.96 370.84 Z" fill="#000000" fill-rule="nonzero" fill-opacity="1" /><path clip-path="url(#clip660)" d="M1353.96 309.613 Q1350.35 309.613 1348.52 313.178 Q1346.71 316.72 1346.71 323.85 Q1346.71 330.956 1348.52 334.521 Q1350.35 338.062 1353.96 338.062 Q1357.59 338.062 1359.4 334.521 Q1361.23 330.956 1361.23 323.85 Q1361.23 316.72 1359.4 313.178 Q1357.59 309.613 1353.96 309.613 M1353.96 305.91 Q1359.77 305.91 1362.82 310.516 Q1365.9 315.1 1365.9 323.85 Q1365.9 332.576 1362.82 337.183 Q1359.77 341.766 1353.96 341.766 Q1348.15 341.766 1345.07 337.183 Q1342.01 332.576 1342.01 323.85 Q1342.01 315.1 1345.07 310.516 Q1348.15 305.91 1353.96 305.91 Z" fill="#000000" fill-rule="nonzero" fill-opacity="1" /><path clip-path="url(#clip660)" d="M1374.12 335.215 L1379.01 335.215 L1379.01 341.095 L1374.12 341.095 L1374.12 335.215 Z" fill="#000000" fill-rule="nonzero" fill-opacity="1" /><path clip-path="url(#clip660)" d="M1390 337.16 L1397.64 337.16 L1397.64 310.794 L1389.33 312.461 L1389.33 308.201 L1397.59 306.535 L1402.27 306.535 L1402.27 337.16 L1409.91 337.16 L1409.91 341.095 L1390 341.095 L1390 337.16 Z" fill="#000000" fill-rule="nonzero" fill-opacity="1" /><path clip-path="url(#clip660)" d="M1354.33 244.683 Q1350.72 244.683 1348.89 248.248 Q1347.08 251.789 1347.08 258.919 Q1347.08 266.026 1348.89 269.59 Q1350.72 273.132 1354.33 273.132 Q1357.96 273.132 1359.77 269.59 Q1361.6 266.026 1361.6 258.919 Q1361.6 251.789 1359.77 248.248 Q1357.96 244.683 1354.33 244.683 M1354.33 240.979 Q1360.14 240.979 1363.2 245.586 Q1366.27 250.169 1366.27 258.919 Q1366.27 267.646 1363.2 272.252 Q1360.14 276.836 1354.33 276.836 Q1348.52 276.836 1345.44 272.252 Q1342.39 267.646 1342.39 258.919 Q1342.39 250.169 1345.44 245.586 Q1348.52 240.979 1354.33 240.979 Z" fill="#000000" fill-rule="nonzero" fill-opacity="1" /><path clip-path="url(#clip660)" d="M1374.49 270.285 L1379.38 270.285 L1379.38 276.164 L1374.49 276.164 L1374.49 270.285 Z" fill="#000000" fill-rule="nonzero" fill-opacity="1" /><path clip-path="url(#clip660)" d="M1393.59 272.229 L1409.91 272.229 L1409.91 276.164 L1387.96 276.164 L1387.96 272.229 Q1390.63 269.475 1395.21 264.845 Q1399.82 260.192 1401 258.85 Q1403.24 256.326 1404.12 254.59 Q1405.02 252.831 1405.02 251.141 Q1405.02 248.387 1403.08 246.651 Q1401.16 244.915 1398.06 244.915 Q1395.86 244.915 1393.4 245.678 Q1390.97 246.442 1388.19 247.993 L1388.19 243.271 Q1391.02 242.137 1393.47 241.558 Q1395.93 240.979 1397.96 240.979 Q1403.33 240.979 1406.53 243.665 Q1409.72 246.35 1409.72 250.84 Q1409.72 252.97 1408.91 254.891 Q1408.13 256.789 1406.02 259.382 Q1405.44 260.053 1402.34 263.271 Q1399.24 266.465 1393.59 272.229 Z" fill="#000000" fill-rule="nonzero" fill-opacity="1" /><path clip-path="url(#clip660)" d="M1353.38 179.753 Q1349.77 179.753 1347.94 183.317 Q1346.13 186.859 1346.13 193.989 Q1346.13 201.095 1347.94 204.66 Q1349.77 208.201 1353.38 208.201 Q1357.01 208.201 1358.82 204.66 Q1360.65 201.095 1360.65 193.989 Q1360.65 186.859 1358.82 183.317 Q1357.01 179.753 1353.38 179.753 M1353.38 176.049 Q1359.19 176.049 1362.25 180.655 Q1365.32 185.239 1365.32 193.989 Q1365.32 202.715 1362.25 207.322 Q1359.19 211.905 1353.38 211.905 Q1347.57 211.905 1344.49 207.322 Q1341.44 202.715 1341.44 193.989 Q1341.44 185.239 1344.49 180.655 Q1347.57 176.049 1353.38 176.049 Z" fill="#000000" fill-rule="nonzero" fill-opacity="1" /><path clip-path="url(#clip660)" d="M1373.54 205.354 L1378.43 205.354 L1378.43 211.234 L1373.54 211.234 L1373.54 205.354 Z" fill="#000000" fill-rule="nonzero" fill-opacity="1" /><path clip-path="url(#clip660)" d="M1402.78 192.6 Q1406.13 193.317 1408.01 195.586 Q1409.91 197.854 1409.91 201.188 Q1409.91 206.303 1406.39 209.104 Q1402.87 211.905 1396.39 211.905 Q1394.21 211.905 1391.9 211.465 Q1389.61 211.049 1387.15 210.192 L1387.15 205.678 Q1389.1 206.813 1391.41 207.391 Q1393.73 207.97 1396.25 207.97 Q1400.65 207.97 1402.94 206.234 Q1405.26 204.498 1405.26 201.188 Q1405.26 198.132 1403.1 196.419 Q1400.97 194.683 1397.15 194.683 L1393.13 194.683 L1393.13 190.84 L1397.34 190.84 Q1400.79 190.84 1402.62 189.475 Q1404.44 188.086 1404.44 185.493 Q1404.44 182.831 1402.55 181.419 Q1400.67 179.984 1397.15 179.984 Q1395.23 179.984 1393.03 180.401 Q1390.83 180.817 1388.19 181.697 L1388.19 177.53 Q1390.86 176.79 1393.17 176.419 Q1395.51 176.049 1397.57 176.049 Q1402.89 176.049 1406 178.479 Q1409.1 180.887 1409.1 185.007 Q1409.1 187.878 1407.45 189.868 Q1405.81 191.836 1402.78 192.6 Z" fill="#000000" fill-rule="nonzero" fill-opacity="1" /><path clip-path="url(#clip660)" d="M1352.25 114.822 Q1348.63 114.822 1346.81 118.387 Q1345 121.929 1345 129.058 Q1345 136.165 1346.81 139.729 Q1348.63 143.271 1352.25 143.271 Q1355.88 143.271 1357.69 139.729 Q1359.51 136.165 1359.51 129.058 Q1359.51 121.929 1357.69 118.387 Q1355.88 114.822 1352.25 114.822 M1352.25 111.118 Q1358.06 111.118 1361.11 115.725 Q1364.19 120.308 1364.19 129.058 Q1364.19 137.785 1361.11 142.391 Q1358.06 146.975 1352.25 146.975 Q1346.44 146.975 1343.36 142.391 Q1340.3 137.785 1340.3 129.058 Q1340.3 120.308 1343.36 115.725 Q1346.44 111.118 1352.25 111.118 Z" fill="#000000" fill-rule="nonzero" fill-opacity="1" /><path clip-path="url(#clip660)" d="M1372.41 140.424 L1377.29 140.424 L1377.29 146.303 L1372.41 146.303 L1372.41 140.424 Z" fill="#000000" fill-rule="nonzero" fill-opacity="1" /><path clip-path="url(#clip660)" d="M1400.32 115.817 L1388.52 134.266 L1400.32 134.266 L1400.32 115.817 M1399.1 111.743 L1404.98 111.743 L1404.98 134.266 L1409.91 134.266 L1409.91 138.155 L1404.98 138.155 L1404.98 146.303 L1400.32 146.303 L1400.32 138.155 L1384.72 138.155 L1384.72 133.641 L1399.1 111.743 Z" fill="#000000" fill-rule="nonzero" fill-opacity="1" /><path clip-path="url(#clip660)" d="M1353.73 49.8917 Q1350.12 49.8917 1348.29 53.4565 Q1346.48 56.9981 1346.48 64.1277 Q1346.48 71.2342 1348.29 74.799 Q1350.12 78.3406 1353.73 78.3406 Q1357.36 78.3406 1359.17 74.799 Q1361 71.2342 1361 64.1277 Q1361 56.9981 1359.17 53.4565 Q1357.36 49.8917 1353.73 49.8917 M1353.73 46.188 Q1359.54 46.188 1362.59 50.7945 Q1365.67 55.3778 1365.67 64.1277 Q1365.67 72.8545 1362.59 77.461 Q1359.54 82.0443 1353.73 82.0443 Q1347.92 82.0443 1344.84 77.461 Q1341.78 72.8545 1341.78 64.1277 Q1341.78 55.3778 1344.84 50.7945 Q1347.92 46.188 1353.73 46.188 Z" fill="#000000" fill-rule="nonzero" fill-opacity="1" /><path clip-path="url(#clip660)" d="M1373.89 75.4934 L1378.77 75.4934 L1378.77 81.373 L1373.89 81.373 L1373.89 75.4934 Z" fill="#000000" fill-rule="nonzero" fill-opacity="1" /><path clip-path="url(#clip660)" d="M1389.01 46.813 L1407.36 46.813 L1407.36 50.7482 L1393.29 50.7482 L1393.29 59.2203 Q1394.31 58.8731 1395.32 58.7111 Q1396.34 58.5259 1397.36 58.5259 Q1403.15 58.5259 1406.53 61.6972 Q1409.91 64.8685 1409.91 70.2851 Q1409.91 75.8638 1406.44 78.9656 Q1402.96 82.0443 1396.64 82.0443 Q1394.47 82.0443 1392.2 81.6739 Q1389.95 81.3036 1387.55 80.5628 L1387.55 75.8638 Q1389.63 76.998 1391.85 77.5536 Q1394.07 78.1091 1396.55 78.1091 Q1400.56 78.1091 1402.89 76.0027 Q1405.23 73.8962 1405.23 70.2851 Q1405.23 66.674 1402.89 64.5675 Q1400.56 62.4611 1396.55 62.4611 Q1394.68 62.4611 1392.8 62.8777 Q1390.95 63.2944 1389.01 64.174 L1389.01 46.813 Z" fill="#000000" fill-rule="nonzero" fill-opacity="1" /><path clip-path="url(#clip660)" d="M1255.92 220.971 Q1257.73 220.971 1258.76 222.098 Q1259.76 223.225 1259.76 224.513 Q1259.76 225.737 1259.05 226.381 Q1258.34 227.025 1257.44 227.025 Q1256.21 227.025 1255.15 226.123 Q1254.09 225.222 1253.86 223.869 Q1253.02 225.189 1253.02 227.154 Q1253.02 228.442 1253.7 229.569 Q1254.38 230.664 1255.25 231.341 Q1256.12 231.985 1257.37 232.565 Q1258.6 233.112 1259.34 233.338 Q1260.05 233.531 1260.82 233.692 L1269.84 235.946 Q1274.12 237.041 1275.63 237.041 Q1277.5 237.041 1278.76 236.139 Q1279.98 235.238 1279.98 233.434 Q1279.98 232.726 1279.79 231.92 Q1279.56 231.115 1278.98 230.085 Q1278.37 229.022 1277.47 228.088 Q1276.53 227.122 1274.96 226.188 Q1273.38 225.254 1271.35 224.642 Q1270.64 224.449 1270.64 223.805 Q1270.64 222.999 1271.29 222.999 Q1271.83 222.999 1272.99 223.45 Q1274.12 223.869 1275.6 224.803 Q1277.05 225.705 1278.37 226.896 Q1279.66 228.088 1280.56 229.859 Q1281.46 231.631 1281.46 233.563 Q1281.46 236.333 1279.98 238.168 Q1278.5 240.004 1276.44 240.68 Q1276.73 240.842 1277.11 241.067 Q1277.5 241.292 1278.37 241.969 Q1279.21 242.613 1279.85 243.354 Q1280.46 244.094 1280.95 245.254 Q1281.46 246.381 1281.46 247.605 Q1281.46 249.151 1281.01 250.535 Q1280.56 251.888 1279.53 252.854 Q1278.5 253.82 1277.08 253.82 Q1275.5 253.82 1274.41 252.758 Q1273.28 251.663 1273.28 250.181 Q1273.28 249.247 1273.83 248.507 Q1274.38 247.734 1275.57 247.734 Q1276.89 247.734 1277.89 248.635 Q1278.89 249.537 1279.14 250.825 Q1279.98 249.505 1279.98 247.54 Q1279.98 245.415 1278.11 243.74 Q1276.25 242.065 1273.12 241.26 Q1265.62 239.263 1262.27 238.49 Q1258.89 237.718 1257.44 237.718 Q1256.08 237.718 1255.15 238.072 Q1254.22 238.426 1253.8 239.038 Q1253.35 239.618 1253.19 240.165 Q1253.02 240.68 1253.02 241.26 Q1253.02 242.226 1253.41 243.321 Q1253.8 244.384 1254.7 245.672 Q1255.57 246.928 1257.37 248.12 Q1259.18 249.312 1261.66 250.117 Q1262.4 250.278 1262.4 250.986 Q1262.36 251.759 1261.72 251.759 Q1261.17 251.759 1260.05 251.341 Q1258.89 250.89 1257.44 249.988 Q1255.99 249.054 1254.7 247.862 Q1253.38 246.639 1252.48 244.867 Q1251.58 243.064 1251.58 241.131 Q1251.58 240.262 1251.77 239.424 Q1251.93 238.555 1252.41 237.524 Q1252.9 236.462 1253.96 235.528 Q1255.02 234.594 1256.57 234.014 Q1255.83 233.627 1255.12 233.112 Q1254.41 232.565 1253.54 231.727 Q1252.64 230.858 1252.12 229.666 Q1251.58 228.442 1251.58 227.09 Q1251.58 225.769 1251.93 224.481 Q1252.25 223.193 1253.31 222.098 Q1254.35 220.971 1255.92 220.971 Z" fill="#000000" fill-rule="nonzero" fill-opacity="1" /><path clip-path="url(#clip660)" d="M1273.38 214.249 L1271.94 214.249 Q1271.94 208.703 1268.98 205.84 Q1268.98 205.051 1269.16 204.916 Q1269.34 204.781 1270.18 204.781 L1296.08 204.781 Q1297.46 204.781 1297.88 204.104 Q1298.31 203.428 1298.31 200.475 L1298.31 199.009 L1299.73 199.009 Q1299.6 200.633 1299.6 206.494 Q1299.6 212.356 1299.73 213.956 L1298.31 213.956 L1298.31 212.491 Q1298.31 209.583 1297.91 208.884 Q1297.48 208.185 1296.08 208.185 L1272.16 208.185 Q1273.38 210.597 1273.38 214.249 Z" fill="#000000" fill-rule="nonzero" fill-opacity="1" /><polyline clip-path="url(#clip663)" style="stroke:#009af9; stroke-linecap:round; stroke-linejoin:round; stroke-width:4; stroke-opacity:1; fill:none" points="1471.57,388.745 1496.74,360.549 1521.9,296.588 1547.06,222.934 1572.22,157.02 1597.38,107.683 1622.55,77.0331 1647.71,62.9434 1672.87,61.2606 1698.03,67.3848 1723.2,77.2258 1748.36,87.6733 1773.52,96.7257 1798.68,103.393 1823.85,107.474 1849.01,109.286 1874.17,109.409 1899.33,108.487 1924.49,107.089 1949.66,105.642 1974.82,104.415 1999.98,103.531 2025.14,103.007 2050.31,102.792 2075.47,102.8 2100.63,102.943 2125.79,103.142 2150.95,103.343 2176.12,103.509 2201.28,103.626 2226.44,103.693 2251.6,103.718 2276.77,103.714 2301.93,103.692 2327.09,103.664 "/>
<polyline clip-path="url(#clip663)" style="stroke:#e26f46; stroke-linecap:round; stroke-linejoin:round; stroke-width:3; stroke-opacity:1; fill:none" stroke-dasharray="12, 6, 2, 6" points="1471.57,388.745 1496.74,354.401 1521.9,302.243 1547.06,218.672 1572.22,142.118 1597.38,103.874 1622.55,74.4564 1647.71,79.5324 1672.87,57.1907 1698.03,60.929 1723.2,77.7182 1748.36,98.2879 1773.52,103.715 1798.68,101.25 1823.85,101.455 1849.01,100.586 1874.17,89.679 1899.33,120.014 1924.49,112.873 1949.66,115.234 1974.82,100.763 1999.98,98.0943 2025.14,97.9517 2050.31,105.037 2075.47,93.2968 2100.63,111.773 2125.79,109.295 2150.95,96.4065 2176.12,109.803 2201.28,105.597 2226.44,97.9522 2251.6,110.381 2276.77,106.877 2301.93,92.8242 2327.09,99.2485 "/>
<path clip-path="url(#clip660)" d="M2203.01 386.977 L2322.53 386.977 L2322.53 231.457 L2203.01 231.457  Z" fill="#ffffff" fill-rule="evenodd" fill-opacity="1"/>
<polyline clip-path="url(#clip660)" style="stroke:#000000; stroke-linecap:round; stroke-linejoin:round; stroke-width:4; stroke-opacity:1; fill:none" points="2203.01,386.977 2322.53,386.977 2322.53,231.457 2203.01,231.457 2203.01,386.977 "/>
<polyline clip-path="url(#clip660)" style="stroke:#009af9; stroke-linecap:round; stroke-linejoin:round; stroke-width:4; stroke-opacity:1; fill:none" points="2213.09,283.297 2273.55,283.297 "/>
<path clip-path="url(#clip660)" d="M2310.63 293.836 L2305.36 293.695 L2299.6 293.836 L2299.6 291.587 L2301.47 291.587 L2296.2 285.357 L2291.54 290.58 L2291.21 291.049 Q2291.21 291.26 2291.75 291.423 Q2292.31 291.587 2292.97 291.587 L2292.97 293.836 L2288.03 293.695 L2283.62 293.836 L2283.62 291.587 Q2285.1 291.587 2285.78 291.564 Q2286.48 291.517 2287.28 291.306 Q2288.07 291.096 2288.47 290.674 L2294.75 283.624 L2287.28 274.794 L2283.86 274.794 L2283.86 272.545 L2289.15 272.686 L2294.94 272.545 L2294.94 274.794 L2293.01 274.794 L2297.72 280.298 L2301.75 275.801 Q2301.77 275.777 2302.15 275.215 Q2301.4 274.794 2300.32 274.794 L2300.32 272.545 L2305.26 272.686 L2309.67 272.545 L2309.67 274.794 Q2307.75 274.794 2306.74 274.934 Q2305.76 275.051 2305.45 275.215 Q2305.17 275.379 2304.77 275.801 L2299.17 282.031 L2307.23 291.587 L2310.63 291.587 L2310.63 293.836 Z" fill="#000000" fill-rule="nonzero" fill-opacity="1" /><polyline clip-path="url(#clip660)" style="stroke:#e26f46; stroke-linecap:round; stroke-linejoin:round; stroke-width:3; stroke-opacity:1; fill:none" stroke-dasharray="12, 6, 2, 6" points="2213.09,335.137 2273.55,335.137 "/>
<path clip-path="url(#clip660)" d="M2306.21 323.615 L2305.8 324.287 Q2303.26 323.189 2300.09 321.434 Q2296.93 323.189 2294.39 324.287 L2293.99 323.615 Q2296.76 321.205 2300.09 319.352 Q2303.45 321.221 2306.21 323.615 Z" fill="#000000" fill-rule="nonzero" fill-opacity="1" /><path clip-path="url(#clip660)" d="M2310.63 350.681 L2305.36 350.54 L2299.6 350.681 L2299.6 348.432 L2301.47 348.432 L2296.2 342.202 L2291.54 347.425 L2291.21 347.893 Q2291.21 348.104 2291.75 348.268 Q2292.31 348.432 2292.97 348.432 L2292.97 350.681 L2288.03 350.54 L2283.62 350.681 L2283.62 348.432 Q2285.1 348.432 2285.78 348.409 Q2286.48 348.362 2287.28 348.151 Q2288.07 347.94 2288.47 347.519 L2294.75 340.468 L2287.28 331.638 L2283.86 331.638 L2283.86 329.39 L2289.15 329.53 L2294.94 329.39 L2294.94 331.638 L2293.01 331.638 L2297.72 337.142 L2301.75 332.645 Q2301.77 332.622 2302.15 332.06 Q2301.4 331.638 2300.32 331.638 L2300.32 329.39 L2305.26 329.53 L2309.67 329.39 L2309.67 331.638 Q2307.75 331.638 2306.74 331.779 Q2305.76 331.896 2305.45 332.06 Q2305.17 332.224 2304.77 332.645 L2299.17 338.876 L2307.23 348.432 L2310.63 348.432 L2310.63 350.681 Z" fill="#000000" fill-rule="nonzero" fill-opacity="1" /><path clip-path="url(#clip660)" d="M1445.91 910.936 L2352.76 910.936 L2352.76 559.488 L1445.91 559.488  Z" fill="#ffffff" fill-rule="evenodd" fill-opacity="1"/>
<defs>
  <clipPath id="clip664">
    <rect x="1445" y="559" width="908" height="352"/>
  </clipPath>
</defs>
<polyline clip-path="url(#clip664)" style="stroke:#000000; stroke-linecap:round; stroke-linejoin:round; stroke-width:2; stroke-opacity:0.1; fill:none" points="1471.57,910.936 1471.57,559.488 "/>
<polyline clip-path="url(#clip664)" style="stroke:#000000; stroke-linecap:round; stroke-linejoin:round; stroke-width:2; stroke-opacity:0.1; fill:none" points="1723.2,910.936 1723.2,559.488 "/>
<polyline clip-path="url(#clip664)" style="stroke:#000000; stroke-linecap:round; stroke-linejoin:round; stroke-width:2; stroke-opacity:0.1; fill:none" points="1974.82,910.936 1974.82,559.488 "/>
<polyline clip-path="url(#clip664)" style="stroke:#000000; stroke-linecap:round; stroke-linejoin:round; stroke-width:2; stroke-opacity:0.1; fill:none" points="2226.44,910.936 2226.44,559.488 "/>
<polyline clip-path="url(#clip660)" style="stroke:#000000; stroke-linecap:round; stroke-linejoin:round; stroke-width:4; stroke-opacity:1; fill:none" points="1445.91,910.936 2352.76,910.936 "/>
<polyline clip-path="url(#clip660)" style="stroke:#000000; stroke-linecap:round; stroke-linejoin:round; stroke-width:4; stroke-opacity:1; fill:none" points="1471.57,910.936 1471.57,892.038 "/>
<polyline clip-path="url(#clip660)" style="stroke:#000000; stroke-linecap:round; stroke-linejoin:round; stroke-width:4; stroke-opacity:1; fill:none" points="1723.2,910.936 1723.2,892.038 "/>
<polyline clip-path="url(#clip660)" style="stroke:#000000; stroke-linecap:round; stroke-linejoin:round; stroke-width:4; stroke-opacity:1; fill:none" points="1974.82,910.936 1974.82,892.038 "/>
<polyline clip-path="url(#clip660)" style="stroke:#000000; stroke-linecap:round; stroke-linejoin:round; stroke-width:4; stroke-opacity:1; fill:none" points="2226.44,910.936 2226.44,892.038 "/>
<path clip-path="url(#clip660)" d="M1471.57 941.855 Q1467.96 941.855 1466.13 945.419 Q1464.33 948.961 1464.33 956.091 Q1464.33 963.197 1466.13 966.762 Q1467.96 970.303 1471.57 970.303 Q1475.21 970.303 1477.01 966.762 Q1478.84 963.197 1478.84 956.091 Q1478.84 948.961 1477.01 945.419 Q1475.21 941.855 1471.57 941.855 M1471.57 938.151 Q1477.38 938.151 1480.44 942.757 Q1483.52 947.341 1483.52 956.091 Q1483.52 964.817 1480.44 969.424 Q1477.38 974.007 1471.57 974.007 Q1465.76 974.007 1462.68 969.424 Q1459.63 964.817 1459.63 956.091 Q1459.63 947.341 1462.68 942.757 Q1465.76 938.151 1471.57 938.151 Z" fill="#000000" fill-rule="nonzero" fill-opacity="1" /><path clip-path="url(#clip660)" d="M1713.58 969.401 L1721.22 969.401 L1721.22 943.035 L1712.91 944.702 L1712.91 940.443 L1721.17 938.776 L1725.85 938.776 L1725.85 969.401 L1733.49 969.401 L1733.49 973.336 L1713.58 973.336 L1713.58 969.401 Z" fill="#000000" fill-rule="nonzero" fill-opacity="1" /><path clip-path="url(#clip660)" d="M1969.47 969.401 L1985.79 969.401 L1985.79 973.336 L1963.85 973.336 L1963.85 969.401 Q1966.51 966.646 1971.09 962.016 Q1975.7 957.364 1976.88 956.021 Q1979.12 953.498 1980 951.762 Q1980.91 950.003 1980.91 948.313 Q1980.91 945.558 1978.96 943.822 Q1977.04 942.086 1973.94 942.086 Q1971.74 942.086 1969.29 942.85 Q1966.86 943.614 1964.08 945.165 L1964.08 940.443 Q1966.9 939.308 1969.36 938.73 Q1971.81 938.151 1973.85 938.151 Q1979.22 938.151 1982.41 940.836 Q1985.61 943.521 1985.61 948.012 Q1985.61 950.142 1984.8 952.063 Q1984.01 953.961 1981.9 956.554 Q1981.32 957.225 1978.22 960.442 Q1975.12 963.637 1969.47 969.401 Z" fill="#000000" fill-rule="nonzero" fill-opacity="1" /><path clip-path="url(#clip660)" d="M2230.69 954.702 Q2234.05 955.419 2235.92 957.688 Q2237.82 959.956 2237.82 963.29 Q2237.82 968.405 2234.3 971.206 Q2230.78 974.007 2224.3 974.007 Q2222.12 974.007 2219.81 973.567 Q2217.52 973.151 2215.06 972.294 L2215.06 967.78 Q2217.01 968.915 2219.32 969.493 Q2221.64 970.072 2224.16 970.072 Q2228.56 970.072 2230.85 968.336 Q2233.17 966.6 2233.17 963.29 Q2233.17 960.234 2231.01 958.521 Q2228.88 956.785 2225.06 956.785 L2221.04 956.785 L2221.04 952.942 L2225.25 952.942 Q2228.7 952.942 2230.53 951.577 Q2232.36 950.188 2232.36 947.595 Q2232.36 944.933 2230.46 943.521 Q2228.58 942.086 2225.06 942.086 Q2223.14 942.086 2220.94 942.503 Q2218.74 942.919 2216.11 943.799 L2216.11 939.632 Q2218.77 938.892 2221.08 938.521 Q2223.42 938.151 2225.48 938.151 Q2230.8 938.151 2233.91 940.581 Q2237.01 942.989 2237.01 947.109 Q2237.01 949.979 2235.36 951.97 Q2233.72 953.938 2230.69 954.702 Z" fill="#000000" fill-rule="nonzero" fill-opacity="1" /><polyline clip-path="url(#clip664)" style="stroke:#000000; stroke-linecap:round; stroke-linejoin:round; stroke-width:2; stroke-opacity:0.1; fill:none" points="1445.91,897.685 2352.76,897.685 "/>
<polyline clip-path="url(#clip664)" style="stroke:#000000; stroke-linecap:round; stroke-linejoin:round; stroke-width:2; stroke-opacity:0.1; fill:none" points="1445.91,840.367 2352.76,840.367 "/>
<polyline clip-path="url(#clip664)" style="stroke:#000000; stroke-linecap:round; stroke-linejoin:round; stroke-width:2; stroke-opacity:0.1; fill:none" points="1445.91,783.049 2352.76,783.049 "/>
<polyline clip-path="url(#clip664)" style="stroke:#000000; stroke-linecap:round; stroke-linejoin:round; stroke-width:2; stroke-opacity:0.1; fill:none" points="1445.91,725.73 2352.76,725.73 "/>
<polyline clip-path="url(#clip664)" style="stroke:#000000; stroke-linecap:round; stroke-linejoin:round; stroke-width:2; stroke-opacity:0.1; fill:none" points="1445.91,668.412 2352.76,668.412 "/>
<polyline clip-path="url(#clip664)" style="stroke:#000000; stroke-linecap:round; stroke-linejoin:round; stroke-width:2; stroke-opacity:0.1; fill:none" points="1445.91,611.094 2352.76,611.094 "/>
<polyline clip-path="url(#clip660)" style="stroke:#000000; stroke-linecap:round; stroke-linejoin:round; stroke-width:4; stroke-opacity:1; fill:none" points="1445.91,910.936 1445.91,559.488 "/>
<polyline clip-path="url(#clip660)" style="stroke:#000000; stroke-linecap:round; stroke-linejoin:round; stroke-width:4; stroke-opacity:1; fill:none" points="1445.91,897.685 1464.81,897.685 "/>
<polyline clip-path="url(#clip660)" style="stroke:#000000; stroke-linecap:round; stroke-linejoin:round; stroke-width:4; stroke-opacity:1; fill:none" points="1445.91,840.367 1464.81,840.367 "/>
<polyline clip-path="url(#clip660)" style="stroke:#000000; stroke-linecap:round; stroke-linejoin:round; stroke-width:4; stroke-opacity:1; fill:none" points="1445.91,783.049 1464.81,783.049 "/>
<polyline clip-path="url(#clip660)" style="stroke:#000000; stroke-linecap:round; stroke-linejoin:round; stroke-width:4; stroke-opacity:1; fill:none" points="1445.91,725.73 1464.81,725.73 "/>
<polyline clip-path="url(#clip660)" style="stroke:#000000; stroke-linecap:round; stroke-linejoin:round; stroke-width:4; stroke-opacity:1; fill:none" points="1445.91,668.412 1464.81,668.412 "/>
<polyline clip-path="url(#clip660)" style="stroke:#000000; stroke-linecap:round; stroke-linejoin:round; stroke-width:4; stroke-opacity:1; fill:none" points="1445.91,611.094 1464.81,611.094 "/>
<path clip-path="url(#clip660)" d="M1273.8 898.137 L1303.47 898.137 L1303.47 902.072 L1273.8 902.072 L1273.8 898.137 Z" fill="#000000" fill-rule="nonzero" fill-opacity="1" /><path clip-path="url(#clip660)" d="M1323.57 883.484 Q1319.95 883.484 1318.13 887.049 Q1316.32 890.59 1316.32 897.72 Q1316.32 904.826 1318.13 908.391 Q1319.95 911.933 1323.57 911.933 Q1327.2 911.933 1329.01 908.391 Q1330.83 904.826 1330.83 897.72 Q1330.83 890.59 1329.01 887.049 Q1327.2 883.484 1323.57 883.484 M1323.57 879.78 Q1329.38 879.78 1332.43 884.387 Q1335.51 888.97 1335.51 897.72 Q1335.51 906.447 1332.43 911.053 Q1329.38 915.637 1323.57 915.637 Q1317.76 915.637 1314.68 911.053 Q1311.62 906.447 1311.62 897.72 Q1311.62 888.97 1314.68 884.387 Q1317.76 879.78 1323.57 879.78 Z" fill="#000000" fill-rule="nonzero" fill-opacity="1" /><path clip-path="url(#clip660)" d="M1343.73 909.086 L1348.61 909.086 L1348.61 914.965 L1343.73 914.965 L1343.73 909.086 Z" fill="#000000" fill-rule="nonzero" fill-opacity="1" /><path clip-path="url(#clip660)" d="M1362.82 911.03 L1379.14 911.03 L1379.14 914.965 L1357.2 914.965 L1357.2 911.03 Q1359.86 908.276 1364.45 903.646 Q1369.05 898.993 1370.23 897.651 Q1372.48 895.127 1373.36 893.391 Q1374.26 891.632 1374.26 889.942 Q1374.26 887.188 1372.32 885.452 Q1370.39 883.715 1367.29 883.715 Q1365.09 883.715 1362.64 884.479 Q1360.21 885.243 1357.43 886.794 L1357.43 882.072 Q1360.26 880.938 1362.71 880.359 Q1365.16 879.78 1367.2 879.78 Q1372.57 879.78 1375.76 882.465 Q1378.96 885.151 1378.96 889.641 Q1378.96 891.771 1378.15 893.692 Q1377.36 895.59 1375.26 898.183 Q1374.68 898.854 1371.57 902.072 Q1368.47 905.266 1362.82 911.03 Z" fill="#000000" fill-rule="nonzero" fill-opacity="1" /><path clip-path="url(#clip660)" d="M1389.01 880.405 L1407.36 880.405 L1407.36 884.34 L1393.29 884.34 L1393.29 892.813 Q1394.31 892.465 1395.32 892.303 Q1396.34 892.118 1397.36 892.118 Q1403.15 892.118 1406.53 895.289 Q1409.91 898.461 1409.91 903.877 Q1409.91 909.456 1406.44 912.558 Q1402.96 915.637 1396.64 915.637 Q1394.47 915.637 1392.2 915.266 Q1389.95 914.896 1387.55 914.155 L1387.55 909.456 Q1389.63 910.59 1391.85 911.146 Q1394.07 911.701 1396.55 911.701 Q1400.56 911.701 1402.89 909.595 Q1405.23 907.488 1405.23 903.877 Q1405.23 900.266 1402.89 898.16 Q1400.56 896.053 1396.55 896.053 Q1394.68 896.053 1392.8 896.47 Q1390.95 896.887 1389.01 897.766 L1389.01 880.405 Z" fill="#000000" fill-rule="nonzero" fill-opacity="1" /><path clip-path="url(#clip660)" d="M1322.57 826.166 Q1318.96 826.166 1317.13 829.73 Q1315.32 833.272 1315.32 840.402 Q1315.32 847.508 1317.13 851.073 Q1318.96 854.615 1322.57 854.615 Q1326.2 854.615 1328.01 851.073 Q1329.84 847.508 1329.84 840.402 Q1329.84 833.272 1328.01 829.73 Q1326.2 826.166 1322.57 826.166 M1322.57 822.462 Q1328.38 822.462 1331.44 827.068 Q1334.51 831.652 1334.51 840.402 Q1334.51 849.128 1331.44 853.735 Q1328.38 858.318 1322.57 858.318 Q1316.76 858.318 1313.68 853.735 Q1310.63 849.128 1310.63 840.402 Q1310.63 831.652 1313.68 827.068 Q1316.76 822.462 1322.57 822.462 Z" fill="#000000" fill-rule="nonzero" fill-opacity="1" /><path clip-path="url(#clip660)" d="M1342.73 851.767 L1347.62 851.767 L1347.62 857.647 L1342.73 857.647 L1342.73 851.767 Z" fill="#000000" fill-rule="nonzero" fill-opacity="1" /><path clip-path="url(#clip660)" d="M1367.8 826.166 Q1364.19 826.166 1362.36 829.73 Q1360.56 833.272 1360.56 840.402 Q1360.56 847.508 1362.36 851.073 Q1364.19 854.615 1367.8 854.615 Q1371.44 854.615 1373.24 851.073 Q1375.07 847.508 1375.07 840.402 Q1375.07 833.272 1373.24 829.73 Q1371.44 826.166 1367.8 826.166 M1367.8 822.462 Q1373.61 822.462 1376.67 827.068 Q1379.75 831.652 1379.75 840.402 Q1379.75 849.128 1376.67 853.735 Q1373.61 858.318 1367.8 858.318 Q1361.99 858.318 1358.91 853.735 Q1355.86 849.128 1355.86 840.402 Q1355.86 831.652 1358.91 827.068 Q1361.99 822.462 1367.8 822.462 Z" fill="#000000" fill-rule="nonzero" fill-opacity="1" /><path clip-path="url(#clip660)" d="M1397.96 826.166 Q1394.35 826.166 1392.52 829.73 Q1390.72 833.272 1390.72 840.402 Q1390.72 847.508 1392.52 851.073 Q1394.35 854.615 1397.96 854.615 Q1401.6 854.615 1403.4 851.073 Q1405.23 847.508 1405.23 840.402 Q1405.23 833.272 1403.4 829.73 Q1401.6 826.166 1397.96 826.166 M1397.96 822.462 Q1403.77 822.462 1406.83 827.068 Q1409.91 831.652 1409.91 840.402 Q1409.91 849.128 1406.83 853.735 Q1403.77 858.318 1397.96 858.318 Q1392.15 858.318 1389.07 853.735 Q1386.02 849.128 1386.02 840.402 Q1386.02 831.652 1389.07 827.068 Q1392.15 822.462 1397.96 822.462 Z" fill="#000000" fill-rule="nonzero" fill-opacity="1" /><path clip-path="url(#clip660)" d="M1323.57 768.847 Q1319.95 768.847 1318.13 772.412 Q1316.32 775.954 1316.32 783.083 Q1316.32 790.19 1318.13 793.755 Q1319.95 797.296 1323.57 797.296 Q1327.2 797.296 1329.01 793.755 Q1330.83 790.19 1330.83 783.083 Q1330.83 775.954 1329.01 772.412 Q1327.2 768.847 1323.57 768.847 M1323.57 765.144 Q1329.38 765.144 1332.43 769.75 Q1335.51 774.333 1335.51 783.083 Q1335.51 791.81 1332.43 796.417 Q1329.38 801 1323.57 801 Q1317.76 801 1314.68 796.417 Q1311.62 791.81 1311.62 783.083 Q1311.62 774.333 1314.68 769.75 Q1317.76 765.144 1323.57 765.144 Z" fill="#000000" fill-rule="nonzero" fill-opacity="1" /><path clip-path="url(#clip660)" d="M1343.73 794.449 L1348.61 794.449 L1348.61 800.329 L1343.73 800.329 L1343.73 794.449 Z" fill="#000000" fill-rule="nonzero" fill-opacity="1" /><path clip-path="url(#clip660)" d="M1362.82 796.393 L1379.14 796.393 L1379.14 800.329 L1357.2 800.329 L1357.2 796.393 Q1359.86 793.639 1364.45 789.009 Q1369.05 784.356 1370.23 783.014 Q1372.48 780.491 1373.36 778.755 Q1374.26 776.995 1374.26 775.306 Q1374.26 772.551 1372.32 770.815 Q1370.39 769.079 1367.29 769.079 Q1365.09 769.079 1362.64 769.843 Q1360.21 770.607 1357.43 772.157 L1357.43 767.435 Q1360.26 766.301 1362.71 765.722 Q1365.16 765.144 1367.2 765.144 Q1372.57 765.144 1375.76 767.829 Q1378.96 770.514 1378.96 775.005 Q1378.96 777.134 1378.15 779.056 Q1377.36 780.954 1375.26 783.546 Q1374.68 784.218 1371.57 787.435 Q1368.47 790.63 1362.82 796.393 Z" fill="#000000" fill-rule="nonzero" fill-opacity="1" /><path clip-path="url(#clip660)" d="M1389.01 765.769 L1407.36 765.769 L1407.36 769.704 L1393.29 769.704 L1393.29 778.176 Q1394.31 777.829 1395.32 777.667 Q1396.34 777.482 1397.36 777.482 Q1403.15 777.482 1406.53 780.653 Q1409.91 783.824 1409.91 789.241 Q1409.91 794.819 1406.44 797.921 Q1402.96 801 1396.64 801 Q1394.47 801 1392.2 800.63 Q1389.95 800.259 1387.55 799.518 L1387.55 794.819 Q1389.63 795.954 1391.85 796.509 Q1394.07 797.065 1396.55 797.065 Q1400.56 797.065 1402.89 794.958 Q1405.23 792.852 1405.23 789.241 Q1405.23 785.63 1402.89 783.523 Q1400.56 781.417 1396.55 781.417 Q1394.68 781.417 1392.8 781.833 Q1390.95 782.25 1389.01 783.13 L1389.01 765.769 Z" fill="#000000" fill-rule="nonzero" fill-opacity="1" /><path clip-path="url(#clip660)" d="M1322.57 711.529 Q1318.96 711.529 1317.13 715.094 Q1315.32 718.635 1315.32 725.765 Q1315.32 732.871 1317.13 736.436 Q1318.96 739.978 1322.57 739.978 Q1326.2 739.978 1328.01 736.436 Q1329.84 732.871 1329.84 725.765 Q1329.84 718.635 1328.01 715.094 Q1326.2 711.529 1322.57 711.529 M1322.57 707.825 Q1328.38 707.825 1331.44 712.432 Q1334.51 717.015 1334.51 725.765 Q1334.51 734.492 1331.44 739.098 Q1328.38 743.682 1322.57 743.682 Q1316.76 743.682 1313.68 739.098 Q1310.63 734.492 1310.63 725.765 Q1310.63 717.015 1313.68 712.432 Q1316.76 707.825 1322.57 707.825 Z" fill="#000000" fill-rule="nonzero" fill-opacity="1" /><path clip-path="url(#clip660)" d="M1342.73 737.131 L1347.62 737.131 L1347.62 743.01 L1342.73 743.01 L1342.73 737.131 Z" fill="#000000" fill-rule="nonzero" fill-opacity="1" /><path clip-path="url(#clip660)" d="M1357.85 708.45 L1376.2 708.45 L1376.2 712.385 L1362.13 712.385 L1362.13 720.858 Q1363.15 720.51 1364.17 720.348 Q1365.19 720.163 1366.2 720.163 Q1371.99 720.163 1375.37 723.334 Q1378.75 726.506 1378.75 731.922 Q1378.75 737.501 1375.28 740.603 Q1371.81 743.682 1365.49 743.682 Q1363.31 743.682 1361.04 743.311 Q1358.8 742.941 1356.39 742.2 L1356.39 737.501 Q1358.47 738.635 1360.7 739.191 Q1362.92 739.746 1365.39 739.746 Q1369.4 739.746 1371.74 737.64 Q1374.07 735.533 1374.07 731.922 Q1374.07 728.311 1371.74 726.205 Q1369.4 724.098 1365.39 724.098 Q1363.52 724.098 1361.64 724.515 Q1359.79 724.932 1357.85 725.811 L1357.85 708.45 Z" fill="#000000" fill-rule="nonzero" fill-opacity="1" /><path clip-path="url(#clip660)" d="M1397.96 711.529 Q1394.35 711.529 1392.52 715.094 Q1390.72 718.635 1390.72 725.765 Q1390.72 732.871 1392.52 736.436 Q1394.35 739.978 1397.96 739.978 Q1401.6 739.978 1403.4 736.436 Q1405.23 732.871 1405.23 725.765 Q1405.23 718.635 1403.4 715.094 Q1401.6 711.529 1397.96 711.529 M1397.96 707.825 Q1403.77 707.825 1406.83 712.432 Q1409.91 717.015 1409.91 725.765 Q1409.91 734.492 1406.83 739.098 Q1403.77 743.682 1397.96 743.682 Q1392.15 743.682 1389.07 739.098 Q1386.02 734.492 1386.02 725.765 Q1386.02 717.015 1389.07 712.432 Q1392.15 707.825 1397.96 707.825 Z" fill="#000000" fill-rule="nonzero" fill-opacity="1" /><path clip-path="url(#clip660)" d="M1323.57 654.211 Q1319.95 654.211 1318.13 657.775 Q1316.32 661.317 1316.32 668.447 Q1316.32 675.553 1318.13 679.118 Q1319.95 682.66 1323.57 682.66 Q1327.2 682.66 1329.01 679.118 Q1330.83 675.553 1330.83 668.447 Q1330.83 661.317 1329.01 657.775 Q1327.2 654.211 1323.57 654.211 M1323.57 650.507 Q1329.38 650.507 1332.43 655.113 Q1335.51 659.697 1335.51 668.447 Q1335.51 677.173 1332.43 681.78 Q1329.38 686.363 1323.57 686.363 Q1317.76 686.363 1314.68 681.78 Q1311.62 677.173 1311.62 668.447 Q1311.62 659.697 1314.68 655.113 Q1317.76 650.507 1323.57 650.507 Z" fill="#000000" fill-rule="nonzero" fill-opacity="1" /><path clip-path="url(#clip660)" d="M1343.73 679.812 L1348.61 679.812 L1348.61 685.692 L1343.73 685.692 L1343.73 679.812 Z" fill="#000000" fill-rule="nonzero" fill-opacity="1" /><path clip-path="url(#clip660)" d="M1357.62 651.132 L1379.84 651.132 L1379.84 653.123 L1367.29 685.692 L1362.41 685.692 L1374.21 655.067 L1357.62 655.067 L1357.62 651.132 Z" fill="#000000" fill-rule="nonzero" fill-opacity="1" /><path clip-path="url(#clip660)" d="M1389.01 651.132 L1407.36 651.132 L1407.36 655.067 L1393.29 655.067 L1393.29 663.539 Q1394.31 663.192 1395.32 663.03 Q1396.34 662.845 1397.36 662.845 Q1403.15 662.845 1406.53 666.016 Q1409.91 669.187 1409.91 674.604 Q1409.91 680.183 1406.44 683.285 Q1402.96 686.363 1396.64 686.363 Q1394.47 686.363 1392.2 685.993 Q1389.95 685.623 1387.55 684.882 L1387.55 680.183 Q1389.63 681.317 1391.85 681.873 Q1394.07 682.428 1396.55 682.428 Q1400.56 682.428 1402.89 680.322 Q1405.23 678.215 1405.23 674.604 Q1405.23 670.993 1402.89 668.886 Q1400.56 666.78 1396.55 666.78 Q1394.68 666.78 1392.8 667.197 Q1390.95 667.613 1389.01 668.493 L1389.01 651.132 Z" fill="#000000" fill-rule="nonzero" fill-opacity="1" /><path clip-path="url(#clip660)" d="M1313.38 624.438 L1321.02 624.438 L1321.02 598.073 L1312.71 599.74 L1312.71 595.48 L1320.97 593.814 L1325.65 593.814 L1325.65 624.438 L1333.29 624.438 L1333.29 628.374 L1313.38 628.374 L1313.38 624.438 Z" fill="#000000" fill-rule="nonzero" fill-opacity="1" /><path clip-path="url(#clip660)" d="M1342.73 622.494 L1347.62 622.494 L1347.62 628.374 L1342.73 628.374 L1342.73 622.494 Z" fill="#000000" fill-rule="nonzero" fill-opacity="1" /><path clip-path="url(#clip660)" d="M1367.8 596.892 Q1364.19 596.892 1362.36 600.457 Q1360.56 603.999 1360.56 611.128 Q1360.56 618.235 1362.36 621.8 Q1364.19 625.341 1367.8 625.341 Q1371.44 625.341 1373.24 621.8 Q1375.07 618.235 1375.07 611.128 Q1375.07 603.999 1373.24 600.457 Q1371.44 596.892 1367.8 596.892 M1367.8 593.189 Q1373.61 593.189 1376.67 597.795 Q1379.75 602.378 1379.75 611.128 Q1379.75 619.855 1376.67 624.462 Q1373.61 629.045 1367.8 629.045 Q1361.99 629.045 1358.91 624.462 Q1355.86 619.855 1355.86 611.128 Q1355.86 602.378 1358.91 597.795 Q1361.99 593.189 1367.8 593.189 Z" fill="#000000" fill-rule="nonzero" fill-opacity="1" /><path clip-path="url(#clip660)" d="M1397.96 596.892 Q1394.35 596.892 1392.52 600.457 Q1390.72 603.999 1390.72 611.128 Q1390.72 618.235 1392.52 621.8 Q1394.35 625.341 1397.96 625.341 Q1401.6 625.341 1403.4 621.8 Q1405.23 618.235 1405.23 611.128 Q1405.23 603.999 1403.4 600.457 Q1401.6 596.892 1397.96 596.892 M1397.96 593.189 Q1403.77 593.189 1406.83 597.795 Q1409.91 602.378 1409.91 611.128 Q1409.91 619.855 1406.83 624.462 Q1403.77 629.045 1397.96 629.045 Q1392.15 629.045 1389.07 624.462 Q1386.02 619.855 1386.02 611.128 Q1386.02 602.378 1389.07 597.795 Q1392.15 593.189 1397.96 593.189 Z" fill="#000000" fill-rule="nonzero" fill-opacity="1" /><path clip-path="url(#clip660)" d="M1189.42 734.795 Q1191.22 734.795 1192.25 735.922 Q1193.25 737.049 1193.25 738.338 Q1193.25 739.561 1192.54 740.206 Q1191.83 740.85 1190.93 740.85 Q1189.71 740.85 1188.65 739.948 Q1187.58 739.046 1187.36 737.693 Q1186.52 739.014 1186.52 740.978 Q1186.52 742.267 1187.2 743.394 Q1187.87 744.489 1188.74 745.165 Q1189.61 745.809 1190.87 746.389 Q1192.09 746.937 1192.83 747.162 Q1193.54 747.355 1194.31 747.516 L1203.33 749.771 Q1207.62 750.866 1209.13 750.866 Q1211 750.866 1212.25 749.964 Q1213.48 749.062 1213.48 747.259 Q1213.48 746.55 1213.28 745.745 Q1213.06 744.94 1212.48 743.909 Q1211.87 742.846 1210.96 741.912 Q1210.03 740.946 1208.45 740.012 Q1206.87 739.078 1204.85 738.466 Q1204.14 738.273 1204.14 737.629 Q1204.14 736.824 1204.78 736.824 Q1205.33 736.824 1206.49 737.275 Q1207.62 737.693 1209.1 738.627 Q1210.55 739.529 1211.87 740.721 Q1213.15 741.912 1214.06 743.684 Q1214.96 745.455 1214.96 747.387 Q1214.96 750.157 1213.48 751.993 Q1212 753.829 1209.93 754.505 Q1210.22 754.666 1210.61 754.891 Q1211 755.117 1211.87 755.793 Q1212.7 756.437 1213.35 757.178 Q1213.96 757.919 1214.44 759.078 Q1214.96 760.205 1214.96 761.429 Q1214.96 762.975 1214.51 764.36 Q1214.06 765.713 1213.03 766.679 Q1212 767.645 1210.58 767.645 Q1209 767.645 1207.91 766.582 Q1206.78 765.487 1206.78 764.006 Q1206.78 763.072 1207.33 762.331 Q1207.87 761.558 1209.06 761.558 Q1210.38 761.558 1211.38 762.46 Q1212.38 763.362 1212.64 764.65 Q1213.48 763.329 1213.48 761.365 Q1213.48 759.239 1211.61 757.565 Q1209.74 755.89 1206.62 755.085 Q1199.11 753.088 1195.76 752.315 Q1192.38 751.542 1190.93 751.542 Q1189.58 751.542 1188.65 751.896 Q1187.71 752.251 1187.29 752.862 Q1186.84 753.442 1186.68 753.99 Q1186.52 754.505 1186.52 755.085 Q1186.52 756.051 1186.91 757.146 Q1187.29 758.209 1188.2 759.497 Q1189.06 760.753 1190.87 761.944 Q1192.67 763.136 1195.15 763.941 Q1195.89 764.102 1195.89 764.811 Q1195.86 765.584 1195.22 765.584 Q1194.67 765.584 1193.54 765.165 Q1192.38 764.714 1190.93 763.812 Q1189.48 762.878 1188.2 761.687 Q1186.87 760.463 1185.97 758.692 Q1185.07 756.888 1185.07 754.956 Q1185.07 754.086 1185.26 753.249 Q1185.43 752.379 1185.91 751.349 Q1186.39 750.286 1187.45 749.352 Q1188.52 748.418 1190.06 747.838 Q1189.32 747.452 1188.61 746.937 Q1187.91 746.389 1187.04 745.552 Q1186.13 744.682 1185.62 743.491 Q1185.07 742.267 1185.07 740.914 Q1185.07 739.594 1185.43 738.305 Q1185.75 737.017 1186.81 735.922 Q1187.84 734.795 1189.42 734.795 Z" fill="#000000" fill-rule="nonzero" fill-opacity="1" /><path clip-path="url(#clip660)" d="M1233.23 728.074 Q1232.39 728.074 1232.15 728.006 Q1231.9 727.916 1231.52 727.555 L1221.64 718.695 Q1216.19 713.848 1211.43 713.848 Q1208.34 713.848 1206.13 715.472 Q1203.92 717.072 1203.92 720.025 Q1203.92 722.054 1205.16 723.768 Q1206.4 725.481 1208.61 726.27 Q1208.57 726.135 1208.57 725.661 Q1208.57 724.512 1209.29 723.88 Q1210.01 723.227 1210.98 723.227 Q1212.22 723.227 1212.83 724.038 Q1213.41 724.827 1213.41 725.616 Q1213.41 725.932 1213.34 726.36 Q1213.28 726.766 1212.65 727.42 Q1211.99 728.074 1210.84 728.074 Q1207.62 728.074 1205.05 725.639 Q1202.48 723.182 1202.48 719.439 Q1202.48 715.201 1205 712.428 Q1207.51 709.633 1211.43 709.633 Q1212.8 709.633 1214.07 710.061 Q1215.31 710.467 1216.28 711.03 Q1217.24 711.571 1218.8 713.059 Q1220.36 714.547 1221.46 715.742 Q1222.57 716.937 1224.91 719.62 L1229.67 724.512 L1229.67 716.193 Q1229.67 712.135 1229.31 711.819 Q1228.65 711.369 1225.2 710.805 L1225.2 709.633 L1233.23 710.94 L1233.23 728.074 Z" fill="#000000" fill-rule="nonzero" fill-opacity="1" /><polyline clip-path="url(#clip664)" style="stroke:#009af9; stroke-linecap:round; stroke-linejoin:round; stroke-width:4; stroke-opacity:1; fill:none" points="1471.57,840.367 1496.74,659.853 1521.9,584.357 1547.06,586.358 1572.22,633.995 1597.38,699.507 1622.55,763.512 1647.71,815.289 1672.87,850.877 1698.03,870.723 1723.2,877.697 1748.36,875.652 1773.52,868.434 1798.68,859.269 1823.85,850.47 1849.01,843.396 1874.17,838.583 1899.33,835.97 1924.49,835.14 1949.66,835.535 1974.82,836.604 1999.98,837.898 2025.14,839.106 2050.31,840.055 2075.47,840.684 2100.63,841.012 2125.79,841.1 2150.95,841.028 2176.12,840.871 2201.28,840.689 2226.44,840.524 2251.6,840.397 2276.77,840.314 2301.93,840.273 2327.09,840.265 "/>
<polyline clip-path="url(#clip664)" style="stroke:#e26f46; stroke-linecap:round; stroke-linejoin:round; stroke-width:3; stroke-opacity:1; fill:none" stroke-dasharray="12, 6, 2, 6" points="1471.57,840.367 1496.74,655.379 1521.9,595.145 1547.06,569.435 1572.22,610.178 1597.38,699.784 1622.55,771.242 1647.71,840.656 1672.87,860.835 1698.03,886.615 1723.2,900.989 1748.36,900.641 1773.52,882.903 1798.68,864.162 1823.85,853.261 1849.01,845.498 1874.17,836.426 1899.33,852.678 1924.49,837.085 1949.66,834.763 1974.82,826.144 1999.98,831.283 2025.14,836.689 2050.31,843.248 2075.47,836.556 2100.63,849.309 2125.79,842.015 2150.95,833.775 2176.12,844.456 2201.28,839.122 2226.44,835.712 2251.6,844.921 2276.77,839.692 2301.93,832.943 2327.09,842.171 "/>
<path clip-path="url(#clip660)" d="M2203.01 726.723 L2322.53 726.723 L2322.53 571.203 L2203.01 571.203  Z" fill="#ffffff" fill-rule="evenodd" fill-opacity="1"/>
<polyline clip-path="url(#clip660)" style="stroke:#000000; stroke-linecap:round; stroke-linejoin:round; stroke-width:4; stroke-opacity:1; fill:none" points="2203.01,726.723 2322.53,726.723 2322.53,571.203 2203.01,571.203 2203.01,726.723 "/>
<polyline clip-path="url(#clip660)" style="stroke:#009af9; stroke-linecap:round; stroke-linejoin:round; stroke-width:4; stroke-opacity:1; fill:none" points="2213.09,623.043 2273.55,623.043 "/>
<path clip-path="url(#clip660)" d="M2310.63 633.582 L2305.36 633.442 L2299.6 633.582 L2299.6 631.334 L2301.47 631.334 L2296.2 625.103 L2291.54 630.326 L2291.21 630.795 Q2291.21 631.006 2291.75 631.17 Q2292.31 631.334 2292.97 631.334 L2292.97 633.582 L2288.03 633.442 L2283.62 633.582 L2283.62 631.334 Q2285.1 631.334 2285.78 631.31 Q2286.48 631.263 2287.28 631.052 Q2288.07 630.842 2288.47 630.42 L2294.75 623.37 L2287.28 614.54 L2283.86 614.54 L2283.86 612.291 L2289.15 612.432 L2294.94 612.291 L2294.94 614.54 L2293.01 614.54 L2297.72 620.044 L2301.75 615.547 Q2301.77 615.523 2302.15 614.961 Q2301.4 614.54 2300.32 614.54 L2300.32 612.291 L2305.26 612.432 L2309.67 612.291 L2309.67 614.54 Q2307.75 614.54 2306.74 614.68 Q2305.76 614.797 2305.45 614.961 Q2305.17 615.125 2304.77 615.547 L2299.17 621.777 L2307.23 631.334 L2310.63 631.334 L2310.63 633.582 Z" fill="#000000" fill-rule="nonzero" fill-opacity="1" /><polyline clip-path="url(#clip660)" style="stroke:#e26f46; stroke-linecap:round; stroke-linejoin:round; stroke-width:3; stroke-opacity:1; fill:none" stroke-dasharray="12, 6, 2, 6" points="2213.09,674.883 2273.55,674.883 "/>
<path clip-path="url(#clip660)" d="M2306.21 663.361 L2305.8 664.033 Q2303.26 662.935 2300.09 661.18 Q2296.93 662.935 2294.39 664.033 L2293.99 663.361 Q2296.76 660.951 2300.09 659.098 Q2303.45 660.967 2306.21 663.361 Z" fill="#000000" fill-rule="nonzero" fill-opacity="1" /><path clip-path="url(#clip660)" d="M2310.63 690.427 L2305.36 690.286 L2299.6 690.427 L2299.6 688.178 L2301.47 688.178 L2296.2 681.948 L2291.54 687.171 L2291.21 687.639 Q2291.21 687.85 2291.75 688.014 Q2292.31 688.178 2292.97 688.178 L2292.97 690.427 L2288.03 690.286 L2283.62 690.427 L2283.62 688.178 Q2285.1 688.178 2285.78 688.155 Q2286.48 688.108 2287.28 687.897 Q2288.07 687.686 2288.47 687.265 L2294.75 680.214 L2287.28 671.384 L2283.86 671.384 L2283.86 669.136 L2289.15 669.276 L2294.94 669.136 L2294.94 671.384 L2293.01 671.384 L2297.72 676.888 L2301.75 672.391 Q2301.77 672.368 2302.15 671.806 Q2301.4 671.384 2300.32 671.384 L2300.32 669.136 L2305.26 669.276 L2309.67 669.136 L2309.67 671.384 Q2307.75 671.384 2306.74 671.525 Q2305.76 671.642 2305.45 671.806 Q2305.17 671.97 2304.77 672.391 L2299.17 678.622 L2307.23 688.178 L2310.63 688.178 L2310.63 690.427 Z" fill="#000000" fill-rule="nonzero" fill-opacity="1" /><path clip-path="url(#clip660)" d="M1445.91 1423.18 L2352.76 1423.18 L2352.76 1071.73 L1445.91 1071.73  Z" fill="#ffffff" fill-rule="evenodd" fill-opacity="1"/>
<defs>
  <clipPath id="clip665">
    <rect x="1445" y="1071" width="908" height="352"/>
  </clipPath>
</defs>
<polyline clip-path="url(#clip665)" style="stroke:#000000; stroke-linecap:round; stroke-linejoin:round; stroke-width:2; stroke-opacity:0.1; fill:none" points="1471.57,1423.18 1471.57,1071.73 "/>
<polyline clip-path="url(#clip665)" style="stroke:#000000; stroke-linecap:round; stroke-linejoin:round; stroke-width:2; stroke-opacity:0.1; fill:none" points="1723.2,1423.18 1723.2,1071.73 "/>
<polyline clip-path="url(#clip665)" style="stroke:#000000; stroke-linecap:round; stroke-linejoin:round; stroke-width:2; stroke-opacity:0.1; fill:none" points="1974.82,1423.18 1974.82,1071.73 "/>
<polyline clip-path="url(#clip665)" style="stroke:#000000; stroke-linecap:round; stroke-linejoin:round; stroke-width:2; stroke-opacity:0.1; fill:none" points="2226.44,1423.18 2226.44,1071.73 "/>
<polyline clip-path="url(#clip660)" style="stroke:#000000; stroke-linecap:round; stroke-linejoin:round; stroke-width:4; stroke-opacity:1; fill:none" points="1445.91,1423.18 2352.76,1423.18 "/>
<polyline clip-path="url(#clip660)" style="stroke:#000000; stroke-linecap:round; stroke-linejoin:round; stroke-width:4; stroke-opacity:1; fill:none" points="1471.57,1423.18 1471.57,1404.28 "/>
<polyline clip-path="url(#clip660)" style="stroke:#000000; stroke-linecap:round; stroke-linejoin:round; stroke-width:4; stroke-opacity:1; fill:none" points="1723.2,1423.18 1723.2,1404.28 "/>
<polyline clip-path="url(#clip660)" style="stroke:#000000; stroke-linecap:round; stroke-linejoin:round; stroke-width:4; stroke-opacity:1; fill:none" points="1974.82,1423.18 1974.82,1404.28 "/>
<polyline clip-path="url(#clip660)" style="stroke:#000000; stroke-linecap:round; stroke-linejoin:round; stroke-width:4; stroke-opacity:1; fill:none" points="2226.44,1423.18 2226.44,1404.28 "/>
<path clip-path="url(#clip660)" d="M1471.57 1454.1 Q1467.96 1454.1 1466.13 1457.66 Q1464.33 1461.2 1464.33 1468.33 Q1464.33 1475.44 1466.13 1479.01 Q1467.96 1482.55 1471.57 1482.55 Q1475.21 1482.55 1477.01 1479.01 Q1478.84 1475.44 1478.84 1468.33 Q1478.84 1461.2 1477.01 1457.66 Q1475.21 1454.1 1471.57 1454.1 M1471.57 1450.39 Q1477.38 1450.39 1480.44 1455 Q1483.52 1459.58 1483.52 1468.33 Q1483.52 1477.06 1480.44 1481.67 Q1477.38 1486.25 1471.57 1486.25 Q1465.76 1486.25 1462.68 1481.67 Q1459.63 1477.06 1459.63 1468.33 Q1459.63 1459.58 1462.68 1455 Q1465.76 1450.39 1471.57 1450.39 Z" fill="#000000" fill-rule="nonzero" fill-opacity="1" /><path clip-path="url(#clip660)" d="M1713.58 1481.64 L1721.22 1481.64 L1721.22 1455.28 L1712.91 1456.95 L1712.91 1452.69 L1721.17 1451.02 L1725.85 1451.02 L1725.85 1481.64 L1733.49 1481.64 L1733.49 1485.58 L1713.58 1485.58 L1713.58 1481.64 Z" fill="#000000" fill-rule="nonzero" fill-opacity="1" /><path clip-path="url(#clip660)" d="M1969.47 1481.64 L1985.79 1481.64 L1985.79 1485.58 L1963.85 1485.58 L1963.85 1481.64 Q1966.51 1478.89 1971.09 1474.26 Q1975.7 1469.61 1976.88 1468.27 Q1979.12 1465.74 1980 1464.01 Q1980.91 1462.25 1980.91 1460.56 Q1980.91 1457.8 1978.96 1456.07 Q1977.04 1454.33 1973.94 1454.33 Q1971.74 1454.33 1969.29 1455.09 Q1966.86 1455.86 1964.08 1457.41 L1964.08 1452.69 Q1966.9 1451.55 1969.36 1450.97 Q1971.81 1450.39 1973.85 1450.39 Q1979.22 1450.39 1982.41 1453.08 Q1985.61 1455.77 1985.61 1460.26 Q1985.61 1462.39 1984.8 1464.31 Q1984.01 1466.2 1981.9 1468.8 Q1981.32 1469.47 1978.22 1472.69 Q1975.12 1475.88 1969.47 1481.64 Z" fill="#000000" fill-rule="nonzero" fill-opacity="1" /><path clip-path="url(#clip660)" d="M2230.69 1466.95 Q2234.05 1467.66 2235.92 1469.93 Q2237.82 1472.2 2237.82 1475.53 Q2237.82 1480.65 2234.3 1483.45 Q2230.78 1486.25 2224.3 1486.25 Q2222.12 1486.25 2219.81 1485.81 Q2217.52 1485.39 2215.06 1484.54 L2215.06 1480.02 Q2217.01 1481.16 2219.32 1481.74 Q2221.64 1482.32 2224.16 1482.32 Q2228.56 1482.32 2230.85 1480.58 Q2233.17 1478.84 2233.17 1475.53 Q2233.17 1472.48 2231.01 1470.77 Q2228.88 1469.03 2225.06 1469.03 L2221.04 1469.03 L2221.04 1465.19 L2225.25 1465.19 Q2228.7 1465.19 2230.53 1463.82 Q2232.36 1462.43 2232.36 1459.84 Q2232.36 1457.18 2230.46 1455.77 Q2228.58 1454.33 2225.06 1454.33 Q2223.14 1454.33 2220.94 1454.75 Q2218.74 1455.16 2216.11 1456.04 L2216.11 1451.88 Q2218.77 1451.14 2221.08 1450.77 Q2223.42 1450.39 2225.48 1450.39 Q2230.8 1450.39 2233.91 1452.83 Q2237.01 1455.23 2237.01 1459.35 Q2237.01 1462.22 2235.36 1464.21 Q2233.72 1466.18 2230.69 1466.95 Z" fill="#000000" fill-rule="nonzero" fill-opacity="1" /><path clip-path="url(#clip660)" d="M1769.5 1520.52 L1809.7 1520.52 L1809.7 1525.93 L1792.83 1525.93 L1792.83 1568.04 L1786.37 1568.04 L1786.37 1525.93 L1769.5 1525.93 L1769.5 1520.52 Z" fill="#000000" fill-rule="nonzero" fill-opacity="1" /><path clip-path="url(#clip660)" d="M1813.65 1532.4 L1819.51 1532.4 L1819.51 1568.04 L1813.65 1568.04 L1813.65 1532.4 M1813.65 1518.52 L1819.51 1518.52 L1819.51 1525.93 L1813.65 1525.93 L1813.65 1518.52 Z" fill="#000000" fill-rule="nonzero" fill-opacity="1" /><path clip-path="url(#clip660)" d="M1859.51 1539.24 Q1861.71 1535.29 1864.77 1533.41 Q1867.82 1531.54 1871.96 1531.54 Q1877.53 1531.54 1880.55 1535.45 Q1883.58 1539.33 1883.58 1546.53 L1883.58 1568.04 L1877.69 1568.04 L1877.69 1546.72 Q1877.69 1541.59 1875.87 1539.11 Q1874.06 1536.63 1870.34 1536.63 Q1865.78 1536.63 1863.14 1539.65 Q1860.5 1542.68 1860.5 1547.9 L1860.5 1568.04 L1854.61 1568.04 L1854.61 1546.72 Q1854.61 1541.56 1852.8 1539.11 Q1850.98 1536.63 1847.2 1536.63 Q1842.71 1536.63 1840.07 1539.68 Q1837.43 1542.71 1837.43 1547.9 L1837.43 1568.04 L1831.54 1568.04 L1831.54 1532.4 L1837.43 1532.4 L1837.43 1537.93 Q1839.43 1534.66 1842.23 1533.1 Q1845.03 1531.54 1848.88 1531.54 Q1852.77 1531.54 1855.47 1533.51 Q1858.21 1535.48 1859.51 1539.24 Z" fill="#000000" fill-rule="nonzero" fill-opacity="1" /><path clip-path="url(#clip660)" d="M1925.75 1548.76 L1925.75 1551.62 L1898.82 1551.62 Q1899.2 1557.67 1902.45 1560.85 Q1905.73 1564 1911.55 1564 Q1914.93 1564 1918.08 1563.17 Q1921.26 1562.35 1924.38 1560.69 L1924.38 1566.23 Q1921.23 1567.57 1917.92 1568.27 Q1914.61 1568.97 1911.2 1568.97 Q1902.67 1568.97 1897.68 1564 Q1892.71 1559.04 1892.71 1550.57 Q1892.71 1541.82 1897.42 1536.69 Q1902.16 1531.54 1910.19 1531.54 Q1917.38 1531.54 1921.55 1536.18 Q1925.75 1540.8 1925.75 1548.76 M1919.89 1547.04 Q1919.83 1542.23 1917.19 1539.37 Q1914.58 1536.5 1910.25 1536.5 Q1905.35 1536.5 1902.39 1539.27 Q1899.46 1542.04 1899.01 1547.07 L1919.89 1547.04 Z" fill="#000000" fill-rule="nonzero" fill-opacity="1" /><path clip-path="url(#clip660)" d="M1970.15 1518.58 Q1965.89 1525.9 1963.82 1533.06 Q1961.75 1540.23 1961.75 1547.58 Q1961.75 1554.93 1963.82 1562.16 Q1965.92 1569.35 1970.15 1576.64 L1965.06 1576.64 Q1960.28 1569.16 1957.9 1561.93 Q1955.54 1554.71 1955.54 1547.58 Q1955.54 1540.48 1957.9 1533.29 Q1960.25 1526.09 1965.06 1518.58 L1970.15 1518.58 Z" fill="#000000" fill-rule="nonzero" fill-opacity="1" /><path clip-path="url(#clip660)" d="M2004.24 1533.45 L2004.24 1538.98 Q2001.76 1537.71 1999.08 1537.07 Q1996.41 1536.44 1993.54 1536.44 Q1989.18 1536.44 1986.99 1537.77 Q1984.82 1539.11 1984.82 1541.79 Q1984.82 1543.82 1986.38 1545 Q1987.94 1546.15 1992.65 1547.2 L1994.66 1547.64 Q2000.9 1548.98 2003.51 1551.43 Q2006.15 1553.85 2006.15 1558.21 Q2006.15 1563.17 2002.2 1566.07 Q1998.29 1568.97 1991.41 1568.97 Q1988.55 1568.97 1985.43 1568.39 Q1982.34 1567.85 1978.9 1566.74 L1978.9 1560.69 Q1982.15 1562.38 1985.3 1563.24 Q1988.45 1564.07 1991.54 1564.07 Q1995.68 1564.07 1997.9 1562.66 Q2000.13 1561.23 2000.13 1558.65 Q2000.13 1556.27 1998.51 1554.99 Q1996.92 1553.72 1991.48 1552.54 L1989.44 1552.07 Q1984 1550.92 1981.58 1548.56 Q1979.16 1546.18 1979.16 1542.04 Q1979.16 1537.01 1982.72 1534.27 Q1986.29 1531.54 1992.84 1531.54 Q1996.09 1531.54 1998.96 1532.01 Q2001.82 1532.49 2004.24 1533.45 Z" fill="#000000" fill-rule="nonzero" fill-opacity="1" /><path clip-path="url(#clip660)" d="M2014.55 1518.58 L2019.64 1518.58 Q2024.42 1526.09 2026.77 1533.29 Q2029.16 1540.48 2029.16 1547.58 Q2029.16 1554.71 2026.77 1561.93 Q2024.42 1569.16 2019.64 1576.64 L2014.55 1576.64 Q2018.78 1569.35 2020.85 1562.16 Q2022.95 1554.93 2022.95 1547.58 Q2022.95 1540.23 2020.85 1533.06 Q2018.78 1525.9 2014.55 1518.58 Z" fill="#000000" fill-rule="nonzero" fill-opacity="1" /><polyline clip-path="url(#clip665)" style="stroke:#000000; stroke-linecap:round; stroke-linejoin:round; stroke-width:2; stroke-opacity:0.1; fill:none" points="1445.91,1349.04 2352.76,1349.04 "/>
<polyline clip-path="url(#clip665)" style="stroke:#000000; stroke-linecap:round; stroke-linejoin:round; stroke-width:2; stroke-opacity:0.1; fill:none" points="1445.91,1260.33 2352.76,1260.33 "/>
<polyline clip-path="url(#clip665)" style="stroke:#000000; stroke-linecap:round; stroke-linejoin:round; stroke-width:2; stroke-opacity:0.1; fill:none" points="1445.91,1171.62 2352.76,1171.62 "/>
<polyline clip-path="url(#clip665)" style="stroke:#000000; stroke-linecap:round; stroke-linejoin:round; stroke-width:2; stroke-opacity:0.1; fill:none" points="1445.91,1082.92 2352.76,1082.92 "/>
<polyline clip-path="url(#clip660)" style="stroke:#000000; stroke-linecap:round; stroke-linejoin:round; stroke-width:4; stroke-opacity:1; fill:none" points="1445.91,1423.18 1445.91,1071.73 "/>
<polyline clip-path="url(#clip660)" style="stroke:#000000; stroke-linecap:round; stroke-linejoin:round; stroke-width:4; stroke-opacity:1; fill:none" points="1445.91,1349.04 1464.81,1349.04 "/>
<polyline clip-path="url(#clip660)" style="stroke:#000000; stroke-linecap:round; stroke-linejoin:round; stroke-width:4; stroke-opacity:1; fill:none" points="1445.91,1260.33 1464.81,1260.33 "/>
<polyline clip-path="url(#clip660)" style="stroke:#000000; stroke-linecap:round; stroke-linejoin:round; stroke-width:4; stroke-opacity:1; fill:none" points="1445.91,1171.62 1464.81,1171.62 "/>
<polyline clip-path="url(#clip660)" style="stroke:#000000; stroke-linecap:round; stroke-linejoin:round; stroke-width:4; stroke-opacity:1; fill:none" points="1445.91,1082.92 1464.81,1082.92 "/>
<path clip-path="url(#clip660)" d="M1272.32 1349.49 L1301.99 1349.49 L1301.99 1353.43 L1272.32 1353.43 L1272.32 1349.49 Z" fill="#000000" fill-rule="nonzero" fill-opacity="1" /><path clip-path="url(#clip660)" d="M1322.08 1334.84 Q1318.47 1334.84 1316.64 1338.4 Q1314.84 1341.94 1314.84 1349.07 Q1314.84 1356.18 1316.64 1359.75 Q1318.47 1363.29 1322.08 1363.29 Q1325.72 1363.29 1327.52 1359.75 Q1329.35 1356.18 1329.35 1349.07 Q1329.35 1341.94 1327.52 1338.4 Q1325.72 1334.84 1322.08 1334.84 M1322.08 1331.13 Q1327.89 1331.13 1330.95 1335.74 Q1334.03 1340.32 1334.03 1349.07 Q1334.03 1357.8 1330.95 1362.41 Q1327.89 1366.99 1322.08 1366.99 Q1316.27 1366.99 1313.2 1362.41 Q1310.14 1357.8 1310.14 1349.07 Q1310.14 1340.32 1313.2 1335.74 Q1316.27 1331.13 1322.08 1331.13 Z" fill="#000000" fill-rule="nonzero" fill-opacity="1" /><path clip-path="url(#clip660)" d="M1342.25 1360.44 L1347.13 1360.44 L1347.13 1366.32 L1342.25 1366.32 L1342.25 1360.44 Z" fill="#000000" fill-rule="nonzero" fill-opacity="1" /><path clip-path="url(#clip660)" d="M1367.32 1334.84 Q1363.7 1334.84 1361.88 1338.4 Q1360.07 1341.94 1360.07 1349.07 Q1360.07 1356.18 1361.88 1359.75 Q1363.7 1363.29 1367.32 1363.29 Q1370.95 1363.29 1372.76 1359.75 Q1374.58 1356.18 1374.58 1349.07 Q1374.58 1341.94 1372.76 1338.4 Q1370.95 1334.84 1367.32 1334.84 M1367.32 1331.13 Q1373.13 1331.13 1376.18 1335.74 Q1379.26 1340.32 1379.26 1349.07 Q1379.26 1357.8 1376.18 1362.41 Q1373.13 1366.99 1367.32 1366.99 Q1361.51 1366.99 1358.43 1362.41 Q1355.37 1357.8 1355.37 1349.07 Q1355.37 1340.32 1358.43 1335.74 Q1361.51 1331.13 1367.32 1331.13 Z" fill="#000000" fill-rule="nonzero" fill-opacity="1" /><path clip-path="url(#clip660)" d="M1400.32 1335.83 L1388.52 1354.28 L1400.32 1354.28 L1400.32 1335.83 M1399.1 1331.76 L1404.98 1331.76 L1404.98 1354.28 L1409.91 1354.28 L1409.91 1358.17 L1404.98 1358.17 L1404.98 1366.32 L1400.32 1366.32 L1400.32 1358.17 L1384.72 1358.17 L1384.72 1353.66 L1399.1 1331.76 Z" fill="#000000" fill-rule="nonzero" fill-opacity="1" /><path clip-path="url(#clip660)" d="M1274.4 1260.78 L1304.08 1260.78 L1304.08 1264.72 L1274.4 1264.72 L1274.4 1260.78 Z" fill="#000000" fill-rule="nonzero" fill-opacity="1" /><path clip-path="url(#clip660)" d="M1324.17 1246.13 Q1320.56 1246.13 1318.73 1249.69 Q1316.92 1253.24 1316.92 1260.37 Q1316.92 1267.47 1318.73 1271.04 Q1320.56 1274.58 1324.17 1274.58 Q1327.8 1274.58 1329.61 1271.04 Q1331.44 1267.47 1331.44 1260.37 Q1331.44 1253.24 1329.61 1249.69 Q1327.8 1246.13 1324.17 1246.13 M1324.17 1242.43 Q1329.98 1242.43 1333.03 1247.03 Q1336.11 1251.62 1336.11 1260.37 Q1336.11 1269.09 1333.03 1273.7 Q1329.98 1278.28 1324.17 1278.28 Q1318.36 1278.28 1315.28 1273.7 Q1312.22 1269.09 1312.22 1260.37 Q1312.22 1251.62 1315.28 1247.03 Q1318.36 1242.43 1324.17 1242.43 Z" fill="#000000" fill-rule="nonzero" fill-opacity="1" /><path clip-path="url(#clip660)" d="M1344.33 1271.73 L1349.21 1271.73 L1349.21 1277.61 L1344.33 1277.61 L1344.33 1271.73 Z" fill="#000000" fill-rule="nonzero" fill-opacity="1" /><path clip-path="url(#clip660)" d="M1369.4 1246.13 Q1365.79 1246.13 1363.96 1249.69 Q1362.15 1253.24 1362.15 1260.37 Q1362.15 1267.47 1363.96 1271.04 Q1365.79 1274.58 1369.4 1274.58 Q1373.03 1274.58 1374.84 1271.04 Q1376.67 1267.47 1376.67 1260.37 Q1376.67 1253.24 1374.84 1249.69 Q1373.03 1246.13 1369.4 1246.13 M1369.4 1242.43 Q1375.21 1242.43 1378.26 1247.03 Q1381.34 1251.62 1381.34 1260.37 Q1381.34 1269.09 1378.26 1273.7 Q1375.21 1278.28 1369.4 1278.28 Q1363.59 1278.28 1360.51 1273.7 Q1357.45 1269.09 1357.45 1260.37 Q1357.45 1251.62 1360.51 1247.03 Q1363.59 1242.43 1369.4 1242.43 Z" fill="#000000" fill-rule="nonzero" fill-opacity="1" /><path clip-path="url(#clip660)" d="M1393.59 1273.68 L1409.91 1273.68 L1409.91 1277.61 L1387.96 1277.61 L1387.96 1273.68 Q1390.63 1270.92 1395.21 1266.29 Q1399.82 1261.64 1401 1260.3 Q1403.24 1257.77 1404.12 1256.04 Q1405.02 1254.28 1405.02 1252.59 Q1405.02 1249.83 1403.08 1248.1 Q1401.16 1246.36 1398.06 1246.36 Q1395.86 1246.36 1393.4 1247.13 Q1390.97 1247.89 1388.19 1249.44 L1388.19 1244.72 Q1391.02 1243.58 1393.47 1243 Q1395.93 1242.43 1397.96 1242.43 Q1403.33 1242.43 1406.53 1245.11 Q1409.72 1247.8 1409.72 1252.29 Q1409.72 1254.42 1408.91 1256.34 Q1408.13 1258.24 1406.02 1260.83 Q1405.44 1261.5 1402.34 1264.72 Q1399.24 1267.91 1393.59 1273.68 Z" fill="#000000" fill-rule="nonzero" fill-opacity="1" /><path clip-path="url(#clip660)" d="M1322.57 1157.42 Q1318.96 1157.42 1317.13 1160.99 Q1315.32 1164.53 1315.32 1171.66 Q1315.32 1178.76 1317.13 1182.33 Q1318.96 1185.87 1322.57 1185.87 Q1326.2 1185.87 1328.01 1182.33 Q1329.84 1178.76 1329.84 1171.66 Q1329.84 1164.53 1328.01 1160.99 Q1326.2 1157.42 1322.57 1157.42 M1322.57 1153.72 Q1328.38 1153.72 1331.44 1158.32 Q1334.51 1162.91 1334.51 1171.66 Q1334.51 1180.39 1331.44 1184.99 Q1328.38 1189.57 1322.57 1189.57 Q1316.76 1189.57 1313.68 1184.99 Q1310.63 1180.39 1310.63 1171.66 Q1310.63 1162.91 1313.68 1158.32 Q1316.76 1153.72 1322.57 1153.72 Z" fill="#000000" fill-rule="nonzero" fill-opacity="1" /><path clip-path="url(#clip660)" d="M1342.73 1183.02 L1347.62 1183.02 L1347.62 1188.9 L1342.73 1188.9 L1342.73 1183.02 Z" fill="#000000" fill-rule="nonzero" fill-opacity="1" /><path clip-path="url(#clip660)" d="M1367.8 1157.42 Q1364.19 1157.42 1362.36 1160.99 Q1360.56 1164.53 1360.56 1171.66 Q1360.56 1178.76 1362.36 1182.33 Q1364.19 1185.87 1367.8 1185.87 Q1371.44 1185.87 1373.24 1182.33 Q1375.07 1178.76 1375.07 1171.66 Q1375.07 1164.53 1373.24 1160.99 Q1371.44 1157.42 1367.8 1157.42 M1367.8 1153.72 Q1373.61 1153.72 1376.67 1158.32 Q1379.75 1162.91 1379.75 1171.66 Q1379.75 1180.39 1376.67 1184.99 Q1373.61 1189.57 1367.8 1189.57 Q1361.99 1189.57 1358.91 1184.99 Q1355.86 1180.39 1355.86 1171.66 Q1355.86 1162.91 1358.91 1158.32 Q1361.99 1153.72 1367.8 1153.72 Z" fill="#000000" fill-rule="nonzero" fill-opacity="1" /><path clip-path="url(#clip660)" d="M1397.96 1157.42 Q1394.35 1157.42 1392.52 1160.99 Q1390.72 1164.53 1390.72 1171.66 Q1390.72 1178.76 1392.52 1182.33 Q1394.35 1185.87 1397.96 1185.87 Q1401.6 1185.87 1403.4 1182.33 Q1405.23 1178.76 1405.23 1171.66 Q1405.23 1164.53 1403.4 1160.99 Q1401.6 1157.42 1397.96 1157.42 M1397.96 1153.72 Q1403.77 1153.72 1406.83 1158.32 Q1409.91 1162.91 1409.91 1171.66 Q1409.91 1180.39 1406.83 1184.99 Q1403.77 1189.57 1397.96 1189.57 Q1392.15 1189.57 1389.07 1184.99 Q1386.02 1180.39 1386.02 1171.66 Q1386.02 1162.91 1389.07 1158.32 Q1392.15 1153.72 1397.96 1153.72 Z" fill="#000000" fill-rule="nonzero" fill-opacity="1" /><path clip-path="url(#clip660)" d="M1324.17 1068.71 Q1320.56 1068.71 1318.73 1072.28 Q1316.92 1075.82 1316.92 1082.95 Q1316.92 1090.06 1318.73 1093.62 Q1320.56 1097.16 1324.17 1097.16 Q1327.8 1097.16 1329.61 1093.62 Q1331.44 1090.06 1331.44 1082.95 Q1331.44 1075.82 1329.61 1072.28 Q1327.8 1068.71 1324.17 1068.71 M1324.17 1065.01 Q1329.98 1065.01 1333.03 1069.62 Q1336.11 1074.2 1336.11 1082.95 Q1336.11 1091.68 1333.03 1096.28 Q1329.98 1100.87 1324.17 1100.87 Q1318.36 1100.87 1315.28 1096.28 Q1312.22 1091.68 1312.22 1082.95 Q1312.22 1074.2 1315.28 1069.62 Q1318.36 1065.01 1324.17 1065.01 Z" fill="#000000" fill-rule="nonzero" fill-opacity="1" /><path clip-path="url(#clip660)" d="M1344.33 1094.32 L1349.21 1094.32 L1349.21 1100.2 L1344.33 1100.2 L1344.33 1094.32 Z" fill="#000000" fill-rule="nonzero" fill-opacity="1" /><path clip-path="url(#clip660)" d="M1369.4 1068.71 Q1365.79 1068.71 1363.96 1072.28 Q1362.15 1075.82 1362.15 1082.95 Q1362.15 1090.06 1363.96 1093.62 Q1365.79 1097.16 1369.4 1097.16 Q1373.03 1097.16 1374.84 1093.62 Q1376.67 1090.06 1376.67 1082.95 Q1376.67 1075.82 1374.84 1072.28 Q1373.03 1068.71 1369.4 1068.71 M1369.4 1065.01 Q1375.21 1065.01 1378.26 1069.62 Q1381.34 1074.2 1381.34 1082.95 Q1381.34 1091.68 1378.26 1096.28 Q1375.21 1100.87 1369.4 1100.87 Q1363.59 1100.87 1360.51 1096.28 Q1357.45 1091.68 1357.45 1082.95 Q1357.45 1074.2 1360.51 1069.62 Q1363.59 1065.01 1369.4 1065.01 Z" fill="#000000" fill-rule="nonzero" fill-opacity="1" /><path clip-path="url(#clip660)" d="M1393.59 1096.26 L1409.91 1096.26 L1409.91 1100.2 L1387.96 1100.2 L1387.96 1096.26 Q1390.63 1093.51 1395.21 1088.88 Q1399.82 1084.22 1401 1082.88 Q1403.24 1080.36 1404.12 1078.62 Q1405.02 1076.86 1405.02 1075.17 Q1405.02 1072.42 1403.08 1070.68 Q1401.16 1068.95 1398.06 1068.95 Q1395.86 1068.95 1393.4 1069.71 Q1390.97 1070.47 1388.19 1072.02 L1388.19 1067.3 Q1391.02 1066.17 1393.47 1065.59 Q1395.93 1065.01 1397.96 1065.01 Q1403.33 1065.01 1406.53 1067.7 Q1409.72 1070.38 1409.72 1074.87 Q1409.72 1077 1408.91 1078.92 Q1408.13 1080.82 1406.02 1083.41 Q1405.44 1084.08 1402.34 1087.3 Q1399.24 1090.5 1393.59 1096.26 Z" fill="#000000" fill-rule="nonzero" fill-opacity="1" /><path clip-path="url(#clip660)" d="M1182.01 1250.93 L1182.94 1251.49 Q1181.43 1254.99 1179.02 1259.34 Q1181.43 1263.69 1182.94 1267.19 L1182.01 1267.73 Q1178.7 1263.92 1176.15 1259.34 Q1178.72 1254.72 1182.01 1250.93 Z" fill="#000000" fill-rule="nonzero" fill-opacity="1" /><path clip-path="url(#clip660)" d="M1194.31 1247.77 Q1196.12 1247.77 1197.15 1248.9 Q1198.14 1250.02 1198.14 1251.31 Q1198.14 1252.54 1197.44 1253.18 Q1196.73 1253.82 1195.83 1253.82 Q1194.6 1253.82 1193.54 1252.92 Q1192.48 1252.02 1192.25 1250.67 Q1191.41 1251.99 1191.41 1253.95 Q1191.41 1255.24 1192.09 1256.37 Q1192.77 1257.46 1193.64 1258.14 Q1194.51 1258.78 1195.76 1259.36 Q1196.99 1259.91 1197.73 1260.14 Q1198.43 1260.33 1199.21 1260.49 L1208.23 1262.74 Q1212.51 1263.84 1214.02 1263.84 Q1215.89 1263.84 1217.15 1262.94 Q1218.37 1262.04 1218.37 1260.23 Q1218.37 1259.52 1218.18 1258.72 Q1217.95 1257.91 1217.37 1256.88 Q1216.76 1255.82 1215.86 1254.89 Q1214.92 1253.92 1213.35 1252.99 Q1211.77 1252.05 1209.74 1251.44 Q1209.03 1251.25 1209.03 1250.6 Q1209.03 1249.8 1209.67 1249.8 Q1210.22 1249.8 1211.38 1250.25 Q1212.51 1250.67 1213.99 1251.6 Q1215.44 1252.5 1216.76 1253.69 Q1218.05 1254.89 1218.95 1256.66 Q1219.85 1258.43 1219.85 1260.36 Q1219.85 1263.13 1218.37 1264.97 Q1216.89 1266.8 1214.83 1267.48 Q1215.12 1267.64 1215.5 1267.87 Q1215.89 1268.09 1216.76 1268.77 Q1217.6 1269.41 1218.24 1270.15 Q1218.85 1270.89 1219.34 1272.05 Q1219.85 1273.18 1219.85 1274.4 Q1219.85 1275.95 1219.4 1277.33 Q1218.95 1278.69 1217.92 1279.65 Q1216.89 1280.62 1215.47 1280.62 Q1213.89 1280.62 1212.8 1279.56 Q1211.67 1278.46 1211.67 1276.98 Q1211.67 1276.05 1212.22 1275.3 Q1212.77 1274.53 1213.96 1274.53 Q1215.28 1274.53 1216.28 1275.43 Q1217.27 1276.34 1217.53 1277.62 Q1218.37 1276.3 1218.37 1274.34 Q1218.37 1272.21 1216.5 1270.54 Q1214.63 1268.86 1211.51 1268.06 Q1204.01 1266.06 1200.66 1265.29 Q1197.28 1264.52 1195.83 1264.52 Q1194.47 1264.52 1193.54 1264.87 Q1192.61 1265.22 1192.19 1265.84 Q1191.74 1266.42 1191.57 1266.96 Q1191.41 1267.48 1191.41 1268.06 Q1191.41 1269.02 1191.8 1270.12 Q1192.19 1271.18 1193.09 1272.47 Q1193.96 1273.73 1195.76 1274.92 Q1197.56 1276.11 1200.04 1276.92 Q1200.79 1277.08 1200.79 1277.78 Q1200.75 1278.56 1200.11 1278.56 Q1199.56 1278.56 1198.43 1278.14 Q1197.28 1277.69 1195.83 1276.79 Q1194.38 1275.85 1193.09 1274.66 Q1191.77 1273.44 1190.87 1271.67 Q1189.96 1269.86 1189.96 1267.93 Q1189.96 1267.06 1190.16 1266.22 Q1190.32 1265.35 1190.8 1264.32 Q1191.28 1263.26 1192.35 1262.33 Q1193.41 1261.39 1194.96 1260.81 Q1194.22 1260.43 1193.51 1259.91 Q1192.8 1259.36 1191.93 1258.53 Q1191.03 1257.66 1190.51 1256.46 Q1189.96 1255.24 1189.96 1253.89 Q1189.96 1252.57 1190.32 1251.28 Q1190.64 1249.99 1191.7 1248.9 Q1192.73 1247.77 1194.31 1247.77 Z" fill="#000000" fill-rule="nonzero" fill-opacity="1" /><path clip-path="url(#clip660)" d="M1231.9 1240.31 Q1230.52 1240.31 1229.87 1239.52 Q1229.22 1238.73 1229.22 1237.72 Q1229.22 1236.66 1229.92 1235.91 Q1230.59 1235.15 1231.79 1235.15 Q1233.07 1235.15 1233.79 1236.05 Q1234.51 1236.93 1234.33 1238.19 Q1236.18 1237.09 1237.02 1235.06 Q1237.85 1233.01 1237.85 1231.11 Q1237.85 1229.13 1236.14 1227.53 Q1234.42 1225.9 1230.23 1225.9 Q1226.67 1225.9 1224.62 1227.3 Q1222.57 1228.68 1222.57 1231.4 L1222.57 1233.43 Q1222.57 1234.13 1222.5 1234.34 Q1222.43 1234.54 1222.05 1234.54 Q1221.6 1234.54 1221.51 1233.84 Q1221.51 1233.14 1221.37 1232.04 Q1221.28 1229.35 1218.96 1227.93 Q1216.79 1226.65 1213.71 1226.65 Q1210.89 1226.65 1209.72 1228 Q1208.52 1229.33 1208.52 1231.07 Q1208.52 1232.69 1209.2 1234.47 Q1209.87 1236.25 1211.38 1237.22 Q1211.38 1234.36 1213.71 1234.36 Q1214.72 1234.36 1215.4 1235.01 Q1216.05 1235.64 1216.05 1236.7 Q1216.05 1237.72 1215.42 1238.39 Q1214.77 1239.07 1213.66 1239.07 Q1211.02 1239.07 1209.2 1236.73 Q1207.37 1234.36 1207.37 1230.89 Q1207.37 1227.46 1209.17 1224.93 Q1210.98 1222.39 1213.75 1222.39 Q1216.48 1222.39 1218.71 1224.19 Q1220.94 1225.99 1221.87 1228.86 Q1222.57 1225.34 1224.96 1223.24 Q1227.32 1221.15 1230.23 1221.15 Q1233.84 1221.15 1236.5 1223.99 Q1239.14 1226.83 1239.14 1230.98 Q1239.14 1234.81 1237.06 1237.56 Q1234.99 1240.31 1231.9 1240.31 Z" fill="#000000" fill-rule="nonzero" fill-opacity="1" /><polyline clip-path="url(#clip665)" style="stroke:#e26f46; stroke-linecap:round; stroke-linejoin:round; stroke-width:3; stroke-opacity:1; fill:none" stroke-dasharray="12, 6, 2, 6" points="1471.57,1171.62 1496.74,1171.62 1521.9,1408.32 1547.06,1269.84 1572.22,1221.79 1597.38,1332.7 1622.55,1333.55 1647.71,1413.23 1672.87,1281.61 1698.03,1251.35 1723.2,1257.27 1748.36,1272.11 1773.52,1228.49 1798.68,1172.71 1823.85,1149.26 1849.01,1133.27 1874.17,1081.68 1899.33,1217.32 1924.49,1178.38 1949.66,1195.47 1974.82,1141.38 1999.98,1144.32 2025.14,1151.97 2050.31,1185.33 2075.47,1131.18 2100.63,1213.62 2125.79,1195.1 2150.95,1138.36 2176.12,1202.26 2201.28,1180.79 2226.44,1149.04 2251.6,1206.85 2276.77,1187.97 2301.93,1127.83 2327.09,1161.24 "/>
</svg>
