<?xml version="1.0" encoding="utf-8"?>
<svg xmlns="http://www.w3.org/2000/svg" xmlns:xlink="http://www.w3.org/1999/xlink" width="600" height="400" viewBox="0 0 2400 1600">
<defs>
  <clipPath id="clip850">
    <rect x="0" y="0" width="2400" height="1600"/>
  </clipPath>
</defs>
<path clip-path="url(#clip850)" d="M0 1600 L2400 1600 L2400 0 L0 0  Z" fill="#ffffff" fill-rule="evenodd" fill-opacity="1"/>
<defs>
  <clipPath id="clip851">
    <rect x="203" y="47" width="2150" height="1377"/>
  </clipPath>
</defs>
<path clip-path="url(#clip850)" d="M203.964 1423.18 L1110.81 1423.18 L1110.81 47.2441 L203.964 47.2441  Z" fill="#ffffff" fill-rule="evenodd" fill-opacity="1"/>
<defs>
  <clipPath id="clip852">
    <rect x="203" y="47" width="908" height="1377"/>
  </clipPath>
</defs>
<polyline clip-path="url(#clip852)" style="stroke:#000000; stroke-linecap:round; stroke-linejoin:round; stroke-width:2; stroke-opacity:0.1; fill:none" points="229.629,1423.18 229.629,47.2441 "/>
<polyline clip-path="url(#clip852)" style="stroke:#000000; stroke-linecap:round; stroke-linejoin:round; stroke-width:2; stroke-opacity:0.1; fill:none" points="481.252,1423.18 481.252,47.2441 "/>
<polyline clip-path="url(#clip852)" style="stroke:#000000; stroke-linecap:round; stroke-linejoin:round; stroke-width:2; stroke-opacity:0.1; fill:none" points="732.874,1423.18 732.874,47.2441 "/>
<polyline clip-path="url(#clip852)" style="stroke:#000000; stroke-linecap:round; stroke-linejoin:round; stroke-width:2; stroke-opacity:0.1; fill:none" points="984.497,1423.18 984.497,47.2441 "/>
<polyline clip-path="url(#clip852)" style="stroke:#000000; stroke-linecap:round; stroke-linejoin:round; stroke-width:2; stroke-opacity:0.1; fill:none" points="203.964,1391.18 1110.81,1391.18 "/>
<polyline clip-path="url(#clip852)" style="stroke:#000000; stroke-linecap:round; stroke-linejoin:round; stroke-width:2; stroke-opacity:0.1; fill:none" points="203.964,1167.12 1110.81,1167.12 "/>
<polyline clip-path="url(#clip852)" style="stroke:#000000; stroke-linecap:round; stroke-linejoin:round; stroke-width:2; stroke-opacity:0.1; fill:none" points="203.964,943.068 1110.81,943.068 "/>
<polyline clip-path="url(#clip852)" style="stroke:#000000; stroke-linecap:round; stroke-linejoin:round; stroke-width:2; stroke-opacity:0.1; fill:none" points="203.964,719.011 1110.81,719.011 "/>
<polyline clip-path="url(#clip852)" style="stroke:#000000; stroke-linecap:round; stroke-linejoin:round; stroke-width:2; stroke-opacity:0.1; fill:none" points="203.964,494.955 1110.81,494.955 "/>
<polyline clip-path="url(#clip852)" style="stroke:#000000; stroke-linecap:round; stroke-linejoin:round; stroke-width:2; stroke-opacity:0.1; fill:none" points="203.964,270.898 1110.81,270.898 "/>
<polyline clip-path="url(#clip850)" style="stroke:#000000; stroke-linecap:round; stroke-linejoin:round; stroke-width:4; stroke-opacity:1; fill:none" points="203.964,1423.18 1110.81,1423.18 "/>
<polyline clip-path="url(#clip850)" style="stroke:#000000; stroke-linecap:round; stroke-linejoin:round; stroke-width:4; stroke-opacity:1; fill:none" points="229.629,1423.18 229.629,1404.28 "/>
<polyline clip-path="url(#clip850)" style="stroke:#000000; stroke-linecap:round; stroke-linejoin:round; stroke-width:4; stroke-opacity:1; fill:none" points="481.252,1423.18 481.252,1404.28 "/>
<polyline clip-path="url(#clip850)" style="stroke:#000000; stroke-linecap:round; stroke-linejoin:round; stroke-width:4; stroke-opacity:1; fill:none" points="732.874,1423.18 732.874,1404.28 "/>
<polyline clip-path="url(#clip850)" style="stroke:#000000; stroke-linecap:round; stroke-linejoin:round; stroke-width:4; stroke-opacity:1; fill:none" points="984.497,1423.18 984.497,1404.28 "/>
<path clip-path="url(#clip850)" d="M229.629 1454.1 Q226.018 1454.1 224.189 1457.66 Q222.384 1461.2 222.384 1468.33 Q222.384 1475.44 224.189 1479.01 Q226.018 1482.55 229.629 1482.55 Q233.263 1482.55 235.069 1479.01 Q236.898 1475.44 236.898 1468.33 Q236.898 1461.2 235.069 1457.66 Q233.263 1454.1 229.629 1454.1 M229.629 1450.39 Q235.439 1450.39 238.495 1455 Q241.573 1459.58 241.573 1468.33 Q241.573 1477.06 238.495 1481.67 Q235.439 1486.25 229.629 1486.25 Q223.819 1486.25 220.74 1481.67 Q217.685 1477.06 217.685 1468.33 Q217.685 1459.58 220.74 1455 Q223.819 1450.39 229.629 1450.39 Z" fill="#000000" fill-rule="nonzero" fill-opacity="1" /><path clip-path="url(#clip850)" d="M471.634 1481.64 L479.273 1481.64 L479.273 1455.28 L470.962 1456.95 L470.962 1452.69 L479.226 1451.02 L483.902 1451.02 L483.902 1481.64 L491.541 1481.64 L491.541 1485.58 L471.634 1485.58 L471.634 1481.64 Z" fill="#000000" fill-rule="nonzero" fill-opacity="1" /><path clip-path="url(#clip850)" d="M727.527 1481.64 L743.847 1481.64 L743.847 1485.58 L721.902 1485.58 L721.902 1481.64 Q724.564 1478.89 729.148 1474.26 Q733.754 1469.61 734.935 1468.27 Q737.18 1465.74 738.06 1464.01 Q738.962 1462.25 738.962 1460.56 Q738.962 1457.8 737.018 1456.07 Q735.097 1454.33 731.995 1454.33 Q729.796 1454.33 727.342 1455.09 Q724.912 1455.86 722.134 1457.41 L722.134 1452.69 Q724.958 1451.55 727.411 1450.97 Q729.865 1450.39 731.902 1450.39 Q737.273 1450.39 740.467 1453.08 Q743.661 1455.77 743.661 1460.26 Q743.661 1462.39 742.851 1464.31 Q742.064 1466.2 739.958 1468.8 Q739.379 1469.47 736.277 1472.69 Q733.175 1475.88 727.527 1481.64 Z" fill="#000000" fill-rule="nonzero" fill-opacity="1" /><path clip-path="url(#clip850)" d="M988.745 1466.95 Q992.101 1467.66 993.976 1469.93 Q995.874 1472.2 995.874 1475.53 Q995.874 1480.65 992.356 1483.45 Q988.837 1486.25 982.356 1486.25 Q980.18 1486.25 977.865 1485.81 Q975.574 1485.39 973.12 1484.54 L973.12 1480.02 Q975.064 1481.16 977.379 1481.74 Q979.694 1482.32 982.217 1482.32 Q986.615 1482.32 988.907 1480.58 Q991.222 1478.84 991.222 1475.53 Q991.222 1472.48 989.069 1470.77 Q986.939 1469.03 983.12 1469.03 L979.092 1469.03 L979.092 1465.19 L983.305 1465.19 Q986.754 1465.19 988.583 1463.82 Q990.411 1462.43 990.411 1459.84 Q990.411 1457.18 988.513 1455.77 Q986.638 1454.33 983.12 1454.33 Q981.199 1454.33 978.999 1454.75 Q976.8 1455.16 974.162 1456.04 L974.162 1451.88 Q976.824 1451.14 979.138 1450.77 Q981.476 1450.39 983.536 1450.39 Q988.861 1450.39 991.962 1452.83 Q995.064 1455.23 995.064 1459.35 Q995.064 1462.22 993.421 1464.21 Q991.777 1466.18 988.745 1466.95 Z" fill="#000000" fill-rule="nonzero" fill-opacity="1" /><path clip-path="url(#clip850)" d="M527.559 1520.52 L567.758 1520.52 L567.758 1525.93 L550.889 1525.93 L550.889 1568.04 L544.428 1568.04 L544.428 1525.93 L527.559 1525.93 L527.559 1520.52 Z" fill="#000000" fill-rule="nonzero" fill-opacity="1" /><path clip-path="url(#clip850)" d="M571.705 1532.4 L577.562 1532.4 L577.562 1568.04 L571.705 1568.04 L571.705 1532.4 M571.705 1518.52 L577.562 1518.52 L577.562 1525.93 L571.705 1525.93 L571.705 1518.52 Z" fill="#000000" fill-rule="nonzero" fill-opacity="1" /><path clip-path="url(#clip850)" d="M617.57 1539.24 Q619.766 1535.29 622.822 1533.41 Q625.877 1531.54 630.015 1531.54 Q635.585 1531.54 638.609 1535.45 Q641.633 1539.33 641.633 1546.53 L641.633 1568.04 L635.744 1568.04 L635.744 1546.72 Q635.744 1541.59 633.93 1539.11 Q632.116 1536.63 628.392 1536.63 Q623.84 1536.63 621.199 1539.65 Q618.557 1542.68 618.557 1547.9 L618.557 1568.04 L612.669 1568.04 L612.669 1546.72 Q612.669 1541.56 610.854 1539.11 Q609.04 1536.63 605.252 1536.63 Q600.765 1536.63 598.123 1539.68 Q595.481 1542.71 595.481 1547.9 L595.481 1568.04 L589.593 1568.04 L589.593 1532.4 L595.481 1532.4 L595.481 1537.93 Q597.486 1534.66 600.287 1533.1 Q603.088 1531.54 606.939 1531.54 Q610.822 1531.54 613.528 1533.51 Q616.265 1535.48 617.57 1539.24 Z" fill="#000000" fill-rule="nonzero" fill-opacity="1" /><path clip-path="url(#clip850)" d="M683.805 1548.76 L683.805 1551.62 L656.878 1551.62 Q657.26 1557.67 660.507 1560.85 Q663.785 1564 669.61 1564 Q672.984 1564 676.135 1563.17 Q679.317 1562.35 682.437 1560.69 L682.437 1566.23 Q679.286 1567.57 675.975 1568.27 Q672.665 1568.97 669.26 1568.97 Q660.73 1568.97 655.733 1564 Q650.767 1559.04 650.767 1550.57 Q650.767 1541.82 655.478 1536.69 Q660.22 1531.54 668.241 1531.54 Q675.434 1531.54 679.604 1536.18 Q683.805 1540.8 683.805 1548.76 M677.949 1547.04 Q677.885 1542.23 675.243 1539.37 Q672.633 1536.5 668.305 1536.5 Q663.403 1536.5 660.443 1539.27 Q657.515 1542.04 657.069 1547.07 L677.949 1547.04 Z" fill="#000000" fill-rule="nonzero" fill-opacity="1" /><path clip-path="url(#clip850)" d="M728.206 1518.58 Q723.941 1525.9 721.872 1533.06 Q719.803 1540.23 719.803 1547.58 Q719.803 1554.93 721.872 1562.16 Q723.973 1569.35 728.206 1576.64 L723.114 1576.64 Q718.339 1569.16 715.952 1561.93 Q713.597 1554.71 713.597 1547.58 Q713.597 1540.48 715.952 1533.29 Q718.307 1526.09 723.114 1518.58 L728.206 1518.58 Z" fill="#000000" fill-rule="nonzero" fill-opacity="1" /><path clip-path="url(#clip850)" d="M762.294 1533.45 L762.294 1538.98 Q759.812 1537.71 757.138 1537.07 Q754.465 1536.44 751.6 1536.44 Q747.24 1536.44 745.043 1537.77 Q742.879 1539.11 742.879 1541.79 Q742.879 1543.82 744.439 1545 Q745.998 1546.15 750.709 1547.2 L752.714 1547.64 Q758.952 1548.98 761.562 1551.43 Q764.204 1553.85 764.204 1558.21 Q764.204 1563.17 760.257 1566.07 Q756.343 1568.97 749.468 1568.97 Q746.603 1568.97 743.484 1568.39 Q740.396 1567.85 736.959 1566.74 L736.959 1560.69 Q740.205 1562.38 743.356 1563.24 Q746.508 1564.07 749.595 1564.07 Q753.733 1564.07 755.961 1562.66 Q758.189 1561.23 758.189 1558.65 Q758.189 1556.27 756.565 1554.99 Q754.974 1553.72 749.531 1552.54 L747.494 1552.07 Q742.052 1550.92 739.633 1548.56 Q737.214 1546.18 737.214 1542.04 Q737.214 1537.01 740.778 1534.27 Q744.343 1531.54 750.9 1531.54 Q754.146 1531.54 757.011 1532.01 Q759.876 1532.49 762.294 1533.45 Z" fill="#000000" fill-rule="nonzero" fill-opacity="1" /><path clip-path="url(#clip850)" d="M772.607 1518.58 L777.699 1518.58 Q782.474 1526.09 784.829 1533.29 Q787.216 1540.48 787.216 1547.58 Q787.216 1554.71 784.829 1561.93 Q782.474 1569.16 777.699 1576.64 L772.607 1576.64 Q776.84 1569.35 778.909 1562.16 Q781.01 1554.93 781.01 1547.58 Q781.01 1540.23 778.909 1533.06 Q776.84 1525.9 772.607 1518.58 Z" fill="#000000" fill-rule="nonzero" fill-opacity="1" /><polyline clip-path="url(#clip850)" style="stroke:#000000; stroke-linecap:round; stroke-linejoin:round; stroke-width:4; stroke-opacity:1; fill:none" points="203.964,1423.18 203.964,47.2441 "/>
<polyline clip-path="url(#clip850)" style="stroke:#000000; stroke-linecap:round; stroke-linejoin:round; stroke-width:4; stroke-opacity:1; fill:none" points="203.964,1391.18 222.861,1391.18 "/>
<polyline clip-path="url(#clip850)" style="stroke:#000000; stroke-linecap:round; stroke-linejoin:round; stroke-width:4; stroke-opacity:1; fill:none" points="203.964,1167.12 222.861,1167.12 "/>
<polyline clip-path="url(#clip850)" style="stroke:#000000; stroke-linecap:round; stroke-linejoin:round; stroke-width:4; stroke-opacity:1; fill:none" points="203.964,943.068 222.861,943.068 "/>
<polyline clip-path="url(#clip850)" style="stroke:#000000; stroke-linecap:round; stroke-linejoin:round; stroke-width:4; stroke-opacity:1; fill:none" points="203.964,719.011 222.861,719.011 "/>
<polyline clip-path="url(#clip850)" style="stroke:#000000; stroke-linecap:round; stroke-linejoin:round; stroke-width:4; stroke-opacity:1; fill:none" points="203.964,494.955 222.861,494.955 "/>
<polyline clip-path="url(#clip850)" style="stroke:#000000; stroke-linecap:round; stroke-linejoin:round; stroke-width:4; stroke-opacity:1; fill:none" points="203.964,270.898 222.861,270.898 "/>
<path clip-path="url(#clip850)" d="M156.019 1376.98 Q152.408 1376.98 150.579 1380.54 Q148.774 1384.09 148.774 1391.22 Q148.774 1398.32 150.579 1401.89 Q152.408 1405.43 156.019 1405.43 Q159.653 1405.43 161.459 1401.89 Q163.288 1398.32 163.288 1391.22 Q163.288 1384.09 161.459 1380.54 Q159.653 1376.98 156.019 1376.98 M156.019 1373.28 Q161.829 1373.28 164.885 1377.88 Q167.964 1382.47 167.964 1391.22 Q167.964 1399.94 164.885 1404.55 Q161.829 1409.13 156.019 1409.13 Q150.209 1409.13 147.13 1404.55 Q144.075 1399.94 144.075 1391.22 Q144.075 1382.47 147.13 1377.88 Q150.209 1373.28 156.019 1373.28 Z" fill="#000000" fill-rule="nonzero" fill-opacity="1" /><path clip-path="url(#clip850)" d="M147.061 1149.84 L165.417 1149.84 L165.417 1153.78 L151.343 1153.78 L151.343 1162.25 Q152.362 1161.9 153.38 1161.74 Q154.399 1161.56 155.417 1161.56 Q161.204 1161.56 164.584 1164.73 Q167.964 1167.9 167.964 1173.32 Q167.964 1178.89 164.491 1182 Q161.019 1185.08 154.7 1185.08 Q152.524 1185.08 150.255 1184.71 Q148.01 1184.33 145.603 1183.59 L145.603 1178.89 Q147.686 1180.03 149.908 1180.58 Q152.13 1181.14 154.607 1181.14 Q158.612 1181.14 160.95 1179.03 Q163.288 1176.93 163.288 1173.32 Q163.288 1169.71 160.95 1167.6 Q158.612 1165.49 154.607 1165.49 Q152.732 1165.49 150.857 1165.91 Q149.005 1166.33 147.061 1167.21 L147.061 1149.84 Z" fill="#000000" fill-rule="nonzero" fill-opacity="1" /><path clip-path="url(#clip850)" d="M116.668 956.413 L124.306 956.413 L124.306 930.047 L115.996 931.714 L115.996 927.454 L124.26 925.788 L128.936 925.788 L128.936 956.413 L136.575 956.413 L136.575 960.348 L116.668 960.348 L116.668 956.413 Z" fill="#000000" fill-rule="nonzero" fill-opacity="1" /><path clip-path="url(#clip850)" d="M156.019 928.866 Q152.408 928.866 150.579 932.431 Q148.774 935.973 148.774 943.102 Q148.774 950.209 150.579 953.774 Q152.408 957.315 156.019 957.315 Q159.653 957.315 161.459 953.774 Q163.288 950.209 163.288 943.102 Q163.288 935.973 161.459 932.431 Q159.653 928.866 156.019 928.866 M156.019 925.163 Q161.829 925.163 164.885 929.769 Q167.964 934.352 167.964 943.102 Q167.964 951.829 164.885 956.436 Q161.829 961.019 156.019 961.019 Q150.209 961.019 147.13 956.436 Q144.075 951.829 144.075 943.102 Q144.075 934.352 147.13 929.769 Q150.209 925.163 156.019 925.163 Z" fill="#000000" fill-rule="nonzero" fill-opacity="1" /><path clip-path="url(#clip850)" d="M117.663 732.356 L125.302 732.356 L125.302 705.99 L116.992 707.657 L116.992 703.398 L125.255 701.731 L129.931 701.731 L129.931 732.356 L137.57 732.356 L137.57 736.291 L117.663 736.291 L117.663 732.356 Z" fill="#000000" fill-rule="nonzero" fill-opacity="1" /><path clip-path="url(#clip850)" d="M147.061 701.731 L165.417 701.731 L165.417 705.666 L151.343 705.666 L151.343 714.138 Q152.362 713.791 153.38 713.629 Q154.399 713.444 155.417 713.444 Q161.204 713.444 164.584 716.615 Q167.964 719.787 167.964 725.203 Q167.964 730.782 164.491 733.884 Q161.019 736.962 154.7 736.962 Q152.524 736.962 150.255 736.592 Q148.01 736.222 145.603 735.481 L145.603 730.782 Q147.686 731.916 149.908 732.472 Q152.13 733.027 154.607 733.027 Q158.612 733.027 160.95 730.921 Q163.288 728.814 163.288 725.203 Q163.288 721.592 160.95 719.486 Q158.612 717.379 154.607 717.379 Q152.732 717.379 150.857 717.796 Q149.005 718.213 147.061 719.092 L147.061 701.731 Z" fill="#000000" fill-rule="nonzero" fill-opacity="1" /><path clip-path="url(#clip850)" d="M119.885 508.299 L136.204 508.299 L136.204 512.235 L114.26 512.235 L114.26 508.299 Q116.922 505.545 121.505 500.915 Q126.112 496.263 127.292 494.92 Q129.538 492.397 130.417 490.661 Q131.32 488.901 131.32 487.212 Q131.32 484.457 129.376 482.721 Q127.455 480.985 124.353 480.985 Q122.154 480.985 119.7 481.749 Q117.269 482.513 114.492 484.063 L114.492 479.341 Q117.316 478.207 119.769 477.628 Q122.223 477.05 124.26 477.05 Q129.63 477.05 132.825 479.735 Q136.019 482.42 136.019 486.911 Q136.019 489.04 135.209 490.962 Q134.422 492.86 132.316 495.452 Q131.737 496.124 128.635 499.341 Q125.533 502.536 119.885 508.299 Z" fill="#000000" fill-rule="nonzero" fill-opacity="1" /><path clip-path="url(#clip850)" d="M156.019 480.753 Q152.408 480.753 150.579 484.318 Q148.774 487.86 148.774 494.989 Q148.774 502.096 150.579 505.661 Q152.408 509.202 156.019 509.202 Q159.653 509.202 161.459 505.661 Q163.288 502.096 163.288 494.989 Q163.288 487.86 161.459 484.318 Q159.653 480.753 156.019 480.753 M156.019 477.05 Q161.829 477.05 164.885 481.656 Q167.964 486.239 167.964 494.989 Q167.964 503.716 164.885 508.323 Q161.829 512.906 156.019 512.906 Q150.209 512.906 147.13 508.323 Q144.075 503.716 144.075 494.989 Q144.075 486.239 147.13 481.656 Q150.209 477.05 156.019 477.05 Z" fill="#000000" fill-rule="nonzero" fill-opacity="1" /><path clip-path="url(#clip850)" d="M120.88 284.243 L137.2 284.243 L137.2 288.178 L115.256 288.178 L115.256 284.243 Q117.918 281.488 122.501 276.859 Q127.107 272.206 128.288 270.863 Q130.533 268.34 131.413 266.604 Q132.316 264.845 132.316 263.155 Q132.316 260.4 130.371 258.664 Q128.45 256.928 125.348 256.928 Q123.149 256.928 120.695 257.692 Q118.265 258.456 115.487 260.007 L115.487 255.285 Q118.311 254.151 120.765 253.572 Q123.218 252.993 125.255 252.993 Q130.626 252.993 133.82 255.678 Q137.015 258.363 137.015 262.854 Q137.015 264.984 136.204 266.905 Q135.417 268.803 133.311 271.396 Q132.732 272.067 129.63 275.285 Q126.529 278.479 120.88 284.243 Z" fill="#000000" fill-rule="nonzero" fill-opacity="1" /><path clip-path="url(#clip850)" d="M147.061 253.618 L165.417 253.618 L165.417 257.553 L151.343 257.553 L151.343 266.025 Q152.362 265.678 153.38 265.516 Q154.399 265.331 155.417 265.331 Q161.204 265.331 164.584 268.502 Q167.964 271.674 167.964 277.09 Q167.964 282.669 164.491 285.771 Q161.019 288.849 154.7 288.849 Q152.524 288.849 150.255 288.479 Q148.01 288.109 145.603 287.368 L145.603 282.669 Q147.686 283.803 149.908 284.359 Q152.13 284.914 154.607 284.914 Q158.612 284.914 160.95 282.808 Q163.288 280.701 163.288 277.09 Q163.288 273.479 160.95 271.373 Q158.612 269.266 154.607 269.266 Q152.732 269.266 150.857 269.683 Q149.005 270.1 147.061 270.979 L147.061 253.618 Z" fill="#000000" fill-rule="nonzero" fill-opacity="1" /><path clip-path="url(#clip850)" d="M39.4334 772.564 Q44.844 772.564 50.9309 774.303 Q56.9856 776.01 61.8809 778.715 Q66.744 781.42 69.9646 784.963 Q73.153 788.505 73.153 791.887 Q73.153 794.045 71.9613 795.655 Q70.7375 797.233 68.7085 798.103 Q66.6474 798.972 64.393 799.391 Q62.1063 799.81 59.6265 799.81 Q55.9228 799.81 51.8971 799.005 Q47.8391 798.199 44.1677 796.847 Q40.464 795.494 37.1146 793.594 Q33.733 791.694 31.2853 789.6 Q28.8055 787.475 27.3562 785.092 Q25.907 782.708 25.907 780.486 Q25.907 778.876 26.6155 777.588 Q27.2918 776.267 28.4834 775.43 Q29.6428 774.593 31.0277 774.013 Q32.4125 773.401 34.0228 773.111 Q35.6009 772.821 36.9214 772.692 Q38.2096 772.564 39.4334 772.564 M35.3433 776.911 Q33.7008 776.911 32.477 777.04 Q31.2209 777.169 29.9649 777.523 Q28.7089 777.878 28.0325 778.65 Q27.3562 779.391 27.3562 780.551 Q27.3562 783.932 34.2805 787.733 Q36.4383 788.956 39.369 790.051 Q42.2997 791.146 43.6846 791.533 Q45.0694 791.919 48.4833 792.821 L48.4833 779.037 Q39.6911 776.911 35.3433 776.911 M50.5766 779.617 L50.5766 793.336 Q58.6281 795.462 63.6522 795.462 Q68.0322 795.462 69.868 794.56 Q71.6715 793.626 71.6715 791.887 Q71.6715 789.89 69.6747 788.022 Q67.6458 786.154 63.9743 784.254 Q59.2078 781.742 50.5766 779.617 Z" fill="#000000" fill-rule="nonzero" fill-opacity="1" /><path clip-path="url(#clip850)" d="M22.9507 728.256 Q30.2712 732.521 37.4327 734.59 Q44.5941 736.658 51.9465 736.658 Q59.2989 736.658 66.5239 734.59 Q73.7172 732.489 81.0059 728.256 L81.0059 733.348 Q73.5262 738.123 66.3011 740.51 Q59.0761 742.865 51.9465 742.865 Q44.8487 742.865 37.6555 740.51 Q30.4622 738.154 22.9507 733.348 L22.9507 728.256 Z" fill="#000000" fill-rule="nonzero" fill-opacity="1" /><path clip-path="url(#clip850)" d="M28.1387 706.74 Q28.1387 709.286 29.9211 711.036 Q31.6717 712.787 34.218 712.787 Q36.7324 712.787 38.483 711.036 Q40.2017 709.286 40.2017 706.74 Q40.2017 704.193 38.483 702.443 Q36.7324 700.692 34.218 700.692 Q31.7035 700.692 29.9211 702.475 Q28.1387 704.225 28.1387 706.74 M24.0328 706.74 Q24.0328 704.703 24.8286 702.825 Q25.5924 700.947 27.0566 699.578 Q28.4888 698.114 30.3031 697.382 Q32.1173 696.65 34.218 696.65 Q38.4193 696.65 41.3476 699.61 Q44.244 702.538 44.244 706.803 Q44.244 711.1 41.3794 713.965 Q38.5148 716.829 34.218 716.829 Q29.953 716.829 26.9929 713.901 Q24.0328 710.973 24.0328 706.74 Z" fill="#000000" fill-rule="nonzero" fill-opacity="1" /><path clip-path="url(#clip850)" d="M22.9507 685.224 L22.9507 680.131 Q30.4622 675.357 37.6555 673.001 Q44.8487 670.614 51.9465 670.614 Q59.0761 670.614 66.3011 673.001 Q73.5262 675.357 81.0059 680.131 L81.0059 685.224 Q73.7172 680.99 66.5239 678.921 Q59.2989 676.821 51.9465 676.821 Q44.5941 676.821 37.4327 678.921 Q30.2712 680.99 22.9507 685.224 Z" fill="#000000" fill-rule="nonzero" fill-opacity="1" /><polyline clip-path="url(#clip852)" style="stroke:#009af9; stroke-linecap:round; stroke-linejoin:round; stroke-width:4; stroke-opacity:1; fill:none" points="229.629,1384.03 254.791,1236.9 279.954,1007.73 305.116,734.83 330.278,480.716 355.44,310.328 380.603,171.931 405.765,103.83 430.927,86.1857 456.089,133.448 481.252,131.139 506.414,138.385 531.576,238.883 556.739,264.179 581.901,290.59 607.063,278.132 632.225,273.936 657.388,293.519 682.55,278.091 707.712,258.48 732.874,248.443 758.037,261.888 783.199,279.079 808.361,251.861 833.524,291.697 858.686,247.368 883.848,245.655 909.01,250.335 934.173,236.389 959.335,242.588 984.497,287.074 1009.66,275.529 1034.82,260.165 1059.98,271.543 1085.15,272.996 "/>
<polyline clip-path="url(#clip852)" style="stroke:#e26f46; stroke-linecap:round; stroke-linejoin:round; stroke-width:3; stroke-opacity:1; fill:none" stroke-dasharray="12, 6, 2, 6" points="229.629,1384.24 254.791,1244.51 279.954,1002.7 305.116,730.313 330.278,478.573 355.44,305.752 380.603,176.104 405.765,108.369 430.927,91.0127 456.089,132.628 481.252,143.411 506.414,149.626 531.576,229.797 556.739,267.667 581.901,292.737 607.063,284.487 632.225,276.07 657.388,289.084 682.55,280.087 707.712,261.626 732.874,249.403 758.037,258.378 783.199,275.466 808.361,257.651 833.524,284.432 858.686,255.841 883.848,246.338 909.01,248.82 934.173,239.075 959.335,241.853 984.497,278.835 1009.66,278.546 1034.82,264.176 1059.98,269.116 1085.15,271.999 "/>
<path clip-path="url(#clip850)" d="M961.069 1377.32 L1080.58 1377.32 L1080.58 1221.8 L961.069 1221.8  Z" fill="#ffffff" fill-rule="evenodd" fill-opacity="1"/>
<polyline clip-path="url(#clip850)" style="stroke:#000000; stroke-linecap:round; stroke-linejoin:round; stroke-width:4; stroke-opacity:1; fill:none" points="961.069,1377.32 1080.58,1377.32 1080.58,1221.8 961.069,1221.8 961.069,1377.32 "/>
<polyline clip-path="url(#clip850)" style="stroke:#009af9; stroke-linecap:round; stroke-linejoin:round; stroke-width:4; stroke-opacity:1; fill:none" points="971.145,1273.64 1031.6,1273.64 "/>
<path clip-path="url(#clip850)" d="M1068.45 1260.37 Q1066.97 1260.37 1066.22 1260.51 Q1065.48 1260.63 1065.29 1260.8 Q1065.1 1260.96 1064.89 1261.38 L1054.58 1283.3 Q1053.48 1285.65 1051.42 1287.33 Q1049.38 1289.02 1046.81 1289.02 Q1044.65 1289.02 1043.15 1287.71 Q1041.68 1286.42 1041.68 1284.59 Q1041.68 1283.28 1042.5 1282.53 Q1043.32 1281.81 1044.42 1281.81 Q1045.64 1281.81 1046.41 1282.58 Q1047.21 1283.35 1047.21 1284.55 Q1047.21 1285.32 1046.88 1285.9 Q1046.55 1286.51 1046.25 1286.72 Q1045.96 1286.96 1045.66 1287.1 Q1046.15 1287.29 1046.81 1287.29 Q1047.79 1287.29 1048.63 1286.89 Q1049.5 1286.51 1050.06 1286 Q1050.65 1285.51 1051.23 1284.62 Q1051.82 1283.75 1052.1 1283.19 Q1052.38 1282.65 1052.8 1281.71 L1053.9 1279.42 L1044.93 1260.37 L1041.87 1260.37 L1041.87 1258.13 L1047.35 1258.27 L1053.3 1258.13 L1053.3 1260.37 L1050.7 1260.37 L1056.79 1273.33 L1062.31 1261.52 L1062.55 1260.96 Q1062.55 1260.7 1061.99 1260.56 Q1061.42 1260.4 1060.86 1260.4 L1060.3 1260.37 L1060.3 1258.13 L1064.66 1258.27 Q1066.72 1258.27 1068.45 1258.13 L1068.45 1260.37 Z" fill="#000000" fill-rule="nonzero" fill-opacity="1" /><polyline clip-path="url(#clip850)" style="stroke:#e26f46; stroke-linecap:round; stroke-linejoin:round; stroke-width:3; stroke-opacity:1; fill:none" stroke-dasharray="12, 6, 2, 6" points="971.145,1325.48 1031.6,1325.48 "/>
<path clip-path="url(#clip850)" d="M1064.26 1309.2 L1063.85 1309.87 Q1061.31 1308.77 1058.15 1307.01 Q1054.98 1308.77 1052.44 1309.87 L1052.05 1309.2 Q1054.82 1306.79 1058.15 1304.93 Q1061.51 1306.8 1064.26 1309.2 Z" fill="#000000" fill-rule="nonzero" fill-opacity="1" /><path clip-path="url(#clip850)" d="M1068.45 1317.22 Q1066.97 1317.22 1066.22 1317.36 Q1065.48 1317.48 1065.29 1317.64 Q1065.1 1317.8 1064.89 1318.23 L1054.58 1340.15 Q1053.48 1342.49 1051.42 1344.18 Q1049.38 1345.86 1046.81 1345.86 Q1044.65 1345.86 1043.15 1344.55 Q1041.68 1343.26 1041.68 1341.44 Q1041.68 1340.13 1042.5 1339.38 Q1043.32 1338.65 1044.42 1338.65 Q1045.64 1338.65 1046.41 1339.42 Q1047.21 1340.2 1047.21 1341.39 Q1047.21 1342.16 1046.88 1342.75 Q1046.55 1343.36 1046.25 1343.57 Q1045.96 1343.8 1045.66 1343.94 Q1046.15 1344.13 1046.81 1344.13 Q1047.79 1344.13 1048.63 1343.73 Q1049.5 1343.36 1050.06 1342.84 Q1050.65 1342.35 1051.23 1341.46 Q1051.82 1340.59 1052.1 1340.03 Q1052.38 1339.49 1052.8 1338.56 L1053.9 1336.26 L1044.93 1317.22 L1041.87 1317.22 L1041.87 1314.97 L1047.35 1315.11 L1053.3 1314.97 L1053.3 1317.22 L1050.7 1317.22 L1056.79 1330.17 L1062.31 1318.37 L1062.55 1317.8 Q1062.55 1317.55 1061.99 1317.41 Q1061.42 1317.24 1060.86 1317.24 L1060.3 1317.22 L1060.3 1314.97 L1064.66 1315.11 Q1066.72 1315.11 1068.45 1314.97 L1068.45 1317.22 Z" fill="#000000" fill-rule="nonzero" fill-opacity="1" /><path clip-path="url(#clip850)" d="M1445.91 398.692 L2352.76 398.692 L2352.76 47.2441 L1445.91 47.2441  Z" fill="#ffffff" fill-rule="evenodd" fill-opacity="1"/>
<defs>
  <clipPath id="clip853">
    <rect x="1445" y="47" width="908" height="352"/>
  </clipPath>
</defs>
<polyline clip-path="url(#clip853)" style="stroke:#000000; stroke-linecap:round; stroke-linejoin:round; stroke-width:2; stroke-opacity:0.1; fill:none" points="1471.57,398.692 1471.57,47.2441 "/>
<polyline clip-path="url(#clip853)" style="stroke:#000000; stroke-linecap:round; stroke-linejoin:round; stroke-width:2; stroke-opacity:0.1; fill:none" points="1723.2,398.692 1723.2,47.2441 "/>
<polyline clip-path="url(#clip853)" style="stroke:#000000; stroke-linecap:round; stroke-linejoin:round; stroke-width:2; stroke-opacity:0.1; fill:none" points="1974.82,398.692 1974.82,47.2441 "/>
<polyline clip-path="url(#clip853)" style="stroke:#000000; stroke-linecap:round; stroke-linejoin:round; stroke-width:2; stroke-opacity:0.1; fill:none" points="2226.44,398.692 2226.44,47.2441 "/>
<polyline clip-path="url(#clip853)" style="stroke:#000000; stroke-linecap:round; stroke-linejoin:round; stroke-width:2; stroke-opacity:0.1; fill:none" points="1445.91,388.745 2352.76,388.745 "/>
<polyline clip-path="url(#clip853)" style="stroke:#000000; stroke-linecap:round; stroke-linejoin:round; stroke-width:2; stroke-opacity:0.1; fill:none" points="1445.91,323.272 2352.76,323.272 "/>
<polyline clip-path="url(#clip853)" style="stroke:#000000; stroke-linecap:round; stroke-linejoin:round; stroke-width:2; stroke-opacity:0.1; fill:none" points="1445.91,257.798 2352.76,257.798 "/>
<polyline clip-path="url(#clip853)" style="stroke:#000000; stroke-linecap:round; stroke-linejoin:round; stroke-width:2; stroke-opacity:0.1; fill:none" points="1445.91,192.325 2352.76,192.325 "/>
<polyline clip-path="url(#clip853)" style="stroke:#000000; stroke-linecap:round; stroke-linejoin:round; stroke-width:2; stroke-opacity:0.1; fill:none" points="1445.91,126.851 2352.76,126.851 "/>
<polyline clip-path="url(#clip853)" style="stroke:#000000; stroke-linecap:round; stroke-linejoin:round; stroke-width:2; stroke-opacity:0.1; fill:none" points="1445.91,61.3777 2352.76,61.3777 "/>
<polyline clip-path="url(#clip850)" style="stroke:#000000; stroke-linecap:round; stroke-linejoin:round; stroke-width:4; stroke-opacity:1; fill:none" points="1445.91,398.692 2352.76,398.692 "/>
<polyline clip-path="url(#clip850)" style="stroke:#000000; stroke-linecap:round; stroke-linejoin:round; stroke-width:4; stroke-opacity:1; fill:none" points="1471.57,398.692 1471.57,379.794 "/>
<polyline clip-path="url(#clip850)" style="stroke:#000000; stroke-linecap:round; stroke-linejoin:round; stroke-width:4; stroke-opacity:1; fill:none" points="1723.2,398.692 1723.2,379.794 "/>
<polyline clip-path="url(#clip850)" style="stroke:#000000; stroke-linecap:round; stroke-linejoin:round; stroke-width:4; stroke-opacity:1; fill:none" points="1974.82,398.692 1974.82,379.794 "/>
<polyline clip-path="url(#clip850)" style="stroke:#000000; stroke-linecap:round; stroke-linejoin:round; stroke-width:4; stroke-opacity:1; fill:none" points="2226.44,398.692 2226.44,379.794 "/>
<path clip-path="url(#clip850)" d="M1471.57 429.611 Q1467.96 429.611 1466.13 433.175 Q1464.33 436.717 1464.33 443.847 Q1464.33 450.953 1466.13 454.518 Q1467.96 458.059 1471.57 458.059 Q1475.21 458.059 1477.01 454.518 Q1478.84 450.953 1478.84 443.847 Q1478.84 436.717 1477.01 433.175 Q1475.21 429.611 1471.57 429.611 M1471.57 425.907 Q1477.38 425.907 1480.44 430.513 Q1483.52 435.097 1483.52 443.847 Q1483.52 452.573 1480.44 457.18 Q1477.38 461.763 1471.57 461.763 Q1465.76 461.763 1462.68 457.18 Q1459.63 452.573 1459.63 443.847 Q1459.63 435.097 1462.68 430.513 Q1465.76 425.907 1471.57 425.907 Z" fill="#000000" fill-rule="nonzero" fill-opacity="1" /><path clip-path="url(#clip850)" d="M1713.58 457.157 L1721.22 457.157 L1721.22 430.791 L1712.91 432.458 L1712.91 428.199 L1721.17 426.532 L1725.85 426.532 L1725.85 457.157 L1733.49 457.157 L1733.49 461.092 L1713.58 461.092 L1713.58 457.157 Z" fill="#000000" fill-rule="nonzero" fill-opacity="1" /><path clip-path="url(#clip850)" d="M1969.47 457.157 L1985.79 457.157 L1985.79 461.092 L1963.85 461.092 L1963.85 457.157 Q1966.51 454.402 1971.09 449.772 Q1975.7 445.12 1976.88 443.777 Q1979.12 441.254 1980 439.518 Q1980.91 437.759 1980.91 436.069 Q1980.91 433.314 1978.96 431.578 Q1977.04 429.842 1973.94 429.842 Q1971.74 429.842 1969.29 430.606 Q1966.86 431.37 1964.08 432.921 L1964.08 428.199 Q1966.9 427.064 1969.36 426.486 Q1971.81 425.907 1973.85 425.907 Q1979.22 425.907 1982.41 428.592 Q1985.61 431.277 1985.61 435.768 Q1985.61 437.898 1984.8 439.819 Q1984.01 441.717 1981.9 444.31 Q1981.32 444.981 1978.22 448.198 Q1975.12 451.393 1969.47 457.157 Z" fill="#000000" fill-rule="nonzero" fill-opacity="1" /><path clip-path="url(#clip850)" d="M2230.69 442.458 Q2234.05 443.175 2235.92 445.444 Q2237.82 447.712 2237.82 451.046 Q2237.82 456.161 2234.3 458.962 Q2230.78 461.763 2224.3 461.763 Q2222.12 461.763 2219.81 461.323 Q2217.52 460.907 2215.06 460.05 L2215.06 455.536 Q2217.01 456.671 2219.32 457.249 Q2221.64 457.828 2224.16 457.828 Q2228.56 457.828 2230.85 456.092 Q2233.17 454.356 2233.17 451.046 Q2233.17 447.99 2231.01 446.277 Q2228.88 444.541 2225.06 444.541 L2221.04 444.541 L2221.04 440.698 L2225.25 440.698 Q2228.7 440.698 2230.53 439.333 Q2232.36 437.944 2232.36 435.351 Q2232.36 432.689 2230.46 431.277 Q2228.58 429.842 2225.06 429.842 Q2223.14 429.842 2220.94 430.259 Q2218.74 430.675 2216.11 431.555 L2216.11 427.388 Q2218.77 426.648 2221.08 426.277 Q2223.42 425.907 2225.48 425.907 Q2230.8 425.907 2233.91 428.337 Q2237.01 430.745 2237.01 434.865 Q2237.01 437.736 2235.36 439.726 Q2233.72 441.694 2230.69 442.458 Z" fill="#000000" fill-rule="nonzero" fill-opacity="1" /><polyline clip-path="url(#clip850)" style="stroke:#000000; stroke-linecap:round; stroke-linejoin:round; stroke-width:4; stroke-opacity:1; fill:none" points="1445.91,398.692 1445.91,47.2441 "/>
<polyline clip-path="url(#clip850)" style="stroke:#000000; stroke-linecap:round; stroke-linejoin:round; stroke-width:4; stroke-opacity:1; fill:none" points="1445.91,388.745 1464.81,388.745 "/>
<polyline clip-path="url(#clip850)" style="stroke:#000000; stroke-linecap:round; stroke-linejoin:round; stroke-width:4; stroke-opacity:1; fill:none" points="1445.91,323.272 1464.81,323.272 "/>
<polyline clip-path="url(#clip850)" style="stroke:#000000; stroke-linecap:round; stroke-linejoin:round; stroke-width:4; stroke-opacity:1; fill:none" points="1445.91,257.798 1464.81,257.798 "/>
<polyline clip-path="url(#clip850)" style="stroke:#000000; stroke-linecap:round; stroke-linejoin:round; stroke-width:4; stroke-opacity:1; fill:none" points="1445.91,192.325 1464.81,192.325 "/>
<polyline clip-path="url(#clip850)" style="stroke:#000000; stroke-linecap:round; stroke-linejoin:round; stroke-width:4; stroke-opacity:1; fill:none" points="1445.91,126.851 1464.81,126.851 "/>
<polyline clip-path="url(#clip850)" style="stroke:#000000; stroke-linecap:round; stroke-linejoin:round; stroke-width:4; stroke-opacity:1; fill:none" points="1445.91,61.3777 1464.81,61.3777 "/>
<path clip-path="url(#clip850)" d="M1352.73 374.544 Q1349.12 374.544 1347.29 378.109 Q1345.49 381.65 1345.49 388.78 Q1345.49 395.886 1347.29 399.451 Q1349.12 402.993 1352.73 402.993 Q1356.37 402.993 1358.17 399.451 Q1360 395.886 1360 388.78 Q1360 381.65 1358.17 378.109 Q1356.37 374.544 1352.73 374.544 M1352.73 370.84 Q1358.54 370.84 1361.6 375.447 Q1364.68 380.03 1364.68 388.78 Q1364.68 397.507 1361.6 402.113 Q1358.54 406.697 1352.73 406.697 Q1346.92 406.697 1343.84 402.113 Q1340.79 397.507 1340.79 388.78 Q1340.79 380.03 1343.84 375.447 Q1346.92 370.84 1352.73 370.84 Z" fill="#000000" fill-rule="nonzero" fill-opacity="1" /><path clip-path="url(#clip850)" d="M1372.89 400.146 L1377.78 400.146 L1377.78 406.025 L1372.89 406.025 L1372.89 400.146 Z" fill="#000000" fill-rule="nonzero" fill-opacity="1" /><path clip-path="url(#clip850)" d="M1397.96 374.544 Q1394.35 374.544 1392.52 378.109 Q1390.72 381.65 1390.72 388.78 Q1390.72 395.886 1392.52 399.451 Q1394.35 402.993 1397.96 402.993 Q1401.6 402.993 1403.4 399.451 Q1405.23 395.886 1405.23 388.78 Q1405.23 381.65 1403.4 378.109 Q1401.6 374.544 1397.96 374.544 M1397.96 370.84 Q1403.77 370.84 1406.83 375.447 Q1409.91 380.03 1409.91 388.78 Q1409.91 397.507 1406.83 402.113 Q1403.77 406.697 1397.96 406.697 Q1392.15 406.697 1389.07 402.113 Q1386.02 397.507 1386.02 388.78 Q1386.02 380.03 1389.07 375.447 Q1392.15 370.84 1397.96 370.84 Z" fill="#000000" fill-rule="nonzero" fill-opacity="1" /><path clip-path="url(#clip850)" d="M1353.96 309.07 Q1350.35 309.07 1348.52 312.635 Q1346.71 316.177 1346.71 323.306 Q1346.71 330.413 1348.52 333.978 Q1350.35 337.519 1353.96 337.519 Q1357.59 337.519 1359.4 333.978 Q1361.23 330.413 1361.23 323.306 Q1361.23 316.177 1359.4 312.635 Q1357.59 309.07 1353.96 309.07 M1353.96 305.367 Q1359.77 305.367 1362.82 309.973 Q1365.9 314.556 1365.9 323.306 Q1365.9 332.033 1362.82 336.64 Q1359.77 341.223 1353.96 341.223 Q1348.15 341.223 1345.07 336.64 Q1342.01 332.033 1342.01 323.306 Q1342.01 314.556 1345.07 309.973 Q1348.15 305.367 1353.96 305.367 Z" fill="#000000" fill-rule="nonzero" fill-opacity="1" /><path clip-path="url(#clip850)" d="M1374.12 334.672 L1379.01 334.672 L1379.01 340.552 L1374.12 340.552 L1374.12 334.672 Z" fill="#000000" fill-rule="nonzero" fill-opacity="1" /><path clip-path="url(#clip850)" d="M1390 336.617 L1397.64 336.617 L1397.64 310.251 L1389.33 311.918 L1389.33 307.658 L1397.59 305.992 L1402.27 305.992 L1402.27 336.617 L1409.91 336.617 L1409.91 340.552 L1390 340.552 L1390 336.617 Z" fill="#000000" fill-rule="nonzero" fill-opacity="1" /><path clip-path="url(#clip850)" d="M1354.33 243.597 Q1350.72 243.597 1348.89 247.162 Q1347.08 250.703 1347.08 257.833 Q1347.08 264.939 1348.89 268.504 Q1350.72 272.046 1354.33 272.046 Q1357.96 272.046 1359.77 268.504 Q1361.6 264.939 1361.6 257.833 Q1361.6 250.703 1359.77 247.162 Q1357.96 243.597 1354.33 243.597 M1354.33 239.893 Q1360.14 239.893 1363.2 244.5 Q1366.27 249.083 1366.27 257.833 Q1366.27 266.56 1363.2 271.166 Q1360.14 275.749 1354.33 275.749 Q1348.52 275.749 1345.44 271.166 Q1342.39 266.56 1342.39 257.833 Q1342.39 249.083 1345.44 244.5 Q1348.52 239.893 1354.33 239.893 Z" fill="#000000" fill-rule="nonzero" fill-opacity="1" /><path clip-path="url(#clip850)" d="M1374.49 269.199 L1379.38 269.199 L1379.38 275.078 L1374.49 275.078 L1374.49 269.199 Z" fill="#000000" fill-rule="nonzero" fill-opacity="1" /><path clip-path="url(#clip850)" d="M1393.59 271.143 L1409.91 271.143 L1409.91 275.078 L1387.96 275.078 L1387.96 271.143 Q1390.63 268.388 1395.21 263.759 Q1399.82 259.106 1401 257.763 Q1403.24 255.24 1404.12 253.504 Q1405.02 251.745 1405.02 250.055 Q1405.02 247.301 1403.08 245.564 Q1401.16 243.828 1398.06 243.828 Q1395.86 243.828 1393.4 244.592 Q1390.97 245.356 1388.19 246.907 L1388.19 242.185 Q1391.02 241.051 1393.47 240.472 Q1395.93 239.893 1397.96 239.893 Q1403.33 239.893 1406.53 242.578 Q1409.72 245.264 1409.72 249.754 Q1409.72 251.884 1408.91 253.805 Q1408.13 255.703 1406.02 258.296 Q1405.44 258.967 1402.34 262.185 Q1399.24 265.379 1393.59 271.143 Z" fill="#000000" fill-rule="nonzero" fill-opacity="1" /><path clip-path="url(#clip850)" d="M1353.38 178.123 Q1349.77 178.123 1347.94 181.688 Q1346.13 185.23 1346.13 192.359 Q1346.13 199.466 1347.94 203.031 Q1349.77 206.572 1353.38 206.572 Q1357.01 206.572 1358.82 203.031 Q1360.65 199.466 1360.65 192.359 Q1360.65 185.23 1358.82 181.688 Q1357.01 178.123 1353.38 178.123 M1353.38 174.42 Q1359.19 174.42 1362.25 179.026 Q1365.32 183.609 1365.32 192.359 Q1365.32 201.086 1362.25 205.693 Q1359.19 210.276 1353.38 210.276 Q1347.57 210.276 1344.49 205.693 Q1341.44 201.086 1341.44 192.359 Q1341.44 183.609 1344.49 179.026 Q1347.57 174.42 1353.38 174.42 Z" fill="#000000" fill-rule="nonzero" fill-opacity="1" /><path clip-path="url(#clip850)" d="M1373.54 203.725 L1378.43 203.725 L1378.43 209.605 L1373.54 209.605 L1373.54 203.725 Z" fill="#000000" fill-rule="nonzero" fill-opacity="1" /><path clip-path="url(#clip850)" d="M1402.78 190.971 Q1406.13 191.688 1408.01 193.957 Q1409.91 196.225 1409.91 199.558 Q1409.91 204.674 1406.39 207.475 Q1402.87 210.276 1396.39 210.276 Q1394.21 210.276 1391.9 209.836 Q1389.61 209.42 1387.15 208.563 L1387.15 204.049 Q1389.1 205.183 1391.41 205.762 Q1393.73 206.341 1396.25 206.341 Q1400.65 206.341 1402.94 204.605 Q1405.26 202.869 1405.26 199.558 Q1405.26 196.503 1403.1 194.79 Q1400.97 193.054 1397.15 193.054 L1393.13 193.054 L1393.13 189.211 L1397.34 189.211 Q1400.79 189.211 1402.62 187.846 Q1404.44 186.457 1404.44 183.864 Q1404.44 181.202 1402.55 179.79 Q1400.67 178.355 1397.15 178.355 Q1395.23 178.355 1393.03 178.772 Q1390.83 179.188 1388.19 180.068 L1388.19 175.901 Q1390.86 175.16 1393.17 174.79 Q1395.51 174.42 1397.57 174.42 Q1402.89 174.42 1406 176.85 Q1409.1 179.258 1409.1 183.378 Q1409.1 186.248 1407.45 188.239 Q1405.81 190.207 1402.78 190.971 Z" fill="#000000" fill-rule="nonzero" fill-opacity="1" /><path clip-path="url(#clip850)" d="M1352.25 112.65 Q1348.63 112.65 1346.81 116.215 Q1345 119.756 1345 126.886 Q1345 133.992 1346.81 137.557 Q1348.63 141.099 1352.25 141.099 Q1355.88 141.099 1357.69 137.557 Q1359.51 133.992 1359.51 126.886 Q1359.51 119.756 1357.69 116.215 Q1355.88 112.65 1352.25 112.65 M1352.25 108.946 Q1358.06 108.946 1361.11 113.553 Q1364.19 118.136 1364.19 126.886 Q1364.19 135.613 1361.11 140.219 Q1358.06 144.802 1352.25 144.802 Q1346.44 144.802 1343.36 140.219 Q1340.3 135.613 1340.3 126.886 Q1340.3 118.136 1343.36 113.553 Q1346.44 108.946 1352.25 108.946 Z" fill="#000000" fill-rule="nonzero" fill-opacity="1" /><path clip-path="url(#clip850)" d="M1372.41 138.252 L1377.29 138.252 L1377.29 144.131 L1372.41 144.131 L1372.41 138.252 Z" fill="#000000" fill-rule="nonzero" fill-opacity="1" /><path clip-path="url(#clip850)" d="M1400.32 113.645 L1388.52 132.094 L1400.32 132.094 L1400.32 113.645 M1399.1 109.571 L1404.98 109.571 L1404.98 132.094 L1409.91 132.094 L1409.91 135.983 L1404.98 135.983 L1404.98 144.131 L1400.32 144.131 L1400.32 135.983 L1384.72 135.983 L1384.72 131.469 L1399.1 109.571 Z" fill="#000000" fill-rule="nonzero" fill-opacity="1" /><path clip-path="url(#clip850)" d="M1353.73 47.1763 Q1350.12 47.1763 1348.29 50.7411 Q1346.48 54.2828 1346.48 61.4124 Q1346.48 68.5188 1348.29 72.0836 Q1350.12 75.6253 1353.73 75.6253 Q1357.36 75.6253 1359.17 72.0836 Q1361 68.5188 1361 61.4124 Q1361 54.2828 1359.17 50.7411 Q1357.36 47.1763 1353.73 47.1763 M1353.73 43.4727 Q1359.54 43.4727 1362.59 48.0791 Q1365.67 52.6624 1365.67 61.4124 Q1365.67 70.1392 1362.59 74.7456 Q1359.54 79.329 1353.73 79.329 Q1347.92 79.329 1344.84 74.7456 Q1341.78 70.1392 1341.78 61.4124 Q1341.78 52.6624 1344.84 48.0791 Q1347.92 43.4727 1353.73 43.4727 Z" fill="#000000" fill-rule="nonzero" fill-opacity="1" /><path clip-path="url(#clip850)" d="M1373.89 72.7781 L1378.77 72.7781 L1378.77 78.6577 L1373.89 78.6577 L1373.89 72.7781 Z" fill="#000000" fill-rule="nonzero" fill-opacity="1" /><path clip-path="url(#clip850)" d="M1389.01 44.0977 L1407.36 44.0977 L1407.36 48.0328 L1393.29 48.0328 L1393.29 56.505 Q1394.31 56.1578 1395.32 55.9957 Q1396.34 55.8106 1397.36 55.8106 Q1403.15 55.8106 1406.53 58.9818 Q1409.91 62.1531 1409.91 67.5698 Q1409.91 73.1484 1406.44 76.2503 Q1402.96 79.329 1396.64 79.329 Q1394.47 79.329 1392.2 78.9586 Q1389.95 78.5882 1387.55 77.8475 L1387.55 73.1484 Q1389.63 74.2827 1391.85 74.8382 Q1394.07 75.3938 1396.55 75.3938 Q1400.56 75.3938 1402.89 73.2873 Q1405.23 71.1808 1405.23 67.5698 Q1405.23 63.9587 1402.89 61.8522 Q1400.56 59.7457 1396.55 59.7457 Q1394.68 59.7457 1392.8 60.1624 Q1390.95 60.5791 1389.01 61.4587 L1389.01 44.0977 Z" fill="#000000" fill-rule="nonzero" fill-opacity="1" /><path clip-path="url(#clip850)" d="M1265.47 298.084 Q1270.89 298.084 1276.97 299.823 Q1283.03 301.53 1287.92 304.235 Q1292.79 306.941 1296.01 310.483 Q1299.19 314.026 1299.19 317.408 Q1299.19 319.565 1298 321.176 Q1296.78 322.754 1294.75 323.623 Q1292.69 324.493 1290.43 324.912 Q1288.15 325.33 1285.67 325.33 Q1281.96 325.33 1277.94 324.525 Q1273.88 323.72 1270.21 322.367 Q1266.51 321.015 1263.16 319.115 Q1259.77 317.214 1257.33 315.121 Q1254.85 312.995 1253.4 310.612 Q1251.95 308.229 1251.95 306.007 Q1251.95 304.396 1252.66 303.108 Q1253.33 301.788 1254.52 300.95 Q1255.68 300.113 1257.07 299.533 Q1258.45 298.921 1260.06 298.632 Q1261.64 298.342 1262.96 298.213 Q1264.25 298.084 1265.47 298.084 M1261.38 302.432 Q1259.74 302.432 1258.52 302.561 Q1257.26 302.69 1256.01 303.044 Q1254.75 303.398 1254.07 304.171 Q1253.4 304.912 1253.4 306.071 Q1253.4 309.453 1260.32 313.253 Q1262.48 314.477 1265.41 315.572 Q1268.34 316.667 1269.73 317.053 Q1271.11 317.44 1274.52 318.342 L1274.52 304.558 Q1265.73 302.432 1261.38 302.432 M1276.62 305.137 L1276.62 318.857 Q1284.67 320.983 1289.69 320.983 Q1294.07 320.983 1295.91 320.081 Q1297.71 319.147 1297.71 317.408 Q1297.71 315.411 1295.72 313.543 Q1293.69 311.675 1290.02 309.775 Q1285.25 307.263 1276.62 305.137 Z" fill="#000000" fill-rule="nonzero" fill-opacity="1" /><path clip-path="url(#clip850)" d="M1248.99 253.776 Q1256.31 258.041 1263.47 260.11 Q1270.64 262.179 1277.99 262.179 Q1285.34 262.179 1292.57 260.11 Q1299.76 258.009 1307.05 253.776 L1307.05 258.869 Q1299.57 263.643 1292.34 266.03 Q1285.12 268.386 1277.99 268.386 Q1270.89 268.386 1263.7 266.03 Q1256.5 263.675 1248.99 258.869 L1248.99 253.776 Z" fill="#000000" fill-rule="nonzero" fill-opacity="1" /><path clip-path="url(#clip850)" d="M1268.28 221.757 Q1267.71 222.743 1267.45 223.921 Q1267.17 225.067 1267.17 226.467 Q1267.17 231.433 1270.41 234.106 Q1273.63 236.748 1279.67 236.748 L1298.45 236.748 L1298.45 242.636 L1262.81 242.636 L1262.81 236.748 L1268.34 236.748 Q1265.1 234.902 1263.54 231.942 Q1261.95 228.982 1261.95 224.749 Q1261.95 224.144 1262.04 223.412 Q1262.11 222.68 1262.26 221.789 L1268.28 221.757 Z" fill="#000000" fill-rule="nonzero" fill-opacity="1" /><path clip-path="url(#clip850)" d="M1280.53 199.413 Q1280.53 206.511 1282.16 209.248 Q1283.78 211.985 1287.7 211.985 Q1290.81 211.985 1292.66 209.948 Q1294.48 207.879 1294.48 204.347 Q1294.48 199.477 1291.04 196.549 Q1287.57 193.588 1281.84 193.588 L1280.53 193.588 L1280.53 199.413 M1278.12 187.732 L1298.45 187.732 L1298.45 193.588 L1293.04 193.588 Q1296.29 195.594 1297.85 198.586 Q1299.38 201.577 1299.38 205.906 Q1299.38 211.381 1296.32 214.627 Q1293.23 217.842 1288.08 217.842 Q1282.06 217.842 1279.01 213.831 Q1275.95 209.789 1275.95 201.8 L1275.95 193.588 L1275.38 193.588 Q1271.34 193.588 1269.14 196.262 Q1266.91 198.904 1266.91 203.71 Q1266.91 206.766 1267.64 209.662 Q1268.38 212.558 1269.84 215.232 L1264.43 215.232 Q1263.19 212.017 1262.58 208.993 Q1261.95 205.97 1261.95 203.105 Q1261.95 195.371 1265.96 191.551 Q1269.97 187.732 1278.12 187.732 Z" fill="#000000" fill-rule="nonzero" fill-opacity="1" /><path clip-path="url(#clip850)" d="M1268.22 152.211 L1248.93 152.211 L1248.93 146.355 L1298.45 146.355 L1298.45 152.211 L1293.11 152.211 Q1296.29 154.057 1297.85 156.89 Q1299.38 159.691 1299.38 163.638 Q1299.38 170.099 1294.22 174.173 Q1289.06 178.215 1280.66 178.215 Q1272.26 178.215 1267.1 174.173 Q1261.95 170.099 1261.95 163.638 Q1261.95 159.691 1263.51 156.89 Q1265.03 154.057 1268.22 152.211 M1280.66 172.168 Q1287.12 172.168 1290.81 169.526 Q1294.48 166.853 1294.48 162.206 Q1294.48 157.559 1290.81 154.885 Q1287.12 152.211 1280.66 152.211 Q1274.2 152.211 1270.54 154.885 Q1266.85 157.559 1266.85 162.206 Q1266.85 166.853 1270.54 169.526 Q1274.2 172.168 1280.66 172.168 Z" fill="#000000" fill-rule="nonzero" fill-opacity="1" /><path clip-path="url(#clip850)" d="M1248.99 135.215 L1248.99 130.122 Q1256.5 125.348 1263.7 122.993 Q1270.89 120.606 1277.99 120.606 Q1285.12 120.606 1292.34 122.993 Q1299.57 125.348 1307.05 130.122 L1307.05 135.215 Q1299.76 130.982 1292.57 128.913 Q1285.34 126.812 1277.99 126.812 Q1270.64 126.812 1263.47 128.913 Q1256.31 130.982 1248.99 135.215 Z" fill="#000000" fill-rule="nonzero" fill-opacity="1" /><polyline clip-path="url(#clip853)" style="stroke:#009af9; stroke-linecap:round; stroke-linejoin:round; stroke-width:4; stroke-opacity:1; fill:none" points="1471.57,388.745 1496.74,360.314 1521.9,295.817 1547.06,221.547 1572.22,155.082 1597.38,105.332 1622.55,74.426 1647.71,60.2185 1672.87,58.5215 1698.03,64.697 1723.2,74.6203 1748.36,85.1552 1773.52,94.2833 1798.68,101.006 1823.85,105.122 1849.01,106.948 1874.17,107.073 1899.33,106.143 1924.49,104.733 1949.66,103.274 1974.82,102.037 1999.98,101.146 2025.14,100.618 2050.31,100.4 2075.47,100.408 2100.63,100.552 2125.79,100.754 2150.95,100.955 2176.12,101.123 2201.28,101.241 2226.44,101.309 2251.6,101.334 2276.77,101.33 2301.93,101.308 2327.09,101.28 "/>
<polyline clip-path="url(#clip853)" style="stroke:#e26f46; stroke-linecap:round; stroke-linejoin:round; stroke-width:3; stroke-opacity:1; fill:none" stroke-dasharray="12, 6, 2, 6" points="1471.57,386.975 1496.74,351.344 1521.9,289.68 1547.06,220.218 1572.22,156.022 1597.38,111.951 1622.55,78.8899 1647.71,61.6166 1672.87,57.1907 1698.03,67.8029 1723.2,70.5527 1748.36,72.1377 1773.52,92.5819 1798.68,102.239 1823.85,108.632 1849.01,106.528 1874.17,104.382 1899.33,107.701 1924.49,105.406 1949.66,100.699 1974.82,97.5816 1999.98,99.8704 2025.14,104.228 2050.31,99.6849 2075.47,106.514 2100.63,99.2235 2125.79,96.8001 2150.95,97.4331 2176.12,94.9479 2201.28,95.6565 2226.44,105.087 2251.6,105.013 2276.77,101.349 2301.93,102.609 2327.09,103.344 "/>
<path clip-path="url(#clip850)" d="M2203.01 386.977 L2322.53 386.977 L2322.53 231.457 L2203.01 231.457  Z" fill="#ffffff" fill-rule="evenodd" fill-opacity="1"/>
<polyline clip-path="url(#clip850)" style="stroke:#000000; stroke-linecap:round; stroke-linejoin:round; stroke-width:4; stroke-opacity:1; fill:none" points="2203.01,386.977 2322.53,386.977 2322.53,231.457 2203.01,231.457 2203.01,386.977 "/>
<polyline clip-path="url(#clip850)" style="stroke:#009af9; stroke-linecap:round; stroke-linejoin:round; stroke-width:4; stroke-opacity:1; fill:none" points="2213.09,283.297 2273.55,283.297 "/>
<path clip-path="url(#clip850)" d="M2310.63 293.836 L2305.36 293.695 L2299.6 293.836 L2299.6 291.587 L2301.47 291.587 L2296.2 285.357 L2291.54 290.58 L2291.21 291.049 Q2291.21 291.26 2291.75 291.423 Q2292.31 291.587 2292.97 291.587 L2292.97 293.836 L2288.03 293.695 L2283.62 293.836 L2283.62 291.587 Q2285.1 291.587 2285.78 291.564 Q2286.48 291.517 2287.28 291.306 Q2288.07 291.096 2288.47 290.674 L2294.75 283.624 L2287.28 274.794 L2283.86 274.794 L2283.86 272.545 L2289.15 272.686 L2294.94 272.545 L2294.94 274.794 L2293.01 274.794 L2297.72 280.298 L2301.75 275.801 Q2301.77 275.777 2302.15 275.215 Q2301.4 274.794 2300.32 274.794 L2300.32 272.545 L2305.26 272.686 L2309.67 272.545 L2309.67 274.794 Q2307.75 274.794 2306.74 274.934 Q2305.76 275.051 2305.45 275.215 Q2305.17 275.379 2304.77 275.801 L2299.17 282.031 L2307.23 291.587 L2310.63 291.587 L2310.63 293.836 Z" fill="#000000" fill-rule="nonzero" fill-opacity="1" /><polyline clip-path="url(#clip850)" style="stroke:#e26f46; stroke-linecap:round; stroke-linejoin:round; stroke-width:3; stroke-opacity:1; fill:none" stroke-dasharray="12, 6, 2, 6" points="2213.09,335.137 2273.55,335.137 "/>
<path clip-path="url(#clip850)" d="M2306.21 323.615 L2305.8 324.287 Q2303.26 323.189 2300.09 321.434 Q2296.93 323.189 2294.39 324.287 L2293.99 323.615 Q2296.76 321.205 2300.09 319.352 Q2303.45 321.221 2306.21 323.615 Z" fill="#000000" fill-rule="nonzero" fill-opacity="1" /><path clip-path="url(#clip850)" d="M2310.63 350.681 L2305.36 350.54 L2299.6 350.681 L2299.6 348.432 L2301.47 348.432 L2296.2 342.202 L2291.54 347.425 L2291.21 347.893 Q2291.21 348.104 2291.75 348.268 Q2292.31 348.432 2292.97 348.432 L2292.97 350.681 L2288.03 350.54 L2283.62 350.681 L2283.62 348.432 Q2285.1 348.432 2285.78 348.409 Q2286.48 348.362 2287.28 348.151 Q2288.07 347.94 2288.47 347.519 L2294.75 340.468 L2287.28 331.638 L2283.86 331.638 L2283.86 329.39 L2289.15 329.53 L2294.94 329.39 L2294.94 331.638 L2293.01 331.638 L2297.72 337.142 L2301.75 332.645 Q2301.77 332.622 2302.15 332.06 Q2301.4 331.638 2300.32 331.638 L2300.32 329.39 L2305.26 329.53 L2309.67 329.39 L2309.67 331.638 Q2307.75 331.638 2306.74 331.779 Q2305.76 331.896 2305.45 332.06 Q2305.17 332.224 2304.77 332.645 L2299.17 338.876 L2307.23 348.432 L2310.63 348.432 L2310.63 350.681 Z" fill="#000000" fill-rule="nonzero" fill-opacity="1" /><path clip-path="url(#clip850)" d="M1445.91 910.936 L2352.76 910.936 L2352.76 559.488 L1445.91 559.488  Z" fill="#ffffff" fill-rule="evenodd" fill-opacity="1"/>
<defs>
  <clipPath id="clip854">
    <rect x="1445" y="559" width="908" height="352"/>
  </clipPath>
</defs>
<polyline clip-path="url(#clip854)" style="stroke:#000000; stroke-linecap:round; stroke-linejoin:round; stroke-width:2; stroke-opacity:0.1; fill:none" points="1471.57,910.936 1471.57,559.488 "/>
<polyline clip-path="url(#clip854)" style="stroke:#000000; stroke-linecap:round; stroke-linejoin:round; stroke-width:2; stroke-opacity:0.1; fill:none" points="1723.2,910.936 1723.2,559.488 "/>
<polyline clip-path="url(#clip854)" style="stroke:#000000; stroke-linecap:round; stroke-linejoin:round; stroke-width:2; stroke-opacity:0.1; fill:none" points="1974.82,910.936 1974.82,559.488 "/>
<polyline clip-path="url(#clip854)" style="stroke:#000000; stroke-linecap:round; stroke-linejoin:round; stroke-width:2; stroke-opacity:0.1; fill:none" points="2226.44,910.936 2226.44,559.488 "/>
<polyline clip-path="url(#clip854)" style="stroke:#000000; stroke-linecap:round; stroke-linejoin:round; stroke-width:2; stroke-opacity:0.1; fill:none" points="1445.91,846.67 2352.76,846.67 "/>
<polyline clip-path="url(#clip854)" style="stroke:#000000; stroke-linecap:round; stroke-linejoin:round; stroke-width:2; stroke-opacity:0.1; fill:none" points="1445.91,774.254 2352.76,774.254 "/>
<polyline clip-path="url(#clip854)" style="stroke:#000000; stroke-linecap:round; stroke-linejoin:round; stroke-width:2; stroke-opacity:0.1; fill:none" points="1445.91,701.837 2352.76,701.837 "/>
<polyline clip-path="url(#clip854)" style="stroke:#000000; stroke-linecap:round; stroke-linejoin:round; stroke-width:2; stroke-opacity:0.1; fill:none" points="1445.91,629.421 2352.76,629.421 "/>
<polyline clip-path="url(#clip850)" style="stroke:#000000; stroke-linecap:round; stroke-linejoin:round; stroke-width:4; stroke-opacity:1; fill:none" points="1445.91,910.936 2352.76,910.936 "/>
<polyline clip-path="url(#clip850)" style="stroke:#000000; stroke-linecap:round; stroke-linejoin:round; stroke-width:4; stroke-opacity:1; fill:none" points="1471.57,910.936 1471.57,892.038 "/>
<polyline clip-path="url(#clip850)" style="stroke:#000000; stroke-linecap:round; stroke-linejoin:round; stroke-width:4; stroke-opacity:1; fill:none" points="1723.2,910.936 1723.2,892.038 "/>
<polyline clip-path="url(#clip850)" style="stroke:#000000; stroke-linecap:round; stroke-linejoin:round; stroke-width:4; stroke-opacity:1; fill:none" points="1974.82,910.936 1974.82,892.038 "/>
<polyline clip-path="url(#clip850)" style="stroke:#000000; stroke-linecap:round; stroke-linejoin:round; stroke-width:4; stroke-opacity:1; fill:none" points="2226.44,910.936 2226.44,892.038 "/>
<path clip-path="url(#clip850)" d="M1471.57 941.855 Q1467.96 941.855 1466.13 945.419 Q1464.33 948.961 1464.33 956.091 Q1464.33 963.197 1466.13 966.762 Q1467.96 970.303 1471.57 970.303 Q1475.21 970.303 1477.01 966.762 Q1478.84 963.197 1478.84 956.091 Q1478.84 948.961 1477.01 945.419 Q1475.21 941.855 1471.57 941.855 M1471.57 938.151 Q1477.38 938.151 1480.44 942.757 Q1483.52 947.341 1483.52 956.091 Q1483.52 964.817 1480.44 969.424 Q1477.38 974.007 1471.57 974.007 Q1465.76 974.007 1462.68 969.424 Q1459.63 964.817 1459.63 956.091 Q1459.63 947.341 1462.68 942.757 Q1465.76 938.151 1471.57 938.151 Z" fill="#000000" fill-rule="nonzero" fill-opacity="1" /><path clip-path="url(#clip850)" d="M1713.58 969.401 L1721.22 969.401 L1721.22 943.035 L1712.91 944.702 L1712.91 940.443 L1721.17 938.776 L1725.85 938.776 L1725.85 969.401 L1733.49 969.401 L1733.49 973.336 L1713.58 973.336 L1713.58 969.401 Z" fill="#000000" fill-rule="nonzero" fill-opacity="1" /><path clip-path="url(#clip850)" d="M1969.47 969.401 L1985.79 969.401 L1985.79 973.336 L1963.85 973.336 L1963.85 969.401 Q1966.51 966.646 1971.09 962.016 Q1975.7 957.364 1976.88 956.021 Q1979.12 953.498 1980 951.762 Q1980.91 950.003 1980.91 948.313 Q1980.91 945.558 1978.96 943.822 Q1977.04 942.086 1973.94 942.086 Q1971.74 942.086 1969.29 942.85 Q1966.86 943.614 1964.08 945.165 L1964.08 940.443 Q1966.9 939.308 1969.36 938.73 Q1971.81 938.151 1973.85 938.151 Q1979.22 938.151 1982.41 940.836 Q1985.61 943.521 1985.61 948.012 Q1985.61 950.142 1984.8 952.063 Q1984.01 953.961 1981.9 956.554 Q1981.32 957.225 1978.22 960.442 Q1975.12 963.637 1969.47 969.401 Z" fill="#000000" fill-rule="nonzero" fill-opacity="1" /><path clip-path="url(#clip850)" d="M2230.69 954.702 Q2234.05 955.419 2235.92 957.688 Q2237.82 959.956 2237.82 963.29 Q2237.82 968.405 2234.3 971.206 Q2230.78 974.007 2224.3 974.007 Q2222.12 974.007 2219.81 973.567 Q2217.52 973.151 2215.06 972.294 L2215.06 967.78 Q2217.01 968.915 2219.32 969.493 Q2221.64 970.072 2224.16 970.072 Q2228.56 970.072 2230.85 968.336 Q2233.17 966.6 2233.17 963.29 Q2233.17 960.234 2231.01 958.521 Q2228.88 956.785 2225.06 956.785 L2221.04 956.785 L2221.04 952.942 L2225.25 952.942 Q2228.7 952.942 2230.53 951.577 Q2232.36 950.188 2232.36 947.595 Q2232.36 944.933 2230.46 943.521 Q2228.58 942.086 2225.06 942.086 Q2223.14 942.086 2220.94 942.503 Q2218.74 942.919 2216.11 943.799 L2216.11 939.632 Q2218.77 938.892 2221.08 938.521 Q2223.42 938.151 2225.48 938.151 Q2230.8 938.151 2233.91 940.581 Q2237.01 942.989 2237.01 947.109 Q2237.01 949.979 2235.36 951.97 Q2233.72 953.938 2230.69 954.702 Z" fill="#000000" fill-rule="nonzero" fill-opacity="1" /><polyline clip-path="url(#clip850)" style="stroke:#000000; stroke-linecap:round; stroke-linejoin:round; stroke-width:4; stroke-opacity:1; fill:none" points="1445.91,910.936 1445.91,559.488 "/>
<polyline clip-path="url(#clip850)" style="stroke:#000000; stroke-linecap:round; stroke-linejoin:round; stroke-width:4; stroke-opacity:1; fill:none" points="1445.91,846.67 1464.81,846.67 "/>
<polyline clip-path="url(#clip850)" style="stroke:#000000; stroke-linecap:round; stroke-linejoin:round; stroke-width:4; stroke-opacity:1; fill:none" points="1445.91,774.254 1464.81,774.254 "/>
<polyline clip-path="url(#clip850)" style="stroke:#000000; stroke-linecap:round; stroke-linejoin:round; stroke-width:4; stroke-opacity:1; fill:none" points="1445.91,701.837 1464.81,701.837 "/>
<polyline clip-path="url(#clip850)" style="stroke:#000000; stroke-linecap:round; stroke-linejoin:round; stroke-width:4; stroke-opacity:1; fill:none" points="1445.91,629.421 1464.81,629.421 "/>
<path clip-path="url(#clip850)" d="M1352.73 832.469 Q1349.12 832.469 1347.29 836.034 Q1345.49 839.575 1345.49 846.705 Q1345.49 853.811 1347.29 857.376 Q1349.12 860.918 1352.73 860.918 Q1356.37 860.918 1358.17 857.376 Q1360 853.811 1360 846.705 Q1360 839.575 1358.17 836.034 Q1356.37 832.469 1352.73 832.469 M1352.73 828.765 Q1358.54 828.765 1361.6 833.372 Q1364.68 837.955 1364.68 846.705 Q1364.68 855.432 1361.6 860.038 Q1358.54 864.621 1352.73 864.621 Q1346.92 864.621 1343.84 860.038 Q1340.79 855.432 1340.79 846.705 Q1340.79 837.955 1343.84 833.372 Q1346.92 828.765 1352.73 828.765 Z" fill="#000000" fill-rule="nonzero" fill-opacity="1" /><path clip-path="url(#clip850)" d="M1372.89 858.071 L1377.78 858.071 L1377.78 863.95 L1372.89 863.95 L1372.89 858.071 Z" fill="#000000" fill-rule="nonzero" fill-opacity="1" /><path clip-path="url(#clip850)" d="M1397.96 832.469 Q1394.35 832.469 1392.52 836.034 Q1390.72 839.575 1390.72 846.705 Q1390.72 853.811 1392.52 857.376 Q1394.35 860.918 1397.96 860.918 Q1401.6 860.918 1403.4 857.376 Q1405.23 853.811 1405.23 846.705 Q1405.23 839.575 1403.4 836.034 Q1401.6 832.469 1397.96 832.469 M1397.96 828.765 Q1403.77 828.765 1406.83 833.372 Q1409.91 837.955 1409.91 846.705 Q1409.91 855.432 1406.83 860.038 Q1403.77 864.621 1397.96 864.621 Q1392.15 864.621 1389.07 860.038 Q1386.02 855.432 1386.02 846.705 Q1386.02 837.955 1389.07 833.372 Q1392.15 828.765 1397.96 828.765 Z" fill="#000000" fill-rule="nonzero" fill-opacity="1" /><path clip-path="url(#clip850)" d="M1353.38 760.052 Q1349.77 760.052 1347.94 763.617 Q1346.13 767.159 1346.13 774.288 Q1346.13 781.395 1347.94 784.96 Q1349.77 788.501 1353.38 788.501 Q1357.01 788.501 1358.82 784.96 Q1360.65 781.395 1360.65 774.288 Q1360.65 767.159 1358.82 763.617 Q1357.01 760.052 1353.38 760.052 M1353.38 756.349 Q1359.19 756.349 1362.25 760.955 Q1365.32 765.539 1365.32 774.288 Q1365.32 783.015 1362.25 787.622 Q1359.19 792.205 1353.38 792.205 Q1347.57 792.205 1344.49 787.622 Q1341.44 783.015 1341.44 774.288 Q1341.44 765.539 1344.49 760.955 Q1347.57 756.349 1353.38 756.349 Z" fill="#000000" fill-rule="nonzero" fill-opacity="1" /><path clip-path="url(#clip850)" d="M1373.54 785.654 L1378.43 785.654 L1378.43 791.534 L1373.54 791.534 L1373.54 785.654 Z" fill="#000000" fill-rule="nonzero" fill-opacity="1" /><path clip-path="url(#clip850)" d="M1402.78 772.9 Q1406.13 773.617 1408.01 775.886 Q1409.91 778.154 1409.91 781.488 Q1409.91 786.603 1406.39 789.404 Q1402.87 792.205 1396.39 792.205 Q1394.21 792.205 1391.9 791.765 Q1389.61 791.349 1387.15 790.492 L1387.15 785.978 Q1389.1 787.112 1391.41 787.691 Q1393.73 788.27 1396.25 788.27 Q1400.65 788.27 1402.94 786.534 Q1405.26 784.798 1405.26 781.488 Q1405.26 778.432 1403.1 776.719 Q1400.97 774.983 1397.15 774.983 L1393.13 774.983 L1393.13 771.14 L1397.34 771.14 Q1400.79 771.14 1402.62 769.775 Q1404.44 768.386 1404.44 765.793 Q1404.44 763.131 1402.55 761.719 Q1400.67 760.284 1397.15 760.284 Q1395.23 760.284 1393.03 760.701 Q1390.83 761.117 1388.19 761.997 L1388.19 757.83 Q1390.86 757.089 1393.17 756.719 Q1395.51 756.349 1397.57 756.349 Q1402.89 756.349 1406 758.779 Q1409.1 761.187 1409.1 765.307 Q1409.1 768.177 1407.45 770.168 Q1405.81 772.136 1402.78 772.9 Z" fill="#000000" fill-rule="nonzero" fill-opacity="1" /><path clip-path="url(#clip850)" d="M1352.57 687.636 Q1348.96 687.636 1347.13 691.201 Q1345.32 694.743 1345.32 701.872 Q1345.32 708.979 1347.13 712.543 Q1348.96 716.085 1352.57 716.085 Q1356.2 716.085 1358.01 712.543 Q1359.84 708.979 1359.84 701.872 Q1359.84 694.743 1358.01 691.201 Q1356.2 687.636 1352.57 687.636 M1352.57 683.932 Q1358.38 683.932 1361.44 688.539 Q1364.51 693.122 1364.51 701.872 Q1364.51 710.599 1361.44 715.205 Q1358.38 719.789 1352.57 719.789 Q1346.76 719.789 1343.68 715.205 Q1340.63 710.599 1340.63 701.872 Q1340.63 693.122 1343.68 688.539 Q1346.76 683.932 1352.57 683.932 Z" fill="#000000" fill-rule="nonzero" fill-opacity="1" /><path clip-path="url(#clip850)" d="M1372.73 713.238 L1377.62 713.238 L1377.62 719.117 L1372.73 719.117 L1372.73 713.238 Z" fill="#000000" fill-rule="nonzero" fill-opacity="1" /><path clip-path="url(#clip850)" d="M1398.38 699.974 Q1395.23 699.974 1393.38 702.127 Q1391.55 704.279 1391.55 708.029 Q1391.55 711.756 1393.38 713.932 Q1395.23 716.085 1398.38 716.085 Q1401.53 716.085 1403.36 713.932 Q1405.21 711.756 1405.21 708.029 Q1405.21 704.279 1403.36 702.127 Q1401.53 699.974 1398.38 699.974 M1407.66 685.321 L1407.66 689.58 Q1405.9 688.747 1404.1 688.307 Q1402.32 687.868 1400.56 687.868 Q1395.93 687.868 1393.47 690.993 Q1391.04 694.118 1390.69 700.437 Q1392.06 698.423 1394.12 697.358 Q1396.18 696.27 1398.66 696.27 Q1403.87 696.27 1406.88 699.442 Q1409.91 702.59 1409.91 708.029 Q1409.91 713.354 1406.76 716.571 Q1403.61 719.789 1398.38 719.789 Q1392.38 719.789 1389.21 715.205 Q1386.04 710.599 1386.04 701.872 Q1386.04 693.678 1389.93 688.817 Q1393.82 683.932 1400.37 683.932 Q1402.13 683.932 1403.91 684.28 Q1405.72 684.627 1407.66 685.321 Z" fill="#000000" fill-rule="nonzero" fill-opacity="1" /><path clip-path="url(#clip850)" d="M1352.92 615.22 Q1349.31 615.22 1347.48 618.784 Q1345.67 622.326 1345.67 629.456 Q1345.67 636.562 1347.48 640.127 Q1349.31 643.669 1352.92 643.669 Q1356.55 643.669 1358.36 640.127 Q1360.19 636.562 1360.19 629.456 Q1360.19 622.326 1358.36 618.784 Q1356.55 615.22 1352.92 615.22 M1352.92 611.516 Q1358.73 611.516 1361.78 616.122 Q1364.86 620.706 1364.86 629.456 Q1364.86 638.183 1361.78 642.789 Q1358.73 647.372 1352.92 647.372 Q1347.11 647.372 1344.03 642.789 Q1340.97 638.183 1340.97 629.456 Q1340.97 620.706 1344.03 616.122 Q1347.11 611.516 1352.92 611.516 Z" fill="#000000" fill-rule="nonzero" fill-opacity="1" /><path clip-path="url(#clip850)" d="M1373.08 640.821 L1377.96 640.821 L1377.96 646.701 L1373.08 646.701 L1373.08 640.821 Z" fill="#000000" fill-rule="nonzero" fill-opacity="1" /><path clip-path="url(#clip850)" d="M1388.29 645.983 L1388.29 641.724 Q1390.05 642.558 1391.85 642.997 Q1393.66 643.437 1395.39 643.437 Q1400.02 643.437 1402.45 640.335 Q1404.91 637.21 1405.26 630.868 Q1403.91 632.858 1401.85 633.923 Q1399.79 634.988 1397.29 634.988 Q1392.11 634.988 1389.07 631.863 Q1386.07 628.715 1386.07 623.275 Q1386.07 617.951 1389.21 614.734 Q1392.36 611.516 1397.59 611.516 Q1403.59 611.516 1406.74 616.122 Q1409.91 620.706 1409.91 629.456 Q1409.91 637.627 1406.02 642.511 Q1402.15 647.372 1395.6 647.372 Q1393.84 647.372 1392.04 647.025 Q1390.23 646.678 1388.29 645.983 M1397.59 631.331 Q1400.74 631.331 1402.57 629.178 Q1404.42 627.025 1404.42 623.275 Q1404.42 619.548 1402.57 617.396 Q1400.74 615.22 1397.59 615.22 Q1394.44 615.22 1392.59 617.396 Q1390.76 619.548 1390.76 623.275 Q1390.76 627.025 1392.59 629.178 Q1394.44 631.331 1397.59 631.331 Z" fill="#000000" fill-rule="nonzero" fill-opacity="1" /><path clip-path="url(#clip850)" d="M1265.64 831.559 Q1268.64 831.559 1274.44 833.072 Q1276.95 833.684 1279.23 834.522 Q1281.49 835.327 1283.68 836.518 Q1285.87 837.71 1287.45 839.095 Q1288.99 840.48 1289.96 842.283 Q1290.92 844.087 1290.92 846.084 Q1290.92 849.24 1289.06 851.108 Q1287.16 852.943 1283.9 853.523 Q1290.92 857.839 1290.92 863.604 Q1290.92 867.178 1288.38 868.853 Q1285.8 870.528 1281.49 870.528 Q1277.85 870.528 1274.08 869.562 Q1266.93 867.726 1261.94 864.151 Q1261.36 863.668 1261.36 862.959 Q1261.36 862.541 1261.49 862.347 Q1261.84 861.768 1262.42 861.768 Q1262.84 861.768 1263.26 862.09 Q1266.38 864.344 1269.06 865.826 Q1271.73 867.307 1274.44 867.984 Q1276.75 868.499 1278.72 868.499 Q1282.04 868.499 1284.1 867.082 Q1286.16 865.632 1286.16 862.766 Q1286.16 860.125 1284.52 857.806 Q1282.84 855.488 1280.04 853.781 Q1276.98 853.684 1274.08 852.943 Q1270.99 852.267 1270.99 850.689 Q1270.99 849.433 1272.7 849.433 Q1273.28 849.433 1274.44 849.691 Q1277.49 850.399 1280.23 851.687 Q1282.91 851.236 1284.55 849.562 Q1286.16 847.887 1286.16 845.214 Q1286.16 842.734 1284.35 840.544 Q1282.55 838.322 1279.91 836.905 Q1277.24 835.456 1274.08 834.65 Q1273.02 834.393 1271.67 834.393 Q1268.06 834.393 1265.84 836.905 Q1265.13 837.613 1264.19 837.613 Q1263.1 837.613 1262.1 836.712 Q1261.04 835.649 1261.04 834.393 Q1261.04 833.459 1261.62 832.879 Q1262.78 831.559 1265.64 831.559 Z" fill="#000000" fill-rule="nonzero" fill-opacity="1" /><path clip-path="url(#clip850)" d="M1240.72 788.989 Q1248.04 793.255 1255.2 795.323 Q1262.37 797.392 1269.72 797.392 Q1277.07 797.392 1284.3 795.323 Q1291.49 793.223 1298.78 788.989 L1298.78 794.082 Q1291.3 798.856 1284.07 801.243 Q1276.85 803.599 1269.72 803.599 Q1262.62 803.599 1255.43 801.243 Q1248.23 798.888 1240.72 794.082 L1240.72 788.989 Z" fill="#000000" fill-rule="nonzero" fill-opacity="1" /><path clip-path="url(#clip850)" d="M1260.01 756.97 Q1259.44 757.957 1259.18 759.134 Q1258.9 760.28 1258.9 761.681 Q1258.9 766.646 1262.14 769.319 Q1265.36 771.961 1271.41 771.961 L1290.18 771.961 L1290.18 777.85 L1254.54 777.85 L1254.54 771.961 L1260.07 771.961 Q1256.83 770.115 1255.27 767.155 Q1253.68 764.195 1253.68 759.962 Q1253.68 759.357 1253.77 758.625 Q1253.84 757.893 1254 757.002 L1260.01 756.97 Z" fill="#000000" fill-rule="nonzero" fill-opacity="1" /><path clip-path="url(#clip850)" d="M1272.26 734.626 Q1272.26 741.724 1273.89 744.461 Q1275.51 747.199 1279.43 747.199 Q1282.55 747.199 1284.39 745.162 Q1286.21 743.093 1286.21 739.56 Q1286.21 734.69 1282.77 731.762 Q1279.3 728.802 1273.57 728.802 L1272.26 728.802 L1272.26 734.626 M1269.85 722.945 L1290.18 722.945 L1290.18 728.802 L1284.77 728.802 Q1288.02 730.807 1289.58 733.799 Q1291.11 736.791 1291.11 741.119 Q1291.11 746.594 1288.05 749.84 Q1284.96 753.055 1279.81 753.055 Q1273.79 753.055 1270.74 749.045 Q1267.68 745.002 1267.68 737.013 L1267.68 728.802 L1267.11 728.802 Q1263.07 728.802 1260.87 731.475 Q1258.64 734.117 1258.64 738.923 Q1258.64 741.979 1259.37 744.875 Q1260.11 747.772 1261.57 750.445 L1256.16 750.445 Q1254.92 747.23 1254.31 744.207 Q1253.68 741.183 1253.68 738.318 Q1253.68 730.584 1257.69 726.765 Q1261.7 722.945 1269.85 722.945 Z" fill="#000000" fill-rule="nonzero" fill-opacity="1" /><path clip-path="url(#clip850)" d="M1259.95 687.425 L1240.66 687.425 L1240.66 681.568 L1290.18 681.568 L1290.18 687.425 L1284.84 687.425 Q1288.02 689.271 1289.58 692.103 Q1291.11 694.904 1291.11 698.851 Q1291.11 705.312 1285.95 709.386 Q1280.79 713.429 1272.39 713.429 Q1263.99 713.429 1258.83 709.386 Q1253.68 705.312 1253.68 698.851 Q1253.68 694.904 1255.24 692.103 Q1256.76 689.271 1259.95 687.425 M1272.39 707.381 Q1278.85 707.381 1282.55 704.739 Q1286.21 702.066 1286.21 697.419 Q1286.21 692.772 1282.55 690.098 Q1278.85 687.425 1272.39 687.425 Q1265.93 687.425 1262.27 690.098 Q1258.58 692.772 1258.58 697.419 Q1258.58 702.066 1262.27 704.739 Q1265.93 707.381 1272.39 707.381 Z" fill="#000000" fill-rule="nonzero" fill-opacity="1" /><path clip-path="url(#clip850)" d="M1242.66 659.097 L1242.66 653.686 L1296.23 670.237 L1296.23 675.648 L1242.66 659.097 Z" fill="#000000" fill-rule="nonzero" fill-opacity="1" /><path clip-path="url(#clip850)" d="M1255.59 624.818 L1261.12 624.818 Q1259.85 627.301 1259.21 629.974 Q1258.58 632.648 1258.58 635.512 Q1258.58 639.873 1259.92 642.069 Q1261.25 644.233 1263.93 644.233 Q1265.96 644.233 1267.14 642.674 Q1268.29 641.114 1269.34 636.404 L1269.78 634.398 Q1271.12 628.16 1273.57 625.55 Q1275.99 622.908 1280.35 622.908 Q1285.31 622.908 1288.21 626.855 Q1291.11 630.77 1291.11 637.645 Q1291.11 640.509 1290.53 643.629 Q1289.99 646.716 1288.88 650.153 L1282.83 650.153 Q1284.52 646.907 1285.38 643.756 Q1286.21 640.605 1286.21 637.517 Q1286.21 633.38 1284.81 631.152 Q1283.37 628.924 1280.79 628.924 Q1278.41 628.924 1277.13 630.547 Q1275.86 632.138 1274.68 637.581 L1274.21 639.618 Q1273.06 645.061 1270.71 647.48 Q1268.32 649.899 1264.18 649.899 Q1259.15 649.899 1256.41 646.334 Q1253.68 642.769 1253.68 636.213 Q1253.68 632.966 1254.15 630.101 Q1254.63 627.237 1255.59 624.818 Z" fill="#000000" fill-rule="nonzero" fill-opacity="1" /><path clip-path="url(#clip850)" d="M1240.72 614.505 L1240.72 609.413 Q1248.23 604.639 1255.43 602.283 Q1262.62 599.896 1269.72 599.896 Q1276.85 599.896 1284.07 602.283 Q1291.3 604.639 1298.78 609.413 L1298.78 614.505 Q1291.49 610.272 1284.3 608.203 Q1277.07 606.103 1269.72 606.103 Q1262.37 606.103 1255.2 608.203 Q1248.04 610.272 1240.72 614.505 Z" fill="#000000" fill-rule="nonzero" fill-opacity="1" /><polyline clip-path="url(#clip854)" style="stroke:#009af9; stroke-linecap:round; stroke-linejoin:round; stroke-width:4; stroke-opacity:1; fill:none" points="1471.57,846.67 1496.74,656.618 1521.9,577.133 1547.06,579.239 1572.22,629.394 1597.38,698.368 1622.55,765.754 1647.71,820.267 1672.87,857.736 1698.03,878.63 1723.2,885.972 1748.36,883.82 1773.52,876.22 1798.68,866.571 1823.85,857.307 1849.01,849.859 1874.17,844.792 1899.33,842.041 1924.49,841.167 1949.66,841.583 1974.82,842.709 1999.98,844.071 2025.14,845.343 2050.31,846.342 2075.47,847.004 2100.63,847.349 2125.79,847.442 2150.95,847.366 2176.12,847.201 2201.28,847.009 2226.44,846.835 2251.6,846.701 2276.77,846.615 2301.93,846.572 2327.09,846.562 "/>
<polyline clip-path="url(#clip854)" style="stroke:#e26f46; stroke-linecap:round; stroke-linejoin:round; stroke-width:3; stroke-opacity:1; fill:none" stroke-dasharray="12, 6, 2, 6" points="1471.57,846.67 1496.74,635.155 1521.9,569.435 1547.06,579.525 1572.22,629.484 1597.38,707.743 1622.55,769.363 1647.71,824.099 1672.87,864.712 1698.03,897.838 1723.2,891.795 1748.36,882.835 1773.52,900.989 1798.68,884.478 1823.85,869.014 1849.01,849.033 1874.17,841.986 1899.33,847.547 1924.49,841.486 1949.66,837.004 1974.82,839.185 1999.98,848.324 2025.14,853.777 2050.31,842.522 2075.47,854.699 2100.63,838.448 2125.79,841.038 2150.95,846.908 2176.12,844.703 2201.28,848.691 2226.44,861.346 2251.6,850.323 2276.77,841.3 2301.93,845.713 2327.09,846.48 "/>
<path clip-path="url(#clip850)" d="M2203.01 726.723 L2322.53 726.723 L2322.53 571.203 L2203.01 571.203  Z" fill="#ffffff" fill-rule="evenodd" fill-opacity="1"/>
<polyline clip-path="url(#clip850)" style="stroke:#000000; stroke-linecap:round; stroke-linejoin:round; stroke-width:4; stroke-opacity:1; fill:none" points="2203.01,726.723 2322.53,726.723 2322.53,571.203 2203.01,571.203 2203.01,726.723 "/>
<polyline clip-path="url(#clip850)" style="stroke:#009af9; stroke-linecap:round; stroke-linejoin:round; stroke-width:4; stroke-opacity:1; fill:none" points="2213.09,623.043 2273.55,623.043 "/>
<path clip-path="url(#clip850)" d="M2310.63 633.582 L2305.36 633.442 L2299.6 633.582 L2299.6 631.334 L2301.47 631.334 L2296.2 625.103 L2291.54 630.326 L2291.21 630.795 Q2291.21 631.006 2291.75 631.17 Q2292.31 631.334 2292.97 631.334 L2292.97 633.582 L2288.03 633.442 L2283.62 633.582 L2283.62 631.334 Q2285.1 631.334 2285.78 631.31 Q2286.48 631.263 2287.28 631.052 Q2288.07 630.842 2288.47 630.42 L2294.75 623.37 L2287.28 614.54 L2283.86 614.54 L2283.86 612.291 L2289.15 612.432 L2294.94 612.291 L2294.94 614.54 L2293.01 614.54 L2297.72 620.044 L2301.75 615.547 Q2301.77 615.523 2302.15 614.961 Q2301.4 614.54 2300.32 614.54 L2300.32 612.291 L2305.26 612.432 L2309.67 612.291 L2309.67 614.54 Q2307.75 614.54 2306.74 614.68 Q2305.76 614.797 2305.45 614.961 Q2305.17 615.125 2304.77 615.547 L2299.17 621.777 L2307.23 631.334 L2310.63 631.334 L2310.63 633.582 Z" fill="#000000" fill-rule="nonzero" fill-opacity="1" /><polyline clip-path="url(#clip850)" style="stroke:#e26f46; stroke-linecap:round; stroke-linejoin:round; stroke-width:3; stroke-opacity:1; fill:none" stroke-dasharray="12, 6, 2, 6" points="2213.09,674.883 2273.55,674.883 "/>
<path clip-path="url(#clip850)" d="M2306.21 663.361 L2305.8 664.033 Q2303.26 662.935 2300.09 661.18 Q2296.93 662.935 2294.39 664.033 L2293.99 663.361 Q2296.76 660.951 2300.09 659.098 Q2303.45 660.967 2306.21 663.361 Z" fill="#000000" fill-rule="nonzero" fill-opacity="1" /><path clip-path="url(#clip850)" d="M2310.63 690.427 L2305.36 690.286 L2299.6 690.427 L2299.6 688.178 L2301.47 688.178 L2296.2 681.948 L2291.54 687.171 L2291.21 687.639 Q2291.21 687.85 2291.75 688.014 Q2292.31 688.178 2292.97 688.178 L2292.97 690.427 L2288.03 690.286 L2283.62 690.427 L2283.62 688.178 Q2285.1 688.178 2285.78 688.155 Q2286.48 688.108 2287.28 687.897 Q2288.07 687.686 2288.47 687.265 L2294.75 680.214 L2287.28 671.384 L2283.86 671.384 L2283.86 669.136 L2289.15 669.276 L2294.94 669.136 L2294.94 671.384 L2293.01 671.384 L2297.72 676.888 L2301.75 672.391 Q2301.77 672.368 2302.15 671.806 Q2301.4 671.384 2300.32 671.384 L2300.32 669.136 L2305.26 669.276 L2309.67 669.136 L2309.67 671.384 Q2307.75 671.384 2306.74 671.525 Q2305.76 671.642 2305.45 671.806 Q2305.17 671.97 2304.77 672.391 L2299.17 678.622 L2307.23 688.178 L2310.63 688.178 L2310.63 690.427 Z" fill="#000000" fill-rule="nonzero" fill-opacity="1" /><path clip-path="url(#clip850)" d="M1445.91 1423.18 L2352.76 1423.18 L2352.76 1071.73 L1445.91 1071.73  Z" fill="#ffffff" fill-rule="evenodd" fill-opacity="1"/>
<defs>
  <clipPath id="clip855">
    <rect x="1445" y="1071" width="908" height="352"/>
  </clipPath>
</defs>
<polyline clip-path="url(#clip855)" style="stroke:#000000; stroke-linecap:round; stroke-linejoin:round; stroke-width:2; stroke-opacity:0.1; fill:none" points="1471.57,1423.18 1471.57,1071.73 "/>
<polyline clip-path="url(#clip855)" style="stroke:#000000; stroke-linecap:round; stroke-linejoin:round; stroke-width:2; stroke-opacity:0.1; fill:none" points="1723.2,1423.18 1723.2,1071.73 "/>
<polyline clip-path="url(#clip855)" style="stroke:#000000; stroke-linecap:round; stroke-linejoin:round; stroke-width:2; stroke-opacity:0.1; fill:none" points="1974.82,1423.18 1974.82,1071.73 "/>
<polyline clip-path="url(#clip855)" style="stroke:#000000; stroke-linecap:round; stroke-linejoin:round; stroke-width:2; stroke-opacity:0.1; fill:none" points="2226.44,1423.18 2226.44,1071.73 "/>
<polyline clip-path="url(#clip855)" style="stroke:#000000; stroke-linecap:round; stroke-linejoin:round; stroke-width:2; stroke-opacity:0.1; fill:none" points="1445.91,1373.5 2352.76,1373.5 "/>
<polyline clip-path="url(#clip855)" style="stroke:#000000; stroke-linecap:round; stroke-linejoin:round; stroke-width:2; stroke-opacity:0.1; fill:none" points="1445.91,1295.54 2352.76,1295.54 "/>
<polyline clip-path="url(#clip855)" style="stroke:#000000; stroke-linecap:round; stroke-linejoin:round; stroke-width:2; stroke-opacity:0.1; fill:none" points="1445.91,1217.58 2352.76,1217.58 "/>
<polyline clip-path="url(#clip855)" style="stroke:#000000; stroke-linecap:round; stroke-linejoin:round; stroke-width:2; stroke-opacity:0.1; fill:none" points="1445.91,1139.62 2352.76,1139.62 "/>
<polyline clip-path="url(#clip850)" style="stroke:#000000; stroke-linecap:round; stroke-linejoin:round; stroke-width:4; stroke-opacity:1; fill:none" points="1445.91,1423.18 2352.76,1423.18 "/>
<polyline clip-path="url(#clip850)" style="stroke:#000000; stroke-linecap:round; stroke-linejoin:round; stroke-width:4; stroke-opacity:1; fill:none" points="1471.57,1423.18 1471.57,1404.28 "/>
<polyline clip-path="url(#clip850)" style="stroke:#000000; stroke-linecap:round; stroke-linejoin:round; stroke-width:4; stroke-opacity:1; fill:none" points="1723.2,1423.18 1723.2,1404.28 "/>
<polyline clip-path="url(#clip850)" style="stroke:#000000; stroke-linecap:round; stroke-linejoin:round; stroke-width:4; stroke-opacity:1; fill:none" points="1974.82,1423.18 1974.82,1404.28 "/>
<polyline clip-path="url(#clip850)" style="stroke:#000000; stroke-linecap:round; stroke-linejoin:round; stroke-width:4; stroke-opacity:1; fill:none" points="2226.44,1423.18 2226.44,1404.28 "/>
<path clip-path="url(#clip850)" d="M1471.57 1454.1 Q1467.96 1454.1 1466.13 1457.66 Q1464.33 1461.2 1464.33 1468.33 Q1464.33 1475.44 1466.13 1479.01 Q1467.96 1482.55 1471.57 1482.55 Q1475.21 1482.55 1477.01 1479.01 Q1478.84 1475.44 1478.84 1468.33 Q1478.84 1461.2 1477.01 1457.66 Q1475.21 1454.1 1471.57 1454.1 M1471.57 1450.39 Q1477.38 1450.39 1480.44 1455 Q1483.52 1459.58 1483.52 1468.33 Q1483.52 1477.06 1480.44 1481.67 Q1477.38 1486.25 1471.57 1486.25 Q1465.76 1486.25 1462.68 1481.67 Q1459.63 1477.06 1459.63 1468.33 Q1459.63 1459.58 1462.68 1455 Q1465.76 1450.39 1471.57 1450.39 Z" fill="#000000" fill-rule="nonzero" fill-opacity="1" /><path clip-path="url(#clip850)" d="M1713.58 1481.64 L1721.22 1481.64 L1721.22 1455.28 L1712.91 1456.95 L1712.91 1452.69 L1721.17 1451.02 L1725.85 1451.02 L1725.85 1481.64 L1733.49 1481.64 L1733.49 1485.58 L1713.58 1485.58 L1713.58 1481.64 Z" fill="#000000" fill-rule="nonzero" fill-opacity="1" /><path clip-path="url(#clip850)" d="M1969.47 1481.64 L1985.79 1481.64 L1985.79 1485.58 L1963.85 1485.58 L1963.85 1481.64 Q1966.51 1478.89 1971.09 1474.26 Q1975.7 1469.61 1976.88 1468.27 Q1979.12 1465.74 1980 1464.01 Q1980.91 1462.25 1980.91 1460.56 Q1980.91 1457.8 1978.96 1456.07 Q1977.04 1454.33 1973.94 1454.33 Q1971.74 1454.33 1969.29 1455.09 Q1966.86 1455.86 1964.08 1457.41 L1964.08 1452.69 Q1966.9 1451.55 1969.36 1450.97 Q1971.81 1450.39 1973.85 1450.39 Q1979.22 1450.39 1982.41 1453.08 Q1985.61 1455.77 1985.61 1460.26 Q1985.61 1462.39 1984.8 1464.31 Q1984.01 1466.2 1981.9 1468.8 Q1981.32 1469.47 1978.22 1472.69 Q1975.12 1475.88 1969.47 1481.64 Z" fill="#000000" fill-rule="nonzero" fill-opacity="1" /><path clip-path="url(#clip850)" d="M2230.69 1466.95 Q2234.05 1467.66 2235.92 1469.93 Q2237.82 1472.2 2237.82 1475.53 Q2237.82 1480.65 2234.3 1483.45 Q2230.78 1486.25 2224.3 1486.25 Q2222.12 1486.25 2219.81 1485.81 Q2217.52 1485.39 2215.06 1484.54 L2215.06 1480.02 Q2217.01 1481.16 2219.32 1481.74 Q2221.64 1482.32 2224.16 1482.32 Q2228.56 1482.32 2230.85 1480.58 Q2233.17 1478.84 2233.17 1475.53 Q2233.17 1472.48 2231.01 1470.77 Q2228.88 1469.03 2225.06 1469.03 L2221.04 1469.03 L2221.04 1465.19 L2225.25 1465.19 Q2228.7 1465.19 2230.53 1463.82 Q2232.36 1462.43 2232.36 1459.84 Q2232.36 1457.18 2230.46 1455.77 Q2228.58 1454.33 2225.06 1454.33 Q2223.14 1454.33 2220.94 1454.75 Q2218.74 1455.16 2216.11 1456.04 L2216.11 1451.88 Q2218.77 1451.14 2221.08 1450.77 Q2223.42 1450.39 2225.48 1450.39 Q2230.8 1450.39 2233.91 1452.83 Q2237.01 1455.23 2237.01 1459.35 Q2237.01 1462.22 2235.36 1464.21 Q2233.72 1466.18 2230.69 1466.95 Z" fill="#000000" fill-rule="nonzero" fill-opacity="1" /><path clip-path="url(#clip850)" d="M1769.5 1520.52 L1809.7 1520.52 L1809.7 1525.93 L1792.83 1525.93 L1792.83 1568.04 L1786.37 1568.04 L1786.37 1525.93 L1769.5 1525.93 L1769.5 1520.52 Z" fill="#000000" fill-rule="nonzero" fill-opacity="1" /><path clip-path="url(#clip850)" d="M1813.65 1532.4 L1819.51 1532.4 L1819.51 1568.04 L1813.65 1568.04 L1813.65 1532.4 M1813.65 1518.52 L1819.51 1518.52 L1819.51 1525.93 L1813.65 1525.93 L1813.65 1518.52 Z" fill="#000000" fill-rule="nonzero" fill-opacity="1" /><path clip-path="url(#clip850)" d="M1859.51 1539.24 Q1861.71 1535.29 1864.77 1533.41 Q1867.82 1531.54 1871.96 1531.54 Q1877.53 1531.54 1880.55 1535.45 Q1883.58 1539.33 1883.58 1546.53 L1883.58 1568.04 L1877.69 1568.04 L1877.69 1546.72 Q1877.69 1541.59 1875.87 1539.11 Q1874.06 1536.63 1870.34 1536.63 Q1865.78 1536.63 1863.14 1539.65 Q1860.5 1542.68 1860.5 1547.9 L1860.5 1568.04 L1854.61 1568.04 L1854.61 1546.72 Q1854.61 1541.56 1852.8 1539.11 Q1850.98 1536.63 1847.2 1536.63 Q1842.71 1536.63 1840.07 1539.68 Q1837.43 1542.71 1837.43 1547.9 L1837.43 1568.04 L1831.54 1568.04 L1831.54 1532.4 L1837.43 1532.4 L1837.43 1537.93 Q1839.43 1534.66 1842.23 1533.1 Q1845.03 1531.54 1848.88 1531.54 Q1852.77 1531.54 1855.47 1533.51 Q1858.21 1535.48 1859.51 1539.24 Z" fill="#000000" fill-rule="nonzero" fill-opacity="1" /><path clip-path="url(#clip850)" d="M1925.75 1548.76 L1925.75 1551.62 L1898.82 1551.62 Q1899.2 1557.67 1902.45 1560.85 Q1905.73 1564 1911.55 1564 Q1914.93 1564 1918.08 1563.17 Q1921.26 1562.35 1924.38 1560.69 L1924.38 1566.23 Q1921.23 1567.57 1917.92 1568.27 Q1914.61 1568.97 1911.2 1568.97 Q1902.67 1568.97 1897.68 1564 Q1892.71 1559.04 1892.71 1550.57 Q1892.71 1541.82 1897.42 1536.69 Q1902.16 1531.54 1910.19 1531.54 Q1917.38 1531.54 1921.55 1536.18 Q1925.75 1540.8 1925.75 1548.76 M1919.89 1547.04 Q1919.83 1542.23 1917.19 1539.37 Q1914.58 1536.5 1910.25 1536.5 Q1905.35 1536.5 1902.39 1539.27 Q1899.46 1542.04 1899.01 1547.07 L1919.89 1547.04 Z" fill="#000000" fill-rule="nonzero" fill-opacity="1" /><path clip-path="url(#clip850)" d="M1970.15 1518.58 Q1965.89 1525.9 1963.82 1533.06 Q1961.75 1540.23 1961.75 1547.58 Q1961.75 1554.93 1963.82 1562.16 Q1965.92 1569.35 1970.15 1576.64 L1965.06 1576.64 Q1960.28 1569.16 1957.9 1561.93 Q1955.54 1554.71 1955.54 1547.58 Q1955.54 1540.48 1957.9 1533.29 Q1960.25 1526.09 1965.06 1518.58 L1970.15 1518.58 Z" fill="#000000" fill-rule="nonzero" fill-opacity="1" /><path clip-path="url(#clip850)" d="M2004.24 1533.45 L2004.24 1538.98 Q2001.76 1537.71 1999.08 1537.07 Q1996.41 1536.44 1993.54 1536.44 Q1989.18 1536.44 1986.99 1537.77 Q1984.82 1539.11 1984.82 1541.79 Q1984.82 1543.82 1986.38 1545 Q1987.94 1546.15 1992.65 1547.2 L1994.66 1547.64 Q2000.9 1548.98 2003.51 1551.43 Q2006.15 1553.85 2006.15 1558.21 Q2006.15 1563.17 2002.2 1566.07 Q1998.29 1568.97 1991.41 1568.97 Q1988.55 1568.97 1985.43 1568.39 Q1982.34 1567.85 1978.9 1566.74 L1978.9 1560.69 Q1982.15 1562.38 1985.3 1563.24 Q1988.45 1564.07 1991.54 1564.07 Q1995.68 1564.07 1997.9 1562.66 Q2000.13 1561.23 2000.13 1558.65 Q2000.13 1556.27 1998.51 1554.99 Q1996.92 1553.72 1991.48 1552.54 L1989.44 1552.07 Q1984 1550.92 1981.58 1548.56 Q1979.16 1546.18 1979.16 1542.04 Q1979.16 1537.01 1982.72 1534.27 Q1986.29 1531.54 1992.84 1531.54 Q1996.09 1531.54 1998.96 1532.01 Q2001.82 1532.49 2004.24 1533.45 Z" fill="#000000" fill-rule="nonzero" fill-opacity="1" /><path clip-path="url(#clip850)" d="M2014.55 1518.58 L2019.64 1518.58 Q2024.42 1526.09 2026.77 1533.29 Q2029.16 1540.48 2029.16 1547.58 Q2029.16 1554.71 2026.77 1561.93 Q2024.42 1569.16 2019.64 1576.64 L2014.55 1576.64 Q2018.78 1569.35 2020.85 1562.16 Q2022.95 1554.93 2022.95 1547.58 Q2022.95 1540.23 2020.85 1533.06 Q2018.78 1525.9 2014.55 1518.58 Z" fill="#000000" fill-rule="nonzero" fill-opacity="1" /><polyline clip-path="url(#clip850)" style="stroke:#000000; stroke-linecap:round; stroke-linejoin:round; stroke-width:4; stroke-opacity:1; fill:none" points="1445.91,1423.18 1445.91,1071.73 "/>
<polyline clip-path="url(#clip850)" style="stroke:#000000; stroke-linecap:round; stroke-linejoin:round; stroke-width:4; stroke-opacity:1; fill:none" points="1445.91,1373.5 1464.81,1373.5 "/>
<polyline clip-path="url(#clip850)" style="stroke:#000000; stroke-linecap:round; stroke-linejoin:round; stroke-width:4; stroke-opacity:1; fill:none" points="1445.91,1295.54 1464.81,1295.54 "/>
<polyline clip-path="url(#clip850)" style="stroke:#000000; stroke-linecap:round; stroke-linejoin:round; stroke-width:4; stroke-opacity:1; fill:none" points="1445.91,1217.58 1464.81,1217.58 "/>
<polyline clip-path="url(#clip850)" style="stroke:#000000; stroke-linecap:round; stroke-linejoin:round; stroke-width:4; stroke-opacity:1; fill:none" points="1445.91,1139.62 1464.81,1139.62 "/>
<path clip-path="url(#clip850)" d="M1272.32 1373.95 L1301.99 1373.95 L1301.99 1377.88 L1272.32 1377.88 L1272.32 1373.95 Z" fill="#000000" fill-rule="nonzero" fill-opacity="1" /><path clip-path="url(#clip850)" d="M1322.08 1359.3 Q1318.47 1359.3 1316.64 1362.86 Q1314.84 1366.4 1314.84 1373.53 Q1314.84 1380.64 1316.64 1384.2 Q1318.47 1387.75 1322.08 1387.75 Q1325.72 1387.75 1327.52 1384.2 Q1329.35 1380.64 1329.35 1373.53 Q1329.35 1366.4 1327.52 1362.86 Q1325.72 1359.3 1322.08 1359.3 M1322.08 1355.59 Q1327.89 1355.59 1330.95 1360.2 Q1334.03 1364.78 1334.03 1373.53 Q1334.03 1382.26 1330.95 1386.87 Q1327.89 1391.45 1322.08 1391.45 Q1316.27 1391.45 1313.2 1386.87 Q1310.14 1382.26 1310.14 1373.53 Q1310.14 1364.78 1313.2 1360.2 Q1316.27 1355.59 1322.08 1355.59 Z" fill="#000000" fill-rule="nonzero" fill-opacity="1" /><path clip-path="url(#clip850)" d="M1342.25 1384.9 L1347.13 1384.9 L1347.13 1390.78 L1342.25 1390.78 L1342.25 1384.9 Z" fill="#000000" fill-rule="nonzero" fill-opacity="1" /><path clip-path="url(#clip850)" d="M1367.32 1359.3 Q1363.7 1359.3 1361.88 1362.86 Q1360.07 1366.4 1360.07 1373.53 Q1360.07 1380.64 1361.88 1384.2 Q1363.7 1387.75 1367.32 1387.75 Q1370.95 1387.75 1372.76 1384.2 Q1374.58 1380.64 1374.58 1373.53 Q1374.58 1366.4 1372.76 1362.86 Q1370.95 1359.3 1367.32 1359.3 M1367.32 1355.59 Q1373.13 1355.59 1376.18 1360.2 Q1379.26 1364.78 1379.26 1373.53 Q1379.26 1382.26 1376.18 1386.87 Q1373.13 1391.45 1367.32 1391.45 Q1361.51 1391.45 1358.43 1386.87 Q1355.37 1382.26 1355.37 1373.53 Q1355.37 1364.78 1358.43 1360.2 Q1361.51 1355.59 1367.32 1355.59 Z" fill="#000000" fill-rule="nonzero" fill-opacity="1" /><path clip-path="url(#clip850)" d="M1400.32 1360.29 L1388.52 1378.74 L1400.32 1378.74 L1400.32 1360.29 M1399.1 1356.22 L1404.98 1356.22 L1404.98 1378.74 L1409.91 1378.74 L1409.91 1382.63 L1404.98 1382.63 L1404.98 1390.78 L1400.32 1390.78 L1400.32 1382.63 L1384.72 1382.63 L1384.72 1378.12 L1399.1 1356.22 Z" fill="#000000" fill-rule="nonzero" fill-opacity="1" /><path clip-path="url(#clip850)" d="M1274.4 1295.99 L1304.08 1295.99 L1304.08 1299.93 L1274.4 1299.93 L1274.4 1295.99 Z" fill="#000000" fill-rule="nonzero" fill-opacity="1" /><path clip-path="url(#clip850)" d="M1324.17 1281.34 Q1320.56 1281.34 1318.73 1284.9 Q1316.92 1288.45 1316.92 1295.57 Q1316.92 1302.68 1318.73 1306.25 Q1320.56 1309.79 1324.17 1309.79 Q1327.8 1309.79 1329.61 1306.25 Q1331.44 1302.68 1331.44 1295.57 Q1331.44 1288.45 1329.61 1284.9 Q1327.8 1281.34 1324.17 1281.34 M1324.17 1277.63 Q1329.98 1277.63 1333.03 1282.24 Q1336.11 1286.82 1336.11 1295.57 Q1336.11 1304.3 1333.03 1308.91 Q1329.98 1313.49 1324.17 1313.49 Q1318.36 1313.49 1315.28 1308.91 Q1312.22 1304.3 1312.22 1295.57 Q1312.22 1286.82 1315.28 1282.24 Q1318.36 1277.63 1324.17 1277.63 Z" fill="#000000" fill-rule="nonzero" fill-opacity="1" /><path clip-path="url(#clip850)" d="M1344.33 1306.94 L1349.21 1306.94 L1349.21 1312.82 L1344.33 1312.82 L1344.33 1306.94 Z" fill="#000000" fill-rule="nonzero" fill-opacity="1" /><path clip-path="url(#clip850)" d="M1369.4 1281.34 Q1365.79 1281.34 1363.96 1284.9 Q1362.15 1288.45 1362.15 1295.57 Q1362.15 1302.68 1363.96 1306.25 Q1365.79 1309.79 1369.4 1309.79 Q1373.03 1309.79 1374.84 1306.25 Q1376.67 1302.68 1376.67 1295.57 Q1376.67 1288.45 1374.84 1284.9 Q1373.03 1281.34 1369.4 1281.34 M1369.4 1277.63 Q1375.21 1277.63 1378.26 1282.24 Q1381.34 1286.82 1381.34 1295.57 Q1381.34 1304.3 1378.26 1308.91 Q1375.21 1313.49 1369.4 1313.49 Q1363.59 1313.49 1360.51 1308.91 Q1357.45 1304.3 1357.45 1295.57 Q1357.45 1286.82 1360.51 1282.24 Q1363.59 1277.63 1369.4 1277.63 Z" fill="#000000" fill-rule="nonzero" fill-opacity="1" /><path clip-path="url(#clip850)" d="M1393.59 1308.88 L1409.91 1308.88 L1409.91 1312.82 L1387.96 1312.82 L1387.96 1308.88 Q1390.63 1306.13 1395.21 1301.5 Q1399.82 1296.85 1401 1295.51 Q1403.24 1292.98 1404.12 1291.25 Q1405.02 1289.49 1405.02 1287.8 Q1405.02 1285.04 1403.08 1283.31 Q1401.16 1281.57 1398.06 1281.57 Q1395.86 1281.57 1393.4 1282.33 Q1390.97 1283.1 1388.19 1284.65 L1388.19 1279.93 Q1391.02 1278.79 1393.47 1278.21 Q1395.93 1277.63 1397.96 1277.63 Q1403.33 1277.63 1406.53 1280.32 Q1409.72 1283.01 1409.72 1287.5 Q1409.72 1289.63 1408.91 1291.55 Q1408.13 1293.45 1406.02 1296.04 Q1405.44 1296.71 1402.34 1299.93 Q1399.24 1303.12 1393.59 1308.88 Z" fill="#000000" fill-rule="nonzero" fill-opacity="1" /><path clip-path="url(#clip850)" d="M1322.57 1203.38 Q1318.96 1203.38 1317.13 1206.95 Q1315.32 1210.49 1315.32 1217.62 Q1315.32 1224.72 1317.13 1228.29 Q1318.96 1231.83 1322.57 1231.83 Q1326.2 1231.83 1328.01 1228.29 Q1329.84 1224.72 1329.84 1217.62 Q1329.84 1210.49 1328.01 1206.95 Q1326.2 1203.38 1322.57 1203.38 M1322.57 1199.68 Q1328.38 1199.68 1331.44 1204.28 Q1334.51 1208.87 1334.51 1217.62 Q1334.51 1226.34 1331.44 1230.95 Q1328.38 1235.53 1322.57 1235.53 Q1316.76 1235.53 1313.68 1230.95 Q1310.63 1226.34 1310.63 1217.62 Q1310.63 1208.87 1313.68 1204.28 Q1316.76 1199.68 1322.57 1199.68 Z" fill="#000000" fill-rule="nonzero" fill-opacity="1" /><path clip-path="url(#clip850)" d="M1342.73 1228.98 L1347.62 1228.98 L1347.62 1234.86 L1342.73 1234.86 L1342.73 1228.98 Z" fill="#000000" fill-rule="nonzero" fill-opacity="1" /><path clip-path="url(#clip850)" d="M1367.8 1203.38 Q1364.19 1203.38 1362.36 1206.95 Q1360.56 1210.49 1360.56 1217.62 Q1360.56 1224.72 1362.36 1228.29 Q1364.19 1231.83 1367.8 1231.83 Q1371.44 1231.83 1373.24 1228.29 Q1375.07 1224.72 1375.07 1217.62 Q1375.07 1210.49 1373.24 1206.95 Q1371.44 1203.38 1367.8 1203.38 M1367.8 1199.68 Q1373.61 1199.68 1376.67 1204.28 Q1379.75 1208.87 1379.75 1217.62 Q1379.75 1226.34 1376.67 1230.95 Q1373.61 1235.53 1367.8 1235.53 Q1361.99 1235.53 1358.91 1230.95 Q1355.86 1226.34 1355.86 1217.62 Q1355.86 1208.87 1358.91 1204.28 Q1361.99 1199.68 1367.8 1199.68 Z" fill="#000000" fill-rule="nonzero" fill-opacity="1" /><path clip-path="url(#clip850)" d="M1397.96 1203.38 Q1394.35 1203.38 1392.52 1206.95 Q1390.72 1210.49 1390.72 1217.62 Q1390.72 1224.72 1392.52 1228.29 Q1394.35 1231.83 1397.96 1231.83 Q1401.6 1231.83 1403.4 1228.29 Q1405.23 1224.72 1405.23 1217.62 Q1405.23 1210.49 1403.4 1206.95 Q1401.6 1203.38 1397.96 1203.38 M1397.96 1199.68 Q1403.77 1199.68 1406.83 1204.28 Q1409.91 1208.87 1409.91 1217.62 Q1409.91 1226.34 1406.83 1230.95 Q1403.77 1235.53 1397.96 1235.53 Q1392.15 1235.53 1389.07 1230.95 Q1386.02 1226.34 1386.02 1217.62 Q1386.02 1208.87 1389.07 1204.28 Q1392.15 1199.68 1397.96 1199.68 Z" fill="#000000" fill-rule="nonzero" fill-opacity="1" /><path clip-path="url(#clip850)" d="M1324.17 1125.42 Q1320.56 1125.42 1318.73 1128.99 Q1316.92 1132.53 1316.92 1139.66 Q1316.92 1146.77 1318.73 1150.33 Q1320.56 1153.87 1324.17 1153.87 Q1327.8 1153.87 1329.61 1150.33 Q1331.44 1146.77 1331.44 1139.66 Q1331.44 1132.53 1329.61 1128.99 Q1327.8 1125.42 1324.17 1125.42 M1324.17 1121.72 Q1329.98 1121.72 1333.03 1126.33 Q1336.11 1130.91 1336.11 1139.66 Q1336.11 1148.39 1333.03 1152.99 Q1329.98 1157.58 1324.17 1157.58 Q1318.36 1157.58 1315.28 1152.99 Q1312.22 1148.39 1312.22 1139.66 Q1312.22 1130.91 1315.28 1126.33 Q1318.36 1121.72 1324.17 1121.72 Z" fill="#000000" fill-rule="nonzero" fill-opacity="1" /><path clip-path="url(#clip850)" d="M1344.33 1151.02 L1349.21 1151.02 L1349.21 1156.9 L1344.33 1156.9 L1344.33 1151.02 Z" fill="#000000" fill-rule="nonzero" fill-opacity="1" /><path clip-path="url(#clip850)" d="M1369.4 1125.42 Q1365.79 1125.42 1363.96 1128.99 Q1362.15 1132.53 1362.15 1139.66 Q1362.15 1146.77 1363.96 1150.33 Q1365.79 1153.87 1369.4 1153.87 Q1373.03 1153.87 1374.84 1150.33 Q1376.67 1146.77 1376.67 1139.66 Q1376.67 1132.53 1374.84 1128.99 Q1373.03 1125.42 1369.4 1125.42 M1369.4 1121.72 Q1375.21 1121.72 1378.26 1126.33 Q1381.34 1130.91 1381.34 1139.66 Q1381.34 1148.39 1378.26 1152.99 Q1375.21 1157.58 1369.4 1157.58 Q1363.59 1157.58 1360.51 1152.99 Q1357.45 1148.39 1357.45 1139.66 Q1357.45 1130.91 1360.51 1126.33 Q1363.59 1121.72 1369.4 1121.72 Z" fill="#000000" fill-rule="nonzero" fill-opacity="1" /><path clip-path="url(#clip850)" d="M1393.59 1152.97 L1409.91 1152.97 L1409.91 1156.9 L1387.96 1156.9 L1387.96 1152.97 Q1390.63 1150.21 1395.21 1145.58 Q1399.82 1140.93 1401 1139.59 Q1403.24 1137.07 1404.12 1135.33 Q1405.02 1133.57 1405.02 1131.88 Q1405.02 1129.13 1403.08 1127.39 Q1401.16 1125.65 1398.06 1125.65 Q1395.86 1125.65 1393.4 1126.42 Q1390.97 1127.18 1388.19 1128.73 L1388.19 1124.01 Q1391.02 1122.88 1393.47 1122.3 Q1395.93 1121.72 1397.96 1121.72 Q1403.33 1121.72 1406.53 1124.4 Q1409.72 1127.09 1409.72 1131.58 Q1409.72 1133.71 1408.91 1135.63 Q1408.13 1137.53 1406.02 1140.12 Q1405.44 1140.79 1402.34 1144.01 Q1399.24 1147.21 1393.59 1152.97 Z" fill="#000000" fill-rule="nonzero" fill-opacity="1" /><path clip-path="url(#clip850)" d="M1182.01 1252.88 L1182.94 1253.44 Q1181.43 1256.93 1179.02 1261.28 Q1181.43 1265.63 1182.94 1269.13 L1182.01 1269.67 Q1178.7 1265.86 1176.15 1261.28 Q1178.72 1256.66 1182.01 1252.88 Z" fill="#000000" fill-rule="nonzero" fill-opacity="1" /><path clip-path="url(#clip850)" d="M1194.31 1249.71 Q1196.12 1249.71 1197.15 1250.84 Q1198.14 1251.97 1198.14 1253.26 Q1198.14 1254.48 1197.44 1255.12 Q1196.73 1255.77 1195.83 1255.77 Q1194.6 1255.77 1193.54 1254.87 Q1192.48 1253.96 1192.25 1252.61 Q1191.41 1253.93 1191.41 1255.9 Q1191.41 1257.18 1192.09 1258.31 Q1192.77 1259.41 1193.64 1260.08 Q1194.51 1260.73 1195.76 1261.31 Q1196.99 1261.85 1197.73 1262.08 Q1198.43 1262.27 1199.21 1262.43 L1208.23 1264.69 Q1212.51 1265.78 1214.02 1265.78 Q1215.89 1265.78 1217.15 1264.88 Q1218.37 1263.98 1218.37 1262.18 Q1218.37 1261.47 1218.18 1260.66 Q1217.95 1259.86 1217.37 1258.83 Q1216.76 1257.76 1215.86 1256.83 Q1214.92 1255.86 1213.35 1254.93 Q1211.77 1254 1209.74 1253.38 Q1209.03 1253.19 1209.03 1252.55 Q1209.03 1251.74 1209.67 1251.74 Q1210.22 1251.74 1211.38 1252.19 Q1212.51 1252.61 1213.99 1253.55 Q1215.44 1254.45 1216.76 1255.64 Q1218.05 1256.83 1218.95 1258.6 Q1219.85 1260.37 1219.85 1262.31 Q1219.85 1265.08 1218.37 1266.91 Q1216.89 1268.75 1214.83 1269.42 Q1215.12 1269.58 1215.5 1269.81 Q1215.89 1270.03 1216.76 1270.71 Q1217.6 1271.36 1218.24 1272.1 Q1218.85 1272.84 1219.34 1274 Q1219.85 1275.12 1219.85 1276.35 Q1219.85 1277.89 1219.4 1279.28 Q1218.95 1280.63 1217.92 1281.6 Q1216.89 1282.56 1215.47 1282.56 Q1213.89 1282.56 1212.8 1281.5 Q1211.67 1280.41 1211.67 1278.92 Q1211.67 1277.99 1212.22 1277.25 Q1212.77 1276.48 1213.96 1276.48 Q1215.28 1276.48 1216.28 1277.38 Q1217.27 1278.28 1217.53 1279.57 Q1218.37 1278.25 1218.37 1276.28 Q1218.37 1274.16 1216.5 1272.48 Q1214.63 1270.81 1211.51 1270 Q1204.01 1268.01 1200.66 1267.23 Q1197.28 1266.46 1195.83 1266.46 Q1194.47 1266.46 1193.54 1266.81 Q1192.61 1267.17 1192.19 1267.78 Q1191.74 1268.36 1191.57 1268.91 Q1191.41 1269.42 1191.41 1270 Q1191.41 1270.97 1191.8 1272.06 Q1192.19 1273.13 1193.09 1274.41 Q1193.96 1275.67 1195.76 1276.86 Q1197.56 1278.05 1200.04 1278.86 Q1200.79 1279.02 1200.79 1279.73 Q1200.75 1280.5 1200.11 1280.5 Q1199.56 1280.5 1198.43 1280.08 Q1197.28 1279.63 1195.83 1278.73 Q1194.38 1277.8 1193.09 1276.6 Q1191.77 1275.38 1190.87 1273.61 Q1189.96 1271.81 1189.96 1269.87 Q1189.96 1269 1190.16 1268.17 Q1190.32 1267.3 1190.8 1266.27 Q1191.28 1265.2 1192.35 1264.27 Q1193.41 1263.34 1194.96 1262.76 Q1194.22 1262.37 1193.51 1261.85 Q1192.8 1261.31 1191.93 1260.47 Q1191.03 1259.6 1190.51 1258.41 Q1189.96 1257.18 1189.96 1255.83 Q1189.96 1254.51 1190.32 1253.22 Q1190.64 1251.94 1191.7 1250.84 Q1192.73 1249.71 1194.31 1249.71 Z" fill="#000000" fill-rule="nonzero" fill-opacity="1" /><path clip-path="url(#clip850)" d="M1231.9 1242.25 Q1230.52 1242.25 1229.87 1241.46 Q1229.22 1240.68 1229.22 1239.66 Q1229.22 1238.6 1229.92 1237.86 Q1230.59 1237.09 1231.79 1237.09 Q1233.07 1237.09 1233.79 1237.99 Q1234.51 1238.87 1234.33 1240.13 Q1236.18 1239.03 1237.02 1237 Q1237.85 1234.95 1237.85 1233.06 Q1237.85 1231.07 1236.14 1229.47 Q1234.42 1227.85 1230.23 1227.85 Q1226.67 1227.85 1224.62 1229.25 Q1222.57 1230.62 1222.57 1233.35 L1222.57 1235.38 Q1222.57 1236.08 1222.5 1236.28 Q1222.43 1236.48 1222.05 1236.48 Q1221.6 1236.48 1221.51 1235.78 Q1221.51 1235.08 1221.37 1233.98 Q1221.28 1231.3 1218.96 1229.88 Q1216.79 1228.59 1213.71 1228.59 Q1210.89 1228.59 1209.72 1229.94 Q1208.52 1231.27 1208.52 1233.01 Q1208.52 1234.63 1209.2 1236.41 Q1209.87 1238.2 1211.38 1239.17 Q1211.38 1236.3 1213.71 1236.3 Q1214.72 1236.3 1215.4 1236.96 Q1216.05 1237.59 1216.05 1238.65 Q1216.05 1239.66 1215.42 1240.34 Q1214.77 1241.01 1213.66 1241.01 Q1211.02 1241.01 1209.2 1238.67 Q1207.37 1236.3 1207.37 1232.83 Q1207.37 1229.4 1209.17 1226.88 Q1210.98 1224.33 1213.75 1224.33 Q1216.48 1224.33 1218.71 1226.13 Q1220.94 1227.94 1221.87 1230.8 Q1222.57 1227.28 1224.96 1225.19 Q1227.32 1223.09 1230.23 1223.09 Q1233.84 1223.09 1236.5 1225.93 Q1239.14 1228.77 1239.14 1232.92 Q1239.14 1236.75 1237.06 1239.5 Q1234.99 1242.25 1231.9 1242.25 Z" fill="#000000" fill-rule="nonzero" fill-opacity="1" /><polyline clip-path="url(#clip855)" style="stroke:#e26f46; stroke-linecap:round; stroke-linejoin:round; stroke-width:3; stroke-opacity:1; fill:none" stroke-dasharray="12, 6, 2, 6" points="1471.57,1217.58 1496.74,1081.68 1521.9,1268.55 1547.06,1355.7 1572.22,1378.74 1597.38,1413.23 1622.55,1387.93 1647.71,1364 1672.87,1340.8 1698.03,1344.5 1723.2,1291.43 1748.36,1244.22 1773.52,1281.62 1798.68,1267.47 1823.85,1258.85 1849.01,1233.5 1874.17,1225.02 1899.33,1242.58 1924.49,1234.69 1949.66,1222.28 1974.82,1218.49 1999.98,1232.33 2025.14,1246.56 2050.31,1223.76 2075.47,1252.37 2100.63,1219.01 2125.79,1216.33 2150.95,1222.29 2176.12,1211.72 2201.28,1214.61 2226.44,1247.05 2251.6,1235.17 2276.77,1219.39 2301.93,1228.94 2327.09,1232.86 "/>
</svg>
