<?xml version="1.0" encoding="utf-8"?>
<svg xmlns="http://www.w3.org/2000/svg" xmlns:xlink="http://www.w3.org/1999/xlink" width="600" height="400" viewBox="0 0 2400 1600">
<defs>
  <clipPath id="clip780">
    <rect x="0" y="0" width="2400" height="1600"/>
  </clipPath>
</defs>
<path clip-path="url(#clip780)" d="M0 1600 L2400 1600 L2400 0 L0 0  Z" fill="#ffffff" fill-rule="evenodd" fill-opacity="1"/>
<defs>
  <clipPath id="clip781">
    <rect x="480" y="0" width="1681" height="1600"/>
  </clipPath>
</defs>
<path clip-path="url(#clip780)" d="M203.964 1423.18 L1110.81 1423.18 L1110.81 47.2441 L203.964 47.2441  Z" fill="#ffffff" fill-rule="evenodd" fill-opacity="1"/>
<defs>
  <clipPath id="clip782">
    <rect x="203" y="47" width="908" height="1377"/>
  </clipPath>
</defs>
<polyline clip-path="url(#clip782)" style="stroke:#000000; stroke-linecap:round; stroke-linejoin:round; stroke-width:2; stroke-opacity:0.1; fill:none" points="229.629,1423.18 229.629,47.2441 "/>
<polyline clip-path="url(#clip782)" style="stroke:#000000; stroke-linecap:round; stroke-linejoin:round; stroke-width:2; stroke-opacity:0.1; fill:none" points="481.252,1423.18 481.252,47.2441 "/>
<polyline clip-path="url(#clip782)" style="stroke:#000000; stroke-linecap:round; stroke-linejoin:round; stroke-width:2; stroke-opacity:0.1; fill:none" points="732.874,1423.18 732.874,47.2441 "/>
<polyline clip-path="url(#clip782)" style="stroke:#000000; stroke-linecap:round; stroke-linejoin:round; stroke-width:2; stroke-opacity:0.1; fill:none" points="984.497,1423.18 984.497,47.2441 "/>
<polyline clip-path="url(#clip782)" style="stroke:#000000; stroke-linecap:round; stroke-linejoin:round; stroke-width:2; stroke-opacity:0.1; fill:none" points="203.964,1379.79 1110.81,1379.79 "/>
<polyline clip-path="url(#clip782)" style="stroke:#000000; stroke-linecap:round; stroke-linejoin:round; stroke-width:2; stroke-opacity:0.1; fill:none" points="203.964,1152.76 1110.81,1152.76 "/>
<polyline clip-path="url(#clip782)" style="stroke:#000000; stroke-linecap:round; stroke-linejoin:round; stroke-width:2; stroke-opacity:0.1; fill:none" points="203.964,925.723 1110.81,925.723 "/>
<polyline clip-path="url(#clip782)" style="stroke:#000000; stroke-linecap:round; stroke-linejoin:round; stroke-width:2; stroke-opacity:0.1; fill:none" points="203.964,698.69 1110.81,698.69 "/>
<polyline clip-path="url(#clip782)" style="stroke:#000000; stroke-linecap:round; stroke-linejoin:round; stroke-width:2; stroke-opacity:0.1; fill:none" points="203.964,471.656 1110.81,471.656 "/>
<polyline clip-path="url(#clip782)" style="stroke:#000000; stroke-linecap:round; stroke-linejoin:round; stroke-width:2; stroke-opacity:0.1; fill:none" points="203.964,244.623 1110.81,244.623 "/>
<polyline clip-path="url(#clip780)" style="stroke:#000000; stroke-linecap:round; stroke-linejoin:round; stroke-width:4; stroke-opacity:1; fill:none" points="203.964,1423.18 1110.81,1423.18 "/>
<polyline clip-path="url(#clip780)" style="stroke:#000000; stroke-linecap:round; stroke-linejoin:round; stroke-width:4; stroke-opacity:1; fill:none" points="229.629,1423.18 229.629,1404.28 "/>
<polyline clip-path="url(#clip780)" style="stroke:#000000; stroke-linecap:round; stroke-linejoin:round; stroke-width:4; stroke-opacity:1; fill:none" points="481.252,1423.18 481.252,1404.28 "/>
<polyline clip-path="url(#clip780)" style="stroke:#000000; stroke-linecap:round; stroke-linejoin:round; stroke-width:4; stroke-opacity:1; fill:none" points="732.874,1423.18 732.874,1404.28 "/>
<polyline clip-path="url(#clip780)" style="stroke:#000000; stroke-linecap:round; stroke-linejoin:round; stroke-width:4; stroke-opacity:1; fill:none" points="984.497,1423.18 984.497,1404.28 "/>
<path clip-path="url(#clip780)" d="M229.629 1454.1 Q226.018 1454.1 224.189 1457.66 Q222.384 1461.2 222.384 1468.33 Q222.384 1475.44 224.189 1479.01 Q226.018 1482.55 229.629 1482.55 Q233.263 1482.55 235.069 1479.01 Q236.898 1475.44 236.898 1468.33 Q236.898 1461.2 235.069 1457.66 Q233.263 1454.1 229.629 1454.1 M229.629 1450.39 Q235.439 1450.39 238.495 1455 Q241.573 1459.58 241.573 1468.33 Q241.573 1477.06 238.495 1481.67 Q235.439 1486.25 229.629 1486.25 Q223.819 1486.25 220.74 1481.67 Q217.685 1477.06 217.685 1468.33 Q217.685 1459.58 220.74 1455 Q223.819 1450.39 229.629 1450.39 Z" fill="#000000" fill-rule="nonzero" fill-opacity="1" /><path clip-path="url(#clip780)" d="M471.634 1481.64 L479.273 1481.64 L479.273 1455.28 L470.962 1456.95 L470.962 1452.69 L479.226 1451.02 L483.902 1451.02 L483.902 1481.64 L491.541 1481.64 L491.541 1485.58 L471.634 1485.58 L471.634 1481.64 Z" fill="#000000" fill-rule="nonzero" fill-opacity="1" /><path clip-path="url(#clip780)" d="M727.527 1481.64 L743.847 1481.64 L743.847 1485.58 L721.902 1485.58 L721.902 1481.64 Q724.564 1478.89 729.148 1474.26 Q733.754 1469.61 734.935 1468.27 Q737.18 1465.74 738.06 1464.01 Q738.962 1462.25 738.962 1460.56 Q738.962 1457.8 737.018 1456.07 Q735.097 1454.33 731.995 1454.33 Q729.796 1454.33 727.342 1455.09 Q724.912 1455.86 722.134 1457.41 L722.134 1452.69 Q724.958 1451.55 727.411 1450.97 Q729.865 1450.39 731.902 1450.39 Q737.273 1450.39 740.467 1453.08 Q743.661 1455.77 743.661 1460.26 Q743.661 1462.39 742.851 1464.31 Q742.064 1466.2 739.958 1468.8 Q739.379 1469.47 736.277 1472.69 Q733.175 1475.88 727.527 1481.64 Z" fill="#000000" fill-rule="nonzero" fill-opacity="1" /><path clip-path="url(#clip780)" d="M988.745 1466.95 Q992.101 1467.66 993.976 1469.93 Q995.874 1472.2 995.874 1475.53 Q995.874 1480.65 992.356 1483.45 Q988.837 1486.25 982.356 1486.25 Q980.18 1486.25 977.865 1485.81 Q975.574 1485.39 973.12 1484.54 L973.12 1480.02 Q975.064 1481.16 977.379 1481.74 Q979.694 1482.32 982.217 1482.32 Q986.615 1482.32 988.907 1480.58 Q991.222 1478.84 991.222 1475.53 Q991.222 1472.48 989.069 1470.77 Q986.939 1469.03 983.12 1469.03 L979.092 1469.03 L979.092 1465.19 L983.305 1465.19 Q986.754 1465.19 988.583 1463.82 Q990.411 1462.43 990.411 1459.84 Q990.411 1457.18 988.513 1455.77 Q986.638 1454.33 983.12 1454.33 Q981.199 1454.33 978.999 1454.75 Q976.8 1455.16 974.162 1456.04 L974.162 1451.88 Q976.824 1451.14 979.138 1450.77 Q981.476 1450.39 983.536 1450.39 Q988.861 1450.39 991.962 1452.83 Q995.064 1455.23 995.064 1459.35 Q995.064 1462.22 993.421 1464.21 Q991.777 1466.18 988.745 1466.95 Z" fill="#000000" fill-rule="nonzero" fill-opacity="1" /><path clip-path="url(#clip780)" d="M527.559 1520.52 L567.758 1520.52 L567.758 1525.93 L550.889 1525.93 L550.889 1568.04 L544.428 1568.04 L544.428 1525.93 L527.559 1525.93 L527.559 1520.52 Z" fill="#000000" fill-rule="nonzero" fill-opacity="1" /><path clip-path="url(#clip780)" d="M571.705 1532.4 L577.562 1532.4 L577.562 1568.04 L571.705 1568.04 L571.705 1532.4 M571.705 1518.52 L577.562 1518.52 L577.562 1525.93 L571.705 1525.93 L571.705 1518.52 Z" fill="#000000" fill-rule="nonzero" fill-opacity="1" /><path clip-path="url(#clip780)" d="M617.57 1539.24 Q619.766 1535.29 622.822 1533.41 Q625.877 1531.54 630.015 1531.54 Q635.585 1531.54 638.609 1535.45 Q641.633 1539.33 641.633 1546.53 L641.633 1568.04 L635.744 1568.04 L635.744 1546.72 Q635.744 1541.59 633.93 1539.11 Q632.116 1536.63 628.392 1536.63 Q623.84 1536.63 621.199 1539.65 Q618.557 1542.68 618.557 1547.9 L618.557 1568.04 L612.669 1568.04 L612.669 1546.72 Q612.669 1541.56 610.854 1539.11 Q609.04 1536.63 605.252 1536.63 Q600.765 1536.63 598.123 1539.68 Q595.481 1542.71 595.481 1547.9 L595.481 1568.04 L589.593 1568.04 L589.593 1532.4 L595.481 1532.4 L595.481 1537.93 Q597.486 1534.66 600.287 1533.1 Q603.088 1531.54 606.939 1531.54 Q610.822 1531.54 613.528 1533.51 Q616.265 1535.48 617.57 1539.24 Z" fill="#000000" fill-rule="nonzero" fill-opacity="1" /><path clip-path="url(#clip780)" d="M683.805 1548.76 L683.805 1551.62 L656.878 1551.62 Q657.26 1557.67 660.507 1560.85 Q663.785 1564 669.61 1564 Q672.984 1564 676.135 1563.17 Q679.317 1562.35 682.437 1560.69 L682.437 1566.23 Q679.286 1567.57 675.975 1568.27 Q672.665 1568.97 669.26 1568.97 Q660.73 1568.97 655.733 1564 Q650.767 1559.04 650.767 1550.57 Q650.767 1541.82 655.478 1536.69 Q660.22 1531.54 668.241 1531.54 Q675.434 1531.54 679.604 1536.18 Q683.805 1540.8 683.805 1548.76 M677.949 1547.04 Q677.885 1542.23 675.243 1539.37 Q672.633 1536.5 668.305 1536.5 Q663.403 1536.5 660.443 1539.27 Q657.515 1542.04 657.069 1547.07 L677.949 1547.04 Z" fill="#000000" fill-rule="nonzero" fill-opacity="1" /><path clip-path="url(#clip780)" d="M728.206 1518.58 Q723.941 1525.9 721.872 1533.06 Q719.803 1540.23 719.803 1547.58 Q719.803 1554.93 721.872 1562.16 Q723.973 1569.35 728.206 1576.64 L723.114 1576.64 Q718.339 1569.16 715.952 1561.93 Q713.597 1554.71 713.597 1547.58 Q713.597 1540.48 715.952 1533.29 Q718.307 1526.09 723.114 1518.58 L728.206 1518.58 Z" fill="#000000" fill-rule="nonzero" fill-opacity="1" /><path clip-path="url(#clip780)" d="M762.294 1533.45 L762.294 1538.98 Q759.812 1537.71 757.138 1537.07 Q754.465 1536.44 751.6 1536.44 Q747.24 1536.44 745.043 1537.77 Q742.879 1539.11 742.879 1541.79 Q742.879 1543.82 744.439 1545 Q745.998 1546.15 750.709 1547.2 L752.714 1547.64 Q758.952 1548.98 761.562 1551.43 Q764.204 1553.85 764.204 1558.21 Q764.204 1563.17 760.257 1566.07 Q756.343 1568.97 749.468 1568.97 Q746.603 1568.97 743.484 1568.39 Q740.396 1567.85 736.959 1566.74 L736.959 1560.69 Q740.205 1562.38 743.356 1563.24 Q746.508 1564.07 749.595 1564.07 Q753.733 1564.07 755.961 1562.66 Q758.189 1561.23 758.189 1558.65 Q758.189 1556.27 756.565 1554.99 Q754.974 1553.72 749.531 1552.54 L747.494 1552.07 Q742.052 1550.92 739.633 1548.56 Q737.214 1546.18 737.214 1542.04 Q737.214 1537.01 740.778 1534.27 Q744.343 1531.54 750.9 1531.54 Q754.146 1531.54 757.011 1532.01 Q759.876 1532.49 762.294 1533.45 Z" fill="#000000" fill-rule="nonzero" fill-opacity="1" /><path clip-path="url(#clip780)" d="M772.607 1518.58 L777.699 1518.58 Q782.474 1526.09 784.829 1533.29 Q787.216 1540.48 787.216 1547.58 Q787.216 1554.71 784.829 1561.93 Q782.474 1569.16 777.699 1576.64 L772.607 1576.64 Q776.84 1569.35 778.909 1562.16 Q781.01 1554.93 781.01 1547.58 Q781.01 1540.23 778.909 1533.06 Q776.84 1525.9 772.607 1518.58 Z" fill="#000000" fill-rule="nonzero" fill-opacity="1" /><polyline clip-path="url(#clip780)" style="stroke:#000000; stroke-linecap:round; stroke-linejoin:round; stroke-width:4; stroke-opacity:1; fill:none" points="203.964,1423.18 203.964,47.2441 "/>
<polyline clip-path="url(#clip780)" style="stroke:#000000; stroke-linecap:round; stroke-linejoin:round; stroke-width:4; stroke-opacity:1; fill:none" points="203.964,1379.79 222.861,1379.79 "/>
<polyline clip-path="url(#clip780)" style="stroke:#000000; stroke-linecap:round; stroke-linejoin:round; stroke-width:4; stroke-opacity:1; fill:none" points="203.964,1152.76 222.861,1152.76 "/>
<polyline clip-path="url(#clip780)" style="stroke:#000000; stroke-linecap:round; stroke-linejoin:round; stroke-width:4; stroke-opacity:1; fill:none" points="203.964,925.723 222.861,925.723 "/>
<polyline clip-path="url(#clip780)" style="stroke:#000000; stroke-linecap:round; stroke-linejoin:round; stroke-width:4; stroke-opacity:1; fill:none" points="203.964,698.69 222.861,698.69 "/>
<polyline clip-path="url(#clip780)" style="stroke:#000000; stroke-linecap:round; stroke-linejoin:round; stroke-width:4; stroke-opacity:1; fill:none" points="203.964,471.656 222.861,471.656 "/>
<polyline clip-path="url(#clip780)" style="stroke:#000000; stroke-linecap:round; stroke-linejoin:round; stroke-width:4; stroke-opacity:1; fill:none" points="203.964,244.623 222.861,244.623 "/>
<path clip-path="url(#clip780)" d="M156.019 1365.59 Q152.408 1365.59 150.579 1369.15 Q148.774 1372.7 148.774 1379.82 Q148.774 1386.93 150.579 1390.5 Q152.408 1394.04 156.019 1394.04 Q159.653 1394.04 161.459 1390.5 Q163.288 1386.93 163.288 1379.82 Q163.288 1372.7 161.459 1369.15 Q159.653 1365.59 156.019 1365.59 M156.019 1361.89 Q161.829 1361.89 164.885 1366.49 Q167.964 1371.07 167.964 1379.82 Q167.964 1388.55 164.885 1393.16 Q161.829 1397.74 156.019 1397.74 Q150.209 1397.74 147.13 1393.16 Q144.075 1388.55 144.075 1379.82 Q144.075 1371.07 147.13 1366.49 Q150.209 1361.89 156.019 1361.89 Z" fill="#000000" fill-rule="nonzero" fill-opacity="1" /><path clip-path="url(#clip780)" d="M147.061 1135.48 L165.417 1135.48 L165.417 1139.41 L151.343 1139.41 L151.343 1147.88 Q152.362 1147.54 153.38 1147.37 Q154.399 1147.19 155.417 1147.19 Q161.204 1147.19 164.584 1150.36 Q167.964 1153.53 167.964 1158.95 Q167.964 1164.53 164.491 1167.63 Q161.019 1170.71 154.7 1170.71 Q152.524 1170.71 150.255 1170.34 Q148.01 1169.97 145.603 1169.23 L145.603 1164.53 Q147.686 1165.66 149.908 1166.22 Q152.13 1166.77 154.607 1166.77 Q158.612 1166.77 160.95 1164.67 Q163.288 1162.56 163.288 1158.95 Q163.288 1155.34 160.95 1153.23 Q158.612 1151.12 154.607 1151.12 Q152.732 1151.12 150.857 1151.54 Q149.005 1151.96 147.061 1152.84 L147.061 1135.48 Z" fill="#000000" fill-rule="nonzero" fill-opacity="1" /><path clip-path="url(#clip780)" d="M116.668 939.068 L124.306 939.068 L124.306 912.702 L115.996 914.369 L115.996 910.11 L124.26 908.443 L128.936 908.443 L128.936 939.068 L136.575 939.068 L136.575 943.003 L116.668 943.003 L116.668 939.068 Z" fill="#000000" fill-rule="nonzero" fill-opacity="1" /><path clip-path="url(#clip780)" d="M156.019 911.522 Q152.408 911.522 150.579 915.087 Q148.774 918.628 148.774 925.758 Q148.774 932.864 150.579 936.429 Q152.408 939.971 156.019 939.971 Q159.653 939.971 161.459 936.429 Q163.288 932.864 163.288 925.758 Q163.288 918.628 161.459 915.087 Q159.653 911.522 156.019 911.522 M156.019 907.818 Q161.829 907.818 164.885 912.425 Q167.964 917.008 167.964 925.758 Q167.964 934.485 164.885 939.091 Q161.829 943.674 156.019 943.674 Q150.209 943.674 147.13 939.091 Q144.075 934.485 144.075 925.758 Q144.075 917.008 147.13 912.425 Q150.209 907.818 156.019 907.818 Z" fill="#000000" fill-rule="nonzero" fill-opacity="1" /><path clip-path="url(#clip780)" d="M117.663 712.034 L125.302 712.034 L125.302 685.669 L116.992 687.336 L116.992 683.076 L125.255 681.41 L129.931 681.41 L129.931 712.034 L137.57 712.034 L137.57 715.97 L117.663 715.97 L117.663 712.034 Z" fill="#000000" fill-rule="nonzero" fill-opacity="1" /><path clip-path="url(#clip780)" d="M147.061 681.41 L165.417 681.41 L165.417 685.345 L151.343 685.345 L151.343 693.817 Q152.362 693.47 153.38 693.308 Q154.399 693.123 155.417 693.123 Q161.204 693.123 164.584 696.294 Q167.964 699.465 167.964 704.882 Q167.964 710.46 164.491 713.562 Q161.019 716.641 154.7 716.641 Q152.524 716.641 150.255 716.271 Q148.01 715.9 145.603 715.159 L145.603 710.46 Q147.686 711.595 149.908 712.15 Q152.13 712.706 154.607 712.706 Q158.612 712.706 160.95 710.599 Q163.288 708.493 163.288 704.882 Q163.288 701.271 160.95 699.164 Q158.612 697.058 154.607 697.058 Q152.732 697.058 150.857 697.474 Q149.005 697.891 147.061 698.771 L147.061 681.41 Z" fill="#000000" fill-rule="nonzero" fill-opacity="1" /><path clip-path="url(#clip780)" d="M119.885 485.001 L136.204 485.001 L136.204 488.936 L114.26 488.936 L114.26 485.001 Q116.922 482.246 121.505 477.617 Q126.112 472.964 127.292 471.621 Q129.538 469.098 130.417 467.362 Q131.32 465.603 131.32 463.913 Q131.32 461.159 129.376 459.422 Q127.455 457.686 124.353 457.686 Q122.154 457.686 119.7 458.45 Q117.269 459.214 114.492 460.765 L114.492 456.043 Q117.316 454.909 119.769 454.33 Q122.223 453.751 124.26 453.751 Q129.63 453.751 132.825 456.436 Q136.019 459.122 136.019 463.612 Q136.019 465.742 135.209 467.663 Q134.422 469.561 132.316 472.154 Q131.737 472.825 128.635 476.043 Q125.533 479.237 119.885 485.001 Z" fill="#000000" fill-rule="nonzero" fill-opacity="1" /><path clip-path="url(#clip780)" d="M156.019 457.455 Q152.408 457.455 150.579 461.02 Q148.774 464.561 148.774 471.691 Q148.774 478.797 150.579 482.362 Q152.408 485.904 156.019 485.904 Q159.653 485.904 161.459 482.362 Q163.288 478.797 163.288 471.691 Q163.288 464.561 161.459 461.02 Q159.653 457.455 156.019 457.455 M156.019 453.751 Q161.829 453.751 164.885 458.358 Q167.964 462.941 167.964 471.691 Q167.964 480.418 164.885 485.024 Q161.829 489.607 156.019 489.607 Q150.209 489.607 147.13 485.024 Q144.075 480.418 144.075 471.691 Q144.075 462.941 147.13 458.358 Q150.209 453.751 156.019 453.751 Z" fill="#000000" fill-rule="nonzero" fill-opacity="1" /><path clip-path="url(#clip780)" d="M120.88 257.967 L137.2 257.967 L137.2 261.903 L115.256 261.903 L115.256 257.967 Q117.918 255.213 122.501 250.583 Q127.107 245.931 128.288 244.588 Q130.533 242.065 131.413 240.329 Q132.316 238.569 132.316 236.88 Q132.316 234.125 130.371 232.389 Q128.45 230.653 125.348 230.653 Q123.149 230.653 120.695 231.417 Q118.265 232.181 115.487 233.732 L115.487 229.009 Q118.311 227.875 120.765 227.296 Q123.218 226.718 125.255 226.718 Q130.626 226.718 133.82 229.403 Q137.015 232.088 137.015 236.579 Q137.015 238.708 136.204 240.63 Q135.417 242.528 133.311 245.12 Q132.732 245.792 129.63 249.009 Q126.529 252.204 120.88 257.967 Z" fill="#000000" fill-rule="nonzero" fill-opacity="1" /><path clip-path="url(#clip780)" d="M147.061 227.343 L165.417 227.343 L165.417 231.278 L151.343 231.278 L151.343 239.75 Q152.362 239.403 153.38 239.241 Q154.399 239.056 155.417 239.056 Q161.204 239.056 164.584 242.227 Q167.964 245.398 167.964 250.815 Q167.964 256.393 164.491 259.495 Q161.019 262.574 154.7 262.574 Q152.524 262.574 150.255 262.204 Q148.01 261.833 145.603 261.092 L145.603 256.393 Q147.686 257.528 149.908 258.083 Q152.13 258.639 154.607 258.639 Q158.612 258.639 160.95 256.532 Q163.288 254.426 163.288 250.815 Q163.288 247.204 160.95 245.097 Q158.612 242.991 154.607 242.991 Q152.732 242.991 150.857 243.407 Q149.005 243.824 147.061 244.704 L147.061 227.343 Z" fill="#000000" fill-rule="nonzero" fill-opacity="1" /><path clip-path="url(#clip780)" d="M39.4334 772.564 Q44.844 772.564 50.9309 774.303 Q56.9856 776.01 61.8809 778.715 Q66.744 781.42 69.9646 784.963 Q73.153 788.505 73.153 791.887 Q73.153 794.045 71.9613 795.655 Q70.7375 797.233 68.7085 798.103 Q66.6474 798.972 64.393 799.391 Q62.1063 799.81 59.6265 799.81 Q55.9228 799.81 51.8971 799.005 Q47.8391 798.199 44.1677 796.847 Q40.464 795.494 37.1146 793.594 Q33.733 791.694 31.2853 789.6 Q28.8055 787.475 27.3562 785.092 Q25.907 782.708 25.907 780.486 Q25.907 778.876 26.6155 777.588 Q27.2918 776.267 28.4834 775.43 Q29.6428 774.593 31.0277 774.013 Q32.4125 773.401 34.0228 773.111 Q35.6009 772.821 36.9214 772.692 Q38.2096 772.564 39.4334 772.564 M35.3433 776.911 Q33.7008 776.911 32.477 777.04 Q31.2209 777.169 29.9649 777.523 Q28.7089 777.878 28.0325 778.65 Q27.3562 779.391 27.3562 780.551 Q27.3562 783.932 34.2805 787.733 Q36.4383 788.956 39.369 790.051 Q42.2997 791.146 43.6846 791.533 Q45.0694 791.919 48.4833 792.821 L48.4833 779.037 Q39.6911 776.911 35.3433 776.911 M50.5766 779.617 L50.5766 793.336 Q58.6281 795.462 63.6522 795.462 Q68.0322 795.462 69.868 794.56 Q71.6715 793.626 71.6715 791.887 Q71.6715 789.89 69.6747 788.022 Q67.6458 786.154 63.9743 784.254 Q59.2078 781.742 50.5766 779.617 Z" fill="#000000" fill-rule="nonzero" fill-opacity="1" /><path clip-path="url(#clip780)" d="M22.9507 728.256 Q30.2712 732.521 37.4327 734.59 Q44.5941 736.658 51.9465 736.658 Q59.2989 736.658 66.5239 734.59 Q73.7172 732.489 81.0059 728.256 L81.0059 733.348 Q73.5262 738.123 66.3011 740.51 Q59.0761 742.865 51.9465 742.865 Q44.8487 742.865 37.6555 740.51 Q30.4622 738.154 22.9507 733.348 L22.9507 728.256 Z" fill="#000000" fill-rule="nonzero" fill-opacity="1" /><path clip-path="url(#clip780)" d="M28.1387 706.74 Q28.1387 709.286 29.9211 711.036 Q31.6717 712.787 34.218 712.787 Q36.7324 712.787 38.483 711.036 Q40.2017 709.286 40.2017 706.74 Q40.2017 704.193 38.483 702.443 Q36.7324 700.692 34.218 700.692 Q31.7035 700.692 29.9211 702.475 Q28.1387 704.225 28.1387 706.74 M24.0328 706.74 Q24.0328 704.703 24.8286 702.825 Q25.5924 700.947 27.0566 699.578 Q28.4888 698.114 30.3031 697.382 Q32.1173 696.65 34.218 696.65 Q38.4193 696.65 41.3476 699.61 Q44.244 702.538 44.244 706.803 Q44.244 711.1 41.3794 713.965 Q38.5148 716.829 34.218 716.829 Q29.953 716.829 26.9929 713.901 Q24.0328 710.973 24.0328 706.74 Z" fill="#000000" fill-rule="nonzero" fill-opacity="1" /><path clip-path="url(#clip780)" d="M22.9507 685.224 L22.9507 680.131 Q30.4622 675.357 37.6555 673.001 Q44.8487 670.614 51.9465 670.614 Q59.0761 670.614 66.3011 673.001 Q73.5262 675.357 81.0059 680.131 L81.0059 685.224 Q73.7172 680.99 66.5239 678.921 Q59.2989 676.821 51.9465 676.821 Q44.5941 676.821 37.4327 678.921 Q30.2712 680.99 22.9507 685.224 Z" fill="#000000" fill-rule="nonzero" fill-opacity="1" /><polyline clip-path="url(#clip782)" style="stroke:#009af9; stroke-linecap:round; stroke-linejoin:round; stroke-width:4; stroke-opacity:1; fill:none" points="229.629,1384.24 254.791,1245.75 279.954,991.889 305.116,698.001 330.278,483.978 355.44,278.417 380.603,152.168 405.765,86.1857 430.927,103.144 456.089,119.596 481.252,173.188 506.414,159.406 531.576,222.621 556.739,259.26 581.901,247.43 607.063,256.358 632.225,247.661 657.388,252.395 682.55,227.327 707.712,228.945 732.874,218.175 758.037,227.174 783.199,245.8 808.361,191.525 833.524,209.927 858.686,203.56 883.848,241.936 909.01,236.713 934.173,256.293 959.335,227.066 984.497,253.023 1009.66,246.109 1034.82,236.48 1059.98,187.127 1085.15,227.913 "/>
<polyline clip-path="url(#clip782)" style="stroke:#e26f46; stroke-linecap:round; stroke-linejoin:round; stroke-width:3; stroke-opacity:1; fill:none" stroke-dasharray="12, 6, 2, 6" points="229.629,1384.11 254.791,1250.67 279.954,989.077 305.116,694.367 330.278,473.297 355.44,279.516 380.603,154.207 405.765,89.9449 430.927,101.588 456.089,125.058 481.252,175.116 506.414,174.232 531.576,220.799 556.739,259.391 581.901,255.543 607.063,258.122 632.225,250.432 657.388,251.711 682.55,232.001 707.712,228.504 732.874,219.994 758.037,225.694 783.199,242.655 808.361,202.979 833.524,207.14 858.686,204.642 883.848,235.25 909.01,238.676 934.173,253.694 959.335,233.042 984.497,247.849 1009.66,246.602 1034.82,238.109 1059.98,196.268 1085.15,219.34 "/>
<path clip-path="url(#clip780)" d="M961.069 1377.32 L1080.58 1377.32 L1080.58 1221.8 L961.069 1221.8  Z" fill="#ffffff" fill-rule="evenodd" fill-opacity="1"/>
<polyline clip-path="url(#clip780)" style="stroke:#000000; stroke-linecap:round; stroke-linejoin:round; stroke-width:4; stroke-opacity:1; fill:none" points="961.069,1377.32 1080.58,1377.32 1080.58,1221.8 961.069,1221.8 961.069,1377.32 "/>
<polyline clip-path="url(#clip780)" style="stroke:#009af9; stroke-linecap:round; stroke-linejoin:round; stroke-width:4; stroke-opacity:1; fill:none" points="971.145,1273.64 1031.6,1273.64 "/>
<path clip-path="url(#clip780)" d="M1068.45 1260.37 Q1066.97 1260.37 1066.22 1260.51 Q1065.48 1260.63 1065.29 1260.8 Q1065.1 1260.96 1064.89 1261.38 L1054.58 1283.3 Q1053.48 1285.65 1051.42 1287.33 Q1049.38 1289.02 1046.81 1289.02 Q1044.65 1289.02 1043.15 1287.71 Q1041.68 1286.42 1041.68 1284.59 Q1041.68 1283.28 1042.5 1282.53 Q1043.32 1281.81 1044.42 1281.81 Q1045.64 1281.81 1046.41 1282.58 Q1047.21 1283.35 1047.21 1284.55 Q1047.21 1285.32 1046.88 1285.9 Q1046.55 1286.51 1046.25 1286.72 Q1045.96 1286.96 1045.66 1287.1 Q1046.15 1287.29 1046.81 1287.29 Q1047.79 1287.29 1048.63 1286.89 Q1049.5 1286.51 1050.06 1286 Q1050.65 1285.51 1051.23 1284.62 Q1051.82 1283.75 1052.1 1283.19 Q1052.38 1282.65 1052.8 1281.71 L1053.9 1279.42 L1044.93 1260.37 L1041.87 1260.37 L1041.87 1258.13 L1047.35 1258.27 L1053.3 1258.13 L1053.3 1260.37 L1050.7 1260.37 L1056.79 1273.33 L1062.31 1261.52 L1062.55 1260.96 Q1062.55 1260.7 1061.99 1260.56 Q1061.42 1260.4 1060.86 1260.4 L1060.3 1260.37 L1060.3 1258.13 L1064.66 1258.27 Q1066.72 1258.27 1068.45 1258.13 L1068.45 1260.37 Z" fill="#000000" fill-rule="nonzero" fill-opacity="1" /><polyline clip-path="url(#clip780)" style="stroke:#e26f46; stroke-linecap:round; stroke-linejoin:round; stroke-width:3; stroke-opacity:1; fill:none" stroke-dasharray="12, 6, 2, 6" points="971.145,1325.48 1031.6,1325.48 "/>
<path clip-path="url(#clip780)" d="M1064.26 1309.2 L1063.85 1309.87 Q1061.31 1308.77 1058.15 1307.01 Q1054.98 1308.77 1052.44 1309.87 L1052.05 1309.2 Q1054.82 1306.79 1058.15 1304.93 Q1061.51 1306.8 1064.26 1309.2 Z" fill="#000000" fill-rule="nonzero" fill-opacity="1" /><path clip-path="url(#clip780)" d="M1068.45 1317.22 Q1066.97 1317.22 1066.22 1317.36 Q1065.48 1317.48 1065.29 1317.64 Q1065.1 1317.8 1064.89 1318.23 L1054.58 1340.15 Q1053.48 1342.49 1051.42 1344.18 Q1049.38 1345.86 1046.81 1345.86 Q1044.65 1345.86 1043.15 1344.55 Q1041.68 1343.26 1041.68 1341.44 Q1041.68 1340.13 1042.5 1339.38 Q1043.32 1338.65 1044.42 1338.65 Q1045.64 1338.65 1046.41 1339.42 Q1047.21 1340.2 1047.21 1341.39 Q1047.21 1342.16 1046.88 1342.75 Q1046.55 1343.36 1046.25 1343.57 Q1045.96 1343.8 1045.66 1343.94 Q1046.15 1344.13 1046.81 1344.13 Q1047.79 1344.13 1048.63 1343.73 Q1049.5 1343.36 1050.06 1342.84 Q1050.65 1342.35 1051.23 1341.46 Q1051.82 1340.59 1052.1 1340.03 Q1052.38 1339.49 1052.8 1338.56 L1053.9 1336.26 L1044.93 1317.22 L1041.87 1317.22 L1041.87 1314.97 L1047.35 1315.11 L1053.3 1314.97 L1053.3 1317.22 L1050.7 1317.22 L1056.79 1330.17 L1062.31 1318.37 L1062.55 1317.8 Q1062.55 1317.55 1061.99 1317.41 Q1061.42 1317.24 1060.86 1317.24 L1060.3 1317.22 L1060.3 1314.97 L1064.66 1315.11 Q1066.72 1315.11 1068.45 1314.97 L1068.45 1317.22 Z" fill="#000000" fill-rule="nonzero" fill-opacity="1" /><path clip-path="url(#clip780)" d="M1445.91 398.692 L2352.76 398.692 L2352.76 47.2441 L1445.91 47.2441  Z" fill="#ffffff" fill-rule="evenodd" fill-opacity="1"/>
<defs>
  <clipPath id="clip783">
    <rect x="1445" y="47" width="908" height="352"/>
  </clipPath>
</defs>
<polyline clip-path="url(#clip783)" style="stroke:#000000; stroke-linecap:round; stroke-linejoin:round; stroke-width:2; stroke-opacity:0.1; fill:none" points="1471.57,398.692 1471.57,47.2441 "/>
<polyline clip-path="url(#clip783)" style="stroke:#000000; stroke-linecap:round; stroke-linejoin:round; stroke-width:2; stroke-opacity:0.1; fill:none" points="1723.2,398.692 1723.2,47.2441 "/>
<polyline clip-path="url(#clip783)" style="stroke:#000000; stroke-linecap:round; stroke-linejoin:round; stroke-width:2; stroke-opacity:0.1; fill:none" points="1974.82,398.692 1974.82,47.2441 "/>
<polyline clip-path="url(#clip783)" style="stroke:#000000; stroke-linecap:round; stroke-linejoin:round; stroke-width:2; stroke-opacity:0.1; fill:none" points="2226.44,398.692 2226.44,47.2441 "/>
<polyline clip-path="url(#clip783)" style="stroke:#000000; stroke-linecap:round; stroke-linejoin:round; stroke-width:2; stroke-opacity:0.1; fill:none" points="1445.91,387.658 2352.76,387.658 "/>
<polyline clip-path="url(#clip783)" style="stroke:#000000; stroke-linecap:round; stroke-linejoin:round; stroke-width:2; stroke-opacity:0.1; fill:none" points="1445.91,322.136 2352.76,322.136 "/>
<polyline clip-path="url(#clip783)" style="stroke:#000000; stroke-linecap:round; stroke-linejoin:round; stroke-width:2; stroke-opacity:0.1; fill:none" points="1445.91,256.614 2352.76,256.614 "/>
<polyline clip-path="url(#clip783)" style="stroke:#000000; stroke-linecap:round; stroke-linejoin:round; stroke-width:2; stroke-opacity:0.1; fill:none" points="1445.91,191.093 2352.76,191.093 "/>
<polyline clip-path="url(#clip783)" style="stroke:#000000; stroke-linecap:round; stroke-linejoin:round; stroke-width:2; stroke-opacity:0.1; fill:none" points="1445.91,125.571 2352.76,125.571 "/>
<polyline clip-path="url(#clip783)" style="stroke:#000000; stroke-linecap:round; stroke-linejoin:round; stroke-width:2; stroke-opacity:0.1; fill:none" points="1445.91,60.049 2352.76,60.049 "/>
<polyline clip-path="url(#clip780)" style="stroke:#000000; stroke-linecap:round; stroke-linejoin:round; stroke-width:4; stroke-opacity:1; fill:none" points="1445.91,398.692 2352.76,398.692 "/>
<polyline clip-path="url(#clip780)" style="stroke:#000000; stroke-linecap:round; stroke-linejoin:round; stroke-width:4; stroke-opacity:1; fill:none" points="1471.57,398.692 1471.57,379.794 "/>
<polyline clip-path="url(#clip780)" style="stroke:#000000; stroke-linecap:round; stroke-linejoin:round; stroke-width:4; stroke-opacity:1; fill:none" points="1723.2,398.692 1723.2,379.794 "/>
<polyline clip-path="url(#clip780)" style="stroke:#000000; stroke-linecap:round; stroke-linejoin:round; stroke-width:4; stroke-opacity:1; fill:none" points="1974.82,398.692 1974.82,379.794 "/>
<polyline clip-path="url(#clip780)" style="stroke:#000000; stroke-linecap:round; stroke-linejoin:round; stroke-width:4; stroke-opacity:1; fill:none" points="2226.44,398.692 2226.44,379.794 "/>
<path clip-path="url(#clip780)" d="M1471.57 429.611 Q1467.96 429.611 1466.13 433.175 Q1464.33 436.717 1464.33 443.847 Q1464.33 450.953 1466.13 454.518 Q1467.96 458.059 1471.57 458.059 Q1475.21 458.059 1477.01 454.518 Q1478.84 450.953 1478.84 443.847 Q1478.84 436.717 1477.01 433.175 Q1475.21 429.611 1471.57 429.611 M1471.57 425.907 Q1477.38 425.907 1480.44 430.513 Q1483.52 435.097 1483.52 443.847 Q1483.52 452.573 1480.44 457.18 Q1477.38 461.763 1471.57 461.763 Q1465.76 461.763 1462.68 457.18 Q1459.63 452.573 1459.63 443.847 Q1459.63 435.097 1462.68 430.513 Q1465.76 425.907 1471.57 425.907 Z" fill="#000000" fill-rule="nonzero" fill-opacity="1" /><path clip-path="url(#clip780)" d="M1713.58 457.157 L1721.22 457.157 L1721.22 430.791 L1712.91 432.458 L1712.91 428.199 L1721.17 426.532 L1725.85 426.532 L1725.85 457.157 L1733.49 457.157 L1733.49 461.092 L1713.58 461.092 L1713.58 457.157 Z" fill="#000000" fill-rule="nonzero" fill-opacity="1" /><path clip-path="url(#clip780)" d="M1969.47 457.157 L1985.79 457.157 L1985.79 461.092 L1963.85 461.092 L1963.85 457.157 Q1966.51 454.402 1971.09 449.772 Q1975.7 445.12 1976.88 443.777 Q1979.12 441.254 1980 439.518 Q1980.91 437.759 1980.91 436.069 Q1980.91 433.314 1978.96 431.578 Q1977.04 429.842 1973.94 429.842 Q1971.74 429.842 1969.29 430.606 Q1966.86 431.37 1964.08 432.921 L1964.08 428.199 Q1966.9 427.064 1969.36 426.486 Q1971.81 425.907 1973.85 425.907 Q1979.22 425.907 1982.41 428.592 Q1985.61 431.277 1985.61 435.768 Q1985.61 437.898 1984.8 439.819 Q1984.01 441.717 1981.9 444.31 Q1981.32 444.981 1978.22 448.198 Q1975.12 451.393 1969.47 457.157 Z" fill="#000000" fill-rule="nonzero" fill-opacity="1" /><path clip-path="url(#clip780)" d="M2230.69 442.458 Q2234.05 443.175 2235.92 445.444 Q2237.82 447.712 2237.82 451.046 Q2237.82 456.161 2234.3 458.962 Q2230.78 461.763 2224.3 461.763 Q2222.12 461.763 2219.81 461.323 Q2217.52 460.907 2215.06 460.05 L2215.06 455.536 Q2217.01 456.671 2219.32 457.249 Q2221.64 457.828 2224.16 457.828 Q2228.56 457.828 2230.85 456.092 Q2233.17 454.356 2233.17 451.046 Q2233.17 447.99 2231.01 446.277 Q2228.88 444.541 2225.06 444.541 L2221.04 444.541 L2221.04 440.698 L2225.25 440.698 Q2228.7 440.698 2230.53 439.333 Q2232.36 437.944 2232.36 435.351 Q2232.36 432.689 2230.46 431.277 Q2228.58 429.842 2225.06 429.842 Q2223.14 429.842 2220.94 430.259 Q2218.74 430.675 2216.11 431.555 L2216.11 427.388 Q2218.77 426.648 2221.08 426.277 Q2223.42 425.907 2225.48 425.907 Q2230.8 425.907 2233.91 428.337 Q2237.01 430.745 2237.01 434.865 Q2237.01 437.736 2235.36 439.726 Q2233.72 441.694 2230.69 442.458 Z" fill="#000000" fill-rule="nonzero" fill-opacity="1" /><polyline clip-path="url(#clip780)" style="stroke:#000000; stroke-linecap:round; stroke-linejoin:round; stroke-width:4; stroke-opacity:1; fill:none" points="1445.91,398.692 1445.91,47.2441 "/>
<polyline clip-path="url(#clip780)" style="stroke:#000000; stroke-linecap:round; stroke-linejoin:round; stroke-width:4; stroke-opacity:1; fill:none" points="1445.91,387.658 1464.81,387.658 "/>
<polyline clip-path="url(#clip780)" style="stroke:#000000; stroke-linecap:round; stroke-linejoin:round; stroke-width:4; stroke-opacity:1; fill:none" points="1445.91,322.136 1464.81,322.136 "/>
<polyline clip-path="url(#clip780)" style="stroke:#000000; stroke-linecap:round; stroke-linejoin:round; stroke-width:4; stroke-opacity:1; fill:none" points="1445.91,256.614 1464.81,256.614 "/>
<polyline clip-path="url(#clip780)" style="stroke:#000000; stroke-linecap:round; stroke-linejoin:round; stroke-width:4; stroke-opacity:1; fill:none" points="1445.91,191.093 1464.81,191.093 "/>
<polyline clip-path="url(#clip780)" style="stroke:#000000; stroke-linecap:round; stroke-linejoin:round; stroke-width:4; stroke-opacity:1; fill:none" points="1445.91,125.571 1464.81,125.571 "/>
<polyline clip-path="url(#clip780)" style="stroke:#000000; stroke-linecap:round; stroke-linejoin:round; stroke-width:4; stroke-opacity:1; fill:none" points="1445.91,60.049 1464.81,60.049 "/>
<path clip-path="url(#clip780)" d="M1352.73 373.457 Q1349.12 373.457 1347.29 377.022 Q1345.49 380.563 1345.49 387.693 Q1345.49 394.799 1347.29 398.364 Q1349.12 401.906 1352.73 401.906 Q1356.37 401.906 1358.17 398.364 Q1360 394.799 1360 387.693 Q1360 380.563 1358.17 377.022 Q1356.37 373.457 1352.73 373.457 M1352.73 369.753 Q1358.54 369.753 1361.6 374.36 Q1364.68 378.943 1364.68 387.693 Q1364.68 396.42 1361.6 401.026 Q1358.54 405.609 1352.73 405.609 Q1346.92 405.609 1343.84 401.026 Q1340.79 396.42 1340.79 387.693 Q1340.79 378.943 1343.84 374.36 Q1346.92 369.753 1352.73 369.753 Z" fill="#000000" fill-rule="nonzero" fill-opacity="1" /><path clip-path="url(#clip780)" d="M1372.89 399.058 L1377.78 399.058 L1377.78 404.938 L1372.89 404.938 L1372.89 399.058 Z" fill="#000000" fill-rule="nonzero" fill-opacity="1" /><path clip-path="url(#clip780)" d="M1397.96 373.457 Q1394.35 373.457 1392.52 377.022 Q1390.72 380.563 1390.72 387.693 Q1390.72 394.799 1392.52 398.364 Q1394.35 401.906 1397.96 401.906 Q1401.6 401.906 1403.4 398.364 Q1405.23 394.799 1405.23 387.693 Q1405.23 380.563 1403.4 377.022 Q1401.6 373.457 1397.96 373.457 M1397.96 369.753 Q1403.77 369.753 1406.83 374.36 Q1409.91 378.943 1409.91 387.693 Q1409.91 396.42 1406.83 401.026 Q1403.77 405.609 1397.96 405.609 Q1392.15 405.609 1389.07 401.026 Q1386.02 396.42 1386.02 387.693 Q1386.02 378.943 1389.07 374.36 Q1392.15 369.753 1397.96 369.753 Z" fill="#000000" fill-rule="nonzero" fill-opacity="1" /><path clip-path="url(#clip780)" d="M1353.96 307.935 Q1350.35 307.935 1348.52 311.5 Q1346.71 315.041 1346.71 322.171 Q1346.71 329.277 1348.52 332.842 Q1350.35 336.384 1353.96 336.384 Q1357.59 336.384 1359.4 332.842 Q1361.23 329.277 1361.23 322.171 Q1361.23 315.041 1359.4 311.5 Q1357.59 307.935 1353.96 307.935 M1353.96 304.231 Q1359.77 304.231 1362.82 308.838 Q1365.9 313.421 1365.9 322.171 Q1365.9 330.898 1362.82 335.504 Q1359.77 340.088 1353.96 340.088 Q1348.15 340.088 1345.07 335.504 Q1342.01 330.898 1342.01 322.171 Q1342.01 313.421 1345.07 308.838 Q1348.15 304.231 1353.96 304.231 Z" fill="#000000" fill-rule="nonzero" fill-opacity="1" /><path clip-path="url(#clip780)" d="M1374.12 333.537 L1379.01 333.537 L1379.01 339.416 L1374.12 339.416 L1374.12 333.537 Z" fill="#000000" fill-rule="nonzero" fill-opacity="1" /><path clip-path="url(#clip780)" d="M1390 335.481 L1397.64 335.481 L1397.64 309.115 L1389.33 310.782 L1389.33 306.523 L1397.59 304.856 L1402.27 304.856 L1402.27 335.481 L1409.91 335.481 L1409.91 339.416 L1390 339.416 L1390 335.481 Z" fill="#000000" fill-rule="nonzero" fill-opacity="1" /><path clip-path="url(#clip780)" d="M1354.33 242.413 Q1350.72 242.413 1348.89 245.978 Q1347.08 249.52 1347.08 256.649 Q1347.08 263.756 1348.89 267.32 Q1350.72 270.862 1354.33 270.862 Q1357.96 270.862 1359.77 267.32 Q1361.6 263.756 1361.6 256.649 Q1361.6 249.52 1359.77 245.978 Q1357.96 242.413 1354.33 242.413 M1354.33 238.709 Q1360.14 238.709 1363.2 243.316 Q1366.27 247.899 1366.27 256.649 Q1366.27 265.376 1363.2 269.982 Q1360.14 274.566 1354.33 274.566 Q1348.52 274.566 1345.44 269.982 Q1342.39 265.376 1342.39 256.649 Q1342.39 247.899 1345.44 243.316 Q1348.52 238.709 1354.33 238.709 Z" fill="#000000" fill-rule="nonzero" fill-opacity="1" /><path clip-path="url(#clip780)" d="M1374.49 268.015 L1379.38 268.015 L1379.38 273.894 L1374.49 273.894 L1374.49 268.015 Z" fill="#000000" fill-rule="nonzero" fill-opacity="1" /><path clip-path="url(#clip780)" d="M1393.59 269.959 L1409.91 269.959 L1409.91 273.894 L1387.96 273.894 L1387.96 269.959 Q1390.63 267.205 1395.21 262.575 Q1399.82 257.922 1401 256.58 Q1403.24 254.057 1404.12 252.32 Q1405.02 250.561 1405.02 248.871 Q1405.02 246.117 1403.08 244.381 Q1401.16 242.645 1398.06 242.645 Q1395.86 242.645 1393.4 243.408 Q1390.97 244.172 1388.19 245.723 L1388.19 241.001 Q1391.02 239.867 1393.47 239.288 Q1395.93 238.709 1397.96 238.709 Q1403.33 238.709 1406.53 241.395 Q1409.72 244.08 1409.72 248.57 Q1409.72 250.7 1408.91 252.621 Q1408.13 254.52 1406.02 257.112 Q1405.44 257.783 1402.34 261.001 Q1399.24 264.195 1393.59 269.959 Z" fill="#000000" fill-rule="nonzero" fill-opacity="1" /><path clip-path="url(#clip780)" d="M1353.38 176.891 Q1349.77 176.891 1347.94 180.456 Q1346.13 183.998 1346.13 191.127 Q1346.13 198.234 1347.94 201.799 Q1349.77 205.34 1353.38 205.34 Q1357.01 205.34 1358.82 201.799 Q1360.65 198.234 1360.65 191.127 Q1360.65 183.998 1358.82 180.456 Q1357.01 176.891 1353.38 176.891 M1353.38 173.188 Q1359.19 173.188 1362.25 177.794 Q1365.32 182.377 1365.32 191.127 Q1365.32 199.854 1362.25 204.461 Q1359.19 209.044 1353.38 209.044 Q1347.57 209.044 1344.49 204.461 Q1341.44 199.854 1341.44 191.127 Q1341.44 182.377 1344.49 177.794 Q1347.57 173.188 1353.38 173.188 Z" fill="#000000" fill-rule="nonzero" fill-opacity="1" /><path clip-path="url(#clip780)" d="M1373.54 202.493 L1378.43 202.493 L1378.43 208.373 L1373.54 208.373 L1373.54 202.493 Z" fill="#000000" fill-rule="nonzero" fill-opacity="1" /><path clip-path="url(#clip780)" d="M1402.78 189.738 Q1406.13 190.456 1408.01 192.725 Q1409.91 194.993 1409.91 198.326 Q1409.91 203.442 1406.39 206.243 Q1402.87 209.044 1396.39 209.044 Q1394.21 209.044 1391.9 208.604 Q1389.61 208.187 1387.15 207.331 L1387.15 202.817 Q1389.1 203.951 1391.41 204.53 Q1393.73 205.109 1396.25 205.109 Q1400.65 205.109 1402.94 203.373 Q1405.26 201.637 1405.26 198.326 Q1405.26 195.271 1403.1 193.558 Q1400.97 191.822 1397.15 191.822 L1393.13 191.822 L1393.13 187.979 L1397.34 187.979 Q1400.79 187.979 1402.62 186.613 Q1404.44 185.225 1404.44 182.632 Q1404.44 179.97 1402.55 178.558 Q1400.67 177.123 1397.15 177.123 Q1395.23 177.123 1393.03 177.539 Q1390.83 177.956 1388.19 178.836 L1388.19 174.669 Q1390.86 173.928 1393.17 173.558 Q1395.51 173.188 1397.57 173.188 Q1402.89 173.188 1406 175.618 Q1409.1 178.026 1409.1 182.146 Q1409.1 185.016 1407.45 187.007 Q1405.81 188.975 1402.78 189.738 Z" fill="#000000" fill-rule="nonzero" fill-opacity="1" /><path clip-path="url(#clip780)" d="M1352.25 111.369 Q1348.63 111.369 1346.81 114.934 Q1345 118.476 1345 125.606 Q1345 132.712 1346.81 136.277 Q1348.63 139.818 1352.25 139.818 Q1355.88 139.818 1357.69 136.277 Q1359.51 132.712 1359.51 125.606 Q1359.51 118.476 1357.69 114.934 Q1355.88 111.369 1352.25 111.369 M1352.25 107.666 Q1358.06 107.666 1361.11 112.272 Q1364.19 116.856 1364.19 125.606 Q1364.19 134.332 1361.11 138.939 Q1358.06 143.522 1352.25 143.522 Q1346.44 143.522 1343.36 138.939 Q1340.3 134.332 1340.3 125.606 Q1340.3 116.856 1343.36 112.272 Q1346.44 107.666 1352.25 107.666 Z" fill="#000000" fill-rule="nonzero" fill-opacity="1" /><path clip-path="url(#clip780)" d="M1372.41 136.971 L1377.29 136.971 L1377.29 142.851 L1372.41 142.851 L1372.41 136.971 Z" fill="#000000" fill-rule="nonzero" fill-opacity="1" /><path clip-path="url(#clip780)" d="M1400.32 112.365 L1388.52 130.814 L1400.32 130.814 L1400.32 112.365 M1399.1 108.291 L1404.98 108.291 L1404.98 130.814 L1409.91 130.814 L1409.91 134.703 L1404.98 134.703 L1404.98 142.851 L1400.32 142.851 L1400.32 134.703 L1384.72 134.703 L1384.72 130.189 L1399.1 108.291 Z" fill="#000000" fill-rule="nonzero" fill-opacity="1" /><path clip-path="url(#clip780)" d="M1353.73 45.8476 Q1350.12 45.8476 1348.29 49.4124 Q1346.48 52.9541 1346.48 60.0837 Q1346.48 67.1901 1348.29 70.7549 Q1350.12 74.2966 1353.73 74.2966 Q1357.36 74.2966 1359.17 70.7549 Q1361 67.1901 1361 60.0837 Q1361 52.9541 1359.17 49.4124 Q1357.36 45.8476 1353.73 45.8476 M1353.73 42.144 Q1359.54 42.144 1362.59 46.7504 Q1365.67 51.3337 1365.67 60.0837 Q1365.67 68.8105 1362.59 73.4169 Q1359.54 78.0002 1353.73 78.0002 Q1347.92 78.0002 1344.84 73.4169 Q1341.78 68.8105 1341.78 60.0837 Q1341.78 51.3337 1344.84 46.7504 Q1347.92 42.144 1353.73 42.144 Z" fill="#000000" fill-rule="nonzero" fill-opacity="1" /><path clip-path="url(#clip780)" d="M1373.89 71.4494 L1378.77 71.4494 L1378.77 77.329 L1373.89 77.329 L1373.89 71.4494 Z" fill="#000000" fill-rule="nonzero" fill-opacity="1" /><path clip-path="url(#clip780)" d="M1389.01 42.769 L1407.36 42.769 L1407.36 46.7041 L1393.29 46.7041 L1393.29 55.1763 Q1394.31 54.8291 1395.32 54.667 Q1396.34 54.4819 1397.36 54.4819 Q1403.15 54.4819 1406.53 57.6531 Q1409.91 60.8244 1409.91 66.241 Q1409.91 71.8197 1406.44 74.9216 Q1402.96 78.0002 1396.64 78.0002 Q1394.47 78.0002 1392.2 77.6299 Q1389.95 77.2595 1387.55 76.5188 L1387.55 71.8197 Q1389.63 72.954 1391.85 73.5095 Q1394.07 74.0651 1396.55 74.0651 Q1400.56 74.0651 1402.89 71.9586 Q1405.23 69.8521 1405.23 66.241 Q1405.23 62.63 1402.89 60.5235 Q1400.56 58.417 1396.55 58.417 Q1394.68 58.417 1392.8 58.8337 Q1390.95 59.2503 1389.01 60.13 L1389.01 42.769 Z" fill="#000000" fill-rule="nonzero" fill-opacity="1" /><path clip-path="url(#clip780)" d="M1265.47 298.084 Q1270.89 298.084 1276.97 299.823 Q1283.03 301.53 1287.92 304.235 Q1292.79 306.941 1296.01 310.483 Q1299.19 314.026 1299.19 317.408 Q1299.19 319.565 1298 321.176 Q1296.78 322.754 1294.75 323.623 Q1292.69 324.493 1290.43 324.912 Q1288.15 325.33 1285.67 325.33 Q1281.96 325.33 1277.94 324.525 Q1273.88 323.72 1270.21 322.367 Q1266.51 321.015 1263.16 319.115 Q1259.77 317.214 1257.33 315.121 Q1254.85 312.995 1253.4 310.612 Q1251.95 308.229 1251.95 306.007 Q1251.95 304.396 1252.66 303.108 Q1253.33 301.788 1254.52 300.95 Q1255.68 300.113 1257.07 299.533 Q1258.45 298.921 1260.06 298.632 Q1261.64 298.342 1262.96 298.213 Q1264.25 298.084 1265.47 298.084 M1261.38 302.432 Q1259.74 302.432 1258.52 302.561 Q1257.26 302.69 1256.01 303.044 Q1254.75 303.398 1254.07 304.171 Q1253.4 304.912 1253.4 306.071 Q1253.4 309.453 1260.32 313.253 Q1262.48 314.477 1265.41 315.572 Q1268.34 316.667 1269.73 317.053 Q1271.11 317.44 1274.52 318.342 L1274.52 304.558 Q1265.73 302.432 1261.38 302.432 M1276.62 305.137 L1276.62 318.857 Q1284.67 320.983 1289.69 320.983 Q1294.07 320.983 1295.91 320.081 Q1297.71 319.147 1297.71 317.408 Q1297.71 315.411 1295.72 313.543 Q1293.69 311.675 1290.02 309.775 Q1285.25 307.263 1276.62 305.137 Z" fill="#000000" fill-rule="nonzero" fill-opacity="1" /><path clip-path="url(#clip780)" d="M1248.99 253.776 Q1256.31 258.041 1263.47 260.11 Q1270.64 262.179 1277.99 262.179 Q1285.34 262.179 1292.57 260.11 Q1299.76 258.009 1307.05 253.776 L1307.05 258.869 Q1299.57 263.643 1292.34 266.03 Q1285.12 268.386 1277.99 268.386 Q1270.89 268.386 1263.7 266.03 Q1256.5 263.675 1248.99 258.869 L1248.99 253.776 Z" fill="#000000" fill-rule="nonzero" fill-opacity="1" /><path clip-path="url(#clip780)" d="M1268.28 221.757 Q1267.71 222.743 1267.45 223.921 Q1267.17 225.067 1267.17 226.467 Q1267.17 231.433 1270.41 234.106 Q1273.63 236.748 1279.67 236.748 L1298.45 236.748 L1298.45 242.636 L1262.81 242.636 L1262.81 236.748 L1268.34 236.748 Q1265.1 234.902 1263.54 231.942 Q1261.95 228.982 1261.95 224.749 Q1261.95 224.144 1262.04 223.412 Q1262.11 222.68 1262.26 221.789 L1268.28 221.757 Z" fill="#000000" fill-rule="nonzero" fill-opacity="1" /><path clip-path="url(#clip780)" d="M1280.53 199.413 Q1280.53 206.511 1282.16 209.248 Q1283.78 211.985 1287.7 211.985 Q1290.81 211.985 1292.66 209.948 Q1294.48 207.879 1294.48 204.347 Q1294.48 199.477 1291.04 196.549 Q1287.57 193.588 1281.84 193.588 L1280.53 193.588 L1280.53 199.413 M1278.12 187.732 L1298.45 187.732 L1298.45 193.588 L1293.04 193.588 Q1296.29 195.594 1297.85 198.586 Q1299.38 201.577 1299.38 205.906 Q1299.38 211.381 1296.32 214.627 Q1293.23 217.842 1288.08 217.842 Q1282.06 217.842 1279.01 213.831 Q1275.95 209.789 1275.95 201.8 L1275.95 193.588 L1275.38 193.588 Q1271.34 193.588 1269.14 196.262 Q1266.91 198.904 1266.91 203.71 Q1266.91 206.766 1267.64 209.662 Q1268.38 212.558 1269.84 215.232 L1264.43 215.232 Q1263.19 212.017 1262.58 208.993 Q1261.95 205.97 1261.95 203.105 Q1261.95 195.371 1265.96 191.551 Q1269.97 187.732 1278.12 187.732 Z" fill="#000000" fill-rule="nonzero" fill-opacity="1" /><path clip-path="url(#clip780)" d="M1268.22 152.211 L1248.93 152.211 L1248.93 146.355 L1298.45 146.355 L1298.45 152.211 L1293.11 152.211 Q1296.29 154.057 1297.85 156.89 Q1299.38 159.691 1299.38 163.638 Q1299.38 170.099 1294.22 174.173 Q1289.06 178.215 1280.66 178.215 Q1272.26 178.215 1267.1 174.173 Q1261.95 170.099 1261.95 163.638 Q1261.95 159.691 1263.51 156.89 Q1265.03 154.057 1268.22 152.211 M1280.66 172.168 Q1287.12 172.168 1290.81 169.526 Q1294.48 166.853 1294.48 162.206 Q1294.48 157.559 1290.81 154.885 Q1287.12 152.211 1280.66 152.211 Q1274.2 152.211 1270.54 154.885 Q1266.85 157.559 1266.85 162.206 Q1266.85 166.853 1270.54 169.526 Q1274.2 172.168 1280.66 172.168 Z" fill="#000000" fill-rule="nonzero" fill-opacity="1" /><path clip-path="url(#clip780)" d="M1248.99 135.215 L1248.99 130.122 Q1256.5 125.348 1263.7 122.993 Q1270.89 120.606 1277.99 120.606 Q1285.12 120.606 1292.34 122.993 Q1299.57 125.348 1307.05 130.122 L1307.05 135.215 Q1299.76 130.982 1292.57 128.913 Q1285.34 126.812 1277.99 126.812 Q1270.64 126.812 1263.47 128.913 Q1256.31 130.982 1248.99 135.215 Z" fill="#000000" fill-rule="nonzero" fill-opacity="1" /><polyline clip-path="url(#clip783)" style="stroke:#009af9; stroke-linecap:round; stroke-linejoin:round; stroke-width:4; stroke-opacity:1; fill:none" points="1471.57,387.658 1496.74,359.205 1521.9,294.661 1547.06,220.337 1572.22,153.822 1597.38,104.036 1622.55,73.1069 1647.71,58.8889 1672.87,57.1907 1698.03,63.3708 1723.2,73.3014 1748.36,83.844 1773.52,92.9788 1798.68,99.707 1823.85,103.825 1849.01,105.653 1874.17,105.778 1899.33,104.847 1924.49,103.436 1949.66,101.977 1974.82,100.738 1999.98,99.8465 2025.14,99.3179 2050.31,99.1002 2075.47,99.1084 2100.63,99.2523 2125.79,99.4539 2150.95,99.6559 2176.12,99.8236 2201.28,99.9417 2226.44,100.009 2251.6,100.035 2276.77,100.031 2301.93,100.009 2327.09,99.9804 "/>
<polyline clip-path="url(#clip783)" style="stroke:#e26f46; stroke-linecap:round; stroke-linejoin:round; stroke-width:3; stroke-opacity:1; fill:none" stroke-dasharray="12, 6, 2, 6" points="1471.57,388.745 1496.74,355.14 1521.9,289.257 1547.06,215.034 1572.22,159.357 1597.38,110.553 1622.55,78.9939 1647.71,62.8095 1672.87,65.7418 1698.03,71.6526 1723.2,84.2599 1748.36,84.0372 1773.52,95.7651 1798.68,105.485 1823.85,104.515 1849.01,105.165 1874.17,103.228 1899.33,103.55 1924.49,98.5865 1949.66,97.7058 1974.82,95.5624 1999.98,96.9981 2025.14,101.27 2050.31,91.2771 2075.47,92.3252 2100.63,91.6959 2125.79,99.4047 2150.95,100.267 2176.12,104.05 2201.28,98.8487 2226.44,102.578 2251.6,102.264 2276.77,100.125 2301.93,89.5871 2327.09,95.3977 "/>
<path clip-path="url(#clip780)" d="M2203.01 386.977 L2322.53 386.977 L2322.53 231.457 L2203.01 231.457  Z" fill="#ffffff" fill-rule="evenodd" fill-opacity="1"/>
<polyline clip-path="url(#clip780)" style="stroke:#000000; stroke-linecap:round; stroke-linejoin:round; stroke-width:4; stroke-opacity:1; fill:none" points="2203.01,386.977 2322.53,386.977 2322.53,231.457 2203.01,231.457 2203.01,386.977 "/>
<polyline clip-path="url(#clip780)" style="stroke:#009af9; stroke-linecap:round; stroke-linejoin:round; stroke-width:4; stroke-opacity:1; fill:none" points="2213.09,283.297 2273.55,283.297 "/>
<path clip-path="url(#clip780)" d="M2310.63 293.836 L2305.36 293.695 L2299.6 293.836 L2299.6 291.587 L2301.47 291.587 L2296.2 285.357 L2291.54 290.58 L2291.21 291.049 Q2291.21 291.26 2291.75 291.423 Q2292.31 291.587 2292.97 291.587 L2292.97 293.836 L2288.03 293.695 L2283.62 293.836 L2283.62 291.587 Q2285.1 291.587 2285.78 291.564 Q2286.48 291.517 2287.28 291.306 Q2288.07 291.096 2288.47 290.674 L2294.75 283.624 L2287.28 274.794 L2283.86 274.794 L2283.86 272.545 L2289.15 272.686 L2294.94 272.545 L2294.94 274.794 L2293.01 274.794 L2297.72 280.298 L2301.75 275.801 Q2301.77 275.777 2302.15 275.215 Q2301.4 274.794 2300.32 274.794 L2300.32 272.545 L2305.26 272.686 L2309.67 272.545 L2309.67 274.794 Q2307.75 274.794 2306.74 274.934 Q2305.76 275.051 2305.45 275.215 Q2305.17 275.379 2304.77 275.801 L2299.17 282.031 L2307.23 291.587 L2310.63 291.587 L2310.63 293.836 Z" fill="#000000" fill-rule="nonzero" fill-opacity="1" /><polyline clip-path="url(#clip780)" style="stroke:#e26f46; stroke-linecap:round; stroke-linejoin:round; stroke-width:3; stroke-opacity:1; fill:none" stroke-dasharray="12, 6, 2, 6" points="2213.09,335.137 2273.55,335.137 "/>
<path clip-path="url(#clip780)" d="M2306.21 323.615 L2305.8 324.287 Q2303.26 323.189 2300.09 321.434 Q2296.93 323.189 2294.39 324.287 L2293.99 323.615 Q2296.76 321.205 2300.09 319.352 Q2303.45 321.221 2306.21 323.615 Z" fill="#000000" fill-rule="nonzero" fill-opacity="1" /><path clip-path="url(#clip780)" d="M2310.63 350.681 L2305.36 350.54 L2299.6 350.681 L2299.6 348.432 L2301.47 348.432 L2296.2 342.202 L2291.54 347.425 L2291.21 347.893 Q2291.21 348.104 2291.75 348.268 Q2292.31 348.432 2292.97 348.432 L2292.97 350.681 L2288.03 350.54 L2283.62 350.681 L2283.62 348.432 Q2285.1 348.432 2285.78 348.409 Q2286.48 348.362 2287.28 348.151 Q2288.07 347.94 2288.47 347.519 L2294.75 340.468 L2287.28 331.638 L2283.86 331.638 L2283.86 329.39 L2289.15 329.53 L2294.94 329.39 L2294.94 331.638 L2293.01 331.638 L2297.72 337.142 L2301.75 332.645 Q2301.77 332.622 2302.15 332.06 Q2301.4 331.638 2300.32 331.638 L2300.32 329.39 L2305.26 329.53 L2309.67 329.39 L2309.67 331.638 Q2307.75 331.638 2306.74 331.779 Q2305.76 331.896 2305.45 332.06 Q2305.17 332.224 2304.77 332.645 L2299.17 338.876 L2307.23 348.432 L2310.63 348.432 L2310.63 350.681 Z" fill="#000000" fill-rule="nonzero" fill-opacity="1" /><path clip-path="url(#clip780)" d="M1445.91 910.936 L2352.76 910.936 L2352.76 559.488 L1445.91 559.488  Z" fill="#ffffff" fill-rule="evenodd" fill-opacity="1"/>
<defs>
  <clipPath id="clip784">
    <rect x="1445" y="559" width="908" height="352"/>
  </clipPath>
</defs>
<polyline clip-path="url(#clip784)" style="stroke:#000000; stroke-linecap:round; stroke-linejoin:round; stroke-width:2; stroke-opacity:0.1; fill:none" points="1471.57,910.936 1471.57,559.488 "/>
<polyline clip-path="url(#clip784)" style="stroke:#000000; stroke-linecap:round; stroke-linejoin:round; stroke-width:2; stroke-opacity:0.1; fill:none" points="1723.2,910.936 1723.2,559.488 "/>
<polyline clip-path="url(#clip784)" style="stroke:#000000; stroke-linecap:round; stroke-linejoin:round; stroke-width:2; stroke-opacity:0.1; fill:none" points="1974.82,910.936 1974.82,559.488 "/>
<polyline clip-path="url(#clip784)" style="stroke:#000000; stroke-linecap:round; stroke-linejoin:round; stroke-width:2; stroke-opacity:0.1; fill:none" points="2226.44,910.936 2226.44,559.488 "/>
<polyline clip-path="url(#clip784)" style="stroke:#000000; stroke-linecap:round; stroke-linejoin:round; stroke-width:2; stroke-opacity:0.1; fill:none" points="1445.91,847.245 2352.76,847.245 "/>
<polyline clip-path="url(#clip784)" style="stroke:#000000; stroke-linecap:round; stroke-linejoin:round; stroke-width:2; stroke-opacity:0.1; fill:none" points="1445.91,777.474 2352.76,777.474 "/>
<polyline clip-path="url(#clip784)" style="stroke:#000000; stroke-linecap:round; stroke-linejoin:round; stroke-width:2; stroke-opacity:0.1; fill:none" points="1445.91,707.703 2352.76,707.703 "/>
<polyline clip-path="url(#clip784)" style="stroke:#000000; stroke-linecap:round; stroke-linejoin:round; stroke-width:2; stroke-opacity:0.1; fill:none" points="1445.91,637.932 2352.76,637.932 "/>
<polyline clip-path="url(#clip784)" style="stroke:#000000; stroke-linecap:round; stroke-linejoin:round; stroke-width:2; stroke-opacity:0.1; fill:none" points="1445.91,568.161 2352.76,568.161 "/>
<polyline clip-path="url(#clip780)" style="stroke:#000000; stroke-linecap:round; stroke-linejoin:round; stroke-width:4; stroke-opacity:1; fill:none" points="1445.91,910.936 2352.76,910.936 "/>
<polyline clip-path="url(#clip780)" style="stroke:#000000; stroke-linecap:round; stroke-linejoin:round; stroke-width:4; stroke-opacity:1; fill:none" points="1471.57,910.936 1471.57,892.038 "/>
<polyline clip-path="url(#clip780)" style="stroke:#000000; stroke-linecap:round; stroke-linejoin:round; stroke-width:4; stroke-opacity:1; fill:none" points="1723.2,910.936 1723.2,892.038 "/>
<polyline clip-path="url(#clip780)" style="stroke:#000000; stroke-linecap:round; stroke-linejoin:round; stroke-width:4; stroke-opacity:1; fill:none" points="1974.82,910.936 1974.82,892.038 "/>
<polyline clip-path="url(#clip780)" style="stroke:#000000; stroke-linecap:round; stroke-linejoin:round; stroke-width:4; stroke-opacity:1; fill:none" points="2226.44,910.936 2226.44,892.038 "/>
<path clip-path="url(#clip780)" d="M1471.57 941.855 Q1467.96 941.855 1466.13 945.419 Q1464.33 948.961 1464.33 956.091 Q1464.33 963.197 1466.13 966.762 Q1467.96 970.303 1471.57 970.303 Q1475.21 970.303 1477.01 966.762 Q1478.84 963.197 1478.84 956.091 Q1478.84 948.961 1477.01 945.419 Q1475.21 941.855 1471.57 941.855 M1471.57 938.151 Q1477.38 938.151 1480.44 942.757 Q1483.52 947.341 1483.52 956.091 Q1483.52 964.817 1480.44 969.424 Q1477.38 974.007 1471.57 974.007 Q1465.76 974.007 1462.68 969.424 Q1459.63 964.817 1459.63 956.091 Q1459.63 947.341 1462.68 942.757 Q1465.76 938.151 1471.57 938.151 Z" fill="#000000" fill-rule="nonzero" fill-opacity="1" /><path clip-path="url(#clip780)" d="M1713.58 969.401 L1721.22 969.401 L1721.22 943.035 L1712.91 944.702 L1712.91 940.443 L1721.17 938.776 L1725.85 938.776 L1725.85 969.401 L1733.49 969.401 L1733.49 973.336 L1713.58 973.336 L1713.58 969.401 Z" fill="#000000" fill-rule="nonzero" fill-opacity="1" /><path clip-path="url(#clip780)" d="M1969.47 969.401 L1985.79 969.401 L1985.79 973.336 L1963.85 973.336 L1963.85 969.401 Q1966.51 966.646 1971.09 962.016 Q1975.7 957.364 1976.88 956.021 Q1979.12 953.498 1980 951.762 Q1980.91 950.003 1980.91 948.313 Q1980.91 945.558 1978.96 943.822 Q1977.04 942.086 1973.94 942.086 Q1971.74 942.086 1969.29 942.85 Q1966.86 943.614 1964.08 945.165 L1964.08 940.443 Q1966.9 939.308 1969.36 938.73 Q1971.81 938.151 1973.85 938.151 Q1979.22 938.151 1982.41 940.836 Q1985.61 943.521 1985.61 948.012 Q1985.61 950.142 1984.8 952.063 Q1984.01 953.961 1981.9 956.554 Q1981.32 957.225 1978.22 960.442 Q1975.12 963.637 1969.47 969.401 Z" fill="#000000" fill-rule="nonzero" fill-opacity="1" /><path clip-path="url(#clip780)" d="M2230.69 954.702 Q2234.05 955.419 2235.92 957.688 Q2237.82 959.956 2237.82 963.29 Q2237.82 968.405 2234.3 971.206 Q2230.78 974.007 2224.3 974.007 Q2222.12 974.007 2219.81 973.567 Q2217.52 973.151 2215.06 972.294 L2215.06 967.78 Q2217.01 968.915 2219.32 969.493 Q2221.64 970.072 2224.16 970.072 Q2228.56 970.072 2230.85 968.336 Q2233.17 966.6 2233.17 963.29 Q2233.17 960.234 2231.01 958.521 Q2228.88 956.785 2225.06 956.785 L2221.04 956.785 L2221.04 952.942 L2225.25 952.942 Q2228.7 952.942 2230.53 951.577 Q2232.36 950.188 2232.36 947.595 Q2232.36 944.933 2230.46 943.521 Q2228.58 942.086 2225.06 942.086 Q2223.14 942.086 2220.94 942.503 Q2218.74 942.919 2216.11 943.799 L2216.11 939.632 Q2218.77 938.892 2221.08 938.521 Q2223.42 938.151 2225.48 938.151 Q2230.8 938.151 2233.91 940.581 Q2237.01 942.989 2237.01 947.109 Q2237.01 949.979 2235.36 951.97 Q2233.72 953.938 2230.69 954.702 Z" fill="#000000" fill-rule="nonzero" fill-opacity="1" /><polyline clip-path="url(#clip780)" style="stroke:#000000; stroke-linecap:round; stroke-linejoin:round; stroke-width:4; stroke-opacity:1; fill:none" points="1445.91,910.936 1445.91,559.488 "/>
<polyline clip-path="url(#clip780)" style="stroke:#000000; stroke-linecap:round; stroke-linejoin:round; stroke-width:4; stroke-opacity:1; fill:none" points="1445.91,847.245 1464.81,847.245 "/>
<polyline clip-path="url(#clip780)" style="stroke:#000000; stroke-linecap:round; stroke-linejoin:round; stroke-width:4; stroke-opacity:1; fill:none" points="1445.91,777.474 1464.81,777.474 "/>
<polyline clip-path="url(#clip780)" style="stroke:#000000; stroke-linecap:round; stroke-linejoin:round; stroke-width:4; stroke-opacity:1; fill:none" points="1445.91,707.703 1464.81,707.703 "/>
<polyline clip-path="url(#clip780)" style="stroke:#000000; stroke-linecap:round; stroke-linejoin:round; stroke-width:4; stroke-opacity:1; fill:none" points="1445.91,637.932 1464.81,637.932 "/>
<polyline clip-path="url(#clip780)" style="stroke:#000000; stroke-linecap:round; stroke-linejoin:round; stroke-width:4; stroke-opacity:1; fill:none" points="1445.91,568.161 1464.81,568.161 "/>
<path clip-path="url(#clip780)" d="M1352.73 833.044 Q1349.12 833.044 1347.29 836.609 Q1345.49 840.15 1345.49 847.28 Q1345.49 854.386 1347.29 857.951 Q1349.12 861.493 1352.73 861.493 Q1356.37 861.493 1358.17 857.951 Q1360 854.386 1360 847.28 Q1360 840.15 1358.17 836.609 Q1356.37 833.044 1352.73 833.044 M1352.73 829.34 Q1358.54 829.34 1361.6 833.946 Q1364.68 838.53 1364.68 847.28 Q1364.68 856.007 1361.6 860.613 Q1358.54 865.196 1352.73 865.196 Q1346.92 865.196 1343.84 860.613 Q1340.79 856.007 1340.79 847.28 Q1340.79 838.53 1343.84 833.946 Q1346.92 829.34 1352.73 829.34 Z" fill="#000000" fill-rule="nonzero" fill-opacity="1" /><path clip-path="url(#clip780)" d="M1372.89 858.645 L1377.78 858.645 L1377.78 864.525 L1372.89 864.525 L1372.89 858.645 Z" fill="#000000" fill-rule="nonzero" fill-opacity="1" /><path clip-path="url(#clip780)" d="M1397.96 833.044 Q1394.35 833.044 1392.52 836.609 Q1390.72 840.15 1390.72 847.28 Q1390.72 854.386 1392.52 857.951 Q1394.35 861.493 1397.96 861.493 Q1401.6 861.493 1403.4 857.951 Q1405.23 854.386 1405.23 847.28 Q1405.23 840.15 1403.4 836.609 Q1401.6 833.044 1397.96 833.044 M1397.96 829.34 Q1403.77 829.34 1406.83 833.946 Q1409.91 838.53 1409.91 847.28 Q1409.91 856.007 1406.83 860.613 Q1403.77 865.196 1397.96 865.196 Q1392.15 865.196 1389.07 860.613 Q1386.02 856.007 1386.02 847.28 Q1386.02 838.53 1389.07 833.946 Q1392.15 829.34 1397.96 829.34 Z" fill="#000000" fill-rule="nonzero" fill-opacity="1" /><path clip-path="url(#clip780)" d="M1353.38 763.273 Q1349.77 763.273 1347.94 766.837 Q1346.13 770.379 1346.13 777.509 Q1346.13 784.615 1347.94 788.18 Q1349.77 791.722 1353.38 791.722 Q1357.01 791.722 1358.82 788.18 Q1360.65 784.615 1360.65 777.509 Q1360.65 770.379 1358.82 766.837 Q1357.01 763.273 1353.38 763.273 M1353.38 759.569 Q1359.19 759.569 1362.25 764.175 Q1365.32 768.759 1365.32 777.509 Q1365.32 786.235 1362.25 790.842 Q1359.19 795.425 1353.38 795.425 Q1347.57 795.425 1344.49 790.842 Q1341.44 786.235 1341.44 777.509 Q1341.44 768.759 1344.49 764.175 Q1347.57 759.569 1353.38 759.569 Z" fill="#000000" fill-rule="nonzero" fill-opacity="1" /><path clip-path="url(#clip780)" d="M1373.54 788.874 L1378.43 788.874 L1378.43 794.754 L1373.54 794.754 L1373.54 788.874 Z" fill="#000000" fill-rule="nonzero" fill-opacity="1" /><path clip-path="url(#clip780)" d="M1402.78 776.12 Q1406.13 776.837 1408.01 779.106 Q1409.91 781.374 1409.91 784.708 Q1409.91 789.823 1406.39 792.624 Q1402.87 795.425 1396.39 795.425 Q1394.21 795.425 1391.9 794.985 Q1389.61 794.569 1387.15 793.712 L1387.15 789.198 Q1389.1 790.333 1391.41 790.911 Q1393.73 791.49 1396.25 791.49 Q1400.65 791.49 1402.94 789.754 Q1405.26 788.018 1405.26 784.708 Q1405.26 781.652 1403.1 779.939 Q1400.97 778.203 1397.15 778.203 L1393.13 778.203 L1393.13 774.36 L1397.34 774.36 Q1400.79 774.36 1402.62 772.995 Q1404.44 771.606 1404.44 769.013 Q1404.44 766.351 1402.55 764.939 Q1400.67 763.504 1397.15 763.504 Q1395.23 763.504 1393.03 763.921 Q1390.83 764.337 1388.19 765.217 L1388.19 761.05 Q1390.86 760.31 1393.17 759.939 Q1395.51 759.569 1397.57 759.569 Q1402.89 759.569 1406 761.999 Q1409.1 764.407 1409.1 768.527 Q1409.1 771.398 1407.45 773.388 Q1405.81 775.356 1402.78 776.12 Z" fill="#000000" fill-rule="nonzero" fill-opacity="1" /><path clip-path="url(#clip780)" d="M1352.57 693.501 Q1348.96 693.501 1347.13 697.066 Q1345.32 700.608 1345.32 707.738 Q1345.32 714.844 1347.13 718.409 Q1348.96 721.95 1352.57 721.95 Q1356.2 721.95 1358.01 718.409 Q1359.84 714.844 1359.84 707.738 Q1359.84 700.608 1358.01 697.066 Q1356.2 693.501 1352.57 693.501 M1352.57 689.798 Q1358.38 689.798 1361.44 694.404 Q1364.51 698.988 1364.51 707.738 Q1364.51 716.464 1361.44 721.071 Q1358.38 725.654 1352.57 725.654 Q1346.76 725.654 1343.68 721.071 Q1340.63 716.464 1340.63 707.738 Q1340.63 698.988 1343.68 694.404 Q1346.76 689.798 1352.57 689.798 Z" fill="#000000" fill-rule="nonzero" fill-opacity="1" /><path clip-path="url(#clip780)" d="M1372.73 719.103 L1377.62 719.103 L1377.62 724.983 L1372.73 724.983 L1372.73 719.103 Z" fill="#000000" fill-rule="nonzero" fill-opacity="1" /><path clip-path="url(#clip780)" d="M1398.38 705.839 Q1395.23 705.839 1393.38 707.992 Q1391.55 710.145 1391.55 713.895 Q1391.55 717.622 1393.38 719.798 Q1395.23 721.95 1398.38 721.95 Q1401.53 721.95 1403.36 719.798 Q1405.21 717.622 1405.21 713.895 Q1405.21 710.145 1403.36 707.992 Q1401.53 705.839 1398.38 705.839 M1407.66 691.187 L1407.66 695.446 Q1405.9 694.613 1404.1 694.173 Q1402.32 693.733 1400.56 693.733 Q1395.93 693.733 1393.47 696.858 Q1391.04 699.983 1390.69 706.302 Q1392.06 704.288 1394.12 703.224 Q1396.18 702.136 1398.66 702.136 Q1403.87 702.136 1406.88 705.307 Q1409.91 708.455 1409.91 713.895 Q1409.91 719.219 1406.76 722.437 Q1403.61 725.654 1398.38 725.654 Q1392.38 725.654 1389.21 721.071 Q1386.04 716.464 1386.04 707.738 Q1386.04 699.543 1389.93 694.682 Q1393.82 689.798 1400.37 689.798 Q1402.13 689.798 1403.91 690.145 Q1405.72 690.492 1407.66 691.187 Z" fill="#000000" fill-rule="nonzero" fill-opacity="1" /><path clip-path="url(#clip780)" d="M1352.92 623.73 Q1349.31 623.73 1347.48 627.295 Q1345.67 630.837 1345.67 637.966 Q1345.67 645.073 1347.48 648.638 Q1349.31 652.179 1352.92 652.179 Q1356.55 652.179 1358.36 648.638 Q1360.19 645.073 1360.19 637.966 Q1360.19 630.837 1358.36 627.295 Q1356.55 623.73 1352.92 623.73 M1352.92 620.027 Q1358.73 620.027 1361.78 624.633 Q1364.86 629.216 1364.86 637.966 Q1364.86 646.693 1361.78 651.3 Q1358.73 655.883 1352.92 655.883 Q1347.11 655.883 1344.03 651.3 Q1340.97 646.693 1340.97 637.966 Q1340.97 629.216 1344.03 624.633 Q1347.11 620.027 1352.92 620.027 Z" fill="#000000" fill-rule="nonzero" fill-opacity="1" /><path clip-path="url(#clip780)" d="M1373.08 649.332 L1377.96 649.332 L1377.96 655.212 L1373.08 655.212 L1373.08 649.332 Z" fill="#000000" fill-rule="nonzero" fill-opacity="1" /><path clip-path="url(#clip780)" d="M1388.29 654.494 L1388.29 650.235 Q1390.05 651.068 1391.85 651.508 Q1393.66 651.948 1395.39 651.948 Q1400.02 651.948 1402.45 648.846 Q1404.91 645.721 1405.26 639.378 Q1403.91 641.369 1401.85 642.434 Q1399.79 643.499 1397.29 643.499 Q1392.11 643.499 1389.07 640.374 Q1386.07 637.226 1386.07 631.786 Q1386.07 626.462 1389.21 623.244 Q1392.36 620.027 1397.59 620.027 Q1403.59 620.027 1406.74 624.633 Q1409.91 629.216 1409.91 637.966 Q1409.91 646.138 1406.02 651.022 Q1402.15 655.883 1395.6 655.883 Q1393.84 655.883 1392.04 655.536 Q1390.23 655.189 1388.29 654.494 M1397.59 639.841 Q1400.74 639.841 1402.57 637.689 Q1404.42 635.536 1404.42 631.786 Q1404.42 628.059 1402.57 625.906 Q1400.74 623.73 1397.59 623.73 Q1394.44 623.73 1392.59 625.906 Q1390.76 628.059 1390.76 631.786 Q1390.76 635.536 1392.59 637.689 Q1394.44 639.841 1397.59 639.841 Z" fill="#000000" fill-rule="nonzero" fill-opacity="1" /><path clip-path="url(#clip780)" d="M1345.14 581.505 L1352.78 581.505 L1352.78 555.14 L1344.47 556.806 L1344.47 552.547 L1352.73 550.881 L1357.41 550.881 L1357.41 581.505 L1365.05 581.505 L1365.05 585.441 L1345.14 585.441 L1345.14 581.505 Z" fill="#000000" fill-rule="nonzero" fill-opacity="1" /><path clip-path="url(#clip780)" d="M1374.49 579.561 L1379.38 579.561 L1379.38 585.441 L1374.49 585.441 L1374.49 579.561 Z" fill="#000000" fill-rule="nonzero" fill-opacity="1" /><path clip-path="url(#clip780)" d="M1393.59 581.505 L1409.91 581.505 L1409.91 585.441 L1387.96 585.441 L1387.96 581.505 Q1390.63 578.751 1395.21 574.121 Q1399.82 569.468 1401 568.126 Q1403.24 565.603 1404.12 563.867 Q1405.02 562.107 1405.02 560.418 Q1405.02 557.663 1403.08 555.927 Q1401.16 554.191 1398.06 554.191 Q1395.86 554.191 1393.4 554.955 Q1390.97 555.718 1388.19 557.269 L1388.19 552.547 Q1391.02 551.413 1393.47 550.834 Q1395.93 550.256 1397.96 550.256 Q1403.33 550.256 1406.53 552.941 Q1409.72 555.626 1409.72 560.117 Q1409.72 562.246 1408.91 564.168 Q1408.13 566.066 1406.02 568.658 Q1405.44 569.33 1402.34 572.547 Q1399.24 575.742 1393.59 581.505 Z" fill="#000000" fill-rule="nonzero" fill-opacity="1" /><path clip-path="url(#clip780)" d="M1265.64 831.559 Q1268.64 831.559 1274.44 833.072 Q1276.95 833.684 1279.23 834.522 Q1281.49 835.327 1283.68 836.518 Q1285.87 837.71 1287.45 839.095 Q1288.99 840.48 1289.96 842.283 Q1290.92 844.087 1290.92 846.084 Q1290.92 849.24 1289.06 851.108 Q1287.16 852.943 1283.9 853.523 Q1290.92 857.839 1290.92 863.604 Q1290.92 867.178 1288.38 868.853 Q1285.8 870.528 1281.49 870.528 Q1277.85 870.528 1274.08 869.562 Q1266.93 867.726 1261.94 864.151 Q1261.36 863.668 1261.36 862.959 Q1261.36 862.541 1261.49 862.347 Q1261.84 861.768 1262.42 861.768 Q1262.84 861.768 1263.26 862.09 Q1266.38 864.344 1269.06 865.826 Q1271.73 867.307 1274.44 867.984 Q1276.75 868.499 1278.72 868.499 Q1282.04 868.499 1284.1 867.082 Q1286.16 865.632 1286.16 862.766 Q1286.16 860.125 1284.52 857.806 Q1282.84 855.488 1280.04 853.781 Q1276.98 853.684 1274.08 852.943 Q1270.99 852.267 1270.99 850.689 Q1270.99 849.433 1272.7 849.433 Q1273.28 849.433 1274.44 849.691 Q1277.49 850.399 1280.23 851.687 Q1282.91 851.236 1284.55 849.562 Q1286.16 847.887 1286.16 845.214 Q1286.16 842.734 1284.35 840.544 Q1282.55 838.322 1279.91 836.905 Q1277.24 835.456 1274.08 834.65 Q1273.02 834.393 1271.67 834.393 Q1268.06 834.393 1265.84 836.905 Q1265.13 837.613 1264.19 837.613 Q1263.1 837.613 1262.1 836.712 Q1261.04 835.649 1261.04 834.393 Q1261.04 833.459 1261.62 832.879 Q1262.78 831.559 1265.64 831.559 Z" fill="#000000" fill-rule="nonzero" fill-opacity="1" /><path clip-path="url(#clip780)" d="M1240.72 788.989 Q1248.04 793.255 1255.2 795.323 Q1262.37 797.392 1269.72 797.392 Q1277.07 797.392 1284.3 795.323 Q1291.49 793.223 1298.78 788.989 L1298.78 794.082 Q1291.3 798.856 1284.07 801.243 Q1276.85 803.599 1269.72 803.599 Q1262.62 803.599 1255.43 801.243 Q1248.23 798.888 1240.72 794.082 L1240.72 788.989 Z" fill="#000000" fill-rule="nonzero" fill-opacity="1" /><path clip-path="url(#clip780)" d="M1260.01 756.97 Q1259.44 757.957 1259.18 759.134 Q1258.9 760.28 1258.9 761.681 Q1258.9 766.646 1262.14 769.319 Q1265.36 771.961 1271.41 771.961 L1290.18 771.961 L1290.18 777.85 L1254.54 777.85 L1254.54 771.961 L1260.07 771.961 Q1256.83 770.115 1255.27 767.155 Q1253.68 764.195 1253.68 759.962 Q1253.68 759.357 1253.77 758.625 Q1253.84 757.893 1254 757.002 L1260.01 756.97 Z" fill="#000000" fill-rule="nonzero" fill-opacity="1" /><path clip-path="url(#clip780)" d="M1272.26 734.626 Q1272.26 741.724 1273.89 744.461 Q1275.51 747.199 1279.43 747.199 Q1282.55 747.199 1284.39 745.162 Q1286.21 743.093 1286.21 739.56 Q1286.21 734.69 1282.77 731.762 Q1279.3 728.802 1273.57 728.802 L1272.26 728.802 L1272.26 734.626 M1269.85 722.945 L1290.18 722.945 L1290.18 728.802 L1284.77 728.802 Q1288.02 730.807 1289.58 733.799 Q1291.11 736.791 1291.11 741.119 Q1291.11 746.594 1288.05 749.84 Q1284.96 753.055 1279.81 753.055 Q1273.79 753.055 1270.74 749.045 Q1267.68 745.002 1267.68 737.013 L1267.68 728.802 L1267.11 728.802 Q1263.07 728.802 1260.87 731.475 Q1258.64 734.117 1258.64 738.923 Q1258.64 741.979 1259.37 744.875 Q1260.11 747.772 1261.57 750.445 L1256.16 750.445 Q1254.92 747.23 1254.31 744.207 Q1253.68 741.183 1253.68 738.318 Q1253.68 730.584 1257.69 726.765 Q1261.7 722.945 1269.85 722.945 Z" fill="#000000" fill-rule="nonzero" fill-opacity="1" /><path clip-path="url(#clip780)" d="M1259.95 687.425 L1240.66 687.425 L1240.66 681.568 L1290.18 681.568 L1290.18 687.425 L1284.84 687.425 Q1288.02 689.271 1289.58 692.103 Q1291.11 694.904 1291.11 698.851 Q1291.11 705.312 1285.95 709.386 Q1280.79 713.429 1272.39 713.429 Q1263.99 713.429 1258.83 709.386 Q1253.68 705.312 1253.68 698.851 Q1253.68 694.904 1255.24 692.103 Q1256.76 689.271 1259.95 687.425 M1272.39 707.381 Q1278.85 707.381 1282.55 704.739 Q1286.21 702.066 1286.21 697.419 Q1286.21 692.772 1282.55 690.098 Q1278.85 687.425 1272.39 687.425 Q1265.93 687.425 1262.27 690.098 Q1258.58 692.772 1258.58 697.419 Q1258.58 702.066 1262.27 704.739 Q1265.93 707.381 1272.39 707.381 Z" fill="#000000" fill-rule="nonzero" fill-opacity="1" /><path clip-path="url(#clip780)" d="M1242.66 659.097 L1242.66 653.686 L1296.23 670.237 L1296.23 675.648 L1242.66 659.097 Z" fill="#000000" fill-rule="nonzero" fill-opacity="1" /><path clip-path="url(#clip780)" d="M1255.59 624.818 L1261.12 624.818 Q1259.85 627.301 1259.21 629.974 Q1258.58 632.648 1258.58 635.512 Q1258.58 639.873 1259.92 642.069 Q1261.25 644.233 1263.93 644.233 Q1265.96 644.233 1267.14 642.674 Q1268.29 641.114 1269.34 636.404 L1269.78 634.398 Q1271.12 628.16 1273.57 625.55 Q1275.99 622.908 1280.35 622.908 Q1285.31 622.908 1288.21 626.855 Q1291.11 630.77 1291.11 637.645 Q1291.11 640.509 1290.53 643.629 Q1289.99 646.716 1288.88 650.153 L1282.83 650.153 Q1284.52 646.907 1285.38 643.756 Q1286.21 640.605 1286.21 637.517 Q1286.21 633.38 1284.81 631.152 Q1283.37 628.924 1280.79 628.924 Q1278.41 628.924 1277.13 630.547 Q1275.86 632.138 1274.68 637.581 L1274.21 639.618 Q1273.06 645.061 1270.71 647.48 Q1268.32 649.899 1264.18 649.899 Q1259.15 649.899 1256.41 646.334 Q1253.68 642.769 1253.68 636.213 Q1253.68 632.966 1254.15 630.101 Q1254.63 627.237 1255.59 624.818 Z" fill="#000000" fill-rule="nonzero" fill-opacity="1" /><path clip-path="url(#clip780)" d="M1240.72 614.505 L1240.72 609.413 Q1248.23 604.639 1255.43 602.283 Q1262.62 599.896 1269.72 599.896 Q1276.85 599.896 1284.07 602.283 Q1291.3 604.639 1298.78 609.413 L1298.78 614.505 Q1291.49 610.272 1284.3 608.203 Q1277.07 606.103 1269.72 606.103 Q1262.37 606.103 1255.2 608.203 Q1248.04 610.272 1240.72 614.505 Z" fill="#000000" fill-rule="nonzero" fill-opacity="1" /><polyline clip-path="url(#clip784)" style="stroke:#009af9; stroke-linecap:round; stroke-linejoin:round; stroke-width:4; stroke-opacity:1; fill:none" points="1471.57,847.245 1496.74,664.135 1521.9,587.553 1547.06,589.583 1572.22,637.906 1597.38,704.36 1622.55,769.285 1647.71,821.806 1672.87,857.907 1698.03,878.037 1723.2,885.111 1748.36,883.037 1773.52,875.716 1798.68,866.419 1823.85,857.494 1849.01,850.318 1874.17,845.435 1899.33,842.785 1924.49,841.943 1949.66,842.344 1974.82,843.428 1999.98,844.741 2025.14,845.966 2050.31,846.929 2075.47,847.567 2100.63,847.899 2125.79,847.988 2150.95,847.915 2176.12,847.756 2201.28,847.572 2226.44,847.404 2251.6,847.275 2276.77,847.192 2301.93,847.15 2327.09,847.141 "/>
<polyline clip-path="url(#clip784)" style="stroke:#e26f46; stroke-linecap:round; stroke-linejoin:round; stroke-width:3; stroke-opacity:1; fill:none" stroke-dasharray="12, 6, 2, 6" points="1471.57,847.245 1496.74,646.286 1521.9,569.435 1547.06,576.122 1572.22,648.159 1597.38,709.185 1622.55,773.542 1647.71,827.209 1672.87,874.905 1698.03,891.876 1723.2,900.989 1748.36,880.163 1773.52,884.79 1798.68,878.331 1823.85,857.773 1849.01,851.625 1874.17,845.593 1899.33,846.778 1924.49,840.43 1949.66,844.771 1974.82,845.039 1999.98,850.203 2025.14,855.124 2050.31,837.225 2075.47,847.376 2100.63,848.63 2125.79,859.65 2150.95,852.438 2176.12,852.956 2201.28,840.552 2226.44,848.974 2251.6,846.08 2276.77,842.882 2301.93,831.757 2327.09,851.725 "/>
<path clip-path="url(#clip780)" d="M2203.01 726.723 L2322.53 726.723 L2322.53 571.203 L2203.01 571.203  Z" fill="#ffffff" fill-rule="evenodd" fill-opacity="1"/>
<polyline clip-path="url(#clip780)" style="stroke:#000000; stroke-linecap:round; stroke-linejoin:round; stroke-width:4; stroke-opacity:1; fill:none" points="2203.01,726.723 2322.53,726.723 2322.53,571.203 2203.01,571.203 2203.01,726.723 "/>
<polyline clip-path="url(#clip780)" style="stroke:#009af9; stroke-linecap:round; stroke-linejoin:round; stroke-width:4; stroke-opacity:1; fill:none" points="2213.09,623.043 2273.55,623.043 "/>
<path clip-path="url(#clip780)" d="M2310.63 633.582 L2305.36 633.442 L2299.6 633.582 L2299.6 631.334 L2301.47 631.334 L2296.2 625.103 L2291.54 630.326 L2291.21 630.795 Q2291.21 631.006 2291.75 631.17 Q2292.31 631.334 2292.97 631.334 L2292.97 633.582 L2288.03 633.442 L2283.62 633.582 L2283.62 631.334 Q2285.1 631.334 2285.78 631.31 Q2286.48 631.263 2287.28 631.052 Q2288.07 630.842 2288.47 630.42 L2294.75 623.37 L2287.28 614.54 L2283.86 614.54 L2283.86 612.291 L2289.15 612.432 L2294.94 612.291 L2294.94 614.54 L2293.01 614.54 L2297.72 620.044 L2301.75 615.547 Q2301.77 615.523 2302.15 614.961 Q2301.4 614.54 2300.32 614.54 L2300.32 612.291 L2305.26 612.432 L2309.67 612.291 L2309.67 614.54 Q2307.75 614.54 2306.74 614.68 Q2305.76 614.797 2305.45 614.961 Q2305.17 615.125 2304.77 615.547 L2299.17 621.777 L2307.23 631.334 L2310.63 631.334 L2310.63 633.582 Z" fill="#000000" fill-rule="nonzero" fill-opacity="1" /><polyline clip-path="url(#clip780)" style="stroke:#e26f46; stroke-linecap:round; stroke-linejoin:round; stroke-width:3; stroke-opacity:1; fill:none" stroke-dasharray="12, 6, 2, 6" points="2213.09,674.883 2273.55,674.883 "/>
<path clip-path="url(#clip780)" d="M2306.21 663.361 L2305.8 664.033 Q2303.26 662.935 2300.09 661.18 Q2296.93 662.935 2294.39 664.033 L2293.99 663.361 Q2296.76 660.951 2300.09 659.098 Q2303.45 660.967 2306.21 663.361 Z" fill="#000000" fill-rule="nonzero" fill-opacity="1" /><path clip-path="url(#clip780)" d="M2310.63 690.427 L2305.36 690.286 L2299.6 690.427 L2299.6 688.178 L2301.47 688.178 L2296.2 681.948 L2291.54 687.171 L2291.21 687.639 Q2291.21 687.85 2291.75 688.014 Q2292.31 688.178 2292.97 688.178 L2292.97 690.427 L2288.03 690.286 L2283.62 690.427 L2283.62 688.178 Q2285.1 688.178 2285.78 688.155 Q2286.48 688.108 2287.28 687.897 Q2288.07 687.686 2288.47 687.265 L2294.75 680.214 L2287.28 671.384 L2283.86 671.384 L2283.86 669.136 L2289.15 669.276 L2294.94 669.136 L2294.94 671.384 L2293.01 671.384 L2297.72 676.888 L2301.75 672.391 Q2301.77 672.368 2302.15 671.806 Q2301.4 671.384 2300.32 671.384 L2300.32 669.136 L2305.26 669.276 L2309.67 669.136 L2309.67 671.384 Q2307.75 671.384 2306.74 671.525 Q2305.76 671.642 2305.45 671.806 Q2305.17 671.97 2304.77 672.391 L2299.17 678.622 L2307.23 688.178 L2310.63 688.178 L2310.63 690.427 Z" fill="#000000" fill-rule="nonzero" fill-opacity="1" /><path clip-path="url(#clip780)" d="M1445.91 1423.18 L2352.76 1423.18 L2352.76 1071.73 L1445.91 1071.73  Z" fill="#ffffff" fill-rule="evenodd" fill-opacity="1"/>
<defs>
  <clipPath id="clip785">
    <rect x="1445" y="1071" width="908" height="352"/>
  </clipPath>
</defs>
<polyline clip-path="url(#clip785)" style="stroke:#000000; stroke-linecap:round; stroke-linejoin:round; stroke-width:2; stroke-opacity:0.1; fill:none" points="1471.57,1423.18 1471.57,1071.73 "/>
<polyline clip-path="url(#clip785)" style="stroke:#000000; stroke-linecap:round; stroke-linejoin:round; stroke-width:2; stroke-opacity:0.1; fill:none" points="1723.2,1423.18 1723.2,1071.73 "/>
<polyline clip-path="url(#clip785)" style="stroke:#000000; stroke-linecap:round; stroke-linejoin:round; stroke-width:2; stroke-opacity:0.1; fill:none" points="1974.82,1423.18 1974.82,1071.73 "/>
<polyline clip-path="url(#clip785)" style="stroke:#000000; stroke-linecap:round; stroke-linejoin:round; stroke-width:2; stroke-opacity:0.1; fill:none" points="2226.44,1423.18 2226.44,1071.73 "/>
<polyline clip-path="url(#clip785)" style="stroke:#000000; stroke-linecap:round; stroke-linejoin:round; stroke-width:2; stroke-opacity:0.1; fill:none" points="1445.91,1363.37 2352.76,1363.37 "/>
<polyline clip-path="url(#clip785)" style="stroke:#000000; stroke-linecap:round; stroke-linejoin:round; stroke-width:2; stroke-opacity:0.1; fill:none" points="1445.91,1272.89 2352.76,1272.89 "/>
<polyline clip-path="url(#clip785)" style="stroke:#000000; stroke-linecap:round; stroke-linejoin:round; stroke-width:2; stroke-opacity:0.1; fill:none" points="1445.91,1182.4 2352.76,1182.4 "/>
<polyline clip-path="url(#clip785)" style="stroke:#000000; stroke-linecap:round; stroke-linejoin:round; stroke-width:2; stroke-opacity:0.1; fill:none" points="1445.91,1091.91 2352.76,1091.91 "/>
<polyline clip-path="url(#clip780)" style="stroke:#000000; stroke-linecap:round; stroke-linejoin:round; stroke-width:4; stroke-opacity:1; fill:none" points="1445.91,1423.18 2352.76,1423.18 "/>
<polyline clip-path="url(#clip780)" style="stroke:#000000; stroke-linecap:round; stroke-linejoin:round; stroke-width:4; stroke-opacity:1; fill:none" points="1471.57,1423.18 1471.57,1404.28 "/>
<polyline clip-path="url(#clip780)" style="stroke:#000000; stroke-linecap:round; stroke-linejoin:round; stroke-width:4; stroke-opacity:1; fill:none" points="1723.2,1423.18 1723.2,1404.28 "/>
<polyline clip-path="url(#clip780)" style="stroke:#000000; stroke-linecap:round; stroke-linejoin:round; stroke-width:4; stroke-opacity:1; fill:none" points="1974.82,1423.18 1974.82,1404.28 "/>
<polyline clip-path="url(#clip780)" style="stroke:#000000; stroke-linecap:round; stroke-linejoin:round; stroke-width:4; stroke-opacity:1; fill:none" points="2226.44,1423.18 2226.44,1404.28 "/>
<path clip-path="url(#clip780)" d="M1471.57 1454.1 Q1467.96 1454.1 1466.13 1457.66 Q1464.33 1461.2 1464.33 1468.33 Q1464.33 1475.44 1466.13 1479.01 Q1467.96 1482.55 1471.57 1482.55 Q1475.21 1482.55 1477.01 1479.01 Q1478.84 1475.44 1478.84 1468.33 Q1478.84 1461.2 1477.01 1457.66 Q1475.21 1454.1 1471.57 1454.1 M1471.57 1450.39 Q1477.38 1450.39 1480.44 1455 Q1483.52 1459.58 1483.52 1468.33 Q1483.52 1477.06 1480.44 1481.67 Q1477.38 1486.25 1471.57 1486.25 Q1465.76 1486.25 1462.68 1481.67 Q1459.63 1477.06 1459.63 1468.33 Q1459.63 1459.58 1462.68 1455 Q1465.76 1450.39 1471.57 1450.39 Z" fill="#000000" fill-rule="nonzero" fill-opacity="1" /><path clip-path="url(#clip780)" d="M1713.58 1481.64 L1721.22 1481.64 L1721.22 1455.28 L1712.91 1456.95 L1712.91 1452.69 L1721.17 1451.02 L1725.85 1451.02 L1725.85 1481.64 L1733.49 1481.64 L1733.49 1485.58 L1713.58 1485.58 L1713.58 1481.64 Z" fill="#000000" fill-rule="nonzero" fill-opacity="1" /><path clip-path="url(#clip780)" d="M1969.47 1481.64 L1985.79 1481.64 L1985.79 1485.58 L1963.85 1485.58 L1963.85 1481.64 Q1966.51 1478.89 1971.09 1474.26 Q1975.7 1469.61 1976.88 1468.27 Q1979.12 1465.74 1980 1464.01 Q1980.91 1462.25 1980.91 1460.56 Q1980.91 1457.8 1978.96 1456.07 Q1977.04 1454.33 1973.94 1454.33 Q1971.74 1454.33 1969.29 1455.09 Q1966.86 1455.86 1964.08 1457.41 L1964.08 1452.69 Q1966.9 1451.55 1969.36 1450.97 Q1971.81 1450.39 1973.85 1450.39 Q1979.22 1450.39 1982.41 1453.08 Q1985.61 1455.77 1985.61 1460.26 Q1985.61 1462.39 1984.8 1464.31 Q1984.01 1466.2 1981.9 1468.8 Q1981.32 1469.47 1978.22 1472.69 Q1975.12 1475.88 1969.47 1481.64 Z" fill="#000000" fill-rule="nonzero" fill-opacity="1" /><path clip-path="url(#clip780)" d="M2230.69 1466.95 Q2234.05 1467.66 2235.92 1469.93 Q2237.82 1472.2 2237.82 1475.53 Q2237.82 1480.65 2234.3 1483.45 Q2230.78 1486.25 2224.3 1486.25 Q2222.12 1486.25 2219.81 1485.81 Q2217.52 1485.39 2215.06 1484.54 L2215.06 1480.02 Q2217.01 1481.16 2219.32 1481.74 Q2221.64 1482.32 2224.16 1482.32 Q2228.56 1482.32 2230.85 1480.58 Q2233.17 1478.84 2233.17 1475.53 Q2233.17 1472.48 2231.01 1470.77 Q2228.88 1469.03 2225.06 1469.03 L2221.04 1469.03 L2221.04 1465.19 L2225.25 1465.19 Q2228.7 1465.19 2230.53 1463.82 Q2232.36 1462.43 2232.36 1459.84 Q2232.36 1457.18 2230.46 1455.77 Q2228.58 1454.33 2225.06 1454.33 Q2223.14 1454.33 2220.94 1454.75 Q2218.74 1455.16 2216.11 1456.04 L2216.11 1451.88 Q2218.77 1451.14 2221.08 1450.77 Q2223.42 1450.39 2225.48 1450.39 Q2230.8 1450.39 2233.91 1452.83 Q2237.01 1455.23 2237.01 1459.35 Q2237.01 1462.22 2235.36 1464.21 Q2233.72 1466.18 2230.69 1466.95 Z" fill="#000000" fill-rule="nonzero" fill-opacity="1" /><path clip-path="url(#clip780)" d="M1769.5 1520.52 L1809.7 1520.52 L1809.7 1525.93 L1792.83 1525.93 L1792.83 1568.04 L1786.37 1568.04 L1786.37 1525.93 L1769.5 1525.93 L1769.5 1520.52 Z" fill="#000000" fill-rule="nonzero" fill-opacity="1" /><path clip-path="url(#clip780)" d="M1813.65 1532.4 L1819.51 1532.4 L1819.51 1568.04 L1813.65 1568.04 L1813.65 1532.4 M1813.65 1518.52 L1819.51 1518.52 L1819.51 1525.93 L1813.65 1525.93 L1813.65 1518.52 Z" fill="#000000" fill-rule="nonzero" fill-opacity="1" /><path clip-path="url(#clip780)" d="M1859.51 1539.24 Q1861.71 1535.29 1864.77 1533.41 Q1867.82 1531.54 1871.96 1531.54 Q1877.53 1531.54 1880.55 1535.45 Q1883.58 1539.33 1883.58 1546.53 L1883.58 1568.04 L1877.69 1568.04 L1877.69 1546.72 Q1877.69 1541.59 1875.87 1539.11 Q1874.06 1536.63 1870.34 1536.63 Q1865.78 1536.63 1863.14 1539.65 Q1860.5 1542.68 1860.5 1547.9 L1860.5 1568.04 L1854.61 1568.04 L1854.61 1546.72 Q1854.61 1541.56 1852.8 1539.11 Q1850.98 1536.63 1847.2 1536.63 Q1842.71 1536.63 1840.07 1539.68 Q1837.43 1542.71 1837.43 1547.9 L1837.43 1568.04 L1831.54 1568.04 L1831.54 1532.4 L1837.43 1532.4 L1837.43 1537.93 Q1839.43 1534.66 1842.23 1533.1 Q1845.03 1531.54 1848.88 1531.54 Q1852.77 1531.54 1855.47 1533.51 Q1858.21 1535.48 1859.51 1539.24 Z" fill="#000000" fill-rule="nonzero" fill-opacity="1" /><path clip-path="url(#clip780)" d="M1925.75 1548.76 L1925.75 1551.62 L1898.82 1551.62 Q1899.2 1557.67 1902.45 1560.85 Q1905.73 1564 1911.55 1564 Q1914.93 1564 1918.08 1563.17 Q1921.26 1562.35 1924.38 1560.69 L1924.38 1566.23 Q1921.23 1567.57 1917.92 1568.27 Q1914.61 1568.97 1911.2 1568.97 Q1902.67 1568.97 1897.68 1564 Q1892.71 1559.04 1892.71 1550.57 Q1892.71 1541.82 1897.42 1536.69 Q1902.16 1531.54 1910.19 1531.54 Q1917.38 1531.54 1921.55 1536.18 Q1925.75 1540.8 1925.75 1548.76 M1919.89 1547.04 Q1919.83 1542.23 1917.19 1539.37 Q1914.58 1536.5 1910.25 1536.5 Q1905.35 1536.5 1902.39 1539.27 Q1899.46 1542.04 1899.01 1547.07 L1919.89 1547.04 Z" fill="#000000" fill-rule="nonzero" fill-opacity="1" /><path clip-path="url(#clip780)" d="M1970.15 1518.58 Q1965.89 1525.9 1963.82 1533.06 Q1961.75 1540.23 1961.75 1547.58 Q1961.75 1554.93 1963.82 1562.16 Q1965.92 1569.35 1970.15 1576.64 L1965.06 1576.64 Q1960.28 1569.16 1957.9 1561.93 Q1955.54 1554.71 1955.54 1547.58 Q1955.54 1540.48 1957.9 1533.29 Q1960.25 1526.09 1965.06 1518.58 L1970.15 1518.58 Z" fill="#000000" fill-rule="nonzero" fill-opacity="1" /><path clip-path="url(#clip780)" d="M2004.24 1533.45 L2004.24 1538.98 Q2001.76 1537.71 1999.08 1537.07 Q1996.41 1536.44 1993.54 1536.44 Q1989.18 1536.44 1986.99 1537.77 Q1984.82 1539.11 1984.82 1541.79 Q1984.82 1543.82 1986.38 1545 Q1987.94 1546.15 1992.65 1547.2 L1994.66 1547.64 Q2000.9 1548.98 2003.51 1551.43 Q2006.15 1553.85 2006.15 1558.21 Q2006.15 1563.17 2002.2 1566.07 Q1998.29 1568.97 1991.41 1568.97 Q1988.55 1568.97 1985.43 1568.39 Q1982.34 1567.85 1978.9 1566.74 L1978.9 1560.69 Q1982.15 1562.38 1985.3 1563.24 Q1988.45 1564.07 1991.54 1564.07 Q1995.68 1564.07 1997.9 1562.66 Q2000.13 1561.23 2000.13 1558.65 Q2000.13 1556.27 1998.51 1554.99 Q1996.92 1553.72 1991.48 1552.54 L1989.44 1552.07 Q1984 1550.92 1981.58 1548.56 Q1979.16 1546.18 1979.16 1542.04 Q1979.16 1537.01 1982.72 1534.27 Q1986.29 1531.54 1992.84 1531.54 Q1996.09 1531.54 1998.96 1532.01 Q2001.82 1532.49 2004.24 1533.45 Z" fill="#000000" fill-rule="nonzero" fill-opacity="1" /><path clip-path="url(#clip780)" d="M2014.55 1518.58 L2019.64 1518.58 Q2024.42 1526.09 2026.77 1533.29 Q2029.16 1540.48 2029.16 1547.58 Q2029.16 1554.71 2026.77 1561.93 Q2024.42 1569.16 2019.64 1576.64 L2014.55 1576.64 Q2018.78 1569.35 2020.85 1562.16 Q2022.95 1554.93 2022.95 1547.58 Q2022.95 1540.23 2020.85 1533.06 Q2018.78 1525.9 2014.55 1518.58 Z" fill="#000000" fill-rule="nonzero" fill-opacity="1" /><polyline clip-path="url(#clip780)" style="stroke:#000000; stroke-linecap:round; stroke-linejoin:round; stroke-width:4; stroke-opacity:1; fill:none" points="1445.91,1423.18 1445.91,1071.73 "/>
<polyline clip-path="url(#clip780)" style="stroke:#000000; stroke-linecap:round; stroke-linejoin:round; stroke-width:4; stroke-opacity:1; fill:none" points="1445.91,1363.37 1464.81,1363.37 "/>
<polyline clip-path="url(#clip780)" style="stroke:#000000; stroke-linecap:round; stroke-linejoin:round; stroke-width:4; stroke-opacity:1; fill:none" points="1445.91,1272.89 1464.81,1272.89 "/>
<polyline clip-path="url(#clip780)" style="stroke:#000000; stroke-linecap:round; stroke-linejoin:round; stroke-width:4; stroke-opacity:1; fill:none" points="1445.91,1182.4 1464.81,1182.4 "/>
<polyline clip-path="url(#clip780)" style="stroke:#000000; stroke-linecap:round; stroke-linejoin:round; stroke-width:4; stroke-opacity:1; fill:none" points="1445.91,1091.91 1464.81,1091.91 "/>
<path clip-path="url(#clip780)" d="M1272.32 1363.82 L1301.99 1363.82 L1301.99 1367.76 L1272.32 1367.76 L1272.32 1363.82 Z" fill="#000000" fill-rule="nonzero" fill-opacity="1" /><path clip-path="url(#clip780)" d="M1322.08 1349.17 Q1318.47 1349.17 1316.64 1352.74 Q1314.84 1356.28 1314.84 1363.41 Q1314.84 1370.51 1316.64 1374.08 Q1318.47 1377.62 1322.08 1377.62 Q1325.72 1377.62 1327.52 1374.08 Q1329.35 1370.51 1329.35 1363.41 Q1329.35 1356.28 1327.52 1352.74 Q1325.72 1349.17 1322.08 1349.17 M1322.08 1345.47 Q1327.89 1345.47 1330.95 1350.07 Q1334.03 1354.66 1334.03 1363.41 Q1334.03 1372.13 1330.95 1376.74 Q1327.89 1381.32 1322.08 1381.32 Q1316.27 1381.32 1313.2 1376.74 Q1310.14 1372.13 1310.14 1363.41 Q1310.14 1354.66 1313.2 1350.07 Q1316.27 1345.47 1322.08 1345.47 Z" fill="#000000" fill-rule="nonzero" fill-opacity="1" /><path clip-path="url(#clip780)" d="M1342.25 1374.77 L1347.13 1374.77 L1347.13 1380.65 L1342.25 1380.65 L1342.25 1374.77 Z" fill="#000000" fill-rule="nonzero" fill-opacity="1" /><path clip-path="url(#clip780)" d="M1367.32 1349.17 Q1363.7 1349.17 1361.88 1352.74 Q1360.07 1356.28 1360.07 1363.41 Q1360.07 1370.51 1361.88 1374.08 Q1363.7 1377.62 1367.32 1377.62 Q1370.95 1377.62 1372.76 1374.08 Q1374.58 1370.51 1374.58 1363.41 Q1374.58 1356.28 1372.76 1352.74 Q1370.95 1349.17 1367.32 1349.17 M1367.32 1345.47 Q1373.13 1345.47 1376.18 1350.07 Q1379.26 1354.66 1379.26 1363.41 Q1379.26 1372.13 1376.18 1376.74 Q1373.13 1381.32 1367.32 1381.32 Q1361.51 1381.32 1358.43 1376.74 Q1355.37 1372.13 1355.37 1363.41 Q1355.37 1354.66 1358.43 1350.07 Q1361.51 1345.47 1367.32 1345.47 Z" fill="#000000" fill-rule="nonzero" fill-opacity="1" /><path clip-path="url(#clip780)" d="M1400.32 1350.17 L1388.52 1368.62 L1400.32 1368.62 L1400.32 1350.17 M1399.1 1346.09 L1404.98 1346.09 L1404.98 1368.62 L1409.91 1368.62 L1409.91 1372.5 L1404.98 1372.5 L1404.98 1380.65 L1400.32 1380.65 L1400.32 1372.5 L1384.72 1372.5 L1384.72 1367.99 L1399.1 1346.09 Z" fill="#000000" fill-rule="nonzero" fill-opacity="1" /><path clip-path="url(#clip780)" d="M1274.4 1273.34 L1304.08 1273.34 L1304.08 1277.27 L1274.4 1277.27 L1274.4 1273.34 Z" fill="#000000" fill-rule="nonzero" fill-opacity="1" /><path clip-path="url(#clip780)" d="M1324.17 1258.68 Q1320.56 1258.68 1318.73 1262.25 Q1316.92 1265.79 1316.92 1272.92 Q1316.92 1280.03 1318.73 1283.59 Q1320.56 1287.13 1324.17 1287.13 Q1327.8 1287.13 1329.61 1283.59 Q1331.44 1280.03 1331.44 1272.92 Q1331.44 1265.79 1329.61 1262.25 Q1327.8 1258.68 1324.17 1258.68 M1324.17 1254.98 Q1329.98 1254.98 1333.03 1259.59 Q1336.11 1264.17 1336.11 1272.92 Q1336.11 1281.65 1333.03 1286.25 Q1329.98 1290.84 1324.17 1290.84 Q1318.36 1290.84 1315.28 1286.25 Q1312.22 1281.65 1312.22 1272.92 Q1312.22 1264.17 1315.28 1259.59 Q1318.36 1254.98 1324.17 1254.98 Z" fill="#000000" fill-rule="nonzero" fill-opacity="1" /><path clip-path="url(#clip780)" d="M1344.33 1284.29 L1349.21 1284.29 L1349.21 1290.17 L1344.33 1290.17 L1344.33 1284.29 Z" fill="#000000" fill-rule="nonzero" fill-opacity="1" /><path clip-path="url(#clip780)" d="M1369.4 1258.68 Q1365.79 1258.68 1363.96 1262.25 Q1362.15 1265.79 1362.15 1272.92 Q1362.15 1280.03 1363.96 1283.59 Q1365.79 1287.13 1369.4 1287.13 Q1373.03 1287.13 1374.84 1283.59 Q1376.67 1280.03 1376.67 1272.92 Q1376.67 1265.79 1374.84 1262.25 Q1373.03 1258.68 1369.4 1258.68 M1369.4 1254.98 Q1375.21 1254.98 1378.26 1259.59 Q1381.34 1264.17 1381.34 1272.92 Q1381.34 1281.65 1378.26 1286.25 Q1375.21 1290.84 1369.4 1290.84 Q1363.59 1290.84 1360.51 1286.25 Q1357.45 1281.65 1357.45 1272.92 Q1357.45 1264.17 1360.51 1259.59 Q1363.59 1254.98 1369.4 1254.98 Z" fill="#000000" fill-rule="nonzero" fill-opacity="1" /><path clip-path="url(#clip780)" d="M1393.59 1286.23 L1409.91 1286.23 L1409.91 1290.17 L1387.96 1290.17 L1387.96 1286.23 Q1390.63 1283.48 1395.21 1278.85 Q1399.82 1274.19 1401 1272.85 Q1403.24 1270.33 1404.12 1268.59 Q1405.02 1266.83 1405.02 1265.14 Q1405.02 1262.39 1403.08 1260.65 Q1401.16 1258.92 1398.06 1258.92 Q1395.86 1258.92 1393.4 1259.68 Q1390.97 1260.44 1388.19 1261.99 L1388.19 1257.27 Q1391.02 1256.14 1393.47 1255.56 Q1395.93 1254.98 1397.96 1254.98 Q1403.33 1254.98 1406.53 1257.67 Q1409.72 1260.35 1409.72 1264.84 Q1409.72 1266.97 1408.91 1268.89 Q1408.13 1270.79 1406.02 1273.38 Q1405.44 1274.05 1402.34 1277.27 Q1399.24 1280.47 1393.59 1286.23 Z" fill="#000000" fill-rule="nonzero" fill-opacity="1" /><path clip-path="url(#clip780)" d="M1322.57 1168.2 Q1318.96 1168.2 1317.13 1171.76 Q1315.32 1175.3 1315.32 1182.43 Q1315.32 1189.54 1317.13 1193.11 Q1318.96 1196.65 1322.57 1196.65 Q1326.2 1196.65 1328.01 1193.11 Q1329.84 1189.54 1329.84 1182.43 Q1329.84 1175.3 1328.01 1171.76 Q1326.2 1168.2 1322.57 1168.2 M1322.57 1164.49 Q1328.38 1164.49 1331.44 1169.1 Q1334.51 1173.68 1334.51 1182.43 Q1334.51 1191.16 1331.44 1195.77 Q1328.38 1200.35 1322.57 1200.35 Q1316.76 1200.35 1313.68 1195.77 Q1310.63 1191.16 1310.63 1182.43 Q1310.63 1173.68 1313.68 1169.1 Q1316.76 1164.49 1322.57 1164.49 Z" fill="#000000" fill-rule="nonzero" fill-opacity="1" /><path clip-path="url(#clip780)" d="M1342.73 1193.8 L1347.62 1193.8 L1347.62 1199.68 L1342.73 1199.68 L1342.73 1193.8 Z" fill="#000000" fill-rule="nonzero" fill-opacity="1" /><path clip-path="url(#clip780)" d="M1367.8 1168.2 Q1364.19 1168.2 1362.36 1171.76 Q1360.56 1175.3 1360.56 1182.43 Q1360.56 1189.54 1362.36 1193.11 Q1364.19 1196.65 1367.8 1196.65 Q1371.44 1196.65 1373.24 1193.11 Q1375.07 1189.54 1375.07 1182.43 Q1375.07 1175.3 1373.24 1171.76 Q1371.44 1168.2 1367.8 1168.2 M1367.8 1164.49 Q1373.61 1164.49 1376.67 1169.1 Q1379.75 1173.68 1379.75 1182.43 Q1379.75 1191.16 1376.67 1195.77 Q1373.61 1200.35 1367.8 1200.35 Q1361.99 1200.35 1358.91 1195.77 Q1355.86 1191.16 1355.86 1182.43 Q1355.86 1173.68 1358.91 1169.1 Q1361.99 1164.49 1367.8 1164.49 Z" fill="#000000" fill-rule="nonzero" fill-opacity="1" /><path clip-path="url(#clip780)" d="M1397.96 1168.2 Q1394.35 1168.2 1392.52 1171.76 Q1390.72 1175.3 1390.72 1182.43 Q1390.72 1189.54 1392.52 1193.11 Q1394.35 1196.65 1397.96 1196.65 Q1401.6 1196.65 1403.4 1193.11 Q1405.23 1189.54 1405.23 1182.43 Q1405.23 1175.3 1403.4 1171.76 Q1401.6 1168.2 1397.96 1168.2 M1397.96 1164.49 Q1403.77 1164.49 1406.83 1169.1 Q1409.91 1173.68 1409.91 1182.43 Q1409.91 1191.16 1406.83 1195.77 Q1403.77 1200.35 1397.96 1200.35 Q1392.15 1200.35 1389.07 1195.77 Q1386.02 1191.16 1386.02 1182.43 Q1386.02 1173.68 1389.07 1169.1 Q1392.15 1164.49 1397.96 1164.49 Z" fill="#000000" fill-rule="nonzero" fill-opacity="1" /><path clip-path="url(#clip780)" d="M1324.17 1077.71 Q1320.56 1077.71 1318.73 1081.28 Q1316.92 1084.82 1316.92 1091.95 Q1316.92 1099.05 1318.73 1102.62 Q1320.56 1106.16 1324.17 1106.16 Q1327.8 1106.16 1329.61 1102.62 Q1331.44 1099.05 1331.44 1091.95 Q1331.44 1084.82 1329.61 1081.28 Q1327.8 1077.71 1324.17 1077.71 M1324.17 1074.01 Q1329.98 1074.01 1333.03 1078.61 Q1336.11 1083.2 1336.11 1091.95 Q1336.11 1100.67 1333.03 1105.28 Q1329.98 1109.86 1324.17 1109.86 Q1318.36 1109.86 1315.28 1105.28 Q1312.22 1100.67 1312.22 1091.95 Q1312.22 1083.2 1315.28 1078.61 Q1318.36 1074.01 1324.17 1074.01 Z" fill="#000000" fill-rule="nonzero" fill-opacity="1" /><path clip-path="url(#clip780)" d="M1344.33 1103.31 L1349.21 1103.31 L1349.21 1109.19 L1344.33 1109.19 L1344.33 1103.31 Z" fill="#000000" fill-rule="nonzero" fill-opacity="1" /><path clip-path="url(#clip780)" d="M1369.4 1077.71 Q1365.79 1077.71 1363.96 1081.28 Q1362.15 1084.82 1362.15 1091.95 Q1362.15 1099.05 1363.96 1102.62 Q1365.79 1106.16 1369.4 1106.16 Q1373.03 1106.16 1374.84 1102.62 Q1376.67 1099.05 1376.67 1091.95 Q1376.67 1084.82 1374.84 1081.28 Q1373.03 1077.71 1369.4 1077.71 M1369.4 1074.01 Q1375.21 1074.01 1378.26 1078.61 Q1381.34 1083.2 1381.34 1091.95 Q1381.34 1100.67 1378.26 1105.28 Q1375.21 1109.86 1369.4 1109.86 Q1363.59 1109.86 1360.51 1105.28 Q1357.45 1100.67 1357.45 1091.95 Q1357.45 1083.2 1360.51 1078.61 Q1363.59 1074.01 1369.4 1074.01 Z" fill="#000000" fill-rule="nonzero" fill-opacity="1" /><path clip-path="url(#clip780)" d="M1393.59 1105.26 L1409.91 1105.26 L1409.91 1109.19 L1387.96 1109.19 L1387.96 1105.26 Q1390.63 1102.5 1395.21 1097.87 Q1399.82 1093.22 1401 1091.88 Q1403.24 1089.35 1404.12 1087.62 Q1405.02 1085.86 1405.02 1084.17 Q1405.02 1081.41 1403.08 1079.68 Q1401.16 1077.94 1398.06 1077.94 Q1395.86 1077.94 1393.4 1078.71 Q1390.97 1079.47 1388.19 1081.02 L1388.19 1076.3 Q1391.02 1075.16 1393.47 1074.59 Q1395.93 1074.01 1397.96 1074.01 Q1403.33 1074.01 1406.53 1076.69 Q1409.72 1079.38 1409.72 1083.87 Q1409.72 1086 1408.91 1087.92 Q1408.13 1089.82 1406.02 1092.41 Q1405.44 1093.08 1402.34 1096.3 Q1399.24 1099.49 1393.59 1105.26 Z" fill="#000000" fill-rule="nonzero" fill-opacity="1" /><path clip-path="url(#clip780)" d="M1182.01 1252.88 L1182.94 1253.44 Q1181.43 1256.93 1179.02 1261.28 Q1181.43 1265.63 1182.94 1269.13 L1182.01 1269.67 Q1178.7 1265.86 1176.15 1261.28 Q1178.72 1256.66 1182.01 1252.88 Z" fill="#000000" fill-rule="nonzero" fill-opacity="1" /><path clip-path="url(#clip780)" d="M1194.31 1249.71 Q1196.12 1249.71 1197.15 1250.84 Q1198.14 1251.97 1198.14 1253.26 Q1198.14 1254.48 1197.44 1255.12 Q1196.73 1255.77 1195.83 1255.77 Q1194.6 1255.77 1193.54 1254.87 Q1192.48 1253.96 1192.25 1252.61 Q1191.41 1253.93 1191.41 1255.9 Q1191.41 1257.18 1192.09 1258.31 Q1192.77 1259.41 1193.64 1260.08 Q1194.51 1260.73 1195.76 1261.31 Q1196.99 1261.85 1197.73 1262.08 Q1198.43 1262.27 1199.21 1262.43 L1208.23 1264.69 Q1212.51 1265.78 1214.02 1265.78 Q1215.89 1265.78 1217.15 1264.88 Q1218.37 1263.98 1218.37 1262.18 Q1218.37 1261.47 1218.18 1260.66 Q1217.95 1259.86 1217.37 1258.83 Q1216.76 1257.76 1215.86 1256.83 Q1214.92 1255.86 1213.35 1254.93 Q1211.77 1254 1209.74 1253.38 Q1209.03 1253.19 1209.03 1252.55 Q1209.03 1251.74 1209.67 1251.74 Q1210.22 1251.74 1211.38 1252.19 Q1212.51 1252.61 1213.99 1253.55 Q1215.44 1254.45 1216.76 1255.64 Q1218.05 1256.83 1218.95 1258.6 Q1219.85 1260.37 1219.85 1262.31 Q1219.85 1265.08 1218.37 1266.91 Q1216.89 1268.75 1214.83 1269.42 Q1215.12 1269.58 1215.5 1269.81 Q1215.89 1270.03 1216.76 1270.71 Q1217.6 1271.36 1218.24 1272.1 Q1218.85 1272.84 1219.34 1274 Q1219.85 1275.12 1219.85 1276.35 Q1219.85 1277.89 1219.4 1279.28 Q1218.95 1280.63 1217.92 1281.6 Q1216.89 1282.56 1215.47 1282.56 Q1213.89 1282.56 1212.8 1281.5 Q1211.67 1280.41 1211.67 1278.92 Q1211.67 1277.99 1212.22 1277.25 Q1212.77 1276.48 1213.96 1276.48 Q1215.28 1276.48 1216.28 1277.38 Q1217.27 1278.28 1217.53 1279.57 Q1218.37 1278.25 1218.37 1276.28 Q1218.37 1274.16 1216.5 1272.48 Q1214.63 1270.81 1211.51 1270 Q1204.01 1268.01 1200.66 1267.23 Q1197.28 1266.46 1195.83 1266.46 Q1194.47 1266.46 1193.54 1266.81 Q1192.61 1267.17 1192.19 1267.78 Q1191.74 1268.36 1191.57 1268.91 Q1191.41 1269.42 1191.41 1270 Q1191.41 1270.97 1191.8 1272.06 Q1192.19 1273.13 1193.09 1274.41 Q1193.96 1275.67 1195.76 1276.86 Q1197.56 1278.05 1200.04 1278.86 Q1200.79 1279.02 1200.79 1279.73 Q1200.75 1280.5 1200.11 1280.5 Q1199.56 1280.5 1198.43 1280.08 Q1197.28 1279.63 1195.83 1278.73 Q1194.38 1277.8 1193.09 1276.6 Q1191.77 1275.38 1190.87 1273.61 Q1189.96 1271.81 1189.96 1269.87 Q1189.96 1269 1190.16 1268.17 Q1190.32 1267.3 1190.8 1266.27 Q1191.28 1265.2 1192.35 1264.27 Q1193.41 1263.34 1194.96 1262.76 Q1194.22 1262.37 1193.51 1261.85 Q1192.8 1261.31 1191.93 1260.47 Q1191.03 1259.6 1190.51 1258.41 Q1189.96 1257.18 1189.96 1255.83 Q1189.96 1254.51 1190.32 1253.22 Q1190.64 1251.94 1191.7 1250.84 Q1192.73 1249.71 1194.31 1249.71 Z" fill="#000000" fill-rule="nonzero" fill-opacity="1" /><path clip-path="url(#clip780)" d="M1231.9 1242.25 Q1230.52 1242.25 1229.87 1241.46 Q1229.22 1240.68 1229.22 1239.66 Q1229.22 1238.6 1229.92 1237.86 Q1230.59 1237.09 1231.79 1237.09 Q1233.07 1237.09 1233.79 1237.99 Q1234.51 1238.87 1234.33 1240.13 Q1236.18 1239.03 1237.02 1237 Q1237.85 1234.95 1237.85 1233.06 Q1237.85 1231.07 1236.14 1229.47 Q1234.42 1227.85 1230.23 1227.85 Q1226.67 1227.85 1224.62 1229.25 Q1222.57 1230.62 1222.57 1233.35 L1222.57 1235.38 Q1222.57 1236.08 1222.5 1236.28 Q1222.43 1236.48 1222.05 1236.48 Q1221.6 1236.48 1221.51 1235.78 Q1221.51 1235.08 1221.37 1233.98 Q1221.28 1231.3 1218.96 1229.88 Q1216.79 1228.59 1213.71 1228.59 Q1210.89 1228.59 1209.72 1229.94 Q1208.52 1231.27 1208.52 1233.01 Q1208.52 1234.63 1209.2 1236.41 Q1209.87 1238.2 1211.38 1239.17 Q1211.38 1236.3 1213.71 1236.3 Q1214.72 1236.3 1215.4 1236.96 Q1216.05 1237.59 1216.05 1238.65 Q1216.05 1239.66 1215.42 1240.34 Q1214.77 1241.01 1213.66 1241.01 Q1211.02 1241.01 1209.2 1238.67 Q1207.37 1236.3 1207.37 1232.83 Q1207.37 1229.4 1209.17 1226.88 Q1210.98 1224.33 1213.75 1224.33 Q1216.48 1224.33 1218.71 1226.13 Q1220.94 1227.94 1221.87 1230.8 Q1222.57 1227.28 1224.96 1225.19 Q1227.32 1223.09 1230.23 1223.09 Q1233.84 1223.09 1236.5 1225.93 Q1239.14 1228.77 1239.14 1232.92 Q1239.14 1236.75 1237.06 1239.5 Q1234.99 1242.25 1231.9 1242.25 Z" fill="#000000" fill-rule="nonzero" fill-opacity="1" /><polyline clip-path="url(#clip785)" style="stroke:#e26f46; stroke-linecap:round; stroke-linejoin:round; stroke-width:3; stroke-opacity:1; fill:none" stroke-dasharray="12, 6, 2, 6" points="1471.57,1182.4 1496.74,1081.68 1521.9,1201.36 1547.06,1281.66 1572.22,1413.23 1597.38,1403.75 1622.55,1389.59 1647.71,1366.89 1672.87,1375.46 1698.03,1347.21 1723.2,1337.66 1748.36,1266.4 1773.52,1274.98 1798.68,1274.37 1823.85,1237.05 1849.01,1228.99 1874.17,1216.38 1899.33,1219.48 1924.49,1198.32 1949.66,1200.31 1974.82,1192.09 1999.98,1198.77 2025.14,1212.97 2050.31,1161.3 2075.47,1173.88 2100.63,1169 2125.79,1199.15 2150.95,1190.3 2176.12,1202.02 2201.28,1175.08 2226.44,1198.41 2251.6,1196.19 2276.77,1188.84 2301.93,1147.63 2327.09,1186.3 "/>
</svg>
