<?xml version="1.0" encoding="utf-8"?>
<svg xmlns="http://www.w3.org/2000/svg" xmlns:xlink="http://www.w3.org/1999/xlink" width="600" height="400" viewBox="0 0 2400 1600">
<defs>
  <clipPath id="clip520">
    <rect x="0" y="0" width="2400" height="1600"/>
  </clipPath>
</defs>
<path clip-path="url(#clip520)" d="M0 1600 L2400 1600 L2400 0 L0 0  Z" fill="#ffffff" fill-rule="evenodd" fill-opacity="1"/>
<defs>
  <clipPath id="clip521">
    <rect x="480" y="0" width="1681" height="1600"/>
  </clipPath>
</defs>
<path clip-path="url(#clip520)" d="M203.964 1423.18 L1111.38 1423.18 L1111.38 47.2441 L203.964 47.2441  Z" fill="#ffffff" fill-rule="evenodd" fill-opacity="1"/>
<defs>
  <clipPath id="clip522">
    <rect x="203" y="47" width="908" height="1377"/>
  </clipPath>
</defs>
<polyline clip-path="url(#clip522)" style="stroke:#000000; stroke-linecap:round; stroke-linejoin:round; stroke-width:2; stroke-opacity:0.1; fill:none" points="229.645,1423.18 229.645,47.2441 "/>
<polyline clip-path="url(#clip522)" style="stroke:#000000; stroke-linecap:round; stroke-linejoin:round; stroke-width:2; stroke-opacity:0.1; fill:none" points="481.425,1423.18 481.425,47.2441 "/>
<polyline clip-path="url(#clip522)" style="stroke:#000000; stroke-linecap:round; stroke-linejoin:round; stroke-width:2; stroke-opacity:0.1; fill:none" points="733.205,1423.18 733.205,47.2441 "/>
<polyline clip-path="url(#clip522)" style="stroke:#000000; stroke-linecap:round; stroke-linejoin:round; stroke-width:2; stroke-opacity:0.1; fill:none" points="984.985,1423.18 984.985,47.2441 "/>
<polyline clip-path="url(#clip520)" style="stroke:#000000; stroke-linecap:round; stroke-linejoin:round; stroke-width:4; stroke-opacity:1; fill:none" points="203.964,1423.18 1111.38,1423.18 "/>
<polyline clip-path="url(#clip520)" style="stroke:#000000; stroke-linecap:round; stroke-linejoin:round; stroke-width:4; stroke-opacity:1; fill:none" points="229.645,1423.18 229.645,1404.28 "/>
<polyline clip-path="url(#clip520)" style="stroke:#000000; stroke-linecap:round; stroke-linejoin:round; stroke-width:4; stroke-opacity:1; fill:none" points="481.425,1423.18 481.425,1404.28 "/>
<polyline clip-path="url(#clip520)" style="stroke:#000000; stroke-linecap:round; stroke-linejoin:round; stroke-width:4; stroke-opacity:1; fill:none" points="733.205,1423.18 733.205,1404.28 "/>
<polyline clip-path="url(#clip520)" style="stroke:#000000; stroke-linecap:round; stroke-linejoin:round; stroke-width:4; stroke-opacity:1; fill:none" points="984.985,1423.18 984.985,1404.28 "/>
<path clip-path="url(#clip520)" d="M229.645 1454.1 Q226.034 1454.1 224.205 1457.66 Q222.4 1461.2 222.4 1468.33 Q222.4 1475.44 224.205 1479.01 Q226.034 1482.55 229.645 1482.55 Q233.279 1482.55 235.085 1479.01 Q236.914 1475.44 236.914 1468.33 Q236.914 1461.2 235.085 1457.66 Q233.279 1454.1 229.645 1454.1 M229.645 1450.39 Q235.455 1450.39 238.511 1455 Q241.59 1459.58 241.59 1468.33 Q241.59 1477.06 238.511 1481.67 Q235.455 1486.25 229.645 1486.25 Q223.835 1486.25 220.756 1481.67 Q217.701 1477.06 217.701 1468.33 Q217.701 1459.58 220.756 1455 Q223.835 1450.39 229.645 1450.39 Z" fill="#000000" fill-rule="nonzero" fill-opacity="1" /><path clip-path="url(#clip520)" d="M471.807 1481.64 L479.446 1481.64 L479.446 1455.28 L471.136 1456.95 L471.136 1452.69 L479.4 1451.02 L484.076 1451.02 L484.076 1481.64 L491.714 1481.64 L491.714 1485.58 L471.807 1485.58 L471.807 1481.64 Z" fill="#000000" fill-rule="nonzero" fill-opacity="1" /><path clip-path="url(#clip520)" d="M727.858 1481.64 L744.177 1481.64 L744.177 1485.58 L722.233 1485.58 L722.233 1481.64 Q724.895 1478.89 729.478 1474.26 Q734.085 1469.61 735.265 1468.27 Q737.511 1465.74 738.39 1464.01 Q739.293 1462.25 739.293 1460.56 Q739.293 1457.8 737.349 1456.07 Q735.427 1454.33 732.326 1454.33 Q730.127 1454.33 727.673 1455.09 Q725.242 1455.86 722.465 1457.41 L722.465 1452.69 Q725.289 1451.55 727.742 1450.97 Q730.196 1450.39 732.233 1450.39 Q737.603 1450.39 740.798 1453.08 Q743.992 1455.77 743.992 1460.26 Q743.992 1462.39 743.182 1464.31 Q742.395 1466.2 740.288 1468.8 Q739.71 1469.47 736.608 1472.69 Q733.506 1475.88 727.858 1481.64 Z" fill="#000000" fill-rule="nonzero" fill-opacity="1" /><path clip-path="url(#clip520)" d="M989.233 1466.95 Q992.589 1467.66 994.464 1469.93 Q996.362 1472.2 996.362 1475.53 Q996.362 1480.65 992.844 1483.45 Q989.325 1486.25 982.844 1486.25 Q980.668 1486.25 978.353 1485.81 Q976.062 1485.39 973.608 1484.54 L973.608 1480.02 Q975.552 1481.16 977.867 1481.74 Q980.182 1482.32 982.705 1482.32 Q987.103 1482.32 989.395 1480.58 Q991.71 1478.84 991.71 1475.53 Q991.71 1472.48 989.557 1470.77 Q987.427 1469.03 983.608 1469.03 L979.58 1469.03 L979.58 1465.19 L983.793 1465.19 Q987.242 1465.19 989.071 1463.82 Q990.9 1462.43 990.9 1459.84 Q990.9 1457.18 989.001 1455.77 Q987.126 1454.33 983.608 1454.33 Q981.687 1454.33 979.488 1454.75 Q977.289 1455.16 974.65 1456.04 L974.65 1451.88 Q977.312 1451.14 979.626 1450.77 Q981.964 1450.39 984.025 1450.39 Q989.349 1450.39 992.45 1452.83 Q995.552 1455.23 995.552 1459.35 Q995.552 1462.22 993.909 1464.21 Q992.265 1466.18 989.233 1466.95 Z" fill="#000000" fill-rule="nonzero" fill-opacity="1" /><path clip-path="url(#clip520)" d="M527.843 1520.52 L568.042 1520.52 L568.042 1525.93 L551.173 1525.93 L551.173 1568.04 L544.712 1568.04 L544.712 1525.93 L527.843 1525.93 L527.843 1520.52 Z" fill="#000000" fill-rule="nonzero" fill-opacity="1" /><path clip-path="url(#clip520)" d="M571.989 1532.4 L577.845 1532.4 L577.845 1568.04 L571.989 1568.04 L571.989 1532.4 M571.989 1518.52 L577.845 1518.52 L577.845 1525.93 L571.989 1525.93 L571.989 1518.52 Z" fill="#000000" fill-rule="nonzero" fill-opacity="1" /><path clip-path="url(#clip520)" d="M617.854 1539.24 Q620.05 1535.29 623.105 1533.41 Q626.161 1531.54 630.299 1531.54 Q635.869 1531.54 638.892 1535.45 Q641.916 1539.33 641.916 1546.53 L641.916 1568.04 L636.028 1568.04 L636.028 1546.72 Q636.028 1541.59 634.214 1539.11 Q632.399 1536.63 628.675 1536.63 Q624.124 1536.63 621.482 1539.65 Q618.84 1542.68 618.84 1547.9 L618.84 1568.04 L612.952 1568.04 L612.952 1546.72 Q612.952 1541.56 611.138 1539.11 Q609.324 1536.63 605.536 1536.63 Q601.048 1536.63 598.406 1539.68 Q595.765 1542.71 595.765 1547.9 L595.765 1568.04 L589.876 1568.04 L589.876 1532.4 L595.765 1532.4 L595.765 1537.93 Q597.77 1534.66 600.571 1533.1 Q603.372 1531.54 607.223 1531.54 Q611.106 1531.54 613.811 1533.51 Q616.549 1535.48 617.854 1539.24 Z" fill="#000000" fill-rule="nonzero" fill-opacity="1" /><path clip-path="url(#clip520)" d="M684.089 1548.76 L684.089 1551.62 L657.162 1551.62 Q657.544 1557.67 660.79 1560.85 Q664.069 1564 669.893 1564 Q673.267 1564 676.418 1563.17 Q679.601 1562.35 682.72 1560.69 L682.72 1566.23 Q679.569 1567.57 676.259 1568.27 Q672.949 1568.97 669.543 1568.97 Q661.013 1568.97 656.016 1564 Q651.051 1559.04 651.051 1550.57 Q651.051 1541.82 655.761 1536.69 Q660.504 1531.54 668.525 1531.54 Q675.718 1531.54 679.888 1536.18 Q684.089 1540.8 684.089 1548.76 M678.232 1547.04 Q678.169 1542.23 675.527 1539.37 Q672.917 1536.5 668.588 1536.5 Q663.687 1536.5 660.727 1539.27 Q657.799 1542.04 657.353 1547.07 L678.232 1547.04 Z" fill="#000000" fill-rule="nonzero" fill-opacity="1" /><path clip-path="url(#clip520)" d="M728.49 1518.58 Q724.225 1525.9 722.156 1533.06 Q720.087 1540.23 720.087 1547.58 Q720.087 1554.93 722.156 1562.16 Q724.256 1569.35 728.49 1576.64 L723.397 1576.64 Q718.623 1569.16 716.236 1561.93 Q713.88 1554.71 713.88 1547.58 Q713.88 1540.48 716.236 1533.29 Q718.591 1526.09 723.397 1518.58 L728.49 1518.58 Z" fill="#000000" fill-rule="nonzero" fill-opacity="1" /><path clip-path="url(#clip520)" d="M762.578 1533.45 L762.578 1538.98 Q760.095 1537.71 757.422 1537.07 Q754.748 1536.44 751.884 1536.44 Q747.523 1536.44 745.327 1537.77 Q743.163 1539.11 743.163 1541.79 Q743.163 1543.82 744.722 1545 Q746.282 1546.15 750.992 1547.2 L752.998 1547.64 Q759.236 1548.98 761.846 1551.43 Q764.488 1553.85 764.488 1558.21 Q764.488 1563.17 760.541 1566.07 Q756.626 1568.97 749.751 1568.97 Q746.887 1568.97 743.767 1568.39 Q740.68 1567.85 737.243 1566.74 L737.243 1560.69 Q740.489 1562.38 743.64 1563.24 Q746.791 1564.07 749.878 1564.07 Q754.016 1564.07 756.244 1562.66 Q758.472 1561.23 758.472 1558.65 Q758.472 1556.27 756.849 1554.99 Q755.257 1553.72 749.815 1552.54 L747.778 1552.07 Q742.335 1550.92 739.916 1548.56 Q737.497 1546.18 737.497 1542.04 Q737.497 1537.01 741.062 1534.27 Q744.627 1531.54 751.183 1531.54 Q754.43 1531.54 757.295 1532.01 Q760.159 1532.49 762.578 1533.45 Z" fill="#000000" fill-rule="nonzero" fill-opacity="1" /><path clip-path="url(#clip520)" d="M772.89 1518.58 L777.983 1518.58 Q782.757 1526.09 785.113 1533.29 Q787.5 1540.48 787.5 1547.58 Q787.5 1554.71 785.113 1561.93 Q782.757 1569.16 777.983 1576.64 L772.89 1576.64 Q777.124 1569.35 779.193 1562.16 Q781.293 1554.93 781.293 1547.58 Q781.293 1540.23 779.193 1533.06 Q777.124 1525.9 772.89 1518.58 Z" fill="#000000" fill-rule="nonzero" fill-opacity="1" /><polyline clip-path="url(#clip522)" style="stroke:#000000; stroke-linecap:round; stroke-linejoin:round; stroke-width:2; stroke-opacity:0.1; fill:none" points="203.964,1381.64 1111.38,1381.64 "/>
<polyline clip-path="url(#clip522)" style="stroke:#000000; stroke-linecap:round; stroke-linejoin:round; stroke-width:2; stroke-opacity:0.1; fill:none" points="203.964,1022.99 1111.38,1022.99 "/>
<polyline clip-path="url(#clip522)" style="stroke:#000000; stroke-linecap:round; stroke-linejoin:round; stroke-width:2; stroke-opacity:0.1; fill:none" points="203.964,664.346 1111.38,664.346 "/>
<polyline clip-path="url(#clip522)" style="stroke:#000000; stroke-linecap:round; stroke-linejoin:round; stroke-width:2; stroke-opacity:0.1; fill:none" points="203.964,305.698 1111.38,305.698 "/>
<polyline clip-path="url(#clip520)" style="stroke:#000000; stroke-linecap:round; stroke-linejoin:round; stroke-width:4; stroke-opacity:1; fill:none" points="203.964,1423.18 203.964,47.2441 "/>
<polyline clip-path="url(#clip520)" style="stroke:#000000; stroke-linecap:round; stroke-linejoin:round; stroke-width:4; stroke-opacity:1; fill:none" points="203.964,1381.64 222.861,1381.64 "/>
<polyline clip-path="url(#clip520)" style="stroke:#000000; stroke-linecap:round; stroke-linejoin:round; stroke-width:4; stroke-opacity:1; fill:none" points="203.964,1022.99 222.861,1022.99 "/>
<polyline clip-path="url(#clip520)" style="stroke:#000000; stroke-linecap:round; stroke-linejoin:round; stroke-width:4; stroke-opacity:1; fill:none" points="203.964,664.346 222.861,664.346 "/>
<polyline clip-path="url(#clip520)" style="stroke:#000000; stroke-linecap:round; stroke-linejoin:round; stroke-width:4; stroke-opacity:1; fill:none" points="203.964,305.698 222.861,305.698 "/>
<path clip-path="url(#clip520)" d="M156.019 1367.44 Q152.408 1367.44 150.579 1371.01 Q148.774 1374.55 148.774 1381.68 Q148.774 1388.78 150.579 1392.35 Q152.408 1395.89 156.019 1395.89 Q159.653 1395.89 161.459 1392.35 Q163.288 1388.78 163.288 1381.68 Q163.288 1374.55 161.459 1371.01 Q159.653 1367.44 156.019 1367.44 M156.019 1363.74 Q161.829 1363.74 164.885 1368.34 Q167.964 1372.93 167.964 1381.68 Q167.964 1390.4 164.885 1395.01 Q161.829 1399.59 156.019 1399.59 Q150.209 1399.59 147.13 1395.01 Q144.075 1390.4 144.075 1381.68 Q144.075 1372.93 147.13 1368.34 Q150.209 1363.74 156.019 1363.74 Z" fill="#000000" fill-rule="nonzero" fill-opacity="1" /><path clip-path="url(#clip520)" d="M116.668 1036.34 L124.306 1036.34 L124.306 1009.97 L115.996 1011.64 L115.996 1007.38 L124.26 1005.71 L128.936 1005.71 L128.936 1036.34 L136.575 1036.34 L136.575 1040.27 L116.668 1040.27 L116.668 1036.34 Z" fill="#000000" fill-rule="nonzero" fill-opacity="1" /><path clip-path="url(#clip520)" d="M156.019 1008.79 Q152.408 1008.79 150.579 1012.36 Q148.774 1015.9 148.774 1023.03 Q148.774 1030.14 150.579 1033.7 Q152.408 1037.24 156.019 1037.24 Q159.653 1037.24 161.459 1033.7 Q163.288 1030.14 163.288 1023.03 Q163.288 1015.9 161.459 1012.36 Q159.653 1008.79 156.019 1008.79 M156.019 1005.09 Q161.829 1005.09 164.885 1009.7 Q167.964 1014.28 167.964 1023.03 Q167.964 1031.76 164.885 1036.36 Q161.829 1040.95 156.019 1040.95 Q150.209 1040.95 147.13 1036.36 Q144.075 1031.76 144.075 1023.03 Q144.075 1014.28 147.13 1009.7 Q150.209 1005.09 156.019 1005.09 Z" fill="#000000" fill-rule="nonzero" fill-opacity="1" /><path clip-path="url(#clip520)" d="M119.885 677.691 L136.204 677.691 L136.204 681.626 L114.26 681.626 L114.26 677.691 Q116.922 674.936 121.505 670.307 Q126.112 665.654 127.292 664.311 Q129.538 661.788 130.417 660.052 Q131.32 658.293 131.32 656.603 Q131.32 653.848 129.376 652.112 Q127.455 650.376 124.353 650.376 Q122.154 650.376 119.7 651.14 Q117.269 651.904 114.492 653.455 L114.492 648.733 Q117.316 647.598 119.769 647.02 Q122.223 646.441 124.26 646.441 Q129.63 646.441 132.825 649.126 Q136.019 651.811 136.019 656.302 Q136.019 658.432 135.209 660.353 Q134.422 662.251 132.316 664.844 Q131.737 665.515 128.635 668.733 Q125.533 671.927 119.885 677.691 Z" fill="#000000" fill-rule="nonzero" fill-opacity="1" /><path clip-path="url(#clip520)" d="M156.019 650.145 Q152.408 650.145 150.579 653.709 Q148.774 657.251 148.774 664.381 Q148.774 671.487 150.579 675.052 Q152.408 678.594 156.019 678.594 Q159.653 678.594 161.459 675.052 Q163.288 671.487 163.288 664.381 Q163.288 657.251 161.459 653.709 Q159.653 650.145 156.019 650.145 M156.019 646.441 Q161.829 646.441 164.885 651.047 Q167.964 655.631 167.964 664.381 Q167.964 673.108 164.885 677.714 Q161.829 682.297 156.019 682.297 Q150.209 682.297 147.13 677.714 Q144.075 673.108 144.075 664.381 Q144.075 655.631 147.13 651.047 Q150.209 646.441 156.019 646.441 Z" fill="#000000" fill-rule="nonzero" fill-opacity="1" /><path clip-path="url(#clip520)" d="M130.024 304.344 Q133.38 305.061 135.255 307.33 Q137.154 309.598 137.154 312.932 Q137.154 318.048 133.635 320.848 Q130.117 323.649 123.635 323.649 Q121.459 323.649 119.144 323.21 Q116.853 322.793 114.399 321.936 L114.399 317.423 Q116.343 318.557 118.658 319.135 Q120.973 319.714 123.496 319.714 Q127.894 319.714 130.186 317.978 Q132.501 316.242 132.501 312.932 Q132.501 309.876 130.348 308.163 Q128.218 306.427 124.399 306.427 L120.371 306.427 L120.371 302.585 L124.584 302.585 Q128.033 302.585 129.862 301.219 Q131.691 299.83 131.691 297.237 Q131.691 294.575 129.792 293.163 Q127.917 291.728 124.399 291.728 Q122.478 291.728 120.279 292.145 Q118.08 292.562 115.441 293.441 L115.441 289.275 Q118.103 288.534 120.418 288.163 Q122.755 287.793 124.816 287.793 Q130.14 287.793 133.242 290.224 Q136.343 292.631 136.343 296.751 Q136.343 299.622 134.7 301.612 Q133.056 303.58 130.024 304.344 Z" fill="#000000" fill-rule="nonzero" fill-opacity="1" /><path clip-path="url(#clip520)" d="M156.019 291.497 Q152.408 291.497 150.579 295.062 Q148.774 298.603 148.774 305.733 Q148.774 312.839 150.579 316.404 Q152.408 319.946 156.019 319.946 Q159.653 319.946 161.459 316.404 Q163.288 312.839 163.288 305.733 Q163.288 298.603 161.459 295.062 Q159.653 291.497 156.019 291.497 M156.019 287.793 Q161.829 287.793 164.885 292.4 Q167.964 296.983 167.964 305.733 Q167.964 314.46 164.885 319.066 Q161.829 323.649 156.019 323.649 Q150.209 323.649 147.13 319.066 Q144.075 314.46 144.075 305.733 Q144.075 296.983 147.13 292.4 Q150.209 287.793 156.019 287.793 Z" fill="#000000" fill-rule="nonzero" fill-opacity="1" /><path clip-path="url(#clip520)" d="M21.7178 734.435 Q22.1687 734.435 23.2315 734.724 L48.4165 741.037 Q54.0203 742.422 57.9494 746.93 Q61.8785 751.407 61.8785 756.496 Q61.8785 759.555 60.236 761.52 Q58.6257 763.484 56.1459 763.484 Q53.9559 763.484 52.8931 762.325 Q51.8625 761.165 51.8625 759.781 Q51.8625 759.33 51.9913 758.847 Q52.1201 758.364 52.6676 757.848 Q53.2151 757.333 54.1491 757.333 Q55.6628 757.333 56.8544 758.653 Q57.4019 759.298 57.5307 759.909 Q57.6596 760.489 57.6596 761.488 Q58.5613 761.101 59.1732 760.393 Q59.7851 759.684 60.0106 758.879 Q60.2682 758.074 60.3326 757.558 Q60.4293 757.011 60.4293 756.496 Q60.4293 752.373 56.2747 749.217 Q55.0187 748.283 53.7626 747.607 Q52.5388 746.898 51.0252 746.383 Q49.5437 745.868 48.7385 745.642 Q47.9334 745.385 46.0977 744.934 Q49.0928 747.929 49.0928 751.6 Q49.0928 753.146 48.6741 754.531 Q48.2554 755.884 47.3859 757.075 Q46.4841 758.267 44.906 758.975 Q43.3279 759.652 41.2346 759.652 Q39.0124 759.652 35.985 758.782 Q32.9577 757.913 27.386 755.819 Q24.2621 754.692 22.7484 754.692 Q22.0077 754.692 21.5568 754.853 Q21.0737 755.014 20.9127 755.336 Q20.7194 755.658 20.6872 755.852 Q20.655 756.013 20.655 756.335 Q20.655 758.235 22.5874 760.006 Q24.5197 761.777 28.8353 763.001 Q29.6405 763.259 29.8337 763.42 Q30.0269 763.581 30.0269 764.064 Q29.9947 764.869 29.3506 764.869 Q29.093 764.869 28.0946 764.579 Q27.064 764.289 25.5503 763.613 Q24.0044 762.905 22.6196 761.938 Q21.2025 760.972 20.2041 759.459 Q19.2058 757.913 19.2058 756.141 Q19.2058 753.726 20.7838 752.244 Q22.3297 750.731 24.6163 750.731 Q25.5503 750.731 26.3877 750.988 Q27.1928 751.214 29.3506 752.051 Q38.0462 755.433 42.2974 755.433 Q43.3279 755.433 44.1975 755.272 Q45.0349 755.079 45.8722 754.66 Q46.6774 754.241 47.1604 753.404 Q47.6113 752.534 47.6113 751.343 Q47.6113 749.829 46.9028 748.412 Q46.1621 746.963 45.1637 746.061 Q44.1653 745.127 43.3279 744.579 Q42.4584 744 42.0075 743.871 L30.1558 740.908 L24.874 739.588 Q22.0077 738.976 21.2991 738.686 Q20.6228 738.299 20.2686 737.623 Q19.9143 736.947 19.9143 736.367 Q19.9143 735.562 20.3974 735.014 Q20.8805 734.435 21.7178 734.435 Z" fill="#000000" fill-rule="nonzero" fill-opacity="1" /><path clip-path="url(#clip520)" d="M53.6652 727.689 L52.2224 727.689 Q52.2224 722.143 49.2691 719.28 Q49.2691 718.491 49.4494 718.355 Q49.6298 718.22 50.4639 718.22 L76.3671 718.22 Q77.7423 718.22 78.1706 717.544 Q78.599 716.867 78.599 713.914 L78.599 712.449 L80.0193 712.449 Q79.884 714.072 79.884 719.933 Q79.884 725.795 80.0193 727.395 L78.599 727.395 L78.599 725.93 Q78.599 723.022 78.1932 722.323 Q77.7648 721.624 76.3671 721.624 L52.4478 721.624 Q53.6652 724.036 53.6652 727.689 Z" fill="#000000" fill-rule="nonzero" fill-opacity="1" /><polyline clip-path="url(#clip522)" style="stroke:#009af9; stroke-linecap:round; stroke-linejoin:round; stroke-width:4; stroke-opacity:1; fill:none" points="229.645,1336.93 254.823,1384.24 280.001,1129.27 305.179,831.556 330.357,536.195 355.535,304.666 380.713,127.285 405.891,105.627 431.069,204.39 456.247,302.375 481.425,410.5 506.603,518.509 531.781,576.692 556.959,596.131 582.137,580.065 607.315,572.009 632.493,496.759 657.671,458.721 682.849,427.877 708.027,442.856 733.205,439.324 758.383,445.627 783.561,498.822 808.739,475.746 833.917,492.728 859.095,460.677 884.273,538.795 909.451,498.808 934.629,462.771 959.807,486.022 984.985,467.199 1010.16,484.784 1035.34,442.099 1060.52,478.705 1085.7,503.3 "/>
<polyline clip-path="url(#clip522)" style="stroke:#e26f46; stroke-linecap:round; stroke-linejoin:round; stroke-width:3; stroke-opacity:1; fill:none" stroke-dasharray="12, 6, 2, 6" points="229.645,1381.64 254.823,1336.94 280.001,1186.39 305.179,724.416 330.357,484.124 355.535,282.481 380.713,168.656 405.891,86.1857 431.069,178.194 456.247,355.594 481.425,451.619 506.603,534.579 531.781,608.229 556.959,613.154 582.137,588.564 607.315,542.584 632.493,534.519 657.671,438.184 682.849,422.241 708.027,410.353 733.205,455.348 758.383,451.737 783.561,460.188 808.739,530.755 833.917,474.005 859.095,497.34 884.273,445.738 909.451,566.638 934.629,483.714 959.807,439.038 984.985,489.918 1010.16,461.413 1035.34,492.527 1060.52,427.532 1085.7,493.842 "/>
<path clip-path="url(#clip520)" d="M961.561 248.629 L1081.13 248.629 L1081.13 93.1086 L961.561 93.1086  Z" fill="#ffffff" fill-rule="evenodd" fill-opacity="1"/>
<polyline clip-path="url(#clip520)" style="stroke:#000000; stroke-linecap:round; stroke-linejoin:round; stroke-width:4; stroke-opacity:1; fill:none" points="961.561,248.629 1081.13,248.629 1081.13,93.1086 961.561,93.1086 961.561,248.629 "/>
<polyline clip-path="url(#clip520)" style="stroke:#009af9; stroke-linecap:round; stroke-linejoin:round; stroke-width:4; stroke-opacity:1; fill:none" points="971.643,144.949 1032.14,144.949 "/>
<path clip-path="url(#clip520)" d="M1068.99 131.687 Q1067.52 131.687 1066.77 131.828 Q1066.02 131.945 1065.83 132.109 Q1065.64 132.273 1065.43 132.695 L1055.13 154.618 Q1054.02 156.96 1051.96 158.647 Q1049.93 160.333 1047.35 160.333 Q1045.19 160.333 1043.7 159.021 Q1042.22 157.733 1042.22 155.906 Q1042.22 154.595 1043.04 153.845 Q1043.86 153.119 1044.96 153.119 Q1046.18 153.119 1046.95 153.892 Q1047.75 154.665 1047.75 155.859 Q1047.75 156.632 1047.42 157.218 Q1047.09 157.827 1046.79 158.038 Q1046.51 158.272 1046.2 158.412 Q1046.69 158.6 1047.35 158.6 Q1048.33 158.6 1049.18 158.202 Q1050.04 157.827 1050.61 157.312 Q1051.19 156.82 1051.78 155.93 Q1052.36 155.063 1052.64 154.501 Q1052.92 153.962 1053.35 153.025 L1054.45 150.73 L1045.48 131.687 L1042.41 131.687 L1042.41 129.439 L1047.89 129.579 L1053.84 129.439 L1053.84 131.687 L1051.24 131.687 L1057.33 144.64 L1062.86 132.835 L1063.09 132.273 Q1063.09 132.015 1062.53 131.875 Q1061.97 131.711 1061.4 131.711 L1060.84 131.687 L1060.84 129.439 L1065.2 129.579 Q1067.26 129.579 1068.99 129.439 L1068.99 131.687 Z" fill="#000000" fill-rule="nonzero" fill-opacity="1" /><polyline clip-path="url(#clip520)" style="stroke:#e26f46; stroke-linecap:round; stroke-linejoin:round; stroke-width:3; stroke-opacity:1; fill:none" stroke-dasharray="12, 6, 2, 6" points="971.643,196.789 1032.14,196.789 "/>
<path clip-path="url(#clip520)" d="M1064.81 180.509 L1064.4 181.181 Q1061.85 180.083 1058.69 178.328 Q1055.53 180.083 1052.98 181.181 L1052.59 180.509 Q1055.36 178.099 1058.69 176.246 Q1062.05 178.115 1064.81 180.509 Z" fill="#000000" fill-rule="nonzero" fill-opacity="1" /><path clip-path="url(#clip520)" d="M1068.99 188.532 Q1067.52 188.532 1066.77 188.672 Q1066.02 188.79 1065.83 188.954 Q1065.64 189.118 1065.43 189.539 L1055.13 211.463 Q1054.02 213.805 1051.96 215.491 Q1049.93 217.178 1047.35 217.178 Q1045.19 217.178 1043.7 215.866 Q1042.22 214.578 1042.22 212.751 Q1042.22 211.439 1043.04 210.69 Q1043.86 209.963 1044.96 209.963 Q1046.18 209.963 1046.95 210.736 Q1047.75 211.509 1047.75 212.704 Q1047.75 213.477 1047.42 214.062 Q1047.09 214.671 1046.79 214.882 Q1046.51 215.116 1046.2 215.257 Q1046.69 215.444 1047.35 215.444 Q1048.33 215.444 1049.18 215.046 Q1050.04 214.671 1050.61 214.156 Q1051.19 213.664 1051.78 212.774 Q1052.36 211.908 1052.64 211.345 Q1052.92 210.807 1053.35 209.87 L1054.45 207.574 L1045.48 188.532 L1042.41 188.532 L1042.41 186.283 L1047.89 186.424 L1053.84 186.283 L1053.84 188.532 L1051.24 188.532 L1057.33 201.485 L1062.86 189.68 L1063.09 189.118 Q1063.09 188.86 1062.53 188.719 Q1061.97 188.555 1061.4 188.555 L1060.84 188.532 L1060.84 186.283 L1065.2 186.424 Q1067.26 186.424 1068.99 186.283 L1068.99 188.532 Z" fill="#000000" fill-rule="nonzero" fill-opacity="1" /><path clip-path="url(#clip520)" d="M1445.34 398.692 L2352.76 398.692 L2352.76 47.2441 L1445.34 47.2441  Z" fill="#ffffff" fill-rule="evenodd" fill-opacity="1"/>
<defs>
  <clipPath id="clip523">
    <rect x="1445" y="47" width="908" height="352"/>
  </clipPath>
</defs>
<polyline clip-path="url(#clip523)" style="stroke:#000000; stroke-linecap:round; stroke-linejoin:round; stroke-width:2; stroke-opacity:0.1; fill:none" points="1471.02,398.692 1471.02,47.2441 "/>
<polyline clip-path="url(#clip523)" style="stroke:#000000; stroke-linecap:round; stroke-linejoin:round; stroke-width:2; stroke-opacity:0.1; fill:none" points="1722.8,398.692 1722.8,47.2441 "/>
<polyline clip-path="url(#clip523)" style="stroke:#000000; stroke-linecap:round; stroke-linejoin:round; stroke-width:2; stroke-opacity:0.1; fill:none" points="1974.58,398.692 1974.58,47.2441 "/>
<polyline clip-path="url(#clip523)" style="stroke:#000000; stroke-linecap:round; stroke-linejoin:round; stroke-width:2; stroke-opacity:0.1; fill:none" points="2226.36,398.692 2226.36,47.2441 "/>
<polyline clip-path="url(#clip520)" style="stroke:#000000; stroke-linecap:round; stroke-linejoin:round; stroke-width:4; stroke-opacity:1; fill:none" points="1445.34,398.692 2352.76,398.692 "/>
<polyline clip-path="url(#clip520)" style="stroke:#000000; stroke-linecap:round; stroke-linejoin:round; stroke-width:4; stroke-opacity:1; fill:none" points="1471.02,398.692 1471.02,379.794 "/>
<polyline clip-path="url(#clip520)" style="stroke:#000000; stroke-linecap:round; stroke-linejoin:round; stroke-width:4; stroke-opacity:1; fill:none" points="1722.8,398.692 1722.8,379.794 "/>
<polyline clip-path="url(#clip520)" style="stroke:#000000; stroke-linecap:round; stroke-linejoin:round; stroke-width:4; stroke-opacity:1; fill:none" points="1974.58,398.692 1974.58,379.794 "/>
<polyline clip-path="url(#clip520)" style="stroke:#000000; stroke-linecap:round; stroke-linejoin:round; stroke-width:4; stroke-opacity:1; fill:none" points="2226.36,398.692 2226.36,379.794 "/>
<path clip-path="url(#clip520)" d="M1471.02 429.611 Q1467.41 429.611 1465.58 433.175 Q1463.78 436.717 1463.78 443.847 Q1463.78 450.953 1465.58 454.518 Q1467.41 458.059 1471.02 458.059 Q1474.66 458.059 1476.46 454.518 Q1478.29 450.953 1478.29 443.847 Q1478.29 436.717 1476.46 433.175 Q1474.66 429.611 1471.02 429.611 M1471.02 425.907 Q1476.83 425.907 1479.89 430.513 Q1482.97 435.097 1482.97 443.847 Q1482.97 452.573 1479.89 457.18 Q1476.83 461.763 1471.02 461.763 Q1465.21 461.763 1462.13 457.18 Q1459.08 452.573 1459.08 443.847 Q1459.08 435.097 1462.13 430.513 Q1465.21 425.907 1471.02 425.907 Z" fill="#000000" fill-rule="nonzero" fill-opacity="1" /><path clip-path="url(#clip520)" d="M1713.18 457.157 L1720.82 457.157 L1720.82 430.791 L1712.51 432.458 L1712.51 428.199 L1720.78 426.532 L1725.45 426.532 L1725.45 457.157 L1733.09 457.157 L1733.09 461.092 L1713.18 461.092 L1713.18 457.157 Z" fill="#000000" fill-rule="nonzero" fill-opacity="1" /><path clip-path="url(#clip520)" d="M1969.24 457.157 L1985.55 457.157 L1985.55 461.092 L1963.61 461.092 L1963.61 457.157 Q1966.27 454.402 1970.86 449.772 Q1975.46 445.12 1976.64 443.777 Q1978.89 441.254 1979.77 439.518 Q1980.67 437.759 1980.67 436.069 Q1980.67 433.314 1978.73 431.578 Q1976.8 429.842 1973.7 429.842 Q1971.5 429.842 1969.05 430.606 Q1966.62 431.37 1963.84 432.921 L1963.84 428.199 Q1966.67 427.064 1969.12 426.486 Q1971.57 425.907 1973.61 425.907 Q1978.98 425.907 1982.17 428.592 Q1985.37 431.277 1985.37 435.768 Q1985.37 437.898 1984.56 439.819 Q1983.77 441.717 1981.67 444.31 Q1981.09 444.981 1977.99 448.198 Q1974.88 451.393 1969.24 457.157 Z" fill="#000000" fill-rule="nonzero" fill-opacity="1" /><path clip-path="url(#clip520)" d="M2230.61 442.458 Q2233.97 443.175 2235.84 445.444 Q2237.74 447.712 2237.74 451.046 Q2237.74 456.161 2234.22 458.962 Q2230.7 461.763 2224.22 461.763 Q2222.05 461.763 2219.73 461.323 Q2217.44 460.907 2214.99 460.05 L2214.99 455.536 Q2216.93 456.671 2219.24 457.249 Q2221.56 457.828 2224.08 457.828 Q2228.48 457.828 2230.77 456.092 Q2233.09 454.356 2233.09 451.046 Q2233.09 447.99 2230.93 446.277 Q2228.8 444.541 2224.99 444.541 L2220.96 444.541 L2220.96 440.698 L2225.17 440.698 Q2228.62 440.698 2230.45 439.333 Q2232.28 437.944 2232.28 435.351 Q2232.28 432.689 2230.38 431.277 Q2228.5 429.842 2224.99 429.842 Q2223.06 429.842 2220.86 430.259 Q2218.67 430.675 2216.03 431.555 L2216.03 427.388 Q2218.69 426.648 2221 426.277 Q2223.34 425.907 2225.4 425.907 Q2230.73 425.907 2233.83 428.337 Q2236.93 430.745 2236.93 434.865 Q2236.93 437.736 2235.29 439.726 Q2233.64 441.694 2230.61 442.458 Z" fill="#000000" fill-rule="nonzero" fill-opacity="1" /><polyline clip-path="url(#clip523)" style="stroke:#000000; stroke-linecap:round; stroke-linejoin:round; stroke-width:2; stroke-opacity:0.1; fill:none" points="1445.34,388.745 2352.76,388.745 "/>
<polyline clip-path="url(#clip523)" style="stroke:#000000; stroke-linecap:round; stroke-linejoin:round; stroke-width:2; stroke-opacity:0.1; fill:none" points="1445.34,336.153 2352.76,336.153 "/>
<polyline clip-path="url(#clip523)" style="stroke:#000000; stroke-linecap:round; stroke-linejoin:round; stroke-width:2; stroke-opacity:0.1; fill:none" points="1445.34,283.56 2352.76,283.56 "/>
<polyline clip-path="url(#clip523)" style="stroke:#000000; stroke-linecap:round; stroke-linejoin:round; stroke-width:2; stroke-opacity:0.1; fill:none" points="1445.34,230.968 2352.76,230.968 "/>
<polyline clip-path="url(#clip523)" style="stroke:#000000; stroke-linecap:round; stroke-linejoin:round; stroke-width:2; stroke-opacity:0.1; fill:none" points="1445.34,178.376 2352.76,178.376 "/>
<polyline clip-path="url(#clip523)" style="stroke:#000000; stroke-linecap:round; stroke-linejoin:round; stroke-width:2; stroke-opacity:0.1; fill:none" points="1445.34,125.783 2352.76,125.783 "/>
<polyline clip-path="url(#clip523)" style="stroke:#000000; stroke-linecap:round; stroke-linejoin:round; stroke-width:2; stroke-opacity:0.1; fill:none" points="1445.34,73.1907 2352.76,73.1907 "/>
<polyline clip-path="url(#clip520)" style="stroke:#000000; stroke-linecap:round; stroke-linejoin:round; stroke-width:4; stroke-opacity:1; fill:none" points="1445.34,398.692 1445.34,47.2441 "/>
<polyline clip-path="url(#clip520)" style="stroke:#000000; stroke-linecap:round; stroke-linejoin:round; stroke-width:4; stroke-opacity:1; fill:none" points="1445.34,388.745 1464.24,388.745 "/>
<polyline clip-path="url(#clip520)" style="stroke:#000000; stroke-linecap:round; stroke-linejoin:round; stroke-width:4; stroke-opacity:1; fill:none" points="1445.34,336.153 1464.24,336.153 "/>
<polyline clip-path="url(#clip520)" style="stroke:#000000; stroke-linecap:round; stroke-linejoin:round; stroke-width:4; stroke-opacity:1; fill:none" points="1445.34,283.56 1464.24,283.56 "/>
<polyline clip-path="url(#clip520)" style="stroke:#000000; stroke-linecap:round; stroke-linejoin:round; stroke-width:4; stroke-opacity:1; fill:none" points="1445.34,230.968 1464.24,230.968 "/>
<polyline clip-path="url(#clip520)" style="stroke:#000000; stroke-linecap:round; stroke-linejoin:round; stroke-width:4; stroke-opacity:1; fill:none" points="1445.34,178.376 1464.24,178.376 "/>
<polyline clip-path="url(#clip520)" style="stroke:#000000; stroke-linecap:round; stroke-linejoin:round; stroke-width:4; stroke-opacity:1; fill:none" points="1445.34,125.783 1464.24,125.783 "/>
<polyline clip-path="url(#clip520)" style="stroke:#000000; stroke-linecap:round; stroke-linejoin:round; stroke-width:4; stroke-opacity:1; fill:none" points="1445.34,73.1907 1464.24,73.1907 "/>
<path clip-path="url(#clip520)" d="M1352.17 374.544 Q1348.55 374.544 1346.73 378.109 Q1344.92 381.65 1344.92 388.78 Q1344.92 395.886 1346.73 399.451 Q1348.55 402.993 1352.17 402.993 Q1355.8 402.993 1357.6 399.451 Q1359.43 395.886 1359.43 388.78 Q1359.43 381.65 1357.6 378.109 Q1355.8 374.544 1352.17 374.544 M1352.17 370.84 Q1357.98 370.84 1361.03 375.447 Q1364.11 380.03 1364.11 388.78 Q1364.11 397.507 1361.03 402.113 Q1357.98 406.697 1352.17 406.697 Q1346.35 406.697 1343.28 402.113 Q1340.22 397.507 1340.22 388.78 Q1340.22 380.03 1343.28 375.447 Q1346.35 370.84 1352.17 370.84 Z" fill="#000000" fill-rule="nonzero" fill-opacity="1" /><path clip-path="url(#clip520)" d="M1372.33 400.146 L1377.21 400.146 L1377.21 406.025 L1372.33 406.025 L1372.33 400.146 Z" fill="#000000" fill-rule="nonzero" fill-opacity="1" /><path clip-path="url(#clip520)" d="M1397.4 374.544 Q1393.79 374.544 1391.96 378.109 Q1390.15 381.65 1390.15 388.78 Q1390.15 395.886 1391.96 399.451 Q1393.79 402.993 1397.4 402.993 Q1401.03 402.993 1402.84 399.451 Q1404.66 395.886 1404.66 388.78 Q1404.66 381.65 1402.84 378.109 Q1401.03 374.544 1397.4 374.544 M1397.4 370.84 Q1403.21 370.84 1406.26 375.447 Q1409.34 380.03 1409.34 388.78 Q1409.34 397.507 1406.26 402.113 Q1403.21 406.697 1397.4 406.697 Q1391.59 406.697 1388.51 402.113 Q1385.45 397.507 1385.45 388.78 Q1385.45 380.03 1388.51 375.447 Q1391.59 370.84 1397.4 370.84 Z" fill="#000000" fill-rule="nonzero" fill-opacity="1" /><path clip-path="url(#clip520)" d="M1353.39 321.951 Q1349.78 321.951 1347.95 325.516 Q1346.15 329.058 1346.15 336.188 Q1346.15 343.294 1347.95 346.859 Q1349.78 350.4 1353.39 350.4 Q1357.03 350.4 1358.83 346.859 Q1360.66 343.294 1360.66 336.188 Q1360.66 329.058 1358.83 325.516 Q1357.03 321.951 1353.39 321.951 M1353.39 318.248 Q1359.2 318.248 1362.26 322.854 Q1365.34 327.438 1365.34 336.188 Q1365.34 344.914 1362.26 349.521 Q1359.2 354.104 1353.39 354.104 Q1347.58 354.104 1344.5 349.521 Q1341.45 344.914 1341.45 336.188 Q1341.45 327.438 1344.5 322.854 Q1347.58 318.248 1353.39 318.248 Z" fill="#000000" fill-rule="nonzero" fill-opacity="1" /><path clip-path="url(#clip520)" d="M1373.55 347.553 L1378.44 347.553 L1378.44 353.433 L1373.55 353.433 L1373.55 347.553 Z" fill="#000000" fill-rule="nonzero" fill-opacity="1" /><path clip-path="url(#clip520)" d="M1389.43 349.498 L1397.07 349.498 L1397.07 323.132 L1388.76 324.799 L1388.76 320.539 L1397.03 318.873 L1401.7 318.873 L1401.7 349.498 L1409.34 349.498 L1409.34 353.433 L1389.43 353.433 L1389.43 349.498 Z" fill="#000000" fill-rule="nonzero" fill-opacity="1" /><path clip-path="url(#clip520)" d="M1353.76 269.359 Q1350.15 269.359 1348.32 272.924 Q1346.52 276.466 1346.52 283.595 Q1346.52 290.702 1348.32 294.266 Q1350.15 297.808 1353.76 297.808 Q1357.4 297.808 1359.2 294.266 Q1361.03 290.702 1361.03 283.595 Q1361.03 276.466 1359.2 272.924 Q1357.4 269.359 1353.76 269.359 M1353.76 265.655 Q1359.57 265.655 1362.63 270.262 Q1365.71 274.845 1365.71 283.595 Q1365.71 292.322 1362.63 296.928 Q1359.57 301.512 1353.76 301.512 Q1347.95 301.512 1344.87 296.928 Q1341.82 292.322 1341.82 283.595 Q1341.82 274.845 1344.87 270.262 Q1347.95 265.655 1353.76 265.655 Z" fill="#000000" fill-rule="nonzero" fill-opacity="1" /><path clip-path="url(#clip520)" d="M1373.92 294.961 L1378.81 294.961 L1378.81 300.84 L1373.92 300.84 L1373.92 294.961 Z" fill="#000000" fill-rule="nonzero" fill-opacity="1" /><path clip-path="url(#clip520)" d="M1393.02 296.905 L1409.34 296.905 L1409.34 300.84 L1387.4 300.84 L1387.4 296.905 Q1390.06 294.151 1394.64 289.521 Q1399.25 284.868 1400.43 283.526 Q1402.67 281.003 1403.55 279.266 Q1404.46 277.507 1404.46 275.817 Q1404.46 273.063 1402.51 271.327 Q1400.59 269.591 1397.49 269.591 Q1395.29 269.591 1392.84 270.354 Q1390.41 271.118 1387.63 272.669 L1387.63 267.947 Q1390.45 266.813 1392.91 266.234 Q1395.36 265.655 1397.4 265.655 Q1402.77 265.655 1405.96 268.341 Q1409.16 271.026 1409.16 275.516 Q1409.16 277.646 1408.35 279.567 Q1407.56 281.465 1405.45 284.058 Q1404.87 284.729 1401.77 287.947 Q1398.67 291.141 1393.02 296.905 Z" fill="#000000" fill-rule="nonzero" fill-opacity="1" /><path clip-path="url(#clip520)" d="M1352.81 216.767 Q1349.2 216.767 1347.37 220.331 Q1345.57 223.873 1345.57 231.003 Q1345.57 238.109 1347.37 241.674 Q1349.2 245.216 1352.81 245.216 Q1356.45 245.216 1358.25 241.674 Q1360.08 238.109 1360.08 231.003 Q1360.08 223.873 1358.25 220.331 Q1356.45 216.767 1352.81 216.767 M1352.81 213.063 Q1358.62 213.063 1361.68 217.669 Q1364.76 222.253 1364.76 231.003 Q1364.76 239.729 1361.68 244.336 Q1358.62 248.919 1352.81 248.919 Q1347 248.919 1343.92 244.336 Q1340.87 239.729 1340.87 231.003 Q1340.87 222.253 1343.92 217.669 Q1347 213.063 1352.81 213.063 Z" fill="#000000" fill-rule="nonzero" fill-opacity="1" /><path clip-path="url(#clip520)" d="M1372.98 242.368 L1377.86 242.368 L1377.86 248.248 L1372.98 248.248 L1372.98 242.368 Z" fill="#000000" fill-rule="nonzero" fill-opacity="1" /><path clip-path="url(#clip520)" d="M1402.21 229.614 Q1405.57 230.331 1407.44 232.6 Q1409.34 234.868 1409.34 238.202 Q1409.34 243.317 1405.82 246.118 Q1402.3 248.919 1395.82 248.919 Q1393.65 248.919 1391.33 248.479 Q1389.04 248.063 1386.59 247.206 L1386.59 242.692 Q1388.53 243.827 1390.85 244.405 Q1393.16 244.984 1395.68 244.984 Q1400.08 244.984 1402.37 243.248 Q1404.69 241.512 1404.69 238.202 Q1404.69 235.146 1402.54 233.433 Q1400.41 231.697 1396.59 231.697 L1392.56 231.697 L1392.56 227.855 L1396.77 227.855 Q1400.22 227.855 1402.05 226.489 Q1403.88 225.1 1403.88 222.507 Q1403.88 219.845 1401.98 218.433 Q1400.1 216.998 1396.59 216.998 Q1394.66 216.998 1392.47 217.415 Q1390.27 217.831 1387.63 218.711 L1387.63 214.544 Q1390.29 213.804 1392.6 213.433 Q1394.94 213.063 1397 213.063 Q1402.33 213.063 1405.43 215.494 Q1408.53 217.901 1408.53 222.021 Q1408.53 224.892 1406.89 226.882 Q1405.24 228.85 1402.21 229.614 Z" fill="#000000" fill-rule="nonzero" fill-opacity="1" /><path clip-path="url(#clip520)" d="M1351.68 164.174 Q1348.07 164.174 1346.24 167.739 Q1344.43 171.281 1344.43 178.41 Q1344.43 185.517 1346.24 189.082 Q1348.07 192.623 1351.68 192.623 Q1355.31 192.623 1357.12 189.082 Q1358.95 185.517 1358.95 178.41 Q1358.95 171.281 1357.12 167.739 Q1355.31 164.174 1351.68 164.174 M1351.68 160.471 Q1357.49 160.471 1360.54 165.077 Q1363.62 169.66 1363.62 178.41 Q1363.62 187.137 1360.54 191.744 Q1357.49 196.327 1351.68 196.327 Q1345.87 196.327 1342.79 191.744 Q1339.73 187.137 1339.73 178.41 Q1339.73 169.66 1342.79 165.077 Q1345.87 160.471 1351.68 160.471 Z" fill="#000000" fill-rule="nonzero" fill-opacity="1" /><path clip-path="url(#clip520)" d="M1371.84 189.776 L1376.73 189.776 L1376.73 195.656 L1371.84 195.656 L1371.84 189.776 Z" fill="#000000" fill-rule="nonzero" fill-opacity="1" /><path clip-path="url(#clip520)" d="M1399.76 165.17 L1387.95 183.619 L1399.76 183.619 L1399.76 165.17 M1398.53 161.096 L1404.41 161.096 L1404.41 183.619 L1409.34 183.619 L1409.34 187.507 L1404.41 187.507 L1404.41 195.656 L1399.76 195.656 L1399.76 187.507 L1384.16 187.507 L1384.16 182.994 L1398.53 161.096 Z" fill="#000000" fill-rule="nonzero" fill-opacity="1" /><path clip-path="url(#clip520)" d="M1353.16 111.582 Q1349.55 111.582 1347.72 115.147 Q1345.92 118.688 1345.92 125.818 Q1345.92 132.924 1347.72 136.489 Q1349.55 140.031 1353.16 140.031 Q1356.79 140.031 1358.6 136.489 Q1360.43 132.924 1360.43 125.818 Q1360.43 118.688 1358.6 115.147 Q1356.79 111.582 1353.16 111.582 M1353.16 107.878 Q1358.97 107.878 1362.03 112.485 Q1365.1 117.068 1365.1 125.818 Q1365.1 134.545 1362.03 139.151 Q1358.97 143.734 1353.16 143.734 Q1347.35 143.734 1344.27 139.151 Q1341.22 134.545 1341.22 125.818 Q1341.22 117.068 1344.27 112.485 Q1347.35 107.878 1353.16 107.878 Z" fill="#000000" fill-rule="nonzero" fill-opacity="1" /><path clip-path="url(#clip520)" d="M1373.32 137.184 L1378.21 137.184 L1378.21 143.063 L1373.32 143.063 L1373.32 137.184 Z" fill="#000000" fill-rule="nonzero" fill-opacity="1" /><path clip-path="url(#clip520)" d="M1388.44 108.503 L1406.79 108.503 L1406.79 112.438 L1392.72 112.438 L1392.72 120.91 Q1393.74 120.563 1394.76 120.401 Q1395.78 120.216 1396.79 120.216 Q1402.58 120.216 1405.96 123.387 Q1409.34 126.559 1409.34 131.975 Q1409.34 137.554 1405.87 140.656 Q1402.4 143.734 1396.08 143.734 Q1393.9 143.734 1391.63 143.364 Q1389.39 142.994 1386.98 142.253 L1386.98 137.554 Q1389.06 138.688 1391.29 139.244 Q1393.51 139.799 1395.98 139.799 Q1399.99 139.799 1402.33 137.693 Q1404.66 135.586 1404.66 131.975 Q1404.66 128.364 1402.33 126.258 Q1399.99 124.151 1395.98 124.151 Q1394.11 124.151 1392.23 124.568 Q1390.38 124.985 1388.44 125.864 L1388.44 108.503 Z" fill="#000000" fill-rule="nonzero" fill-opacity="1" /><path clip-path="url(#clip520)" d="M1352 58.9894 Q1348.39 58.9894 1346.56 62.5542 Q1344.76 66.0958 1344.76 73.2254 Q1344.76 80.3319 1346.56 83.8967 Q1348.39 87.4383 1352 87.4383 Q1355.64 87.4383 1357.44 83.8967 Q1359.27 80.3319 1359.27 73.2254 Q1359.27 66.0958 1357.44 62.5542 Q1355.64 58.9894 1352 58.9894 M1352 55.2857 Q1357.81 55.2857 1360.87 59.8922 Q1363.95 64.4755 1363.95 73.2254 Q1363.95 81.9522 1360.87 86.5587 Q1357.81 91.142 1352 91.142 Q1346.19 91.142 1343.11 86.5587 Q1340.06 81.9522 1340.06 73.2254 Q1340.06 64.4755 1343.11 59.8922 Q1346.19 55.2857 1352 55.2857 Z" fill="#000000" fill-rule="nonzero" fill-opacity="1" /><path clip-path="url(#clip520)" d="M1372.16 84.5911 L1377.05 84.5911 L1377.05 90.4707 L1372.16 90.4707 L1372.16 84.5911 Z" fill="#000000" fill-rule="nonzero" fill-opacity="1" /><path clip-path="url(#clip520)" d="M1397.81 71.3273 Q1394.66 71.3273 1392.81 73.48 Q1390.98 75.6328 1390.98 79.3828 Q1390.98 83.1096 1392.81 85.2855 Q1394.66 87.4383 1397.81 87.4383 Q1400.96 87.4383 1402.79 85.2855 Q1404.64 83.1096 1404.64 79.3828 Q1404.64 75.6328 1402.79 73.48 Q1400.96 71.3273 1397.81 71.3273 M1407.1 56.6746 L1407.1 60.9338 Q1405.34 60.1005 1403.53 59.6607 Q1401.75 59.2209 1399.99 59.2209 Q1395.36 59.2209 1392.91 62.3459 Q1390.48 65.4708 1390.13 71.7902 Q1391.49 69.7764 1393.55 68.7116 Q1395.61 67.6236 1398.09 67.6236 Q1403.3 67.6236 1406.31 70.7949 Q1409.34 73.943 1409.34 79.3828 Q1409.34 84.7068 1406.19 87.9244 Q1403.04 91.142 1397.81 91.142 Q1391.82 91.142 1388.65 86.5587 Q1385.48 81.9522 1385.48 73.2254 Q1385.48 65.031 1389.36 60.1699 Q1393.25 55.2857 1399.8 55.2857 Q1401.56 55.2857 1403.35 55.6329 Q1405.15 55.9801 1407.1 56.6746 Z" fill="#000000" fill-rule="nonzero" fill-opacity="1" /><path clip-path="url(#clip520)" d="M1255.36 220.971 Q1257.16 220.971 1258.19 222.098 Q1259.19 223.225 1259.19 224.513 Q1259.19 225.737 1258.48 226.381 Q1257.77 227.025 1256.87 227.025 Q1255.65 227.025 1254.58 226.123 Q1253.52 225.222 1253.29 223.869 Q1252.46 225.189 1252.46 227.154 Q1252.46 228.442 1253.13 229.569 Q1253.81 230.664 1254.68 231.341 Q1255.55 231.985 1256.81 232.565 Q1258.03 233.112 1258.77 233.338 Q1259.48 233.531 1260.25 233.692 L1269.27 235.946 Q1273.55 237.041 1275.07 237.041 Q1276.93 237.041 1278.19 236.139 Q1279.41 235.238 1279.41 233.434 Q1279.41 232.726 1279.22 231.92 Q1279 231.115 1278.42 230.085 Q1277.8 229.022 1276.9 228.088 Q1275.97 227.122 1274.39 226.188 Q1272.81 225.254 1270.78 224.642 Q1270.07 224.449 1270.07 223.805 Q1270.07 222.999 1270.72 222.999 Q1271.27 222.999 1272.43 223.45 Q1273.55 223.869 1275.03 224.803 Q1276.48 225.705 1277.8 226.896 Q1279.09 228.088 1279.99 229.859 Q1280.9 231.631 1280.9 233.563 Q1280.9 236.333 1279.41 238.168 Q1277.93 240.004 1275.87 240.68 Q1276.16 240.842 1276.55 241.067 Q1276.93 241.292 1277.8 241.969 Q1278.64 242.613 1279.29 243.354 Q1279.9 244.094 1280.38 245.254 Q1280.9 246.381 1280.9 247.605 Q1280.9 249.151 1280.44 250.535 Q1279.99 251.888 1278.96 252.854 Q1277.93 253.82 1276.52 253.82 Q1274.94 253.82 1273.84 252.758 Q1272.72 251.663 1272.72 250.181 Q1272.72 249.247 1273.26 248.507 Q1273.81 247.734 1275 247.734 Q1276.32 247.734 1277.32 248.635 Q1278.32 249.537 1278.58 250.825 Q1279.41 249.505 1279.41 247.54 Q1279.41 245.415 1277.55 243.74 Q1275.68 242.065 1272.55 241.26 Q1265.05 239.263 1261.7 238.49 Q1258.32 237.718 1256.87 237.718 Q1255.52 237.718 1254.58 238.072 Q1253.65 238.426 1253.23 239.038 Q1252.78 239.618 1252.62 240.165 Q1252.46 240.68 1252.46 241.26 Q1252.46 242.226 1252.84 243.321 Q1253.23 244.384 1254.13 245.672 Q1255 246.928 1256.81 248.12 Q1258.61 249.312 1261.09 250.117 Q1261.83 250.278 1261.83 250.986 Q1261.8 251.759 1261.15 251.759 Q1260.61 251.759 1259.48 251.341 Q1258.32 250.89 1256.87 249.988 Q1255.42 249.054 1254.13 247.862 Q1252.81 246.639 1251.91 244.867 Q1251.01 243.064 1251.01 241.131 Q1251.01 240.262 1251.2 239.424 Q1251.36 238.555 1251.85 237.524 Q1252.33 236.462 1253.39 235.528 Q1254.45 234.594 1256 234.014 Q1255.26 233.627 1254.55 233.112 Q1253.84 232.565 1252.97 231.727 Q1252.07 230.858 1251.56 229.666 Q1251.01 228.442 1251.01 227.09 Q1251.01 225.769 1251.36 224.481 Q1251.68 223.193 1252.75 222.098 Q1253.78 220.971 1255.36 220.971 Z" fill="#000000" fill-rule="nonzero" fill-opacity="1" /><path clip-path="url(#clip520)" d="M1272.81 214.249 L1271.37 214.249 Q1271.37 208.703 1268.42 205.84 Q1268.42 205.051 1268.6 204.916 Q1268.78 204.781 1269.61 204.781 L1295.51 204.781 Q1296.89 204.781 1297.32 204.104 Q1297.75 203.428 1297.75 200.475 L1297.75 199.009 L1299.17 199.009 Q1299.03 200.633 1299.03 206.494 Q1299.03 212.356 1299.17 213.956 L1297.75 213.956 L1297.75 212.491 Q1297.75 209.583 1297.34 208.884 Q1296.91 208.185 1295.51 208.185 L1271.59 208.185 Q1272.81 210.597 1272.81 214.249 Z" fill="#000000" fill-rule="nonzero" fill-opacity="1" /><polyline clip-path="url(#clip523)" style="stroke:#009af9; stroke-linecap:round; stroke-linejoin:round; stroke-width:4; stroke-opacity:1; fill:none" points="1471.02,388.745 1496.2,388.745 1521.38,333.961 1546.56,251.786 1571.73,169.312 1596.91,106.468 1622.09,72.4776 1647.27,66.5834 1672.45,81.7516 1697.62,108.637 1722.8,138.311 1747.98,163.791 1773.16,180.812 1798.34,187.987 1823.51,186.417 1848.69,178.849 1873.87,168.637 1899.05,158.818 1924.23,151.491 1949.4,147.598 1974.58,147.044 1999.76,149.015 2024.94,152.371 2050.12,155.987 2075.29,158.992 2100.47,160.893 2125.65,161.576 2150.83,161.228 2176.01,160.212 2201.18,158.939 2226.36,157.764 2251.54,156.921 2276.72,156.504 2301.9,156.487 2327.07,156.763 "/>
<polyline clip-path="url(#clip523)" style="stroke:#e26f46; stroke-linecap:round; stroke-linejoin:round; stroke-width:3; stroke-opacity:1; fill:none" stroke-dasharray="12, 6, 2, 6" points="1471.02,388.745 1496.2,377.305 1521.38,338.773 1546.56,220.537 1571.73,159.038 1596.91,107.43 1622.09,78.2979 1647.27,57.1907 1672.45,80.739 1697.62,126.142 1722.8,150.718 1747.98,171.951 1773.16,190.801 1798.34,192.061 1823.51,185.768 1848.69,174 1873.87,171.936 1899.05,147.28 1924.23,143.2 1949.4,140.157 1974.58,151.673 1999.76,150.749 2024.94,152.912 2050.12,170.972 2075.29,156.448 2100.47,162.42 2125.65,149.213 2150.83,180.156 2176.01,158.933 2201.18,147.499 2226.36,160.521 2251.54,153.225 2276.72,161.188 2301.9,144.554 2327.07,161.525 "/>
<path clip-path="url(#clip520)" d="M2202.94 214.479 L2322.51 214.479 L2322.51 58.959 L2202.94 58.959  Z" fill="#ffffff" fill-rule="evenodd" fill-opacity="1"/>
<polyline clip-path="url(#clip520)" style="stroke:#000000; stroke-linecap:round; stroke-linejoin:round; stroke-width:4; stroke-opacity:1; fill:none" points="2202.94,214.479 2322.51,214.479 2322.51,58.959 2202.94,58.959 2202.94,214.479 "/>
<polyline clip-path="url(#clip520)" style="stroke:#009af9; stroke-linecap:round; stroke-linejoin:round; stroke-width:4; stroke-opacity:1; fill:none" points="2213.02,110.799 2273.51,110.799 "/>
<path clip-path="url(#clip520)" d="M2310.6 121.338 L2305.33 121.198 L2299.57 121.338 L2299.57 119.09 L2301.44 119.09 L2296.17 112.859 L2291.51 118.082 L2291.19 118.551 Q2291.19 118.762 2291.72 118.926 Q2292.29 119.09 2292.94 119.09 L2292.94 121.338 L2288 121.198 L2283.6 121.338 L2283.6 119.09 Q2285.07 119.09 2285.75 119.066 Q2286.45 119.019 2287.25 118.808 Q2288.05 118.598 2288.45 118.176 L2294.72 111.126 L2287.25 102.296 L2283.83 102.296 L2283.83 100.047 L2289.12 100.188 L2294.91 100.047 L2294.91 102.296 L2292.99 102.296 L2297.7 107.8 L2301.73 103.303 Q2301.75 103.279 2302.12 102.717 Q2301.37 102.296 2300.3 102.296 L2300.3 100.047 L2305.24 100.188 L2309.64 100.047 L2309.64 102.296 Q2307.72 102.296 2306.71 102.436 Q2305.73 102.553 2305.43 102.717 Q2305.15 102.881 2304.75 103.303 L2299.15 109.533 L2307.21 119.09 L2310.6 119.09 L2310.6 121.338 Z" fill="#000000" fill-rule="nonzero" fill-opacity="1" /><polyline clip-path="url(#clip520)" style="stroke:#e26f46; stroke-linecap:round; stroke-linejoin:round; stroke-width:3; stroke-opacity:1; fill:none" stroke-dasharray="12, 6, 2, 6" points="2213.02,162.639 2273.51,162.639 "/>
<path clip-path="url(#clip520)" d="M2306.18 151.117 L2305.77 151.789 Q2303.23 150.691 2300.07 148.936 Q2296.9 150.691 2294.36 151.789 L2293.97 151.117 Q2296.74 148.707 2300.07 146.854 Q2303.43 148.723 2306.18 151.117 Z" fill="#000000" fill-rule="nonzero" fill-opacity="1" /><path clip-path="url(#clip520)" d="M2310.6 178.183 L2305.33 178.042 L2299.57 178.183 L2299.57 175.934 L2301.44 175.934 L2296.17 169.704 L2291.51 174.927 L2291.19 175.395 Q2291.19 175.606 2291.72 175.77 Q2292.29 175.934 2292.94 175.934 L2292.94 178.183 L2288 178.042 L2283.6 178.183 L2283.6 175.934 Q2285.07 175.934 2285.75 175.911 Q2286.45 175.864 2287.25 175.653 Q2288.05 175.442 2288.45 175.021 L2294.72 167.97 L2287.25 159.14 L2283.83 159.14 L2283.83 156.892 L2289.12 157.032 L2294.91 156.892 L2294.91 159.14 L2292.99 159.14 L2297.7 164.644 L2301.73 160.147 Q2301.75 160.124 2302.12 159.562 Q2301.37 159.14 2300.3 159.14 L2300.3 156.892 L2305.24 157.032 L2309.64 156.892 L2309.64 159.14 Q2307.72 159.14 2306.71 159.281 Q2305.73 159.398 2305.43 159.562 Q2305.15 159.726 2304.75 160.147 L2299.15 166.378 L2307.21 175.934 L2310.6 175.934 L2310.6 178.183 Z" fill="#000000" fill-rule="nonzero" fill-opacity="1" /><path clip-path="url(#clip520)" d="M1445.34 910.936 L2352.76 910.936 L2352.76 559.488 L1445.34 559.488  Z" fill="#ffffff" fill-rule="evenodd" fill-opacity="1"/>
<defs>
  <clipPath id="clip524">
    <rect x="1445" y="559" width="908" height="352"/>
  </clipPath>
</defs>
<polyline clip-path="url(#clip524)" style="stroke:#000000; stroke-linecap:round; stroke-linejoin:round; stroke-width:2; stroke-opacity:0.1; fill:none" points="1471.02,910.936 1471.02,559.488 "/>
<polyline clip-path="url(#clip524)" style="stroke:#000000; stroke-linecap:round; stroke-linejoin:round; stroke-width:2; stroke-opacity:0.1; fill:none" points="1722.8,910.936 1722.8,559.488 "/>
<polyline clip-path="url(#clip524)" style="stroke:#000000; stroke-linecap:round; stroke-linejoin:round; stroke-width:2; stroke-opacity:0.1; fill:none" points="1974.58,910.936 1974.58,559.488 "/>
<polyline clip-path="url(#clip524)" style="stroke:#000000; stroke-linecap:round; stroke-linejoin:round; stroke-width:2; stroke-opacity:0.1; fill:none" points="2226.36,910.936 2226.36,559.488 "/>
<polyline clip-path="url(#clip520)" style="stroke:#000000; stroke-linecap:round; stroke-linejoin:round; stroke-width:4; stroke-opacity:1; fill:none" points="1445.34,910.936 2352.76,910.936 "/>
<polyline clip-path="url(#clip520)" style="stroke:#000000; stroke-linecap:round; stroke-linejoin:round; stroke-width:4; stroke-opacity:1; fill:none" points="1471.02,910.936 1471.02,892.038 "/>
<polyline clip-path="url(#clip520)" style="stroke:#000000; stroke-linecap:round; stroke-linejoin:round; stroke-width:4; stroke-opacity:1; fill:none" points="1722.8,910.936 1722.8,892.038 "/>
<polyline clip-path="url(#clip520)" style="stroke:#000000; stroke-linecap:round; stroke-linejoin:round; stroke-width:4; stroke-opacity:1; fill:none" points="1974.58,910.936 1974.58,892.038 "/>
<polyline clip-path="url(#clip520)" style="stroke:#000000; stroke-linecap:round; stroke-linejoin:round; stroke-width:4; stroke-opacity:1; fill:none" points="2226.36,910.936 2226.36,892.038 "/>
<path clip-path="url(#clip520)" d="M1471.02 941.855 Q1467.41 941.855 1465.58 945.419 Q1463.78 948.961 1463.78 956.091 Q1463.78 963.197 1465.58 966.762 Q1467.41 970.303 1471.02 970.303 Q1474.66 970.303 1476.46 966.762 Q1478.29 963.197 1478.29 956.091 Q1478.29 948.961 1476.46 945.419 Q1474.66 941.855 1471.02 941.855 M1471.02 938.151 Q1476.83 938.151 1479.89 942.757 Q1482.97 947.341 1482.97 956.091 Q1482.97 964.817 1479.89 969.424 Q1476.83 974.007 1471.02 974.007 Q1465.21 974.007 1462.13 969.424 Q1459.08 964.817 1459.08 956.091 Q1459.08 947.341 1462.13 942.757 Q1465.21 938.151 1471.02 938.151 Z" fill="#000000" fill-rule="nonzero" fill-opacity="1" /><path clip-path="url(#clip520)" d="M1713.18 969.401 L1720.82 969.401 L1720.82 943.035 L1712.51 944.702 L1712.51 940.443 L1720.78 938.776 L1725.45 938.776 L1725.45 969.401 L1733.09 969.401 L1733.09 973.336 L1713.18 973.336 L1713.18 969.401 Z" fill="#000000" fill-rule="nonzero" fill-opacity="1" /><path clip-path="url(#clip520)" d="M1969.24 969.401 L1985.55 969.401 L1985.55 973.336 L1963.61 973.336 L1963.61 969.401 Q1966.27 966.646 1970.86 962.016 Q1975.46 957.364 1976.64 956.021 Q1978.89 953.498 1979.77 951.762 Q1980.67 950.003 1980.67 948.313 Q1980.67 945.558 1978.73 943.822 Q1976.8 942.086 1973.7 942.086 Q1971.5 942.086 1969.05 942.85 Q1966.62 943.614 1963.84 945.165 L1963.84 940.443 Q1966.67 939.308 1969.12 938.73 Q1971.57 938.151 1973.61 938.151 Q1978.98 938.151 1982.17 940.836 Q1985.37 943.521 1985.37 948.012 Q1985.37 950.142 1984.56 952.063 Q1983.77 953.961 1981.67 956.554 Q1981.09 957.225 1977.99 960.442 Q1974.88 963.637 1969.24 969.401 Z" fill="#000000" fill-rule="nonzero" fill-opacity="1" /><path clip-path="url(#clip520)" d="M2230.61 954.702 Q2233.97 955.419 2235.84 957.688 Q2237.74 959.956 2237.74 963.29 Q2237.74 968.405 2234.22 971.206 Q2230.7 974.007 2224.22 974.007 Q2222.05 974.007 2219.73 973.567 Q2217.44 973.151 2214.99 972.294 L2214.99 967.78 Q2216.93 968.915 2219.24 969.493 Q2221.56 970.072 2224.08 970.072 Q2228.48 970.072 2230.77 968.336 Q2233.09 966.6 2233.09 963.29 Q2233.09 960.234 2230.93 958.521 Q2228.8 956.785 2224.99 956.785 L2220.96 956.785 L2220.96 952.942 L2225.17 952.942 Q2228.62 952.942 2230.45 951.577 Q2232.28 950.188 2232.28 947.595 Q2232.28 944.933 2230.38 943.521 Q2228.5 942.086 2224.99 942.086 Q2223.06 942.086 2220.86 942.503 Q2218.67 942.919 2216.03 943.799 L2216.03 939.632 Q2218.69 938.892 2221 938.521 Q2223.34 938.151 2225.4 938.151 Q2230.73 938.151 2233.83 940.581 Q2236.93 942.989 2236.93 947.109 Q2236.93 949.979 2235.29 951.97 Q2233.64 953.938 2230.61 954.702 Z" fill="#000000" fill-rule="nonzero" fill-opacity="1" /><polyline clip-path="url(#clip524)" style="stroke:#000000; stroke-linecap:round; stroke-linejoin:round; stroke-width:2; stroke-opacity:0.1; fill:none" points="1445.34,863.643 2352.76,863.643 "/>
<polyline clip-path="url(#clip524)" style="stroke:#000000; stroke-linecap:round; stroke-linejoin:round; stroke-width:2; stroke-opacity:0.1; fill:none" points="1445.34,807.845 2352.76,807.845 "/>
<polyline clip-path="url(#clip524)" style="stroke:#000000; stroke-linecap:round; stroke-linejoin:round; stroke-width:2; stroke-opacity:0.1; fill:none" points="1445.34,752.046 2352.76,752.046 "/>
<polyline clip-path="url(#clip524)" style="stroke:#000000; stroke-linecap:round; stroke-linejoin:round; stroke-width:2; stroke-opacity:0.1; fill:none" points="1445.34,696.248 2352.76,696.248 "/>
<polyline clip-path="url(#clip524)" style="stroke:#000000; stroke-linecap:round; stroke-linejoin:round; stroke-width:2; stroke-opacity:0.1; fill:none" points="1445.34,640.45 2352.76,640.45 "/>
<polyline clip-path="url(#clip524)" style="stroke:#000000; stroke-linecap:round; stroke-linejoin:round; stroke-width:2; stroke-opacity:0.1; fill:none" points="1445.34,584.651 2352.76,584.651 "/>
<polyline clip-path="url(#clip520)" style="stroke:#000000; stroke-linecap:round; stroke-linejoin:round; stroke-width:4; stroke-opacity:1; fill:none" points="1445.34,910.936 1445.34,559.488 "/>
<polyline clip-path="url(#clip520)" style="stroke:#000000; stroke-linecap:round; stroke-linejoin:round; stroke-width:4; stroke-opacity:1; fill:none" points="1445.34,863.643 1464.24,863.643 "/>
<polyline clip-path="url(#clip520)" style="stroke:#000000; stroke-linecap:round; stroke-linejoin:round; stroke-width:4; stroke-opacity:1; fill:none" points="1445.34,807.845 1464.24,807.845 "/>
<polyline clip-path="url(#clip520)" style="stroke:#000000; stroke-linecap:round; stroke-linejoin:round; stroke-width:4; stroke-opacity:1; fill:none" points="1445.34,752.046 1464.24,752.046 "/>
<polyline clip-path="url(#clip520)" style="stroke:#000000; stroke-linecap:round; stroke-linejoin:round; stroke-width:4; stroke-opacity:1; fill:none" points="1445.34,696.248 1464.24,696.248 "/>
<polyline clip-path="url(#clip520)" style="stroke:#000000; stroke-linecap:round; stroke-linejoin:round; stroke-width:4; stroke-opacity:1; fill:none" points="1445.34,640.45 1464.24,640.45 "/>
<polyline clip-path="url(#clip520)" style="stroke:#000000; stroke-linecap:round; stroke-linejoin:round; stroke-width:4; stroke-opacity:1; fill:none" points="1445.34,584.651 1464.24,584.651 "/>
<path clip-path="url(#clip520)" d="M1303.39 864.095 L1333.07 864.095 L1333.07 868.03 L1303.39 868.03 L1303.39 864.095 Z" fill="#000000" fill-rule="nonzero" fill-opacity="1" /><path clip-path="url(#clip520)" d="M1353.16 849.442 Q1349.55 849.442 1347.72 853.007 Q1345.92 856.548 1345.92 863.678 Q1345.92 870.784 1347.72 874.349 Q1349.55 877.891 1353.16 877.891 Q1356.79 877.891 1358.6 874.349 Q1360.43 870.784 1360.43 863.678 Q1360.43 856.548 1358.6 853.007 Q1356.79 849.442 1353.16 849.442 M1353.16 845.738 Q1358.97 845.738 1362.03 850.345 Q1365.1 854.928 1365.1 863.678 Q1365.1 872.405 1362.03 877.011 Q1358.97 881.594 1353.16 881.594 Q1347.35 881.594 1344.27 877.011 Q1341.22 872.405 1341.22 863.678 Q1341.22 854.928 1344.27 850.345 Q1347.35 845.738 1353.16 845.738 Z" fill="#000000" fill-rule="nonzero" fill-opacity="1" /><path clip-path="url(#clip520)" d="M1373.32 875.044 L1378.21 875.044 L1378.21 880.923 L1373.32 880.923 L1373.32 875.044 Z" fill="#000000" fill-rule="nonzero" fill-opacity="1" /><path clip-path="url(#clip520)" d="M1388.44 846.363 L1406.79 846.363 L1406.79 850.298 L1392.72 850.298 L1392.72 858.77 Q1393.74 858.423 1394.76 858.261 Q1395.78 858.076 1396.79 858.076 Q1402.58 858.076 1405.96 861.247 Q1409.34 864.419 1409.34 869.835 Q1409.34 875.414 1405.87 878.516 Q1402.4 881.594 1396.08 881.594 Q1393.9 881.594 1391.63 881.224 Q1389.39 880.854 1386.98 880.113 L1386.98 875.414 Q1389.06 876.548 1391.29 877.104 Q1393.51 877.659 1395.98 877.659 Q1399.99 877.659 1402.33 875.553 Q1404.66 873.446 1404.66 869.835 Q1404.66 866.224 1402.33 864.118 Q1399.99 862.011 1395.98 862.011 Q1394.11 862.011 1392.23 862.428 Q1390.38 862.845 1388.44 863.724 L1388.44 846.363 Z" fill="#000000" fill-rule="nonzero" fill-opacity="1" /><path clip-path="url(#clip520)" d="M1352.17 793.643 Q1348.55 793.643 1346.73 797.208 Q1344.92 800.75 1344.92 807.879 Q1344.92 814.986 1346.73 818.551 Q1348.55 822.092 1352.17 822.092 Q1355.8 822.092 1357.6 818.551 Q1359.43 814.986 1359.43 807.879 Q1359.43 800.75 1357.6 797.208 Q1355.8 793.643 1352.17 793.643 M1352.17 789.94 Q1357.98 789.94 1361.03 794.546 Q1364.11 799.13 1364.11 807.879 Q1364.11 816.606 1361.03 821.213 Q1357.98 825.796 1352.17 825.796 Q1346.35 825.796 1343.28 821.213 Q1340.22 816.606 1340.22 807.879 Q1340.22 799.13 1343.28 794.546 Q1346.35 789.94 1352.17 789.94 Z" fill="#000000" fill-rule="nonzero" fill-opacity="1" /><path clip-path="url(#clip520)" d="M1372.33 819.245 L1377.21 819.245 L1377.21 825.125 L1372.33 825.125 L1372.33 819.245 Z" fill="#000000" fill-rule="nonzero" fill-opacity="1" /><path clip-path="url(#clip520)" d="M1397.4 793.643 Q1393.79 793.643 1391.96 797.208 Q1390.15 800.75 1390.15 807.879 Q1390.15 814.986 1391.96 818.551 Q1393.79 822.092 1397.4 822.092 Q1401.03 822.092 1402.84 818.551 Q1404.66 814.986 1404.66 807.879 Q1404.66 800.75 1402.84 797.208 Q1401.03 793.643 1397.4 793.643 M1397.4 789.94 Q1403.21 789.94 1406.26 794.546 Q1409.34 799.13 1409.34 807.879 Q1409.34 816.606 1406.26 821.213 Q1403.21 825.796 1397.4 825.796 Q1391.59 825.796 1388.51 821.213 Q1385.45 816.606 1385.45 807.879 Q1385.45 799.13 1388.51 794.546 Q1391.59 789.94 1397.4 789.94 Z" fill="#000000" fill-rule="nonzero" fill-opacity="1" /><path clip-path="url(#clip520)" d="M1353.16 737.845 Q1349.55 737.845 1347.72 741.41 Q1345.92 744.952 1345.92 752.081 Q1345.92 759.188 1347.72 762.752 Q1349.55 766.294 1353.16 766.294 Q1356.79 766.294 1358.6 762.752 Q1360.43 759.188 1360.43 752.081 Q1360.43 744.952 1358.6 741.41 Q1356.79 737.845 1353.16 737.845 M1353.16 734.141 Q1358.97 734.141 1362.03 738.748 Q1365.1 743.331 1365.1 752.081 Q1365.1 760.808 1362.03 765.414 Q1358.97 769.998 1353.16 769.998 Q1347.35 769.998 1344.27 765.414 Q1341.22 760.808 1341.22 752.081 Q1341.22 743.331 1344.27 738.748 Q1347.35 734.141 1353.16 734.141 Z" fill="#000000" fill-rule="nonzero" fill-opacity="1" /><path clip-path="url(#clip520)" d="M1373.32 763.447 L1378.21 763.447 L1378.21 769.326 L1373.32 769.326 L1373.32 763.447 Z" fill="#000000" fill-rule="nonzero" fill-opacity="1" /><path clip-path="url(#clip520)" d="M1388.44 734.766 L1406.79 734.766 L1406.79 738.702 L1392.72 738.702 L1392.72 747.174 Q1393.74 746.827 1394.76 746.664 Q1395.78 746.479 1396.79 746.479 Q1402.58 746.479 1405.96 749.651 Q1409.34 752.822 1409.34 758.239 Q1409.34 763.817 1405.87 766.919 Q1402.4 769.998 1396.08 769.998 Q1393.9 769.998 1391.63 769.627 Q1389.39 769.257 1386.98 768.516 L1386.98 763.817 Q1389.06 764.951 1391.29 765.507 Q1393.51 766.063 1395.98 766.063 Q1399.99 766.063 1402.33 763.956 Q1404.66 761.85 1404.66 758.239 Q1404.66 754.627 1402.33 752.521 Q1399.99 750.414 1395.98 750.414 Q1394.11 750.414 1392.23 750.831 Q1390.38 751.248 1388.44 752.127 L1388.44 734.766 Z" fill="#000000" fill-rule="nonzero" fill-opacity="1" /><path clip-path="url(#clip520)" d="M1342.98 709.593 L1350.61 709.593 L1350.61 683.227 L1342.3 684.894 L1342.3 680.635 L1350.57 678.968 L1355.24 678.968 L1355.24 709.593 L1362.88 709.593 L1362.88 713.528 L1342.98 713.528 L1342.98 709.593 Z" fill="#000000" fill-rule="nonzero" fill-opacity="1" /><path clip-path="url(#clip520)" d="M1372.33 707.648 L1377.21 707.648 L1377.21 713.528 L1372.33 713.528 L1372.33 707.648 Z" fill="#000000" fill-rule="nonzero" fill-opacity="1" /><path clip-path="url(#clip520)" d="M1397.4 682.047 Q1393.79 682.047 1391.96 685.612 Q1390.15 689.153 1390.15 696.283 Q1390.15 703.389 1391.96 706.954 Q1393.79 710.496 1397.4 710.496 Q1401.03 710.496 1402.84 706.954 Q1404.66 703.389 1404.66 696.283 Q1404.66 689.153 1402.84 685.612 Q1401.03 682.047 1397.4 682.047 M1397.4 678.343 Q1403.21 678.343 1406.26 682.95 Q1409.34 687.533 1409.34 696.283 Q1409.34 705.01 1406.26 709.616 Q1403.21 714.199 1397.4 714.199 Q1391.59 714.199 1388.51 709.616 Q1385.45 705.01 1385.45 696.283 Q1385.45 687.533 1388.51 682.95 Q1391.59 678.343 1397.4 678.343 Z" fill="#000000" fill-rule="nonzero" fill-opacity="1" /><path clip-path="url(#clip520)" d="M1343.97 653.795 L1351.61 653.795 L1351.61 627.429 L1343.3 629.096 L1343.3 624.836 L1351.56 623.17 L1356.24 623.17 L1356.24 653.795 L1363.88 653.795 L1363.88 657.73 L1343.97 657.73 L1343.97 653.795 Z" fill="#000000" fill-rule="nonzero" fill-opacity="1" /><path clip-path="url(#clip520)" d="M1373.32 651.85 L1378.21 651.85 L1378.21 657.73 L1373.32 657.73 L1373.32 651.85 Z" fill="#000000" fill-rule="nonzero" fill-opacity="1" /><path clip-path="url(#clip520)" d="M1388.44 623.17 L1406.79 623.17 L1406.79 627.105 L1392.72 627.105 L1392.72 635.577 Q1393.74 635.23 1394.76 635.068 Q1395.78 634.883 1396.79 634.883 Q1402.58 634.883 1405.96 638.054 Q1409.34 641.225 1409.34 646.642 Q1409.34 652.22 1405.87 655.322 Q1402.4 658.401 1396.08 658.401 Q1393.9 658.401 1391.63 658.031 Q1389.39 657.66 1386.98 656.92 L1386.98 652.22 Q1389.06 653.355 1391.29 653.91 Q1393.51 654.466 1395.98 654.466 Q1399.99 654.466 1402.33 652.359 Q1404.66 650.253 1404.66 646.642 Q1404.66 643.031 1402.33 640.924 Q1399.99 638.818 1395.98 638.818 Q1394.11 638.818 1392.23 639.234 Q1390.38 639.651 1388.44 640.531 L1388.44 623.17 Z" fill="#000000" fill-rule="nonzero" fill-opacity="1" /><path clip-path="url(#clip520)" d="M1346.19 597.996 L1362.51 597.996 L1362.51 601.931 L1340.57 601.931 L1340.57 597.996 Q1343.23 595.242 1347.81 590.612 Q1352.42 585.959 1353.6 584.617 Q1355.85 582.093 1356.73 580.357 Q1357.63 578.598 1357.63 576.908 Q1357.63 574.154 1355.68 572.418 Q1353.76 570.681 1350.66 570.681 Q1348.46 570.681 1346.01 571.445 Q1343.58 572.209 1340.8 573.76 L1340.8 569.038 Q1343.62 567.904 1346.08 567.325 Q1348.53 566.746 1350.57 566.746 Q1355.94 566.746 1359.13 569.432 Q1362.33 572.117 1362.33 576.607 Q1362.33 578.737 1361.52 580.658 Q1360.73 582.556 1358.62 585.149 Q1358.04 585.82 1354.94 589.038 Q1351.84 592.232 1346.19 597.996 Z" fill="#000000" fill-rule="nonzero" fill-opacity="1" /><path clip-path="url(#clip520)" d="M1372.33 596.052 L1377.21 596.052 L1377.21 601.931 L1372.33 601.931 L1372.33 596.052 Z" fill="#000000" fill-rule="nonzero" fill-opacity="1" /><path clip-path="url(#clip520)" d="M1397.4 570.45 Q1393.79 570.45 1391.96 574.015 Q1390.15 577.556 1390.15 584.686 Q1390.15 591.792 1391.96 595.357 Q1393.79 598.899 1397.4 598.899 Q1401.03 598.899 1402.84 595.357 Q1404.66 591.792 1404.66 584.686 Q1404.66 577.556 1402.84 574.015 Q1401.03 570.45 1397.4 570.45 M1397.4 566.746 Q1403.21 566.746 1406.26 571.353 Q1409.34 575.936 1409.34 584.686 Q1409.34 593.413 1406.26 598.019 Q1403.21 602.603 1397.4 602.603 Q1391.59 602.603 1388.51 598.019 Q1385.45 593.413 1385.45 584.686 Q1385.45 575.936 1388.51 571.353 Q1391.59 566.746 1397.4 566.746 Z" fill="#000000" fill-rule="nonzero" fill-opacity="1" /><path clip-path="url(#clip520)" d="M1219.01 734.795 Q1220.82 734.795 1221.85 735.922 Q1222.85 737.049 1222.85 738.338 Q1222.85 739.561 1222.14 740.206 Q1221.43 740.85 1220.53 740.85 Q1219.3 740.85 1218.24 739.948 Q1217.18 739.046 1216.95 737.693 Q1216.12 739.014 1216.12 740.978 Q1216.12 742.267 1216.79 743.394 Q1217.47 744.489 1218.34 745.165 Q1219.21 745.809 1220.46 746.389 Q1221.69 746.937 1222.43 747.162 Q1223.14 747.355 1223.91 747.516 L1232.93 749.771 Q1237.21 750.866 1238.72 750.866 Q1240.59 750.866 1241.85 749.964 Q1243.07 749.062 1243.07 747.259 Q1243.07 746.55 1242.88 745.745 Q1242.65 744.94 1242.07 743.909 Q1241.46 742.846 1240.56 741.912 Q1239.63 740.946 1238.05 740.012 Q1236.47 739.078 1234.44 738.466 Q1233.73 738.273 1233.73 737.629 Q1233.73 736.824 1234.38 736.824 Q1234.92 736.824 1236.08 737.275 Q1237.21 737.693 1238.69 738.627 Q1240.14 739.529 1241.46 740.721 Q1242.75 741.912 1243.65 743.684 Q1244.55 745.455 1244.55 747.387 Q1244.55 750.157 1243.07 751.993 Q1241.59 753.829 1239.53 754.505 Q1239.82 754.666 1240.21 754.891 Q1240.59 755.117 1241.46 755.793 Q1242.3 756.437 1242.94 757.178 Q1243.55 757.919 1244.04 759.078 Q1244.55 760.205 1244.55 761.429 Q1244.55 762.975 1244.1 764.36 Q1243.65 765.713 1242.62 766.679 Q1241.59 767.645 1240.17 767.645 Q1238.59 767.645 1237.5 766.582 Q1236.37 765.487 1236.37 764.006 Q1236.37 763.072 1236.92 762.331 Q1237.47 761.558 1238.66 761.558 Q1239.98 761.558 1240.98 762.46 Q1241.98 763.362 1242.23 764.65 Q1243.07 763.329 1243.07 761.365 Q1243.07 759.239 1241.2 757.565 Q1239.34 755.89 1236.21 755.085 Q1228.71 753.088 1225.36 752.315 Q1221.98 751.542 1220.53 751.542 Q1219.17 751.542 1218.24 751.896 Q1217.31 752.251 1216.89 752.862 Q1216.44 753.442 1216.28 753.99 Q1216.12 754.505 1216.12 755.085 Q1216.12 756.051 1216.5 757.146 Q1216.89 758.209 1217.79 759.497 Q1218.66 760.753 1220.46 761.944 Q1222.27 763.136 1224.75 763.941 Q1225.49 764.102 1225.49 764.811 Q1225.45 765.584 1224.81 765.584 Q1224.26 765.584 1223.14 765.165 Q1221.98 764.714 1220.53 763.812 Q1219.08 762.878 1217.79 761.687 Q1216.47 760.463 1215.57 758.692 Q1214.67 756.888 1214.67 754.956 Q1214.67 754.086 1214.86 753.249 Q1215.02 752.379 1215.5 751.349 Q1215.99 750.286 1217.05 749.352 Q1218.11 748.418 1219.66 747.838 Q1218.92 747.452 1218.21 746.937 Q1217.5 746.389 1216.63 745.552 Q1215.73 744.682 1215.21 743.491 Q1214.67 742.267 1214.67 740.914 Q1214.67 739.594 1215.02 738.305 Q1215.34 737.017 1216.41 735.922 Q1217.44 734.795 1219.01 734.795 Z" fill="#000000" fill-rule="nonzero" fill-opacity="1" /><path clip-path="url(#clip520)" d="M1262.82 728.074 Q1261.99 728.074 1261.74 728.006 Q1261.49 727.916 1261.11 727.555 L1251.24 718.695 Q1245.78 713.848 1241.02 713.848 Q1237.93 713.848 1235.73 715.472 Q1233.52 717.072 1233.52 720.025 Q1233.52 722.054 1234.76 723.768 Q1236 725.481 1238.2 726.27 Q1238.16 726.135 1238.16 725.661 Q1238.16 724.512 1238.88 723.88 Q1239.6 723.227 1240.57 723.227 Q1241.81 723.227 1242.42 724.038 Q1243.01 724.827 1243.01 725.616 Q1243.01 725.932 1242.94 726.36 Q1242.87 726.766 1242.24 727.42 Q1241.59 728.074 1240.44 728.074 Q1237.21 728.074 1234.64 725.639 Q1232.07 723.182 1232.07 719.439 Q1232.07 715.201 1234.6 712.428 Q1237.1 709.633 1241.02 709.633 Q1242.4 709.633 1243.66 710.061 Q1244.9 710.467 1245.87 711.03 Q1246.84 711.571 1248.39 713.059 Q1249.95 714.547 1251.06 715.742 Q1252.16 716.937 1254.5 719.62 L1259.26 724.512 L1259.26 716.193 Q1259.26 712.135 1258.9 711.819 Q1258.25 711.369 1254.8 710.805 L1254.8 709.633 L1262.82 710.94 L1262.82 728.074 Z" fill="#000000" fill-rule="nonzero" fill-opacity="1" /><polyline clip-path="url(#clip524)" style="stroke:#009af9; stroke-linecap:round; stroke-linejoin:round; stroke-width:4; stroke-opacity:1; fill:none" points="1471.02,807.845 1496.2,691.598 1521.38,633.475 1546.56,632.842 1571.73,674.496 1596.91,735.719 1622.09,795.338 1647.27,840.03 1672.45,864.894 1697.62,870.809 1722.8,861.913 1747.98,843.961 1773.16,823.069 1798.34,804.515 1823.51,791.785 1848.69,786.177 1873.87,787.009 1899.05,792.297 1924.23,799.585 1949.4,806.668 1974.58,812.028 1999.76,814.967 2024.94,815.516 2050.12,814.222 2075.29,811.879 2100.47,809.294 2125.65,807.105 2150.83,805.688 2176.01,805.144 2201.18,805.352 2226.36,806.055 2251.54,806.96 2276.72,807.809 2301.9,808.43 2327.07,808.748 "/>
<polyline clip-path="url(#clip524)" style="stroke:#e26f46; stroke-linecap:round; stroke-linejoin:round; stroke-width:3; stroke-opacity:1; fill:none" stroke-dasharray="12, 6, 2, 6" points="1471.02,807.845 1496.2,697.545 1521.38,626.915 1546.56,569.435 1571.73,652.083 1596.91,727.646 1622.09,796.077 1647.27,842.6 1672.45,883.9 1697.62,900.989 1722.8,884.488 1747.98,860.171 1773.16,834.697 1798.34,807.537 1823.51,789.387 1848.69,780.919 1873.87,784.459 1899.05,783.452 1924.23,797.071 1949.4,807.377 1974.58,818.161 1999.76,817.116 2024.94,816.567 2050.12,819.171 2075.29,806.172 2100.47,807.911 2125.65,802.205 2150.83,814.78 2176.01,799.628 2201.18,799.479 2226.36,809.771 2251.54,806.836 2276.72,811.184 2301.9,804.649 2327.07,814.441 "/>
<path clip-path="url(#clip520)" d="M2202.94 726.723 L2322.51 726.723 L2322.51 571.203 L2202.94 571.203  Z" fill="#ffffff" fill-rule="evenodd" fill-opacity="1"/>
<polyline clip-path="url(#clip520)" style="stroke:#000000; stroke-linecap:round; stroke-linejoin:round; stroke-width:4; stroke-opacity:1; fill:none" points="2202.94,726.723 2322.51,726.723 2322.51,571.203 2202.94,571.203 2202.94,726.723 "/>
<polyline clip-path="url(#clip520)" style="stroke:#009af9; stroke-linecap:round; stroke-linejoin:round; stroke-width:4; stroke-opacity:1; fill:none" points="2213.02,623.043 2273.51,623.043 "/>
<path clip-path="url(#clip520)" d="M2310.6 633.582 L2305.33 633.442 L2299.57 633.582 L2299.57 631.334 L2301.44 631.334 L2296.17 625.103 L2291.51 630.326 L2291.19 630.795 Q2291.19 631.006 2291.72 631.17 Q2292.29 631.334 2292.94 631.334 L2292.94 633.582 L2288 633.442 L2283.6 633.582 L2283.6 631.334 Q2285.07 631.334 2285.75 631.31 Q2286.45 631.263 2287.25 631.052 Q2288.05 630.842 2288.45 630.42 L2294.72 623.37 L2287.25 614.54 L2283.83 614.54 L2283.83 612.291 L2289.12 612.432 L2294.91 612.291 L2294.91 614.54 L2292.99 614.54 L2297.7 620.044 L2301.73 615.547 Q2301.75 615.523 2302.12 614.961 Q2301.37 614.54 2300.3 614.54 L2300.3 612.291 L2305.24 612.432 L2309.64 612.291 L2309.64 614.54 Q2307.72 614.54 2306.71 614.68 Q2305.73 614.797 2305.43 614.961 Q2305.15 615.125 2304.75 615.547 L2299.15 621.777 L2307.21 631.334 L2310.6 631.334 L2310.6 633.582 Z" fill="#000000" fill-rule="nonzero" fill-opacity="1" /><polyline clip-path="url(#clip520)" style="stroke:#e26f46; stroke-linecap:round; stroke-linejoin:round; stroke-width:3; stroke-opacity:1; fill:none" stroke-dasharray="12, 6, 2, 6" points="2213.02,674.883 2273.51,674.883 "/>
<path clip-path="url(#clip520)" d="M2306.18 663.361 L2305.77 664.033 Q2303.23 662.935 2300.07 661.18 Q2296.9 662.935 2294.36 664.033 L2293.97 663.361 Q2296.74 660.951 2300.07 659.098 Q2303.43 660.967 2306.18 663.361 Z" fill="#000000" fill-rule="nonzero" fill-opacity="1" /><path clip-path="url(#clip520)" d="M2310.6 690.427 L2305.33 690.286 L2299.57 690.427 L2299.57 688.178 L2301.44 688.178 L2296.17 681.948 L2291.51 687.171 L2291.19 687.639 Q2291.19 687.85 2291.72 688.014 Q2292.29 688.178 2292.94 688.178 L2292.94 690.427 L2288 690.286 L2283.6 690.427 L2283.6 688.178 Q2285.07 688.178 2285.75 688.155 Q2286.45 688.108 2287.25 687.897 Q2288.05 687.686 2288.45 687.265 L2294.72 680.214 L2287.25 671.384 L2283.83 671.384 L2283.83 669.136 L2289.12 669.276 L2294.91 669.136 L2294.91 671.384 L2292.99 671.384 L2297.7 676.888 L2301.73 672.391 Q2301.75 672.368 2302.12 671.806 Q2301.37 671.384 2300.3 671.384 L2300.3 669.136 L2305.24 669.276 L2309.64 669.136 L2309.64 671.384 Q2307.72 671.384 2306.71 671.525 Q2305.73 671.642 2305.43 671.806 Q2305.15 671.97 2304.75 672.391 L2299.15 678.622 L2307.21 688.178 L2310.6 688.178 L2310.6 690.427 Z" fill="#000000" fill-rule="nonzero" fill-opacity="1" /><path clip-path="url(#clip520)" d="M1445.34 1423.18 L2352.76 1423.18 L2352.76 1071.73 L1445.34 1071.73  Z" fill="#ffffff" fill-rule="evenodd" fill-opacity="1"/>
<defs>
  <clipPath id="clip525">
    <rect x="1445" y="1071" width="908" height="352"/>
  </clipPath>
</defs>
<polyline clip-path="url(#clip525)" style="stroke:#000000; stroke-linecap:round; stroke-linejoin:round; stroke-width:2; stroke-opacity:0.1; fill:none" points="1471.02,1423.18 1471.02,1071.73 "/>
<polyline clip-path="url(#clip525)" style="stroke:#000000; stroke-linecap:round; stroke-linejoin:round; stroke-width:2; stroke-opacity:0.1; fill:none" points="1722.8,1423.18 1722.8,1071.73 "/>
<polyline clip-path="url(#clip525)" style="stroke:#000000; stroke-linecap:round; stroke-linejoin:round; stroke-width:2; stroke-opacity:0.1; fill:none" points="1974.58,1423.18 1974.58,1071.73 "/>
<polyline clip-path="url(#clip525)" style="stroke:#000000; stroke-linecap:round; stroke-linejoin:round; stroke-width:2; stroke-opacity:0.1; fill:none" points="2226.36,1423.18 2226.36,1071.73 "/>
<polyline clip-path="url(#clip520)" style="stroke:#000000; stroke-linecap:round; stroke-linejoin:round; stroke-width:4; stroke-opacity:1; fill:none" points="1445.34,1423.18 2352.76,1423.18 "/>
<polyline clip-path="url(#clip520)" style="stroke:#000000; stroke-linecap:round; stroke-linejoin:round; stroke-width:4; stroke-opacity:1; fill:none" points="1471.02,1423.18 1471.02,1404.28 "/>
<polyline clip-path="url(#clip520)" style="stroke:#000000; stroke-linecap:round; stroke-linejoin:round; stroke-width:4; stroke-opacity:1; fill:none" points="1722.8,1423.18 1722.8,1404.28 "/>
<polyline clip-path="url(#clip520)" style="stroke:#000000; stroke-linecap:round; stroke-linejoin:round; stroke-width:4; stroke-opacity:1; fill:none" points="1974.58,1423.18 1974.58,1404.28 "/>
<polyline clip-path="url(#clip520)" style="stroke:#000000; stroke-linecap:round; stroke-linejoin:round; stroke-width:4; stroke-opacity:1; fill:none" points="2226.36,1423.18 2226.36,1404.28 "/>
<path clip-path="url(#clip520)" d="M1471.02 1454.1 Q1467.41 1454.1 1465.58 1457.66 Q1463.78 1461.2 1463.78 1468.33 Q1463.78 1475.44 1465.58 1479.01 Q1467.41 1482.55 1471.02 1482.55 Q1474.66 1482.55 1476.46 1479.01 Q1478.29 1475.44 1478.29 1468.33 Q1478.29 1461.2 1476.46 1457.66 Q1474.66 1454.1 1471.02 1454.1 M1471.02 1450.39 Q1476.83 1450.39 1479.89 1455 Q1482.97 1459.58 1482.97 1468.33 Q1482.97 1477.06 1479.89 1481.67 Q1476.83 1486.25 1471.02 1486.25 Q1465.21 1486.25 1462.13 1481.67 Q1459.08 1477.06 1459.08 1468.33 Q1459.08 1459.58 1462.13 1455 Q1465.21 1450.39 1471.02 1450.39 Z" fill="#000000" fill-rule="nonzero" fill-opacity="1" /><path clip-path="url(#clip520)" d="M1713.18 1481.64 L1720.82 1481.64 L1720.82 1455.28 L1712.51 1456.95 L1712.51 1452.69 L1720.78 1451.02 L1725.45 1451.02 L1725.45 1481.64 L1733.09 1481.64 L1733.09 1485.58 L1713.18 1485.58 L1713.18 1481.64 Z" fill="#000000" fill-rule="nonzero" fill-opacity="1" /><path clip-path="url(#clip520)" d="M1969.24 1481.64 L1985.55 1481.64 L1985.55 1485.58 L1963.61 1485.58 L1963.61 1481.64 Q1966.27 1478.89 1970.86 1474.26 Q1975.46 1469.61 1976.64 1468.27 Q1978.89 1465.74 1979.77 1464.01 Q1980.67 1462.25 1980.67 1460.56 Q1980.67 1457.8 1978.73 1456.07 Q1976.8 1454.33 1973.7 1454.33 Q1971.5 1454.33 1969.05 1455.09 Q1966.62 1455.86 1963.84 1457.41 L1963.84 1452.69 Q1966.67 1451.55 1969.12 1450.97 Q1971.57 1450.39 1973.61 1450.39 Q1978.98 1450.39 1982.17 1453.08 Q1985.37 1455.77 1985.37 1460.26 Q1985.37 1462.39 1984.56 1464.31 Q1983.77 1466.2 1981.67 1468.8 Q1981.09 1469.47 1977.99 1472.69 Q1974.88 1475.88 1969.24 1481.64 Z" fill="#000000" fill-rule="nonzero" fill-opacity="1" /><path clip-path="url(#clip520)" d="M2230.61 1466.95 Q2233.97 1467.66 2235.84 1469.93 Q2237.74 1472.2 2237.74 1475.53 Q2237.74 1480.65 2234.22 1483.45 Q2230.7 1486.25 2224.22 1486.25 Q2222.05 1486.25 2219.73 1485.81 Q2217.44 1485.39 2214.99 1484.54 L2214.99 1480.02 Q2216.93 1481.16 2219.24 1481.74 Q2221.56 1482.32 2224.08 1482.32 Q2228.48 1482.32 2230.77 1480.58 Q2233.09 1478.84 2233.09 1475.53 Q2233.09 1472.48 2230.93 1470.77 Q2228.8 1469.03 2224.99 1469.03 L2220.96 1469.03 L2220.96 1465.19 L2225.17 1465.19 Q2228.62 1465.19 2230.45 1463.82 Q2232.28 1462.43 2232.28 1459.84 Q2232.28 1457.18 2230.38 1455.77 Q2228.5 1454.33 2224.99 1454.33 Q2223.06 1454.33 2220.86 1454.75 Q2218.67 1455.16 2216.03 1456.04 L2216.03 1451.88 Q2218.69 1451.14 2221 1450.77 Q2223.34 1450.39 2225.4 1450.39 Q2230.73 1450.39 2233.83 1452.83 Q2236.93 1455.23 2236.93 1459.35 Q2236.93 1462.22 2235.29 1464.21 Q2233.64 1466.18 2230.61 1466.95 Z" fill="#000000" fill-rule="nonzero" fill-opacity="1" /><path clip-path="url(#clip520)" d="M1769.22 1520.52 L1809.42 1520.52 L1809.42 1525.93 L1792.55 1525.93 L1792.55 1568.04 L1786.09 1568.04 L1786.09 1525.93 L1769.22 1525.93 L1769.22 1520.52 Z" fill="#000000" fill-rule="nonzero" fill-opacity="1" /><path clip-path="url(#clip520)" d="M1813.37 1532.4 L1819.22 1532.4 L1819.22 1568.04 L1813.37 1568.04 L1813.37 1532.4 M1813.37 1518.52 L1819.22 1518.52 L1819.22 1525.93 L1813.37 1525.93 L1813.37 1518.52 Z" fill="#000000" fill-rule="nonzero" fill-opacity="1" /><path clip-path="url(#clip520)" d="M1859.23 1539.24 Q1861.43 1535.29 1864.48 1533.41 Q1867.54 1531.54 1871.68 1531.54 Q1877.25 1531.54 1880.27 1535.45 Q1883.29 1539.33 1883.29 1546.53 L1883.29 1568.04 L1877.4 1568.04 L1877.4 1546.72 Q1877.4 1541.59 1875.59 1539.11 Q1873.78 1536.63 1870.05 1536.63 Q1865.5 1536.63 1862.86 1539.65 Q1860.22 1542.68 1860.22 1547.9 L1860.22 1568.04 L1854.33 1568.04 L1854.33 1546.72 Q1854.33 1541.56 1852.51 1539.11 Q1850.7 1536.63 1846.91 1536.63 Q1842.43 1536.63 1839.78 1539.68 Q1837.14 1542.71 1837.14 1547.9 L1837.14 1568.04 L1831.25 1568.04 L1831.25 1532.4 L1837.14 1532.4 L1837.14 1537.93 Q1839.15 1534.66 1841.95 1533.1 Q1844.75 1531.54 1848.6 1531.54 Q1852.48 1531.54 1855.19 1533.51 Q1857.93 1535.48 1859.23 1539.24 Z" fill="#000000" fill-rule="nonzero" fill-opacity="1" /><path clip-path="url(#clip520)" d="M1925.47 1548.76 L1925.47 1551.62 L1898.54 1551.62 Q1898.92 1557.67 1902.17 1560.85 Q1905.45 1564 1911.27 1564 Q1914.64 1564 1917.8 1563.17 Q1920.98 1562.35 1924.1 1560.69 L1924.1 1566.23 Q1920.95 1567.57 1917.64 1568.27 Q1914.33 1568.97 1910.92 1568.97 Q1902.39 1568.97 1897.39 1564 Q1892.43 1559.04 1892.43 1550.57 Q1892.43 1541.82 1897.14 1536.69 Q1901.88 1531.54 1909.9 1531.54 Q1917.1 1531.54 1921.26 1536.18 Q1925.47 1540.8 1925.47 1548.76 M1919.61 1547.04 Q1919.55 1542.23 1916.9 1539.37 Q1914.29 1536.5 1909.97 1536.5 Q1905.06 1536.5 1902.1 1539.27 Q1899.18 1542.04 1898.73 1547.07 L1919.61 1547.04 Z" fill="#000000" fill-rule="nonzero" fill-opacity="1" /><path clip-path="url(#clip520)" d="M1969.87 1518.58 Q1965.6 1525.9 1963.53 1533.06 Q1961.46 1540.23 1961.46 1547.58 Q1961.46 1554.93 1963.53 1562.16 Q1965.63 1569.35 1969.87 1576.64 L1964.77 1576.64 Q1960 1569.16 1957.61 1561.93 Q1955.26 1554.71 1955.26 1547.58 Q1955.26 1540.48 1957.61 1533.29 Q1959.97 1526.09 1964.77 1518.58 L1969.87 1518.58 Z" fill="#000000" fill-rule="nonzero" fill-opacity="1" /><path clip-path="url(#clip520)" d="M2003.96 1533.45 L2003.96 1538.98 Q2001.47 1537.71 1998.8 1537.07 Q1996.13 1536.44 1993.26 1536.44 Q1988.9 1536.44 1986.7 1537.77 Q1984.54 1539.11 1984.54 1541.79 Q1984.54 1543.82 1986.1 1545 Q1987.66 1546.15 1992.37 1547.2 L1994.37 1547.64 Q2000.61 1548.98 2003.22 1551.43 Q2005.86 1553.85 2005.86 1558.21 Q2005.86 1563.17 2001.92 1566.07 Q1998 1568.97 1991.13 1568.97 Q1988.26 1568.97 1985.14 1568.39 Q1982.06 1567.85 1978.62 1566.74 L1978.62 1560.69 Q1981.87 1562.38 1985.02 1563.24 Q1988.17 1564.07 1991.26 1564.07 Q1995.39 1564.07 1997.62 1562.66 Q1999.85 1561.23 1999.85 1558.65 Q1999.85 1556.27 1998.23 1554.99 Q1996.63 1553.72 1991.19 1552.54 L1989.15 1552.07 Q1983.71 1550.92 1981.29 1548.56 Q1978.87 1546.18 1978.87 1542.04 Q1978.87 1537.01 1982.44 1534.27 Q1986 1531.54 1992.56 1531.54 Q1995.81 1531.54 1998.67 1532.01 Q2001.54 1532.49 2003.96 1533.45 Z" fill="#000000" fill-rule="nonzero" fill-opacity="1" /><path clip-path="url(#clip520)" d="M2014.27 1518.58 L2019.36 1518.58 Q2024.13 1526.09 2026.49 1533.29 Q2028.88 1540.48 2028.88 1547.58 Q2028.88 1554.71 2026.49 1561.93 Q2024.13 1569.16 2019.36 1576.64 L2014.27 1576.64 Q2018.5 1569.35 2020.57 1562.16 Q2022.67 1554.93 2022.67 1547.58 Q2022.67 1540.23 2020.57 1533.06 Q2018.5 1525.9 2014.27 1518.58 Z" fill="#000000" fill-rule="nonzero" fill-opacity="1" /><polyline clip-path="url(#clip525)" style="stroke:#000000; stroke-linecap:round; stroke-linejoin:round; stroke-width:2; stroke-opacity:0.1; fill:none" points="1445.34,1367.03 2352.76,1367.03 "/>
<polyline clip-path="url(#clip525)" style="stroke:#000000; stroke-linecap:round; stroke-linejoin:round; stroke-width:2; stroke-opacity:0.1; fill:none" points="1445.34,1302.15 2352.76,1302.15 "/>
<polyline clip-path="url(#clip525)" style="stroke:#000000; stroke-linecap:round; stroke-linejoin:round; stroke-width:2; stroke-opacity:0.1; fill:none" points="1445.34,1237.28 2352.76,1237.28 "/>
<polyline clip-path="url(#clip525)" style="stroke:#000000; stroke-linecap:round; stroke-linejoin:round; stroke-width:2; stroke-opacity:0.1; fill:none" points="1445.34,1172.4 2352.76,1172.4 "/>
<polyline clip-path="url(#clip525)" style="stroke:#000000; stroke-linecap:round; stroke-linejoin:round; stroke-width:2; stroke-opacity:0.1; fill:none" points="1445.34,1107.53 2352.76,1107.53 "/>
<polyline clip-path="url(#clip520)" style="stroke:#000000; stroke-linecap:round; stroke-linejoin:round; stroke-width:4; stroke-opacity:1; fill:none" points="1445.34,1423.18 1445.34,1071.73 "/>
<polyline clip-path="url(#clip520)" style="stroke:#000000; stroke-linecap:round; stroke-linejoin:round; stroke-width:4; stroke-opacity:1; fill:none" points="1445.34,1367.03 1464.24,1367.03 "/>
<polyline clip-path="url(#clip520)" style="stroke:#000000; stroke-linecap:round; stroke-linejoin:round; stroke-width:4; stroke-opacity:1; fill:none" points="1445.34,1302.15 1464.24,1302.15 "/>
<polyline clip-path="url(#clip520)" style="stroke:#000000; stroke-linecap:round; stroke-linejoin:round; stroke-width:4; stroke-opacity:1; fill:none" points="1445.34,1237.28 1464.24,1237.28 "/>
<polyline clip-path="url(#clip520)" style="stroke:#000000; stroke-linecap:round; stroke-linejoin:round; stroke-width:4; stroke-opacity:1; fill:none" points="1445.34,1172.4 1464.24,1172.4 "/>
<polyline clip-path="url(#clip520)" style="stroke:#000000; stroke-linecap:round; stroke-linejoin:round; stroke-width:4; stroke-opacity:1; fill:none" points="1445.34,1107.53 1464.24,1107.53 "/>
<path clip-path="url(#clip520)" d="M1272.88 1367.48 L1302.56 1367.48 L1302.56 1371.41 L1272.88 1371.41 L1272.88 1367.48 Z" fill="#000000" fill-rule="nonzero" fill-opacity="1" /><path clip-path="url(#clip520)" d="M1322.65 1352.83 Q1319.04 1352.83 1317.21 1356.39 Q1315.41 1359.93 1315.41 1367.06 Q1315.41 1374.17 1317.21 1377.73 Q1319.04 1381.27 1322.65 1381.27 Q1326.29 1381.27 1328.09 1377.73 Q1329.92 1374.17 1329.92 1367.06 Q1329.92 1359.93 1328.09 1356.39 Q1326.29 1352.83 1322.65 1352.83 M1322.65 1349.12 Q1328.46 1349.12 1331.52 1353.73 Q1334.6 1358.31 1334.6 1367.06 Q1334.6 1375.79 1331.52 1380.39 Q1328.46 1384.98 1322.65 1384.98 Q1316.84 1384.98 1313.76 1380.39 Q1310.71 1375.79 1310.71 1367.06 Q1310.71 1358.31 1313.76 1353.73 Q1316.84 1349.12 1322.65 1349.12 Z" fill="#000000" fill-rule="nonzero" fill-opacity="1" /><path clip-path="url(#clip520)" d="M1342.81 1378.43 L1347.7 1378.43 L1347.7 1384.31 L1342.81 1384.31 L1342.81 1378.43 Z" fill="#000000" fill-rule="nonzero" fill-opacity="1" /><path clip-path="url(#clip520)" d="M1367.88 1352.83 Q1364.27 1352.83 1362.44 1356.39 Q1360.64 1359.93 1360.64 1367.06 Q1360.64 1374.17 1362.44 1377.73 Q1364.27 1381.27 1367.88 1381.27 Q1371.52 1381.27 1373.32 1377.73 Q1375.15 1374.17 1375.15 1367.06 Q1375.15 1359.93 1373.32 1356.39 Q1371.52 1352.83 1367.88 1352.83 M1367.88 1349.12 Q1373.69 1349.12 1376.75 1353.73 Q1379.83 1358.31 1379.83 1367.06 Q1379.83 1375.79 1376.75 1380.39 Q1373.69 1384.98 1367.88 1384.98 Q1362.07 1384.98 1358.99 1380.39 Q1355.94 1375.79 1355.94 1367.06 Q1355.94 1358.31 1358.99 1353.73 Q1362.07 1349.12 1367.88 1349.12 Z" fill="#000000" fill-rule="nonzero" fill-opacity="1" /><path clip-path="url(#clip520)" d="M1402.21 1365.67 Q1405.57 1366.39 1407.44 1368.66 Q1409.34 1370.93 1409.34 1374.26 Q1409.34 1379.38 1405.82 1382.18 Q1402.3 1384.98 1395.82 1384.98 Q1393.65 1384.98 1391.33 1384.54 Q1389.04 1384.12 1386.59 1383.26 L1386.59 1378.75 Q1388.53 1379.89 1390.85 1380.46 Q1393.16 1381.04 1395.68 1381.04 Q1400.08 1381.04 1402.37 1379.31 Q1404.69 1377.57 1404.69 1374.26 Q1404.69 1371.2 1402.54 1369.49 Q1400.41 1367.76 1396.59 1367.76 L1392.56 1367.76 L1392.56 1363.91 L1396.77 1363.91 Q1400.22 1363.91 1402.05 1362.55 Q1403.88 1361.16 1403.88 1358.57 Q1403.88 1355.9 1401.98 1354.49 Q1400.1 1353.06 1396.59 1353.06 Q1394.66 1353.06 1392.47 1353.47 Q1390.27 1353.89 1387.63 1354.77 L1387.63 1350.6 Q1390.29 1349.86 1392.6 1349.49 Q1394.94 1349.12 1397 1349.12 Q1402.33 1349.12 1405.43 1351.55 Q1408.53 1353.96 1408.53 1358.08 Q1408.53 1360.95 1406.89 1362.94 Q1405.24 1364.91 1402.21 1365.67 Z" fill="#000000" fill-rule="nonzero" fill-opacity="1" /><path clip-path="url(#clip520)" d="M1322 1287.95 Q1318.39 1287.95 1316.56 1291.52 Q1314.76 1295.06 1314.76 1302.19 Q1314.76 1309.29 1316.56 1312.86 Q1318.39 1316.4 1322 1316.4 Q1325.64 1316.4 1327.44 1312.86 Q1329.27 1309.29 1329.27 1302.19 Q1329.27 1295.06 1327.44 1291.52 Q1325.64 1287.95 1322 1287.95 M1322 1284.25 Q1327.81 1284.25 1330.87 1288.85 Q1333.95 1293.44 1333.95 1302.19 Q1333.95 1310.91 1330.87 1315.52 Q1327.81 1320.1 1322 1320.1 Q1316.19 1320.1 1313.11 1315.52 Q1310.06 1310.91 1310.06 1302.19 Q1310.06 1293.44 1313.11 1288.85 Q1316.19 1284.25 1322 1284.25 Z" fill="#000000" fill-rule="nonzero" fill-opacity="1" /><path clip-path="url(#clip520)" d="M1342.17 1313.55 L1347.05 1313.55 L1347.05 1319.43 L1342.17 1319.43 L1342.17 1313.55 Z" fill="#000000" fill-rule="nonzero" fill-opacity="1" /><path clip-path="url(#clip520)" d="M1367.23 1287.95 Q1363.62 1287.95 1361.79 1291.52 Q1359.99 1295.06 1359.99 1302.19 Q1359.99 1309.29 1361.79 1312.86 Q1363.62 1316.4 1367.23 1316.4 Q1370.87 1316.4 1372.67 1312.86 Q1374.5 1309.29 1374.5 1302.19 Q1374.5 1295.06 1372.67 1291.52 Q1370.87 1287.95 1367.23 1287.95 M1367.23 1284.25 Q1373.04 1284.25 1376.1 1288.85 Q1379.18 1293.44 1379.18 1302.19 Q1379.18 1310.91 1376.1 1315.52 Q1373.04 1320.1 1367.23 1320.1 Q1361.42 1320.1 1358.35 1315.52 Q1355.29 1310.91 1355.29 1302.19 Q1355.29 1293.44 1358.35 1288.85 Q1361.42 1284.25 1367.23 1284.25 Z" fill="#000000" fill-rule="nonzero" fill-opacity="1" /><path clip-path="url(#clip520)" d="M1397.4 1287.95 Q1393.79 1287.95 1391.96 1291.52 Q1390.15 1295.06 1390.15 1302.19 Q1390.15 1309.29 1391.96 1312.86 Q1393.79 1316.4 1397.4 1316.4 Q1401.03 1316.4 1402.84 1312.86 Q1404.66 1309.29 1404.66 1302.19 Q1404.66 1295.06 1402.84 1291.52 Q1401.03 1287.95 1397.4 1287.95 M1397.4 1284.25 Q1403.21 1284.25 1406.26 1288.85 Q1409.34 1293.44 1409.34 1302.19 Q1409.34 1310.91 1406.26 1315.52 Q1403.21 1320.1 1397.4 1320.1 Q1391.59 1320.1 1388.51 1315.52 Q1385.45 1310.91 1385.45 1302.19 Q1385.45 1293.44 1388.51 1288.85 Q1391.59 1284.25 1397.4 1284.25 Z" fill="#000000" fill-rule="nonzero" fill-opacity="1" /><path clip-path="url(#clip520)" d="M1322.65 1223.08 Q1319.04 1223.08 1317.21 1226.64 Q1315.41 1230.18 1315.41 1237.31 Q1315.41 1244.42 1317.21 1247.98 Q1319.04 1251.53 1322.65 1251.53 Q1326.29 1251.53 1328.09 1247.98 Q1329.92 1244.42 1329.92 1237.31 Q1329.92 1230.18 1328.09 1226.64 Q1326.29 1223.08 1322.65 1223.08 M1322.65 1219.37 Q1328.46 1219.37 1331.52 1223.98 Q1334.6 1228.56 1334.6 1237.31 Q1334.6 1246.04 1331.52 1250.65 Q1328.46 1255.23 1322.65 1255.23 Q1316.84 1255.23 1313.76 1250.65 Q1310.71 1246.04 1310.71 1237.31 Q1310.71 1228.56 1313.76 1223.98 Q1316.84 1219.37 1322.65 1219.37 Z" fill="#000000" fill-rule="nonzero" fill-opacity="1" /><path clip-path="url(#clip520)" d="M1342.81 1248.68 L1347.7 1248.68 L1347.7 1254.56 L1342.81 1254.56 L1342.81 1248.68 Z" fill="#000000" fill-rule="nonzero" fill-opacity="1" /><path clip-path="url(#clip520)" d="M1367.88 1223.08 Q1364.27 1223.08 1362.44 1226.64 Q1360.64 1230.18 1360.64 1237.31 Q1360.64 1244.42 1362.44 1247.98 Q1364.27 1251.53 1367.88 1251.53 Q1371.52 1251.53 1373.32 1247.98 Q1375.15 1244.42 1375.15 1237.31 Q1375.15 1230.18 1373.32 1226.64 Q1371.52 1223.08 1367.88 1223.08 M1367.88 1219.37 Q1373.69 1219.37 1376.75 1223.98 Q1379.83 1228.56 1379.83 1237.31 Q1379.83 1246.04 1376.75 1250.65 Q1373.69 1255.23 1367.88 1255.23 Q1362.07 1255.23 1358.99 1250.65 Q1355.94 1246.04 1355.94 1237.31 Q1355.94 1228.56 1358.99 1223.98 Q1362.07 1219.37 1367.88 1219.37 Z" fill="#000000" fill-rule="nonzero" fill-opacity="1" /><path clip-path="url(#clip520)" d="M1402.21 1235.92 Q1405.57 1236.64 1407.44 1238.91 Q1409.34 1241.18 1409.34 1244.51 Q1409.34 1249.63 1405.82 1252.43 Q1402.3 1255.23 1395.82 1255.23 Q1393.65 1255.23 1391.33 1254.79 Q1389.04 1254.37 1386.59 1253.52 L1386.59 1249 Q1388.53 1250.14 1390.85 1250.72 Q1393.16 1251.29 1395.68 1251.29 Q1400.08 1251.29 1402.37 1249.56 Q1404.69 1247.82 1404.69 1244.51 Q1404.69 1241.46 1402.54 1239.74 Q1400.41 1238.01 1396.59 1238.01 L1392.56 1238.01 L1392.56 1234.16 L1396.77 1234.16 Q1400.22 1234.16 1402.05 1232.8 Q1403.88 1231.41 1403.88 1228.82 Q1403.88 1226.16 1401.98 1224.74 Q1400.1 1223.31 1396.59 1223.31 Q1394.66 1223.31 1392.47 1223.73 Q1390.27 1224.14 1387.63 1225.02 L1387.63 1220.85 Q1390.29 1220.11 1392.6 1219.74 Q1394.94 1219.37 1397 1219.37 Q1402.33 1219.37 1405.43 1221.8 Q1408.53 1224.21 1408.53 1228.33 Q1408.53 1231.2 1406.89 1233.19 Q1405.24 1235.16 1402.21 1235.92 Z" fill="#000000" fill-rule="nonzero" fill-opacity="1" /><path clip-path="url(#clip520)" d="M1321.84 1158.2 Q1318.23 1158.2 1316.4 1161.77 Q1314.6 1165.31 1314.6 1172.44 Q1314.6 1179.55 1316.4 1183.11 Q1318.23 1186.65 1321.84 1186.65 Q1325.48 1186.65 1327.28 1183.11 Q1329.11 1179.55 1329.11 1172.44 Q1329.11 1165.31 1327.28 1161.77 Q1325.48 1158.2 1321.84 1158.2 M1321.84 1154.5 Q1327.65 1154.5 1330.71 1159.11 Q1333.79 1163.69 1333.79 1172.44 Q1333.79 1181.17 1330.71 1185.77 Q1327.65 1190.36 1321.84 1190.36 Q1316.03 1190.36 1312.95 1185.77 Q1309.9 1181.17 1309.9 1172.44 Q1309.9 1163.69 1312.95 1159.11 Q1316.03 1154.5 1321.84 1154.5 Z" fill="#000000" fill-rule="nonzero" fill-opacity="1" /><path clip-path="url(#clip520)" d="M1342 1183.8 L1346.89 1183.8 L1346.89 1189.68 L1342 1189.68 L1342 1183.8 Z" fill="#000000" fill-rule="nonzero" fill-opacity="1" /><path clip-path="url(#clip520)" d="M1367.07 1158.2 Q1363.46 1158.2 1361.63 1161.77 Q1359.83 1165.31 1359.83 1172.44 Q1359.83 1179.55 1361.63 1183.11 Q1363.46 1186.65 1367.07 1186.65 Q1370.71 1186.65 1372.51 1183.11 Q1374.34 1179.55 1374.34 1172.44 Q1374.34 1165.31 1372.51 1161.77 Q1370.71 1158.2 1367.07 1158.2 M1367.07 1154.5 Q1372.88 1154.5 1375.94 1159.11 Q1379.02 1163.69 1379.02 1172.44 Q1379.02 1181.17 1375.94 1185.77 Q1372.88 1190.36 1367.07 1190.36 Q1361.26 1190.36 1358.18 1185.77 Q1355.13 1181.17 1355.13 1172.44 Q1355.13 1163.69 1358.18 1159.11 Q1361.26 1154.5 1367.07 1154.5 Z" fill="#000000" fill-rule="nonzero" fill-opacity="1" /><path clip-path="url(#clip520)" d="M1397.81 1170.54 Q1394.66 1170.54 1392.81 1172.69 Q1390.98 1174.85 1390.98 1178.6 Q1390.98 1182.32 1392.81 1184.5 Q1394.66 1186.65 1397.81 1186.65 Q1400.96 1186.65 1402.79 1184.5 Q1404.64 1182.32 1404.64 1178.6 Q1404.64 1174.85 1402.79 1172.69 Q1400.96 1170.54 1397.81 1170.54 M1407.1 1155.89 L1407.1 1160.15 Q1405.34 1159.31 1403.53 1158.87 Q1401.75 1158.43 1399.99 1158.43 Q1395.36 1158.43 1392.91 1161.56 Q1390.48 1164.68 1390.13 1171 Q1391.49 1168.99 1393.55 1167.92 Q1395.61 1166.84 1398.09 1166.84 Q1403.3 1166.84 1406.31 1170.01 Q1409.34 1173.16 1409.34 1178.6 Q1409.34 1183.92 1406.19 1187.14 Q1403.04 1190.36 1397.81 1190.36 Q1391.82 1190.36 1388.65 1185.77 Q1385.48 1181.17 1385.48 1172.44 Q1385.48 1164.24 1389.36 1159.38 Q1393.25 1154.5 1399.8 1154.5 Q1401.56 1154.5 1403.35 1154.85 Q1405.15 1155.19 1407.1 1155.89 Z" fill="#000000" fill-rule="nonzero" fill-opacity="1" /><path clip-path="url(#clip520)" d="M1322.19 1093.33 Q1318.58 1093.33 1316.75 1096.89 Q1314.94 1100.44 1314.94 1107.56 Q1314.94 1114.67 1316.75 1118.24 Q1318.58 1121.78 1322.19 1121.78 Q1325.82 1121.78 1327.63 1118.24 Q1329.46 1114.67 1329.46 1107.56 Q1329.46 1100.44 1327.63 1096.89 Q1325.82 1093.33 1322.19 1093.33 M1322.19 1089.62 Q1328 1089.62 1331.05 1094.23 Q1334.13 1098.81 1334.13 1107.56 Q1334.13 1116.29 1331.05 1120.9 Q1328 1125.48 1322.19 1125.48 Q1316.38 1125.48 1313.3 1120.9 Q1310.24 1116.29 1310.24 1107.56 Q1310.24 1098.81 1313.3 1094.23 Q1316.38 1089.62 1322.19 1089.62 Z" fill="#000000" fill-rule="nonzero" fill-opacity="1" /><path clip-path="url(#clip520)" d="M1342.35 1118.93 L1347.23 1118.93 L1347.23 1124.81 L1342.35 1124.81 L1342.35 1118.93 Z" fill="#000000" fill-rule="nonzero" fill-opacity="1" /><path clip-path="url(#clip520)" d="M1367.42 1093.33 Q1363.81 1093.33 1361.98 1096.89 Q1360.17 1100.44 1360.17 1107.56 Q1360.17 1114.67 1361.98 1118.24 Q1363.81 1121.78 1367.42 1121.78 Q1371.05 1121.78 1372.86 1118.24 Q1374.69 1114.67 1374.69 1107.56 Q1374.69 1100.44 1372.86 1096.89 Q1371.05 1093.33 1367.42 1093.33 M1367.42 1089.62 Q1373.23 1089.62 1376.29 1094.23 Q1379.36 1098.81 1379.36 1107.56 Q1379.36 1116.29 1376.29 1120.9 Q1373.23 1125.48 1367.42 1125.48 Q1361.61 1125.48 1358.53 1120.9 Q1355.48 1116.29 1355.48 1107.56 Q1355.48 1098.81 1358.53 1094.23 Q1361.61 1089.62 1367.42 1089.62 Z" fill="#000000" fill-rule="nonzero" fill-opacity="1" /><path clip-path="url(#clip520)" d="M1387.72 1124.09 L1387.72 1119.83 Q1389.48 1120.67 1391.29 1121.11 Q1393.09 1121.55 1394.83 1121.55 Q1399.46 1121.55 1401.89 1118.44 Q1404.34 1115.32 1404.69 1108.98 Q1403.35 1110.97 1401.29 1112.03 Q1399.22 1113.1 1396.72 1113.1 Q1391.54 1113.1 1388.51 1109.97 Q1385.5 1106.82 1385.5 1101.38 Q1385.5 1096.06 1388.65 1092.84 Q1391.79 1089.62 1397.03 1089.62 Q1403.02 1089.62 1406.17 1094.23 Q1409.34 1098.81 1409.34 1107.56 Q1409.34 1115.74 1405.45 1120.62 Q1401.59 1125.48 1395.04 1125.48 Q1393.28 1125.48 1391.47 1125.13 Q1389.66 1124.79 1387.72 1124.09 M1397.03 1109.44 Q1400.17 1109.44 1402 1107.29 Q1403.85 1105.13 1403.85 1101.38 Q1403.85 1097.66 1402 1095.5 Q1400.17 1093.33 1397.03 1093.33 Q1393.88 1093.33 1392.03 1095.5 Q1390.2 1097.66 1390.2 1101.38 Q1390.2 1105.13 1392.03 1107.29 Q1393.88 1109.44 1397.03 1109.44 Z" fill="#000000" fill-rule="nonzero" fill-opacity="1" /><path clip-path="url(#clip520)" d="M1182.58 1250.93 L1183.51 1251.49 Q1181.99 1254.99 1179.58 1259.34 Q1181.99 1263.69 1183.51 1267.19 L1182.58 1267.73 Q1179.27 1263.92 1176.72 1259.34 Q1179.29 1254.72 1182.58 1250.93 Z" fill="#000000" fill-rule="nonzero" fill-opacity="1" /><path clip-path="url(#clip520)" d="M1194.88 1247.77 Q1196.68 1247.77 1197.71 1248.9 Q1198.71 1250.02 1198.71 1251.31 Q1198.71 1252.54 1198 1253.18 Q1197.29 1253.82 1196.39 1253.82 Q1195.17 1253.82 1194.11 1252.92 Q1193.04 1252.02 1192.82 1250.67 Q1191.98 1251.99 1191.98 1253.95 Q1191.98 1255.24 1192.66 1256.37 Q1193.33 1257.46 1194.2 1258.14 Q1195.07 1258.78 1196.33 1259.36 Q1197.55 1259.91 1198.29 1260.14 Q1199 1260.33 1199.77 1260.49 L1208.79 1262.74 Q1213.08 1263.84 1214.59 1263.84 Q1216.46 1263.84 1217.71 1262.94 Q1218.94 1262.04 1218.94 1260.23 Q1218.94 1259.52 1218.74 1258.72 Q1218.52 1257.91 1217.94 1256.88 Q1217.33 1255.82 1216.42 1254.89 Q1215.49 1253.92 1213.91 1252.99 Q1212.33 1252.05 1210.31 1251.44 Q1209.6 1251.25 1209.6 1250.6 Q1209.6 1249.8 1210.24 1249.8 Q1210.79 1249.8 1211.95 1250.25 Q1213.08 1250.67 1214.56 1251.6 Q1216.01 1252.5 1217.33 1253.69 Q1218.61 1254.89 1219.52 1256.66 Q1220.42 1258.43 1220.42 1260.36 Q1220.42 1263.13 1218.94 1264.97 Q1217.46 1266.8 1215.39 1267.48 Q1215.68 1267.64 1216.07 1267.87 Q1216.46 1268.09 1217.33 1268.77 Q1218.16 1269.41 1218.81 1270.15 Q1219.42 1270.89 1219.9 1272.05 Q1220.42 1273.18 1220.42 1274.4 Q1220.42 1275.95 1219.97 1277.33 Q1219.52 1278.69 1218.49 1279.65 Q1217.46 1280.62 1216.04 1280.62 Q1214.46 1280.62 1213.37 1279.56 Q1212.24 1278.46 1212.24 1276.98 Q1212.24 1276.05 1212.79 1275.3 Q1213.33 1274.53 1214.52 1274.53 Q1215.85 1274.53 1216.84 1275.43 Q1217.84 1276.34 1218.1 1277.62 Q1218.94 1276.3 1218.94 1274.34 Q1218.94 1272.21 1217.07 1270.54 Q1215.2 1268.86 1212.08 1268.06 Q1204.57 1266.06 1201.22 1265.29 Q1197.84 1264.52 1196.39 1264.52 Q1195.04 1264.52 1194.11 1264.87 Q1193.17 1265.22 1192.75 1265.84 Q1192.3 1266.42 1192.14 1266.96 Q1191.98 1267.48 1191.98 1268.06 Q1191.98 1269.02 1192.37 1270.12 Q1192.75 1271.18 1193.66 1272.47 Q1194.53 1273.73 1196.33 1274.92 Q1198.13 1276.11 1200.61 1276.92 Q1201.35 1277.08 1201.35 1277.78 Q1201.32 1278.56 1200.68 1278.56 Q1200.13 1278.56 1199 1278.14 Q1197.84 1277.69 1196.39 1276.79 Q1194.94 1275.85 1193.66 1274.66 Q1192.34 1273.44 1191.43 1271.67 Q1190.53 1269.86 1190.53 1267.93 Q1190.53 1267.06 1190.72 1266.22 Q1190.89 1265.35 1191.37 1264.32 Q1191.85 1263.26 1192.91 1262.33 Q1193.98 1261.39 1195.52 1260.81 Q1194.78 1260.43 1194.07 1259.91 Q1193.37 1259.36 1192.5 1258.53 Q1191.59 1257.66 1191.08 1256.46 Q1190.53 1255.24 1190.53 1253.89 Q1190.53 1252.57 1190.89 1251.28 Q1191.21 1249.99 1192.27 1248.9 Q1193.3 1247.77 1194.88 1247.77 Z" fill="#000000" fill-rule="nonzero" fill-opacity="1" /><path clip-path="url(#clip520)" d="M1232.47 1240.31 Q1231.09 1240.31 1230.44 1239.52 Q1229.78 1238.73 1229.78 1237.72 Q1229.78 1236.66 1230.48 1235.91 Q1231.16 1235.15 1232.35 1235.15 Q1233.64 1235.15 1234.36 1236.05 Q1235.08 1236.93 1234.9 1238.19 Q1236.75 1237.09 1237.58 1235.06 Q1238.42 1233.01 1238.42 1231.11 Q1238.42 1229.13 1236.7 1227.53 Q1234.99 1225.9 1230.8 1225.9 Q1227.24 1225.9 1225.18 1227.3 Q1223.13 1228.68 1223.13 1231.4 L1223.13 1233.43 Q1223.13 1234.13 1223.07 1234.34 Q1223 1234.54 1222.61 1234.54 Q1222.16 1234.54 1222.07 1233.84 Q1222.07 1233.14 1221.94 1232.04 Q1221.85 1229.35 1219.53 1227.93 Q1217.36 1226.65 1214.27 1226.65 Q1211.46 1226.65 1210.28 1228 Q1209.09 1229.33 1209.09 1231.07 Q1209.09 1232.69 1209.76 1234.47 Q1210.44 1236.25 1211.95 1237.22 Q1211.95 1234.36 1214.27 1234.36 Q1215.29 1234.36 1215.96 1235.01 Q1216.62 1235.64 1216.62 1236.7 Q1216.62 1237.72 1215.99 1238.39 Q1215.33 1239.07 1214.23 1239.07 Q1211.59 1239.07 1209.76 1236.73 Q1207.94 1234.36 1207.94 1230.89 Q1207.94 1227.46 1209.74 1224.93 Q1211.55 1222.39 1214.32 1222.39 Q1217.05 1222.39 1219.28 1224.19 Q1221.51 1225.99 1222.43 1228.86 Q1223.13 1225.34 1225.52 1223.24 Q1227.89 1221.15 1230.8 1221.15 Q1234.41 1221.15 1237.07 1223.99 Q1239.7 1226.83 1239.7 1230.98 Q1239.7 1234.81 1237.63 1237.56 Q1235.56 1240.31 1232.47 1240.31 Z" fill="#000000" fill-rule="nonzero" fill-opacity="1" /><polyline clip-path="url(#clip525)" style="stroke:#e26f46; stroke-linecap:round; stroke-linejoin:round; stroke-width:3; stroke-opacity:1; fill:none" stroke-dasharray="12, 6, 2, 6" points="1471.02,1302.15 1496.2,1302.15 1521.38,1302.15 1546.56,1081.68 1571.73,1314 1596.91,1388.75 1622.09,1413.23 1647.27,1374.2 1672.45,1390.99 1697.62,1412.57 1722.8,1369.81 1747.98,1337.18 1773.16,1324.51 1798.34,1299.72 1823.51,1286.36 1848.69,1279.7 1873.87,1302.76 1899.05,1273.17 1924.23,1289.26 1949.4,1293.68 1974.58,1319.15 1999.76,1306.59 2024.94,1301.8 2050.12,1332.08 2075.29,1288.97 2100.47,1303.64 2125.65,1274.91 2150.83,1347.83 2176.01,1294.68 2201.18,1278.27 2226.36,1315.09 2251.54,1297.28 2276.72,1315.6 2301.9,1276.08 2327.07,1316.18 "/>
</svg>
