<?xml version="1.0" encoding="utf-8"?>
<svg xmlns="http://www.w3.org/2000/svg" xmlns:xlink="http://www.w3.org/1999/xlink" width="600" height="400" viewBox="0 0 2400 1600">
<defs>
  <clipPath id="clip640">
    <rect x="0" y="0" width="2400" height="1600"/>
  </clipPath>
</defs>
<path clip-path="url(#clip640)" d="M0 1600 L2400 1600 L2400 0 L0 0  Z" fill="#ffffff" fill-rule="evenodd" fill-opacity="1"/>
<defs>
  <clipPath id="clip641">
    <rect x="203" y="47" width="2150" height="1377"/>
  </clipPath>
</defs>
<path clip-path="url(#clip640)" d="M203.964 1423.18 L1110.81 1423.18 L1110.81 47.2441 L203.964 47.2441  Z" fill="#ffffff" fill-rule="evenodd" fill-opacity="1"/>
<defs>
  <clipPath id="clip642">
    <rect x="203" y="47" width="908" height="1377"/>
  </clipPath>
</defs>
<polyline clip-path="url(#clip642)" style="stroke:#000000; stroke-linecap:round; stroke-linejoin:round; stroke-width:2; stroke-opacity:0.1; fill:none" points="229.629,1423.18 229.629,47.2441 "/>
<polyline clip-path="url(#clip642)" style="stroke:#000000; stroke-linecap:round; stroke-linejoin:round; stroke-width:2; stroke-opacity:0.1; fill:none" points="481.252,1423.18 481.252,47.2441 "/>
<polyline clip-path="url(#clip642)" style="stroke:#000000; stroke-linecap:round; stroke-linejoin:round; stroke-width:2; stroke-opacity:0.1; fill:none" points="732.874,1423.18 732.874,47.2441 "/>
<polyline clip-path="url(#clip642)" style="stroke:#000000; stroke-linecap:round; stroke-linejoin:round; stroke-width:2; stroke-opacity:0.1; fill:none" points="984.497,1423.18 984.497,47.2441 "/>
<polyline clip-path="url(#clip642)" style="stroke:#000000; stroke-linecap:round; stroke-linejoin:round; stroke-width:2; stroke-opacity:0.1; fill:none" points="203.964,1388.58 1110.81,1388.58 "/>
<polyline clip-path="url(#clip642)" style="stroke:#000000; stroke-linecap:round; stroke-linejoin:round; stroke-width:2; stroke-opacity:0.1; fill:none" points="203.964,946.386 1110.81,946.386 "/>
<polyline clip-path="url(#clip642)" style="stroke:#000000; stroke-linecap:round; stroke-linejoin:round; stroke-width:2; stroke-opacity:0.1; fill:none" points="203.964,504.196 1110.81,504.196 "/>
<polyline clip-path="url(#clip642)" style="stroke:#000000; stroke-linecap:round; stroke-linejoin:round; stroke-width:2; stroke-opacity:0.1; fill:none" points="203.964,62.0062 1110.81,62.0062 "/>
<polyline clip-path="url(#clip640)" style="stroke:#000000; stroke-linecap:round; stroke-linejoin:round; stroke-width:4; stroke-opacity:1; fill:none" points="203.964,1423.18 1110.81,1423.18 "/>
<polyline clip-path="url(#clip640)" style="stroke:#000000; stroke-linecap:round; stroke-linejoin:round; stroke-width:4; stroke-opacity:1; fill:none" points="229.629,1423.18 229.629,1404.28 "/>
<polyline clip-path="url(#clip640)" style="stroke:#000000; stroke-linecap:round; stroke-linejoin:round; stroke-width:4; stroke-opacity:1; fill:none" points="481.252,1423.18 481.252,1404.28 "/>
<polyline clip-path="url(#clip640)" style="stroke:#000000; stroke-linecap:round; stroke-linejoin:round; stroke-width:4; stroke-opacity:1; fill:none" points="732.874,1423.18 732.874,1404.28 "/>
<polyline clip-path="url(#clip640)" style="stroke:#000000; stroke-linecap:round; stroke-linejoin:round; stroke-width:4; stroke-opacity:1; fill:none" points="984.497,1423.18 984.497,1404.28 "/>
<path clip-path="url(#clip640)" d="M229.629 1454.1 Q226.018 1454.1 224.189 1457.66 Q222.384 1461.2 222.384 1468.33 Q222.384 1475.44 224.189 1479.01 Q226.018 1482.55 229.629 1482.55 Q233.263 1482.55 235.069 1479.01 Q236.898 1475.44 236.898 1468.33 Q236.898 1461.2 235.069 1457.66 Q233.263 1454.1 229.629 1454.1 M229.629 1450.39 Q235.439 1450.39 238.495 1455 Q241.573 1459.58 241.573 1468.33 Q241.573 1477.06 238.495 1481.67 Q235.439 1486.25 229.629 1486.25 Q223.819 1486.25 220.74 1481.67 Q217.685 1477.06 217.685 1468.33 Q217.685 1459.58 220.74 1455 Q223.819 1450.39 229.629 1450.39 Z" fill="#000000" fill-rule="nonzero" fill-opacity="1" /><path clip-path="url(#clip640)" d="M471.634 1481.64 L479.273 1481.64 L479.273 1455.28 L470.962 1456.95 L470.962 1452.69 L479.226 1451.02 L483.902 1451.02 L483.902 1481.64 L491.541 1481.64 L491.541 1485.58 L471.634 1485.58 L471.634 1481.64 Z" fill="#000000" fill-rule="nonzero" fill-opacity="1" /><path clip-path="url(#clip640)" d="M727.527 1481.64 L743.847 1481.64 L743.847 1485.58 L721.902 1485.58 L721.902 1481.64 Q724.564 1478.89 729.148 1474.26 Q733.754 1469.61 734.935 1468.27 Q737.18 1465.74 738.06 1464.01 Q738.962 1462.25 738.962 1460.56 Q738.962 1457.8 737.018 1456.07 Q735.097 1454.33 731.995 1454.33 Q729.796 1454.33 727.342 1455.09 Q724.912 1455.86 722.134 1457.41 L722.134 1452.69 Q724.958 1451.55 727.411 1450.97 Q729.865 1450.39 731.902 1450.39 Q737.273 1450.39 740.467 1453.08 Q743.661 1455.77 743.661 1460.26 Q743.661 1462.39 742.851 1464.31 Q742.064 1466.2 739.958 1468.8 Q739.379 1469.47 736.277 1472.69 Q733.175 1475.88 727.527 1481.64 Z" fill="#000000" fill-rule="nonzero" fill-opacity="1" /><path clip-path="url(#clip640)" d="M988.745 1466.95 Q992.101 1467.66 993.976 1469.93 Q995.874 1472.2 995.874 1475.53 Q995.874 1480.65 992.356 1483.45 Q988.837 1486.25 982.356 1486.25 Q980.18 1486.25 977.865 1485.81 Q975.574 1485.39 973.12 1484.54 L973.12 1480.02 Q975.064 1481.16 977.379 1481.74 Q979.694 1482.32 982.217 1482.32 Q986.615 1482.32 988.907 1480.58 Q991.222 1478.84 991.222 1475.53 Q991.222 1472.48 989.069 1470.77 Q986.939 1469.03 983.12 1469.03 L979.092 1469.03 L979.092 1465.19 L983.305 1465.19 Q986.754 1465.19 988.583 1463.82 Q990.411 1462.43 990.411 1459.84 Q990.411 1457.18 988.513 1455.77 Q986.638 1454.33 983.12 1454.33 Q981.199 1454.33 978.999 1454.75 Q976.8 1455.16 974.162 1456.04 L974.162 1451.88 Q976.824 1451.14 979.138 1450.77 Q981.476 1450.39 983.536 1450.39 Q988.861 1450.39 991.962 1452.83 Q995.064 1455.23 995.064 1459.35 Q995.064 1462.22 993.421 1464.21 Q991.777 1466.18 988.745 1466.95 Z" fill="#000000" fill-rule="nonzero" fill-opacity="1" /><path clip-path="url(#clip640)" d="M527.559 1520.52 L567.758 1520.52 L567.758 1525.93 L550.889 1525.93 L550.889 1568.04 L544.428 1568.04 L544.428 1525.93 L527.559 1525.93 L527.559 1520.52 Z" fill="#000000" fill-rule="nonzero" fill-opacity="1" /><path clip-path="url(#clip640)" d="M571.705 1532.4 L577.562 1532.4 L577.562 1568.04 L571.705 1568.04 L571.705 1532.4 M571.705 1518.52 L577.562 1518.52 L577.562 1525.93 L571.705 1525.93 L571.705 1518.52 Z" fill="#000000" fill-rule="nonzero" fill-opacity="1" /><path clip-path="url(#clip640)" d="M617.57 1539.24 Q619.766 1535.29 622.822 1533.41 Q625.877 1531.54 630.015 1531.54 Q635.585 1531.54 638.609 1535.45 Q641.633 1539.33 641.633 1546.53 L641.633 1568.04 L635.744 1568.04 L635.744 1546.72 Q635.744 1541.59 633.93 1539.11 Q632.116 1536.63 628.392 1536.63 Q623.84 1536.63 621.199 1539.65 Q618.557 1542.68 618.557 1547.9 L618.557 1568.04 L612.669 1568.04 L612.669 1546.72 Q612.669 1541.56 610.854 1539.11 Q609.04 1536.63 605.252 1536.63 Q600.765 1536.63 598.123 1539.68 Q595.481 1542.71 595.481 1547.9 L595.481 1568.04 L589.593 1568.04 L589.593 1532.4 L595.481 1532.4 L595.481 1537.93 Q597.486 1534.66 600.287 1533.1 Q603.088 1531.54 606.939 1531.54 Q610.822 1531.54 613.528 1533.51 Q616.265 1535.48 617.57 1539.24 Z" fill="#000000" fill-rule="nonzero" fill-opacity="1" /><path clip-path="url(#clip640)" d="M683.805 1548.76 L683.805 1551.62 L656.878 1551.62 Q657.26 1557.67 660.507 1560.85 Q663.785 1564 669.61 1564 Q672.984 1564 676.135 1563.17 Q679.317 1562.35 682.437 1560.69 L682.437 1566.23 Q679.286 1567.57 675.975 1568.27 Q672.665 1568.97 669.26 1568.97 Q660.73 1568.97 655.733 1564 Q650.767 1559.04 650.767 1550.57 Q650.767 1541.82 655.478 1536.69 Q660.22 1531.54 668.241 1531.54 Q675.434 1531.54 679.604 1536.18 Q683.805 1540.8 683.805 1548.76 M677.949 1547.04 Q677.885 1542.23 675.243 1539.37 Q672.633 1536.5 668.305 1536.5 Q663.403 1536.5 660.443 1539.27 Q657.515 1542.04 657.069 1547.07 L677.949 1547.04 Z" fill="#000000" fill-rule="nonzero" fill-opacity="1" /><path clip-path="url(#clip640)" d="M728.206 1518.58 Q723.941 1525.9 721.872 1533.06 Q719.803 1540.23 719.803 1547.58 Q719.803 1554.93 721.872 1562.16 Q723.973 1569.35 728.206 1576.64 L723.114 1576.64 Q718.339 1569.16 715.952 1561.93 Q713.597 1554.71 713.597 1547.58 Q713.597 1540.48 715.952 1533.29 Q718.307 1526.09 723.114 1518.58 L728.206 1518.58 Z" fill="#000000" fill-rule="nonzero" fill-opacity="1" /><path clip-path="url(#clip640)" d="M762.294 1533.45 L762.294 1538.98 Q759.812 1537.71 757.138 1537.07 Q754.465 1536.44 751.6 1536.44 Q747.24 1536.44 745.043 1537.77 Q742.879 1539.11 742.879 1541.79 Q742.879 1543.82 744.439 1545 Q745.998 1546.15 750.709 1547.2 L752.714 1547.64 Q758.952 1548.98 761.562 1551.43 Q764.204 1553.85 764.204 1558.21 Q764.204 1563.17 760.257 1566.07 Q756.343 1568.97 749.468 1568.97 Q746.603 1568.97 743.484 1568.39 Q740.396 1567.85 736.959 1566.74 L736.959 1560.69 Q740.205 1562.38 743.356 1563.24 Q746.508 1564.07 749.595 1564.07 Q753.733 1564.07 755.961 1562.66 Q758.189 1561.23 758.189 1558.65 Q758.189 1556.27 756.565 1554.99 Q754.974 1553.72 749.531 1552.54 L747.494 1552.07 Q742.052 1550.92 739.633 1548.56 Q737.214 1546.18 737.214 1542.04 Q737.214 1537.01 740.778 1534.27 Q744.343 1531.54 750.9 1531.54 Q754.146 1531.54 757.011 1532.01 Q759.876 1532.49 762.294 1533.45 Z" fill="#000000" fill-rule="nonzero" fill-opacity="1" /><path clip-path="url(#clip640)" d="M772.607 1518.58 L777.699 1518.58 Q782.474 1526.09 784.829 1533.29 Q787.216 1540.48 787.216 1547.58 Q787.216 1554.71 784.829 1561.93 Q782.474 1569.16 777.699 1576.64 L772.607 1576.64 Q776.84 1569.35 778.909 1562.16 Q781.01 1554.93 781.01 1547.58 Q781.01 1540.23 778.909 1533.06 Q776.84 1525.9 772.607 1518.58 Z" fill="#000000" fill-rule="nonzero" fill-opacity="1" /><polyline clip-path="url(#clip640)" style="stroke:#000000; stroke-linecap:round; stroke-linejoin:round; stroke-width:4; stroke-opacity:1; fill:none" points="203.964,1423.18 203.964,47.2441 "/>
<polyline clip-path="url(#clip640)" style="stroke:#000000; stroke-linecap:round; stroke-linejoin:round; stroke-width:4; stroke-opacity:1; fill:none" points="203.964,1388.58 222.861,1388.58 "/>
<polyline clip-path="url(#clip640)" style="stroke:#000000; stroke-linecap:round; stroke-linejoin:round; stroke-width:4; stroke-opacity:1; fill:none" points="203.964,946.386 222.861,946.386 "/>
<polyline clip-path="url(#clip640)" style="stroke:#000000; stroke-linecap:round; stroke-linejoin:round; stroke-width:4; stroke-opacity:1; fill:none" points="203.964,504.196 222.861,504.196 "/>
<polyline clip-path="url(#clip640)" style="stroke:#000000; stroke-linecap:round; stroke-linejoin:round; stroke-width:4; stroke-opacity:1; fill:none" points="203.964,62.0062 222.861,62.0062 "/>
<path clip-path="url(#clip640)" d="M156.019 1374.37 Q152.408 1374.37 150.579 1377.94 Q148.774 1381.48 148.774 1388.61 Q148.774 1395.72 150.579 1399.28 Q152.408 1402.82 156.019 1402.82 Q159.653 1402.82 161.459 1399.28 Q163.288 1395.72 163.288 1388.61 Q163.288 1381.48 161.459 1377.94 Q159.653 1374.37 156.019 1374.37 M156.019 1370.67 Q161.829 1370.67 164.885 1375.28 Q167.964 1379.86 167.964 1388.61 Q167.964 1397.34 164.885 1401.94 Q161.829 1406.53 156.019 1406.53 Q150.209 1406.53 147.13 1401.94 Q144.075 1397.34 144.075 1388.61 Q144.075 1379.86 147.13 1375.28 Q150.209 1370.67 156.019 1370.67 Z" fill="#000000" fill-rule="nonzero" fill-opacity="1" /><path clip-path="url(#clip640)" d="M116.668 959.731 L124.306 959.731 L124.306 933.365 L115.996 935.032 L115.996 930.773 L124.26 929.106 L128.936 929.106 L128.936 959.731 L136.575 959.731 L136.575 963.666 L116.668 963.666 L116.668 959.731 Z" fill="#000000" fill-rule="nonzero" fill-opacity="1" /><path clip-path="url(#clip640)" d="M156.019 932.185 Q152.408 932.185 150.579 935.75 Q148.774 939.291 148.774 946.421 Q148.774 953.527 150.579 957.092 Q152.408 960.634 156.019 960.634 Q159.653 960.634 161.459 957.092 Q163.288 953.527 163.288 946.421 Q163.288 939.291 161.459 935.75 Q159.653 932.185 156.019 932.185 M156.019 928.481 Q161.829 928.481 164.885 933.088 Q167.964 937.671 167.964 946.421 Q167.964 955.148 164.885 959.754 Q161.829 964.337 156.019 964.337 Q150.209 964.337 147.13 959.754 Q144.075 955.148 144.075 946.421 Q144.075 937.671 147.13 933.088 Q150.209 928.481 156.019 928.481 Z" fill="#000000" fill-rule="nonzero" fill-opacity="1" /><path clip-path="url(#clip640)" d="M119.885 517.541 L136.204 517.541 L136.204 521.476 L114.26 521.476 L114.26 517.541 Q116.922 514.786 121.505 510.157 Q126.112 505.504 127.292 504.161 Q129.538 501.638 130.417 499.902 Q131.32 498.143 131.32 496.453 Q131.32 493.699 129.376 491.962 Q127.455 490.226 124.353 490.226 Q122.154 490.226 119.7 490.99 Q117.269 491.754 114.492 493.305 L114.492 488.583 Q117.316 487.449 119.769 486.87 Q122.223 486.291 124.26 486.291 Q129.63 486.291 132.825 488.976 Q136.019 491.662 136.019 496.152 Q136.019 498.282 135.209 500.203 Q134.422 502.101 132.316 504.694 Q131.737 505.365 128.635 508.583 Q125.533 511.777 119.885 517.541 Z" fill="#000000" fill-rule="nonzero" fill-opacity="1" /><path clip-path="url(#clip640)" d="M156.019 489.995 Q152.408 489.995 150.579 493.56 Q148.774 497.101 148.774 504.231 Q148.774 511.337 150.579 514.902 Q152.408 518.444 156.019 518.444 Q159.653 518.444 161.459 514.902 Q163.288 511.337 163.288 504.231 Q163.288 497.101 161.459 493.56 Q159.653 489.995 156.019 489.995 M156.019 486.291 Q161.829 486.291 164.885 490.898 Q167.964 495.481 167.964 504.231 Q167.964 512.958 164.885 517.564 Q161.829 522.147 156.019 522.147 Q150.209 522.147 147.13 517.564 Q144.075 512.958 144.075 504.231 Q144.075 495.481 147.13 490.898 Q150.209 486.291 156.019 486.291 Z" fill="#000000" fill-rule="nonzero" fill-opacity="1" /><path clip-path="url(#clip640)" d="M130.024 60.652 Q133.38 61.3696 135.255 63.6381 Q137.154 65.9066 137.154 69.24 Q137.154 74.3557 133.635 77.1566 Q130.117 79.9575 123.635 79.9575 Q121.459 79.9575 119.144 79.5177 Q116.853 79.101 114.399 78.2445 L114.399 73.7307 Q116.343 74.8649 118.658 75.4436 Q120.973 76.0223 123.496 76.0223 Q127.894 76.0223 130.186 74.2862 Q132.501 72.5501 132.501 69.24 Q132.501 66.1844 130.348 64.4715 Q128.218 62.7354 124.399 62.7354 L120.371 62.7354 L120.371 58.8928 L124.584 58.8928 Q128.033 58.8928 129.862 57.5271 Q131.691 56.1382 131.691 53.5456 Q131.691 50.8836 129.792 49.4716 Q127.917 48.0364 124.399 48.0364 Q122.478 48.0364 120.279 48.453 Q118.08 48.8697 115.441 49.7493 L115.441 45.5827 Q118.103 44.8419 120.418 44.4716 Q122.755 44.1012 124.816 44.1012 Q130.14 44.1012 133.242 46.5318 Q136.343 48.9391 136.343 53.0595 Q136.343 55.9299 134.7 57.9206 Q133.056 59.8882 130.024 60.652 Z" fill="#000000" fill-rule="nonzero" fill-opacity="1" /><path clip-path="url(#clip640)" d="M156.019 47.8049 Q152.408 47.8049 150.579 51.3697 Q148.774 54.9113 148.774 62.0409 Q148.774 69.1474 150.579 72.7122 Q152.408 76.2538 156.019 76.2538 Q159.653 76.2538 161.459 72.7122 Q163.288 69.1474 163.288 62.0409 Q163.288 54.9113 161.459 51.3697 Q159.653 47.8049 156.019 47.8049 M156.019 44.1012 Q161.829 44.1012 164.885 48.7077 Q167.964 53.291 167.964 62.0409 Q167.964 70.7677 164.885 75.3742 Q161.829 79.9575 156.019 79.9575 Q150.209 79.9575 147.13 75.3742 Q144.075 70.7677 144.075 62.0409 Q144.075 53.291 147.13 48.7077 Q150.209 44.1012 156.019 44.1012 Z" fill="#000000" fill-rule="nonzero" fill-opacity="1" /><path clip-path="url(#clip640)" d="M39.4334 772.564 Q44.844 772.564 50.9309 774.303 Q56.9856 776.01 61.8809 778.715 Q66.744 781.42 69.9646 784.963 Q73.153 788.505 73.153 791.887 Q73.153 794.045 71.9613 795.655 Q70.7375 797.233 68.7085 798.103 Q66.6474 798.972 64.393 799.391 Q62.1063 799.81 59.6265 799.81 Q55.9228 799.81 51.8971 799.005 Q47.8391 798.199 44.1677 796.847 Q40.464 795.494 37.1146 793.594 Q33.733 791.694 31.2853 789.6 Q28.8055 787.475 27.3562 785.092 Q25.907 782.708 25.907 780.486 Q25.907 778.876 26.6155 777.588 Q27.2918 776.267 28.4834 775.43 Q29.6428 774.593 31.0277 774.013 Q32.4125 773.401 34.0228 773.111 Q35.6009 772.821 36.9214 772.692 Q38.2096 772.564 39.4334 772.564 M35.3433 776.911 Q33.7008 776.911 32.477 777.04 Q31.2209 777.169 29.9649 777.523 Q28.7089 777.878 28.0325 778.65 Q27.3562 779.391 27.3562 780.551 Q27.3562 783.932 34.2805 787.733 Q36.4383 788.956 39.369 790.051 Q42.2997 791.146 43.6846 791.533 Q45.0694 791.919 48.4833 792.821 L48.4833 779.037 Q39.6911 776.911 35.3433 776.911 M50.5766 779.617 L50.5766 793.336 Q58.6281 795.462 63.6522 795.462 Q68.0322 795.462 69.868 794.56 Q71.6715 793.626 71.6715 791.887 Q71.6715 789.89 69.6747 788.022 Q67.6458 786.154 63.9743 784.254 Q59.2078 781.742 50.5766 779.617 Z" fill="#000000" fill-rule="nonzero" fill-opacity="1" /><path clip-path="url(#clip640)" d="M22.9507 728.256 Q30.2712 732.521 37.4327 734.59 Q44.5941 736.658 51.9465 736.658 Q59.2989 736.658 66.5239 734.59 Q73.7172 732.489 81.0059 728.256 L81.0059 733.348 Q73.5262 738.123 66.3011 740.51 Q59.0761 742.865 51.9465 742.865 Q44.8487 742.865 37.6555 740.51 Q30.4622 738.154 22.9507 733.348 L22.9507 728.256 Z" fill="#000000" fill-rule="nonzero" fill-opacity="1" /><path clip-path="url(#clip640)" d="M28.1387 706.74 Q28.1387 709.286 29.9211 711.036 Q31.6717 712.787 34.218 712.787 Q36.7324 712.787 38.483 711.036 Q40.2017 709.286 40.2017 706.74 Q40.2017 704.193 38.483 702.443 Q36.7324 700.692 34.218 700.692 Q31.7035 700.692 29.9211 702.475 Q28.1387 704.225 28.1387 706.74 M24.0328 706.74 Q24.0328 704.703 24.8286 702.825 Q25.5924 700.947 27.0566 699.578 Q28.4888 698.114 30.3031 697.382 Q32.1173 696.65 34.218 696.65 Q38.4193 696.65 41.3476 699.61 Q44.244 702.538 44.244 706.803 Q44.244 711.1 41.3794 713.965 Q38.5148 716.829 34.218 716.829 Q29.953 716.829 26.9929 713.901 Q24.0328 710.973 24.0328 706.74 Z" fill="#000000" fill-rule="nonzero" fill-opacity="1" /><path clip-path="url(#clip640)" d="M22.9507 685.224 L22.9507 680.131 Q30.4622 675.357 37.6555 673.001 Q44.8487 670.614 51.9465 670.614 Q59.0761 670.614 66.3011 673.001 Q73.5262 675.357 81.0059 680.131 L81.0059 685.224 Q73.7172 680.99 66.5239 678.921 Q59.2989 676.821 51.9465 676.821 Q44.5941 676.821 37.4327 678.921 Q30.2712 680.99 22.9507 685.224 Z" fill="#000000" fill-rule="nonzero" fill-opacity="1" /><polyline clip-path="url(#clip642)" style="stroke:#009af9; stroke-linecap:round; stroke-linejoin:round; stroke-width:4; stroke-opacity:1; fill:none" points="229.629,1384.11 254.791,1255.58 279.954,1063.64 305.116,777.294 330.278,466.282 355.44,299.498 380.603,144.576 405.765,110.546 430.927,86.1857 456.089,113.365 481.252,191.086 506.414,253.514 531.576,238.29 556.739,270.43 581.901,279.079 607.063,295.118 632.225,308.714 657.388,333.494 682.55,310.264 707.712,309.906 732.874,297.839 758.037,283.632 783.199,280.935 808.361,275.289 833.524,302.721 858.686,238.325 883.848,332.19 909.01,266.87 934.173,281.386 959.335,301.521 984.497,264.561 1009.66,300.436 1034.82,257.162 1059.98,284.291 1085.15,276.363 "/>
<polyline clip-path="url(#clip642)" style="stroke:#e26f46; stroke-linecap:round; stroke-linejoin:round; stroke-width:3; stroke-opacity:1; fill:none" stroke-dasharray="12, 6, 2, 6" points="229.629,1384.24 254.791,1259.19 279.954,1055.6 305.116,778.065 330.278,474.842 355.44,293.17 380.603,150.232 405.765,108.483 430.927,92.9595 456.089,117.774 481.252,188.654 506.414,254.56 531.576,253.06 556.739,272.535 581.901,281.591 607.063,294.491 632.225,307.171 657.388,328.99 682.55,314.542 707.712,309.299 732.874,298.629 758.037,285.103 783.199,280.454 808.361,275.818 833.524,297.389 858.686,251.273 883.848,314.584 909.01,279.403 934.173,279.968 959.335,297.125 984.497,271.851 1009.66,293.775 1034.82,265.291 1059.98,279.423 1085.15,277.642 "/>
<path clip-path="url(#clip640)" d="M961.069 1377.32 L1080.58 1377.32 L1080.58 1221.8 L961.069 1221.8  Z" fill="#ffffff" fill-rule="evenodd" fill-opacity="1"/>
<polyline clip-path="url(#clip640)" style="stroke:#000000; stroke-linecap:round; stroke-linejoin:round; stroke-width:4; stroke-opacity:1; fill:none" points="961.069,1377.32 1080.58,1377.32 1080.58,1221.8 961.069,1221.8 961.069,1377.32 "/>
<polyline clip-path="url(#clip640)" style="stroke:#009af9; stroke-linecap:round; stroke-linejoin:round; stroke-width:4; stroke-opacity:1; fill:none" points="971.145,1273.64 1031.6,1273.64 "/>
<path clip-path="url(#clip640)" d="M1068.45 1260.37 Q1066.97 1260.37 1066.22 1260.51 Q1065.48 1260.63 1065.29 1260.8 Q1065.1 1260.96 1064.89 1261.38 L1054.58 1283.3 Q1053.48 1285.65 1051.42 1287.33 Q1049.38 1289.02 1046.81 1289.02 Q1044.65 1289.02 1043.15 1287.71 Q1041.68 1286.42 1041.68 1284.59 Q1041.68 1283.28 1042.5 1282.53 Q1043.32 1281.81 1044.42 1281.81 Q1045.64 1281.81 1046.41 1282.58 Q1047.21 1283.35 1047.21 1284.55 Q1047.21 1285.32 1046.88 1285.9 Q1046.55 1286.51 1046.25 1286.72 Q1045.96 1286.96 1045.66 1287.1 Q1046.15 1287.29 1046.81 1287.29 Q1047.79 1287.29 1048.63 1286.89 Q1049.5 1286.51 1050.06 1286 Q1050.65 1285.51 1051.23 1284.62 Q1051.82 1283.75 1052.1 1283.19 Q1052.38 1282.65 1052.8 1281.71 L1053.9 1279.42 L1044.93 1260.37 L1041.87 1260.37 L1041.87 1258.13 L1047.35 1258.27 L1053.3 1258.13 L1053.3 1260.37 L1050.7 1260.37 L1056.79 1273.33 L1062.31 1261.52 L1062.55 1260.96 Q1062.55 1260.7 1061.99 1260.56 Q1061.42 1260.4 1060.86 1260.4 L1060.3 1260.37 L1060.3 1258.13 L1064.66 1258.27 Q1066.72 1258.27 1068.45 1258.13 L1068.45 1260.37 Z" fill="#000000" fill-rule="nonzero" fill-opacity="1" /><polyline clip-path="url(#clip640)" style="stroke:#e26f46; stroke-linecap:round; stroke-linejoin:round; stroke-width:3; stroke-opacity:1; fill:none" stroke-dasharray="12, 6, 2, 6" points="971.145,1325.48 1031.6,1325.48 "/>
<path clip-path="url(#clip640)" d="M1064.26 1309.2 L1063.85 1309.87 Q1061.31 1308.77 1058.15 1307.01 Q1054.98 1308.77 1052.44 1309.87 L1052.05 1309.2 Q1054.82 1306.79 1058.15 1304.93 Q1061.51 1306.8 1064.26 1309.2 Z" fill="#000000" fill-rule="nonzero" fill-opacity="1" /><path clip-path="url(#clip640)" d="M1068.45 1317.22 Q1066.97 1317.22 1066.22 1317.36 Q1065.48 1317.48 1065.29 1317.64 Q1065.1 1317.8 1064.89 1318.23 L1054.58 1340.15 Q1053.48 1342.49 1051.42 1344.18 Q1049.38 1345.86 1046.81 1345.86 Q1044.65 1345.86 1043.15 1344.55 Q1041.68 1343.26 1041.68 1341.44 Q1041.68 1340.13 1042.5 1339.38 Q1043.32 1338.65 1044.42 1338.65 Q1045.64 1338.65 1046.41 1339.42 Q1047.21 1340.2 1047.21 1341.39 Q1047.21 1342.16 1046.88 1342.75 Q1046.55 1343.36 1046.25 1343.57 Q1045.96 1343.8 1045.66 1343.94 Q1046.15 1344.13 1046.81 1344.13 Q1047.79 1344.13 1048.63 1343.73 Q1049.5 1343.36 1050.06 1342.84 Q1050.65 1342.35 1051.23 1341.46 Q1051.82 1340.59 1052.1 1340.03 Q1052.38 1339.49 1052.8 1338.56 L1053.9 1336.26 L1044.93 1317.22 L1041.87 1317.22 L1041.87 1314.97 L1047.35 1315.11 L1053.3 1314.97 L1053.3 1317.22 L1050.7 1317.22 L1056.79 1330.17 L1062.31 1318.37 L1062.55 1317.8 Q1062.55 1317.55 1061.99 1317.41 Q1061.42 1317.24 1060.86 1317.24 L1060.3 1317.22 L1060.3 1314.97 L1064.66 1315.11 Q1066.72 1315.11 1068.45 1314.97 L1068.45 1317.22 Z" fill="#000000" fill-rule="nonzero" fill-opacity="1" /><path clip-path="url(#clip640)" d="M1445.91 398.692 L2352.76 398.692 L2352.76 47.2441 L1445.91 47.2441  Z" fill="#ffffff" fill-rule="evenodd" fill-opacity="1"/>
<defs>
  <clipPath id="clip643">
    <rect x="1445" y="47" width="908" height="352"/>
  </clipPath>
</defs>
<polyline clip-path="url(#clip643)" style="stroke:#000000; stroke-linecap:round; stroke-linejoin:round; stroke-width:2; stroke-opacity:0.1; fill:none" points="1471.57,398.692 1471.57,47.2441 "/>
<polyline clip-path="url(#clip643)" style="stroke:#000000; stroke-linecap:round; stroke-linejoin:round; stroke-width:2; stroke-opacity:0.1; fill:none" points="1723.2,398.692 1723.2,47.2441 "/>
<polyline clip-path="url(#clip643)" style="stroke:#000000; stroke-linecap:round; stroke-linejoin:round; stroke-width:2; stroke-opacity:0.1; fill:none" points="1974.82,398.692 1974.82,47.2441 "/>
<polyline clip-path="url(#clip643)" style="stroke:#000000; stroke-linecap:round; stroke-linejoin:round; stroke-width:2; stroke-opacity:0.1; fill:none" points="2226.44,398.692 2226.44,47.2441 "/>
<polyline clip-path="url(#clip643)" style="stroke:#000000; stroke-linecap:round; stroke-linejoin:round; stroke-width:2; stroke-opacity:0.1; fill:none" points="1445.91,388.745 2352.76,388.745 "/>
<polyline clip-path="url(#clip643)" style="stroke:#000000; stroke-linecap:round; stroke-linejoin:round; stroke-width:2; stroke-opacity:0.1; fill:none" points="1445.91,323.91 2352.76,323.91 "/>
<polyline clip-path="url(#clip643)" style="stroke:#000000; stroke-linecap:round; stroke-linejoin:round; stroke-width:2; stroke-opacity:0.1; fill:none" points="1445.91,259.075 2352.76,259.075 "/>
<polyline clip-path="url(#clip643)" style="stroke:#000000; stroke-linecap:round; stroke-linejoin:round; stroke-width:2; stroke-opacity:0.1; fill:none" points="1445.91,194.24 2352.76,194.24 "/>
<polyline clip-path="url(#clip643)" style="stroke:#000000; stroke-linecap:round; stroke-linejoin:round; stroke-width:2; stroke-opacity:0.1; fill:none" points="1445.91,129.405 2352.76,129.405 "/>
<polyline clip-path="url(#clip643)" style="stroke:#000000; stroke-linecap:round; stroke-linejoin:round; stroke-width:2; stroke-opacity:0.1; fill:none" points="1445.91,64.5699 2352.76,64.5699 "/>
<polyline clip-path="url(#clip640)" style="stroke:#000000; stroke-linecap:round; stroke-linejoin:round; stroke-width:4; stroke-opacity:1; fill:none" points="1445.91,398.692 2352.76,398.692 "/>
<polyline clip-path="url(#clip640)" style="stroke:#000000; stroke-linecap:round; stroke-linejoin:round; stroke-width:4; stroke-opacity:1; fill:none" points="1471.57,398.692 1471.57,379.794 "/>
<polyline clip-path="url(#clip640)" style="stroke:#000000; stroke-linecap:round; stroke-linejoin:round; stroke-width:4; stroke-opacity:1; fill:none" points="1723.2,398.692 1723.2,379.794 "/>
<polyline clip-path="url(#clip640)" style="stroke:#000000; stroke-linecap:round; stroke-linejoin:round; stroke-width:4; stroke-opacity:1; fill:none" points="1974.82,398.692 1974.82,379.794 "/>
<polyline clip-path="url(#clip640)" style="stroke:#000000; stroke-linecap:round; stroke-linejoin:round; stroke-width:4; stroke-opacity:1; fill:none" points="2226.44,398.692 2226.44,379.794 "/>
<path clip-path="url(#clip640)" d="M1471.57 429.611 Q1467.96 429.611 1466.13 433.175 Q1464.33 436.717 1464.33 443.847 Q1464.33 450.953 1466.13 454.518 Q1467.96 458.059 1471.57 458.059 Q1475.21 458.059 1477.01 454.518 Q1478.84 450.953 1478.84 443.847 Q1478.84 436.717 1477.01 433.175 Q1475.21 429.611 1471.57 429.611 M1471.57 425.907 Q1477.38 425.907 1480.44 430.513 Q1483.52 435.097 1483.52 443.847 Q1483.52 452.573 1480.44 457.18 Q1477.38 461.763 1471.57 461.763 Q1465.76 461.763 1462.68 457.18 Q1459.63 452.573 1459.63 443.847 Q1459.63 435.097 1462.68 430.513 Q1465.76 425.907 1471.57 425.907 Z" fill="#000000" fill-rule="nonzero" fill-opacity="1" /><path clip-path="url(#clip640)" d="M1713.58 457.157 L1721.22 457.157 L1721.22 430.791 L1712.91 432.458 L1712.91 428.199 L1721.17 426.532 L1725.85 426.532 L1725.85 457.157 L1733.49 457.157 L1733.49 461.092 L1713.58 461.092 L1713.58 457.157 Z" fill="#000000" fill-rule="nonzero" fill-opacity="1" /><path clip-path="url(#clip640)" d="M1969.47 457.157 L1985.79 457.157 L1985.79 461.092 L1963.85 461.092 L1963.85 457.157 Q1966.51 454.402 1971.09 449.772 Q1975.7 445.12 1976.88 443.777 Q1979.12 441.254 1980 439.518 Q1980.91 437.759 1980.91 436.069 Q1980.91 433.314 1978.96 431.578 Q1977.04 429.842 1973.94 429.842 Q1971.74 429.842 1969.29 430.606 Q1966.86 431.37 1964.08 432.921 L1964.08 428.199 Q1966.9 427.064 1969.36 426.486 Q1971.81 425.907 1973.85 425.907 Q1979.22 425.907 1982.41 428.592 Q1985.61 431.277 1985.61 435.768 Q1985.61 437.898 1984.8 439.819 Q1984.01 441.717 1981.9 444.31 Q1981.32 444.981 1978.22 448.198 Q1975.12 451.393 1969.47 457.157 Z" fill="#000000" fill-rule="nonzero" fill-opacity="1" /><path clip-path="url(#clip640)" d="M2230.69 442.458 Q2234.05 443.175 2235.92 445.444 Q2237.82 447.712 2237.82 451.046 Q2237.82 456.161 2234.3 458.962 Q2230.78 461.763 2224.3 461.763 Q2222.12 461.763 2219.81 461.323 Q2217.52 460.907 2215.06 460.05 L2215.06 455.536 Q2217.01 456.671 2219.32 457.249 Q2221.64 457.828 2224.16 457.828 Q2228.56 457.828 2230.85 456.092 Q2233.17 454.356 2233.17 451.046 Q2233.17 447.99 2231.01 446.277 Q2228.88 444.541 2225.06 444.541 L2221.04 444.541 L2221.04 440.698 L2225.25 440.698 Q2228.7 440.698 2230.53 439.333 Q2232.36 437.944 2232.36 435.351 Q2232.36 432.689 2230.46 431.277 Q2228.58 429.842 2225.06 429.842 Q2223.14 429.842 2220.94 430.259 Q2218.74 430.675 2216.11 431.555 L2216.11 427.388 Q2218.77 426.648 2221.08 426.277 Q2223.42 425.907 2225.48 425.907 Q2230.8 425.907 2233.91 428.337 Q2237.01 430.745 2237.01 434.865 Q2237.01 437.736 2235.36 439.726 Q2233.72 441.694 2230.69 442.458 Z" fill="#000000" fill-rule="nonzero" fill-opacity="1" /><polyline clip-path="url(#clip640)" style="stroke:#000000; stroke-linecap:round; stroke-linejoin:round; stroke-width:4; stroke-opacity:1; fill:none" points="1445.91,398.692 1445.91,47.2441 "/>
<polyline clip-path="url(#clip640)" style="stroke:#000000; stroke-linecap:round; stroke-linejoin:round; stroke-width:4; stroke-opacity:1; fill:none" points="1445.91,388.745 1464.81,388.745 "/>
<polyline clip-path="url(#clip640)" style="stroke:#000000; stroke-linecap:round; stroke-linejoin:round; stroke-width:4; stroke-opacity:1; fill:none" points="1445.91,323.91 1464.81,323.91 "/>
<polyline clip-path="url(#clip640)" style="stroke:#000000; stroke-linecap:round; stroke-linejoin:round; stroke-width:4; stroke-opacity:1; fill:none" points="1445.91,259.075 1464.81,259.075 "/>
<polyline clip-path="url(#clip640)" style="stroke:#000000; stroke-linecap:round; stroke-linejoin:round; stroke-width:4; stroke-opacity:1; fill:none" points="1445.91,194.24 1464.81,194.24 "/>
<polyline clip-path="url(#clip640)" style="stroke:#000000; stroke-linecap:round; stroke-linejoin:round; stroke-width:4; stroke-opacity:1; fill:none" points="1445.91,129.405 1464.81,129.405 "/>
<polyline clip-path="url(#clip640)" style="stroke:#000000; stroke-linecap:round; stroke-linejoin:round; stroke-width:4; stroke-opacity:1; fill:none" points="1445.91,64.5699 1464.81,64.5699 "/>
<path clip-path="url(#clip640)" d="M1352.73 374.544 Q1349.12 374.544 1347.29 378.109 Q1345.49 381.65 1345.49 388.78 Q1345.49 395.886 1347.29 399.451 Q1349.12 402.993 1352.73 402.993 Q1356.37 402.993 1358.17 399.451 Q1360 395.886 1360 388.78 Q1360 381.65 1358.17 378.109 Q1356.37 374.544 1352.73 374.544 M1352.73 370.84 Q1358.54 370.84 1361.6 375.447 Q1364.68 380.03 1364.68 388.78 Q1364.68 397.507 1361.6 402.113 Q1358.54 406.697 1352.73 406.697 Q1346.92 406.697 1343.84 402.113 Q1340.79 397.507 1340.79 388.78 Q1340.79 380.03 1343.84 375.447 Q1346.92 370.84 1352.73 370.84 Z" fill="#000000" fill-rule="nonzero" fill-opacity="1" /><path clip-path="url(#clip640)" d="M1372.89 400.146 L1377.78 400.146 L1377.78 406.025 L1372.89 406.025 L1372.89 400.146 Z" fill="#000000" fill-rule="nonzero" fill-opacity="1" /><path clip-path="url(#clip640)" d="M1397.96 374.544 Q1394.35 374.544 1392.52 378.109 Q1390.72 381.65 1390.72 388.78 Q1390.72 395.886 1392.52 399.451 Q1394.35 402.993 1397.96 402.993 Q1401.6 402.993 1403.4 399.451 Q1405.23 395.886 1405.23 388.78 Q1405.23 381.65 1403.4 378.109 Q1401.6 374.544 1397.96 374.544 M1397.96 370.84 Q1403.77 370.84 1406.83 375.447 Q1409.91 380.03 1409.91 388.78 Q1409.91 397.507 1406.83 402.113 Q1403.77 406.697 1397.96 406.697 Q1392.15 406.697 1389.07 402.113 Q1386.02 397.507 1386.02 388.78 Q1386.02 380.03 1389.07 375.447 Q1392.15 370.84 1397.96 370.84 Z" fill="#000000" fill-rule="nonzero" fill-opacity="1" /><path clip-path="url(#clip640)" d="M1353.96 309.709 Q1350.35 309.709 1348.52 313.274 Q1346.71 316.815 1346.71 323.945 Q1346.71 331.051 1348.52 334.616 Q1350.35 338.158 1353.96 338.158 Q1357.59 338.158 1359.4 334.616 Q1361.23 331.051 1361.23 323.945 Q1361.23 316.815 1359.4 313.274 Q1357.59 309.709 1353.96 309.709 M1353.96 306.005 Q1359.77 306.005 1362.82 310.612 Q1365.9 315.195 1365.9 323.945 Q1365.9 332.672 1362.82 337.278 Q1359.77 341.861 1353.96 341.861 Q1348.15 341.861 1345.07 337.278 Q1342.01 332.672 1342.01 323.945 Q1342.01 315.195 1345.07 310.612 Q1348.15 306.005 1353.96 306.005 Z" fill="#000000" fill-rule="nonzero" fill-opacity="1" /><path clip-path="url(#clip640)" d="M1374.12 335.311 L1379.01 335.311 L1379.01 341.19 L1374.12 341.19 L1374.12 335.311 Z" fill="#000000" fill-rule="nonzero" fill-opacity="1" /><path clip-path="url(#clip640)" d="M1390 337.255 L1397.64 337.255 L1397.64 310.889 L1389.33 312.556 L1389.33 308.297 L1397.59 306.63 L1402.27 306.63 L1402.27 337.255 L1409.91 337.255 L1409.91 341.19 L1390 341.19 L1390 337.255 Z" fill="#000000" fill-rule="nonzero" fill-opacity="1" /><path clip-path="url(#clip640)" d="M1354.33 244.874 Q1350.72 244.874 1348.89 248.439 Q1347.08 251.98 1347.08 259.11 Q1347.08 266.216 1348.89 269.781 Q1350.72 273.323 1354.33 273.323 Q1357.96 273.323 1359.77 269.781 Q1361.6 266.216 1361.6 259.11 Q1361.6 251.98 1359.77 248.439 Q1357.96 244.874 1354.33 244.874 M1354.33 241.17 Q1360.14 241.17 1363.2 245.777 Q1366.27 250.36 1366.27 259.11 Q1366.27 267.837 1363.2 272.443 Q1360.14 277.026 1354.33 277.026 Q1348.52 277.026 1345.44 272.443 Q1342.39 267.837 1342.39 259.11 Q1342.39 250.36 1345.44 245.777 Q1348.52 241.17 1354.33 241.17 Z" fill="#000000" fill-rule="nonzero" fill-opacity="1" /><path clip-path="url(#clip640)" d="M1374.49 270.476 L1379.38 270.476 L1379.38 276.355 L1374.49 276.355 L1374.49 270.476 Z" fill="#000000" fill-rule="nonzero" fill-opacity="1" /><path clip-path="url(#clip640)" d="M1393.59 272.42 L1409.91 272.42 L1409.91 276.355 L1387.96 276.355 L1387.96 272.42 Q1390.63 269.665 1395.21 265.036 Q1399.82 260.383 1401 259.04 Q1403.24 256.517 1404.12 254.781 Q1405.02 253.022 1405.02 251.332 Q1405.02 248.577 1403.08 246.841 Q1401.16 245.105 1398.06 245.105 Q1395.86 245.105 1393.4 245.869 Q1390.97 246.633 1388.19 248.184 L1388.19 243.462 Q1391.02 242.328 1393.47 241.749 Q1395.93 241.17 1397.96 241.17 Q1403.33 241.17 1406.53 243.855 Q1409.72 246.54 1409.72 251.031 Q1409.72 253.161 1408.91 255.082 Q1408.13 256.98 1406.02 259.573 Q1405.44 260.244 1402.34 263.462 Q1399.24 266.656 1393.59 272.42 Z" fill="#000000" fill-rule="nonzero" fill-opacity="1" /><path clip-path="url(#clip640)" d="M1353.38 180.039 Q1349.77 180.039 1347.94 183.604 Q1346.13 187.145 1346.13 194.275 Q1346.13 201.381 1347.94 204.946 Q1349.77 208.488 1353.38 208.488 Q1357.01 208.488 1358.82 204.946 Q1360.65 201.381 1360.65 194.275 Q1360.65 187.145 1358.82 183.604 Q1357.01 180.039 1353.38 180.039 M1353.38 176.335 Q1359.19 176.335 1362.25 180.942 Q1365.32 185.525 1365.32 194.275 Q1365.32 203.002 1362.25 207.608 Q1359.19 212.191 1353.38 212.191 Q1347.57 212.191 1344.49 207.608 Q1341.44 203.002 1341.44 194.275 Q1341.44 185.525 1344.49 180.942 Q1347.57 176.335 1353.38 176.335 Z" fill="#000000" fill-rule="nonzero" fill-opacity="1" /><path clip-path="url(#clip640)" d="M1373.54 205.64 L1378.43 205.64 L1378.43 211.52 L1373.54 211.52 L1373.54 205.64 Z" fill="#000000" fill-rule="nonzero" fill-opacity="1" /><path clip-path="url(#clip640)" d="M1402.78 192.886 Q1406.13 193.603 1408.01 195.872 Q1409.91 198.14 1409.91 201.474 Q1409.91 206.59 1406.39 209.39 Q1402.87 212.191 1396.39 212.191 Q1394.21 212.191 1391.9 211.752 Q1389.61 211.335 1387.15 210.478 L1387.15 205.965 Q1389.1 207.099 1391.41 207.677 Q1393.73 208.256 1396.25 208.256 Q1400.65 208.256 1402.94 206.52 Q1405.26 204.784 1405.26 201.474 Q1405.26 198.418 1403.1 196.705 Q1400.97 194.969 1397.15 194.969 L1393.13 194.969 L1393.13 191.127 L1397.34 191.127 Q1400.79 191.127 1402.62 189.761 Q1404.44 188.372 1404.44 185.779 Q1404.44 183.117 1402.55 181.705 Q1400.67 180.27 1397.15 180.27 Q1395.23 180.27 1393.03 180.687 Q1390.83 181.104 1388.19 181.983 L1388.19 177.817 Q1390.86 177.076 1393.17 176.705 Q1395.51 176.335 1397.57 176.335 Q1402.89 176.335 1406 178.766 Q1409.1 181.173 1409.1 185.293 Q1409.1 188.164 1407.45 190.154 Q1405.81 192.122 1402.78 192.886 Z" fill="#000000" fill-rule="nonzero" fill-opacity="1" /><path clip-path="url(#clip640)" d="M1352.25 115.204 Q1348.63 115.204 1346.81 118.768 Q1345 122.31 1345 129.44 Q1345 136.546 1346.81 140.111 Q1348.63 143.653 1352.25 143.653 Q1355.88 143.653 1357.69 140.111 Q1359.51 136.546 1359.51 129.44 Q1359.51 122.31 1357.69 118.768 Q1355.88 115.204 1352.25 115.204 M1352.25 111.5 Q1358.06 111.5 1361.11 116.106 Q1364.19 120.69 1364.19 129.44 Q1364.19 138.167 1361.11 142.773 Q1358.06 147.356 1352.25 147.356 Q1346.44 147.356 1343.36 142.773 Q1340.3 138.167 1340.3 129.44 Q1340.3 120.69 1343.36 116.106 Q1346.44 111.5 1352.25 111.5 Z" fill="#000000" fill-rule="nonzero" fill-opacity="1" /><path clip-path="url(#clip640)" d="M1372.41 140.805 L1377.29 140.805 L1377.29 146.685 L1372.41 146.685 L1372.41 140.805 Z" fill="#000000" fill-rule="nonzero" fill-opacity="1" /><path clip-path="url(#clip640)" d="M1400.32 116.199 L1388.52 134.648 L1400.32 134.648 L1400.32 116.199 M1399.1 112.125 L1404.98 112.125 L1404.98 134.648 L1409.91 134.648 L1409.91 138.537 L1404.98 138.537 L1404.98 146.685 L1400.32 146.685 L1400.32 138.537 L1384.72 138.537 L1384.72 134.023 L1399.1 112.125 Z" fill="#000000" fill-rule="nonzero" fill-opacity="1" /><path clip-path="url(#clip640)" d="M1353.73 50.3686 Q1350.12 50.3686 1348.29 53.9334 Q1346.48 57.475 1346.48 64.6046 Q1346.48 71.7111 1348.29 75.2759 Q1350.12 78.8175 1353.73 78.8175 Q1357.36 78.8175 1359.17 75.2759 Q1361 71.7111 1361 64.6046 Q1361 57.475 1359.17 53.9334 Q1357.36 50.3686 1353.73 50.3686 M1353.73 46.6649 Q1359.54 46.6649 1362.59 51.2714 Q1365.67 55.8547 1365.67 64.6046 Q1365.67 73.3314 1362.59 77.9379 Q1359.54 82.5212 1353.73 82.5212 Q1347.92 82.5212 1344.84 77.9379 Q1341.78 73.3314 1341.78 64.6046 Q1341.78 55.8547 1344.84 51.2714 Q1347.92 46.6649 1353.73 46.6649 Z" fill="#000000" fill-rule="nonzero" fill-opacity="1" /><path clip-path="url(#clip640)" d="M1373.89 75.9703 L1378.77 75.9703 L1378.77 81.8499 L1373.89 81.8499 L1373.89 75.9703 Z" fill="#000000" fill-rule="nonzero" fill-opacity="1" /><path clip-path="url(#clip640)" d="M1389.01 47.2899 L1407.36 47.2899 L1407.36 51.2251 L1393.29 51.2251 L1393.29 59.6973 Q1394.31 59.35 1395.32 59.188 Q1396.34 59.0028 1397.36 59.0028 Q1403.15 59.0028 1406.53 62.1741 Q1409.91 65.3454 1409.91 70.762 Q1409.91 76.3407 1406.44 79.4425 Q1402.96 82.5212 1396.64 82.5212 Q1394.47 82.5212 1392.2 82.1508 Q1389.95 81.7805 1387.55 81.0397 L1387.55 76.3407 Q1389.63 77.4749 1391.85 78.0305 Q1394.07 78.586 1396.55 78.586 Q1400.56 78.586 1402.89 76.4796 Q1405.23 74.3731 1405.23 70.762 Q1405.23 67.1509 1402.89 65.0445 Q1400.56 62.938 1396.55 62.938 Q1394.68 62.938 1392.8 63.3546 Q1390.95 63.7713 1389.01 64.6509 L1389.01 47.2899 Z" fill="#000000" fill-rule="nonzero" fill-opacity="1" /><path clip-path="url(#clip640)" d="M1265.47 298.084 Q1270.89 298.084 1276.97 299.823 Q1283.03 301.53 1287.92 304.235 Q1292.79 306.941 1296.01 310.483 Q1299.19 314.026 1299.19 317.408 Q1299.19 319.565 1298 321.176 Q1296.78 322.754 1294.75 323.623 Q1292.69 324.493 1290.43 324.912 Q1288.15 325.33 1285.67 325.33 Q1281.96 325.33 1277.94 324.525 Q1273.88 323.72 1270.21 322.367 Q1266.51 321.015 1263.16 319.115 Q1259.77 317.214 1257.33 315.121 Q1254.85 312.995 1253.4 310.612 Q1251.95 308.229 1251.95 306.007 Q1251.95 304.396 1252.66 303.108 Q1253.33 301.788 1254.52 300.95 Q1255.68 300.113 1257.07 299.533 Q1258.45 298.921 1260.06 298.632 Q1261.64 298.342 1262.96 298.213 Q1264.25 298.084 1265.47 298.084 M1261.38 302.432 Q1259.74 302.432 1258.52 302.561 Q1257.26 302.69 1256.01 303.044 Q1254.75 303.398 1254.07 304.171 Q1253.4 304.912 1253.4 306.071 Q1253.4 309.453 1260.32 313.253 Q1262.48 314.477 1265.41 315.572 Q1268.34 316.667 1269.73 317.053 Q1271.11 317.44 1274.52 318.342 L1274.52 304.558 Q1265.73 302.432 1261.38 302.432 M1276.62 305.137 L1276.62 318.857 Q1284.67 320.983 1289.69 320.983 Q1294.07 320.983 1295.91 320.081 Q1297.71 319.147 1297.71 317.408 Q1297.71 315.411 1295.72 313.543 Q1293.69 311.675 1290.02 309.775 Q1285.25 307.263 1276.62 305.137 Z" fill="#000000" fill-rule="nonzero" fill-opacity="1" /><path clip-path="url(#clip640)" d="M1248.99 253.776 Q1256.31 258.041 1263.47 260.11 Q1270.64 262.179 1277.99 262.179 Q1285.34 262.179 1292.57 260.11 Q1299.76 258.009 1307.05 253.776 L1307.05 258.869 Q1299.57 263.643 1292.34 266.03 Q1285.12 268.386 1277.99 268.386 Q1270.89 268.386 1263.7 266.03 Q1256.5 263.675 1248.99 258.869 L1248.99 253.776 Z" fill="#000000" fill-rule="nonzero" fill-opacity="1" /><path clip-path="url(#clip640)" d="M1268.28 221.757 Q1267.71 222.743 1267.45 223.921 Q1267.17 225.067 1267.17 226.467 Q1267.17 231.433 1270.41 234.106 Q1273.63 236.748 1279.67 236.748 L1298.45 236.748 L1298.45 242.636 L1262.81 242.636 L1262.81 236.748 L1268.34 236.748 Q1265.1 234.902 1263.54 231.942 Q1261.95 228.982 1261.95 224.749 Q1261.95 224.144 1262.04 223.412 Q1262.11 222.68 1262.26 221.789 L1268.28 221.757 Z" fill="#000000" fill-rule="nonzero" fill-opacity="1" /><path clip-path="url(#clip640)" d="M1280.53 199.413 Q1280.53 206.511 1282.16 209.248 Q1283.78 211.985 1287.7 211.985 Q1290.81 211.985 1292.66 209.948 Q1294.48 207.879 1294.48 204.347 Q1294.48 199.477 1291.04 196.549 Q1287.57 193.588 1281.84 193.588 L1280.53 193.588 L1280.53 199.413 M1278.12 187.732 L1298.45 187.732 L1298.45 193.588 L1293.04 193.588 Q1296.29 195.594 1297.85 198.586 Q1299.38 201.577 1299.38 205.906 Q1299.38 211.381 1296.32 214.627 Q1293.23 217.842 1288.08 217.842 Q1282.06 217.842 1279.01 213.831 Q1275.95 209.789 1275.95 201.8 L1275.95 193.588 L1275.38 193.588 Q1271.34 193.588 1269.14 196.262 Q1266.91 198.904 1266.91 203.71 Q1266.91 206.766 1267.64 209.662 Q1268.38 212.558 1269.84 215.232 L1264.43 215.232 Q1263.19 212.017 1262.58 208.993 Q1261.95 205.97 1261.95 203.105 Q1261.95 195.371 1265.96 191.551 Q1269.97 187.732 1278.12 187.732 Z" fill="#000000" fill-rule="nonzero" fill-opacity="1" /><path clip-path="url(#clip640)" d="M1268.22 152.211 L1248.93 152.211 L1248.93 146.355 L1298.45 146.355 L1298.45 152.211 L1293.11 152.211 Q1296.29 154.057 1297.85 156.89 Q1299.38 159.691 1299.38 163.638 Q1299.38 170.099 1294.22 174.173 Q1289.06 178.215 1280.66 178.215 Q1272.26 178.215 1267.1 174.173 Q1261.95 170.099 1261.95 163.638 Q1261.95 159.691 1263.51 156.89 Q1265.03 154.057 1268.22 152.211 M1280.66 172.168 Q1287.12 172.168 1290.81 169.526 Q1294.48 166.853 1294.48 162.206 Q1294.48 157.559 1290.81 154.885 Q1287.12 152.211 1280.66 152.211 Q1274.2 152.211 1270.54 154.885 Q1266.85 157.559 1266.85 162.206 Q1266.85 166.853 1270.54 169.526 Q1274.2 172.168 1280.66 172.168 Z" fill="#000000" fill-rule="nonzero" fill-opacity="1" /><path clip-path="url(#clip640)" d="M1248.99 135.215 L1248.99 130.122 Q1256.5 125.348 1263.7 122.993 Q1270.89 120.606 1277.99 120.606 Q1285.12 120.606 1292.34 122.993 Q1299.57 125.348 1307.05 130.122 L1307.05 135.215 Q1299.76 130.982 1292.57 128.913 Q1285.34 126.812 1277.99 126.812 Q1270.64 126.812 1263.47 128.913 Q1256.31 130.982 1248.99 135.215 Z" fill="#000000" fill-rule="nonzero" fill-opacity="1" /><polyline clip-path="url(#clip643)" style="stroke:#009af9; stroke-linecap:round; stroke-linejoin:round; stroke-width:4; stroke-opacity:1; fill:none" points="1471.57,388.745 1496.74,360.591 1521.9,296.723 1547.06,223.177 1572.22,157.36 1597.38,108.096 1622.55,77.491 1647.71,63.422 1672.87,61.7417 1698.03,67.8569 1723.2,77.6834 1748.36,88.1156 1773.52,97.1547 1798.68,103.812 1823.85,107.887 1849.01,109.696 1874.17,109.819 1899.33,108.898 1924.49,107.502 1949.66,106.058 1974.82,104.833 1999.98,103.95 2025.14,103.427 2050.31,103.212 2075.47,103.22 2100.63,103.362 2125.79,103.562 2150.95,103.762 2176.12,103.928 2201.28,104.045 2226.44,104.112 2251.6,104.137 2276.77,104.133 2301.93,104.111 2327.09,104.083 "/>
<polyline clip-path="url(#clip643)" style="stroke:#e26f46; stroke-linecap:round; stroke-linejoin:round; stroke-width:3; stroke-opacity:1; fill:none" stroke-dasharray="12, 6, 2, 6" points="1471.57,387.635 1496.74,355.634 1521.9,303.534 1547.06,232.512 1572.22,154.916 1597.38,108.426 1622.55,71.847 1647.71,61.1632 1672.87,57.1907 1698.03,63.5408 1723.2,81.6794 1748.36,98.545 1773.52,98.1613 1798.68,103.145 1823.85,105.462 1849.01,108.764 1874.17,112.008 1899.33,117.592 1924.49,113.895 1949.66,112.553 1974.82,109.823 1999.98,106.361 2025.14,105.171 2050.31,103.985 2075.47,109.505 2100.63,97.7039 2125.79,113.906 2150.95,104.902 2176.12,105.047 2201.28,109.438 2226.44,102.97 2251.6,108.58 2276.77,101.291 2301.93,104.908 2327.09,104.452 "/>
<path clip-path="url(#clip640)" d="M2203.01 386.977 L2322.53 386.977 L2322.53 231.457 L2203.01 231.457  Z" fill="#ffffff" fill-rule="evenodd" fill-opacity="1"/>
<polyline clip-path="url(#clip640)" style="stroke:#000000; stroke-linecap:round; stroke-linejoin:round; stroke-width:4; stroke-opacity:1; fill:none" points="2203.01,386.977 2322.53,386.977 2322.53,231.457 2203.01,231.457 2203.01,386.977 "/>
<polyline clip-path="url(#clip640)" style="stroke:#009af9; stroke-linecap:round; stroke-linejoin:round; stroke-width:4; stroke-opacity:1; fill:none" points="2213.09,283.297 2273.55,283.297 "/>
<path clip-path="url(#clip640)" d="M2310.63 293.836 L2305.36 293.695 L2299.6 293.836 L2299.6 291.587 L2301.47 291.587 L2296.2 285.357 L2291.54 290.58 L2291.21 291.049 Q2291.21 291.26 2291.75 291.423 Q2292.31 291.587 2292.97 291.587 L2292.97 293.836 L2288.03 293.695 L2283.62 293.836 L2283.62 291.587 Q2285.1 291.587 2285.78 291.564 Q2286.48 291.517 2287.28 291.306 Q2288.07 291.096 2288.47 290.674 L2294.75 283.624 L2287.28 274.794 L2283.86 274.794 L2283.86 272.545 L2289.15 272.686 L2294.94 272.545 L2294.94 274.794 L2293.01 274.794 L2297.72 280.298 L2301.75 275.801 Q2301.77 275.777 2302.15 275.215 Q2301.4 274.794 2300.32 274.794 L2300.32 272.545 L2305.26 272.686 L2309.67 272.545 L2309.67 274.794 Q2307.75 274.794 2306.74 274.934 Q2305.76 275.051 2305.45 275.215 Q2305.17 275.379 2304.77 275.801 L2299.17 282.031 L2307.23 291.587 L2310.63 291.587 L2310.63 293.836 Z" fill="#000000" fill-rule="nonzero" fill-opacity="1" /><polyline clip-path="url(#clip640)" style="stroke:#e26f46; stroke-linecap:round; stroke-linejoin:round; stroke-width:3; stroke-opacity:1; fill:none" stroke-dasharray="12, 6, 2, 6" points="2213.09,335.137 2273.55,335.137 "/>
<path clip-path="url(#clip640)" d="M2306.21 323.615 L2305.8 324.287 Q2303.26 323.189 2300.09 321.434 Q2296.93 323.189 2294.39 324.287 L2293.99 323.615 Q2296.76 321.205 2300.09 319.352 Q2303.45 321.221 2306.21 323.615 Z" fill="#000000" fill-rule="nonzero" fill-opacity="1" /><path clip-path="url(#clip640)" d="M2310.63 350.681 L2305.36 350.54 L2299.6 350.681 L2299.6 348.432 L2301.47 348.432 L2296.2 342.202 L2291.54 347.425 L2291.21 347.893 Q2291.21 348.104 2291.75 348.268 Q2292.31 348.432 2292.97 348.432 L2292.97 350.681 L2288.03 350.54 L2283.62 350.681 L2283.62 348.432 Q2285.1 348.432 2285.78 348.409 Q2286.48 348.362 2287.28 348.151 Q2288.07 347.94 2288.47 347.519 L2294.75 340.468 L2287.28 331.638 L2283.86 331.638 L2283.86 329.39 L2289.15 329.53 L2294.94 329.39 L2294.94 331.638 L2293.01 331.638 L2297.72 337.142 L2301.75 332.645 Q2301.77 332.622 2302.15 332.06 Q2301.4 331.638 2300.32 331.638 L2300.32 329.39 L2305.26 329.53 L2309.67 329.39 L2309.67 331.638 Q2307.75 331.638 2306.74 331.779 Q2305.76 331.896 2305.45 332.06 Q2305.17 332.224 2304.77 332.645 L2299.17 338.876 L2307.23 348.432 L2310.63 348.432 L2310.63 350.681 Z" fill="#000000" fill-rule="nonzero" fill-opacity="1" /><path clip-path="url(#clip640)" d="M1445.91 910.936 L2352.76 910.936 L2352.76 559.488 L1445.91 559.488  Z" fill="#ffffff" fill-rule="evenodd" fill-opacity="1"/>
<defs>
  <clipPath id="clip644">
    <rect x="1445" y="559" width="908" height="352"/>
  </clipPath>
</defs>
<polyline clip-path="url(#clip644)" style="stroke:#000000; stroke-linecap:round; stroke-linejoin:round; stroke-width:2; stroke-opacity:0.1; fill:none" points="1471.57,910.936 1471.57,559.488 "/>
<polyline clip-path="url(#clip644)" style="stroke:#000000; stroke-linecap:round; stroke-linejoin:round; stroke-width:2; stroke-opacity:0.1; fill:none" points="1723.2,910.936 1723.2,559.488 "/>
<polyline clip-path="url(#clip644)" style="stroke:#000000; stroke-linecap:round; stroke-linejoin:round; stroke-width:2; stroke-opacity:0.1; fill:none" points="1974.82,910.936 1974.82,559.488 "/>
<polyline clip-path="url(#clip644)" style="stroke:#000000; stroke-linecap:round; stroke-linejoin:round; stroke-width:2; stroke-opacity:0.1; fill:none" points="2226.44,910.936 2226.44,559.488 "/>
<polyline clip-path="url(#clip644)" style="stroke:#000000; stroke-linecap:round; stroke-linejoin:round; stroke-width:2; stroke-opacity:0.1; fill:none" points="1445.91,882.308 2352.76,882.308 "/>
<polyline clip-path="url(#clip644)" style="stroke:#000000; stroke-linecap:round; stroke-linejoin:round; stroke-width:2; stroke-opacity:0.1; fill:none" points="1445.91,834.781 2352.76,834.781 "/>
<polyline clip-path="url(#clip644)" style="stroke:#000000; stroke-linecap:round; stroke-linejoin:round; stroke-width:2; stroke-opacity:0.1; fill:none" points="1445.91,787.254 2352.76,787.254 "/>
<polyline clip-path="url(#clip644)" style="stroke:#000000; stroke-linecap:round; stroke-linejoin:round; stroke-width:2; stroke-opacity:0.1; fill:none" points="1445.91,739.728 2352.76,739.728 "/>
<polyline clip-path="url(#clip644)" style="stroke:#000000; stroke-linecap:round; stroke-linejoin:round; stroke-width:2; stroke-opacity:0.1; fill:none" points="1445.91,692.201 2352.76,692.201 "/>
<polyline clip-path="url(#clip644)" style="stroke:#000000; stroke-linecap:round; stroke-linejoin:round; stroke-width:2; stroke-opacity:0.1; fill:none" points="1445.91,644.674 2352.76,644.674 "/>
<polyline clip-path="url(#clip644)" style="stroke:#000000; stroke-linecap:round; stroke-linejoin:round; stroke-width:2; stroke-opacity:0.1; fill:none" points="1445.91,597.147 2352.76,597.147 "/>
<polyline clip-path="url(#clip640)" style="stroke:#000000; stroke-linecap:round; stroke-linejoin:round; stroke-width:4; stroke-opacity:1; fill:none" points="1445.91,910.936 2352.76,910.936 "/>
<polyline clip-path="url(#clip640)" style="stroke:#000000; stroke-linecap:round; stroke-linejoin:round; stroke-width:4; stroke-opacity:1; fill:none" points="1471.57,910.936 1471.57,892.038 "/>
<polyline clip-path="url(#clip640)" style="stroke:#000000; stroke-linecap:round; stroke-linejoin:round; stroke-width:4; stroke-opacity:1; fill:none" points="1723.2,910.936 1723.2,892.038 "/>
<polyline clip-path="url(#clip640)" style="stroke:#000000; stroke-linecap:round; stroke-linejoin:round; stroke-width:4; stroke-opacity:1; fill:none" points="1974.82,910.936 1974.82,892.038 "/>
<polyline clip-path="url(#clip640)" style="stroke:#000000; stroke-linecap:round; stroke-linejoin:round; stroke-width:4; stroke-opacity:1; fill:none" points="2226.44,910.936 2226.44,892.038 "/>
<path clip-path="url(#clip640)" d="M1471.57 941.855 Q1467.96 941.855 1466.13 945.419 Q1464.33 948.961 1464.33 956.091 Q1464.33 963.197 1466.13 966.762 Q1467.96 970.303 1471.57 970.303 Q1475.21 970.303 1477.01 966.762 Q1478.84 963.197 1478.84 956.091 Q1478.84 948.961 1477.01 945.419 Q1475.21 941.855 1471.57 941.855 M1471.57 938.151 Q1477.38 938.151 1480.44 942.757 Q1483.52 947.341 1483.52 956.091 Q1483.52 964.817 1480.44 969.424 Q1477.38 974.007 1471.57 974.007 Q1465.76 974.007 1462.68 969.424 Q1459.63 964.817 1459.63 956.091 Q1459.63 947.341 1462.68 942.757 Q1465.76 938.151 1471.57 938.151 Z" fill="#000000" fill-rule="nonzero" fill-opacity="1" /><path clip-path="url(#clip640)" d="M1713.58 969.401 L1721.22 969.401 L1721.22 943.035 L1712.91 944.702 L1712.91 940.443 L1721.17 938.776 L1725.85 938.776 L1725.85 969.401 L1733.49 969.401 L1733.49 973.336 L1713.58 973.336 L1713.58 969.401 Z" fill="#000000" fill-rule="nonzero" fill-opacity="1" /><path clip-path="url(#clip640)" d="M1969.47 969.401 L1985.79 969.401 L1985.79 973.336 L1963.85 973.336 L1963.85 969.401 Q1966.51 966.646 1971.09 962.016 Q1975.7 957.364 1976.88 956.021 Q1979.12 953.498 1980 951.762 Q1980.91 950.003 1980.91 948.313 Q1980.91 945.558 1978.96 943.822 Q1977.04 942.086 1973.94 942.086 Q1971.74 942.086 1969.29 942.85 Q1966.86 943.614 1964.08 945.165 L1964.08 940.443 Q1966.9 939.308 1969.36 938.73 Q1971.81 938.151 1973.85 938.151 Q1979.22 938.151 1982.41 940.836 Q1985.61 943.521 1985.61 948.012 Q1985.61 950.142 1984.8 952.063 Q1984.01 953.961 1981.9 956.554 Q1981.32 957.225 1978.22 960.442 Q1975.12 963.637 1969.47 969.401 Z" fill="#000000" fill-rule="nonzero" fill-opacity="1" /><path clip-path="url(#clip640)" d="M2230.69 954.702 Q2234.05 955.419 2235.92 957.688 Q2237.82 959.956 2237.82 963.29 Q2237.82 968.405 2234.3 971.206 Q2230.78 974.007 2224.3 974.007 Q2222.12 974.007 2219.81 973.567 Q2217.52 973.151 2215.06 972.294 L2215.06 967.78 Q2217.01 968.915 2219.32 969.493 Q2221.64 970.072 2224.16 970.072 Q2228.56 970.072 2230.85 968.336 Q2233.17 966.6 2233.17 963.29 Q2233.17 960.234 2231.01 958.521 Q2228.88 956.785 2225.06 956.785 L2221.04 956.785 L2221.04 952.942 L2225.25 952.942 Q2228.7 952.942 2230.53 951.577 Q2232.36 950.188 2232.36 947.595 Q2232.36 944.933 2230.46 943.521 Q2228.58 942.086 2225.06 942.086 Q2223.14 942.086 2220.94 942.503 Q2218.74 942.919 2216.11 943.799 L2216.11 939.632 Q2218.77 938.892 2221.08 938.521 Q2223.42 938.151 2225.48 938.151 Q2230.8 938.151 2233.91 940.581 Q2237.01 942.989 2237.01 947.109 Q2237.01 949.979 2235.36 951.97 Q2233.72 953.938 2230.69 954.702 Z" fill="#000000" fill-rule="nonzero" fill-opacity="1" /><polyline clip-path="url(#clip640)" style="stroke:#000000; stroke-linecap:round; stroke-linejoin:round; stroke-width:4; stroke-opacity:1; fill:none" points="1445.91,910.936 1445.91,559.488 "/>
<polyline clip-path="url(#clip640)" style="stroke:#000000; stroke-linecap:round; stroke-linejoin:round; stroke-width:4; stroke-opacity:1; fill:none" points="1445.91,882.308 1464.81,882.308 "/>
<polyline clip-path="url(#clip640)" style="stroke:#000000; stroke-linecap:round; stroke-linejoin:round; stroke-width:4; stroke-opacity:1; fill:none" points="1445.91,834.781 1464.81,834.781 "/>
<polyline clip-path="url(#clip640)" style="stroke:#000000; stroke-linecap:round; stroke-linejoin:round; stroke-width:4; stroke-opacity:1; fill:none" points="1445.91,787.254 1464.81,787.254 "/>
<polyline clip-path="url(#clip640)" style="stroke:#000000; stroke-linecap:round; stroke-linejoin:round; stroke-width:4; stroke-opacity:1; fill:none" points="1445.91,739.728 1464.81,739.728 "/>
<polyline clip-path="url(#clip640)" style="stroke:#000000; stroke-linecap:round; stroke-linejoin:round; stroke-width:4; stroke-opacity:1; fill:none" points="1445.91,692.201 1464.81,692.201 "/>
<polyline clip-path="url(#clip640)" style="stroke:#000000; stroke-linecap:round; stroke-linejoin:round; stroke-width:4; stroke-opacity:1; fill:none" points="1445.91,644.674 1464.81,644.674 "/>
<polyline clip-path="url(#clip640)" style="stroke:#000000; stroke-linecap:round; stroke-linejoin:round; stroke-width:4; stroke-opacity:1; fill:none" points="1445.91,597.147 1464.81,597.147 "/>
<path clip-path="url(#clip640)" d="M1304.56 882.76 L1334.24 882.76 L1334.24 886.695 L1304.56 886.695 L1304.56 882.76 Z" fill="#000000" fill-rule="nonzero" fill-opacity="1" /><path clip-path="url(#clip640)" d="M1354.33 868.107 Q1350.72 868.107 1348.89 871.672 Q1347.08 875.214 1347.08 882.343 Q1347.08 889.45 1348.89 893.014 Q1350.72 896.556 1354.33 896.556 Q1357.96 896.556 1359.77 893.014 Q1361.6 889.45 1361.6 882.343 Q1361.6 875.214 1359.77 871.672 Q1357.96 868.107 1354.33 868.107 M1354.33 864.403 Q1360.14 864.403 1363.2 869.01 Q1366.27 873.593 1366.27 882.343 Q1366.27 891.07 1363.2 895.676 Q1360.14 900.26 1354.33 900.26 Q1348.52 900.26 1345.44 895.676 Q1342.39 891.07 1342.39 882.343 Q1342.39 873.593 1345.44 869.01 Q1348.52 864.403 1354.33 864.403 Z" fill="#000000" fill-rule="nonzero" fill-opacity="1" /><path clip-path="url(#clip640)" d="M1374.49 893.709 L1379.38 893.709 L1379.38 899.588 L1374.49 899.588 L1374.49 893.709 Z" fill="#000000" fill-rule="nonzero" fill-opacity="1" /><path clip-path="url(#clip640)" d="M1393.59 895.653 L1409.91 895.653 L1409.91 899.588 L1387.96 899.588 L1387.96 895.653 Q1390.63 892.899 1395.21 888.269 Q1399.82 883.616 1401 882.274 Q1403.24 879.751 1404.12 878.014 Q1405.02 876.255 1405.02 874.565 Q1405.02 871.811 1403.08 870.075 Q1401.16 868.339 1398.06 868.339 Q1395.86 868.339 1393.4 869.103 Q1390.97 869.866 1388.19 871.417 L1388.19 866.695 Q1391.02 865.561 1393.47 864.982 Q1395.93 864.403 1397.96 864.403 Q1403.33 864.403 1406.53 867.089 Q1409.72 869.774 1409.72 874.265 Q1409.72 876.394 1408.91 878.315 Q1408.13 880.214 1406.02 882.806 Q1405.44 883.477 1402.34 886.695 Q1399.24 889.889 1393.59 895.653 Z" fill="#000000" fill-rule="nonzero" fill-opacity="1" /><path clip-path="url(#clip640)" d="M1352.73 820.58 Q1349.12 820.58 1347.29 824.145 Q1345.49 827.687 1345.49 834.816 Q1345.49 841.923 1347.29 845.487 Q1349.12 849.029 1352.73 849.029 Q1356.37 849.029 1358.17 845.487 Q1360 841.923 1360 834.816 Q1360 827.687 1358.17 824.145 Q1356.37 820.58 1352.73 820.58 M1352.73 816.876 Q1358.54 816.876 1361.6 821.483 Q1364.68 826.066 1364.68 834.816 Q1364.68 843.543 1361.6 848.149 Q1358.54 852.733 1352.73 852.733 Q1346.92 852.733 1343.84 848.149 Q1340.79 843.543 1340.79 834.816 Q1340.79 826.066 1343.84 821.483 Q1346.92 816.876 1352.73 816.876 Z" fill="#000000" fill-rule="nonzero" fill-opacity="1" /><path clip-path="url(#clip640)" d="M1372.89 846.182 L1377.78 846.182 L1377.78 852.061 L1372.89 852.061 L1372.89 846.182 Z" fill="#000000" fill-rule="nonzero" fill-opacity="1" /><path clip-path="url(#clip640)" d="M1397.96 820.58 Q1394.35 820.58 1392.52 824.145 Q1390.72 827.687 1390.72 834.816 Q1390.72 841.923 1392.52 845.487 Q1394.35 849.029 1397.96 849.029 Q1401.6 849.029 1403.4 845.487 Q1405.23 841.923 1405.23 834.816 Q1405.23 827.687 1403.4 824.145 Q1401.6 820.58 1397.96 820.58 M1397.96 816.876 Q1403.77 816.876 1406.83 821.483 Q1409.91 826.066 1409.91 834.816 Q1409.91 843.543 1406.83 848.149 Q1403.77 852.733 1397.96 852.733 Q1392.15 852.733 1389.07 848.149 Q1386.02 843.543 1386.02 834.816 Q1386.02 826.066 1389.07 821.483 Q1392.15 816.876 1397.96 816.876 Z" fill="#000000" fill-rule="nonzero" fill-opacity="1" /><path clip-path="url(#clip640)" d="M1354.33 773.053 Q1350.72 773.053 1348.89 776.618 Q1347.08 780.16 1347.08 787.289 Q1347.08 794.396 1348.89 797.96 Q1350.72 801.502 1354.33 801.502 Q1357.96 801.502 1359.77 797.96 Q1361.6 794.396 1361.6 787.289 Q1361.6 780.16 1359.77 776.618 Q1357.96 773.053 1354.33 773.053 M1354.33 769.349 Q1360.14 769.349 1363.2 773.956 Q1366.27 778.539 1366.27 787.289 Q1366.27 796.016 1363.2 800.622 Q1360.14 805.206 1354.33 805.206 Q1348.52 805.206 1345.44 800.622 Q1342.39 796.016 1342.39 787.289 Q1342.39 778.539 1345.44 773.956 Q1348.52 769.349 1354.33 769.349 Z" fill="#000000" fill-rule="nonzero" fill-opacity="1" /><path clip-path="url(#clip640)" d="M1374.49 798.655 L1379.38 798.655 L1379.38 804.534 L1374.49 804.534 L1374.49 798.655 Z" fill="#000000" fill-rule="nonzero" fill-opacity="1" /><path clip-path="url(#clip640)" d="M1393.59 800.599 L1409.91 800.599 L1409.91 804.534 L1387.96 804.534 L1387.96 800.599 Q1390.63 797.845 1395.21 793.215 Q1399.82 788.562 1401 787.22 Q1403.24 784.697 1404.12 782.961 Q1405.02 781.201 1405.02 779.511 Q1405.02 776.757 1403.08 775.021 Q1401.16 773.285 1398.06 773.285 Q1395.86 773.285 1393.4 774.049 Q1390.97 774.812 1388.19 776.363 L1388.19 771.641 Q1391.02 770.507 1393.47 769.928 Q1395.93 769.349 1397.96 769.349 Q1403.33 769.349 1406.53 772.035 Q1409.72 774.72 1409.72 779.211 Q1409.72 781.34 1408.91 783.261 Q1408.13 785.16 1406.02 787.752 Q1405.44 788.423 1402.34 791.641 Q1399.24 794.835 1393.59 800.599 Z" fill="#000000" fill-rule="nonzero" fill-opacity="1" /><path clip-path="url(#clip640)" d="M1352.25 725.526 Q1348.63 725.526 1346.81 729.091 Q1345 732.633 1345 739.762 Q1345 746.869 1346.81 750.433 Q1348.63 753.975 1352.25 753.975 Q1355.88 753.975 1357.69 750.433 Q1359.51 746.869 1359.51 739.762 Q1359.51 732.633 1357.69 729.091 Q1355.88 725.526 1352.25 725.526 M1352.25 721.823 Q1358.06 721.823 1361.11 726.429 Q1364.19 731.012 1364.19 739.762 Q1364.19 748.489 1361.11 753.095 Q1358.06 757.679 1352.25 757.679 Q1346.44 757.679 1343.36 753.095 Q1340.3 748.489 1340.3 739.762 Q1340.3 731.012 1343.36 726.429 Q1346.44 721.823 1352.25 721.823 Z" fill="#000000" fill-rule="nonzero" fill-opacity="1" /><path clip-path="url(#clip640)" d="M1372.41 751.128 L1377.29 751.128 L1377.29 757.008 L1372.41 757.008 L1372.41 751.128 Z" fill="#000000" fill-rule="nonzero" fill-opacity="1" /><path clip-path="url(#clip640)" d="M1400.32 726.522 L1388.52 744.971 L1400.32 744.971 L1400.32 726.522 M1399.1 722.448 L1404.98 722.448 L1404.98 744.971 L1409.91 744.971 L1409.91 748.859 L1404.98 748.859 L1404.98 757.008 L1400.32 757.008 L1400.32 748.859 L1384.72 748.859 L1384.72 744.346 L1399.1 722.448 Z" fill="#000000" fill-rule="nonzero" fill-opacity="1" /><path clip-path="url(#clip640)" d="M1352.57 677.999 Q1348.96 677.999 1347.13 681.564 Q1345.32 685.106 1345.32 692.235 Q1345.32 699.342 1347.13 702.906 Q1348.96 706.448 1352.57 706.448 Q1356.2 706.448 1358.01 702.906 Q1359.84 699.342 1359.84 692.235 Q1359.84 685.106 1358.01 681.564 Q1356.2 677.999 1352.57 677.999 M1352.57 674.296 Q1358.38 674.296 1361.44 678.902 Q1364.51 683.485 1364.51 692.235 Q1364.51 700.962 1361.44 705.569 Q1358.38 710.152 1352.57 710.152 Q1346.76 710.152 1343.68 705.569 Q1340.63 700.962 1340.63 692.235 Q1340.63 683.485 1343.68 678.902 Q1346.76 674.296 1352.57 674.296 Z" fill="#000000" fill-rule="nonzero" fill-opacity="1" /><path clip-path="url(#clip640)" d="M1372.73 703.601 L1377.62 703.601 L1377.62 709.481 L1372.73 709.481 L1372.73 703.601 Z" fill="#000000" fill-rule="nonzero" fill-opacity="1" /><path clip-path="url(#clip640)" d="M1398.38 690.337 Q1395.23 690.337 1393.38 692.49 Q1391.55 694.643 1391.55 698.393 Q1391.55 702.119 1393.38 704.295 Q1395.23 706.448 1398.38 706.448 Q1401.53 706.448 1403.36 704.295 Q1405.21 702.119 1405.21 698.393 Q1405.21 694.643 1403.36 692.49 Q1401.53 690.337 1398.38 690.337 M1407.66 675.684 L1407.66 679.944 Q1405.9 679.11 1404.1 678.671 Q1402.32 678.231 1400.56 678.231 Q1395.93 678.231 1393.47 681.356 Q1391.04 684.481 1390.69 690.8 Q1392.06 688.786 1394.12 687.721 Q1396.18 686.633 1398.66 686.633 Q1403.87 686.633 1406.88 689.805 Q1409.91 692.953 1409.91 698.393 Q1409.91 703.717 1406.76 706.934 Q1403.61 710.152 1398.38 710.152 Q1392.38 710.152 1389.21 705.569 Q1386.04 700.962 1386.04 692.235 Q1386.04 684.041 1389.93 679.18 Q1393.82 674.296 1400.37 674.296 Q1402.13 674.296 1403.91 674.643 Q1405.72 674.99 1407.66 675.684 Z" fill="#000000" fill-rule="nonzero" fill-opacity="1" /><path clip-path="url(#clip640)" d="M1352.82 630.472 Q1349.21 630.472 1347.38 634.037 Q1345.58 637.579 1345.58 644.708 Q1345.58 651.815 1347.38 655.38 Q1349.21 658.921 1352.82 658.921 Q1356.46 658.921 1358.26 655.38 Q1360.09 651.815 1360.09 644.708 Q1360.09 637.579 1358.26 634.037 Q1356.46 630.472 1352.82 630.472 M1352.82 626.769 Q1358.63 626.769 1361.69 631.375 Q1364.77 635.958 1364.77 644.708 Q1364.77 653.435 1361.69 658.042 Q1358.63 662.625 1352.82 662.625 Q1347.01 662.625 1343.94 658.042 Q1340.88 653.435 1340.88 644.708 Q1340.88 635.958 1343.94 631.375 Q1347.01 626.769 1352.82 626.769 Z" fill="#000000" fill-rule="nonzero" fill-opacity="1" /><path clip-path="url(#clip640)" d="M1372.99 656.074 L1377.87 656.074 L1377.87 661.954 L1372.99 661.954 L1372.99 656.074 Z" fill="#000000" fill-rule="nonzero" fill-opacity="1" /><path clip-path="url(#clip640)" d="M1398.06 645.542 Q1394.72 645.542 1392.8 647.324 Q1390.9 649.106 1390.9 652.231 Q1390.9 655.356 1392.8 657.139 Q1394.72 658.921 1398.06 658.921 Q1401.39 658.921 1403.31 657.139 Q1405.23 655.333 1405.23 652.231 Q1405.23 649.106 1403.31 647.324 Q1401.41 645.542 1398.06 645.542 M1393.38 643.551 Q1390.37 642.81 1388.68 640.75 Q1387.01 638.69 1387.01 635.727 Q1387.01 631.583 1389.95 629.176 Q1392.92 626.769 1398.06 626.769 Q1403.22 626.769 1406.16 629.176 Q1409.1 631.583 1409.1 635.727 Q1409.1 638.69 1407.41 640.75 Q1405.74 642.81 1402.76 643.551 Q1406.13 644.338 1408.01 646.63 Q1409.91 648.921 1409.91 652.231 Q1409.91 657.254 1406.83 659.94 Q1403.77 662.625 1398.06 662.625 Q1392.34 662.625 1389.26 659.94 Q1386.2 657.254 1386.2 652.231 Q1386.2 648.921 1388.1 646.63 Q1390 644.338 1393.38 643.551 M1391.67 636.167 Q1391.67 638.852 1393.33 640.356 Q1395.02 641.861 1398.06 641.861 Q1401.07 641.861 1402.76 640.356 Q1404.47 638.852 1404.47 636.167 Q1404.47 633.481 1402.76 631.977 Q1401.07 630.472 1398.06 630.472 Q1395.02 630.472 1393.33 631.977 Q1391.67 633.481 1391.67 636.167 Z" fill="#000000" fill-rule="nonzero" fill-opacity="1" /><path clip-path="url(#clip640)" d="M1343.54 610.491 L1351.18 610.491 L1351.18 584.126 L1342.87 585.792 L1342.87 581.533 L1351.13 579.867 L1355.81 579.867 L1355.81 610.491 L1363.45 610.491 L1363.45 614.427 L1343.54 614.427 L1343.54 610.491 Z" fill="#000000" fill-rule="nonzero" fill-opacity="1" /><path clip-path="url(#clip640)" d="M1372.89 608.547 L1377.78 608.547 L1377.78 614.427 L1372.89 614.427 L1372.89 608.547 Z" fill="#000000" fill-rule="nonzero" fill-opacity="1" /><path clip-path="url(#clip640)" d="M1397.96 582.945 Q1394.35 582.945 1392.52 586.51 Q1390.72 590.052 1390.72 597.181 Q1390.72 604.288 1392.52 607.853 Q1394.35 611.394 1397.96 611.394 Q1401.6 611.394 1403.4 607.853 Q1405.23 604.288 1405.23 597.181 Q1405.23 590.052 1403.4 586.51 Q1401.6 582.945 1397.96 582.945 M1397.96 579.242 Q1403.77 579.242 1406.83 583.848 Q1409.91 588.431 1409.91 597.181 Q1409.91 605.908 1406.83 610.515 Q1403.77 615.098 1397.96 615.098 Q1392.15 615.098 1389.07 610.515 Q1386.02 605.908 1386.02 597.181 Q1386.02 588.431 1389.07 583.848 Q1392.15 579.242 1397.96 579.242 Z" fill="#000000" fill-rule="nonzero" fill-opacity="1" /><path clip-path="url(#clip640)" d="M1229.58 831.559 Q1232.57 831.559 1238.37 833.072 Q1240.88 833.684 1243.17 834.522 Q1245.42 835.327 1247.61 836.518 Q1249.8 837.71 1251.38 839.095 Q1252.93 840.48 1253.89 842.283 Q1254.86 844.087 1254.86 846.084 Q1254.86 849.24 1252.99 851.108 Q1251.09 852.943 1247.84 853.523 Q1254.86 857.839 1254.86 863.604 Q1254.86 867.178 1252.32 868.853 Q1249.74 870.528 1245.42 870.528 Q1241.78 870.528 1238.02 869.562 Q1230.87 867.726 1225.87 864.151 Q1225.3 863.668 1225.3 862.959 Q1225.3 862.541 1225.42 862.347 Q1225.78 861.768 1226.36 861.768 Q1226.78 861.768 1227.2 862.09 Q1230.32 864.344 1232.99 865.826 Q1235.67 867.307 1238.37 867.984 Q1240.69 868.499 1242.65 868.499 Q1245.97 868.499 1248.03 867.082 Q1250.09 865.632 1250.09 862.766 Q1250.09 860.125 1248.45 857.806 Q1246.78 855.488 1243.97 853.781 Q1240.92 853.684 1238.02 852.943 Q1234.92 852.267 1234.92 850.689 Q1234.92 849.433 1236.63 849.433 Q1237.21 849.433 1238.37 849.691 Q1241.43 850.399 1244.17 851.687 Q1246.84 851.236 1248.48 849.562 Q1250.09 847.887 1250.09 845.214 Q1250.09 842.734 1248.29 840.544 Q1246.49 838.322 1243.85 836.905 Q1241.17 835.456 1238.02 834.65 Q1236.95 834.393 1235.6 834.393 Q1231.99 834.393 1229.77 836.905 Q1229.06 837.613 1228.13 837.613 Q1227.03 837.613 1226.04 836.712 Q1224.97 835.649 1224.97 834.393 Q1224.97 833.459 1225.55 832.879 Q1226.71 831.559 1229.58 831.559 Z" fill="#000000" fill-rule="nonzero" fill-opacity="1" /><path clip-path="url(#clip640)" d="M1204.66 788.989 Q1211.98 793.255 1219.14 795.323 Q1226.3 797.392 1233.65 797.392 Q1241.01 797.392 1248.23 795.323 Q1255.42 793.223 1262.71 788.989 L1262.71 794.082 Q1255.23 798.856 1248.01 801.243 Q1240.78 803.599 1233.65 803.599 Q1226.56 803.599 1219.36 801.243 Q1212.17 798.888 1204.66 794.082 L1204.66 788.989 Z" fill="#000000" fill-rule="nonzero" fill-opacity="1" /><path clip-path="url(#clip640)" d="M1223.95 756.97 Q1223.37 757.957 1223.12 759.134 Q1222.83 760.28 1222.83 761.681 Q1222.83 766.646 1226.08 769.319 Q1229.29 771.961 1235.34 771.961 L1254.12 771.961 L1254.12 777.85 L1218.47 777.85 L1218.47 771.961 L1224.01 771.961 Q1220.76 770.115 1219.2 767.155 Q1217.61 764.195 1217.61 759.962 Q1217.61 759.357 1217.71 758.625 Q1217.77 757.893 1217.93 757.002 L1223.95 756.97 Z" fill="#000000" fill-rule="nonzero" fill-opacity="1" /><path clip-path="url(#clip640)" d="M1236.2 734.626 Q1236.2 741.724 1237.82 744.461 Q1239.45 747.199 1243.36 747.199 Q1246.48 747.199 1248.33 745.162 Q1250.14 743.093 1250.14 739.56 Q1250.14 734.69 1246.7 731.762 Q1243.23 728.802 1237.5 728.802 L1236.2 728.802 L1236.2 734.626 M1233.78 722.945 L1254.12 722.945 L1254.12 728.802 L1248.71 728.802 Q1251.96 730.807 1253.51 733.799 Q1255.04 736.791 1255.04 741.119 Q1255.04 746.594 1251.99 749.84 Q1248.9 753.055 1243.74 753.055 Q1237.73 753.055 1234.67 749.045 Q1231.62 745.002 1231.62 737.013 L1231.62 728.802 L1231.04 728.802 Q1227 728.802 1224.81 731.475 Q1222.58 734.117 1222.58 738.923 Q1222.58 741.979 1223.31 744.875 Q1224.04 747.772 1225.51 750.445 L1220.09 750.445 Q1218.85 747.23 1218.25 744.207 Q1217.61 741.183 1217.61 738.318 Q1217.61 730.584 1221.62 726.765 Q1225.63 722.945 1233.78 722.945 Z" fill="#000000" fill-rule="nonzero" fill-opacity="1" /><path clip-path="url(#clip640)" d="M1223.88 687.425 L1204.59 687.425 L1204.59 681.568 L1254.12 681.568 L1254.12 687.425 L1248.77 687.425 Q1251.96 689.271 1253.51 692.103 Q1255.04 694.904 1255.04 698.851 Q1255.04 705.312 1249.89 709.386 Q1244.73 713.429 1236.33 713.429 Q1227.92 713.429 1222.77 709.386 Q1217.61 705.312 1217.61 698.851 Q1217.61 694.904 1219.17 692.103 Q1220.7 689.271 1223.88 687.425 M1236.33 707.381 Q1242.79 707.381 1246.48 704.739 Q1250.14 702.066 1250.14 697.419 Q1250.14 692.772 1246.48 690.098 Q1242.79 687.425 1236.33 687.425 Q1229.87 687.425 1226.21 690.098 Q1222.51 692.772 1222.51 697.419 Q1222.51 702.066 1226.21 704.739 Q1229.87 707.381 1236.33 707.381 Z" fill="#000000" fill-rule="nonzero" fill-opacity="1" /><path clip-path="url(#clip640)" d="M1206.6 659.097 L1206.6 653.686 L1260.17 670.237 L1260.17 675.648 L1206.6 659.097 Z" fill="#000000" fill-rule="nonzero" fill-opacity="1" /><path clip-path="url(#clip640)" d="M1219.52 624.818 L1225.06 624.818 Q1223.79 627.301 1223.15 629.974 Q1222.51 632.648 1222.51 635.512 Q1222.51 639.873 1223.85 642.069 Q1225.19 644.233 1227.86 644.233 Q1229.9 644.233 1231.08 642.674 Q1232.22 641.114 1233.27 636.404 L1233.72 634.398 Q1235.05 628.16 1237.5 625.55 Q1239.92 622.908 1244.28 622.908 Q1249.25 622.908 1252.15 626.855 Q1255.04 630.77 1255.04 637.645 Q1255.04 640.509 1254.47 643.629 Q1253.93 646.716 1252.81 650.153 L1246.77 650.153 Q1248.45 646.907 1249.31 643.756 Q1250.14 640.605 1250.14 637.517 Q1250.14 633.38 1248.74 631.152 Q1247.31 628.924 1244.73 628.924 Q1242.34 628.924 1241.07 630.547 Q1239.8 632.138 1238.62 637.581 L1238.14 639.618 Q1237 645.061 1234.64 647.48 Q1232.25 649.899 1228.12 649.899 Q1223.09 649.899 1220.35 646.334 Q1217.61 642.769 1217.61 636.213 Q1217.61 632.966 1218.09 630.101 Q1218.57 627.237 1219.52 624.818 Z" fill="#000000" fill-rule="nonzero" fill-opacity="1" /><path clip-path="url(#clip640)" d="M1204.66 614.505 L1204.66 609.413 Q1212.17 604.639 1219.36 602.283 Q1226.56 599.896 1233.65 599.896 Q1240.78 599.896 1248.01 602.283 Q1255.23 604.639 1262.71 609.413 L1262.71 614.505 Q1255.42 610.272 1248.23 608.203 Q1241.01 606.103 1233.65 606.103 Q1226.3 606.103 1219.14 608.203 Q1211.98 610.272 1204.66 614.505 Z" fill="#000000" fill-rule="nonzero" fill-opacity="1" /><polyline clip-path="url(#clip644)" style="stroke:#009af9; stroke-linecap:round; stroke-linejoin:round; stroke-width:4; stroke-opacity:1; fill:none" points="1471.57,834.781 1496.74,647.684 1521.9,569.435 1547.06,571.509 1572.22,620.884 1597.38,688.785 1622.55,755.123 1647.71,808.789 1672.87,845.675 1698.03,866.244 1723.2,873.472 1748.36,871.353 1773.52,863.872 1798.68,854.373 1823.85,845.253 1849.01,837.921 1874.17,832.932 1899.33,830.224 1924.49,829.364 1949.66,829.774 1974.82,830.881 1999.98,832.222 2025.14,833.475 2050.31,834.458 2075.47,835.11 2100.63,835.45 2125.79,835.541 2150.95,835.466 2176.12,835.304 2201.28,835.115 2226.44,834.944 2251.6,834.812 2276.77,834.727 2301.93,834.685 2327.09,834.675 "/>
<polyline clip-path="url(#clip644)" style="stroke:#e26f46; stroke-linecap:round; stroke-linejoin:round; stroke-width:3; stroke-opacity:1; fill:none" stroke-dasharray="12, 6, 2, 6" points="1471.57,834.781 1496.74,633.142 1521.9,589.652 1547.06,576.895 1572.22,597.987 1597.38,687.17 1622.55,751.722 1647.71,822.66 1672.87,858.39 1698.03,882.533 1723.2,900.989 1748.36,896.414 1773.52,863.037 1798.68,855.48 1823.85,846.419 1849.01,842.981 1874.17,840.37 1899.33,841.49 1924.49,828.152 1949.66,827.773 1974.82,826.722 1999.98,826.601 2025.14,830.875 2050.31,832.937 2075.47,842.846 2100.63,821.872 2125.79,854.392 2150.95,828.274 2176.12,833.055 2201.28,840.48 2226.44,827.557 2251.6,840.57 2276.77,826.741 2301.93,838.085 2327.09,835.841 "/>
<path clip-path="url(#clip640)" d="M2203.01 726.723 L2322.53 726.723 L2322.53 571.203 L2203.01 571.203  Z" fill="#ffffff" fill-rule="evenodd" fill-opacity="1"/>
<polyline clip-path="url(#clip640)" style="stroke:#000000; stroke-linecap:round; stroke-linejoin:round; stroke-width:4; stroke-opacity:1; fill:none" points="2203.01,726.723 2322.53,726.723 2322.53,571.203 2203.01,571.203 2203.01,726.723 "/>
<polyline clip-path="url(#clip640)" style="stroke:#009af9; stroke-linecap:round; stroke-linejoin:round; stroke-width:4; stroke-opacity:1; fill:none" points="2213.09,623.043 2273.55,623.043 "/>
<path clip-path="url(#clip640)" d="M2310.63 633.582 L2305.36 633.442 L2299.6 633.582 L2299.6 631.334 L2301.47 631.334 L2296.2 625.103 L2291.54 630.326 L2291.21 630.795 Q2291.21 631.006 2291.75 631.17 Q2292.31 631.334 2292.97 631.334 L2292.97 633.582 L2288.03 633.442 L2283.62 633.582 L2283.62 631.334 Q2285.1 631.334 2285.78 631.31 Q2286.48 631.263 2287.28 631.052 Q2288.07 630.842 2288.47 630.42 L2294.75 623.37 L2287.28 614.54 L2283.86 614.54 L2283.86 612.291 L2289.15 612.432 L2294.94 612.291 L2294.94 614.54 L2293.01 614.54 L2297.72 620.044 L2301.75 615.547 Q2301.77 615.523 2302.15 614.961 Q2301.4 614.54 2300.32 614.54 L2300.32 612.291 L2305.26 612.432 L2309.67 612.291 L2309.67 614.54 Q2307.75 614.54 2306.74 614.68 Q2305.76 614.797 2305.45 614.961 Q2305.17 615.125 2304.77 615.547 L2299.17 621.777 L2307.23 631.334 L2310.63 631.334 L2310.63 633.582 Z" fill="#000000" fill-rule="nonzero" fill-opacity="1" /><polyline clip-path="url(#clip640)" style="stroke:#e26f46; stroke-linecap:round; stroke-linejoin:round; stroke-width:3; stroke-opacity:1; fill:none" stroke-dasharray="12, 6, 2, 6" points="2213.09,674.883 2273.55,674.883 "/>
<path clip-path="url(#clip640)" d="M2306.21 663.361 L2305.8 664.033 Q2303.26 662.935 2300.09 661.18 Q2296.93 662.935 2294.39 664.033 L2293.99 663.361 Q2296.76 660.951 2300.09 659.098 Q2303.45 660.967 2306.21 663.361 Z" fill="#000000" fill-rule="nonzero" fill-opacity="1" /><path clip-path="url(#clip640)" d="M2310.63 690.427 L2305.36 690.286 L2299.6 690.427 L2299.6 688.178 L2301.47 688.178 L2296.2 681.948 L2291.54 687.171 L2291.21 687.639 Q2291.21 687.85 2291.75 688.014 Q2292.31 688.178 2292.97 688.178 L2292.97 690.427 L2288.03 690.286 L2283.62 690.427 L2283.62 688.178 Q2285.1 688.178 2285.78 688.155 Q2286.48 688.108 2287.28 687.897 Q2288.07 687.686 2288.47 687.265 L2294.75 680.214 L2287.28 671.384 L2283.86 671.384 L2283.86 669.136 L2289.15 669.276 L2294.94 669.136 L2294.94 671.384 L2293.01 671.384 L2297.72 676.888 L2301.75 672.391 Q2301.77 672.368 2302.15 671.806 Q2301.4 671.384 2300.32 671.384 L2300.32 669.136 L2305.26 669.276 L2309.67 669.136 L2309.67 671.384 Q2307.75 671.384 2306.74 671.525 Q2305.76 671.642 2305.45 671.806 Q2305.17 671.97 2304.77 672.391 L2299.17 678.622 L2307.23 688.178 L2310.63 688.178 L2310.63 690.427 Z" fill="#000000" fill-rule="nonzero" fill-opacity="1" /><path clip-path="url(#clip640)" d="M1445.91 1423.18 L2352.76 1423.18 L2352.76 1071.73 L1445.91 1071.73  Z" fill="#ffffff" fill-rule="evenodd" fill-opacity="1"/>
<defs>
  <clipPath id="clip645">
    <rect x="1445" y="1071" width="908" height="352"/>
  </clipPath>
</defs>
<polyline clip-path="url(#clip645)" style="stroke:#000000; stroke-linecap:round; stroke-linejoin:round; stroke-width:2; stroke-opacity:0.1; fill:none" points="1471.57,1423.18 1471.57,1071.73 "/>
<polyline clip-path="url(#clip645)" style="stroke:#000000; stroke-linecap:round; stroke-linejoin:round; stroke-width:2; stroke-opacity:0.1; fill:none" points="1723.2,1423.18 1723.2,1071.73 "/>
<polyline clip-path="url(#clip645)" style="stroke:#000000; stroke-linecap:round; stroke-linejoin:round; stroke-width:2; stroke-opacity:0.1; fill:none" points="1974.82,1423.18 1974.82,1071.73 "/>
<polyline clip-path="url(#clip645)" style="stroke:#000000; stroke-linecap:round; stroke-linejoin:round; stroke-width:2; stroke-opacity:0.1; fill:none" points="2226.44,1423.18 2226.44,1071.73 "/>
<polyline clip-path="url(#clip645)" style="stroke:#000000; stroke-linecap:round; stroke-linejoin:round; stroke-width:2; stroke-opacity:0.1; fill:none" points="1445.91,1409.11 2352.76,1409.11 "/>
<polyline clip-path="url(#clip645)" style="stroke:#000000; stroke-linecap:round; stroke-linejoin:round; stroke-width:2; stroke-opacity:0.1; fill:none" points="1445.91,1323.75 2352.76,1323.75 "/>
<polyline clip-path="url(#clip645)" style="stroke:#000000; stroke-linecap:round; stroke-linejoin:round; stroke-width:2; stroke-opacity:0.1; fill:none" points="1445.91,1238.4 2352.76,1238.4 "/>
<polyline clip-path="url(#clip645)" style="stroke:#000000; stroke-linecap:round; stroke-linejoin:round; stroke-width:2; stroke-opacity:0.1; fill:none" points="1445.91,1153.04 2352.76,1153.04 "/>
<polyline clip-path="url(#clip640)" style="stroke:#000000; stroke-linecap:round; stroke-linejoin:round; stroke-width:4; stroke-opacity:1; fill:none" points="1445.91,1423.18 2352.76,1423.18 "/>
<polyline clip-path="url(#clip640)" style="stroke:#000000; stroke-linecap:round; stroke-linejoin:round; stroke-width:4; stroke-opacity:1; fill:none" points="1471.57,1423.18 1471.57,1404.28 "/>
<polyline clip-path="url(#clip640)" style="stroke:#000000; stroke-linecap:round; stroke-linejoin:round; stroke-width:4; stroke-opacity:1; fill:none" points="1723.2,1423.18 1723.2,1404.28 "/>
<polyline clip-path="url(#clip640)" style="stroke:#000000; stroke-linecap:round; stroke-linejoin:round; stroke-width:4; stroke-opacity:1; fill:none" points="1974.82,1423.18 1974.82,1404.28 "/>
<polyline clip-path="url(#clip640)" style="stroke:#000000; stroke-linecap:round; stroke-linejoin:round; stroke-width:4; stroke-opacity:1; fill:none" points="2226.44,1423.18 2226.44,1404.28 "/>
<path clip-path="url(#clip640)" d="M1471.57 1454.1 Q1467.96 1454.1 1466.13 1457.66 Q1464.33 1461.2 1464.33 1468.33 Q1464.33 1475.44 1466.13 1479.01 Q1467.96 1482.55 1471.57 1482.55 Q1475.21 1482.55 1477.01 1479.01 Q1478.84 1475.44 1478.84 1468.33 Q1478.84 1461.2 1477.01 1457.66 Q1475.21 1454.1 1471.57 1454.1 M1471.57 1450.39 Q1477.38 1450.39 1480.44 1455 Q1483.52 1459.58 1483.52 1468.33 Q1483.52 1477.06 1480.44 1481.67 Q1477.38 1486.25 1471.57 1486.25 Q1465.76 1486.25 1462.68 1481.67 Q1459.63 1477.06 1459.63 1468.33 Q1459.63 1459.58 1462.68 1455 Q1465.76 1450.39 1471.57 1450.39 Z" fill="#000000" fill-rule="nonzero" fill-opacity="1" /><path clip-path="url(#clip640)" d="M1713.58 1481.64 L1721.22 1481.64 L1721.22 1455.28 L1712.91 1456.95 L1712.91 1452.69 L1721.17 1451.02 L1725.85 1451.02 L1725.85 1481.64 L1733.49 1481.64 L1733.49 1485.58 L1713.58 1485.58 L1713.58 1481.64 Z" fill="#000000" fill-rule="nonzero" fill-opacity="1" /><path clip-path="url(#clip640)" d="M1969.47 1481.64 L1985.79 1481.64 L1985.79 1485.58 L1963.85 1485.58 L1963.85 1481.64 Q1966.51 1478.89 1971.09 1474.26 Q1975.7 1469.61 1976.88 1468.27 Q1979.12 1465.74 1980 1464.01 Q1980.91 1462.25 1980.91 1460.56 Q1980.91 1457.8 1978.96 1456.07 Q1977.04 1454.33 1973.94 1454.33 Q1971.74 1454.33 1969.29 1455.09 Q1966.86 1455.86 1964.08 1457.41 L1964.08 1452.69 Q1966.9 1451.55 1969.36 1450.97 Q1971.81 1450.39 1973.85 1450.39 Q1979.22 1450.39 1982.41 1453.08 Q1985.61 1455.77 1985.61 1460.26 Q1985.61 1462.39 1984.8 1464.31 Q1984.01 1466.2 1981.9 1468.8 Q1981.32 1469.47 1978.22 1472.69 Q1975.12 1475.88 1969.47 1481.64 Z" fill="#000000" fill-rule="nonzero" fill-opacity="1" /><path clip-path="url(#clip640)" d="M2230.69 1466.95 Q2234.05 1467.66 2235.92 1469.93 Q2237.82 1472.2 2237.82 1475.53 Q2237.82 1480.65 2234.3 1483.45 Q2230.78 1486.25 2224.3 1486.25 Q2222.12 1486.25 2219.81 1485.81 Q2217.52 1485.39 2215.06 1484.54 L2215.06 1480.02 Q2217.01 1481.16 2219.32 1481.74 Q2221.64 1482.32 2224.16 1482.32 Q2228.56 1482.32 2230.85 1480.58 Q2233.17 1478.84 2233.17 1475.53 Q2233.17 1472.48 2231.01 1470.77 Q2228.88 1469.03 2225.06 1469.03 L2221.04 1469.03 L2221.04 1465.19 L2225.25 1465.19 Q2228.7 1465.19 2230.53 1463.82 Q2232.36 1462.43 2232.36 1459.84 Q2232.36 1457.18 2230.46 1455.77 Q2228.58 1454.33 2225.06 1454.33 Q2223.14 1454.33 2220.94 1454.75 Q2218.74 1455.16 2216.11 1456.04 L2216.11 1451.88 Q2218.77 1451.14 2221.08 1450.77 Q2223.42 1450.39 2225.48 1450.39 Q2230.8 1450.39 2233.91 1452.83 Q2237.01 1455.23 2237.01 1459.35 Q2237.01 1462.22 2235.36 1464.21 Q2233.72 1466.18 2230.69 1466.95 Z" fill="#000000" fill-rule="nonzero" fill-opacity="1" /><path clip-path="url(#clip640)" d="M1769.5 1520.52 L1809.7 1520.52 L1809.7 1525.93 L1792.83 1525.93 L1792.83 1568.04 L1786.37 1568.04 L1786.37 1525.93 L1769.5 1525.93 L1769.5 1520.52 Z" fill="#000000" fill-rule="nonzero" fill-opacity="1" /><path clip-path="url(#clip640)" d="M1813.65 1532.4 L1819.51 1532.4 L1819.51 1568.04 L1813.65 1568.04 L1813.65 1532.4 M1813.65 1518.52 L1819.51 1518.52 L1819.51 1525.93 L1813.65 1525.93 L1813.65 1518.52 Z" fill="#000000" fill-rule="nonzero" fill-opacity="1" /><path clip-path="url(#clip640)" d="M1859.51 1539.24 Q1861.71 1535.29 1864.77 1533.41 Q1867.82 1531.54 1871.96 1531.54 Q1877.53 1531.54 1880.55 1535.45 Q1883.58 1539.33 1883.58 1546.53 L1883.58 1568.04 L1877.69 1568.04 L1877.69 1546.72 Q1877.69 1541.59 1875.87 1539.11 Q1874.06 1536.63 1870.34 1536.63 Q1865.78 1536.63 1863.14 1539.65 Q1860.5 1542.68 1860.5 1547.9 L1860.5 1568.04 L1854.61 1568.04 L1854.61 1546.72 Q1854.61 1541.56 1852.8 1539.11 Q1850.98 1536.63 1847.2 1536.63 Q1842.71 1536.63 1840.07 1539.68 Q1837.43 1542.71 1837.43 1547.9 L1837.43 1568.04 L1831.54 1568.04 L1831.54 1532.4 L1837.43 1532.4 L1837.43 1537.93 Q1839.43 1534.66 1842.23 1533.1 Q1845.03 1531.54 1848.88 1531.54 Q1852.77 1531.54 1855.47 1533.51 Q1858.21 1535.48 1859.51 1539.24 Z" fill="#000000" fill-rule="nonzero" fill-opacity="1" /><path clip-path="url(#clip640)" d="M1925.75 1548.76 L1925.75 1551.62 L1898.82 1551.62 Q1899.2 1557.67 1902.45 1560.85 Q1905.73 1564 1911.55 1564 Q1914.93 1564 1918.08 1563.17 Q1921.26 1562.35 1924.38 1560.69 L1924.38 1566.23 Q1921.23 1567.57 1917.92 1568.27 Q1914.61 1568.97 1911.2 1568.97 Q1902.67 1568.97 1897.68 1564 Q1892.71 1559.04 1892.71 1550.57 Q1892.71 1541.82 1897.42 1536.69 Q1902.16 1531.54 1910.19 1531.54 Q1917.38 1531.54 1921.55 1536.18 Q1925.75 1540.8 1925.75 1548.76 M1919.89 1547.04 Q1919.83 1542.23 1917.19 1539.37 Q1914.58 1536.5 1910.25 1536.5 Q1905.35 1536.5 1902.39 1539.27 Q1899.46 1542.04 1899.01 1547.07 L1919.89 1547.04 Z" fill="#000000" fill-rule="nonzero" fill-opacity="1" /><path clip-path="url(#clip640)" d="M1970.15 1518.58 Q1965.89 1525.9 1963.82 1533.06 Q1961.75 1540.23 1961.75 1547.58 Q1961.75 1554.93 1963.82 1562.16 Q1965.92 1569.35 1970.15 1576.64 L1965.06 1576.64 Q1960.28 1569.16 1957.9 1561.93 Q1955.54 1554.71 1955.54 1547.58 Q1955.54 1540.48 1957.9 1533.29 Q1960.25 1526.09 1965.06 1518.58 L1970.15 1518.58 Z" fill="#000000" fill-rule="nonzero" fill-opacity="1" /><path clip-path="url(#clip640)" d="M2004.24 1533.45 L2004.24 1538.98 Q2001.76 1537.71 1999.08 1537.07 Q1996.41 1536.44 1993.54 1536.44 Q1989.18 1536.44 1986.99 1537.77 Q1984.82 1539.11 1984.82 1541.79 Q1984.82 1543.82 1986.38 1545 Q1987.94 1546.15 1992.65 1547.2 L1994.66 1547.64 Q2000.9 1548.98 2003.51 1551.43 Q2006.15 1553.85 2006.15 1558.21 Q2006.15 1563.17 2002.2 1566.07 Q1998.29 1568.97 1991.41 1568.97 Q1988.55 1568.97 1985.43 1568.39 Q1982.34 1567.85 1978.9 1566.74 L1978.9 1560.69 Q1982.15 1562.38 1985.3 1563.24 Q1988.45 1564.07 1991.54 1564.07 Q1995.68 1564.07 1997.9 1562.66 Q2000.13 1561.23 2000.13 1558.65 Q2000.13 1556.27 1998.51 1554.99 Q1996.92 1553.72 1991.48 1552.54 L1989.44 1552.07 Q1984 1550.92 1981.58 1548.56 Q1979.16 1546.18 1979.16 1542.04 Q1979.16 1537.01 1982.72 1534.27 Q1986.29 1531.54 1992.84 1531.54 Q1996.09 1531.54 1998.96 1532.01 Q2001.82 1532.49 2004.24 1533.45 Z" fill="#000000" fill-rule="nonzero" fill-opacity="1" /><path clip-path="url(#clip640)" d="M2014.55 1518.58 L2019.64 1518.58 Q2024.42 1526.09 2026.77 1533.29 Q2029.16 1540.48 2029.16 1547.58 Q2029.16 1554.71 2026.77 1561.93 Q2024.42 1569.16 2019.64 1576.64 L2014.55 1576.64 Q2018.78 1569.35 2020.85 1562.16 Q2022.95 1554.93 2022.95 1547.58 Q2022.95 1540.23 2020.85 1533.06 Q2018.78 1525.9 2014.55 1518.58 Z" fill="#000000" fill-rule="nonzero" fill-opacity="1" /><polyline clip-path="url(#clip640)" style="stroke:#000000; stroke-linecap:round; stroke-linejoin:round; stroke-width:4; stroke-opacity:1; fill:none" points="1445.91,1423.18 1445.91,1071.73 "/>
<polyline clip-path="url(#clip640)" style="stroke:#000000; stroke-linecap:round; stroke-linejoin:round; stroke-width:4; stroke-opacity:1; fill:none" points="1445.91,1409.11 1464.81,1409.11 "/>
<polyline clip-path="url(#clip640)" style="stroke:#000000; stroke-linecap:round; stroke-linejoin:round; stroke-width:4; stroke-opacity:1; fill:none" points="1445.91,1323.75 1464.81,1323.75 "/>
<polyline clip-path="url(#clip640)" style="stroke:#000000; stroke-linecap:round; stroke-linejoin:round; stroke-width:4; stroke-opacity:1; fill:none" points="1445.91,1238.4 1464.81,1238.4 "/>
<polyline clip-path="url(#clip640)" style="stroke:#000000; stroke-linecap:round; stroke-linejoin:round; stroke-width:4; stroke-opacity:1; fill:none" points="1445.91,1153.04 1464.81,1153.04 "/>
<path clip-path="url(#clip640)" d="M1272.64 1409.56 L1302.32 1409.56 L1302.32 1413.5 L1272.64 1413.5 L1272.64 1409.56 Z" fill="#000000" fill-rule="nonzero" fill-opacity="1" /><path clip-path="url(#clip640)" d="M1322.41 1394.91 Q1318.8 1394.91 1316.97 1398.47 Q1315.16 1402.01 1315.16 1409.14 Q1315.16 1416.25 1316.97 1419.82 Q1318.8 1423.36 1322.41 1423.36 Q1326.04 1423.36 1327.85 1419.82 Q1329.68 1416.25 1329.68 1409.14 Q1329.68 1402.01 1327.85 1398.47 Q1326.04 1394.91 1322.41 1394.91 M1322.41 1391.2 Q1328.22 1391.2 1331.27 1395.81 Q1334.35 1400.39 1334.35 1409.14 Q1334.35 1417.87 1331.27 1422.48 Q1328.22 1427.06 1322.41 1427.06 Q1316.6 1427.06 1313.52 1422.48 Q1310.46 1417.87 1310.46 1409.14 Q1310.46 1400.39 1313.52 1395.81 Q1316.6 1391.2 1322.41 1391.2 Z" fill="#000000" fill-rule="nonzero" fill-opacity="1" /><path clip-path="url(#clip640)" d="M1342.57 1420.51 L1347.45 1420.51 L1347.45 1426.39 L1342.57 1426.39 L1342.57 1420.51 Z" fill="#000000" fill-rule="nonzero" fill-opacity="1" /><path clip-path="url(#clip640)" d="M1367.64 1394.91 Q1364.03 1394.91 1362.2 1398.47 Q1360.39 1402.01 1360.39 1409.14 Q1360.39 1416.25 1362.2 1419.82 Q1364.03 1423.36 1367.64 1423.36 Q1371.27 1423.36 1373.08 1419.82 Q1374.91 1416.25 1374.91 1409.14 Q1374.91 1402.01 1373.08 1398.47 Q1371.27 1394.91 1367.64 1394.91 M1367.64 1391.2 Q1373.45 1391.2 1376.51 1395.81 Q1379.58 1400.39 1379.58 1409.14 Q1379.58 1417.87 1376.51 1422.48 Q1373.45 1427.06 1367.64 1427.06 Q1361.83 1427.06 1358.75 1422.48 Q1355.7 1417.87 1355.7 1409.14 Q1355.7 1400.39 1358.75 1395.81 Q1361.83 1391.2 1367.64 1391.2 Z" fill="#000000" fill-rule="nonzero" fill-opacity="1" /><path clip-path="url(#clip640)" d="M1398.38 1407.25 Q1395.23 1407.25 1393.38 1409.4 Q1391.55 1411.55 1391.55 1415.3 Q1391.55 1419.03 1393.38 1421.2 Q1395.23 1423.36 1398.38 1423.36 Q1401.53 1423.36 1403.36 1421.2 Q1405.21 1419.03 1405.21 1415.3 Q1405.21 1411.55 1403.36 1409.4 Q1401.53 1407.25 1398.38 1407.25 M1407.66 1392.59 L1407.66 1396.85 Q1405.9 1396.02 1404.1 1395.58 Q1402.32 1395.14 1400.56 1395.14 Q1395.93 1395.14 1393.47 1398.26 Q1391.04 1401.39 1390.69 1407.71 Q1392.06 1405.7 1394.12 1404.63 Q1396.18 1403.54 1398.66 1403.54 Q1403.87 1403.54 1406.88 1406.71 Q1409.91 1409.86 1409.91 1415.3 Q1409.91 1420.63 1406.76 1423.84 Q1403.61 1427.06 1398.38 1427.06 Q1392.38 1427.06 1389.21 1422.48 Q1386.04 1417.87 1386.04 1409.14 Q1386.04 1400.95 1389.93 1396.09 Q1393.82 1391.2 1400.37 1391.2 Q1402.13 1391.2 1403.91 1391.55 Q1405.72 1391.9 1407.66 1392.59 Z" fill="#000000" fill-rule="nonzero" fill-opacity="1" /><path clip-path="url(#clip640)" d="M1272.32 1324.21 L1301.99 1324.21 L1301.99 1328.14 L1272.32 1328.14 L1272.32 1324.21 Z" fill="#000000" fill-rule="nonzero" fill-opacity="1" /><path clip-path="url(#clip640)" d="M1322.08 1309.55 Q1318.47 1309.55 1316.64 1313.12 Q1314.84 1316.66 1314.84 1323.79 Q1314.84 1330.9 1316.64 1334.46 Q1318.47 1338 1322.08 1338 Q1325.72 1338 1327.52 1334.46 Q1329.35 1330.9 1329.35 1323.79 Q1329.35 1316.66 1327.52 1313.12 Q1325.72 1309.55 1322.08 1309.55 M1322.08 1305.85 Q1327.89 1305.85 1330.95 1310.46 Q1334.03 1315.04 1334.03 1323.79 Q1334.03 1332.52 1330.95 1337.12 Q1327.89 1341.71 1322.08 1341.71 Q1316.27 1341.71 1313.2 1337.12 Q1310.14 1332.52 1310.14 1323.79 Q1310.14 1315.04 1313.2 1310.46 Q1316.27 1305.85 1322.08 1305.85 Z" fill="#000000" fill-rule="nonzero" fill-opacity="1" /><path clip-path="url(#clip640)" d="M1342.25 1335.15 L1347.13 1335.15 L1347.13 1341.03 L1342.25 1341.03 L1342.25 1335.15 Z" fill="#000000" fill-rule="nonzero" fill-opacity="1" /><path clip-path="url(#clip640)" d="M1367.32 1309.55 Q1363.7 1309.55 1361.88 1313.12 Q1360.07 1316.66 1360.07 1323.79 Q1360.07 1330.9 1361.88 1334.46 Q1363.7 1338 1367.32 1338 Q1370.95 1338 1372.76 1334.46 Q1374.58 1330.9 1374.58 1323.79 Q1374.58 1316.66 1372.76 1313.12 Q1370.95 1309.55 1367.32 1309.55 M1367.32 1305.85 Q1373.13 1305.85 1376.18 1310.46 Q1379.26 1315.04 1379.26 1323.79 Q1379.26 1332.52 1376.18 1337.12 Q1373.13 1341.71 1367.32 1341.71 Q1361.51 1341.71 1358.43 1337.12 Q1355.37 1332.52 1355.37 1323.79 Q1355.37 1315.04 1358.43 1310.46 Q1361.51 1305.85 1367.32 1305.85 Z" fill="#000000" fill-rule="nonzero" fill-opacity="1" /><path clip-path="url(#clip640)" d="M1400.32 1310.55 L1388.52 1329 L1400.32 1329 L1400.32 1310.55 M1399.1 1306.47 L1404.98 1306.47 L1404.98 1329 L1409.91 1329 L1409.91 1332.89 L1404.98 1332.89 L1404.98 1341.03 L1400.32 1341.03 L1400.32 1332.89 L1384.72 1332.89 L1384.72 1328.37 L1399.1 1306.47 Z" fill="#000000" fill-rule="nonzero" fill-opacity="1" /><path clip-path="url(#clip640)" d="M1274.4 1238.85 L1304.08 1238.85 L1304.08 1242.79 L1274.4 1242.79 L1274.4 1238.85 Z" fill="#000000" fill-rule="nonzero" fill-opacity="1" /><path clip-path="url(#clip640)" d="M1324.17 1224.2 Q1320.56 1224.2 1318.73 1227.76 Q1316.92 1231.3 1316.92 1238.43 Q1316.92 1245.54 1318.73 1249.11 Q1320.56 1252.65 1324.17 1252.65 Q1327.8 1252.65 1329.61 1249.11 Q1331.44 1245.54 1331.44 1238.43 Q1331.44 1231.3 1329.61 1227.76 Q1327.8 1224.2 1324.17 1224.2 M1324.17 1220.49 Q1329.98 1220.49 1333.03 1225.1 Q1336.11 1229.68 1336.11 1238.43 Q1336.11 1247.16 1333.03 1251.77 Q1329.98 1256.35 1324.17 1256.35 Q1318.36 1256.35 1315.28 1251.77 Q1312.22 1247.16 1312.22 1238.43 Q1312.22 1229.68 1315.28 1225.1 Q1318.36 1220.49 1324.17 1220.49 Z" fill="#000000" fill-rule="nonzero" fill-opacity="1" /><path clip-path="url(#clip640)" d="M1344.33 1249.8 L1349.21 1249.8 L1349.21 1255.68 L1344.33 1255.68 L1344.33 1249.8 Z" fill="#000000" fill-rule="nonzero" fill-opacity="1" /><path clip-path="url(#clip640)" d="M1369.4 1224.2 Q1365.79 1224.2 1363.96 1227.76 Q1362.15 1231.3 1362.15 1238.43 Q1362.15 1245.54 1363.96 1249.11 Q1365.79 1252.65 1369.4 1252.65 Q1373.03 1252.65 1374.84 1249.11 Q1376.67 1245.54 1376.67 1238.43 Q1376.67 1231.3 1374.84 1227.76 Q1373.03 1224.2 1369.4 1224.2 M1369.4 1220.49 Q1375.21 1220.49 1378.26 1225.1 Q1381.34 1229.68 1381.34 1238.43 Q1381.34 1247.16 1378.26 1251.77 Q1375.21 1256.35 1369.4 1256.35 Q1363.59 1256.35 1360.51 1251.77 Q1357.45 1247.16 1357.45 1238.43 Q1357.45 1229.68 1360.51 1225.1 Q1363.59 1220.49 1369.4 1220.49 Z" fill="#000000" fill-rule="nonzero" fill-opacity="1" /><path clip-path="url(#clip640)" d="M1393.59 1251.74 L1409.91 1251.74 L1409.91 1255.68 L1387.96 1255.68 L1387.96 1251.74 Q1390.63 1248.99 1395.21 1244.36 Q1399.82 1239.71 1401 1238.36 Q1403.24 1235.84 1404.12 1234.11 Q1405.02 1232.35 1405.02 1230.66 Q1405.02 1227.9 1403.08 1226.17 Q1401.16 1224.43 1398.06 1224.43 Q1395.86 1224.43 1393.4 1225.19 Q1390.97 1225.96 1388.19 1227.51 L1388.19 1222.79 Q1391.02 1221.65 1393.47 1221.07 Q1395.93 1220.49 1397.96 1220.49 Q1403.33 1220.49 1406.53 1223.18 Q1409.72 1225.86 1409.72 1230.36 Q1409.72 1232.48 1408.91 1234.41 Q1408.13 1236.3 1406.02 1238.9 Q1405.44 1239.57 1402.34 1242.79 Q1399.24 1245.98 1393.59 1251.74 Z" fill="#000000" fill-rule="nonzero" fill-opacity="1" /><path clip-path="url(#clip640)" d="M1322.57 1138.84 Q1318.96 1138.84 1317.13 1142.41 Q1315.32 1145.95 1315.32 1153.08 Q1315.32 1160.19 1317.13 1163.75 Q1318.96 1167.29 1322.57 1167.29 Q1326.2 1167.29 1328.01 1163.75 Q1329.84 1160.19 1329.84 1153.08 Q1329.84 1145.95 1328.01 1142.41 Q1326.2 1138.84 1322.57 1138.84 M1322.57 1135.14 Q1328.38 1135.14 1331.44 1139.75 Q1334.51 1144.33 1334.51 1153.08 Q1334.51 1161.81 1331.44 1166.41 Q1328.38 1171 1322.57 1171 Q1316.76 1171 1313.68 1166.41 Q1310.63 1161.81 1310.63 1153.08 Q1310.63 1144.33 1313.68 1139.75 Q1316.76 1135.14 1322.57 1135.14 Z" fill="#000000" fill-rule="nonzero" fill-opacity="1" /><path clip-path="url(#clip640)" d="M1342.73 1164.44 L1347.62 1164.44 L1347.62 1170.32 L1342.73 1170.32 L1342.73 1164.44 Z" fill="#000000" fill-rule="nonzero" fill-opacity="1" /><path clip-path="url(#clip640)" d="M1367.8 1138.84 Q1364.19 1138.84 1362.36 1142.41 Q1360.56 1145.95 1360.56 1153.08 Q1360.56 1160.19 1362.36 1163.75 Q1364.19 1167.29 1367.8 1167.29 Q1371.44 1167.29 1373.24 1163.75 Q1375.07 1160.19 1375.07 1153.08 Q1375.07 1145.95 1373.24 1142.41 Q1371.44 1138.84 1367.8 1138.84 M1367.8 1135.14 Q1373.61 1135.14 1376.67 1139.75 Q1379.75 1144.33 1379.75 1153.08 Q1379.75 1161.81 1376.67 1166.41 Q1373.61 1171 1367.8 1171 Q1361.99 1171 1358.91 1166.41 Q1355.86 1161.81 1355.86 1153.08 Q1355.86 1144.33 1358.91 1139.75 Q1361.99 1135.14 1367.8 1135.14 Z" fill="#000000" fill-rule="nonzero" fill-opacity="1" /><path clip-path="url(#clip640)" d="M1397.96 1138.84 Q1394.35 1138.84 1392.52 1142.41 Q1390.72 1145.95 1390.72 1153.08 Q1390.72 1160.19 1392.52 1163.75 Q1394.35 1167.29 1397.96 1167.29 Q1401.6 1167.29 1403.4 1163.75 Q1405.23 1160.19 1405.23 1153.08 Q1405.23 1145.95 1403.4 1142.41 Q1401.6 1138.84 1397.96 1138.84 M1397.96 1135.14 Q1403.77 1135.14 1406.83 1139.75 Q1409.91 1144.33 1409.91 1153.08 Q1409.91 1161.81 1406.83 1166.41 Q1403.77 1171 1397.96 1171 Q1392.15 1171 1389.07 1166.41 Q1386.02 1161.81 1386.02 1153.08 Q1386.02 1144.33 1389.07 1139.75 Q1392.15 1135.14 1397.96 1135.14 Z" fill="#000000" fill-rule="nonzero" fill-opacity="1" /><path clip-path="url(#clip640)" d="M1182.01 1252.88 L1182.94 1253.44 Q1181.43 1256.93 1179.02 1261.28 Q1181.43 1265.63 1182.94 1269.13 L1182.01 1269.67 Q1178.7 1265.86 1176.15 1261.28 Q1178.72 1256.66 1182.01 1252.88 Z" fill="#000000" fill-rule="nonzero" fill-opacity="1" /><path clip-path="url(#clip640)" d="M1194.31 1249.71 Q1196.12 1249.71 1197.15 1250.84 Q1198.14 1251.97 1198.14 1253.26 Q1198.14 1254.48 1197.44 1255.12 Q1196.73 1255.77 1195.83 1255.77 Q1194.6 1255.77 1193.54 1254.87 Q1192.48 1253.96 1192.25 1252.61 Q1191.41 1253.93 1191.41 1255.9 Q1191.41 1257.18 1192.09 1258.31 Q1192.77 1259.41 1193.64 1260.08 Q1194.51 1260.73 1195.76 1261.31 Q1196.99 1261.85 1197.73 1262.08 Q1198.43 1262.27 1199.21 1262.43 L1208.23 1264.69 Q1212.51 1265.78 1214.02 1265.78 Q1215.89 1265.78 1217.15 1264.88 Q1218.37 1263.98 1218.37 1262.18 Q1218.37 1261.47 1218.18 1260.66 Q1217.95 1259.86 1217.37 1258.83 Q1216.76 1257.76 1215.86 1256.83 Q1214.92 1255.86 1213.35 1254.93 Q1211.77 1254 1209.74 1253.38 Q1209.03 1253.19 1209.03 1252.55 Q1209.03 1251.74 1209.67 1251.74 Q1210.22 1251.74 1211.38 1252.19 Q1212.51 1252.61 1213.99 1253.55 Q1215.44 1254.45 1216.76 1255.64 Q1218.05 1256.83 1218.95 1258.6 Q1219.85 1260.37 1219.85 1262.31 Q1219.85 1265.08 1218.37 1266.91 Q1216.89 1268.75 1214.83 1269.42 Q1215.12 1269.58 1215.5 1269.81 Q1215.89 1270.03 1216.76 1270.71 Q1217.6 1271.36 1218.24 1272.1 Q1218.85 1272.84 1219.34 1274 Q1219.85 1275.12 1219.85 1276.35 Q1219.85 1277.89 1219.4 1279.28 Q1218.95 1280.63 1217.92 1281.6 Q1216.89 1282.56 1215.47 1282.56 Q1213.89 1282.56 1212.8 1281.5 Q1211.67 1280.41 1211.67 1278.92 Q1211.67 1277.99 1212.22 1277.25 Q1212.77 1276.48 1213.96 1276.48 Q1215.28 1276.48 1216.28 1277.38 Q1217.27 1278.28 1217.53 1279.57 Q1218.37 1278.25 1218.37 1276.28 Q1218.37 1274.16 1216.5 1272.48 Q1214.63 1270.81 1211.51 1270 Q1204.01 1268.01 1200.66 1267.23 Q1197.28 1266.46 1195.83 1266.46 Q1194.47 1266.46 1193.54 1266.81 Q1192.61 1267.17 1192.19 1267.78 Q1191.74 1268.36 1191.57 1268.91 Q1191.41 1269.42 1191.41 1270 Q1191.41 1270.97 1191.8 1272.06 Q1192.19 1273.13 1193.09 1274.41 Q1193.96 1275.67 1195.76 1276.86 Q1197.56 1278.05 1200.04 1278.86 Q1200.79 1279.02 1200.79 1279.73 Q1200.75 1280.5 1200.11 1280.5 Q1199.56 1280.5 1198.43 1280.08 Q1197.28 1279.63 1195.83 1278.73 Q1194.38 1277.8 1193.09 1276.6 Q1191.77 1275.38 1190.87 1273.61 Q1189.96 1271.81 1189.96 1269.87 Q1189.96 1269 1190.16 1268.17 Q1190.32 1267.3 1190.8 1266.27 Q1191.28 1265.2 1192.35 1264.27 Q1193.41 1263.34 1194.96 1262.76 Q1194.22 1262.37 1193.51 1261.85 Q1192.8 1261.31 1191.93 1260.47 Q1191.03 1259.6 1190.51 1258.41 Q1189.96 1257.18 1189.96 1255.83 Q1189.96 1254.51 1190.32 1253.22 Q1190.64 1251.94 1191.7 1250.84 Q1192.73 1249.71 1194.31 1249.71 Z" fill="#000000" fill-rule="nonzero" fill-opacity="1" /><path clip-path="url(#clip640)" d="M1231.9 1242.25 Q1230.52 1242.25 1229.87 1241.46 Q1229.22 1240.68 1229.22 1239.66 Q1229.22 1238.6 1229.92 1237.86 Q1230.59 1237.09 1231.79 1237.09 Q1233.07 1237.09 1233.79 1237.99 Q1234.51 1238.87 1234.33 1240.13 Q1236.18 1239.03 1237.02 1237 Q1237.85 1234.95 1237.85 1233.06 Q1237.85 1231.07 1236.14 1229.47 Q1234.42 1227.85 1230.23 1227.85 Q1226.67 1227.85 1224.62 1229.25 Q1222.57 1230.62 1222.57 1233.35 L1222.57 1235.38 Q1222.57 1236.08 1222.5 1236.28 Q1222.43 1236.48 1222.05 1236.48 Q1221.6 1236.48 1221.51 1235.78 Q1221.51 1235.08 1221.37 1233.98 Q1221.28 1231.3 1218.96 1229.88 Q1216.79 1228.59 1213.71 1228.59 Q1210.89 1228.59 1209.72 1229.94 Q1208.52 1231.27 1208.52 1233.01 Q1208.52 1234.63 1209.2 1236.41 Q1209.87 1238.2 1211.38 1239.17 Q1211.38 1236.3 1213.71 1236.3 Q1214.72 1236.3 1215.4 1236.96 Q1216.05 1237.59 1216.05 1238.65 Q1216.05 1239.66 1215.42 1240.34 Q1214.77 1241.01 1213.66 1241.01 Q1211.02 1241.01 1209.2 1238.67 Q1207.37 1236.3 1207.37 1232.83 Q1207.37 1229.4 1209.17 1226.88 Q1210.98 1224.33 1213.75 1224.33 Q1216.48 1224.33 1218.71 1226.13 Q1220.94 1227.94 1221.87 1230.8 Q1222.57 1227.28 1224.96 1225.19 Q1227.32 1223.09 1230.23 1223.09 Q1233.84 1223.09 1236.5 1225.93 Q1239.14 1228.77 1239.14 1232.92 Q1239.14 1236.75 1237.06 1239.5 Q1234.99 1242.25 1231.9 1242.25 Z" fill="#000000" fill-rule="nonzero" fill-opacity="1" /><polyline clip-path="url(#clip645)" style="stroke:#e26f46; stroke-linecap:round; stroke-linejoin:round; stroke-width:3; stroke-opacity:1; fill:none" stroke-dasharray="12, 6, 2, 6" points="1471.57,1153.04 1496.74,1081.68 1521.9,1413.23 1547.06,1396.74 1572.22,1294.66 1597.38,1347.59 1622.55,1309.54 1647.71,1321.61 1672.87,1285.47 1698.03,1263.37 1723.2,1275.05 1748.36,1270.18 1773.52,1202.81 1798.68,1193.34 1823.85,1182.14 1849.01,1184.92 1874.17,1191.72 1899.33,1211.51 1924.49,1192.75 1949.66,1195.41 1974.82,1191.95 1999.98,1185.52 2025.14,1187.63 2050.31,1185.31 2075.47,1208.61 2100.63,1152.06 2125.79,1228.97 2150.95,1174.25 2176.12,1180.44 2201.28,1199.64 2226.44,1167.81 2251.6,1196.9 2276.77,1161.4 2301.93,1182.66 2327.09,1177.07 "/>
</svg>
