<?xml version="1.0" encoding="utf-8"?>
<svg xmlns="http://www.w3.org/2000/svg" xmlns:xlink="http://www.w3.org/1999/xlink" width="600" height="400" viewBox="0 0 2400 1600">
<defs>
  <clipPath id="clip540">
    <rect x="0" y="0" width="2400" height="1600"/>
  </clipPath>
</defs>
<path clip-path="url(#clip540)" d="M0 1600 L2400 1600 L2400 0 L0 0  Z" fill="#ffffff" fill-rule="evenodd" fill-opacity="1"/>
<defs>
  <clipPath id="clip541">
    <rect x="480" y="0" width="1681" height="1600"/>
  </clipPath>
</defs>
<path clip-path="url(#clip540)" d="M203.964 1423.18 L1111.05 1423.18 L1111.05 47.2441 L203.964 47.2441  Z" fill="#ffffff" fill-rule="evenodd" fill-opacity="1"/>
<defs>
  <clipPath id="clip542">
    <rect x="203" y="47" width="908" height="1377"/>
  </clipPath>
</defs>
<polyline clip-path="url(#clip542)" style="stroke:#000000; stroke-linecap:round; stroke-linejoin:round; stroke-width:2; stroke-opacity:0.1; fill:none" points="229.636,1423.18 229.636,47.2441 "/>
<polyline clip-path="url(#clip542)" style="stroke:#000000; stroke-linecap:round; stroke-linejoin:round; stroke-width:2; stroke-opacity:0.1; fill:none" points="481.326,1423.18 481.326,47.2441 "/>
<polyline clip-path="url(#clip542)" style="stroke:#000000; stroke-linecap:round; stroke-linejoin:round; stroke-width:2; stroke-opacity:0.1; fill:none" points="733.016,1423.18 733.016,47.2441 "/>
<polyline clip-path="url(#clip542)" style="stroke:#000000; stroke-linecap:round; stroke-linejoin:round; stroke-width:2; stroke-opacity:0.1; fill:none" points="984.706,1423.18 984.706,47.2441 "/>
<polyline clip-path="url(#clip540)" style="stroke:#000000; stroke-linecap:round; stroke-linejoin:round; stroke-width:4; stroke-opacity:1; fill:none" points="203.964,1423.18 1111.05,1423.18 "/>
<polyline clip-path="url(#clip540)" style="stroke:#000000; stroke-linecap:round; stroke-linejoin:round; stroke-width:4; stroke-opacity:1; fill:none" points="229.636,1423.18 229.636,1404.28 "/>
<polyline clip-path="url(#clip540)" style="stroke:#000000; stroke-linecap:round; stroke-linejoin:round; stroke-width:4; stroke-opacity:1; fill:none" points="481.326,1423.18 481.326,1404.28 "/>
<polyline clip-path="url(#clip540)" style="stroke:#000000; stroke-linecap:round; stroke-linejoin:round; stroke-width:4; stroke-opacity:1; fill:none" points="733.016,1423.18 733.016,1404.28 "/>
<polyline clip-path="url(#clip540)" style="stroke:#000000; stroke-linecap:round; stroke-linejoin:round; stroke-width:4; stroke-opacity:1; fill:none" points="984.706,1423.18 984.706,1404.28 "/>
<path clip-path="url(#clip540)" d="M229.636 1454.1 Q226.025 1454.1 224.196 1457.66 Q222.391 1461.2 222.391 1468.33 Q222.391 1475.44 224.196 1479.01 Q226.025 1482.55 229.636 1482.55 Q233.27 1482.55 235.076 1479.01 Q236.904 1475.44 236.904 1468.33 Q236.904 1461.2 235.076 1457.66 Q233.27 1454.1 229.636 1454.1 M229.636 1450.39 Q235.446 1450.39 238.502 1455 Q241.58 1459.58 241.58 1468.33 Q241.58 1477.06 238.502 1481.67 Q235.446 1486.25 229.636 1486.25 Q223.826 1486.25 220.747 1481.67 Q217.692 1477.06 217.692 1468.33 Q217.692 1459.58 220.747 1455 Q223.826 1450.39 229.636 1450.39 Z" fill="#000000" fill-rule="nonzero" fill-opacity="1" /><path clip-path="url(#clip540)" d="M471.708 1481.64 L479.347 1481.64 L479.347 1455.28 L471.037 1456.95 L471.037 1452.69 L479.301 1451.02 L483.977 1451.02 L483.977 1481.64 L491.615 1481.64 L491.615 1485.58 L471.708 1485.58 L471.708 1481.64 Z" fill="#000000" fill-rule="nonzero" fill-opacity="1" /><path clip-path="url(#clip540)" d="M727.669 1481.64 L743.988 1481.64 L743.988 1485.58 L722.044 1485.58 L722.044 1481.64 Q724.706 1478.89 729.289 1474.26 Q733.896 1469.61 735.076 1468.27 Q737.322 1465.74 738.201 1464.01 Q739.104 1462.25 739.104 1460.56 Q739.104 1457.8 737.16 1456.07 Q735.238 1454.33 732.137 1454.33 Q729.938 1454.33 727.484 1455.09 Q725.053 1455.86 722.276 1457.41 L722.276 1452.69 Q725.1 1451.55 727.553 1450.97 Q730.007 1450.39 732.044 1450.39 Q737.414 1450.39 740.609 1453.08 Q743.803 1455.77 743.803 1460.26 Q743.803 1462.39 742.993 1464.31 Q742.206 1466.2 740.099 1468.8 Q739.521 1469.47 736.419 1472.69 Q733.317 1475.88 727.669 1481.64 Z" fill="#000000" fill-rule="nonzero" fill-opacity="1" /><path clip-path="url(#clip540)" d="M988.954 1466.95 Q992.31 1467.66 994.185 1469.93 Q996.084 1472.2 996.084 1475.53 Q996.084 1480.65 992.565 1483.45 Q989.047 1486.25 982.565 1486.25 Q980.389 1486.25 978.074 1485.81 Q975.783 1485.39 973.329 1484.54 L973.329 1480.02 Q975.273 1481.16 977.588 1481.74 Q979.903 1482.32 982.426 1482.32 Q986.824 1482.32 989.116 1480.58 Q991.431 1478.84 991.431 1475.53 Q991.431 1472.48 989.278 1470.77 Q987.148 1469.03 983.329 1469.03 L979.301 1469.03 L979.301 1465.19 L983.514 1465.19 Q986.963 1465.19 988.792 1463.82 Q990.621 1462.43 990.621 1459.84 Q990.621 1457.18 988.722 1455.77 Q986.847 1454.33 983.329 1454.33 Q981.408 1454.33 979.209 1454.75 Q977.01 1455.16 974.371 1456.04 L974.371 1451.88 Q977.033 1451.14 979.348 1450.77 Q981.685 1450.39 983.746 1450.39 Q989.07 1450.39 992.172 1452.83 Q995.273 1455.23 995.273 1459.35 Q995.273 1462.22 993.63 1464.21 Q991.986 1466.18 988.954 1466.95 Z" fill="#000000" fill-rule="nonzero" fill-opacity="1" /><path clip-path="url(#clip540)" d="M527.681 1520.52 L567.88 1520.52 L567.88 1525.93 L551.011 1525.93 L551.011 1568.04 L544.55 1568.04 L544.55 1525.93 L527.681 1525.93 L527.681 1520.52 Z" fill="#000000" fill-rule="nonzero" fill-opacity="1" /><path clip-path="url(#clip540)" d="M571.827 1532.4 L577.683 1532.4 L577.683 1568.04 L571.827 1568.04 L571.827 1532.4 M571.827 1518.52 L577.683 1518.52 L577.683 1525.93 L571.827 1525.93 L571.827 1518.52 Z" fill="#000000" fill-rule="nonzero" fill-opacity="1" /><path clip-path="url(#clip540)" d="M617.692 1539.24 Q619.888 1535.29 622.943 1533.41 Q625.999 1531.54 630.137 1531.54 Q635.707 1531.54 638.73 1535.45 Q641.754 1539.33 641.754 1546.53 L641.754 1568.04 L635.866 1568.04 L635.866 1546.72 Q635.866 1541.59 634.052 1539.11 Q632.237 1536.63 628.513 1536.63 Q623.962 1536.63 621.32 1539.65 Q618.678 1542.68 618.678 1547.9 L618.678 1568.04 L612.79 1568.04 L612.79 1546.72 Q612.79 1541.56 610.976 1539.11 Q609.162 1536.63 605.374 1536.63 Q600.886 1536.63 598.244 1539.68 Q595.603 1542.71 595.603 1547.9 L595.603 1568.04 L589.714 1568.04 L589.714 1532.4 L595.603 1532.4 L595.603 1537.93 Q597.608 1534.66 600.409 1533.1 Q603.21 1531.54 607.061 1531.54 Q610.944 1531.54 613.649 1533.51 Q616.387 1535.48 617.692 1539.24 Z" fill="#000000" fill-rule="nonzero" fill-opacity="1" /><path clip-path="url(#clip540)" d="M683.927 1548.76 L683.927 1551.62 L657 1551.62 Q657.382 1557.67 660.628 1560.85 Q663.907 1564 669.731 1564 Q673.105 1564 676.256 1563.17 Q679.439 1562.35 682.558 1560.69 L682.558 1566.23 Q679.407 1567.57 676.097 1568.27 Q672.787 1568.97 669.381 1568.97 Q660.851 1568.97 655.854 1564 Q650.889 1559.04 650.889 1550.57 Q650.889 1541.82 655.599 1536.69 Q660.342 1531.54 668.363 1531.54 Q675.556 1531.54 679.725 1536.18 Q683.927 1540.8 683.927 1548.76 M678.07 1547.04 Q678.007 1542.23 675.365 1539.37 Q672.755 1536.5 668.426 1536.5 Q663.525 1536.5 660.565 1539.27 Q657.636 1542.04 657.191 1547.07 L678.07 1547.04 Z" fill="#000000" fill-rule="nonzero" fill-opacity="1" /><path clip-path="url(#clip540)" d="M728.328 1518.58 Q724.063 1525.9 721.994 1533.06 Q719.925 1540.23 719.925 1547.58 Q719.925 1554.93 721.994 1562.16 Q724.094 1569.35 728.328 1576.64 L723.235 1576.64 Q718.461 1569.16 716.074 1561.93 Q713.718 1554.71 713.718 1547.58 Q713.718 1540.48 716.074 1533.29 Q718.429 1526.09 723.235 1518.58 L728.328 1518.58 Z" fill="#000000" fill-rule="nonzero" fill-opacity="1" /><path clip-path="url(#clip540)" d="M762.416 1533.45 L762.416 1538.98 Q759.933 1537.71 757.26 1537.07 Q754.586 1536.44 751.722 1536.44 Q747.361 1536.44 745.165 1537.77 Q743.001 1539.11 743.001 1541.79 Q743.001 1543.82 744.56 1545 Q746.12 1546.15 750.83 1547.2 L752.836 1547.64 Q759.074 1548.98 761.684 1551.43 Q764.326 1553.85 764.326 1558.21 Q764.326 1563.17 760.379 1566.07 Q756.464 1568.97 749.589 1568.97 Q746.725 1568.97 743.605 1568.39 Q740.518 1567.85 737.08 1566.74 L737.08 1560.69 Q740.327 1562.38 743.478 1563.24 Q746.629 1564.07 749.716 1564.07 Q753.854 1564.07 756.082 1562.66 Q758.31 1561.23 758.31 1558.65 Q758.31 1556.27 756.687 1554.99 Q755.095 1553.72 749.653 1552.54 L747.616 1552.07 Q742.173 1550.92 739.754 1548.56 Q737.335 1546.18 737.335 1542.04 Q737.335 1537.01 740.9 1534.27 Q744.465 1531.54 751.021 1531.54 Q754.268 1531.54 757.132 1532.01 Q759.997 1532.49 762.416 1533.45 Z" fill="#000000" fill-rule="nonzero" fill-opacity="1" /><path clip-path="url(#clip540)" d="M772.728 1518.58 L777.821 1518.58 Q782.595 1526.09 784.951 1533.29 Q787.338 1540.48 787.338 1547.58 Q787.338 1554.71 784.951 1561.93 Q782.595 1569.16 777.821 1576.64 L772.728 1576.64 Q776.962 1569.35 779.03 1562.16 Q781.131 1554.93 781.131 1547.58 Q781.131 1540.23 779.03 1533.06 Q776.962 1525.9 772.728 1518.58 Z" fill="#000000" fill-rule="nonzero" fill-opacity="1" /><polyline clip-path="url(#clip542)" style="stroke:#000000; stroke-linecap:round; stroke-linejoin:round; stroke-width:2; stroke-opacity:0.1; fill:none" points="203.964,1384.24 1111.05,1384.24 "/>
<polyline clip-path="url(#clip542)" style="stroke:#000000; stroke-linecap:round; stroke-linejoin:round; stroke-width:2; stroke-opacity:0.1; fill:none" points="203.964,950.35 1111.05,950.35 "/>
<polyline clip-path="url(#clip542)" style="stroke:#000000; stroke-linecap:round; stroke-linejoin:round; stroke-width:2; stroke-opacity:0.1; fill:none" points="203.964,516.461 1111.05,516.461 "/>
<polyline clip-path="url(#clip542)" style="stroke:#000000; stroke-linecap:round; stroke-linejoin:round; stroke-width:2; stroke-opacity:0.1; fill:none" points="203.964,82.5731 1111.05,82.5731 "/>
<polyline clip-path="url(#clip540)" style="stroke:#000000; stroke-linecap:round; stroke-linejoin:round; stroke-width:4; stroke-opacity:1; fill:none" points="203.964,1423.18 203.964,47.2441 "/>
<polyline clip-path="url(#clip540)" style="stroke:#000000; stroke-linecap:round; stroke-linejoin:round; stroke-width:4; stroke-opacity:1; fill:none" points="203.964,1384.24 222.861,1384.24 "/>
<polyline clip-path="url(#clip540)" style="stroke:#000000; stroke-linecap:round; stroke-linejoin:round; stroke-width:4; stroke-opacity:1; fill:none" points="203.964,950.35 222.861,950.35 "/>
<polyline clip-path="url(#clip540)" style="stroke:#000000; stroke-linecap:round; stroke-linejoin:round; stroke-width:4; stroke-opacity:1; fill:none" points="203.964,516.461 222.861,516.461 "/>
<polyline clip-path="url(#clip540)" style="stroke:#000000; stroke-linecap:round; stroke-linejoin:round; stroke-width:4; stroke-opacity:1; fill:none" points="203.964,82.5731 222.861,82.5731 "/>
<path clip-path="url(#clip540)" d="M156.019 1370.04 Q152.408 1370.04 150.579 1373.6 Q148.774 1377.14 148.774 1384.27 Q148.774 1391.38 150.579 1394.94 Q152.408 1398.49 156.019 1398.49 Q159.653 1398.49 161.459 1394.94 Q163.288 1391.38 163.288 1384.27 Q163.288 1377.14 161.459 1373.6 Q159.653 1370.04 156.019 1370.04 M156.019 1366.33 Q161.829 1366.33 164.885 1370.94 Q167.964 1375.52 167.964 1384.27 Q167.964 1393 164.885 1397.61 Q161.829 1402.19 156.019 1402.19 Q150.209 1402.19 147.13 1397.61 Q144.075 1393 144.075 1384.27 Q144.075 1375.52 147.13 1370.94 Q150.209 1366.33 156.019 1366.33 Z" fill="#000000" fill-rule="nonzero" fill-opacity="1" /><path clip-path="url(#clip540)" d="M116.668 963.695 L124.306 963.695 L124.306 937.329 L115.996 938.996 L115.996 934.737 L124.26 933.07 L128.936 933.07 L128.936 963.695 L136.575 963.695 L136.575 967.63 L116.668 967.63 L116.668 963.695 Z" fill="#000000" fill-rule="nonzero" fill-opacity="1" /><path clip-path="url(#clip540)" d="M156.019 936.149 Q152.408 936.149 150.579 939.713 Q148.774 943.255 148.774 950.385 Q148.774 957.491 150.579 961.056 Q152.408 964.597 156.019 964.597 Q159.653 964.597 161.459 961.056 Q163.288 957.491 163.288 950.385 Q163.288 943.255 161.459 939.713 Q159.653 936.149 156.019 936.149 M156.019 932.445 Q161.829 932.445 164.885 937.051 Q167.964 941.635 167.964 950.385 Q167.964 959.111 164.885 963.718 Q161.829 968.301 156.019 968.301 Q150.209 968.301 147.13 963.718 Q144.075 959.111 144.075 950.385 Q144.075 941.635 147.13 937.051 Q150.209 932.445 156.019 932.445 Z" fill="#000000" fill-rule="nonzero" fill-opacity="1" /><path clip-path="url(#clip540)" d="M119.885 529.806 L136.204 529.806 L136.204 533.741 L114.26 533.741 L114.26 529.806 Q116.922 527.052 121.505 522.422 Q126.112 517.769 127.292 516.427 Q129.538 513.904 130.417 512.168 Q131.32 510.408 131.32 508.718 Q131.32 505.964 129.376 504.228 Q127.455 502.492 124.353 502.492 Q122.154 502.492 119.7 503.256 Q117.269 504.019 114.492 505.57 L114.492 500.848 Q117.316 499.714 119.769 499.135 Q122.223 498.556 124.26 498.556 Q129.63 498.556 132.825 501.242 Q136.019 503.927 136.019 508.418 Q136.019 510.547 135.209 512.468 Q134.422 514.367 132.316 516.959 Q131.737 517.63 128.635 520.848 Q125.533 524.042 119.885 529.806 Z" fill="#000000" fill-rule="nonzero" fill-opacity="1" /><path clip-path="url(#clip540)" d="M156.019 502.26 Q152.408 502.26 150.579 505.825 Q148.774 509.367 148.774 516.496 Q148.774 523.603 150.579 527.167 Q152.408 530.709 156.019 530.709 Q159.653 530.709 161.459 527.167 Q163.288 523.603 163.288 516.496 Q163.288 509.367 161.459 505.825 Q159.653 502.26 156.019 502.26 M156.019 498.556 Q161.829 498.556 164.885 503.163 Q167.964 507.746 167.964 516.496 Q167.964 525.223 164.885 529.829 Q161.829 534.413 156.019 534.413 Q150.209 534.413 147.13 529.829 Q144.075 525.223 144.075 516.496 Q144.075 507.746 147.13 503.163 Q150.209 498.556 156.019 498.556 Z" fill="#000000" fill-rule="nonzero" fill-opacity="1" /><path clip-path="url(#clip540)" d="M130.024 81.219 Q133.38 81.9365 135.255 84.205 Q137.154 86.4736 137.154 89.8069 Q137.154 94.9226 133.635 97.7235 Q130.117 100.524 123.635 100.524 Q121.459 100.524 119.144 100.085 Q116.853 99.6679 114.399 98.8115 L114.399 94.2976 Q116.343 95.4318 118.658 96.0105 Q120.973 96.5892 123.496 96.5892 Q127.894 96.5892 130.186 94.8531 Q132.501 93.117 132.501 89.8069 Q132.501 86.7513 130.348 85.0384 Q128.218 83.3023 124.399 83.3023 L120.371 83.3023 L120.371 79.4597 L124.584 79.4597 Q128.033 79.4597 129.862 78.094 Q131.691 76.7051 131.691 74.1125 Q131.691 71.4505 129.792 70.0385 Q127.917 68.6033 124.399 68.6033 Q122.478 68.6033 120.279 69.0199 Q118.08 69.4366 115.441 70.3162 L115.441 66.1496 Q118.103 65.4089 120.418 65.0385 Q122.755 64.6681 124.816 64.6681 Q130.14 64.6681 133.242 67.0987 Q136.343 69.5061 136.343 73.6264 Q136.343 76.4968 134.7 78.4875 Q133.056 80.4551 130.024 81.219 Z" fill="#000000" fill-rule="nonzero" fill-opacity="1" /><path clip-path="url(#clip540)" d="M156.019 68.3718 Q152.408 68.3718 150.579 71.9366 Q148.774 75.4782 148.774 82.6078 Q148.774 89.7143 150.579 93.2791 Q152.408 96.8207 156.019 96.8207 Q159.653 96.8207 161.459 93.2791 Q163.288 89.7143 163.288 82.6078 Q163.288 75.4782 161.459 71.9366 Q159.653 68.3718 156.019 68.3718 M156.019 64.6681 Q161.829 64.6681 164.885 69.2746 Q167.964 73.8579 167.964 82.6078 Q167.964 91.3346 164.885 95.9411 Q161.829 100.524 156.019 100.524 Q150.209 100.524 147.13 95.9411 Q144.075 91.3346 144.075 82.6078 Q144.075 73.8579 147.13 69.2746 Q150.209 64.6681 156.019 64.6681 Z" fill="#000000" fill-rule="nonzero" fill-opacity="1" /><path clip-path="url(#clip540)" d="M21.7178 734.435 Q22.1687 734.435 23.2315 734.724 L48.4165 741.037 Q54.0203 742.422 57.9494 746.93 Q61.8785 751.407 61.8785 756.496 Q61.8785 759.555 60.236 761.52 Q58.6257 763.484 56.1459 763.484 Q53.9559 763.484 52.8931 762.325 Q51.8625 761.165 51.8625 759.781 Q51.8625 759.33 51.9913 758.847 Q52.1201 758.364 52.6676 757.848 Q53.2151 757.333 54.1491 757.333 Q55.6628 757.333 56.8544 758.653 Q57.4019 759.298 57.5307 759.909 Q57.6596 760.489 57.6596 761.488 Q58.5613 761.101 59.1732 760.393 Q59.7851 759.684 60.0106 758.879 Q60.2682 758.074 60.3326 757.558 Q60.4293 757.011 60.4293 756.496 Q60.4293 752.373 56.2747 749.217 Q55.0187 748.283 53.7626 747.607 Q52.5388 746.898 51.0252 746.383 Q49.5437 745.868 48.7385 745.642 Q47.9334 745.385 46.0977 744.934 Q49.0928 747.929 49.0928 751.6 Q49.0928 753.146 48.6741 754.531 Q48.2554 755.884 47.3859 757.075 Q46.4841 758.267 44.906 758.975 Q43.3279 759.652 41.2346 759.652 Q39.0124 759.652 35.985 758.782 Q32.9577 757.913 27.386 755.819 Q24.2621 754.692 22.7484 754.692 Q22.0077 754.692 21.5568 754.853 Q21.0737 755.014 20.9127 755.336 Q20.7194 755.658 20.6872 755.852 Q20.655 756.013 20.655 756.335 Q20.655 758.235 22.5874 760.006 Q24.5197 761.777 28.8353 763.001 Q29.6405 763.259 29.8337 763.42 Q30.0269 763.581 30.0269 764.064 Q29.9947 764.869 29.3506 764.869 Q29.093 764.869 28.0946 764.579 Q27.064 764.289 25.5503 763.613 Q24.0044 762.905 22.6196 761.938 Q21.2025 760.972 20.2041 759.459 Q19.2058 757.913 19.2058 756.141 Q19.2058 753.726 20.7838 752.244 Q22.3297 750.731 24.6163 750.731 Q25.5503 750.731 26.3877 750.988 Q27.1928 751.214 29.3506 752.051 Q38.0462 755.433 42.2974 755.433 Q43.3279 755.433 44.1975 755.272 Q45.0349 755.079 45.8722 754.66 Q46.6774 754.241 47.1604 753.404 Q47.6113 752.534 47.6113 751.343 Q47.6113 749.829 46.9028 748.412 Q46.1621 746.963 45.1637 746.061 Q44.1653 745.127 43.3279 744.579 Q42.4584 744 42.0075 743.871 L30.1558 740.908 L24.874 739.588 Q22.0077 738.976 21.2991 738.686 Q20.6228 738.299 20.2686 737.623 Q19.9143 736.947 19.9143 736.367 Q19.9143 735.562 20.3974 735.014 Q20.8805 734.435 21.7178 734.435 Z" fill="#000000" fill-rule="nonzero" fill-opacity="1" /><path clip-path="url(#clip540)" d="M53.6652 727.689 L52.2224 727.689 Q52.2224 722.143 49.2691 719.28 Q49.2691 718.491 49.4494 718.355 Q49.6298 718.22 50.4639 718.22 L76.3671 718.22 Q77.7423 718.22 78.1706 717.544 Q78.599 716.867 78.599 713.914 L78.599 712.449 L80.0193 712.449 Q79.884 714.072 79.884 719.933 Q79.884 725.795 80.0193 727.395 L78.599 727.395 L78.599 725.93 Q78.599 723.022 78.1932 722.323 Q77.7648 721.624 76.3671 721.624 L52.4478 721.624 Q53.6652 724.036 53.6652 727.689 Z" fill="#000000" fill-rule="nonzero" fill-opacity="1" /><polyline clip-path="url(#clip542)" style="stroke:#009af9; stroke-linecap:round; stroke-linejoin:round; stroke-width:4; stroke-opacity:1; fill:none" points="229.636,1340.7 254.805,1327.1 279.974,1032.37 305.143,721.015 330.312,470.255 355.481,312.038 380.65,142.371 405.819,126.724 430.988,146.823 456.157,152.271 481.326,160.827 506.495,220.911 531.664,276.435 556.833,277.591 582.002,323.016 607.171,325.326 632.34,311.207 657.509,312.389 682.678,316.06 707.847,289.179 733.016,306.961 758.185,288.803 783.354,320.904 808.523,307.687 833.692,299.739 858.861,265.489 884.03,307.314 909.199,270.03 934.368,326.539 959.537,305.219 984.706,303.994 1009.88,327.476 1035.04,303.74 1060.21,243.741 1085.38,297.989 "/>
<polyline clip-path="url(#clip542)" style="stroke:#e26f46; stroke-linecap:round; stroke-linejoin:round; stroke-width:3; stroke-opacity:1; fill:none" stroke-dasharray="12, 6, 2, 6" points="229.636,1384.24 254.805,1233.99 279.974,1163.19 305.143,714.526 330.312,432.423 355.481,269.008 380.65,206.792 405.819,86.1857 430.988,144.614 456.157,199.887 481.326,206.684 506.495,208.87 531.664,272.564 556.833,318.976 582.002,295.148 607.171,339.293 632.34,326.575 657.509,302.325 682.678,305.199 707.847,311.112 733.016,278.143 758.185,307.081 783.354,283.759 808.523,327.483 833.692,305.495 858.861,296.2 884.03,255.899 909.199,316.723 934.368,264.505 959.537,340.291 984.706,303.3 1009.88,301.915 1035.04,331.795 1060.21,297.435 1085.38,226.273 "/>
<path clip-path="url(#clip540)" d="M961.28 1377.32 L1080.82 1377.32 L1080.82 1221.8 L961.28 1221.8  Z" fill="#ffffff" fill-rule="evenodd" fill-opacity="1"/>
<polyline clip-path="url(#clip540)" style="stroke:#000000; stroke-linecap:round; stroke-linejoin:round; stroke-width:4; stroke-opacity:1; fill:none" points="961.28,1377.32 1080.82,1377.32 1080.82,1221.8 961.28,1221.8 961.28,1377.32 "/>
<polyline clip-path="url(#clip540)" style="stroke:#009af9; stroke-linecap:round; stroke-linejoin:round; stroke-width:4; stroke-opacity:1; fill:none" points="971.359,1273.64 1031.83,1273.64 "/>
<path clip-path="url(#clip540)" d="M1068.68 1260.37 Q1067.21 1260.37 1066.46 1260.51 Q1065.71 1260.63 1065.52 1260.8 Q1065.33 1260.96 1065.12 1261.38 L1054.82 1283.3 Q1053.72 1285.65 1051.65 1287.33 Q1049.62 1289.02 1047.04 1289.02 Q1044.88 1289.02 1043.39 1287.71 Q1041.91 1286.42 1041.91 1284.59 Q1041.91 1283.28 1042.73 1282.53 Q1043.55 1281.81 1044.65 1281.81 Q1045.87 1281.81 1046.64 1282.58 Q1047.44 1283.35 1047.44 1284.55 Q1047.44 1285.32 1047.11 1285.9 Q1046.78 1286.51 1046.48 1286.72 Q1046.2 1286.96 1045.89 1287.1 Q1046.38 1287.29 1047.04 1287.29 Q1048.02 1287.29 1048.87 1286.89 Q1049.73 1286.51 1050.3 1286 Q1050.88 1285.51 1051.47 1284.62 Q1052.05 1283.75 1052.33 1283.19 Q1052.61 1282.65 1053.04 1281.71 L1054.14 1279.42 L1045.17 1260.37 L1042.1 1260.37 L1042.1 1258.13 L1047.58 1258.27 L1053.53 1258.13 L1053.53 1260.37 L1050.93 1260.37 L1057.02 1273.33 L1062.55 1261.52 L1062.78 1260.96 Q1062.78 1260.7 1062.22 1260.56 Q1061.66 1260.4 1061.09 1260.4 L1060.53 1260.37 L1060.53 1258.13 L1064.89 1258.27 Q1066.95 1258.27 1068.68 1258.13 L1068.68 1260.37 Z" fill="#000000" fill-rule="nonzero" fill-opacity="1" /><polyline clip-path="url(#clip540)" style="stroke:#e26f46; stroke-linecap:round; stroke-linejoin:round; stroke-width:3; stroke-opacity:1; fill:none" stroke-dasharray="12, 6, 2, 6" points="971.359,1325.48 1031.83,1325.48 "/>
<path clip-path="url(#clip540)" d="M1064.5 1309.2 L1064.09 1309.87 Q1061.54 1308.77 1058.38 1307.01 Q1055.22 1308.77 1052.67 1309.87 L1052.28 1309.2 Q1055.05 1306.79 1058.38 1304.93 Q1061.74 1306.8 1064.5 1309.2 Z" fill="#000000" fill-rule="nonzero" fill-opacity="1" /><path clip-path="url(#clip540)" d="M1068.68 1317.22 Q1067.21 1317.22 1066.46 1317.36 Q1065.71 1317.48 1065.52 1317.64 Q1065.33 1317.8 1065.12 1318.23 L1054.82 1340.15 Q1053.72 1342.49 1051.65 1344.18 Q1049.62 1345.86 1047.04 1345.86 Q1044.88 1345.86 1043.39 1344.55 Q1041.91 1343.26 1041.91 1341.44 Q1041.91 1340.13 1042.73 1339.38 Q1043.55 1338.65 1044.65 1338.65 Q1045.87 1338.65 1046.64 1339.42 Q1047.44 1340.2 1047.44 1341.39 Q1047.44 1342.16 1047.11 1342.75 Q1046.78 1343.36 1046.48 1343.57 Q1046.2 1343.8 1045.89 1343.94 Q1046.38 1344.13 1047.04 1344.13 Q1048.02 1344.13 1048.87 1343.73 Q1049.73 1343.36 1050.3 1342.84 Q1050.88 1342.35 1051.47 1341.46 Q1052.05 1340.59 1052.33 1340.03 Q1052.61 1339.49 1053.04 1338.56 L1054.14 1336.26 L1045.17 1317.22 L1042.1 1317.22 L1042.1 1314.97 L1047.58 1315.11 L1053.53 1314.97 L1053.53 1317.22 L1050.93 1317.22 L1057.02 1330.17 L1062.55 1318.37 L1062.78 1317.8 Q1062.78 1317.55 1062.22 1317.41 Q1061.66 1317.24 1061.09 1317.24 L1060.53 1317.22 L1060.53 1314.97 L1064.89 1315.11 Q1066.95 1315.11 1068.68 1314.97 L1068.68 1317.22 Z" fill="#000000" fill-rule="nonzero" fill-opacity="1" /><path clip-path="url(#clip540)" d="M1445.66 398.692 L2352.76 398.692 L2352.76 47.2441 L1445.66 47.2441  Z" fill="#ffffff" fill-rule="evenodd" fill-opacity="1"/>
<defs>
  <clipPath id="clip543">
    <rect x="1445" y="47" width="908" height="352"/>
  </clipPath>
</defs>
<polyline clip-path="url(#clip543)" style="stroke:#000000; stroke-linecap:round; stroke-linejoin:round; stroke-width:2; stroke-opacity:0.1; fill:none" points="1471.34,398.692 1471.34,47.2441 "/>
<polyline clip-path="url(#clip543)" style="stroke:#000000; stroke-linecap:round; stroke-linejoin:round; stroke-width:2; stroke-opacity:0.1; fill:none" points="1723.03,398.692 1723.03,47.2441 "/>
<polyline clip-path="url(#clip543)" style="stroke:#000000; stroke-linecap:round; stroke-linejoin:round; stroke-width:2; stroke-opacity:0.1; fill:none" points="1974.72,398.692 1974.72,47.2441 "/>
<polyline clip-path="url(#clip543)" style="stroke:#000000; stroke-linecap:round; stroke-linejoin:round; stroke-width:2; stroke-opacity:0.1; fill:none" points="2226.41,398.692 2226.41,47.2441 "/>
<polyline clip-path="url(#clip540)" style="stroke:#000000; stroke-linecap:round; stroke-linejoin:round; stroke-width:4; stroke-opacity:1; fill:none" points="1445.66,398.692 2352.76,398.692 "/>
<polyline clip-path="url(#clip540)" style="stroke:#000000; stroke-linecap:round; stroke-linejoin:round; stroke-width:4; stroke-opacity:1; fill:none" points="1471.34,398.692 1471.34,379.794 "/>
<polyline clip-path="url(#clip540)" style="stroke:#000000; stroke-linecap:round; stroke-linejoin:round; stroke-width:4; stroke-opacity:1; fill:none" points="1723.03,398.692 1723.03,379.794 "/>
<polyline clip-path="url(#clip540)" style="stroke:#000000; stroke-linecap:round; stroke-linejoin:round; stroke-width:4; stroke-opacity:1; fill:none" points="1974.72,398.692 1974.72,379.794 "/>
<polyline clip-path="url(#clip540)" style="stroke:#000000; stroke-linecap:round; stroke-linejoin:round; stroke-width:4; stroke-opacity:1; fill:none" points="2226.41,398.692 2226.41,379.794 "/>
<path clip-path="url(#clip540)" d="M1471.34 429.611 Q1467.73 429.611 1465.9 433.175 Q1464.09 436.717 1464.09 443.847 Q1464.09 450.953 1465.9 454.518 Q1467.73 458.059 1471.34 458.059 Q1474.97 458.059 1476.78 454.518 Q1478.61 450.953 1478.61 443.847 Q1478.61 436.717 1476.78 433.175 Q1474.97 429.611 1471.34 429.611 M1471.34 425.907 Q1477.15 425.907 1480.2 430.513 Q1483.28 435.097 1483.28 443.847 Q1483.28 452.573 1480.2 457.18 Q1477.15 461.763 1471.34 461.763 Q1465.53 461.763 1462.45 457.18 Q1459.39 452.573 1459.39 443.847 Q1459.39 435.097 1462.45 430.513 Q1465.53 425.907 1471.34 425.907 Z" fill="#000000" fill-rule="nonzero" fill-opacity="1" /><path clip-path="url(#clip540)" d="M1713.41 457.157 L1721.05 457.157 L1721.05 430.791 L1712.74 432.458 L1712.74 428.199 L1721 426.532 L1725.68 426.532 L1725.68 457.157 L1733.32 457.157 L1733.32 461.092 L1713.41 461.092 L1713.41 457.157 Z" fill="#000000" fill-rule="nonzero" fill-opacity="1" /><path clip-path="url(#clip540)" d="M1969.37 457.157 L1985.69 457.157 L1985.69 461.092 L1963.75 461.092 L1963.75 457.157 Q1966.41 454.402 1970.99 449.772 Q1975.6 445.12 1976.78 443.777 Q1979.02 441.254 1979.9 439.518 Q1980.81 437.759 1980.81 436.069 Q1980.81 433.314 1978.86 431.578 Q1976.94 429.842 1973.84 429.842 Q1971.64 429.842 1969.18 430.606 Q1966.75 431.37 1963.98 432.921 L1963.98 428.199 Q1966.8 427.064 1969.25 426.486 Q1971.71 425.907 1973.75 425.907 Q1979.12 425.907 1982.31 428.592 Q1985.5 431.277 1985.5 435.768 Q1985.5 437.898 1984.69 439.819 Q1983.91 441.717 1981.8 444.31 Q1981.22 444.981 1978.12 448.198 Q1975.02 451.393 1969.37 457.157 Z" fill="#000000" fill-rule="nonzero" fill-opacity="1" /><path clip-path="url(#clip540)" d="M2230.66 442.458 Q2234.01 443.175 2235.89 445.444 Q2237.78 447.712 2237.78 451.046 Q2237.78 456.161 2234.27 458.962 Q2230.75 461.763 2224.27 461.763 Q2222.09 461.763 2219.78 461.323 Q2217.48 460.907 2215.03 460.05 L2215.03 455.536 Q2216.97 456.671 2219.29 457.249 Q2221.6 457.828 2224.13 457.828 Q2228.53 457.828 2230.82 456.092 Q2233.13 454.356 2233.13 451.046 Q2233.13 447.99 2230.98 446.277 Q2228.85 444.541 2225.03 444.541 L2221 444.541 L2221 440.698 L2225.22 440.698 Q2228.66 440.698 2230.49 439.333 Q2232.32 437.944 2232.32 435.351 Q2232.32 432.689 2230.42 431.277 Q2228.55 429.842 2225.03 429.842 Q2223.11 429.842 2220.91 430.259 Q2218.71 430.675 2216.07 431.555 L2216.07 427.388 Q2218.73 426.648 2221.05 426.277 Q2223.39 425.907 2225.45 425.907 Q2230.77 425.907 2233.87 428.337 Q2236.97 430.745 2236.97 434.865 Q2236.97 437.736 2235.33 439.726 Q2233.69 441.694 2230.66 442.458 Z" fill="#000000" fill-rule="nonzero" fill-opacity="1" /><polyline clip-path="url(#clip543)" style="stroke:#000000; stroke-linecap:round; stroke-linejoin:round; stroke-width:2; stroke-opacity:0.1; fill:none" points="1445.66,388.745 2352.76,388.745 "/>
<polyline clip-path="url(#clip543)" style="stroke:#000000; stroke-linecap:round; stroke-linejoin:round; stroke-width:2; stroke-opacity:0.1; fill:none" points="1445.66,325.247 2352.76,325.247 "/>
<polyline clip-path="url(#clip543)" style="stroke:#000000; stroke-linecap:round; stroke-linejoin:round; stroke-width:2; stroke-opacity:0.1; fill:none" points="1445.66,261.748 2352.76,261.748 "/>
<polyline clip-path="url(#clip543)" style="stroke:#000000; stroke-linecap:round; stroke-linejoin:round; stroke-width:2; stroke-opacity:0.1; fill:none" points="1445.66,198.25 2352.76,198.25 "/>
<polyline clip-path="url(#clip543)" style="stroke:#000000; stroke-linecap:round; stroke-linejoin:round; stroke-width:2; stroke-opacity:0.1; fill:none" points="1445.66,134.751 2352.76,134.751 "/>
<polyline clip-path="url(#clip543)" style="stroke:#000000; stroke-linecap:round; stroke-linejoin:round; stroke-width:2; stroke-opacity:0.1; fill:none" points="1445.66,71.2529 2352.76,71.2529 "/>
<polyline clip-path="url(#clip540)" style="stroke:#000000; stroke-linecap:round; stroke-linejoin:round; stroke-width:4; stroke-opacity:1; fill:none" points="1445.66,398.692 1445.66,47.2441 "/>
<polyline clip-path="url(#clip540)" style="stroke:#000000; stroke-linecap:round; stroke-linejoin:round; stroke-width:4; stroke-opacity:1; fill:none" points="1445.66,388.745 1464.56,388.745 "/>
<polyline clip-path="url(#clip540)" style="stroke:#000000; stroke-linecap:round; stroke-linejoin:round; stroke-width:4; stroke-opacity:1; fill:none" points="1445.66,325.247 1464.56,325.247 "/>
<polyline clip-path="url(#clip540)" style="stroke:#000000; stroke-linecap:round; stroke-linejoin:round; stroke-width:4; stroke-opacity:1; fill:none" points="1445.66,261.748 1464.56,261.748 "/>
<polyline clip-path="url(#clip540)" style="stroke:#000000; stroke-linecap:round; stroke-linejoin:round; stroke-width:4; stroke-opacity:1; fill:none" points="1445.66,198.25 1464.56,198.25 "/>
<polyline clip-path="url(#clip540)" style="stroke:#000000; stroke-linecap:round; stroke-linejoin:round; stroke-width:4; stroke-opacity:1; fill:none" points="1445.66,134.751 1464.56,134.751 "/>
<polyline clip-path="url(#clip540)" style="stroke:#000000; stroke-linecap:round; stroke-linejoin:round; stroke-width:4; stroke-opacity:1; fill:none" points="1445.66,71.2529 1464.56,71.2529 "/>
<path clip-path="url(#clip540)" d="M1352.49 374.544 Q1348.88 374.544 1347.05 378.109 Q1345.24 381.65 1345.24 388.78 Q1345.24 395.886 1347.05 399.451 Q1348.88 402.993 1352.49 402.993 Q1356.12 402.993 1357.93 399.451 Q1359.76 395.886 1359.76 388.78 Q1359.76 381.65 1357.93 378.109 Q1356.12 374.544 1352.49 374.544 M1352.49 370.84 Q1358.3 370.84 1361.35 375.447 Q1364.43 380.03 1364.43 388.78 Q1364.43 397.507 1361.35 402.113 Q1358.3 406.697 1352.49 406.697 Q1346.68 406.697 1343.6 402.113 Q1340.54 397.507 1340.54 388.78 Q1340.54 380.03 1343.6 375.447 Q1346.68 370.84 1352.49 370.84 Z" fill="#000000" fill-rule="nonzero" fill-opacity="1" /><path clip-path="url(#clip540)" d="M1372.65 400.146 L1377.54 400.146 L1377.54 406.025 L1372.65 406.025 L1372.65 400.146 Z" fill="#000000" fill-rule="nonzero" fill-opacity="1" /><path clip-path="url(#clip540)" d="M1397.72 374.544 Q1394.11 374.544 1392.28 378.109 Q1390.48 381.65 1390.48 388.78 Q1390.48 395.886 1392.28 399.451 Q1394.11 402.993 1397.72 402.993 Q1401.35 402.993 1403.16 399.451 Q1404.99 395.886 1404.99 388.78 Q1404.99 381.65 1403.16 378.109 Q1401.35 374.544 1397.72 374.544 M1397.72 370.84 Q1403.53 370.84 1406.59 375.447 Q1409.66 380.03 1409.66 388.78 Q1409.66 397.507 1406.59 402.113 Q1403.53 406.697 1397.72 406.697 Q1391.91 406.697 1388.83 402.113 Q1385.78 397.507 1385.78 388.78 Q1385.78 380.03 1388.83 375.447 Q1391.91 370.84 1397.72 370.84 Z" fill="#000000" fill-rule="nonzero" fill-opacity="1" /><path clip-path="url(#clip540)" d="M1353.72 311.045 Q1350.1 311.045 1348.28 314.61 Q1346.47 318.152 1346.47 325.281 Q1346.47 332.388 1348.28 335.953 Q1350.1 339.494 1353.72 339.494 Q1357.35 339.494 1359.16 335.953 Q1360.98 332.388 1360.98 325.281 Q1360.98 318.152 1359.16 314.61 Q1357.35 311.045 1353.72 311.045 M1353.72 307.342 Q1359.53 307.342 1362.58 311.948 Q1365.66 316.532 1365.66 325.281 Q1365.66 334.008 1362.58 338.615 Q1359.53 343.198 1353.72 343.198 Q1347.91 343.198 1344.83 338.615 Q1341.77 334.008 1341.77 325.281 Q1341.77 316.532 1344.83 311.948 Q1347.91 307.342 1353.72 307.342 Z" fill="#000000" fill-rule="nonzero" fill-opacity="1" /><path clip-path="url(#clip540)" d="M1373.88 336.647 L1378.76 336.647 L1378.76 342.527 L1373.88 342.527 L1373.88 336.647 Z" fill="#000000" fill-rule="nonzero" fill-opacity="1" /><path clip-path="url(#clip540)" d="M1389.76 338.592 L1397.4 338.592 L1397.4 312.226 L1389.09 313.893 L1389.09 309.633 L1397.35 307.967 L1402.03 307.967 L1402.03 338.592 L1409.66 338.592 L1409.66 342.527 L1389.76 342.527 L1389.76 338.592 Z" fill="#000000" fill-rule="nonzero" fill-opacity="1" /><path clip-path="url(#clip540)" d="M1354.09 247.547 Q1350.48 247.547 1348.65 251.112 Q1346.84 254.653 1346.84 261.783 Q1346.84 268.889 1348.65 272.454 Q1350.48 275.996 1354.09 275.996 Q1357.72 275.996 1359.53 272.454 Q1361.35 268.889 1361.35 261.783 Q1361.35 254.653 1359.53 251.112 Q1357.72 247.547 1354.09 247.547 M1354.09 243.843 Q1359.9 243.843 1362.95 248.45 Q1366.03 253.033 1366.03 261.783 Q1366.03 270.51 1362.95 275.116 Q1359.9 279.7 1354.09 279.7 Q1348.28 279.7 1345.2 275.116 Q1342.14 270.51 1342.14 261.783 Q1342.14 253.033 1345.2 248.45 Q1348.28 243.843 1354.09 243.843 Z" fill="#000000" fill-rule="nonzero" fill-opacity="1" /><path clip-path="url(#clip540)" d="M1374.25 273.149 L1379.13 273.149 L1379.13 279.028 L1374.25 279.028 L1374.25 273.149 Z" fill="#000000" fill-rule="nonzero" fill-opacity="1" /><path clip-path="url(#clip540)" d="M1393.35 275.093 L1409.66 275.093 L1409.66 279.028 L1387.72 279.028 L1387.72 275.093 Q1390.38 272.339 1394.97 267.709 Q1399.57 263.056 1400.75 261.714 Q1403 259.19 1403.88 257.454 Q1404.78 255.695 1404.78 254.005 Q1404.78 251.251 1402.84 249.515 Q1400.91 247.778 1397.81 247.778 Q1395.61 247.778 1393.16 248.542 Q1390.73 249.306 1387.95 250.857 L1387.95 246.135 Q1390.78 245.001 1393.23 244.422 Q1395.68 243.843 1397.72 243.843 Q1403.09 243.843 1406.29 246.528 Q1409.48 249.214 1409.48 253.704 Q1409.48 255.834 1408.67 257.755 Q1407.88 259.653 1405.78 262.246 Q1405.2 262.917 1402.1 266.135 Q1398.99 269.329 1393.35 275.093 Z" fill="#000000" fill-rule="nonzero" fill-opacity="1" /><path clip-path="url(#clip540)" d="M1353.14 184.048 Q1349.53 184.048 1347.7 187.613 Q1345.89 191.155 1345.89 198.285 Q1345.89 205.391 1347.7 208.956 Q1349.53 212.497 1353.14 212.497 Q1356.77 212.497 1358.58 208.956 Q1360.41 205.391 1360.41 198.285 Q1360.41 191.155 1358.58 187.613 Q1356.77 184.048 1353.14 184.048 M1353.14 180.345 Q1358.95 180.345 1362 184.951 Q1365.08 189.535 1365.08 198.285 Q1365.08 207.011 1362 211.618 Q1358.95 216.201 1353.14 216.201 Q1347.33 216.201 1344.25 211.618 Q1341.19 207.011 1341.19 198.285 Q1341.19 189.535 1344.25 184.951 Q1347.33 180.345 1353.14 180.345 Z" fill="#000000" fill-rule="nonzero" fill-opacity="1" /><path clip-path="url(#clip540)" d="M1373.3 209.65 L1378.18 209.65 L1378.18 215.53 L1373.3 215.53 L1373.3 209.65 Z" fill="#000000" fill-rule="nonzero" fill-opacity="1" /><path clip-path="url(#clip540)" d="M1402.54 196.896 Q1405.89 197.613 1407.77 199.882 Q1409.66 202.15 1409.66 205.484 Q1409.66 210.599 1406.15 213.4 Q1402.63 216.201 1396.15 216.201 Q1393.97 216.201 1391.66 215.761 Q1389.36 215.345 1386.91 214.488 L1386.91 209.974 Q1388.85 211.109 1391.17 211.687 Q1393.48 212.266 1396.01 212.266 Q1400.41 212.266 1402.7 210.53 Q1405.01 208.794 1405.01 205.484 Q1405.01 202.428 1402.86 200.715 Q1400.73 198.979 1396.91 198.979 L1392.88 198.979 L1392.88 195.136 L1397.1 195.136 Q1400.54 195.136 1402.37 193.771 Q1404.2 192.382 1404.2 189.789 Q1404.2 187.127 1402.3 185.715 Q1400.43 184.28 1396.91 184.28 Q1394.99 184.28 1392.79 184.697 Q1390.59 185.113 1387.95 185.993 L1387.95 181.826 Q1390.61 181.086 1392.93 180.715 Q1395.27 180.345 1397.33 180.345 Q1402.65 180.345 1405.75 182.775 Q1408.85 185.183 1408.85 189.303 Q1408.85 192.173 1407.21 194.164 Q1405.57 196.132 1402.54 196.896 Z" fill="#000000" fill-rule="nonzero" fill-opacity="1" /><path clip-path="url(#clip540)" d="M1352 120.55 Q1348.39 120.55 1346.56 124.115 Q1344.76 127.656 1344.76 134.786 Q1344.76 141.892 1346.56 145.457 Q1348.39 148.999 1352 148.999 Q1355.64 148.999 1357.44 145.457 Q1359.27 141.892 1359.27 134.786 Q1359.27 127.656 1357.44 124.115 Q1355.64 120.55 1352 120.55 M1352 116.846 Q1357.81 116.846 1360.87 121.453 Q1363.95 126.036 1363.95 134.786 Q1363.95 143.513 1360.87 148.119 Q1357.81 152.703 1352 152.703 Q1346.19 152.703 1343.11 148.119 Q1340.06 143.513 1340.06 134.786 Q1340.06 126.036 1343.11 121.453 Q1346.19 116.846 1352 116.846 Z" fill="#000000" fill-rule="nonzero" fill-opacity="1" /><path clip-path="url(#clip540)" d="M1372.16 146.152 L1377.05 146.152 L1377.05 152.031 L1372.16 152.031 L1372.16 146.152 Z" fill="#000000" fill-rule="nonzero" fill-opacity="1" /><path clip-path="url(#clip540)" d="M1400.08 121.545 L1388.28 139.994 L1400.08 139.994 L1400.08 121.545 M1398.85 117.471 L1404.73 117.471 L1404.73 139.994 L1409.66 139.994 L1409.66 143.883 L1404.73 143.883 L1404.73 152.031 L1400.08 152.031 L1400.08 143.883 L1384.48 143.883 L1384.48 139.369 L1398.85 117.471 Z" fill="#000000" fill-rule="nonzero" fill-opacity="1" /><path clip-path="url(#clip540)" d="M1353.48 57.0515 Q1349.87 57.0515 1348.04 60.6163 Q1346.24 64.158 1346.24 71.2876 Q1346.24 78.394 1348.04 81.9588 Q1349.87 85.5005 1353.48 85.5005 Q1357.12 85.5005 1358.92 81.9588 Q1360.75 78.394 1360.75 71.2876 Q1360.75 64.158 1358.92 60.6163 Q1357.12 57.0515 1353.48 57.0515 M1353.48 53.3479 Q1359.29 53.3479 1362.35 57.9543 Q1365.43 62.5376 1365.43 71.2876 Q1365.43 80.0144 1362.35 84.6208 Q1359.29 89.2041 1353.48 89.2041 Q1347.67 89.2041 1344.6 84.6208 Q1341.54 80.0144 1341.54 71.2876 Q1341.54 62.5376 1344.6 57.9543 Q1347.67 53.3479 1353.48 53.3479 Z" fill="#000000" fill-rule="nonzero" fill-opacity="1" /><path clip-path="url(#clip540)" d="M1373.65 82.6533 L1378.53 82.6533 L1378.53 88.5329 L1373.65 88.5329 L1373.65 82.6533 Z" fill="#000000" fill-rule="nonzero" fill-opacity="1" /><path clip-path="url(#clip540)" d="M1388.76 53.9729 L1407.12 53.9729 L1407.12 57.908 L1393.04 57.908 L1393.04 66.3802 Q1394.06 66.033 1395.08 65.8709 Q1396.1 65.6858 1397.12 65.6858 Q1402.91 65.6858 1406.29 68.857 Q1409.66 72.0283 1409.66 77.445 Q1409.66 83.0236 1406.19 86.1255 Q1402.72 89.2041 1396.4 89.2041 Q1394.23 89.2041 1391.96 88.8338 Q1389.71 88.4634 1387.3 87.7227 L1387.3 83.0236 Q1389.39 84.1579 1391.61 84.7134 Q1393.83 85.269 1396.31 85.269 Q1400.31 85.269 1402.65 83.1625 Q1404.99 81.056 1404.99 77.445 Q1404.99 73.8339 1402.65 71.7274 Q1400.31 69.6209 1396.31 69.6209 Q1394.43 69.6209 1392.56 70.0376 Q1390.71 70.4542 1388.76 71.3339 L1388.76 53.9729 Z" fill="#000000" fill-rule="nonzero" fill-opacity="1" /><path clip-path="url(#clip540)" d="M1255.68 220.971 Q1257.48 220.971 1258.51 222.098 Q1259.51 223.225 1259.51 224.513 Q1259.51 225.737 1258.8 226.381 Q1258.1 227.025 1257.19 227.025 Q1255.97 227.025 1254.91 226.123 Q1253.84 225.222 1253.62 223.869 Q1252.78 225.189 1252.78 227.154 Q1252.78 228.442 1253.46 229.569 Q1254.13 230.664 1255 231.341 Q1255.87 231.985 1257.13 232.565 Q1258.35 233.112 1259.09 233.338 Q1259.8 233.531 1260.58 233.692 L1269.59 235.946 Q1273.88 237.041 1275.39 237.041 Q1277.26 237.041 1278.51 236.139 Q1279.74 235.238 1279.74 233.434 Q1279.74 232.726 1279.54 231.92 Q1279.32 231.115 1278.74 230.085 Q1278.13 229.022 1277.23 228.088 Q1276.29 227.122 1274.71 226.188 Q1273.14 225.254 1271.11 224.642 Q1270.4 224.449 1270.4 223.805 Q1270.4 222.999 1271.04 222.999 Q1271.59 222.999 1272.75 223.45 Q1273.88 223.869 1275.36 224.803 Q1276.81 225.705 1278.13 226.896 Q1279.42 228.088 1280.32 229.859 Q1281.22 231.631 1281.22 233.563 Q1281.22 236.333 1279.74 238.168 Q1278.26 240.004 1276.2 240.68 Q1276.49 240.842 1276.87 241.067 Q1277.26 241.292 1278.13 241.969 Q1278.96 242.613 1279.61 243.354 Q1280.22 244.094 1280.7 245.254 Q1281.22 246.381 1281.22 247.605 Q1281.22 249.151 1280.77 250.535 Q1280.32 251.888 1279.29 252.854 Q1278.26 253.82 1276.84 253.82 Q1275.26 253.82 1274.17 252.758 Q1273.04 251.663 1273.04 250.181 Q1273.04 249.247 1273.59 248.507 Q1274.13 247.734 1275.33 247.734 Q1276.65 247.734 1277.64 248.635 Q1278.64 249.537 1278.9 250.825 Q1279.74 249.505 1279.74 247.54 Q1279.74 245.415 1277.87 243.74 Q1276 242.065 1272.88 241.26 Q1265.37 239.263 1262.02 238.49 Q1258.64 237.718 1257.19 237.718 Q1255.84 237.718 1254.91 238.072 Q1253.97 238.426 1253.55 239.038 Q1253.1 239.618 1252.94 240.165 Q1252.78 240.68 1252.78 241.26 Q1252.78 242.226 1253.17 243.321 Q1253.55 244.384 1254.46 245.672 Q1255.33 246.928 1257.13 248.12 Q1258.93 249.312 1261.41 250.117 Q1262.15 250.278 1262.15 250.986 Q1262.12 251.759 1261.48 251.759 Q1260.93 251.759 1259.8 251.341 Q1258.64 250.89 1257.19 249.988 Q1255.74 249.054 1254.46 247.862 Q1253.14 246.639 1252.23 244.867 Q1251.33 243.064 1251.33 241.131 Q1251.33 240.262 1251.53 239.424 Q1251.69 238.555 1252.17 237.524 Q1252.65 236.462 1253.72 235.528 Q1254.78 234.594 1256.32 234.014 Q1255.58 233.627 1254.88 233.112 Q1254.17 232.565 1253.3 231.727 Q1252.4 230.858 1251.88 229.666 Q1251.33 228.442 1251.33 227.09 Q1251.33 225.769 1251.69 224.481 Q1252.01 223.193 1253.07 222.098 Q1254.1 220.971 1255.68 220.971 Z" fill="#000000" fill-rule="nonzero" fill-opacity="1" /><path clip-path="url(#clip540)" d="M1273.14 214.249 L1271.69 214.249 Q1271.69 208.703 1268.74 205.84 Q1268.74 205.051 1268.92 204.916 Q1269.1 204.781 1269.93 204.781 L1295.84 204.781 Q1297.21 204.781 1297.64 204.104 Q1298.07 203.428 1298.07 200.475 L1298.07 199.009 L1299.49 199.009 Q1299.35 200.633 1299.35 206.494 Q1299.35 212.356 1299.49 213.956 L1298.07 213.956 L1298.07 212.491 Q1298.07 209.583 1297.66 208.884 Q1297.24 208.185 1295.84 208.185 L1271.92 208.185 Q1273.14 210.597 1273.14 214.249 Z" fill="#000000" fill-rule="nonzero" fill-opacity="1" /><polyline clip-path="url(#clip543)" style="stroke:#009af9; stroke-linecap:round; stroke-linejoin:round; stroke-width:4; stroke-opacity:1; fill:none" points="1471.34,388.745 1496.51,361.171 1521.68,298.62 1546.84,226.591 1572.01,162.13 1597.18,113.881 1622.35,83.9076 1647.52,70.1286 1672.69,68.4829 1697.86,74.4721 1723.03,84.096 1748.2,94.3131 1773.37,103.166 1798.53,109.686 1823.7,113.677 1848.87,115.449 1874.04,115.569 1899.21,114.667 1924.38,113.3 1949.55,111.886 1974.72,110.686 1999.89,109.821 2025.06,109.309 2050.22,109.098 2075.39,109.106 2100.56,109.246 2125.73,109.441 2150.9,109.637 2176.07,109.799 2201.24,109.914 2226.41,109.979 2251.58,110.004 2276.75,110 2301.91,109.979 2327.08,109.951 "/>
<polyline clip-path="url(#clip543)" style="stroke:#e26f46; stroke-linecap:round; stroke-linejoin:round; stroke-width:3; stroke-opacity:1; fill:none" stroke-dasharray="12, 6, 2, 6" points="1471.34,388.745 1496.51,350.368 1521.68,332.284 1546.84,217.684 1572.01,145.628 1597.18,103.888 1622.35,87.9965 1647.52,57.1907 1672.69,72.1149 1697.86,86.2327 1723.03,87.9689 1748.2,88.5274 1773.37,104.796 1798.53,116.651 1823.7,110.565 1848.87,121.84 1874.04,118.592 1899.21,112.398 1924.38,113.132 1949.55,114.643 1974.72,106.221 1999.89,113.613 2025.06,107.656 2050.22,118.824 2075.39,113.208 2100.56,110.834 2125.73,100.54 2150.9,116.076 2176.07,102.738 2201.24,122.095 2226.41,112.647 2251.58,112.293 2276.75,119.925 2301.91,111.149 2327.08,92.9726 "/>
<path clip-path="url(#clip540)" d="M2202.98 386.977 L2322.52 386.977 L2322.52 231.457 L2202.98 231.457  Z" fill="#ffffff" fill-rule="evenodd" fill-opacity="1"/>
<polyline clip-path="url(#clip540)" style="stroke:#000000; stroke-linecap:round; stroke-linejoin:round; stroke-width:4; stroke-opacity:1; fill:none" points="2202.98,386.977 2322.52,386.977 2322.52,231.457 2202.98,231.457 2202.98,386.977 "/>
<polyline clip-path="url(#clip540)" style="stroke:#009af9; stroke-linecap:round; stroke-linejoin:round; stroke-width:4; stroke-opacity:1; fill:none" points="2213.06,283.297 2273.53,283.297 "/>
<path clip-path="url(#clip540)" d="M2310.62 293.836 L2305.35 293.695 L2299.59 293.836 L2299.59 291.587 L2301.46 291.587 L2296.19 285.357 L2291.53 290.58 L2291.2 291.049 Q2291.2 291.26 2291.74 291.423 Q2292.3 291.587 2292.96 291.587 L2292.96 293.836 L2288.01 293.695 L2283.61 293.836 L2283.61 291.587 Q2285.09 291.587 2285.77 291.564 Q2286.47 291.517 2287.27 291.306 Q2288.06 291.096 2288.46 290.674 L2294.74 283.624 L2287.27 274.794 L2283.85 274.794 L2283.85 272.545 L2289.14 272.686 L2294.92 272.545 L2294.92 274.794 L2293 274.794 L2297.71 280.298 L2301.74 275.801 Q2301.76 275.777 2302.14 275.215 Q2301.39 274.794 2300.31 274.794 L2300.31 272.545 L2305.25 272.686 L2309.66 272.545 L2309.66 274.794 Q2307.74 274.794 2306.73 274.934 Q2305.75 275.051 2305.44 275.215 Q2305.16 275.379 2304.76 275.801 L2299.16 282.031 L2307.22 291.587 L2310.62 291.587 L2310.62 293.836 Z" fill="#000000" fill-rule="nonzero" fill-opacity="1" /><polyline clip-path="url(#clip540)" style="stroke:#e26f46; stroke-linecap:round; stroke-linejoin:round; stroke-width:3; stroke-opacity:1; fill:none" stroke-dasharray="12, 6, 2, 6" points="2213.06,335.137 2273.53,335.137 "/>
<path clip-path="url(#clip540)" d="M2306.2 323.615 L2305.79 324.287 Q2303.25 323.189 2300.08 321.434 Q2296.92 323.189 2294.38 324.287 L2293.98 323.615 Q2296.75 321.205 2300.08 319.352 Q2303.44 321.221 2306.2 323.615 Z" fill="#000000" fill-rule="nonzero" fill-opacity="1" /><path clip-path="url(#clip540)" d="M2310.62 350.681 L2305.35 350.54 L2299.59 350.681 L2299.59 348.432 L2301.46 348.432 L2296.19 342.202 L2291.53 347.425 L2291.2 347.893 Q2291.2 348.104 2291.74 348.268 Q2292.3 348.432 2292.96 348.432 L2292.96 350.681 L2288.01 350.54 L2283.61 350.681 L2283.61 348.432 Q2285.09 348.432 2285.77 348.409 Q2286.47 348.362 2287.27 348.151 Q2288.06 347.94 2288.46 347.519 L2294.74 340.468 L2287.27 331.638 L2283.85 331.638 L2283.85 329.39 L2289.14 329.53 L2294.92 329.39 L2294.92 331.638 L2293 331.638 L2297.71 337.142 L2301.74 332.645 Q2301.76 332.622 2302.14 332.06 Q2301.39 331.638 2300.31 331.638 L2300.31 329.39 L2305.25 329.53 L2309.66 329.39 L2309.66 331.638 Q2307.74 331.638 2306.73 331.779 Q2305.75 331.896 2305.44 332.06 Q2305.16 332.224 2304.76 332.645 L2299.16 338.876 L2307.22 348.432 L2310.62 348.432 L2310.62 350.681 Z" fill="#000000" fill-rule="nonzero" fill-opacity="1" /><path clip-path="url(#clip540)" d="M1445.66 910.936 L2352.76 910.936 L2352.76 559.488 L1445.66 559.488  Z" fill="#ffffff" fill-rule="evenodd" fill-opacity="1"/>
<defs>
  <clipPath id="clip544">
    <rect x="1445" y="559" width="908" height="352"/>
  </clipPath>
</defs>
<polyline clip-path="url(#clip544)" style="stroke:#000000; stroke-linecap:round; stroke-linejoin:round; stroke-width:2; stroke-opacity:0.1; fill:none" points="1471.34,910.936 1471.34,559.488 "/>
<polyline clip-path="url(#clip544)" style="stroke:#000000; stroke-linecap:round; stroke-linejoin:round; stroke-width:2; stroke-opacity:0.1; fill:none" points="1723.03,910.936 1723.03,559.488 "/>
<polyline clip-path="url(#clip544)" style="stroke:#000000; stroke-linecap:round; stroke-linejoin:round; stroke-width:2; stroke-opacity:0.1; fill:none" points="1974.72,910.936 1974.72,559.488 "/>
<polyline clip-path="url(#clip544)" style="stroke:#000000; stroke-linecap:round; stroke-linejoin:round; stroke-width:2; stroke-opacity:0.1; fill:none" points="2226.41,910.936 2226.41,559.488 "/>
<polyline clip-path="url(#clip540)" style="stroke:#000000; stroke-linecap:round; stroke-linejoin:round; stroke-width:4; stroke-opacity:1; fill:none" points="1445.66,910.936 2352.76,910.936 "/>
<polyline clip-path="url(#clip540)" style="stroke:#000000; stroke-linecap:round; stroke-linejoin:round; stroke-width:4; stroke-opacity:1; fill:none" points="1471.34,910.936 1471.34,892.038 "/>
<polyline clip-path="url(#clip540)" style="stroke:#000000; stroke-linecap:round; stroke-linejoin:round; stroke-width:4; stroke-opacity:1; fill:none" points="1723.03,910.936 1723.03,892.038 "/>
<polyline clip-path="url(#clip540)" style="stroke:#000000; stroke-linecap:round; stroke-linejoin:round; stroke-width:4; stroke-opacity:1; fill:none" points="1974.72,910.936 1974.72,892.038 "/>
<polyline clip-path="url(#clip540)" style="stroke:#000000; stroke-linecap:round; stroke-linejoin:round; stroke-width:4; stroke-opacity:1; fill:none" points="2226.41,910.936 2226.41,892.038 "/>
<path clip-path="url(#clip540)" d="M1471.34 941.855 Q1467.73 941.855 1465.9 945.419 Q1464.09 948.961 1464.09 956.091 Q1464.09 963.197 1465.9 966.762 Q1467.73 970.303 1471.34 970.303 Q1474.97 970.303 1476.78 966.762 Q1478.61 963.197 1478.61 956.091 Q1478.61 948.961 1476.78 945.419 Q1474.97 941.855 1471.34 941.855 M1471.34 938.151 Q1477.15 938.151 1480.2 942.757 Q1483.28 947.341 1483.28 956.091 Q1483.28 964.817 1480.2 969.424 Q1477.15 974.007 1471.34 974.007 Q1465.53 974.007 1462.45 969.424 Q1459.39 964.817 1459.39 956.091 Q1459.39 947.341 1462.45 942.757 Q1465.53 938.151 1471.34 938.151 Z" fill="#000000" fill-rule="nonzero" fill-opacity="1" /><path clip-path="url(#clip540)" d="M1713.41 969.401 L1721.05 969.401 L1721.05 943.035 L1712.74 944.702 L1712.74 940.443 L1721 938.776 L1725.68 938.776 L1725.68 969.401 L1733.32 969.401 L1733.32 973.336 L1713.41 973.336 L1713.41 969.401 Z" fill="#000000" fill-rule="nonzero" fill-opacity="1" /><path clip-path="url(#clip540)" d="M1969.37 969.401 L1985.69 969.401 L1985.69 973.336 L1963.75 973.336 L1963.75 969.401 Q1966.41 966.646 1970.99 962.016 Q1975.6 957.364 1976.78 956.021 Q1979.02 953.498 1979.9 951.762 Q1980.81 950.003 1980.81 948.313 Q1980.81 945.558 1978.86 943.822 Q1976.94 942.086 1973.84 942.086 Q1971.64 942.086 1969.18 942.85 Q1966.75 943.614 1963.98 945.165 L1963.98 940.443 Q1966.8 939.308 1969.25 938.73 Q1971.71 938.151 1973.75 938.151 Q1979.12 938.151 1982.31 940.836 Q1985.5 943.521 1985.5 948.012 Q1985.5 950.142 1984.69 952.063 Q1983.91 953.961 1981.8 956.554 Q1981.22 957.225 1978.12 960.442 Q1975.02 963.637 1969.37 969.401 Z" fill="#000000" fill-rule="nonzero" fill-opacity="1" /><path clip-path="url(#clip540)" d="M2230.66 954.702 Q2234.01 955.419 2235.89 957.688 Q2237.78 959.956 2237.78 963.29 Q2237.78 968.405 2234.27 971.206 Q2230.75 974.007 2224.27 974.007 Q2222.09 974.007 2219.78 973.567 Q2217.48 973.151 2215.03 972.294 L2215.03 967.78 Q2216.97 968.915 2219.29 969.493 Q2221.6 970.072 2224.13 970.072 Q2228.53 970.072 2230.82 968.336 Q2233.13 966.6 2233.13 963.29 Q2233.13 960.234 2230.98 958.521 Q2228.85 956.785 2225.03 956.785 L2221 956.785 L2221 952.942 L2225.22 952.942 Q2228.66 952.942 2230.49 951.577 Q2232.32 950.188 2232.32 947.595 Q2232.32 944.933 2230.42 943.521 Q2228.55 942.086 2225.03 942.086 Q2223.11 942.086 2220.91 942.503 Q2218.71 942.919 2216.07 943.799 L2216.07 939.632 Q2218.73 938.892 2221.05 938.521 Q2223.39 938.151 2225.45 938.151 Q2230.77 938.151 2233.87 940.581 Q2236.97 942.989 2236.97 947.109 Q2236.97 949.979 2235.33 951.97 Q2233.69 953.938 2230.66 954.702 Z" fill="#000000" fill-rule="nonzero" fill-opacity="1" /><polyline clip-path="url(#clip544)" style="stroke:#000000; stroke-linecap:round; stroke-linejoin:round; stroke-width:2; stroke-opacity:0.1; fill:none" points="1445.66,845.919 2352.76,845.919 "/>
<polyline clip-path="url(#clip544)" style="stroke:#000000; stroke-linecap:round; stroke-linejoin:round; stroke-width:2; stroke-opacity:0.1; fill:none" points="1445.66,780.652 2352.76,780.652 "/>
<polyline clip-path="url(#clip544)" style="stroke:#000000; stroke-linecap:round; stroke-linejoin:round; stroke-width:2; stroke-opacity:0.1; fill:none" points="1445.66,715.386 2352.76,715.386 "/>
<polyline clip-path="url(#clip544)" style="stroke:#000000; stroke-linecap:round; stroke-linejoin:round; stroke-width:2; stroke-opacity:0.1; fill:none" points="1445.66,650.119 2352.76,650.119 "/>
<polyline clip-path="url(#clip544)" style="stroke:#000000; stroke-linecap:round; stroke-linejoin:round; stroke-width:2; stroke-opacity:0.1; fill:none" points="1445.66,584.853 2352.76,584.853 "/>
<polyline clip-path="url(#clip540)" style="stroke:#000000; stroke-linecap:round; stroke-linejoin:round; stroke-width:4; stroke-opacity:1; fill:none" points="1445.66,910.936 1445.66,559.488 "/>
<polyline clip-path="url(#clip540)" style="stroke:#000000; stroke-linecap:round; stroke-linejoin:round; stroke-width:4; stroke-opacity:1; fill:none" points="1445.66,845.919 1464.56,845.919 "/>
<polyline clip-path="url(#clip540)" style="stroke:#000000; stroke-linecap:round; stroke-linejoin:round; stroke-width:4; stroke-opacity:1; fill:none" points="1445.66,780.652 1464.56,780.652 "/>
<polyline clip-path="url(#clip540)" style="stroke:#000000; stroke-linecap:round; stroke-linejoin:round; stroke-width:4; stroke-opacity:1; fill:none" points="1445.66,715.386 1464.56,715.386 "/>
<polyline clip-path="url(#clip540)" style="stroke:#000000; stroke-linecap:round; stroke-linejoin:round; stroke-width:4; stroke-opacity:1; fill:none" points="1445.66,650.119 1464.56,650.119 "/>
<polyline clip-path="url(#clip540)" style="stroke:#000000; stroke-linecap:round; stroke-linejoin:round; stroke-width:4; stroke-opacity:1; fill:none" points="1445.66,584.853 1464.56,584.853 "/>
<path clip-path="url(#clip540)" d="M1352.49 831.717 Q1348.88 831.717 1347.05 835.282 Q1345.24 838.824 1345.24 845.953 Q1345.24 853.06 1347.05 856.625 Q1348.88 860.166 1352.49 860.166 Q1356.12 860.166 1357.93 856.625 Q1359.76 853.06 1359.76 845.953 Q1359.76 838.824 1357.93 835.282 Q1356.12 831.717 1352.49 831.717 M1352.49 828.014 Q1358.3 828.014 1361.35 832.62 Q1364.43 837.203 1364.43 845.953 Q1364.43 854.68 1361.35 859.287 Q1358.3 863.87 1352.49 863.87 Q1346.68 863.87 1343.6 859.287 Q1340.54 854.68 1340.54 845.953 Q1340.54 837.203 1343.6 832.62 Q1346.68 828.014 1352.49 828.014 Z" fill="#000000" fill-rule="nonzero" fill-opacity="1" /><path clip-path="url(#clip540)" d="M1372.65 857.319 L1377.54 857.319 L1377.54 863.199 L1372.65 863.199 L1372.65 857.319 Z" fill="#000000" fill-rule="nonzero" fill-opacity="1" /><path clip-path="url(#clip540)" d="M1397.72 831.717 Q1394.11 831.717 1392.28 835.282 Q1390.48 838.824 1390.48 845.953 Q1390.48 853.06 1392.28 856.625 Q1394.11 860.166 1397.72 860.166 Q1401.35 860.166 1403.16 856.625 Q1404.99 853.06 1404.99 845.953 Q1404.99 838.824 1403.16 835.282 Q1401.35 831.717 1397.72 831.717 M1397.72 828.014 Q1403.53 828.014 1406.59 832.62 Q1409.66 837.203 1409.66 845.953 Q1409.66 854.68 1406.59 859.287 Q1403.53 863.87 1397.72 863.87 Q1391.91 863.87 1388.83 859.287 Q1385.78 854.68 1385.78 845.953 Q1385.78 837.203 1388.83 832.62 Q1391.91 828.014 1397.72 828.014 Z" fill="#000000" fill-rule="nonzero" fill-opacity="1" /><path clip-path="url(#clip540)" d="M1353.14 766.451 Q1349.53 766.451 1347.7 770.016 Q1345.89 773.557 1345.89 780.687 Q1345.89 787.793 1347.7 791.358 Q1349.53 794.9 1353.14 794.9 Q1356.77 794.9 1358.58 791.358 Q1360.41 787.793 1360.41 780.687 Q1360.41 773.557 1358.58 770.016 Q1356.77 766.451 1353.14 766.451 M1353.14 762.747 Q1358.95 762.747 1362 767.354 Q1365.08 771.937 1365.08 780.687 Q1365.08 789.414 1362 794.02 Q1358.95 798.603 1353.14 798.603 Q1347.33 798.603 1344.25 794.02 Q1341.19 789.414 1341.19 780.687 Q1341.19 771.937 1344.25 767.354 Q1347.33 762.747 1353.14 762.747 Z" fill="#000000" fill-rule="nonzero" fill-opacity="1" /><path clip-path="url(#clip540)" d="M1373.3 792.053 L1378.18 792.053 L1378.18 797.932 L1373.3 797.932 L1373.3 792.053 Z" fill="#000000" fill-rule="nonzero" fill-opacity="1" /><path clip-path="url(#clip540)" d="M1402.54 779.298 Q1405.89 780.016 1407.77 782.284 Q1409.66 784.553 1409.66 787.886 Q1409.66 793.002 1406.15 795.803 Q1402.63 798.603 1396.15 798.603 Q1393.97 798.603 1391.66 798.164 Q1389.36 797.747 1386.91 796.89 L1386.91 792.377 Q1388.85 793.511 1391.17 794.09 Q1393.48 794.668 1396.01 794.668 Q1400.41 794.668 1402.7 792.932 Q1405.01 791.196 1405.01 787.886 Q1405.01 784.83 1402.86 783.117 Q1400.73 781.381 1396.91 781.381 L1392.88 781.381 L1392.88 777.539 L1397.1 777.539 Q1400.54 777.539 1402.37 776.173 Q1404.2 774.784 1404.2 772.192 Q1404.2 769.53 1402.3 768.117 Q1400.43 766.682 1396.91 766.682 Q1394.99 766.682 1392.79 767.099 Q1390.59 767.516 1387.95 768.395 L1387.95 764.229 Q1390.61 763.488 1392.93 763.118 Q1395.27 762.747 1397.33 762.747 Q1402.65 762.747 1405.75 765.178 Q1408.85 767.585 1408.85 771.705 Q1408.85 774.576 1407.21 776.567 Q1405.57 778.534 1402.54 779.298 Z" fill="#000000" fill-rule="nonzero" fill-opacity="1" /><path clip-path="url(#clip540)" d="M1352.33 701.184 Q1348.72 701.184 1346.89 704.749 Q1345.08 708.291 1345.08 715.42 Q1345.08 722.527 1346.89 726.092 Q1348.72 729.633 1352.33 729.633 Q1355.96 729.633 1357.77 726.092 Q1359.6 722.527 1359.6 715.42 Q1359.6 708.291 1357.77 704.749 Q1355.96 701.184 1352.33 701.184 M1352.33 697.481 Q1358.14 697.481 1361.19 702.087 Q1364.27 706.67 1364.27 715.42 Q1364.27 724.147 1361.19 728.754 Q1358.14 733.337 1352.33 733.337 Q1346.52 733.337 1343.44 728.754 Q1340.38 724.147 1340.38 715.42 Q1340.38 706.67 1343.44 702.087 Q1346.52 697.481 1352.33 697.481 Z" fill="#000000" fill-rule="nonzero" fill-opacity="1" /><path clip-path="url(#clip540)" d="M1372.49 726.786 L1377.37 726.786 L1377.37 732.666 L1372.49 732.666 L1372.49 726.786 Z" fill="#000000" fill-rule="nonzero" fill-opacity="1" /><path clip-path="url(#clip540)" d="M1398.14 713.522 Q1394.99 713.522 1393.14 715.675 Q1391.31 717.828 1391.31 721.578 Q1391.31 725.305 1393.14 727.48 Q1394.99 729.633 1398.14 729.633 Q1401.29 729.633 1403.11 727.48 Q1404.97 725.305 1404.97 721.578 Q1404.97 717.828 1403.11 715.675 Q1401.29 713.522 1398.14 713.522 M1407.42 698.87 L1407.42 703.129 Q1405.66 702.295 1403.85 701.856 Q1402.07 701.416 1400.31 701.416 Q1395.68 701.416 1393.23 704.541 Q1390.8 707.666 1390.45 713.985 Q1391.82 711.971 1393.88 710.906 Q1395.94 709.819 1398.41 709.819 Q1403.62 709.819 1406.63 712.99 Q1409.66 716.138 1409.66 721.578 Q1409.66 726.902 1406.52 730.119 Q1403.37 733.337 1398.14 733.337 Q1392.14 733.337 1388.97 728.754 Q1385.8 724.147 1385.8 715.42 Q1385.8 707.226 1389.69 702.365 Q1393.58 697.481 1400.13 697.481 Q1401.89 697.481 1403.67 697.828 Q1405.47 698.175 1407.42 698.87 Z" fill="#000000" fill-rule="nonzero" fill-opacity="1" /><path clip-path="url(#clip540)" d="M1352.67 635.918 Q1349.06 635.918 1347.23 639.483 Q1345.43 643.024 1345.43 650.154 Q1345.43 657.26 1347.23 660.825 Q1349.06 664.367 1352.67 664.367 Q1356.31 664.367 1358.11 660.825 Q1359.94 657.26 1359.94 650.154 Q1359.94 643.024 1358.11 639.483 Q1356.31 635.918 1352.67 635.918 M1352.67 632.214 Q1358.48 632.214 1361.54 636.821 Q1364.62 641.404 1364.62 650.154 Q1364.62 658.881 1361.54 663.487 Q1358.48 668.07 1352.67 668.07 Q1346.86 668.07 1343.79 663.487 Q1340.73 658.881 1340.73 650.154 Q1340.73 641.404 1343.79 636.821 Q1346.86 632.214 1352.67 632.214 Z" fill="#000000" fill-rule="nonzero" fill-opacity="1" /><path clip-path="url(#clip540)" d="M1372.84 661.52 L1377.72 661.52 L1377.72 667.399 L1372.84 667.399 L1372.84 661.52 Z" fill="#000000" fill-rule="nonzero" fill-opacity="1" /><path clip-path="url(#clip540)" d="M1388.04 666.682 L1388.04 662.422 Q1389.8 663.256 1391.61 663.695 Q1393.41 664.135 1395.15 664.135 Q1399.78 664.135 1402.21 661.033 Q1404.66 657.908 1405.01 651.566 Q1403.67 653.557 1401.61 654.621 Q1399.55 655.686 1397.05 655.686 Q1391.86 655.686 1388.83 652.561 Q1385.82 649.413 1385.82 643.973 Q1385.82 638.649 1388.97 635.432 Q1392.12 632.214 1397.35 632.214 Q1403.35 632.214 1406.49 636.821 Q1409.66 641.404 1409.66 650.154 Q1409.66 658.325 1405.78 663.209 Q1401.91 668.07 1395.36 668.07 Q1393.6 668.07 1391.79 667.723 Q1389.99 667.376 1388.04 666.682 M1397.35 652.029 Q1400.5 652.029 1402.33 649.876 Q1404.18 647.723 1404.18 643.973 Q1404.18 640.247 1402.33 638.094 Q1400.5 635.918 1397.35 635.918 Q1394.2 635.918 1392.35 638.094 Q1390.52 640.247 1390.52 643.973 Q1390.52 647.723 1392.35 649.876 Q1394.2 652.029 1397.35 652.029 Z" fill="#000000" fill-rule="nonzero" fill-opacity="1" /><path clip-path="url(#clip540)" d="M1344.9 598.197 L1352.54 598.197 L1352.54 571.832 L1344.23 573.499 L1344.23 569.239 L1352.49 567.573 L1357.17 567.573 L1357.17 598.197 L1364.8 598.197 L1364.8 602.133 L1344.9 602.133 L1344.9 598.197 Z" fill="#000000" fill-rule="nonzero" fill-opacity="1" /><path clip-path="url(#clip540)" d="M1374.25 596.253 L1379.13 596.253 L1379.13 602.133 L1374.25 602.133 L1374.25 596.253 Z" fill="#000000" fill-rule="nonzero" fill-opacity="1" /><path clip-path="url(#clip540)" d="M1393.35 598.197 L1409.66 598.197 L1409.66 602.133 L1387.72 602.133 L1387.72 598.197 Q1390.38 595.443 1394.97 590.813 Q1399.57 586.161 1400.75 584.818 Q1403 582.295 1403.88 580.559 Q1404.78 578.799 1404.78 577.11 Q1404.78 574.355 1402.84 572.619 Q1400.91 570.883 1397.81 570.883 Q1395.61 570.883 1393.16 571.647 Q1390.73 572.411 1387.95 573.962 L1387.95 569.239 Q1390.78 568.105 1393.23 567.526 Q1395.68 566.948 1397.72 566.948 Q1403.09 566.948 1406.29 569.633 Q1409.48 572.318 1409.48 576.809 Q1409.48 578.938 1408.67 580.86 Q1407.88 582.758 1405.78 585.35 Q1405.2 586.022 1402.1 589.239 Q1398.99 592.434 1393.35 598.197 Z" fill="#000000" fill-rule="nonzero" fill-opacity="1" /><path clip-path="url(#clip540)" d="M1256 734.795 Q1257.81 734.795 1258.84 735.922 Q1259.84 737.049 1259.84 738.338 Q1259.84 739.561 1259.13 740.206 Q1258.42 740.85 1257.52 740.85 Q1256.29 740.85 1255.23 739.948 Q1254.17 739.046 1253.94 737.693 Q1253.11 739.014 1253.11 740.978 Q1253.11 742.267 1253.78 743.394 Q1254.46 744.489 1255.33 745.165 Q1256.2 745.809 1257.45 746.389 Q1258.68 746.937 1259.42 747.162 Q1260.13 747.355 1260.9 747.516 L1269.92 749.771 Q1274.2 750.866 1275.71 750.866 Q1277.58 750.866 1278.84 749.964 Q1280.06 749.062 1280.06 747.259 Q1280.06 746.55 1279.87 745.745 Q1279.64 744.94 1279.06 743.909 Q1278.45 742.846 1277.55 741.912 Q1276.62 740.946 1275.04 740.012 Q1273.46 739.078 1271.43 738.466 Q1270.72 738.273 1270.72 737.629 Q1270.72 736.824 1271.37 736.824 Q1271.91 736.824 1273.07 737.275 Q1274.2 737.693 1275.68 738.627 Q1277.13 739.529 1278.45 740.721 Q1279.74 741.912 1280.64 743.684 Q1281.54 745.455 1281.54 747.387 Q1281.54 750.157 1280.06 751.993 Q1278.58 753.829 1276.52 754.505 Q1276.81 754.666 1277.2 754.891 Q1277.58 755.117 1278.45 755.793 Q1279.29 756.437 1279.93 757.178 Q1280.55 757.919 1281.03 759.078 Q1281.54 760.205 1281.54 761.429 Q1281.54 762.975 1281.09 764.36 Q1280.64 765.713 1279.61 766.679 Q1278.58 767.645 1277.16 767.645 Q1275.59 767.645 1274.49 766.582 Q1273.36 765.487 1273.36 764.006 Q1273.36 763.072 1273.91 762.331 Q1274.46 761.558 1275.65 761.558 Q1276.97 761.558 1277.97 762.46 Q1278.97 763.362 1279.22 764.65 Q1280.06 763.329 1280.06 761.365 Q1280.06 759.239 1278.19 757.565 Q1276.33 755.89 1273.2 755.085 Q1265.7 753.088 1262.35 752.315 Q1258.97 751.542 1257.52 751.542 Q1256.17 751.542 1255.23 751.896 Q1254.3 752.251 1253.88 752.862 Q1253.43 753.442 1253.27 753.99 Q1253.11 754.505 1253.11 755.085 Q1253.11 756.051 1253.49 757.146 Q1253.88 758.209 1254.78 759.497 Q1255.65 760.753 1257.45 761.944 Q1259.26 763.136 1261.74 763.941 Q1262.48 764.102 1262.48 764.811 Q1262.45 765.584 1261.8 765.584 Q1261.25 765.584 1260.13 765.165 Q1258.97 764.714 1257.52 763.812 Q1256.07 762.878 1254.78 761.687 Q1253.46 760.463 1252.56 758.692 Q1251.66 756.888 1251.66 754.956 Q1251.66 754.086 1251.85 753.249 Q1252.01 752.379 1252.49 751.349 Q1252.98 750.286 1254.04 749.352 Q1255.1 748.418 1256.65 747.838 Q1255.91 747.452 1255.2 746.937 Q1254.49 746.389 1253.62 745.552 Q1252.72 744.682 1252.2 743.491 Q1251.66 742.267 1251.66 740.914 Q1251.66 739.594 1252.01 738.305 Q1252.33 737.017 1253.4 735.922 Q1254.43 734.795 1256 734.795 Z" fill="#000000" fill-rule="nonzero" fill-opacity="1" /><path clip-path="url(#clip540)" d="M1299.81 728.074 Q1298.98 728.074 1298.73 728.006 Q1298.48 727.916 1298.1 727.555 L1288.23 718.695 Q1282.77 713.848 1278.01 713.848 Q1274.92 713.848 1272.72 715.472 Q1270.51 717.072 1270.51 720.025 Q1270.51 722.054 1271.75 723.768 Q1272.99 725.481 1275.2 726.27 Q1275.15 726.135 1275.15 725.661 Q1275.15 724.512 1275.87 723.88 Q1276.59 723.227 1277.56 723.227 Q1278.8 723.227 1279.41 724.038 Q1280 724.827 1280 725.616 Q1280 725.932 1279.93 726.36 Q1279.86 726.766 1279.23 727.42 Q1278.58 728.074 1277.43 728.074 Q1274.2 728.074 1271.63 725.639 Q1269.06 723.182 1269.06 719.439 Q1269.06 715.201 1271.59 712.428 Q1274.09 709.633 1278.01 709.633 Q1279.39 709.633 1280.65 710.061 Q1281.89 710.467 1282.86 711.03 Q1283.83 711.571 1285.39 713.059 Q1286.94 714.547 1288.05 715.742 Q1289.15 716.937 1291.49 719.62 L1296.25 724.512 L1296.25 716.193 Q1296.25 712.135 1295.89 711.819 Q1295.24 711.369 1291.79 710.805 L1291.79 709.633 L1299.81 710.94 L1299.81 728.074 Z" fill="#000000" fill-rule="nonzero" fill-opacity="1" /><polyline clip-path="url(#clip544)" style="stroke:#009af9; stroke-linecap:round; stroke-linejoin:round; stroke-width:4; stroke-opacity:1; fill:none" points="1471.34,845.919 1496.51,674.631 1521.68,602.993 1546.84,604.892 1572.01,650.095 1597.18,712.259 1622.35,772.992 1647.52,822.122 1672.69,855.892 1697.86,874.723 1723.03,881.34 1748.2,879.4 1773.37,872.551 1798.53,863.854 1823.7,855.505 1848.87,848.793 1874.04,844.226 1899.21,841.746 1924.38,840.959 1949.55,841.334 1974.72,842.348 1999.89,843.576 2025.06,844.722 2050.22,845.623 2075.39,846.22 2100.56,846.53 2125.73,846.614 2150.9,846.546 2176.07,846.397 2201.24,846.224 2226.41,846.067 2251.58,845.947 2276.75,845.869 2301.91,845.83 2327.08,845.822 "/>
<polyline clip-path="url(#clip544)" style="stroke:#e26f46; stroke-linecap:round; stroke-linejoin:round; stroke-width:3; stroke-opacity:1; fill:none" stroke-dasharray="12, 6, 2, 6" points="1471.34,845.919 1496.51,673.935 1521.68,675.704 1546.84,569.435 1572.01,620.07 1597.18,704.837 1622.35,785.699 1647.52,827.038 1672.69,879.959 1697.86,900.989 1723.03,897.815 1748.2,889.71 1773.37,887.619 1798.53,876.855 1823.7,857.581 1848.87,854.715 1874.04,843.681 1899.21,837.379 1924.38,839.148 1949.55,841.009 1974.72,837.928 1999.89,845.665 2025.06,842.576 2050.22,849.876 2075.39,843.867 2100.56,843.384 2125.73,840.416 2150.9,852.682 2176.07,842.898 2201.24,854.798 2226.41,843.888 2251.58,844.072 2276.75,847.88 2301.91,841.09 2327.08,835.584 "/>
<path clip-path="url(#clip540)" d="M2202.98 726.723 L2322.52 726.723 L2322.52 571.203 L2202.98 571.203  Z" fill="#ffffff" fill-rule="evenodd" fill-opacity="1"/>
<polyline clip-path="url(#clip540)" style="stroke:#000000; stroke-linecap:round; stroke-linejoin:round; stroke-width:4; stroke-opacity:1; fill:none" points="2202.98,726.723 2322.52,726.723 2322.52,571.203 2202.98,571.203 2202.98,726.723 "/>
<polyline clip-path="url(#clip540)" style="stroke:#009af9; stroke-linecap:round; stroke-linejoin:round; stroke-width:4; stroke-opacity:1; fill:none" points="2213.06,623.043 2273.53,623.043 "/>
<path clip-path="url(#clip540)" d="M2310.62 633.582 L2305.35 633.442 L2299.59 633.582 L2299.59 631.334 L2301.46 631.334 L2296.19 625.103 L2291.53 630.326 L2291.2 630.795 Q2291.2 631.006 2291.74 631.17 Q2292.3 631.334 2292.96 631.334 L2292.96 633.582 L2288.01 633.442 L2283.61 633.582 L2283.61 631.334 Q2285.09 631.334 2285.77 631.31 Q2286.47 631.263 2287.27 631.052 Q2288.06 630.842 2288.46 630.42 L2294.74 623.37 L2287.27 614.54 L2283.85 614.54 L2283.85 612.291 L2289.14 612.432 L2294.92 612.291 L2294.92 614.54 L2293 614.54 L2297.71 620.044 L2301.74 615.547 Q2301.76 615.523 2302.14 614.961 Q2301.39 614.54 2300.31 614.54 L2300.31 612.291 L2305.25 612.432 L2309.66 612.291 L2309.66 614.54 Q2307.74 614.54 2306.73 614.68 Q2305.75 614.797 2305.44 614.961 Q2305.16 615.125 2304.76 615.547 L2299.16 621.777 L2307.22 631.334 L2310.62 631.334 L2310.62 633.582 Z" fill="#000000" fill-rule="nonzero" fill-opacity="1" /><polyline clip-path="url(#clip540)" style="stroke:#e26f46; stroke-linecap:round; stroke-linejoin:round; stroke-width:3; stroke-opacity:1; fill:none" stroke-dasharray="12, 6, 2, 6" points="2213.06,674.883 2273.53,674.883 "/>
<path clip-path="url(#clip540)" d="M2306.2 663.361 L2305.79 664.033 Q2303.25 662.935 2300.08 661.18 Q2296.92 662.935 2294.38 664.033 L2293.98 663.361 Q2296.75 660.951 2300.08 659.098 Q2303.44 660.967 2306.2 663.361 Z" fill="#000000" fill-rule="nonzero" fill-opacity="1" /><path clip-path="url(#clip540)" d="M2310.62 690.427 L2305.35 690.286 L2299.59 690.427 L2299.59 688.178 L2301.46 688.178 L2296.19 681.948 L2291.53 687.171 L2291.2 687.639 Q2291.2 687.85 2291.74 688.014 Q2292.3 688.178 2292.96 688.178 L2292.96 690.427 L2288.01 690.286 L2283.61 690.427 L2283.61 688.178 Q2285.09 688.178 2285.77 688.155 Q2286.47 688.108 2287.27 687.897 Q2288.06 687.686 2288.46 687.265 L2294.74 680.214 L2287.27 671.384 L2283.85 671.384 L2283.85 669.136 L2289.14 669.276 L2294.92 669.136 L2294.92 671.384 L2293 671.384 L2297.71 676.888 L2301.74 672.391 Q2301.76 672.368 2302.14 671.806 Q2301.39 671.384 2300.31 671.384 L2300.31 669.136 L2305.25 669.276 L2309.66 669.136 L2309.66 671.384 Q2307.74 671.384 2306.73 671.525 Q2305.75 671.642 2305.44 671.806 Q2305.16 671.97 2304.76 672.391 L2299.16 678.622 L2307.22 688.178 L2310.62 688.178 L2310.62 690.427 Z" fill="#000000" fill-rule="nonzero" fill-opacity="1" /><path clip-path="url(#clip540)" d="M1445.66 1423.18 L2352.76 1423.18 L2352.76 1071.73 L1445.66 1071.73  Z" fill="#ffffff" fill-rule="evenodd" fill-opacity="1"/>
<defs>
  <clipPath id="clip545">
    <rect x="1445" y="1071" width="908" height="352"/>
  </clipPath>
</defs>
<polyline clip-path="url(#clip545)" style="stroke:#000000; stroke-linecap:round; stroke-linejoin:round; stroke-width:2; stroke-opacity:0.1; fill:none" points="1471.34,1423.18 1471.34,1071.73 "/>
<polyline clip-path="url(#clip545)" style="stroke:#000000; stroke-linecap:round; stroke-linejoin:round; stroke-width:2; stroke-opacity:0.1; fill:none" points="1723.03,1423.18 1723.03,1071.73 "/>
<polyline clip-path="url(#clip545)" style="stroke:#000000; stroke-linecap:round; stroke-linejoin:round; stroke-width:2; stroke-opacity:0.1; fill:none" points="1974.72,1423.18 1974.72,1071.73 "/>
<polyline clip-path="url(#clip545)" style="stroke:#000000; stroke-linecap:round; stroke-linejoin:round; stroke-width:2; stroke-opacity:0.1; fill:none" points="2226.41,1423.18 2226.41,1071.73 "/>
<polyline clip-path="url(#clip540)" style="stroke:#000000; stroke-linecap:round; stroke-linejoin:round; stroke-width:4; stroke-opacity:1; fill:none" points="1445.66,1423.18 2352.76,1423.18 "/>
<polyline clip-path="url(#clip540)" style="stroke:#000000; stroke-linecap:round; stroke-linejoin:round; stroke-width:4; stroke-opacity:1; fill:none" points="1471.34,1423.18 1471.34,1404.28 "/>
<polyline clip-path="url(#clip540)" style="stroke:#000000; stroke-linecap:round; stroke-linejoin:round; stroke-width:4; stroke-opacity:1; fill:none" points="1723.03,1423.18 1723.03,1404.28 "/>
<polyline clip-path="url(#clip540)" style="stroke:#000000; stroke-linecap:round; stroke-linejoin:round; stroke-width:4; stroke-opacity:1; fill:none" points="1974.72,1423.18 1974.72,1404.28 "/>
<polyline clip-path="url(#clip540)" style="stroke:#000000; stroke-linecap:round; stroke-linejoin:round; stroke-width:4; stroke-opacity:1; fill:none" points="2226.41,1423.18 2226.41,1404.28 "/>
<path clip-path="url(#clip540)" d="M1471.34 1454.1 Q1467.73 1454.1 1465.9 1457.66 Q1464.09 1461.2 1464.09 1468.33 Q1464.09 1475.44 1465.9 1479.01 Q1467.73 1482.55 1471.34 1482.55 Q1474.97 1482.55 1476.78 1479.01 Q1478.61 1475.44 1478.61 1468.33 Q1478.61 1461.2 1476.78 1457.66 Q1474.97 1454.1 1471.34 1454.1 M1471.34 1450.39 Q1477.15 1450.39 1480.2 1455 Q1483.28 1459.58 1483.28 1468.33 Q1483.28 1477.06 1480.2 1481.67 Q1477.15 1486.25 1471.34 1486.25 Q1465.53 1486.25 1462.45 1481.67 Q1459.39 1477.06 1459.39 1468.33 Q1459.39 1459.58 1462.45 1455 Q1465.53 1450.39 1471.34 1450.39 Z" fill="#000000" fill-rule="nonzero" fill-opacity="1" /><path clip-path="url(#clip540)" d="M1713.41 1481.64 L1721.05 1481.64 L1721.05 1455.28 L1712.74 1456.95 L1712.74 1452.69 L1721 1451.02 L1725.68 1451.02 L1725.68 1481.64 L1733.32 1481.64 L1733.32 1485.58 L1713.41 1485.58 L1713.41 1481.64 Z" fill="#000000" fill-rule="nonzero" fill-opacity="1" /><path clip-path="url(#clip540)" d="M1969.37 1481.64 L1985.69 1481.64 L1985.69 1485.58 L1963.75 1485.58 L1963.75 1481.64 Q1966.41 1478.89 1970.99 1474.26 Q1975.6 1469.61 1976.78 1468.27 Q1979.02 1465.74 1979.9 1464.01 Q1980.81 1462.25 1980.81 1460.56 Q1980.81 1457.8 1978.86 1456.07 Q1976.94 1454.33 1973.84 1454.33 Q1971.64 1454.33 1969.18 1455.09 Q1966.75 1455.86 1963.98 1457.41 L1963.98 1452.69 Q1966.8 1451.55 1969.25 1450.97 Q1971.71 1450.39 1973.75 1450.39 Q1979.12 1450.39 1982.31 1453.08 Q1985.5 1455.77 1985.5 1460.26 Q1985.5 1462.39 1984.69 1464.31 Q1983.91 1466.2 1981.8 1468.8 Q1981.22 1469.47 1978.12 1472.69 Q1975.02 1475.88 1969.37 1481.64 Z" fill="#000000" fill-rule="nonzero" fill-opacity="1" /><path clip-path="url(#clip540)" d="M2230.66 1466.95 Q2234.01 1467.66 2235.89 1469.93 Q2237.78 1472.2 2237.78 1475.53 Q2237.78 1480.65 2234.27 1483.45 Q2230.75 1486.25 2224.27 1486.25 Q2222.09 1486.25 2219.78 1485.81 Q2217.48 1485.39 2215.03 1484.54 L2215.03 1480.02 Q2216.97 1481.16 2219.29 1481.74 Q2221.6 1482.32 2224.13 1482.32 Q2228.53 1482.32 2230.82 1480.58 Q2233.13 1478.84 2233.13 1475.53 Q2233.13 1472.48 2230.98 1470.77 Q2228.85 1469.03 2225.03 1469.03 L2221 1469.03 L2221 1465.19 L2225.22 1465.19 Q2228.66 1465.19 2230.49 1463.82 Q2232.32 1462.43 2232.32 1459.84 Q2232.32 1457.18 2230.42 1455.77 Q2228.55 1454.33 2225.03 1454.33 Q2223.11 1454.33 2220.91 1454.75 Q2218.71 1455.16 2216.07 1456.04 L2216.07 1451.88 Q2218.73 1451.14 2221.05 1450.77 Q2223.39 1450.39 2225.45 1450.39 Q2230.77 1450.39 2233.87 1452.83 Q2236.97 1455.23 2236.97 1459.35 Q2236.97 1462.22 2235.33 1464.21 Q2233.69 1466.18 2230.66 1466.95 Z" fill="#000000" fill-rule="nonzero" fill-opacity="1" /><path clip-path="url(#clip540)" d="M1769.38 1520.52 L1809.58 1520.52 L1809.58 1525.93 L1792.71 1525.93 L1792.71 1568.04 L1786.25 1568.04 L1786.25 1525.93 L1769.38 1525.93 L1769.38 1520.52 Z" fill="#000000" fill-rule="nonzero" fill-opacity="1" /><path clip-path="url(#clip540)" d="M1813.53 1532.4 L1819.38 1532.4 L1819.38 1568.04 L1813.53 1568.04 L1813.53 1532.4 M1813.53 1518.52 L1819.38 1518.52 L1819.38 1525.93 L1813.53 1525.93 L1813.53 1518.52 Z" fill="#000000" fill-rule="nonzero" fill-opacity="1" /><path clip-path="url(#clip540)" d="M1859.39 1539.24 Q1861.59 1535.29 1864.64 1533.41 Q1867.7 1531.54 1871.84 1531.54 Q1877.41 1531.54 1880.43 1535.45 Q1883.46 1539.33 1883.46 1546.53 L1883.46 1568.04 L1877.57 1568.04 L1877.57 1546.72 Q1877.57 1541.59 1875.75 1539.11 Q1873.94 1536.63 1870.21 1536.63 Q1865.66 1536.63 1863.02 1539.65 Q1860.38 1542.68 1860.38 1547.9 L1860.38 1568.04 L1854.49 1568.04 L1854.49 1546.72 Q1854.49 1541.56 1852.68 1539.11 Q1850.86 1536.63 1847.08 1536.63 Q1842.59 1536.63 1839.95 1539.68 Q1837.3 1542.71 1837.3 1547.9 L1837.3 1568.04 L1831.42 1568.04 L1831.42 1532.4 L1837.3 1532.4 L1837.3 1537.93 Q1839.31 1534.66 1842.11 1533.1 Q1844.91 1531.54 1848.76 1531.54 Q1852.65 1531.54 1855.35 1533.51 Q1858.09 1535.48 1859.39 1539.24 Z" fill="#000000" fill-rule="nonzero" fill-opacity="1" /><path clip-path="url(#clip540)" d="M1925.63 1548.76 L1925.63 1551.62 L1898.7 1551.62 Q1899.08 1557.67 1902.33 1560.85 Q1905.61 1564 1911.43 1564 Q1914.81 1564 1917.96 1563.17 Q1921.14 1562.35 1924.26 1560.69 L1924.26 1566.23 Q1921.11 1567.57 1917.8 1568.27 Q1914.49 1568.97 1911.08 1568.97 Q1902.55 1568.97 1897.56 1564 Q1892.59 1559.04 1892.59 1550.57 Q1892.59 1541.82 1897.3 1536.69 Q1902.04 1531.54 1910.06 1531.54 Q1917.26 1531.54 1921.43 1536.18 Q1925.63 1540.8 1925.63 1548.76 M1919.77 1547.04 Q1919.71 1542.23 1917.07 1539.37 Q1914.46 1536.5 1910.13 1536.5 Q1905.23 1536.5 1902.27 1539.27 Q1899.34 1542.04 1898.89 1547.07 L1919.77 1547.04 Z" fill="#000000" fill-rule="nonzero" fill-opacity="1" /><path clip-path="url(#clip540)" d="M1970.03 1518.58 Q1965.76 1525.9 1963.69 1533.06 Q1961.63 1540.23 1961.63 1547.58 Q1961.63 1554.93 1963.69 1562.16 Q1965.8 1569.35 1970.03 1576.64 L1964.94 1576.64 Q1960.16 1569.16 1957.77 1561.93 Q1955.42 1554.71 1955.42 1547.58 Q1955.42 1540.48 1957.77 1533.29 Q1960.13 1526.09 1964.94 1518.58 L1970.03 1518.58 Z" fill="#000000" fill-rule="nonzero" fill-opacity="1" /><path clip-path="url(#clip540)" d="M2004.12 1533.45 L2004.12 1538.98 Q2001.63 1537.71 1998.96 1537.07 Q1996.29 1536.44 1993.42 1536.44 Q1989.06 1536.44 1986.87 1537.77 Q1984.7 1539.11 1984.7 1541.79 Q1984.7 1543.82 1986.26 1545 Q1987.82 1546.15 1992.53 1547.2 L1994.54 1547.64 Q2000.78 1548.98 2003.39 1551.43 Q2006.03 1553.85 2006.03 1558.21 Q2006.03 1563.17 2002.08 1566.07 Q1998.17 1568.97 1991.29 1568.97 Q1988.43 1568.97 1985.31 1568.39 Q1982.22 1567.85 1978.78 1566.74 L1978.78 1560.69 Q1982.03 1562.38 1985.18 1563.24 Q1988.33 1564.07 1991.42 1564.07 Q1995.56 1564.07 1997.78 1562.66 Q2000.01 1561.23 2000.01 1558.65 Q2000.01 1556.27 1998.39 1554.99 Q1996.8 1553.72 1991.35 1552.54 L1989.32 1552.07 Q1983.87 1550.92 1981.46 1548.56 Q1979.04 1546.18 1979.04 1542.04 Q1979.04 1537.01 1982.6 1534.27 Q1986.17 1531.54 1992.72 1531.54 Q1995.97 1531.54 1998.83 1532.01 Q2001.7 1532.49 2004.12 1533.45 Z" fill="#000000" fill-rule="nonzero" fill-opacity="1" /><path clip-path="url(#clip540)" d="M2014.43 1518.58 L2019.52 1518.58 Q2024.3 1526.09 2026.65 1533.29 Q2029.04 1540.48 2029.04 1547.58 Q2029.04 1554.71 2026.65 1561.93 Q2024.3 1569.16 2019.52 1576.64 L2014.43 1576.64 Q2018.66 1569.35 2020.73 1562.16 Q2022.83 1554.93 2022.83 1547.58 Q2022.83 1540.23 2020.73 1533.06 Q2018.66 1525.9 2014.43 1518.58 Z" fill="#000000" fill-rule="nonzero" fill-opacity="1" /><polyline clip-path="url(#clip545)" style="stroke:#000000; stroke-linecap:round; stroke-linejoin:round; stroke-width:2; stroke-opacity:0.1; fill:none" points="1445.66,1377.2 2352.76,1377.2 "/>
<polyline clip-path="url(#clip545)" style="stroke:#000000; stroke-linecap:round; stroke-linejoin:round; stroke-width:2; stroke-opacity:0.1; fill:none" points="1445.66,1287.45 2352.76,1287.45 "/>
<polyline clip-path="url(#clip545)" style="stroke:#000000; stroke-linecap:round; stroke-linejoin:round; stroke-width:2; stroke-opacity:0.1; fill:none" points="1445.66,1197.71 2352.76,1197.71 "/>
<polyline clip-path="url(#clip545)" style="stroke:#000000; stroke-linecap:round; stroke-linejoin:round; stroke-width:2; stroke-opacity:0.1; fill:none" points="1445.66,1107.96 2352.76,1107.96 "/>
<polyline clip-path="url(#clip540)" style="stroke:#000000; stroke-linecap:round; stroke-linejoin:round; stroke-width:4; stroke-opacity:1; fill:none" points="1445.66,1423.18 1445.66,1071.73 "/>
<polyline clip-path="url(#clip540)" style="stroke:#000000; stroke-linecap:round; stroke-linejoin:round; stroke-width:4; stroke-opacity:1; fill:none" points="1445.66,1377.2 1464.56,1377.2 "/>
<polyline clip-path="url(#clip540)" style="stroke:#000000; stroke-linecap:round; stroke-linejoin:round; stroke-width:4; stroke-opacity:1; fill:none" points="1445.66,1287.45 1464.56,1287.45 "/>
<polyline clip-path="url(#clip540)" style="stroke:#000000; stroke-linecap:round; stroke-linejoin:round; stroke-width:4; stroke-opacity:1; fill:none" points="1445.66,1197.71 1464.56,1197.71 "/>
<polyline clip-path="url(#clip540)" style="stroke:#000000; stroke-linecap:round; stroke-linejoin:round; stroke-width:4; stroke-opacity:1; fill:none" points="1445.66,1107.96 1464.56,1107.96 "/>
<path clip-path="url(#clip540)" d="M1273.55 1377.66 L1303.23 1377.66 L1303.23 1381.59 L1273.55 1381.59 L1273.55 1377.66 Z" fill="#000000" fill-rule="nonzero" fill-opacity="1" /><path clip-path="url(#clip540)" d="M1323.32 1363 Q1319.71 1363 1317.88 1366.57 Q1316.08 1370.11 1316.08 1377.24 Q1316.08 1384.35 1317.88 1387.91 Q1319.71 1391.45 1323.32 1391.45 Q1326.96 1391.45 1328.76 1387.91 Q1330.59 1384.35 1330.59 1377.24 Q1330.59 1370.11 1328.76 1366.57 Q1326.96 1363 1323.32 1363 M1323.32 1359.3 Q1329.13 1359.3 1332.19 1363.91 Q1335.27 1368.49 1335.27 1377.24 Q1335.27 1385.97 1332.19 1390.57 Q1329.13 1395.16 1323.32 1395.16 Q1317.51 1395.16 1314.43 1390.57 Q1311.38 1385.97 1311.38 1377.24 Q1311.38 1368.49 1314.43 1363.91 Q1317.51 1359.3 1323.32 1359.3 Z" fill="#000000" fill-rule="nonzero" fill-opacity="1" /><path clip-path="url(#clip540)" d="M1343.48 1388.6 L1348.37 1388.6 L1348.37 1394.48 L1343.48 1394.48 L1343.48 1388.6 Z" fill="#000000" fill-rule="nonzero" fill-opacity="1" /><path clip-path="url(#clip540)" d="M1359.36 1390.55 L1367 1390.55 L1367 1364.18 L1358.69 1365.85 L1358.69 1361.59 L1366.96 1359.92 L1371.63 1359.92 L1371.63 1390.55 L1379.27 1390.55 L1379.27 1394.48 L1359.36 1394.48 L1359.36 1390.55 Z" fill="#000000" fill-rule="nonzero" fill-opacity="1" /><path clip-path="url(#clip540)" d="M1388.76 1359.92 L1407.12 1359.92 L1407.12 1363.86 L1393.04 1363.86 L1393.04 1372.33 Q1394.06 1371.98 1395.08 1371.82 Q1396.1 1371.64 1397.12 1371.64 Q1402.91 1371.64 1406.29 1374.81 Q1409.66 1377.98 1409.66 1383.4 Q1409.66 1388.97 1406.19 1392.08 Q1402.72 1395.16 1396.4 1395.16 Q1394.23 1395.16 1391.96 1394.79 Q1389.71 1394.41 1387.3 1393.67 L1387.3 1388.97 Q1389.39 1390.11 1391.61 1390.66 Q1393.83 1391.22 1396.31 1391.22 Q1400.31 1391.22 1402.65 1389.11 Q1404.99 1387.01 1404.99 1383.4 Q1404.99 1379.79 1402.65 1377.68 Q1400.31 1375.57 1396.31 1375.57 Q1394.43 1375.57 1392.56 1375.99 Q1390.71 1376.41 1388.76 1377.29 L1388.76 1359.92 Z" fill="#000000" fill-rule="nonzero" fill-opacity="1" /><path clip-path="url(#clip540)" d="M1272.56 1287.91 L1302.23 1287.91 L1302.23 1291.84 L1272.56 1291.84 L1272.56 1287.91 Z" fill="#000000" fill-rule="nonzero" fill-opacity="1" /><path clip-path="url(#clip540)" d="M1322.33 1273.25 Q1318.72 1273.25 1316.89 1276.82 Q1315.08 1280.36 1315.08 1287.49 Q1315.08 1294.6 1316.89 1298.16 Q1318.72 1301.7 1322.33 1301.7 Q1325.96 1301.7 1327.77 1298.16 Q1329.6 1294.6 1329.6 1287.49 Q1329.6 1280.36 1327.77 1276.82 Q1325.96 1273.25 1322.33 1273.25 M1322.33 1269.55 Q1328.14 1269.55 1331.19 1274.16 Q1334.27 1278.74 1334.27 1287.49 Q1334.27 1296.22 1331.19 1300.82 Q1328.14 1305.41 1322.33 1305.41 Q1316.52 1305.41 1313.44 1300.82 Q1310.38 1296.22 1310.38 1287.49 Q1310.38 1278.74 1313.44 1274.16 Q1316.52 1269.55 1322.33 1269.55 Z" fill="#000000" fill-rule="nonzero" fill-opacity="1" /><path clip-path="url(#clip540)" d="M1342.49 1298.86 L1347.37 1298.86 L1347.37 1304.73 L1342.49 1304.73 L1342.49 1298.86 Z" fill="#000000" fill-rule="nonzero" fill-opacity="1" /><path clip-path="url(#clip540)" d="M1358.37 1300.8 L1366.01 1300.8 L1366.01 1274.43 L1357.7 1276.1 L1357.7 1271.84 L1365.96 1270.17 L1370.64 1270.17 L1370.64 1300.8 L1378.28 1300.8 L1378.28 1304.73 L1358.37 1304.73 L1358.37 1300.8 Z" fill="#000000" fill-rule="nonzero" fill-opacity="1" /><path clip-path="url(#clip540)" d="M1397.72 1273.25 Q1394.11 1273.25 1392.28 1276.82 Q1390.48 1280.36 1390.48 1287.49 Q1390.48 1294.6 1392.28 1298.16 Q1394.11 1301.7 1397.72 1301.7 Q1401.35 1301.7 1403.16 1298.16 Q1404.99 1294.6 1404.99 1287.49 Q1404.99 1280.36 1403.16 1276.82 Q1401.35 1273.25 1397.72 1273.25 M1397.72 1269.55 Q1403.53 1269.55 1406.59 1274.16 Q1409.66 1278.74 1409.66 1287.49 Q1409.66 1296.22 1406.59 1300.82 Q1403.53 1305.41 1397.72 1305.41 Q1391.91 1305.41 1388.83 1300.82 Q1385.78 1296.22 1385.78 1287.49 Q1385.78 1278.74 1388.83 1274.16 Q1391.91 1269.55 1397.72 1269.55 Z" fill="#000000" fill-rule="nonzero" fill-opacity="1" /><path clip-path="url(#clip540)" d="M1273.55 1198.16 L1303.23 1198.16 L1303.23 1202.09 L1273.55 1202.09 L1273.55 1198.16 Z" fill="#000000" fill-rule="nonzero" fill-opacity="1" /><path clip-path="url(#clip540)" d="M1323.32 1183.5 Q1319.71 1183.5 1317.88 1187.07 Q1316.08 1190.61 1316.08 1197.74 Q1316.08 1204.85 1317.88 1208.41 Q1319.71 1211.95 1323.32 1211.95 Q1326.96 1211.95 1328.76 1208.41 Q1330.59 1204.85 1330.59 1197.74 Q1330.59 1190.61 1328.76 1187.07 Q1326.96 1183.5 1323.32 1183.5 M1323.32 1179.8 Q1329.13 1179.8 1332.19 1184.41 Q1335.27 1188.99 1335.27 1197.74 Q1335.27 1206.47 1332.19 1211.07 Q1329.13 1215.66 1323.32 1215.66 Q1317.51 1215.66 1314.43 1211.07 Q1311.38 1206.47 1311.38 1197.74 Q1311.38 1188.99 1314.43 1184.41 Q1317.51 1179.8 1323.32 1179.8 Z" fill="#000000" fill-rule="nonzero" fill-opacity="1" /><path clip-path="url(#clip540)" d="M1343.48 1209.11 L1348.37 1209.11 L1348.37 1214.99 L1343.48 1214.99 L1343.48 1209.11 Z" fill="#000000" fill-rule="nonzero" fill-opacity="1" /><path clip-path="url(#clip540)" d="M1368.55 1183.5 Q1364.94 1183.5 1363.11 1187.07 Q1361.31 1190.61 1361.31 1197.74 Q1361.31 1204.85 1363.11 1208.41 Q1364.94 1211.95 1368.55 1211.95 Q1372.19 1211.95 1373.99 1208.41 Q1375.82 1204.85 1375.82 1197.74 Q1375.82 1190.61 1373.99 1187.07 Q1372.19 1183.5 1368.55 1183.5 M1368.55 1179.8 Q1374.36 1179.8 1377.42 1184.41 Q1380.5 1188.99 1380.5 1197.74 Q1380.5 1206.47 1377.42 1211.07 Q1374.36 1215.66 1368.55 1215.66 Q1362.74 1215.66 1359.67 1211.07 Q1356.61 1206.47 1356.61 1197.74 Q1356.61 1188.99 1359.67 1184.41 Q1362.74 1179.8 1368.55 1179.8 Z" fill="#000000" fill-rule="nonzero" fill-opacity="1" /><path clip-path="url(#clip540)" d="M1388.76 1180.43 L1407.12 1180.43 L1407.12 1184.36 L1393.04 1184.36 L1393.04 1192.83 Q1394.06 1192.49 1395.08 1192.32 Q1396.1 1192.14 1397.12 1192.14 Q1402.91 1192.14 1406.29 1195.31 Q1409.66 1198.48 1409.66 1203.9 Q1409.66 1209.48 1406.19 1212.58 Q1402.72 1215.66 1396.4 1215.66 Q1394.23 1215.66 1391.96 1215.29 Q1389.71 1214.92 1387.3 1214.17 L1387.3 1209.48 Q1389.39 1210.61 1391.61 1211.17 Q1393.83 1211.72 1396.31 1211.72 Q1400.31 1211.72 1402.65 1209.61 Q1404.99 1207.51 1404.99 1203.9 Q1404.99 1200.29 1402.65 1198.18 Q1400.31 1196.07 1396.31 1196.07 Q1394.43 1196.07 1392.56 1196.49 Q1390.71 1196.91 1388.76 1197.79 L1388.76 1180.43 Z" fill="#000000" fill-rule="nonzero" fill-opacity="1" /><path clip-path="url(#clip540)" d="M1322.33 1093.75 Q1318.72 1093.75 1316.89 1097.32 Q1315.08 1100.86 1315.08 1107.99 Q1315.08 1115.1 1316.89 1118.66 Q1318.72 1122.2 1322.33 1122.2 Q1325.96 1122.2 1327.77 1118.66 Q1329.6 1115.1 1329.6 1107.99 Q1329.6 1100.86 1327.77 1097.32 Q1325.96 1093.75 1322.33 1093.75 M1322.33 1090.05 Q1328.14 1090.05 1331.19 1094.66 Q1334.27 1099.24 1334.27 1107.99 Q1334.27 1116.72 1331.19 1121.32 Q1328.14 1125.91 1322.33 1125.91 Q1316.52 1125.91 1313.44 1121.32 Q1310.38 1116.72 1310.38 1107.99 Q1310.38 1099.24 1313.44 1094.66 Q1316.52 1090.05 1322.33 1090.05 Z" fill="#000000" fill-rule="nonzero" fill-opacity="1" /><path clip-path="url(#clip540)" d="M1342.49 1119.36 L1347.37 1119.36 L1347.37 1125.24 L1342.49 1125.24 L1342.49 1119.36 Z" fill="#000000" fill-rule="nonzero" fill-opacity="1" /><path clip-path="url(#clip540)" d="M1367.56 1093.75 Q1363.95 1093.75 1362.12 1097.32 Q1360.31 1100.86 1360.31 1107.99 Q1360.31 1115.1 1362.12 1118.66 Q1363.95 1122.2 1367.56 1122.2 Q1371.19 1122.2 1373 1118.66 Q1374.83 1115.1 1374.83 1107.99 Q1374.83 1100.86 1373 1097.32 Q1371.19 1093.75 1367.56 1093.75 M1367.56 1090.05 Q1373.37 1090.05 1376.42 1094.66 Q1379.5 1099.24 1379.5 1107.99 Q1379.5 1116.72 1376.42 1121.32 Q1373.37 1125.91 1367.56 1125.91 Q1361.75 1125.91 1358.67 1121.32 Q1355.61 1116.72 1355.61 1107.99 Q1355.61 1099.24 1358.67 1094.66 Q1361.75 1090.05 1367.56 1090.05 Z" fill="#000000" fill-rule="nonzero" fill-opacity="1" /><path clip-path="url(#clip540)" d="M1397.72 1093.75 Q1394.11 1093.75 1392.28 1097.32 Q1390.48 1100.86 1390.48 1107.99 Q1390.48 1115.1 1392.28 1118.66 Q1394.11 1122.2 1397.72 1122.2 Q1401.35 1122.2 1403.16 1118.66 Q1404.99 1115.1 1404.99 1107.99 Q1404.99 1100.86 1403.16 1097.32 Q1401.35 1093.75 1397.72 1093.75 M1397.72 1090.05 Q1403.53 1090.05 1406.59 1094.66 Q1409.66 1099.24 1409.66 1107.99 Q1409.66 1116.72 1406.59 1121.32 Q1403.53 1125.91 1397.72 1125.91 Q1391.91 1125.91 1388.83 1121.32 Q1385.78 1116.72 1385.78 1107.99 Q1385.78 1099.24 1388.83 1094.66 Q1391.91 1090.05 1397.72 1090.05 Z" fill="#000000" fill-rule="nonzero" fill-opacity="1" /><path clip-path="url(#clip540)" d="M1182.26 1250.93 L1183.18 1251.49 Q1181.67 1254.99 1179.26 1259.34 Q1181.67 1263.69 1183.18 1267.19 L1182.26 1267.73 Q1178.94 1263.92 1176.4 1259.34 Q1178.97 1254.72 1182.26 1250.93 Z" fill="#000000" fill-rule="nonzero" fill-opacity="1" /><path clip-path="url(#clip540)" d="M1194.56 1247.77 Q1196.36 1247.77 1197.39 1248.9 Q1198.39 1250.02 1198.39 1251.31 Q1198.39 1252.54 1197.68 1253.18 Q1196.97 1253.82 1196.07 1253.82 Q1194.85 1253.82 1193.78 1252.92 Q1192.72 1252.02 1192.49 1250.67 Q1191.66 1251.99 1191.66 1253.95 Q1191.66 1255.24 1192.33 1256.37 Q1193.01 1257.46 1193.88 1258.14 Q1194.75 1258.78 1196 1259.36 Q1197.23 1259.91 1197.97 1260.14 Q1198.68 1260.33 1199.45 1260.49 L1208.47 1262.74 Q1212.75 1263.84 1214.27 1263.84 Q1216.13 1263.84 1217.39 1262.94 Q1218.61 1262.04 1218.61 1260.23 Q1218.61 1259.52 1218.42 1258.72 Q1218.19 1257.91 1217.61 1256.88 Q1217 1255.82 1216.1 1254.89 Q1215.17 1253.92 1213.59 1252.99 Q1212.01 1252.05 1209.98 1251.44 Q1209.27 1251.25 1209.27 1250.6 Q1209.27 1249.8 1209.92 1249.8 Q1210.46 1249.8 1211.62 1250.25 Q1212.75 1250.67 1214.23 1251.6 Q1215.68 1252.5 1217 1253.69 Q1218.29 1254.89 1219.19 1256.66 Q1220.09 1258.43 1220.09 1260.36 Q1220.09 1263.13 1218.61 1264.97 Q1217.13 1266.8 1215.07 1267.48 Q1215.36 1267.64 1215.75 1267.87 Q1216.13 1268.09 1217 1268.77 Q1217.84 1269.41 1218.48 1270.15 Q1219.1 1270.89 1219.58 1272.05 Q1220.09 1273.18 1220.09 1274.4 Q1220.09 1275.95 1219.64 1277.33 Q1219.19 1278.69 1218.16 1279.65 Q1217.13 1280.62 1215.71 1280.62 Q1214.14 1280.62 1213.04 1279.56 Q1211.91 1278.46 1211.91 1276.98 Q1211.91 1276.05 1212.46 1275.3 Q1213.01 1274.53 1214.2 1274.53 Q1215.52 1274.53 1216.52 1275.43 Q1217.52 1276.34 1217.78 1277.62 Q1218.61 1276.3 1218.61 1274.34 Q1218.61 1272.21 1216.75 1270.54 Q1214.88 1268.86 1211.75 1268.06 Q1204.25 1266.06 1200.9 1265.29 Q1197.52 1264.52 1196.07 1264.52 Q1194.72 1264.52 1193.78 1264.87 Q1192.85 1265.22 1192.43 1265.84 Q1191.98 1266.42 1191.82 1266.96 Q1191.66 1267.48 1191.66 1268.06 Q1191.66 1269.02 1192.04 1270.12 Q1192.43 1271.18 1193.33 1272.47 Q1194.2 1273.73 1196 1274.92 Q1197.81 1276.11 1200.29 1276.92 Q1201.03 1277.08 1201.03 1277.78 Q1201 1278.56 1200.35 1278.56 Q1199.8 1278.56 1198.68 1278.14 Q1197.52 1277.69 1196.07 1276.79 Q1194.62 1275.85 1193.33 1274.66 Q1192.01 1273.44 1191.11 1271.67 Q1190.21 1269.86 1190.21 1267.93 Q1190.21 1267.06 1190.4 1266.22 Q1190.56 1265.35 1191.04 1264.32 Q1191.53 1263.26 1192.59 1262.33 Q1193.65 1261.39 1195.2 1260.81 Q1194.46 1260.43 1193.75 1259.91 Q1193.04 1259.36 1192.17 1258.53 Q1191.27 1257.66 1190.75 1256.46 Q1190.21 1255.24 1190.21 1253.89 Q1190.21 1252.57 1190.56 1251.28 Q1190.88 1249.99 1191.95 1248.9 Q1192.98 1247.77 1194.56 1247.77 Z" fill="#000000" fill-rule="nonzero" fill-opacity="1" /><path clip-path="url(#clip540)" d="M1232.14 1240.31 Q1230.77 1240.31 1230.11 1239.52 Q1229.46 1238.73 1229.46 1237.72 Q1229.46 1236.66 1230.16 1235.91 Q1230.83 1235.15 1232.03 1235.15 Q1233.31 1235.15 1234.04 1236.05 Q1234.76 1236.93 1234.58 1238.19 Q1236.43 1237.09 1237.26 1235.06 Q1238.09 1233.01 1238.09 1231.11 Q1238.09 1229.13 1236.38 1227.53 Q1234.67 1225.9 1230.47 1225.9 Q1226.91 1225.9 1224.86 1227.3 Q1222.81 1228.68 1222.81 1231.4 L1222.81 1233.43 Q1222.81 1234.13 1222.74 1234.34 Q1222.67 1234.54 1222.29 1234.54 Q1221.84 1234.54 1221.75 1233.84 Q1221.75 1233.14 1221.61 1232.04 Q1221.52 1229.35 1219.2 1227.93 Q1217.04 1226.65 1213.95 1226.65 Q1211.13 1226.65 1209.96 1228 Q1208.76 1229.33 1208.76 1231.07 Q1208.76 1232.69 1209.44 1234.47 Q1210.12 1236.25 1211.63 1237.22 Q1211.63 1234.36 1213.95 1234.36 Q1214.96 1234.36 1215.64 1235.01 Q1216.29 1235.64 1216.29 1236.7 Q1216.29 1237.72 1215.66 1238.39 Q1215.01 1239.07 1213.9 1239.07 Q1211.27 1239.07 1209.44 1236.73 Q1207.61 1234.36 1207.61 1230.89 Q1207.61 1227.46 1209.42 1224.93 Q1211.22 1222.39 1213.99 1222.39 Q1216.72 1222.39 1218.95 1224.19 Q1221.19 1225.99 1222.11 1228.86 Q1222.81 1225.34 1225.2 1223.24 Q1227.57 1221.15 1230.47 1221.15 Q1234.08 1221.15 1236.74 1223.99 Q1239.38 1226.83 1239.38 1230.98 Q1239.38 1234.81 1237.31 1237.56 Q1235.23 1240.31 1232.14 1240.31 Z" fill="#000000" fill-rule="nonzero" fill-opacity="1" /><polyline clip-path="url(#clip545)" style="stroke:#e26f46; stroke-linecap:round; stroke-linejoin:round; stroke-width:3; stroke-opacity:1; fill:none" stroke-dasharray="12, 6, 2, 6" points="1471.34,1107.96 1496.51,1107.96 1521.68,1413.23 1546.84,1106.67 1572.01,1115.96 1597.18,1154.17 1622.35,1188.71 1647.52,1143.9 1672.69,1169.79 1697.86,1171.13 1723.03,1142.97 1748.2,1116.25 1773.37,1123.21 1798.53,1125.44 1823.7,1101.67 1848.87,1117.66 1874.04,1109.65 1899.21,1100.83 1924.38,1106.6 1949.55,1112.83 1974.72,1100.25 1999.89,1116.78 2025.06,1106.3 2050.22,1127.6 2075.39,1116.25 2100.56,1112.95 2125.73,1095.33 2150.9,1124.83 2176.07,1098.04 2201.24,1133.62 2226.41,1113.51 2251.58,1113.91 2276.75,1128.57 2301.91,1112.48 2327.08,1081.68 "/>
</svg>
