<?xml version="1.0" encoding="utf-8"?>
<svg xmlns="http://www.w3.org/2000/svg" xmlns:xlink="http://www.w3.org/1999/xlink" width="600" height="400" viewBox="0 0 2400 1600">
<defs>
  <clipPath id="clip360">
    <rect x="0" y="0" width="2400" height="1600"/>
  </clipPath>
</defs>
<path clip-path="url(#clip360)" d="M0 1600 L2400 1600 L2400 0 L0 0  Z" fill="#ffffff" fill-rule="evenodd" fill-opacity="1"/>
<defs>
  <clipPath id="clip361">
    <rect x="480" y="0" width="1681" height="1600"/>
  </clipPath>
</defs>
<path clip-path="url(#clip360)" d="M203.964 1423.18 L1111.38 1423.18 L1111.38 47.2441 L203.964 47.2441  Z" fill="#ffffff" fill-rule="evenodd" fill-opacity="1"/>
<defs>
  <clipPath id="clip362">
    <rect x="203" y="47" width="908" height="1377"/>
  </clipPath>
</defs>
<polyline clip-path="url(#clip362)" style="stroke:#000000; stroke-linecap:round; stroke-linejoin:round; stroke-width:2; stroke-opacity:0.1; fill:none" points="229.645,1423.18 229.645,47.2441 "/>
<polyline clip-path="url(#clip362)" style="stroke:#000000; stroke-linecap:round; stroke-linejoin:round; stroke-width:2; stroke-opacity:0.1; fill:none" points="481.425,1423.18 481.425,47.2441 "/>
<polyline clip-path="url(#clip362)" style="stroke:#000000; stroke-linecap:round; stroke-linejoin:round; stroke-width:2; stroke-opacity:0.1; fill:none" points="733.205,1423.18 733.205,47.2441 "/>
<polyline clip-path="url(#clip362)" style="stroke:#000000; stroke-linecap:round; stroke-linejoin:round; stroke-width:2; stroke-opacity:0.1; fill:none" points="984.985,1423.18 984.985,47.2441 "/>
<polyline clip-path="url(#clip360)" style="stroke:#000000; stroke-linecap:round; stroke-linejoin:round; stroke-width:4; stroke-opacity:1; fill:none" points="203.964,1423.18 1111.38,1423.18 "/>
<polyline clip-path="url(#clip360)" style="stroke:#000000; stroke-linecap:round; stroke-linejoin:round; stroke-width:4; stroke-opacity:1; fill:none" points="229.645,1423.18 229.645,1404.28 "/>
<polyline clip-path="url(#clip360)" style="stroke:#000000; stroke-linecap:round; stroke-linejoin:round; stroke-width:4; stroke-opacity:1; fill:none" points="481.425,1423.18 481.425,1404.28 "/>
<polyline clip-path="url(#clip360)" style="stroke:#000000; stroke-linecap:round; stroke-linejoin:round; stroke-width:4; stroke-opacity:1; fill:none" points="733.205,1423.18 733.205,1404.28 "/>
<polyline clip-path="url(#clip360)" style="stroke:#000000; stroke-linecap:round; stroke-linejoin:round; stroke-width:4; stroke-opacity:1; fill:none" points="984.985,1423.18 984.985,1404.28 "/>
<path clip-path="url(#clip360)" d="M229.645 1454.1 Q226.034 1454.1 224.205 1457.66 Q222.4 1461.2 222.4 1468.33 Q222.4 1475.44 224.205 1479.01 Q226.034 1482.55 229.645 1482.55 Q233.279 1482.55 235.085 1479.01 Q236.914 1475.44 236.914 1468.33 Q236.914 1461.2 235.085 1457.66 Q233.279 1454.1 229.645 1454.1 M229.645 1450.39 Q235.455 1450.39 238.511 1455 Q241.59 1459.58 241.59 1468.33 Q241.59 1477.06 238.511 1481.67 Q235.455 1486.25 229.645 1486.25 Q223.835 1486.25 220.756 1481.67 Q217.701 1477.06 217.701 1468.33 Q217.701 1459.58 220.756 1455 Q223.835 1450.39 229.645 1450.39 Z" fill="#000000" fill-rule="nonzero" fill-opacity="1" /><path clip-path="url(#clip360)" d="M471.807 1481.64 L479.446 1481.64 L479.446 1455.28 L471.136 1456.95 L471.136 1452.69 L479.4 1451.02 L484.076 1451.02 L484.076 1481.64 L491.714 1481.64 L491.714 1485.58 L471.807 1485.58 L471.807 1481.64 Z" fill="#000000" fill-rule="nonzero" fill-opacity="1" /><path clip-path="url(#clip360)" d="M727.858 1481.64 L744.177 1481.64 L744.177 1485.58 L722.233 1485.58 L722.233 1481.64 Q724.895 1478.89 729.478 1474.26 Q734.085 1469.61 735.265 1468.27 Q737.511 1465.74 738.39 1464.01 Q739.293 1462.25 739.293 1460.56 Q739.293 1457.8 737.349 1456.07 Q735.427 1454.33 732.326 1454.33 Q730.127 1454.33 727.673 1455.09 Q725.242 1455.86 722.465 1457.41 L722.465 1452.69 Q725.289 1451.55 727.742 1450.97 Q730.196 1450.39 732.233 1450.39 Q737.603 1450.39 740.798 1453.08 Q743.992 1455.77 743.992 1460.26 Q743.992 1462.39 743.182 1464.31 Q742.395 1466.2 740.288 1468.8 Q739.71 1469.47 736.608 1472.69 Q733.506 1475.88 727.858 1481.64 Z" fill="#000000" fill-rule="nonzero" fill-opacity="1" /><path clip-path="url(#clip360)" d="M989.233 1466.95 Q992.589 1467.66 994.464 1469.93 Q996.362 1472.2 996.362 1475.53 Q996.362 1480.65 992.844 1483.45 Q989.325 1486.25 982.844 1486.25 Q980.668 1486.25 978.353 1485.81 Q976.062 1485.39 973.608 1484.54 L973.608 1480.02 Q975.552 1481.16 977.867 1481.74 Q980.182 1482.32 982.705 1482.32 Q987.103 1482.32 989.395 1480.58 Q991.71 1478.84 991.71 1475.53 Q991.71 1472.48 989.557 1470.77 Q987.427 1469.03 983.608 1469.03 L979.58 1469.03 L979.58 1465.19 L983.793 1465.19 Q987.242 1465.19 989.071 1463.82 Q990.9 1462.43 990.9 1459.84 Q990.9 1457.18 989.001 1455.77 Q987.126 1454.33 983.608 1454.33 Q981.687 1454.33 979.488 1454.75 Q977.289 1455.16 974.65 1456.04 L974.65 1451.88 Q977.312 1451.14 979.626 1450.77 Q981.964 1450.39 984.025 1450.39 Q989.349 1450.39 992.45 1452.83 Q995.552 1455.23 995.552 1459.35 Q995.552 1462.22 993.909 1464.21 Q992.265 1466.18 989.233 1466.95 Z" fill="#000000" fill-rule="nonzero" fill-opacity="1" /><path clip-path="url(#clip360)" d="M527.843 1520.52 L568.042 1520.52 L568.042 1525.93 L551.173 1525.93 L551.173 1568.04 L544.712 1568.04 L544.712 1525.93 L527.843 1525.93 L527.843 1520.52 Z" fill="#000000" fill-rule="nonzero" fill-opacity="1" /><path clip-path="url(#clip360)" d="M571.989 1532.4 L577.845 1532.4 L577.845 1568.04 L571.989 1568.04 L571.989 1532.4 M571.989 1518.52 L577.845 1518.52 L577.845 1525.93 L571.989 1525.93 L571.989 1518.52 Z" fill="#000000" fill-rule="nonzero" fill-opacity="1" /><path clip-path="url(#clip360)" d="M617.854 1539.24 Q620.05 1535.29 623.105 1533.41 Q626.161 1531.54 630.299 1531.54 Q635.869 1531.54 638.892 1535.45 Q641.916 1539.33 641.916 1546.53 L641.916 1568.04 L636.028 1568.04 L636.028 1546.72 Q636.028 1541.59 634.214 1539.11 Q632.399 1536.63 628.675 1536.63 Q624.124 1536.63 621.482 1539.65 Q618.84 1542.68 618.84 1547.9 L618.84 1568.04 L612.952 1568.04 L612.952 1546.72 Q612.952 1541.56 611.138 1539.11 Q609.324 1536.63 605.536 1536.63 Q601.048 1536.63 598.406 1539.68 Q595.765 1542.71 595.765 1547.9 L595.765 1568.04 L589.876 1568.04 L589.876 1532.4 L595.765 1532.4 L595.765 1537.93 Q597.77 1534.66 600.571 1533.1 Q603.372 1531.54 607.223 1531.54 Q611.106 1531.54 613.811 1533.51 Q616.549 1535.48 617.854 1539.24 Z" fill="#000000" fill-rule="nonzero" fill-opacity="1" /><path clip-path="url(#clip360)" d="M684.089 1548.76 L684.089 1551.62 L657.162 1551.62 Q657.544 1557.67 660.79 1560.85 Q664.069 1564 669.893 1564 Q673.267 1564 676.418 1563.17 Q679.601 1562.35 682.72 1560.69 L682.72 1566.23 Q679.569 1567.57 676.259 1568.27 Q672.949 1568.97 669.543 1568.97 Q661.013 1568.97 656.016 1564 Q651.051 1559.04 651.051 1550.57 Q651.051 1541.82 655.761 1536.69 Q660.504 1531.54 668.525 1531.54 Q675.718 1531.54 679.888 1536.18 Q684.089 1540.8 684.089 1548.76 M678.232 1547.04 Q678.169 1542.23 675.527 1539.37 Q672.917 1536.5 668.588 1536.5 Q663.687 1536.5 660.727 1539.27 Q657.799 1542.04 657.353 1547.07 L678.232 1547.04 Z" fill="#000000" fill-rule="nonzero" fill-opacity="1" /><path clip-path="url(#clip360)" d="M728.49 1518.58 Q724.225 1525.9 722.156 1533.06 Q720.087 1540.23 720.087 1547.58 Q720.087 1554.93 722.156 1562.16 Q724.256 1569.35 728.49 1576.64 L723.397 1576.64 Q718.623 1569.16 716.236 1561.93 Q713.88 1554.71 713.88 1547.58 Q713.88 1540.48 716.236 1533.29 Q718.591 1526.09 723.397 1518.58 L728.49 1518.58 Z" fill="#000000" fill-rule="nonzero" fill-opacity="1" /><path clip-path="url(#clip360)" d="M762.578 1533.45 L762.578 1538.98 Q760.095 1537.71 757.422 1537.07 Q754.748 1536.44 751.884 1536.44 Q747.523 1536.44 745.327 1537.77 Q743.163 1539.11 743.163 1541.79 Q743.163 1543.82 744.722 1545 Q746.282 1546.15 750.992 1547.2 L752.998 1547.64 Q759.236 1548.98 761.846 1551.43 Q764.488 1553.85 764.488 1558.21 Q764.488 1563.17 760.541 1566.07 Q756.626 1568.97 749.751 1568.97 Q746.887 1568.97 743.767 1568.39 Q740.68 1567.85 737.243 1566.74 L737.243 1560.69 Q740.489 1562.38 743.64 1563.24 Q746.791 1564.07 749.878 1564.07 Q754.016 1564.07 756.244 1562.66 Q758.472 1561.23 758.472 1558.65 Q758.472 1556.27 756.849 1554.99 Q755.257 1553.72 749.815 1552.54 L747.778 1552.07 Q742.335 1550.92 739.916 1548.56 Q737.497 1546.18 737.497 1542.04 Q737.497 1537.01 741.062 1534.27 Q744.627 1531.54 751.183 1531.54 Q754.43 1531.54 757.295 1532.01 Q760.159 1532.49 762.578 1533.45 Z" fill="#000000" fill-rule="nonzero" fill-opacity="1" /><path clip-path="url(#clip360)" d="M772.89 1518.58 L777.983 1518.58 Q782.757 1526.09 785.113 1533.29 Q787.5 1540.48 787.5 1547.58 Q787.5 1554.71 785.113 1561.93 Q782.757 1569.16 777.983 1576.64 L772.89 1576.64 Q777.124 1569.35 779.193 1562.16 Q781.293 1554.93 781.293 1547.58 Q781.293 1540.23 779.193 1533.06 Q777.124 1525.9 772.89 1518.58 Z" fill="#000000" fill-rule="nonzero" fill-opacity="1" /><polyline clip-path="url(#clip362)" style="stroke:#000000; stroke-linecap:round; stroke-linejoin:round; stroke-width:2; stroke-opacity:0.1; fill:none" points="203.964,1350.67 1111.38,1350.67 "/>
<polyline clip-path="url(#clip362)" style="stroke:#000000; stroke-linecap:round; stroke-linejoin:round; stroke-width:2; stroke-opacity:0.1; fill:none" points="203.964,921.973 1111.38,921.973 "/>
<polyline clip-path="url(#clip362)" style="stroke:#000000; stroke-linecap:round; stroke-linejoin:round; stroke-width:2; stroke-opacity:0.1; fill:none" points="203.964,493.28 1111.38,493.28 "/>
<polyline clip-path="url(#clip362)" style="stroke:#000000; stroke-linecap:round; stroke-linejoin:round; stroke-width:2; stroke-opacity:0.1; fill:none" points="203.964,64.586 1111.38,64.586 "/>
<polyline clip-path="url(#clip360)" style="stroke:#000000; stroke-linecap:round; stroke-linejoin:round; stroke-width:4; stroke-opacity:1; fill:none" points="203.964,1423.18 203.964,47.2441 "/>
<polyline clip-path="url(#clip360)" style="stroke:#000000; stroke-linecap:round; stroke-linejoin:round; stroke-width:4; stroke-opacity:1; fill:none" points="203.964,1350.67 222.861,1350.67 "/>
<polyline clip-path="url(#clip360)" style="stroke:#000000; stroke-linecap:round; stroke-linejoin:round; stroke-width:4; stroke-opacity:1; fill:none" points="203.964,921.973 222.861,921.973 "/>
<polyline clip-path="url(#clip360)" style="stroke:#000000; stroke-linecap:round; stroke-linejoin:round; stroke-width:4; stroke-opacity:1; fill:none" points="203.964,493.28 222.861,493.28 "/>
<polyline clip-path="url(#clip360)" style="stroke:#000000; stroke-linecap:round; stroke-linejoin:round; stroke-width:4; stroke-opacity:1; fill:none" points="203.964,64.586 222.861,64.586 "/>
<path clip-path="url(#clip360)" d="M156.019 1336.47 Q152.408 1336.47 150.579 1340.03 Q148.774 1343.57 148.774 1350.7 Q148.774 1357.81 150.579 1361.37 Q152.408 1364.91 156.019 1364.91 Q159.653 1364.91 161.459 1361.37 Q163.288 1357.81 163.288 1350.7 Q163.288 1343.57 161.459 1340.03 Q159.653 1336.47 156.019 1336.47 M156.019 1332.76 Q161.829 1332.76 164.885 1337.37 Q167.964 1341.95 167.964 1350.7 Q167.964 1359.43 164.885 1364.03 Q161.829 1368.62 156.019 1368.62 Q150.209 1368.62 147.13 1364.03 Q144.075 1359.43 144.075 1350.7 Q144.075 1341.95 147.13 1337.37 Q150.209 1332.76 156.019 1332.76 Z" fill="#000000" fill-rule="nonzero" fill-opacity="1" /><path clip-path="url(#clip360)" d="M116.668 935.318 L124.306 935.318 L124.306 908.953 L115.996 910.619 L115.996 906.36 L124.26 904.693 L128.936 904.693 L128.936 935.318 L136.575 935.318 L136.575 939.253 L116.668 939.253 L116.668 935.318 Z" fill="#000000" fill-rule="nonzero" fill-opacity="1" /><path clip-path="url(#clip360)" d="M156.019 907.772 Q152.408 907.772 150.579 911.337 Q148.774 914.878 148.774 922.008 Q148.774 929.114 150.579 932.679 Q152.408 936.221 156.019 936.221 Q159.653 936.221 161.459 932.679 Q163.288 929.114 163.288 922.008 Q163.288 914.878 161.459 911.337 Q159.653 907.772 156.019 907.772 M156.019 904.068 Q161.829 904.068 164.885 908.675 Q167.964 913.258 167.964 922.008 Q167.964 930.735 164.885 935.341 Q161.829 939.925 156.019 939.925 Q150.209 939.925 147.13 935.341 Q144.075 930.735 144.075 922.008 Q144.075 913.258 147.13 908.675 Q150.209 904.068 156.019 904.068 Z" fill="#000000" fill-rule="nonzero" fill-opacity="1" /><path clip-path="url(#clip360)" d="M119.885 506.625 L136.204 506.625 L136.204 510.56 L114.26 510.56 L114.26 506.625 Q116.922 503.87 121.505 499.24 Q126.112 494.588 127.292 493.245 Q129.538 490.722 130.417 488.986 Q131.32 487.226 131.32 485.537 Q131.32 482.782 129.376 481.046 Q127.455 479.31 124.353 479.31 Q122.154 479.31 119.7 480.074 Q117.269 480.838 114.492 482.389 L114.492 477.666 Q117.316 476.532 119.769 475.953 Q122.223 475.375 124.26 475.375 Q129.63 475.375 132.825 478.06 Q136.019 480.745 136.019 485.236 Q136.019 487.365 135.209 489.287 Q134.422 491.185 132.316 493.777 Q131.737 494.449 128.635 497.666 Q125.533 500.861 119.885 506.625 Z" fill="#000000" fill-rule="nonzero" fill-opacity="1" /><path clip-path="url(#clip360)" d="M156.019 479.078 Q152.408 479.078 150.579 482.643 Q148.774 486.185 148.774 493.314 Q148.774 500.421 150.579 503.986 Q152.408 507.527 156.019 507.527 Q159.653 507.527 161.459 503.986 Q163.288 500.421 163.288 493.314 Q163.288 486.185 161.459 482.643 Q159.653 479.078 156.019 479.078 M156.019 475.375 Q161.829 475.375 164.885 479.981 Q167.964 484.564 167.964 493.314 Q167.964 502.041 164.885 506.648 Q161.829 511.231 156.019 511.231 Q150.209 511.231 147.13 506.648 Q144.075 502.041 144.075 493.314 Q144.075 484.564 147.13 479.981 Q150.209 475.375 156.019 475.375 Z" fill="#000000" fill-rule="nonzero" fill-opacity="1" /><path clip-path="url(#clip360)" d="M130.024 63.2319 Q133.38 63.9495 135.255 66.218 Q137.154 68.4865 137.154 71.8198 Q137.154 76.9355 133.635 79.7364 Q130.117 82.5373 123.635 82.5373 Q121.459 82.5373 119.144 82.0975 Q116.853 81.6809 114.399 80.8244 L114.399 76.3105 Q116.343 77.4448 118.658 78.0235 Q120.973 78.6022 123.496 78.6022 Q127.894 78.6022 130.186 76.8661 Q132.501 75.13 132.501 71.8198 Q132.501 68.7643 130.348 67.0513 Q128.218 65.3152 124.399 65.3152 L120.371 65.3152 L120.371 61.4726 L124.584 61.4726 Q128.033 61.4726 129.862 60.1069 Q131.691 58.718 131.691 56.1254 Q131.691 53.4634 129.792 52.0514 Q127.917 50.6162 124.399 50.6162 Q122.478 50.6162 120.279 51.0329 Q118.08 51.4495 115.441 52.3292 L115.441 48.1625 Q118.103 47.4218 120.418 47.0514 Q122.755 46.681 124.816 46.681 Q130.14 46.681 133.242 49.1116 Q136.343 51.519 136.343 55.6393 Q136.343 58.5097 134.7 60.5004 Q133.056 62.468 130.024 63.2319 Z" fill="#000000" fill-rule="nonzero" fill-opacity="1" /><path clip-path="url(#clip360)" d="M156.019 50.3847 Q152.408 50.3847 150.579 53.9495 Q148.774 57.4912 148.774 64.6208 Q148.774 71.7272 150.579 75.292 Q152.408 78.8336 156.019 78.8336 Q159.653 78.8336 161.459 75.292 Q163.288 71.7272 163.288 64.6208 Q163.288 57.4912 161.459 53.9495 Q159.653 50.3847 156.019 50.3847 M156.019 46.681 Q161.829 46.681 164.885 51.2875 Q167.964 55.8708 167.964 64.6208 Q167.964 73.3476 164.885 77.954 Q161.829 82.5373 156.019 82.5373 Q150.209 82.5373 147.13 77.954 Q144.075 73.3476 144.075 64.6208 Q144.075 55.8708 147.13 51.2875 Q150.209 46.681 156.019 46.681 Z" fill="#000000" fill-rule="nonzero" fill-opacity="1" /><path clip-path="url(#clip360)" d="M39.4334 772.564 Q44.844 772.564 50.9309 774.303 Q56.9856 776.01 61.8809 778.715 Q66.744 781.42 69.9646 784.963 Q73.153 788.505 73.153 791.887 Q73.153 794.045 71.9613 795.655 Q70.7375 797.233 68.7085 798.103 Q66.6474 798.972 64.393 799.391 Q62.1063 799.81 59.6265 799.81 Q55.9228 799.81 51.8971 799.005 Q47.8391 798.199 44.1677 796.847 Q40.464 795.494 37.1146 793.594 Q33.733 791.694 31.2853 789.6 Q28.8055 787.475 27.3562 785.092 Q25.907 782.708 25.907 780.486 Q25.907 778.876 26.6155 777.588 Q27.2918 776.267 28.4834 775.43 Q29.6428 774.593 31.0277 774.013 Q32.4125 773.401 34.0228 773.111 Q35.6009 772.821 36.9214 772.692 Q38.2096 772.564 39.4334 772.564 M35.3433 776.911 Q33.7008 776.911 32.477 777.04 Q31.2209 777.169 29.9649 777.523 Q28.7089 777.878 28.0325 778.65 Q27.3562 779.391 27.3562 780.551 Q27.3562 783.932 34.2805 787.733 Q36.4383 788.956 39.369 790.051 Q42.2997 791.146 43.6846 791.533 Q45.0694 791.919 48.4833 792.821 L48.4833 779.037 Q39.6911 776.911 35.3433 776.911 M50.5766 779.617 L50.5766 793.336 Q58.6281 795.462 63.6522 795.462 Q68.0322 795.462 69.868 794.56 Q71.6715 793.626 71.6715 791.887 Q71.6715 789.89 69.6747 788.022 Q67.6458 786.154 63.9743 784.254 Q59.2078 781.742 50.5766 779.617 Z" fill="#000000" fill-rule="nonzero" fill-opacity="1" /><path clip-path="url(#clip360)" d="M22.9507 728.256 Q30.2712 732.521 37.4327 734.59 Q44.5941 736.658 51.9465 736.658 Q59.2989 736.658 66.5239 734.59 Q73.7172 732.489 81.0059 728.256 L81.0059 733.348 Q73.5262 738.123 66.3011 740.51 Q59.0761 742.865 51.9465 742.865 Q44.8487 742.865 37.6555 740.51 Q30.4622 738.154 22.9507 733.348 L22.9507 728.256 Z" fill="#000000" fill-rule="nonzero" fill-opacity="1" /><path clip-path="url(#clip360)" d="M28.1387 706.74 Q28.1387 709.286 29.9211 711.036 Q31.6717 712.787 34.218 712.787 Q36.7324 712.787 38.483 711.036 Q40.2017 709.286 40.2017 706.74 Q40.2017 704.193 38.483 702.443 Q36.7324 700.692 34.218 700.692 Q31.7035 700.692 29.9211 702.475 Q28.1387 704.225 28.1387 706.74 M24.0328 706.74 Q24.0328 704.703 24.8286 702.825 Q25.5924 700.947 27.0566 699.578 Q28.4888 698.114 30.3031 697.382 Q32.1173 696.65 34.218 696.65 Q38.4193 696.65 41.3476 699.61 Q44.244 702.538 44.244 706.803 Q44.244 711.1 41.3794 713.965 Q38.5148 716.829 34.218 716.829 Q29.953 716.829 26.9929 713.901 Q24.0328 710.973 24.0328 706.74 Z" fill="#000000" fill-rule="nonzero" fill-opacity="1" /><path clip-path="url(#clip360)" d="M22.9507 685.224 L22.9507 680.131 Q30.4622 675.357 37.6555 673.001 Q44.8487 670.614 51.9465 670.614 Q59.0761 670.614 66.3011 673.001 Q73.5262 675.357 81.0059 680.131 L81.0059 685.224 Q73.7172 680.99 66.5239 678.921 Q59.2989 676.821 51.9465 676.821 Q44.5941 676.821 37.4327 678.921 Q30.2712 680.99 22.9507 685.224 Z" fill="#000000" fill-rule="nonzero" fill-opacity="1" /><polyline clip-path="url(#clip362)" style="stroke:#009af9; stroke-linecap:round; stroke-linejoin:round; stroke-width:4; stroke-opacity:1; fill:none" points="229.645,1384.24 254.823,1216.1 280.001,969.054 305.179,719.62 330.357,473 355.535,278.752 380.713,187.792 405.891,136.04 431.069,86.1857 456.247,141.136 481.425,151.723 506.603,233.088 531.781,278.764 556.959,274.927 582.137,317.496 607.315,299.22 632.493,336.147 657.671,283.355 682.849,273.329 708.027,277.496 733.205,303.184 758.383,274.871 783.561,267.328 808.739,279.332 833.917,255.119 859.095,308.118 884.273,265.479 909.451,255.598 934.629,269.412 959.807,253.398 984.985,254.034 1010.16,337.486 1035.34,268.086 1060.52,311.212 1085.7,293.329 "/>
<polyline clip-path="url(#clip362)" style="stroke:#e26f46; stroke-linecap:round; stroke-linejoin:round; stroke-width:3; stroke-opacity:1; fill:none" stroke-dasharray="12, 6, 2, 6" points="229.645,1350.67 254.823,1270.73 280.001,897.938 305.179,657.605 330.357,472.375 355.535,288.416 380.713,166.297 405.891,153.528 431.069,148.689 456.247,116.758 481.425,203.056 506.603,204.044 531.781,291.635 556.959,319.701 582.137,289.38 607.315,331.289 632.493,294.387 657.671,338.919 682.849,265.387 708.027,262.372 733.205,274.802 758.383,309.075 783.561,268.967 808.739,263.864 833.917,282.475 859.095,251.04 884.273,321.604 909.451,258.421 934.629,251.205 959.807,273.022 984.985,251.744 1010.16,255.256 1035.34,359.837 1060.52,254.743 1085.7,316.05 "/>
<path clip-path="url(#clip360)" d="M961.561 1377.32 L1081.13 1377.32 L1081.13 1221.8 L961.561 1221.8  Z" fill="#ffffff" fill-rule="evenodd" fill-opacity="1"/>
<polyline clip-path="url(#clip360)" style="stroke:#000000; stroke-linecap:round; stroke-linejoin:round; stroke-width:4; stroke-opacity:1; fill:none" points="961.561,1377.32 1081.13,1377.32 1081.13,1221.8 961.561,1221.8 961.561,1377.32 "/>
<polyline clip-path="url(#clip360)" style="stroke:#009af9; stroke-linecap:round; stroke-linejoin:round; stroke-width:4; stroke-opacity:1; fill:none" points="971.643,1273.64 1032.14,1273.64 "/>
<path clip-path="url(#clip360)" d="M1068.99 1260.37 Q1067.52 1260.37 1066.77 1260.51 Q1066.02 1260.63 1065.83 1260.8 Q1065.64 1260.96 1065.43 1261.38 L1055.13 1283.3 Q1054.02 1285.65 1051.96 1287.33 Q1049.93 1289.02 1047.35 1289.02 Q1045.19 1289.02 1043.7 1287.71 Q1042.22 1286.42 1042.22 1284.59 Q1042.22 1283.28 1043.04 1282.53 Q1043.86 1281.81 1044.96 1281.81 Q1046.18 1281.81 1046.95 1282.58 Q1047.75 1283.35 1047.75 1284.55 Q1047.75 1285.32 1047.42 1285.9 Q1047.09 1286.51 1046.79 1286.72 Q1046.51 1286.96 1046.2 1287.1 Q1046.69 1287.29 1047.35 1287.29 Q1048.33 1287.29 1049.18 1286.89 Q1050.04 1286.51 1050.61 1286 Q1051.19 1285.51 1051.78 1284.62 Q1052.36 1283.75 1052.64 1283.19 Q1052.92 1282.65 1053.35 1281.71 L1054.45 1279.42 L1045.48 1260.37 L1042.41 1260.37 L1042.41 1258.13 L1047.89 1258.27 L1053.84 1258.13 L1053.84 1260.37 L1051.24 1260.37 L1057.33 1273.33 L1062.86 1261.52 L1063.09 1260.96 Q1063.09 1260.7 1062.53 1260.56 Q1061.97 1260.4 1061.4 1260.4 L1060.84 1260.37 L1060.84 1258.13 L1065.2 1258.27 Q1067.26 1258.27 1068.99 1258.13 L1068.99 1260.37 Z" fill="#000000" fill-rule="nonzero" fill-opacity="1" /><polyline clip-path="url(#clip360)" style="stroke:#e26f46; stroke-linecap:round; stroke-linejoin:round; stroke-width:3; stroke-opacity:1; fill:none" stroke-dasharray="12, 6, 2, 6" points="971.643,1325.48 1032.14,1325.48 "/>
<path clip-path="url(#clip360)" d="M1064.81 1309.2 L1064.4 1309.87 Q1061.85 1308.77 1058.69 1307.01 Q1055.53 1308.77 1052.98 1309.87 L1052.59 1309.2 Q1055.36 1306.79 1058.69 1304.93 Q1062.05 1306.8 1064.81 1309.2 Z" fill="#000000" fill-rule="nonzero" fill-opacity="1" /><path clip-path="url(#clip360)" d="M1068.99 1317.22 Q1067.52 1317.22 1066.77 1317.36 Q1066.02 1317.48 1065.83 1317.64 Q1065.64 1317.8 1065.43 1318.23 L1055.13 1340.15 Q1054.02 1342.49 1051.96 1344.18 Q1049.93 1345.86 1047.35 1345.86 Q1045.19 1345.86 1043.7 1344.55 Q1042.22 1343.26 1042.22 1341.44 Q1042.22 1340.13 1043.04 1339.38 Q1043.86 1338.65 1044.96 1338.65 Q1046.18 1338.65 1046.95 1339.42 Q1047.75 1340.2 1047.75 1341.39 Q1047.75 1342.16 1047.42 1342.75 Q1047.09 1343.36 1046.79 1343.57 Q1046.51 1343.8 1046.2 1343.94 Q1046.69 1344.13 1047.35 1344.13 Q1048.33 1344.13 1049.18 1343.73 Q1050.04 1343.36 1050.61 1342.84 Q1051.19 1342.35 1051.78 1341.46 Q1052.36 1340.59 1052.64 1340.03 Q1052.92 1339.49 1053.35 1338.56 L1054.45 1336.26 L1045.48 1317.22 L1042.41 1317.22 L1042.41 1314.97 L1047.89 1315.11 L1053.84 1314.97 L1053.84 1317.22 L1051.24 1317.22 L1057.33 1330.17 L1062.86 1318.37 L1063.09 1317.8 Q1063.09 1317.55 1062.53 1317.41 Q1061.97 1317.24 1061.4 1317.24 L1060.84 1317.22 L1060.84 1314.97 L1065.2 1315.11 Q1067.26 1315.11 1068.99 1314.97 L1068.99 1317.22 Z" fill="#000000" fill-rule="nonzero" fill-opacity="1" /><path clip-path="url(#clip360)" d="M1445.34 398.692 L2352.76 398.692 L2352.76 47.2441 L1445.34 47.2441  Z" fill="#ffffff" fill-rule="evenodd" fill-opacity="1"/>
<defs>
  <clipPath id="clip363">
    <rect x="1445" y="47" width="908" height="352"/>
  </clipPath>
</defs>
<polyline clip-path="url(#clip363)" style="stroke:#000000; stroke-linecap:round; stroke-linejoin:round; stroke-width:2; stroke-opacity:0.1; fill:none" points="1471.02,398.692 1471.02,47.2441 "/>
<polyline clip-path="url(#clip363)" style="stroke:#000000; stroke-linecap:round; stroke-linejoin:round; stroke-width:2; stroke-opacity:0.1; fill:none" points="1722.8,398.692 1722.8,47.2441 "/>
<polyline clip-path="url(#clip363)" style="stroke:#000000; stroke-linecap:round; stroke-linejoin:round; stroke-width:2; stroke-opacity:0.1; fill:none" points="1974.58,398.692 1974.58,47.2441 "/>
<polyline clip-path="url(#clip363)" style="stroke:#000000; stroke-linecap:round; stroke-linejoin:round; stroke-width:2; stroke-opacity:0.1; fill:none" points="2226.36,398.692 2226.36,47.2441 "/>
<polyline clip-path="url(#clip360)" style="stroke:#000000; stroke-linecap:round; stroke-linejoin:round; stroke-width:4; stroke-opacity:1; fill:none" points="1445.34,398.692 2352.76,398.692 "/>
<polyline clip-path="url(#clip360)" style="stroke:#000000; stroke-linecap:round; stroke-linejoin:round; stroke-width:4; stroke-opacity:1; fill:none" points="1471.02,398.692 1471.02,379.794 "/>
<polyline clip-path="url(#clip360)" style="stroke:#000000; stroke-linecap:round; stroke-linejoin:round; stroke-width:4; stroke-opacity:1; fill:none" points="1722.8,398.692 1722.8,379.794 "/>
<polyline clip-path="url(#clip360)" style="stroke:#000000; stroke-linecap:round; stroke-linejoin:round; stroke-width:4; stroke-opacity:1; fill:none" points="1974.58,398.692 1974.58,379.794 "/>
<polyline clip-path="url(#clip360)" style="stroke:#000000; stroke-linecap:round; stroke-linejoin:round; stroke-width:4; stroke-opacity:1; fill:none" points="2226.36,398.692 2226.36,379.794 "/>
<path clip-path="url(#clip360)" d="M1471.02 429.611 Q1467.41 429.611 1465.58 433.175 Q1463.78 436.717 1463.78 443.847 Q1463.78 450.953 1465.58 454.518 Q1467.41 458.059 1471.02 458.059 Q1474.66 458.059 1476.46 454.518 Q1478.29 450.953 1478.29 443.847 Q1478.29 436.717 1476.46 433.175 Q1474.66 429.611 1471.02 429.611 M1471.02 425.907 Q1476.83 425.907 1479.89 430.513 Q1482.97 435.097 1482.97 443.847 Q1482.97 452.573 1479.89 457.18 Q1476.83 461.763 1471.02 461.763 Q1465.21 461.763 1462.13 457.18 Q1459.08 452.573 1459.08 443.847 Q1459.08 435.097 1462.13 430.513 Q1465.21 425.907 1471.02 425.907 Z" fill="#000000" fill-rule="nonzero" fill-opacity="1" /><path clip-path="url(#clip360)" d="M1713.18 457.157 L1720.82 457.157 L1720.82 430.791 L1712.51 432.458 L1712.51 428.199 L1720.78 426.532 L1725.45 426.532 L1725.45 457.157 L1733.09 457.157 L1733.09 461.092 L1713.18 461.092 L1713.18 457.157 Z" fill="#000000" fill-rule="nonzero" fill-opacity="1" /><path clip-path="url(#clip360)" d="M1969.24 457.157 L1985.55 457.157 L1985.55 461.092 L1963.61 461.092 L1963.61 457.157 Q1966.27 454.402 1970.86 449.772 Q1975.46 445.12 1976.64 443.777 Q1978.89 441.254 1979.77 439.518 Q1980.67 437.759 1980.67 436.069 Q1980.67 433.314 1978.73 431.578 Q1976.8 429.842 1973.7 429.842 Q1971.5 429.842 1969.05 430.606 Q1966.62 431.37 1963.84 432.921 L1963.84 428.199 Q1966.67 427.064 1969.12 426.486 Q1971.57 425.907 1973.61 425.907 Q1978.98 425.907 1982.17 428.592 Q1985.37 431.277 1985.37 435.768 Q1985.37 437.898 1984.56 439.819 Q1983.77 441.717 1981.67 444.31 Q1981.09 444.981 1977.99 448.198 Q1974.88 451.393 1969.24 457.157 Z" fill="#000000" fill-rule="nonzero" fill-opacity="1" /><path clip-path="url(#clip360)" d="M2230.61 442.458 Q2233.97 443.175 2235.84 445.444 Q2237.74 447.712 2237.74 451.046 Q2237.74 456.161 2234.22 458.962 Q2230.7 461.763 2224.22 461.763 Q2222.05 461.763 2219.73 461.323 Q2217.44 460.907 2214.99 460.05 L2214.99 455.536 Q2216.93 456.671 2219.24 457.249 Q2221.56 457.828 2224.08 457.828 Q2228.48 457.828 2230.77 456.092 Q2233.09 454.356 2233.09 451.046 Q2233.09 447.99 2230.93 446.277 Q2228.8 444.541 2224.99 444.541 L2220.96 444.541 L2220.96 440.698 L2225.17 440.698 Q2228.62 440.698 2230.45 439.333 Q2232.28 437.944 2232.28 435.351 Q2232.28 432.689 2230.38 431.277 Q2228.5 429.842 2224.99 429.842 Q2223.06 429.842 2220.86 430.259 Q2218.67 430.675 2216.03 431.555 L2216.03 427.388 Q2218.69 426.648 2221 426.277 Q2223.34 425.907 2225.4 425.907 Q2230.73 425.907 2233.83 428.337 Q2236.93 430.745 2236.93 434.865 Q2236.93 437.736 2235.29 439.726 Q2233.64 441.694 2230.61 442.458 Z" fill="#000000" fill-rule="nonzero" fill-opacity="1" /><polyline clip-path="url(#clip363)" style="stroke:#000000; stroke-linecap:round; stroke-linejoin:round; stroke-width:2; stroke-opacity:0.1; fill:none" points="1445.34,388.745 2352.76,388.745 "/>
<polyline clip-path="url(#clip363)" style="stroke:#000000; stroke-linecap:round; stroke-linejoin:round; stroke-width:2; stroke-opacity:0.1; fill:none" points="1445.34,323.008 2352.76,323.008 "/>
<polyline clip-path="url(#clip363)" style="stroke:#000000; stroke-linecap:round; stroke-linejoin:round; stroke-width:2; stroke-opacity:0.1; fill:none" points="1445.34,257.27 2352.76,257.27 "/>
<polyline clip-path="url(#clip363)" style="stroke:#000000; stroke-linecap:round; stroke-linejoin:round; stroke-width:2; stroke-opacity:0.1; fill:none" points="1445.34,191.533 2352.76,191.533 "/>
<polyline clip-path="url(#clip363)" style="stroke:#000000; stroke-linecap:round; stroke-linejoin:round; stroke-width:2; stroke-opacity:0.1; fill:none" points="1445.34,125.796 2352.76,125.796 "/>
<polyline clip-path="url(#clip363)" style="stroke:#000000; stroke-linecap:round; stroke-linejoin:round; stroke-width:2; stroke-opacity:0.1; fill:none" points="1445.34,60.0584 2352.76,60.0584 "/>
<polyline clip-path="url(#clip360)" style="stroke:#000000; stroke-linecap:round; stroke-linejoin:round; stroke-width:4; stroke-opacity:1; fill:none" points="1445.34,398.692 1445.34,47.2441 "/>
<polyline clip-path="url(#clip360)" style="stroke:#000000; stroke-linecap:round; stroke-linejoin:round; stroke-width:4; stroke-opacity:1; fill:none" points="1445.34,388.745 1464.24,388.745 "/>
<polyline clip-path="url(#clip360)" style="stroke:#000000; stroke-linecap:round; stroke-linejoin:round; stroke-width:4; stroke-opacity:1; fill:none" points="1445.34,323.008 1464.24,323.008 "/>
<polyline clip-path="url(#clip360)" style="stroke:#000000; stroke-linecap:round; stroke-linejoin:round; stroke-width:4; stroke-opacity:1; fill:none" points="1445.34,257.27 1464.24,257.27 "/>
<polyline clip-path="url(#clip360)" style="stroke:#000000; stroke-linecap:round; stroke-linejoin:round; stroke-width:4; stroke-opacity:1; fill:none" points="1445.34,191.533 1464.24,191.533 "/>
<polyline clip-path="url(#clip360)" style="stroke:#000000; stroke-linecap:round; stroke-linejoin:round; stroke-width:4; stroke-opacity:1; fill:none" points="1445.34,125.796 1464.24,125.796 "/>
<polyline clip-path="url(#clip360)" style="stroke:#000000; stroke-linecap:round; stroke-linejoin:round; stroke-width:4; stroke-opacity:1; fill:none" points="1445.34,60.0584 1464.24,60.0584 "/>
<path clip-path="url(#clip360)" d="M1352.17 374.544 Q1348.55 374.544 1346.73 378.109 Q1344.92 381.65 1344.92 388.78 Q1344.92 395.886 1346.73 399.451 Q1348.55 402.993 1352.17 402.993 Q1355.8 402.993 1357.6 399.451 Q1359.43 395.886 1359.43 388.78 Q1359.43 381.65 1357.6 378.109 Q1355.8 374.544 1352.17 374.544 M1352.17 370.84 Q1357.98 370.84 1361.03 375.447 Q1364.11 380.03 1364.11 388.78 Q1364.11 397.507 1361.03 402.113 Q1357.98 406.697 1352.17 406.697 Q1346.35 406.697 1343.28 402.113 Q1340.22 397.507 1340.22 388.78 Q1340.22 380.03 1343.28 375.447 Q1346.35 370.84 1352.17 370.84 Z" fill="#000000" fill-rule="nonzero" fill-opacity="1" /><path clip-path="url(#clip360)" d="M1372.33 400.146 L1377.21 400.146 L1377.21 406.025 L1372.33 406.025 L1372.33 400.146 Z" fill="#000000" fill-rule="nonzero" fill-opacity="1" /><path clip-path="url(#clip360)" d="M1397.4 374.544 Q1393.79 374.544 1391.96 378.109 Q1390.15 381.65 1390.15 388.78 Q1390.15 395.886 1391.96 399.451 Q1393.79 402.993 1397.4 402.993 Q1401.03 402.993 1402.84 399.451 Q1404.66 395.886 1404.66 388.78 Q1404.66 381.65 1402.84 378.109 Q1401.03 374.544 1397.4 374.544 M1397.4 370.84 Q1403.21 370.84 1406.26 375.447 Q1409.34 380.03 1409.34 388.78 Q1409.34 397.507 1406.26 402.113 Q1403.21 406.697 1397.4 406.697 Q1391.59 406.697 1388.51 402.113 Q1385.45 397.507 1385.45 388.78 Q1385.45 380.03 1388.51 375.447 Q1391.59 370.84 1397.4 370.84 Z" fill="#000000" fill-rule="nonzero" fill-opacity="1" /><path clip-path="url(#clip360)" d="M1353.39 308.807 Q1349.78 308.807 1347.95 312.371 Q1346.15 315.913 1346.15 323.043 Q1346.15 330.149 1347.95 333.714 Q1349.78 337.255 1353.39 337.255 Q1357.03 337.255 1358.83 333.714 Q1360.66 330.149 1360.66 323.043 Q1360.66 315.913 1358.83 312.371 Q1357.03 308.807 1353.39 308.807 M1353.39 305.103 Q1359.2 305.103 1362.26 309.709 Q1365.34 314.293 1365.34 323.043 Q1365.34 331.769 1362.26 336.376 Q1359.2 340.959 1353.39 340.959 Q1347.58 340.959 1344.5 336.376 Q1341.45 331.769 1341.45 323.043 Q1341.45 314.293 1344.5 309.709 Q1347.58 305.103 1353.39 305.103 Z" fill="#000000" fill-rule="nonzero" fill-opacity="1" /><path clip-path="url(#clip360)" d="M1373.55 334.408 L1378.44 334.408 L1378.44 340.288 L1373.55 340.288 L1373.55 334.408 Z" fill="#000000" fill-rule="nonzero" fill-opacity="1" /><path clip-path="url(#clip360)" d="M1389.43 336.353 L1397.07 336.353 L1397.07 309.987 L1388.76 311.654 L1388.76 307.395 L1397.03 305.728 L1401.7 305.728 L1401.7 336.353 L1409.34 336.353 L1409.34 340.288 L1389.43 340.288 L1389.43 336.353 Z" fill="#000000" fill-rule="nonzero" fill-opacity="1" /><path clip-path="url(#clip360)" d="M1353.76 243.069 Q1350.15 243.069 1348.32 246.634 Q1346.52 250.176 1346.52 257.305 Q1346.52 264.412 1348.32 267.976 Q1350.15 271.518 1353.76 271.518 Q1357.4 271.518 1359.2 267.976 Q1361.03 264.412 1361.03 257.305 Q1361.03 250.176 1359.2 246.634 Q1357.4 243.069 1353.76 243.069 M1353.76 239.365 Q1359.57 239.365 1362.63 243.972 Q1365.71 248.555 1365.71 257.305 Q1365.71 266.032 1362.63 270.638 Q1359.57 275.222 1353.76 275.222 Q1347.95 275.222 1344.87 270.638 Q1341.82 266.032 1341.82 257.305 Q1341.82 248.555 1344.87 243.972 Q1347.95 239.365 1353.76 239.365 Z" fill="#000000" fill-rule="nonzero" fill-opacity="1" /><path clip-path="url(#clip360)" d="M1373.92 268.671 L1378.81 268.671 L1378.81 274.55 L1373.92 274.55 L1373.92 268.671 Z" fill="#000000" fill-rule="nonzero" fill-opacity="1" /><path clip-path="url(#clip360)" d="M1393.02 270.615 L1409.34 270.615 L1409.34 274.55 L1387.4 274.55 L1387.4 270.615 Q1390.06 267.861 1394.64 263.231 Q1399.25 258.578 1400.43 257.236 Q1402.67 254.713 1403.55 252.977 Q1404.46 251.217 1404.46 249.527 Q1404.46 246.773 1402.51 245.037 Q1400.59 243.301 1397.49 243.301 Q1395.29 243.301 1392.84 244.065 Q1390.41 244.828 1387.63 246.379 L1387.63 241.657 Q1390.45 240.523 1392.91 239.944 Q1395.36 239.365 1397.4 239.365 Q1402.77 239.365 1405.96 242.051 Q1409.16 244.736 1409.16 249.227 Q1409.16 251.356 1408.35 253.277 Q1407.56 255.176 1405.45 257.768 Q1404.87 258.439 1401.77 261.657 Q1398.67 264.851 1393.02 270.615 Z" fill="#000000" fill-rule="nonzero" fill-opacity="1" /><path clip-path="url(#clip360)" d="M1352.81 177.332 Q1349.2 177.332 1347.37 180.897 Q1345.57 184.438 1345.57 191.568 Q1345.57 198.674 1347.37 202.239 Q1349.2 205.781 1352.81 205.781 Q1356.45 205.781 1358.25 202.239 Q1360.08 198.674 1360.08 191.568 Q1360.08 184.438 1358.25 180.897 Q1356.45 177.332 1352.81 177.332 M1352.81 173.628 Q1358.62 173.628 1361.68 178.235 Q1364.76 182.818 1364.76 191.568 Q1364.76 200.295 1361.68 204.901 Q1358.62 209.484 1352.81 209.484 Q1347 209.484 1343.92 204.901 Q1340.87 200.295 1340.87 191.568 Q1340.87 182.818 1343.92 178.235 Q1347 173.628 1352.81 173.628 Z" fill="#000000" fill-rule="nonzero" fill-opacity="1" /><path clip-path="url(#clip360)" d="M1372.98 202.934 L1377.86 202.934 L1377.86 208.813 L1372.98 208.813 L1372.98 202.934 Z" fill="#000000" fill-rule="nonzero" fill-opacity="1" /><path clip-path="url(#clip360)" d="M1402.21 190.179 Q1405.57 190.897 1407.44 193.165 Q1409.34 195.434 1409.34 198.767 Q1409.34 203.883 1405.82 206.683 Q1402.3 209.484 1395.82 209.484 Q1393.65 209.484 1391.33 209.045 Q1389.04 208.628 1386.59 207.771 L1386.59 203.258 Q1388.53 204.392 1390.85 204.971 Q1393.16 205.549 1395.68 205.549 Q1400.08 205.549 1402.37 203.813 Q1404.69 202.077 1404.69 198.767 Q1404.69 195.711 1402.54 193.998 Q1400.41 192.262 1396.59 192.262 L1392.56 192.262 L1392.56 188.42 L1396.77 188.42 Q1400.22 188.42 1402.05 187.054 Q1403.88 185.665 1403.88 183.073 Q1403.88 180.41 1401.98 178.998 Q1400.1 177.563 1396.59 177.563 Q1394.66 177.563 1392.47 177.98 Q1390.27 178.397 1387.63 179.276 L1387.63 175.11 Q1390.29 174.369 1392.6 173.998 Q1394.94 173.628 1397 173.628 Q1402.33 173.628 1405.43 176.059 Q1408.53 178.466 1408.53 182.586 Q1408.53 185.457 1406.89 187.447 Q1405.24 189.415 1402.21 190.179 Z" fill="#000000" fill-rule="nonzero" fill-opacity="1" /><path clip-path="url(#clip360)" d="M1351.68 111.594 Q1348.07 111.594 1346.24 115.159 Q1344.43 118.701 1344.43 125.83 Q1344.43 132.937 1346.24 136.502 Q1348.07 140.043 1351.68 140.043 Q1355.31 140.043 1357.12 136.502 Q1358.95 132.937 1358.95 125.83 Q1358.95 118.701 1357.12 115.159 Q1355.31 111.594 1351.68 111.594 M1351.68 107.891 Q1357.49 107.891 1360.54 112.497 Q1363.62 117.08 1363.62 125.83 Q1363.62 134.557 1360.54 139.164 Q1357.49 143.747 1351.68 143.747 Q1345.87 143.747 1342.79 139.164 Q1339.73 134.557 1339.73 125.83 Q1339.73 117.08 1342.79 112.497 Q1345.87 107.891 1351.68 107.891 Z" fill="#000000" fill-rule="nonzero" fill-opacity="1" /><path clip-path="url(#clip360)" d="M1371.84 137.196 L1376.73 137.196 L1376.73 143.076 L1371.84 143.076 L1371.84 137.196 Z" fill="#000000" fill-rule="nonzero" fill-opacity="1" /><path clip-path="url(#clip360)" d="M1399.76 112.59 L1387.95 131.039 L1399.76 131.039 L1399.76 112.59 M1398.53 108.516 L1404.41 108.516 L1404.41 131.039 L1409.34 131.039 L1409.34 134.928 L1404.41 134.928 L1404.41 143.076 L1399.76 143.076 L1399.76 134.928 L1384.16 134.928 L1384.16 130.414 L1398.53 108.516 Z" fill="#000000" fill-rule="nonzero" fill-opacity="1" /><path clip-path="url(#clip360)" d="M1353.16 45.857 Q1349.55 45.857 1347.72 49.4218 Q1345.92 52.9635 1345.92 60.0931 Q1345.92 67.1995 1347.72 70.7643 Q1349.55 74.306 1353.16 74.306 Q1356.79 74.306 1358.6 70.7643 Q1360.43 67.1995 1360.43 60.0931 Q1360.43 52.9635 1358.6 49.4218 Q1356.79 45.857 1353.16 45.857 M1353.16 42.1534 Q1358.97 42.1534 1362.03 46.7598 Q1365.1 51.3431 1365.1 60.0931 Q1365.1 68.8199 1362.03 73.4263 Q1358.97 78.0096 1353.16 78.0096 Q1347.35 78.0096 1344.27 73.4263 Q1341.22 68.8199 1341.22 60.0931 Q1341.22 51.3431 1344.27 46.7598 Q1347.35 42.1534 1353.16 42.1534 Z" fill="#000000" fill-rule="nonzero" fill-opacity="1" /><path clip-path="url(#clip360)" d="M1373.32 71.4588 L1378.21 71.4588 L1378.21 77.3384 L1373.32 77.3384 L1373.32 71.4588 Z" fill="#000000" fill-rule="nonzero" fill-opacity="1" /><path clip-path="url(#clip360)" d="M1388.44 42.7784 L1406.79 42.7784 L1406.79 46.7135 L1392.72 46.7135 L1392.72 55.1857 Q1393.74 54.8385 1394.76 54.6764 Q1395.78 54.4913 1396.79 54.4913 Q1402.58 54.4913 1405.96 57.6625 Q1409.34 60.8338 1409.34 66.2505 Q1409.34 71.8291 1405.87 74.931 Q1402.4 78.0096 1396.08 78.0096 Q1393.9 78.0096 1391.63 77.6393 Q1389.39 77.2689 1386.98 76.5282 L1386.98 71.8291 Q1389.06 72.9634 1391.29 73.5189 Q1393.51 74.0745 1395.98 74.0745 Q1399.99 74.0745 1402.33 71.968 Q1404.66 69.8615 1404.66 66.2505 Q1404.66 62.6394 1402.33 60.5329 Q1399.99 58.4264 1395.98 58.4264 Q1394.11 58.4264 1392.23 58.8431 Q1390.38 59.2597 1388.44 60.1394 L1388.44 42.7784 Z" fill="#000000" fill-rule="nonzero" fill-opacity="1" /><path clip-path="url(#clip360)" d="M1264.91 298.084 Q1270.32 298.084 1276.41 299.823 Q1282.46 301.53 1287.36 304.235 Q1292.22 306.941 1295.44 310.483 Q1298.63 314.026 1298.63 317.408 Q1298.63 319.565 1297.44 321.176 Q1296.21 322.754 1294.18 323.623 Q1292.12 324.493 1289.87 324.912 Q1287.58 325.33 1285.1 325.33 Q1281.4 325.33 1277.37 324.525 Q1273.31 323.72 1269.64 322.367 Q1265.94 321.015 1262.59 319.115 Q1259.21 317.214 1256.76 315.121 Q1254.28 312.995 1252.83 310.612 Q1251.38 308.229 1251.38 306.007 Q1251.38 304.396 1252.09 303.108 Q1252.77 301.788 1253.96 300.95 Q1255.12 300.113 1256.5 299.533 Q1257.89 298.921 1259.5 298.632 Q1261.08 298.342 1262.4 298.213 Q1263.68 298.084 1264.91 298.084 M1260.82 302.432 Q1259.18 302.432 1257.95 302.561 Q1256.7 302.69 1255.44 303.044 Q1254.18 303.398 1253.51 304.171 Q1252.83 304.912 1252.83 306.071 Q1252.83 309.453 1259.75 313.253 Q1261.91 314.477 1264.84 315.572 Q1267.77 316.667 1269.16 317.053 Q1270.54 317.44 1273.96 318.342 L1273.96 304.558 Q1265.17 302.432 1260.82 302.432 M1276.05 305.137 L1276.05 318.857 Q1284.1 320.983 1289.13 320.983 Q1293.51 320.983 1295.34 320.081 Q1297.15 319.147 1297.15 317.408 Q1297.15 315.411 1295.15 313.543 Q1293.12 311.675 1289.45 309.775 Q1284.68 307.263 1276.05 305.137 Z" fill="#000000" fill-rule="nonzero" fill-opacity="1" /><path clip-path="url(#clip360)" d="M1248.43 253.776 Q1255.75 258.041 1262.91 260.11 Q1270.07 262.179 1277.42 262.179 Q1284.77 262.179 1292 260.11 Q1299.19 258.009 1306.48 253.776 L1306.48 258.869 Q1299 263.643 1291.78 266.03 Q1284.55 268.386 1277.42 268.386 Q1270.32 268.386 1263.13 266.03 Q1255.94 263.675 1248.43 258.869 L1248.43 253.776 Z" fill="#000000" fill-rule="nonzero" fill-opacity="1" /><path clip-path="url(#clip360)" d="M1267.71 221.757 Q1267.14 222.743 1266.89 223.921 Q1266.6 225.067 1266.6 226.467 Q1266.6 231.433 1269.85 234.106 Q1273.06 236.748 1279.11 236.748 L1297.89 236.748 L1297.89 242.636 L1262.24 242.636 L1262.24 236.748 L1267.78 236.748 Q1264.53 234.902 1262.97 231.942 Q1261.38 228.982 1261.38 224.749 Q1261.38 224.144 1261.47 223.412 Q1261.54 222.68 1261.7 221.789 L1267.71 221.757 Z" fill="#000000" fill-rule="nonzero" fill-opacity="1" /><path clip-path="url(#clip360)" d="M1279.97 199.413 Q1279.97 206.511 1281.59 209.248 Q1283.21 211.985 1287.13 211.985 Q1290.25 211.985 1292.09 209.948 Q1293.91 207.879 1293.91 204.347 Q1293.91 199.477 1290.47 196.549 Q1287 193.588 1281.27 193.588 L1279.97 193.588 L1279.97 199.413 M1277.55 187.732 L1297.89 187.732 L1297.89 193.588 L1292.48 193.588 Q1295.72 195.594 1297.28 198.586 Q1298.81 201.577 1298.81 205.906 Q1298.81 211.381 1295.75 214.627 Q1292.67 217.842 1287.51 217.842 Q1281.49 217.842 1278.44 213.831 Q1275.38 209.789 1275.38 201.8 L1275.38 193.588 L1274.81 193.588 Q1270.77 193.588 1268.57 196.262 Q1266.34 198.904 1266.34 203.71 Q1266.34 206.766 1267.08 209.662 Q1267.81 212.558 1269.27 215.232 L1263.86 215.232 Q1262.62 212.017 1262.02 208.993 Q1261.38 205.97 1261.38 203.105 Q1261.38 195.371 1265.39 191.551 Q1269.4 187.732 1277.55 187.732 Z" fill="#000000" fill-rule="nonzero" fill-opacity="1" /><path clip-path="url(#clip360)" d="M1267.65 152.211 L1248.36 152.211 L1248.36 146.355 L1297.89 146.355 L1297.89 152.211 L1292.54 152.211 Q1295.72 154.057 1297.28 156.89 Q1298.81 159.691 1298.81 163.638 Q1298.81 170.099 1293.65 174.173 Q1288.5 178.215 1280.09 178.215 Q1271.69 178.215 1266.54 174.173 Q1261.38 170.099 1261.38 163.638 Q1261.38 159.691 1262.94 156.89 Q1264.47 154.057 1267.65 152.211 M1280.09 172.168 Q1286.56 172.168 1290.25 169.526 Q1293.91 166.853 1293.91 162.206 Q1293.91 157.559 1290.25 154.885 Q1286.56 152.211 1280.09 152.211 Q1273.63 152.211 1269.97 154.885 Q1266.28 157.559 1266.28 162.206 Q1266.28 166.853 1269.97 169.526 Q1273.63 172.168 1280.09 172.168 Z" fill="#000000" fill-rule="nonzero" fill-opacity="1" /><path clip-path="url(#clip360)" d="M1248.43 135.215 L1248.43 130.122 Q1255.94 125.348 1263.13 122.993 Q1270.32 120.606 1277.42 120.606 Q1284.55 120.606 1291.78 122.993 Q1299 125.348 1306.48 130.122 L1306.48 135.215 Q1299.19 130.982 1292 128.913 Q1284.77 126.812 1277.42 126.812 Q1270.07 126.812 1262.91 128.913 Q1255.75 130.982 1248.43 135.215 Z" fill="#000000" fill-rule="nonzero" fill-opacity="1" /><polyline clip-path="url(#clip363)" style="stroke:#009af9; stroke-linecap:round; stroke-linejoin:round; stroke-width:4; stroke-opacity:1; fill:none" points="1471.02,388.745 1496.2,360.199 1521.38,295.443 1546.56,220.873 1571.73,154.14 1596.91,104.19 1622.09,73.1593 1647.27,58.8945 1672.45,57.1907 1697.62,63.3911 1722.8,73.3544 1747.98,83.9317 1773.16,93.0966 1798.34,99.8469 1823.51,103.979 1848.69,105.813 1873.87,105.937 1899.05,105.004 1924.23,103.588 1949.4,102.124 1974.58,100.882 1999.76,99.9868 2024.94,99.4565 2050.12,99.2381 2075.29,99.2463 2100.47,99.3907 2125.65,99.593 2150.83,99.7956 2176.01,99.9639 2201.18,100.082 2226.36,100.15 2251.54,100.176 2276.72,100.172 2301.9,100.15 2327.07,100.121 "/>
<polyline clip-path="url(#clip363)" style="stroke:#e26f46; stroke-linecap:round; stroke-linejoin:round; stroke-width:3; stroke-opacity:1; fill:none" stroke-dasharray="12, 6, 2, 6" points="1471.02,388.745 1496.2,367.35 1521.38,267.579 1546.56,203.258 1571.73,153.684 1596.91,104.45 1622.09,71.7666 1647.27,68.3491 1672.45,67.054 1697.62,58.5081 1722.8,81.6046 1747.98,81.8691 1773.16,105.311 1798.34,112.823 1823.51,104.708 1848.69,115.924 1873.87,106.048 1899.05,117.966 1924.23,98.2864 1949.4,97.4797 1974.58,100.806 1999.76,109.979 2024.94,99.2447 2050.12,97.8788 2075.29,102.86 2100.47,94.4468 2125.65,113.332 2150.83,96.4221 2176.01,94.4908 2201.18,100.33 2226.36,94.6352 2251.54,95.5752 2276.72,123.565 2301.9,95.4377 2327.07,111.846 "/>
<path clip-path="url(#clip360)" d="M2202.94 386.977 L2322.51 386.977 L2322.51 231.457 L2202.94 231.457  Z" fill="#ffffff" fill-rule="evenodd" fill-opacity="1"/>
<polyline clip-path="url(#clip360)" style="stroke:#000000; stroke-linecap:round; stroke-linejoin:round; stroke-width:4; stroke-opacity:1; fill:none" points="2202.94,386.977 2322.51,386.977 2322.51,231.457 2202.94,231.457 2202.94,386.977 "/>
<polyline clip-path="url(#clip360)" style="stroke:#009af9; stroke-linecap:round; stroke-linejoin:round; stroke-width:4; stroke-opacity:1; fill:none" points="2213.02,283.297 2273.51,283.297 "/>
<path clip-path="url(#clip360)" d="M2310.6 293.836 L2305.33 293.695 L2299.57 293.836 L2299.57 291.587 L2301.44 291.587 L2296.17 285.357 L2291.51 290.58 L2291.19 291.049 Q2291.19 291.26 2291.72 291.423 Q2292.29 291.587 2292.94 291.587 L2292.94 293.836 L2288 293.695 L2283.6 293.836 L2283.6 291.587 Q2285.07 291.587 2285.75 291.564 Q2286.45 291.517 2287.25 291.306 Q2288.05 291.096 2288.45 290.674 L2294.72 283.624 L2287.25 274.794 L2283.83 274.794 L2283.83 272.545 L2289.12 272.686 L2294.91 272.545 L2294.91 274.794 L2292.99 274.794 L2297.7 280.298 L2301.73 275.801 Q2301.75 275.777 2302.12 275.215 Q2301.37 274.794 2300.3 274.794 L2300.3 272.545 L2305.24 272.686 L2309.64 272.545 L2309.64 274.794 Q2307.72 274.794 2306.71 274.934 Q2305.73 275.051 2305.43 275.215 Q2305.15 275.379 2304.75 275.801 L2299.15 282.031 L2307.21 291.587 L2310.6 291.587 L2310.6 293.836 Z" fill="#000000" fill-rule="nonzero" fill-opacity="1" /><polyline clip-path="url(#clip360)" style="stroke:#e26f46; stroke-linecap:round; stroke-linejoin:round; stroke-width:3; stroke-opacity:1; fill:none" stroke-dasharray="12, 6, 2, 6" points="2213.02,335.137 2273.51,335.137 "/>
<path clip-path="url(#clip360)" d="M2306.18 323.615 L2305.77 324.287 Q2303.23 323.189 2300.07 321.434 Q2296.9 323.189 2294.36 324.287 L2293.97 323.615 Q2296.74 321.205 2300.07 319.352 Q2303.43 321.221 2306.18 323.615 Z" fill="#000000" fill-rule="nonzero" fill-opacity="1" /><path clip-path="url(#clip360)" d="M2310.6 350.681 L2305.33 350.54 L2299.57 350.681 L2299.57 348.432 L2301.44 348.432 L2296.17 342.202 L2291.51 347.425 L2291.19 347.893 Q2291.19 348.104 2291.72 348.268 Q2292.29 348.432 2292.94 348.432 L2292.94 350.681 L2288 350.54 L2283.6 350.681 L2283.6 348.432 Q2285.07 348.432 2285.75 348.409 Q2286.45 348.362 2287.25 348.151 Q2288.05 347.94 2288.45 347.519 L2294.72 340.468 L2287.25 331.638 L2283.83 331.638 L2283.83 329.39 L2289.12 329.53 L2294.91 329.39 L2294.91 331.638 L2292.99 331.638 L2297.7 337.142 L2301.73 332.645 Q2301.75 332.622 2302.12 332.06 Q2301.37 331.638 2300.3 331.638 L2300.3 329.39 L2305.24 329.53 L2309.64 329.39 L2309.64 331.638 Q2307.72 331.638 2306.71 331.779 Q2305.73 331.896 2305.43 332.06 Q2305.15 332.224 2304.75 332.645 L2299.15 338.876 L2307.21 348.432 L2310.6 348.432 L2310.6 350.681 Z" fill="#000000" fill-rule="nonzero" fill-opacity="1" /><path clip-path="url(#clip360)" d="M1445.34 910.936 L2352.76 910.936 L2352.76 559.488 L1445.34 559.488  Z" fill="#ffffff" fill-rule="evenodd" fill-opacity="1"/>
<defs>
  <clipPath id="clip364">
    <rect x="1445" y="559" width="908" height="352"/>
  </clipPath>
</defs>
<polyline clip-path="url(#clip364)" style="stroke:#000000; stroke-linecap:round; stroke-linejoin:round; stroke-width:2; stroke-opacity:0.1; fill:none" points="1471.02,910.936 1471.02,559.488 "/>
<polyline clip-path="url(#clip364)" style="stroke:#000000; stroke-linecap:round; stroke-linejoin:round; stroke-width:2; stroke-opacity:0.1; fill:none" points="1722.8,910.936 1722.8,559.488 "/>
<polyline clip-path="url(#clip364)" style="stroke:#000000; stroke-linecap:round; stroke-linejoin:round; stroke-width:2; stroke-opacity:0.1; fill:none" points="1974.58,910.936 1974.58,559.488 "/>
<polyline clip-path="url(#clip364)" style="stroke:#000000; stroke-linecap:round; stroke-linejoin:round; stroke-width:2; stroke-opacity:0.1; fill:none" points="2226.36,910.936 2226.36,559.488 "/>
<polyline clip-path="url(#clip360)" style="stroke:#000000; stroke-linecap:round; stroke-linejoin:round; stroke-width:4; stroke-opacity:1; fill:none" points="1445.34,910.936 2352.76,910.936 "/>
<polyline clip-path="url(#clip360)" style="stroke:#000000; stroke-linecap:round; stroke-linejoin:round; stroke-width:4; stroke-opacity:1; fill:none" points="1471.02,910.936 1471.02,892.038 "/>
<polyline clip-path="url(#clip360)" style="stroke:#000000; stroke-linecap:round; stroke-linejoin:round; stroke-width:4; stroke-opacity:1; fill:none" points="1722.8,910.936 1722.8,892.038 "/>
<polyline clip-path="url(#clip360)" style="stroke:#000000; stroke-linecap:round; stroke-linejoin:round; stroke-width:4; stroke-opacity:1; fill:none" points="1974.58,910.936 1974.58,892.038 "/>
<polyline clip-path="url(#clip360)" style="stroke:#000000; stroke-linecap:round; stroke-linejoin:round; stroke-width:4; stroke-opacity:1; fill:none" points="2226.36,910.936 2226.36,892.038 "/>
<path clip-path="url(#clip360)" d="M1471.02 941.855 Q1467.41 941.855 1465.58 945.419 Q1463.78 948.961 1463.78 956.091 Q1463.78 963.197 1465.58 966.762 Q1467.41 970.303 1471.02 970.303 Q1474.66 970.303 1476.46 966.762 Q1478.29 963.197 1478.29 956.091 Q1478.29 948.961 1476.46 945.419 Q1474.66 941.855 1471.02 941.855 M1471.02 938.151 Q1476.83 938.151 1479.89 942.757 Q1482.97 947.341 1482.97 956.091 Q1482.97 964.817 1479.89 969.424 Q1476.83 974.007 1471.02 974.007 Q1465.21 974.007 1462.13 969.424 Q1459.08 964.817 1459.08 956.091 Q1459.08 947.341 1462.13 942.757 Q1465.21 938.151 1471.02 938.151 Z" fill="#000000" fill-rule="nonzero" fill-opacity="1" /><path clip-path="url(#clip360)" d="M1713.18 969.401 L1720.82 969.401 L1720.82 943.035 L1712.51 944.702 L1712.51 940.443 L1720.78 938.776 L1725.45 938.776 L1725.45 969.401 L1733.09 969.401 L1733.09 973.336 L1713.18 973.336 L1713.18 969.401 Z" fill="#000000" fill-rule="nonzero" fill-opacity="1" /><path clip-path="url(#clip360)" d="M1969.24 969.401 L1985.55 969.401 L1985.55 973.336 L1963.61 973.336 L1963.61 969.401 Q1966.27 966.646 1970.86 962.016 Q1975.46 957.364 1976.64 956.021 Q1978.89 953.498 1979.77 951.762 Q1980.67 950.003 1980.67 948.313 Q1980.67 945.558 1978.73 943.822 Q1976.8 942.086 1973.7 942.086 Q1971.5 942.086 1969.05 942.85 Q1966.62 943.614 1963.84 945.165 L1963.84 940.443 Q1966.67 939.308 1969.12 938.73 Q1971.57 938.151 1973.61 938.151 Q1978.98 938.151 1982.17 940.836 Q1985.37 943.521 1985.37 948.012 Q1985.37 950.142 1984.56 952.063 Q1983.77 953.961 1981.67 956.554 Q1981.09 957.225 1977.99 960.442 Q1974.88 963.637 1969.24 969.401 Z" fill="#000000" fill-rule="nonzero" fill-opacity="1" /><path clip-path="url(#clip360)" d="M2230.61 954.702 Q2233.97 955.419 2235.84 957.688 Q2237.74 959.956 2237.74 963.29 Q2237.74 968.405 2234.22 971.206 Q2230.7 974.007 2224.22 974.007 Q2222.05 974.007 2219.73 973.567 Q2217.44 973.151 2214.99 972.294 L2214.99 967.78 Q2216.93 968.915 2219.24 969.493 Q2221.56 970.072 2224.08 970.072 Q2228.48 970.072 2230.77 968.336 Q2233.09 966.6 2233.09 963.29 Q2233.09 960.234 2230.93 958.521 Q2228.8 956.785 2224.99 956.785 L2220.96 956.785 L2220.96 952.942 L2225.17 952.942 Q2228.62 952.942 2230.45 951.577 Q2232.28 950.188 2232.28 947.595 Q2232.28 944.933 2230.38 943.521 Q2228.5 942.086 2224.99 942.086 Q2223.06 942.086 2220.86 942.503 Q2218.67 942.919 2216.03 943.799 L2216.03 939.632 Q2218.69 938.892 2221 938.521 Q2223.34 938.151 2225.4 938.151 Q2230.73 938.151 2233.83 940.581 Q2236.93 942.989 2236.93 947.109 Q2236.93 949.979 2235.29 951.97 Q2233.64 953.938 2230.61 954.702 Z" fill="#000000" fill-rule="nonzero" fill-opacity="1" /><polyline clip-path="url(#clip364)" style="stroke:#000000; stroke-linecap:round; stroke-linejoin:round; stroke-width:2; stroke-opacity:0.1; fill:none" points="1445.34,850.016 2352.76,850.016 "/>
<polyline clip-path="url(#clip364)" style="stroke:#000000; stroke-linecap:round; stroke-linejoin:round; stroke-width:2; stroke-opacity:0.1; fill:none" points="1445.34,755.387 2352.76,755.387 "/>
<polyline clip-path="url(#clip364)" style="stroke:#000000; stroke-linecap:round; stroke-linejoin:round; stroke-width:2; stroke-opacity:0.1; fill:none" points="1445.34,660.758 2352.76,660.758 "/>
<polyline clip-path="url(#clip364)" style="stroke:#000000; stroke-linecap:round; stroke-linejoin:round; stroke-width:2; stroke-opacity:0.1; fill:none" points="1445.34,566.129 2352.76,566.129 "/>
<polyline clip-path="url(#clip360)" style="stroke:#000000; stroke-linecap:round; stroke-linejoin:round; stroke-width:4; stroke-opacity:1; fill:none" points="1445.34,910.936 1445.34,559.488 "/>
<polyline clip-path="url(#clip360)" style="stroke:#000000; stroke-linecap:round; stroke-linejoin:round; stroke-width:4; stroke-opacity:1; fill:none" points="1445.34,850.016 1464.24,850.016 "/>
<polyline clip-path="url(#clip360)" style="stroke:#000000; stroke-linecap:round; stroke-linejoin:round; stroke-width:4; stroke-opacity:1; fill:none" points="1445.34,755.387 1464.24,755.387 "/>
<polyline clip-path="url(#clip360)" style="stroke:#000000; stroke-linecap:round; stroke-linejoin:round; stroke-width:4; stroke-opacity:1; fill:none" points="1445.34,660.758 1464.24,660.758 "/>
<polyline clip-path="url(#clip360)" style="stroke:#000000; stroke-linecap:round; stroke-linejoin:round; stroke-width:4; stroke-opacity:1; fill:none" points="1445.34,566.129 1464.24,566.129 "/>
<path clip-path="url(#clip360)" d="M1352.17 835.815 Q1348.55 835.815 1346.73 839.379 Q1344.92 842.921 1344.92 850.051 Q1344.92 857.157 1346.73 860.722 Q1348.55 864.264 1352.17 864.264 Q1355.8 864.264 1357.6 860.722 Q1359.43 857.157 1359.43 850.051 Q1359.43 842.921 1357.6 839.379 Q1355.8 835.815 1352.17 835.815 M1352.17 832.111 Q1357.98 832.111 1361.03 836.717 Q1364.11 841.301 1364.11 850.051 Q1364.11 858.777 1361.03 863.384 Q1357.98 867.967 1352.17 867.967 Q1346.35 867.967 1343.28 863.384 Q1340.22 858.777 1340.22 850.051 Q1340.22 841.301 1343.28 836.717 Q1346.35 832.111 1352.17 832.111 Z" fill="#000000" fill-rule="nonzero" fill-opacity="1" /><path clip-path="url(#clip360)" d="M1372.33 861.416 L1377.21 861.416 L1377.21 867.296 L1372.33 867.296 L1372.33 861.416 Z" fill="#000000" fill-rule="nonzero" fill-opacity="1" /><path clip-path="url(#clip360)" d="M1397.4 835.815 Q1393.79 835.815 1391.96 839.379 Q1390.15 842.921 1390.15 850.051 Q1390.15 857.157 1391.96 860.722 Q1393.79 864.264 1397.4 864.264 Q1401.03 864.264 1402.84 860.722 Q1404.66 857.157 1404.66 850.051 Q1404.66 842.921 1402.84 839.379 Q1401.03 835.815 1397.4 835.815 M1397.4 832.111 Q1403.21 832.111 1406.26 836.717 Q1409.34 841.301 1409.34 850.051 Q1409.34 858.777 1406.26 863.384 Q1403.21 867.967 1397.4 867.967 Q1391.59 867.967 1388.51 863.384 Q1385.45 858.777 1385.45 850.051 Q1385.45 841.301 1388.51 836.717 Q1391.59 832.111 1397.4 832.111 Z" fill="#000000" fill-rule="nonzero" fill-opacity="1" /><path clip-path="url(#clip360)" d="M1353.16 741.186 Q1349.55 741.186 1347.72 744.751 Q1345.92 748.292 1345.92 755.422 Q1345.92 762.528 1347.72 766.093 Q1349.55 769.635 1353.16 769.635 Q1356.79 769.635 1358.6 766.093 Q1360.43 762.528 1360.43 755.422 Q1360.43 748.292 1358.6 744.751 Q1356.79 741.186 1353.16 741.186 M1353.16 737.482 Q1358.97 737.482 1362.03 742.089 Q1365.1 746.672 1365.1 755.422 Q1365.1 764.149 1362.03 768.755 Q1358.97 773.338 1353.16 773.338 Q1347.35 773.338 1344.27 768.755 Q1341.22 764.149 1341.22 755.422 Q1341.22 746.672 1344.27 742.089 Q1347.35 737.482 1353.16 737.482 Z" fill="#000000" fill-rule="nonzero" fill-opacity="1" /><path clip-path="url(#clip360)" d="M1373.32 766.787 L1378.21 766.787 L1378.21 772.667 L1373.32 772.667 L1373.32 766.787 Z" fill="#000000" fill-rule="nonzero" fill-opacity="1" /><path clip-path="url(#clip360)" d="M1388.44 738.107 L1406.79 738.107 L1406.79 742.042 L1392.72 742.042 L1392.72 750.514 Q1393.74 750.167 1394.76 750.005 Q1395.78 749.82 1396.79 749.82 Q1402.58 749.82 1405.96 752.991 Q1409.34 756.163 1409.34 761.579 Q1409.34 767.158 1405.87 770.26 Q1402.4 773.338 1396.08 773.338 Q1393.9 773.338 1391.63 772.968 Q1389.39 772.598 1386.98 771.857 L1386.98 767.158 Q1389.06 768.292 1391.29 768.848 Q1393.51 769.403 1395.98 769.403 Q1399.99 769.403 1402.33 767.297 Q1404.66 765.19 1404.66 761.579 Q1404.66 757.968 1402.33 755.862 Q1399.99 753.755 1395.98 753.755 Q1394.11 753.755 1392.23 754.172 Q1390.38 754.588 1388.44 755.468 L1388.44 738.107 Z" fill="#000000" fill-rule="nonzero" fill-opacity="1" /><path clip-path="url(#clip360)" d="M1342.98 674.103 L1350.61 674.103 L1350.61 647.737 L1342.3 649.404 L1342.3 645.145 L1350.57 643.478 L1355.24 643.478 L1355.24 674.103 L1362.88 674.103 L1362.88 678.038 L1342.98 678.038 L1342.98 674.103 Z" fill="#000000" fill-rule="nonzero" fill-opacity="1" /><path clip-path="url(#clip360)" d="M1372.33 672.159 L1377.21 672.159 L1377.21 678.038 L1372.33 678.038 L1372.33 672.159 Z" fill="#000000" fill-rule="nonzero" fill-opacity="1" /><path clip-path="url(#clip360)" d="M1397.4 646.557 Q1393.79 646.557 1391.96 650.122 Q1390.15 653.663 1390.15 660.793 Q1390.15 667.899 1391.96 671.464 Q1393.79 675.006 1397.4 675.006 Q1401.03 675.006 1402.84 671.464 Q1404.66 667.899 1404.66 660.793 Q1404.66 653.663 1402.84 650.122 Q1401.03 646.557 1397.4 646.557 M1397.4 642.853 Q1403.21 642.853 1406.26 647.46 Q1409.34 652.043 1409.34 660.793 Q1409.34 669.52 1406.26 674.126 Q1403.21 678.71 1397.4 678.71 Q1391.59 678.71 1388.51 674.126 Q1385.45 669.52 1385.45 660.793 Q1385.45 652.043 1388.51 647.46 Q1391.59 642.853 1397.4 642.853 Z" fill="#000000" fill-rule="nonzero" fill-opacity="1" /><path clip-path="url(#clip360)" d="M1343.97 579.474 L1351.61 579.474 L1351.61 553.109 L1343.3 554.775 L1343.3 550.516 L1351.56 548.849 L1356.24 548.849 L1356.24 579.474 L1363.88 579.474 L1363.88 583.409 L1343.97 583.409 L1343.97 579.474 Z" fill="#000000" fill-rule="nonzero" fill-opacity="1" /><path clip-path="url(#clip360)" d="M1373.32 577.53 L1378.21 577.53 L1378.21 583.409 L1373.32 583.409 L1373.32 577.53 Z" fill="#000000" fill-rule="nonzero" fill-opacity="1" /><path clip-path="url(#clip360)" d="M1388.44 548.849 L1406.79 548.849 L1406.79 552.785 L1392.72 552.785 L1392.72 561.257 Q1393.74 560.909 1394.76 560.747 Q1395.78 560.562 1396.79 560.562 Q1402.58 560.562 1405.96 563.734 Q1409.34 566.905 1409.34 572.321 Q1409.34 577.9 1405.87 581.002 Q1402.4 584.081 1396.08 584.081 Q1393.9 584.081 1391.63 583.71 Q1389.39 583.34 1386.98 582.599 L1386.98 577.9 Q1389.06 579.034 1391.29 579.59 Q1393.51 580.145 1395.98 580.145 Q1399.99 580.145 1402.33 578.039 Q1404.66 575.933 1404.66 572.321 Q1404.66 568.71 1402.33 566.604 Q1399.99 564.497 1395.98 564.497 Q1394.11 564.497 1392.23 564.914 Q1390.38 565.331 1388.44 566.21 L1388.44 548.849 Z" fill="#000000" fill-rule="nonzero" fill-opacity="1" /><path clip-path="url(#clip360)" d="M1265.24 831.559 Q1268.23 831.559 1274.03 833.072 Q1276.54 833.684 1278.83 834.522 Q1281.08 835.327 1283.27 836.518 Q1285.46 837.71 1287.04 839.095 Q1288.59 840.48 1289.55 842.283 Q1290.52 844.087 1290.52 846.084 Q1290.52 849.24 1288.65 851.108 Q1286.75 852.943 1283.5 853.523 Q1290.52 857.839 1290.52 863.604 Q1290.52 867.178 1287.98 868.853 Q1285.4 870.528 1281.08 870.528 Q1277.44 870.528 1273.68 869.562 Q1266.53 867.726 1261.53 864.151 Q1260.95 863.668 1260.95 862.959 Q1260.95 862.541 1261.08 862.347 Q1261.44 861.768 1262.02 861.768 Q1262.44 861.768 1262.85 862.09 Q1265.98 864.344 1268.65 865.826 Q1271.33 867.307 1274.03 867.984 Q1276.35 868.499 1278.31 868.499 Q1281.63 868.499 1283.69 867.082 Q1285.75 865.632 1285.75 862.766 Q1285.75 860.125 1284.11 857.806 Q1282.44 855.488 1279.63 853.781 Q1276.57 853.684 1273.68 852.943 Q1270.58 852.267 1270.58 850.689 Q1270.58 849.433 1272.29 849.433 Q1272.87 849.433 1274.03 849.691 Q1277.09 850.399 1279.83 851.687 Q1282.5 851.236 1284.14 849.562 Q1285.75 847.887 1285.75 845.214 Q1285.75 842.734 1283.95 840.544 Q1282.15 838.322 1279.51 836.905 Q1276.83 835.456 1273.68 834.65 Q1272.61 834.393 1271.26 834.393 Q1267.65 834.393 1265.43 836.905 Q1264.72 837.613 1263.79 837.613 Q1262.69 837.613 1261.7 836.712 Q1260.63 835.649 1260.63 834.393 Q1260.63 833.459 1261.21 832.879 Q1262.37 831.559 1265.24 831.559 Z" fill="#000000" fill-rule="nonzero" fill-opacity="1" /><path clip-path="url(#clip360)" d="M1240.32 788.989 Q1247.64 793.255 1254.8 795.323 Q1261.96 797.392 1269.31 797.392 Q1276.67 797.392 1283.89 795.323 Q1291.08 793.223 1298.37 788.989 L1298.37 794.082 Q1290.89 798.856 1283.67 801.243 Q1276.44 803.599 1269.31 803.599 Q1262.22 803.599 1255.02 801.243 Q1247.83 798.888 1240.32 794.082 L1240.32 788.989 Z" fill="#000000" fill-rule="nonzero" fill-opacity="1" /><path clip-path="url(#clip360)" d="M1259.61 756.97 Q1259.03 757.957 1258.78 759.134 Q1258.49 760.28 1258.49 761.681 Q1258.49 766.646 1261.74 769.319 Q1264.95 771.961 1271 771.961 L1289.78 771.961 L1289.78 777.85 L1254.13 777.85 L1254.13 771.961 L1259.67 771.961 Q1256.42 770.115 1254.86 767.155 Q1253.27 764.195 1253.27 759.962 Q1253.27 759.357 1253.37 758.625 Q1253.43 757.893 1253.59 757.002 L1259.61 756.97 Z" fill="#000000" fill-rule="nonzero" fill-opacity="1" /><path clip-path="url(#clip360)" d="M1271.86 734.626 Q1271.86 741.724 1273.48 744.461 Q1275.11 747.199 1279.02 747.199 Q1282.14 747.199 1283.99 745.162 Q1285.8 743.093 1285.8 739.56 Q1285.8 734.69 1282.36 731.762 Q1278.89 728.802 1273.16 728.802 L1271.86 728.802 L1271.86 734.626 M1269.44 722.945 L1289.78 722.945 L1289.78 728.802 L1284.37 728.802 Q1287.61 730.807 1289.17 733.799 Q1290.7 736.791 1290.7 741.119 Q1290.7 746.594 1287.65 749.84 Q1284.56 753.055 1279.4 753.055 Q1273.39 753.055 1270.33 749.045 Q1267.28 745.002 1267.28 737.013 L1267.28 728.802 L1266.7 728.802 Q1262.66 728.802 1260.46 731.475 Q1258.24 734.117 1258.24 738.923 Q1258.24 741.979 1258.97 744.875 Q1259.7 747.772 1261.17 750.445 L1255.75 750.445 Q1254.51 747.23 1253.91 744.207 Q1253.27 741.183 1253.27 738.318 Q1253.27 730.584 1257.28 726.765 Q1261.29 722.945 1269.44 722.945 Z" fill="#000000" fill-rule="nonzero" fill-opacity="1" /><path clip-path="url(#clip360)" d="M1259.54 687.425 L1240.25 687.425 L1240.25 681.568 L1289.78 681.568 L1289.78 687.425 L1284.43 687.425 Q1287.61 689.271 1289.17 692.103 Q1290.7 694.904 1290.7 698.851 Q1290.7 705.312 1285.55 709.386 Q1280.39 713.429 1271.99 713.429 Q1263.58 713.429 1258.43 709.386 Q1253.27 705.312 1253.27 698.851 Q1253.27 694.904 1254.83 692.103 Q1256.36 689.271 1259.54 687.425 M1271.99 707.381 Q1278.45 707.381 1282.14 704.739 Q1285.8 702.066 1285.8 697.419 Q1285.8 692.772 1282.14 690.098 Q1278.45 687.425 1271.99 687.425 Q1265.53 687.425 1261.87 690.098 Q1258.17 692.772 1258.17 697.419 Q1258.17 702.066 1261.87 704.739 Q1265.53 707.381 1271.99 707.381 Z" fill="#000000" fill-rule="nonzero" fill-opacity="1" /><path clip-path="url(#clip360)" d="M1242.26 659.097 L1242.26 653.686 L1295.83 670.237 L1295.83 675.648 L1242.26 659.097 Z" fill="#000000" fill-rule="nonzero" fill-opacity="1" /><path clip-path="url(#clip360)" d="M1255.18 624.818 L1260.72 624.818 Q1259.45 627.301 1258.81 629.974 Q1258.17 632.648 1258.17 635.512 Q1258.17 639.873 1259.51 642.069 Q1260.85 644.233 1263.52 644.233 Q1265.56 644.233 1266.74 642.674 Q1267.88 641.114 1268.93 636.404 L1269.38 634.398 Q1270.71 628.16 1273.16 625.55 Q1275.58 622.908 1279.94 622.908 Q1284.91 622.908 1287.81 626.855 Q1290.7 630.77 1290.7 637.645 Q1290.7 640.509 1290.13 643.629 Q1289.59 646.716 1288.47 650.153 L1282.43 650.153 Q1284.11 646.907 1284.97 643.756 Q1285.8 640.605 1285.8 637.517 Q1285.8 633.38 1284.4 631.152 Q1282.97 628.924 1280.39 628.924 Q1278 628.924 1276.73 630.547 Q1275.46 632.138 1274.28 637.581 L1273.8 639.618 Q1272.66 645.061 1270.3 647.48 Q1267.91 649.899 1263.78 649.899 Q1258.75 649.899 1256.01 646.334 Q1253.27 642.769 1253.27 636.213 Q1253.27 632.966 1253.75 630.101 Q1254.23 627.237 1255.18 624.818 Z" fill="#000000" fill-rule="nonzero" fill-opacity="1" /><path clip-path="url(#clip360)" d="M1240.32 614.505 L1240.32 609.413 Q1247.83 604.639 1255.02 602.283 Q1262.22 599.896 1269.31 599.896 Q1276.44 599.896 1283.67 602.283 Q1290.89 604.639 1298.37 609.413 L1298.37 614.505 Q1291.08 610.272 1283.89 608.203 Q1276.67 606.103 1269.31 606.103 Q1261.96 606.103 1254.8 608.203 Q1247.64 610.272 1240.32 614.505 Z" fill="#000000" fill-rule="nonzero" fill-opacity="1" /><polyline clip-path="url(#clip364)" style="stroke:#009af9; stroke-linecap:round; stroke-linejoin:round; stroke-width:4; stroke-opacity:1; fill:none" points="1471.02,850.016 1496.2,701.007 1521.38,638.688 1546.56,640.34 1571.73,679.663 1596.91,733.741 1622.09,786.574 1647.27,829.315 1672.45,858.692 1697.62,875.074 1722.8,880.83 1747.98,879.143 1773.16,873.184 1798.34,865.619 1823.51,858.356 1848.69,852.516 1873.87,848.543 1899.05,846.386 1924.23,845.702 1949.4,846.028 1974.58,846.91 1999.76,847.978 2024.94,848.975 2050.12,849.759 2075.29,850.278 2100.47,850.548 2125.65,850.621 2150.83,850.561 2176.01,850.432 2201.18,850.282 2226.36,850.145 2251.54,850.04 2276.72,849.972 2301.9,849.939 2327.07,849.931 "/>
<polyline clip-path="url(#clip364)" style="stroke:#e26f46; stroke-linecap:round; stroke-linejoin:round; stroke-width:3; stroke-opacity:1; fill:none" stroke-dasharray="12, 6, 2, 6" points="1471.02,850.016 1496.2,688.984 1521.38,569.435 1546.56,612.985 1571.73,680.328 1596.91,736.536 1622.09,792.546 1647.27,846.072 1672.45,875.651 1697.62,885.652 1722.8,900.989 1747.98,891.272 1773.16,890.29 1798.34,875.632 1823.51,858.057 1848.69,856.136 1873.87,844.903 1899.05,848.969 1924.23,837.809 1949.4,843.295 1974.58,848.601 1999.76,853.155 2024.94,846.48 2050.12,848.483 2075.29,852.261 2100.47,848.32 2125.65,857.728 2150.83,845.753 2176.01,848.065 2201.18,852.673 2226.36,849.665 2251.54,851.458 2276.72,861.898 2301.9,841.156 2327.07,851.879 "/>
<path clip-path="url(#clip360)" d="M2202.94 726.723 L2322.51 726.723 L2322.51 571.203 L2202.94 571.203  Z" fill="#ffffff" fill-rule="evenodd" fill-opacity="1"/>
<polyline clip-path="url(#clip360)" style="stroke:#000000; stroke-linecap:round; stroke-linejoin:round; stroke-width:4; stroke-opacity:1; fill:none" points="2202.94,726.723 2322.51,726.723 2322.51,571.203 2202.94,571.203 2202.94,726.723 "/>
<polyline clip-path="url(#clip360)" style="stroke:#009af9; stroke-linecap:round; stroke-linejoin:round; stroke-width:4; stroke-opacity:1; fill:none" points="2213.02,623.043 2273.51,623.043 "/>
<path clip-path="url(#clip360)" d="M2310.6 633.582 L2305.33 633.442 L2299.57 633.582 L2299.57 631.334 L2301.44 631.334 L2296.17 625.103 L2291.51 630.326 L2291.19 630.795 Q2291.19 631.006 2291.72 631.17 Q2292.29 631.334 2292.94 631.334 L2292.94 633.582 L2288 633.442 L2283.6 633.582 L2283.6 631.334 Q2285.07 631.334 2285.75 631.31 Q2286.45 631.263 2287.25 631.052 Q2288.05 630.842 2288.45 630.42 L2294.72 623.37 L2287.25 614.54 L2283.83 614.54 L2283.83 612.291 L2289.12 612.432 L2294.91 612.291 L2294.91 614.54 L2292.99 614.54 L2297.7 620.044 L2301.73 615.547 Q2301.75 615.523 2302.12 614.961 Q2301.37 614.54 2300.3 614.54 L2300.3 612.291 L2305.24 612.432 L2309.64 612.291 L2309.64 614.54 Q2307.72 614.54 2306.71 614.68 Q2305.73 614.797 2305.43 614.961 Q2305.15 615.125 2304.75 615.547 L2299.15 621.777 L2307.21 631.334 L2310.6 631.334 L2310.6 633.582 Z" fill="#000000" fill-rule="nonzero" fill-opacity="1" /><polyline clip-path="url(#clip360)" style="stroke:#e26f46; stroke-linecap:round; stroke-linejoin:round; stroke-width:3; stroke-opacity:1; fill:none" stroke-dasharray="12, 6, 2, 6" points="2213.02,674.883 2273.51,674.883 "/>
<path clip-path="url(#clip360)" d="M2306.18 663.361 L2305.77 664.033 Q2303.23 662.935 2300.07 661.18 Q2296.9 662.935 2294.36 664.033 L2293.97 663.361 Q2296.74 660.951 2300.07 659.098 Q2303.43 660.967 2306.18 663.361 Z" fill="#000000" fill-rule="nonzero" fill-opacity="1" /><path clip-path="url(#clip360)" d="M2310.6 690.427 L2305.33 690.286 L2299.57 690.427 L2299.57 688.178 L2301.44 688.178 L2296.17 681.948 L2291.51 687.171 L2291.19 687.639 Q2291.19 687.85 2291.72 688.014 Q2292.29 688.178 2292.94 688.178 L2292.94 690.427 L2288 690.286 L2283.6 690.427 L2283.6 688.178 Q2285.07 688.178 2285.75 688.155 Q2286.45 688.108 2287.25 687.897 Q2288.05 687.686 2288.45 687.265 L2294.72 680.214 L2287.25 671.384 L2283.83 671.384 L2283.83 669.136 L2289.12 669.276 L2294.91 669.136 L2294.91 671.384 L2292.99 671.384 L2297.7 676.888 L2301.73 672.391 Q2301.75 672.368 2302.12 671.806 Q2301.37 671.384 2300.3 671.384 L2300.3 669.136 L2305.24 669.276 L2309.64 669.136 L2309.64 671.384 Q2307.72 671.384 2306.71 671.525 Q2305.73 671.642 2305.43 671.806 Q2305.15 671.97 2304.75 672.391 L2299.15 678.622 L2307.21 688.178 L2310.6 688.178 L2310.6 690.427 Z" fill="#000000" fill-rule="nonzero" fill-opacity="1" /><path clip-path="url(#clip360)" d="M1445.34 1423.18 L2352.76 1423.18 L2352.76 1071.73 L1445.34 1071.73  Z" fill="#ffffff" fill-rule="evenodd" fill-opacity="1"/>
<defs>
  <clipPath id="clip365">
    <rect x="1445" y="1071" width="908" height="352"/>
  </clipPath>
</defs>
<polyline clip-path="url(#clip365)" style="stroke:#000000; stroke-linecap:round; stroke-linejoin:round; stroke-width:2; stroke-opacity:0.1; fill:none" points="1471.02,1423.18 1471.02,1071.73 "/>
<polyline clip-path="url(#clip365)" style="stroke:#000000; stroke-linecap:round; stroke-linejoin:round; stroke-width:2; stroke-opacity:0.1; fill:none" points="1722.8,1423.18 1722.8,1071.73 "/>
<polyline clip-path="url(#clip365)" style="stroke:#000000; stroke-linecap:round; stroke-linejoin:round; stroke-width:2; stroke-opacity:0.1; fill:none" points="1974.58,1423.18 1974.58,1071.73 "/>
<polyline clip-path="url(#clip365)" style="stroke:#000000; stroke-linecap:round; stroke-linejoin:round; stroke-width:2; stroke-opacity:0.1; fill:none" points="2226.36,1423.18 2226.36,1071.73 "/>
<polyline clip-path="url(#clip360)" style="stroke:#000000; stroke-linecap:round; stroke-linejoin:round; stroke-width:4; stroke-opacity:1; fill:none" points="1445.34,1423.18 2352.76,1423.18 "/>
<polyline clip-path="url(#clip360)" style="stroke:#000000; stroke-linecap:round; stroke-linejoin:round; stroke-width:4; stroke-opacity:1; fill:none" points="1471.02,1423.18 1471.02,1404.28 "/>
<polyline clip-path="url(#clip360)" style="stroke:#000000; stroke-linecap:round; stroke-linejoin:round; stroke-width:4; stroke-opacity:1; fill:none" points="1722.8,1423.18 1722.8,1404.28 "/>
<polyline clip-path="url(#clip360)" style="stroke:#000000; stroke-linecap:round; stroke-linejoin:round; stroke-width:4; stroke-opacity:1; fill:none" points="1974.58,1423.18 1974.58,1404.28 "/>
<polyline clip-path="url(#clip360)" style="stroke:#000000; stroke-linecap:round; stroke-linejoin:round; stroke-width:4; stroke-opacity:1; fill:none" points="2226.36,1423.18 2226.36,1404.28 "/>
<path clip-path="url(#clip360)" d="M1471.02 1454.1 Q1467.41 1454.1 1465.58 1457.66 Q1463.78 1461.2 1463.78 1468.33 Q1463.78 1475.44 1465.58 1479.01 Q1467.41 1482.55 1471.02 1482.55 Q1474.66 1482.55 1476.46 1479.01 Q1478.29 1475.44 1478.29 1468.33 Q1478.29 1461.2 1476.46 1457.66 Q1474.66 1454.1 1471.02 1454.1 M1471.02 1450.39 Q1476.83 1450.39 1479.89 1455 Q1482.97 1459.58 1482.97 1468.33 Q1482.97 1477.06 1479.89 1481.67 Q1476.83 1486.25 1471.02 1486.25 Q1465.21 1486.25 1462.13 1481.67 Q1459.08 1477.06 1459.08 1468.33 Q1459.08 1459.58 1462.13 1455 Q1465.21 1450.39 1471.02 1450.39 Z" fill="#000000" fill-rule="nonzero" fill-opacity="1" /><path clip-path="url(#clip360)" d="M1713.18 1481.64 L1720.82 1481.64 L1720.82 1455.28 L1712.51 1456.95 L1712.51 1452.69 L1720.78 1451.02 L1725.45 1451.02 L1725.45 1481.64 L1733.09 1481.64 L1733.09 1485.58 L1713.18 1485.58 L1713.18 1481.64 Z" fill="#000000" fill-rule="nonzero" fill-opacity="1" /><path clip-path="url(#clip360)" d="M1969.24 1481.64 L1985.55 1481.64 L1985.55 1485.58 L1963.61 1485.58 L1963.61 1481.64 Q1966.27 1478.89 1970.86 1474.26 Q1975.46 1469.61 1976.64 1468.27 Q1978.89 1465.74 1979.77 1464.01 Q1980.67 1462.25 1980.67 1460.56 Q1980.67 1457.8 1978.73 1456.07 Q1976.8 1454.33 1973.7 1454.33 Q1971.5 1454.33 1969.05 1455.09 Q1966.62 1455.86 1963.84 1457.41 L1963.84 1452.69 Q1966.67 1451.55 1969.12 1450.97 Q1971.57 1450.39 1973.61 1450.39 Q1978.98 1450.39 1982.17 1453.08 Q1985.37 1455.77 1985.37 1460.26 Q1985.37 1462.39 1984.56 1464.31 Q1983.77 1466.2 1981.67 1468.8 Q1981.09 1469.47 1977.99 1472.69 Q1974.88 1475.88 1969.24 1481.64 Z" fill="#000000" fill-rule="nonzero" fill-opacity="1" /><path clip-path="url(#clip360)" d="M2230.61 1466.95 Q2233.97 1467.66 2235.84 1469.93 Q2237.74 1472.2 2237.74 1475.53 Q2237.74 1480.65 2234.22 1483.45 Q2230.7 1486.25 2224.22 1486.25 Q2222.05 1486.25 2219.73 1485.81 Q2217.44 1485.39 2214.99 1484.54 L2214.99 1480.02 Q2216.93 1481.16 2219.24 1481.74 Q2221.56 1482.32 2224.08 1482.32 Q2228.48 1482.32 2230.77 1480.58 Q2233.09 1478.84 2233.09 1475.53 Q2233.09 1472.48 2230.93 1470.77 Q2228.8 1469.03 2224.99 1469.03 L2220.96 1469.03 L2220.96 1465.19 L2225.17 1465.19 Q2228.62 1465.19 2230.45 1463.82 Q2232.28 1462.43 2232.28 1459.84 Q2232.28 1457.18 2230.38 1455.77 Q2228.5 1454.33 2224.99 1454.33 Q2223.06 1454.33 2220.86 1454.75 Q2218.67 1455.16 2216.03 1456.04 L2216.03 1451.88 Q2218.69 1451.14 2221 1450.77 Q2223.34 1450.39 2225.4 1450.39 Q2230.73 1450.39 2233.83 1452.83 Q2236.93 1455.23 2236.93 1459.35 Q2236.93 1462.22 2235.29 1464.21 Q2233.64 1466.18 2230.61 1466.95 Z" fill="#000000" fill-rule="nonzero" fill-opacity="1" /><path clip-path="url(#clip360)" d="M1769.22 1520.52 L1809.42 1520.52 L1809.42 1525.93 L1792.55 1525.93 L1792.55 1568.04 L1786.09 1568.04 L1786.09 1525.93 L1769.22 1525.93 L1769.22 1520.52 Z" fill="#000000" fill-rule="nonzero" fill-opacity="1" /><path clip-path="url(#clip360)" d="M1813.37 1532.4 L1819.22 1532.4 L1819.22 1568.04 L1813.37 1568.04 L1813.37 1532.4 M1813.37 1518.52 L1819.22 1518.52 L1819.22 1525.93 L1813.37 1525.93 L1813.37 1518.52 Z" fill="#000000" fill-rule="nonzero" fill-opacity="1" /><path clip-path="url(#clip360)" d="M1859.23 1539.24 Q1861.43 1535.29 1864.48 1533.41 Q1867.54 1531.54 1871.68 1531.54 Q1877.25 1531.54 1880.27 1535.45 Q1883.29 1539.33 1883.29 1546.53 L1883.29 1568.04 L1877.4 1568.04 L1877.4 1546.72 Q1877.4 1541.59 1875.59 1539.11 Q1873.78 1536.63 1870.05 1536.63 Q1865.5 1536.63 1862.86 1539.65 Q1860.22 1542.68 1860.22 1547.9 L1860.22 1568.04 L1854.33 1568.04 L1854.33 1546.72 Q1854.33 1541.56 1852.51 1539.11 Q1850.7 1536.63 1846.91 1536.63 Q1842.43 1536.63 1839.78 1539.68 Q1837.14 1542.71 1837.14 1547.9 L1837.14 1568.04 L1831.25 1568.04 L1831.25 1532.4 L1837.14 1532.4 L1837.14 1537.93 Q1839.15 1534.66 1841.95 1533.1 Q1844.75 1531.54 1848.6 1531.54 Q1852.48 1531.54 1855.19 1533.51 Q1857.93 1535.48 1859.23 1539.24 Z" fill="#000000" fill-rule="nonzero" fill-opacity="1" /><path clip-path="url(#clip360)" d="M1925.47 1548.76 L1925.47 1551.62 L1898.54 1551.62 Q1898.92 1557.67 1902.17 1560.85 Q1905.45 1564 1911.27 1564 Q1914.64 1564 1917.8 1563.17 Q1920.98 1562.35 1924.1 1560.69 L1924.1 1566.23 Q1920.95 1567.57 1917.64 1568.27 Q1914.33 1568.97 1910.92 1568.97 Q1902.39 1568.97 1897.39 1564 Q1892.43 1559.04 1892.43 1550.57 Q1892.43 1541.82 1897.14 1536.69 Q1901.88 1531.54 1909.9 1531.54 Q1917.1 1531.54 1921.26 1536.18 Q1925.47 1540.8 1925.47 1548.76 M1919.61 1547.04 Q1919.55 1542.23 1916.9 1539.37 Q1914.29 1536.5 1909.97 1536.5 Q1905.06 1536.5 1902.1 1539.27 Q1899.18 1542.04 1898.73 1547.07 L1919.61 1547.04 Z" fill="#000000" fill-rule="nonzero" fill-opacity="1" /><path clip-path="url(#clip360)" d="M1969.87 1518.58 Q1965.6 1525.9 1963.53 1533.06 Q1961.46 1540.23 1961.46 1547.58 Q1961.46 1554.93 1963.53 1562.16 Q1965.63 1569.35 1969.87 1576.64 L1964.77 1576.64 Q1960 1569.16 1957.61 1561.93 Q1955.26 1554.71 1955.26 1547.58 Q1955.26 1540.48 1957.61 1533.29 Q1959.97 1526.09 1964.77 1518.58 L1969.87 1518.58 Z" fill="#000000" fill-rule="nonzero" fill-opacity="1" /><path clip-path="url(#clip360)" d="M2003.96 1533.45 L2003.96 1538.98 Q2001.47 1537.71 1998.8 1537.07 Q1996.13 1536.44 1993.26 1536.44 Q1988.9 1536.44 1986.7 1537.77 Q1984.54 1539.11 1984.54 1541.79 Q1984.54 1543.82 1986.1 1545 Q1987.66 1546.15 1992.37 1547.2 L1994.37 1547.64 Q2000.61 1548.98 2003.22 1551.43 Q2005.86 1553.85 2005.86 1558.21 Q2005.86 1563.17 2001.92 1566.07 Q1998 1568.97 1991.13 1568.97 Q1988.26 1568.97 1985.14 1568.39 Q1982.06 1567.85 1978.62 1566.74 L1978.62 1560.69 Q1981.87 1562.38 1985.02 1563.24 Q1988.17 1564.07 1991.26 1564.07 Q1995.39 1564.07 1997.62 1562.66 Q1999.85 1561.23 1999.85 1558.65 Q1999.85 1556.27 1998.23 1554.99 Q1996.63 1553.72 1991.19 1552.54 L1989.15 1552.07 Q1983.71 1550.92 1981.29 1548.56 Q1978.87 1546.18 1978.87 1542.04 Q1978.87 1537.01 1982.44 1534.27 Q1986 1531.54 1992.56 1531.54 Q1995.81 1531.54 1998.67 1532.01 Q2001.54 1532.49 2003.96 1533.45 Z" fill="#000000" fill-rule="nonzero" fill-opacity="1" /><path clip-path="url(#clip360)" d="M2014.27 1518.58 L2019.36 1518.58 Q2024.13 1526.09 2026.49 1533.29 Q2028.88 1540.48 2028.88 1547.58 Q2028.88 1554.71 2026.49 1561.93 Q2024.13 1569.16 2019.36 1576.64 L2014.27 1576.64 Q2018.5 1569.35 2020.57 1562.16 Q2022.67 1554.93 2022.67 1547.58 Q2022.67 1540.23 2020.57 1533.06 Q2018.5 1525.9 2014.27 1518.58 Z" fill="#000000" fill-rule="nonzero" fill-opacity="1" /><polyline clip-path="url(#clip365)" style="stroke:#000000; stroke-linecap:round; stroke-linejoin:round; stroke-width:2; stroke-opacity:0.1; fill:none" points="1445.34,1374.26 2352.76,1374.26 "/>
<polyline clip-path="url(#clip365)" style="stroke:#000000; stroke-linecap:round; stroke-linejoin:round; stroke-width:2; stroke-opacity:0.1; fill:none" points="1445.34,1307.25 2352.76,1307.25 "/>
<polyline clip-path="url(#clip365)" style="stroke:#000000; stroke-linecap:round; stroke-linejoin:round; stroke-width:2; stroke-opacity:0.1; fill:none" points="1445.34,1240.24 2352.76,1240.24 "/>
<polyline clip-path="url(#clip365)" style="stroke:#000000; stroke-linecap:round; stroke-linejoin:round; stroke-width:2; stroke-opacity:0.1; fill:none" points="1445.34,1173.23 2352.76,1173.23 "/>
<polyline clip-path="url(#clip365)" style="stroke:#000000; stroke-linecap:round; stroke-linejoin:round; stroke-width:2; stroke-opacity:0.1; fill:none" points="1445.34,1106.22 2352.76,1106.22 "/>
<polyline clip-path="url(#clip360)" style="stroke:#000000; stroke-linecap:round; stroke-linejoin:round; stroke-width:4; stroke-opacity:1; fill:none" points="1445.34,1423.18 1445.34,1071.73 "/>
<polyline clip-path="url(#clip360)" style="stroke:#000000; stroke-linecap:round; stroke-linejoin:round; stroke-width:4; stroke-opacity:1; fill:none" points="1445.34,1374.26 1464.24,1374.26 "/>
<polyline clip-path="url(#clip360)" style="stroke:#000000; stroke-linecap:round; stroke-linejoin:round; stroke-width:4; stroke-opacity:1; fill:none" points="1445.34,1307.25 1464.24,1307.25 "/>
<polyline clip-path="url(#clip360)" style="stroke:#000000; stroke-linecap:round; stroke-linejoin:round; stroke-width:4; stroke-opacity:1; fill:none" points="1445.34,1240.24 1464.24,1240.24 "/>
<polyline clip-path="url(#clip360)" style="stroke:#000000; stroke-linecap:round; stroke-linejoin:round; stroke-width:4; stroke-opacity:1; fill:none" points="1445.34,1173.23 1464.24,1173.23 "/>
<polyline clip-path="url(#clip360)" style="stroke:#000000; stroke-linecap:round; stroke-linejoin:round; stroke-width:4; stroke-opacity:1; fill:none" points="1445.34,1106.22 1464.24,1106.22 "/>
<path clip-path="url(#clip360)" d="M1272.88 1374.71 L1302.56 1374.71 L1302.56 1378.65 L1272.88 1378.65 L1272.88 1374.71 Z" fill="#000000" fill-rule="nonzero" fill-opacity="1" /><path clip-path="url(#clip360)" d="M1322.65 1360.06 Q1319.04 1360.06 1317.21 1363.62 Q1315.41 1367.17 1315.41 1374.29 Q1315.41 1381.4 1317.21 1384.97 Q1319.04 1388.51 1322.65 1388.51 Q1326.29 1388.51 1328.09 1384.97 Q1329.92 1381.4 1329.92 1374.29 Q1329.92 1367.17 1328.09 1363.62 Q1326.29 1360.06 1322.65 1360.06 M1322.65 1356.35 Q1328.46 1356.35 1331.52 1360.96 Q1334.6 1365.54 1334.6 1374.29 Q1334.6 1383.02 1331.52 1387.63 Q1328.46 1392.21 1322.65 1392.21 Q1316.84 1392.21 1313.76 1387.63 Q1310.71 1383.02 1310.71 1374.29 Q1310.71 1365.54 1313.76 1360.96 Q1316.84 1356.35 1322.65 1356.35 Z" fill="#000000" fill-rule="nonzero" fill-opacity="1" /><path clip-path="url(#clip360)" d="M1342.81 1385.66 L1347.7 1385.66 L1347.7 1391.54 L1342.81 1391.54 L1342.81 1385.66 Z" fill="#000000" fill-rule="nonzero" fill-opacity="1" /><path clip-path="url(#clip360)" d="M1367.88 1360.06 Q1364.27 1360.06 1362.44 1363.62 Q1360.64 1367.17 1360.64 1374.29 Q1360.64 1381.4 1362.44 1384.97 Q1364.27 1388.51 1367.88 1388.51 Q1371.52 1388.51 1373.32 1384.97 Q1375.15 1381.4 1375.15 1374.29 Q1375.15 1367.17 1373.32 1363.62 Q1371.52 1360.06 1367.88 1360.06 M1367.88 1356.35 Q1373.69 1356.35 1376.75 1360.96 Q1379.83 1365.54 1379.83 1374.29 Q1379.83 1383.02 1376.75 1387.63 Q1373.69 1392.21 1367.88 1392.21 Q1362.07 1392.21 1358.99 1387.63 Q1355.94 1383.02 1355.94 1374.29 Q1355.94 1365.54 1358.99 1360.96 Q1362.07 1356.35 1367.88 1356.35 Z" fill="#000000" fill-rule="nonzero" fill-opacity="1" /><path clip-path="url(#clip360)" d="M1402.21 1372.91 Q1405.57 1373.62 1407.44 1375.89 Q1409.34 1378.16 1409.34 1381.49 Q1409.34 1386.61 1405.82 1389.41 Q1402.3 1392.21 1395.82 1392.21 Q1393.65 1392.21 1391.33 1391.77 Q1389.04 1391.35 1386.59 1390.5 L1386.59 1385.98 Q1388.53 1387.12 1390.85 1387.7 Q1393.16 1388.28 1395.68 1388.28 Q1400.08 1388.28 1402.37 1386.54 Q1404.69 1384.8 1404.69 1381.49 Q1404.69 1378.44 1402.54 1376.73 Q1400.41 1374.99 1396.59 1374.99 L1392.56 1374.99 L1392.56 1371.15 L1396.77 1371.15 Q1400.22 1371.15 1402.05 1369.78 Q1403.88 1368.39 1403.88 1365.8 Q1403.88 1363.14 1401.98 1361.73 Q1400.1 1360.29 1396.59 1360.29 Q1394.66 1360.29 1392.47 1360.71 Q1390.27 1361.12 1387.63 1362 L1387.63 1357.84 Q1390.29 1357.1 1392.6 1356.73 Q1394.94 1356.35 1397 1356.35 Q1402.33 1356.35 1405.43 1358.79 Q1408.53 1361.19 1408.53 1365.31 Q1408.53 1368.18 1406.89 1370.17 Q1405.24 1372.14 1402.21 1372.91 Z" fill="#000000" fill-rule="nonzero" fill-opacity="1" /><path clip-path="url(#clip360)" d="M1322 1293.05 Q1318.39 1293.05 1316.56 1296.61 Q1314.76 1300.16 1314.76 1307.28 Q1314.76 1314.39 1316.56 1317.96 Q1318.39 1321.5 1322 1321.5 Q1325.64 1321.5 1327.44 1317.96 Q1329.27 1314.39 1329.27 1307.28 Q1329.27 1300.16 1327.44 1296.61 Q1325.64 1293.05 1322 1293.05 M1322 1289.34 Q1327.81 1289.34 1330.87 1293.95 Q1333.95 1298.53 1333.95 1307.28 Q1333.95 1316.01 1330.87 1320.62 Q1327.81 1325.2 1322 1325.2 Q1316.19 1325.2 1313.11 1320.62 Q1310.06 1316.01 1310.06 1307.28 Q1310.06 1298.53 1313.11 1293.95 Q1316.19 1289.34 1322 1289.34 Z" fill="#000000" fill-rule="nonzero" fill-opacity="1" /><path clip-path="url(#clip360)" d="M1342.17 1318.65 L1347.05 1318.65 L1347.05 1324.53 L1342.17 1324.53 L1342.17 1318.65 Z" fill="#000000" fill-rule="nonzero" fill-opacity="1" /><path clip-path="url(#clip360)" d="M1367.23 1293.05 Q1363.62 1293.05 1361.79 1296.61 Q1359.99 1300.16 1359.99 1307.28 Q1359.99 1314.39 1361.79 1317.96 Q1363.62 1321.5 1367.23 1321.5 Q1370.87 1321.5 1372.67 1317.96 Q1374.5 1314.39 1374.5 1307.28 Q1374.5 1300.16 1372.67 1296.61 Q1370.87 1293.05 1367.23 1293.05 M1367.23 1289.34 Q1373.04 1289.34 1376.1 1293.95 Q1379.18 1298.53 1379.18 1307.28 Q1379.18 1316.01 1376.1 1320.62 Q1373.04 1325.2 1367.23 1325.2 Q1361.42 1325.2 1358.35 1320.62 Q1355.29 1316.01 1355.29 1307.28 Q1355.29 1298.53 1358.35 1293.95 Q1361.42 1289.34 1367.23 1289.34 Z" fill="#000000" fill-rule="nonzero" fill-opacity="1" /><path clip-path="url(#clip360)" d="M1397.4 1293.05 Q1393.79 1293.05 1391.96 1296.61 Q1390.15 1300.16 1390.15 1307.28 Q1390.15 1314.39 1391.96 1317.96 Q1393.79 1321.5 1397.4 1321.5 Q1401.03 1321.5 1402.84 1317.96 Q1404.66 1314.39 1404.66 1307.28 Q1404.66 1300.16 1402.84 1296.61 Q1401.03 1293.05 1397.4 1293.05 M1397.4 1289.34 Q1403.21 1289.34 1406.26 1293.95 Q1409.34 1298.53 1409.34 1307.28 Q1409.34 1316.01 1406.26 1320.62 Q1403.21 1325.2 1397.4 1325.2 Q1391.59 1325.2 1388.51 1320.62 Q1385.45 1316.01 1385.45 1307.28 Q1385.45 1298.53 1388.51 1293.95 Q1391.59 1289.34 1397.4 1289.34 Z" fill="#000000" fill-rule="nonzero" fill-opacity="1" /><path clip-path="url(#clip360)" d="M1322.65 1226.04 Q1319.04 1226.04 1317.21 1229.6 Q1315.41 1233.14 1315.41 1240.27 Q1315.41 1247.38 1317.21 1250.95 Q1319.04 1254.49 1322.65 1254.49 Q1326.29 1254.49 1328.09 1250.95 Q1329.92 1247.38 1329.92 1240.27 Q1329.92 1233.14 1328.09 1229.6 Q1326.29 1226.04 1322.65 1226.04 M1322.65 1222.33 Q1328.46 1222.33 1331.52 1226.94 Q1334.6 1231.52 1334.6 1240.27 Q1334.6 1249 1331.52 1253.61 Q1328.46 1258.19 1322.65 1258.19 Q1316.84 1258.19 1313.76 1253.61 Q1310.71 1249 1310.71 1240.27 Q1310.71 1231.52 1313.76 1226.94 Q1316.84 1222.33 1322.65 1222.33 Z" fill="#000000" fill-rule="nonzero" fill-opacity="1" /><path clip-path="url(#clip360)" d="M1342.81 1251.64 L1347.7 1251.64 L1347.7 1257.52 L1342.81 1257.52 L1342.81 1251.64 Z" fill="#000000" fill-rule="nonzero" fill-opacity="1" /><path clip-path="url(#clip360)" d="M1367.88 1226.04 Q1364.27 1226.04 1362.44 1229.6 Q1360.64 1233.14 1360.64 1240.27 Q1360.64 1247.38 1362.44 1250.95 Q1364.27 1254.49 1367.88 1254.49 Q1371.52 1254.49 1373.32 1250.95 Q1375.15 1247.38 1375.15 1240.27 Q1375.15 1233.14 1373.32 1229.6 Q1371.52 1226.04 1367.88 1226.04 M1367.88 1222.33 Q1373.69 1222.33 1376.75 1226.94 Q1379.83 1231.52 1379.83 1240.27 Q1379.83 1249 1376.75 1253.61 Q1373.69 1258.19 1367.88 1258.19 Q1362.07 1258.19 1358.99 1253.61 Q1355.94 1249 1355.94 1240.27 Q1355.94 1231.52 1358.99 1226.94 Q1362.07 1222.33 1367.88 1222.33 Z" fill="#000000" fill-rule="nonzero" fill-opacity="1" /><path clip-path="url(#clip360)" d="M1402.21 1238.89 Q1405.57 1239.6 1407.44 1241.87 Q1409.34 1244.14 1409.34 1247.47 Q1409.34 1252.59 1405.82 1255.39 Q1402.3 1258.19 1395.82 1258.19 Q1393.65 1258.19 1391.33 1257.75 Q1389.04 1257.33 1386.59 1256.48 L1386.59 1251.96 Q1388.53 1253.1 1390.85 1253.68 Q1393.16 1254.26 1395.68 1254.26 Q1400.08 1254.26 1402.37 1252.52 Q1404.69 1250.78 1404.69 1247.47 Q1404.69 1244.42 1402.54 1242.71 Q1400.41 1240.97 1396.59 1240.97 L1392.56 1240.97 L1392.56 1237.13 L1396.77 1237.13 Q1400.22 1237.13 1402.05 1235.76 Q1403.88 1234.37 1403.88 1231.78 Q1403.88 1229.12 1401.98 1227.71 Q1400.1 1226.27 1396.59 1226.27 Q1394.66 1226.27 1392.47 1226.69 Q1390.27 1227.1 1387.63 1227.98 L1387.63 1223.82 Q1390.29 1223.08 1392.6 1222.71 Q1394.94 1222.33 1397 1222.33 Q1402.33 1222.33 1405.43 1224.77 Q1408.53 1227.17 1408.53 1231.29 Q1408.53 1234.16 1406.89 1236.15 Q1405.24 1238.12 1402.21 1238.89 Z" fill="#000000" fill-rule="nonzero" fill-opacity="1" /><path clip-path="url(#clip360)" d="M1321.84 1159.03 Q1318.23 1159.03 1316.4 1162.59 Q1314.6 1166.13 1314.6 1173.26 Q1314.6 1180.37 1316.4 1183.94 Q1318.23 1187.48 1321.84 1187.48 Q1325.48 1187.48 1327.28 1183.94 Q1329.11 1180.37 1329.11 1173.26 Q1329.11 1166.13 1327.28 1162.59 Q1325.48 1159.03 1321.84 1159.03 M1321.84 1155.32 Q1327.65 1155.32 1330.71 1159.93 Q1333.79 1164.51 1333.79 1173.26 Q1333.79 1181.99 1330.71 1186.6 Q1327.65 1191.18 1321.84 1191.18 Q1316.03 1191.18 1312.95 1186.6 Q1309.9 1181.99 1309.9 1173.26 Q1309.9 1164.51 1312.95 1159.93 Q1316.03 1155.32 1321.84 1155.32 Z" fill="#000000" fill-rule="nonzero" fill-opacity="1" /><path clip-path="url(#clip360)" d="M1342 1184.63 L1346.89 1184.63 L1346.89 1190.51 L1342 1190.51 L1342 1184.63 Z" fill="#000000" fill-rule="nonzero" fill-opacity="1" /><path clip-path="url(#clip360)" d="M1367.07 1159.03 Q1363.46 1159.03 1361.63 1162.59 Q1359.83 1166.13 1359.83 1173.26 Q1359.83 1180.37 1361.63 1183.94 Q1363.46 1187.48 1367.07 1187.48 Q1370.71 1187.48 1372.51 1183.94 Q1374.34 1180.37 1374.34 1173.26 Q1374.34 1166.13 1372.51 1162.59 Q1370.71 1159.03 1367.07 1159.03 M1367.07 1155.32 Q1372.88 1155.32 1375.94 1159.93 Q1379.02 1164.51 1379.02 1173.26 Q1379.02 1181.99 1375.94 1186.6 Q1372.88 1191.18 1367.07 1191.18 Q1361.26 1191.18 1358.18 1186.6 Q1355.13 1181.99 1355.13 1173.26 Q1355.13 1164.51 1358.18 1159.93 Q1361.26 1155.32 1367.07 1155.32 Z" fill="#000000" fill-rule="nonzero" fill-opacity="1" /><path clip-path="url(#clip360)" d="M1397.81 1171.37 Q1394.66 1171.37 1392.81 1173.52 Q1390.98 1175.67 1390.98 1179.42 Q1390.98 1183.15 1392.81 1185.32 Q1394.66 1187.48 1397.81 1187.48 Q1400.96 1187.48 1402.79 1185.32 Q1404.64 1183.15 1404.64 1179.42 Q1404.64 1175.67 1402.79 1173.52 Q1400.96 1171.37 1397.81 1171.37 M1407.1 1156.71 L1407.1 1160.97 Q1405.34 1160.14 1403.53 1159.7 Q1401.75 1159.26 1399.99 1159.26 Q1395.36 1159.26 1392.91 1162.38 Q1390.48 1165.51 1390.13 1171.83 Q1391.49 1169.82 1393.55 1168.75 Q1395.61 1167.66 1398.09 1167.66 Q1403.3 1167.66 1406.31 1170.83 Q1409.34 1173.98 1409.34 1179.42 Q1409.34 1184.75 1406.19 1187.96 Q1403.04 1191.18 1397.81 1191.18 Q1391.82 1191.18 1388.65 1186.6 Q1385.48 1181.99 1385.48 1173.26 Q1385.48 1165.07 1389.36 1160.21 Q1393.25 1155.32 1399.8 1155.32 Q1401.56 1155.32 1403.35 1155.67 Q1405.15 1156.02 1407.1 1156.71 Z" fill="#000000" fill-rule="nonzero" fill-opacity="1" /><path clip-path="url(#clip360)" d="M1322.19 1092.02 Q1318.58 1092.02 1316.75 1095.58 Q1314.94 1099.12 1314.94 1106.25 Q1314.94 1113.36 1316.75 1116.93 Q1318.58 1120.47 1322.19 1120.47 Q1325.82 1120.47 1327.63 1116.93 Q1329.46 1113.36 1329.46 1106.25 Q1329.46 1099.12 1327.63 1095.58 Q1325.82 1092.02 1322.19 1092.02 M1322.19 1088.31 Q1328 1088.31 1331.05 1092.92 Q1334.13 1097.5 1334.13 1106.25 Q1334.13 1114.98 1331.05 1119.59 Q1328 1124.17 1322.19 1124.17 Q1316.38 1124.17 1313.3 1119.59 Q1310.24 1114.98 1310.24 1106.25 Q1310.24 1097.5 1313.3 1092.92 Q1316.38 1088.31 1322.19 1088.31 Z" fill="#000000" fill-rule="nonzero" fill-opacity="1" /><path clip-path="url(#clip360)" d="M1342.35 1117.62 L1347.23 1117.62 L1347.23 1123.5 L1342.35 1123.5 L1342.35 1117.62 Z" fill="#000000" fill-rule="nonzero" fill-opacity="1" /><path clip-path="url(#clip360)" d="M1367.42 1092.02 Q1363.81 1092.02 1361.98 1095.58 Q1360.17 1099.12 1360.17 1106.25 Q1360.17 1113.36 1361.98 1116.93 Q1363.81 1120.47 1367.42 1120.47 Q1371.05 1120.47 1372.86 1116.93 Q1374.69 1113.36 1374.69 1106.25 Q1374.69 1099.12 1372.86 1095.58 Q1371.05 1092.02 1367.42 1092.02 M1367.42 1088.31 Q1373.23 1088.31 1376.29 1092.92 Q1379.36 1097.5 1379.36 1106.25 Q1379.36 1114.98 1376.29 1119.59 Q1373.23 1124.17 1367.42 1124.17 Q1361.61 1124.17 1358.53 1119.59 Q1355.48 1114.98 1355.48 1106.25 Q1355.48 1097.5 1358.53 1092.92 Q1361.61 1088.31 1367.42 1088.31 Z" fill="#000000" fill-rule="nonzero" fill-opacity="1" /><path clip-path="url(#clip360)" d="M1387.72 1122.78 L1387.72 1118.52 Q1389.48 1119.36 1391.29 1119.8 Q1393.09 1120.24 1394.83 1120.24 Q1399.46 1120.24 1401.89 1117.13 Q1404.34 1114.01 1404.69 1107.67 Q1403.35 1109.66 1401.29 1110.72 Q1399.22 1111.79 1396.72 1111.79 Q1391.54 1111.79 1388.51 1108.66 Q1385.5 1105.51 1385.5 1100.07 Q1385.5 1094.75 1388.65 1091.53 Q1391.79 1088.31 1397.03 1088.31 Q1403.02 1088.31 1406.17 1092.92 Q1409.34 1097.5 1409.34 1106.25 Q1409.34 1114.43 1405.45 1119.31 Q1401.59 1124.17 1395.04 1124.17 Q1393.28 1124.17 1391.47 1123.82 Q1389.66 1123.48 1387.72 1122.78 M1397.03 1108.13 Q1400.17 1108.13 1402 1105.98 Q1403.85 1103.82 1403.85 1100.07 Q1403.85 1096.35 1402 1094.19 Q1400.17 1092.02 1397.03 1092.02 Q1393.88 1092.02 1392.03 1094.19 Q1390.2 1096.35 1390.2 1100.07 Q1390.2 1103.82 1392.03 1105.98 Q1393.88 1108.13 1397.03 1108.13 Z" fill="#000000" fill-rule="nonzero" fill-opacity="1" /><path clip-path="url(#clip360)" d="M1182.58 1252.88 L1183.51 1253.44 Q1181.99 1256.93 1179.58 1261.28 Q1181.99 1265.63 1183.51 1269.13 L1182.58 1269.67 Q1179.27 1265.86 1176.72 1261.28 Q1179.29 1256.66 1182.58 1252.88 Z" fill="#000000" fill-rule="nonzero" fill-opacity="1" /><path clip-path="url(#clip360)" d="M1194.88 1249.71 Q1196.68 1249.71 1197.71 1250.84 Q1198.71 1251.97 1198.71 1253.26 Q1198.71 1254.48 1198 1255.12 Q1197.29 1255.77 1196.39 1255.77 Q1195.17 1255.77 1194.11 1254.87 Q1193.04 1253.96 1192.82 1252.61 Q1191.98 1253.93 1191.98 1255.9 Q1191.98 1257.18 1192.66 1258.31 Q1193.33 1259.41 1194.2 1260.08 Q1195.07 1260.73 1196.33 1261.31 Q1197.55 1261.85 1198.29 1262.08 Q1199 1262.27 1199.77 1262.43 L1208.79 1264.69 Q1213.08 1265.78 1214.59 1265.78 Q1216.46 1265.78 1217.71 1264.88 Q1218.94 1263.98 1218.94 1262.18 Q1218.94 1261.47 1218.74 1260.66 Q1218.52 1259.86 1217.94 1258.83 Q1217.33 1257.76 1216.42 1256.83 Q1215.49 1255.86 1213.91 1254.93 Q1212.33 1254 1210.31 1253.38 Q1209.6 1253.19 1209.6 1252.55 Q1209.6 1251.74 1210.24 1251.74 Q1210.79 1251.74 1211.95 1252.19 Q1213.08 1252.61 1214.56 1253.55 Q1216.01 1254.45 1217.33 1255.64 Q1218.61 1256.83 1219.52 1258.6 Q1220.42 1260.37 1220.42 1262.31 Q1220.42 1265.08 1218.94 1266.91 Q1217.46 1268.75 1215.39 1269.42 Q1215.68 1269.58 1216.07 1269.81 Q1216.46 1270.03 1217.33 1270.71 Q1218.16 1271.36 1218.81 1272.1 Q1219.42 1272.84 1219.9 1274 Q1220.42 1275.12 1220.42 1276.35 Q1220.42 1277.89 1219.97 1279.28 Q1219.52 1280.63 1218.49 1281.6 Q1217.46 1282.56 1216.04 1282.56 Q1214.46 1282.56 1213.37 1281.5 Q1212.24 1280.41 1212.24 1278.92 Q1212.24 1277.99 1212.79 1277.25 Q1213.33 1276.48 1214.52 1276.48 Q1215.85 1276.48 1216.84 1277.38 Q1217.84 1278.28 1218.1 1279.57 Q1218.94 1278.25 1218.94 1276.28 Q1218.94 1274.16 1217.07 1272.48 Q1215.2 1270.81 1212.08 1270 Q1204.57 1268.01 1201.22 1267.23 Q1197.84 1266.46 1196.39 1266.46 Q1195.04 1266.46 1194.11 1266.81 Q1193.17 1267.17 1192.75 1267.78 Q1192.3 1268.36 1192.14 1268.91 Q1191.98 1269.42 1191.98 1270 Q1191.98 1270.97 1192.37 1272.06 Q1192.75 1273.13 1193.66 1274.41 Q1194.53 1275.67 1196.33 1276.86 Q1198.13 1278.05 1200.61 1278.86 Q1201.35 1279.02 1201.35 1279.73 Q1201.32 1280.5 1200.68 1280.5 Q1200.13 1280.5 1199 1280.08 Q1197.84 1279.63 1196.39 1278.73 Q1194.94 1277.8 1193.66 1276.6 Q1192.34 1275.38 1191.43 1273.61 Q1190.53 1271.81 1190.53 1269.87 Q1190.53 1269 1190.72 1268.17 Q1190.89 1267.3 1191.37 1266.27 Q1191.85 1265.2 1192.91 1264.27 Q1193.98 1263.34 1195.52 1262.76 Q1194.78 1262.37 1194.07 1261.85 Q1193.37 1261.31 1192.5 1260.47 Q1191.59 1259.6 1191.08 1258.41 Q1190.53 1257.18 1190.53 1255.83 Q1190.53 1254.51 1190.89 1253.22 Q1191.21 1251.94 1192.27 1250.84 Q1193.3 1249.71 1194.88 1249.71 Z" fill="#000000" fill-rule="nonzero" fill-opacity="1" /><path clip-path="url(#clip360)" d="M1232.47 1242.25 Q1231.09 1242.25 1230.44 1241.46 Q1229.78 1240.68 1229.78 1239.66 Q1229.78 1238.6 1230.48 1237.86 Q1231.16 1237.09 1232.35 1237.09 Q1233.64 1237.09 1234.36 1237.99 Q1235.08 1238.87 1234.9 1240.13 Q1236.75 1239.03 1237.58 1237 Q1238.42 1234.95 1238.42 1233.06 Q1238.42 1231.07 1236.7 1229.47 Q1234.99 1227.85 1230.8 1227.85 Q1227.24 1227.85 1225.18 1229.25 Q1223.13 1230.62 1223.13 1233.35 L1223.13 1235.38 Q1223.13 1236.08 1223.07 1236.28 Q1223 1236.48 1222.61 1236.48 Q1222.16 1236.48 1222.07 1235.78 Q1222.07 1235.08 1221.94 1233.98 Q1221.85 1231.3 1219.53 1229.88 Q1217.36 1228.59 1214.27 1228.59 Q1211.46 1228.59 1210.28 1229.94 Q1209.09 1231.27 1209.09 1233.01 Q1209.09 1234.63 1209.76 1236.41 Q1210.44 1238.2 1211.95 1239.17 Q1211.95 1236.3 1214.27 1236.3 Q1215.29 1236.3 1215.96 1236.96 Q1216.62 1237.59 1216.62 1238.65 Q1216.62 1239.66 1215.99 1240.34 Q1215.33 1241.01 1214.23 1241.01 Q1211.59 1241.01 1209.76 1238.67 Q1207.94 1236.3 1207.94 1232.83 Q1207.94 1229.4 1209.74 1226.88 Q1211.55 1224.33 1214.32 1224.33 Q1217.05 1224.33 1219.28 1226.13 Q1221.51 1227.94 1222.43 1230.8 Q1223.13 1227.28 1225.52 1225.19 Q1227.89 1223.09 1230.8 1223.09 Q1234.41 1223.09 1237.07 1225.93 Q1239.7 1228.77 1239.7 1232.92 Q1239.7 1236.75 1237.63 1239.5 Q1235.56 1242.25 1232.47 1242.25 Z" fill="#000000" fill-rule="nonzero" fill-opacity="1" /><polyline clip-path="url(#clip365)" style="stroke:#e26f46; stroke-linecap:round; stroke-linejoin:round; stroke-width:3; stroke-opacity:1; fill:none" stroke-dasharray="12, 6, 2, 6" points="1471.02,1307.25 1496.2,1307.25 1521.38,1081.68 1546.56,1291.56 1571.73,1403.38 1596.91,1404.17 1622.09,1394.4 1647.27,1413.23 1672.45,1399.17 1697.62,1351.3 1722.8,1369.47 1747.98,1331.78 1773.16,1352.93 1798.34,1343.6 1823.51,1311.2 1848.69,1331.53 1873.87,1308.35 1899.05,1338.53 1924.23,1298.38 1949.4,1304.12 1974.58,1315.05 1999.76,1335.55 2024.94,1310.85 2050.12,1309.66 2075.29,1320.84 2100.47,1301.07 2125.65,1342.31 2150.83,1301.76 2176.01,1299.72 2201.18,1312.88 2226.36,1298.7 2251.54,1300.36 2276.72,1359.76 2301.9,1293.49 2327.07,1334.27 "/>
</svg>
