<?xml version="1.0" encoding="utf-8"?>
<svg xmlns="http://www.w3.org/2000/svg" xmlns:xlink="http://www.w3.org/1999/xlink" width="600" height="400" viewBox="0 0 2400 1600">
<defs>
  <clipPath id="clip490">
    <rect x="0" y="0" width="2400" height="1600"/>
  </clipPath>
</defs>
<path clip-path="url(#clip490)" d="M0 1600 L2400 1600 L2400 0 L0 0  Z" fill="#ffffff" fill-rule="evenodd" fill-opacity="1"/>
<defs>
  <clipPath id="clip491">
    <rect x="480" y="0" width="1681" height="1600"/>
  </clipPath>
</defs>
<path clip-path="url(#clip490)" d="M203.964 1423.18 L1110.81 1423.18 L1110.81 47.2441 L203.964 47.2441  Z" fill="#ffffff" fill-rule="evenodd" fill-opacity="1"/>
<defs>
  <clipPath id="clip492">
    <rect x="203" y="47" width="908" height="1377"/>
  </clipPath>
</defs>
<polyline clip-path="url(#clip492)" style="stroke:#000000; stroke-linecap:round; stroke-linejoin:round; stroke-width:2; stroke-opacity:0.1; fill:none" points="229.629,1423.18 229.629,47.2441 "/>
<polyline clip-path="url(#clip492)" style="stroke:#000000; stroke-linecap:round; stroke-linejoin:round; stroke-width:2; stroke-opacity:0.1; fill:none" points="481.252,1423.18 481.252,47.2441 "/>
<polyline clip-path="url(#clip492)" style="stroke:#000000; stroke-linecap:round; stroke-linejoin:round; stroke-width:2; stroke-opacity:0.1; fill:none" points="732.874,1423.18 732.874,47.2441 "/>
<polyline clip-path="url(#clip492)" style="stroke:#000000; stroke-linecap:round; stroke-linejoin:round; stroke-width:2; stroke-opacity:0.1; fill:none" points="984.497,1423.18 984.497,47.2441 "/>
<polyline clip-path="url(#clip490)" style="stroke:#000000; stroke-linecap:round; stroke-linejoin:round; stroke-width:4; stroke-opacity:1; fill:none" points="203.964,1423.18 1110.81,1423.18 "/>
<polyline clip-path="url(#clip490)" style="stroke:#000000; stroke-linecap:round; stroke-linejoin:round; stroke-width:4; stroke-opacity:1; fill:none" points="229.629,1423.18 229.629,1404.28 "/>
<polyline clip-path="url(#clip490)" style="stroke:#000000; stroke-linecap:round; stroke-linejoin:round; stroke-width:4; stroke-opacity:1; fill:none" points="481.252,1423.18 481.252,1404.28 "/>
<polyline clip-path="url(#clip490)" style="stroke:#000000; stroke-linecap:round; stroke-linejoin:round; stroke-width:4; stroke-opacity:1; fill:none" points="732.874,1423.18 732.874,1404.28 "/>
<polyline clip-path="url(#clip490)" style="stroke:#000000; stroke-linecap:round; stroke-linejoin:round; stroke-width:4; stroke-opacity:1; fill:none" points="984.497,1423.18 984.497,1404.28 "/>
<path clip-path="url(#clip490)" d="M229.629 1454.1 Q226.018 1454.1 224.189 1457.66 Q222.384 1461.2 222.384 1468.33 Q222.384 1475.44 224.189 1479.01 Q226.018 1482.55 229.629 1482.55 Q233.263 1482.55 235.069 1479.01 Q236.898 1475.44 236.898 1468.33 Q236.898 1461.2 235.069 1457.66 Q233.263 1454.1 229.629 1454.1 M229.629 1450.39 Q235.439 1450.39 238.495 1455 Q241.573 1459.58 241.573 1468.33 Q241.573 1477.06 238.495 1481.67 Q235.439 1486.25 229.629 1486.25 Q223.819 1486.25 220.74 1481.67 Q217.685 1477.06 217.685 1468.33 Q217.685 1459.58 220.74 1455 Q223.819 1450.39 229.629 1450.39 Z" fill="#000000" fill-rule="nonzero" fill-opacity="1" /><path clip-path="url(#clip490)" d="M471.634 1481.64 L479.273 1481.64 L479.273 1455.28 L470.962 1456.95 L470.962 1452.69 L479.226 1451.02 L483.902 1451.02 L483.902 1481.64 L491.541 1481.64 L491.541 1485.58 L471.634 1485.58 L471.634 1481.64 Z" fill="#000000" fill-rule="nonzero" fill-opacity="1" /><path clip-path="url(#clip490)" d="M727.527 1481.64 L743.847 1481.64 L743.847 1485.58 L721.902 1485.58 L721.902 1481.64 Q724.564 1478.89 729.148 1474.26 Q733.754 1469.61 734.935 1468.27 Q737.18 1465.74 738.06 1464.01 Q738.962 1462.25 738.962 1460.56 Q738.962 1457.8 737.018 1456.07 Q735.097 1454.33 731.995 1454.33 Q729.796 1454.33 727.342 1455.09 Q724.912 1455.86 722.134 1457.41 L722.134 1452.69 Q724.958 1451.55 727.411 1450.97 Q729.865 1450.39 731.902 1450.39 Q737.273 1450.39 740.467 1453.08 Q743.661 1455.77 743.661 1460.26 Q743.661 1462.39 742.851 1464.31 Q742.064 1466.2 739.958 1468.8 Q739.379 1469.47 736.277 1472.69 Q733.175 1475.88 727.527 1481.64 Z" fill="#000000" fill-rule="nonzero" fill-opacity="1" /><path clip-path="url(#clip490)" d="M988.745 1466.95 Q992.101 1467.66 993.976 1469.93 Q995.874 1472.2 995.874 1475.53 Q995.874 1480.65 992.356 1483.45 Q988.837 1486.25 982.356 1486.25 Q980.18 1486.25 977.865 1485.81 Q975.574 1485.39 973.12 1484.54 L973.12 1480.02 Q975.064 1481.16 977.379 1481.74 Q979.694 1482.32 982.217 1482.32 Q986.615 1482.32 988.907 1480.58 Q991.222 1478.84 991.222 1475.53 Q991.222 1472.48 989.069 1470.77 Q986.939 1469.03 983.12 1469.03 L979.092 1469.03 L979.092 1465.19 L983.305 1465.19 Q986.754 1465.19 988.583 1463.82 Q990.411 1462.43 990.411 1459.84 Q990.411 1457.18 988.513 1455.77 Q986.638 1454.33 983.12 1454.33 Q981.199 1454.33 978.999 1454.75 Q976.8 1455.16 974.162 1456.04 L974.162 1451.88 Q976.824 1451.14 979.138 1450.77 Q981.476 1450.39 983.536 1450.39 Q988.861 1450.39 991.962 1452.83 Q995.064 1455.23 995.064 1459.35 Q995.064 1462.22 993.421 1464.21 Q991.777 1466.18 988.745 1466.95 Z" fill="#000000" fill-rule="nonzero" fill-opacity="1" /><path clip-path="url(#clip490)" d="M527.559 1520.52 L567.758 1520.52 L567.758 1525.93 L550.889 1525.93 L550.889 1568.04 L544.428 1568.04 L544.428 1525.93 L527.559 1525.93 L527.559 1520.52 Z" fill="#000000" fill-rule="nonzero" fill-opacity="1" /><path clip-path="url(#clip490)" d="M571.705 1532.4 L577.562 1532.4 L577.562 1568.04 L571.705 1568.04 L571.705 1532.4 M571.705 1518.52 L577.562 1518.52 L577.562 1525.93 L571.705 1525.93 L571.705 1518.52 Z" fill="#000000" fill-rule="nonzero" fill-opacity="1" /><path clip-path="url(#clip490)" d="M617.57 1539.24 Q619.766 1535.29 622.822 1533.41 Q625.877 1531.54 630.015 1531.54 Q635.585 1531.54 638.609 1535.45 Q641.633 1539.33 641.633 1546.53 L641.633 1568.04 L635.744 1568.04 L635.744 1546.72 Q635.744 1541.59 633.93 1539.11 Q632.116 1536.63 628.392 1536.63 Q623.84 1536.63 621.199 1539.65 Q618.557 1542.68 618.557 1547.9 L618.557 1568.04 L612.669 1568.04 L612.669 1546.72 Q612.669 1541.56 610.854 1539.11 Q609.04 1536.63 605.252 1536.63 Q600.765 1536.63 598.123 1539.68 Q595.481 1542.71 595.481 1547.9 L595.481 1568.04 L589.593 1568.04 L589.593 1532.4 L595.481 1532.4 L595.481 1537.93 Q597.486 1534.66 600.287 1533.1 Q603.088 1531.54 606.939 1531.54 Q610.822 1531.54 613.528 1533.51 Q616.265 1535.48 617.57 1539.24 Z" fill="#000000" fill-rule="nonzero" fill-opacity="1" /><path clip-path="url(#clip490)" d="M683.805 1548.76 L683.805 1551.62 L656.878 1551.62 Q657.26 1557.67 660.507 1560.85 Q663.785 1564 669.61 1564 Q672.984 1564 676.135 1563.17 Q679.317 1562.35 682.437 1560.69 L682.437 1566.23 Q679.286 1567.57 675.975 1568.27 Q672.665 1568.97 669.26 1568.97 Q660.73 1568.97 655.733 1564 Q650.767 1559.04 650.767 1550.57 Q650.767 1541.82 655.478 1536.69 Q660.22 1531.54 668.241 1531.54 Q675.434 1531.54 679.604 1536.18 Q683.805 1540.8 683.805 1548.76 M677.949 1547.04 Q677.885 1542.23 675.243 1539.37 Q672.633 1536.5 668.305 1536.5 Q663.403 1536.5 660.443 1539.27 Q657.515 1542.04 657.069 1547.07 L677.949 1547.04 Z" fill="#000000" fill-rule="nonzero" fill-opacity="1" /><path clip-path="url(#clip490)" d="M728.206 1518.58 Q723.941 1525.9 721.872 1533.06 Q719.803 1540.23 719.803 1547.58 Q719.803 1554.93 721.872 1562.16 Q723.973 1569.35 728.206 1576.64 L723.114 1576.64 Q718.339 1569.16 715.952 1561.93 Q713.597 1554.71 713.597 1547.58 Q713.597 1540.48 715.952 1533.29 Q718.307 1526.09 723.114 1518.58 L728.206 1518.58 Z" fill="#000000" fill-rule="nonzero" fill-opacity="1" /><path clip-path="url(#clip490)" d="M762.294 1533.45 L762.294 1538.98 Q759.812 1537.71 757.138 1537.07 Q754.465 1536.44 751.6 1536.44 Q747.24 1536.44 745.043 1537.77 Q742.879 1539.11 742.879 1541.79 Q742.879 1543.82 744.439 1545 Q745.998 1546.15 750.709 1547.2 L752.714 1547.64 Q758.952 1548.98 761.562 1551.43 Q764.204 1553.85 764.204 1558.21 Q764.204 1563.17 760.257 1566.07 Q756.343 1568.97 749.468 1568.97 Q746.603 1568.97 743.484 1568.39 Q740.396 1567.85 736.959 1566.74 L736.959 1560.69 Q740.205 1562.38 743.356 1563.24 Q746.508 1564.07 749.595 1564.07 Q753.733 1564.07 755.961 1562.66 Q758.189 1561.23 758.189 1558.65 Q758.189 1556.27 756.565 1554.99 Q754.974 1553.72 749.531 1552.54 L747.494 1552.07 Q742.052 1550.92 739.633 1548.56 Q737.214 1546.18 737.214 1542.04 Q737.214 1537.01 740.778 1534.27 Q744.343 1531.54 750.9 1531.54 Q754.146 1531.54 757.011 1532.01 Q759.876 1532.49 762.294 1533.45 Z" fill="#000000" fill-rule="nonzero" fill-opacity="1" /><path clip-path="url(#clip490)" d="M772.607 1518.58 L777.699 1518.58 Q782.474 1526.09 784.829 1533.29 Q787.216 1540.48 787.216 1547.58 Q787.216 1554.71 784.829 1561.93 Q782.474 1569.16 777.699 1576.64 L772.607 1576.64 Q776.84 1569.35 778.909 1562.16 Q781.01 1554.93 781.01 1547.58 Q781.01 1540.23 778.909 1533.06 Q776.84 1525.9 772.607 1518.58 Z" fill="#000000" fill-rule="nonzero" fill-opacity="1" /><polyline clip-path="url(#clip492)" style="stroke:#000000; stroke-linecap:round; stroke-linejoin:round; stroke-width:2; stroke-opacity:0.1; fill:none" points="203.964,1384.24 1110.81,1384.24 "/>
<polyline clip-path="url(#clip492)" style="stroke:#000000; stroke-linecap:round; stroke-linejoin:round; stroke-width:2; stroke-opacity:0.1; fill:none" points="203.964,1159.51 1110.81,1159.51 "/>
<polyline clip-path="url(#clip492)" style="stroke:#000000; stroke-linecap:round; stroke-linejoin:round; stroke-width:2; stroke-opacity:0.1; fill:none" points="203.964,934.788 1110.81,934.788 "/>
<polyline clip-path="url(#clip492)" style="stroke:#000000; stroke-linecap:round; stroke-linejoin:round; stroke-width:2; stroke-opacity:0.1; fill:none" points="203.964,710.063 1110.81,710.063 "/>
<polyline clip-path="url(#clip492)" style="stroke:#000000; stroke-linecap:round; stroke-linejoin:round; stroke-width:2; stroke-opacity:0.1; fill:none" points="203.964,485.338 1110.81,485.338 "/>
<polyline clip-path="url(#clip492)" style="stroke:#000000; stroke-linecap:round; stroke-linejoin:round; stroke-width:2; stroke-opacity:0.1; fill:none" points="203.964,260.612 1110.81,260.612 "/>
<polyline clip-path="url(#clip490)" style="stroke:#000000; stroke-linecap:round; stroke-linejoin:round; stroke-width:4; stroke-opacity:1; fill:none" points="203.964,1423.18 203.964,47.2441 "/>
<polyline clip-path="url(#clip490)" style="stroke:#000000; stroke-linecap:round; stroke-linejoin:round; stroke-width:4; stroke-opacity:1; fill:none" points="203.964,1384.24 222.861,1384.24 "/>
<polyline clip-path="url(#clip490)" style="stroke:#000000; stroke-linecap:round; stroke-linejoin:round; stroke-width:4; stroke-opacity:1; fill:none" points="203.964,1159.51 222.861,1159.51 "/>
<polyline clip-path="url(#clip490)" style="stroke:#000000; stroke-linecap:round; stroke-linejoin:round; stroke-width:4; stroke-opacity:1; fill:none" points="203.964,934.788 222.861,934.788 "/>
<polyline clip-path="url(#clip490)" style="stroke:#000000; stroke-linecap:round; stroke-linejoin:round; stroke-width:4; stroke-opacity:1; fill:none" points="203.964,710.063 222.861,710.063 "/>
<polyline clip-path="url(#clip490)" style="stroke:#000000; stroke-linecap:round; stroke-linejoin:round; stroke-width:4; stroke-opacity:1; fill:none" points="203.964,485.338 222.861,485.338 "/>
<polyline clip-path="url(#clip490)" style="stroke:#000000; stroke-linecap:round; stroke-linejoin:round; stroke-width:4; stroke-opacity:1; fill:none" points="203.964,260.612 222.861,260.612 "/>
<path clip-path="url(#clip490)" d="M156.019 1370.04 Q152.408 1370.04 150.579 1373.6 Q148.774 1377.14 148.774 1384.27 Q148.774 1391.38 150.579 1394.94 Q152.408 1398.49 156.019 1398.49 Q159.653 1398.49 161.459 1394.94 Q163.288 1391.38 163.288 1384.27 Q163.288 1377.14 161.459 1373.6 Q159.653 1370.04 156.019 1370.04 M156.019 1366.33 Q161.829 1366.33 164.885 1370.94 Q167.964 1375.52 167.964 1384.27 Q167.964 1393 164.885 1397.61 Q161.829 1402.19 156.019 1402.19 Q150.209 1402.19 147.13 1397.61 Q144.075 1393 144.075 1384.27 Q144.075 1375.52 147.13 1370.94 Q150.209 1366.33 156.019 1366.33 Z" fill="#000000" fill-rule="nonzero" fill-opacity="1" /><path clip-path="url(#clip490)" d="M147.061 1142.23 L165.417 1142.23 L165.417 1146.17 L151.343 1146.17 L151.343 1154.64 Q152.362 1154.29 153.38 1154.13 Q154.399 1153.95 155.417 1153.95 Q161.204 1153.95 164.584 1157.12 Q167.964 1160.29 167.964 1165.71 Q167.964 1171.28 164.491 1174.39 Q161.019 1177.46 154.7 1177.46 Q152.524 1177.46 150.255 1177.09 Q148.01 1176.72 145.603 1175.98 L145.603 1171.28 Q147.686 1172.42 149.908 1172.97 Q152.13 1173.53 154.607 1173.53 Q158.612 1173.53 160.95 1171.42 Q163.288 1169.32 163.288 1165.71 Q163.288 1162.09 160.95 1159.99 Q158.612 1157.88 154.607 1157.88 Q152.732 1157.88 150.857 1158.3 Q149.005 1158.71 147.061 1159.59 L147.061 1142.23 Z" fill="#000000" fill-rule="nonzero" fill-opacity="1" /><path clip-path="url(#clip490)" d="M116.668 948.133 L124.306 948.133 L124.306 921.767 L115.996 923.434 L115.996 919.175 L124.26 917.508 L128.936 917.508 L128.936 948.133 L136.575 948.133 L136.575 952.068 L116.668 952.068 L116.668 948.133 Z" fill="#000000" fill-rule="nonzero" fill-opacity="1" /><path clip-path="url(#clip490)" d="M156.019 920.587 Q152.408 920.587 150.579 924.151 Q148.774 927.693 148.774 934.823 Q148.774 941.929 150.579 945.494 Q152.408 949.036 156.019 949.036 Q159.653 949.036 161.459 945.494 Q163.288 941.929 163.288 934.823 Q163.288 927.693 161.459 924.151 Q159.653 920.587 156.019 920.587 M156.019 916.883 Q161.829 916.883 164.885 921.489 Q167.964 926.073 167.964 934.823 Q167.964 943.549 164.885 948.156 Q161.829 952.739 156.019 952.739 Q150.209 952.739 147.13 948.156 Q144.075 943.549 144.075 934.823 Q144.075 926.073 147.13 921.489 Q150.209 916.883 156.019 916.883 Z" fill="#000000" fill-rule="nonzero" fill-opacity="1" /><path clip-path="url(#clip490)" d="M117.663 723.408 L125.302 723.408 L125.302 697.042 L116.992 698.709 L116.992 694.449 L125.255 692.783 L129.931 692.783 L129.931 723.408 L137.57 723.408 L137.57 727.343 L117.663 727.343 L117.663 723.408 Z" fill="#000000" fill-rule="nonzero" fill-opacity="1" /><path clip-path="url(#clip490)" d="M147.061 692.783 L165.417 692.783 L165.417 696.718 L151.343 696.718 L151.343 705.19 Q152.362 704.843 153.38 704.681 Q154.399 704.496 155.417 704.496 Q161.204 704.496 164.584 707.667 Q167.964 710.838 167.964 716.255 Q167.964 721.834 164.491 724.935 Q161.019 728.014 154.7 728.014 Q152.524 728.014 150.255 727.644 Q148.01 727.273 145.603 726.533 L145.603 721.834 Q147.686 722.968 149.908 723.523 Q152.13 724.079 154.607 724.079 Q158.612 724.079 160.95 721.972 Q163.288 719.866 163.288 716.255 Q163.288 712.644 160.95 710.537 Q158.612 708.431 154.607 708.431 Q152.732 708.431 150.857 708.848 Q149.005 709.264 147.061 710.144 L147.061 692.783 Z" fill="#000000" fill-rule="nonzero" fill-opacity="1" /><path clip-path="url(#clip490)" d="M119.885 498.682 L136.204 498.682 L136.204 502.618 L114.26 502.618 L114.26 498.682 Q116.922 495.928 121.505 491.298 Q126.112 486.645 127.292 485.303 Q129.538 482.78 130.417 481.044 Q131.32 479.284 131.32 477.595 Q131.32 474.84 129.376 473.104 Q127.455 471.368 124.353 471.368 Q122.154 471.368 119.7 472.132 Q117.269 472.896 114.492 474.446 L114.492 469.724 Q117.316 468.59 119.769 468.011 Q122.223 467.433 124.26 467.433 Q129.63 467.433 132.825 470.118 Q136.019 472.803 136.019 477.294 Q136.019 479.423 135.209 481.345 Q134.422 483.243 132.316 485.835 Q131.737 486.507 128.635 489.724 Q125.533 492.919 119.885 498.682 Z" fill="#000000" fill-rule="nonzero" fill-opacity="1" /><path clip-path="url(#clip490)" d="M156.019 471.136 Q152.408 471.136 150.579 474.701 Q148.774 478.243 148.774 485.372 Q148.774 492.479 150.579 496.044 Q152.408 499.585 156.019 499.585 Q159.653 499.585 161.459 496.044 Q163.288 492.479 163.288 485.372 Q163.288 478.243 161.459 474.701 Q159.653 471.136 156.019 471.136 M156.019 467.433 Q161.829 467.433 164.885 472.039 Q167.964 476.622 167.964 485.372 Q167.964 494.099 164.885 498.706 Q161.829 503.289 156.019 503.289 Q150.209 503.289 147.13 498.706 Q144.075 494.099 144.075 485.372 Q144.075 476.622 147.13 472.039 Q150.209 467.433 156.019 467.433 Z" fill="#000000" fill-rule="nonzero" fill-opacity="1" /><path clip-path="url(#clip490)" d="M120.88 273.957 L137.2 273.957 L137.2 277.892 L115.256 277.892 L115.256 273.957 Q117.918 271.203 122.501 266.573 Q127.107 261.92 128.288 260.578 Q130.533 258.055 131.413 256.318 Q132.316 254.559 132.316 252.869 Q132.316 250.115 130.371 248.379 Q128.45 246.643 125.348 246.643 Q123.149 246.643 120.695 247.406 Q118.265 248.17 115.487 249.721 L115.487 244.999 Q118.311 243.865 120.765 243.286 Q123.218 242.707 125.255 242.707 Q130.626 242.707 133.82 245.393 Q137.015 248.078 137.015 252.569 Q137.015 254.698 136.204 256.619 Q135.417 258.518 133.311 261.11 Q132.732 261.781 129.63 264.999 Q126.529 268.193 120.88 273.957 Z" fill="#000000" fill-rule="nonzero" fill-opacity="1" /><path clip-path="url(#clip490)" d="M147.061 243.332 L165.417 243.332 L165.417 247.268 L151.343 247.268 L151.343 255.74 Q152.362 255.393 153.38 255.231 Q154.399 255.045 155.417 255.045 Q161.204 255.045 164.584 258.217 Q167.964 261.388 167.964 266.805 Q167.964 272.383 164.491 275.485 Q161.019 278.564 154.7 278.564 Q152.524 278.564 150.255 278.193 Q148.01 277.823 145.603 277.082 L145.603 272.383 Q147.686 273.517 149.908 274.073 Q152.13 274.629 154.607 274.629 Q158.612 274.629 160.95 272.522 Q163.288 270.416 163.288 266.805 Q163.288 263.193 160.95 261.087 Q158.612 258.981 154.607 258.981 Q152.732 258.981 150.857 259.397 Q149.005 259.814 147.061 260.693 L147.061 243.332 Z" fill="#000000" fill-rule="nonzero" fill-opacity="1" /><path clip-path="url(#clip490)" d="M21.7178 734.435 Q22.1687 734.435 23.2315 734.724 L48.4165 741.037 Q54.0203 742.422 57.9494 746.93 Q61.8785 751.407 61.8785 756.496 Q61.8785 759.555 60.236 761.52 Q58.6257 763.484 56.1459 763.484 Q53.9559 763.484 52.8931 762.325 Q51.8625 761.165 51.8625 759.781 Q51.8625 759.33 51.9913 758.847 Q52.1201 758.364 52.6676 757.848 Q53.2151 757.333 54.1491 757.333 Q55.6628 757.333 56.8544 758.653 Q57.4019 759.298 57.5307 759.909 Q57.6596 760.489 57.6596 761.488 Q58.5613 761.101 59.1732 760.393 Q59.7851 759.684 60.0106 758.879 Q60.2682 758.074 60.3326 757.558 Q60.4293 757.011 60.4293 756.496 Q60.4293 752.373 56.2747 749.217 Q55.0187 748.283 53.7626 747.607 Q52.5388 746.898 51.0252 746.383 Q49.5437 745.868 48.7385 745.642 Q47.9334 745.385 46.0977 744.934 Q49.0928 747.929 49.0928 751.6 Q49.0928 753.146 48.6741 754.531 Q48.2554 755.884 47.3859 757.075 Q46.4841 758.267 44.906 758.975 Q43.3279 759.652 41.2346 759.652 Q39.0124 759.652 35.985 758.782 Q32.9577 757.913 27.386 755.819 Q24.2621 754.692 22.7484 754.692 Q22.0077 754.692 21.5568 754.853 Q21.0737 755.014 20.9127 755.336 Q20.7194 755.658 20.6872 755.852 Q20.655 756.013 20.655 756.335 Q20.655 758.235 22.5874 760.006 Q24.5197 761.777 28.8353 763.001 Q29.6405 763.259 29.8337 763.42 Q30.0269 763.581 30.0269 764.064 Q29.9947 764.869 29.3506 764.869 Q29.093 764.869 28.0946 764.579 Q27.064 764.289 25.5503 763.613 Q24.0044 762.905 22.6196 761.938 Q21.2025 760.972 20.2041 759.459 Q19.2058 757.913 19.2058 756.141 Q19.2058 753.726 20.7838 752.244 Q22.3297 750.731 24.6163 750.731 Q25.5503 750.731 26.3877 750.988 Q27.1928 751.214 29.3506 752.051 Q38.0462 755.433 42.2974 755.433 Q43.3279 755.433 44.1975 755.272 Q45.0349 755.079 45.8722 754.66 Q46.6774 754.241 47.1604 753.404 Q47.6113 752.534 47.6113 751.343 Q47.6113 749.829 46.9028 748.412 Q46.1621 746.963 45.1637 746.061 Q44.1653 745.127 43.3279 744.579 Q42.4584 744 42.0075 743.871 L30.1558 740.908 L24.874 739.588 Q22.0077 738.976 21.2991 738.686 Q20.6228 738.299 20.2686 737.623 Q19.9143 736.947 19.9143 736.367 Q19.9143 735.562 20.3974 735.014 Q20.8805 734.435 21.7178 734.435 Z" fill="#000000" fill-rule="nonzero" fill-opacity="1" /><path clip-path="url(#clip490)" d="M53.6652 727.689 L52.2224 727.689 Q52.2224 722.143 49.2691 719.28 Q49.2691 718.491 49.4494 718.355 Q49.6298 718.22 50.4639 718.22 L76.3671 718.22 Q77.7423 718.22 78.1706 717.544 Q78.599 716.867 78.599 713.914 L78.599 712.449 L80.0193 712.449 Q79.884 714.072 79.884 719.933 Q79.884 725.795 80.0193 727.395 L78.599 727.395 L78.599 725.93 Q78.599 723.022 78.1932 722.323 Q77.7648 721.624 76.3671 721.624 L52.4478 721.624 Q53.6652 724.036 53.6652 727.689 Z" fill="#000000" fill-rule="nonzero" fill-opacity="1" /><polyline clip-path="url(#clip492)" style="stroke:#009af9; stroke-linecap:round; stroke-linejoin:round; stroke-width:4; stroke-opacity:1; fill:none" points="229.629,1368.64 254.791,1286.79 279.954,1049.21 305.116,690.747 330.278,463.184 355.44,312.425 380.603,146.952 405.765,91.8685 430.927,86.1857 456.089,110.444 481.252,159.281 506.414,227.25 531.576,223.656 556.739,252.801 581.901,274.504 607.063,242.811 632.225,278.578 657.388,284.599 682.55,236.178 707.712,251.555 732.874,238.964 758.037,241.515 783.199,203.018 808.361,263.84 833.524,252.437 858.686,238.484 883.848,231.231 909.01,280.741 934.173,325.09 959.335,278.732 984.497,228.414 1009.66,234.822 1034.82,245.599 1059.98,255.999 1085.15,274.231 "/>
<polyline clip-path="url(#clip492)" style="stroke:#e26f46; stroke-linecap:round; stroke-linejoin:round; stroke-width:3; stroke-opacity:1; fill:none" stroke-dasharray="12, 6, 2, 6" points="229.629,1384.24 254.791,1254.99 279.954,1049.17 305.116,763.387 330.278,385.483 355.44,267.37 380.603,212.462 405.765,94.1157 430.927,99.7099 456.089,130.654 481.252,170.514 506.414,222.348 531.576,285.655 556.739,251.925 581.901,273.763 607.063,286.933 632.225,236.321 657.388,283.476 682.55,284.581 707.712,220.623 732.874,249.744 758.037,235.378 783.199,241.861 808.361,194.721 833.524,279.198 858.686,254.745 883.848,235.093 909.01,228.415 934.173,292.73 959.335,337.739 984.497,265.793 1009.66,208.311 1034.82,230.85 1059.98,249.304 1085.15,261.518 "/>
<path clip-path="url(#clip490)" d="M961.069 1377.32 L1080.58 1377.32 L1080.58 1221.8 L961.069 1221.8  Z" fill="#ffffff" fill-rule="evenodd" fill-opacity="1"/>
<polyline clip-path="url(#clip490)" style="stroke:#000000; stroke-linecap:round; stroke-linejoin:round; stroke-width:4; stroke-opacity:1; fill:none" points="961.069,1377.32 1080.58,1377.32 1080.58,1221.8 961.069,1221.8 961.069,1377.32 "/>
<polyline clip-path="url(#clip490)" style="stroke:#009af9; stroke-linecap:round; stroke-linejoin:round; stroke-width:4; stroke-opacity:1; fill:none" points="971.145,1273.64 1031.6,1273.64 "/>
<path clip-path="url(#clip490)" d="M1068.45 1260.37 Q1066.97 1260.37 1066.22 1260.51 Q1065.48 1260.63 1065.29 1260.8 Q1065.1 1260.96 1064.89 1261.38 L1054.58 1283.3 Q1053.48 1285.65 1051.42 1287.33 Q1049.38 1289.02 1046.81 1289.02 Q1044.65 1289.02 1043.15 1287.71 Q1041.68 1286.42 1041.68 1284.59 Q1041.68 1283.28 1042.5 1282.53 Q1043.32 1281.81 1044.42 1281.81 Q1045.64 1281.81 1046.41 1282.58 Q1047.21 1283.35 1047.21 1284.55 Q1047.21 1285.32 1046.88 1285.9 Q1046.55 1286.51 1046.25 1286.72 Q1045.96 1286.96 1045.66 1287.1 Q1046.15 1287.29 1046.81 1287.29 Q1047.79 1287.29 1048.63 1286.89 Q1049.5 1286.51 1050.06 1286 Q1050.65 1285.51 1051.23 1284.62 Q1051.82 1283.75 1052.1 1283.19 Q1052.38 1282.65 1052.8 1281.71 L1053.9 1279.42 L1044.93 1260.37 L1041.87 1260.37 L1041.87 1258.13 L1047.35 1258.27 L1053.3 1258.13 L1053.3 1260.37 L1050.7 1260.37 L1056.79 1273.33 L1062.31 1261.52 L1062.55 1260.96 Q1062.55 1260.7 1061.99 1260.56 Q1061.42 1260.4 1060.86 1260.4 L1060.3 1260.37 L1060.3 1258.13 L1064.66 1258.27 Q1066.72 1258.27 1068.45 1258.13 L1068.45 1260.37 Z" fill="#000000" fill-rule="nonzero" fill-opacity="1" /><polyline clip-path="url(#clip490)" style="stroke:#e26f46; stroke-linecap:round; stroke-linejoin:round; stroke-width:3; stroke-opacity:1; fill:none" stroke-dasharray="12, 6, 2, 6" points="971.145,1325.48 1031.6,1325.48 "/>
<path clip-path="url(#clip490)" d="M1064.26 1309.2 L1063.85 1309.87 Q1061.31 1308.77 1058.15 1307.01 Q1054.98 1308.77 1052.44 1309.87 L1052.05 1309.2 Q1054.82 1306.79 1058.15 1304.93 Q1061.51 1306.8 1064.26 1309.2 Z" fill="#000000" fill-rule="nonzero" fill-opacity="1" /><path clip-path="url(#clip490)" d="M1068.45 1317.22 Q1066.97 1317.22 1066.22 1317.36 Q1065.48 1317.48 1065.29 1317.64 Q1065.1 1317.8 1064.89 1318.23 L1054.58 1340.15 Q1053.48 1342.49 1051.42 1344.18 Q1049.38 1345.86 1046.81 1345.86 Q1044.65 1345.86 1043.15 1344.55 Q1041.68 1343.26 1041.68 1341.44 Q1041.68 1340.13 1042.5 1339.38 Q1043.32 1338.65 1044.42 1338.65 Q1045.64 1338.65 1046.41 1339.42 Q1047.21 1340.2 1047.21 1341.39 Q1047.21 1342.16 1046.88 1342.75 Q1046.55 1343.36 1046.25 1343.57 Q1045.96 1343.8 1045.66 1343.94 Q1046.15 1344.13 1046.81 1344.13 Q1047.79 1344.13 1048.63 1343.73 Q1049.5 1343.36 1050.06 1342.84 Q1050.65 1342.35 1051.23 1341.46 Q1051.82 1340.59 1052.1 1340.03 Q1052.38 1339.49 1052.8 1338.56 L1053.9 1336.26 L1044.93 1317.22 L1041.87 1317.22 L1041.87 1314.97 L1047.35 1315.11 L1053.3 1314.97 L1053.3 1317.22 L1050.7 1317.22 L1056.79 1330.17 L1062.31 1318.37 L1062.55 1317.8 Q1062.55 1317.55 1061.99 1317.41 Q1061.42 1317.24 1060.86 1317.24 L1060.3 1317.22 L1060.3 1314.97 L1064.66 1315.11 Q1066.72 1315.11 1068.45 1314.97 L1068.45 1317.22 Z" fill="#000000" fill-rule="nonzero" fill-opacity="1" /><path clip-path="url(#clip490)" d="M1445.91 398.692 L2352.76 398.692 L2352.76 47.2441 L1445.91 47.2441  Z" fill="#ffffff" fill-rule="evenodd" fill-opacity="1"/>
<defs>
  <clipPath id="clip493">
    <rect x="1445" y="47" width="908" height="352"/>
  </clipPath>
</defs>
<polyline clip-path="url(#clip493)" style="stroke:#000000; stroke-linecap:round; stroke-linejoin:round; stroke-width:2; stroke-opacity:0.1; fill:none" points="1471.57,398.692 1471.57,47.2441 "/>
<polyline clip-path="url(#clip493)" style="stroke:#000000; stroke-linecap:round; stroke-linejoin:round; stroke-width:2; stroke-opacity:0.1; fill:none" points="1723.2,398.692 1723.2,47.2441 "/>
<polyline clip-path="url(#clip493)" style="stroke:#000000; stroke-linecap:round; stroke-linejoin:round; stroke-width:2; stroke-opacity:0.1; fill:none" points="1974.82,398.692 1974.82,47.2441 "/>
<polyline clip-path="url(#clip493)" style="stroke:#000000; stroke-linecap:round; stroke-linejoin:round; stroke-width:2; stroke-opacity:0.1; fill:none" points="2226.44,398.692 2226.44,47.2441 "/>
<polyline clip-path="url(#clip490)" style="stroke:#000000; stroke-linecap:round; stroke-linejoin:round; stroke-width:4; stroke-opacity:1; fill:none" points="1445.91,398.692 2352.76,398.692 "/>
<polyline clip-path="url(#clip490)" style="stroke:#000000; stroke-linecap:round; stroke-linejoin:round; stroke-width:4; stroke-opacity:1; fill:none" points="1471.57,398.692 1471.57,379.794 "/>
<polyline clip-path="url(#clip490)" style="stroke:#000000; stroke-linecap:round; stroke-linejoin:round; stroke-width:4; stroke-opacity:1; fill:none" points="1723.2,398.692 1723.2,379.794 "/>
<polyline clip-path="url(#clip490)" style="stroke:#000000; stroke-linecap:round; stroke-linejoin:round; stroke-width:4; stroke-opacity:1; fill:none" points="1974.82,398.692 1974.82,379.794 "/>
<polyline clip-path="url(#clip490)" style="stroke:#000000; stroke-linecap:round; stroke-linejoin:round; stroke-width:4; stroke-opacity:1; fill:none" points="2226.44,398.692 2226.44,379.794 "/>
<path clip-path="url(#clip490)" d="M1471.57 429.611 Q1467.96 429.611 1466.13 433.175 Q1464.33 436.717 1464.33 443.847 Q1464.33 450.953 1466.13 454.518 Q1467.96 458.059 1471.57 458.059 Q1475.21 458.059 1477.01 454.518 Q1478.84 450.953 1478.84 443.847 Q1478.84 436.717 1477.01 433.175 Q1475.21 429.611 1471.57 429.611 M1471.57 425.907 Q1477.38 425.907 1480.44 430.513 Q1483.52 435.097 1483.52 443.847 Q1483.52 452.573 1480.44 457.18 Q1477.38 461.763 1471.57 461.763 Q1465.76 461.763 1462.68 457.18 Q1459.63 452.573 1459.63 443.847 Q1459.63 435.097 1462.68 430.513 Q1465.76 425.907 1471.57 425.907 Z" fill="#000000" fill-rule="nonzero" fill-opacity="1" /><path clip-path="url(#clip490)" d="M1713.58 457.157 L1721.22 457.157 L1721.22 430.791 L1712.91 432.458 L1712.91 428.199 L1721.17 426.532 L1725.85 426.532 L1725.85 457.157 L1733.49 457.157 L1733.49 461.092 L1713.58 461.092 L1713.58 457.157 Z" fill="#000000" fill-rule="nonzero" fill-opacity="1" /><path clip-path="url(#clip490)" d="M1969.47 457.157 L1985.79 457.157 L1985.79 461.092 L1963.85 461.092 L1963.85 457.157 Q1966.51 454.402 1971.09 449.772 Q1975.7 445.12 1976.88 443.777 Q1979.12 441.254 1980 439.518 Q1980.91 437.759 1980.91 436.069 Q1980.91 433.314 1978.96 431.578 Q1977.04 429.842 1973.94 429.842 Q1971.74 429.842 1969.29 430.606 Q1966.86 431.37 1964.08 432.921 L1964.08 428.199 Q1966.9 427.064 1969.36 426.486 Q1971.81 425.907 1973.85 425.907 Q1979.22 425.907 1982.41 428.592 Q1985.61 431.277 1985.61 435.768 Q1985.61 437.898 1984.8 439.819 Q1984.01 441.717 1981.9 444.31 Q1981.32 444.981 1978.22 448.198 Q1975.12 451.393 1969.47 457.157 Z" fill="#000000" fill-rule="nonzero" fill-opacity="1" /><path clip-path="url(#clip490)" d="M2230.69 442.458 Q2234.05 443.175 2235.92 445.444 Q2237.82 447.712 2237.82 451.046 Q2237.82 456.161 2234.3 458.962 Q2230.78 461.763 2224.3 461.763 Q2222.12 461.763 2219.81 461.323 Q2217.52 460.907 2215.06 460.05 L2215.06 455.536 Q2217.01 456.671 2219.32 457.249 Q2221.64 457.828 2224.16 457.828 Q2228.56 457.828 2230.85 456.092 Q2233.17 454.356 2233.17 451.046 Q2233.17 447.99 2231.01 446.277 Q2228.88 444.541 2225.06 444.541 L2221.04 444.541 L2221.04 440.698 L2225.25 440.698 Q2228.7 440.698 2230.53 439.333 Q2232.36 437.944 2232.36 435.351 Q2232.36 432.689 2230.46 431.277 Q2228.58 429.842 2225.06 429.842 Q2223.14 429.842 2220.94 430.259 Q2218.74 430.675 2216.11 431.555 L2216.11 427.388 Q2218.77 426.648 2221.08 426.277 Q2223.42 425.907 2225.48 425.907 Q2230.8 425.907 2233.91 428.337 Q2237.01 430.745 2237.01 434.865 Q2237.01 437.736 2235.36 439.726 Q2233.72 441.694 2230.69 442.458 Z" fill="#000000" fill-rule="nonzero" fill-opacity="1" /><polyline clip-path="url(#clip493)" style="stroke:#000000; stroke-linecap:round; stroke-linejoin:round; stroke-width:2; stroke-opacity:0.1; fill:none" points="1445.91,388.745 2352.76,388.745 "/>
<polyline clip-path="url(#clip493)" style="stroke:#000000; stroke-linecap:round; stroke-linejoin:round; stroke-width:2; stroke-opacity:0.1; fill:none" points="1445.91,323.008 2352.76,323.008 "/>
<polyline clip-path="url(#clip493)" style="stroke:#000000; stroke-linecap:round; stroke-linejoin:round; stroke-width:2; stroke-opacity:0.1; fill:none" points="1445.91,257.27 2352.76,257.27 "/>
<polyline clip-path="url(#clip493)" style="stroke:#000000; stroke-linecap:round; stroke-linejoin:round; stroke-width:2; stroke-opacity:0.1; fill:none" points="1445.91,191.533 2352.76,191.533 "/>
<polyline clip-path="url(#clip493)" style="stroke:#000000; stroke-linecap:round; stroke-linejoin:round; stroke-width:2; stroke-opacity:0.1; fill:none" points="1445.91,125.796 2352.76,125.796 "/>
<polyline clip-path="url(#clip493)" style="stroke:#000000; stroke-linecap:round; stroke-linejoin:round; stroke-width:2; stroke-opacity:0.1; fill:none" points="1445.91,60.0584 2352.76,60.0584 "/>
<polyline clip-path="url(#clip490)" style="stroke:#000000; stroke-linecap:round; stroke-linejoin:round; stroke-width:4; stroke-opacity:1; fill:none" points="1445.91,398.692 1445.91,47.2441 "/>
<polyline clip-path="url(#clip490)" style="stroke:#000000; stroke-linecap:round; stroke-linejoin:round; stroke-width:4; stroke-opacity:1; fill:none" points="1445.91,388.745 1464.81,388.745 "/>
<polyline clip-path="url(#clip490)" style="stroke:#000000; stroke-linecap:round; stroke-linejoin:round; stroke-width:4; stroke-opacity:1; fill:none" points="1445.91,323.008 1464.81,323.008 "/>
<polyline clip-path="url(#clip490)" style="stroke:#000000; stroke-linecap:round; stroke-linejoin:round; stroke-width:4; stroke-opacity:1; fill:none" points="1445.91,257.27 1464.81,257.27 "/>
<polyline clip-path="url(#clip490)" style="stroke:#000000; stroke-linecap:round; stroke-linejoin:round; stroke-width:4; stroke-opacity:1; fill:none" points="1445.91,191.533 1464.81,191.533 "/>
<polyline clip-path="url(#clip490)" style="stroke:#000000; stroke-linecap:round; stroke-linejoin:round; stroke-width:4; stroke-opacity:1; fill:none" points="1445.91,125.796 1464.81,125.796 "/>
<polyline clip-path="url(#clip490)" style="stroke:#000000; stroke-linecap:round; stroke-linejoin:round; stroke-width:4; stroke-opacity:1; fill:none" points="1445.91,60.0584 1464.81,60.0584 "/>
<path clip-path="url(#clip490)" d="M1352.73 374.544 Q1349.12 374.544 1347.29 378.109 Q1345.49 381.65 1345.49 388.78 Q1345.49 395.886 1347.29 399.451 Q1349.12 402.993 1352.73 402.993 Q1356.37 402.993 1358.17 399.451 Q1360 395.886 1360 388.78 Q1360 381.65 1358.17 378.109 Q1356.37 374.544 1352.73 374.544 M1352.73 370.84 Q1358.54 370.84 1361.6 375.447 Q1364.68 380.03 1364.68 388.78 Q1364.68 397.507 1361.6 402.113 Q1358.54 406.697 1352.73 406.697 Q1346.92 406.697 1343.84 402.113 Q1340.79 397.507 1340.79 388.78 Q1340.79 380.03 1343.84 375.447 Q1346.92 370.84 1352.73 370.84 Z" fill="#000000" fill-rule="nonzero" fill-opacity="1" /><path clip-path="url(#clip490)" d="M1372.89 400.146 L1377.78 400.146 L1377.78 406.025 L1372.89 406.025 L1372.89 400.146 Z" fill="#000000" fill-rule="nonzero" fill-opacity="1" /><path clip-path="url(#clip490)" d="M1397.96 374.544 Q1394.35 374.544 1392.52 378.109 Q1390.72 381.65 1390.72 388.78 Q1390.72 395.886 1392.52 399.451 Q1394.35 402.993 1397.96 402.993 Q1401.6 402.993 1403.4 399.451 Q1405.23 395.886 1405.23 388.78 Q1405.23 381.65 1403.4 378.109 Q1401.6 374.544 1397.96 374.544 M1397.96 370.84 Q1403.77 370.84 1406.83 375.447 Q1409.91 380.03 1409.91 388.78 Q1409.91 397.507 1406.83 402.113 Q1403.77 406.697 1397.96 406.697 Q1392.15 406.697 1389.07 402.113 Q1386.02 397.507 1386.02 388.78 Q1386.02 380.03 1389.07 375.447 Q1392.15 370.84 1397.96 370.84 Z" fill="#000000" fill-rule="nonzero" fill-opacity="1" /><path clip-path="url(#clip490)" d="M1353.96 308.807 Q1350.35 308.807 1348.52 312.371 Q1346.71 315.913 1346.71 323.043 Q1346.71 330.149 1348.52 333.714 Q1350.35 337.255 1353.96 337.255 Q1357.59 337.255 1359.4 333.714 Q1361.23 330.149 1361.23 323.043 Q1361.23 315.913 1359.4 312.371 Q1357.59 308.807 1353.96 308.807 M1353.96 305.103 Q1359.77 305.103 1362.82 309.709 Q1365.9 314.293 1365.9 323.043 Q1365.9 331.769 1362.82 336.376 Q1359.77 340.959 1353.96 340.959 Q1348.15 340.959 1345.07 336.376 Q1342.01 331.769 1342.01 323.043 Q1342.01 314.293 1345.07 309.709 Q1348.15 305.103 1353.96 305.103 Z" fill="#000000" fill-rule="nonzero" fill-opacity="1" /><path clip-path="url(#clip490)" d="M1374.12 334.408 L1379.01 334.408 L1379.01 340.288 L1374.12 340.288 L1374.12 334.408 Z" fill="#000000" fill-rule="nonzero" fill-opacity="1" /><path clip-path="url(#clip490)" d="M1390 336.353 L1397.64 336.353 L1397.64 309.987 L1389.33 311.654 L1389.33 307.395 L1397.59 305.728 L1402.27 305.728 L1402.27 336.353 L1409.91 336.353 L1409.91 340.288 L1390 340.288 L1390 336.353 Z" fill="#000000" fill-rule="nonzero" fill-opacity="1" /><path clip-path="url(#clip490)" d="M1354.33 243.069 Q1350.72 243.069 1348.89 246.634 Q1347.08 250.176 1347.08 257.305 Q1347.08 264.412 1348.89 267.976 Q1350.72 271.518 1354.33 271.518 Q1357.96 271.518 1359.77 267.976 Q1361.6 264.412 1361.6 257.305 Q1361.6 250.176 1359.77 246.634 Q1357.96 243.069 1354.33 243.069 M1354.33 239.365 Q1360.14 239.365 1363.2 243.972 Q1366.27 248.555 1366.27 257.305 Q1366.27 266.032 1363.2 270.638 Q1360.14 275.222 1354.33 275.222 Q1348.52 275.222 1345.44 270.638 Q1342.39 266.032 1342.39 257.305 Q1342.39 248.555 1345.44 243.972 Q1348.52 239.365 1354.33 239.365 Z" fill="#000000" fill-rule="nonzero" fill-opacity="1" /><path clip-path="url(#clip490)" d="M1374.49 268.671 L1379.38 268.671 L1379.38 274.55 L1374.49 274.55 L1374.49 268.671 Z" fill="#000000" fill-rule="nonzero" fill-opacity="1" /><path clip-path="url(#clip490)" d="M1393.59 270.615 L1409.91 270.615 L1409.91 274.55 L1387.96 274.55 L1387.96 270.615 Q1390.63 267.861 1395.21 263.231 Q1399.82 258.578 1401 257.236 Q1403.24 254.713 1404.12 252.977 Q1405.02 251.217 1405.02 249.527 Q1405.02 246.773 1403.08 245.037 Q1401.16 243.301 1398.06 243.301 Q1395.86 243.301 1393.4 244.065 Q1390.97 244.828 1388.19 246.379 L1388.19 241.657 Q1391.02 240.523 1393.47 239.944 Q1395.93 239.365 1397.96 239.365 Q1403.33 239.365 1406.53 242.051 Q1409.72 244.736 1409.72 249.227 Q1409.72 251.356 1408.91 253.277 Q1408.13 255.176 1406.02 257.768 Q1405.44 258.439 1402.34 261.657 Q1399.24 264.851 1393.59 270.615 Z" fill="#000000" fill-rule="nonzero" fill-opacity="1" /><path clip-path="url(#clip490)" d="M1353.38 177.332 Q1349.77 177.332 1347.94 180.897 Q1346.13 184.438 1346.13 191.568 Q1346.13 198.674 1347.94 202.239 Q1349.77 205.781 1353.38 205.781 Q1357.01 205.781 1358.82 202.239 Q1360.65 198.674 1360.65 191.568 Q1360.65 184.438 1358.82 180.897 Q1357.01 177.332 1353.38 177.332 M1353.38 173.628 Q1359.19 173.628 1362.25 178.235 Q1365.32 182.818 1365.32 191.568 Q1365.32 200.295 1362.25 204.901 Q1359.19 209.484 1353.38 209.484 Q1347.57 209.484 1344.49 204.901 Q1341.44 200.295 1341.44 191.568 Q1341.44 182.818 1344.49 178.235 Q1347.57 173.628 1353.38 173.628 Z" fill="#000000" fill-rule="nonzero" fill-opacity="1" /><path clip-path="url(#clip490)" d="M1373.54 202.934 L1378.43 202.934 L1378.43 208.813 L1373.54 208.813 L1373.54 202.934 Z" fill="#000000" fill-rule="nonzero" fill-opacity="1" /><path clip-path="url(#clip490)" d="M1402.78 190.179 Q1406.13 190.897 1408.01 193.165 Q1409.91 195.434 1409.91 198.767 Q1409.91 203.883 1406.39 206.683 Q1402.87 209.484 1396.39 209.484 Q1394.21 209.484 1391.9 209.045 Q1389.61 208.628 1387.15 207.771 L1387.15 203.258 Q1389.1 204.392 1391.41 204.971 Q1393.73 205.549 1396.25 205.549 Q1400.65 205.549 1402.94 203.813 Q1405.26 202.077 1405.26 198.767 Q1405.26 195.711 1403.1 193.998 Q1400.97 192.262 1397.15 192.262 L1393.13 192.262 L1393.13 188.42 L1397.34 188.42 Q1400.79 188.42 1402.62 187.054 Q1404.44 185.665 1404.44 183.073 Q1404.44 180.41 1402.55 178.998 Q1400.67 177.563 1397.15 177.563 Q1395.23 177.563 1393.03 177.98 Q1390.83 178.397 1388.19 179.276 L1388.19 175.11 Q1390.86 174.369 1393.17 173.998 Q1395.51 173.628 1397.57 173.628 Q1402.89 173.628 1406 176.059 Q1409.1 178.466 1409.1 182.586 Q1409.1 185.457 1407.45 187.447 Q1405.81 189.415 1402.78 190.179 Z" fill="#000000" fill-rule="nonzero" fill-opacity="1" /><path clip-path="url(#clip490)" d="M1352.25 111.594 Q1348.63 111.594 1346.81 115.159 Q1345 118.701 1345 125.83 Q1345 132.937 1346.81 136.502 Q1348.63 140.043 1352.25 140.043 Q1355.88 140.043 1357.69 136.502 Q1359.51 132.937 1359.51 125.83 Q1359.51 118.701 1357.69 115.159 Q1355.88 111.594 1352.25 111.594 M1352.25 107.891 Q1358.06 107.891 1361.11 112.497 Q1364.19 117.08 1364.19 125.83 Q1364.19 134.557 1361.11 139.164 Q1358.06 143.747 1352.25 143.747 Q1346.44 143.747 1343.36 139.164 Q1340.3 134.557 1340.3 125.83 Q1340.3 117.08 1343.36 112.497 Q1346.44 107.891 1352.25 107.891 Z" fill="#000000" fill-rule="nonzero" fill-opacity="1" /><path clip-path="url(#clip490)" d="M1372.41 137.196 L1377.29 137.196 L1377.29 143.076 L1372.41 143.076 L1372.41 137.196 Z" fill="#000000" fill-rule="nonzero" fill-opacity="1" /><path clip-path="url(#clip490)" d="M1400.32 112.59 L1388.52 131.039 L1400.32 131.039 L1400.32 112.59 M1399.1 108.516 L1404.98 108.516 L1404.98 131.039 L1409.91 131.039 L1409.91 134.928 L1404.98 134.928 L1404.98 143.076 L1400.32 143.076 L1400.32 134.928 L1384.72 134.928 L1384.72 130.414 L1399.1 108.516 Z" fill="#000000" fill-rule="nonzero" fill-opacity="1" /><path clip-path="url(#clip490)" d="M1353.73 45.857 Q1350.12 45.857 1348.29 49.4218 Q1346.48 52.9635 1346.48 60.0931 Q1346.48 67.1995 1348.29 70.7643 Q1350.12 74.306 1353.73 74.306 Q1357.36 74.306 1359.17 70.7643 Q1361 67.1995 1361 60.0931 Q1361 52.9635 1359.17 49.4218 Q1357.36 45.857 1353.73 45.857 M1353.73 42.1534 Q1359.54 42.1534 1362.59 46.7598 Q1365.67 51.3431 1365.67 60.0931 Q1365.67 68.8199 1362.59 73.4263 Q1359.54 78.0096 1353.73 78.0096 Q1347.92 78.0096 1344.84 73.4263 Q1341.78 68.8199 1341.78 60.0931 Q1341.78 51.3431 1344.84 46.7598 Q1347.92 42.1534 1353.73 42.1534 Z" fill="#000000" fill-rule="nonzero" fill-opacity="1" /><path clip-path="url(#clip490)" d="M1373.89 71.4588 L1378.77 71.4588 L1378.77 77.3384 L1373.89 77.3384 L1373.89 71.4588 Z" fill="#000000" fill-rule="nonzero" fill-opacity="1" /><path clip-path="url(#clip490)" d="M1389.01 42.7784 L1407.36 42.7784 L1407.36 46.7135 L1393.29 46.7135 L1393.29 55.1857 Q1394.31 54.8385 1395.32 54.6764 Q1396.34 54.4913 1397.36 54.4913 Q1403.15 54.4913 1406.53 57.6625 Q1409.91 60.8338 1409.91 66.2505 Q1409.91 71.8291 1406.44 74.931 Q1402.96 78.0096 1396.64 78.0096 Q1394.47 78.0096 1392.2 77.6393 Q1389.95 77.2689 1387.55 76.5282 L1387.55 71.8291 Q1389.63 72.9634 1391.85 73.5189 Q1394.07 74.0745 1396.55 74.0745 Q1400.56 74.0745 1402.89 71.968 Q1405.23 69.8615 1405.23 66.2505 Q1405.23 62.6394 1402.89 60.5329 Q1400.56 58.4264 1396.55 58.4264 Q1394.68 58.4264 1392.8 58.8431 Q1390.95 59.2597 1389.01 60.1394 L1389.01 42.7784 Z" fill="#000000" fill-rule="nonzero" fill-opacity="1" /><path clip-path="url(#clip490)" d="M1255.92 220.971 Q1257.73 220.971 1258.76 222.098 Q1259.76 223.225 1259.76 224.513 Q1259.76 225.737 1259.05 226.381 Q1258.34 227.025 1257.44 227.025 Q1256.21 227.025 1255.15 226.123 Q1254.09 225.222 1253.86 223.869 Q1253.02 225.189 1253.02 227.154 Q1253.02 228.442 1253.7 229.569 Q1254.38 230.664 1255.25 231.341 Q1256.12 231.985 1257.37 232.565 Q1258.6 233.112 1259.34 233.338 Q1260.05 233.531 1260.82 233.692 L1269.84 235.946 Q1274.12 237.041 1275.63 237.041 Q1277.5 237.041 1278.76 236.139 Q1279.98 235.238 1279.98 233.434 Q1279.98 232.726 1279.79 231.92 Q1279.56 231.115 1278.98 230.085 Q1278.37 229.022 1277.47 228.088 Q1276.53 227.122 1274.96 226.188 Q1273.38 225.254 1271.35 224.642 Q1270.64 224.449 1270.64 223.805 Q1270.64 222.999 1271.29 222.999 Q1271.83 222.999 1272.99 223.45 Q1274.12 223.869 1275.6 224.803 Q1277.05 225.705 1278.37 226.896 Q1279.66 228.088 1280.56 229.859 Q1281.46 231.631 1281.46 233.563 Q1281.46 236.333 1279.98 238.168 Q1278.5 240.004 1276.44 240.68 Q1276.73 240.842 1277.11 241.067 Q1277.5 241.292 1278.37 241.969 Q1279.21 242.613 1279.85 243.354 Q1280.46 244.094 1280.95 245.254 Q1281.46 246.381 1281.46 247.605 Q1281.46 249.151 1281.01 250.535 Q1280.56 251.888 1279.53 252.854 Q1278.5 253.82 1277.08 253.82 Q1275.5 253.82 1274.41 252.758 Q1273.28 251.663 1273.28 250.181 Q1273.28 249.247 1273.83 248.507 Q1274.38 247.734 1275.57 247.734 Q1276.89 247.734 1277.89 248.635 Q1278.89 249.537 1279.14 250.825 Q1279.98 249.505 1279.98 247.54 Q1279.98 245.415 1278.11 243.74 Q1276.25 242.065 1273.12 241.26 Q1265.62 239.263 1262.27 238.49 Q1258.89 237.718 1257.44 237.718 Q1256.08 237.718 1255.15 238.072 Q1254.22 238.426 1253.8 239.038 Q1253.35 239.618 1253.19 240.165 Q1253.02 240.68 1253.02 241.26 Q1253.02 242.226 1253.41 243.321 Q1253.8 244.384 1254.7 245.672 Q1255.57 246.928 1257.37 248.12 Q1259.18 249.312 1261.66 250.117 Q1262.4 250.278 1262.4 250.986 Q1262.36 251.759 1261.72 251.759 Q1261.17 251.759 1260.05 251.341 Q1258.89 250.89 1257.44 249.988 Q1255.99 249.054 1254.7 247.862 Q1253.38 246.639 1252.48 244.867 Q1251.58 243.064 1251.58 241.131 Q1251.58 240.262 1251.77 239.424 Q1251.93 238.555 1252.41 237.524 Q1252.9 236.462 1253.96 235.528 Q1255.02 234.594 1256.57 234.014 Q1255.83 233.627 1255.12 233.112 Q1254.41 232.565 1253.54 231.727 Q1252.64 230.858 1252.12 229.666 Q1251.58 228.442 1251.58 227.09 Q1251.58 225.769 1251.93 224.481 Q1252.25 223.193 1253.31 222.098 Q1254.35 220.971 1255.92 220.971 Z" fill="#000000" fill-rule="nonzero" fill-opacity="1" /><path clip-path="url(#clip490)" d="M1273.38 214.249 L1271.94 214.249 Q1271.94 208.703 1268.98 205.84 Q1268.98 205.051 1269.16 204.916 Q1269.34 204.781 1270.18 204.781 L1296.08 204.781 Q1297.46 204.781 1297.88 204.104 Q1298.31 203.428 1298.31 200.475 L1298.31 199.009 L1299.73 199.009 Q1299.6 200.633 1299.6 206.494 Q1299.6 212.356 1299.73 213.956 L1298.31 213.956 L1298.31 212.491 Q1298.31 209.583 1297.91 208.884 Q1297.48 208.185 1296.08 208.185 L1272.16 208.185 Q1273.38 210.597 1273.38 214.249 Z" fill="#000000" fill-rule="nonzero" fill-opacity="1" /><polyline clip-path="url(#clip493)" style="stroke:#009af9; stroke-linecap:round; stroke-linejoin:round; stroke-width:4; stroke-opacity:1; fill:none" points="1471.57,388.745 1496.74,360.199 1521.9,295.443 1547.06,220.873 1572.22,154.14 1597.38,104.19 1622.55,73.1593 1647.71,58.8945 1672.87,57.1907 1698.03,63.3911 1723.2,73.3544 1748.36,83.9317 1773.52,93.0966 1798.68,99.8469 1823.85,103.979 1849.01,105.813 1874.17,105.937 1899.33,105.004 1924.49,103.588 1949.66,102.124 1974.82,100.882 1999.98,99.9868 2025.14,99.4565 2050.31,99.2381 2075.47,99.2463 2100.63,99.3907 2125.79,99.593 2150.95,99.7956 2176.12,99.9639 2201.28,100.082 2226.44,100.15 2251.6,100.176 2276.77,100.172 2301.93,100.15 2327.09,100.121 "/>
<polyline clip-path="url(#clip493)" style="stroke:#e26f46; stroke-linecap:round; stroke-linejoin:round; stroke-width:3; stroke-opacity:1; fill:none" stroke-dasharray="12, 6, 2, 6" points="1471.57,388.745 1496.74,355.752 1521.9,303.21 1547.06,230.258 1572.22,133.788 1597.38,103.637 1622.55,89.6201 1647.71,59.4094 1672.87,60.8374 1698.03,68.7366 1723.2,78.9121 1748.36,92.1438 1773.52,108.304 1798.68,99.6941 1823.85,105.269 1849.01,108.631 1874.17,95.7107 1899.33,107.748 1924.49,108.03 1949.66,91.7034 1974.82,99.1373 1999.98,95.4702 2025.14,97.1251 2050.31,85.0914 2075.47,106.656 2100.63,100.414 2125.79,95.3973 2150.95,93.6926 2176.12,110.111 2201.28,121.6 2226.44,103.234 2251.6,88.5606 2276.77,94.3141 2301.93,99.0251 2327.09,102.143 "/>
<path clip-path="url(#clip490)" d="M2203.01 386.977 L2322.53 386.977 L2322.53 231.457 L2203.01 231.457  Z" fill="#ffffff" fill-rule="evenodd" fill-opacity="1"/>
<polyline clip-path="url(#clip490)" style="stroke:#000000; stroke-linecap:round; stroke-linejoin:round; stroke-width:4; stroke-opacity:1; fill:none" points="2203.01,386.977 2322.53,386.977 2322.53,231.457 2203.01,231.457 2203.01,386.977 "/>
<polyline clip-path="url(#clip490)" style="stroke:#009af9; stroke-linecap:round; stroke-linejoin:round; stroke-width:4; stroke-opacity:1; fill:none" points="2213.09,283.297 2273.55,283.297 "/>
<path clip-path="url(#clip490)" d="M2310.63 293.836 L2305.36 293.695 L2299.6 293.836 L2299.6 291.587 L2301.47 291.587 L2296.2 285.357 L2291.54 290.58 L2291.21 291.049 Q2291.21 291.26 2291.75 291.423 Q2292.31 291.587 2292.97 291.587 L2292.97 293.836 L2288.03 293.695 L2283.62 293.836 L2283.62 291.587 Q2285.1 291.587 2285.78 291.564 Q2286.48 291.517 2287.28 291.306 Q2288.07 291.096 2288.47 290.674 L2294.75 283.624 L2287.28 274.794 L2283.86 274.794 L2283.86 272.545 L2289.15 272.686 L2294.94 272.545 L2294.94 274.794 L2293.01 274.794 L2297.72 280.298 L2301.75 275.801 Q2301.77 275.777 2302.15 275.215 Q2301.4 274.794 2300.32 274.794 L2300.32 272.545 L2305.26 272.686 L2309.67 272.545 L2309.67 274.794 Q2307.75 274.794 2306.74 274.934 Q2305.76 275.051 2305.45 275.215 Q2305.17 275.379 2304.77 275.801 L2299.17 282.031 L2307.23 291.587 L2310.63 291.587 L2310.63 293.836 Z" fill="#000000" fill-rule="nonzero" fill-opacity="1" /><polyline clip-path="url(#clip490)" style="stroke:#e26f46; stroke-linecap:round; stroke-linejoin:round; stroke-width:3; stroke-opacity:1; fill:none" stroke-dasharray="12, 6, 2, 6" points="2213.09,335.137 2273.55,335.137 "/>
<path clip-path="url(#clip490)" d="M2306.21 323.615 L2305.8 324.287 Q2303.26 323.189 2300.09 321.434 Q2296.93 323.189 2294.39 324.287 L2293.99 323.615 Q2296.76 321.205 2300.09 319.352 Q2303.45 321.221 2306.21 323.615 Z" fill="#000000" fill-rule="nonzero" fill-opacity="1" /><path clip-path="url(#clip490)" d="M2310.63 350.681 L2305.36 350.54 L2299.6 350.681 L2299.6 348.432 L2301.47 348.432 L2296.2 342.202 L2291.54 347.425 L2291.21 347.893 Q2291.21 348.104 2291.75 348.268 Q2292.31 348.432 2292.97 348.432 L2292.97 350.681 L2288.03 350.54 L2283.62 350.681 L2283.62 348.432 Q2285.1 348.432 2285.78 348.409 Q2286.48 348.362 2287.28 348.151 Q2288.07 347.94 2288.47 347.519 L2294.75 340.468 L2287.28 331.638 L2283.86 331.638 L2283.86 329.39 L2289.15 329.53 L2294.94 329.39 L2294.94 331.638 L2293.01 331.638 L2297.72 337.142 L2301.75 332.645 Q2301.77 332.622 2302.15 332.06 Q2301.4 331.638 2300.32 331.638 L2300.32 329.39 L2305.26 329.53 L2309.67 329.39 L2309.67 331.638 Q2307.75 331.638 2306.74 331.779 Q2305.76 331.896 2305.45 332.06 Q2305.17 332.224 2304.77 332.645 L2299.17 338.876 L2307.23 348.432 L2310.63 348.432 L2310.63 350.681 Z" fill="#000000" fill-rule="nonzero" fill-opacity="1" /><path clip-path="url(#clip490)" d="M1445.91 910.936 L2352.76 910.936 L2352.76 559.488 L1445.91 559.488  Z" fill="#ffffff" fill-rule="evenodd" fill-opacity="1"/>
<defs>
  <clipPath id="clip494">
    <rect x="1445" y="559" width="908" height="352"/>
  </clipPath>
</defs>
<polyline clip-path="url(#clip494)" style="stroke:#000000; stroke-linecap:round; stroke-linejoin:round; stroke-width:2; stroke-opacity:0.1; fill:none" points="1471.57,910.936 1471.57,559.488 "/>
<polyline clip-path="url(#clip494)" style="stroke:#000000; stroke-linecap:round; stroke-linejoin:round; stroke-width:2; stroke-opacity:0.1; fill:none" points="1723.2,910.936 1723.2,559.488 "/>
<polyline clip-path="url(#clip494)" style="stroke:#000000; stroke-linecap:round; stroke-linejoin:round; stroke-width:2; stroke-opacity:0.1; fill:none" points="1974.82,910.936 1974.82,559.488 "/>
<polyline clip-path="url(#clip494)" style="stroke:#000000; stroke-linecap:round; stroke-linejoin:round; stroke-width:2; stroke-opacity:0.1; fill:none" points="2226.44,910.936 2226.44,559.488 "/>
<polyline clip-path="url(#clip490)" style="stroke:#000000; stroke-linecap:round; stroke-linejoin:round; stroke-width:4; stroke-opacity:1; fill:none" points="1445.91,910.936 2352.76,910.936 "/>
<polyline clip-path="url(#clip490)" style="stroke:#000000; stroke-linecap:round; stroke-linejoin:round; stroke-width:4; stroke-opacity:1; fill:none" points="1471.57,910.936 1471.57,892.038 "/>
<polyline clip-path="url(#clip490)" style="stroke:#000000; stroke-linecap:round; stroke-linejoin:round; stroke-width:4; stroke-opacity:1; fill:none" points="1723.2,910.936 1723.2,892.038 "/>
<polyline clip-path="url(#clip490)" style="stroke:#000000; stroke-linecap:round; stroke-linejoin:round; stroke-width:4; stroke-opacity:1; fill:none" points="1974.82,910.936 1974.82,892.038 "/>
<polyline clip-path="url(#clip490)" style="stroke:#000000; stroke-linecap:round; stroke-linejoin:round; stroke-width:4; stroke-opacity:1; fill:none" points="2226.44,910.936 2226.44,892.038 "/>
<path clip-path="url(#clip490)" d="M1471.57 941.855 Q1467.96 941.855 1466.13 945.419 Q1464.33 948.961 1464.33 956.091 Q1464.33 963.197 1466.13 966.762 Q1467.96 970.303 1471.57 970.303 Q1475.21 970.303 1477.01 966.762 Q1478.84 963.197 1478.84 956.091 Q1478.84 948.961 1477.01 945.419 Q1475.21 941.855 1471.57 941.855 M1471.57 938.151 Q1477.38 938.151 1480.44 942.757 Q1483.52 947.341 1483.52 956.091 Q1483.52 964.817 1480.44 969.424 Q1477.38 974.007 1471.57 974.007 Q1465.76 974.007 1462.68 969.424 Q1459.63 964.817 1459.63 956.091 Q1459.63 947.341 1462.68 942.757 Q1465.76 938.151 1471.57 938.151 Z" fill="#000000" fill-rule="nonzero" fill-opacity="1" /><path clip-path="url(#clip490)" d="M1713.58 969.401 L1721.22 969.401 L1721.22 943.035 L1712.91 944.702 L1712.91 940.443 L1721.17 938.776 L1725.85 938.776 L1725.85 969.401 L1733.49 969.401 L1733.49 973.336 L1713.58 973.336 L1713.58 969.401 Z" fill="#000000" fill-rule="nonzero" fill-opacity="1" /><path clip-path="url(#clip490)" d="M1969.47 969.401 L1985.79 969.401 L1985.79 973.336 L1963.85 973.336 L1963.85 969.401 Q1966.51 966.646 1971.09 962.016 Q1975.7 957.364 1976.88 956.021 Q1979.12 953.498 1980 951.762 Q1980.91 950.003 1980.91 948.313 Q1980.91 945.558 1978.96 943.822 Q1977.04 942.086 1973.94 942.086 Q1971.74 942.086 1969.29 942.85 Q1966.86 943.614 1964.08 945.165 L1964.08 940.443 Q1966.9 939.308 1969.36 938.73 Q1971.81 938.151 1973.85 938.151 Q1979.22 938.151 1982.41 940.836 Q1985.61 943.521 1985.61 948.012 Q1985.61 950.142 1984.8 952.063 Q1984.01 953.961 1981.9 956.554 Q1981.32 957.225 1978.22 960.442 Q1975.12 963.637 1969.47 969.401 Z" fill="#000000" fill-rule="nonzero" fill-opacity="1" /><path clip-path="url(#clip490)" d="M2230.69 954.702 Q2234.05 955.419 2235.92 957.688 Q2237.82 959.956 2237.82 963.29 Q2237.82 968.405 2234.3 971.206 Q2230.78 974.007 2224.3 974.007 Q2222.12 974.007 2219.81 973.567 Q2217.52 973.151 2215.06 972.294 L2215.06 967.78 Q2217.01 968.915 2219.32 969.493 Q2221.64 970.072 2224.16 970.072 Q2228.56 970.072 2230.85 968.336 Q2233.17 966.6 2233.17 963.29 Q2233.17 960.234 2231.01 958.521 Q2228.88 956.785 2225.06 956.785 L2221.04 956.785 L2221.04 952.942 L2225.25 952.942 Q2228.7 952.942 2230.53 951.577 Q2232.36 950.188 2232.36 947.595 Q2232.36 944.933 2230.46 943.521 Q2228.58 942.086 2225.06 942.086 Q2223.14 942.086 2220.94 942.503 Q2218.74 942.919 2216.11 943.799 L2216.11 939.632 Q2218.77 938.892 2221.08 938.521 Q2223.42 938.151 2225.48 938.151 Q2230.8 938.151 2233.91 940.581 Q2237.01 942.989 2237.01 947.109 Q2237.01 949.979 2235.36 951.97 Q2233.72 953.938 2230.69 954.702 Z" fill="#000000" fill-rule="nonzero" fill-opacity="1" /><polyline clip-path="url(#clip494)" style="stroke:#000000; stroke-linecap:round; stroke-linejoin:round; stroke-width:2; stroke-opacity:0.1; fill:none" points="1445.91,839.382 2352.76,839.382 "/>
<polyline clip-path="url(#clip494)" style="stroke:#000000; stroke-linecap:round; stroke-linejoin:round; stroke-width:2; stroke-opacity:0.1; fill:none" points="1445.91,766.855 2352.76,766.855 "/>
<polyline clip-path="url(#clip494)" style="stroke:#000000; stroke-linecap:round; stroke-linejoin:round; stroke-width:2; stroke-opacity:0.1; fill:none" points="1445.91,694.329 2352.76,694.329 "/>
<polyline clip-path="url(#clip494)" style="stroke:#000000; stroke-linecap:round; stroke-linejoin:round; stroke-width:2; stroke-opacity:0.1; fill:none" points="1445.91,621.802 2352.76,621.802 "/>
<polyline clip-path="url(#clip490)" style="stroke:#000000; stroke-linecap:round; stroke-linejoin:round; stroke-width:4; stroke-opacity:1; fill:none" points="1445.91,910.936 1445.91,559.488 "/>
<polyline clip-path="url(#clip490)" style="stroke:#000000; stroke-linecap:round; stroke-linejoin:round; stroke-width:4; stroke-opacity:1; fill:none" points="1445.91,839.382 1464.81,839.382 "/>
<polyline clip-path="url(#clip490)" style="stroke:#000000; stroke-linecap:round; stroke-linejoin:round; stroke-width:4; stroke-opacity:1; fill:none" points="1445.91,766.855 1464.81,766.855 "/>
<polyline clip-path="url(#clip490)" style="stroke:#000000; stroke-linecap:round; stroke-linejoin:round; stroke-width:4; stroke-opacity:1; fill:none" points="1445.91,694.329 1464.81,694.329 "/>
<polyline clip-path="url(#clip490)" style="stroke:#000000; stroke-linecap:round; stroke-linejoin:round; stroke-width:4; stroke-opacity:1; fill:none" points="1445.91,621.802 1464.81,621.802 "/>
<path clip-path="url(#clip490)" d="M1352.73 825.181 Q1349.12 825.181 1347.29 828.745 Q1345.49 832.287 1345.49 839.417 Q1345.49 846.523 1347.29 850.088 Q1349.12 853.629 1352.73 853.629 Q1356.37 853.629 1358.17 850.088 Q1360 846.523 1360 839.417 Q1360 832.287 1358.17 828.745 Q1356.37 825.181 1352.73 825.181 M1352.73 821.477 Q1358.54 821.477 1361.6 826.083 Q1364.68 830.667 1364.68 839.417 Q1364.68 848.143 1361.6 852.75 Q1358.54 857.333 1352.73 857.333 Q1346.92 857.333 1343.84 852.75 Q1340.79 848.143 1340.79 839.417 Q1340.79 830.667 1343.84 826.083 Q1346.92 821.477 1352.73 821.477 Z" fill="#000000" fill-rule="nonzero" fill-opacity="1" /><path clip-path="url(#clip490)" d="M1372.89 850.782 L1377.78 850.782 L1377.78 856.662 L1372.89 856.662 L1372.89 850.782 Z" fill="#000000" fill-rule="nonzero" fill-opacity="1" /><path clip-path="url(#clip490)" d="M1397.96 825.181 Q1394.35 825.181 1392.52 828.745 Q1390.72 832.287 1390.72 839.417 Q1390.72 846.523 1392.52 850.088 Q1394.35 853.629 1397.96 853.629 Q1401.6 853.629 1403.4 850.088 Q1405.23 846.523 1405.23 839.417 Q1405.23 832.287 1403.4 828.745 Q1401.6 825.181 1397.96 825.181 M1397.96 821.477 Q1403.77 821.477 1406.83 826.083 Q1409.91 830.667 1409.91 839.417 Q1409.91 848.143 1406.83 852.75 Q1403.77 857.333 1397.96 857.333 Q1392.15 857.333 1389.07 852.75 Q1386.02 848.143 1386.02 839.417 Q1386.02 830.667 1389.07 826.083 Q1392.15 821.477 1397.96 821.477 Z" fill="#000000" fill-rule="nonzero" fill-opacity="1" /><path clip-path="url(#clip490)" d="M1353.38 752.654 Q1349.77 752.654 1347.94 756.219 Q1346.13 759.761 1346.13 766.89 Q1346.13 773.997 1347.94 777.561 Q1349.77 781.103 1353.38 781.103 Q1357.01 781.103 1358.82 777.561 Q1360.65 773.997 1360.65 766.89 Q1360.65 759.761 1358.82 756.219 Q1357.01 752.654 1353.38 752.654 M1353.38 748.95 Q1359.19 748.95 1362.25 753.557 Q1365.32 758.14 1365.32 766.89 Q1365.32 775.617 1362.25 780.223 Q1359.19 784.807 1353.38 784.807 Q1347.57 784.807 1344.49 780.223 Q1341.44 775.617 1341.44 766.89 Q1341.44 758.14 1344.49 753.557 Q1347.57 748.95 1353.38 748.95 Z" fill="#000000" fill-rule="nonzero" fill-opacity="1" /><path clip-path="url(#clip490)" d="M1373.54 778.256 L1378.43 778.256 L1378.43 784.135 L1373.54 784.135 L1373.54 778.256 Z" fill="#000000" fill-rule="nonzero" fill-opacity="1" /><path clip-path="url(#clip490)" d="M1402.78 765.501 Q1406.13 766.219 1408.01 768.487 Q1409.91 770.756 1409.91 774.089 Q1409.91 779.205 1406.39 782.006 Q1402.87 784.807 1396.39 784.807 Q1394.21 784.807 1391.9 784.367 Q1389.61 783.95 1387.15 783.094 L1387.15 778.58 Q1389.1 779.714 1391.41 780.293 Q1393.73 780.872 1396.25 780.872 Q1400.65 780.872 1402.94 779.135 Q1405.26 777.399 1405.26 774.089 Q1405.26 771.034 1403.1 769.321 Q1400.97 767.585 1397.15 767.585 L1393.13 767.585 L1393.13 763.742 L1397.34 763.742 Q1400.79 763.742 1402.62 762.376 Q1404.44 760.987 1404.44 758.395 Q1404.44 755.733 1402.55 754.321 Q1400.67 752.886 1397.15 752.886 Q1395.23 752.886 1393.03 753.302 Q1390.83 753.719 1388.19 754.599 L1388.19 750.432 Q1390.86 749.691 1393.17 749.321 Q1395.51 748.95 1397.57 748.95 Q1402.89 748.95 1406 751.381 Q1409.1 753.788 1409.1 757.909 Q1409.1 760.779 1407.45 762.77 Q1405.81 764.737 1402.78 765.501 Z" fill="#000000" fill-rule="nonzero" fill-opacity="1" /><path clip-path="url(#clip490)" d="M1352.57 680.128 Q1348.96 680.128 1347.13 683.692 Q1345.32 687.234 1345.32 694.364 Q1345.32 701.47 1347.13 705.035 Q1348.96 708.577 1352.57 708.577 Q1356.2 708.577 1358.01 705.035 Q1359.84 701.47 1359.84 694.364 Q1359.84 687.234 1358.01 683.692 Q1356.2 680.128 1352.57 680.128 M1352.57 676.424 Q1358.38 676.424 1361.44 681.03 Q1364.51 685.614 1364.51 694.364 Q1364.51 703.09 1361.44 707.697 Q1358.38 712.28 1352.57 712.28 Q1346.76 712.28 1343.68 707.697 Q1340.63 703.09 1340.63 694.364 Q1340.63 685.614 1343.68 681.03 Q1346.76 676.424 1352.57 676.424 Z" fill="#000000" fill-rule="nonzero" fill-opacity="1" /><path clip-path="url(#clip490)" d="M1372.73 705.729 L1377.62 705.729 L1377.62 711.609 L1372.73 711.609 L1372.73 705.729 Z" fill="#000000" fill-rule="nonzero" fill-opacity="1" /><path clip-path="url(#clip490)" d="M1398.38 692.466 Q1395.23 692.466 1393.38 694.618 Q1391.55 696.771 1391.55 700.521 Q1391.55 704.248 1393.38 706.424 Q1395.23 708.577 1398.38 708.577 Q1401.53 708.577 1403.36 706.424 Q1405.21 704.248 1405.21 700.521 Q1405.21 696.771 1403.36 694.618 Q1401.53 692.466 1398.38 692.466 M1407.66 677.813 L1407.66 682.072 Q1405.9 681.239 1404.1 680.799 Q1402.32 680.359 1400.56 680.359 Q1395.93 680.359 1393.47 683.484 Q1391.04 686.609 1390.69 692.929 Q1392.06 690.915 1394.12 689.85 Q1396.18 688.762 1398.66 688.762 Q1403.87 688.762 1406.88 691.933 Q1409.91 695.081 1409.91 700.521 Q1409.91 705.845 1406.76 709.063 Q1403.61 712.28 1398.38 712.28 Q1392.38 712.28 1389.21 707.697 Q1386.04 703.09 1386.04 694.364 Q1386.04 686.169 1389.93 681.308 Q1393.82 676.424 1400.37 676.424 Q1402.13 676.424 1403.91 676.771 Q1405.72 677.118 1407.66 677.813 Z" fill="#000000" fill-rule="nonzero" fill-opacity="1" /><path clip-path="url(#clip490)" d="M1352.92 607.601 Q1349.31 607.601 1347.48 611.166 Q1345.67 614.708 1345.67 621.837 Q1345.67 628.944 1347.48 632.508 Q1349.31 636.05 1352.92 636.05 Q1356.55 636.05 1358.36 632.508 Q1360.19 628.944 1360.19 621.837 Q1360.19 614.708 1358.36 611.166 Q1356.55 607.601 1352.92 607.601 M1352.92 603.898 Q1358.73 603.898 1361.78 608.504 Q1364.86 613.087 1364.86 621.837 Q1364.86 630.564 1361.78 635.17 Q1358.73 639.754 1352.92 639.754 Q1347.11 639.754 1344.03 635.17 Q1340.97 630.564 1340.97 621.837 Q1340.97 613.087 1344.03 608.504 Q1347.11 603.898 1352.92 603.898 Z" fill="#000000" fill-rule="nonzero" fill-opacity="1" /><path clip-path="url(#clip490)" d="M1373.08 633.203 L1377.96 633.203 L1377.96 639.082 L1373.08 639.082 L1373.08 633.203 Z" fill="#000000" fill-rule="nonzero" fill-opacity="1" /><path clip-path="url(#clip490)" d="M1388.29 638.365 L1388.29 634.106 Q1390.05 634.939 1391.85 635.379 Q1393.66 635.819 1395.39 635.819 Q1400.02 635.819 1402.45 632.717 Q1404.91 629.592 1405.26 623.249 Q1403.91 625.24 1401.85 626.305 Q1399.79 627.37 1397.29 627.37 Q1392.11 627.37 1389.07 624.245 Q1386.07 621.096 1386.07 615.657 Q1386.07 610.333 1389.21 607.115 Q1392.36 603.898 1397.59 603.898 Q1403.59 603.898 1406.74 608.504 Q1409.91 613.087 1409.91 621.837 Q1409.91 630.008 1406.02 634.893 Q1402.15 639.754 1395.6 639.754 Q1393.84 639.754 1392.04 639.407 Q1390.23 639.059 1388.29 638.365 M1397.59 623.712 Q1400.74 623.712 1402.57 621.559 Q1404.42 619.407 1404.42 615.657 Q1404.42 611.93 1402.57 609.777 Q1400.74 607.601 1397.59 607.601 Q1394.44 607.601 1392.59 609.777 Q1390.76 611.93 1390.76 615.657 Q1390.76 619.407 1392.59 621.559 Q1394.44 623.712 1397.59 623.712 Z" fill="#000000" fill-rule="nonzero" fill-opacity="1" /><path clip-path="url(#clip490)" d="M1256.25 734.795 Q1258.05 734.795 1259.08 735.922 Q1260.08 737.049 1260.08 738.338 Q1260.08 739.561 1259.37 740.206 Q1258.66 740.85 1257.76 740.85 Q1256.54 740.85 1255.47 739.948 Q1254.41 739.046 1254.19 737.693 Q1253.35 739.014 1253.35 740.978 Q1253.35 742.267 1254.03 743.394 Q1254.7 744.489 1255.57 745.165 Q1256.44 745.809 1257.7 746.389 Q1258.92 746.937 1259.66 747.162 Q1260.37 747.355 1261.14 747.516 L1270.16 749.771 Q1274.44 750.866 1275.96 750.866 Q1277.83 750.866 1279.08 749.964 Q1280.31 749.062 1280.31 747.259 Q1280.31 746.55 1280.11 745.745 Q1279.89 744.94 1279.31 743.909 Q1278.69 742.846 1277.79 741.912 Q1276.86 740.946 1275.28 740.012 Q1273.7 739.078 1271.67 738.466 Q1270.97 738.273 1270.97 737.629 Q1270.97 736.824 1271.61 736.824 Q1272.16 736.824 1273.32 737.275 Q1274.44 737.693 1275.93 738.627 Q1277.37 739.529 1278.69 740.721 Q1279.98 741.912 1280.88 743.684 Q1281.79 745.455 1281.79 747.387 Q1281.79 750.157 1280.31 751.993 Q1278.82 753.829 1276.76 754.505 Q1277.05 754.666 1277.44 754.891 Q1277.83 755.117 1278.69 755.793 Q1279.53 756.437 1280.18 757.178 Q1280.79 757.919 1281.27 759.078 Q1281.79 760.205 1281.79 761.429 Q1281.79 762.975 1281.34 764.36 Q1280.88 765.713 1279.85 766.679 Q1278.82 767.645 1277.41 767.645 Q1275.83 767.645 1274.73 766.582 Q1273.61 765.487 1273.61 764.006 Q1273.61 763.072 1274.15 762.331 Q1274.7 761.558 1275.89 761.558 Q1277.21 761.558 1278.21 762.46 Q1279.21 763.362 1279.47 764.65 Q1280.31 763.329 1280.31 761.365 Q1280.31 759.239 1278.44 757.565 Q1276.57 755.89 1273.45 755.085 Q1265.94 753.088 1262.59 752.315 Q1259.21 751.542 1257.76 751.542 Q1256.41 751.542 1255.47 751.896 Q1254.54 752.251 1254.12 752.862 Q1253.67 753.442 1253.51 753.99 Q1253.35 754.505 1253.35 755.085 Q1253.35 756.051 1253.74 757.146 Q1254.12 758.209 1255.02 759.497 Q1255.89 760.753 1257.7 761.944 Q1259.5 763.136 1261.98 763.941 Q1262.72 764.102 1262.72 764.811 Q1262.69 765.584 1262.04 765.584 Q1261.5 765.584 1260.37 765.165 Q1259.21 764.714 1257.76 763.812 Q1256.31 762.878 1255.02 761.687 Q1253.7 760.463 1252.8 758.692 Q1251.9 756.888 1251.9 754.956 Q1251.9 754.086 1252.09 753.249 Q1252.25 752.379 1252.74 751.349 Q1253.22 750.286 1254.28 749.352 Q1255.35 748.418 1256.89 747.838 Q1256.15 747.452 1255.44 746.937 Q1254.73 746.389 1253.86 745.552 Q1252.96 744.682 1252.45 743.491 Q1251.9 742.267 1251.9 740.914 Q1251.9 739.594 1252.25 738.305 Q1252.58 737.017 1253.64 735.922 Q1254.67 734.795 1256.25 734.795 Z" fill="#000000" fill-rule="nonzero" fill-opacity="1" /><path clip-path="url(#clip490)" d="M1300.06 728.074 Q1299.22 728.074 1298.97 728.006 Q1298.73 727.916 1298.34 727.555 L1288.47 718.695 Q1283.01 713.848 1278.26 713.848 Q1275.17 713.848 1272.96 715.472 Q1270.75 717.072 1270.75 720.025 Q1270.75 722.054 1271.99 723.768 Q1273.23 725.481 1275.44 726.27 Q1275.39 726.135 1275.39 725.661 Q1275.39 724.512 1276.11 723.88 Q1276.84 723.227 1277.81 723.227 Q1279.05 723.227 1279.65 724.038 Q1280.24 724.827 1280.24 725.616 Q1280.24 725.932 1280.17 726.36 Q1280.11 726.766 1279.47 727.42 Q1278.82 728.074 1277.67 728.074 Q1274.45 728.074 1271.88 725.639 Q1269.31 723.182 1269.31 719.439 Q1269.31 715.201 1271.83 712.428 Q1274.33 709.633 1278.26 709.633 Q1279.63 709.633 1280.89 710.061 Q1282.13 710.467 1283.1 711.03 Q1284.07 711.571 1285.63 713.059 Q1287.18 714.547 1288.29 715.742 Q1289.39 716.937 1291.74 719.62 L1296.49 724.512 L1296.49 716.193 Q1296.49 712.135 1296.13 711.819 Q1295.48 711.369 1292.03 710.805 L1292.03 709.633 L1300.06 710.94 L1300.06 728.074 Z" fill="#000000" fill-rule="nonzero" fill-opacity="1" /><polyline clip-path="url(#clip494)" style="stroke:#009af9; stroke-linecap:round; stroke-linejoin:round; stroke-width:4; stroke-opacity:1; fill:none" points="1471.57,839.382 1496.74,649.04 1521.9,569.435 1547.06,571.545 1572.22,621.776 1597.38,690.854 1622.55,758.343 1647.71,812.938 1672.87,850.465 1698.03,871.39 1723.2,878.744 1748.36,876.588 1773.52,868.977 1798.68,859.313 1823.85,850.035 1849.01,842.576 1874.17,837.501 1899.33,834.745 1924.49,833.871 1949.66,834.287 1974.82,835.414 1999.98,836.779 2025.14,838.052 2050.31,839.053 2075.47,839.717 2100.63,840.062 2125.79,840.155 2150.95,840.079 2176.12,839.913 2201.28,839.722 2226.44,839.547 2251.6,839.413 2276.77,839.326 2301.93,839.283 2327.09,839.274 "/>
<polyline clip-path="url(#clip494)" style="stroke:#e26f46; stroke-linecap:round; stroke-linejoin:round; stroke-width:3; stroke-opacity:1; fill:none" stroke-dasharray="12, 6, 2, 6" points="1471.57,839.382 1496.74,642.909 1521.9,580.201 1547.06,572.745 1572.22,583.496 1597.38,692.907 1622.55,778.973 1647.71,821.591 1672.87,869.131 1698.03,894.053 1723.2,900.989 1748.36,897.498 1773.52,887.988 1798.68,862.589 1823.85,854.94 1849.01,846.922 1874.17,833.51 1899.33,841.317 1924.49,837.237 1949.66,827.488 1974.82,838.095 1999.98,837.152 2025.14,840.145 2050.31,834.89 2075.47,850.822 2100.63,840.561 2125.79,836.825 2150.95,837.7 2176.12,847.144 2201.28,845.483 2226.44,827.672 2251.6,824.99 2276.77,837.757 2301.93,843.064 2327.09,843.758 "/>
<path clip-path="url(#clip490)" d="M2203.01 726.723 L2322.53 726.723 L2322.53 571.203 L2203.01 571.203  Z" fill="#ffffff" fill-rule="evenodd" fill-opacity="1"/>
<polyline clip-path="url(#clip490)" style="stroke:#000000; stroke-linecap:round; stroke-linejoin:round; stroke-width:4; stroke-opacity:1; fill:none" points="2203.01,726.723 2322.53,726.723 2322.53,571.203 2203.01,571.203 2203.01,726.723 "/>
<polyline clip-path="url(#clip490)" style="stroke:#009af9; stroke-linecap:round; stroke-linejoin:round; stroke-width:4; stroke-opacity:1; fill:none" points="2213.09,623.043 2273.55,623.043 "/>
<path clip-path="url(#clip490)" d="M2310.63 633.582 L2305.36 633.442 L2299.6 633.582 L2299.6 631.334 L2301.47 631.334 L2296.2 625.103 L2291.54 630.326 L2291.21 630.795 Q2291.21 631.006 2291.75 631.17 Q2292.31 631.334 2292.97 631.334 L2292.97 633.582 L2288.03 633.442 L2283.62 633.582 L2283.62 631.334 Q2285.1 631.334 2285.78 631.31 Q2286.48 631.263 2287.28 631.052 Q2288.07 630.842 2288.47 630.42 L2294.75 623.37 L2287.28 614.54 L2283.86 614.54 L2283.86 612.291 L2289.15 612.432 L2294.94 612.291 L2294.94 614.54 L2293.01 614.54 L2297.72 620.044 L2301.75 615.547 Q2301.77 615.523 2302.15 614.961 Q2301.4 614.54 2300.32 614.54 L2300.32 612.291 L2305.26 612.432 L2309.67 612.291 L2309.67 614.54 Q2307.75 614.54 2306.74 614.68 Q2305.76 614.797 2305.45 614.961 Q2305.17 615.125 2304.77 615.547 L2299.17 621.777 L2307.23 631.334 L2310.63 631.334 L2310.63 633.582 Z" fill="#000000" fill-rule="nonzero" fill-opacity="1" /><polyline clip-path="url(#clip490)" style="stroke:#e26f46; stroke-linecap:round; stroke-linejoin:round; stroke-width:3; stroke-opacity:1; fill:none" stroke-dasharray="12, 6, 2, 6" points="2213.09,674.883 2273.55,674.883 "/>
<path clip-path="url(#clip490)" d="M2306.21 663.361 L2305.8 664.033 Q2303.26 662.935 2300.09 661.18 Q2296.93 662.935 2294.39 664.033 L2293.99 663.361 Q2296.76 660.951 2300.09 659.098 Q2303.45 660.967 2306.21 663.361 Z" fill="#000000" fill-rule="nonzero" fill-opacity="1" /><path clip-path="url(#clip490)" d="M2310.63 690.427 L2305.36 690.286 L2299.6 690.427 L2299.6 688.178 L2301.47 688.178 L2296.2 681.948 L2291.54 687.171 L2291.21 687.639 Q2291.21 687.85 2291.75 688.014 Q2292.31 688.178 2292.97 688.178 L2292.97 690.427 L2288.03 690.286 L2283.62 690.427 L2283.62 688.178 Q2285.1 688.178 2285.78 688.155 Q2286.48 688.108 2287.28 687.897 Q2288.07 687.686 2288.47 687.265 L2294.75 680.214 L2287.28 671.384 L2283.86 671.384 L2283.86 669.136 L2289.15 669.276 L2294.94 669.136 L2294.94 671.384 L2293.01 671.384 L2297.72 676.888 L2301.75 672.391 Q2301.77 672.368 2302.15 671.806 Q2301.4 671.384 2300.32 671.384 L2300.32 669.136 L2305.26 669.276 L2309.67 669.136 L2309.67 671.384 Q2307.75 671.384 2306.74 671.525 Q2305.76 671.642 2305.45 671.806 Q2305.17 671.97 2304.77 672.391 L2299.17 678.622 L2307.23 688.178 L2310.63 688.178 L2310.63 690.427 Z" fill="#000000" fill-rule="nonzero" fill-opacity="1" /><path clip-path="url(#clip490)" d="M1445.91 1423.18 L2352.76 1423.18 L2352.76 1071.73 L1445.91 1071.73  Z" fill="#ffffff" fill-rule="evenodd" fill-opacity="1"/>
<defs>
  <clipPath id="clip495">
    <rect x="1445" y="1071" width="908" height="352"/>
  </clipPath>
</defs>
<polyline clip-path="url(#clip495)" style="stroke:#000000; stroke-linecap:round; stroke-linejoin:round; stroke-width:2; stroke-opacity:0.1; fill:none" points="1471.57,1423.18 1471.57,1071.73 "/>
<polyline clip-path="url(#clip495)" style="stroke:#000000; stroke-linecap:round; stroke-linejoin:round; stroke-width:2; stroke-opacity:0.1; fill:none" points="1723.2,1423.18 1723.2,1071.73 "/>
<polyline clip-path="url(#clip495)" style="stroke:#000000; stroke-linecap:round; stroke-linejoin:round; stroke-width:2; stroke-opacity:0.1; fill:none" points="1974.82,1423.18 1974.82,1071.73 "/>
<polyline clip-path="url(#clip495)" style="stroke:#000000; stroke-linecap:round; stroke-linejoin:round; stroke-width:2; stroke-opacity:0.1; fill:none" points="2226.44,1423.18 2226.44,1071.73 "/>
<polyline clip-path="url(#clip490)" style="stroke:#000000; stroke-linecap:round; stroke-linejoin:round; stroke-width:4; stroke-opacity:1; fill:none" points="1445.91,1423.18 2352.76,1423.18 "/>
<polyline clip-path="url(#clip490)" style="stroke:#000000; stroke-linecap:round; stroke-linejoin:round; stroke-width:4; stroke-opacity:1; fill:none" points="1471.57,1423.18 1471.57,1404.28 "/>
<polyline clip-path="url(#clip490)" style="stroke:#000000; stroke-linecap:round; stroke-linejoin:round; stroke-width:4; stroke-opacity:1; fill:none" points="1723.2,1423.18 1723.2,1404.28 "/>
<polyline clip-path="url(#clip490)" style="stroke:#000000; stroke-linecap:round; stroke-linejoin:round; stroke-width:4; stroke-opacity:1; fill:none" points="1974.82,1423.18 1974.82,1404.28 "/>
<polyline clip-path="url(#clip490)" style="stroke:#000000; stroke-linecap:round; stroke-linejoin:round; stroke-width:4; stroke-opacity:1; fill:none" points="2226.44,1423.18 2226.44,1404.28 "/>
<path clip-path="url(#clip490)" d="M1471.57 1454.1 Q1467.96 1454.1 1466.13 1457.66 Q1464.33 1461.2 1464.33 1468.33 Q1464.33 1475.44 1466.13 1479.01 Q1467.96 1482.55 1471.57 1482.55 Q1475.21 1482.55 1477.01 1479.01 Q1478.84 1475.44 1478.84 1468.33 Q1478.84 1461.2 1477.01 1457.66 Q1475.21 1454.1 1471.57 1454.1 M1471.57 1450.39 Q1477.38 1450.39 1480.44 1455 Q1483.52 1459.58 1483.52 1468.33 Q1483.52 1477.06 1480.44 1481.67 Q1477.38 1486.25 1471.57 1486.25 Q1465.76 1486.25 1462.68 1481.67 Q1459.63 1477.06 1459.63 1468.33 Q1459.63 1459.58 1462.68 1455 Q1465.76 1450.39 1471.57 1450.39 Z" fill="#000000" fill-rule="nonzero" fill-opacity="1" /><path clip-path="url(#clip490)" d="M1713.58 1481.64 L1721.22 1481.64 L1721.22 1455.28 L1712.91 1456.95 L1712.91 1452.69 L1721.17 1451.02 L1725.85 1451.02 L1725.85 1481.64 L1733.49 1481.64 L1733.49 1485.58 L1713.58 1485.58 L1713.58 1481.64 Z" fill="#000000" fill-rule="nonzero" fill-opacity="1" /><path clip-path="url(#clip490)" d="M1969.47 1481.64 L1985.79 1481.64 L1985.79 1485.58 L1963.85 1485.58 L1963.85 1481.64 Q1966.51 1478.89 1971.09 1474.26 Q1975.7 1469.61 1976.88 1468.27 Q1979.12 1465.74 1980 1464.01 Q1980.91 1462.25 1980.91 1460.56 Q1980.91 1457.8 1978.96 1456.07 Q1977.04 1454.33 1973.94 1454.33 Q1971.74 1454.33 1969.29 1455.09 Q1966.86 1455.86 1964.08 1457.41 L1964.08 1452.69 Q1966.9 1451.55 1969.36 1450.97 Q1971.81 1450.39 1973.85 1450.39 Q1979.22 1450.39 1982.41 1453.08 Q1985.61 1455.77 1985.61 1460.26 Q1985.61 1462.39 1984.8 1464.31 Q1984.01 1466.2 1981.9 1468.8 Q1981.32 1469.47 1978.22 1472.69 Q1975.12 1475.88 1969.47 1481.64 Z" fill="#000000" fill-rule="nonzero" fill-opacity="1" /><path clip-path="url(#clip490)" d="M2230.69 1466.95 Q2234.05 1467.66 2235.92 1469.93 Q2237.82 1472.2 2237.82 1475.53 Q2237.82 1480.65 2234.3 1483.45 Q2230.78 1486.25 2224.3 1486.25 Q2222.12 1486.25 2219.81 1485.81 Q2217.52 1485.39 2215.06 1484.54 L2215.06 1480.02 Q2217.01 1481.16 2219.32 1481.74 Q2221.64 1482.32 2224.16 1482.32 Q2228.56 1482.32 2230.85 1480.58 Q2233.17 1478.84 2233.17 1475.53 Q2233.17 1472.48 2231.01 1470.77 Q2228.88 1469.03 2225.06 1469.03 L2221.04 1469.03 L2221.04 1465.19 L2225.25 1465.19 Q2228.7 1465.19 2230.53 1463.82 Q2232.36 1462.43 2232.36 1459.84 Q2232.36 1457.18 2230.46 1455.77 Q2228.58 1454.33 2225.06 1454.33 Q2223.14 1454.33 2220.94 1454.75 Q2218.74 1455.16 2216.11 1456.04 L2216.11 1451.88 Q2218.77 1451.14 2221.08 1450.77 Q2223.42 1450.39 2225.48 1450.39 Q2230.8 1450.39 2233.91 1452.83 Q2237.01 1455.23 2237.01 1459.35 Q2237.01 1462.22 2235.36 1464.21 Q2233.72 1466.18 2230.69 1466.95 Z" fill="#000000" fill-rule="nonzero" fill-opacity="1" /><path clip-path="url(#clip490)" d="M1769.5 1520.52 L1809.7 1520.52 L1809.7 1525.93 L1792.83 1525.93 L1792.83 1568.04 L1786.37 1568.04 L1786.37 1525.93 L1769.5 1525.93 L1769.5 1520.52 Z" fill="#000000" fill-rule="nonzero" fill-opacity="1" /><path clip-path="url(#clip490)" d="M1813.65 1532.4 L1819.51 1532.4 L1819.51 1568.04 L1813.65 1568.04 L1813.65 1532.4 M1813.65 1518.52 L1819.51 1518.52 L1819.51 1525.93 L1813.65 1525.93 L1813.65 1518.52 Z" fill="#000000" fill-rule="nonzero" fill-opacity="1" /><path clip-path="url(#clip490)" d="M1859.51 1539.24 Q1861.71 1535.29 1864.77 1533.41 Q1867.82 1531.54 1871.96 1531.54 Q1877.53 1531.54 1880.55 1535.45 Q1883.58 1539.33 1883.58 1546.53 L1883.58 1568.04 L1877.69 1568.04 L1877.69 1546.72 Q1877.69 1541.59 1875.87 1539.11 Q1874.06 1536.63 1870.34 1536.63 Q1865.78 1536.63 1863.14 1539.65 Q1860.5 1542.68 1860.5 1547.9 L1860.5 1568.04 L1854.61 1568.04 L1854.61 1546.72 Q1854.61 1541.56 1852.8 1539.11 Q1850.98 1536.63 1847.2 1536.63 Q1842.71 1536.63 1840.07 1539.68 Q1837.43 1542.71 1837.43 1547.9 L1837.43 1568.04 L1831.54 1568.04 L1831.54 1532.4 L1837.43 1532.4 L1837.43 1537.93 Q1839.43 1534.66 1842.23 1533.1 Q1845.03 1531.54 1848.88 1531.54 Q1852.77 1531.54 1855.47 1533.51 Q1858.21 1535.48 1859.51 1539.24 Z" fill="#000000" fill-rule="nonzero" fill-opacity="1" /><path clip-path="url(#clip490)" d="M1925.75 1548.76 L1925.75 1551.62 L1898.82 1551.62 Q1899.2 1557.67 1902.45 1560.85 Q1905.73 1564 1911.55 1564 Q1914.93 1564 1918.08 1563.17 Q1921.26 1562.35 1924.38 1560.69 L1924.38 1566.23 Q1921.23 1567.57 1917.92 1568.27 Q1914.61 1568.97 1911.2 1568.97 Q1902.67 1568.97 1897.68 1564 Q1892.71 1559.04 1892.71 1550.57 Q1892.71 1541.82 1897.42 1536.69 Q1902.16 1531.54 1910.19 1531.54 Q1917.38 1531.54 1921.55 1536.18 Q1925.75 1540.8 1925.75 1548.76 M1919.89 1547.04 Q1919.83 1542.23 1917.19 1539.37 Q1914.58 1536.5 1910.25 1536.5 Q1905.35 1536.5 1902.39 1539.27 Q1899.46 1542.04 1899.01 1547.07 L1919.89 1547.04 Z" fill="#000000" fill-rule="nonzero" fill-opacity="1" /><path clip-path="url(#clip490)" d="M1970.15 1518.58 Q1965.89 1525.9 1963.82 1533.06 Q1961.75 1540.23 1961.75 1547.58 Q1961.75 1554.93 1963.82 1562.16 Q1965.92 1569.35 1970.15 1576.64 L1965.06 1576.64 Q1960.28 1569.16 1957.9 1561.93 Q1955.54 1554.71 1955.54 1547.58 Q1955.54 1540.48 1957.9 1533.29 Q1960.25 1526.09 1965.06 1518.58 L1970.15 1518.58 Z" fill="#000000" fill-rule="nonzero" fill-opacity="1" /><path clip-path="url(#clip490)" d="M2004.24 1533.45 L2004.24 1538.98 Q2001.76 1537.71 1999.08 1537.07 Q1996.41 1536.44 1993.54 1536.44 Q1989.18 1536.44 1986.99 1537.77 Q1984.82 1539.11 1984.82 1541.79 Q1984.82 1543.82 1986.38 1545 Q1987.94 1546.15 1992.65 1547.2 L1994.66 1547.64 Q2000.9 1548.98 2003.51 1551.43 Q2006.15 1553.85 2006.15 1558.21 Q2006.15 1563.17 2002.2 1566.07 Q1998.29 1568.97 1991.41 1568.97 Q1988.55 1568.97 1985.43 1568.39 Q1982.34 1567.85 1978.9 1566.74 L1978.9 1560.69 Q1982.15 1562.38 1985.3 1563.24 Q1988.45 1564.07 1991.54 1564.07 Q1995.68 1564.07 1997.9 1562.66 Q2000.13 1561.23 2000.13 1558.65 Q2000.13 1556.27 1998.51 1554.99 Q1996.92 1553.72 1991.48 1552.54 L1989.44 1552.07 Q1984 1550.92 1981.58 1548.56 Q1979.16 1546.18 1979.16 1542.04 Q1979.16 1537.01 1982.72 1534.27 Q1986.29 1531.54 1992.84 1531.54 Q1996.09 1531.54 1998.96 1532.01 Q2001.82 1532.49 2004.24 1533.45 Z" fill="#000000" fill-rule="nonzero" fill-opacity="1" /><path clip-path="url(#clip490)" d="M2014.55 1518.58 L2019.64 1518.58 Q2024.42 1526.09 2026.77 1533.29 Q2029.16 1540.48 2029.16 1547.58 Q2029.16 1554.71 2026.77 1561.93 Q2024.42 1569.16 2019.64 1576.64 L2014.55 1576.64 Q2018.78 1569.35 2020.85 1562.16 Q2022.95 1554.93 2022.95 1547.58 Q2022.95 1540.23 2020.85 1533.06 Q2018.78 1525.9 2014.55 1518.58 Z" fill="#000000" fill-rule="nonzero" fill-opacity="1" /><polyline clip-path="url(#clip495)" style="stroke:#000000; stroke-linecap:round; stroke-linejoin:round; stroke-width:2; stroke-opacity:0.1; fill:none" points="1445.91,1405.26 2352.76,1405.26 "/>
<polyline clip-path="url(#clip495)" style="stroke:#000000; stroke-linecap:round; stroke-linejoin:round; stroke-width:2; stroke-opacity:0.1; fill:none" points="1445.91,1317.85 2352.76,1317.85 "/>
<polyline clip-path="url(#clip495)" style="stroke:#000000; stroke-linecap:round; stroke-linejoin:round; stroke-width:2; stroke-opacity:0.1; fill:none" points="1445.91,1230.44 2352.76,1230.44 "/>
<polyline clip-path="url(#clip495)" style="stroke:#000000; stroke-linecap:round; stroke-linejoin:round; stroke-width:2; stroke-opacity:0.1; fill:none" points="1445.91,1143.03 2352.76,1143.03 "/>
<polyline clip-path="url(#clip490)" style="stroke:#000000; stroke-linecap:round; stroke-linejoin:round; stroke-width:4; stroke-opacity:1; fill:none" points="1445.91,1423.18 1445.91,1071.73 "/>
<polyline clip-path="url(#clip490)" style="stroke:#000000; stroke-linecap:round; stroke-linejoin:round; stroke-width:4; stroke-opacity:1; fill:none" points="1445.91,1405.26 1464.81,1405.26 "/>
<polyline clip-path="url(#clip490)" style="stroke:#000000; stroke-linecap:round; stroke-linejoin:round; stroke-width:4; stroke-opacity:1; fill:none" points="1445.91,1317.85 1464.81,1317.85 "/>
<polyline clip-path="url(#clip490)" style="stroke:#000000; stroke-linecap:round; stroke-linejoin:round; stroke-width:4; stroke-opacity:1; fill:none" points="1445.91,1230.44 1464.81,1230.44 "/>
<polyline clip-path="url(#clip490)" style="stroke:#000000; stroke-linecap:round; stroke-linejoin:round; stroke-width:4; stroke-opacity:1; fill:none" points="1445.91,1143.03 1464.81,1143.03 "/>
<path clip-path="url(#clip490)" d="M1272.64 1405.72 L1302.32 1405.72 L1302.32 1409.65 L1272.64 1409.65 L1272.64 1405.72 Z" fill="#000000" fill-rule="nonzero" fill-opacity="1" /><path clip-path="url(#clip490)" d="M1322.41 1391.06 Q1318.8 1391.06 1316.97 1394.63 Q1315.16 1398.17 1315.16 1405.3 Q1315.16 1412.41 1316.97 1415.97 Q1318.8 1419.51 1322.41 1419.51 Q1326.04 1419.51 1327.85 1415.97 Q1329.68 1412.41 1329.68 1405.3 Q1329.68 1398.17 1327.85 1394.63 Q1326.04 1391.06 1322.41 1391.06 M1322.41 1387.36 Q1328.22 1387.36 1331.27 1391.97 Q1334.35 1396.55 1334.35 1405.3 Q1334.35 1414.03 1331.27 1418.63 Q1328.22 1423.22 1322.41 1423.22 Q1316.6 1423.22 1313.52 1418.63 Q1310.46 1414.03 1310.46 1405.3 Q1310.46 1396.55 1313.52 1391.97 Q1316.6 1387.36 1322.41 1387.36 Z" fill="#000000" fill-rule="nonzero" fill-opacity="1" /><path clip-path="url(#clip490)" d="M1342.57 1416.67 L1347.45 1416.67 L1347.45 1422.54 L1342.57 1422.54 L1342.57 1416.67 Z" fill="#000000" fill-rule="nonzero" fill-opacity="1" /><path clip-path="url(#clip490)" d="M1367.64 1391.06 Q1364.03 1391.06 1362.2 1394.63 Q1360.39 1398.17 1360.39 1405.3 Q1360.39 1412.41 1362.2 1415.97 Q1364.03 1419.51 1367.64 1419.51 Q1371.27 1419.51 1373.08 1415.97 Q1374.91 1412.41 1374.91 1405.3 Q1374.91 1398.17 1373.08 1394.63 Q1371.27 1391.06 1367.64 1391.06 M1367.64 1387.36 Q1373.45 1387.36 1376.51 1391.97 Q1379.58 1396.55 1379.58 1405.3 Q1379.58 1414.03 1376.51 1418.63 Q1373.45 1423.22 1367.64 1423.22 Q1361.83 1423.22 1358.75 1418.63 Q1355.7 1414.03 1355.7 1405.3 Q1355.7 1396.55 1358.75 1391.97 Q1361.83 1387.36 1367.64 1387.36 Z" fill="#000000" fill-rule="nonzero" fill-opacity="1" /><path clip-path="url(#clip490)" d="M1398.38 1403.4 Q1395.23 1403.4 1393.38 1405.55 Q1391.55 1407.71 1391.55 1411.46 Q1391.55 1415.18 1393.38 1417.36 Q1395.23 1419.51 1398.38 1419.51 Q1401.53 1419.51 1403.36 1417.36 Q1405.21 1415.18 1405.21 1411.46 Q1405.21 1407.71 1403.36 1405.55 Q1401.53 1403.4 1398.38 1403.4 M1407.66 1388.75 L1407.66 1393.01 Q1405.9 1392.17 1404.1 1391.73 Q1402.32 1391.29 1400.56 1391.29 Q1395.93 1391.29 1393.47 1394.42 Q1391.04 1397.54 1390.69 1403.86 Q1392.06 1401.85 1394.12 1400.79 Q1396.18 1399.7 1398.66 1399.7 Q1403.87 1399.7 1406.88 1402.87 Q1409.91 1406.02 1409.91 1411.46 Q1409.91 1416.78 1406.76 1420 Q1403.61 1423.22 1398.38 1423.22 Q1392.38 1423.22 1389.21 1418.63 Q1386.04 1414.03 1386.04 1405.3 Q1386.04 1397.1 1389.93 1392.24 Q1393.82 1387.36 1400.37 1387.36 Q1402.13 1387.36 1403.91 1387.71 Q1405.72 1388.05 1407.66 1388.75 Z" fill="#000000" fill-rule="nonzero" fill-opacity="1" /><path clip-path="url(#clip490)" d="M1272.32 1318.3 L1301.99 1318.3 L1301.99 1322.24 L1272.32 1322.24 L1272.32 1318.3 Z" fill="#000000" fill-rule="nonzero" fill-opacity="1" /><path clip-path="url(#clip490)" d="M1322.08 1303.65 Q1318.47 1303.65 1316.64 1307.22 Q1314.84 1310.76 1314.84 1317.89 Q1314.84 1324.99 1316.64 1328.56 Q1318.47 1332.1 1322.08 1332.1 Q1325.72 1332.1 1327.52 1328.56 Q1329.35 1324.99 1329.35 1317.89 Q1329.35 1310.76 1327.52 1307.22 Q1325.72 1303.65 1322.08 1303.65 M1322.08 1299.95 Q1327.89 1299.95 1330.95 1304.55 Q1334.03 1309.14 1334.03 1317.89 Q1334.03 1326.61 1330.95 1331.22 Q1327.89 1335.8 1322.08 1335.8 Q1316.27 1335.8 1313.2 1331.22 Q1310.14 1326.61 1310.14 1317.89 Q1310.14 1309.14 1313.2 1304.55 Q1316.27 1299.95 1322.08 1299.95 Z" fill="#000000" fill-rule="nonzero" fill-opacity="1" /><path clip-path="url(#clip490)" d="M1342.25 1329.25 L1347.13 1329.25 L1347.13 1335.13 L1342.25 1335.13 L1342.25 1329.25 Z" fill="#000000" fill-rule="nonzero" fill-opacity="1" /><path clip-path="url(#clip490)" d="M1367.32 1303.65 Q1363.7 1303.65 1361.88 1307.22 Q1360.07 1310.76 1360.07 1317.89 Q1360.07 1324.99 1361.88 1328.56 Q1363.7 1332.1 1367.32 1332.1 Q1370.95 1332.1 1372.76 1328.56 Q1374.58 1324.99 1374.58 1317.89 Q1374.58 1310.76 1372.76 1307.22 Q1370.95 1303.65 1367.32 1303.65 M1367.32 1299.95 Q1373.13 1299.95 1376.18 1304.55 Q1379.26 1309.14 1379.26 1317.89 Q1379.26 1326.61 1376.18 1331.22 Q1373.13 1335.8 1367.32 1335.8 Q1361.51 1335.8 1358.43 1331.22 Q1355.37 1326.61 1355.37 1317.89 Q1355.37 1309.14 1358.43 1304.55 Q1361.51 1299.95 1367.32 1299.95 Z" fill="#000000" fill-rule="nonzero" fill-opacity="1" /><path clip-path="url(#clip490)" d="M1400.32 1304.65 L1388.52 1323.1 L1400.32 1323.1 L1400.32 1304.65 M1399.1 1300.57 L1404.98 1300.57 L1404.98 1323.1 L1409.91 1323.1 L1409.91 1326.98 L1404.98 1326.98 L1404.98 1335.13 L1400.32 1335.13 L1400.32 1326.98 L1384.72 1326.98 L1384.72 1322.47 L1399.1 1300.57 Z" fill="#000000" fill-rule="nonzero" fill-opacity="1" /><path clip-path="url(#clip490)" d="M1274.4 1230.89 L1304.08 1230.89 L1304.08 1234.83 L1274.4 1234.83 L1274.4 1230.89 Z" fill="#000000" fill-rule="nonzero" fill-opacity="1" /><path clip-path="url(#clip490)" d="M1324.17 1216.24 Q1320.56 1216.24 1318.73 1219.8 Q1316.92 1223.35 1316.92 1230.47 Q1316.92 1237.58 1318.73 1241.15 Q1320.56 1244.69 1324.17 1244.69 Q1327.8 1244.69 1329.61 1241.15 Q1331.44 1237.58 1331.44 1230.47 Q1331.44 1223.35 1329.61 1219.8 Q1327.8 1216.24 1324.17 1216.24 M1324.17 1212.54 Q1329.98 1212.54 1333.03 1217.14 Q1336.11 1221.72 1336.11 1230.47 Q1336.11 1239.2 1333.03 1243.81 Q1329.98 1248.39 1324.17 1248.39 Q1318.36 1248.39 1315.28 1243.81 Q1312.22 1239.2 1312.22 1230.47 Q1312.22 1221.72 1315.28 1217.14 Q1318.36 1212.54 1324.17 1212.54 Z" fill="#000000" fill-rule="nonzero" fill-opacity="1" /><path clip-path="url(#clip490)" d="M1344.33 1241.84 L1349.21 1241.84 L1349.21 1247.72 L1344.33 1247.72 L1344.33 1241.84 Z" fill="#000000" fill-rule="nonzero" fill-opacity="1" /><path clip-path="url(#clip490)" d="M1369.4 1216.24 Q1365.79 1216.24 1363.96 1219.8 Q1362.15 1223.35 1362.15 1230.47 Q1362.15 1237.58 1363.96 1241.15 Q1365.79 1244.69 1369.4 1244.69 Q1373.03 1244.69 1374.84 1241.15 Q1376.67 1237.58 1376.67 1230.47 Q1376.67 1223.35 1374.84 1219.8 Q1373.03 1216.24 1369.4 1216.24 M1369.4 1212.54 Q1375.21 1212.54 1378.26 1217.14 Q1381.34 1221.72 1381.34 1230.47 Q1381.34 1239.2 1378.26 1243.81 Q1375.21 1248.39 1369.4 1248.39 Q1363.59 1248.39 1360.51 1243.81 Q1357.45 1239.2 1357.45 1230.47 Q1357.45 1221.72 1360.51 1217.14 Q1363.59 1212.54 1369.4 1212.54 Z" fill="#000000" fill-rule="nonzero" fill-opacity="1" /><path clip-path="url(#clip490)" d="M1393.59 1243.78 L1409.91 1243.78 L1409.91 1247.72 L1387.96 1247.72 L1387.96 1243.78 Q1390.63 1241.03 1395.21 1236.4 Q1399.82 1231.75 1401 1230.41 Q1403.24 1227.88 1404.12 1226.15 Q1405.02 1224.39 1405.02 1222.7 Q1405.02 1219.94 1403.08 1218.21 Q1401.16 1216.47 1398.06 1216.47 Q1395.86 1216.47 1393.4 1217.23 Q1390.97 1218 1388.19 1219.55 L1388.19 1214.83 Q1391.02 1213.69 1393.47 1213.11 Q1395.93 1212.54 1397.96 1212.54 Q1403.33 1212.54 1406.53 1215.22 Q1409.72 1217.91 1409.72 1222.4 Q1409.72 1224.53 1408.91 1226.45 Q1408.13 1228.35 1406.02 1230.94 Q1405.44 1231.61 1402.34 1234.83 Q1399.24 1238.02 1393.59 1243.78 Z" fill="#000000" fill-rule="nonzero" fill-opacity="1" /><path clip-path="url(#clip490)" d="M1322.57 1128.83 Q1318.96 1128.83 1317.13 1132.39 Q1315.32 1135.93 1315.32 1143.06 Q1315.32 1150.17 1317.13 1153.73 Q1318.96 1157.28 1322.57 1157.28 Q1326.2 1157.28 1328.01 1153.73 Q1329.84 1150.17 1329.84 1143.06 Q1329.84 1135.93 1328.01 1132.39 Q1326.2 1128.83 1322.57 1128.83 M1322.57 1125.12 Q1328.38 1125.12 1331.44 1129.73 Q1334.51 1134.31 1334.51 1143.06 Q1334.51 1151.79 1331.44 1156.4 Q1328.38 1160.98 1322.57 1160.98 Q1316.76 1160.98 1313.68 1156.4 Q1310.63 1151.79 1310.63 1143.06 Q1310.63 1134.31 1313.68 1129.73 Q1316.76 1125.12 1322.57 1125.12 Z" fill="#000000" fill-rule="nonzero" fill-opacity="1" /><path clip-path="url(#clip490)" d="M1342.73 1154.43 L1347.62 1154.43 L1347.62 1160.31 L1342.73 1160.31 L1342.73 1154.43 Z" fill="#000000" fill-rule="nonzero" fill-opacity="1" /><path clip-path="url(#clip490)" d="M1367.8 1128.83 Q1364.19 1128.83 1362.36 1132.39 Q1360.56 1135.93 1360.56 1143.06 Q1360.56 1150.17 1362.36 1153.73 Q1364.19 1157.28 1367.8 1157.28 Q1371.44 1157.28 1373.24 1153.73 Q1375.07 1150.17 1375.07 1143.06 Q1375.07 1135.93 1373.24 1132.39 Q1371.44 1128.83 1367.8 1128.83 M1367.8 1125.12 Q1373.61 1125.12 1376.67 1129.73 Q1379.75 1134.31 1379.75 1143.06 Q1379.75 1151.79 1376.67 1156.4 Q1373.61 1160.98 1367.8 1160.98 Q1361.99 1160.98 1358.91 1156.4 Q1355.86 1151.79 1355.86 1143.06 Q1355.86 1134.31 1358.91 1129.73 Q1361.99 1125.12 1367.8 1125.12 Z" fill="#000000" fill-rule="nonzero" fill-opacity="1" /><path clip-path="url(#clip490)" d="M1397.96 1128.83 Q1394.35 1128.83 1392.52 1132.39 Q1390.72 1135.93 1390.72 1143.06 Q1390.72 1150.17 1392.52 1153.73 Q1394.35 1157.28 1397.96 1157.28 Q1401.6 1157.28 1403.4 1153.73 Q1405.23 1150.17 1405.23 1143.06 Q1405.23 1135.93 1403.4 1132.39 Q1401.6 1128.83 1397.96 1128.83 M1397.96 1125.12 Q1403.77 1125.12 1406.83 1129.73 Q1409.91 1134.31 1409.91 1143.06 Q1409.91 1151.79 1406.83 1156.4 Q1403.77 1160.98 1397.96 1160.98 Q1392.15 1160.98 1389.07 1156.4 Q1386.02 1151.79 1386.02 1143.06 Q1386.02 1134.31 1389.07 1129.73 Q1392.15 1125.12 1397.96 1125.12 Z" fill="#000000" fill-rule="nonzero" fill-opacity="1" /><path clip-path="url(#clip490)" d="M1182.01 1250.93 L1182.94 1251.49 Q1181.43 1254.99 1179.02 1259.34 Q1181.43 1263.69 1182.94 1267.19 L1182.01 1267.73 Q1178.7 1263.92 1176.15 1259.34 Q1178.72 1254.72 1182.01 1250.93 Z" fill="#000000" fill-rule="nonzero" fill-opacity="1" /><path clip-path="url(#clip490)" d="M1194.31 1247.77 Q1196.12 1247.77 1197.15 1248.9 Q1198.14 1250.02 1198.14 1251.31 Q1198.14 1252.54 1197.44 1253.18 Q1196.73 1253.82 1195.83 1253.82 Q1194.6 1253.82 1193.54 1252.92 Q1192.48 1252.02 1192.25 1250.67 Q1191.41 1251.99 1191.41 1253.95 Q1191.41 1255.24 1192.09 1256.37 Q1192.77 1257.46 1193.64 1258.14 Q1194.51 1258.78 1195.76 1259.36 Q1196.99 1259.91 1197.73 1260.14 Q1198.43 1260.33 1199.21 1260.49 L1208.23 1262.74 Q1212.51 1263.84 1214.02 1263.84 Q1215.89 1263.84 1217.15 1262.94 Q1218.37 1262.04 1218.37 1260.23 Q1218.37 1259.52 1218.18 1258.72 Q1217.95 1257.91 1217.37 1256.88 Q1216.76 1255.82 1215.86 1254.89 Q1214.92 1253.92 1213.35 1252.99 Q1211.77 1252.05 1209.74 1251.44 Q1209.03 1251.25 1209.03 1250.6 Q1209.03 1249.8 1209.67 1249.8 Q1210.22 1249.8 1211.38 1250.25 Q1212.51 1250.67 1213.99 1251.6 Q1215.44 1252.5 1216.76 1253.69 Q1218.05 1254.89 1218.95 1256.66 Q1219.85 1258.43 1219.85 1260.36 Q1219.85 1263.13 1218.37 1264.97 Q1216.89 1266.8 1214.83 1267.48 Q1215.12 1267.64 1215.5 1267.87 Q1215.89 1268.09 1216.76 1268.77 Q1217.6 1269.41 1218.24 1270.15 Q1218.85 1270.89 1219.34 1272.05 Q1219.85 1273.18 1219.85 1274.4 Q1219.85 1275.95 1219.4 1277.33 Q1218.95 1278.69 1217.92 1279.65 Q1216.89 1280.62 1215.47 1280.62 Q1213.89 1280.62 1212.8 1279.56 Q1211.67 1278.46 1211.67 1276.98 Q1211.67 1276.05 1212.22 1275.3 Q1212.77 1274.53 1213.96 1274.53 Q1215.28 1274.53 1216.28 1275.43 Q1217.27 1276.34 1217.53 1277.62 Q1218.37 1276.3 1218.37 1274.34 Q1218.37 1272.21 1216.5 1270.54 Q1214.63 1268.86 1211.51 1268.06 Q1204.01 1266.06 1200.66 1265.29 Q1197.28 1264.52 1195.83 1264.52 Q1194.47 1264.52 1193.54 1264.87 Q1192.61 1265.22 1192.19 1265.84 Q1191.74 1266.42 1191.57 1266.96 Q1191.41 1267.48 1191.41 1268.06 Q1191.41 1269.02 1191.8 1270.12 Q1192.19 1271.18 1193.09 1272.47 Q1193.96 1273.73 1195.76 1274.92 Q1197.56 1276.11 1200.04 1276.92 Q1200.79 1277.08 1200.79 1277.78 Q1200.75 1278.56 1200.11 1278.56 Q1199.56 1278.56 1198.43 1278.14 Q1197.28 1277.69 1195.83 1276.79 Q1194.38 1275.85 1193.09 1274.66 Q1191.77 1273.44 1190.87 1271.67 Q1189.96 1269.86 1189.96 1267.93 Q1189.96 1267.06 1190.16 1266.22 Q1190.32 1265.35 1190.8 1264.32 Q1191.28 1263.26 1192.35 1262.33 Q1193.41 1261.39 1194.96 1260.81 Q1194.22 1260.43 1193.51 1259.91 Q1192.8 1259.36 1191.93 1258.53 Q1191.03 1257.66 1190.51 1256.46 Q1189.96 1255.24 1189.96 1253.89 Q1189.96 1252.57 1190.32 1251.28 Q1190.64 1249.99 1191.7 1248.9 Q1192.73 1247.77 1194.31 1247.77 Z" fill="#000000" fill-rule="nonzero" fill-opacity="1" /><path clip-path="url(#clip490)" d="M1231.9 1240.31 Q1230.52 1240.31 1229.87 1239.52 Q1229.22 1238.73 1229.22 1237.72 Q1229.22 1236.66 1229.92 1235.91 Q1230.59 1235.15 1231.79 1235.15 Q1233.07 1235.15 1233.79 1236.05 Q1234.51 1236.93 1234.33 1238.19 Q1236.18 1237.09 1237.02 1235.06 Q1237.85 1233.01 1237.85 1231.11 Q1237.85 1229.13 1236.14 1227.53 Q1234.42 1225.9 1230.23 1225.9 Q1226.67 1225.9 1224.62 1227.3 Q1222.57 1228.68 1222.57 1231.4 L1222.57 1233.43 Q1222.57 1234.13 1222.5 1234.34 Q1222.43 1234.54 1222.05 1234.54 Q1221.6 1234.54 1221.51 1233.84 Q1221.51 1233.14 1221.37 1232.04 Q1221.28 1229.35 1218.96 1227.93 Q1216.79 1226.65 1213.71 1226.65 Q1210.89 1226.65 1209.72 1228 Q1208.52 1229.33 1208.52 1231.07 Q1208.52 1232.69 1209.2 1234.47 Q1209.87 1236.25 1211.38 1237.22 Q1211.38 1234.36 1213.71 1234.36 Q1214.72 1234.36 1215.4 1235.01 Q1216.05 1235.64 1216.05 1236.7 Q1216.05 1237.72 1215.42 1238.39 Q1214.77 1239.07 1213.66 1239.07 Q1211.02 1239.07 1209.2 1236.73 Q1207.37 1234.36 1207.37 1230.89 Q1207.37 1227.46 1209.17 1224.93 Q1210.98 1222.39 1213.75 1222.39 Q1216.48 1222.39 1218.71 1224.19 Q1220.94 1225.99 1221.87 1228.86 Q1222.57 1225.34 1224.96 1223.24 Q1227.32 1221.15 1230.23 1221.15 Q1233.84 1221.15 1236.5 1223.99 Q1239.14 1226.83 1239.14 1230.98 Q1239.14 1234.81 1237.06 1237.56 Q1234.99 1240.31 1231.9 1240.31 Z" fill="#000000" fill-rule="nonzero" fill-opacity="1" /><polyline clip-path="url(#clip495)" style="stroke:#e26f46; stroke-linecap:round; stroke-linejoin:round; stroke-width:3; stroke-opacity:1; fill:none" stroke-dasharray="12, 6, 2, 6" points="1471.57,1143.03 1496.74,1143.03 1521.9,1388.03 1547.06,1388.26 1572.22,1143.76 1597.38,1328.21 1622.55,1413.23 1647.71,1306.13 1672.87,1302.75 1698.03,1283.42 1723.2,1255.31 1748.36,1239.92 1773.52,1246.58 1798.68,1162.68 1823.85,1163.87 1849.01,1164.87 1874.17,1105.36 1899.33,1162.35 1924.49,1163.86 1949.66,1098.6 1974.82,1140.31 1999.98,1125.77 2025.14,1134.05 2050.31,1081.68 2075.47,1174.87 2100.63,1138.79 2125.79,1116.87 2150.95,1111.66 2176.12,1182.21 2201.28,1225.83 2226.44,1146.3 2251.6,1095.91 2276.77,1131.65 2301.93,1151.54 2327.09,1160.57 "/>
</svg>
