<?xml version="1.0" encoding="utf-8"?>
<svg xmlns="http://www.w3.org/2000/svg" xmlns:xlink="http://www.w3.org/1999/xlink" width="600" height="400" viewBox="0 0 2400 1600">
<defs>
  <clipPath id="clip570">
    <rect x="0" y="0" width="2400" height="1600"/>
  </clipPath>
</defs>
<path clip-path="url(#clip570)" d="M0 1600 L2400 1600 L2400 0 L0 0  Z" fill="#ffffff" fill-rule="evenodd" fill-opacity="1"/>
<defs>
  <clipPath id="clip571">
    <rect x="480" y="0" width="1681" height="1600"/>
  </clipPath>
</defs>
<path clip-path="url(#clip570)" d="M232.389 654.814 L1140.35 654.814 L1140.35 47.2441 L232.389 47.2441  Z" fill="#ffffff" fill-rule="evenodd" fill-opacity="1"/>
<defs>
  <clipPath id="clip572">
    <rect x="232" y="47" width="909" height="609"/>
  </clipPath>
</defs>
<polyline clip-path="url(#clip572)" style="stroke:#000000; stroke-linecap:round; stroke-linejoin:round; stroke-width:2; stroke-opacity:0.1; fill:none" points="258.086,654.814 258.086,47.2441 "/>
<polyline clip-path="url(#clip572)" style="stroke:#000000; stroke-linecap:round; stroke-linejoin:round; stroke-width:2; stroke-opacity:0.1; fill:none" points="510.017,654.814 510.017,47.2441 "/>
<polyline clip-path="url(#clip572)" style="stroke:#000000; stroke-linecap:round; stroke-linejoin:round; stroke-width:2; stroke-opacity:0.1; fill:none" points="761.948,654.814 761.948,47.2441 "/>
<polyline clip-path="url(#clip572)" style="stroke:#000000; stroke-linecap:round; stroke-linejoin:round; stroke-width:2; stroke-opacity:0.1; fill:none" points="1013.88,654.814 1013.88,47.2441 "/>
<polyline clip-path="url(#clip570)" style="stroke:#000000; stroke-linecap:round; stroke-linejoin:round; stroke-width:4; stroke-opacity:1; fill:none" points="232.389,654.814 1140.35,654.814 "/>
<polyline clip-path="url(#clip570)" style="stroke:#000000; stroke-linecap:round; stroke-linejoin:round; stroke-width:4; stroke-opacity:1; fill:none" points="258.086,654.814 258.086,635.916 "/>
<polyline clip-path="url(#clip570)" style="stroke:#000000; stroke-linecap:round; stroke-linejoin:round; stroke-width:4; stroke-opacity:1; fill:none" points="510.017,654.814 510.017,635.916 "/>
<polyline clip-path="url(#clip570)" style="stroke:#000000; stroke-linecap:round; stroke-linejoin:round; stroke-width:4; stroke-opacity:1; fill:none" points="761.948,654.814 761.948,635.916 "/>
<polyline clip-path="url(#clip570)" style="stroke:#000000; stroke-linecap:round; stroke-linejoin:round; stroke-width:4; stroke-opacity:1; fill:none" points="1013.88,654.814 1013.88,635.916 "/>
<path clip-path="url(#clip570)" d="M258.086 685.733 Q254.475 685.733 252.647 689.297 Q250.841 692.839 250.841 699.969 Q250.841 707.075 252.647 710.64 Q254.475 714.181 258.086 714.181 Q261.721 714.181 263.526 710.64 Q265.355 707.075 265.355 699.969 Q265.355 692.839 263.526 689.297 Q261.721 685.733 258.086 685.733 M258.086 682.029 Q263.896 682.029 266.952 686.635 Q270.031 691.219 270.031 699.969 Q270.031 708.695 266.952 713.302 Q263.896 717.885 258.086 717.885 Q252.276 717.885 249.197 713.302 Q246.142 708.695 246.142 699.969 Q246.142 691.219 249.197 686.635 Q252.276 682.029 258.086 682.029 Z" fill="#000000" fill-rule="nonzero" fill-opacity="1" /><path clip-path="url(#clip570)" d="M500.399 713.279 L508.038 713.279 L508.038 686.913 L499.728 688.58 L499.728 684.321 L507.992 682.654 L512.668 682.654 L512.668 713.279 L520.307 713.279 L520.307 717.214 L500.399 717.214 L500.399 713.279 Z" fill="#000000" fill-rule="nonzero" fill-opacity="1" /><path clip-path="url(#clip570)" d="M756.601 713.279 L772.92 713.279 L772.92 717.214 L750.976 717.214 L750.976 713.279 Q753.638 710.524 758.221 705.894 Q762.828 701.242 764.008 699.899 Q766.254 697.376 767.133 695.64 Q768.036 693.881 768.036 692.191 Q768.036 689.436 766.092 687.7 Q764.17 685.964 761.069 685.964 Q758.87 685.964 756.416 686.728 Q753.985 687.492 751.208 689.043 L751.208 684.321 Q754.032 683.186 756.485 682.608 Q758.939 682.029 760.976 682.029 Q766.346 682.029 769.541 684.714 Q772.735 687.399 772.735 691.89 Q772.735 694.02 771.925 695.941 Q771.138 697.839 769.032 700.432 Q768.453 701.103 765.351 704.32 Q762.249 707.515 756.601 713.279 Z" fill="#000000" fill-rule="nonzero" fill-opacity="1" /><path clip-path="url(#clip570)" d="M1018.13 698.58 Q1021.48 699.297 1023.36 701.566 Q1025.26 703.834 1025.26 707.168 Q1025.26 712.283 1021.74 715.084 Q1018.22 717.885 1011.74 717.885 Q1009.56 717.885 1007.25 717.445 Q1004.96 717.029 1002.5 716.172 L1002.5 711.658 Q1004.45 712.793 1006.76 713.371 Q1009.08 713.95 1011.6 713.95 Q1016 713.95 1018.29 712.214 Q1020.6 710.478 1020.6 707.168 Q1020.6 704.112 1018.45 702.399 Q1016.32 700.663 1012.5 700.663 L1008.47 700.663 L1008.47 696.82 L1012.69 696.82 Q1016.14 696.82 1017.96 695.455 Q1019.79 694.066 1019.79 691.473 Q1019.79 688.811 1017.9 687.399 Q1016.02 685.964 1012.5 685.964 Q1010.58 685.964 1008.38 686.381 Q1006.18 686.797 1003.54 687.677 L1003.54 683.51 Q1006.21 682.77 1008.52 682.399 Q1010.86 682.029 1012.92 682.029 Q1018.24 682.029 1021.34 684.459 Q1024.45 686.867 1024.45 690.987 Q1024.45 693.858 1022.8 695.848 Q1021.16 697.816 1018.13 698.58 Z" fill="#000000" fill-rule="nonzero" fill-opacity="1" /><polyline clip-path="url(#clip572)" style="stroke:#000000; stroke-linecap:round; stroke-linejoin:round; stroke-width:2; stroke-opacity:0.1; fill:none" points="232.389,637.618 1140.35,637.618 "/>
<polyline clip-path="url(#clip572)" style="stroke:#000000; stroke-linecap:round; stroke-linejoin:round; stroke-width:2; stroke-opacity:0.1; fill:none" points="232.389,482.007 1140.35,482.007 "/>
<polyline clip-path="url(#clip572)" style="stroke:#000000; stroke-linecap:round; stroke-linejoin:round; stroke-width:2; stroke-opacity:0.1; fill:none" points="232.389,326.395 1140.35,326.395 "/>
<polyline clip-path="url(#clip572)" style="stroke:#000000; stroke-linecap:round; stroke-linejoin:round; stroke-width:2; stroke-opacity:0.1; fill:none" points="232.389,170.783 1140.35,170.783 "/>
<polyline clip-path="url(#clip570)" style="stroke:#000000; stroke-linecap:round; stroke-linejoin:round; stroke-width:4; stroke-opacity:1; fill:none" points="232.389,654.814 232.389,47.2441 "/>
<polyline clip-path="url(#clip570)" style="stroke:#000000; stroke-linecap:round; stroke-linejoin:round; stroke-width:4; stroke-opacity:1; fill:none" points="232.389,637.618 251.287,637.618 "/>
<polyline clip-path="url(#clip570)" style="stroke:#000000; stroke-linecap:round; stroke-linejoin:round; stroke-width:4; stroke-opacity:1; fill:none" points="232.389,482.007 251.287,482.007 "/>
<polyline clip-path="url(#clip570)" style="stroke:#000000; stroke-linecap:round; stroke-linejoin:round; stroke-width:4; stroke-opacity:1; fill:none" points="232.389,326.395 251.287,326.395 "/>
<polyline clip-path="url(#clip570)" style="stroke:#000000; stroke-linecap:round; stroke-linejoin:round; stroke-width:4; stroke-opacity:1; fill:none" points="232.389,170.783 251.287,170.783 "/>
<path clip-path="url(#clip570)" d="M184.445 623.417 Q180.834 623.417 179.005 626.982 Q177.2 630.524 177.2 637.653 Q177.2 644.76 179.005 648.324 Q180.834 651.866 184.445 651.866 Q188.079 651.866 189.885 648.324 Q191.713 644.76 191.713 637.653 Q191.713 630.524 189.885 626.982 Q188.079 623.417 184.445 623.417 M184.445 619.713 Q190.255 619.713 193.311 624.32 Q196.389 628.903 196.389 637.653 Q196.389 646.38 193.311 650.986 Q190.255 655.57 184.445 655.57 Q178.635 655.57 175.556 650.986 Q172.501 646.38 172.501 637.653 Q172.501 628.903 175.556 624.32 Q178.635 619.713 184.445 619.713 Z" fill="#000000" fill-rule="nonzero" fill-opacity="1" /><path clip-path="url(#clip570)" d="M144.329 464.727 L162.686 464.727 L162.686 468.662 L148.612 468.662 L148.612 477.134 Q149.63 476.787 150.649 476.625 Q151.667 476.439 152.686 476.439 Q158.473 476.439 161.852 479.611 Q165.232 482.782 165.232 488.199 Q165.232 493.777 161.76 496.879 Q158.288 499.958 151.968 499.958 Q149.792 499.958 147.524 499.587 Q145.279 499.217 142.871 498.476 L142.871 493.777 Q144.954 494.912 147.177 495.467 Q149.399 496.023 151.876 496.023 Q155.88 496.023 158.218 493.916 Q160.556 491.81 160.556 488.199 Q160.556 484.588 158.218 482.481 Q155.88 480.375 151.876 480.375 Q150.001 480.375 148.126 480.791 Q146.274 481.208 144.329 482.088 L144.329 464.727 Z" fill="#000000" fill-rule="nonzero" fill-opacity="1" /><path clip-path="url(#clip570)" d="M184.445 467.805 Q180.834 467.805 179.005 471.37 Q177.2 474.912 177.2 482.041 Q177.2 489.148 179.005 492.712 Q180.834 496.254 184.445 496.254 Q188.079 496.254 189.885 492.712 Q191.713 489.148 191.713 482.041 Q191.713 474.912 189.885 471.37 Q188.079 467.805 184.445 467.805 M184.445 464.102 Q190.255 464.102 193.311 468.708 Q196.389 473.291 196.389 482.041 Q196.389 490.768 193.311 495.375 Q190.255 499.958 184.445 499.958 Q178.635 499.958 175.556 495.375 Q172.501 490.768 172.501 482.041 Q172.501 473.291 175.556 468.708 Q178.635 464.102 184.445 464.102 Z" fill="#000000" fill-rule="nonzero" fill-opacity="1" /><path clip-path="url(#clip570)" d="M114.931 339.739 L122.57 339.739 L122.57 313.374 L114.26 315.04 L114.26 310.781 L122.524 309.115 L127.2 309.115 L127.2 339.739 L134.839 339.739 L134.839 343.675 L114.931 343.675 L114.931 339.739 Z" fill="#000000" fill-rule="nonzero" fill-opacity="1" /><path clip-path="url(#clip570)" d="M154.283 312.193 Q150.672 312.193 148.843 315.758 Q147.038 319.3 147.038 326.429 Q147.038 333.536 148.843 337.101 Q150.672 340.642 154.283 340.642 Q157.917 340.642 159.723 337.101 Q161.552 333.536 161.552 326.429 Q161.552 319.3 159.723 315.758 Q157.917 312.193 154.283 312.193 M154.283 308.49 Q160.093 308.49 163.149 313.096 Q166.227 317.679 166.227 326.429 Q166.227 335.156 163.149 339.763 Q160.093 344.346 154.283 344.346 Q148.473 344.346 145.394 339.763 Q142.339 335.156 142.339 326.429 Q142.339 317.679 145.394 313.096 Q148.473 308.49 154.283 308.49 Z" fill="#000000" fill-rule="nonzero" fill-opacity="1" /><path clip-path="url(#clip570)" d="M184.445 312.193 Q180.834 312.193 179.005 315.758 Q177.2 319.3 177.2 326.429 Q177.2 333.536 179.005 337.101 Q180.834 340.642 184.445 340.642 Q188.079 340.642 189.885 337.101 Q191.713 333.536 191.713 326.429 Q191.713 319.3 189.885 315.758 Q188.079 312.193 184.445 312.193 M184.445 308.49 Q190.255 308.49 193.311 313.096 Q196.389 317.679 196.389 326.429 Q196.389 335.156 193.311 339.763 Q190.255 344.346 184.445 344.346 Q178.635 344.346 175.556 339.763 Q172.501 335.156 172.501 326.429 Q172.501 317.679 175.556 313.096 Q178.635 308.49 184.445 308.49 Z" fill="#000000" fill-rule="nonzero" fill-opacity="1" /><path clip-path="url(#clip570)" d="M114.931 184.127 L122.57 184.127 L122.57 157.762 L114.26 159.429 L114.26 155.169 L122.524 153.503 L127.2 153.503 L127.2 184.127 L134.839 184.127 L134.839 188.063 L114.931 188.063 L114.931 184.127 Z" fill="#000000" fill-rule="nonzero" fill-opacity="1" /><path clip-path="url(#clip570)" d="M144.329 153.503 L162.686 153.503 L162.686 157.438 L148.612 157.438 L148.612 165.91 Q149.63 165.563 150.649 165.401 Q151.667 165.216 152.686 165.216 Q158.473 165.216 161.852 168.387 Q165.232 171.558 165.232 176.975 Q165.232 182.553 161.76 185.655 Q158.288 188.734 151.968 188.734 Q149.792 188.734 147.524 188.364 Q145.279 187.993 142.871 187.252 L142.871 182.553 Q144.954 183.688 147.177 184.243 Q149.399 184.799 151.876 184.799 Q155.88 184.799 158.218 182.692 Q160.556 180.586 160.556 176.975 Q160.556 173.364 158.218 171.257 Q155.88 169.151 151.876 169.151 Q150.001 169.151 148.126 169.567 Q146.274 169.984 144.329 170.864 L144.329 153.503 Z" fill="#000000" fill-rule="nonzero" fill-opacity="1" /><path clip-path="url(#clip570)" d="M184.445 156.581 Q180.834 156.581 179.005 160.146 Q177.2 163.688 177.2 170.817 Q177.2 177.924 179.005 181.489 Q180.834 185.03 184.445 185.03 Q188.079 185.03 189.885 181.489 Q191.713 177.924 191.713 170.817 Q191.713 163.688 189.885 160.146 Q188.079 156.581 184.445 156.581 M184.445 152.878 Q190.255 152.878 193.311 157.484 Q196.389 162.067 196.389 170.817 Q196.389 179.544 193.311 184.151 Q190.255 188.734 184.445 188.734 Q178.635 188.734 175.556 184.151 Q172.501 179.544 172.501 170.817 Q172.501 162.067 175.556 157.484 Q178.635 152.878 184.445 152.878 Z" fill="#000000" fill-rule="nonzero" fill-opacity="1" /><path clip-path="url(#clip570)" d="M39.4334 388.381 Q44.844 388.381 50.9309 390.12 Q56.9856 391.827 61.8809 394.532 Q66.744 397.237 69.9646 400.78 Q73.153 404.322 73.153 407.704 Q73.153 409.862 71.9613 411.472 Q70.7375 413.05 68.7085 413.92 Q66.6474 414.789 64.393 415.208 Q62.1063 415.627 59.6265 415.627 Q55.9228 415.627 51.8971 414.822 Q47.8391 414.016 44.1677 412.664 Q40.464 411.311 37.1146 409.411 Q33.733 407.511 31.2853 405.417 Q28.8055 403.292 27.3562 400.909 Q25.907 398.525 25.907 396.303 Q25.907 394.693 26.6155 393.405 Q27.2918 392.084 28.4834 391.247 Q29.6428 390.41 31.0277 389.83 Q32.4125 389.218 34.0228 388.928 Q35.6009 388.638 36.9214 388.509 Q38.2096 388.381 39.4334 388.381 M35.3433 392.728 Q33.7008 392.728 32.477 392.857 Q31.2209 392.986 29.9649 393.34 Q28.7089 393.695 28.0325 394.467 Q27.3562 395.208 27.3562 396.368 Q27.3562 399.749 34.2805 403.55 Q36.4383 404.773 39.369 405.868 Q42.2997 406.963 43.6846 407.35 Q45.0694 407.736 48.4833 408.638 L48.4833 394.854 Q39.6911 392.728 35.3433 392.728 M50.5766 395.434 L50.5766 409.153 Q58.6281 411.279 63.6522 411.279 Q68.0322 411.279 69.868 410.377 Q71.6715 409.443 71.6715 407.704 Q71.6715 405.707 69.6747 403.839 Q67.6458 401.971 63.9743 400.071 Q59.2078 397.559 50.5766 395.434 Z" fill="#000000" fill-rule="nonzero" fill-opacity="1" /><path clip-path="url(#clip570)" d="M22.9507 344.073 Q30.2712 348.338 37.4327 350.407 Q44.5941 352.475 51.9465 352.475 Q59.2989 352.475 66.5239 350.407 Q73.7172 348.306 81.0059 344.073 L81.0059 349.165 Q73.5262 353.94 66.3011 356.327 Q59.0761 358.682 51.9465 358.682 Q44.8487 358.682 37.6555 356.327 Q30.4622 353.971 22.9507 349.165 L22.9507 344.073 Z" fill="#000000" fill-rule="nonzero" fill-opacity="1" /><path clip-path="url(#clip570)" d="M28.1387 322.557 Q28.1387 325.103 29.9211 326.853 Q31.6717 328.604 34.218 328.604 Q36.7324 328.604 38.483 326.853 Q40.2017 325.103 40.2017 322.557 Q40.2017 320.01 38.483 318.26 Q36.7324 316.509 34.218 316.509 Q31.7035 316.509 29.9211 318.292 Q28.1387 320.042 28.1387 322.557 M24.0328 322.557 Q24.0328 320.52 24.8286 318.642 Q25.5924 316.764 27.0566 315.395 Q28.4888 313.931 30.3031 313.199 Q32.1173 312.467 34.218 312.467 Q38.4193 312.467 41.3476 315.427 Q44.244 318.355 44.244 322.62 Q44.244 326.917 41.3794 329.782 Q38.5148 332.646 34.218 332.646 Q29.953 332.646 26.9929 329.718 Q24.0328 326.79 24.0328 322.557 Z" fill="#000000" fill-rule="nonzero" fill-opacity="1" /><path clip-path="url(#clip570)" d="M22.9507 301.041 L22.9507 295.948 Q30.4622 291.174 37.6555 288.818 Q44.8487 286.431 51.9465 286.431 Q59.0761 286.431 66.3011 288.818 Q73.5262 291.174 81.0059 295.948 L81.0059 301.041 Q73.7172 296.807 66.5239 294.738 Q59.2989 292.638 51.9465 292.638 Q44.5941 292.638 37.4327 294.738 Q30.2712 296.807 22.9507 301.041 Z" fill="#000000" fill-rule="nonzero" fill-opacity="1" /><polyline clip-path="url(#clip572)" style="stroke:#009af9; stroke-linecap:round; stroke-linejoin:round; stroke-width:4; stroke-opacity:1; fill:none" points="258.086,637.618 283.279,614.388 308.473,561.649 333.666,500.401 358.859,443.376 384.052,395.319 409.245,355.815 434.438,322.265 459.631,291.644 484.824,261.113 510.017,227.988 535.21,189.412 560.403,142.709 585.597,109.793 610.79,94.2364 635.983,82.4573 661.176,73.9143 686.369,68.4951 711.562,65.5781 736.755,64.4395 761.948,64.522 787.141,65.3988 812.334,66.7397 837.528,68.2981 862.721,69.8989 887.914,71.425 913.107,72.8048 938.3,74.0008 963.493,75.0003 988.686,75.8076 1013.88,76.4376 1039.07,76.9116 1064.27,77.2534 1089.46,77.487 1114.65,77.635 "/>
<polyline clip-path="url(#clip572)" style="stroke:#3da44d; stroke-linecap:round; stroke-linejoin:round; stroke-width:3; stroke-opacity:1; fill:none" stroke-dasharray="12, 8" points="258.086,77.4155 283.279,77.4155 308.473,77.4155 333.666,77.4155 358.859,77.4155 384.052,77.4155 409.245,77.4155 434.438,77.4155 459.631,77.4155 484.824,77.4155 510.017,77.4155 535.21,77.4155 560.403,77.4155 585.597,77.4155 610.79,77.4155 635.983,77.4155 661.176,77.4155 686.369,77.4155 711.562,77.4155 736.755,77.4155 761.948,77.4155 787.141,77.4155 812.334,77.4155 837.528,77.4155 862.721,77.4155 887.914,77.4155 913.107,77.4155 938.3,77.4155 963.493,77.4155 988.686,77.4155 1013.88,77.4155 1039.07,77.4155 1064.27,77.4155 1089.46,77.4155 1114.65,77.4155 "/>
<path clip-path="url(#clip570)" d="M971.279 634.562 L1110.08 634.562 L1110.08 479.042 L971.279 479.042  Z" fill="#ffffff" fill-rule="evenodd" fill-opacity="1"/>
<polyline clip-path="url(#clip570)" style="stroke:#000000; stroke-linecap:round; stroke-linejoin:round; stroke-width:4; stroke-opacity:1; fill:none" points="971.279,634.562 1110.08,634.562 1110.08,479.042 971.279,479.042 971.279,634.562 "/>
<polyline clip-path="url(#clip570)" style="stroke:#009af9; stroke-linecap:round; stroke-linejoin:round; stroke-width:4; stroke-opacity:1; fill:none" points="981.367,530.882 1041.9,530.882 "/>
<path clip-path="url(#clip570)" d="M1078.76 517.62 Q1077.28 517.62 1076.53 517.761 Q1075.78 517.878 1075.6 518.042 Q1075.41 518.206 1075.2 518.628 L1064.89 540.551 Q1063.79 542.893 1061.73 544.58 Q1059.69 546.266 1057.12 546.266 Q1054.96 546.266 1053.46 544.954 Q1051.99 543.666 1051.99 541.839 Q1051.99 540.527 1052.81 539.778 Q1053.63 539.052 1054.73 539.052 Q1055.94 539.052 1056.72 539.825 Q1057.51 540.598 1057.51 541.792 Q1057.51 542.565 1057.19 543.151 Q1056.86 543.76 1056.55 543.971 Q1056.27 544.205 1055.97 544.345 Q1056.46 544.533 1057.12 544.533 Q1058.1 544.533 1058.94 544.135 Q1059.81 543.76 1060.37 543.244 Q1060.96 542.753 1061.54 541.863 Q1062.13 540.996 1062.41 540.434 Q1062.69 539.895 1063.11 538.958 L1064.21 536.663 L1055.24 517.62 L1052.17 517.62 L1052.17 515.372 L1057.65 515.512 L1063.6 515.372 L1063.6 517.62 L1061 517.62 L1067.09 530.573 L1072.62 518.768 L1072.86 518.206 Q1072.86 517.948 1072.29 517.808 Q1071.73 517.644 1071.17 517.644 L1070.61 517.62 L1070.61 515.372 L1074.96 515.512 Q1077.02 515.512 1078.76 515.372 L1078.76 517.62 Z" fill="#000000" fill-rule="nonzero" fill-opacity="1" /><polyline clip-path="url(#clip570)" style="stroke:#3da44d; stroke-linecap:round; stroke-linejoin:round; stroke-width:3; stroke-opacity:1; fill:none" stroke-dasharray="12, 8" points="981.367,582.722 1041.9,582.722 "/>
<path clip-path="url(#clip570)" d="M1071.4 567.999 Q1071.4 569.358 1070.51 570.154 Q1069.62 570.927 1068.48 570.927 Q1067.33 570.927 1066.44 570.154 Q1065.55 569.381 1065.55 567.999 Q1065.55 567.39 1065.76 566.852 Q1065.99 566.29 1066.23 566.032 L1066.46 565.798 Q1065.08 565.798 1064 566.454 Q1062.92 567.086 1062.27 568.07 Q1061.61 569.053 1061.19 570.342 Q1060.77 571.607 1060.61 572.754 Q1060.46 573.902 1060.46 575.003 L1060.46 583.411 L1064.63 583.411 L1064.63 585.66 Q1062.9 585.519 1058.03 585.519 L1051.99 585.66 L1051.99 583.411 L1055.29 583.411 L1055.29 568.585 Q1055.29 567.227 1054.8 566.969 Q1054.3 566.711 1051.99 566.711 L1051.99 564.463 L1059.95 564.064 L1059.95 569.498 Q1061.94 564.064 1066.32 564.064 Q1068.33 564.064 1069.86 565.142 Q1071.4 566.196 1071.4 567.999 Z" fill="#000000" fill-rule="nonzero" fill-opacity="1" /><path clip-path="url(#clip570)" d="M1095.07 581.183 Q1094.03 581.183 1093.51 581.281 Q1092.98 581.363 1092.85 581.478 Q1092.72 581.593 1092.57 581.888 L1085.36 597.234 Q1084.59 598.874 1083.15 600.055 Q1081.72 601.235 1079.92 601.235 Q1078.41 601.235 1077.36 600.317 Q1076.32 599.415 1076.32 598.136 Q1076.32 597.218 1076.9 596.693 Q1077.47 596.185 1078.24 596.185 Q1079.1 596.185 1079.64 596.726 Q1080.19 597.267 1080.19 598.103 Q1080.19 598.645 1079.96 599.054 Q1079.74 599.481 1079.52 599.628 Q1079.33 599.792 1079.11 599.891 Q1079.46 600.022 1079.92 600.022 Q1080.6 600.022 1081.19 599.743 Q1081.8 599.481 1082.19 599.12 Q1082.6 598.776 1083.01 598.153 Q1083.42 597.546 1083.62 597.152 Q1083.82 596.775 1084.11 596.12 L1084.88 594.513 L1078.6 581.183 L1076.46 581.183 L1076.46 579.609 L1080.29 579.707 L1084.46 579.609 L1084.46 581.183 L1082.64 581.183 L1086.9 590.25 L1090.77 581.986 L1090.93 581.593 Q1090.93 581.413 1090.54 581.314 Q1090.15 581.199 1089.75 581.199 L1089.36 581.183 L1089.36 579.609 L1092.41 579.707 Q1093.85 579.707 1095.07 579.609 L1095.07 581.183 Z" fill="#000000" fill-rule="nonzero" fill-opacity="1" /><path clip-path="url(#clip570)" d="M232.389 1423.18 L1140.35 1423.18 L1140.35 815.61 L232.389 815.61  Z" fill="#ffffff" fill-rule="evenodd" fill-opacity="1"/>
<defs>
  <clipPath id="clip573">
    <rect x="232" y="815" width="909" height="609"/>
  </clipPath>
</defs>
<polyline clip-path="url(#clip573)" style="stroke:#000000; stroke-linecap:round; stroke-linejoin:round; stroke-width:2; stroke-opacity:0.1; fill:none" points="258.086,1423.18 258.086,815.61 "/>
<polyline clip-path="url(#clip573)" style="stroke:#000000; stroke-linecap:round; stroke-linejoin:round; stroke-width:2; stroke-opacity:0.1; fill:none" points="510.017,1423.18 510.017,815.61 "/>
<polyline clip-path="url(#clip573)" style="stroke:#000000; stroke-linecap:round; stroke-linejoin:round; stroke-width:2; stroke-opacity:0.1; fill:none" points="761.948,1423.18 761.948,815.61 "/>
<polyline clip-path="url(#clip573)" style="stroke:#000000; stroke-linecap:round; stroke-linejoin:round; stroke-width:2; stroke-opacity:0.1; fill:none" points="1013.88,1423.18 1013.88,815.61 "/>
<polyline clip-path="url(#clip570)" style="stroke:#000000; stroke-linecap:round; stroke-linejoin:round; stroke-width:4; stroke-opacity:1; fill:none" points="232.389,1423.18 1140.35,1423.18 "/>
<polyline clip-path="url(#clip570)" style="stroke:#000000; stroke-linecap:round; stroke-linejoin:round; stroke-width:4; stroke-opacity:1; fill:none" points="258.086,1423.18 258.086,1404.28 "/>
<polyline clip-path="url(#clip570)" style="stroke:#000000; stroke-linecap:round; stroke-linejoin:round; stroke-width:4; stroke-opacity:1; fill:none" points="510.017,1423.18 510.017,1404.28 "/>
<polyline clip-path="url(#clip570)" style="stroke:#000000; stroke-linecap:round; stroke-linejoin:round; stroke-width:4; stroke-opacity:1; fill:none" points="761.948,1423.18 761.948,1404.28 "/>
<polyline clip-path="url(#clip570)" style="stroke:#000000; stroke-linecap:round; stroke-linejoin:round; stroke-width:4; stroke-opacity:1; fill:none" points="1013.88,1423.18 1013.88,1404.28 "/>
<path clip-path="url(#clip570)" d="M258.086 1454.1 Q254.475 1454.1 252.647 1457.66 Q250.841 1461.2 250.841 1468.33 Q250.841 1475.44 252.647 1479.01 Q254.475 1482.55 258.086 1482.55 Q261.721 1482.55 263.526 1479.01 Q265.355 1475.44 265.355 1468.33 Q265.355 1461.2 263.526 1457.66 Q261.721 1454.1 258.086 1454.1 M258.086 1450.39 Q263.896 1450.39 266.952 1455 Q270.031 1459.58 270.031 1468.33 Q270.031 1477.06 266.952 1481.67 Q263.896 1486.25 258.086 1486.25 Q252.276 1486.25 249.197 1481.67 Q246.142 1477.06 246.142 1468.33 Q246.142 1459.58 249.197 1455 Q252.276 1450.39 258.086 1450.39 Z" fill="#000000" fill-rule="nonzero" fill-opacity="1" /><path clip-path="url(#clip570)" d="M500.399 1481.64 L508.038 1481.64 L508.038 1455.28 L499.728 1456.95 L499.728 1452.69 L507.992 1451.02 L512.668 1451.02 L512.668 1481.64 L520.307 1481.64 L520.307 1485.58 L500.399 1485.58 L500.399 1481.64 Z" fill="#000000" fill-rule="nonzero" fill-opacity="1" /><path clip-path="url(#clip570)" d="M756.601 1481.64 L772.92 1481.64 L772.92 1485.58 L750.976 1485.58 L750.976 1481.64 Q753.638 1478.89 758.221 1474.26 Q762.828 1469.61 764.008 1468.27 Q766.254 1465.74 767.133 1464.01 Q768.036 1462.25 768.036 1460.56 Q768.036 1457.8 766.092 1456.07 Q764.17 1454.33 761.069 1454.33 Q758.87 1454.33 756.416 1455.09 Q753.985 1455.86 751.208 1457.41 L751.208 1452.69 Q754.032 1451.55 756.485 1450.97 Q758.939 1450.39 760.976 1450.39 Q766.346 1450.39 769.541 1453.08 Q772.735 1455.77 772.735 1460.26 Q772.735 1462.39 771.925 1464.31 Q771.138 1466.2 769.032 1468.8 Q768.453 1469.47 765.351 1472.69 Q762.249 1475.88 756.601 1481.64 Z" fill="#000000" fill-rule="nonzero" fill-opacity="1" /><path clip-path="url(#clip570)" d="M1018.13 1466.95 Q1021.48 1467.66 1023.36 1469.93 Q1025.26 1472.2 1025.26 1475.53 Q1025.26 1480.65 1021.74 1483.45 Q1018.22 1486.25 1011.74 1486.25 Q1009.56 1486.25 1007.25 1485.81 Q1004.96 1485.39 1002.5 1484.54 L1002.5 1480.02 Q1004.45 1481.16 1006.76 1481.74 Q1009.08 1482.32 1011.6 1482.32 Q1016 1482.32 1018.29 1480.58 Q1020.6 1478.84 1020.6 1475.53 Q1020.6 1472.48 1018.45 1470.77 Q1016.32 1469.03 1012.5 1469.03 L1008.47 1469.03 L1008.47 1465.19 L1012.69 1465.19 Q1016.14 1465.19 1017.96 1463.82 Q1019.79 1462.43 1019.79 1459.84 Q1019.79 1457.18 1017.9 1455.77 Q1016.02 1454.33 1012.5 1454.33 Q1010.58 1454.33 1008.38 1454.75 Q1006.18 1455.16 1003.54 1456.04 L1003.54 1451.88 Q1006.21 1451.14 1008.52 1450.77 Q1010.86 1450.39 1012.92 1450.39 Q1018.24 1450.39 1021.34 1452.83 Q1024.45 1455.23 1024.45 1459.35 Q1024.45 1462.22 1022.8 1464.21 Q1021.16 1466.18 1018.13 1466.95 Z" fill="#000000" fill-rule="nonzero" fill-opacity="1" /><path clip-path="url(#clip570)" d="M556.54 1520.52 L596.74 1520.52 L596.74 1525.93 L579.871 1525.93 L579.871 1568.04 L573.409 1568.04 L573.409 1525.93 L556.54 1525.93 L556.54 1520.52 Z" fill="#000000" fill-rule="nonzero" fill-opacity="1" /><path clip-path="url(#clip570)" d="M600.687 1532.4 L606.543 1532.4 L606.543 1568.04 L600.687 1568.04 L600.687 1532.4 M600.687 1518.52 L606.543 1518.52 L606.543 1525.93 L600.687 1525.93 L600.687 1518.52 Z" fill="#000000" fill-rule="nonzero" fill-opacity="1" /><path clip-path="url(#clip570)" d="M646.551 1539.24 Q648.748 1535.29 651.803 1533.41 Q654.859 1531.54 658.996 1531.54 Q664.566 1531.54 667.59 1535.45 Q670.614 1539.33 670.614 1546.53 L670.614 1568.04 L664.726 1568.04 L664.726 1546.72 Q664.726 1541.59 662.911 1539.11 Q661.097 1536.63 657.373 1536.63 Q652.822 1536.63 650.18 1539.65 Q647.538 1542.68 647.538 1547.9 L647.538 1568.04 L641.65 1568.04 L641.65 1546.72 Q641.65 1541.56 639.836 1539.11 Q638.021 1536.63 634.234 1536.63 Q629.746 1536.63 627.104 1539.68 Q624.462 1542.71 624.462 1547.9 L624.462 1568.04 L618.574 1568.04 L618.574 1532.4 L624.462 1532.4 L624.462 1537.93 Q626.468 1534.66 629.269 1533.1 Q632.069 1531.54 635.921 1531.54 Q639.804 1531.54 642.509 1533.51 Q645.246 1535.48 646.551 1539.24 Z" fill="#000000" fill-rule="nonzero" fill-opacity="1" /><path clip-path="url(#clip570)" d="M712.787 1548.76 L712.787 1551.62 L685.86 1551.62 Q686.242 1557.67 689.488 1560.85 Q692.766 1564 698.591 1564 Q701.965 1564 705.116 1563.17 Q708.299 1562.35 711.418 1560.69 L711.418 1566.23 Q708.267 1567.57 704.957 1568.27 Q701.647 1568.97 698.241 1568.97 Q689.711 1568.97 684.714 1564 Q679.749 1559.04 679.749 1550.57 Q679.749 1541.82 684.459 1536.69 Q689.202 1531.54 697.222 1531.54 Q704.416 1531.54 708.585 1536.18 Q712.787 1540.8 712.787 1548.76 M706.93 1547.04 Q706.867 1542.23 704.225 1539.37 Q701.615 1536.5 697.286 1536.5 Q692.385 1536.5 689.424 1539.27 Q686.496 1542.04 686.051 1547.07 L706.93 1547.04 Z" fill="#000000" fill-rule="nonzero" fill-opacity="1" /><path clip-path="url(#clip570)" d="M757.187 1518.58 Q752.922 1525.9 750.854 1533.06 Q748.785 1540.23 748.785 1547.58 Q748.785 1554.93 750.854 1562.16 Q752.954 1569.35 757.187 1576.64 L752.095 1576.64 Q747.321 1569.16 744.933 1561.93 Q742.578 1554.71 742.578 1547.58 Q742.578 1540.48 744.933 1533.29 Q747.289 1526.09 752.095 1518.58 L757.187 1518.58 Z" fill="#000000" fill-rule="nonzero" fill-opacity="1" /><path clip-path="url(#clip570)" d="M791.276 1533.45 L791.276 1538.98 Q788.793 1537.71 786.12 1537.07 Q783.446 1536.44 780.581 1536.44 Q776.221 1536.44 774.025 1537.77 Q771.86 1539.11 771.86 1541.79 Q771.86 1543.82 773.42 1545 Q774.98 1546.15 779.69 1547.2 L781.695 1547.64 Q787.934 1548.98 790.544 1551.43 Q793.186 1553.85 793.186 1558.21 Q793.186 1563.17 789.239 1566.07 Q785.324 1568.97 778.449 1568.97 Q775.584 1568.97 772.465 1568.39 Q769.378 1567.85 765.94 1566.74 L765.94 1560.69 Q769.187 1562.38 772.338 1563.24 Q775.489 1564.07 778.576 1564.07 Q782.714 1564.07 784.942 1562.66 Q787.17 1561.23 787.17 1558.65 Q787.17 1556.27 785.547 1554.99 Q783.955 1553.72 778.513 1552.54 L776.476 1552.07 Q771.033 1550.92 768.614 1548.56 Q766.195 1546.18 766.195 1542.04 Q766.195 1537.01 769.76 1534.27 Q773.325 1531.54 779.881 1531.54 Q783.128 1531.54 785.992 1532.01 Q788.857 1532.49 791.276 1533.45 Z" fill="#000000" fill-rule="nonzero" fill-opacity="1" /><path clip-path="url(#clip570)" d="M801.588 1518.58 L806.681 1518.58 Q811.455 1526.09 813.81 1533.29 Q816.198 1540.48 816.198 1547.58 Q816.198 1554.71 813.81 1561.93 Q811.455 1569.16 806.681 1576.64 L801.588 1576.64 Q805.821 1569.35 807.89 1562.16 Q809.991 1554.93 809.991 1547.58 Q809.991 1540.23 807.89 1533.06 Q805.821 1525.9 801.588 1518.58 Z" fill="#000000" fill-rule="nonzero" fill-opacity="1" /><polyline clip-path="url(#clip573)" style="stroke:#000000; stroke-linecap:round; stroke-linejoin:round; stroke-width:2; stroke-opacity:0.1; fill:none" points="232.389,1390.78 1140.35,1390.78 "/>
<polyline clip-path="url(#clip573)" style="stroke:#000000; stroke-linecap:round; stroke-linejoin:round; stroke-width:2; stroke-opacity:0.1; fill:none" points="232.389,1226.38 1140.35,1226.38 "/>
<polyline clip-path="url(#clip573)" style="stroke:#000000; stroke-linecap:round; stroke-linejoin:round; stroke-width:2; stroke-opacity:0.1; fill:none" points="232.389,1061.98 1140.35,1061.98 "/>
<polyline clip-path="url(#clip573)" style="stroke:#000000; stroke-linecap:round; stroke-linejoin:round; stroke-width:2; stroke-opacity:0.1; fill:none" points="232.389,897.573 1140.35,897.573 "/>
<polyline clip-path="url(#clip570)" style="stroke:#000000; stroke-linecap:round; stroke-linejoin:round; stroke-width:4; stroke-opacity:1; fill:none" points="232.389,1423.18 232.389,815.61 "/>
<polyline clip-path="url(#clip570)" style="stroke:#000000; stroke-linecap:round; stroke-linejoin:round; stroke-width:4; stroke-opacity:1; fill:none" points="232.389,1390.78 251.287,1390.78 "/>
<polyline clip-path="url(#clip570)" style="stroke:#000000; stroke-linecap:round; stroke-linejoin:round; stroke-width:4; stroke-opacity:1; fill:none" points="232.389,1226.38 251.287,1226.38 "/>
<polyline clip-path="url(#clip570)" style="stroke:#000000; stroke-linecap:round; stroke-linejoin:round; stroke-width:4; stroke-opacity:1; fill:none" points="232.389,1061.98 251.287,1061.98 "/>
<polyline clip-path="url(#clip570)" style="stroke:#000000; stroke-linecap:round; stroke-linejoin:round; stroke-width:4; stroke-opacity:1; fill:none" points="232.389,897.573 251.287,897.573 "/>
<path clip-path="url(#clip570)" d="M184.445 1376.58 Q180.834 1376.58 179.005 1380.14 Q177.2 1383.68 177.2 1390.81 Q177.2 1397.92 179.005 1401.48 Q180.834 1405.03 184.445 1405.03 Q188.079 1405.03 189.885 1401.48 Q191.713 1397.92 191.713 1390.81 Q191.713 1383.68 189.885 1380.14 Q188.079 1376.58 184.445 1376.58 M184.445 1372.87 Q190.255 1372.87 193.311 1377.48 Q196.389 1382.06 196.389 1390.81 Q196.389 1399.54 193.311 1404.15 Q190.255 1408.73 184.445 1408.73 Q178.635 1408.73 175.556 1404.15 Q172.501 1399.54 172.501 1390.81 Q172.501 1382.06 175.556 1377.48 Q178.635 1372.87 184.445 1372.87 Z" fill="#000000" fill-rule="nonzero" fill-opacity="1" /><path clip-path="url(#clip570)" d="M176.482 1239.72 L184.121 1239.72 L184.121 1213.36 L175.811 1215.02 L175.811 1210.76 L184.075 1209.1 L188.75 1209.1 L188.75 1239.72 L196.389 1239.72 L196.389 1243.66 L176.482 1243.66 L176.482 1239.72 Z" fill="#000000" fill-rule="nonzero" fill-opacity="1" /><path clip-path="url(#clip570)" d="M180.07 1075.32 L196.389 1075.32 L196.389 1079.26 L174.445 1079.26 L174.445 1075.32 Q177.107 1072.57 181.69 1067.94 Q186.297 1063.28 187.477 1061.94 Q189.723 1059.42 190.602 1057.68 Q191.505 1055.92 191.505 1054.23 Q191.505 1051.48 189.561 1049.74 Q187.639 1048.01 184.538 1048.01 Q182.338 1048.01 179.885 1048.77 Q177.454 1049.53 174.677 1051.08 L174.677 1046.36 Q177.501 1045.23 179.954 1044.65 Q182.408 1044.07 184.445 1044.07 Q189.815 1044.07 193.01 1046.76 Q196.204 1049.44 196.204 1053.93 Q196.204 1056.06 195.394 1057.98 Q194.607 1059.88 192.5 1062.47 Q191.922 1063.14 188.82 1066.36 Q185.718 1069.56 180.07 1075.32 Z" fill="#000000" fill-rule="nonzero" fill-opacity="1" /><path clip-path="url(#clip570)" d="M189.26 896.219 Q192.616 896.937 194.491 899.205 Q196.389 901.474 196.389 904.807 Q196.389 909.923 192.871 912.724 Q189.352 915.525 182.871 915.525 Q180.695 915.525 178.38 915.085 Q176.089 914.668 173.635 913.812 L173.635 909.298 Q175.579 910.432 177.894 911.011 Q180.209 911.59 182.732 911.59 Q187.13 911.59 189.422 909.853 Q191.737 908.117 191.737 904.807 Q191.737 901.752 189.584 900.039 Q187.454 898.303 183.635 898.303 L179.607 898.303 L179.607 894.46 L183.82 894.46 Q187.269 894.46 189.098 893.094 Q190.926 891.705 190.926 889.113 Q190.926 886.451 189.028 885.039 Q187.153 883.604 183.635 883.604 Q181.713 883.604 179.514 884.02 Q177.315 884.437 174.677 885.317 L174.677 881.15 Q177.339 880.409 179.653 880.039 Q181.991 879.668 184.051 879.668 Q189.375 879.668 192.477 882.099 Q195.579 884.506 195.579 888.627 Q195.579 891.497 193.936 893.488 Q192.292 895.455 189.26 896.219 Z" fill="#000000" fill-rule="nonzero" fill-opacity="1" /><path clip-path="url(#clip570)" d="M97.518 1215.74 Q100.513 1215.74 106.31 1217.26 Q108.822 1217.87 111.109 1218.7 Q113.363 1219.51 115.553 1220.7 Q117.743 1221.89 119.321 1223.28 Q120.867 1224.66 121.833 1226.47 Q122.8 1228.27 122.8 1230.27 Q122.8 1233.42 120.932 1235.29 Q119.032 1237.13 115.779 1237.71 Q122.8 1242.02 122.8 1247.79 Q122.8 1251.36 120.255 1253.04 Q117.679 1254.71 113.363 1254.71 Q109.724 1254.71 105.956 1253.74 Q98.8063 1251.91 93.8144 1248.33 Q93.2347 1247.85 93.2347 1247.14 Q93.2347 1246.72 93.3635 1246.53 Q93.7177 1245.95 94.2974 1245.95 Q94.7161 1245.95 95.1348 1246.27 Q98.2588 1248.53 100.932 1250.01 Q103.605 1251.49 106.31 1252.17 Q108.629 1252.68 110.594 1252.68 Q113.911 1252.68 115.972 1251.26 Q118.033 1249.82 118.033 1246.95 Q118.033 1244.31 116.391 1241.99 Q114.716 1239.67 111.914 1237.96 Q108.854 1237.87 105.956 1237.13 Q102.864 1236.45 102.864 1234.87 Q102.864 1233.62 104.571 1233.62 Q105.151 1233.62 106.31 1233.87 Q109.37 1234.58 112.107 1235.87 Q114.78 1235.42 116.423 1233.74 Q118.033 1232.07 118.033 1229.4 Q118.033 1226.92 116.23 1224.73 Q114.426 1222.5 111.785 1221.09 Q109.112 1219.64 105.956 1218.83 Q104.893 1218.58 103.541 1218.58 Q99.9335 1218.58 97.7113 1221.09 Q97.0027 1221.8 96.0688 1221.8 Q94.9738 1221.8 93.9754 1220.89 Q92.9126 1219.83 92.9126 1218.58 Q92.9126 1217.64 93.4923 1217.06 Q94.6517 1215.74 97.518 1215.74 Z" fill="#000000" fill-rule="nonzero" fill-opacity="1" /><path clip-path="url(#clip570)" d="M72.5974 1173.17 Q79.9179 1177.44 87.0793 1179.51 Q94.2408 1181.58 101.593 1181.58 Q108.946 1181.58 116.171 1179.51 Q123.364 1177.41 130.653 1173.17 L130.653 1178.27 Q123.173 1183.04 115.948 1185.43 Q108.723 1187.78 101.593 1187.78 Q94.4954 1187.78 87.3021 1185.43 Q80.1089 1183.07 72.5974 1178.27 L72.5974 1173.17 Z" fill="#000000" fill-rule="nonzero" fill-opacity="1" /><path clip-path="url(#clip570)" d="M91.8854 1141.15 Q91.3125 1142.14 91.0579 1143.32 Q90.7715 1144.46 90.7715 1145.86 Q90.7715 1150.83 94.018 1153.5 Q97.2326 1156.14 103.28 1156.14 L122.059 1156.14 L122.059 1162.03 L86.4109 1162.03 L86.4109 1156.14 L91.9491 1156.14 Q88.7026 1154.3 87.143 1151.34 Q85.5516 1148.38 85.5516 1144.14 Q85.5516 1143.54 85.6471 1142.81 Q85.7107 1142.08 85.8699 1141.18 L91.8854 1141.15 Z" fill="#000000" fill-rule="nonzero" fill-opacity="1" /><path clip-path="url(#clip570)" d="M104.139 1118.81 Q104.139 1125.91 105.763 1128.64 Q107.386 1131.38 111.301 1131.38 Q114.42 1131.38 116.266 1129.34 Q118.08 1127.28 118.08 1123.74 Q118.08 1118.87 114.643 1115.94 Q111.174 1112.98 105.444 1112.98 L104.139 1112.98 L104.139 1118.81 M101.72 1107.13 L122.059 1107.13 L122.059 1112.98 L116.648 1112.98 Q119.895 1114.99 121.454 1117.98 Q122.982 1120.97 122.982 1125.3 Q122.982 1130.78 119.926 1134.02 Q116.839 1137.24 111.683 1137.24 Q105.667 1137.24 102.612 1133.23 Q99.5561 1129.19 99.5561 1121.2 L99.5561 1112.98 L98.9832 1112.98 Q94.941 1112.98 92.7448 1115.66 Q90.5168 1118.3 90.5168 1123.11 Q90.5168 1126.16 91.2489 1129.06 Q91.9809 1131.95 93.445 1134.63 L88.0342 1134.63 Q86.7929 1131.41 86.1881 1128.39 Q85.5516 1125.37 85.5516 1122.5 Q85.5516 1114.77 89.562 1110.95 Q93.5724 1107.13 101.72 1107.13 Z" fill="#000000" fill-rule="nonzero" fill-opacity="1" /><path clip-path="url(#clip570)" d="M91.8218 1071.61 L72.5337 1071.61 L72.5337 1065.75 L122.059 1065.75 L122.059 1071.61 L116.712 1071.61 Q119.895 1073.45 121.454 1076.29 Q122.982 1079.09 122.982 1083.03 Q122.982 1089.5 117.826 1093.57 Q112.669 1097.61 104.267 1097.61 Q95.864 1097.61 90.7078 1093.57 Q85.5516 1089.5 85.5516 1083.03 Q85.5516 1079.09 87.1112 1076.29 Q88.6389 1073.45 91.8218 1071.61 M104.267 1091.56 Q110.728 1091.56 114.42 1088.92 Q118.08 1086.25 118.08 1081.6 Q118.08 1076.95 114.42 1074.28 Q110.728 1071.61 104.267 1071.61 Q97.8056 1071.61 94.1453 1074.28 Q90.4532 1076.95 90.4532 1081.6 Q90.4532 1086.25 94.1453 1088.92 Q97.8056 1091.56 104.267 1091.56 Z" fill="#000000" fill-rule="nonzero" fill-opacity="1" /><path clip-path="url(#clip570)" d="M74.5389 1043.28 L74.5389 1037.87 L128.106 1054.42 L128.106 1059.83 L74.5389 1043.28 Z" fill="#000000" fill-rule="nonzero" fill-opacity="1" /><path clip-path="url(#clip570)" d="M87.4613 1009 L92.9994 1009 Q91.7263 1011.48 91.0897 1014.16 Q90.4532 1016.83 90.4532 1019.7 Q90.4532 1024.06 91.79 1026.25 Q93.1268 1028.42 95.8004 1028.42 Q97.8374 1028.42 99.015 1026.86 Q100.161 1025.3 101.211 1020.59 L101.657 1018.58 Q102.994 1012.34 105.444 1009.73 Q107.863 1007.09 112.224 1007.09 Q117.189 1007.09 120.086 1011.04 Q122.982 1014.95 122.982 1021.83 Q122.982 1024.69 122.409 1027.81 Q121.868 1030.9 120.754 1034.34 L114.707 1034.34 Q116.393 1031.09 117.253 1027.94 Q118.08 1024.79 118.08 1021.7 Q118.08 1017.56 116.68 1015.33 Q115.248 1013.11 112.669 1013.11 Q110.282 1013.11 109.009 1014.73 Q107.736 1016.32 106.558 1021.76 L106.081 1023.8 Q104.935 1029.24 102.58 1031.66 Q100.193 1034.08 96.055 1034.08 Q91.0261 1034.08 88.2888 1030.52 Q85.5516 1026.95 85.5516 1020.4 Q85.5516 1017.15 86.029 1014.28 Q86.5064 1011.42 87.4613 1009 Z" fill="#000000" fill-rule="nonzero" fill-opacity="1" /><path clip-path="url(#clip570)" d="M72.5974 998.688 L72.5974 993.596 Q80.1089 988.822 87.3021 986.466 Q94.4954 984.079 101.593 984.079 Q108.723 984.079 115.948 986.466 Q123.173 988.822 130.653 993.596 L130.653 998.688 Q123.364 994.455 116.171 992.386 Q108.946 990.286 101.593 990.286 Q94.2408 990.286 87.0793 992.386 Q79.9179 994.455 72.5974 998.688 Z" fill="#000000" fill-rule="nonzero" fill-opacity="1" /><polyline clip-path="url(#clip573)" style="stroke:#009af9; stroke-linecap:round; stroke-linejoin:round; stroke-width:4; stroke-opacity:1; fill:none" points="258.086,1390.78 283.279,1002.44 308.473,838.753 333.666,832.805 358.859,904.164 384.052,990.2 409.245,1058.58 434.438,1099.41 459.631,1112.93 484.824,1101.35 510.017,1064.87 535.21,999.835 560.403,912.118 585.597,1220.68 610.79,1263.71 635.983,1293.1 661.176,1324.5 686.369,1352.31 711.562,1372.39 736.755,1386.4 761.948,1395.83 787.141,1401.7 812.334,1404.84 837.528,1405.98 862.721,1405.76 887.914,1404.66 913.107,1403.05 938.3,1401.22 963.493,1399.35 988.686,1397.59 1013.88,1396 1039.07,1394.62 1064.27,1393.48 1089.46,1392.56 1114.65,1391.85 "/>
<path clip-path="url(#clip570)" d="M1444.8 1423.18 L2352.76 1423.18 L2352.76 47.2441 L1444.8 47.2441  Z" fill="#ffffff" fill-rule="evenodd" fill-opacity="1"/>
<defs>
  <clipPath id="clip574">
    <rect x="1444" y="47" width="909" height="1377"/>
  </clipPath>
</defs>
<polyline clip-path="url(#clip574)" style="stroke:#000000; stroke-linecap:round; stroke-linejoin:round; stroke-width:2; stroke-opacity:0.1; fill:none" points="1470.49,1423.18 1470.49,47.2441 "/>
<polyline clip-path="url(#clip574)" style="stroke:#000000; stroke-linecap:round; stroke-linejoin:round; stroke-width:2; stroke-opacity:0.1; fill:none" points="1722.42,1423.18 1722.42,47.2441 "/>
<polyline clip-path="url(#clip574)" style="stroke:#000000; stroke-linecap:round; stroke-linejoin:round; stroke-width:2; stroke-opacity:0.1; fill:none" points="1974.36,1423.18 1974.36,47.2441 "/>
<polyline clip-path="url(#clip574)" style="stroke:#000000; stroke-linecap:round; stroke-linejoin:round; stroke-width:2; stroke-opacity:0.1; fill:none" points="2226.29,1423.18 2226.29,47.2441 "/>
<polyline clip-path="url(#clip570)" style="stroke:#000000; stroke-linecap:round; stroke-linejoin:round; stroke-width:4; stroke-opacity:1; fill:none" points="1444.8,1423.18 2352.76,1423.18 "/>
<polyline clip-path="url(#clip570)" style="stroke:#000000; stroke-linecap:round; stroke-linejoin:round; stroke-width:4; stroke-opacity:1; fill:none" points="1470.49,1423.18 1470.49,1404.28 "/>
<polyline clip-path="url(#clip570)" style="stroke:#000000; stroke-linecap:round; stroke-linejoin:round; stroke-width:4; stroke-opacity:1; fill:none" points="1722.42,1423.18 1722.42,1404.28 "/>
<polyline clip-path="url(#clip570)" style="stroke:#000000; stroke-linecap:round; stroke-linejoin:round; stroke-width:4; stroke-opacity:1; fill:none" points="1974.36,1423.18 1974.36,1404.28 "/>
<polyline clip-path="url(#clip570)" style="stroke:#000000; stroke-linecap:round; stroke-linejoin:round; stroke-width:4; stroke-opacity:1; fill:none" points="2226.29,1423.18 2226.29,1404.28 "/>
<path clip-path="url(#clip570)" d="M1470.49 1454.1 Q1466.88 1454.1 1465.05 1457.66 Q1463.25 1461.2 1463.25 1468.33 Q1463.25 1475.44 1465.05 1479.01 Q1466.88 1482.55 1470.49 1482.55 Q1474.13 1482.55 1475.93 1479.01 Q1477.76 1475.44 1477.76 1468.33 Q1477.76 1461.2 1475.93 1457.66 Q1474.13 1454.1 1470.49 1454.1 M1470.49 1450.39 Q1476.3 1450.39 1479.36 1455 Q1482.44 1459.58 1482.44 1468.33 Q1482.44 1477.06 1479.36 1481.67 Q1476.3 1486.25 1470.49 1486.25 Q1464.68 1486.25 1461.6 1481.67 Q1458.55 1477.06 1458.55 1468.33 Q1458.55 1459.58 1461.6 1455 Q1464.68 1450.39 1470.49 1450.39 Z" fill="#000000" fill-rule="nonzero" fill-opacity="1" /><path clip-path="url(#clip570)" d="M1712.81 1481.64 L1720.45 1481.64 L1720.45 1455.28 L1712.14 1456.95 L1712.14 1452.69 L1720.4 1451.02 L1725.08 1451.02 L1725.08 1481.64 L1732.71 1481.64 L1732.71 1485.58 L1712.81 1485.58 L1712.81 1481.64 Z" fill="#000000" fill-rule="nonzero" fill-opacity="1" /><path clip-path="url(#clip570)" d="M1969.01 1481.64 L1985.33 1481.64 L1985.33 1485.58 L1963.38 1485.58 L1963.38 1481.64 Q1966.05 1478.89 1970.63 1474.26 Q1975.24 1469.61 1976.42 1468.27 Q1978.66 1465.74 1979.54 1464.01 Q1980.44 1462.25 1980.44 1460.56 Q1980.44 1457.8 1978.5 1456.07 Q1976.58 1454.33 1973.48 1454.33 Q1971.28 1454.33 1968.82 1455.09 Q1966.39 1455.86 1963.61 1457.41 L1963.61 1452.69 Q1966.44 1451.55 1968.89 1450.97 Q1971.35 1450.39 1973.38 1450.39 Q1978.75 1450.39 1981.95 1453.08 Q1985.14 1455.77 1985.14 1460.26 Q1985.14 1462.39 1984.33 1464.31 Q1983.55 1466.2 1981.44 1468.8 Q1980.86 1469.47 1977.76 1472.69 Q1974.66 1475.88 1969.01 1481.64 Z" fill="#000000" fill-rule="nonzero" fill-opacity="1" /><path clip-path="url(#clip570)" d="M2230.53 1466.95 Q2233.89 1467.66 2235.77 1469.93 Q2237.66 1472.2 2237.66 1475.53 Q2237.66 1480.65 2234.15 1483.45 Q2230.63 1486.25 2224.15 1486.25 Q2221.97 1486.25 2219.65 1485.81 Q2217.36 1485.39 2214.91 1484.54 L2214.91 1480.02 Q2216.85 1481.16 2219.17 1481.74 Q2221.48 1482.32 2224.01 1482.32 Q2228.4 1482.32 2230.7 1480.58 Q2233.01 1478.84 2233.01 1475.53 Q2233.01 1472.48 2230.86 1470.77 Q2228.73 1469.03 2224.91 1469.03 L2220.88 1469.03 L2220.88 1465.19 L2225.09 1465.19 Q2228.54 1465.19 2230.37 1463.82 Q2232.2 1462.43 2232.2 1459.84 Q2232.2 1457.18 2230.3 1455.77 Q2228.43 1454.33 2224.91 1454.33 Q2222.99 1454.33 2220.79 1454.75 Q2218.59 1455.16 2215.95 1456.04 L2215.95 1451.88 Q2218.61 1451.14 2220.93 1450.77 Q2223.27 1450.39 2225.33 1450.39 Q2230.65 1450.39 2233.75 1452.83 Q2236.85 1455.23 2236.85 1459.35 Q2236.85 1462.22 2235.21 1464.21 Q2233.57 1466.18 2230.53 1466.95 Z" fill="#000000" fill-rule="nonzero" fill-opacity="1" /><path clip-path="url(#clip570)" d="M1768.95 1520.52 L1809.15 1520.52 L1809.15 1525.93 L1792.28 1525.93 L1792.28 1568.04 L1785.82 1568.04 L1785.82 1525.93 L1768.95 1525.93 L1768.95 1520.52 Z" fill="#000000" fill-rule="nonzero" fill-opacity="1" /><path clip-path="url(#clip570)" d="M1813.09 1532.4 L1818.95 1532.4 L1818.95 1568.04 L1813.09 1568.04 L1813.09 1532.4 M1813.09 1518.52 L1818.95 1518.52 L1818.95 1525.93 L1813.09 1525.93 L1813.09 1518.52 Z" fill="#000000" fill-rule="nonzero" fill-opacity="1" /><path clip-path="url(#clip570)" d="M1858.96 1539.24 Q1861.15 1535.29 1864.21 1533.41 Q1867.27 1531.54 1871.4 1531.54 Q1876.97 1531.54 1880 1535.45 Q1883.02 1539.33 1883.02 1546.53 L1883.02 1568.04 L1877.13 1568.04 L1877.13 1546.72 Q1877.13 1541.59 1875.32 1539.11 Q1873.5 1536.63 1869.78 1536.63 Q1865.23 1536.63 1862.59 1539.65 Q1859.95 1542.68 1859.95 1547.9 L1859.95 1568.04 L1854.06 1568.04 L1854.06 1546.72 Q1854.06 1541.56 1852.24 1539.11 Q1850.43 1536.63 1846.64 1536.63 Q1842.15 1536.63 1839.51 1539.68 Q1836.87 1542.71 1836.87 1547.9 L1836.87 1568.04 L1830.98 1568.04 L1830.98 1532.4 L1836.87 1532.4 L1836.87 1537.93 Q1838.87 1534.66 1841.68 1533.1 Q1844.48 1531.54 1848.33 1531.54 Q1852.21 1531.54 1854.92 1533.51 Q1857.65 1535.48 1858.96 1539.24 Z" fill="#000000" fill-rule="nonzero" fill-opacity="1" /><path clip-path="url(#clip570)" d="M1925.19 1548.76 L1925.19 1551.62 L1898.27 1551.62 Q1898.65 1557.67 1901.9 1560.85 Q1905.17 1564 1911 1564 Q1914.37 1564 1917.52 1563.17 Q1920.71 1562.35 1923.83 1560.69 L1923.83 1566.23 Q1920.67 1567.57 1917.36 1568.27 Q1914.05 1568.97 1910.65 1568.97 Q1902.12 1568.97 1897.12 1564 Q1892.16 1559.04 1892.16 1550.57 Q1892.16 1541.82 1896.87 1536.69 Q1901.61 1531.54 1909.63 1531.54 Q1916.82 1531.54 1920.99 1536.18 Q1925.19 1540.8 1925.19 1548.76 M1919.34 1547.04 Q1919.27 1542.23 1916.63 1539.37 Q1914.02 1536.5 1909.69 1536.5 Q1904.79 1536.5 1901.83 1539.27 Q1898.9 1542.04 1898.46 1547.07 L1919.34 1547.04 Z" fill="#000000" fill-rule="nonzero" fill-opacity="1" /><path clip-path="url(#clip570)" d="M1969.59 1518.58 Q1965.33 1525.9 1963.26 1533.06 Q1961.19 1540.23 1961.19 1547.58 Q1961.19 1554.93 1963.26 1562.16 Q1965.36 1569.35 1969.59 1576.64 L1964.5 1576.64 Q1959.73 1569.16 1957.34 1561.93 Q1954.99 1554.71 1954.99 1547.58 Q1954.99 1540.48 1957.34 1533.29 Q1959.7 1526.09 1964.5 1518.58 L1969.59 1518.58 Z" fill="#000000" fill-rule="nonzero" fill-opacity="1" /><path clip-path="url(#clip570)" d="M2003.68 1533.45 L2003.68 1538.98 Q2001.2 1537.71 1998.53 1537.07 Q1995.85 1536.44 1992.99 1536.44 Q1988.63 1536.44 1986.43 1537.77 Q1984.27 1539.11 1984.27 1541.79 Q1984.27 1543.82 1985.83 1545 Q1987.39 1546.15 1992.1 1547.2 L1994.1 1547.64 Q2000.34 1548.98 2002.95 1551.43 Q2005.59 1553.85 2005.59 1558.21 Q2005.59 1563.17 2001.65 1566.07 Q1997.73 1568.97 1990.86 1568.97 Q1987.99 1568.97 1984.87 1568.39 Q1981.79 1567.85 1978.35 1566.74 L1978.35 1560.69 Q1981.59 1562.38 1984.75 1563.24 Q1987.9 1564.07 1990.98 1564.07 Q1995.12 1564.07 1997.35 1562.66 Q1999.58 1561.23 1999.58 1558.65 Q1999.58 1556.27 1997.95 1554.99 Q1996.36 1553.72 1990.92 1552.54 L1988.88 1552.07 Q1983.44 1550.92 1981.02 1548.56 Q1978.6 1546.18 1978.6 1542.04 Q1978.6 1537.01 1982.17 1534.27 Q1985.73 1531.54 1992.29 1531.54 Q1995.54 1531.54 1998.4 1532.01 Q2001.26 1532.49 2003.68 1533.45 Z" fill="#000000" fill-rule="nonzero" fill-opacity="1" /><path clip-path="url(#clip570)" d="M2014 1518.58 L2019.09 1518.58 Q2023.86 1526.09 2026.22 1533.29 Q2028.6 1540.48 2028.6 1547.58 Q2028.6 1554.71 2026.22 1561.93 Q2023.86 1569.16 2019.09 1576.64 L2014 1576.64 Q2018.23 1569.35 2020.3 1562.16 Q2022.4 1554.93 2022.4 1547.58 Q2022.4 1540.23 2020.3 1533.06 Q2018.23 1525.9 2014 1518.58 Z" fill="#000000" fill-rule="nonzero" fill-opacity="1" /><polyline clip-path="url(#clip574)" style="stroke:#000000; stroke-linecap:round; stroke-linejoin:round; stroke-width:2; stroke-opacity:0.1; fill:none" points="1444.8,1384.24 2352.76,1384.24 "/>
<polyline clip-path="url(#clip574)" style="stroke:#000000; stroke-linecap:round; stroke-linejoin:round; stroke-width:2; stroke-opacity:0.1; fill:none" points="1444.8,1167.9 2352.76,1167.9 "/>
<polyline clip-path="url(#clip574)" style="stroke:#000000; stroke-linecap:round; stroke-linejoin:round; stroke-width:2; stroke-opacity:0.1; fill:none" points="1444.8,951.554 2352.76,951.554 "/>
<polyline clip-path="url(#clip574)" style="stroke:#000000; stroke-linecap:round; stroke-linejoin:round; stroke-width:2; stroke-opacity:0.1; fill:none" points="1444.8,735.212 2352.76,735.212 "/>
<polyline clip-path="url(#clip574)" style="stroke:#000000; stroke-linecap:round; stroke-linejoin:round; stroke-width:2; stroke-opacity:0.1; fill:none" points="1444.8,518.87 2352.76,518.87 "/>
<polyline clip-path="url(#clip574)" style="stroke:#000000; stroke-linecap:round; stroke-linejoin:round; stroke-width:2; stroke-opacity:0.1; fill:none" points="1444.8,302.528 2352.76,302.528 "/>
<polyline clip-path="url(#clip574)" style="stroke:#000000; stroke-linecap:round; stroke-linejoin:round; stroke-width:2; stroke-opacity:0.1; fill:none" points="1444.8,86.1857 2352.76,86.1857 "/>
<polyline clip-path="url(#clip570)" style="stroke:#000000; stroke-linecap:round; stroke-linejoin:round; stroke-width:4; stroke-opacity:1; fill:none" points="1444.8,1423.18 1444.8,47.2441 "/>
<polyline clip-path="url(#clip570)" style="stroke:#000000; stroke-linecap:round; stroke-linejoin:round; stroke-width:4; stroke-opacity:1; fill:none" points="1444.8,1384.24 1463.69,1384.24 "/>
<polyline clip-path="url(#clip570)" style="stroke:#000000; stroke-linecap:round; stroke-linejoin:round; stroke-width:4; stroke-opacity:1; fill:none" points="1444.8,1167.9 1463.69,1167.9 "/>
<polyline clip-path="url(#clip570)" style="stroke:#000000; stroke-linecap:round; stroke-linejoin:round; stroke-width:4; stroke-opacity:1; fill:none" points="1444.8,951.554 1463.69,951.554 "/>
<polyline clip-path="url(#clip570)" style="stroke:#000000; stroke-linecap:round; stroke-linejoin:round; stroke-width:4; stroke-opacity:1; fill:none" points="1444.8,735.212 1463.69,735.212 "/>
<polyline clip-path="url(#clip570)" style="stroke:#000000; stroke-linecap:round; stroke-linejoin:round; stroke-width:4; stroke-opacity:1; fill:none" points="1444.8,518.87 1463.69,518.87 "/>
<polyline clip-path="url(#clip570)" style="stroke:#000000; stroke-linecap:round; stroke-linejoin:round; stroke-width:4; stroke-opacity:1; fill:none" points="1444.8,302.528 1463.69,302.528 "/>
<polyline clip-path="url(#clip570)" style="stroke:#000000; stroke-linecap:round; stroke-linejoin:round; stroke-width:4; stroke-opacity:1; fill:none" points="1444.8,86.1857 1463.69,86.1857 "/>
<path clip-path="url(#clip570)" d="M1302.85 1384.69 L1332.52 1384.69 L1332.52 1388.62 L1302.85 1388.62 L1302.85 1384.69 Z" fill="#000000" fill-rule="nonzero" fill-opacity="1" /><path clip-path="url(#clip570)" d="M1343.43 1397.58 L1351.07 1397.58 L1351.07 1371.22 L1342.76 1372.88 L1342.76 1368.62 L1351.02 1366.96 L1355.7 1366.96 L1355.7 1397.58 L1363.33 1397.58 L1363.33 1401.52 L1343.43 1401.52 L1343.43 1397.58 Z" fill="#000000" fill-rule="nonzero" fill-opacity="1" /><path clip-path="url(#clip570)" d="M1372.78 1395.64 L1377.66 1395.64 L1377.66 1401.52 L1372.78 1401.52 L1372.78 1395.64 Z" fill="#000000" fill-rule="nonzero" fill-opacity="1" /><path clip-path="url(#clip570)" d="M1387.89 1366.96 L1406.25 1366.96 L1406.25 1370.89 L1392.18 1370.89 L1392.18 1379.37 Q1393.19 1379.02 1394.21 1378.86 Q1395.23 1378.67 1396.25 1378.67 Q1402.04 1378.67 1405.42 1381.84 Q1408.8 1385.01 1408.8 1390.43 Q1408.8 1396.01 1405.32 1399.11 Q1401.85 1402.19 1395.53 1402.19 Q1393.36 1402.19 1391.09 1401.82 Q1388.84 1401.45 1386.44 1400.71 L1386.44 1396.01 Q1388.52 1397.14 1390.74 1397.7 Q1392.96 1398.25 1395.44 1398.25 Q1399.44 1398.25 1401.78 1396.15 Q1404.12 1394.04 1404.12 1390.43 Q1404.12 1386.82 1401.78 1384.71 Q1399.44 1382.61 1395.44 1382.61 Q1393.57 1382.61 1391.69 1383.02 Q1389.84 1383.44 1387.89 1384.32 L1387.89 1366.96 Z" fill="#000000" fill-rule="nonzero" fill-opacity="1" /><path clip-path="url(#clip570)" d="M1301.85 1168.35 L1331.53 1168.35 L1331.53 1172.28 L1301.85 1172.28 L1301.85 1168.35 Z" fill="#000000" fill-rule="nonzero" fill-opacity="1" /><path clip-path="url(#clip570)" d="M1342.43 1181.24 L1350.07 1181.24 L1350.07 1154.88 L1341.76 1156.54 L1341.76 1152.28 L1350.02 1150.62 L1354.7 1150.62 L1354.7 1181.24 L1362.34 1181.24 L1362.34 1185.18 L1342.43 1185.18 L1342.43 1181.24 Z" fill="#000000" fill-rule="nonzero" fill-opacity="1" /><path clip-path="url(#clip570)" d="M1371.78 1179.3 L1376.67 1179.3 L1376.67 1185.18 L1371.78 1185.18 L1371.78 1179.3 Z" fill="#000000" fill-rule="nonzero" fill-opacity="1" /><path clip-path="url(#clip570)" d="M1396.85 1153.69 Q1393.24 1153.69 1391.41 1157.26 Q1389.61 1160.8 1389.61 1167.93 Q1389.61 1175.04 1391.41 1178.6 Q1393.24 1182.14 1396.85 1182.14 Q1400.49 1182.14 1402.29 1178.6 Q1404.12 1175.04 1404.12 1167.93 Q1404.12 1160.8 1402.29 1157.26 Q1400.49 1153.69 1396.85 1153.69 M1396.85 1149.99 Q1402.66 1149.99 1405.72 1154.6 Q1408.8 1159.18 1408.8 1167.93 Q1408.8 1176.66 1405.72 1181.26 Q1402.66 1185.85 1396.85 1185.85 Q1391.04 1185.85 1387.96 1181.26 Q1384.91 1176.66 1384.91 1167.93 Q1384.91 1159.18 1387.96 1154.6 Q1391.04 1149.99 1396.85 1149.99 Z" fill="#000000" fill-rule="nonzero" fill-opacity="1" /><path clip-path="url(#clip570)" d="M1302.85 952.005 L1332.52 952.005 L1332.52 955.941 L1302.85 955.941 L1302.85 952.005 Z" fill="#000000" fill-rule="nonzero" fill-opacity="1" /><path clip-path="url(#clip570)" d="M1352.62 937.353 Q1349.01 937.353 1347.18 940.918 Q1345.37 944.459 1345.37 951.589 Q1345.37 958.695 1347.18 962.26 Q1349.01 965.802 1352.62 965.802 Q1356.25 965.802 1358.06 962.26 Q1359.88 958.695 1359.88 951.589 Q1359.88 944.459 1358.06 940.918 Q1356.25 937.353 1352.62 937.353 M1352.62 933.649 Q1358.43 933.649 1361.48 938.256 Q1364.56 942.839 1364.56 951.589 Q1364.56 960.316 1361.48 964.922 Q1358.43 969.505 1352.62 969.505 Q1346.81 969.505 1343.73 964.922 Q1340.67 960.316 1340.67 951.589 Q1340.67 942.839 1343.73 938.256 Q1346.81 933.649 1352.62 933.649 Z" fill="#000000" fill-rule="nonzero" fill-opacity="1" /><path clip-path="url(#clip570)" d="M1372.78 962.954 L1377.66 962.954 L1377.66 968.834 L1372.78 968.834 L1372.78 962.954 Z" fill="#000000" fill-rule="nonzero" fill-opacity="1" /><path clip-path="url(#clip570)" d="M1387.89 934.274 L1406.25 934.274 L1406.25 938.209 L1392.18 938.209 L1392.18 946.681 Q1393.19 946.334 1394.21 946.172 Q1395.23 945.987 1396.25 945.987 Q1402.04 945.987 1405.42 949.158 Q1408.8 952.33 1408.8 957.746 Q1408.8 963.325 1405.32 966.427 Q1401.85 969.505 1395.53 969.505 Q1393.36 969.505 1391.09 969.135 Q1388.84 968.765 1386.44 968.024 L1386.44 963.325 Q1388.52 964.459 1390.74 965.015 Q1392.96 965.57 1395.44 965.57 Q1399.44 965.57 1401.78 963.464 Q1404.12 961.357 1404.12 957.746 Q1404.12 954.135 1401.78 952.029 Q1399.44 949.922 1395.44 949.922 Q1393.57 949.922 1391.69 950.339 Q1389.84 950.755 1387.89 951.635 L1387.89 934.274 Z" fill="#000000" fill-rule="nonzero" fill-opacity="1" /><path clip-path="url(#clip570)" d="M1351.62 721.011 Q1348.01 721.011 1346.18 724.575 Q1344.38 728.117 1344.38 735.247 Q1344.38 742.353 1346.18 745.918 Q1348.01 749.46 1351.62 749.46 Q1355.26 749.46 1357.06 745.918 Q1358.89 742.353 1358.89 735.247 Q1358.89 728.117 1357.06 724.575 Q1355.26 721.011 1351.62 721.011 M1351.62 717.307 Q1357.43 717.307 1360.49 721.913 Q1363.57 726.497 1363.57 735.247 Q1363.57 743.973 1360.49 748.58 Q1357.43 753.163 1351.62 753.163 Q1345.81 753.163 1342.73 748.58 Q1339.68 743.973 1339.68 735.247 Q1339.68 726.497 1342.73 721.913 Q1345.81 717.307 1351.62 717.307 Z" fill="#000000" fill-rule="nonzero" fill-opacity="1" /><path clip-path="url(#clip570)" d="M1371.78 746.612 L1376.67 746.612 L1376.67 752.492 L1371.78 752.492 L1371.78 746.612 Z" fill="#000000" fill-rule="nonzero" fill-opacity="1" /><path clip-path="url(#clip570)" d="M1396.85 721.011 Q1393.24 721.011 1391.41 724.575 Q1389.61 728.117 1389.61 735.247 Q1389.61 742.353 1391.41 745.918 Q1393.24 749.46 1396.85 749.46 Q1400.49 749.46 1402.29 745.918 Q1404.12 742.353 1404.12 735.247 Q1404.12 728.117 1402.29 724.575 Q1400.49 721.011 1396.85 721.011 M1396.85 717.307 Q1402.66 717.307 1405.72 721.913 Q1408.8 726.497 1408.8 735.247 Q1408.8 743.973 1405.72 748.58 Q1402.66 753.163 1396.85 753.163 Q1391.04 753.163 1387.96 748.58 Q1384.91 743.973 1384.91 735.247 Q1384.91 726.497 1387.96 721.913 Q1391.04 717.307 1396.85 717.307 Z" fill="#000000" fill-rule="nonzero" fill-opacity="1" /><path clip-path="url(#clip570)" d="M1352.62 504.669 Q1349.01 504.669 1347.18 508.233 Q1345.37 511.775 1345.37 518.905 Q1345.37 526.011 1347.18 529.576 Q1349.01 533.117 1352.62 533.117 Q1356.25 533.117 1358.06 529.576 Q1359.88 526.011 1359.88 518.905 Q1359.88 511.775 1358.06 508.233 Q1356.25 504.669 1352.62 504.669 M1352.62 500.965 Q1358.43 500.965 1361.48 505.571 Q1364.56 510.155 1364.56 518.905 Q1364.56 527.631 1361.48 532.238 Q1358.43 536.821 1352.62 536.821 Q1346.81 536.821 1343.73 532.238 Q1340.67 527.631 1340.67 518.905 Q1340.67 510.155 1343.73 505.571 Q1346.81 500.965 1352.62 500.965 Z" fill="#000000" fill-rule="nonzero" fill-opacity="1" /><path clip-path="url(#clip570)" d="M1372.78 530.27 L1377.66 530.27 L1377.66 536.15 L1372.78 536.15 L1372.78 530.27 Z" fill="#000000" fill-rule="nonzero" fill-opacity="1" /><path clip-path="url(#clip570)" d="M1387.89 501.59 L1406.25 501.59 L1406.25 505.525 L1392.18 505.525 L1392.18 513.997 Q1393.19 513.65 1394.21 513.488 Q1395.23 513.303 1396.25 513.303 Q1402.04 513.303 1405.42 516.474 Q1408.8 519.645 1408.8 525.062 Q1408.8 530.641 1405.32 533.742 Q1401.85 536.821 1395.53 536.821 Q1393.36 536.821 1391.09 536.451 Q1388.84 536.08 1386.44 535.34 L1386.44 530.641 Q1388.52 531.775 1390.74 532.33 Q1392.96 532.886 1395.44 532.886 Q1399.44 532.886 1401.78 530.78 Q1404.12 528.673 1404.12 525.062 Q1404.12 521.451 1401.78 519.344 Q1399.44 517.238 1395.44 517.238 Q1393.57 517.238 1391.69 517.655 Q1389.84 518.071 1387.89 518.951 L1387.89 501.59 Z" fill="#000000" fill-rule="nonzero" fill-opacity="1" /><path clip-path="url(#clip570)" d="M1342.43 315.873 L1350.07 315.873 L1350.07 289.507 L1341.76 291.174 L1341.76 286.914 L1350.02 285.248 L1354.7 285.248 L1354.7 315.873 L1362.34 315.873 L1362.34 319.808 L1342.43 319.808 L1342.43 315.873 Z" fill="#000000" fill-rule="nonzero" fill-opacity="1" /><path clip-path="url(#clip570)" d="M1371.78 313.928 L1376.67 313.928 L1376.67 319.808 L1371.78 319.808 L1371.78 313.928 Z" fill="#000000" fill-rule="nonzero" fill-opacity="1" /><path clip-path="url(#clip570)" d="M1396.85 288.326 Q1393.24 288.326 1391.41 291.891 Q1389.61 295.433 1389.61 302.562 Q1389.61 309.669 1391.41 313.234 Q1393.24 316.775 1396.85 316.775 Q1400.49 316.775 1402.29 313.234 Q1404.12 309.669 1404.12 302.562 Q1404.12 295.433 1402.29 291.891 Q1400.49 288.326 1396.85 288.326 M1396.85 284.623 Q1402.66 284.623 1405.72 289.229 Q1408.8 293.813 1408.8 302.562 Q1408.8 311.289 1405.72 315.896 Q1402.66 320.479 1396.85 320.479 Q1391.04 320.479 1387.96 315.896 Q1384.91 311.289 1384.91 302.562 Q1384.91 293.813 1387.96 289.229 Q1391.04 284.623 1396.85 284.623 Z" fill="#000000" fill-rule="nonzero" fill-opacity="1" /><path clip-path="url(#clip570)" d="M1343.43 99.5305 L1351.07 99.5305 L1351.07 73.1649 L1342.76 74.8316 L1342.76 70.5723 L1351.02 68.9057 L1355.7 68.9057 L1355.7 99.5305 L1363.33 99.5305 L1363.33 103.466 L1343.43 103.466 L1343.43 99.5305 Z" fill="#000000" fill-rule="nonzero" fill-opacity="1" /><path clip-path="url(#clip570)" d="M1372.78 97.5861 L1377.66 97.5861 L1377.66 103.466 L1372.78 103.466 L1372.78 97.5861 Z" fill="#000000" fill-rule="nonzero" fill-opacity="1" /><path clip-path="url(#clip570)" d="M1387.89 68.9057 L1406.25 68.9057 L1406.25 72.8408 L1392.18 72.8408 L1392.18 81.313 Q1393.19 80.9658 1394.21 80.8038 Q1395.23 80.6186 1396.25 80.6186 Q1402.04 80.6186 1405.42 83.7899 Q1408.8 86.9611 1408.8 92.3778 Q1408.8 97.9564 1405.32 101.058 Q1401.85 104.137 1395.53 104.137 Q1393.36 104.137 1391.09 103.767 Q1388.84 103.396 1386.44 102.655 L1386.44 97.9564 Q1388.52 99.0907 1390.74 99.6463 Q1392.96 100.202 1395.44 100.202 Q1399.44 100.202 1401.78 98.0953 Q1404.12 95.9889 1404.12 92.3778 Q1404.12 88.7667 1401.78 86.6602 Q1399.44 84.5537 1395.44 84.5537 Q1393.57 84.5537 1391.69 84.9704 Q1389.84 85.3871 1387.89 86.2667 L1387.89 68.9057 Z" fill="#000000" fill-rule="nonzero" fill-opacity="1" /><path clip-path="url(#clip570)" d="M1224.17 817.002 Q1226.42 817.002 1226.42 820.255 L1226.42 831.334 L1249 835.746 Q1249.58 835.843 1249.9 835.972 Q1250.22 836.068 1250.77 836.358 Q1251.29 836.616 1251.54 837.163 Q1251.83 837.679 1251.83 838.452 Q1251.83 839.418 1251.25 839.901 Q1250.71 840.352 1250.03 840.352 Q1249.61 840.352 1247.61 839.708 L1226.42 833.234 L1226.42 838.709 Q1226.42 843.862 1231.51 847.083 Q1232.19 847.598 1232.25 847.888 Q1232.28 848.017 1232.28 848.146 Q1232.28 848.5 1232.12 848.725 Q1231.96 848.918 1231.8 848.918 L1231.64 848.951 Q1231.41 848.951 1230.51 848.435 Q1229.58 847.888 1228.19 846.922 Q1226.81 845.923 1225.71 844.925 Q1224.3 843.605 1223.56 842.123 Q1222.78 840.642 1222.69 839.901 Q1222.59 839.128 1222.59 838.13 L1222.59 819.643 Q1222.59 818.806 1222.65 818.355 Q1222.69 817.904 1223.07 817.453 Q1223.43 817.002 1224.17 817.002 Z" fill="#000000" fill-rule="nonzero" fill-opacity="1" /><path clip-path="url(#clip570)" d="M1201.57 779.502 Q1208.89 783.767 1216.05 785.836 Q1223.21 787.905 1230.56 787.905 Q1237.91 787.905 1245.14 785.836 Q1252.33 783.735 1259.62 779.502 L1259.62 784.594 Q1252.14 789.369 1244.92 791.756 Q1237.69 794.111 1230.56 794.111 Q1223.46 794.111 1216.27 791.756 Q1209.08 789.401 1201.57 784.594 L1201.57 779.502 Z" fill="#000000" fill-rule="nonzero" fill-opacity="1" /><path clip-path="url(#clip570)" d="M1203.51 767.885 L1203.51 759.227 L1243.26 738.157 L1203.51 738.157 L1203.51 731.918 L1251.03 731.918 L1251.03 740.576 L1211.27 761.646 L1251.03 761.646 L1251.03 767.885 L1203.51 767.885 Z" fill="#000000" fill-rule="nonzero" fill-opacity="1" /><path clip-path="url(#clip570)" d="M1222.22 670.903 Q1218.28 668.707 1216.4 665.651 Q1214.52 662.596 1214.52 658.458 Q1214.52 652.888 1218.44 649.864 Q1222.32 646.841 1229.51 646.841 L1251.03 646.841 L1251.03 652.729 L1229.7 652.729 Q1224.58 652.729 1222.1 654.543 Q1219.61 656.357 1219.61 660.081 Q1219.61 664.633 1222.64 667.275 Q1225.66 669.916 1230.88 669.916 L1251.03 669.916 L1251.03 675.805 L1229.7 675.805 Q1224.55 675.805 1222.1 677.619 Q1219.61 679.433 1219.61 683.221 Q1219.61 687.708 1222.67 690.35 Q1225.69 692.992 1230.88 692.992 L1251.03 692.992 L1251.03 698.88 L1215.38 698.88 L1215.38 692.992 L1220.92 692.992 Q1217.64 690.987 1216.08 688.186 Q1214.52 685.385 1214.52 681.534 Q1214.52 677.651 1216.49 674.945 Q1218.47 672.208 1222.22 670.903 Z" fill="#000000" fill-rule="nonzero" fill-opacity="1" /><path clip-path="url(#clip570)" d="M1201.57 636.083 L1201.57 630.99 Q1209.08 626.216 1216.27 623.86 Q1223.46 621.473 1230.56 621.473 Q1237.69 621.473 1244.92 623.86 Q1252.14 626.216 1259.62 630.99 L1259.62 636.083 Q1252.33 631.849 1245.14 629.781 Q1237.91 627.68 1230.56 627.68 Q1223.21 627.68 1216.05 629.781 Q1208.89 631.849 1201.57 636.083 Z" fill="#000000" fill-rule="nonzero" fill-opacity="1" /><polyline clip-path="url(#clip574)" style="stroke:#009af9; stroke-linecap:round; stroke-linejoin:round; stroke-width:4; stroke-opacity:1; fill:none" points="1470.49,86.1857 1495.69,86.1857 1495.69,86.1857 1520.88,86.1857 1520.88,86.1857 1546.07,86.1857 1546.07,86.1857 1571.27,86.1857 1571.27,86.1857 1596.46,86.1857 1596.46,86.1857 1621.65,86.1857 1621.65,86.1857 1646.85,86.1857 1646.85,86.1857 1672.04,86.1857 1672.04,86.1857 1697.23,86.1857 1697.23,86.1857 1722.42,86.1857 1722.42,86.1857 1747.62,86.1857 1747.62,108.535 1772.81,108.535 1772.81,804.462 1798,804.462 1798,630.305 1823.2,630.305 1823.2,673.459 1848.39,673.459 1848.39,723.855 1873.58,723.855 1873.58,757.309 1898.78,757.309 1898.78,773.76 1923.97,773.76 1923.97,782.051 1949.16,782.051 1949.16,784.75 1974.36,784.75 1974.36,783.4 1999.55,783.4 1999.55,779.419 2024.74,779.419 2024.74,773.988 2049.93,773.988 2049.93,767.963 2075.13,767.963 2075.13,761.934 2100.32,761.934 2100.32,756.287 2125.51,756.287 2125.51,751.251 2150.71,751.251 2150.71,746.935 2175.9,746.935 2175.9,743.367 2201.09,743.367 2201.09,740.515 2226.29,740.515 2226.29,738.313 2251.48,738.313 2251.48,736.677 2276.67,736.677 2276.67,735.514 2301.87,735.514 2301.87,734.736 2327.06,734.736 2327.06,734.258 "/>
<polyline clip-path="url(#clip574)" style="stroke:#c271d2; stroke-linecap:round; stroke-linejoin:round; stroke-width:6; stroke-opacity:1; fill:none" stroke-dasharray="3, 6" points="1470.49,1384.24 1495.69,1384.24 1520.88,1384.24 1546.07,1384.24 1571.27,1384.24 1596.46,1384.24 1621.65,1384.24 1646.85,1384.24 1672.04,1384.24 1697.23,1384.24 1722.42,1384.24 1747.62,1384.24 1772.81,1384.24 1798,1384.24 1823.2,1384.24 1848.39,1384.24 1873.58,1384.24 1898.78,1384.24 1923.97,1384.24 1949.16,1384.24 1974.36,1384.24 1999.55,1384.24 2024.74,1384.24 2049.93,1384.24 2075.13,1384.24 2100.32,1384.24 2125.51,1384.24 2150.71,1384.24 2175.9,1384.24 2201.09,1384.24 2226.29,1384.24 2251.48,1384.24 2276.67,1384.24 2301.87,1384.24 2327.06,1384.24 "/>
<polyline clip-path="url(#clip574)" style="stroke:#ac8d18; stroke-linecap:round; stroke-linejoin:round; stroke-width:6; stroke-opacity:1; fill:none" stroke-dasharray="3, 6" points="1470.49,86.1857 1495.69,86.1857 1520.88,86.1857 1546.07,86.1857 1571.27,86.1857 1596.46,86.1857 1621.65,86.1857 1646.85,86.1857 1672.04,86.1857 1697.23,86.1857 1722.42,86.1857 1747.62,86.1857 1772.81,86.1857 1798,86.1857 1823.2,86.1857 1848.39,86.1857 1873.58,86.1857 1898.78,86.1857 1923.97,86.1857 1949.16,86.1857 1974.36,86.1857 1999.55,86.1857 2024.74,86.1857 2049.93,86.1857 2075.13,86.1857 2100.32,86.1857 2125.51,86.1857 2150.71,86.1857 2175.9,86.1857 2201.09,86.1857 2226.29,86.1857 2251.48,86.1857 2276.67,86.1857 2301.87,86.1857 2327.06,86.1857 "/>
<path clip-path="url(#clip570)" d="M2124.19 300.469 L2322.49 300.469 L2322.49 93.1086 L2124.19 93.1086  Z" fill="#ffffff" fill-rule="evenodd" fill-opacity="1"/>
<polyline clip-path="url(#clip570)" style="stroke:#000000; stroke-linecap:round; stroke-linejoin:round; stroke-width:4; stroke-opacity:1; fill:none" points="2124.19,300.469 2322.49,300.469 2322.49,93.1086 2124.19,93.1086 2124.19,300.469 "/>
<polyline clip-path="url(#clip570)" style="stroke:#009af9; stroke-linecap:round; stroke-linejoin:round; stroke-width:4; stroke-opacity:1; fill:none" points="2134.28,144.949 2194.81,144.949 "/>
<path clip-path="url(#clip570)" d="M2232.25 155.503 L2223.75 155.784 L2223.75 152.06 Q2221.57 155.784 2216.84 155.784 Q2214.9 155.784 2213.45 155.527 Q2212.02 155.269 2210.75 154.637 Q2209.51 153.981 2208.85 152.716 Q2208.2 151.451 2208.2 149.601 L2208.2 138.428 Q2208.2 137.07 2207.71 136.812 Q2207.21 136.555 2204.9 136.555 L2204.9 134.306 L2213.68 133.908 L2213.68 150.28 Q2213.68 151.428 2213.75 152.013 Q2213.84 152.576 2214.19 153.138 Q2214.57 153.676 2215.37 153.887 Q2216.16 154.075 2217.52 154.075 Q2220.17 154.075 2221.81 152.294 Q2223.47 150.514 2223.47 147.587 L2223.47 138.428 Q2223.47 137.07 2222.95 136.812 Q2222.46 136.555 2220.14 136.555 L2220.14 134.306 L2228.93 133.908 L2228.93 151.381 Q2228.93 152.739 2229.42 152.997 Q2229.93 153.255 2232.25 153.255 L2232.25 155.503 Z" fill="#000000" fill-rule="nonzero" fill-opacity="1" /><polyline clip-path="url(#clip570)" style="stroke:#c271d2; stroke-linecap:round; stroke-linejoin:round; stroke-width:6; stroke-opacity:1; fill:none" stroke-dasharray="3, 6" points="2134.28,196.789 2194.81,196.789 "/>
<path clip-path="url(#clip570)" d="M2232.25 200.508 L2223.75 200.79 L2223.75 197.065 Q2221.57 200.79 2216.84 200.79 Q2214.9 200.79 2213.45 200.532 Q2212.02 200.274 2210.75 199.642 Q2209.51 198.986 2208.85 197.721 Q2208.2 196.456 2208.2 194.606 L2208.2 183.434 Q2208.2 182.075 2207.71 181.817 Q2207.21 181.56 2204.9 181.56 L2204.9 179.311 L2213.68 178.913 L2213.68 195.285 Q2213.68 196.433 2213.75 197.019 Q2213.84 197.581 2214.19 198.143 Q2214.57 198.682 2215.37 198.892 Q2216.16 199.08 2217.52 199.08 Q2220.17 199.08 2221.81 197.3 Q2223.47 195.519 2223.47 192.592 L2223.47 183.434 Q2223.47 182.075 2222.95 181.817 Q2222.46 181.56 2220.14 181.56 L2220.14 179.311 L2228.93 178.913 L2228.93 196.386 Q2228.93 197.745 2229.42 198.002 Q2229.93 198.26 2232.25 198.26 L2232.25 200.508 Z" fill="#000000" fill-rule="nonzero" fill-opacity="1" /><path clip-path="url(#clip570)" d="M2266.98 214.459 L2262.75 214.361 L2258.52 214.459 L2258.52 212.885 L2260.84 212.885 L2260.84 203.819 Q2260.84 201.982 2260.36 201.277 Q2259.88 200.556 2258.95 200.556 Q2258.13 200.556 2257.28 200.884 Q2256.44 201.212 2255.67 201.835 Q2254.92 202.458 2254.42 203.507 Q2253.95 204.556 2253.95 205.868 L2253.95 212.885 L2256.28 212.885 L2256.28 214.459 L2252.05 214.361 L2247.8 214.459 L2247.8 212.885 L2250.13 212.885 L2250.13 203.819 Q2250.13 201.982 2249.65 201.277 Q2249.18 200.556 2248.24 200.556 Q2247.42 200.556 2246.57 200.884 Q2245.73 201.212 2244.96 201.835 Q2244.21 202.458 2243.72 203.507 Q2243.24 204.556 2243.24 205.868 L2243.24 212.885 L2245.55 212.885 L2245.55 214.459 L2241.32 214.361 L2237.09 214.459 L2237.09 212.885 L2239.41 212.885 L2239.41 202.507 Q2239.41 201.556 2239.06 201.376 Q2238.72 201.195 2237.09 201.195 L2237.09 199.621 L2242.87 199.343 L2242.87 202.982 Q2243.73 201.294 2245.21 200.326 Q2246.7 199.343 2248.78 199.343 Q2253.11 199.343 2253.82 202.573 Q2254.59 201.212 2256 200.277 Q2257.41 199.343 2259.49 199.343 Q2262.13 199.343 2263.39 200.49 Q2264.67 201.622 2264.67 204.179 L2264.67 212.885 L2266.98 212.885 L2266.98 214.459 Z" fill="#000000" fill-rule="nonzero" fill-opacity="1" /><path clip-path="url(#clip570)" d="M2276.83 214.459 L2272.9 214.361 L2268.8 214.459 L2268.8 212.885 L2271.13 212.885 L2271.13 202.507 Q2271.13 201.556 2270.78 201.376 Q2270.44 201.195 2268.9 201.195 L2268.9 199.621 L2274.75 199.343 L2274.75 212.885 L2276.83 212.885 L2276.83 214.459 M2274.44 192.227 Q2275.21 192.997 2275.21 194.08 Q2275.21 195.162 2274.44 195.932 Q2273.68 196.703 2272.6 196.703 Q2271.52 196.703 2270.75 195.932 Q2269.98 195.162 2269.98 194.08 Q2269.98 192.997 2270.75 192.227 Q2271.52 191.456 2272.6 191.456 Q2273.68 191.456 2274.44 192.227 Z" fill="#000000" fill-rule="nonzero" fill-opacity="1" /><path clip-path="url(#clip570)" d="M2298.82 214.459 L2294.57 214.361 L2290.34 214.459 L2290.34 212.885 L2292.67 212.885 L2292.67 203.819 Q2292.67 201.999 2292.19 201.277 Q2291.73 200.556 2290.82 200.556 Q2289.98 200.556 2289.13 200.884 Q2288.29 201.212 2287.52 201.835 Q2286.77 202.458 2286.29 203.507 Q2285.82 204.556 2285.82 205.868 L2285.82 212.885 L2288.13 212.885 L2288.13 214.459 L2283.9 214.361 L2279.67 214.459 L2279.67 212.885 L2281.98 212.885 L2281.98 202.507 Q2281.98 201.556 2281.64 201.376 Q2281.29 201.195 2279.67 201.195 L2279.67 199.621 L2285.44 199.343 L2285.44 202.982 Q2285.8 202.277 2286.29 201.687 Q2286.78 201.081 2287.49 200.539 Q2288.19 199.982 2289.18 199.67 Q2290.18 199.343 2291.33 199.343 Q2293.93 199.343 2295.21 200.474 Q2296.49 201.605 2296.49 204.179 L2296.49 212.885 L2298.82 212.885 L2298.82 214.459 Z" fill="#000000" fill-rule="nonzero" fill-opacity="1" /><polyline clip-path="url(#clip570)" style="stroke:#ac8d18; stroke-linecap:round; stroke-linejoin:round; stroke-width:6; stroke-opacity:1; fill:none" stroke-dasharray="3, 6" points="2134.28,248.629 2194.81,248.629 "/>
<path clip-path="url(#clip570)" d="M2232.25 254.563 L2223.75 254.844 L2223.75 251.12 Q2221.57 254.844 2216.84 254.844 Q2214.9 254.844 2213.45 254.587 Q2212.02 254.329 2210.75 253.697 Q2209.51 253.041 2208.85 251.776 Q2208.2 250.511 2208.2 248.661 L2208.2 237.488 Q2208.2 236.13 2207.71 235.872 Q2207.21 235.615 2204.9 235.615 L2204.9 233.366 L2213.68 232.968 L2213.68 249.34 Q2213.68 250.488 2213.75 251.073 Q2213.84 251.636 2214.19 252.198 Q2214.57 252.736 2215.37 252.947 Q2216.16 253.135 2217.52 253.135 Q2220.17 253.135 2221.81 251.354 Q2223.47 249.574 2223.47 246.647 L2223.47 237.488 Q2223.47 236.13 2222.95 235.872 Q2222.46 235.615 2220.14 235.615 L2220.14 233.366 L2228.93 232.968 L2228.93 250.441 Q2228.93 251.799 2229.42 252.057 Q2229.93 252.315 2232.25 252.315 L2232.25 254.563 Z" fill="#000000" fill-rule="nonzero" fill-opacity="1" /><path clip-path="url(#clip570)" d="M2266.98 263.888 L2262.75 263.789 L2258.52 263.888 L2258.52 262.314 L2260.84 262.314 L2260.84 253.247 Q2260.84 251.411 2260.36 250.706 Q2259.88 249.984 2258.95 249.984 Q2258.13 249.984 2257.28 250.312 Q2256.44 250.64 2255.67 251.263 Q2254.92 251.886 2254.42 252.935 Q2253.95 253.985 2253.95 255.296 L2253.95 262.314 L2256.28 262.314 L2256.28 263.888 L2252.05 263.789 L2247.8 263.888 L2247.8 262.314 L2250.13 262.314 L2250.13 253.247 Q2250.13 251.411 2249.65 250.706 Q2249.18 249.984 2248.24 249.984 Q2247.42 249.984 2246.57 250.312 Q2245.73 250.64 2244.96 251.263 Q2244.21 251.886 2243.72 252.935 Q2243.24 253.985 2243.24 255.296 L2243.24 262.314 L2245.55 262.314 L2245.55 263.888 L2241.32 263.789 L2237.09 263.888 L2237.09 262.314 L2239.41 262.314 L2239.41 251.935 Q2239.41 250.984 2239.06 250.804 Q2238.72 250.624 2237.09 250.624 L2237.09 249.05 L2242.87 248.771 L2242.87 252.411 Q2243.73 250.722 2245.21 249.755 Q2246.7 248.771 2248.78 248.771 Q2253.11 248.771 2253.82 252.001 Q2254.59 250.64 2256 249.705 Q2257.41 248.771 2259.49 248.771 Q2262.13 248.771 2263.39 249.919 Q2264.67 251.05 2264.67 253.608 L2264.67 262.314 L2266.98 262.314 L2266.98 263.888 Z" fill="#000000" fill-rule="nonzero" fill-opacity="1" /><path clip-path="url(#clip570)" d="M2287.01 263.084 Q2287.01 263.379 2286.94 263.56 Q2286.88 263.724 2286.7 263.789 Q2286.53 263.855 2286.39 263.871 Q2286.24 263.888 2285.93 263.888 L2284.32 263.888 Q2283.32 263.888 2282.62 263.707 Q2281.93 263.511 2281.58 263.281 Q2281.24 263.052 2281.06 262.642 Q2280.88 262.232 2280.84 261.986 Q2280.83 261.723 2280.83 261.297 Q2280.21 262.494 2278.94 263.297 Q2277.7 264.084 2275.83 264.084 Q2275.04 264.084 2274.25 264.002 Q2273.47 263.92 2272.55 263.675 Q2271.63 263.412 2270.94 263.019 Q2270.25 262.609 2269.79 261.904 Q2269.33 261.182 2269.33 260.264 Q2269.33 255.444 2280.25 254.985 L2280.25 253.854 Q2280.25 249.886 2276.57 249.886 Q2275.22 249.886 2274.14 250.115 Q2274.24 250.181 2274.38 250.345 Q2274.53 250.509 2274.7 250.919 Q2274.88 251.329 2274.88 251.771 Q2274.88 252.771 2274.24 253.329 Q2273.61 253.886 2272.76 253.886 Q2271.97 253.886 2271.32 253.345 Q2270.68 252.788 2270.68 251.771 Q2270.68 248.672 2276.7 248.672 Q2280.32 248.672 2282.19 250.099 Q2284.07 251.509 2284.07 253.854 L2284.07 261.068 Q2284.07 261.428 2284.11 261.592 Q2284.14 261.756 2284.32 261.953 Q2284.5 262.15 2284.93 262.232 Q2285.37 262.297 2286.12 262.314 Q2286.42 262.314 2286.57 262.346 Q2286.71 262.363 2286.86 262.543 Q2287.01 262.724 2287.01 263.084 M2280.25 259.215 L2280.25 256.034 Q2279.68 256.067 2279.14 256.133 Q2278.6 256.198 2277.71 256.362 Q2276.83 256.51 2276.11 256.821 Q2275.4 257.116 2274.71 257.559 Q2274.04 257.985 2273.65 258.674 Q2273.27 259.362 2273.27 260.231 Q2273.27 261.346 2274.16 262.117 Q2275.04 262.888 2276.32 262.888 Q2276.65 262.888 2277.06 262.822 Q2277.47 262.756 2278.06 262.527 Q2278.65 262.281 2279.11 261.904 Q2279.58 261.527 2279.91 260.838 Q2280.25 260.133 2280.25 259.215 Z" fill="#000000" fill-rule="nonzero" fill-opacity="1" /><path clip-path="url(#clip570)" d="M2306.01 263.888 L2302.32 263.789 L2298.28 263.888 L2298.28 262.314 L2299.6 262.314 L2295.91 257.952 L2292.64 261.609 L2292.41 261.937 Q2292.41 262.084 2292.79 262.199 Q2293.18 262.314 2293.64 262.314 L2293.64 263.888 L2290.18 263.789 L2287.1 263.888 L2287.1 262.314 Q2288.13 262.314 2288.61 262.297 Q2289.1 262.265 2289.66 262.117 Q2290.22 261.969 2290.5 261.674 L2294.89 256.739 L2289.66 250.558 L2287.27 250.558 L2287.27 248.984 L2290.97 249.082 L2295.02 248.984 L2295.02 250.558 L2293.68 250.558 L2296.97 254.411 L2299.79 251.263 Q2299.81 251.247 2300.07 250.853 Q2299.55 250.558 2298.79 250.558 L2298.79 248.984 L2302.25 249.082 L2305.33 248.984 L2305.33 250.558 Q2303.99 250.558 2303.28 250.656 Q2302.6 250.738 2302.38 250.853 Q2302.19 250.968 2301.91 251.263 L2297.99 255.624 L2303.63 262.314 L2306.01 262.314 L2306.01 263.888 Z" fill="#000000" fill-rule="nonzero" fill-opacity="1" /></svg>
