<?xml version="1.0" encoding="utf-8"?>
<svg xmlns="http://www.w3.org/2000/svg" xmlns:xlink="http://www.w3.org/1999/xlink" width="600" height="400" viewBox="0 0 2400 1600">
<defs>
  <clipPath id="clip810">
    <rect x="0" y="0" width="2400" height="1600"/>
  </clipPath>
</defs>
<path clip-path="url(#clip810)" d="M0 1600 L2400 1600 L2400 0 L0 0  Z" fill="#ffffff" fill-rule="evenodd" fill-opacity="1"/>
<defs>
  <clipPath id="clip811">
    <rect x="480" y="0" width="1681" height="1600"/>
  </clipPath>
</defs>
<path clip-path="url(#clip810)" d="M203.964 1423.18 L1110.81 1423.18 L1110.81 47.2441 L203.964 47.2441  Z" fill="#ffffff" fill-rule="evenodd" fill-opacity="1"/>
<defs>
  <clipPath id="clip812">
    <rect x="203" y="47" width="908" height="1377"/>
  </clipPath>
</defs>
<polyline clip-path="url(#clip812)" style="stroke:#000000; stroke-linecap:round; stroke-linejoin:round; stroke-width:2; stroke-opacity:0.1; fill:none" points="229.629,1423.18 229.629,47.2441 "/>
<polyline clip-path="url(#clip812)" style="stroke:#000000; stroke-linecap:round; stroke-linejoin:round; stroke-width:2; stroke-opacity:0.1; fill:none" points="481.252,1423.18 481.252,47.2441 "/>
<polyline clip-path="url(#clip812)" style="stroke:#000000; stroke-linecap:round; stroke-linejoin:round; stroke-width:2; stroke-opacity:0.1; fill:none" points="732.874,1423.18 732.874,47.2441 "/>
<polyline clip-path="url(#clip812)" style="stroke:#000000; stroke-linecap:round; stroke-linejoin:round; stroke-width:2; stroke-opacity:0.1; fill:none" points="984.497,1423.18 984.497,47.2441 "/>
<polyline clip-path="url(#clip810)" style="stroke:#000000; stroke-linecap:round; stroke-linejoin:round; stroke-width:4; stroke-opacity:1; fill:none" points="203.964,1423.18 1110.81,1423.18 "/>
<polyline clip-path="url(#clip810)" style="stroke:#000000; stroke-linecap:round; stroke-linejoin:round; stroke-width:4; stroke-opacity:1; fill:none" points="229.629,1423.18 229.629,1404.28 "/>
<polyline clip-path="url(#clip810)" style="stroke:#000000; stroke-linecap:round; stroke-linejoin:round; stroke-width:4; stroke-opacity:1; fill:none" points="481.252,1423.18 481.252,1404.28 "/>
<polyline clip-path="url(#clip810)" style="stroke:#000000; stroke-linecap:round; stroke-linejoin:round; stroke-width:4; stroke-opacity:1; fill:none" points="732.874,1423.18 732.874,1404.28 "/>
<polyline clip-path="url(#clip810)" style="stroke:#000000; stroke-linecap:round; stroke-linejoin:round; stroke-width:4; stroke-opacity:1; fill:none" points="984.497,1423.18 984.497,1404.28 "/>
<path clip-path="url(#clip810)" d="M229.629 1454.1 Q226.018 1454.1 224.189 1457.66 Q222.384 1461.2 222.384 1468.33 Q222.384 1475.44 224.189 1479.01 Q226.018 1482.55 229.629 1482.55 Q233.263 1482.55 235.069 1479.01 Q236.898 1475.44 236.898 1468.33 Q236.898 1461.2 235.069 1457.66 Q233.263 1454.1 229.629 1454.1 M229.629 1450.39 Q235.439 1450.39 238.495 1455 Q241.573 1459.58 241.573 1468.33 Q241.573 1477.06 238.495 1481.67 Q235.439 1486.25 229.629 1486.25 Q223.819 1486.25 220.74 1481.67 Q217.685 1477.06 217.685 1468.33 Q217.685 1459.58 220.74 1455 Q223.819 1450.39 229.629 1450.39 Z" fill="#000000" fill-rule="nonzero" fill-opacity="1" /><path clip-path="url(#clip810)" d="M471.634 1481.64 L479.273 1481.64 L479.273 1455.28 L470.962 1456.95 L470.962 1452.69 L479.226 1451.02 L483.902 1451.02 L483.902 1481.64 L491.541 1481.64 L491.541 1485.58 L471.634 1485.58 L471.634 1481.64 Z" fill="#000000" fill-rule="nonzero" fill-opacity="1" /><path clip-path="url(#clip810)" d="M727.527 1481.64 L743.847 1481.64 L743.847 1485.58 L721.902 1485.58 L721.902 1481.64 Q724.564 1478.89 729.148 1474.26 Q733.754 1469.61 734.935 1468.27 Q737.18 1465.74 738.06 1464.01 Q738.962 1462.25 738.962 1460.56 Q738.962 1457.8 737.018 1456.07 Q735.097 1454.33 731.995 1454.33 Q729.796 1454.33 727.342 1455.09 Q724.912 1455.86 722.134 1457.41 L722.134 1452.69 Q724.958 1451.55 727.411 1450.97 Q729.865 1450.39 731.902 1450.39 Q737.273 1450.39 740.467 1453.08 Q743.661 1455.77 743.661 1460.26 Q743.661 1462.39 742.851 1464.31 Q742.064 1466.2 739.958 1468.8 Q739.379 1469.47 736.277 1472.69 Q733.175 1475.88 727.527 1481.64 Z" fill="#000000" fill-rule="nonzero" fill-opacity="1" /><path clip-path="url(#clip810)" d="M988.745 1466.95 Q992.101 1467.66 993.976 1469.93 Q995.874 1472.2 995.874 1475.53 Q995.874 1480.65 992.356 1483.45 Q988.837 1486.25 982.356 1486.25 Q980.18 1486.25 977.865 1485.81 Q975.574 1485.39 973.12 1484.54 L973.12 1480.02 Q975.064 1481.16 977.379 1481.74 Q979.694 1482.32 982.217 1482.32 Q986.615 1482.32 988.907 1480.58 Q991.222 1478.84 991.222 1475.53 Q991.222 1472.48 989.069 1470.77 Q986.939 1469.03 983.12 1469.03 L979.092 1469.03 L979.092 1465.19 L983.305 1465.19 Q986.754 1465.19 988.583 1463.82 Q990.411 1462.43 990.411 1459.84 Q990.411 1457.18 988.513 1455.77 Q986.638 1454.33 983.12 1454.33 Q981.199 1454.33 978.999 1454.75 Q976.8 1455.16 974.162 1456.04 L974.162 1451.88 Q976.824 1451.14 979.138 1450.77 Q981.476 1450.39 983.536 1450.39 Q988.861 1450.39 991.962 1452.83 Q995.064 1455.23 995.064 1459.35 Q995.064 1462.22 993.421 1464.21 Q991.777 1466.18 988.745 1466.95 Z" fill="#000000" fill-rule="nonzero" fill-opacity="1" /><path clip-path="url(#clip810)" d="M527.559 1520.52 L567.758 1520.52 L567.758 1525.93 L550.889 1525.93 L550.889 1568.04 L544.428 1568.04 L544.428 1525.93 L527.559 1525.93 L527.559 1520.52 Z" fill="#000000" fill-rule="nonzero" fill-opacity="1" /><path clip-path="url(#clip810)" d="M571.705 1532.4 L577.562 1532.4 L577.562 1568.04 L571.705 1568.04 L571.705 1532.4 M571.705 1518.52 L577.562 1518.52 L577.562 1525.93 L571.705 1525.93 L571.705 1518.52 Z" fill="#000000" fill-rule="nonzero" fill-opacity="1" /><path clip-path="url(#clip810)" d="M617.57 1539.24 Q619.766 1535.29 622.822 1533.41 Q625.877 1531.54 630.015 1531.54 Q635.585 1531.54 638.609 1535.45 Q641.633 1539.33 641.633 1546.53 L641.633 1568.04 L635.744 1568.04 L635.744 1546.72 Q635.744 1541.59 633.93 1539.11 Q632.116 1536.63 628.392 1536.63 Q623.84 1536.63 621.199 1539.65 Q618.557 1542.68 618.557 1547.9 L618.557 1568.04 L612.669 1568.04 L612.669 1546.72 Q612.669 1541.56 610.854 1539.11 Q609.04 1536.63 605.252 1536.63 Q600.765 1536.63 598.123 1539.68 Q595.481 1542.71 595.481 1547.9 L595.481 1568.04 L589.593 1568.04 L589.593 1532.4 L595.481 1532.4 L595.481 1537.93 Q597.486 1534.66 600.287 1533.1 Q603.088 1531.54 606.939 1531.54 Q610.822 1531.54 613.528 1533.51 Q616.265 1535.48 617.57 1539.24 Z" fill="#000000" fill-rule="nonzero" fill-opacity="1" /><path clip-path="url(#clip810)" d="M683.805 1548.76 L683.805 1551.62 L656.878 1551.62 Q657.26 1557.67 660.507 1560.85 Q663.785 1564 669.61 1564 Q672.984 1564 676.135 1563.17 Q679.317 1562.35 682.437 1560.69 L682.437 1566.23 Q679.286 1567.57 675.975 1568.27 Q672.665 1568.97 669.26 1568.97 Q660.73 1568.97 655.733 1564 Q650.767 1559.04 650.767 1550.57 Q650.767 1541.82 655.478 1536.69 Q660.22 1531.54 668.241 1531.54 Q675.434 1531.54 679.604 1536.18 Q683.805 1540.8 683.805 1548.76 M677.949 1547.04 Q677.885 1542.23 675.243 1539.37 Q672.633 1536.5 668.305 1536.5 Q663.403 1536.5 660.443 1539.27 Q657.515 1542.04 657.069 1547.07 L677.949 1547.04 Z" fill="#000000" fill-rule="nonzero" fill-opacity="1" /><path clip-path="url(#clip810)" d="M728.206 1518.58 Q723.941 1525.9 721.872 1533.06 Q719.803 1540.23 719.803 1547.58 Q719.803 1554.93 721.872 1562.16 Q723.973 1569.35 728.206 1576.64 L723.114 1576.64 Q718.339 1569.16 715.952 1561.93 Q713.597 1554.71 713.597 1547.58 Q713.597 1540.48 715.952 1533.29 Q718.307 1526.09 723.114 1518.58 L728.206 1518.58 Z" fill="#000000" fill-rule="nonzero" fill-opacity="1" /><path clip-path="url(#clip810)" d="M762.294 1533.45 L762.294 1538.98 Q759.812 1537.71 757.138 1537.07 Q754.465 1536.44 751.6 1536.44 Q747.24 1536.44 745.043 1537.77 Q742.879 1539.11 742.879 1541.79 Q742.879 1543.82 744.439 1545 Q745.998 1546.15 750.709 1547.2 L752.714 1547.64 Q758.952 1548.98 761.562 1551.43 Q764.204 1553.85 764.204 1558.21 Q764.204 1563.17 760.257 1566.07 Q756.343 1568.97 749.468 1568.97 Q746.603 1568.97 743.484 1568.39 Q740.396 1567.85 736.959 1566.74 L736.959 1560.69 Q740.205 1562.38 743.356 1563.24 Q746.508 1564.07 749.595 1564.07 Q753.733 1564.07 755.961 1562.66 Q758.189 1561.23 758.189 1558.65 Q758.189 1556.27 756.565 1554.99 Q754.974 1553.72 749.531 1552.54 L747.494 1552.07 Q742.052 1550.92 739.633 1548.56 Q737.214 1546.18 737.214 1542.04 Q737.214 1537.01 740.778 1534.27 Q744.343 1531.54 750.9 1531.54 Q754.146 1531.54 757.011 1532.01 Q759.876 1532.49 762.294 1533.45 Z" fill="#000000" fill-rule="nonzero" fill-opacity="1" /><path clip-path="url(#clip810)" d="M772.607 1518.58 L777.699 1518.58 Q782.474 1526.09 784.829 1533.29 Q787.216 1540.48 787.216 1547.58 Q787.216 1554.71 784.829 1561.93 Q782.474 1569.16 777.699 1576.64 L772.607 1576.64 Q776.84 1569.35 778.909 1562.16 Q781.01 1554.93 781.01 1547.58 Q781.01 1540.23 778.909 1533.06 Q776.84 1525.9 772.607 1518.58 Z" fill="#000000" fill-rule="nonzero" fill-opacity="1" /><polyline clip-path="url(#clip812)" style="stroke:#000000; stroke-linecap:round; stroke-linejoin:round; stroke-width:2; stroke-opacity:0.1; fill:none" points="203.964,1361.3 1110.81,1361.3 "/>
<polyline clip-path="url(#clip812)" style="stroke:#000000; stroke-linecap:round; stroke-linejoin:round; stroke-width:2; stroke-opacity:0.1; fill:none" points="203.964,930.006 1110.81,930.006 "/>
<polyline clip-path="url(#clip812)" style="stroke:#000000; stroke-linecap:round; stroke-linejoin:round; stroke-width:2; stroke-opacity:0.1; fill:none" points="203.964,498.708 1110.81,498.708 "/>
<polyline clip-path="url(#clip812)" style="stroke:#000000; stroke-linecap:round; stroke-linejoin:round; stroke-width:2; stroke-opacity:0.1; fill:none" points="203.964,67.4098 1110.81,67.4098 "/>
<polyline clip-path="url(#clip810)" style="stroke:#000000; stroke-linecap:round; stroke-linejoin:round; stroke-width:4; stroke-opacity:1; fill:none" points="203.964,1423.18 203.964,47.2441 "/>
<polyline clip-path="url(#clip810)" style="stroke:#000000; stroke-linecap:round; stroke-linejoin:round; stroke-width:4; stroke-opacity:1; fill:none" points="203.964,1361.3 222.861,1361.3 "/>
<polyline clip-path="url(#clip810)" style="stroke:#000000; stroke-linecap:round; stroke-linejoin:round; stroke-width:4; stroke-opacity:1; fill:none" points="203.964,930.006 222.861,930.006 "/>
<polyline clip-path="url(#clip810)" style="stroke:#000000; stroke-linecap:round; stroke-linejoin:round; stroke-width:4; stroke-opacity:1; fill:none" points="203.964,498.708 222.861,498.708 "/>
<polyline clip-path="url(#clip810)" style="stroke:#000000; stroke-linecap:round; stroke-linejoin:round; stroke-width:4; stroke-opacity:1; fill:none" points="203.964,67.4098 222.861,67.4098 "/>
<path clip-path="url(#clip810)" d="M156.019 1347.1 Q152.408 1347.1 150.579 1350.67 Q148.774 1354.21 148.774 1361.34 Q148.774 1368.44 150.579 1372.01 Q152.408 1375.55 156.019 1375.55 Q159.653 1375.55 161.459 1372.01 Q163.288 1368.44 163.288 1361.34 Q163.288 1354.21 161.459 1350.67 Q159.653 1347.1 156.019 1347.1 M156.019 1343.4 Q161.829 1343.4 164.885 1348.01 Q167.964 1352.59 167.964 1361.34 Q167.964 1370.07 164.885 1374.67 Q161.829 1379.25 156.019 1379.25 Q150.209 1379.25 147.13 1374.67 Q144.075 1370.07 144.075 1361.34 Q144.075 1352.59 147.13 1348.01 Q150.209 1343.4 156.019 1343.4 Z" fill="#000000" fill-rule="nonzero" fill-opacity="1" /><path clip-path="url(#clip810)" d="M116.668 943.351 L124.306 943.351 L124.306 916.985 L115.996 918.652 L115.996 914.392 L124.26 912.726 L128.936 912.726 L128.936 943.351 L136.575 943.351 L136.575 947.286 L116.668 947.286 L116.668 943.351 Z" fill="#000000" fill-rule="nonzero" fill-opacity="1" /><path clip-path="url(#clip810)" d="M156.019 915.804 Q152.408 915.804 150.579 919.369 Q148.774 922.911 148.774 930.04 Q148.774 937.147 150.579 940.712 Q152.408 944.253 156.019 944.253 Q159.653 944.253 161.459 940.712 Q163.288 937.147 163.288 930.04 Q163.288 922.911 161.459 919.369 Q159.653 915.804 156.019 915.804 M156.019 912.101 Q161.829 912.101 164.885 916.707 Q167.964 921.29 167.964 930.04 Q167.964 938.767 164.885 943.374 Q161.829 947.957 156.019 947.957 Q150.209 947.957 147.13 943.374 Q144.075 938.767 144.075 930.04 Q144.075 921.29 147.13 916.707 Q150.209 912.101 156.019 912.101 Z" fill="#000000" fill-rule="nonzero" fill-opacity="1" /><path clip-path="url(#clip810)" d="M119.885 512.053 L136.204 512.053 L136.204 515.988 L114.26 515.988 L114.26 512.053 Q116.922 509.298 121.505 504.668 Q126.112 500.016 127.292 498.673 Q129.538 496.15 130.417 494.414 Q131.32 492.655 131.32 490.965 Q131.32 488.21 129.376 486.474 Q127.455 484.738 124.353 484.738 Q122.154 484.738 119.7 485.502 Q117.269 486.266 114.492 487.817 L114.492 483.094 Q117.316 481.96 119.769 481.381 Q122.223 480.803 124.26 480.803 Q129.63 480.803 132.825 483.488 Q136.019 486.173 136.019 490.664 Q136.019 492.793 135.209 494.715 Q134.422 496.613 132.316 499.205 Q131.737 499.877 128.635 503.094 Q125.533 506.289 119.885 512.053 Z" fill="#000000" fill-rule="nonzero" fill-opacity="1" /><path clip-path="url(#clip810)" d="M156.019 484.506 Q152.408 484.506 150.579 488.071 Q148.774 491.613 148.774 498.742 Q148.774 505.849 150.579 509.414 Q152.408 512.955 156.019 512.955 Q159.653 512.955 161.459 509.414 Q163.288 505.849 163.288 498.742 Q163.288 491.613 161.459 488.071 Q159.653 484.506 156.019 484.506 M156.019 480.803 Q161.829 480.803 164.885 485.409 Q167.964 489.993 167.964 498.742 Q167.964 507.469 164.885 512.076 Q161.829 516.659 156.019 516.659 Q150.209 516.659 147.13 512.076 Q144.075 507.469 144.075 498.742 Q144.075 489.993 147.13 485.409 Q150.209 480.803 156.019 480.803 Z" fill="#000000" fill-rule="nonzero" fill-opacity="1" /><path clip-path="url(#clip810)" d="M130.024 66.0557 Q133.38 66.7733 135.255 69.0418 Q137.154 71.3103 137.154 74.6436 Q137.154 79.7593 133.635 82.5602 Q130.117 85.3611 123.635 85.3611 Q121.459 85.3611 119.144 84.9213 Q116.853 84.5046 114.399 83.6482 L114.399 79.1343 Q116.343 80.2686 118.658 80.8473 Q120.973 81.426 123.496 81.426 Q127.894 81.426 130.186 79.6899 Q132.501 77.9538 132.501 74.6436 Q132.501 71.588 130.348 69.8751 Q128.218 68.139 124.399 68.139 L120.371 68.139 L120.371 64.2964 L124.584 64.2964 Q128.033 64.2964 129.862 62.9307 Q131.691 61.5418 131.691 58.9492 Q131.691 56.2872 129.792 54.8752 Q127.917 53.44 124.399 53.44 Q122.478 53.44 120.279 53.8567 Q118.08 54.2733 115.441 55.1529 L115.441 50.9863 Q118.103 50.2456 120.418 49.8752 Q122.755 49.5048 124.816 49.5048 Q130.14 49.5048 133.242 51.9354 Q136.343 54.3428 136.343 58.4631 Q136.343 61.3335 134.7 63.3242 Q133.056 65.2918 130.024 66.0557 Z" fill="#000000" fill-rule="nonzero" fill-opacity="1" /><path clip-path="url(#clip810)" d="M156.019 53.2085 Q152.408 53.2085 150.579 56.7733 Q148.774 60.315 148.774 67.4445 Q148.774 74.551 150.579 78.1158 Q152.408 81.6574 156.019 81.6574 Q159.653 81.6574 161.459 78.1158 Q163.288 74.551 163.288 67.4445 Q163.288 60.315 161.459 56.7733 Q159.653 53.2085 156.019 53.2085 M156.019 49.5048 Q161.829 49.5048 164.885 54.1113 Q167.964 58.6946 167.964 67.4445 Q167.964 76.1714 164.885 80.7778 Q161.829 85.3611 156.019 85.3611 Q150.209 85.3611 147.13 80.7778 Q144.075 76.1714 144.075 67.4445 Q144.075 58.6946 147.13 54.1113 Q150.209 49.5048 156.019 49.5048 Z" fill="#000000" fill-rule="nonzero" fill-opacity="1" /><path clip-path="url(#clip810)" d="M21.7178 734.435 Q22.1687 734.435 23.2315 734.724 L48.4165 741.037 Q54.0203 742.422 57.9494 746.93 Q61.8785 751.407 61.8785 756.496 Q61.8785 759.555 60.236 761.52 Q58.6257 763.484 56.1459 763.484 Q53.9559 763.484 52.8931 762.325 Q51.8625 761.165 51.8625 759.781 Q51.8625 759.33 51.9913 758.847 Q52.1201 758.364 52.6676 757.848 Q53.2151 757.333 54.1491 757.333 Q55.6628 757.333 56.8544 758.653 Q57.4019 759.298 57.5307 759.909 Q57.6596 760.489 57.6596 761.488 Q58.5613 761.101 59.1732 760.393 Q59.7851 759.684 60.0106 758.879 Q60.2682 758.074 60.3326 757.558 Q60.4293 757.011 60.4293 756.496 Q60.4293 752.373 56.2747 749.217 Q55.0187 748.283 53.7626 747.607 Q52.5388 746.898 51.0252 746.383 Q49.5437 745.868 48.7385 745.642 Q47.9334 745.385 46.0977 744.934 Q49.0928 747.929 49.0928 751.6 Q49.0928 753.146 48.6741 754.531 Q48.2554 755.884 47.3859 757.075 Q46.4841 758.267 44.906 758.975 Q43.3279 759.652 41.2346 759.652 Q39.0124 759.652 35.985 758.782 Q32.9577 757.913 27.386 755.819 Q24.2621 754.692 22.7484 754.692 Q22.0077 754.692 21.5568 754.853 Q21.0737 755.014 20.9127 755.336 Q20.7194 755.658 20.6872 755.852 Q20.655 756.013 20.655 756.335 Q20.655 758.235 22.5874 760.006 Q24.5197 761.777 28.8353 763.001 Q29.6405 763.259 29.8337 763.42 Q30.0269 763.581 30.0269 764.064 Q29.9947 764.869 29.3506 764.869 Q29.093 764.869 28.0946 764.579 Q27.064 764.289 25.5503 763.613 Q24.0044 762.905 22.6196 761.938 Q21.2025 760.972 20.2041 759.459 Q19.2058 757.913 19.2058 756.141 Q19.2058 753.726 20.7838 752.244 Q22.3297 750.731 24.6163 750.731 Q25.5503 750.731 26.3877 750.988 Q27.1928 751.214 29.3506 752.051 Q38.0462 755.433 42.2974 755.433 Q43.3279 755.433 44.1975 755.272 Q45.0349 755.079 45.8722 754.66 Q46.6774 754.241 47.1604 753.404 Q47.6113 752.534 47.6113 751.343 Q47.6113 749.829 46.9028 748.412 Q46.1621 746.963 45.1637 746.061 Q44.1653 745.127 43.3279 744.579 Q42.4584 744 42.0075 743.871 L30.1558 740.908 L24.874 739.588 Q22.0077 738.976 21.2991 738.686 Q20.6228 738.299 20.2686 737.623 Q19.9143 736.947 19.9143 736.367 Q19.9143 735.562 20.3974 735.014 Q20.8805 734.435 21.7178 734.435 Z" fill="#000000" fill-rule="nonzero" fill-opacity="1" /><path clip-path="url(#clip810)" d="M53.6652 727.689 L52.2224 727.689 Q52.2224 722.143 49.2691 719.28 Q49.2691 718.491 49.4494 718.355 Q49.6298 718.22 50.4639 718.22 L76.3671 718.22 Q77.7423 718.22 78.1706 717.544 Q78.599 716.867 78.599 713.914 L78.599 712.449 L80.0193 712.449 Q79.884 714.072 79.884 719.933 Q79.884 725.795 80.0193 727.395 L78.599 727.395 L78.599 725.93 Q78.599 723.022 78.1932 722.323 Q77.7648 721.624 76.3671 721.624 L52.4478 721.624 Q53.6652 724.036 53.6652 727.689 Z" fill="#000000" fill-rule="nonzero" fill-opacity="1" /><polyline clip-path="url(#clip812)" style="stroke:#009af9; stroke-linecap:round; stroke-linejoin:round; stroke-width:4; stroke-opacity:1; fill:none" points="229.629,1384.24 254.791,1258.69 279.954,1022.55 305.116,719.57 330.278,448.395 355.44,307.064 380.603,144.338 405.765,119.616 430.927,86.1857 456.089,111.237 481.252,190.661 506.414,232.298 531.576,275.347 556.739,269.058 581.901,305.288 607.063,317.209 632.225,300.895 657.388,259.717 682.55,275.826 707.712,302.865 732.874,276.778 758.037,263.715 783.199,288.246 808.361,272.769 833.524,264.544 858.686,333.821 883.848,278.497 909.01,288.22 934.173,295.556 959.335,290.595 984.497,268.207 1009.66,283.533 1034.82,293.665 1059.98,255.713 1085.15,264.966 "/>
<polyline clip-path="url(#clip812)" style="stroke:#e26f46; stroke-linecap:round; stroke-linejoin:round; stroke-width:3; stroke-opacity:1; fill:none" stroke-dasharray="12, 6, 2, 6" points="229.629,1361.3 254.791,1271.18 279.954,981.046 305.116,729.496 330.278,445.691 355.44,244.374 380.603,207.849 405.765,92.836 430.927,136.316 456.089,124.59 481.252,168.724 506.414,260.435 531.576,284.713 556.739,312.473 581.901,281.45 607.063,317.132 632.225,319.887 657.388,292.23 682.55,242.514 707.712,273.46 732.874,308.619 758.037,270.672 783.199,258.064 808.361,293.363 833.524,270.564 858.686,262.145 883.848,350.953 909.01,267.54 934.173,285.925 959.335,296.148 984.497,288.844 1009.66,261.729 1034.82,286.278 1059.98,297.734 1085.15,247.515 "/>
<path clip-path="url(#clip810)" d="M961.069 1377.32 L1080.58 1377.32 L1080.58 1221.8 L961.069 1221.8  Z" fill="#ffffff" fill-rule="evenodd" fill-opacity="1"/>
<polyline clip-path="url(#clip810)" style="stroke:#000000; stroke-linecap:round; stroke-linejoin:round; stroke-width:4; stroke-opacity:1; fill:none" points="961.069,1377.32 1080.58,1377.32 1080.58,1221.8 961.069,1221.8 961.069,1377.32 "/>
<polyline clip-path="url(#clip810)" style="stroke:#009af9; stroke-linecap:round; stroke-linejoin:round; stroke-width:4; stroke-opacity:1; fill:none" points="971.145,1273.64 1031.6,1273.64 "/>
<path clip-path="url(#clip810)" d="M1068.45 1260.37 Q1066.97 1260.37 1066.22 1260.51 Q1065.48 1260.63 1065.29 1260.8 Q1065.1 1260.96 1064.89 1261.38 L1054.58 1283.3 Q1053.48 1285.65 1051.42 1287.33 Q1049.38 1289.02 1046.81 1289.02 Q1044.65 1289.02 1043.15 1287.71 Q1041.68 1286.42 1041.68 1284.59 Q1041.68 1283.28 1042.5 1282.53 Q1043.32 1281.81 1044.42 1281.81 Q1045.64 1281.81 1046.41 1282.58 Q1047.21 1283.35 1047.21 1284.55 Q1047.21 1285.32 1046.88 1285.9 Q1046.55 1286.51 1046.25 1286.72 Q1045.96 1286.96 1045.66 1287.1 Q1046.15 1287.29 1046.81 1287.29 Q1047.79 1287.29 1048.63 1286.89 Q1049.5 1286.51 1050.06 1286 Q1050.65 1285.51 1051.23 1284.62 Q1051.82 1283.75 1052.1 1283.19 Q1052.38 1282.65 1052.8 1281.71 L1053.9 1279.42 L1044.93 1260.37 L1041.87 1260.37 L1041.87 1258.13 L1047.35 1258.27 L1053.3 1258.13 L1053.3 1260.37 L1050.7 1260.37 L1056.79 1273.33 L1062.31 1261.52 L1062.55 1260.96 Q1062.55 1260.7 1061.99 1260.56 Q1061.42 1260.4 1060.86 1260.4 L1060.3 1260.37 L1060.3 1258.13 L1064.66 1258.27 Q1066.72 1258.27 1068.45 1258.13 L1068.45 1260.37 Z" fill="#000000" fill-rule="nonzero" fill-opacity="1" /><polyline clip-path="url(#clip810)" style="stroke:#e26f46; stroke-linecap:round; stroke-linejoin:round; stroke-width:3; stroke-opacity:1; fill:none" stroke-dasharray="12, 6, 2, 6" points="971.145,1325.48 1031.6,1325.48 "/>
<path clip-path="url(#clip810)" d="M1064.26 1309.2 L1063.85 1309.87 Q1061.31 1308.77 1058.15 1307.01 Q1054.98 1308.77 1052.44 1309.87 L1052.05 1309.2 Q1054.82 1306.79 1058.15 1304.93 Q1061.51 1306.8 1064.26 1309.2 Z" fill="#000000" fill-rule="nonzero" fill-opacity="1" /><path clip-path="url(#clip810)" d="M1068.45 1317.22 Q1066.97 1317.22 1066.22 1317.36 Q1065.48 1317.48 1065.29 1317.64 Q1065.1 1317.8 1064.89 1318.23 L1054.58 1340.15 Q1053.48 1342.49 1051.42 1344.18 Q1049.38 1345.86 1046.81 1345.86 Q1044.65 1345.86 1043.15 1344.55 Q1041.68 1343.26 1041.68 1341.44 Q1041.68 1340.13 1042.5 1339.38 Q1043.32 1338.65 1044.42 1338.65 Q1045.64 1338.65 1046.41 1339.42 Q1047.21 1340.2 1047.21 1341.39 Q1047.21 1342.16 1046.88 1342.75 Q1046.55 1343.36 1046.25 1343.57 Q1045.96 1343.8 1045.66 1343.94 Q1046.15 1344.13 1046.81 1344.13 Q1047.79 1344.13 1048.63 1343.73 Q1049.5 1343.36 1050.06 1342.84 Q1050.65 1342.35 1051.23 1341.46 Q1051.82 1340.59 1052.1 1340.03 Q1052.38 1339.49 1052.8 1338.56 L1053.9 1336.26 L1044.93 1317.22 L1041.87 1317.22 L1041.87 1314.97 L1047.35 1315.11 L1053.3 1314.97 L1053.3 1317.22 L1050.7 1317.22 L1056.79 1330.17 L1062.31 1318.37 L1062.55 1317.8 Q1062.55 1317.55 1061.99 1317.41 Q1061.42 1317.24 1060.86 1317.24 L1060.3 1317.22 L1060.3 1314.97 L1064.66 1315.11 Q1066.72 1315.11 1068.45 1314.97 L1068.45 1317.22 Z" fill="#000000" fill-rule="nonzero" fill-opacity="1" /><path clip-path="url(#clip810)" d="M1445.91 398.692 L2352.76 398.692 L2352.76 47.2441 L1445.91 47.2441  Z" fill="#ffffff" fill-rule="evenodd" fill-opacity="1"/>
<defs>
  <clipPath id="clip813">
    <rect x="1445" y="47" width="908" height="352"/>
  </clipPath>
</defs>
<polyline clip-path="url(#clip813)" style="stroke:#000000; stroke-linecap:round; stroke-linejoin:round; stroke-width:2; stroke-opacity:0.1; fill:none" points="1471.57,398.692 1471.57,47.2441 "/>
<polyline clip-path="url(#clip813)" style="stroke:#000000; stroke-linecap:round; stroke-linejoin:round; stroke-width:2; stroke-opacity:0.1; fill:none" points="1723.2,398.692 1723.2,47.2441 "/>
<polyline clip-path="url(#clip813)" style="stroke:#000000; stroke-linecap:round; stroke-linejoin:round; stroke-width:2; stroke-opacity:0.1; fill:none" points="1974.82,398.692 1974.82,47.2441 "/>
<polyline clip-path="url(#clip813)" style="stroke:#000000; stroke-linecap:round; stroke-linejoin:round; stroke-width:2; stroke-opacity:0.1; fill:none" points="2226.44,398.692 2226.44,47.2441 "/>
<polyline clip-path="url(#clip810)" style="stroke:#000000; stroke-linecap:round; stroke-linejoin:round; stroke-width:4; stroke-opacity:1; fill:none" points="1445.91,398.692 2352.76,398.692 "/>
<polyline clip-path="url(#clip810)" style="stroke:#000000; stroke-linecap:round; stroke-linejoin:round; stroke-width:4; stroke-opacity:1; fill:none" points="1471.57,398.692 1471.57,379.794 "/>
<polyline clip-path="url(#clip810)" style="stroke:#000000; stroke-linecap:round; stroke-linejoin:round; stroke-width:4; stroke-opacity:1; fill:none" points="1723.2,398.692 1723.2,379.794 "/>
<polyline clip-path="url(#clip810)" style="stroke:#000000; stroke-linecap:round; stroke-linejoin:round; stroke-width:4; stroke-opacity:1; fill:none" points="1974.82,398.692 1974.82,379.794 "/>
<polyline clip-path="url(#clip810)" style="stroke:#000000; stroke-linecap:round; stroke-linejoin:round; stroke-width:4; stroke-opacity:1; fill:none" points="2226.44,398.692 2226.44,379.794 "/>
<path clip-path="url(#clip810)" d="M1471.57 429.611 Q1467.96 429.611 1466.13 433.175 Q1464.33 436.717 1464.33 443.847 Q1464.33 450.953 1466.13 454.518 Q1467.96 458.059 1471.57 458.059 Q1475.21 458.059 1477.01 454.518 Q1478.84 450.953 1478.84 443.847 Q1478.84 436.717 1477.01 433.175 Q1475.21 429.611 1471.57 429.611 M1471.57 425.907 Q1477.38 425.907 1480.44 430.513 Q1483.52 435.097 1483.52 443.847 Q1483.52 452.573 1480.44 457.18 Q1477.38 461.763 1471.57 461.763 Q1465.76 461.763 1462.68 457.18 Q1459.63 452.573 1459.63 443.847 Q1459.63 435.097 1462.68 430.513 Q1465.76 425.907 1471.57 425.907 Z" fill="#000000" fill-rule="nonzero" fill-opacity="1" /><path clip-path="url(#clip810)" d="M1713.58 457.157 L1721.22 457.157 L1721.22 430.791 L1712.91 432.458 L1712.91 428.199 L1721.17 426.532 L1725.85 426.532 L1725.85 457.157 L1733.49 457.157 L1733.49 461.092 L1713.58 461.092 L1713.58 457.157 Z" fill="#000000" fill-rule="nonzero" fill-opacity="1" /><path clip-path="url(#clip810)" d="M1969.47 457.157 L1985.79 457.157 L1985.79 461.092 L1963.85 461.092 L1963.85 457.157 Q1966.51 454.402 1971.09 449.772 Q1975.7 445.12 1976.88 443.777 Q1979.12 441.254 1980 439.518 Q1980.91 437.759 1980.91 436.069 Q1980.91 433.314 1978.96 431.578 Q1977.04 429.842 1973.94 429.842 Q1971.74 429.842 1969.29 430.606 Q1966.86 431.37 1964.08 432.921 L1964.08 428.199 Q1966.9 427.064 1969.36 426.486 Q1971.81 425.907 1973.85 425.907 Q1979.22 425.907 1982.41 428.592 Q1985.61 431.277 1985.61 435.768 Q1985.61 437.898 1984.8 439.819 Q1984.01 441.717 1981.9 444.31 Q1981.32 444.981 1978.22 448.198 Q1975.12 451.393 1969.47 457.157 Z" fill="#000000" fill-rule="nonzero" fill-opacity="1" /><path clip-path="url(#clip810)" d="M2230.69 442.458 Q2234.05 443.175 2235.92 445.444 Q2237.82 447.712 2237.82 451.046 Q2237.82 456.161 2234.3 458.962 Q2230.78 461.763 2224.3 461.763 Q2222.12 461.763 2219.81 461.323 Q2217.52 460.907 2215.06 460.05 L2215.06 455.536 Q2217.01 456.671 2219.32 457.249 Q2221.64 457.828 2224.16 457.828 Q2228.56 457.828 2230.85 456.092 Q2233.17 454.356 2233.17 451.046 Q2233.17 447.99 2231.01 446.277 Q2228.88 444.541 2225.06 444.541 L2221.04 444.541 L2221.04 440.698 L2225.25 440.698 Q2228.7 440.698 2230.53 439.333 Q2232.36 437.944 2232.36 435.351 Q2232.36 432.689 2230.46 431.277 Q2228.58 429.842 2225.06 429.842 Q2223.14 429.842 2220.94 430.259 Q2218.74 430.675 2216.11 431.555 L2216.11 427.388 Q2218.77 426.648 2221.08 426.277 Q2223.42 425.907 2225.48 425.907 Q2230.8 425.907 2233.91 428.337 Q2237.01 430.745 2237.01 434.865 Q2237.01 437.736 2235.36 439.726 Q2233.72 441.694 2230.69 442.458 Z" fill="#000000" fill-rule="nonzero" fill-opacity="1" /><polyline clip-path="url(#clip813)" style="stroke:#000000; stroke-linecap:round; stroke-linejoin:round; stroke-width:2; stroke-opacity:0.1; fill:none" points="1445.91,388.745 2352.76,388.745 "/>
<polyline clip-path="url(#clip813)" style="stroke:#000000; stroke-linecap:round; stroke-linejoin:round; stroke-width:2; stroke-opacity:0.1; fill:none" points="1445.91,324.154 2352.76,324.154 "/>
<polyline clip-path="url(#clip813)" style="stroke:#000000; stroke-linecap:round; stroke-linejoin:round; stroke-width:2; stroke-opacity:0.1; fill:none" points="1445.91,259.562 2352.76,259.562 "/>
<polyline clip-path="url(#clip813)" style="stroke:#000000; stroke-linecap:round; stroke-linejoin:round; stroke-width:2; stroke-opacity:0.1; fill:none" points="1445.91,194.971 2352.76,194.971 "/>
<polyline clip-path="url(#clip813)" style="stroke:#000000; stroke-linecap:round; stroke-linejoin:round; stroke-width:2; stroke-opacity:0.1; fill:none" points="1445.91,130.379 2352.76,130.379 "/>
<polyline clip-path="url(#clip813)" style="stroke:#000000; stroke-linecap:round; stroke-linejoin:round; stroke-width:2; stroke-opacity:0.1; fill:none" points="1445.91,65.7876 2352.76,65.7876 "/>
<polyline clip-path="url(#clip810)" style="stroke:#000000; stroke-linecap:round; stroke-linejoin:round; stroke-width:4; stroke-opacity:1; fill:none" points="1445.91,398.692 1445.91,47.2441 "/>
<polyline clip-path="url(#clip810)" style="stroke:#000000; stroke-linecap:round; stroke-linejoin:round; stroke-width:4; stroke-opacity:1; fill:none" points="1445.91,388.745 1464.81,388.745 "/>
<polyline clip-path="url(#clip810)" style="stroke:#000000; stroke-linecap:round; stroke-linejoin:round; stroke-width:4; stroke-opacity:1; fill:none" points="1445.91,324.154 1464.81,324.154 "/>
<polyline clip-path="url(#clip810)" style="stroke:#000000; stroke-linecap:round; stroke-linejoin:round; stroke-width:4; stroke-opacity:1; fill:none" points="1445.91,259.562 1464.81,259.562 "/>
<polyline clip-path="url(#clip810)" style="stroke:#000000; stroke-linecap:round; stroke-linejoin:round; stroke-width:4; stroke-opacity:1; fill:none" points="1445.91,194.971 1464.81,194.971 "/>
<polyline clip-path="url(#clip810)" style="stroke:#000000; stroke-linecap:round; stroke-linejoin:round; stroke-width:4; stroke-opacity:1; fill:none" points="1445.91,130.379 1464.81,130.379 "/>
<polyline clip-path="url(#clip810)" style="stroke:#000000; stroke-linecap:round; stroke-linejoin:round; stroke-width:4; stroke-opacity:1; fill:none" points="1445.91,65.7876 1464.81,65.7876 "/>
<path clip-path="url(#clip810)" d="M1352.73 374.544 Q1349.12 374.544 1347.29 378.109 Q1345.49 381.65 1345.49 388.78 Q1345.49 395.886 1347.29 399.451 Q1349.12 402.993 1352.73 402.993 Q1356.37 402.993 1358.17 399.451 Q1360 395.886 1360 388.78 Q1360 381.65 1358.17 378.109 Q1356.37 374.544 1352.73 374.544 M1352.73 370.84 Q1358.54 370.84 1361.6 375.447 Q1364.68 380.03 1364.68 388.78 Q1364.68 397.507 1361.6 402.113 Q1358.54 406.697 1352.73 406.697 Q1346.92 406.697 1343.84 402.113 Q1340.79 397.507 1340.79 388.78 Q1340.79 380.03 1343.84 375.447 Q1346.92 370.84 1352.73 370.84 Z" fill="#000000" fill-rule="nonzero" fill-opacity="1" /><path clip-path="url(#clip810)" d="M1372.89 400.146 L1377.78 400.146 L1377.78 406.025 L1372.89 406.025 L1372.89 400.146 Z" fill="#000000" fill-rule="nonzero" fill-opacity="1" /><path clip-path="url(#clip810)" d="M1397.96 374.544 Q1394.35 374.544 1392.52 378.109 Q1390.72 381.65 1390.72 388.78 Q1390.72 395.886 1392.52 399.451 Q1394.35 402.993 1397.96 402.993 Q1401.6 402.993 1403.4 399.451 Q1405.23 395.886 1405.23 388.78 Q1405.23 381.65 1403.4 378.109 Q1401.6 374.544 1397.96 374.544 M1397.96 370.84 Q1403.77 370.84 1406.83 375.447 Q1409.91 380.03 1409.91 388.78 Q1409.91 397.507 1406.83 402.113 Q1403.77 406.697 1397.96 406.697 Q1392.15 406.697 1389.07 402.113 Q1386.02 397.507 1386.02 388.78 Q1386.02 380.03 1389.07 375.447 Q1392.15 370.84 1397.96 370.84 Z" fill="#000000" fill-rule="nonzero" fill-opacity="1" /><path clip-path="url(#clip810)" d="M1353.96 309.952 Q1350.35 309.952 1348.52 313.517 Q1346.71 317.059 1346.71 324.188 Q1346.71 331.295 1348.52 334.86 Q1350.35 338.401 1353.96 338.401 Q1357.59 338.401 1359.4 334.86 Q1361.23 331.295 1361.23 324.188 Q1361.23 317.059 1359.4 313.517 Q1357.59 309.952 1353.96 309.952 M1353.96 306.249 Q1359.77 306.249 1362.82 310.855 Q1365.9 315.438 1365.9 324.188 Q1365.9 332.915 1362.82 337.522 Q1359.77 342.105 1353.96 342.105 Q1348.15 342.105 1345.07 337.522 Q1342.01 332.915 1342.01 324.188 Q1342.01 315.438 1345.07 310.855 Q1348.15 306.249 1353.96 306.249 Z" fill="#000000" fill-rule="nonzero" fill-opacity="1" /><path clip-path="url(#clip810)" d="M1374.12 335.554 L1379.01 335.554 L1379.01 341.434 L1374.12 341.434 L1374.12 335.554 Z" fill="#000000" fill-rule="nonzero" fill-opacity="1" /><path clip-path="url(#clip810)" d="M1390 337.499 L1397.64 337.499 L1397.64 311.133 L1389.33 312.8 L1389.33 308.54 L1397.59 306.874 L1402.27 306.874 L1402.27 337.499 L1409.91 337.499 L1409.91 341.434 L1390 341.434 L1390 337.499 Z" fill="#000000" fill-rule="nonzero" fill-opacity="1" /><path clip-path="url(#clip810)" d="M1354.33 245.361 Q1350.72 245.361 1348.89 248.926 Q1347.08 252.467 1347.08 259.597 Q1347.08 266.703 1348.89 270.268 Q1350.72 273.81 1354.33 273.81 Q1357.96 273.81 1359.77 270.268 Q1361.6 266.703 1361.6 259.597 Q1361.6 252.467 1359.77 248.926 Q1357.96 245.361 1354.33 245.361 M1354.33 241.657 Q1360.14 241.657 1363.2 246.264 Q1366.27 250.847 1366.27 259.597 Q1366.27 268.324 1363.2 272.93 Q1360.14 277.513 1354.33 277.513 Q1348.52 277.513 1345.44 272.93 Q1342.39 268.324 1342.39 259.597 Q1342.39 250.847 1345.44 246.264 Q1348.52 241.657 1354.33 241.657 Z" fill="#000000" fill-rule="nonzero" fill-opacity="1" /><path clip-path="url(#clip810)" d="M1374.49 270.963 L1379.38 270.963 L1379.38 276.842 L1374.49 276.842 L1374.49 270.963 Z" fill="#000000" fill-rule="nonzero" fill-opacity="1" /><path clip-path="url(#clip810)" d="M1393.59 272.907 L1409.91 272.907 L1409.91 276.842 L1387.96 276.842 L1387.96 272.907 Q1390.63 270.152 1395.21 265.523 Q1399.82 260.87 1401 259.527 Q1403.24 257.004 1404.12 255.268 Q1405.02 253.509 1405.02 251.819 Q1405.02 249.065 1403.08 247.328 Q1401.16 245.592 1398.06 245.592 Q1395.86 245.592 1393.4 246.356 Q1390.97 247.12 1388.19 248.671 L1388.19 243.949 Q1391.02 242.815 1393.47 242.236 Q1395.93 241.657 1397.96 241.657 Q1403.33 241.657 1406.53 244.342 Q1409.72 247.028 1409.72 251.518 Q1409.72 253.648 1408.91 255.569 Q1408.13 257.467 1406.02 260.06 Q1405.44 260.731 1402.34 263.949 Q1399.24 267.143 1393.59 272.907 Z" fill="#000000" fill-rule="nonzero" fill-opacity="1" /><path clip-path="url(#clip810)" d="M1353.38 180.769 Q1349.77 180.769 1347.94 184.334 Q1346.13 187.876 1346.13 195.005 Q1346.13 202.112 1347.94 205.677 Q1349.77 209.218 1353.38 209.218 Q1357.01 209.218 1358.82 205.677 Q1360.65 202.112 1360.65 195.005 Q1360.65 187.876 1358.82 184.334 Q1357.01 180.769 1353.38 180.769 M1353.38 177.066 Q1359.19 177.066 1362.25 181.672 Q1365.32 186.255 1365.32 195.005 Q1365.32 203.732 1362.25 208.339 Q1359.19 212.922 1353.38 212.922 Q1347.57 212.922 1344.49 208.339 Q1341.44 203.732 1341.44 195.005 Q1341.44 186.255 1344.49 181.672 Q1347.57 177.066 1353.38 177.066 Z" fill="#000000" fill-rule="nonzero" fill-opacity="1" /><path clip-path="url(#clip810)" d="M1373.54 206.371 L1378.43 206.371 L1378.43 212.251 L1373.54 212.251 L1373.54 206.371 Z" fill="#000000" fill-rule="nonzero" fill-opacity="1" /><path clip-path="url(#clip810)" d="M1402.78 193.616 Q1406.13 194.334 1408.01 196.603 Q1409.91 198.871 1409.91 202.204 Q1409.91 207.32 1406.39 210.121 Q1402.87 212.922 1396.39 212.922 Q1394.21 212.922 1391.9 212.482 Q1389.61 212.065 1387.15 211.209 L1387.15 206.695 Q1389.1 207.829 1391.41 208.408 Q1393.73 208.987 1396.25 208.987 Q1400.65 208.987 1402.94 207.251 Q1405.26 205.515 1405.26 202.204 Q1405.26 199.149 1403.1 197.436 Q1400.97 195.7 1397.15 195.7 L1393.13 195.7 L1393.13 191.857 L1397.34 191.857 Q1400.79 191.857 1402.62 190.492 Q1404.44 189.103 1404.44 186.51 Q1404.44 183.848 1402.55 182.436 Q1400.67 181.001 1397.15 181.001 Q1395.23 181.001 1393.03 181.417 Q1390.83 181.834 1388.19 182.714 L1388.19 178.547 Q1390.86 177.806 1393.17 177.436 Q1395.51 177.066 1397.57 177.066 Q1402.89 177.066 1406 179.496 Q1409.1 181.904 1409.1 186.024 Q1409.1 188.894 1407.45 190.885 Q1405.81 192.853 1402.78 193.616 Z" fill="#000000" fill-rule="nonzero" fill-opacity="1" /><path clip-path="url(#clip810)" d="M1352.25 116.178 Q1348.63 116.178 1346.81 119.743 Q1345 123.284 1345 130.414 Q1345 137.52 1346.81 141.085 Q1348.63 144.627 1352.25 144.627 Q1355.88 144.627 1357.69 141.085 Q1359.51 137.52 1359.51 130.414 Q1359.51 123.284 1357.69 119.743 Q1355.88 116.178 1352.25 116.178 M1352.25 112.474 Q1358.06 112.474 1361.11 117.081 Q1364.19 121.664 1364.19 130.414 Q1364.19 139.141 1361.11 143.747 Q1358.06 148.33 1352.25 148.33 Q1346.44 148.33 1343.36 143.747 Q1340.3 139.141 1340.3 130.414 Q1340.3 121.664 1343.36 117.081 Q1346.44 112.474 1352.25 112.474 Z" fill="#000000" fill-rule="nonzero" fill-opacity="1" /><path clip-path="url(#clip810)" d="M1372.41 141.78 L1377.29 141.78 L1377.29 147.659 L1372.41 147.659 L1372.41 141.78 Z" fill="#000000" fill-rule="nonzero" fill-opacity="1" /><path clip-path="url(#clip810)" d="M1400.32 117.173 L1388.52 135.622 L1400.32 135.622 L1400.32 117.173 M1399.1 113.099 L1404.98 113.099 L1404.98 135.622 L1409.91 135.622 L1409.91 139.511 L1404.98 139.511 L1404.98 147.659 L1400.32 147.659 L1400.32 139.511 L1384.72 139.511 L1384.72 134.997 L1399.1 113.099 Z" fill="#000000" fill-rule="nonzero" fill-opacity="1" /><path clip-path="url(#clip810)" d="M1353.73 51.5863 Q1350.12 51.5863 1348.29 55.1511 Q1346.48 58.6927 1346.48 65.8223 Q1346.48 72.9288 1348.29 76.4936 Q1350.12 80.0352 1353.73 80.0352 Q1357.36 80.0352 1359.17 76.4936 Q1361 72.9288 1361 65.8223 Q1361 58.6927 1359.17 55.1511 Q1357.36 51.5863 1353.73 51.5863 M1353.73 47.8826 Q1359.54 47.8826 1362.59 52.4891 Q1365.67 57.0724 1365.67 65.8223 Q1365.67 74.5491 1362.59 79.1556 Q1359.54 83.7389 1353.73 83.7389 Q1347.92 83.7389 1344.84 79.1556 Q1341.78 74.5491 1341.78 65.8223 Q1341.78 57.0724 1344.84 52.4891 Q1347.92 47.8826 1353.73 47.8826 Z" fill="#000000" fill-rule="nonzero" fill-opacity="1" /><path clip-path="url(#clip810)" d="M1373.89 77.188 L1378.77 77.188 L1378.77 83.0676 L1373.89 83.0676 L1373.89 77.188 Z" fill="#000000" fill-rule="nonzero" fill-opacity="1" /><path clip-path="url(#clip810)" d="M1389.01 48.5076 L1407.36 48.5076 L1407.36 52.4428 L1393.29 52.4428 L1393.29 60.9149 Q1394.31 60.5677 1395.32 60.4057 Q1396.34 60.2205 1397.36 60.2205 Q1403.15 60.2205 1406.53 63.3918 Q1409.91 66.5631 1409.91 71.9797 Q1409.91 77.5584 1406.44 80.6602 Q1402.96 83.7389 1396.64 83.7389 Q1394.47 83.7389 1392.2 83.3685 Q1389.95 82.9982 1387.55 82.2574 L1387.55 77.5584 Q1389.63 78.6926 1391.85 79.2482 Q1394.07 79.8037 1396.55 79.8037 Q1400.56 79.8037 1402.89 77.6973 Q1405.23 75.5908 1405.23 71.9797 Q1405.23 68.3686 1402.89 66.2621 Q1400.56 64.1557 1396.55 64.1557 Q1394.68 64.1557 1392.8 64.5723 Q1390.95 64.989 1389.01 65.8686 L1389.01 48.5076 Z" fill="#000000" fill-rule="nonzero" fill-opacity="1" /><path clip-path="url(#clip810)" d="M1255.92 220.971 Q1257.73 220.971 1258.76 222.098 Q1259.76 223.225 1259.76 224.513 Q1259.76 225.737 1259.05 226.381 Q1258.34 227.025 1257.44 227.025 Q1256.21 227.025 1255.15 226.123 Q1254.09 225.222 1253.86 223.869 Q1253.02 225.189 1253.02 227.154 Q1253.02 228.442 1253.7 229.569 Q1254.38 230.664 1255.25 231.341 Q1256.12 231.985 1257.37 232.565 Q1258.6 233.112 1259.34 233.338 Q1260.05 233.531 1260.82 233.692 L1269.84 235.946 Q1274.12 237.041 1275.63 237.041 Q1277.5 237.041 1278.76 236.139 Q1279.98 235.238 1279.98 233.434 Q1279.98 232.726 1279.79 231.92 Q1279.56 231.115 1278.98 230.085 Q1278.37 229.022 1277.47 228.088 Q1276.53 227.122 1274.96 226.188 Q1273.38 225.254 1271.35 224.642 Q1270.64 224.449 1270.64 223.805 Q1270.64 222.999 1271.29 222.999 Q1271.83 222.999 1272.99 223.45 Q1274.12 223.869 1275.6 224.803 Q1277.05 225.705 1278.37 226.896 Q1279.66 228.088 1280.56 229.859 Q1281.46 231.631 1281.46 233.563 Q1281.46 236.333 1279.98 238.168 Q1278.5 240.004 1276.44 240.68 Q1276.73 240.842 1277.11 241.067 Q1277.5 241.292 1278.37 241.969 Q1279.21 242.613 1279.85 243.354 Q1280.46 244.094 1280.95 245.254 Q1281.46 246.381 1281.46 247.605 Q1281.46 249.151 1281.01 250.535 Q1280.56 251.888 1279.53 252.854 Q1278.5 253.82 1277.08 253.82 Q1275.5 253.82 1274.41 252.758 Q1273.28 251.663 1273.28 250.181 Q1273.28 249.247 1273.83 248.507 Q1274.38 247.734 1275.57 247.734 Q1276.89 247.734 1277.89 248.635 Q1278.89 249.537 1279.14 250.825 Q1279.98 249.505 1279.98 247.54 Q1279.98 245.415 1278.11 243.74 Q1276.25 242.065 1273.12 241.26 Q1265.62 239.263 1262.27 238.49 Q1258.89 237.718 1257.44 237.718 Q1256.08 237.718 1255.15 238.072 Q1254.22 238.426 1253.8 239.038 Q1253.35 239.618 1253.19 240.165 Q1253.02 240.68 1253.02 241.26 Q1253.02 242.226 1253.41 243.321 Q1253.8 244.384 1254.7 245.672 Q1255.57 246.928 1257.37 248.12 Q1259.18 249.312 1261.66 250.117 Q1262.4 250.278 1262.4 250.986 Q1262.36 251.759 1261.72 251.759 Q1261.17 251.759 1260.05 251.341 Q1258.89 250.89 1257.44 249.988 Q1255.99 249.054 1254.7 247.862 Q1253.38 246.639 1252.48 244.867 Q1251.58 243.064 1251.58 241.131 Q1251.58 240.262 1251.77 239.424 Q1251.93 238.555 1252.41 237.524 Q1252.9 236.462 1253.96 235.528 Q1255.02 234.594 1256.57 234.014 Q1255.83 233.627 1255.12 233.112 Q1254.41 232.565 1253.54 231.727 Q1252.64 230.858 1252.12 229.666 Q1251.58 228.442 1251.58 227.09 Q1251.58 225.769 1251.93 224.481 Q1252.25 223.193 1253.31 222.098 Q1254.35 220.971 1255.92 220.971 Z" fill="#000000" fill-rule="nonzero" fill-opacity="1" /><path clip-path="url(#clip810)" d="M1273.38 214.249 L1271.94 214.249 Q1271.94 208.703 1268.98 205.84 Q1268.98 205.051 1269.16 204.916 Q1269.34 204.781 1270.18 204.781 L1296.08 204.781 Q1297.46 204.781 1297.88 204.104 Q1298.31 203.428 1298.31 200.475 L1298.31 199.009 L1299.73 199.009 Q1299.6 200.633 1299.6 206.494 Q1299.6 212.356 1299.73 213.956 L1298.31 213.956 L1298.31 212.491 Q1298.31 209.583 1297.91 208.884 Q1297.48 208.185 1296.08 208.185 L1272.16 208.185 Q1273.38 210.597 1273.38 214.249 Z" fill="#000000" fill-rule="nonzero" fill-opacity="1" /><polyline clip-path="url(#clip813)" style="stroke:#009af9; stroke-linecap:round; stroke-linejoin:round; stroke-width:4; stroke-opacity:1; fill:none" points="1471.57,388.745 1496.74,360.697 1521.9,297.069 1547.06,223.799 1572.22,158.229 1597.38,109.15 1622.55,78.6602 1647.71,64.644 1672.87,62.97 1698.03,69.0623 1723.2,78.8519 1748.36,89.2448 1773.52,98.25 1798.68,104.883 1823.85,108.942 1849.01,110.744 1874.17,110.867 1899.33,109.949 1924.49,108.559 1949.66,107.12 1974.82,105.899 1999.98,105.02 2025.14,104.499 2050.31,104.284 2075.47,104.293 2100.63,104.434 2125.79,104.633 2150.95,104.832 2176.12,104.998 2201.28,105.114 2226.44,105.181 2251.6,105.206 2276.77,105.202 2301.93,105.18 2327.09,105.152 "/>
<polyline clip-path="url(#clip813)" style="stroke:#e26f46; stroke-linecap:round; stroke-linejoin:round; stroke-width:3; stroke-opacity:1; fill:none" stroke-dasharray="12, 6, 2, 6" points="1471.57,388.745 1496.74,365.189 1521.9,289.353 1547.06,223.602 1572.22,149.421 1597.38,96.8 1622.55,87.2531 1647.71,57.1907 1672.87,68.5557 1698.03,65.4906 1723.2,77.0265 1748.36,100.998 1773.52,107.344 1798.68,114.6 1823.85,106.491 1849.01,115.818 1874.17,116.538 1899.33,109.309 1924.49,96.3139 1949.66,104.402 1974.82,113.593 1999.98,103.674 2025.14,100.378 2050.31,109.605 2075.47,103.646 2100.63,101.445 2125.79,124.658 2150.95,102.855 2176.12,107.661 2201.28,110.333 2226.44,108.424 2251.6,101.336 2276.77,107.753 2301.93,110.747 2327.09,97.621 "/>
<path clip-path="url(#clip810)" d="M2203.01 386.977 L2322.53 386.977 L2322.53 231.457 L2203.01 231.457  Z" fill="#ffffff" fill-rule="evenodd" fill-opacity="1"/>
<polyline clip-path="url(#clip810)" style="stroke:#000000; stroke-linecap:round; stroke-linejoin:round; stroke-width:4; stroke-opacity:1; fill:none" points="2203.01,386.977 2322.53,386.977 2322.53,231.457 2203.01,231.457 2203.01,386.977 "/>
<polyline clip-path="url(#clip810)" style="stroke:#009af9; stroke-linecap:round; stroke-linejoin:round; stroke-width:4; stroke-opacity:1; fill:none" points="2213.09,283.297 2273.55,283.297 "/>
<path clip-path="url(#clip810)" d="M2310.63 293.836 L2305.36 293.695 L2299.6 293.836 L2299.6 291.587 L2301.47 291.587 L2296.2 285.357 L2291.54 290.58 L2291.21 291.049 Q2291.21 291.26 2291.75 291.423 Q2292.31 291.587 2292.97 291.587 L2292.97 293.836 L2288.03 293.695 L2283.62 293.836 L2283.62 291.587 Q2285.1 291.587 2285.78 291.564 Q2286.48 291.517 2287.28 291.306 Q2288.07 291.096 2288.47 290.674 L2294.75 283.624 L2287.28 274.794 L2283.86 274.794 L2283.86 272.545 L2289.15 272.686 L2294.94 272.545 L2294.94 274.794 L2293.01 274.794 L2297.72 280.298 L2301.75 275.801 Q2301.77 275.777 2302.15 275.215 Q2301.4 274.794 2300.32 274.794 L2300.32 272.545 L2305.26 272.686 L2309.67 272.545 L2309.67 274.794 Q2307.75 274.794 2306.74 274.934 Q2305.76 275.051 2305.45 275.215 Q2305.17 275.379 2304.77 275.801 L2299.17 282.031 L2307.23 291.587 L2310.63 291.587 L2310.63 293.836 Z" fill="#000000" fill-rule="nonzero" fill-opacity="1" /><polyline clip-path="url(#clip810)" style="stroke:#e26f46; stroke-linecap:round; stroke-linejoin:round; stroke-width:3; stroke-opacity:1; fill:none" stroke-dasharray="12, 6, 2, 6" points="2213.09,335.137 2273.55,335.137 "/>
<path clip-path="url(#clip810)" d="M2306.21 323.615 L2305.8 324.287 Q2303.26 323.189 2300.09 321.434 Q2296.93 323.189 2294.39 324.287 L2293.99 323.615 Q2296.76 321.205 2300.09 319.352 Q2303.45 321.221 2306.21 323.615 Z" fill="#000000" fill-rule="nonzero" fill-opacity="1" /><path clip-path="url(#clip810)" d="M2310.63 350.681 L2305.36 350.54 L2299.6 350.681 L2299.6 348.432 L2301.47 348.432 L2296.2 342.202 L2291.54 347.425 L2291.21 347.893 Q2291.21 348.104 2291.75 348.268 Q2292.31 348.432 2292.97 348.432 L2292.97 350.681 L2288.03 350.54 L2283.62 350.681 L2283.62 348.432 Q2285.1 348.432 2285.78 348.409 Q2286.48 348.362 2287.28 348.151 Q2288.07 347.94 2288.47 347.519 L2294.75 340.468 L2287.28 331.638 L2283.86 331.638 L2283.86 329.39 L2289.15 329.53 L2294.94 329.39 L2294.94 331.638 L2293.01 331.638 L2297.72 337.142 L2301.75 332.645 Q2301.77 332.622 2302.15 332.06 Q2301.4 331.638 2300.32 331.638 L2300.32 329.39 L2305.26 329.53 L2309.67 329.39 L2309.67 331.638 Q2307.75 331.638 2306.74 331.779 Q2305.76 331.896 2305.45 332.06 Q2305.17 332.224 2304.77 332.645 L2299.17 338.876 L2307.23 348.432 L2310.63 348.432 L2310.63 350.681 Z" fill="#000000" fill-rule="nonzero" fill-opacity="1" /><path clip-path="url(#clip810)" d="M1445.91 910.936 L2352.76 910.936 L2352.76 559.488 L1445.91 559.488  Z" fill="#ffffff" fill-rule="evenodd" fill-opacity="1"/>
<defs>
  <clipPath id="clip814">
    <rect x="1445" y="559" width="908" height="352"/>
  </clipPath>
</defs>
<polyline clip-path="url(#clip814)" style="stroke:#000000; stroke-linecap:round; stroke-linejoin:round; stroke-width:2; stroke-opacity:0.1; fill:none" points="1471.57,910.936 1471.57,559.488 "/>
<polyline clip-path="url(#clip814)" style="stroke:#000000; stroke-linecap:round; stroke-linejoin:round; stroke-width:2; stroke-opacity:0.1; fill:none" points="1723.2,910.936 1723.2,559.488 "/>
<polyline clip-path="url(#clip814)" style="stroke:#000000; stroke-linecap:round; stroke-linejoin:round; stroke-width:2; stroke-opacity:0.1; fill:none" points="1974.82,910.936 1974.82,559.488 "/>
<polyline clip-path="url(#clip814)" style="stroke:#000000; stroke-linecap:round; stroke-linejoin:round; stroke-width:2; stroke-opacity:0.1; fill:none" points="2226.44,910.936 2226.44,559.488 "/>
<polyline clip-path="url(#clip810)" style="stroke:#000000; stroke-linecap:round; stroke-linejoin:round; stroke-width:4; stroke-opacity:1; fill:none" points="1445.91,910.936 2352.76,910.936 "/>
<polyline clip-path="url(#clip810)" style="stroke:#000000; stroke-linecap:round; stroke-linejoin:round; stroke-width:4; stroke-opacity:1; fill:none" points="1471.57,910.936 1471.57,892.038 "/>
<polyline clip-path="url(#clip810)" style="stroke:#000000; stroke-linecap:round; stroke-linejoin:round; stroke-width:4; stroke-opacity:1; fill:none" points="1723.2,910.936 1723.2,892.038 "/>
<polyline clip-path="url(#clip810)" style="stroke:#000000; stroke-linecap:round; stroke-linejoin:round; stroke-width:4; stroke-opacity:1; fill:none" points="1974.82,910.936 1974.82,892.038 "/>
<polyline clip-path="url(#clip810)" style="stroke:#000000; stroke-linecap:round; stroke-linejoin:round; stroke-width:4; stroke-opacity:1; fill:none" points="2226.44,910.936 2226.44,892.038 "/>
<path clip-path="url(#clip810)" d="M1471.57 941.855 Q1467.96 941.855 1466.13 945.419 Q1464.33 948.961 1464.33 956.091 Q1464.33 963.197 1466.13 966.762 Q1467.96 970.303 1471.57 970.303 Q1475.21 970.303 1477.01 966.762 Q1478.84 963.197 1478.84 956.091 Q1478.84 948.961 1477.01 945.419 Q1475.21 941.855 1471.57 941.855 M1471.57 938.151 Q1477.38 938.151 1480.44 942.757 Q1483.52 947.341 1483.52 956.091 Q1483.52 964.817 1480.44 969.424 Q1477.38 974.007 1471.57 974.007 Q1465.76 974.007 1462.68 969.424 Q1459.63 964.817 1459.63 956.091 Q1459.63 947.341 1462.68 942.757 Q1465.76 938.151 1471.57 938.151 Z" fill="#000000" fill-rule="nonzero" fill-opacity="1" /><path clip-path="url(#clip810)" d="M1713.58 969.401 L1721.22 969.401 L1721.22 943.035 L1712.91 944.702 L1712.91 940.443 L1721.17 938.776 L1725.85 938.776 L1725.85 969.401 L1733.49 969.401 L1733.49 973.336 L1713.58 973.336 L1713.58 969.401 Z" fill="#000000" fill-rule="nonzero" fill-opacity="1" /><path clip-path="url(#clip810)" d="M1969.47 969.401 L1985.79 969.401 L1985.79 973.336 L1963.85 973.336 L1963.85 969.401 Q1966.51 966.646 1971.09 962.016 Q1975.7 957.364 1976.88 956.021 Q1979.12 953.498 1980 951.762 Q1980.91 950.003 1980.91 948.313 Q1980.91 945.558 1978.96 943.822 Q1977.04 942.086 1973.94 942.086 Q1971.74 942.086 1969.29 942.85 Q1966.86 943.614 1964.08 945.165 L1964.08 940.443 Q1966.9 939.308 1969.36 938.73 Q1971.81 938.151 1973.85 938.151 Q1979.22 938.151 1982.41 940.836 Q1985.61 943.521 1985.61 948.012 Q1985.61 950.142 1984.8 952.063 Q1984.01 953.961 1981.9 956.554 Q1981.32 957.225 1978.22 960.442 Q1975.12 963.637 1969.47 969.401 Z" fill="#000000" fill-rule="nonzero" fill-opacity="1" /><path clip-path="url(#clip810)" d="M2230.69 954.702 Q2234.05 955.419 2235.92 957.688 Q2237.82 959.956 2237.82 963.29 Q2237.82 968.405 2234.3 971.206 Q2230.78 974.007 2224.3 974.007 Q2222.12 974.007 2219.81 973.567 Q2217.52 973.151 2215.06 972.294 L2215.06 967.78 Q2217.01 968.915 2219.32 969.493 Q2221.64 970.072 2224.16 970.072 Q2228.56 970.072 2230.85 968.336 Q2233.17 966.6 2233.17 963.29 Q2233.17 960.234 2231.01 958.521 Q2228.88 956.785 2225.06 956.785 L2221.04 956.785 L2221.04 952.942 L2225.25 952.942 Q2228.7 952.942 2230.53 951.577 Q2232.36 950.188 2232.36 947.595 Q2232.36 944.933 2230.46 943.521 Q2228.58 942.086 2225.06 942.086 Q2223.14 942.086 2220.94 942.503 Q2218.74 942.919 2216.11 943.799 L2216.11 939.632 Q2218.77 938.892 2221.08 938.521 Q2223.42 938.151 2225.48 938.151 Q2230.8 938.151 2233.91 940.581 Q2237.01 942.989 2237.01 947.109 Q2237.01 949.979 2235.36 951.97 Q2233.72 953.938 2230.69 954.702 Z" fill="#000000" fill-rule="nonzero" fill-opacity="1" /><polyline clip-path="url(#clip814)" style="stroke:#000000; stroke-linecap:round; stroke-linejoin:round; stroke-width:2; stroke-opacity:0.1; fill:none" points="1445.91,886.517 2352.76,886.517 "/>
<polyline clip-path="url(#clip814)" style="stroke:#000000; stroke-linecap:round; stroke-linejoin:round; stroke-width:2; stroke-opacity:0.1; fill:none" points="1445.91,844.067 2352.76,844.067 "/>
<polyline clip-path="url(#clip814)" style="stroke:#000000; stroke-linecap:round; stroke-linejoin:round; stroke-width:2; stroke-opacity:0.1; fill:none" points="1445.91,801.617 2352.76,801.617 "/>
<polyline clip-path="url(#clip814)" style="stroke:#000000; stroke-linecap:round; stroke-linejoin:round; stroke-width:2; stroke-opacity:0.1; fill:none" points="1445.91,759.167 2352.76,759.167 "/>
<polyline clip-path="url(#clip814)" style="stroke:#000000; stroke-linecap:round; stroke-linejoin:round; stroke-width:2; stroke-opacity:0.1; fill:none" points="1445.91,716.717 2352.76,716.717 "/>
<polyline clip-path="url(#clip814)" style="stroke:#000000; stroke-linecap:round; stroke-linejoin:round; stroke-width:2; stroke-opacity:0.1; fill:none" points="1445.91,674.267 2352.76,674.267 "/>
<polyline clip-path="url(#clip814)" style="stroke:#000000; stroke-linecap:round; stroke-linejoin:round; stroke-width:2; stroke-opacity:0.1; fill:none" points="1445.91,631.817 2352.76,631.817 "/>
<polyline clip-path="url(#clip814)" style="stroke:#000000; stroke-linecap:round; stroke-linejoin:round; stroke-width:2; stroke-opacity:0.1; fill:none" points="1445.91,589.367 2352.76,589.367 "/>
<polyline clip-path="url(#clip810)" style="stroke:#000000; stroke-linecap:round; stroke-linejoin:round; stroke-width:4; stroke-opacity:1; fill:none" points="1445.91,910.936 1445.91,559.488 "/>
<polyline clip-path="url(#clip810)" style="stroke:#000000; stroke-linecap:round; stroke-linejoin:round; stroke-width:4; stroke-opacity:1; fill:none" points="1445.91,886.517 1464.81,886.517 "/>
<polyline clip-path="url(#clip810)" style="stroke:#000000; stroke-linecap:round; stroke-linejoin:round; stroke-width:4; stroke-opacity:1; fill:none" points="1445.91,844.067 1464.81,844.067 "/>
<polyline clip-path="url(#clip810)" style="stroke:#000000; stroke-linecap:round; stroke-linejoin:round; stroke-width:4; stroke-opacity:1; fill:none" points="1445.91,801.617 1464.81,801.617 "/>
<polyline clip-path="url(#clip810)" style="stroke:#000000; stroke-linecap:round; stroke-linejoin:round; stroke-width:4; stroke-opacity:1; fill:none" points="1445.91,759.167 1464.81,759.167 "/>
<polyline clip-path="url(#clip810)" style="stroke:#000000; stroke-linecap:round; stroke-linejoin:round; stroke-width:4; stroke-opacity:1; fill:none" points="1445.91,716.717 1464.81,716.717 "/>
<polyline clip-path="url(#clip810)" style="stroke:#000000; stroke-linecap:round; stroke-linejoin:round; stroke-width:4; stroke-opacity:1; fill:none" points="1445.91,674.267 1464.81,674.267 "/>
<polyline clip-path="url(#clip810)" style="stroke:#000000; stroke-linecap:round; stroke-linejoin:round; stroke-width:4; stroke-opacity:1; fill:none" points="1445.91,631.817 1464.81,631.817 "/>
<polyline clip-path="url(#clip810)" style="stroke:#000000; stroke-linecap:round; stroke-linejoin:round; stroke-width:4; stroke-opacity:1; fill:none" points="1445.91,589.367 1464.81,589.367 "/>
<path clip-path="url(#clip810)" d="M1304.56 886.969 L1334.24 886.969 L1334.24 890.904 L1304.56 890.904 L1304.56 886.969 Z" fill="#000000" fill-rule="nonzero" fill-opacity="1" /><path clip-path="url(#clip810)" d="M1354.33 872.316 Q1350.72 872.316 1348.89 875.881 Q1347.08 879.423 1347.08 886.552 Q1347.08 893.659 1348.89 897.223 Q1350.72 900.765 1354.33 900.765 Q1357.96 900.765 1359.77 897.223 Q1361.6 893.659 1361.6 886.552 Q1361.6 879.423 1359.77 875.881 Q1357.96 872.316 1354.33 872.316 M1354.33 868.612 Q1360.14 868.612 1363.2 873.219 Q1366.27 877.802 1366.27 886.552 Q1366.27 895.279 1363.2 899.885 Q1360.14 904.469 1354.33 904.469 Q1348.52 904.469 1345.44 899.885 Q1342.39 895.279 1342.39 886.552 Q1342.39 877.802 1345.44 873.219 Q1348.52 868.612 1354.33 868.612 Z" fill="#000000" fill-rule="nonzero" fill-opacity="1" /><path clip-path="url(#clip810)" d="M1374.49 897.918 L1379.38 897.918 L1379.38 903.797 L1374.49 903.797 L1374.49 897.918 Z" fill="#000000" fill-rule="nonzero" fill-opacity="1" /><path clip-path="url(#clip810)" d="M1393.59 899.862 L1409.91 899.862 L1409.91 903.797 L1387.96 903.797 L1387.96 899.862 Q1390.63 897.108 1395.21 892.478 Q1399.82 887.825 1401 886.483 Q1403.24 883.96 1404.12 882.223 Q1405.02 880.464 1405.02 878.774 Q1405.02 876.02 1403.08 874.284 Q1401.16 872.548 1398.06 872.548 Q1395.86 872.548 1393.4 873.312 Q1390.97 874.075 1388.19 875.626 L1388.19 870.904 Q1391.02 869.77 1393.47 869.191 Q1395.93 868.612 1397.96 868.612 Q1403.33 868.612 1406.53 871.298 Q1409.72 873.983 1409.72 878.474 Q1409.72 880.603 1408.91 882.524 Q1408.13 884.423 1406.02 887.015 Q1405.44 887.686 1402.34 890.904 Q1399.24 894.098 1393.59 899.862 Z" fill="#000000" fill-rule="nonzero" fill-opacity="1" /><path clip-path="url(#clip810)" d="M1352.73 829.866 Q1349.12 829.866 1347.29 833.431 Q1345.49 836.972 1345.49 844.102 Q1345.49 851.209 1347.29 854.773 Q1349.12 858.315 1352.73 858.315 Q1356.37 858.315 1358.17 854.773 Q1360 851.209 1360 844.102 Q1360 836.972 1358.17 833.431 Q1356.37 829.866 1352.73 829.866 M1352.73 826.162 Q1358.54 826.162 1361.6 830.769 Q1364.68 835.352 1364.68 844.102 Q1364.68 852.829 1361.6 857.435 Q1358.54 862.019 1352.73 862.019 Q1346.92 862.019 1343.84 857.435 Q1340.79 852.829 1340.79 844.102 Q1340.79 835.352 1343.84 830.769 Q1346.92 826.162 1352.73 826.162 Z" fill="#000000" fill-rule="nonzero" fill-opacity="1" /><path clip-path="url(#clip810)" d="M1372.89 855.468 L1377.78 855.468 L1377.78 861.347 L1372.89 861.347 L1372.89 855.468 Z" fill="#000000" fill-rule="nonzero" fill-opacity="1" /><path clip-path="url(#clip810)" d="M1397.96 829.866 Q1394.35 829.866 1392.52 833.431 Q1390.72 836.972 1390.72 844.102 Q1390.72 851.209 1392.52 854.773 Q1394.35 858.315 1397.96 858.315 Q1401.6 858.315 1403.4 854.773 Q1405.23 851.209 1405.23 844.102 Q1405.23 836.972 1403.4 833.431 Q1401.6 829.866 1397.96 829.866 M1397.96 826.162 Q1403.77 826.162 1406.83 830.769 Q1409.91 835.352 1409.91 844.102 Q1409.91 852.829 1406.83 857.435 Q1403.77 862.019 1397.96 862.019 Q1392.15 862.019 1389.07 857.435 Q1386.02 852.829 1386.02 844.102 Q1386.02 835.352 1389.07 830.769 Q1392.15 826.162 1397.96 826.162 Z" fill="#000000" fill-rule="nonzero" fill-opacity="1" /><path clip-path="url(#clip810)" d="M1354.33 787.416 Q1350.72 787.416 1348.89 790.981 Q1347.08 794.522 1347.08 801.652 Q1347.08 808.758 1348.89 812.323 Q1350.72 815.865 1354.33 815.865 Q1357.96 815.865 1359.77 812.323 Q1361.6 808.758 1361.6 801.652 Q1361.6 794.522 1359.77 790.981 Q1357.96 787.416 1354.33 787.416 M1354.33 783.712 Q1360.14 783.712 1363.2 788.319 Q1366.27 792.902 1366.27 801.652 Q1366.27 810.379 1363.2 814.985 Q1360.14 819.569 1354.33 819.569 Q1348.52 819.569 1345.44 814.985 Q1342.39 810.379 1342.39 801.652 Q1342.39 792.902 1345.44 788.319 Q1348.52 783.712 1354.33 783.712 Z" fill="#000000" fill-rule="nonzero" fill-opacity="1" /><path clip-path="url(#clip810)" d="M1374.49 813.018 L1379.38 813.018 L1379.38 818.897 L1374.49 818.897 L1374.49 813.018 Z" fill="#000000" fill-rule="nonzero" fill-opacity="1" /><path clip-path="url(#clip810)" d="M1393.59 814.962 L1409.91 814.962 L1409.91 818.897 L1387.96 818.897 L1387.96 814.962 Q1390.63 812.208 1395.21 807.578 Q1399.82 802.925 1401 801.583 Q1403.24 799.059 1404.12 797.323 Q1405.02 795.564 1405.02 793.874 Q1405.02 791.12 1403.08 789.384 Q1401.16 787.647 1398.06 787.647 Q1395.86 787.647 1393.4 788.411 Q1390.97 789.175 1388.19 790.726 L1388.19 786.004 Q1391.02 784.87 1393.47 784.291 Q1395.93 783.712 1397.96 783.712 Q1403.33 783.712 1406.53 786.397 Q1409.72 789.083 1409.72 793.573 Q1409.72 795.703 1408.91 797.624 Q1408.13 799.522 1406.02 802.115 Q1405.44 802.786 1402.34 806.004 Q1399.24 809.198 1393.59 814.962 Z" fill="#000000" fill-rule="nonzero" fill-opacity="1" /><path clip-path="url(#clip810)" d="M1352.25 744.966 Q1348.63 744.966 1346.81 748.531 Q1345 752.072 1345 759.202 Q1345 766.308 1346.81 769.873 Q1348.63 773.415 1352.25 773.415 Q1355.88 773.415 1357.69 769.873 Q1359.51 766.308 1359.51 759.202 Q1359.51 752.072 1357.69 748.531 Q1355.88 744.966 1352.25 744.966 M1352.25 741.262 Q1358.06 741.262 1361.11 745.869 Q1364.19 750.452 1364.19 759.202 Q1364.19 767.929 1361.11 772.535 Q1358.06 777.118 1352.25 777.118 Q1346.44 777.118 1343.36 772.535 Q1340.3 767.929 1340.3 759.202 Q1340.3 750.452 1343.36 745.869 Q1346.44 741.262 1352.25 741.262 Z" fill="#000000" fill-rule="nonzero" fill-opacity="1" /><path clip-path="url(#clip810)" d="M1372.41 770.568 L1377.29 770.568 L1377.29 776.447 L1372.41 776.447 L1372.41 770.568 Z" fill="#000000" fill-rule="nonzero" fill-opacity="1" /><path clip-path="url(#clip810)" d="M1400.32 745.961 L1388.52 764.41 L1400.32 764.41 L1400.32 745.961 M1399.1 741.887 L1404.98 741.887 L1404.98 764.41 L1409.91 764.41 L1409.91 768.299 L1404.98 768.299 L1404.98 776.447 L1400.32 776.447 L1400.32 768.299 L1384.72 768.299 L1384.72 763.785 L1399.1 741.887 Z" fill="#000000" fill-rule="nonzero" fill-opacity="1" /><path clip-path="url(#clip810)" d="M1352.57 702.516 Q1348.96 702.516 1347.13 706.081 Q1345.32 709.622 1345.32 716.752 Q1345.32 723.858 1347.13 727.423 Q1348.96 730.965 1352.57 730.965 Q1356.2 730.965 1358.01 727.423 Q1359.84 723.858 1359.84 716.752 Q1359.84 709.622 1358.01 706.081 Q1356.2 702.516 1352.57 702.516 M1352.57 698.812 Q1358.38 698.812 1361.44 703.419 Q1364.51 708.002 1364.51 716.752 Q1364.51 725.479 1361.44 730.085 Q1358.38 734.668 1352.57 734.668 Q1346.76 734.668 1343.68 730.085 Q1340.63 725.479 1340.63 716.752 Q1340.63 708.002 1343.68 703.419 Q1346.76 698.812 1352.57 698.812 Z" fill="#000000" fill-rule="nonzero" fill-opacity="1" /><path clip-path="url(#clip810)" d="M1372.73 728.118 L1377.62 728.118 L1377.62 733.997 L1372.73 733.997 L1372.73 728.118 Z" fill="#000000" fill-rule="nonzero" fill-opacity="1" /><path clip-path="url(#clip810)" d="M1398.38 714.854 Q1395.23 714.854 1393.38 717.006 Q1391.55 719.159 1391.55 722.909 Q1391.55 726.636 1393.38 728.812 Q1395.23 730.965 1398.38 730.965 Q1401.53 730.965 1403.36 728.812 Q1405.21 726.636 1405.21 722.909 Q1405.21 719.159 1403.36 717.006 Q1401.53 714.854 1398.38 714.854 M1407.66 700.201 L1407.66 704.46 Q1405.9 703.627 1404.1 703.187 Q1402.32 702.747 1400.56 702.747 Q1395.93 702.747 1393.47 705.872 Q1391.04 708.997 1390.69 715.317 Q1392.06 713.303 1394.12 712.238 Q1396.18 711.15 1398.66 711.15 Q1403.87 711.15 1406.88 714.321 Q1409.91 717.469 1409.91 722.909 Q1409.91 728.233 1406.76 731.451 Q1403.61 734.668 1398.38 734.668 Q1392.38 734.668 1389.21 730.085 Q1386.04 725.479 1386.04 716.752 Q1386.04 708.557 1389.93 703.696 Q1393.82 698.812 1400.37 698.812 Q1402.13 698.812 1403.91 699.159 Q1405.72 699.507 1407.66 700.201 Z" fill="#000000" fill-rule="nonzero" fill-opacity="1" /><path clip-path="url(#clip810)" d="M1352.82 660.066 Q1349.21 660.066 1347.38 663.63 Q1345.58 667.172 1345.58 674.302 Q1345.58 681.408 1347.38 684.973 Q1349.21 688.515 1352.82 688.515 Q1356.46 688.515 1358.26 684.973 Q1360.09 681.408 1360.09 674.302 Q1360.09 667.172 1358.26 663.63 Q1356.46 660.066 1352.82 660.066 M1352.82 656.362 Q1358.63 656.362 1361.69 660.968 Q1364.77 665.552 1364.77 674.302 Q1364.77 683.029 1361.69 687.635 Q1358.63 692.218 1352.82 692.218 Q1347.01 692.218 1343.94 687.635 Q1340.88 683.029 1340.88 674.302 Q1340.88 665.552 1343.94 660.968 Q1347.01 656.362 1352.82 656.362 Z" fill="#000000" fill-rule="nonzero" fill-opacity="1" /><path clip-path="url(#clip810)" d="M1372.99 685.667 L1377.87 685.667 L1377.87 691.547 L1372.99 691.547 L1372.99 685.667 Z" fill="#000000" fill-rule="nonzero" fill-opacity="1" /><path clip-path="url(#clip810)" d="M1398.06 675.135 Q1394.72 675.135 1392.8 676.917 Q1390.9 678.7 1390.9 681.825 Q1390.9 684.95 1392.8 686.732 Q1394.72 688.515 1398.06 688.515 Q1401.39 688.515 1403.31 686.732 Q1405.23 684.927 1405.23 681.825 Q1405.23 678.7 1403.31 676.917 Q1401.41 675.135 1398.06 675.135 M1393.38 673.144 Q1390.37 672.404 1388.68 670.343 Q1387.01 668.283 1387.01 665.32 Q1387.01 661.177 1389.95 658.769 Q1392.92 656.362 1398.06 656.362 Q1403.22 656.362 1406.16 658.769 Q1409.1 661.177 1409.1 665.32 Q1409.1 668.283 1407.41 670.343 Q1405.74 672.404 1402.76 673.144 Q1406.13 673.931 1408.01 676.223 Q1409.91 678.515 1409.91 681.825 Q1409.91 686.848 1406.83 689.533 Q1403.77 692.218 1398.06 692.218 Q1392.34 692.218 1389.26 689.533 Q1386.2 686.848 1386.2 681.825 Q1386.2 678.515 1388.1 676.223 Q1390 673.931 1393.38 673.144 M1391.67 665.76 Q1391.67 668.445 1393.33 669.95 Q1395.02 671.455 1398.06 671.455 Q1401.07 671.455 1402.76 669.95 Q1404.47 668.445 1404.47 665.76 Q1404.47 663.075 1402.76 661.57 Q1401.07 660.066 1398.06 660.066 Q1395.02 660.066 1393.33 661.57 Q1391.67 663.075 1391.67 665.76 Z" fill="#000000" fill-rule="nonzero" fill-opacity="1" /><path clip-path="url(#clip810)" d="M1343.54 645.162 L1351.18 645.162 L1351.18 618.796 L1342.87 620.463 L1342.87 616.204 L1351.13 614.537 L1355.81 614.537 L1355.81 645.162 L1363.45 645.162 L1363.45 649.097 L1343.54 649.097 L1343.54 645.162 Z" fill="#000000" fill-rule="nonzero" fill-opacity="1" /><path clip-path="url(#clip810)" d="M1372.89 643.217 L1377.78 643.217 L1377.78 649.097 L1372.89 649.097 L1372.89 643.217 Z" fill="#000000" fill-rule="nonzero" fill-opacity="1" /><path clip-path="url(#clip810)" d="M1397.96 617.616 Q1394.35 617.616 1392.52 621.18 Q1390.72 624.722 1390.72 631.852 Q1390.72 638.958 1392.52 642.523 Q1394.35 646.065 1397.96 646.065 Q1401.6 646.065 1403.4 642.523 Q1405.23 638.958 1405.23 631.852 Q1405.23 624.722 1403.4 621.18 Q1401.6 617.616 1397.96 617.616 M1397.96 613.912 Q1403.77 613.912 1406.83 618.518 Q1409.91 623.102 1409.91 631.852 Q1409.91 640.578 1406.83 645.185 Q1403.77 649.768 1397.96 649.768 Q1392.15 649.768 1389.07 645.185 Q1386.02 640.578 1386.02 631.852 Q1386.02 623.102 1389.07 618.518 Q1392.15 613.912 1397.96 613.912 Z" fill="#000000" fill-rule="nonzero" fill-opacity="1" /><path clip-path="url(#clip810)" d="M1345.14 602.712 L1352.78 602.712 L1352.78 576.346 L1344.47 578.013 L1344.47 573.753 L1352.73 572.087 L1357.41 572.087 L1357.41 602.712 L1365.05 602.712 L1365.05 606.647 L1345.14 606.647 L1345.14 602.712 Z" fill="#000000" fill-rule="nonzero" fill-opacity="1" /><path clip-path="url(#clip810)" d="M1374.49 600.767 L1379.38 600.767 L1379.38 606.647 L1374.49 606.647 L1374.49 600.767 Z" fill="#000000" fill-rule="nonzero" fill-opacity="1" /><path clip-path="url(#clip810)" d="M1393.59 602.712 L1409.91 602.712 L1409.91 606.647 L1387.96 606.647 L1387.96 602.712 Q1390.63 599.957 1395.21 595.327 Q1399.82 590.675 1401 589.332 Q1403.24 586.809 1404.12 585.073 Q1405.02 583.314 1405.02 581.624 Q1405.02 578.869 1403.08 577.133 Q1401.16 575.397 1398.06 575.397 Q1395.86 575.397 1393.4 576.161 Q1390.97 576.925 1388.19 578.476 L1388.19 573.753 Q1391.02 572.619 1393.47 572.041 Q1395.93 571.462 1397.96 571.462 Q1403.33 571.462 1406.53 574.147 Q1409.72 576.832 1409.72 581.323 Q1409.72 583.453 1408.91 585.374 Q1408.13 587.272 1406.02 589.865 Q1405.44 590.536 1402.34 593.753 Q1399.24 596.948 1393.59 602.712 Z" fill="#000000" fill-rule="nonzero" fill-opacity="1" /><path clip-path="url(#clip810)" d="M1220.18 734.795 Q1221.99 734.795 1223.02 735.922 Q1224.02 737.049 1224.02 738.338 Q1224.02 739.561 1223.31 740.206 Q1222.6 740.85 1221.7 740.85 Q1220.47 740.85 1219.41 739.948 Q1218.35 739.046 1218.12 737.693 Q1217.28 739.014 1217.28 740.978 Q1217.28 742.267 1217.96 743.394 Q1218.64 744.489 1219.51 745.165 Q1220.38 745.809 1221.63 746.389 Q1222.86 746.937 1223.6 747.162 Q1224.31 747.355 1225.08 747.516 L1234.1 749.771 Q1238.38 750.866 1239.89 750.866 Q1241.76 750.866 1243.02 749.964 Q1244.24 749.062 1244.24 747.259 Q1244.24 746.55 1244.05 745.745 Q1243.82 744.94 1243.24 743.909 Q1242.63 742.846 1241.73 741.912 Q1240.79 740.946 1239.22 740.012 Q1237.64 739.078 1235.61 738.466 Q1234.9 738.273 1234.9 737.629 Q1234.9 736.824 1235.54 736.824 Q1236.09 736.824 1237.25 737.275 Q1238.38 737.693 1239.86 738.627 Q1241.31 739.529 1242.63 740.721 Q1243.92 741.912 1244.82 743.684 Q1245.72 745.455 1245.72 747.387 Q1245.72 750.157 1244.24 751.993 Q1242.76 753.829 1240.7 754.505 Q1240.99 754.666 1241.37 754.891 Q1241.76 755.117 1242.63 755.793 Q1243.47 756.437 1244.11 757.178 Q1244.72 757.919 1245.21 759.078 Q1245.72 760.205 1245.72 761.429 Q1245.72 762.975 1245.27 764.36 Q1244.82 765.713 1243.79 766.679 Q1242.76 767.645 1241.34 767.645 Q1239.76 767.645 1238.67 766.582 Q1237.54 765.487 1237.54 764.006 Q1237.54 763.072 1238.09 762.331 Q1238.64 761.558 1239.83 761.558 Q1241.15 761.558 1242.15 762.46 Q1243.15 763.362 1243.4 764.65 Q1244.24 763.329 1244.24 761.365 Q1244.24 759.239 1242.37 757.565 Q1240.5 755.89 1237.38 755.085 Q1229.88 753.088 1226.53 752.315 Q1223.15 751.542 1221.7 751.542 Q1220.34 751.542 1219.41 751.896 Q1218.48 752.251 1218.06 752.862 Q1217.61 753.442 1217.45 753.99 Q1217.28 754.505 1217.28 755.085 Q1217.28 756.051 1217.67 757.146 Q1218.06 758.209 1218.96 759.497 Q1219.83 760.753 1221.63 761.944 Q1223.44 763.136 1225.92 763.941 Q1226.66 764.102 1226.66 764.811 Q1226.62 765.584 1225.98 765.584 Q1225.43 765.584 1224.31 765.165 Q1223.15 764.714 1221.7 763.812 Q1220.25 762.878 1218.96 761.687 Q1217.64 760.463 1216.74 758.692 Q1215.83 756.888 1215.83 754.956 Q1215.83 754.086 1216.03 753.249 Q1216.19 752.379 1216.67 751.349 Q1217.16 750.286 1218.22 749.352 Q1219.28 748.418 1220.83 747.838 Q1220.09 747.452 1219.38 746.937 Q1218.67 746.389 1217.8 745.552 Q1216.9 744.682 1216.38 743.491 Q1215.83 742.267 1215.83 740.914 Q1215.83 739.594 1216.19 738.305 Q1216.51 737.017 1217.57 735.922 Q1218.6 734.795 1220.18 734.795 Z" fill="#000000" fill-rule="nonzero" fill-opacity="1" /><path clip-path="url(#clip810)" d="M1263.99 728.074 Q1263.16 728.074 1262.91 728.006 Q1262.66 727.916 1262.28 727.555 L1252.4 718.695 Q1246.95 713.848 1242.19 713.848 Q1239.1 713.848 1236.89 715.472 Q1234.68 717.072 1234.68 720.025 Q1234.68 722.054 1235.92 723.768 Q1237.16 725.481 1239.37 726.27 Q1239.33 726.135 1239.33 725.661 Q1239.33 724.512 1240.05 723.88 Q1240.77 723.227 1241.74 723.227 Q1242.98 723.227 1243.59 724.038 Q1244.18 724.827 1244.18 725.616 Q1244.18 725.932 1244.11 726.36 Q1244.04 726.766 1243.41 727.42 Q1242.76 728.074 1241.61 728.074 Q1238.38 728.074 1235.81 725.639 Q1233.24 723.182 1233.24 719.439 Q1233.24 715.201 1235.77 712.428 Q1238.27 709.633 1242.19 709.633 Q1243.57 709.633 1244.83 710.061 Q1246.07 710.467 1247.04 711.03 Q1248.01 711.571 1249.56 713.059 Q1251.12 714.547 1252.22 715.742 Q1253.33 716.937 1255.67 719.62 L1260.43 724.512 L1260.43 716.193 Q1260.43 712.135 1260.07 711.819 Q1259.42 711.369 1255.97 710.805 L1255.97 709.633 L1263.99 710.94 L1263.99 728.074 Z" fill="#000000" fill-rule="nonzero" fill-opacity="1" /><polyline clip-path="url(#clip814)" style="stroke:#009af9; stroke-linecap:round; stroke-linejoin:round; stroke-width:4; stroke-opacity:1; fill:none" points="1471.57,844.067 1496.74,676.956 1521.9,607.065 1547.06,608.918 1572.22,653.018 1597.38,713.666 1622.55,772.918 1647.71,820.851 1672.87,853.797 1698.03,872.169 1723.2,878.625 1748.36,876.733 1773.52,870.05 1798.68,861.566 1823.85,853.42 1849.01,846.872 1874.17,842.416 1899.33,839.997 1924.49,839.229 1949.66,839.594 1974.82,840.584 1999.98,841.782 2025.14,842.9 2050.31,843.779 2075.47,844.361 2100.63,844.664 2125.79,844.746 2150.95,844.679 2176.12,844.534 2201.28,844.366 2226.44,844.213 2251.6,844.095 2276.77,844.019 2301.93,843.981 2327.09,843.973 "/>
<polyline clip-path="url(#clip814)" style="stroke:#e26f46; stroke-linecap:round; stroke-linejoin:round; stroke-width:3; stroke-opacity:1; fill:none" stroke-dasharray="12, 6, 2, 6" points="1471.57,844.067 1496.74,665.274 1521.9,569.435 1547.06,594.716 1572.22,634.282 1597.38,704.078 1622.55,789.527 1647.71,828.692 1672.87,876.592 1698.03,889.485 1723.2,898.623 1748.36,900.989 1773.52,884.126 1798.68,869.951 1823.85,851.772 1849.01,849.98 1874.17,843.003 1899.33,835.946 1924.49,832.006 1949.66,842.452 1974.82,847.124 1999.98,839.601 2025.14,840.687 2050.31,847.47 2075.47,842.656 2100.63,842.921 2125.79,854.12 2150.95,835.945 2176.12,842.283 2201.28,844.062 2226.44,842.598 2251.6,840.177 2276.77,846.265 2301.93,846.634 2327.09,839.27 "/>
<path clip-path="url(#clip810)" d="M2203.01 726.723 L2322.53 726.723 L2322.53 571.203 L2203.01 571.203  Z" fill="#ffffff" fill-rule="evenodd" fill-opacity="1"/>
<polyline clip-path="url(#clip810)" style="stroke:#000000; stroke-linecap:round; stroke-linejoin:round; stroke-width:4; stroke-opacity:1; fill:none" points="2203.01,726.723 2322.53,726.723 2322.53,571.203 2203.01,571.203 2203.01,726.723 "/>
<polyline clip-path="url(#clip810)" style="stroke:#009af9; stroke-linecap:round; stroke-linejoin:round; stroke-width:4; stroke-opacity:1; fill:none" points="2213.09,623.043 2273.55,623.043 "/>
<path clip-path="url(#clip810)" d="M2310.63 633.582 L2305.36 633.442 L2299.6 633.582 L2299.6 631.334 L2301.47 631.334 L2296.2 625.103 L2291.54 630.326 L2291.21 630.795 Q2291.21 631.006 2291.75 631.17 Q2292.31 631.334 2292.97 631.334 L2292.97 633.582 L2288.03 633.442 L2283.62 633.582 L2283.62 631.334 Q2285.1 631.334 2285.78 631.31 Q2286.48 631.263 2287.28 631.052 Q2288.07 630.842 2288.47 630.42 L2294.75 623.37 L2287.28 614.54 L2283.86 614.54 L2283.86 612.291 L2289.15 612.432 L2294.94 612.291 L2294.94 614.54 L2293.01 614.54 L2297.72 620.044 L2301.75 615.547 Q2301.77 615.523 2302.15 614.961 Q2301.4 614.54 2300.32 614.54 L2300.32 612.291 L2305.26 612.432 L2309.67 612.291 L2309.67 614.54 Q2307.75 614.54 2306.74 614.68 Q2305.76 614.797 2305.45 614.961 Q2305.17 615.125 2304.77 615.547 L2299.17 621.777 L2307.23 631.334 L2310.63 631.334 L2310.63 633.582 Z" fill="#000000" fill-rule="nonzero" fill-opacity="1" /><polyline clip-path="url(#clip810)" style="stroke:#e26f46; stroke-linecap:round; stroke-linejoin:round; stroke-width:3; stroke-opacity:1; fill:none" stroke-dasharray="12, 6, 2, 6" points="2213.09,674.883 2273.55,674.883 "/>
<path clip-path="url(#clip810)" d="M2306.21 663.361 L2305.8 664.033 Q2303.26 662.935 2300.09 661.18 Q2296.93 662.935 2294.39 664.033 L2293.99 663.361 Q2296.76 660.951 2300.09 659.098 Q2303.45 660.967 2306.21 663.361 Z" fill="#000000" fill-rule="nonzero" fill-opacity="1" /><path clip-path="url(#clip810)" d="M2310.63 690.427 L2305.36 690.286 L2299.6 690.427 L2299.6 688.178 L2301.47 688.178 L2296.2 681.948 L2291.54 687.171 L2291.21 687.639 Q2291.21 687.85 2291.75 688.014 Q2292.31 688.178 2292.97 688.178 L2292.97 690.427 L2288.03 690.286 L2283.62 690.427 L2283.62 688.178 Q2285.1 688.178 2285.78 688.155 Q2286.48 688.108 2287.28 687.897 Q2288.07 687.686 2288.47 687.265 L2294.75 680.214 L2287.28 671.384 L2283.86 671.384 L2283.86 669.136 L2289.15 669.276 L2294.94 669.136 L2294.94 671.384 L2293.01 671.384 L2297.72 676.888 L2301.75 672.391 Q2301.77 672.368 2302.15 671.806 Q2301.4 671.384 2300.32 671.384 L2300.32 669.136 L2305.26 669.276 L2309.67 669.136 L2309.67 671.384 Q2307.75 671.384 2306.74 671.525 Q2305.76 671.642 2305.45 671.806 Q2305.17 671.97 2304.77 672.391 L2299.17 678.622 L2307.23 688.178 L2310.63 688.178 L2310.63 690.427 Z" fill="#000000" fill-rule="nonzero" fill-opacity="1" /><path clip-path="url(#clip810)" d="M1445.91 1423.18 L2352.76 1423.18 L2352.76 1071.73 L1445.91 1071.73  Z" fill="#ffffff" fill-rule="evenodd" fill-opacity="1"/>
<defs>
  <clipPath id="clip815">
    <rect x="1445" y="1071" width="908" height="352"/>
  </clipPath>
</defs>
<polyline clip-path="url(#clip815)" style="stroke:#000000; stroke-linecap:round; stroke-linejoin:round; stroke-width:2; stroke-opacity:0.1; fill:none" points="1471.57,1423.18 1471.57,1071.73 "/>
<polyline clip-path="url(#clip815)" style="stroke:#000000; stroke-linecap:round; stroke-linejoin:round; stroke-width:2; stroke-opacity:0.1; fill:none" points="1723.2,1423.18 1723.2,1071.73 "/>
<polyline clip-path="url(#clip815)" style="stroke:#000000; stroke-linecap:round; stroke-linejoin:round; stroke-width:2; stroke-opacity:0.1; fill:none" points="1974.82,1423.18 1974.82,1071.73 "/>
<polyline clip-path="url(#clip815)" style="stroke:#000000; stroke-linecap:round; stroke-linejoin:round; stroke-width:2; stroke-opacity:0.1; fill:none" points="2226.44,1423.18 2226.44,1071.73 "/>
<polyline clip-path="url(#clip810)" style="stroke:#000000; stroke-linecap:round; stroke-linejoin:round; stroke-width:4; stroke-opacity:1; fill:none" points="1445.91,1423.18 2352.76,1423.18 "/>
<polyline clip-path="url(#clip810)" style="stroke:#000000; stroke-linecap:round; stroke-linejoin:round; stroke-width:4; stroke-opacity:1; fill:none" points="1471.57,1423.18 1471.57,1404.28 "/>
<polyline clip-path="url(#clip810)" style="stroke:#000000; stroke-linecap:round; stroke-linejoin:round; stroke-width:4; stroke-opacity:1; fill:none" points="1723.2,1423.18 1723.2,1404.28 "/>
<polyline clip-path="url(#clip810)" style="stroke:#000000; stroke-linecap:round; stroke-linejoin:round; stroke-width:4; stroke-opacity:1; fill:none" points="1974.82,1423.18 1974.82,1404.28 "/>
<polyline clip-path="url(#clip810)" style="stroke:#000000; stroke-linecap:round; stroke-linejoin:round; stroke-width:4; stroke-opacity:1; fill:none" points="2226.44,1423.18 2226.44,1404.28 "/>
<path clip-path="url(#clip810)" d="M1471.57 1454.1 Q1467.96 1454.1 1466.13 1457.66 Q1464.33 1461.2 1464.33 1468.33 Q1464.33 1475.44 1466.13 1479.01 Q1467.96 1482.55 1471.57 1482.55 Q1475.21 1482.55 1477.01 1479.01 Q1478.84 1475.44 1478.84 1468.33 Q1478.84 1461.2 1477.01 1457.66 Q1475.21 1454.1 1471.57 1454.1 M1471.57 1450.39 Q1477.38 1450.39 1480.44 1455 Q1483.52 1459.58 1483.52 1468.33 Q1483.52 1477.06 1480.44 1481.67 Q1477.38 1486.25 1471.57 1486.25 Q1465.76 1486.25 1462.68 1481.67 Q1459.63 1477.06 1459.63 1468.33 Q1459.63 1459.58 1462.68 1455 Q1465.76 1450.39 1471.57 1450.39 Z" fill="#000000" fill-rule="nonzero" fill-opacity="1" /><path clip-path="url(#clip810)" d="M1713.58 1481.64 L1721.22 1481.64 L1721.22 1455.28 L1712.91 1456.95 L1712.91 1452.69 L1721.17 1451.02 L1725.85 1451.02 L1725.85 1481.64 L1733.49 1481.64 L1733.49 1485.58 L1713.58 1485.58 L1713.58 1481.64 Z" fill="#000000" fill-rule="nonzero" fill-opacity="1" /><path clip-path="url(#clip810)" d="M1969.47 1481.64 L1985.79 1481.64 L1985.79 1485.58 L1963.85 1485.58 L1963.85 1481.64 Q1966.51 1478.89 1971.09 1474.26 Q1975.7 1469.61 1976.88 1468.27 Q1979.12 1465.74 1980 1464.01 Q1980.91 1462.25 1980.91 1460.56 Q1980.91 1457.8 1978.96 1456.07 Q1977.04 1454.33 1973.94 1454.33 Q1971.74 1454.33 1969.29 1455.09 Q1966.86 1455.86 1964.08 1457.41 L1964.08 1452.69 Q1966.9 1451.55 1969.36 1450.97 Q1971.81 1450.39 1973.85 1450.39 Q1979.22 1450.39 1982.41 1453.08 Q1985.61 1455.77 1985.61 1460.26 Q1985.61 1462.39 1984.8 1464.31 Q1984.01 1466.2 1981.9 1468.8 Q1981.32 1469.47 1978.22 1472.69 Q1975.12 1475.88 1969.47 1481.64 Z" fill="#000000" fill-rule="nonzero" fill-opacity="1" /><path clip-path="url(#clip810)" d="M2230.69 1466.95 Q2234.05 1467.66 2235.92 1469.93 Q2237.82 1472.2 2237.82 1475.53 Q2237.82 1480.65 2234.3 1483.45 Q2230.78 1486.25 2224.3 1486.25 Q2222.12 1486.25 2219.81 1485.81 Q2217.52 1485.39 2215.06 1484.54 L2215.06 1480.02 Q2217.01 1481.16 2219.32 1481.74 Q2221.64 1482.32 2224.16 1482.32 Q2228.56 1482.32 2230.85 1480.58 Q2233.17 1478.84 2233.17 1475.53 Q2233.17 1472.48 2231.01 1470.77 Q2228.88 1469.03 2225.06 1469.03 L2221.04 1469.03 L2221.04 1465.19 L2225.25 1465.19 Q2228.7 1465.19 2230.53 1463.82 Q2232.36 1462.43 2232.36 1459.84 Q2232.36 1457.18 2230.46 1455.77 Q2228.58 1454.33 2225.06 1454.33 Q2223.14 1454.33 2220.94 1454.75 Q2218.74 1455.16 2216.11 1456.04 L2216.11 1451.88 Q2218.77 1451.14 2221.08 1450.77 Q2223.42 1450.39 2225.48 1450.39 Q2230.8 1450.39 2233.91 1452.83 Q2237.01 1455.23 2237.01 1459.35 Q2237.01 1462.22 2235.36 1464.21 Q2233.72 1466.18 2230.69 1466.95 Z" fill="#000000" fill-rule="nonzero" fill-opacity="1" /><path clip-path="url(#clip810)" d="M1769.5 1520.52 L1809.7 1520.52 L1809.7 1525.93 L1792.83 1525.93 L1792.83 1568.04 L1786.37 1568.04 L1786.37 1525.93 L1769.5 1525.93 L1769.5 1520.52 Z" fill="#000000" fill-rule="nonzero" fill-opacity="1" /><path clip-path="url(#clip810)" d="M1813.65 1532.4 L1819.51 1532.4 L1819.51 1568.04 L1813.65 1568.04 L1813.65 1532.4 M1813.65 1518.52 L1819.51 1518.52 L1819.51 1525.93 L1813.65 1525.93 L1813.65 1518.52 Z" fill="#000000" fill-rule="nonzero" fill-opacity="1" /><path clip-path="url(#clip810)" d="M1859.51 1539.24 Q1861.71 1535.29 1864.77 1533.41 Q1867.82 1531.54 1871.96 1531.54 Q1877.53 1531.54 1880.55 1535.45 Q1883.58 1539.33 1883.58 1546.53 L1883.58 1568.04 L1877.69 1568.04 L1877.69 1546.72 Q1877.69 1541.59 1875.87 1539.11 Q1874.06 1536.63 1870.34 1536.63 Q1865.78 1536.63 1863.14 1539.65 Q1860.5 1542.68 1860.5 1547.9 L1860.5 1568.04 L1854.61 1568.04 L1854.61 1546.72 Q1854.61 1541.56 1852.8 1539.11 Q1850.98 1536.63 1847.2 1536.63 Q1842.71 1536.63 1840.07 1539.68 Q1837.43 1542.71 1837.43 1547.9 L1837.43 1568.04 L1831.54 1568.04 L1831.54 1532.4 L1837.43 1532.4 L1837.43 1537.93 Q1839.43 1534.66 1842.23 1533.1 Q1845.03 1531.54 1848.88 1531.54 Q1852.77 1531.54 1855.47 1533.51 Q1858.21 1535.48 1859.51 1539.24 Z" fill="#000000" fill-rule="nonzero" fill-opacity="1" /><path clip-path="url(#clip810)" d="M1925.75 1548.76 L1925.75 1551.62 L1898.82 1551.62 Q1899.2 1557.67 1902.45 1560.85 Q1905.73 1564 1911.55 1564 Q1914.93 1564 1918.08 1563.17 Q1921.26 1562.35 1924.38 1560.69 L1924.38 1566.23 Q1921.23 1567.57 1917.92 1568.27 Q1914.61 1568.97 1911.2 1568.97 Q1902.67 1568.97 1897.68 1564 Q1892.71 1559.04 1892.71 1550.57 Q1892.71 1541.82 1897.42 1536.69 Q1902.16 1531.54 1910.19 1531.54 Q1917.38 1531.54 1921.55 1536.18 Q1925.75 1540.8 1925.75 1548.76 M1919.89 1547.04 Q1919.83 1542.23 1917.19 1539.37 Q1914.58 1536.5 1910.25 1536.5 Q1905.35 1536.5 1902.39 1539.27 Q1899.46 1542.04 1899.01 1547.07 L1919.89 1547.04 Z" fill="#000000" fill-rule="nonzero" fill-opacity="1" /><path clip-path="url(#clip810)" d="M1970.15 1518.58 Q1965.89 1525.9 1963.82 1533.06 Q1961.75 1540.23 1961.75 1547.58 Q1961.75 1554.93 1963.82 1562.16 Q1965.92 1569.35 1970.15 1576.64 L1965.06 1576.64 Q1960.28 1569.16 1957.9 1561.93 Q1955.54 1554.71 1955.54 1547.58 Q1955.54 1540.48 1957.9 1533.29 Q1960.25 1526.09 1965.06 1518.58 L1970.15 1518.58 Z" fill="#000000" fill-rule="nonzero" fill-opacity="1" /><path clip-path="url(#clip810)" d="M2004.24 1533.45 L2004.24 1538.98 Q2001.76 1537.71 1999.08 1537.07 Q1996.41 1536.44 1993.54 1536.44 Q1989.18 1536.44 1986.99 1537.77 Q1984.82 1539.11 1984.82 1541.79 Q1984.82 1543.82 1986.38 1545 Q1987.94 1546.15 1992.65 1547.2 L1994.66 1547.64 Q2000.9 1548.98 2003.51 1551.43 Q2006.15 1553.85 2006.15 1558.21 Q2006.15 1563.17 2002.2 1566.07 Q1998.29 1568.97 1991.41 1568.97 Q1988.55 1568.97 1985.43 1568.39 Q1982.34 1567.85 1978.9 1566.74 L1978.9 1560.69 Q1982.15 1562.38 1985.3 1563.24 Q1988.45 1564.07 1991.54 1564.07 Q1995.68 1564.07 1997.9 1562.66 Q2000.13 1561.23 2000.13 1558.65 Q2000.13 1556.27 1998.51 1554.99 Q1996.92 1553.72 1991.48 1552.54 L1989.44 1552.07 Q1984 1550.92 1981.58 1548.56 Q1979.16 1546.18 1979.16 1542.04 Q1979.16 1537.01 1982.72 1534.27 Q1986.29 1531.54 1992.84 1531.54 Q1996.09 1531.54 1998.96 1532.01 Q2001.82 1532.49 2004.24 1533.45 Z" fill="#000000" fill-rule="nonzero" fill-opacity="1" /><path clip-path="url(#clip810)" d="M2014.55 1518.58 L2019.64 1518.58 Q2024.42 1526.09 2026.77 1533.29 Q2029.16 1540.48 2029.16 1547.58 Q2029.16 1554.71 2026.77 1561.93 Q2024.42 1569.16 2019.64 1576.64 L2014.55 1576.64 Q2018.78 1569.35 2020.85 1562.16 Q2022.95 1554.93 2022.95 1547.58 Q2022.95 1540.23 2020.85 1533.06 Q2018.78 1525.9 2014.55 1518.58 Z" fill="#000000" fill-rule="nonzero" fill-opacity="1" /><polyline clip-path="url(#clip815)" style="stroke:#000000; stroke-linecap:round; stroke-linejoin:round; stroke-width:2; stroke-opacity:0.1; fill:none" points="1445.91,1355.32 2352.76,1355.32 "/>
<polyline clip-path="url(#clip815)" style="stroke:#000000; stroke-linecap:round; stroke-linejoin:round; stroke-width:2; stroke-opacity:0.1; fill:none" points="1445.91,1268.38 2352.76,1268.38 "/>
<polyline clip-path="url(#clip815)" style="stroke:#000000; stroke-linecap:round; stroke-linejoin:round; stroke-width:2; stroke-opacity:0.1; fill:none" points="1445.91,1181.45 2352.76,1181.45 "/>
<polyline clip-path="url(#clip815)" style="stroke:#000000; stroke-linecap:round; stroke-linejoin:round; stroke-width:2; stroke-opacity:0.1; fill:none" points="1445.91,1094.52 2352.76,1094.52 "/>
<polyline clip-path="url(#clip810)" style="stroke:#000000; stroke-linecap:round; stroke-linejoin:round; stroke-width:4; stroke-opacity:1; fill:none" points="1445.91,1423.18 1445.91,1071.73 "/>
<polyline clip-path="url(#clip810)" style="stroke:#000000; stroke-linecap:round; stroke-linejoin:round; stroke-width:4; stroke-opacity:1; fill:none" points="1445.91,1355.32 1464.81,1355.32 "/>
<polyline clip-path="url(#clip810)" style="stroke:#000000; stroke-linecap:round; stroke-linejoin:round; stroke-width:4; stroke-opacity:1; fill:none" points="1445.91,1268.38 1464.81,1268.38 "/>
<polyline clip-path="url(#clip810)" style="stroke:#000000; stroke-linecap:round; stroke-linejoin:round; stroke-width:4; stroke-opacity:1; fill:none" points="1445.91,1181.45 1464.81,1181.45 "/>
<polyline clip-path="url(#clip810)" style="stroke:#000000; stroke-linecap:round; stroke-linejoin:round; stroke-width:4; stroke-opacity:1; fill:none" points="1445.91,1094.52 1464.81,1094.52 "/>
<path clip-path="url(#clip810)" d="M1272.32 1355.77 L1301.99 1355.77 L1301.99 1359.71 L1272.32 1359.71 L1272.32 1355.77 Z" fill="#000000" fill-rule="nonzero" fill-opacity="1" /><path clip-path="url(#clip810)" d="M1322.08 1341.12 Q1318.47 1341.12 1316.64 1344.68 Q1314.84 1348.22 1314.84 1355.35 Q1314.84 1362.46 1316.64 1366.03 Q1318.47 1369.57 1322.08 1369.57 Q1325.72 1369.57 1327.52 1366.03 Q1329.35 1362.46 1329.35 1355.35 Q1329.35 1348.22 1327.52 1344.68 Q1325.72 1341.12 1322.08 1341.12 M1322.08 1337.41 Q1327.89 1337.41 1330.95 1342.02 Q1334.03 1346.6 1334.03 1355.35 Q1334.03 1364.08 1330.95 1368.69 Q1327.89 1373.27 1322.08 1373.27 Q1316.27 1373.27 1313.2 1368.69 Q1310.14 1364.08 1310.14 1355.35 Q1310.14 1346.6 1313.2 1342.02 Q1316.27 1337.41 1322.08 1337.41 Z" fill="#000000" fill-rule="nonzero" fill-opacity="1" /><path clip-path="url(#clip810)" d="M1342.25 1366.72 L1347.13 1366.72 L1347.13 1372.6 L1342.25 1372.6 L1342.25 1366.72 Z" fill="#000000" fill-rule="nonzero" fill-opacity="1" /><path clip-path="url(#clip810)" d="M1367.32 1341.12 Q1363.7 1341.12 1361.88 1344.68 Q1360.07 1348.22 1360.07 1355.35 Q1360.07 1362.46 1361.88 1366.03 Q1363.7 1369.57 1367.32 1369.57 Q1370.95 1369.57 1372.76 1366.03 Q1374.58 1362.46 1374.58 1355.35 Q1374.58 1348.22 1372.76 1344.68 Q1370.95 1341.12 1367.32 1341.12 M1367.32 1337.41 Q1373.13 1337.41 1376.18 1342.02 Q1379.26 1346.6 1379.26 1355.35 Q1379.26 1364.08 1376.18 1368.69 Q1373.13 1373.27 1367.32 1373.27 Q1361.51 1373.27 1358.43 1368.69 Q1355.37 1364.08 1355.37 1355.35 Q1355.37 1346.6 1358.43 1342.02 Q1361.51 1337.41 1367.32 1337.41 Z" fill="#000000" fill-rule="nonzero" fill-opacity="1" /><path clip-path="url(#clip810)" d="M1400.32 1342.11 L1388.52 1360.56 L1400.32 1360.56 L1400.32 1342.11 M1399.1 1338.04 L1404.98 1338.04 L1404.98 1360.56 L1409.91 1360.56 L1409.91 1364.45 L1404.98 1364.45 L1404.98 1372.6 L1400.32 1372.6 L1400.32 1364.45 L1384.72 1364.45 L1384.72 1359.94 L1399.1 1338.04 Z" fill="#000000" fill-rule="nonzero" fill-opacity="1" /><path clip-path="url(#clip810)" d="M1274.4 1268.84 L1304.08 1268.84 L1304.08 1272.77 L1274.4 1272.77 L1274.4 1268.84 Z" fill="#000000" fill-rule="nonzero" fill-opacity="1" /><path clip-path="url(#clip810)" d="M1324.17 1254.18 Q1320.56 1254.18 1318.73 1257.75 Q1316.92 1261.29 1316.92 1268.42 Q1316.92 1275.53 1318.73 1279.09 Q1320.56 1282.63 1324.17 1282.63 Q1327.8 1282.63 1329.61 1279.09 Q1331.44 1275.53 1331.44 1268.42 Q1331.44 1261.29 1329.61 1257.75 Q1327.8 1254.18 1324.17 1254.18 M1324.17 1250.48 Q1329.98 1250.48 1333.03 1255.09 Q1336.11 1259.67 1336.11 1268.42 Q1336.11 1277.15 1333.03 1281.75 Q1329.98 1286.34 1324.17 1286.34 Q1318.36 1286.34 1315.28 1281.75 Q1312.22 1277.15 1312.22 1268.42 Q1312.22 1259.67 1315.28 1255.09 Q1318.36 1250.48 1324.17 1250.48 Z" fill="#000000" fill-rule="nonzero" fill-opacity="1" /><path clip-path="url(#clip810)" d="M1344.33 1279.79 L1349.21 1279.79 L1349.21 1285.66 L1344.33 1285.66 L1344.33 1279.79 Z" fill="#000000" fill-rule="nonzero" fill-opacity="1" /><path clip-path="url(#clip810)" d="M1369.4 1254.18 Q1365.79 1254.18 1363.96 1257.75 Q1362.15 1261.29 1362.15 1268.42 Q1362.15 1275.53 1363.96 1279.09 Q1365.79 1282.63 1369.4 1282.63 Q1373.03 1282.63 1374.84 1279.09 Q1376.67 1275.53 1376.67 1268.42 Q1376.67 1261.29 1374.84 1257.75 Q1373.03 1254.18 1369.4 1254.18 M1369.4 1250.48 Q1375.21 1250.48 1378.26 1255.09 Q1381.34 1259.67 1381.34 1268.42 Q1381.34 1277.15 1378.26 1281.75 Q1375.21 1286.34 1369.4 1286.34 Q1363.59 1286.34 1360.51 1281.75 Q1357.45 1277.15 1357.45 1268.42 Q1357.45 1259.67 1360.51 1255.09 Q1363.59 1250.48 1369.4 1250.48 Z" fill="#000000" fill-rule="nonzero" fill-opacity="1" /><path clip-path="url(#clip810)" d="M1393.59 1281.73 L1409.91 1281.73 L1409.91 1285.66 L1387.96 1285.66 L1387.96 1281.73 Q1390.63 1278.98 1395.21 1274.35 Q1399.82 1269.69 1401 1268.35 Q1403.24 1265.83 1404.12 1264.09 Q1405.02 1262.33 1405.02 1260.64 Q1405.02 1257.89 1403.08 1256.15 Q1401.16 1254.42 1398.06 1254.42 Q1395.86 1254.42 1393.4 1255.18 Q1390.97 1255.94 1388.19 1257.49 L1388.19 1252.77 Q1391.02 1251.64 1393.47 1251.06 Q1395.93 1250.48 1397.96 1250.48 Q1403.33 1250.48 1406.53 1253.17 Q1409.72 1255.85 1409.72 1260.34 Q1409.72 1262.47 1408.91 1264.39 Q1408.13 1266.29 1406.02 1268.88 Q1405.44 1269.55 1402.34 1272.77 Q1399.24 1275.97 1393.59 1281.73 Z" fill="#000000" fill-rule="nonzero" fill-opacity="1" /><path clip-path="url(#clip810)" d="M1322.57 1167.25 Q1318.96 1167.25 1317.13 1170.81 Q1315.32 1174.36 1315.32 1181.49 Q1315.32 1188.59 1317.13 1192.16 Q1318.96 1195.7 1322.57 1195.7 Q1326.2 1195.7 1328.01 1192.16 Q1329.84 1188.59 1329.84 1181.49 Q1329.84 1174.36 1328.01 1170.81 Q1326.2 1167.25 1322.57 1167.25 M1322.57 1163.55 Q1328.38 1163.55 1331.44 1168.15 Q1334.51 1172.74 1334.51 1181.49 Q1334.51 1190.21 1331.44 1194.82 Q1328.38 1199.4 1322.57 1199.4 Q1316.76 1199.4 1313.68 1194.82 Q1310.63 1190.21 1310.63 1181.49 Q1310.63 1172.74 1313.68 1168.15 Q1316.76 1163.55 1322.57 1163.55 Z" fill="#000000" fill-rule="nonzero" fill-opacity="1" /><path clip-path="url(#clip810)" d="M1342.73 1192.85 L1347.62 1192.85 L1347.62 1198.73 L1342.73 1198.73 L1342.73 1192.85 Z" fill="#000000" fill-rule="nonzero" fill-opacity="1" /><path clip-path="url(#clip810)" d="M1367.8 1167.25 Q1364.19 1167.25 1362.36 1170.81 Q1360.56 1174.36 1360.56 1181.49 Q1360.56 1188.59 1362.36 1192.16 Q1364.19 1195.7 1367.8 1195.7 Q1371.44 1195.7 1373.24 1192.16 Q1375.07 1188.59 1375.07 1181.49 Q1375.07 1174.36 1373.24 1170.81 Q1371.44 1167.25 1367.8 1167.25 M1367.8 1163.55 Q1373.61 1163.55 1376.67 1168.15 Q1379.75 1172.74 1379.75 1181.49 Q1379.75 1190.21 1376.67 1194.82 Q1373.61 1199.4 1367.8 1199.4 Q1361.99 1199.4 1358.91 1194.82 Q1355.86 1190.21 1355.86 1181.49 Q1355.86 1172.74 1358.91 1168.15 Q1361.99 1163.55 1367.8 1163.55 Z" fill="#000000" fill-rule="nonzero" fill-opacity="1" /><path clip-path="url(#clip810)" d="M1397.96 1167.25 Q1394.35 1167.25 1392.52 1170.81 Q1390.72 1174.36 1390.72 1181.49 Q1390.72 1188.59 1392.52 1192.16 Q1394.35 1195.7 1397.96 1195.7 Q1401.6 1195.7 1403.4 1192.16 Q1405.23 1188.59 1405.23 1181.49 Q1405.23 1174.36 1403.4 1170.81 Q1401.6 1167.25 1397.96 1167.25 M1397.96 1163.55 Q1403.77 1163.55 1406.83 1168.15 Q1409.91 1172.74 1409.91 1181.49 Q1409.91 1190.21 1406.83 1194.82 Q1403.77 1199.4 1397.96 1199.4 Q1392.15 1199.4 1389.07 1194.82 Q1386.02 1190.21 1386.02 1181.49 Q1386.02 1172.74 1389.07 1168.15 Q1392.15 1163.55 1397.96 1163.55 Z" fill="#000000" fill-rule="nonzero" fill-opacity="1" /><path clip-path="url(#clip810)" d="M1324.17 1080.31 Q1320.56 1080.31 1318.73 1083.88 Q1316.92 1087.42 1316.92 1094.55 Q1316.92 1101.66 1318.73 1105.22 Q1320.56 1108.76 1324.17 1108.76 Q1327.8 1108.76 1329.61 1105.22 Q1331.44 1101.66 1331.44 1094.55 Q1331.44 1087.42 1329.61 1083.88 Q1327.8 1080.31 1324.17 1080.31 M1324.17 1076.61 Q1329.98 1076.61 1333.03 1081.22 Q1336.11 1085.8 1336.11 1094.55 Q1336.11 1103.28 1333.03 1107.88 Q1329.98 1112.47 1324.17 1112.47 Q1318.36 1112.47 1315.28 1107.88 Q1312.22 1103.28 1312.22 1094.55 Q1312.22 1085.8 1315.28 1081.22 Q1318.36 1076.61 1324.17 1076.61 Z" fill="#000000" fill-rule="nonzero" fill-opacity="1" /><path clip-path="url(#clip810)" d="M1344.33 1105.92 L1349.21 1105.92 L1349.21 1111.8 L1344.33 1111.8 L1344.33 1105.92 Z" fill="#000000" fill-rule="nonzero" fill-opacity="1" /><path clip-path="url(#clip810)" d="M1369.4 1080.31 Q1365.79 1080.31 1363.96 1083.88 Q1362.15 1087.42 1362.15 1094.55 Q1362.15 1101.66 1363.96 1105.22 Q1365.79 1108.76 1369.4 1108.76 Q1373.03 1108.76 1374.84 1105.22 Q1376.67 1101.66 1376.67 1094.55 Q1376.67 1087.42 1374.84 1083.88 Q1373.03 1080.31 1369.4 1080.31 M1369.4 1076.61 Q1375.21 1076.61 1378.26 1081.22 Q1381.34 1085.8 1381.34 1094.55 Q1381.34 1103.28 1378.26 1107.88 Q1375.21 1112.47 1369.4 1112.47 Q1363.59 1112.47 1360.51 1107.88 Q1357.45 1103.28 1357.45 1094.55 Q1357.45 1085.8 1360.51 1081.22 Q1363.59 1076.61 1369.4 1076.61 Z" fill="#000000" fill-rule="nonzero" fill-opacity="1" /><path clip-path="url(#clip810)" d="M1393.59 1107.86 L1409.91 1107.86 L1409.91 1111.8 L1387.96 1111.8 L1387.96 1107.86 Q1390.63 1105.11 1395.21 1100.48 Q1399.82 1095.82 1401 1094.48 Q1403.24 1091.96 1404.12 1090.22 Q1405.02 1088.46 1405.02 1086.77 Q1405.02 1084.02 1403.08 1082.28 Q1401.16 1080.55 1398.06 1080.55 Q1395.86 1080.55 1393.4 1081.31 Q1390.97 1082.07 1388.19 1083.63 L1388.19 1078.9 Q1391.02 1077.77 1393.47 1077.19 Q1395.93 1076.61 1397.96 1076.61 Q1403.33 1076.61 1406.53 1079.3 Q1409.72 1081.98 1409.72 1086.47 Q1409.72 1088.6 1408.91 1090.52 Q1408.13 1092.42 1406.02 1095.01 Q1405.44 1095.69 1402.34 1098.9 Q1399.24 1102.1 1393.59 1107.86 Z" fill="#000000" fill-rule="nonzero" fill-opacity="1" /><path clip-path="url(#clip810)" d="M1182.01 1250.93 L1182.94 1251.49 Q1181.43 1254.99 1179.02 1259.34 Q1181.43 1263.69 1182.94 1267.19 L1182.01 1267.73 Q1178.7 1263.92 1176.15 1259.34 Q1178.72 1254.72 1182.01 1250.93 Z" fill="#000000" fill-rule="nonzero" fill-opacity="1" /><path clip-path="url(#clip810)" d="M1194.31 1247.77 Q1196.12 1247.77 1197.15 1248.9 Q1198.14 1250.02 1198.14 1251.31 Q1198.14 1252.54 1197.44 1253.18 Q1196.73 1253.82 1195.83 1253.82 Q1194.6 1253.82 1193.54 1252.92 Q1192.48 1252.02 1192.25 1250.67 Q1191.41 1251.99 1191.41 1253.95 Q1191.41 1255.24 1192.09 1256.37 Q1192.77 1257.46 1193.64 1258.14 Q1194.51 1258.78 1195.76 1259.36 Q1196.99 1259.91 1197.73 1260.14 Q1198.43 1260.33 1199.21 1260.49 L1208.23 1262.74 Q1212.51 1263.84 1214.02 1263.84 Q1215.89 1263.84 1217.15 1262.94 Q1218.37 1262.04 1218.37 1260.23 Q1218.37 1259.52 1218.18 1258.72 Q1217.95 1257.91 1217.37 1256.88 Q1216.76 1255.82 1215.86 1254.89 Q1214.92 1253.92 1213.35 1252.99 Q1211.77 1252.05 1209.74 1251.44 Q1209.03 1251.25 1209.03 1250.6 Q1209.03 1249.8 1209.67 1249.8 Q1210.22 1249.8 1211.38 1250.25 Q1212.51 1250.67 1213.99 1251.6 Q1215.44 1252.5 1216.76 1253.69 Q1218.05 1254.89 1218.95 1256.66 Q1219.85 1258.43 1219.85 1260.36 Q1219.85 1263.13 1218.37 1264.97 Q1216.89 1266.8 1214.83 1267.48 Q1215.12 1267.64 1215.5 1267.87 Q1215.89 1268.09 1216.76 1268.77 Q1217.6 1269.41 1218.24 1270.15 Q1218.85 1270.89 1219.34 1272.05 Q1219.85 1273.18 1219.85 1274.4 Q1219.85 1275.95 1219.4 1277.33 Q1218.95 1278.69 1217.92 1279.65 Q1216.89 1280.62 1215.47 1280.62 Q1213.89 1280.62 1212.8 1279.56 Q1211.67 1278.46 1211.67 1276.98 Q1211.67 1276.05 1212.22 1275.3 Q1212.77 1274.53 1213.96 1274.53 Q1215.28 1274.53 1216.28 1275.43 Q1217.27 1276.34 1217.53 1277.62 Q1218.37 1276.3 1218.37 1274.34 Q1218.37 1272.21 1216.5 1270.54 Q1214.63 1268.86 1211.51 1268.06 Q1204.01 1266.06 1200.66 1265.29 Q1197.28 1264.52 1195.83 1264.52 Q1194.47 1264.52 1193.54 1264.87 Q1192.61 1265.22 1192.19 1265.84 Q1191.74 1266.42 1191.57 1266.96 Q1191.41 1267.48 1191.41 1268.06 Q1191.41 1269.02 1191.8 1270.12 Q1192.19 1271.18 1193.09 1272.47 Q1193.96 1273.73 1195.76 1274.92 Q1197.56 1276.11 1200.04 1276.92 Q1200.79 1277.08 1200.79 1277.78 Q1200.75 1278.56 1200.11 1278.56 Q1199.56 1278.56 1198.43 1278.14 Q1197.28 1277.69 1195.83 1276.79 Q1194.38 1275.85 1193.09 1274.66 Q1191.77 1273.44 1190.87 1271.67 Q1189.96 1269.86 1189.96 1267.93 Q1189.96 1267.06 1190.16 1266.22 Q1190.32 1265.35 1190.8 1264.32 Q1191.28 1263.26 1192.35 1262.33 Q1193.41 1261.39 1194.96 1260.81 Q1194.22 1260.43 1193.51 1259.91 Q1192.8 1259.36 1191.93 1258.53 Q1191.03 1257.66 1190.51 1256.46 Q1189.96 1255.24 1189.96 1253.89 Q1189.96 1252.57 1190.32 1251.28 Q1190.64 1249.99 1191.7 1248.9 Q1192.73 1247.77 1194.31 1247.77 Z" fill="#000000" fill-rule="nonzero" fill-opacity="1" /><path clip-path="url(#clip810)" d="M1231.9 1240.31 Q1230.52 1240.31 1229.87 1239.52 Q1229.22 1238.73 1229.22 1237.72 Q1229.22 1236.66 1229.92 1235.91 Q1230.59 1235.15 1231.79 1235.15 Q1233.07 1235.15 1233.79 1236.05 Q1234.51 1236.93 1234.33 1238.19 Q1236.18 1237.09 1237.02 1235.06 Q1237.85 1233.01 1237.85 1231.11 Q1237.85 1229.13 1236.14 1227.53 Q1234.42 1225.9 1230.23 1225.9 Q1226.67 1225.9 1224.62 1227.3 Q1222.57 1228.68 1222.57 1231.4 L1222.57 1233.43 Q1222.57 1234.13 1222.5 1234.34 Q1222.43 1234.54 1222.05 1234.54 Q1221.6 1234.54 1221.51 1233.84 Q1221.51 1233.14 1221.37 1232.04 Q1221.28 1229.35 1218.96 1227.93 Q1216.79 1226.65 1213.71 1226.65 Q1210.89 1226.65 1209.72 1228 Q1208.52 1229.33 1208.52 1231.07 Q1208.52 1232.69 1209.2 1234.47 Q1209.87 1236.25 1211.38 1237.22 Q1211.38 1234.36 1213.71 1234.36 Q1214.72 1234.36 1215.4 1235.01 Q1216.05 1235.64 1216.05 1236.7 Q1216.05 1237.72 1215.42 1238.39 Q1214.77 1239.07 1213.66 1239.07 Q1211.02 1239.07 1209.2 1236.73 Q1207.37 1234.36 1207.37 1230.89 Q1207.37 1227.46 1209.17 1224.93 Q1210.98 1222.39 1213.75 1222.39 Q1216.48 1222.39 1218.71 1224.19 Q1220.94 1225.99 1221.87 1228.86 Q1222.57 1225.34 1224.96 1223.24 Q1227.32 1221.15 1230.23 1221.15 Q1233.84 1221.15 1236.5 1223.99 Q1239.14 1226.83 1239.14 1230.98 Q1239.14 1234.81 1237.06 1237.56 Q1234.99 1240.31 1231.9 1240.31 Z" fill="#000000" fill-rule="nonzero" fill-opacity="1" /><polyline clip-path="url(#clip815)" style="stroke:#e26f46; stroke-linecap:round; stroke-linejoin:round; stroke-width:3; stroke-opacity:1; fill:none" stroke-dasharray="12, 6, 2, 6" points="1471.57,1181.45 1496.74,1181.45 1521.9,1081.68 1547.06,1318.61 1572.22,1283.98 1597.38,1290.64 1622.55,1413.23 1647.71,1305.61 1672.87,1347.27 1698.03,1273.01 1723.2,1253.77 1748.36,1284.91 1773.52,1245.29 1798.68,1232.16 1823.85,1171.4 1849.01,1204.73 1874.17,1204.84 1899.33,1178.3 1924.49,1132.86 1949.66,1179.42 1974.82,1220.51 1999.98,1176.02 2025.14,1166.3 2050.31,1208.48 2075.47,1179.7 2100.63,1171.29 2125.79,1271.44 2150.95,1170.21 2176.12,1199.1 2201.28,1212.56 2226.44,1204.8 2251.6,1175.97 2276.77,1206.43 2301.93,1216.76 2327.09,1158.04 "/>
</svg>
