<?xml version="1.0" encoding="utf-8"?>
<svg xmlns="http://www.w3.org/2000/svg" xmlns:xlink="http://www.w3.org/1999/xlink" width="600" height="400" viewBox="0 0 2400 1600">
<defs>
  <clipPath id="clip940">
    <rect x="0" y="0" width="2400" height="1600"/>
  </clipPath>
</defs>
<path clip-path="url(#clip940)" d="M0 1600 L2400 1600 L2400 0 L0 0  Z" fill="#ffffff" fill-rule="evenodd" fill-opacity="1"/>
<defs>
  <clipPath id="clip941">
    <rect x="480" y="0" width="1681" height="1600"/>
  </clipPath>
</defs>
<path clip-path="url(#clip940)" d="M203.964 1423.18 L1110.81 1423.18 L1110.81 47.2441 L203.964 47.2441  Z" fill="#ffffff" fill-rule="evenodd" fill-opacity="1"/>
<defs>
  <clipPath id="clip942">
    <rect x="203" y="47" width="908" height="1377"/>
  </clipPath>
</defs>
<polyline clip-path="url(#clip942)" style="stroke:#000000; stroke-linecap:round; stroke-linejoin:round; stroke-width:2; stroke-opacity:0.1; fill:none" points="229.629,1423.18 229.629,47.2441 "/>
<polyline clip-path="url(#clip942)" style="stroke:#000000; stroke-linecap:round; stroke-linejoin:round; stroke-width:2; stroke-opacity:0.1; fill:none" points="481.252,1423.18 481.252,47.2441 "/>
<polyline clip-path="url(#clip942)" style="stroke:#000000; stroke-linecap:round; stroke-linejoin:round; stroke-width:2; stroke-opacity:0.1; fill:none" points="732.874,1423.18 732.874,47.2441 "/>
<polyline clip-path="url(#clip942)" style="stroke:#000000; stroke-linecap:round; stroke-linejoin:round; stroke-width:2; stroke-opacity:0.1; fill:none" points="984.497,1423.18 984.497,47.2441 "/>
<polyline clip-path="url(#clip942)" style="stroke:#000000; stroke-linecap:round; stroke-linejoin:round; stroke-width:2; stroke-opacity:0.1; fill:none" points="203.964,1418.2 1110.81,1418.2 "/>
<polyline clip-path="url(#clip942)" style="stroke:#000000; stroke-linecap:round; stroke-linejoin:round; stroke-width:2; stroke-opacity:0.1; fill:none" points="203.964,969.051 1110.81,969.051 "/>
<polyline clip-path="url(#clip942)" style="stroke:#000000; stroke-linecap:round; stroke-linejoin:round; stroke-width:2; stroke-opacity:0.1; fill:none" points="203.964,519.901 1110.81,519.901 "/>
<polyline clip-path="url(#clip942)" style="stroke:#000000; stroke-linecap:round; stroke-linejoin:round; stroke-width:2; stroke-opacity:0.1; fill:none" points="203.964,70.7503 1110.81,70.7503 "/>
<polyline clip-path="url(#clip940)" style="stroke:#000000; stroke-linecap:round; stroke-linejoin:round; stroke-width:4; stroke-opacity:1; fill:none" points="203.964,1423.18 1110.81,1423.18 "/>
<polyline clip-path="url(#clip940)" style="stroke:#000000; stroke-linecap:round; stroke-linejoin:round; stroke-width:4; stroke-opacity:1; fill:none" points="229.629,1423.18 229.629,1404.28 "/>
<polyline clip-path="url(#clip940)" style="stroke:#000000; stroke-linecap:round; stroke-linejoin:round; stroke-width:4; stroke-opacity:1; fill:none" points="481.252,1423.18 481.252,1404.28 "/>
<polyline clip-path="url(#clip940)" style="stroke:#000000; stroke-linecap:round; stroke-linejoin:round; stroke-width:4; stroke-opacity:1; fill:none" points="732.874,1423.18 732.874,1404.28 "/>
<polyline clip-path="url(#clip940)" style="stroke:#000000; stroke-linecap:round; stroke-linejoin:round; stroke-width:4; stroke-opacity:1; fill:none" points="984.497,1423.18 984.497,1404.28 "/>
<path clip-path="url(#clip940)" d="M229.629 1454.1 Q226.018 1454.1 224.189 1457.66 Q222.384 1461.2 222.384 1468.33 Q222.384 1475.44 224.189 1479.01 Q226.018 1482.55 229.629 1482.55 Q233.263 1482.55 235.069 1479.01 Q236.898 1475.44 236.898 1468.33 Q236.898 1461.2 235.069 1457.66 Q233.263 1454.1 229.629 1454.1 M229.629 1450.39 Q235.439 1450.39 238.495 1455 Q241.573 1459.58 241.573 1468.33 Q241.573 1477.06 238.495 1481.67 Q235.439 1486.25 229.629 1486.25 Q223.819 1486.25 220.74 1481.67 Q217.685 1477.06 217.685 1468.33 Q217.685 1459.58 220.74 1455 Q223.819 1450.39 229.629 1450.39 Z" fill="#000000" fill-rule="nonzero" fill-opacity="1" /><path clip-path="url(#clip940)" d="M471.634 1481.64 L479.273 1481.64 L479.273 1455.28 L470.962 1456.95 L470.962 1452.69 L479.226 1451.02 L483.902 1451.02 L483.902 1481.64 L491.541 1481.64 L491.541 1485.58 L471.634 1485.58 L471.634 1481.64 Z" fill="#000000" fill-rule="nonzero" fill-opacity="1" /><path clip-path="url(#clip940)" d="M727.527 1481.64 L743.847 1481.64 L743.847 1485.58 L721.902 1485.58 L721.902 1481.64 Q724.564 1478.89 729.148 1474.26 Q733.754 1469.61 734.935 1468.27 Q737.18 1465.74 738.06 1464.01 Q738.962 1462.25 738.962 1460.56 Q738.962 1457.8 737.018 1456.07 Q735.097 1454.33 731.995 1454.33 Q729.796 1454.33 727.342 1455.09 Q724.912 1455.86 722.134 1457.41 L722.134 1452.69 Q724.958 1451.55 727.411 1450.97 Q729.865 1450.39 731.902 1450.39 Q737.273 1450.39 740.467 1453.08 Q743.661 1455.77 743.661 1460.26 Q743.661 1462.39 742.851 1464.31 Q742.064 1466.2 739.958 1468.8 Q739.379 1469.47 736.277 1472.69 Q733.175 1475.88 727.527 1481.64 Z" fill="#000000" fill-rule="nonzero" fill-opacity="1" /><path clip-path="url(#clip940)" d="M988.745 1466.95 Q992.101 1467.66 993.976 1469.93 Q995.874 1472.2 995.874 1475.53 Q995.874 1480.65 992.356 1483.45 Q988.837 1486.25 982.356 1486.25 Q980.18 1486.25 977.865 1485.81 Q975.574 1485.39 973.12 1484.54 L973.12 1480.02 Q975.064 1481.16 977.379 1481.74 Q979.694 1482.32 982.217 1482.32 Q986.615 1482.32 988.907 1480.58 Q991.222 1478.84 991.222 1475.53 Q991.222 1472.48 989.069 1470.77 Q986.939 1469.03 983.12 1469.03 L979.092 1469.03 L979.092 1465.19 L983.305 1465.19 Q986.754 1465.19 988.583 1463.82 Q990.411 1462.43 990.411 1459.84 Q990.411 1457.18 988.513 1455.77 Q986.638 1454.33 983.12 1454.33 Q981.199 1454.33 978.999 1454.75 Q976.8 1455.16 974.162 1456.04 L974.162 1451.88 Q976.824 1451.14 979.138 1450.77 Q981.476 1450.39 983.536 1450.39 Q988.861 1450.39 991.962 1452.83 Q995.064 1455.23 995.064 1459.35 Q995.064 1462.22 993.421 1464.21 Q991.777 1466.18 988.745 1466.95 Z" fill="#000000" fill-rule="nonzero" fill-opacity="1" /><path clip-path="url(#clip940)" d="M527.559 1520.52 L567.758 1520.52 L567.758 1525.93 L550.889 1525.93 L550.889 1568.04 L544.428 1568.04 L544.428 1525.93 L527.559 1525.93 L527.559 1520.52 Z" fill="#000000" fill-rule="nonzero" fill-opacity="1" /><path clip-path="url(#clip940)" d="M571.705 1532.4 L577.562 1532.4 L577.562 1568.04 L571.705 1568.04 L571.705 1532.4 M571.705 1518.52 L577.562 1518.52 L577.562 1525.93 L571.705 1525.93 L571.705 1518.52 Z" fill="#000000" fill-rule="nonzero" fill-opacity="1" /><path clip-path="url(#clip940)" d="M617.57 1539.24 Q619.766 1535.29 622.822 1533.41 Q625.877 1531.54 630.015 1531.54 Q635.585 1531.54 638.609 1535.45 Q641.633 1539.33 641.633 1546.53 L641.633 1568.04 L635.744 1568.04 L635.744 1546.72 Q635.744 1541.59 633.93 1539.11 Q632.116 1536.63 628.392 1536.63 Q623.84 1536.63 621.199 1539.65 Q618.557 1542.68 618.557 1547.9 L618.557 1568.04 L612.669 1568.04 L612.669 1546.72 Q612.669 1541.56 610.854 1539.11 Q609.04 1536.63 605.252 1536.63 Q600.765 1536.63 598.123 1539.68 Q595.481 1542.71 595.481 1547.9 L595.481 1568.04 L589.593 1568.04 L589.593 1532.4 L595.481 1532.4 L595.481 1537.93 Q597.486 1534.66 600.287 1533.1 Q603.088 1531.54 606.939 1531.54 Q610.822 1531.54 613.528 1533.51 Q616.265 1535.48 617.57 1539.24 Z" fill="#000000" fill-rule="nonzero" fill-opacity="1" /><path clip-path="url(#clip940)" d="M683.805 1548.76 L683.805 1551.62 L656.878 1551.62 Q657.26 1557.67 660.507 1560.85 Q663.785 1564 669.61 1564 Q672.984 1564 676.135 1563.17 Q679.317 1562.35 682.437 1560.69 L682.437 1566.23 Q679.286 1567.57 675.975 1568.27 Q672.665 1568.97 669.26 1568.97 Q660.73 1568.97 655.733 1564 Q650.767 1559.04 650.767 1550.57 Q650.767 1541.82 655.478 1536.69 Q660.22 1531.54 668.241 1531.54 Q675.434 1531.54 679.604 1536.18 Q683.805 1540.8 683.805 1548.76 M677.949 1547.04 Q677.885 1542.23 675.243 1539.37 Q672.633 1536.5 668.305 1536.5 Q663.403 1536.5 660.443 1539.27 Q657.515 1542.04 657.069 1547.07 L677.949 1547.04 Z" fill="#000000" fill-rule="nonzero" fill-opacity="1" /><path clip-path="url(#clip940)" d="M728.206 1518.58 Q723.941 1525.9 721.872 1533.06 Q719.803 1540.23 719.803 1547.58 Q719.803 1554.93 721.872 1562.16 Q723.973 1569.35 728.206 1576.64 L723.114 1576.64 Q718.339 1569.16 715.952 1561.93 Q713.597 1554.71 713.597 1547.58 Q713.597 1540.48 715.952 1533.29 Q718.307 1526.09 723.114 1518.58 L728.206 1518.58 Z" fill="#000000" fill-rule="nonzero" fill-opacity="1" /><path clip-path="url(#clip940)" d="M762.294 1533.45 L762.294 1538.98 Q759.812 1537.71 757.138 1537.07 Q754.465 1536.44 751.6 1536.44 Q747.24 1536.44 745.043 1537.77 Q742.879 1539.11 742.879 1541.79 Q742.879 1543.82 744.439 1545 Q745.998 1546.15 750.709 1547.2 L752.714 1547.64 Q758.952 1548.98 761.562 1551.43 Q764.204 1553.85 764.204 1558.21 Q764.204 1563.17 760.257 1566.07 Q756.343 1568.97 749.468 1568.97 Q746.603 1568.97 743.484 1568.39 Q740.396 1567.85 736.959 1566.74 L736.959 1560.69 Q740.205 1562.38 743.356 1563.24 Q746.508 1564.07 749.595 1564.07 Q753.733 1564.07 755.961 1562.66 Q758.189 1561.23 758.189 1558.65 Q758.189 1556.27 756.565 1554.99 Q754.974 1553.72 749.531 1552.54 L747.494 1552.07 Q742.052 1550.92 739.633 1548.56 Q737.214 1546.18 737.214 1542.04 Q737.214 1537.01 740.778 1534.27 Q744.343 1531.54 750.9 1531.54 Q754.146 1531.54 757.011 1532.01 Q759.876 1532.49 762.294 1533.45 Z" fill="#000000" fill-rule="nonzero" fill-opacity="1" /><path clip-path="url(#clip940)" d="M772.607 1518.58 L777.699 1518.58 Q782.474 1526.09 784.829 1533.29 Q787.216 1540.48 787.216 1547.58 Q787.216 1554.71 784.829 1561.93 Q782.474 1569.16 777.699 1576.64 L772.607 1576.64 Q776.84 1569.35 778.909 1562.16 Q781.01 1554.93 781.01 1547.58 Q781.01 1540.23 778.909 1533.06 Q776.84 1525.9 772.607 1518.58 Z" fill="#000000" fill-rule="nonzero" fill-opacity="1" /><polyline clip-path="url(#clip940)" style="stroke:#000000; stroke-linecap:round; stroke-linejoin:round; stroke-width:4; stroke-opacity:1; fill:none" points="203.964,1423.18 203.964,47.2441 "/>
<polyline clip-path="url(#clip940)" style="stroke:#000000; stroke-linecap:round; stroke-linejoin:round; stroke-width:4; stroke-opacity:1; fill:none" points="203.964,1418.2 222.861,1418.2 "/>
<polyline clip-path="url(#clip940)" style="stroke:#000000; stroke-linecap:round; stroke-linejoin:round; stroke-width:4; stroke-opacity:1; fill:none" points="203.964,969.051 222.861,969.051 "/>
<polyline clip-path="url(#clip940)" style="stroke:#000000; stroke-linecap:round; stroke-linejoin:round; stroke-width:4; stroke-opacity:1; fill:none" points="203.964,519.901 222.861,519.901 "/>
<polyline clip-path="url(#clip940)" style="stroke:#000000; stroke-linecap:round; stroke-linejoin:round; stroke-width:4; stroke-opacity:1; fill:none" points="203.964,70.7503 222.861,70.7503 "/>
<path clip-path="url(#clip940)" d="M156.019 1404 Q152.408 1404 150.579 1407.57 Q148.774 1411.11 148.774 1418.24 Q148.774 1425.34 150.579 1428.91 Q152.408 1432.45 156.019 1432.45 Q159.653 1432.45 161.459 1428.91 Q163.288 1425.34 163.288 1418.24 Q163.288 1411.11 161.459 1407.57 Q159.653 1404 156.019 1404 M156.019 1400.3 Q161.829 1400.3 164.885 1404.9 Q167.964 1409.49 167.964 1418.24 Q167.964 1426.96 164.885 1431.57 Q161.829 1436.15 156.019 1436.15 Q150.209 1436.15 147.13 1431.57 Q144.075 1426.96 144.075 1418.24 Q144.075 1409.49 147.13 1404.9 Q150.209 1400.3 156.019 1400.3 Z" fill="#000000" fill-rule="nonzero" fill-opacity="1" /><path clip-path="url(#clip940)" d="M116.668 982.396 L124.306 982.396 L124.306 956.03 L115.996 957.697 L115.996 953.438 L124.26 951.771 L128.936 951.771 L128.936 982.396 L136.575 982.396 L136.575 986.331 L116.668 986.331 L116.668 982.396 Z" fill="#000000" fill-rule="nonzero" fill-opacity="1" /><path clip-path="url(#clip940)" d="M156.019 954.85 Q152.408 954.85 150.579 958.415 Q148.774 961.956 148.774 969.086 Q148.774 976.192 150.579 979.757 Q152.408 983.299 156.019 983.299 Q159.653 983.299 161.459 979.757 Q163.288 976.192 163.288 969.086 Q163.288 961.956 161.459 958.415 Q159.653 954.85 156.019 954.85 M156.019 951.146 Q161.829 951.146 164.885 955.753 Q167.964 960.336 167.964 969.086 Q167.964 977.813 164.885 982.419 Q161.829 987.003 156.019 987.003 Q150.209 987.003 147.13 982.419 Q144.075 977.813 144.075 969.086 Q144.075 960.336 147.13 955.753 Q150.209 951.146 156.019 951.146 Z" fill="#000000" fill-rule="nonzero" fill-opacity="1" /><path clip-path="url(#clip940)" d="M119.885 533.246 L136.204 533.246 L136.204 537.181 L114.26 537.181 L114.26 533.246 Q116.922 530.491 121.505 525.861 Q126.112 521.209 127.292 519.866 Q129.538 517.343 130.417 515.607 Q131.32 513.848 131.32 512.158 Q131.32 509.403 129.376 507.667 Q127.455 505.931 124.353 505.931 Q122.154 505.931 119.7 506.695 Q117.269 507.459 114.492 509.01 L114.492 504.287 Q117.316 503.153 119.769 502.574 Q122.223 501.996 124.26 501.996 Q129.63 501.996 132.825 504.681 Q136.019 507.366 136.019 511.857 Q136.019 513.986 135.209 515.908 Q134.422 517.806 132.316 520.398 Q131.737 521.07 128.635 524.287 Q125.533 527.482 119.885 533.246 Z" fill="#000000" fill-rule="nonzero" fill-opacity="1" /><path clip-path="url(#clip940)" d="M156.019 505.699 Q152.408 505.699 150.579 509.264 Q148.774 512.806 148.774 519.935 Q148.774 527.042 150.579 530.607 Q152.408 534.148 156.019 534.148 Q159.653 534.148 161.459 530.607 Q163.288 527.042 163.288 519.935 Q163.288 512.806 161.459 509.264 Q159.653 505.699 156.019 505.699 M156.019 501.996 Q161.829 501.996 164.885 506.602 Q167.964 511.186 167.964 519.935 Q167.964 528.662 164.885 533.269 Q161.829 537.852 156.019 537.852 Q150.209 537.852 147.13 533.269 Q144.075 528.662 144.075 519.935 Q144.075 511.186 147.13 506.602 Q150.209 501.996 156.019 501.996 Z" fill="#000000" fill-rule="nonzero" fill-opacity="1" /><path clip-path="url(#clip940)" d="M130.024 69.3961 Q133.38 70.1137 135.255 72.3822 Q137.154 74.6507 137.154 77.984 Q137.154 83.0997 133.635 85.9006 Q130.117 88.7015 123.635 88.7015 Q121.459 88.7015 119.144 88.2617 Q116.853 87.8451 114.399 86.9886 L114.399 82.4747 Q116.343 83.609 118.658 84.1877 Q120.973 84.7664 123.496 84.7664 Q127.894 84.7664 130.186 83.0303 Q132.501 81.2942 132.501 77.984 Q132.501 74.9285 130.348 73.2155 Q128.218 71.4794 124.399 71.4794 L120.371 71.4794 L120.371 67.6368 L124.584 67.6368 Q128.033 67.6368 129.862 66.2711 Q131.691 64.8822 131.691 62.2897 Q131.691 59.6276 129.792 58.2156 Q127.917 56.7804 124.399 56.7804 Q122.478 56.7804 120.279 57.1971 Q118.08 57.6138 115.441 58.4934 L115.441 54.3267 Q118.103 53.586 120.418 53.2156 Q122.755 52.8453 124.816 52.8453 Q130.14 52.8453 133.242 55.2758 Q136.343 57.6832 136.343 61.8035 Q136.343 64.6739 134.7 66.6646 Q133.056 68.6322 130.024 69.3961 Z" fill="#000000" fill-rule="nonzero" fill-opacity="1" /><path clip-path="url(#clip940)" d="M156.019 56.5489 Q152.408 56.5489 150.579 60.1137 Q148.774 63.6554 148.774 70.785 Q148.774 77.8914 150.579 81.4562 Q152.408 84.9979 156.019 84.9979 Q159.653 84.9979 161.459 81.4562 Q163.288 77.8914 163.288 70.785 Q163.288 63.6554 161.459 60.1137 Q159.653 56.5489 156.019 56.5489 M156.019 52.8453 Q161.829 52.8453 164.885 57.4517 Q167.964 62.035 167.964 70.785 Q167.964 79.5118 164.885 84.1182 Q161.829 88.7015 156.019 88.7015 Q150.209 88.7015 147.13 84.1182 Q144.075 79.5118 144.075 70.785 Q144.075 62.035 147.13 57.4517 Q150.209 52.8453 156.019 52.8453 Z" fill="#000000" fill-rule="nonzero" fill-opacity="1" /><path clip-path="url(#clip940)" d="M39.4334 772.564 Q44.844 772.564 50.9309 774.303 Q56.9856 776.01 61.8809 778.715 Q66.744 781.42 69.9646 784.963 Q73.153 788.505 73.153 791.887 Q73.153 794.045 71.9613 795.655 Q70.7375 797.233 68.7085 798.103 Q66.6474 798.972 64.393 799.391 Q62.1063 799.81 59.6265 799.81 Q55.9228 799.81 51.8971 799.005 Q47.8391 798.199 44.1677 796.847 Q40.464 795.494 37.1146 793.594 Q33.733 791.694 31.2853 789.6 Q28.8055 787.475 27.3562 785.092 Q25.907 782.708 25.907 780.486 Q25.907 778.876 26.6155 777.588 Q27.2918 776.267 28.4834 775.43 Q29.6428 774.593 31.0277 774.013 Q32.4125 773.401 34.0228 773.111 Q35.6009 772.821 36.9214 772.692 Q38.2096 772.564 39.4334 772.564 M35.3433 776.911 Q33.7008 776.911 32.477 777.04 Q31.2209 777.169 29.9649 777.523 Q28.7089 777.878 28.0325 778.65 Q27.3562 779.391 27.3562 780.551 Q27.3562 783.932 34.2805 787.733 Q36.4383 788.956 39.369 790.051 Q42.2997 791.146 43.6846 791.533 Q45.0694 791.919 48.4833 792.821 L48.4833 779.037 Q39.6911 776.911 35.3433 776.911 M50.5766 779.617 L50.5766 793.336 Q58.6281 795.462 63.6522 795.462 Q68.0322 795.462 69.868 794.56 Q71.6715 793.626 71.6715 791.887 Q71.6715 789.89 69.6747 788.022 Q67.6458 786.154 63.9743 784.254 Q59.2078 781.742 50.5766 779.617 Z" fill="#000000" fill-rule="nonzero" fill-opacity="1" /><path clip-path="url(#clip940)" d="M22.9507 728.256 Q30.2712 732.521 37.4327 734.59 Q44.5941 736.658 51.9465 736.658 Q59.2989 736.658 66.5239 734.59 Q73.7172 732.489 81.0059 728.256 L81.0059 733.348 Q73.5262 738.123 66.3011 740.51 Q59.0761 742.865 51.9465 742.865 Q44.8487 742.865 37.6555 740.51 Q30.4622 738.154 22.9507 733.348 L22.9507 728.256 Z" fill="#000000" fill-rule="nonzero" fill-opacity="1" /><path clip-path="url(#clip940)" d="M28.1387 706.74 Q28.1387 709.286 29.9211 711.036 Q31.6717 712.787 34.218 712.787 Q36.7324 712.787 38.483 711.036 Q40.2017 709.286 40.2017 706.74 Q40.2017 704.193 38.483 702.443 Q36.7324 700.692 34.218 700.692 Q31.7035 700.692 29.9211 702.475 Q28.1387 704.225 28.1387 706.74 M24.0328 706.74 Q24.0328 704.703 24.8286 702.825 Q25.5924 700.947 27.0566 699.578 Q28.4888 698.114 30.3031 697.382 Q32.1173 696.65 34.218 696.65 Q38.4193 696.65 41.3476 699.61 Q44.244 702.538 44.244 706.803 Q44.244 711.1 41.3794 713.965 Q38.5148 716.829 34.218 716.829 Q29.953 716.829 26.9929 713.901 Q24.0328 710.973 24.0328 706.74 Z" fill="#000000" fill-rule="nonzero" fill-opacity="1" /><path clip-path="url(#clip940)" d="M22.9507 685.224 L22.9507 680.131 Q30.4622 675.357 37.6555 673.001 Q44.8487 670.614 51.9465 670.614 Q59.0761 670.614 66.3011 673.001 Q73.5262 675.357 81.0059 680.131 L81.0059 685.224 Q73.7172 680.99 66.5239 678.921 Q59.2989 676.821 51.9465 676.821 Q44.5941 676.821 37.4327 678.921 Q30.2712 680.99 22.9507 685.224 Z" fill="#000000" fill-rule="nonzero" fill-opacity="1" /><polyline clip-path="url(#clip942)" style="stroke:#009af9; stroke-linecap:round; stroke-linejoin:round; stroke-width:4; stroke-opacity:1; fill:none" points="229.629,1383.2 254.791,1302.36 279.954,1039.85 305.116,762.058 330.278,501.743 355.44,276.852 380.603,223.88 405.765,86.1857 430.927,139.282 456.089,170.992 481.252,194.795 506.414,226.201 531.576,239.561 556.739,268.394 581.901,291.169 607.063,298.732 632.225,331.887 657.388,310.225 682.55,281.261 707.712,280.765 732.874,299.804 758.037,308.227 783.199,289.572 808.361,280.239 833.524,290.534 858.686,295.019 883.848,297.15 909.01,254.757 934.173,296.707 959.335,262.987 984.497,273.823 1009.66,302.231 1034.82,293.301 1059.98,265.136 1085.15,294.265 "/>
<polyline clip-path="url(#clip942)" style="stroke:#e26f46; stroke-linecap:round; stroke-linejoin:round; stroke-width:3; stroke-opacity:1; fill:none" stroke-dasharray="12, 6, 2, 6" points="229.629,1384.24 254.791,1295.51 279.954,1040.67 305.116,759.168 330.278,500.337 355.44,281.128 380.603,211.553 405.765,103.661 430.927,132.083 456.089,173.252 481.252,203.142 506.414,232.783 531.576,247.18 556.739,270.363 581.901,291.795 607.063,300.656 632.225,327.318 657.388,315.049 682.55,286.916 707.712,279.676 732.874,294.76 758.037,306.196 783.199,293.569 808.361,282.24 833.524,288.14 858.686,293.917 883.848,297.002 909.01,263.318 934.173,288.575 959.335,269.198 984.497,272.48 1009.66,296.815 1034.82,295.606 1059.98,271.389 1085.15,288.504 "/>
<path clip-path="url(#clip940)" d="M961.069 1377.32 L1080.58 1377.32 L1080.58 1221.8 L961.069 1221.8  Z" fill="#ffffff" fill-rule="evenodd" fill-opacity="1"/>
<polyline clip-path="url(#clip940)" style="stroke:#000000; stroke-linecap:round; stroke-linejoin:round; stroke-width:4; stroke-opacity:1; fill:none" points="961.069,1377.32 1080.58,1377.32 1080.58,1221.8 961.069,1221.8 961.069,1377.32 "/>
<polyline clip-path="url(#clip940)" style="stroke:#009af9; stroke-linecap:round; stroke-linejoin:round; stroke-width:4; stroke-opacity:1; fill:none" points="971.145,1273.64 1031.6,1273.64 "/>
<path clip-path="url(#clip940)" d="M1068.45 1260.37 Q1066.97 1260.37 1066.22 1260.51 Q1065.48 1260.63 1065.29 1260.8 Q1065.1 1260.96 1064.89 1261.38 L1054.58 1283.3 Q1053.48 1285.65 1051.42 1287.33 Q1049.38 1289.02 1046.81 1289.02 Q1044.65 1289.02 1043.15 1287.71 Q1041.68 1286.42 1041.68 1284.59 Q1041.68 1283.28 1042.5 1282.53 Q1043.32 1281.81 1044.42 1281.81 Q1045.64 1281.81 1046.41 1282.58 Q1047.21 1283.35 1047.21 1284.55 Q1047.21 1285.32 1046.88 1285.9 Q1046.55 1286.51 1046.25 1286.72 Q1045.96 1286.96 1045.66 1287.1 Q1046.15 1287.29 1046.81 1287.29 Q1047.79 1287.29 1048.63 1286.89 Q1049.5 1286.51 1050.06 1286 Q1050.65 1285.51 1051.23 1284.62 Q1051.82 1283.75 1052.1 1283.19 Q1052.38 1282.65 1052.8 1281.71 L1053.9 1279.42 L1044.93 1260.37 L1041.87 1260.37 L1041.87 1258.13 L1047.35 1258.27 L1053.3 1258.13 L1053.3 1260.37 L1050.7 1260.37 L1056.79 1273.33 L1062.31 1261.52 L1062.55 1260.96 Q1062.55 1260.7 1061.99 1260.56 Q1061.42 1260.4 1060.86 1260.4 L1060.3 1260.37 L1060.3 1258.13 L1064.66 1258.27 Q1066.72 1258.27 1068.45 1258.13 L1068.45 1260.37 Z" fill="#000000" fill-rule="nonzero" fill-opacity="1" /><polyline clip-path="url(#clip940)" style="stroke:#e26f46; stroke-linecap:round; stroke-linejoin:round; stroke-width:3; stroke-opacity:1; fill:none" stroke-dasharray="12, 6, 2, 6" points="971.145,1325.48 1031.6,1325.48 "/>
<path clip-path="url(#clip940)" d="M1064.26 1309.2 L1063.85 1309.87 Q1061.31 1308.77 1058.15 1307.01 Q1054.98 1308.77 1052.44 1309.87 L1052.05 1309.2 Q1054.82 1306.79 1058.15 1304.93 Q1061.51 1306.8 1064.26 1309.2 Z" fill="#000000" fill-rule="nonzero" fill-opacity="1" /><path clip-path="url(#clip940)" d="M1068.45 1317.22 Q1066.97 1317.22 1066.22 1317.36 Q1065.48 1317.48 1065.29 1317.64 Q1065.1 1317.8 1064.89 1318.23 L1054.58 1340.15 Q1053.48 1342.49 1051.42 1344.18 Q1049.38 1345.86 1046.81 1345.86 Q1044.65 1345.86 1043.15 1344.55 Q1041.68 1343.26 1041.68 1341.44 Q1041.68 1340.13 1042.5 1339.38 Q1043.32 1338.65 1044.42 1338.65 Q1045.64 1338.65 1046.41 1339.42 Q1047.21 1340.2 1047.21 1341.39 Q1047.21 1342.16 1046.88 1342.75 Q1046.55 1343.36 1046.25 1343.57 Q1045.96 1343.8 1045.66 1343.94 Q1046.15 1344.13 1046.81 1344.13 Q1047.79 1344.13 1048.63 1343.73 Q1049.5 1343.36 1050.06 1342.84 Q1050.65 1342.35 1051.23 1341.46 Q1051.82 1340.59 1052.1 1340.03 Q1052.38 1339.49 1052.8 1338.56 L1053.9 1336.26 L1044.93 1317.22 L1041.87 1317.22 L1041.87 1314.97 L1047.35 1315.11 L1053.3 1314.97 L1053.3 1317.22 L1050.7 1317.22 L1056.79 1330.17 L1062.31 1318.37 L1062.55 1317.8 Q1062.55 1317.55 1061.99 1317.41 Q1061.42 1317.24 1060.86 1317.24 L1060.3 1317.22 L1060.3 1314.97 L1064.66 1315.11 Q1066.72 1315.11 1068.45 1314.97 L1068.45 1317.22 Z" fill="#000000" fill-rule="nonzero" fill-opacity="1" /><path clip-path="url(#clip940)" d="M1445.91 398.692 L2352.76 398.692 L2352.76 47.2441 L1445.91 47.2441  Z" fill="#ffffff" fill-rule="evenodd" fill-opacity="1"/>
<defs>
  <clipPath id="clip943">
    <rect x="1445" y="47" width="908" height="352"/>
  </clipPath>
</defs>
<polyline clip-path="url(#clip943)" style="stroke:#000000; stroke-linecap:round; stroke-linejoin:round; stroke-width:2; stroke-opacity:0.1; fill:none" points="1471.57,398.692 1471.57,47.2441 "/>
<polyline clip-path="url(#clip943)" style="stroke:#000000; stroke-linecap:round; stroke-linejoin:round; stroke-width:2; stroke-opacity:0.1; fill:none" points="1723.2,398.692 1723.2,47.2441 "/>
<polyline clip-path="url(#clip943)" style="stroke:#000000; stroke-linecap:round; stroke-linejoin:round; stroke-width:2; stroke-opacity:0.1; fill:none" points="1974.82,398.692 1974.82,47.2441 "/>
<polyline clip-path="url(#clip943)" style="stroke:#000000; stroke-linecap:round; stroke-linejoin:round; stroke-width:2; stroke-opacity:0.1; fill:none" points="2226.44,398.692 2226.44,47.2441 "/>
<polyline clip-path="url(#clip943)" style="stroke:#000000; stroke-linecap:round; stroke-linejoin:round; stroke-width:2; stroke-opacity:0.1; fill:none" points="1445.91,388.745 2352.76,388.745 "/>
<polyline clip-path="url(#clip943)" style="stroke:#000000; stroke-linecap:round; stroke-linejoin:round; stroke-width:2; stroke-opacity:0.1; fill:none" points="1445.91,323.838 2352.76,323.838 "/>
<polyline clip-path="url(#clip943)" style="stroke:#000000; stroke-linecap:round; stroke-linejoin:round; stroke-width:2; stroke-opacity:0.1; fill:none" points="1445.91,258.93 2352.76,258.93 "/>
<polyline clip-path="url(#clip943)" style="stroke:#000000; stroke-linecap:round; stroke-linejoin:round; stroke-width:2; stroke-opacity:0.1; fill:none" points="1445.91,194.022 2352.76,194.022 "/>
<polyline clip-path="url(#clip943)" style="stroke:#000000; stroke-linecap:round; stroke-linejoin:round; stroke-width:2; stroke-opacity:0.1; fill:none" points="1445.91,129.115 2352.76,129.115 "/>
<polyline clip-path="url(#clip943)" style="stroke:#000000; stroke-linecap:round; stroke-linejoin:round; stroke-width:2; stroke-opacity:0.1; fill:none" points="1445.91,64.2073 2352.76,64.2073 "/>
<polyline clip-path="url(#clip940)" style="stroke:#000000; stroke-linecap:round; stroke-linejoin:round; stroke-width:4; stroke-opacity:1; fill:none" points="1445.91,398.692 2352.76,398.692 "/>
<polyline clip-path="url(#clip940)" style="stroke:#000000; stroke-linecap:round; stroke-linejoin:round; stroke-width:4; stroke-opacity:1; fill:none" points="1471.57,398.692 1471.57,379.794 "/>
<polyline clip-path="url(#clip940)" style="stroke:#000000; stroke-linecap:round; stroke-linejoin:round; stroke-width:4; stroke-opacity:1; fill:none" points="1723.2,398.692 1723.2,379.794 "/>
<polyline clip-path="url(#clip940)" style="stroke:#000000; stroke-linecap:round; stroke-linejoin:round; stroke-width:4; stroke-opacity:1; fill:none" points="1974.82,398.692 1974.82,379.794 "/>
<polyline clip-path="url(#clip940)" style="stroke:#000000; stroke-linecap:round; stroke-linejoin:round; stroke-width:4; stroke-opacity:1; fill:none" points="2226.44,398.692 2226.44,379.794 "/>
<path clip-path="url(#clip940)" d="M1471.57 429.611 Q1467.96 429.611 1466.13 433.175 Q1464.33 436.717 1464.33 443.847 Q1464.33 450.953 1466.13 454.518 Q1467.96 458.059 1471.57 458.059 Q1475.21 458.059 1477.01 454.518 Q1478.84 450.953 1478.84 443.847 Q1478.84 436.717 1477.01 433.175 Q1475.21 429.611 1471.57 429.611 M1471.57 425.907 Q1477.38 425.907 1480.44 430.513 Q1483.52 435.097 1483.52 443.847 Q1483.52 452.573 1480.44 457.18 Q1477.38 461.763 1471.57 461.763 Q1465.76 461.763 1462.68 457.18 Q1459.63 452.573 1459.63 443.847 Q1459.63 435.097 1462.68 430.513 Q1465.76 425.907 1471.57 425.907 Z" fill="#000000" fill-rule="nonzero" fill-opacity="1" /><path clip-path="url(#clip940)" d="M1713.58 457.157 L1721.22 457.157 L1721.22 430.791 L1712.91 432.458 L1712.91 428.199 L1721.17 426.532 L1725.85 426.532 L1725.85 457.157 L1733.49 457.157 L1733.49 461.092 L1713.58 461.092 L1713.58 457.157 Z" fill="#000000" fill-rule="nonzero" fill-opacity="1" /><path clip-path="url(#clip940)" d="M1969.47 457.157 L1985.79 457.157 L1985.79 461.092 L1963.85 461.092 L1963.85 457.157 Q1966.51 454.402 1971.09 449.772 Q1975.7 445.12 1976.88 443.777 Q1979.12 441.254 1980 439.518 Q1980.91 437.759 1980.91 436.069 Q1980.91 433.314 1978.96 431.578 Q1977.04 429.842 1973.94 429.842 Q1971.74 429.842 1969.29 430.606 Q1966.86 431.37 1964.08 432.921 L1964.08 428.199 Q1966.9 427.064 1969.36 426.486 Q1971.81 425.907 1973.85 425.907 Q1979.22 425.907 1982.41 428.592 Q1985.61 431.277 1985.61 435.768 Q1985.61 437.898 1984.8 439.819 Q1984.01 441.717 1981.9 444.31 Q1981.32 444.981 1978.22 448.198 Q1975.12 451.393 1969.47 457.157 Z" fill="#000000" fill-rule="nonzero" fill-opacity="1" /><path clip-path="url(#clip940)" d="M2230.69 442.458 Q2234.05 443.175 2235.92 445.444 Q2237.82 447.712 2237.82 451.046 Q2237.82 456.161 2234.3 458.962 Q2230.78 461.763 2224.3 461.763 Q2222.12 461.763 2219.81 461.323 Q2217.52 460.907 2215.06 460.05 L2215.06 455.536 Q2217.01 456.671 2219.32 457.249 Q2221.64 457.828 2224.16 457.828 Q2228.56 457.828 2230.85 456.092 Q2233.17 454.356 2233.17 451.046 Q2233.17 447.99 2231.01 446.277 Q2228.88 444.541 2225.06 444.541 L2221.04 444.541 L2221.04 440.698 L2225.25 440.698 Q2228.7 440.698 2230.53 439.333 Q2232.36 437.944 2232.36 435.351 Q2232.36 432.689 2230.46 431.277 Q2228.58 429.842 2225.06 429.842 Q2223.14 429.842 2220.94 430.259 Q2218.74 430.675 2216.11 431.555 L2216.11 427.388 Q2218.77 426.648 2221.08 426.277 Q2223.42 425.907 2225.48 425.907 Q2230.8 425.907 2233.91 428.337 Q2237.01 430.745 2237.01 434.865 Q2237.01 437.736 2235.36 439.726 Q2233.72 441.694 2230.69 442.458 Z" fill="#000000" fill-rule="nonzero" fill-opacity="1" /><polyline clip-path="url(#clip940)" style="stroke:#000000; stroke-linecap:round; stroke-linejoin:round; stroke-width:4; stroke-opacity:1; fill:none" points="1445.91,398.692 1445.91,47.2441 "/>
<polyline clip-path="url(#clip940)" style="stroke:#000000; stroke-linecap:round; stroke-linejoin:round; stroke-width:4; stroke-opacity:1; fill:none" points="1445.91,388.745 1464.81,388.745 "/>
<polyline clip-path="url(#clip940)" style="stroke:#000000; stroke-linecap:round; stroke-linejoin:round; stroke-width:4; stroke-opacity:1; fill:none" points="1445.91,323.838 1464.81,323.838 "/>
<polyline clip-path="url(#clip940)" style="stroke:#000000; stroke-linecap:round; stroke-linejoin:round; stroke-width:4; stroke-opacity:1; fill:none" points="1445.91,258.93 1464.81,258.93 "/>
<polyline clip-path="url(#clip940)" style="stroke:#000000; stroke-linecap:round; stroke-linejoin:round; stroke-width:4; stroke-opacity:1; fill:none" points="1445.91,194.022 1464.81,194.022 "/>
<polyline clip-path="url(#clip940)" style="stroke:#000000; stroke-linecap:round; stroke-linejoin:round; stroke-width:4; stroke-opacity:1; fill:none" points="1445.91,129.115 1464.81,129.115 "/>
<polyline clip-path="url(#clip940)" style="stroke:#000000; stroke-linecap:round; stroke-linejoin:round; stroke-width:4; stroke-opacity:1; fill:none" points="1445.91,64.2073 1464.81,64.2073 "/>
<path clip-path="url(#clip940)" d="M1352.73 374.544 Q1349.12 374.544 1347.29 378.109 Q1345.49 381.65 1345.49 388.78 Q1345.49 395.886 1347.29 399.451 Q1349.12 402.993 1352.73 402.993 Q1356.37 402.993 1358.17 399.451 Q1360 395.886 1360 388.78 Q1360 381.65 1358.17 378.109 Q1356.37 374.544 1352.73 374.544 M1352.73 370.84 Q1358.54 370.84 1361.6 375.447 Q1364.68 380.03 1364.68 388.78 Q1364.68 397.507 1361.6 402.113 Q1358.54 406.697 1352.73 406.697 Q1346.92 406.697 1343.84 402.113 Q1340.79 397.507 1340.79 388.78 Q1340.79 380.03 1343.84 375.447 Q1346.92 370.84 1352.73 370.84 Z" fill="#000000" fill-rule="nonzero" fill-opacity="1" /><path clip-path="url(#clip940)" d="M1372.89 400.146 L1377.78 400.146 L1377.78 406.025 L1372.89 406.025 L1372.89 400.146 Z" fill="#000000" fill-rule="nonzero" fill-opacity="1" /><path clip-path="url(#clip940)" d="M1397.96 374.544 Q1394.35 374.544 1392.52 378.109 Q1390.72 381.65 1390.72 388.78 Q1390.72 395.886 1392.52 399.451 Q1394.35 402.993 1397.96 402.993 Q1401.6 402.993 1403.4 399.451 Q1405.23 395.886 1405.23 388.78 Q1405.23 381.65 1403.4 378.109 Q1401.6 374.544 1397.96 374.544 M1397.96 370.84 Q1403.77 370.84 1406.83 375.447 Q1409.91 380.03 1409.91 388.78 Q1409.91 397.507 1406.83 402.113 Q1403.77 406.697 1397.96 406.697 Q1392.15 406.697 1389.07 402.113 Q1386.02 397.507 1386.02 388.78 Q1386.02 380.03 1389.07 375.447 Q1392.15 370.84 1397.96 370.84 Z" fill="#000000" fill-rule="nonzero" fill-opacity="1" /><path clip-path="url(#clip940)" d="M1353.96 309.636 Q1350.35 309.636 1348.52 313.201 Q1346.71 316.743 1346.71 323.872 Q1346.71 330.979 1348.52 334.544 Q1350.35 338.085 1353.96 338.085 Q1357.59 338.085 1359.4 334.544 Q1361.23 330.979 1361.23 323.872 Q1361.23 316.743 1359.4 313.201 Q1357.59 309.636 1353.96 309.636 M1353.96 305.933 Q1359.77 305.933 1362.82 310.539 Q1365.9 315.122 1365.9 323.872 Q1365.9 332.599 1362.82 337.206 Q1359.77 341.789 1353.96 341.789 Q1348.15 341.789 1345.07 337.206 Q1342.01 332.599 1342.01 323.872 Q1342.01 315.122 1345.07 310.539 Q1348.15 305.933 1353.96 305.933 Z" fill="#000000" fill-rule="nonzero" fill-opacity="1" /><path clip-path="url(#clip940)" d="M1374.12 335.238 L1379.01 335.238 L1379.01 341.118 L1374.12 341.118 L1374.12 335.238 Z" fill="#000000" fill-rule="nonzero" fill-opacity="1" /><path clip-path="url(#clip940)" d="M1390 337.182 L1397.64 337.182 L1397.64 310.817 L1389.33 312.484 L1389.33 308.224 L1397.59 306.558 L1402.27 306.558 L1402.27 337.182 L1409.91 337.182 L1409.91 341.118 L1390 341.118 L1390 337.182 Z" fill="#000000" fill-rule="nonzero" fill-opacity="1" /><path clip-path="url(#clip940)" d="M1354.33 244.729 Q1350.72 244.729 1348.89 248.294 Q1347.08 251.835 1347.08 258.965 Q1347.08 266.071 1348.89 269.636 Q1350.72 273.178 1354.33 273.178 Q1357.96 273.178 1359.77 269.636 Q1361.6 266.071 1361.6 258.965 Q1361.6 251.835 1359.77 248.294 Q1357.96 244.729 1354.33 244.729 M1354.33 241.025 Q1360.14 241.025 1363.2 245.632 Q1366.27 250.215 1366.27 258.965 Q1366.27 267.692 1363.2 272.298 Q1360.14 276.881 1354.33 276.881 Q1348.52 276.881 1345.44 272.298 Q1342.39 267.692 1342.39 258.965 Q1342.39 250.215 1345.44 245.632 Q1348.52 241.025 1354.33 241.025 Z" fill="#000000" fill-rule="nonzero" fill-opacity="1" /><path clip-path="url(#clip940)" d="M1374.49 270.33 L1379.38 270.33 L1379.38 276.21 L1374.49 276.21 L1374.49 270.33 Z" fill="#000000" fill-rule="nonzero" fill-opacity="1" /><path clip-path="url(#clip940)" d="M1393.59 272.275 L1409.91 272.275 L1409.91 276.21 L1387.96 276.21 L1387.96 272.275 Q1390.63 269.52 1395.21 264.891 Q1399.82 260.238 1401 258.895 Q1403.24 256.372 1404.12 254.636 Q1405.02 252.877 1405.02 251.187 Q1405.02 248.432 1403.08 246.696 Q1401.16 244.96 1398.06 244.96 Q1395.86 244.96 1393.4 245.724 Q1390.97 246.488 1388.19 248.039 L1388.19 243.317 Q1391.02 242.182 1393.47 241.604 Q1395.93 241.025 1397.96 241.025 Q1403.33 241.025 1406.53 243.71 Q1409.72 246.395 1409.72 250.886 Q1409.72 253.016 1408.91 254.937 Q1408.13 256.835 1406.02 259.428 Q1405.44 260.099 1402.34 263.317 Q1399.24 266.511 1393.59 272.275 Z" fill="#000000" fill-rule="nonzero" fill-opacity="1" /><path clip-path="url(#clip940)" d="M1353.38 179.821 Q1349.77 179.821 1347.94 183.386 Q1346.13 186.928 1346.13 194.057 Q1346.13 201.164 1347.94 204.728 Q1349.77 208.27 1353.38 208.27 Q1357.01 208.27 1358.82 204.728 Q1360.65 201.164 1360.65 194.057 Q1360.65 186.928 1358.82 183.386 Q1357.01 179.821 1353.38 179.821 M1353.38 176.117 Q1359.19 176.117 1362.25 180.724 Q1365.32 185.307 1365.32 194.057 Q1365.32 202.784 1362.25 207.39 Q1359.19 211.974 1353.38 211.974 Q1347.57 211.974 1344.49 207.39 Q1341.44 202.784 1341.44 194.057 Q1341.44 185.307 1344.49 180.724 Q1347.57 176.117 1353.38 176.117 Z" fill="#000000" fill-rule="nonzero" fill-opacity="1" /><path clip-path="url(#clip940)" d="M1373.54 205.423 L1378.43 205.423 L1378.43 211.302 L1373.54 211.302 L1373.54 205.423 Z" fill="#000000" fill-rule="nonzero" fill-opacity="1" /><path clip-path="url(#clip940)" d="M1402.78 192.668 Q1406.13 193.386 1408.01 195.654 Q1409.91 197.923 1409.91 201.256 Q1409.91 206.372 1406.39 209.173 Q1402.87 211.974 1396.39 211.974 Q1394.21 211.974 1391.9 211.534 Q1389.61 211.117 1387.15 210.261 L1387.15 205.747 Q1389.1 206.881 1391.41 207.46 Q1393.73 208.039 1396.25 208.039 Q1400.65 208.039 1402.94 206.303 Q1405.26 204.566 1405.26 201.256 Q1405.26 198.201 1403.1 196.488 Q1400.97 194.752 1397.15 194.752 L1393.13 194.752 L1393.13 190.909 L1397.34 190.909 Q1400.79 190.909 1402.62 189.543 Q1404.44 188.154 1404.44 185.562 Q1404.44 182.9 1402.55 181.488 Q1400.67 180.053 1397.15 180.053 Q1395.23 180.053 1393.03 180.469 Q1390.83 180.886 1388.19 181.766 L1388.19 177.599 Q1390.86 176.858 1393.17 176.488 Q1395.51 176.117 1397.57 176.117 Q1402.89 176.117 1406 178.548 Q1409.1 180.955 1409.1 185.076 Q1409.1 187.946 1407.45 189.937 Q1405.81 191.904 1402.78 192.668 Z" fill="#000000" fill-rule="nonzero" fill-opacity="1" /><path clip-path="url(#clip940)" d="M1352.25 114.914 Q1348.63 114.914 1346.81 118.478 Q1345 122.02 1345 129.15 Q1345 136.256 1346.81 139.821 Q1348.63 143.363 1352.25 143.363 Q1355.88 143.363 1357.69 139.821 Q1359.51 136.256 1359.51 129.15 Q1359.51 122.02 1357.69 118.478 Q1355.88 114.914 1352.25 114.914 M1352.25 111.21 Q1358.06 111.21 1361.11 115.816 Q1364.19 120.4 1364.19 129.15 Q1364.19 137.876 1361.11 142.483 Q1358.06 147.066 1352.25 147.066 Q1346.44 147.066 1343.36 142.483 Q1340.3 137.876 1340.3 129.15 Q1340.3 120.4 1343.36 115.816 Q1346.44 111.21 1352.25 111.21 Z" fill="#000000" fill-rule="nonzero" fill-opacity="1" /><path clip-path="url(#clip940)" d="M1372.41 140.515 L1377.29 140.515 L1377.29 146.395 L1372.41 146.395 L1372.41 140.515 Z" fill="#000000" fill-rule="nonzero" fill-opacity="1" /><path clip-path="url(#clip940)" d="M1400.32 115.909 L1388.52 134.358 L1400.32 134.358 L1400.32 115.909 M1399.1 111.835 L1404.98 111.835 L1404.98 134.358 L1409.91 134.358 L1409.91 138.247 L1404.98 138.247 L1404.98 146.395 L1400.32 146.395 L1400.32 138.247 L1384.72 138.247 L1384.72 133.733 L1399.1 111.835 Z" fill="#000000" fill-rule="nonzero" fill-opacity="1" /><path clip-path="url(#clip940)" d="M1353.73 50.006 Q1350.12 50.006 1348.29 53.5708 Q1346.48 57.1124 1346.48 64.242 Q1346.48 71.3485 1348.29 74.9133 Q1350.12 78.4549 1353.73 78.4549 Q1357.36 78.4549 1359.17 74.9133 Q1361 71.3485 1361 64.242 Q1361 57.1124 1359.17 53.5708 Q1357.36 50.006 1353.73 50.006 M1353.73 46.3023 Q1359.54 46.3023 1362.59 50.9088 Q1365.67 55.4921 1365.67 64.242 Q1365.67 72.9688 1362.59 77.5753 Q1359.54 82.1586 1353.73 82.1586 Q1347.92 82.1586 1344.84 77.5753 Q1341.78 72.9688 1341.78 64.242 Q1341.78 55.4921 1344.84 50.9088 Q1347.92 46.3023 1353.73 46.3023 Z" fill="#000000" fill-rule="nonzero" fill-opacity="1" /><path clip-path="url(#clip940)" d="M1373.89 75.6077 L1378.77 75.6077 L1378.77 81.4873 L1373.89 81.4873 L1373.89 75.6077 Z" fill="#000000" fill-rule="nonzero" fill-opacity="1" /><path clip-path="url(#clip940)" d="M1389.01 46.9273 L1407.36 46.9273 L1407.36 50.8625 L1393.29 50.8625 L1393.29 59.3347 Q1394.31 58.9874 1395.32 58.8254 Q1396.34 58.6402 1397.36 58.6402 Q1403.15 58.6402 1406.53 61.8115 Q1409.91 64.9828 1409.91 70.3994 Q1409.91 75.9781 1406.44 79.0799 Q1402.96 82.1586 1396.64 82.1586 Q1394.47 82.1586 1392.2 81.7882 Q1389.95 81.4179 1387.55 80.6771 L1387.55 75.9781 Q1389.63 77.1123 1391.85 77.6679 Q1394.07 78.2234 1396.55 78.2234 Q1400.56 78.2234 1402.89 76.117 Q1405.23 74.0105 1405.23 70.3994 Q1405.23 66.7883 1402.89 64.6818 Q1400.56 62.5754 1396.55 62.5754 Q1394.68 62.5754 1392.8 62.992 Q1390.95 63.4087 1389.01 64.2883 L1389.01 46.9273 Z" fill="#000000" fill-rule="nonzero" fill-opacity="1" /><path clip-path="url(#clip940)" d="M1265.47 298.084 Q1270.89 298.084 1276.97 299.823 Q1283.03 301.53 1287.92 304.235 Q1292.79 306.941 1296.01 310.483 Q1299.19 314.026 1299.19 317.408 Q1299.19 319.565 1298 321.176 Q1296.78 322.754 1294.75 323.623 Q1292.69 324.493 1290.43 324.912 Q1288.15 325.33 1285.67 325.33 Q1281.96 325.33 1277.94 324.525 Q1273.88 323.72 1270.21 322.367 Q1266.51 321.015 1263.16 319.115 Q1259.77 317.214 1257.33 315.121 Q1254.85 312.995 1253.4 310.612 Q1251.95 308.229 1251.95 306.007 Q1251.95 304.396 1252.66 303.108 Q1253.33 301.788 1254.52 300.95 Q1255.68 300.113 1257.07 299.533 Q1258.45 298.921 1260.06 298.632 Q1261.64 298.342 1262.96 298.213 Q1264.25 298.084 1265.47 298.084 M1261.38 302.432 Q1259.74 302.432 1258.52 302.561 Q1257.26 302.69 1256.01 303.044 Q1254.75 303.398 1254.07 304.171 Q1253.4 304.912 1253.4 306.071 Q1253.4 309.453 1260.32 313.253 Q1262.48 314.477 1265.41 315.572 Q1268.34 316.667 1269.73 317.053 Q1271.11 317.44 1274.52 318.342 L1274.52 304.558 Q1265.73 302.432 1261.38 302.432 M1276.62 305.137 L1276.62 318.857 Q1284.67 320.983 1289.69 320.983 Q1294.07 320.983 1295.91 320.081 Q1297.71 319.147 1297.71 317.408 Q1297.71 315.411 1295.72 313.543 Q1293.69 311.675 1290.02 309.775 Q1285.25 307.263 1276.62 305.137 Z" fill="#000000" fill-rule="nonzero" fill-opacity="1" /><path clip-path="url(#clip940)" d="M1248.99 253.776 Q1256.31 258.041 1263.47 260.11 Q1270.64 262.179 1277.99 262.179 Q1285.34 262.179 1292.57 260.11 Q1299.76 258.009 1307.05 253.776 L1307.05 258.869 Q1299.57 263.643 1292.34 266.03 Q1285.12 268.386 1277.99 268.386 Q1270.89 268.386 1263.7 266.03 Q1256.5 263.675 1248.99 258.869 L1248.99 253.776 Z" fill="#000000" fill-rule="nonzero" fill-opacity="1" /><path clip-path="url(#clip940)" d="M1268.28 221.757 Q1267.71 222.743 1267.45 223.921 Q1267.17 225.067 1267.17 226.467 Q1267.17 231.433 1270.41 234.106 Q1273.63 236.748 1279.67 236.748 L1298.45 236.748 L1298.45 242.636 L1262.81 242.636 L1262.81 236.748 L1268.34 236.748 Q1265.1 234.902 1263.54 231.942 Q1261.95 228.982 1261.95 224.749 Q1261.95 224.144 1262.04 223.412 Q1262.11 222.68 1262.26 221.789 L1268.28 221.757 Z" fill="#000000" fill-rule="nonzero" fill-opacity="1" /><path clip-path="url(#clip940)" d="M1280.53 199.413 Q1280.53 206.511 1282.16 209.248 Q1283.78 211.985 1287.7 211.985 Q1290.81 211.985 1292.66 209.948 Q1294.48 207.879 1294.48 204.347 Q1294.48 199.477 1291.04 196.549 Q1287.57 193.588 1281.84 193.588 L1280.53 193.588 L1280.53 199.413 M1278.12 187.732 L1298.45 187.732 L1298.45 193.588 L1293.04 193.588 Q1296.29 195.594 1297.85 198.586 Q1299.38 201.577 1299.38 205.906 Q1299.38 211.381 1296.32 214.627 Q1293.23 217.842 1288.08 217.842 Q1282.06 217.842 1279.01 213.831 Q1275.95 209.789 1275.95 201.8 L1275.95 193.588 L1275.38 193.588 Q1271.34 193.588 1269.14 196.262 Q1266.91 198.904 1266.91 203.71 Q1266.91 206.766 1267.64 209.662 Q1268.38 212.558 1269.84 215.232 L1264.43 215.232 Q1263.19 212.017 1262.58 208.993 Q1261.95 205.97 1261.95 203.105 Q1261.95 195.371 1265.96 191.551 Q1269.97 187.732 1278.12 187.732 Z" fill="#000000" fill-rule="nonzero" fill-opacity="1" /><path clip-path="url(#clip940)" d="M1268.22 152.211 L1248.93 152.211 L1248.93 146.355 L1298.45 146.355 L1298.45 152.211 L1293.11 152.211 Q1296.29 154.057 1297.85 156.89 Q1299.38 159.691 1299.38 163.638 Q1299.38 170.099 1294.22 174.173 Q1289.06 178.215 1280.66 178.215 Q1272.26 178.215 1267.1 174.173 Q1261.95 170.099 1261.95 163.638 Q1261.95 159.691 1263.51 156.89 Q1265.03 154.057 1268.22 152.211 M1280.66 172.168 Q1287.12 172.168 1290.81 169.526 Q1294.48 166.853 1294.48 162.206 Q1294.48 157.559 1290.81 154.885 Q1287.12 152.211 1280.66 152.211 Q1274.2 152.211 1270.54 154.885 Q1266.85 157.559 1266.85 162.206 Q1266.85 166.853 1270.54 169.526 Q1274.2 172.168 1280.66 172.168 Z" fill="#000000" fill-rule="nonzero" fill-opacity="1" /><path clip-path="url(#clip940)" d="M1248.99 135.215 L1248.99 130.122 Q1256.5 125.348 1263.7 122.993 Q1270.89 120.606 1277.99 120.606 Q1285.12 120.606 1292.34 122.993 Q1299.57 125.348 1307.05 130.122 L1307.05 135.215 Q1299.76 130.982 1292.57 128.913 Q1285.34 126.812 1277.99 126.812 Q1270.64 126.812 1263.47 128.913 Q1256.31 130.982 1248.99 135.215 Z" fill="#000000" fill-rule="nonzero" fill-opacity="1" /><polyline clip-path="url(#clip943)" style="stroke:#009af9; stroke-linecap:round; stroke-linejoin:round; stroke-width:4; stroke-opacity:1; fill:none" points="1471.57,388.745 1496.74,360.559 1521.9,296.62 1547.06,222.992 1572.22,157.102 1597.38,107.782 1622.55,77.1429 1647.71,63.0581 1672.87,61.3759 1698.03,67.498 1723.2,77.3355 1748.36,87.7793 1773.52,96.8285 1798.68,103.494 1823.85,107.573 1849.01,109.384 1874.17,109.507 1899.33,108.585 1924.49,107.188 1949.66,105.742 1974.82,104.515 1999.98,103.632 2025.14,103.108 2050.31,102.892 2075.47,102.901 2100.63,103.043 2125.79,103.243 2150.95,103.443 2176.12,103.609 2201.28,103.726 2226.44,103.793 2251.6,103.819 2276.77,103.814 2301.93,103.793 2327.09,103.764 "/>
<polyline clip-path="url(#clip943)" style="stroke:#e26f46; stroke-linecap:round; stroke-linejoin:round; stroke-width:3; stroke-opacity:1; fill:none" stroke-dasharray="12, 6, 2, 6" points="1471.57,380.179 1496.74,357.8 1521.9,293.525 1547.06,222.523 1572.22,157.241 1597.38,101.952 1622.55,84.4032 1647.71,57.1907 1672.87,64.3594 1698.03,74.7429 1723.2,82.282 1748.36,89.7579 1773.52,93.3892 1798.68,99.2363 1823.85,104.642 1849.01,106.877 1874.17,113.602 1899.33,110.507 1924.49,103.411 1949.66,101.585 1974.82,105.39 1999.98,108.274 2025.14,105.089 2050.31,102.232 2075.47,103.72 2100.63,105.177 2125.79,105.955 2150.95,97.4595 2176.12,103.83 2201.28,98.9427 2226.44,99.7704 2251.6,105.908 2276.77,105.603 2301.93,99.4951 2327.09,103.812 "/>
<path clip-path="url(#clip940)" d="M2203.01 386.977 L2322.53 386.977 L2322.53 231.457 L2203.01 231.457  Z" fill="#ffffff" fill-rule="evenodd" fill-opacity="1"/>
<polyline clip-path="url(#clip940)" style="stroke:#000000; stroke-linecap:round; stroke-linejoin:round; stroke-width:4; stroke-opacity:1; fill:none" points="2203.01,386.977 2322.53,386.977 2322.53,231.457 2203.01,231.457 2203.01,386.977 "/>
<polyline clip-path="url(#clip940)" style="stroke:#009af9; stroke-linecap:round; stroke-linejoin:round; stroke-width:4; stroke-opacity:1; fill:none" points="2213.09,283.297 2273.55,283.297 "/>
<path clip-path="url(#clip940)" d="M2310.63 293.836 L2305.36 293.695 L2299.6 293.836 L2299.6 291.587 L2301.47 291.587 L2296.2 285.357 L2291.54 290.58 L2291.21 291.049 Q2291.21 291.26 2291.75 291.423 Q2292.31 291.587 2292.97 291.587 L2292.97 293.836 L2288.03 293.695 L2283.62 293.836 L2283.62 291.587 Q2285.1 291.587 2285.78 291.564 Q2286.48 291.517 2287.28 291.306 Q2288.07 291.096 2288.47 290.674 L2294.75 283.624 L2287.28 274.794 L2283.86 274.794 L2283.86 272.545 L2289.15 272.686 L2294.94 272.545 L2294.94 274.794 L2293.01 274.794 L2297.72 280.298 L2301.75 275.801 Q2301.77 275.777 2302.15 275.215 Q2301.4 274.794 2300.32 274.794 L2300.32 272.545 L2305.26 272.686 L2309.67 272.545 L2309.67 274.794 Q2307.75 274.794 2306.74 274.934 Q2305.76 275.051 2305.45 275.215 Q2305.17 275.379 2304.77 275.801 L2299.17 282.031 L2307.23 291.587 L2310.63 291.587 L2310.63 293.836 Z" fill="#000000" fill-rule="nonzero" fill-opacity="1" /><polyline clip-path="url(#clip940)" style="stroke:#e26f46; stroke-linecap:round; stroke-linejoin:round; stroke-width:3; stroke-opacity:1; fill:none" stroke-dasharray="12, 6, 2, 6" points="2213.09,335.137 2273.55,335.137 "/>
<path clip-path="url(#clip940)" d="M2306.21 323.615 L2305.8 324.287 Q2303.26 323.189 2300.09 321.434 Q2296.93 323.189 2294.39 324.287 L2293.99 323.615 Q2296.76 321.205 2300.09 319.352 Q2303.45 321.221 2306.21 323.615 Z" fill="#000000" fill-rule="nonzero" fill-opacity="1" /><path clip-path="url(#clip940)" d="M2310.63 350.681 L2305.36 350.54 L2299.6 350.681 L2299.6 348.432 L2301.47 348.432 L2296.2 342.202 L2291.54 347.425 L2291.21 347.893 Q2291.21 348.104 2291.75 348.268 Q2292.31 348.432 2292.97 348.432 L2292.97 350.681 L2288.03 350.54 L2283.62 350.681 L2283.62 348.432 Q2285.1 348.432 2285.78 348.409 Q2286.48 348.362 2287.28 348.151 Q2288.07 347.94 2288.47 347.519 L2294.75 340.468 L2287.28 331.638 L2283.86 331.638 L2283.86 329.39 L2289.15 329.53 L2294.94 329.39 L2294.94 331.638 L2293.01 331.638 L2297.72 337.142 L2301.75 332.645 Q2301.77 332.622 2302.15 332.06 Q2301.4 331.638 2300.32 331.638 L2300.32 329.39 L2305.26 329.53 L2309.67 329.39 L2309.67 331.638 Q2307.75 331.638 2306.74 331.779 Q2305.76 331.896 2305.45 332.06 Q2305.17 332.224 2304.77 332.645 L2299.17 338.876 L2307.23 348.432 L2310.63 348.432 L2310.63 350.681 Z" fill="#000000" fill-rule="nonzero" fill-opacity="1" /><path clip-path="url(#clip940)" d="M1445.91 910.936 L2352.76 910.936 L2352.76 559.488 L1445.91 559.488  Z" fill="#ffffff" fill-rule="evenodd" fill-opacity="1"/>
<defs>
  <clipPath id="clip944">
    <rect x="1445" y="559" width="908" height="352"/>
  </clipPath>
</defs>
<polyline clip-path="url(#clip944)" style="stroke:#000000; stroke-linecap:round; stroke-linejoin:round; stroke-width:2; stroke-opacity:0.1; fill:none" points="1471.57,910.936 1471.57,559.488 "/>
<polyline clip-path="url(#clip944)" style="stroke:#000000; stroke-linecap:round; stroke-linejoin:round; stroke-width:2; stroke-opacity:0.1; fill:none" points="1723.2,910.936 1723.2,559.488 "/>
<polyline clip-path="url(#clip944)" style="stroke:#000000; stroke-linecap:round; stroke-linejoin:round; stroke-width:2; stroke-opacity:0.1; fill:none" points="1974.82,910.936 1974.82,559.488 "/>
<polyline clip-path="url(#clip944)" style="stroke:#000000; stroke-linecap:round; stroke-linejoin:round; stroke-width:2; stroke-opacity:0.1; fill:none" points="2226.44,910.936 2226.44,559.488 "/>
<polyline clip-path="url(#clip944)" style="stroke:#000000; stroke-linecap:round; stroke-linejoin:round; stroke-width:2; stroke-opacity:0.1; fill:none" points="1445.91,845.56 2352.76,845.56 "/>
<polyline clip-path="url(#clip944)" style="stroke:#000000; stroke-linecap:round; stroke-linejoin:round; stroke-width:2; stroke-opacity:0.1; fill:none" points="1445.91,772.741 2352.76,772.741 "/>
<polyline clip-path="url(#clip944)" style="stroke:#000000; stroke-linecap:round; stroke-linejoin:round; stroke-width:2; stroke-opacity:0.1; fill:none" points="1445.91,699.923 2352.76,699.923 "/>
<polyline clip-path="url(#clip944)" style="stroke:#000000; stroke-linecap:round; stroke-linejoin:round; stroke-width:2; stroke-opacity:0.1; fill:none" points="1445.91,627.104 2352.76,627.104 "/>
<polyline clip-path="url(#clip940)" style="stroke:#000000; stroke-linecap:round; stroke-linejoin:round; stroke-width:4; stroke-opacity:1; fill:none" points="1445.91,910.936 2352.76,910.936 "/>
<polyline clip-path="url(#clip940)" style="stroke:#000000; stroke-linecap:round; stroke-linejoin:round; stroke-width:4; stroke-opacity:1; fill:none" points="1471.57,910.936 1471.57,892.038 "/>
<polyline clip-path="url(#clip940)" style="stroke:#000000; stroke-linecap:round; stroke-linejoin:round; stroke-width:4; stroke-opacity:1; fill:none" points="1723.2,910.936 1723.2,892.038 "/>
<polyline clip-path="url(#clip940)" style="stroke:#000000; stroke-linecap:round; stroke-linejoin:round; stroke-width:4; stroke-opacity:1; fill:none" points="1974.82,910.936 1974.82,892.038 "/>
<polyline clip-path="url(#clip940)" style="stroke:#000000; stroke-linecap:round; stroke-linejoin:round; stroke-width:4; stroke-opacity:1; fill:none" points="2226.44,910.936 2226.44,892.038 "/>
<path clip-path="url(#clip940)" d="M1471.57 941.855 Q1467.96 941.855 1466.13 945.419 Q1464.33 948.961 1464.33 956.091 Q1464.33 963.197 1466.13 966.762 Q1467.96 970.303 1471.57 970.303 Q1475.21 970.303 1477.01 966.762 Q1478.84 963.197 1478.84 956.091 Q1478.84 948.961 1477.01 945.419 Q1475.21 941.855 1471.57 941.855 M1471.57 938.151 Q1477.38 938.151 1480.44 942.757 Q1483.52 947.341 1483.52 956.091 Q1483.52 964.817 1480.44 969.424 Q1477.38 974.007 1471.57 974.007 Q1465.76 974.007 1462.68 969.424 Q1459.63 964.817 1459.63 956.091 Q1459.63 947.341 1462.68 942.757 Q1465.76 938.151 1471.57 938.151 Z" fill="#000000" fill-rule="nonzero" fill-opacity="1" /><path clip-path="url(#clip940)" d="M1713.58 969.401 L1721.22 969.401 L1721.22 943.035 L1712.91 944.702 L1712.91 940.443 L1721.17 938.776 L1725.85 938.776 L1725.85 969.401 L1733.49 969.401 L1733.49 973.336 L1713.58 973.336 L1713.58 969.401 Z" fill="#000000" fill-rule="nonzero" fill-opacity="1" /><path clip-path="url(#clip940)" d="M1969.47 969.401 L1985.79 969.401 L1985.79 973.336 L1963.85 973.336 L1963.85 969.401 Q1966.51 966.646 1971.09 962.016 Q1975.7 957.364 1976.88 956.021 Q1979.12 953.498 1980 951.762 Q1980.91 950.003 1980.91 948.313 Q1980.91 945.558 1978.96 943.822 Q1977.04 942.086 1973.94 942.086 Q1971.74 942.086 1969.29 942.85 Q1966.86 943.614 1964.08 945.165 L1964.08 940.443 Q1966.9 939.308 1969.36 938.73 Q1971.81 938.151 1973.85 938.151 Q1979.22 938.151 1982.41 940.836 Q1985.61 943.521 1985.61 948.012 Q1985.61 950.142 1984.8 952.063 Q1984.01 953.961 1981.9 956.554 Q1981.32 957.225 1978.22 960.442 Q1975.12 963.637 1969.47 969.401 Z" fill="#000000" fill-rule="nonzero" fill-opacity="1" /><path clip-path="url(#clip940)" d="M2230.69 954.702 Q2234.05 955.419 2235.92 957.688 Q2237.82 959.956 2237.82 963.29 Q2237.82 968.405 2234.3 971.206 Q2230.78 974.007 2224.3 974.007 Q2222.12 974.007 2219.81 973.567 Q2217.52 973.151 2215.06 972.294 L2215.06 967.78 Q2217.01 968.915 2219.32 969.493 Q2221.64 970.072 2224.16 970.072 Q2228.56 970.072 2230.85 968.336 Q2233.17 966.6 2233.17 963.29 Q2233.17 960.234 2231.01 958.521 Q2228.88 956.785 2225.06 956.785 L2221.04 956.785 L2221.04 952.942 L2225.25 952.942 Q2228.7 952.942 2230.53 951.577 Q2232.36 950.188 2232.36 947.595 Q2232.36 944.933 2230.46 943.521 Q2228.58 942.086 2225.06 942.086 Q2223.14 942.086 2220.94 942.503 Q2218.74 942.919 2216.11 943.799 L2216.11 939.632 Q2218.77 938.892 2221.08 938.521 Q2223.42 938.151 2225.48 938.151 Q2230.8 938.151 2233.91 940.581 Q2237.01 942.989 2237.01 947.109 Q2237.01 949.979 2235.36 951.97 Q2233.72 953.938 2230.69 954.702 Z" fill="#000000" fill-rule="nonzero" fill-opacity="1" /><polyline clip-path="url(#clip940)" style="stroke:#000000; stroke-linecap:round; stroke-linejoin:round; stroke-width:4; stroke-opacity:1; fill:none" points="1445.91,910.936 1445.91,559.488 "/>
<polyline clip-path="url(#clip940)" style="stroke:#000000; stroke-linecap:round; stroke-linejoin:round; stroke-width:4; stroke-opacity:1; fill:none" points="1445.91,845.56 1464.81,845.56 "/>
<polyline clip-path="url(#clip940)" style="stroke:#000000; stroke-linecap:round; stroke-linejoin:round; stroke-width:4; stroke-opacity:1; fill:none" points="1445.91,772.741 1464.81,772.741 "/>
<polyline clip-path="url(#clip940)" style="stroke:#000000; stroke-linecap:round; stroke-linejoin:round; stroke-width:4; stroke-opacity:1; fill:none" points="1445.91,699.923 1464.81,699.923 "/>
<polyline clip-path="url(#clip940)" style="stroke:#000000; stroke-linecap:round; stroke-linejoin:round; stroke-width:4; stroke-opacity:1; fill:none" points="1445.91,627.104 1464.81,627.104 "/>
<path clip-path="url(#clip940)" d="M1352.73 831.359 Q1349.12 831.359 1347.29 834.923 Q1345.49 838.465 1345.49 845.595 Q1345.49 852.701 1347.29 856.266 Q1349.12 859.807 1352.73 859.807 Q1356.37 859.807 1358.17 856.266 Q1360 852.701 1360 845.595 Q1360 838.465 1358.17 834.923 Q1356.37 831.359 1352.73 831.359 M1352.73 827.655 Q1358.54 827.655 1361.6 832.261 Q1364.68 836.845 1364.68 845.595 Q1364.68 854.321 1361.6 858.928 Q1358.54 863.511 1352.73 863.511 Q1346.92 863.511 1343.84 858.928 Q1340.79 854.321 1340.79 845.595 Q1340.79 836.845 1343.84 832.261 Q1346.92 827.655 1352.73 827.655 Z" fill="#000000" fill-rule="nonzero" fill-opacity="1" /><path clip-path="url(#clip940)" d="M1372.89 856.96 L1377.78 856.96 L1377.78 862.84 L1372.89 862.84 L1372.89 856.96 Z" fill="#000000" fill-rule="nonzero" fill-opacity="1" /><path clip-path="url(#clip940)" d="M1397.96 831.359 Q1394.35 831.359 1392.52 834.923 Q1390.72 838.465 1390.72 845.595 Q1390.72 852.701 1392.52 856.266 Q1394.35 859.807 1397.96 859.807 Q1401.6 859.807 1403.4 856.266 Q1405.23 852.701 1405.23 845.595 Q1405.23 838.465 1403.4 834.923 Q1401.6 831.359 1397.96 831.359 M1397.96 827.655 Q1403.77 827.655 1406.83 832.261 Q1409.91 836.845 1409.91 845.595 Q1409.91 854.321 1406.83 858.928 Q1403.77 863.511 1397.96 863.511 Q1392.15 863.511 1389.07 858.928 Q1386.02 854.321 1386.02 845.595 Q1386.02 836.845 1389.07 832.261 Q1392.15 827.655 1397.96 827.655 Z" fill="#000000" fill-rule="nonzero" fill-opacity="1" /><path clip-path="url(#clip940)" d="M1353.38 758.54 Q1349.77 758.54 1347.94 762.105 Q1346.13 765.647 1346.13 772.776 Q1346.13 779.883 1347.94 783.447 Q1349.77 786.989 1353.38 786.989 Q1357.01 786.989 1358.82 783.447 Q1360.65 779.883 1360.65 772.776 Q1360.65 765.647 1358.82 762.105 Q1357.01 758.54 1353.38 758.54 M1353.38 754.836 Q1359.19 754.836 1362.25 759.443 Q1365.32 764.026 1365.32 772.776 Q1365.32 781.503 1362.25 786.109 Q1359.19 790.693 1353.38 790.693 Q1347.57 790.693 1344.49 786.109 Q1341.44 781.503 1341.44 772.776 Q1341.44 764.026 1344.49 759.443 Q1347.57 754.836 1353.38 754.836 Z" fill="#000000" fill-rule="nonzero" fill-opacity="1" /><path clip-path="url(#clip940)" d="M1373.54 784.142 L1378.43 784.142 L1378.43 790.021 L1373.54 790.021 L1373.54 784.142 Z" fill="#000000" fill-rule="nonzero" fill-opacity="1" /><path clip-path="url(#clip940)" d="M1402.78 771.387 Q1406.13 772.105 1408.01 774.373 Q1409.91 776.642 1409.91 779.975 Q1409.91 785.091 1406.39 787.892 Q1402.87 790.693 1396.39 790.693 Q1394.21 790.693 1391.9 790.253 Q1389.61 789.836 1387.15 788.98 L1387.15 784.466 Q1389.1 785.6 1391.41 786.179 Q1393.73 786.758 1396.25 786.758 Q1400.65 786.758 1402.94 785.021 Q1405.26 783.285 1405.26 779.975 Q1405.26 776.92 1403.1 775.207 Q1400.97 773.471 1397.15 773.471 L1393.13 773.471 L1393.13 769.628 L1397.34 769.628 Q1400.79 769.628 1402.62 768.262 Q1404.44 766.873 1404.44 764.281 Q1404.44 761.619 1402.55 760.207 Q1400.67 758.772 1397.15 758.772 Q1395.23 758.772 1393.03 759.188 Q1390.83 759.605 1388.19 760.485 L1388.19 756.318 Q1390.86 755.577 1393.17 755.207 Q1395.51 754.836 1397.57 754.836 Q1402.89 754.836 1406 757.267 Q1409.1 759.674 1409.1 763.795 Q1409.1 766.665 1407.45 768.656 Q1405.81 770.623 1402.78 771.387 Z" fill="#000000" fill-rule="nonzero" fill-opacity="1" /><path clip-path="url(#clip940)" d="M1352.57 685.722 Q1348.96 685.722 1347.13 689.286 Q1345.32 692.828 1345.32 699.958 Q1345.32 707.064 1347.13 710.629 Q1348.96 714.171 1352.57 714.171 Q1356.2 714.171 1358.01 710.629 Q1359.84 707.064 1359.84 699.958 Q1359.84 692.828 1358.01 689.286 Q1356.2 685.722 1352.57 685.722 M1352.57 682.018 Q1358.38 682.018 1361.44 686.624 Q1364.51 691.208 1364.51 699.958 Q1364.51 708.684 1361.44 713.291 Q1358.38 717.874 1352.57 717.874 Q1346.76 717.874 1343.68 713.291 Q1340.63 708.684 1340.63 699.958 Q1340.63 691.208 1343.68 686.624 Q1346.76 682.018 1352.57 682.018 Z" fill="#000000" fill-rule="nonzero" fill-opacity="1" /><path clip-path="url(#clip940)" d="M1372.73 711.323 L1377.62 711.323 L1377.62 717.203 L1372.73 717.203 L1372.73 711.323 Z" fill="#000000" fill-rule="nonzero" fill-opacity="1" /><path clip-path="url(#clip940)" d="M1398.38 698.059 Q1395.23 698.059 1393.38 700.212 Q1391.55 702.365 1391.55 706.115 Q1391.55 709.842 1393.38 712.018 Q1395.23 714.171 1398.38 714.171 Q1401.53 714.171 1403.36 712.018 Q1405.21 709.842 1405.21 706.115 Q1405.21 702.365 1403.36 700.212 Q1401.53 698.059 1398.38 698.059 M1407.66 683.407 L1407.66 687.666 Q1405.9 686.833 1404.1 686.393 Q1402.32 685.953 1400.56 685.953 Q1395.93 685.953 1393.47 689.078 Q1391.04 692.203 1390.69 698.522 Q1392.06 696.509 1394.12 695.444 Q1396.18 694.356 1398.66 694.356 Q1403.87 694.356 1406.88 697.527 Q1409.91 700.675 1409.91 706.115 Q1409.91 711.439 1406.76 714.657 Q1403.61 717.874 1398.38 717.874 Q1392.38 717.874 1389.21 713.291 Q1386.04 708.684 1386.04 699.958 Q1386.04 691.763 1389.93 686.902 Q1393.82 682.018 1400.37 682.018 Q1402.13 682.018 1403.91 682.365 Q1405.72 682.712 1407.66 683.407 Z" fill="#000000" fill-rule="nonzero" fill-opacity="1" /><path clip-path="url(#clip940)" d="M1352.92 612.903 Q1349.31 612.903 1347.48 616.468 Q1345.67 620.01 1345.67 627.139 Q1345.67 634.246 1347.48 637.81 Q1349.31 641.352 1352.92 641.352 Q1356.55 641.352 1358.36 637.81 Q1360.19 634.246 1360.19 627.139 Q1360.19 620.01 1358.36 616.468 Q1356.55 612.903 1352.92 612.903 M1352.92 609.199 Q1358.73 609.199 1361.78 613.806 Q1364.86 618.389 1364.86 627.139 Q1364.86 635.866 1361.78 640.472 Q1358.73 645.056 1352.92 645.056 Q1347.11 645.056 1344.03 640.472 Q1340.97 635.866 1340.97 627.139 Q1340.97 618.389 1344.03 613.806 Q1347.11 609.199 1352.92 609.199 Z" fill="#000000" fill-rule="nonzero" fill-opacity="1" /><path clip-path="url(#clip940)" d="M1373.08 638.505 L1377.96 638.505 L1377.96 644.384 L1373.08 644.384 L1373.08 638.505 Z" fill="#000000" fill-rule="nonzero" fill-opacity="1" /><path clip-path="url(#clip940)" d="M1388.29 643.667 L1388.29 639.408 Q1390.05 640.241 1391.85 640.681 Q1393.66 641.121 1395.39 641.121 Q1400.02 641.121 1402.45 638.019 Q1404.91 634.894 1405.26 628.551 Q1403.91 630.542 1401.85 631.607 Q1399.79 632.672 1397.29 632.672 Q1392.11 632.672 1389.07 629.547 Q1386.07 626.398 1386.07 620.959 Q1386.07 615.635 1389.21 612.417 Q1392.36 609.199 1397.59 609.199 Q1403.59 609.199 1406.74 613.806 Q1409.91 618.389 1409.91 627.139 Q1409.91 635.31 1406.02 640.195 Q1402.15 645.056 1395.6 645.056 Q1393.84 645.056 1392.04 644.708 Q1390.23 644.361 1388.29 643.667 M1397.59 629.014 Q1400.74 629.014 1402.57 626.861 Q1404.42 624.709 1404.42 620.959 Q1404.42 617.232 1402.57 615.079 Q1400.74 612.903 1397.59 612.903 Q1394.44 612.903 1392.59 615.079 Q1390.76 617.232 1390.76 620.959 Q1390.76 624.709 1392.59 626.861 Q1394.44 629.014 1397.59 629.014 Z" fill="#000000" fill-rule="nonzero" fill-opacity="1" /><path clip-path="url(#clip940)" d="M1265.64 831.559 Q1268.64 831.559 1274.44 833.072 Q1276.95 833.684 1279.23 834.522 Q1281.49 835.327 1283.68 836.518 Q1285.87 837.71 1287.45 839.095 Q1288.99 840.48 1289.96 842.283 Q1290.92 844.087 1290.92 846.084 Q1290.92 849.24 1289.06 851.108 Q1287.16 852.943 1283.9 853.523 Q1290.92 857.839 1290.92 863.604 Q1290.92 867.178 1288.38 868.853 Q1285.8 870.528 1281.49 870.528 Q1277.85 870.528 1274.08 869.562 Q1266.93 867.726 1261.94 864.151 Q1261.36 863.668 1261.36 862.959 Q1261.36 862.541 1261.49 862.347 Q1261.84 861.768 1262.42 861.768 Q1262.84 861.768 1263.26 862.09 Q1266.38 864.344 1269.06 865.826 Q1271.73 867.307 1274.44 867.984 Q1276.75 868.499 1278.72 868.499 Q1282.04 868.499 1284.1 867.082 Q1286.16 865.632 1286.16 862.766 Q1286.16 860.125 1284.52 857.806 Q1282.84 855.488 1280.04 853.781 Q1276.98 853.684 1274.08 852.943 Q1270.99 852.267 1270.99 850.689 Q1270.99 849.433 1272.7 849.433 Q1273.28 849.433 1274.44 849.691 Q1277.49 850.399 1280.23 851.687 Q1282.91 851.236 1284.55 849.562 Q1286.16 847.887 1286.16 845.214 Q1286.16 842.734 1284.35 840.544 Q1282.55 838.322 1279.91 836.905 Q1277.24 835.456 1274.08 834.65 Q1273.02 834.393 1271.67 834.393 Q1268.06 834.393 1265.84 836.905 Q1265.13 837.613 1264.19 837.613 Q1263.1 837.613 1262.1 836.712 Q1261.04 835.649 1261.04 834.393 Q1261.04 833.459 1261.62 832.879 Q1262.78 831.559 1265.64 831.559 Z" fill="#000000" fill-rule="nonzero" fill-opacity="1" /><path clip-path="url(#clip940)" d="M1240.72 788.989 Q1248.04 793.255 1255.2 795.323 Q1262.37 797.392 1269.72 797.392 Q1277.07 797.392 1284.3 795.323 Q1291.49 793.223 1298.78 788.989 L1298.78 794.082 Q1291.3 798.856 1284.07 801.243 Q1276.85 803.599 1269.72 803.599 Q1262.62 803.599 1255.43 801.243 Q1248.23 798.888 1240.72 794.082 L1240.72 788.989 Z" fill="#000000" fill-rule="nonzero" fill-opacity="1" /><path clip-path="url(#clip940)" d="M1260.01 756.97 Q1259.44 757.957 1259.18 759.134 Q1258.9 760.28 1258.9 761.681 Q1258.9 766.646 1262.14 769.319 Q1265.36 771.961 1271.41 771.961 L1290.18 771.961 L1290.18 777.85 L1254.54 777.85 L1254.54 771.961 L1260.07 771.961 Q1256.83 770.115 1255.27 767.155 Q1253.68 764.195 1253.68 759.962 Q1253.68 759.357 1253.77 758.625 Q1253.84 757.893 1254 757.002 L1260.01 756.97 Z" fill="#000000" fill-rule="nonzero" fill-opacity="1" /><path clip-path="url(#clip940)" d="M1272.26 734.626 Q1272.26 741.724 1273.89 744.461 Q1275.51 747.199 1279.43 747.199 Q1282.55 747.199 1284.39 745.162 Q1286.21 743.093 1286.21 739.56 Q1286.21 734.69 1282.77 731.762 Q1279.3 728.802 1273.57 728.802 L1272.26 728.802 L1272.26 734.626 M1269.85 722.945 L1290.18 722.945 L1290.18 728.802 L1284.77 728.802 Q1288.02 730.807 1289.58 733.799 Q1291.11 736.791 1291.11 741.119 Q1291.11 746.594 1288.05 749.84 Q1284.96 753.055 1279.81 753.055 Q1273.79 753.055 1270.74 749.045 Q1267.68 745.002 1267.68 737.013 L1267.68 728.802 L1267.11 728.802 Q1263.07 728.802 1260.87 731.475 Q1258.64 734.117 1258.64 738.923 Q1258.64 741.979 1259.37 744.875 Q1260.11 747.772 1261.57 750.445 L1256.16 750.445 Q1254.92 747.23 1254.31 744.207 Q1253.68 741.183 1253.68 738.318 Q1253.68 730.584 1257.69 726.765 Q1261.7 722.945 1269.85 722.945 Z" fill="#000000" fill-rule="nonzero" fill-opacity="1" /><path clip-path="url(#clip940)" d="M1259.95 687.425 L1240.66 687.425 L1240.66 681.568 L1290.18 681.568 L1290.18 687.425 L1284.84 687.425 Q1288.02 689.271 1289.58 692.103 Q1291.11 694.904 1291.11 698.851 Q1291.11 705.312 1285.95 709.386 Q1280.79 713.429 1272.39 713.429 Q1263.99 713.429 1258.83 709.386 Q1253.68 705.312 1253.68 698.851 Q1253.68 694.904 1255.24 692.103 Q1256.76 689.271 1259.95 687.425 M1272.39 707.381 Q1278.85 707.381 1282.55 704.739 Q1286.21 702.066 1286.21 697.419 Q1286.21 692.772 1282.55 690.098 Q1278.85 687.425 1272.39 687.425 Q1265.93 687.425 1262.27 690.098 Q1258.58 692.772 1258.58 697.419 Q1258.58 702.066 1262.27 704.739 Q1265.93 707.381 1272.39 707.381 Z" fill="#000000" fill-rule="nonzero" fill-opacity="1" /><path clip-path="url(#clip940)" d="M1242.66 659.097 L1242.66 653.686 L1296.23 670.237 L1296.23 675.648 L1242.66 659.097 Z" fill="#000000" fill-rule="nonzero" fill-opacity="1" /><path clip-path="url(#clip940)" d="M1255.59 624.818 L1261.12 624.818 Q1259.85 627.301 1259.21 629.974 Q1258.58 632.648 1258.58 635.512 Q1258.58 639.873 1259.92 642.069 Q1261.25 644.233 1263.93 644.233 Q1265.96 644.233 1267.14 642.674 Q1268.29 641.114 1269.34 636.404 L1269.78 634.398 Q1271.12 628.16 1273.57 625.55 Q1275.99 622.908 1280.35 622.908 Q1285.31 622.908 1288.21 626.855 Q1291.11 630.77 1291.11 637.645 Q1291.11 640.509 1290.53 643.629 Q1289.99 646.716 1288.88 650.153 L1282.83 650.153 Q1284.52 646.907 1285.38 643.756 Q1286.21 640.605 1286.21 637.517 Q1286.21 633.38 1284.81 631.152 Q1283.37 628.924 1280.79 628.924 Q1278.41 628.924 1277.13 630.547 Q1275.86 632.138 1274.68 637.581 L1274.21 639.618 Q1273.06 645.061 1270.71 647.48 Q1268.32 649.899 1264.18 649.899 Q1259.15 649.899 1256.41 646.334 Q1253.68 642.769 1253.68 636.213 Q1253.68 632.966 1254.15 630.101 Q1254.63 627.237 1255.59 624.818 Z" fill="#000000" fill-rule="nonzero" fill-opacity="1" /><path clip-path="url(#clip940)" d="M1240.72 614.505 L1240.72 609.413 Q1248.23 604.639 1255.43 602.283 Q1262.62 599.896 1269.72 599.896 Q1276.85 599.896 1284.07 602.283 Q1291.3 604.639 1298.78 609.413 L1298.78 614.505 Q1291.49 610.272 1284.3 608.203 Q1277.07 606.103 1269.72 606.103 Q1262.37 606.103 1255.2 608.203 Q1248.04 610.272 1240.72 614.505 Z" fill="#000000" fill-rule="nonzero" fill-opacity="1" /><polyline clip-path="url(#clip944)" style="stroke:#009af9; stroke-linecap:round; stroke-linejoin:round; stroke-width:4; stroke-opacity:1; fill:none" points="1471.57,845.56 1496.74,654.452 1521.9,574.526 1547.06,576.644 1572.22,627.077 1597.38,696.434 1622.55,764.194 1647.71,819.01 1672.87,856.687 1698.03,877.697 1723.2,885.08 1748.36,882.916 1773.52,875.274 1798.68,865.571 1823.85,856.256 1849.01,848.767 1874.17,843.671 1899.33,840.905 1924.49,840.027 1949.66,840.445 1974.82,841.576 1999.98,842.946 2025.14,844.225 2050.31,845.23 2075.47,845.896 2100.63,846.242 2125.79,846.336 2150.95,846.259 2176.12,846.093 2201.28,845.901 2226.44,845.726 2251.6,845.591 2276.77,845.504 2301.93,845.461 2327.09,845.452 "/>
<polyline clip-path="url(#clip944)" style="stroke:#e26f46; stroke-linecap:round; stroke-linejoin:round; stroke-width:3; stroke-opacity:1; fill:none" stroke-dasharray="12, 6, 2, 6" points="1471.57,845.56 1496.74,664.014 1521.9,569.435 1547.06,573.92 1572.22,623.831 1597.38,686.612 1622.55,787.056 1647.71,814.699 1672.87,878.818 1698.03,900.989 1723.2,897.469 1748.36,889.584 1773.52,875.882 1798.68,870.354 1823.85,864.383 1849.01,855.257 1874.17,856.757 1899.33,841.923 1924.49,832.133 1949.66,838.171 1974.82,848.891 1999.98,850.521 2025.14,841.986 2050.31,840.231 2075.47,846.404 2100.63,848.218 2125.79,847.441 2150.95,834.37 2176.12,852.12 2201.28,841.614 2226.44,846.684 2251.6,855.365 2276.77,847.841 2301.93,837.177 2327.09,849.171 "/>
<path clip-path="url(#clip940)" d="M2203.01 726.723 L2322.53 726.723 L2322.53 571.203 L2203.01 571.203  Z" fill="#ffffff" fill-rule="evenodd" fill-opacity="1"/>
<polyline clip-path="url(#clip940)" style="stroke:#000000; stroke-linecap:round; stroke-linejoin:round; stroke-width:4; stroke-opacity:1; fill:none" points="2203.01,726.723 2322.53,726.723 2322.53,571.203 2203.01,571.203 2203.01,726.723 "/>
<polyline clip-path="url(#clip940)" style="stroke:#009af9; stroke-linecap:round; stroke-linejoin:round; stroke-width:4; stroke-opacity:1; fill:none" points="2213.09,623.043 2273.55,623.043 "/>
<path clip-path="url(#clip940)" d="M2310.63 633.582 L2305.36 633.442 L2299.6 633.582 L2299.6 631.334 L2301.47 631.334 L2296.2 625.103 L2291.54 630.326 L2291.21 630.795 Q2291.21 631.006 2291.75 631.17 Q2292.31 631.334 2292.97 631.334 L2292.97 633.582 L2288.03 633.442 L2283.62 633.582 L2283.62 631.334 Q2285.1 631.334 2285.78 631.31 Q2286.48 631.263 2287.28 631.052 Q2288.07 630.842 2288.47 630.42 L2294.75 623.37 L2287.28 614.54 L2283.86 614.54 L2283.86 612.291 L2289.15 612.432 L2294.94 612.291 L2294.94 614.54 L2293.01 614.54 L2297.72 620.044 L2301.75 615.547 Q2301.77 615.523 2302.15 614.961 Q2301.4 614.54 2300.32 614.54 L2300.32 612.291 L2305.26 612.432 L2309.67 612.291 L2309.67 614.54 Q2307.75 614.54 2306.74 614.68 Q2305.76 614.797 2305.45 614.961 Q2305.17 615.125 2304.77 615.547 L2299.17 621.777 L2307.23 631.334 L2310.63 631.334 L2310.63 633.582 Z" fill="#000000" fill-rule="nonzero" fill-opacity="1" /><polyline clip-path="url(#clip940)" style="stroke:#e26f46; stroke-linecap:round; stroke-linejoin:round; stroke-width:3; stroke-opacity:1; fill:none" stroke-dasharray="12, 6, 2, 6" points="2213.09,674.883 2273.55,674.883 "/>
<path clip-path="url(#clip940)" d="M2306.21 663.361 L2305.8 664.033 Q2303.26 662.935 2300.09 661.18 Q2296.93 662.935 2294.39 664.033 L2293.99 663.361 Q2296.76 660.951 2300.09 659.098 Q2303.45 660.967 2306.21 663.361 Z" fill="#000000" fill-rule="nonzero" fill-opacity="1" /><path clip-path="url(#clip940)" d="M2310.63 690.427 L2305.36 690.286 L2299.6 690.427 L2299.6 688.178 L2301.47 688.178 L2296.2 681.948 L2291.54 687.171 L2291.21 687.639 Q2291.21 687.85 2291.75 688.014 Q2292.31 688.178 2292.97 688.178 L2292.97 690.427 L2288.03 690.286 L2283.62 690.427 L2283.62 688.178 Q2285.1 688.178 2285.78 688.155 Q2286.48 688.108 2287.28 687.897 Q2288.07 687.686 2288.47 687.265 L2294.75 680.214 L2287.28 671.384 L2283.86 671.384 L2283.86 669.136 L2289.15 669.276 L2294.94 669.136 L2294.94 671.384 L2293.01 671.384 L2297.72 676.888 L2301.75 672.391 Q2301.77 672.368 2302.15 671.806 Q2301.4 671.384 2300.32 671.384 L2300.32 669.136 L2305.26 669.276 L2309.67 669.136 L2309.67 671.384 Q2307.75 671.384 2306.74 671.525 Q2305.76 671.642 2305.45 671.806 Q2305.17 671.97 2304.77 672.391 L2299.17 678.622 L2307.23 688.178 L2310.63 688.178 L2310.63 690.427 Z" fill="#000000" fill-rule="nonzero" fill-opacity="1" /><path clip-path="url(#clip940)" d="M1445.91 1423.18 L2352.76 1423.18 L2352.76 1071.73 L1445.91 1071.73  Z" fill="#ffffff" fill-rule="evenodd" fill-opacity="1"/>
<defs>
  <clipPath id="clip945">
    <rect x="1445" y="1071" width="908" height="352"/>
  </clipPath>
</defs>
<polyline clip-path="url(#clip945)" style="stroke:#000000; stroke-linecap:round; stroke-linejoin:round; stroke-width:2; stroke-opacity:0.1; fill:none" points="1471.57,1423.18 1471.57,1071.73 "/>
<polyline clip-path="url(#clip945)" style="stroke:#000000; stroke-linecap:round; stroke-linejoin:round; stroke-width:2; stroke-opacity:0.1; fill:none" points="1723.2,1423.18 1723.2,1071.73 "/>
<polyline clip-path="url(#clip945)" style="stroke:#000000; stroke-linecap:round; stroke-linejoin:round; stroke-width:2; stroke-opacity:0.1; fill:none" points="1974.82,1423.18 1974.82,1071.73 "/>
<polyline clip-path="url(#clip945)" style="stroke:#000000; stroke-linecap:round; stroke-linejoin:round; stroke-width:2; stroke-opacity:0.1; fill:none" points="2226.44,1423.18 2226.44,1071.73 "/>
<polyline clip-path="url(#clip945)" style="stroke:#000000; stroke-linecap:round; stroke-linejoin:round; stroke-width:2; stroke-opacity:0.1; fill:none" points="1445.91,1398.39 2352.76,1398.39 "/>
<polyline clip-path="url(#clip945)" style="stroke:#000000; stroke-linecap:round; stroke-linejoin:round; stroke-width:2; stroke-opacity:0.1; fill:none" points="1445.91,1338.15 2352.76,1338.15 "/>
<polyline clip-path="url(#clip945)" style="stroke:#000000; stroke-linecap:round; stroke-linejoin:round; stroke-width:2; stroke-opacity:0.1; fill:none" points="1445.91,1277.91 2352.76,1277.91 "/>
<polyline clip-path="url(#clip945)" style="stroke:#000000; stroke-linecap:round; stroke-linejoin:round; stroke-width:2; stroke-opacity:0.1; fill:none" points="1445.91,1217.67 2352.76,1217.67 "/>
<polyline clip-path="url(#clip945)" style="stroke:#000000; stroke-linecap:round; stroke-linejoin:round; stroke-width:2; stroke-opacity:0.1; fill:none" points="1445.91,1157.44 2352.76,1157.44 "/>
<polyline clip-path="url(#clip945)" style="stroke:#000000; stroke-linecap:round; stroke-linejoin:round; stroke-width:2; stroke-opacity:0.1; fill:none" points="1445.91,1097.2 2352.76,1097.2 "/>
<polyline clip-path="url(#clip940)" style="stroke:#000000; stroke-linecap:round; stroke-linejoin:round; stroke-width:4; stroke-opacity:1; fill:none" points="1445.91,1423.18 2352.76,1423.18 "/>
<polyline clip-path="url(#clip940)" style="stroke:#000000; stroke-linecap:round; stroke-linejoin:round; stroke-width:4; stroke-opacity:1; fill:none" points="1471.57,1423.18 1471.57,1404.28 "/>
<polyline clip-path="url(#clip940)" style="stroke:#000000; stroke-linecap:round; stroke-linejoin:round; stroke-width:4; stroke-opacity:1; fill:none" points="1723.2,1423.18 1723.2,1404.28 "/>
<polyline clip-path="url(#clip940)" style="stroke:#000000; stroke-linecap:round; stroke-linejoin:round; stroke-width:4; stroke-opacity:1; fill:none" points="1974.82,1423.18 1974.82,1404.28 "/>
<polyline clip-path="url(#clip940)" style="stroke:#000000; stroke-linecap:round; stroke-linejoin:round; stroke-width:4; stroke-opacity:1; fill:none" points="2226.44,1423.18 2226.44,1404.28 "/>
<path clip-path="url(#clip940)" d="M1471.57 1454.1 Q1467.96 1454.1 1466.13 1457.66 Q1464.33 1461.2 1464.33 1468.33 Q1464.33 1475.44 1466.13 1479.01 Q1467.96 1482.55 1471.57 1482.55 Q1475.21 1482.55 1477.01 1479.01 Q1478.84 1475.44 1478.84 1468.33 Q1478.84 1461.2 1477.01 1457.66 Q1475.21 1454.1 1471.57 1454.1 M1471.57 1450.39 Q1477.38 1450.39 1480.44 1455 Q1483.52 1459.58 1483.52 1468.33 Q1483.52 1477.06 1480.44 1481.67 Q1477.38 1486.25 1471.57 1486.25 Q1465.76 1486.25 1462.68 1481.67 Q1459.63 1477.06 1459.63 1468.33 Q1459.63 1459.58 1462.68 1455 Q1465.76 1450.39 1471.57 1450.39 Z" fill="#000000" fill-rule="nonzero" fill-opacity="1" /><path clip-path="url(#clip940)" d="M1713.58 1481.64 L1721.22 1481.64 L1721.22 1455.28 L1712.91 1456.95 L1712.91 1452.69 L1721.17 1451.02 L1725.85 1451.02 L1725.85 1481.64 L1733.49 1481.64 L1733.49 1485.58 L1713.58 1485.58 L1713.58 1481.64 Z" fill="#000000" fill-rule="nonzero" fill-opacity="1" /><path clip-path="url(#clip940)" d="M1969.47 1481.64 L1985.79 1481.64 L1985.79 1485.58 L1963.85 1485.58 L1963.85 1481.64 Q1966.51 1478.89 1971.09 1474.26 Q1975.7 1469.61 1976.88 1468.27 Q1979.12 1465.74 1980 1464.01 Q1980.91 1462.25 1980.91 1460.56 Q1980.91 1457.8 1978.96 1456.07 Q1977.04 1454.33 1973.94 1454.33 Q1971.74 1454.33 1969.29 1455.09 Q1966.86 1455.86 1964.08 1457.41 L1964.08 1452.69 Q1966.9 1451.55 1969.36 1450.97 Q1971.81 1450.39 1973.85 1450.39 Q1979.22 1450.39 1982.41 1453.08 Q1985.61 1455.77 1985.61 1460.26 Q1985.61 1462.39 1984.8 1464.31 Q1984.01 1466.2 1981.9 1468.8 Q1981.32 1469.47 1978.22 1472.69 Q1975.12 1475.88 1969.47 1481.64 Z" fill="#000000" fill-rule="nonzero" fill-opacity="1" /><path clip-path="url(#clip940)" d="M2230.69 1466.95 Q2234.05 1467.66 2235.92 1469.93 Q2237.82 1472.2 2237.82 1475.53 Q2237.82 1480.65 2234.3 1483.45 Q2230.78 1486.25 2224.3 1486.25 Q2222.12 1486.25 2219.81 1485.81 Q2217.52 1485.39 2215.06 1484.54 L2215.06 1480.02 Q2217.01 1481.16 2219.32 1481.74 Q2221.64 1482.32 2224.16 1482.32 Q2228.56 1482.32 2230.85 1480.58 Q2233.17 1478.84 2233.17 1475.53 Q2233.17 1472.48 2231.01 1470.77 Q2228.88 1469.03 2225.06 1469.03 L2221.04 1469.03 L2221.04 1465.19 L2225.25 1465.19 Q2228.7 1465.19 2230.53 1463.82 Q2232.36 1462.43 2232.36 1459.84 Q2232.36 1457.18 2230.46 1455.77 Q2228.58 1454.33 2225.06 1454.33 Q2223.14 1454.33 2220.94 1454.75 Q2218.74 1455.16 2216.11 1456.04 L2216.11 1451.88 Q2218.77 1451.14 2221.08 1450.77 Q2223.42 1450.39 2225.48 1450.39 Q2230.8 1450.39 2233.91 1452.83 Q2237.01 1455.23 2237.01 1459.35 Q2237.01 1462.22 2235.36 1464.21 Q2233.72 1466.18 2230.69 1466.95 Z" fill="#000000" fill-rule="nonzero" fill-opacity="1" /><path clip-path="url(#clip940)" d="M1769.5 1520.52 L1809.7 1520.52 L1809.7 1525.93 L1792.83 1525.93 L1792.83 1568.04 L1786.37 1568.04 L1786.37 1525.93 L1769.5 1525.93 L1769.5 1520.52 Z" fill="#000000" fill-rule="nonzero" fill-opacity="1" /><path clip-path="url(#clip940)" d="M1813.65 1532.4 L1819.51 1532.4 L1819.51 1568.04 L1813.65 1568.04 L1813.65 1532.4 M1813.65 1518.52 L1819.51 1518.52 L1819.51 1525.93 L1813.65 1525.93 L1813.65 1518.52 Z" fill="#000000" fill-rule="nonzero" fill-opacity="1" /><path clip-path="url(#clip940)" d="M1859.51 1539.24 Q1861.71 1535.29 1864.77 1533.41 Q1867.82 1531.54 1871.96 1531.54 Q1877.53 1531.54 1880.55 1535.45 Q1883.58 1539.33 1883.58 1546.53 L1883.58 1568.04 L1877.69 1568.04 L1877.69 1546.72 Q1877.69 1541.59 1875.87 1539.11 Q1874.06 1536.63 1870.34 1536.63 Q1865.78 1536.63 1863.14 1539.65 Q1860.5 1542.68 1860.5 1547.9 L1860.5 1568.04 L1854.61 1568.04 L1854.61 1546.72 Q1854.61 1541.56 1852.8 1539.11 Q1850.98 1536.63 1847.2 1536.63 Q1842.71 1536.63 1840.07 1539.68 Q1837.43 1542.71 1837.43 1547.9 L1837.43 1568.04 L1831.54 1568.04 L1831.54 1532.4 L1837.43 1532.4 L1837.43 1537.93 Q1839.43 1534.66 1842.23 1533.1 Q1845.03 1531.54 1848.88 1531.54 Q1852.77 1531.54 1855.47 1533.51 Q1858.21 1535.48 1859.51 1539.24 Z" fill="#000000" fill-rule="nonzero" fill-opacity="1" /><path clip-path="url(#clip940)" d="M1925.75 1548.76 L1925.75 1551.62 L1898.82 1551.62 Q1899.2 1557.67 1902.45 1560.85 Q1905.73 1564 1911.55 1564 Q1914.93 1564 1918.08 1563.17 Q1921.26 1562.35 1924.38 1560.69 L1924.38 1566.23 Q1921.23 1567.57 1917.92 1568.27 Q1914.61 1568.97 1911.2 1568.97 Q1902.67 1568.97 1897.68 1564 Q1892.71 1559.04 1892.71 1550.57 Q1892.71 1541.82 1897.42 1536.69 Q1902.16 1531.54 1910.19 1531.54 Q1917.38 1531.54 1921.55 1536.18 Q1925.75 1540.8 1925.75 1548.76 M1919.89 1547.04 Q1919.83 1542.23 1917.19 1539.37 Q1914.58 1536.5 1910.25 1536.5 Q1905.35 1536.5 1902.39 1539.27 Q1899.46 1542.04 1899.01 1547.07 L1919.89 1547.04 Z" fill="#000000" fill-rule="nonzero" fill-opacity="1" /><path clip-path="url(#clip940)" d="M1970.15 1518.58 Q1965.89 1525.9 1963.82 1533.06 Q1961.75 1540.23 1961.75 1547.58 Q1961.75 1554.93 1963.82 1562.16 Q1965.92 1569.35 1970.15 1576.64 L1965.06 1576.64 Q1960.28 1569.16 1957.9 1561.93 Q1955.54 1554.71 1955.54 1547.58 Q1955.54 1540.48 1957.9 1533.29 Q1960.25 1526.09 1965.06 1518.58 L1970.15 1518.58 Z" fill="#000000" fill-rule="nonzero" fill-opacity="1" /><path clip-path="url(#clip940)" d="M2004.24 1533.45 L2004.24 1538.98 Q2001.76 1537.71 1999.08 1537.07 Q1996.41 1536.44 1993.54 1536.44 Q1989.18 1536.44 1986.99 1537.77 Q1984.82 1539.11 1984.82 1541.79 Q1984.82 1543.82 1986.38 1545 Q1987.94 1546.15 1992.65 1547.2 L1994.66 1547.64 Q2000.9 1548.98 2003.51 1551.43 Q2006.15 1553.85 2006.15 1558.21 Q2006.15 1563.17 2002.2 1566.07 Q1998.29 1568.97 1991.41 1568.97 Q1988.55 1568.97 1985.43 1568.39 Q1982.34 1567.85 1978.9 1566.74 L1978.9 1560.69 Q1982.15 1562.38 1985.3 1563.24 Q1988.45 1564.07 1991.54 1564.07 Q1995.68 1564.07 1997.9 1562.66 Q2000.13 1561.23 2000.13 1558.65 Q2000.13 1556.27 1998.51 1554.99 Q1996.92 1553.72 1991.48 1552.54 L1989.44 1552.07 Q1984 1550.92 1981.58 1548.56 Q1979.16 1546.18 1979.16 1542.04 Q1979.16 1537.01 1982.72 1534.27 Q1986.29 1531.54 1992.84 1531.54 Q1996.09 1531.54 1998.96 1532.01 Q2001.82 1532.49 2004.24 1533.45 Z" fill="#000000" fill-rule="nonzero" fill-opacity="1" /><path clip-path="url(#clip940)" d="M2014.55 1518.58 L2019.64 1518.58 Q2024.42 1526.09 2026.77 1533.29 Q2029.16 1540.48 2029.16 1547.58 Q2029.16 1554.71 2026.77 1561.93 Q2024.42 1569.16 2019.64 1576.64 L2014.55 1576.64 Q2018.78 1569.35 2020.85 1562.16 Q2022.95 1554.93 2022.95 1547.58 Q2022.95 1540.23 2020.85 1533.06 Q2018.78 1525.9 2014.55 1518.58 Z" fill="#000000" fill-rule="nonzero" fill-opacity="1" /><polyline clip-path="url(#clip940)" style="stroke:#000000; stroke-linecap:round; stroke-linejoin:round; stroke-width:4; stroke-opacity:1; fill:none" points="1445.91,1423.18 1445.91,1071.73 "/>
<polyline clip-path="url(#clip940)" style="stroke:#000000; stroke-linecap:round; stroke-linejoin:round; stroke-width:4; stroke-opacity:1; fill:none" points="1445.91,1398.39 1464.81,1398.39 "/>
<polyline clip-path="url(#clip940)" style="stroke:#000000; stroke-linecap:round; stroke-linejoin:round; stroke-width:4; stroke-opacity:1; fill:none" points="1445.91,1338.15 1464.81,1338.15 "/>
<polyline clip-path="url(#clip940)" style="stroke:#000000; stroke-linecap:round; stroke-linejoin:round; stroke-width:4; stroke-opacity:1; fill:none" points="1445.91,1277.91 1464.81,1277.91 "/>
<polyline clip-path="url(#clip940)" style="stroke:#000000; stroke-linecap:round; stroke-linejoin:round; stroke-width:4; stroke-opacity:1; fill:none" points="1445.91,1217.67 1464.81,1217.67 "/>
<polyline clip-path="url(#clip940)" style="stroke:#000000; stroke-linecap:round; stroke-linejoin:round; stroke-width:4; stroke-opacity:1; fill:none" points="1445.91,1157.44 1464.81,1157.44 "/>
<polyline clip-path="url(#clip940)" style="stroke:#000000; stroke-linecap:round; stroke-linejoin:round; stroke-width:4; stroke-opacity:1; fill:none" points="1445.91,1097.2 1464.81,1097.2 "/>
<path clip-path="url(#clip940)" d="M1273.8 1398.84 L1303.47 1398.84 L1303.47 1402.78 L1273.8 1402.78 L1273.8 1398.84 Z" fill="#000000" fill-rule="nonzero" fill-opacity="1" /><path clip-path="url(#clip940)" d="M1323.57 1384.19 Q1319.95 1384.19 1318.13 1387.75 Q1316.32 1391.29 1316.32 1398.42 Q1316.32 1405.53 1318.13 1409.1 Q1319.95 1412.64 1323.57 1412.64 Q1327.2 1412.64 1329.01 1409.1 Q1330.83 1405.53 1330.83 1398.42 Q1330.83 1391.29 1329.01 1387.75 Q1327.2 1384.19 1323.57 1384.19 M1323.57 1380.48 Q1329.38 1380.48 1332.43 1385.09 Q1335.51 1389.67 1335.51 1398.42 Q1335.51 1407.15 1332.43 1411.76 Q1329.38 1416.34 1323.57 1416.34 Q1317.76 1416.34 1314.68 1411.76 Q1311.62 1407.15 1311.62 1398.42 Q1311.62 1389.67 1314.68 1385.09 Q1317.76 1380.48 1323.57 1380.48 Z" fill="#000000" fill-rule="nonzero" fill-opacity="1" /><path clip-path="url(#clip940)" d="M1343.73 1409.79 L1348.61 1409.79 L1348.61 1415.67 L1343.73 1415.67 L1343.73 1409.79 Z" fill="#000000" fill-rule="nonzero" fill-opacity="1" /><path clip-path="url(#clip940)" d="M1368.8 1384.19 Q1365.19 1384.19 1363.36 1387.75 Q1361.55 1391.29 1361.55 1398.42 Q1361.55 1405.53 1363.36 1409.1 Q1365.19 1412.64 1368.8 1412.64 Q1372.43 1412.64 1374.24 1409.1 Q1376.07 1405.53 1376.07 1398.42 Q1376.07 1391.29 1374.24 1387.75 Q1372.43 1384.19 1368.8 1384.19 M1368.8 1380.48 Q1374.61 1380.48 1377.66 1385.09 Q1380.74 1389.67 1380.74 1398.42 Q1380.74 1407.15 1377.66 1411.76 Q1374.61 1416.34 1368.8 1416.34 Q1362.99 1416.34 1359.91 1411.76 Q1356.85 1407.15 1356.85 1398.42 Q1356.85 1389.67 1359.91 1385.09 Q1362.99 1380.48 1368.8 1380.48 Z" fill="#000000" fill-rule="nonzero" fill-opacity="1" /><path clip-path="url(#clip940)" d="M1389.01 1381.11 L1407.36 1381.11 L1407.36 1385.04 L1393.29 1385.04 L1393.29 1393.52 Q1394.31 1393.17 1395.32 1393.01 Q1396.34 1392.82 1397.36 1392.82 Q1403.15 1392.82 1406.53 1395.99 Q1409.91 1399.16 1409.91 1404.58 Q1409.91 1410.16 1406.44 1413.26 Q1402.96 1416.34 1396.64 1416.34 Q1394.47 1416.34 1392.2 1415.97 Q1389.95 1415.6 1387.55 1414.86 L1387.55 1410.16 Q1389.63 1411.29 1391.85 1411.85 Q1394.07 1412.41 1396.55 1412.41 Q1400.56 1412.41 1402.89 1410.3 Q1405.23 1408.19 1405.23 1404.58 Q1405.23 1400.97 1402.89 1398.86 Q1400.56 1396.76 1396.55 1396.76 Q1394.68 1396.76 1392.8 1397.17 Q1390.95 1397.59 1389.01 1398.47 L1389.01 1381.11 Z" fill="#000000" fill-rule="nonzero" fill-opacity="1" /><path clip-path="url(#clip940)" d="M1272.32 1338.6 L1301.99 1338.6 L1301.99 1342.54 L1272.32 1342.54 L1272.32 1338.6 Z" fill="#000000" fill-rule="nonzero" fill-opacity="1" /><path clip-path="url(#clip940)" d="M1322.08 1323.95 Q1318.47 1323.95 1316.64 1327.51 Q1314.84 1331.06 1314.84 1338.19 Q1314.84 1345.29 1316.64 1348.86 Q1318.47 1352.4 1322.08 1352.4 Q1325.72 1352.4 1327.52 1348.86 Q1329.35 1345.29 1329.35 1338.19 Q1329.35 1331.06 1327.52 1327.51 Q1325.72 1323.95 1322.08 1323.95 M1322.08 1320.25 Q1327.89 1320.25 1330.95 1324.85 Q1334.03 1329.44 1334.03 1338.19 Q1334.03 1346.91 1330.95 1351.52 Q1327.89 1356.1 1322.08 1356.1 Q1316.27 1356.1 1313.2 1351.52 Q1310.14 1346.91 1310.14 1338.19 Q1310.14 1329.44 1313.2 1324.85 Q1316.27 1320.25 1322.08 1320.25 Z" fill="#000000" fill-rule="nonzero" fill-opacity="1" /><path clip-path="url(#clip940)" d="M1342.25 1349.55 L1347.13 1349.55 L1347.13 1355.43 L1342.25 1355.43 L1342.25 1349.55 Z" fill="#000000" fill-rule="nonzero" fill-opacity="1" /><path clip-path="url(#clip940)" d="M1367.32 1323.95 Q1363.7 1323.95 1361.88 1327.51 Q1360.07 1331.06 1360.07 1338.19 Q1360.07 1345.29 1361.88 1348.86 Q1363.7 1352.4 1367.32 1352.4 Q1370.95 1352.4 1372.76 1348.86 Q1374.58 1345.29 1374.58 1338.19 Q1374.58 1331.06 1372.76 1327.51 Q1370.95 1323.95 1367.32 1323.95 M1367.32 1320.25 Q1373.13 1320.25 1376.18 1324.85 Q1379.26 1329.44 1379.26 1338.19 Q1379.26 1346.91 1376.18 1351.52 Q1373.13 1356.1 1367.32 1356.1 Q1361.51 1356.1 1358.43 1351.52 Q1355.37 1346.91 1355.37 1338.19 Q1355.37 1329.44 1358.43 1324.85 Q1361.51 1320.25 1367.32 1320.25 Z" fill="#000000" fill-rule="nonzero" fill-opacity="1" /><path clip-path="url(#clip940)" d="M1400.32 1324.94 L1388.52 1343.39 L1400.32 1343.39 L1400.32 1324.94 M1399.1 1320.87 L1404.98 1320.87 L1404.98 1343.39 L1409.91 1343.39 L1409.91 1347.28 L1404.98 1347.28 L1404.98 1355.43 L1400.32 1355.43 L1400.32 1347.28 L1384.72 1347.28 L1384.72 1342.77 L1399.1 1320.87 Z" fill="#000000" fill-rule="nonzero" fill-opacity="1" /><path clip-path="url(#clip940)" d="M1273.45 1278.36 L1303.13 1278.36 L1303.13 1282.3 L1273.45 1282.3 L1273.45 1278.36 Z" fill="#000000" fill-rule="nonzero" fill-opacity="1" /><path clip-path="url(#clip940)" d="M1323.22 1263.71 Q1319.61 1263.71 1317.78 1267.28 Q1315.97 1270.82 1315.97 1277.95 Q1315.97 1285.05 1317.78 1288.62 Q1319.61 1292.16 1323.22 1292.16 Q1326.85 1292.16 1328.66 1288.62 Q1330.49 1285.05 1330.49 1277.95 Q1330.49 1270.82 1328.66 1267.28 Q1326.85 1263.71 1323.22 1263.71 M1323.22 1260.01 Q1329.03 1260.01 1332.08 1264.61 Q1335.16 1269.2 1335.16 1277.95 Q1335.16 1286.67 1332.08 1291.28 Q1329.03 1295.86 1323.22 1295.86 Q1317.41 1295.86 1314.33 1291.28 Q1311.27 1286.67 1311.27 1277.95 Q1311.27 1269.2 1314.33 1264.61 Q1317.41 1260.01 1323.22 1260.01 Z" fill="#000000" fill-rule="nonzero" fill-opacity="1" /><path clip-path="url(#clip940)" d="M1343.38 1289.31 L1348.26 1289.31 L1348.26 1295.19 L1343.38 1295.19 L1343.38 1289.31 Z" fill="#000000" fill-rule="nonzero" fill-opacity="1" /><path clip-path="url(#clip940)" d="M1368.45 1263.71 Q1364.84 1263.71 1363.01 1267.28 Q1361.2 1270.82 1361.2 1277.95 Q1361.2 1285.05 1363.01 1288.62 Q1364.84 1292.16 1368.45 1292.16 Q1372.08 1292.16 1373.89 1288.62 Q1375.72 1285.05 1375.72 1277.95 Q1375.72 1270.82 1373.89 1267.28 Q1372.08 1263.71 1368.45 1263.71 M1368.45 1260.01 Q1374.26 1260.01 1377.32 1264.61 Q1380.39 1269.2 1380.39 1277.95 Q1380.39 1286.67 1377.32 1291.28 Q1374.26 1295.86 1368.45 1295.86 Q1362.64 1295.86 1359.56 1291.28 Q1356.51 1286.67 1356.51 1277.95 Q1356.51 1269.2 1359.56 1264.61 Q1362.64 1260.01 1368.45 1260.01 Z" fill="#000000" fill-rule="nonzero" fill-opacity="1" /><path clip-path="url(#clip940)" d="M1402.78 1276.56 Q1406.13 1277.28 1408.01 1279.54 Q1409.91 1281.81 1409.91 1285.15 Q1409.91 1290.26 1406.39 1293.06 Q1402.87 1295.86 1396.39 1295.86 Q1394.21 1295.86 1391.9 1295.42 Q1389.61 1295.01 1387.15 1294.15 L1387.15 1289.64 Q1389.1 1290.77 1391.41 1291.35 Q1393.73 1291.93 1396.25 1291.93 Q1400.65 1291.93 1402.94 1290.19 Q1405.26 1288.46 1405.26 1285.15 Q1405.26 1282.09 1403.1 1280.38 Q1400.97 1278.64 1397.15 1278.64 L1393.13 1278.64 L1393.13 1274.8 L1397.34 1274.8 Q1400.79 1274.8 1402.62 1273.43 Q1404.44 1272.04 1404.44 1269.45 Q1404.44 1266.79 1402.55 1265.38 Q1400.67 1263.94 1397.15 1263.94 Q1395.23 1263.94 1393.03 1264.36 Q1390.83 1264.78 1388.19 1265.66 L1388.19 1261.49 Q1390.86 1260.75 1393.17 1260.38 Q1395.51 1260.01 1397.57 1260.01 Q1402.89 1260.01 1406 1262.44 Q1409.1 1264.85 1409.1 1268.97 Q1409.1 1271.84 1407.45 1273.83 Q1405.81 1275.79 1402.78 1276.56 Z" fill="#000000" fill-rule="nonzero" fill-opacity="1" /><path clip-path="url(#clip940)" d="M1274.4 1218.13 L1304.08 1218.13 L1304.08 1222.06 L1274.4 1222.06 L1274.4 1218.13 Z" fill="#000000" fill-rule="nonzero" fill-opacity="1" /><path clip-path="url(#clip940)" d="M1324.17 1203.47 Q1320.56 1203.47 1318.73 1207.04 Q1316.92 1210.58 1316.92 1217.71 Q1316.92 1224.82 1318.73 1228.38 Q1320.56 1231.92 1324.17 1231.92 Q1327.8 1231.92 1329.61 1228.38 Q1331.44 1224.82 1331.44 1217.71 Q1331.44 1210.58 1329.61 1207.04 Q1327.8 1203.47 1324.17 1203.47 M1324.17 1199.77 Q1329.98 1199.77 1333.03 1204.38 Q1336.11 1208.96 1336.11 1217.71 Q1336.11 1226.44 1333.03 1231.04 Q1329.98 1235.63 1324.17 1235.63 Q1318.36 1235.63 1315.28 1231.04 Q1312.22 1226.44 1312.22 1217.71 Q1312.22 1208.96 1315.28 1204.38 Q1318.36 1199.77 1324.17 1199.77 Z" fill="#000000" fill-rule="nonzero" fill-opacity="1" /><path clip-path="url(#clip940)" d="M1344.33 1229.07 L1349.21 1229.07 L1349.21 1234.95 L1344.33 1234.95 L1344.33 1229.07 Z" fill="#000000" fill-rule="nonzero" fill-opacity="1" /><path clip-path="url(#clip940)" d="M1369.4 1203.47 Q1365.79 1203.47 1363.96 1207.04 Q1362.15 1210.58 1362.15 1217.71 Q1362.15 1224.82 1363.96 1228.38 Q1365.79 1231.92 1369.4 1231.92 Q1373.03 1231.92 1374.84 1228.38 Q1376.67 1224.82 1376.67 1217.71 Q1376.67 1210.58 1374.84 1207.04 Q1373.03 1203.47 1369.4 1203.47 M1369.4 1199.77 Q1375.21 1199.77 1378.26 1204.38 Q1381.34 1208.96 1381.34 1217.71 Q1381.34 1226.44 1378.26 1231.04 Q1375.21 1235.63 1369.4 1235.63 Q1363.59 1235.63 1360.51 1231.04 Q1357.45 1226.44 1357.45 1217.71 Q1357.45 1208.96 1360.51 1204.38 Q1363.59 1199.77 1369.4 1199.77 Z" fill="#000000" fill-rule="nonzero" fill-opacity="1" /><path clip-path="url(#clip940)" d="M1393.59 1231.02 L1409.91 1231.02 L1409.91 1234.95 L1387.96 1234.95 L1387.96 1231.02 Q1390.63 1228.26 1395.21 1223.63 Q1399.82 1218.98 1401 1217.64 Q1403.24 1215.12 1404.12 1213.38 Q1405.02 1211.62 1405.02 1209.93 Q1405.02 1207.18 1403.08 1205.44 Q1401.16 1203.7 1398.06 1203.7 Q1395.86 1203.7 1393.4 1204.47 Q1390.97 1205.23 1388.19 1206.78 L1388.19 1202.06 Q1391.02 1200.93 1393.47 1200.35 Q1395.93 1199.77 1397.96 1199.77 Q1403.33 1199.77 1406.53 1202.45 Q1409.72 1205.14 1409.72 1209.63 Q1409.72 1211.76 1408.91 1213.68 Q1408.13 1215.58 1406.02 1218.17 Q1405.44 1218.84 1402.34 1222.06 Q1399.24 1225.25 1393.59 1231.02 Z" fill="#000000" fill-rule="nonzero" fill-opacity="1" /><path clip-path="url(#clip940)" d="M1274.03 1157.89 L1303.7 1157.89 L1303.7 1161.82 L1274.03 1161.82 L1274.03 1157.89 Z" fill="#000000" fill-rule="nonzero" fill-opacity="1" /><path clip-path="url(#clip940)" d="M1323.8 1143.23 Q1320.19 1143.23 1318.36 1146.8 Q1316.55 1150.34 1316.55 1157.47 Q1316.55 1164.58 1318.36 1168.14 Q1320.19 1171.68 1323.8 1171.68 Q1327.43 1171.68 1329.24 1168.14 Q1331.07 1164.58 1331.07 1157.47 Q1331.07 1150.34 1329.24 1146.8 Q1327.43 1143.23 1323.8 1143.23 M1323.8 1139.53 Q1329.61 1139.53 1332.66 1144.14 Q1335.74 1148.72 1335.74 1157.47 Q1335.74 1166.2 1332.66 1170.8 Q1329.61 1175.39 1323.8 1175.39 Q1317.99 1175.39 1314.91 1170.8 Q1311.85 1166.2 1311.85 1157.47 Q1311.85 1148.72 1314.91 1144.14 Q1317.99 1139.53 1323.8 1139.53 Z" fill="#000000" fill-rule="nonzero" fill-opacity="1" /><path clip-path="url(#clip940)" d="M1343.96 1168.84 L1348.84 1168.84 L1348.84 1174.72 L1343.96 1174.72 L1343.96 1168.84 Z" fill="#000000" fill-rule="nonzero" fill-opacity="1" /><path clip-path="url(#clip940)" d="M1369.03 1143.23 Q1365.42 1143.23 1363.59 1146.8 Q1361.78 1150.34 1361.78 1157.47 Q1361.78 1164.58 1363.59 1168.14 Q1365.42 1171.68 1369.03 1171.68 Q1372.66 1171.68 1374.47 1168.14 Q1376.3 1164.58 1376.3 1157.47 Q1376.3 1150.34 1374.47 1146.8 Q1372.66 1143.23 1369.03 1143.23 M1369.03 1139.53 Q1374.84 1139.53 1377.89 1144.14 Q1380.97 1148.72 1380.97 1157.47 Q1380.97 1166.2 1377.89 1170.8 Q1374.84 1175.39 1369.03 1175.39 Q1363.22 1175.39 1360.14 1170.8 Q1357.08 1166.2 1357.08 1157.47 Q1357.08 1148.72 1360.14 1144.14 Q1363.22 1139.53 1369.03 1139.53 Z" fill="#000000" fill-rule="nonzero" fill-opacity="1" /><path clip-path="url(#clip940)" d="M1390 1170.78 L1397.64 1170.78 L1397.64 1144.41 L1389.33 1146.08 L1389.33 1141.82 L1397.59 1140.16 L1402.27 1140.16 L1402.27 1170.78 L1409.91 1170.78 L1409.91 1174.72 L1390 1174.72 L1390 1170.78 Z" fill="#000000" fill-rule="nonzero" fill-opacity="1" /><path clip-path="url(#clip940)" d="M1322.57 1083 Q1318.96 1083 1317.13 1086.56 Q1315.32 1090.1 1315.32 1097.23 Q1315.32 1104.34 1317.13 1107.9 Q1318.96 1111.44 1322.57 1111.44 Q1326.2 1111.44 1328.01 1107.9 Q1329.84 1104.34 1329.84 1097.23 Q1329.84 1090.1 1328.01 1086.56 Q1326.2 1083 1322.57 1083 M1322.57 1079.29 Q1328.38 1079.29 1331.44 1083.9 Q1334.51 1088.48 1334.51 1097.23 Q1334.51 1105.96 1331.44 1110.57 Q1328.38 1115.15 1322.57 1115.15 Q1316.76 1115.15 1313.68 1110.57 Q1310.63 1105.96 1310.63 1097.23 Q1310.63 1088.48 1313.68 1083.9 Q1316.76 1079.29 1322.57 1079.29 Z" fill="#000000" fill-rule="nonzero" fill-opacity="1" /><path clip-path="url(#clip940)" d="M1342.73 1108.6 L1347.62 1108.6 L1347.62 1114.48 L1342.73 1114.48 L1342.73 1108.6 Z" fill="#000000" fill-rule="nonzero" fill-opacity="1" /><path clip-path="url(#clip940)" d="M1367.8 1083 Q1364.19 1083 1362.36 1086.56 Q1360.56 1090.1 1360.56 1097.23 Q1360.56 1104.34 1362.36 1107.9 Q1364.19 1111.44 1367.8 1111.44 Q1371.44 1111.44 1373.24 1107.9 Q1375.07 1104.34 1375.07 1097.23 Q1375.07 1090.1 1373.24 1086.56 Q1371.44 1083 1367.8 1083 M1367.8 1079.29 Q1373.61 1079.29 1376.67 1083.9 Q1379.75 1088.48 1379.75 1097.23 Q1379.75 1105.96 1376.67 1110.57 Q1373.61 1115.15 1367.8 1115.15 Q1361.99 1115.15 1358.91 1110.57 Q1355.86 1105.96 1355.86 1097.23 Q1355.86 1088.48 1358.91 1083.9 Q1361.99 1079.29 1367.8 1079.29 Z" fill="#000000" fill-rule="nonzero" fill-opacity="1" /><path clip-path="url(#clip940)" d="M1397.96 1083 Q1394.35 1083 1392.52 1086.56 Q1390.72 1090.1 1390.72 1097.23 Q1390.72 1104.34 1392.52 1107.9 Q1394.35 1111.44 1397.96 1111.44 Q1401.6 1111.44 1403.4 1107.9 Q1405.23 1104.34 1405.23 1097.23 Q1405.23 1090.1 1403.4 1086.56 Q1401.6 1083 1397.96 1083 M1397.96 1079.29 Q1403.77 1079.29 1406.83 1083.9 Q1409.91 1088.48 1409.91 1097.23 Q1409.91 1105.96 1406.83 1110.57 Q1403.77 1115.15 1397.96 1115.15 Q1392.15 1115.15 1389.07 1110.57 Q1386.02 1105.96 1386.02 1097.23 Q1386.02 1088.48 1389.07 1083.9 Q1392.15 1079.29 1397.96 1079.29 Z" fill="#000000" fill-rule="nonzero" fill-opacity="1" /><path clip-path="url(#clip940)" d="M1182.01 1252.88 L1182.94 1253.44 Q1181.43 1256.93 1179.02 1261.28 Q1181.43 1265.63 1182.94 1269.13 L1182.01 1269.67 Q1178.7 1265.86 1176.15 1261.28 Q1178.72 1256.66 1182.01 1252.88 Z" fill="#000000" fill-rule="nonzero" fill-opacity="1" /><path clip-path="url(#clip940)" d="M1194.31 1249.71 Q1196.12 1249.71 1197.15 1250.84 Q1198.14 1251.97 1198.14 1253.26 Q1198.14 1254.48 1197.44 1255.12 Q1196.73 1255.77 1195.83 1255.77 Q1194.6 1255.77 1193.54 1254.87 Q1192.48 1253.96 1192.25 1252.61 Q1191.41 1253.93 1191.41 1255.9 Q1191.41 1257.18 1192.09 1258.31 Q1192.77 1259.41 1193.64 1260.08 Q1194.51 1260.73 1195.76 1261.31 Q1196.99 1261.85 1197.73 1262.08 Q1198.43 1262.27 1199.21 1262.43 L1208.23 1264.69 Q1212.51 1265.78 1214.02 1265.78 Q1215.89 1265.78 1217.15 1264.88 Q1218.37 1263.98 1218.37 1262.18 Q1218.37 1261.47 1218.18 1260.66 Q1217.95 1259.86 1217.37 1258.83 Q1216.76 1257.76 1215.86 1256.83 Q1214.92 1255.86 1213.35 1254.93 Q1211.77 1254 1209.74 1253.38 Q1209.03 1253.19 1209.03 1252.55 Q1209.03 1251.74 1209.67 1251.74 Q1210.22 1251.74 1211.38 1252.19 Q1212.51 1252.61 1213.99 1253.55 Q1215.44 1254.45 1216.76 1255.64 Q1218.05 1256.83 1218.95 1258.6 Q1219.85 1260.37 1219.85 1262.31 Q1219.85 1265.08 1218.37 1266.91 Q1216.89 1268.75 1214.83 1269.42 Q1215.12 1269.58 1215.5 1269.81 Q1215.89 1270.03 1216.76 1270.71 Q1217.6 1271.36 1218.24 1272.1 Q1218.85 1272.84 1219.34 1274 Q1219.85 1275.12 1219.85 1276.35 Q1219.85 1277.89 1219.4 1279.28 Q1218.95 1280.63 1217.92 1281.6 Q1216.89 1282.56 1215.47 1282.56 Q1213.89 1282.56 1212.8 1281.5 Q1211.67 1280.41 1211.67 1278.92 Q1211.67 1277.99 1212.22 1277.25 Q1212.77 1276.48 1213.96 1276.48 Q1215.28 1276.48 1216.28 1277.38 Q1217.27 1278.28 1217.53 1279.57 Q1218.37 1278.25 1218.37 1276.28 Q1218.37 1274.16 1216.5 1272.48 Q1214.63 1270.81 1211.51 1270 Q1204.01 1268.01 1200.66 1267.23 Q1197.28 1266.46 1195.83 1266.46 Q1194.47 1266.46 1193.54 1266.81 Q1192.61 1267.17 1192.19 1267.78 Q1191.74 1268.36 1191.57 1268.91 Q1191.41 1269.42 1191.41 1270 Q1191.41 1270.97 1191.8 1272.06 Q1192.19 1273.13 1193.09 1274.41 Q1193.96 1275.67 1195.76 1276.86 Q1197.56 1278.05 1200.04 1278.86 Q1200.79 1279.02 1200.79 1279.73 Q1200.75 1280.5 1200.11 1280.5 Q1199.56 1280.5 1198.43 1280.08 Q1197.28 1279.63 1195.83 1278.73 Q1194.38 1277.8 1193.09 1276.6 Q1191.77 1275.38 1190.87 1273.61 Q1189.96 1271.81 1189.96 1269.87 Q1189.96 1269 1190.16 1268.17 Q1190.32 1267.3 1190.8 1266.27 Q1191.28 1265.2 1192.35 1264.27 Q1193.41 1263.34 1194.96 1262.76 Q1194.22 1262.37 1193.51 1261.85 Q1192.8 1261.31 1191.93 1260.47 Q1191.03 1259.6 1190.51 1258.41 Q1189.96 1257.18 1189.96 1255.83 Q1189.96 1254.51 1190.32 1253.22 Q1190.64 1251.94 1191.7 1250.84 Q1192.73 1249.71 1194.31 1249.71 Z" fill="#000000" fill-rule="nonzero" fill-opacity="1" /><path clip-path="url(#clip940)" d="M1231.9 1242.25 Q1230.52 1242.25 1229.87 1241.46 Q1229.22 1240.68 1229.22 1239.66 Q1229.22 1238.6 1229.92 1237.86 Q1230.59 1237.09 1231.79 1237.09 Q1233.07 1237.09 1233.79 1237.99 Q1234.51 1238.87 1234.33 1240.13 Q1236.18 1239.03 1237.02 1237 Q1237.85 1234.95 1237.85 1233.06 Q1237.85 1231.07 1236.14 1229.47 Q1234.42 1227.85 1230.23 1227.85 Q1226.67 1227.85 1224.62 1229.25 Q1222.57 1230.62 1222.57 1233.35 L1222.57 1235.38 Q1222.57 1236.08 1222.5 1236.28 Q1222.43 1236.48 1222.05 1236.48 Q1221.6 1236.48 1221.51 1235.78 Q1221.51 1235.08 1221.37 1233.98 Q1221.28 1231.3 1218.96 1229.88 Q1216.79 1228.59 1213.71 1228.59 Q1210.89 1228.59 1209.72 1229.94 Q1208.52 1231.27 1208.52 1233.01 Q1208.52 1234.63 1209.2 1236.41 Q1209.87 1238.2 1211.38 1239.17 Q1211.38 1236.3 1213.71 1236.3 Q1214.72 1236.3 1215.4 1236.96 Q1216.05 1237.59 1216.05 1238.65 Q1216.05 1239.66 1215.42 1240.34 Q1214.77 1241.01 1213.66 1241.01 Q1211.02 1241.01 1209.2 1238.67 Q1207.37 1236.3 1207.37 1232.83 Q1207.37 1229.4 1209.17 1226.88 Q1210.98 1224.33 1213.75 1224.33 Q1216.48 1224.33 1218.71 1226.13 Q1220.94 1227.94 1221.87 1230.8 Q1222.57 1227.28 1224.96 1225.19 Q1227.32 1223.09 1230.23 1223.09 Q1233.84 1223.09 1236.5 1225.93 Q1239.14 1228.77 1239.14 1232.92 Q1239.14 1236.75 1237.06 1239.5 Q1234.99 1242.25 1231.9 1242.25 Z" fill="#000000" fill-rule="nonzero" fill-opacity="1" /><polyline clip-path="url(#clip945)" style="stroke:#e26f46; stroke-linecap:round; stroke-linejoin:round; stroke-width:3; stroke-opacity:1; fill:none" stroke-dasharray="12, 6, 2, 6" points="1471.57,1097.2 1496.74,1285.73 1521.9,1238.42 1547.06,1324.36 1572.22,1347.67 1597.38,1297.97 1622.55,1413.23 1647.71,1271.16 1672.87,1324.53 1698.03,1308.8 1723.2,1253.15 1748.36,1210.55 1773.52,1162.24 1798.68,1149.93 1823.85,1146.06 1849.01,1134.22 1874.17,1162.2 1899.33,1132.75 1924.49,1098.29 1949.66,1104.92 1974.82,1135.6 1999.98,1147.94 2025.14,1123.67 2050.31,1111.52 2075.47,1126.05 2100.63,1132.73 2125.79,1133.63 2150.95,1081.68 2176.12,1131.05 2201.28,1093.35 2226.44,1101.5 2251.6,1134.37 2276.77,1120.39 2301.93,1082.45 2327.09,1117.41 "/>
</svg>
