<?xml version="1.0" encoding="utf-8"?>
<svg xmlns="http://www.w3.org/2000/svg" xmlns:xlink="http://www.w3.org/1999/xlink" width="600" height="400" viewBox="0 0 2400 1600">
<defs>
  <clipPath id="clip350">
    <rect x="0" y="0" width="2400" height="1600"/>
  </clipPath>
</defs>
<path clip-path="url(#clip350)" d="M0 1600 L2400 1600 L2400 0 L0 0  Z" fill="#ffffff" fill-rule="evenodd" fill-opacity="1"/>
<defs>
  <clipPath id="clip351">
    <rect x="480" y="0" width="1681" height="1600"/>
  </clipPath>
</defs>
<path clip-path="url(#clip350)" d="M203.964 1423.18 L1110.81 1423.18 L1110.81 47.2441 L203.964 47.2441  Z" fill="#ffffff" fill-rule="evenodd" fill-opacity="1"/>
<defs>
  <clipPath id="clip352">
    <rect x="203" y="47" width="908" height="1377"/>
  </clipPath>
</defs>
<polyline clip-path="url(#clip352)" style="stroke:#000000; stroke-linecap:round; stroke-linejoin:round; stroke-width:2; stroke-opacity:0.1; fill:none" points="229.629,1423.18 229.629,47.2441 "/>
<polyline clip-path="url(#clip352)" style="stroke:#000000; stroke-linecap:round; stroke-linejoin:round; stroke-width:2; stroke-opacity:0.1; fill:none" points="481.252,1423.18 481.252,47.2441 "/>
<polyline clip-path="url(#clip352)" style="stroke:#000000; stroke-linecap:round; stroke-linejoin:round; stroke-width:2; stroke-opacity:0.1; fill:none" points="732.874,1423.18 732.874,47.2441 "/>
<polyline clip-path="url(#clip352)" style="stroke:#000000; stroke-linecap:round; stroke-linejoin:round; stroke-width:2; stroke-opacity:0.1; fill:none" points="984.497,1423.18 984.497,47.2441 "/>
<polyline clip-path="url(#clip352)" style="stroke:#000000; stroke-linecap:round; stroke-linejoin:round; stroke-width:2; stroke-opacity:0.1; fill:none" points="203.964,1401.09 1110.81,1401.09 "/>
<polyline clip-path="url(#clip352)" style="stroke:#000000; stroke-linecap:round; stroke-linejoin:round; stroke-width:2; stroke-opacity:0.1; fill:none" points="203.964,1173.69 1110.81,1173.69 "/>
<polyline clip-path="url(#clip352)" style="stroke:#000000; stroke-linecap:round; stroke-linejoin:round; stroke-width:2; stroke-opacity:0.1; fill:none" points="203.964,946.285 1110.81,946.285 "/>
<polyline clip-path="url(#clip352)" style="stroke:#000000; stroke-linecap:round; stroke-linejoin:round; stroke-width:2; stroke-opacity:0.1; fill:none" points="203.964,718.881 1110.81,718.881 "/>
<polyline clip-path="url(#clip352)" style="stroke:#000000; stroke-linecap:round; stroke-linejoin:round; stroke-width:2; stroke-opacity:0.1; fill:none" points="203.964,491.477 1110.81,491.477 "/>
<polyline clip-path="url(#clip352)" style="stroke:#000000; stroke-linecap:round; stroke-linejoin:round; stroke-width:2; stroke-opacity:0.1; fill:none" points="203.964,264.074 1110.81,264.074 "/>
<polyline clip-path="url(#clip350)" style="stroke:#000000; stroke-linecap:round; stroke-linejoin:round; stroke-width:4; stroke-opacity:1; fill:none" points="203.964,1423.18 1110.81,1423.18 "/>
<polyline clip-path="url(#clip350)" style="stroke:#000000; stroke-linecap:round; stroke-linejoin:round; stroke-width:4; stroke-opacity:1; fill:none" points="229.629,1423.18 229.629,1404.28 "/>
<polyline clip-path="url(#clip350)" style="stroke:#000000; stroke-linecap:round; stroke-linejoin:round; stroke-width:4; stroke-opacity:1; fill:none" points="481.252,1423.18 481.252,1404.28 "/>
<polyline clip-path="url(#clip350)" style="stroke:#000000; stroke-linecap:round; stroke-linejoin:round; stroke-width:4; stroke-opacity:1; fill:none" points="732.874,1423.18 732.874,1404.28 "/>
<polyline clip-path="url(#clip350)" style="stroke:#000000; stroke-linecap:round; stroke-linejoin:round; stroke-width:4; stroke-opacity:1; fill:none" points="984.497,1423.18 984.497,1404.28 "/>
<path clip-path="url(#clip350)" d="M229.629 1454.1 Q226.018 1454.1 224.189 1457.66 Q222.384 1461.2 222.384 1468.33 Q222.384 1475.44 224.189 1479.01 Q226.018 1482.55 229.629 1482.55 Q233.263 1482.55 235.069 1479.01 Q236.898 1475.44 236.898 1468.33 Q236.898 1461.2 235.069 1457.66 Q233.263 1454.1 229.629 1454.1 M229.629 1450.39 Q235.439 1450.39 238.495 1455 Q241.573 1459.58 241.573 1468.33 Q241.573 1477.06 238.495 1481.67 Q235.439 1486.25 229.629 1486.25 Q223.819 1486.25 220.74 1481.67 Q217.685 1477.06 217.685 1468.33 Q217.685 1459.58 220.74 1455 Q223.819 1450.39 229.629 1450.39 Z" fill="#000000" fill-rule="nonzero" fill-opacity="1" /><path clip-path="url(#clip350)" d="M471.634 1481.64 L479.273 1481.64 L479.273 1455.28 L470.962 1456.95 L470.962 1452.69 L479.226 1451.02 L483.902 1451.02 L483.902 1481.64 L491.541 1481.64 L491.541 1485.58 L471.634 1485.58 L471.634 1481.64 Z" fill="#000000" fill-rule="nonzero" fill-opacity="1" /><path clip-path="url(#clip350)" d="M727.527 1481.64 L743.847 1481.64 L743.847 1485.58 L721.902 1485.58 L721.902 1481.64 Q724.564 1478.89 729.148 1474.26 Q733.754 1469.61 734.935 1468.27 Q737.18 1465.74 738.06 1464.01 Q738.962 1462.25 738.962 1460.56 Q738.962 1457.8 737.018 1456.07 Q735.097 1454.33 731.995 1454.33 Q729.796 1454.33 727.342 1455.09 Q724.912 1455.86 722.134 1457.41 L722.134 1452.69 Q724.958 1451.55 727.411 1450.97 Q729.865 1450.39 731.902 1450.39 Q737.273 1450.39 740.467 1453.08 Q743.661 1455.77 743.661 1460.26 Q743.661 1462.39 742.851 1464.31 Q742.064 1466.2 739.958 1468.8 Q739.379 1469.47 736.277 1472.69 Q733.175 1475.88 727.527 1481.64 Z" fill="#000000" fill-rule="nonzero" fill-opacity="1" /><path clip-path="url(#clip350)" d="M988.745 1466.95 Q992.101 1467.66 993.976 1469.93 Q995.874 1472.2 995.874 1475.53 Q995.874 1480.65 992.356 1483.45 Q988.837 1486.25 982.356 1486.25 Q980.18 1486.25 977.865 1485.81 Q975.574 1485.39 973.12 1484.54 L973.12 1480.02 Q975.064 1481.16 977.379 1481.74 Q979.694 1482.32 982.217 1482.32 Q986.615 1482.32 988.907 1480.58 Q991.222 1478.84 991.222 1475.53 Q991.222 1472.48 989.069 1470.77 Q986.939 1469.03 983.12 1469.03 L979.092 1469.03 L979.092 1465.19 L983.305 1465.19 Q986.754 1465.19 988.583 1463.82 Q990.411 1462.43 990.411 1459.84 Q990.411 1457.18 988.513 1455.77 Q986.638 1454.33 983.12 1454.33 Q981.199 1454.33 978.999 1454.75 Q976.8 1455.16 974.162 1456.04 L974.162 1451.88 Q976.824 1451.14 979.138 1450.77 Q981.476 1450.39 983.536 1450.39 Q988.861 1450.39 991.962 1452.83 Q995.064 1455.23 995.064 1459.35 Q995.064 1462.22 993.421 1464.21 Q991.777 1466.18 988.745 1466.95 Z" fill="#000000" fill-rule="nonzero" fill-opacity="1" /><path clip-path="url(#clip350)" d="M527.559 1520.52 L567.758 1520.52 L567.758 1525.93 L550.889 1525.93 L550.889 1568.04 L544.428 1568.04 L544.428 1525.93 L527.559 1525.93 L527.559 1520.52 Z" fill="#000000" fill-rule="nonzero" fill-opacity="1" /><path clip-path="url(#clip350)" d="M571.705 1532.4 L577.562 1532.4 L577.562 1568.04 L571.705 1568.04 L571.705 1532.4 M571.705 1518.52 L577.562 1518.52 L577.562 1525.93 L571.705 1525.93 L571.705 1518.52 Z" fill="#000000" fill-rule="nonzero" fill-opacity="1" /><path clip-path="url(#clip350)" d="M617.57 1539.24 Q619.766 1535.29 622.822 1533.41 Q625.877 1531.54 630.015 1531.54 Q635.585 1531.54 638.609 1535.45 Q641.633 1539.33 641.633 1546.53 L641.633 1568.04 L635.744 1568.04 L635.744 1546.72 Q635.744 1541.59 633.93 1539.11 Q632.116 1536.63 628.392 1536.63 Q623.84 1536.63 621.199 1539.65 Q618.557 1542.68 618.557 1547.9 L618.557 1568.04 L612.669 1568.04 L612.669 1546.72 Q612.669 1541.56 610.854 1539.11 Q609.04 1536.63 605.252 1536.63 Q600.765 1536.63 598.123 1539.68 Q595.481 1542.71 595.481 1547.9 L595.481 1568.04 L589.593 1568.04 L589.593 1532.4 L595.481 1532.4 L595.481 1537.93 Q597.486 1534.66 600.287 1533.1 Q603.088 1531.54 606.939 1531.54 Q610.822 1531.54 613.528 1533.51 Q616.265 1535.48 617.57 1539.24 Z" fill="#000000" fill-rule="nonzero" fill-opacity="1" /><path clip-path="url(#clip350)" d="M683.805 1548.76 L683.805 1551.62 L656.878 1551.62 Q657.26 1557.67 660.507 1560.85 Q663.785 1564 669.61 1564 Q672.984 1564 676.135 1563.17 Q679.317 1562.35 682.437 1560.69 L682.437 1566.23 Q679.286 1567.57 675.975 1568.27 Q672.665 1568.97 669.26 1568.97 Q660.73 1568.97 655.733 1564 Q650.767 1559.04 650.767 1550.57 Q650.767 1541.82 655.478 1536.69 Q660.22 1531.54 668.241 1531.54 Q675.434 1531.54 679.604 1536.18 Q683.805 1540.8 683.805 1548.76 M677.949 1547.04 Q677.885 1542.23 675.243 1539.37 Q672.633 1536.5 668.305 1536.5 Q663.403 1536.5 660.443 1539.27 Q657.515 1542.04 657.069 1547.07 L677.949 1547.04 Z" fill="#000000" fill-rule="nonzero" fill-opacity="1" /><path clip-path="url(#clip350)" d="M728.206 1518.58 Q723.941 1525.9 721.872 1533.06 Q719.803 1540.23 719.803 1547.58 Q719.803 1554.93 721.872 1562.16 Q723.973 1569.35 728.206 1576.64 L723.114 1576.64 Q718.339 1569.16 715.952 1561.93 Q713.597 1554.71 713.597 1547.58 Q713.597 1540.48 715.952 1533.29 Q718.307 1526.09 723.114 1518.58 L728.206 1518.58 Z" fill="#000000" fill-rule="nonzero" fill-opacity="1" /><path clip-path="url(#clip350)" d="M762.294 1533.45 L762.294 1538.98 Q759.812 1537.71 757.138 1537.07 Q754.465 1536.44 751.6 1536.44 Q747.24 1536.44 745.043 1537.77 Q742.879 1539.11 742.879 1541.79 Q742.879 1543.82 744.439 1545 Q745.998 1546.15 750.709 1547.2 L752.714 1547.64 Q758.952 1548.98 761.562 1551.43 Q764.204 1553.85 764.204 1558.21 Q764.204 1563.17 760.257 1566.07 Q756.343 1568.97 749.468 1568.97 Q746.603 1568.97 743.484 1568.39 Q740.396 1567.85 736.959 1566.74 L736.959 1560.69 Q740.205 1562.38 743.356 1563.24 Q746.508 1564.07 749.595 1564.07 Q753.733 1564.07 755.961 1562.66 Q758.189 1561.23 758.189 1558.65 Q758.189 1556.27 756.565 1554.99 Q754.974 1553.72 749.531 1552.54 L747.494 1552.07 Q742.052 1550.92 739.633 1548.56 Q737.214 1546.18 737.214 1542.04 Q737.214 1537.01 740.778 1534.27 Q744.343 1531.54 750.9 1531.54 Q754.146 1531.54 757.011 1532.01 Q759.876 1532.49 762.294 1533.45 Z" fill="#000000" fill-rule="nonzero" fill-opacity="1" /><path clip-path="url(#clip350)" d="M772.607 1518.58 L777.699 1518.58 Q782.474 1526.09 784.829 1533.29 Q787.216 1540.48 787.216 1547.58 Q787.216 1554.71 784.829 1561.93 Q782.474 1569.16 777.699 1576.64 L772.607 1576.64 Q776.84 1569.35 778.909 1562.16 Q781.01 1554.93 781.01 1547.58 Q781.01 1540.23 778.909 1533.06 Q776.84 1525.9 772.607 1518.58 Z" fill="#000000" fill-rule="nonzero" fill-opacity="1" /><polyline clip-path="url(#clip350)" style="stroke:#000000; stroke-linecap:round; stroke-linejoin:round; stroke-width:4; stroke-opacity:1; fill:none" points="203.964,1423.18 203.964,47.2441 "/>
<polyline clip-path="url(#clip350)" style="stroke:#000000; stroke-linecap:round; stroke-linejoin:round; stroke-width:4; stroke-opacity:1; fill:none" points="203.964,1401.09 222.861,1401.09 "/>
<polyline clip-path="url(#clip350)" style="stroke:#000000; stroke-linecap:round; stroke-linejoin:round; stroke-width:4; stroke-opacity:1; fill:none" points="203.964,1173.69 222.861,1173.69 "/>
<polyline clip-path="url(#clip350)" style="stroke:#000000; stroke-linecap:round; stroke-linejoin:round; stroke-width:4; stroke-opacity:1; fill:none" points="203.964,946.285 222.861,946.285 "/>
<polyline clip-path="url(#clip350)" style="stroke:#000000; stroke-linecap:round; stroke-linejoin:round; stroke-width:4; stroke-opacity:1; fill:none" points="203.964,718.881 222.861,718.881 "/>
<polyline clip-path="url(#clip350)" style="stroke:#000000; stroke-linecap:round; stroke-linejoin:round; stroke-width:4; stroke-opacity:1; fill:none" points="203.964,491.477 222.861,491.477 "/>
<polyline clip-path="url(#clip350)" style="stroke:#000000; stroke-linecap:round; stroke-linejoin:round; stroke-width:4; stroke-opacity:1; fill:none" points="203.964,264.074 222.861,264.074 "/>
<path clip-path="url(#clip350)" d="M156.019 1386.89 Q152.408 1386.89 150.579 1390.46 Q148.774 1394 148.774 1401.13 Q148.774 1408.23 150.579 1411.8 Q152.408 1415.34 156.019 1415.34 Q159.653 1415.34 161.459 1411.8 Q163.288 1408.23 163.288 1401.13 Q163.288 1394 161.459 1390.46 Q159.653 1386.89 156.019 1386.89 M156.019 1383.19 Q161.829 1383.19 164.885 1387.79 Q167.964 1392.38 167.964 1401.13 Q167.964 1409.85 164.885 1414.46 Q161.829 1419.04 156.019 1419.04 Q150.209 1419.04 147.13 1414.46 Q144.075 1409.85 144.075 1401.13 Q144.075 1392.38 147.13 1387.79 Q150.209 1383.19 156.019 1383.19 Z" fill="#000000" fill-rule="nonzero" fill-opacity="1" /><path clip-path="url(#clip350)" d="M147.061 1156.41 L165.417 1156.41 L165.417 1160.34 L151.343 1160.34 L151.343 1168.82 Q152.362 1168.47 153.38 1168.31 Q154.399 1168.12 155.417 1168.12 Q161.204 1168.12 164.584 1171.29 Q167.964 1174.46 167.964 1179.88 Q167.964 1185.46 164.491 1188.56 Q161.019 1191.64 154.7 1191.64 Q152.524 1191.64 150.255 1191.27 Q148.01 1190.9 145.603 1190.16 L145.603 1185.46 Q147.686 1186.59 149.908 1187.15 Q152.13 1187.71 154.607 1187.71 Q158.612 1187.71 160.95 1185.6 Q163.288 1183.49 163.288 1179.88 Q163.288 1176.27 160.95 1174.16 Q158.612 1172.06 154.607 1172.06 Q152.732 1172.06 150.857 1172.47 Q149.005 1172.89 147.061 1173.77 L147.061 1156.41 Z" fill="#000000" fill-rule="nonzero" fill-opacity="1" /><path clip-path="url(#clip350)" d="M116.668 959.63 L124.306 959.63 L124.306 933.265 L115.996 934.931 L115.996 930.672 L124.26 929.005 L128.936 929.005 L128.936 959.63 L136.575 959.63 L136.575 963.565 L116.668 963.565 L116.668 959.63 Z" fill="#000000" fill-rule="nonzero" fill-opacity="1" /><path clip-path="url(#clip350)" d="M156.019 932.084 Q152.408 932.084 150.579 935.649 Q148.774 939.191 148.774 946.32 Q148.774 953.427 150.579 956.991 Q152.408 960.533 156.019 960.533 Q159.653 960.533 161.459 956.991 Q163.288 953.427 163.288 946.32 Q163.288 939.191 161.459 935.649 Q159.653 932.084 156.019 932.084 M156.019 928.38 Q161.829 928.38 164.885 932.987 Q167.964 937.57 167.964 946.32 Q167.964 955.047 164.885 959.653 Q161.829 964.237 156.019 964.237 Q150.209 964.237 147.13 959.653 Q144.075 955.047 144.075 946.32 Q144.075 937.57 147.13 932.987 Q150.209 928.38 156.019 928.38 Z" fill="#000000" fill-rule="nonzero" fill-opacity="1" /><path clip-path="url(#clip350)" d="M117.663 732.226 L125.302 732.226 L125.302 705.861 L116.992 707.527 L116.992 703.268 L125.255 701.601 L129.931 701.601 L129.931 732.226 L137.57 732.226 L137.57 736.161 L117.663 736.161 L117.663 732.226 Z" fill="#000000" fill-rule="nonzero" fill-opacity="1" /><path clip-path="url(#clip350)" d="M147.061 701.601 L165.417 701.601 L165.417 705.537 L151.343 705.537 L151.343 714.009 Q152.362 713.662 153.38 713.5 Q154.399 713.314 155.417 713.314 Q161.204 713.314 164.584 716.486 Q167.964 719.657 167.964 725.074 Q167.964 730.652 164.491 733.754 Q161.019 736.833 154.7 736.833 Q152.524 736.833 150.255 736.462 Q148.01 736.092 145.603 735.351 L145.603 730.652 Q147.686 731.787 149.908 732.342 Q152.13 732.898 154.607 732.898 Q158.612 732.898 160.95 730.791 Q163.288 728.685 163.288 725.074 Q163.288 721.462 160.95 719.356 Q158.612 717.25 154.607 717.25 Q152.732 717.25 150.857 717.666 Q149.005 718.083 147.061 718.963 L147.061 701.601 Z" fill="#000000" fill-rule="nonzero" fill-opacity="1" /><path clip-path="url(#clip350)" d="M119.885 504.822 L136.204 504.822 L136.204 508.757 L114.26 508.757 L114.26 504.822 Q116.922 502.068 121.505 497.438 Q126.112 492.785 127.292 491.443 Q129.538 488.92 130.417 487.184 Q131.32 485.424 131.32 483.734 Q131.32 480.98 129.376 479.244 Q127.455 477.508 124.353 477.508 Q122.154 477.508 119.7 478.272 Q117.269 479.035 114.492 480.586 L114.492 475.864 Q117.316 474.73 119.769 474.151 Q122.223 473.573 124.26 473.573 Q129.63 473.573 132.825 476.258 Q136.019 478.943 136.019 483.434 Q136.019 485.563 135.209 487.484 Q134.422 489.383 132.316 491.975 Q131.737 492.646 128.635 495.864 Q125.533 499.058 119.885 504.822 Z" fill="#000000" fill-rule="nonzero" fill-opacity="1" /><path clip-path="url(#clip350)" d="M156.019 477.276 Q152.408 477.276 150.579 480.841 Q148.774 484.383 148.774 491.512 Q148.774 498.619 150.579 502.183 Q152.408 505.725 156.019 505.725 Q159.653 505.725 161.459 502.183 Q163.288 498.619 163.288 491.512 Q163.288 484.383 161.459 480.841 Q159.653 477.276 156.019 477.276 M156.019 473.573 Q161.829 473.573 164.885 478.179 Q167.964 482.762 167.964 491.512 Q167.964 500.239 164.885 504.845 Q161.829 509.429 156.019 509.429 Q150.209 509.429 147.13 504.845 Q144.075 500.239 144.075 491.512 Q144.075 482.762 147.13 478.179 Q150.209 473.573 156.019 473.573 Z" fill="#000000" fill-rule="nonzero" fill-opacity="1" /><path clip-path="url(#clip350)" d="M120.88 277.418 L137.2 277.418 L137.2 281.354 L115.256 281.354 L115.256 277.418 Q117.918 274.664 122.501 270.034 Q127.107 265.381 128.288 264.039 Q130.533 261.516 131.413 259.78 Q132.316 258.02 132.316 256.33 Q132.316 253.576 130.371 251.84 Q128.45 250.104 125.348 250.104 Q123.149 250.104 120.695 250.868 Q118.265 251.631 115.487 253.182 L115.487 248.46 Q118.311 247.326 120.765 246.747 Q123.218 246.169 125.255 246.169 Q130.626 246.169 133.82 248.854 Q137.015 251.539 137.015 256.03 Q137.015 258.159 136.204 260.08 Q135.417 261.979 133.311 264.571 Q132.732 265.242 129.63 268.46 Q126.529 271.654 120.88 277.418 Z" fill="#000000" fill-rule="nonzero" fill-opacity="1" /><path clip-path="url(#clip350)" d="M147.061 246.794 L165.417 246.794 L165.417 250.729 L151.343 250.729 L151.343 259.201 Q152.362 258.854 153.38 258.692 Q154.399 258.506 155.417 258.506 Q161.204 258.506 164.584 261.678 Q167.964 264.849 167.964 270.266 Q167.964 275.844 164.491 278.946 Q161.019 282.025 154.7 282.025 Q152.524 282.025 150.255 281.654 Q148.01 281.284 145.603 280.543 L145.603 275.844 Q147.686 276.979 149.908 277.534 Q152.13 278.09 154.607 278.09 Q158.612 278.09 160.95 275.983 Q163.288 273.877 163.288 270.266 Q163.288 266.655 160.95 264.548 Q158.612 262.442 154.607 262.442 Q152.732 262.442 150.857 262.858 Q149.005 263.275 147.061 264.155 L147.061 246.794 Z" fill="#000000" fill-rule="nonzero" fill-opacity="1" /><path clip-path="url(#clip350)" d="M39.4334 772.564 Q44.844 772.564 50.9309 774.303 Q56.9856 776.01 61.8809 778.715 Q66.744 781.42 69.9646 784.963 Q73.153 788.505 73.153 791.887 Q73.153 794.045 71.9613 795.655 Q70.7375 797.233 68.7085 798.103 Q66.6474 798.972 64.393 799.391 Q62.1063 799.81 59.6265 799.81 Q55.9228 799.81 51.8971 799.005 Q47.8391 798.199 44.1677 796.847 Q40.464 795.494 37.1146 793.594 Q33.733 791.694 31.2853 789.6 Q28.8055 787.475 27.3562 785.092 Q25.907 782.708 25.907 780.486 Q25.907 778.876 26.6155 777.588 Q27.2918 776.267 28.4834 775.43 Q29.6428 774.593 31.0277 774.013 Q32.4125 773.401 34.0228 773.111 Q35.6009 772.821 36.9214 772.692 Q38.2096 772.564 39.4334 772.564 M35.3433 776.911 Q33.7008 776.911 32.477 777.04 Q31.2209 777.169 29.9649 777.523 Q28.7089 777.878 28.0325 778.65 Q27.3562 779.391 27.3562 780.551 Q27.3562 783.932 34.2805 787.733 Q36.4383 788.956 39.369 790.051 Q42.2997 791.146 43.6846 791.533 Q45.0694 791.919 48.4833 792.821 L48.4833 779.037 Q39.6911 776.911 35.3433 776.911 M50.5766 779.617 L50.5766 793.336 Q58.6281 795.462 63.6522 795.462 Q68.0322 795.462 69.868 794.56 Q71.6715 793.626 71.6715 791.887 Q71.6715 789.89 69.6747 788.022 Q67.6458 786.154 63.9743 784.254 Q59.2078 781.742 50.5766 779.617 Z" fill="#000000" fill-rule="nonzero" fill-opacity="1" /><path clip-path="url(#clip350)" d="M22.9507 728.256 Q30.2712 732.521 37.4327 734.59 Q44.5941 736.658 51.9465 736.658 Q59.2989 736.658 66.5239 734.59 Q73.7172 732.489 81.0059 728.256 L81.0059 733.348 Q73.5262 738.123 66.3011 740.51 Q59.0761 742.865 51.9465 742.865 Q44.8487 742.865 37.6555 740.51 Q30.4622 738.154 22.9507 733.348 L22.9507 728.256 Z" fill="#000000" fill-rule="nonzero" fill-opacity="1" /><path clip-path="url(#clip350)" d="M28.1387 706.74 Q28.1387 709.286 29.9211 711.036 Q31.6717 712.787 34.218 712.787 Q36.7324 712.787 38.483 711.036 Q40.2017 709.286 40.2017 706.74 Q40.2017 704.193 38.483 702.443 Q36.7324 700.692 34.218 700.692 Q31.7035 700.692 29.9211 702.475 Q28.1387 704.225 28.1387 706.74 M24.0328 706.74 Q24.0328 704.703 24.8286 702.825 Q25.5924 700.947 27.0566 699.578 Q28.4888 698.114 30.3031 697.382 Q32.1173 696.65 34.218 696.65 Q38.4193 696.65 41.3476 699.61 Q44.244 702.538 44.244 706.803 Q44.244 711.1 41.3794 713.965 Q38.5148 716.829 34.218 716.829 Q29.953 716.829 26.9929 713.901 Q24.0328 710.973 24.0328 706.74 Z" fill="#000000" fill-rule="nonzero" fill-opacity="1" /><path clip-path="url(#clip350)" d="M22.9507 685.224 L22.9507 680.131 Q30.4622 675.357 37.6555 673.001 Q44.8487 670.614 51.9465 670.614 Q59.0761 670.614 66.3011 673.001 Q73.5262 675.357 81.0059 680.131 L81.0059 685.224 Q73.7172 680.99 66.5239 678.921 Q59.2989 676.821 51.9465 676.821 Q44.5941 676.821 37.4327 678.921 Q30.2712 680.99 22.9507 685.224 Z" fill="#000000" fill-rule="nonzero" fill-opacity="1" /><polyline clip-path="url(#clip352)" style="stroke:#009af9; stroke-linecap:round; stroke-linejoin:round; stroke-width:4; stroke-opacity:1; fill:none" points="229.629,1383.72 254.791,1294.89 279.954,990.436 305.116,726.804 330.278,448.867 355.44,330.604 380.603,134.382 405.765,86.1857 430.927,102.639 456.089,113.111 481.252,163.929 506.414,215.516 531.576,246.946 556.739,272.047 581.901,226.758 607.063,261.391 632.225,293.65 657.388,305.361 682.55,251.522 707.712,265.851 732.874,233.196 758.037,250.851 783.199,256.35 808.361,220.403 833.524,269.581 858.686,272.982 883.848,255.504 909.01,194.119 934.173,244.249 959.335,243.299 984.497,258.773 1009.66,228.16 1034.82,233.892 1059.98,279.091 1085.15,231.886 "/>
<polyline clip-path="url(#clip352)" style="stroke:#e26f46; stroke-linecap:round; stroke-linejoin:round; stroke-width:3; stroke-opacity:1; fill:none" stroke-dasharray="12, 6, 2, 6" points="229.629,1384.24 254.791,1289.01 279.954,994.66 305.116,718.486 330.278,447.959 355.44,315.569 380.603,149.116 405.765,87.4843 430.927,100.534 456.089,119.817 481.252,166.656 506.414,217.945 531.576,251.757 556.739,275.365 581.901,240.635 607.063,257.115 632.225,287.66 657.388,303.851 682.55,262.642 707.712,262.654 732.874,238.012 758.037,246.884 783.199,254.982 808.361,228.107 833.524,260.687 858.686,272.513 883.848,260.05 909.01,206.505 934.173,234.017 959.335,242.772 984.497,256.96 1009.66,235.108 1034.82,233.372 1059.98,270.034 1085.15,241.33 "/>
<path clip-path="url(#clip350)" d="M961.069 1377.32 L1080.58 1377.32 L1080.58 1221.8 L961.069 1221.8  Z" fill="#ffffff" fill-rule="evenodd" fill-opacity="1"/>
<polyline clip-path="url(#clip350)" style="stroke:#000000; stroke-linecap:round; stroke-linejoin:round; stroke-width:4; stroke-opacity:1; fill:none" points="961.069,1377.32 1080.58,1377.32 1080.58,1221.8 961.069,1221.8 961.069,1377.32 "/>
<polyline clip-path="url(#clip350)" style="stroke:#009af9; stroke-linecap:round; stroke-linejoin:round; stroke-width:4; stroke-opacity:1; fill:none" points="971.145,1273.64 1031.6,1273.64 "/>
<path clip-path="url(#clip350)" d="M1068.45 1260.37 Q1066.97 1260.37 1066.22 1260.51 Q1065.48 1260.63 1065.29 1260.8 Q1065.1 1260.96 1064.89 1261.38 L1054.58 1283.3 Q1053.48 1285.65 1051.42 1287.33 Q1049.38 1289.02 1046.81 1289.02 Q1044.65 1289.02 1043.15 1287.71 Q1041.68 1286.42 1041.68 1284.59 Q1041.68 1283.28 1042.5 1282.53 Q1043.32 1281.81 1044.42 1281.81 Q1045.64 1281.81 1046.41 1282.58 Q1047.21 1283.35 1047.21 1284.55 Q1047.21 1285.32 1046.88 1285.9 Q1046.55 1286.51 1046.25 1286.72 Q1045.96 1286.96 1045.66 1287.1 Q1046.15 1287.29 1046.81 1287.29 Q1047.79 1287.29 1048.63 1286.89 Q1049.5 1286.51 1050.06 1286 Q1050.65 1285.51 1051.23 1284.62 Q1051.82 1283.75 1052.1 1283.19 Q1052.38 1282.65 1052.8 1281.71 L1053.9 1279.42 L1044.93 1260.37 L1041.87 1260.37 L1041.87 1258.13 L1047.35 1258.27 L1053.3 1258.13 L1053.3 1260.37 L1050.7 1260.37 L1056.79 1273.33 L1062.31 1261.52 L1062.55 1260.96 Q1062.55 1260.7 1061.99 1260.56 Q1061.42 1260.4 1060.86 1260.4 L1060.3 1260.37 L1060.3 1258.13 L1064.66 1258.27 Q1066.72 1258.27 1068.45 1258.13 L1068.45 1260.37 Z" fill="#000000" fill-rule="nonzero" fill-opacity="1" /><polyline clip-path="url(#clip350)" style="stroke:#e26f46; stroke-linecap:round; stroke-linejoin:round; stroke-width:3; stroke-opacity:1; fill:none" stroke-dasharray="12, 6, 2, 6" points="971.145,1325.48 1031.6,1325.48 "/>
<path clip-path="url(#clip350)" d="M1064.26 1309.2 L1063.85 1309.87 Q1061.31 1308.77 1058.15 1307.01 Q1054.98 1308.77 1052.44 1309.87 L1052.05 1309.2 Q1054.82 1306.79 1058.15 1304.93 Q1061.51 1306.8 1064.26 1309.2 Z" fill="#000000" fill-rule="nonzero" fill-opacity="1" /><path clip-path="url(#clip350)" d="M1068.45 1317.22 Q1066.97 1317.22 1066.22 1317.36 Q1065.48 1317.48 1065.29 1317.64 Q1065.1 1317.8 1064.89 1318.23 L1054.58 1340.15 Q1053.48 1342.49 1051.42 1344.18 Q1049.38 1345.86 1046.81 1345.86 Q1044.65 1345.86 1043.15 1344.55 Q1041.68 1343.26 1041.68 1341.44 Q1041.68 1340.13 1042.5 1339.38 Q1043.32 1338.65 1044.42 1338.65 Q1045.64 1338.65 1046.41 1339.42 Q1047.21 1340.2 1047.21 1341.39 Q1047.21 1342.16 1046.88 1342.75 Q1046.55 1343.36 1046.25 1343.57 Q1045.96 1343.8 1045.66 1343.94 Q1046.15 1344.13 1046.81 1344.13 Q1047.79 1344.13 1048.63 1343.73 Q1049.5 1343.36 1050.06 1342.84 Q1050.65 1342.35 1051.23 1341.46 Q1051.82 1340.59 1052.1 1340.03 Q1052.38 1339.49 1052.8 1338.56 L1053.9 1336.26 L1044.93 1317.22 L1041.87 1317.22 L1041.87 1314.97 L1047.35 1315.11 L1053.3 1314.97 L1053.3 1317.22 L1050.7 1317.22 L1056.79 1330.17 L1062.31 1318.37 L1062.55 1317.8 Q1062.55 1317.55 1061.99 1317.41 Q1061.42 1317.24 1060.86 1317.24 L1060.3 1317.22 L1060.3 1314.97 L1064.66 1315.11 Q1066.72 1315.11 1068.45 1314.97 L1068.45 1317.22 Z" fill="#000000" fill-rule="nonzero" fill-opacity="1" /><path clip-path="url(#clip350)" d="M1445.91 398.692 L2352.76 398.692 L2352.76 47.2441 L1445.91 47.2441  Z" fill="#ffffff" fill-rule="evenodd" fill-opacity="1"/>
<defs>
  <clipPath id="clip353">
    <rect x="1445" y="47" width="908" height="352"/>
  </clipPath>
</defs>
<polyline clip-path="url(#clip353)" style="stroke:#000000; stroke-linecap:round; stroke-linejoin:round; stroke-width:2; stroke-opacity:0.1; fill:none" points="1471.57,398.692 1471.57,47.2441 "/>
<polyline clip-path="url(#clip353)" style="stroke:#000000; stroke-linecap:round; stroke-linejoin:round; stroke-width:2; stroke-opacity:0.1; fill:none" points="1723.2,398.692 1723.2,47.2441 "/>
<polyline clip-path="url(#clip353)" style="stroke:#000000; stroke-linecap:round; stroke-linejoin:round; stroke-width:2; stroke-opacity:0.1; fill:none" points="1974.82,398.692 1974.82,47.2441 "/>
<polyline clip-path="url(#clip353)" style="stroke:#000000; stroke-linecap:round; stroke-linejoin:round; stroke-width:2; stroke-opacity:0.1; fill:none" points="2226.44,398.692 2226.44,47.2441 "/>
<polyline clip-path="url(#clip353)" style="stroke:#000000; stroke-linecap:round; stroke-linejoin:round; stroke-width:2; stroke-opacity:0.1; fill:none" points="1445.91,388.745 2352.76,388.745 "/>
<polyline clip-path="url(#clip353)" style="stroke:#000000; stroke-linecap:round; stroke-linejoin:round; stroke-width:2; stroke-opacity:0.1; fill:none" points="1445.91,323.008 2352.76,323.008 "/>
<polyline clip-path="url(#clip353)" style="stroke:#000000; stroke-linecap:round; stroke-linejoin:round; stroke-width:2; stroke-opacity:0.1; fill:none" points="1445.91,257.27 2352.76,257.27 "/>
<polyline clip-path="url(#clip353)" style="stroke:#000000; stroke-linecap:round; stroke-linejoin:round; stroke-width:2; stroke-opacity:0.1; fill:none" points="1445.91,191.533 2352.76,191.533 "/>
<polyline clip-path="url(#clip353)" style="stroke:#000000; stroke-linecap:round; stroke-linejoin:round; stroke-width:2; stroke-opacity:0.1; fill:none" points="1445.91,125.796 2352.76,125.796 "/>
<polyline clip-path="url(#clip353)" style="stroke:#000000; stroke-linecap:round; stroke-linejoin:round; stroke-width:2; stroke-opacity:0.1; fill:none" points="1445.91,60.0584 2352.76,60.0584 "/>
<polyline clip-path="url(#clip350)" style="stroke:#000000; stroke-linecap:round; stroke-linejoin:round; stroke-width:4; stroke-opacity:1; fill:none" points="1445.91,398.692 2352.76,398.692 "/>
<polyline clip-path="url(#clip350)" style="stroke:#000000; stroke-linecap:round; stroke-linejoin:round; stroke-width:4; stroke-opacity:1; fill:none" points="1471.57,398.692 1471.57,379.794 "/>
<polyline clip-path="url(#clip350)" style="stroke:#000000; stroke-linecap:round; stroke-linejoin:round; stroke-width:4; stroke-opacity:1; fill:none" points="1723.2,398.692 1723.2,379.794 "/>
<polyline clip-path="url(#clip350)" style="stroke:#000000; stroke-linecap:round; stroke-linejoin:round; stroke-width:4; stroke-opacity:1; fill:none" points="1974.82,398.692 1974.82,379.794 "/>
<polyline clip-path="url(#clip350)" style="stroke:#000000; stroke-linecap:round; stroke-linejoin:round; stroke-width:4; stroke-opacity:1; fill:none" points="2226.44,398.692 2226.44,379.794 "/>
<path clip-path="url(#clip350)" d="M1471.57 429.611 Q1467.96 429.611 1466.13 433.175 Q1464.33 436.717 1464.33 443.847 Q1464.33 450.953 1466.13 454.518 Q1467.96 458.059 1471.57 458.059 Q1475.21 458.059 1477.01 454.518 Q1478.84 450.953 1478.84 443.847 Q1478.84 436.717 1477.01 433.175 Q1475.21 429.611 1471.57 429.611 M1471.57 425.907 Q1477.38 425.907 1480.44 430.513 Q1483.52 435.097 1483.52 443.847 Q1483.52 452.573 1480.44 457.18 Q1477.38 461.763 1471.57 461.763 Q1465.76 461.763 1462.68 457.18 Q1459.63 452.573 1459.63 443.847 Q1459.63 435.097 1462.68 430.513 Q1465.76 425.907 1471.57 425.907 Z" fill="#000000" fill-rule="nonzero" fill-opacity="1" /><path clip-path="url(#clip350)" d="M1713.58 457.157 L1721.22 457.157 L1721.22 430.791 L1712.91 432.458 L1712.91 428.199 L1721.17 426.532 L1725.85 426.532 L1725.85 457.157 L1733.49 457.157 L1733.49 461.092 L1713.58 461.092 L1713.58 457.157 Z" fill="#000000" fill-rule="nonzero" fill-opacity="1" /><path clip-path="url(#clip350)" d="M1969.47 457.157 L1985.79 457.157 L1985.79 461.092 L1963.85 461.092 L1963.85 457.157 Q1966.51 454.402 1971.09 449.772 Q1975.7 445.12 1976.88 443.777 Q1979.12 441.254 1980 439.518 Q1980.91 437.759 1980.91 436.069 Q1980.91 433.314 1978.96 431.578 Q1977.04 429.842 1973.94 429.842 Q1971.74 429.842 1969.29 430.606 Q1966.86 431.37 1964.08 432.921 L1964.08 428.199 Q1966.9 427.064 1969.36 426.486 Q1971.81 425.907 1973.85 425.907 Q1979.22 425.907 1982.41 428.592 Q1985.61 431.277 1985.61 435.768 Q1985.61 437.898 1984.8 439.819 Q1984.01 441.717 1981.9 444.31 Q1981.32 444.981 1978.22 448.198 Q1975.12 451.393 1969.47 457.157 Z" fill="#000000" fill-rule="nonzero" fill-opacity="1" /><path clip-path="url(#clip350)" d="M2230.69 442.458 Q2234.05 443.175 2235.92 445.444 Q2237.82 447.712 2237.82 451.046 Q2237.82 456.161 2234.3 458.962 Q2230.78 461.763 2224.3 461.763 Q2222.12 461.763 2219.81 461.323 Q2217.52 460.907 2215.06 460.05 L2215.06 455.536 Q2217.01 456.671 2219.32 457.249 Q2221.64 457.828 2224.16 457.828 Q2228.56 457.828 2230.85 456.092 Q2233.17 454.356 2233.17 451.046 Q2233.17 447.99 2231.01 446.277 Q2228.88 444.541 2225.06 444.541 L2221.04 444.541 L2221.04 440.698 L2225.25 440.698 Q2228.7 440.698 2230.53 439.333 Q2232.36 437.944 2232.36 435.351 Q2232.36 432.689 2230.46 431.277 Q2228.58 429.842 2225.06 429.842 Q2223.14 429.842 2220.94 430.259 Q2218.74 430.675 2216.11 431.555 L2216.11 427.388 Q2218.77 426.648 2221.08 426.277 Q2223.42 425.907 2225.48 425.907 Q2230.8 425.907 2233.91 428.337 Q2237.01 430.745 2237.01 434.865 Q2237.01 437.736 2235.36 439.726 Q2233.72 441.694 2230.69 442.458 Z" fill="#000000" fill-rule="nonzero" fill-opacity="1" /><polyline clip-path="url(#clip350)" style="stroke:#000000; stroke-linecap:round; stroke-linejoin:round; stroke-width:4; stroke-opacity:1; fill:none" points="1445.91,398.692 1445.91,47.2441 "/>
<polyline clip-path="url(#clip350)" style="stroke:#000000; stroke-linecap:round; stroke-linejoin:round; stroke-width:4; stroke-opacity:1; fill:none" points="1445.91,388.745 1464.81,388.745 "/>
<polyline clip-path="url(#clip350)" style="stroke:#000000; stroke-linecap:round; stroke-linejoin:round; stroke-width:4; stroke-opacity:1; fill:none" points="1445.91,323.008 1464.81,323.008 "/>
<polyline clip-path="url(#clip350)" style="stroke:#000000; stroke-linecap:round; stroke-linejoin:round; stroke-width:4; stroke-opacity:1; fill:none" points="1445.91,257.27 1464.81,257.27 "/>
<polyline clip-path="url(#clip350)" style="stroke:#000000; stroke-linecap:round; stroke-linejoin:round; stroke-width:4; stroke-opacity:1; fill:none" points="1445.91,191.533 1464.81,191.533 "/>
<polyline clip-path="url(#clip350)" style="stroke:#000000; stroke-linecap:round; stroke-linejoin:round; stroke-width:4; stroke-opacity:1; fill:none" points="1445.91,125.796 1464.81,125.796 "/>
<polyline clip-path="url(#clip350)" style="stroke:#000000; stroke-linecap:round; stroke-linejoin:round; stroke-width:4; stroke-opacity:1; fill:none" points="1445.91,60.0584 1464.81,60.0584 "/>
<path clip-path="url(#clip350)" d="M1352.73 374.544 Q1349.12 374.544 1347.29 378.109 Q1345.49 381.65 1345.49 388.78 Q1345.49 395.886 1347.29 399.451 Q1349.12 402.993 1352.73 402.993 Q1356.37 402.993 1358.17 399.451 Q1360 395.886 1360 388.78 Q1360 381.65 1358.17 378.109 Q1356.37 374.544 1352.73 374.544 M1352.73 370.84 Q1358.54 370.84 1361.6 375.447 Q1364.68 380.03 1364.68 388.78 Q1364.68 397.507 1361.6 402.113 Q1358.54 406.697 1352.73 406.697 Q1346.92 406.697 1343.84 402.113 Q1340.79 397.507 1340.79 388.78 Q1340.79 380.03 1343.84 375.447 Q1346.92 370.84 1352.73 370.84 Z" fill="#000000" fill-rule="nonzero" fill-opacity="1" /><path clip-path="url(#clip350)" d="M1372.89 400.146 L1377.78 400.146 L1377.78 406.025 L1372.89 406.025 L1372.89 400.146 Z" fill="#000000" fill-rule="nonzero" fill-opacity="1" /><path clip-path="url(#clip350)" d="M1397.96 374.544 Q1394.35 374.544 1392.52 378.109 Q1390.72 381.65 1390.72 388.78 Q1390.72 395.886 1392.52 399.451 Q1394.35 402.993 1397.96 402.993 Q1401.6 402.993 1403.4 399.451 Q1405.23 395.886 1405.23 388.78 Q1405.23 381.65 1403.4 378.109 Q1401.6 374.544 1397.96 374.544 M1397.96 370.84 Q1403.77 370.84 1406.83 375.447 Q1409.91 380.03 1409.91 388.78 Q1409.91 397.507 1406.83 402.113 Q1403.77 406.697 1397.96 406.697 Q1392.15 406.697 1389.07 402.113 Q1386.02 397.507 1386.02 388.78 Q1386.02 380.03 1389.07 375.447 Q1392.15 370.84 1397.96 370.84 Z" fill="#000000" fill-rule="nonzero" fill-opacity="1" /><path clip-path="url(#clip350)" d="M1353.96 308.807 Q1350.35 308.807 1348.52 312.371 Q1346.71 315.913 1346.71 323.043 Q1346.71 330.149 1348.52 333.714 Q1350.35 337.255 1353.96 337.255 Q1357.59 337.255 1359.4 333.714 Q1361.23 330.149 1361.23 323.043 Q1361.23 315.913 1359.4 312.371 Q1357.59 308.807 1353.96 308.807 M1353.96 305.103 Q1359.77 305.103 1362.82 309.709 Q1365.9 314.293 1365.9 323.043 Q1365.9 331.769 1362.82 336.376 Q1359.77 340.959 1353.96 340.959 Q1348.15 340.959 1345.07 336.376 Q1342.01 331.769 1342.01 323.043 Q1342.01 314.293 1345.07 309.709 Q1348.15 305.103 1353.96 305.103 Z" fill="#000000" fill-rule="nonzero" fill-opacity="1" /><path clip-path="url(#clip350)" d="M1374.12 334.408 L1379.01 334.408 L1379.01 340.288 L1374.12 340.288 L1374.12 334.408 Z" fill="#000000" fill-rule="nonzero" fill-opacity="1" /><path clip-path="url(#clip350)" d="M1390 336.353 L1397.64 336.353 L1397.64 309.987 L1389.33 311.654 L1389.33 307.395 L1397.59 305.728 L1402.27 305.728 L1402.27 336.353 L1409.91 336.353 L1409.91 340.288 L1390 340.288 L1390 336.353 Z" fill="#000000" fill-rule="nonzero" fill-opacity="1" /><path clip-path="url(#clip350)" d="M1354.33 243.069 Q1350.72 243.069 1348.89 246.634 Q1347.08 250.176 1347.08 257.305 Q1347.08 264.412 1348.89 267.976 Q1350.72 271.518 1354.33 271.518 Q1357.96 271.518 1359.77 267.976 Q1361.6 264.412 1361.6 257.305 Q1361.6 250.176 1359.77 246.634 Q1357.96 243.069 1354.33 243.069 M1354.33 239.365 Q1360.14 239.365 1363.2 243.972 Q1366.27 248.555 1366.27 257.305 Q1366.27 266.032 1363.2 270.638 Q1360.14 275.222 1354.33 275.222 Q1348.52 275.222 1345.44 270.638 Q1342.39 266.032 1342.39 257.305 Q1342.39 248.555 1345.44 243.972 Q1348.52 239.365 1354.33 239.365 Z" fill="#000000" fill-rule="nonzero" fill-opacity="1" /><path clip-path="url(#clip350)" d="M1374.49 268.671 L1379.38 268.671 L1379.38 274.55 L1374.49 274.55 L1374.49 268.671 Z" fill="#000000" fill-rule="nonzero" fill-opacity="1" /><path clip-path="url(#clip350)" d="M1393.59 270.615 L1409.91 270.615 L1409.91 274.55 L1387.96 274.55 L1387.96 270.615 Q1390.63 267.861 1395.21 263.231 Q1399.82 258.578 1401 257.236 Q1403.24 254.713 1404.12 252.977 Q1405.02 251.217 1405.02 249.527 Q1405.02 246.773 1403.08 245.037 Q1401.16 243.301 1398.06 243.301 Q1395.86 243.301 1393.4 244.065 Q1390.97 244.828 1388.19 246.379 L1388.19 241.657 Q1391.02 240.523 1393.47 239.944 Q1395.93 239.365 1397.96 239.365 Q1403.33 239.365 1406.53 242.051 Q1409.72 244.736 1409.72 249.227 Q1409.72 251.356 1408.91 253.277 Q1408.13 255.176 1406.02 257.768 Q1405.44 258.439 1402.34 261.657 Q1399.24 264.851 1393.59 270.615 Z" fill="#000000" fill-rule="nonzero" fill-opacity="1" /><path clip-path="url(#clip350)" d="M1353.38 177.332 Q1349.77 177.332 1347.94 180.897 Q1346.13 184.438 1346.13 191.568 Q1346.13 198.674 1347.94 202.239 Q1349.77 205.781 1353.38 205.781 Q1357.01 205.781 1358.82 202.239 Q1360.65 198.674 1360.65 191.568 Q1360.65 184.438 1358.82 180.897 Q1357.01 177.332 1353.38 177.332 M1353.38 173.628 Q1359.19 173.628 1362.25 178.235 Q1365.32 182.818 1365.32 191.568 Q1365.32 200.295 1362.25 204.901 Q1359.19 209.484 1353.38 209.484 Q1347.57 209.484 1344.49 204.901 Q1341.44 200.295 1341.44 191.568 Q1341.44 182.818 1344.49 178.235 Q1347.57 173.628 1353.38 173.628 Z" fill="#000000" fill-rule="nonzero" fill-opacity="1" /><path clip-path="url(#clip350)" d="M1373.54 202.934 L1378.43 202.934 L1378.43 208.813 L1373.54 208.813 L1373.54 202.934 Z" fill="#000000" fill-rule="nonzero" fill-opacity="1" /><path clip-path="url(#clip350)" d="M1402.78 190.179 Q1406.13 190.897 1408.01 193.165 Q1409.91 195.434 1409.91 198.767 Q1409.91 203.883 1406.39 206.683 Q1402.87 209.484 1396.39 209.484 Q1394.21 209.484 1391.9 209.045 Q1389.61 208.628 1387.15 207.771 L1387.15 203.258 Q1389.1 204.392 1391.41 204.971 Q1393.73 205.549 1396.25 205.549 Q1400.65 205.549 1402.94 203.813 Q1405.26 202.077 1405.26 198.767 Q1405.26 195.711 1403.1 193.998 Q1400.97 192.262 1397.15 192.262 L1393.13 192.262 L1393.13 188.42 L1397.34 188.42 Q1400.79 188.42 1402.62 187.054 Q1404.44 185.665 1404.44 183.073 Q1404.44 180.41 1402.55 178.998 Q1400.67 177.563 1397.15 177.563 Q1395.23 177.563 1393.03 177.98 Q1390.83 178.397 1388.19 179.276 L1388.19 175.11 Q1390.86 174.369 1393.17 173.998 Q1395.51 173.628 1397.57 173.628 Q1402.89 173.628 1406 176.059 Q1409.1 178.466 1409.1 182.586 Q1409.1 185.457 1407.45 187.447 Q1405.81 189.415 1402.78 190.179 Z" fill="#000000" fill-rule="nonzero" fill-opacity="1" /><path clip-path="url(#clip350)" d="M1352.25 111.594 Q1348.63 111.594 1346.81 115.159 Q1345 118.701 1345 125.83 Q1345 132.937 1346.81 136.502 Q1348.63 140.043 1352.25 140.043 Q1355.88 140.043 1357.69 136.502 Q1359.51 132.937 1359.51 125.83 Q1359.51 118.701 1357.69 115.159 Q1355.88 111.594 1352.25 111.594 M1352.25 107.891 Q1358.06 107.891 1361.11 112.497 Q1364.19 117.08 1364.19 125.83 Q1364.19 134.557 1361.11 139.164 Q1358.06 143.747 1352.25 143.747 Q1346.44 143.747 1343.36 139.164 Q1340.3 134.557 1340.3 125.83 Q1340.3 117.08 1343.36 112.497 Q1346.44 107.891 1352.25 107.891 Z" fill="#000000" fill-rule="nonzero" fill-opacity="1" /><path clip-path="url(#clip350)" d="M1372.41 137.196 L1377.29 137.196 L1377.29 143.076 L1372.41 143.076 L1372.41 137.196 Z" fill="#000000" fill-rule="nonzero" fill-opacity="1" /><path clip-path="url(#clip350)" d="M1400.32 112.59 L1388.52 131.039 L1400.32 131.039 L1400.32 112.59 M1399.1 108.516 L1404.98 108.516 L1404.98 131.039 L1409.91 131.039 L1409.91 134.928 L1404.98 134.928 L1404.98 143.076 L1400.32 143.076 L1400.32 134.928 L1384.72 134.928 L1384.72 130.414 L1399.1 108.516 Z" fill="#000000" fill-rule="nonzero" fill-opacity="1" /><path clip-path="url(#clip350)" d="M1353.73 45.857 Q1350.12 45.857 1348.29 49.4218 Q1346.48 52.9635 1346.48 60.0931 Q1346.48 67.1995 1348.29 70.7643 Q1350.12 74.306 1353.73 74.306 Q1357.36 74.306 1359.17 70.7643 Q1361 67.1995 1361 60.0931 Q1361 52.9635 1359.17 49.4218 Q1357.36 45.857 1353.73 45.857 M1353.73 42.1534 Q1359.54 42.1534 1362.59 46.7598 Q1365.67 51.3431 1365.67 60.0931 Q1365.67 68.8199 1362.59 73.4263 Q1359.54 78.0096 1353.73 78.0096 Q1347.92 78.0096 1344.84 73.4263 Q1341.78 68.8199 1341.78 60.0931 Q1341.78 51.3431 1344.84 46.7598 Q1347.92 42.1534 1353.73 42.1534 Z" fill="#000000" fill-rule="nonzero" fill-opacity="1" /><path clip-path="url(#clip350)" d="M1373.89 71.4588 L1378.77 71.4588 L1378.77 77.3384 L1373.89 77.3384 L1373.89 71.4588 Z" fill="#000000" fill-rule="nonzero" fill-opacity="1" /><path clip-path="url(#clip350)" d="M1389.01 42.7784 L1407.36 42.7784 L1407.36 46.7135 L1393.29 46.7135 L1393.29 55.1857 Q1394.31 54.8385 1395.32 54.6764 Q1396.34 54.4913 1397.36 54.4913 Q1403.15 54.4913 1406.53 57.6625 Q1409.91 60.8338 1409.91 66.2505 Q1409.91 71.8291 1406.44 74.931 Q1402.96 78.0096 1396.64 78.0096 Q1394.47 78.0096 1392.2 77.6393 Q1389.95 77.2689 1387.55 76.5282 L1387.55 71.8291 Q1389.63 72.9634 1391.85 73.5189 Q1394.07 74.0745 1396.55 74.0745 Q1400.56 74.0745 1402.89 71.968 Q1405.23 69.8615 1405.23 66.2505 Q1405.23 62.6394 1402.89 60.5329 Q1400.56 58.4264 1396.55 58.4264 Q1394.68 58.4264 1392.8 58.8431 Q1390.95 59.2597 1389.01 60.1394 L1389.01 42.7784 Z" fill="#000000" fill-rule="nonzero" fill-opacity="1" /><path clip-path="url(#clip350)" d="M1265.47 298.084 Q1270.89 298.084 1276.97 299.823 Q1283.03 301.53 1287.92 304.235 Q1292.79 306.941 1296.01 310.483 Q1299.19 314.026 1299.19 317.408 Q1299.19 319.565 1298 321.176 Q1296.78 322.754 1294.75 323.623 Q1292.69 324.493 1290.43 324.912 Q1288.15 325.33 1285.67 325.33 Q1281.96 325.33 1277.94 324.525 Q1273.88 323.72 1270.21 322.367 Q1266.51 321.015 1263.16 319.115 Q1259.77 317.214 1257.33 315.121 Q1254.85 312.995 1253.4 310.612 Q1251.95 308.229 1251.95 306.007 Q1251.95 304.396 1252.66 303.108 Q1253.33 301.788 1254.52 300.95 Q1255.68 300.113 1257.07 299.533 Q1258.45 298.921 1260.06 298.632 Q1261.64 298.342 1262.96 298.213 Q1264.25 298.084 1265.47 298.084 M1261.38 302.432 Q1259.74 302.432 1258.52 302.561 Q1257.26 302.69 1256.01 303.044 Q1254.75 303.398 1254.07 304.171 Q1253.4 304.912 1253.4 306.071 Q1253.4 309.453 1260.32 313.253 Q1262.48 314.477 1265.41 315.572 Q1268.34 316.667 1269.73 317.053 Q1271.11 317.44 1274.52 318.342 L1274.52 304.558 Q1265.73 302.432 1261.38 302.432 M1276.62 305.137 L1276.62 318.857 Q1284.67 320.983 1289.69 320.983 Q1294.07 320.983 1295.91 320.081 Q1297.71 319.147 1297.71 317.408 Q1297.71 315.411 1295.72 313.543 Q1293.69 311.675 1290.02 309.775 Q1285.25 307.263 1276.62 305.137 Z" fill="#000000" fill-rule="nonzero" fill-opacity="1" /><path clip-path="url(#clip350)" d="M1248.99 253.776 Q1256.31 258.041 1263.47 260.11 Q1270.64 262.179 1277.99 262.179 Q1285.34 262.179 1292.57 260.11 Q1299.76 258.009 1307.05 253.776 L1307.05 258.869 Q1299.57 263.643 1292.34 266.03 Q1285.12 268.386 1277.99 268.386 Q1270.89 268.386 1263.7 266.03 Q1256.5 263.675 1248.99 258.869 L1248.99 253.776 Z" fill="#000000" fill-rule="nonzero" fill-opacity="1" /><path clip-path="url(#clip350)" d="M1268.28 221.757 Q1267.71 222.743 1267.45 223.921 Q1267.17 225.067 1267.17 226.467 Q1267.17 231.433 1270.41 234.106 Q1273.63 236.748 1279.67 236.748 L1298.45 236.748 L1298.45 242.636 L1262.81 242.636 L1262.81 236.748 L1268.34 236.748 Q1265.1 234.902 1263.54 231.942 Q1261.95 228.982 1261.95 224.749 Q1261.95 224.144 1262.04 223.412 Q1262.11 222.68 1262.26 221.789 L1268.28 221.757 Z" fill="#000000" fill-rule="nonzero" fill-opacity="1" /><path clip-path="url(#clip350)" d="M1280.53 199.413 Q1280.53 206.511 1282.16 209.248 Q1283.78 211.985 1287.7 211.985 Q1290.81 211.985 1292.66 209.948 Q1294.48 207.879 1294.48 204.347 Q1294.48 199.477 1291.04 196.549 Q1287.57 193.588 1281.84 193.588 L1280.53 193.588 L1280.53 199.413 M1278.12 187.732 L1298.45 187.732 L1298.45 193.588 L1293.04 193.588 Q1296.29 195.594 1297.85 198.586 Q1299.38 201.577 1299.38 205.906 Q1299.38 211.381 1296.32 214.627 Q1293.23 217.842 1288.08 217.842 Q1282.06 217.842 1279.01 213.831 Q1275.95 209.789 1275.95 201.8 L1275.95 193.588 L1275.38 193.588 Q1271.34 193.588 1269.14 196.262 Q1266.91 198.904 1266.91 203.71 Q1266.91 206.766 1267.64 209.662 Q1268.38 212.558 1269.84 215.232 L1264.43 215.232 Q1263.19 212.017 1262.58 208.993 Q1261.95 205.97 1261.95 203.105 Q1261.95 195.371 1265.96 191.551 Q1269.97 187.732 1278.12 187.732 Z" fill="#000000" fill-rule="nonzero" fill-opacity="1" /><path clip-path="url(#clip350)" d="M1268.22 152.211 L1248.93 152.211 L1248.93 146.355 L1298.45 146.355 L1298.45 152.211 L1293.11 152.211 Q1296.29 154.057 1297.85 156.89 Q1299.38 159.691 1299.38 163.638 Q1299.38 170.099 1294.22 174.173 Q1289.06 178.215 1280.66 178.215 Q1272.26 178.215 1267.1 174.173 Q1261.95 170.099 1261.95 163.638 Q1261.95 159.691 1263.51 156.89 Q1265.03 154.057 1268.22 152.211 M1280.66 172.168 Q1287.12 172.168 1290.81 169.526 Q1294.48 166.853 1294.48 162.206 Q1294.48 157.559 1290.81 154.885 Q1287.12 152.211 1280.66 152.211 Q1274.2 152.211 1270.54 154.885 Q1266.85 157.559 1266.85 162.206 Q1266.85 166.853 1270.54 169.526 Q1274.2 172.168 1280.66 172.168 Z" fill="#000000" fill-rule="nonzero" fill-opacity="1" /><path clip-path="url(#clip350)" d="M1248.99 135.215 L1248.99 130.122 Q1256.5 125.348 1263.7 122.993 Q1270.89 120.606 1277.99 120.606 Q1285.12 120.606 1292.34 122.993 Q1299.57 125.348 1307.05 130.122 L1307.05 135.215 Q1299.76 130.982 1292.57 128.913 Q1285.34 126.812 1277.99 126.812 Q1270.64 126.812 1263.47 128.913 Q1256.31 130.982 1248.99 135.215 Z" fill="#000000" fill-rule="nonzero" fill-opacity="1" /><polyline clip-path="url(#clip353)" style="stroke:#009af9; stroke-linecap:round; stroke-linejoin:round; stroke-width:4; stroke-opacity:1; fill:none" points="1471.57,388.745 1496.74,360.199 1521.9,295.443 1547.06,220.873 1572.22,154.14 1597.38,104.19 1622.55,73.1593 1647.71,58.8945 1672.87,57.1907 1698.03,63.3911 1723.2,73.3544 1748.36,83.9317 1773.52,93.0966 1798.68,99.8469 1823.85,103.979 1849.01,105.813 1874.17,105.937 1899.33,105.004 1924.49,103.588 1949.66,102.124 1974.82,100.882 1999.98,99.9868 2025.14,99.4565 2050.31,99.2381 2075.47,99.2463 2100.63,99.3907 2125.79,99.593 2150.95,99.7956 2176.12,99.9639 2201.28,100.082 2226.44,100.15 2251.6,100.176 2276.77,100.172 2301.93,100.15 2327.09,100.121 "/>
<polyline clip-path="url(#clip353)" style="stroke:#e26f46; stroke-linecap:round; stroke-linejoin:round; stroke-width:3; stroke-opacity:1; fill:none" stroke-dasharray="12, 6, 2, 6" points="1471.57,384.493 1496.74,360.471 1521.9,286.215 1547.06,216.545 1572.22,148.3 1597.38,114.903 1622.55,72.9117 1647.71,57.3641 1672.87,60.6561 1698.03,65.5206 1723.2,77.3365 1748.36,90.2752 1773.52,98.8047 1798.68,104.76 1823.85,95.999 1849.01,100.156 1874.17,107.862 1899.33,111.946 1924.49,101.551 1949.66,101.554 1974.82,95.3374 1999.98,97.5755 2025.14,99.6183 2050.31,92.8386 2075.47,101.058 2100.63,104.041 2125.79,100.897 2150.95,87.3891 2176.12,94.3295 2201.28,96.5382 2226.44,100.117 2251.6,94.6049 2276.77,94.1668 2301.93,103.415 2327.09,96.1743 "/>
<path clip-path="url(#clip350)" d="M2203.01 386.977 L2322.53 386.977 L2322.53 231.457 L2203.01 231.457  Z" fill="#ffffff" fill-rule="evenodd" fill-opacity="1"/>
<polyline clip-path="url(#clip350)" style="stroke:#000000; stroke-linecap:round; stroke-linejoin:round; stroke-width:4; stroke-opacity:1; fill:none" points="2203.01,386.977 2322.53,386.977 2322.53,231.457 2203.01,231.457 2203.01,386.977 "/>
<polyline clip-path="url(#clip350)" style="stroke:#009af9; stroke-linecap:round; stroke-linejoin:round; stroke-width:4; stroke-opacity:1; fill:none" points="2213.09,283.297 2273.55,283.297 "/>
<path clip-path="url(#clip350)" d="M2310.63 293.836 L2305.36 293.695 L2299.6 293.836 L2299.6 291.587 L2301.47 291.587 L2296.2 285.357 L2291.54 290.58 L2291.21 291.049 Q2291.21 291.26 2291.75 291.423 Q2292.31 291.587 2292.97 291.587 L2292.97 293.836 L2288.03 293.695 L2283.62 293.836 L2283.62 291.587 Q2285.1 291.587 2285.78 291.564 Q2286.48 291.517 2287.28 291.306 Q2288.07 291.096 2288.47 290.674 L2294.75 283.624 L2287.28 274.794 L2283.86 274.794 L2283.86 272.545 L2289.15 272.686 L2294.94 272.545 L2294.94 274.794 L2293.01 274.794 L2297.72 280.298 L2301.75 275.801 Q2301.77 275.777 2302.15 275.215 Q2301.4 274.794 2300.32 274.794 L2300.32 272.545 L2305.26 272.686 L2309.67 272.545 L2309.67 274.794 Q2307.75 274.794 2306.74 274.934 Q2305.76 275.051 2305.45 275.215 Q2305.17 275.379 2304.77 275.801 L2299.17 282.031 L2307.23 291.587 L2310.63 291.587 L2310.63 293.836 Z" fill="#000000" fill-rule="nonzero" fill-opacity="1" /><polyline clip-path="url(#clip350)" style="stroke:#e26f46; stroke-linecap:round; stroke-linejoin:round; stroke-width:3; stroke-opacity:1; fill:none" stroke-dasharray="12, 6, 2, 6" points="2213.09,335.137 2273.55,335.137 "/>
<path clip-path="url(#clip350)" d="M2306.21 323.615 L2305.8 324.287 Q2303.26 323.189 2300.09 321.434 Q2296.93 323.189 2294.39 324.287 L2293.99 323.615 Q2296.76 321.205 2300.09 319.352 Q2303.45 321.221 2306.21 323.615 Z" fill="#000000" fill-rule="nonzero" fill-opacity="1" /><path clip-path="url(#clip350)" d="M2310.63 350.681 L2305.36 350.54 L2299.6 350.681 L2299.6 348.432 L2301.47 348.432 L2296.2 342.202 L2291.54 347.425 L2291.21 347.893 Q2291.21 348.104 2291.75 348.268 Q2292.31 348.432 2292.97 348.432 L2292.97 350.681 L2288.03 350.54 L2283.62 350.681 L2283.62 348.432 Q2285.1 348.432 2285.78 348.409 Q2286.48 348.362 2287.28 348.151 Q2288.07 347.94 2288.47 347.519 L2294.75 340.468 L2287.28 331.638 L2283.86 331.638 L2283.86 329.39 L2289.15 329.53 L2294.94 329.39 L2294.94 331.638 L2293.01 331.638 L2297.72 337.142 L2301.75 332.645 Q2301.77 332.622 2302.15 332.06 Q2301.4 331.638 2300.32 331.638 L2300.32 329.39 L2305.26 329.53 L2309.67 329.39 L2309.67 331.638 Q2307.75 331.638 2306.74 331.779 Q2305.76 331.896 2305.45 332.06 Q2305.17 332.224 2304.77 332.645 L2299.17 338.876 L2307.23 348.432 L2310.63 348.432 L2310.63 350.681 Z" fill="#000000" fill-rule="nonzero" fill-opacity="1" /><path clip-path="url(#clip350)" d="M1445.91 910.936 L2352.76 910.936 L2352.76 559.488 L1445.91 559.488  Z" fill="#ffffff" fill-rule="evenodd" fill-opacity="1"/>
<defs>
  <clipPath id="clip354">
    <rect x="1445" y="559" width="908" height="352"/>
  </clipPath>
</defs>
<polyline clip-path="url(#clip354)" style="stroke:#000000; stroke-linecap:round; stroke-linejoin:round; stroke-width:2; stroke-opacity:0.1; fill:none" points="1471.57,910.936 1471.57,559.488 "/>
<polyline clip-path="url(#clip354)" style="stroke:#000000; stroke-linecap:round; stroke-linejoin:round; stroke-width:2; stroke-opacity:0.1; fill:none" points="1723.2,910.936 1723.2,559.488 "/>
<polyline clip-path="url(#clip354)" style="stroke:#000000; stroke-linecap:round; stroke-linejoin:round; stroke-width:2; stroke-opacity:0.1; fill:none" points="1974.82,910.936 1974.82,559.488 "/>
<polyline clip-path="url(#clip354)" style="stroke:#000000; stroke-linecap:round; stroke-linejoin:round; stroke-width:2; stroke-opacity:0.1; fill:none" points="2226.44,910.936 2226.44,559.488 "/>
<polyline clip-path="url(#clip354)" style="stroke:#000000; stroke-linecap:round; stroke-linejoin:round; stroke-width:2; stroke-opacity:0.1; fill:none" points="1445.91,849.829 2352.76,849.829 "/>
<polyline clip-path="url(#clip354)" style="stroke:#000000; stroke-linecap:round; stroke-linejoin:round; stroke-width:2; stroke-opacity:0.1; fill:none" points="1445.91,782.782 2352.76,782.782 "/>
<polyline clip-path="url(#clip354)" style="stroke:#000000; stroke-linecap:round; stroke-linejoin:round; stroke-width:2; stroke-opacity:0.1; fill:none" points="1445.91,715.735 2352.76,715.735 "/>
<polyline clip-path="url(#clip354)" style="stroke:#000000; stroke-linecap:round; stroke-linejoin:round; stroke-width:2; stroke-opacity:0.1; fill:none" points="1445.91,648.688 2352.76,648.688 "/>
<polyline clip-path="url(#clip354)" style="stroke:#000000; stroke-linecap:round; stroke-linejoin:round; stroke-width:2; stroke-opacity:0.1; fill:none" points="1445.91,581.642 2352.76,581.642 "/>
<polyline clip-path="url(#clip350)" style="stroke:#000000; stroke-linecap:round; stroke-linejoin:round; stroke-width:4; stroke-opacity:1; fill:none" points="1445.91,910.936 2352.76,910.936 "/>
<polyline clip-path="url(#clip350)" style="stroke:#000000; stroke-linecap:round; stroke-linejoin:round; stroke-width:4; stroke-opacity:1; fill:none" points="1471.57,910.936 1471.57,892.038 "/>
<polyline clip-path="url(#clip350)" style="stroke:#000000; stroke-linecap:round; stroke-linejoin:round; stroke-width:4; stroke-opacity:1; fill:none" points="1723.2,910.936 1723.2,892.038 "/>
<polyline clip-path="url(#clip350)" style="stroke:#000000; stroke-linecap:round; stroke-linejoin:round; stroke-width:4; stroke-opacity:1; fill:none" points="1974.82,910.936 1974.82,892.038 "/>
<polyline clip-path="url(#clip350)" style="stroke:#000000; stroke-linecap:round; stroke-linejoin:round; stroke-width:4; stroke-opacity:1; fill:none" points="2226.44,910.936 2226.44,892.038 "/>
<path clip-path="url(#clip350)" d="M1471.57 941.855 Q1467.96 941.855 1466.13 945.419 Q1464.33 948.961 1464.33 956.091 Q1464.33 963.197 1466.13 966.762 Q1467.96 970.303 1471.57 970.303 Q1475.21 970.303 1477.01 966.762 Q1478.84 963.197 1478.84 956.091 Q1478.84 948.961 1477.01 945.419 Q1475.21 941.855 1471.57 941.855 M1471.57 938.151 Q1477.38 938.151 1480.44 942.757 Q1483.52 947.341 1483.52 956.091 Q1483.52 964.817 1480.44 969.424 Q1477.38 974.007 1471.57 974.007 Q1465.76 974.007 1462.68 969.424 Q1459.63 964.817 1459.63 956.091 Q1459.63 947.341 1462.68 942.757 Q1465.76 938.151 1471.57 938.151 Z" fill="#000000" fill-rule="nonzero" fill-opacity="1" /><path clip-path="url(#clip350)" d="M1713.58 969.401 L1721.22 969.401 L1721.22 943.035 L1712.91 944.702 L1712.91 940.443 L1721.17 938.776 L1725.85 938.776 L1725.85 969.401 L1733.49 969.401 L1733.49 973.336 L1713.58 973.336 L1713.58 969.401 Z" fill="#000000" fill-rule="nonzero" fill-opacity="1" /><path clip-path="url(#clip350)" d="M1969.47 969.401 L1985.79 969.401 L1985.79 973.336 L1963.85 973.336 L1963.85 969.401 Q1966.51 966.646 1971.09 962.016 Q1975.7 957.364 1976.88 956.021 Q1979.12 953.498 1980 951.762 Q1980.91 950.003 1980.91 948.313 Q1980.91 945.558 1978.96 943.822 Q1977.04 942.086 1973.94 942.086 Q1971.74 942.086 1969.29 942.85 Q1966.86 943.614 1964.08 945.165 L1964.08 940.443 Q1966.9 939.308 1969.36 938.73 Q1971.81 938.151 1973.85 938.151 Q1979.22 938.151 1982.41 940.836 Q1985.61 943.521 1985.61 948.012 Q1985.61 950.142 1984.8 952.063 Q1984.01 953.961 1981.9 956.554 Q1981.32 957.225 1978.22 960.442 Q1975.12 963.637 1969.47 969.401 Z" fill="#000000" fill-rule="nonzero" fill-opacity="1" /><path clip-path="url(#clip350)" d="M2230.69 954.702 Q2234.05 955.419 2235.92 957.688 Q2237.82 959.956 2237.82 963.29 Q2237.82 968.405 2234.3 971.206 Q2230.78 974.007 2224.3 974.007 Q2222.12 974.007 2219.81 973.567 Q2217.52 973.151 2215.06 972.294 L2215.06 967.78 Q2217.01 968.915 2219.32 969.493 Q2221.64 970.072 2224.16 970.072 Q2228.56 970.072 2230.85 968.336 Q2233.17 966.6 2233.17 963.29 Q2233.17 960.234 2231.01 958.521 Q2228.88 956.785 2225.06 956.785 L2221.04 956.785 L2221.04 952.942 L2225.25 952.942 Q2228.7 952.942 2230.53 951.577 Q2232.36 950.188 2232.36 947.595 Q2232.36 944.933 2230.46 943.521 Q2228.58 942.086 2225.06 942.086 Q2223.14 942.086 2220.94 942.503 Q2218.74 942.919 2216.11 943.799 L2216.11 939.632 Q2218.77 938.892 2221.08 938.521 Q2223.42 938.151 2225.48 938.151 Q2230.8 938.151 2233.91 940.581 Q2237.01 942.989 2237.01 947.109 Q2237.01 949.979 2235.36 951.97 Q2233.72 953.938 2230.69 954.702 Z" fill="#000000" fill-rule="nonzero" fill-opacity="1" /><polyline clip-path="url(#clip350)" style="stroke:#000000; stroke-linecap:round; stroke-linejoin:round; stroke-width:4; stroke-opacity:1; fill:none" points="1445.91,910.936 1445.91,559.488 "/>
<polyline clip-path="url(#clip350)" style="stroke:#000000; stroke-linecap:round; stroke-linejoin:round; stroke-width:4; stroke-opacity:1; fill:none" points="1445.91,849.829 1464.81,849.829 "/>
<polyline clip-path="url(#clip350)" style="stroke:#000000; stroke-linecap:round; stroke-linejoin:round; stroke-width:4; stroke-opacity:1; fill:none" points="1445.91,782.782 1464.81,782.782 "/>
<polyline clip-path="url(#clip350)" style="stroke:#000000; stroke-linecap:round; stroke-linejoin:round; stroke-width:4; stroke-opacity:1; fill:none" points="1445.91,715.735 1464.81,715.735 "/>
<polyline clip-path="url(#clip350)" style="stroke:#000000; stroke-linecap:round; stroke-linejoin:round; stroke-width:4; stroke-opacity:1; fill:none" points="1445.91,648.688 1464.81,648.688 "/>
<polyline clip-path="url(#clip350)" style="stroke:#000000; stroke-linecap:round; stroke-linejoin:round; stroke-width:4; stroke-opacity:1; fill:none" points="1445.91,581.642 1464.81,581.642 "/>
<path clip-path="url(#clip350)" d="M1352.73 835.627 Q1349.12 835.627 1347.29 839.192 Q1345.49 842.734 1345.49 849.863 Q1345.49 856.97 1347.29 860.535 Q1349.12 864.076 1352.73 864.076 Q1356.37 864.076 1358.17 860.535 Q1360 856.97 1360 849.863 Q1360 842.734 1358.17 839.192 Q1356.37 835.627 1352.73 835.627 M1352.73 831.924 Q1358.54 831.924 1361.6 836.53 Q1364.68 841.114 1364.68 849.863 Q1364.68 858.59 1361.6 863.197 Q1358.54 867.78 1352.73 867.78 Q1346.92 867.78 1343.84 863.197 Q1340.79 858.59 1340.79 849.863 Q1340.79 841.114 1343.84 836.53 Q1346.92 831.924 1352.73 831.924 Z" fill="#000000" fill-rule="nonzero" fill-opacity="1" /><path clip-path="url(#clip350)" d="M1372.89 861.229 L1377.78 861.229 L1377.78 867.109 L1372.89 867.109 L1372.89 861.229 Z" fill="#000000" fill-rule="nonzero" fill-opacity="1" /><path clip-path="url(#clip350)" d="M1397.96 835.627 Q1394.35 835.627 1392.52 839.192 Q1390.72 842.734 1390.72 849.863 Q1390.72 856.97 1392.52 860.535 Q1394.35 864.076 1397.96 864.076 Q1401.6 864.076 1403.4 860.535 Q1405.23 856.97 1405.23 849.863 Q1405.23 842.734 1403.4 839.192 Q1401.6 835.627 1397.96 835.627 M1397.96 831.924 Q1403.77 831.924 1406.83 836.53 Q1409.91 841.114 1409.91 849.863 Q1409.91 858.59 1406.83 863.197 Q1403.77 867.78 1397.96 867.78 Q1392.15 867.78 1389.07 863.197 Q1386.02 858.59 1386.02 849.863 Q1386.02 841.114 1389.07 836.53 Q1392.15 831.924 1397.96 831.924 Z" fill="#000000" fill-rule="nonzero" fill-opacity="1" /><path clip-path="url(#clip350)" d="M1353.38 768.581 Q1349.77 768.581 1347.94 772.145 Q1346.13 775.687 1346.13 782.817 Q1346.13 789.923 1347.94 793.488 Q1349.77 797.03 1353.38 797.03 Q1357.01 797.03 1358.82 793.488 Q1360.65 789.923 1360.65 782.817 Q1360.65 775.687 1358.82 772.145 Q1357.01 768.581 1353.38 768.581 M1353.38 764.877 Q1359.19 764.877 1362.25 769.483 Q1365.32 774.067 1365.32 782.817 Q1365.32 791.544 1362.25 796.15 Q1359.19 800.733 1353.38 800.733 Q1347.57 800.733 1344.49 796.15 Q1341.44 791.544 1341.44 782.817 Q1341.44 774.067 1344.49 769.483 Q1347.57 764.877 1353.38 764.877 Z" fill="#000000" fill-rule="nonzero" fill-opacity="1" /><path clip-path="url(#clip350)" d="M1373.54 794.182 L1378.43 794.182 L1378.43 800.062 L1373.54 800.062 L1373.54 794.182 Z" fill="#000000" fill-rule="nonzero" fill-opacity="1" /><path clip-path="url(#clip350)" d="M1402.78 781.428 Q1406.13 782.145 1408.01 784.414 Q1409.91 786.682 1409.91 790.016 Q1409.91 795.131 1406.39 797.932 Q1402.87 800.733 1396.39 800.733 Q1394.21 800.733 1391.9 800.293 Q1389.61 799.877 1387.15 799.02 L1387.15 794.506 Q1389.1 795.641 1391.41 796.219 Q1393.73 796.798 1396.25 796.798 Q1400.65 796.798 1402.94 795.062 Q1405.26 793.326 1405.26 790.016 Q1405.26 786.96 1403.1 785.247 Q1400.97 783.511 1397.15 783.511 L1393.13 783.511 L1393.13 779.669 L1397.34 779.669 Q1400.79 779.669 1402.62 778.303 Q1404.44 776.914 1404.44 774.321 Q1404.44 771.659 1402.55 770.247 Q1400.67 768.812 1397.15 768.812 Q1395.23 768.812 1393.03 769.229 Q1390.83 769.645 1388.19 770.525 L1388.19 766.358 Q1390.86 765.618 1393.17 765.247 Q1395.51 764.877 1397.57 764.877 Q1402.89 764.877 1406 767.308 Q1409.1 769.715 1409.1 773.835 Q1409.1 776.706 1407.45 778.696 Q1405.81 780.664 1402.78 781.428 Z" fill="#000000" fill-rule="nonzero" fill-opacity="1" /><path clip-path="url(#clip350)" d="M1352.57 701.534 Q1348.96 701.534 1347.13 705.099 Q1345.32 708.64 1345.32 715.77 Q1345.32 722.876 1347.13 726.441 Q1348.96 729.983 1352.57 729.983 Q1356.2 729.983 1358.01 726.441 Q1359.84 722.876 1359.84 715.77 Q1359.84 708.64 1358.01 705.099 Q1356.2 701.534 1352.57 701.534 M1352.57 697.83 Q1358.38 697.83 1361.44 702.437 Q1364.51 707.02 1364.51 715.77 Q1364.51 724.497 1361.44 729.103 Q1358.38 733.687 1352.57 733.687 Q1346.76 733.687 1343.68 729.103 Q1340.63 724.497 1340.63 715.77 Q1340.63 707.02 1343.68 702.437 Q1346.76 697.83 1352.57 697.83 Z" fill="#000000" fill-rule="nonzero" fill-opacity="1" /><path clip-path="url(#clip350)" d="M1372.73 727.136 L1377.62 727.136 L1377.62 733.015 L1372.73 733.015 L1372.73 727.136 Z" fill="#000000" fill-rule="nonzero" fill-opacity="1" /><path clip-path="url(#clip350)" d="M1398.38 713.872 Q1395.23 713.872 1393.38 716.025 Q1391.55 718.177 1391.55 721.927 Q1391.55 725.654 1393.38 727.83 Q1395.23 729.983 1398.38 729.983 Q1401.53 729.983 1403.36 727.83 Q1405.21 725.654 1405.21 721.927 Q1405.21 718.177 1403.36 716.025 Q1401.53 713.872 1398.38 713.872 M1407.66 699.219 L1407.66 703.478 Q1405.9 702.645 1404.1 702.205 Q1402.32 701.765 1400.56 701.765 Q1395.93 701.765 1393.47 704.89 Q1391.04 708.015 1390.69 714.335 Q1392.06 712.321 1394.12 711.256 Q1396.18 710.168 1398.66 710.168 Q1403.87 710.168 1406.88 713.339 Q1409.91 716.488 1409.91 721.927 Q1409.91 727.251 1406.76 730.469 Q1403.61 733.687 1398.38 733.687 Q1392.38 733.687 1389.21 729.103 Q1386.04 724.497 1386.04 715.77 Q1386.04 707.576 1389.93 702.714 Q1393.82 697.83 1400.37 697.83 Q1402.13 697.83 1403.91 698.177 Q1405.72 698.525 1407.66 699.219 Z" fill="#000000" fill-rule="nonzero" fill-opacity="1" /><path clip-path="url(#clip350)" d="M1352.92 634.487 Q1349.31 634.487 1347.48 638.052 Q1345.67 641.594 1345.67 648.723 Q1345.67 655.83 1347.48 659.394 Q1349.31 662.936 1352.92 662.936 Q1356.55 662.936 1358.36 659.394 Q1360.19 655.83 1360.19 648.723 Q1360.19 641.594 1358.36 638.052 Q1356.55 634.487 1352.92 634.487 M1352.92 630.783 Q1358.73 630.783 1361.78 635.39 Q1364.86 639.973 1364.86 648.723 Q1364.86 657.45 1361.78 662.056 Q1358.73 666.64 1352.92 666.64 Q1347.11 666.64 1344.03 662.056 Q1340.97 657.45 1340.97 648.723 Q1340.97 639.973 1344.03 635.39 Q1347.11 630.783 1352.92 630.783 Z" fill="#000000" fill-rule="nonzero" fill-opacity="1" /><path clip-path="url(#clip350)" d="M1373.08 660.089 L1377.96 660.089 L1377.96 665.968 L1373.08 665.968 L1373.08 660.089 Z" fill="#000000" fill-rule="nonzero" fill-opacity="1" /><path clip-path="url(#clip350)" d="M1388.29 665.251 L1388.29 660.992 Q1390.05 661.825 1391.85 662.265 Q1393.66 662.705 1395.39 662.705 Q1400.02 662.705 1402.45 659.603 Q1404.91 656.478 1405.26 650.135 Q1403.91 652.126 1401.85 653.191 Q1399.79 654.256 1397.29 654.256 Q1392.11 654.256 1389.07 651.131 Q1386.07 647.982 1386.07 642.543 Q1386.07 637.219 1389.21 634.001 Q1392.36 630.783 1397.59 630.783 Q1403.59 630.783 1406.74 635.39 Q1409.91 639.973 1409.91 648.723 Q1409.91 656.894 1406.02 661.779 Q1402.15 666.64 1395.6 666.64 Q1393.84 666.64 1392.04 666.293 Q1390.23 665.945 1388.29 665.251 M1397.59 650.598 Q1400.74 650.598 1402.57 648.445 Q1404.42 646.293 1404.42 642.543 Q1404.42 638.816 1402.57 636.663 Q1400.74 634.487 1397.59 634.487 Q1394.44 634.487 1392.59 636.663 Q1390.76 638.816 1390.76 642.543 Q1390.76 646.293 1392.59 648.445 Q1394.44 650.598 1397.59 650.598 Z" fill="#000000" fill-rule="nonzero" fill-opacity="1" /><path clip-path="url(#clip350)" d="M1345.14 594.987 L1352.78 594.987 L1352.78 568.621 L1344.47 570.288 L1344.47 566.028 L1352.73 564.362 L1357.41 564.362 L1357.41 594.987 L1365.05 594.987 L1365.05 598.922 L1345.14 598.922 L1345.14 594.987 Z" fill="#000000" fill-rule="nonzero" fill-opacity="1" /><path clip-path="url(#clip350)" d="M1374.49 593.042 L1379.38 593.042 L1379.38 598.922 L1374.49 598.922 L1374.49 593.042 Z" fill="#000000" fill-rule="nonzero" fill-opacity="1" /><path clip-path="url(#clip350)" d="M1393.59 594.987 L1409.91 594.987 L1409.91 598.922 L1387.96 598.922 L1387.96 594.987 Q1390.63 592.232 1395.21 587.602 Q1399.82 582.95 1401 581.607 Q1403.24 579.084 1404.12 577.348 Q1405.02 575.588 1405.02 573.899 Q1405.02 571.144 1403.08 569.408 Q1401.16 567.672 1398.06 567.672 Q1395.86 567.672 1393.4 568.436 Q1390.97 569.2 1388.19 570.751 L1388.19 566.028 Q1391.02 564.894 1393.47 564.315 Q1395.93 563.737 1397.96 563.737 Q1403.33 563.737 1406.53 566.422 Q1409.72 569.107 1409.72 573.598 Q1409.72 575.727 1408.91 577.649 Q1408.13 579.547 1406.02 582.139 Q1405.44 582.811 1402.34 586.028 Q1399.24 589.223 1393.59 594.987 Z" fill="#000000" fill-rule="nonzero" fill-opacity="1" /><path clip-path="url(#clip350)" d="M1265.64 831.559 Q1268.64 831.559 1274.44 833.072 Q1276.95 833.684 1279.23 834.522 Q1281.49 835.327 1283.68 836.518 Q1285.87 837.71 1287.45 839.095 Q1288.99 840.48 1289.96 842.283 Q1290.92 844.087 1290.92 846.084 Q1290.92 849.24 1289.06 851.108 Q1287.16 852.943 1283.9 853.523 Q1290.92 857.839 1290.92 863.604 Q1290.92 867.178 1288.38 868.853 Q1285.8 870.528 1281.49 870.528 Q1277.85 870.528 1274.08 869.562 Q1266.93 867.726 1261.94 864.151 Q1261.36 863.668 1261.36 862.959 Q1261.36 862.541 1261.49 862.347 Q1261.84 861.768 1262.42 861.768 Q1262.84 861.768 1263.26 862.09 Q1266.38 864.344 1269.06 865.826 Q1271.73 867.307 1274.44 867.984 Q1276.75 868.499 1278.72 868.499 Q1282.04 868.499 1284.1 867.082 Q1286.16 865.632 1286.16 862.766 Q1286.16 860.125 1284.52 857.806 Q1282.84 855.488 1280.04 853.781 Q1276.98 853.684 1274.08 852.943 Q1270.99 852.267 1270.99 850.689 Q1270.99 849.433 1272.7 849.433 Q1273.28 849.433 1274.44 849.691 Q1277.49 850.399 1280.23 851.687 Q1282.91 851.236 1284.55 849.562 Q1286.16 847.887 1286.16 845.214 Q1286.16 842.734 1284.35 840.544 Q1282.55 838.322 1279.91 836.905 Q1277.24 835.456 1274.08 834.65 Q1273.02 834.393 1271.67 834.393 Q1268.06 834.393 1265.84 836.905 Q1265.13 837.613 1264.19 837.613 Q1263.1 837.613 1262.1 836.712 Q1261.04 835.649 1261.04 834.393 Q1261.04 833.459 1261.62 832.879 Q1262.78 831.559 1265.64 831.559 Z" fill="#000000" fill-rule="nonzero" fill-opacity="1" /><path clip-path="url(#clip350)" d="M1240.72 788.989 Q1248.04 793.255 1255.2 795.323 Q1262.37 797.392 1269.72 797.392 Q1277.07 797.392 1284.3 795.323 Q1291.49 793.223 1298.78 788.989 L1298.78 794.082 Q1291.3 798.856 1284.07 801.243 Q1276.85 803.599 1269.72 803.599 Q1262.62 803.599 1255.43 801.243 Q1248.23 798.888 1240.72 794.082 L1240.72 788.989 Z" fill="#000000" fill-rule="nonzero" fill-opacity="1" /><path clip-path="url(#clip350)" d="M1260.01 756.97 Q1259.44 757.957 1259.18 759.134 Q1258.9 760.28 1258.9 761.681 Q1258.9 766.646 1262.14 769.319 Q1265.36 771.961 1271.41 771.961 L1290.18 771.961 L1290.18 777.85 L1254.54 777.85 L1254.54 771.961 L1260.07 771.961 Q1256.83 770.115 1255.27 767.155 Q1253.68 764.195 1253.68 759.962 Q1253.68 759.357 1253.77 758.625 Q1253.84 757.893 1254 757.002 L1260.01 756.97 Z" fill="#000000" fill-rule="nonzero" fill-opacity="1" /><path clip-path="url(#clip350)" d="M1272.26 734.626 Q1272.26 741.724 1273.89 744.461 Q1275.51 747.199 1279.43 747.199 Q1282.55 747.199 1284.39 745.162 Q1286.21 743.093 1286.21 739.56 Q1286.21 734.69 1282.77 731.762 Q1279.3 728.802 1273.57 728.802 L1272.26 728.802 L1272.26 734.626 M1269.85 722.945 L1290.18 722.945 L1290.18 728.802 L1284.77 728.802 Q1288.02 730.807 1289.58 733.799 Q1291.11 736.791 1291.11 741.119 Q1291.11 746.594 1288.05 749.84 Q1284.96 753.055 1279.81 753.055 Q1273.79 753.055 1270.74 749.045 Q1267.68 745.002 1267.68 737.013 L1267.68 728.802 L1267.11 728.802 Q1263.07 728.802 1260.87 731.475 Q1258.64 734.117 1258.64 738.923 Q1258.64 741.979 1259.37 744.875 Q1260.11 747.772 1261.57 750.445 L1256.16 750.445 Q1254.92 747.23 1254.31 744.207 Q1253.68 741.183 1253.68 738.318 Q1253.68 730.584 1257.69 726.765 Q1261.7 722.945 1269.85 722.945 Z" fill="#000000" fill-rule="nonzero" fill-opacity="1" /><path clip-path="url(#clip350)" d="M1259.95 687.425 L1240.66 687.425 L1240.66 681.568 L1290.18 681.568 L1290.18 687.425 L1284.84 687.425 Q1288.02 689.271 1289.58 692.103 Q1291.11 694.904 1291.11 698.851 Q1291.11 705.312 1285.95 709.386 Q1280.79 713.429 1272.39 713.429 Q1263.99 713.429 1258.83 709.386 Q1253.68 705.312 1253.68 698.851 Q1253.68 694.904 1255.24 692.103 Q1256.76 689.271 1259.95 687.425 M1272.39 707.381 Q1278.85 707.381 1282.55 704.739 Q1286.21 702.066 1286.21 697.419 Q1286.21 692.772 1282.55 690.098 Q1278.85 687.425 1272.39 687.425 Q1265.93 687.425 1262.27 690.098 Q1258.58 692.772 1258.58 697.419 Q1258.58 702.066 1262.27 704.739 Q1265.93 707.381 1272.39 707.381 Z" fill="#000000" fill-rule="nonzero" fill-opacity="1" /><path clip-path="url(#clip350)" d="M1242.66 659.097 L1242.66 653.686 L1296.23 670.237 L1296.23 675.648 L1242.66 659.097 Z" fill="#000000" fill-rule="nonzero" fill-opacity="1" /><path clip-path="url(#clip350)" d="M1255.59 624.818 L1261.12 624.818 Q1259.85 627.301 1259.21 629.974 Q1258.58 632.648 1258.58 635.512 Q1258.58 639.873 1259.92 642.069 Q1261.25 644.233 1263.93 644.233 Q1265.96 644.233 1267.14 642.674 Q1268.29 641.114 1269.34 636.404 L1269.78 634.398 Q1271.12 628.16 1273.57 625.55 Q1275.99 622.908 1280.35 622.908 Q1285.31 622.908 1288.21 626.855 Q1291.11 630.77 1291.11 637.645 Q1291.11 640.509 1290.53 643.629 Q1289.99 646.716 1288.88 650.153 L1282.83 650.153 Q1284.52 646.907 1285.38 643.756 Q1286.21 640.605 1286.21 637.517 Q1286.21 633.38 1284.81 631.152 Q1283.37 628.924 1280.79 628.924 Q1278.41 628.924 1277.13 630.547 Q1275.86 632.138 1274.68 637.581 L1274.21 639.618 Q1273.06 645.061 1270.71 647.48 Q1268.32 649.899 1264.18 649.899 Q1259.15 649.899 1256.41 646.334 Q1253.68 642.769 1253.68 636.213 Q1253.68 632.966 1254.15 630.101 Q1254.63 627.237 1255.59 624.818 Z" fill="#000000" fill-rule="nonzero" fill-opacity="1" /><path clip-path="url(#clip350)" d="M1240.72 614.505 L1240.72 609.413 Q1248.23 604.639 1255.43 602.283 Q1262.62 599.896 1269.72 599.896 Q1276.85 599.896 1284.07 602.283 Q1291.3 604.639 1298.78 609.413 L1298.78 614.505 Q1291.49 610.272 1284.3 608.203 Q1277.07 606.103 1269.72 606.103 Q1262.37 606.103 1255.2 608.203 Q1248.04 610.272 1240.72 614.505 Z" fill="#000000" fill-rule="nonzero" fill-opacity="1" /><polyline clip-path="url(#clip354)" style="stroke:#009af9; stroke-linecap:round; stroke-linejoin:round; stroke-width:4; stroke-opacity:1; fill:none" points="1471.57,849.829 1496.74,673.868 1521.9,600.277 1547.06,602.228 1572.22,648.664 1597.38,712.523 1622.55,774.912 1647.71,825.383 1672.87,860.074 1698.03,879.419 1723.2,886.217 1748.36,884.224 1773.52,877.188 1798.68,868.254 1823.85,859.677 1849.01,852.781 1874.17,848.09 1899.33,845.542 1924.49,844.734 1949.66,845.119 1974.82,846.161 1999.98,847.422 2025.14,848.6 2050.31,849.525 2075.47,850.138 2100.63,850.457 2125.79,850.543 2150.95,850.473 2176.12,850.32 2201.28,850.143 2226.44,849.982 2251.6,849.858 2276.77,849.777 2301.93,849.738 2327.09,849.729 "/>
<polyline clip-path="url(#clip354)" style="stroke:#e26f46; stroke-linecap:round; stroke-linejoin:round; stroke-width:3; stroke-opacity:1; fill:none" stroke-dasharray="12, 6, 2, 6" points="1471.57,849.829 1496.74,678.029 1521.9,569.435 1547.06,594.672 1572.22,640.113 1597.38,735.127 1622.55,770.226 1647.71,829.013 1672.87,877 1698.03,892.157 1723.2,900.989 1748.36,898.622 1773.52,885.576 1798.68,872.969 1823.85,847.249 1849.01,855.416 1874.17,861.511 1899.33,856.987 1924.49,836.4 1949.66,844.61 1974.82,840.416 1999.98,851.047 2025.14,854.116 2050.31,843.674 2075.47,859.844 2100.63,857.008 2125.79,847.369 2150.95,831.945 2176.12,855.1 2201.28,856.006 2226.44,857.057 2251.6,845.077 2276.77,848.248 2301.93,861.428 2327.09,843.482 "/>
<path clip-path="url(#clip350)" d="M2203.01 726.723 L2322.53 726.723 L2322.53 571.203 L2203.01 571.203  Z" fill="#ffffff" fill-rule="evenodd" fill-opacity="1"/>
<polyline clip-path="url(#clip350)" style="stroke:#000000; stroke-linecap:round; stroke-linejoin:round; stroke-width:4; stroke-opacity:1; fill:none" points="2203.01,726.723 2322.53,726.723 2322.53,571.203 2203.01,571.203 2203.01,726.723 "/>
<polyline clip-path="url(#clip350)" style="stroke:#009af9; stroke-linecap:round; stroke-linejoin:round; stroke-width:4; stroke-opacity:1; fill:none" points="2213.09,623.043 2273.55,623.043 "/>
<path clip-path="url(#clip350)" d="M2310.63 633.582 L2305.36 633.442 L2299.6 633.582 L2299.6 631.334 L2301.47 631.334 L2296.2 625.103 L2291.54 630.326 L2291.21 630.795 Q2291.21 631.006 2291.75 631.17 Q2292.31 631.334 2292.97 631.334 L2292.97 633.582 L2288.03 633.442 L2283.62 633.582 L2283.62 631.334 Q2285.1 631.334 2285.78 631.31 Q2286.48 631.263 2287.28 631.052 Q2288.07 630.842 2288.47 630.42 L2294.75 623.37 L2287.28 614.54 L2283.86 614.54 L2283.86 612.291 L2289.15 612.432 L2294.94 612.291 L2294.94 614.54 L2293.01 614.54 L2297.72 620.044 L2301.75 615.547 Q2301.77 615.523 2302.15 614.961 Q2301.4 614.54 2300.32 614.54 L2300.32 612.291 L2305.26 612.432 L2309.67 612.291 L2309.67 614.54 Q2307.75 614.54 2306.74 614.68 Q2305.76 614.797 2305.45 614.961 Q2305.17 615.125 2304.77 615.547 L2299.17 621.777 L2307.23 631.334 L2310.63 631.334 L2310.63 633.582 Z" fill="#000000" fill-rule="nonzero" fill-opacity="1" /><polyline clip-path="url(#clip350)" style="stroke:#e26f46; stroke-linecap:round; stroke-linejoin:round; stroke-width:3; stroke-opacity:1; fill:none" stroke-dasharray="12, 6, 2, 6" points="2213.09,674.883 2273.55,674.883 "/>
<path clip-path="url(#clip350)" d="M2306.21 663.361 L2305.8 664.033 Q2303.26 662.935 2300.09 661.18 Q2296.93 662.935 2294.39 664.033 L2293.99 663.361 Q2296.76 660.951 2300.09 659.098 Q2303.45 660.967 2306.21 663.361 Z" fill="#000000" fill-rule="nonzero" fill-opacity="1" /><path clip-path="url(#clip350)" d="M2310.63 690.427 L2305.36 690.286 L2299.6 690.427 L2299.6 688.178 L2301.47 688.178 L2296.2 681.948 L2291.54 687.171 L2291.21 687.639 Q2291.21 687.85 2291.75 688.014 Q2292.31 688.178 2292.97 688.178 L2292.97 690.427 L2288.03 690.286 L2283.62 690.427 L2283.62 688.178 Q2285.1 688.178 2285.78 688.155 Q2286.48 688.108 2287.28 687.897 Q2288.07 687.686 2288.47 687.265 L2294.75 680.214 L2287.28 671.384 L2283.86 671.384 L2283.86 669.136 L2289.15 669.276 L2294.94 669.136 L2294.94 671.384 L2293.01 671.384 L2297.72 676.888 L2301.75 672.391 Q2301.77 672.368 2302.15 671.806 Q2301.4 671.384 2300.32 671.384 L2300.32 669.136 L2305.26 669.276 L2309.67 669.136 L2309.67 671.384 Q2307.75 671.384 2306.74 671.525 Q2305.76 671.642 2305.45 671.806 Q2305.17 671.97 2304.77 672.391 L2299.17 678.622 L2307.23 688.178 L2310.63 688.178 L2310.63 690.427 Z" fill="#000000" fill-rule="nonzero" fill-opacity="1" /><path clip-path="url(#clip350)" d="M1445.91 1423.18 L2352.76 1423.18 L2352.76 1071.73 L1445.91 1071.73  Z" fill="#ffffff" fill-rule="evenodd" fill-opacity="1"/>
<defs>
  <clipPath id="clip355">
    <rect x="1445" y="1071" width="908" height="352"/>
  </clipPath>
</defs>
<polyline clip-path="url(#clip355)" style="stroke:#000000; stroke-linecap:round; stroke-linejoin:round; stroke-width:2; stroke-opacity:0.1; fill:none" points="1471.57,1423.18 1471.57,1071.73 "/>
<polyline clip-path="url(#clip355)" style="stroke:#000000; stroke-linecap:round; stroke-linejoin:round; stroke-width:2; stroke-opacity:0.1; fill:none" points="1723.2,1423.18 1723.2,1071.73 "/>
<polyline clip-path="url(#clip355)" style="stroke:#000000; stroke-linecap:round; stroke-linejoin:round; stroke-width:2; stroke-opacity:0.1; fill:none" points="1974.82,1423.18 1974.82,1071.73 "/>
<polyline clip-path="url(#clip355)" style="stroke:#000000; stroke-linecap:round; stroke-linejoin:round; stroke-width:2; stroke-opacity:0.1; fill:none" points="2226.44,1423.18 2226.44,1071.73 "/>
<polyline clip-path="url(#clip355)" style="stroke:#000000; stroke-linecap:round; stroke-linejoin:round; stroke-width:2; stroke-opacity:0.1; fill:none" points="1445.91,1419.99 2352.76,1419.99 "/>
<polyline clip-path="url(#clip355)" style="stroke:#000000; stroke-linecap:round; stroke-linejoin:round; stroke-width:2; stroke-opacity:0.1; fill:none" points="1445.91,1327.48 2352.76,1327.48 "/>
<polyline clip-path="url(#clip355)" style="stroke:#000000; stroke-linecap:round; stroke-linejoin:round; stroke-width:2; stroke-opacity:0.1; fill:none" points="1445.91,1234.98 2352.76,1234.98 "/>
<polyline clip-path="url(#clip355)" style="stroke:#000000; stroke-linecap:round; stroke-linejoin:round; stroke-width:2; stroke-opacity:0.1; fill:none" points="1445.91,1142.48 2352.76,1142.48 "/>
<polyline clip-path="url(#clip350)" style="stroke:#000000; stroke-linecap:round; stroke-linejoin:round; stroke-width:4; stroke-opacity:1; fill:none" points="1445.91,1423.18 2352.76,1423.18 "/>
<polyline clip-path="url(#clip350)" style="stroke:#000000; stroke-linecap:round; stroke-linejoin:round; stroke-width:4; stroke-opacity:1; fill:none" points="1471.57,1423.18 1471.57,1404.28 "/>
<polyline clip-path="url(#clip350)" style="stroke:#000000; stroke-linecap:round; stroke-linejoin:round; stroke-width:4; stroke-opacity:1; fill:none" points="1723.2,1423.18 1723.2,1404.28 "/>
<polyline clip-path="url(#clip350)" style="stroke:#000000; stroke-linecap:round; stroke-linejoin:round; stroke-width:4; stroke-opacity:1; fill:none" points="1974.82,1423.18 1974.82,1404.28 "/>
<polyline clip-path="url(#clip350)" style="stroke:#000000; stroke-linecap:round; stroke-linejoin:round; stroke-width:4; stroke-opacity:1; fill:none" points="2226.44,1423.18 2226.44,1404.28 "/>
<path clip-path="url(#clip350)" d="M1471.57 1454.1 Q1467.96 1454.1 1466.13 1457.66 Q1464.33 1461.2 1464.33 1468.33 Q1464.33 1475.44 1466.13 1479.01 Q1467.96 1482.55 1471.57 1482.55 Q1475.21 1482.55 1477.01 1479.01 Q1478.84 1475.44 1478.84 1468.33 Q1478.84 1461.2 1477.01 1457.66 Q1475.21 1454.1 1471.57 1454.1 M1471.57 1450.39 Q1477.38 1450.39 1480.44 1455 Q1483.52 1459.58 1483.52 1468.33 Q1483.52 1477.06 1480.44 1481.67 Q1477.38 1486.25 1471.57 1486.25 Q1465.76 1486.25 1462.68 1481.67 Q1459.63 1477.06 1459.63 1468.33 Q1459.63 1459.58 1462.68 1455 Q1465.76 1450.39 1471.57 1450.39 Z" fill="#000000" fill-rule="nonzero" fill-opacity="1" /><path clip-path="url(#clip350)" d="M1713.58 1481.64 L1721.22 1481.64 L1721.22 1455.28 L1712.91 1456.95 L1712.91 1452.69 L1721.17 1451.02 L1725.85 1451.02 L1725.85 1481.64 L1733.49 1481.64 L1733.49 1485.58 L1713.58 1485.58 L1713.58 1481.64 Z" fill="#000000" fill-rule="nonzero" fill-opacity="1" /><path clip-path="url(#clip350)" d="M1969.47 1481.64 L1985.79 1481.64 L1985.79 1485.58 L1963.85 1485.58 L1963.85 1481.64 Q1966.51 1478.89 1971.09 1474.26 Q1975.7 1469.61 1976.88 1468.27 Q1979.12 1465.74 1980 1464.01 Q1980.91 1462.25 1980.91 1460.56 Q1980.91 1457.8 1978.96 1456.07 Q1977.04 1454.33 1973.94 1454.33 Q1971.74 1454.33 1969.29 1455.09 Q1966.86 1455.86 1964.08 1457.41 L1964.08 1452.69 Q1966.9 1451.55 1969.36 1450.97 Q1971.81 1450.39 1973.85 1450.39 Q1979.22 1450.39 1982.41 1453.08 Q1985.61 1455.77 1985.61 1460.26 Q1985.61 1462.39 1984.8 1464.31 Q1984.01 1466.2 1981.9 1468.8 Q1981.32 1469.47 1978.22 1472.69 Q1975.12 1475.88 1969.47 1481.64 Z" fill="#000000" fill-rule="nonzero" fill-opacity="1" /><path clip-path="url(#clip350)" d="M2230.69 1466.95 Q2234.05 1467.66 2235.92 1469.93 Q2237.82 1472.2 2237.82 1475.53 Q2237.82 1480.65 2234.3 1483.45 Q2230.78 1486.25 2224.3 1486.25 Q2222.12 1486.25 2219.81 1485.81 Q2217.52 1485.39 2215.06 1484.54 L2215.06 1480.02 Q2217.01 1481.16 2219.32 1481.74 Q2221.64 1482.32 2224.16 1482.32 Q2228.56 1482.32 2230.85 1480.58 Q2233.17 1478.84 2233.17 1475.53 Q2233.17 1472.48 2231.01 1470.77 Q2228.88 1469.03 2225.06 1469.03 L2221.04 1469.03 L2221.04 1465.19 L2225.25 1465.19 Q2228.7 1465.19 2230.53 1463.82 Q2232.36 1462.43 2232.36 1459.84 Q2232.36 1457.18 2230.46 1455.77 Q2228.58 1454.33 2225.06 1454.33 Q2223.14 1454.33 2220.94 1454.75 Q2218.74 1455.16 2216.11 1456.04 L2216.11 1451.88 Q2218.77 1451.14 2221.08 1450.77 Q2223.42 1450.39 2225.48 1450.39 Q2230.8 1450.39 2233.91 1452.83 Q2237.01 1455.23 2237.01 1459.35 Q2237.01 1462.22 2235.36 1464.21 Q2233.72 1466.18 2230.69 1466.95 Z" fill="#000000" fill-rule="nonzero" fill-opacity="1" /><path clip-path="url(#clip350)" d="M1769.5 1520.52 L1809.7 1520.52 L1809.7 1525.93 L1792.83 1525.93 L1792.83 1568.04 L1786.37 1568.04 L1786.37 1525.93 L1769.5 1525.93 L1769.5 1520.52 Z" fill="#000000" fill-rule="nonzero" fill-opacity="1" /><path clip-path="url(#clip350)" d="M1813.65 1532.4 L1819.51 1532.4 L1819.51 1568.04 L1813.65 1568.04 L1813.65 1532.4 M1813.65 1518.52 L1819.51 1518.52 L1819.51 1525.93 L1813.65 1525.93 L1813.65 1518.52 Z" fill="#000000" fill-rule="nonzero" fill-opacity="1" /><path clip-path="url(#clip350)" d="M1859.51 1539.24 Q1861.71 1535.29 1864.77 1533.41 Q1867.82 1531.54 1871.96 1531.54 Q1877.53 1531.54 1880.55 1535.45 Q1883.58 1539.33 1883.58 1546.53 L1883.58 1568.04 L1877.69 1568.04 L1877.69 1546.72 Q1877.69 1541.59 1875.87 1539.11 Q1874.06 1536.63 1870.34 1536.63 Q1865.78 1536.63 1863.14 1539.65 Q1860.5 1542.68 1860.5 1547.9 L1860.5 1568.04 L1854.61 1568.04 L1854.61 1546.72 Q1854.61 1541.56 1852.8 1539.11 Q1850.98 1536.63 1847.2 1536.63 Q1842.71 1536.63 1840.07 1539.68 Q1837.43 1542.71 1837.43 1547.9 L1837.43 1568.04 L1831.54 1568.04 L1831.54 1532.4 L1837.43 1532.4 L1837.43 1537.93 Q1839.43 1534.66 1842.23 1533.1 Q1845.03 1531.54 1848.88 1531.54 Q1852.77 1531.54 1855.47 1533.51 Q1858.21 1535.48 1859.51 1539.24 Z" fill="#000000" fill-rule="nonzero" fill-opacity="1" /><path clip-path="url(#clip350)" d="M1925.75 1548.76 L1925.75 1551.62 L1898.82 1551.62 Q1899.2 1557.67 1902.45 1560.85 Q1905.73 1564 1911.55 1564 Q1914.93 1564 1918.08 1563.17 Q1921.26 1562.35 1924.38 1560.69 L1924.38 1566.23 Q1921.23 1567.57 1917.92 1568.27 Q1914.61 1568.97 1911.2 1568.97 Q1902.67 1568.97 1897.68 1564 Q1892.71 1559.04 1892.71 1550.57 Q1892.71 1541.82 1897.42 1536.69 Q1902.16 1531.54 1910.19 1531.54 Q1917.38 1531.54 1921.55 1536.18 Q1925.75 1540.8 1925.75 1548.76 M1919.89 1547.04 Q1919.83 1542.23 1917.19 1539.37 Q1914.58 1536.5 1910.25 1536.5 Q1905.35 1536.5 1902.39 1539.27 Q1899.46 1542.04 1899.01 1547.07 L1919.89 1547.04 Z" fill="#000000" fill-rule="nonzero" fill-opacity="1" /><path clip-path="url(#clip350)" d="M1970.15 1518.58 Q1965.89 1525.9 1963.82 1533.06 Q1961.75 1540.23 1961.75 1547.58 Q1961.75 1554.93 1963.82 1562.16 Q1965.92 1569.35 1970.15 1576.64 L1965.06 1576.64 Q1960.28 1569.16 1957.9 1561.93 Q1955.54 1554.71 1955.54 1547.58 Q1955.54 1540.48 1957.9 1533.29 Q1960.25 1526.09 1965.06 1518.58 L1970.15 1518.58 Z" fill="#000000" fill-rule="nonzero" fill-opacity="1" /><path clip-path="url(#clip350)" d="M2004.24 1533.45 L2004.24 1538.98 Q2001.76 1537.71 1999.08 1537.07 Q1996.41 1536.44 1993.54 1536.44 Q1989.18 1536.44 1986.99 1537.77 Q1984.82 1539.11 1984.82 1541.79 Q1984.82 1543.82 1986.38 1545 Q1987.94 1546.15 1992.65 1547.2 L1994.66 1547.64 Q2000.9 1548.98 2003.51 1551.43 Q2006.15 1553.85 2006.15 1558.21 Q2006.15 1563.17 2002.2 1566.07 Q1998.29 1568.97 1991.41 1568.97 Q1988.55 1568.97 1985.43 1568.39 Q1982.34 1567.85 1978.9 1566.74 L1978.9 1560.69 Q1982.15 1562.38 1985.3 1563.24 Q1988.45 1564.07 1991.54 1564.07 Q1995.68 1564.07 1997.9 1562.66 Q2000.13 1561.23 2000.13 1558.65 Q2000.13 1556.27 1998.51 1554.99 Q1996.92 1553.72 1991.48 1552.54 L1989.44 1552.07 Q1984 1550.92 1981.58 1548.56 Q1979.16 1546.18 1979.16 1542.04 Q1979.16 1537.01 1982.72 1534.27 Q1986.29 1531.54 1992.84 1531.54 Q1996.09 1531.54 1998.96 1532.01 Q2001.82 1532.49 2004.24 1533.45 Z" fill="#000000" fill-rule="nonzero" fill-opacity="1" /><path clip-path="url(#clip350)" d="M2014.55 1518.58 L2019.64 1518.58 Q2024.42 1526.09 2026.77 1533.29 Q2029.16 1540.48 2029.16 1547.58 Q2029.16 1554.71 2026.77 1561.93 Q2024.42 1569.16 2019.64 1576.64 L2014.55 1576.64 Q2018.78 1569.35 2020.85 1562.16 Q2022.95 1554.93 2022.95 1547.58 Q2022.95 1540.23 2020.85 1533.06 Q2018.78 1525.9 2014.55 1518.58 Z" fill="#000000" fill-rule="nonzero" fill-opacity="1" /><polyline clip-path="url(#clip350)" style="stroke:#000000; stroke-linecap:round; stroke-linejoin:round; stroke-width:4; stroke-opacity:1; fill:none" points="1445.91,1423.18 1445.91,1071.73 "/>
<polyline clip-path="url(#clip350)" style="stroke:#000000; stroke-linecap:round; stroke-linejoin:round; stroke-width:4; stroke-opacity:1; fill:none" points="1445.91,1419.99 1464.81,1419.99 "/>
<polyline clip-path="url(#clip350)" style="stroke:#000000; stroke-linecap:round; stroke-linejoin:round; stroke-width:4; stroke-opacity:1; fill:none" points="1445.91,1327.48 1464.81,1327.48 "/>
<polyline clip-path="url(#clip350)" style="stroke:#000000; stroke-linecap:round; stroke-linejoin:round; stroke-width:4; stroke-opacity:1; fill:none" points="1445.91,1234.98 1464.81,1234.98 "/>
<polyline clip-path="url(#clip350)" style="stroke:#000000; stroke-linecap:round; stroke-linejoin:round; stroke-width:4; stroke-opacity:1; fill:none" points="1445.91,1142.48 1464.81,1142.48 "/>
<path clip-path="url(#clip350)" d="M1272.64 1420.44 L1302.32 1420.44 L1302.32 1424.37 L1272.64 1424.37 L1272.64 1420.44 Z" fill="#000000" fill-rule="nonzero" fill-opacity="1" /><path clip-path="url(#clip350)" d="M1322.41 1405.79 Q1318.8 1405.79 1316.97 1409.35 Q1315.16 1412.89 1315.16 1420.02 Q1315.16 1427.13 1316.97 1430.69 Q1318.8 1434.23 1322.41 1434.23 Q1326.04 1434.23 1327.85 1430.69 Q1329.68 1427.13 1329.68 1420.02 Q1329.68 1412.89 1327.85 1409.35 Q1326.04 1405.79 1322.41 1405.79 M1322.41 1402.08 Q1328.22 1402.08 1331.27 1406.69 Q1334.35 1411.27 1334.35 1420.02 Q1334.35 1428.75 1331.27 1433.36 Q1328.22 1437.94 1322.41 1437.94 Q1316.6 1437.94 1313.52 1433.36 Q1310.46 1428.75 1310.46 1420.02 Q1310.46 1411.27 1313.52 1406.69 Q1316.6 1402.08 1322.41 1402.08 Z" fill="#000000" fill-rule="nonzero" fill-opacity="1" /><path clip-path="url(#clip350)" d="M1342.57 1431.39 L1347.45 1431.39 L1347.45 1437.27 L1342.57 1437.27 L1342.57 1431.39 Z" fill="#000000" fill-rule="nonzero" fill-opacity="1" /><path clip-path="url(#clip350)" d="M1367.64 1405.79 Q1364.03 1405.79 1362.2 1409.35 Q1360.39 1412.89 1360.39 1420.02 Q1360.39 1427.13 1362.2 1430.69 Q1364.03 1434.23 1367.64 1434.23 Q1371.27 1434.23 1373.08 1430.69 Q1374.91 1427.13 1374.91 1420.02 Q1374.91 1412.89 1373.08 1409.35 Q1371.27 1405.79 1367.64 1405.79 M1367.64 1402.08 Q1373.45 1402.08 1376.51 1406.69 Q1379.58 1411.27 1379.58 1420.02 Q1379.58 1428.75 1376.51 1433.36 Q1373.45 1437.94 1367.64 1437.94 Q1361.83 1437.94 1358.75 1433.36 Q1355.7 1428.75 1355.7 1420.02 Q1355.7 1411.27 1358.75 1406.69 Q1361.83 1402.08 1367.64 1402.08 Z" fill="#000000" fill-rule="nonzero" fill-opacity="1" /><path clip-path="url(#clip350)" d="M1398.38 1418.12 Q1395.23 1418.12 1393.38 1420.28 Q1391.55 1422.43 1391.55 1426.18 Q1391.55 1429.91 1393.38 1432.08 Q1395.23 1434.23 1398.38 1434.23 Q1401.53 1434.23 1403.36 1432.08 Q1405.21 1429.91 1405.21 1426.18 Q1405.21 1422.43 1403.36 1420.28 Q1401.53 1418.12 1398.38 1418.12 M1407.66 1403.47 L1407.66 1407.73 Q1405.9 1406.9 1404.1 1406.46 Q1402.32 1406.02 1400.56 1406.02 Q1395.93 1406.02 1393.47 1409.14 Q1391.04 1412.27 1390.69 1418.59 Q1392.06 1416.57 1394.12 1415.51 Q1396.18 1414.42 1398.66 1414.42 Q1403.87 1414.42 1406.88 1417.59 Q1409.91 1420.74 1409.91 1426.18 Q1409.91 1431.5 1406.76 1434.72 Q1403.61 1437.94 1398.38 1437.94 Q1392.38 1437.94 1389.21 1433.36 Q1386.04 1428.75 1386.04 1420.02 Q1386.04 1411.83 1389.93 1406.97 Q1393.82 1402.08 1400.37 1402.08 Q1402.13 1402.08 1403.91 1402.43 Q1405.72 1402.78 1407.66 1403.47 Z" fill="#000000" fill-rule="nonzero" fill-opacity="1" /><path clip-path="url(#clip350)" d="M1272.32 1327.94 L1301.99 1327.94 L1301.99 1331.87 L1272.32 1331.87 L1272.32 1327.94 Z" fill="#000000" fill-rule="nonzero" fill-opacity="1" /><path clip-path="url(#clip350)" d="M1322.08 1313.28 Q1318.47 1313.28 1316.64 1316.85 Q1314.84 1320.39 1314.84 1327.52 Q1314.84 1334.63 1316.64 1338.19 Q1318.47 1341.73 1322.08 1341.73 Q1325.72 1341.73 1327.52 1338.19 Q1329.35 1334.63 1329.35 1327.52 Q1329.35 1320.39 1327.52 1316.85 Q1325.72 1313.28 1322.08 1313.28 M1322.08 1309.58 Q1327.89 1309.58 1330.95 1314.19 Q1334.03 1318.77 1334.03 1327.52 Q1334.03 1336.25 1330.95 1340.85 Q1327.89 1345.44 1322.08 1345.44 Q1316.27 1345.44 1313.2 1340.85 Q1310.14 1336.25 1310.14 1327.52 Q1310.14 1318.77 1313.2 1314.19 Q1316.27 1309.58 1322.08 1309.58 Z" fill="#000000" fill-rule="nonzero" fill-opacity="1" /><path clip-path="url(#clip350)" d="M1342.25 1338.88 L1347.13 1338.88 L1347.13 1344.76 L1342.25 1344.76 L1342.25 1338.88 Z" fill="#000000" fill-rule="nonzero" fill-opacity="1" /><path clip-path="url(#clip350)" d="M1367.32 1313.28 Q1363.7 1313.28 1361.88 1316.85 Q1360.07 1320.39 1360.07 1327.52 Q1360.07 1334.63 1361.88 1338.19 Q1363.7 1341.73 1367.32 1341.73 Q1370.95 1341.73 1372.76 1338.19 Q1374.58 1334.63 1374.58 1327.52 Q1374.58 1320.39 1372.76 1316.85 Q1370.95 1313.28 1367.32 1313.28 M1367.32 1309.58 Q1373.13 1309.58 1376.18 1314.19 Q1379.26 1318.77 1379.26 1327.52 Q1379.26 1336.25 1376.18 1340.85 Q1373.13 1345.44 1367.32 1345.44 Q1361.51 1345.44 1358.43 1340.85 Q1355.37 1336.25 1355.37 1327.52 Q1355.37 1318.77 1358.43 1314.19 Q1361.51 1309.58 1367.32 1309.58 Z" fill="#000000" fill-rule="nonzero" fill-opacity="1" /><path clip-path="url(#clip350)" d="M1400.32 1314.28 L1388.52 1332.73 L1400.32 1332.73 L1400.32 1314.28 M1399.1 1310.2 L1404.98 1310.2 L1404.98 1332.73 L1409.91 1332.73 L1409.91 1336.62 L1404.98 1336.62 L1404.98 1344.76 L1400.32 1344.76 L1400.32 1336.62 L1384.72 1336.62 L1384.72 1332.1 L1399.1 1310.2 Z" fill="#000000" fill-rule="nonzero" fill-opacity="1" /><path clip-path="url(#clip350)" d="M1274.4 1235.43 L1304.08 1235.43 L1304.08 1239.37 L1274.4 1239.37 L1274.4 1235.43 Z" fill="#000000" fill-rule="nonzero" fill-opacity="1" /><path clip-path="url(#clip350)" d="M1324.17 1220.78 Q1320.56 1220.78 1318.73 1224.34 Q1316.92 1227.89 1316.92 1235.02 Q1316.92 1242.12 1318.73 1245.69 Q1320.56 1249.23 1324.17 1249.23 Q1327.8 1249.23 1329.61 1245.69 Q1331.44 1242.12 1331.44 1235.02 Q1331.44 1227.89 1329.61 1224.34 Q1327.8 1220.78 1324.17 1220.78 M1324.17 1217.08 Q1329.98 1217.08 1333.03 1221.68 Q1336.11 1226.27 1336.11 1235.02 Q1336.11 1243.74 1333.03 1248.35 Q1329.98 1252.93 1324.17 1252.93 Q1318.36 1252.93 1315.28 1248.35 Q1312.22 1243.74 1312.22 1235.02 Q1312.22 1226.27 1315.28 1221.68 Q1318.36 1217.08 1324.17 1217.08 Z" fill="#000000" fill-rule="nonzero" fill-opacity="1" /><path clip-path="url(#clip350)" d="M1344.33 1246.38 L1349.21 1246.38 L1349.21 1252.26 L1344.33 1252.26 L1344.33 1246.38 Z" fill="#000000" fill-rule="nonzero" fill-opacity="1" /><path clip-path="url(#clip350)" d="M1369.4 1220.78 Q1365.79 1220.78 1363.96 1224.34 Q1362.15 1227.89 1362.15 1235.02 Q1362.15 1242.12 1363.96 1245.69 Q1365.79 1249.23 1369.4 1249.23 Q1373.03 1249.23 1374.84 1245.69 Q1376.67 1242.12 1376.67 1235.02 Q1376.67 1227.89 1374.84 1224.34 Q1373.03 1220.78 1369.4 1220.78 M1369.4 1217.08 Q1375.21 1217.08 1378.26 1221.68 Q1381.34 1226.27 1381.34 1235.02 Q1381.34 1243.74 1378.26 1248.35 Q1375.21 1252.93 1369.4 1252.93 Q1363.59 1252.93 1360.51 1248.35 Q1357.45 1243.74 1357.45 1235.02 Q1357.45 1226.27 1360.51 1221.68 Q1363.59 1217.08 1369.4 1217.08 Z" fill="#000000" fill-rule="nonzero" fill-opacity="1" /><path clip-path="url(#clip350)" d="M1393.59 1248.33 L1409.91 1248.33 L1409.91 1252.26 L1387.96 1252.26 L1387.96 1248.33 Q1390.63 1245.57 1395.21 1240.94 Q1399.82 1236.29 1401 1234.95 Q1403.24 1232.42 1404.12 1230.69 Q1405.02 1228.93 1405.02 1227.24 Q1405.02 1224.48 1403.08 1222.75 Q1401.16 1221.01 1398.06 1221.01 Q1395.86 1221.01 1393.4 1221.78 Q1390.97 1222.54 1388.19 1224.09 L1388.19 1219.37 Q1391.02 1218.23 1393.47 1217.66 Q1395.93 1217.08 1397.96 1217.08 Q1403.33 1217.08 1406.53 1219.76 Q1409.72 1222.45 1409.72 1226.94 Q1409.72 1229.07 1408.91 1230.99 Q1408.13 1232.89 1406.02 1235.48 Q1405.44 1236.15 1402.34 1239.37 Q1399.24 1242.56 1393.59 1248.33 Z" fill="#000000" fill-rule="nonzero" fill-opacity="1" /><path clip-path="url(#clip350)" d="M1322.57 1128.28 Q1318.96 1128.28 1317.13 1131.84 Q1315.32 1135.38 1315.32 1142.51 Q1315.32 1149.62 1317.13 1153.18 Q1318.96 1156.73 1322.57 1156.73 Q1326.2 1156.73 1328.01 1153.18 Q1329.84 1149.62 1329.84 1142.51 Q1329.84 1135.38 1328.01 1131.84 Q1326.2 1128.28 1322.57 1128.28 M1322.57 1124.57 Q1328.38 1124.57 1331.44 1129.18 Q1334.51 1133.76 1334.51 1142.51 Q1334.51 1151.24 1331.44 1155.85 Q1328.38 1160.43 1322.57 1160.43 Q1316.76 1160.43 1313.68 1155.85 Q1310.63 1151.24 1310.63 1142.51 Q1310.63 1133.76 1313.68 1129.18 Q1316.76 1124.57 1322.57 1124.57 Z" fill="#000000" fill-rule="nonzero" fill-opacity="1" /><path clip-path="url(#clip350)" d="M1342.73 1153.88 L1347.62 1153.88 L1347.62 1159.76 L1342.73 1159.76 L1342.73 1153.88 Z" fill="#000000" fill-rule="nonzero" fill-opacity="1" /><path clip-path="url(#clip350)" d="M1367.8 1128.28 Q1364.19 1128.28 1362.36 1131.84 Q1360.56 1135.38 1360.56 1142.51 Q1360.56 1149.62 1362.36 1153.18 Q1364.19 1156.73 1367.8 1156.73 Q1371.44 1156.73 1373.24 1153.18 Q1375.07 1149.62 1375.07 1142.51 Q1375.07 1135.38 1373.24 1131.84 Q1371.44 1128.28 1367.8 1128.28 M1367.8 1124.57 Q1373.61 1124.57 1376.67 1129.18 Q1379.75 1133.76 1379.75 1142.51 Q1379.75 1151.24 1376.67 1155.85 Q1373.61 1160.43 1367.8 1160.43 Q1361.99 1160.43 1358.91 1155.85 Q1355.86 1151.24 1355.86 1142.51 Q1355.86 1133.76 1358.91 1129.18 Q1361.99 1124.57 1367.8 1124.57 Z" fill="#000000" fill-rule="nonzero" fill-opacity="1" /><path clip-path="url(#clip350)" d="M1397.96 1128.28 Q1394.35 1128.28 1392.52 1131.84 Q1390.72 1135.38 1390.72 1142.51 Q1390.72 1149.62 1392.52 1153.18 Q1394.35 1156.73 1397.96 1156.73 Q1401.6 1156.73 1403.4 1153.18 Q1405.23 1149.62 1405.23 1142.51 Q1405.23 1135.38 1403.4 1131.84 Q1401.6 1128.28 1397.96 1128.28 M1397.96 1124.57 Q1403.77 1124.57 1406.83 1129.18 Q1409.91 1133.76 1409.91 1142.51 Q1409.91 1151.24 1406.83 1155.85 Q1403.77 1160.43 1397.96 1160.43 Q1392.15 1160.43 1389.07 1155.85 Q1386.02 1151.24 1386.02 1142.51 Q1386.02 1133.76 1389.07 1129.18 Q1392.15 1124.57 1397.96 1124.57 Z" fill="#000000" fill-rule="nonzero" fill-opacity="1" /><path clip-path="url(#clip350)" d="M1182.01 1252.88 L1182.94 1253.44 Q1181.43 1256.93 1179.02 1261.28 Q1181.43 1265.63 1182.94 1269.13 L1182.01 1269.67 Q1178.7 1265.86 1176.15 1261.28 Q1178.72 1256.66 1182.01 1252.88 Z" fill="#000000" fill-rule="nonzero" fill-opacity="1" /><path clip-path="url(#clip350)" d="M1194.31 1249.71 Q1196.12 1249.71 1197.15 1250.84 Q1198.14 1251.97 1198.14 1253.26 Q1198.14 1254.48 1197.44 1255.12 Q1196.73 1255.77 1195.83 1255.77 Q1194.6 1255.77 1193.54 1254.87 Q1192.48 1253.96 1192.25 1252.61 Q1191.41 1253.93 1191.41 1255.9 Q1191.41 1257.18 1192.09 1258.31 Q1192.77 1259.41 1193.64 1260.08 Q1194.51 1260.73 1195.76 1261.31 Q1196.99 1261.85 1197.73 1262.08 Q1198.43 1262.27 1199.21 1262.43 L1208.23 1264.69 Q1212.51 1265.78 1214.02 1265.78 Q1215.89 1265.78 1217.15 1264.88 Q1218.37 1263.98 1218.37 1262.18 Q1218.37 1261.47 1218.18 1260.66 Q1217.95 1259.86 1217.37 1258.83 Q1216.76 1257.76 1215.86 1256.83 Q1214.92 1255.86 1213.35 1254.93 Q1211.77 1254 1209.74 1253.38 Q1209.03 1253.19 1209.03 1252.55 Q1209.03 1251.74 1209.67 1251.74 Q1210.22 1251.74 1211.38 1252.19 Q1212.51 1252.61 1213.99 1253.55 Q1215.44 1254.45 1216.76 1255.64 Q1218.05 1256.83 1218.95 1258.6 Q1219.85 1260.37 1219.85 1262.31 Q1219.85 1265.08 1218.37 1266.91 Q1216.89 1268.75 1214.83 1269.42 Q1215.12 1269.58 1215.5 1269.81 Q1215.89 1270.03 1216.76 1270.71 Q1217.6 1271.36 1218.24 1272.1 Q1218.85 1272.84 1219.34 1274 Q1219.85 1275.12 1219.85 1276.35 Q1219.85 1277.89 1219.4 1279.28 Q1218.95 1280.63 1217.92 1281.6 Q1216.89 1282.56 1215.47 1282.56 Q1213.89 1282.56 1212.8 1281.5 Q1211.67 1280.41 1211.67 1278.92 Q1211.67 1277.99 1212.22 1277.25 Q1212.77 1276.48 1213.96 1276.48 Q1215.28 1276.48 1216.28 1277.38 Q1217.27 1278.28 1217.53 1279.57 Q1218.37 1278.25 1218.37 1276.28 Q1218.37 1274.16 1216.5 1272.48 Q1214.63 1270.81 1211.51 1270 Q1204.01 1268.01 1200.66 1267.23 Q1197.28 1266.46 1195.83 1266.46 Q1194.47 1266.46 1193.54 1266.81 Q1192.61 1267.17 1192.19 1267.78 Q1191.74 1268.36 1191.57 1268.91 Q1191.41 1269.42 1191.41 1270 Q1191.41 1270.97 1191.8 1272.06 Q1192.19 1273.13 1193.09 1274.41 Q1193.96 1275.67 1195.76 1276.86 Q1197.56 1278.05 1200.04 1278.86 Q1200.79 1279.02 1200.79 1279.73 Q1200.75 1280.5 1200.11 1280.5 Q1199.56 1280.5 1198.43 1280.08 Q1197.28 1279.63 1195.83 1278.73 Q1194.38 1277.8 1193.09 1276.6 Q1191.77 1275.38 1190.87 1273.61 Q1189.96 1271.81 1189.96 1269.87 Q1189.96 1269 1190.16 1268.17 Q1190.32 1267.3 1190.8 1266.27 Q1191.28 1265.2 1192.35 1264.27 Q1193.41 1263.34 1194.96 1262.76 Q1194.22 1262.37 1193.51 1261.85 Q1192.8 1261.31 1191.93 1260.47 Q1191.03 1259.6 1190.51 1258.41 Q1189.96 1257.18 1189.96 1255.83 Q1189.96 1254.51 1190.32 1253.22 Q1190.64 1251.94 1191.7 1250.84 Q1192.73 1249.71 1194.31 1249.71 Z" fill="#000000" fill-rule="nonzero" fill-opacity="1" /><path clip-path="url(#clip350)" d="M1231.9 1242.25 Q1230.52 1242.25 1229.87 1241.46 Q1229.22 1240.68 1229.22 1239.66 Q1229.22 1238.6 1229.92 1237.86 Q1230.59 1237.09 1231.79 1237.09 Q1233.07 1237.09 1233.79 1237.99 Q1234.51 1238.87 1234.33 1240.13 Q1236.18 1239.03 1237.02 1237 Q1237.85 1234.95 1237.85 1233.06 Q1237.85 1231.07 1236.14 1229.47 Q1234.42 1227.85 1230.23 1227.85 Q1226.67 1227.85 1224.62 1229.25 Q1222.57 1230.62 1222.57 1233.35 L1222.57 1235.38 Q1222.57 1236.08 1222.5 1236.28 Q1222.43 1236.48 1222.05 1236.48 Q1221.6 1236.48 1221.51 1235.78 Q1221.51 1235.08 1221.37 1233.98 Q1221.28 1231.3 1218.96 1229.88 Q1216.79 1228.59 1213.71 1228.59 Q1210.89 1228.59 1209.72 1229.94 Q1208.52 1231.27 1208.52 1233.01 Q1208.52 1234.63 1209.2 1236.41 Q1209.87 1238.2 1211.38 1239.17 Q1211.38 1236.3 1213.71 1236.3 Q1214.72 1236.3 1215.4 1236.96 Q1216.05 1237.59 1216.05 1238.65 Q1216.05 1239.66 1215.42 1240.34 Q1214.77 1241.01 1213.66 1241.01 Q1211.02 1241.01 1209.2 1238.67 Q1207.37 1236.3 1207.37 1232.83 Q1207.37 1229.4 1209.17 1226.88 Q1210.98 1224.33 1213.75 1224.33 Q1216.48 1224.33 1218.71 1226.13 Q1220.94 1227.94 1221.87 1230.8 Q1222.57 1227.28 1224.96 1225.19 Q1227.32 1223.09 1230.23 1223.09 Q1233.84 1223.09 1236.5 1225.93 Q1239.14 1228.77 1239.14 1232.92 Q1239.14 1236.75 1237.06 1239.5 Q1234.99 1242.25 1231.9 1242.25 Z" fill="#000000" fill-rule="nonzero" fill-opacity="1" /><polyline clip-path="url(#clip355)" style="stroke:#e26f46; stroke-linecap:round; stroke-linejoin:round; stroke-width:3; stroke-opacity:1; fill:none" stroke-dasharray="12, 6, 2, 6" points="1471.57,1142.48 1496.74,1265.17 1521.9,1081.68 1547.06,1269.28 1572.22,1280.7 1597.38,1413.23 1622.55,1308.83 1647.71,1300.83 1672.87,1312.66 1698.03,1277.26 1723.2,1263.47 1748.36,1251.55 1773.52,1228.42 1798.68,1212.7 1823.85,1147.56 1849.01,1167.51 1874.17,1195.33 1899.33,1202.32 1924.49,1150.96 1949.66,1165.71 1974.82,1143.5 1999.98,1161.78 2025.14,1168.08 2050.31,1132.61 2075.47,1173.56 2100.63,1175.72 2125.79,1154.8 2150.95,1097.8 2176.12,1144.91 2201.28,1147.34 2226.44,1155.68 2251.6,1123.71 2276.77,1126.1 2301.93,1167.78 2327.09,1124.34 "/>
</svg>
