<?xml version="1.0" encoding="utf-8"?>
<svg xmlns="http://www.w3.org/2000/svg" xmlns:xlink="http://www.w3.org/1999/xlink" width="600" height="400" viewBox="0 0 2400 1600">
<defs>
  <clipPath id="clip120">
    <rect x="0" y="0" width="2400" height="1600"/>
  </clipPath>
</defs>
<path clip-path="url(#clip120)" d="M0 1600 L2400 1600 L2400 0 L0 0  Z" fill="#ffffff" fill-rule="evenodd" fill-opacity="1"/>
<defs>
  <clipPath id="clip121">
    <rect x="480" y="0" width="1681" height="1600"/>
  </clipPath>
</defs>
<path clip-path="url(#clip120)" d="M203.964 1423.18 L1110.81 1423.18 L1110.81 47.2441 L203.964 47.2441  Z" fill="#ffffff" fill-rule="evenodd" fill-opacity="1"/>
<defs>
  <clipPath id="clip122">
    <rect x="203" y="47" width="908" height="1377"/>
  </clipPath>
</defs>
<polyline clip-path="url(#clip122)" style="stroke:#000000; stroke-linecap:round; stroke-linejoin:round; stroke-width:2; stroke-opacity:0.1; fill:none" points="229.629,1423.18 229.629,47.2441 "/>
<polyline clip-path="url(#clip122)" style="stroke:#000000; stroke-linecap:round; stroke-linejoin:round; stroke-width:2; stroke-opacity:0.1; fill:none" points="481.252,1423.18 481.252,47.2441 "/>
<polyline clip-path="url(#clip122)" style="stroke:#000000; stroke-linecap:round; stroke-linejoin:round; stroke-width:2; stroke-opacity:0.1; fill:none" points="732.874,1423.18 732.874,47.2441 "/>
<polyline clip-path="url(#clip122)" style="stroke:#000000; stroke-linecap:round; stroke-linejoin:round; stroke-width:2; stroke-opacity:0.1; fill:none" points="984.497,1423.18 984.497,47.2441 "/>
<polyline clip-path="url(#clip120)" style="stroke:#000000; stroke-linecap:round; stroke-linejoin:round; stroke-width:4; stroke-opacity:1; fill:none" points="203.964,1423.18 1110.81,1423.18 "/>
<polyline clip-path="url(#clip120)" style="stroke:#000000; stroke-linecap:round; stroke-linejoin:round; stroke-width:4; stroke-opacity:1; fill:none" points="229.629,1423.18 229.629,1404.28 "/>
<polyline clip-path="url(#clip120)" style="stroke:#000000; stroke-linecap:round; stroke-linejoin:round; stroke-width:4; stroke-opacity:1; fill:none" points="481.252,1423.18 481.252,1404.28 "/>
<polyline clip-path="url(#clip120)" style="stroke:#000000; stroke-linecap:round; stroke-linejoin:round; stroke-width:4; stroke-opacity:1; fill:none" points="732.874,1423.18 732.874,1404.28 "/>
<polyline clip-path="url(#clip120)" style="stroke:#000000; stroke-linecap:round; stroke-linejoin:round; stroke-width:4; stroke-opacity:1; fill:none" points="984.497,1423.18 984.497,1404.28 "/>
<path clip-path="url(#clip120)" d="M229.629 1454.1 Q226.018 1454.1 224.189 1457.66 Q222.384 1461.2 222.384 1468.33 Q222.384 1475.44 224.189 1479.01 Q226.018 1482.55 229.629 1482.55 Q233.263 1482.55 235.069 1479.01 Q236.898 1475.44 236.898 1468.33 Q236.898 1461.2 235.069 1457.66 Q233.263 1454.1 229.629 1454.1 M229.629 1450.39 Q235.439 1450.39 238.495 1455 Q241.573 1459.58 241.573 1468.33 Q241.573 1477.06 238.495 1481.67 Q235.439 1486.25 229.629 1486.25 Q223.819 1486.25 220.74 1481.67 Q217.685 1477.06 217.685 1468.33 Q217.685 1459.58 220.74 1455 Q223.819 1450.39 229.629 1450.39 Z" fill="#000000" fill-rule="nonzero" fill-opacity="1" /><path clip-path="url(#clip120)" d="M471.634 1481.64 L479.273 1481.64 L479.273 1455.28 L470.962 1456.95 L470.962 1452.69 L479.226 1451.02 L483.902 1451.02 L483.902 1481.64 L491.541 1481.64 L491.541 1485.58 L471.634 1485.58 L471.634 1481.64 Z" fill="#000000" fill-rule="nonzero" fill-opacity="1" /><path clip-path="url(#clip120)" d="M727.527 1481.64 L743.847 1481.64 L743.847 1485.58 L721.902 1485.58 L721.902 1481.64 Q724.564 1478.89 729.148 1474.26 Q733.754 1469.61 734.935 1468.27 Q737.18 1465.74 738.06 1464.01 Q738.962 1462.25 738.962 1460.56 Q738.962 1457.8 737.018 1456.07 Q735.097 1454.33 731.995 1454.33 Q729.796 1454.33 727.342 1455.09 Q724.912 1455.86 722.134 1457.41 L722.134 1452.69 Q724.958 1451.55 727.411 1450.97 Q729.865 1450.39 731.902 1450.39 Q737.273 1450.39 740.467 1453.08 Q743.661 1455.77 743.661 1460.26 Q743.661 1462.39 742.851 1464.31 Q742.064 1466.2 739.958 1468.8 Q739.379 1469.47 736.277 1472.69 Q733.175 1475.88 727.527 1481.64 Z" fill="#000000" fill-rule="nonzero" fill-opacity="1" /><path clip-path="url(#clip120)" d="M988.745 1466.95 Q992.101 1467.66 993.976 1469.93 Q995.874 1472.2 995.874 1475.53 Q995.874 1480.65 992.356 1483.45 Q988.837 1486.25 982.356 1486.25 Q980.18 1486.25 977.865 1485.81 Q975.574 1485.39 973.12 1484.54 L973.12 1480.02 Q975.064 1481.16 977.379 1481.74 Q979.694 1482.32 982.217 1482.32 Q986.615 1482.32 988.907 1480.58 Q991.222 1478.84 991.222 1475.53 Q991.222 1472.48 989.069 1470.77 Q986.939 1469.03 983.12 1469.03 L979.092 1469.03 L979.092 1465.19 L983.305 1465.19 Q986.754 1465.19 988.583 1463.82 Q990.411 1462.43 990.411 1459.84 Q990.411 1457.18 988.513 1455.77 Q986.638 1454.33 983.12 1454.33 Q981.199 1454.33 978.999 1454.75 Q976.8 1455.16 974.162 1456.04 L974.162 1451.88 Q976.824 1451.14 979.138 1450.77 Q981.476 1450.39 983.536 1450.39 Q988.861 1450.39 991.962 1452.83 Q995.064 1455.23 995.064 1459.35 Q995.064 1462.22 993.421 1464.21 Q991.777 1466.18 988.745 1466.95 Z" fill="#000000" fill-rule="nonzero" fill-opacity="1" /><path clip-path="url(#clip120)" d="M527.559 1520.52 L567.758 1520.52 L567.758 1525.93 L550.889 1525.93 L550.889 1568.04 L544.428 1568.04 L544.428 1525.93 L527.559 1525.93 L527.559 1520.52 Z" fill="#000000" fill-rule="nonzero" fill-opacity="1" /><path clip-path="url(#clip120)" d="M571.705 1532.4 L577.562 1532.4 L577.562 1568.04 L571.705 1568.04 L571.705 1532.4 M571.705 1518.52 L577.562 1518.52 L577.562 1525.93 L571.705 1525.93 L571.705 1518.52 Z" fill="#000000" fill-rule="nonzero" fill-opacity="1" /><path clip-path="url(#clip120)" d="M617.57 1539.24 Q619.766 1535.29 622.822 1533.41 Q625.877 1531.54 630.015 1531.54 Q635.585 1531.54 638.609 1535.45 Q641.633 1539.33 641.633 1546.53 L641.633 1568.04 L635.744 1568.04 L635.744 1546.72 Q635.744 1541.59 633.93 1539.11 Q632.116 1536.63 628.392 1536.63 Q623.84 1536.63 621.199 1539.65 Q618.557 1542.68 618.557 1547.9 L618.557 1568.04 L612.669 1568.04 L612.669 1546.72 Q612.669 1541.56 610.854 1539.11 Q609.04 1536.63 605.252 1536.63 Q600.765 1536.63 598.123 1539.68 Q595.481 1542.71 595.481 1547.9 L595.481 1568.04 L589.593 1568.04 L589.593 1532.4 L595.481 1532.4 L595.481 1537.93 Q597.486 1534.66 600.287 1533.1 Q603.088 1531.54 606.939 1531.54 Q610.822 1531.54 613.528 1533.51 Q616.265 1535.48 617.57 1539.24 Z" fill="#000000" fill-rule="nonzero" fill-opacity="1" /><path clip-path="url(#clip120)" d="M683.805 1548.76 L683.805 1551.62 L656.878 1551.62 Q657.26 1557.67 660.507 1560.85 Q663.785 1564 669.61 1564 Q672.984 1564 676.135 1563.17 Q679.317 1562.35 682.437 1560.69 L682.437 1566.23 Q679.286 1567.57 675.975 1568.27 Q672.665 1568.97 669.26 1568.97 Q660.73 1568.97 655.733 1564 Q650.767 1559.04 650.767 1550.57 Q650.767 1541.82 655.478 1536.69 Q660.22 1531.54 668.241 1531.54 Q675.434 1531.54 679.604 1536.18 Q683.805 1540.8 683.805 1548.76 M677.949 1547.04 Q677.885 1542.23 675.243 1539.37 Q672.633 1536.5 668.305 1536.5 Q663.403 1536.5 660.443 1539.27 Q657.515 1542.04 657.069 1547.07 L677.949 1547.04 Z" fill="#000000" fill-rule="nonzero" fill-opacity="1" /><path clip-path="url(#clip120)" d="M728.206 1518.58 Q723.941 1525.9 721.872 1533.06 Q719.803 1540.23 719.803 1547.58 Q719.803 1554.93 721.872 1562.16 Q723.973 1569.35 728.206 1576.64 L723.114 1576.64 Q718.339 1569.16 715.952 1561.93 Q713.597 1554.71 713.597 1547.58 Q713.597 1540.48 715.952 1533.29 Q718.307 1526.09 723.114 1518.58 L728.206 1518.58 Z" fill="#000000" fill-rule="nonzero" fill-opacity="1" /><path clip-path="url(#clip120)" d="M762.294 1533.45 L762.294 1538.98 Q759.812 1537.71 757.138 1537.07 Q754.465 1536.44 751.6 1536.44 Q747.24 1536.44 745.043 1537.77 Q742.879 1539.11 742.879 1541.79 Q742.879 1543.82 744.439 1545 Q745.998 1546.15 750.709 1547.2 L752.714 1547.64 Q758.952 1548.98 761.562 1551.43 Q764.204 1553.85 764.204 1558.21 Q764.204 1563.17 760.257 1566.07 Q756.343 1568.97 749.468 1568.97 Q746.603 1568.97 743.484 1568.39 Q740.396 1567.85 736.959 1566.74 L736.959 1560.69 Q740.205 1562.38 743.356 1563.24 Q746.508 1564.07 749.595 1564.07 Q753.733 1564.07 755.961 1562.66 Q758.189 1561.23 758.189 1558.65 Q758.189 1556.27 756.565 1554.99 Q754.974 1553.72 749.531 1552.54 L747.494 1552.07 Q742.052 1550.92 739.633 1548.56 Q737.214 1546.18 737.214 1542.04 Q737.214 1537.01 740.778 1534.27 Q744.343 1531.54 750.9 1531.54 Q754.146 1531.54 757.011 1532.01 Q759.876 1532.49 762.294 1533.45 Z" fill="#000000" fill-rule="nonzero" fill-opacity="1" /><path clip-path="url(#clip120)" d="M772.607 1518.58 L777.699 1518.58 Q782.474 1526.09 784.829 1533.29 Q787.216 1540.48 787.216 1547.58 Q787.216 1554.71 784.829 1561.93 Q782.474 1569.16 777.699 1576.64 L772.607 1576.64 Q776.84 1569.35 778.909 1562.16 Q781.01 1554.93 781.01 1547.58 Q781.01 1540.23 778.909 1533.06 Q776.84 1525.9 772.607 1518.58 Z" fill="#000000" fill-rule="nonzero" fill-opacity="1" /><polyline clip-path="url(#clip122)" style="stroke:#000000; stroke-linecap:round; stroke-linejoin:round; stroke-width:2; stroke-opacity:0.1; fill:none" points="203.964,1384.24 1110.81,1384.24 "/>
<polyline clip-path="url(#clip122)" style="stroke:#000000; stroke-linecap:round; stroke-linejoin:round; stroke-width:2; stroke-opacity:0.1; fill:none" points="203.964,1019.74 1110.81,1019.74 "/>
<polyline clip-path="url(#clip122)" style="stroke:#000000; stroke-linecap:round; stroke-linejoin:round; stroke-width:2; stroke-opacity:0.1; fill:none" points="203.964,655.244 1110.81,655.244 "/>
<polyline clip-path="url(#clip122)" style="stroke:#000000; stroke-linecap:round; stroke-linejoin:round; stroke-width:2; stroke-opacity:0.1; fill:none" points="203.964,290.747 1110.81,290.747 "/>
<polyline clip-path="url(#clip120)" style="stroke:#000000; stroke-linecap:round; stroke-linejoin:round; stroke-width:4; stroke-opacity:1; fill:none" points="203.964,1423.18 203.964,47.2441 "/>
<polyline clip-path="url(#clip120)" style="stroke:#000000; stroke-linecap:round; stroke-linejoin:round; stroke-width:4; stroke-opacity:1; fill:none" points="203.964,1384.24 222.861,1384.24 "/>
<polyline clip-path="url(#clip120)" style="stroke:#000000; stroke-linecap:round; stroke-linejoin:round; stroke-width:4; stroke-opacity:1; fill:none" points="203.964,1019.74 222.861,1019.74 "/>
<polyline clip-path="url(#clip120)" style="stroke:#000000; stroke-linecap:round; stroke-linejoin:round; stroke-width:4; stroke-opacity:1; fill:none" points="203.964,655.244 222.861,655.244 "/>
<polyline clip-path="url(#clip120)" style="stroke:#000000; stroke-linecap:round; stroke-linejoin:round; stroke-width:4; stroke-opacity:1; fill:none" points="203.964,290.747 222.861,290.747 "/>
<path clip-path="url(#clip120)" d="M156.019 1370.04 Q152.408 1370.04 150.579 1373.6 Q148.774 1377.14 148.774 1384.27 Q148.774 1391.38 150.579 1394.94 Q152.408 1398.49 156.019 1398.49 Q159.653 1398.49 161.459 1394.94 Q163.288 1391.38 163.288 1384.27 Q163.288 1377.14 161.459 1373.6 Q159.653 1370.04 156.019 1370.04 M156.019 1366.33 Q161.829 1366.33 164.885 1370.94 Q167.964 1375.52 167.964 1384.27 Q167.964 1393 164.885 1397.61 Q161.829 1402.19 156.019 1402.19 Q150.209 1402.19 147.13 1397.61 Q144.075 1393 144.075 1384.27 Q144.075 1375.52 147.13 1370.94 Q150.209 1366.33 156.019 1366.33 Z" fill="#000000" fill-rule="nonzero" fill-opacity="1" /><path clip-path="url(#clip120)" d="M116.668 1033.09 L124.306 1033.09 L124.306 1006.72 L115.996 1008.39 L115.996 1004.13 L124.26 1002.46 L128.936 1002.46 L128.936 1033.09 L136.575 1033.09 L136.575 1037.02 L116.668 1037.02 L116.668 1033.09 Z" fill="#000000" fill-rule="nonzero" fill-opacity="1" /><path clip-path="url(#clip120)" d="M156.019 1005.54 Q152.408 1005.54 150.579 1009.1 Q148.774 1012.65 148.774 1019.78 Q148.774 1026.88 150.579 1030.45 Q152.408 1033.99 156.019 1033.99 Q159.653 1033.99 161.459 1030.45 Q163.288 1026.88 163.288 1019.78 Q163.288 1012.65 161.459 1009.1 Q159.653 1005.54 156.019 1005.54 M156.019 1001.84 Q161.829 1001.84 164.885 1006.44 Q167.964 1011.03 167.964 1019.78 Q167.964 1028.5 164.885 1033.11 Q161.829 1037.69 156.019 1037.69 Q150.209 1037.69 147.13 1033.11 Q144.075 1028.5 144.075 1019.78 Q144.075 1011.03 147.13 1006.44 Q150.209 1001.84 156.019 1001.84 Z" fill="#000000" fill-rule="nonzero" fill-opacity="1" /><path clip-path="url(#clip120)" d="M119.885 668.589 L136.204 668.589 L136.204 672.524 L114.26 672.524 L114.26 668.589 Q116.922 665.835 121.505 661.205 Q126.112 656.552 127.292 655.21 Q129.538 652.687 130.417 650.95 Q131.32 649.191 131.32 647.501 Q131.32 644.747 129.376 643.011 Q127.455 641.275 124.353 641.275 Q122.154 641.275 119.7 642.038 Q117.269 642.802 114.492 644.353 L114.492 639.631 Q117.316 638.497 119.769 637.918 Q122.223 637.339 124.26 637.339 Q129.63 637.339 132.825 640.025 Q136.019 642.71 136.019 647.2 Q136.019 649.33 135.209 651.251 Q134.422 653.149 132.316 655.742 Q131.737 656.413 128.635 659.631 Q125.533 662.825 119.885 668.589 Z" fill="#000000" fill-rule="nonzero" fill-opacity="1" /><path clip-path="url(#clip120)" d="M156.019 641.043 Q152.408 641.043 150.579 644.608 Q148.774 648.15 148.774 655.279 Q148.774 662.386 150.579 665.95 Q152.408 669.492 156.019 669.492 Q159.653 669.492 161.459 665.95 Q163.288 662.386 163.288 655.279 Q163.288 648.15 161.459 644.608 Q159.653 641.043 156.019 641.043 M156.019 637.339 Q161.829 637.339 164.885 641.946 Q167.964 646.529 167.964 655.279 Q167.964 664.006 164.885 668.612 Q161.829 673.196 156.019 673.196 Q150.209 673.196 147.13 668.612 Q144.075 664.006 144.075 655.279 Q144.075 646.529 147.13 641.946 Q150.209 637.339 156.019 637.339 Z" fill="#000000" fill-rule="nonzero" fill-opacity="1" /><path clip-path="url(#clip120)" d="M130.024 289.393 Q133.38 290.111 135.255 292.379 Q137.154 294.648 137.154 297.981 Q137.154 303.097 133.635 305.898 Q130.117 308.699 123.635 308.699 Q121.459 308.699 119.144 308.259 Q116.853 307.842 114.399 306.986 L114.399 302.472 Q116.343 303.606 118.658 304.185 Q120.973 304.764 123.496 304.764 Q127.894 304.764 130.186 303.027 Q132.501 301.291 132.501 297.981 Q132.501 294.926 130.348 293.213 Q128.218 291.477 124.399 291.477 L120.371 291.477 L120.371 287.634 L124.584 287.634 Q128.033 287.634 129.862 286.268 Q131.691 284.879 131.691 282.287 Q131.691 279.625 129.792 278.213 Q127.917 276.778 124.399 276.778 Q122.478 276.778 120.279 277.194 Q118.08 277.611 115.441 278.491 L115.441 274.324 Q118.103 273.583 120.418 273.213 Q122.755 272.842 124.816 272.842 Q130.14 272.842 133.242 275.273 Q136.343 277.68 136.343 281.801 Q136.343 284.671 134.7 286.662 Q133.056 288.629 130.024 289.393 Z" fill="#000000" fill-rule="nonzero" fill-opacity="1" /><path clip-path="url(#clip120)" d="M156.019 276.546 Q152.408 276.546 150.579 280.111 Q148.774 283.653 148.774 290.782 Q148.774 297.889 150.579 301.453 Q152.408 304.995 156.019 304.995 Q159.653 304.995 161.459 301.453 Q163.288 297.889 163.288 290.782 Q163.288 283.653 161.459 280.111 Q159.653 276.546 156.019 276.546 M156.019 272.842 Q161.829 272.842 164.885 277.449 Q167.964 282.032 167.964 290.782 Q167.964 299.509 164.885 304.115 Q161.829 308.699 156.019 308.699 Q150.209 308.699 147.13 304.115 Q144.075 299.509 144.075 290.782 Q144.075 282.032 147.13 277.449 Q150.209 272.842 156.019 272.842 Z" fill="#000000" fill-rule="nonzero" fill-opacity="1" /><path clip-path="url(#clip120)" d="M21.7178 734.435 Q22.1687 734.435 23.2315 734.724 L48.4165 741.037 Q54.0203 742.422 57.9494 746.93 Q61.8785 751.407 61.8785 756.496 Q61.8785 759.555 60.236 761.52 Q58.6257 763.484 56.1459 763.484 Q53.9559 763.484 52.8931 762.325 Q51.8625 761.165 51.8625 759.781 Q51.8625 759.33 51.9913 758.847 Q52.1201 758.364 52.6676 757.848 Q53.2151 757.333 54.1491 757.333 Q55.6628 757.333 56.8544 758.653 Q57.4019 759.298 57.5307 759.909 Q57.6596 760.489 57.6596 761.488 Q58.5613 761.101 59.1732 760.393 Q59.7851 759.684 60.0106 758.879 Q60.2682 758.074 60.3326 757.558 Q60.4293 757.011 60.4293 756.496 Q60.4293 752.373 56.2747 749.217 Q55.0187 748.283 53.7626 747.607 Q52.5388 746.898 51.0252 746.383 Q49.5437 745.868 48.7385 745.642 Q47.9334 745.385 46.0977 744.934 Q49.0928 747.929 49.0928 751.6 Q49.0928 753.146 48.6741 754.531 Q48.2554 755.884 47.3859 757.075 Q46.4841 758.267 44.906 758.975 Q43.3279 759.652 41.2346 759.652 Q39.0124 759.652 35.985 758.782 Q32.9577 757.913 27.386 755.819 Q24.2621 754.692 22.7484 754.692 Q22.0077 754.692 21.5568 754.853 Q21.0737 755.014 20.9127 755.336 Q20.7194 755.658 20.6872 755.852 Q20.655 756.013 20.655 756.335 Q20.655 758.235 22.5874 760.006 Q24.5197 761.777 28.8353 763.001 Q29.6405 763.259 29.8337 763.42 Q30.0269 763.581 30.0269 764.064 Q29.9947 764.869 29.3506 764.869 Q29.093 764.869 28.0946 764.579 Q27.064 764.289 25.5503 763.613 Q24.0044 762.905 22.6196 761.938 Q21.2025 760.972 20.2041 759.459 Q19.2058 757.913 19.2058 756.141 Q19.2058 753.726 20.7838 752.244 Q22.3297 750.731 24.6163 750.731 Q25.5503 750.731 26.3877 750.988 Q27.1928 751.214 29.3506 752.051 Q38.0462 755.433 42.2974 755.433 Q43.3279 755.433 44.1975 755.272 Q45.0349 755.079 45.8722 754.66 Q46.6774 754.241 47.1604 753.404 Q47.6113 752.534 47.6113 751.343 Q47.6113 749.829 46.9028 748.412 Q46.1621 746.963 45.1637 746.061 Q44.1653 745.127 43.3279 744.579 Q42.4584 744 42.0075 743.871 L30.1558 740.908 L24.874 739.588 Q22.0077 738.976 21.2991 738.686 Q20.6228 738.299 20.2686 737.623 Q19.9143 736.947 19.9143 736.367 Q19.9143 735.562 20.3974 735.014 Q20.8805 734.435 21.7178 734.435 Z" fill="#000000" fill-rule="nonzero" fill-opacity="1" /><path clip-path="url(#clip120)" d="M53.6652 727.689 L52.2224 727.689 Q52.2224 722.143 49.2691 719.28 Q49.2691 718.491 49.4494 718.355 Q49.6298 718.22 50.4639 718.22 L76.3671 718.22 Q77.7423 718.22 78.1706 717.544 Q78.599 716.867 78.599 713.914 L78.599 712.449 L80.0193 712.449 Q79.884 714.072 79.884 719.933 Q79.884 725.795 80.0193 727.395 L78.599 727.395 L78.599 725.93 Q78.599 723.022 78.1932 722.323 Q77.7648 721.624 76.3671 721.624 L52.4478 721.624 Q53.6652 724.036 53.6652 727.689 Z" fill="#000000" fill-rule="nonzero" fill-opacity="1" /><polyline clip-path="url(#clip122)" style="stroke:#009af9; stroke-linecap:round; stroke-linejoin:round; stroke-width:4; stroke-opacity:1; fill:none" points="229.629,1366.18 254.791,1366.41 279.954,1172.41 305.116,833.105 330.278,534.82 355.44,282.991 380.603,118.617 405.765,116.97 430.927,203.637 456.089,258.996 481.252,429.676 506.414,501.56 531.576,563.732 556.739,606.485 581.901,561.599 607.063,542.012 632.225,527.606 657.388,453.09 682.55,452.664 707.712,445.088 732.874,425.281 758.037,427.074 783.199,388.132 808.361,440.906 833.524,466.214 858.686,504.813 883.848,454.219 909.01,483.459 934.173,464.65 959.335,469.813 984.497,431.852 1009.66,438.196 1034.82,477.719 1059.98,452.17 1085.15,484.026 "/>
<polyline clip-path="url(#clip122)" style="stroke:#e26f46; stroke-linecap:round; stroke-linejoin:round; stroke-width:3; stroke-opacity:1; fill:none" stroke-dasharray="12, 6, 2, 6" points="229.629,1384.24 254.791,1366.18 279.954,1153.31 305.116,855.35 330.278,472.735 355.44,278.984 380.603,139.306 405.765,86.1857 430.927,204.605 456.089,355.089 481.252,390.992 506.414,579.091 531.576,583.201 556.739,600.25 581.901,609.697 607.063,513.838 632.225,497.554 657.388,494.961 682.55,405.895 707.712,443.017 732.874,447.263 758.037,426.508 783.199,437.861 808.361,383.766 833.524,471.98 858.686,490.382 883.848,526.428 909.01,432.425 934.173,485.995 959.335,453.909 984.497,467.022 1009.66,414.301 1034.82,438.808 1059.98,497.911 1085.15,446.678 "/>
<path clip-path="url(#clip120)" d="M961.069 248.629 L1080.58 248.629 L1080.58 93.1086 L961.069 93.1086  Z" fill="#ffffff" fill-rule="evenodd" fill-opacity="1"/>
<polyline clip-path="url(#clip120)" style="stroke:#000000; stroke-linecap:round; stroke-linejoin:round; stroke-width:4; stroke-opacity:1; fill:none" points="961.069,248.629 1080.58,248.629 1080.58,93.1086 961.069,93.1086 961.069,248.629 "/>
<polyline clip-path="url(#clip120)" style="stroke:#009af9; stroke-linecap:round; stroke-linejoin:round; stroke-width:4; stroke-opacity:1; fill:none" points="971.145,144.949 1031.6,144.949 "/>
<path clip-path="url(#clip120)" d="M1068.45 131.687 Q1066.97 131.687 1066.22 131.828 Q1065.48 131.945 1065.29 132.109 Q1065.1 132.273 1064.89 132.695 L1054.58 154.618 Q1053.48 156.96 1051.42 158.647 Q1049.38 160.333 1046.81 160.333 Q1044.65 160.333 1043.15 159.021 Q1041.68 157.733 1041.68 155.906 Q1041.68 154.595 1042.5 153.845 Q1043.32 153.119 1044.42 153.119 Q1045.64 153.119 1046.41 153.892 Q1047.21 154.665 1047.21 155.859 Q1047.21 156.632 1046.88 157.218 Q1046.55 157.827 1046.25 158.038 Q1045.96 158.272 1045.66 158.412 Q1046.15 158.6 1046.81 158.6 Q1047.79 158.6 1048.63 158.202 Q1049.5 157.827 1050.06 157.312 Q1050.65 156.82 1051.23 155.93 Q1051.82 155.063 1052.1 154.501 Q1052.38 153.962 1052.8 153.025 L1053.9 150.73 L1044.93 131.687 L1041.87 131.687 L1041.87 129.439 L1047.35 129.579 L1053.3 129.439 L1053.3 131.687 L1050.7 131.687 L1056.79 144.64 L1062.31 132.835 L1062.55 132.273 Q1062.55 132.015 1061.99 131.875 Q1061.42 131.711 1060.86 131.711 L1060.3 131.687 L1060.3 129.439 L1064.66 129.579 Q1066.72 129.579 1068.45 129.439 L1068.45 131.687 Z" fill="#000000" fill-rule="nonzero" fill-opacity="1" /><polyline clip-path="url(#clip120)" style="stroke:#e26f46; stroke-linecap:round; stroke-linejoin:round; stroke-width:3; stroke-opacity:1; fill:none" stroke-dasharray="12, 6, 2, 6" points="971.145,196.789 1031.6,196.789 "/>
<path clip-path="url(#clip120)" d="M1064.26 180.509 L1063.85 181.181 Q1061.31 180.083 1058.15 178.328 Q1054.98 180.083 1052.44 181.181 L1052.05 180.509 Q1054.82 178.099 1058.15 176.246 Q1061.51 178.115 1064.26 180.509 Z" fill="#000000" fill-rule="nonzero" fill-opacity="1" /><path clip-path="url(#clip120)" d="M1068.45 188.532 Q1066.97 188.532 1066.22 188.672 Q1065.48 188.79 1065.29 188.954 Q1065.1 189.118 1064.89 189.539 L1054.58 211.463 Q1053.48 213.805 1051.42 215.491 Q1049.38 217.178 1046.81 217.178 Q1044.65 217.178 1043.15 215.866 Q1041.68 214.578 1041.68 212.751 Q1041.68 211.439 1042.5 210.69 Q1043.32 209.963 1044.42 209.963 Q1045.64 209.963 1046.41 210.736 Q1047.21 211.509 1047.21 212.704 Q1047.21 213.477 1046.88 214.062 Q1046.55 214.671 1046.25 214.882 Q1045.96 215.116 1045.66 215.257 Q1046.15 215.444 1046.81 215.444 Q1047.79 215.444 1048.63 215.046 Q1049.5 214.671 1050.06 214.156 Q1050.65 213.664 1051.23 212.774 Q1051.82 211.908 1052.1 211.345 Q1052.38 210.807 1052.8 209.87 L1053.9 207.574 L1044.93 188.532 L1041.87 188.532 L1041.87 186.283 L1047.35 186.424 L1053.3 186.283 L1053.3 188.532 L1050.7 188.532 L1056.79 201.485 L1062.31 189.68 L1062.55 189.118 Q1062.55 188.86 1061.99 188.719 Q1061.42 188.555 1060.86 188.555 L1060.3 188.532 L1060.3 186.283 L1064.66 186.424 Q1066.72 186.424 1068.45 186.283 L1068.45 188.532 Z" fill="#000000" fill-rule="nonzero" fill-opacity="1" /><path clip-path="url(#clip120)" d="M1445.91 398.692 L2352.76 398.692 L2352.76 47.2441 L1445.91 47.2441  Z" fill="#ffffff" fill-rule="evenodd" fill-opacity="1"/>
<defs>
  <clipPath id="clip123">
    <rect x="1445" y="47" width="908" height="352"/>
  </clipPath>
</defs>
<polyline clip-path="url(#clip123)" style="stroke:#000000; stroke-linecap:round; stroke-linejoin:round; stroke-width:2; stroke-opacity:0.1; fill:none" points="1471.57,398.692 1471.57,47.2441 "/>
<polyline clip-path="url(#clip123)" style="stroke:#000000; stroke-linecap:round; stroke-linejoin:round; stroke-width:2; stroke-opacity:0.1; fill:none" points="1723.2,398.692 1723.2,47.2441 "/>
<polyline clip-path="url(#clip123)" style="stroke:#000000; stroke-linecap:round; stroke-linejoin:round; stroke-width:2; stroke-opacity:0.1; fill:none" points="1974.82,398.692 1974.82,47.2441 "/>
<polyline clip-path="url(#clip123)" style="stroke:#000000; stroke-linecap:round; stroke-linejoin:round; stroke-width:2; stroke-opacity:0.1; fill:none" points="2226.44,398.692 2226.44,47.2441 "/>
<polyline clip-path="url(#clip120)" style="stroke:#000000; stroke-linecap:round; stroke-linejoin:round; stroke-width:4; stroke-opacity:1; fill:none" points="1445.91,398.692 2352.76,398.692 "/>
<polyline clip-path="url(#clip120)" style="stroke:#000000; stroke-linecap:round; stroke-linejoin:round; stroke-width:4; stroke-opacity:1; fill:none" points="1471.57,398.692 1471.57,379.794 "/>
<polyline clip-path="url(#clip120)" style="stroke:#000000; stroke-linecap:round; stroke-linejoin:round; stroke-width:4; stroke-opacity:1; fill:none" points="1723.2,398.692 1723.2,379.794 "/>
<polyline clip-path="url(#clip120)" style="stroke:#000000; stroke-linecap:round; stroke-linejoin:round; stroke-width:4; stroke-opacity:1; fill:none" points="1974.82,398.692 1974.82,379.794 "/>
<polyline clip-path="url(#clip120)" style="stroke:#000000; stroke-linecap:round; stroke-linejoin:round; stroke-width:4; stroke-opacity:1; fill:none" points="2226.44,398.692 2226.44,379.794 "/>
<path clip-path="url(#clip120)" d="M1471.57 429.611 Q1467.96 429.611 1466.13 433.175 Q1464.33 436.717 1464.33 443.847 Q1464.33 450.953 1466.13 454.518 Q1467.96 458.059 1471.57 458.059 Q1475.21 458.059 1477.01 454.518 Q1478.84 450.953 1478.84 443.847 Q1478.84 436.717 1477.01 433.175 Q1475.21 429.611 1471.57 429.611 M1471.57 425.907 Q1477.38 425.907 1480.44 430.513 Q1483.52 435.097 1483.52 443.847 Q1483.52 452.573 1480.44 457.18 Q1477.38 461.763 1471.57 461.763 Q1465.76 461.763 1462.68 457.18 Q1459.63 452.573 1459.63 443.847 Q1459.63 435.097 1462.68 430.513 Q1465.76 425.907 1471.57 425.907 Z" fill="#000000" fill-rule="nonzero" fill-opacity="1" /><path clip-path="url(#clip120)" d="M1713.58 457.157 L1721.22 457.157 L1721.22 430.791 L1712.91 432.458 L1712.91 428.199 L1721.17 426.532 L1725.85 426.532 L1725.85 457.157 L1733.49 457.157 L1733.49 461.092 L1713.58 461.092 L1713.58 457.157 Z" fill="#000000" fill-rule="nonzero" fill-opacity="1" /><path clip-path="url(#clip120)" d="M1969.47 457.157 L1985.79 457.157 L1985.79 461.092 L1963.85 461.092 L1963.85 457.157 Q1966.51 454.402 1971.09 449.772 Q1975.7 445.12 1976.88 443.777 Q1979.12 441.254 1980 439.518 Q1980.91 437.759 1980.91 436.069 Q1980.91 433.314 1978.96 431.578 Q1977.04 429.842 1973.94 429.842 Q1971.74 429.842 1969.29 430.606 Q1966.86 431.37 1964.08 432.921 L1964.08 428.199 Q1966.9 427.064 1969.36 426.486 Q1971.81 425.907 1973.85 425.907 Q1979.22 425.907 1982.41 428.592 Q1985.61 431.277 1985.61 435.768 Q1985.61 437.898 1984.8 439.819 Q1984.01 441.717 1981.9 444.31 Q1981.32 444.981 1978.22 448.198 Q1975.12 451.393 1969.47 457.157 Z" fill="#000000" fill-rule="nonzero" fill-opacity="1" /><path clip-path="url(#clip120)" d="M2230.69 442.458 Q2234.05 443.175 2235.92 445.444 Q2237.82 447.712 2237.82 451.046 Q2237.82 456.161 2234.3 458.962 Q2230.78 461.763 2224.3 461.763 Q2222.12 461.763 2219.81 461.323 Q2217.52 460.907 2215.06 460.05 L2215.06 455.536 Q2217.01 456.671 2219.32 457.249 Q2221.64 457.828 2224.16 457.828 Q2228.56 457.828 2230.85 456.092 Q2233.17 454.356 2233.17 451.046 Q2233.17 447.99 2231.01 446.277 Q2228.88 444.541 2225.06 444.541 L2221.04 444.541 L2221.04 440.698 L2225.25 440.698 Q2228.7 440.698 2230.53 439.333 Q2232.36 437.944 2232.36 435.351 Q2232.36 432.689 2230.46 431.277 Q2228.58 429.842 2225.06 429.842 Q2223.14 429.842 2220.94 430.259 Q2218.74 430.675 2216.11 431.555 L2216.11 427.388 Q2218.77 426.648 2221.08 426.277 Q2223.42 425.907 2225.48 425.907 Q2230.8 425.907 2233.91 428.337 Q2237.01 430.745 2237.01 434.865 Q2237.01 437.736 2235.36 439.726 Q2233.72 441.694 2230.69 442.458 Z" fill="#000000" fill-rule="nonzero" fill-opacity="1" /><polyline clip-path="url(#clip123)" style="stroke:#000000; stroke-linecap:round; stroke-linejoin:round; stroke-width:2; stroke-opacity:0.1; fill:none" points="1445.91,388.745 2352.76,388.745 "/>
<polyline clip-path="url(#clip123)" style="stroke:#000000; stroke-linecap:round; stroke-linejoin:round; stroke-width:2; stroke-opacity:0.1; fill:none" points="1445.91,335.402 2352.76,335.402 "/>
<polyline clip-path="url(#clip123)" style="stroke:#000000; stroke-linecap:round; stroke-linejoin:round; stroke-width:2; stroke-opacity:0.1; fill:none" points="1445.91,282.059 2352.76,282.059 "/>
<polyline clip-path="url(#clip123)" style="stroke:#000000; stroke-linecap:round; stroke-linejoin:round; stroke-width:2; stroke-opacity:0.1; fill:none" points="1445.91,228.716 2352.76,228.716 "/>
<polyline clip-path="url(#clip123)" style="stroke:#000000; stroke-linecap:round; stroke-linejoin:round; stroke-width:2; stroke-opacity:0.1; fill:none" points="1445.91,175.372 2352.76,175.372 "/>
<polyline clip-path="url(#clip123)" style="stroke:#000000; stroke-linecap:round; stroke-linejoin:round; stroke-width:2; stroke-opacity:0.1; fill:none" points="1445.91,122.029 2352.76,122.029 "/>
<polyline clip-path="url(#clip123)" style="stroke:#000000; stroke-linecap:round; stroke-linejoin:round; stroke-width:2; stroke-opacity:0.1; fill:none" points="1445.91,68.686 2352.76,68.686 "/>
<polyline clip-path="url(#clip120)" style="stroke:#000000; stroke-linecap:round; stroke-linejoin:round; stroke-width:4; stroke-opacity:1; fill:none" points="1445.91,398.692 1445.91,47.2441 "/>
<polyline clip-path="url(#clip120)" style="stroke:#000000; stroke-linecap:round; stroke-linejoin:round; stroke-width:4; stroke-opacity:1; fill:none" points="1445.91,388.745 1464.81,388.745 "/>
<polyline clip-path="url(#clip120)" style="stroke:#000000; stroke-linecap:round; stroke-linejoin:round; stroke-width:4; stroke-opacity:1; fill:none" points="1445.91,335.402 1464.81,335.402 "/>
<polyline clip-path="url(#clip120)" style="stroke:#000000; stroke-linecap:round; stroke-linejoin:round; stroke-width:4; stroke-opacity:1; fill:none" points="1445.91,282.059 1464.81,282.059 "/>
<polyline clip-path="url(#clip120)" style="stroke:#000000; stroke-linecap:round; stroke-linejoin:round; stroke-width:4; stroke-opacity:1; fill:none" points="1445.91,228.716 1464.81,228.716 "/>
<polyline clip-path="url(#clip120)" style="stroke:#000000; stroke-linecap:round; stroke-linejoin:round; stroke-width:4; stroke-opacity:1; fill:none" points="1445.91,175.372 1464.81,175.372 "/>
<polyline clip-path="url(#clip120)" style="stroke:#000000; stroke-linecap:round; stroke-linejoin:round; stroke-width:4; stroke-opacity:1; fill:none" points="1445.91,122.029 1464.81,122.029 "/>
<polyline clip-path="url(#clip120)" style="stroke:#000000; stroke-linecap:round; stroke-linejoin:round; stroke-width:4; stroke-opacity:1; fill:none" points="1445.91,68.686 1464.81,68.686 "/>
<path clip-path="url(#clip120)" d="M1352.73 374.544 Q1349.12 374.544 1347.29 378.109 Q1345.49 381.65 1345.49 388.78 Q1345.49 395.886 1347.29 399.451 Q1349.12 402.993 1352.73 402.993 Q1356.37 402.993 1358.17 399.451 Q1360 395.886 1360 388.78 Q1360 381.65 1358.17 378.109 Q1356.37 374.544 1352.73 374.544 M1352.73 370.84 Q1358.54 370.84 1361.6 375.447 Q1364.68 380.03 1364.68 388.78 Q1364.68 397.507 1361.6 402.113 Q1358.54 406.697 1352.73 406.697 Q1346.92 406.697 1343.84 402.113 Q1340.79 397.507 1340.79 388.78 Q1340.79 380.03 1343.84 375.447 Q1346.92 370.84 1352.73 370.84 Z" fill="#000000" fill-rule="nonzero" fill-opacity="1" /><path clip-path="url(#clip120)" d="M1372.89 400.146 L1377.78 400.146 L1377.78 406.025 L1372.89 406.025 L1372.89 400.146 Z" fill="#000000" fill-rule="nonzero" fill-opacity="1" /><path clip-path="url(#clip120)" d="M1397.96 374.544 Q1394.35 374.544 1392.52 378.109 Q1390.72 381.65 1390.72 388.78 Q1390.72 395.886 1392.52 399.451 Q1394.35 402.993 1397.96 402.993 Q1401.6 402.993 1403.4 399.451 Q1405.23 395.886 1405.23 388.78 Q1405.23 381.65 1403.4 378.109 Q1401.6 374.544 1397.96 374.544 M1397.96 370.84 Q1403.77 370.84 1406.83 375.447 Q1409.91 380.03 1409.91 388.78 Q1409.91 397.507 1406.83 402.113 Q1403.77 406.697 1397.96 406.697 Q1392.15 406.697 1389.07 402.113 Q1386.02 397.507 1386.02 388.78 Q1386.02 380.03 1389.07 375.447 Q1392.15 370.84 1397.96 370.84 Z" fill="#000000" fill-rule="nonzero" fill-opacity="1" /><path clip-path="url(#clip120)" d="M1353.96 321.201 Q1350.35 321.201 1348.52 324.766 Q1346.71 328.307 1346.71 335.437 Q1346.71 342.543 1348.52 346.108 Q1350.35 349.65 1353.96 349.65 Q1357.59 349.65 1359.4 346.108 Q1361.23 342.543 1361.23 335.437 Q1361.23 328.307 1359.4 324.766 Q1357.59 321.201 1353.96 321.201 M1353.96 317.497 Q1359.77 317.497 1362.82 322.103 Q1365.9 326.687 1365.9 335.437 Q1365.9 344.164 1362.82 348.77 Q1359.77 353.353 1353.96 353.353 Q1348.15 353.353 1345.07 348.77 Q1342.01 344.164 1342.01 335.437 Q1342.01 326.687 1345.07 322.103 Q1348.15 317.497 1353.96 317.497 Z" fill="#000000" fill-rule="nonzero" fill-opacity="1" /><path clip-path="url(#clip120)" d="M1374.12 346.802 L1379.01 346.802 L1379.01 352.682 L1374.12 352.682 L1374.12 346.802 Z" fill="#000000" fill-rule="nonzero" fill-opacity="1" /><path clip-path="url(#clip120)" d="M1390 348.747 L1397.64 348.747 L1397.64 322.381 L1389.33 324.048 L1389.33 319.789 L1397.59 318.122 L1402.27 318.122 L1402.27 348.747 L1409.91 348.747 L1409.91 352.682 L1390 352.682 L1390 348.747 Z" fill="#000000" fill-rule="nonzero" fill-opacity="1" /><path clip-path="url(#clip120)" d="M1354.33 267.857 Q1350.72 267.857 1348.89 271.422 Q1347.08 274.964 1347.08 282.094 Q1347.08 289.2 1348.89 292.765 Q1350.72 296.306 1354.33 296.306 Q1357.96 296.306 1359.77 292.765 Q1361.6 289.2 1361.6 282.094 Q1361.6 274.964 1359.77 271.422 Q1357.96 267.857 1354.33 267.857 M1354.33 264.154 Q1360.14 264.154 1363.2 268.76 Q1366.27 273.344 1366.27 282.094 Q1366.27 290.82 1363.2 295.427 Q1360.14 300.01 1354.33 300.01 Q1348.52 300.01 1345.44 295.427 Q1342.39 290.82 1342.39 282.094 Q1342.39 273.344 1345.44 268.76 Q1348.52 264.154 1354.33 264.154 Z" fill="#000000" fill-rule="nonzero" fill-opacity="1" /><path clip-path="url(#clip120)" d="M1374.49 293.459 L1379.38 293.459 L1379.38 299.339 L1374.49 299.339 L1374.49 293.459 Z" fill="#000000" fill-rule="nonzero" fill-opacity="1" /><path clip-path="url(#clip120)" d="M1393.59 295.404 L1409.91 295.404 L1409.91 299.339 L1387.96 299.339 L1387.96 295.404 Q1390.63 292.649 1395.21 288.019 Q1399.82 283.367 1401 282.024 Q1403.24 279.501 1404.12 277.765 Q1405.02 276.006 1405.02 274.316 Q1405.02 271.561 1403.08 269.825 Q1401.16 268.089 1398.06 268.089 Q1395.86 268.089 1393.4 268.853 Q1390.97 269.617 1388.19 271.168 L1388.19 266.445 Q1391.02 265.311 1393.47 264.733 Q1395.93 264.154 1397.96 264.154 Q1403.33 264.154 1406.53 266.839 Q1409.72 269.524 1409.72 274.015 Q1409.72 276.144 1408.91 278.066 Q1408.13 279.964 1406.02 282.556 Q1405.44 283.228 1402.34 286.445 Q1399.24 289.64 1393.59 295.404 Z" fill="#000000" fill-rule="nonzero" fill-opacity="1" /><path clip-path="url(#clip120)" d="M1353.38 214.514 Q1349.77 214.514 1347.94 218.079 Q1346.13 221.621 1346.13 228.75 Q1346.13 235.857 1347.94 239.422 Q1349.77 242.963 1353.38 242.963 Q1357.01 242.963 1358.82 239.422 Q1360.65 235.857 1360.65 228.75 Q1360.65 221.621 1358.82 218.079 Q1357.01 214.514 1353.38 214.514 M1353.38 210.811 Q1359.19 210.811 1362.25 215.417 Q1365.32 220 1365.32 228.75 Q1365.32 237.477 1362.25 242.084 Q1359.19 246.667 1353.38 246.667 Q1347.57 246.667 1344.49 242.084 Q1341.44 237.477 1341.44 228.75 Q1341.44 220 1344.49 215.417 Q1347.57 210.811 1353.38 210.811 Z" fill="#000000" fill-rule="nonzero" fill-opacity="1" /><path clip-path="url(#clip120)" d="M1373.54 240.116 L1378.43 240.116 L1378.43 245.996 L1373.54 245.996 L1373.54 240.116 Z" fill="#000000" fill-rule="nonzero" fill-opacity="1" /><path clip-path="url(#clip120)" d="M1402.78 227.361 Q1406.13 228.079 1408.01 230.348 Q1409.91 232.616 1409.91 235.949 Q1409.91 241.065 1406.39 243.866 Q1402.87 246.667 1396.39 246.667 Q1394.21 246.667 1391.9 246.227 Q1389.61 245.81 1387.15 244.954 L1387.15 240.44 Q1389.1 241.574 1391.41 242.153 Q1393.73 242.732 1396.25 242.732 Q1400.65 242.732 1402.94 240.996 Q1405.26 239.26 1405.26 235.949 Q1405.26 232.894 1403.1 231.181 Q1400.97 229.445 1397.15 229.445 L1393.13 229.445 L1393.13 225.602 L1397.34 225.602 Q1400.79 225.602 1402.62 224.236 Q1404.44 222.848 1404.44 220.255 Q1404.44 217.593 1402.55 216.181 Q1400.67 214.746 1397.15 214.746 Q1395.23 214.746 1393.03 215.162 Q1390.83 215.579 1388.19 216.459 L1388.19 212.292 Q1390.86 211.551 1393.17 211.181 Q1395.51 210.811 1397.57 210.811 Q1402.89 210.811 1406 213.241 Q1409.1 215.649 1409.1 219.769 Q1409.1 222.639 1407.45 224.63 Q1405.81 226.598 1402.78 227.361 Z" fill="#000000" fill-rule="nonzero" fill-opacity="1" /><path clip-path="url(#clip120)" d="M1352.25 161.171 Q1348.63 161.171 1346.81 164.736 Q1345 168.278 1345 175.407 Q1345 182.514 1346.81 186.078 Q1348.63 189.62 1352.25 189.62 Q1355.88 189.62 1357.69 186.078 Q1359.51 182.514 1359.51 175.407 Q1359.51 168.278 1357.69 164.736 Q1355.88 161.171 1352.25 161.171 M1352.25 157.467 Q1358.06 157.467 1361.11 162.074 Q1364.19 166.657 1364.19 175.407 Q1364.19 184.134 1361.11 188.74 Q1358.06 193.324 1352.25 193.324 Q1346.44 193.324 1343.36 188.74 Q1340.3 184.134 1340.3 175.407 Q1340.3 166.657 1343.36 162.074 Q1346.44 157.467 1352.25 157.467 Z" fill="#000000" fill-rule="nonzero" fill-opacity="1" /><path clip-path="url(#clip120)" d="M1372.41 186.773 L1377.29 186.773 L1377.29 192.652 L1372.41 192.652 L1372.41 186.773 Z" fill="#000000" fill-rule="nonzero" fill-opacity="1" /><path clip-path="url(#clip120)" d="M1400.32 162.166 L1388.52 180.615 L1400.32 180.615 L1400.32 162.166 M1399.1 158.092 L1404.98 158.092 L1404.98 180.615 L1409.91 180.615 L1409.91 184.504 L1404.98 184.504 L1404.98 192.652 L1400.32 192.652 L1400.32 184.504 L1384.72 184.504 L1384.72 179.99 L1399.1 158.092 Z" fill="#000000" fill-rule="nonzero" fill-opacity="1" /><path clip-path="url(#clip120)" d="M1353.73 107.828 Q1350.12 107.828 1348.29 111.393 Q1346.48 114.934 1346.48 122.064 Q1346.48 129.17 1348.29 132.735 Q1350.12 136.277 1353.73 136.277 Q1357.36 136.277 1359.17 132.735 Q1361 129.17 1361 122.064 Q1361 114.934 1359.17 111.393 Q1357.36 107.828 1353.73 107.828 M1353.73 104.124 Q1359.54 104.124 1362.59 108.731 Q1365.67 113.314 1365.67 122.064 Q1365.67 130.791 1362.59 135.397 Q1359.54 139.98 1353.73 139.98 Q1347.92 139.98 1344.84 135.397 Q1341.78 130.791 1341.78 122.064 Q1341.78 113.314 1344.84 108.731 Q1347.92 104.124 1353.73 104.124 Z" fill="#000000" fill-rule="nonzero" fill-opacity="1" /><path clip-path="url(#clip120)" d="M1373.89 133.43 L1378.77 133.43 L1378.77 139.309 L1373.89 139.309 L1373.89 133.43 Z" fill="#000000" fill-rule="nonzero" fill-opacity="1" /><path clip-path="url(#clip120)" d="M1389.01 104.749 L1407.36 104.749 L1407.36 108.684 L1393.29 108.684 L1393.29 117.157 Q1394.31 116.809 1395.32 116.647 Q1396.34 116.462 1397.36 116.462 Q1403.15 116.462 1406.53 119.633 Q1409.91 122.805 1409.91 128.221 Q1409.91 133.8 1406.44 136.902 Q1402.96 139.98 1396.64 139.98 Q1394.47 139.98 1392.2 139.61 Q1389.95 139.24 1387.55 138.499 L1387.55 133.8 Q1389.63 134.934 1391.85 135.49 Q1394.07 136.045 1396.55 136.045 Q1400.56 136.045 1402.89 133.939 Q1405.23 131.832 1405.23 128.221 Q1405.23 124.61 1402.89 122.504 Q1400.56 120.397 1396.55 120.397 Q1394.68 120.397 1392.8 120.814 Q1390.95 121.231 1389.01 122.11 L1389.01 104.749 Z" fill="#000000" fill-rule="nonzero" fill-opacity="1" /><path clip-path="url(#clip120)" d="M1352.57 54.4846 Q1348.96 54.4846 1347.13 58.0494 Q1345.32 61.5911 1345.32 68.7207 Q1345.32 75.8271 1347.13 79.3919 Q1348.96 82.9336 1352.57 82.9336 Q1356.2 82.9336 1358.01 79.3919 Q1359.84 75.8271 1359.84 68.7207 Q1359.84 61.5911 1358.01 58.0494 Q1356.2 54.4846 1352.57 54.4846 M1352.57 50.781 Q1358.38 50.781 1361.44 55.3874 Q1364.51 59.9707 1364.51 68.7207 Q1364.51 77.4475 1361.44 82.0539 Q1358.38 86.6373 1352.57 86.6373 Q1346.76 86.6373 1343.68 82.0539 Q1340.63 77.4475 1340.63 68.7207 Q1340.63 59.9707 1343.68 55.3874 Q1346.76 50.781 1352.57 50.781 Z" fill="#000000" fill-rule="nonzero" fill-opacity="1" /><path clip-path="url(#clip120)" d="M1372.73 80.0864 L1377.62 80.0864 L1377.62 85.966 L1372.73 85.966 L1372.73 80.0864 Z" fill="#000000" fill-rule="nonzero" fill-opacity="1" /><path clip-path="url(#clip120)" d="M1398.38 66.8225 Q1395.23 66.8225 1393.38 68.9753 Q1391.55 71.1281 1391.55 74.8781 Q1391.55 78.6049 1393.38 80.7808 Q1395.23 82.9336 1398.38 82.9336 Q1401.53 82.9336 1403.36 80.7808 Q1405.21 78.6049 1405.21 74.8781 Q1405.21 71.1281 1403.36 68.9753 Q1401.53 66.8225 1398.38 66.8225 M1407.66 52.1698 L1407.66 56.4291 Q1405.9 55.5958 1404.1 55.1559 Q1402.32 54.7161 1400.56 54.7161 Q1395.93 54.7161 1393.47 57.8411 Q1391.04 60.9661 1390.69 67.2855 Q1392.06 65.2716 1394.12 64.2068 Q1396.18 63.1189 1398.66 63.1189 Q1403.87 63.1189 1406.88 66.2901 Q1409.91 69.4383 1409.91 74.8781 Q1409.91 80.2021 1406.76 83.4197 Q1403.61 86.6373 1398.38 86.6373 Q1392.38 86.6373 1389.21 82.0539 Q1386.04 77.4475 1386.04 68.7207 Q1386.04 60.5263 1389.93 55.6652 Q1393.82 50.781 1400.37 50.781 Q1402.13 50.781 1403.91 51.1282 Q1405.72 51.4754 1407.66 52.1698 Z" fill="#000000" fill-rule="nonzero" fill-opacity="1" /><path clip-path="url(#clip120)" d="M1255.92 220.971 Q1257.73 220.971 1258.76 222.098 Q1259.76 223.225 1259.76 224.513 Q1259.76 225.737 1259.05 226.381 Q1258.34 227.025 1257.44 227.025 Q1256.21 227.025 1255.15 226.123 Q1254.09 225.222 1253.86 223.869 Q1253.02 225.189 1253.02 227.154 Q1253.02 228.442 1253.7 229.569 Q1254.38 230.664 1255.25 231.341 Q1256.12 231.985 1257.37 232.565 Q1258.6 233.112 1259.34 233.338 Q1260.05 233.531 1260.82 233.692 L1269.84 235.946 Q1274.12 237.041 1275.63 237.041 Q1277.5 237.041 1278.76 236.139 Q1279.98 235.238 1279.98 233.434 Q1279.98 232.726 1279.79 231.92 Q1279.56 231.115 1278.98 230.085 Q1278.37 229.022 1277.47 228.088 Q1276.53 227.122 1274.96 226.188 Q1273.38 225.254 1271.35 224.642 Q1270.64 224.449 1270.64 223.805 Q1270.64 222.999 1271.29 222.999 Q1271.83 222.999 1272.99 223.45 Q1274.12 223.869 1275.6 224.803 Q1277.05 225.705 1278.37 226.896 Q1279.66 228.088 1280.56 229.859 Q1281.46 231.631 1281.46 233.563 Q1281.46 236.333 1279.98 238.168 Q1278.5 240.004 1276.44 240.68 Q1276.73 240.842 1277.11 241.067 Q1277.5 241.292 1278.37 241.969 Q1279.21 242.613 1279.85 243.354 Q1280.46 244.094 1280.95 245.254 Q1281.46 246.381 1281.46 247.605 Q1281.46 249.151 1281.01 250.535 Q1280.56 251.888 1279.53 252.854 Q1278.5 253.82 1277.08 253.82 Q1275.5 253.82 1274.41 252.758 Q1273.28 251.663 1273.28 250.181 Q1273.28 249.247 1273.83 248.507 Q1274.38 247.734 1275.57 247.734 Q1276.89 247.734 1277.89 248.635 Q1278.89 249.537 1279.14 250.825 Q1279.98 249.505 1279.98 247.54 Q1279.98 245.415 1278.11 243.74 Q1276.25 242.065 1273.12 241.26 Q1265.62 239.263 1262.27 238.49 Q1258.89 237.718 1257.44 237.718 Q1256.08 237.718 1255.15 238.072 Q1254.22 238.426 1253.8 239.038 Q1253.35 239.618 1253.19 240.165 Q1253.02 240.68 1253.02 241.26 Q1253.02 242.226 1253.41 243.321 Q1253.8 244.384 1254.7 245.672 Q1255.57 246.928 1257.37 248.12 Q1259.18 249.312 1261.66 250.117 Q1262.4 250.278 1262.4 250.986 Q1262.36 251.759 1261.72 251.759 Q1261.17 251.759 1260.05 251.341 Q1258.89 250.89 1257.44 249.988 Q1255.99 249.054 1254.7 247.862 Q1253.38 246.639 1252.48 244.867 Q1251.58 243.064 1251.58 241.131 Q1251.58 240.262 1251.77 239.424 Q1251.93 238.555 1252.41 237.524 Q1252.9 236.462 1253.96 235.528 Q1255.02 234.594 1256.57 234.014 Q1255.83 233.627 1255.12 233.112 Q1254.41 232.565 1253.54 231.727 Q1252.64 230.858 1252.12 229.666 Q1251.58 228.442 1251.58 227.09 Q1251.58 225.769 1251.93 224.481 Q1252.25 223.193 1253.31 222.098 Q1254.35 220.971 1255.92 220.971 Z" fill="#000000" fill-rule="nonzero" fill-opacity="1" /><path clip-path="url(#clip120)" d="M1273.38 214.249 L1271.94 214.249 Q1271.94 208.703 1268.98 205.84 Q1268.98 205.051 1269.16 204.916 Q1269.34 204.781 1270.18 204.781 L1296.08 204.781 Q1297.46 204.781 1297.88 204.104 Q1298.31 203.428 1298.31 200.475 L1298.31 199.009 L1299.73 199.009 Q1299.6 200.633 1299.6 206.494 Q1299.6 212.356 1299.73 213.956 L1298.31 213.956 L1298.31 212.491 Q1298.31 209.583 1297.91 208.884 Q1297.48 208.185 1296.08 208.185 L1272.16 208.185 Q1273.38 210.597 1273.38 214.249 Z" fill="#000000" fill-rule="nonzero" fill-opacity="1" /><polyline clip-path="url(#clip123)" style="stroke:#009af9; stroke-linecap:round; stroke-linejoin:round; stroke-width:4; stroke-opacity:1; fill:none" points="1471.57,388.745 1496.74,388.745 1521.9,333.179 1547.06,249.831 1572.22,166.179 1597.38,102.439 1622.55,67.9627 1647.71,61.9843 1672.87,77.3691 1698.03,104.638 1723.2,134.735 1748.36,160.58 1773.52,177.843 1798.68,185.121 1823.85,183.529 1849.01,175.852 1874.17,165.495 1899.33,155.536 1924.49,148.104 1949.66,144.155 1974.82,143.593 1999.98,145.593 2025.14,148.997 2050.31,152.664 2075.47,155.712 2100.63,157.641 2125.79,158.333 2150.95,157.98 2176.12,156.949 2201.28,155.658 2226.44,154.467 2251.6,153.611 2276.77,153.189 2301.93,153.172 2327.09,153.451 "/>
<polyline clip-path="url(#clip123)" style="stroke:#e26f46; stroke-linecap:round; stroke-linejoin:round; stroke-width:3; stroke-opacity:1; fill:none" stroke-dasharray="12, 6, 2, 6" points="1471.57,388.745 1496.74,384.134 1521.9,329.761 1547.06,253.654 1572.22,155.925 1597.38,106.436 1622.55,70.7589 1647.71,57.1907 1672.87,87.4379 1698.03,125.875 1723.2,135.046 1748.36,183.091 1773.52,184.141 1798.68,188.495 1823.85,190.908 1849.01,166.424 1874.17,162.264 1899.33,161.602 1924.49,138.852 1949.66,148.334 1974.82,149.419 1999.98,144.117 2025.14,147.017 2050.31,133.2 2075.47,155.732 2100.63,160.432 2125.79,169.639 2150.95,145.629 2176.12,159.312 2201.28,151.116 2226.44,154.466 2251.6,141 2276.77,147.259 2301.93,162.356 2327.09,149.269 "/>
<path clip-path="url(#clip120)" d="M2203.01 214.479 L2322.53 214.479 L2322.53 58.959 L2203.01 58.959  Z" fill="#ffffff" fill-rule="evenodd" fill-opacity="1"/>
<polyline clip-path="url(#clip120)" style="stroke:#000000; stroke-linecap:round; stroke-linejoin:round; stroke-width:4; stroke-opacity:1; fill:none" points="2203.01,214.479 2322.53,214.479 2322.53,58.959 2203.01,58.959 2203.01,214.479 "/>
<polyline clip-path="url(#clip120)" style="stroke:#009af9; stroke-linecap:round; stroke-linejoin:round; stroke-width:4; stroke-opacity:1; fill:none" points="2213.09,110.799 2273.55,110.799 "/>
<path clip-path="url(#clip120)" d="M2310.63 121.338 L2305.36 121.198 L2299.6 121.338 L2299.6 119.09 L2301.47 119.09 L2296.2 112.859 L2291.54 118.082 L2291.21 118.551 Q2291.21 118.762 2291.75 118.926 Q2292.31 119.09 2292.97 119.09 L2292.97 121.338 L2288.03 121.198 L2283.62 121.338 L2283.62 119.09 Q2285.1 119.09 2285.78 119.066 Q2286.48 119.019 2287.28 118.808 Q2288.07 118.598 2288.47 118.176 L2294.75 111.126 L2287.28 102.296 L2283.86 102.296 L2283.86 100.047 L2289.15 100.188 L2294.94 100.047 L2294.94 102.296 L2293.01 102.296 L2297.72 107.8 L2301.75 103.303 Q2301.77 103.279 2302.15 102.717 Q2301.4 102.296 2300.32 102.296 L2300.32 100.047 L2305.26 100.188 L2309.67 100.047 L2309.67 102.296 Q2307.75 102.296 2306.74 102.436 Q2305.76 102.553 2305.45 102.717 Q2305.17 102.881 2304.77 103.303 L2299.17 109.533 L2307.23 119.09 L2310.63 119.09 L2310.63 121.338 Z" fill="#000000" fill-rule="nonzero" fill-opacity="1" /><polyline clip-path="url(#clip120)" style="stroke:#e26f46; stroke-linecap:round; stroke-linejoin:round; stroke-width:3; stroke-opacity:1; fill:none" stroke-dasharray="12, 6, 2, 6" points="2213.09,162.639 2273.55,162.639 "/>
<path clip-path="url(#clip120)" d="M2306.21 151.117 L2305.8 151.789 Q2303.26 150.691 2300.09 148.936 Q2296.93 150.691 2294.39 151.789 L2293.99 151.117 Q2296.76 148.707 2300.09 146.854 Q2303.45 148.723 2306.21 151.117 Z" fill="#000000" fill-rule="nonzero" fill-opacity="1" /><path clip-path="url(#clip120)" d="M2310.63 178.183 L2305.36 178.042 L2299.6 178.183 L2299.6 175.934 L2301.47 175.934 L2296.2 169.704 L2291.54 174.927 L2291.21 175.395 Q2291.21 175.606 2291.75 175.77 Q2292.31 175.934 2292.97 175.934 L2292.97 178.183 L2288.03 178.042 L2283.62 178.183 L2283.62 175.934 Q2285.1 175.934 2285.78 175.911 Q2286.48 175.864 2287.28 175.653 Q2288.07 175.442 2288.47 175.021 L2294.75 167.97 L2287.28 159.14 L2283.86 159.14 L2283.86 156.892 L2289.15 157.032 L2294.94 156.892 L2294.94 159.14 L2293.01 159.14 L2297.72 164.644 L2301.75 160.147 Q2301.77 160.124 2302.15 159.562 Q2301.4 159.14 2300.32 159.14 L2300.32 156.892 L2305.26 157.032 L2309.67 156.892 L2309.67 159.14 Q2307.75 159.14 2306.74 159.281 Q2305.76 159.398 2305.45 159.562 Q2305.17 159.726 2304.77 160.147 L2299.17 166.378 L2307.23 175.934 L2310.63 175.934 L2310.63 178.183 Z" fill="#000000" fill-rule="nonzero" fill-opacity="1" /><path clip-path="url(#clip120)" d="M1445.91 910.936 L2352.76 910.936 L2352.76 559.488 L1445.91 559.488  Z" fill="#ffffff" fill-rule="evenodd" fill-opacity="1"/>
<defs>
  <clipPath id="clip124">
    <rect x="1445" y="559" width="908" height="352"/>
  </clipPath>
</defs>
<polyline clip-path="url(#clip124)" style="stroke:#000000; stroke-linecap:round; stroke-linejoin:round; stroke-width:2; stroke-opacity:0.1; fill:none" points="1471.57,910.936 1471.57,559.488 "/>
<polyline clip-path="url(#clip124)" style="stroke:#000000; stroke-linecap:round; stroke-linejoin:round; stroke-width:2; stroke-opacity:0.1; fill:none" points="1723.2,910.936 1723.2,559.488 "/>
<polyline clip-path="url(#clip124)" style="stroke:#000000; stroke-linecap:round; stroke-linejoin:round; stroke-width:2; stroke-opacity:0.1; fill:none" points="1974.82,910.936 1974.82,559.488 "/>
<polyline clip-path="url(#clip124)" style="stroke:#000000; stroke-linecap:round; stroke-linejoin:round; stroke-width:2; stroke-opacity:0.1; fill:none" points="2226.44,910.936 2226.44,559.488 "/>
<polyline clip-path="url(#clip120)" style="stroke:#000000; stroke-linecap:round; stroke-linejoin:round; stroke-width:4; stroke-opacity:1; fill:none" points="1445.91,910.936 2352.76,910.936 "/>
<polyline clip-path="url(#clip120)" style="stroke:#000000; stroke-linecap:round; stroke-linejoin:round; stroke-width:4; stroke-opacity:1; fill:none" points="1471.57,910.936 1471.57,892.038 "/>
<polyline clip-path="url(#clip120)" style="stroke:#000000; stroke-linecap:round; stroke-linejoin:round; stroke-width:4; stroke-opacity:1; fill:none" points="1723.2,910.936 1723.2,892.038 "/>
<polyline clip-path="url(#clip120)" style="stroke:#000000; stroke-linecap:round; stroke-linejoin:round; stroke-width:4; stroke-opacity:1; fill:none" points="1974.82,910.936 1974.82,892.038 "/>
<polyline clip-path="url(#clip120)" style="stroke:#000000; stroke-linecap:round; stroke-linejoin:round; stroke-width:4; stroke-opacity:1; fill:none" points="2226.44,910.936 2226.44,892.038 "/>
<path clip-path="url(#clip120)" d="M1471.57 941.855 Q1467.96 941.855 1466.13 945.419 Q1464.33 948.961 1464.33 956.091 Q1464.33 963.197 1466.13 966.762 Q1467.96 970.303 1471.57 970.303 Q1475.21 970.303 1477.01 966.762 Q1478.84 963.197 1478.84 956.091 Q1478.84 948.961 1477.01 945.419 Q1475.21 941.855 1471.57 941.855 M1471.57 938.151 Q1477.38 938.151 1480.44 942.757 Q1483.52 947.341 1483.52 956.091 Q1483.52 964.817 1480.44 969.424 Q1477.38 974.007 1471.57 974.007 Q1465.76 974.007 1462.68 969.424 Q1459.63 964.817 1459.63 956.091 Q1459.63 947.341 1462.68 942.757 Q1465.76 938.151 1471.57 938.151 Z" fill="#000000" fill-rule="nonzero" fill-opacity="1" /><path clip-path="url(#clip120)" d="M1713.58 969.401 L1721.22 969.401 L1721.22 943.035 L1712.91 944.702 L1712.91 940.443 L1721.17 938.776 L1725.85 938.776 L1725.85 969.401 L1733.49 969.401 L1733.49 973.336 L1713.58 973.336 L1713.58 969.401 Z" fill="#000000" fill-rule="nonzero" fill-opacity="1" /><path clip-path="url(#clip120)" d="M1969.47 969.401 L1985.79 969.401 L1985.79 973.336 L1963.85 973.336 L1963.85 969.401 Q1966.51 966.646 1971.09 962.016 Q1975.7 957.364 1976.88 956.021 Q1979.12 953.498 1980 951.762 Q1980.91 950.003 1980.91 948.313 Q1980.91 945.558 1978.96 943.822 Q1977.04 942.086 1973.94 942.086 Q1971.74 942.086 1969.29 942.85 Q1966.86 943.614 1964.08 945.165 L1964.08 940.443 Q1966.9 939.308 1969.36 938.73 Q1971.81 938.151 1973.85 938.151 Q1979.22 938.151 1982.41 940.836 Q1985.61 943.521 1985.61 948.012 Q1985.61 950.142 1984.8 952.063 Q1984.01 953.961 1981.9 956.554 Q1981.32 957.225 1978.22 960.442 Q1975.12 963.637 1969.47 969.401 Z" fill="#000000" fill-rule="nonzero" fill-opacity="1" /><path clip-path="url(#clip120)" d="M2230.69 954.702 Q2234.05 955.419 2235.92 957.688 Q2237.82 959.956 2237.82 963.29 Q2237.82 968.405 2234.3 971.206 Q2230.78 974.007 2224.3 974.007 Q2222.12 974.007 2219.81 973.567 Q2217.52 973.151 2215.06 972.294 L2215.06 967.78 Q2217.01 968.915 2219.32 969.493 Q2221.64 970.072 2224.16 970.072 Q2228.56 970.072 2230.85 968.336 Q2233.17 966.6 2233.17 963.29 Q2233.17 960.234 2231.01 958.521 Q2228.88 956.785 2225.06 956.785 L2221.04 956.785 L2221.04 952.942 L2225.25 952.942 Q2228.7 952.942 2230.53 951.577 Q2232.36 950.188 2232.36 947.595 Q2232.36 944.933 2230.46 943.521 Q2228.58 942.086 2225.06 942.086 Q2223.14 942.086 2220.94 942.503 Q2218.74 942.919 2216.11 943.799 L2216.11 939.632 Q2218.77 938.892 2221.08 938.521 Q2223.42 938.151 2225.48 938.151 Q2230.8 938.151 2233.91 940.581 Q2237.01 942.989 2237.01 947.109 Q2237.01 949.979 2235.36 951.97 Q2233.72 953.938 2230.69 954.702 Z" fill="#000000" fill-rule="nonzero" fill-opacity="1" /><polyline clip-path="url(#clip124)" style="stroke:#000000; stroke-linecap:round; stroke-linejoin:round; stroke-width:2; stroke-opacity:0.1; fill:none" points="1445.91,857.228 2352.76,857.228 "/>
<polyline clip-path="url(#clip124)" style="stroke:#000000; stroke-linecap:round; stroke-linejoin:round; stroke-width:2; stroke-opacity:0.1; fill:none" points="1445.91,789.815 2352.76,789.815 "/>
<polyline clip-path="url(#clip124)" style="stroke:#000000; stroke-linecap:round; stroke-linejoin:round; stroke-width:2; stroke-opacity:0.1; fill:none" points="1445.91,722.401 2352.76,722.401 "/>
<polyline clip-path="url(#clip124)" style="stroke:#000000; stroke-linecap:round; stroke-linejoin:round; stroke-width:2; stroke-opacity:0.1; fill:none" points="1445.91,654.987 2352.76,654.987 "/>
<polyline clip-path="url(#clip124)" style="stroke:#000000; stroke-linecap:round; stroke-linejoin:round; stroke-width:2; stroke-opacity:0.1; fill:none" points="1445.91,587.574 2352.76,587.574 "/>
<polyline clip-path="url(#clip120)" style="stroke:#000000; stroke-linecap:round; stroke-linejoin:round; stroke-width:4; stroke-opacity:1; fill:none" points="1445.91,910.936 1445.91,559.488 "/>
<polyline clip-path="url(#clip120)" style="stroke:#000000; stroke-linecap:round; stroke-linejoin:round; stroke-width:4; stroke-opacity:1; fill:none" points="1445.91,857.228 1464.81,857.228 "/>
<polyline clip-path="url(#clip120)" style="stroke:#000000; stroke-linecap:round; stroke-linejoin:round; stroke-width:4; stroke-opacity:1; fill:none" points="1445.91,789.815 1464.81,789.815 "/>
<polyline clip-path="url(#clip120)" style="stroke:#000000; stroke-linecap:round; stroke-linejoin:round; stroke-width:4; stroke-opacity:1; fill:none" points="1445.91,722.401 1464.81,722.401 "/>
<polyline clip-path="url(#clip120)" style="stroke:#000000; stroke-linecap:round; stroke-linejoin:round; stroke-width:4; stroke-opacity:1; fill:none" points="1445.91,654.987 1464.81,654.987 "/>
<polyline clip-path="url(#clip120)" style="stroke:#000000; stroke-linecap:round; stroke-linejoin:round; stroke-width:4; stroke-opacity:1; fill:none" points="1445.91,587.574 1464.81,587.574 "/>
<path clip-path="url(#clip120)" d="M1303.96 857.679 L1333.64 857.679 L1333.64 861.615 L1303.96 861.615 L1303.96 857.679 Z" fill="#000000" fill-rule="nonzero" fill-opacity="1" /><path clip-path="url(#clip120)" d="M1353.73 843.027 Q1350.12 843.027 1348.29 846.592 Q1346.48 850.133 1346.48 857.263 Q1346.48 864.369 1348.29 867.934 Q1350.12 871.476 1353.73 871.476 Q1357.36 871.476 1359.17 867.934 Q1361 864.369 1361 857.263 Q1361 850.133 1359.17 846.592 Q1357.36 843.027 1353.73 843.027 M1353.73 839.323 Q1359.54 839.323 1362.59 843.93 Q1365.67 848.513 1365.67 857.263 Q1365.67 865.99 1362.59 870.596 Q1359.54 875.179 1353.73 875.179 Q1347.92 875.179 1344.84 870.596 Q1341.78 865.99 1341.78 857.263 Q1341.78 848.513 1344.84 843.93 Q1347.92 839.323 1353.73 839.323 Z" fill="#000000" fill-rule="nonzero" fill-opacity="1" /><path clip-path="url(#clip120)" d="M1373.89 868.628 L1378.77 868.628 L1378.77 874.508 L1373.89 874.508 L1373.89 868.628 Z" fill="#000000" fill-rule="nonzero" fill-opacity="1" /><path clip-path="url(#clip120)" d="M1389.01 839.948 L1407.36 839.948 L1407.36 843.883 L1393.29 843.883 L1393.29 852.355 Q1394.31 852.008 1395.32 851.846 Q1396.34 851.661 1397.36 851.661 Q1403.15 851.661 1406.53 854.832 Q1409.91 858.004 1409.91 863.42 Q1409.91 868.999 1406.44 872.101 Q1402.96 875.179 1396.64 875.179 Q1394.47 875.179 1392.2 874.809 Q1389.95 874.439 1387.55 873.698 L1387.55 868.999 Q1389.63 870.133 1391.85 870.689 Q1394.07 871.244 1396.55 871.244 Q1400.56 871.244 1402.89 869.138 Q1405.23 867.031 1405.23 863.42 Q1405.23 859.809 1402.89 857.703 Q1400.56 855.596 1396.55 855.596 Q1394.68 855.596 1392.8 856.013 Q1390.95 856.429 1389.01 857.309 L1389.01 839.948 Z" fill="#000000" fill-rule="nonzero" fill-opacity="1" /><path clip-path="url(#clip120)" d="M1352.73 775.613 Q1349.12 775.613 1347.29 779.178 Q1345.49 782.72 1345.49 789.849 Q1345.49 796.956 1347.29 800.52 Q1349.12 804.062 1352.73 804.062 Q1356.37 804.062 1358.17 800.52 Q1360 796.956 1360 789.849 Q1360 782.72 1358.17 779.178 Q1356.37 775.613 1352.73 775.613 M1352.73 771.91 Q1358.54 771.91 1361.6 776.516 Q1364.68 781.099 1364.68 789.849 Q1364.68 798.576 1361.6 803.182 Q1358.54 807.766 1352.73 807.766 Q1346.92 807.766 1343.84 803.182 Q1340.79 798.576 1340.79 789.849 Q1340.79 781.099 1343.84 776.516 Q1346.92 771.91 1352.73 771.91 Z" fill="#000000" fill-rule="nonzero" fill-opacity="1" /><path clip-path="url(#clip120)" d="M1372.89 801.215 L1377.78 801.215 L1377.78 807.095 L1372.89 807.095 L1372.89 801.215 Z" fill="#000000" fill-rule="nonzero" fill-opacity="1" /><path clip-path="url(#clip120)" d="M1397.96 775.613 Q1394.35 775.613 1392.52 779.178 Q1390.72 782.72 1390.72 789.849 Q1390.72 796.956 1392.52 800.52 Q1394.35 804.062 1397.96 804.062 Q1401.6 804.062 1403.4 800.52 Q1405.23 796.956 1405.23 789.849 Q1405.23 782.72 1403.4 779.178 Q1401.6 775.613 1397.96 775.613 M1397.96 771.91 Q1403.77 771.91 1406.83 776.516 Q1409.91 781.099 1409.91 789.849 Q1409.91 798.576 1406.83 803.182 Q1403.77 807.766 1397.96 807.766 Q1392.15 807.766 1389.07 803.182 Q1386.02 798.576 1386.02 789.849 Q1386.02 781.099 1389.07 776.516 Q1392.15 771.91 1397.96 771.91 Z" fill="#000000" fill-rule="nonzero" fill-opacity="1" /><path clip-path="url(#clip120)" d="M1353.73 708.2 Q1350.12 708.2 1348.29 711.764 Q1346.48 715.306 1346.48 722.436 Q1346.48 729.542 1348.29 733.107 Q1350.12 736.649 1353.73 736.649 Q1357.36 736.649 1359.17 733.107 Q1361 729.542 1361 722.436 Q1361 715.306 1359.17 711.764 Q1357.36 708.2 1353.73 708.2 M1353.73 704.496 Q1359.54 704.496 1362.59 709.102 Q1365.67 713.686 1365.67 722.436 Q1365.67 731.163 1362.59 735.769 Q1359.54 740.352 1353.73 740.352 Q1347.92 740.352 1344.84 735.769 Q1341.78 731.163 1341.78 722.436 Q1341.78 713.686 1344.84 709.102 Q1347.92 704.496 1353.73 704.496 Z" fill="#000000" fill-rule="nonzero" fill-opacity="1" /><path clip-path="url(#clip120)" d="M1373.89 733.801 L1378.77 733.801 L1378.77 739.681 L1373.89 739.681 L1373.89 733.801 Z" fill="#000000" fill-rule="nonzero" fill-opacity="1" /><path clip-path="url(#clip120)" d="M1389.01 705.121 L1407.36 705.121 L1407.36 709.056 L1393.29 709.056 L1393.29 717.528 Q1394.31 717.181 1395.32 717.019 Q1396.34 716.834 1397.36 716.834 Q1403.15 716.834 1406.53 720.005 Q1409.91 723.176 1409.91 728.593 Q1409.91 734.172 1406.44 737.274 Q1402.96 740.352 1396.64 740.352 Q1394.47 740.352 1392.2 739.982 Q1389.95 739.612 1387.55 738.871 L1387.55 734.172 Q1389.63 735.306 1391.85 735.862 Q1394.07 736.417 1396.55 736.417 Q1400.56 736.417 1402.89 734.311 Q1405.23 732.204 1405.23 728.593 Q1405.23 724.982 1402.89 722.876 Q1400.56 720.769 1396.55 720.769 Q1394.68 720.769 1392.8 721.186 Q1390.95 721.602 1389.01 722.482 L1389.01 705.121 Z" fill="#000000" fill-rule="nonzero" fill-opacity="1" /><path clip-path="url(#clip120)" d="M1343.54 668.332 L1351.18 668.332 L1351.18 641.967 L1342.87 643.633 L1342.87 639.374 L1351.13 637.707 L1355.81 637.707 L1355.81 668.332 L1363.45 668.332 L1363.45 672.267 L1343.54 672.267 L1343.54 668.332 Z" fill="#000000" fill-rule="nonzero" fill-opacity="1" /><path clip-path="url(#clip120)" d="M1372.89 666.388 L1377.78 666.388 L1377.78 672.267 L1372.89 672.267 L1372.89 666.388 Z" fill="#000000" fill-rule="nonzero" fill-opacity="1" /><path clip-path="url(#clip120)" d="M1397.96 640.786 Q1394.35 640.786 1392.52 644.351 Q1390.72 647.893 1390.72 655.022 Q1390.72 662.129 1392.52 665.693 Q1394.35 669.235 1397.96 669.235 Q1401.6 669.235 1403.4 665.693 Q1405.23 662.129 1405.23 655.022 Q1405.23 647.893 1403.4 644.351 Q1401.6 640.786 1397.96 640.786 M1397.96 637.082 Q1403.77 637.082 1406.83 641.689 Q1409.91 646.272 1409.91 655.022 Q1409.91 663.749 1406.83 668.355 Q1403.77 672.939 1397.96 672.939 Q1392.15 672.939 1389.07 668.355 Q1386.02 663.749 1386.02 655.022 Q1386.02 646.272 1389.07 641.689 Q1392.15 637.082 1397.96 637.082 Z" fill="#000000" fill-rule="nonzero" fill-opacity="1" /><path clip-path="url(#clip120)" d="M1344.54 600.919 L1352.18 600.919 L1352.18 574.553 L1343.87 576.22 L1343.87 571.961 L1352.13 570.294 L1356.81 570.294 L1356.81 600.919 L1364.45 600.919 L1364.45 604.854 L1344.54 604.854 L1344.54 600.919 Z" fill="#000000" fill-rule="nonzero" fill-opacity="1" /><path clip-path="url(#clip120)" d="M1373.89 598.974 L1378.77 598.974 L1378.77 604.854 L1373.89 604.854 L1373.89 598.974 Z" fill="#000000" fill-rule="nonzero" fill-opacity="1" /><path clip-path="url(#clip120)" d="M1389.01 570.294 L1407.36 570.294 L1407.36 574.229 L1393.29 574.229 L1393.29 582.701 Q1394.31 582.354 1395.32 582.192 Q1396.34 582.007 1397.36 582.007 Q1403.15 582.007 1406.53 585.178 Q1409.91 588.349 1409.91 593.766 Q1409.91 599.345 1406.44 602.447 Q1402.96 605.525 1396.64 605.525 Q1394.47 605.525 1392.2 605.155 Q1389.95 604.784 1387.55 604.044 L1387.55 599.345 Q1389.63 600.479 1391.85 601.034 Q1394.07 601.59 1396.55 601.59 Q1400.56 601.59 1402.89 599.484 Q1405.23 597.377 1405.23 593.766 Q1405.23 590.155 1402.89 588.048 Q1400.56 585.942 1396.55 585.942 Q1394.68 585.942 1392.8 586.359 Q1390.95 586.775 1389.01 587.655 L1389.01 570.294 Z" fill="#000000" fill-rule="nonzero" fill-opacity="1" /><path clip-path="url(#clip120)" d="M1219.58 734.795 Q1221.38 734.795 1222.41 735.922 Q1223.41 737.049 1223.41 738.338 Q1223.41 739.561 1222.7 740.206 Q1222 740.85 1221.09 740.85 Q1219.87 740.85 1218.81 739.948 Q1217.75 739.046 1217.52 737.693 Q1216.68 739.014 1216.68 740.978 Q1216.68 742.267 1217.36 743.394 Q1218.03 744.489 1218.9 745.165 Q1219.77 745.809 1221.03 746.389 Q1222.25 746.937 1222.99 747.162 Q1223.7 747.355 1224.48 747.516 L1233.49 749.771 Q1237.78 750.866 1239.29 750.866 Q1241.16 750.866 1242.41 749.964 Q1243.64 749.062 1243.64 747.259 Q1243.64 746.55 1243.45 745.745 Q1243.22 744.94 1242.64 743.909 Q1242.03 742.846 1241.13 741.912 Q1240.19 740.946 1238.61 740.012 Q1237.04 739.078 1235.01 738.466 Q1234.3 738.273 1234.3 737.629 Q1234.3 736.824 1234.94 736.824 Q1235.49 736.824 1236.65 737.275 Q1237.78 737.693 1239.26 738.627 Q1240.71 739.529 1242.03 740.721 Q1243.32 741.912 1244.22 743.684 Q1245.12 745.455 1245.12 747.387 Q1245.12 750.157 1243.64 751.993 Q1242.16 753.829 1240.1 754.505 Q1240.39 754.666 1240.77 754.891 Q1241.16 755.117 1242.03 755.793 Q1242.87 756.437 1243.51 757.178 Q1244.12 757.919 1244.6 759.078 Q1245.12 760.205 1245.12 761.429 Q1245.12 762.975 1244.67 764.36 Q1244.22 765.713 1243.19 766.679 Q1242.16 767.645 1240.74 767.645 Q1239.16 767.645 1238.07 766.582 Q1236.94 765.487 1236.94 764.006 Q1236.94 763.072 1237.49 762.331 Q1238.03 761.558 1239.23 761.558 Q1240.55 761.558 1241.55 762.46 Q1242.54 763.362 1242.8 764.65 Q1243.64 763.329 1243.64 761.365 Q1243.64 759.239 1241.77 757.565 Q1239.9 755.89 1236.78 755.085 Q1229.27 753.088 1225.93 752.315 Q1222.54 751.542 1221.09 751.542 Q1219.74 751.542 1218.81 751.896 Q1217.87 752.251 1217.46 752.862 Q1217 753.442 1216.84 753.99 Q1216.68 754.505 1216.68 755.085 Q1216.68 756.051 1217.07 757.146 Q1217.46 758.209 1218.36 759.497 Q1219.23 760.753 1221.03 761.944 Q1222.83 763.136 1225.31 763.941 Q1226.05 764.102 1226.05 764.811 Q1226.02 765.584 1225.38 765.584 Q1224.83 765.584 1223.7 765.165 Q1222.54 764.714 1221.09 763.812 Q1219.65 762.878 1218.36 761.687 Q1217.04 760.463 1216.13 758.692 Q1215.23 756.888 1215.23 754.956 Q1215.23 754.086 1215.43 753.249 Q1215.59 752.379 1216.07 751.349 Q1216.55 750.286 1217.62 749.352 Q1218.68 748.418 1220.22 747.838 Q1219.48 747.452 1218.78 746.937 Q1218.07 746.389 1217.2 745.552 Q1216.3 744.682 1215.78 743.491 Q1215.23 742.267 1215.23 740.914 Q1215.23 739.594 1215.59 738.305 Q1215.91 737.017 1216.97 735.922 Q1218 734.795 1219.58 734.795 Z" fill="#000000" fill-rule="nonzero" fill-opacity="1" /><path clip-path="url(#clip120)" d="M1263.39 728.074 Q1262.56 728.074 1262.31 728.006 Q1262.06 727.916 1261.68 727.555 L1251.8 718.695 Q1246.35 713.848 1241.59 713.848 Q1238.5 713.848 1236.29 715.472 Q1234.08 717.072 1234.08 720.025 Q1234.08 722.054 1235.32 723.768 Q1236.56 725.481 1238.77 726.27 Q1238.73 726.135 1238.73 725.661 Q1238.73 724.512 1239.45 723.88 Q1240.17 723.227 1241.14 723.227 Q1242.38 723.227 1242.99 724.038 Q1243.57 724.827 1243.57 725.616 Q1243.57 725.932 1243.51 726.36 Q1243.44 726.766 1242.81 727.42 Q1242.15 728.074 1241 728.074 Q1237.78 728.074 1235.21 725.639 Q1232.64 723.182 1232.64 719.439 Q1232.64 715.201 1235.17 712.428 Q1237.67 709.633 1241.59 709.633 Q1242.97 709.633 1244.23 710.061 Q1245.47 710.467 1246.44 711.03 Q1247.41 711.571 1248.96 713.059 Q1250.52 714.547 1251.62 715.742 Q1252.73 716.937 1255.07 719.62 L1259.83 724.512 L1259.83 716.193 Q1259.83 712.135 1259.47 711.819 Q1258.81 711.369 1255.36 710.805 L1255.36 709.633 L1263.39 710.94 L1263.39 728.074 Z" fill="#000000" fill-rule="nonzero" fill-opacity="1" /><polyline clip-path="url(#clip124)" style="stroke:#009af9; stroke-linecap:round; stroke-linejoin:round; stroke-width:4; stroke-opacity:1; fill:none" points="1471.57,789.815 1496.74,649.37 1521.9,579.147 1547.06,578.383 1572.22,628.707 1597.38,702.675 1622.55,774.704 1647.71,828.7 1672.87,858.739 1698.03,865.886 1723.2,855.137 1748.36,833.448 1773.52,808.208 1798.68,785.791 1823.85,770.412 1849.01,763.636 1874.17,764.642 1899.33,771.03 1924.49,779.835 1949.66,788.393 1974.82,794.869 1999.98,798.419 2025.14,799.083 2050.31,797.519 2075.47,794.689 2100.63,791.565 2125.79,788.921 2150.95,787.209 2176.12,786.552 2201.28,786.803 2226.44,787.653 2251.6,788.746 2276.77,789.772 2301.93,790.521 2327.09,790.906 "/>
<polyline clip-path="url(#clip124)" style="stroke:#e26f46; stroke-linecap:round; stroke-linejoin:round; stroke-width:3; stroke-opacity:1; fill:none" stroke-dasharray="12, 6, 2, 6" points="1471.57,789.815 1496.74,652.225 1521.9,569.646 1547.06,569.435 1572.22,599.17 1597.38,695.692 1622.55,775.15 1647.71,837.63 1672.87,887.857 1698.03,900.989 1723.2,875.922 1748.36,863.177 1773.52,818.565 1798.68,790.233 1823.85,771.742 1849.01,753.639 1874.17,760.768 1899.33,770.451 1924.49,771.182 1949.66,790.669 1974.82,796.436 1999.98,796.628 2025.14,800.185 2050.31,794.72 2075.47,806.946 2100.63,799.941 2125.79,794.895 2150.95,777.917 2176.12,788.541 2201.28,783.795 2226.44,787.812 2251.6,783.872 2276.77,792.531 2301.93,798.4 2327.09,787.336 "/>
<path clip-path="url(#clip120)" d="M2203.01 726.723 L2322.53 726.723 L2322.53 571.203 L2203.01 571.203  Z" fill="#ffffff" fill-rule="evenodd" fill-opacity="1"/>
<polyline clip-path="url(#clip120)" style="stroke:#000000; stroke-linecap:round; stroke-linejoin:round; stroke-width:4; stroke-opacity:1; fill:none" points="2203.01,726.723 2322.53,726.723 2322.53,571.203 2203.01,571.203 2203.01,726.723 "/>
<polyline clip-path="url(#clip120)" style="stroke:#009af9; stroke-linecap:round; stroke-linejoin:round; stroke-width:4; stroke-opacity:1; fill:none" points="2213.09,623.043 2273.55,623.043 "/>
<path clip-path="url(#clip120)" d="M2310.63 633.582 L2305.36 633.442 L2299.6 633.582 L2299.6 631.334 L2301.47 631.334 L2296.2 625.103 L2291.54 630.326 L2291.21 630.795 Q2291.21 631.006 2291.75 631.17 Q2292.31 631.334 2292.97 631.334 L2292.97 633.582 L2288.03 633.442 L2283.62 633.582 L2283.62 631.334 Q2285.1 631.334 2285.78 631.31 Q2286.48 631.263 2287.28 631.052 Q2288.07 630.842 2288.47 630.42 L2294.75 623.37 L2287.28 614.54 L2283.86 614.54 L2283.86 612.291 L2289.15 612.432 L2294.94 612.291 L2294.94 614.54 L2293.01 614.54 L2297.72 620.044 L2301.75 615.547 Q2301.77 615.523 2302.15 614.961 Q2301.4 614.54 2300.32 614.54 L2300.32 612.291 L2305.26 612.432 L2309.67 612.291 L2309.67 614.54 Q2307.75 614.54 2306.74 614.68 Q2305.76 614.797 2305.45 614.961 Q2305.17 615.125 2304.77 615.547 L2299.17 621.777 L2307.23 631.334 L2310.63 631.334 L2310.63 633.582 Z" fill="#000000" fill-rule="nonzero" fill-opacity="1" /><polyline clip-path="url(#clip120)" style="stroke:#e26f46; stroke-linecap:round; stroke-linejoin:round; stroke-width:3; stroke-opacity:1; fill:none" stroke-dasharray="12, 6, 2, 6" points="2213.09,674.883 2273.55,674.883 "/>
<path clip-path="url(#clip120)" d="M2306.21 663.361 L2305.8 664.033 Q2303.26 662.935 2300.09 661.18 Q2296.93 662.935 2294.39 664.033 L2293.99 663.361 Q2296.76 660.951 2300.09 659.098 Q2303.45 660.967 2306.21 663.361 Z" fill="#000000" fill-rule="nonzero" fill-opacity="1" /><path clip-path="url(#clip120)" d="M2310.63 690.427 L2305.36 690.286 L2299.6 690.427 L2299.6 688.178 L2301.47 688.178 L2296.2 681.948 L2291.54 687.171 L2291.21 687.639 Q2291.21 687.85 2291.75 688.014 Q2292.31 688.178 2292.97 688.178 L2292.97 690.427 L2288.03 690.286 L2283.62 690.427 L2283.62 688.178 Q2285.1 688.178 2285.78 688.155 Q2286.48 688.108 2287.28 687.897 Q2288.07 687.686 2288.47 687.265 L2294.75 680.214 L2287.28 671.384 L2283.86 671.384 L2283.86 669.136 L2289.15 669.276 L2294.94 669.136 L2294.94 671.384 L2293.01 671.384 L2297.72 676.888 L2301.75 672.391 Q2301.77 672.368 2302.15 671.806 Q2301.4 671.384 2300.32 671.384 L2300.32 669.136 L2305.26 669.276 L2309.67 669.136 L2309.67 671.384 Q2307.75 671.384 2306.74 671.525 Q2305.76 671.642 2305.45 671.806 Q2305.17 671.97 2304.77 672.391 L2299.17 678.622 L2307.23 688.178 L2310.63 688.178 L2310.63 690.427 Z" fill="#000000" fill-rule="nonzero" fill-opacity="1" /><path clip-path="url(#clip120)" d="M1445.91 1423.18 L2352.76 1423.18 L2352.76 1071.73 L1445.91 1071.73  Z" fill="#ffffff" fill-rule="evenodd" fill-opacity="1"/>
<defs>
  <clipPath id="clip125">
    <rect x="1445" y="1071" width="908" height="352"/>
  </clipPath>
</defs>
<polyline clip-path="url(#clip125)" style="stroke:#000000; stroke-linecap:round; stroke-linejoin:round; stroke-width:2; stroke-opacity:0.1; fill:none" points="1471.57,1423.18 1471.57,1071.73 "/>
<polyline clip-path="url(#clip125)" style="stroke:#000000; stroke-linecap:round; stroke-linejoin:round; stroke-width:2; stroke-opacity:0.1; fill:none" points="1723.2,1423.18 1723.2,1071.73 "/>
<polyline clip-path="url(#clip125)" style="stroke:#000000; stroke-linecap:round; stroke-linejoin:round; stroke-width:2; stroke-opacity:0.1; fill:none" points="1974.82,1423.18 1974.82,1071.73 "/>
<polyline clip-path="url(#clip125)" style="stroke:#000000; stroke-linecap:round; stroke-linejoin:round; stroke-width:2; stroke-opacity:0.1; fill:none" points="2226.44,1423.18 2226.44,1071.73 "/>
<polyline clip-path="url(#clip120)" style="stroke:#000000; stroke-linecap:round; stroke-linejoin:round; stroke-width:4; stroke-opacity:1; fill:none" points="1445.91,1423.18 2352.76,1423.18 "/>
<polyline clip-path="url(#clip120)" style="stroke:#000000; stroke-linecap:round; stroke-linejoin:round; stroke-width:4; stroke-opacity:1; fill:none" points="1471.57,1423.18 1471.57,1404.28 "/>
<polyline clip-path="url(#clip120)" style="stroke:#000000; stroke-linecap:round; stroke-linejoin:round; stroke-width:4; stroke-opacity:1; fill:none" points="1723.2,1423.18 1723.2,1404.28 "/>
<polyline clip-path="url(#clip120)" style="stroke:#000000; stroke-linecap:round; stroke-linejoin:round; stroke-width:4; stroke-opacity:1; fill:none" points="1974.82,1423.18 1974.82,1404.28 "/>
<polyline clip-path="url(#clip120)" style="stroke:#000000; stroke-linecap:round; stroke-linejoin:round; stroke-width:4; stroke-opacity:1; fill:none" points="2226.44,1423.18 2226.44,1404.28 "/>
<path clip-path="url(#clip120)" d="M1471.57 1454.1 Q1467.96 1454.1 1466.13 1457.66 Q1464.33 1461.2 1464.33 1468.33 Q1464.33 1475.44 1466.13 1479.01 Q1467.96 1482.55 1471.57 1482.55 Q1475.21 1482.55 1477.01 1479.01 Q1478.84 1475.44 1478.84 1468.33 Q1478.84 1461.2 1477.01 1457.66 Q1475.21 1454.1 1471.57 1454.1 M1471.57 1450.39 Q1477.38 1450.39 1480.44 1455 Q1483.52 1459.58 1483.52 1468.33 Q1483.52 1477.06 1480.44 1481.67 Q1477.38 1486.25 1471.57 1486.25 Q1465.76 1486.25 1462.68 1481.67 Q1459.63 1477.06 1459.63 1468.33 Q1459.63 1459.58 1462.68 1455 Q1465.76 1450.39 1471.57 1450.39 Z" fill="#000000" fill-rule="nonzero" fill-opacity="1" /><path clip-path="url(#clip120)" d="M1713.58 1481.64 L1721.22 1481.64 L1721.22 1455.28 L1712.91 1456.95 L1712.91 1452.69 L1721.17 1451.02 L1725.85 1451.02 L1725.85 1481.64 L1733.49 1481.64 L1733.49 1485.58 L1713.58 1485.58 L1713.58 1481.64 Z" fill="#000000" fill-rule="nonzero" fill-opacity="1" /><path clip-path="url(#clip120)" d="M1969.47 1481.64 L1985.79 1481.64 L1985.79 1485.58 L1963.85 1485.58 L1963.85 1481.64 Q1966.51 1478.89 1971.09 1474.26 Q1975.7 1469.61 1976.88 1468.27 Q1979.12 1465.74 1980 1464.01 Q1980.91 1462.25 1980.91 1460.56 Q1980.91 1457.8 1978.96 1456.07 Q1977.04 1454.33 1973.94 1454.33 Q1971.74 1454.33 1969.29 1455.09 Q1966.86 1455.86 1964.08 1457.41 L1964.08 1452.69 Q1966.9 1451.55 1969.36 1450.97 Q1971.81 1450.39 1973.85 1450.39 Q1979.22 1450.39 1982.41 1453.08 Q1985.61 1455.77 1985.61 1460.26 Q1985.61 1462.39 1984.8 1464.31 Q1984.01 1466.2 1981.9 1468.8 Q1981.32 1469.47 1978.22 1472.69 Q1975.12 1475.88 1969.47 1481.64 Z" fill="#000000" fill-rule="nonzero" fill-opacity="1" /><path clip-path="url(#clip120)" d="M2230.69 1466.95 Q2234.05 1467.66 2235.92 1469.93 Q2237.82 1472.2 2237.82 1475.53 Q2237.82 1480.65 2234.3 1483.45 Q2230.78 1486.25 2224.3 1486.25 Q2222.12 1486.25 2219.81 1485.81 Q2217.52 1485.39 2215.06 1484.54 L2215.06 1480.02 Q2217.01 1481.16 2219.32 1481.74 Q2221.64 1482.32 2224.16 1482.32 Q2228.56 1482.32 2230.85 1480.58 Q2233.17 1478.84 2233.17 1475.53 Q2233.17 1472.48 2231.01 1470.77 Q2228.88 1469.03 2225.06 1469.03 L2221.04 1469.03 L2221.04 1465.19 L2225.25 1465.19 Q2228.7 1465.19 2230.53 1463.82 Q2232.36 1462.43 2232.36 1459.84 Q2232.36 1457.18 2230.46 1455.77 Q2228.58 1454.33 2225.06 1454.33 Q2223.14 1454.33 2220.94 1454.75 Q2218.74 1455.16 2216.11 1456.04 L2216.11 1451.88 Q2218.77 1451.14 2221.08 1450.77 Q2223.42 1450.39 2225.48 1450.39 Q2230.8 1450.39 2233.91 1452.83 Q2237.01 1455.23 2237.01 1459.35 Q2237.01 1462.22 2235.36 1464.21 Q2233.72 1466.18 2230.69 1466.95 Z" fill="#000000" fill-rule="nonzero" fill-opacity="1" /><path clip-path="url(#clip120)" d="M1769.5 1520.52 L1809.7 1520.52 L1809.7 1525.93 L1792.83 1525.93 L1792.83 1568.04 L1786.37 1568.04 L1786.37 1525.93 L1769.5 1525.93 L1769.5 1520.52 Z" fill="#000000" fill-rule="nonzero" fill-opacity="1" /><path clip-path="url(#clip120)" d="M1813.65 1532.4 L1819.51 1532.4 L1819.51 1568.04 L1813.65 1568.04 L1813.65 1532.4 M1813.65 1518.52 L1819.51 1518.52 L1819.51 1525.93 L1813.65 1525.93 L1813.65 1518.52 Z" fill="#000000" fill-rule="nonzero" fill-opacity="1" /><path clip-path="url(#clip120)" d="M1859.51 1539.24 Q1861.71 1535.29 1864.77 1533.41 Q1867.82 1531.54 1871.96 1531.54 Q1877.53 1531.54 1880.55 1535.45 Q1883.58 1539.33 1883.58 1546.53 L1883.58 1568.04 L1877.69 1568.04 L1877.69 1546.72 Q1877.69 1541.59 1875.87 1539.11 Q1874.06 1536.63 1870.34 1536.63 Q1865.78 1536.63 1863.14 1539.65 Q1860.5 1542.68 1860.5 1547.9 L1860.5 1568.04 L1854.61 1568.04 L1854.61 1546.72 Q1854.61 1541.56 1852.8 1539.11 Q1850.98 1536.63 1847.2 1536.63 Q1842.71 1536.63 1840.07 1539.68 Q1837.43 1542.71 1837.43 1547.9 L1837.43 1568.04 L1831.54 1568.04 L1831.54 1532.4 L1837.43 1532.4 L1837.43 1537.93 Q1839.43 1534.66 1842.23 1533.1 Q1845.03 1531.54 1848.88 1531.54 Q1852.77 1531.54 1855.47 1533.51 Q1858.21 1535.48 1859.51 1539.24 Z" fill="#000000" fill-rule="nonzero" fill-opacity="1" /><path clip-path="url(#clip120)" d="M1925.75 1548.76 L1925.75 1551.62 L1898.82 1551.62 Q1899.2 1557.67 1902.45 1560.85 Q1905.73 1564 1911.55 1564 Q1914.93 1564 1918.08 1563.17 Q1921.26 1562.35 1924.38 1560.69 L1924.38 1566.23 Q1921.23 1567.57 1917.92 1568.27 Q1914.61 1568.97 1911.2 1568.97 Q1902.67 1568.97 1897.68 1564 Q1892.71 1559.04 1892.71 1550.57 Q1892.71 1541.82 1897.42 1536.69 Q1902.16 1531.54 1910.19 1531.54 Q1917.38 1531.54 1921.55 1536.18 Q1925.75 1540.8 1925.75 1548.76 M1919.89 1547.04 Q1919.83 1542.23 1917.19 1539.37 Q1914.58 1536.5 1910.25 1536.5 Q1905.35 1536.5 1902.39 1539.27 Q1899.46 1542.04 1899.01 1547.07 L1919.89 1547.04 Z" fill="#000000" fill-rule="nonzero" fill-opacity="1" /><path clip-path="url(#clip120)" d="M1970.15 1518.58 Q1965.89 1525.9 1963.82 1533.06 Q1961.75 1540.23 1961.75 1547.58 Q1961.75 1554.93 1963.82 1562.16 Q1965.92 1569.35 1970.15 1576.64 L1965.06 1576.64 Q1960.28 1569.16 1957.9 1561.93 Q1955.54 1554.71 1955.54 1547.58 Q1955.54 1540.48 1957.9 1533.29 Q1960.25 1526.09 1965.06 1518.58 L1970.15 1518.58 Z" fill="#000000" fill-rule="nonzero" fill-opacity="1" /><path clip-path="url(#clip120)" d="M2004.24 1533.45 L2004.24 1538.98 Q2001.76 1537.71 1999.08 1537.07 Q1996.41 1536.44 1993.54 1536.44 Q1989.18 1536.44 1986.99 1537.77 Q1984.82 1539.11 1984.82 1541.79 Q1984.82 1543.82 1986.38 1545 Q1987.94 1546.15 1992.65 1547.2 L1994.66 1547.64 Q2000.9 1548.98 2003.51 1551.43 Q2006.15 1553.85 2006.15 1558.21 Q2006.15 1563.17 2002.2 1566.07 Q1998.29 1568.97 1991.41 1568.97 Q1988.55 1568.97 1985.43 1568.39 Q1982.34 1567.85 1978.9 1566.74 L1978.9 1560.69 Q1982.15 1562.38 1985.3 1563.24 Q1988.45 1564.07 1991.54 1564.07 Q1995.68 1564.07 1997.9 1562.66 Q2000.13 1561.23 2000.13 1558.65 Q2000.13 1556.27 1998.51 1554.99 Q1996.92 1553.72 1991.48 1552.54 L1989.44 1552.07 Q1984 1550.92 1981.58 1548.56 Q1979.16 1546.18 1979.16 1542.04 Q1979.16 1537.01 1982.72 1534.27 Q1986.29 1531.54 1992.84 1531.54 Q1996.09 1531.54 1998.96 1532.01 Q2001.82 1532.49 2004.24 1533.45 Z" fill="#000000" fill-rule="nonzero" fill-opacity="1" /><path clip-path="url(#clip120)" d="M2014.55 1518.58 L2019.64 1518.58 Q2024.42 1526.09 2026.77 1533.29 Q2029.16 1540.48 2029.16 1547.58 Q2029.16 1554.71 2026.77 1561.93 Q2024.42 1569.16 2019.64 1576.64 L2014.55 1576.64 Q2018.78 1569.35 2020.85 1562.16 Q2022.95 1554.93 2022.95 1547.58 Q2022.95 1540.23 2020.85 1533.06 Q2018.78 1525.9 2014.55 1518.58 Z" fill="#000000" fill-rule="nonzero" fill-opacity="1" /><polyline clip-path="url(#clip125)" style="stroke:#000000; stroke-linecap:round; stroke-linejoin:round; stroke-width:2; stroke-opacity:0.1; fill:none" points="1445.91,1337.08 2352.76,1337.08 "/>
<polyline clip-path="url(#clip125)" style="stroke:#000000; stroke-linecap:round; stroke-linejoin:round; stroke-width:2; stroke-opacity:0.1; fill:none" points="1445.91,1249.42 2352.76,1249.42 "/>
<polyline clip-path="url(#clip125)" style="stroke:#000000; stroke-linecap:round; stroke-linejoin:round; stroke-width:2; stroke-opacity:0.1; fill:none" points="1445.91,1161.75 2352.76,1161.75 "/>
<polyline clip-path="url(#clip125)" style="stroke:#000000; stroke-linecap:round; stroke-linejoin:round; stroke-width:2; stroke-opacity:0.1; fill:none" points="1445.91,1074.09 2352.76,1074.09 "/>
<polyline clip-path="url(#clip120)" style="stroke:#000000; stroke-linecap:round; stroke-linejoin:round; stroke-width:4; stroke-opacity:1; fill:none" points="1445.91,1423.18 1445.91,1071.73 "/>
<polyline clip-path="url(#clip120)" style="stroke:#000000; stroke-linecap:round; stroke-linejoin:round; stroke-width:4; stroke-opacity:1; fill:none" points="1445.91,1337.08 1464.81,1337.08 "/>
<polyline clip-path="url(#clip120)" style="stroke:#000000; stroke-linecap:round; stroke-linejoin:round; stroke-width:4; stroke-opacity:1; fill:none" points="1445.91,1249.42 1464.81,1249.42 "/>
<polyline clip-path="url(#clip120)" style="stroke:#000000; stroke-linecap:round; stroke-linejoin:round; stroke-width:4; stroke-opacity:1; fill:none" points="1445.91,1161.75 1464.81,1161.75 "/>
<polyline clip-path="url(#clip120)" style="stroke:#000000; stroke-linecap:round; stroke-linejoin:round; stroke-width:4; stroke-opacity:1; fill:none" points="1445.91,1074.09 1464.81,1074.09 "/>
<path clip-path="url(#clip120)" d="M1272.32 1337.53 L1301.99 1337.53 L1301.99 1341.47 L1272.32 1341.47 L1272.32 1337.53 Z" fill="#000000" fill-rule="nonzero" fill-opacity="1" /><path clip-path="url(#clip120)" d="M1322.08 1322.88 Q1318.47 1322.88 1316.64 1326.44 Q1314.84 1329.98 1314.84 1337.11 Q1314.84 1344.22 1316.64 1347.78 Q1318.47 1351.33 1322.08 1351.33 Q1325.72 1351.33 1327.52 1347.78 Q1329.35 1344.22 1329.35 1337.11 Q1329.35 1329.98 1327.52 1326.44 Q1325.72 1322.88 1322.08 1322.88 M1322.08 1319.17 Q1327.89 1319.17 1330.95 1323.78 Q1334.03 1328.36 1334.03 1337.11 Q1334.03 1345.84 1330.95 1350.45 Q1327.89 1355.03 1322.08 1355.03 Q1316.27 1355.03 1313.2 1350.45 Q1310.14 1345.84 1310.14 1337.11 Q1310.14 1328.36 1313.2 1323.78 Q1316.27 1319.17 1322.08 1319.17 Z" fill="#000000" fill-rule="nonzero" fill-opacity="1" /><path clip-path="url(#clip120)" d="M1342.25 1348.48 L1347.13 1348.48 L1347.13 1354.36 L1342.25 1354.36 L1342.25 1348.48 Z" fill="#000000" fill-rule="nonzero" fill-opacity="1" /><path clip-path="url(#clip120)" d="M1367.32 1322.88 Q1363.7 1322.88 1361.88 1326.44 Q1360.07 1329.98 1360.07 1337.11 Q1360.07 1344.22 1361.88 1347.78 Q1363.7 1351.33 1367.32 1351.33 Q1370.95 1351.33 1372.76 1347.78 Q1374.58 1344.22 1374.58 1337.11 Q1374.58 1329.98 1372.76 1326.44 Q1370.95 1322.88 1367.32 1322.88 M1367.32 1319.17 Q1373.13 1319.17 1376.18 1323.78 Q1379.26 1328.36 1379.26 1337.11 Q1379.26 1345.84 1376.18 1350.45 Q1373.13 1355.03 1367.32 1355.03 Q1361.51 1355.03 1358.43 1350.45 Q1355.37 1345.84 1355.37 1337.11 Q1355.37 1328.36 1358.43 1323.78 Q1361.51 1319.17 1367.32 1319.17 Z" fill="#000000" fill-rule="nonzero" fill-opacity="1" /><path clip-path="url(#clip120)" d="M1400.32 1323.87 L1388.52 1342.32 L1400.32 1342.32 L1400.32 1323.87 M1399.1 1319.8 L1404.98 1319.8 L1404.98 1342.32 L1409.91 1342.32 L1409.91 1346.21 L1404.98 1346.21 L1404.98 1354.36 L1400.32 1354.36 L1400.32 1346.21 L1384.72 1346.21 L1384.72 1341.7 L1399.1 1319.8 Z" fill="#000000" fill-rule="nonzero" fill-opacity="1" /><path clip-path="url(#clip120)" d="M1274.4 1249.87 L1304.08 1249.87 L1304.08 1253.8 L1274.4 1253.8 L1274.4 1249.87 Z" fill="#000000" fill-rule="nonzero" fill-opacity="1" /><path clip-path="url(#clip120)" d="M1324.17 1235.21 Q1320.56 1235.21 1318.73 1238.78 Q1316.92 1242.32 1316.92 1249.45 Q1316.92 1256.56 1318.73 1260.12 Q1320.56 1263.66 1324.17 1263.66 Q1327.8 1263.66 1329.61 1260.12 Q1331.44 1256.56 1331.44 1249.45 Q1331.44 1242.32 1329.61 1238.78 Q1327.8 1235.21 1324.17 1235.21 M1324.17 1231.51 Q1329.98 1231.51 1333.03 1236.12 Q1336.11 1240.7 1336.11 1249.45 Q1336.11 1258.18 1333.03 1262.78 Q1329.98 1267.37 1324.17 1267.37 Q1318.36 1267.37 1315.28 1262.78 Q1312.22 1258.18 1312.22 1249.45 Q1312.22 1240.7 1315.28 1236.12 Q1318.36 1231.51 1324.17 1231.51 Z" fill="#000000" fill-rule="nonzero" fill-opacity="1" /><path clip-path="url(#clip120)" d="M1344.33 1260.82 L1349.21 1260.82 L1349.21 1266.7 L1344.33 1266.7 L1344.33 1260.82 Z" fill="#000000" fill-rule="nonzero" fill-opacity="1" /><path clip-path="url(#clip120)" d="M1369.4 1235.21 Q1365.79 1235.21 1363.96 1238.78 Q1362.15 1242.32 1362.15 1249.45 Q1362.15 1256.56 1363.96 1260.12 Q1365.79 1263.66 1369.4 1263.66 Q1373.03 1263.66 1374.84 1260.12 Q1376.67 1256.56 1376.67 1249.45 Q1376.67 1242.32 1374.84 1238.78 Q1373.03 1235.21 1369.4 1235.21 M1369.4 1231.51 Q1375.21 1231.51 1378.26 1236.12 Q1381.34 1240.7 1381.34 1249.45 Q1381.34 1258.18 1378.26 1262.78 Q1375.21 1267.37 1369.4 1267.37 Q1363.59 1267.37 1360.51 1262.78 Q1357.45 1258.18 1357.45 1249.45 Q1357.45 1240.7 1360.51 1236.12 Q1363.59 1231.51 1369.4 1231.51 Z" fill="#000000" fill-rule="nonzero" fill-opacity="1" /><path clip-path="url(#clip120)" d="M1393.59 1262.76 L1409.91 1262.76 L1409.91 1266.7 L1387.96 1266.7 L1387.96 1262.76 Q1390.63 1260.01 1395.21 1255.38 Q1399.82 1250.72 1401 1249.38 Q1403.24 1246.86 1404.12 1245.12 Q1405.02 1243.36 1405.02 1241.67 Q1405.02 1238.92 1403.08 1237.18 Q1401.16 1235.45 1398.06 1235.45 Q1395.86 1235.45 1393.4 1236.21 Q1390.97 1236.97 1388.19 1238.52 L1388.19 1233.8 Q1391.02 1232.67 1393.47 1232.09 Q1395.93 1231.51 1397.96 1231.51 Q1403.33 1231.51 1406.53 1234.2 Q1409.72 1236.88 1409.72 1241.37 Q1409.72 1243.5 1408.91 1245.42 Q1408.13 1247.32 1406.02 1249.91 Q1405.44 1250.58 1402.34 1253.8 Q1399.24 1257 1393.59 1262.76 Z" fill="#000000" fill-rule="nonzero" fill-opacity="1" /><path clip-path="url(#clip120)" d="M1322.57 1147.55 Q1318.96 1147.55 1317.13 1151.12 Q1315.32 1154.66 1315.32 1161.79 Q1315.32 1168.89 1317.13 1172.46 Q1318.96 1176 1322.57 1176 Q1326.2 1176 1328.01 1172.46 Q1329.84 1168.89 1329.84 1161.79 Q1329.84 1154.66 1328.01 1151.12 Q1326.2 1147.55 1322.57 1147.55 M1322.57 1143.85 Q1328.38 1143.85 1331.44 1148.45 Q1334.51 1153.04 1334.51 1161.79 Q1334.51 1170.51 1331.44 1175.12 Q1328.38 1179.7 1322.57 1179.7 Q1316.76 1179.7 1313.68 1175.12 Q1310.63 1170.51 1310.63 1161.79 Q1310.63 1153.04 1313.68 1148.45 Q1316.76 1143.85 1322.57 1143.85 Z" fill="#000000" fill-rule="nonzero" fill-opacity="1" /><path clip-path="url(#clip120)" d="M1342.73 1173.15 L1347.62 1173.15 L1347.62 1179.03 L1342.73 1179.03 L1342.73 1173.15 Z" fill="#000000" fill-rule="nonzero" fill-opacity="1" /><path clip-path="url(#clip120)" d="M1367.8 1147.55 Q1364.19 1147.55 1362.36 1151.12 Q1360.56 1154.66 1360.56 1161.79 Q1360.56 1168.89 1362.36 1172.46 Q1364.19 1176 1367.8 1176 Q1371.44 1176 1373.24 1172.46 Q1375.07 1168.89 1375.07 1161.79 Q1375.07 1154.66 1373.24 1151.12 Q1371.44 1147.55 1367.8 1147.55 M1367.8 1143.85 Q1373.61 1143.85 1376.67 1148.45 Q1379.75 1153.04 1379.75 1161.79 Q1379.75 1170.51 1376.67 1175.12 Q1373.61 1179.7 1367.8 1179.7 Q1361.99 1179.7 1358.91 1175.12 Q1355.86 1170.51 1355.86 1161.79 Q1355.86 1153.04 1358.91 1148.45 Q1361.99 1143.85 1367.8 1143.85 Z" fill="#000000" fill-rule="nonzero" fill-opacity="1" /><path clip-path="url(#clip120)" d="M1397.96 1147.55 Q1394.35 1147.55 1392.52 1151.12 Q1390.72 1154.66 1390.72 1161.79 Q1390.72 1168.89 1392.52 1172.46 Q1394.35 1176 1397.96 1176 Q1401.6 1176 1403.4 1172.46 Q1405.23 1168.89 1405.23 1161.79 Q1405.23 1154.66 1403.4 1151.12 Q1401.6 1147.55 1397.96 1147.55 M1397.96 1143.85 Q1403.77 1143.85 1406.83 1148.45 Q1409.91 1153.04 1409.91 1161.79 Q1409.91 1170.51 1406.83 1175.12 Q1403.77 1179.7 1397.96 1179.7 Q1392.15 1179.7 1389.07 1175.12 Q1386.02 1170.51 1386.02 1161.79 Q1386.02 1153.04 1389.07 1148.45 Q1392.15 1143.85 1397.96 1143.85 Z" fill="#000000" fill-rule="nonzero" fill-opacity="1" /><path clip-path="url(#clip120)" d="M1324.17 1059.89 Q1320.56 1059.89 1318.73 1063.45 Q1316.92 1066.99 1316.92 1074.12 Q1316.92 1081.23 1318.73 1084.8 Q1320.56 1088.34 1324.17 1088.34 Q1327.8 1088.34 1329.61 1084.8 Q1331.44 1081.23 1331.44 1074.12 Q1331.44 1066.99 1329.61 1063.45 Q1327.8 1059.89 1324.17 1059.89 M1324.17 1056.18 Q1329.98 1056.18 1333.03 1060.79 Q1336.11 1065.37 1336.11 1074.12 Q1336.11 1082.85 1333.03 1087.46 Q1329.98 1092.04 1324.17 1092.04 Q1318.36 1092.04 1315.28 1087.46 Q1312.22 1082.85 1312.22 1074.12 Q1312.22 1065.37 1315.28 1060.79 Q1318.36 1056.18 1324.17 1056.18 Z" fill="#000000" fill-rule="nonzero" fill-opacity="1" /><path clip-path="url(#clip120)" d="M1344.33 1085.49 L1349.21 1085.49 L1349.21 1091.37 L1344.33 1091.37 L1344.33 1085.49 Z" fill="#000000" fill-rule="nonzero" fill-opacity="1" /><path clip-path="url(#clip120)" d="M1369.4 1059.89 Q1365.79 1059.89 1363.96 1063.45 Q1362.15 1066.99 1362.15 1074.12 Q1362.15 1081.23 1363.96 1084.8 Q1365.79 1088.34 1369.4 1088.34 Q1373.03 1088.34 1374.84 1084.8 Q1376.67 1081.23 1376.67 1074.12 Q1376.67 1066.99 1374.84 1063.45 Q1373.03 1059.89 1369.4 1059.89 M1369.4 1056.18 Q1375.21 1056.18 1378.26 1060.79 Q1381.34 1065.37 1381.34 1074.12 Q1381.34 1082.85 1378.26 1087.46 Q1375.21 1092.04 1369.4 1092.04 Q1363.59 1092.04 1360.51 1087.46 Q1357.45 1082.85 1357.45 1074.12 Q1357.45 1065.37 1360.51 1060.79 Q1363.59 1056.18 1369.4 1056.18 Z" fill="#000000" fill-rule="nonzero" fill-opacity="1" /><path clip-path="url(#clip120)" d="M1393.59 1087.43 L1409.91 1087.43 L1409.91 1091.37 L1387.96 1091.37 L1387.96 1087.43 Q1390.63 1084.68 1395.21 1080.05 Q1399.82 1075.4 1401 1074.05 Q1403.24 1071.53 1404.12 1069.8 Q1405.02 1068.04 1405.02 1066.35 Q1405.02 1063.59 1403.08 1061.86 Q1401.16 1060.12 1398.06 1060.12 Q1395.86 1060.12 1393.4 1060.88 Q1390.97 1061.65 1388.19 1063.2 L1388.19 1058.48 Q1391.02 1057.34 1393.47 1056.76 Q1395.93 1056.18 1397.96 1056.18 Q1403.33 1056.18 1406.53 1058.87 Q1409.72 1061.55 1409.72 1066.05 Q1409.72 1068.17 1408.91 1070.1 Q1408.13 1071.99 1406.02 1074.59 Q1405.44 1075.26 1402.34 1078.48 Q1399.24 1081.67 1393.59 1087.43 Z" fill="#000000" fill-rule="nonzero" fill-opacity="1" /><path clip-path="url(#clip120)" d="M1182.01 1250.93 L1182.94 1251.49 Q1181.43 1254.99 1179.02 1259.34 Q1181.43 1263.69 1182.94 1267.19 L1182.01 1267.73 Q1178.7 1263.92 1176.15 1259.34 Q1178.72 1254.72 1182.01 1250.93 Z" fill="#000000" fill-rule="nonzero" fill-opacity="1" /><path clip-path="url(#clip120)" d="M1194.31 1247.77 Q1196.12 1247.77 1197.15 1248.9 Q1198.14 1250.02 1198.14 1251.31 Q1198.14 1252.54 1197.44 1253.18 Q1196.73 1253.82 1195.83 1253.82 Q1194.6 1253.82 1193.54 1252.92 Q1192.48 1252.02 1192.25 1250.67 Q1191.41 1251.99 1191.41 1253.95 Q1191.41 1255.24 1192.09 1256.37 Q1192.77 1257.46 1193.64 1258.14 Q1194.51 1258.78 1195.76 1259.36 Q1196.99 1259.91 1197.73 1260.14 Q1198.43 1260.33 1199.21 1260.49 L1208.23 1262.74 Q1212.51 1263.84 1214.02 1263.84 Q1215.89 1263.84 1217.15 1262.94 Q1218.37 1262.04 1218.37 1260.23 Q1218.37 1259.52 1218.18 1258.72 Q1217.95 1257.91 1217.37 1256.88 Q1216.76 1255.82 1215.86 1254.89 Q1214.92 1253.92 1213.35 1252.99 Q1211.77 1252.05 1209.74 1251.44 Q1209.03 1251.25 1209.03 1250.6 Q1209.03 1249.8 1209.67 1249.8 Q1210.22 1249.8 1211.38 1250.25 Q1212.51 1250.67 1213.99 1251.6 Q1215.44 1252.5 1216.76 1253.69 Q1218.05 1254.89 1218.95 1256.66 Q1219.85 1258.43 1219.85 1260.36 Q1219.85 1263.13 1218.37 1264.97 Q1216.89 1266.8 1214.83 1267.48 Q1215.12 1267.64 1215.5 1267.87 Q1215.89 1268.09 1216.76 1268.77 Q1217.6 1269.41 1218.24 1270.15 Q1218.85 1270.89 1219.34 1272.05 Q1219.85 1273.18 1219.85 1274.4 Q1219.85 1275.95 1219.4 1277.33 Q1218.95 1278.69 1217.92 1279.65 Q1216.89 1280.62 1215.47 1280.62 Q1213.89 1280.62 1212.8 1279.56 Q1211.67 1278.46 1211.67 1276.98 Q1211.67 1276.05 1212.22 1275.3 Q1212.77 1274.53 1213.96 1274.53 Q1215.28 1274.53 1216.28 1275.43 Q1217.27 1276.34 1217.53 1277.62 Q1218.37 1276.3 1218.37 1274.34 Q1218.37 1272.21 1216.5 1270.54 Q1214.63 1268.86 1211.51 1268.06 Q1204.01 1266.06 1200.66 1265.29 Q1197.28 1264.52 1195.83 1264.52 Q1194.47 1264.52 1193.54 1264.87 Q1192.61 1265.22 1192.19 1265.84 Q1191.74 1266.42 1191.57 1266.96 Q1191.41 1267.48 1191.41 1268.06 Q1191.41 1269.02 1191.8 1270.12 Q1192.19 1271.18 1193.09 1272.47 Q1193.96 1273.73 1195.76 1274.92 Q1197.56 1276.11 1200.04 1276.92 Q1200.79 1277.08 1200.79 1277.78 Q1200.75 1278.56 1200.11 1278.56 Q1199.56 1278.56 1198.43 1278.14 Q1197.28 1277.69 1195.83 1276.79 Q1194.38 1275.85 1193.09 1274.66 Q1191.77 1273.44 1190.87 1271.67 Q1189.96 1269.86 1189.96 1267.93 Q1189.96 1267.06 1190.16 1266.22 Q1190.32 1265.35 1190.8 1264.32 Q1191.28 1263.26 1192.35 1262.33 Q1193.41 1261.39 1194.96 1260.81 Q1194.22 1260.43 1193.51 1259.91 Q1192.8 1259.36 1191.93 1258.53 Q1191.03 1257.66 1190.51 1256.46 Q1189.96 1255.24 1189.96 1253.89 Q1189.96 1252.57 1190.32 1251.28 Q1190.64 1249.99 1191.7 1248.9 Q1192.73 1247.77 1194.31 1247.77 Z" fill="#000000" fill-rule="nonzero" fill-opacity="1" /><path clip-path="url(#clip120)" d="M1231.9 1240.31 Q1230.52 1240.31 1229.87 1239.52 Q1229.22 1238.73 1229.22 1237.72 Q1229.22 1236.66 1229.92 1235.91 Q1230.59 1235.15 1231.79 1235.15 Q1233.07 1235.15 1233.79 1236.05 Q1234.51 1236.93 1234.33 1238.19 Q1236.18 1237.09 1237.02 1235.06 Q1237.85 1233.01 1237.85 1231.11 Q1237.85 1229.13 1236.14 1227.53 Q1234.42 1225.9 1230.23 1225.9 Q1226.67 1225.9 1224.62 1227.3 Q1222.57 1228.68 1222.57 1231.4 L1222.57 1233.43 Q1222.57 1234.13 1222.5 1234.34 Q1222.43 1234.54 1222.05 1234.54 Q1221.6 1234.54 1221.51 1233.84 Q1221.51 1233.14 1221.37 1232.04 Q1221.28 1229.35 1218.96 1227.93 Q1216.79 1226.65 1213.71 1226.65 Q1210.89 1226.65 1209.72 1228 Q1208.52 1229.33 1208.52 1231.07 Q1208.52 1232.69 1209.2 1234.47 Q1209.87 1236.25 1211.38 1237.22 Q1211.38 1234.36 1213.71 1234.36 Q1214.72 1234.36 1215.4 1235.01 Q1216.05 1235.64 1216.05 1236.7 Q1216.05 1237.72 1215.42 1238.39 Q1214.77 1239.07 1213.66 1239.07 Q1211.02 1239.07 1209.2 1236.73 Q1207.37 1234.36 1207.37 1230.89 Q1207.37 1227.46 1209.17 1224.93 Q1210.98 1222.39 1213.75 1222.39 Q1216.48 1222.39 1218.71 1224.19 Q1220.94 1225.99 1221.87 1228.86 Q1222.57 1225.34 1224.96 1223.24 Q1227.32 1221.15 1230.23 1221.15 Q1233.84 1221.15 1236.5 1223.99 Q1239.14 1226.83 1239.14 1230.98 Q1239.14 1234.81 1237.06 1237.56 Q1234.99 1240.31 1231.9 1240.31 Z" fill="#000000" fill-rule="nonzero" fill-opacity="1" /><polyline clip-path="url(#clip125)" style="stroke:#e26f46; stroke-linecap:round; stroke-linejoin:round; stroke-width:3; stroke-opacity:1; fill:none" stroke-dasharray="12, 6, 2, 6" points="1471.57,1161.75 1496.74,1161.75 1521.9,1161.75 1547.06,1308.76 1572.22,1212.57 1597.38,1390.31 1622.55,1399.13 1647.71,1360.21 1672.87,1413.23 1698.03,1411.64 1723.2,1257.65 1748.36,1318.87 1773.52,1196.94 1798.68,1166.43 1823.85,1176.18 1849.01,1100.96 1874.17,1145.01 1899.33,1191.98 1924.49,1126.54 1949.66,1199.63 1974.82,1202.87 1999.98,1168.52 2025.14,1169.4 2050.31,1091.68 2075.47,1180.98 2100.63,1171.97 2125.79,1194.53 2150.95,1081.68 2176.12,1161.43 2201.28,1128.07 2226.44,1152.93 2251.6,1097.96 2276.77,1135.31 2301.93,1196.12 2327.09,1124.63 "/>
</svg>
