<?xml version="1.0" encoding="utf-8"?>
<svg xmlns="http://www.w3.org/2000/svg" xmlns:xlink="http://www.w3.org/1999/xlink" width="600" height="400" viewBox="0 0 2400 1600">
<defs>
  <clipPath id="clip040">
    <rect x="0" y="0" width="2400" height="1600"/>
  </clipPath>
</defs>
<path clip-path="url(#clip040)" d="M0 1600 L2400 1600 L2400 0 L0 0  Z" fill="#ffffff" fill-rule="evenodd" fill-opacity="1"/>
<defs>
  <clipPath id="clip041">
    <rect x="480" y="0" width="1681" height="1600"/>
  </clipPath>
</defs>
<path clip-path="url(#clip040)" d="M203.964 1423.18 L1095.97 1423.18 L1095.97 47.2441 L203.964 47.2441  Z" fill="#ffffff" fill-rule="evenodd" fill-opacity="1"/>
<defs>
  <clipPath id="clip042">
    <rect x="203" y="47" width="893" height="1377"/>
  </clipPath>
</defs>
<polyline clip-path="url(#clip042)" style="stroke:#000000; stroke-linecap:round; stroke-linejoin:round; stroke-width:2; stroke-opacity:0.1; fill:none" points="229.209,1423.18 229.209,47.2441 "/>
<polyline clip-path="url(#clip042)" style="stroke:#000000; stroke-linecap:round; stroke-linejoin:round; stroke-width:2; stroke-opacity:0.1; fill:none" points="476.715,1423.18 476.715,47.2441 "/>
<polyline clip-path="url(#clip042)" style="stroke:#000000; stroke-linecap:round; stroke-linejoin:round; stroke-width:2; stroke-opacity:0.1; fill:none" points="724.22,1423.18 724.22,47.2441 "/>
<polyline clip-path="url(#clip042)" style="stroke:#000000; stroke-linecap:round; stroke-linejoin:round; stroke-width:2; stroke-opacity:0.1; fill:none" points="971.726,1423.18 971.726,47.2441 "/>
<polyline clip-path="url(#clip040)" style="stroke:#000000; stroke-linecap:round; stroke-linejoin:round; stroke-width:4; stroke-opacity:1; fill:none" points="203.964,1423.18 1095.97,1423.18 "/>
<polyline clip-path="url(#clip040)" style="stroke:#000000; stroke-linecap:round; stroke-linejoin:round; stroke-width:4; stroke-opacity:1; fill:none" points="229.209,1423.18 229.209,1404.28 "/>
<polyline clip-path="url(#clip040)" style="stroke:#000000; stroke-linecap:round; stroke-linejoin:round; stroke-width:4; stroke-opacity:1; fill:none" points="476.715,1423.18 476.715,1404.28 "/>
<polyline clip-path="url(#clip040)" style="stroke:#000000; stroke-linecap:round; stroke-linejoin:round; stroke-width:4; stroke-opacity:1; fill:none" points="724.22,1423.18 724.22,1404.28 "/>
<polyline clip-path="url(#clip040)" style="stroke:#000000; stroke-linecap:round; stroke-linejoin:round; stroke-width:4; stroke-opacity:1; fill:none" points="971.726,1423.18 971.726,1404.28 "/>
<path clip-path="url(#clip040)" d="M229.209 1454.1 Q225.598 1454.1 223.769 1457.66 Q221.964 1461.2 221.964 1468.33 Q221.964 1475.44 223.769 1479.01 Q225.598 1482.55 229.209 1482.55 Q232.843 1482.55 234.649 1479.01 Q236.478 1475.44 236.478 1468.33 Q236.478 1461.2 234.649 1457.66 Q232.843 1454.1 229.209 1454.1 M229.209 1450.39 Q235.019 1450.39 238.075 1455 Q241.154 1459.58 241.154 1468.33 Q241.154 1477.06 238.075 1481.67 Q235.019 1486.25 229.209 1486.25 Q223.399 1486.25 220.32 1481.67 Q217.265 1477.06 217.265 1468.33 Q217.265 1459.58 220.32 1455 Q223.399 1450.39 229.209 1450.39 Z" fill="#000000" fill-rule="nonzero" fill-opacity="1" /><path clip-path="url(#clip040)" d="M467.097 1481.64 L474.736 1481.64 L474.736 1455.28 L466.425 1456.95 L466.425 1452.69 L474.689 1451.02 L479.365 1451.02 L479.365 1481.64 L487.004 1481.64 L487.004 1485.58 L467.097 1485.58 L467.097 1481.64 Z" fill="#000000" fill-rule="nonzero" fill-opacity="1" /><path clip-path="url(#clip040)" d="M718.873 1481.64 L735.193 1481.64 L735.193 1485.58 L713.248 1485.58 L713.248 1481.64 Q715.91 1478.89 720.494 1474.26 Q725.1 1469.61 726.281 1468.27 Q728.526 1465.74 729.406 1464.01 Q730.308 1462.25 730.308 1460.56 Q730.308 1457.8 728.364 1456.07 Q726.443 1454.33 723.341 1454.33 Q721.142 1454.33 718.688 1455.09 Q716.257 1455.86 713.48 1457.41 L713.48 1452.69 Q716.304 1451.55 718.757 1450.97 Q721.211 1450.39 723.248 1450.39 Q728.618 1450.39 731.813 1453.08 Q735.007 1455.77 735.007 1460.26 Q735.007 1462.39 734.197 1464.31 Q733.41 1466.2 731.304 1468.8 Q730.725 1469.47 727.623 1472.69 Q724.521 1475.88 718.873 1481.64 Z" fill="#000000" fill-rule="nonzero" fill-opacity="1" /><path clip-path="url(#clip040)" d="M975.974 1466.95 Q979.33 1467.66 981.205 1469.93 Q983.103 1472.2 983.103 1475.53 Q983.103 1480.65 979.585 1483.45 Q976.066 1486.25 969.585 1486.25 Q967.409 1486.25 965.094 1485.81 Q962.802 1485.39 960.349 1484.54 L960.349 1480.02 Q962.293 1481.16 964.608 1481.74 Q966.923 1482.32 969.446 1482.32 Q973.844 1482.32 976.136 1480.58 Q978.45 1478.84 978.45 1475.53 Q978.45 1472.48 976.298 1470.77 Q974.168 1469.03 970.349 1469.03 L966.321 1469.03 L966.321 1465.19 L970.534 1465.19 Q973.983 1465.19 975.812 1463.82 Q977.64 1462.43 977.64 1459.84 Q977.64 1457.18 975.742 1455.77 Q973.867 1454.33 970.349 1454.33 Q968.427 1454.33 966.228 1454.75 Q964.029 1455.16 961.39 1456.04 L961.39 1451.88 Q964.052 1451.14 966.367 1450.77 Q968.705 1450.39 970.765 1450.39 Q976.089 1450.39 979.191 1452.83 Q982.293 1455.23 982.293 1459.35 Q982.293 1462.22 980.65 1464.21 Q979.006 1466.18 975.974 1466.95 Z" fill="#000000" fill-rule="nonzero" fill-opacity="1" /><path clip-path="url(#clip040)" d="M520.14 1520.52 L560.34 1520.52 L560.34 1525.93 L543.47 1525.93 L543.47 1568.04 L537.009 1568.04 L537.009 1525.93 L520.14 1525.93 L520.14 1520.52 Z" fill="#000000" fill-rule="nonzero" fill-opacity="1" /><path clip-path="url(#clip040)" d="M564.286 1532.4 L570.143 1532.4 L570.143 1568.04 L564.286 1568.04 L564.286 1532.4 M564.286 1518.52 L570.143 1518.52 L570.143 1525.93 L564.286 1525.93 L564.286 1518.52 Z" fill="#000000" fill-rule="nonzero" fill-opacity="1" /><path clip-path="url(#clip040)" d="M610.151 1539.24 Q612.347 1535.29 615.403 1533.41 Q618.458 1531.54 622.596 1531.54 Q628.166 1531.54 631.19 1535.45 Q634.214 1539.33 634.214 1546.53 L634.214 1568.04 L628.325 1568.04 L628.325 1546.72 Q628.325 1541.59 626.511 1539.11 Q624.697 1536.63 620.973 1536.63 Q616.421 1536.63 613.78 1539.65 Q611.138 1542.68 611.138 1547.9 L611.138 1568.04 L605.25 1568.04 L605.25 1546.72 Q605.25 1541.56 603.435 1539.11 Q601.621 1536.63 597.834 1536.63 Q593.346 1536.63 590.704 1539.68 Q588.062 1542.71 588.062 1547.9 L588.062 1568.04 L582.174 1568.04 L582.174 1532.4 L588.062 1532.4 L588.062 1537.93 Q590.067 1534.66 592.868 1533.1 Q595.669 1531.54 599.52 1531.54 Q603.404 1531.54 606.109 1533.51 Q608.846 1535.48 610.151 1539.24 Z" fill="#000000" fill-rule="nonzero" fill-opacity="1" /><path clip-path="url(#clip040)" d="M676.386 1548.76 L676.386 1551.62 L649.459 1551.62 Q649.841 1557.67 653.088 1560.85 Q656.366 1564 662.191 1564 Q665.565 1564 668.716 1563.17 Q671.899 1562.35 675.018 1560.69 L675.018 1566.23 Q671.867 1567.57 668.557 1568.27 Q665.246 1568.97 661.841 1568.97 Q653.311 1568.97 648.314 1564 Q643.348 1559.04 643.348 1550.57 Q643.348 1541.82 648.059 1536.69 Q652.801 1531.54 660.822 1531.54 Q668.015 1531.54 672.185 1536.18 Q676.386 1540.8 676.386 1548.76 M670.53 1547.04 Q670.466 1542.23 667.824 1539.37 Q665.215 1536.5 660.886 1536.5 Q655.984 1536.5 653.024 1539.27 Q650.096 1542.04 649.65 1547.07 L670.53 1547.04 Z" fill="#000000" fill-rule="nonzero" fill-opacity="1" /><path clip-path="url(#clip040)" d="M720.787 1518.58 Q716.522 1525.9 714.453 1533.06 Q712.384 1540.23 712.384 1547.58 Q712.384 1554.93 714.453 1562.16 Q716.554 1569.35 720.787 1576.64 L715.695 1576.64 Q710.92 1569.16 708.533 1561.93 Q706.178 1554.71 706.178 1547.58 Q706.178 1540.48 708.533 1533.29 Q710.889 1526.09 715.695 1518.58 L720.787 1518.58 Z" fill="#000000" fill-rule="nonzero" fill-opacity="1" /><path clip-path="url(#clip040)" d="M754.876 1533.45 L754.876 1538.98 Q752.393 1537.71 749.719 1537.07 Q747.046 1536.44 744.181 1536.44 Q739.821 1536.44 737.624 1537.77 Q735.46 1539.11 735.46 1541.79 Q735.46 1543.82 737.02 1545 Q738.579 1546.15 743.29 1547.2 L745.295 1547.64 Q751.534 1548.98 754.143 1551.43 Q756.785 1553.85 756.785 1558.21 Q756.785 1563.17 752.839 1566.07 Q748.924 1568.97 742.049 1568.97 Q739.184 1568.97 736.065 1568.39 Q732.978 1567.85 729.54 1566.74 L729.54 1560.69 Q732.787 1562.38 735.938 1563.24 Q739.089 1564.07 742.176 1564.07 Q746.314 1564.07 748.542 1562.66 Q750.77 1561.23 750.77 1558.65 Q750.77 1556.27 749.146 1554.99 Q747.555 1553.72 742.112 1552.54 L740.075 1552.07 Q734.633 1550.92 732.214 1548.56 Q729.795 1546.18 729.795 1542.04 Q729.795 1537.01 733.359 1534.27 Q736.924 1531.54 743.481 1531.54 Q746.727 1531.54 749.592 1532.01 Q752.457 1532.49 754.876 1533.45 Z" fill="#000000" fill-rule="nonzero" fill-opacity="1" /><path clip-path="url(#clip040)" d="M765.188 1518.58 L770.281 1518.58 Q775.055 1526.09 777.41 1533.29 Q779.797 1540.48 779.797 1547.58 Q779.797 1554.71 777.41 1561.93 Q775.055 1569.16 770.281 1576.64 L765.188 1576.64 Q769.421 1569.35 771.49 1562.16 Q773.591 1554.93 773.591 1547.58 Q773.591 1540.23 771.49 1533.06 Q769.421 1525.9 765.188 1518.58 Z" fill="#000000" fill-rule="nonzero" fill-opacity="1" /><polyline clip-path="url(#clip042)" style="stroke:#000000; stroke-linecap:round; stroke-linejoin:round; stroke-width:2; stroke-opacity:0.1; fill:none" points="203.964,1384.24 1095.97,1384.24 "/>
<polyline clip-path="url(#clip042)" style="stroke:#000000; stroke-linecap:round; stroke-linejoin:round; stroke-width:2; stroke-opacity:0.1; fill:none" points="203.964,1016.01 1095.97,1016.01 "/>
<polyline clip-path="url(#clip042)" style="stroke:#000000; stroke-linecap:round; stroke-linejoin:round; stroke-width:2; stroke-opacity:0.1; fill:none" points="203.964,647.79 1095.97,647.79 "/>
<polyline clip-path="url(#clip042)" style="stroke:#000000; stroke-linecap:round; stroke-linejoin:round; stroke-width:2; stroke-opacity:0.1; fill:none" points="203.964,279.566 1095.97,279.566 "/>
<polyline clip-path="url(#clip040)" style="stroke:#000000; stroke-linecap:round; stroke-linejoin:round; stroke-width:4; stroke-opacity:1; fill:none" points="203.964,1423.18 203.964,47.2441 "/>
<polyline clip-path="url(#clip040)" style="stroke:#000000; stroke-linecap:round; stroke-linejoin:round; stroke-width:4; stroke-opacity:1; fill:none" points="203.964,1384.24 222.861,1384.24 "/>
<polyline clip-path="url(#clip040)" style="stroke:#000000; stroke-linecap:round; stroke-linejoin:round; stroke-width:4; stroke-opacity:1; fill:none" points="203.964,1016.01 222.861,1016.01 "/>
<polyline clip-path="url(#clip040)" style="stroke:#000000; stroke-linecap:round; stroke-linejoin:round; stroke-width:4; stroke-opacity:1; fill:none" points="203.964,647.79 222.861,647.79 "/>
<polyline clip-path="url(#clip040)" style="stroke:#000000; stroke-linecap:round; stroke-linejoin:round; stroke-width:4; stroke-opacity:1; fill:none" points="203.964,279.566 222.861,279.566 "/>
<path clip-path="url(#clip040)" d="M156.019 1370.04 Q152.408 1370.04 150.579 1373.6 Q148.774 1377.14 148.774 1384.27 Q148.774 1391.38 150.579 1394.94 Q152.408 1398.49 156.019 1398.49 Q159.653 1398.49 161.459 1394.94 Q163.288 1391.38 163.288 1384.27 Q163.288 1377.14 161.459 1373.6 Q159.653 1370.04 156.019 1370.04 M156.019 1366.33 Q161.829 1366.33 164.885 1370.94 Q167.964 1375.52 167.964 1384.27 Q167.964 1393 164.885 1397.61 Q161.829 1402.19 156.019 1402.19 Q150.209 1402.19 147.13 1397.61 Q144.075 1393 144.075 1384.27 Q144.075 1375.52 147.13 1370.94 Q150.209 1366.33 156.019 1366.33 Z" fill="#000000" fill-rule="nonzero" fill-opacity="1" /><path clip-path="url(#clip040)" d="M116.668 1029.36 L124.306 1029.36 L124.306 1002.99 L115.996 1004.66 L115.996 1000.4 L124.26 998.734 L128.936 998.734 L128.936 1029.36 L136.575 1029.36 L136.575 1033.29 L116.668 1033.29 L116.668 1029.36 Z" fill="#000000" fill-rule="nonzero" fill-opacity="1" /><path clip-path="url(#clip040)" d="M156.019 1001.81 Q152.408 1001.81 150.579 1005.38 Q148.774 1008.92 148.774 1016.05 Q148.774 1023.16 150.579 1026.72 Q152.408 1030.26 156.019 1030.26 Q159.653 1030.26 161.459 1026.72 Q163.288 1023.16 163.288 1016.05 Q163.288 1008.92 161.459 1005.38 Q159.653 1001.81 156.019 1001.81 M156.019 998.109 Q161.829 998.109 164.885 1002.72 Q167.964 1007.3 167.964 1016.05 Q167.964 1024.78 164.885 1029.38 Q161.829 1033.97 156.019 1033.97 Q150.209 1033.97 147.13 1029.38 Q144.075 1024.78 144.075 1016.05 Q144.075 1007.3 147.13 1002.72 Q150.209 998.109 156.019 998.109 Z" fill="#000000" fill-rule="nonzero" fill-opacity="1" /><path clip-path="url(#clip040)" d="M119.885 661.135 L136.204 661.135 L136.204 665.07 L114.26 665.07 L114.26 661.135 Q116.922 658.38 121.505 653.751 Q126.112 649.098 127.292 647.755 Q129.538 645.232 130.417 643.496 Q131.32 641.737 131.32 640.047 Q131.32 637.293 129.376 635.556 Q127.455 633.82 124.353 633.82 Q122.154 633.82 119.7 634.584 Q117.269 635.348 114.492 636.899 L114.492 632.177 Q117.316 631.043 119.769 630.464 Q122.223 629.885 124.26 629.885 Q129.63 629.885 132.825 632.57 Q136.019 635.255 136.019 639.746 Q136.019 641.876 135.209 643.797 Q134.422 645.695 132.316 648.288 Q131.737 648.959 128.635 652.177 Q125.533 655.371 119.885 661.135 Z" fill="#000000" fill-rule="nonzero" fill-opacity="1" /><path clip-path="url(#clip040)" d="M156.019 633.589 Q152.408 633.589 150.579 637.154 Q148.774 640.695 148.774 647.825 Q148.774 654.931 150.579 658.496 Q152.408 662.038 156.019 662.038 Q159.653 662.038 161.459 658.496 Q163.288 654.931 163.288 647.825 Q163.288 640.695 161.459 637.154 Q159.653 633.589 156.019 633.589 M156.019 629.885 Q161.829 629.885 164.885 634.492 Q167.964 639.075 167.964 647.825 Q167.964 656.552 164.885 661.158 Q161.829 665.741 156.019 665.741 Q150.209 665.741 147.13 661.158 Q144.075 656.552 144.075 647.825 Q144.075 639.075 147.13 634.492 Q150.209 629.885 156.019 629.885 Z" fill="#000000" fill-rule="nonzero" fill-opacity="1" /><path clip-path="url(#clip040)" d="M130.024 278.212 Q133.38 278.929 135.255 281.198 Q137.154 283.467 137.154 286.8 Q137.154 291.916 133.635 294.716 Q130.117 297.517 123.635 297.517 Q121.459 297.517 119.144 297.078 Q116.853 296.661 114.399 295.804 L114.399 291.291 Q116.343 292.425 118.658 293.003 Q120.973 293.582 123.496 293.582 Q127.894 293.582 130.186 291.846 Q132.501 290.11 132.501 286.8 Q132.501 283.744 130.348 282.031 Q128.218 280.295 124.399 280.295 L120.371 280.295 L120.371 276.453 L124.584 276.453 Q128.033 276.453 129.862 275.087 Q131.691 273.698 131.691 271.105 Q131.691 268.443 129.792 267.031 Q127.917 265.596 124.399 265.596 Q122.478 265.596 120.279 266.013 Q118.08 266.43 115.441 267.309 L115.441 263.143 Q118.103 262.402 120.418 262.031 Q122.755 261.661 124.816 261.661 Q130.14 261.661 133.242 264.092 Q136.343 266.499 136.343 270.619 Q136.343 273.49 134.7 275.48 Q133.056 277.448 130.024 278.212 Z" fill="#000000" fill-rule="nonzero" fill-opacity="1" /><path clip-path="url(#clip040)" d="M156.019 265.365 Q152.408 265.365 150.579 268.93 Q148.774 272.471 148.774 279.601 Q148.774 286.707 150.579 290.272 Q152.408 293.814 156.019 293.814 Q159.653 293.814 161.459 290.272 Q163.288 286.707 163.288 279.601 Q163.288 272.471 161.459 268.93 Q159.653 265.365 156.019 265.365 M156.019 261.661 Q161.829 261.661 164.885 266.268 Q167.964 270.851 167.964 279.601 Q167.964 288.328 164.885 292.934 Q161.829 297.517 156.019 297.517 Q150.209 297.517 147.13 292.934 Q144.075 288.328 144.075 279.601 Q144.075 270.851 147.13 266.268 Q150.209 261.661 156.019 261.661 Z" fill="#000000" fill-rule="nonzero" fill-opacity="1" /><path clip-path="url(#clip040)" d="M21.7178 734.435 Q22.1687 734.435 23.2315 734.724 L48.4165 741.037 Q54.0203 742.422 57.9494 746.93 Q61.8785 751.407 61.8785 756.496 Q61.8785 759.555 60.236 761.52 Q58.6257 763.484 56.1459 763.484 Q53.9559 763.484 52.8931 762.325 Q51.8625 761.165 51.8625 759.781 Q51.8625 759.33 51.9913 758.847 Q52.1201 758.364 52.6676 757.848 Q53.2151 757.333 54.1491 757.333 Q55.6628 757.333 56.8544 758.653 Q57.4019 759.298 57.5307 759.909 Q57.6596 760.489 57.6596 761.488 Q58.5613 761.101 59.1732 760.393 Q59.7851 759.684 60.0106 758.879 Q60.2682 758.074 60.3326 757.558 Q60.4293 757.011 60.4293 756.496 Q60.4293 752.373 56.2747 749.217 Q55.0187 748.283 53.7626 747.607 Q52.5388 746.898 51.0252 746.383 Q49.5437 745.868 48.7385 745.642 Q47.9334 745.385 46.0977 744.934 Q49.0928 747.929 49.0928 751.6 Q49.0928 753.146 48.6741 754.531 Q48.2554 755.884 47.3859 757.075 Q46.4841 758.267 44.906 758.975 Q43.3279 759.652 41.2346 759.652 Q39.0124 759.652 35.985 758.782 Q32.9577 757.913 27.386 755.819 Q24.2621 754.692 22.7484 754.692 Q22.0077 754.692 21.5568 754.853 Q21.0737 755.014 20.9127 755.336 Q20.7194 755.658 20.6872 755.852 Q20.655 756.013 20.655 756.335 Q20.655 758.235 22.5874 760.006 Q24.5197 761.777 28.8353 763.001 Q29.6405 763.259 29.8337 763.42 Q30.0269 763.581 30.0269 764.064 Q29.9947 764.869 29.3506 764.869 Q29.093 764.869 28.0946 764.579 Q27.064 764.289 25.5503 763.613 Q24.0044 762.905 22.6196 761.938 Q21.2025 760.972 20.2041 759.459 Q19.2058 757.913 19.2058 756.141 Q19.2058 753.726 20.7838 752.244 Q22.3297 750.731 24.6163 750.731 Q25.5503 750.731 26.3877 750.988 Q27.1928 751.214 29.3506 752.051 Q38.0462 755.433 42.2974 755.433 Q43.3279 755.433 44.1975 755.272 Q45.0349 755.079 45.8722 754.66 Q46.6774 754.241 47.1604 753.404 Q47.6113 752.534 47.6113 751.343 Q47.6113 749.829 46.9028 748.412 Q46.1621 746.963 45.1637 746.061 Q44.1653 745.127 43.3279 744.579 Q42.4584 744 42.0075 743.871 L30.1558 740.908 L24.874 739.588 Q22.0077 738.976 21.2991 738.686 Q20.6228 738.299 20.2686 737.623 Q19.9143 736.947 19.9143 736.367 Q19.9143 735.562 20.3974 735.014 Q20.8805 734.435 21.7178 734.435 Z" fill="#000000" fill-rule="nonzero" fill-opacity="1" /><path clip-path="url(#clip040)" d="M53.6652 727.689 L52.2224 727.689 Q52.2224 722.143 49.2691 719.28 Q49.2691 718.491 49.4494 718.355 Q49.6298 718.22 50.4639 718.22 L76.3671 718.22 Q77.7423 718.22 78.1706 717.544 Q78.599 716.867 78.599 713.914 L78.599 712.449 L80.0193 712.449 Q79.884 714.072 79.884 719.933 Q79.884 725.795 80.0193 727.395 L78.599 727.395 L78.599 725.93 Q78.599 723.022 78.1932 722.323 Q77.7648 721.624 76.3671 721.624 L52.4478 721.624 Q53.6652 724.036 53.6652 727.689 Z" fill="#000000" fill-rule="nonzero" fill-opacity="1" /><polyline clip-path="url(#clip042)" style="stroke:#009af9; stroke-linecap:round; stroke-linejoin:round; stroke-width:4; stroke-opacity:1; fill:none" points="229.209,1376.37 253.96,1360.72 278.71,1197.7 303.461,859.183 328.211,518.726 352.962,258.037 377.713,115.747 402.463,86.1857 427.214,163.228 451.964,256.735 476.715,350.735 501.465,467.478 526.216,533.057 550.966,562.645 575.717,569.765 600.468,520.241 625.218,522.023 649.969,456.506 674.719,426.568 699.47,442.957 724.22,441.942 748.971,413.593 773.721,411.115 798.472,421.129 823.223,452.016 847.973,473.01 872.724,488.32 897.474,493.102 922.225,468.666 946.975,457.143 971.726,429.311 996.477,485.057 1021.23,468.18 1045.98,475.032 1070.73,450.416 "/>
<polyline clip-path="url(#clip042)" style="stroke:#e26f46; stroke-linecap:round; stroke-linejoin:round; stroke-width:3; stroke-opacity:1; fill:none" stroke-dasharray="12, 6, 2, 6" points="229.209,1384.24 253.96,1376.37 278.71,1141.14 303.461,922.84 328.211,509.014 352.962,238.113 377.713,105.191 402.463,95.2776 427.214,167.512 451.964,312.14 476.715,408.549 501.465,475.067 526.216,566.994 550.966,580.234 575.717,565.109 600.468,545.186 625.218,466.458 649.969,491.007 674.719,410.649 699.47,401.482 724.22,450.091 748.971,450.929 773.721,410.489 798.472,416.704 823.223,434.265 847.973,473.656 872.724,488.178 897.474,495.104 922.225,490.588 946.975,451.004 971.726,443.896 996.477,413.807 1021.23,507.278 1045.98,466.695 1070.73,476.121 "/>
<path clip-path="url(#clip040)" d="M948.21 248.629 L1066.24 248.629 L1066.24 93.1086 L948.21 93.1086  Z" fill="#ffffff" fill-rule="evenodd" fill-opacity="1"/>
<polyline clip-path="url(#clip040)" style="stroke:#000000; stroke-linecap:round; stroke-linejoin:round; stroke-width:4; stroke-opacity:1; fill:none" points="948.21,248.629 1066.24,248.629 1066.24,93.1086 948.21,93.1086 948.21,248.629 "/>
<polyline clip-path="url(#clip040)" style="stroke:#009af9; stroke-linecap:round; stroke-linejoin:round; stroke-width:4; stroke-opacity:1; fill:none" points="958.121,144.949 1017.59,144.949 "/>
<path clip-path="url(#clip040)" d="M1054.27 131.687 Q1052.8 131.687 1052.05 131.828 Q1051.3 131.945 1051.11 132.109 Q1050.92 132.273 1050.71 132.695 L1040.41 154.618 Q1039.3 156.96 1037.24 158.647 Q1035.21 160.333 1032.63 160.333 Q1030.47 160.333 1028.98 159.021 Q1027.5 157.733 1027.5 155.906 Q1027.5 154.595 1028.32 153.845 Q1029.14 153.119 1030.24 153.119 Q1031.46 153.119 1032.23 153.892 Q1033.03 154.665 1033.03 155.859 Q1033.03 156.632 1032.7 157.218 Q1032.37 157.827 1032.07 158.038 Q1031.79 158.272 1031.48 158.412 Q1031.97 158.6 1032.63 158.6 Q1033.61 158.6 1034.46 158.202 Q1035.32 157.827 1035.88 157.312 Q1036.47 156.82 1037.06 155.93 Q1037.64 155.063 1037.92 154.501 Q1038.2 153.962 1038.63 153.025 L1039.73 150.73 L1030.76 131.687 L1027.69 131.687 L1027.69 129.439 L1033.17 129.579 L1039.12 129.439 L1039.12 131.687 L1036.52 131.687 L1042.61 144.64 L1048.13 132.835 L1048.37 132.273 Q1048.37 132.015 1047.81 131.875 Q1047.24 131.711 1046.68 131.711 L1046.12 131.687 L1046.12 129.439 L1050.48 129.579 Q1052.54 129.579 1054.27 129.439 L1054.27 131.687 Z" fill="#000000" fill-rule="nonzero" fill-opacity="1" /><polyline clip-path="url(#clip040)" style="stroke:#e26f46; stroke-linecap:round; stroke-linejoin:round; stroke-width:3; stroke-opacity:1; fill:none" stroke-dasharray="12, 6, 2, 6" points="958.121,196.789 1017.59,196.789 "/>
<path clip-path="url(#clip040)" d="M1050.09 180.509 L1049.68 181.181 Q1047.13 180.083 1043.97 178.328 Q1040.81 180.083 1038.26 181.181 L1037.87 180.509 Q1040.64 178.099 1043.97 176.246 Q1047.33 178.115 1050.09 180.509 Z" fill="#000000" fill-rule="nonzero" fill-opacity="1" /><path clip-path="url(#clip040)" d="M1054.27 188.532 Q1052.8 188.532 1052.05 188.672 Q1051.3 188.79 1051.11 188.954 Q1050.92 189.118 1050.71 189.539 L1040.41 211.463 Q1039.3 213.805 1037.24 215.491 Q1035.21 217.178 1032.63 217.178 Q1030.47 217.178 1028.98 215.866 Q1027.5 214.578 1027.5 212.751 Q1027.5 211.439 1028.32 210.69 Q1029.14 209.963 1030.24 209.963 Q1031.46 209.963 1032.23 210.736 Q1033.03 211.509 1033.03 212.704 Q1033.03 213.477 1032.7 214.062 Q1032.37 214.671 1032.07 214.882 Q1031.79 215.116 1031.48 215.257 Q1031.97 215.444 1032.63 215.444 Q1033.61 215.444 1034.46 215.046 Q1035.32 214.671 1035.88 214.156 Q1036.47 213.664 1037.06 212.774 Q1037.64 211.908 1037.92 211.345 Q1038.2 210.807 1038.63 209.87 L1039.73 207.574 L1030.76 188.532 L1027.69 188.532 L1027.69 186.283 L1033.17 186.424 L1039.12 186.283 L1039.12 188.532 L1036.52 188.532 L1042.61 201.485 L1048.13 189.68 L1048.37 189.118 Q1048.37 188.86 1047.81 188.719 Q1047.24 188.555 1046.68 188.555 L1046.12 188.532 L1046.12 186.283 L1050.48 186.424 Q1052.54 186.424 1054.27 186.283 L1054.27 188.532 Z" fill="#000000" fill-rule="nonzero" fill-opacity="1" /><path clip-path="url(#clip040)" d="M1460.75 398.692 L2352.76 398.692 L2352.76 47.2441 L1460.75 47.2441  Z" fill="#ffffff" fill-rule="evenodd" fill-opacity="1"/>
<defs>
  <clipPath id="clip043">
    <rect x="1460" y="47" width="893" height="352"/>
  </clipPath>
</defs>
<polyline clip-path="url(#clip043)" style="stroke:#000000; stroke-linecap:round; stroke-linejoin:round; stroke-width:2; stroke-opacity:0.1; fill:none" points="1485.99,398.692 1485.99,47.2441 "/>
<polyline clip-path="url(#clip043)" style="stroke:#000000; stroke-linecap:round; stroke-linejoin:round; stroke-width:2; stroke-opacity:0.1; fill:none" points="1733.5,398.692 1733.5,47.2441 "/>
<polyline clip-path="url(#clip043)" style="stroke:#000000; stroke-linecap:round; stroke-linejoin:round; stroke-width:2; stroke-opacity:0.1; fill:none" points="1981,398.692 1981,47.2441 "/>
<polyline clip-path="url(#clip043)" style="stroke:#000000; stroke-linecap:round; stroke-linejoin:round; stroke-width:2; stroke-opacity:0.1; fill:none" points="2228.51,398.692 2228.51,47.2441 "/>
<polyline clip-path="url(#clip040)" style="stroke:#000000; stroke-linecap:round; stroke-linejoin:round; stroke-width:4; stroke-opacity:1; fill:none" points="1460.75,398.692 2352.76,398.692 "/>
<polyline clip-path="url(#clip040)" style="stroke:#000000; stroke-linecap:round; stroke-linejoin:round; stroke-width:4; stroke-opacity:1; fill:none" points="1485.99,398.692 1485.99,379.794 "/>
<polyline clip-path="url(#clip040)" style="stroke:#000000; stroke-linecap:round; stroke-linejoin:round; stroke-width:4; stroke-opacity:1; fill:none" points="1733.5,398.692 1733.5,379.794 "/>
<polyline clip-path="url(#clip040)" style="stroke:#000000; stroke-linecap:round; stroke-linejoin:round; stroke-width:4; stroke-opacity:1; fill:none" points="1981,398.692 1981,379.794 "/>
<polyline clip-path="url(#clip040)" style="stroke:#000000; stroke-linecap:round; stroke-linejoin:round; stroke-width:4; stroke-opacity:1; fill:none" points="2228.51,398.692 2228.51,379.794 "/>
<path clip-path="url(#clip040)" d="M1485.99 429.611 Q1482.38 429.611 1480.55 433.175 Q1478.75 436.717 1478.75 443.847 Q1478.75 450.953 1480.55 454.518 Q1482.38 458.059 1485.99 458.059 Q1489.63 458.059 1491.43 454.518 Q1493.26 450.953 1493.26 443.847 Q1493.26 436.717 1491.43 433.175 Q1489.63 429.611 1485.99 429.611 M1485.99 425.907 Q1491.8 425.907 1494.86 430.513 Q1497.94 435.097 1497.94 443.847 Q1497.94 452.573 1494.86 457.18 Q1491.8 461.763 1485.99 461.763 Q1480.18 461.763 1477.1 457.18 Q1474.05 452.573 1474.05 443.847 Q1474.05 435.097 1477.1 430.513 Q1480.18 425.907 1485.99 425.907 Z" fill="#000000" fill-rule="nonzero" fill-opacity="1" /><path clip-path="url(#clip040)" d="M1723.88 457.157 L1731.52 457.157 L1731.52 430.791 L1723.21 432.458 L1723.21 428.199 L1731.47 426.532 L1736.15 426.532 L1736.15 457.157 L1743.79 457.157 L1743.79 461.092 L1723.88 461.092 L1723.88 457.157 Z" fill="#000000" fill-rule="nonzero" fill-opacity="1" /><path clip-path="url(#clip040)" d="M1975.66 457.157 L1991.97 457.157 L1991.97 461.092 L1970.03 461.092 L1970.03 457.157 Q1972.69 454.402 1977.28 449.772 Q1981.88 445.12 1983.06 443.777 Q1985.31 441.254 1986.19 439.518 Q1987.09 437.759 1987.09 436.069 Q1987.09 433.314 1985.15 431.578 Q1983.22 429.842 1980.12 429.842 Q1977.92 429.842 1975.47 430.606 Q1973.04 431.37 1970.26 432.921 L1970.26 428.199 Q1973.09 427.064 1975.54 426.486 Q1977.99 425.907 1980.03 425.907 Q1985.4 425.907 1988.6 428.592 Q1991.79 431.277 1991.79 435.768 Q1991.79 437.898 1990.98 439.819 Q1990.19 441.717 1988.09 444.31 Q1987.51 444.981 1984.41 448.198 Q1981.3 451.393 1975.66 457.157 Z" fill="#000000" fill-rule="nonzero" fill-opacity="1" /><path clip-path="url(#clip040)" d="M2232.76 442.458 Q2236.11 443.175 2237.99 445.444 Q2239.89 447.712 2239.89 451.046 Q2239.89 456.161 2236.37 458.962 Q2232.85 461.763 2226.37 461.763 Q2224.19 461.763 2221.88 461.323 Q2219.58 460.907 2217.13 460.05 L2217.13 455.536 Q2219.08 456.671 2221.39 457.249 Q2223.7 457.828 2226.23 457.828 Q2230.63 457.828 2232.92 456.092 Q2235.23 454.356 2235.23 451.046 Q2235.23 447.99 2233.08 446.277 Q2230.95 444.541 2227.13 444.541 L2223.1 444.541 L2223.1 440.698 L2227.32 440.698 Q2230.77 440.698 2232.59 439.333 Q2234.42 437.944 2234.42 435.351 Q2234.42 432.689 2232.52 431.277 Q2230.65 429.842 2227.13 429.842 Q2225.21 429.842 2223.01 430.259 Q2220.81 430.675 2218.17 431.555 L2218.17 427.388 Q2220.83 426.648 2223.15 426.277 Q2225.49 425.907 2227.55 425.907 Q2232.87 425.907 2235.97 428.337 Q2239.08 430.745 2239.08 434.865 Q2239.08 437.736 2237.43 439.726 Q2235.79 441.694 2232.76 442.458 Z" fill="#000000" fill-rule="nonzero" fill-opacity="1" /><polyline clip-path="url(#clip043)" style="stroke:#000000; stroke-linecap:round; stroke-linejoin:round; stroke-width:2; stroke-opacity:0.1; fill:none" points="1460.75,388.745 2352.76,388.745 "/>
<polyline clip-path="url(#clip043)" style="stroke:#000000; stroke-linecap:round; stroke-linejoin:round; stroke-width:2; stroke-opacity:0.1; fill:none" points="1460.75,334.619 2352.76,334.619 "/>
<polyline clip-path="url(#clip043)" style="stroke:#000000; stroke-linecap:round; stroke-linejoin:round; stroke-width:2; stroke-opacity:0.1; fill:none" points="1460.75,280.494 2352.76,280.494 "/>
<polyline clip-path="url(#clip043)" style="stroke:#000000; stroke-linecap:round; stroke-linejoin:round; stroke-width:2; stroke-opacity:0.1; fill:none" points="1460.75,226.368 2352.76,226.368 "/>
<polyline clip-path="url(#clip043)" style="stroke:#000000; stroke-linecap:round; stroke-linejoin:round; stroke-width:2; stroke-opacity:0.1; fill:none" points="1460.75,172.242 2352.76,172.242 "/>
<polyline clip-path="url(#clip043)" style="stroke:#000000; stroke-linecap:round; stroke-linejoin:round; stroke-width:2; stroke-opacity:0.1; fill:none" points="1460.75,118.116 2352.76,118.116 "/>
<polyline clip-path="url(#clip043)" style="stroke:#000000; stroke-linecap:round; stroke-linejoin:round; stroke-width:2; stroke-opacity:0.1; fill:none" points="1460.75,63.9907 2352.76,63.9907 "/>
<polyline clip-path="url(#clip040)" style="stroke:#000000; stroke-linecap:round; stroke-linejoin:round; stroke-width:4; stroke-opacity:1; fill:none" points="1460.75,398.692 1460.75,47.2441 "/>
<polyline clip-path="url(#clip040)" style="stroke:#000000; stroke-linecap:round; stroke-linejoin:round; stroke-width:4; stroke-opacity:1; fill:none" points="1460.75,388.745 1479.64,388.745 "/>
<polyline clip-path="url(#clip040)" style="stroke:#000000; stroke-linecap:round; stroke-linejoin:round; stroke-width:4; stroke-opacity:1; fill:none" points="1460.75,334.619 1479.64,334.619 "/>
<polyline clip-path="url(#clip040)" style="stroke:#000000; stroke-linecap:round; stroke-linejoin:round; stroke-width:4; stroke-opacity:1; fill:none" points="1460.75,280.494 1479.64,280.494 "/>
<polyline clip-path="url(#clip040)" style="stroke:#000000; stroke-linecap:round; stroke-linejoin:round; stroke-width:4; stroke-opacity:1; fill:none" points="1460.75,226.368 1479.64,226.368 "/>
<polyline clip-path="url(#clip040)" style="stroke:#000000; stroke-linecap:round; stroke-linejoin:round; stroke-width:4; stroke-opacity:1; fill:none" points="1460.75,172.242 1479.64,172.242 "/>
<polyline clip-path="url(#clip040)" style="stroke:#000000; stroke-linecap:round; stroke-linejoin:round; stroke-width:4; stroke-opacity:1; fill:none" points="1460.75,118.116 1479.64,118.116 "/>
<polyline clip-path="url(#clip040)" style="stroke:#000000; stroke-linecap:round; stroke-linejoin:round; stroke-width:4; stroke-opacity:1; fill:none" points="1460.75,63.9907 1479.64,63.9907 "/>
<path clip-path="url(#clip040)" d="M1367.57 374.544 Q1363.96 374.544 1362.13 378.109 Q1360.32 381.65 1360.32 388.78 Q1360.32 395.886 1362.13 399.451 Q1363.96 402.993 1367.57 402.993 Q1371.2 402.993 1373.01 399.451 Q1374.84 395.886 1374.84 388.78 Q1374.84 381.65 1373.01 378.109 Q1371.2 374.544 1367.57 374.544 M1367.57 370.84 Q1373.38 370.84 1376.44 375.447 Q1379.51 380.03 1379.51 388.78 Q1379.51 397.507 1376.44 402.113 Q1373.38 406.697 1367.57 406.697 Q1361.76 406.697 1358.68 402.113 Q1355.63 397.507 1355.63 388.78 Q1355.63 380.03 1358.68 375.447 Q1361.76 370.84 1367.57 370.84 Z" fill="#000000" fill-rule="nonzero" fill-opacity="1" /><path clip-path="url(#clip040)" d="M1387.73 400.146 L1392.62 400.146 L1392.62 406.025 L1387.73 406.025 L1387.73 400.146 Z" fill="#000000" fill-rule="nonzero" fill-opacity="1" /><path clip-path="url(#clip040)" d="M1412.8 374.544 Q1409.19 374.544 1407.36 378.109 Q1405.56 381.65 1405.56 388.78 Q1405.56 395.886 1407.36 399.451 Q1409.19 402.993 1412.8 402.993 Q1416.44 402.993 1418.24 399.451 Q1420.07 395.886 1420.07 388.78 Q1420.07 381.65 1418.24 378.109 Q1416.44 374.544 1412.8 374.544 M1412.8 370.84 Q1418.61 370.84 1421.67 375.447 Q1424.75 380.03 1424.75 388.78 Q1424.75 397.507 1421.67 402.113 Q1418.61 406.697 1412.8 406.697 Q1406.99 406.697 1403.91 402.113 Q1400.86 397.507 1400.86 388.78 Q1400.86 380.03 1403.91 375.447 Q1406.99 370.84 1412.8 370.84 Z" fill="#000000" fill-rule="nonzero" fill-opacity="1" /><path clip-path="url(#clip040)" d="M1368.8 320.418 Q1365.19 320.418 1363.36 323.983 Q1361.55 327.525 1361.55 334.654 Q1361.55 341.761 1363.36 345.325 Q1365.19 348.867 1368.8 348.867 Q1372.43 348.867 1374.24 345.325 Q1376.07 341.761 1376.07 334.654 Q1376.07 327.525 1374.24 323.983 Q1372.43 320.418 1368.8 320.418 M1368.8 316.714 Q1374.61 316.714 1377.66 321.321 Q1380.74 325.904 1380.74 334.654 Q1380.74 343.381 1377.66 347.987 Q1374.61 352.571 1368.8 352.571 Q1362.99 352.571 1359.91 347.987 Q1356.85 343.381 1356.85 334.654 Q1356.85 325.904 1359.91 321.321 Q1362.99 316.714 1368.8 316.714 Z" fill="#000000" fill-rule="nonzero" fill-opacity="1" /><path clip-path="url(#clip040)" d="M1388.96 346.02 L1393.84 346.02 L1393.84 351.899 L1388.96 351.899 L1388.96 346.02 Z" fill="#000000" fill-rule="nonzero" fill-opacity="1" /><path clip-path="url(#clip040)" d="M1404.84 347.964 L1412.48 347.964 L1412.48 321.599 L1404.17 323.265 L1404.17 319.006 L1412.43 317.339 L1417.11 317.339 L1417.11 347.964 L1424.75 347.964 L1424.75 351.899 L1404.84 351.899 L1404.84 347.964 Z" fill="#000000" fill-rule="nonzero" fill-opacity="1" /><path clip-path="url(#clip040)" d="M1369.17 266.292 Q1365.56 266.292 1363.73 269.857 Q1361.92 273.399 1361.92 280.528 Q1361.92 287.635 1363.73 291.2 Q1365.56 294.741 1369.17 294.741 Q1372.8 294.741 1374.61 291.2 Q1376.44 287.635 1376.44 280.528 Q1376.44 273.399 1374.61 269.857 Q1372.8 266.292 1369.17 266.292 M1369.17 262.589 Q1374.98 262.589 1378.03 267.195 Q1381.11 271.778 1381.11 280.528 Q1381.11 289.255 1378.03 293.862 Q1374.98 298.445 1369.17 298.445 Q1363.36 298.445 1360.28 293.862 Q1357.22 289.255 1357.22 280.528 Q1357.22 271.778 1360.28 267.195 Q1363.36 262.589 1369.17 262.589 Z" fill="#000000" fill-rule="nonzero" fill-opacity="1" /><path clip-path="url(#clip040)" d="M1389.33 291.894 L1394.21 291.894 L1394.21 297.774 L1389.33 297.774 L1389.33 291.894 Z" fill="#000000" fill-rule="nonzero" fill-opacity="1" /><path clip-path="url(#clip040)" d="M1408.43 293.839 L1424.75 293.839 L1424.75 297.774 L1402.8 297.774 L1402.8 293.839 Q1405.46 291.084 1410.05 286.454 Q1414.65 281.802 1415.83 280.459 Q1418.08 277.936 1418.96 276.2 Q1419.86 274.441 1419.86 272.751 Q1419.86 269.996 1417.92 268.26 Q1416 266.524 1412.89 266.524 Q1410.69 266.524 1408.24 267.288 Q1405.81 268.052 1403.03 269.603 L1403.03 264.88 Q1405.86 263.746 1408.31 263.167 Q1410.76 262.589 1412.8 262.589 Q1418.17 262.589 1421.37 265.274 Q1424.56 267.959 1424.56 272.45 Q1424.56 274.579 1423.75 276.501 Q1422.96 278.399 1420.86 280.991 Q1420.28 281.663 1417.18 284.88 Q1414.07 288.075 1408.43 293.839 Z" fill="#000000" fill-rule="nonzero" fill-opacity="1" /><path clip-path="url(#clip040)" d="M1368.22 212.167 Q1364.61 212.167 1362.78 215.731 Q1360.97 219.273 1360.97 226.403 Q1360.97 233.509 1362.78 237.074 Q1364.61 240.616 1368.22 240.616 Q1371.85 240.616 1373.66 237.074 Q1375.49 233.509 1375.49 226.403 Q1375.49 219.273 1373.66 215.731 Q1371.85 212.167 1368.22 212.167 M1368.22 208.463 Q1374.03 208.463 1377.08 213.069 Q1380.16 217.653 1380.16 226.403 Q1380.16 235.129 1377.08 239.736 Q1374.03 244.319 1368.22 244.319 Q1362.41 244.319 1359.33 239.736 Q1356.27 235.129 1356.27 226.403 Q1356.27 217.653 1359.33 213.069 Q1362.41 208.463 1368.22 208.463 Z" fill="#000000" fill-rule="nonzero" fill-opacity="1" /><path clip-path="url(#clip040)" d="M1388.38 237.768 L1393.26 237.768 L1393.26 243.648 L1388.38 243.648 L1388.38 237.768 Z" fill="#000000" fill-rule="nonzero" fill-opacity="1" /><path clip-path="url(#clip040)" d="M1417.62 225.014 Q1420.97 225.731 1422.85 228 Q1424.75 230.268 1424.75 233.602 Q1424.75 238.717 1421.23 241.518 Q1417.71 244.319 1411.23 244.319 Q1409.05 244.319 1406.74 243.879 Q1404.44 243.463 1401.99 242.606 L1401.99 238.092 Q1403.94 239.227 1406.25 239.805 Q1408.57 240.384 1411.09 240.384 Q1415.49 240.384 1417.78 238.648 Q1420.09 236.912 1420.09 233.602 Q1420.09 230.546 1417.94 228.833 Q1415.81 227.097 1411.99 227.097 L1407.96 227.097 L1407.96 223.255 L1412.18 223.255 Q1415.63 223.255 1417.45 221.889 Q1419.28 220.5 1419.28 217.907 Q1419.28 215.245 1417.38 213.833 Q1415.51 212.398 1411.99 212.398 Q1410.07 212.398 1407.87 212.815 Q1405.67 213.231 1403.03 214.111 L1403.03 209.944 Q1405.69 209.204 1408.01 208.833 Q1410.35 208.463 1412.41 208.463 Q1417.73 208.463 1420.83 210.894 Q1423.94 213.301 1423.94 217.421 Q1423.94 220.292 1422.29 222.282 Q1420.65 224.25 1417.62 225.014 Z" fill="#000000" fill-rule="nonzero" fill-opacity="1" /><path clip-path="url(#clip040)" d="M1367.08 158.041 Q1363.47 158.041 1361.64 161.606 Q1359.84 165.147 1359.84 172.277 Q1359.84 179.383 1361.64 182.948 Q1363.47 186.49 1367.08 186.49 Q1370.72 186.49 1372.52 182.948 Q1374.35 179.383 1374.35 172.277 Q1374.35 165.147 1372.52 161.606 Q1370.72 158.041 1367.08 158.041 M1367.08 154.337 Q1372.89 154.337 1375.95 158.944 Q1379.03 163.527 1379.03 172.277 Q1379.03 181.004 1375.95 185.61 Q1372.89 190.193 1367.08 190.193 Q1361.27 190.193 1358.2 185.61 Q1355.14 181.004 1355.14 172.277 Q1355.14 163.527 1358.2 158.944 Q1361.27 154.337 1367.08 154.337 Z" fill="#000000" fill-rule="nonzero" fill-opacity="1" /><path clip-path="url(#clip040)" d="M1387.25 183.643 L1392.13 183.643 L1392.13 189.522 L1387.25 189.522 L1387.25 183.643 Z" fill="#000000" fill-rule="nonzero" fill-opacity="1" /><path clip-path="url(#clip040)" d="M1415.16 159.036 L1403.36 177.485 L1415.16 177.485 L1415.16 159.036 M1413.94 154.962 L1419.82 154.962 L1419.82 177.485 L1424.75 177.485 L1424.75 181.374 L1419.82 181.374 L1419.82 189.522 L1415.16 189.522 L1415.16 181.374 L1399.56 181.374 L1399.56 176.86 L1413.94 154.962 Z" fill="#000000" fill-rule="nonzero" fill-opacity="1" /><path clip-path="url(#clip040)" d="M1368.57 103.915 Q1364.95 103.915 1363.13 107.48 Q1361.32 111.022 1361.32 118.151 Q1361.32 125.258 1363.13 128.822 Q1364.95 132.364 1368.57 132.364 Q1372.2 132.364 1374.01 128.822 Q1375.83 125.258 1375.83 118.151 Q1375.83 111.022 1374.01 107.48 Q1372.2 103.915 1368.57 103.915 M1368.57 100.211 Q1374.38 100.211 1377.43 104.818 Q1380.51 109.401 1380.51 118.151 Q1380.51 126.878 1377.43 131.484 Q1374.38 136.068 1368.57 136.068 Q1362.76 136.068 1359.68 131.484 Q1356.62 126.878 1356.62 118.151 Q1356.62 109.401 1359.68 104.818 Q1362.76 100.211 1368.57 100.211 Z" fill="#000000" fill-rule="nonzero" fill-opacity="1" /><path clip-path="url(#clip040)" d="M1388.73 129.517 L1393.61 129.517 L1393.61 135.396 L1388.73 135.396 L1388.73 129.517 Z" fill="#000000" fill-rule="nonzero" fill-opacity="1" /><path clip-path="url(#clip040)" d="M1403.84 100.836 L1422.2 100.836 L1422.2 104.772 L1408.13 104.772 L1408.13 113.244 Q1409.14 112.897 1410.16 112.735 Q1411.18 112.549 1412.2 112.549 Q1417.99 112.549 1421.37 115.721 Q1424.75 118.892 1424.75 124.309 Q1424.75 129.887 1421.27 132.989 Q1417.8 136.068 1411.48 136.068 Q1409.31 136.068 1407.04 135.697 Q1404.79 135.327 1402.38 134.586 L1402.38 129.887 Q1404.47 131.021 1406.69 131.577 Q1408.91 132.133 1411.39 132.133 Q1415.39 132.133 1417.73 130.026 Q1420.07 127.92 1420.07 124.309 Q1420.07 120.697 1417.73 118.591 Q1415.39 116.485 1411.39 116.485 Q1409.51 116.485 1407.64 116.901 Q1405.79 117.318 1403.84 118.197 L1403.84 100.836 Z" fill="#000000" fill-rule="nonzero" fill-opacity="1" /><path clip-path="url(#clip040)" d="M1367.41 49.7894 Q1363.8 49.7894 1361.97 53.3542 Q1360.16 56.8958 1360.16 64.0254 Q1360.16 71.1318 1361.97 74.6966 Q1363.8 78.2383 1367.41 78.2383 Q1371.04 78.2383 1372.85 74.6966 Q1374.68 71.1318 1374.68 64.0254 Q1374.68 56.8958 1372.85 53.3542 Q1371.04 49.7894 1367.41 49.7894 M1367.41 46.0857 Q1373.22 46.0857 1376.27 50.6921 Q1379.35 55.2755 1379.35 64.0254 Q1379.35 72.7522 1376.27 77.3587 Q1373.22 81.942 1367.41 81.942 Q1361.6 81.942 1358.52 77.3587 Q1355.46 72.7522 1355.46 64.0254 Q1355.46 55.2755 1358.52 50.6921 Q1361.6 46.0857 1367.41 46.0857 Z" fill="#000000" fill-rule="nonzero" fill-opacity="1" /><path clip-path="url(#clip040)" d="M1387.57 75.3911 L1392.45 75.3911 L1392.45 81.2707 L1387.57 81.2707 L1387.57 75.3911 Z" fill="#000000" fill-rule="nonzero" fill-opacity="1" /><path clip-path="url(#clip040)" d="M1413.22 62.1273 Q1410.07 62.1273 1408.22 64.28 Q1406.39 66.4328 1406.39 70.1828 Q1406.39 73.9096 1408.22 76.0855 Q1410.07 78.2383 1413.22 78.2383 Q1416.37 78.2383 1418.19 76.0855 Q1420.05 73.9096 1420.05 70.1828 Q1420.05 66.4328 1418.19 64.28 Q1416.37 62.1273 1413.22 62.1273 M1422.5 47.4746 L1422.5 51.7338 Q1420.74 50.9005 1418.94 50.4607 Q1417.15 50.0209 1415.39 50.0209 Q1410.76 50.0209 1408.31 53.1458 Q1405.88 56.2708 1405.53 62.5902 Q1406.9 60.5764 1408.96 59.5115 Q1411.02 58.4236 1413.5 58.4236 Q1418.7 58.4236 1421.71 61.5949 Q1424.75 64.743 1424.75 70.1828 Q1424.75 75.5068 1421.6 78.7244 Q1418.45 81.942 1413.22 81.942 Q1407.22 81.942 1404.05 77.3587 Q1400.88 72.7522 1400.88 64.0254 Q1400.88 55.831 1404.77 50.9699 Q1408.66 46.0857 1415.21 46.0857 Q1416.97 46.0857 1418.75 46.4329 Q1420.56 46.7801 1422.5 47.4746 Z" fill="#000000" fill-rule="nonzero" fill-opacity="1" /><path clip-path="url(#clip040)" d="M1270.76 220.971 Q1272.56 220.971 1273.6 222.098 Q1274.59 223.225 1274.59 224.513 Q1274.59 225.737 1273.89 226.381 Q1273.18 227.025 1272.27 227.025 Q1271.05 227.025 1269.99 226.123 Q1268.93 225.222 1268.7 223.869 Q1267.86 225.189 1267.86 227.154 Q1267.86 228.442 1268.54 229.569 Q1269.22 230.664 1270.08 231.341 Q1270.95 231.985 1272.21 232.565 Q1273.43 233.112 1274.17 233.338 Q1274.88 233.531 1275.66 233.692 L1284.67 235.946 Q1288.96 237.041 1290.47 237.041 Q1292.34 237.041 1293.6 236.139 Q1294.82 235.238 1294.82 233.434 Q1294.82 232.726 1294.63 231.92 Q1294.4 231.115 1293.82 230.085 Q1293.21 229.022 1292.31 228.088 Q1291.37 227.122 1289.79 226.188 Q1288.22 225.254 1286.19 224.642 Q1285.48 224.449 1285.48 223.805 Q1285.48 222.999 1286.12 222.999 Q1286.67 222.999 1287.83 223.45 Q1288.96 223.869 1290.44 224.803 Q1291.89 225.705 1293.21 226.896 Q1294.5 228.088 1295.4 229.859 Q1296.3 231.631 1296.3 233.563 Q1296.3 236.333 1294.82 238.168 Q1293.34 240.004 1291.28 240.68 Q1291.57 240.842 1291.95 241.067 Q1292.34 241.292 1293.21 241.969 Q1294.05 242.613 1294.69 243.354 Q1295.3 244.094 1295.79 245.254 Q1296.3 246.381 1296.3 247.605 Q1296.3 249.151 1295.85 250.535 Q1295.4 251.888 1294.37 252.854 Q1293.34 253.82 1291.92 253.82 Q1290.34 253.82 1289.25 252.758 Q1288.12 251.663 1288.12 250.181 Q1288.12 249.247 1288.67 248.507 Q1289.22 247.734 1290.41 247.734 Q1291.73 247.734 1292.73 248.635 Q1293.72 249.537 1293.98 250.825 Q1294.82 249.505 1294.82 247.54 Q1294.82 245.415 1292.95 243.74 Q1291.08 242.065 1287.96 241.26 Q1280.46 239.263 1277.11 238.49 Q1273.72 237.718 1272.27 237.718 Q1270.92 237.718 1269.99 238.072 Q1269.05 238.426 1268.64 239.038 Q1268.18 239.618 1268.02 240.165 Q1267.86 240.68 1267.86 241.26 Q1267.86 242.226 1268.25 243.321 Q1268.64 244.384 1269.54 245.672 Q1270.41 246.928 1272.21 248.12 Q1274.01 249.312 1276.49 250.117 Q1277.23 250.278 1277.23 250.986 Q1277.2 251.759 1276.56 251.759 Q1276.01 251.759 1274.88 251.341 Q1273.72 250.89 1272.27 249.988 Q1270.83 249.054 1269.54 247.862 Q1268.22 246.639 1267.32 244.867 Q1266.41 243.064 1266.41 241.131 Q1266.41 240.262 1266.61 239.424 Q1266.77 238.555 1267.25 237.524 Q1267.73 236.462 1268.8 235.528 Q1269.86 234.594 1271.41 234.014 Q1270.66 233.627 1269.96 233.112 Q1269.25 232.565 1268.38 231.727 Q1267.48 230.858 1266.96 229.666 Q1266.41 228.442 1266.41 227.09 Q1266.41 225.769 1266.77 224.481 Q1267.09 223.193 1268.15 222.098 Q1269.18 220.971 1270.76 220.971 Z" fill="#000000" fill-rule="nonzero" fill-opacity="1" /><path clip-path="url(#clip040)" d="M1288.22 214.249 L1286.77 214.249 Q1286.77 208.703 1283.82 205.84 Q1283.82 205.051 1284 204.916 Q1284.18 204.781 1285.02 204.781 L1310.92 204.781 Q1312.29 204.781 1312.72 204.104 Q1313.15 203.428 1313.15 200.475 L1313.15 199.009 L1314.57 199.009 Q1314.44 200.633 1314.44 206.494 Q1314.44 212.356 1314.57 213.956 L1313.15 213.956 L1313.15 212.491 Q1313.15 209.583 1312.74 208.884 Q1312.32 208.185 1310.92 208.185 L1287 208.185 Q1288.22 210.597 1288.22 214.249 Z" fill="#000000" fill-rule="nonzero" fill-opacity="1" /><polyline clip-path="url(#clip043)" style="stroke:#009af9; stroke-linecap:round; stroke-linejoin:round; stroke-width:4; stroke-opacity:1; fill:none" points="1485.99,388.745 1510.74,388.745 1535.49,332.364 1560.24,247.793 1584.99,162.914 1609.74,98.2385 1634.49,63.2568 1659.25,57.1907 1684,72.8012 1708.75,100.471 1733.5,131.009 1758.25,157.233 1783,174.749 1807.75,182.133 1832.5,180.518 1857.25,172.729 1882,162.22 1906.75,152.115 1931.5,144.574 1956.25,140.567 1981,139.997 2005.75,142.026 2030.5,145.48 2055.25,149.201 2080,152.294 2104.76,154.25 2129.51,154.953 2154.26,154.595 2179.01,153.549 2203.76,152.239 2228.51,151.03 2253.26,150.162 2278.01,149.733 2302.76,149.716 2327.51,150 "/>
<polyline clip-path="url(#clip043)" style="stroke:#e26f46; stroke-linecap:round; stroke-linejoin:round; stroke-width:3; stroke-opacity:1; fill:none" stroke-dasharray="12, 6, 2, 6" points="1485.99,388.745 1510.74,386.728 1535.49,326.38 1560.24,270.374 1584.99,164.208 1609.74,94.7087 1634.49,60.6078 1659.25,58.0645 1684,76.5961 1708.75,113.7 1733.5,138.434 1758.25,155.499 1783,179.082 1807.75,182.479 1832.5,178.599 1857.25,173.488 1882,153.29 1906.75,159.588 1931.5,138.973 1956.25,136.621 1981,149.091 2005.75,149.306 2030.5,138.932 2055.25,140.526 2080,145.031 2104.76,155.137 2129.51,158.862 2154.26,160.639 2179.01,159.481 2203.76,149.326 2228.51,147.502 2253.26,139.783 2278.01,163.762 2302.76,153.351 2327.51,155.769 "/>
<path clip-path="url(#clip040)" d="M2204.99 214.479 L2323.02 214.479 L2323.02 58.959 L2204.99 58.959  Z" fill="#ffffff" fill-rule="evenodd" fill-opacity="1"/>
<polyline clip-path="url(#clip040)" style="stroke:#000000; stroke-linecap:round; stroke-linejoin:round; stroke-width:4; stroke-opacity:1; fill:none" points="2204.99,214.479 2323.02,214.479 2323.02,58.959 2204.99,58.959 2204.99,214.479 "/>
<polyline clip-path="url(#clip040)" style="stroke:#009af9; stroke-linecap:round; stroke-linejoin:round; stroke-width:4; stroke-opacity:1; fill:none" points="2214.9,110.799 2274.37,110.799 "/>
<path clip-path="url(#clip040)" d="M2311.29 121.338 L2306.02 121.198 L2300.26 121.338 L2300.26 119.09 L2302.13 119.09 L2296.86 112.859 L2292.2 118.082 L2291.87 118.551 Q2291.87 118.762 2292.41 118.926 Q2292.97 119.09 2293.63 119.09 L2293.63 121.338 L2288.69 121.198 L2284.28 121.338 L2284.28 119.09 Q2285.76 119.09 2286.44 119.066 Q2287.14 119.019 2287.94 118.808 Q2288.73 118.598 2289.13 118.176 L2295.41 111.126 L2287.94 102.296 L2284.52 102.296 L2284.52 100.047 L2289.81 100.188 L2295.59 100.047 L2295.59 102.296 L2293.67 102.296 L2298.38 107.8 L2302.41 103.303 Q2302.43 103.279 2302.81 102.717 Q2302.06 102.296 2300.98 102.296 L2300.98 100.047 L2305.92 100.188 L2310.33 100.047 L2310.33 102.296 Q2308.41 102.296 2307.4 102.436 Q2306.42 102.553 2306.11 102.717 Q2305.83 102.881 2305.43 103.303 L2299.83 109.533 L2307.89 119.09 L2311.29 119.09 L2311.29 121.338 Z" fill="#000000" fill-rule="nonzero" fill-opacity="1" /><polyline clip-path="url(#clip040)" style="stroke:#e26f46; stroke-linecap:round; stroke-linejoin:round; stroke-width:3; stroke-opacity:1; fill:none" stroke-dasharray="12, 6, 2, 6" points="2214.9,162.639 2274.37,162.639 "/>
<path clip-path="url(#clip040)" d="M2306.87 151.117 L2306.46 151.789 Q2303.92 150.691 2300.75 148.936 Q2297.59 150.691 2295.05 151.789 L2294.65 151.117 Q2297.42 148.707 2300.75 146.854 Q2304.11 148.723 2306.87 151.117 Z" fill="#000000" fill-rule="nonzero" fill-opacity="1" /><path clip-path="url(#clip040)" d="M2311.29 178.183 L2306.02 178.042 L2300.26 178.183 L2300.26 175.934 L2302.13 175.934 L2296.86 169.704 L2292.2 174.927 L2291.87 175.395 Q2291.87 175.606 2292.41 175.77 Q2292.97 175.934 2293.63 175.934 L2293.63 178.183 L2288.69 178.042 L2284.28 178.183 L2284.28 175.934 Q2285.76 175.934 2286.44 175.911 Q2287.14 175.864 2287.94 175.653 Q2288.73 175.442 2289.13 175.021 L2295.41 167.97 L2287.94 159.14 L2284.52 159.14 L2284.52 156.892 L2289.81 157.032 L2295.59 156.892 L2295.59 159.14 L2293.67 159.14 L2298.38 164.644 L2302.41 160.147 Q2302.43 160.124 2302.81 159.562 Q2302.06 159.14 2300.98 159.14 L2300.98 156.892 L2305.92 157.032 L2310.33 156.892 L2310.33 159.14 Q2308.41 159.14 2307.4 159.281 Q2306.42 159.398 2306.11 159.562 Q2305.83 159.726 2305.43 160.147 L2299.83 166.378 L2307.89 175.934 L2311.29 175.934 L2311.29 178.183 Z" fill="#000000" fill-rule="nonzero" fill-opacity="1" /><path clip-path="url(#clip040)" d="M1460.75 910.936 L2352.76 910.936 L2352.76 559.488 L1460.75 559.488  Z" fill="#ffffff" fill-rule="evenodd" fill-opacity="1"/>
<defs>
  <clipPath id="clip044">
    <rect x="1460" y="559" width="893" height="352"/>
  </clipPath>
</defs>
<polyline clip-path="url(#clip044)" style="stroke:#000000; stroke-linecap:round; stroke-linejoin:round; stroke-width:2; stroke-opacity:0.1; fill:none" points="1485.99,910.936 1485.99,559.488 "/>
<polyline clip-path="url(#clip044)" style="stroke:#000000; stroke-linecap:round; stroke-linejoin:round; stroke-width:2; stroke-opacity:0.1; fill:none" points="1733.5,910.936 1733.5,559.488 "/>
<polyline clip-path="url(#clip044)" style="stroke:#000000; stroke-linecap:round; stroke-linejoin:round; stroke-width:2; stroke-opacity:0.1; fill:none" points="1981,910.936 1981,559.488 "/>
<polyline clip-path="url(#clip044)" style="stroke:#000000; stroke-linecap:round; stroke-linejoin:round; stroke-width:2; stroke-opacity:0.1; fill:none" points="2228.51,910.936 2228.51,559.488 "/>
<polyline clip-path="url(#clip040)" style="stroke:#000000; stroke-linecap:round; stroke-linejoin:round; stroke-width:4; stroke-opacity:1; fill:none" points="1460.75,910.936 2352.76,910.936 "/>
<polyline clip-path="url(#clip040)" style="stroke:#000000; stroke-linecap:round; stroke-linejoin:round; stroke-width:4; stroke-opacity:1; fill:none" points="1485.99,910.936 1485.99,892.038 "/>
<polyline clip-path="url(#clip040)" style="stroke:#000000; stroke-linecap:round; stroke-linejoin:round; stroke-width:4; stroke-opacity:1; fill:none" points="1733.5,910.936 1733.5,892.038 "/>
<polyline clip-path="url(#clip040)" style="stroke:#000000; stroke-linecap:round; stroke-linejoin:round; stroke-width:4; stroke-opacity:1; fill:none" points="1981,910.936 1981,892.038 "/>
<polyline clip-path="url(#clip040)" style="stroke:#000000; stroke-linecap:round; stroke-linejoin:round; stroke-width:4; stroke-opacity:1; fill:none" points="2228.51,910.936 2228.51,892.038 "/>
<path clip-path="url(#clip040)" d="M1485.99 941.855 Q1482.38 941.855 1480.55 945.419 Q1478.75 948.961 1478.75 956.091 Q1478.75 963.197 1480.55 966.762 Q1482.38 970.303 1485.99 970.303 Q1489.63 970.303 1491.43 966.762 Q1493.26 963.197 1493.26 956.091 Q1493.26 948.961 1491.43 945.419 Q1489.63 941.855 1485.99 941.855 M1485.99 938.151 Q1491.8 938.151 1494.86 942.757 Q1497.94 947.341 1497.94 956.091 Q1497.94 964.817 1494.86 969.424 Q1491.8 974.007 1485.99 974.007 Q1480.18 974.007 1477.1 969.424 Q1474.05 964.817 1474.05 956.091 Q1474.05 947.341 1477.1 942.757 Q1480.18 938.151 1485.99 938.151 Z" fill="#000000" fill-rule="nonzero" fill-opacity="1" /><path clip-path="url(#clip040)" d="M1723.88 969.401 L1731.52 969.401 L1731.52 943.035 L1723.21 944.702 L1723.21 940.443 L1731.47 938.776 L1736.15 938.776 L1736.15 969.401 L1743.79 969.401 L1743.79 973.336 L1723.88 973.336 L1723.88 969.401 Z" fill="#000000" fill-rule="nonzero" fill-opacity="1" /><path clip-path="url(#clip040)" d="M1975.66 969.401 L1991.97 969.401 L1991.97 973.336 L1970.03 973.336 L1970.03 969.401 Q1972.69 966.646 1977.28 962.016 Q1981.88 957.364 1983.06 956.021 Q1985.31 953.498 1986.19 951.762 Q1987.09 950.003 1987.09 948.313 Q1987.09 945.558 1985.15 943.822 Q1983.22 942.086 1980.12 942.086 Q1977.92 942.086 1975.47 942.85 Q1973.04 943.614 1970.26 945.165 L1970.26 940.443 Q1973.09 939.308 1975.54 938.73 Q1977.99 938.151 1980.03 938.151 Q1985.4 938.151 1988.6 940.836 Q1991.79 943.521 1991.79 948.012 Q1991.79 950.142 1990.98 952.063 Q1990.19 953.961 1988.09 956.554 Q1987.51 957.225 1984.41 960.442 Q1981.3 963.637 1975.66 969.401 Z" fill="#000000" fill-rule="nonzero" fill-opacity="1" /><path clip-path="url(#clip040)" d="M2232.76 954.702 Q2236.11 955.419 2237.99 957.688 Q2239.89 959.956 2239.89 963.29 Q2239.89 968.405 2236.37 971.206 Q2232.85 974.007 2226.37 974.007 Q2224.19 974.007 2221.88 973.567 Q2219.58 973.151 2217.13 972.294 L2217.13 967.78 Q2219.08 968.915 2221.39 969.493 Q2223.7 970.072 2226.23 970.072 Q2230.63 970.072 2232.92 968.336 Q2235.23 966.6 2235.23 963.29 Q2235.23 960.234 2233.08 958.521 Q2230.95 956.785 2227.13 956.785 L2223.1 956.785 L2223.1 952.942 L2227.32 952.942 Q2230.77 952.942 2232.59 951.577 Q2234.42 950.188 2234.42 947.595 Q2234.42 944.933 2232.52 943.521 Q2230.65 942.086 2227.13 942.086 Q2225.21 942.086 2223.01 942.503 Q2220.81 942.919 2218.17 943.799 L2218.17 939.632 Q2220.83 938.892 2223.15 938.521 Q2225.49 938.151 2227.55 938.151 Q2232.87 938.151 2235.97 940.581 Q2239.08 942.989 2239.08 947.109 Q2239.08 949.979 2237.43 951.97 Q2235.79 953.938 2232.76 954.702 Z" fill="#000000" fill-rule="nonzero" fill-opacity="1" /><polyline clip-path="url(#clip044)" style="stroke:#000000; stroke-linecap:round; stroke-linejoin:round; stroke-width:2; stroke-opacity:0.1; fill:none" points="1460.75,856.741 2352.76,856.741 "/>
<polyline clip-path="url(#clip044)" style="stroke:#000000; stroke-linecap:round; stroke-linejoin:round; stroke-width:2; stroke-opacity:0.1; fill:none" points="1460.75,789.588 2352.76,789.588 "/>
<polyline clip-path="url(#clip044)" style="stroke:#000000; stroke-linecap:round; stroke-linejoin:round; stroke-width:2; stroke-opacity:0.1; fill:none" points="1460.75,722.435 2352.76,722.435 "/>
<polyline clip-path="url(#clip044)" style="stroke:#000000; stroke-linecap:round; stroke-linejoin:round; stroke-width:2; stroke-opacity:0.1; fill:none" points="1460.75,655.283 2352.76,655.283 "/>
<polyline clip-path="url(#clip044)" style="stroke:#000000; stroke-linecap:round; stroke-linejoin:round; stroke-width:2; stroke-opacity:0.1; fill:none" points="1460.75,588.13 2352.76,588.13 "/>
<polyline clip-path="url(#clip040)" style="stroke:#000000; stroke-linecap:round; stroke-linejoin:round; stroke-width:4; stroke-opacity:1; fill:none" points="1460.75,910.936 1460.75,559.488 "/>
<polyline clip-path="url(#clip040)" style="stroke:#000000; stroke-linecap:round; stroke-linejoin:round; stroke-width:4; stroke-opacity:1; fill:none" points="1460.75,856.741 1479.64,856.741 "/>
<polyline clip-path="url(#clip040)" style="stroke:#000000; stroke-linecap:round; stroke-linejoin:round; stroke-width:4; stroke-opacity:1; fill:none" points="1460.75,789.588 1479.64,789.588 "/>
<polyline clip-path="url(#clip040)" style="stroke:#000000; stroke-linecap:round; stroke-linejoin:round; stroke-width:4; stroke-opacity:1; fill:none" points="1460.75,722.435 1479.64,722.435 "/>
<polyline clip-path="url(#clip040)" style="stroke:#000000; stroke-linecap:round; stroke-linejoin:round; stroke-width:4; stroke-opacity:1; fill:none" points="1460.75,655.283 1479.64,655.283 "/>
<polyline clip-path="url(#clip040)" style="stroke:#000000; stroke-linecap:round; stroke-linejoin:round; stroke-width:4; stroke-opacity:1; fill:none" points="1460.75,588.13 1479.64,588.13 "/>
<path clip-path="url(#clip040)" d="M1318.8 857.192 L1348.47 857.192 L1348.47 861.127 L1318.8 861.127 L1318.8 857.192 Z" fill="#000000" fill-rule="nonzero" fill-opacity="1" /><path clip-path="url(#clip040)" d="M1368.57 842.539 Q1364.95 842.539 1363.13 846.104 Q1361.32 849.646 1361.32 856.775 Q1361.32 863.882 1363.13 867.447 Q1364.95 870.988 1368.57 870.988 Q1372.2 870.988 1374.01 867.447 Q1375.83 863.882 1375.83 856.775 Q1375.83 849.646 1374.01 846.104 Q1372.2 842.539 1368.57 842.539 M1368.57 838.836 Q1374.38 838.836 1377.43 843.442 Q1380.51 848.025 1380.51 856.775 Q1380.51 865.502 1377.43 870.109 Q1374.38 874.692 1368.57 874.692 Q1362.76 874.692 1359.68 870.109 Q1356.62 865.502 1356.62 856.775 Q1356.62 848.025 1359.68 843.442 Q1362.76 838.836 1368.57 838.836 Z" fill="#000000" fill-rule="nonzero" fill-opacity="1" /><path clip-path="url(#clip040)" d="M1388.73 868.141 L1393.61 868.141 L1393.61 874.021 L1388.73 874.021 L1388.73 868.141 Z" fill="#000000" fill-rule="nonzero" fill-opacity="1" /><path clip-path="url(#clip040)" d="M1403.84 839.461 L1422.2 839.461 L1422.2 843.396 L1408.13 843.396 L1408.13 851.868 Q1409.14 851.521 1410.16 851.359 Q1411.18 851.173 1412.2 851.173 Q1417.99 851.173 1421.37 854.345 Q1424.75 857.516 1424.75 862.933 Q1424.75 868.511 1421.27 871.613 Q1417.8 874.692 1411.48 874.692 Q1409.31 874.692 1407.04 874.322 Q1404.79 873.951 1402.38 873.21 L1402.38 868.511 Q1404.47 869.646 1406.69 870.201 Q1408.91 870.757 1411.39 870.757 Q1415.39 870.757 1417.73 868.65 Q1420.07 866.544 1420.07 862.933 Q1420.07 859.322 1417.73 857.215 Q1415.39 855.109 1411.39 855.109 Q1409.51 855.109 1407.64 855.525 Q1405.79 855.942 1403.84 856.822 L1403.84 839.461 Z" fill="#000000" fill-rule="nonzero" fill-opacity="1" /><path clip-path="url(#clip040)" d="M1367.57 775.387 Q1363.96 775.387 1362.13 778.951 Q1360.32 782.493 1360.32 789.623 Q1360.32 796.729 1362.13 800.294 Q1363.96 803.836 1367.57 803.836 Q1371.2 803.836 1373.01 800.294 Q1374.84 796.729 1374.84 789.623 Q1374.84 782.493 1373.01 778.951 Q1371.2 775.387 1367.57 775.387 M1367.57 771.683 Q1373.38 771.683 1376.44 776.289 Q1379.51 780.873 1379.51 789.623 Q1379.51 798.35 1376.44 802.956 Q1373.38 807.539 1367.57 807.539 Q1361.76 807.539 1358.68 802.956 Q1355.63 798.35 1355.63 789.623 Q1355.63 780.873 1358.68 776.289 Q1361.76 771.683 1367.57 771.683 Z" fill="#000000" fill-rule="nonzero" fill-opacity="1" /><path clip-path="url(#clip040)" d="M1387.73 800.988 L1392.62 800.988 L1392.62 806.868 L1387.73 806.868 L1387.73 800.988 Z" fill="#000000" fill-rule="nonzero" fill-opacity="1" /><path clip-path="url(#clip040)" d="M1412.8 775.387 Q1409.19 775.387 1407.36 778.951 Q1405.56 782.493 1405.56 789.623 Q1405.56 796.729 1407.36 800.294 Q1409.19 803.836 1412.8 803.836 Q1416.44 803.836 1418.24 800.294 Q1420.07 796.729 1420.07 789.623 Q1420.07 782.493 1418.24 778.951 Q1416.44 775.387 1412.8 775.387 M1412.8 771.683 Q1418.61 771.683 1421.67 776.289 Q1424.75 780.873 1424.75 789.623 Q1424.75 798.35 1421.67 802.956 Q1418.61 807.539 1412.8 807.539 Q1406.99 807.539 1403.91 802.956 Q1400.86 798.35 1400.86 789.623 Q1400.86 780.873 1403.91 776.289 Q1406.99 771.683 1412.8 771.683 Z" fill="#000000" fill-rule="nonzero" fill-opacity="1" /><path clip-path="url(#clip040)" d="M1368.57 708.234 Q1364.95 708.234 1363.13 711.799 Q1361.32 715.341 1361.32 722.47 Q1361.32 729.577 1363.13 733.141 Q1364.95 736.683 1368.57 736.683 Q1372.2 736.683 1374.01 733.141 Q1375.83 729.577 1375.83 722.47 Q1375.83 715.341 1374.01 711.799 Q1372.2 708.234 1368.57 708.234 M1368.57 704.53 Q1374.38 704.53 1377.43 709.137 Q1380.51 713.72 1380.51 722.47 Q1380.51 731.197 1377.43 735.803 Q1374.38 740.387 1368.57 740.387 Q1362.76 740.387 1359.68 735.803 Q1356.62 731.197 1356.62 722.47 Q1356.62 713.72 1359.68 709.137 Q1362.76 704.53 1368.57 704.53 Z" fill="#000000" fill-rule="nonzero" fill-opacity="1" /><path clip-path="url(#clip040)" d="M1388.73 733.836 L1393.61 733.836 L1393.61 739.715 L1388.73 739.715 L1388.73 733.836 Z" fill="#000000" fill-rule="nonzero" fill-opacity="1" /><path clip-path="url(#clip040)" d="M1403.84 705.155 L1422.2 705.155 L1422.2 709.091 L1408.13 709.091 L1408.13 717.563 Q1409.14 717.215 1410.16 717.053 Q1411.18 716.868 1412.2 716.868 Q1417.99 716.868 1421.37 720.04 Q1424.75 723.211 1424.75 728.627 Q1424.75 734.206 1421.27 737.308 Q1417.8 740.387 1411.48 740.387 Q1409.31 740.387 1407.04 740.016 Q1404.79 739.646 1402.38 738.905 L1402.38 734.206 Q1404.47 735.34 1406.69 735.896 Q1408.91 736.451 1411.39 736.451 Q1415.39 736.451 1417.73 734.345 Q1420.07 732.239 1420.07 728.627 Q1420.07 725.016 1417.73 722.91 Q1415.39 720.803 1411.39 720.803 Q1409.51 720.803 1407.64 721.22 Q1405.79 721.637 1403.84 722.516 L1403.84 705.155 Z" fill="#000000" fill-rule="nonzero" fill-opacity="1" /><path clip-path="url(#clip040)" d="M1358.38 668.628 L1366.02 668.628 L1366.02 642.262 L1357.71 643.929 L1357.71 639.669 L1365.97 638.003 L1370.65 638.003 L1370.65 668.628 L1378.29 668.628 L1378.29 672.563 L1358.38 672.563 L1358.38 668.628 Z" fill="#000000" fill-rule="nonzero" fill-opacity="1" /><path clip-path="url(#clip040)" d="M1387.73 666.683 L1392.62 666.683 L1392.62 672.563 L1387.73 672.563 L1387.73 666.683 Z" fill="#000000" fill-rule="nonzero" fill-opacity="1" /><path clip-path="url(#clip040)" d="M1412.8 641.081 Q1409.19 641.081 1407.36 644.646 Q1405.56 648.188 1405.56 655.317 Q1405.56 662.424 1407.36 665.989 Q1409.19 669.53 1412.8 669.53 Q1416.44 669.53 1418.24 665.989 Q1420.07 662.424 1420.07 655.317 Q1420.07 648.188 1418.24 644.646 Q1416.44 641.081 1412.8 641.081 M1412.8 637.378 Q1418.61 637.378 1421.67 641.984 Q1424.75 646.568 1424.75 655.317 Q1424.75 664.044 1421.67 668.651 Q1418.61 673.234 1412.8 673.234 Q1406.99 673.234 1403.91 668.651 Q1400.86 664.044 1400.86 655.317 Q1400.86 646.568 1403.91 641.984 Q1406.99 637.378 1412.8 637.378 Z" fill="#000000" fill-rule="nonzero" fill-opacity="1" /><path clip-path="url(#clip040)" d="M1359.38 601.475 L1367.01 601.475 L1367.01 575.109 L1358.7 576.776 L1358.7 572.517 L1366.97 570.85 L1371.64 570.85 L1371.64 601.475 L1379.28 601.475 L1379.28 605.41 L1359.38 605.41 L1359.38 601.475 Z" fill="#000000" fill-rule="nonzero" fill-opacity="1" /><path clip-path="url(#clip040)" d="M1388.73 599.531 L1393.61 599.531 L1393.61 605.41 L1388.73 605.41 L1388.73 599.531 Z" fill="#000000" fill-rule="nonzero" fill-opacity="1" /><path clip-path="url(#clip040)" d="M1403.84 570.85 L1422.2 570.85 L1422.2 574.785 L1408.13 574.785 L1408.13 583.257 Q1409.14 582.91 1410.16 582.748 Q1411.18 582.563 1412.2 582.563 Q1417.99 582.563 1421.37 585.734 Q1424.75 588.906 1424.75 594.322 Q1424.75 599.901 1421.27 603.003 Q1417.8 606.081 1411.48 606.081 Q1409.31 606.081 1407.04 605.711 Q1404.79 605.341 1402.38 604.6 L1402.38 599.901 Q1404.47 601.035 1406.69 601.591 Q1408.91 602.146 1411.39 602.146 Q1415.39 602.146 1417.73 600.04 Q1420.07 597.933 1420.07 594.322 Q1420.07 590.711 1417.73 588.605 Q1415.39 586.498 1411.39 586.498 Q1409.51 586.498 1407.64 586.915 Q1405.79 587.332 1403.84 588.211 L1403.84 570.85 Z" fill="#000000" fill-rule="nonzero" fill-opacity="1" /><path clip-path="url(#clip040)" d="M1234.42 734.795 Q1236.22 734.795 1237.25 735.922 Q1238.25 737.049 1238.25 738.338 Q1238.25 739.561 1237.54 740.206 Q1236.83 740.85 1235.93 740.85 Q1234.71 740.85 1233.65 739.948 Q1232.58 739.046 1232.36 737.693 Q1231.52 739.014 1231.52 740.978 Q1231.52 742.267 1232.2 743.394 Q1232.87 744.489 1233.74 745.165 Q1234.61 745.809 1235.87 746.389 Q1237.09 746.937 1237.83 747.162 Q1238.54 747.355 1239.31 747.516 L1248.33 749.771 Q1252.61 750.866 1254.13 750.866 Q1256 750.866 1257.25 749.964 Q1258.48 749.062 1258.48 747.259 Q1258.48 746.55 1258.28 745.745 Q1258.06 744.94 1257.48 743.909 Q1256.87 742.846 1255.96 741.912 Q1255.03 740.946 1253.45 740.012 Q1251.87 739.078 1249.85 738.466 Q1249.14 738.273 1249.14 737.629 Q1249.14 736.824 1249.78 736.824 Q1250.33 736.824 1251.49 737.275 Q1252.61 737.693 1254.1 738.627 Q1255.55 739.529 1256.87 740.721 Q1258.15 741.912 1259.06 743.684 Q1259.96 745.455 1259.96 747.387 Q1259.96 750.157 1258.48 751.993 Q1256.99 753.829 1254.93 754.505 Q1255.22 754.666 1255.61 754.891 Q1256 755.117 1256.87 755.793 Q1257.7 756.437 1258.35 757.178 Q1258.96 757.919 1259.44 759.078 Q1259.96 760.205 1259.96 761.429 Q1259.96 762.975 1259.51 764.36 Q1259.06 765.713 1258.03 766.679 Q1256.99 767.645 1255.58 767.645 Q1254 767.645 1252.9 766.582 Q1251.78 765.487 1251.78 764.006 Q1251.78 763.072 1252.33 762.331 Q1252.87 761.558 1254.06 761.558 Q1255.38 761.558 1256.38 762.46 Q1257.38 763.362 1257.64 764.65 Q1258.48 763.329 1258.48 761.365 Q1258.48 759.239 1256.61 757.565 Q1254.74 755.89 1251.62 755.085 Q1244.11 753.088 1240.76 752.315 Q1237.38 751.542 1235.93 751.542 Q1234.58 751.542 1233.65 751.896 Q1232.71 752.251 1232.29 752.862 Q1231.84 753.442 1231.68 753.99 Q1231.52 754.505 1231.52 755.085 Q1231.52 756.051 1231.91 757.146 Q1232.29 758.209 1233.19 759.497 Q1234.06 760.753 1235.87 761.944 Q1237.67 763.136 1240.15 763.941 Q1240.89 764.102 1240.89 764.811 Q1240.86 765.584 1240.22 765.584 Q1239.67 765.584 1238.54 765.165 Q1237.38 764.714 1235.93 763.812 Q1234.48 762.878 1233.19 761.687 Q1231.87 760.463 1230.97 758.692 Q1230.07 756.888 1230.07 754.956 Q1230.07 754.086 1230.26 753.249 Q1230.43 752.379 1230.91 751.349 Q1231.39 750.286 1232.45 749.352 Q1233.52 748.418 1235.06 747.838 Q1234.32 747.452 1233.61 746.937 Q1232.91 746.389 1232.04 745.552 Q1231.13 744.682 1230.62 743.491 Q1230.07 742.267 1230.07 740.914 Q1230.07 739.594 1230.43 738.305 Q1230.75 737.017 1231.81 735.922 Q1232.84 734.795 1234.42 734.795 Z" fill="#000000" fill-rule="nonzero" fill-opacity="1" /><path clip-path="url(#clip040)" d="M1278.23 728.074 Q1277.39 728.074 1277.15 728.006 Q1276.9 727.916 1276.51 727.555 L1266.64 718.695 Q1261.18 713.848 1256.43 713.848 Q1253.34 713.848 1251.13 715.472 Q1248.92 717.072 1248.92 720.025 Q1248.92 722.054 1250.16 723.768 Q1251.4 725.481 1253.61 726.27 Q1253.56 726.135 1253.56 725.661 Q1253.56 724.512 1254.29 723.88 Q1255.01 723.227 1255.98 723.227 Q1257.22 723.227 1257.83 724.038 Q1258.41 724.827 1258.41 725.616 Q1258.41 725.932 1258.34 726.36 Q1258.28 726.766 1257.65 727.42 Q1256.99 728.074 1255.84 728.074 Q1252.62 728.074 1250.05 725.639 Q1247.48 723.182 1247.48 719.439 Q1247.48 715.201 1250 712.428 Q1252.51 709.633 1256.43 709.633 Q1257.8 709.633 1259.07 710.061 Q1260.31 710.467 1261.27 711.03 Q1262.24 711.571 1263.8 713.059 Q1265.36 714.547 1266.46 715.742 Q1267.56 716.937 1269.91 719.62 L1274.67 724.512 L1274.67 716.193 Q1274.67 712.135 1274.31 711.819 Q1273.65 711.369 1270.2 710.805 L1270.2 709.633 L1278.23 710.94 L1278.23 728.074 Z" fill="#000000" fill-rule="nonzero" fill-opacity="1" /><polyline clip-path="url(#clip044)" style="stroke:#009af9; stroke-linecap:round; stroke-linejoin:round; stroke-width:4; stroke-opacity:1; fill:none" points="1485.99,789.588 1510.74,649.687 1535.49,579.736 1560.24,578.975 1584.99,629.104 1609.74,702.786 1634.49,774.536 1659.25,828.323 1684,858.246 1708.75,865.365 1733.5,854.658 1758.25,833.053 1783,807.911 1807.75,785.58 1832.5,770.26 1857.25,763.511 1882,764.513 1906.75,770.876 1931.5,779.647 1956.25,788.172 1981,794.623 2005.75,798.159 2030.5,798.82 2055.25,797.263 2080,794.443 2104.76,791.332 2129.51,788.698 2154.26,786.993 2179.01,786.338 2203.76,786.588 2228.51,787.435 2253.26,788.524 2278.01,789.545 2302.76,790.292 2327.51,790.675 "/>
<polyline clip-path="url(#clip044)" style="stroke:#e26f46; stroke-linecap:round; stroke-linejoin:round; stroke-width:3; stroke-opacity:1; fill:none" stroke-dasharray="12, 6, 2, 6" points="1485.99,789.588 1510.74,650.913 1535.49,569.435 1560.24,601.308 1584.99,607.023 1609.74,685.62 1634.49,773.401 1659.25,843.911 1684,885.546 1708.75,900.989 1733.5,883.995 1758.25,854.932 1783,828.514 1807.75,795.761 1832.5,772.723 1857.25,761.875 1882,755.311 1906.75,769.419 1931.5,769.455 1956.25,783.283 1981,797.44 2005.75,797.377 2030.5,792.982 2055.25,796.793 2080,798.721 2104.76,799.412 2129.51,793.869 2154.26,788.511 2179.01,784.077 2203.76,779.549 2228.51,783.532 2253.26,785.1 2278.01,798.868 2302.76,788.101 2327.51,789.041 "/>
<path clip-path="url(#clip040)" d="M2204.99 726.723 L2323.02 726.723 L2323.02 571.203 L2204.99 571.203  Z" fill="#ffffff" fill-rule="evenodd" fill-opacity="1"/>
<polyline clip-path="url(#clip040)" style="stroke:#000000; stroke-linecap:round; stroke-linejoin:round; stroke-width:4; stroke-opacity:1; fill:none" points="2204.99,726.723 2323.02,726.723 2323.02,571.203 2204.99,571.203 2204.99,726.723 "/>
<polyline clip-path="url(#clip040)" style="stroke:#009af9; stroke-linecap:round; stroke-linejoin:round; stroke-width:4; stroke-opacity:1; fill:none" points="2214.9,623.043 2274.37,623.043 "/>
<path clip-path="url(#clip040)" d="M2311.29 633.582 L2306.02 633.442 L2300.26 633.582 L2300.26 631.334 L2302.13 631.334 L2296.86 625.103 L2292.2 630.326 L2291.87 630.795 Q2291.87 631.006 2292.41 631.17 Q2292.97 631.334 2293.63 631.334 L2293.63 633.582 L2288.69 633.442 L2284.28 633.582 L2284.28 631.334 Q2285.76 631.334 2286.44 631.31 Q2287.14 631.263 2287.94 631.052 Q2288.73 630.842 2289.13 630.42 L2295.41 623.37 L2287.94 614.54 L2284.52 614.54 L2284.52 612.291 L2289.81 612.432 L2295.59 612.291 L2295.59 614.54 L2293.67 614.54 L2298.38 620.044 L2302.41 615.547 Q2302.43 615.523 2302.81 614.961 Q2302.06 614.54 2300.98 614.54 L2300.98 612.291 L2305.92 612.432 L2310.33 612.291 L2310.33 614.54 Q2308.41 614.54 2307.4 614.68 Q2306.42 614.797 2306.11 614.961 Q2305.83 615.125 2305.43 615.547 L2299.83 621.777 L2307.89 631.334 L2311.29 631.334 L2311.29 633.582 Z" fill="#000000" fill-rule="nonzero" fill-opacity="1" /><polyline clip-path="url(#clip040)" style="stroke:#e26f46; stroke-linecap:round; stroke-linejoin:round; stroke-width:3; stroke-opacity:1; fill:none" stroke-dasharray="12, 6, 2, 6" points="2214.9,674.883 2274.37,674.883 "/>
<path clip-path="url(#clip040)" d="M2306.87 663.361 L2306.46 664.033 Q2303.92 662.935 2300.75 661.18 Q2297.59 662.935 2295.05 664.033 L2294.65 663.361 Q2297.42 660.951 2300.75 659.098 Q2304.11 660.967 2306.87 663.361 Z" fill="#000000" fill-rule="nonzero" fill-opacity="1" /><path clip-path="url(#clip040)" d="M2311.29 690.427 L2306.02 690.286 L2300.26 690.427 L2300.26 688.178 L2302.13 688.178 L2296.86 681.948 L2292.2 687.171 L2291.87 687.639 Q2291.87 687.85 2292.41 688.014 Q2292.97 688.178 2293.63 688.178 L2293.63 690.427 L2288.69 690.286 L2284.28 690.427 L2284.28 688.178 Q2285.76 688.178 2286.44 688.155 Q2287.14 688.108 2287.94 687.897 Q2288.73 687.686 2289.13 687.265 L2295.41 680.214 L2287.94 671.384 L2284.52 671.384 L2284.52 669.136 L2289.81 669.276 L2295.59 669.136 L2295.59 671.384 L2293.67 671.384 L2298.38 676.888 L2302.41 672.391 Q2302.43 672.368 2302.81 671.806 Q2302.06 671.384 2300.98 671.384 L2300.98 669.136 L2305.92 669.276 L2310.33 669.136 L2310.33 671.384 Q2308.41 671.384 2307.4 671.525 Q2306.42 671.642 2306.11 671.806 Q2305.83 671.97 2305.43 672.391 L2299.83 678.622 L2307.89 688.178 L2311.29 688.178 L2311.29 690.427 Z" fill="#000000" fill-rule="nonzero" fill-opacity="1" /><path clip-path="url(#clip040)" d="M1460.75 1423.18 L2352.76 1423.18 L2352.76 1071.73 L1460.75 1071.73  Z" fill="#ffffff" fill-rule="evenodd" fill-opacity="1"/>
<defs>
  <clipPath id="clip045">
    <rect x="1460" y="1071" width="893" height="352"/>
  </clipPath>
</defs>
<polyline clip-path="url(#clip045)" style="stroke:#000000; stroke-linecap:round; stroke-linejoin:round; stroke-width:2; stroke-opacity:0.1; fill:none" points="1485.99,1423.18 1485.99,1071.73 "/>
<polyline clip-path="url(#clip045)" style="stroke:#000000; stroke-linecap:round; stroke-linejoin:round; stroke-width:2; stroke-opacity:0.1; fill:none" points="1733.5,1423.18 1733.5,1071.73 "/>
<polyline clip-path="url(#clip045)" style="stroke:#000000; stroke-linecap:round; stroke-linejoin:round; stroke-width:2; stroke-opacity:0.1; fill:none" points="1981,1423.18 1981,1071.73 "/>
<polyline clip-path="url(#clip045)" style="stroke:#000000; stroke-linecap:round; stroke-linejoin:round; stroke-width:2; stroke-opacity:0.1; fill:none" points="2228.51,1423.18 2228.51,1071.73 "/>
<polyline clip-path="url(#clip040)" style="stroke:#000000; stroke-linecap:round; stroke-linejoin:round; stroke-width:4; stroke-opacity:1; fill:none" points="1460.75,1423.18 2352.76,1423.18 "/>
<polyline clip-path="url(#clip040)" style="stroke:#000000; stroke-linecap:round; stroke-linejoin:round; stroke-width:4; stroke-opacity:1; fill:none" points="1485.99,1423.18 1485.99,1404.28 "/>
<polyline clip-path="url(#clip040)" style="stroke:#000000; stroke-linecap:round; stroke-linejoin:round; stroke-width:4; stroke-opacity:1; fill:none" points="1733.5,1423.18 1733.5,1404.28 "/>
<polyline clip-path="url(#clip040)" style="stroke:#000000; stroke-linecap:round; stroke-linejoin:round; stroke-width:4; stroke-opacity:1; fill:none" points="1981,1423.18 1981,1404.28 "/>
<polyline clip-path="url(#clip040)" style="stroke:#000000; stroke-linecap:round; stroke-linejoin:round; stroke-width:4; stroke-opacity:1; fill:none" points="2228.51,1423.18 2228.51,1404.28 "/>
<path clip-path="url(#clip040)" d="M1485.99 1454.1 Q1482.38 1454.1 1480.55 1457.66 Q1478.75 1461.2 1478.75 1468.33 Q1478.75 1475.44 1480.55 1479.01 Q1482.38 1482.55 1485.99 1482.55 Q1489.63 1482.55 1491.43 1479.01 Q1493.26 1475.44 1493.26 1468.33 Q1493.26 1461.2 1491.43 1457.66 Q1489.63 1454.1 1485.99 1454.1 M1485.99 1450.39 Q1491.8 1450.39 1494.86 1455 Q1497.94 1459.58 1497.94 1468.33 Q1497.94 1477.06 1494.86 1481.67 Q1491.8 1486.25 1485.99 1486.25 Q1480.18 1486.25 1477.1 1481.67 Q1474.05 1477.06 1474.05 1468.33 Q1474.05 1459.58 1477.1 1455 Q1480.18 1450.39 1485.99 1450.39 Z" fill="#000000" fill-rule="nonzero" fill-opacity="1" /><path clip-path="url(#clip040)" d="M1723.88 1481.64 L1731.52 1481.64 L1731.52 1455.28 L1723.21 1456.95 L1723.21 1452.69 L1731.47 1451.02 L1736.15 1451.02 L1736.15 1481.64 L1743.79 1481.64 L1743.79 1485.58 L1723.88 1485.58 L1723.88 1481.64 Z" fill="#000000" fill-rule="nonzero" fill-opacity="1" /><path clip-path="url(#clip040)" d="M1975.66 1481.64 L1991.97 1481.64 L1991.97 1485.58 L1970.03 1485.58 L1970.03 1481.64 Q1972.69 1478.89 1977.28 1474.26 Q1981.88 1469.61 1983.06 1468.27 Q1985.31 1465.74 1986.19 1464.01 Q1987.09 1462.25 1987.09 1460.56 Q1987.09 1457.8 1985.15 1456.07 Q1983.22 1454.33 1980.12 1454.33 Q1977.92 1454.33 1975.47 1455.09 Q1973.04 1455.86 1970.26 1457.41 L1970.26 1452.69 Q1973.09 1451.55 1975.54 1450.97 Q1977.99 1450.39 1980.03 1450.39 Q1985.4 1450.39 1988.6 1453.08 Q1991.79 1455.77 1991.79 1460.26 Q1991.79 1462.39 1990.98 1464.31 Q1990.19 1466.2 1988.09 1468.8 Q1987.51 1469.47 1984.41 1472.69 Q1981.3 1475.88 1975.66 1481.64 Z" fill="#000000" fill-rule="nonzero" fill-opacity="1" /><path clip-path="url(#clip040)" d="M2232.76 1466.95 Q2236.11 1467.66 2237.99 1469.93 Q2239.89 1472.2 2239.89 1475.53 Q2239.89 1480.65 2236.37 1483.45 Q2232.85 1486.25 2226.37 1486.25 Q2224.19 1486.25 2221.88 1485.81 Q2219.58 1485.39 2217.13 1484.54 L2217.13 1480.02 Q2219.08 1481.16 2221.39 1481.74 Q2223.7 1482.32 2226.23 1482.32 Q2230.63 1482.32 2232.92 1480.58 Q2235.23 1478.84 2235.23 1475.53 Q2235.23 1472.48 2233.08 1470.77 Q2230.95 1469.03 2227.13 1469.03 L2223.1 1469.03 L2223.1 1465.19 L2227.32 1465.19 Q2230.77 1465.19 2232.59 1463.82 Q2234.42 1462.43 2234.42 1459.84 Q2234.42 1457.18 2232.52 1455.77 Q2230.65 1454.33 2227.13 1454.33 Q2225.21 1454.33 2223.01 1454.75 Q2220.81 1455.16 2218.17 1456.04 L2218.17 1451.88 Q2220.83 1451.14 2223.15 1450.77 Q2225.49 1450.39 2227.55 1450.39 Q2232.87 1450.39 2235.97 1452.83 Q2239.08 1455.23 2239.08 1459.35 Q2239.08 1462.22 2237.43 1464.21 Q2235.79 1466.18 2232.76 1466.95 Z" fill="#000000" fill-rule="nonzero" fill-opacity="1" /><path clip-path="url(#clip040)" d="M1776.92 1520.52 L1817.12 1520.52 L1817.12 1525.93 L1800.25 1525.93 L1800.25 1568.04 L1793.79 1568.04 L1793.79 1525.93 L1776.92 1525.93 L1776.92 1520.52 Z" fill="#000000" fill-rule="nonzero" fill-opacity="1" /><path clip-path="url(#clip040)" d="M1821.07 1532.4 L1826.92 1532.4 L1826.92 1568.04 L1821.07 1568.04 L1821.07 1532.4 M1821.07 1518.52 L1826.92 1518.52 L1826.92 1525.93 L1821.07 1525.93 L1821.07 1518.52 Z" fill="#000000" fill-rule="nonzero" fill-opacity="1" /><path clip-path="url(#clip040)" d="M1866.93 1539.24 Q1869.13 1535.29 1872.19 1533.41 Q1875.24 1531.54 1879.38 1531.54 Q1884.95 1531.54 1887.97 1535.45 Q1891 1539.33 1891 1546.53 L1891 1568.04 L1885.11 1568.04 L1885.11 1546.72 Q1885.11 1541.59 1883.29 1539.11 Q1881.48 1536.63 1877.75 1536.63 Q1873.2 1536.63 1870.56 1539.65 Q1867.92 1542.68 1867.92 1547.9 L1867.92 1568.04 L1862.03 1568.04 L1862.03 1546.72 Q1862.03 1541.56 1860.22 1539.11 Q1858.4 1536.63 1854.62 1536.63 Q1850.13 1536.63 1847.49 1539.68 Q1844.84 1542.71 1844.84 1547.9 L1844.84 1568.04 L1838.96 1568.04 L1838.96 1532.4 L1844.84 1532.4 L1844.84 1537.93 Q1846.85 1534.66 1849.65 1533.1 Q1852.45 1531.54 1856.3 1531.54 Q1860.19 1531.54 1862.89 1533.51 Q1865.63 1535.48 1866.93 1539.24 Z" fill="#000000" fill-rule="nonzero" fill-opacity="1" /><path clip-path="url(#clip040)" d="M1933.17 1548.76 L1933.17 1551.62 L1906.24 1551.62 Q1906.62 1557.67 1909.87 1560.85 Q1913.15 1564 1918.97 1564 Q1922.35 1564 1925.5 1563.17 Q1928.68 1562.35 1931.8 1560.69 L1931.8 1566.23 Q1928.65 1567.57 1925.34 1568.27 Q1922.03 1568.97 1918.62 1568.97 Q1910.09 1568.97 1905.1 1564 Q1900.13 1559.04 1900.13 1550.57 Q1900.13 1541.82 1904.84 1536.69 Q1909.58 1531.54 1917.6 1531.54 Q1924.8 1531.54 1928.97 1536.18 Q1933.17 1540.8 1933.17 1548.76 M1927.31 1547.04 Q1927.25 1542.23 1924.61 1539.37 Q1922 1536.5 1917.67 1536.5 Q1912.77 1536.5 1909.81 1539.27 Q1906.88 1542.04 1906.43 1547.07 L1927.31 1547.04 Z" fill="#000000" fill-rule="nonzero" fill-opacity="1" /><path clip-path="url(#clip040)" d="M1977.57 1518.58 Q1973.3 1525.9 1971.24 1533.06 Q1969.17 1540.23 1969.17 1547.58 Q1969.17 1554.93 1971.24 1562.16 Q1973.34 1569.35 1977.57 1576.64 L1972.48 1576.64 Q1967.7 1569.16 1965.32 1561.93 Q1962.96 1554.71 1962.96 1547.58 Q1962.96 1540.48 1965.32 1533.29 Q1967.67 1526.09 1972.48 1518.58 L1977.57 1518.58 Z" fill="#000000" fill-rule="nonzero" fill-opacity="1" /><path clip-path="url(#clip040)" d="M2011.66 1533.45 L2011.66 1538.98 Q2009.18 1537.71 2006.5 1537.07 Q2003.83 1536.44 2000.96 1536.44 Q1996.6 1536.44 1994.41 1537.77 Q1992.24 1539.11 1992.24 1541.79 Q1992.24 1543.82 1993.8 1545 Q1995.36 1546.15 2000.07 1547.2 L2002.08 1547.64 Q2008.32 1548.98 2010.93 1551.43 Q2013.57 1553.85 2013.57 1558.21 Q2013.57 1563.17 2009.62 1566.07 Q2005.71 1568.97 1998.83 1568.97 Q1995.97 1568.97 1992.85 1568.39 Q1989.76 1567.85 1986.32 1566.74 L1986.32 1560.69 Q1989.57 1562.38 1992.72 1563.24 Q1995.87 1564.07 1998.96 1564.07 Q2003.1 1564.07 2005.32 1562.66 Q2007.55 1561.23 2007.55 1558.65 Q2007.55 1556.27 2005.93 1554.99 Q2004.34 1553.72 1998.89 1552.54 L1996.86 1552.07 Q1991.41 1550.92 1989 1548.56 Q1986.58 1546.18 1986.58 1542.04 Q1986.58 1537.01 1990.14 1534.27 Q1993.71 1531.54 2000.26 1531.54 Q2003.51 1531.54 2006.37 1532.01 Q2009.24 1532.49 2011.66 1533.45 Z" fill="#000000" fill-rule="nonzero" fill-opacity="1" /><path clip-path="url(#clip040)" d="M2021.97 1518.58 L2027.06 1518.58 Q2031.84 1526.09 2034.19 1533.29 Q2036.58 1540.48 2036.58 1547.58 Q2036.58 1554.71 2034.19 1561.93 Q2031.84 1569.16 2027.06 1576.64 L2021.97 1576.64 Q2026.2 1569.35 2028.27 1562.16 Q2030.37 1554.93 2030.37 1547.58 Q2030.37 1540.23 2028.27 1533.06 Q2026.2 1525.9 2021.97 1518.58 Z" fill="#000000" fill-rule="nonzero" fill-opacity="1" /><polyline clip-path="url(#clip045)" style="stroke:#000000; stroke-linecap:round; stroke-linejoin:round; stroke-width:2; stroke-opacity:0.1; fill:none" points="1460.75,1418.08 2352.76,1418.08 "/>
<polyline clip-path="url(#clip045)" style="stroke:#000000; stroke-linecap:round; stroke-linejoin:round; stroke-width:2; stroke-opacity:0.1; fill:none" points="1460.75,1346.27 2352.76,1346.27 "/>
<polyline clip-path="url(#clip045)" style="stroke:#000000; stroke-linecap:round; stroke-linejoin:round; stroke-width:2; stroke-opacity:0.1; fill:none" points="1460.75,1274.47 2352.76,1274.47 "/>
<polyline clip-path="url(#clip045)" style="stroke:#000000; stroke-linecap:round; stroke-linejoin:round; stroke-width:2; stroke-opacity:0.1; fill:none" points="1460.75,1202.66 2352.76,1202.66 "/>
<polyline clip-path="url(#clip045)" style="stroke:#000000; stroke-linecap:round; stroke-linejoin:round; stroke-width:2; stroke-opacity:0.1; fill:none" points="1460.75,1130.85 2352.76,1130.85 "/>
<polyline clip-path="url(#clip040)" style="stroke:#000000; stroke-linecap:round; stroke-linejoin:round; stroke-width:4; stroke-opacity:1; fill:none" points="1460.75,1423.18 1460.75,1071.73 "/>
<polyline clip-path="url(#clip040)" style="stroke:#000000; stroke-linecap:round; stroke-linejoin:round; stroke-width:4; stroke-opacity:1; fill:none" points="1460.75,1418.08 1479.64,1418.08 "/>
<polyline clip-path="url(#clip040)" style="stroke:#000000; stroke-linecap:round; stroke-linejoin:round; stroke-width:4; stroke-opacity:1; fill:none" points="1460.75,1346.27 1479.64,1346.27 "/>
<polyline clip-path="url(#clip040)" style="stroke:#000000; stroke-linecap:round; stroke-linejoin:round; stroke-width:4; stroke-opacity:1; fill:none" points="1460.75,1274.47 1479.64,1274.47 "/>
<polyline clip-path="url(#clip040)" style="stroke:#000000; stroke-linecap:round; stroke-linejoin:round; stroke-width:4; stroke-opacity:1; fill:none" points="1460.75,1202.66 1479.64,1202.66 "/>
<polyline clip-path="url(#clip040)" style="stroke:#000000; stroke-linecap:round; stroke-linejoin:round; stroke-width:4; stroke-opacity:1; fill:none" points="1460.75,1130.85 1479.64,1130.85 "/>
<path clip-path="url(#clip040)" d="M1257.48 1418.53 L1287.15 1418.53 L1287.15 1422.47 L1257.48 1422.47 L1257.48 1418.53 Z" fill="#000000" fill-rule="nonzero" fill-opacity="1" /><path clip-path="url(#clip040)" d="M1307.25 1403.88 Q1303.64 1403.88 1301.81 1407.45 Q1300 1410.99 1300 1418.12 Q1300 1425.22 1301.81 1428.79 Q1303.64 1432.33 1307.25 1432.33 Q1310.88 1432.33 1312.69 1428.79 Q1314.51 1425.22 1314.51 1418.12 Q1314.51 1410.99 1312.69 1407.45 Q1310.88 1403.88 1307.25 1403.88 M1307.25 1400.18 Q1313.06 1400.18 1316.11 1404.78 Q1319.19 1409.37 1319.19 1418.12 Q1319.19 1426.84 1316.11 1431.45 Q1313.06 1436.03 1307.25 1436.03 Q1301.44 1436.03 1298.36 1431.45 Q1295.3 1426.84 1295.3 1418.12 Q1295.3 1409.37 1298.36 1404.78 Q1301.44 1400.18 1307.25 1400.18 Z" fill="#000000" fill-rule="nonzero" fill-opacity="1" /><path clip-path="url(#clip040)" d="M1327.41 1429.48 L1332.29 1429.48 L1332.29 1435.36 L1327.41 1435.36 L1327.41 1429.48 Z" fill="#000000" fill-rule="nonzero" fill-opacity="1" /><path clip-path="url(#clip040)" d="M1343.29 1431.43 L1350.93 1431.43 L1350.93 1405.06 L1342.62 1406.73 L1342.62 1402.47 L1350.88 1400.8 L1355.56 1400.8 L1355.56 1431.43 L1363.2 1431.43 L1363.2 1435.36 L1343.29 1435.36 L1343.29 1431.43 Z" fill="#000000" fill-rule="nonzero" fill-opacity="1" /><path clip-path="url(#clip040)" d="M1382.64 1403.88 Q1379.03 1403.88 1377.2 1407.45 Q1375.39 1410.99 1375.39 1418.12 Q1375.39 1425.22 1377.2 1428.79 Q1379.03 1432.33 1382.64 1432.33 Q1386.27 1432.33 1388.08 1428.79 Q1389.91 1425.22 1389.91 1418.12 Q1389.91 1410.99 1388.08 1407.45 Q1386.27 1403.88 1382.64 1403.88 M1382.64 1400.18 Q1388.45 1400.18 1391.51 1404.78 Q1394.58 1409.37 1394.58 1418.12 Q1394.58 1426.84 1391.51 1431.45 Q1388.45 1436.03 1382.64 1436.03 Q1376.83 1436.03 1373.75 1431.45 Q1370.7 1426.84 1370.7 1418.12 Q1370.7 1409.37 1373.75 1404.78 Q1376.83 1400.18 1382.64 1400.18 Z" fill="#000000" fill-rule="nonzero" fill-opacity="1" /><path clip-path="url(#clip040)" d="M1412.8 1403.88 Q1409.19 1403.88 1407.36 1407.45 Q1405.56 1410.99 1405.56 1418.12 Q1405.56 1425.22 1407.36 1428.79 Q1409.19 1432.33 1412.8 1432.33 Q1416.44 1432.33 1418.24 1428.79 Q1420.07 1425.22 1420.07 1418.12 Q1420.07 1410.99 1418.24 1407.45 Q1416.44 1403.88 1412.8 1403.88 M1412.8 1400.18 Q1418.61 1400.18 1421.67 1404.78 Q1424.75 1409.37 1424.75 1418.12 Q1424.75 1426.84 1421.67 1431.45 Q1418.61 1436.03 1412.8 1436.03 Q1406.99 1436.03 1403.91 1431.45 Q1400.86 1426.84 1400.86 1418.12 Q1400.86 1409.37 1403.91 1404.78 Q1406.99 1400.18 1412.8 1400.18 Z" fill="#000000" fill-rule="nonzero" fill-opacity="1" /><path clip-path="url(#clip040)" d="M1258.47 1346.73 L1288.15 1346.73 L1288.15 1350.66 L1258.47 1350.66 L1258.47 1346.73 Z" fill="#000000" fill-rule="nonzero" fill-opacity="1" /><path clip-path="url(#clip040)" d="M1308.24 1332.07 Q1304.63 1332.07 1302.8 1335.64 Q1301 1339.18 1301 1346.31 Q1301 1353.42 1302.8 1356.98 Q1304.63 1360.52 1308.24 1360.52 Q1311.88 1360.52 1313.68 1356.98 Q1315.51 1353.42 1315.51 1346.31 Q1315.51 1339.18 1313.68 1335.64 Q1311.88 1332.07 1308.24 1332.07 M1308.24 1328.37 Q1314.05 1328.37 1317.11 1332.98 Q1320.19 1337.56 1320.19 1346.31 Q1320.19 1355.04 1317.11 1359.64 Q1314.05 1364.23 1308.24 1364.23 Q1302.43 1364.23 1299.35 1359.64 Q1296.3 1355.04 1296.3 1346.31 Q1296.3 1337.56 1299.35 1332.98 Q1302.43 1328.37 1308.24 1328.37 Z" fill="#000000" fill-rule="nonzero" fill-opacity="1" /><path clip-path="url(#clip040)" d="M1328.4 1357.68 L1333.29 1357.68 L1333.29 1363.55 L1328.4 1363.55 L1328.4 1357.68 Z" fill="#000000" fill-rule="nonzero" fill-opacity="1" /><path clip-path="url(#clip040)" d="M1353.47 1332.07 Q1349.86 1332.07 1348.03 1335.64 Q1346.23 1339.18 1346.23 1346.31 Q1346.23 1353.42 1348.03 1356.98 Q1349.86 1360.52 1353.47 1360.52 Q1357.11 1360.52 1358.91 1356.98 Q1360.74 1353.42 1360.74 1346.31 Q1360.74 1339.18 1358.91 1335.64 Q1357.11 1332.07 1353.47 1332.07 M1353.47 1328.37 Q1359.28 1328.37 1362.34 1332.98 Q1365.42 1337.56 1365.42 1346.31 Q1365.42 1355.04 1362.34 1359.64 Q1359.28 1364.23 1353.47 1364.23 Q1347.66 1364.23 1344.58 1359.64 Q1341.53 1355.04 1341.53 1346.31 Q1341.53 1337.56 1344.58 1332.98 Q1347.66 1328.37 1353.47 1328.37 Z" fill="#000000" fill-rule="nonzero" fill-opacity="1" /><path clip-path="url(#clip040)" d="M1372.45 1328.99 L1394.68 1328.99 L1394.68 1330.99 L1382.13 1363.55 L1377.25 1363.55 L1389.05 1332.93 L1372.45 1332.93 L1372.45 1328.99 Z" fill="#000000" fill-rule="nonzero" fill-opacity="1" /><path clip-path="url(#clip040)" d="M1403.84 1328.99 L1422.2 1328.99 L1422.2 1332.93 L1408.13 1332.93 L1408.13 1341.4 Q1409.14 1341.05 1410.16 1340.89 Q1411.18 1340.71 1412.2 1340.71 Q1417.99 1340.71 1421.37 1343.88 Q1424.75 1347.05 1424.75 1352.47 Q1424.75 1358.05 1421.27 1361.15 Q1417.8 1364.23 1411.48 1364.23 Q1409.31 1364.23 1407.04 1363.86 Q1404.79 1363.49 1402.38 1362.74 L1402.38 1358.05 Q1404.47 1359.18 1406.69 1359.74 Q1408.91 1360.29 1411.39 1360.29 Q1415.39 1360.29 1417.73 1358.18 Q1420.07 1356.08 1420.07 1352.47 Q1420.07 1348.86 1417.73 1346.75 Q1415.39 1344.64 1411.39 1344.64 Q1409.51 1344.64 1407.64 1345.06 Q1405.79 1345.48 1403.84 1346.36 L1403.84 1328.99 Z" fill="#000000" fill-rule="nonzero" fill-opacity="1" /><path clip-path="url(#clip040)" d="M1257.48 1274.92 L1287.15 1274.92 L1287.15 1278.85 L1257.48 1278.85 L1257.48 1274.92 Z" fill="#000000" fill-rule="nonzero" fill-opacity="1" /><path clip-path="url(#clip040)" d="M1307.25 1260.27 Q1303.64 1260.27 1301.81 1263.83 Q1300 1267.37 1300 1274.5 Q1300 1281.61 1301.81 1285.17 Q1303.64 1288.71 1307.25 1288.71 Q1310.88 1288.71 1312.69 1285.17 Q1314.51 1281.61 1314.51 1274.5 Q1314.51 1267.37 1312.69 1263.83 Q1310.88 1260.27 1307.25 1260.27 M1307.25 1256.56 Q1313.06 1256.56 1316.11 1261.17 Q1319.19 1265.75 1319.19 1274.5 Q1319.19 1283.23 1316.11 1287.83 Q1313.06 1292.42 1307.25 1292.42 Q1301.44 1292.42 1298.36 1287.83 Q1295.3 1283.23 1295.3 1274.5 Q1295.3 1265.75 1298.36 1261.17 Q1301.44 1256.56 1307.25 1256.56 Z" fill="#000000" fill-rule="nonzero" fill-opacity="1" /><path clip-path="url(#clip040)" d="M1327.41 1285.87 L1332.29 1285.87 L1332.29 1291.75 L1327.41 1291.75 L1327.41 1285.87 Z" fill="#000000" fill-rule="nonzero" fill-opacity="1" /><path clip-path="url(#clip040)" d="M1352.48 1260.27 Q1348.87 1260.27 1347.04 1263.83 Q1345.23 1267.37 1345.23 1274.5 Q1345.23 1281.61 1347.04 1285.17 Q1348.87 1288.71 1352.48 1288.71 Q1356.11 1288.71 1357.92 1285.17 Q1359.75 1281.61 1359.75 1274.5 Q1359.75 1267.37 1357.92 1263.83 Q1356.11 1260.27 1352.48 1260.27 M1352.48 1256.56 Q1358.29 1256.56 1361.34 1261.17 Q1364.42 1265.75 1364.42 1274.5 Q1364.42 1283.23 1361.34 1287.83 Q1358.29 1292.42 1352.48 1292.42 Q1346.67 1292.42 1343.59 1287.83 Q1340.53 1283.23 1340.53 1274.5 Q1340.53 1265.75 1343.59 1261.17 Q1346.67 1256.56 1352.48 1256.56 Z" fill="#000000" fill-rule="nonzero" fill-opacity="1" /><path clip-path="url(#clip040)" d="M1372.69 1257.19 L1391.04 1257.19 L1391.04 1261.12 L1376.97 1261.12 L1376.97 1269.59 Q1377.99 1269.25 1379.01 1269.08 Q1380.02 1268.9 1381.04 1268.9 Q1386.83 1268.9 1390.21 1272.07 Q1393.59 1275.24 1393.59 1280.66 Q1393.59 1286.24 1390.12 1289.34 Q1386.64 1292.42 1380.32 1292.42 Q1378.15 1292.42 1375.88 1292.05 Q1373.63 1291.68 1371.23 1290.94 L1371.23 1286.24 Q1373.31 1287.37 1375.53 1287.93 Q1377.76 1288.48 1380.23 1288.48 Q1384.24 1288.48 1386.57 1286.38 Q1388.91 1284.27 1388.91 1280.66 Q1388.91 1277.05 1386.57 1274.94 Q1384.24 1272.83 1380.23 1272.83 Q1378.36 1272.83 1376.48 1273.25 Q1374.63 1273.67 1372.69 1274.55 L1372.69 1257.19 Z" fill="#000000" fill-rule="nonzero" fill-opacity="1" /><path clip-path="url(#clip040)" d="M1412.8 1260.27 Q1409.19 1260.27 1407.36 1263.83 Q1405.56 1267.37 1405.56 1274.5 Q1405.56 1281.61 1407.36 1285.17 Q1409.19 1288.71 1412.8 1288.71 Q1416.44 1288.71 1418.24 1285.17 Q1420.07 1281.61 1420.07 1274.5 Q1420.07 1267.37 1418.24 1263.83 Q1416.44 1260.27 1412.8 1260.27 M1412.8 1256.56 Q1418.61 1256.56 1421.67 1261.17 Q1424.75 1265.75 1424.75 1274.5 Q1424.75 1283.23 1421.67 1287.83 Q1418.61 1292.42 1412.8 1292.42 Q1406.99 1292.42 1403.91 1287.83 Q1400.86 1283.23 1400.86 1274.5 Q1400.86 1265.75 1403.91 1261.17 Q1406.99 1256.56 1412.8 1256.56 Z" fill="#000000" fill-rule="nonzero" fill-opacity="1" /><path clip-path="url(#clip040)" d="M1258.47 1203.11 L1288.15 1203.11 L1288.15 1207.05 L1258.47 1207.05 L1258.47 1203.11 Z" fill="#000000" fill-rule="nonzero" fill-opacity="1" /><path clip-path="url(#clip040)" d="M1308.24 1188.46 Q1304.63 1188.46 1302.8 1192.02 Q1301 1195.56 1301 1202.69 Q1301 1209.8 1302.8 1213.36 Q1304.63 1216.91 1308.24 1216.91 Q1311.88 1216.91 1313.68 1213.36 Q1315.51 1209.8 1315.51 1202.69 Q1315.51 1195.56 1313.68 1192.02 Q1311.88 1188.46 1308.24 1188.46 M1308.24 1184.75 Q1314.05 1184.75 1317.11 1189.36 Q1320.19 1193.94 1320.19 1202.69 Q1320.19 1211.42 1317.11 1216.03 Q1314.05 1220.61 1308.24 1220.61 Q1302.43 1220.61 1299.35 1216.03 Q1296.3 1211.42 1296.3 1202.69 Q1296.3 1193.94 1299.35 1189.36 Q1302.43 1184.75 1308.24 1184.75 Z" fill="#000000" fill-rule="nonzero" fill-opacity="1" /><path clip-path="url(#clip040)" d="M1328.4 1214.06 L1333.29 1214.06 L1333.29 1219.94 L1328.4 1219.94 L1328.4 1214.06 Z" fill="#000000" fill-rule="nonzero" fill-opacity="1" /><path clip-path="url(#clip040)" d="M1353.47 1188.46 Q1349.86 1188.46 1348.03 1192.02 Q1346.23 1195.56 1346.23 1202.69 Q1346.23 1209.8 1348.03 1213.36 Q1349.86 1216.91 1353.47 1216.91 Q1357.11 1216.91 1358.91 1213.36 Q1360.74 1209.8 1360.74 1202.69 Q1360.74 1195.56 1358.91 1192.02 Q1357.11 1188.46 1353.47 1188.46 M1353.47 1184.75 Q1359.28 1184.75 1362.34 1189.36 Q1365.42 1193.94 1365.42 1202.69 Q1365.42 1211.42 1362.34 1216.03 Q1359.28 1220.61 1353.47 1220.61 Q1347.66 1220.61 1344.58 1216.03 Q1341.53 1211.42 1341.53 1202.69 Q1341.53 1193.94 1344.58 1189.36 Q1347.66 1184.75 1353.47 1184.75 Z" fill="#000000" fill-rule="nonzero" fill-opacity="1" /><path clip-path="url(#clip040)" d="M1377.66 1216 L1393.98 1216 L1393.98 1219.94 L1372.04 1219.94 L1372.04 1216 Q1374.7 1213.25 1379.28 1208.62 Q1383.89 1203.97 1385.07 1202.62 Q1387.32 1200.1 1388.19 1198.36 Q1389.1 1196.61 1389.1 1194.92 Q1389.1 1192.16 1387.15 1190.43 Q1385.23 1188.69 1382.13 1188.69 Q1379.93 1188.69 1377.48 1189.45 Q1375.05 1190.22 1372.27 1191.77 L1372.27 1187.05 Q1375.09 1185.91 1377.55 1185.33 Q1380 1184.75 1382.04 1184.75 Q1387.41 1184.75 1390.6 1187.44 Q1393.8 1190.12 1393.8 1194.61 Q1393.8 1196.74 1392.99 1198.67 Q1392.2 1200.56 1390.09 1203.16 Q1389.51 1203.83 1386.41 1207.05 Q1383.31 1210.24 1377.66 1216 Z" fill="#000000" fill-rule="nonzero" fill-opacity="1" /><path clip-path="url(#clip040)" d="M1403.84 1185.38 L1422.2 1185.38 L1422.2 1189.31 L1408.13 1189.31 L1408.13 1197.79 Q1409.14 1197.44 1410.16 1197.28 Q1411.18 1197.09 1412.2 1197.09 Q1417.99 1197.09 1421.37 1200.26 Q1424.75 1203.43 1424.75 1208.85 Q1424.75 1214.43 1421.27 1217.53 Q1417.8 1220.61 1411.48 1220.61 Q1409.31 1220.61 1407.04 1220.24 Q1404.79 1219.87 1402.38 1219.13 L1402.38 1214.43 Q1404.47 1215.56 1406.69 1216.12 Q1408.91 1216.67 1411.39 1216.67 Q1415.39 1216.67 1417.73 1214.57 Q1420.07 1212.46 1420.07 1208.85 Q1420.07 1205.24 1417.73 1203.13 Q1415.39 1201.03 1411.39 1201.03 Q1409.51 1201.03 1407.64 1201.44 Q1405.79 1201.86 1403.84 1202.74 L1403.84 1185.38 Z" fill="#000000" fill-rule="nonzero" fill-opacity="1" /><path clip-path="url(#clip040)" d="M1307.25 1116.65 Q1303.64 1116.65 1301.81 1120.21 Q1300 1123.76 1300 1130.89 Q1300 1137.99 1301.81 1141.56 Q1303.64 1145.1 1307.25 1145.1 Q1310.88 1145.1 1312.69 1141.56 Q1314.51 1137.99 1314.51 1130.89 Q1314.51 1123.76 1312.69 1120.21 Q1310.88 1116.65 1307.25 1116.65 M1307.25 1112.95 Q1313.06 1112.95 1316.11 1117.55 Q1319.19 1122.14 1319.19 1130.89 Q1319.19 1139.61 1316.11 1144.22 Q1313.06 1148.8 1307.25 1148.8 Q1301.44 1148.8 1298.36 1144.22 Q1295.3 1139.61 1295.3 1130.89 Q1295.3 1122.14 1298.36 1117.55 Q1301.44 1112.95 1307.25 1112.95 Z" fill="#000000" fill-rule="nonzero" fill-opacity="1" /><path clip-path="url(#clip040)" d="M1327.41 1142.25 L1332.29 1142.25 L1332.29 1148.13 L1327.41 1148.13 L1327.41 1142.25 Z" fill="#000000" fill-rule="nonzero" fill-opacity="1" /><path clip-path="url(#clip040)" d="M1352.48 1116.65 Q1348.87 1116.65 1347.04 1120.21 Q1345.23 1123.76 1345.23 1130.89 Q1345.23 1137.99 1347.04 1141.56 Q1348.87 1145.1 1352.48 1145.1 Q1356.11 1145.1 1357.92 1141.56 Q1359.75 1137.99 1359.75 1130.89 Q1359.75 1123.76 1357.92 1120.21 Q1356.11 1116.65 1352.48 1116.65 M1352.48 1112.95 Q1358.29 1112.95 1361.34 1117.55 Q1364.42 1122.14 1364.42 1130.89 Q1364.42 1139.61 1361.34 1144.22 Q1358.29 1148.8 1352.48 1148.8 Q1346.67 1148.8 1343.59 1144.22 Q1340.53 1139.61 1340.53 1130.89 Q1340.53 1122.14 1343.59 1117.55 Q1346.67 1112.95 1352.48 1112.95 Z" fill="#000000" fill-rule="nonzero" fill-opacity="1" /><path clip-path="url(#clip040)" d="M1382.64 1116.65 Q1379.03 1116.65 1377.2 1120.21 Q1375.39 1123.76 1375.39 1130.89 Q1375.39 1137.99 1377.2 1141.56 Q1379.03 1145.1 1382.64 1145.1 Q1386.27 1145.1 1388.08 1141.56 Q1389.91 1137.99 1389.91 1130.89 Q1389.91 1123.76 1388.08 1120.21 Q1386.27 1116.65 1382.64 1116.65 M1382.64 1112.95 Q1388.45 1112.95 1391.51 1117.55 Q1394.58 1122.14 1394.58 1130.89 Q1394.58 1139.61 1391.51 1144.22 Q1388.45 1148.8 1382.64 1148.8 Q1376.83 1148.8 1373.75 1144.22 Q1370.7 1139.61 1370.7 1130.89 Q1370.7 1122.14 1373.75 1117.55 Q1376.83 1112.95 1382.64 1112.95 Z" fill="#000000" fill-rule="nonzero" fill-opacity="1" /><path clip-path="url(#clip040)" d="M1412.8 1116.65 Q1409.19 1116.65 1407.36 1120.21 Q1405.56 1123.76 1405.56 1130.89 Q1405.56 1137.99 1407.36 1141.56 Q1409.19 1145.1 1412.8 1145.1 Q1416.44 1145.1 1418.24 1141.56 Q1420.07 1137.99 1420.07 1130.89 Q1420.07 1123.76 1418.24 1120.21 Q1416.44 1116.65 1412.8 1116.65 M1412.8 1112.95 Q1418.61 1112.95 1421.67 1117.55 Q1424.75 1122.14 1424.75 1130.89 Q1424.75 1139.61 1421.67 1144.22 Q1418.61 1148.8 1412.8 1148.8 Q1406.99 1148.8 1403.91 1144.22 Q1400.86 1139.61 1400.86 1130.89 Q1400.86 1122.14 1403.91 1117.55 Q1406.99 1112.95 1412.8 1112.95 Z" fill="#000000" fill-rule="nonzero" fill-opacity="1" /><path clip-path="url(#clip040)" d="M1167.18 1250.93 L1168.1 1251.49 Q1166.59 1254.99 1164.18 1259.34 Q1166.59 1263.69 1168.1 1267.19 L1167.18 1267.73 Q1163.86 1263.92 1161.31 1259.34 Q1163.88 1254.72 1167.18 1250.93 Z" fill="#000000" fill-rule="nonzero" fill-opacity="1" /><path clip-path="url(#clip040)" d="M1179.47 1247.77 Q1181.28 1247.77 1182.31 1248.9 Q1183.31 1250.02 1183.31 1251.31 Q1183.31 1252.54 1182.6 1253.18 Q1181.89 1253.82 1180.99 1253.82 Q1179.76 1253.82 1178.7 1252.92 Q1177.64 1252.02 1177.41 1250.67 Q1176.58 1251.99 1176.58 1253.95 Q1176.58 1255.24 1177.25 1256.37 Q1177.93 1257.46 1178.8 1258.14 Q1179.67 1258.78 1180.92 1259.36 Q1182.15 1259.91 1182.89 1260.14 Q1183.6 1260.33 1184.37 1260.49 L1193.39 1262.74 Q1197.67 1263.84 1199.18 1263.84 Q1201.05 1263.84 1202.31 1262.94 Q1203.53 1262.04 1203.53 1260.23 Q1203.53 1259.52 1203.34 1258.72 Q1203.11 1257.91 1202.53 1256.88 Q1201.92 1255.82 1201.02 1254.89 Q1200.09 1253.92 1198.51 1252.99 Q1196.93 1252.05 1194.9 1251.44 Q1194.19 1251.25 1194.19 1250.6 Q1194.19 1249.8 1194.84 1249.8 Q1195.38 1249.8 1196.54 1250.25 Q1197.67 1250.67 1199.15 1251.6 Q1200.6 1252.5 1201.92 1253.69 Q1203.21 1254.89 1204.11 1256.66 Q1205.01 1258.43 1205.01 1260.36 Q1205.01 1263.13 1203.53 1264.97 Q1202.05 1266.8 1199.99 1267.48 Q1200.28 1267.64 1200.67 1267.87 Q1201.05 1268.09 1201.92 1268.77 Q1202.76 1269.41 1203.4 1270.15 Q1204.02 1270.89 1204.5 1272.05 Q1205.01 1273.18 1205.01 1274.4 Q1205.01 1275.95 1204.56 1277.33 Q1204.11 1278.69 1203.08 1279.65 Q1202.05 1280.62 1200.63 1280.62 Q1199.06 1280.62 1197.96 1279.56 Q1196.83 1278.46 1196.83 1276.98 Q1196.83 1276.05 1197.38 1275.3 Q1197.93 1274.53 1199.12 1274.53 Q1200.44 1274.53 1201.44 1275.43 Q1202.44 1276.34 1202.69 1277.62 Q1203.53 1276.3 1203.53 1274.34 Q1203.53 1272.21 1201.66 1270.54 Q1199.8 1268.86 1196.67 1268.06 Q1189.17 1266.06 1185.82 1265.29 Q1182.44 1264.52 1180.99 1264.52 Q1179.64 1264.52 1178.7 1264.87 Q1177.77 1265.22 1177.35 1265.84 Q1176.9 1266.42 1176.74 1266.96 Q1176.58 1267.48 1176.58 1268.06 Q1176.58 1269.02 1176.96 1270.12 Q1177.35 1271.18 1178.25 1272.47 Q1179.12 1273.73 1180.92 1274.92 Q1182.73 1276.11 1185.21 1276.92 Q1185.95 1277.08 1185.95 1277.78 Q1185.92 1278.56 1185.27 1278.56 Q1184.72 1278.56 1183.6 1278.14 Q1182.44 1277.69 1180.99 1276.79 Q1179.54 1275.85 1178.25 1274.66 Q1176.93 1273.44 1176.03 1271.67 Q1175.13 1269.86 1175.13 1267.93 Q1175.13 1267.06 1175.32 1266.22 Q1175.48 1265.35 1175.96 1264.32 Q1176.45 1263.26 1177.51 1262.33 Q1178.57 1261.39 1180.12 1260.81 Q1179.38 1260.43 1178.67 1259.91 Q1177.96 1259.36 1177.09 1258.53 Q1176.19 1257.66 1175.67 1256.46 Q1175.13 1255.24 1175.13 1253.89 Q1175.13 1252.57 1175.48 1251.28 Q1175.8 1249.99 1176.87 1248.9 Q1177.9 1247.77 1179.47 1247.77 Z" fill="#000000" fill-rule="nonzero" fill-opacity="1" /><path clip-path="url(#clip040)" d="M1217.06 1240.31 Q1215.69 1240.31 1215.03 1239.52 Q1214.38 1238.73 1214.38 1237.72 Q1214.38 1236.66 1215.08 1235.91 Q1215.75 1235.15 1216.95 1235.15 Q1218.23 1235.15 1218.96 1236.05 Q1219.68 1236.93 1219.5 1238.19 Q1221.34 1237.09 1222.18 1235.06 Q1223.01 1233.01 1223.01 1231.11 Q1223.01 1229.13 1221.3 1227.53 Q1219.59 1225.9 1215.39 1225.9 Q1211.83 1225.9 1209.78 1227.3 Q1207.73 1228.68 1207.73 1231.4 L1207.73 1233.43 Q1207.73 1234.13 1207.66 1234.34 Q1207.59 1234.54 1207.21 1234.54 Q1206.76 1234.54 1206.67 1233.84 Q1206.67 1233.14 1206.53 1232.04 Q1206.44 1229.35 1204.12 1227.93 Q1201.96 1226.65 1198.87 1226.65 Q1196.05 1226.65 1194.88 1228 Q1193.68 1229.33 1193.68 1231.07 Q1193.68 1232.69 1194.36 1234.47 Q1195.04 1236.25 1196.55 1237.22 Q1196.55 1234.36 1198.87 1234.36 Q1199.88 1234.36 1200.56 1235.01 Q1201.21 1235.64 1201.21 1236.7 Q1201.21 1237.72 1200.58 1238.39 Q1199.93 1239.07 1198.82 1239.07 Q1196.19 1239.07 1194.36 1236.73 Q1192.53 1234.36 1192.53 1230.89 Q1192.53 1227.46 1194.34 1224.93 Q1196.14 1222.39 1198.91 1222.39 Q1201.64 1222.39 1203.87 1224.19 Q1206.11 1225.99 1207.03 1228.86 Q1207.73 1225.34 1210.12 1223.24 Q1212.49 1221.15 1215.39 1221.15 Q1219 1221.15 1221.66 1223.99 Q1224.3 1226.83 1224.3 1230.98 Q1224.3 1234.81 1222.22 1237.56 Q1220.15 1240.31 1217.06 1240.31 Z" fill="#000000" fill-rule="nonzero" fill-opacity="1" /><polyline clip-path="url(#clip045)" style="stroke:#e26f46; stroke-linecap:round; stroke-linejoin:round; stroke-width:3; stroke-opacity:1; fill:none" stroke-dasharray="12, 6, 2, 6" points="1485.99,1130.85 1510.74,1130.85 1535.49,1130.85 1560.24,1413.23 1584.99,1234.66 1609.74,1252.7 1634.49,1281.14 1659.25,1294.03 1684,1283.87 1708.75,1279.3 1733.5,1221.71 1758.25,1162.36 1783,1154.62 1807.75,1120.11 1832.5,1102.25 1857.25,1106.98 1882,1081.68 1906.75,1138.02 1931.5,1103.04 1956.25,1119.18 1981,1161.22 2005.75,1152.96 2030.5,1115.11 2055.25,1115.75 2080,1120.23 2104.76,1138.23 2129.51,1137.57 2154.26,1137.72 2179.01,1135.69 2203.76,1113.46 2228.51,1119.69 2253.26,1104.9 2278.01,1177.13 2302.76,1137.5 2327.51,1145.95 "/>
</svg>
