<?xml version="1.0" encoding="utf-8"?>
<svg xmlns="http://www.w3.org/2000/svg" xmlns:xlink="http://www.w3.org/1999/xlink" width="600" height="400" viewBox="0 0 2400 1600">
<defs>
  <clipPath id="clip610">
    <rect x="0" y="0" width="2400" height="1600"/>
  </clipPath>
</defs>
<path clip-path="url(#clip610)" d="M0 1600 L2400 1600 L2400 0 L0 0  Z" fill="#ffffff" fill-rule="evenodd" fill-opacity="1"/>
<defs>
  <clipPath id="clip611">
    <rect x="480" y="0" width="1681" height="1600"/>
  </clipPath>
</defs>
<path clip-path="url(#clip610)" d="M203.964 1423.18 L1110.81 1423.18 L1110.81 47.2441 L203.964 47.2441  Z" fill="#ffffff" fill-rule="evenodd" fill-opacity="1"/>
<defs>
  <clipPath id="clip612">
    <rect x="203" y="47" width="908" height="1377"/>
  </clipPath>
</defs>
<polyline clip-path="url(#clip612)" style="stroke:#000000; stroke-linecap:round; stroke-linejoin:round; stroke-width:2; stroke-opacity:0.1; fill:none" points="229.629,1423.18 229.629,47.2441 "/>
<polyline clip-path="url(#clip612)" style="stroke:#000000; stroke-linecap:round; stroke-linejoin:round; stroke-width:2; stroke-opacity:0.1; fill:none" points="481.252,1423.18 481.252,47.2441 "/>
<polyline clip-path="url(#clip612)" style="stroke:#000000; stroke-linecap:round; stroke-linejoin:round; stroke-width:2; stroke-opacity:0.1; fill:none" points="732.874,1423.18 732.874,47.2441 "/>
<polyline clip-path="url(#clip612)" style="stroke:#000000; stroke-linecap:round; stroke-linejoin:round; stroke-width:2; stroke-opacity:0.1; fill:none" points="984.497,1423.18 984.497,47.2441 "/>
<polyline clip-path="url(#clip610)" style="stroke:#000000; stroke-linecap:round; stroke-linejoin:round; stroke-width:4; stroke-opacity:1; fill:none" points="203.964,1423.18 1110.81,1423.18 "/>
<polyline clip-path="url(#clip610)" style="stroke:#000000; stroke-linecap:round; stroke-linejoin:round; stroke-width:4; stroke-opacity:1; fill:none" points="229.629,1423.18 229.629,1404.28 "/>
<polyline clip-path="url(#clip610)" style="stroke:#000000; stroke-linecap:round; stroke-linejoin:round; stroke-width:4; stroke-opacity:1; fill:none" points="481.252,1423.18 481.252,1404.28 "/>
<polyline clip-path="url(#clip610)" style="stroke:#000000; stroke-linecap:round; stroke-linejoin:round; stroke-width:4; stroke-opacity:1; fill:none" points="732.874,1423.18 732.874,1404.28 "/>
<polyline clip-path="url(#clip610)" style="stroke:#000000; stroke-linecap:round; stroke-linejoin:round; stroke-width:4; stroke-opacity:1; fill:none" points="984.497,1423.18 984.497,1404.28 "/>
<path clip-path="url(#clip610)" d="M229.629 1454.1 Q226.018 1454.1 224.189 1457.66 Q222.384 1461.2 222.384 1468.33 Q222.384 1475.44 224.189 1479.01 Q226.018 1482.55 229.629 1482.55 Q233.263 1482.55 235.069 1479.01 Q236.898 1475.44 236.898 1468.33 Q236.898 1461.2 235.069 1457.66 Q233.263 1454.1 229.629 1454.1 M229.629 1450.39 Q235.439 1450.39 238.495 1455 Q241.573 1459.58 241.573 1468.33 Q241.573 1477.06 238.495 1481.67 Q235.439 1486.25 229.629 1486.25 Q223.819 1486.25 220.74 1481.67 Q217.685 1477.06 217.685 1468.33 Q217.685 1459.58 220.74 1455 Q223.819 1450.39 229.629 1450.39 Z" fill="#000000" fill-rule="nonzero" fill-opacity="1" /><path clip-path="url(#clip610)" d="M471.634 1481.64 L479.273 1481.64 L479.273 1455.28 L470.962 1456.95 L470.962 1452.69 L479.226 1451.02 L483.902 1451.02 L483.902 1481.64 L491.541 1481.64 L491.541 1485.58 L471.634 1485.58 L471.634 1481.64 Z" fill="#000000" fill-rule="nonzero" fill-opacity="1" /><path clip-path="url(#clip610)" d="M727.527 1481.64 L743.847 1481.64 L743.847 1485.58 L721.902 1485.58 L721.902 1481.64 Q724.564 1478.89 729.148 1474.26 Q733.754 1469.61 734.935 1468.27 Q737.18 1465.74 738.06 1464.01 Q738.962 1462.25 738.962 1460.56 Q738.962 1457.8 737.018 1456.07 Q735.097 1454.33 731.995 1454.33 Q729.796 1454.33 727.342 1455.09 Q724.912 1455.86 722.134 1457.41 L722.134 1452.69 Q724.958 1451.55 727.411 1450.97 Q729.865 1450.39 731.902 1450.39 Q737.273 1450.39 740.467 1453.08 Q743.661 1455.77 743.661 1460.26 Q743.661 1462.39 742.851 1464.31 Q742.064 1466.2 739.958 1468.8 Q739.379 1469.47 736.277 1472.69 Q733.175 1475.88 727.527 1481.64 Z" fill="#000000" fill-rule="nonzero" fill-opacity="1" /><path clip-path="url(#clip610)" d="M988.745 1466.95 Q992.101 1467.66 993.976 1469.93 Q995.874 1472.2 995.874 1475.53 Q995.874 1480.65 992.356 1483.45 Q988.837 1486.25 982.356 1486.25 Q980.18 1486.25 977.865 1485.81 Q975.574 1485.39 973.12 1484.54 L973.12 1480.02 Q975.064 1481.16 977.379 1481.74 Q979.694 1482.32 982.217 1482.32 Q986.615 1482.32 988.907 1480.58 Q991.222 1478.84 991.222 1475.53 Q991.222 1472.48 989.069 1470.77 Q986.939 1469.03 983.12 1469.03 L979.092 1469.03 L979.092 1465.19 L983.305 1465.19 Q986.754 1465.19 988.583 1463.82 Q990.411 1462.43 990.411 1459.84 Q990.411 1457.18 988.513 1455.77 Q986.638 1454.33 983.12 1454.33 Q981.199 1454.33 978.999 1454.75 Q976.8 1455.16 974.162 1456.04 L974.162 1451.88 Q976.824 1451.14 979.138 1450.77 Q981.476 1450.39 983.536 1450.39 Q988.861 1450.39 991.962 1452.83 Q995.064 1455.23 995.064 1459.35 Q995.064 1462.22 993.421 1464.21 Q991.777 1466.18 988.745 1466.95 Z" fill="#000000" fill-rule="nonzero" fill-opacity="1" /><path clip-path="url(#clip610)" d="M527.559 1520.52 L567.758 1520.52 L567.758 1525.93 L550.889 1525.93 L550.889 1568.04 L544.428 1568.04 L544.428 1525.93 L527.559 1525.93 L527.559 1520.52 Z" fill="#000000" fill-rule="nonzero" fill-opacity="1" /><path clip-path="url(#clip610)" d="M571.705 1532.4 L577.562 1532.4 L577.562 1568.04 L571.705 1568.04 L571.705 1532.4 M571.705 1518.52 L577.562 1518.52 L577.562 1525.93 L571.705 1525.93 L571.705 1518.52 Z" fill="#000000" fill-rule="nonzero" fill-opacity="1" /><path clip-path="url(#clip610)" d="M617.57 1539.24 Q619.766 1535.29 622.822 1533.41 Q625.877 1531.54 630.015 1531.54 Q635.585 1531.54 638.609 1535.45 Q641.633 1539.33 641.633 1546.53 L641.633 1568.04 L635.744 1568.04 L635.744 1546.72 Q635.744 1541.59 633.93 1539.11 Q632.116 1536.63 628.392 1536.63 Q623.84 1536.63 621.199 1539.65 Q618.557 1542.68 618.557 1547.9 L618.557 1568.04 L612.669 1568.04 L612.669 1546.72 Q612.669 1541.56 610.854 1539.11 Q609.04 1536.63 605.252 1536.63 Q600.765 1536.63 598.123 1539.68 Q595.481 1542.71 595.481 1547.9 L595.481 1568.04 L589.593 1568.04 L589.593 1532.4 L595.481 1532.4 L595.481 1537.93 Q597.486 1534.66 600.287 1533.1 Q603.088 1531.54 606.939 1531.54 Q610.822 1531.54 613.528 1533.51 Q616.265 1535.48 617.57 1539.24 Z" fill="#000000" fill-rule="nonzero" fill-opacity="1" /><path clip-path="url(#clip610)" d="M683.805 1548.76 L683.805 1551.62 L656.878 1551.62 Q657.26 1557.67 660.507 1560.85 Q663.785 1564 669.61 1564 Q672.984 1564 676.135 1563.17 Q679.317 1562.35 682.437 1560.69 L682.437 1566.23 Q679.286 1567.57 675.975 1568.27 Q672.665 1568.97 669.26 1568.97 Q660.73 1568.97 655.733 1564 Q650.767 1559.04 650.767 1550.57 Q650.767 1541.82 655.478 1536.69 Q660.22 1531.54 668.241 1531.54 Q675.434 1531.54 679.604 1536.18 Q683.805 1540.8 683.805 1548.76 M677.949 1547.04 Q677.885 1542.23 675.243 1539.37 Q672.633 1536.5 668.305 1536.5 Q663.403 1536.5 660.443 1539.27 Q657.515 1542.04 657.069 1547.07 L677.949 1547.04 Z" fill="#000000" fill-rule="nonzero" fill-opacity="1" /><path clip-path="url(#clip610)" d="M728.206 1518.58 Q723.941 1525.9 721.872 1533.06 Q719.803 1540.23 719.803 1547.58 Q719.803 1554.93 721.872 1562.16 Q723.973 1569.35 728.206 1576.64 L723.114 1576.64 Q718.339 1569.16 715.952 1561.93 Q713.597 1554.71 713.597 1547.58 Q713.597 1540.48 715.952 1533.29 Q718.307 1526.09 723.114 1518.58 L728.206 1518.58 Z" fill="#000000" fill-rule="nonzero" fill-opacity="1" /><path clip-path="url(#clip610)" d="M762.294 1533.45 L762.294 1538.98 Q759.812 1537.71 757.138 1537.07 Q754.465 1536.44 751.6 1536.44 Q747.24 1536.44 745.043 1537.77 Q742.879 1539.11 742.879 1541.79 Q742.879 1543.82 744.439 1545 Q745.998 1546.15 750.709 1547.2 L752.714 1547.64 Q758.952 1548.98 761.562 1551.43 Q764.204 1553.85 764.204 1558.21 Q764.204 1563.17 760.257 1566.07 Q756.343 1568.97 749.468 1568.97 Q746.603 1568.97 743.484 1568.39 Q740.396 1567.85 736.959 1566.74 L736.959 1560.69 Q740.205 1562.38 743.356 1563.24 Q746.508 1564.07 749.595 1564.07 Q753.733 1564.07 755.961 1562.66 Q758.189 1561.23 758.189 1558.65 Q758.189 1556.27 756.565 1554.99 Q754.974 1553.72 749.531 1552.54 L747.494 1552.07 Q742.052 1550.92 739.633 1548.56 Q737.214 1546.18 737.214 1542.04 Q737.214 1537.01 740.778 1534.27 Q744.343 1531.54 750.9 1531.54 Q754.146 1531.54 757.011 1532.01 Q759.876 1532.49 762.294 1533.45 Z" fill="#000000" fill-rule="nonzero" fill-opacity="1" /><path clip-path="url(#clip610)" d="M772.607 1518.58 L777.699 1518.58 Q782.474 1526.09 784.829 1533.29 Q787.216 1540.48 787.216 1547.58 Q787.216 1554.71 784.829 1561.93 Q782.474 1569.16 777.699 1576.64 L772.607 1576.64 Q776.84 1569.35 778.909 1562.16 Q781.01 1554.93 781.01 1547.58 Q781.01 1540.23 778.909 1533.06 Q776.84 1525.9 772.607 1518.58 Z" fill="#000000" fill-rule="nonzero" fill-opacity="1" /><polyline clip-path="url(#clip612)" style="stroke:#000000; stroke-linecap:round; stroke-linejoin:round; stroke-width:2; stroke-opacity:0.1; fill:none" points="203.964,1384.24 1110.81,1384.24 "/>
<polyline clip-path="url(#clip612)" style="stroke:#000000; stroke-linecap:round; stroke-linejoin:round; stroke-width:2; stroke-opacity:0.1; fill:none" points="203.964,1031.94 1110.81,1031.94 "/>
<polyline clip-path="url(#clip612)" style="stroke:#000000; stroke-linecap:round; stroke-linejoin:round; stroke-width:2; stroke-opacity:0.1; fill:none" points="203.964,679.638 1110.81,679.638 "/>
<polyline clip-path="url(#clip612)" style="stroke:#000000; stroke-linecap:round; stroke-linejoin:round; stroke-width:2; stroke-opacity:0.1; fill:none" points="203.964,327.338 1110.81,327.338 "/>
<polyline clip-path="url(#clip610)" style="stroke:#000000; stroke-linecap:round; stroke-linejoin:round; stroke-width:4; stroke-opacity:1; fill:none" points="203.964,1423.18 203.964,47.2441 "/>
<polyline clip-path="url(#clip610)" style="stroke:#000000; stroke-linecap:round; stroke-linejoin:round; stroke-width:4; stroke-opacity:1; fill:none" points="203.964,1384.24 222.861,1384.24 "/>
<polyline clip-path="url(#clip610)" style="stroke:#000000; stroke-linecap:round; stroke-linejoin:round; stroke-width:4; stroke-opacity:1; fill:none" points="203.964,1031.94 222.861,1031.94 "/>
<polyline clip-path="url(#clip610)" style="stroke:#000000; stroke-linecap:round; stroke-linejoin:round; stroke-width:4; stroke-opacity:1; fill:none" points="203.964,679.638 222.861,679.638 "/>
<polyline clip-path="url(#clip610)" style="stroke:#000000; stroke-linecap:round; stroke-linejoin:round; stroke-width:4; stroke-opacity:1; fill:none" points="203.964,327.338 222.861,327.338 "/>
<path clip-path="url(#clip610)" d="M156.019 1370.04 Q152.408 1370.04 150.579 1373.6 Q148.774 1377.14 148.774 1384.27 Q148.774 1391.38 150.579 1394.94 Q152.408 1398.49 156.019 1398.49 Q159.653 1398.49 161.459 1394.94 Q163.288 1391.38 163.288 1384.27 Q163.288 1377.14 161.459 1373.6 Q159.653 1370.04 156.019 1370.04 M156.019 1366.33 Q161.829 1366.33 164.885 1370.94 Q167.964 1375.52 167.964 1384.27 Q167.964 1393 164.885 1397.61 Q161.829 1402.19 156.019 1402.19 Q150.209 1402.19 147.13 1397.61 Q144.075 1393 144.075 1384.27 Q144.075 1375.52 147.13 1370.94 Q150.209 1366.33 156.019 1366.33 Z" fill="#000000" fill-rule="nonzero" fill-opacity="1" /><path clip-path="url(#clip610)" d="M116.668 1045.28 L124.306 1045.28 L124.306 1018.92 L115.996 1020.58 L115.996 1016.32 L124.26 1014.66 L128.936 1014.66 L128.936 1045.28 L136.575 1045.28 L136.575 1049.22 L116.668 1049.22 L116.668 1045.28 Z" fill="#000000" fill-rule="nonzero" fill-opacity="1" /><path clip-path="url(#clip610)" d="M156.019 1017.74 Q152.408 1017.74 150.579 1021.3 Q148.774 1024.84 148.774 1031.97 Q148.774 1039.08 150.579 1042.64 Q152.408 1046.19 156.019 1046.19 Q159.653 1046.19 161.459 1042.64 Q163.288 1039.08 163.288 1031.97 Q163.288 1024.84 161.459 1021.3 Q159.653 1017.74 156.019 1017.74 M156.019 1014.03 Q161.829 1014.03 164.885 1018.64 Q167.964 1023.22 167.964 1031.97 Q167.964 1040.7 164.885 1045.31 Q161.829 1049.89 156.019 1049.89 Q150.209 1049.89 147.13 1045.31 Q144.075 1040.7 144.075 1031.97 Q144.075 1023.22 147.13 1018.64 Q150.209 1014.03 156.019 1014.03 Z" fill="#000000" fill-rule="nonzero" fill-opacity="1" /><path clip-path="url(#clip610)" d="M119.885 692.983 L136.204 692.983 L136.204 696.918 L114.26 696.918 L114.26 692.983 Q116.922 690.228 121.505 685.598 Q126.112 680.946 127.292 679.603 Q129.538 677.08 130.417 675.344 Q131.32 673.585 131.32 671.895 Q131.32 669.14 129.376 667.404 Q127.455 665.668 124.353 665.668 Q122.154 665.668 119.7 666.432 Q117.269 667.196 114.492 668.747 L114.492 664.024 Q117.316 662.89 119.769 662.311 Q122.223 661.733 124.26 661.733 Q129.63 661.733 132.825 664.418 Q136.019 667.103 136.019 671.594 Q136.019 673.723 135.209 675.645 Q134.422 677.543 132.316 680.135 Q131.737 680.807 128.635 684.024 Q125.533 687.219 119.885 692.983 Z" fill="#000000" fill-rule="nonzero" fill-opacity="1" /><path clip-path="url(#clip610)" d="M156.019 665.436 Q152.408 665.436 150.579 669.001 Q148.774 672.543 148.774 679.672 Q148.774 686.779 150.579 690.344 Q152.408 693.885 156.019 693.885 Q159.653 693.885 161.459 690.344 Q163.288 686.779 163.288 679.672 Q163.288 672.543 161.459 669.001 Q159.653 665.436 156.019 665.436 M156.019 661.733 Q161.829 661.733 164.885 666.339 Q167.964 670.923 167.964 679.672 Q167.964 688.399 164.885 693.006 Q161.829 697.589 156.019 697.589 Q150.209 697.589 147.13 693.006 Q144.075 688.399 144.075 679.672 Q144.075 670.923 147.13 666.339 Q150.209 661.733 156.019 661.733 Z" fill="#000000" fill-rule="nonzero" fill-opacity="1" /><path clip-path="url(#clip610)" d="M130.024 325.983 Q133.38 326.701 135.255 328.969 Q137.154 331.238 137.154 334.571 Q137.154 339.687 133.635 342.488 Q130.117 345.289 123.635 345.289 Q121.459 345.289 119.144 344.849 Q116.853 344.432 114.399 343.576 L114.399 339.062 Q116.343 340.196 118.658 340.775 Q120.973 341.354 123.496 341.354 Q127.894 341.354 130.186 339.618 Q132.501 337.881 132.501 334.571 Q132.501 331.516 130.348 329.803 Q128.218 328.067 124.399 328.067 L120.371 328.067 L120.371 324.224 L124.584 324.224 Q128.033 324.224 129.862 322.858 Q131.691 321.47 131.691 318.877 Q131.691 316.215 129.792 314.803 Q127.917 313.368 124.399 313.368 Q122.478 313.368 120.279 313.784 Q118.08 314.201 115.441 315.081 L115.441 310.914 Q118.103 310.173 120.418 309.803 Q122.755 309.433 124.816 309.433 Q130.14 309.433 133.242 311.863 Q136.343 314.27 136.343 318.391 Q136.343 321.261 134.7 323.252 Q133.056 325.219 130.024 325.983 Z" fill="#000000" fill-rule="nonzero" fill-opacity="1" /><path clip-path="url(#clip610)" d="M156.019 313.136 Q152.408 313.136 150.579 316.701 Q148.774 320.243 148.774 327.372 Q148.774 334.479 150.579 338.043 Q152.408 341.585 156.019 341.585 Q159.653 341.585 161.459 338.043 Q163.288 334.479 163.288 327.372 Q163.288 320.243 161.459 316.701 Q159.653 313.136 156.019 313.136 M156.019 309.433 Q161.829 309.433 164.885 314.039 Q167.964 318.622 167.964 327.372 Q167.964 336.099 164.885 340.706 Q161.829 345.289 156.019 345.289 Q150.209 345.289 147.13 340.706 Q144.075 336.099 144.075 327.372 Q144.075 318.622 147.13 314.039 Q150.209 309.433 156.019 309.433 Z" fill="#000000" fill-rule="nonzero" fill-opacity="1" /><path clip-path="url(#clip610)" d="M21.7178 734.435 Q22.1687 734.435 23.2315 734.724 L48.4165 741.037 Q54.0203 742.422 57.9494 746.93 Q61.8785 751.407 61.8785 756.496 Q61.8785 759.555 60.236 761.52 Q58.6257 763.484 56.1459 763.484 Q53.9559 763.484 52.8931 762.325 Q51.8625 761.165 51.8625 759.781 Q51.8625 759.33 51.9913 758.847 Q52.1201 758.364 52.6676 757.848 Q53.2151 757.333 54.1491 757.333 Q55.6628 757.333 56.8544 758.653 Q57.4019 759.298 57.5307 759.909 Q57.6596 760.489 57.6596 761.488 Q58.5613 761.101 59.1732 760.393 Q59.7851 759.684 60.0106 758.879 Q60.2682 758.074 60.3326 757.558 Q60.4293 757.011 60.4293 756.496 Q60.4293 752.373 56.2747 749.217 Q55.0187 748.283 53.7626 747.607 Q52.5388 746.898 51.0252 746.383 Q49.5437 745.868 48.7385 745.642 Q47.9334 745.385 46.0977 744.934 Q49.0928 747.929 49.0928 751.6 Q49.0928 753.146 48.6741 754.531 Q48.2554 755.884 47.3859 757.075 Q46.4841 758.267 44.906 758.975 Q43.3279 759.652 41.2346 759.652 Q39.0124 759.652 35.985 758.782 Q32.9577 757.913 27.386 755.819 Q24.2621 754.692 22.7484 754.692 Q22.0077 754.692 21.5568 754.853 Q21.0737 755.014 20.9127 755.336 Q20.7194 755.658 20.6872 755.852 Q20.655 756.013 20.655 756.335 Q20.655 758.235 22.5874 760.006 Q24.5197 761.777 28.8353 763.001 Q29.6405 763.259 29.8337 763.42 Q30.0269 763.581 30.0269 764.064 Q29.9947 764.869 29.3506 764.869 Q29.093 764.869 28.0946 764.579 Q27.064 764.289 25.5503 763.613 Q24.0044 762.905 22.6196 761.938 Q21.2025 760.972 20.2041 759.459 Q19.2058 757.913 19.2058 756.141 Q19.2058 753.726 20.7838 752.244 Q22.3297 750.731 24.6163 750.731 Q25.5503 750.731 26.3877 750.988 Q27.1928 751.214 29.3506 752.051 Q38.0462 755.433 42.2974 755.433 Q43.3279 755.433 44.1975 755.272 Q45.0349 755.079 45.8722 754.66 Q46.6774 754.241 47.1604 753.404 Q47.6113 752.534 47.6113 751.343 Q47.6113 749.829 46.9028 748.412 Q46.1621 746.963 45.1637 746.061 Q44.1653 745.127 43.3279 744.579 Q42.4584 744 42.0075 743.871 L30.1558 740.908 L24.874 739.588 Q22.0077 738.976 21.2991 738.686 Q20.6228 738.299 20.2686 737.623 Q19.9143 736.947 19.9143 736.367 Q19.9143 735.562 20.3974 735.014 Q20.8805 734.435 21.7178 734.435 Z" fill="#000000" fill-rule="nonzero" fill-opacity="1" /><path clip-path="url(#clip610)" d="M53.6652 727.689 L52.2224 727.689 Q52.2224 722.143 49.2691 719.28 Q49.2691 718.491 49.4494 718.355 Q49.6298 718.22 50.4639 718.22 L76.3671 718.22 Q77.7423 718.22 78.1706 717.544 Q78.599 716.867 78.599 713.914 L78.599 712.449 L80.0193 712.449 Q79.884 714.072 79.884 719.933 Q79.884 725.795 80.0193 727.395 L78.599 727.395 L78.599 725.93 Q78.599 723.022 78.1932 722.323 Q77.7648 721.624 76.3671 721.624 L52.4478 721.624 Q53.6652 724.036 53.6652 727.689 Z" fill="#000000" fill-rule="nonzero" fill-opacity="1" /><polyline clip-path="url(#clip612)" style="stroke:#009af9; stroke-linecap:round; stroke-linejoin:round; stroke-width:4; stroke-opacity:1; fill:none" points="229.629,1368.89 254.791,1359.97 279.954,1161.4 305.116,867.032 330.278,520.796 355.44,329.036 380.603,130.161 405.765,143.598 430.927,208.187 456.089,296.949 481.252,413.778 506.414,495.613 531.576,603.896 556.739,656.516 581.901,588.449 607.063,583.873 632.225,579.931 657.388,486.11 682.55,476.186 707.712,434.271 732.874,444.639 758.037,460.812 783.199,468.754 808.361,496.725 833.524,512.188 858.686,519.081 883.848,518.4 909.01,542.725 934.173,512.06 959.335,517.303 984.497,487.446 1009.66,522.553 1034.82,486.543 1059.98,499.058 1085.15,507.172 "/>
<polyline clip-path="url(#clip612)" style="stroke:#e26f46; stroke-linecap:round; stroke-linejoin:round; stroke-width:3; stroke-opacity:1; fill:none" stroke-dasharray="12, 6, 2, 6" points="229.629,1384.24 254.791,1368.89 279.954,1152.47 305.116,843.74 330.278,547.396 355.44,244.033 380.603,211.746 405.765,86.1857 430.927,232.451 456.089,348.664 481.252,439.802 506.414,542.17 531.576,577.922 556.739,663.165 581.901,668.536 607.063,528.791 632.225,539.567 657.388,548.84 682.55,427.698 707.712,457.949 732.874,420.593 758.037,458.579 783.199,483.99 808.361,487.021 833.524,518.121 858.686,524.448 883.848,521.683 909.01,513.698 934.173,546.563 959.335,494.105 984.497,511.249 1009.66,471.856 1034.82,534.618 1059.98,474.951 1085.15,503.121 "/>
<path clip-path="url(#clip610)" d="M961.069 248.629 L1080.58 248.629 L1080.58 93.1086 L961.069 93.1086  Z" fill="#ffffff" fill-rule="evenodd" fill-opacity="1"/>
<polyline clip-path="url(#clip610)" style="stroke:#000000; stroke-linecap:round; stroke-linejoin:round; stroke-width:4; stroke-opacity:1; fill:none" points="961.069,248.629 1080.58,248.629 1080.58,93.1086 961.069,93.1086 961.069,248.629 "/>
<polyline clip-path="url(#clip610)" style="stroke:#009af9; stroke-linecap:round; stroke-linejoin:round; stroke-width:4; stroke-opacity:1; fill:none" points="971.145,144.949 1031.6,144.949 "/>
<path clip-path="url(#clip610)" d="M1068.45 131.687 Q1066.97 131.687 1066.22 131.828 Q1065.48 131.945 1065.29 132.109 Q1065.1 132.273 1064.89 132.695 L1054.58 154.618 Q1053.48 156.96 1051.42 158.647 Q1049.38 160.333 1046.81 160.333 Q1044.65 160.333 1043.15 159.021 Q1041.68 157.733 1041.68 155.906 Q1041.68 154.595 1042.5 153.845 Q1043.32 153.119 1044.42 153.119 Q1045.64 153.119 1046.41 153.892 Q1047.21 154.665 1047.21 155.859 Q1047.21 156.632 1046.88 157.218 Q1046.55 157.827 1046.25 158.038 Q1045.96 158.272 1045.66 158.412 Q1046.15 158.6 1046.81 158.6 Q1047.79 158.6 1048.63 158.202 Q1049.5 157.827 1050.06 157.312 Q1050.65 156.82 1051.23 155.93 Q1051.82 155.063 1052.1 154.501 Q1052.38 153.962 1052.8 153.025 L1053.9 150.73 L1044.93 131.687 L1041.87 131.687 L1041.87 129.439 L1047.35 129.579 L1053.3 129.439 L1053.3 131.687 L1050.7 131.687 L1056.79 144.64 L1062.31 132.835 L1062.55 132.273 Q1062.55 132.015 1061.99 131.875 Q1061.42 131.711 1060.86 131.711 L1060.3 131.687 L1060.3 129.439 L1064.66 129.579 Q1066.72 129.579 1068.45 129.439 L1068.45 131.687 Z" fill="#000000" fill-rule="nonzero" fill-opacity="1" /><polyline clip-path="url(#clip610)" style="stroke:#e26f46; stroke-linecap:round; stroke-linejoin:round; stroke-width:3; stroke-opacity:1; fill:none" stroke-dasharray="12, 6, 2, 6" points="971.145,196.789 1031.6,196.789 "/>
<path clip-path="url(#clip610)" d="M1064.26 180.509 L1063.85 181.181 Q1061.31 180.083 1058.15 178.328 Q1054.98 180.083 1052.44 181.181 L1052.05 180.509 Q1054.82 178.099 1058.15 176.246 Q1061.51 178.115 1064.26 180.509 Z" fill="#000000" fill-rule="nonzero" fill-opacity="1" /><path clip-path="url(#clip610)" d="M1068.45 188.532 Q1066.97 188.532 1066.22 188.672 Q1065.48 188.79 1065.29 188.954 Q1065.1 189.118 1064.89 189.539 L1054.58 211.463 Q1053.48 213.805 1051.42 215.491 Q1049.38 217.178 1046.81 217.178 Q1044.65 217.178 1043.15 215.866 Q1041.68 214.578 1041.68 212.751 Q1041.68 211.439 1042.5 210.69 Q1043.32 209.963 1044.42 209.963 Q1045.64 209.963 1046.41 210.736 Q1047.21 211.509 1047.21 212.704 Q1047.21 213.477 1046.88 214.062 Q1046.55 214.671 1046.25 214.882 Q1045.96 215.116 1045.66 215.257 Q1046.15 215.444 1046.81 215.444 Q1047.79 215.444 1048.63 215.046 Q1049.5 214.671 1050.06 214.156 Q1050.65 213.664 1051.23 212.774 Q1051.82 211.908 1052.1 211.345 Q1052.38 210.807 1052.8 209.87 L1053.9 207.574 L1044.93 188.532 L1041.87 188.532 L1041.87 186.283 L1047.35 186.424 L1053.3 186.283 L1053.3 188.532 L1050.7 188.532 L1056.79 201.485 L1062.31 189.68 L1062.55 189.118 Q1062.55 188.86 1061.99 188.719 Q1061.42 188.555 1060.86 188.555 L1060.3 188.532 L1060.3 186.283 L1064.66 186.424 Q1066.72 186.424 1068.45 186.283 L1068.45 188.532 Z" fill="#000000" fill-rule="nonzero" fill-opacity="1" /><path clip-path="url(#clip610)" d="M1445.91 398.692 L2352.76 398.692 L2352.76 47.2441 L1445.91 47.2441  Z" fill="#ffffff" fill-rule="evenodd" fill-opacity="1"/>
<defs>
  <clipPath id="clip613">
    <rect x="1445" y="47" width="908" height="352"/>
  </clipPath>
</defs>
<polyline clip-path="url(#clip613)" style="stroke:#000000; stroke-linecap:round; stroke-linejoin:round; stroke-width:2; stroke-opacity:0.1; fill:none" points="1471.57,398.692 1471.57,47.2441 "/>
<polyline clip-path="url(#clip613)" style="stroke:#000000; stroke-linecap:round; stroke-linejoin:round; stroke-width:2; stroke-opacity:0.1; fill:none" points="1723.2,398.692 1723.2,47.2441 "/>
<polyline clip-path="url(#clip613)" style="stroke:#000000; stroke-linecap:round; stroke-linejoin:round; stroke-width:2; stroke-opacity:0.1; fill:none" points="1974.82,398.692 1974.82,47.2441 "/>
<polyline clip-path="url(#clip613)" style="stroke:#000000; stroke-linecap:round; stroke-linejoin:round; stroke-width:2; stroke-opacity:0.1; fill:none" points="2226.44,398.692 2226.44,47.2441 "/>
<polyline clip-path="url(#clip610)" style="stroke:#000000; stroke-linecap:round; stroke-linejoin:round; stroke-width:4; stroke-opacity:1; fill:none" points="1445.91,398.692 2352.76,398.692 "/>
<polyline clip-path="url(#clip610)" style="stroke:#000000; stroke-linecap:round; stroke-linejoin:round; stroke-width:4; stroke-opacity:1; fill:none" points="1471.57,398.692 1471.57,379.794 "/>
<polyline clip-path="url(#clip610)" style="stroke:#000000; stroke-linecap:round; stroke-linejoin:round; stroke-width:4; stroke-opacity:1; fill:none" points="1723.2,398.692 1723.2,379.794 "/>
<polyline clip-path="url(#clip610)" style="stroke:#000000; stroke-linecap:round; stroke-linejoin:round; stroke-width:4; stroke-opacity:1; fill:none" points="1974.82,398.692 1974.82,379.794 "/>
<polyline clip-path="url(#clip610)" style="stroke:#000000; stroke-linecap:round; stroke-linejoin:round; stroke-width:4; stroke-opacity:1; fill:none" points="2226.44,398.692 2226.44,379.794 "/>
<path clip-path="url(#clip610)" d="M1471.57 429.611 Q1467.96 429.611 1466.13 433.175 Q1464.33 436.717 1464.33 443.847 Q1464.33 450.953 1466.13 454.518 Q1467.96 458.059 1471.57 458.059 Q1475.21 458.059 1477.01 454.518 Q1478.84 450.953 1478.84 443.847 Q1478.84 436.717 1477.01 433.175 Q1475.21 429.611 1471.57 429.611 M1471.57 425.907 Q1477.38 425.907 1480.44 430.513 Q1483.52 435.097 1483.52 443.847 Q1483.52 452.573 1480.44 457.18 Q1477.38 461.763 1471.57 461.763 Q1465.76 461.763 1462.68 457.18 Q1459.63 452.573 1459.63 443.847 Q1459.63 435.097 1462.68 430.513 Q1465.76 425.907 1471.57 425.907 Z" fill="#000000" fill-rule="nonzero" fill-opacity="1" /><path clip-path="url(#clip610)" d="M1713.58 457.157 L1721.22 457.157 L1721.22 430.791 L1712.91 432.458 L1712.91 428.199 L1721.17 426.532 L1725.85 426.532 L1725.85 457.157 L1733.49 457.157 L1733.49 461.092 L1713.58 461.092 L1713.58 457.157 Z" fill="#000000" fill-rule="nonzero" fill-opacity="1" /><path clip-path="url(#clip610)" d="M1969.47 457.157 L1985.79 457.157 L1985.79 461.092 L1963.85 461.092 L1963.85 457.157 Q1966.51 454.402 1971.09 449.772 Q1975.7 445.12 1976.88 443.777 Q1979.12 441.254 1980 439.518 Q1980.91 437.759 1980.91 436.069 Q1980.91 433.314 1978.96 431.578 Q1977.04 429.842 1973.94 429.842 Q1971.74 429.842 1969.29 430.606 Q1966.86 431.37 1964.08 432.921 L1964.08 428.199 Q1966.9 427.064 1969.36 426.486 Q1971.81 425.907 1973.85 425.907 Q1979.22 425.907 1982.41 428.592 Q1985.61 431.277 1985.61 435.768 Q1985.61 437.898 1984.8 439.819 Q1984.01 441.717 1981.9 444.31 Q1981.32 444.981 1978.22 448.198 Q1975.12 451.393 1969.47 457.157 Z" fill="#000000" fill-rule="nonzero" fill-opacity="1" /><path clip-path="url(#clip610)" d="M2230.69 442.458 Q2234.05 443.175 2235.92 445.444 Q2237.82 447.712 2237.82 451.046 Q2237.82 456.161 2234.3 458.962 Q2230.78 461.763 2224.3 461.763 Q2222.12 461.763 2219.81 461.323 Q2217.52 460.907 2215.06 460.05 L2215.06 455.536 Q2217.01 456.671 2219.32 457.249 Q2221.64 457.828 2224.16 457.828 Q2228.56 457.828 2230.85 456.092 Q2233.17 454.356 2233.17 451.046 Q2233.17 447.99 2231.01 446.277 Q2228.88 444.541 2225.06 444.541 L2221.04 444.541 L2221.04 440.698 L2225.25 440.698 Q2228.7 440.698 2230.53 439.333 Q2232.36 437.944 2232.36 435.351 Q2232.36 432.689 2230.46 431.277 Q2228.58 429.842 2225.06 429.842 Q2223.14 429.842 2220.94 430.259 Q2218.74 430.675 2216.11 431.555 L2216.11 427.388 Q2218.77 426.648 2221.08 426.277 Q2223.42 425.907 2225.48 425.907 Q2230.8 425.907 2233.91 428.337 Q2237.01 430.745 2237.01 434.865 Q2237.01 437.736 2235.36 439.726 Q2233.72 441.694 2230.69 442.458 Z" fill="#000000" fill-rule="nonzero" fill-opacity="1" /><polyline clip-path="url(#clip613)" style="stroke:#000000; stroke-linecap:round; stroke-linejoin:round; stroke-width:2; stroke-opacity:0.1; fill:none" points="1445.91,388.745 2352.76,388.745 "/>
<polyline clip-path="url(#clip613)" style="stroke:#000000; stroke-linecap:round; stroke-linejoin:round; stroke-width:2; stroke-opacity:0.1; fill:none" points="1445.91,337.187 2352.76,337.187 "/>
<polyline clip-path="url(#clip613)" style="stroke:#000000; stroke-linecap:round; stroke-linejoin:round; stroke-width:2; stroke-opacity:0.1; fill:none" points="1445.91,285.629 2352.76,285.629 "/>
<polyline clip-path="url(#clip613)" style="stroke:#000000; stroke-linecap:round; stroke-linejoin:round; stroke-width:2; stroke-opacity:0.1; fill:none" points="1445.91,234.07 2352.76,234.07 "/>
<polyline clip-path="url(#clip613)" style="stroke:#000000; stroke-linecap:round; stroke-linejoin:round; stroke-width:2; stroke-opacity:0.1; fill:none" points="1445.91,182.512 2352.76,182.512 "/>
<polyline clip-path="url(#clip613)" style="stroke:#000000; stroke-linecap:round; stroke-linejoin:round; stroke-width:2; stroke-opacity:0.1; fill:none" points="1445.91,130.954 2352.76,130.954 "/>
<polyline clip-path="url(#clip613)" style="stroke:#000000; stroke-linecap:round; stroke-linejoin:round; stroke-width:2; stroke-opacity:0.1; fill:none" points="1445.91,79.3957 2352.76,79.3957 "/>
<polyline clip-path="url(#clip610)" style="stroke:#000000; stroke-linecap:round; stroke-linejoin:round; stroke-width:4; stroke-opacity:1; fill:none" points="1445.91,398.692 1445.91,47.2441 "/>
<polyline clip-path="url(#clip610)" style="stroke:#000000; stroke-linecap:round; stroke-linejoin:round; stroke-width:4; stroke-opacity:1; fill:none" points="1445.91,388.745 1464.81,388.745 "/>
<polyline clip-path="url(#clip610)" style="stroke:#000000; stroke-linecap:round; stroke-linejoin:round; stroke-width:4; stroke-opacity:1; fill:none" points="1445.91,337.187 1464.81,337.187 "/>
<polyline clip-path="url(#clip610)" style="stroke:#000000; stroke-linecap:round; stroke-linejoin:round; stroke-width:4; stroke-opacity:1; fill:none" points="1445.91,285.629 1464.81,285.629 "/>
<polyline clip-path="url(#clip610)" style="stroke:#000000; stroke-linecap:round; stroke-linejoin:round; stroke-width:4; stroke-opacity:1; fill:none" points="1445.91,234.07 1464.81,234.07 "/>
<polyline clip-path="url(#clip610)" style="stroke:#000000; stroke-linecap:round; stroke-linejoin:round; stroke-width:4; stroke-opacity:1; fill:none" points="1445.91,182.512 1464.81,182.512 "/>
<polyline clip-path="url(#clip610)" style="stroke:#000000; stroke-linecap:round; stroke-linejoin:round; stroke-width:4; stroke-opacity:1; fill:none" points="1445.91,130.954 1464.81,130.954 "/>
<polyline clip-path="url(#clip610)" style="stroke:#000000; stroke-linecap:round; stroke-linejoin:round; stroke-width:4; stroke-opacity:1; fill:none" points="1445.91,79.3957 1464.81,79.3957 "/>
<path clip-path="url(#clip610)" d="M1352.73 374.544 Q1349.12 374.544 1347.29 378.109 Q1345.49 381.65 1345.49 388.78 Q1345.49 395.886 1347.29 399.451 Q1349.12 402.993 1352.73 402.993 Q1356.37 402.993 1358.17 399.451 Q1360 395.886 1360 388.78 Q1360 381.65 1358.17 378.109 Q1356.37 374.544 1352.73 374.544 M1352.73 370.84 Q1358.54 370.84 1361.6 375.447 Q1364.68 380.03 1364.68 388.78 Q1364.68 397.507 1361.6 402.113 Q1358.54 406.697 1352.73 406.697 Q1346.92 406.697 1343.84 402.113 Q1340.79 397.507 1340.79 388.78 Q1340.79 380.03 1343.84 375.447 Q1346.92 370.84 1352.73 370.84 Z" fill="#000000" fill-rule="nonzero" fill-opacity="1" /><path clip-path="url(#clip610)" d="M1372.89 400.146 L1377.78 400.146 L1377.78 406.025 L1372.89 406.025 L1372.89 400.146 Z" fill="#000000" fill-rule="nonzero" fill-opacity="1" /><path clip-path="url(#clip610)" d="M1397.96 374.544 Q1394.35 374.544 1392.52 378.109 Q1390.72 381.65 1390.72 388.78 Q1390.72 395.886 1392.52 399.451 Q1394.35 402.993 1397.96 402.993 Q1401.6 402.993 1403.4 399.451 Q1405.23 395.886 1405.23 388.78 Q1405.23 381.65 1403.4 378.109 Q1401.6 374.544 1397.96 374.544 M1397.96 370.84 Q1403.77 370.84 1406.83 375.447 Q1409.91 380.03 1409.91 388.78 Q1409.91 397.507 1406.83 402.113 Q1403.77 406.697 1397.96 406.697 Q1392.15 406.697 1389.07 402.113 Q1386.02 397.507 1386.02 388.78 Q1386.02 380.03 1389.07 375.447 Q1392.15 370.84 1397.96 370.84 Z" fill="#000000" fill-rule="nonzero" fill-opacity="1" /><path clip-path="url(#clip610)" d="M1353.96 322.986 Q1350.35 322.986 1348.52 326.55 Q1346.71 330.092 1346.71 337.222 Q1346.71 344.328 1348.52 347.893 Q1350.35 351.435 1353.96 351.435 Q1357.59 351.435 1359.4 347.893 Q1361.23 344.328 1361.23 337.222 Q1361.23 330.092 1359.4 326.55 Q1357.59 322.986 1353.96 322.986 M1353.96 319.282 Q1359.77 319.282 1362.82 323.888 Q1365.9 328.472 1365.9 337.222 Q1365.9 345.949 1362.82 350.555 Q1359.77 355.138 1353.96 355.138 Q1348.15 355.138 1345.07 350.555 Q1342.01 345.949 1342.01 337.222 Q1342.01 328.472 1345.07 323.888 Q1348.15 319.282 1353.96 319.282 Z" fill="#000000" fill-rule="nonzero" fill-opacity="1" /><path clip-path="url(#clip610)" d="M1374.12 348.587 L1379.01 348.587 L1379.01 354.467 L1374.12 354.467 L1374.12 348.587 Z" fill="#000000" fill-rule="nonzero" fill-opacity="1" /><path clip-path="url(#clip610)" d="M1390 350.532 L1397.64 350.532 L1397.64 324.166 L1389.33 325.833 L1389.33 321.574 L1397.59 319.907 L1402.27 319.907 L1402.27 350.532 L1409.91 350.532 L1409.91 354.467 L1390 354.467 L1390 350.532 Z" fill="#000000" fill-rule="nonzero" fill-opacity="1" /><path clip-path="url(#clip610)" d="M1354.33 271.427 Q1350.72 271.427 1348.89 274.992 Q1347.08 278.534 1347.08 285.663 Q1347.08 292.77 1348.89 296.335 Q1350.72 299.876 1354.33 299.876 Q1357.96 299.876 1359.77 296.335 Q1361.6 292.77 1361.6 285.663 Q1361.6 278.534 1359.77 274.992 Q1357.96 271.427 1354.33 271.427 M1354.33 267.724 Q1360.14 267.724 1363.2 272.33 Q1366.27 276.913 1366.27 285.663 Q1366.27 294.39 1363.2 298.997 Q1360.14 303.58 1354.33 303.58 Q1348.52 303.58 1345.44 298.997 Q1342.39 294.39 1342.39 285.663 Q1342.39 276.913 1345.44 272.33 Q1348.52 267.724 1354.33 267.724 Z" fill="#000000" fill-rule="nonzero" fill-opacity="1" /><path clip-path="url(#clip610)" d="M1374.49 297.029 L1379.38 297.029 L1379.38 302.909 L1374.49 302.909 L1374.49 297.029 Z" fill="#000000" fill-rule="nonzero" fill-opacity="1" /><path clip-path="url(#clip610)" d="M1393.59 298.974 L1409.91 298.974 L1409.91 302.909 L1387.96 302.909 L1387.96 298.974 Q1390.63 296.219 1395.21 291.589 Q1399.82 286.937 1401 285.594 Q1403.24 283.071 1404.12 281.335 Q1405.02 279.576 1405.02 277.886 Q1405.02 275.131 1403.08 273.395 Q1401.16 271.659 1398.06 271.659 Q1395.86 271.659 1393.4 272.423 Q1390.97 273.187 1388.19 274.738 L1388.19 270.015 Q1391.02 268.881 1393.47 268.302 Q1395.93 267.724 1397.96 267.724 Q1403.33 267.724 1406.53 270.409 Q1409.72 273.094 1409.72 277.585 Q1409.72 279.714 1408.91 281.636 Q1408.13 283.534 1406.02 286.126 Q1405.44 286.798 1402.34 290.015 Q1399.24 293.21 1393.59 298.974 Z" fill="#000000" fill-rule="nonzero" fill-opacity="1" /><path clip-path="url(#clip610)" d="M1353.38 219.869 Q1349.77 219.869 1347.94 223.434 Q1346.13 226.976 1346.13 234.105 Q1346.13 241.212 1347.94 244.776 Q1349.77 248.318 1353.38 248.318 Q1357.01 248.318 1358.82 244.776 Q1360.65 241.212 1360.65 234.105 Q1360.65 226.976 1358.82 223.434 Q1357.01 219.869 1353.38 219.869 M1353.38 216.165 Q1359.19 216.165 1362.25 220.772 Q1365.32 225.355 1365.32 234.105 Q1365.32 242.832 1362.25 247.438 Q1359.19 252.022 1353.38 252.022 Q1347.57 252.022 1344.49 247.438 Q1341.44 242.832 1341.44 234.105 Q1341.44 225.355 1344.49 220.772 Q1347.57 216.165 1353.38 216.165 Z" fill="#000000" fill-rule="nonzero" fill-opacity="1" /><path clip-path="url(#clip610)" d="M1373.54 245.471 L1378.43 245.471 L1378.43 251.35 L1373.54 251.35 L1373.54 245.471 Z" fill="#000000" fill-rule="nonzero" fill-opacity="1" /><path clip-path="url(#clip610)" d="M1402.78 232.716 Q1406.13 233.434 1408.01 235.702 Q1409.91 237.971 1409.91 241.304 Q1409.91 246.42 1406.39 249.221 Q1402.87 252.022 1396.39 252.022 Q1394.21 252.022 1391.9 251.582 Q1389.61 251.165 1387.15 250.309 L1387.15 245.795 Q1389.1 246.929 1391.41 247.508 Q1393.73 248.087 1396.25 248.087 Q1400.65 248.087 1402.94 246.35 Q1405.26 244.614 1405.26 241.304 Q1405.26 238.249 1403.1 236.536 Q1400.97 234.8 1397.15 234.8 L1393.13 234.8 L1393.13 230.957 L1397.34 230.957 Q1400.79 230.957 1402.62 229.591 Q1404.44 228.202 1404.44 225.61 Q1404.44 222.948 1402.55 221.536 Q1400.67 220.101 1397.15 220.101 Q1395.23 220.101 1393.03 220.517 Q1390.83 220.934 1388.19 221.814 L1388.19 217.647 Q1390.86 216.906 1393.17 216.536 Q1395.51 216.165 1397.57 216.165 Q1402.89 216.165 1406 218.596 Q1409.1 221.003 1409.1 225.124 Q1409.1 227.994 1407.45 229.985 Q1405.81 231.952 1402.78 232.716 Z" fill="#000000" fill-rule="nonzero" fill-opacity="1" /><path clip-path="url(#clip610)" d="M1352.25 168.311 Q1348.63 168.311 1346.81 171.876 Q1345 175.417 1345 182.547 Q1345 189.653 1346.81 193.218 Q1348.63 196.76 1352.25 196.76 Q1355.88 196.76 1357.69 193.218 Q1359.51 189.653 1359.51 182.547 Q1359.51 175.417 1357.69 171.876 Q1355.88 168.311 1352.25 168.311 M1352.25 164.607 Q1358.06 164.607 1361.11 169.214 Q1364.19 173.797 1364.19 182.547 Q1364.19 191.274 1361.11 195.88 Q1358.06 200.463 1352.25 200.463 Q1346.44 200.463 1343.36 195.88 Q1340.3 191.274 1340.3 182.547 Q1340.3 173.797 1343.36 169.214 Q1346.44 164.607 1352.25 164.607 Z" fill="#000000" fill-rule="nonzero" fill-opacity="1" /><path clip-path="url(#clip610)" d="M1372.41 193.913 L1377.29 193.913 L1377.29 199.792 L1372.41 199.792 L1372.41 193.913 Z" fill="#000000" fill-rule="nonzero" fill-opacity="1" /><path clip-path="url(#clip610)" d="M1400.32 169.306 L1388.52 187.755 L1400.32 187.755 L1400.32 169.306 M1399.1 165.232 L1404.98 165.232 L1404.98 187.755 L1409.91 187.755 L1409.91 191.644 L1404.98 191.644 L1404.98 199.792 L1400.32 199.792 L1400.32 191.644 L1384.72 191.644 L1384.72 187.13 L1399.1 165.232 Z" fill="#000000" fill-rule="nonzero" fill-opacity="1" /><path clip-path="url(#clip610)" d="M1353.73 116.753 Q1350.12 116.753 1348.29 120.317 Q1346.48 123.859 1346.48 130.989 Q1346.48 138.095 1348.29 141.66 Q1350.12 145.202 1353.73 145.202 Q1357.36 145.202 1359.17 141.66 Q1361 138.095 1361 130.989 Q1361 123.859 1359.17 120.317 Q1357.36 116.753 1353.73 116.753 M1353.73 113.049 Q1359.54 113.049 1362.59 117.655 Q1365.67 122.239 1365.67 130.989 Q1365.67 139.715 1362.59 144.322 Q1359.54 148.905 1353.73 148.905 Q1347.92 148.905 1344.84 144.322 Q1341.78 139.715 1341.78 130.989 Q1341.78 122.239 1344.84 117.655 Q1347.92 113.049 1353.73 113.049 Z" fill="#000000" fill-rule="nonzero" fill-opacity="1" /><path clip-path="url(#clip610)" d="M1373.89 142.354 L1378.77 142.354 L1378.77 148.234 L1373.89 148.234 L1373.89 142.354 Z" fill="#000000" fill-rule="nonzero" fill-opacity="1" /><path clip-path="url(#clip610)" d="M1389.01 113.674 L1407.36 113.674 L1407.36 117.609 L1393.29 117.609 L1393.29 126.081 Q1394.31 125.734 1395.32 125.572 Q1396.34 125.387 1397.36 125.387 Q1403.15 125.387 1406.53 128.558 Q1409.91 131.729 1409.91 137.146 Q1409.91 142.725 1406.44 145.827 Q1402.96 148.905 1396.64 148.905 Q1394.47 148.905 1392.2 148.535 Q1389.95 148.165 1387.55 147.424 L1387.55 142.725 Q1389.63 143.859 1391.85 144.415 Q1394.07 144.97 1396.55 144.97 Q1400.56 144.97 1402.89 142.864 Q1405.23 140.757 1405.23 137.146 Q1405.23 133.535 1402.89 131.428 Q1400.56 129.322 1396.55 129.322 Q1394.68 129.322 1392.8 129.739 Q1390.95 130.155 1389.01 131.035 L1389.01 113.674 Z" fill="#000000" fill-rule="nonzero" fill-opacity="1" /><path clip-path="url(#clip610)" d="M1352.57 65.1944 Q1348.96 65.1944 1347.13 68.7592 Q1345.32 72.3008 1345.32 79.4304 Q1345.32 86.5369 1347.13 90.1017 Q1348.96 93.6433 1352.57 93.6433 Q1356.2 93.6433 1358.01 90.1017 Q1359.84 86.5369 1359.84 79.4304 Q1359.84 72.3008 1358.01 68.7592 Q1356.2 65.1944 1352.57 65.1944 M1352.57 61.4907 Q1358.38 61.4907 1361.44 66.0972 Q1364.51 70.6805 1364.51 79.4304 Q1364.51 88.1572 1361.44 92.7637 Q1358.38 97.347 1352.57 97.347 Q1346.76 97.347 1343.68 92.7637 Q1340.63 88.1572 1340.63 79.4304 Q1340.63 70.6805 1343.68 66.0972 Q1346.76 61.4907 1352.57 61.4907 Z" fill="#000000" fill-rule="nonzero" fill-opacity="1" /><path clip-path="url(#clip610)" d="M1372.73 90.7961 L1377.62 90.7961 L1377.62 96.6757 L1372.73 96.6757 L1372.73 90.7961 Z" fill="#000000" fill-rule="nonzero" fill-opacity="1" /><path clip-path="url(#clip610)" d="M1398.38 77.5323 Q1395.23 77.5323 1393.38 79.685 Q1391.55 81.8378 1391.55 85.5878 Q1391.55 89.3146 1393.38 91.4905 Q1395.23 93.6433 1398.38 93.6433 Q1401.53 93.6433 1403.36 91.4905 Q1405.21 89.3146 1405.21 85.5878 Q1405.21 81.8378 1403.36 79.685 Q1401.53 77.5323 1398.38 77.5323 M1407.66 62.8796 L1407.66 67.1388 Q1405.9 66.3055 1404.1 65.8657 Q1402.32 65.4259 1400.56 65.4259 Q1395.93 65.4259 1393.47 68.5508 Q1391.04 71.6758 1390.69 77.9952 Q1392.06 75.9814 1394.12 74.9166 Q1396.18 73.8286 1398.66 73.8286 Q1403.87 73.8286 1406.88 76.9999 Q1409.91 80.148 1409.91 85.5878 Q1409.91 90.9118 1406.76 94.1294 Q1403.61 97.347 1398.38 97.347 Q1392.38 97.347 1389.21 92.7637 Q1386.04 88.1572 1386.04 79.4304 Q1386.04 71.236 1389.93 66.3749 Q1393.82 61.4907 1400.37 61.4907 Q1402.13 61.4907 1403.91 61.8379 Q1405.72 62.1851 1407.66 62.8796 Z" fill="#000000" fill-rule="nonzero" fill-opacity="1" /><path clip-path="url(#clip610)" d="M1255.92 220.971 Q1257.73 220.971 1258.76 222.098 Q1259.76 223.225 1259.76 224.513 Q1259.76 225.737 1259.05 226.381 Q1258.34 227.025 1257.44 227.025 Q1256.21 227.025 1255.15 226.123 Q1254.09 225.222 1253.86 223.869 Q1253.02 225.189 1253.02 227.154 Q1253.02 228.442 1253.7 229.569 Q1254.38 230.664 1255.25 231.341 Q1256.12 231.985 1257.37 232.565 Q1258.6 233.112 1259.34 233.338 Q1260.05 233.531 1260.82 233.692 L1269.84 235.946 Q1274.12 237.041 1275.63 237.041 Q1277.5 237.041 1278.76 236.139 Q1279.98 235.238 1279.98 233.434 Q1279.98 232.726 1279.79 231.92 Q1279.56 231.115 1278.98 230.085 Q1278.37 229.022 1277.47 228.088 Q1276.53 227.122 1274.96 226.188 Q1273.38 225.254 1271.35 224.642 Q1270.64 224.449 1270.64 223.805 Q1270.64 222.999 1271.29 222.999 Q1271.83 222.999 1272.99 223.45 Q1274.12 223.869 1275.6 224.803 Q1277.05 225.705 1278.37 226.896 Q1279.66 228.088 1280.56 229.859 Q1281.46 231.631 1281.46 233.563 Q1281.46 236.333 1279.98 238.168 Q1278.5 240.004 1276.44 240.68 Q1276.73 240.842 1277.11 241.067 Q1277.5 241.292 1278.37 241.969 Q1279.21 242.613 1279.85 243.354 Q1280.46 244.094 1280.95 245.254 Q1281.46 246.381 1281.46 247.605 Q1281.46 249.151 1281.01 250.535 Q1280.56 251.888 1279.53 252.854 Q1278.5 253.82 1277.08 253.82 Q1275.5 253.82 1274.41 252.758 Q1273.28 251.663 1273.28 250.181 Q1273.28 249.247 1273.83 248.507 Q1274.38 247.734 1275.57 247.734 Q1276.89 247.734 1277.89 248.635 Q1278.89 249.537 1279.14 250.825 Q1279.98 249.505 1279.98 247.54 Q1279.98 245.415 1278.11 243.74 Q1276.25 242.065 1273.12 241.26 Q1265.62 239.263 1262.27 238.49 Q1258.89 237.718 1257.44 237.718 Q1256.08 237.718 1255.15 238.072 Q1254.22 238.426 1253.8 239.038 Q1253.35 239.618 1253.19 240.165 Q1253.02 240.68 1253.02 241.26 Q1253.02 242.226 1253.41 243.321 Q1253.8 244.384 1254.7 245.672 Q1255.57 246.928 1257.37 248.12 Q1259.18 249.312 1261.66 250.117 Q1262.4 250.278 1262.4 250.986 Q1262.36 251.759 1261.72 251.759 Q1261.17 251.759 1260.05 251.341 Q1258.89 250.89 1257.44 249.988 Q1255.99 249.054 1254.7 247.862 Q1253.38 246.639 1252.48 244.867 Q1251.58 243.064 1251.58 241.131 Q1251.58 240.262 1251.77 239.424 Q1251.93 238.555 1252.41 237.524 Q1252.9 236.462 1253.96 235.528 Q1255.02 234.594 1256.57 234.014 Q1255.83 233.627 1255.12 233.112 Q1254.41 232.565 1253.54 231.727 Q1252.64 230.858 1252.12 229.666 Q1251.58 228.442 1251.58 227.09 Q1251.58 225.769 1251.93 224.481 Q1252.25 223.193 1253.31 222.098 Q1254.35 220.971 1255.92 220.971 Z" fill="#000000" fill-rule="nonzero" fill-opacity="1" /><path clip-path="url(#clip610)" d="M1273.38 214.249 L1271.94 214.249 Q1271.94 208.703 1268.98 205.84 Q1268.98 205.051 1269.16 204.916 Q1269.34 204.781 1270.18 204.781 L1296.08 204.781 Q1297.46 204.781 1297.88 204.104 Q1298.31 203.428 1298.31 200.475 L1298.31 199.009 L1299.73 199.009 Q1299.6 200.633 1299.6 206.494 Q1299.6 212.356 1299.73 213.956 L1298.31 213.956 L1298.31 212.491 Q1298.31 209.583 1297.91 208.884 Q1297.48 208.185 1296.08 208.185 L1272.16 208.185 Q1273.38 210.597 1273.38 214.249 Z" fill="#000000" fill-rule="nonzero" fill-opacity="1" /><polyline clip-path="url(#clip613)" style="stroke:#009af9; stroke-linecap:round; stroke-linejoin:round; stroke-width:4; stroke-opacity:1; fill:none" points="1471.57,388.745 1496.74,388.745 1521.9,335.039 1547.06,254.479 1572.22,173.627 1597.38,112.019 1622.55,78.6966 1647.71,72.9183 1672.87,87.7883 1698.03,114.145 1723.2,143.235 1748.36,168.215 1773.52,184.9 1798.68,191.934 1823.85,190.396 1849.01,182.976 1874.17,172.965 1899.33,163.339 1924.49,156.156 1949.66,152.34 1974.82,151.796 1999.98,153.729 2025.14,157.019 2050.31,160.564 2075.47,163.51 2100.63,165.374 2125.79,166.043 2150.95,165.702 2176.12,164.705 2201.28,163.458 2226.44,162.306 2251.6,161.479 2276.77,161.071 2301.93,161.054 2327.09,161.325 "/>
<polyline clip-path="url(#clip613)" style="stroke:#e26f46; stroke-linecap:round; stroke-linejoin:round; stroke-width:3; stroke-opacity:1; fill:none" stroke-dasharray="12, 6, 2, 6" points="1471.57,388.745 1496.74,384.826 1521.9,329.546 1547.06,250.689 1572.22,174.995 1597.38,97.5088 1622.55,89.2618 1647.71,57.1907 1672.87,94.5506 1698.03,124.234 1723.2,147.513 1748.36,173.66 1773.52,182.792 1798.68,204.565 1823.85,205.937 1849.01,170.243 1874.17,172.996 1899.33,175.364 1924.49,144.421 1949.66,152.148 1974.82,142.606 1999.98,152.309 2025.14,158.8 2050.31,159.574 2075.47,167.518 2100.63,169.134 2125.79,168.427 2150.95,166.388 2176.12,174.782 2201.28,161.383 2226.44,165.762 2251.6,155.701 2276.77,171.731 2301.93,156.491 2327.09,163.686 "/>
<path clip-path="url(#clip610)" d="M2203.01 214.479 L2322.53 214.479 L2322.53 58.959 L2203.01 58.959  Z" fill="#ffffff" fill-rule="evenodd" fill-opacity="1"/>
<polyline clip-path="url(#clip610)" style="stroke:#000000; stroke-linecap:round; stroke-linejoin:round; stroke-width:4; stroke-opacity:1; fill:none" points="2203.01,214.479 2322.53,214.479 2322.53,58.959 2203.01,58.959 2203.01,214.479 "/>
<polyline clip-path="url(#clip610)" style="stroke:#009af9; stroke-linecap:round; stroke-linejoin:round; stroke-width:4; stroke-opacity:1; fill:none" points="2213.09,110.799 2273.55,110.799 "/>
<path clip-path="url(#clip610)" d="M2310.63 121.338 L2305.36 121.198 L2299.6 121.338 L2299.6 119.09 L2301.47 119.09 L2296.2 112.859 L2291.54 118.082 L2291.21 118.551 Q2291.21 118.762 2291.75 118.926 Q2292.31 119.09 2292.97 119.09 L2292.97 121.338 L2288.03 121.198 L2283.62 121.338 L2283.62 119.09 Q2285.1 119.09 2285.78 119.066 Q2286.48 119.019 2287.28 118.808 Q2288.07 118.598 2288.47 118.176 L2294.75 111.126 L2287.28 102.296 L2283.86 102.296 L2283.86 100.047 L2289.15 100.188 L2294.94 100.047 L2294.94 102.296 L2293.01 102.296 L2297.72 107.8 L2301.75 103.303 Q2301.77 103.279 2302.15 102.717 Q2301.4 102.296 2300.32 102.296 L2300.32 100.047 L2305.26 100.188 L2309.67 100.047 L2309.67 102.296 Q2307.75 102.296 2306.74 102.436 Q2305.76 102.553 2305.45 102.717 Q2305.17 102.881 2304.77 103.303 L2299.17 109.533 L2307.23 119.09 L2310.63 119.09 L2310.63 121.338 Z" fill="#000000" fill-rule="nonzero" fill-opacity="1" /><polyline clip-path="url(#clip610)" style="stroke:#e26f46; stroke-linecap:round; stroke-linejoin:round; stroke-width:3; stroke-opacity:1; fill:none" stroke-dasharray="12, 6, 2, 6" points="2213.09,162.639 2273.55,162.639 "/>
<path clip-path="url(#clip610)" d="M2306.21 151.117 L2305.8 151.789 Q2303.26 150.691 2300.09 148.936 Q2296.93 150.691 2294.39 151.789 L2293.99 151.117 Q2296.76 148.707 2300.09 146.854 Q2303.45 148.723 2306.21 151.117 Z" fill="#000000" fill-rule="nonzero" fill-opacity="1" /><path clip-path="url(#clip610)" d="M2310.63 178.183 L2305.36 178.042 L2299.6 178.183 L2299.6 175.934 L2301.47 175.934 L2296.2 169.704 L2291.54 174.927 L2291.21 175.395 Q2291.21 175.606 2291.75 175.77 Q2292.31 175.934 2292.97 175.934 L2292.97 178.183 L2288.03 178.042 L2283.62 178.183 L2283.62 175.934 Q2285.1 175.934 2285.78 175.911 Q2286.48 175.864 2287.28 175.653 Q2288.07 175.442 2288.47 175.021 L2294.75 167.97 L2287.28 159.14 L2283.86 159.14 L2283.86 156.892 L2289.15 157.032 L2294.94 156.892 L2294.94 159.14 L2293.01 159.14 L2297.72 164.644 L2301.75 160.147 Q2301.77 160.124 2302.15 159.562 Q2301.4 159.14 2300.32 159.14 L2300.32 156.892 L2305.26 157.032 L2309.67 156.892 L2309.67 159.14 Q2307.75 159.14 2306.74 159.281 Q2305.76 159.398 2305.45 159.562 Q2305.17 159.726 2304.77 160.147 L2299.17 166.378 L2307.23 175.934 L2310.63 175.934 L2310.63 178.183 Z" fill="#000000" fill-rule="nonzero" fill-opacity="1" /><path clip-path="url(#clip610)" d="M1445.91 910.936 L2352.76 910.936 L2352.76 559.488 L1445.91 559.488  Z" fill="#ffffff" fill-rule="evenodd" fill-opacity="1"/>
<defs>
  <clipPath id="clip614">
    <rect x="1445" y="559" width="908" height="352"/>
  </clipPath>
</defs>
<polyline clip-path="url(#clip614)" style="stroke:#000000; stroke-linecap:round; stroke-linejoin:round; stroke-width:2; stroke-opacity:0.1; fill:none" points="1471.57,910.936 1471.57,559.488 "/>
<polyline clip-path="url(#clip614)" style="stroke:#000000; stroke-linecap:round; stroke-linejoin:round; stroke-width:2; stroke-opacity:0.1; fill:none" points="1723.2,910.936 1723.2,559.488 "/>
<polyline clip-path="url(#clip614)" style="stroke:#000000; stroke-linecap:round; stroke-linejoin:round; stroke-width:2; stroke-opacity:0.1; fill:none" points="1974.82,910.936 1974.82,559.488 "/>
<polyline clip-path="url(#clip614)" style="stroke:#000000; stroke-linecap:round; stroke-linejoin:round; stroke-width:2; stroke-opacity:0.1; fill:none" points="2226.44,910.936 2226.44,559.488 "/>
<polyline clip-path="url(#clip610)" style="stroke:#000000; stroke-linecap:round; stroke-linejoin:round; stroke-width:4; stroke-opacity:1; fill:none" points="1445.91,910.936 2352.76,910.936 "/>
<polyline clip-path="url(#clip610)" style="stroke:#000000; stroke-linecap:round; stroke-linejoin:round; stroke-width:4; stroke-opacity:1; fill:none" points="1471.57,910.936 1471.57,892.038 "/>
<polyline clip-path="url(#clip610)" style="stroke:#000000; stroke-linecap:round; stroke-linejoin:round; stroke-width:4; stroke-opacity:1; fill:none" points="1723.2,910.936 1723.2,892.038 "/>
<polyline clip-path="url(#clip610)" style="stroke:#000000; stroke-linecap:round; stroke-linejoin:round; stroke-width:4; stroke-opacity:1; fill:none" points="1974.82,910.936 1974.82,892.038 "/>
<polyline clip-path="url(#clip610)" style="stroke:#000000; stroke-linecap:round; stroke-linejoin:round; stroke-width:4; stroke-opacity:1; fill:none" points="2226.44,910.936 2226.44,892.038 "/>
<path clip-path="url(#clip610)" d="M1471.57 941.855 Q1467.96 941.855 1466.13 945.419 Q1464.33 948.961 1464.33 956.091 Q1464.33 963.197 1466.13 966.762 Q1467.96 970.303 1471.57 970.303 Q1475.21 970.303 1477.01 966.762 Q1478.84 963.197 1478.84 956.091 Q1478.84 948.961 1477.01 945.419 Q1475.21 941.855 1471.57 941.855 M1471.57 938.151 Q1477.38 938.151 1480.44 942.757 Q1483.52 947.341 1483.52 956.091 Q1483.52 964.817 1480.44 969.424 Q1477.38 974.007 1471.57 974.007 Q1465.76 974.007 1462.68 969.424 Q1459.63 964.817 1459.63 956.091 Q1459.63 947.341 1462.68 942.757 Q1465.76 938.151 1471.57 938.151 Z" fill="#000000" fill-rule="nonzero" fill-opacity="1" /><path clip-path="url(#clip610)" d="M1713.58 969.401 L1721.22 969.401 L1721.22 943.035 L1712.91 944.702 L1712.91 940.443 L1721.17 938.776 L1725.85 938.776 L1725.85 969.401 L1733.49 969.401 L1733.49 973.336 L1713.58 973.336 L1713.58 969.401 Z" fill="#000000" fill-rule="nonzero" fill-opacity="1" /><path clip-path="url(#clip610)" d="M1969.47 969.401 L1985.79 969.401 L1985.79 973.336 L1963.85 973.336 L1963.85 969.401 Q1966.51 966.646 1971.09 962.016 Q1975.7 957.364 1976.88 956.021 Q1979.12 953.498 1980 951.762 Q1980.91 950.003 1980.91 948.313 Q1980.91 945.558 1978.96 943.822 Q1977.04 942.086 1973.94 942.086 Q1971.74 942.086 1969.29 942.85 Q1966.86 943.614 1964.08 945.165 L1964.08 940.443 Q1966.9 939.308 1969.36 938.73 Q1971.81 938.151 1973.85 938.151 Q1979.22 938.151 1982.41 940.836 Q1985.61 943.521 1985.61 948.012 Q1985.61 950.142 1984.8 952.063 Q1984.01 953.961 1981.9 956.554 Q1981.32 957.225 1978.22 960.442 Q1975.12 963.637 1969.47 969.401 Z" fill="#000000" fill-rule="nonzero" fill-opacity="1" /><path clip-path="url(#clip610)" d="M2230.69 954.702 Q2234.05 955.419 2235.92 957.688 Q2237.82 959.956 2237.82 963.29 Q2237.82 968.405 2234.3 971.206 Q2230.78 974.007 2224.3 974.007 Q2222.12 974.007 2219.81 973.567 Q2217.52 973.151 2215.06 972.294 L2215.06 967.78 Q2217.01 968.915 2219.32 969.493 Q2221.64 970.072 2224.16 970.072 Q2228.56 970.072 2230.85 968.336 Q2233.17 966.6 2233.17 963.29 Q2233.17 960.234 2231.01 958.521 Q2228.88 956.785 2225.06 956.785 L2221.04 956.785 L2221.04 952.942 L2225.25 952.942 Q2228.7 952.942 2230.53 951.577 Q2232.36 950.188 2232.36 947.595 Q2232.36 944.933 2230.46 943.521 Q2228.58 942.086 2225.06 942.086 Q2223.14 942.086 2220.94 942.503 Q2218.74 942.919 2216.11 943.799 L2216.11 939.632 Q2218.77 938.892 2221.08 938.521 Q2223.42 938.151 2225.48 938.151 Q2230.8 938.151 2233.91 940.581 Q2237.01 942.989 2237.01 947.109 Q2237.01 949.979 2235.36 951.97 Q2233.72 953.938 2230.69 954.702 Z" fill="#000000" fill-rule="nonzero" fill-opacity="1" /><polyline clip-path="url(#clip614)" style="stroke:#000000; stroke-linecap:round; stroke-linejoin:round; stroke-width:2; stroke-opacity:0.1; fill:none" points="1445.91,859.175 2352.76,859.175 "/>
<polyline clip-path="url(#clip614)" style="stroke:#000000; stroke-linecap:round; stroke-linejoin:round; stroke-width:2; stroke-opacity:0.1; fill:none" points="1445.91,792.786 2352.76,792.786 "/>
<polyline clip-path="url(#clip614)" style="stroke:#000000; stroke-linecap:round; stroke-linejoin:round; stroke-width:2; stroke-opacity:0.1; fill:none" points="1445.91,726.396 2352.76,726.396 "/>
<polyline clip-path="url(#clip614)" style="stroke:#000000; stroke-linecap:round; stroke-linejoin:round; stroke-width:2; stroke-opacity:0.1; fill:none" points="1445.91,660.007 2352.76,660.007 "/>
<polyline clip-path="url(#clip614)" style="stroke:#000000; stroke-linecap:round; stroke-linejoin:round; stroke-width:2; stroke-opacity:0.1; fill:none" points="1445.91,593.617 2352.76,593.617 "/>
<polyline clip-path="url(#clip610)" style="stroke:#000000; stroke-linecap:round; stroke-linejoin:round; stroke-width:4; stroke-opacity:1; fill:none" points="1445.91,910.936 1445.91,559.488 "/>
<polyline clip-path="url(#clip610)" style="stroke:#000000; stroke-linecap:round; stroke-linejoin:round; stroke-width:4; stroke-opacity:1; fill:none" points="1445.91,859.175 1464.81,859.175 "/>
<polyline clip-path="url(#clip610)" style="stroke:#000000; stroke-linecap:round; stroke-linejoin:round; stroke-width:4; stroke-opacity:1; fill:none" points="1445.91,792.786 1464.81,792.786 "/>
<polyline clip-path="url(#clip610)" style="stroke:#000000; stroke-linecap:round; stroke-linejoin:round; stroke-width:4; stroke-opacity:1; fill:none" points="1445.91,726.396 1464.81,726.396 "/>
<polyline clip-path="url(#clip610)" style="stroke:#000000; stroke-linecap:round; stroke-linejoin:round; stroke-width:4; stroke-opacity:1; fill:none" points="1445.91,660.007 1464.81,660.007 "/>
<polyline clip-path="url(#clip610)" style="stroke:#000000; stroke-linecap:round; stroke-linejoin:round; stroke-width:4; stroke-opacity:1; fill:none" points="1445.91,593.617 1464.81,593.617 "/>
<path clip-path="url(#clip610)" d="M1303.96 859.627 L1333.64 859.627 L1333.64 863.562 L1303.96 863.562 L1303.96 859.627 Z" fill="#000000" fill-rule="nonzero" fill-opacity="1" /><path clip-path="url(#clip610)" d="M1353.73 844.974 Q1350.12 844.974 1348.29 848.539 Q1346.48 852.08 1346.48 859.21 Q1346.48 866.317 1348.29 869.881 Q1350.12 873.423 1353.73 873.423 Q1357.36 873.423 1359.17 869.881 Q1361 866.317 1361 859.21 Q1361 852.08 1359.17 848.539 Q1357.36 844.974 1353.73 844.974 M1353.73 841.27 Q1359.54 841.27 1362.59 845.877 Q1365.67 850.46 1365.67 859.21 Q1365.67 867.937 1362.59 872.543 Q1359.54 877.127 1353.73 877.127 Q1347.92 877.127 1344.84 872.543 Q1341.78 867.937 1341.78 859.21 Q1341.78 850.46 1344.84 845.877 Q1347.92 841.27 1353.73 841.27 Z" fill="#000000" fill-rule="nonzero" fill-opacity="1" /><path clip-path="url(#clip610)" d="M1373.89 870.576 L1378.77 870.576 L1378.77 876.455 L1373.89 876.455 L1373.89 870.576 Z" fill="#000000" fill-rule="nonzero" fill-opacity="1" /><path clip-path="url(#clip610)" d="M1389.01 841.895 L1407.36 841.895 L1407.36 845.831 L1393.29 845.831 L1393.29 854.303 Q1394.31 853.955 1395.32 853.793 Q1396.34 853.608 1397.36 853.608 Q1403.15 853.608 1406.53 856.78 Q1409.91 859.951 1409.91 865.367 Q1409.91 870.946 1406.44 874.048 Q1402.96 877.127 1396.64 877.127 Q1394.47 877.127 1392.2 876.756 Q1389.95 876.386 1387.55 875.645 L1387.55 870.946 Q1389.63 872.08 1391.85 872.636 Q1394.07 873.191 1396.55 873.191 Q1400.56 873.191 1402.89 871.085 Q1405.23 868.979 1405.23 865.367 Q1405.23 861.756 1402.89 859.65 Q1400.56 857.543 1396.55 857.543 Q1394.68 857.543 1392.8 857.96 Q1390.95 858.377 1389.01 859.256 L1389.01 841.895 Z" fill="#000000" fill-rule="nonzero" fill-opacity="1" /><path clip-path="url(#clip610)" d="M1352.73 778.585 Q1349.12 778.585 1347.29 782.149 Q1345.49 785.691 1345.49 792.821 Q1345.49 799.927 1347.29 803.492 Q1349.12 807.033 1352.73 807.033 Q1356.37 807.033 1358.17 803.492 Q1360 799.927 1360 792.821 Q1360 785.691 1358.17 782.149 Q1356.37 778.585 1352.73 778.585 M1352.73 774.881 Q1358.54 774.881 1361.6 779.487 Q1364.68 784.071 1364.68 792.821 Q1364.68 801.547 1361.6 806.154 Q1358.54 810.737 1352.73 810.737 Q1346.92 810.737 1343.84 806.154 Q1340.79 801.547 1340.79 792.821 Q1340.79 784.071 1343.84 779.487 Q1346.92 774.881 1352.73 774.881 Z" fill="#000000" fill-rule="nonzero" fill-opacity="1" /><path clip-path="url(#clip610)" d="M1372.89 804.186 L1377.78 804.186 L1377.78 810.066 L1372.89 810.066 L1372.89 804.186 Z" fill="#000000" fill-rule="nonzero" fill-opacity="1" /><path clip-path="url(#clip610)" d="M1397.96 778.585 Q1394.35 778.585 1392.52 782.149 Q1390.72 785.691 1390.72 792.821 Q1390.72 799.927 1392.52 803.492 Q1394.35 807.033 1397.96 807.033 Q1401.6 807.033 1403.4 803.492 Q1405.23 799.927 1405.23 792.821 Q1405.23 785.691 1403.4 782.149 Q1401.6 778.585 1397.96 778.585 M1397.96 774.881 Q1403.77 774.881 1406.83 779.487 Q1409.91 784.071 1409.91 792.821 Q1409.91 801.547 1406.83 806.154 Q1403.77 810.737 1397.96 810.737 Q1392.15 810.737 1389.07 806.154 Q1386.02 801.547 1386.02 792.821 Q1386.02 784.071 1389.07 779.487 Q1392.15 774.881 1397.96 774.881 Z" fill="#000000" fill-rule="nonzero" fill-opacity="1" /><path clip-path="url(#clip610)" d="M1353.73 712.195 Q1350.12 712.195 1348.29 715.76 Q1346.48 719.302 1346.48 726.431 Q1346.48 733.538 1348.29 737.102 Q1350.12 740.644 1353.73 740.644 Q1357.36 740.644 1359.17 737.102 Q1361 733.538 1361 726.431 Q1361 719.302 1359.17 715.76 Q1357.36 712.195 1353.73 712.195 M1353.73 708.491 Q1359.54 708.491 1362.59 713.098 Q1365.67 717.681 1365.67 726.431 Q1365.67 735.158 1362.59 739.764 Q1359.54 744.348 1353.73 744.348 Q1347.92 744.348 1344.84 739.764 Q1341.78 735.158 1341.78 726.431 Q1341.78 717.681 1344.84 713.098 Q1347.92 708.491 1353.73 708.491 Z" fill="#000000" fill-rule="nonzero" fill-opacity="1" /><path clip-path="url(#clip610)" d="M1373.89 737.797 L1378.77 737.797 L1378.77 743.676 L1373.89 743.676 L1373.89 737.797 Z" fill="#000000" fill-rule="nonzero" fill-opacity="1" /><path clip-path="url(#clip610)" d="M1389.01 709.116 L1407.36 709.116 L1407.36 713.052 L1393.29 713.052 L1393.29 721.524 Q1394.31 721.177 1395.32 721.014 Q1396.34 720.829 1397.36 720.829 Q1403.15 720.829 1406.53 724.001 Q1409.91 727.172 1409.91 732.588 Q1409.91 738.167 1406.44 741.269 Q1402.96 744.348 1396.64 744.348 Q1394.47 744.348 1392.2 743.977 Q1389.95 743.607 1387.55 742.866 L1387.55 738.167 Q1389.63 739.301 1391.85 739.857 Q1394.07 740.413 1396.55 740.413 Q1400.56 740.413 1402.89 738.306 Q1405.23 736.2 1405.23 732.588 Q1405.23 728.977 1402.89 726.871 Q1400.56 724.764 1396.55 724.764 Q1394.68 724.764 1392.8 725.181 Q1390.95 725.598 1389.01 726.477 L1389.01 709.116 Z" fill="#000000" fill-rule="nonzero" fill-opacity="1" /><path clip-path="url(#clip610)" d="M1343.54 673.352 L1351.18 673.352 L1351.18 646.986 L1342.87 648.653 L1342.87 644.394 L1351.13 642.727 L1355.81 642.727 L1355.81 673.352 L1363.45 673.352 L1363.45 677.287 L1343.54 677.287 L1343.54 673.352 Z" fill="#000000" fill-rule="nonzero" fill-opacity="1" /><path clip-path="url(#clip610)" d="M1372.89 671.407 L1377.78 671.407 L1377.78 677.287 L1372.89 677.287 L1372.89 671.407 Z" fill="#000000" fill-rule="nonzero" fill-opacity="1" /><path clip-path="url(#clip610)" d="M1397.96 645.806 Q1394.35 645.806 1392.52 649.37 Q1390.72 652.912 1390.72 660.042 Q1390.72 667.148 1392.52 670.713 Q1394.35 674.255 1397.96 674.255 Q1401.6 674.255 1403.4 670.713 Q1405.23 667.148 1405.23 660.042 Q1405.23 652.912 1403.4 649.37 Q1401.6 645.806 1397.96 645.806 M1397.96 642.102 Q1403.77 642.102 1406.83 646.708 Q1409.91 651.292 1409.91 660.042 Q1409.91 668.768 1406.83 673.375 Q1403.77 677.958 1397.96 677.958 Q1392.15 677.958 1389.07 673.375 Q1386.02 668.768 1386.02 660.042 Q1386.02 651.292 1389.07 646.708 Q1392.15 642.102 1397.96 642.102 Z" fill="#000000" fill-rule="nonzero" fill-opacity="1" /><path clip-path="url(#clip610)" d="M1344.54 606.962 L1352.18 606.962 L1352.18 580.597 L1343.87 582.263 L1343.87 578.004 L1352.13 576.337 L1356.81 576.337 L1356.81 606.962 L1364.45 606.962 L1364.45 610.897 L1344.54 610.897 L1344.54 606.962 Z" fill="#000000" fill-rule="nonzero" fill-opacity="1" /><path clip-path="url(#clip610)" d="M1373.89 605.018 L1378.77 605.018 L1378.77 610.897 L1373.89 610.897 L1373.89 605.018 Z" fill="#000000" fill-rule="nonzero" fill-opacity="1" /><path clip-path="url(#clip610)" d="M1389.01 576.337 L1407.36 576.337 L1407.36 580.273 L1393.29 580.273 L1393.29 588.745 Q1394.31 588.398 1395.32 588.236 Q1396.34 588.05 1397.36 588.05 Q1403.15 588.05 1406.53 591.222 Q1409.91 594.393 1409.91 599.81 Q1409.91 605.388 1406.44 608.49 Q1402.96 611.569 1396.64 611.569 Q1394.47 611.569 1392.2 611.198 Q1389.95 610.828 1387.55 610.087 L1387.55 605.388 Q1389.63 606.522 1391.85 607.078 Q1394.07 607.634 1396.55 607.634 Q1400.56 607.634 1402.89 605.527 Q1405.23 603.421 1405.23 599.81 Q1405.23 596.198 1402.89 594.092 Q1400.56 591.986 1396.55 591.986 Q1394.68 591.986 1392.8 592.402 Q1390.95 592.819 1389.01 593.698 L1389.01 576.337 Z" fill="#000000" fill-rule="nonzero" fill-opacity="1" /><path clip-path="url(#clip610)" d="M1219.58 734.795 Q1221.38 734.795 1222.41 735.922 Q1223.41 737.049 1223.41 738.338 Q1223.41 739.561 1222.7 740.206 Q1222 740.85 1221.09 740.85 Q1219.87 740.85 1218.81 739.948 Q1217.75 739.046 1217.52 737.693 Q1216.68 739.014 1216.68 740.978 Q1216.68 742.267 1217.36 743.394 Q1218.03 744.489 1218.9 745.165 Q1219.77 745.809 1221.03 746.389 Q1222.25 746.937 1222.99 747.162 Q1223.7 747.355 1224.48 747.516 L1233.49 749.771 Q1237.78 750.866 1239.29 750.866 Q1241.16 750.866 1242.41 749.964 Q1243.64 749.062 1243.64 747.259 Q1243.64 746.55 1243.45 745.745 Q1243.22 744.94 1242.64 743.909 Q1242.03 742.846 1241.13 741.912 Q1240.19 740.946 1238.61 740.012 Q1237.04 739.078 1235.01 738.466 Q1234.3 738.273 1234.3 737.629 Q1234.3 736.824 1234.94 736.824 Q1235.49 736.824 1236.65 737.275 Q1237.78 737.693 1239.26 738.627 Q1240.71 739.529 1242.03 740.721 Q1243.32 741.912 1244.22 743.684 Q1245.12 745.455 1245.12 747.387 Q1245.12 750.157 1243.64 751.993 Q1242.16 753.829 1240.1 754.505 Q1240.39 754.666 1240.77 754.891 Q1241.16 755.117 1242.03 755.793 Q1242.87 756.437 1243.51 757.178 Q1244.12 757.919 1244.6 759.078 Q1245.12 760.205 1245.12 761.429 Q1245.12 762.975 1244.67 764.36 Q1244.22 765.713 1243.19 766.679 Q1242.16 767.645 1240.74 767.645 Q1239.16 767.645 1238.07 766.582 Q1236.94 765.487 1236.94 764.006 Q1236.94 763.072 1237.49 762.331 Q1238.03 761.558 1239.23 761.558 Q1240.55 761.558 1241.55 762.46 Q1242.54 763.362 1242.8 764.65 Q1243.64 763.329 1243.64 761.365 Q1243.64 759.239 1241.77 757.565 Q1239.9 755.89 1236.78 755.085 Q1229.27 753.088 1225.93 752.315 Q1222.54 751.542 1221.09 751.542 Q1219.74 751.542 1218.81 751.896 Q1217.87 752.251 1217.46 752.862 Q1217 753.442 1216.84 753.99 Q1216.68 754.505 1216.68 755.085 Q1216.68 756.051 1217.07 757.146 Q1217.46 758.209 1218.36 759.497 Q1219.23 760.753 1221.03 761.944 Q1222.83 763.136 1225.31 763.941 Q1226.05 764.102 1226.05 764.811 Q1226.02 765.584 1225.38 765.584 Q1224.83 765.584 1223.7 765.165 Q1222.54 764.714 1221.09 763.812 Q1219.65 762.878 1218.36 761.687 Q1217.04 760.463 1216.13 758.692 Q1215.23 756.888 1215.23 754.956 Q1215.23 754.086 1215.43 753.249 Q1215.59 752.379 1216.07 751.349 Q1216.55 750.286 1217.62 749.352 Q1218.68 748.418 1220.22 747.838 Q1219.48 747.452 1218.78 746.937 Q1218.07 746.389 1217.2 745.552 Q1216.3 744.682 1215.78 743.491 Q1215.23 742.267 1215.23 740.914 Q1215.23 739.594 1215.59 738.305 Q1215.91 737.017 1216.97 735.922 Q1218 734.795 1219.58 734.795 Z" fill="#000000" fill-rule="nonzero" fill-opacity="1" /><path clip-path="url(#clip610)" d="M1263.39 728.074 Q1262.56 728.074 1262.31 728.006 Q1262.06 727.916 1261.68 727.555 L1251.8 718.695 Q1246.35 713.848 1241.59 713.848 Q1238.5 713.848 1236.29 715.472 Q1234.08 717.072 1234.08 720.025 Q1234.08 722.054 1235.32 723.768 Q1236.56 725.481 1238.77 726.27 Q1238.73 726.135 1238.73 725.661 Q1238.73 724.512 1239.45 723.88 Q1240.17 723.227 1241.14 723.227 Q1242.38 723.227 1242.99 724.038 Q1243.57 724.827 1243.57 725.616 Q1243.57 725.932 1243.51 726.36 Q1243.44 726.766 1242.81 727.42 Q1242.15 728.074 1241 728.074 Q1237.78 728.074 1235.21 725.639 Q1232.64 723.182 1232.64 719.439 Q1232.64 715.201 1235.17 712.428 Q1237.67 709.633 1241.59 709.633 Q1242.97 709.633 1244.23 710.061 Q1245.47 710.467 1246.44 711.03 Q1247.41 711.571 1248.96 713.059 Q1250.52 714.547 1251.62 715.742 Q1252.73 716.937 1255.07 719.62 L1259.83 724.512 L1259.83 716.193 Q1259.83 712.135 1259.47 711.819 Q1258.81 711.369 1255.36 710.805 L1255.36 709.633 L1263.39 710.94 L1263.39 728.074 Z" fill="#000000" fill-rule="nonzero" fill-opacity="1" /><polyline clip-path="url(#clip614)" style="stroke:#009af9; stroke-linecap:round; stroke-linejoin:round; stroke-width:4; stroke-opacity:1; fill:none" points="1471.57,792.786 1496.74,654.474 1521.9,585.319 1547.06,584.566 1572.22,634.126 1597.38,706.97 1622.55,777.905 1647.71,831.081 1672.87,860.663 1698.03,867.702 1723.2,857.116 1748.36,835.757 1773.52,810.9 1798.68,788.824 1823.85,773.678 1849.01,767.005 1874.17,767.996 1899.33,774.287 1924.49,782.958 1949.66,791.386 1974.82,797.763 1999.98,801.259 2025.14,801.913 2050.31,800.374 2075.47,797.586 2100.63,794.51 2125.79,791.906 2150.95,790.22 2176.12,789.573 2201.28,789.82 2226.44,790.657 2251.6,791.734 2276.77,792.744 2301.93,793.482 2327.09,793.86 "/>
<polyline clip-path="url(#clip614)" style="stroke:#e26f46; stroke-linecap:round; stroke-linejoin:round; stroke-width:3; stroke-opacity:1; fill:none" stroke-dasharray="12, 6, 2, 6" points="1471.57,792.786 1496.74,656.947 1521.9,576.462 1547.06,569.435 1572.22,621.853 1597.38,686.232 1622.55,789.065 1647.71,834.585 1672.87,891.991 1698.03,900.989 1723.2,884.34 1748.36,859.568 1773.52,824.739 1798.68,802.491 1823.85,775.193 1849.01,748.754 1874.17,761.426 1899.33,771.313 1924.49,767.687 1949.66,790.187 1974.82,795.457 1999.98,807.429 2025.14,808.919 2050.31,804.237 2075.47,802.453 2100.63,795.948 2125.79,790.58 2150.95,787.467 2176.12,790.299 2201.28,782.535 2226.44,788.963 2251.6,787.023 2276.77,798.152 2301.93,788.944 2327.09,795.924 "/>
<path clip-path="url(#clip610)" d="M2203.01 726.723 L2322.53 726.723 L2322.53 571.203 L2203.01 571.203  Z" fill="#ffffff" fill-rule="evenodd" fill-opacity="1"/>
<polyline clip-path="url(#clip610)" style="stroke:#000000; stroke-linecap:round; stroke-linejoin:round; stroke-width:4; stroke-opacity:1; fill:none" points="2203.01,726.723 2322.53,726.723 2322.53,571.203 2203.01,571.203 2203.01,726.723 "/>
<polyline clip-path="url(#clip610)" style="stroke:#009af9; stroke-linecap:round; stroke-linejoin:round; stroke-width:4; stroke-opacity:1; fill:none" points="2213.09,623.043 2273.55,623.043 "/>
<path clip-path="url(#clip610)" d="M2310.63 633.582 L2305.36 633.442 L2299.6 633.582 L2299.6 631.334 L2301.47 631.334 L2296.2 625.103 L2291.54 630.326 L2291.21 630.795 Q2291.21 631.006 2291.75 631.17 Q2292.31 631.334 2292.97 631.334 L2292.97 633.582 L2288.03 633.442 L2283.62 633.582 L2283.62 631.334 Q2285.1 631.334 2285.78 631.31 Q2286.48 631.263 2287.28 631.052 Q2288.07 630.842 2288.47 630.42 L2294.75 623.37 L2287.28 614.54 L2283.86 614.54 L2283.86 612.291 L2289.15 612.432 L2294.94 612.291 L2294.94 614.54 L2293.01 614.54 L2297.72 620.044 L2301.75 615.547 Q2301.77 615.523 2302.15 614.961 Q2301.4 614.54 2300.32 614.54 L2300.32 612.291 L2305.26 612.432 L2309.67 612.291 L2309.67 614.54 Q2307.75 614.54 2306.74 614.68 Q2305.76 614.797 2305.45 614.961 Q2305.17 615.125 2304.77 615.547 L2299.17 621.777 L2307.23 631.334 L2310.63 631.334 L2310.63 633.582 Z" fill="#000000" fill-rule="nonzero" fill-opacity="1" /><polyline clip-path="url(#clip610)" style="stroke:#e26f46; stroke-linecap:round; stroke-linejoin:round; stroke-width:3; stroke-opacity:1; fill:none" stroke-dasharray="12, 6, 2, 6" points="2213.09,674.883 2273.55,674.883 "/>
<path clip-path="url(#clip610)" d="M2306.21 663.361 L2305.8 664.033 Q2303.26 662.935 2300.09 661.18 Q2296.93 662.935 2294.39 664.033 L2293.99 663.361 Q2296.76 660.951 2300.09 659.098 Q2303.45 660.967 2306.21 663.361 Z" fill="#000000" fill-rule="nonzero" fill-opacity="1" /><path clip-path="url(#clip610)" d="M2310.63 690.427 L2305.36 690.286 L2299.6 690.427 L2299.6 688.178 L2301.47 688.178 L2296.2 681.948 L2291.54 687.171 L2291.21 687.639 Q2291.21 687.85 2291.75 688.014 Q2292.31 688.178 2292.97 688.178 L2292.97 690.427 L2288.03 690.286 L2283.62 690.427 L2283.62 688.178 Q2285.1 688.178 2285.78 688.155 Q2286.48 688.108 2287.28 687.897 Q2288.07 687.686 2288.47 687.265 L2294.75 680.214 L2287.28 671.384 L2283.86 671.384 L2283.86 669.136 L2289.15 669.276 L2294.94 669.136 L2294.94 671.384 L2293.01 671.384 L2297.72 676.888 L2301.75 672.391 Q2301.77 672.368 2302.15 671.806 Q2301.4 671.384 2300.32 671.384 L2300.32 669.136 L2305.26 669.276 L2309.67 669.136 L2309.67 671.384 Q2307.75 671.384 2306.74 671.525 Q2305.76 671.642 2305.45 671.806 Q2305.17 671.97 2304.77 672.391 L2299.17 678.622 L2307.23 688.178 L2310.63 688.178 L2310.63 690.427 Z" fill="#000000" fill-rule="nonzero" fill-opacity="1" /><path clip-path="url(#clip610)" d="M1445.91 1423.18 L2352.76 1423.18 L2352.76 1071.73 L1445.91 1071.73  Z" fill="#ffffff" fill-rule="evenodd" fill-opacity="1"/>
<defs>
  <clipPath id="clip615">
    <rect x="1445" y="1071" width="908" height="352"/>
  </clipPath>
</defs>
<polyline clip-path="url(#clip615)" style="stroke:#000000; stroke-linecap:round; stroke-linejoin:round; stroke-width:2; stroke-opacity:0.1; fill:none" points="1471.57,1423.18 1471.57,1071.73 "/>
<polyline clip-path="url(#clip615)" style="stroke:#000000; stroke-linecap:round; stroke-linejoin:round; stroke-width:2; stroke-opacity:0.1; fill:none" points="1723.2,1423.18 1723.2,1071.73 "/>
<polyline clip-path="url(#clip615)" style="stroke:#000000; stroke-linecap:round; stroke-linejoin:round; stroke-width:2; stroke-opacity:0.1; fill:none" points="1974.82,1423.18 1974.82,1071.73 "/>
<polyline clip-path="url(#clip615)" style="stroke:#000000; stroke-linecap:round; stroke-linejoin:round; stroke-width:2; stroke-opacity:0.1; fill:none" points="2226.44,1423.18 2226.44,1071.73 "/>
<polyline clip-path="url(#clip610)" style="stroke:#000000; stroke-linecap:round; stroke-linejoin:round; stroke-width:4; stroke-opacity:1; fill:none" points="1445.91,1423.18 2352.76,1423.18 "/>
<polyline clip-path="url(#clip610)" style="stroke:#000000; stroke-linecap:round; stroke-linejoin:round; stroke-width:4; stroke-opacity:1; fill:none" points="1471.57,1423.18 1471.57,1404.28 "/>
<polyline clip-path="url(#clip610)" style="stroke:#000000; stroke-linecap:round; stroke-linejoin:round; stroke-width:4; stroke-opacity:1; fill:none" points="1723.2,1423.18 1723.2,1404.28 "/>
<polyline clip-path="url(#clip610)" style="stroke:#000000; stroke-linecap:round; stroke-linejoin:round; stroke-width:4; stroke-opacity:1; fill:none" points="1974.82,1423.18 1974.82,1404.28 "/>
<polyline clip-path="url(#clip610)" style="stroke:#000000; stroke-linecap:round; stroke-linejoin:round; stroke-width:4; stroke-opacity:1; fill:none" points="2226.44,1423.18 2226.44,1404.28 "/>
<path clip-path="url(#clip610)" d="M1471.57 1454.1 Q1467.96 1454.1 1466.13 1457.66 Q1464.33 1461.2 1464.33 1468.33 Q1464.33 1475.44 1466.13 1479.01 Q1467.96 1482.55 1471.57 1482.55 Q1475.21 1482.55 1477.01 1479.01 Q1478.84 1475.44 1478.84 1468.33 Q1478.84 1461.2 1477.01 1457.66 Q1475.21 1454.1 1471.57 1454.1 M1471.57 1450.39 Q1477.38 1450.39 1480.44 1455 Q1483.52 1459.58 1483.52 1468.33 Q1483.52 1477.06 1480.44 1481.67 Q1477.38 1486.25 1471.57 1486.25 Q1465.76 1486.25 1462.68 1481.67 Q1459.63 1477.06 1459.63 1468.33 Q1459.63 1459.58 1462.68 1455 Q1465.76 1450.39 1471.57 1450.39 Z" fill="#000000" fill-rule="nonzero" fill-opacity="1" /><path clip-path="url(#clip610)" d="M1713.58 1481.64 L1721.22 1481.64 L1721.22 1455.28 L1712.91 1456.95 L1712.91 1452.69 L1721.17 1451.02 L1725.85 1451.02 L1725.85 1481.64 L1733.49 1481.64 L1733.49 1485.58 L1713.58 1485.58 L1713.58 1481.64 Z" fill="#000000" fill-rule="nonzero" fill-opacity="1" /><path clip-path="url(#clip610)" d="M1969.47 1481.64 L1985.79 1481.64 L1985.79 1485.58 L1963.85 1485.58 L1963.85 1481.64 Q1966.51 1478.89 1971.09 1474.26 Q1975.7 1469.61 1976.88 1468.27 Q1979.12 1465.74 1980 1464.01 Q1980.91 1462.25 1980.91 1460.56 Q1980.91 1457.8 1978.96 1456.07 Q1977.04 1454.33 1973.94 1454.33 Q1971.74 1454.33 1969.29 1455.09 Q1966.86 1455.86 1964.08 1457.41 L1964.08 1452.69 Q1966.9 1451.55 1969.36 1450.97 Q1971.81 1450.39 1973.85 1450.39 Q1979.22 1450.39 1982.41 1453.08 Q1985.61 1455.77 1985.61 1460.26 Q1985.61 1462.39 1984.8 1464.31 Q1984.01 1466.2 1981.9 1468.8 Q1981.32 1469.47 1978.22 1472.69 Q1975.12 1475.88 1969.47 1481.64 Z" fill="#000000" fill-rule="nonzero" fill-opacity="1" /><path clip-path="url(#clip610)" d="M2230.69 1466.95 Q2234.05 1467.66 2235.92 1469.93 Q2237.82 1472.2 2237.82 1475.53 Q2237.82 1480.65 2234.3 1483.45 Q2230.78 1486.25 2224.3 1486.25 Q2222.12 1486.25 2219.81 1485.81 Q2217.52 1485.39 2215.06 1484.54 L2215.06 1480.02 Q2217.01 1481.16 2219.32 1481.74 Q2221.64 1482.32 2224.16 1482.32 Q2228.56 1482.32 2230.85 1480.58 Q2233.17 1478.84 2233.17 1475.53 Q2233.17 1472.48 2231.01 1470.77 Q2228.88 1469.03 2225.06 1469.03 L2221.04 1469.03 L2221.04 1465.19 L2225.25 1465.19 Q2228.7 1465.19 2230.53 1463.82 Q2232.36 1462.43 2232.36 1459.84 Q2232.36 1457.18 2230.46 1455.77 Q2228.58 1454.33 2225.06 1454.33 Q2223.14 1454.33 2220.94 1454.75 Q2218.74 1455.16 2216.11 1456.04 L2216.11 1451.88 Q2218.77 1451.14 2221.08 1450.77 Q2223.42 1450.39 2225.48 1450.39 Q2230.8 1450.39 2233.91 1452.83 Q2237.01 1455.23 2237.01 1459.35 Q2237.01 1462.22 2235.36 1464.21 Q2233.72 1466.18 2230.69 1466.95 Z" fill="#000000" fill-rule="nonzero" fill-opacity="1" /><path clip-path="url(#clip610)" d="M1769.5 1520.52 L1809.7 1520.52 L1809.7 1525.93 L1792.83 1525.93 L1792.83 1568.04 L1786.37 1568.04 L1786.37 1525.93 L1769.5 1525.93 L1769.5 1520.52 Z" fill="#000000" fill-rule="nonzero" fill-opacity="1" /><path clip-path="url(#clip610)" d="M1813.65 1532.4 L1819.51 1532.4 L1819.51 1568.04 L1813.65 1568.04 L1813.65 1532.4 M1813.65 1518.52 L1819.51 1518.52 L1819.51 1525.93 L1813.65 1525.93 L1813.65 1518.52 Z" fill="#000000" fill-rule="nonzero" fill-opacity="1" /><path clip-path="url(#clip610)" d="M1859.51 1539.24 Q1861.71 1535.29 1864.77 1533.41 Q1867.82 1531.54 1871.96 1531.54 Q1877.53 1531.54 1880.55 1535.45 Q1883.58 1539.33 1883.58 1546.53 L1883.58 1568.04 L1877.69 1568.04 L1877.69 1546.72 Q1877.69 1541.59 1875.87 1539.11 Q1874.06 1536.63 1870.34 1536.63 Q1865.78 1536.63 1863.14 1539.65 Q1860.5 1542.68 1860.5 1547.9 L1860.5 1568.04 L1854.61 1568.04 L1854.61 1546.72 Q1854.61 1541.56 1852.8 1539.11 Q1850.98 1536.63 1847.2 1536.63 Q1842.71 1536.63 1840.07 1539.68 Q1837.43 1542.71 1837.43 1547.9 L1837.43 1568.04 L1831.54 1568.04 L1831.54 1532.4 L1837.43 1532.4 L1837.43 1537.93 Q1839.43 1534.66 1842.23 1533.1 Q1845.03 1531.54 1848.88 1531.54 Q1852.77 1531.54 1855.47 1533.51 Q1858.21 1535.48 1859.51 1539.24 Z" fill="#000000" fill-rule="nonzero" fill-opacity="1" /><path clip-path="url(#clip610)" d="M1925.75 1548.76 L1925.75 1551.62 L1898.82 1551.62 Q1899.2 1557.67 1902.45 1560.85 Q1905.73 1564 1911.55 1564 Q1914.93 1564 1918.08 1563.17 Q1921.26 1562.35 1924.38 1560.69 L1924.38 1566.23 Q1921.23 1567.57 1917.92 1568.27 Q1914.61 1568.97 1911.2 1568.97 Q1902.67 1568.97 1897.68 1564 Q1892.71 1559.04 1892.71 1550.57 Q1892.71 1541.82 1897.42 1536.69 Q1902.16 1531.54 1910.19 1531.54 Q1917.38 1531.54 1921.55 1536.18 Q1925.75 1540.8 1925.75 1548.76 M1919.89 1547.04 Q1919.83 1542.23 1917.19 1539.37 Q1914.58 1536.5 1910.25 1536.5 Q1905.35 1536.5 1902.39 1539.27 Q1899.46 1542.04 1899.01 1547.07 L1919.89 1547.04 Z" fill="#000000" fill-rule="nonzero" fill-opacity="1" /><path clip-path="url(#clip610)" d="M1970.15 1518.58 Q1965.89 1525.9 1963.82 1533.06 Q1961.75 1540.23 1961.75 1547.58 Q1961.75 1554.93 1963.82 1562.16 Q1965.92 1569.35 1970.15 1576.64 L1965.06 1576.64 Q1960.28 1569.16 1957.9 1561.93 Q1955.54 1554.71 1955.54 1547.58 Q1955.54 1540.48 1957.9 1533.29 Q1960.25 1526.09 1965.06 1518.58 L1970.15 1518.58 Z" fill="#000000" fill-rule="nonzero" fill-opacity="1" /><path clip-path="url(#clip610)" d="M2004.24 1533.45 L2004.24 1538.98 Q2001.76 1537.71 1999.08 1537.07 Q1996.41 1536.44 1993.54 1536.44 Q1989.18 1536.44 1986.99 1537.77 Q1984.82 1539.11 1984.82 1541.79 Q1984.82 1543.82 1986.38 1545 Q1987.94 1546.15 1992.65 1547.2 L1994.66 1547.64 Q2000.9 1548.98 2003.51 1551.43 Q2006.15 1553.85 2006.15 1558.21 Q2006.15 1563.17 2002.2 1566.07 Q1998.29 1568.97 1991.41 1568.97 Q1988.55 1568.97 1985.43 1568.39 Q1982.34 1567.85 1978.9 1566.74 L1978.9 1560.69 Q1982.15 1562.38 1985.3 1563.24 Q1988.45 1564.07 1991.54 1564.07 Q1995.68 1564.07 1997.9 1562.66 Q2000.13 1561.23 2000.13 1558.65 Q2000.13 1556.27 1998.51 1554.99 Q1996.92 1553.72 1991.48 1552.54 L1989.44 1552.07 Q1984 1550.92 1981.58 1548.56 Q1979.16 1546.18 1979.16 1542.04 Q1979.16 1537.01 1982.72 1534.27 Q1986.29 1531.54 1992.84 1531.54 Q1996.09 1531.54 1998.96 1532.01 Q2001.82 1532.49 2004.24 1533.45 Z" fill="#000000" fill-rule="nonzero" fill-opacity="1" /><path clip-path="url(#clip610)" d="M2014.55 1518.58 L2019.64 1518.58 Q2024.42 1526.09 2026.77 1533.29 Q2029.16 1540.48 2029.16 1547.58 Q2029.16 1554.71 2026.77 1561.93 Q2024.42 1569.16 2019.64 1576.64 L2014.55 1576.64 Q2018.78 1569.35 2020.85 1562.16 Q2022.95 1554.93 2022.95 1547.58 Q2022.95 1540.23 2020.85 1533.06 Q2018.78 1525.9 2014.55 1518.58 Z" fill="#000000" fill-rule="nonzero" fill-opacity="1" /><polyline clip-path="url(#clip615)" style="stroke:#000000; stroke-linecap:round; stroke-linejoin:round; stroke-width:2; stroke-opacity:0.1; fill:none" points="1445.91,1390.76 2352.76,1390.76 "/>
<polyline clip-path="url(#clip615)" style="stroke:#000000; stroke-linecap:round; stroke-linejoin:round; stroke-width:2; stroke-opacity:0.1; fill:none" points="1445.91,1318.11 2352.76,1318.11 "/>
<polyline clip-path="url(#clip615)" style="stroke:#000000; stroke-linecap:round; stroke-linejoin:round; stroke-width:2; stroke-opacity:0.1; fill:none" points="1445.91,1245.46 2352.76,1245.46 "/>
<polyline clip-path="url(#clip615)" style="stroke:#000000; stroke-linecap:round; stroke-linejoin:round; stroke-width:2; stroke-opacity:0.1; fill:none" points="1445.91,1172.81 2352.76,1172.81 "/>
<polyline clip-path="url(#clip615)" style="stroke:#000000; stroke-linecap:round; stroke-linejoin:round; stroke-width:2; stroke-opacity:0.1; fill:none" points="1445.91,1100.16 2352.76,1100.16 "/>
<polyline clip-path="url(#clip610)" style="stroke:#000000; stroke-linecap:round; stroke-linejoin:round; stroke-width:4; stroke-opacity:1; fill:none" points="1445.91,1423.18 1445.91,1071.73 "/>
<polyline clip-path="url(#clip610)" style="stroke:#000000; stroke-linecap:round; stroke-linejoin:round; stroke-width:4; stroke-opacity:1; fill:none" points="1445.91,1390.76 1464.81,1390.76 "/>
<polyline clip-path="url(#clip610)" style="stroke:#000000; stroke-linecap:round; stroke-linejoin:round; stroke-width:4; stroke-opacity:1; fill:none" points="1445.91,1318.11 1464.81,1318.11 "/>
<polyline clip-path="url(#clip610)" style="stroke:#000000; stroke-linecap:round; stroke-linejoin:round; stroke-width:4; stroke-opacity:1; fill:none" points="1445.91,1245.46 1464.81,1245.46 "/>
<polyline clip-path="url(#clip610)" style="stroke:#000000; stroke-linecap:round; stroke-linejoin:round; stroke-width:4; stroke-opacity:1; fill:none" points="1445.91,1172.81 1464.81,1172.81 "/>
<polyline clip-path="url(#clip610)" style="stroke:#000000; stroke-linecap:round; stroke-linejoin:round; stroke-width:4; stroke-opacity:1; fill:none" points="1445.91,1100.16 1464.81,1100.16 "/>
<path clip-path="url(#clip610)" d="M1272.64 1391.21 L1302.32 1391.21 L1302.32 1395.15 L1272.64 1395.15 L1272.64 1391.21 Z" fill="#000000" fill-rule="nonzero" fill-opacity="1" /><path clip-path="url(#clip610)" d="M1322.41 1376.56 Q1318.8 1376.56 1316.97 1380.13 Q1315.16 1383.67 1315.16 1390.8 Q1315.16 1397.9 1316.97 1401.47 Q1318.8 1405.01 1322.41 1405.01 Q1326.04 1405.01 1327.85 1401.47 Q1329.68 1397.9 1329.68 1390.8 Q1329.68 1383.67 1327.85 1380.13 Q1326.04 1376.56 1322.41 1376.56 M1322.41 1372.86 Q1328.22 1372.86 1331.27 1377.46 Q1334.35 1382.05 1334.35 1390.8 Q1334.35 1399.52 1331.27 1404.13 Q1328.22 1408.71 1322.41 1408.71 Q1316.6 1408.71 1313.52 1404.13 Q1310.46 1399.52 1310.46 1390.8 Q1310.46 1382.05 1313.52 1377.46 Q1316.6 1372.86 1322.41 1372.86 Z" fill="#000000" fill-rule="nonzero" fill-opacity="1" /><path clip-path="url(#clip610)" d="M1342.57 1402.16 L1347.45 1402.16 L1347.45 1408.04 L1342.57 1408.04 L1342.57 1402.16 Z" fill="#000000" fill-rule="nonzero" fill-opacity="1" /><path clip-path="url(#clip610)" d="M1367.64 1376.56 Q1364.03 1376.56 1362.2 1380.13 Q1360.39 1383.67 1360.39 1390.8 Q1360.39 1397.9 1362.2 1401.47 Q1364.03 1405.01 1367.64 1405.01 Q1371.27 1405.01 1373.08 1401.47 Q1374.91 1397.9 1374.91 1390.8 Q1374.91 1383.67 1373.08 1380.13 Q1371.27 1376.56 1367.64 1376.56 M1367.64 1372.86 Q1373.45 1372.86 1376.51 1377.46 Q1379.58 1382.05 1379.58 1390.8 Q1379.58 1399.52 1376.51 1404.13 Q1373.45 1408.71 1367.64 1408.71 Q1361.83 1408.71 1358.75 1404.13 Q1355.7 1399.52 1355.7 1390.8 Q1355.7 1382.05 1358.75 1377.46 Q1361.83 1372.86 1367.64 1372.86 Z" fill="#000000" fill-rule="nonzero" fill-opacity="1" /><path clip-path="url(#clip610)" d="M1398.38 1388.9 Q1395.23 1388.9 1393.38 1391.05 Q1391.55 1393.2 1391.55 1396.95 Q1391.55 1400.68 1393.38 1402.86 Q1395.23 1405.01 1398.38 1405.01 Q1401.53 1405.01 1403.36 1402.86 Q1405.21 1400.68 1405.21 1396.95 Q1405.21 1393.2 1403.36 1391.05 Q1401.53 1388.9 1398.38 1388.9 M1407.66 1374.25 L1407.66 1378.51 Q1405.9 1377.67 1404.1 1377.23 Q1402.32 1376.79 1400.56 1376.79 Q1395.93 1376.79 1393.47 1379.92 Q1391.04 1383.04 1390.69 1389.36 Q1392.06 1387.35 1394.12 1386.28 Q1396.18 1385.19 1398.66 1385.19 Q1403.87 1385.19 1406.88 1388.37 Q1409.91 1391.51 1409.91 1396.95 Q1409.91 1402.28 1406.76 1405.5 Q1403.61 1408.71 1398.38 1408.71 Q1392.38 1408.71 1389.21 1404.13 Q1386.04 1399.52 1386.04 1390.8 Q1386.04 1382.6 1389.93 1377.74 Q1393.82 1372.86 1400.37 1372.86 Q1402.13 1372.86 1403.91 1373.2 Q1405.72 1373.55 1407.66 1374.25 Z" fill="#000000" fill-rule="nonzero" fill-opacity="1" /><path clip-path="url(#clip610)" d="M1272.32 1318.56 L1301.99 1318.56 L1301.99 1322.5 L1272.32 1322.5 L1272.32 1318.56 Z" fill="#000000" fill-rule="nonzero" fill-opacity="1" /><path clip-path="url(#clip610)" d="M1322.08 1303.91 Q1318.47 1303.91 1316.64 1307.48 Q1314.84 1311.02 1314.84 1318.15 Q1314.84 1325.25 1316.64 1328.82 Q1318.47 1332.36 1322.08 1332.36 Q1325.72 1332.36 1327.52 1328.82 Q1329.35 1325.25 1329.35 1318.15 Q1329.35 1311.02 1327.52 1307.48 Q1325.72 1303.91 1322.08 1303.91 M1322.08 1300.21 Q1327.89 1300.21 1330.95 1304.81 Q1334.03 1309.4 1334.03 1318.15 Q1334.03 1326.87 1330.95 1331.48 Q1327.89 1336.06 1322.08 1336.06 Q1316.27 1336.06 1313.2 1331.48 Q1310.14 1326.87 1310.14 1318.15 Q1310.14 1309.4 1313.2 1304.81 Q1316.27 1300.21 1322.08 1300.21 Z" fill="#000000" fill-rule="nonzero" fill-opacity="1" /><path clip-path="url(#clip610)" d="M1342.25 1329.51 L1347.13 1329.51 L1347.13 1335.39 L1342.25 1335.39 L1342.25 1329.51 Z" fill="#000000" fill-rule="nonzero" fill-opacity="1" /><path clip-path="url(#clip610)" d="M1367.32 1303.91 Q1363.7 1303.91 1361.88 1307.48 Q1360.07 1311.02 1360.07 1318.15 Q1360.07 1325.25 1361.88 1328.82 Q1363.7 1332.36 1367.32 1332.36 Q1370.95 1332.36 1372.76 1328.82 Q1374.58 1325.25 1374.58 1318.15 Q1374.58 1311.02 1372.76 1307.48 Q1370.95 1303.91 1367.32 1303.91 M1367.32 1300.21 Q1373.13 1300.21 1376.18 1304.81 Q1379.26 1309.4 1379.26 1318.15 Q1379.26 1326.87 1376.18 1331.48 Q1373.13 1336.06 1367.32 1336.06 Q1361.51 1336.06 1358.43 1331.48 Q1355.37 1326.87 1355.37 1318.15 Q1355.37 1309.4 1358.43 1304.81 Q1361.51 1300.21 1367.32 1300.21 Z" fill="#000000" fill-rule="nonzero" fill-opacity="1" /><path clip-path="url(#clip610)" d="M1400.32 1304.91 L1388.52 1323.36 L1400.32 1323.36 L1400.32 1304.91 M1399.1 1300.83 L1404.98 1300.83 L1404.98 1323.36 L1409.91 1323.36 L1409.91 1327.24 L1404.98 1327.24 L1404.98 1335.39 L1400.32 1335.39 L1400.32 1327.24 L1384.72 1327.24 L1384.72 1322.73 L1399.1 1300.83 Z" fill="#000000" fill-rule="nonzero" fill-opacity="1" /><path clip-path="url(#clip610)" d="M1274.4 1245.91 L1304.08 1245.91 L1304.08 1249.85 L1274.4 1249.85 L1274.4 1245.91 Z" fill="#000000" fill-rule="nonzero" fill-opacity="1" /><path clip-path="url(#clip610)" d="M1324.17 1231.26 Q1320.56 1231.26 1318.73 1234.83 Q1316.92 1238.37 1316.92 1245.5 Q1316.92 1252.6 1318.73 1256.17 Q1320.56 1259.71 1324.17 1259.71 Q1327.8 1259.71 1329.61 1256.17 Q1331.44 1252.6 1331.44 1245.5 Q1331.44 1238.37 1329.61 1234.83 Q1327.8 1231.26 1324.17 1231.26 M1324.17 1227.56 Q1329.98 1227.56 1333.03 1232.16 Q1336.11 1236.75 1336.11 1245.5 Q1336.11 1254.22 1333.03 1258.83 Q1329.98 1263.41 1324.17 1263.41 Q1318.36 1263.41 1315.28 1258.83 Q1312.22 1254.22 1312.22 1245.5 Q1312.22 1236.75 1315.28 1232.16 Q1318.36 1227.56 1324.17 1227.56 Z" fill="#000000" fill-rule="nonzero" fill-opacity="1" /><path clip-path="url(#clip610)" d="M1344.33 1256.86 L1349.21 1256.86 L1349.21 1262.74 L1344.33 1262.74 L1344.33 1256.86 Z" fill="#000000" fill-rule="nonzero" fill-opacity="1" /><path clip-path="url(#clip610)" d="M1369.4 1231.26 Q1365.79 1231.26 1363.96 1234.83 Q1362.15 1238.37 1362.15 1245.5 Q1362.15 1252.6 1363.96 1256.17 Q1365.79 1259.71 1369.4 1259.71 Q1373.03 1259.71 1374.84 1256.17 Q1376.67 1252.6 1376.67 1245.5 Q1376.67 1238.37 1374.84 1234.83 Q1373.03 1231.26 1369.4 1231.26 M1369.4 1227.56 Q1375.21 1227.56 1378.26 1232.16 Q1381.34 1236.75 1381.34 1245.5 Q1381.34 1254.22 1378.26 1258.83 Q1375.21 1263.41 1369.4 1263.41 Q1363.59 1263.41 1360.51 1258.83 Q1357.45 1254.22 1357.45 1245.5 Q1357.45 1236.75 1360.51 1232.16 Q1363.59 1227.56 1369.4 1227.56 Z" fill="#000000" fill-rule="nonzero" fill-opacity="1" /><path clip-path="url(#clip610)" d="M1393.59 1258.81 L1409.91 1258.81 L1409.91 1262.74 L1387.96 1262.74 L1387.96 1258.81 Q1390.63 1256.05 1395.21 1251.42 Q1399.82 1246.77 1401 1245.43 Q1403.24 1242.9 1404.12 1241.17 Q1405.02 1239.41 1405.02 1237.72 Q1405.02 1234.96 1403.08 1233.23 Q1401.16 1231.49 1398.06 1231.49 Q1395.86 1231.49 1393.4 1232.26 Q1390.97 1233.02 1388.19 1234.57 L1388.19 1229.85 Q1391.02 1228.71 1393.47 1228.14 Q1395.93 1227.56 1397.96 1227.56 Q1403.33 1227.56 1406.53 1230.24 Q1409.72 1232.93 1409.72 1237.42 Q1409.72 1239.55 1408.91 1241.47 Q1408.13 1243.37 1406.02 1245.96 Q1405.44 1246.63 1402.34 1249.85 Q1399.24 1253.04 1393.59 1258.81 Z" fill="#000000" fill-rule="nonzero" fill-opacity="1" /><path clip-path="url(#clip610)" d="M1322.57 1158.61 Q1318.96 1158.61 1317.13 1162.18 Q1315.32 1165.72 1315.32 1172.85 Q1315.32 1179.95 1317.13 1183.52 Q1318.96 1187.06 1322.57 1187.06 Q1326.2 1187.06 1328.01 1183.52 Q1329.84 1179.95 1329.84 1172.85 Q1329.84 1165.72 1328.01 1162.18 Q1326.2 1158.61 1322.57 1158.61 M1322.57 1154.91 Q1328.38 1154.91 1331.44 1159.51 Q1334.51 1164.1 1334.51 1172.85 Q1334.51 1181.57 1331.44 1186.18 Q1328.38 1190.76 1322.57 1190.76 Q1316.76 1190.76 1313.68 1186.18 Q1310.63 1181.57 1310.63 1172.85 Q1310.63 1164.1 1313.68 1159.51 Q1316.76 1154.91 1322.57 1154.91 Z" fill="#000000" fill-rule="nonzero" fill-opacity="1" /><path clip-path="url(#clip610)" d="M1342.73 1184.21 L1347.62 1184.21 L1347.62 1190.09 L1342.73 1190.09 L1342.73 1184.21 Z" fill="#000000" fill-rule="nonzero" fill-opacity="1" /><path clip-path="url(#clip610)" d="M1367.8 1158.61 Q1364.19 1158.61 1362.36 1162.18 Q1360.56 1165.72 1360.56 1172.85 Q1360.56 1179.95 1362.36 1183.52 Q1364.19 1187.06 1367.8 1187.06 Q1371.44 1187.06 1373.24 1183.52 Q1375.07 1179.95 1375.07 1172.85 Q1375.07 1165.72 1373.24 1162.18 Q1371.44 1158.61 1367.8 1158.61 M1367.8 1154.91 Q1373.61 1154.91 1376.67 1159.51 Q1379.75 1164.1 1379.75 1172.85 Q1379.75 1181.57 1376.67 1186.18 Q1373.61 1190.76 1367.8 1190.76 Q1361.99 1190.76 1358.91 1186.18 Q1355.86 1181.57 1355.86 1172.85 Q1355.86 1164.1 1358.91 1159.51 Q1361.99 1154.91 1367.8 1154.91 Z" fill="#000000" fill-rule="nonzero" fill-opacity="1" /><path clip-path="url(#clip610)" d="M1397.96 1158.61 Q1394.35 1158.61 1392.52 1162.18 Q1390.72 1165.72 1390.72 1172.85 Q1390.72 1179.95 1392.52 1183.52 Q1394.35 1187.06 1397.96 1187.06 Q1401.6 1187.06 1403.4 1183.52 Q1405.23 1179.95 1405.23 1172.85 Q1405.23 1165.72 1403.4 1162.18 Q1401.6 1158.61 1397.96 1158.61 M1397.96 1154.91 Q1403.77 1154.91 1406.83 1159.51 Q1409.91 1164.1 1409.91 1172.85 Q1409.91 1181.57 1406.83 1186.18 Q1403.77 1190.76 1397.96 1190.76 Q1392.15 1190.76 1389.07 1186.18 Q1386.02 1181.57 1386.02 1172.85 Q1386.02 1164.1 1389.07 1159.51 Q1392.15 1154.91 1397.96 1154.91 Z" fill="#000000" fill-rule="nonzero" fill-opacity="1" /><path clip-path="url(#clip610)" d="M1324.17 1085.96 Q1320.56 1085.96 1318.73 1089.53 Q1316.92 1093.07 1316.92 1100.2 Q1316.92 1107.3 1318.73 1110.87 Q1320.56 1114.41 1324.17 1114.41 Q1327.8 1114.41 1329.61 1110.87 Q1331.44 1107.3 1331.44 1100.2 Q1331.44 1093.07 1329.61 1089.53 Q1327.8 1085.96 1324.17 1085.96 M1324.17 1082.26 Q1329.98 1082.26 1333.03 1086.86 Q1336.11 1091.45 1336.11 1100.2 Q1336.11 1108.92 1333.03 1113.53 Q1329.98 1118.11 1324.17 1118.11 Q1318.36 1118.11 1315.28 1113.53 Q1312.22 1108.92 1312.22 1100.2 Q1312.22 1091.45 1315.28 1086.86 Q1318.36 1082.26 1324.17 1082.26 Z" fill="#000000" fill-rule="nonzero" fill-opacity="1" /><path clip-path="url(#clip610)" d="M1344.33 1111.56 L1349.21 1111.56 L1349.21 1117.44 L1344.33 1117.44 L1344.33 1111.56 Z" fill="#000000" fill-rule="nonzero" fill-opacity="1" /><path clip-path="url(#clip610)" d="M1369.4 1085.96 Q1365.79 1085.96 1363.96 1089.53 Q1362.15 1093.07 1362.15 1100.2 Q1362.15 1107.3 1363.96 1110.87 Q1365.79 1114.41 1369.4 1114.41 Q1373.03 1114.41 1374.84 1110.87 Q1376.67 1107.3 1376.67 1100.2 Q1376.67 1093.07 1374.84 1089.53 Q1373.03 1085.96 1369.4 1085.96 M1369.4 1082.26 Q1375.21 1082.26 1378.26 1086.86 Q1381.34 1091.45 1381.34 1100.2 Q1381.34 1108.92 1378.26 1113.53 Q1375.21 1118.11 1369.4 1118.11 Q1363.59 1118.11 1360.51 1113.53 Q1357.45 1108.92 1357.45 1100.2 Q1357.45 1091.45 1360.51 1086.86 Q1363.59 1082.26 1369.4 1082.26 Z" fill="#000000" fill-rule="nonzero" fill-opacity="1" /><path clip-path="url(#clip610)" d="M1393.59 1113.51 L1409.91 1113.51 L1409.91 1117.44 L1387.96 1117.44 L1387.96 1113.51 Q1390.63 1110.75 1395.21 1106.12 Q1399.82 1101.47 1401 1100.13 Q1403.24 1097.6 1404.12 1095.87 Q1405.02 1094.11 1405.02 1092.42 Q1405.02 1089.66 1403.08 1087.93 Q1401.16 1086.19 1398.06 1086.19 Q1395.86 1086.19 1393.4 1086.96 Q1390.97 1087.72 1388.19 1089.27 L1388.19 1084.55 Q1391.02 1083.41 1393.47 1082.84 Q1395.93 1082.26 1397.96 1082.26 Q1403.33 1082.26 1406.53 1084.94 Q1409.72 1087.63 1409.72 1092.12 Q1409.72 1094.25 1408.91 1096.17 Q1408.13 1098.07 1406.02 1100.66 Q1405.44 1101.33 1402.34 1104.55 Q1399.24 1107.74 1393.59 1113.51 Z" fill="#000000" fill-rule="nonzero" fill-opacity="1" /><path clip-path="url(#clip610)" d="M1182.01 1250.93 L1182.94 1251.49 Q1181.43 1254.99 1179.02 1259.34 Q1181.43 1263.69 1182.94 1267.19 L1182.01 1267.73 Q1178.7 1263.92 1176.15 1259.34 Q1178.72 1254.72 1182.01 1250.93 Z" fill="#000000" fill-rule="nonzero" fill-opacity="1" /><path clip-path="url(#clip610)" d="M1194.31 1247.77 Q1196.12 1247.77 1197.15 1248.9 Q1198.14 1250.02 1198.14 1251.31 Q1198.14 1252.54 1197.44 1253.18 Q1196.73 1253.82 1195.83 1253.82 Q1194.6 1253.82 1193.54 1252.92 Q1192.48 1252.02 1192.25 1250.67 Q1191.41 1251.99 1191.41 1253.95 Q1191.41 1255.24 1192.09 1256.37 Q1192.77 1257.46 1193.64 1258.14 Q1194.51 1258.78 1195.76 1259.36 Q1196.99 1259.91 1197.73 1260.14 Q1198.43 1260.33 1199.21 1260.49 L1208.23 1262.74 Q1212.51 1263.84 1214.02 1263.84 Q1215.89 1263.84 1217.15 1262.94 Q1218.37 1262.04 1218.37 1260.23 Q1218.37 1259.52 1218.18 1258.72 Q1217.95 1257.91 1217.37 1256.88 Q1216.76 1255.82 1215.86 1254.89 Q1214.92 1253.92 1213.35 1252.99 Q1211.77 1252.05 1209.74 1251.44 Q1209.03 1251.25 1209.03 1250.6 Q1209.03 1249.8 1209.67 1249.8 Q1210.22 1249.8 1211.38 1250.25 Q1212.51 1250.67 1213.99 1251.6 Q1215.44 1252.5 1216.76 1253.69 Q1218.05 1254.89 1218.95 1256.66 Q1219.85 1258.43 1219.85 1260.36 Q1219.85 1263.13 1218.37 1264.97 Q1216.89 1266.8 1214.83 1267.48 Q1215.12 1267.64 1215.5 1267.87 Q1215.89 1268.09 1216.76 1268.77 Q1217.6 1269.41 1218.24 1270.15 Q1218.85 1270.89 1219.34 1272.05 Q1219.85 1273.18 1219.85 1274.4 Q1219.85 1275.95 1219.4 1277.33 Q1218.95 1278.69 1217.92 1279.65 Q1216.89 1280.62 1215.47 1280.62 Q1213.89 1280.62 1212.8 1279.56 Q1211.67 1278.46 1211.67 1276.98 Q1211.67 1276.05 1212.22 1275.3 Q1212.77 1274.53 1213.96 1274.53 Q1215.28 1274.53 1216.28 1275.43 Q1217.27 1276.34 1217.53 1277.62 Q1218.37 1276.3 1218.37 1274.34 Q1218.37 1272.21 1216.5 1270.54 Q1214.63 1268.86 1211.51 1268.06 Q1204.01 1266.06 1200.66 1265.29 Q1197.28 1264.52 1195.83 1264.52 Q1194.47 1264.52 1193.54 1264.87 Q1192.61 1265.22 1192.19 1265.84 Q1191.74 1266.42 1191.57 1266.96 Q1191.41 1267.48 1191.41 1268.06 Q1191.41 1269.02 1191.8 1270.12 Q1192.19 1271.18 1193.09 1272.47 Q1193.96 1273.73 1195.76 1274.92 Q1197.56 1276.11 1200.04 1276.92 Q1200.79 1277.08 1200.79 1277.78 Q1200.75 1278.56 1200.11 1278.56 Q1199.56 1278.56 1198.43 1278.14 Q1197.28 1277.69 1195.83 1276.79 Q1194.38 1275.85 1193.09 1274.66 Q1191.77 1273.44 1190.87 1271.67 Q1189.96 1269.86 1189.96 1267.93 Q1189.96 1267.06 1190.16 1266.22 Q1190.32 1265.35 1190.8 1264.32 Q1191.28 1263.26 1192.35 1262.33 Q1193.41 1261.39 1194.96 1260.81 Q1194.22 1260.43 1193.51 1259.91 Q1192.8 1259.36 1191.93 1258.53 Q1191.03 1257.66 1190.51 1256.46 Q1189.96 1255.24 1189.96 1253.89 Q1189.96 1252.57 1190.32 1251.28 Q1190.64 1249.99 1191.7 1248.9 Q1192.73 1247.77 1194.31 1247.77 Z" fill="#000000" fill-rule="nonzero" fill-opacity="1" /><path clip-path="url(#clip610)" d="M1231.9 1240.31 Q1230.52 1240.31 1229.87 1239.52 Q1229.22 1238.73 1229.22 1237.72 Q1229.22 1236.66 1229.92 1235.91 Q1230.59 1235.15 1231.79 1235.15 Q1233.07 1235.15 1233.79 1236.05 Q1234.51 1236.93 1234.33 1238.19 Q1236.18 1237.09 1237.02 1235.06 Q1237.85 1233.01 1237.85 1231.11 Q1237.85 1229.13 1236.14 1227.53 Q1234.42 1225.9 1230.23 1225.9 Q1226.67 1225.9 1224.62 1227.3 Q1222.57 1228.68 1222.57 1231.4 L1222.57 1233.43 Q1222.57 1234.13 1222.5 1234.34 Q1222.43 1234.54 1222.05 1234.54 Q1221.6 1234.54 1221.51 1233.84 Q1221.51 1233.14 1221.37 1232.04 Q1221.28 1229.35 1218.96 1227.93 Q1216.79 1226.65 1213.71 1226.65 Q1210.89 1226.65 1209.72 1228 Q1208.52 1229.33 1208.52 1231.07 Q1208.52 1232.69 1209.2 1234.47 Q1209.87 1236.25 1211.38 1237.22 Q1211.38 1234.36 1213.71 1234.36 Q1214.72 1234.36 1215.4 1235.01 Q1216.05 1235.64 1216.05 1236.7 Q1216.05 1237.72 1215.42 1238.39 Q1214.77 1239.07 1213.66 1239.07 Q1211.02 1239.07 1209.2 1236.73 Q1207.37 1234.36 1207.37 1230.89 Q1207.37 1227.46 1209.17 1224.93 Q1210.98 1222.39 1213.75 1222.39 Q1216.48 1222.39 1218.71 1224.19 Q1220.94 1225.99 1221.87 1228.86 Q1222.57 1225.34 1224.96 1223.24 Q1227.32 1221.15 1230.23 1221.15 Q1233.84 1221.15 1236.5 1223.99 Q1239.14 1226.83 1239.14 1230.98 Q1239.14 1234.81 1237.06 1237.56 Q1234.99 1240.31 1231.9 1240.31 Z" fill="#000000" fill-rule="nonzero" fill-opacity="1" /><polyline clip-path="url(#clip615)" style="stroke:#e26f46; stroke-linecap:round; stroke-linejoin:round; stroke-width:3; stroke-opacity:1; fill:none" stroke-dasharray="12, 6, 2, 6" points="1471.57,1172.81 1496.74,1172.81 1521.9,1172.81 1547.06,1231.73 1572.22,1318.1 1597.38,1252.8 1622.55,1413.23 1647.71,1281.61 1672.87,1366.41 1698.03,1332.23 1723.2,1261.17 1748.36,1225.86 1773.52,1163.08 1798.68,1197.99 1823.85,1189.07 1849.01,1081.68 1874.17,1155.51 1899.33,1209.61 1924.49,1125.55 1949.66,1190.52 1974.82,1158.79 1999.98,1191.01 2025.14,1194.01 2050.31,1173.59 2075.47,1186.59 2100.63,1178.64 2125.79,1171.45 2150.95,1167.05 2176.12,1205.95 2201.28,1159.71 2226.44,1190.8 2251.6,1158.9 2276.77,1226.84 2301.93,1162.42 2327.09,1194.72 "/>
</svg>
