<?xml version="1.0" encoding="utf-8"?>
<svg xmlns="http://www.w3.org/2000/svg" xmlns:xlink="http://www.w3.org/1999/xlink" width="600" height="400" viewBox="0 0 2400 1600">
<defs>
  <clipPath id="clip840">
    <rect x="0" y="0" width="2400" height="1600"/>
  </clipPath>
</defs>
<path clip-path="url(#clip840)" d="M0 1600 L2400 1600 L2400 0 L0 0  Z" fill="#ffffff" fill-rule="evenodd" fill-opacity="1"/>
<defs>
  <clipPath id="clip841">
    <rect x="480" y="0" width="1681" height="1600"/>
  </clipPath>
</defs>
<path clip-path="url(#clip840)" d="M203.964 1423.18 L1111.85 1423.18 L1111.85 47.2441 L203.964 47.2441  Z" fill="#ffffff" fill-rule="evenodd" fill-opacity="1"/>
<defs>
  <clipPath id="clip842">
    <rect x="203" y="47" width="909" height="1377"/>
  </clipPath>
</defs>
<polyline clip-path="url(#clip842)" style="stroke:#000000; stroke-linecap:round; stroke-linejoin:round; stroke-width:2; stroke-opacity:0.1; fill:none" points="229.659,1423.18 229.659,47.2441 "/>
<polyline clip-path="url(#clip842)" style="stroke:#000000; stroke-linecap:round; stroke-linejoin:round; stroke-width:2; stroke-opacity:0.1; fill:none" points="481.57,1423.18 481.57,47.2441 "/>
<polyline clip-path="url(#clip842)" style="stroke:#000000; stroke-linecap:round; stroke-linejoin:round; stroke-width:2; stroke-opacity:0.1; fill:none" points="733.482,1423.18 733.482,47.2441 "/>
<polyline clip-path="url(#clip842)" style="stroke:#000000; stroke-linecap:round; stroke-linejoin:round; stroke-width:2; stroke-opacity:0.1; fill:none" points="985.394,1423.18 985.394,47.2441 "/>
<polyline clip-path="url(#clip842)" style="stroke:#000000; stroke-linecap:round; stroke-linejoin:round; stroke-width:2; stroke-opacity:0.1; fill:none" points="203.964,1372.45 1111.85,1372.45 "/>
<polyline clip-path="url(#clip842)" style="stroke:#000000; stroke-linecap:round; stroke-linejoin:round; stroke-width:2; stroke-opacity:0.1; fill:none" points="203.964,1150.9 1111.85,1150.9 "/>
<polyline clip-path="url(#clip842)" style="stroke:#000000; stroke-linecap:round; stroke-linejoin:round; stroke-width:2; stroke-opacity:0.1; fill:none" points="203.964,929.343 1111.85,929.343 "/>
<polyline clip-path="url(#clip842)" style="stroke:#000000; stroke-linecap:round; stroke-linejoin:round; stroke-width:2; stroke-opacity:0.1; fill:none" points="203.964,707.789 1111.85,707.789 "/>
<polyline clip-path="url(#clip842)" style="stroke:#000000; stroke-linecap:round; stroke-linejoin:round; stroke-width:2; stroke-opacity:0.1; fill:none" points="203.964,486.235 1111.85,486.235 "/>
<polyline clip-path="url(#clip842)" style="stroke:#000000; stroke-linecap:round; stroke-linejoin:round; stroke-width:2; stroke-opacity:0.1; fill:none" points="203.964,264.68 1111.85,264.68 "/>
<polyline clip-path="url(#clip840)" style="stroke:#000000; stroke-linecap:round; stroke-linejoin:round; stroke-width:4; stroke-opacity:1; fill:none" points="203.964,1423.18 1111.85,1423.18 "/>
<polyline clip-path="url(#clip840)" style="stroke:#000000; stroke-linecap:round; stroke-linejoin:round; stroke-width:4; stroke-opacity:1; fill:none" points="229.659,1423.18 229.659,1404.28 "/>
<polyline clip-path="url(#clip840)" style="stroke:#000000; stroke-linecap:round; stroke-linejoin:round; stroke-width:4; stroke-opacity:1; fill:none" points="481.57,1423.18 481.57,1404.28 "/>
<polyline clip-path="url(#clip840)" style="stroke:#000000; stroke-linecap:round; stroke-linejoin:round; stroke-width:4; stroke-opacity:1; fill:none" points="733.482,1423.18 733.482,1404.28 "/>
<polyline clip-path="url(#clip840)" style="stroke:#000000; stroke-linecap:round; stroke-linejoin:round; stroke-width:4; stroke-opacity:1; fill:none" points="985.394,1423.18 985.394,1404.28 "/>
<path clip-path="url(#clip840)" d="M229.659 1454.1 Q226.047 1454.1 224.219 1457.66 Q222.413 1461.2 222.413 1468.33 Q222.413 1475.44 224.219 1479.01 Q226.047 1482.55 229.659 1482.55 Q233.293 1482.55 235.098 1479.01 Q236.927 1475.44 236.927 1468.33 Q236.927 1461.2 235.098 1457.66 Q233.293 1454.1 229.659 1454.1 M229.659 1450.39 Q235.469 1450.39 238.524 1455 Q241.603 1459.58 241.603 1468.33 Q241.603 1477.06 238.524 1481.67 Q235.469 1486.25 229.659 1486.25 Q223.848 1486.25 220.77 1481.67 Q217.714 1477.06 217.714 1468.33 Q217.714 1459.58 220.77 1455 Q223.848 1450.39 229.659 1450.39 Z" fill="#000000" fill-rule="nonzero" fill-opacity="1" /><path clip-path="url(#clip840)" d="M471.952 1481.64 L479.591 1481.64 L479.591 1455.28 L471.281 1456.95 L471.281 1452.69 L479.545 1451.02 L484.221 1451.02 L484.221 1481.64 L491.86 1481.64 L491.86 1485.58 L471.952 1485.58 L471.952 1481.64 Z" fill="#000000" fill-rule="nonzero" fill-opacity="1" /><path clip-path="url(#clip840)" d="M728.135 1481.64 L744.454 1481.64 L744.454 1485.58 L722.51 1485.58 L722.51 1481.64 Q725.172 1478.89 729.755 1474.26 Q734.362 1469.61 735.542 1468.27 Q737.788 1465.74 738.667 1464.01 Q739.57 1462.25 739.57 1460.56 Q739.57 1457.8 737.625 1456.07 Q735.704 1454.33 732.602 1454.33 Q730.403 1454.33 727.95 1455.09 Q725.519 1455.86 722.741 1457.41 L722.741 1452.69 Q725.565 1451.55 728.019 1450.97 Q730.473 1450.39 732.51 1450.39 Q737.88 1450.39 741.075 1453.08 Q744.269 1455.77 744.269 1460.26 Q744.269 1462.39 743.459 1464.31 Q742.672 1466.2 740.565 1468.8 Q739.987 1469.47 736.885 1472.69 Q733.783 1475.88 728.135 1481.64 Z" fill="#000000" fill-rule="nonzero" fill-opacity="1" /><path clip-path="url(#clip840)" d="M989.641 1466.95 Q992.998 1467.66 994.873 1469.93 Q996.771 1472.2 996.771 1475.53 Q996.771 1480.65 993.252 1483.45 Q989.734 1486.25 983.252 1486.25 Q981.077 1486.25 978.762 1485.81 Q976.47 1485.39 974.016 1484.54 L974.016 1480.02 Q975.961 1481.16 978.276 1481.74 Q980.59 1482.32 983.114 1482.32 Q987.512 1482.32 989.803 1480.58 Q992.118 1478.84 992.118 1475.53 Q992.118 1472.48 989.965 1470.77 Q987.836 1469.03 984.016 1469.03 L979.989 1469.03 L979.989 1465.19 L984.202 1465.19 Q987.651 1465.19 989.479 1463.82 Q991.308 1462.43 991.308 1459.84 Q991.308 1457.18 989.41 1455.77 Q987.535 1454.33 984.016 1454.33 Q982.095 1454.33 979.896 1454.75 Q977.697 1455.16 975.058 1456.04 L975.058 1451.88 Q977.72 1451.14 980.035 1450.77 Q982.373 1450.39 984.433 1450.39 Q989.757 1450.39 992.859 1452.83 Q995.961 1455.23 995.961 1459.35 Q995.961 1462.22 994.317 1464.21 Q992.674 1466.18 989.641 1466.95 Z" fill="#000000" fill-rule="nonzero" fill-opacity="1" /><path clip-path="url(#clip840)" d="M528.08 1520.52 L568.279 1520.52 L568.279 1525.93 L551.41 1525.93 L551.41 1568.04 L544.949 1568.04 L544.949 1525.93 L528.08 1525.93 L528.08 1520.52 Z" fill="#000000" fill-rule="nonzero" fill-opacity="1" /><path clip-path="url(#clip840)" d="M572.226 1532.4 L578.082 1532.4 L578.082 1568.04 L572.226 1568.04 L572.226 1532.4 M572.226 1518.52 L578.082 1518.52 L578.082 1525.93 L572.226 1525.93 L572.226 1518.52 Z" fill="#000000" fill-rule="nonzero" fill-opacity="1" /><path clip-path="url(#clip840)" d="M618.091 1539.24 Q620.287 1535.29 623.343 1533.41 Q626.398 1531.54 630.536 1531.54 Q636.106 1531.54 639.13 1535.45 Q642.153 1539.33 642.153 1546.53 L642.153 1568.04 L636.265 1568.04 L636.265 1546.72 Q636.265 1541.59 634.451 1539.11 Q632.637 1536.63 628.913 1536.63 Q624.361 1536.63 621.719 1539.65 Q619.078 1542.68 619.078 1547.9 L619.078 1568.04 L613.189 1568.04 L613.189 1546.72 Q613.189 1541.56 611.375 1539.11 Q609.561 1536.63 605.773 1536.63 Q601.285 1536.63 598.644 1539.68 Q596.002 1542.71 596.002 1547.9 L596.002 1568.04 L590.114 1568.04 L590.114 1532.4 L596.002 1532.4 L596.002 1537.93 Q598.007 1534.66 600.808 1533.1 Q603.609 1531.54 607.46 1531.54 Q611.343 1531.54 614.049 1533.51 Q616.786 1535.48 618.091 1539.24 Z" fill="#000000" fill-rule="nonzero" fill-opacity="1" /><path clip-path="url(#clip840)" d="M684.326 1548.76 L684.326 1551.62 L657.399 1551.62 Q657.781 1557.67 661.028 1560.85 Q664.306 1564 670.131 1564 Q673.504 1564 676.655 1563.17 Q679.838 1562.35 682.958 1560.69 L682.958 1566.23 Q679.806 1567.57 676.496 1568.27 Q673.186 1568.97 669.781 1568.97 Q661.25 1568.97 656.253 1564 Q651.288 1559.04 651.288 1550.57 Q651.288 1541.82 655.999 1536.69 Q660.741 1531.54 668.762 1531.54 Q675.955 1531.54 680.125 1536.18 Q684.326 1540.8 684.326 1548.76 M678.47 1547.04 Q678.406 1542.23 675.764 1539.37 Q673.154 1536.5 668.826 1536.5 Q663.924 1536.5 660.964 1539.27 Q658.036 1542.04 657.59 1547.07 L678.47 1547.04 Z" fill="#000000" fill-rule="nonzero" fill-opacity="1" /><path clip-path="url(#clip840)" d="M728.727 1518.58 Q724.462 1525.9 722.393 1533.06 Q720.324 1540.23 720.324 1547.58 Q720.324 1554.93 722.393 1562.16 Q724.494 1569.35 728.727 1576.64 L723.634 1576.64 Q718.86 1569.16 716.473 1561.93 Q714.118 1554.71 714.118 1547.58 Q714.118 1540.48 716.473 1533.29 Q718.828 1526.09 723.634 1518.58 L728.727 1518.58 Z" fill="#000000" fill-rule="nonzero" fill-opacity="1" /><path clip-path="url(#clip840)" d="M762.815 1533.45 L762.815 1538.98 Q760.333 1537.71 757.659 1537.07 Q754.985 1536.44 752.121 1536.44 Q747.76 1536.44 745.564 1537.77 Q743.4 1539.11 743.4 1541.79 Q743.4 1543.82 744.959 1545 Q746.519 1546.15 751.23 1547.2 L753.235 1547.64 Q759.473 1548.98 762.083 1551.43 Q764.725 1553.85 764.725 1558.21 Q764.725 1563.17 760.778 1566.07 Q756.863 1568.97 749.988 1568.97 Q747.124 1568.97 744.005 1568.39 Q740.917 1567.85 737.48 1566.74 L737.48 1560.69 Q740.726 1562.38 743.877 1563.24 Q747.028 1564.07 750.116 1564.07 Q754.253 1564.07 756.481 1562.66 Q758.709 1561.23 758.709 1558.65 Q758.709 1556.27 757.086 1554.99 Q755.495 1553.72 750.052 1552.54 L748.015 1552.07 Q742.572 1550.92 740.153 1548.56 Q737.734 1546.18 737.734 1542.04 Q737.734 1537.01 741.299 1534.27 Q744.864 1531.54 751.421 1531.54 Q754.667 1531.54 757.532 1532.01 Q760.396 1532.49 762.815 1533.45 Z" fill="#000000" fill-rule="nonzero" fill-opacity="1" /><path clip-path="url(#clip840)" d="M773.128 1518.58 L778.22 1518.58 Q782.995 1526.09 785.35 1533.29 Q787.737 1540.48 787.737 1547.58 Q787.737 1554.71 785.35 1561.93 Q782.995 1569.16 778.22 1576.64 L773.128 1576.64 Q777.361 1569.35 779.43 1562.16 Q781.53 1554.93 781.53 1547.58 Q781.53 1540.23 779.43 1533.06 Q777.361 1525.9 773.128 1518.58 Z" fill="#000000" fill-rule="nonzero" fill-opacity="1" /><polyline clip-path="url(#clip840)" style="stroke:#000000; stroke-linecap:round; stroke-linejoin:round; stroke-width:4; stroke-opacity:1; fill:none" points="203.964,1423.18 203.964,47.2441 "/>
<polyline clip-path="url(#clip840)" style="stroke:#000000; stroke-linecap:round; stroke-linejoin:round; stroke-width:4; stroke-opacity:1; fill:none" points="203.964,1372.45 222.861,1372.45 "/>
<polyline clip-path="url(#clip840)" style="stroke:#000000; stroke-linecap:round; stroke-linejoin:round; stroke-width:4; stroke-opacity:1; fill:none" points="203.964,1150.9 222.861,1150.9 "/>
<polyline clip-path="url(#clip840)" style="stroke:#000000; stroke-linecap:round; stroke-linejoin:round; stroke-width:4; stroke-opacity:1; fill:none" points="203.964,929.343 222.861,929.343 "/>
<polyline clip-path="url(#clip840)" style="stroke:#000000; stroke-linecap:round; stroke-linejoin:round; stroke-width:4; stroke-opacity:1; fill:none" points="203.964,707.789 222.861,707.789 "/>
<polyline clip-path="url(#clip840)" style="stroke:#000000; stroke-linecap:round; stroke-linejoin:round; stroke-width:4; stroke-opacity:1; fill:none" points="203.964,486.235 222.861,486.235 "/>
<polyline clip-path="url(#clip840)" style="stroke:#000000; stroke-linecap:round; stroke-linejoin:round; stroke-width:4; stroke-opacity:1; fill:none" points="203.964,264.68 222.861,264.68 "/>
<path clip-path="url(#clip840)" d="M156.019 1358.25 Q152.408 1358.25 150.579 1361.82 Q148.774 1365.36 148.774 1372.49 Q148.774 1379.59 150.579 1383.16 Q152.408 1386.7 156.019 1386.7 Q159.653 1386.7 161.459 1383.16 Q163.288 1379.59 163.288 1372.49 Q163.288 1365.36 161.459 1361.82 Q159.653 1358.25 156.019 1358.25 M156.019 1354.55 Q161.829 1354.55 164.885 1359.15 Q167.964 1363.74 167.964 1372.49 Q167.964 1381.21 164.885 1385.82 Q161.829 1390.4 156.019 1390.4 Q150.209 1390.4 147.13 1385.82 Q144.075 1381.21 144.075 1372.49 Q144.075 1363.74 147.13 1359.15 Q150.209 1354.55 156.019 1354.55 Z" fill="#000000" fill-rule="nonzero" fill-opacity="1" /><path clip-path="url(#clip840)" d="M147.061 1133.62 L165.417 1133.62 L165.417 1137.55 L151.343 1137.55 L151.343 1146.02 Q152.362 1145.68 153.38 1145.52 Q154.399 1145.33 155.417 1145.33 Q161.204 1145.33 164.584 1148.5 Q167.964 1151.67 167.964 1157.09 Q167.964 1162.67 164.491 1165.77 Q161.019 1168.85 154.7 1168.85 Q152.524 1168.85 150.255 1168.48 Q148.01 1168.11 145.603 1167.37 L145.603 1162.67 Q147.686 1163.8 149.908 1164.36 Q152.13 1164.91 154.607 1164.91 Q158.612 1164.91 160.95 1162.81 Q163.288 1160.7 163.288 1157.09 Q163.288 1153.48 160.95 1151.37 Q158.612 1149.27 154.607 1149.27 Q152.732 1149.27 150.857 1149.68 Q149.005 1150.1 147.061 1150.98 L147.061 1133.62 Z" fill="#000000" fill-rule="nonzero" fill-opacity="1" /><path clip-path="url(#clip840)" d="M116.668 942.688 L124.306 942.688 L124.306 916.322 L115.996 917.989 L115.996 913.73 L124.26 912.063 L128.936 912.063 L128.936 942.688 L136.575 942.688 L136.575 946.623 L116.668 946.623 L116.668 942.688 Z" fill="#000000" fill-rule="nonzero" fill-opacity="1" /><path clip-path="url(#clip840)" d="M156.019 915.142 Q152.408 915.142 150.579 918.707 Q148.774 922.248 148.774 929.378 Q148.774 936.484 150.579 940.049 Q152.408 943.591 156.019 943.591 Q159.653 943.591 161.459 940.049 Q163.288 936.484 163.288 929.378 Q163.288 922.248 161.459 918.707 Q159.653 915.142 156.019 915.142 M156.019 911.438 Q161.829 911.438 164.885 916.044 Q167.964 920.628 167.964 929.378 Q167.964 938.105 164.885 942.711 Q161.829 947.294 156.019 947.294 Q150.209 947.294 147.13 942.711 Q144.075 938.105 144.075 929.378 Q144.075 920.628 147.13 916.044 Q150.209 911.438 156.019 911.438 Z" fill="#000000" fill-rule="nonzero" fill-opacity="1" /><path clip-path="url(#clip840)" d="M117.663 721.134 L125.302 721.134 L125.302 694.768 L116.992 696.435 L116.992 692.175 L125.255 690.509 L129.931 690.509 L129.931 721.134 L137.57 721.134 L137.57 725.069 L117.663 725.069 L117.663 721.134 Z" fill="#000000" fill-rule="nonzero" fill-opacity="1" /><path clip-path="url(#clip840)" d="M147.061 690.509 L165.417 690.509 L165.417 694.444 L151.343 694.444 L151.343 702.916 Q152.362 702.569 153.38 702.407 Q154.399 702.222 155.417 702.222 Q161.204 702.222 164.584 705.393 Q167.964 708.564 167.964 713.981 Q167.964 719.56 164.491 722.661 Q161.019 725.74 154.7 725.74 Q152.524 725.74 150.255 725.37 Q148.01 724.999 145.603 724.259 L145.603 719.56 Q147.686 720.694 149.908 721.249 Q152.13 721.805 154.607 721.805 Q158.612 721.805 160.95 719.698 Q163.288 717.592 163.288 713.981 Q163.288 710.37 160.95 708.263 Q158.612 706.157 154.607 706.157 Q152.732 706.157 150.857 706.573 Q149.005 706.99 147.061 707.87 L147.061 690.509 Z" fill="#000000" fill-rule="nonzero" fill-opacity="1" /><path clip-path="url(#clip840)" d="M119.885 499.579 L136.204 499.579 L136.204 503.515 L114.26 503.515 L114.26 499.579 Q116.922 496.825 121.505 492.195 Q126.112 487.542 127.292 486.2 Q129.538 483.677 130.417 481.941 Q131.32 480.181 131.32 478.491 Q131.32 475.737 129.376 474.001 Q127.455 472.265 124.353 472.265 Q122.154 472.265 119.7 473.029 Q117.269 473.792 114.492 475.343 L114.492 470.621 Q117.316 469.487 119.769 468.908 Q122.223 468.33 124.26 468.33 Q129.63 468.33 132.825 471.015 Q136.019 473.7 136.019 478.191 Q136.019 480.32 135.209 482.241 Q134.422 484.14 132.316 486.732 Q131.737 487.403 128.635 490.621 Q125.533 493.815 119.885 499.579 Z" fill="#000000" fill-rule="nonzero" fill-opacity="1" /><path clip-path="url(#clip840)" d="M156.019 472.033 Q152.408 472.033 150.579 475.598 Q148.774 479.14 148.774 486.269 Q148.774 493.376 150.579 496.94 Q152.408 500.482 156.019 500.482 Q159.653 500.482 161.459 496.94 Q163.288 493.376 163.288 486.269 Q163.288 479.14 161.459 475.598 Q159.653 472.033 156.019 472.033 M156.019 468.33 Q161.829 468.33 164.885 472.936 Q167.964 477.519 167.964 486.269 Q167.964 494.996 164.885 499.602 Q161.829 504.186 156.019 504.186 Q150.209 504.186 147.13 499.602 Q144.075 494.996 144.075 486.269 Q144.075 477.519 147.13 472.936 Q150.209 468.33 156.019 468.33 Z" fill="#000000" fill-rule="nonzero" fill-opacity="1" /><path clip-path="url(#clip840)" d="M120.88 278.025 L137.2 278.025 L137.2 281.96 L115.256 281.96 L115.256 278.025 Q117.918 275.27 122.501 270.641 Q127.107 265.988 128.288 264.646 Q130.533 262.122 131.413 260.386 Q132.316 258.627 132.316 256.937 Q132.316 254.183 130.371 252.447 Q128.45 250.71 125.348 250.71 Q123.149 250.71 120.695 251.474 Q118.265 252.238 115.487 253.789 L115.487 249.067 Q118.311 247.933 120.765 247.354 Q123.218 246.775 125.255 246.775 Q130.626 246.775 133.82 249.46 Q137.015 252.146 137.015 256.636 Q137.015 258.766 136.204 260.687 Q135.417 262.585 133.311 265.178 Q132.732 265.849 129.63 269.067 Q126.529 272.261 120.88 278.025 Z" fill="#000000" fill-rule="nonzero" fill-opacity="1" /><path clip-path="url(#clip840)" d="M147.061 247.4 L165.417 247.4 L165.417 251.335 L151.343 251.335 L151.343 259.808 Q152.362 259.46 153.38 259.298 Q154.399 259.113 155.417 259.113 Q161.204 259.113 164.584 262.284 Q167.964 265.456 167.964 270.872 Q167.964 276.451 164.491 279.553 Q161.019 282.632 154.7 282.632 Q152.524 282.632 150.255 282.261 Q148.01 281.891 145.603 281.15 L145.603 276.451 Q147.686 277.585 149.908 278.141 Q152.13 278.696 154.607 278.696 Q158.612 278.696 160.95 276.59 Q163.288 274.483 163.288 270.872 Q163.288 267.261 160.95 265.155 Q158.612 263.048 154.607 263.048 Q152.732 263.048 150.857 263.465 Q149.005 263.882 147.061 264.761 L147.061 247.4 Z" fill="#000000" fill-rule="nonzero" fill-opacity="1" /><path clip-path="url(#clip840)" d="M39.4334 772.564 Q44.844 772.564 50.9309 774.303 Q56.9856 776.01 61.8809 778.715 Q66.744 781.42 69.9646 784.963 Q73.153 788.505 73.153 791.887 Q73.153 794.045 71.9613 795.655 Q70.7375 797.233 68.7085 798.103 Q66.6474 798.972 64.393 799.391 Q62.1063 799.81 59.6265 799.81 Q55.9228 799.81 51.8971 799.005 Q47.8391 798.199 44.1677 796.847 Q40.464 795.494 37.1146 793.594 Q33.733 791.694 31.2853 789.6 Q28.8055 787.475 27.3562 785.092 Q25.907 782.708 25.907 780.486 Q25.907 778.876 26.6155 777.588 Q27.2918 776.267 28.4834 775.43 Q29.6428 774.593 31.0277 774.013 Q32.4125 773.401 34.0228 773.111 Q35.6009 772.821 36.9214 772.692 Q38.2096 772.564 39.4334 772.564 M35.3433 776.911 Q33.7008 776.911 32.477 777.04 Q31.2209 777.169 29.9649 777.523 Q28.7089 777.878 28.0325 778.65 Q27.3562 779.391 27.3562 780.551 Q27.3562 783.932 34.2805 787.733 Q36.4383 788.956 39.369 790.051 Q42.2997 791.146 43.6846 791.533 Q45.0694 791.919 48.4833 792.821 L48.4833 779.037 Q39.6911 776.911 35.3433 776.911 M50.5766 779.617 L50.5766 793.336 Q58.6281 795.462 63.6522 795.462 Q68.0322 795.462 69.868 794.56 Q71.6715 793.626 71.6715 791.887 Q71.6715 789.89 69.6747 788.022 Q67.6458 786.154 63.9743 784.254 Q59.2078 781.742 50.5766 779.617 Z" fill="#000000" fill-rule="nonzero" fill-opacity="1" /><path clip-path="url(#clip840)" d="M22.9507 728.256 Q30.2712 732.521 37.4327 734.59 Q44.5941 736.658 51.9465 736.658 Q59.2989 736.658 66.5239 734.59 Q73.7172 732.489 81.0059 728.256 L81.0059 733.348 Q73.5262 738.123 66.3011 740.51 Q59.0761 742.865 51.9465 742.865 Q44.8487 742.865 37.6555 740.51 Q30.4622 738.154 22.9507 733.348 L22.9507 728.256 Z" fill="#000000" fill-rule="nonzero" fill-opacity="1" /><path clip-path="url(#clip840)" d="M28.1387 706.74 Q28.1387 709.286 29.9211 711.036 Q31.6717 712.787 34.218 712.787 Q36.7324 712.787 38.483 711.036 Q40.2017 709.286 40.2017 706.74 Q40.2017 704.193 38.483 702.443 Q36.7324 700.692 34.218 700.692 Q31.7035 700.692 29.9211 702.475 Q28.1387 704.225 28.1387 706.74 M24.0328 706.74 Q24.0328 704.703 24.8286 702.825 Q25.5924 700.947 27.0566 699.578 Q28.4888 698.114 30.3031 697.382 Q32.1173 696.65 34.218 696.65 Q38.4193 696.65 41.3476 699.61 Q44.244 702.538 44.244 706.803 Q44.244 711.1 41.3794 713.965 Q38.5148 716.829 34.218 716.829 Q29.953 716.829 26.9929 713.901 Q24.0328 710.973 24.0328 706.74 Z" fill="#000000" fill-rule="nonzero" fill-opacity="1" /><path clip-path="url(#clip840)" d="M22.9507 685.224 L22.9507 680.131 Q30.4622 675.357 37.6555 673.001 Q44.8487 670.614 51.9465 670.614 Q59.0761 670.614 66.3011 673.001 Q73.5262 675.357 81.0059 680.131 L81.0059 685.224 Q73.7172 680.99 66.5239 678.921 Q59.2989 676.821 51.9465 676.821 Q44.5941 676.821 37.4327 678.921 Q30.2712 680.99 22.9507 685.224 Z" fill="#000000" fill-rule="nonzero" fill-opacity="1" /><polyline clip-path="url(#clip842)" style="stroke:#009af9; stroke-linecap:round; stroke-linejoin:round; stroke-width:4; stroke-opacity:1; fill:none" points="229.659,1384.24 254.85,1228.09 280.041,995.438 305.232,705.162 330.423,441.486 355.614,243.673 380.806,123.316 405.997,98.8054 431.188,86.1857 456.379,136.873 481.57,198.359 506.761,205.314 531.953,235.788 557.144,213.785 582.335,262.404 607.526,285.724 632.717,267.992 657.908,244.555 683.1,272.557 708.291,280.305 733.482,284.304 758.673,211.671 783.864,282.162 809.055,297.331 834.247,236.882 859.438,225.58 884.629,273.604 909.82,226.266 935.011,252.149 960.203,255.92 985.394,200.491 1010.58,258.478 1035.78,272.428 1060.97,255.757 1086.16,267.548 "/>
<polyline clip-path="url(#clip842)" style="stroke:#e26f46; stroke-linecap:round; stroke-linejoin:round; stroke-width:3; stroke-opacity:1; fill:none" stroke-dasharray="12, 6, 2, 6" points="229.659,1383.89 254.85,1237.5 280.041,990.387 305.232,702.032 330.423,439.422 355.614,242.459 380.806,123.066 405.997,94.8578 431.188,91.0415 456.379,136.67 481.57,198.538 506.761,216.196 531.953,239.922 557.144,224.511 582.335,257.029 607.526,283.188 632.717,273.297 657.908,249.891 683.1,266.453 708.291,277.871 733.482,283.491 758.673,225.722 783.864,267.86 809.055,293.132 834.247,249.554 859.438,228.124 884.629,263.151 909.82,235.301 935.011,248.153 960.203,255.242 985.394,212.022 1010.58,247.614 1035.78,269.48 1060.97,260.265 1086.16,265.922 "/>
<path clip-path="url(#clip840)" d="M961.972 1377.32 L1081.59 1377.32 L1081.59 1221.8 L961.972 1221.8  Z" fill="#ffffff" fill-rule="evenodd" fill-opacity="1"/>
<polyline clip-path="url(#clip840)" style="stroke:#000000; stroke-linecap:round; stroke-linejoin:round; stroke-width:4; stroke-opacity:1; fill:none" points="961.972,1377.32 1081.59,1377.32 1081.59,1221.8 961.972,1221.8 961.972,1377.32 "/>
<polyline clip-path="url(#clip840)" style="stroke:#009af9; stroke-linecap:round; stroke-linejoin:round; stroke-width:4; stroke-opacity:1; fill:none" points="972.06,1273.64 1032.59,1273.64 "/>
<path clip-path="url(#clip840)" d="M1069.45 1260.37 Q1067.97 1260.37 1067.22 1260.51 Q1066.47 1260.63 1066.28 1260.8 Q1066.1 1260.96 1065.88 1261.38 L1055.58 1283.3 Q1054.48 1285.65 1052.42 1287.33 Q1050.38 1289.02 1047.8 1289.02 Q1045.65 1289.02 1044.15 1287.71 Q1042.67 1286.42 1042.67 1284.59 Q1042.67 1283.28 1043.49 1282.53 Q1044.31 1281.81 1045.41 1281.81 Q1046.63 1281.81 1047.4 1282.58 Q1048.2 1283.35 1048.2 1284.55 Q1048.2 1285.32 1047.87 1285.9 Q1047.55 1286.51 1047.24 1286.72 Q1046.96 1286.96 1046.66 1287.1 Q1047.15 1287.29 1047.8 1287.29 Q1048.79 1287.29 1049.63 1286.89 Q1050.5 1286.51 1051.06 1286 Q1051.64 1285.51 1052.23 1284.62 Q1052.82 1283.75 1053.1 1283.19 Q1053.38 1282.65 1053.8 1281.71 L1054.9 1279.42 L1045.93 1260.37 L1042.86 1260.37 L1042.86 1258.13 L1048.34 1258.27 L1054.29 1258.13 L1054.29 1260.37 L1051.69 1260.37 L1057.78 1273.33 L1063.31 1261.52 L1063.54 1260.96 Q1063.54 1260.7 1062.98 1260.56 Q1062.42 1260.4 1061.86 1260.4 L1061.29 1260.37 L1061.29 1258.13 L1065.65 1258.27 Q1067.71 1258.27 1069.45 1258.13 L1069.45 1260.37 Z" fill="#000000" fill-rule="nonzero" fill-opacity="1" /><polyline clip-path="url(#clip840)" style="stroke:#e26f46; stroke-linecap:round; stroke-linejoin:round; stroke-width:3; stroke-opacity:1; fill:none" stroke-dasharray="12, 6, 2, 6" points="972.06,1325.48 1032.59,1325.48 "/>
<path clip-path="url(#clip840)" d="M1065.26 1309.2 L1064.85 1309.87 Q1062.31 1308.77 1059.14 1307.01 Q1055.98 1308.77 1053.44 1309.87 L1053.04 1309.2 Q1055.81 1306.79 1059.14 1304.93 Q1062.5 1306.8 1065.26 1309.2 Z" fill="#000000" fill-rule="nonzero" fill-opacity="1" /><path clip-path="url(#clip840)" d="M1069.45 1317.22 Q1067.97 1317.22 1067.22 1317.36 Q1066.47 1317.48 1066.28 1317.64 Q1066.1 1317.8 1065.88 1318.23 L1055.58 1340.15 Q1054.48 1342.49 1052.42 1344.18 Q1050.38 1345.86 1047.8 1345.86 Q1045.65 1345.86 1044.15 1344.55 Q1042.67 1343.26 1042.67 1341.44 Q1042.67 1340.13 1043.49 1339.38 Q1044.31 1338.65 1045.41 1338.65 Q1046.63 1338.65 1047.4 1339.42 Q1048.2 1340.2 1048.2 1341.39 Q1048.2 1342.16 1047.87 1342.75 Q1047.55 1343.36 1047.24 1343.57 Q1046.96 1343.8 1046.66 1343.94 Q1047.15 1344.13 1047.8 1344.13 Q1048.79 1344.13 1049.63 1343.73 Q1050.5 1343.36 1051.06 1342.84 Q1051.64 1342.35 1052.23 1341.46 Q1052.82 1340.59 1053.1 1340.03 Q1053.38 1339.49 1053.8 1338.56 L1054.9 1336.26 L1045.93 1317.22 L1042.86 1317.22 L1042.86 1314.97 L1048.34 1315.11 L1054.29 1314.97 L1054.29 1317.22 L1051.69 1317.22 L1057.78 1330.17 L1063.31 1318.37 L1063.54 1317.8 Q1063.54 1317.55 1062.98 1317.41 Q1062.42 1317.24 1061.86 1317.24 L1061.29 1317.22 L1061.29 1314.97 L1065.65 1315.11 Q1067.71 1315.11 1069.45 1314.97 L1069.45 1317.22 Z" fill="#000000" fill-rule="nonzero" fill-opacity="1" /><path clip-path="url(#clip840)" d="M1444.87 398.692 L2352.76 398.692 L2352.76 47.2441 L1444.87 47.2441  Z" fill="#ffffff" fill-rule="evenodd" fill-opacity="1"/>
<defs>
  <clipPath id="clip843">
    <rect x="1444" y="47" width="909" height="352"/>
  </clipPath>
</defs>
<polyline clip-path="url(#clip843)" style="stroke:#000000; stroke-linecap:round; stroke-linejoin:round; stroke-width:2; stroke-opacity:0.1; fill:none" points="1470.56,398.692 1470.56,47.2441 "/>
<polyline clip-path="url(#clip843)" style="stroke:#000000; stroke-linecap:round; stroke-linejoin:round; stroke-width:2; stroke-opacity:0.1; fill:none" points="1722.47,398.692 1722.47,47.2441 "/>
<polyline clip-path="url(#clip843)" style="stroke:#000000; stroke-linecap:round; stroke-linejoin:round; stroke-width:2; stroke-opacity:0.1; fill:none" points="1974.38,398.692 1974.38,47.2441 "/>
<polyline clip-path="url(#clip843)" style="stroke:#000000; stroke-linecap:round; stroke-linejoin:round; stroke-width:2; stroke-opacity:0.1; fill:none" points="2226.3,398.692 2226.3,47.2441 "/>
<polyline clip-path="url(#clip843)" style="stroke:#000000; stroke-linecap:round; stroke-linejoin:round; stroke-width:2; stroke-opacity:0.1; fill:none" points="1444.87,385.812 2352.76,385.812 "/>
<polyline clip-path="url(#clip843)" style="stroke:#000000; stroke-linecap:round; stroke-linejoin:round; stroke-width:2; stroke-opacity:0.1; fill:none" points="1444.87,320.703 2352.76,320.703 "/>
<polyline clip-path="url(#clip843)" style="stroke:#000000; stroke-linecap:round; stroke-linejoin:round; stroke-width:2; stroke-opacity:0.1; fill:none" points="1444.87,255.594 2352.76,255.594 "/>
<polyline clip-path="url(#clip843)" style="stroke:#000000; stroke-linecap:round; stroke-linejoin:round; stroke-width:2; stroke-opacity:0.1; fill:none" points="1444.87,190.485 2352.76,190.485 "/>
<polyline clip-path="url(#clip843)" style="stroke:#000000; stroke-linecap:round; stroke-linejoin:round; stroke-width:2; stroke-opacity:0.1; fill:none" points="1444.87,125.376 2352.76,125.376 "/>
<polyline clip-path="url(#clip843)" style="stroke:#000000; stroke-linecap:round; stroke-linejoin:round; stroke-width:2; stroke-opacity:0.1; fill:none" points="1444.87,60.2676 2352.76,60.2676 "/>
<polyline clip-path="url(#clip840)" style="stroke:#000000; stroke-linecap:round; stroke-linejoin:round; stroke-width:4; stroke-opacity:1; fill:none" points="1444.87,398.692 2352.76,398.692 "/>
<polyline clip-path="url(#clip840)" style="stroke:#000000; stroke-linecap:round; stroke-linejoin:round; stroke-width:4; stroke-opacity:1; fill:none" points="1470.56,398.692 1470.56,379.794 "/>
<polyline clip-path="url(#clip840)" style="stroke:#000000; stroke-linecap:round; stroke-linejoin:round; stroke-width:4; stroke-opacity:1; fill:none" points="1722.47,398.692 1722.47,379.794 "/>
<polyline clip-path="url(#clip840)" style="stroke:#000000; stroke-linecap:round; stroke-linejoin:round; stroke-width:4; stroke-opacity:1; fill:none" points="1974.38,398.692 1974.38,379.794 "/>
<polyline clip-path="url(#clip840)" style="stroke:#000000; stroke-linecap:round; stroke-linejoin:round; stroke-width:4; stroke-opacity:1; fill:none" points="2226.3,398.692 2226.3,379.794 "/>
<path clip-path="url(#clip840)" d="M1470.56 429.611 Q1466.95 429.611 1465.12 433.175 Q1463.32 436.717 1463.32 443.847 Q1463.32 450.953 1465.12 454.518 Q1466.95 458.059 1470.56 458.059 Q1474.2 458.059 1476 454.518 Q1477.83 450.953 1477.83 443.847 Q1477.83 436.717 1476 433.175 Q1474.2 429.611 1470.56 429.611 M1470.56 425.907 Q1476.37 425.907 1479.43 430.513 Q1482.51 435.097 1482.51 443.847 Q1482.51 452.573 1479.43 457.18 Q1476.37 461.763 1470.56 461.763 Q1464.75 461.763 1461.67 457.18 Q1458.62 452.573 1458.62 443.847 Q1458.62 435.097 1461.67 430.513 Q1464.75 425.907 1470.56 425.907 Z" fill="#000000" fill-rule="nonzero" fill-opacity="1" /><path clip-path="url(#clip840)" d="M1712.85 457.157 L1720.49 457.157 L1720.49 430.791 L1712.18 432.458 L1712.18 428.199 L1720.45 426.532 L1725.12 426.532 L1725.12 457.157 L1732.76 457.157 L1732.76 461.092 L1712.85 461.092 L1712.85 457.157 Z" fill="#000000" fill-rule="nonzero" fill-opacity="1" /><path clip-path="url(#clip840)" d="M1969.04 457.157 L1985.36 457.157 L1985.36 461.092 L1963.41 461.092 L1963.41 457.157 Q1966.07 454.402 1970.66 449.772 Q1975.26 445.12 1976.44 443.777 Q1978.69 441.254 1979.57 439.518 Q1980.47 437.759 1980.47 436.069 Q1980.47 433.314 1978.53 431.578 Q1976.61 429.842 1973.5 429.842 Q1971.31 429.842 1968.85 430.606 Q1966.42 431.37 1963.64 432.921 L1963.64 428.199 Q1966.47 427.064 1968.92 426.486 Q1971.38 425.907 1973.41 425.907 Q1978.78 425.907 1981.98 428.592 Q1985.17 431.277 1985.17 435.768 Q1985.17 437.898 1984.36 439.819 Q1983.57 441.717 1981.47 444.31 Q1980.89 444.981 1977.79 448.198 Q1974.69 451.393 1969.04 457.157 Z" fill="#000000" fill-rule="nonzero" fill-opacity="1" /><path clip-path="url(#clip840)" d="M2230.54 442.458 Q2233.9 443.175 2235.78 445.444 Q2237.67 447.712 2237.67 451.046 Q2237.67 456.161 2234.15 458.962 Q2230.64 461.763 2224.16 461.763 Q2221.98 461.763 2219.66 461.323 Q2217.37 460.907 2214.92 460.05 L2214.92 455.536 Q2216.86 456.671 2219.18 457.249 Q2221.49 457.828 2224.02 457.828 Q2228.41 457.828 2230.71 456.092 Q2233.02 454.356 2233.02 451.046 Q2233.02 447.99 2230.87 446.277 Q2228.74 444.541 2224.92 444.541 L2220.89 444.541 L2220.89 440.698 L2225.1 440.698 Q2228.55 440.698 2230.38 439.333 Q2232.21 437.944 2232.21 435.351 Q2232.21 432.689 2230.31 431.277 Q2228.44 429.842 2224.92 429.842 Q2223 429.842 2220.8 430.259 Q2218.6 430.675 2215.96 431.555 L2215.96 427.388 Q2218.62 426.648 2220.94 426.277 Q2223.28 425.907 2225.34 425.907 Q2230.66 425.907 2233.76 428.337 Q2236.86 430.745 2236.86 434.865 Q2236.86 437.736 2235.22 439.726 Q2233.58 441.694 2230.54 442.458 Z" fill="#000000" fill-rule="nonzero" fill-opacity="1" /><polyline clip-path="url(#clip840)" style="stroke:#000000; stroke-linecap:round; stroke-linejoin:round; stroke-width:4; stroke-opacity:1; fill:none" points="1444.87,398.692 1444.87,47.2441 "/>
<polyline clip-path="url(#clip840)" style="stroke:#000000; stroke-linecap:round; stroke-linejoin:round; stroke-width:4; stroke-opacity:1; fill:none" points="1444.87,385.812 1463.76,385.812 "/>
<polyline clip-path="url(#clip840)" style="stroke:#000000; stroke-linecap:round; stroke-linejoin:round; stroke-width:4; stroke-opacity:1; fill:none" points="1444.87,320.703 1463.76,320.703 "/>
<polyline clip-path="url(#clip840)" style="stroke:#000000; stroke-linecap:round; stroke-linejoin:round; stroke-width:4; stroke-opacity:1; fill:none" points="1444.87,255.594 1463.76,255.594 "/>
<polyline clip-path="url(#clip840)" style="stroke:#000000; stroke-linecap:round; stroke-linejoin:round; stroke-width:4; stroke-opacity:1; fill:none" points="1444.87,190.485 1463.76,190.485 "/>
<polyline clip-path="url(#clip840)" style="stroke:#000000; stroke-linecap:round; stroke-linejoin:round; stroke-width:4; stroke-opacity:1; fill:none" points="1444.87,125.376 1463.76,125.376 "/>
<polyline clip-path="url(#clip840)" style="stroke:#000000; stroke-linecap:round; stroke-linejoin:round; stroke-width:4; stroke-opacity:1; fill:none" points="1444.87,60.2676 1463.76,60.2676 "/>
<path clip-path="url(#clip840)" d="M1351.69 371.611 Q1348.08 371.611 1346.25 375.175 Q1344.45 378.717 1344.45 385.847 Q1344.45 392.953 1346.25 396.518 Q1348.08 400.059 1351.69 400.059 Q1355.32 400.059 1357.13 396.518 Q1358.96 392.953 1358.96 385.847 Q1358.96 378.717 1357.13 375.175 Q1355.32 371.611 1351.69 371.611 M1351.69 367.907 Q1357.5 367.907 1360.56 372.513 Q1363.63 377.097 1363.63 385.847 Q1363.63 394.573 1360.56 399.18 Q1357.5 403.763 1351.69 403.763 Q1345.88 403.763 1342.8 399.18 Q1339.75 394.573 1339.75 385.847 Q1339.75 377.097 1342.8 372.513 Q1345.88 367.907 1351.69 367.907 Z" fill="#000000" fill-rule="nonzero" fill-opacity="1" /><path clip-path="url(#clip840)" d="M1371.85 397.212 L1376.74 397.212 L1376.74 403.092 L1371.85 403.092 L1371.85 397.212 Z" fill="#000000" fill-rule="nonzero" fill-opacity="1" /><path clip-path="url(#clip840)" d="M1396.92 371.611 Q1393.31 371.611 1391.48 375.175 Q1389.68 378.717 1389.68 385.847 Q1389.68 392.953 1391.48 396.518 Q1393.31 400.059 1396.92 400.059 Q1400.56 400.059 1402.36 396.518 Q1404.19 392.953 1404.19 385.847 Q1404.19 378.717 1402.36 375.175 Q1400.56 371.611 1396.92 371.611 M1396.92 367.907 Q1402.73 367.907 1405.79 372.513 Q1408.87 377.097 1408.87 385.847 Q1408.87 394.573 1405.79 399.18 Q1402.73 403.763 1396.92 403.763 Q1391.11 403.763 1388.03 399.18 Q1384.98 394.573 1384.98 385.847 Q1384.98 377.097 1388.03 372.513 Q1391.11 367.907 1396.92 367.907 Z" fill="#000000" fill-rule="nonzero" fill-opacity="1" /><path clip-path="url(#clip840)" d="M1352.92 306.502 Q1349.31 306.502 1347.48 310.066 Q1345.67 313.608 1345.67 320.738 Q1345.67 327.844 1347.48 331.409 Q1349.31 334.951 1352.92 334.951 Q1356.55 334.951 1358.36 331.409 Q1360.19 327.844 1360.19 320.738 Q1360.19 313.608 1358.36 310.066 Q1356.55 306.502 1352.92 306.502 M1352.92 302.798 Q1358.73 302.798 1361.78 307.404 Q1364.86 311.988 1364.86 320.738 Q1364.86 329.465 1361.78 334.071 Q1358.73 338.654 1352.92 338.654 Q1347.11 338.654 1344.03 334.071 Q1340.97 329.465 1340.97 320.738 Q1340.97 311.988 1344.03 307.404 Q1347.11 302.798 1352.92 302.798 Z" fill="#000000" fill-rule="nonzero" fill-opacity="1" /><path clip-path="url(#clip840)" d="M1373.08 332.103 L1377.96 332.103 L1377.96 337.983 L1373.08 337.983 L1373.08 332.103 Z" fill="#000000" fill-rule="nonzero" fill-opacity="1" /><path clip-path="url(#clip840)" d="M1388.96 334.048 L1396.6 334.048 L1396.6 307.682 L1388.29 309.349 L1388.29 305.09 L1396.55 303.423 L1401.23 303.423 L1401.23 334.048 L1408.87 334.048 L1408.87 337.983 L1388.96 337.983 L1388.96 334.048 Z" fill="#000000" fill-rule="nonzero" fill-opacity="1" /><path clip-path="url(#clip840)" d="M1353.29 241.393 Q1349.68 241.393 1347.85 244.958 Q1346.04 248.499 1346.04 255.629 Q1346.04 262.735 1347.85 266.3 Q1349.68 269.842 1353.29 269.842 Q1356.92 269.842 1358.73 266.3 Q1360.56 262.735 1360.56 255.629 Q1360.56 248.499 1358.73 244.958 Q1356.92 241.393 1353.29 241.393 M1353.29 237.689 Q1359.1 237.689 1362.15 242.296 Q1365.23 246.879 1365.23 255.629 Q1365.23 264.356 1362.15 268.962 Q1359.1 273.545 1353.29 273.545 Q1347.48 273.545 1344.4 268.962 Q1341.34 264.356 1341.34 255.629 Q1341.34 246.879 1344.4 242.296 Q1347.48 237.689 1353.29 237.689 Z" fill="#000000" fill-rule="nonzero" fill-opacity="1" /><path clip-path="url(#clip840)" d="M1373.45 266.995 L1378.33 266.995 L1378.33 272.874 L1373.45 272.874 L1373.45 266.995 Z" fill="#000000" fill-rule="nonzero" fill-opacity="1" /><path clip-path="url(#clip840)" d="M1392.55 268.939 L1408.87 268.939 L1408.87 272.874 L1386.92 272.874 L1386.92 268.939 Q1389.58 266.184 1394.17 261.555 Q1398.77 256.902 1399.95 255.559 Q1402.2 253.036 1403.08 251.3 Q1403.98 249.541 1403.98 247.851 Q1403.98 245.097 1402.04 243.36 Q1400.12 241.624 1397.01 241.624 Q1394.82 241.624 1392.36 242.388 Q1389.93 243.152 1387.15 244.703 L1387.15 239.981 Q1389.98 238.847 1392.43 238.268 Q1394.88 237.689 1396.92 237.689 Q1402.29 237.689 1405.49 240.374 Q1408.68 243.059 1408.68 247.55 Q1408.68 249.68 1407.87 251.601 Q1407.08 253.499 1404.98 256.092 Q1404.4 256.763 1401.3 259.981 Q1398.19 263.175 1392.55 268.939 Z" fill="#000000" fill-rule="nonzero" fill-opacity="1" /><path clip-path="url(#clip840)" d="M1352.34 176.284 Q1348.73 176.284 1346.9 179.849 Q1345.09 183.39 1345.09 190.52 Q1345.09 197.626 1346.9 201.191 Q1348.73 204.733 1352.34 204.733 Q1355.97 204.733 1357.78 201.191 Q1359.61 197.626 1359.61 190.52 Q1359.61 183.39 1357.78 179.849 Q1355.97 176.284 1352.34 176.284 M1352.34 172.58 Q1358.15 172.58 1361.2 177.187 Q1364.28 181.77 1364.28 190.52 Q1364.28 199.247 1361.2 203.853 Q1358.15 208.437 1352.34 208.437 Q1346.53 208.437 1343.45 203.853 Q1340.39 199.247 1340.39 190.52 Q1340.39 181.77 1343.45 177.187 Q1346.53 172.58 1352.34 172.58 Z" fill="#000000" fill-rule="nonzero" fill-opacity="1" /><path clip-path="url(#clip840)" d="M1372.5 201.886 L1377.38 201.886 L1377.38 207.765 L1372.5 207.765 L1372.5 201.886 Z" fill="#000000" fill-rule="nonzero" fill-opacity="1" /><path clip-path="url(#clip840)" d="M1401.74 189.131 Q1405.09 189.849 1406.97 192.117 Q1408.87 194.386 1408.87 197.719 Q1408.87 202.835 1405.35 205.636 Q1401.83 208.437 1395.35 208.437 Q1393.17 208.437 1390.86 207.997 Q1388.57 207.58 1386.11 206.724 L1386.11 202.21 Q1388.06 203.344 1390.37 203.923 Q1392.69 204.501 1395.21 204.501 Q1399.61 204.501 1401.9 202.765 Q1404.21 201.029 1404.21 197.719 Q1404.21 194.663 1402.06 192.951 Q1399.93 191.214 1396.11 191.214 L1392.08 191.214 L1392.08 187.372 L1396.3 187.372 Q1399.75 187.372 1401.57 186.006 Q1403.4 184.617 1403.4 182.025 Q1403.4 179.363 1401.51 177.951 Q1399.63 176.515 1396.11 176.515 Q1394.19 176.515 1391.99 176.932 Q1389.79 177.349 1387.15 178.228 L1387.15 174.062 Q1389.82 173.321 1392.13 172.951 Q1394.47 172.58 1396.53 172.58 Q1401.85 172.58 1404.95 175.011 Q1408.06 177.418 1408.06 181.539 Q1408.06 184.409 1406.41 186.4 Q1404.77 188.367 1401.74 189.131 Z" fill="#000000" fill-rule="nonzero" fill-opacity="1" /><path clip-path="url(#clip840)" d="M1351.2 111.175 Q1347.59 111.175 1345.76 114.74 Q1343.96 118.282 1343.96 125.411 Q1343.96 132.518 1345.76 136.082 Q1347.59 139.624 1351.2 139.624 Q1354.84 139.624 1356.64 136.082 Q1358.47 132.518 1358.47 125.411 Q1358.47 118.282 1356.64 114.74 Q1354.84 111.175 1351.2 111.175 M1351.2 107.471 Q1357.01 107.471 1360.07 112.078 Q1363.15 116.661 1363.15 125.411 Q1363.15 134.138 1360.07 138.744 Q1357.01 143.328 1351.2 143.328 Q1345.39 143.328 1342.32 138.744 Q1339.26 134.138 1339.26 125.411 Q1339.26 116.661 1342.32 112.078 Q1345.39 107.471 1351.2 107.471 Z" fill="#000000" fill-rule="nonzero" fill-opacity="1" /><path clip-path="url(#clip840)" d="M1371.37 136.777 L1376.25 136.777 L1376.25 142.656 L1371.37 142.656 L1371.37 136.777 Z" fill="#000000" fill-rule="nonzero" fill-opacity="1" /><path clip-path="url(#clip840)" d="M1399.28 112.17 L1387.48 130.619 L1399.28 130.619 L1399.28 112.17 M1398.06 108.096 L1403.94 108.096 L1403.94 130.619 L1408.87 130.619 L1408.87 134.508 L1403.94 134.508 L1403.94 142.656 L1399.28 142.656 L1399.28 134.508 L1383.68 134.508 L1383.68 129.994 L1398.06 108.096 Z" fill="#000000" fill-rule="nonzero" fill-opacity="1" /><path clip-path="url(#clip840)" d="M1352.69 46.0662 Q1349.07 46.0662 1347.25 49.631 Q1345.44 53.1727 1345.44 60.3023 Q1345.44 67.4087 1347.25 70.9735 Q1349.07 74.5152 1352.69 74.5152 Q1356.32 74.5152 1358.13 70.9735 Q1359.95 67.4087 1359.95 60.3023 Q1359.95 53.1727 1358.13 49.631 Q1356.32 46.0662 1352.69 46.0662 M1352.69 42.3626 Q1358.5 42.3626 1361.55 46.969 Q1364.63 51.5523 1364.63 60.3023 Q1364.63 69.0291 1361.55 73.6355 Q1358.5 78.2189 1352.69 78.2189 Q1346.88 78.2189 1343.8 73.6355 Q1340.74 69.0291 1340.74 60.3023 Q1340.74 51.5523 1343.8 46.969 Q1346.88 42.3626 1352.69 42.3626 Z" fill="#000000" fill-rule="nonzero" fill-opacity="1" /><path clip-path="url(#clip840)" d="M1372.85 71.668 L1377.73 71.668 L1377.73 77.5476 L1372.85 77.5476 L1372.85 71.668 Z" fill="#000000" fill-rule="nonzero" fill-opacity="1" /><path clip-path="url(#clip840)" d="M1387.96 42.9876 L1406.32 42.9876 L1406.32 46.9227 L1392.25 46.9227 L1392.25 55.3949 Q1393.26 55.0477 1394.28 54.8856 Q1395.3 54.7005 1396.32 54.7005 Q1402.11 54.7005 1405.49 57.8717 Q1408.87 61.043 1408.87 66.4597 Q1408.87 72.0383 1405.39 75.1402 Q1401.92 78.2189 1395.6 78.2189 Q1393.43 78.2189 1391.16 77.8485 Q1388.91 77.4781 1386.51 76.7374 L1386.51 72.0383 Q1388.59 73.1726 1390.81 73.7281 Q1393.03 74.2837 1395.51 74.2837 Q1399.51 74.2837 1401.85 72.1772 Q1404.19 70.0707 1404.19 66.4597 Q1404.19 62.8486 1401.85 60.7421 Q1399.51 58.6356 1395.51 58.6356 Q1393.63 58.6356 1391.76 59.0523 Q1389.91 59.469 1387.96 60.3486 L1387.96 42.9876 Z" fill="#000000" fill-rule="nonzero" fill-opacity="1" /><path clip-path="url(#clip840)" d="M1264.43 298.084 Q1269.84 298.084 1275.93 299.823 Q1281.99 301.53 1286.88 304.235 Q1291.74 306.941 1294.96 310.483 Q1298.15 314.026 1298.15 317.408 Q1298.15 319.565 1296.96 321.176 Q1295.74 322.754 1293.71 323.623 Q1291.65 324.493 1289.39 324.912 Q1287.11 325.33 1284.63 325.33 Q1280.92 325.33 1276.9 324.525 Q1272.84 323.72 1269.17 322.367 Q1265.46 321.015 1262.11 319.115 Q1258.73 317.214 1256.29 315.121 Q1253.81 312.995 1252.36 310.612 Q1250.91 308.229 1250.91 306.007 Q1250.91 304.396 1251.62 303.108 Q1252.29 301.788 1253.48 300.95 Q1254.64 300.113 1256.03 299.533 Q1257.41 298.921 1259.02 298.632 Q1260.6 298.342 1261.92 298.213 Q1263.21 298.084 1264.43 298.084 M1260.34 302.432 Q1258.7 302.432 1257.48 302.561 Q1256.22 302.69 1254.96 303.044 Q1253.71 303.398 1253.03 304.171 Q1252.36 304.912 1252.36 306.071 Q1252.36 309.453 1259.28 313.253 Q1261.44 314.477 1264.37 315.572 Q1267.3 316.667 1268.68 317.053 Q1270.07 317.44 1273.48 318.342 L1273.48 304.558 Q1264.69 302.432 1260.34 302.432 M1275.58 305.137 L1275.58 318.857 Q1283.63 320.983 1288.65 320.983 Q1293.03 320.983 1294.87 320.081 Q1296.67 319.147 1296.67 317.408 Q1296.67 315.411 1294.67 313.543 Q1292.65 311.675 1288.97 309.775 Q1284.21 307.263 1275.58 305.137 Z" fill="#000000" fill-rule="nonzero" fill-opacity="1" /><path clip-path="url(#clip840)" d="M1247.95 253.776 Q1255.27 258.041 1262.43 260.11 Q1269.59 262.179 1276.95 262.179 Q1284.3 262.179 1291.52 260.11 Q1298.72 258.009 1306.01 253.776 L1306.01 258.869 Q1298.53 263.643 1291.3 266.03 Q1284.08 268.386 1276.95 268.386 Q1269.85 268.386 1262.66 266.03 Q1255.46 263.675 1247.95 258.869 L1247.95 253.776 Z" fill="#000000" fill-rule="nonzero" fill-opacity="1" /><path clip-path="url(#clip840)" d="M1267.24 221.757 Q1266.67 222.743 1266.41 223.921 Q1266.12 225.067 1266.12 226.467 Q1266.12 231.433 1269.37 234.106 Q1272.59 236.748 1278.63 236.748 L1297.41 236.748 L1297.41 242.636 L1261.76 242.636 L1261.76 236.748 L1267.3 236.748 Q1264.06 234.902 1262.5 231.942 Q1260.9 228.982 1260.9 224.749 Q1260.9 224.144 1261 223.412 Q1261.06 222.68 1261.22 221.789 L1267.24 221.757 Z" fill="#000000" fill-rule="nonzero" fill-opacity="1" /><path clip-path="url(#clip840)" d="M1279.49 199.413 Q1279.49 206.511 1281.12 209.248 Q1282.74 211.985 1286.65 211.985 Q1289.77 211.985 1291.62 209.948 Q1293.43 207.879 1293.43 204.347 Q1293.43 199.477 1290 196.549 Q1286.53 193.588 1280.8 193.588 L1279.49 193.588 L1279.49 199.413 M1277.07 187.732 L1297.41 187.732 L1297.41 193.588 L1292 193.588 Q1295.25 195.594 1296.81 198.586 Q1298.34 201.577 1298.34 205.906 Q1298.34 211.381 1295.28 214.627 Q1292.19 217.842 1287.04 217.842 Q1281.02 217.842 1277.96 213.831 Q1274.91 209.789 1274.91 201.8 L1274.91 193.588 L1274.34 193.588 Q1270.29 193.588 1268.1 196.262 Q1265.87 198.904 1265.87 203.71 Q1265.87 206.766 1266.6 209.662 Q1267.33 212.558 1268.8 215.232 L1263.39 215.232 Q1262.15 212.017 1261.54 208.993 Q1260.9 205.97 1260.9 203.105 Q1260.9 195.371 1264.92 191.551 Q1268.93 187.732 1277.07 187.732 Z" fill="#000000" fill-rule="nonzero" fill-opacity="1" /><path clip-path="url(#clip840)" d="M1267.17 152.211 L1247.89 152.211 L1247.89 146.355 L1297.41 146.355 L1297.41 152.211 L1292.06 152.211 Q1295.25 154.057 1296.81 156.89 Q1298.34 159.691 1298.34 163.638 Q1298.34 170.099 1293.18 174.173 Q1288.02 178.215 1279.62 178.215 Q1271.22 178.215 1266.06 174.173 Q1260.9 170.099 1260.9 163.638 Q1260.9 159.691 1262.46 156.89 Q1263.99 154.057 1267.17 152.211 M1279.62 172.168 Q1286.08 172.168 1289.77 169.526 Q1293.43 166.853 1293.43 162.206 Q1293.43 157.559 1289.77 154.885 Q1286.08 152.211 1279.62 152.211 Q1273.16 152.211 1269.5 154.885 Q1265.81 157.559 1265.81 162.206 Q1265.81 166.853 1269.5 169.526 Q1273.16 172.168 1279.62 172.168 Z" fill="#000000" fill-rule="nonzero" fill-opacity="1" /><path clip-path="url(#clip840)" d="M1247.95 135.215 L1247.95 130.122 Q1255.46 125.348 1262.66 122.993 Q1269.85 120.606 1276.95 120.606 Q1284.08 120.606 1291.3 122.993 Q1298.53 125.348 1306.01 130.122 L1306.01 135.215 Q1298.72 130.982 1291.52 128.913 Q1284.3 126.812 1276.95 126.812 Q1269.59 126.812 1262.43 128.913 Q1255.27 130.982 1247.95 135.215 Z" fill="#000000" fill-rule="nonzero" fill-opacity="1" /><polyline clip-path="url(#clip843)" style="stroke:#009af9; stroke-linecap:round; stroke-linejoin:round; stroke-width:4; stroke-opacity:1; fill:none" points="1470.56,385.812 1495.75,357.539 1520.94,293.401 1546.13,219.545 1571.33,153.45 1596.52,103.977 1621.71,73.2432 1646.9,59.1148 1672.09,57.4274 1697.28,63.5685 1722.47,73.4365 1747.66,83.9127 1772.86,92.9899 1798.05,99.6757 1823.24,103.768 1848.43,105.584 1873.62,105.708 1898.81,104.783 1924,103.381 1949.19,101.931 1974.38,100.7 1999.58,99.8143 2024.77,99.289 2049.96,99.0727 2075.15,99.0809 2100.34,99.2239 2125.53,99.4242 2150.72,99.6249 2175.91,99.7915 2201.11,99.9089 2226.3,99.9762 2251.49,100.002 2276.68,99.9974 2301.87,99.9758 2327.06,99.9473 "/>
<polyline clip-path="url(#clip843)" style="stroke:#e26f46; stroke-linecap:round; stroke-linejoin:round; stroke-width:3; stroke-opacity:1; fill:none" stroke-dasharray="12, 6, 2, 6" points="1470.56,388.745 1495.75,351.204 1520.94,287.83 1546.13,213.881 1571.33,146.534 1596.52,96.0222 1621.71,65.4036 1646.9,58.1694 1672.09,57.1907 1697.28,68.8923 1722.47,84.7585 1747.66,89.2868 1772.86,95.3716 1798.05,91.4194 1823.24,99.7586 1848.43,106.467 1873.62,103.931 1898.81,97.9281 1924,102.175 1949.19,105.104 1974.38,106.545 1999.58,91.7298 2024.77,102.536 2049.96,109.017 2075.15,97.8418 2100.34,92.3459 2125.53,101.329 2150.72,94.1866 2175.91,97.4823 2201.11,99.3004 2226.3,88.2164 2251.49,97.3442 2276.68,102.952 2301.87,100.589 2327.06,102.039 "/>
<path clip-path="url(#clip840)" d="M2202.87 386.977 L2322.49 386.977 L2322.49 231.457 L2202.87 231.457  Z" fill="#ffffff" fill-rule="evenodd" fill-opacity="1"/>
<polyline clip-path="url(#clip840)" style="stroke:#000000; stroke-linecap:round; stroke-linejoin:round; stroke-width:4; stroke-opacity:1; fill:none" points="2202.87,386.977 2322.49,386.977 2322.49,231.457 2202.87,231.457 2202.87,386.977 "/>
<polyline clip-path="url(#clip840)" style="stroke:#009af9; stroke-linecap:round; stroke-linejoin:round; stroke-width:4; stroke-opacity:1; fill:none" points="2212.96,283.297 2273.49,283.297 "/>
<path clip-path="url(#clip840)" d="M2310.58 293.836 L2305.31 293.695 L2299.55 293.836 L2299.55 291.587 L2301.42 291.587 L2296.15 285.357 L2291.49 290.58 L2291.16 291.049 Q2291.16 291.26 2291.7 291.423 Q2292.27 291.587 2292.92 291.587 L2292.92 293.836 L2287.98 293.695 L2283.58 293.836 L2283.58 291.587 Q2285.05 291.587 2285.73 291.564 Q2286.43 291.517 2287.23 291.306 Q2288.03 291.096 2288.42 290.674 L2294.7 283.624 L2287.23 274.794 L2283.81 274.794 L2283.81 272.545 L2289.1 272.686 L2294.89 272.545 L2294.89 274.794 L2292.97 274.794 L2297.68 280.298 L2301.7 275.801 Q2301.73 275.777 2302.1 275.215 Q2301.35 274.794 2300.28 274.794 L2300.28 272.545 L2305.22 272.686 L2309.62 272.545 L2309.62 274.794 Q2307.7 274.794 2306.69 274.934 Q2305.71 275.051 2305.41 275.215 Q2305.12 275.379 2304.73 275.801 L2299.13 282.031 L2307.19 291.587 L2310.58 291.587 L2310.58 293.836 Z" fill="#000000" fill-rule="nonzero" fill-opacity="1" /><polyline clip-path="url(#clip840)" style="stroke:#e26f46; stroke-linecap:round; stroke-linejoin:round; stroke-width:3; stroke-opacity:1; fill:none" stroke-dasharray="12, 6, 2, 6" points="2212.96,335.137 2273.49,335.137 "/>
<path clip-path="url(#clip840)" d="M2306.16 323.615 L2305.75 324.287 Q2303.21 323.189 2300.05 321.434 Q2296.88 323.189 2294.34 324.287 L2293.95 323.615 Q2296.72 321.205 2300.05 319.352 Q2303.41 321.221 2306.16 323.615 Z" fill="#000000" fill-rule="nonzero" fill-opacity="1" /><path clip-path="url(#clip840)" d="M2310.58 350.681 L2305.31 350.54 L2299.55 350.681 L2299.55 348.432 L2301.42 348.432 L2296.15 342.202 L2291.49 347.425 L2291.16 347.893 Q2291.16 348.104 2291.7 348.268 Q2292.27 348.432 2292.92 348.432 L2292.92 350.681 L2287.98 350.54 L2283.58 350.681 L2283.58 348.432 Q2285.05 348.432 2285.73 348.409 Q2286.43 348.362 2287.23 348.151 Q2288.03 347.94 2288.42 347.519 L2294.7 340.468 L2287.23 331.638 L2283.81 331.638 L2283.81 329.39 L2289.1 329.53 L2294.89 329.39 L2294.89 331.638 L2292.97 331.638 L2297.68 337.142 L2301.7 332.645 Q2301.73 332.622 2302.1 332.06 Q2301.35 331.638 2300.28 331.638 L2300.28 329.39 L2305.22 329.53 L2309.62 329.39 L2309.62 331.638 Q2307.7 331.638 2306.69 331.779 Q2305.71 331.896 2305.41 332.06 Q2305.12 332.224 2304.73 332.645 L2299.13 338.876 L2307.19 348.432 L2310.58 348.432 L2310.58 350.681 Z" fill="#000000" fill-rule="nonzero" fill-opacity="1" /><path clip-path="url(#clip840)" d="M1444.87 910.936 L2352.76 910.936 L2352.76 559.488 L1444.87 559.488  Z" fill="#ffffff" fill-rule="evenodd" fill-opacity="1"/>
<defs>
  <clipPath id="clip844">
    <rect x="1444" y="559" width="909" height="352"/>
  </clipPath>
</defs>
<polyline clip-path="url(#clip844)" style="stroke:#000000; stroke-linecap:round; stroke-linejoin:round; stroke-width:2; stroke-opacity:0.1; fill:none" points="1470.56,910.936 1470.56,559.488 "/>
<polyline clip-path="url(#clip844)" style="stroke:#000000; stroke-linecap:round; stroke-linejoin:round; stroke-width:2; stroke-opacity:0.1; fill:none" points="1722.47,910.936 1722.47,559.488 "/>
<polyline clip-path="url(#clip844)" style="stroke:#000000; stroke-linecap:round; stroke-linejoin:round; stroke-width:2; stroke-opacity:0.1; fill:none" points="1974.38,910.936 1974.38,559.488 "/>
<polyline clip-path="url(#clip844)" style="stroke:#000000; stroke-linecap:round; stroke-linejoin:round; stroke-width:2; stroke-opacity:0.1; fill:none" points="2226.3,910.936 2226.3,559.488 "/>
<polyline clip-path="url(#clip844)" style="stroke:#000000; stroke-linecap:round; stroke-linejoin:round; stroke-width:2; stroke-opacity:0.1; fill:none" points="1444.87,842.128 2352.76,842.128 "/>
<polyline clip-path="url(#clip844)" style="stroke:#000000; stroke-linecap:round; stroke-linejoin:round; stroke-width:2; stroke-opacity:0.1; fill:none" points="1444.87,773.075 2352.76,773.075 "/>
<polyline clip-path="url(#clip844)" style="stroke:#000000; stroke-linecap:round; stroke-linejoin:round; stroke-width:2; stroke-opacity:0.1; fill:none" points="1444.87,704.021 2352.76,704.021 "/>
<polyline clip-path="url(#clip844)" style="stroke:#000000; stroke-linecap:round; stroke-linejoin:round; stroke-width:2; stroke-opacity:0.1; fill:none" points="1444.87,634.967 2352.76,634.967 "/>
<polyline clip-path="url(#clip844)" style="stroke:#000000; stroke-linecap:round; stroke-linejoin:round; stroke-width:2; stroke-opacity:0.1; fill:none" points="1444.87,565.914 2352.76,565.914 "/>
<polyline clip-path="url(#clip840)" style="stroke:#000000; stroke-linecap:round; stroke-linejoin:round; stroke-width:4; stroke-opacity:1; fill:none" points="1444.87,910.936 2352.76,910.936 "/>
<polyline clip-path="url(#clip840)" style="stroke:#000000; stroke-linecap:round; stroke-linejoin:round; stroke-width:4; stroke-opacity:1; fill:none" points="1470.56,910.936 1470.56,892.038 "/>
<polyline clip-path="url(#clip840)" style="stroke:#000000; stroke-linecap:round; stroke-linejoin:round; stroke-width:4; stroke-opacity:1; fill:none" points="1722.47,910.936 1722.47,892.038 "/>
<polyline clip-path="url(#clip840)" style="stroke:#000000; stroke-linecap:round; stroke-linejoin:round; stroke-width:4; stroke-opacity:1; fill:none" points="1974.38,910.936 1974.38,892.038 "/>
<polyline clip-path="url(#clip840)" style="stroke:#000000; stroke-linecap:round; stroke-linejoin:round; stroke-width:4; stroke-opacity:1; fill:none" points="2226.3,910.936 2226.3,892.038 "/>
<path clip-path="url(#clip840)" d="M1470.56 941.855 Q1466.95 941.855 1465.12 945.419 Q1463.32 948.961 1463.32 956.091 Q1463.32 963.197 1465.12 966.762 Q1466.95 970.303 1470.56 970.303 Q1474.2 970.303 1476 966.762 Q1477.83 963.197 1477.83 956.091 Q1477.83 948.961 1476 945.419 Q1474.2 941.855 1470.56 941.855 M1470.56 938.151 Q1476.37 938.151 1479.43 942.757 Q1482.51 947.341 1482.51 956.091 Q1482.51 964.817 1479.43 969.424 Q1476.37 974.007 1470.56 974.007 Q1464.75 974.007 1461.67 969.424 Q1458.62 964.817 1458.62 956.091 Q1458.62 947.341 1461.67 942.757 Q1464.75 938.151 1470.56 938.151 Z" fill="#000000" fill-rule="nonzero" fill-opacity="1" /><path clip-path="url(#clip840)" d="M1712.85 969.401 L1720.49 969.401 L1720.49 943.035 L1712.18 944.702 L1712.18 940.443 L1720.45 938.776 L1725.12 938.776 L1725.12 969.401 L1732.76 969.401 L1732.76 973.336 L1712.85 973.336 L1712.85 969.401 Z" fill="#000000" fill-rule="nonzero" fill-opacity="1" /><path clip-path="url(#clip840)" d="M1969.04 969.401 L1985.36 969.401 L1985.36 973.336 L1963.41 973.336 L1963.41 969.401 Q1966.07 966.646 1970.66 962.016 Q1975.26 957.364 1976.44 956.021 Q1978.69 953.498 1979.57 951.762 Q1980.47 950.003 1980.47 948.313 Q1980.47 945.558 1978.53 943.822 Q1976.61 942.086 1973.5 942.086 Q1971.31 942.086 1968.85 942.85 Q1966.42 943.614 1963.64 945.165 L1963.64 940.443 Q1966.47 939.308 1968.92 938.73 Q1971.38 938.151 1973.41 938.151 Q1978.78 938.151 1981.98 940.836 Q1985.17 943.521 1985.17 948.012 Q1985.17 950.142 1984.36 952.063 Q1983.57 953.961 1981.47 956.554 Q1980.89 957.225 1977.79 960.442 Q1974.69 963.637 1969.04 969.401 Z" fill="#000000" fill-rule="nonzero" fill-opacity="1" /><path clip-path="url(#clip840)" d="M2230.54 954.702 Q2233.9 955.419 2235.78 957.688 Q2237.67 959.956 2237.67 963.29 Q2237.67 968.405 2234.15 971.206 Q2230.64 974.007 2224.16 974.007 Q2221.98 974.007 2219.66 973.567 Q2217.37 973.151 2214.92 972.294 L2214.92 967.78 Q2216.86 968.915 2219.18 969.493 Q2221.49 970.072 2224.02 970.072 Q2228.41 970.072 2230.71 968.336 Q2233.02 966.6 2233.02 963.29 Q2233.02 960.234 2230.87 958.521 Q2228.74 956.785 2224.92 956.785 L2220.89 956.785 L2220.89 952.942 L2225.1 952.942 Q2228.55 952.942 2230.38 951.577 Q2232.21 950.188 2232.21 947.595 Q2232.21 944.933 2230.31 943.521 Q2228.44 942.086 2224.92 942.086 Q2223 942.086 2220.8 942.503 Q2218.6 942.919 2215.96 943.799 L2215.96 939.632 Q2218.62 938.892 2220.94 938.521 Q2223.28 938.151 2225.34 938.151 Q2230.66 938.151 2233.76 940.581 Q2236.86 942.989 2236.86 947.109 Q2236.86 949.979 2235.22 951.97 Q2233.58 953.938 2230.54 954.702 Z" fill="#000000" fill-rule="nonzero" fill-opacity="1" /><polyline clip-path="url(#clip840)" style="stroke:#000000; stroke-linecap:round; stroke-linejoin:round; stroke-width:4; stroke-opacity:1; fill:none" points="1444.87,910.936 1444.87,559.488 "/>
<polyline clip-path="url(#clip840)" style="stroke:#000000; stroke-linecap:round; stroke-linejoin:round; stroke-width:4; stroke-opacity:1; fill:none" points="1444.87,842.128 1463.76,842.128 "/>
<polyline clip-path="url(#clip840)" style="stroke:#000000; stroke-linecap:round; stroke-linejoin:round; stroke-width:4; stroke-opacity:1; fill:none" points="1444.87,773.075 1463.76,773.075 "/>
<polyline clip-path="url(#clip840)" style="stroke:#000000; stroke-linecap:round; stroke-linejoin:round; stroke-width:4; stroke-opacity:1; fill:none" points="1444.87,704.021 1463.76,704.021 "/>
<polyline clip-path="url(#clip840)" style="stroke:#000000; stroke-linecap:round; stroke-linejoin:round; stroke-width:4; stroke-opacity:1; fill:none" points="1444.87,634.967 1463.76,634.967 "/>
<polyline clip-path="url(#clip840)" style="stroke:#000000; stroke-linecap:round; stroke-linejoin:round; stroke-width:4; stroke-opacity:1; fill:none" points="1444.87,565.914 1463.76,565.914 "/>
<path clip-path="url(#clip840)" d="M1351.69 827.927 Q1348.08 827.927 1346.25 831.492 Q1344.45 835.033 1344.45 842.163 Q1344.45 849.269 1346.25 852.834 Q1348.08 856.376 1351.69 856.376 Q1355.32 856.376 1357.13 852.834 Q1358.96 849.269 1358.96 842.163 Q1358.96 835.033 1357.13 831.492 Q1355.32 827.927 1351.69 827.927 M1351.69 824.223 Q1357.5 824.223 1360.56 828.83 Q1363.63 833.413 1363.63 842.163 Q1363.63 850.89 1360.56 855.496 Q1357.5 860.08 1351.69 860.08 Q1345.88 860.08 1342.8 855.496 Q1339.75 850.89 1339.75 842.163 Q1339.75 833.413 1342.8 828.83 Q1345.88 824.223 1351.69 824.223 Z" fill="#000000" fill-rule="nonzero" fill-opacity="1" /><path clip-path="url(#clip840)" d="M1371.85 853.529 L1376.74 853.529 L1376.74 859.408 L1371.85 859.408 L1371.85 853.529 Z" fill="#000000" fill-rule="nonzero" fill-opacity="1" /><path clip-path="url(#clip840)" d="M1396.92 827.927 Q1393.31 827.927 1391.48 831.492 Q1389.68 835.033 1389.68 842.163 Q1389.68 849.269 1391.48 852.834 Q1393.31 856.376 1396.92 856.376 Q1400.56 856.376 1402.36 852.834 Q1404.19 849.269 1404.19 842.163 Q1404.19 835.033 1402.36 831.492 Q1400.56 827.927 1396.92 827.927 M1396.92 824.223 Q1402.73 824.223 1405.79 828.83 Q1408.87 833.413 1408.87 842.163 Q1408.87 850.89 1405.79 855.496 Q1402.73 860.08 1396.92 860.08 Q1391.11 860.08 1388.03 855.496 Q1384.98 850.89 1384.98 842.163 Q1384.98 833.413 1388.03 828.83 Q1391.11 824.223 1396.92 824.223 Z" fill="#000000" fill-rule="nonzero" fill-opacity="1" /><path clip-path="url(#clip840)" d="M1352.34 758.873 Q1348.73 758.873 1346.9 762.438 Q1345.09 765.98 1345.09 773.109 Q1345.09 780.216 1346.9 783.781 Q1348.73 787.322 1352.34 787.322 Q1355.97 787.322 1357.78 783.781 Q1359.61 780.216 1359.61 773.109 Q1359.61 765.98 1357.78 762.438 Q1355.97 758.873 1352.34 758.873 M1352.34 755.17 Q1358.15 755.17 1361.2 759.776 Q1364.28 764.359 1364.28 773.109 Q1364.28 781.836 1361.2 786.443 Q1358.15 791.026 1352.34 791.026 Q1346.53 791.026 1343.45 786.443 Q1340.39 781.836 1340.39 773.109 Q1340.39 764.359 1343.45 759.776 Q1346.53 755.17 1352.34 755.17 Z" fill="#000000" fill-rule="nonzero" fill-opacity="1" /><path clip-path="url(#clip840)" d="M1372.5 784.475 L1377.38 784.475 L1377.38 790.355 L1372.5 790.355 L1372.5 784.475 Z" fill="#000000" fill-rule="nonzero" fill-opacity="1" /><path clip-path="url(#clip840)" d="M1401.74 771.72 Q1405.09 772.438 1406.97 774.707 Q1408.87 776.975 1408.87 780.308 Q1408.87 785.424 1405.35 788.225 Q1401.83 791.026 1395.35 791.026 Q1393.17 791.026 1390.86 790.586 Q1388.57 790.169 1386.11 789.313 L1386.11 784.799 Q1388.06 785.933 1390.37 786.512 Q1392.69 787.091 1395.21 787.091 Q1399.61 787.091 1401.9 785.355 Q1404.21 783.619 1404.21 780.308 Q1404.21 777.253 1402.06 775.54 Q1399.93 773.804 1396.11 773.804 L1392.08 773.804 L1392.08 769.961 L1396.3 769.961 Q1399.75 769.961 1401.57 768.595 Q1403.4 767.207 1403.4 764.614 Q1403.4 761.952 1401.51 760.54 Q1399.63 759.105 1396.11 759.105 Q1394.19 759.105 1391.99 759.521 Q1389.79 759.938 1387.15 760.818 L1387.15 756.651 Q1389.82 755.91 1392.13 755.54 Q1394.47 755.17 1396.53 755.17 Q1401.85 755.17 1404.95 757.6 Q1408.06 760.008 1408.06 764.128 Q1408.06 766.998 1406.41 768.989 Q1404.77 770.957 1401.74 771.72 Z" fill="#000000" fill-rule="nonzero" fill-opacity="1" /><path clip-path="url(#clip840)" d="M1351.53 689.82 Q1347.92 689.82 1346.09 693.384 Q1344.28 696.926 1344.28 704.056 Q1344.28 711.162 1346.09 714.727 Q1347.92 718.269 1351.53 718.269 Q1355.16 718.269 1356.97 714.727 Q1358.8 711.162 1358.8 704.056 Q1358.8 696.926 1356.97 693.384 Q1355.16 689.82 1351.53 689.82 M1351.53 686.116 Q1357.34 686.116 1360.39 690.722 Q1363.47 695.306 1363.47 704.056 Q1363.47 712.782 1360.39 717.389 Q1357.34 721.972 1351.53 721.972 Q1345.72 721.972 1342.64 717.389 Q1339.58 712.782 1339.58 704.056 Q1339.58 695.306 1342.64 690.722 Q1345.72 686.116 1351.53 686.116 Z" fill="#000000" fill-rule="nonzero" fill-opacity="1" /><path clip-path="url(#clip840)" d="M1371.69 715.421 L1376.57 715.421 L1376.57 721.301 L1371.69 721.301 L1371.69 715.421 Z" fill="#000000" fill-rule="nonzero" fill-opacity="1" /><path clip-path="url(#clip840)" d="M1397.34 702.158 Q1394.19 702.158 1392.34 704.31 Q1390.51 706.463 1390.51 710.213 Q1390.51 713.94 1392.34 716.116 Q1394.19 718.269 1397.34 718.269 Q1400.49 718.269 1402.32 716.116 Q1404.17 713.94 1404.17 710.213 Q1404.17 706.463 1402.32 704.31 Q1400.49 702.158 1397.34 702.158 M1406.62 687.505 L1406.62 691.764 Q1404.86 690.931 1403.06 690.491 Q1401.27 690.051 1399.51 690.051 Q1394.88 690.051 1392.43 693.176 Q1390 696.301 1389.65 702.621 Q1391.02 700.607 1393.08 699.542 Q1395.14 698.454 1397.62 698.454 Q1402.82 698.454 1405.83 701.625 Q1408.87 704.773 1408.87 710.213 Q1408.87 715.537 1405.72 718.755 Q1402.57 721.972 1397.34 721.972 Q1391.34 721.972 1388.17 717.389 Q1385 712.782 1385 704.056 Q1385 695.861 1388.89 691 Q1392.78 686.116 1399.33 686.116 Q1401.09 686.116 1402.87 686.463 Q1404.68 686.81 1406.62 687.505 Z" fill="#000000" fill-rule="nonzero" fill-opacity="1" /><path clip-path="url(#clip840)" d="M1351.88 620.766 Q1348.26 620.766 1346.44 624.331 Q1344.63 627.872 1344.63 635.002 Q1344.63 642.108 1346.44 645.673 Q1348.26 649.215 1351.88 649.215 Q1355.51 649.215 1357.32 645.673 Q1359.14 642.108 1359.14 635.002 Q1359.14 627.872 1357.32 624.331 Q1355.51 620.766 1351.88 620.766 M1351.88 617.062 Q1357.69 617.062 1360.74 621.669 Q1363.82 626.252 1363.82 635.002 Q1363.82 643.729 1360.74 648.335 Q1357.69 652.919 1351.88 652.919 Q1346.07 652.919 1342.99 648.335 Q1339.93 643.729 1339.93 635.002 Q1339.93 626.252 1342.99 621.669 Q1346.07 617.062 1351.88 617.062 Z" fill="#000000" fill-rule="nonzero" fill-opacity="1" /><path clip-path="url(#clip840)" d="M1372.04 646.368 L1376.92 646.368 L1376.92 652.247 L1372.04 652.247 L1372.04 646.368 Z" fill="#000000" fill-rule="nonzero" fill-opacity="1" /><path clip-path="url(#clip840)" d="M1387.25 651.53 L1387.25 647.27 Q1389.01 648.104 1390.81 648.544 Q1392.62 648.983 1394.35 648.983 Q1398.98 648.983 1401.41 645.882 Q1403.87 642.757 1404.21 636.414 Q1402.87 638.405 1400.81 639.47 Q1398.75 640.534 1396.25 640.534 Q1391.07 640.534 1388.03 637.409 Q1385.02 634.261 1385.02 628.822 Q1385.02 623.497 1388.17 620.28 Q1391.32 617.062 1396.55 617.062 Q1402.55 617.062 1405.69 621.669 Q1408.87 626.252 1408.87 635.002 Q1408.87 643.173 1404.98 648.058 Q1401.11 652.919 1394.56 652.919 Q1392.8 652.919 1391 652.571 Q1389.19 652.224 1387.25 651.53 M1396.55 636.877 Q1399.7 636.877 1401.53 634.724 Q1403.38 632.571 1403.38 628.822 Q1403.38 625.095 1401.53 622.942 Q1399.7 620.766 1396.55 620.766 Q1393.4 620.766 1391.55 622.942 Q1389.72 625.095 1389.72 628.822 Q1389.72 632.571 1391.55 634.724 Q1393.4 636.877 1396.55 636.877 Z" fill="#000000" fill-rule="nonzero" fill-opacity="1" /><path clip-path="url(#clip840)" d="M1344.1 579.259 L1351.74 579.259 L1351.74 552.893 L1343.43 554.56 L1343.43 550.3 L1351.69 548.634 L1356.37 548.634 L1356.37 579.259 L1364.01 579.259 L1364.01 583.194 L1344.1 583.194 L1344.1 579.259 Z" fill="#000000" fill-rule="nonzero" fill-opacity="1" /><path clip-path="url(#clip840)" d="M1373.45 577.314 L1378.33 577.314 L1378.33 583.194 L1373.45 583.194 L1373.45 577.314 Z" fill="#000000" fill-rule="nonzero" fill-opacity="1" /><path clip-path="url(#clip840)" d="M1392.55 579.259 L1408.87 579.259 L1408.87 583.194 L1386.92 583.194 L1386.92 579.259 Q1389.58 576.504 1394.17 571.874 Q1398.77 567.222 1399.95 565.879 Q1402.2 563.356 1403.08 561.62 Q1403.98 559.86 1403.98 558.171 Q1403.98 555.416 1402.04 553.68 Q1400.12 551.944 1397.01 551.944 Q1394.82 551.944 1392.36 552.708 Q1389.93 553.472 1387.15 555.023 L1387.15 550.3 Q1389.98 549.166 1392.43 548.587 Q1394.88 548.009 1396.92 548.009 Q1402.29 548.009 1405.49 550.694 Q1408.68 553.379 1408.68 557.87 Q1408.68 559.999 1407.87 561.921 Q1407.08 563.819 1404.98 566.411 Q1404.4 567.083 1401.3 570.3 Q1398.19 573.495 1392.55 579.259 Z" fill="#000000" fill-rule="nonzero" fill-opacity="1" /><path clip-path="url(#clip840)" d="M1264.6 831.559 Q1267.6 831.559 1273.39 833.072 Q1275.91 833.684 1278.19 834.522 Q1280.45 835.327 1282.64 836.518 Q1284.83 837.71 1286.4 839.095 Q1287.95 840.48 1288.92 842.283 Q1289.88 844.087 1289.88 846.084 Q1289.88 849.24 1288.02 851.108 Q1286.12 852.943 1282.86 853.523 Q1289.88 857.839 1289.88 863.604 Q1289.88 867.178 1287.34 868.853 Q1284.76 870.528 1280.45 870.528 Q1276.81 870.528 1273.04 869.562 Q1265.89 867.726 1260.9 864.151 Q1260.32 863.668 1260.32 862.959 Q1260.32 862.541 1260.45 862.347 Q1260.8 861.768 1261.38 861.768 Q1261.8 861.768 1262.22 862.09 Q1265.34 864.344 1268.02 865.826 Q1270.69 867.307 1273.39 867.984 Q1275.71 868.499 1277.68 868.499 Q1280.99 868.499 1283.06 867.082 Q1285.12 865.632 1285.12 862.766 Q1285.12 860.125 1283.47 857.806 Q1281.8 855.488 1279 853.781 Q1275.94 853.684 1273.04 852.943 Q1269.95 852.267 1269.95 850.689 Q1269.95 849.433 1271.65 849.433 Q1272.23 849.433 1273.39 849.691 Q1276.45 850.399 1279.19 851.687 Q1281.86 851.236 1283.51 849.562 Q1285.12 847.887 1285.12 845.214 Q1285.12 842.734 1283.31 840.544 Q1281.51 838.322 1278.87 836.905 Q1276.2 835.456 1273.04 834.65 Q1271.98 834.393 1270.62 834.393 Q1267.02 834.393 1264.79 836.905 Q1264.09 837.613 1263.15 837.613 Q1262.06 837.613 1261.06 836.712 Q1260 835.649 1260 834.393 Q1260 833.459 1260.58 832.879 Q1261.74 831.559 1264.6 831.559 Z" fill="#000000" fill-rule="nonzero" fill-opacity="1" /><path clip-path="url(#clip840)" d="M1239.68 788.989 Q1247 793.255 1254.16 795.323 Q1261.32 797.392 1268.68 797.392 Q1276.03 797.392 1283.25 795.323 Q1290.45 793.223 1297.74 788.989 L1297.74 794.082 Q1290.26 798.856 1283.03 801.243 Q1275.81 803.599 1268.68 803.599 Q1261.58 803.599 1254.39 801.243 Q1247.19 798.888 1239.68 794.082 L1239.68 788.989 Z" fill="#000000" fill-rule="nonzero" fill-opacity="1" /><path clip-path="url(#clip840)" d="M1258.97 756.97 Q1258.4 757.957 1258.14 759.134 Q1257.85 760.28 1257.85 761.681 Q1257.85 766.646 1261.1 769.319 Q1264.32 771.961 1270.36 771.961 L1289.14 771.961 L1289.14 777.85 L1253.49 777.85 L1253.49 771.961 L1259.03 771.961 Q1255.79 770.115 1254.23 767.155 Q1252.64 764.195 1252.64 759.962 Q1252.64 759.357 1252.73 758.625 Q1252.79 757.893 1252.95 757.002 L1258.97 756.97 Z" fill="#000000" fill-rule="nonzero" fill-opacity="1" /><path clip-path="url(#clip840)" d="M1271.22 734.626 Q1271.22 741.724 1272.85 744.461 Q1274.47 747.199 1278.38 747.199 Q1281.5 747.199 1283.35 745.162 Q1285.16 743.093 1285.16 739.56 Q1285.16 734.69 1281.73 731.762 Q1278.26 728.802 1272.53 728.802 L1271.22 728.802 L1271.22 734.626 M1268.8 722.945 L1289.14 722.945 L1289.14 728.802 L1283.73 728.802 Q1286.98 730.807 1288.54 733.799 Q1290.07 736.791 1290.07 741.119 Q1290.07 746.594 1287.01 749.84 Q1283.92 753.055 1278.77 753.055 Q1272.75 753.055 1269.7 749.045 Q1266.64 745.002 1266.64 737.013 L1266.64 728.802 L1266.07 728.802 Q1262.02 728.802 1259.83 731.475 Q1257.6 734.117 1257.6 738.923 Q1257.6 741.979 1258.33 744.875 Q1259.06 747.772 1260.53 750.445 L1255.12 750.445 Q1253.88 747.23 1253.27 744.207 Q1252.64 741.183 1252.64 738.318 Q1252.64 730.584 1256.65 726.765 Q1260.66 722.945 1268.8 722.945 Z" fill="#000000" fill-rule="nonzero" fill-opacity="1" /><path clip-path="url(#clip840)" d="M1258.91 687.425 L1239.62 687.425 L1239.62 681.568 L1289.14 681.568 L1289.14 687.425 L1283.8 687.425 Q1286.98 689.271 1288.54 692.103 Q1290.07 694.904 1290.07 698.851 Q1290.07 705.312 1284.91 709.386 Q1279.75 713.429 1271.35 713.429 Q1262.95 713.429 1257.79 709.386 Q1252.64 705.312 1252.64 698.851 Q1252.64 694.904 1254.19 692.103 Q1255.72 689.271 1258.91 687.425 M1271.35 707.381 Q1277.81 707.381 1281.5 704.739 Q1285.16 702.066 1285.16 697.419 Q1285.16 692.772 1281.5 690.098 Q1277.81 687.425 1271.35 687.425 Q1264.89 687.425 1261.23 690.098 Q1257.54 692.772 1257.54 697.419 Q1257.54 702.066 1261.23 704.739 Q1264.89 707.381 1271.35 707.381 Z" fill="#000000" fill-rule="nonzero" fill-opacity="1" /><path clip-path="url(#clip840)" d="M1241.62 659.097 L1241.62 653.686 L1295.19 670.237 L1295.19 675.648 L1241.62 659.097 Z" fill="#000000" fill-rule="nonzero" fill-opacity="1" /><path clip-path="url(#clip840)" d="M1254.54 624.818 L1260.08 624.818 Q1258.81 627.301 1258.17 629.974 Q1257.54 632.648 1257.54 635.512 Q1257.54 639.873 1258.87 642.069 Q1260.21 644.233 1262.88 644.233 Q1264.92 644.233 1266.1 642.674 Q1267.24 641.114 1268.29 636.404 L1268.74 634.398 Q1270.08 628.16 1272.53 625.55 Q1274.95 622.908 1279.31 622.908 Q1284.27 622.908 1287.17 626.855 Q1290.07 630.77 1290.07 637.645 Q1290.07 640.509 1289.49 643.629 Q1288.95 646.716 1287.84 650.153 L1281.79 650.153 Q1283.48 646.907 1284.34 643.756 Q1285.16 640.605 1285.16 637.517 Q1285.16 633.38 1283.76 631.152 Q1282.33 628.924 1279.75 628.924 Q1277.37 628.924 1276.09 630.547 Q1274.82 632.138 1273.64 637.581 L1273.16 639.618 Q1272.02 645.061 1269.66 647.48 Q1267.28 649.899 1263.14 649.899 Q1258.11 649.899 1255.37 646.334 Q1252.64 642.769 1252.64 636.213 Q1252.64 632.966 1253.11 630.101 Q1253.59 627.237 1254.54 624.818 Z" fill="#000000" fill-rule="nonzero" fill-opacity="1" /><path clip-path="url(#clip840)" d="M1239.68 614.505 L1239.68 609.413 Q1247.19 604.639 1254.39 602.283 Q1261.58 599.896 1268.68 599.896 Q1275.81 599.896 1283.03 602.283 Q1290.26 604.639 1297.74 609.413 L1297.74 614.505 Q1290.45 610.272 1283.25 608.203 Q1276.03 606.103 1268.68 606.103 Q1261.32 606.103 1254.16 608.203 Q1247 610.272 1239.68 614.505 Z" fill="#000000" fill-rule="nonzero" fill-opacity="1" /><polyline clip-path="url(#clip844)" style="stroke:#009af9; stroke-linecap:round; stroke-linejoin:round; stroke-width:4; stroke-opacity:1; fill:none" points="1470.56,842.128 1495.75,660.901 1520.94,585.107 1546.13,587.116 1571.33,634.942 1596.52,700.712 1621.71,764.97 1646.9,816.951 1672.09,852.68 1697.28,872.604 1722.47,879.605 1747.66,877.553 1772.86,870.306 1798.05,861.105 1823.24,852.271 1848.43,845.169 1873.62,840.337 1898.81,837.714 1924,836.881 1949.19,837.278 1974.38,838.351 1999.58,839.65 2024.77,840.862 2049.96,841.815 2075.15,842.447 2100.34,842.776 2125.53,842.864 2150.72,842.792 2175.91,842.634 2201.11,842.452 2226.3,842.286 2251.49,842.158 2276.68,842.075 2301.87,842.034 2327.06,842.026 "/>
<polyline clip-path="url(#clip844)" style="stroke:#e26f46; stroke-linecap:round; stroke-linejoin:round; stroke-width:3; stroke-opacity:1; fill:none" stroke-dasharray="12, 6, 2, 6" points="1470.56,842.128 1495.75,633.956 1520.94,569.435 1546.13,573.974 1571.33,624.291 1596.52,696.206 1621.71,768.735 1646.9,836.021 1672.09,868.607 1697.28,893.721 1722.47,900.989 1747.66,880.614 1772.86,870.782 1798.05,850.627 1823.24,858.86 1848.43,856.805 1873.62,841.857 1898.81,832.541 1924,844.104 1949.19,845.705 1974.38,843.596 1999.58,821.827 2024.77,850.844 2049.96,853.171 2075.15,829.509 2100.34,831.189 2125.53,852.065 2150.72,836.641 2175.91,845.993 2201.11,846.545 2226.3,829.605 2251.49,852.117 2276.68,853.285 2301.87,841.629 2327.06,842.732 "/>
<path clip-path="url(#clip840)" d="M2202.87 726.723 L2322.49 726.723 L2322.49 571.203 L2202.87 571.203  Z" fill="#ffffff" fill-rule="evenodd" fill-opacity="1"/>
<polyline clip-path="url(#clip840)" style="stroke:#000000; stroke-linecap:round; stroke-linejoin:round; stroke-width:4; stroke-opacity:1; fill:none" points="2202.87,726.723 2322.49,726.723 2322.49,571.203 2202.87,571.203 2202.87,726.723 "/>
<polyline clip-path="url(#clip840)" style="stroke:#009af9; stroke-linecap:round; stroke-linejoin:round; stroke-width:4; stroke-opacity:1; fill:none" points="2212.96,623.043 2273.49,623.043 "/>
<path clip-path="url(#clip840)" d="M2310.58 633.582 L2305.31 633.442 L2299.55 633.582 L2299.55 631.334 L2301.42 631.334 L2296.15 625.103 L2291.49 630.326 L2291.16 630.795 Q2291.16 631.006 2291.7 631.17 Q2292.27 631.334 2292.92 631.334 L2292.92 633.582 L2287.98 633.442 L2283.58 633.582 L2283.58 631.334 Q2285.05 631.334 2285.73 631.31 Q2286.43 631.263 2287.23 631.052 Q2288.03 630.842 2288.42 630.42 L2294.7 623.37 L2287.23 614.54 L2283.81 614.54 L2283.81 612.291 L2289.1 612.432 L2294.89 612.291 L2294.89 614.54 L2292.97 614.54 L2297.68 620.044 L2301.7 615.547 Q2301.73 615.523 2302.1 614.961 Q2301.35 614.54 2300.28 614.54 L2300.28 612.291 L2305.22 612.432 L2309.62 612.291 L2309.62 614.54 Q2307.7 614.54 2306.69 614.68 Q2305.71 614.797 2305.41 614.961 Q2305.12 615.125 2304.73 615.547 L2299.13 621.777 L2307.19 631.334 L2310.58 631.334 L2310.58 633.582 Z" fill="#000000" fill-rule="nonzero" fill-opacity="1" /><polyline clip-path="url(#clip840)" style="stroke:#e26f46; stroke-linecap:round; stroke-linejoin:round; stroke-width:3; stroke-opacity:1; fill:none" stroke-dasharray="12, 6, 2, 6" points="2212.96,674.883 2273.49,674.883 "/>
<path clip-path="url(#clip840)" d="M2306.16 663.361 L2305.75 664.033 Q2303.21 662.935 2300.05 661.18 Q2296.88 662.935 2294.34 664.033 L2293.95 663.361 Q2296.72 660.951 2300.05 659.098 Q2303.41 660.967 2306.16 663.361 Z" fill="#000000" fill-rule="nonzero" fill-opacity="1" /><path clip-path="url(#clip840)" d="M2310.58 690.427 L2305.31 690.286 L2299.55 690.427 L2299.55 688.178 L2301.42 688.178 L2296.15 681.948 L2291.49 687.171 L2291.16 687.639 Q2291.16 687.85 2291.7 688.014 Q2292.27 688.178 2292.92 688.178 L2292.92 690.427 L2287.98 690.286 L2283.58 690.427 L2283.58 688.178 Q2285.05 688.178 2285.73 688.155 Q2286.43 688.108 2287.23 687.897 Q2288.03 687.686 2288.42 687.265 L2294.7 680.214 L2287.23 671.384 L2283.81 671.384 L2283.81 669.136 L2289.1 669.276 L2294.89 669.136 L2294.89 671.384 L2292.97 671.384 L2297.68 676.888 L2301.7 672.391 Q2301.73 672.368 2302.1 671.806 Q2301.35 671.384 2300.28 671.384 L2300.28 669.136 L2305.22 669.276 L2309.62 669.136 L2309.62 671.384 Q2307.7 671.384 2306.69 671.525 Q2305.71 671.642 2305.41 671.806 Q2305.12 671.97 2304.73 672.391 L2299.13 678.622 L2307.19 688.178 L2310.58 688.178 L2310.58 690.427 Z" fill="#000000" fill-rule="nonzero" fill-opacity="1" /><path clip-path="url(#clip840)" d="M1444.87 1423.18 L2352.76 1423.18 L2352.76 1071.73 L1444.87 1071.73  Z" fill="#ffffff" fill-rule="evenodd" fill-opacity="1"/>
<defs>
  <clipPath id="clip845">
    <rect x="1444" y="1071" width="909" height="352"/>
  </clipPath>
</defs>
<polyline clip-path="url(#clip845)" style="stroke:#000000; stroke-linecap:round; stroke-linejoin:round; stroke-width:2; stroke-opacity:0.1; fill:none" points="1470.56,1423.18 1470.56,1071.73 "/>
<polyline clip-path="url(#clip845)" style="stroke:#000000; stroke-linecap:round; stroke-linejoin:round; stroke-width:2; stroke-opacity:0.1; fill:none" points="1722.47,1423.18 1722.47,1071.73 "/>
<polyline clip-path="url(#clip845)" style="stroke:#000000; stroke-linecap:round; stroke-linejoin:round; stroke-width:2; stroke-opacity:0.1; fill:none" points="1974.38,1423.18 1974.38,1071.73 "/>
<polyline clip-path="url(#clip845)" style="stroke:#000000; stroke-linecap:round; stroke-linejoin:round; stroke-width:2; stroke-opacity:0.1; fill:none" points="2226.3,1423.18 2226.3,1071.73 "/>
<polyline clip-path="url(#clip845)" style="stroke:#000000; stroke-linecap:round; stroke-linejoin:round; stroke-width:2; stroke-opacity:0.1; fill:none" points="1444.87,1350.96 2352.76,1350.96 "/>
<polyline clip-path="url(#clip845)" style="stroke:#000000; stroke-linecap:round; stroke-linejoin:round; stroke-width:2; stroke-opacity:0.1; fill:none" points="1444.87,1266.26 2352.76,1266.26 "/>
<polyline clip-path="url(#clip845)" style="stroke:#000000; stroke-linecap:round; stroke-linejoin:round; stroke-width:2; stroke-opacity:0.1; fill:none" points="1444.87,1181.56 2352.76,1181.56 "/>
<polyline clip-path="url(#clip845)" style="stroke:#000000; stroke-linecap:round; stroke-linejoin:round; stroke-width:2; stroke-opacity:0.1; fill:none" points="1444.87,1096.86 2352.76,1096.86 "/>
<polyline clip-path="url(#clip840)" style="stroke:#000000; stroke-linecap:round; stroke-linejoin:round; stroke-width:4; stroke-opacity:1; fill:none" points="1444.87,1423.18 2352.76,1423.18 "/>
<polyline clip-path="url(#clip840)" style="stroke:#000000; stroke-linecap:round; stroke-linejoin:round; stroke-width:4; stroke-opacity:1; fill:none" points="1470.56,1423.18 1470.56,1404.28 "/>
<polyline clip-path="url(#clip840)" style="stroke:#000000; stroke-linecap:round; stroke-linejoin:round; stroke-width:4; stroke-opacity:1; fill:none" points="1722.47,1423.18 1722.47,1404.28 "/>
<polyline clip-path="url(#clip840)" style="stroke:#000000; stroke-linecap:round; stroke-linejoin:round; stroke-width:4; stroke-opacity:1; fill:none" points="1974.38,1423.18 1974.38,1404.28 "/>
<polyline clip-path="url(#clip840)" style="stroke:#000000; stroke-linecap:round; stroke-linejoin:round; stroke-width:4; stroke-opacity:1; fill:none" points="2226.3,1423.18 2226.3,1404.28 "/>
<path clip-path="url(#clip840)" d="M1470.56 1454.1 Q1466.95 1454.1 1465.12 1457.66 Q1463.32 1461.2 1463.32 1468.33 Q1463.32 1475.44 1465.12 1479.01 Q1466.95 1482.55 1470.56 1482.55 Q1474.2 1482.55 1476 1479.01 Q1477.83 1475.44 1477.83 1468.33 Q1477.83 1461.2 1476 1457.66 Q1474.2 1454.1 1470.56 1454.1 M1470.56 1450.39 Q1476.37 1450.39 1479.43 1455 Q1482.51 1459.58 1482.51 1468.33 Q1482.51 1477.06 1479.43 1481.67 Q1476.37 1486.25 1470.56 1486.25 Q1464.75 1486.25 1461.67 1481.67 Q1458.62 1477.06 1458.62 1468.33 Q1458.62 1459.58 1461.67 1455 Q1464.75 1450.39 1470.56 1450.39 Z" fill="#000000" fill-rule="nonzero" fill-opacity="1" /><path clip-path="url(#clip840)" d="M1712.85 1481.64 L1720.49 1481.64 L1720.49 1455.28 L1712.18 1456.95 L1712.18 1452.69 L1720.45 1451.02 L1725.12 1451.02 L1725.12 1481.64 L1732.76 1481.64 L1732.76 1485.58 L1712.85 1485.58 L1712.85 1481.64 Z" fill="#000000" fill-rule="nonzero" fill-opacity="1" /><path clip-path="url(#clip840)" d="M1969.04 1481.64 L1985.36 1481.64 L1985.36 1485.58 L1963.41 1485.58 L1963.41 1481.64 Q1966.07 1478.89 1970.66 1474.26 Q1975.26 1469.61 1976.44 1468.27 Q1978.69 1465.74 1979.57 1464.01 Q1980.47 1462.25 1980.47 1460.56 Q1980.47 1457.8 1978.53 1456.07 Q1976.61 1454.33 1973.5 1454.33 Q1971.31 1454.33 1968.85 1455.09 Q1966.42 1455.86 1963.64 1457.41 L1963.64 1452.69 Q1966.47 1451.55 1968.92 1450.97 Q1971.38 1450.39 1973.41 1450.39 Q1978.78 1450.39 1981.98 1453.08 Q1985.17 1455.77 1985.17 1460.26 Q1985.17 1462.39 1984.36 1464.31 Q1983.57 1466.2 1981.47 1468.8 Q1980.89 1469.47 1977.79 1472.69 Q1974.69 1475.88 1969.04 1481.64 Z" fill="#000000" fill-rule="nonzero" fill-opacity="1" /><path clip-path="url(#clip840)" d="M2230.54 1466.95 Q2233.9 1467.66 2235.78 1469.93 Q2237.67 1472.2 2237.67 1475.53 Q2237.67 1480.65 2234.15 1483.45 Q2230.64 1486.25 2224.16 1486.25 Q2221.98 1486.25 2219.66 1485.81 Q2217.37 1485.39 2214.92 1484.54 L2214.92 1480.02 Q2216.86 1481.16 2219.18 1481.74 Q2221.49 1482.32 2224.02 1482.32 Q2228.41 1482.32 2230.71 1480.58 Q2233.02 1478.84 2233.02 1475.53 Q2233.02 1472.48 2230.87 1470.77 Q2228.74 1469.03 2224.92 1469.03 L2220.89 1469.03 L2220.89 1465.19 L2225.1 1465.19 Q2228.55 1465.19 2230.38 1463.82 Q2232.21 1462.43 2232.21 1459.84 Q2232.21 1457.18 2230.31 1455.77 Q2228.44 1454.33 2224.92 1454.33 Q2223 1454.33 2220.8 1454.75 Q2218.6 1455.16 2215.96 1456.04 L2215.96 1451.88 Q2218.62 1451.14 2220.94 1450.77 Q2223.28 1450.39 2225.34 1450.39 Q2230.66 1450.39 2233.76 1452.83 Q2236.86 1455.23 2236.86 1459.35 Q2236.86 1462.22 2235.22 1464.21 Q2233.58 1466.18 2230.54 1466.95 Z" fill="#000000" fill-rule="nonzero" fill-opacity="1" /><path clip-path="url(#clip840)" d="M1768.98 1520.52 L1809.18 1520.52 L1809.18 1525.93 L1792.31 1525.93 L1792.31 1568.04 L1785.85 1568.04 L1785.85 1525.93 L1768.98 1525.93 L1768.98 1520.52 Z" fill="#000000" fill-rule="nonzero" fill-opacity="1" /><path clip-path="url(#clip840)" d="M1813.13 1532.4 L1818.99 1532.4 L1818.99 1568.04 L1813.13 1568.04 L1813.13 1532.4 M1813.13 1518.52 L1818.99 1518.52 L1818.99 1525.93 L1813.13 1525.93 L1813.13 1518.52 Z" fill="#000000" fill-rule="nonzero" fill-opacity="1" /><path clip-path="url(#clip840)" d="M1858.99 1539.24 Q1861.19 1535.29 1864.25 1533.41 Q1867.3 1531.54 1871.44 1531.54 Q1877.01 1531.54 1880.03 1535.45 Q1883.06 1539.33 1883.06 1546.53 L1883.06 1568.04 L1877.17 1568.04 L1877.17 1546.72 Q1877.17 1541.59 1875.35 1539.11 Q1873.54 1536.63 1869.82 1536.63 Q1865.26 1536.63 1862.62 1539.65 Q1859.98 1542.68 1859.98 1547.9 L1859.98 1568.04 L1854.09 1568.04 L1854.09 1546.72 Q1854.09 1541.56 1852.28 1539.11 Q1850.46 1536.63 1846.68 1536.63 Q1842.19 1536.63 1839.55 1539.68 Q1836.9 1542.71 1836.9 1547.9 L1836.9 1568.04 L1831.02 1568.04 L1831.02 1532.4 L1836.9 1532.4 L1836.9 1537.93 Q1838.91 1534.66 1841.71 1533.1 Q1844.51 1531.54 1848.36 1531.54 Q1852.25 1531.54 1854.95 1533.51 Q1857.69 1535.48 1858.99 1539.24 Z" fill="#000000" fill-rule="nonzero" fill-opacity="1" /><path clip-path="url(#clip840)" d="M1925.23 1548.76 L1925.23 1551.62 L1898.3 1551.62 Q1898.68 1557.67 1901.93 1560.85 Q1905.21 1564 1911.03 1564 Q1914.41 1564 1917.56 1563.17 Q1920.74 1562.35 1923.86 1560.69 L1923.86 1566.23 Q1920.71 1567.57 1917.4 1568.27 Q1914.09 1568.97 1910.68 1568.97 Q1902.15 1568.97 1897.16 1564 Q1892.19 1559.04 1892.19 1550.57 Q1892.19 1541.82 1896.9 1536.69 Q1901.64 1531.54 1909.66 1531.54 Q1916.86 1531.54 1921.03 1536.18 Q1925.23 1540.8 1925.23 1548.76 M1919.37 1547.04 Q1919.31 1542.23 1916.67 1539.37 Q1914.06 1536.5 1909.73 1536.5 Q1904.83 1536.5 1901.87 1539.27 Q1898.94 1542.04 1898.49 1547.07 L1919.37 1547.04 Z" fill="#000000" fill-rule="nonzero" fill-opacity="1" /><path clip-path="url(#clip840)" d="M1969.63 1518.58 Q1965.36 1525.9 1963.3 1533.06 Q1961.23 1540.23 1961.23 1547.58 Q1961.23 1554.93 1963.3 1562.16 Q1965.4 1569.35 1969.63 1576.64 L1964.54 1576.64 Q1959.76 1569.16 1957.38 1561.93 Q1955.02 1554.71 1955.02 1547.58 Q1955.02 1540.48 1957.38 1533.29 Q1959.73 1526.09 1964.54 1518.58 L1969.63 1518.58 Z" fill="#000000" fill-rule="nonzero" fill-opacity="1" /><path clip-path="url(#clip840)" d="M2003.72 1533.45 L2003.72 1538.98 Q2001.24 1537.71 1998.56 1537.07 Q1995.89 1536.44 1993.02 1536.44 Q1988.66 1536.44 1986.47 1537.77 Q1984.3 1539.11 1984.3 1541.79 Q1984.3 1543.82 1985.86 1545 Q1987.42 1546.15 1992.13 1547.2 L1994.14 1547.64 Q2000.38 1548.98 2002.99 1551.43 Q2005.63 1553.85 2005.63 1558.21 Q2005.63 1563.17 2001.68 1566.07 Q1997.77 1568.97 1990.89 1568.97 Q1988.03 1568.97 1984.91 1568.39 Q1981.82 1567.85 1978.38 1566.74 L1978.38 1560.69 Q1981.63 1562.38 1984.78 1563.24 Q1987.93 1564.07 1991.02 1564.07 Q1995.16 1564.07 1997.38 1562.66 Q1999.61 1561.23 1999.61 1558.65 Q1999.61 1556.27 1997.99 1554.99 Q1996.4 1553.72 1990.95 1552.54 L1988.92 1552.07 Q1983.47 1550.92 1981.06 1548.56 Q1978.64 1546.18 1978.64 1542.04 Q1978.64 1537.01 1982.2 1534.27 Q1985.77 1531.54 1992.32 1531.54 Q1995.57 1531.54 1998.43 1532.01 Q2001.3 1532.49 2003.72 1533.45 Z" fill="#000000" fill-rule="nonzero" fill-opacity="1" /><path clip-path="url(#clip840)" d="M2014.03 1518.58 L2019.12 1518.58 Q2023.9 1526.09 2026.25 1533.29 Q2028.64 1540.48 2028.64 1547.58 Q2028.64 1554.71 2026.25 1561.93 Q2023.9 1569.16 2019.12 1576.64 L2014.03 1576.64 Q2018.26 1569.35 2020.33 1562.16 Q2022.43 1554.93 2022.43 1547.58 Q2022.43 1540.23 2020.33 1533.06 Q2018.26 1525.9 2014.03 1518.58 Z" fill="#000000" fill-rule="nonzero" fill-opacity="1" /><polyline clip-path="url(#clip840)" style="stroke:#000000; stroke-linecap:round; stroke-linejoin:round; stroke-width:4; stroke-opacity:1; fill:none" points="1444.87,1423.18 1444.87,1071.73 "/>
<polyline clip-path="url(#clip840)" style="stroke:#000000; stroke-linecap:round; stroke-linejoin:round; stroke-width:4; stroke-opacity:1; fill:none" points="1444.87,1350.96 1463.76,1350.96 "/>
<polyline clip-path="url(#clip840)" style="stroke:#000000; stroke-linecap:round; stroke-linejoin:round; stroke-width:4; stroke-opacity:1; fill:none" points="1444.87,1266.26 1463.76,1266.26 "/>
<polyline clip-path="url(#clip840)" style="stroke:#000000; stroke-linecap:round; stroke-linejoin:round; stroke-width:4; stroke-opacity:1; fill:none" points="1444.87,1181.56 1463.76,1181.56 "/>
<polyline clip-path="url(#clip840)" style="stroke:#000000; stroke-linecap:round; stroke-linejoin:round; stroke-width:4; stroke-opacity:1; fill:none" points="1444.87,1096.86 1463.76,1096.86 "/>
<path clip-path="url(#clip840)" d="M1273.36 1351.41 L1303.03 1351.41 L1303.03 1355.34 L1273.36 1355.34 L1273.36 1351.41 Z" fill="#000000" fill-rule="nonzero" fill-opacity="1" /><path clip-path="url(#clip840)" d="M1323.13 1336.76 Q1319.51 1336.76 1317.69 1340.32 Q1315.88 1343.86 1315.88 1350.99 Q1315.88 1358.1 1317.69 1361.66 Q1319.51 1365.21 1323.13 1365.21 Q1326.76 1365.21 1328.57 1361.66 Q1330.39 1358.1 1330.39 1350.99 Q1330.39 1343.86 1328.57 1340.32 Q1326.76 1336.76 1323.13 1336.76 M1323.13 1333.05 Q1328.94 1333.05 1331.99 1337.66 Q1335.07 1342.24 1335.07 1350.99 Q1335.07 1359.72 1331.99 1364.33 Q1328.94 1368.91 1323.13 1368.91 Q1317.32 1368.91 1314.24 1364.33 Q1311.18 1359.72 1311.18 1350.99 Q1311.18 1342.24 1314.24 1337.66 Q1317.32 1333.05 1323.13 1333.05 Z" fill="#000000" fill-rule="nonzero" fill-opacity="1" /><path clip-path="url(#clip840)" d="M1343.29 1362.36 L1348.17 1362.36 L1348.17 1368.24 L1343.29 1368.24 L1343.29 1362.36 Z" fill="#000000" fill-rule="nonzero" fill-opacity="1" /><path clip-path="url(#clip840)" d="M1368.36 1336.76 Q1364.75 1336.76 1362.92 1340.32 Q1361.11 1343.86 1361.11 1350.99 Q1361.11 1358.1 1362.92 1361.66 Q1364.75 1365.21 1368.36 1365.21 Q1371.99 1365.21 1373.8 1361.66 Q1375.63 1358.1 1375.63 1350.99 Q1375.63 1343.86 1373.8 1340.32 Q1371.99 1336.76 1368.36 1336.76 M1368.36 1333.05 Q1374.17 1333.05 1377.22 1337.66 Q1380.3 1342.24 1380.3 1350.99 Q1380.3 1359.72 1377.22 1364.33 Q1374.17 1368.91 1368.36 1368.91 Q1362.55 1368.91 1359.47 1364.33 Q1356.41 1359.72 1356.41 1350.99 Q1356.41 1342.24 1359.47 1337.66 Q1362.55 1333.05 1368.36 1333.05 Z" fill="#000000" fill-rule="nonzero" fill-opacity="1" /><path clip-path="url(#clip840)" d="M1392.55 1364.3 L1408.87 1364.3 L1408.87 1368.24 L1386.92 1368.24 L1386.92 1364.3 Q1389.58 1361.55 1394.17 1356.92 Q1398.77 1352.27 1399.95 1350.92 Q1402.2 1348.4 1403.08 1346.66 Q1403.98 1344.9 1403.98 1343.22 Q1403.98 1340.46 1402.04 1338.72 Q1400.12 1336.99 1397.01 1336.99 Q1394.82 1336.99 1392.36 1337.75 Q1389.93 1338.52 1387.15 1340.07 L1387.15 1335.34 Q1389.98 1334.21 1392.43 1333.63 Q1394.88 1333.05 1396.92 1333.05 Q1402.29 1333.05 1405.49 1335.74 Q1408.68 1338.42 1408.68 1342.91 Q1408.68 1345.04 1407.87 1346.97 Q1407.08 1348.86 1404.98 1351.46 Q1404.4 1352.13 1401.3 1355.34 Q1398.19 1358.54 1392.55 1364.3 Z" fill="#000000" fill-rule="nonzero" fill-opacity="1" /><path clip-path="url(#clip840)" d="M1321.53 1252.06 Q1317.92 1252.06 1316.09 1255.62 Q1314.28 1259.16 1314.28 1266.29 Q1314.28 1273.4 1316.09 1276.96 Q1317.92 1280.51 1321.53 1280.51 Q1325.16 1280.51 1326.97 1276.96 Q1328.8 1273.4 1328.8 1266.29 Q1328.8 1259.16 1326.97 1255.62 Q1325.16 1252.06 1321.53 1252.06 M1321.53 1248.35 Q1327.34 1248.35 1330.39 1252.96 Q1333.47 1257.54 1333.47 1266.29 Q1333.47 1275.02 1330.39 1279.63 Q1327.34 1284.21 1321.53 1284.21 Q1315.72 1284.21 1312.64 1279.63 Q1309.58 1275.02 1309.58 1266.29 Q1309.58 1257.54 1312.64 1252.96 Q1315.72 1248.35 1321.53 1248.35 Z" fill="#000000" fill-rule="nonzero" fill-opacity="1" /><path clip-path="url(#clip840)" d="M1341.69 1277.66 L1346.57 1277.66 L1346.57 1283.54 L1341.69 1283.54 L1341.69 1277.66 Z" fill="#000000" fill-rule="nonzero" fill-opacity="1" /><path clip-path="url(#clip840)" d="M1366.76 1252.06 Q1363.15 1252.06 1361.32 1255.62 Q1359.51 1259.16 1359.51 1266.29 Q1359.51 1273.4 1361.32 1276.96 Q1363.15 1280.51 1366.76 1280.51 Q1370.39 1280.51 1372.2 1276.96 Q1374.03 1273.4 1374.03 1266.29 Q1374.03 1259.16 1372.2 1255.62 Q1370.39 1252.06 1366.76 1252.06 M1366.76 1248.35 Q1372.57 1248.35 1375.63 1252.96 Q1378.7 1257.54 1378.7 1266.29 Q1378.7 1275.02 1375.63 1279.63 Q1372.57 1284.21 1366.76 1284.21 Q1360.95 1284.21 1357.87 1279.63 Q1354.82 1275.02 1354.82 1266.29 Q1354.82 1257.54 1357.87 1252.96 Q1360.95 1248.35 1366.76 1248.35 Z" fill="#000000" fill-rule="nonzero" fill-opacity="1" /><path clip-path="url(#clip840)" d="M1396.92 1252.06 Q1393.31 1252.06 1391.48 1255.62 Q1389.68 1259.16 1389.68 1266.29 Q1389.68 1273.4 1391.48 1276.96 Q1393.31 1280.51 1396.92 1280.51 Q1400.56 1280.51 1402.36 1276.96 Q1404.19 1273.4 1404.19 1266.29 Q1404.19 1259.16 1402.36 1255.62 Q1400.56 1252.06 1396.92 1252.06 M1396.92 1248.35 Q1402.73 1248.35 1405.79 1252.96 Q1408.87 1257.54 1408.87 1266.29 Q1408.87 1275.02 1405.79 1279.63 Q1402.73 1284.21 1396.92 1284.21 Q1391.11 1284.21 1388.03 1279.63 Q1384.98 1275.02 1384.98 1266.29 Q1384.98 1257.54 1388.03 1252.96 Q1391.11 1248.35 1396.92 1248.35 Z" fill="#000000" fill-rule="nonzero" fill-opacity="1" /><path clip-path="url(#clip840)" d="M1323.13 1167.36 Q1319.51 1167.36 1317.69 1170.92 Q1315.88 1174.46 1315.88 1181.59 Q1315.88 1188.7 1317.69 1192.26 Q1319.51 1195.81 1323.13 1195.81 Q1326.76 1195.81 1328.57 1192.26 Q1330.39 1188.7 1330.39 1181.59 Q1330.39 1174.46 1328.57 1170.92 Q1326.76 1167.36 1323.13 1167.36 M1323.13 1163.65 Q1328.94 1163.65 1331.99 1168.26 Q1335.07 1172.84 1335.07 1181.59 Q1335.07 1190.32 1331.99 1194.93 Q1328.94 1199.51 1323.13 1199.51 Q1317.32 1199.51 1314.24 1194.93 Q1311.18 1190.32 1311.18 1181.59 Q1311.18 1172.84 1314.24 1168.26 Q1317.32 1163.65 1323.13 1163.65 Z" fill="#000000" fill-rule="nonzero" fill-opacity="1" /><path clip-path="url(#clip840)" d="M1343.29 1192.96 L1348.17 1192.96 L1348.17 1198.84 L1343.29 1198.84 L1343.29 1192.96 Z" fill="#000000" fill-rule="nonzero" fill-opacity="1" /><path clip-path="url(#clip840)" d="M1368.36 1167.36 Q1364.75 1167.36 1362.92 1170.92 Q1361.11 1174.46 1361.11 1181.59 Q1361.11 1188.7 1362.92 1192.26 Q1364.75 1195.81 1368.36 1195.81 Q1371.99 1195.81 1373.8 1192.26 Q1375.63 1188.7 1375.63 1181.59 Q1375.63 1174.46 1373.8 1170.92 Q1371.99 1167.36 1368.36 1167.36 M1368.36 1163.65 Q1374.17 1163.65 1377.22 1168.26 Q1380.3 1172.84 1380.3 1181.59 Q1380.3 1190.32 1377.22 1194.93 Q1374.17 1199.51 1368.36 1199.51 Q1362.55 1199.51 1359.47 1194.93 Q1356.41 1190.32 1356.41 1181.59 Q1356.41 1172.84 1359.47 1168.26 Q1362.55 1163.65 1368.36 1163.65 Z" fill="#000000" fill-rule="nonzero" fill-opacity="1" /><path clip-path="url(#clip840)" d="M1392.55 1194.9 L1408.87 1194.9 L1408.87 1198.84 L1386.92 1198.84 L1386.92 1194.9 Q1389.58 1192.15 1394.17 1187.52 Q1398.77 1182.87 1399.95 1181.52 Q1402.2 1179 1403.08 1177.27 Q1403.98 1175.51 1403.98 1173.82 Q1403.98 1171.06 1402.04 1169.33 Q1400.12 1167.59 1397.01 1167.59 Q1394.82 1167.59 1392.36 1168.35 Q1389.93 1169.12 1387.15 1170.67 L1387.15 1165.95 Q1389.98 1164.81 1392.43 1164.23 Q1394.88 1163.65 1396.92 1163.65 Q1402.29 1163.65 1405.49 1166.34 Q1408.68 1169.02 1408.68 1173.52 Q1408.68 1175.64 1407.87 1177.57 Q1407.08 1179.46 1404.98 1182.06 Q1404.4 1182.73 1401.3 1185.95 Q1398.19 1189.14 1392.55 1194.9 Z" fill="#000000" fill-rule="nonzero" fill-opacity="1" /><path clip-path="url(#clip840)" d="M1321.04 1082.66 Q1317.43 1082.66 1315.6 1086.22 Q1313.8 1089.76 1313.8 1096.89 Q1313.8 1104 1315.6 1107.57 Q1317.43 1111.11 1321.04 1111.11 Q1324.68 1111.11 1326.48 1107.57 Q1328.31 1104 1328.31 1096.89 Q1328.31 1089.76 1326.48 1086.22 Q1324.68 1082.66 1321.04 1082.66 M1321.04 1078.95 Q1326.85 1078.95 1329.91 1083.56 Q1332.99 1088.14 1332.99 1096.89 Q1332.99 1105.62 1329.91 1110.23 Q1326.85 1114.81 1321.04 1114.81 Q1315.23 1114.81 1312.15 1110.23 Q1309.1 1105.62 1309.1 1096.89 Q1309.1 1088.14 1312.15 1083.56 Q1315.23 1078.95 1321.04 1078.95 Z" fill="#000000" fill-rule="nonzero" fill-opacity="1" /><path clip-path="url(#clip840)" d="M1341.2 1108.26 L1346.09 1108.26 L1346.09 1114.14 L1341.2 1114.14 L1341.2 1108.26 Z" fill="#000000" fill-rule="nonzero" fill-opacity="1" /><path clip-path="url(#clip840)" d="M1366.27 1082.66 Q1362.66 1082.66 1360.83 1086.22 Q1359.03 1089.76 1359.03 1096.89 Q1359.03 1104 1360.83 1107.57 Q1362.66 1111.11 1366.27 1111.11 Q1369.91 1111.11 1371.71 1107.57 Q1373.54 1104 1373.54 1096.89 Q1373.54 1089.76 1371.71 1086.22 Q1369.91 1082.66 1366.27 1082.66 M1366.27 1078.95 Q1372.08 1078.95 1375.14 1083.56 Q1378.22 1088.14 1378.22 1096.89 Q1378.22 1105.62 1375.14 1110.23 Q1372.08 1114.81 1366.27 1114.81 Q1360.46 1114.81 1357.38 1110.23 Q1354.33 1105.62 1354.33 1096.89 Q1354.33 1088.14 1357.38 1083.56 Q1360.46 1078.95 1366.27 1078.95 Z" fill="#000000" fill-rule="nonzero" fill-opacity="1" /><path clip-path="url(#clip840)" d="M1399.28 1083.65 L1387.48 1102.1 L1399.28 1102.1 L1399.28 1083.65 M1398.06 1079.58 L1403.94 1079.58 L1403.94 1102.1 L1408.87 1102.1 L1408.87 1105.99 L1403.94 1105.99 L1403.94 1114.14 L1399.28 1114.14 L1399.28 1105.99 L1383.68 1105.99 L1383.68 1101.48 L1398.06 1079.58 Z" fill="#000000" fill-rule="nonzero" fill-opacity="1" /><path clip-path="url(#clip840)" d="M1183.06 1252.88 L1183.98 1253.44 Q1182.47 1256.93 1180.06 1261.28 Q1182.47 1265.63 1183.98 1269.13 L1183.06 1269.67 Q1179.74 1265.86 1177.19 1261.28 Q1179.76 1256.66 1183.06 1252.88 Z" fill="#000000" fill-rule="nonzero" fill-opacity="1" /><path clip-path="url(#clip840)" d="M1195.35 1249.71 Q1197.16 1249.71 1198.19 1250.84 Q1199.19 1251.97 1199.19 1253.26 Q1199.19 1254.48 1198.48 1255.12 Q1197.77 1255.77 1196.87 1255.77 Q1195.64 1255.77 1194.58 1254.87 Q1193.52 1253.96 1193.29 1252.61 Q1192.46 1253.93 1192.46 1255.9 Q1192.46 1257.18 1193.13 1258.31 Q1193.81 1259.41 1194.68 1260.08 Q1195.55 1260.73 1196.8 1261.31 Q1198.03 1261.85 1198.77 1262.08 Q1199.48 1262.27 1200.25 1262.43 L1209.27 1264.69 Q1213.55 1265.78 1215.06 1265.78 Q1216.93 1265.78 1218.19 1264.88 Q1219.41 1263.98 1219.41 1262.18 Q1219.41 1261.47 1219.22 1260.66 Q1218.99 1259.86 1218.41 1258.83 Q1217.8 1257.76 1216.9 1256.83 Q1215.97 1255.86 1214.39 1254.93 Q1212.81 1254 1210.78 1253.38 Q1210.07 1253.19 1210.07 1252.55 Q1210.07 1251.74 1210.72 1251.74 Q1211.26 1251.74 1212.42 1252.19 Q1213.55 1252.61 1215.03 1253.55 Q1216.48 1254.45 1217.8 1255.64 Q1219.09 1256.83 1219.99 1258.6 Q1220.89 1260.37 1220.89 1262.31 Q1220.89 1265.08 1219.41 1266.91 Q1217.93 1268.75 1215.87 1269.42 Q1216.16 1269.58 1216.55 1269.81 Q1216.93 1270.03 1217.8 1270.71 Q1218.64 1271.36 1219.28 1272.1 Q1219.89 1272.84 1220.38 1274 Q1220.89 1275.12 1220.89 1276.35 Q1220.89 1277.89 1220.44 1279.28 Q1219.99 1280.63 1218.96 1281.6 Q1217.93 1282.56 1216.51 1282.56 Q1214.93 1282.56 1213.84 1281.5 Q1212.71 1280.41 1212.71 1278.92 Q1212.71 1277.99 1213.26 1277.25 Q1213.81 1276.48 1215 1276.48 Q1216.32 1276.48 1217.32 1277.38 Q1218.32 1278.28 1218.57 1279.57 Q1219.41 1278.25 1219.41 1276.28 Q1219.41 1274.16 1217.54 1272.48 Q1215.68 1270.81 1212.55 1270 Q1205.05 1268.01 1201.7 1267.23 Q1198.32 1266.46 1196.87 1266.46 Q1195.51 1266.46 1194.58 1266.81 Q1193.65 1267.17 1193.23 1267.78 Q1192.78 1268.36 1192.62 1268.91 Q1192.46 1269.42 1192.46 1270 Q1192.46 1270.97 1192.84 1272.06 Q1193.23 1273.13 1194.13 1274.41 Q1195 1275.67 1196.8 1276.86 Q1198.61 1278.05 1201.09 1278.86 Q1201.83 1279.02 1201.83 1279.73 Q1201.79 1280.5 1201.15 1280.5 Q1200.6 1280.5 1199.48 1280.08 Q1198.32 1279.63 1196.87 1278.73 Q1195.42 1277.8 1194.13 1276.6 Q1192.81 1275.38 1191.91 1273.61 Q1191.01 1271.81 1191.01 1269.87 Q1191.01 1269 1191.2 1268.17 Q1191.36 1267.3 1191.84 1266.27 Q1192.33 1265.2 1193.39 1264.27 Q1194.45 1263.34 1196 1262.76 Q1195.26 1262.37 1194.55 1261.85 Q1193.84 1261.31 1192.97 1260.47 Q1192.07 1259.6 1191.55 1258.41 Q1191.01 1257.18 1191.01 1255.83 Q1191.01 1254.51 1191.36 1253.22 Q1191.68 1251.94 1192.75 1250.84 Q1193.78 1249.71 1195.35 1249.71 Z" fill="#000000" fill-rule="nonzero" fill-opacity="1" /><path clip-path="url(#clip840)" d="M1232.94 1242.25 Q1231.57 1242.25 1230.91 1241.46 Q1230.26 1240.68 1230.26 1239.66 Q1230.26 1238.6 1230.96 1237.86 Q1231.63 1237.09 1232.83 1237.09 Q1234.11 1237.09 1234.83 1237.99 Q1235.56 1238.87 1235.38 1240.13 Q1237.22 1239.03 1238.06 1237 Q1238.89 1234.95 1238.89 1233.06 Q1238.89 1231.07 1237.18 1229.47 Q1235.47 1227.85 1231.27 1227.85 Q1227.71 1227.85 1225.66 1229.25 Q1223.61 1230.62 1223.61 1233.35 L1223.61 1235.38 Q1223.61 1236.08 1223.54 1236.28 Q1223.47 1236.48 1223.09 1236.48 Q1222.64 1236.48 1222.55 1235.78 Q1222.55 1235.08 1222.41 1233.98 Q1222.32 1231.3 1220 1229.88 Q1217.84 1228.59 1214.75 1228.59 Q1211.93 1228.59 1210.76 1229.94 Q1209.56 1231.27 1209.56 1233.01 Q1209.56 1234.63 1210.24 1236.41 Q1210.92 1238.2 1212.43 1239.17 Q1212.43 1236.3 1214.75 1236.3 Q1215.76 1236.3 1216.44 1236.96 Q1217.09 1237.59 1217.09 1238.65 Q1217.09 1239.66 1216.46 1240.34 Q1215.81 1241.01 1214.7 1241.01 Q1212.07 1241.01 1210.24 1238.67 Q1208.41 1236.3 1208.41 1232.83 Q1208.41 1229.4 1210.22 1226.88 Q1212.02 1224.33 1214.79 1224.33 Q1217.52 1224.33 1219.75 1226.13 Q1221.98 1227.94 1222.91 1230.8 Q1223.61 1227.28 1226 1225.19 Q1228.36 1223.09 1231.27 1223.09 Q1234.88 1223.09 1237.54 1225.93 Q1240.18 1228.77 1240.18 1232.92 Q1240.18 1236.75 1238.1 1239.5 Q1236.03 1242.25 1232.94 1242.25 Z" fill="#000000" fill-rule="nonzero" fill-opacity="1" /><polyline clip-path="url(#clip845)" style="stroke:#e26f46; stroke-linecap:round; stroke-linejoin:round; stroke-width:3; stroke-opacity:1; fill:none" stroke-dasharray="12, 6, 2, 6" points="1470.56,1266.26 1495.75,1081.68 1520.94,1287.91 1546.13,1354.24 1571.33,1378.63 1596.52,1388.69 1621.71,1390.35 1646.9,1413.23 1672.09,1387.58 1697.28,1388.58 1722.47,1387.73 1747.66,1337.57 1772.86,1318.89 1798.05,1271.11 1823.24,1294.83 1848.43,1305.95 1873.62,1282.8 1898.81,1259.58 1924,1286.1 1949.19,1296.66 1974.38,1300.18 1999.58,1239.35 2024.77,1301.28 2049.96,1319.45 2075.15,1264.64 2100.34,1253.63 2125.53,1298.86 2150.72,1259.78 2175.91,1277.07 2201.11,1280 2226.3,1230.14 2251.49,1277.13 2276.68,1289.89 2301.87,1270.39 2327.06,1277.42 "/>
</svg>
