<?xml version="1.0" encoding="utf-8"?>
<svg xmlns="http://www.w3.org/2000/svg" xmlns:xlink="http://www.w3.org/1999/xlink" width="600" height="400" viewBox="0 0 2400 1600">
<defs>
  <clipPath id="clip830">
    <rect x="0" y="0" width="2400" height="1600"/>
  </clipPath>
</defs>
<path clip-path="url(#clip830)" d="M0 1600 L2400 1600 L2400 0 L0 0  Z" fill="#ffffff" fill-rule="evenodd" fill-opacity="1"/>
<defs>
  <clipPath id="clip831">
    <rect x="480" y="0" width="1681" height="1600"/>
  </clipPath>
</defs>
<path clip-path="url(#clip830)" d="M203.964 1423.18 L1110.81 1423.18 L1110.81 47.2441 L203.964 47.2441  Z" fill="#ffffff" fill-rule="evenodd" fill-opacity="1"/>
<defs>
  <clipPath id="clip832">
    <rect x="203" y="47" width="908" height="1377"/>
  </clipPath>
</defs>
<polyline clip-path="url(#clip832)" style="stroke:#000000; stroke-linecap:round; stroke-linejoin:round; stroke-width:2; stroke-opacity:0.1; fill:none" points="229.629,1423.18 229.629,47.2441 "/>
<polyline clip-path="url(#clip832)" style="stroke:#000000; stroke-linecap:round; stroke-linejoin:round; stroke-width:2; stroke-opacity:0.1; fill:none" points="481.252,1423.18 481.252,47.2441 "/>
<polyline clip-path="url(#clip832)" style="stroke:#000000; stroke-linecap:round; stroke-linejoin:round; stroke-width:2; stroke-opacity:0.1; fill:none" points="732.874,1423.18 732.874,47.2441 "/>
<polyline clip-path="url(#clip832)" style="stroke:#000000; stroke-linecap:round; stroke-linejoin:round; stroke-width:2; stroke-opacity:0.1; fill:none" points="984.497,1423.18 984.497,47.2441 "/>
<polyline clip-path="url(#clip832)" style="stroke:#000000; stroke-linecap:round; stroke-linejoin:round; stroke-width:2; stroke-opacity:0.1; fill:none" points="203.964,1372.49 1110.81,1372.49 "/>
<polyline clip-path="url(#clip832)" style="stroke:#000000; stroke-linecap:round; stroke-linejoin:round; stroke-width:2; stroke-opacity:0.1; fill:none" points="203.964,934.577 1110.81,934.577 "/>
<polyline clip-path="url(#clip832)" style="stroke:#000000; stroke-linecap:round; stroke-linejoin:round; stroke-width:2; stroke-opacity:0.1; fill:none" points="203.964,496.668 1110.81,496.668 "/>
<polyline clip-path="url(#clip832)" style="stroke:#000000; stroke-linecap:round; stroke-linejoin:round; stroke-width:2; stroke-opacity:0.1; fill:none" points="203.964,58.7578 1110.81,58.7578 "/>
<polyline clip-path="url(#clip830)" style="stroke:#000000; stroke-linecap:round; stroke-linejoin:round; stroke-width:4; stroke-opacity:1; fill:none" points="203.964,1423.18 1110.81,1423.18 "/>
<polyline clip-path="url(#clip830)" style="stroke:#000000; stroke-linecap:round; stroke-linejoin:round; stroke-width:4; stroke-opacity:1; fill:none" points="229.629,1423.18 229.629,1404.28 "/>
<polyline clip-path="url(#clip830)" style="stroke:#000000; stroke-linecap:round; stroke-linejoin:round; stroke-width:4; stroke-opacity:1; fill:none" points="481.252,1423.18 481.252,1404.28 "/>
<polyline clip-path="url(#clip830)" style="stroke:#000000; stroke-linecap:round; stroke-linejoin:round; stroke-width:4; stroke-opacity:1; fill:none" points="732.874,1423.18 732.874,1404.28 "/>
<polyline clip-path="url(#clip830)" style="stroke:#000000; stroke-linecap:round; stroke-linejoin:round; stroke-width:4; stroke-opacity:1; fill:none" points="984.497,1423.18 984.497,1404.28 "/>
<path clip-path="url(#clip830)" d="M229.629 1454.1 Q226.018 1454.1 224.189 1457.66 Q222.384 1461.2 222.384 1468.33 Q222.384 1475.44 224.189 1479.01 Q226.018 1482.55 229.629 1482.55 Q233.263 1482.55 235.069 1479.01 Q236.898 1475.44 236.898 1468.33 Q236.898 1461.2 235.069 1457.66 Q233.263 1454.1 229.629 1454.1 M229.629 1450.39 Q235.439 1450.39 238.495 1455 Q241.573 1459.58 241.573 1468.33 Q241.573 1477.06 238.495 1481.67 Q235.439 1486.25 229.629 1486.25 Q223.819 1486.25 220.74 1481.67 Q217.685 1477.06 217.685 1468.33 Q217.685 1459.58 220.74 1455 Q223.819 1450.39 229.629 1450.39 Z" fill="#000000" fill-rule="nonzero" fill-opacity="1" /><path clip-path="url(#clip830)" d="M471.634 1481.64 L479.273 1481.64 L479.273 1455.28 L470.962 1456.95 L470.962 1452.69 L479.226 1451.02 L483.902 1451.02 L483.902 1481.64 L491.541 1481.64 L491.541 1485.58 L471.634 1485.58 L471.634 1481.64 Z" fill="#000000" fill-rule="nonzero" fill-opacity="1" /><path clip-path="url(#clip830)" d="M727.527 1481.64 L743.847 1481.64 L743.847 1485.58 L721.902 1485.58 L721.902 1481.64 Q724.564 1478.89 729.148 1474.26 Q733.754 1469.61 734.935 1468.27 Q737.18 1465.74 738.06 1464.01 Q738.962 1462.25 738.962 1460.56 Q738.962 1457.8 737.018 1456.07 Q735.097 1454.33 731.995 1454.33 Q729.796 1454.33 727.342 1455.09 Q724.912 1455.86 722.134 1457.41 L722.134 1452.69 Q724.958 1451.55 727.411 1450.97 Q729.865 1450.39 731.902 1450.39 Q737.273 1450.39 740.467 1453.08 Q743.661 1455.77 743.661 1460.26 Q743.661 1462.39 742.851 1464.31 Q742.064 1466.2 739.958 1468.8 Q739.379 1469.47 736.277 1472.69 Q733.175 1475.88 727.527 1481.64 Z" fill="#000000" fill-rule="nonzero" fill-opacity="1" /><path clip-path="url(#clip830)" d="M988.745 1466.95 Q992.101 1467.66 993.976 1469.93 Q995.874 1472.2 995.874 1475.53 Q995.874 1480.65 992.356 1483.45 Q988.837 1486.25 982.356 1486.25 Q980.18 1486.25 977.865 1485.81 Q975.574 1485.39 973.12 1484.54 L973.12 1480.02 Q975.064 1481.16 977.379 1481.74 Q979.694 1482.32 982.217 1482.32 Q986.615 1482.32 988.907 1480.58 Q991.222 1478.84 991.222 1475.53 Q991.222 1472.48 989.069 1470.77 Q986.939 1469.03 983.12 1469.03 L979.092 1469.03 L979.092 1465.19 L983.305 1465.19 Q986.754 1465.19 988.583 1463.82 Q990.411 1462.43 990.411 1459.84 Q990.411 1457.18 988.513 1455.77 Q986.638 1454.33 983.12 1454.33 Q981.199 1454.33 978.999 1454.75 Q976.8 1455.16 974.162 1456.04 L974.162 1451.88 Q976.824 1451.14 979.138 1450.77 Q981.476 1450.39 983.536 1450.39 Q988.861 1450.39 991.962 1452.83 Q995.064 1455.23 995.064 1459.35 Q995.064 1462.22 993.421 1464.21 Q991.777 1466.18 988.745 1466.95 Z" fill="#000000" fill-rule="nonzero" fill-opacity="1" /><path clip-path="url(#clip830)" d="M527.559 1520.52 L567.758 1520.52 L567.758 1525.93 L550.889 1525.93 L550.889 1568.04 L544.428 1568.04 L544.428 1525.93 L527.559 1525.93 L527.559 1520.52 Z" fill="#000000" fill-rule="nonzero" fill-opacity="1" /><path clip-path="url(#clip830)" d="M571.705 1532.4 L577.562 1532.4 L577.562 1568.04 L571.705 1568.04 L571.705 1532.4 M571.705 1518.52 L577.562 1518.52 L577.562 1525.93 L571.705 1525.93 L571.705 1518.52 Z" fill="#000000" fill-rule="nonzero" fill-opacity="1" /><path clip-path="url(#clip830)" d="M617.57 1539.24 Q619.766 1535.29 622.822 1533.41 Q625.877 1531.54 630.015 1531.54 Q635.585 1531.54 638.609 1535.45 Q641.633 1539.33 641.633 1546.53 L641.633 1568.04 L635.744 1568.04 L635.744 1546.72 Q635.744 1541.59 633.93 1539.11 Q632.116 1536.63 628.392 1536.63 Q623.84 1536.63 621.199 1539.65 Q618.557 1542.68 618.557 1547.9 L618.557 1568.04 L612.669 1568.04 L612.669 1546.72 Q612.669 1541.56 610.854 1539.11 Q609.04 1536.63 605.252 1536.63 Q600.765 1536.63 598.123 1539.68 Q595.481 1542.71 595.481 1547.9 L595.481 1568.04 L589.593 1568.04 L589.593 1532.4 L595.481 1532.4 L595.481 1537.93 Q597.486 1534.66 600.287 1533.1 Q603.088 1531.54 606.939 1531.54 Q610.822 1531.54 613.528 1533.51 Q616.265 1535.48 617.57 1539.24 Z" fill="#000000" fill-rule="nonzero" fill-opacity="1" /><path clip-path="url(#clip830)" d="M683.805 1548.76 L683.805 1551.62 L656.878 1551.62 Q657.26 1557.67 660.507 1560.85 Q663.785 1564 669.61 1564 Q672.984 1564 676.135 1563.17 Q679.317 1562.35 682.437 1560.69 L682.437 1566.23 Q679.286 1567.57 675.975 1568.27 Q672.665 1568.97 669.26 1568.97 Q660.73 1568.97 655.733 1564 Q650.767 1559.04 650.767 1550.57 Q650.767 1541.82 655.478 1536.69 Q660.22 1531.54 668.241 1531.54 Q675.434 1531.54 679.604 1536.18 Q683.805 1540.8 683.805 1548.76 M677.949 1547.04 Q677.885 1542.23 675.243 1539.37 Q672.633 1536.5 668.305 1536.5 Q663.403 1536.5 660.443 1539.27 Q657.515 1542.04 657.069 1547.07 L677.949 1547.04 Z" fill="#000000" fill-rule="nonzero" fill-opacity="1" /><path clip-path="url(#clip830)" d="M728.206 1518.58 Q723.941 1525.9 721.872 1533.06 Q719.803 1540.23 719.803 1547.58 Q719.803 1554.93 721.872 1562.16 Q723.973 1569.35 728.206 1576.64 L723.114 1576.64 Q718.339 1569.16 715.952 1561.93 Q713.597 1554.71 713.597 1547.58 Q713.597 1540.48 715.952 1533.29 Q718.307 1526.09 723.114 1518.58 L728.206 1518.58 Z" fill="#000000" fill-rule="nonzero" fill-opacity="1" /><path clip-path="url(#clip830)" d="M762.294 1533.45 L762.294 1538.98 Q759.812 1537.71 757.138 1537.07 Q754.465 1536.44 751.6 1536.44 Q747.24 1536.44 745.043 1537.77 Q742.879 1539.11 742.879 1541.79 Q742.879 1543.82 744.439 1545 Q745.998 1546.15 750.709 1547.2 L752.714 1547.64 Q758.952 1548.98 761.562 1551.43 Q764.204 1553.85 764.204 1558.21 Q764.204 1563.17 760.257 1566.07 Q756.343 1568.97 749.468 1568.97 Q746.603 1568.97 743.484 1568.39 Q740.396 1567.85 736.959 1566.74 L736.959 1560.69 Q740.205 1562.38 743.356 1563.24 Q746.508 1564.07 749.595 1564.07 Q753.733 1564.07 755.961 1562.66 Q758.189 1561.23 758.189 1558.65 Q758.189 1556.27 756.565 1554.99 Q754.974 1553.72 749.531 1552.54 L747.494 1552.07 Q742.052 1550.92 739.633 1548.56 Q737.214 1546.18 737.214 1542.04 Q737.214 1537.01 740.778 1534.27 Q744.343 1531.54 750.9 1531.54 Q754.146 1531.54 757.011 1532.01 Q759.876 1532.49 762.294 1533.45 Z" fill="#000000" fill-rule="nonzero" fill-opacity="1" /><path clip-path="url(#clip830)" d="M772.607 1518.58 L777.699 1518.58 Q782.474 1526.09 784.829 1533.29 Q787.216 1540.48 787.216 1547.58 Q787.216 1554.71 784.829 1561.93 Q782.474 1569.16 777.699 1576.64 L772.607 1576.64 Q776.84 1569.35 778.909 1562.16 Q781.01 1554.93 781.01 1547.58 Q781.01 1540.23 778.909 1533.06 Q776.84 1525.9 772.607 1518.58 Z" fill="#000000" fill-rule="nonzero" fill-opacity="1" /><polyline clip-path="url(#clip830)" style="stroke:#000000; stroke-linecap:round; stroke-linejoin:round; stroke-width:4; stroke-opacity:1; fill:none" points="203.964,1423.18 203.964,47.2441 "/>
<polyline clip-path="url(#clip830)" style="stroke:#000000; stroke-linecap:round; stroke-linejoin:round; stroke-width:4; stroke-opacity:1; fill:none" points="203.964,1372.49 222.861,1372.49 "/>
<polyline clip-path="url(#clip830)" style="stroke:#000000; stroke-linecap:round; stroke-linejoin:round; stroke-width:4; stroke-opacity:1; fill:none" points="203.964,934.577 222.861,934.577 "/>
<polyline clip-path="url(#clip830)" style="stroke:#000000; stroke-linecap:round; stroke-linejoin:round; stroke-width:4; stroke-opacity:1; fill:none" points="203.964,496.668 222.861,496.668 "/>
<polyline clip-path="url(#clip830)" style="stroke:#000000; stroke-linecap:round; stroke-linejoin:round; stroke-width:4; stroke-opacity:1; fill:none" points="203.964,58.7578 222.861,58.7578 "/>
<path clip-path="url(#clip830)" d="M156.019 1358.29 Q152.408 1358.29 150.579 1361.85 Q148.774 1365.39 148.774 1372.52 Q148.774 1379.63 150.579 1383.19 Q152.408 1386.73 156.019 1386.73 Q159.653 1386.73 161.459 1383.19 Q163.288 1379.63 163.288 1372.52 Q163.288 1365.39 161.459 1361.85 Q159.653 1358.29 156.019 1358.29 M156.019 1354.58 Q161.829 1354.58 164.885 1359.19 Q167.964 1363.77 167.964 1372.52 Q167.964 1381.25 164.885 1385.85 Q161.829 1390.44 156.019 1390.44 Q150.209 1390.44 147.13 1385.85 Q144.075 1381.25 144.075 1372.52 Q144.075 1363.77 147.13 1359.19 Q150.209 1354.58 156.019 1354.58 Z" fill="#000000" fill-rule="nonzero" fill-opacity="1" /><path clip-path="url(#clip830)" d="M116.668 947.922 L124.306 947.922 L124.306 921.556 L115.996 923.223 L115.996 918.964 L124.26 917.297 L128.936 917.297 L128.936 947.922 L136.575 947.922 L136.575 951.857 L116.668 951.857 L116.668 947.922 Z" fill="#000000" fill-rule="nonzero" fill-opacity="1" /><path clip-path="url(#clip830)" d="M156.019 920.376 Q152.408 920.376 150.579 923.941 Q148.774 927.482 148.774 934.612 Q148.774 941.718 150.579 945.283 Q152.408 948.825 156.019 948.825 Q159.653 948.825 161.459 945.283 Q163.288 941.718 163.288 934.612 Q163.288 927.482 161.459 923.941 Q159.653 920.376 156.019 920.376 M156.019 916.672 Q161.829 916.672 164.885 921.279 Q167.964 925.862 167.964 934.612 Q167.964 943.339 164.885 947.945 Q161.829 952.529 156.019 952.529 Q150.209 952.529 147.13 947.945 Q144.075 943.339 144.075 934.612 Q144.075 925.862 147.13 921.279 Q150.209 916.672 156.019 916.672 Z" fill="#000000" fill-rule="nonzero" fill-opacity="1" /><path clip-path="url(#clip830)" d="M119.885 510.012 L136.204 510.012 L136.204 513.948 L114.26 513.948 L114.26 510.012 Q116.922 507.258 121.505 502.628 Q126.112 497.975 127.292 496.633 Q129.538 494.11 130.417 492.374 Q131.32 490.614 131.32 488.925 Q131.32 486.17 129.376 484.434 Q127.455 482.698 124.353 482.698 Q122.154 482.698 119.7 483.462 Q117.269 484.225 114.492 485.776 L114.492 481.054 Q117.316 479.92 119.769 479.341 Q122.223 478.763 124.26 478.763 Q129.63 478.763 132.825 481.448 Q136.019 484.133 136.019 488.624 Q136.019 490.753 135.209 492.674 Q134.422 494.573 132.316 497.165 Q131.737 497.836 128.635 501.054 Q125.533 504.248 119.885 510.012 Z" fill="#000000" fill-rule="nonzero" fill-opacity="1" /><path clip-path="url(#clip830)" d="M156.019 482.466 Q152.408 482.466 150.579 486.031 Q148.774 489.573 148.774 496.702 Q148.774 503.809 150.579 507.373 Q152.408 510.915 156.019 510.915 Q159.653 510.915 161.459 507.373 Q163.288 503.809 163.288 496.702 Q163.288 489.573 161.459 486.031 Q159.653 482.466 156.019 482.466 M156.019 478.763 Q161.829 478.763 164.885 483.369 Q167.964 487.952 167.964 496.702 Q167.964 505.429 164.885 510.035 Q161.829 514.619 156.019 514.619 Q150.209 514.619 147.13 510.035 Q144.075 505.429 144.075 496.702 Q144.075 487.952 147.13 483.369 Q150.209 478.763 156.019 478.763 Z" fill="#000000" fill-rule="nonzero" fill-opacity="1" /><path clip-path="url(#clip830)" d="M130.024 57.4036 Q133.38 58.1212 135.255 60.3897 Q137.154 62.6582 137.154 65.9915 Q137.154 71.1073 133.635 73.9082 Q130.117 76.7091 123.635 76.7091 Q121.459 76.7091 119.144 76.2693 Q116.853 75.8526 114.399 74.9961 L114.399 70.4823 Q116.343 71.6165 118.658 72.1952 Q120.973 72.7739 123.496 72.7739 Q127.894 72.7739 130.186 71.0378 Q132.501 69.3017 132.501 65.9915 Q132.501 62.936 130.348 61.2231 Q128.218 59.487 124.399 59.487 L120.371 59.487 L120.371 55.6444 L124.584 55.6444 Q128.033 55.6444 129.862 54.2786 Q131.691 52.8898 131.691 50.2972 Q131.691 47.6352 129.792 46.2231 Q127.917 44.788 124.399 44.788 Q122.478 44.788 120.279 45.2046 Q118.08 45.6213 115.441 46.5009 L115.441 42.3343 Q118.103 41.5935 120.418 41.2232 Q122.755 40.8528 124.816 40.8528 Q130.14 40.8528 133.242 43.2833 Q136.343 45.6907 136.343 49.8111 Q136.343 52.6814 134.7 54.6722 Q133.056 56.6397 130.024 57.4036 Z" fill="#000000" fill-rule="nonzero" fill-opacity="1" /><path clip-path="url(#clip830)" d="M156.019 44.5565 Q152.408 44.5565 150.579 48.1213 Q148.774 51.6629 148.774 58.7925 Q148.774 65.899 150.579 69.4638 Q152.408 73.0054 156.019 73.0054 Q159.653 73.0054 161.459 69.4638 Q163.288 65.899 163.288 58.7925 Q163.288 51.6629 161.459 48.1213 Q159.653 44.5565 156.019 44.5565 M156.019 40.8528 Q161.829 40.8528 164.885 45.4593 Q167.964 50.0426 167.964 58.7925 Q167.964 67.5193 164.885 72.1258 Q161.829 76.7091 156.019 76.7091 Q150.209 76.7091 147.13 72.1258 Q144.075 67.5193 144.075 58.7925 Q144.075 50.0426 147.13 45.4593 Q150.209 40.8528 156.019 40.8528 Z" fill="#000000" fill-rule="nonzero" fill-opacity="1" /><path clip-path="url(#clip830)" d="M39.4334 772.564 Q44.844 772.564 50.9309 774.303 Q56.9856 776.01 61.8809 778.715 Q66.744 781.42 69.9646 784.963 Q73.153 788.505 73.153 791.887 Q73.153 794.045 71.9613 795.655 Q70.7375 797.233 68.7085 798.103 Q66.6474 798.972 64.393 799.391 Q62.1063 799.81 59.6265 799.81 Q55.9228 799.81 51.8971 799.005 Q47.8391 798.199 44.1677 796.847 Q40.464 795.494 37.1146 793.594 Q33.733 791.694 31.2853 789.6 Q28.8055 787.475 27.3562 785.092 Q25.907 782.708 25.907 780.486 Q25.907 778.876 26.6155 777.588 Q27.2918 776.267 28.4834 775.43 Q29.6428 774.593 31.0277 774.013 Q32.4125 773.401 34.0228 773.111 Q35.6009 772.821 36.9214 772.692 Q38.2096 772.564 39.4334 772.564 M35.3433 776.911 Q33.7008 776.911 32.477 777.04 Q31.2209 777.169 29.9649 777.523 Q28.7089 777.878 28.0325 778.65 Q27.3562 779.391 27.3562 780.551 Q27.3562 783.932 34.2805 787.733 Q36.4383 788.956 39.369 790.051 Q42.2997 791.146 43.6846 791.533 Q45.0694 791.919 48.4833 792.821 L48.4833 779.037 Q39.6911 776.911 35.3433 776.911 M50.5766 779.617 L50.5766 793.336 Q58.6281 795.462 63.6522 795.462 Q68.0322 795.462 69.868 794.56 Q71.6715 793.626 71.6715 791.887 Q71.6715 789.89 69.6747 788.022 Q67.6458 786.154 63.9743 784.254 Q59.2078 781.742 50.5766 779.617 Z" fill="#000000" fill-rule="nonzero" fill-opacity="1" /><path clip-path="url(#clip830)" d="M22.9507 728.256 Q30.2712 732.521 37.4327 734.59 Q44.5941 736.658 51.9465 736.658 Q59.2989 736.658 66.5239 734.59 Q73.7172 732.489 81.0059 728.256 L81.0059 733.348 Q73.5262 738.123 66.3011 740.51 Q59.0761 742.865 51.9465 742.865 Q44.8487 742.865 37.6555 740.51 Q30.4622 738.154 22.9507 733.348 L22.9507 728.256 Z" fill="#000000" fill-rule="nonzero" fill-opacity="1" /><path clip-path="url(#clip830)" d="M28.1387 706.74 Q28.1387 709.286 29.9211 711.036 Q31.6717 712.787 34.218 712.787 Q36.7324 712.787 38.483 711.036 Q40.2017 709.286 40.2017 706.74 Q40.2017 704.193 38.483 702.443 Q36.7324 700.692 34.218 700.692 Q31.7035 700.692 29.9211 702.475 Q28.1387 704.225 28.1387 706.74 M24.0328 706.74 Q24.0328 704.703 24.8286 702.825 Q25.5924 700.947 27.0566 699.578 Q28.4888 698.114 30.3031 697.382 Q32.1173 696.65 34.218 696.65 Q38.4193 696.65 41.3476 699.61 Q44.244 702.538 44.244 706.803 Q44.244 711.1 41.3794 713.965 Q38.5148 716.829 34.218 716.829 Q29.953 716.829 26.9929 713.901 Q24.0328 710.973 24.0328 706.74 Z" fill="#000000" fill-rule="nonzero" fill-opacity="1" /><path clip-path="url(#clip830)" d="M22.9507 685.224 L22.9507 680.131 Q30.4622 675.357 37.6555 673.001 Q44.8487 670.614 51.9465 670.614 Q59.0761 670.614 66.3011 673.001 Q73.5262 675.357 81.0059 680.131 L81.0059 685.224 Q73.7172 680.99 66.5239 678.921 Q59.2989 676.821 51.9465 676.821 Q44.5941 676.821 37.4327 678.921 Q30.2712 680.99 22.9507 685.224 Z" fill="#000000" fill-rule="nonzero" fill-opacity="1" /><polyline clip-path="url(#clip832)" style="stroke:#009af9; stroke-linecap:round; stroke-linejoin:round; stroke-width:4; stroke-opacity:1; fill:none" points="229.629,1384.24 254.791,1274.52 279.954,973.679 305.116,761.564 330.278,503.292 355.44,304.238 380.603,167.349 405.765,86.1857 430.927,100.267 456.089,107.556 481.252,162.696 506.414,222.387 531.576,217.218 556.739,272.586 581.901,299.401 607.063,289.929 632.225,240.678 657.388,279.808 682.55,288.181 707.712,263.915 732.874,255.317 758.037,262.134 783.199,278.842 808.361,272.961 833.524,267.226 858.686,264.365 883.848,279.312 909.01,276.157 934.173,268.789 959.335,268.818 984.497,300.051 1009.66,266.701 1034.82,267.598 1059.98,270.891 1085.15,287.369 "/>
<polyline clip-path="url(#clip832)" style="stroke:#e26f46; stroke-linecap:round; stroke-linejoin:round; stroke-width:3; stroke-opacity:1; fill:none" stroke-dasharray="12, 6, 2, 6" points="229.629,1383.89 254.791,1273.56 279.954,977.247 305.116,746.506 330.278,501.849 355.44,305.679 380.603,171.133 405.765,92.4572 430.927,98.8449 456.089,114.539 481.252,164.563 506.414,223.536 531.576,229.648 556.739,270.468 581.901,299.194 607.063,295.147 632.225,251.657 657.388,271.697 682.55,285.271 707.712,268.792 732.874,257.075 758.037,260.272 783.199,275.32 808.361,274.388 833.524,268.806 858.686,264.908 883.848,276.189 909.01,276.682 934.173,270.405 959.335,268.704 984.497,293.682 1009.66,273.132 1034.82,267.654 1059.98,269.594 1085.15,283.865 "/>
<path clip-path="url(#clip830)" d="M961.069 1377.32 L1080.58 1377.32 L1080.58 1221.8 L961.069 1221.8  Z" fill="#ffffff" fill-rule="evenodd" fill-opacity="1"/>
<polyline clip-path="url(#clip830)" style="stroke:#000000; stroke-linecap:round; stroke-linejoin:round; stroke-width:4; stroke-opacity:1; fill:none" points="961.069,1377.32 1080.58,1377.32 1080.58,1221.8 961.069,1221.8 961.069,1377.32 "/>
<polyline clip-path="url(#clip830)" style="stroke:#009af9; stroke-linecap:round; stroke-linejoin:round; stroke-width:4; stroke-opacity:1; fill:none" points="971.145,1273.64 1031.6,1273.64 "/>
<path clip-path="url(#clip830)" d="M1068.45 1260.37 Q1066.97 1260.37 1066.22 1260.51 Q1065.48 1260.63 1065.29 1260.8 Q1065.1 1260.96 1064.89 1261.38 L1054.58 1283.3 Q1053.48 1285.65 1051.42 1287.33 Q1049.38 1289.02 1046.81 1289.02 Q1044.65 1289.02 1043.15 1287.71 Q1041.68 1286.42 1041.68 1284.59 Q1041.68 1283.28 1042.5 1282.53 Q1043.32 1281.81 1044.42 1281.81 Q1045.64 1281.81 1046.41 1282.58 Q1047.21 1283.35 1047.21 1284.55 Q1047.21 1285.32 1046.88 1285.9 Q1046.55 1286.51 1046.25 1286.72 Q1045.96 1286.96 1045.66 1287.1 Q1046.15 1287.29 1046.81 1287.29 Q1047.79 1287.29 1048.63 1286.89 Q1049.5 1286.51 1050.06 1286 Q1050.65 1285.51 1051.23 1284.62 Q1051.82 1283.75 1052.1 1283.19 Q1052.38 1282.65 1052.8 1281.71 L1053.9 1279.42 L1044.93 1260.37 L1041.87 1260.37 L1041.87 1258.13 L1047.35 1258.27 L1053.3 1258.13 L1053.3 1260.37 L1050.7 1260.37 L1056.79 1273.33 L1062.31 1261.52 L1062.55 1260.96 Q1062.55 1260.7 1061.99 1260.56 Q1061.42 1260.4 1060.86 1260.4 L1060.3 1260.37 L1060.3 1258.13 L1064.66 1258.27 Q1066.72 1258.27 1068.45 1258.13 L1068.45 1260.37 Z" fill="#000000" fill-rule="nonzero" fill-opacity="1" /><polyline clip-path="url(#clip830)" style="stroke:#e26f46; stroke-linecap:round; stroke-linejoin:round; stroke-width:3; stroke-opacity:1; fill:none" stroke-dasharray="12, 6, 2, 6" points="971.145,1325.48 1031.6,1325.48 "/>
<path clip-path="url(#clip830)" d="M1064.26 1309.2 L1063.85 1309.87 Q1061.31 1308.77 1058.15 1307.01 Q1054.98 1308.77 1052.44 1309.87 L1052.05 1309.2 Q1054.82 1306.79 1058.15 1304.93 Q1061.51 1306.8 1064.26 1309.2 Z" fill="#000000" fill-rule="nonzero" fill-opacity="1" /><path clip-path="url(#clip830)" d="M1068.45 1317.22 Q1066.97 1317.22 1066.22 1317.36 Q1065.48 1317.48 1065.29 1317.64 Q1065.1 1317.8 1064.89 1318.23 L1054.58 1340.15 Q1053.48 1342.49 1051.42 1344.18 Q1049.38 1345.86 1046.81 1345.86 Q1044.65 1345.86 1043.15 1344.55 Q1041.68 1343.26 1041.68 1341.44 Q1041.68 1340.13 1042.5 1339.38 Q1043.32 1338.65 1044.42 1338.65 Q1045.64 1338.65 1046.41 1339.42 Q1047.21 1340.2 1047.21 1341.39 Q1047.21 1342.16 1046.88 1342.75 Q1046.55 1343.36 1046.25 1343.57 Q1045.96 1343.8 1045.66 1343.94 Q1046.15 1344.13 1046.81 1344.13 Q1047.79 1344.13 1048.63 1343.73 Q1049.5 1343.36 1050.06 1342.84 Q1050.65 1342.35 1051.23 1341.46 Q1051.82 1340.59 1052.1 1340.03 Q1052.38 1339.49 1052.8 1338.56 L1053.9 1336.26 L1044.93 1317.22 L1041.87 1317.22 L1041.87 1314.97 L1047.35 1315.11 L1053.3 1314.97 L1053.3 1317.22 L1050.7 1317.22 L1056.79 1330.17 L1062.31 1318.37 L1062.55 1317.8 Q1062.55 1317.55 1061.99 1317.41 Q1061.42 1317.24 1060.86 1317.24 L1060.3 1317.22 L1060.3 1314.97 L1064.66 1315.11 Q1066.72 1315.11 1068.45 1314.97 L1068.45 1317.22 Z" fill="#000000" fill-rule="nonzero" fill-opacity="1" /><path clip-path="url(#clip830)" d="M1445.91 398.692 L2352.76 398.692 L2352.76 47.2441 L1445.91 47.2441  Z" fill="#ffffff" fill-rule="evenodd" fill-opacity="1"/>
<defs>
  <clipPath id="clip833">
    <rect x="1445" y="47" width="908" height="352"/>
  </clipPath>
</defs>
<polyline clip-path="url(#clip833)" style="stroke:#000000; stroke-linecap:round; stroke-linejoin:round; stroke-width:2; stroke-opacity:0.1; fill:none" points="1471.57,398.692 1471.57,47.2441 "/>
<polyline clip-path="url(#clip833)" style="stroke:#000000; stroke-linecap:round; stroke-linejoin:round; stroke-width:2; stroke-opacity:0.1; fill:none" points="1723.2,398.692 1723.2,47.2441 "/>
<polyline clip-path="url(#clip833)" style="stroke:#000000; stroke-linecap:round; stroke-linejoin:round; stroke-width:2; stroke-opacity:0.1; fill:none" points="1974.82,398.692 1974.82,47.2441 "/>
<polyline clip-path="url(#clip833)" style="stroke:#000000; stroke-linecap:round; stroke-linejoin:round; stroke-width:2; stroke-opacity:0.1; fill:none" points="2226.44,398.692 2226.44,47.2441 "/>
<polyline clip-path="url(#clip833)" style="stroke:#000000; stroke-linecap:round; stroke-linejoin:round; stroke-width:2; stroke-opacity:0.1; fill:none" points="1445.91,385.817 2352.76,385.817 "/>
<polyline clip-path="url(#clip833)" style="stroke:#000000; stroke-linecap:round; stroke-linejoin:round; stroke-width:2; stroke-opacity:0.1; fill:none" points="1445.91,321.402 2352.76,321.402 "/>
<polyline clip-path="url(#clip833)" style="stroke:#000000; stroke-linecap:round; stroke-linejoin:round; stroke-width:2; stroke-opacity:0.1; fill:none" points="1445.91,256.987 2352.76,256.987 "/>
<polyline clip-path="url(#clip833)" style="stroke:#000000; stroke-linecap:round; stroke-linejoin:round; stroke-width:2; stroke-opacity:0.1; fill:none" points="1445.91,192.571 2352.76,192.571 "/>
<polyline clip-path="url(#clip833)" style="stroke:#000000; stroke-linecap:round; stroke-linejoin:round; stroke-width:2; stroke-opacity:0.1; fill:none" points="1445.91,128.156 2352.76,128.156 "/>
<polyline clip-path="url(#clip833)" style="stroke:#000000; stroke-linecap:round; stroke-linejoin:round; stroke-width:2; stroke-opacity:0.1; fill:none" points="1445.91,63.7402 2352.76,63.7402 "/>
<polyline clip-path="url(#clip830)" style="stroke:#000000; stroke-linecap:round; stroke-linejoin:round; stroke-width:4; stroke-opacity:1; fill:none" points="1445.91,398.692 2352.76,398.692 "/>
<polyline clip-path="url(#clip830)" style="stroke:#000000; stroke-linecap:round; stroke-linejoin:round; stroke-width:4; stroke-opacity:1; fill:none" points="1471.57,398.692 1471.57,379.794 "/>
<polyline clip-path="url(#clip830)" style="stroke:#000000; stroke-linecap:round; stroke-linejoin:round; stroke-width:4; stroke-opacity:1; fill:none" points="1723.2,398.692 1723.2,379.794 "/>
<polyline clip-path="url(#clip830)" style="stroke:#000000; stroke-linecap:round; stroke-linejoin:round; stroke-width:4; stroke-opacity:1; fill:none" points="1974.82,398.692 1974.82,379.794 "/>
<polyline clip-path="url(#clip830)" style="stroke:#000000; stroke-linecap:round; stroke-linejoin:round; stroke-width:4; stroke-opacity:1; fill:none" points="2226.44,398.692 2226.44,379.794 "/>
<path clip-path="url(#clip830)" d="M1471.57 429.611 Q1467.96 429.611 1466.13 433.175 Q1464.33 436.717 1464.33 443.847 Q1464.33 450.953 1466.13 454.518 Q1467.96 458.059 1471.57 458.059 Q1475.21 458.059 1477.01 454.518 Q1478.84 450.953 1478.84 443.847 Q1478.84 436.717 1477.01 433.175 Q1475.21 429.611 1471.57 429.611 M1471.57 425.907 Q1477.38 425.907 1480.44 430.513 Q1483.52 435.097 1483.52 443.847 Q1483.52 452.573 1480.44 457.18 Q1477.38 461.763 1471.57 461.763 Q1465.76 461.763 1462.68 457.18 Q1459.63 452.573 1459.63 443.847 Q1459.63 435.097 1462.68 430.513 Q1465.76 425.907 1471.57 425.907 Z" fill="#000000" fill-rule="nonzero" fill-opacity="1" /><path clip-path="url(#clip830)" d="M1713.58 457.157 L1721.22 457.157 L1721.22 430.791 L1712.91 432.458 L1712.91 428.199 L1721.17 426.532 L1725.85 426.532 L1725.85 457.157 L1733.49 457.157 L1733.49 461.092 L1713.58 461.092 L1713.58 457.157 Z" fill="#000000" fill-rule="nonzero" fill-opacity="1" /><path clip-path="url(#clip830)" d="M1969.47 457.157 L1985.79 457.157 L1985.79 461.092 L1963.85 461.092 L1963.85 457.157 Q1966.51 454.402 1971.09 449.772 Q1975.7 445.12 1976.88 443.777 Q1979.12 441.254 1980 439.518 Q1980.91 437.759 1980.91 436.069 Q1980.91 433.314 1978.96 431.578 Q1977.04 429.842 1973.94 429.842 Q1971.74 429.842 1969.29 430.606 Q1966.86 431.37 1964.08 432.921 L1964.08 428.199 Q1966.9 427.064 1969.36 426.486 Q1971.81 425.907 1973.85 425.907 Q1979.22 425.907 1982.41 428.592 Q1985.61 431.277 1985.61 435.768 Q1985.61 437.898 1984.8 439.819 Q1984.01 441.717 1981.9 444.31 Q1981.32 444.981 1978.22 448.198 Q1975.12 451.393 1969.47 457.157 Z" fill="#000000" fill-rule="nonzero" fill-opacity="1" /><path clip-path="url(#clip830)" d="M2230.69 442.458 Q2234.05 443.175 2235.92 445.444 Q2237.82 447.712 2237.82 451.046 Q2237.82 456.161 2234.3 458.962 Q2230.78 461.763 2224.3 461.763 Q2222.12 461.763 2219.81 461.323 Q2217.52 460.907 2215.06 460.05 L2215.06 455.536 Q2217.01 456.671 2219.32 457.249 Q2221.64 457.828 2224.16 457.828 Q2228.56 457.828 2230.85 456.092 Q2233.17 454.356 2233.17 451.046 Q2233.17 447.99 2231.01 446.277 Q2228.88 444.541 2225.06 444.541 L2221.04 444.541 L2221.04 440.698 L2225.25 440.698 Q2228.7 440.698 2230.53 439.333 Q2232.36 437.944 2232.36 435.351 Q2232.36 432.689 2230.46 431.277 Q2228.58 429.842 2225.06 429.842 Q2223.14 429.842 2220.94 430.259 Q2218.74 430.675 2216.11 431.555 L2216.11 427.388 Q2218.77 426.648 2221.08 426.277 Q2223.42 425.907 2225.48 425.907 Q2230.8 425.907 2233.91 428.337 Q2237.01 430.745 2237.01 434.865 Q2237.01 437.736 2235.36 439.726 Q2233.72 441.694 2230.69 442.458 Z" fill="#000000" fill-rule="nonzero" fill-opacity="1" /><polyline clip-path="url(#clip830)" style="stroke:#000000; stroke-linecap:round; stroke-linejoin:round; stroke-width:4; stroke-opacity:1; fill:none" points="1445.91,398.692 1445.91,47.2441 "/>
<polyline clip-path="url(#clip830)" style="stroke:#000000; stroke-linecap:round; stroke-linejoin:round; stroke-width:4; stroke-opacity:1; fill:none" points="1445.91,385.817 1464.81,385.817 "/>
<polyline clip-path="url(#clip830)" style="stroke:#000000; stroke-linecap:round; stroke-linejoin:round; stroke-width:4; stroke-opacity:1; fill:none" points="1445.91,321.402 1464.81,321.402 "/>
<polyline clip-path="url(#clip830)" style="stroke:#000000; stroke-linecap:round; stroke-linejoin:round; stroke-width:4; stroke-opacity:1; fill:none" points="1445.91,256.987 1464.81,256.987 "/>
<polyline clip-path="url(#clip830)" style="stroke:#000000; stroke-linecap:round; stroke-linejoin:round; stroke-width:4; stroke-opacity:1; fill:none" points="1445.91,192.571 1464.81,192.571 "/>
<polyline clip-path="url(#clip830)" style="stroke:#000000; stroke-linecap:round; stroke-linejoin:round; stroke-width:4; stroke-opacity:1; fill:none" points="1445.91,128.156 1464.81,128.156 "/>
<polyline clip-path="url(#clip830)" style="stroke:#000000; stroke-linecap:round; stroke-linejoin:round; stroke-width:4; stroke-opacity:1; fill:none" points="1445.91,63.7402 1464.81,63.7402 "/>
<path clip-path="url(#clip830)" d="M1352.73 371.616 Q1349.12 371.616 1347.29 375.181 Q1345.49 378.723 1345.49 385.852 Q1345.49 392.959 1347.29 396.523 Q1349.12 400.065 1352.73 400.065 Q1356.37 400.065 1358.17 396.523 Q1360 392.959 1360 385.852 Q1360 378.723 1358.17 375.181 Q1356.37 371.616 1352.73 371.616 M1352.73 367.912 Q1358.54 367.912 1361.6 372.519 Q1364.68 377.102 1364.68 385.852 Q1364.68 394.579 1361.6 399.185 Q1358.54 403.769 1352.73 403.769 Q1346.92 403.769 1343.84 399.185 Q1340.79 394.579 1340.79 385.852 Q1340.79 377.102 1343.84 372.519 Q1346.92 367.912 1352.73 367.912 Z" fill="#000000" fill-rule="nonzero" fill-opacity="1" /><path clip-path="url(#clip830)" d="M1372.89 397.218 L1377.78 397.218 L1377.78 403.097 L1372.89 403.097 L1372.89 397.218 Z" fill="#000000" fill-rule="nonzero" fill-opacity="1" /><path clip-path="url(#clip830)" d="M1397.96 371.616 Q1394.35 371.616 1392.52 375.181 Q1390.72 378.723 1390.72 385.852 Q1390.72 392.959 1392.52 396.523 Q1394.35 400.065 1397.96 400.065 Q1401.6 400.065 1403.4 396.523 Q1405.23 392.959 1405.23 385.852 Q1405.23 378.723 1403.4 375.181 Q1401.6 371.616 1397.96 371.616 M1397.96 367.912 Q1403.77 367.912 1406.83 372.519 Q1409.91 377.102 1409.91 385.852 Q1409.91 394.579 1406.83 399.185 Q1403.77 403.769 1397.96 403.769 Q1392.15 403.769 1389.07 399.185 Q1386.02 394.579 1386.02 385.852 Q1386.02 377.102 1389.07 372.519 Q1392.15 367.912 1397.96 367.912 Z" fill="#000000" fill-rule="nonzero" fill-opacity="1" /><path clip-path="url(#clip830)" d="M1353.96 307.201 Q1350.35 307.201 1348.52 310.765 Q1346.71 314.307 1346.71 321.437 Q1346.71 328.543 1348.52 332.108 Q1350.35 335.65 1353.96 335.65 Q1357.59 335.65 1359.4 332.108 Q1361.23 328.543 1361.23 321.437 Q1361.23 314.307 1359.4 310.765 Q1357.59 307.201 1353.96 307.201 M1353.96 303.497 Q1359.77 303.497 1362.82 308.103 Q1365.9 312.687 1365.9 321.437 Q1365.9 330.164 1362.82 334.77 Q1359.77 339.353 1353.96 339.353 Q1348.15 339.353 1345.07 334.77 Q1342.01 330.164 1342.01 321.437 Q1342.01 312.687 1345.07 308.103 Q1348.15 303.497 1353.96 303.497 Z" fill="#000000" fill-rule="nonzero" fill-opacity="1" /><path clip-path="url(#clip830)" d="M1374.12 332.802 L1379.01 332.802 L1379.01 338.682 L1374.12 338.682 L1374.12 332.802 Z" fill="#000000" fill-rule="nonzero" fill-opacity="1" /><path clip-path="url(#clip830)" d="M1390 334.747 L1397.64 334.747 L1397.64 308.381 L1389.33 310.048 L1389.33 305.789 L1397.59 304.122 L1402.27 304.122 L1402.27 334.747 L1409.91 334.747 L1409.91 338.682 L1390 338.682 L1390 334.747 Z" fill="#000000" fill-rule="nonzero" fill-opacity="1" /><path clip-path="url(#clip830)" d="M1354.33 242.785 Q1350.72 242.785 1348.89 246.35 Q1347.08 249.892 1347.08 257.021 Q1347.08 264.128 1348.89 267.693 Q1350.72 271.234 1354.33 271.234 Q1357.96 271.234 1359.77 267.693 Q1361.6 264.128 1361.6 257.021 Q1361.6 249.892 1359.77 246.35 Q1357.96 242.785 1354.33 242.785 M1354.33 239.082 Q1360.14 239.082 1363.2 243.688 Q1366.27 248.271 1366.27 257.021 Q1366.27 265.748 1363.2 270.355 Q1360.14 274.938 1354.33 274.938 Q1348.52 274.938 1345.44 270.355 Q1342.39 265.748 1342.39 257.021 Q1342.39 248.271 1345.44 243.688 Q1348.52 239.082 1354.33 239.082 Z" fill="#000000" fill-rule="nonzero" fill-opacity="1" /><path clip-path="url(#clip830)" d="M1374.49 268.387 L1379.38 268.387 L1379.38 274.267 L1374.49 274.267 L1374.49 268.387 Z" fill="#000000" fill-rule="nonzero" fill-opacity="1" /><path clip-path="url(#clip830)" d="M1393.59 270.331 L1409.91 270.331 L1409.91 274.267 L1387.96 274.267 L1387.96 270.331 Q1390.63 267.577 1395.21 262.947 Q1399.82 258.294 1401 256.952 Q1403.24 254.429 1404.12 252.693 Q1405.02 250.933 1405.02 249.244 Q1405.02 246.489 1403.08 244.753 Q1401.16 243.017 1398.06 243.017 Q1395.86 243.017 1393.4 243.781 Q1390.97 244.545 1388.19 246.095 L1388.19 241.373 Q1391.02 240.239 1393.47 239.66 Q1395.93 239.082 1397.96 239.082 Q1403.33 239.082 1406.53 241.767 Q1409.72 244.452 1409.72 248.943 Q1409.72 251.072 1408.91 252.994 Q1408.13 254.892 1406.02 257.484 Q1405.44 258.156 1402.34 261.373 Q1399.24 264.568 1393.59 270.331 Z" fill="#000000" fill-rule="nonzero" fill-opacity="1" /><path clip-path="url(#clip830)" d="M1353.38 178.37 Q1349.77 178.37 1347.94 181.935 Q1346.13 185.476 1346.13 192.606 Q1346.13 199.712 1347.94 203.277 Q1349.77 206.819 1353.38 206.819 Q1357.01 206.819 1358.82 203.277 Q1360.65 199.712 1360.65 192.606 Q1360.65 185.476 1358.82 181.935 Q1357.01 178.37 1353.38 178.37 M1353.38 174.666 Q1359.19 174.666 1362.25 179.273 Q1365.32 183.856 1365.32 192.606 Q1365.32 201.333 1362.25 205.939 Q1359.19 210.522 1353.38 210.522 Q1347.57 210.522 1344.49 205.939 Q1341.44 201.333 1341.44 192.606 Q1341.44 183.856 1344.49 179.273 Q1347.57 174.666 1353.38 174.666 Z" fill="#000000" fill-rule="nonzero" fill-opacity="1" /><path clip-path="url(#clip830)" d="M1373.54 203.972 L1378.43 203.972 L1378.43 209.851 L1373.54 209.851 L1373.54 203.972 Z" fill="#000000" fill-rule="nonzero" fill-opacity="1" /><path clip-path="url(#clip830)" d="M1402.78 191.217 Q1406.13 191.935 1408.01 194.203 Q1409.91 196.472 1409.91 199.805 Q1409.91 204.921 1406.39 207.721 Q1402.87 210.522 1396.39 210.522 Q1394.21 210.522 1391.9 210.083 Q1389.61 209.666 1387.15 208.809 L1387.15 204.296 Q1389.1 205.43 1391.41 206.009 Q1393.73 206.587 1396.25 206.587 Q1400.65 206.587 1402.94 204.851 Q1405.26 203.115 1405.26 199.805 Q1405.26 196.749 1403.1 195.036 Q1400.97 193.3 1397.15 193.3 L1393.13 193.3 L1393.13 189.458 L1397.34 189.458 Q1400.79 189.458 1402.62 188.092 Q1404.44 186.703 1404.44 184.111 Q1404.44 181.448 1402.55 180.036 Q1400.67 178.601 1397.15 178.601 Q1395.23 178.601 1393.03 179.018 Q1390.83 179.435 1388.19 180.314 L1388.19 176.148 Q1390.86 175.407 1393.17 175.036 Q1395.51 174.666 1397.57 174.666 Q1402.89 174.666 1406 177.097 Q1409.1 179.504 1409.1 183.624 Q1409.1 186.495 1407.45 188.485 Q1405.81 190.453 1402.78 191.217 Z" fill="#000000" fill-rule="nonzero" fill-opacity="1" /><path clip-path="url(#clip830)" d="M1352.25 113.954 Q1348.63 113.954 1346.81 117.519 Q1345 121.061 1345 128.19 Q1345 135.297 1346.81 138.862 Q1348.63 142.403 1352.25 142.403 Q1355.88 142.403 1357.69 138.862 Q1359.51 135.297 1359.51 128.19 Q1359.51 121.061 1357.69 117.519 Q1355.88 113.954 1352.25 113.954 M1352.25 110.251 Q1358.06 110.251 1361.11 114.857 Q1364.19 119.44 1364.19 128.19 Q1364.19 136.917 1361.11 141.524 Q1358.06 146.107 1352.25 146.107 Q1346.44 146.107 1343.36 141.524 Q1340.3 136.917 1340.3 128.19 Q1340.3 119.44 1343.36 114.857 Q1346.44 110.251 1352.25 110.251 Z" fill="#000000" fill-rule="nonzero" fill-opacity="1" /><path clip-path="url(#clip830)" d="M1372.41 139.556 L1377.29 139.556 L1377.29 145.436 L1372.41 145.436 L1372.41 139.556 Z" fill="#000000" fill-rule="nonzero" fill-opacity="1" /><path clip-path="url(#clip830)" d="M1400.32 114.95 L1388.52 133.399 L1400.32 133.399 L1400.32 114.95 M1399.1 110.876 L1404.98 110.876 L1404.98 133.399 L1409.91 133.399 L1409.91 137.288 L1404.98 137.288 L1404.98 145.436 L1400.32 145.436 L1400.32 137.288 L1384.72 137.288 L1384.72 132.774 L1399.1 110.876 Z" fill="#000000" fill-rule="nonzero" fill-opacity="1" /><path clip-path="url(#clip830)" d="M1353.73 49.5389 Q1350.12 49.5389 1348.29 53.1037 Q1346.48 56.6454 1346.48 63.7749 Q1346.48 70.8814 1348.29 74.4462 Q1350.12 77.9878 1353.73 77.9878 Q1357.36 77.9878 1359.17 74.4462 Q1361 70.8814 1361 63.7749 Q1361 56.6454 1359.17 53.1037 Q1357.36 49.5389 1353.73 49.5389 M1353.73 45.8352 Q1359.54 45.8352 1362.59 50.4417 Q1365.67 55.025 1365.67 63.7749 Q1365.67 72.5017 1362.59 77.1082 Q1359.54 81.6915 1353.73 81.6915 Q1347.92 81.6915 1344.84 77.1082 Q1341.78 72.5017 1341.78 63.7749 Q1341.78 55.025 1344.84 50.4417 Q1347.92 45.8352 1353.73 45.8352 Z" fill="#000000" fill-rule="nonzero" fill-opacity="1" /><path clip-path="url(#clip830)" d="M1373.89 75.1406 L1378.77 75.1406 L1378.77 81.0202 L1373.89 81.0202 L1373.89 75.1406 Z" fill="#000000" fill-rule="nonzero" fill-opacity="1" /><path clip-path="url(#clip830)" d="M1389.01 46.4602 L1407.36 46.4602 L1407.36 50.3954 L1393.29 50.3954 L1393.29 58.8676 Q1394.31 58.5203 1395.32 58.3583 Q1396.34 58.1731 1397.36 58.1731 Q1403.15 58.1731 1406.53 61.3444 Q1409.91 64.5157 1409.91 69.9323 Q1409.91 75.511 1406.44 78.6128 Q1402.96 81.6915 1396.64 81.6915 Q1394.47 81.6915 1392.2 81.3211 Q1389.95 80.9508 1387.55 80.21 L1387.55 75.511 Q1389.63 76.6452 1391.85 77.2008 Q1394.07 77.7563 1396.55 77.7563 Q1400.56 77.7563 1402.89 75.6499 Q1405.23 73.5434 1405.23 69.9323 Q1405.23 66.3212 1402.89 64.2148 Q1400.56 62.1083 1396.55 62.1083 Q1394.68 62.1083 1392.8 62.5249 Q1390.95 62.9416 1389.01 63.8212 L1389.01 46.4602 Z" fill="#000000" fill-rule="nonzero" fill-opacity="1" /><path clip-path="url(#clip830)" d="M1265.47 298.084 Q1270.89 298.084 1276.97 299.823 Q1283.03 301.53 1287.92 304.235 Q1292.79 306.941 1296.01 310.483 Q1299.19 314.026 1299.19 317.408 Q1299.19 319.565 1298 321.176 Q1296.78 322.754 1294.75 323.623 Q1292.69 324.493 1290.43 324.912 Q1288.15 325.33 1285.67 325.33 Q1281.96 325.33 1277.94 324.525 Q1273.88 323.72 1270.21 322.367 Q1266.51 321.015 1263.16 319.115 Q1259.77 317.214 1257.33 315.121 Q1254.85 312.995 1253.4 310.612 Q1251.95 308.229 1251.95 306.007 Q1251.95 304.396 1252.66 303.108 Q1253.33 301.788 1254.52 300.95 Q1255.68 300.113 1257.07 299.533 Q1258.45 298.921 1260.06 298.632 Q1261.64 298.342 1262.96 298.213 Q1264.25 298.084 1265.47 298.084 M1261.38 302.432 Q1259.74 302.432 1258.52 302.561 Q1257.26 302.69 1256.01 303.044 Q1254.75 303.398 1254.07 304.171 Q1253.4 304.912 1253.4 306.071 Q1253.4 309.453 1260.32 313.253 Q1262.48 314.477 1265.41 315.572 Q1268.34 316.667 1269.73 317.053 Q1271.11 317.44 1274.52 318.342 L1274.52 304.558 Q1265.73 302.432 1261.38 302.432 M1276.62 305.137 L1276.62 318.857 Q1284.67 320.983 1289.69 320.983 Q1294.07 320.983 1295.91 320.081 Q1297.71 319.147 1297.71 317.408 Q1297.71 315.411 1295.72 313.543 Q1293.69 311.675 1290.02 309.775 Q1285.25 307.263 1276.62 305.137 Z" fill="#000000" fill-rule="nonzero" fill-opacity="1" /><path clip-path="url(#clip830)" d="M1248.99 253.776 Q1256.31 258.041 1263.47 260.11 Q1270.64 262.179 1277.99 262.179 Q1285.34 262.179 1292.57 260.11 Q1299.76 258.009 1307.05 253.776 L1307.05 258.869 Q1299.57 263.643 1292.34 266.03 Q1285.12 268.386 1277.99 268.386 Q1270.89 268.386 1263.7 266.03 Q1256.5 263.675 1248.99 258.869 L1248.99 253.776 Z" fill="#000000" fill-rule="nonzero" fill-opacity="1" /><path clip-path="url(#clip830)" d="M1268.28 221.757 Q1267.71 222.743 1267.45 223.921 Q1267.17 225.067 1267.17 226.467 Q1267.17 231.433 1270.41 234.106 Q1273.63 236.748 1279.67 236.748 L1298.45 236.748 L1298.45 242.636 L1262.81 242.636 L1262.81 236.748 L1268.34 236.748 Q1265.1 234.902 1263.54 231.942 Q1261.95 228.982 1261.95 224.749 Q1261.95 224.144 1262.04 223.412 Q1262.11 222.68 1262.26 221.789 L1268.28 221.757 Z" fill="#000000" fill-rule="nonzero" fill-opacity="1" /><path clip-path="url(#clip830)" d="M1280.53 199.413 Q1280.53 206.511 1282.16 209.248 Q1283.78 211.985 1287.7 211.985 Q1290.81 211.985 1292.66 209.948 Q1294.48 207.879 1294.48 204.347 Q1294.48 199.477 1291.04 196.549 Q1287.57 193.588 1281.84 193.588 L1280.53 193.588 L1280.53 199.413 M1278.12 187.732 L1298.45 187.732 L1298.45 193.588 L1293.04 193.588 Q1296.29 195.594 1297.85 198.586 Q1299.38 201.577 1299.38 205.906 Q1299.38 211.381 1296.32 214.627 Q1293.23 217.842 1288.08 217.842 Q1282.06 217.842 1279.01 213.831 Q1275.95 209.789 1275.95 201.8 L1275.95 193.588 L1275.38 193.588 Q1271.34 193.588 1269.14 196.262 Q1266.91 198.904 1266.91 203.71 Q1266.91 206.766 1267.64 209.662 Q1268.38 212.558 1269.84 215.232 L1264.43 215.232 Q1263.19 212.017 1262.58 208.993 Q1261.95 205.97 1261.95 203.105 Q1261.95 195.371 1265.96 191.551 Q1269.97 187.732 1278.12 187.732 Z" fill="#000000" fill-rule="nonzero" fill-opacity="1" /><path clip-path="url(#clip830)" d="M1268.22 152.211 L1248.93 152.211 L1248.93 146.355 L1298.45 146.355 L1298.45 152.211 L1293.11 152.211 Q1296.29 154.057 1297.85 156.89 Q1299.38 159.691 1299.38 163.638 Q1299.38 170.099 1294.22 174.173 Q1289.06 178.215 1280.66 178.215 Q1272.26 178.215 1267.1 174.173 Q1261.95 170.099 1261.95 163.638 Q1261.95 159.691 1263.51 156.89 Q1265.03 154.057 1268.22 152.211 M1280.66 172.168 Q1287.12 172.168 1290.81 169.526 Q1294.48 166.853 1294.48 162.206 Q1294.48 157.559 1290.81 154.885 Q1287.12 152.211 1280.66 152.211 Q1274.2 152.211 1270.54 154.885 Q1266.85 157.559 1266.85 162.206 Q1266.85 166.853 1270.54 169.526 Q1274.2 172.168 1280.66 172.168 Z" fill="#000000" fill-rule="nonzero" fill-opacity="1" /><path clip-path="url(#clip830)" d="M1248.99 135.215 L1248.99 130.122 Q1256.5 125.348 1263.7 122.993 Q1270.89 120.606 1277.99 120.606 Q1285.12 120.606 1292.34 122.993 Q1299.57 125.348 1307.05 130.122 L1307.05 135.215 Q1299.76 130.982 1292.57 128.913 Q1285.34 126.812 1277.99 126.812 Q1270.64 126.812 1263.47 128.913 Q1256.31 130.982 1248.99 135.215 Z" fill="#000000" fill-rule="nonzero" fill-opacity="1" /><polyline clip-path="url(#clip833)" style="stroke:#009af9; stroke-linecap:round; stroke-linejoin:round; stroke-width:4; stroke-opacity:1; fill:none" points="1471.57,385.817 1496.74,357.845 1521.9,294.391 1547.06,221.321 1572.22,155.93 1597.38,106.984 1622.55,76.5777 1647.71,62.5998 1672.87,60.9303 1698.03,67.006 1723.2,76.7689 1748.36,87.1335 1773.52,96.1141 1798.68,102.729 1823.85,106.777 1849.01,108.574 1874.17,108.697 1899.33,107.782 1924.49,106.395 1949.66,104.96 1974.82,103.743 1999.98,102.866 2025.14,102.346 2050.31,102.132 2075.47,102.14 2100.63,102.282 2125.79,102.48 2150.95,102.678 2176.12,102.843 2201.28,102.959 2226.44,103.026 2251.6,103.051 2276.77,103.047 2301.93,103.026 2327.09,102.997 "/>
<polyline clip-path="url(#clip833)" style="stroke:#e26f46; stroke-linecap:round; stroke-linejoin:round; stroke-width:3; stroke-opacity:1; fill:none" stroke-dasharray="12, 6, 2, 6" points="1471.57,388.745 1496.74,360.419 1521.9,284.346 1547.06,225.107 1572.22,162.295 1597.38,111.932 1622.55,77.3894 1647.71,57.1907 1672.87,58.8307 1698.03,62.8599 1723.2,75.7026 1748.36,90.843 1773.52,92.4121 1798.68,102.892 1823.85,110.267 1849.01,109.228 1874.17,98.0628 1899.33,103.208 1924.49,106.692 1949.66,102.462 1974.82,99.4537 1999.98,100.275 2025.14,104.138 2050.31,103.899 2075.47,102.465 2100.63,101.465 2125.79,104.361 2150.95,104.487 2176.12,102.876 2201.28,102.439 2226.44,108.852 2251.6,103.576 2276.77,102.17 2301.93,102.668 2327.09,106.332 "/>
<path clip-path="url(#clip830)" d="M2203.01 386.977 L2322.53 386.977 L2322.53 231.457 L2203.01 231.457  Z" fill="#ffffff" fill-rule="evenodd" fill-opacity="1"/>
<polyline clip-path="url(#clip830)" style="stroke:#000000; stroke-linecap:round; stroke-linejoin:round; stroke-width:4; stroke-opacity:1; fill:none" points="2203.01,386.977 2322.53,386.977 2322.53,231.457 2203.01,231.457 2203.01,386.977 "/>
<polyline clip-path="url(#clip830)" style="stroke:#009af9; stroke-linecap:round; stroke-linejoin:round; stroke-width:4; stroke-opacity:1; fill:none" points="2213.09,283.297 2273.55,283.297 "/>
<path clip-path="url(#clip830)" d="M2310.63 293.836 L2305.36 293.695 L2299.6 293.836 L2299.6 291.587 L2301.47 291.587 L2296.2 285.357 L2291.54 290.58 L2291.21 291.049 Q2291.21 291.26 2291.75 291.423 Q2292.31 291.587 2292.97 291.587 L2292.97 293.836 L2288.03 293.695 L2283.62 293.836 L2283.62 291.587 Q2285.1 291.587 2285.78 291.564 Q2286.48 291.517 2287.28 291.306 Q2288.07 291.096 2288.47 290.674 L2294.75 283.624 L2287.28 274.794 L2283.86 274.794 L2283.86 272.545 L2289.15 272.686 L2294.94 272.545 L2294.94 274.794 L2293.01 274.794 L2297.72 280.298 L2301.75 275.801 Q2301.77 275.777 2302.15 275.215 Q2301.4 274.794 2300.32 274.794 L2300.32 272.545 L2305.26 272.686 L2309.67 272.545 L2309.67 274.794 Q2307.75 274.794 2306.74 274.934 Q2305.76 275.051 2305.45 275.215 Q2305.17 275.379 2304.77 275.801 L2299.17 282.031 L2307.23 291.587 L2310.63 291.587 L2310.63 293.836 Z" fill="#000000" fill-rule="nonzero" fill-opacity="1" /><polyline clip-path="url(#clip830)" style="stroke:#e26f46; stroke-linecap:round; stroke-linejoin:round; stroke-width:3; stroke-opacity:1; fill:none" stroke-dasharray="12, 6, 2, 6" points="2213.09,335.137 2273.55,335.137 "/>
<path clip-path="url(#clip830)" d="M2306.21 323.615 L2305.8 324.287 Q2303.26 323.189 2300.09 321.434 Q2296.93 323.189 2294.39 324.287 L2293.99 323.615 Q2296.76 321.205 2300.09 319.352 Q2303.45 321.221 2306.21 323.615 Z" fill="#000000" fill-rule="nonzero" fill-opacity="1" /><path clip-path="url(#clip830)" d="M2310.63 350.681 L2305.36 350.54 L2299.6 350.681 L2299.6 348.432 L2301.47 348.432 L2296.2 342.202 L2291.54 347.425 L2291.21 347.893 Q2291.21 348.104 2291.75 348.268 Q2292.31 348.432 2292.97 348.432 L2292.97 350.681 L2288.03 350.54 L2283.62 350.681 L2283.62 348.432 Q2285.1 348.432 2285.78 348.409 Q2286.48 348.362 2287.28 348.151 Q2288.07 347.94 2288.47 347.519 L2294.75 340.468 L2287.28 331.638 L2283.86 331.638 L2283.86 329.39 L2289.15 329.53 L2294.94 329.39 L2294.94 331.638 L2293.01 331.638 L2297.72 337.142 L2301.75 332.645 Q2301.77 332.622 2302.15 332.06 Q2301.4 331.638 2300.32 331.638 L2300.32 329.39 L2305.26 329.53 L2309.67 329.39 L2309.67 331.638 Q2307.75 331.638 2306.74 331.779 Q2305.76 331.896 2305.45 332.06 Q2305.17 332.224 2304.77 332.645 L2299.17 338.876 L2307.23 348.432 L2310.63 348.432 L2310.63 350.681 Z" fill="#000000" fill-rule="nonzero" fill-opacity="1" /><path clip-path="url(#clip830)" d="M1445.91 910.936 L2352.76 910.936 L2352.76 559.488 L1445.91 559.488  Z" fill="#ffffff" fill-rule="evenodd" fill-opacity="1"/>
<defs>
  <clipPath id="clip834">
    <rect x="1445" y="559" width="908" height="352"/>
  </clipPath>
</defs>
<polyline clip-path="url(#clip834)" style="stroke:#000000; stroke-linecap:round; stroke-linejoin:round; stroke-width:2; stroke-opacity:0.1; fill:none" points="1471.57,910.936 1471.57,559.488 "/>
<polyline clip-path="url(#clip834)" style="stroke:#000000; stroke-linecap:round; stroke-linejoin:round; stroke-width:2; stroke-opacity:0.1; fill:none" points="1723.2,910.936 1723.2,559.488 "/>
<polyline clip-path="url(#clip834)" style="stroke:#000000; stroke-linecap:round; stroke-linejoin:round; stroke-width:2; stroke-opacity:0.1; fill:none" points="1974.82,910.936 1974.82,559.488 "/>
<polyline clip-path="url(#clip834)" style="stroke:#000000; stroke-linecap:round; stroke-linejoin:round; stroke-width:2; stroke-opacity:0.1; fill:none" points="2226.44,910.936 2226.44,559.488 "/>
<polyline clip-path="url(#clip834)" style="stroke:#000000; stroke-linecap:round; stroke-linejoin:round; stroke-width:2; stroke-opacity:0.1; fill:none" points="1445.91,848.908 2352.76,848.908 "/>
<polyline clip-path="url(#clip834)" style="stroke:#000000; stroke-linecap:round; stroke-linejoin:round; stroke-width:2; stroke-opacity:0.1; fill:none" points="1445.91,785.273 2352.76,785.273 "/>
<polyline clip-path="url(#clip834)" style="stroke:#000000; stroke-linecap:round; stroke-linejoin:round; stroke-width:2; stroke-opacity:0.1; fill:none" points="1445.91,721.637 2352.76,721.637 "/>
<polyline clip-path="url(#clip834)" style="stroke:#000000; stroke-linecap:round; stroke-linejoin:round; stroke-width:2; stroke-opacity:0.1; fill:none" points="1445.91,658.002 2352.76,658.002 "/>
<polyline clip-path="url(#clip834)" style="stroke:#000000; stroke-linecap:round; stroke-linejoin:round; stroke-width:2; stroke-opacity:0.1; fill:none" points="1445.91,594.367 2352.76,594.367 "/>
<polyline clip-path="url(#clip830)" style="stroke:#000000; stroke-linecap:round; stroke-linejoin:round; stroke-width:4; stroke-opacity:1; fill:none" points="1445.91,910.936 2352.76,910.936 "/>
<polyline clip-path="url(#clip830)" style="stroke:#000000; stroke-linecap:round; stroke-linejoin:round; stroke-width:4; stroke-opacity:1; fill:none" points="1471.57,910.936 1471.57,892.038 "/>
<polyline clip-path="url(#clip830)" style="stroke:#000000; stroke-linecap:round; stroke-linejoin:round; stroke-width:4; stroke-opacity:1; fill:none" points="1723.2,910.936 1723.2,892.038 "/>
<polyline clip-path="url(#clip830)" style="stroke:#000000; stroke-linecap:round; stroke-linejoin:round; stroke-width:4; stroke-opacity:1; fill:none" points="1974.82,910.936 1974.82,892.038 "/>
<polyline clip-path="url(#clip830)" style="stroke:#000000; stroke-linecap:round; stroke-linejoin:round; stroke-width:4; stroke-opacity:1; fill:none" points="2226.44,910.936 2226.44,892.038 "/>
<path clip-path="url(#clip830)" d="M1471.57 941.855 Q1467.96 941.855 1466.13 945.419 Q1464.33 948.961 1464.33 956.091 Q1464.33 963.197 1466.13 966.762 Q1467.96 970.303 1471.57 970.303 Q1475.21 970.303 1477.01 966.762 Q1478.84 963.197 1478.84 956.091 Q1478.84 948.961 1477.01 945.419 Q1475.21 941.855 1471.57 941.855 M1471.57 938.151 Q1477.38 938.151 1480.44 942.757 Q1483.52 947.341 1483.52 956.091 Q1483.52 964.817 1480.44 969.424 Q1477.38 974.007 1471.57 974.007 Q1465.76 974.007 1462.68 969.424 Q1459.63 964.817 1459.63 956.091 Q1459.63 947.341 1462.68 942.757 Q1465.76 938.151 1471.57 938.151 Z" fill="#000000" fill-rule="nonzero" fill-opacity="1" /><path clip-path="url(#clip830)" d="M1713.58 969.401 L1721.22 969.401 L1721.22 943.035 L1712.91 944.702 L1712.91 940.443 L1721.17 938.776 L1725.85 938.776 L1725.85 969.401 L1733.49 969.401 L1733.49 973.336 L1713.58 973.336 L1713.58 969.401 Z" fill="#000000" fill-rule="nonzero" fill-opacity="1" /><path clip-path="url(#clip830)" d="M1969.47 969.401 L1985.79 969.401 L1985.79 973.336 L1963.85 973.336 L1963.85 969.401 Q1966.51 966.646 1971.09 962.016 Q1975.7 957.364 1976.88 956.021 Q1979.12 953.498 1980 951.762 Q1980.91 950.003 1980.91 948.313 Q1980.91 945.558 1978.96 943.822 Q1977.04 942.086 1973.94 942.086 Q1971.74 942.086 1969.29 942.85 Q1966.86 943.614 1964.08 945.165 L1964.08 940.443 Q1966.9 939.308 1969.36 938.73 Q1971.81 938.151 1973.85 938.151 Q1979.22 938.151 1982.41 940.836 Q1985.61 943.521 1985.61 948.012 Q1985.61 950.142 1984.8 952.063 Q1984.01 953.961 1981.9 956.554 Q1981.32 957.225 1978.22 960.442 Q1975.12 963.637 1969.47 969.401 Z" fill="#000000" fill-rule="nonzero" fill-opacity="1" /><path clip-path="url(#clip830)" d="M2230.69 954.702 Q2234.05 955.419 2235.92 957.688 Q2237.82 959.956 2237.82 963.29 Q2237.82 968.405 2234.3 971.206 Q2230.78 974.007 2224.3 974.007 Q2222.12 974.007 2219.81 973.567 Q2217.52 973.151 2215.06 972.294 L2215.06 967.78 Q2217.01 968.915 2219.32 969.493 Q2221.64 970.072 2224.16 970.072 Q2228.56 970.072 2230.85 968.336 Q2233.17 966.6 2233.17 963.29 Q2233.17 960.234 2231.01 958.521 Q2228.88 956.785 2225.06 956.785 L2221.04 956.785 L2221.04 952.942 L2225.25 952.942 Q2228.7 952.942 2230.53 951.577 Q2232.36 950.188 2232.36 947.595 Q2232.36 944.933 2230.46 943.521 Q2228.58 942.086 2225.06 942.086 Q2223.14 942.086 2220.94 942.503 Q2218.74 942.919 2216.11 943.799 L2216.11 939.632 Q2218.77 938.892 2221.08 938.521 Q2223.42 938.151 2225.48 938.151 Q2230.8 938.151 2233.91 940.581 Q2237.01 942.989 2237.01 947.109 Q2237.01 949.979 2235.36 951.97 Q2233.72 953.938 2230.69 954.702 Z" fill="#000000" fill-rule="nonzero" fill-opacity="1" /><polyline clip-path="url(#clip830)" style="stroke:#000000; stroke-linecap:round; stroke-linejoin:round; stroke-width:4; stroke-opacity:1; fill:none" points="1445.91,910.936 1445.91,559.488 "/>
<polyline clip-path="url(#clip830)" style="stroke:#000000; stroke-linecap:round; stroke-linejoin:round; stroke-width:4; stroke-opacity:1; fill:none" points="1445.91,848.908 1464.81,848.908 "/>
<polyline clip-path="url(#clip830)" style="stroke:#000000; stroke-linecap:round; stroke-linejoin:round; stroke-width:4; stroke-opacity:1; fill:none" points="1445.91,785.273 1464.81,785.273 "/>
<polyline clip-path="url(#clip830)" style="stroke:#000000; stroke-linecap:round; stroke-linejoin:round; stroke-width:4; stroke-opacity:1; fill:none" points="1445.91,721.637 1464.81,721.637 "/>
<polyline clip-path="url(#clip830)" style="stroke:#000000; stroke-linecap:round; stroke-linejoin:round; stroke-width:4; stroke-opacity:1; fill:none" points="1445.91,658.002 1464.81,658.002 "/>
<polyline clip-path="url(#clip830)" style="stroke:#000000; stroke-linecap:round; stroke-linejoin:round; stroke-width:4; stroke-opacity:1; fill:none" points="1445.91,594.367 1464.81,594.367 "/>
<path clip-path="url(#clip830)" d="M1352.73 834.706 Q1349.12 834.706 1347.29 838.271 Q1345.49 841.813 1345.49 848.942 Q1345.49 856.049 1347.29 859.614 Q1349.12 863.155 1352.73 863.155 Q1356.37 863.155 1358.17 859.614 Q1360 856.049 1360 848.942 Q1360 841.813 1358.17 838.271 Q1356.37 834.706 1352.73 834.706 M1352.73 831.003 Q1358.54 831.003 1361.6 835.609 Q1364.68 840.192 1364.68 848.942 Q1364.68 857.669 1361.6 862.276 Q1358.54 866.859 1352.73 866.859 Q1346.92 866.859 1343.84 862.276 Q1340.79 857.669 1340.79 848.942 Q1340.79 840.192 1343.84 835.609 Q1346.92 831.003 1352.73 831.003 Z" fill="#000000" fill-rule="nonzero" fill-opacity="1" /><path clip-path="url(#clip830)" d="M1372.89 860.308 L1377.78 860.308 L1377.78 866.188 L1372.89 866.188 L1372.89 860.308 Z" fill="#000000" fill-rule="nonzero" fill-opacity="1" /><path clip-path="url(#clip830)" d="M1397.96 834.706 Q1394.35 834.706 1392.52 838.271 Q1390.72 841.813 1390.72 848.942 Q1390.72 856.049 1392.52 859.614 Q1394.35 863.155 1397.96 863.155 Q1401.6 863.155 1403.4 859.614 Q1405.23 856.049 1405.23 848.942 Q1405.23 841.813 1403.4 838.271 Q1401.6 834.706 1397.96 834.706 M1397.96 831.003 Q1403.77 831.003 1406.83 835.609 Q1409.91 840.192 1409.91 848.942 Q1409.91 857.669 1406.83 862.276 Q1403.77 866.859 1397.96 866.859 Q1392.15 866.859 1389.07 862.276 Q1386.02 857.669 1386.02 848.942 Q1386.02 840.192 1389.07 835.609 Q1392.15 831.003 1397.96 831.003 Z" fill="#000000" fill-rule="nonzero" fill-opacity="1" /><path clip-path="url(#clip830)" d="M1353.38 771.071 Q1349.77 771.071 1347.94 774.636 Q1346.13 778.178 1346.13 785.307 Q1346.13 792.414 1347.94 795.979 Q1349.77 799.52 1353.38 799.52 Q1357.01 799.52 1358.82 795.979 Q1360.65 792.414 1360.65 785.307 Q1360.65 778.178 1358.82 774.636 Q1357.01 771.071 1353.38 771.071 M1353.38 767.368 Q1359.19 767.368 1362.25 771.974 Q1365.32 776.557 1365.32 785.307 Q1365.32 794.034 1362.25 798.641 Q1359.19 803.224 1353.38 803.224 Q1347.57 803.224 1344.49 798.641 Q1341.44 794.034 1341.44 785.307 Q1341.44 776.557 1344.49 771.974 Q1347.57 767.368 1353.38 767.368 Z" fill="#000000" fill-rule="nonzero" fill-opacity="1" /><path clip-path="url(#clip830)" d="M1373.54 796.673 L1378.43 796.673 L1378.43 802.553 L1373.54 802.553 L1373.54 796.673 Z" fill="#000000" fill-rule="nonzero" fill-opacity="1" /><path clip-path="url(#clip830)" d="M1402.78 783.918 Q1406.13 784.636 1408.01 786.904 Q1409.91 789.173 1409.91 792.506 Q1409.91 797.622 1406.39 800.423 Q1402.87 803.224 1396.39 803.224 Q1394.21 803.224 1391.9 802.784 Q1389.61 802.367 1387.15 801.511 L1387.15 796.997 Q1389.1 798.131 1391.41 798.71 Q1393.73 799.289 1396.25 799.289 Q1400.65 799.289 1402.94 797.553 Q1405.26 795.816 1405.26 792.506 Q1405.26 789.451 1403.1 787.738 Q1400.97 786.002 1397.15 786.002 L1393.13 786.002 L1393.13 782.159 L1397.34 782.159 Q1400.79 782.159 1402.62 780.793 Q1404.44 779.405 1404.44 776.812 Q1404.44 774.15 1402.55 772.738 Q1400.67 771.303 1397.15 771.303 Q1395.23 771.303 1393.03 771.719 Q1390.83 772.136 1388.19 773.016 L1388.19 768.849 Q1390.86 768.108 1393.17 767.738 Q1395.51 767.368 1397.57 767.368 Q1402.89 767.368 1406 769.798 Q1409.1 772.205 1409.1 776.326 Q1409.1 779.196 1407.45 781.187 Q1405.81 783.155 1402.78 783.918 Z" fill="#000000" fill-rule="nonzero" fill-opacity="1" /><path clip-path="url(#clip830)" d="M1352.57 707.436 Q1348.96 707.436 1347.13 711.001 Q1345.32 714.543 1345.32 721.672 Q1345.32 728.779 1347.13 732.343 Q1348.96 735.885 1352.57 735.885 Q1356.2 735.885 1358.01 732.343 Q1359.84 728.779 1359.84 721.672 Q1359.84 714.543 1358.01 711.001 Q1356.2 707.436 1352.57 707.436 M1352.57 703.732 Q1358.38 703.732 1361.44 708.339 Q1364.51 712.922 1364.51 721.672 Q1364.51 730.399 1361.44 735.005 Q1358.38 739.589 1352.57 739.589 Q1346.76 739.589 1343.68 735.005 Q1340.63 730.399 1340.63 721.672 Q1340.63 712.922 1343.68 708.339 Q1346.76 703.732 1352.57 703.732 Z" fill="#000000" fill-rule="nonzero" fill-opacity="1" /><path clip-path="url(#clip830)" d="M1372.73 733.038 L1377.62 733.038 L1377.62 738.917 L1372.73 738.917 L1372.73 733.038 Z" fill="#000000" fill-rule="nonzero" fill-opacity="1" /><path clip-path="url(#clip830)" d="M1398.38 719.774 Q1395.23 719.774 1393.38 721.927 Q1391.55 724.08 1391.55 727.83 Q1391.55 731.556 1393.38 733.732 Q1395.23 735.885 1398.38 735.885 Q1401.53 735.885 1403.36 733.732 Q1405.21 731.556 1405.21 727.83 Q1405.21 724.08 1403.36 721.927 Q1401.53 719.774 1398.38 719.774 M1407.66 705.121 L1407.66 709.381 Q1405.9 708.547 1404.1 708.107 Q1402.32 707.668 1400.56 707.668 Q1395.93 707.668 1393.47 710.793 Q1391.04 713.918 1390.69 720.237 Q1392.06 718.223 1394.12 717.158 Q1396.18 716.07 1398.66 716.07 Q1403.87 716.07 1406.88 719.242 Q1409.91 722.39 1409.91 727.83 Q1409.91 733.154 1406.76 736.371 Q1403.61 739.589 1398.38 739.589 Q1392.38 739.589 1389.21 735.005 Q1386.04 730.399 1386.04 721.672 Q1386.04 713.478 1389.93 708.617 Q1393.82 703.732 1400.37 703.732 Q1402.13 703.732 1403.91 704.08 Q1405.72 704.427 1407.66 705.121 Z" fill="#000000" fill-rule="nonzero" fill-opacity="1" /><path clip-path="url(#clip830)" d="M1352.92 643.801 Q1349.31 643.801 1347.48 647.366 Q1345.67 650.907 1345.67 658.037 Q1345.67 665.143 1347.48 668.708 Q1349.31 672.25 1352.92 672.25 Q1356.55 672.25 1358.36 668.708 Q1360.19 665.143 1360.19 658.037 Q1360.19 650.907 1358.36 647.366 Q1356.55 643.801 1352.92 643.801 M1352.92 640.097 Q1358.73 640.097 1361.78 644.704 Q1364.86 649.287 1364.86 658.037 Q1364.86 666.764 1361.78 671.37 Q1358.73 675.954 1352.92 675.954 Q1347.11 675.954 1344.03 671.37 Q1340.97 666.764 1340.97 658.037 Q1340.97 649.287 1344.03 644.704 Q1347.11 640.097 1352.92 640.097 Z" fill="#000000" fill-rule="nonzero" fill-opacity="1" /><path clip-path="url(#clip830)" d="M1373.08 669.403 L1377.96 669.403 L1377.96 675.282 L1373.08 675.282 L1373.08 669.403 Z" fill="#000000" fill-rule="nonzero" fill-opacity="1" /><path clip-path="url(#clip830)" d="M1388.29 674.565 L1388.29 670.305 Q1390.05 671.139 1391.85 671.579 Q1393.66 672.018 1395.39 672.018 Q1400.02 672.018 1402.45 668.917 Q1404.91 665.792 1405.26 659.449 Q1403.91 661.44 1401.85 662.505 Q1399.79 663.569 1397.29 663.569 Q1392.11 663.569 1389.07 660.444 Q1386.07 657.296 1386.07 651.856 Q1386.07 646.532 1389.21 643.315 Q1392.36 640.097 1397.59 640.097 Q1403.59 640.097 1406.74 644.704 Q1409.91 649.287 1409.91 658.037 Q1409.91 666.208 1406.02 671.092 Q1402.15 675.954 1395.6 675.954 Q1393.84 675.954 1392.04 675.606 Q1390.23 675.259 1388.29 674.565 M1397.59 659.912 Q1400.74 659.912 1402.57 657.759 Q1404.42 655.606 1404.42 651.856 Q1404.42 648.13 1402.57 645.977 Q1400.74 643.801 1397.59 643.801 Q1394.44 643.801 1392.59 645.977 Q1390.76 648.13 1390.76 651.856 Q1390.76 655.606 1392.59 657.759 Q1394.44 659.912 1397.59 659.912 Z" fill="#000000" fill-rule="nonzero" fill-opacity="1" /><path clip-path="url(#clip830)" d="M1345.14 607.712 L1352.78 607.712 L1352.78 581.346 L1344.47 583.013 L1344.47 578.754 L1352.73 577.087 L1357.41 577.087 L1357.41 607.712 L1365.05 607.712 L1365.05 611.647 L1345.14 611.647 L1345.14 607.712 Z" fill="#000000" fill-rule="nonzero" fill-opacity="1" /><path clip-path="url(#clip830)" d="M1374.49 605.768 L1379.38 605.768 L1379.38 611.647 L1374.49 611.647 L1374.49 605.768 Z" fill="#000000" fill-rule="nonzero" fill-opacity="1" /><path clip-path="url(#clip830)" d="M1393.59 607.712 L1409.91 607.712 L1409.91 611.647 L1387.96 611.647 L1387.96 607.712 Q1390.63 604.957 1395.21 600.328 Q1399.82 595.675 1401 594.332 Q1403.24 591.809 1404.12 590.073 Q1405.02 588.314 1405.02 586.624 Q1405.02 583.869 1403.08 582.133 Q1401.16 580.397 1398.06 580.397 Q1395.86 580.397 1393.4 581.161 Q1390.97 581.925 1388.19 583.476 L1388.19 578.754 Q1391.02 577.62 1393.47 577.041 Q1395.93 576.462 1397.96 576.462 Q1403.33 576.462 1406.53 579.147 Q1409.72 581.832 1409.72 586.323 Q1409.72 588.453 1408.91 590.374 Q1408.13 592.272 1406.02 594.865 Q1405.44 595.536 1402.34 598.754 Q1399.24 601.948 1393.59 607.712 Z" fill="#000000" fill-rule="nonzero" fill-opacity="1" /><path clip-path="url(#clip830)" d="M1265.64 831.559 Q1268.64 831.559 1274.44 833.072 Q1276.95 833.684 1279.23 834.522 Q1281.49 835.327 1283.68 836.518 Q1285.87 837.71 1287.45 839.095 Q1288.99 840.48 1289.96 842.283 Q1290.92 844.087 1290.92 846.084 Q1290.92 849.24 1289.06 851.108 Q1287.16 852.943 1283.9 853.523 Q1290.92 857.839 1290.92 863.604 Q1290.92 867.178 1288.38 868.853 Q1285.8 870.528 1281.49 870.528 Q1277.85 870.528 1274.08 869.562 Q1266.93 867.726 1261.94 864.151 Q1261.36 863.668 1261.36 862.959 Q1261.36 862.541 1261.49 862.347 Q1261.84 861.768 1262.42 861.768 Q1262.84 861.768 1263.26 862.09 Q1266.38 864.344 1269.06 865.826 Q1271.73 867.307 1274.44 867.984 Q1276.75 868.499 1278.72 868.499 Q1282.04 868.499 1284.1 867.082 Q1286.16 865.632 1286.16 862.766 Q1286.16 860.125 1284.52 857.806 Q1282.84 855.488 1280.04 853.781 Q1276.98 853.684 1274.08 852.943 Q1270.99 852.267 1270.99 850.689 Q1270.99 849.433 1272.7 849.433 Q1273.28 849.433 1274.44 849.691 Q1277.49 850.399 1280.23 851.687 Q1282.91 851.236 1284.55 849.562 Q1286.16 847.887 1286.16 845.214 Q1286.16 842.734 1284.35 840.544 Q1282.55 838.322 1279.91 836.905 Q1277.24 835.456 1274.08 834.65 Q1273.02 834.393 1271.67 834.393 Q1268.06 834.393 1265.84 836.905 Q1265.13 837.613 1264.19 837.613 Q1263.1 837.613 1262.1 836.712 Q1261.04 835.649 1261.04 834.393 Q1261.04 833.459 1261.62 832.879 Q1262.78 831.559 1265.64 831.559 Z" fill="#000000" fill-rule="nonzero" fill-opacity="1" /><path clip-path="url(#clip830)" d="M1240.72 788.989 Q1248.04 793.255 1255.2 795.323 Q1262.37 797.392 1269.72 797.392 Q1277.07 797.392 1284.3 795.323 Q1291.49 793.223 1298.78 788.989 L1298.78 794.082 Q1291.3 798.856 1284.07 801.243 Q1276.85 803.599 1269.72 803.599 Q1262.62 803.599 1255.43 801.243 Q1248.23 798.888 1240.72 794.082 L1240.72 788.989 Z" fill="#000000" fill-rule="nonzero" fill-opacity="1" /><path clip-path="url(#clip830)" d="M1260.01 756.97 Q1259.44 757.957 1259.18 759.134 Q1258.9 760.28 1258.9 761.681 Q1258.9 766.646 1262.14 769.319 Q1265.36 771.961 1271.41 771.961 L1290.18 771.961 L1290.18 777.85 L1254.54 777.85 L1254.54 771.961 L1260.07 771.961 Q1256.83 770.115 1255.27 767.155 Q1253.68 764.195 1253.68 759.962 Q1253.68 759.357 1253.77 758.625 Q1253.84 757.893 1254 757.002 L1260.01 756.97 Z" fill="#000000" fill-rule="nonzero" fill-opacity="1" /><path clip-path="url(#clip830)" d="M1272.26 734.626 Q1272.26 741.724 1273.89 744.461 Q1275.51 747.199 1279.43 747.199 Q1282.55 747.199 1284.39 745.162 Q1286.21 743.093 1286.21 739.56 Q1286.21 734.69 1282.77 731.762 Q1279.3 728.802 1273.57 728.802 L1272.26 728.802 L1272.26 734.626 M1269.85 722.945 L1290.18 722.945 L1290.18 728.802 L1284.77 728.802 Q1288.02 730.807 1289.58 733.799 Q1291.11 736.791 1291.11 741.119 Q1291.11 746.594 1288.05 749.84 Q1284.96 753.055 1279.81 753.055 Q1273.79 753.055 1270.74 749.045 Q1267.68 745.002 1267.68 737.013 L1267.68 728.802 L1267.11 728.802 Q1263.07 728.802 1260.87 731.475 Q1258.64 734.117 1258.64 738.923 Q1258.64 741.979 1259.37 744.875 Q1260.11 747.772 1261.57 750.445 L1256.16 750.445 Q1254.92 747.23 1254.31 744.207 Q1253.68 741.183 1253.68 738.318 Q1253.68 730.584 1257.69 726.765 Q1261.7 722.945 1269.85 722.945 Z" fill="#000000" fill-rule="nonzero" fill-opacity="1" /><path clip-path="url(#clip830)" d="M1259.95 687.425 L1240.66 687.425 L1240.66 681.568 L1290.18 681.568 L1290.18 687.425 L1284.84 687.425 Q1288.02 689.271 1289.58 692.103 Q1291.11 694.904 1291.11 698.851 Q1291.11 705.312 1285.95 709.386 Q1280.79 713.429 1272.39 713.429 Q1263.99 713.429 1258.83 709.386 Q1253.68 705.312 1253.68 698.851 Q1253.68 694.904 1255.24 692.103 Q1256.76 689.271 1259.95 687.425 M1272.39 707.381 Q1278.85 707.381 1282.55 704.739 Q1286.21 702.066 1286.21 697.419 Q1286.21 692.772 1282.55 690.098 Q1278.85 687.425 1272.39 687.425 Q1265.93 687.425 1262.27 690.098 Q1258.58 692.772 1258.58 697.419 Q1258.58 702.066 1262.27 704.739 Q1265.93 707.381 1272.39 707.381 Z" fill="#000000" fill-rule="nonzero" fill-opacity="1" /><path clip-path="url(#clip830)" d="M1242.66 659.097 L1242.66 653.686 L1296.23 670.237 L1296.23 675.648 L1242.66 659.097 Z" fill="#000000" fill-rule="nonzero" fill-opacity="1" /><path clip-path="url(#clip830)" d="M1255.59 624.818 L1261.12 624.818 Q1259.85 627.301 1259.21 629.974 Q1258.58 632.648 1258.58 635.512 Q1258.58 639.873 1259.92 642.069 Q1261.25 644.233 1263.93 644.233 Q1265.96 644.233 1267.14 642.674 Q1268.29 641.114 1269.34 636.404 L1269.78 634.398 Q1271.12 628.16 1273.57 625.55 Q1275.99 622.908 1280.35 622.908 Q1285.31 622.908 1288.21 626.855 Q1291.11 630.77 1291.11 637.645 Q1291.11 640.509 1290.53 643.629 Q1289.99 646.716 1288.88 650.153 L1282.83 650.153 Q1284.52 646.907 1285.38 643.756 Q1286.21 640.605 1286.21 637.517 Q1286.21 633.38 1284.81 631.152 Q1283.37 628.924 1280.79 628.924 Q1278.41 628.924 1277.13 630.547 Q1275.86 632.138 1274.68 637.581 L1274.21 639.618 Q1273.06 645.061 1270.71 647.48 Q1268.32 649.899 1264.18 649.899 Q1259.15 649.899 1256.41 646.334 Q1253.68 642.769 1253.68 636.213 Q1253.68 632.966 1254.15 630.101 Q1254.63 627.237 1255.59 624.818 Z" fill="#000000" fill-rule="nonzero" fill-opacity="1" /><path clip-path="url(#clip830)" d="M1240.72 614.505 L1240.72 609.413 Q1248.23 604.639 1255.43 602.283 Q1262.62 599.896 1269.72 599.896 Q1276.85 599.896 1284.07 602.283 Q1291.3 604.639 1298.78 609.413 L1298.78 614.505 Q1291.49 610.272 1284.3 608.203 Q1277.07 606.103 1269.72 606.103 Q1262.37 606.103 1255.2 608.203 Q1248.04 610.272 1240.72 614.505 Z" fill="#000000" fill-rule="nonzero" fill-opacity="1" /><polyline clip-path="url(#clip834)" style="stroke:#009af9; stroke-linecap:round; stroke-linejoin:round; stroke-width:4; stroke-opacity:1; fill:none" points="1471.57,848.908 1496.74,681.901 1521.9,612.054 1547.06,613.906 1572.22,657.979 1597.38,718.589 1622.55,777.803 1647.71,825.706 1672.87,858.632 1698.03,876.992 1723.2,883.444 1748.36,881.552 1773.52,874.874 1798.68,866.395 1823.85,858.255 1849.01,851.71 1874.17,847.257 1899.33,844.84 1924.49,844.072 1949.66,844.438 1974.82,845.426 1999.98,846.623 2025.14,847.741 2050.31,848.619 2075.47,849.201 2100.63,849.504 2125.79,849.586 2150.95,849.519 2176.12,849.374 2201.28,849.206 2226.44,849.053 2251.6,848.935 2276.77,848.859 2301.93,848.821 2327.09,848.813 "/>
<polyline clip-path="url(#clip834)" style="stroke:#e26f46; stroke-linecap:round; stroke-linejoin:round; stroke-width:3; stroke-opacity:1; fill:none" stroke-dasharray="12, 6, 2, 6" points="1471.57,848.908 1496.74,673.708 1521.9,569.435 1547.06,619.09 1572.22,660.046 1597.38,717.14 1622.55,775.582 1647.71,824.303 1672.87,872.547 1698.03,889.283 1723.2,900.989 1748.36,900.86 1773.52,877.249 1798.68,876.398 1823.85,868.22 1849.01,852.398 1874.17,834.571 1899.33,850.519 1924.49,853.341 1949.66,844.278 1974.82,843.531 1999.98,848.726 2025.14,854.063 2050.31,850.045 2075.47,847.114 2100.63,846.946 2125.79,851.82 2150.95,849.574 2176.12,846.626 2201.28,847.405 2226.44,855.993 2251.6,843.616 2276.77,845.041 2301.93,848.362 2327.09,853.263 "/>
<path clip-path="url(#clip830)" d="M2203.01 726.723 L2322.53 726.723 L2322.53 571.203 L2203.01 571.203  Z" fill="#ffffff" fill-rule="evenodd" fill-opacity="1"/>
<polyline clip-path="url(#clip830)" style="stroke:#000000; stroke-linecap:round; stroke-linejoin:round; stroke-width:4; stroke-opacity:1; fill:none" points="2203.01,726.723 2322.53,726.723 2322.53,571.203 2203.01,571.203 2203.01,726.723 "/>
<polyline clip-path="url(#clip830)" style="stroke:#009af9; stroke-linecap:round; stroke-linejoin:round; stroke-width:4; stroke-opacity:1; fill:none" points="2213.09,623.043 2273.55,623.043 "/>
<path clip-path="url(#clip830)" d="M2310.63 633.582 L2305.36 633.442 L2299.6 633.582 L2299.6 631.334 L2301.47 631.334 L2296.2 625.103 L2291.54 630.326 L2291.21 630.795 Q2291.21 631.006 2291.75 631.17 Q2292.31 631.334 2292.97 631.334 L2292.97 633.582 L2288.03 633.442 L2283.62 633.582 L2283.62 631.334 Q2285.1 631.334 2285.78 631.31 Q2286.48 631.263 2287.28 631.052 Q2288.07 630.842 2288.47 630.42 L2294.75 623.37 L2287.28 614.54 L2283.86 614.54 L2283.86 612.291 L2289.15 612.432 L2294.94 612.291 L2294.94 614.54 L2293.01 614.54 L2297.72 620.044 L2301.75 615.547 Q2301.77 615.523 2302.15 614.961 Q2301.4 614.54 2300.32 614.54 L2300.32 612.291 L2305.26 612.432 L2309.67 612.291 L2309.67 614.54 Q2307.75 614.54 2306.74 614.68 Q2305.76 614.797 2305.45 614.961 Q2305.17 615.125 2304.77 615.547 L2299.17 621.777 L2307.23 631.334 L2310.63 631.334 L2310.63 633.582 Z" fill="#000000" fill-rule="nonzero" fill-opacity="1" /><polyline clip-path="url(#clip830)" style="stroke:#e26f46; stroke-linecap:round; stroke-linejoin:round; stroke-width:3; stroke-opacity:1; fill:none" stroke-dasharray="12, 6, 2, 6" points="2213.09,674.883 2273.55,674.883 "/>
<path clip-path="url(#clip830)" d="M2306.21 663.361 L2305.8 664.033 Q2303.26 662.935 2300.09 661.18 Q2296.93 662.935 2294.39 664.033 L2293.99 663.361 Q2296.76 660.951 2300.09 659.098 Q2303.45 660.967 2306.21 663.361 Z" fill="#000000" fill-rule="nonzero" fill-opacity="1" /><path clip-path="url(#clip830)" d="M2310.63 690.427 L2305.36 690.286 L2299.6 690.427 L2299.6 688.178 L2301.47 688.178 L2296.2 681.948 L2291.54 687.171 L2291.21 687.639 Q2291.21 687.85 2291.75 688.014 Q2292.31 688.178 2292.97 688.178 L2292.97 690.427 L2288.03 690.286 L2283.62 690.427 L2283.62 688.178 Q2285.1 688.178 2285.78 688.155 Q2286.48 688.108 2287.28 687.897 Q2288.07 687.686 2288.47 687.265 L2294.75 680.214 L2287.28 671.384 L2283.86 671.384 L2283.86 669.136 L2289.15 669.276 L2294.94 669.136 L2294.94 671.384 L2293.01 671.384 L2297.72 676.888 L2301.75 672.391 Q2301.77 672.368 2302.15 671.806 Q2301.4 671.384 2300.32 671.384 L2300.32 669.136 L2305.26 669.276 L2309.67 669.136 L2309.67 671.384 Q2307.75 671.384 2306.74 671.525 Q2305.76 671.642 2305.45 671.806 Q2305.17 671.97 2304.77 672.391 L2299.17 678.622 L2307.23 688.178 L2310.63 688.178 L2310.63 690.427 Z" fill="#000000" fill-rule="nonzero" fill-opacity="1" /><path clip-path="url(#clip830)" d="M1445.91 1423.18 L2352.76 1423.18 L2352.76 1071.73 L1445.91 1071.73  Z" fill="#ffffff" fill-rule="evenodd" fill-opacity="1"/>
<defs>
  <clipPath id="clip835">
    <rect x="1445" y="1071" width="908" height="352"/>
  </clipPath>
</defs>
<polyline clip-path="url(#clip835)" style="stroke:#000000; stroke-linecap:round; stroke-linejoin:round; stroke-width:2; stroke-opacity:0.1; fill:none" points="1471.57,1423.18 1471.57,1071.73 "/>
<polyline clip-path="url(#clip835)" style="stroke:#000000; stroke-linecap:round; stroke-linejoin:round; stroke-width:2; stroke-opacity:0.1; fill:none" points="1723.2,1423.18 1723.2,1071.73 "/>
<polyline clip-path="url(#clip835)" style="stroke:#000000; stroke-linecap:round; stroke-linejoin:round; stroke-width:2; stroke-opacity:0.1; fill:none" points="1974.82,1423.18 1974.82,1071.73 "/>
<polyline clip-path="url(#clip835)" style="stroke:#000000; stroke-linecap:round; stroke-linejoin:round; stroke-width:2; stroke-opacity:0.1; fill:none" points="2226.44,1423.18 2226.44,1071.73 "/>
<polyline clip-path="url(#clip835)" style="stroke:#000000; stroke-linecap:round; stroke-linejoin:round; stroke-width:2; stroke-opacity:0.1; fill:none" points="1445.91,1371.85 2352.76,1371.85 "/>
<polyline clip-path="url(#clip835)" style="stroke:#000000; stroke-linecap:round; stroke-linejoin:round; stroke-width:2; stroke-opacity:0.1; fill:none" points="1445.91,1289.32 2352.76,1289.32 "/>
<polyline clip-path="url(#clip835)" style="stroke:#000000; stroke-linecap:round; stroke-linejoin:round; stroke-width:2; stroke-opacity:0.1; fill:none" points="1445.91,1206.79 2352.76,1206.79 "/>
<polyline clip-path="url(#clip835)" style="stroke:#000000; stroke-linecap:round; stroke-linejoin:round; stroke-width:2; stroke-opacity:0.1; fill:none" points="1445.91,1124.25 2352.76,1124.25 "/>
<polyline clip-path="url(#clip830)" style="stroke:#000000; stroke-linecap:round; stroke-linejoin:round; stroke-width:4; stroke-opacity:1; fill:none" points="1445.91,1423.18 2352.76,1423.18 "/>
<polyline clip-path="url(#clip830)" style="stroke:#000000; stroke-linecap:round; stroke-linejoin:round; stroke-width:4; stroke-opacity:1; fill:none" points="1471.57,1423.18 1471.57,1404.28 "/>
<polyline clip-path="url(#clip830)" style="stroke:#000000; stroke-linecap:round; stroke-linejoin:round; stroke-width:4; stroke-opacity:1; fill:none" points="1723.2,1423.18 1723.2,1404.28 "/>
<polyline clip-path="url(#clip830)" style="stroke:#000000; stroke-linecap:round; stroke-linejoin:round; stroke-width:4; stroke-opacity:1; fill:none" points="1974.82,1423.18 1974.82,1404.28 "/>
<polyline clip-path="url(#clip830)" style="stroke:#000000; stroke-linecap:round; stroke-linejoin:round; stroke-width:4; stroke-opacity:1; fill:none" points="2226.44,1423.18 2226.44,1404.28 "/>
<path clip-path="url(#clip830)" d="M1471.57 1454.1 Q1467.96 1454.1 1466.13 1457.66 Q1464.33 1461.2 1464.33 1468.33 Q1464.33 1475.44 1466.13 1479.01 Q1467.96 1482.55 1471.57 1482.55 Q1475.21 1482.55 1477.01 1479.01 Q1478.84 1475.44 1478.84 1468.33 Q1478.84 1461.2 1477.01 1457.66 Q1475.21 1454.1 1471.57 1454.1 M1471.57 1450.39 Q1477.38 1450.39 1480.44 1455 Q1483.52 1459.58 1483.52 1468.33 Q1483.52 1477.06 1480.44 1481.67 Q1477.38 1486.25 1471.57 1486.25 Q1465.76 1486.25 1462.68 1481.67 Q1459.63 1477.06 1459.63 1468.33 Q1459.63 1459.58 1462.68 1455 Q1465.76 1450.39 1471.57 1450.39 Z" fill="#000000" fill-rule="nonzero" fill-opacity="1" /><path clip-path="url(#clip830)" d="M1713.58 1481.64 L1721.22 1481.64 L1721.22 1455.28 L1712.91 1456.95 L1712.91 1452.69 L1721.17 1451.02 L1725.85 1451.02 L1725.85 1481.64 L1733.49 1481.64 L1733.49 1485.58 L1713.58 1485.58 L1713.58 1481.64 Z" fill="#000000" fill-rule="nonzero" fill-opacity="1" /><path clip-path="url(#clip830)" d="M1969.47 1481.64 L1985.79 1481.64 L1985.79 1485.58 L1963.85 1485.58 L1963.85 1481.64 Q1966.51 1478.89 1971.09 1474.26 Q1975.7 1469.61 1976.88 1468.27 Q1979.12 1465.74 1980 1464.01 Q1980.91 1462.25 1980.91 1460.56 Q1980.91 1457.8 1978.96 1456.07 Q1977.04 1454.33 1973.94 1454.33 Q1971.74 1454.33 1969.29 1455.09 Q1966.86 1455.86 1964.08 1457.41 L1964.08 1452.69 Q1966.9 1451.55 1969.36 1450.97 Q1971.81 1450.39 1973.85 1450.39 Q1979.22 1450.39 1982.41 1453.08 Q1985.61 1455.77 1985.61 1460.26 Q1985.61 1462.39 1984.8 1464.31 Q1984.01 1466.2 1981.9 1468.8 Q1981.32 1469.47 1978.22 1472.69 Q1975.12 1475.88 1969.47 1481.64 Z" fill="#000000" fill-rule="nonzero" fill-opacity="1" /><path clip-path="url(#clip830)" d="M2230.69 1466.95 Q2234.05 1467.66 2235.92 1469.93 Q2237.82 1472.2 2237.82 1475.53 Q2237.82 1480.65 2234.3 1483.45 Q2230.78 1486.25 2224.3 1486.25 Q2222.12 1486.25 2219.81 1485.81 Q2217.52 1485.39 2215.06 1484.54 L2215.06 1480.02 Q2217.01 1481.16 2219.32 1481.74 Q2221.64 1482.32 2224.16 1482.32 Q2228.56 1482.32 2230.85 1480.58 Q2233.17 1478.84 2233.17 1475.53 Q2233.17 1472.48 2231.01 1470.77 Q2228.88 1469.03 2225.06 1469.03 L2221.04 1469.03 L2221.04 1465.19 L2225.25 1465.19 Q2228.7 1465.19 2230.53 1463.82 Q2232.36 1462.43 2232.36 1459.84 Q2232.36 1457.18 2230.46 1455.77 Q2228.58 1454.33 2225.06 1454.33 Q2223.14 1454.33 2220.94 1454.75 Q2218.74 1455.16 2216.11 1456.04 L2216.11 1451.88 Q2218.77 1451.14 2221.08 1450.77 Q2223.42 1450.39 2225.48 1450.39 Q2230.8 1450.39 2233.91 1452.83 Q2237.01 1455.23 2237.01 1459.35 Q2237.01 1462.22 2235.36 1464.21 Q2233.72 1466.18 2230.69 1466.95 Z" fill="#000000" fill-rule="nonzero" fill-opacity="1" /><path clip-path="url(#clip830)" d="M1769.5 1520.52 L1809.7 1520.52 L1809.7 1525.93 L1792.83 1525.93 L1792.83 1568.04 L1786.37 1568.04 L1786.37 1525.93 L1769.5 1525.93 L1769.5 1520.52 Z" fill="#000000" fill-rule="nonzero" fill-opacity="1" /><path clip-path="url(#clip830)" d="M1813.65 1532.4 L1819.51 1532.4 L1819.51 1568.04 L1813.65 1568.04 L1813.65 1532.4 M1813.65 1518.52 L1819.51 1518.52 L1819.51 1525.93 L1813.65 1525.93 L1813.65 1518.52 Z" fill="#000000" fill-rule="nonzero" fill-opacity="1" /><path clip-path="url(#clip830)" d="M1859.51 1539.24 Q1861.71 1535.29 1864.77 1533.41 Q1867.82 1531.54 1871.96 1531.54 Q1877.53 1531.54 1880.55 1535.45 Q1883.58 1539.33 1883.58 1546.53 L1883.58 1568.04 L1877.69 1568.04 L1877.69 1546.72 Q1877.69 1541.59 1875.87 1539.11 Q1874.06 1536.63 1870.34 1536.63 Q1865.78 1536.63 1863.14 1539.65 Q1860.5 1542.68 1860.5 1547.9 L1860.5 1568.04 L1854.61 1568.04 L1854.61 1546.72 Q1854.61 1541.56 1852.8 1539.11 Q1850.98 1536.63 1847.2 1536.63 Q1842.71 1536.63 1840.07 1539.68 Q1837.43 1542.71 1837.43 1547.9 L1837.43 1568.04 L1831.54 1568.04 L1831.54 1532.4 L1837.43 1532.4 L1837.43 1537.93 Q1839.43 1534.66 1842.23 1533.1 Q1845.03 1531.54 1848.88 1531.54 Q1852.77 1531.54 1855.47 1533.51 Q1858.21 1535.48 1859.51 1539.24 Z" fill="#000000" fill-rule="nonzero" fill-opacity="1" /><path clip-path="url(#clip830)" d="M1925.75 1548.76 L1925.75 1551.62 L1898.82 1551.62 Q1899.2 1557.67 1902.45 1560.85 Q1905.73 1564 1911.55 1564 Q1914.93 1564 1918.08 1563.17 Q1921.26 1562.35 1924.38 1560.69 L1924.38 1566.23 Q1921.23 1567.57 1917.92 1568.27 Q1914.61 1568.97 1911.2 1568.97 Q1902.67 1568.97 1897.68 1564 Q1892.71 1559.04 1892.71 1550.57 Q1892.71 1541.82 1897.42 1536.69 Q1902.16 1531.54 1910.19 1531.54 Q1917.38 1531.54 1921.55 1536.18 Q1925.75 1540.8 1925.75 1548.76 M1919.89 1547.04 Q1919.83 1542.23 1917.19 1539.37 Q1914.58 1536.5 1910.25 1536.5 Q1905.35 1536.5 1902.39 1539.27 Q1899.46 1542.04 1899.01 1547.07 L1919.89 1547.04 Z" fill="#000000" fill-rule="nonzero" fill-opacity="1" /><path clip-path="url(#clip830)" d="M1970.15 1518.58 Q1965.89 1525.9 1963.82 1533.06 Q1961.75 1540.23 1961.75 1547.58 Q1961.75 1554.93 1963.82 1562.16 Q1965.92 1569.35 1970.15 1576.64 L1965.06 1576.64 Q1960.28 1569.16 1957.9 1561.93 Q1955.54 1554.71 1955.54 1547.58 Q1955.54 1540.48 1957.9 1533.29 Q1960.25 1526.09 1965.06 1518.58 L1970.15 1518.58 Z" fill="#000000" fill-rule="nonzero" fill-opacity="1" /><path clip-path="url(#clip830)" d="M2004.24 1533.45 L2004.24 1538.98 Q2001.76 1537.71 1999.08 1537.07 Q1996.41 1536.44 1993.54 1536.44 Q1989.18 1536.44 1986.99 1537.77 Q1984.82 1539.11 1984.82 1541.79 Q1984.82 1543.82 1986.38 1545 Q1987.94 1546.15 1992.65 1547.2 L1994.66 1547.64 Q2000.9 1548.98 2003.51 1551.43 Q2006.15 1553.85 2006.15 1558.21 Q2006.15 1563.17 2002.2 1566.07 Q1998.29 1568.97 1991.41 1568.97 Q1988.55 1568.97 1985.43 1568.39 Q1982.34 1567.85 1978.9 1566.74 L1978.9 1560.69 Q1982.15 1562.38 1985.3 1563.24 Q1988.45 1564.07 1991.54 1564.07 Q1995.68 1564.07 1997.9 1562.66 Q2000.13 1561.23 2000.13 1558.65 Q2000.13 1556.27 1998.51 1554.99 Q1996.92 1553.72 1991.48 1552.54 L1989.44 1552.07 Q1984 1550.92 1981.58 1548.56 Q1979.16 1546.18 1979.16 1542.04 Q1979.16 1537.01 1982.72 1534.27 Q1986.29 1531.54 1992.84 1531.54 Q1996.09 1531.54 1998.96 1532.01 Q2001.82 1532.49 2004.24 1533.45 Z" fill="#000000" fill-rule="nonzero" fill-opacity="1" /><path clip-path="url(#clip830)" d="M2014.55 1518.58 L2019.64 1518.58 Q2024.42 1526.09 2026.77 1533.29 Q2029.16 1540.48 2029.16 1547.58 Q2029.16 1554.71 2026.77 1561.93 Q2024.42 1569.16 2019.64 1576.64 L2014.55 1576.64 Q2018.78 1569.35 2020.85 1562.16 Q2022.95 1554.93 2022.95 1547.58 Q2022.95 1540.23 2020.85 1533.06 Q2018.78 1525.9 2014.55 1518.58 Z" fill="#000000" fill-rule="nonzero" fill-opacity="1" /><polyline clip-path="url(#clip830)" style="stroke:#000000; stroke-linecap:round; stroke-linejoin:round; stroke-width:4; stroke-opacity:1; fill:none" points="1445.91,1423.18 1445.91,1071.73 "/>
<polyline clip-path="url(#clip830)" style="stroke:#000000; stroke-linecap:round; stroke-linejoin:round; stroke-width:4; stroke-opacity:1; fill:none" points="1445.91,1371.85 1464.81,1371.85 "/>
<polyline clip-path="url(#clip830)" style="stroke:#000000; stroke-linecap:round; stroke-linejoin:round; stroke-width:4; stroke-opacity:1; fill:none" points="1445.91,1289.32 1464.81,1289.32 "/>
<polyline clip-path="url(#clip830)" style="stroke:#000000; stroke-linecap:round; stroke-linejoin:round; stroke-width:4; stroke-opacity:1; fill:none" points="1445.91,1206.79 1464.81,1206.79 "/>
<polyline clip-path="url(#clip830)" style="stroke:#000000; stroke-linecap:round; stroke-linejoin:round; stroke-width:4; stroke-opacity:1; fill:none" points="1445.91,1124.25 1464.81,1124.25 "/>
<path clip-path="url(#clip830)" d="M1272.32 1372.3 L1301.99 1372.3 L1301.99 1376.24 L1272.32 1376.24 L1272.32 1372.3 Z" fill="#000000" fill-rule="nonzero" fill-opacity="1" /><path clip-path="url(#clip830)" d="M1322.08 1357.65 Q1318.47 1357.65 1316.64 1361.22 Q1314.84 1364.76 1314.84 1371.89 Q1314.84 1378.99 1316.64 1382.56 Q1318.47 1386.1 1322.08 1386.1 Q1325.72 1386.1 1327.52 1382.56 Q1329.35 1378.99 1329.35 1371.89 Q1329.35 1364.76 1327.52 1361.22 Q1325.72 1357.65 1322.08 1357.65 M1322.08 1353.95 Q1327.89 1353.95 1330.95 1358.55 Q1334.03 1363.14 1334.03 1371.89 Q1334.03 1380.61 1330.95 1385.22 Q1327.89 1389.8 1322.08 1389.8 Q1316.27 1389.8 1313.2 1385.22 Q1310.14 1380.61 1310.14 1371.89 Q1310.14 1363.14 1313.2 1358.55 Q1316.27 1353.95 1322.08 1353.95 Z" fill="#000000" fill-rule="nonzero" fill-opacity="1" /><path clip-path="url(#clip830)" d="M1342.25 1383.25 L1347.13 1383.25 L1347.13 1389.13 L1342.25 1389.13 L1342.25 1383.25 Z" fill="#000000" fill-rule="nonzero" fill-opacity="1" /><path clip-path="url(#clip830)" d="M1367.32 1357.65 Q1363.7 1357.65 1361.88 1361.22 Q1360.07 1364.76 1360.07 1371.89 Q1360.07 1378.99 1361.88 1382.56 Q1363.7 1386.1 1367.32 1386.1 Q1370.95 1386.1 1372.76 1382.56 Q1374.58 1378.99 1374.58 1371.89 Q1374.58 1364.76 1372.76 1361.22 Q1370.95 1357.65 1367.32 1357.65 M1367.32 1353.95 Q1373.13 1353.95 1376.18 1358.55 Q1379.26 1363.14 1379.26 1371.89 Q1379.26 1380.61 1376.18 1385.22 Q1373.13 1389.8 1367.32 1389.8 Q1361.51 1389.8 1358.43 1385.22 Q1355.37 1380.61 1355.37 1371.89 Q1355.37 1363.14 1358.43 1358.55 Q1361.51 1353.95 1367.32 1353.95 Z" fill="#000000" fill-rule="nonzero" fill-opacity="1" /><path clip-path="url(#clip830)" d="M1400.32 1358.65 L1388.52 1377.1 L1400.32 1377.1 L1400.32 1358.65 M1399.1 1354.57 L1404.98 1354.57 L1404.98 1377.1 L1409.91 1377.1 L1409.91 1380.98 L1404.98 1380.98 L1404.98 1389.13 L1400.32 1389.13 L1400.32 1380.98 L1384.72 1380.98 L1384.72 1376.47 L1399.1 1354.57 Z" fill="#000000" fill-rule="nonzero" fill-opacity="1" /><path clip-path="url(#clip830)" d="M1274.4 1289.77 L1304.08 1289.77 L1304.08 1293.71 L1274.4 1293.71 L1274.4 1289.77 Z" fill="#000000" fill-rule="nonzero" fill-opacity="1" /><path clip-path="url(#clip830)" d="M1324.17 1275.12 Q1320.56 1275.12 1318.73 1278.68 Q1316.92 1282.22 1316.92 1289.35 Q1316.92 1296.46 1318.73 1300.03 Q1320.56 1303.57 1324.17 1303.57 Q1327.8 1303.57 1329.61 1300.03 Q1331.44 1296.46 1331.44 1289.35 Q1331.44 1282.22 1329.61 1278.68 Q1327.8 1275.12 1324.17 1275.12 M1324.17 1271.41 Q1329.98 1271.41 1333.03 1276.02 Q1336.11 1280.6 1336.11 1289.35 Q1336.11 1298.08 1333.03 1302.69 Q1329.98 1307.27 1324.17 1307.27 Q1318.36 1307.27 1315.28 1302.69 Q1312.22 1298.08 1312.22 1289.35 Q1312.22 1280.6 1315.28 1276.02 Q1318.36 1271.41 1324.17 1271.41 Z" fill="#000000" fill-rule="nonzero" fill-opacity="1" /><path clip-path="url(#clip830)" d="M1344.33 1300.72 L1349.21 1300.72 L1349.21 1306.6 L1344.33 1306.6 L1344.33 1300.72 Z" fill="#000000" fill-rule="nonzero" fill-opacity="1" /><path clip-path="url(#clip830)" d="M1369.4 1275.12 Q1365.79 1275.12 1363.96 1278.68 Q1362.15 1282.22 1362.15 1289.35 Q1362.15 1296.46 1363.96 1300.03 Q1365.79 1303.57 1369.4 1303.57 Q1373.03 1303.57 1374.84 1300.03 Q1376.67 1296.46 1376.67 1289.35 Q1376.67 1282.22 1374.84 1278.68 Q1373.03 1275.12 1369.4 1275.12 M1369.4 1271.41 Q1375.21 1271.41 1378.26 1276.02 Q1381.34 1280.6 1381.34 1289.35 Q1381.34 1298.08 1378.26 1302.69 Q1375.21 1307.27 1369.4 1307.27 Q1363.59 1307.27 1360.51 1302.69 Q1357.45 1298.08 1357.45 1289.35 Q1357.45 1280.6 1360.51 1276.02 Q1363.59 1271.41 1369.4 1271.41 Z" fill="#000000" fill-rule="nonzero" fill-opacity="1" /><path clip-path="url(#clip830)" d="M1393.59 1302.66 L1409.91 1302.66 L1409.91 1306.6 L1387.96 1306.6 L1387.96 1302.66 Q1390.63 1299.91 1395.21 1295.28 Q1399.82 1290.63 1401 1289.28 Q1403.24 1286.76 1404.12 1285.03 Q1405.02 1283.27 1405.02 1281.58 Q1405.02 1278.82 1403.08 1277.09 Q1401.16 1275.35 1398.06 1275.35 Q1395.86 1275.35 1393.4 1276.11 Q1390.97 1276.88 1388.19 1278.43 L1388.19 1273.71 Q1391.02 1272.57 1393.47 1271.99 Q1395.93 1271.41 1397.96 1271.41 Q1403.33 1271.41 1406.53 1274.1 Q1409.72 1276.78 1409.72 1281.28 Q1409.72 1283.41 1408.91 1285.33 Q1408.13 1287.22 1406.02 1289.82 Q1405.44 1290.49 1402.34 1293.71 Q1399.24 1296.9 1393.59 1302.66 Z" fill="#000000" fill-rule="nonzero" fill-opacity="1" /><path clip-path="url(#clip830)" d="M1322.57 1192.59 Q1318.96 1192.59 1317.13 1196.15 Q1315.32 1199.69 1315.32 1206.82 Q1315.32 1213.93 1317.13 1217.49 Q1318.96 1221.03 1322.57 1221.03 Q1326.2 1221.03 1328.01 1217.49 Q1329.84 1213.93 1329.84 1206.82 Q1329.84 1199.69 1328.01 1196.15 Q1326.2 1192.59 1322.57 1192.59 M1322.57 1188.88 Q1328.38 1188.88 1331.44 1193.49 Q1334.51 1198.07 1334.51 1206.82 Q1334.51 1215.55 1331.44 1220.16 Q1328.38 1224.74 1322.57 1224.74 Q1316.76 1224.74 1313.68 1220.16 Q1310.63 1215.55 1310.63 1206.82 Q1310.63 1198.07 1313.68 1193.49 Q1316.76 1188.88 1322.57 1188.88 Z" fill="#000000" fill-rule="nonzero" fill-opacity="1" /><path clip-path="url(#clip830)" d="M1342.73 1218.19 L1347.62 1218.19 L1347.62 1224.07 L1342.73 1224.07 L1342.73 1218.19 Z" fill="#000000" fill-rule="nonzero" fill-opacity="1" /><path clip-path="url(#clip830)" d="M1367.8 1192.59 Q1364.19 1192.59 1362.36 1196.15 Q1360.56 1199.69 1360.56 1206.82 Q1360.56 1213.93 1362.36 1217.49 Q1364.19 1221.03 1367.8 1221.03 Q1371.44 1221.03 1373.24 1217.49 Q1375.07 1213.93 1375.07 1206.82 Q1375.07 1199.69 1373.24 1196.15 Q1371.44 1192.59 1367.8 1192.59 M1367.8 1188.88 Q1373.61 1188.88 1376.67 1193.49 Q1379.75 1198.07 1379.75 1206.82 Q1379.75 1215.55 1376.67 1220.16 Q1373.61 1224.74 1367.8 1224.74 Q1361.99 1224.74 1358.91 1220.16 Q1355.86 1215.55 1355.86 1206.82 Q1355.86 1198.07 1358.91 1193.49 Q1361.99 1188.88 1367.8 1188.88 Z" fill="#000000" fill-rule="nonzero" fill-opacity="1" /><path clip-path="url(#clip830)" d="M1397.96 1192.59 Q1394.35 1192.59 1392.52 1196.15 Q1390.72 1199.69 1390.72 1206.82 Q1390.72 1213.93 1392.52 1217.49 Q1394.35 1221.03 1397.96 1221.03 Q1401.6 1221.03 1403.4 1217.49 Q1405.23 1213.93 1405.23 1206.82 Q1405.23 1199.69 1403.4 1196.15 Q1401.6 1192.59 1397.96 1192.59 M1397.96 1188.88 Q1403.77 1188.88 1406.83 1193.49 Q1409.91 1198.07 1409.91 1206.82 Q1409.91 1215.55 1406.83 1220.16 Q1403.77 1224.74 1397.96 1224.74 Q1392.15 1224.74 1389.07 1220.16 Q1386.02 1215.55 1386.02 1206.82 Q1386.02 1198.07 1389.07 1193.49 Q1392.15 1188.88 1397.96 1188.88 Z" fill="#000000" fill-rule="nonzero" fill-opacity="1" /><path clip-path="url(#clip830)" d="M1324.17 1110.05 Q1320.56 1110.05 1318.73 1113.62 Q1316.92 1117.16 1316.92 1124.29 Q1316.92 1131.4 1318.73 1134.96 Q1320.56 1138.5 1324.17 1138.5 Q1327.8 1138.5 1329.61 1134.96 Q1331.44 1131.4 1331.44 1124.29 Q1331.44 1117.16 1329.61 1113.62 Q1327.8 1110.05 1324.17 1110.05 M1324.17 1106.35 Q1329.98 1106.35 1333.03 1110.96 Q1336.11 1115.54 1336.11 1124.29 Q1336.11 1133.02 1333.03 1137.62 Q1329.98 1142.21 1324.17 1142.21 Q1318.36 1142.21 1315.28 1137.62 Q1312.22 1133.02 1312.22 1124.29 Q1312.22 1115.54 1315.28 1110.96 Q1318.36 1106.35 1324.17 1106.35 Z" fill="#000000" fill-rule="nonzero" fill-opacity="1" /><path clip-path="url(#clip830)" d="M1344.33 1135.66 L1349.21 1135.66 L1349.21 1141.53 L1344.33 1141.53 L1344.33 1135.66 Z" fill="#000000" fill-rule="nonzero" fill-opacity="1" /><path clip-path="url(#clip830)" d="M1369.4 1110.05 Q1365.79 1110.05 1363.96 1113.62 Q1362.15 1117.16 1362.15 1124.29 Q1362.15 1131.4 1363.96 1134.96 Q1365.79 1138.5 1369.4 1138.5 Q1373.03 1138.5 1374.84 1134.96 Q1376.67 1131.4 1376.67 1124.29 Q1376.67 1117.16 1374.84 1113.62 Q1373.03 1110.05 1369.4 1110.05 M1369.4 1106.35 Q1375.21 1106.35 1378.26 1110.96 Q1381.34 1115.54 1381.34 1124.29 Q1381.34 1133.02 1378.26 1137.62 Q1375.21 1142.21 1369.4 1142.21 Q1363.59 1142.21 1360.51 1137.62 Q1357.45 1133.02 1357.45 1124.29 Q1357.45 1115.54 1360.51 1110.96 Q1363.59 1106.35 1369.4 1106.35 Z" fill="#000000" fill-rule="nonzero" fill-opacity="1" /><path clip-path="url(#clip830)" d="M1393.59 1137.6 L1409.91 1137.6 L1409.91 1141.53 L1387.96 1141.53 L1387.96 1137.6 Q1390.63 1134.84 1395.21 1130.22 Q1399.82 1125.56 1401 1124.22 Q1403.24 1121.7 1404.12 1119.96 Q1405.02 1118.2 1405.02 1116.51 Q1405.02 1113.76 1403.08 1112.02 Q1401.16 1110.28 1398.06 1110.28 Q1395.86 1110.28 1393.4 1111.05 Q1390.97 1111.81 1388.19 1113.36 L1388.19 1108.64 Q1391.02 1107.51 1393.47 1106.93 Q1395.93 1106.35 1397.96 1106.35 Q1403.33 1106.35 1406.53 1109.03 Q1409.72 1111.72 1409.72 1116.21 Q1409.72 1118.34 1408.91 1120.26 Q1408.13 1122.16 1406.02 1124.75 Q1405.44 1125.42 1402.34 1128.64 Q1399.24 1131.84 1393.59 1137.6 Z" fill="#000000" fill-rule="nonzero" fill-opacity="1" /><path clip-path="url(#clip830)" d="M1182.01 1252.88 L1182.94 1253.44 Q1181.43 1256.93 1179.02 1261.28 Q1181.43 1265.63 1182.94 1269.13 L1182.01 1269.67 Q1178.7 1265.86 1176.15 1261.28 Q1178.72 1256.66 1182.01 1252.88 Z" fill="#000000" fill-rule="nonzero" fill-opacity="1" /><path clip-path="url(#clip830)" d="M1194.31 1249.71 Q1196.12 1249.71 1197.15 1250.84 Q1198.14 1251.97 1198.14 1253.26 Q1198.14 1254.48 1197.44 1255.12 Q1196.73 1255.77 1195.83 1255.77 Q1194.6 1255.77 1193.54 1254.87 Q1192.48 1253.96 1192.25 1252.61 Q1191.41 1253.93 1191.41 1255.9 Q1191.41 1257.18 1192.09 1258.31 Q1192.77 1259.41 1193.64 1260.08 Q1194.51 1260.73 1195.76 1261.31 Q1196.99 1261.85 1197.73 1262.08 Q1198.43 1262.27 1199.21 1262.43 L1208.23 1264.69 Q1212.51 1265.78 1214.02 1265.78 Q1215.89 1265.78 1217.15 1264.88 Q1218.37 1263.98 1218.37 1262.18 Q1218.37 1261.47 1218.18 1260.66 Q1217.95 1259.86 1217.37 1258.83 Q1216.76 1257.76 1215.86 1256.83 Q1214.92 1255.86 1213.35 1254.93 Q1211.77 1254 1209.74 1253.38 Q1209.03 1253.19 1209.03 1252.55 Q1209.03 1251.74 1209.67 1251.74 Q1210.22 1251.74 1211.38 1252.19 Q1212.51 1252.61 1213.99 1253.55 Q1215.44 1254.45 1216.76 1255.64 Q1218.05 1256.83 1218.95 1258.6 Q1219.85 1260.37 1219.85 1262.31 Q1219.85 1265.08 1218.37 1266.91 Q1216.89 1268.75 1214.83 1269.42 Q1215.12 1269.58 1215.5 1269.81 Q1215.89 1270.03 1216.76 1270.71 Q1217.6 1271.36 1218.24 1272.1 Q1218.85 1272.84 1219.34 1274 Q1219.85 1275.12 1219.85 1276.35 Q1219.85 1277.89 1219.4 1279.28 Q1218.95 1280.63 1217.92 1281.6 Q1216.89 1282.56 1215.47 1282.56 Q1213.89 1282.56 1212.8 1281.5 Q1211.67 1280.41 1211.67 1278.92 Q1211.67 1277.99 1212.22 1277.25 Q1212.77 1276.48 1213.96 1276.48 Q1215.28 1276.48 1216.28 1277.38 Q1217.27 1278.28 1217.53 1279.57 Q1218.37 1278.25 1218.37 1276.28 Q1218.37 1274.16 1216.5 1272.48 Q1214.63 1270.81 1211.51 1270 Q1204.01 1268.01 1200.66 1267.23 Q1197.28 1266.46 1195.83 1266.46 Q1194.47 1266.46 1193.54 1266.81 Q1192.61 1267.17 1192.19 1267.78 Q1191.74 1268.36 1191.57 1268.91 Q1191.41 1269.42 1191.41 1270 Q1191.41 1270.97 1191.8 1272.06 Q1192.19 1273.13 1193.09 1274.41 Q1193.96 1275.67 1195.76 1276.86 Q1197.56 1278.05 1200.04 1278.86 Q1200.79 1279.02 1200.79 1279.73 Q1200.75 1280.5 1200.11 1280.5 Q1199.56 1280.5 1198.43 1280.08 Q1197.28 1279.63 1195.83 1278.73 Q1194.38 1277.8 1193.09 1276.6 Q1191.77 1275.38 1190.87 1273.61 Q1189.96 1271.81 1189.96 1269.87 Q1189.96 1269 1190.16 1268.17 Q1190.32 1267.3 1190.8 1266.27 Q1191.28 1265.2 1192.35 1264.27 Q1193.41 1263.34 1194.96 1262.76 Q1194.22 1262.37 1193.51 1261.85 Q1192.8 1261.31 1191.93 1260.47 Q1191.03 1259.6 1190.51 1258.41 Q1189.96 1257.18 1189.96 1255.83 Q1189.96 1254.51 1190.32 1253.22 Q1190.64 1251.94 1191.7 1250.84 Q1192.73 1249.71 1194.31 1249.71 Z" fill="#000000" fill-rule="nonzero" fill-opacity="1" /><path clip-path="url(#clip830)" d="M1231.9 1242.25 Q1230.52 1242.25 1229.87 1241.46 Q1229.22 1240.68 1229.22 1239.66 Q1229.22 1238.6 1229.92 1237.86 Q1230.59 1237.09 1231.79 1237.09 Q1233.07 1237.09 1233.79 1237.99 Q1234.51 1238.87 1234.33 1240.13 Q1236.18 1239.03 1237.02 1237 Q1237.85 1234.95 1237.85 1233.06 Q1237.85 1231.07 1236.14 1229.47 Q1234.42 1227.85 1230.23 1227.85 Q1226.67 1227.85 1224.62 1229.25 Q1222.57 1230.62 1222.57 1233.35 L1222.57 1235.38 Q1222.57 1236.08 1222.5 1236.28 Q1222.43 1236.48 1222.05 1236.48 Q1221.6 1236.48 1221.51 1235.78 Q1221.51 1235.08 1221.37 1233.98 Q1221.28 1231.3 1218.96 1229.88 Q1216.79 1228.59 1213.71 1228.59 Q1210.89 1228.59 1209.72 1229.94 Q1208.52 1231.27 1208.52 1233.01 Q1208.52 1234.63 1209.2 1236.41 Q1209.87 1238.2 1211.38 1239.17 Q1211.38 1236.3 1213.71 1236.3 Q1214.72 1236.3 1215.4 1236.96 Q1216.05 1237.59 1216.05 1238.65 Q1216.05 1239.66 1215.42 1240.34 Q1214.77 1241.01 1213.66 1241.01 Q1211.02 1241.01 1209.2 1238.67 Q1207.37 1236.3 1207.37 1232.83 Q1207.37 1229.4 1209.17 1226.88 Q1210.98 1224.33 1213.75 1224.33 Q1216.48 1224.33 1218.71 1226.13 Q1220.94 1227.94 1221.87 1230.8 Q1222.57 1227.28 1224.96 1225.19 Q1227.32 1223.09 1230.23 1223.09 Q1233.84 1223.09 1236.5 1225.93 Q1239.14 1228.77 1239.14 1232.92 Q1239.14 1236.75 1237.06 1239.5 Q1234.99 1242.25 1231.9 1242.25 Z" fill="#000000" fill-rule="nonzero" fill-opacity="1" /><polyline clip-path="url(#clip835)" style="stroke:#e26f46; stroke-linecap:round; stroke-linejoin:round; stroke-width:3; stroke-opacity:1; fill:none" stroke-dasharray="12, 6, 2, 6" points="1471.57,1206.79 1496.74,1225.31 1521.9,1081.68 1547.06,1396.42 1572.22,1413.23 1597.38,1401.47 1622.55,1376.63 1647.71,1340.8 1672.87,1348.21 1698.03,1314.04 1723.2,1305.29 1748.36,1300.06 1773.52,1244.69 1798.68,1254 1823.85,1254.89 1849.01,1232.34 1874.17,1185.1 1899.33,1219.91 1924.49,1232.38 1949.66,1211.53 1974.82,1204.01 1999.98,1211.96 2025.14,1226.99 2050.31,1220.9 2075.47,1214.16 2100.63,1211.85 2125.79,1225.16 2150.95,1222.92 2176.12,1216.03 2201.28,1216.52 2226.44,1243.68 2251.6,1216.27 2276.77,1216.03 2301.93,1221.56 2327.09,1236.51 "/>
</svg>
