<?xml version="1.0" encoding="utf-8"?>
<svg xmlns="http://www.w3.org/2000/svg" xmlns:xlink="http://www.w3.org/1999/xlink" width="600" height="400" viewBox="0 0 2400 1600">
<defs>
  <clipPath id="clip320">
    <rect x="0" y="0" width="2400" height="1600"/>
  </clipPath>
</defs>
<path clip-path="url(#clip320)" d="M0 1600 L2400 1600 L2400 0 L0 0  Z" fill="#ffffff" fill-rule="evenodd" fill-opacity="1"/>
<defs>
  <clipPath id="clip321">
    <rect x="480" y="0" width="1681" height="1600"/>
  </clipPath>
</defs>
<path clip-path="url(#clip320)" d="M232.389 1423.18 L1140.35 1423.18 L1140.35 47.2441 L232.389 47.2441  Z" fill="#ffffff" fill-rule="evenodd" fill-opacity="1"/>
<defs>
  <clipPath id="clip322">
    <rect x="232" y="47" width="909" height="1377"/>
  </clipPath>
</defs>
<polyline clip-path="url(#clip322)" style="stroke:#000000; stroke-linecap:round; stroke-linejoin:round; stroke-width:2; stroke-opacity:0.1; fill:none" points="258.086,1423.18 258.086,47.2441 "/>
<polyline clip-path="url(#clip322)" style="stroke:#000000; stroke-linecap:round; stroke-linejoin:round; stroke-width:2; stroke-opacity:0.1; fill:none" points="403.267,1423.18 403.267,47.2441 "/>
<polyline clip-path="url(#clip322)" style="stroke:#000000; stroke-linecap:round; stroke-linejoin:round; stroke-width:2; stroke-opacity:0.1; fill:none" points="548.447,1423.18 548.447,47.2441 "/>
<polyline clip-path="url(#clip322)" style="stroke:#000000; stroke-linecap:round; stroke-linejoin:round; stroke-width:2; stroke-opacity:0.1; fill:none" points="693.628,1423.18 693.628,47.2441 "/>
<polyline clip-path="url(#clip322)" style="stroke:#000000; stroke-linecap:round; stroke-linejoin:round; stroke-width:2; stroke-opacity:0.1; fill:none" points="838.809,1423.18 838.809,47.2441 "/>
<polyline clip-path="url(#clip322)" style="stroke:#000000; stroke-linecap:round; stroke-linejoin:round; stroke-width:2; stroke-opacity:0.1; fill:none" points="983.989,1423.18 983.989,47.2441 "/>
<polyline clip-path="url(#clip322)" style="stroke:#000000; stroke-linecap:round; stroke-linejoin:round; stroke-width:2; stroke-opacity:0.1; fill:none" points="1129.17,1423.18 1129.17,47.2441 "/>
<polyline clip-path="url(#clip320)" style="stroke:#000000; stroke-linecap:round; stroke-linejoin:round; stroke-width:4; stroke-opacity:1; fill:none" points="232.389,1423.18 1140.35,1423.18 "/>
<polyline clip-path="url(#clip320)" style="stroke:#000000; stroke-linecap:round; stroke-linejoin:round; stroke-width:4; stroke-opacity:1; fill:none" points="258.086,1423.18 258.086,1404.28 "/>
<polyline clip-path="url(#clip320)" style="stroke:#000000; stroke-linecap:round; stroke-linejoin:round; stroke-width:4; stroke-opacity:1; fill:none" points="403.267,1423.18 403.267,1404.28 "/>
<polyline clip-path="url(#clip320)" style="stroke:#000000; stroke-linecap:round; stroke-linejoin:round; stroke-width:4; stroke-opacity:1; fill:none" points="548.447,1423.18 548.447,1404.28 "/>
<polyline clip-path="url(#clip320)" style="stroke:#000000; stroke-linecap:round; stroke-linejoin:round; stroke-width:4; stroke-opacity:1; fill:none" points="693.628,1423.18 693.628,1404.28 "/>
<polyline clip-path="url(#clip320)" style="stroke:#000000; stroke-linecap:round; stroke-linejoin:round; stroke-width:4; stroke-opacity:1; fill:none" points="838.809,1423.18 838.809,1404.28 "/>
<polyline clip-path="url(#clip320)" style="stroke:#000000; stroke-linecap:round; stroke-linejoin:round; stroke-width:4; stroke-opacity:1; fill:none" points="983.989,1423.18 983.989,1404.28 "/>
<polyline clip-path="url(#clip320)" style="stroke:#000000; stroke-linecap:round; stroke-linejoin:round; stroke-width:4; stroke-opacity:1; fill:none" points="1129.17,1423.18 1129.17,1404.28 "/>
<path clip-path="url(#clip320)" d="M258.086 1454.1 Q254.475 1454.1 252.647 1457.66 Q250.841 1461.2 250.841 1468.33 Q250.841 1475.44 252.647 1479.01 Q254.475 1482.55 258.086 1482.55 Q261.721 1482.55 263.526 1479.01 Q265.355 1475.44 265.355 1468.33 Q265.355 1461.2 263.526 1457.66 Q261.721 1454.1 258.086 1454.1 M258.086 1450.39 Q263.896 1450.39 266.952 1455 Q270.031 1459.58 270.031 1468.33 Q270.031 1477.06 266.952 1481.67 Q263.896 1486.25 258.086 1486.25 Q252.276 1486.25 249.197 1481.67 Q246.142 1477.06 246.142 1468.33 Q246.142 1459.58 249.197 1455 Q252.276 1450.39 258.086 1450.39 Z" fill="#000000" fill-rule="nonzero" fill-opacity="1" /><path clip-path="url(#clip320)" d="M393.649 1481.64 L401.288 1481.64 L401.288 1455.28 L392.978 1456.95 L392.978 1452.69 L401.241 1451.02 L405.917 1451.02 L405.917 1481.64 L413.556 1481.64 L413.556 1485.58 L393.649 1485.58 L393.649 1481.64 Z" fill="#000000" fill-rule="nonzero" fill-opacity="1" /><path clip-path="url(#clip320)" d="M543.1 1481.64 L559.42 1481.64 L559.42 1485.58 L537.475 1485.58 L537.475 1481.64 Q540.137 1478.89 544.721 1474.26 Q549.327 1469.61 550.508 1468.27 Q552.753 1465.74 553.633 1464.01 Q554.535 1462.25 554.535 1460.56 Q554.535 1457.8 552.591 1456.07 Q550.67 1454.33 547.568 1454.33 Q545.369 1454.33 542.915 1455.09 Q540.485 1455.86 537.707 1457.41 L537.707 1452.69 Q540.531 1451.55 542.984 1450.97 Q545.438 1450.39 547.475 1450.39 Q552.846 1450.39 556.04 1453.08 Q559.234 1455.77 559.234 1460.26 Q559.234 1462.39 558.424 1464.31 Q557.637 1466.2 555.531 1468.8 Q554.952 1469.47 551.85 1472.69 Q548.748 1475.88 543.1 1481.64 Z" fill="#000000" fill-rule="nonzero" fill-opacity="1" /><path clip-path="url(#clip320)" d="M697.876 1466.95 Q701.232 1467.66 703.107 1469.93 Q705.005 1472.2 705.005 1475.53 Q705.005 1480.65 701.487 1483.45 Q697.968 1486.25 691.487 1486.25 Q689.311 1486.25 686.996 1485.81 Q684.704 1485.39 682.251 1484.54 L682.251 1480.02 Q684.195 1481.16 686.51 1481.74 Q688.825 1482.32 691.348 1482.32 Q695.746 1482.32 698.038 1480.58 Q700.352 1478.84 700.352 1475.53 Q700.352 1472.48 698.2 1470.77 Q696.07 1469.03 692.251 1469.03 L688.223 1469.03 L688.223 1465.19 L692.436 1465.19 Q695.885 1465.19 697.714 1463.82 Q699.542 1462.43 699.542 1459.84 Q699.542 1457.18 697.644 1455.77 Q695.769 1454.33 692.251 1454.33 Q690.329 1454.33 688.13 1454.75 Q685.931 1455.16 683.292 1456.04 L683.292 1451.88 Q685.954 1451.14 688.269 1450.77 Q690.607 1450.39 692.667 1450.39 Q697.991 1450.39 701.093 1452.83 Q704.195 1455.23 704.195 1459.35 Q704.195 1462.22 702.552 1464.21 Q700.908 1466.18 697.876 1466.95 Z" fill="#000000" fill-rule="nonzero" fill-opacity="1" /><path clip-path="url(#clip320)" d="M841.818 1455.09 L830.012 1473.54 L841.818 1473.54 L841.818 1455.09 M840.591 1451.02 L846.471 1451.02 L846.471 1473.54 L851.401 1473.54 L851.401 1477.43 L846.471 1477.43 L846.471 1485.58 L841.818 1485.58 L841.818 1477.43 L826.216 1477.43 L826.216 1472.92 L840.591 1451.02 Z" fill="#000000" fill-rule="nonzero" fill-opacity="1" /><path clip-path="url(#clip320)" d="M974.267 1451.02 L992.623 1451.02 L992.623 1454.96 L978.549 1454.96 L978.549 1463.43 Q979.568 1463.08 980.586 1462.92 Q981.605 1462.73 982.623 1462.73 Q988.41 1462.73 991.79 1465.9 Q995.17 1469.08 995.17 1474.49 Q995.17 1480.07 991.697 1483.17 Q988.225 1486.25 981.906 1486.25 Q979.73 1486.25 977.461 1485.88 Q975.216 1485.51 972.809 1484.77 L972.809 1480.07 Q974.892 1481.2 977.114 1481.76 Q979.336 1482.32 981.813 1482.32 Q985.818 1482.32 988.156 1480.21 Q990.494 1478.1 990.494 1474.49 Q990.494 1470.88 988.156 1468.77 Q985.818 1466.67 981.813 1466.67 Q979.938 1466.67 978.063 1467.08 Q976.211 1467.5 974.267 1468.38 L974.267 1451.02 Z" fill="#000000" fill-rule="nonzero" fill-opacity="1" /><path clip-path="url(#clip320)" d="M1129.57 1466.44 Q1126.43 1466.44 1124.57 1468.59 Q1122.75 1470.74 1122.75 1474.49 Q1122.75 1478.22 1124.57 1480.39 Q1126.43 1482.55 1129.57 1482.55 Q1132.72 1482.55 1134.55 1480.39 Q1136.4 1478.22 1136.4 1474.49 Q1136.4 1470.74 1134.55 1468.59 Q1132.72 1466.44 1129.57 1466.44 M1138.86 1451.78 L1138.86 1456.04 Q1137.1 1455.21 1135.29 1454.77 Q1133.51 1454.33 1131.75 1454.33 Q1127.12 1454.33 1124.67 1457.45 Q1122.24 1460.58 1121.89 1466.9 Q1123.26 1464.89 1125.32 1463.82 Q1127.38 1462.73 1129.85 1462.73 Q1135.06 1462.73 1138.07 1465.9 Q1141.1 1469.05 1141.1 1474.49 Q1141.1 1479.82 1137.95 1483.03 Q1134.81 1486.25 1129.57 1486.25 Q1123.58 1486.25 1120.41 1481.67 Q1117.24 1477.06 1117.24 1468.33 Q1117.24 1460.14 1121.13 1455.28 Q1125.01 1450.39 1131.57 1450.39 Q1133.32 1450.39 1135.11 1450.74 Q1136.91 1451.09 1138.86 1451.78 Z" fill="#000000" fill-rule="nonzero" fill-opacity="1" /><path clip-path="url(#clip320)" d="M556.54 1520.52 L596.74 1520.52 L596.74 1525.93 L579.871 1525.93 L579.871 1568.04 L573.409 1568.04 L573.409 1525.93 L556.54 1525.93 L556.54 1520.52 Z" fill="#000000" fill-rule="nonzero" fill-opacity="1" /><path clip-path="url(#clip320)" d="M600.687 1532.4 L606.543 1532.4 L606.543 1568.04 L600.687 1568.04 L600.687 1532.4 M600.687 1518.52 L606.543 1518.52 L606.543 1525.93 L600.687 1525.93 L600.687 1518.52 Z" fill="#000000" fill-rule="nonzero" fill-opacity="1" /><path clip-path="url(#clip320)" d="M646.551 1539.24 Q648.748 1535.29 651.803 1533.41 Q654.859 1531.54 658.996 1531.54 Q664.566 1531.54 667.59 1535.45 Q670.614 1539.33 670.614 1546.53 L670.614 1568.04 L664.726 1568.04 L664.726 1546.72 Q664.726 1541.59 662.911 1539.11 Q661.097 1536.63 657.373 1536.63 Q652.822 1536.63 650.18 1539.65 Q647.538 1542.68 647.538 1547.9 L647.538 1568.04 L641.65 1568.04 L641.65 1546.72 Q641.65 1541.56 639.836 1539.11 Q638.021 1536.63 634.234 1536.63 Q629.746 1536.63 627.104 1539.68 Q624.462 1542.71 624.462 1547.9 L624.462 1568.04 L618.574 1568.04 L618.574 1532.4 L624.462 1532.4 L624.462 1537.93 Q626.468 1534.66 629.269 1533.1 Q632.069 1531.54 635.921 1531.54 Q639.804 1531.54 642.509 1533.51 Q645.246 1535.48 646.551 1539.24 Z" fill="#000000" fill-rule="nonzero" fill-opacity="1" /><path clip-path="url(#clip320)" d="M712.787 1548.76 L712.787 1551.62 L685.86 1551.62 Q686.242 1557.67 689.488 1560.85 Q692.766 1564 698.591 1564 Q701.965 1564 705.116 1563.17 Q708.299 1562.35 711.418 1560.69 L711.418 1566.23 Q708.267 1567.57 704.957 1568.27 Q701.647 1568.97 698.241 1568.97 Q689.711 1568.97 684.714 1564 Q679.749 1559.04 679.749 1550.57 Q679.749 1541.82 684.459 1536.69 Q689.202 1531.54 697.222 1531.54 Q704.416 1531.54 708.585 1536.18 Q712.787 1540.8 712.787 1548.76 M706.93 1547.04 Q706.867 1542.23 704.225 1539.37 Q701.615 1536.5 697.286 1536.5 Q692.385 1536.5 689.424 1539.27 Q686.496 1542.04 686.051 1547.07 L706.93 1547.04 Z" fill="#000000" fill-rule="nonzero" fill-opacity="1" /><path clip-path="url(#clip320)" d="M757.187 1518.58 Q752.922 1525.9 750.854 1533.06 Q748.785 1540.23 748.785 1547.58 Q748.785 1554.93 750.854 1562.16 Q752.954 1569.35 757.187 1576.64 L752.095 1576.64 Q747.321 1569.16 744.933 1561.93 Q742.578 1554.71 742.578 1547.58 Q742.578 1540.48 744.933 1533.29 Q747.289 1526.09 752.095 1518.58 L757.187 1518.58 Z" fill="#000000" fill-rule="nonzero" fill-opacity="1" /><path clip-path="url(#clip320)" d="M791.276 1533.45 L791.276 1538.98 Q788.793 1537.71 786.12 1537.07 Q783.446 1536.44 780.581 1536.44 Q776.221 1536.44 774.025 1537.77 Q771.86 1539.11 771.86 1541.79 Q771.86 1543.82 773.42 1545 Q774.98 1546.15 779.69 1547.2 L781.695 1547.64 Q787.934 1548.98 790.544 1551.43 Q793.186 1553.85 793.186 1558.21 Q793.186 1563.17 789.239 1566.07 Q785.324 1568.97 778.449 1568.97 Q775.584 1568.97 772.465 1568.39 Q769.378 1567.85 765.94 1566.74 L765.94 1560.69 Q769.187 1562.38 772.338 1563.24 Q775.489 1564.07 778.576 1564.07 Q782.714 1564.07 784.942 1562.66 Q787.17 1561.23 787.17 1558.65 Q787.17 1556.27 785.547 1554.99 Q783.955 1553.72 778.513 1552.54 L776.476 1552.07 Q771.033 1550.92 768.614 1548.56 Q766.195 1546.18 766.195 1542.04 Q766.195 1537.01 769.76 1534.27 Q773.325 1531.54 779.881 1531.54 Q783.128 1531.54 785.992 1532.01 Q788.857 1532.49 791.276 1533.45 Z" fill="#000000" fill-rule="nonzero" fill-opacity="1" /><path clip-path="url(#clip320)" d="M801.588 1518.58 L806.681 1518.58 Q811.455 1526.09 813.81 1533.29 Q816.198 1540.48 816.198 1547.58 Q816.198 1554.71 813.81 1561.93 Q811.455 1569.16 806.681 1576.64 L801.588 1576.64 Q805.821 1569.35 807.89 1562.16 Q809.991 1554.93 809.991 1547.58 Q809.991 1540.23 807.89 1533.06 Q805.821 1525.9 801.588 1518.58 Z" fill="#000000" fill-rule="nonzero" fill-opacity="1" /><polyline clip-path="url(#clip322)" style="stroke:#000000; stroke-linecap:round; stroke-linejoin:round; stroke-width:2; stroke-opacity:0.1; fill:none" points="232.389,1295.45 1140.35,1295.45 "/>
<polyline clip-path="url(#clip322)" style="stroke:#000000; stroke-linecap:round; stroke-linejoin:round; stroke-width:2; stroke-opacity:0.1; fill:none" points="232.389,1053.6 1140.35,1053.6 "/>
<polyline clip-path="url(#clip322)" style="stroke:#000000; stroke-linecap:round; stroke-linejoin:round; stroke-width:2; stroke-opacity:0.1; fill:none" points="232.389,811.744 1140.35,811.744 "/>
<polyline clip-path="url(#clip322)" style="stroke:#000000; stroke-linecap:round; stroke-linejoin:round; stroke-width:2; stroke-opacity:0.1; fill:none" points="232.389,569.891 1140.35,569.891 "/>
<polyline clip-path="url(#clip322)" style="stroke:#000000; stroke-linecap:round; stroke-linejoin:round; stroke-width:2; stroke-opacity:0.1; fill:none" points="232.389,328.038 1140.35,328.038 "/>
<polyline clip-path="url(#clip322)" style="stroke:#000000; stroke-linecap:round; stroke-linejoin:round; stroke-width:2; stroke-opacity:0.1; fill:none" points="232.389,86.1857 1140.35,86.1857 "/>
<polyline clip-path="url(#clip320)" style="stroke:#000000; stroke-linecap:round; stroke-linejoin:round; stroke-width:4; stroke-opacity:1; fill:none" points="232.389,1423.18 232.389,47.2441 "/>
<polyline clip-path="url(#clip320)" style="stroke:#000000; stroke-linecap:round; stroke-linejoin:round; stroke-width:4; stroke-opacity:1; fill:none" points="232.389,1295.45 251.287,1295.45 "/>
<polyline clip-path="url(#clip320)" style="stroke:#000000; stroke-linecap:round; stroke-linejoin:round; stroke-width:4; stroke-opacity:1; fill:none" points="232.389,1053.6 251.287,1053.6 "/>
<polyline clip-path="url(#clip320)" style="stroke:#000000; stroke-linecap:round; stroke-linejoin:round; stroke-width:4; stroke-opacity:1; fill:none" points="232.389,811.744 251.287,811.744 "/>
<polyline clip-path="url(#clip320)" style="stroke:#000000; stroke-linecap:round; stroke-linejoin:round; stroke-width:4; stroke-opacity:1; fill:none" points="232.389,569.891 251.287,569.891 "/>
<polyline clip-path="url(#clip320)" style="stroke:#000000; stroke-linecap:round; stroke-linejoin:round; stroke-width:4; stroke-opacity:1; fill:none" points="232.389,328.038 251.287,328.038 "/>
<polyline clip-path="url(#clip320)" style="stroke:#000000; stroke-linecap:round; stroke-linejoin:round; stroke-width:4; stroke-opacity:1; fill:none" points="232.389,86.1857 251.287,86.1857 "/>
<path clip-path="url(#clip320)" d="M115.927 1308.79 L123.566 1308.79 L123.566 1282.43 L115.256 1284.1 L115.256 1279.84 L123.519 1278.17 L128.195 1278.17 L128.195 1308.79 L135.834 1308.79 L135.834 1312.73 L115.927 1312.73 L115.927 1308.79 Z" fill="#000000" fill-rule="nonzero" fill-opacity="1" /><path clip-path="url(#clip320)" d="M155.857 1293.59 Q152.709 1293.59 150.857 1295.74 Q149.028 1297.89 149.028 1301.64 Q149.028 1305.37 150.857 1307.54 Q152.709 1309.7 155.857 1309.7 Q159.005 1309.7 160.834 1307.54 Q162.686 1305.37 162.686 1301.64 Q162.686 1297.89 160.834 1295.74 Q159.005 1293.59 155.857 1293.59 M165.14 1278.93 L165.14 1283.19 Q163.38 1282.36 161.575 1281.92 Q159.792 1281.48 158.033 1281.48 Q153.403 1281.48 150.95 1284.6 Q148.519 1287.73 148.172 1294.05 Q149.538 1292.04 151.598 1290.97 Q153.658 1289.88 156.135 1289.88 Q161.343 1289.88 164.352 1293.05 Q167.385 1296.2 167.385 1301.64 Q167.385 1306.97 164.237 1310.18 Q161.089 1313.4 155.857 1313.4 Q149.862 1313.4 146.691 1308.82 Q143.519 1304.21 143.519 1295.48 Q143.519 1287.29 147.408 1282.43 Q151.297 1277.54 157.848 1277.54 Q159.607 1277.54 161.39 1277.89 Q163.195 1278.24 165.14 1278.93 Z" fill="#000000" fill-rule="nonzero" fill-opacity="1" /><path clip-path="url(#clip320)" d="M175.487 1278.17 L193.843 1278.17 L193.843 1282.1 L179.769 1282.1 L179.769 1290.58 Q180.788 1290.23 181.806 1290.07 Q182.825 1289.88 183.843 1289.88 Q189.63 1289.88 193.01 1293.05 Q196.389 1296.22 196.389 1301.64 Q196.389 1307.22 192.917 1310.32 Q189.445 1313.4 183.126 1313.4 Q180.95 1313.4 178.681 1313.03 Q176.436 1312.66 174.028 1311.92 L174.028 1307.22 Q176.112 1308.35 178.334 1308.91 Q180.556 1309.47 183.033 1309.47 Q187.038 1309.47 189.375 1307.36 Q191.713 1305.25 191.713 1301.64 Q191.713 1298.03 189.375 1295.92 Q187.038 1293.82 183.033 1293.82 Q181.158 1293.82 179.283 1294.23 Q177.431 1294.65 175.487 1295.53 L175.487 1278.17 Z" fill="#000000" fill-rule="nonzero" fill-opacity="1" /><path clip-path="url(#clip320)" d="M114.931 1066.94 L122.57 1066.94 L122.57 1040.58 L114.26 1042.24 L114.26 1037.98 L122.524 1036.32 L127.2 1036.32 L127.2 1066.94 L134.839 1066.94 L134.839 1070.88 L114.931 1070.88 L114.931 1066.94 Z" fill="#000000" fill-rule="nonzero" fill-opacity="1" /><path clip-path="url(#clip320)" d="M143.103 1036.32 L165.325 1036.32 L165.325 1038.31 L152.778 1070.88 L147.894 1070.88 L159.7 1040.25 L143.103 1040.25 L143.103 1036.32 Z" fill="#000000" fill-rule="nonzero" fill-opacity="1" /><path clip-path="url(#clip320)" d="M184.445 1039.4 Q180.834 1039.4 179.005 1042.96 Q177.2 1046.5 177.2 1053.63 Q177.2 1060.74 179.005 1064.3 Q180.834 1067.84 184.445 1067.84 Q188.079 1067.84 189.885 1064.3 Q191.713 1060.74 191.713 1053.63 Q191.713 1046.5 189.885 1042.96 Q188.079 1039.4 184.445 1039.4 M184.445 1035.69 Q190.255 1035.69 193.311 1040.3 Q196.389 1044.88 196.389 1053.63 Q196.389 1062.36 193.311 1066.96 Q190.255 1071.55 184.445 1071.55 Q178.635 1071.55 175.556 1066.96 Q172.501 1062.36 172.501 1053.63 Q172.501 1044.88 175.556 1040.3 Q178.635 1035.69 184.445 1035.69 Z" fill="#000000" fill-rule="nonzero" fill-opacity="1" /><path clip-path="url(#clip320)" d="M115.927 825.089 L123.566 825.089 L123.566 798.723 L115.256 800.39 L115.256 796.131 L123.519 794.464 L128.195 794.464 L128.195 825.089 L135.834 825.089 L135.834 829.024 L115.927 829.024 L115.927 825.089 Z" fill="#000000" fill-rule="nonzero" fill-opacity="1" /><path clip-path="url(#clip320)" d="M144.098 794.464 L166.32 794.464 L166.32 796.455 L153.774 829.024 L148.89 829.024 L160.695 798.399 L144.098 798.399 L144.098 794.464 Z" fill="#000000" fill-rule="nonzero" fill-opacity="1" /><path clip-path="url(#clip320)" d="M175.487 794.464 L193.843 794.464 L193.843 798.399 L179.769 798.399 L179.769 806.871 Q180.788 806.524 181.806 806.362 Q182.825 806.177 183.843 806.177 Q189.63 806.177 193.01 809.348 Q196.389 812.519 196.389 817.936 Q196.389 823.515 192.917 826.617 Q189.445 829.695 183.126 829.695 Q180.95 829.695 178.681 829.325 Q176.436 828.955 174.028 828.214 L174.028 823.515 Q176.112 824.649 178.334 825.205 Q180.556 825.76 183.033 825.76 Q187.038 825.76 189.375 823.654 Q191.713 821.547 191.713 817.936 Q191.713 814.325 189.375 812.219 Q187.038 810.112 183.033 810.112 Q181.158 810.112 179.283 810.529 Q177.431 810.945 175.487 811.825 L175.487 794.464 Z" fill="#000000" fill-rule="nonzero" fill-opacity="1" /><path clip-path="url(#clip320)" d="M114.931 583.236 L122.57 583.236 L122.57 556.87 L114.26 558.537 L114.26 554.278 L122.524 552.611 L127.2 552.611 L127.2 583.236 L134.839 583.236 L134.839 587.171 L114.931 587.171 L114.931 583.236 Z" fill="#000000" fill-rule="nonzero" fill-opacity="1" /><path clip-path="url(#clip320)" d="M154.283 570.759 Q150.95 570.759 149.028 572.542 Q147.13 574.324 147.13 577.449 Q147.13 580.574 149.028 582.356 Q150.95 584.139 154.283 584.139 Q157.616 584.139 159.538 582.356 Q161.459 580.551 161.459 577.449 Q161.459 574.324 159.538 572.542 Q157.64 570.759 154.283 570.759 M149.607 568.769 Q146.598 568.028 144.908 565.968 Q143.241 563.907 143.241 560.945 Q143.241 556.801 146.181 554.394 Q149.144 551.986 154.283 551.986 Q159.445 551.986 162.385 554.394 Q165.325 556.801 165.325 560.945 Q165.325 563.907 163.635 565.968 Q161.968 568.028 158.982 568.769 Q162.362 569.556 164.237 571.847 Q166.135 574.139 166.135 577.449 Q166.135 582.472 163.056 585.157 Q160.001 587.843 154.283 587.843 Q148.566 587.843 145.487 585.157 Q142.431 582.472 142.431 577.449 Q142.431 574.139 144.329 571.847 Q146.228 569.556 149.607 568.769 M147.894 561.384 Q147.894 564.069 149.561 565.574 Q151.251 567.079 154.283 567.079 Q157.292 567.079 158.982 565.574 Q160.695 564.069 160.695 561.384 Q160.695 558.699 158.982 557.195 Q157.292 555.69 154.283 555.69 Q151.251 555.69 149.561 557.195 Q147.894 558.699 147.894 561.384 Z" fill="#000000" fill-rule="nonzero" fill-opacity="1" /><path clip-path="url(#clip320)" d="M184.445 555.69 Q180.834 555.69 179.005 559.255 Q177.2 562.796 177.2 569.926 Q177.2 577.032 179.005 580.597 Q180.834 584.139 184.445 584.139 Q188.079 584.139 189.885 580.597 Q191.713 577.032 191.713 569.926 Q191.713 562.796 189.885 559.255 Q188.079 555.69 184.445 555.69 M184.445 551.986 Q190.255 551.986 193.311 556.593 Q196.389 561.176 196.389 569.926 Q196.389 578.653 193.311 583.259 Q190.255 587.843 184.445 587.843 Q178.635 587.843 175.556 583.259 Q172.501 578.653 172.501 569.926 Q172.501 561.176 175.556 556.593 Q178.635 551.986 184.445 551.986 Z" fill="#000000" fill-rule="nonzero" fill-opacity="1" /><path clip-path="url(#clip320)" d="M115.927 341.383 L123.566 341.383 L123.566 315.018 L115.256 316.684 L115.256 312.425 L123.519 310.758 L128.195 310.758 L128.195 341.383 L135.834 341.383 L135.834 345.318 L115.927 345.318 L115.927 341.383 Z" fill="#000000" fill-rule="nonzero" fill-opacity="1" /><path clip-path="url(#clip320)" d="M155.278 328.906 Q151.945 328.906 150.024 330.689 Q148.126 332.471 148.126 335.596 Q148.126 338.721 150.024 340.504 Q151.945 342.286 155.278 342.286 Q158.612 342.286 160.533 340.504 Q162.454 338.698 162.454 335.596 Q162.454 332.471 160.533 330.689 Q158.635 328.906 155.278 328.906 M150.603 326.916 Q147.593 326.175 145.904 324.115 Q144.237 322.055 144.237 319.092 Q144.237 314.948 147.177 312.541 Q150.14 310.133 155.278 310.133 Q160.44 310.133 163.38 312.541 Q166.32 314.948 166.32 319.092 Q166.32 322.055 164.63 324.115 Q162.964 326.175 159.978 326.916 Q163.357 327.703 165.232 329.994 Q167.13 332.286 167.13 335.596 Q167.13 340.619 164.052 343.305 Q160.996 345.99 155.278 345.99 Q149.561 345.99 146.482 343.305 Q143.427 340.619 143.427 335.596 Q143.427 332.286 145.325 329.994 Q147.223 327.703 150.603 326.916 M148.89 319.532 Q148.89 322.217 150.556 323.721 Q152.246 325.226 155.278 325.226 Q158.288 325.226 159.978 323.721 Q161.69 322.217 161.69 319.532 Q161.69 316.846 159.978 315.342 Q158.288 313.837 155.278 313.837 Q152.246 313.837 150.556 315.342 Q148.89 316.846 148.89 319.532 Z" fill="#000000" fill-rule="nonzero" fill-opacity="1" /><path clip-path="url(#clip320)" d="M175.487 310.758 L193.843 310.758 L193.843 314.694 L179.769 314.694 L179.769 323.166 Q180.788 322.819 181.806 322.657 Q182.825 322.471 183.843 322.471 Q189.63 322.471 193.01 325.643 Q196.389 328.814 196.389 334.231 Q196.389 339.809 192.917 342.911 Q189.445 345.99 183.126 345.99 Q180.95 345.99 178.681 345.619 Q176.436 345.249 174.028 344.508 L174.028 339.809 Q176.112 340.943 178.334 341.499 Q180.556 342.055 183.033 342.055 Q187.038 342.055 189.375 339.948 Q191.713 337.842 191.713 334.231 Q191.713 330.619 189.375 328.513 Q187.038 326.407 183.033 326.407 Q181.158 326.407 179.283 326.823 Q177.431 327.24 175.487 328.119 L175.487 310.758 Z" fill="#000000" fill-rule="nonzero" fill-opacity="1" /><path clip-path="url(#clip320)" d="M114.931 99.5305 L122.57 99.5305 L122.57 73.1649 L114.26 74.8316 L114.26 70.5723 L122.524 68.9057 L127.2 68.9057 L127.2 99.5305 L134.839 99.5305 L134.839 103.466 L114.931 103.466 L114.931 99.5305 Z" fill="#000000" fill-rule="nonzero" fill-opacity="1" /><path clip-path="url(#clip320)" d="M144.422 102.748 L144.422 98.4888 Q146.181 99.3222 147.987 99.762 Q149.792 100.202 151.528 100.202 Q156.158 100.202 158.589 97.1 Q161.042 93.975 161.39 87.6324 Q160.047 89.6232 157.987 90.688 Q155.927 91.7528 153.427 91.7528 Q148.241 91.7528 145.209 88.6278 Q142.2 85.4797 142.2 80.0399 Q142.2 74.7158 145.348 71.4983 Q148.496 68.2807 153.728 68.2807 Q159.723 68.2807 162.871 72.8871 Q166.042 77.4704 166.042 86.2204 Q166.042 94.3916 162.153 99.2759 Q158.288 104.137 151.737 104.137 Q149.978 104.137 148.172 103.79 Q146.366 103.443 144.422 102.748 M153.728 88.0954 Q156.876 88.0954 158.704 85.9426 Q160.556 83.7899 160.556 80.0399 Q160.556 76.313 158.704 74.1603 Q156.876 71.9844 153.728 71.9844 Q150.579 71.9844 148.728 74.1603 Q146.899 76.313 146.899 80.0399 Q146.899 83.7899 148.728 85.9426 Q150.579 88.0954 153.728 88.0954 Z" fill="#000000" fill-rule="nonzero" fill-opacity="1" /><path clip-path="url(#clip320)" d="M184.445 71.9844 Q180.834 71.9844 179.005 75.5492 Q177.2 79.0908 177.2 86.2204 Q177.2 93.3268 179.005 96.8916 Q180.834 100.433 184.445 100.433 Q188.079 100.433 189.885 96.8916 Q191.713 93.3268 191.713 86.2204 Q191.713 79.0908 189.885 75.5492 Q188.079 71.9844 184.445 71.9844 M184.445 68.2807 Q190.255 68.2807 193.311 72.8871 Q196.389 77.4704 196.389 86.2204 Q196.389 94.9472 193.311 99.5537 Q190.255 104.137 184.445 104.137 Q178.635 104.137 175.556 99.5537 Q172.501 94.9472 172.501 86.2204 Q172.501 77.4704 175.556 72.8871 Q178.635 68.2807 184.445 68.2807 Z" fill="#000000" fill-rule="nonzero" fill-opacity="1" /><path clip-path="url(#clip320)" d="M21.7178 734.435 Q22.1687 734.435 23.2315 734.724 L48.4165 741.037 Q54.0203 742.422 57.9494 746.93 Q61.8785 751.407 61.8785 756.496 Q61.8785 759.555 60.236 761.52 Q58.6257 763.484 56.1459 763.484 Q53.9559 763.484 52.8931 762.325 Q51.8625 761.165 51.8625 759.781 Q51.8625 759.33 51.9913 758.847 Q52.1201 758.364 52.6676 757.848 Q53.2151 757.333 54.1491 757.333 Q55.6628 757.333 56.8544 758.653 Q57.4019 759.298 57.5307 759.909 Q57.6596 760.489 57.6596 761.488 Q58.5613 761.101 59.1732 760.393 Q59.7851 759.684 60.0106 758.879 Q60.2682 758.074 60.3326 757.558 Q60.4293 757.011 60.4293 756.496 Q60.4293 752.373 56.2747 749.217 Q55.0187 748.283 53.7626 747.607 Q52.5388 746.898 51.0252 746.383 Q49.5437 745.868 48.7385 745.642 Q47.9334 745.385 46.0977 744.934 Q49.0928 747.929 49.0928 751.6 Q49.0928 753.146 48.6741 754.531 Q48.2554 755.884 47.3859 757.075 Q46.4841 758.267 44.906 758.975 Q43.3279 759.652 41.2346 759.652 Q39.0124 759.652 35.985 758.782 Q32.9577 757.913 27.386 755.819 Q24.2621 754.692 22.7484 754.692 Q22.0077 754.692 21.5568 754.853 Q21.0737 755.014 20.9127 755.336 Q20.7194 755.658 20.6872 755.852 Q20.655 756.013 20.655 756.335 Q20.655 758.235 22.5874 760.006 Q24.5197 761.777 28.8353 763.001 Q29.6405 763.259 29.8337 763.42 Q30.0269 763.581 30.0269 764.064 Q29.9947 764.869 29.3506 764.869 Q29.093 764.869 28.0946 764.579 Q27.064 764.289 25.5503 763.613 Q24.0044 762.905 22.6196 761.938 Q21.2025 760.972 20.2041 759.459 Q19.2058 757.913 19.2058 756.141 Q19.2058 753.726 20.7838 752.244 Q22.3297 750.731 24.6163 750.731 Q25.5503 750.731 26.3877 750.988 Q27.1928 751.214 29.3506 752.051 Q38.0462 755.433 42.2974 755.433 Q43.3279 755.433 44.1975 755.272 Q45.0349 755.079 45.8722 754.66 Q46.6774 754.241 47.1604 753.404 Q47.6113 752.534 47.6113 751.343 Q47.6113 749.829 46.9028 748.412 Q46.1621 746.963 45.1637 746.061 Q44.1653 745.127 43.3279 744.579 Q42.4584 744 42.0075 743.871 L30.1558 740.908 L24.874 739.588 Q22.0077 738.976 21.2991 738.686 Q20.6228 738.299 20.2686 737.623 Q19.9143 736.947 19.9143 736.367 Q19.9143 735.562 20.3974 735.014 Q20.8805 734.435 21.7178 734.435 Z" fill="#000000" fill-rule="nonzero" fill-opacity="1" /><path clip-path="url(#clip320)" d="M53.6652 727.689 L52.2224 727.689 Q52.2224 722.143 49.2691 719.28 Q49.2691 718.491 49.4494 718.355 Q49.6298 718.22 50.4639 718.22 L76.3671 718.22 Q77.7423 718.22 78.1706 717.544 Q78.599 716.867 78.599 713.914 L78.599 712.449 L80.0193 712.449 Q79.884 714.072 79.884 719.933 Q79.884 725.795 80.0193 727.395 L78.599 727.395 L78.599 725.93 Q78.599 723.022 78.1932 722.323 Q77.7648 721.624 76.3671 721.624 L52.4478 721.624 Q53.6652 724.036 53.6652 727.689 Z" fill="#000000" fill-rule="nonzero" fill-opacity="1" /><polyline clip-path="url(#clip322)" style="stroke:#009af9; stroke-linecap:round; stroke-linejoin:round; stroke-width:4; stroke-opacity:1; fill:none" points="258.086,86.1857 272.604,86.1857 287.122,86.1857 301.64,784.76 316.159,1097.27 330.677,1196.63 345.195,1234.5 359.713,1321.98 374.231,1384.24 388.749,1382.55 403.267,1331.03 417.785,1266.34 432.303,1201.46 446.821,1132.95 461.339,1059.17 475.857,985.909 490.375,918.72 504.893,858.642 519.411,804.686 533.929,756.868 548.447,715.901 562.965,681.783 577.484,653.699 592.002,630.786 606.52,612.454 621.038,598.157 635.556,587.237 650.074,579.03 664.592,572.995 679.11,568.705 693.628,565.78 708.146,563.887 722.664,562.75 737.182,562.165 751.7,561.969 766.218,562.036 780.736,562.265 795.254,562.587 809.772,562.951 824.29,563.325 838.809,563.683 853.327,564.012 867.845,564.306 882.363,564.56 896.881,564.776 911.399,564.955 925.917,565.101 940.435,565.218 954.953,565.31 969.471,565.381 983.989,565.434 998.507,565.474 1013.03,565.502 1027.54,565.522 1042.06,565.535 1056.58,565.543 1071.1,565.548 1085.62,565.55 1100.13,565.55 1114.65,565.549 "/>
<polyline clip-path="url(#clip322)" style="stroke:#3da44d; stroke-linecap:round; stroke-linejoin:round; stroke-width:3; stroke-opacity:1; fill:none" stroke-dasharray="12, 8" points="258.086,569.891 272.604,569.891 287.122,569.891 301.64,569.891 316.159,569.891 330.677,569.891 345.195,569.891 359.713,569.891 374.231,569.891 388.749,569.891 403.267,569.891 417.785,569.891 432.303,569.891 446.821,569.891 461.339,569.891 475.857,569.891 490.375,569.891 504.893,569.891 519.411,569.891 533.929,569.891 548.447,569.891 562.965,569.891 577.484,569.891 592.002,569.891 606.52,569.891 621.038,569.891 635.556,569.891 650.074,569.891 664.592,569.891 679.11,569.891 693.628,569.891 708.146,569.891 722.664,569.891 737.182,569.891 751.7,569.891 766.218,569.891 780.736,569.891 795.254,569.891 809.772,569.891 824.29,569.891 838.809,569.891 853.327,569.891 867.845,569.891 882.363,569.891 896.881,569.891 911.399,569.891 925.917,569.891 940.435,569.891 954.953,569.891 969.471,569.891 983.989,569.891 998.507,569.891 1013.03,569.891 1027.54,569.891 1042.06,569.891 1056.58,569.891 1071.1,569.891 1085.62,569.891 1100.13,569.891 1114.65,569.891 "/>
<path clip-path="url(#clip320)" d="M971.279 248.629 L1110.08 248.629 L1110.08 93.1086 L971.279 93.1086  Z" fill="#ffffff" fill-rule="evenodd" fill-opacity="1"/>
<polyline clip-path="url(#clip320)" style="stroke:#000000; stroke-linecap:round; stroke-linejoin:round; stroke-width:4; stroke-opacity:1; fill:none" points="971.279,248.629 1110.08,248.629 1110.08,93.1086 971.279,93.1086 971.279,248.629 "/>
<polyline clip-path="url(#clip320)" style="stroke:#009af9; stroke-linecap:round; stroke-linejoin:round; stroke-width:4; stroke-opacity:1; fill:none" points="981.367,144.949 1041.9,144.949 "/>
<path clip-path="url(#clip320)" d="M1078.76 131.687 Q1077.28 131.687 1076.53 131.828 Q1075.78 131.945 1075.6 132.109 Q1075.41 132.273 1075.2 132.695 L1064.89 154.618 Q1063.79 156.96 1061.73 158.647 Q1059.69 160.333 1057.12 160.333 Q1054.96 160.333 1053.46 159.021 Q1051.99 157.733 1051.99 155.906 Q1051.99 154.595 1052.81 153.845 Q1053.63 153.119 1054.73 153.119 Q1055.94 153.119 1056.72 153.892 Q1057.51 154.665 1057.51 155.859 Q1057.51 156.632 1057.19 157.218 Q1056.86 157.827 1056.55 158.038 Q1056.27 158.272 1055.97 158.412 Q1056.46 158.6 1057.12 158.6 Q1058.1 158.6 1058.94 158.202 Q1059.81 157.827 1060.37 157.312 Q1060.96 156.82 1061.54 155.93 Q1062.13 155.063 1062.41 154.501 Q1062.69 153.962 1063.11 153.025 L1064.21 150.73 L1055.24 131.687 L1052.17 131.687 L1052.17 129.439 L1057.65 129.579 L1063.6 129.439 L1063.6 131.687 L1061 131.687 L1067.09 144.64 L1072.62 132.835 L1072.86 132.273 Q1072.86 132.015 1072.29 131.875 Q1071.73 131.711 1071.17 131.711 L1070.61 131.687 L1070.61 129.439 L1074.96 129.579 Q1077.02 129.579 1078.76 129.439 L1078.76 131.687 Z" fill="#000000" fill-rule="nonzero" fill-opacity="1" /><polyline clip-path="url(#clip320)" style="stroke:#3da44d; stroke-linecap:round; stroke-linejoin:round; stroke-width:3; stroke-opacity:1; fill:none" stroke-dasharray="12, 8" points="981.367,196.789 1041.9,196.789 "/>
<path clip-path="url(#clip320)" d="M1071.4 182.067 Q1071.4 183.425 1070.51 184.221 Q1069.62 184.994 1068.48 184.994 Q1067.33 184.994 1066.44 184.221 Q1065.55 183.448 1065.55 182.067 Q1065.55 181.458 1065.76 180.919 Q1065.99 180.357 1066.23 180.099 L1066.46 179.865 Q1065.08 179.865 1064 180.521 Q1062.92 181.153 1062.27 182.137 Q1061.61 183.121 1061.19 184.409 Q1060.77 185.674 1060.61 186.821 Q1060.46 187.969 1060.46 189.07 L1060.46 197.479 L1064.63 197.479 L1064.63 199.727 Q1062.9 199.587 1058.03 199.587 L1051.99 199.727 L1051.99 197.479 L1055.29 197.479 L1055.29 182.652 Q1055.29 181.294 1054.8 181.036 Q1054.3 180.778 1051.99 180.778 L1051.99 178.53 L1059.95 178.132 L1059.95 183.566 Q1061.94 178.132 1066.32 178.132 Q1068.33 178.132 1069.86 179.209 Q1071.4 180.263 1071.4 182.067 Z" fill="#000000" fill-rule="nonzero" fill-opacity="1" /><path clip-path="url(#clip320)" d="M1095.07 195.25 Q1094.03 195.25 1093.51 195.349 Q1092.98 195.431 1092.85 195.545 Q1092.72 195.66 1092.57 195.955 L1085.36 211.302 Q1084.59 212.941 1083.15 214.122 Q1081.72 215.302 1079.92 215.302 Q1078.41 215.302 1077.36 214.384 Q1076.32 213.482 1076.32 212.203 Q1076.32 211.285 1076.9 210.76 Q1077.47 210.252 1078.24 210.252 Q1079.1 210.252 1079.64 210.793 Q1080.19 211.334 1080.19 212.171 Q1080.19 212.712 1079.96 213.121 Q1079.74 213.548 1079.52 213.695 Q1079.33 213.859 1079.11 213.958 Q1079.46 214.089 1079.92 214.089 Q1080.6 214.089 1081.19 213.81 Q1081.8 213.548 1082.19 213.187 Q1082.6 212.843 1083.01 212.22 Q1083.42 211.613 1083.62 211.22 Q1083.82 210.842 1084.11 210.187 L1084.88 208.58 L1078.6 195.25 L1076.46 195.25 L1076.46 193.676 L1080.29 193.775 L1084.46 193.676 L1084.46 195.25 L1082.64 195.25 L1086.9 204.317 L1090.77 196.054 L1090.93 195.66 Q1090.93 195.48 1090.54 195.381 Q1090.15 195.267 1089.75 195.267 L1089.36 195.25 L1089.36 193.676 L1092.41 193.775 Q1093.85 193.775 1095.07 193.676 L1095.07 195.25 Z" fill="#000000" fill-rule="nonzero" fill-opacity="1" /><path clip-path="url(#clip320)" d="M1444.8 1423.18 L2352.76 1423.18 L2352.76 47.2441 L1444.8 47.2441  Z" fill="#ffffff" fill-rule="evenodd" fill-opacity="1"/>
<defs>
  <clipPath id="clip323">
    <rect x="1444" y="47" width="909" height="1377"/>
  </clipPath>
</defs>
<polyline clip-path="url(#clip323)" style="stroke:#000000; stroke-linecap:round; stroke-linejoin:round; stroke-width:2; stroke-opacity:0.1; fill:none" points="1470.49,1423.18 1470.49,47.2441 "/>
<polyline clip-path="url(#clip323)" style="stroke:#000000; stroke-linecap:round; stroke-linejoin:round; stroke-width:2; stroke-opacity:0.1; fill:none" points="1615.67,1423.18 1615.67,47.2441 "/>
<polyline clip-path="url(#clip323)" style="stroke:#000000; stroke-linecap:round; stroke-linejoin:round; stroke-width:2; stroke-opacity:0.1; fill:none" points="1760.85,1423.18 1760.85,47.2441 "/>
<polyline clip-path="url(#clip323)" style="stroke:#000000; stroke-linecap:round; stroke-linejoin:round; stroke-width:2; stroke-opacity:0.1; fill:none" points="1906.04,1423.18 1906.04,47.2441 "/>
<polyline clip-path="url(#clip323)" style="stroke:#000000; stroke-linecap:round; stroke-linejoin:round; stroke-width:2; stroke-opacity:0.1; fill:none" points="2051.22,1423.18 2051.22,47.2441 "/>
<polyline clip-path="url(#clip323)" style="stroke:#000000; stroke-linecap:round; stroke-linejoin:round; stroke-width:2; stroke-opacity:0.1; fill:none" points="2196.4,1423.18 2196.4,47.2441 "/>
<polyline clip-path="url(#clip323)" style="stroke:#000000; stroke-linecap:round; stroke-linejoin:round; stroke-width:2; stroke-opacity:0.1; fill:none" points="2341.58,1423.18 2341.58,47.2441 "/>
<polyline clip-path="url(#clip320)" style="stroke:#000000; stroke-linecap:round; stroke-linejoin:round; stroke-width:4; stroke-opacity:1; fill:none" points="1444.8,1423.18 2352.76,1423.18 "/>
<polyline clip-path="url(#clip320)" style="stroke:#000000; stroke-linecap:round; stroke-linejoin:round; stroke-width:4; stroke-opacity:1; fill:none" points="1470.49,1423.18 1470.49,1404.28 "/>
<polyline clip-path="url(#clip320)" style="stroke:#000000; stroke-linecap:round; stroke-linejoin:round; stroke-width:4; stroke-opacity:1; fill:none" points="1615.67,1423.18 1615.67,1404.28 "/>
<polyline clip-path="url(#clip320)" style="stroke:#000000; stroke-linecap:round; stroke-linejoin:round; stroke-width:4; stroke-opacity:1; fill:none" points="1760.85,1423.18 1760.85,1404.28 "/>
<polyline clip-path="url(#clip320)" style="stroke:#000000; stroke-linecap:round; stroke-linejoin:round; stroke-width:4; stroke-opacity:1; fill:none" points="1906.04,1423.18 1906.04,1404.28 "/>
<polyline clip-path="url(#clip320)" style="stroke:#000000; stroke-linecap:round; stroke-linejoin:round; stroke-width:4; stroke-opacity:1; fill:none" points="2051.22,1423.18 2051.22,1404.28 "/>
<polyline clip-path="url(#clip320)" style="stroke:#000000; stroke-linecap:round; stroke-linejoin:round; stroke-width:4; stroke-opacity:1; fill:none" points="2196.4,1423.18 2196.4,1404.28 "/>
<polyline clip-path="url(#clip320)" style="stroke:#000000; stroke-linecap:round; stroke-linejoin:round; stroke-width:4; stroke-opacity:1; fill:none" points="2341.58,1423.18 2341.58,1404.28 "/>
<path clip-path="url(#clip320)" d="M1470.49 1454.1 Q1466.88 1454.1 1465.05 1457.66 Q1463.25 1461.2 1463.25 1468.33 Q1463.25 1475.44 1465.05 1479.01 Q1466.88 1482.55 1470.49 1482.55 Q1474.13 1482.55 1475.93 1479.01 Q1477.76 1475.44 1477.76 1468.33 Q1477.76 1461.2 1475.93 1457.66 Q1474.13 1454.1 1470.49 1454.1 M1470.49 1450.39 Q1476.3 1450.39 1479.36 1455 Q1482.44 1459.58 1482.44 1468.33 Q1482.44 1477.06 1479.36 1481.67 Q1476.3 1486.25 1470.49 1486.25 Q1464.68 1486.25 1461.6 1481.67 Q1458.55 1477.06 1458.55 1468.33 Q1458.55 1459.58 1461.6 1455 Q1464.68 1450.39 1470.49 1450.39 Z" fill="#000000" fill-rule="nonzero" fill-opacity="1" /><path clip-path="url(#clip320)" d="M1606.06 1481.64 L1613.7 1481.64 L1613.7 1455.28 L1605.38 1456.95 L1605.38 1452.69 L1613.65 1451.02 L1618.32 1451.02 L1618.32 1481.64 L1625.96 1481.64 L1625.96 1485.58 L1606.06 1485.58 L1606.06 1481.64 Z" fill="#000000" fill-rule="nonzero" fill-opacity="1" /><path clip-path="url(#clip320)" d="M1755.51 1481.64 L1771.83 1481.64 L1771.83 1485.58 L1749.88 1485.58 L1749.88 1481.64 Q1752.54 1478.89 1757.13 1474.26 Q1761.73 1469.61 1762.91 1468.27 Q1765.16 1465.74 1766.04 1464.01 Q1766.94 1462.25 1766.94 1460.56 Q1766.94 1457.8 1765 1456.07 Q1763.08 1454.33 1759.98 1454.33 Q1757.78 1454.33 1755.32 1455.09 Q1752.89 1455.86 1750.11 1457.41 L1750.11 1452.69 Q1752.94 1451.55 1755.39 1450.97 Q1757.85 1450.39 1759.88 1450.39 Q1765.25 1450.39 1768.45 1453.08 Q1771.64 1455.77 1771.64 1460.26 Q1771.64 1462.39 1770.83 1464.31 Q1770.04 1466.2 1767.94 1468.8 Q1767.36 1469.47 1764.26 1472.69 Q1761.16 1475.88 1755.51 1481.64 Z" fill="#000000" fill-rule="nonzero" fill-opacity="1" /><path clip-path="url(#clip320)" d="M1910.28 1466.95 Q1913.64 1467.66 1915.51 1469.93 Q1917.41 1472.2 1917.41 1475.53 Q1917.41 1480.65 1913.89 1483.45 Q1910.38 1486.25 1903.89 1486.25 Q1901.72 1486.25 1899.4 1485.81 Q1897.11 1485.39 1894.66 1484.54 L1894.66 1480.02 Q1896.6 1481.16 1898.92 1481.74 Q1901.23 1482.32 1903.76 1482.32 Q1908.15 1482.32 1910.45 1480.58 Q1912.76 1478.84 1912.76 1475.53 Q1912.76 1472.48 1910.61 1470.77 Q1908.48 1469.03 1904.66 1469.03 L1900.63 1469.03 L1900.63 1465.19 L1904.84 1465.19 Q1908.29 1465.19 1910.12 1463.82 Q1911.95 1462.43 1911.95 1459.84 Q1911.95 1457.18 1910.05 1455.77 Q1908.18 1454.33 1904.66 1454.33 Q1902.74 1454.33 1900.54 1454.75 Q1898.34 1455.16 1895.7 1456.04 L1895.7 1451.88 Q1898.36 1451.14 1900.68 1450.77 Q1903.01 1450.39 1905.07 1450.39 Q1910.4 1450.39 1913.5 1452.83 Q1916.6 1455.23 1916.6 1459.35 Q1916.6 1462.22 1914.96 1464.21 Q1913.32 1466.18 1910.28 1466.95 Z" fill="#000000" fill-rule="nonzero" fill-opacity="1" /><path clip-path="url(#clip320)" d="M2054.23 1455.09 L2042.42 1473.54 L2054.23 1473.54 L2054.23 1455.09 M2053 1451.02 L2058.88 1451.02 L2058.88 1473.54 L2063.81 1473.54 L2063.81 1477.43 L2058.88 1477.43 L2058.88 1485.58 L2054.23 1485.58 L2054.23 1477.43 L2038.62 1477.43 L2038.62 1472.92 L2053 1451.02 Z" fill="#000000" fill-rule="nonzero" fill-opacity="1" /><path clip-path="url(#clip320)" d="M2186.67 1451.02 L2205.03 1451.02 L2205.03 1454.96 L2190.96 1454.96 L2190.96 1463.43 Q2191.98 1463.08 2192.99 1462.92 Q2194.01 1462.73 2195.03 1462.73 Q2200.82 1462.73 2204.2 1465.9 Q2207.58 1469.08 2207.58 1474.49 Q2207.58 1480.07 2204.1 1483.17 Q2200.63 1486.25 2194.31 1486.25 Q2192.14 1486.25 2189.87 1485.88 Q2187.62 1485.51 2185.22 1484.77 L2185.22 1480.07 Q2187.3 1481.2 2189.52 1481.76 Q2191.74 1482.32 2194.22 1482.32 Q2198.23 1482.32 2200.56 1480.21 Q2202.9 1478.1 2202.9 1474.49 Q2202.9 1470.88 2200.56 1468.77 Q2198.23 1466.67 2194.22 1466.67 Q2192.35 1466.67 2190.47 1467.08 Q2188.62 1467.5 2186.67 1468.38 L2186.67 1451.02 Z" fill="#000000" fill-rule="nonzero" fill-opacity="1" /><path clip-path="url(#clip320)" d="M2341.98 1466.44 Q2338.83 1466.44 2336.98 1468.59 Q2335.15 1470.74 2335.15 1474.49 Q2335.15 1478.22 2336.98 1480.39 Q2338.83 1482.55 2341.98 1482.55 Q2345.13 1482.55 2346.96 1480.39 Q2348.81 1478.22 2348.81 1474.49 Q2348.81 1470.74 2346.96 1468.59 Q2345.13 1466.44 2341.98 1466.44 M2351.26 1451.78 L2351.26 1456.04 Q2349.51 1455.21 2347.7 1454.77 Q2345.92 1454.33 2344.16 1454.33 Q2339.53 1454.33 2337.07 1457.45 Q2334.64 1460.58 2334.3 1466.9 Q2335.66 1464.89 2337.72 1463.82 Q2339.78 1462.73 2342.26 1462.73 Q2347.47 1462.73 2350.48 1465.9 Q2353.51 1469.05 2353.51 1474.49 Q2353.51 1479.82 2350.36 1483.03 Q2347.21 1486.25 2341.98 1486.25 Q2335.99 1486.25 2332.82 1481.67 Q2329.64 1477.06 2329.64 1468.33 Q2329.64 1460.14 2333.53 1455.28 Q2337.42 1450.39 2343.97 1450.39 Q2345.73 1450.39 2347.51 1450.74 Q2349.32 1451.09 2351.26 1451.78 Z" fill="#000000" fill-rule="nonzero" fill-opacity="1" /><path clip-path="url(#clip320)" d="M1768.95 1520.52 L1809.15 1520.52 L1809.15 1525.93 L1792.28 1525.93 L1792.28 1568.04 L1785.82 1568.04 L1785.82 1525.93 L1768.95 1525.93 L1768.95 1520.52 Z" fill="#000000" fill-rule="nonzero" fill-opacity="1" /><path clip-path="url(#clip320)" d="M1813.09 1532.4 L1818.95 1532.4 L1818.95 1568.04 L1813.09 1568.04 L1813.09 1532.4 M1813.09 1518.52 L1818.95 1518.52 L1818.95 1525.93 L1813.09 1525.93 L1813.09 1518.52 Z" fill="#000000" fill-rule="nonzero" fill-opacity="1" /><path clip-path="url(#clip320)" d="M1858.96 1539.24 Q1861.15 1535.29 1864.21 1533.41 Q1867.27 1531.54 1871.4 1531.54 Q1876.97 1531.54 1880 1535.45 Q1883.02 1539.33 1883.02 1546.53 L1883.02 1568.04 L1877.13 1568.04 L1877.13 1546.72 Q1877.13 1541.59 1875.32 1539.11 Q1873.5 1536.63 1869.78 1536.63 Q1865.23 1536.63 1862.59 1539.65 Q1859.95 1542.68 1859.95 1547.9 L1859.95 1568.04 L1854.06 1568.04 L1854.06 1546.72 Q1854.06 1541.56 1852.24 1539.11 Q1850.43 1536.63 1846.64 1536.63 Q1842.15 1536.63 1839.51 1539.68 Q1836.87 1542.71 1836.87 1547.9 L1836.87 1568.04 L1830.98 1568.04 L1830.98 1532.4 L1836.87 1532.4 L1836.87 1537.93 Q1838.87 1534.66 1841.68 1533.1 Q1844.48 1531.54 1848.33 1531.54 Q1852.21 1531.54 1854.92 1533.51 Q1857.65 1535.48 1858.96 1539.24 Z" fill="#000000" fill-rule="nonzero" fill-opacity="1" /><path clip-path="url(#clip320)" d="M1925.19 1548.76 L1925.19 1551.62 L1898.27 1551.62 Q1898.65 1557.67 1901.9 1560.85 Q1905.17 1564 1911 1564 Q1914.37 1564 1917.52 1563.17 Q1920.71 1562.35 1923.83 1560.69 L1923.83 1566.23 Q1920.67 1567.57 1917.36 1568.27 Q1914.05 1568.97 1910.65 1568.97 Q1902.12 1568.97 1897.12 1564 Q1892.16 1559.04 1892.16 1550.57 Q1892.16 1541.82 1896.87 1536.69 Q1901.61 1531.54 1909.63 1531.54 Q1916.82 1531.54 1920.99 1536.18 Q1925.19 1540.8 1925.19 1548.76 M1919.34 1547.04 Q1919.27 1542.23 1916.63 1539.37 Q1914.02 1536.5 1909.69 1536.5 Q1904.79 1536.5 1901.83 1539.27 Q1898.9 1542.04 1898.46 1547.07 L1919.34 1547.04 Z" fill="#000000" fill-rule="nonzero" fill-opacity="1" /><path clip-path="url(#clip320)" d="M1969.59 1518.58 Q1965.33 1525.9 1963.26 1533.06 Q1961.19 1540.23 1961.19 1547.58 Q1961.19 1554.93 1963.26 1562.16 Q1965.36 1569.35 1969.59 1576.64 L1964.5 1576.64 Q1959.73 1569.16 1957.34 1561.93 Q1954.99 1554.71 1954.99 1547.58 Q1954.99 1540.48 1957.34 1533.29 Q1959.7 1526.09 1964.5 1518.58 L1969.59 1518.58 Z" fill="#000000" fill-rule="nonzero" fill-opacity="1" /><path clip-path="url(#clip320)" d="M2003.68 1533.45 L2003.68 1538.98 Q2001.2 1537.71 1998.53 1537.07 Q1995.85 1536.44 1992.99 1536.44 Q1988.63 1536.44 1986.43 1537.77 Q1984.27 1539.11 1984.27 1541.79 Q1984.27 1543.82 1985.83 1545 Q1987.39 1546.15 1992.1 1547.2 L1994.1 1547.64 Q2000.34 1548.98 2002.95 1551.43 Q2005.59 1553.85 2005.59 1558.21 Q2005.59 1563.17 2001.65 1566.07 Q1997.73 1568.97 1990.86 1568.97 Q1987.99 1568.97 1984.87 1568.39 Q1981.79 1567.85 1978.35 1566.74 L1978.35 1560.69 Q1981.59 1562.38 1984.75 1563.24 Q1987.9 1564.07 1990.98 1564.07 Q1995.12 1564.07 1997.35 1562.66 Q1999.58 1561.23 1999.58 1558.65 Q1999.58 1556.27 1997.95 1554.99 Q1996.36 1553.72 1990.92 1552.54 L1988.88 1552.07 Q1983.44 1550.92 1981.02 1548.56 Q1978.6 1546.18 1978.6 1542.04 Q1978.6 1537.01 1982.17 1534.27 Q1985.73 1531.54 1992.29 1531.54 Q1995.54 1531.54 1998.4 1532.01 Q2001.26 1532.49 2003.68 1533.45 Z" fill="#000000" fill-rule="nonzero" fill-opacity="1" /><path clip-path="url(#clip320)" d="M2014 1518.58 L2019.09 1518.58 Q2023.86 1526.09 2026.22 1533.29 Q2028.6 1540.48 2028.6 1547.58 Q2028.6 1554.71 2026.22 1561.93 Q2023.86 1569.16 2019.09 1576.64 L2014 1576.64 Q2018.23 1569.35 2020.3 1562.16 Q2022.4 1554.93 2022.4 1547.58 Q2022.4 1540.23 2020.3 1533.06 Q2018.23 1525.9 2014 1518.58 Z" fill="#000000" fill-rule="nonzero" fill-opacity="1" /><polyline clip-path="url(#clip323)" style="stroke:#000000; stroke-linecap:round; stroke-linejoin:round; stroke-width:2; stroke-opacity:0.1; fill:none" points="1444.8,1384.24 2352.76,1384.24 "/>
<polyline clip-path="url(#clip323)" style="stroke:#000000; stroke-linecap:round; stroke-linejoin:round; stroke-width:2; stroke-opacity:0.1; fill:none" points="1444.8,1167.9 2352.76,1167.9 "/>
<polyline clip-path="url(#clip323)" style="stroke:#000000; stroke-linecap:round; stroke-linejoin:round; stroke-width:2; stroke-opacity:0.1; fill:none" points="1444.8,951.554 2352.76,951.554 "/>
<polyline clip-path="url(#clip323)" style="stroke:#000000; stroke-linecap:round; stroke-linejoin:round; stroke-width:2; stroke-opacity:0.1; fill:none" points="1444.8,735.212 2352.76,735.212 "/>
<polyline clip-path="url(#clip323)" style="stroke:#000000; stroke-linecap:round; stroke-linejoin:round; stroke-width:2; stroke-opacity:0.1; fill:none" points="1444.8,518.87 2352.76,518.87 "/>
<polyline clip-path="url(#clip323)" style="stroke:#000000; stroke-linecap:round; stroke-linejoin:round; stroke-width:2; stroke-opacity:0.1; fill:none" points="1444.8,302.528 2352.76,302.528 "/>
<polyline clip-path="url(#clip323)" style="stroke:#000000; stroke-linecap:round; stroke-linejoin:round; stroke-width:2; stroke-opacity:0.1; fill:none" points="1444.8,86.1857 2352.76,86.1857 "/>
<polyline clip-path="url(#clip320)" style="stroke:#000000; stroke-linecap:round; stroke-linejoin:round; stroke-width:4; stroke-opacity:1; fill:none" points="1444.8,1423.18 1444.8,47.2441 "/>
<polyline clip-path="url(#clip320)" style="stroke:#000000; stroke-linecap:round; stroke-linejoin:round; stroke-width:4; stroke-opacity:1; fill:none" points="1444.8,1384.24 1463.69,1384.24 "/>
<polyline clip-path="url(#clip320)" style="stroke:#000000; stroke-linecap:round; stroke-linejoin:round; stroke-width:4; stroke-opacity:1; fill:none" points="1444.8,1167.9 1463.69,1167.9 "/>
<polyline clip-path="url(#clip320)" style="stroke:#000000; stroke-linecap:round; stroke-linejoin:round; stroke-width:4; stroke-opacity:1; fill:none" points="1444.8,951.554 1463.69,951.554 "/>
<polyline clip-path="url(#clip320)" style="stroke:#000000; stroke-linecap:round; stroke-linejoin:round; stroke-width:4; stroke-opacity:1; fill:none" points="1444.8,735.212 1463.69,735.212 "/>
<polyline clip-path="url(#clip320)" style="stroke:#000000; stroke-linecap:round; stroke-linejoin:round; stroke-width:4; stroke-opacity:1; fill:none" points="1444.8,518.87 1463.69,518.87 "/>
<polyline clip-path="url(#clip320)" style="stroke:#000000; stroke-linecap:round; stroke-linejoin:round; stroke-width:4; stroke-opacity:1; fill:none" points="1444.8,302.528 1463.69,302.528 "/>
<polyline clip-path="url(#clip320)" style="stroke:#000000; stroke-linecap:round; stroke-linejoin:round; stroke-width:4; stroke-opacity:1; fill:none" points="1444.8,86.1857 1463.69,86.1857 "/>
<path clip-path="url(#clip320)" d="M1302.85 1384.69 L1332.52 1384.69 L1332.52 1388.62 L1302.85 1388.62 L1302.85 1384.69 Z" fill="#000000" fill-rule="nonzero" fill-opacity="1" /><path clip-path="url(#clip320)" d="M1343.43 1397.58 L1351.07 1397.58 L1351.07 1371.22 L1342.76 1372.88 L1342.76 1368.62 L1351.02 1366.96 L1355.7 1366.96 L1355.7 1397.58 L1363.33 1397.58 L1363.33 1401.52 L1343.43 1401.52 L1343.43 1397.58 Z" fill="#000000" fill-rule="nonzero" fill-opacity="1" /><path clip-path="url(#clip320)" d="M1372.78 1395.64 L1377.66 1395.64 L1377.66 1401.52 L1372.78 1401.52 L1372.78 1395.64 Z" fill="#000000" fill-rule="nonzero" fill-opacity="1" /><path clip-path="url(#clip320)" d="M1387.89 1366.96 L1406.25 1366.96 L1406.25 1370.89 L1392.18 1370.89 L1392.18 1379.37 Q1393.19 1379.02 1394.21 1378.86 Q1395.23 1378.67 1396.25 1378.67 Q1402.04 1378.67 1405.42 1381.84 Q1408.8 1385.01 1408.8 1390.43 Q1408.8 1396.01 1405.32 1399.11 Q1401.85 1402.19 1395.53 1402.19 Q1393.36 1402.19 1391.09 1401.82 Q1388.84 1401.45 1386.44 1400.71 L1386.44 1396.01 Q1388.52 1397.14 1390.74 1397.7 Q1392.96 1398.25 1395.44 1398.25 Q1399.44 1398.25 1401.78 1396.15 Q1404.12 1394.04 1404.12 1390.43 Q1404.12 1386.82 1401.78 1384.71 Q1399.44 1382.61 1395.44 1382.61 Q1393.57 1382.61 1391.69 1383.02 Q1389.84 1383.44 1387.89 1384.32 L1387.89 1366.96 Z" fill="#000000" fill-rule="nonzero" fill-opacity="1" /><path clip-path="url(#clip320)" d="M1301.85 1168.35 L1331.53 1168.35 L1331.53 1172.28 L1301.85 1172.28 L1301.85 1168.35 Z" fill="#000000" fill-rule="nonzero" fill-opacity="1" /><path clip-path="url(#clip320)" d="M1342.43 1181.24 L1350.07 1181.24 L1350.07 1154.88 L1341.76 1156.54 L1341.76 1152.28 L1350.02 1150.62 L1354.7 1150.62 L1354.7 1181.24 L1362.34 1181.24 L1362.34 1185.18 L1342.43 1185.18 L1342.43 1181.24 Z" fill="#000000" fill-rule="nonzero" fill-opacity="1" /><path clip-path="url(#clip320)" d="M1371.78 1179.3 L1376.67 1179.3 L1376.67 1185.18 L1371.78 1185.18 L1371.78 1179.3 Z" fill="#000000" fill-rule="nonzero" fill-opacity="1" /><path clip-path="url(#clip320)" d="M1396.85 1153.69 Q1393.24 1153.69 1391.41 1157.26 Q1389.61 1160.8 1389.61 1167.93 Q1389.61 1175.04 1391.41 1178.6 Q1393.24 1182.14 1396.85 1182.14 Q1400.49 1182.14 1402.29 1178.6 Q1404.12 1175.04 1404.12 1167.93 Q1404.12 1160.8 1402.29 1157.26 Q1400.49 1153.69 1396.85 1153.69 M1396.85 1149.99 Q1402.66 1149.99 1405.72 1154.6 Q1408.8 1159.18 1408.8 1167.93 Q1408.8 1176.66 1405.72 1181.26 Q1402.66 1185.85 1396.85 1185.85 Q1391.04 1185.85 1387.96 1181.26 Q1384.91 1176.66 1384.91 1167.93 Q1384.91 1159.18 1387.96 1154.6 Q1391.04 1149.99 1396.85 1149.99 Z" fill="#000000" fill-rule="nonzero" fill-opacity="1" /><path clip-path="url(#clip320)" d="M1302.85 952.005 L1332.52 952.005 L1332.52 955.941 L1302.85 955.941 L1302.85 952.005 Z" fill="#000000" fill-rule="nonzero" fill-opacity="1" /><path clip-path="url(#clip320)" d="M1352.62 937.353 Q1349.01 937.353 1347.18 940.918 Q1345.37 944.459 1345.37 951.589 Q1345.37 958.695 1347.18 962.26 Q1349.01 965.802 1352.62 965.802 Q1356.25 965.802 1358.06 962.26 Q1359.88 958.695 1359.88 951.589 Q1359.88 944.459 1358.06 940.918 Q1356.25 937.353 1352.62 937.353 M1352.62 933.649 Q1358.43 933.649 1361.48 938.256 Q1364.56 942.839 1364.56 951.589 Q1364.56 960.316 1361.48 964.922 Q1358.43 969.505 1352.62 969.505 Q1346.81 969.505 1343.73 964.922 Q1340.67 960.316 1340.67 951.589 Q1340.67 942.839 1343.73 938.256 Q1346.81 933.649 1352.62 933.649 Z" fill="#000000" fill-rule="nonzero" fill-opacity="1" /><path clip-path="url(#clip320)" d="M1372.78 962.954 L1377.66 962.954 L1377.66 968.834 L1372.78 968.834 L1372.78 962.954 Z" fill="#000000" fill-rule="nonzero" fill-opacity="1" /><path clip-path="url(#clip320)" d="M1387.89 934.274 L1406.25 934.274 L1406.25 938.209 L1392.18 938.209 L1392.18 946.681 Q1393.19 946.334 1394.21 946.172 Q1395.23 945.987 1396.25 945.987 Q1402.04 945.987 1405.42 949.158 Q1408.8 952.33 1408.8 957.746 Q1408.8 963.325 1405.32 966.427 Q1401.85 969.505 1395.53 969.505 Q1393.36 969.505 1391.09 969.135 Q1388.84 968.765 1386.44 968.024 L1386.44 963.325 Q1388.52 964.459 1390.74 965.015 Q1392.96 965.57 1395.44 965.57 Q1399.44 965.57 1401.78 963.464 Q1404.12 961.357 1404.12 957.746 Q1404.12 954.135 1401.78 952.029 Q1399.44 949.922 1395.44 949.922 Q1393.57 949.922 1391.69 950.339 Q1389.84 950.755 1387.89 951.635 L1387.89 934.274 Z" fill="#000000" fill-rule="nonzero" fill-opacity="1" /><path clip-path="url(#clip320)" d="M1351.62 721.011 Q1348.01 721.011 1346.18 724.575 Q1344.38 728.117 1344.38 735.247 Q1344.38 742.353 1346.18 745.918 Q1348.01 749.46 1351.62 749.46 Q1355.26 749.46 1357.06 745.918 Q1358.89 742.353 1358.89 735.247 Q1358.89 728.117 1357.06 724.575 Q1355.26 721.011 1351.62 721.011 M1351.62 717.307 Q1357.43 717.307 1360.49 721.913 Q1363.57 726.497 1363.57 735.247 Q1363.57 743.973 1360.49 748.58 Q1357.43 753.163 1351.62 753.163 Q1345.81 753.163 1342.73 748.58 Q1339.68 743.973 1339.68 735.247 Q1339.68 726.497 1342.73 721.913 Q1345.81 717.307 1351.62 717.307 Z" fill="#000000" fill-rule="nonzero" fill-opacity="1" /><path clip-path="url(#clip320)" d="M1371.78 746.612 L1376.67 746.612 L1376.67 752.492 L1371.78 752.492 L1371.78 746.612 Z" fill="#000000" fill-rule="nonzero" fill-opacity="1" /><path clip-path="url(#clip320)" d="M1396.85 721.011 Q1393.24 721.011 1391.41 724.575 Q1389.61 728.117 1389.61 735.247 Q1389.61 742.353 1391.41 745.918 Q1393.24 749.46 1396.85 749.46 Q1400.49 749.46 1402.29 745.918 Q1404.12 742.353 1404.12 735.247 Q1404.12 728.117 1402.29 724.575 Q1400.49 721.011 1396.85 721.011 M1396.85 717.307 Q1402.66 717.307 1405.72 721.913 Q1408.8 726.497 1408.8 735.247 Q1408.8 743.973 1405.72 748.58 Q1402.66 753.163 1396.85 753.163 Q1391.04 753.163 1387.96 748.58 Q1384.91 743.973 1384.91 735.247 Q1384.91 726.497 1387.96 721.913 Q1391.04 717.307 1396.85 717.307 Z" fill="#000000" fill-rule="nonzero" fill-opacity="1" /><path clip-path="url(#clip320)" d="M1352.62 504.669 Q1349.01 504.669 1347.18 508.233 Q1345.37 511.775 1345.37 518.905 Q1345.37 526.011 1347.18 529.576 Q1349.01 533.117 1352.62 533.117 Q1356.25 533.117 1358.06 529.576 Q1359.88 526.011 1359.88 518.905 Q1359.88 511.775 1358.06 508.233 Q1356.25 504.669 1352.62 504.669 M1352.62 500.965 Q1358.43 500.965 1361.48 505.571 Q1364.56 510.155 1364.56 518.905 Q1364.56 527.631 1361.48 532.238 Q1358.43 536.821 1352.62 536.821 Q1346.81 536.821 1343.73 532.238 Q1340.67 527.631 1340.67 518.905 Q1340.67 510.155 1343.73 505.571 Q1346.81 500.965 1352.62 500.965 Z" fill="#000000" fill-rule="nonzero" fill-opacity="1" /><path clip-path="url(#clip320)" d="M1372.78 530.27 L1377.66 530.27 L1377.66 536.15 L1372.78 536.15 L1372.78 530.27 Z" fill="#000000" fill-rule="nonzero" fill-opacity="1" /><path clip-path="url(#clip320)" d="M1387.89 501.59 L1406.25 501.59 L1406.25 505.525 L1392.18 505.525 L1392.18 513.997 Q1393.19 513.65 1394.21 513.488 Q1395.23 513.303 1396.25 513.303 Q1402.04 513.303 1405.42 516.474 Q1408.8 519.645 1408.8 525.062 Q1408.8 530.641 1405.32 533.742 Q1401.85 536.821 1395.53 536.821 Q1393.36 536.821 1391.09 536.451 Q1388.84 536.08 1386.44 535.34 L1386.44 530.641 Q1388.52 531.775 1390.74 532.33 Q1392.96 532.886 1395.44 532.886 Q1399.44 532.886 1401.78 530.78 Q1404.12 528.673 1404.12 525.062 Q1404.12 521.451 1401.78 519.344 Q1399.44 517.238 1395.44 517.238 Q1393.57 517.238 1391.69 517.655 Q1389.84 518.071 1387.89 518.951 L1387.89 501.59 Z" fill="#000000" fill-rule="nonzero" fill-opacity="1" /><path clip-path="url(#clip320)" d="M1342.43 315.873 L1350.07 315.873 L1350.07 289.507 L1341.76 291.174 L1341.76 286.914 L1350.02 285.248 L1354.7 285.248 L1354.7 315.873 L1362.34 315.873 L1362.34 319.808 L1342.43 319.808 L1342.43 315.873 Z" fill="#000000" fill-rule="nonzero" fill-opacity="1" /><path clip-path="url(#clip320)" d="M1371.78 313.928 L1376.67 313.928 L1376.67 319.808 L1371.78 319.808 L1371.78 313.928 Z" fill="#000000" fill-rule="nonzero" fill-opacity="1" /><path clip-path="url(#clip320)" d="M1396.85 288.326 Q1393.24 288.326 1391.41 291.891 Q1389.61 295.433 1389.61 302.562 Q1389.61 309.669 1391.41 313.234 Q1393.24 316.775 1396.85 316.775 Q1400.49 316.775 1402.29 313.234 Q1404.12 309.669 1404.12 302.562 Q1404.12 295.433 1402.29 291.891 Q1400.49 288.326 1396.85 288.326 M1396.85 284.623 Q1402.66 284.623 1405.72 289.229 Q1408.8 293.813 1408.8 302.562 Q1408.8 311.289 1405.72 315.896 Q1402.66 320.479 1396.85 320.479 Q1391.04 320.479 1387.96 315.896 Q1384.91 311.289 1384.91 302.562 Q1384.91 293.813 1387.96 289.229 Q1391.04 284.623 1396.85 284.623 Z" fill="#000000" fill-rule="nonzero" fill-opacity="1" /><path clip-path="url(#clip320)" d="M1343.43 99.5305 L1351.07 99.5305 L1351.07 73.1649 L1342.76 74.8316 L1342.76 70.5723 L1351.02 68.9057 L1355.7 68.9057 L1355.7 99.5305 L1363.33 99.5305 L1363.33 103.466 L1343.43 103.466 L1343.43 99.5305 Z" fill="#000000" fill-rule="nonzero" fill-opacity="1" /><path clip-path="url(#clip320)" d="M1372.78 97.5861 L1377.66 97.5861 L1377.66 103.466 L1372.78 103.466 L1372.78 97.5861 Z" fill="#000000" fill-rule="nonzero" fill-opacity="1" /><path clip-path="url(#clip320)" d="M1387.89 68.9057 L1406.25 68.9057 L1406.25 72.8408 L1392.18 72.8408 L1392.18 81.313 Q1393.19 80.9658 1394.21 80.8038 Q1395.23 80.6186 1396.25 80.6186 Q1402.04 80.6186 1405.42 83.7899 Q1408.8 86.9611 1408.8 92.3778 Q1408.8 97.9564 1405.32 101.058 Q1401.85 104.137 1395.53 104.137 Q1393.36 104.137 1391.09 103.767 Q1388.84 103.396 1386.44 102.655 L1386.44 97.9564 Q1388.52 99.0907 1390.74 99.6462 Q1392.96 100.202 1395.44 100.202 Q1399.44 100.202 1401.78 98.0953 Q1404.12 95.9889 1404.12 92.3778 Q1404.12 88.7667 1401.78 86.6602 Q1399.44 84.5537 1395.44 84.5537 Q1393.57 84.5537 1391.69 84.9704 Q1389.84 85.3871 1387.89 86.2667 L1387.89 68.9057 Z" fill="#000000" fill-rule="nonzero" fill-opacity="1" /><path clip-path="url(#clip320)" d="M1232.84 732.675 Q1236.99 733.512 1239.37 734.64 Q1243.01 736.475 1243.01 739.535 Q1243.01 741.661 1241.82 743.271 Q1240.6 744.849 1238.57 745.396 Q1239.37 746.008 1239.92 746.556 Q1240.47 747.071 1241.31 748.07 Q1242.11 749.068 1242.56 750.421 Q1243.01 751.741 1243.01 753.255 Q1243.01 754.414 1242.79 755.477 Q1242.59 756.54 1242.05 757.667 Q1241.47 758.762 1240.6 759.567 Q1239.73 760.34 1238.31 760.855 Q1236.89 761.371 1235.09 761.371 Q1232.84 761.371 1229.78 760.501 Q1226.72 759.599 1221.24 757.538 Q1218.34 756.411 1216.73 756.411 Q1215.99 756.411 1215.51 756.572 Q1215.03 756.733 1214.87 757.055 Q1214.67 757.345 1214.64 757.538 Q1214.58 757.731 1214.58 758.053 Q1214.58 760.05 1216.6 761.789 Q1218.63 763.528 1222.76 764.72 Q1223.56 764.978 1223.75 765.139 Q1223.95 765.3 1223.95 765.783 Q1223.92 766.588 1223.27 766.588 Q1223.01 766.588 1222.02 766.298 Q1220.98 766.008 1219.47 765.332 Q1217.93 764.623 1216.54 763.657 Q1215.12 762.691 1214.12 761.177 Q1213.13 759.631 1213.13 757.86 Q1213.13 755.445 1214.7 753.963 Q1216.25 752.45 1218.54 752.45 Q1219.95 752.45 1222.69 753.577 Q1232.19 757.152 1236.15 757.152 Q1241.53 757.152 1241.53 753.061 Q1241.53 751.709 1240.98 750.453 Q1240.44 749.165 1239.66 748.327 Q1238.89 747.49 1238.05 746.846 Q1237.22 746.169 1236.67 745.88 Q1236.12 745.557 1235.99 745.525 L1216.15 740.598 Q1215.38 740.405 1214.87 740.05 Q1214.32 739.664 1214.12 739.213 Q1213.93 738.762 1213.9 738.504 Q1213.84 738.247 1213.84 738.021 Q1213.84 737.216 1214.32 736.669 Q1214.8 736.089 1215.64 736.089 Q1215.8 736.089 1216.57 736.282 Q1217.31 736.443 1218.41 736.701 Q1219.47 736.959 1220.05 737.087 Q1224.11 738.118 1224.53 738.215 L1231.64 740.05 Q1232.06 740.147 1233.42 740.469 Q1234.77 740.759 1235.48 740.92 Q1236.15 741.081 1237.09 741.242 Q1237.99 741.371 1238.5 741.371 Q1240.12 741.371 1240.82 740.888 Q1241.53 740.405 1241.53 739.342 Q1241.53 738.343 1240.86 737.57 Q1240.15 736.765 1238.79 736.153 Q1237.41 735.541 1236.28 735.187 Q1235.16 734.833 1233.38 734.382 Q1232.61 734.221 1232.42 734.092 Q1232.19 733.931 1232.19 733.48 Q1232.19 732.675 1232.84 732.675 Z" fill="#000000" fill-rule="nonzero" fill-opacity="1" /><path clip-path="url(#clip320)" d="M1234.93 725.97 L1233.49 725.97 Q1233.49 720.424 1230.53 717.561 Q1230.53 716.772 1230.71 716.637 Q1230.89 716.501 1231.73 716.501 L1257.63 716.501 Q1259.01 716.501 1259.44 715.825 Q1259.86 715.149 1259.86 712.195 L1259.86 710.73 L1261.28 710.73 Q1261.15 712.353 1261.15 718.215 Q1261.15 724.076 1261.28 725.677 L1259.86 725.677 L1259.86 724.211 Q1259.86 721.303 1259.46 720.604 Q1259.03 719.905 1257.63 719.905 L1233.71 719.905 Q1234.93 722.318 1234.93 725.97 Z" fill="#000000" fill-rule="nonzero" fill-opacity="1" /><polyline clip-path="url(#clip323)" style="stroke:#009af9; stroke-linecap:round; stroke-linejoin:round; stroke-width:4; stroke-opacity:1; fill:none" points="1470.49,735.212 1485.01,735.212 1485.01,1258.72 1499.53,1258.72 1499.53,698.929 1514.05,698.929 1514.05,561.761 1528.57,561.761 1528.57,543.583 1543.08,543.583 1543.08,587.632 1557.6,587.632 1557.6,543.15 1572.12,543.15 1572.12,490.389 1586.64,490.389 1586.64,467.556 1601.16,467.556 1601.16,477.251 1615.67,477.251 1615.67,490.697 1630.19,490.697 1630.19,498.803 1644.71,498.803 1644.71,507.158 1659.23,507.158 1659.23,521.233 1673.75,521.233 1673.75,538.232 1688.26,538.232 1688.26,553.901 1702.78,553.901 1702.78,567.473 1717.3,567.473 1717.3,580.275 1731.82,580.275 1731.82,592.581 1746.34,592.581 1746.34,603.567 1760.85,603.567 1760.85,612.752 1775.37,612.752 1775.37,620.402 1789.89,620.402 1789.89,626.876 1804.41,626.876 1804.41,632.249 1818.93,632.249 1818.93,636.52 1833.45,636.52 1833.45,639.825 1847.96,639.825 1847.96,642.374 1862.48,642.374 1862.48,644.323 1877,644.323 1877,645.762 1891.52,645.762 1891.52,646.781 1906.04,646.781 1906.04,647.479 1920.55,647.479 1920.55,647.94 1935.07,647.94 1935.07,648.225 1949.59,648.225 1949.59,648.376 1964.11,648.376 1964.11,648.432 1978.63,648.432 1978.63,648.426 1993.14,648.426 1993.14,648.381 2007.66,648.381 2007.66,648.313 2022.18,648.313 2022.18,648.233 2036.7,648.233 2036.7,648.149 2051.22,648.149 2051.22,648.068 2065.73,648.068 2065.73,647.994 2080.25,647.994 2080.25,647.927 2094.77,647.927 2094.77,647.868 2109.29,647.868 2109.29,647.819 2123.81,647.819 2123.81,647.777 2138.32,647.777 2138.32,647.743 2152.84,647.743 2152.84,647.716 2167.36,647.716 2167.36,647.695 2181.88,647.695 2181.88,647.678 2196.4,647.678 2196.4,647.665 2210.91,647.665 2210.91,647.656 2225.43,647.656 2225.43,647.649 2239.95,647.649 2239.95,647.645 2254.47,647.645 2254.47,647.641 2268.99,647.641 2268.99,647.639 2283.5,647.639 2283.5,647.638 2298.02,647.638 2298.02,647.638 2312.54,647.638 2312.54,647.638 2327.06,647.638 2327.06,647.638 "/>
<polyline clip-path="url(#clip323)" style="stroke:#c271d2; stroke-linecap:round; stroke-linejoin:round; stroke-width:6; stroke-opacity:1; fill:none" stroke-dasharray="3, 6" points="1470.49,1384.24 1485.01,1384.24 1499.53,1384.24 1514.05,1384.24 1528.57,1384.24 1543.08,1384.24 1557.6,1384.24 1572.12,1384.24 1586.64,1384.24 1601.16,1384.24 1615.67,1384.24 1630.19,1384.24 1644.71,1384.24 1659.23,1384.24 1673.75,1384.24 1688.26,1384.24 1702.78,1384.24 1717.3,1384.24 1731.82,1384.24 1746.34,1384.24 1760.85,1384.24 1775.37,1384.24 1789.89,1384.24 1804.41,1384.24 1818.93,1384.24 1833.45,1384.24 1847.96,1384.24 1862.48,1384.24 1877,1384.24 1891.52,1384.24 1906.04,1384.24 1920.55,1384.24 1935.07,1384.24 1949.59,1384.24 1964.11,1384.24 1978.63,1384.24 1993.14,1384.24 2007.66,1384.24 2022.18,1384.24 2036.7,1384.24 2051.22,1384.24 2065.73,1384.24 2080.25,1384.24 2094.77,1384.24 2109.29,1384.24 2123.81,1384.24 2138.32,1384.24 2152.84,1384.24 2167.36,1384.24 2181.88,1384.24 2196.4,1384.24 2210.91,1384.24 2225.43,1384.24 2239.95,1384.24 2254.47,1384.24 2268.99,1384.24 2283.5,1384.24 2298.02,1384.24 2312.54,1384.24 2327.06,1384.24 "/>
<polyline clip-path="url(#clip323)" style="stroke:#ac8d18; stroke-linecap:round; stroke-linejoin:round; stroke-width:6; stroke-opacity:1; fill:none" stroke-dasharray="3, 6" points="1470.49,86.1857 1485.01,86.1857 1499.53,86.1857 1514.05,86.1857 1528.57,86.1857 1543.08,86.1857 1557.6,86.1857 1572.12,86.1857 1586.64,86.1857 1601.16,86.1857 1615.67,86.1857 1630.19,86.1857 1644.71,86.1857 1659.23,86.1857 1673.75,86.1857 1688.26,86.1857 1702.78,86.1857 1717.3,86.1857 1731.82,86.1857 1746.34,86.1857 1760.85,86.1857 1775.37,86.1857 1789.89,86.1857 1804.41,86.1857 1818.93,86.1857 1833.45,86.1857 1847.96,86.1857 1862.48,86.1857 1877,86.1857 1891.52,86.1857 1906.04,86.1857 1920.55,86.1857 1935.07,86.1857 1949.59,86.1857 1964.11,86.1857 1978.63,86.1857 1993.14,86.1857 2007.66,86.1857 2022.18,86.1857 2036.7,86.1857 2051.22,86.1857 2065.73,86.1857 2080.25,86.1857 2094.77,86.1857 2109.29,86.1857 2123.81,86.1857 2138.32,86.1857 2152.84,86.1857 2167.36,86.1857 2181.88,86.1857 2196.4,86.1857 2210.91,86.1857 2225.43,86.1857 2239.95,86.1857 2254.47,86.1857 2268.99,86.1857 2283.5,86.1857 2298.02,86.1857 2312.54,86.1857 2327.06,86.1857 "/>
<path clip-path="url(#clip320)" d="M2124.19 300.469 L2322.49 300.469 L2322.49 93.1086 L2124.19 93.1086  Z" fill="#ffffff" fill-rule="evenodd" fill-opacity="1"/>
<polyline clip-path="url(#clip320)" style="stroke:#000000; stroke-linecap:round; stroke-linejoin:round; stroke-width:4; stroke-opacity:1; fill:none" points="2124.19,300.469 2322.49,300.469 2322.49,93.1086 2124.19,93.1086 2124.19,300.469 "/>
<polyline clip-path="url(#clip320)" style="stroke:#009af9; stroke-linecap:round; stroke-linejoin:round; stroke-width:4; stroke-opacity:1; fill:none" points="2134.28,144.949 2194.81,144.949 "/>
<path clip-path="url(#clip320)" d="M2232.25 155.503 L2223.75 155.784 L2223.75 152.06 Q2221.57 155.784 2216.84 155.784 Q2214.9 155.784 2213.45 155.527 Q2212.02 155.269 2210.75 154.637 Q2209.51 153.981 2208.85 152.716 Q2208.2 151.451 2208.2 149.601 L2208.2 138.428 Q2208.2 137.07 2207.71 136.812 Q2207.21 136.555 2204.9 136.555 L2204.9 134.306 L2213.68 133.908 L2213.68 150.28 Q2213.68 151.428 2213.75 152.013 Q2213.84 152.576 2214.19 153.138 Q2214.57 153.676 2215.37 153.887 Q2216.16 154.075 2217.52 154.075 Q2220.17 154.075 2221.81 152.294 Q2223.47 150.514 2223.47 147.587 L2223.47 138.428 Q2223.47 137.07 2222.95 136.812 Q2222.46 136.555 2220.14 136.555 L2220.14 134.306 L2228.93 133.908 L2228.93 151.381 Q2228.93 152.739 2229.42 152.997 Q2229.93 153.255 2232.25 153.255 L2232.25 155.503 Z" fill="#000000" fill-rule="nonzero" fill-opacity="1" /><polyline clip-path="url(#clip320)" style="stroke:#c271d2; stroke-linecap:round; stroke-linejoin:round; stroke-width:6; stroke-opacity:1; fill:none" stroke-dasharray="3, 6" points="2134.28,196.789 2194.81,196.789 "/>
<path clip-path="url(#clip320)" d="M2232.25 200.508 L2223.75 200.79 L2223.75 197.065 Q2221.57 200.79 2216.84 200.79 Q2214.9 200.79 2213.45 200.532 Q2212.02 200.274 2210.75 199.642 Q2209.51 198.986 2208.85 197.721 Q2208.2 196.456 2208.2 194.606 L2208.2 183.434 Q2208.2 182.075 2207.71 181.817 Q2207.21 181.56 2204.9 181.56 L2204.9 179.311 L2213.68 178.913 L2213.68 195.285 Q2213.68 196.433 2213.75 197.019 Q2213.84 197.581 2214.19 198.143 Q2214.57 198.682 2215.37 198.892 Q2216.16 199.08 2217.52 199.08 Q2220.17 199.08 2221.81 197.3 Q2223.47 195.519 2223.47 192.592 L2223.47 183.434 Q2223.47 182.075 2222.95 181.817 Q2222.46 181.56 2220.14 181.56 L2220.14 179.311 L2228.93 178.913 L2228.93 196.386 Q2228.93 197.745 2229.42 198.002 Q2229.93 198.26 2232.25 198.26 L2232.25 200.508 Z" fill="#000000" fill-rule="nonzero" fill-opacity="1" /><path clip-path="url(#clip320)" d="M2266.98 214.459 L2262.75 214.361 L2258.52 214.459 L2258.52 212.885 L2260.84 212.885 L2260.84 203.819 Q2260.84 201.982 2260.36 201.277 Q2259.88 200.556 2258.95 200.556 Q2258.13 200.556 2257.28 200.884 Q2256.44 201.212 2255.67 201.835 Q2254.92 202.458 2254.42 203.507 Q2253.95 204.556 2253.95 205.868 L2253.95 212.885 L2256.28 212.885 L2256.28 214.459 L2252.05 214.361 L2247.8 214.459 L2247.8 212.885 L2250.13 212.885 L2250.13 203.819 Q2250.13 201.982 2249.65 201.277 Q2249.18 200.556 2248.24 200.556 Q2247.42 200.556 2246.57 200.884 Q2245.73 201.212 2244.96 201.835 Q2244.21 202.458 2243.72 203.507 Q2243.24 204.556 2243.24 205.868 L2243.24 212.885 L2245.55 212.885 L2245.55 214.459 L2241.32 214.361 L2237.09 214.459 L2237.09 212.885 L2239.41 212.885 L2239.41 202.507 Q2239.41 201.556 2239.06 201.376 Q2238.72 201.195 2237.09 201.195 L2237.09 199.621 L2242.87 199.343 L2242.87 202.982 Q2243.73 201.294 2245.21 200.326 Q2246.7 199.343 2248.78 199.343 Q2253.11 199.343 2253.82 202.573 Q2254.59 201.212 2256 200.277 Q2257.41 199.343 2259.49 199.343 Q2262.13 199.343 2263.39 200.49 Q2264.67 201.622 2264.67 204.179 L2264.67 212.885 L2266.98 212.885 L2266.98 214.459 Z" fill="#000000" fill-rule="nonzero" fill-opacity="1" /><path clip-path="url(#clip320)" d="M2276.83 214.459 L2272.9 214.361 L2268.8 214.459 L2268.8 212.885 L2271.13 212.885 L2271.13 202.507 Q2271.13 201.556 2270.78 201.376 Q2270.44 201.195 2268.9 201.195 L2268.9 199.621 L2274.75 199.343 L2274.75 212.885 L2276.83 212.885 L2276.83 214.459 M2274.44 192.227 Q2275.21 192.997 2275.21 194.08 Q2275.21 195.162 2274.44 195.932 Q2273.68 196.703 2272.6 196.703 Q2271.52 196.703 2270.75 195.932 Q2269.98 195.162 2269.98 194.08 Q2269.98 192.997 2270.75 192.227 Q2271.52 191.456 2272.6 191.456 Q2273.68 191.456 2274.44 192.227 Z" fill="#000000" fill-rule="nonzero" fill-opacity="1" /><path clip-path="url(#clip320)" d="M2298.82 214.459 L2294.57 214.361 L2290.34 214.459 L2290.34 212.885 L2292.67 212.885 L2292.67 203.819 Q2292.67 201.999 2292.19 201.277 Q2291.73 200.556 2290.82 200.556 Q2289.98 200.556 2289.13 200.884 Q2288.29 201.212 2287.52 201.835 Q2286.77 202.458 2286.29 203.507 Q2285.82 204.556 2285.82 205.868 L2285.82 212.885 L2288.13 212.885 L2288.13 214.459 L2283.9 214.361 L2279.67 214.459 L2279.67 212.885 L2281.98 212.885 L2281.98 202.507 Q2281.98 201.556 2281.64 201.376 Q2281.29 201.195 2279.67 201.195 L2279.67 199.621 L2285.44 199.343 L2285.44 202.982 Q2285.8 202.277 2286.29 201.687 Q2286.78 201.081 2287.49 200.539 Q2288.19 199.982 2289.18 199.67 Q2290.18 199.343 2291.33 199.343 Q2293.93 199.343 2295.21 200.474 Q2296.49 201.605 2296.49 204.179 L2296.49 212.885 L2298.82 212.885 L2298.82 214.459 Z" fill="#000000" fill-rule="nonzero" fill-opacity="1" /><polyline clip-path="url(#clip320)" style="stroke:#ac8d18; stroke-linecap:round; stroke-linejoin:round; stroke-width:6; stroke-opacity:1; fill:none" stroke-dasharray="3, 6" points="2134.28,248.629 2194.81,248.629 "/>
<path clip-path="url(#clip320)" d="M2232.25 254.563 L2223.75 254.844 L2223.75 251.12 Q2221.57 254.844 2216.84 254.844 Q2214.9 254.844 2213.45 254.587 Q2212.02 254.329 2210.75 253.697 Q2209.51 253.041 2208.85 251.776 Q2208.2 250.511 2208.2 248.661 L2208.2 237.488 Q2208.2 236.13 2207.71 235.872 Q2207.21 235.615 2204.9 235.615 L2204.9 233.366 L2213.68 232.968 L2213.68 249.34 Q2213.68 250.488 2213.75 251.073 Q2213.84 251.636 2214.19 252.198 Q2214.57 252.736 2215.37 252.947 Q2216.16 253.135 2217.52 253.135 Q2220.17 253.135 2221.81 251.354 Q2223.47 249.574 2223.47 246.647 L2223.47 237.488 Q2223.47 236.13 2222.95 235.872 Q2222.46 235.615 2220.14 235.615 L2220.14 233.366 L2228.93 232.968 L2228.93 250.441 Q2228.93 251.799 2229.42 252.057 Q2229.93 252.315 2232.25 252.315 L2232.25 254.563 Z" fill="#000000" fill-rule="nonzero" fill-opacity="1" /><path clip-path="url(#clip320)" d="M2266.98 263.888 L2262.75 263.789 L2258.52 263.888 L2258.52 262.314 L2260.84 262.314 L2260.84 253.247 Q2260.84 251.411 2260.36 250.706 Q2259.88 249.984 2258.95 249.984 Q2258.13 249.984 2257.28 250.312 Q2256.44 250.64 2255.67 251.263 Q2254.92 251.886 2254.42 252.935 Q2253.95 253.985 2253.95 255.296 L2253.95 262.314 L2256.28 262.314 L2256.28 263.888 L2252.05 263.789 L2247.8 263.888 L2247.8 262.314 L2250.13 262.314 L2250.13 253.247 Q2250.13 251.411 2249.65 250.706 Q2249.18 249.984 2248.24 249.984 Q2247.42 249.984 2246.57 250.312 Q2245.73 250.64 2244.96 251.263 Q2244.21 251.886 2243.72 252.935 Q2243.24 253.985 2243.24 255.296 L2243.24 262.314 L2245.55 262.314 L2245.55 263.888 L2241.32 263.789 L2237.09 263.888 L2237.09 262.314 L2239.41 262.314 L2239.41 251.935 Q2239.41 250.984 2239.06 250.804 Q2238.72 250.624 2237.09 250.624 L2237.09 249.05 L2242.87 248.771 L2242.87 252.411 Q2243.73 250.722 2245.21 249.755 Q2246.7 248.771 2248.78 248.771 Q2253.11 248.771 2253.82 252.001 Q2254.59 250.64 2256 249.705 Q2257.41 248.771 2259.49 248.771 Q2262.13 248.771 2263.39 249.919 Q2264.67 251.05 2264.67 253.608 L2264.67 262.314 L2266.98 262.314 L2266.98 263.888 Z" fill="#000000" fill-rule="nonzero" fill-opacity="1" /><path clip-path="url(#clip320)" d="M2287.01 263.084 Q2287.01 263.379 2286.94 263.56 Q2286.88 263.724 2286.7 263.789 Q2286.53 263.855 2286.39 263.871 Q2286.24 263.888 2285.93 263.888 L2284.32 263.888 Q2283.32 263.888 2282.62 263.707 Q2281.93 263.511 2281.58 263.281 Q2281.24 263.052 2281.06 262.642 Q2280.88 262.232 2280.84 261.986 Q2280.83 261.723 2280.83 261.297 Q2280.21 262.494 2278.94 263.297 Q2277.7 264.084 2275.83 264.084 Q2275.04 264.084 2274.25 264.002 Q2273.47 263.92 2272.55 263.675 Q2271.63 263.412 2270.94 263.019 Q2270.25 262.609 2269.79 261.904 Q2269.33 261.182 2269.33 260.264 Q2269.33 255.444 2280.25 254.985 L2280.25 253.854 Q2280.25 249.886 2276.57 249.886 Q2275.22 249.886 2274.14 250.115 Q2274.24 250.181 2274.38 250.345 Q2274.53 250.509 2274.7 250.919 Q2274.88 251.329 2274.88 251.771 Q2274.88 252.771 2274.24 253.329 Q2273.61 253.886 2272.76 253.886 Q2271.97 253.886 2271.32 253.345 Q2270.68 252.788 2270.68 251.771 Q2270.68 248.672 2276.7 248.672 Q2280.32 248.672 2282.19 250.099 Q2284.07 251.509 2284.07 253.854 L2284.07 261.068 Q2284.07 261.428 2284.11 261.592 Q2284.14 261.756 2284.32 261.953 Q2284.5 262.15 2284.93 262.232 Q2285.37 262.297 2286.12 262.314 Q2286.42 262.314 2286.57 262.346 Q2286.71 262.363 2286.86 262.543 Q2287.01 262.724 2287.01 263.084 M2280.25 259.215 L2280.25 256.034 Q2279.68 256.067 2279.14 256.133 Q2278.6 256.198 2277.71 256.362 Q2276.83 256.51 2276.11 256.821 Q2275.4 257.116 2274.71 257.559 Q2274.04 257.985 2273.65 258.674 Q2273.27 259.362 2273.27 260.231 Q2273.27 261.346 2274.16 262.117 Q2275.04 262.888 2276.32 262.888 Q2276.65 262.888 2277.06 262.822 Q2277.47 262.756 2278.06 262.527 Q2278.65 262.281 2279.11 261.904 Q2279.58 261.527 2279.91 260.838 Q2280.25 260.133 2280.25 259.215 Z" fill="#000000" fill-rule="nonzero" fill-opacity="1" /><path clip-path="url(#clip320)" d="M2306.01 263.888 L2302.32 263.789 L2298.28 263.888 L2298.28 262.314 L2299.6 262.314 L2295.91 257.952 L2292.64 261.609 L2292.41 261.937 Q2292.41 262.084 2292.79 262.199 Q2293.18 262.314 2293.64 262.314 L2293.64 263.888 L2290.18 263.789 L2287.1 263.888 L2287.1 262.314 Q2288.13 262.314 2288.61 262.297 Q2289.1 262.265 2289.66 262.117 Q2290.22 261.969 2290.5 261.674 L2294.89 256.739 L2289.66 250.558 L2287.27 250.558 L2287.27 248.984 L2290.97 249.082 L2295.02 248.984 L2295.02 250.558 L2293.68 250.558 L2296.97 254.411 L2299.79 251.263 Q2299.81 251.247 2300.07 250.853 Q2299.55 250.558 2298.79 250.558 L2298.79 248.984 L2302.25 249.082 L2305.33 248.984 L2305.33 250.558 Q2303.99 250.558 2303.28 250.656 Q2302.6 250.738 2302.38 250.853 Q2302.19 250.968 2301.91 251.263 L2297.99 255.624 L2303.63 262.314 L2306.01 262.314 L2306.01 263.888 Z" fill="#000000" fill-rule="nonzero" fill-opacity="1" /></svg>
