<?xml version="1.0" encoding="utf-8"?>
<svg xmlns="http://www.w3.org/2000/svg" xmlns:xlink="http://www.w3.org/1999/xlink" width="600" height="400" viewBox="0 0 2400 1600">
<defs>
  <clipPath id="clip660">
    <rect x="0" y="0" width="2400" height="1600"/>
  </clipPath>
</defs>
<path clip-path="url(#clip660)" d="M0 1600 L2400 1600 L2400 0 L0 0  Z" fill="#ffffff" fill-rule="evenodd" fill-opacity="1"/>
<defs>
  <clipPath id="clip661">
    <rect x="480" y="0" width="1681" height="1600"/>
  </clipPath>
</defs>
<path clip-path="url(#clip660)" d="M203.964 1423.18 L1110.81 1423.18 L1110.81 47.2441 L203.964 47.2441  Z" fill="#ffffff" fill-rule="evenodd" fill-opacity="1"/>
<defs>
  <clipPath id="clip662">
    <rect x="203" y="47" width="908" height="1377"/>
  </clipPath>
</defs>
<polyline clip-path="url(#clip662)" style="stroke:#000000; stroke-linecap:round; stroke-linejoin:round; stroke-width:2; stroke-opacity:0.1; fill:none" points="229.629,1423.18 229.629,47.2441 "/>
<polyline clip-path="url(#clip662)" style="stroke:#000000; stroke-linecap:round; stroke-linejoin:round; stroke-width:2; stroke-opacity:0.1; fill:none" points="481.252,1423.18 481.252,47.2441 "/>
<polyline clip-path="url(#clip662)" style="stroke:#000000; stroke-linecap:round; stroke-linejoin:round; stroke-width:2; stroke-opacity:0.1; fill:none" points="732.874,1423.18 732.874,47.2441 "/>
<polyline clip-path="url(#clip662)" style="stroke:#000000; stroke-linecap:round; stroke-linejoin:round; stroke-width:2; stroke-opacity:0.1; fill:none" points="984.497,1423.18 984.497,47.2441 "/>
<polyline clip-path="url(#clip662)" style="stroke:#000000; stroke-linecap:round; stroke-linejoin:round; stroke-width:2; stroke-opacity:0.1; fill:none" points="203.964,1388.33 1110.81,1388.33 "/>
<polyline clip-path="url(#clip662)" style="stroke:#000000; stroke-linecap:round; stroke-linejoin:round; stroke-width:2; stroke-opacity:0.1; fill:none" points="203.964,944.642 1110.81,944.642 "/>
<polyline clip-path="url(#clip662)" style="stroke:#000000; stroke-linecap:round; stroke-linejoin:round; stroke-width:2; stroke-opacity:0.1; fill:none" points="203.964,500.949 1110.81,500.949 "/>
<polyline clip-path="url(#clip662)" style="stroke:#000000; stroke-linecap:round; stroke-linejoin:round; stroke-width:2; stroke-opacity:0.1; fill:none" points="203.964,57.2556 1110.81,57.2556 "/>
<polyline clip-path="url(#clip660)" style="stroke:#000000; stroke-linecap:round; stroke-linejoin:round; stroke-width:4; stroke-opacity:1; fill:none" points="203.964,1423.18 1110.81,1423.18 "/>
<polyline clip-path="url(#clip660)" style="stroke:#000000; stroke-linecap:round; stroke-linejoin:round; stroke-width:4; stroke-opacity:1; fill:none" points="229.629,1423.18 229.629,1404.28 "/>
<polyline clip-path="url(#clip660)" style="stroke:#000000; stroke-linecap:round; stroke-linejoin:round; stroke-width:4; stroke-opacity:1; fill:none" points="481.252,1423.18 481.252,1404.28 "/>
<polyline clip-path="url(#clip660)" style="stroke:#000000; stroke-linecap:round; stroke-linejoin:round; stroke-width:4; stroke-opacity:1; fill:none" points="732.874,1423.18 732.874,1404.28 "/>
<polyline clip-path="url(#clip660)" style="stroke:#000000; stroke-linecap:round; stroke-linejoin:round; stroke-width:4; stroke-opacity:1; fill:none" points="984.497,1423.18 984.497,1404.28 "/>
<path clip-path="url(#clip660)" d="M229.629 1454.1 Q226.018 1454.1 224.189 1457.66 Q222.384 1461.2 222.384 1468.33 Q222.384 1475.44 224.189 1479.01 Q226.018 1482.55 229.629 1482.55 Q233.263 1482.55 235.069 1479.01 Q236.898 1475.44 236.898 1468.33 Q236.898 1461.2 235.069 1457.66 Q233.263 1454.1 229.629 1454.1 M229.629 1450.39 Q235.439 1450.39 238.495 1455 Q241.573 1459.58 241.573 1468.33 Q241.573 1477.06 238.495 1481.67 Q235.439 1486.25 229.629 1486.25 Q223.819 1486.25 220.74 1481.67 Q217.685 1477.06 217.685 1468.33 Q217.685 1459.58 220.74 1455 Q223.819 1450.39 229.629 1450.39 Z" fill="#000000" fill-rule="nonzero" fill-opacity="1" /><path clip-path="url(#clip660)" d="M471.634 1481.64 L479.273 1481.64 L479.273 1455.28 L470.962 1456.95 L470.962 1452.69 L479.226 1451.02 L483.902 1451.02 L483.902 1481.64 L491.541 1481.64 L491.541 1485.58 L471.634 1485.58 L471.634 1481.64 Z" fill="#000000" fill-rule="nonzero" fill-opacity="1" /><path clip-path="url(#clip660)" d="M727.527 1481.64 L743.847 1481.64 L743.847 1485.58 L721.902 1485.58 L721.902 1481.64 Q724.564 1478.89 729.148 1474.26 Q733.754 1469.61 734.935 1468.27 Q737.18 1465.74 738.06 1464.01 Q738.962 1462.25 738.962 1460.56 Q738.962 1457.8 737.018 1456.07 Q735.097 1454.33 731.995 1454.33 Q729.796 1454.33 727.342 1455.09 Q724.912 1455.86 722.134 1457.41 L722.134 1452.69 Q724.958 1451.55 727.411 1450.97 Q729.865 1450.39 731.902 1450.39 Q737.273 1450.39 740.467 1453.08 Q743.661 1455.77 743.661 1460.26 Q743.661 1462.39 742.851 1464.31 Q742.064 1466.2 739.958 1468.8 Q739.379 1469.47 736.277 1472.69 Q733.175 1475.88 727.527 1481.64 Z" fill="#000000" fill-rule="nonzero" fill-opacity="1" /><path clip-path="url(#clip660)" d="M988.745 1466.95 Q992.101 1467.66 993.976 1469.93 Q995.874 1472.2 995.874 1475.53 Q995.874 1480.65 992.356 1483.45 Q988.837 1486.25 982.356 1486.25 Q980.18 1486.25 977.865 1485.81 Q975.574 1485.39 973.12 1484.54 L973.12 1480.02 Q975.064 1481.16 977.379 1481.74 Q979.694 1482.32 982.217 1482.32 Q986.615 1482.32 988.907 1480.58 Q991.222 1478.84 991.222 1475.53 Q991.222 1472.48 989.069 1470.77 Q986.939 1469.03 983.12 1469.03 L979.092 1469.03 L979.092 1465.19 L983.305 1465.19 Q986.754 1465.19 988.583 1463.82 Q990.411 1462.43 990.411 1459.84 Q990.411 1457.18 988.513 1455.77 Q986.638 1454.33 983.12 1454.33 Q981.199 1454.33 978.999 1454.75 Q976.8 1455.16 974.162 1456.04 L974.162 1451.88 Q976.824 1451.14 979.138 1450.77 Q981.476 1450.39 983.536 1450.39 Q988.861 1450.39 991.962 1452.83 Q995.064 1455.23 995.064 1459.35 Q995.064 1462.22 993.421 1464.21 Q991.777 1466.18 988.745 1466.95 Z" fill="#000000" fill-rule="nonzero" fill-opacity="1" /><path clip-path="url(#clip660)" d="M527.559 1520.52 L567.758 1520.52 L567.758 1525.93 L550.889 1525.93 L550.889 1568.04 L544.428 1568.04 L544.428 1525.93 L527.559 1525.93 L527.559 1520.52 Z" fill="#000000" fill-rule="nonzero" fill-opacity="1" /><path clip-path="url(#clip660)" d="M571.705 1532.4 L577.562 1532.4 L577.562 1568.04 L571.705 1568.04 L571.705 1532.4 M571.705 1518.52 L577.562 1518.52 L577.562 1525.93 L571.705 1525.93 L571.705 1518.52 Z" fill="#000000" fill-rule="nonzero" fill-opacity="1" /><path clip-path="url(#clip660)" d="M617.57 1539.24 Q619.766 1535.29 622.822 1533.41 Q625.877 1531.54 630.015 1531.54 Q635.585 1531.54 638.609 1535.45 Q641.633 1539.33 641.633 1546.53 L641.633 1568.04 L635.744 1568.04 L635.744 1546.72 Q635.744 1541.59 633.93 1539.11 Q632.116 1536.63 628.392 1536.63 Q623.84 1536.63 621.199 1539.65 Q618.557 1542.68 618.557 1547.9 L618.557 1568.04 L612.669 1568.04 L612.669 1546.72 Q612.669 1541.56 610.854 1539.11 Q609.04 1536.63 605.252 1536.63 Q600.765 1536.63 598.123 1539.68 Q595.481 1542.71 595.481 1547.9 L595.481 1568.04 L589.593 1568.04 L589.593 1532.4 L595.481 1532.4 L595.481 1537.93 Q597.486 1534.66 600.287 1533.1 Q603.088 1531.54 606.939 1531.54 Q610.822 1531.54 613.528 1533.51 Q616.265 1535.48 617.57 1539.24 Z" fill="#000000" fill-rule="nonzero" fill-opacity="1" /><path clip-path="url(#clip660)" d="M683.805 1548.76 L683.805 1551.62 L656.878 1551.62 Q657.26 1557.67 660.507 1560.85 Q663.785 1564 669.61 1564 Q672.984 1564 676.135 1563.17 Q679.317 1562.35 682.437 1560.69 L682.437 1566.23 Q679.286 1567.57 675.975 1568.27 Q672.665 1568.97 669.26 1568.97 Q660.73 1568.97 655.733 1564 Q650.767 1559.04 650.767 1550.57 Q650.767 1541.82 655.478 1536.69 Q660.22 1531.54 668.241 1531.54 Q675.434 1531.54 679.604 1536.18 Q683.805 1540.8 683.805 1548.76 M677.949 1547.04 Q677.885 1542.23 675.243 1539.37 Q672.633 1536.5 668.305 1536.5 Q663.403 1536.5 660.443 1539.27 Q657.515 1542.04 657.069 1547.07 L677.949 1547.04 Z" fill="#000000" fill-rule="nonzero" fill-opacity="1" /><path clip-path="url(#clip660)" d="M728.206 1518.58 Q723.941 1525.9 721.872 1533.06 Q719.803 1540.23 719.803 1547.58 Q719.803 1554.93 721.872 1562.16 Q723.973 1569.35 728.206 1576.64 L723.114 1576.64 Q718.339 1569.16 715.952 1561.93 Q713.597 1554.71 713.597 1547.58 Q713.597 1540.48 715.952 1533.29 Q718.307 1526.09 723.114 1518.58 L728.206 1518.58 Z" fill="#000000" fill-rule="nonzero" fill-opacity="1" /><path clip-path="url(#clip660)" d="M762.294 1533.45 L762.294 1538.98 Q759.812 1537.71 757.138 1537.07 Q754.465 1536.44 751.6 1536.44 Q747.24 1536.44 745.043 1537.77 Q742.879 1539.11 742.879 1541.79 Q742.879 1543.82 744.439 1545 Q745.998 1546.15 750.709 1547.2 L752.714 1547.64 Q758.952 1548.98 761.562 1551.43 Q764.204 1553.85 764.204 1558.21 Q764.204 1563.17 760.257 1566.07 Q756.343 1568.97 749.468 1568.97 Q746.603 1568.97 743.484 1568.39 Q740.396 1567.85 736.959 1566.74 L736.959 1560.69 Q740.205 1562.38 743.356 1563.24 Q746.508 1564.07 749.595 1564.07 Q753.733 1564.07 755.961 1562.66 Q758.189 1561.23 758.189 1558.65 Q758.189 1556.27 756.565 1554.99 Q754.974 1553.72 749.531 1552.54 L747.494 1552.07 Q742.052 1550.92 739.633 1548.56 Q737.214 1546.18 737.214 1542.04 Q737.214 1537.01 740.778 1534.27 Q744.343 1531.54 750.9 1531.54 Q754.146 1531.54 757.011 1532.01 Q759.876 1532.49 762.294 1533.45 Z" fill="#000000" fill-rule="nonzero" fill-opacity="1" /><path clip-path="url(#clip660)" d="M772.607 1518.58 L777.699 1518.58 Q782.474 1526.09 784.829 1533.29 Q787.216 1540.48 787.216 1547.58 Q787.216 1554.71 784.829 1561.93 Q782.474 1569.16 777.699 1576.64 L772.607 1576.64 Q776.84 1569.35 778.909 1562.16 Q781.01 1554.93 781.01 1547.58 Q781.01 1540.23 778.909 1533.06 Q776.84 1525.9 772.607 1518.58 Z" fill="#000000" fill-rule="nonzero" fill-opacity="1" /><polyline clip-path="url(#clip660)" style="stroke:#000000; stroke-linecap:round; stroke-linejoin:round; stroke-width:4; stroke-opacity:1; fill:none" points="203.964,1423.18 203.964,47.2441 "/>
<polyline clip-path="url(#clip660)" style="stroke:#000000; stroke-linecap:round; stroke-linejoin:round; stroke-width:4; stroke-opacity:1; fill:none" points="203.964,1388.33 222.861,1388.33 "/>
<polyline clip-path="url(#clip660)" style="stroke:#000000; stroke-linecap:round; stroke-linejoin:round; stroke-width:4; stroke-opacity:1; fill:none" points="203.964,944.642 222.861,944.642 "/>
<polyline clip-path="url(#clip660)" style="stroke:#000000; stroke-linecap:round; stroke-linejoin:round; stroke-width:4; stroke-opacity:1; fill:none" points="203.964,500.949 222.861,500.949 "/>
<polyline clip-path="url(#clip660)" style="stroke:#000000; stroke-linecap:round; stroke-linejoin:round; stroke-width:4; stroke-opacity:1; fill:none" points="203.964,57.2556 222.861,57.2556 "/>
<path clip-path="url(#clip660)" d="M156.019 1374.13 Q152.408 1374.13 150.579 1377.7 Q148.774 1381.24 148.774 1388.37 Q148.774 1395.48 150.579 1399.04 Q152.408 1402.58 156.019 1402.58 Q159.653 1402.58 161.459 1399.04 Q163.288 1395.48 163.288 1388.37 Q163.288 1381.24 161.459 1377.7 Q159.653 1374.13 156.019 1374.13 M156.019 1370.43 Q161.829 1370.43 164.885 1375.04 Q167.964 1379.62 167.964 1388.37 Q167.964 1397.1 164.885 1401.7 Q161.829 1406.29 156.019 1406.29 Q150.209 1406.29 147.13 1401.7 Q144.075 1397.1 144.075 1388.37 Q144.075 1379.62 147.13 1375.04 Q150.209 1370.43 156.019 1370.43 Z" fill="#000000" fill-rule="nonzero" fill-opacity="1" /><path clip-path="url(#clip660)" d="M116.668 957.987 L124.306 957.987 L124.306 931.621 L115.996 933.288 L115.996 929.029 L124.26 927.362 L128.936 927.362 L128.936 957.987 L136.575 957.987 L136.575 961.922 L116.668 961.922 L116.668 957.987 Z" fill="#000000" fill-rule="nonzero" fill-opacity="1" /><path clip-path="url(#clip660)" d="M156.019 930.441 Q152.408 930.441 150.579 934.005 Q148.774 937.547 148.774 944.677 Q148.774 951.783 150.579 955.348 Q152.408 958.889 156.019 958.889 Q159.653 958.889 161.459 955.348 Q163.288 951.783 163.288 944.677 Q163.288 937.547 161.459 934.005 Q159.653 930.441 156.019 930.441 M156.019 926.737 Q161.829 926.737 164.885 931.343 Q167.964 935.927 167.964 944.677 Q167.964 953.403 164.885 958.01 Q161.829 962.593 156.019 962.593 Q150.209 962.593 147.13 958.01 Q144.075 953.403 144.075 944.677 Q144.075 935.927 147.13 931.343 Q150.209 926.737 156.019 926.737 Z" fill="#000000" fill-rule="nonzero" fill-opacity="1" /><path clip-path="url(#clip660)" d="M119.885 514.294 L136.204 514.294 L136.204 518.229 L114.26 518.229 L114.26 514.294 Q116.922 511.539 121.505 506.909 Q126.112 502.257 127.292 500.914 Q129.538 498.391 130.417 496.655 Q131.32 494.896 131.32 493.206 Q131.32 490.451 129.376 488.715 Q127.455 486.979 124.353 486.979 Q122.154 486.979 119.7 487.743 Q117.269 488.507 114.492 490.058 L114.492 485.335 Q117.316 484.201 119.769 483.622 Q122.223 483.044 124.26 483.044 Q129.63 483.044 132.825 485.729 Q136.019 488.414 136.019 492.905 Q136.019 495.034 135.209 496.956 Q134.422 498.854 132.316 501.446 Q131.737 502.118 128.635 505.335 Q125.533 508.53 119.885 514.294 Z" fill="#000000" fill-rule="nonzero" fill-opacity="1" /><path clip-path="url(#clip660)" d="M156.019 486.747 Q152.408 486.747 150.579 490.312 Q148.774 493.854 148.774 500.983 Q148.774 508.09 150.579 511.655 Q152.408 515.196 156.019 515.196 Q159.653 515.196 161.459 511.655 Q163.288 508.09 163.288 500.983 Q163.288 493.854 161.459 490.312 Q159.653 486.747 156.019 486.747 M156.019 483.044 Q161.829 483.044 164.885 487.65 Q167.964 492.233 167.964 500.983 Q167.964 509.71 164.885 514.317 Q161.829 518.9 156.019 518.9 Q150.209 518.9 147.13 514.317 Q144.075 509.71 144.075 500.983 Q144.075 492.233 147.13 487.65 Q150.209 483.044 156.019 483.044 Z" fill="#000000" fill-rule="nonzero" fill-opacity="1" /><path clip-path="url(#clip660)" d="M130.024 55.9014 Q133.38 56.619 135.255 58.8875 Q137.154 61.156 137.154 64.4893 Q137.154 69.6051 133.635 72.406 Q130.117 75.2069 123.635 75.2069 Q121.459 75.2069 119.144 74.7671 Q116.853 74.3504 114.399 73.4939 L114.399 68.9801 Q116.343 70.1143 118.658 70.693 Q120.973 71.2717 123.496 71.2717 Q127.894 71.2717 130.186 69.5356 Q132.501 67.7995 132.501 64.4893 Q132.501 61.4338 130.348 59.7208 Q128.218 57.9847 124.399 57.9847 L120.371 57.9847 L120.371 54.1422 L124.584 54.1422 Q128.033 54.1422 129.862 52.7764 Q131.691 51.3876 131.691 48.795 Q131.691 46.133 129.792 44.7209 Q127.917 43.2857 124.399 43.2857 Q122.478 43.2857 120.279 43.7024 Q118.08 44.1191 115.441 44.9987 L115.441 40.8321 Q118.103 40.0913 120.418 39.721 Q122.755 39.3506 124.816 39.3506 Q130.14 39.3506 133.242 41.7811 Q136.343 44.1885 136.343 48.3089 Q136.343 51.1792 134.7 53.17 Q133.056 55.1375 130.024 55.9014 Z" fill="#000000" fill-rule="nonzero" fill-opacity="1" /><path clip-path="url(#clip660)" d="M156.019 43.0543 Q152.408 43.0543 150.579 46.6191 Q148.774 50.1607 148.774 57.2903 Q148.774 64.3967 150.579 67.9615 Q152.408 71.5032 156.019 71.5032 Q159.653 71.5032 161.459 67.9615 Q163.288 64.3967 163.288 57.2903 Q163.288 50.1607 161.459 46.6191 Q159.653 43.0543 156.019 43.0543 M156.019 39.3506 Q161.829 39.3506 164.885 43.957 Q167.964 48.5403 167.964 57.2903 Q167.964 66.0171 164.885 70.6236 Q161.829 75.2069 156.019 75.2069 Q150.209 75.2069 147.13 70.6236 Q144.075 66.0171 144.075 57.2903 Q144.075 48.5403 147.13 43.957 Q150.209 39.3506 156.019 39.3506 Z" fill="#000000" fill-rule="nonzero" fill-opacity="1" /><path clip-path="url(#clip660)" d="M39.4334 772.564 Q44.844 772.564 50.9309 774.303 Q56.9856 776.01 61.8809 778.715 Q66.744 781.42 69.9646 784.963 Q73.153 788.505 73.153 791.887 Q73.153 794.045 71.9613 795.655 Q70.7375 797.233 68.7085 798.103 Q66.6474 798.972 64.393 799.391 Q62.1063 799.81 59.6265 799.81 Q55.9228 799.81 51.8971 799.005 Q47.8391 798.199 44.1677 796.847 Q40.464 795.494 37.1146 793.594 Q33.733 791.694 31.2853 789.6 Q28.8055 787.475 27.3562 785.092 Q25.907 782.708 25.907 780.486 Q25.907 778.876 26.6155 777.588 Q27.2918 776.267 28.4834 775.43 Q29.6428 774.593 31.0277 774.013 Q32.4125 773.401 34.0228 773.111 Q35.6009 772.821 36.9214 772.692 Q38.2096 772.564 39.4334 772.564 M35.3433 776.911 Q33.7008 776.911 32.477 777.04 Q31.2209 777.169 29.9649 777.523 Q28.7089 777.878 28.0325 778.65 Q27.3562 779.391 27.3562 780.551 Q27.3562 783.932 34.2805 787.733 Q36.4383 788.956 39.369 790.051 Q42.2997 791.146 43.6846 791.533 Q45.0694 791.919 48.4833 792.821 L48.4833 779.037 Q39.6911 776.911 35.3433 776.911 M50.5766 779.617 L50.5766 793.336 Q58.6281 795.462 63.6522 795.462 Q68.0322 795.462 69.868 794.56 Q71.6715 793.626 71.6715 791.887 Q71.6715 789.89 69.6747 788.022 Q67.6458 786.154 63.9743 784.254 Q59.2078 781.742 50.5766 779.617 Z" fill="#000000" fill-rule="nonzero" fill-opacity="1" /><path clip-path="url(#clip660)" d="M22.9507 728.256 Q30.2712 732.521 37.4327 734.59 Q44.5941 736.658 51.9465 736.658 Q59.2989 736.658 66.5239 734.59 Q73.7172 732.489 81.0059 728.256 L81.0059 733.348 Q73.5262 738.123 66.3011 740.51 Q59.0761 742.865 51.9465 742.865 Q44.8487 742.865 37.6555 740.51 Q30.4622 738.154 22.9507 733.348 L22.9507 728.256 Z" fill="#000000" fill-rule="nonzero" fill-opacity="1" /><path clip-path="url(#clip660)" d="M28.1387 706.74 Q28.1387 709.286 29.9211 711.036 Q31.6717 712.787 34.218 712.787 Q36.7324 712.787 38.483 711.036 Q40.2017 709.286 40.2017 706.74 Q40.2017 704.193 38.483 702.443 Q36.7324 700.692 34.218 700.692 Q31.7035 700.692 29.9211 702.475 Q28.1387 704.225 28.1387 706.74 M24.0328 706.74 Q24.0328 704.703 24.8286 702.825 Q25.5924 700.947 27.0566 699.578 Q28.4888 698.114 30.3031 697.382 Q32.1173 696.65 34.218 696.65 Q38.4193 696.65 41.3476 699.61 Q44.244 702.538 44.244 706.803 Q44.244 711.1 41.3794 713.965 Q38.5148 716.829 34.218 716.829 Q29.953 716.829 26.9929 713.901 Q24.0328 710.973 24.0328 706.74 Z" fill="#000000" fill-rule="nonzero" fill-opacity="1" /><path clip-path="url(#clip660)" d="M22.9507 685.224 L22.9507 680.131 Q30.4622 675.357 37.6555 673.001 Q44.8487 670.614 51.9465 670.614 Q59.0761 670.614 66.3011 673.001 Q73.5262 675.357 81.0059 680.131 L81.0059 685.224 Q73.7172 680.99 66.5239 678.921 Q59.2989 676.821 51.9465 676.821 Q44.5941 676.821 37.4327 678.921 Q30.2712 680.99 22.9507 685.224 Z" fill="#000000" fill-rule="nonzero" fill-opacity="1" /><polyline clip-path="url(#clip662)" style="stroke:#009af9; stroke-linecap:round; stroke-linejoin:round; stroke-width:4; stroke-opacity:1; fill:none" points="229.629,1384.11 254.791,1285.56 279.954,1038.97 305.116,758.423 330.278,484.744 355.44,290.7 380.603,187.035 405.765,86.1857 430.927,119.413 456.089,157.722 481.252,192.931 506.414,194.492 531.576,230.176 556.739,238.765 581.901,257.39 607.063,299.199 632.225,271.133 657.388,293.47 682.55,296.996 707.712,242.681 732.874,262.035 758.037,280.35 783.199,246.499 808.361,265.06 833.524,299.086 858.686,282.163 883.848,258.16 909.01,271.713 934.173,271.29 959.335,331.846 984.497,276.261 1009.66,260.504 1034.82,269.615 1059.98,319.157 1085.15,216.296 "/>
<polyline clip-path="url(#clip662)" style="stroke:#e26f46; stroke-linecap:round; stroke-linejoin:round; stroke-width:3; stroke-opacity:1; fill:none" stroke-dasharray="12, 6, 2, 6" points="229.629,1384.24 254.791,1282.18 279.954,1037.31 305.116,755.993 330.278,485.565 355.44,289.363 380.603,183.967 405.765,96.7855 430.927,115.447 456.089,159.123 481.252,199.12 506.414,207.089 531.576,233.687 556.739,244.412 581.901,259.175 607.063,294.485 632.225,278.81 657.388,290.442 682.55,295.956 707.712,252.986 732.874,257.634 758.037,275.579 783.199,253.265 808.361,262.025 833.524,292.373 858.686,285.99 883.848,263.49 909.01,268.64 934.173,270.638 959.335,320.01 984.497,287.273 1009.66,264.091 1034.82,266.549 1059.98,308.55 1085.15,236.491 "/>
<path clip-path="url(#clip660)" d="M961.069 1377.32 L1080.58 1377.32 L1080.58 1221.8 L961.069 1221.8  Z" fill="#ffffff" fill-rule="evenodd" fill-opacity="1"/>
<polyline clip-path="url(#clip660)" style="stroke:#000000; stroke-linecap:round; stroke-linejoin:round; stroke-width:4; stroke-opacity:1; fill:none" points="961.069,1377.32 1080.58,1377.32 1080.58,1221.8 961.069,1221.8 961.069,1377.32 "/>
<polyline clip-path="url(#clip660)" style="stroke:#009af9; stroke-linecap:round; stroke-linejoin:round; stroke-width:4; stroke-opacity:1; fill:none" points="971.145,1273.64 1031.6,1273.64 "/>
<path clip-path="url(#clip660)" d="M1068.45 1260.37 Q1066.97 1260.37 1066.22 1260.51 Q1065.48 1260.63 1065.29 1260.8 Q1065.1 1260.96 1064.89 1261.38 L1054.58 1283.3 Q1053.48 1285.65 1051.42 1287.33 Q1049.38 1289.02 1046.81 1289.02 Q1044.65 1289.02 1043.15 1287.71 Q1041.68 1286.42 1041.68 1284.59 Q1041.68 1283.28 1042.5 1282.53 Q1043.32 1281.81 1044.42 1281.81 Q1045.64 1281.81 1046.41 1282.58 Q1047.21 1283.35 1047.21 1284.55 Q1047.21 1285.32 1046.88 1285.9 Q1046.55 1286.51 1046.25 1286.72 Q1045.96 1286.96 1045.66 1287.1 Q1046.15 1287.29 1046.81 1287.29 Q1047.79 1287.29 1048.63 1286.89 Q1049.5 1286.51 1050.06 1286 Q1050.65 1285.51 1051.23 1284.62 Q1051.82 1283.75 1052.1 1283.19 Q1052.38 1282.65 1052.8 1281.71 L1053.9 1279.42 L1044.93 1260.37 L1041.87 1260.37 L1041.87 1258.13 L1047.35 1258.27 L1053.3 1258.13 L1053.3 1260.37 L1050.7 1260.37 L1056.79 1273.33 L1062.31 1261.52 L1062.55 1260.96 Q1062.55 1260.7 1061.99 1260.56 Q1061.42 1260.4 1060.86 1260.4 L1060.3 1260.37 L1060.3 1258.13 L1064.66 1258.27 Q1066.72 1258.27 1068.45 1258.13 L1068.45 1260.37 Z" fill="#000000" fill-rule="nonzero" fill-opacity="1" /><polyline clip-path="url(#clip660)" style="stroke:#e26f46; stroke-linecap:round; stroke-linejoin:round; stroke-width:3; stroke-opacity:1; fill:none" stroke-dasharray="12, 6, 2, 6" points="971.145,1325.48 1031.6,1325.48 "/>
<path clip-path="url(#clip660)" d="M1064.26 1309.2 L1063.85 1309.87 Q1061.31 1308.77 1058.15 1307.01 Q1054.98 1308.77 1052.44 1309.87 L1052.05 1309.2 Q1054.82 1306.79 1058.15 1304.93 Q1061.51 1306.8 1064.26 1309.2 Z" fill="#000000" fill-rule="nonzero" fill-opacity="1" /><path clip-path="url(#clip660)" d="M1068.45 1317.22 Q1066.97 1317.22 1066.22 1317.36 Q1065.48 1317.48 1065.29 1317.64 Q1065.1 1317.8 1064.89 1318.23 L1054.58 1340.15 Q1053.48 1342.49 1051.42 1344.18 Q1049.38 1345.86 1046.81 1345.86 Q1044.65 1345.86 1043.15 1344.55 Q1041.68 1343.26 1041.68 1341.44 Q1041.68 1340.13 1042.5 1339.38 Q1043.32 1338.65 1044.42 1338.65 Q1045.64 1338.65 1046.41 1339.42 Q1047.21 1340.2 1047.21 1341.39 Q1047.21 1342.16 1046.88 1342.75 Q1046.55 1343.36 1046.25 1343.57 Q1045.96 1343.8 1045.66 1343.94 Q1046.15 1344.13 1046.81 1344.13 Q1047.79 1344.13 1048.63 1343.73 Q1049.5 1343.36 1050.06 1342.84 Q1050.65 1342.35 1051.23 1341.46 Q1051.82 1340.59 1052.1 1340.03 Q1052.38 1339.49 1052.8 1338.56 L1053.9 1336.26 L1044.93 1317.22 L1041.87 1317.22 L1041.87 1314.97 L1047.35 1315.11 L1053.3 1314.97 L1053.3 1317.22 L1050.7 1317.22 L1056.79 1330.17 L1062.31 1318.37 L1062.55 1317.8 Q1062.55 1317.55 1061.99 1317.41 Q1061.42 1317.24 1060.86 1317.24 L1060.3 1317.22 L1060.3 1314.97 L1064.66 1315.11 Q1066.72 1315.11 1068.45 1314.97 L1068.45 1317.22 Z" fill="#000000" fill-rule="nonzero" fill-opacity="1" /><path clip-path="url(#clip660)" d="M1445.91 398.692 L2352.76 398.692 L2352.76 47.2441 L1445.91 47.2441  Z" fill="#ffffff" fill-rule="evenodd" fill-opacity="1"/>
<defs>
  <clipPath id="clip663">
    <rect x="1445" y="47" width="908" height="352"/>
  </clipPath>
</defs>
<polyline clip-path="url(#clip663)" style="stroke:#000000; stroke-linecap:round; stroke-linejoin:round; stroke-width:2; stroke-opacity:0.1; fill:none" points="1471.57,398.692 1471.57,47.2441 "/>
<polyline clip-path="url(#clip663)" style="stroke:#000000; stroke-linecap:round; stroke-linejoin:round; stroke-width:2; stroke-opacity:0.1; fill:none" points="1723.2,398.692 1723.2,47.2441 "/>
<polyline clip-path="url(#clip663)" style="stroke:#000000; stroke-linecap:round; stroke-linejoin:round; stroke-width:2; stroke-opacity:0.1; fill:none" points="1974.82,398.692 1974.82,47.2441 "/>
<polyline clip-path="url(#clip663)" style="stroke:#000000; stroke-linecap:round; stroke-linejoin:round; stroke-width:2; stroke-opacity:0.1; fill:none" points="2226.44,398.692 2226.44,47.2441 "/>
<polyline clip-path="url(#clip663)" style="stroke:#000000; stroke-linecap:round; stroke-linejoin:round; stroke-width:2; stroke-opacity:0.1; fill:none" points="1445.91,388.745 2352.76,388.745 "/>
<polyline clip-path="url(#clip663)" style="stroke:#000000; stroke-linecap:round; stroke-linejoin:round; stroke-width:2; stroke-opacity:0.1; fill:none" points="1445.91,323.485 2352.76,323.485 "/>
<polyline clip-path="url(#clip663)" style="stroke:#000000; stroke-linecap:round; stroke-linejoin:round; stroke-width:2; stroke-opacity:0.1; fill:none" points="1445.91,258.225 2352.76,258.225 "/>
<polyline clip-path="url(#clip663)" style="stroke:#000000; stroke-linecap:round; stroke-linejoin:round; stroke-width:2; stroke-opacity:0.1; fill:none" points="1445.91,192.964 2352.76,192.964 "/>
<polyline clip-path="url(#clip663)" style="stroke:#000000; stroke-linecap:round; stroke-linejoin:round; stroke-width:2; stroke-opacity:0.1; fill:none" points="1445.91,127.704 2352.76,127.704 "/>
<polyline clip-path="url(#clip663)" style="stroke:#000000; stroke-linecap:round; stroke-linejoin:round; stroke-width:2; stroke-opacity:0.1; fill:none" points="1445.91,62.4436 2352.76,62.4436 "/>
<polyline clip-path="url(#clip660)" style="stroke:#000000; stroke-linecap:round; stroke-linejoin:round; stroke-width:4; stroke-opacity:1; fill:none" points="1445.91,398.692 2352.76,398.692 "/>
<polyline clip-path="url(#clip660)" style="stroke:#000000; stroke-linecap:round; stroke-linejoin:round; stroke-width:4; stroke-opacity:1; fill:none" points="1471.57,398.692 1471.57,379.794 "/>
<polyline clip-path="url(#clip660)" style="stroke:#000000; stroke-linecap:round; stroke-linejoin:round; stroke-width:4; stroke-opacity:1; fill:none" points="1723.2,398.692 1723.2,379.794 "/>
<polyline clip-path="url(#clip660)" style="stroke:#000000; stroke-linecap:round; stroke-linejoin:round; stroke-width:4; stroke-opacity:1; fill:none" points="1974.82,398.692 1974.82,379.794 "/>
<polyline clip-path="url(#clip660)" style="stroke:#000000; stroke-linecap:round; stroke-linejoin:round; stroke-width:4; stroke-opacity:1; fill:none" points="2226.44,398.692 2226.44,379.794 "/>
<path clip-path="url(#clip660)" d="M1471.57 429.611 Q1467.96 429.611 1466.13 433.175 Q1464.33 436.717 1464.33 443.847 Q1464.33 450.953 1466.13 454.518 Q1467.96 458.059 1471.57 458.059 Q1475.21 458.059 1477.01 454.518 Q1478.84 450.953 1478.84 443.847 Q1478.84 436.717 1477.01 433.175 Q1475.21 429.611 1471.57 429.611 M1471.57 425.907 Q1477.38 425.907 1480.44 430.513 Q1483.52 435.097 1483.52 443.847 Q1483.52 452.573 1480.44 457.18 Q1477.38 461.763 1471.57 461.763 Q1465.76 461.763 1462.68 457.18 Q1459.63 452.573 1459.63 443.847 Q1459.63 435.097 1462.68 430.513 Q1465.76 425.907 1471.57 425.907 Z" fill="#000000" fill-rule="nonzero" fill-opacity="1" /><path clip-path="url(#clip660)" d="M1713.58 457.157 L1721.22 457.157 L1721.22 430.791 L1712.91 432.458 L1712.91 428.199 L1721.17 426.532 L1725.85 426.532 L1725.85 457.157 L1733.49 457.157 L1733.49 461.092 L1713.58 461.092 L1713.58 457.157 Z" fill="#000000" fill-rule="nonzero" fill-opacity="1" /><path clip-path="url(#clip660)" d="M1969.47 457.157 L1985.79 457.157 L1985.79 461.092 L1963.85 461.092 L1963.85 457.157 Q1966.51 454.402 1971.09 449.772 Q1975.7 445.12 1976.88 443.777 Q1979.12 441.254 1980 439.518 Q1980.91 437.759 1980.91 436.069 Q1980.91 433.314 1978.96 431.578 Q1977.04 429.842 1973.94 429.842 Q1971.74 429.842 1969.29 430.606 Q1966.86 431.37 1964.08 432.921 L1964.08 428.199 Q1966.9 427.064 1969.36 426.486 Q1971.81 425.907 1973.85 425.907 Q1979.22 425.907 1982.41 428.592 Q1985.61 431.277 1985.61 435.768 Q1985.61 437.898 1984.8 439.819 Q1984.01 441.717 1981.9 444.31 Q1981.32 444.981 1978.22 448.198 Q1975.12 451.393 1969.47 457.157 Z" fill="#000000" fill-rule="nonzero" fill-opacity="1" /><path clip-path="url(#clip660)" d="M2230.69 442.458 Q2234.05 443.175 2235.92 445.444 Q2237.82 447.712 2237.82 451.046 Q2237.82 456.161 2234.3 458.962 Q2230.78 461.763 2224.3 461.763 Q2222.12 461.763 2219.81 461.323 Q2217.52 460.907 2215.06 460.05 L2215.06 455.536 Q2217.01 456.671 2219.32 457.249 Q2221.64 457.828 2224.16 457.828 Q2228.56 457.828 2230.85 456.092 Q2233.17 454.356 2233.17 451.046 Q2233.17 447.99 2231.01 446.277 Q2228.88 444.541 2225.06 444.541 L2221.04 444.541 L2221.04 440.698 L2225.25 440.698 Q2228.7 440.698 2230.53 439.333 Q2232.36 437.944 2232.36 435.351 Q2232.36 432.689 2230.46 431.277 Q2228.58 429.842 2225.06 429.842 Q2223.14 429.842 2220.94 430.259 Q2218.74 430.675 2216.11 431.555 L2216.11 427.388 Q2218.77 426.648 2221.08 426.277 Q2223.42 425.907 2225.48 425.907 Q2230.8 425.907 2233.91 428.337 Q2237.01 430.745 2237.01 434.865 Q2237.01 437.736 2235.36 439.726 Q2233.72 441.694 2230.69 442.458 Z" fill="#000000" fill-rule="nonzero" fill-opacity="1" /><polyline clip-path="url(#clip660)" style="stroke:#000000; stroke-linecap:round; stroke-linejoin:round; stroke-width:4; stroke-opacity:1; fill:none" points="1445.91,398.692 1445.91,47.2441 "/>
<polyline clip-path="url(#clip660)" style="stroke:#000000; stroke-linecap:round; stroke-linejoin:round; stroke-width:4; stroke-opacity:1; fill:none" points="1445.91,388.745 1464.81,388.745 "/>
<polyline clip-path="url(#clip660)" style="stroke:#000000; stroke-linecap:round; stroke-linejoin:round; stroke-width:4; stroke-opacity:1; fill:none" points="1445.91,323.485 1464.81,323.485 "/>
<polyline clip-path="url(#clip660)" style="stroke:#000000; stroke-linecap:round; stroke-linejoin:round; stroke-width:4; stroke-opacity:1; fill:none" points="1445.91,258.225 1464.81,258.225 "/>
<polyline clip-path="url(#clip660)" style="stroke:#000000; stroke-linecap:round; stroke-linejoin:round; stroke-width:4; stroke-opacity:1; fill:none" points="1445.91,192.964 1464.81,192.964 "/>
<polyline clip-path="url(#clip660)" style="stroke:#000000; stroke-linecap:round; stroke-linejoin:round; stroke-width:4; stroke-opacity:1; fill:none" points="1445.91,127.704 1464.81,127.704 "/>
<polyline clip-path="url(#clip660)" style="stroke:#000000; stroke-linecap:round; stroke-linejoin:round; stroke-width:4; stroke-opacity:1; fill:none" points="1445.91,62.4436 1464.81,62.4436 "/>
<path clip-path="url(#clip660)" d="M1352.73 374.544 Q1349.12 374.544 1347.29 378.109 Q1345.49 381.65 1345.49 388.78 Q1345.49 395.886 1347.29 399.451 Q1349.12 402.993 1352.73 402.993 Q1356.37 402.993 1358.17 399.451 Q1360 395.886 1360 388.78 Q1360 381.65 1358.17 378.109 Q1356.37 374.544 1352.73 374.544 M1352.73 370.84 Q1358.54 370.84 1361.6 375.447 Q1364.68 380.03 1364.68 388.78 Q1364.68 397.507 1361.6 402.113 Q1358.54 406.697 1352.73 406.697 Q1346.92 406.697 1343.84 402.113 Q1340.79 397.507 1340.79 388.78 Q1340.79 380.03 1343.84 375.447 Q1346.92 370.84 1352.73 370.84 Z" fill="#000000" fill-rule="nonzero" fill-opacity="1" /><path clip-path="url(#clip660)" d="M1372.89 400.146 L1377.78 400.146 L1377.78 406.025 L1372.89 406.025 L1372.89 400.146 Z" fill="#000000" fill-rule="nonzero" fill-opacity="1" /><path clip-path="url(#clip660)" d="M1397.96 374.544 Q1394.35 374.544 1392.52 378.109 Q1390.72 381.65 1390.72 388.78 Q1390.72 395.886 1392.52 399.451 Q1394.35 402.993 1397.96 402.993 Q1401.6 402.993 1403.4 399.451 Q1405.23 395.886 1405.23 388.78 Q1405.23 381.65 1403.4 378.109 Q1401.6 374.544 1397.96 374.544 M1397.96 370.84 Q1403.77 370.84 1406.83 375.447 Q1409.91 380.03 1409.91 388.78 Q1409.91 397.507 1406.83 402.113 Q1403.77 406.697 1397.96 406.697 Q1392.15 406.697 1389.07 402.113 Q1386.02 397.507 1386.02 388.78 Q1386.02 380.03 1389.07 375.447 Q1392.15 370.84 1397.96 370.84 Z" fill="#000000" fill-rule="nonzero" fill-opacity="1" /><path clip-path="url(#clip660)" d="M1353.96 309.284 Q1350.35 309.284 1348.52 312.848 Q1346.71 316.39 1346.71 323.52 Q1346.71 330.626 1348.52 334.191 Q1350.35 337.733 1353.96 337.733 Q1357.59 337.733 1359.4 334.191 Q1361.23 330.626 1361.23 323.52 Q1361.23 316.39 1359.4 312.848 Q1357.59 309.284 1353.96 309.284 M1353.96 305.58 Q1359.77 305.58 1362.82 310.186 Q1365.9 314.77 1365.9 323.52 Q1365.9 332.246 1362.82 336.853 Q1359.77 341.436 1353.96 341.436 Q1348.15 341.436 1345.07 336.853 Q1342.01 332.246 1342.01 323.52 Q1342.01 314.77 1345.07 310.186 Q1348.15 305.58 1353.96 305.58 Z" fill="#000000" fill-rule="nonzero" fill-opacity="1" /><path clip-path="url(#clip660)" d="M1374.12 334.885 L1379.01 334.885 L1379.01 340.765 L1374.12 340.765 L1374.12 334.885 Z" fill="#000000" fill-rule="nonzero" fill-opacity="1" /><path clip-path="url(#clip660)" d="M1390 336.83 L1397.64 336.83 L1397.64 310.464 L1389.33 312.131 L1389.33 307.872 L1397.59 306.205 L1402.27 306.205 L1402.27 336.83 L1409.91 336.83 L1409.91 340.765 L1390 340.765 L1390 336.83 Z" fill="#000000" fill-rule="nonzero" fill-opacity="1" /><path clip-path="url(#clip660)" d="M1354.33 244.023 Q1350.72 244.023 1348.89 247.588 Q1347.08 251.13 1347.08 258.259 Q1347.08 265.366 1348.89 268.931 Q1350.72 272.472 1354.33 272.472 Q1357.96 272.472 1359.77 268.931 Q1361.6 265.366 1361.6 258.259 Q1361.6 251.13 1359.77 247.588 Q1357.96 244.023 1354.33 244.023 M1354.33 240.32 Q1360.14 240.32 1363.2 244.926 Q1366.27 249.509 1366.27 258.259 Q1366.27 266.986 1363.2 271.593 Q1360.14 276.176 1354.33 276.176 Q1348.52 276.176 1345.44 271.593 Q1342.39 266.986 1342.39 258.259 Q1342.39 249.509 1345.44 244.926 Q1348.52 240.32 1354.33 240.32 Z" fill="#000000" fill-rule="nonzero" fill-opacity="1" /><path clip-path="url(#clip660)" d="M1374.49 269.625 L1379.38 269.625 L1379.38 275.505 L1374.49 275.505 L1374.49 269.625 Z" fill="#000000" fill-rule="nonzero" fill-opacity="1" /><path clip-path="url(#clip660)" d="M1393.59 271.569 L1409.91 271.569 L1409.91 275.505 L1387.96 275.505 L1387.96 271.569 Q1390.63 268.815 1395.21 264.185 Q1399.82 259.532 1401 258.19 Q1403.24 255.667 1404.12 253.931 Q1405.02 252.171 1405.02 250.482 Q1405.02 247.727 1403.08 245.991 Q1401.16 244.255 1398.06 244.255 Q1395.86 244.255 1393.4 245.019 Q1390.97 245.783 1388.19 247.333 L1388.19 242.611 Q1391.02 241.477 1393.47 240.898 Q1395.93 240.32 1397.96 240.32 Q1403.33 240.32 1406.53 243.005 Q1409.72 245.69 1409.72 250.181 Q1409.72 252.31 1408.91 254.232 Q1408.13 256.13 1406.02 258.722 Q1405.44 259.394 1402.34 262.611 Q1399.24 265.806 1393.59 271.569 Z" fill="#000000" fill-rule="nonzero" fill-opacity="1" /><path clip-path="url(#clip660)" d="M1353.38 178.763 Q1349.77 178.763 1347.94 182.328 Q1346.13 185.869 1346.13 192.999 Q1346.13 200.105 1347.94 203.67 Q1349.77 207.212 1353.38 207.212 Q1357.01 207.212 1358.82 203.67 Q1360.65 200.105 1360.65 192.999 Q1360.65 185.869 1358.82 182.328 Q1357.01 178.763 1353.38 178.763 M1353.38 175.059 Q1359.19 175.059 1362.25 179.666 Q1365.32 184.249 1365.32 192.999 Q1365.32 201.726 1362.25 206.332 Q1359.19 210.916 1353.38 210.916 Q1347.57 210.916 1344.49 206.332 Q1341.44 201.726 1341.44 192.999 Q1341.44 184.249 1344.49 179.666 Q1347.57 175.059 1353.38 175.059 Z" fill="#000000" fill-rule="nonzero" fill-opacity="1" /><path clip-path="url(#clip660)" d="M1373.54 204.365 L1378.43 204.365 L1378.43 210.244 L1373.54 210.244 L1373.54 204.365 Z" fill="#000000" fill-rule="nonzero" fill-opacity="1" /><path clip-path="url(#clip660)" d="M1402.78 191.61 Q1406.13 192.328 1408.01 194.596 Q1409.91 196.865 1409.91 200.198 Q1409.91 205.314 1406.39 208.115 Q1402.87 210.916 1396.39 210.916 Q1394.21 210.916 1391.9 210.476 Q1389.61 210.059 1387.15 209.203 L1387.15 204.689 Q1389.1 205.823 1391.41 206.402 Q1393.73 206.98 1396.25 206.98 Q1400.65 206.98 1402.94 205.244 Q1405.26 203.508 1405.26 200.198 Q1405.26 197.142 1403.1 195.43 Q1400.97 193.693 1397.15 193.693 L1393.13 193.693 L1393.13 189.851 L1397.34 189.851 Q1400.79 189.851 1402.62 188.485 Q1404.44 187.096 1404.44 184.504 Q1404.44 181.842 1402.55 180.43 Q1400.67 178.994 1397.15 178.994 Q1395.23 178.994 1393.03 179.411 Q1390.83 179.828 1388.19 180.707 L1388.19 176.541 Q1390.86 175.8 1393.17 175.43 Q1395.51 175.059 1397.57 175.059 Q1402.89 175.059 1406 177.49 Q1409.1 179.897 1409.1 184.018 Q1409.1 186.888 1407.45 188.879 Q1405.81 190.846 1402.78 191.61 Z" fill="#000000" fill-rule="nonzero" fill-opacity="1" /><path clip-path="url(#clip660)" d="M1352.25 113.503 Q1348.63 113.503 1346.81 117.067 Q1345 120.609 1345 127.739 Q1345 134.845 1346.81 138.41 Q1348.63 141.952 1352.25 141.952 Q1355.88 141.952 1357.69 138.41 Q1359.51 134.845 1359.51 127.739 Q1359.51 120.609 1357.69 117.067 Q1355.88 113.503 1352.25 113.503 M1352.25 109.799 Q1358.06 109.799 1361.11 114.405 Q1364.19 118.989 1364.19 127.739 Q1364.19 136.465 1361.11 141.072 Q1358.06 145.655 1352.25 145.655 Q1346.44 145.655 1343.36 141.072 Q1340.3 136.465 1340.3 127.739 Q1340.3 118.989 1343.36 114.405 Q1346.44 109.799 1352.25 109.799 Z" fill="#000000" fill-rule="nonzero" fill-opacity="1" /><path clip-path="url(#clip660)" d="M1372.41 139.104 L1377.29 139.104 L1377.29 144.984 L1372.41 144.984 L1372.41 139.104 Z" fill="#000000" fill-rule="nonzero" fill-opacity="1" /><path clip-path="url(#clip660)" d="M1400.32 114.498 L1388.52 132.947 L1400.32 132.947 L1400.32 114.498 M1399.1 110.424 L1404.98 110.424 L1404.98 132.947 L1409.91 132.947 L1409.91 136.836 L1404.98 136.836 L1404.98 144.984 L1400.32 144.984 L1400.32 136.836 L1384.72 136.836 L1384.72 132.322 L1399.1 110.424 Z" fill="#000000" fill-rule="nonzero" fill-opacity="1" /><path clip-path="url(#clip660)" d="M1353.73 48.2423 Q1350.12 48.2423 1348.29 51.8071 Q1346.48 55.3488 1346.48 62.4783 Q1346.48 69.5848 1348.29 73.1496 Q1350.12 76.6912 1353.73 76.6912 Q1357.36 76.6912 1359.17 73.1496 Q1361 69.5848 1361 62.4783 Q1361 55.3488 1359.17 51.8071 Q1357.36 48.2423 1353.73 48.2423 M1353.73 44.5386 Q1359.54 44.5386 1362.59 49.1451 Q1365.67 53.7284 1365.67 62.4783 Q1365.67 71.2051 1362.59 75.8116 Q1359.54 80.3949 1353.73 80.3949 Q1347.92 80.3949 1344.84 75.8116 Q1341.78 71.2051 1341.78 62.4783 Q1341.78 53.7284 1344.84 49.1451 Q1347.92 44.5386 1353.73 44.5386 Z" fill="#000000" fill-rule="nonzero" fill-opacity="1" /><path clip-path="url(#clip660)" d="M1373.89 73.844 L1378.77 73.844 L1378.77 79.7236 L1373.89 79.7236 L1373.89 73.844 Z" fill="#000000" fill-rule="nonzero" fill-opacity="1" /><path clip-path="url(#clip660)" d="M1389.01 45.1636 L1407.36 45.1636 L1407.36 49.0988 L1393.29 49.0988 L1393.29 57.571 Q1394.31 57.2237 1395.32 57.0617 Q1396.34 56.8765 1397.36 56.8765 Q1403.15 56.8765 1406.53 60.0478 Q1409.91 63.2191 1409.91 68.6357 Q1409.91 74.2144 1406.44 77.3162 Q1402.96 80.3949 1396.64 80.3949 Q1394.47 80.3949 1392.2 80.0245 Q1389.95 79.6542 1387.55 78.9134 L1387.55 74.2144 Q1389.63 75.3486 1391.85 75.9042 Q1394.07 76.4597 1396.55 76.4597 Q1400.56 76.4597 1402.89 74.3533 Q1405.23 72.2468 1405.23 68.6357 Q1405.23 65.0246 1402.89 62.9182 Q1400.56 60.8117 1396.55 60.8117 Q1394.68 60.8117 1392.8 61.2283 Q1390.95 61.645 1389.01 62.5246 L1389.01 45.1636 Z" fill="#000000" fill-rule="nonzero" fill-opacity="1" /><path clip-path="url(#clip660)" d="M1265.47 298.084 Q1270.89 298.084 1276.97 299.823 Q1283.03 301.53 1287.92 304.235 Q1292.79 306.941 1296.01 310.483 Q1299.19 314.026 1299.19 317.408 Q1299.19 319.565 1298 321.176 Q1296.78 322.754 1294.75 323.623 Q1292.69 324.493 1290.43 324.912 Q1288.15 325.33 1285.67 325.33 Q1281.96 325.33 1277.94 324.525 Q1273.88 323.72 1270.21 322.367 Q1266.51 321.015 1263.16 319.115 Q1259.77 317.214 1257.33 315.121 Q1254.85 312.995 1253.4 310.612 Q1251.95 308.229 1251.95 306.007 Q1251.95 304.396 1252.66 303.108 Q1253.33 301.788 1254.52 300.95 Q1255.68 300.113 1257.07 299.533 Q1258.45 298.921 1260.06 298.632 Q1261.64 298.342 1262.96 298.213 Q1264.25 298.084 1265.47 298.084 M1261.38 302.432 Q1259.74 302.432 1258.52 302.561 Q1257.26 302.69 1256.01 303.044 Q1254.75 303.398 1254.07 304.171 Q1253.4 304.912 1253.4 306.071 Q1253.4 309.453 1260.32 313.253 Q1262.48 314.477 1265.41 315.572 Q1268.34 316.667 1269.73 317.053 Q1271.11 317.44 1274.52 318.342 L1274.52 304.558 Q1265.73 302.432 1261.38 302.432 M1276.62 305.137 L1276.62 318.857 Q1284.67 320.983 1289.69 320.983 Q1294.07 320.983 1295.91 320.081 Q1297.71 319.147 1297.71 317.408 Q1297.71 315.411 1295.72 313.543 Q1293.69 311.675 1290.02 309.775 Q1285.25 307.263 1276.62 305.137 Z" fill="#000000" fill-rule="nonzero" fill-opacity="1" /><path clip-path="url(#clip660)" d="M1248.99 253.776 Q1256.31 258.041 1263.47 260.11 Q1270.64 262.179 1277.99 262.179 Q1285.34 262.179 1292.57 260.11 Q1299.76 258.009 1307.05 253.776 L1307.05 258.869 Q1299.57 263.643 1292.34 266.03 Q1285.12 268.386 1277.99 268.386 Q1270.89 268.386 1263.7 266.03 Q1256.5 263.675 1248.99 258.869 L1248.99 253.776 Z" fill="#000000" fill-rule="nonzero" fill-opacity="1" /><path clip-path="url(#clip660)" d="M1268.28 221.757 Q1267.71 222.743 1267.45 223.921 Q1267.17 225.067 1267.17 226.467 Q1267.17 231.433 1270.41 234.106 Q1273.63 236.748 1279.67 236.748 L1298.45 236.748 L1298.45 242.636 L1262.81 242.636 L1262.81 236.748 L1268.34 236.748 Q1265.1 234.902 1263.54 231.942 Q1261.95 228.982 1261.95 224.749 Q1261.95 224.144 1262.04 223.412 Q1262.11 222.68 1262.26 221.789 L1268.28 221.757 Z" fill="#000000" fill-rule="nonzero" fill-opacity="1" /><path clip-path="url(#clip660)" d="M1280.53 199.413 Q1280.53 206.511 1282.16 209.248 Q1283.78 211.985 1287.7 211.985 Q1290.81 211.985 1292.66 209.948 Q1294.48 207.879 1294.48 204.347 Q1294.48 199.477 1291.04 196.549 Q1287.57 193.588 1281.84 193.588 L1280.53 193.588 L1280.53 199.413 M1278.12 187.732 L1298.45 187.732 L1298.45 193.588 L1293.04 193.588 Q1296.29 195.594 1297.85 198.586 Q1299.38 201.577 1299.38 205.906 Q1299.38 211.381 1296.32 214.627 Q1293.23 217.842 1288.08 217.842 Q1282.06 217.842 1279.01 213.831 Q1275.95 209.789 1275.95 201.8 L1275.95 193.588 L1275.38 193.588 Q1271.34 193.588 1269.14 196.262 Q1266.91 198.904 1266.91 203.71 Q1266.91 206.766 1267.64 209.662 Q1268.38 212.558 1269.84 215.232 L1264.43 215.232 Q1263.19 212.017 1262.58 208.993 Q1261.95 205.97 1261.95 203.105 Q1261.95 195.371 1265.96 191.551 Q1269.97 187.732 1278.12 187.732 Z" fill="#000000" fill-rule="nonzero" fill-opacity="1" /><path clip-path="url(#clip660)" d="M1268.22 152.211 L1248.93 152.211 L1248.93 146.355 L1298.45 146.355 L1298.45 152.211 L1293.11 152.211 Q1296.29 154.057 1297.85 156.89 Q1299.38 159.691 1299.38 163.638 Q1299.38 170.099 1294.22 174.173 Q1289.06 178.215 1280.66 178.215 Q1272.26 178.215 1267.1 174.173 Q1261.95 170.099 1261.95 163.638 Q1261.95 159.691 1263.51 156.89 Q1265.03 154.057 1268.22 152.211 M1280.66 172.168 Q1287.12 172.168 1290.81 169.526 Q1294.48 166.853 1294.48 162.206 Q1294.48 157.559 1290.81 154.885 Q1287.12 152.211 1280.66 152.211 Q1274.2 152.211 1270.54 154.885 Q1266.85 157.559 1266.85 162.206 Q1266.85 166.853 1270.54 169.526 Q1274.2 172.168 1280.66 172.168 Z" fill="#000000" fill-rule="nonzero" fill-opacity="1" /><path clip-path="url(#clip660)" d="M1248.99 135.215 L1248.99 130.122 Q1256.5 125.348 1263.7 122.993 Q1270.89 120.606 1277.99 120.606 Q1285.12 120.606 1292.34 122.993 Q1299.57 125.348 1307.05 130.122 L1307.05 135.215 Q1299.76 130.982 1292.57 128.913 Q1285.34 126.812 1277.99 126.812 Q1270.64 126.812 1263.47 128.913 Q1256.31 130.982 1248.99 135.215 Z" fill="#000000" fill-rule="nonzero" fill-opacity="1" /><polyline clip-path="url(#clip663)" style="stroke:#009af9; stroke-linecap:round; stroke-linejoin:round; stroke-width:4; stroke-opacity:1; fill:none" points="1471.57,388.745 1496.74,360.406 1521.9,296.12 1547.06,222.091 1572.22,155.843 1597.38,106.255 1622.55,75.4495 1647.71,61.2882 1672.87,59.5968 1698.03,65.7522 1723.2,75.6432 1748.36,86.1437 1773.52,95.2421 1798.68,101.943 1823.85,106.045 1849.01,107.866 1874.17,107.99 1899.33,107.063 1924.49,105.658 1949.66,104.204 1974.82,102.971 1999.98,102.082 2025.14,101.556 2050.31,101.339 2075.47,101.347 2100.63,101.491 2125.79,101.691 2150.95,101.893 2176.12,102.06 2201.28,102.177 2226.44,102.245 2251.6,102.27 2276.77,102.266 2301.93,102.244 2327.09,102.216 "/>
<polyline clip-path="url(#clip663)" style="stroke:#e26f46; stroke-linecap:round; stroke-linejoin:round; stroke-width:3; stroke-opacity:1; fill:none" stroke-dasharray="12, 6, 2, 6" points="1471.57,387.694 1496.74,361.493 1521.9,298.635 1547.06,226.416 1572.22,156.995 1597.38,106.627 1622.55,79.5711 1647.71,57.1907 1672.87,61.9813 1698.03,73.1934 1723.2,83.4611 1748.36,85.5068 1773.52,92.3348 1798.68,95.0879 1823.85,98.8779 1849.01,107.942 1874.17,103.918 1899.33,106.904 1924.49,108.32 1949.66,97.2891 1974.82,98.4823 1999.98,103.089 2025.14,97.3606 2050.31,99.6095 2075.47,107.4 2100.63,105.762 2125.79,99.9856 2150.95,101.308 2176.12,101.821 2201.28,114.495 2226.44,106.091 2251.6,100.14 2276.77,100.771 2301.93,111.553 2327.09,93.0547 "/>
<path clip-path="url(#clip660)" d="M2203.01 386.977 L2322.53 386.977 L2322.53 231.457 L2203.01 231.457  Z" fill="#ffffff" fill-rule="evenodd" fill-opacity="1"/>
<polyline clip-path="url(#clip660)" style="stroke:#000000; stroke-linecap:round; stroke-linejoin:round; stroke-width:4; stroke-opacity:1; fill:none" points="2203.01,386.977 2322.53,386.977 2322.53,231.457 2203.01,231.457 2203.01,386.977 "/>
<polyline clip-path="url(#clip660)" style="stroke:#009af9; stroke-linecap:round; stroke-linejoin:round; stroke-width:4; stroke-opacity:1; fill:none" points="2213.09,283.297 2273.55,283.297 "/>
<path clip-path="url(#clip660)" d="M2310.63 293.836 L2305.36 293.695 L2299.6 293.836 L2299.6 291.587 L2301.47 291.587 L2296.2 285.357 L2291.54 290.58 L2291.21 291.049 Q2291.21 291.26 2291.75 291.423 Q2292.31 291.587 2292.97 291.587 L2292.97 293.836 L2288.03 293.695 L2283.62 293.836 L2283.62 291.587 Q2285.1 291.587 2285.78 291.564 Q2286.48 291.517 2287.28 291.306 Q2288.07 291.096 2288.47 290.674 L2294.75 283.624 L2287.28 274.794 L2283.86 274.794 L2283.86 272.545 L2289.15 272.686 L2294.94 272.545 L2294.94 274.794 L2293.01 274.794 L2297.72 280.298 L2301.75 275.801 Q2301.77 275.777 2302.15 275.215 Q2301.4 274.794 2300.32 274.794 L2300.32 272.545 L2305.26 272.686 L2309.67 272.545 L2309.67 274.794 Q2307.75 274.794 2306.74 274.934 Q2305.76 275.051 2305.45 275.215 Q2305.17 275.379 2304.77 275.801 L2299.17 282.031 L2307.23 291.587 L2310.63 291.587 L2310.63 293.836 Z" fill="#000000" fill-rule="nonzero" fill-opacity="1" /><polyline clip-path="url(#clip660)" style="stroke:#e26f46; stroke-linecap:round; stroke-linejoin:round; stroke-width:3; stroke-opacity:1; fill:none" stroke-dasharray="12, 6, 2, 6" points="2213.09,335.137 2273.55,335.137 "/>
<path clip-path="url(#clip660)" d="M2306.21 323.615 L2305.8 324.287 Q2303.26 323.189 2300.09 321.434 Q2296.93 323.189 2294.39 324.287 L2293.99 323.615 Q2296.76 321.205 2300.09 319.352 Q2303.45 321.221 2306.21 323.615 Z" fill="#000000" fill-rule="nonzero" fill-opacity="1" /><path clip-path="url(#clip660)" d="M2310.63 350.681 L2305.36 350.54 L2299.6 350.681 L2299.6 348.432 L2301.47 348.432 L2296.2 342.202 L2291.54 347.425 L2291.21 347.893 Q2291.21 348.104 2291.75 348.268 Q2292.31 348.432 2292.97 348.432 L2292.97 350.681 L2288.03 350.54 L2283.62 350.681 L2283.62 348.432 Q2285.1 348.432 2285.78 348.409 Q2286.48 348.362 2287.28 348.151 Q2288.07 347.94 2288.47 347.519 L2294.75 340.468 L2287.28 331.638 L2283.86 331.638 L2283.86 329.39 L2289.15 329.53 L2294.94 329.39 L2294.94 331.638 L2293.01 331.638 L2297.72 337.142 L2301.75 332.645 Q2301.77 332.622 2302.15 332.06 Q2301.4 331.638 2300.32 331.638 L2300.32 329.39 L2305.26 329.53 L2309.67 329.39 L2309.67 331.638 Q2307.75 331.638 2306.74 331.779 Q2305.76 331.896 2305.45 332.06 Q2305.17 332.224 2304.77 332.645 L2299.17 338.876 L2307.23 348.432 L2310.63 348.432 L2310.63 350.681 Z" fill="#000000" fill-rule="nonzero" fill-opacity="1" /><path clip-path="url(#clip660)" d="M1445.91 910.936 L2352.76 910.936 L2352.76 559.488 L1445.91 559.488  Z" fill="#ffffff" fill-rule="evenodd" fill-opacity="1"/>
<defs>
  <clipPath id="clip664">
    <rect x="1445" y="559" width="908" height="352"/>
  </clipPath>
</defs>
<polyline clip-path="url(#clip664)" style="stroke:#000000; stroke-linecap:round; stroke-linejoin:round; stroke-width:2; stroke-opacity:0.1; fill:none" points="1471.57,910.936 1471.57,559.488 "/>
<polyline clip-path="url(#clip664)" style="stroke:#000000; stroke-linecap:round; stroke-linejoin:round; stroke-width:2; stroke-opacity:0.1; fill:none" points="1723.2,910.936 1723.2,559.488 "/>
<polyline clip-path="url(#clip664)" style="stroke:#000000; stroke-linecap:round; stroke-linejoin:round; stroke-width:2; stroke-opacity:0.1; fill:none" points="1974.82,910.936 1974.82,559.488 "/>
<polyline clip-path="url(#clip664)" style="stroke:#000000; stroke-linecap:round; stroke-linejoin:round; stroke-width:2; stroke-opacity:0.1; fill:none" points="2226.44,910.936 2226.44,559.488 "/>
<polyline clip-path="url(#clip664)" style="stroke:#000000; stroke-linecap:round; stroke-linejoin:round; stroke-width:2; stroke-opacity:0.1; fill:none" points="1445.91,844.252 2352.76,844.252 "/>
<polyline clip-path="url(#clip664)" style="stroke:#000000; stroke-linecap:round; stroke-linejoin:round; stroke-width:2; stroke-opacity:0.1; fill:none" points="1445.91,771.705 2352.76,771.705 "/>
<polyline clip-path="url(#clip664)" style="stroke:#000000; stroke-linecap:round; stroke-linejoin:round; stroke-width:2; stroke-opacity:0.1; fill:none" points="1445.91,699.157 2352.76,699.157 "/>
<polyline clip-path="url(#clip664)" style="stroke:#000000; stroke-linecap:round; stroke-linejoin:round; stroke-width:2; stroke-opacity:0.1; fill:none" points="1445.91,626.61 2352.76,626.61 "/>
<polyline clip-path="url(#clip660)" style="stroke:#000000; stroke-linecap:round; stroke-linejoin:round; stroke-width:4; stroke-opacity:1; fill:none" points="1445.91,910.936 2352.76,910.936 "/>
<polyline clip-path="url(#clip660)" style="stroke:#000000; stroke-linecap:round; stroke-linejoin:round; stroke-width:4; stroke-opacity:1; fill:none" points="1471.57,910.936 1471.57,892.038 "/>
<polyline clip-path="url(#clip660)" style="stroke:#000000; stroke-linecap:round; stroke-linejoin:round; stroke-width:4; stroke-opacity:1; fill:none" points="1723.2,910.936 1723.2,892.038 "/>
<polyline clip-path="url(#clip660)" style="stroke:#000000; stroke-linecap:round; stroke-linejoin:round; stroke-width:4; stroke-opacity:1; fill:none" points="1974.82,910.936 1974.82,892.038 "/>
<polyline clip-path="url(#clip660)" style="stroke:#000000; stroke-linecap:round; stroke-linejoin:round; stroke-width:4; stroke-opacity:1; fill:none" points="2226.44,910.936 2226.44,892.038 "/>
<path clip-path="url(#clip660)" d="M1471.57 941.855 Q1467.96 941.855 1466.13 945.419 Q1464.33 948.961 1464.33 956.091 Q1464.33 963.197 1466.13 966.762 Q1467.96 970.303 1471.57 970.303 Q1475.21 970.303 1477.01 966.762 Q1478.84 963.197 1478.84 956.091 Q1478.84 948.961 1477.01 945.419 Q1475.21 941.855 1471.57 941.855 M1471.57 938.151 Q1477.38 938.151 1480.44 942.757 Q1483.52 947.341 1483.52 956.091 Q1483.52 964.817 1480.44 969.424 Q1477.38 974.007 1471.57 974.007 Q1465.76 974.007 1462.68 969.424 Q1459.63 964.817 1459.63 956.091 Q1459.63 947.341 1462.68 942.757 Q1465.76 938.151 1471.57 938.151 Z" fill="#000000" fill-rule="nonzero" fill-opacity="1" /><path clip-path="url(#clip660)" d="M1713.58 969.401 L1721.22 969.401 L1721.22 943.035 L1712.91 944.702 L1712.91 940.443 L1721.17 938.776 L1725.85 938.776 L1725.85 969.401 L1733.49 969.401 L1733.49 973.336 L1713.58 973.336 L1713.58 969.401 Z" fill="#000000" fill-rule="nonzero" fill-opacity="1" /><path clip-path="url(#clip660)" d="M1969.47 969.401 L1985.79 969.401 L1985.79 973.336 L1963.85 973.336 L1963.85 969.401 Q1966.51 966.646 1971.09 962.016 Q1975.7 957.364 1976.88 956.021 Q1979.12 953.498 1980 951.762 Q1980.91 950.003 1980.91 948.313 Q1980.91 945.558 1978.96 943.822 Q1977.04 942.086 1973.94 942.086 Q1971.74 942.086 1969.29 942.85 Q1966.86 943.614 1964.08 945.165 L1964.08 940.443 Q1966.9 939.308 1969.36 938.73 Q1971.81 938.151 1973.85 938.151 Q1979.22 938.151 1982.41 940.836 Q1985.61 943.521 1985.61 948.012 Q1985.61 950.142 1984.8 952.063 Q1984.01 953.961 1981.9 956.554 Q1981.32 957.225 1978.22 960.442 Q1975.12 963.637 1969.47 969.401 Z" fill="#000000" fill-rule="nonzero" fill-opacity="1" /><path clip-path="url(#clip660)" d="M2230.69 954.702 Q2234.05 955.419 2235.92 957.688 Q2237.82 959.956 2237.82 963.29 Q2237.82 968.405 2234.3 971.206 Q2230.78 974.007 2224.3 974.007 Q2222.12 974.007 2219.81 973.567 Q2217.52 973.151 2215.06 972.294 L2215.06 967.78 Q2217.01 968.915 2219.32 969.493 Q2221.64 970.072 2224.16 970.072 Q2228.56 970.072 2230.85 968.336 Q2233.17 966.6 2233.17 963.29 Q2233.17 960.234 2231.01 958.521 Q2228.88 956.785 2225.06 956.785 L2221.04 956.785 L2221.04 952.942 L2225.25 952.942 Q2228.7 952.942 2230.53 951.577 Q2232.36 950.188 2232.36 947.595 Q2232.36 944.933 2230.46 943.521 Q2228.58 942.086 2225.06 942.086 Q2223.14 942.086 2220.94 942.503 Q2218.74 942.919 2216.11 943.799 L2216.11 939.632 Q2218.77 938.892 2221.08 938.521 Q2223.42 938.151 2225.48 938.151 Q2230.8 938.151 2233.91 940.581 Q2237.01 942.989 2237.01 947.109 Q2237.01 949.979 2235.36 951.97 Q2233.72 953.938 2230.69 954.702 Z" fill="#000000" fill-rule="nonzero" fill-opacity="1" /><polyline clip-path="url(#clip660)" style="stroke:#000000; stroke-linecap:round; stroke-linejoin:round; stroke-width:4; stroke-opacity:1; fill:none" points="1445.91,910.936 1445.91,559.488 "/>
<polyline clip-path="url(#clip660)" style="stroke:#000000; stroke-linecap:round; stroke-linejoin:round; stroke-width:4; stroke-opacity:1; fill:none" points="1445.91,844.252 1464.81,844.252 "/>
<polyline clip-path="url(#clip660)" style="stroke:#000000; stroke-linecap:round; stroke-linejoin:round; stroke-width:4; stroke-opacity:1; fill:none" points="1445.91,771.705 1464.81,771.705 "/>
<polyline clip-path="url(#clip660)" style="stroke:#000000; stroke-linecap:round; stroke-linejoin:round; stroke-width:4; stroke-opacity:1; fill:none" points="1445.91,699.157 1464.81,699.157 "/>
<polyline clip-path="url(#clip660)" style="stroke:#000000; stroke-linecap:round; stroke-linejoin:round; stroke-width:4; stroke-opacity:1; fill:none" points="1445.91,626.61 1464.81,626.61 "/>
<path clip-path="url(#clip660)" d="M1352.73 830.051 Q1349.12 830.051 1347.29 833.616 Q1345.49 837.157 1345.49 844.287 Q1345.49 851.393 1347.29 854.958 Q1349.12 858.5 1352.73 858.5 Q1356.37 858.5 1358.17 854.958 Q1360 851.393 1360 844.287 Q1360 837.157 1358.17 833.616 Q1356.37 830.051 1352.73 830.051 M1352.73 826.347 Q1358.54 826.347 1361.6 830.954 Q1364.68 835.537 1364.68 844.287 Q1364.68 853.014 1361.6 857.62 Q1358.54 862.204 1352.73 862.204 Q1346.92 862.204 1343.84 857.62 Q1340.79 853.014 1340.79 844.287 Q1340.79 835.537 1343.84 830.954 Q1346.92 826.347 1352.73 826.347 Z" fill="#000000" fill-rule="nonzero" fill-opacity="1" /><path clip-path="url(#clip660)" d="M1372.89 855.653 L1377.78 855.653 L1377.78 861.532 L1372.89 861.532 L1372.89 855.653 Z" fill="#000000" fill-rule="nonzero" fill-opacity="1" /><path clip-path="url(#clip660)" d="M1397.96 830.051 Q1394.35 830.051 1392.52 833.616 Q1390.72 837.157 1390.72 844.287 Q1390.72 851.393 1392.52 854.958 Q1394.35 858.5 1397.96 858.5 Q1401.6 858.5 1403.4 854.958 Q1405.23 851.393 1405.23 844.287 Q1405.23 837.157 1403.4 833.616 Q1401.6 830.051 1397.96 830.051 M1397.96 826.347 Q1403.77 826.347 1406.83 830.954 Q1409.91 835.537 1409.91 844.287 Q1409.91 853.014 1406.83 857.62 Q1403.77 862.204 1397.96 862.204 Q1392.15 862.204 1389.07 857.62 Q1386.02 853.014 1386.02 844.287 Q1386.02 835.537 1389.07 830.954 Q1392.15 826.347 1397.96 826.347 Z" fill="#000000" fill-rule="nonzero" fill-opacity="1" /><path clip-path="url(#clip660)" d="M1353.38 757.503 Q1349.77 757.503 1347.94 761.068 Q1346.13 764.61 1346.13 771.74 Q1346.13 778.846 1347.94 782.411 Q1349.77 785.952 1353.38 785.952 Q1357.01 785.952 1358.82 782.411 Q1360.65 778.846 1360.65 771.74 Q1360.65 764.61 1358.82 761.068 Q1357.01 757.503 1353.38 757.503 M1353.38 753.8 Q1359.19 753.8 1362.25 758.406 Q1365.32 762.99 1365.32 771.74 Q1365.32 780.466 1362.25 785.073 Q1359.19 789.656 1353.38 789.656 Q1347.57 789.656 1344.49 785.073 Q1341.44 780.466 1341.44 771.74 Q1341.44 762.99 1344.49 758.406 Q1347.57 753.8 1353.38 753.8 Z" fill="#000000" fill-rule="nonzero" fill-opacity="1" /><path clip-path="url(#clip660)" d="M1373.54 783.105 L1378.43 783.105 L1378.43 788.985 L1373.54 788.985 L1373.54 783.105 Z" fill="#000000" fill-rule="nonzero" fill-opacity="1" /><path clip-path="url(#clip660)" d="M1402.78 770.351 Q1406.13 771.068 1408.01 773.337 Q1409.91 775.605 1409.91 778.939 Q1409.91 784.054 1406.39 786.855 Q1402.87 789.656 1396.39 789.656 Q1394.21 789.656 1391.9 789.216 Q1389.61 788.8 1387.15 787.943 L1387.15 783.429 Q1389.1 784.564 1391.41 785.142 Q1393.73 785.721 1396.25 785.721 Q1400.65 785.721 1402.94 783.985 Q1405.26 782.249 1405.26 778.939 Q1405.26 775.883 1403.1 774.17 Q1400.97 772.434 1397.15 772.434 L1393.13 772.434 L1393.13 768.591 L1397.34 768.591 Q1400.79 768.591 1402.62 767.226 Q1404.44 765.837 1404.44 763.244 Q1404.44 760.582 1402.55 759.17 Q1400.67 757.735 1397.15 757.735 Q1395.23 757.735 1393.03 758.152 Q1390.83 758.568 1388.19 759.448 L1388.19 755.281 Q1390.86 754.541 1393.17 754.17 Q1395.51 753.8 1397.57 753.8 Q1402.89 753.8 1406 756.23 Q1409.1 758.638 1409.1 762.758 Q1409.1 765.628 1407.45 767.619 Q1405.81 769.587 1402.78 770.351 Z" fill="#000000" fill-rule="nonzero" fill-opacity="1" /><path clip-path="url(#clip660)" d="M1352.57 684.956 Q1348.96 684.956 1347.13 688.521 Q1345.32 692.062 1345.32 699.192 Q1345.32 706.298 1347.13 709.863 Q1348.96 713.405 1352.57 713.405 Q1356.2 713.405 1358.01 709.863 Q1359.84 706.298 1359.84 699.192 Q1359.84 692.062 1358.01 688.521 Q1356.2 684.956 1352.57 684.956 M1352.57 681.252 Q1358.38 681.252 1361.44 685.859 Q1364.51 690.442 1364.51 699.192 Q1364.51 707.919 1361.44 712.525 Q1358.38 717.109 1352.57 717.109 Q1346.76 717.109 1343.68 712.525 Q1340.63 707.919 1340.63 699.192 Q1340.63 690.442 1343.68 685.859 Q1346.76 681.252 1352.57 681.252 Z" fill="#000000" fill-rule="nonzero" fill-opacity="1" /><path clip-path="url(#clip660)" d="M1372.73 710.558 L1377.62 710.558 L1377.62 716.437 L1372.73 716.437 L1372.73 710.558 Z" fill="#000000" fill-rule="nonzero" fill-opacity="1" /><path clip-path="url(#clip660)" d="M1398.38 697.294 Q1395.23 697.294 1393.38 699.447 Q1391.55 701.599 1391.55 705.349 Q1391.55 709.076 1393.38 711.252 Q1395.23 713.405 1398.38 713.405 Q1401.53 713.405 1403.36 711.252 Q1405.21 709.076 1405.21 705.349 Q1405.21 701.599 1403.36 699.447 Q1401.53 697.294 1398.38 697.294 M1407.66 682.641 L1407.66 686.9 Q1405.9 686.067 1404.1 685.627 Q1402.32 685.187 1400.56 685.187 Q1395.93 685.187 1393.47 688.312 Q1391.04 691.437 1390.69 697.757 Q1392.06 695.743 1394.12 694.678 Q1396.18 693.59 1398.66 693.59 Q1403.87 693.59 1406.88 696.761 Q1409.91 699.91 1409.91 705.349 Q1409.91 710.673 1406.76 713.891 Q1403.61 717.109 1398.38 717.109 Q1392.38 717.109 1389.21 712.525 Q1386.04 707.919 1386.04 699.192 Q1386.04 690.998 1389.93 686.137 Q1393.82 681.252 1400.37 681.252 Q1402.13 681.252 1403.91 681.6 Q1405.72 681.947 1407.66 682.641 Z" fill="#000000" fill-rule="nonzero" fill-opacity="1" /><path clip-path="url(#clip660)" d="M1352.92 612.409 Q1349.31 612.409 1347.48 615.973 Q1345.67 619.515 1345.67 626.645 Q1345.67 633.751 1347.48 637.316 Q1349.31 640.857 1352.92 640.857 Q1356.55 640.857 1358.36 637.316 Q1360.19 633.751 1360.19 626.645 Q1360.19 619.515 1358.36 615.973 Q1356.55 612.409 1352.92 612.409 M1352.92 608.705 Q1358.73 608.705 1361.78 613.311 Q1364.86 617.895 1364.86 626.645 Q1364.86 635.371 1361.78 639.978 Q1358.73 644.561 1352.92 644.561 Q1347.11 644.561 1344.03 639.978 Q1340.97 635.371 1340.97 626.645 Q1340.97 617.895 1344.03 613.311 Q1347.11 608.705 1352.92 608.705 Z" fill="#000000" fill-rule="nonzero" fill-opacity="1" /><path clip-path="url(#clip660)" d="M1373.08 638.01 L1377.96 638.01 L1377.96 643.89 L1373.08 643.89 L1373.08 638.01 Z" fill="#000000" fill-rule="nonzero" fill-opacity="1" /><path clip-path="url(#clip660)" d="M1388.29 643.172 L1388.29 638.913 Q1390.05 639.746 1391.85 640.186 Q1393.66 640.626 1395.39 640.626 Q1400.02 640.626 1402.45 637.524 Q1404.91 634.399 1405.26 628.057 Q1403.91 630.047 1401.85 631.112 Q1399.79 632.177 1397.29 632.177 Q1392.11 632.177 1389.07 629.052 Q1386.07 625.904 1386.07 620.464 Q1386.07 615.14 1389.21 611.922 Q1392.36 608.705 1397.59 608.705 Q1403.59 608.705 1406.74 613.311 Q1409.91 617.895 1409.91 626.645 Q1409.91 634.816 1406.02 639.7 Q1402.15 644.561 1395.6 644.561 Q1393.84 644.561 1392.04 644.214 Q1390.23 643.867 1388.29 643.172 M1397.59 628.52 Q1400.74 628.52 1402.57 626.367 Q1404.42 624.214 1404.42 620.464 Q1404.42 616.737 1402.57 614.584 Q1400.74 612.409 1397.59 612.409 Q1394.44 612.409 1392.59 614.584 Q1390.76 616.737 1390.76 620.464 Q1390.76 624.214 1392.59 626.367 Q1394.44 628.52 1397.59 628.52 Z" fill="#000000" fill-rule="nonzero" fill-opacity="1" /><path clip-path="url(#clip660)" d="M1265.64 831.559 Q1268.64 831.559 1274.44 833.072 Q1276.95 833.684 1279.23 834.522 Q1281.49 835.327 1283.68 836.518 Q1285.87 837.71 1287.45 839.095 Q1288.99 840.48 1289.96 842.283 Q1290.92 844.087 1290.92 846.084 Q1290.92 849.24 1289.06 851.108 Q1287.16 852.943 1283.9 853.523 Q1290.92 857.839 1290.92 863.604 Q1290.92 867.178 1288.38 868.853 Q1285.8 870.528 1281.49 870.528 Q1277.85 870.528 1274.08 869.562 Q1266.93 867.726 1261.94 864.151 Q1261.36 863.668 1261.36 862.959 Q1261.36 862.541 1261.49 862.347 Q1261.84 861.768 1262.42 861.768 Q1262.84 861.768 1263.26 862.09 Q1266.38 864.344 1269.06 865.826 Q1271.73 867.307 1274.44 867.984 Q1276.75 868.499 1278.72 868.499 Q1282.04 868.499 1284.1 867.082 Q1286.16 865.632 1286.16 862.766 Q1286.16 860.125 1284.52 857.806 Q1282.84 855.488 1280.04 853.781 Q1276.98 853.684 1274.08 852.943 Q1270.99 852.267 1270.99 850.689 Q1270.99 849.433 1272.7 849.433 Q1273.28 849.433 1274.44 849.691 Q1277.49 850.399 1280.23 851.687 Q1282.91 851.236 1284.55 849.562 Q1286.16 847.887 1286.16 845.214 Q1286.16 842.734 1284.35 840.544 Q1282.55 838.322 1279.91 836.905 Q1277.24 835.456 1274.08 834.65 Q1273.02 834.393 1271.67 834.393 Q1268.06 834.393 1265.84 836.905 Q1265.13 837.613 1264.19 837.613 Q1263.1 837.613 1262.1 836.712 Q1261.04 835.649 1261.04 834.393 Q1261.04 833.459 1261.62 832.879 Q1262.78 831.559 1265.64 831.559 Z" fill="#000000" fill-rule="nonzero" fill-opacity="1" /><path clip-path="url(#clip660)" d="M1240.72 788.989 Q1248.04 793.255 1255.2 795.323 Q1262.37 797.392 1269.72 797.392 Q1277.07 797.392 1284.3 795.323 Q1291.49 793.223 1298.78 788.989 L1298.78 794.082 Q1291.3 798.856 1284.07 801.243 Q1276.85 803.599 1269.72 803.599 Q1262.62 803.599 1255.43 801.243 Q1248.23 798.888 1240.72 794.082 L1240.72 788.989 Z" fill="#000000" fill-rule="nonzero" fill-opacity="1" /><path clip-path="url(#clip660)" d="M1260.01 756.97 Q1259.44 757.957 1259.18 759.134 Q1258.9 760.28 1258.9 761.681 Q1258.9 766.646 1262.14 769.319 Q1265.36 771.961 1271.41 771.961 L1290.18 771.961 L1290.18 777.85 L1254.54 777.85 L1254.54 771.961 L1260.07 771.961 Q1256.83 770.115 1255.27 767.155 Q1253.68 764.195 1253.68 759.962 Q1253.68 759.357 1253.77 758.625 Q1253.84 757.893 1254 757.002 L1260.01 756.97 Z" fill="#000000" fill-rule="nonzero" fill-opacity="1" /><path clip-path="url(#clip660)" d="M1272.26 734.626 Q1272.26 741.724 1273.89 744.461 Q1275.51 747.199 1279.43 747.199 Q1282.55 747.199 1284.39 745.162 Q1286.21 743.093 1286.21 739.56 Q1286.21 734.69 1282.77 731.762 Q1279.3 728.802 1273.57 728.802 L1272.26 728.802 L1272.26 734.626 M1269.85 722.945 L1290.18 722.945 L1290.18 728.802 L1284.77 728.802 Q1288.02 730.807 1289.58 733.799 Q1291.11 736.791 1291.11 741.119 Q1291.11 746.594 1288.05 749.84 Q1284.96 753.055 1279.81 753.055 Q1273.79 753.055 1270.74 749.045 Q1267.68 745.002 1267.68 737.013 L1267.68 728.802 L1267.11 728.802 Q1263.07 728.802 1260.87 731.475 Q1258.64 734.117 1258.64 738.923 Q1258.64 741.979 1259.37 744.875 Q1260.11 747.772 1261.57 750.445 L1256.16 750.445 Q1254.92 747.23 1254.31 744.207 Q1253.68 741.183 1253.68 738.318 Q1253.68 730.584 1257.69 726.765 Q1261.7 722.945 1269.85 722.945 Z" fill="#000000" fill-rule="nonzero" fill-opacity="1" /><path clip-path="url(#clip660)" d="M1259.95 687.425 L1240.66 687.425 L1240.66 681.568 L1290.18 681.568 L1290.18 687.425 L1284.84 687.425 Q1288.02 689.271 1289.58 692.103 Q1291.11 694.904 1291.11 698.851 Q1291.11 705.312 1285.95 709.386 Q1280.79 713.429 1272.39 713.429 Q1263.99 713.429 1258.83 709.386 Q1253.68 705.312 1253.68 698.851 Q1253.68 694.904 1255.24 692.103 Q1256.76 689.271 1259.95 687.425 M1272.39 707.381 Q1278.85 707.381 1282.55 704.739 Q1286.21 702.066 1286.21 697.419 Q1286.21 692.772 1282.55 690.098 Q1278.85 687.425 1272.39 687.425 Q1265.93 687.425 1262.27 690.098 Q1258.58 692.772 1258.58 697.419 Q1258.58 702.066 1262.27 704.739 Q1265.93 707.381 1272.39 707.381 Z" fill="#000000" fill-rule="nonzero" fill-opacity="1" /><path clip-path="url(#clip660)" d="M1242.66 659.097 L1242.66 653.686 L1296.23 670.237 L1296.23 675.648 L1242.66 659.097 Z" fill="#000000" fill-rule="nonzero" fill-opacity="1" /><path clip-path="url(#clip660)" d="M1255.59 624.818 L1261.12 624.818 Q1259.85 627.301 1259.21 629.974 Q1258.58 632.648 1258.58 635.512 Q1258.58 639.873 1259.92 642.069 Q1261.25 644.233 1263.93 644.233 Q1265.96 644.233 1267.14 642.674 Q1268.29 641.114 1269.34 636.404 L1269.78 634.398 Q1271.12 628.16 1273.57 625.55 Q1275.99 622.908 1280.35 622.908 Q1285.31 622.908 1288.21 626.855 Q1291.11 630.77 1291.11 637.645 Q1291.11 640.509 1290.53 643.629 Q1289.99 646.716 1288.88 650.153 L1282.83 650.153 Q1284.52 646.907 1285.38 643.756 Q1286.21 640.605 1286.21 637.517 Q1286.21 633.38 1284.81 631.152 Q1283.37 628.924 1280.79 628.924 Q1278.41 628.924 1277.13 630.547 Q1275.86 632.138 1274.68 637.581 L1274.21 639.618 Q1273.06 645.061 1270.71 647.48 Q1268.32 649.899 1264.18 649.899 Q1259.15 649.899 1256.41 646.334 Q1253.68 642.769 1253.68 636.213 Q1253.68 632.966 1254.15 630.101 Q1254.63 627.237 1255.59 624.818 Z" fill="#000000" fill-rule="nonzero" fill-opacity="1" /><path clip-path="url(#clip660)" d="M1240.72 614.505 L1240.72 609.413 Q1248.23 604.639 1255.43 602.283 Q1262.62 599.896 1269.72 599.896 Q1276.85 599.896 1284.07 602.283 Q1291.3 604.639 1298.78 609.413 L1298.78 614.505 Q1291.49 610.272 1284.3 608.203 Q1277.07 606.103 1269.72 606.103 Q1262.37 606.103 1255.2 608.203 Q1248.04 610.272 1240.72 614.505 Z" fill="#000000" fill-rule="nonzero" fill-opacity="1" /><polyline clip-path="url(#clip664)" style="stroke:#009af9; stroke-linecap:round; stroke-linejoin:round; stroke-width:4; stroke-opacity:1; fill:none" points="1471.57,844.252 1496.74,653.856 1521.9,574.227 1547.06,576.337 1572.22,626.583 1597.38,695.681 1622.55,763.19 1647.71,817.801 1672.87,855.338 1698.03,876.27 1723.2,883.625 1748.36,881.469 1773.52,873.856 1798.68,864.189 1823.85,854.909 1849.01,847.447 1874.17,842.371 1899.33,839.614 1924.49,838.74 1949.66,839.156 1974.82,840.283 1999.98,841.648 2025.14,842.922 2050.31,843.923 2075.47,844.587 2100.63,844.932 2125.79,845.025 2150.95,844.949 2176.12,844.784 2201.28,844.592 2226.44,844.418 2251.6,844.283 2276.77,844.197 2301.93,844.154 2327.09,844.144 "/>
<polyline clip-path="url(#clip664)" style="stroke:#e26f46; stroke-linecap:round; stroke-linejoin:round; stroke-width:3; stroke-opacity:1; fill:none" stroke-dasharray="12, 6, 2, 6" points="1471.57,844.252 1496.74,651.799 1521.9,569.435 1547.06,571.405 1572.22,615.477 1597.38,691.912 1622.55,773.499 1647.71,817.771 1672.87,876.033 1698.03,900.989 1723.2,900.858 1748.36,882.239 1773.52,877.809 1798.68,866.289 1823.85,860.912 1849.01,863.794 1874.17,843.996 1899.33,846.966 1924.49,845.201 1949.66,827.675 1974.82,841.061 1999.98,850.477 2025.14,838.695 2050.31,846.546 2075.47,856.13 2100.63,844.58 2125.79,835.185 2150.95,843.08 2176.12,844.7 2201.28,861.352 2226.44,835.531 2251.6,831.797 2276.77,841.374 2301.93,858.479 2327.09,822.467 "/>
<path clip-path="url(#clip660)" d="M2203.01 726.723 L2322.53 726.723 L2322.53 571.203 L2203.01 571.203  Z" fill="#ffffff" fill-rule="evenodd" fill-opacity="1"/>
<polyline clip-path="url(#clip660)" style="stroke:#000000; stroke-linecap:round; stroke-linejoin:round; stroke-width:4; stroke-opacity:1; fill:none" points="2203.01,726.723 2322.53,726.723 2322.53,571.203 2203.01,571.203 2203.01,726.723 "/>
<polyline clip-path="url(#clip660)" style="stroke:#009af9; stroke-linecap:round; stroke-linejoin:round; stroke-width:4; stroke-opacity:1; fill:none" points="2213.09,623.043 2273.55,623.043 "/>
<path clip-path="url(#clip660)" d="M2310.63 633.582 L2305.36 633.442 L2299.6 633.582 L2299.6 631.334 L2301.47 631.334 L2296.2 625.103 L2291.54 630.326 L2291.21 630.795 Q2291.21 631.006 2291.75 631.17 Q2292.31 631.334 2292.97 631.334 L2292.97 633.582 L2288.03 633.442 L2283.62 633.582 L2283.62 631.334 Q2285.1 631.334 2285.78 631.31 Q2286.48 631.263 2287.28 631.052 Q2288.07 630.842 2288.47 630.42 L2294.75 623.37 L2287.28 614.54 L2283.86 614.54 L2283.86 612.291 L2289.15 612.432 L2294.94 612.291 L2294.94 614.54 L2293.01 614.54 L2297.72 620.044 L2301.75 615.547 Q2301.77 615.523 2302.15 614.961 Q2301.4 614.54 2300.32 614.54 L2300.32 612.291 L2305.26 612.432 L2309.67 612.291 L2309.67 614.54 Q2307.75 614.54 2306.74 614.68 Q2305.76 614.797 2305.45 614.961 Q2305.17 615.125 2304.77 615.547 L2299.17 621.777 L2307.23 631.334 L2310.63 631.334 L2310.63 633.582 Z" fill="#000000" fill-rule="nonzero" fill-opacity="1" /><polyline clip-path="url(#clip660)" style="stroke:#e26f46; stroke-linecap:round; stroke-linejoin:round; stroke-width:3; stroke-opacity:1; fill:none" stroke-dasharray="12, 6, 2, 6" points="2213.09,674.883 2273.55,674.883 "/>
<path clip-path="url(#clip660)" d="M2306.21 663.361 L2305.8 664.033 Q2303.26 662.935 2300.09 661.18 Q2296.93 662.935 2294.39 664.033 L2293.99 663.361 Q2296.76 660.951 2300.09 659.098 Q2303.45 660.967 2306.21 663.361 Z" fill="#000000" fill-rule="nonzero" fill-opacity="1" /><path clip-path="url(#clip660)" d="M2310.63 690.427 L2305.36 690.286 L2299.6 690.427 L2299.6 688.178 L2301.47 688.178 L2296.2 681.948 L2291.54 687.171 L2291.21 687.639 Q2291.21 687.85 2291.75 688.014 Q2292.31 688.178 2292.97 688.178 L2292.97 690.427 L2288.03 690.286 L2283.62 690.427 L2283.62 688.178 Q2285.1 688.178 2285.78 688.155 Q2286.48 688.108 2287.28 687.897 Q2288.07 687.686 2288.47 687.265 L2294.75 680.214 L2287.28 671.384 L2283.86 671.384 L2283.86 669.136 L2289.15 669.276 L2294.94 669.136 L2294.94 671.384 L2293.01 671.384 L2297.72 676.888 L2301.75 672.391 Q2301.77 672.368 2302.15 671.806 Q2301.4 671.384 2300.32 671.384 L2300.32 669.136 L2305.26 669.276 L2309.67 669.136 L2309.67 671.384 Q2307.75 671.384 2306.74 671.525 Q2305.76 671.642 2305.45 671.806 Q2305.17 671.97 2304.77 672.391 L2299.17 678.622 L2307.23 688.178 L2310.63 688.178 L2310.63 690.427 Z" fill="#000000" fill-rule="nonzero" fill-opacity="1" /><path clip-path="url(#clip660)" d="M1445.91 1423.18 L2352.76 1423.18 L2352.76 1071.73 L1445.91 1071.73  Z" fill="#ffffff" fill-rule="evenodd" fill-opacity="1"/>
<defs>
  <clipPath id="clip665">
    <rect x="1445" y="1071" width="908" height="352"/>
  </clipPath>
</defs>
<polyline clip-path="url(#clip665)" style="stroke:#000000; stroke-linecap:round; stroke-linejoin:round; stroke-width:2; stroke-opacity:0.1; fill:none" points="1471.57,1423.18 1471.57,1071.73 "/>
<polyline clip-path="url(#clip665)" style="stroke:#000000; stroke-linecap:round; stroke-linejoin:round; stroke-width:2; stroke-opacity:0.1; fill:none" points="1723.2,1423.18 1723.2,1071.73 "/>
<polyline clip-path="url(#clip665)" style="stroke:#000000; stroke-linecap:round; stroke-linejoin:round; stroke-width:2; stroke-opacity:0.1; fill:none" points="1974.82,1423.18 1974.82,1071.73 "/>
<polyline clip-path="url(#clip665)" style="stroke:#000000; stroke-linecap:round; stroke-linejoin:round; stroke-width:2; stroke-opacity:0.1; fill:none" points="2226.44,1423.18 2226.44,1071.73 "/>
<polyline clip-path="url(#clip665)" style="stroke:#000000; stroke-linecap:round; stroke-linejoin:round; stroke-width:2; stroke-opacity:0.1; fill:none" points="1445.91,1419.74 2352.76,1419.74 "/>
<polyline clip-path="url(#clip665)" style="stroke:#000000; stroke-linecap:round; stroke-linejoin:round; stroke-width:2; stroke-opacity:0.1; fill:none" points="1445.91,1359.81 2352.76,1359.81 "/>
<polyline clip-path="url(#clip665)" style="stroke:#000000; stroke-linecap:round; stroke-linejoin:round; stroke-width:2; stroke-opacity:0.1; fill:none" points="1445.91,1299.87 2352.76,1299.87 "/>
<polyline clip-path="url(#clip665)" style="stroke:#000000; stroke-linecap:round; stroke-linejoin:round; stroke-width:2; stroke-opacity:0.1; fill:none" points="1445.91,1239.94 2352.76,1239.94 "/>
<polyline clip-path="url(#clip665)" style="stroke:#000000; stroke-linecap:round; stroke-linejoin:round; stroke-width:2; stroke-opacity:0.1; fill:none" points="1445.91,1180.01 2352.76,1180.01 "/>
<polyline clip-path="url(#clip665)" style="stroke:#000000; stroke-linecap:round; stroke-linejoin:round; stroke-width:2; stroke-opacity:0.1; fill:none" points="1445.91,1120.07 2352.76,1120.07 "/>
<polyline clip-path="url(#clip660)" style="stroke:#000000; stroke-linecap:round; stroke-linejoin:round; stroke-width:4; stroke-opacity:1; fill:none" points="1445.91,1423.18 2352.76,1423.18 "/>
<polyline clip-path="url(#clip660)" style="stroke:#000000; stroke-linecap:round; stroke-linejoin:round; stroke-width:4; stroke-opacity:1; fill:none" points="1471.57,1423.18 1471.57,1404.28 "/>
<polyline clip-path="url(#clip660)" style="stroke:#000000; stroke-linecap:round; stroke-linejoin:round; stroke-width:4; stroke-opacity:1; fill:none" points="1723.2,1423.18 1723.2,1404.28 "/>
<polyline clip-path="url(#clip660)" style="stroke:#000000; stroke-linecap:round; stroke-linejoin:round; stroke-width:4; stroke-opacity:1; fill:none" points="1974.82,1423.18 1974.82,1404.28 "/>
<polyline clip-path="url(#clip660)" style="stroke:#000000; stroke-linecap:round; stroke-linejoin:round; stroke-width:4; stroke-opacity:1; fill:none" points="2226.44,1423.18 2226.44,1404.28 "/>
<path clip-path="url(#clip660)" d="M1471.57 1454.1 Q1467.96 1454.1 1466.13 1457.66 Q1464.33 1461.2 1464.33 1468.33 Q1464.33 1475.44 1466.13 1479.01 Q1467.96 1482.55 1471.57 1482.55 Q1475.21 1482.55 1477.01 1479.01 Q1478.84 1475.44 1478.84 1468.33 Q1478.84 1461.2 1477.01 1457.66 Q1475.21 1454.1 1471.57 1454.1 M1471.57 1450.39 Q1477.38 1450.39 1480.44 1455 Q1483.52 1459.58 1483.52 1468.33 Q1483.52 1477.06 1480.44 1481.67 Q1477.38 1486.25 1471.57 1486.25 Q1465.76 1486.25 1462.68 1481.67 Q1459.63 1477.06 1459.63 1468.33 Q1459.63 1459.58 1462.68 1455 Q1465.76 1450.39 1471.57 1450.39 Z" fill="#000000" fill-rule="nonzero" fill-opacity="1" /><path clip-path="url(#clip660)" d="M1713.58 1481.64 L1721.22 1481.64 L1721.22 1455.28 L1712.91 1456.95 L1712.91 1452.69 L1721.17 1451.02 L1725.85 1451.02 L1725.85 1481.64 L1733.49 1481.64 L1733.49 1485.58 L1713.58 1485.58 L1713.58 1481.64 Z" fill="#000000" fill-rule="nonzero" fill-opacity="1" /><path clip-path="url(#clip660)" d="M1969.47 1481.64 L1985.79 1481.64 L1985.79 1485.58 L1963.85 1485.58 L1963.85 1481.64 Q1966.51 1478.89 1971.09 1474.26 Q1975.7 1469.61 1976.88 1468.27 Q1979.12 1465.74 1980 1464.01 Q1980.91 1462.25 1980.91 1460.56 Q1980.91 1457.8 1978.96 1456.07 Q1977.04 1454.33 1973.94 1454.33 Q1971.74 1454.33 1969.29 1455.09 Q1966.86 1455.86 1964.08 1457.41 L1964.08 1452.69 Q1966.9 1451.55 1969.36 1450.97 Q1971.81 1450.39 1973.85 1450.39 Q1979.22 1450.39 1982.41 1453.08 Q1985.61 1455.77 1985.61 1460.26 Q1985.61 1462.39 1984.8 1464.31 Q1984.01 1466.2 1981.9 1468.8 Q1981.32 1469.47 1978.22 1472.69 Q1975.12 1475.88 1969.47 1481.64 Z" fill="#000000" fill-rule="nonzero" fill-opacity="1" /><path clip-path="url(#clip660)" d="M2230.69 1466.95 Q2234.05 1467.66 2235.92 1469.93 Q2237.82 1472.2 2237.82 1475.53 Q2237.82 1480.65 2234.3 1483.45 Q2230.78 1486.25 2224.3 1486.25 Q2222.12 1486.25 2219.81 1485.81 Q2217.52 1485.39 2215.06 1484.54 L2215.06 1480.02 Q2217.01 1481.16 2219.32 1481.74 Q2221.64 1482.32 2224.16 1482.32 Q2228.56 1482.32 2230.85 1480.58 Q2233.17 1478.84 2233.17 1475.53 Q2233.17 1472.48 2231.01 1470.77 Q2228.88 1469.03 2225.06 1469.03 L2221.04 1469.03 L2221.04 1465.19 L2225.25 1465.19 Q2228.7 1465.19 2230.53 1463.82 Q2232.36 1462.43 2232.36 1459.84 Q2232.36 1457.18 2230.46 1455.77 Q2228.58 1454.33 2225.06 1454.33 Q2223.14 1454.33 2220.94 1454.75 Q2218.74 1455.16 2216.11 1456.04 L2216.11 1451.88 Q2218.77 1451.14 2221.08 1450.77 Q2223.42 1450.39 2225.48 1450.39 Q2230.8 1450.39 2233.91 1452.83 Q2237.01 1455.23 2237.01 1459.35 Q2237.01 1462.22 2235.36 1464.21 Q2233.72 1466.18 2230.69 1466.95 Z" fill="#000000" fill-rule="nonzero" fill-opacity="1" /><path clip-path="url(#clip660)" d="M1769.5 1520.52 L1809.7 1520.52 L1809.7 1525.93 L1792.83 1525.93 L1792.83 1568.04 L1786.37 1568.04 L1786.37 1525.93 L1769.5 1525.93 L1769.5 1520.52 Z" fill="#000000" fill-rule="nonzero" fill-opacity="1" /><path clip-path="url(#clip660)" d="M1813.65 1532.4 L1819.51 1532.4 L1819.51 1568.04 L1813.65 1568.04 L1813.65 1532.4 M1813.65 1518.52 L1819.51 1518.52 L1819.51 1525.93 L1813.65 1525.93 L1813.65 1518.52 Z" fill="#000000" fill-rule="nonzero" fill-opacity="1" /><path clip-path="url(#clip660)" d="M1859.51 1539.24 Q1861.71 1535.29 1864.77 1533.41 Q1867.82 1531.54 1871.96 1531.54 Q1877.53 1531.54 1880.55 1535.45 Q1883.58 1539.33 1883.58 1546.53 L1883.58 1568.04 L1877.69 1568.04 L1877.69 1546.72 Q1877.69 1541.59 1875.87 1539.11 Q1874.06 1536.63 1870.34 1536.63 Q1865.78 1536.63 1863.14 1539.65 Q1860.5 1542.68 1860.5 1547.9 L1860.5 1568.04 L1854.61 1568.04 L1854.61 1546.72 Q1854.61 1541.56 1852.8 1539.11 Q1850.98 1536.63 1847.2 1536.63 Q1842.71 1536.63 1840.07 1539.68 Q1837.43 1542.71 1837.43 1547.9 L1837.43 1568.04 L1831.54 1568.04 L1831.54 1532.4 L1837.43 1532.4 L1837.43 1537.93 Q1839.43 1534.66 1842.23 1533.1 Q1845.03 1531.54 1848.88 1531.54 Q1852.77 1531.54 1855.47 1533.51 Q1858.21 1535.48 1859.51 1539.24 Z" fill="#000000" fill-rule="nonzero" fill-opacity="1" /><path clip-path="url(#clip660)" d="M1925.75 1548.76 L1925.75 1551.62 L1898.82 1551.62 Q1899.2 1557.67 1902.45 1560.85 Q1905.73 1564 1911.55 1564 Q1914.93 1564 1918.08 1563.17 Q1921.26 1562.35 1924.38 1560.69 L1924.38 1566.23 Q1921.23 1567.57 1917.92 1568.27 Q1914.61 1568.97 1911.2 1568.97 Q1902.67 1568.97 1897.68 1564 Q1892.71 1559.04 1892.71 1550.57 Q1892.71 1541.82 1897.42 1536.69 Q1902.16 1531.54 1910.19 1531.54 Q1917.38 1531.54 1921.55 1536.18 Q1925.75 1540.8 1925.75 1548.76 M1919.89 1547.04 Q1919.83 1542.23 1917.19 1539.37 Q1914.58 1536.5 1910.25 1536.5 Q1905.35 1536.5 1902.39 1539.27 Q1899.46 1542.04 1899.01 1547.07 L1919.89 1547.04 Z" fill="#000000" fill-rule="nonzero" fill-opacity="1" /><path clip-path="url(#clip660)" d="M1970.15 1518.58 Q1965.89 1525.9 1963.82 1533.06 Q1961.75 1540.23 1961.75 1547.58 Q1961.75 1554.93 1963.82 1562.16 Q1965.92 1569.35 1970.15 1576.64 L1965.06 1576.64 Q1960.28 1569.16 1957.9 1561.93 Q1955.54 1554.71 1955.54 1547.58 Q1955.54 1540.48 1957.9 1533.29 Q1960.25 1526.09 1965.06 1518.58 L1970.15 1518.58 Z" fill="#000000" fill-rule="nonzero" fill-opacity="1" /><path clip-path="url(#clip660)" d="M2004.24 1533.45 L2004.24 1538.98 Q2001.76 1537.71 1999.08 1537.07 Q1996.41 1536.44 1993.54 1536.44 Q1989.18 1536.44 1986.99 1537.77 Q1984.82 1539.11 1984.82 1541.79 Q1984.82 1543.82 1986.38 1545 Q1987.94 1546.15 1992.65 1547.2 L1994.66 1547.64 Q2000.9 1548.98 2003.51 1551.43 Q2006.15 1553.85 2006.15 1558.21 Q2006.15 1563.17 2002.2 1566.07 Q1998.29 1568.97 1991.41 1568.97 Q1988.55 1568.97 1985.43 1568.39 Q1982.34 1567.85 1978.9 1566.74 L1978.9 1560.69 Q1982.15 1562.38 1985.3 1563.24 Q1988.45 1564.07 1991.54 1564.07 Q1995.68 1564.07 1997.9 1562.66 Q2000.13 1561.23 2000.13 1558.65 Q2000.13 1556.27 1998.51 1554.99 Q1996.92 1553.72 1991.48 1552.54 L1989.44 1552.07 Q1984 1550.92 1981.58 1548.56 Q1979.16 1546.18 1979.16 1542.04 Q1979.16 1537.01 1982.72 1534.27 Q1986.29 1531.54 1992.84 1531.54 Q1996.09 1531.54 1998.96 1532.01 Q2001.82 1532.49 2004.24 1533.45 Z" fill="#000000" fill-rule="nonzero" fill-opacity="1" /><path clip-path="url(#clip660)" d="M2014.55 1518.58 L2019.64 1518.58 Q2024.42 1526.09 2026.77 1533.29 Q2029.16 1540.48 2029.16 1547.58 Q2029.16 1554.71 2026.77 1561.93 Q2024.42 1569.16 2019.64 1576.64 L2014.55 1576.64 Q2018.78 1569.35 2020.85 1562.16 Q2022.95 1554.93 2022.95 1547.58 Q2022.95 1540.23 2020.85 1533.06 Q2018.78 1525.9 2014.55 1518.58 Z" fill="#000000" fill-rule="nonzero" fill-opacity="1" /><polyline clip-path="url(#clip660)" style="stroke:#000000; stroke-linecap:round; stroke-linejoin:round; stroke-width:4; stroke-opacity:1; fill:none" points="1445.91,1423.18 1445.91,1071.73 "/>
<polyline clip-path="url(#clip660)" style="stroke:#000000; stroke-linecap:round; stroke-linejoin:round; stroke-width:4; stroke-opacity:1; fill:none" points="1445.91,1419.74 1464.81,1419.74 "/>
<polyline clip-path="url(#clip660)" style="stroke:#000000; stroke-linecap:round; stroke-linejoin:round; stroke-width:4; stroke-opacity:1; fill:none" points="1445.91,1359.81 1464.81,1359.81 "/>
<polyline clip-path="url(#clip660)" style="stroke:#000000; stroke-linecap:round; stroke-linejoin:round; stroke-width:4; stroke-opacity:1; fill:none" points="1445.91,1299.87 1464.81,1299.87 "/>
<polyline clip-path="url(#clip660)" style="stroke:#000000; stroke-linecap:round; stroke-linejoin:round; stroke-width:4; stroke-opacity:1; fill:none" points="1445.91,1239.94 1464.81,1239.94 "/>
<polyline clip-path="url(#clip660)" style="stroke:#000000; stroke-linecap:round; stroke-linejoin:round; stroke-width:4; stroke-opacity:1; fill:none" points="1445.91,1180.01 1464.81,1180.01 "/>
<polyline clip-path="url(#clip660)" style="stroke:#000000; stroke-linecap:round; stroke-linejoin:round; stroke-width:4; stroke-opacity:1; fill:none" points="1445.91,1120.07 1464.81,1120.07 "/>
<path clip-path="url(#clip660)" d="M1273.8 1420.19 L1303.47 1420.19 L1303.47 1424.13 L1273.8 1424.13 L1273.8 1420.19 Z" fill="#000000" fill-rule="nonzero" fill-opacity="1" /><path clip-path="url(#clip660)" d="M1323.57 1405.54 Q1319.95 1405.54 1318.13 1409.1 Q1316.32 1412.65 1316.32 1419.78 Q1316.32 1426.88 1318.13 1430.45 Q1319.95 1433.99 1323.57 1433.99 Q1327.2 1433.99 1329.01 1430.45 Q1330.83 1426.88 1330.83 1419.78 Q1330.83 1412.65 1329.01 1409.1 Q1327.2 1405.54 1323.57 1405.54 M1323.57 1401.84 Q1329.38 1401.84 1332.43 1406.44 Q1335.51 1411.03 1335.51 1419.78 Q1335.51 1428.5 1332.43 1433.11 Q1329.38 1437.69 1323.57 1437.69 Q1317.76 1437.69 1314.68 1433.11 Q1311.62 1428.5 1311.62 1419.78 Q1311.62 1411.03 1314.68 1406.44 Q1317.76 1401.84 1323.57 1401.84 Z" fill="#000000" fill-rule="nonzero" fill-opacity="1" /><path clip-path="url(#clip660)" d="M1343.73 1431.14 L1348.61 1431.14 L1348.61 1437.02 L1343.73 1437.02 L1343.73 1431.14 Z" fill="#000000" fill-rule="nonzero" fill-opacity="1" /><path clip-path="url(#clip660)" d="M1368.8 1405.54 Q1365.19 1405.54 1363.36 1409.1 Q1361.55 1412.65 1361.55 1419.78 Q1361.55 1426.88 1363.36 1430.45 Q1365.19 1433.99 1368.8 1433.99 Q1372.43 1433.99 1374.24 1430.45 Q1376.07 1426.88 1376.07 1419.78 Q1376.07 1412.65 1374.24 1409.1 Q1372.43 1405.54 1368.8 1405.54 M1368.8 1401.84 Q1374.61 1401.84 1377.66 1406.44 Q1380.74 1411.03 1380.74 1419.78 Q1380.74 1428.5 1377.66 1433.11 Q1374.61 1437.69 1368.8 1437.69 Q1362.99 1437.69 1359.91 1433.11 Q1356.85 1428.5 1356.85 1419.78 Q1356.85 1411.03 1359.91 1406.44 Q1362.99 1401.84 1368.8 1401.84 Z" fill="#000000" fill-rule="nonzero" fill-opacity="1" /><path clip-path="url(#clip660)" d="M1389.01 1402.46 L1407.36 1402.46 L1407.36 1406.4 L1393.29 1406.4 L1393.29 1414.87 Q1394.31 1414.52 1395.32 1414.36 Q1396.34 1414.17 1397.36 1414.17 Q1403.15 1414.17 1406.53 1417.35 Q1409.91 1420.52 1409.91 1425.93 Q1409.91 1431.51 1406.44 1434.61 Q1402.96 1437.69 1396.64 1437.69 Q1394.47 1437.69 1392.2 1437.32 Q1389.95 1436.95 1387.55 1436.21 L1387.55 1431.51 Q1389.63 1432.65 1391.85 1433.2 Q1394.07 1433.76 1396.55 1433.76 Q1400.56 1433.76 1402.89 1431.65 Q1405.23 1429.54 1405.23 1425.93 Q1405.23 1422.32 1402.89 1420.22 Q1400.56 1418.11 1396.55 1418.11 Q1394.68 1418.11 1392.8 1418.53 Q1390.95 1418.94 1389.01 1419.82 L1389.01 1402.46 Z" fill="#000000" fill-rule="nonzero" fill-opacity="1" /><path clip-path="url(#clip660)" d="M1272.32 1360.26 L1301.99 1360.26 L1301.99 1364.19 L1272.32 1364.19 L1272.32 1360.26 Z" fill="#000000" fill-rule="nonzero" fill-opacity="1" /><path clip-path="url(#clip660)" d="M1322.08 1345.61 Q1318.47 1345.61 1316.64 1349.17 Q1314.84 1352.71 1314.84 1359.84 Q1314.84 1366.95 1316.64 1370.51 Q1318.47 1374.06 1322.08 1374.06 Q1325.72 1374.06 1327.52 1370.51 Q1329.35 1366.95 1329.35 1359.84 Q1329.35 1352.71 1327.52 1349.17 Q1325.72 1345.61 1322.08 1345.61 M1322.08 1341.9 Q1327.89 1341.9 1330.95 1346.51 Q1334.03 1351.09 1334.03 1359.84 Q1334.03 1368.57 1330.95 1373.18 Q1327.89 1377.76 1322.08 1377.76 Q1316.27 1377.76 1313.2 1373.18 Q1310.14 1368.57 1310.14 1359.84 Q1310.14 1351.09 1313.2 1346.51 Q1316.27 1341.9 1322.08 1341.9 Z" fill="#000000" fill-rule="nonzero" fill-opacity="1" /><path clip-path="url(#clip660)" d="M1342.25 1371.21 L1347.13 1371.21 L1347.13 1377.09 L1342.25 1377.09 L1342.25 1371.21 Z" fill="#000000" fill-rule="nonzero" fill-opacity="1" /><path clip-path="url(#clip660)" d="M1367.32 1345.61 Q1363.7 1345.61 1361.88 1349.17 Q1360.07 1352.71 1360.07 1359.84 Q1360.07 1366.95 1361.88 1370.51 Q1363.7 1374.06 1367.32 1374.06 Q1370.95 1374.06 1372.76 1370.51 Q1374.58 1366.95 1374.58 1359.84 Q1374.58 1352.71 1372.76 1349.17 Q1370.95 1345.61 1367.32 1345.61 M1367.32 1341.9 Q1373.13 1341.9 1376.18 1346.51 Q1379.26 1351.09 1379.26 1359.84 Q1379.26 1368.57 1376.18 1373.18 Q1373.13 1377.76 1367.32 1377.76 Q1361.51 1377.76 1358.43 1373.18 Q1355.37 1368.57 1355.37 1359.84 Q1355.37 1351.09 1358.43 1346.51 Q1361.51 1341.9 1367.32 1341.9 Z" fill="#000000" fill-rule="nonzero" fill-opacity="1" /><path clip-path="url(#clip660)" d="M1400.32 1346.6 L1388.52 1365.05 L1400.32 1365.05 L1400.32 1346.6 M1399.1 1342.53 L1404.98 1342.53 L1404.98 1365.05 L1409.91 1365.05 L1409.91 1368.94 L1404.98 1368.94 L1404.98 1377.09 L1400.32 1377.09 L1400.32 1368.94 L1384.72 1368.94 L1384.72 1364.43 L1399.1 1342.53 Z" fill="#000000" fill-rule="nonzero" fill-opacity="1" /><path clip-path="url(#clip660)" d="M1273.45 1300.33 L1303.13 1300.33 L1303.13 1304.26 L1273.45 1304.26 L1273.45 1300.33 Z" fill="#000000" fill-rule="nonzero" fill-opacity="1" /><path clip-path="url(#clip660)" d="M1323.22 1285.67 Q1319.61 1285.67 1317.78 1289.24 Q1315.97 1292.78 1315.97 1299.91 Q1315.97 1307.02 1317.78 1310.58 Q1319.61 1314.12 1323.22 1314.12 Q1326.85 1314.12 1328.66 1310.58 Q1330.49 1307.02 1330.49 1299.91 Q1330.49 1292.78 1328.66 1289.24 Q1326.85 1285.67 1323.22 1285.67 M1323.22 1281.97 Q1329.03 1281.97 1332.08 1286.58 Q1335.16 1291.16 1335.16 1299.91 Q1335.16 1308.64 1332.08 1313.24 Q1329.03 1317.83 1323.22 1317.83 Q1317.41 1317.83 1314.33 1313.24 Q1311.27 1308.64 1311.27 1299.91 Q1311.27 1291.16 1314.33 1286.58 Q1317.41 1281.97 1323.22 1281.97 Z" fill="#000000" fill-rule="nonzero" fill-opacity="1" /><path clip-path="url(#clip660)" d="M1343.38 1311.27 L1348.26 1311.27 L1348.26 1317.15 L1343.38 1317.15 L1343.38 1311.27 Z" fill="#000000" fill-rule="nonzero" fill-opacity="1" /><path clip-path="url(#clip660)" d="M1368.45 1285.67 Q1364.84 1285.67 1363.01 1289.24 Q1361.2 1292.78 1361.2 1299.91 Q1361.2 1307.02 1363.01 1310.58 Q1364.84 1314.12 1368.45 1314.12 Q1372.08 1314.12 1373.89 1310.58 Q1375.72 1307.02 1375.72 1299.91 Q1375.72 1292.78 1373.89 1289.24 Q1372.08 1285.67 1368.45 1285.67 M1368.45 1281.97 Q1374.26 1281.97 1377.32 1286.58 Q1380.39 1291.16 1380.39 1299.91 Q1380.39 1308.64 1377.32 1313.24 Q1374.26 1317.83 1368.45 1317.83 Q1362.64 1317.83 1359.56 1313.24 Q1356.51 1308.64 1356.51 1299.91 Q1356.51 1291.16 1359.56 1286.58 Q1362.64 1281.97 1368.45 1281.97 Z" fill="#000000" fill-rule="nonzero" fill-opacity="1" /><path clip-path="url(#clip660)" d="M1402.78 1298.52 Q1406.13 1299.24 1408.01 1301.51 Q1409.91 1303.77 1409.91 1307.11 Q1409.91 1312.22 1406.39 1315.02 Q1402.87 1317.83 1396.39 1317.83 Q1394.21 1317.83 1391.9 1317.39 Q1389.61 1316.97 1387.15 1316.11 L1387.15 1311.6 Q1389.1 1312.73 1391.41 1313.31 Q1393.73 1313.89 1396.25 1313.89 Q1400.65 1313.89 1402.94 1312.15 Q1405.26 1310.42 1405.26 1307.11 Q1405.26 1304.05 1403.1 1302.34 Q1400.97 1300.6 1397.15 1300.6 L1393.13 1300.6 L1393.13 1296.76 L1397.34 1296.76 Q1400.79 1296.76 1402.62 1295.4 Q1404.44 1294.01 1404.44 1291.41 Q1404.44 1288.75 1402.55 1287.34 Q1400.67 1285.9 1397.15 1285.9 Q1395.23 1285.9 1393.03 1286.32 Q1390.83 1286.74 1388.19 1287.62 L1388.19 1283.45 Q1390.86 1282.71 1393.17 1282.34 Q1395.51 1281.97 1397.57 1281.97 Q1402.89 1281.97 1406 1284.4 Q1409.1 1286.81 1409.1 1290.93 Q1409.1 1293.8 1407.45 1295.79 Q1405.81 1297.76 1402.78 1298.52 Z" fill="#000000" fill-rule="nonzero" fill-opacity="1" /><path clip-path="url(#clip660)" d="M1274.4 1240.39 L1304.08 1240.39 L1304.08 1244.33 L1274.4 1244.33 L1274.4 1240.39 Z" fill="#000000" fill-rule="nonzero" fill-opacity="1" /><path clip-path="url(#clip660)" d="M1324.17 1225.74 Q1320.56 1225.74 1318.73 1229.3 Q1316.92 1232.85 1316.92 1239.98 Q1316.92 1247.08 1318.73 1250.65 Q1320.56 1254.19 1324.17 1254.19 Q1327.8 1254.19 1329.61 1250.65 Q1331.44 1247.08 1331.44 1239.98 Q1331.44 1232.85 1329.61 1229.3 Q1327.8 1225.74 1324.17 1225.74 M1324.17 1222.04 Q1329.98 1222.04 1333.03 1226.64 Q1336.11 1231.23 1336.11 1239.98 Q1336.11 1248.7 1333.03 1253.31 Q1329.98 1257.89 1324.17 1257.89 Q1318.36 1257.89 1315.28 1253.31 Q1312.22 1248.7 1312.22 1239.98 Q1312.22 1231.23 1315.28 1226.64 Q1318.36 1222.04 1324.17 1222.04 Z" fill="#000000" fill-rule="nonzero" fill-opacity="1" /><path clip-path="url(#clip660)" d="M1344.33 1251.34 L1349.21 1251.34 L1349.21 1257.22 L1344.33 1257.22 L1344.33 1251.34 Z" fill="#000000" fill-rule="nonzero" fill-opacity="1" /><path clip-path="url(#clip660)" d="M1369.4 1225.74 Q1365.79 1225.74 1363.96 1229.3 Q1362.15 1232.85 1362.15 1239.98 Q1362.15 1247.08 1363.96 1250.65 Q1365.79 1254.19 1369.4 1254.19 Q1373.03 1254.19 1374.84 1250.65 Q1376.67 1247.08 1376.67 1239.98 Q1376.67 1232.85 1374.84 1229.3 Q1373.03 1225.74 1369.4 1225.74 M1369.4 1222.04 Q1375.21 1222.04 1378.26 1226.64 Q1381.34 1231.23 1381.34 1239.98 Q1381.34 1248.7 1378.26 1253.31 Q1375.21 1257.89 1369.4 1257.89 Q1363.59 1257.89 1360.51 1253.31 Q1357.45 1248.7 1357.45 1239.98 Q1357.45 1231.23 1360.51 1226.64 Q1363.59 1222.04 1369.4 1222.04 Z" fill="#000000" fill-rule="nonzero" fill-opacity="1" /><path clip-path="url(#clip660)" d="M1393.59 1253.29 L1409.91 1253.29 L1409.91 1257.22 L1387.96 1257.22 L1387.96 1253.29 Q1390.63 1250.53 1395.21 1245.9 Q1399.82 1241.25 1401 1239.91 Q1403.24 1237.38 1404.12 1235.65 Q1405.02 1233.89 1405.02 1232.2 Q1405.02 1229.44 1403.08 1227.71 Q1401.16 1225.97 1398.06 1225.97 Q1395.86 1225.97 1393.4 1226.73 Q1390.97 1227.5 1388.19 1229.05 L1388.19 1224.33 Q1391.02 1223.19 1393.47 1222.61 Q1395.93 1222.04 1397.96 1222.04 Q1403.33 1222.04 1406.53 1224.72 Q1409.72 1227.41 1409.72 1231.9 Q1409.72 1234.03 1408.91 1235.95 Q1408.13 1237.85 1406.02 1240.44 Q1405.44 1241.11 1402.34 1244.33 Q1399.24 1247.52 1393.59 1253.29 Z" fill="#000000" fill-rule="nonzero" fill-opacity="1" /><path clip-path="url(#clip660)" d="M1274.03 1180.46 L1303.7 1180.46 L1303.7 1184.39 L1274.03 1184.39 L1274.03 1180.46 Z" fill="#000000" fill-rule="nonzero" fill-opacity="1" /><path clip-path="url(#clip660)" d="M1323.8 1165.81 Q1320.19 1165.81 1318.36 1169.37 Q1316.55 1172.91 1316.55 1180.04 Q1316.55 1187.15 1318.36 1190.71 Q1320.19 1194.26 1323.8 1194.26 Q1327.43 1194.26 1329.24 1190.71 Q1331.07 1187.15 1331.07 1180.04 Q1331.07 1172.91 1329.24 1169.37 Q1327.43 1165.81 1323.8 1165.81 M1323.8 1162.1 Q1329.61 1162.1 1332.66 1166.71 Q1335.74 1171.29 1335.74 1180.04 Q1335.74 1188.77 1332.66 1193.38 Q1329.61 1197.96 1323.8 1197.96 Q1317.99 1197.96 1314.91 1193.38 Q1311.85 1188.77 1311.85 1180.04 Q1311.85 1171.29 1314.91 1166.71 Q1317.99 1162.1 1323.8 1162.1 Z" fill="#000000" fill-rule="nonzero" fill-opacity="1" /><path clip-path="url(#clip660)" d="M1343.96 1191.41 L1348.84 1191.41 L1348.84 1197.29 L1343.96 1197.29 L1343.96 1191.41 Z" fill="#000000" fill-rule="nonzero" fill-opacity="1" /><path clip-path="url(#clip660)" d="M1369.03 1165.81 Q1365.42 1165.81 1363.59 1169.37 Q1361.78 1172.91 1361.78 1180.04 Q1361.78 1187.15 1363.59 1190.71 Q1365.42 1194.26 1369.03 1194.26 Q1372.66 1194.26 1374.47 1190.71 Q1376.3 1187.15 1376.3 1180.04 Q1376.3 1172.91 1374.47 1169.37 Q1372.66 1165.81 1369.03 1165.81 M1369.03 1162.1 Q1374.84 1162.1 1377.89 1166.71 Q1380.97 1171.29 1380.97 1180.04 Q1380.97 1188.77 1377.89 1193.38 Q1374.84 1197.96 1369.03 1197.96 Q1363.22 1197.96 1360.14 1193.38 Q1357.08 1188.77 1357.08 1180.04 Q1357.08 1171.29 1360.14 1166.71 Q1363.22 1162.1 1369.03 1162.1 Z" fill="#000000" fill-rule="nonzero" fill-opacity="1" /><path clip-path="url(#clip660)" d="M1390 1193.35 L1397.64 1193.35 L1397.64 1166.99 L1389.33 1168.65 L1389.33 1164.39 L1397.59 1162.73 L1402.27 1162.73 L1402.27 1193.35 L1409.91 1193.35 L1409.91 1197.29 L1390 1197.29 L1390 1193.35 Z" fill="#000000" fill-rule="nonzero" fill-opacity="1" /><path clip-path="url(#clip660)" d="M1322.57 1105.87 Q1318.96 1105.87 1317.13 1109.44 Q1315.32 1112.98 1315.32 1120.11 Q1315.32 1127.22 1317.13 1130.78 Q1318.96 1134.32 1322.57 1134.32 Q1326.2 1134.32 1328.01 1130.78 Q1329.84 1127.22 1329.84 1120.11 Q1329.84 1112.98 1328.01 1109.44 Q1326.2 1105.87 1322.57 1105.87 M1322.57 1102.17 Q1328.38 1102.17 1331.44 1106.78 Q1334.51 1111.36 1334.51 1120.11 Q1334.51 1128.84 1331.44 1133.44 Q1328.38 1138.03 1322.57 1138.03 Q1316.76 1138.03 1313.68 1133.44 Q1310.63 1128.84 1310.63 1120.11 Q1310.63 1111.36 1313.68 1106.78 Q1316.76 1102.17 1322.57 1102.17 Z" fill="#000000" fill-rule="nonzero" fill-opacity="1" /><path clip-path="url(#clip660)" d="M1342.73 1131.47 L1347.62 1131.47 L1347.62 1137.35 L1342.73 1137.35 L1342.73 1131.47 Z" fill="#000000" fill-rule="nonzero" fill-opacity="1" /><path clip-path="url(#clip660)" d="M1367.8 1105.87 Q1364.19 1105.87 1362.36 1109.44 Q1360.56 1112.98 1360.56 1120.11 Q1360.56 1127.22 1362.36 1130.78 Q1364.19 1134.32 1367.8 1134.32 Q1371.44 1134.32 1373.24 1130.78 Q1375.07 1127.22 1375.07 1120.11 Q1375.07 1112.98 1373.24 1109.44 Q1371.44 1105.87 1367.8 1105.87 M1367.8 1102.17 Q1373.61 1102.17 1376.67 1106.78 Q1379.75 1111.36 1379.75 1120.11 Q1379.75 1128.84 1376.67 1133.44 Q1373.61 1138.03 1367.8 1138.03 Q1361.99 1138.03 1358.91 1133.44 Q1355.86 1128.84 1355.86 1120.11 Q1355.86 1111.36 1358.91 1106.78 Q1361.99 1102.17 1367.8 1102.17 Z" fill="#000000" fill-rule="nonzero" fill-opacity="1" /><path clip-path="url(#clip660)" d="M1397.96 1105.87 Q1394.35 1105.87 1392.52 1109.44 Q1390.72 1112.98 1390.72 1120.11 Q1390.72 1127.22 1392.52 1130.78 Q1394.35 1134.32 1397.96 1134.32 Q1401.6 1134.32 1403.4 1130.78 Q1405.23 1127.22 1405.23 1120.11 Q1405.23 1112.98 1403.4 1109.44 Q1401.6 1105.87 1397.96 1105.87 M1397.96 1102.17 Q1403.77 1102.17 1406.83 1106.78 Q1409.91 1111.36 1409.91 1120.11 Q1409.91 1128.84 1406.83 1133.44 Q1403.77 1138.03 1397.96 1138.03 Q1392.15 1138.03 1389.07 1133.44 Q1386.02 1128.84 1386.02 1120.11 Q1386.02 1111.36 1389.07 1106.78 Q1392.15 1102.17 1397.96 1102.17 Z" fill="#000000" fill-rule="nonzero" fill-opacity="1" /><path clip-path="url(#clip660)" d="M1182.01 1252.88 L1182.94 1253.44 Q1181.43 1256.93 1179.02 1261.28 Q1181.43 1265.63 1182.94 1269.13 L1182.01 1269.67 Q1178.7 1265.86 1176.15 1261.28 Q1178.72 1256.66 1182.01 1252.88 Z" fill="#000000" fill-rule="nonzero" fill-opacity="1" /><path clip-path="url(#clip660)" d="M1194.31 1249.71 Q1196.12 1249.71 1197.15 1250.84 Q1198.14 1251.97 1198.14 1253.26 Q1198.14 1254.48 1197.44 1255.12 Q1196.73 1255.77 1195.83 1255.77 Q1194.6 1255.77 1193.54 1254.87 Q1192.48 1253.96 1192.25 1252.61 Q1191.41 1253.93 1191.41 1255.9 Q1191.41 1257.18 1192.09 1258.31 Q1192.77 1259.41 1193.64 1260.08 Q1194.51 1260.73 1195.76 1261.31 Q1196.99 1261.85 1197.73 1262.08 Q1198.43 1262.27 1199.21 1262.43 L1208.23 1264.69 Q1212.51 1265.78 1214.02 1265.78 Q1215.89 1265.78 1217.15 1264.88 Q1218.37 1263.98 1218.37 1262.18 Q1218.37 1261.47 1218.18 1260.66 Q1217.95 1259.86 1217.37 1258.83 Q1216.76 1257.76 1215.86 1256.83 Q1214.92 1255.86 1213.35 1254.93 Q1211.77 1254 1209.74 1253.38 Q1209.03 1253.19 1209.03 1252.55 Q1209.03 1251.74 1209.67 1251.74 Q1210.22 1251.74 1211.38 1252.19 Q1212.51 1252.61 1213.99 1253.55 Q1215.44 1254.45 1216.76 1255.64 Q1218.05 1256.83 1218.95 1258.6 Q1219.85 1260.37 1219.85 1262.31 Q1219.85 1265.08 1218.37 1266.91 Q1216.89 1268.75 1214.83 1269.42 Q1215.12 1269.58 1215.5 1269.81 Q1215.89 1270.03 1216.76 1270.71 Q1217.6 1271.36 1218.24 1272.1 Q1218.85 1272.84 1219.34 1274 Q1219.85 1275.12 1219.85 1276.35 Q1219.85 1277.89 1219.4 1279.28 Q1218.95 1280.63 1217.92 1281.6 Q1216.89 1282.56 1215.47 1282.56 Q1213.89 1282.56 1212.8 1281.5 Q1211.67 1280.41 1211.67 1278.92 Q1211.67 1277.99 1212.22 1277.25 Q1212.77 1276.48 1213.96 1276.48 Q1215.28 1276.48 1216.28 1277.38 Q1217.27 1278.28 1217.53 1279.57 Q1218.37 1278.25 1218.37 1276.28 Q1218.37 1274.16 1216.5 1272.48 Q1214.63 1270.81 1211.51 1270 Q1204.01 1268.01 1200.66 1267.23 Q1197.28 1266.46 1195.83 1266.46 Q1194.47 1266.46 1193.54 1266.81 Q1192.61 1267.17 1192.19 1267.78 Q1191.74 1268.36 1191.57 1268.91 Q1191.41 1269.42 1191.41 1270 Q1191.41 1270.97 1191.8 1272.06 Q1192.19 1273.13 1193.09 1274.41 Q1193.96 1275.67 1195.76 1276.86 Q1197.56 1278.05 1200.04 1278.86 Q1200.79 1279.02 1200.79 1279.73 Q1200.75 1280.5 1200.11 1280.5 Q1199.56 1280.5 1198.43 1280.08 Q1197.28 1279.63 1195.83 1278.73 Q1194.38 1277.8 1193.09 1276.6 Q1191.77 1275.38 1190.87 1273.61 Q1189.96 1271.81 1189.96 1269.87 Q1189.96 1269 1190.16 1268.17 Q1190.32 1267.3 1190.8 1266.27 Q1191.28 1265.2 1192.35 1264.27 Q1193.41 1263.34 1194.96 1262.76 Q1194.22 1262.37 1193.51 1261.85 Q1192.8 1261.31 1191.93 1260.47 Q1191.03 1259.6 1190.51 1258.41 Q1189.96 1257.18 1189.96 1255.83 Q1189.96 1254.51 1190.32 1253.22 Q1190.64 1251.94 1191.7 1250.84 Q1192.73 1249.71 1194.31 1249.71 Z" fill="#000000" fill-rule="nonzero" fill-opacity="1" /><path clip-path="url(#clip660)" d="M1231.9 1242.25 Q1230.52 1242.25 1229.87 1241.46 Q1229.22 1240.68 1229.22 1239.66 Q1229.22 1238.6 1229.92 1237.86 Q1230.59 1237.09 1231.79 1237.09 Q1233.07 1237.09 1233.79 1237.99 Q1234.51 1238.87 1234.33 1240.13 Q1236.18 1239.03 1237.02 1237 Q1237.85 1234.95 1237.85 1233.06 Q1237.85 1231.07 1236.14 1229.47 Q1234.42 1227.85 1230.23 1227.85 Q1226.67 1227.85 1224.62 1229.25 Q1222.57 1230.62 1222.57 1233.35 L1222.57 1235.38 Q1222.57 1236.08 1222.5 1236.28 Q1222.43 1236.48 1222.05 1236.48 Q1221.6 1236.48 1221.51 1235.78 Q1221.51 1235.08 1221.37 1233.98 Q1221.28 1231.3 1218.96 1229.88 Q1216.79 1228.59 1213.71 1228.59 Q1210.89 1228.59 1209.72 1229.94 Q1208.52 1231.27 1208.52 1233.01 Q1208.52 1234.63 1209.2 1236.41 Q1209.87 1238.2 1211.38 1239.17 Q1211.38 1236.3 1213.71 1236.3 Q1214.72 1236.3 1215.4 1236.96 Q1216.05 1237.59 1216.05 1238.65 Q1216.05 1239.66 1215.42 1240.34 Q1214.77 1241.01 1213.66 1241.01 Q1211.02 1241.01 1209.2 1238.67 Q1207.37 1236.3 1207.37 1232.83 Q1207.37 1229.4 1209.17 1226.88 Q1210.98 1224.33 1213.75 1224.33 Q1216.48 1224.33 1218.71 1226.13 Q1220.94 1227.94 1221.87 1230.8 Q1222.57 1227.28 1224.96 1225.19 Q1227.32 1223.09 1230.23 1223.09 Q1233.84 1223.09 1236.5 1225.93 Q1239.14 1228.77 1239.14 1232.92 Q1239.14 1236.75 1237.06 1239.5 Q1234.99 1242.25 1231.9 1242.25 Z" fill="#000000" fill-rule="nonzero" fill-opacity="1" /><polyline clip-path="url(#clip665)" style="stroke:#e26f46; stroke-linecap:round; stroke-linejoin:round; stroke-width:3; stroke-opacity:1; fill:none" stroke-dasharray="12, 6, 2, 6" points="1471.57,1120.07 1496.74,1213.91 1521.9,1309.61 1547.06,1382.39 1572.22,1368.69 1597.38,1384.34 1622.55,1413.23 1647.71,1326.43 1672.87,1356.05 1698.03,1346.23 1723.2,1304.67 1748.36,1222.58 1773.52,1200.15 1798.68,1164.59 1823.85,1153.45 1849.01,1182.67 1874.17,1135.31 1899.33,1153.94 1924.49,1160.32 1949.66,1097.16 1974.82,1124.12 1999.98,1153.32 2025.14,1111.93 2050.31,1130.5 2075.47,1171.55 2100.63,1148.16 2125.79,1115.59 2150.95,1134.37 2176.12,1138.35 2201.28,1210.69 2226.44,1143.42 2251.6,1121.5 2276.77,1140.24 2301.93,1205.07 2327.09,1081.68 "/>
</svg>
