<?xml version="1.0" encoding="utf-8"?>
<svg xmlns="http://www.w3.org/2000/svg" xmlns:xlink="http://www.w3.org/1999/xlink" width="600" height="400" viewBox="0 0 2400 1600">
<defs>
  <clipPath id="clip060">
    <rect x="0" y="0" width="2400" height="1600"/>
  </clipPath>
</defs>
<path clip-path="url(#clip060)" d="M0 1600 L2400 1600 L2400 0 L0 0  Z" fill="#ffffff" fill-rule="evenodd" fill-opacity="1"/>
<defs>
  <clipPath id="clip061">
    <rect x="480" y="0" width="1681" height="1600"/>
  </clipPath>
</defs>
<path clip-path="url(#clip060)" d="M203.964 1423.18 L1110.81 1423.18 L1110.81 47.2441 L203.964 47.2441  Z" fill="#ffffff" fill-rule="evenodd" fill-opacity="1"/>
<defs>
  <clipPath id="clip062">
    <rect x="203" y="47" width="908" height="1377"/>
  </clipPath>
</defs>
<polyline clip-path="url(#clip062)" style="stroke:#000000; stroke-linecap:round; stroke-linejoin:round; stroke-width:2; stroke-opacity:0.1; fill:none" points="229.629,1423.18 229.629,47.2441 "/>
<polyline clip-path="url(#clip062)" style="stroke:#000000; stroke-linecap:round; stroke-linejoin:round; stroke-width:2; stroke-opacity:0.1; fill:none" points="481.252,1423.18 481.252,47.2441 "/>
<polyline clip-path="url(#clip062)" style="stroke:#000000; stroke-linecap:round; stroke-linejoin:round; stroke-width:2; stroke-opacity:0.1; fill:none" points="732.874,1423.18 732.874,47.2441 "/>
<polyline clip-path="url(#clip062)" style="stroke:#000000; stroke-linecap:round; stroke-linejoin:round; stroke-width:2; stroke-opacity:0.1; fill:none" points="984.497,1423.18 984.497,47.2441 "/>
<polyline clip-path="url(#clip060)" style="stroke:#000000; stroke-linecap:round; stroke-linejoin:round; stroke-width:4; stroke-opacity:1; fill:none" points="203.964,1423.18 1110.81,1423.18 "/>
<polyline clip-path="url(#clip060)" style="stroke:#000000; stroke-linecap:round; stroke-linejoin:round; stroke-width:4; stroke-opacity:1; fill:none" points="229.629,1423.18 229.629,1404.28 "/>
<polyline clip-path="url(#clip060)" style="stroke:#000000; stroke-linecap:round; stroke-linejoin:round; stroke-width:4; stroke-opacity:1; fill:none" points="481.252,1423.18 481.252,1404.28 "/>
<polyline clip-path="url(#clip060)" style="stroke:#000000; stroke-linecap:round; stroke-linejoin:round; stroke-width:4; stroke-opacity:1; fill:none" points="732.874,1423.18 732.874,1404.28 "/>
<polyline clip-path="url(#clip060)" style="stroke:#000000; stroke-linecap:round; stroke-linejoin:round; stroke-width:4; stroke-opacity:1; fill:none" points="984.497,1423.18 984.497,1404.28 "/>
<path clip-path="url(#clip060)" d="M229.629 1454.1 Q226.018 1454.1 224.189 1457.66 Q222.384 1461.2 222.384 1468.33 Q222.384 1475.44 224.189 1479.01 Q226.018 1482.55 229.629 1482.55 Q233.263 1482.55 235.069 1479.01 Q236.898 1475.44 236.898 1468.33 Q236.898 1461.2 235.069 1457.66 Q233.263 1454.1 229.629 1454.1 M229.629 1450.39 Q235.439 1450.39 238.495 1455 Q241.573 1459.58 241.573 1468.33 Q241.573 1477.06 238.495 1481.67 Q235.439 1486.25 229.629 1486.25 Q223.819 1486.25 220.74 1481.67 Q217.685 1477.06 217.685 1468.33 Q217.685 1459.58 220.74 1455 Q223.819 1450.39 229.629 1450.39 Z" fill="#000000" fill-rule="nonzero" fill-opacity="1" /><path clip-path="url(#clip060)" d="M471.634 1481.64 L479.273 1481.64 L479.273 1455.28 L470.962 1456.95 L470.962 1452.69 L479.226 1451.02 L483.902 1451.02 L483.902 1481.64 L491.541 1481.64 L491.541 1485.58 L471.634 1485.58 L471.634 1481.64 Z" fill="#000000" fill-rule="nonzero" fill-opacity="1" /><path clip-path="url(#clip060)" d="M727.527 1481.64 L743.847 1481.64 L743.847 1485.58 L721.902 1485.58 L721.902 1481.64 Q724.564 1478.89 729.148 1474.26 Q733.754 1469.61 734.935 1468.27 Q737.18 1465.74 738.06 1464.01 Q738.962 1462.25 738.962 1460.56 Q738.962 1457.8 737.018 1456.07 Q735.097 1454.33 731.995 1454.33 Q729.796 1454.33 727.342 1455.09 Q724.912 1455.86 722.134 1457.41 L722.134 1452.69 Q724.958 1451.55 727.411 1450.97 Q729.865 1450.39 731.902 1450.39 Q737.273 1450.39 740.467 1453.08 Q743.661 1455.77 743.661 1460.26 Q743.661 1462.39 742.851 1464.31 Q742.064 1466.2 739.958 1468.8 Q739.379 1469.47 736.277 1472.69 Q733.175 1475.88 727.527 1481.64 Z" fill="#000000" fill-rule="nonzero" fill-opacity="1" /><path clip-path="url(#clip060)" d="M988.745 1466.95 Q992.101 1467.66 993.976 1469.93 Q995.874 1472.2 995.874 1475.53 Q995.874 1480.65 992.356 1483.45 Q988.837 1486.25 982.356 1486.25 Q980.18 1486.25 977.865 1485.81 Q975.574 1485.39 973.12 1484.54 L973.12 1480.02 Q975.064 1481.16 977.379 1481.74 Q979.694 1482.32 982.217 1482.32 Q986.615 1482.32 988.907 1480.58 Q991.222 1478.84 991.222 1475.53 Q991.222 1472.48 989.069 1470.77 Q986.939 1469.03 983.12 1469.03 L979.092 1469.03 L979.092 1465.19 L983.305 1465.19 Q986.754 1465.19 988.583 1463.82 Q990.411 1462.43 990.411 1459.84 Q990.411 1457.18 988.513 1455.77 Q986.638 1454.33 983.12 1454.33 Q981.199 1454.33 978.999 1454.75 Q976.8 1455.16 974.162 1456.04 L974.162 1451.88 Q976.824 1451.14 979.138 1450.77 Q981.476 1450.39 983.536 1450.39 Q988.861 1450.39 991.962 1452.83 Q995.064 1455.23 995.064 1459.35 Q995.064 1462.22 993.421 1464.21 Q991.777 1466.18 988.745 1466.95 Z" fill="#000000" fill-rule="nonzero" fill-opacity="1" /><path clip-path="url(#clip060)" d="M527.559 1520.52 L567.758 1520.52 L567.758 1525.93 L550.889 1525.93 L550.889 1568.04 L544.428 1568.04 L544.428 1525.93 L527.559 1525.93 L527.559 1520.52 Z" fill="#000000" fill-rule="nonzero" fill-opacity="1" /><path clip-path="url(#clip060)" d="M571.705 1532.4 L577.562 1532.4 L577.562 1568.04 L571.705 1568.04 L571.705 1532.4 M571.705 1518.52 L577.562 1518.52 L577.562 1525.93 L571.705 1525.93 L571.705 1518.52 Z" fill="#000000" fill-rule="nonzero" fill-opacity="1" /><path clip-path="url(#clip060)" d="M617.57 1539.24 Q619.766 1535.29 622.822 1533.41 Q625.877 1531.54 630.015 1531.54 Q635.585 1531.54 638.609 1535.45 Q641.633 1539.33 641.633 1546.53 L641.633 1568.04 L635.744 1568.04 L635.744 1546.72 Q635.744 1541.59 633.93 1539.11 Q632.116 1536.63 628.392 1536.63 Q623.84 1536.63 621.199 1539.65 Q618.557 1542.68 618.557 1547.9 L618.557 1568.04 L612.669 1568.04 L612.669 1546.72 Q612.669 1541.56 610.854 1539.11 Q609.04 1536.63 605.252 1536.63 Q600.765 1536.63 598.123 1539.68 Q595.481 1542.71 595.481 1547.9 L595.481 1568.04 L589.593 1568.04 L589.593 1532.4 L595.481 1532.4 L595.481 1537.93 Q597.486 1534.66 600.287 1533.1 Q603.088 1531.54 606.939 1531.54 Q610.822 1531.54 613.528 1533.51 Q616.265 1535.48 617.57 1539.24 Z" fill="#000000" fill-rule="nonzero" fill-opacity="1" /><path clip-path="url(#clip060)" d="M683.805 1548.76 L683.805 1551.62 L656.878 1551.62 Q657.26 1557.67 660.507 1560.85 Q663.785 1564 669.61 1564 Q672.984 1564 676.135 1563.17 Q679.317 1562.35 682.437 1560.69 L682.437 1566.23 Q679.286 1567.57 675.975 1568.27 Q672.665 1568.97 669.26 1568.97 Q660.73 1568.97 655.733 1564 Q650.767 1559.04 650.767 1550.57 Q650.767 1541.82 655.478 1536.69 Q660.22 1531.54 668.241 1531.54 Q675.434 1531.54 679.604 1536.18 Q683.805 1540.8 683.805 1548.76 M677.949 1547.04 Q677.885 1542.23 675.243 1539.37 Q672.633 1536.5 668.305 1536.5 Q663.403 1536.5 660.443 1539.27 Q657.515 1542.04 657.069 1547.07 L677.949 1547.04 Z" fill="#000000" fill-rule="nonzero" fill-opacity="1" /><path clip-path="url(#clip060)" d="M728.206 1518.58 Q723.941 1525.9 721.872 1533.06 Q719.803 1540.23 719.803 1547.58 Q719.803 1554.93 721.872 1562.16 Q723.973 1569.35 728.206 1576.64 L723.114 1576.64 Q718.339 1569.16 715.952 1561.93 Q713.597 1554.71 713.597 1547.58 Q713.597 1540.48 715.952 1533.29 Q718.307 1526.09 723.114 1518.58 L728.206 1518.58 Z" fill="#000000" fill-rule="nonzero" fill-opacity="1" /><path clip-path="url(#clip060)" d="M762.294 1533.45 L762.294 1538.98 Q759.812 1537.71 757.138 1537.07 Q754.465 1536.44 751.6 1536.44 Q747.24 1536.44 745.043 1537.77 Q742.879 1539.11 742.879 1541.79 Q742.879 1543.82 744.439 1545 Q745.998 1546.15 750.709 1547.2 L752.714 1547.64 Q758.952 1548.98 761.562 1551.43 Q764.204 1553.85 764.204 1558.21 Q764.204 1563.17 760.257 1566.07 Q756.343 1568.97 749.468 1568.97 Q746.603 1568.97 743.484 1568.39 Q740.396 1567.85 736.959 1566.74 L736.959 1560.69 Q740.205 1562.38 743.356 1563.24 Q746.508 1564.07 749.595 1564.07 Q753.733 1564.07 755.961 1562.66 Q758.189 1561.23 758.189 1558.65 Q758.189 1556.27 756.565 1554.99 Q754.974 1553.72 749.531 1552.54 L747.494 1552.07 Q742.052 1550.92 739.633 1548.56 Q737.214 1546.18 737.214 1542.04 Q737.214 1537.01 740.778 1534.27 Q744.343 1531.54 750.9 1531.54 Q754.146 1531.54 757.011 1532.01 Q759.876 1532.49 762.294 1533.45 Z" fill="#000000" fill-rule="nonzero" fill-opacity="1" /><path clip-path="url(#clip060)" d="M772.607 1518.58 L777.699 1518.58 Q782.474 1526.09 784.829 1533.29 Q787.216 1540.48 787.216 1547.58 Q787.216 1554.71 784.829 1561.93 Q782.474 1569.16 777.699 1576.64 L772.607 1576.64 Q776.84 1569.35 778.909 1562.16 Q781.01 1554.93 781.01 1547.58 Q781.01 1540.23 778.909 1533.06 Q776.84 1525.9 772.607 1518.58 Z" fill="#000000" fill-rule="nonzero" fill-opacity="1" /><polyline clip-path="url(#clip062)" style="stroke:#000000; stroke-linecap:round; stroke-linejoin:round; stroke-width:2; stroke-opacity:0.1; fill:none" points="203.964,1377.29 1110.81,1377.29 "/>
<polyline clip-path="url(#clip062)" style="stroke:#000000; stroke-linecap:round; stroke-linejoin:round; stroke-width:2; stroke-opacity:0.1; fill:none" points="203.964,943.001 1110.81,943.001 "/>
<polyline clip-path="url(#clip062)" style="stroke:#000000; stroke-linecap:round; stroke-linejoin:round; stroke-width:2; stroke-opacity:0.1; fill:none" points="203.964,508.709 1110.81,508.709 "/>
<polyline clip-path="url(#clip062)" style="stroke:#000000; stroke-linecap:round; stroke-linejoin:round; stroke-width:2; stroke-opacity:0.1; fill:none" points="203.964,74.4171 1110.81,74.4171 "/>
<polyline clip-path="url(#clip060)" style="stroke:#000000; stroke-linecap:round; stroke-linejoin:round; stroke-width:4; stroke-opacity:1; fill:none" points="203.964,1423.18 203.964,47.2441 "/>
<polyline clip-path="url(#clip060)" style="stroke:#000000; stroke-linecap:round; stroke-linejoin:round; stroke-width:4; stroke-opacity:1; fill:none" points="203.964,1377.29 222.861,1377.29 "/>
<polyline clip-path="url(#clip060)" style="stroke:#000000; stroke-linecap:round; stroke-linejoin:round; stroke-width:4; stroke-opacity:1; fill:none" points="203.964,943.001 222.861,943.001 "/>
<polyline clip-path="url(#clip060)" style="stroke:#000000; stroke-linecap:round; stroke-linejoin:round; stroke-width:4; stroke-opacity:1; fill:none" points="203.964,508.709 222.861,508.709 "/>
<polyline clip-path="url(#clip060)" style="stroke:#000000; stroke-linecap:round; stroke-linejoin:round; stroke-width:4; stroke-opacity:1; fill:none" points="203.964,74.4171 222.861,74.4171 "/>
<path clip-path="url(#clip060)" d="M156.019 1363.09 Q152.408 1363.09 150.579 1366.66 Q148.774 1370.2 148.774 1377.33 Q148.774 1384.43 150.579 1388 Q152.408 1391.54 156.019 1391.54 Q159.653 1391.54 161.459 1388 Q163.288 1384.43 163.288 1377.33 Q163.288 1370.2 161.459 1366.66 Q159.653 1363.09 156.019 1363.09 M156.019 1359.39 Q161.829 1359.39 164.885 1363.99 Q167.964 1368.58 167.964 1377.33 Q167.964 1386.05 164.885 1390.66 Q161.829 1395.24 156.019 1395.24 Q150.209 1395.24 147.13 1390.66 Q144.075 1386.05 144.075 1377.33 Q144.075 1368.58 147.13 1363.99 Q150.209 1359.39 156.019 1359.39 Z" fill="#000000" fill-rule="nonzero" fill-opacity="1" /><path clip-path="url(#clip060)" d="M116.668 956.346 L124.306 956.346 L124.306 929.98 L115.996 931.647 L115.996 927.388 L124.26 925.721 L128.936 925.721 L128.936 956.346 L136.575 956.346 L136.575 960.281 L116.668 960.281 L116.668 956.346 Z" fill="#000000" fill-rule="nonzero" fill-opacity="1" /><path clip-path="url(#clip060)" d="M156.019 928.8 Q152.408 928.8 150.579 932.365 Q148.774 935.906 148.774 943.036 Q148.774 950.142 150.579 953.707 Q152.408 957.249 156.019 957.249 Q159.653 957.249 161.459 953.707 Q163.288 950.142 163.288 943.036 Q163.288 935.906 161.459 932.365 Q159.653 928.8 156.019 928.8 M156.019 925.096 Q161.829 925.096 164.885 929.703 Q167.964 934.286 167.964 943.036 Q167.964 951.763 164.885 956.369 Q161.829 960.952 156.019 960.952 Q150.209 960.952 147.13 956.369 Q144.075 951.763 144.075 943.036 Q144.075 934.286 147.13 929.703 Q150.209 925.096 156.019 925.096 Z" fill="#000000" fill-rule="nonzero" fill-opacity="1" /><path clip-path="url(#clip060)" d="M119.885 522.054 L136.204 522.054 L136.204 525.989 L114.26 525.989 L114.26 522.054 Q116.922 519.299 121.505 514.67 Q126.112 510.017 127.292 508.674 Q129.538 506.151 130.417 504.415 Q131.32 502.656 131.32 500.966 Q131.32 498.212 129.376 496.475 Q127.455 494.739 124.353 494.739 Q122.154 494.739 119.7 495.503 Q117.269 496.267 114.492 497.818 L114.492 493.096 Q117.316 491.962 119.769 491.383 Q122.223 490.804 124.26 490.804 Q129.63 490.804 132.825 493.489 Q136.019 496.175 136.019 500.665 Q136.019 502.795 135.209 504.716 Q134.422 506.614 132.316 509.207 Q131.737 509.878 128.635 513.096 Q125.533 516.29 119.885 522.054 Z" fill="#000000" fill-rule="nonzero" fill-opacity="1" /><path clip-path="url(#clip060)" d="M156.019 494.508 Q152.408 494.508 150.579 498.073 Q148.774 501.614 148.774 508.744 Q148.774 515.85 150.579 519.415 Q152.408 522.957 156.019 522.957 Q159.653 522.957 161.459 519.415 Q163.288 515.85 163.288 508.744 Q163.288 501.614 161.459 498.073 Q159.653 494.508 156.019 494.508 M156.019 490.804 Q161.829 490.804 164.885 495.411 Q167.964 499.994 167.964 508.744 Q167.964 517.471 164.885 522.077 Q161.829 526.66 156.019 526.66 Q150.209 526.66 147.13 522.077 Q144.075 517.471 144.075 508.744 Q144.075 499.994 147.13 495.411 Q150.209 490.804 156.019 490.804 Z" fill="#000000" fill-rule="nonzero" fill-opacity="1" /><path clip-path="url(#clip060)" d="M130.024 73.063 Q133.38 73.7806 135.255 76.0491 Q137.154 78.3176 137.154 81.6509 Q137.154 86.7666 133.635 89.5675 Q130.117 92.3684 123.635 92.3684 Q121.459 92.3684 119.144 91.9286 Q116.853 91.512 114.399 90.6555 L114.399 86.1416 Q116.343 87.2759 118.658 87.8546 Q120.973 88.4333 123.496 88.4333 Q127.894 88.4333 130.186 86.6972 Q132.501 84.9611 132.501 81.6509 Q132.501 78.5954 130.348 76.8824 Q128.218 75.1463 124.399 75.1463 L120.371 75.1463 L120.371 71.3037 L124.584 71.3037 Q128.033 71.3037 129.862 69.938 Q131.691 68.5491 131.691 65.9565 Q131.691 63.2945 129.792 61.8825 Q127.917 60.4473 124.399 60.4473 Q122.478 60.4473 120.279 60.864 Q118.08 61.2806 115.441 62.1603 L115.441 57.9936 Q118.103 57.2529 120.418 56.8825 Q122.755 56.5121 124.816 56.5121 Q130.14 56.5121 133.242 58.9427 Q136.343 61.3501 136.343 65.4704 Q136.343 68.3408 134.7 70.3315 Q133.056 72.2991 130.024 73.063 Z" fill="#000000" fill-rule="nonzero" fill-opacity="1" /><path clip-path="url(#clip060)" d="M156.019 60.2158 Q152.408 60.2158 150.579 63.7806 Q148.774 67.3223 148.774 74.4519 Q148.774 81.5583 150.579 85.1231 Q152.408 88.6647 156.019 88.6647 Q159.653 88.6647 161.459 85.1231 Q163.288 81.5583 163.288 74.4519 Q163.288 67.3223 161.459 63.7806 Q159.653 60.2158 156.019 60.2158 M156.019 56.5121 Q161.829 56.5121 164.885 61.1186 Q167.964 65.7019 167.964 74.4519 Q167.964 83.1787 164.885 87.7851 Q161.829 92.3684 156.019 92.3684 Q150.209 92.3684 147.13 87.7851 Q144.075 83.1787 144.075 74.4519 Q144.075 65.7019 147.13 61.1186 Q150.209 56.5121 156.019 56.5121 Z" fill="#000000" fill-rule="nonzero" fill-opacity="1" /><path clip-path="url(#clip060)" d="M21.7178 734.435 Q22.1687 734.435 23.2315 734.724 L48.4165 741.037 Q54.0203 742.422 57.9494 746.93 Q61.8785 751.407 61.8785 756.496 Q61.8785 759.555 60.236 761.52 Q58.6257 763.484 56.1459 763.484 Q53.9559 763.484 52.8931 762.325 Q51.8625 761.165 51.8625 759.781 Q51.8625 759.33 51.9913 758.847 Q52.1201 758.364 52.6676 757.848 Q53.2151 757.333 54.1491 757.333 Q55.6628 757.333 56.8544 758.653 Q57.4019 759.298 57.5307 759.909 Q57.6596 760.489 57.6596 761.488 Q58.5613 761.101 59.1732 760.393 Q59.7851 759.684 60.0106 758.879 Q60.2682 758.074 60.3326 757.558 Q60.4293 757.011 60.4293 756.496 Q60.4293 752.373 56.2747 749.217 Q55.0187 748.283 53.7626 747.607 Q52.5388 746.898 51.0252 746.383 Q49.5437 745.868 48.7385 745.642 Q47.9334 745.385 46.0977 744.934 Q49.0928 747.929 49.0928 751.6 Q49.0928 753.146 48.6741 754.531 Q48.2554 755.884 47.3859 757.075 Q46.4841 758.267 44.906 758.975 Q43.3279 759.652 41.2346 759.652 Q39.0124 759.652 35.985 758.782 Q32.9577 757.913 27.386 755.819 Q24.2621 754.692 22.7484 754.692 Q22.0077 754.692 21.5568 754.853 Q21.0737 755.014 20.9127 755.336 Q20.7194 755.658 20.6872 755.852 Q20.655 756.013 20.655 756.335 Q20.655 758.235 22.5874 760.006 Q24.5197 761.777 28.8353 763.001 Q29.6405 763.259 29.8337 763.42 Q30.0269 763.581 30.0269 764.064 Q29.9947 764.869 29.3506 764.869 Q29.093 764.869 28.0946 764.579 Q27.064 764.289 25.5503 763.613 Q24.0044 762.905 22.6196 761.938 Q21.2025 760.972 20.2041 759.459 Q19.2058 757.913 19.2058 756.141 Q19.2058 753.726 20.7838 752.244 Q22.3297 750.731 24.6163 750.731 Q25.5503 750.731 26.3877 750.988 Q27.1928 751.214 29.3506 752.051 Q38.0462 755.433 42.2974 755.433 Q43.3279 755.433 44.1975 755.272 Q45.0349 755.079 45.8722 754.66 Q46.6774 754.241 47.1604 753.404 Q47.6113 752.534 47.6113 751.343 Q47.6113 749.829 46.9028 748.412 Q46.1621 746.963 45.1637 746.061 Q44.1653 745.127 43.3279 744.579 Q42.4584 744 42.0075 743.871 L30.1558 740.908 L24.874 739.588 Q22.0077 738.976 21.2991 738.686 Q20.6228 738.299 20.2686 737.623 Q19.9143 736.947 19.9143 736.367 Q19.9143 735.562 20.3974 735.014 Q20.8805 734.435 21.7178 734.435 Z" fill="#000000" fill-rule="nonzero" fill-opacity="1" /><path clip-path="url(#clip060)" d="M53.6652 727.689 L52.2224 727.689 Q52.2224 722.143 49.2691 719.28 Q49.2691 718.491 49.4494 718.355 Q49.6298 718.22 50.4639 718.22 L76.3671 718.22 Q77.7423 718.22 78.1706 717.544 Q78.599 716.867 78.599 713.914 L78.599 712.449 L80.0193 712.449 Q79.884 714.072 79.884 719.933 Q79.884 725.795 80.0193 727.395 L78.599 727.395 L78.599 725.93 Q78.599 723.022 78.1932 722.323 Q77.7648 721.624 76.3671 721.624 L52.4478 721.624 Q53.6652 724.036 53.6652 727.689 Z" fill="#000000" fill-rule="nonzero" fill-opacity="1" /><polyline clip-path="url(#clip062)" style="stroke:#009af9; stroke-linecap:round; stroke-linejoin:round; stroke-width:4; stroke-opacity:1; fill:none" points="229.629,1384.24 254.791,1283.38 279.954,997.041 305.116,711.228 330.278,504.207 355.44,273.612 380.603,193.86 405.765,127.817 430.927,86.1857 456.089,148.776 481.252,178.494 506.414,210.461 531.576,234.536 556.739,285.102 581.901,314.79 607.063,348.39 632.225,304.812 657.388,336.507 682.55,311.788 707.712,316.765 732.874,274.923 758.037,308.264 783.199,299.515 808.361,257.079 833.524,263.633 858.686,249.19 883.848,304.624 909.01,275.477 934.173,251.097 959.335,258.332 984.497,271.045 1009.66,300.391 1034.82,285.237 1059.98,297.526 1085.15,265.461 "/>
<polyline clip-path="url(#clip062)" style="stroke:#e26f46; stroke-linecap:round; stroke-linejoin:round; stroke-width:3; stroke-opacity:1; fill:none" stroke-dasharray="12, 6, 2, 6" points="229.629,1377.29 254.791,1272.1 279.954,1030.14 305.116,665.829 330.278,435.141 355.44,326.711 380.603,150.375 405.765,159.791 430.927,137.173 456.089,119.014 481.252,214.345 506.414,237.054 531.576,257.615 556.739,267.736 581.901,313.968 607.063,330.867 632.225,356.948 657.388,289.113 682.55,333.742 707.712,299.473 732.874,310.598 758.037,260.424 783.199,312.582 808.361,298.928 833.524,246.688 858.686,264.663 883.848,249.205 909.01,321.851 934.173,274.057 959.335,244.903 984.497,260.031 1009.66,276.663 1034.82,310.224 1059.98,283.224 1085.15,298.483 "/>
<path clip-path="url(#clip060)" d="M961.069 1377.32 L1080.58 1377.32 L1080.58 1221.8 L961.069 1221.8  Z" fill="#ffffff" fill-rule="evenodd" fill-opacity="1"/>
<polyline clip-path="url(#clip060)" style="stroke:#000000; stroke-linecap:round; stroke-linejoin:round; stroke-width:4; stroke-opacity:1; fill:none" points="961.069,1377.32 1080.58,1377.32 1080.58,1221.8 961.069,1221.8 961.069,1377.32 "/>
<polyline clip-path="url(#clip060)" style="stroke:#009af9; stroke-linecap:round; stroke-linejoin:round; stroke-width:4; stroke-opacity:1; fill:none" points="971.145,1273.64 1031.6,1273.64 "/>
<path clip-path="url(#clip060)" d="M1068.45 1260.37 Q1066.97 1260.37 1066.22 1260.51 Q1065.48 1260.63 1065.29 1260.8 Q1065.1 1260.96 1064.89 1261.38 L1054.58 1283.3 Q1053.48 1285.65 1051.42 1287.33 Q1049.38 1289.02 1046.81 1289.02 Q1044.65 1289.02 1043.15 1287.71 Q1041.68 1286.42 1041.68 1284.59 Q1041.68 1283.28 1042.5 1282.53 Q1043.32 1281.81 1044.42 1281.81 Q1045.64 1281.81 1046.41 1282.58 Q1047.21 1283.35 1047.21 1284.55 Q1047.21 1285.32 1046.88 1285.9 Q1046.55 1286.51 1046.25 1286.72 Q1045.96 1286.96 1045.66 1287.1 Q1046.15 1287.29 1046.81 1287.29 Q1047.79 1287.29 1048.63 1286.89 Q1049.5 1286.51 1050.06 1286 Q1050.65 1285.51 1051.23 1284.62 Q1051.82 1283.75 1052.1 1283.19 Q1052.38 1282.65 1052.8 1281.71 L1053.9 1279.42 L1044.93 1260.37 L1041.87 1260.37 L1041.87 1258.13 L1047.35 1258.27 L1053.3 1258.13 L1053.3 1260.37 L1050.7 1260.37 L1056.79 1273.33 L1062.31 1261.52 L1062.55 1260.96 Q1062.55 1260.7 1061.99 1260.56 Q1061.42 1260.4 1060.86 1260.4 L1060.3 1260.37 L1060.3 1258.13 L1064.66 1258.27 Q1066.72 1258.27 1068.45 1258.13 L1068.45 1260.37 Z" fill="#000000" fill-rule="nonzero" fill-opacity="1" /><polyline clip-path="url(#clip060)" style="stroke:#e26f46; stroke-linecap:round; stroke-linejoin:round; stroke-width:3; stroke-opacity:1; fill:none" stroke-dasharray="12, 6, 2, 6" points="971.145,1325.48 1031.6,1325.48 "/>
<path clip-path="url(#clip060)" d="M1064.26 1309.2 L1063.85 1309.87 Q1061.31 1308.77 1058.15 1307.01 Q1054.98 1308.77 1052.44 1309.87 L1052.05 1309.2 Q1054.82 1306.79 1058.15 1304.93 Q1061.51 1306.8 1064.26 1309.2 Z" fill="#000000" fill-rule="nonzero" fill-opacity="1" /><path clip-path="url(#clip060)" d="M1068.45 1317.22 Q1066.97 1317.22 1066.22 1317.36 Q1065.48 1317.48 1065.29 1317.64 Q1065.1 1317.8 1064.89 1318.23 L1054.58 1340.15 Q1053.48 1342.49 1051.42 1344.18 Q1049.38 1345.86 1046.81 1345.86 Q1044.65 1345.86 1043.15 1344.55 Q1041.68 1343.26 1041.68 1341.44 Q1041.68 1340.13 1042.5 1339.38 Q1043.32 1338.65 1044.42 1338.65 Q1045.64 1338.65 1046.41 1339.42 Q1047.21 1340.2 1047.21 1341.39 Q1047.21 1342.16 1046.88 1342.75 Q1046.55 1343.36 1046.25 1343.57 Q1045.96 1343.8 1045.66 1343.94 Q1046.15 1344.13 1046.81 1344.13 Q1047.79 1344.13 1048.63 1343.73 Q1049.5 1343.36 1050.06 1342.84 Q1050.65 1342.35 1051.23 1341.46 Q1051.82 1340.59 1052.1 1340.03 Q1052.38 1339.49 1052.8 1338.56 L1053.9 1336.26 L1044.93 1317.22 L1041.87 1317.22 L1041.87 1314.97 L1047.35 1315.11 L1053.3 1314.97 L1053.3 1317.22 L1050.7 1317.22 L1056.79 1330.17 L1062.31 1318.37 L1062.55 1317.8 Q1062.55 1317.55 1061.99 1317.41 Q1061.42 1317.24 1060.86 1317.24 L1060.3 1317.22 L1060.3 1314.97 L1064.66 1315.11 Q1066.72 1315.11 1068.45 1314.97 L1068.45 1317.22 Z" fill="#000000" fill-rule="nonzero" fill-opacity="1" /><path clip-path="url(#clip060)" d="M1445.91 398.692 L2352.76 398.692 L2352.76 47.2441 L1445.91 47.2441  Z" fill="#ffffff" fill-rule="evenodd" fill-opacity="1"/>
<defs>
  <clipPath id="clip063">
    <rect x="1445" y="47" width="908" height="352"/>
  </clipPath>
</defs>
<polyline clip-path="url(#clip063)" style="stroke:#000000; stroke-linecap:round; stroke-linejoin:round; stroke-width:2; stroke-opacity:0.1; fill:none" points="1471.57,398.692 1471.57,47.2441 "/>
<polyline clip-path="url(#clip063)" style="stroke:#000000; stroke-linecap:round; stroke-linejoin:round; stroke-width:2; stroke-opacity:0.1; fill:none" points="1723.2,398.692 1723.2,47.2441 "/>
<polyline clip-path="url(#clip063)" style="stroke:#000000; stroke-linecap:round; stroke-linejoin:round; stroke-width:2; stroke-opacity:0.1; fill:none" points="1974.82,398.692 1974.82,47.2441 "/>
<polyline clip-path="url(#clip063)" style="stroke:#000000; stroke-linecap:round; stroke-linejoin:round; stroke-width:2; stroke-opacity:0.1; fill:none" points="2226.44,398.692 2226.44,47.2441 "/>
<polyline clip-path="url(#clip060)" style="stroke:#000000; stroke-linecap:round; stroke-linejoin:round; stroke-width:4; stroke-opacity:1; fill:none" points="1445.91,398.692 2352.76,398.692 "/>
<polyline clip-path="url(#clip060)" style="stroke:#000000; stroke-linecap:round; stroke-linejoin:round; stroke-width:4; stroke-opacity:1; fill:none" points="1471.57,398.692 1471.57,379.794 "/>
<polyline clip-path="url(#clip060)" style="stroke:#000000; stroke-linecap:round; stroke-linejoin:round; stroke-width:4; stroke-opacity:1; fill:none" points="1723.2,398.692 1723.2,379.794 "/>
<polyline clip-path="url(#clip060)" style="stroke:#000000; stroke-linecap:round; stroke-linejoin:round; stroke-width:4; stroke-opacity:1; fill:none" points="1974.82,398.692 1974.82,379.794 "/>
<polyline clip-path="url(#clip060)" style="stroke:#000000; stroke-linecap:round; stroke-linejoin:round; stroke-width:4; stroke-opacity:1; fill:none" points="2226.44,398.692 2226.44,379.794 "/>
<path clip-path="url(#clip060)" d="M1471.57 429.611 Q1467.96 429.611 1466.13 433.175 Q1464.33 436.717 1464.33 443.847 Q1464.33 450.953 1466.13 454.518 Q1467.96 458.059 1471.57 458.059 Q1475.21 458.059 1477.01 454.518 Q1478.84 450.953 1478.84 443.847 Q1478.84 436.717 1477.01 433.175 Q1475.21 429.611 1471.57 429.611 M1471.57 425.907 Q1477.38 425.907 1480.44 430.513 Q1483.52 435.097 1483.52 443.847 Q1483.52 452.573 1480.44 457.18 Q1477.38 461.763 1471.57 461.763 Q1465.76 461.763 1462.68 457.18 Q1459.63 452.573 1459.63 443.847 Q1459.63 435.097 1462.68 430.513 Q1465.76 425.907 1471.57 425.907 Z" fill="#000000" fill-rule="nonzero" fill-opacity="1" /><path clip-path="url(#clip060)" d="M1713.58 457.157 L1721.22 457.157 L1721.22 430.791 L1712.91 432.458 L1712.91 428.199 L1721.17 426.532 L1725.85 426.532 L1725.85 457.157 L1733.49 457.157 L1733.49 461.092 L1713.58 461.092 L1713.58 457.157 Z" fill="#000000" fill-rule="nonzero" fill-opacity="1" /><path clip-path="url(#clip060)" d="M1969.47 457.157 L1985.79 457.157 L1985.79 461.092 L1963.85 461.092 L1963.85 457.157 Q1966.51 454.402 1971.09 449.772 Q1975.7 445.12 1976.88 443.777 Q1979.12 441.254 1980 439.518 Q1980.91 437.759 1980.91 436.069 Q1980.91 433.314 1978.96 431.578 Q1977.04 429.842 1973.94 429.842 Q1971.74 429.842 1969.29 430.606 Q1966.86 431.37 1964.08 432.921 L1964.08 428.199 Q1966.9 427.064 1969.36 426.486 Q1971.81 425.907 1973.85 425.907 Q1979.22 425.907 1982.41 428.592 Q1985.61 431.277 1985.61 435.768 Q1985.61 437.898 1984.8 439.819 Q1984.01 441.717 1981.9 444.31 Q1981.32 444.981 1978.22 448.198 Q1975.12 451.393 1969.47 457.157 Z" fill="#000000" fill-rule="nonzero" fill-opacity="1" /><path clip-path="url(#clip060)" d="M2230.69 442.458 Q2234.05 443.175 2235.92 445.444 Q2237.82 447.712 2237.82 451.046 Q2237.82 456.161 2234.3 458.962 Q2230.78 461.763 2224.3 461.763 Q2222.12 461.763 2219.81 461.323 Q2217.52 460.907 2215.06 460.05 L2215.06 455.536 Q2217.01 456.671 2219.32 457.249 Q2221.64 457.828 2224.16 457.828 Q2228.56 457.828 2230.85 456.092 Q2233.17 454.356 2233.17 451.046 Q2233.17 447.99 2231.01 446.277 Q2228.88 444.541 2225.06 444.541 L2221.04 444.541 L2221.04 440.698 L2225.25 440.698 Q2228.7 440.698 2230.53 439.333 Q2232.36 437.944 2232.36 435.351 Q2232.36 432.689 2230.46 431.277 Q2228.58 429.842 2225.06 429.842 Q2223.14 429.842 2220.94 430.259 Q2218.74 430.675 2216.11 431.555 L2216.11 427.388 Q2218.77 426.648 2221.08 426.277 Q2223.42 425.907 2225.48 425.907 Q2230.8 425.907 2233.91 428.337 Q2237.01 430.745 2237.01 434.865 Q2237.01 437.736 2235.36 439.726 Q2233.72 441.694 2230.69 442.458 Z" fill="#000000" fill-rule="nonzero" fill-opacity="1" /><polyline clip-path="url(#clip063)" style="stroke:#000000; stroke-linecap:round; stroke-linejoin:round; stroke-width:2; stroke-opacity:0.1; fill:none" points="1445.91,388.745 2352.76,388.745 "/>
<polyline clip-path="url(#clip063)" style="stroke:#000000; stroke-linecap:round; stroke-linejoin:round; stroke-width:2; stroke-opacity:0.1; fill:none" points="1445.91,323.179 2352.76,323.179 "/>
<polyline clip-path="url(#clip063)" style="stroke:#000000; stroke-linecap:round; stroke-linejoin:round; stroke-width:2; stroke-opacity:0.1; fill:none" points="1445.91,257.612 2352.76,257.612 "/>
<polyline clip-path="url(#clip063)" style="stroke:#000000; stroke-linecap:round; stroke-linejoin:round; stroke-width:2; stroke-opacity:0.1; fill:none" points="1445.91,192.046 2352.76,192.046 "/>
<polyline clip-path="url(#clip063)" style="stroke:#000000; stroke-linecap:round; stroke-linejoin:round; stroke-width:2; stroke-opacity:0.1; fill:none" points="1445.91,126.479 2352.76,126.479 "/>
<polyline clip-path="url(#clip063)" style="stroke:#000000; stroke-linecap:round; stroke-linejoin:round; stroke-width:2; stroke-opacity:0.1; fill:none" points="1445.91,60.9125 2352.76,60.9125 "/>
<polyline clip-path="url(#clip060)" style="stroke:#000000; stroke-linecap:round; stroke-linejoin:round; stroke-width:4; stroke-opacity:1; fill:none" points="1445.91,398.692 1445.91,47.2441 "/>
<polyline clip-path="url(#clip060)" style="stroke:#000000; stroke-linecap:round; stroke-linejoin:round; stroke-width:4; stroke-opacity:1; fill:none" points="1445.91,388.745 1464.81,388.745 "/>
<polyline clip-path="url(#clip060)" style="stroke:#000000; stroke-linecap:round; stroke-linejoin:round; stroke-width:4; stroke-opacity:1; fill:none" points="1445.91,323.179 1464.81,323.179 "/>
<polyline clip-path="url(#clip060)" style="stroke:#000000; stroke-linecap:round; stroke-linejoin:round; stroke-width:4; stroke-opacity:1; fill:none" points="1445.91,257.612 1464.81,257.612 "/>
<polyline clip-path="url(#clip060)" style="stroke:#000000; stroke-linecap:round; stroke-linejoin:round; stroke-width:4; stroke-opacity:1; fill:none" points="1445.91,192.046 1464.81,192.046 "/>
<polyline clip-path="url(#clip060)" style="stroke:#000000; stroke-linecap:round; stroke-linejoin:round; stroke-width:4; stroke-opacity:1; fill:none" points="1445.91,126.479 1464.81,126.479 "/>
<polyline clip-path="url(#clip060)" style="stroke:#000000; stroke-linecap:round; stroke-linejoin:round; stroke-width:4; stroke-opacity:1; fill:none" points="1445.91,60.9125 1464.81,60.9125 "/>
<path clip-path="url(#clip060)" d="M1352.73 374.544 Q1349.12 374.544 1347.29 378.109 Q1345.49 381.65 1345.49 388.78 Q1345.49 395.886 1347.29 399.451 Q1349.12 402.993 1352.73 402.993 Q1356.37 402.993 1358.17 399.451 Q1360 395.886 1360 388.78 Q1360 381.65 1358.17 378.109 Q1356.37 374.544 1352.73 374.544 M1352.73 370.84 Q1358.54 370.84 1361.6 375.447 Q1364.68 380.03 1364.68 388.78 Q1364.68 397.507 1361.6 402.113 Q1358.54 406.697 1352.73 406.697 Q1346.92 406.697 1343.84 402.113 Q1340.79 397.507 1340.79 388.78 Q1340.79 380.03 1343.84 375.447 Q1346.92 370.84 1352.73 370.84 Z" fill="#000000" fill-rule="nonzero" fill-opacity="1" /><path clip-path="url(#clip060)" d="M1372.89 400.146 L1377.78 400.146 L1377.78 406.025 L1372.89 406.025 L1372.89 400.146 Z" fill="#000000" fill-rule="nonzero" fill-opacity="1" /><path clip-path="url(#clip060)" d="M1397.96 374.544 Q1394.35 374.544 1392.52 378.109 Q1390.72 381.65 1390.72 388.78 Q1390.72 395.886 1392.52 399.451 Q1394.35 402.993 1397.96 402.993 Q1401.6 402.993 1403.4 399.451 Q1405.23 395.886 1405.23 388.78 Q1405.23 381.65 1403.4 378.109 Q1401.6 374.544 1397.96 374.544 M1397.96 370.84 Q1403.77 370.84 1406.83 375.447 Q1409.91 380.03 1409.91 388.78 Q1409.91 397.507 1406.83 402.113 Q1403.77 406.697 1397.96 406.697 Q1392.15 406.697 1389.07 402.113 Q1386.02 397.507 1386.02 388.78 Q1386.02 380.03 1389.07 375.447 Q1392.15 370.84 1397.96 370.84 Z" fill="#000000" fill-rule="nonzero" fill-opacity="1" /><path clip-path="url(#clip060)" d="M1353.96 308.977 Q1350.35 308.977 1348.52 312.542 Q1346.71 316.084 1346.71 323.213 Q1346.71 330.32 1348.52 333.885 Q1350.35 337.426 1353.96 337.426 Q1357.59 337.426 1359.4 333.885 Q1361.23 330.32 1361.23 323.213 Q1361.23 316.084 1359.4 312.542 Q1357.59 308.977 1353.96 308.977 M1353.96 305.274 Q1359.77 305.274 1362.82 309.88 Q1365.9 314.463 1365.9 323.213 Q1365.9 331.94 1362.82 336.547 Q1359.77 341.13 1353.96 341.13 Q1348.15 341.13 1345.07 336.547 Q1342.01 331.94 1342.01 323.213 Q1342.01 314.463 1345.07 309.88 Q1348.15 305.274 1353.96 305.274 Z" fill="#000000" fill-rule="nonzero" fill-opacity="1" /><path clip-path="url(#clip060)" d="M1374.12 334.579 L1379.01 334.579 L1379.01 340.459 L1374.12 340.459 L1374.12 334.579 Z" fill="#000000" fill-rule="nonzero" fill-opacity="1" /><path clip-path="url(#clip060)" d="M1390 336.524 L1397.64 336.524 L1397.64 310.158 L1389.33 311.825 L1389.33 307.565 L1397.59 305.899 L1402.27 305.899 L1402.27 336.524 L1409.91 336.524 L1409.91 340.459 L1390 340.459 L1390 336.524 Z" fill="#000000" fill-rule="nonzero" fill-opacity="1" /><path clip-path="url(#clip060)" d="M1354.33 243.411 Q1350.72 243.411 1348.89 246.976 Q1347.08 250.517 1347.08 257.647 Q1347.08 264.753 1348.89 268.318 Q1350.72 271.86 1354.33 271.86 Q1357.96 271.86 1359.77 268.318 Q1361.6 264.753 1361.6 257.647 Q1361.6 250.517 1359.77 246.976 Q1357.96 243.411 1354.33 243.411 M1354.33 239.707 Q1360.14 239.707 1363.2 244.314 Q1366.27 248.897 1366.27 257.647 Q1366.27 266.374 1363.2 270.98 Q1360.14 275.563 1354.33 275.563 Q1348.52 275.563 1345.44 270.98 Q1342.39 266.374 1342.39 257.647 Q1342.39 248.897 1345.44 244.314 Q1348.52 239.707 1354.33 239.707 Z" fill="#000000" fill-rule="nonzero" fill-opacity="1" /><path clip-path="url(#clip060)" d="M1374.49 269.013 L1379.38 269.013 L1379.38 274.892 L1374.49 274.892 L1374.49 269.013 Z" fill="#000000" fill-rule="nonzero" fill-opacity="1" /><path clip-path="url(#clip060)" d="M1393.59 270.957 L1409.91 270.957 L1409.91 274.892 L1387.96 274.892 L1387.96 270.957 Q1390.63 268.202 1395.21 263.573 Q1399.82 258.92 1401 257.577 Q1403.24 255.054 1404.12 253.318 Q1405.02 251.559 1405.02 249.869 Q1405.02 247.115 1403.08 245.378 Q1401.16 243.642 1398.06 243.642 Q1395.86 243.642 1393.4 244.406 Q1390.97 245.17 1388.19 246.721 L1388.19 241.999 Q1391.02 240.865 1393.47 240.286 Q1395.93 239.707 1397.96 239.707 Q1403.33 239.707 1406.53 242.392 Q1409.72 245.077 1409.72 249.568 Q1409.72 251.698 1408.91 253.619 Q1408.13 255.517 1406.02 258.11 Q1405.44 258.781 1402.34 261.999 Q1399.24 265.193 1393.59 270.957 Z" fill="#000000" fill-rule="nonzero" fill-opacity="1" /><path clip-path="url(#clip060)" d="M1353.38 177.844 Q1349.77 177.844 1347.94 181.409 Q1346.13 184.951 1346.13 192.08 Q1346.13 199.187 1347.94 202.752 Q1349.77 206.293 1353.38 206.293 Q1357.01 206.293 1358.82 202.752 Q1360.65 199.187 1360.65 192.08 Q1360.65 184.951 1358.82 181.409 Q1357.01 177.844 1353.38 177.844 M1353.38 174.141 Q1359.19 174.141 1362.25 178.747 Q1365.32 183.33 1365.32 192.08 Q1365.32 200.807 1362.25 205.414 Q1359.19 209.997 1353.38 209.997 Q1347.57 209.997 1344.49 205.414 Q1341.44 200.807 1341.44 192.08 Q1341.44 183.33 1344.49 178.747 Q1347.57 174.141 1353.38 174.141 Z" fill="#000000" fill-rule="nonzero" fill-opacity="1" /><path clip-path="url(#clip060)" d="M1373.54 203.446 L1378.43 203.446 L1378.43 209.326 L1373.54 209.326 L1373.54 203.446 Z" fill="#000000" fill-rule="nonzero" fill-opacity="1" /><path clip-path="url(#clip060)" d="M1402.78 190.691 Q1406.13 191.409 1408.01 193.678 Q1409.91 195.946 1409.91 199.279 Q1409.91 204.395 1406.39 207.196 Q1402.87 209.997 1396.39 209.997 Q1394.21 209.997 1391.9 209.557 Q1389.61 209.14 1387.15 208.284 L1387.15 203.77 Q1389.1 204.904 1391.41 205.483 Q1393.73 206.062 1396.25 206.062 Q1400.65 206.062 1402.94 204.326 Q1405.26 202.59 1405.26 199.279 Q1405.26 196.224 1403.1 194.511 Q1400.97 192.775 1397.15 192.775 L1393.13 192.775 L1393.13 188.932 L1397.34 188.932 Q1400.79 188.932 1402.62 187.566 Q1404.44 186.178 1404.44 183.585 Q1404.44 180.923 1402.55 179.511 Q1400.67 178.076 1397.15 178.076 Q1395.23 178.076 1393.03 178.492 Q1390.83 178.909 1388.19 179.789 L1388.19 175.622 Q1390.86 174.881 1393.17 174.511 Q1395.51 174.141 1397.57 174.141 Q1402.89 174.141 1406 176.571 Q1409.1 178.979 1409.1 183.099 Q1409.1 185.969 1407.45 187.96 Q1405.81 189.928 1402.78 190.691 Z" fill="#000000" fill-rule="nonzero" fill-opacity="1" /><path clip-path="url(#clip060)" d="M1352.25 112.278 Q1348.63 112.278 1346.81 115.843 Q1345 119.384 1345 126.514 Q1345 133.62 1346.81 137.185 Q1348.63 140.727 1352.25 140.727 Q1355.88 140.727 1357.69 137.185 Q1359.51 133.62 1359.51 126.514 Q1359.51 119.384 1357.69 115.843 Q1355.88 112.278 1352.25 112.278 M1352.25 108.574 Q1358.06 108.574 1361.11 113.18 Q1364.19 117.764 1364.19 126.514 Q1364.19 135.241 1361.11 139.847 Q1358.06 144.43 1352.25 144.43 Q1346.44 144.43 1343.36 139.847 Q1340.3 135.241 1340.3 126.514 Q1340.3 117.764 1343.36 113.18 Q1346.44 108.574 1352.25 108.574 Z" fill="#000000" fill-rule="nonzero" fill-opacity="1" /><path clip-path="url(#clip060)" d="M1372.41 137.879 L1377.29 137.879 L1377.29 143.759 L1372.41 143.759 L1372.41 137.879 Z" fill="#000000" fill-rule="nonzero" fill-opacity="1" /><path clip-path="url(#clip060)" d="M1400.32 113.273 L1388.52 131.722 L1400.32 131.722 L1400.32 113.273 M1399.1 109.199 L1404.98 109.199 L1404.98 131.722 L1409.91 131.722 L1409.91 135.611 L1404.98 135.611 L1404.98 143.759 L1400.32 143.759 L1400.32 135.611 L1384.72 135.611 L1384.72 131.097 L1399.1 109.199 Z" fill="#000000" fill-rule="nonzero" fill-opacity="1" /><path clip-path="url(#clip060)" d="M1353.73 46.7112 Q1350.12 46.7112 1348.29 50.276 Q1346.48 53.8176 1346.48 60.9472 Q1346.48 68.0536 1348.29 71.6184 Q1350.12 75.1601 1353.73 75.1601 Q1357.36 75.1601 1359.17 71.6184 Q1361 68.0536 1361 60.9472 Q1361 53.8176 1359.17 50.276 Q1357.36 46.7112 1353.73 46.7112 M1353.73 43.0075 Q1359.54 43.0075 1362.59 47.6139 Q1365.67 52.1973 1365.67 60.9472 Q1365.67 69.674 1362.59 74.2805 Q1359.54 78.8638 1353.73 78.8638 Q1347.92 78.8638 1344.84 74.2805 Q1341.78 69.674 1341.78 60.9472 Q1341.78 52.1973 1344.84 47.6139 Q1347.92 43.0075 1353.73 43.0075 Z" fill="#000000" fill-rule="nonzero" fill-opacity="1" /><path clip-path="url(#clip060)" d="M1373.89 72.3129 L1378.77 72.3129 L1378.77 78.1925 L1373.89 78.1925 L1373.89 72.3129 Z" fill="#000000" fill-rule="nonzero" fill-opacity="1" /><path clip-path="url(#clip060)" d="M1389.01 43.6325 L1407.36 43.6325 L1407.36 47.5676 L1393.29 47.5676 L1393.29 56.0398 Q1394.31 55.6926 1395.32 55.5306 Q1396.34 55.3454 1397.36 55.3454 Q1403.15 55.3454 1406.53 58.5167 Q1409.91 61.6879 1409.91 67.1046 Q1409.91 72.6833 1406.44 75.7851 Q1402.96 78.8638 1396.64 78.8638 Q1394.47 78.8638 1392.2 78.4934 Q1389.95 78.123 1387.55 77.3823 L1387.55 72.6833 Q1389.63 73.8175 1391.85 74.3731 Q1394.07 74.9286 1396.55 74.9286 Q1400.56 74.9286 1402.89 72.8221 Q1405.23 70.7157 1405.23 67.1046 Q1405.23 63.4935 1402.89 61.387 Q1400.56 59.2805 1396.55 59.2805 Q1394.68 59.2805 1392.8 59.6972 Q1390.95 60.1139 1389.01 60.9935 L1389.01 43.6325 Z" fill="#000000" fill-rule="nonzero" fill-opacity="1" /><path clip-path="url(#clip060)" d="M1255.92 220.971 Q1257.73 220.971 1258.76 222.098 Q1259.76 223.225 1259.76 224.513 Q1259.76 225.737 1259.05 226.381 Q1258.34 227.025 1257.44 227.025 Q1256.21 227.025 1255.15 226.123 Q1254.09 225.222 1253.86 223.869 Q1253.02 225.189 1253.02 227.154 Q1253.02 228.442 1253.7 229.569 Q1254.38 230.664 1255.25 231.341 Q1256.12 231.985 1257.37 232.565 Q1258.6 233.112 1259.34 233.338 Q1260.05 233.531 1260.82 233.692 L1269.84 235.946 Q1274.12 237.041 1275.63 237.041 Q1277.5 237.041 1278.76 236.139 Q1279.98 235.238 1279.98 233.434 Q1279.98 232.726 1279.79 231.92 Q1279.56 231.115 1278.98 230.085 Q1278.37 229.022 1277.47 228.088 Q1276.53 227.122 1274.96 226.188 Q1273.38 225.254 1271.35 224.642 Q1270.64 224.449 1270.64 223.805 Q1270.64 222.999 1271.29 222.999 Q1271.83 222.999 1272.99 223.45 Q1274.12 223.869 1275.6 224.803 Q1277.05 225.705 1278.37 226.896 Q1279.66 228.088 1280.56 229.859 Q1281.46 231.631 1281.46 233.563 Q1281.46 236.333 1279.98 238.168 Q1278.5 240.004 1276.44 240.68 Q1276.73 240.842 1277.11 241.067 Q1277.5 241.292 1278.37 241.969 Q1279.21 242.613 1279.85 243.354 Q1280.46 244.094 1280.95 245.254 Q1281.46 246.381 1281.46 247.605 Q1281.46 249.151 1281.01 250.535 Q1280.56 251.888 1279.53 252.854 Q1278.5 253.82 1277.08 253.82 Q1275.5 253.82 1274.41 252.758 Q1273.28 251.663 1273.28 250.181 Q1273.28 249.247 1273.83 248.507 Q1274.38 247.734 1275.57 247.734 Q1276.89 247.734 1277.89 248.635 Q1278.89 249.537 1279.14 250.825 Q1279.98 249.505 1279.98 247.54 Q1279.98 245.415 1278.11 243.74 Q1276.25 242.065 1273.12 241.26 Q1265.62 239.263 1262.27 238.49 Q1258.89 237.718 1257.44 237.718 Q1256.08 237.718 1255.15 238.072 Q1254.22 238.426 1253.8 239.038 Q1253.35 239.618 1253.19 240.165 Q1253.02 240.68 1253.02 241.26 Q1253.02 242.226 1253.41 243.321 Q1253.8 244.384 1254.7 245.672 Q1255.57 246.928 1257.37 248.12 Q1259.18 249.312 1261.66 250.117 Q1262.4 250.278 1262.4 250.986 Q1262.36 251.759 1261.72 251.759 Q1261.17 251.759 1260.05 251.341 Q1258.89 250.89 1257.44 249.988 Q1255.99 249.054 1254.7 247.862 Q1253.38 246.639 1252.48 244.867 Q1251.58 243.064 1251.58 241.131 Q1251.58 240.262 1251.77 239.424 Q1251.93 238.555 1252.41 237.524 Q1252.9 236.462 1253.96 235.528 Q1255.02 234.594 1256.57 234.014 Q1255.83 233.627 1255.12 233.112 Q1254.41 232.565 1253.54 231.727 Q1252.64 230.858 1252.12 229.666 Q1251.58 228.442 1251.58 227.09 Q1251.58 225.769 1251.93 224.481 Q1252.25 223.193 1253.31 222.098 Q1254.35 220.971 1255.92 220.971 Z" fill="#000000" fill-rule="nonzero" fill-opacity="1" /><path clip-path="url(#clip060)" d="M1273.38 214.249 L1271.94 214.249 Q1271.94 208.703 1268.98 205.84 Q1268.98 205.051 1269.16 204.916 Q1269.34 204.781 1270.18 204.781 L1296.08 204.781 Q1297.46 204.781 1297.88 204.104 Q1298.31 203.428 1298.31 200.475 L1298.31 199.009 L1299.73 199.009 Q1299.6 200.633 1299.6 206.494 Q1299.6 212.356 1299.73 213.956 L1298.31 213.956 L1298.31 212.491 Q1298.31 209.583 1297.91 208.884 Q1297.48 208.185 1296.08 208.185 L1272.16 208.185 Q1273.38 210.597 1273.38 214.249 Z" fill="#000000" fill-rule="nonzero" fill-opacity="1" /><polyline clip-path="url(#clip063)" style="stroke:#009af9; stroke-linecap:round; stroke-linejoin:round; stroke-width:4; stroke-opacity:1; fill:none" points="1471.57,388.745 1496.74,360.273 1521.9,295.685 1547.06,221.309 1572.22,154.75 1597.38,104.929 1622.55,73.9794 1647.71,59.7516 1672.87,58.0523 1698.03,64.2366 1723.2,74.174 1748.36,84.7238 1773.52,93.8649 1798.68,100.598 1823.85,104.719 1849.01,106.548 1874.17,106.672 1899.33,105.741 1924.49,104.329 1949.66,102.869 1974.82,101.63 1999.98,100.737 2025.14,100.208 2050.31,99.9904 2075.47,99.9986 2100.63,100.143 2125.79,100.344 2150.95,100.547 2176.12,100.714 2201.28,100.832 2226.44,100.9 2251.6,100.926 2276.77,100.922 2301.93,100.9 2327.09,100.871 "/>
<polyline clip-path="url(#clip063)" style="stroke:#e26f46; stroke-linecap:round; stroke-linejoin:round; stroke-width:3; stroke-opacity:1; fill:none" stroke-dasharray="12, 6, 2, 6" points="1471.57,388.745 1496.74,361.027 1521.9,297.271 1547.06,201.276 1572.22,140.49 1597.38,111.919 1622.55,65.4545 1647.71,67.9355 1672.87,61.9756 1698.03,57.1907 1723.2,82.3103 1748.36,88.2942 1773.52,93.7118 1798.68,96.3788 1823.85,108.561 1849.01,113.014 1874.17,119.886 1899.33,102.011 1924.49,113.771 1949.66,104.741 1974.82,107.673 1999.98,94.4521 2025.14,108.196 2050.31,104.598 2075.47,90.8326 2100.63,95.5689 2125.79,91.496 2150.95,110.638 2176.12,98.0444 2201.28,90.3622 2226.44,94.3486 2251.6,98.7311 2276.77,107.574 2301.93,100.46 2327.09,104.481 "/>
<path clip-path="url(#clip060)" d="M2203.01 386.977 L2322.53 386.977 L2322.53 231.457 L2203.01 231.457  Z" fill="#ffffff" fill-rule="evenodd" fill-opacity="1"/>
<polyline clip-path="url(#clip060)" style="stroke:#000000; stroke-linecap:round; stroke-linejoin:round; stroke-width:4; stroke-opacity:1; fill:none" points="2203.01,386.977 2322.53,386.977 2322.53,231.457 2203.01,231.457 2203.01,386.977 "/>
<polyline clip-path="url(#clip060)" style="stroke:#009af9; stroke-linecap:round; stroke-linejoin:round; stroke-width:4; stroke-opacity:1; fill:none" points="2213.09,283.297 2273.55,283.297 "/>
<path clip-path="url(#clip060)" d="M2310.63 293.836 L2305.36 293.695 L2299.6 293.836 L2299.6 291.587 L2301.47 291.587 L2296.2 285.357 L2291.54 290.58 L2291.21 291.049 Q2291.21 291.26 2291.75 291.423 Q2292.31 291.587 2292.97 291.587 L2292.97 293.836 L2288.03 293.695 L2283.62 293.836 L2283.62 291.587 Q2285.1 291.587 2285.78 291.564 Q2286.48 291.517 2287.28 291.306 Q2288.07 291.096 2288.47 290.674 L2294.75 283.624 L2287.28 274.794 L2283.86 274.794 L2283.86 272.545 L2289.15 272.686 L2294.94 272.545 L2294.94 274.794 L2293.01 274.794 L2297.72 280.298 L2301.75 275.801 Q2301.77 275.777 2302.15 275.215 Q2301.4 274.794 2300.32 274.794 L2300.32 272.545 L2305.26 272.686 L2309.67 272.545 L2309.67 274.794 Q2307.75 274.794 2306.74 274.934 Q2305.76 275.051 2305.45 275.215 Q2305.17 275.379 2304.77 275.801 L2299.17 282.031 L2307.23 291.587 L2310.63 291.587 L2310.63 293.836 Z" fill="#000000" fill-rule="nonzero" fill-opacity="1" /><polyline clip-path="url(#clip060)" style="stroke:#e26f46; stroke-linecap:round; stroke-linejoin:round; stroke-width:3; stroke-opacity:1; fill:none" stroke-dasharray="12, 6, 2, 6" points="2213.09,335.137 2273.55,335.137 "/>
<path clip-path="url(#clip060)" d="M2306.21 323.615 L2305.8 324.287 Q2303.26 323.189 2300.09 321.434 Q2296.93 323.189 2294.39 324.287 L2293.99 323.615 Q2296.76 321.205 2300.09 319.352 Q2303.45 321.221 2306.21 323.615 Z" fill="#000000" fill-rule="nonzero" fill-opacity="1" /><path clip-path="url(#clip060)" d="M2310.63 350.681 L2305.36 350.54 L2299.6 350.681 L2299.6 348.432 L2301.47 348.432 L2296.2 342.202 L2291.54 347.425 L2291.21 347.893 Q2291.21 348.104 2291.75 348.268 Q2292.31 348.432 2292.97 348.432 L2292.97 350.681 L2288.03 350.54 L2283.62 350.681 L2283.62 348.432 Q2285.1 348.432 2285.78 348.409 Q2286.48 348.362 2287.28 348.151 Q2288.07 347.94 2288.47 347.519 L2294.75 340.468 L2287.28 331.638 L2283.86 331.638 L2283.86 329.39 L2289.15 329.53 L2294.94 329.39 L2294.94 331.638 L2293.01 331.638 L2297.72 337.142 L2301.75 332.645 Q2301.77 332.622 2302.15 332.06 Q2301.4 331.638 2300.32 331.638 L2300.32 329.39 L2305.26 329.53 L2309.67 329.39 L2309.67 331.638 Q2307.75 331.638 2306.74 331.779 Q2305.76 331.896 2305.45 332.06 Q2305.17 332.224 2304.77 332.645 L2299.17 338.876 L2307.23 348.432 L2310.63 348.432 L2310.63 350.681 Z" fill="#000000" fill-rule="nonzero" fill-opacity="1" /><path clip-path="url(#clip060)" d="M1445.91 910.936 L2352.76 910.936 L2352.76 559.488 L1445.91 559.488  Z" fill="#ffffff" fill-rule="evenodd" fill-opacity="1"/>
<defs>
  <clipPath id="clip064">
    <rect x="1445" y="559" width="908" height="352"/>
  </clipPath>
</defs>
<polyline clip-path="url(#clip064)" style="stroke:#000000; stroke-linecap:round; stroke-linejoin:round; stroke-width:2; stroke-opacity:0.1; fill:none" points="1471.57,910.936 1471.57,559.488 "/>
<polyline clip-path="url(#clip064)" style="stroke:#000000; stroke-linecap:round; stroke-linejoin:round; stroke-width:2; stroke-opacity:0.1; fill:none" points="1723.2,910.936 1723.2,559.488 "/>
<polyline clip-path="url(#clip064)" style="stroke:#000000; stroke-linecap:round; stroke-linejoin:round; stroke-width:2; stroke-opacity:0.1; fill:none" points="1974.82,910.936 1974.82,559.488 "/>
<polyline clip-path="url(#clip064)" style="stroke:#000000; stroke-linecap:round; stroke-linejoin:round; stroke-width:2; stroke-opacity:0.1; fill:none" points="2226.44,910.936 2226.44,559.488 "/>
<polyline clip-path="url(#clip060)" style="stroke:#000000; stroke-linecap:round; stroke-linejoin:round; stroke-width:4; stroke-opacity:1; fill:none" points="1445.91,910.936 2352.76,910.936 "/>
<polyline clip-path="url(#clip060)" style="stroke:#000000; stroke-linecap:round; stroke-linejoin:round; stroke-width:4; stroke-opacity:1; fill:none" points="1471.57,910.936 1471.57,892.038 "/>
<polyline clip-path="url(#clip060)" style="stroke:#000000; stroke-linecap:round; stroke-linejoin:round; stroke-width:4; stroke-opacity:1; fill:none" points="1723.2,910.936 1723.2,892.038 "/>
<polyline clip-path="url(#clip060)" style="stroke:#000000; stroke-linecap:round; stroke-linejoin:round; stroke-width:4; stroke-opacity:1; fill:none" points="1974.82,910.936 1974.82,892.038 "/>
<polyline clip-path="url(#clip060)" style="stroke:#000000; stroke-linecap:round; stroke-linejoin:round; stroke-width:4; stroke-opacity:1; fill:none" points="2226.44,910.936 2226.44,892.038 "/>
<path clip-path="url(#clip060)" d="M1471.57 941.855 Q1467.96 941.855 1466.13 945.419 Q1464.33 948.961 1464.33 956.091 Q1464.33 963.197 1466.13 966.762 Q1467.96 970.303 1471.57 970.303 Q1475.21 970.303 1477.01 966.762 Q1478.84 963.197 1478.84 956.091 Q1478.84 948.961 1477.01 945.419 Q1475.21 941.855 1471.57 941.855 M1471.57 938.151 Q1477.38 938.151 1480.44 942.757 Q1483.52 947.341 1483.52 956.091 Q1483.52 964.817 1480.44 969.424 Q1477.38 974.007 1471.57 974.007 Q1465.76 974.007 1462.68 969.424 Q1459.63 964.817 1459.63 956.091 Q1459.63 947.341 1462.68 942.757 Q1465.76 938.151 1471.57 938.151 Z" fill="#000000" fill-rule="nonzero" fill-opacity="1" /><path clip-path="url(#clip060)" d="M1713.58 969.401 L1721.22 969.401 L1721.22 943.035 L1712.91 944.702 L1712.91 940.443 L1721.17 938.776 L1725.85 938.776 L1725.85 969.401 L1733.49 969.401 L1733.49 973.336 L1713.58 973.336 L1713.58 969.401 Z" fill="#000000" fill-rule="nonzero" fill-opacity="1" /><path clip-path="url(#clip060)" d="M1969.47 969.401 L1985.79 969.401 L1985.79 973.336 L1963.85 973.336 L1963.85 969.401 Q1966.51 966.646 1971.09 962.016 Q1975.7 957.364 1976.88 956.021 Q1979.12 953.498 1980 951.762 Q1980.91 950.003 1980.91 948.313 Q1980.91 945.558 1978.96 943.822 Q1977.04 942.086 1973.94 942.086 Q1971.74 942.086 1969.29 942.85 Q1966.86 943.614 1964.08 945.165 L1964.08 940.443 Q1966.9 939.308 1969.36 938.73 Q1971.81 938.151 1973.85 938.151 Q1979.22 938.151 1982.41 940.836 Q1985.61 943.521 1985.61 948.012 Q1985.61 950.142 1984.8 952.063 Q1984.01 953.961 1981.9 956.554 Q1981.32 957.225 1978.22 960.442 Q1975.12 963.637 1969.47 969.401 Z" fill="#000000" fill-rule="nonzero" fill-opacity="1" /><path clip-path="url(#clip060)" d="M2230.69 954.702 Q2234.05 955.419 2235.92 957.688 Q2237.82 959.956 2237.82 963.29 Q2237.82 968.405 2234.3 971.206 Q2230.78 974.007 2224.3 974.007 Q2222.12 974.007 2219.81 973.567 Q2217.52 973.151 2215.06 972.294 L2215.06 967.78 Q2217.01 968.915 2219.32 969.493 Q2221.64 970.072 2224.16 970.072 Q2228.56 970.072 2230.85 968.336 Q2233.17 966.6 2233.17 963.29 Q2233.17 960.234 2231.01 958.521 Q2228.88 956.785 2225.06 956.785 L2221.04 956.785 L2221.04 952.942 L2225.25 952.942 Q2228.7 952.942 2230.53 951.577 Q2232.36 950.188 2232.36 947.595 Q2232.36 944.933 2230.46 943.521 Q2228.58 942.086 2225.06 942.086 Q2223.14 942.086 2220.94 942.503 Q2218.74 942.919 2216.11 943.799 L2216.11 939.632 Q2218.77 938.892 2221.08 938.521 Q2223.42 938.151 2225.48 938.151 Q2230.8 938.151 2233.91 940.581 Q2237.01 942.989 2237.01 947.109 Q2237.01 949.979 2235.36 951.97 Q2233.72 953.938 2230.69 954.702 Z" fill="#000000" fill-rule="nonzero" fill-opacity="1" /><polyline clip-path="url(#clip064)" style="stroke:#000000; stroke-linecap:round; stroke-linejoin:round; stroke-width:2; stroke-opacity:0.1; fill:none" points="1445.91,884.774 2352.76,884.774 "/>
<polyline clip-path="url(#clip064)" style="stroke:#000000; stroke-linecap:round; stroke-linejoin:round; stroke-width:2; stroke-opacity:0.1; fill:none" points="1445.91,843.22 2352.76,843.22 "/>
<polyline clip-path="url(#clip064)" style="stroke:#000000; stroke-linecap:round; stroke-linejoin:round; stroke-width:2; stroke-opacity:0.1; fill:none" points="1445.91,801.666 2352.76,801.666 "/>
<polyline clip-path="url(#clip064)" style="stroke:#000000; stroke-linecap:round; stroke-linejoin:round; stroke-width:2; stroke-opacity:0.1; fill:none" points="1445.91,760.112 2352.76,760.112 "/>
<polyline clip-path="url(#clip064)" style="stroke:#000000; stroke-linecap:round; stroke-linejoin:round; stroke-width:2; stroke-opacity:0.1; fill:none" points="1445.91,718.558 2352.76,718.558 "/>
<polyline clip-path="url(#clip064)" style="stroke:#000000; stroke-linecap:round; stroke-linejoin:round; stroke-width:2; stroke-opacity:0.1; fill:none" points="1445.91,677.004 2352.76,677.004 "/>
<polyline clip-path="url(#clip064)" style="stroke:#000000; stroke-linecap:round; stroke-linejoin:round; stroke-width:2; stroke-opacity:0.1; fill:none" points="1445.91,635.45 2352.76,635.45 "/>
<polyline clip-path="url(#clip064)" style="stroke:#000000; stroke-linecap:round; stroke-linejoin:round; stroke-width:2; stroke-opacity:0.1; fill:none" points="1445.91,593.896 2352.76,593.896 "/>
<polyline clip-path="url(#clip060)" style="stroke:#000000; stroke-linecap:round; stroke-linejoin:round; stroke-width:4; stroke-opacity:1; fill:none" points="1445.91,910.936 1445.91,559.488 "/>
<polyline clip-path="url(#clip060)" style="stroke:#000000; stroke-linecap:round; stroke-linejoin:round; stroke-width:4; stroke-opacity:1; fill:none" points="1445.91,884.774 1464.81,884.774 "/>
<polyline clip-path="url(#clip060)" style="stroke:#000000; stroke-linecap:round; stroke-linejoin:round; stroke-width:4; stroke-opacity:1; fill:none" points="1445.91,843.22 1464.81,843.22 "/>
<polyline clip-path="url(#clip060)" style="stroke:#000000; stroke-linecap:round; stroke-linejoin:round; stroke-width:4; stroke-opacity:1; fill:none" points="1445.91,801.666 1464.81,801.666 "/>
<polyline clip-path="url(#clip060)" style="stroke:#000000; stroke-linecap:round; stroke-linejoin:round; stroke-width:4; stroke-opacity:1; fill:none" points="1445.91,760.112 1464.81,760.112 "/>
<polyline clip-path="url(#clip060)" style="stroke:#000000; stroke-linecap:round; stroke-linejoin:round; stroke-width:4; stroke-opacity:1; fill:none" points="1445.91,718.558 1464.81,718.558 "/>
<polyline clip-path="url(#clip060)" style="stroke:#000000; stroke-linecap:round; stroke-linejoin:round; stroke-width:4; stroke-opacity:1; fill:none" points="1445.91,677.004 1464.81,677.004 "/>
<polyline clip-path="url(#clip060)" style="stroke:#000000; stroke-linecap:round; stroke-linejoin:round; stroke-width:4; stroke-opacity:1; fill:none" points="1445.91,635.45 1464.81,635.45 "/>
<polyline clip-path="url(#clip060)" style="stroke:#000000; stroke-linecap:round; stroke-linejoin:round; stroke-width:4; stroke-opacity:1; fill:none" points="1445.91,593.896 1464.81,593.896 "/>
<path clip-path="url(#clip060)" d="M1304.56 885.225 L1334.24 885.225 L1334.24 889.16 L1304.56 889.16 L1304.56 885.225 Z" fill="#000000" fill-rule="nonzero" fill-opacity="1" /><path clip-path="url(#clip060)" d="M1354.33 870.572 Q1350.72 870.572 1348.89 874.137 Q1347.08 877.679 1347.08 884.808 Q1347.08 891.915 1348.89 895.48 Q1350.72 899.021 1354.33 899.021 Q1357.96 899.021 1359.77 895.48 Q1361.6 891.915 1361.6 884.808 Q1361.6 877.679 1359.77 874.137 Q1357.96 870.572 1354.33 870.572 M1354.33 866.869 Q1360.14 866.869 1363.2 871.475 Q1366.27 876.058 1366.27 884.808 Q1366.27 893.535 1363.2 898.142 Q1360.14 902.725 1354.33 902.725 Q1348.52 902.725 1345.44 898.142 Q1342.39 893.535 1342.39 884.808 Q1342.39 876.058 1345.44 871.475 Q1348.52 866.869 1354.33 866.869 Z" fill="#000000" fill-rule="nonzero" fill-opacity="1" /><path clip-path="url(#clip060)" d="M1374.49 896.174 L1379.38 896.174 L1379.38 902.054 L1374.49 902.054 L1374.49 896.174 Z" fill="#000000" fill-rule="nonzero" fill-opacity="1" /><path clip-path="url(#clip060)" d="M1393.59 898.118 L1409.91 898.118 L1409.91 902.054 L1387.96 902.054 L1387.96 898.118 Q1390.63 895.364 1395.21 890.734 Q1399.82 886.081 1401 884.739 Q1403.24 882.216 1404.12 880.48 Q1405.02 878.72 1405.02 877.031 Q1405.02 874.276 1403.08 872.54 Q1401.16 870.804 1398.06 870.804 Q1395.86 870.804 1393.4 871.568 Q1390.97 872.332 1388.19 873.882 L1388.19 869.16 Q1391.02 868.026 1393.47 867.447 Q1395.93 866.869 1397.96 866.869 Q1403.33 866.869 1406.53 869.554 Q1409.72 872.239 1409.72 876.73 Q1409.72 878.859 1408.91 880.781 Q1408.13 882.679 1406.02 885.271 Q1405.44 885.943 1402.34 889.16 Q1399.24 892.355 1393.59 898.118 Z" fill="#000000" fill-rule="nonzero" fill-opacity="1" /><path clip-path="url(#clip060)" d="M1352.73 829.018 Q1349.12 829.018 1347.29 832.583 Q1345.49 836.125 1345.49 843.254 Q1345.49 850.361 1347.29 853.926 Q1349.12 857.467 1352.73 857.467 Q1356.37 857.467 1358.17 853.926 Q1360 850.361 1360 843.254 Q1360 836.125 1358.17 832.583 Q1356.37 829.018 1352.73 829.018 M1352.73 825.315 Q1358.54 825.315 1361.6 829.921 Q1364.68 834.504 1364.68 843.254 Q1364.68 851.981 1361.6 856.588 Q1358.54 861.171 1352.73 861.171 Q1346.92 861.171 1343.84 856.588 Q1340.79 851.981 1340.79 843.254 Q1340.79 834.504 1343.84 829.921 Q1346.92 825.315 1352.73 825.315 Z" fill="#000000" fill-rule="nonzero" fill-opacity="1" /><path clip-path="url(#clip060)" d="M1372.89 854.62 L1377.78 854.62 L1377.78 860.5 L1372.89 860.5 L1372.89 854.62 Z" fill="#000000" fill-rule="nonzero" fill-opacity="1" /><path clip-path="url(#clip060)" d="M1397.96 829.018 Q1394.35 829.018 1392.52 832.583 Q1390.72 836.125 1390.72 843.254 Q1390.72 850.361 1392.52 853.926 Q1394.35 857.467 1397.96 857.467 Q1401.6 857.467 1403.4 853.926 Q1405.23 850.361 1405.23 843.254 Q1405.23 836.125 1403.4 832.583 Q1401.6 829.018 1397.96 829.018 M1397.96 825.315 Q1403.77 825.315 1406.83 829.921 Q1409.91 834.504 1409.91 843.254 Q1409.91 851.981 1406.83 856.588 Q1403.77 861.171 1397.96 861.171 Q1392.15 861.171 1389.07 856.588 Q1386.02 851.981 1386.02 843.254 Q1386.02 834.504 1389.07 829.921 Q1392.15 825.315 1397.96 825.315 Z" fill="#000000" fill-rule="nonzero" fill-opacity="1" /><path clip-path="url(#clip060)" d="M1354.33 787.464 Q1350.72 787.464 1348.89 791.029 Q1347.08 794.571 1347.08 801.7 Q1347.08 808.807 1348.89 812.372 Q1350.72 815.913 1354.33 815.913 Q1357.96 815.913 1359.77 812.372 Q1361.6 808.807 1361.6 801.7 Q1361.6 794.571 1359.77 791.029 Q1357.96 787.464 1354.33 787.464 M1354.33 783.761 Q1360.14 783.761 1363.2 788.367 Q1366.27 792.95 1366.27 801.7 Q1366.27 810.427 1363.2 815.034 Q1360.14 819.617 1354.33 819.617 Q1348.52 819.617 1345.44 815.034 Q1342.39 810.427 1342.39 801.7 Q1342.39 792.95 1345.44 788.367 Q1348.52 783.761 1354.33 783.761 Z" fill="#000000" fill-rule="nonzero" fill-opacity="1" /><path clip-path="url(#clip060)" d="M1374.49 813.066 L1379.38 813.066 L1379.38 818.946 L1374.49 818.946 L1374.49 813.066 Z" fill="#000000" fill-rule="nonzero" fill-opacity="1" /><path clip-path="url(#clip060)" d="M1393.59 815.011 L1409.91 815.011 L1409.91 818.946 L1387.96 818.946 L1387.96 815.011 Q1390.63 812.256 1395.21 807.626 Q1399.82 802.974 1401 801.631 Q1403.24 799.108 1404.12 797.372 Q1405.02 795.612 1405.02 793.923 Q1405.02 791.168 1403.08 789.432 Q1401.16 787.696 1398.06 787.696 Q1395.86 787.696 1393.4 788.46 Q1390.97 789.224 1388.19 790.775 L1388.19 786.052 Q1391.02 784.918 1393.47 784.339 Q1395.93 783.761 1397.96 783.761 Q1403.33 783.761 1406.53 786.446 Q1409.72 789.131 1409.72 793.622 Q1409.72 795.751 1408.91 797.673 Q1408.13 799.571 1406.02 802.163 Q1405.44 802.835 1402.34 806.052 Q1399.24 809.247 1393.59 815.011 Z" fill="#000000" fill-rule="nonzero" fill-opacity="1" /><path clip-path="url(#clip060)" d="M1352.25 745.91 Q1348.63 745.91 1346.81 749.475 Q1345 753.017 1345 760.146 Q1345 767.253 1346.81 770.818 Q1348.63 774.359 1352.25 774.359 Q1355.88 774.359 1357.69 770.818 Q1359.51 767.253 1359.51 760.146 Q1359.51 753.017 1357.69 749.475 Q1355.88 745.91 1352.25 745.91 M1352.25 742.207 Q1358.06 742.207 1361.11 746.813 Q1364.19 751.397 1364.19 760.146 Q1364.19 768.873 1361.11 773.48 Q1358.06 778.063 1352.25 778.063 Q1346.44 778.063 1343.36 773.48 Q1340.3 768.873 1340.3 760.146 Q1340.3 751.397 1343.36 746.813 Q1346.44 742.207 1352.25 742.207 Z" fill="#000000" fill-rule="nonzero" fill-opacity="1" /><path clip-path="url(#clip060)" d="M1372.41 771.512 L1377.29 771.512 L1377.29 777.392 L1372.41 777.392 L1372.41 771.512 Z" fill="#000000" fill-rule="nonzero" fill-opacity="1" /><path clip-path="url(#clip060)" d="M1400.32 746.906 L1388.52 765.355 L1400.32 765.355 L1400.32 746.906 M1399.1 742.832 L1404.98 742.832 L1404.98 765.355 L1409.91 765.355 L1409.91 769.244 L1404.98 769.244 L1404.98 777.392 L1400.32 777.392 L1400.32 769.244 L1384.72 769.244 L1384.72 764.73 L1399.1 742.832 Z" fill="#000000" fill-rule="nonzero" fill-opacity="1" /><path clip-path="url(#clip060)" d="M1352.57 704.356 Q1348.96 704.356 1347.13 707.921 Q1345.32 711.463 1345.32 718.593 Q1345.32 725.699 1347.13 729.264 Q1348.96 732.805 1352.57 732.805 Q1356.2 732.805 1358.01 729.264 Q1359.84 725.699 1359.84 718.593 Q1359.84 711.463 1358.01 707.921 Q1356.2 704.356 1352.57 704.356 M1352.57 700.653 Q1358.38 700.653 1361.44 705.259 Q1364.51 709.843 1364.51 718.593 Q1364.51 727.319 1361.44 731.926 Q1358.38 736.509 1352.57 736.509 Q1346.76 736.509 1343.68 731.926 Q1340.63 727.319 1340.63 718.593 Q1340.63 709.843 1343.68 705.259 Q1346.76 700.653 1352.57 700.653 Z" fill="#000000" fill-rule="nonzero" fill-opacity="1" /><path clip-path="url(#clip060)" d="M1372.73 729.958 L1377.62 729.958 L1377.62 735.838 L1372.73 735.838 L1372.73 729.958 Z" fill="#000000" fill-rule="nonzero" fill-opacity="1" /><path clip-path="url(#clip060)" d="M1398.38 716.694 Q1395.23 716.694 1393.38 718.847 Q1391.55 721 1391.55 724.75 Q1391.55 728.477 1393.38 730.653 Q1395.23 732.805 1398.38 732.805 Q1401.53 732.805 1403.36 730.653 Q1405.21 728.477 1405.21 724.75 Q1405.21 721 1403.36 718.847 Q1401.53 716.694 1398.38 716.694 M1407.66 702.042 L1407.66 706.301 Q1405.9 705.468 1404.1 705.028 Q1402.32 704.588 1400.56 704.588 Q1395.93 704.588 1393.47 707.713 Q1391.04 710.838 1390.69 717.157 Q1392.06 715.143 1394.12 714.079 Q1396.18 712.991 1398.66 712.991 Q1403.87 712.991 1406.88 716.162 Q1409.91 719.31 1409.91 724.75 Q1409.91 730.074 1406.76 733.292 Q1403.61 736.509 1398.38 736.509 Q1392.38 736.509 1389.21 731.926 Q1386.04 727.319 1386.04 718.593 Q1386.04 710.398 1389.93 705.537 Q1393.82 700.653 1400.37 700.653 Q1402.13 700.653 1403.91 701 Q1405.72 701.347 1407.66 702.042 Z" fill="#000000" fill-rule="nonzero" fill-opacity="1" /><path clip-path="url(#clip060)" d="M1352.82 662.803 Q1349.21 662.803 1347.38 666.367 Q1345.58 669.909 1345.58 677.039 Q1345.58 684.145 1347.38 687.71 Q1349.21 691.251 1352.82 691.251 Q1356.46 691.251 1358.26 687.71 Q1360.09 684.145 1360.09 677.039 Q1360.09 669.909 1358.26 666.367 Q1356.46 662.803 1352.82 662.803 M1352.82 659.099 Q1358.63 659.099 1361.69 663.705 Q1364.77 668.289 1364.77 677.039 Q1364.77 685.765 1361.69 690.372 Q1358.63 694.955 1352.82 694.955 Q1347.01 694.955 1343.94 690.372 Q1340.88 685.765 1340.88 677.039 Q1340.88 668.289 1343.94 663.705 Q1347.01 659.099 1352.82 659.099 Z" fill="#000000" fill-rule="nonzero" fill-opacity="1" /><path clip-path="url(#clip060)" d="M1372.99 688.404 L1377.87 688.404 L1377.87 694.284 L1372.99 694.284 L1372.99 688.404 Z" fill="#000000" fill-rule="nonzero" fill-opacity="1" /><path clip-path="url(#clip060)" d="M1398.06 677.872 Q1394.72 677.872 1392.8 679.654 Q1390.9 681.437 1390.9 684.562 Q1390.9 687.687 1392.8 689.469 Q1394.72 691.251 1398.06 691.251 Q1401.39 691.251 1403.31 689.469 Q1405.23 687.664 1405.23 684.562 Q1405.23 681.437 1403.31 679.654 Q1401.41 677.872 1398.06 677.872 M1393.38 675.881 Q1390.37 675.14 1388.68 673.08 Q1387.01 671.02 1387.01 668.057 Q1387.01 663.914 1389.95 661.506 Q1392.92 659.099 1398.06 659.099 Q1403.22 659.099 1406.16 661.506 Q1409.1 663.914 1409.1 668.057 Q1409.1 671.02 1407.41 673.08 Q1405.74 675.14 1402.76 675.881 Q1406.13 676.668 1408.01 678.96 Q1409.91 681.252 1409.91 684.562 Q1409.91 689.585 1406.83 692.27 Q1403.77 694.955 1398.06 694.955 Q1392.34 694.955 1389.26 692.27 Q1386.2 689.585 1386.2 684.562 Q1386.2 681.252 1388.1 678.96 Q1390 676.668 1393.38 675.881 M1391.67 668.497 Q1391.67 671.182 1393.33 672.687 Q1395.02 674.191 1398.06 674.191 Q1401.07 674.191 1402.76 672.687 Q1404.47 671.182 1404.47 668.497 Q1404.47 665.812 1402.76 664.307 Q1401.07 662.803 1398.06 662.803 Q1395.02 662.803 1393.33 664.307 Q1391.67 665.812 1391.67 668.497 Z" fill="#000000" fill-rule="nonzero" fill-opacity="1" /><path clip-path="url(#clip060)" d="M1343.54 648.795 L1351.18 648.795 L1351.18 622.429 L1342.87 624.096 L1342.87 619.837 L1351.13 618.17 L1355.81 618.17 L1355.81 648.795 L1363.45 648.795 L1363.45 652.73 L1343.54 652.73 L1343.54 648.795 Z" fill="#000000" fill-rule="nonzero" fill-opacity="1" /><path clip-path="url(#clip060)" d="M1372.89 646.85 L1377.78 646.85 L1377.78 652.73 L1372.89 652.73 L1372.89 646.85 Z" fill="#000000" fill-rule="nonzero" fill-opacity="1" /><path clip-path="url(#clip060)" d="M1397.96 621.249 Q1394.35 621.249 1392.52 624.813 Q1390.72 628.355 1390.72 635.485 Q1390.72 642.591 1392.52 646.156 Q1394.35 649.698 1397.96 649.698 Q1401.6 649.698 1403.4 646.156 Q1405.23 642.591 1405.23 635.485 Q1405.23 628.355 1403.4 624.813 Q1401.6 621.249 1397.96 621.249 M1397.96 617.545 Q1403.77 617.545 1406.83 622.151 Q1409.91 626.735 1409.91 635.485 Q1409.91 644.211 1406.83 648.818 Q1403.77 653.401 1397.96 653.401 Q1392.15 653.401 1389.07 648.818 Q1386.02 644.211 1386.02 635.485 Q1386.02 626.735 1389.07 622.151 Q1392.15 617.545 1397.96 617.545 Z" fill="#000000" fill-rule="nonzero" fill-opacity="1" /><path clip-path="url(#clip060)" d="M1345.14 607.241 L1352.78 607.241 L1352.78 580.875 L1344.47 582.542 L1344.47 578.283 L1352.73 576.616 L1357.41 576.616 L1357.41 607.241 L1365.05 607.241 L1365.05 611.176 L1345.14 611.176 L1345.14 607.241 Z" fill="#000000" fill-rule="nonzero" fill-opacity="1" /><path clip-path="url(#clip060)" d="M1374.49 605.296 L1379.38 605.296 L1379.38 611.176 L1374.49 611.176 L1374.49 605.296 Z" fill="#000000" fill-rule="nonzero" fill-opacity="1" /><path clip-path="url(#clip060)" d="M1393.59 607.241 L1409.91 607.241 L1409.91 611.176 L1387.96 611.176 L1387.96 607.241 Q1390.63 604.486 1395.21 599.857 Q1399.82 595.204 1401 593.861 Q1403.24 591.338 1404.12 589.602 Q1405.02 587.843 1405.02 586.153 Q1405.02 583.398 1403.08 581.662 Q1401.16 579.926 1398.06 579.926 Q1395.86 579.926 1393.4 580.69 Q1390.97 581.454 1388.19 583.005 L1388.19 578.283 Q1391.02 577.148 1393.47 576.57 Q1395.93 575.991 1397.96 575.991 Q1403.33 575.991 1406.53 578.676 Q1409.72 581.361 1409.72 585.852 Q1409.72 587.982 1408.91 589.903 Q1408.13 591.801 1406.02 594.394 Q1405.44 595.065 1402.34 598.283 Q1399.24 601.477 1393.59 607.241 Z" fill="#000000" fill-rule="nonzero" fill-opacity="1" /><path clip-path="url(#clip060)" d="M1220.18 734.795 Q1221.99 734.795 1223.02 735.922 Q1224.02 737.049 1224.02 738.338 Q1224.02 739.561 1223.31 740.206 Q1222.6 740.85 1221.7 740.85 Q1220.47 740.85 1219.41 739.948 Q1218.35 739.046 1218.12 737.693 Q1217.28 739.014 1217.28 740.978 Q1217.28 742.267 1217.96 743.394 Q1218.64 744.489 1219.51 745.165 Q1220.38 745.809 1221.63 746.389 Q1222.86 746.937 1223.6 747.162 Q1224.31 747.355 1225.08 747.516 L1234.1 749.771 Q1238.38 750.866 1239.89 750.866 Q1241.76 750.866 1243.02 749.964 Q1244.24 749.062 1244.24 747.259 Q1244.24 746.55 1244.05 745.745 Q1243.82 744.94 1243.24 743.909 Q1242.63 742.846 1241.73 741.912 Q1240.79 740.946 1239.22 740.012 Q1237.64 739.078 1235.61 738.466 Q1234.9 738.273 1234.9 737.629 Q1234.9 736.824 1235.54 736.824 Q1236.09 736.824 1237.25 737.275 Q1238.38 737.693 1239.86 738.627 Q1241.31 739.529 1242.63 740.721 Q1243.92 741.912 1244.82 743.684 Q1245.72 745.455 1245.72 747.387 Q1245.72 750.157 1244.24 751.993 Q1242.76 753.829 1240.7 754.505 Q1240.99 754.666 1241.37 754.891 Q1241.76 755.117 1242.63 755.793 Q1243.47 756.437 1244.11 757.178 Q1244.72 757.919 1245.21 759.078 Q1245.72 760.205 1245.72 761.429 Q1245.72 762.975 1245.27 764.36 Q1244.82 765.713 1243.79 766.679 Q1242.76 767.645 1241.34 767.645 Q1239.76 767.645 1238.67 766.582 Q1237.54 765.487 1237.54 764.006 Q1237.54 763.072 1238.09 762.331 Q1238.64 761.558 1239.83 761.558 Q1241.15 761.558 1242.15 762.46 Q1243.15 763.362 1243.4 764.65 Q1244.24 763.329 1244.24 761.365 Q1244.24 759.239 1242.37 757.565 Q1240.5 755.89 1237.38 755.085 Q1229.88 753.088 1226.53 752.315 Q1223.15 751.542 1221.7 751.542 Q1220.34 751.542 1219.41 751.896 Q1218.48 752.251 1218.06 752.862 Q1217.61 753.442 1217.45 753.99 Q1217.28 754.505 1217.28 755.085 Q1217.28 756.051 1217.67 757.146 Q1218.06 758.209 1218.96 759.497 Q1219.83 760.753 1221.63 761.944 Q1223.44 763.136 1225.92 763.941 Q1226.66 764.102 1226.66 764.811 Q1226.62 765.584 1225.98 765.584 Q1225.43 765.584 1224.31 765.165 Q1223.15 764.714 1221.7 763.812 Q1220.25 762.878 1218.96 761.687 Q1217.64 760.463 1216.74 758.692 Q1215.83 756.888 1215.83 754.956 Q1215.83 754.086 1216.03 753.249 Q1216.19 752.379 1216.67 751.349 Q1217.16 750.286 1218.22 749.352 Q1219.28 748.418 1220.83 747.838 Q1220.09 747.452 1219.38 746.937 Q1218.67 746.389 1217.8 745.552 Q1216.9 744.682 1216.38 743.491 Q1215.83 742.267 1215.83 740.914 Q1215.83 739.594 1216.19 738.305 Q1216.51 737.017 1217.57 735.922 Q1218.6 734.795 1220.18 734.795 Z" fill="#000000" fill-rule="nonzero" fill-opacity="1" /><path clip-path="url(#clip060)" d="M1263.99 728.074 Q1263.16 728.074 1262.91 728.006 Q1262.66 727.916 1262.28 727.555 L1252.4 718.695 Q1246.95 713.848 1242.19 713.848 Q1239.1 713.848 1236.89 715.472 Q1234.68 717.072 1234.68 720.025 Q1234.68 722.054 1235.92 723.768 Q1237.16 725.481 1239.37 726.27 Q1239.33 726.135 1239.33 725.661 Q1239.33 724.512 1240.05 723.88 Q1240.77 723.227 1241.74 723.227 Q1242.98 723.227 1243.59 724.038 Q1244.18 724.827 1244.18 725.616 Q1244.18 725.932 1244.11 726.36 Q1244.04 726.766 1243.41 727.42 Q1242.76 728.074 1241.61 728.074 Q1238.38 728.074 1235.81 725.639 Q1233.24 723.182 1233.24 719.439 Q1233.24 715.201 1235.77 712.428 Q1238.27 709.633 1242.19 709.633 Q1243.57 709.633 1244.83 710.061 Q1246.07 710.467 1247.04 711.03 Q1248.01 711.571 1249.56 713.059 Q1251.12 714.547 1252.22 715.742 Q1253.33 716.937 1255.67 719.62 L1260.43 724.512 L1260.43 716.193 Q1260.43 712.135 1260.07 711.819 Q1259.42 711.369 1255.97 710.805 L1255.97 709.633 L1263.99 710.94 L1263.99 728.074 Z" fill="#000000" fill-rule="nonzero" fill-opacity="1" /><polyline clip-path="url(#clip064)" style="stroke:#009af9; stroke-linecap:round; stroke-linejoin:round; stroke-width:4; stroke-opacity:1; fill:none" points="1471.57,843.22 1496.74,679.636 1521.9,611.221 1547.06,613.034 1572.22,656.204 1597.38,715.571 1622.55,773.573 1647.71,820.493 1672.87,852.744 1698.03,870.728 1723.2,877.048 1748.36,875.195 1773.52,868.654 1798.68,860.349 1823.85,852.375 1849.01,845.965 1874.17,841.603 1899.33,839.235 1924.49,838.483 1949.66,838.841 1974.82,839.81 1999.98,840.982 2025.14,842.077 2050.31,842.937 2075.47,843.507 2100.63,843.804 2125.79,843.884 2150.95,843.818 2176.12,843.676 2201.28,843.512 2226.44,843.362 2251.6,843.246 2276.77,843.172 2301.93,843.135 2327.09,843.127 "/>
<polyline clip-path="url(#clip064)" style="stroke:#e26f46; stroke-linecap:round; stroke-linejoin:round; stroke-width:3; stroke-opacity:1; fill:none" stroke-dasharray="12, 6, 2, 6" points="1471.57,843.22 1496.74,670.81 1521.9,598.627 1547.06,569.435 1572.22,637.548 1597.38,725.096 1622.55,773.655 1647.71,839.421 1672.87,869.358 1698.03,883.809 1723.2,900.989 1748.36,891.47 1773.52,879.911 1798.68,867.682 1823.85,861.84 1849.01,851.326 1874.17,844.914 1899.33,830.163 1924.49,838.786 1949.66,833.411 1974.82,838.031 1999.98,834.053 2025.14,846.152 2050.31,842.835 2075.47,837.664 2100.63,845.452 2125.79,844.963 2150.95,854.587 2176.12,842.264 2201.28,840.023 2226.44,845.268 2251.6,847.287 2276.77,848.904 2301.93,841.128 2327.09,842.95 "/>
<path clip-path="url(#clip060)" d="M2203.01 726.723 L2322.53 726.723 L2322.53 571.203 L2203.01 571.203  Z" fill="#ffffff" fill-rule="evenodd" fill-opacity="1"/>
<polyline clip-path="url(#clip060)" style="stroke:#000000; stroke-linecap:round; stroke-linejoin:round; stroke-width:4; stroke-opacity:1; fill:none" points="2203.01,726.723 2322.53,726.723 2322.53,571.203 2203.01,571.203 2203.01,726.723 "/>
<polyline clip-path="url(#clip060)" style="stroke:#009af9; stroke-linecap:round; stroke-linejoin:round; stroke-width:4; stroke-opacity:1; fill:none" points="2213.09,623.043 2273.55,623.043 "/>
<path clip-path="url(#clip060)" d="M2310.63 633.582 L2305.36 633.442 L2299.6 633.582 L2299.6 631.334 L2301.47 631.334 L2296.2 625.103 L2291.54 630.326 L2291.21 630.795 Q2291.21 631.006 2291.75 631.17 Q2292.31 631.334 2292.97 631.334 L2292.97 633.582 L2288.03 633.442 L2283.62 633.582 L2283.62 631.334 Q2285.1 631.334 2285.78 631.31 Q2286.48 631.263 2287.28 631.052 Q2288.07 630.842 2288.47 630.42 L2294.75 623.37 L2287.28 614.54 L2283.86 614.54 L2283.86 612.291 L2289.15 612.432 L2294.94 612.291 L2294.94 614.54 L2293.01 614.54 L2297.72 620.044 L2301.75 615.547 Q2301.77 615.523 2302.15 614.961 Q2301.4 614.54 2300.32 614.54 L2300.32 612.291 L2305.26 612.432 L2309.67 612.291 L2309.67 614.54 Q2307.75 614.54 2306.74 614.68 Q2305.76 614.797 2305.45 614.961 Q2305.17 615.125 2304.77 615.547 L2299.17 621.777 L2307.23 631.334 L2310.63 631.334 L2310.63 633.582 Z" fill="#000000" fill-rule="nonzero" fill-opacity="1" /><polyline clip-path="url(#clip060)" style="stroke:#e26f46; stroke-linecap:round; stroke-linejoin:round; stroke-width:3; stroke-opacity:1; fill:none" stroke-dasharray="12, 6, 2, 6" points="2213.09,674.883 2273.55,674.883 "/>
<path clip-path="url(#clip060)" d="M2306.21 663.361 L2305.8 664.033 Q2303.26 662.935 2300.09 661.18 Q2296.93 662.935 2294.39 664.033 L2293.99 663.361 Q2296.76 660.951 2300.09 659.098 Q2303.45 660.967 2306.21 663.361 Z" fill="#000000" fill-rule="nonzero" fill-opacity="1" /><path clip-path="url(#clip060)" d="M2310.63 690.427 L2305.36 690.286 L2299.6 690.427 L2299.6 688.178 L2301.47 688.178 L2296.2 681.948 L2291.54 687.171 L2291.21 687.639 Q2291.21 687.85 2291.75 688.014 Q2292.31 688.178 2292.97 688.178 L2292.97 690.427 L2288.03 690.286 L2283.62 690.427 L2283.62 688.178 Q2285.1 688.178 2285.78 688.155 Q2286.48 688.108 2287.28 687.897 Q2288.07 687.686 2288.47 687.265 L2294.75 680.214 L2287.28 671.384 L2283.86 671.384 L2283.86 669.136 L2289.15 669.276 L2294.94 669.136 L2294.94 671.384 L2293.01 671.384 L2297.72 676.888 L2301.75 672.391 Q2301.77 672.368 2302.15 671.806 Q2301.4 671.384 2300.32 671.384 L2300.32 669.136 L2305.26 669.276 L2309.67 669.136 L2309.67 671.384 Q2307.75 671.384 2306.74 671.525 Q2305.76 671.642 2305.45 671.806 Q2305.17 671.97 2304.77 672.391 L2299.17 678.622 L2307.23 688.178 L2310.63 688.178 L2310.63 690.427 Z" fill="#000000" fill-rule="nonzero" fill-opacity="1" /><path clip-path="url(#clip060)" d="M1445.91 1423.18 L2352.76 1423.18 L2352.76 1071.73 L1445.91 1071.73  Z" fill="#ffffff" fill-rule="evenodd" fill-opacity="1"/>
<defs>
  <clipPath id="clip065">
    <rect x="1445" y="1071" width="908" height="352"/>
  </clipPath>
</defs>
<polyline clip-path="url(#clip065)" style="stroke:#000000; stroke-linecap:round; stroke-linejoin:round; stroke-width:2; stroke-opacity:0.1; fill:none" points="1471.57,1423.18 1471.57,1071.73 "/>
<polyline clip-path="url(#clip065)" style="stroke:#000000; stroke-linecap:round; stroke-linejoin:round; stroke-width:2; stroke-opacity:0.1; fill:none" points="1723.2,1423.18 1723.2,1071.73 "/>
<polyline clip-path="url(#clip065)" style="stroke:#000000; stroke-linecap:round; stroke-linejoin:round; stroke-width:2; stroke-opacity:0.1; fill:none" points="1974.82,1423.18 1974.82,1071.73 "/>
<polyline clip-path="url(#clip065)" style="stroke:#000000; stroke-linecap:round; stroke-linejoin:round; stroke-width:2; stroke-opacity:0.1; fill:none" points="2226.44,1423.18 2226.44,1071.73 "/>
<polyline clip-path="url(#clip060)" style="stroke:#000000; stroke-linecap:round; stroke-linejoin:round; stroke-width:4; stroke-opacity:1; fill:none" points="1445.91,1423.18 2352.76,1423.18 "/>
<polyline clip-path="url(#clip060)" style="stroke:#000000; stroke-linecap:round; stroke-linejoin:round; stroke-width:4; stroke-opacity:1; fill:none" points="1471.57,1423.18 1471.57,1404.28 "/>
<polyline clip-path="url(#clip060)" style="stroke:#000000; stroke-linecap:round; stroke-linejoin:round; stroke-width:4; stroke-opacity:1; fill:none" points="1723.2,1423.18 1723.2,1404.28 "/>
<polyline clip-path="url(#clip060)" style="stroke:#000000; stroke-linecap:round; stroke-linejoin:round; stroke-width:4; stroke-opacity:1; fill:none" points="1974.82,1423.18 1974.82,1404.28 "/>
<polyline clip-path="url(#clip060)" style="stroke:#000000; stroke-linecap:round; stroke-linejoin:round; stroke-width:4; stroke-opacity:1; fill:none" points="2226.44,1423.18 2226.44,1404.28 "/>
<path clip-path="url(#clip060)" d="M1471.57 1454.1 Q1467.96 1454.1 1466.13 1457.66 Q1464.33 1461.2 1464.33 1468.33 Q1464.33 1475.44 1466.13 1479.01 Q1467.96 1482.55 1471.57 1482.55 Q1475.21 1482.55 1477.01 1479.01 Q1478.84 1475.44 1478.84 1468.33 Q1478.84 1461.2 1477.01 1457.66 Q1475.21 1454.1 1471.57 1454.1 M1471.57 1450.39 Q1477.38 1450.39 1480.44 1455 Q1483.52 1459.58 1483.52 1468.33 Q1483.52 1477.06 1480.44 1481.67 Q1477.38 1486.25 1471.57 1486.25 Q1465.76 1486.25 1462.68 1481.67 Q1459.63 1477.06 1459.63 1468.33 Q1459.63 1459.58 1462.68 1455 Q1465.76 1450.39 1471.57 1450.39 Z" fill="#000000" fill-rule="nonzero" fill-opacity="1" /><path clip-path="url(#clip060)" d="M1713.58 1481.64 L1721.22 1481.64 L1721.22 1455.28 L1712.91 1456.95 L1712.91 1452.69 L1721.17 1451.02 L1725.85 1451.02 L1725.85 1481.64 L1733.49 1481.64 L1733.49 1485.58 L1713.58 1485.58 L1713.58 1481.64 Z" fill="#000000" fill-rule="nonzero" fill-opacity="1" /><path clip-path="url(#clip060)" d="M1969.47 1481.64 L1985.79 1481.64 L1985.79 1485.58 L1963.85 1485.58 L1963.85 1481.64 Q1966.51 1478.89 1971.09 1474.26 Q1975.7 1469.61 1976.88 1468.27 Q1979.12 1465.74 1980 1464.01 Q1980.91 1462.25 1980.91 1460.56 Q1980.91 1457.8 1978.96 1456.07 Q1977.04 1454.33 1973.94 1454.33 Q1971.74 1454.33 1969.29 1455.09 Q1966.86 1455.86 1964.08 1457.41 L1964.08 1452.69 Q1966.9 1451.55 1969.36 1450.97 Q1971.81 1450.39 1973.85 1450.39 Q1979.22 1450.39 1982.41 1453.08 Q1985.61 1455.77 1985.61 1460.26 Q1985.61 1462.39 1984.8 1464.31 Q1984.01 1466.2 1981.9 1468.8 Q1981.32 1469.47 1978.22 1472.69 Q1975.12 1475.88 1969.47 1481.64 Z" fill="#000000" fill-rule="nonzero" fill-opacity="1" /><path clip-path="url(#clip060)" d="M2230.69 1466.95 Q2234.05 1467.66 2235.92 1469.93 Q2237.82 1472.2 2237.82 1475.53 Q2237.82 1480.65 2234.3 1483.45 Q2230.78 1486.25 2224.3 1486.25 Q2222.12 1486.25 2219.81 1485.81 Q2217.52 1485.39 2215.06 1484.54 L2215.06 1480.02 Q2217.01 1481.16 2219.32 1481.74 Q2221.64 1482.32 2224.16 1482.32 Q2228.56 1482.32 2230.85 1480.58 Q2233.17 1478.84 2233.17 1475.53 Q2233.17 1472.48 2231.01 1470.77 Q2228.88 1469.03 2225.06 1469.03 L2221.04 1469.03 L2221.04 1465.19 L2225.25 1465.19 Q2228.7 1465.19 2230.53 1463.82 Q2232.36 1462.43 2232.36 1459.84 Q2232.36 1457.18 2230.46 1455.77 Q2228.58 1454.33 2225.06 1454.33 Q2223.14 1454.33 2220.94 1454.75 Q2218.74 1455.16 2216.11 1456.04 L2216.11 1451.88 Q2218.77 1451.14 2221.08 1450.77 Q2223.42 1450.39 2225.48 1450.39 Q2230.8 1450.39 2233.91 1452.83 Q2237.01 1455.23 2237.01 1459.35 Q2237.01 1462.22 2235.36 1464.21 Q2233.72 1466.18 2230.69 1466.95 Z" fill="#000000" fill-rule="nonzero" fill-opacity="1" /><path clip-path="url(#clip060)" d="M1769.5 1520.52 L1809.7 1520.52 L1809.7 1525.93 L1792.83 1525.93 L1792.83 1568.04 L1786.37 1568.04 L1786.37 1525.93 L1769.5 1525.93 L1769.5 1520.52 Z" fill="#000000" fill-rule="nonzero" fill-opacity="1" /><path clip-path="url(#clip060)" d="M1813.65 1532.4 L1819.51 1532.4 L1819.51 1568.04 L1813.65 1568.04 L1813.65 1532.4 M1813.65 1518.52 L1819.51 1518.52 L1819.51 1525.93 L1813.65 1525.93 L1813.65 1518.52 Z" fill="#000000" fill-rule="nonzero" fill-opacity="1" /><path clip-path="url(#clip060)" d="M1859.51 1539.24 Q1861.71 1535.29 1864.77 1533.41 Q1867.82 1531.54 1871.96 1531.54 Q1877.53 1531.54 1880.55 1535.45 Q1883.58 1539.33 1883.58 1546.53 L1883.58 1568.04 L1877.69 1568.04 L1877.69 1546.72 Q1877.69 1541.59 1875.87 1539.11 Q1874.06 1536.63 1870.34 1536.63 Q1865.78 1536.63 1863.14 1539.65 Q1860.5 1542.68 1860.5 1547.9 L1860.5 1568.04 L1854.61 1568.04 L1854.61 1546.72 Q1854.61 1541.56 1852.8 1539.11 Q1850.98 1536.63 1847.2 1536.63 Q1842.71 1536.63 1840.07 1539.68 Q1837.43 1542.71 1837.43 1547.9 L1837.43 1568.04 L1831.54 1568.04 L1831.54 1532.4 L1837.43 1532.4 L1837.43 1537.93 Q1839.43 1534.66 1842.23 1533.1 Q1845.03 1531.54 1848.88 1531.54 Q1852.77 1531.54 1855.47 1533.51 Q1858.21 1535.48 1859.51 1539.24 Z" fill="#000000" fill-rule="nonzero" fill-opacity="1" /><path clip-path="url(#clip060)" d="M1925.75 1548.76 L1925.75 1551.62 L1898.82 1551.62 Q1899.2 1557.67 1902.45 1560.85 Q1905.73 1564 1911.55 1564 Q1914.93 1564 1918.08 1563.17 Q1921.26 1562.35 1924.38 1560.69 L1924.38 1566.23 Q1921.23 1567.57 1917.92 1568.27 Q1914.61 1568.97 1911.2 1568.97 Q1902.67 1568.97 1897.68 1564 Q1892.71 1559.04 1892.71 1550.57 Q1892.71 1541.82 1897.42 1536.69 Q1902.16 1531.54 1910.19 1531.54 Q1917.38 1531.54 1921.55 1536.18 Q1925.75 1540.8 1925.75 1548.76 M1919.89 1547.04 Q1919.83 1542.23 1917.19 1539.37 Q1914.58 1536.5 1910.25 1536.5 Q1905.35 1536.5 1902.39 1539.27 Q1899.46 1542.04 1899.01 1547.07 L1919.89 1547.04 Z" fill="#000000" fill-rule="nonzero" fill-opacity="1" /><path clip-path="url(#clip060)" d="M1970.15 1518.58 Q1965.89 1525.9 1963.82 1533.06 Q1961.75 1540.23 1961.75 1547.58 Q1961.75 1554.93 1963.82 1562.16 Q1965.92 1569.35 1970.15 1576.64 L1965.06 1576.64 Q1960.28 1569.16 1957.9 1561.93 Q1955.54 1554.71 1955.54 1547.58 Q1955.54 1540.48 1957.9 1533.29 Q1960.25 1526.09 1965.06 1518.58 L1970.15 1518.58 Z" fill="#000000" fill-rule="nonzero" fill-opacity="1" /><path clip-path="url(#clip060)" d="M2004.24 1533.45 L2004.24 1538.98 Q2001.76 1537.71 1999.08 1537.07 Q1996.41 1536.44 1993.54 1536.44 Q1989.18 1536.44 1986.99 1537.77 Q1984.82 1539.11 1984.82 1541.79 Q1984.82 1543.82 1986.38 1545 Q1987.94 1546.15 1992.65 1547.2 L1994.66 1547.64 Q2000.9 1548.98 2003.51 1551.43 Q2006.15 1553.85 2006.15 1558.21 Q2006.15 1563.17 2002.2 1566.07 Q1998.29 1568.97 1991.41 1568.97 Q1988.55 1568.97 1985.43 1568.39 Q1982.34 1567.85 1978.9 1566.74 L1978.9 1560.69 Q1982.15 1562.38 1985.3 1563.24 Q1988.45 1564.07 1991.54 1564.07 Q1995.68 1564.07 1997.9 1562.66 Q2000.13 1561.23 2000.13 1558.65 Q2000.13 1556.27 1998.51 1554.99 Q1996.92 1553.72 1991.48 1552.54 L1989.44 1552.07 Q1984 1550.92 1981.58 1548.56 Q1979.16 1546.18 1979.16 1542.04 Q1979.16 1537.01 1982.72 1534.27 Q1986.29 1531.54 1992.84 1531.54 Q1996.09 1531.54 1998.96 1532.01 Q2001.82 1532.49 2004.24 1533.45 Z" fill="#000000" fill-rule="nonzero" fill-opacity="1" /><path clip-path="url(#clip060)" d="M2014.55 1518.58 L2019.64 1518.58 Q2024.42 1526.09 2026.77 1533.29 Q2029.16 1540.48 2029.16 1547.58 Q2029.16 1554.71 2026.77 1561.93 Q2024.42 1569.16 2019.64 1576.64 L2014.55 1576.64 Q2018.78 1569.35 2020.85 1562.16 Q2022.95 1554.93 2022.95 1547.58 Q2022.95 1540.23 2020.85 1533.06 Q2018.78 1525.9 2014.55 1518.58 Z" fill="#000000" fill-rule="nonzero" fill-opacity="1" /><polyline clip-path="url(#clip065)" style="stroke:#000000; stroke-linecap:round; stroke-linejoin:round; stroke-width:2; stroke-opacity:0.1; fill:none" points="1445.91,1358.36 2352.76,1358.36 "/>
<polyline clip-path="url(#clip065)" style="stroke:#000000; stroke-linecap:round; stroke-linejoin:round; stroke-width:2; stroke-opacity:0.1; fill:none" points="1445.91,1269.94 2352.76,1269.94 "/>
<polyline clip-path="url(#clip065)" style="stroke:#000000; stroke-linecap:round; stroke-linejoin:round; stroke-width:2; stroke-opacity:0.1; fill:none" points="1445.91,1181.52 2352.76,1181.52 "/>
<polyline clip-path="url(#clip065)" style="stroke:#000000; stroke-linecap:round; stroke-linejoin:round; stroke-width:2; stroke-opacity:0.1; fill:none" points="1445.91,1093.1 2352.76,1093.1 "/>
<polyline clip-path="url(#clip060)" style="stroke:#000000; stroke-linecap:round; stroke-linejoin:round; stroke-width:4; stroke-opacity:1; fill:none" points="1445.91,1423.18 1445.91,1071.73 "/>
<polyline clip-path="url(#clip060)" style="stroke:#000000; stroke-linecap:round; stroke-linejoin:round; stroke-width:4; stroke-opacity:1; fill:none" points="1445.91,1358.36 1464.81,1358.36 "/>
<polyline clip-path="url(#clip060)" style="stroke:#000000; stroke-linecap:round; stroke-linejoin:round; stroke-width:4; stroke-opacity:1; fill:none" points="1445.91,1269.94 1464.81,1269.94 "/>
<polyline clip-path="url(#clip060)" style="stroke:#000000; stroke-linecap:round; stroke-linejoin:round; stroke-width:4; stroke-opacity:1; fill:none" points="1445.91,1181.52 1464.81,1181.52 "/>
<polyline clip-path="url(#clip060)" style="stroke:#000000; stroke-linecap:round; stroke-linejoin:round; stroke-width:4; stroke-opacity:1; fill:none" points="1445.91,1093.1 1464.81,1093.1 "/>
<path clip-path="url(#clip060)" d="M1272.32 1358.81 L1301.99 1358.81 L1301.99 1362.75 L1272.32 1362.75 L1272.32 1358.81 Z" fill="#000000" fill-rule="nonzero" fill-opacity="1" /><path clip-path="url(#clip060)" d="M1322.08 1344.16 Q1318.47 1344.16 1316.64 1347.72 Q1314.84 1351.27 1314.84 1358.39 Q1314.84 1365.5 1316.64 1369.07 Q1318.47 1372.61 1322.08 1372.61 Q1325.72 1372.61 1327.52 1369.07 Q1329.35 1365.5 1329.35 1358.39 Q1329.35 1351.27 1327.52 1347.72 Q1325.72 1344.16 1322.08 1344.16 M1322.08 1340.46 Q1327.89 1340.46 1330.95 1345.06 Q1334.03 1349.64 1334.03 1358.39 Q1334.03 1367.12 1330.95 1371.73 Q1327.89 1376.31 1322.08 1376.31 Q1316.27 1376.31 1313.2 1371.73 Q1310.14 1367.12 1310.14 1358.39 Q1310.14 1349.64 1313.2 1345.06 Q1316.27 1340.46 1322.08 1340.46 Z" fill="#000000" fill-rule="nonzero" fill-opacity="1" /><path clip-path="url(#clip060)" d="M1342.25 1369.76 L1347.13 1369.76 L1347.13 1375.64 L1342.25 1375.64 L1342.25 1369.76 Z" fill="#000000" fill-rule="nonzero" fill-opacity="1" /><path clip-path="url(#clip060)" d="M1367.32 1344.16 Q1363.7 1344.16 1361.88 1347.72 Q1360.07 1351.27 1360.07 1358.39 Q1360.07 1365.5 1361.88 1369.07 Q1363.7 1372.61 1367.32 1372.61 Q1370.95 1372.61 1372.76 1369.07 Q1374.58 1365.5 1374.58 1358.39 Q1374.58 1351.27 1372.76 1347.72 Q1370.95 1344.16 1367.32 1344.16 M1367.32 1340.46 Q1373.13 1340.46 1376.18 1345.06 Q1379.26 1349.64 1379.26 1358.39 Q1379.26 1367.12 1376.18 1371.73 Q1373.13 1376.31 1367.32 1376.31 Q1361.51 1376.31 1358.43 1371.73 Q1355.37 1367.12 1355.37 1358.39 Q1355.37 1349.64 1358.43 1345.06 Q1361.51 1340.46 1367.32 1340.46 Z" fill="#000000" fill-rule="nonzero" fill-opacity="1" /><path clip-path="url(#clip060)" d="M1400.32 1345.15 L1388.52 1363.6 L1400.32 1363.6 L1400.32 1345.15 M1399.1 1341.08 L1404.98 1341.08 L1404.98 1363.6 L1409.91 1363.6 L1409.91 1367.49 L1404.98 1367.49 L1404.98 1375.64 L1400.32 1375.64 L1400.32 1367.49 L1384.72 1367.49 L1384.72 1362.98 L1399.1 1341.08 Z" fill="#000000" fill-rule="nonzero" fill-opacity="1" /><path clip-path="url(#clip060)" d="M1274.4 1270.39 L1304.08 1270.39 L1304.08 1274.33 L1274.4 1274.33 L1274.4 1270.39 Z" fill="#000000" fill-rule="nonzero" fill-opacity="1" /><path clip-path="url(#clip060)" d="M1324.17 1255.74 Q1320.56 1255.74 1318.73 1259.3 Q1316.92 1262.85 1316.92 1269.98 Q1316.92 1277.08 1318.73 1280.65 Q1320.56 1284.19 1324.17 1284.19 Q1327.8 1284.19 1329.61 1280.65 Q1331.44 1277.08 1331.44 1269.98 Q1331.44 1262.85 1329.61 1259.3 Q1327.8 1255.74 1324.17 1255.74 M1324.17 1252.04 Q1329.98 1252.04 1333.03 1256.64 Q1336.11 1261.23 1336.11 1269.98 Q1336.11 1278.7 1333.03 1283.31 Q1329.98 1287.89 1324.17 1287.89 Q1318.36 1287.89 1315.28 1283.31 Q1312.22 1278.7 1312.22 1269.98 Q1312.22 1261.23 1315.28 1256.64 Q1318.36 1252.04 1324.17 1252.04 Z" fill="#000000" fill-rule="nonzero" fill-opacity="1" /><path clip-path="url(#clip060)" d="M1344.33 1281.34 L1349.21 1281.34 L1349.21 1287.22 L1344.33 1287.22 L1344.33 1281.34 Z" fill="#000000" fill-rule="nonzero" fill-opacity="1" /><path clip-path="url(#clip060)" d="M1369.4 1255.74 Q1365.79 1255.74 1363.96 1259.3 Q1362.15 1262.85 1362.15 1269.98 Q1362.15 1277.08 1363.96 1280.65 Q1365.79 1284.19 1369.4 1284.19 Q1373.03 1284.19 1374.84 1280.65 Q1376.67 1277.08 1376.67 1269.98 Q1376.67 1262.85 1374.84 1259.3 Q1373.03 1255.74 1369.4 1255.74 M1369.4 1252.04 Q1375.21 1252.04 1378.26 1256.64 Q1381.34 1261.23 1381.34 1269.98 Q1381.34 1278.7 1378.26 1283.31 Q1375.21 1287.89 1369.4 1287.89 Q1363.59 1287.89 1360.51 1283.31 Q1357.45 1278.7 1357.45 1269.98 Q1357.45 1261.23 1360.51 1256.64 Q1363.59 1252.04 1369.4 1252.04 Z" fill="#000000" fill-rule="nonzero" fill-opacity="1" /><path clip-path="url(#clip060)" d="M1393.59 1283.29 L1409.91 1283.29 L1409.91 1287.22 L1387.96 1287.22 L1387.96 1283.29 Q1390.63 1280.53 1395.21 1275.9 Q1399.82 1271.25 1401 1269.91 Q1403.24 1267.38 1404.12 1265.65 Q1405.02 1263.89 1405.02 1262.2 Q1405.02 1259.44 1403.08 1257.71 Q1401.16 1255.97 1398.06 1255.97 Q1395.86 1255.97 1393.4 1256.73 Q1390.97 1257.5 1388.19 1259.05 L1388.19 1254.33 Q1391.02 1253.19 1393.47 1252.61 Q1395.93 1252.04 1397.96 1252.04 Q1403.33 1252.04 1406.53 1254.72 Q1409.72 1257.41 1409.72 1261.9 Q1409.72 1264.03 1408.91 1265.95 Q1408.13 1267.85 1406.02 1270.44 Q1405.44 1271.11 1402.34 1274.33 Q1399.24 1277.52 1393.59 1283.29 Z" fill="#000000" fill-rule="nonzero" fill-opacity="1" /><path clip-path="url(#clip060)" d="M1322.57 1167.32 Q1318.96 1167.32 1317.13 1170.88 Q1315.32 1174.43 1315.32 1181.56 Q1315.32 1188.66 1317.13 1192.23 Q1318.96 1195.77 1322.57 1195.77 Q1326.2 1195.77 1328.01 1192.23 Q1329.84 1188.66 1329.84 1181.56 Q1329.84 1174.43 1328.01 1170.88 Q1326.2 1167.32 1322.57 1167.32 M1322.57 1163.62 Q1328.38 1163.62 1331.44 1168.22 Q1334.51 1172.81 1334.51 1181.56 Q1334.51 1190.28 1331.44 1194.89 Q1328.38 1199.47 1322.57 1199.47 Q1316.76 1199.47 1313.68 1194.89 Q1310.63 1190.28 1310.63 1181.56 Q1310.63 1172.81 1313.68 1168.22 Q1316.76 1163.62 1322.57 1163.62 Z" fill="#000000" fill-rule="nonzero" fill-opacity="1" /><path clip-path="url(#clip060)" d="M1342.73 1192.92 L1347.62 1192.92 L1347.62 1198.8 L1342.73 1198.8 L1342.73 1192.92 Z" fill="#000000" fill-rule="nonzero" fill-opacity="1" /><path clip-path="url(#clip060)" d="M1367.8 1167.32 Q1364.19 1167.32 1362.36 1170.88 Q1360.56 1174.43 1360.56 1181.56 Q1360.56 1188.66 1362.36 1192.23 Q1364.19 1195.77 1367.8 1195.77 Q1371.44 1195.77 1373.24 1192.23 Q1375.07 1188.66 1375.07 1181.56 Q1375.07 1174.43 1373.24 1170.88 Q1371.44 1167.32 1367.8 1167.32 M1367.8 1163.62 Q1373.61 1163.62 1376.67 1168.22 Q1379.75 1172.81 1379.75 1181.56 Q1379.75 1190.28 1376.67 1194.89 Q1373.61 1199.47 1367.8 1199.47 Q1361.99 1199.47 1358.91 1194.89 Q1355.86 1190.28 1355.86 1181.56 Q1355.86 1172.81 1358.91 1168.22 Q1361.99 1163.62 1367.8 1163.62 Z" fill="#000000" fill-rule="nonzero" fill-opacity="1" /><path clip-path="url(#clip060)" d="M1397.96 1167.32 Q1394.35 1167.32 1392.52 1170.88 Q1390.72 1174.43 1390.72 1181.56 Q1390.72 1188.66 1392.52 1192.23 Q1394.35 1195.77 1397.96 1195.77 Q1401.6 1195.77 1403.4 1192.23 Q1405.23 1188.66 1405.23 1181.56 Q1405.23 1174.43 1403.4 1170.88 Q1401.6 1167.32 1397.96 1167.32 M1397.96 1163.62 Q1403.77 1163.62 1406.83 1168.22 Q1409.91 1172.81 1409.91 1181.56 Q1409.91 1190.28 1406.83 1194.89 Q1403.77 1199.47 1397.96 1199.47 Q1392.15 1199.47 1389.07 1194.89 Q1386.02 1190.28 1386.02 1181.56 Q1386.02 1172.81 1389.07 1168.22 Q1392.15 1163.62 1397.96 1163.62 Z" fill="#000000" fill-rule="nonzero" fill-opacity="1" /><path clip-path="url(#clip060)" d="M1324.17 1078.9 Q1320.56 1078.9 1318.73 1082.46 Q1316.92 1086.01 1316.92 1093.14 Q1316.92 1100.24 1318.73 1103.81 Q1320.56 1107.35 1324.17 1107.35 Q1327.8 1107.35 1329.61 1103.81 Q1331.44 1100.24 1331.44 1093.14 Q1331.44 1086.01 1329.61 1082.46 Q1327.8 1078.9 1324.17 1078.9 M1324.17 1075.2 Q1329.98 1075.2 1333.03 1079.8 Q1336.11 1084.39 1336.11 1093.14 Q1336.11 1101.86 1333.03 1106.47 Q1329.98 1111.05 1324.17 1111.05 Q1318.36 1111.05 1315.28 1106.47 Q1312.22 1101.86 1312.22 1093.14 Q1312.22 1084.39 1315.28 1079.8 Q1318.36 1075.2 1324.17 1075.2 Z" fill="#000000" fill-rule="nonzero" fill-opacity="1" /><path clip-path="url(#clip060)" d="M1344.33 1104.5 L1349.21 1104.5 L1349.21 1110.38 L1344.33 1110.38 L1344.33 1104.5 Z" fill="#000000" fill-rule="nonzero" fill-opacity="1" /><path clip-path="url(#clip060)" d="M1369.4 1078.9 Q1365.79 1078.9 1363.96 1082.46 Q1362.15 1086.01 1362.15 1093.14 Q1362.15 1100.24 1363.96 1103.81 Q1365.79 1107.35 1369.4 1107.35 Q1373.03 1107.35 1374.84 1103.81 Q1376.67 1100.24 1376.67 1093.14 Q1376.67 1086.01 1374.84 1082.46 Q1373.03 1078.9 1369.4 1078.9 M1369.4 1075.2 Q1375.21 1075.2 1378.26 1079.8 Q1381.34 1084.39 1381.34 1093.14 Q1381.34 1101.86 1378.26 1106.47 Q1375.21 1111.05 1369.4 1111.05 Q1363.59 1111.05 1360.51 1106.47 Q1357.45 1101.86 1357.45 1093.14 Q1357.45 1084.39 1360.51 1079.8 Q1363.59 1075.2 1369.4 1075.2 Z" fill="#000000" fill-rule="nonzero" fill-opacity="1" /><path clip-path="url(#clip060)" d="M1393.59 1106.45 L1409.91 1106.45 L1409.91 1110.38 L1387.96 1110.38 L1387.96 1106.45 Q1390.63 1103.69 1395.21 1099.06 Q1399.82 1094.41 1401 1093.07 Q1403.24 1090.54 1404.12 1088.81 Q1405.02 1087.05 1405.02 1085.36 Q1405.02 1082.6 1403.08 1080.87 Q1401.16 1079.13 1398.06 1079.13 Q1395.86 1079.13 1393.4 1079.89 Q1390.97 1080.66 1388.19 1082.21 L1388.19 1077.49 Q1391.02 1076.35 1393.47 1075.77 Q1395.93 1075.2 1397.96 1075.2 Q1403.33 1075.2 1406.53 1077.88 Q1409.72 1080.57 1409.72 1085.06 Q1409.72 1087.19 1408.91 1089.11 Q1408.13 1091.01 1406.02 1093.6 Q1405.44 1094.27 1402.34 1097.49 Q1399.24 1100.68 1393.59 1106.45 Z" fill="#000000" fill-rule="nonzero" fill-opacity="1" /><path clip-path="url(#clip060)" d="M1182.01 1250.93 L1182.94 1251.49 Q1181.43 1254.99 1179.02 1259.34 Q1181.43 1263.69 1182.94 1267.19 L1182.01 1267.73 Q1178.7 1263.92 1176.15 1259.34 Q1178.72 1254.72 1182.01 1250.93 Z" fill="#000000" fill-rule="nonzero" fill-opacity="1" /><path clip-path="url(#clip060)" d="M1194.31 1247.77 Q1196.12 1247.77 1197.15 1248.9 Q1198.14 1250.02 1198.14 1251.31 Q1198.14 1252.54 1197.44 1253.18 Q1196.73 1253.82 1195.83 1253.82 Q1194.6 1253.82 1193.54 1252.92 Q1192.48 1252.02 1192.25 1250.67 Q1191.41 1251.99 1191.41 1253.95 Q1191.41 1255.24 1192.09 1256.37 Q1192.77 1257.46 1193.64 1258.14 Q1194.51 1258.78 1195.76 1259.36 Q1196.99 1259.91 1197.73 1260.14 Q1198.43 1260.33 1199.21 1260.49 L1208.23 1262.74 Q1212.51 1263.84 1214.02 1263.84 Q1215.89 1263.84 1217.15 1262.94 Q1218.37 1262.04 1218.37 1260.23 Q1218.37 1259.52 1218.18 1258.72 Q1217.95 1257.91 1217.37 1256.88 Q1216.76 1255.82 1215.86 1254.89 Q1214.92 1253.92 1213.35 1252.99 Q1211.77 1252.05 1209.74 1251.44 Q1209.03 1251.25 1209.03 1250.6 Q1209.03 1249.8 1209.67 1249.8 Q1210.22 1249.8 1211.38 1250.25 Q1212.51 1250.67 1213.99 1251.6 Q1215.44 1252.5 1216.76 1253.69 Q1218.05 1254.89 1218.95 1256.66 Q1219.85 1258.43 1219.85 1260.36 Q1219.85 1263.13 1218.37 1264.97 Q1216.89 1266.8 1214.83 1267.48 Q1215.12 1267.64 1215.5 1267.87 Q1215.89 1268.09 1216.76 1268.77 Q1217.6 1269.41 1218.24 1270.15 Q1218.85 1270.89 1219.34 1272.05 Q1219.85 1273.18 1219.85 1274.4 Q1219.85 1275.95 1219.4 1277.33 Q1218.95 1278.69 1217.92 1279.65 Q1216.89 1280.62 1215.47 1280.62 Q1213.89 1280.62 1212.8 1279.56 Q1211.67 1278.46 1211.67 1276.98 Q1211.67 1276.05 1212.22 1275.3 Q1212.77 1274.53 1213.96 1274.53 Q1215.28 1274.53 1216.28 1275.43 Q1217.27 1276.34 1217.53 1277.62 Q1218.37 1276.3 1218.37 1274.34 Q1218.37 1272.21 1216.5 1270.54 Q1214.63 1268.86 1211.51 1268.06 Q1204.01 1266.06 1200.66 1265.29 Q1197.28 1264.52 1195.83 1264.52 Q1194.47 1264.52 1193.54 1264.87 Q1192.61 1265.22 1192.19 1265.84 Q1191.74 1266.42 1191.57 1266.96 Q1191.41 1267.48 1191.41 1268.06 Q1191.41 1269.02 1191.8 1270.12 Q1192.19 1271.18 1193.09 1272.47 Q1193.96 1273.73 1195.76 1274.92 Q1197.56 1276.11 1200.04 1276.92 Q1200.79 1277.08 1200.79 1277.78 Q1200.75 1278.56 1200.11 1278.56 Q1199.56 1278.56 1198.43 1278.14 Q1197.28 1277.69 1195.83 1276.79 Q1194.38 1275.85 1193.09 1274.66 Q1191.77 1273.44 1190.87 1271.67 Q1189.96 1269.86 1189.96 1267.93 Q1189.96 1267.06 1190.16 1266.22 Q1190.32 1265.35 1190.8 1264.32 Q1191.28 1263.26 1192.35 1262.33 Q1193.41 1261.39 1194.96 1260.81 Q1194.22 1260.43 1193.51 1259.91 Q1192.8 1259.36 1191.93 1258.53 Q1191.03 1257.66 1190.51 1256.46 Q1189.96 1255.24 1189.96 1253.89 Q1189.96 1252.57 1190.32 1251.28 Q1190.64 1249.99 1191.7 1248.9 Q1192.73 1247.77 1194.31 1247.77 Z" fill="#000000" fill-rule="nonzero" fill-opacity="1" /><path clip-path="url(#clip060)" d="M1231.9 1240.31 Q1230.52 1240.31 1229.87 1239.52 Q1229.22 1238.73 1229.22 1237.72 Q1229.22 1236.66 1229.92 1235.91 Q1230.59 1235.15 1231.79 1235.15 Q1233.07 1235.15 1233.79 1236.05 Q1234.51 1236.93 1234.33 1238.19 Q1236.18 1237.09 1237.02 1235.06 Q1237.85 1233.01 1237.85 1231.11 Q1237.85 1229.13 1236.14 1227.53 Q1234.42 1225.9 1230.23 1225.9 Q1226.67 1225.9 1224.62 1227.3 Q1222.57 1228.68 1222.57 1231.4 L1222.57 1233.43 Q1222.57 1234.13 1222.5 1234.34 Q1222.43 1234.54 1222.05 1234.54 Q1221.6 1234.54 1221.51 1233.84 Q1221.51 1233.14 1221.37 1232.04 Q1221.28 1229.35 1218.96 1227.93 Q1216.79 1226.65 1213.71 1226.65 Q1210.89 1226.65 1209.72 1228 Q1208.52 1229.33 1208.52 1231.07 Q1208.52 1232.69 1209.2 1234.47 Q1209.87 1236.25 1211.38 1237.22 Q1211.38 1234.36 1213.71 1234.36 Q1214.72 1234.36 1215.4 1235.01 Q1216.05 1235.64 1216.05 1236.7 Q1216.05 1237.72 1215.42 1238.39 Q1214.77 1239.07 1213.66 1239.07 Q1211.02 1239.07 1209.2 1236.73 Q1207.37 1234.36 1207.37 1230.89 Q1207.37 1227.46 1209.17 1224.93 Q1210.98 1222.39 1213.75 1222.39 Q1216.48 1222.39 1218.71 1224.19 Q1220.94 1225.99 1221.87 1228.86 Q1222.57 1225.34 1224.96 1223.24 Q1227.32 1221.15 1230.23 1221.15 Q1233.84 1221.15 1236.5 1223.99 Q1239.14 1226.83 1239.14 1230.98 Q1239.14 1234.81 1237.06 1237.56 Q1234.99 1240.31 1231.9 1240.31 Z" fill="#000000" fill-rule="nonzero" fill-opacity="1" /><polyline clip-path="url(#clip065)" style="stroke:#e26f46; stroke-linecap:round; stroke-linejoin:round; stroke-width:3; stroke-opacity:1; fill:none" stroke-dasharray="12, 6, 2, 6" points="1471.57,1181.52 1496.74,1181.52 1521.9,1272.54 1547.06,1081.68 1572.22,1241.62 1597.38,1413.23 1622.55,1308.36 1647.71,1382.78 1672.87,1332.54 1698.03,1256.25 1723.2,1299.58 1748.36,1248.17 1773.52,1210.34 1798.68,1177.65 1823.85,1202.2 1849.01,1203.36 1874.17,1228.09 1899.33,1154.51 1924.49,1221.41 1949.66,1190.41 1974.82,1214.82 1999.98,1164.47 2025.14,1232 2050.31,1213.55 2075.47,1154.49 2100.63,1178.41 2125.79,1156.57 2150.95,1234.78 2176.12,1169.34 2201.28,1136.94 2226.44,1155.9 2251.6,1171.44 2276.77,1204.92 2301.93,1169.66 2327.09,1189.85 "/>
</svg>
