<?xml version="1.0" encoding="utf-8"?>
<svg xmlns="http://www.w3.org/2000/svg" xmlns:xlink="http://www.w3.org/1999/xlink" width="600" height="400" viewBox="0 0 2400 1600">
<defs>
  <clipPath id="clip850">
    <rect x="0" y="0" width="2400" height="1600"/>
  </clipPath>
</defs>
<path clip-path="url(#clip850)" d="M0 1600 L2400 1600 L2400 0 L0 0  Z" fill="#ffffff" fill-rule="evenodd" fill-opacity="1"/>
<defs>
  <clipPath id="clip851">
    <rect x="480" y="0" width="1681" height="1600"/>
  </clipPath>
</defs>
<path clip-path="url(#clip850)" d="M277.621 1423.18 L1162.96 1423.18 L1162.96 47.2441 L277.621 47.2441  Z" fill="#ffffff" fill-rule="evenodd" fill-opacity="1"/>
<defs>
  <clipPath id="clip852">
    <rect x="277" y="47" width="886" height="1377"/>
  </clipPath>
</defs>
<polyline clip-path="url(#clip852)" style="stroke:#000000; stroke-linecap:round; stroke-linejoin:round; stroke-width:2; stroke-opacity:0.1; fill:none" points="302.677,1423.18 302.677,47.2441 "/>
<polyline clip-path="url(#clip852)" style="stroke:#000000; stroke-linecap:round; stroke-linejoin:round; stroke-width:2; stroke-opacity:0.1; fill:none" points="548.333,1423.18 548.333,47.2441 "/>
<polyline clip-path="url(#clip852)" style="stroke:#000000; stroke-linecap:round; stroke-linejoin:round; stroke-width:2; stroke-opacity:0.1; fill:none" points="793.989,1423.18 793.989,47.2441 "/>
<polyline clip-path="url(#clip852)" style="stroke:#000000; stroke-linecap:round; stroke-linejoin:round; stroke-width:2; stroke-opacity:0.1; fill:none" points="1039.64,1423.18 1039.64,47.2441 "/>
<polyline clip-path="url(#clip852)" style="stroke:#000000; stroke-linecap:round; stroke-linejoin:round; stroke-width:2; stroke-opacity:0.1; fill:none" points="277.621,1167.54 1162.96,1167.54 "/>
<polyline clip-path="url(#clip852)" style="stroke:#000000; stroke-linecap:round; stroke-linejoin:round; stroke-width:2; stroke-opacity:0.1; fill:none" points="277.621,897.204 1162.96,897.204 "/>
<polyline clip-path="url(#clip852)" style="stroke:#000000; stroke-linecap:round; stroke-linejoin:round; stroke-width:2; stroke-opacity:0.1; fill:none" points="277.621,626.864 1162.96,626.864 "/>
<polyline clip-path="url(#clip852)" style="stroke:#000000; stroke-linecap:round; stroke-linejoin:round; stroke-width:2; stroke-opacity:0.1; fill:none" points="277.621,356.525 1162.96,356.525 "/>
<polyline clip-path="url(#clip852)" style="stroke:#000000; stroke-linecap:round; stroke-linejoin:round; stroke-width:2; stroke-opacity:0.1; fill:none" points="277.621,86.1857 1162.96,86.1857 "/>
<polyline clip-path="url(#clip850)" style="stroke:#000000; stroke-linecap:round; stroke-linejoin:round; stroke-width:4; stroke-opacity:1; fill:none" points="277.621,1423.18 1162.96,1423.18 "/>
<polyline clip-path="url(#clip850)" style="stroke:#000000; stroke-linecap:round; stroke-linejoin:round; stroke-width:4; stroke-opacity:1; fill:none" points="302.677,1423.18 302.677,1404.28 "/>
<polyline clip-path="url(#clip850)" style="stroke:#000000; stroke-linecap:round; stroke-linejoin:round; stroke-width:4; stroke-opacity:1; fill:none" points="548.333,1423.18 548.333,1404.28 "/>
<polyline clip-path="url(#clip850)" style="stroke:#000000; stroke-linecap:round; stroke-linejoin:round; stroke-width:4; stroke-opacity:1; fill:none" points="793.989,1423.18 793.989,1404.28 "/>
<polyline clip-path="url(#clip850)" style="stroke:#000000; stroke-linecap:round; stroke-linejoin:round; stroke-width:4; stroke-opacity:1; fill:none" points="1039.64,1423.18 1039.64,1404.28 "/>
<path clip-path="url(#clip850)" d="M302.677 1454.1 Q299.066 1454.1 297.238 1457.66 Q295.432 1461.2 295.432 1468.33 Q295.432 1475.44 297.238 1479.01 Q299.066 1482.55 302.677 1482.55 Q306.312 1482.55 308.117 1479.01 Q309.946 1475.44 309.946 1468.33 Q309.946 1461.2 308.117 1457.66 Q306.312 1454.1 302.677 1454.1 M302.677 1450.39 Q308.488 1450.39 311.543 1455 Q314.622 1459.58 314.622 1468.33 Q314.622 1477.06 311.543 1481.67 Q308.488 1486.25 302.677 1486.25 Q296.867 1486.25 293.789 1481.67 Q290.733 1477.06 290.733 1468.33 Q290.733 1459.58 293.789 1455 Q296.867 1450.39 302.677 1450.39 Z" fill="#000000" fill-rule="nonzero" fill-opacity="1" /><path clip-path="url(#clip850)" d="M538.715 1481.64 L546.354 1481.64 L546.354 1455.28 L538.044 1456.95 L538.044 1452.69 L546.308 1451.02 L550.984 1451.02 L550.984 1481.64 L558.623 1481.64 L558.623 1485.58 L538.715 1485.58 L538.715 1481.64 Z" fill="#000000" fill-rule="nonzero" fill-opacity="1" /><path clip-path="url(#clip850)" d="M788.642 1481.64 L804.961 1481.64 L804.961 1485.58 L783.017 1485.58 L783.017 1481.64 Q785.679 1478.89 790.262 1474.26 Q794.869 1469.61 796.049 1468.27 Q798.295 1465.74 799.174 1464.01 Q800.077 1462.25 800.077 1460.56 Q800.077 1457.8 798.133 1456.07 Q796.211 1454.33 793.11 1454.33 Q790.91 1454.33 788.457 1455.09 Q786.026 1455.86 783.248 1457.41 L783.248 1452.69 Q786.073 1451.55 788.526 1450.97 Q790.98 1450.39 793.017 1450.39 Q798.387 1450.39 801.582 1453.08 Q804.776 1455.77 804.776 1460.26 Q804.776 1462.39 803.966 1464.31 Q803.179 1466.2 801.072 1468.8 Q800.494 1469.47 797.392 1472.69 Q794.29 1475.88 788.642 1481.64 Z" fill="#000000" fill-rule="nonzero" fill-opacity="1" /><path clip-path="url(#clip850)" d="M1043.89 1466.95 Q1047.25 1467.66 1049.12 1469.93 Q1051.02 1472.2 1051.02 1475.53 Q1051.02 1480.65 1047.5 1483.45 Q1043.99 1486.25 1037.5 1486.25 Q1035.33 1486.25 1033.01 1485.81 Q1030.72 1485.39 1028.27 1484.54 L1028.27 1480.02 Q1030.21 1481.16 1032.53 1481.74 Q1034.84 1482.32 1037.36 1482.32 Q1041.76 1482.32 1044.05 1480.58 Q1046.37 1478.84 1046.37 1475.53 Q1046.37 1472.48 1044.22 1470.77 Q1042.09 1469.03 1038.27 1469.03 L1034.24 1469.03 L1034.24 1465.19 L1038.45 1465.19 Q1041.9 1465.19 1043.73 1463.82 Q1045.56 1462.43 1045.56 1459.84 Q1045.56 1457.18 1043.66 1455.77 Q1041.79 1454.33 1038.27 1454.33 Q1036.35 1454.33 1034.15 1454.75 Q1031.95 1455.16 1029.31 1456.04 L1029.31 1451.88 Q1031.97 1451.14 1034.29 1450.77 Q1036.62 1450.39 1038.68 1450.39 Q1044.01 1450.39 1047.11 1452.83 Q1050.21 1455.23 1050.21 1459.35 Q1050.21 1462.22 1048.57 1464.21 Q1046.93 1466.18 1043.89 1466.95 Z" fill="#000000" fill-rule="nonzero" fill-opacity="1" /><path clip-path="url(#clip850)" d="M590.464 1520.52 L630.663 1520.52 L630.663 1525.93 L613.794 1525.93 L613.794 1568.04 L607.333 1568.04 L607.333 1525.93 L590.464 1525.93 L590.464 1520.52 Z" fill="#000000" fill-rule="nonzero" fill-opacity="1" /><path clip-path="url(#clip850)" d="M634.61 1532.4 L640.466 1532.4 L640.466 1568.04 L634.61 1568.04 L634.61 1532.4 M634.61 1518.52 L640.466 1518.52 L640.466 1525.93 L634.61 1525.93 L634.61 1518.52 Z" fill="#000000" fill-rule="nonzero" fill-opacity="1" /><path clip-path="url(#clip850)" d="M680.475 1539.24 Q682.671 1535.29 685.727 1533.41 Q688.782 1531.54 692.92 1531.54 Q698.49 1531.54 701.514 1535.45 Q704.537 1539.33 704.537 1546.53 L704.537 1568.04 L698.649 1568.04 L698.649 1546.72 Q698.649 1541.59 696.835 1539.11 Q695.021 1536.63 691.297 1536.63 Q686.745 1536.63 684.103 1539.65 Q681.462 1542.68 681.462 1547.9 L681.462 1568.04 L675.573 1568.04 L675.573 1546.72 Q675.573 1541.56 673.759 1539.11 Q671.945 1536.63 668.157 1536.63 Q663.669 1536.63 661.028 1539.68 Q658.386 1542.71 658.386 1547.9 L658.386 1568.04 L652.498 1568.04 L652.498 1532.4 L658.386 1532.4 L658.386 1537.93 Q660.391 1534.66 663.192 1533.1 Q665.993 1531.54 669.844 1531.54 Q673.727 1531.54 676.433 1533.51 Q679.17 1535.48 680.475 1539.24 Z" fill="#000000" fill-rule="nonzero" fill-opacity="1" /><path clip-path="url(#clip850)" d="M746.71 1548.76 L746.71 1551.62 L719.783 1551.62 Q720.165 1557.67 723.412 1560.85 Q726.69 1564 732.515 1564 Q735.888 1564 739.039 1563.17 Q742.222 1562.35 745.341 1560.69 L745.341 1566.23 Q742.19 1567.57 738.88 1568.27 Q735.57 1568.97 732.164 1568.97 Q723.634 1568.97 718.637 1564 Q713.672 1559.04 713.672 1550.57 Q713.672 1541.82 718.383 1536.69 Q723.125 1531.54 731.146 1531.54 Q738.339 1531.54 742.509 1536.18 Q746.71 1540.8 746.71 1548.76 M740.854 1547.04 Q740.79 1542.23 738.148 1539.37 Q735.538 1536.5 731.21 1536.5 Q726.308 1536.5 723.348 1539.27 Q720.42 1542.04 719.974 1547.07 L740.854 1547.04 Z" fill="#000000" fill-rule="nonzero" fill-opacity="1" /><path clip-path="url(#clip850)" d="M791.111 1518.58 Q786.846 1525.9 784.777 1533.06 Q782.708 1540.23 782.708 1547.58 Q782.708 1554.93 784.777 1562.16 Q786.878 1569.35 791.111 1576.64 L786.018 1576.64 Q781.244 1569.16 778.857 1561.93 Q776.502 1554.71 776.502 1547.58 Q776.502 1540.48 778.857 1533.29 Q781.212 1526.09 786.018 1518.58 L791.111 1518.58 Z" fill="#000000" fill-rule="nonzero" fill-opacity="1" /><path clip-path="url(#clip850)" d="M825.199 1533.45 L825.199 1538.98 Q822.717 1537.71 820.043 1537.07 Q817.369 1536.44 814.505 1536.44 Q810.144 1536.44 807.948 1537.77 Q805.784 1539.11 805.784 1541.79 Q805.784 1543.82 807.343 1545 Q808.903 1546.15 813.614 1547.2 L815.619 1547.64 Q821.857 1548.98 824.467 1551.43 Q827.109 1553.85 827.109 1558.21 Q827.109 1563.17 823.162 1566.07 Q819.247 1568.97 812.372 1568.97 Q809.508 1568.97 806.389 1568.39 Q803.301 1567.85 799.864 1566.74 L799.864 1560.69 Q803.11 1562.38 806.261 1563.24 Q809.412 1564.07 812.5 1564.07 Q816.637 1564.07 818.865 1562.66 Q821.093 1561.23 821.093 1558.65 Q821.093 1556.27 819.47 1554.99 Q817.879 1553.72 812.436 1552.54 L810.399 1552.07 Q804.956 1550.92 802.537 1548.56 Q800.118 1546.18 800.118 1542.04 Q800.118 1537.01 803.683 1534.27 Q807.248 1531.54 813.805 1531.54 Q817.051 1531.54 819.916 1532.01 Q822.78 1532.49 825.199 1533.45 Z" fill="#000000" fill-rule="nonzero" fill-opacity="1" /><path clip-path="url(#clip850)" d="M835.512 1518.58 L840.604 1518.58 Q845.379 1526.09 847.734 1533.29 Q850.121 1540.48 850.121 1547.58 Q850.121 1554.71 847.734 1561.93 Q845.379 1569.16 840.604 1576.64 L835.512 1576.64 Q839.745 1569.35 841.814 1562.16 Q843.914 1554.93 843.914 1547.58 Q843.914 1540.23 841.814 1533.06 Q839.745 1525.9 835.512 1518.58 Z" fill="#000000" fill-rule="nonzero" fill-opacity="1" /><polyline clip-path="url(#clip850)" style="stroke:#000000; stroke-linecap:round; stroke-linejoin:round; stroke-width:4; stroke-opacity:1; fill:none" points="277.621,1423.18 277.621,47.2441 "/>
<polyline clip-path="url(#clip850)" style="stroke:#000000; stroke-linecap:round; stroke-linejoin:round; stroke-width:4; stroke-opacity:1; fill:none" points="277.621,1167.54 296.518,1167.54 "/>
<polyline clip-path="url(#clip850)" style="stroke:#000000; stroke-linecap:round; stroke-linejoin:round; stroke-width:4; stroke-opacity:1; fill:none" points="277.621,897.204 296.518,897.204 "/>
<polyline clip-path="url(#clip850)" style="stroke:#000000; stroke-linecap:round; stroke-linejoin:round; stroke-width:4; stroke-opacity:1; fill:none" points="277.621,626.864 296.518,626.864 "/>
<polyline clip-path="url(#clip850)" style="stroke:#000000; stroke-linecap:round; stroke-linejoin:round; stroke-width:4; stroke-opacity:1; fill:none" points="277.621,356.525 296.518,356.525 "/>
<polyline clip-path="url(#clip850)" style="stroke:#000000; stroke-linecap:round; stroke-linejoin:round; stroke-width:4; stroke-opacity:1; fill:none" points="277.621,86.1857 296.518,86.1857 "/>
<path clip-path="url(#clip850)" d="M114.931 1180.89 L122.57 1180.89 L122.57 1154.52 L114.26 1156.19 L114.26 1151.93 L122.524 1150.26 L127.2 1150.26 L127.2 1180.89 L134.839 1180.89 L134.839 1184.82 L114.931 1184.82 L114.931 1180.89 Z" fill="#000000" fill-rule="nonzero" fill-opacity="1" /><path clip-path="url(#clip850)" d="M154.283 1168.41 Q150.95 1168.41 149.028 1170.19 Q147.13 1171.98 147.13 1175.1 Q147.13 1178.23 149.028 1180.01 Q150.95 1181.79 154.283 1181.79 Q157.616 1181.79 159.538 1180.01 Q161.459 1178.2 161.459 1175.1 Q161.459 1171.98 159.538 1170.19 Q157.64 1168.41 154.283 1168.41 M149.607 1166.42 Q146.598 1165.68 144.908 1163.62 Q143.241 1161.56 143.241 1158.6 Q143.241 1154.45 146.181 1152.05 Q149.144 1149.64 154.283 1149.64 Q159.445 1149.64 162.385 1152.05 Q165.325 1154.45 165.325 1158.6 Q165.325 1161.56 163.635 1163.62 Q161.968 1165.68 158.982 1166.42 Q162.362 1167.21 164.237 1169.5 Q166.135 1171.79 166.135 1175.1 Q166.135 1180.12 163.056 1182.81 Q160.001 1185.49 154.283 1185.49 Q148.566 1185.49 145.487 1182.81 Q142.431 1180.12 142.431 1175.1 Q142.431 1171.79 144.329 1169.5 Q146.228 1167.21 149.607 1166.42 M147.894 1159.04 Q147.894 1161.72 149.561 1163.23 Q151.251 1164.73 154.283 1164.73 Q157.292 1164.73 158.982 1163.23 Q160.695 1161.72 160.695 1159.04 Q160.695 1156.35 158.982 1154.85 Q157.292 1153.34 154.283 1153.34 Q151.251 1153.34 149.561 1154.85 Q147.894 1156.35 147.894 1159.04 Z" fill="#000000" fill-rule="nonzero" fill-opacity="1" /><path clip-path="url(#clip850)" d="M184.445 1153.34 Q180.834 1153.34 179.005 1156.91 Q177.2 1160.45 177.2 1167.58 Q177.2 1174.68 179.005 1178.25 Q180.834 1181.79 184.445 1181.79 Q188.079 1181.79 189.885 1178.25 Q191.713 1174.68 191.713 1167.58 Q191.713 1160.45 189.885 1156.91 Q188.079 1153.34 184.445 1153.34 M184.445 1149.64 Q190.255 1149.64 193.311 1154.24 Q196.389 1158.83 196.389 1167.58 Q196.389 1176.3 193.311 1180.91 Q190.255 1185.49 184.445 1185.49 Q178.635 1185.49 175.556 1180.91 Q172.501 1176.3 172.501 1167.58 Q172.501 1158.83 175.556 1154.24 Q178.635 1149.64 184.445 1149.64 Z" fill="#000000" fill-rule="nonzero" fill-opacity="1" /><path clip-path="url(#clip850)" d="M204.607 1178.94 L209.491 1178.94 L209.491 1184.82 L204.607 1184.82 L204.607 1178.94 Z" fill="#000000" fill-rule="nonzero" fill-opacity="1" /><path clip-path="url(#clip850)" d="M229.676 1153.34 Q226.065 1153.34 224.236 1156.91 Q222.431 1160.45 222.431 1167.58 Q222.431 1174.68 224.236 1178.25 Q226.065 1181.79 229.676 1181.79 Q233.31 1181.79 235.116 1178.25 Q236.945 1174.68 236.945 1167.58 Q236.945 1160.45 235.116 1156.91 Q233.31 1153.34 229.676 1153.34 M229.676 1149.64 Q235.486 1149.64 238.542 1154.24 Q241.621 1158.83 241.621 1167.58 Q241.621 1176.3 238.542 1180.91 Q235.486 1185.49 229.676 1185.49 Q223.866 1185.49 220.787 1180.91 Q217.732 1176.3 217.732 1167.58 Q217.732 1158.83 220.787 1154.24 Q223.866 1149.64 229.676 1149.64 Z" fill="#000000" fill-rule="nonzero" fill-opacity="1" /><path clip-path="url(#clip850)" d="M115.927 910.549 L123.566 910.549 L123.566 884.183 L115.256 885.85 L115.256 881.591 L123.519 879.924 L128.195 879.924 L128.195 910.549 L135.834 910.549 L135.834 914.484 L115.927 914.484 L115.927 910.549 Z" fill="#000000" fill-rule="nonzero" fill-opacity="1" /><path clip-path="url(#clip850)" d="M155.278 898.072 Q151.945 898.072 150.024 899.854 Q148.126 901.637 148.126 904.762 Q148.126 907.887 150.024 909.669 Q151.945 911.451 155.278 911.451 Q158.612 911.451 160.533 909.669 Q162.454 907.864 162.454 904.762 Q162.454 901.637 160.533 899.854 Q158.635 898.072 155.278 898.072 M150.603 896.081 Q147.593 895.34 145.904 893.28 Q144.237 891.22 144.237 888.257 Q144.237 884.114 147.177 881.706 Q150.14 879.299 155.278 879.299 Q160.44 879.299 163.38 881.706 Q166.32 884.114 166.32 888.257 Q166.32 891.22 164.63 893.28 Q162.964 895.34 159.978 896.081 Q163.357 896.868 165.232 899.16 Q167.13 901.452 167.13 904.762 Q167.13 909.785 164.052 912.47 Q160.996 915.155 155.278 915.155 Q149.561 915.155 146.482 912.47 Q143.427 909.785 143.427 904.762 Q143.427 901.452 145.325 899.16 Q147.223 896.868 150.603 896.081 M148.89 888.697 Q148.89 891.382 150.556 892.887 Q152.246 894.391 155.278 894.391 Q158.288 894.391 159.978 892.887 Q161.69 891.382 161.69 888.697 Q161.69 886.012 159.978 884.507 Q158.288 883.003 155.278 883.003 Q152.246 883.003 150.556 884.507 Q148.89 886.012 148.89 888.697 Z" fill="#000000" fill-rule="nonzero" fill-opacity="1" /><path clip-path="url(#clip850)" d="M179.468 910.549 L195.787 910.549 L195.787 914.484 L173.843 914.484 L173.843 910.549 Q176.505 907.794 181.089 903.164 Q185.695 898.512 186.876 897.169 Q189.121 894.646 190 892.91 Q190.903 891.151 190.903 889.461 Q190.903 886.706 188.959 884.97 Q187.038 883.234 183.936 883.234 Q181.737 883.234 179.283 883.998 Q176.852 884.762 174.075 886.313 L174.075 881.591 Q176.899 880.456 179.352 879.878 Q181.806 879.299 183.843 879.299 Q189.213 879.299 192.408 881.984 Q195.602 884.669 195.602 889.16 Q195.602 891.29 194.792 893.211 Q194.005 895.109 191.899 897.702 Q191.32 898.373 188.218 901.59 Q185.116 904.785 179.468 910.549 Z" fill="#000000" fill-rule="nonzero" fill-opacity="1" /><path clip-path="url(#clip850)" d="M205.602 908.604 L210.486 908.604 L210.486 914.484 L205.602 914.484 L205.602 908.604 Z" fill="#000000" fill-rule="nonzero" fill-opacity="1" /><path clip-path="url(#clip850)" d="M220.718 879.924 L239.074 879.924 L239.074 883.859 L225 883.859 L225 892.331 Q226.019 891.984 227.037 891.822 Q228.056 891.637 229.074 891.637 Q234.861 891.637 238.241 894.808 Q241.621 897.979 241.621 903.396 Q241.621 908.975 238.148 912.076 Q234.676 915.155 228.357 915.155 Q226.181 915.155 223.912 914.785 Q221.667 914.414 219.26 913.674 L219.26 908.975 Q221.343 910.109 223.565 910.664 Q225.787 911.22 228.264 911.22 Q232.269 911.22 234.607 909.114 Q236.945 907.007 236.945 903.396 Q236.945 899.785 234.607 897.678 Q232.269 895.572 228.264 895.572 Q226.389 895.572 224.514 895.989 Q222.662 896.405 220.718 897.285 L220.718 879.924 Z" fill="#000000" fill-rule="nonzero" fill-opacity="1" /><path clip-path="url(#clip850)" d="M114.931 640.209 L122.57 640.209 L122.57 613.844 L114.26 615.51 L114.26 611.251 L122.524 609.584 L127.2 609.584 L127.2 640.209 L134.839 640.209 L134.839 644.144 L114.931 644.144 L114.931 640.209 Z" fill="#000000" fill-rule="nonzero" fill-opacity="1" /><path clip-path="url(#clip850)" d="M154.283 627.733 Q150.95 627.733 149.028 629.515 Q147.13 631.297 147.13 634.422 Q147.13 637.547 149.028 639.33 Q150.95 641.112 154.283 641.112 Q157.616 641.112 159.538 639.33 Q161.459 637.524 161.459 634.422 Q161.459 631.297 159.538 629.515 Q157.64 627.733 154.283 627.733 M149.607 625.742 Q146.598 625.001 144.908 622.941 Q143.241 620.881 143.241 617.918 Q143.241 613.774 146.181 611.367 Q149.144 608.959 154.283 608.959 Q159.445 608.959 162.385 611.367 Q165.325 613.774 165.325 617.918 Q165.325 620.881 163.635 622.941 Q161.968 625.001 158.982 625.742 Q162.362 626.529 164.237 628.82 Q166.135 631.112 166.135 634.422 Q166.135 639.445 163.056 642.131 Q160.001 644.816 154.283 644.816 Q148.566 644.816 145.487 642.131 Q142.431 639.445 142.431 634.422 Q142.431 631.112 144.329 628.82 Q146.228 626.529 149.607 625.742 M147.894 618.358 Q147.894 621.043 149.561 622.547 Q151.251 624.052 154.283 624.052 Q157.292 624.052 158.982 622.547 Q160.695 621.043 160.695 618.358 Q160.695 615.672 158.982 614.168 Q157.292 612.663 154.283 612.663 Q151.251 612.663 149.561 614.168 Q147.894 615.672 147.894 618.358 Z" fill="#000000" fill-rule="nonzero" fill-opacity="1" /><path clip-path="url(#clip850)" d="M174.491 609.584 L192.848 609.584 L192.848 613.52 L178.774 613.52 L178.774 621.992 Q179.792 621.645 180.811 621.483 Q181.829 621.297 182.848 621.297 Q188.635 621.297 192.014 624.469 Q195.394 627.64 195.394 633.057 Q195.394 638.635 191.922 641.737 Q188.45 644.816 182.13 644.816 Q179.954 644.816 177.686 644.445 Q175.44 644.075 173.033 643.334 L173.033 638.635 Q175.116 639.769 177.339 640.325 Q179.561 640.881 182.038 640.881 Q186.042 640.881 188.38 638.774 Q190.718 636.668 190.718 633.057 Q190.718 629.445 188.38 627.339 Q186.042 625.233 182.038 625.233 Q180.163 625.233 178.288 625.649 Q176.436 626.066 174.491 626.945 L174.491 609.584 Z" fill="#000000" fill-rule="nonzero" fill-opacity="1" /><path clip-path="url(#clip850)" d="M204.607 638.265 L209.491 638.265 L209.491 644.144 L204.607 644.144 L204.607 638.265 Z" fill="#000000" fill-rule="nonzero" fill-opacity="1" /><path clip-path="url(#clip850)" d="M229.676 612.663 Q226.065 612.663 224.236 616.228 Q222.431 619.77 222.431 626.899 Q222.431 634.006 224.236 637.57 Q226.065 641.112 229.676 641.112 Q233.31 641.112 235.116 637.57 Q236.945 634.006 236.945 626.899 Q236.945 619.77 235.116 616.228 Q233.31 612.663 229.676 612.663 M229.676 608.959 Q235.486 608.959 238.542 613.566 Q241.621 618.149 241.621 626.899 Q241.621 635.626 238.542 640.232 Q235.486 644.816 229.676 644.816 Q223.866 644.816 220.787 640.232 Q217.732 635.626 217.732 626.899 Q217.732 618.149 220.787 613.566 Q223.866 608.959 229.676 608.959 Z" fill="#000000" fill-rule="nonzero" fill-opacity="1" /><path clip-path="url(#clip850)" d="M115.927 369.87 L123.566 369.87 L123.566 343.504 L115.256 345.171 L115.256 340.912 L123.519 339.245 L128.195 339.245 L128.195 369.87 L135.834 369.87 L135.834 373.805 L115.927 373.805 L115.927 369.87 Z" fill="#000000" fill-rule="nonzero" fill-opacity="1" /><path clip-path="url(#clip850)" d="M155.278 357.393 Q151.945 357.393 150.024 359.176 Q148.126 360.958 148.126 364.083 Q148.126 367.208 150.024 368.99 Q151.945 370.773 155.278 370.773 Q158.612 370.773 160.533 368.99 Q162.454 367.185 162.454 364.083 Q162.454 360.958 160.533 359.176 Q158.635 357.393 155.278 357.393 M150.603 355.402 Q147.593 354.662 145.904 352.601 Q144.237 350.541 144.237 347.578 Q144.237 343.435 147.177 341.027 Q150.14 338.62 155.278 338.62 Q160.44 338.62 163.38 341.027 Q166.32 343.435 166.32 347.578 Q166.32 350.541 164.63 352.601 Q162.964 354.662 159.978 355.402 Q163.357 356.189 165.232 358.481 Q167.13 360.773 167.13 364.083 Q167.13 369.106 164.052 371.791 Q160.996 374.476 155.278 374.476 Q149.561 374.476 146.482 371.791 Q143.427 369.106 143.427 364.083 Q143.427 360.773 145.325 358.481 Q147.223 356.189 150.603 355.402 M148.89 348.018 Q148.89 350.703 150.556 352.208 Q152.246 353.713 155.278 353.713 Q158.288 353.713 159.978 352.208 Q161.69 350.703 161.69 348.018 Q161.69 345.333 159.978 343.828 Q158.288 342.324 155.278 342.324 Q152.246 342.324 150.556 343.828 Q148.89 345.333 148.89 348.018 Z" fill="#000000" fill-rule="nonzero" fill-opacity="1" /><path clip-path="url(#clip850)" d="M174.26 339.245 L196.482 339.245 L196.482 341.236 L183.936 373.805 L179.051 373.805 L190.857 343.18 L174.26 343.18 L174.26 339.245 Z" fill="#000000" fill-rule="nonzero" fill-opacity="1" /><path clip-path="url(#clip850)" d="M205.602 367.925 L210.486 367.925 L210.486 373.805 L205.602 373.805 L205.602 367.925 Z" fill="#000000" fill-rule="nonzero" fill-opacity="1" /><path clip-path="url(#clip850)" d="M220.718 339.245 L239.074 339.245 L239.074 343.18 L225 343.18 L225 351.652 Q226.019 351.305 227.037 351.143 Q228.056 350.958 229.074 350.958 Q234.861 350.958 238.241 354.129 Q241.621 357.301 241.621 362.717 Q241.621 368.296 238.148 371.398 Q234.676 374.476 228.357 374.476 Q226.181 374.476 223.912 374.106 Q221.667 373.736 219.26 372.995 L219.26 368.296 Q221.343 369.43 223.565 369.986 Q225.787 370.541 228.264 370.541 Q232.269 370.541 234.607 368.435 Q236.945 366.328 236.945 362.717 Q236.945 359.106 234.607 357 Q232.269 354.893 228.264 354.893 Q226.389 354.893 224.514 355.31 Q222.662 355.726 220.718 356.606 L220.718 339.245 Z" fill="#000000" fill-rule="nonzero" fill-opacity="1" /><path clip-path="url(#clip850)" d="M114.931 99.5305 L122.57 99.5305 L122.57 73.1649 L114.26 74.8316 L114.26 70.5723 L122.524 68.9057 L127.2 68.9057 L127.2 99.5305 L134.839 99.5305 L134.839 103.466 L114.931 103.466 L114.931 99.5305 Z" fill="#000000" fill-rule="nonzero" fill-opacity="1" /><path clip-path="url(#clip850)" d="M144.422 102.748 L144.422 98.4888 Q146.181 99.3222 147.987 99.762 Q149.792 100.202 151.528 100.202 Q156.158 100.202 158.589 97.1 Q161.042 93.975 161.39 87.6324 Q160.047 89.6232 157.987 90.688 Q155.927 91.7528 153.427 91.7528 Q148.241 91.7528 145.209 88.6278 Q142.2 85.4797 142.2 80.0399 Q142.2 74.7158 145.348 71.4983 Q148.496 68.2807 153.728 68.2807 Q159.723 68.2807 162.871 72.8871 Q166.042 77.4704 166.042 86.2204 Q166.042 94.3916 162.153 99.2759 Q158.288 104.137 151.737 104.137 Q149.978 104.137 148.172 103.79 Q146.366 103.443 144.422 102.748 M153.728 88.0954 Q156.876 88.0954 158.704 85.9426 Q160.556 83.7899 160.556 80.0399 Q160.556 76.313 158.704 74.1603 Q156.876 71.9844 153.728 71.9844 Q150.579 71.9844 148.728 74.1603 Q146.899 76.313 146.899 80.0399 Q146.899 83.7899 148.728 85.9426 Q150.579 88.0954 153.728 88.0954 Z" fill="#000000" fill-rule="nonzero" fill-opacity="1" /><path clip-path="url(#clip850)" d="M184.445 71.9844 Q180.834 71.9844 179.005 75.5492 Q177.2 79.0908 177.2 86.2204 Q177.2 93.3268 179.005 96.8916 Q180.834 100.433 184.445 100.433 Q188.079 100.433 189.885 96.8916 Q191.713 93.3268 191.713 86.2204 Q191.713 79.0908 189.885 75.5492 Q188.079 71.9844 184.445 71.9844 M184.445 68.2807 Q190.255 68.2807 193.311 72.8871 Q196.389 77.4704 196.389 86.2204 Q196.389 94.9472 193.311 99.5537 Q190.255 104.137 184.445 104.137 Q178.635 104.137 175.556 99.5537 Q172.501 94.9472 172.501 86.2204 Q172.501 77.4704 175.556 72.8871 Q178.635 68.2807 184.445 68.2807 Z" fill="#000000" fill-rule="nonzero" fill-opacity="1" /><path clip-path="url(#clip850)" d="M204.607 97.5861 L209.491 97.5861 L209.491 103.466 L204.607 103.466 L204.607 97.5861 Z" fill="#000000" fill-rule="nonzero" fill-opacity="1" /><path clip-path="url(#clip850)" d="M229.676 71.9844 Q226.065 71.9844 224.236 75.5492 Q222.431 79.0908 222.431 86.2204 Q222.431 93.3268 224.236 96.8916 Q226.065 100.433 229.676 100.433 Q233.31 100.433 235.116 96.8916 Q236.945 93.3268 236.945 86.2204 Q236.945 79.0908 235.116 75.5492 Q233.31 71.9844 229.676 71.9844 M229.676 68.2807 Q235.486 68.2807 238.542 72.8871 Q241.621 77.4704 241.621 86.2204 Q241.621 94.9472 238.542 99.5537 Q235.486 104.137 229.676 104.137 Q223.866 104.137 220.787 99.5537 Q217.732 94.9472 217.732 86.2204 Q217.732 77.4704 220.787 72.8871 Q223.866 68.2807 229.676 68.2807 Z" fill="#000000" fill-rule="nonzero" fill-opacity="1" /><path clip-path="url(#clip850)" d="M39.4334 772.564 Q44.844 772.564 50.9309 774.303 Q56.9856 776.01 61.8809 778.715 Q66.744 781.42 69.9646 784.963 Q73.153 788.505 73.153 791.887 Q73.153 794.045 71.9613 795.655 Q70.7375 797.233 68.7085 798.103 Q66.6474 798.972 64.393 799.391 Q62.1063 799.81 59.6265 799.81 Q55.9228 799.81 51.8971 799.005 Q47.8391 798.199 44.1677 796.847 Q40.464 795.494 37.1146 793.594 Q33.733 791.694 31.2853 789.6 Q28.8055 787.475 27.3562 785.092 Q25.907 782.708 25.907 780.486 Q25.907 778.876 26.6155 777.588 Q27.2918 776.267 28.4834 775.43 Q29.6428 774.593 31.0277 774.013 Q32.4125 773.401 34.0228 773.111 Q35.6009 772.821 36.9214 772.692 Q38.2096 772.564 39.4334 772.564 M35.3433 776.911 Q33.7008 776.911 32.477 777.04 Q31.2209 777.169 29.9649 777.523 Q28.7089 777.878 28.0325 778.65 Q27.3562 779.391 27.3562 780.551 Q27.3562 783.932 34.2805 787.733 Q36.4383 788.956 39.369 790.051 Q42.2997 791.146 43.6846 791.533 Q45.0694 791.919 48.4833 792.821 L48.4833 779.037 Q39.6911 776.911 35.3433 776.911 M50.5766 779.617 L50.5766 793.336 Q58.6281 795.462 63.6522 795.462 Q68.0322 795.462 69.868 794.56 Q71.6715 793.626 71.6715 791.887 Q71.6715 789.89 69.6747 788.022 Q67.6458 786.154 63.9743 784.254 Q59.2078 781.742 50.5766 779.617 Z" fill="#000000" fill-rule="nonzero" fill-opacity="1" /><path clip-path="url(#clip850)" d="M22.9507 728.256 Q30.2712 732.521 37.4327 734.59 Q44.5941 736.658 51.9465 736.658 Q59.2989 736.658 66.5239 734.59 Q73.7172 732.489 81.0059 728.256 L81.0059 733.348 Q73.5262 738.123 66.3011 740.51 Q59.0761 742.865 51.9465 742.865 Q44.8487 742.865 37.6555 740.51 Q30.4622 738.154 22.9507 733.348 L22.9507 728.256 Z" fill="#000000" fill-rule="nonzero" fill-opacity="1" /><path clip-path="url(#clip850)" d="M28.1387 706.74 Q28.1387 709.286 29.9211 711.036 Q31.6717 712.787 34.218 712.787 Q36.7324 712.787 38.483 711.036 Q40.2017 709.286 40.2017 706.74 Q40.2017 704.193 38.483 702.443 Q36.7324 700.692 34.218 700.692 Q31.7035 700.692 29.9211 702.475 Q28.1387 704.225 28.1387 706.74 M24.0328 706.74 Q24.0328 704.703 24.8286 702.825 Q25.5924 700.947 27.0566 699.578 Q28.4888 698.114 30.3031 697.382 Q32.1173 696.65 34.218 696.65 Q38.4193 696.65 41.3476 699.61 Q44.244 702.538 44.244 706.803 Q44.244 711.1 41.3794 713.965 Q38.5148 716.829 34.218 716.829 Q29.953 716.829 26.9929 713.901 Q24.0328 710.973 24.0328 706.74 Z" fill="#000000" fill-rule="nonzero" fill-opacity="1" /><path clip-path="url(#clip850)" d="M22.9507 685.224 L22.9507 680.131 Q30.4622 675.357 37.6555 673.001 Q44.8487 670.614 51.9465 670.614 Q59.0761 670.614 66.3011 673.001 Q73.5262 675.357 81.0059 680.131 L81.0059 685.224 Q73.7172 680.99 66.5239 678.921 Q59.2989 676.821 51.9465 676.821 Q44.5941 676.821 37.4327 678.921 Q30.2712 680.99 22.9507 685.224 Z" fill="#000000" fill-rule="nonzero" fill-opacity="1" /><polyline clip-path="url(#clip852)" style="stroke:#009af9; stroke-linecap:round; stroke-linejoin:round; stroke-width:4; stroke-opacity:1; fill:none" points="302.677,86.1857 327.243,526.142 351.809,1095.24 376.374,1314.44 400.94,1371.36 425.505,1384.24 450.071,1376.4 474.637,1358.53 499.202,1336.17 523.768,1312.9 548.333,1290.71 572.899,1270.59 597.464,1252.93 622.03,1237.78 646.596,1224.98 671.161,1214.31 695.727,1205.51 720.292,1198.31 744.858,1192.45 769.424,1187.73 793.989,1183.94 818.555,1180.92 843.12,1178.52 867.686,1176.62 892.251,1175.12 916.817,1173.95 941.383,1173.03 965.948,1172.32 990.514,1171.76 1015.08,1171.34 1039.64,1171.01 1064.21,1170.75 1088.78,1170.56 1113.34,1170.41 1137.91,1170.3 "/>
<polyline clip-path="url(#clip852)" style="stroke:#3da44d; stroke-linecap:round; stroke-linejoin:round; stroke-width:3; stroke-opacity:1; fill:none" stroke-dasharray="12, 8" points="302.677,1167.54 327.243,1167.54 351.809,1167.54 376.374,1167.54 400.94,1167.54 425.505,1167.54 450.071,1167.54 474.637,1167.54 499.202,1167.54 523.768,1167.54 548.333,1167.54 572.899,1167.54 597.464,1167.54 622.03,1167.54 646.596,1167.54 671.161,1167.54 695.727,1167.54 720.292,1167.54 744.858,1167.54 769.424,1167.54 793.989,1167.54 818.555,1167.54 843.12,1167.54 867.686,1167.54 892.251,1167.54 916.817,1167.54 941.383,1167.54 965.948,1167.54 990.514,1167.54 1015.08,1167.54 1039.64,1167.54 1064.21,1167.54 1088.78,1167.54 1113.34,1167.54 1137.91,1167.54 "/>
<path clip-path="url(#clip850)" d="M996.91 248.629 L1133.45 248.629 L1133.45 93.1086 L996.91 93.1086  Z" fill="#ffffff" fill-rule="evenodd" fill-opacity="1"/>
<polyline clip-path="url(#clip850)" style="stroke:#000000; stroke-linecap:round; stroke-linejoin:round; stroke-width:4; stroke-opacity:1; fill:none" points="996.91,248.629 1133.45,248.629 1133.45,93.1086 996.91,93.1086 996.91,248.629 "/>
<polyline clip-path="url(#clip850)" style="stroke:#009af9; stroke-linecap:round; stroke-linejoin:round; stroke-width:4; stroke-opacity:1; fill:none" points="1006.75,144.949 1065.77,144.949 "/>
<path clip-path="url(#clip850)" d="M1102.38 131.687 Q1100.9 131.687 1100.15 131.828 Q1099.4 131.945 1099.22 132.109 Q1099.03 132.273 1098.82 132.695 L1088.51 154.618 Q1087.41 156.96 1085.35 158.647 Q1083.31 160.333 1080.74 160.333 Q1078.58 160.333 1077.08 159.021 Q1075.61 157.733 1075.61 155.906 Q1075.61 154.595 1076.43 153.845 Q1077.25 153.119 1078.35 153.119 Q1079.57 153.119 1080.34 153.892 Q1081.13 154.665 1081.13 155.859 Q1081.13 156.632 1080.81 157.218 Q1080.48 157.827 1080.17 158.038 Q1079.89 158.272 1079.59 158.412 Q1080.08 158.6 1080.74 158.6 Q1081.72 158.6 1082.56 158.202 Q1083.43 157.827 1083.99 157.312 Q1084.58 156.82 1085.16 155.93 Q1085.75 155.063 1086.03 154.501 Q1086.31 153.962 1086.73 153.025 L1087.83 150.73 L1078.86 131.687 L1075.79 131.687 L1075.79 129.439 L1081.28 129.579 L1087.22 129.439 L1087.22 131.687 L1084.62 131.687 L1090.71 144.64 L1096.24 132.835 L1096.48 132.273 Q1096.48 132.015 1095.91 131.875 Q1095.35 131.711 1094.79 131.711 L1094.23 131.687 L1094.23 129.439 L1098.58 129.579 Q1100.65 129.579 1102.38 129.439 L1102.38 131.687 Z" fill="#000000" fill-rule="nonzero" fill-opacity="1" /><polyline clip-path="url(#clip850)" style="stroke:#3da44d; stroke-linecap:round; stroke-linejoin:round; stroke-width:3; stroke-opacity:1; fill:none" stroke-dasharray="12, 8" points="1006.75,196.789 1065.77,196.789 "/>
<path clip-path="url(#clip850)" d="M1095.02 182.067 Q1095.02 183.425 1094.13 184.221 Q1093.24 184.994 1092.1 184.994 Q1090.95 184.994 1090.06 184.221 Q1089.17 183.448 1089.17 182.067 Q1089.17 181.458 1089.38 180.919 Q1089.61 180.357 1089.85 180.099 L1090.08 179.865 Q1088.7 179.865 1087.62 180.521 Q1086.55 181.153 1085.89 182.137 Q1085.23 183.121 1084.81 184.409 Q1084.39 185.674 1084.23 186.821 Q1084.09 187.969 1084.09 189.07 L1084.09 197.479 L1088.25 197.479 L1088.25 199.727 Q1086.52 199.587 1081.65 199.587 L1075.61 199.727 L1075.61 197.479 L1078.91 197.479 L1078.91 182.652 Q1078.91 181.294 1078.42 181.036 Q1077.93 180.778 1075.61 180.778 L1075.61 178.53 L1083.57 178.132 L1083.57 183.566 Q1085.56 178.132 1089.94 178.132 Q1091.96 178.132 1093.48 179.209 Q1095.02 180.263 1095.02 182.067 Z" fill="#000000" fill-rule="nonzero" fill-opacity="1" /><path clip-path="url(#clip850)" d="M1118.69 195.25 Q1117.65 195.25 1117.13 195.349 Q1116.6 195.431 1116.47 195.545 Q1116.34 195.66 1116.19 195.955 L1108.98 211.302 Q1108.21 212.941 1106.77 214.122 Q1105.34 215.302 1103.54 215.302 Q1102.03 215.302 1100.98 214.384 Q1099.95 213.482 1099.95 212.203 Q1099.95 211.285 1100.52 210.76 Q1101.09 210.252 1101.86 210.252 Q1102.72 210.252 1103.26 210.793 Q1103.81 211.334 1103.81 212.171 Q1103.81 212.712 1103.59 213.121 Q1103.36 213.548 1103.14 213.695 Q1102.95 213.859 1102.73 213.958 Q1103.08 214.089 1103.54 214.089 Q1104.22 214.089 1104.82 213.81 Q1105.42 213.548 1105.82 213.187 Q1106.23 212.843 1106.64 212.22 Q1107.04 211.613 1107.24 211.22 Q1107.44 210.842 1107.73 210.187 L1108.5 208.58 L1102.22 195.25 L1100.08 195.25 L1100.08 193.676 L1103.91 193.775 L1108.08 193.676 L1108.08 195.25 L1106.26 195.25 L1110.52 204.317 L1114.39 196.054 L1114.55 195.66 Q1114.55 195.48 1114.16 195.381 Q1113.77 195.267 1113.37 195.267 L1112.98 195.25 L1112.98 193.676 L1116.03 193.775 Q1117.47 193.775 1118.69 193.676 L1118.69 195.25 Z" fill="#000000" fill-rule="nonzero" fill-opacity="1" /><path clip-path="url(#clip850)" d="M1467.41 1423.18 L2352.76 1423.18 L2352.76 47.2441 L1467.41 47.2441  Z" fill="#ffffff" fill-rule="evenodd" fill-opacity="1"/>
<defs>
  <clipPath id="clip853">
    <rect x="1467" y="47" width="886" height="1377"/>
  </clipPath>
</defs>
<polyline clip-path="url(#clip853)" style="stroke:#000000; stroke-linecap:round; stroke-linejoin:round; stroke-width:2; stroke-opacity:0.1; fill:none" points="1492.47,1423.18 1492.47,47.2441 "/>
<polyline clip-path="url(#clip853)" style="stroke:#000000; stroke-linecap:round; stroke-linejoin:round; stroke-width:2; stroke-opacity:0.1; fill:none" points="1738.13,1423.18 1738.13,47.2441 "/>
<polyline clip-path="url(#clip853)" style="stroke:#000000; stroke-linecap:round; stroke-linejoin:round; stroke-width:2; stroke-opacity:0.1; fill:none" points="1983.78,1423.18 1983.78,47.2441 "/>
<polyline clip-path="url(#clip853)" style="stroke:#000000; stroke-linecap:round; stroke-linejoin:round; stroke-width:2; stroke-opacity:0.1; fill:none" points="2229.44,1423.18 2229.44,47.2441 "/>
<polyline clip-path="url(#clip853)" style="stroke:#000000; stroke-linecap:round; stroke-linejoin:round; stroke-width:2; stroke-opacity:0.1; fill:none" points="1467.41,1384.24 2352.76,1384.24 "/>
<polyline clip-path="url(#clip853)" style="stroke:#000000; stroke-linecap:round; stroke-linejoin:round; stroke-width:2; stroke-opacity:0.1; fill:none" points="1467.41,1167.9 2352.76,1167.9 "/>
<polyline clip-path="url(#clip853)" style="stroke:#000000; stroke-linecap:round; stroke-linejoin:round; stroke-width:2; stroke-opacity:0.1; fill:none" points="1467.41,951.554 2352.76,951.554 "/>
<polyline clip-path="url(#clip853)" style="stroke:#000000; stroke-linecap:round; stroke-linejoin:round; stroke-width:2; stroke-opacity:0.1; fill:none" points="1467.41,735.212 2352.76,735.212 "/>
<polyline clip-path="url(#clip853)" style="stroke:#000000; stroke-linecap:round; stroke-linejoin:round; stroke-width:2; stroke-opacity:0.1; fill:none" points="1467.41,518.87 2352.76,518.87 "/>
<polyline clip-path="url(#clip853)" style="stroke:#000000; stroke-linecap:round; stroke-linejoin:round; stroke-width:2; stroke-opacity:0.1; fill:none" points="1467.41,302.528 2352.76,302.528 "/>
<polyline clip-path="url(#clip853)" style="stroke:#000000; stroke-linecap:round; stroke-linejoin:round; stroke-width:2; stroke-opacity:0.1; fill:none" points="1467.41,86.1857 2352.76,86.1857 "/>
<polyline clip-path="url(#clip850)" style="stroke:#000000; stroke-linecap:round; stroke-linejoin:round; stroke-width:4; stroke-opacity:1; fill:none" points="1467.41,1423.18 2352.76,1423.18 "/>
<polyline clip-path="url(#clip850)" style="stroke:#000000; stroke-linecap:round; stroke-linejoin:round; stroke-width:4; stroke-opacity:1; fill:none" points="1492.47,1423.18 1492.47,1404.28 "/>
<polyline clip-path="url(#clip850)" style="stroke:#000000; stroke-linecap:round; stroke-linejoin:round; stroke-width:4; stroke-opacity:1; fill:none" points="1738.13,1423.18 1738.13,1404.28 "/>
<polyline clip-path="url(#clip850)" style="stroke:#000000; stroke-linecap:round; stroke-linejoin:round; stroke-width:4; stroke-opacity:1; fill:none" points="1983.78,1423.18 1983.78,1404.28 "/>
<polyline clip-path="url(#clip850)" style="stroke:#000000; stroke-linecap:round; stroke-linejoin:round; stroke-width:4; stroke-opacity:1; fill:none" points="2229.44,1423.18 2229.44,1404.28 "/>
<path clip-path="url(#clip850)" d="M1492.47 1454.1 Q1488.86 1454.1 1487.03 1457.66 Q1485.22 1461.2 1485.22 1468.33 Q1485.22 1475.44 1487.03 1479.01 Q1488.86 1482.55 1492.47 1482.55 Q1496.1 1482.55 1497.91 1479.01 Q1499.74 1475.44 1499.74 1468.33 Q1499.74 1461.2 1497.91 1457.66 Q1496.1 1454.1 1492.47 1454.1 M1492.47 1450.39 Q1498.28 1450.39 1501.33 1455 Q1504.41 1459.58 1504.41 1468.33 Q1504.41 1477.06 1501.33 1481.67 Q1498.28 1486.25 1492.47 1486.25 Q1486.66 1486.25 1483.58 1481.67 Q1480.52 1477.06 1480.52 1468.33 Q1480.52 1459.58 1483.58 1455 Q1486.66 1450.39 1492.47 1450.39 Z" fill="#000000" fill-rule="nonzero" fill-opacity="1" /><path clip-path="url(#clip850)" d="M1728.51 1481.64 L1736.15 1481.64 L1736.15 1455.28 L1727.84 1456.95 L1727.84 1452.69 L1736.1 1451.02 L1740.78 1451.02 L1740.78 1481.64 L1748.41 1481.64 L1748.41 1485.58 L1728.51 1485.58 L1728.51 1481.64 Z" fill="#000000" fill-rule="nonzero" fill-opacity="1" /><path clip-path="url(#clip850)" d="M1978.43 1481.64 L1994.75 1481.64 L1994.75 1485.58 L1972.81 1485.58 L1972.81 1481.64 Q1975.47 1478.89 1980.05 1474.26 Q1984.66 1469.61 1985.84 1468.27 Q1988.09 1465.74 1988.97 1464.01 Q1989.87 1462.25 1989.87 1460.56 Q1989.87 1457.8 1987.92 1456.07 Q1986 1454.33 1982.9 1454.33 Q1980.7 1454.33 1978.25 1455.09 Q1975.82 1455.86 1973.04 1457.41 L1973.04 1452.69 Q1975.86 1451.55 1978.32 1450.97 Q1980.77 1450.39 1982.81 1450.39 Q1988.18 1450.39 1991.37 1453.08 Q1994.57 1455.77 1994.57 1460.26 Q1994.57 1462.39 1993.76 1464.31 Q1992.97 1466.2 1990.86 1468.8 Q1990.29 1469.47 1987.18 1472.69 Q1984.08 1475.88 1978.43 1481.64 Z" fill="#000000" fill-rule="nonzero" fill-opacity="1" /><path clip-path="url(#clip850)" d="M2233.68 1466.95 Q2237.04 1467.66 2238.92 1469.93 Q2240.81 1472.2 2240.81 1475.53 Q2240.81 1480.65 2237.3 1483.45 Q2233.78 1486.25 2227.3 1486.25 Q2225.12 1486.25 2222.8 1485.81 Q2220.51 1485.39 2218.06 1484.54 L2218.06 1480.02 Q2220 1481.16 2222.32 1481.74 Q2224.63 1482.32 2227.16 1482.32 Q2231.55 1482.32 2233.85 1480.58 Q2236.16 1478.84 2236.16 1475.53 Q2236.16 1472.48 2234.01 1470.77 Q2231.88 1469.03 2228.06 1469.03 L2224.03 1469.03 L2224.03 1465.19 L2228.24 1465.19 Q2231.69 1465.19 2233.52 1463.82 Q2235.35 1462.43 2235.35 1459.84 Q2235.35 1457.18 2233.45 1455.77 Q2231.58 1454.33 2228.06 1454.33 Q2226.14 1454.33 2223.94 1454.75 Q2221.74 1455.16 2219.1 1456.04 L2219.1 1451.88 Q2221.76 1451.14 2224.08 1450.77 Q2226.42 1450.39 2228.48 1450.39 Q2233.8 1450.39 2236.9 1452.83 Q2240 1455.23 2240 1459.35 Q2240 1462.22 2238.36 1464.21 Q2236.72 1466.18 2233.68 1466.95 Z" fill="#000000" fill-rule="nonzero" fill-opacity="1" /><path clip-path="url(#clip850)" d="M1780.26 1520.52 L1820.45 1520.52 L1820.45 1525.93 L1803.59 1525.93 L1803.59 1568.04 L1797.12 1568.04 L1797.12 1525.93 L1780.26 1525.93 L1780.26 1520.52 Z" fill="#000000" fill-rule="nonzero" fill-opacity="1" /><path clip-path="url(#clip850)" d="M1824.4 1532.4 L1830.26 1532.4 L1830.26 1568.04 L1824.4 1568.04 L1824.4 1532.4 M1824.4 1518.52 L1830.26 1518.52 L1830.26 1525.93 L1824.4 1525.93 L1824.4 1518.52 Z" fill="#000000" fill-rule="nonzero" fill-opacity="1" /><path clip-path="url(#clip850)" d="M1870.27 1539.24 Q1872.46 1535.29 1875.52 1533.41 Q1878.57 1531.54 1882.71 1531.54 Q1888.28 1531.54 1891.31 1535.45 Q1894.33 1539.33 1894.33 1546.53 L1894.33 1568.04 L1888.44 1568.04 L1888.44 1546.72 Q1888.44 1541.59 1886.63 1539.11 Q1884.81 1536.63 1881.09 1536.63 Q1876.54 1536.63 1873.9 1539.65 Q1871.25 1542.68 1871.25 1547.9 L1871.25 1568.04 L1865.37 1568.04 L1865.37 1546.72 Q1865.37 1541.56 1863.55 1539.11 Q1861.74 1536.63 1857.95 1536.63 Q1853.46 1536.63 1850.82 1539.68 Q1848.18 1542.71 1848.18 1547.9 L1848.18 1568.04 L1842.29 1568.04 L1842.29 1532.4 L1848.18 1532.4 L1848.18 1537.93 Q1850.18 1534.66 1852.98 1533.1 Q1855.78 1531.54 1859.64 1531.54 Q1863.52 1531.54 1866.22 1533.51 Q1868.96 1535.48 1870.27 1539.24 Z" fill="#000000" fill-rule="nonzero" fill-opacity="1" /><path clip-path="url(#clip850)" d="M1936.5 1548.76 L1936.5 1551.62 L1909.57 1551.62 Q1909.96 1557.67 1913.2 1560.85 Q1916.48 1564 1922.31 1564 Q1925.68 1564 1928.83 1563.17 Q1932.01 1562.35 1935.13 1560.69 L1935.13 1566.23 Q1931.98 1567.57 1928.67 1568.27 Q1925.36 1568.97 1921.96 1568.97 Q1913.43 1568.97 1908.43 1564 Q1903.46 1559.04 1903.46 1550.57 Q1903.46 1541.82 1908.17 1536.69 Q1912.92 1531.54 1920.94 1531.54 Q1928.13 1531.54 1932.3 1536.18 Q1936.5 1540.8 1936.5 1548.76 M1930.65 1547.04 Q1930.58 1542.23 1927.94 1539.37 Q1925.33 1536.5 1921 1536.5 Q1916.1 1536.5 1913.14 1539.27 Q1910.21 1542.04 1909.77 1547.07 L1930.65 1547.04 Z" fill="#000000" fill-rule="nonzero" fill-opacity="1" /><path clip-path="url(#clip850)" d="M1980.9 1518.58 Q1976.64 1525.9 1974.57 1533.06 Q1972.5 1540.23 1972.5 1547.58 Q1972.5 1554.93 1974.57 1562.16 Q1976.67 1569.35 1980.9 1576.64 L1975.81 1576.64 Q1971.04 1569.16 1968.65 1561.93 Q1966.29 1554.71 1966.29 1547.58 Q1966.29 1540.48 1968.65 1533.29 Q1971 1526.09 1975.81 1518.58 L1980.9 1518.58 Z" fill="#000000" fill-rule="nonzero" fill-opacity="1" /><path clip-path="url(#clip850)" d="M2014.99 1533.45 L2014.99 1538.98 Q2012.51 1537.71 2009.83 1537.07 Q2007.16 1536.44 2004.3 1536.44 Q1999.94 1536.44 1997.74 1537.77 Q1995.58 1539.11 1995.58 1541.79 Q1995.58 1543.82 1997.14 1545 Q1998.69 1546.15 2003.41 1547.2 L2005.41 1547.64 Q2011.65 1548.98 2014.26 1551.43 Q2016.9 1553.85 2016.9 1558.21 Q2016.9 1563.17 2012.95 1566.07 Q2009.04 1568.97 2002.16 1568.97 Q1999.3 1568.97 1996.18 1568.39 Q1993.09 1567.85 1989.66 1566.74 L1989.66 1560.69 Q1992.9 1562.38 1996.05 1563.24 Q1999.2 1564.07 2002.29 1564.07 Q2006.43 1564.07 2008.66 1562.66 Q2010.89 1561.23 2010.89 1558.65 Q2010.89 1556.27 2009.26 1554.99 Q2007.67 1553.72 2002.23 1552.54 L2000.19 1552.07 Q1994.75 1550.92 1992.33 1548.56 Q1989.91 1546.18 1989.91 1542.04 Q1989.91 1537.01 1993.47 1534.27 Q1997.04 1531.54 2003.6 1531.54 Q2006.84 1531.54 2009.71 1532.01 Q2012.57 1532.49 2014.99 1533.45 Z" fill="#000000" fill-rule="nonzero" fill-opacity="1" /><path clip-path="url(#clip850)" d="M2025.3 1518.58 L2030.4 1518.58 Q2035.17 1526.09 2037.53 1533.29 Q2039.91 1540.48 2039.91 1547.58 Q2039.91 1554.71 2037.53 1561.93 Q2035.17 1569.16 2030.4 1576.64 L2025.3 1576.64 Q2029.54 1569.35 2031.61 1562.16 Q2033.71 1554.93 2033.71 1547.58 Q2033.71 1540.23 2031.61 1533.06 Q2029.54 1525.9 2025.3 1518.58 Z" fill="#000000" fill-rule="nonzero" fill-opacity="1" /><polyline clip-path="url(#clip850)" style="stroke:#000000; stroke-linecap:round; stroke-linejoin:round; stroke-width:4; stroke-opacity:1; fill:none" points="1467.41,1423.18 1467.41,47.2441 "/>
<polyline clip-path="url(#clip850)" style="stroke:#000000; stroke-linecap:round; stroke-linejoin:round; stroke-width:4; stroke-opacity:1; fill:none" points="1467.41,1384.24 1486.31,1384.24 "/>
<polyline clip-path="url(#clip850)" style="stroke:#000000; stroke-linecap:round; stroke-linejoin:round; stroke-width:4; stroke-opacity:1; fill:none" points="1467.41,1167.9 1486.31,1167.9 "/>
<polyline clip-path="url(#clip850)" style="stroke:#000000; stroke-linecap:round; stroke-linejoin:round; stroke-width:4; stroke-opacity:1; fill:none" points="1467.41,951.554 1486.31,951.554 "/>
<polyline clip-path="url(#clip850)" style="stroke:#000000; stroke-linecap:round; stroke-linejoin:round; stroke-width:4; stroke-opacity:1; fill:none" points="1467.41,735.212 1486.31,735.212 "/>
<polyline clip-path="url(#clip850)" style="stroke:#000000; stroke-linecap:round; stroke-linejoin:round; stroke-width:4; stroke-opacity:1; fill:none" points="1467.41,518.87 1486.31,518.87 "/>
<polyline clip-path="url(#clip850)" style="stroke:#000000; stroke-linecap:round; stroke-linejoin:round; stroke-width:4; stroke-opacity:1; fill:none" points="1467.41,302.528 1486.31,302.528 "/>
<polyline clip-path="url(#clip850)" style="stroke:#000000; stroke-linecap:round; stroke-linejoin:round; stroke-width:4; stroke-opacity:1; fill:none" points="1467.41,86.1857 1486.31,86.1857 "/>
<path clip-path="url(#clip850)" d="M1325.46 1384.69 L1355.14 1384.69 L1355.14 1388.62 L1325.46 1388.62 L1325.46 1384.69 Z" fill="#000000" fill-rule="nonzero" fill-opacity="1" /><path clip-path="url(#clip850)" d="M1366.04 1397.58 L1373.68 1397.58 L1373.68 1371.22 L1365.37 1372.88 L1365.37 1368.62 L1373.63 1366.96 L1378.31 1366.96 L1378.31 1397.58 L1385.95 1397.58 L1385.95 1401.52 L1366.04 1401.52 L1366.04 1397.58 Z" fill="#000000" fill-rule="nonzero" fill-opacity="1" /><path clip-path="url(#clip850)" d="M1395.39 1395.64 L1400.28 1395.64 L1400.28 1401.52 L1395.39 1401.52 L1395.39 1395.64 Z" fill="#000000" fill-rule="nonzero" fill-opacity="1" /><path clip-path="url(#clip850)" d="M1410.51 1366.96 L1428.87 1366.96 L1428.87 1370.89 L1414.79 1370.89 L1414.79 1379.37 Q1415.81 1379.02 1416.83 1378.86 Q1417.85 1378.67 1418.87 1378.67 Q1424.65 1378.67 1428.03 1381.84 Q1431.41 1385.01 1431.41 1390.43 Q1431.41 1396.01 1427.94 1399.11 Q1424.47 1402.19 1418.15 1402.19 Q1415.97 1402.19 1413.7 1401.82 Q1411.46 1401.45 1409.05 1400.71 L1409.05 1396.01 Q1411.13 1397.14 1413.36 1397.7 Q1415.58 1398.25 1418.06 1398.25 Q1422.06 1398.25 1424.4 1396.15 Q1426.74 1394.04 1426.74 1390.43 Q1426.74 1386.82 1424.4 1384.71 Q1422.06 1382.61 1418.06 1382.61 Q1416.18 1382.61 1414.31 1383.02 Q1412.45 1383.44 1410.51 1384.32 L1410.51 1366.96 Z" fill="#000000" fill-rule="nonzero" fill-opacity="1" /><path clip-path="url(#clip850)" d="M1324.47 1168.35 L1354.14 1168.35 L1354.14 1172.28 L1324.47 1172.28 L1324.47 1168.35 Z" fill="#000000" fill-rule="nonzero" fill-opacity="1" /><path clip-path="url(#clip850)" d="M1365.05 1181.24 L1372.69 1181.24 L1372.69 1154.88 L1364.38 1156.54 L1364.38 1152.28 L1372.64 1150.62 L1377.32 1150.62 L1377.32 1181.24 L1384.95 1181.24 L1384.95 1185.18 L1365.05 1185.18 L1365.05 1181.24 Z" fill="#000000" fill-rule="nonzero" fill-opacity="1" /><path clip-path="url(#clip850)" d="M1394.4 1179.3 L1399.28 1179.3 L1399.28 1185.18 L1394.4 1185.18 L1394.4 1179.3 Z" fill="#000000" fill-rule="nonzero" fill-opacity="1" /><path clip-path="url(#clip850)" d="M1419.47 1153.69 Q1415.86 1153.69 1414.03 1157.26 Q1412.22 1160.8 1412.22 1167.93 Q1412.22 1175.04 1414.03 1178.6 Q1415.86 1182.14 1419.47 1182.14 Q1423.1 1182.14 1424.91 1178.6 Q1426.74 1175.04 1426.74 1167.93 Q1426.74 1160.8 1424.91 1157.26 Q1423.1 1153.69 1419.47 1153.69 M1419.47 1149.99 Q1425.28 1149.99 1428.33 1154.6 Q1431.41 1159.18 1431.41 1167.93 Q1431.41 1176.66 1428.33 1181.26 Q1425.28 1185.85 1419.47 1185.85 Q1413.66 1185.85 1410.58 1181.26 Q1407.52 1176.66 1407.52 1167.93 Q1407.52 1159.18 1410.58 1154.6 Q1413.66 1149.99 1419.47 1149.99 Z" fill="#000000" fill-rule="nonzero" fill-opacity="1" /><path clip-path="url(#clip850)" d="M1325.46 952.005 L1355.14 952.005 L1355.14 955.941 L1325.46 955.941 L1325.46 952.005 Z" fill="#000000" fill-rule="nonzero" fill-opacity="1" /><path clip-path="url(#clip850)" d="M1375.23 937.353 Q1371.62 937.353 1369.79 940.918 Q1367.99 944.459 1367.99 951.589 Q1367.99 958.695 1369.79 962.26 Q1371.62 965.802 1375.23 965.802 Q1378.87 965.802 1380.67 962.26 Q1382.5 958.695 1382.5 951.589 Q1382.5 944.459 1380.67 940.918 Q1378.87 937.353 1375.23 937.353 M1375.23 933.649 Q1381.04 933.649 1384.1 938.256 Q1387.18 942.839 1387.18 951.589 Q1387.18 960.316 1384.1 964.922 Q1381.04 969.505 1375.23 969.505 Q1369.42 969.505 1366.34 964.922 Q1363.29 960.316 1363.29 951.589 Q1363.29 942.839 1366.34 938.256 Q1369.42 933.649 1375.23 933.649 Z" fill="#000000" fill-rule="nonzero" fill-opacity="1" /><path clip-path="url(#clip850)" d="M1395.39 962.954 L1400.28 962.954 L1400.28 968.834 L1395.39 968.834 L1395.39 962.954 Z" fill="#000000" fill-rule="nonzero" fill-opacity="1" /><path clip-path="url(#clip850)" d="M1410.51 934.274 L1428.87 934.274 L1428.87 938.209 L1414.79 938.209 L1414.79 946.681 Q1415.81 946.334 1416.83 946.172 Q1417.85 945.987 1418.87 945.987 Q1424.65 945.987 1428.03 949.158 Q1431.41 952.33 1431.41 957.746 Q1431.41 963.325 1427.94 966.427 Q1424.47 969.505 1418.15 969.505 Q1415.97 969.505 1413.7 969.135 Q1411.46 968.765 1409.05 968.024 L1409.05 963.325 Q1411.13 964.459 1413.36 965.015 Q1415.58 965.57 1418.06 965.57 Q1422.06 965.57 1424.4 963.464 Q1426.74 961.357 1426.74 957.746 Q1426.74 954.135 1424.4 952.029 Q1422.06 949.922 1418.06 949.922 Q1416.18 949.922 1414.31 950.339 Q1412.45 950.755 1410.51 951.635 L1410.51 934.274 Z" fill="#000000" fill-rule="nonzero" fill-opacity="1" /><path clip-path="url(#clip850)" d="M1374.24 721.011 Q1370.63 721.011 1368.8 724.575 Q1366.99 728.117 1366.99 735.247 Q1366.99 742.353 1368.8 745.918 Q1370.63 749.46 1374.24 749.46 Q1377.87 749.46 1379.68 745.918 Q1381.51 742.353 1381.51 735.247 Q1381.51 728.117 1379.68 724.575 Q1377.87 721.011 1374.24 721.011 M1374.24 717.307 Q1380.05 717.307 1383.1 721.913 Q1386.18 726.497 1386.18 735.247 Q1386.18 743.973 1383.1 748.58 Q1380.05 753.163 1374.24 753.163 Q1368.43 753.163 1365.35 748.58 Q1362.29 743.973 1362.29 735.247 Q1362.29 726.497 1365.35 721.913 Q1368.43 717.307 1374.24 717.307 Z" fill="#000000" fill-rule="nonzero" fill-opacity="1" /><path clip-path="url(#clip850)" d="M1394.4 746.612 L1399.28 746.612 L1399.28 752.492 L1394.4 752.492 L1394.4 746.612 Z" fill="#000000" fill-rule="nonzero" fill-opacity="1" /><path clip-path="url(#clip850)" d="M1419.47 721.011 Q1415.86 721.011 1414.03 724.575 Q1412.22 728.117 1412.22 735.247 Q1412.22 742.353 1414.03 745.918 Q1415.86 749.46 1419.47 749.46 Q1423.1 749.46 1424.91 745.918 Q1426.74 742.353 1426.74 735.247 Q1426.74 728.117 1424.91 724.575 Q1423.1 721.011 1419.47 721.011 M1419.47 717.307 Q1425.28 717.307 1428.33 721.913 Q1431.41 726.497 1431.41 735.247 Q1431.41 743.973 1428.33 748.58 Q1425.28 753.163 1419.47 753.163 Q1413.66 753.163 1410.58 748.58 Q1407.52 743.973 1407.52 735.247 Q1407.52 726.497 1410.58 721.913 Q1413.66 717.307 1419.47 717.307 Z" fill="#000000" fill-rule="nonzero" fill-opacity="1" /><path clip-path="url(#clip850)" d="M1375.23 504.669 Q1371.62 504.669 1369.79 508.233 Q1367.99 511.775 1367.99 518.905 Q1367.99 526.011 1369.79 529.576 Q1371.62 533.117 1375.23 533.117 Q1378.87 533.117 1380.67 529.576 Q1382.5 526.011 1382.5 518.905 Q1382.5 511.775 1380.67 508.233 Q1378.87 504.669 1375.23 504.669 M1375.23 500.965 Q1381.04 500.965 1384.1 505.571 Q1387.18 510.155 1387.18 518.905 Q1387.18 527.631 1384.1 532.238 Q1381.04 536.821 1375.23 536.821 Q1369.42 536.821 1366.34 532.238 Q1363.29 527.631 1363.29 518.905 Q1363.29 510.155 1366.34 505.571 Q1369.42 500.965 1375.23 500.965 Z" fill="#000000" fill-rule="nonzero" fill-opacity="1" /><path clip-path="url(#clip850)" d="M1395.39 530.27 L1400.28 530.27 L1400.28 536.15 L1395.39 536.15 L1395.39 530.27 Z" fill="#000000" fill-rule="nonzero" fill-opacity="1" /><path clip-path="url(#clip850)" d="M1410.51 501.59 L1428.87 501.59 L1428.87 505.525 L1414.79 505.525 L1414.79 513.997 Q1415.81 513.65 1416.83 513.488 Q1417.85 513.303 1418.87 513.303 Q1424.65 513.303 1428.03 516.474 Q1431.41 519.645 1431.41 525.062 Q1431.41 530.641 1427.94 533.742 Q1424.47 536.821 1418.15 536.821 Q1415.97 536.821 1413.7 536.451 Q1411.46 536.08 1409.05 535.34 L1409.05 530.641 Q1411.13 531.775 1413.36 532.33 Q1415.58 532.886 1418.06 532.886 Q1422.06 532.886 1424.4 530.78 Q1426.74 528.673 1426.74 525.062 Q1426.74 521.451 1424.4 519.344 Q1422.06 517.238 1418.06 517.238 Q1416.18 517.238 1414.31 517.655 Q1412.45 518.071 1410.51 518.951 L1410.51 501.59 Z" fill="#000000" fill-rule="nonzero" fill-opacity="1" /><path clip-path="url(#clip850)" d="M1365.05 315.873 L1372.69 315.873 L1372.69 289.507 L1364.38 291.174 L1364.38 286.914 L1372.64 285.248 L1377.32 285.248 L1377.32 315.873 L1384.95 315.873 L1384.95 319.808 L1365.05 319.808 L1365.05 315.873 Z" fill="#000000" fill-rule="nonzero" fill-opacity="1" /><path clip-path="url(#clip850)" d="M1394.4 313.928 L1399.28 313.928 L1399.28 319.808 L1394.4 319.808 L1394.4 313.928 Z" fill="#000000" fill-rule="nonzero" fill-opacity="1" /><path clip-path="url(#clip850)" d="M1419.47 288.326 Q1415.86 288.326 1414.03 291.891 Q1412.22 295.433 1412.22 302.562 Q1412.22 309.669 1414.03 313.234 Q1415.86 316.775 1419.47 316.775 Q1423.1 316.775 1424.91 313.234 Q1426.74 309.669 1426.74 302.562 Q1426.74 295.433 1424.91 291.891 Q1423.1 288.326 1419.47 288.326 M1419.47 284.623 Q1425.28 284.623 1428.33 289.229 Q1431.41 293.813 1431.41 302.562 Q1431.41 311.289 1428.33 315.896 Q1425.28 320.479 1419.47 320.479 Q1413.66 320.479 1410.58 315.896 Q1407.52 311.289 1407.52 302.562 Q1407.52 293.813 1410.58 289.229 Q1413.66 284.623 1419.47 284.623 Z" fill="#000000" fill-rule="nonzero" fill-opacity="1" /><path clip-path="url(#clip850)" d="M1366.04 99.5305 L1373.68 99.5305 L1373.68 73.1649 L1365.37 74.8316 L1365.37 70.5723 L1373.63 68.9057 L1378.31 68.9057 L1378.31 99.5305 L1385.95 99.5305 L1385.95 103.466 L1366.04 103.466 L1366.04 99.5305 Z" fill="#000000" fill-rule="nonzero" fill-opacity="1" /><path clip-path="url(#clip850)" d="M1395.39 97.5861 L1400.28 97.5861 L1400.28 103.466 L1395.39 103.466 L1395.39 97.5861 Z" fill="#000000" fill-rule="nonzero" fill-opacity="1" /><path clip-path="url(#clip850)" d="M1410.51 68.9057 L1428.87 68.9057 L1428.87 72.8408 L1414.79 72.8408 L1414.79 81.313 Q1415.81 80.9658 1416.83 80.8038 Q1417.85 80.6186 1418.87 80.6186 Q1424.65 80.6186 1428.03 83.7899 Q1431.41 86.9611 1431.41 92.3778 Q1431.41 97.9564 1427.94 101.058 Q1424.47 104.137 1418.15 104.137 Q1415.97 104.137 1413.7 103.767 Q1411.46 103.396 1409.05 102.655 L1409.05 97.9564 Q1411.13 99.0907 1413.36 99.6462 Q1415.58 100.202 1418.06 100.202 Q1422.06 100.202 1424.4 98.0953 Q1426.74 95.9889 1426.74 92.3778 Q1426.74 88.7667 1424.4 86.6602 Q1422.06 84.5537 1418.06 84.5537 Q1416.18 84.5537 1414.31 84.9704 Q1412.45 85.3871 1410.51 86.2667 L1410.51 68.9057 Z" fill="#000000" fill-rule="nonzero" fill-opacity="1" /><path clip-path="url(#clip850)" d="M1246.78 806.642 Q1249.04 806.642 1249.04 809.895 L1249.04 820.974 L1271.61 825.386 Q1272.19 825.483 1272.52 825.612 Q1272.84 825.708 1273.39 825.998 Q1273.9 826.256 1274.16 826.803 Q1274.45 827.318 1274.45 828.091 Q1274.45 829.058 1273.87 829.541 Q1273.32 829.992 1272.65 829.992 Q1272.23 829.992 1270.23 829.347 L1249.04 822.874 L1249.04 828.349 Q1249.04 833.502 1254.13 836.723 Q1254.8 837.238 1254.87 837.528 Q1254.9 837.657 1254.9 837.785 Q1254.9 838.14 1254.74 838.365 Q1254.58 838.558 1254.42 838.558 L1254.26 838.59 Q1254.03 838.59 1253.13 838.075 Q1252.19 837.528 1250.81 836.562 Q1249.43 835.563 1248.33 834.565 Q1246.91 833.244 1246.17 831.763 Q1245.4 830.281 1245.3 829.541 Q1245.21 828.768 1245.21 827.769 L1245.21 809.283 Q1245.21 808.446 1245.27 807.995 Q1245.3 807.544 1245.69 807.093 Q1246.04 806.642 1246.78 806.642 Z" fill="#000000" fill-rule="nonzero" fill-opacity="1" /><path clip-path="url(#clip850)" d="M1224.18 769.142 Q1231.5 773.407 1238.66 775.476 Q1245.83 777.544 1253.18 777.544 Q1260.53 777.544 1267.76 775.476 Q1274.95 773.375 1282.24 769.142 L1282.24 774.234 Q1274.76 779.009 1267.53 781.396 Q1260.31 783.751 1253.18 783.751 Q1246.08 783.751 1238.89 781.396 Q1231.69 779.04 1224.18 774.234 L1224.18 769.142 Z" fill="#000000" fill-rule="nonzero" fill-opacity="1" /><path clip-path="url(#clip850)" d="M1226.12 757.524 L1226.12 748.867 L1265.88 727.796 L1226.12 727.796 L1226.12 721.558 L1273.64 721.558 L1273.64 730.215 L1233.89 751.286 L1273.64 751.286 L1273.64 757.524 L1226.12 757.524 Z" fill="#000000" fill-rule="nonzero" fill-opacity="1" /><path clip-path="url(#clip850)" d="M1244.84 681.263 Q1240.89 679.067 1239.01 676.011 Q1237.14 672.956 1237.14 668.818 Q1237.14 663.248 1241.05 660.224 Q1244.93 657.201 1252.13 657.201 L1273.64 657.201 L1273.64 663.089 L1252.32 663.089 Q1247.19 663.089 1244.71 664.903 Q1242.23 666.718 1242.23 670.441 Q1242.23 674.993 1245.25 677.635 Q1248.28 680.276 1253.5 680.276 L1273.64 680.276 L1273.64 686.165 L1252.32 686.165 Q1247.16 686.165 1244.71 687.979 Q1242.23 689.793 1242.23 693.581 Q1242.23 698.069 1245.28 700.71 Q1248.31 703.352 1253.5 703.352 L1273.64 703.352 L1273.64 709.24 L1238 709.24 L1238 703.352 L1243.53 703.352 Q1240.26 701.347 1238.7 698.546 Q1237.14 695.745 1237.14 691.894 Q1237.14 688.011 1239.11 685.305 Q1241.08 682.568 1244.84 681.263 Z" fill="#000000" fill-rule="nonzero" fill-opacity="1" /><path clip-path="url(#clip850)" d="M1224.18 646.443 L1224.18 641.35 Q1231.69 636.576 1238.89 634.221 Q1246.08 631.833 1253.18 631.833 Q1260.31 631.833 1267.53 634.221 Q1274.76 636.576 1282.24 641.35 L1282.24 646.443 Q1274.95 642.21 1267.76 640.141 Q1260.53 638.04 1253.18 638.04 Q1245.83 638.04 1238.66 640.141 Q1231.5 642.21 1224.18 646.443 Z" fill="#000000" fill-rule="nonzero" fill-opacity="1" /><polyline clip-path="url(#clip853)" style="stroke:#009af9; stroke-linecap:round; stroke-linejoin:round; stroke-width:4; stroke-opacity:1; fill:none" points="1492.47,1072.47 1517.03,1072.47 1517.03,620.554 1541.6,620.554 1541.6,581.36 1566.17,581.36 1566.17,620.58 1590.73,620.58 1590.73,621.828 1615.3,621.828 1615.3,623.612 1639.86,623.612 1639.86,625.279 1664.43,625.279 1664.43,627.778 1688.99,627.778 1688.99,630.389 1713.56,630.389 1713.56,632.903 1738.13,632.903 1738.13,635.179 1762.69,635.179 1762.69,637.177 1787.26,637.177 1787.26,638.894 1811.82,638.894 1811.82,640.346 1836.39,640.346 1836.39,641.56 1860.95,641.56 1860.95,642.564 1885.52,642.564 1885.52,643.388 1910.08,643.388 1910.08,644.059 1934.65,644.059 1934.65,644.601 1959.22,644.601 1959.22,645.037 1983.78,645.037 1983.78,645.386 2008.35,645.386 2008.35,645.664 2032.91,645.664 2032.91,645.883 2057.48,645.883 2057.48,646.057 2082.04,646.057 2082.04,646.193 2106.61,646.193 2106.61,646.3 2131.17,646.3 2131.17,646.383 2155.74,646.383 2155.74,646.447 2180.31,646.447 2180.31,646.497 2204.87,646.497 2204.87,646.535 2229.44,646.535 2229.44,646.565 2254,646.565 2254,646.588 2278.57,646.588 2278.57,646.605 2303.13,646.605 2303.13,646.618 2327.7,646.618 2327.7,646.628 "/>
<polyline clip-path="url(#clip853)" style="stroke:#c271d2; stroke-linecap:round; stroke-linejoin:round; stroke-width:6; stroke-opacity:1; fill:none" stroke-dasharray="3, 6" points="1492.47,1384.24 1517.03,1384.24 1541.6,1384.24 1566.17,1384.24 1590.73,1384.24 1615.3,1384.24 1639.86,1384.24 1664.43,1384.24 1688.99,1384.24 1713.56,1384.24 1738.13,1384.24 1762.69,1384.24 1787.26,1384.24 1811.82,1384.24 1836.39,1384.24 1860.95,1384.24 1885.52,1384.24 1910.08,1384.24 1934.65,1384.24 1959.22,1384.24 1983.78,1384.24 2008.35,1384.24 2032.91,1384.24 2057.48,1384.24 2082.04,1384.24 2106.61,1384.24 2131.17,1384.24 2155.74,1384.24 2180.31,1384.24 2204.87,1384.24 2229.44,1384.24 2254,1384.24 2278.57,1384.24 2303.13,1384.24 2327.7,1384.24 "/>
<polyline clip-path="url(#clip853)" style="stroke:#ac8d18; stroke-linecap:round; stroke-linejoin:round; stroke-width:6; stroke-opacity:1; fill:none" stroke-dasharray="3, 6" points="1492.47,86.1857 1517.03,86.1857 1541.6,86.1857 1566.17,86.1857 1590.73,86.1857 1615.3,86.1857 1639.86,86.1857 1664.43,86.1857 1688.99,86.1857 1713.56,86.1857 1738.13,86.1857 1762.69,86.1857 1787.26,86.1857 1811.82,86.1857 1836.39,86.1857 1860.95,86.1857 1885.52,86.1857 1910.08,86.1857 1934.65,86.1857 1959.22,86.1857 1983.78,86.1857 2008.35,86.1857 2032.91,86.1857 2057.48,86.1857 2082.04,86.1857 2106.61,86.1857 2131.17,86.1857 2155.74,86.1857 2180.31,86.1857 2204.87,86.1857 2229.44,86.1857 2254,86.1857 2278.57,86.1857 2303.13,86.1857 2327.7,86.1857 "/>
<path clip-path="url(#clip850)" d="M2127.2 300.469 L2323.24 300.469 L2323.24 93.1086 L2127.2 93.1086  Z" fill="#ffffff" fill-rule="evenodd" fill-opacity="1"/>
<polyline clip-path="url(#clip850)" style="stroke:#000000; stroke-linecap:round; stroke-linejoin:round; stroke-width:4; stroke-opacity:1; fill:none" points="2127.2,300.469 2323.24,300.469 2323.24,93.1086 2127.2,93.1086 2127.2,300.469 "/>
<polyline clip-path="url(#clip850)" style="stroke:#009af9; stroke-linecap:round; stroke-linejoin:round; stroke-width:4; stroke-opacity:1; fill:none" points="2137.04,144.949 2196.06,144.949 "/>
<path clip-path="url(#clip850)" d="M2233.26 155.503 L2224.76 155.784 L2224.76 152.06 Q2222.58 155.784 2217.85 155.784 Q2215.9 155.784 2214.45 155.527 Q2213.02 155.269 2211.76 154.637 Q2210.52 153.981 2209.86 152.716 Q2209.2 151.451 2209.2 149.601 L2209.2 138.428 Q2209.2 137.07 2208.71 136.812 Q2208.22 136.555 2205.9 136.555 L2205.9 134.306 L2214.68 133.908 L2214.68 150.28 Q2214.68 151.428 2214.75 152.013 Q2214.85 152.576 2215.2 153.138 Q2215.57 153.676 2216.37 153.887 Q2217.17 154.075 2218.53 154.075 Q2221.17 154.075 2222.81 152.294 Q2224.48 150.514 2224.48 147.587 L2224.48 138.428 Q2224.48 137.07 2223.96 136.812 Q2223.47 136.555 2221.15 136.555 L2221.15 134.306 L2229.93 133.908 L2229.93 151.381 Q2229.93 152.739 2230.42 152.997 Q2230.94 153.255 2233.26 153.255 L2233.26 155.503 Z" fill="#000000" fill-rule="nonzero" fill-opacity="1" /><polyline clip-path="url(#clip850)" style="stroke:#c271d2; stroke-linecap:round; stroke-linejoin:round; stroke-width:6; stroke-opacity:1; fill:none" stroke-dasharray="3, 6" points="2137.04,196.789 2196.06,196.789 "/>
<path clip-path="url(#clip850)" d="M2233.26 200.508 L2224.76 200.79 L2224.76 197.065 Q2222.58 200.79 2217.85 200.79 Q2215.9 200.79 2214.45 200.532 Q2213.02 200.274 2211.76 199.642 Q2210.52 198.986 2209.86 197.721 Q2209.2 196.456 2209.2 194.606 L2209.2 183.434 Q2209.2 182.075 2208.71 181.817 Q2208.22 181.56 2205.9 181.56 L2205.9 179.311 L2214.68 178.913 L2214.68 195.285 Q2214.68 196.433 2214.75 197.019 Q2214.85 197.581 2215.2 198.143 Q2215.57 198.682 2216.37 198.892 Q2217.17 199.08 2218.53 199.08 Q2221.17 199.08 2222.81 197.3 Q2224.48 195.519 2224.48 192.592 L2224.48 183.434 Q2224.48 182.075 2223.96 181.817 Q2223.47 181.56 2221.15 181.56 L2221.15 179.311 L2229.93 178.913 L2229.93 196.386 Q2229.93 197.745 2230.42 198.002 Q2230.94 198.26 2233.26 198.26 L2233.26 200.508 Z" fill="#000000" fill-rule="nonzero" fill-opacity="1" /><path clip-path="url(#clip850)" d="M2267.99 214.459 L2263.76 214.361 L2259.53 214.459 L2259.53 212.885 L2261.84 212.885 L2261.84 203.819 Q2261.84 201.982 2261.36 201.277 Q2260.89 200.556 2259.95 200.556 Q2259.13 200.556 2258.28 200.884 Q2257.45 201.212 2256.68 201.835 Q2255.92 202.458 2255.43 203.507 Q2254.95 204.556 2254.95 205.868 L2254.95 212.885 L2257.28 212.885 L2257.28 214.459 L2253.05 214.361 L2248.81 214.459 L2248.81 212.885 L2251.13 212.885 L2251.13 203.819 Q2251.13 201.982 2250.66 201.277 Q2250.18 200.556 2249.25 200.556 Q2248.43 200.556 2247.58 200.884 Q2246.74 201.212 2245.97 201.835 Q2245.21 202.458 2244.72 203.507 Q2244.25 204.556 2244.25 205.868 L2244.25 212.885 L2246.56 212.885 L2246.56 214.459 L2242.33 214.361 L2238.1 214.459 L2238.1 212.885 L2240.41 212.885 L2240.41 202.507 Q2240.41 201.556 2240.07 201.376 Q2239.72 201.195 2238.1 201.195 L2238.1 199.621 L2243.87 199.343 L2243.87 202.982 Q2244.74 201.294 2246.22 200.326 Q2247.71 199.343 2249.79 199.343 Q2254.12 199.343 2254.82 202.573 Q2255.59 201.212 2257 200.277 Q2258.41 199.343 2260.5 199.343 Q2263.14 199.343 2264.4 200.49 Q2265.68 201.622 2265.68 204.179 L2265.68 212.885 L2267.99 212.885 L2267.99 214.459 Z" fill="#000000" fill-rule="nonzero" fill-opacity="1" /><path clip-path="url(#clip850)" d="M2277.84 214.459 L2273.9 214.361 L2269.8 214.459 L2269.8 212.885 L2272.13 212.885 L2272.13 202.507 Q2272.13 201.556 2271.79 201.376 Q2271.44 201.195 2269.9 201.195 L2269.9 199.621 L2275.75 199.343 L2275.75 212.885 L2277.84 212.885 L2277.84 214.459 M2275.44 192.227 Q2276.21 192.997 2276.21 194.08 Q2276.21 195.162 2275.44 195.932 Q2274.69 196.703 2273.61 196.703 Q2272.52 196.703 2271.75 195.932 Q2270.98 195.162 2270.98 194.08 Q2270.98 192.997 2271.75 192.227 Q2272.52 191.456 2273.61 191.456 Q2274.69 191.456 2275.44 192.227 Z" fill="#000000" fill-rule="nonzero" fill-opacity="1" /><path clip-path="url(#clip850)" d="M2299.82 214.459 L2295.58 214.361 L2291.35 214.459 L2291.35 212.885 L2293.67 212.885 L2293.67 203.819 Q2293.67 201.999 2293.2 201.277 Q2292.74 200.556 2291.82 200.556 Q2290.99 200.556 2290.13 200.884 Q2289.3 201.212 2288.53 201.835 Q2287.77 202.458 2287.3 203.507 Q2286.82 204.556 2286.82 205.868 L2286.82 212.885 L2289.13 212.885 L2289.13 214.459 L2284.9 214.361 L2280.67 214.459 L2280.67 212.885 L2282.98 212.885 L2282.98 202.507 Q2282.98 201.556 2282.64 201.376 Q2282.3 201.195 2280.67 201.195 L2280.67 199.621 L2286.44 199.343 L2286.44 202.982 Q2286.8 202.277 2287.3 201.687 Q2287.79 201.081 2288.49 200.539 Q2289.2 199.982 2290.18 199.67 Q2291.18 199.343 2292.33 199.343 Q2294.94 199.343 2296.22 200.474 Q2297.49 201.605 2297.49 204.179 L2297.49 212.885 L2299.82 212.885 L2299.82 214.459 Z" fill="#000000" fill-rule="nonzero" fill-opacity="1" /><polyline clip-path="url(#clip850)" style="stroke:#ac8d18; stroke-linecap:round; stroke-linejoin:round; stroke-width:6; stroke-opacity:1; fill:none" stroke-dasharray="3, 6" points="2137.04,248.629 2196.06,248.629 "/>
<path clip-path="url(#clip850)" d="M2233.26 254.563 L2224.76 254.844 L2224.76 251.12 Q2222.58 254.844 2217.85 254.844 Q2215.9 254.844 2214.45 254.587 Q2213.02 254.329 2211.76 253.697 Q2210.52 253.041 2209.86 251.776 Q2209.2 250.511 2209.2 248.661 L2209.2 237.488 Q2209.2 236.13 2208.71 235.872 Q2208.22 235.615 2205.9 235.615 L2205.9 233.366 L2214.68 232.968 L2214.68 249.34 Q2214.68 250.488 2214.75 251.073 Q2214.85 251.636 2215.2 252.198 Q2215.57 252.736 2216.37 252.947 Q2217.17 253.135 2218.53 253.135 Q2221.17 253.135 2222.81 251.354 Q2224.48 249.574 2224.48 246.647 L2224.48 237.488 Q2224.48 236.13 2223.96 235.872 Q2223.47 235.615 2221.15 235.615 L2221.15 233.366 L2229.93 232.968 L2229.93 250.441 Q2229.93 251.799 2230.42 252.057 Q2230.94 252.315 2233.26 252.315 L2233.26 254.563 Z" fill="#000000" fill-rule="nonzero" fill-opacity="1" /><path clip-path="url(#clip850)" d="M2267.99 263.888 L2263.76 263.789 L2259.53 263.888 L2259.53 262.314 L2261.84 262.314 L2261.84 253.247 Q2261.84 251.411 2261.36 250.706 Q2260.89 249.984 2259.95 249.984 Q2259.13 249.984 2258.28 250.312 Q2257.45 250.64 2256.68 251.263 Q2255.92 251.886 2255.43 252.935 Q2254.95 253.985 2254.95 255.296 L2254.95 262.314 L2257.28 262.314 L2257.28 263.888 L2253.05 263.789 L2248.81 263.888 L2248.81 262.314 L2251.13 262.314 L2251.13 253.247 Q2251.13 251.411 2250.66 250.706 Q2250.18 249.984 2249.25 249.984 Q2248.43 249.984 2247.58 250.312 Q2246.74 250.64 2245.97 251.263 Q2245.21 251.886 2244.72 252.935 Q2244.25 253.985 2244.25 255.296 L2244.25 262.314 L2246.56 262.314 L2246.56 263.888 L2242.33 263.789 L2238.1 263.888 L2238.1 262.314 L2240.41 262.314 L2240.41 251.935 Q2240.41 250.984 2240.07 250.804 Q2239.72 250.624 2238.1 250.624 L2238.1 249.05 L2243.87 248.771 L2243.87 252.411 Q2244.74 250.722 2246.22 249.755 Q2247.71 248.771 2249.79 248.771 Q2254.12 248.771 2254.82 252.001 Q2255.59 250.64 2257 249.705 Q2258.41 248.771 2260.5 248.771 Q2263.14 248.771 2264.4 249.919 Q2265.68 251.05 2265.68 253.608 L2265.68 262.314 L2267.99 262.314 L2267.99 263.888 Z" fill="#000000" fill-rule="nonzero" fill-opacity="1" /><path clip-path="url(#clip850)" d="M2288.01 263.084 Q2288.01 263.379 2287.95 263.56 Q2287.88 263.724 2287.7 263.789 Q2287.54 263.855 2287.39 263.871 Q2287.24 263.888 2286.93 263.888 L2285.33 263.888 Q2284.33 263.888 2283.62 263.707 Q2282.93 263.511 2282.59 263.281 Q2282.24 263.052 2282.06 262.642 Q2281.88 262.232 2281.85 261.986 Q2281.83 261.723 2281.83 261.297 Q2281.21 262.494 2279.95 263.297 Q2278.7 264.084 2276.83 264.084 Q2276.05 264.084 2275.26 264.002 Q2274.47 263.92 2273.55 263.675 Q2272.64 263.412 2271.95 263.019 Q2271.26 262.609 2270.8 261.904 Q2270.34 261.182 2270.34 260.264 Q2270.34 255.444 2281.26 254.985 L2281.26 253.854 Q2281.26 249.886 2277.57 249.886 Q2276.23 249.886 2275.14 250.115 Q2275.24 250.181 2275.39 250.345 Q2275.54 250.509 2275.7 250.919 Q2275.88 251.329 2275.88 251.771 Q2275.88 252.771 2275.24 253.329 Q2274.62 253.886 2273.77 253.886 Q2272.98 253.886 2272.32 253.345 Q2271.68 252.788 2271.68 251.771 Q2271.68 248.672 2277.7 248.672 Q2281.33 248.672 2283.19 250.099 Q2285.08 251.509 2285.08 253.854 L2285.08 261.068 Q2285.08 261.428 2285.11 261.592 Q2285.15 261.756 2285.33 261.953 Q2285.51 262.15 2285.93 262.232 Q2286.37 262.297 2287.13 262.314 Q2287.42 262.314 2287.57 262.346 Q2287.72 262.363 2287.87 262.543 Q2288.01 262.724 2288.01 263.084 M2281.26 259.215 L2281.26 256.034 Q2280.69 256.067 2280.14 256.133 Q2279.6 256.198 2278.72 256.362 Q2277.83 256.51 2277.11 256.821 Q2276.41 257.116 2275.72 257.559 Q2275.05 257.985 2274.65 258.674 Q2274.27 259.362 2274.27 260.231 Q2274.27 261.346 2275.16 262.117 Q2276.05 262.888 2277.32 262.888 Q2277.65 262.888 2278.06 262.822 Q2278.47 262.756 2279.06 262.527 Q2279.65 262.281 2280.11 261.904 Q2280.59 261.527 2280.92 260.838 Q2281.26 260.133 2281.26 259.215 Z" fill="#000000" fill-rule="nonzero" fill-opacity="1" /><path clip-path="url(#clip850)" d="M2307.01 263.888 L2303.32 263.789 L2299.29 263.888 L2299.29 262.314 L2300.6 262.314 L2296.91 257.952 L2293.65 261.609 L2293.42 261.937 Q2293.42 262.084 2293.8 262.199 Q2294.19 262.314 2294.65 262.314 L2294.65 263.888 L2291.19 263.789 L2288.11 263.888 L2288.11 262.314 Q2289.14 262.314 2289.62 262.297 Q2290.11 262.265 2290.66 262.117 Q2291.22 261.969 2291.5 261.674 L2295.89 256.739 L2290.66 250.558 L2288.27 250.558 L2288.27 248.984 L2291.98 249.082 L2296.03 248.984 L2296.03 250.558 L2294.68 250.558 L2297.98 254.411 L2300.8 251.263 Q2300.81 251.247 2301.08 250.853 Q2300.55 250.558 2299.8 250.558 L2299.8 248.984 L2303.26 249.082 L2306.34 248.984 L2306.34 250.558 Q2304.99 250.558 2304.29 250.656 Q2303.6 250.738 2303.39 250.853 Q2303.19 250.968 2302.91 251.263 L2298.99 255.624 L2304.63 262.314 L2307.01 262.314 L2307.01 263.888 Z" fill="#000000" fill-rule="nonzero" fill-opacity="1" /></svg>
