<?xml version="1.0" encoding="utf-8"?>
<svg xmlns="http://www.w3.org/2000/svg" xmlns:xlink="http://www.w3.org/1999/xlink" width="600" height="400" viewBox="0 0 2400 1600">
<defs>
  <clipPath id="clip720">
    <rect x="0" y="0" width="2400" height="1600"/>
  </clipPath>
</defs>
<path clip-path="url(#clip720)" d="M0 1600 L2400 1600 L2400 0 L0 0  Z" fill="#ffffff" fill-rule="evenodd" fill-opacity="1"/>
<defs>
  <clipPath id="clip721">
    <rect x="480" y="0" width="1681" height="1600"/>
  </clipPath>
</defs>
<path clip-path="url(#clip720)" d="M232.551 1423.18 L1140.43 1423.18 L1140.43 47.2441 L232.551 47.2441  Z" fill="#ffffff" fill-rule="evenodd" fill-opacity="1"/>
<defs>
  <clipPath id="clip722">
    <rect x="232" y="47" width="909" height="1377"/>
  </clipPath>
</defs>
<polyline clip-path="url(#clip722)" style="stroke:#000000; stroke-linecap:round; stroke-linejoin:round; stroke-width:2; stroke-opacity:0.1; fill:none" points="258.246,1423.18 258.246,47.2441 "/>
<polyline clip-path="url(#clip722)" style="stroke:#000000; stroke-linecap:round; stroke-linejoin:round; stroke-width:2; stroke-opacity:0.1; fill:none" points="510.155,1423.18 510.155,47.2441 "/>
<polyline clip-path="url(#clip722)" style="stroke:#000000; stroke-linecap:round; stroke-linejoin:round; stroke-width:2; stroke-opacity:0.1; fill:none" points="762.063,1423.18 762.063,47.2441 "/>
<polyline clip-path="url(#clip722)" style="stroke:#000000; stroke-linecap:round; stroke-linejoin:round; stroke-width:2; stroke-opacity:0.1; fill:none" points="1013.97,1423.18 1013.97,47.2441 "/>
<polyline clip-path="url(#clip720)" style="stroke:#000000; stroke-linecap:round; stroke-linejoin:round; stroke-width:4; stroke-opacity:1; fill:none" points="232.551,1423.18 1140.43,1423.18 "/>
<polyline clip-path="url(#clip720)" style="stroke:#000000; stroke-linecap:round; stroke-linejoin:round; stroke-width:4; stroke-opacity:1; fill:none" points="258.246,1423.18 258.246,1404.28 "/>
<polyline clip-path="url(#clip720)" style="stroke:#000000; stroke-linecap:round; stroke-linejoin:round; stroke-width:4; stroke-opacity:1; fill:none" points="510.155,1423.18 510.155,1404.28 "/>
<polyline clip-path="url(#clip720)" style="stroke:#000000; stroke-linecap:round; stroke-linejoin:round; stroke-width:4; stroke-opacity:1; fill:none" points="762.063,1423.18 762.063,1404.28 "/>
<polyline clip-path="url(#clip720)" style="stroke:#000000; stroke-linecap:round; stroke-linejoin:round; stroke-width:4; stroke-opacity:1; fill:none" points="1013.97,1423.18 1013.97,1404.28 "/>
<path clip-path="url(#clip720)" d="M258.246 1454.1 Q254.635 1454.1 252.806 1457.66 Q251.001 1461.2 251.001 1468.33 Q251.001 1475.44 252.806 1479.01 Q254.635 1482.55 258.246 1482.55 Q261.88 1482.55 263.686 1479.01 Q265.515 1475.44 265.515 1468.33 Q265.515 1461.2 263.686 1457.66 Q261.88 1454.1 258.246 1454.1 M258.246 1450.39 Q264.056 1450.39 267.112 1455 Q270.19 1459.58 270.19 1468.33 Q270.19 1477.06 267.112 1481.67 Q264.056 1486.25 258.246 1486.25 Q252.436 1486.25 249.357 1481.67 Q246.302 1477.06 246.302 1468.33 Q246.302 1459.58 249.357 1455 Q252.436 1450.39 258.246 1450.39 Z" fill="#000000" fill-rule="nonzero" fill-opacity="1" /><path clip-path="url(#clip720)" d="M500.537 1481.64 L508.175 1481.64 L508.175 1455.28 L499.865 1456.95 L499.865 1452.69 L508.129 1451.02 L512.805 1451.02 L512.805 1481.64 L520.444 1481.64 L520.444 1485.58 L500.537 1485.58 L500.537 1481.64 Z" fill="#000000" fill-rule="nonzero" fill-opacity="1" /><path clip-path="url(#clip720)" d="M756.716 1481.64 L773.035 1481.64 L773.035 1485.58 L751.091 1485.58 L751.091 1481.64 Q753.753 1478.89 758.336 1474.26 Q762.943 1469.61 764.123 1468.27 Q766.369 1465.74 767.248 1464.01 Q768.151 1462.25 768.151 1460.56 Q768.151 1457.8 766.207 1456.07 Q764.285 1454.33 761.183 1454.33 Q758.984 1454.33 756.531 1455.09 Q754.1 1455.86 751.322 1457.41 L751.322 1452.69 Q754.146 1451.55 756.6 1450.97 Q759.054 1450.39 761.091 1450.39 Q766.461 1450.39 769.656 1453.08 Q772.85 1455.77 772.85 1460.26 Q772.85 1462.39 772.04 1464.31 Q771.253 1466.2 769.146 1468.8 Q768.568 1469.47 765.466 1472.69 Q762.364 1475.88 756.716 1481.64 Z" fill="#000000" fill-rule="nonzero" fill-opacity="1" /><path clip-path="url(#clip720)" d="M1018.22 1466.95 Q1021.58 1467.66 1023.45 1469.93 Q1025.35 1472.2 1025.35 1475.53 Q1025.35 1480.65 1021.83 1483.45 Q1018.31 1486.25 1011.83 1486.25 Q1009.65 1486.25 1007.34 1485.81 Q1005.05 1485.39 1002.59 1484.54 L1002.59 1480.02 Q1004.54 1481.16 1006.85 1481.74 Q1009.17 1482.32 1011.69 1482.32 Q1016.09 1482.32 1018.38 1480.58 Q1020.7 1478.84 1020.7 1475.53 Q1020.7 1472.48 1018.54 1470.77 Q1016.41 1469.03 1012.59 1469.03 L1008.57 1469.03 L1008.57 1465.19 L1012.78 1465.19 Q1016.23 1465.19 1018.06 1463.82 Q1019.89 1462.43 1019.89 1459.84 Q1019.89 1457.18 1017.99 1455.77 Q1016.11 1454.33 1012.59 1454.33 Q1010.67 1454.33 1008.47 1454.75 Q1006.27 1455.16 1003.64 1456.04 L1003.64 1451.88 Q1006.3 1451.14 1008.61 1450.77 Q1010.95 1450.39 1013.01 1450.39 Q1018.33 1450.39 1021.44 1452.83 Q1024.54 1455.23 1024.54 1459.35 Q1024.54 1462.22 1022.9 1464.21 Q1021.25 1466.18 1018.22 1466.95 Z" fill="#000000" fill-rule="nonzero" fill-opacity="1" /><path clip-path="url(#clip720)" d="M556.662 1520.52 L596.861 1520.52 L596.861 1525.93 L579.992 1525.93 L579.992 1568.04 L573.531 1568.04 L573.531 1525.93 L556.662 1525.93 L556.662 1520.52 Z" fill="#000000" fill-rule="nonzero" fill-opacity="1" /><path clip-path="url(#clip720)" d="M600.808 1532.4 L606.665 1532.4 L606.665 1568.04 L600.808 1568.04 L600.808 1532.4 M600.808 1518.52 L606.665 1518.52 L606.665 1525.93 L600.808 1525.93 L600.808 1518.52 Z" fill="#000000" fill-rule="nonzero" fill-opacity="1" /><path clip-path="url(#clip720)" d="M646.673 1539.24 Q648.869 1535.29 651.925 1533.41 Q654.98 1531.54 659.118 1531.54 Q664.688 1531.54 667.712 1535.45 Q670.735 1539.33 670.735 1546.53 L670.735 1568.04 L664.847 1568.04 L664.847 1546.72 Q664.847 1541.59 663.033 1539.11 Q661.219 1536.63 657.495 1536.63 Q652.943 1536.63 650.301 1539.65 Q647.66 1542.68 647.66 1547.9 L647.66 1568.04 L641.771 1568.04 L641.771 1546.72 Q641.771 1541.56 639.957 1539.11 Q638.143 1536.63 634.355 1536.63 Q629.868 1536.63 627.226 1539.68 Q624.584 1542.71 624.584 1547.9 L624.584 1568.04 L618.696 1568.04 L618.696 1532.4 L624.584 1532.4 L624.584 1537.93 Q626.589 1534.66 629.39 1533.1 Q632.191 1531.54 636.042 1531.54 Q639.925 1531.54 642.631 1533.51 Q645.368 1535.48 646.673 1539.24 Z" fill="#000000" fill-rule="nonzero" fill-opacity="1" /><path clip-path="url(#clip720)" d="M712.908 1548.76 L712.908 1551.62 L685.981 1551.62 Q686.363 1557.67 689.61 1560.85 Q692.888 1564 698.713 1564 Q702.086 1564 705.237 1563.17 Q708.42 1562.35 711.54 1560.69 L711.54 1566.23 Q708.389 1567.57 705.078 1568.27 Q701.768 1568.97 698.363 1568.97 Q689.832 1568.97 684.835 1564 Q679.87 1559.04 679.87 1550.57 Q679.87 1541.82 684.581 1536.69 Q689.323 1531.54 697.344 1531.54 Q704.537 1531.54 708.707 1536.18 Q712.908 1540.8 712.908 1548.76 M707.052 1547.04 Q706.988 1542.23 704.346 1539.37 Q701.736 1536.5 697.408 1536.5 Q692.506 1536.5 689.546 1539.27 Q686.618 1542.04 686.172 1547.07 L707.052 1547.04 Z" fill="#000000" fill-rule="nonzero" fill-opacity="1" /><path clip-path="url(#clip720)" d="M757.309 1518.58 Q753.044 1525.9 750.975 1533.06 Q748.906 1540.23 748.906 1547.58 Q748.906 1554.93 750.975 1562.16 Q753.076 1569.35 757.309 1576.64 L752.216 1576.64 Q747.442 1569.16 745.055 1561.93 Q742.7 1554.71 742.7 1547.58 Q742.7 1540.48 745.055 1533.29 Q747.41 1526.09 752.216 1518.58 L757.309 1518.58 Z" fill="#000000" fill-rule="nonzero" fill-opacity="1" /><path clip-path="url(#clip720)" d="M791.397 1533.45 L791.397 1538.98 Q788.915 1537.71 786.241 1537.07 Q783.568 1536.44 780.703 1536.44 Q776.342 1536.44 774.146 1537.77 Q771.982 1539.11 771.982 1541.79 Q771.982 1543.82 773.542 1545 Q775.101 1546.15 779.812 1547.2 L781.817 1547.64 Q788.055 1548.98 790.665 1551.43 Q793.307 1553.85 793.307 1558.21 Q793.307 1563.17 789.36 1566.07 Q785.445 1568.97 778.57 1568.97 Q775.706 1568.97 772.587 1568.39 Q769.499 1567.85 766.062 1566.74 L766.062 1560.69 Q769.308 1562.38 772.459 1563.24 Q775.61 1564.07 778.698 1564.07 Q782.835 1564.07 785.063 1562.66 Q787.291 1561.23 787.291 1558.65 Q787.291 1556.27 785.668 1554.99 Q784.077 1553.72 778.634 1552.54 L776.597 1552.07 Q771.154 1550.92 768.735 1548.56 Q766.316 1546.18 766.316 1542.04 Q766.316 1537.01 769.881 1534.27 Q773.446 1531.54 780.003 1531.54 Q783.249 1531.54 786.114 1532.01 Q788.978 1532.49 791.397 1533.45 Z" fill="#000000" fill-rule="nonzero" fill-opacity="1" /><path clip-path="url(#clip720)" d="M801.71 1518.58 L806.802 1518.58 Q811.577 1526.09 813.932 1533.29 Q816.319 1540.48 816.319 1547.58 Q816.319 1554.71 813.932 1561.93 Q811.577 1569.16 806.802 1576.64 L801.71 1576.64 Q805.943 1569.35 808.012 1562.16 Q810.113 1554.93 810.113 1547.58 Q810.113 1540.23 808.012 1533.06 Q805.943 1525.9 801.71 1518.58 Z" fill="#000000" fill-rule="nonzero" fill-opacity="1" /><polyline clip-path="url(#clip722)" style="stroke:#000000; stroke-linecap:round; stroke-linejoin:round; stroke-width:2; stroke-opacity:0.1; fill:none" points="232.551,1124.26 1140.43,1124.26 "/>
<polyline clip-path="url(#clip722)" style="stroke:#000000; stroke-linecap:round; stroke-linejoin:round; stroke-width:2; stroke-opacity:0.1; fill:none" points="232.551,812.841 1140.43,812.841 "/>
<polyline clip-path="url(#clip722)" style="stroke:#000000; stroke-linecap:round; stroke-linejoin:round; stroke-width:2; stroke-opacity:0.1; fill:none" points="232.551,501.417 1140.43,501.417 "/>
<polyline clip-path="url(#clip722)" style="stroke:#000000; stroke-linecap:round; stroke-linejoin:round; stroke-width:2; stroke-opacity:0.1; fill:none" points="232.551,189.994 1140.43,189.994 "/>
<polyline clip-path="url(#clip720)" style="stroke:#000000; stroke-linecap:round; stroke-linejoin:round; stroke-width:4; stroke-opacity:1; fill:none" points="232.551,1423.18 232.551,47.2441 "/>
<polyline clip-path="url(#clip720)" style="stroke:#000000; stroke-linecap:round; stroke-linejoin:round; stroke-width:4; stroke-opacity:1; fill:none" points="232.551,1124.26 251.449,1124.26 "/>
<polyline clip-path="url(#clip720)" style="stroke:#000000; stroke-linecap:round; stroke-linejoin:round; stroke-width:4; stroke-opacity:1; fill:none" points="232.551,812.841 251.449,812.841 "/>
<polyline clip-path="url(#clip720)" style="stroke:#000000; stroke-linecap:round; stroke-linejoin:round; stroke-width:4; stroke-opacity:1; fill:none" points="232.551,501.417 251.449,501.417 "/>
<polyline clip-path="url(#clip720)" style="stroke:#000000; stroke-linecap:round; stroke-linejoin:round; stroke-width:4; stroke-opacity:1; fill:none" points="232.551,189.994 251.449,189.994 "/>
<path clip-path="url(#clip720)" d="M115.093 1137.61 L122.732 1137.61 L122.732 1111.24 L114.422 1112.91 L114.422 1108.65 L122.686 1106.98 L127.362 1106.98 L127.362 1137.61 L135.001 1137.61 L135.001 1141.54 L115.093 1141.54 L115.093 1137.61 Z" fill="#000000" fill-rule="nonzero" fill-opacity="1" /><path clip-path="url(#clip720)" d="M154.445 1125.13 Q151.112 1125.13 149.191 1126.92 Q147.292 1128.7 147.292 1131.82 Q147.292 1134.95 149.191 1136.73 Q151.112 1138.51 154.445 1138.51 Q157.778 1138.51 159.7 1136.73 Q161.621 1134.92 161.621 1131.82 Q161.621 1128.7 159.7 1126.92 Q157.802 1125.13 154.445 1125.13 M149.769 1123.14 Q146.76 1122.4 145.07 1120.34 Q143.404 1118.28 143.404 1115.32 Q143.404 1111.17 146.343 1108.77 Q149.306 1106.36 154.445 1106.36 Q159.607 1106.36 162.547 1108.77 Q165.487 1111.17 165.487 1115.32 Q165.487 1118.28 163.797 1120.34 Q162.13 1122.4 159.144 1123.14 Q162.524 1123.93 164.399 1126.22 Q166.297 1128.51 166.297 1131.82 Q166.297 1136.85 163.218 1139.53 Q160.163 1142.22 154.445 1142.22 Q148.728 1142.22 145.649 1139.53 Q142.593 1136.85 142.593 1131.82 Q142.593 1128.51 144.491 1126.22 Q146.39 1123.93 149.769 1123.14 M148.056 1115.76 Q148.056 1118.44 149.723 1119.95 Q151.413 1121.45 154.445 1121.45 Q157.454 1121.45 159.144 1119.95 Q160.857 1118.44 160.857 1115.76 Q160.857 1113.07 159.144 1111.57 Q157.454 1110.06 154.445 1110.06 Q151.413 1110.06 149.723 1111.57 Q148.056 1113.07 148.056 1115.76 Z" fill="#000000" fill-rule="nonzero" fill-opacity="1" /><path clip-path="url(#clip720)" d="M184.607 1110.06 Q180.996 1110.06 179.167 1113.63 Q177.362 1117.17 177.362 1124.3 Q177.362 1131.41 179.167 1134.97 Q180.996 1138.51 184.607 1138.51 Q188.241 1138.51 190.047 1134.97 Q191.875 1131.41 191.875 1124.3 Q191.875 1117.17 190.047 1113.63 Q188.241 1110.06 184.607 1110.06 M184.607 1106.36 Q190.417 1106.36 193.473 1110.97 Q196.551 1115.55 196.551 1124.3 Q196.551 1133.03 193.473 1137.63 Q190.417 1142.22 184.607 1142.22 Q178.797 1142.22 175.718 1137.63 Q172.663 1133.03 172.663 1124.3 Q172.663 1115.55 175.718 1110.97 Q178.797 1106.36 184.607 1106.36 Z" fill="#000000" fill-rule="nonzero" fill-opacity="1" /><path clip-path="url(#clip720)" d="M115.742 826.186 L123.38 826.186 L123.38 799.82 L115.07 801.487 L115.07 797.228 L123.334 795.561 L128.01 795.561 L128.01 826.186 L135.649 826.186 L135.649 830.121 L115.742 830.121 L115.742 826.186 Z" fill="#000000" fill-rule="nonzero" fill-opacity="1" /><path clip-path="url(#clip720)" d="M155.093 813.709 Q151.76 813.709 149.839 815.491 Q147.941 817.274 147.941 820.399 Q147.941 823.524 149.839 825.306 Q151.76 827.089 155.093 827.089 Q158.427 827.089 160.348 825.306 Q162.269 823.501 162.269 820.399 Q162.269 817.274 160.348 815.491 Q158.45 813.709 155.093 813.709 M150.417 811.718 Q147.408 810.978 145.718 808.917 Q144.052 806.857 144.052 803.894 Q144.052 799.751 146.991 797.343 Q149.954 794.936 155.093 794.936 Q160.255 794.936 163.195 797.343 Q166.135 799.751 166.135 803.894 Q166.135 806.857 164.445 808.917 Q162.778 810.978 159.792 811.718 Q163.172 812.505 165.047 814.797 Q166.945 817.089 166.945 820.399 Q166.945 825.422 163.866 828.107 Q160.811 830.792 155.093 830.792 Q149.376 830.792 146.297 828.107 Q143.241 825.422 143.241 820.399 Q143.241 817.089 145.14 814.797 Q147.038 812.505 150.417 811.718 M148.704 804.334 Q148.704 807.019 150.371 808.524 Q152.061 810.029 155.093 810.029 Q158.103 810.029 159.792 808.524 Q161.505 807.019 161.505 804.334 Q161.505 801.649 159.792 800.144 Q158.103 798.64 155.093 798.64 Q152.061 798.64 150.371 800.144 Q148.704 801.649 148.704 804.334 Z" fill="#000000" fill-rule="nonzero" fill-opacity="1" /><path clip-path="url(#clip720)" d="M189.422 811.487 Q192.778 812.204 194.653 814.473 Q196.551 816.741 196.551 820.075 Q196.551 825.19 193.033 827.991 Q189.514 830.792 183.033 830.792 Q180.857 830.792 178.542 830.353 Q176.251 829.936 173.797 829.079 L173.797 824.566 Q175.741 825.7 178.056 826.278 Q180.371 826.857 182.894 826.857 Q187.292 826.857 189.584 825.121 Q191.899 823.385 191.899 820.075 Q191.899 817.019 189.746 815.306 Q187.616 813.57 183.797 813.57 L179.769 813.57 L179.769 809.728 L183.982 809.728 Q187.431 809.728 189.26 808.362 Q191.088 806.973 191.088 804.38 Q191.088 801.718 189.19 800.306 Q187.315 798.871 183.797 798.871 Q181.876 798.871 179.676 799.288 Q177.477 799.705 174.839 800.584 L174.839 796.418 Q177.501 795.677 179.815 795.306 Q182.153 794.936 184.213 794.936 Q189.538 794.936 192.639 797.367 Q195.741 799.774 195.741 803.894 Q195.741 806.765 194.098 808.755 Q192.454 810.723 189.422 811.487 Z" fill="#000000" fill-rule="nonzero" fill-opacity="1" /><path clip-path="url(#clip720)" d="M114.931 514.762 L122.57 514.762 L122.57 488.397 L114.26 490.063 L114.26 485.804 L122.524 484.137 L127.2 484.137 L127.2 514.762 L134.839 514.762 L134.839 518.697 L114.931 518.697 L114.931 514.762 Z" fill="#000000" fill-rule="nonzero" fill-opacity="1" /><path clip-path="url(#clip720)" d="M154.283 502.285 Q150.95 502.285 149.028 504.068 Q147.13 505.85 147.13 508.975 Q147.13 512.1 149.028 513.883 Q150.95 515.665 154.283 515.665 Q157.616 515.665 159.538 513.883 Q161.459 512.077 161.459 508.975 Q161.459 505.85 159.538 504.068 Q157.64 502.285 154.283 502.285 M149.607 500.295 Q146.598 499.554 144.908 497.494 Q143.241 495.434 143.241 492.471 Q143.241 488.327 146.181 485.92 Q149.144 483.512 154.283 483.512 Q159.445 483.512 162.385 485.92 Q165.325 488.327 165.325 492.471 Q165.325 495.434 163.635 497.494 Q161.968 499.554 158.982 500.295 Q162.362 501.082 164.237 503.373 Q166.135 505.665 166.135 508.975 Q166.135 513.998 163.056 516.683 Q160.001 519.369 154.283 519.369 Q148.566 519.369 145.487 516.683 Q142.431 513.998 142.431 508.975 Q142.431 505.665 144.329 503.373 Q146.228 501.082 149.607 500.295 M147.894 492.91 Q147.894 495.596 149.561 497.1 Q151.251 498.605 154.283 498.605 Q157.292 498.605 158.982 497.1 Q160.695 495.596 160.695 492.91 Q160.695 490.225 158.982 488.721 Q157.292 487.216 154.283 487.216 Q151.251 487.216 149.561 488.721 Q147.894 490.225 147.894 492.91 Z" fill="#000000" fill-rule="nonzero" fill-opacity="1" /><path clip-path="url(#clip720)" d="M185.024 499.554 Q181.876 499.554 180.024 501.707 Q178.195 503.859 178.195 507.609 Q178.195 511.336 180.024 513.512 Q181.876 515.665 185.024 515.665 Q188.172 515.665 190 513.512 Q191.852 511.336 191.852 507.609 Q191.852 503.859 190 501.707 Q188.172 499.554 185.024 499.554 M194.306 484.901 L194.306 489.16 Q192.547 488.327 190.741 487.887 Q188.959 487.447 187.2 487.447 Q182.57 487.447 180.116 490.572 Q177.686 493.697 177.339 500.017 Q178.704 498.003 180.764 496.938 Q182.825 495.85 185.301 495.85 Q190.51 495.85 193.519 499.021 Q196.551 502.17 196.551 507.609 Q196.551 512.933 193.403 516.151 Q190.255 519.369 185.024 519.369 Q179.028 519.369 175.857 514.785 Q172.686 510.179 172.686 501.452 Q172.686 493.258 176.575 488.397 Q180.464 483.512 187.014 483.512 Q188.774 483.512 190.556 483.86 Q192.362 484.207 194.306 484.901 Z" fill="#000000" fill-rule="nonzero" fill-opacity="1" /><path clip-path="url(#clip720)" d="M115.279 203.338 L122.918 203.338 L122.918 176.973 L114.607 178.639 L114.607 174.38 L122.871 172.714 L127.547 172.714 L127.547 203.338 L135.186 203.338 L135.186 207.274 L115.279 207.274 L115.279 203.338 Z" fill="#000000" fill-rule="nonzero" fill-opacity="1" /><path clip-path="url(#clip720)" d="M154.63 190.862 Q151.297 190.862 149.376 192.644 Q147.478 194.426 147.478 197.551 Q147.478 200.676 149.376 202.459 Q151.297 204.241 154.63 204.241 Q157.964 204.241 159.885 202.459 Q161.806 200.653 161.806 197.551 Q161.806 194.426 159.885 192.644 Q157.987 190.862 154.63 190.862 M149.954 188.871 Q146.945 188.13 145.255 186.07 Q143.589 184.01 143.589 181.047 Q143.589 176.903 146.529 174.496 Q149.491 172.089 154.63 172.089 Q159.792 172.089 162.732 174.496 Q165.672 176.903 165.672 181.047 Q165.672 184.01 163.982 186.07 Q162.315 188.13 159.329 188.871 Q162.709 189.658 164.584 191.95 Q166.482 194.241 166.482 197.551 Q166.482 202.575 163.403 205.26 Q160.348 207.945 154.63 207.945 Q148.913 207.945 145.834 205.26 Q142.779 202.575 142.779 197.551 Q142.779 194.241 144.677 191.95 Q146.575 189.658 149.954 188.871 M148.241 181.487 Q148.241 184.172 149.908 185.676 Q151.598 187.181 154.63 187.181 Q157.64 187.181 159.329 185.676 Q161.042 184.172 161.042 181.487 Q161.042 178.802 159.329 177.297 Q157.64 175.792 154.63 175.792 Q151.598 175.792 149.908 177.297 Q148.241 178.802 148.241 181.487 Z" fill="#000000" fill-rule="nonzero" fill-opacity="1" /><path clip-path="url(#clip720)" d="M174.931 206.556 L174.931 202.297 Q176.69 203.13 178.496 203.57 Q180.301 204.01 182.038 204.01 Q186.667 204.01 189.098 200.908 Q191.551 197.783 191.899 191.44 Q190.556 193.431 188.496 194.496 Q186.436 195.561 183.936 195.561 Q178.751 195.561 175.718 192.436 Q172.709 189.288 172.709 183.848 Q172.709 178.524 175.857 175.306 Q179.005 172.089 184.237 172.089 Q190.232 172.089 193.38 176.695 Q196.551 181.278 196.551 190.028 Q196.551 198.2 192.663 203.084 Q188.797 207.945 182.246 207.945 Q180.487 207.945 178.681 207.598 Q176.876 207.25 174.931 206.556 M184.237 191.903 Q187.385 191.903 189.213 189.751 Q191.065 187.598 191.065 183.848 Q191.065 180.121 189.213 177.968 Q187.385 175.792 184.237 175.792 Q181.089 175.792 179.237 177.968 Q177.408 180.121 177.408 183.848 Q177.408 187.598 179.237 189.751 Q181.089 191.903 184.237 191.903 Z" fill="#000000" fill-rule="nonzero" fill-opacity="1" /><path clip-path="url(#clip720)" d="M39.4334 772.564 Q44.844 772.564 50.9309 774.303 Q56.9856 776.01 61.8809 778.715 Q66.744 781.42 69.9646 784.963 Q73.153 788.505 73.153 791.887 Q73.153 794.045 71.9613 795.655 Q70.7375 797.233 68.7085 798.103 Q66.6474 798.972 64.393 799.391 Q62.1063 799.81 59.6265 799.81 Q55.9228 799.81 51.8971 799.005 Q47.8391 798.199 44.1677 796.847 Q40.464 795.494 37.1146 793.594 Q33.733 791.694 31.2853 789.6 Q28.8055 787.475 27.3562 785.092 Q25.907 782.708 25.907 780.486 Q25.907 778.876 26.6155 777.588 Q27.2918 776.267 28.4834 775.43 Q29.6428 774.593 31.0277 774.013 Q32.4125 773.401 34.0228 773.111 Q35.6009 772.821 36.9214 772.692 Q38.2096 772.564 39.4334 772.564 M35.3433 776.911 Q33.7008 776.911 32.477 777.04 Q31.2209 777.169 29.9649 777.523 Q28.7089 777.878 28.0325 778.65 Q27.3562 779.391 27.3562 780.551 Q27.3562 783.932 34.2805 787.733 Q36.4383 788.956 39.369 790.051 Q42.2997 791.146 43.6846 791.533 Q45.0694 791.919 48.4833 792.821 L48.4833 779.037 Q39.6911 776.911 35.3433 776.911 M50.5766 779.617 L50.5766 793.336 Q58.6281 795.462 63.6522 795.462 Q68.0322 795.462 69.868 794.56 Q71.6715 793.626 71.6715 791.887 Q71.6715 789.89 69.6747 788.022 Q67.6458 786.154 63.9743 784.254 Q59.2078 781.742 50.5766 779.617 Z" fill="#000000" fill-rule="nonzero" fill-opacity="1" /><path clip-path="url(#clip720)" d="M22.9507 728.256 Q30.2712 732.521 37.4327 734.59 Q44.5941 736.658 51.9465 736.658 Q59.2989 736.658 66.5239 734.59 Q73.7172 732.489 81.0059 728.256 L81.0059 733.348 Q73.5262 738.123 66.3011 740.51 Q59.0761 742.865 51.9465 742.865 Q44.8487 742.865 37.6555 740.51 Q30.4622 738.154 22.9507 733.348 L22.9507 728.256 Z" fill="#000000" fill-rule="nonzero" fill-opacity="1" /><path clip-path="url(#clip720)" d="M28.1387 706.74 Q28.1387 709.286 29.9211 711.036 Q31.6717 712.787 34.218 712.787 Q36.7324 712.787 38.483 711.036 Q40.2017 709.286 40.2017 706.74 Q40.2017 704.193 38.483 702.443 Q36.7324 700.692 34.218 700.692 Q31.7035 700.692 29.9211 702.475 Q28.1387 704.225 28.1387 706.74 M24.0328 706.74 Q24.0328 704.703 24.8286 702.825 Q25.5924 700.947 27.0566 699.578 Q28.4888 698.114 30.3031 697.382 Q32.1173 696.65 34.218 696.65 Q38.4193 696.65 41.3476 699.61 Q44.244 702.538 44.244 706.803 Q44.244 711.1 41.3794 713.965 Q38.5148 716.829 34.218 716.829 Q29.953 716.829 26.9929 713.901 Q24.0328 710.973 24.0328 706.74 Z" fill="#000000" fill-rule="nonzero" fill-opacity="1" /><path clip-path="url(#clip720)" d="M22.9507 685.224 L22.9507 680.131 Q30.4622 675.357 37.6555 673.001 Q44.8487 670.614 51.9465 670.614 Q59.0761 670.614 66.3011 673.001 Q73.5262 675.357 81.0059 680.131 L81.0059 685.224 Q73.7172 680.99 66.5239 678.921 Q59.2989 676.821 51.9465 676.821 Q44.5941 676.821 37.4327 678.921 Q30.2712 680.99 22.9507 685.224 Z" fill="#000000" fill-rule="nonzero" fill-opacity="1" /><polyline clip-path="url(#clip722)" style="stroke:#009af9; stroke-linecap:round; stroke-linejoin:round; stroke-width:4; stroke-opacity:1; fill:none" points="258.246,86.1857 283.437,86.1857 308.628,649.819 333.819,1305.9 359.009,1384.24 384.2,1314.67 409.391,1332.27 434.582,1351.25 459.773,1339.74 484.964,1314.14 510.155,1286.5 535.345,1259.37 560.536,1233.33 585.727,1209.39 610.918,1188.43 636.109,1170.79 661.3,1156.43 686.49,1145.1 711.681,1136.45 736.872,1130.09 762.063,1125.62 787.254,1122.65 812.445,1120.85 837.636,1119.92 862.826,1119.6 888.017,1119.7 913.208,1120.07 938.399,1120.58 963.59,1121.15 988.781,1121.72 1013.97,1122.25 1039.16,1122.72 1064.35,1123.13 1089.54,1123.47 1114.73,1123.74 "/>
<polyline clip-path="url(#clip722)" style="stroke:#3da44d; stroke-linecap:round; stroke-linejoin:round; stroke-width:3; stroke-opacity:1; fill:none" stroke-dasharray="12, 8" points="258.246,1124.26 283.437,1124.26 308.628,1124.26 333.819,1124.26 359.009,1124.26 384.2,1124.26 409.391,1124.26 434.582,1124.26 459.773,1124.26 484.964,1124.26 510.155,1124.26 535.345,1124.26 560.536,1124.26 585.727,1124.26 610.918,1124.26 636.109,1124.26 661.3,1124.26 686.49,1124.26 711.681,1124.26 736.872,1124.26 762.063,1124.26 787.254,1124.26 812.445,1124.26 837.636,1124.26 862.826,1124.26 888.017,1124.26 913.208,1124.26 938.399,1124.26 963.59,1124.26 988.781,1124.26 1013.97,1124.26 1039.16,1124.26 1064.35,1124.26 1089.54,1124.26 1114.73,1124.26 "/>
<path clip-path="url(#clip720)" d="M971.37 248.629 L1110.17 248.629 L1110.17 93.1086 L971.37 93.1086  Z" fill="#ffffff" fill-rule="evenodd" fill-opacity="1"/>
<polyline clip-path="url(#clip720)" style="stroke:#000000; stroke-linecap:round; stroke-linejoin:round; stroke-width:4; stroke-opacity:1; fill:none" points="971.37,248.629 1110.17,248.629 1110.17,93.1086 971.37,93.1086 971.37,248.629 "/>
<polyline clip-path="url(#clip720)" style="stroke:#009af9; stroke-linecap:round; stroke-linejoin:round; stroke-width:4; stroke-opacity:1; fill:none" points="981.458,144.949 1041.98,144.949 "/>
<path clip-path="url(#clip720)" d="M1078.84 131.687 Q1077.37 131.687 1076.62 131.828 Q1075.87 131.945 1075.68 132.109 Q1075.49 132.273 1075.28 132.695 L1064.98 154.618 Q1063.88 156.96 1061.81 158.647 Q1059.78 160.333 1057.2 160.333 Q1055.05 160.333 1053.55 159.021 Q1052.07 157.733 1052.07 155.906 Q1052.07 154.595 1052.89 153.845 Q1053.71 153.119 1054.81 153.119 Q1056.03 153.119 1056.8 153.892 Q1057.6 154.665 1057.6 155.859 Q1057.6 156.632 1057.27 157.218 Q1056.94 157.827 1056.64 158.038 Q1056.36 158.272 1056.05 158.412 Q1056.54 158.6 1057.2 158.6 Q1058.18 158.6 1059.03 158.202 Q1059.89 157.827 1060.46 157.312 Q1061.04 156.82 1061.63 155.93 Q1062.21 155.063 1062.49 154.501 Q1062.77 153.962 1063.2 153.025 L1064.3 150.73 L1055.33 131.687 L1052.26 131.687 L1052.26 129.439 L1057.74 129.579 L1063.69 129.439 L1063.69 131.687 L1061.09 131.687 L1067.18 144.64 L1072.71 132.835 L1072.94 132.273 Q1072.94 132.015 1072.38 131.875 Q1071.82 131.711 1071.25 131.711 L1070.69 131.687 L1070.69 129.439 L1075.05 129.579 Q1077.11 129.579 1078.84 129.439 L1078.84 131.687 Z" fill="#000000" fill-rule="nonzero" fill-opacity="1" /><polyline clip-path="url(#clip720)" style="stroke:#3da44d; stroke-linecap:round; stroke-linejoin:round; stroke-width:3; stroke-opacity:1; fill:none" stroke-dasharray="12, 8" points="981.458,196.789 1041.98,196.789 "/>
<path clip-path="url(#clip720)" d="M1071.49 182.067 Q1071.49 183.425 1070.6 184.221 Q1069.71 184.994 1068.56 184.994 Q1067.41 184.994 1066.52 184.221 Q1065.63 183.448 1065.63 182.067 Q1065.63 181.458 1065.84 180.919 Q1066.08 180.357 1066.31 180.099 L1066.55 179.865 Q1065.16 179.865 1064.09 180.521 Q1063.01 181.153 1062.35 182.137 Q1061.7 183.121 1061.28 184.409 Q1060.85 185.674 1060.69 186.821 Q1060.55 187.969 1060.55 189.07 L1060.55 197.479 L1064.72 197.479 L1064.72 199.727 Q1062.99 199.587 1058.11 199.587 L1052.07 199.727 L1052.07 197.479 L1055.37 197.479 L1055.37 182.652 Q1055.37 181.294 1054.88 181.036 Q1054.39 180.778 1052.07 180.778 L1052.07 178.53 L1060.03 178.132 L1060.03 183.566 Q1062.03 178.132 1066.41 178.132 Q1068.42 178.132 1069.94 179.209 Q1071.49 180.263 1071.49 182.067 Z" fill="#000000" fill-rule="nonzero" fill-opacity="1" /><path clip-path="url(#clip720)" d="M1095.15 195.25 Q1094.12 195.25 1093.59 195.349 Q1093.07 195.431 1092.94 195.545 Q1092.81 195.66 1092.66 195.955 L1085.44 211.302 Q1084.67 212.941 1083.23 214.122 Q1081.8 215.302 1080 215.302 Q1078.49 215.302 1077.44 214.384 Q1076.41 213.482 1076.41 212.203 Q1076.41 211.285 1076.98 210.76 Q1077.56 210.252 1078.33 210.252 Q1079.18 210.252 1079.72 210.793 Q1080.28 211.334 1080.28 212.171 Q1080.28 212.712 1080.05 213.121 Q1079.82 213.548 1079.61 213.695 Q1079.41 213.859 1079.2 213.958 Q1079.54 214.089 1080 214.089 Q1080.69 214.089 1081.28 213.81 Q1081.89 213.548 1082.28 213.187 Q1082.69 212.843 1083.1 212.22 Q1083.51 211.613 1083.71 211.22 Q1083.9 210.842 1084.2 210.187 L1084.97 208.58 L1078.69 195.25 L1076.54 195.25 L1076.54 193.676 L1080.38 193.775 L1084.54 193.676 L1084.54 195.25 L1082.72 195.25 L1086.98 204.317 L1090.85 196.054 L1091.02 195.66 Q1091.02 195.48 1090.62 195.381 Q1090.23 195.267 1089.84 195.267 L1089.44 195.25 L1089.44 193.676 L1092.49 193.775 Q1093.94 193.775 1095.15 193.676 L1095.15 195.25 Z" fill="#000000" fill-rule="nonzero" fill-opacity="1" /><path clip-path="url(#clip720)" d="M1444.88 1423.18 L2352.76 1423.18 L2352.76 47.2441 L1444.88 47.2441  Z" fill="#ffffff" fill-rule="evenodd" fill-opacity="1"/>
<defs>
  <clipPath id="clip723">
    <rect x="1444" y="47" width="909" height="1377"/>
  </clipPath>
</defs>
<polyline clip-path="url(#clip723)" style="stroke:#000000; stroke-linecap:round; stroke-linejoin:round; stroke-width:2; stroke-opacity:0.1; fill:none" points="1470.57,1423.18 1470.57,47.2441 "/>
<polyline clip-path="url(#clip723)" style="stroke:#000000; stroke-linecap:round; stroke-linejoin:round; stroke-width:2; stroke-opacity:0.1; fill:none" points="1722.48,1423.18 1722.48,47.2441 "/>
<polyline clip-path="url(#clip723)" style="stroke:#000000; stroke-linecap:round; stroke-linejoin:round; stroke-width:2; stroke-opacity:0.1; fill:none" points="1974.39,1423.18 1974.39,47.2441 "/>
<polyline clip-path="url(#clip723)" style="stroke:#000000; stroke-linecap:round; stroke-linejoin:round; stroke-width:2; stroke-opacity:0.1; fill:none" points="2226.3,1423.18 2226.3,47.2441 "/>
<polyline clip-path="url(#clip720)" style="stroke:#000000; stroke-linecap:round; stroke-linejoin:round; stroke-width:4; stroke-opacity:1; fill:none" points="1444.88,1423.18 2352.76,1423.18 "/>
<polyline clip-path="url(#clip720)" style="stroke:#000000; stroke-linecap:round; stroke-linejoin:round; stroke-width:4; stroke-opacity:1; fill:none" points="1470.57,1423.18 1470.57,1404.28 "/>
<polyline clip-path="url(#clip720)" style="stroke:#000000; stroke-linecap:round; stroke-linejoin:round; stroke-width:4; stroke-opacity:1; fill:none" points="1722.48,1423.18 1722.48,1404.28 "/>
<polyline clip-path="url(#clip720)" style="stroke:#000000; stroke-linecap:round; stroke-linejoin:round; stroke-width:4; stroke-opacity:1; fill:none" points="1974.39,1423.18 1974.39,1404.28 "/>
<polyline clip-path="url(#clip720)" style="stroke:#000000; stroke-linecap:round; stroke-linejoin:round; stroke-width:4; stroke-opacity:1; fill:none" points="2226.3,1423.18 2226.3,1404.28 "/>
<path clip-path="url(#clip720)" d="M1470.57 1454.1 Q1466.96 1454.1 1465.13 1457.66 Q1463.33 1461.2 1463.33 1468.33 Q1463.33 1475.44 1465.13 1479.01 Q1466.96 1482.55 1470.57 1482.55 Q1474.21 1482.55 1476.01 1479.01 Q1477.84 1475.44 1477.84 1468.33 Q1477.84 1461.2 1476.01 1457.66 Q1474.21 1454.1 1470.57 1454.1 M1470.57 1450.39 Q1476.38 1450.39 1479.44 1455 Q1482.52 1459.58 1482.52 1468.33 Q1482.52 1477.06 1479.44 1481.67 Q1476.38 1486.25 1470.57 1486.25 Q1464.76 1486.25 1461.68 1481.67 Q1458.63 1477.06 1458.63 1468.33 Q1458.63 1459.58 1461.68 1455 Q1464.76 1450.39 1470.57 1450.39 Z" fill="#000000" fill-rule="nonzero" fill-opacity="1" /><path clip-path="url(#clip720)" d="M1712.86 1481.64 L1720.5 1481.64 L1720.5 1455.28 L1712.19 1456.95 L1712.19 1452.69 L1720.46 1451.02 L1725.13 1451.02 L1725.13 1481.64 L1732.77 1481.64 L1732.77 1485.58 L1712.86 1485.58 L1712.86 1481.64 Z" fill="#000000" fill-rule="nonzero" fill-opacity="1" /><path clip-path="url(#clip720)" d="M1969.04 1481.64 L1985.36 1481.64 L1985.36 1485.58 L1963.42 1485.58 L1963.42 1481.64 Q1966.08 1478.89 1970.66 1474.26 Q1975.27 1469.61 1976.45 1468.27 Q1978.69 1465.74 1979.57 1464.01 Q1980.48 1462.25 1980.48 1460.56 Q1980.48 1457.8 1978.53 1456.07 Q1976.61 1454.33 1973.51 1454.33 Q1971.31 1454.33 1968.86 1455.09 Q1966.43 1455.86 1963.65 1457.41 L1963.65 1452.69 Q1966.47 1451.55 1968.93 1450.97 Q1971.38 1450.39 1973.42 1450.39 Q1978.79 1450.39 1981.98 1453.08 Q1985.18 1455.77 1985.18 1460.26 Q1985.18 1462.39 1984.37 1464.31 Q1983.58 1466.2 1981.47 1468.8 Q1980.89 1469.47 1977.79 1472.69 Q1974.69 1475.88 1969.04 1481.64 Z" fill="#000000" fill-rule="nonzero" fill-opacity="1" /><path clip-path="url(#clip720)" d="M2230.55 1466.95 Q2233.9 1467.66 2235.78 1469.93 Q2237.68 1472.2 2237.68 1475.53 Q2237.68 1480.65 2234.16 1483.45 Q2230.64 1486.25 2224.16 1486.25 Q2221.98 1486.25 2219.67 1485.81 Q2217.37 1485.39 2214.92 1484.54 L2214.92 1480.02 Q2216.87 1481.16 2219.18 1481.74 Q2221.49 1482.32 2224.02 1482.32 Q2228.42 1482.32 2230.71 1480.58 Q2233.02 1478.84 2233.02 1475.53 Q2233.02 1472.48 2230.87 1470.77 Q2228.74 1469.03 2224.92 1469.03 L2220.89 1469.03 L2220.89 1465.19 L2225.11 1465.19 Q2228.55 1465.19 2230.38 1463.82 Q2232.21 1462.43 2232.21 1459.84 Q2232.21 1457.18 2230.31 1455.77 Q2228.44 1454.33 2224.92 1454.33 Q2223 1454.33 2220.8 1454.75 Q2218.6 1455.16 2215.96 1456.04 L2215.96 1451.88 Q2218.62 1451.14 2220.94 1450.77 Q2223.28 1450.39 2225.34 1450.39 Q2230.66 1450.39 2233.76 1452.83 Q2236.86 1455.23 2236.86 1459.35 Q2236.86 1462.22 2235.22 1464.21 Q2233.58 1466.18 2230.55 1466.95 Z" fill="#000000" fill-rule="nonzero" fill-opacity="1" /><path clip-path="url(#clip720)" d="M1768.99 1520.52 L1809.19 1520.52 L1809.19 1525.93 L1792.32 1525.93 L1792.32 1568.04 L1785.86 1568.04 L1785.86 1525.93 L1768.99 1525.93 L1768.99 1520.52 Z" fill="#000000" fill-rule="nonzero" fill-opacity="1" /><path clip-path="url(#clip720)" d="M1813.13 1532.4 L1818.99 1532.4 L1818.99 1568.04 L1813.13 1568.04 L1813.13 1532.4 M1813.13 1518.52 L1818.99 1518.52 L1818.99 1525.93 L1813.13 1525.93 L1813.13 1518.52 Z" fill="#000000" fill-rule="nonzero" fill-opacity="1" /><path clip-path="url(#clip720)" d="M1859 1539.24 Q1861.2 1535.29 1864.25 1533.41 Q1867.31 1531.54 1871.44 1531.54 Q1877.01 1531.54 1880.04 1535.45 Q1883.06 1539.33 1883.06 1546.53 L1883.06 1568.04 L1877.17 1568.04 L1877.17 1546.72 Q1877.17 1541.59 1875.36 1539.11 Q1873.54 1536.63 1869.82 1536.63 Q1865.27 1536.63 1862.63 1539.65 Q1859.99 1542.68 1859.99 1547.9 L1859.99 1568.04 L1854.1 1568.04 L1854.1 1546.72 Q1854.1 1541.56 1852.28 1539.11 Q1850.47 1536.63 1846.68 1536.63 Q1842.19 1536.63 1839.55 1539.68 Q1836.91 1542.71 1836.91 1547.9 L1836.91 1568.04 L1831.02 1568.04 L1831.02 1532.4 L1836.91 1532.4 L1836.91 1537.93 Q1838.92 1534.66 1841.72 1533.1 Q1844.52 1531.54 1848.37 1531.54 Q1852.25 1531.54 1854.96 1533.51 Q1857.69 1535.48 1859 1539.24 Z" fill="#000000" fill-rule="nonzero" fill-opacity="1" /><path clip-path="url(#clip720)" d="M1925.23 1548.76 L1925.23 1551.62 L1898.31 1551.62 Q1898.69 1557.67 1901.94 1560.85 Q1905.21 1564 1911.04 1564 Q1914.41 1564 1917.56 1563.17 Q1920.75 1562.35 1923.87 1560.69 L1923.87 1566.23 Q1920.71 1567.57 1917.4 1568.27 Q1914.09 1568.97 1910.69 1568.97 Q1902.16 1568.97 1897.16 1564 Q1892.2 1559.04 1892.2 1550.57 Q1892.2 1541.82 1896.91 1536.69 Q1901.65 1531.54 1909.67 1531.54 Q1916.86 1531.54 1921.03 1536.18 Q1925.23 1540.8 1925.23 1548.76 M1919.38 1547.04 Q1919.31 1542.23 1916.67 1539.37 Q1914.06 1536.5 1909.73 1536.5 Q1904.83 1536.5 1901.87 1539.27 Q1898.94 1542.04 1898.5 1547.07 L1919.38 1547.04 Z" fill="#000000" fill-rule="nonzero" fill-opacity="1" /><path clip-path="url(#clip720)" d="M1969.64 1518.58 Q1965.37 1525.9 1963.3 1533.06 Q1961.23 1540.23 1961.23 1547.58 Q1961.23 1554.93 1963.3 1562.16 Q1965.4 1569.35 1969.64 1576.64 L1964.54 1576.64 Q1959.77 1569.16 1957.38 1561.93 Q1955.03 1554.71 1955.03 1547.58 Q1955.03 1540.48 1957.38 1533.29 Q1959.74 1526.09 1964.54 1518.58 L1969.64 1518.58 Z" fill="#000000" fill-rule="nonzero" fill-opacity="1" /><path clip-path="url(#clip720)" d="M2003.72 1533.45 L2003.72 1538.98 Q2001.24 1537.71 1998.57 1537.07 Q1995.89 1536.44 1993.03 1536.44 Q1988.67 1536.44 1986.47 1537.77 Q1984.31 1539.11 1984.31 1541.79 Q1984.31 1543.82 1985.87 1545 Q1987.43 1546.15 1992.14 1547.2 L1994.14 1547.64 Q2000.38 1548.98 2002.99 1551.43 Q2005.63 1553.85 2005.63 1558.21 Q2005.63 1563.17 2001.69 1566.07 Q1997.77 1568.97 1990.9 1568.97 Q1988.03 1568.97 1984.91 1568.39 Q1981.83 1567.85 1978.39 1566.74 L1978.39 1560.69 Q1981.63 1562.38 1984.79 1563.24 Q1987.94 1564.07 1991.02 1564.07 Q1995.16 1564.07 1997.39 1562.66 Q1999.62 1561.23 1999.62 1558.65 Q1999.62 1556.27 1997.99 1554.99 Q1996.4 1553.72 1990.96 1552.54 L1988.92 1552.07 Q1983.48 1550.92 1981.06 1548.56 Q1978.64 1546.18 1978.64 1542.04 Q1978.64 1537.01 1982.21 1534.27 Q1985.77 1531.54 1992.33 1531.54 Q1995.58 1531.54 1998.44 1532.01 Q2001.3 1532.49 2003.72 1533.45 Z" fill="#000000" fill-rule="nonzero" fill-opacity="1" /><path clip-path="url(#clip720)" d="M2014.04 1518.58 L2019.13 1518.58 Q2023.9 1526.09 2026.26 1533.29 Q2028.65 1540.48 2028.65 1547.58 Q2028.65 1554.71 2026.26 1561.93 Q2023.9 1569.16 2019.13 1576.64 L2014.04 1576.64 Q2018.27 1569.35 2020.34 1562.16 Q2022.44 1554.93 2022.44 1547.58 Q2022.44 1540.23 2020.34 1533.06 Q2018.27 1525.9 2014.04 1518.58 Z" fill="#000000" fill-rule="nonzero" fill-opacity="1" /><polyline clip-path="url(#clip723)" style="stroke:#000000; stroke-linecap:round; stroke-linejoin:round; stroke-width:2; stroke-opacity:0.1; fill:none" points="1444.88,1384.24 2352.76,1384.24 "/>
<polyline clip-path="url(#clip723)" style="stroke:#000000; stroke-linecap:round; stroke-linejoin:round; stroke-width:2; stroke-opacity:0.1; fill:none" points="1444.88,1167.9 2352.76,1167.9 "/>
<polyline clip-path="url(#clip723)" style="stroke:#000000; stroke-linecap:round; stroke-linejoin:round; stroke-width:2; stroke-opacity:0.1; fill:none" points="1444.88,951.554 2352.76,951.554 "/>
<polyline clip-path="url(#clip723)" style="stroke:#000000; stroke-linecap:round; stroke-linejoin:round; stroke-width:2; stroke-opacity:0.1; fill:none" points="1444.88,735.212 2352.76,735.212 "/>
<polyline clip-path="url(#clip723)" style="stroke:#000000; stroke-linecap:round; stroke-linejoin:round; stroke-width:2; stroke-opacity:0.1; fill:none" points="1444.88,518.87 2352.76,518.87 "/>
<polyline clip-path="url(#clip723)" style="stroke:#000000; stroke-linecap:round; stroke-linejoin:round; stroke-width:2; stroke-opacity:0.1; fill:none" points="1444.88,302.528 2352.76,302.528 "/>
<polyline clip-path="url(#clip723)" style="stroke:#000000; stroke-linecap:round; stroke-linejoin:round; stroke-width:2; stroke-opacity:0.1; fill:none" points="1444.88,86.1857 2352.76,86.1857 "/>
<polyline clip-path="url(#clip720)" style="stroke:#000000; stroke-linecap:round; stroke-linejoin:round; stroke-width:4; stroke-opacity:1; fill:none" points="1444.88,1423.18 1444.88,47.2441 "/>
<polyline clip-path="url(#clip720)" style="stroke:#000000; stroke-linecap:round; stroke-linejoin:round; stroke-width:4; stroke-opacity:1; fill:none" points="1444.88,1384.24 1463.78,1384.24 "/>
<polyline clip-path="url(#clip720)" style="stroke:#000000; stroke-linecap:round; stroke-linejoin:round; stroke-width:4; stroke-opacity:1; fill:none" points="1444.88,1167.9 1463.78,1167.9 "/>
<polyline clip-path="url(#clip720)" style="stroke:#000000; stroke-linecap:round; stroke-linejoin:round; stroke-width:4; stroke-opacity:1; fill:none" points="1444.88,951.554 1463.78,951.554 "/>
<polyline clip-path="url(#clip720)" style="stroke:#000000; stroke-linecap:round; stroke-linejoin:round; stroke-width:4; stroke-opacity:1; fill:none" points="1444.88,735.212 1463.78,735.212 "/>
<polyline clip-path="url(#clip720)" style="stroke:#000000; stroke-linecap:round; stroke-linejoin:round; stroke-width:4; stroke-opacity:1; fill:none" points="1444.88,518.87 1463.78,518.87 "/>
<polyline clip-path="url(#clip720)" style="stroke:#000000; stroke-linecap:round; stroke-linejoin:round; stroke-width:4; stroke-opacity:1; fill:none" points="1444.88,302.528 1463.78,302.528 "/>
<polyline clip-path="url(#clip720)" style="stroke:#000000; stroke-linecap:round; stroke-linejoin:round; stroke-width:4; stroke-opacity:1; fill:none" points="1444.88,86.1857 1463.78,86.1857 "/>
<path clip-path="url(#clip720)" d="M1302.93 1384.69 L1332.6 1384.69 L1332.6 1388.62 L1302.93 1388.62 L1302.93 1384.69 Z" fill="#000000" fill-rule="nonzero" fill-opacity="1" /><path clip-path="url(#clip720)" d="M1343.51 1397.58 L1351.15 1397.58 L1351.15 1371.22 L1342.84 1372.88 L1342.84 1368.62 L1351.1 1366.96 L1355.78 1366.96 L1355.78 1397.58 L1363.41 1397.58 L1363.41 1401.52 L1343.51 1401.52 L1343.51 1397.58 Z" fill="#000000" fill-rule="nonzero" fill-opacity="1" /><path clip-path="url(#clip720)" d="M1372.86 1395.64 L1377.74 1395.64 L1377.74 1401.52 L1372.86 1401.52 L1372.86 1395.64 Z" fill="#000000" fill-rule="nonzero" fill-opacity="1" /><path clip-path="url(#clip720)" d="M1387.98 1366.96 L1406.33 1366.96 L1406.33 1370.89 L1392.26 1370.89 L1392.26 1379.37 Q1393.28 1379.02 1394.29 1378.86 Q1395.31 1378.67 1396.33 1378.67 Q1402.12 1378.67 1405.5 1381.84 Q1408.88 1385.01 1408.88 1390.43 Q1408.88 1396.01 1405.41 1399.11 Q1401.93 1402.19 1395.61 1402.19 Q1393.44 1402.19 1391.17 1401.82 Q1388.92 1401.45 1386.52 1400.71 L1386.52 1396.01 Q1388.6 1397.14 1390.82 1397.7 Q1393.04 1398.25 1395.52 1398.25 Q1399.53 1398.25 1401.86 1396.15 Q1404.2 1394.04 1404.2 1390.43 Q1404.2 1386.82 1401.86 1384.71 Q1399.53 1382.61 1395.52 1382.61 Q1393.65 1382.61 1391.77 1383.02 Q1389.92 1383.44 1387.98 1384.32 L1387.98 1366.96 Z" fill="#000000" fill-rule="nonzero" fill-opacity="1" /><path clip-path="url(#clip720)" d="M1301.93 1168.35 L1331.61 1168.35 L1331.61 1172.28 L1301.93 1172.28 L1301.93 1168.35 Z" fill="#000000" fill-rule="nonzero" fill-opacity="1" /><path clip-path="url(#clip720)" d="M1342.51 1181.24 L1350.15 1181.24 L1350.15 1154.88 L1341.84 1156.54 L1341.84 1152.28 L1350.1 1150.62 L1354.78 1150.62 L1354.78 1181.24 L1362.42 1181.24 L1362.42 1185.18 L1342.51 1185.18 L1342.51 1181.24 Z" fill="#000000" fill-rule="nonzero" fill-opacity="1" /><path clip-path="url(#clip720)" d="M1371.86 1179.3 L1376.75 1179.3 L1376.75 1185.18 L1371.86 1185.18 L1371.86 1179.3 Z" fill="#000000" fill-rule="nonzero" fill-opacity="1" /><path clip-path="url(#clip720)" d="M1396.93 1153.69 Q1393.32 1153.69 1391.49 1157.26 Q1389.69 1160.8 1389.69 1167.93 Q1389.69 1175.04 1391.49 1178.6 Q1393.32 1182.14 1396.93 1182.14 Q1400.57 1182.14 1402.37 1178.6 Q1404.2 1175.04 1404.2 1167.93 Q1404.2 1160.8 1402.37 1157.26 Q1400.57 1153.69 1396.93 1153.69 M1396.93 1149.99 Q1402.74 1149.99 1405.8 1154.6 Q1408.88 1159.18 1408.88 1167.93 Q1408.88 1176.66 1405.8 1181.26 Q1402.74 1185.85 1396.93 1185.85 Q1391.12 1185.85 1388.04 1181.26 Q1384.99 1176.66 1384.99 1167.93 Q1384.99 1159.18 1388.04 1154.6 Q1391.12 1149.99 1396.93 1149.99 Z" fill="#000000" fill-rule="nonzero" fill-opacity="1" /><path clip-path="url(#clip720)" d="M1302.93 952.005 L1332.6 952.005 L1332.6 955.941 L1302.93 955.941 L1302.93 952.005 Z" fill="#000000" fill-rule="nonzero" fill-opacity="1" /><path clip-path="url(#clip720)" d="M1352.7 937.353 Q1349.09 937.353 1347.26 940.918 Q1345.45 944.459 1345.45 951.589 Q1345.45 958.695 1347.26 962.26 Q1349.09 965.802 1352.7 965.802 Q1356.33 965.802 1358.14 962.26 Q1359.97 958.695 1359.97 951.589 Q1359.97 944.459 1358.14 940.918 Q1356.33 937.353 1352.7 937.353 M1352.7 933.649 Q1358.51 933.649 1361.56 938.256 Q1364.64 942.839 1364.64 951.589 Q1364.64 960.316 1361.56 964.922 Q1358.51 969.505 1352.7 969.505 Q1346.89 969.505 1343.81 964.922 Q1340.75 960.316 1340.75 951.589 Q1340.75 942.839 1343.81 938.256 Q1346.89 933.649 1352.7 933.649 Z" fill="#000000" fill-rule="nonzero" fill-opacity="1" /><path clip-path="url(#clip720)" d="M1372.86 962.954 L1377.74 962.954 L1377.74 968.834 L1372.86 968.834 L1372.86 962.954 Z" fill="#000000" fill-rule="nonzero" fill-opacity="1" /><path clip-path="url(#clip720)" d="M1387.98 934.274 L1406.33 934.274 L1406.33 938.209 L1392.26 938.209 L1392.26 946.681 Q1393.28 946.334 1394.29 946.172 Q1395.31 945.987 1396.33 945.987 Q1402.12 945.987 1405.5 949.158 Q1408.88 952.33 1408.88 957.746 Q1408.88 963.325 1405.41 966.427 Q1401.93 969.505 1395.61 969.505 Q1393.44 969.505 1391.17 969.135 Q1388.92 968.765 1386.52 968.024 L1386.52 963.325 Q1388.6 964.459 1390.82 965.015 Q1393.04 965.57 1395.52 965.57 Q1399.53 965.57 1401.86 963.464 Q1404.2 961.357 1404.2 957.746 Q1404.2 954.135 1401.86 952.029 Q1399.53 949.922 1395.52 949.922 Q1393.65 949.922 1391.77 950.339 Q1389.92 950.755 1387.98 951.635 L1387.98 934.274 Z" fill="#000000" fill-rule="nonzero" fill-opacity="1" /><path clip-path="url(#clip720)" d="M1351.7 721.011 Q1348.09 721.011 1346.26 724.575 Q1344.46 728.117 1344.46 735.247 Q1344.46 742.353 1346.26 745.918 Q1348.09 749.46 1351.7 749.46 Q1355.34 749.46 1357.14 745.918 Q1358.97 742.353 1358.97 735.247 Q1358.97 728.117 1357.14 724.575 Q1355.34 721.011 1351.7 721.011 M1351.7 717.307 Q1357.51 717.307 1360.57 721.913 Q1363.65 726.497 1363.65 735.247 Q1363.65 743.973 1360.57 748.58 Q1357.51 753.163 1351.7 753.163 Q1345.89 753.163 1342.81 748.58 Q1339.76 743.973 1339.76 735.247 Q1339.76 726.497 1342.81 721.913 Q1345.89 717.307 1351.7 717.307 Z" fill="#000000" fill-rule="nonzero" fill-opacity="1" /><path clip-path="url(#clip720)" d="M1371.86 746.612 L1376.75 746.612 L1376.75 752.492 L1371.86 752.492 L1371.86 746.612 Z" fill="#000000" fill-rule="nonzero" fill-opacity="1" /><path clip-path="url(#clip720)" d="M1396.93 721.011 Q1393.32 721.011 1391.49 724.575 Q1389.69 728.117 1389.69 735.247 Q1389.69 742.353 1391.49 745.918 Q1393.32 749.46 1396.93 749.46 Q1400.57 749.46 1402.37 745.918 Q1404.2 742.353 1404.2 735.247 Q1404.2 728.117 1402.37 724.575 Q1400.57 721.011 1396.93 721.011 M1396.93 717.307 Q1402.74 717.307 1405.8 721.913 Q1408.88 726.497 1408.88 735.247 Q1408.88 743.973 1405.8 748.58 Q1402.74 753.163 1396.93 753.163 Q1391.12 753.163 1388.04 748.58 Q1384.99 743.973 1384.99 735.247 Q1384.99 726.497 1388.04 721.913 Q1391.12 717.307 1396.93 717.307 Z" fill="#000000" fill-rule="nonzero" fill-opacity="1" /><path clip-path="url(#clip720)" d="M1352.7 504.669 Q1349.09 504.669 1347.26 508.233 Q1345.45 511.775 1345.45 518.905 Q1345.45 526.011 1347.26 529.576 Q1349.09 533.117 1352.7 533.117 Q1356.33 533.117 1358.14 529.576 Q1359.97 526.011 1359.97 518.905 Q1359.97 511.775 1358.14 508.233 Q1356.33 504.669 1352.7 504.669 M1352.7 500.965 Q1358.51 500.965 1361.56 505.571 Q1364.64 510.155 1364.64 518.905 Q1364.64 527.631 1361.56 532.238 Q1358.51 536.821 1352.7 536.821 Q1346.89 536.821 1343.81 532.238 Q1340.75 527.631 1340.75 518.905 Q1340.75 510.155 1343.81 505.571 Q1346.89 500.965 1352.7 500.965 Z" fill="#000000" fill-rule="nonzero" fill-opacity="1" /><path clip-path="url(#clip720)" d="M1372.86 530.27 L1377.74 530.27 L1377.74 536.15 L1372.86 536.15 L1372.86 530.27 Z" fill="#000000" fill-rule="nonzero" fill-opacity="1" /><path clip-path="url(#clip720)" d="M1387.98 501.59 L1406.33 501.59 L1406.33 505.525 L1392.26 505.525 L1392.26 513.997 Q1393.28 513.65 1394.29 513.488 Q1395.31 513.303 1396.33 513.303 Q1402.12 513.303 1405.5 516.474 Q1408.88 519.645 1408.88 525.062 Q1408.88 530.641 1405.41 533.742 Q1401.93 536.821 1395.61 536.821 Q1393.44 536.821 1391.17 536.451 Q1388.92 536.08 1386.52 535.34 L1386.52 530.641 Q1388.6 531.775 1390.82 532.33 Q1393.04 532.886 1395.52 532.886 Q1399.53 532.886 1401.86 530.78 Q1404.2 528.673 1404.2 525.062 Q1404.2 521.451 1401.86 519.344 Q1399.53 517.238 1395.52 517.238 Q1393.65 517.238 1391.77 517.655 Q1389.92 518.071 1387.98 518.951 L1387.98 501.59 Z" fill="#000000" fill-rule="nonzero" fill-opacity="1" /><path clip-path="url(#clip720)" d="M1342.51 315.873 L1350.15 315.873 L1350.15 289.507 L1341.84 291.174 L1341.84 286.914 L1350.1 285.248 L1354.78 285.248 L1354.78 315.873 L1362.42 315.873 L1362.42 319.808 L1342.51 319.808 L1342.51 315.873 Z" fill="#000000" fill-rule="nonzero" fill-opacity="1" /><path clip-path="url(#clip720)" d="M1371.86 313.928 L1376.75 313.928 L1376.75 319.808 L1371.86 319.808 L1371.86 313.928 Z" fill="#000000" fill-rule="nonzero" fill-opacity="1" /><path clip-path="url(#clip720)" d="M1396.93 288.326 Q1393.32 288.326 1391.49 291.891 Q1389.69 295.433 1389.69 302.562 Q1389.69 309.669 1391.49 313.234 Q1393.32 316.775 1396.93 316.775 Q1400.57 316.775 1402.37 313.234 Q1404.2 309.669 1404.2 302.562 Q1404.2 295.433 1402.37 291.891 Q1400.57 288.326 1396.93 288.326 M1396.93 284.623 Q1402.74 284.623 1405.8 289.229 Q1408.88 293.813 1408.88 302.562 Q1408.88 311.289 1405.8 315.896 Q1402.74 320.479 1396.93 320.479 Q1391.12 320.479 1388.04 315.896 Q1384.99 311.289 1384.99 302.562 Q1384.99 293.813 1388.04 289.229 Q1391.12 284.623 1396.93 284.623 Z" fill="#000000" fill-rule="nonzero" fill-opacity="1" /><path clip-path="url(#clip720)" d="M1343.51 99.5305 L1351.15 99.5305 L1351.15 73.1649 L1342.84 74.8316 L1342.84 70.5723 L1351.1 68.9057 L1355.78 68.9057 L1355.78 99.5305 L1363.41 99.5305 L1363.41 103.466 L1343.51 103.466 L1343.51 99.5305 Z" fill="#000000" fill-rule="nonzero" fill-opacity="1" /><path clip-path="url(#clip720)" d="M1372.86 97.5861 L1377.74 97.5861 L1377.74 103.466 L1372.86 103.466 L1372.86 97.5861 Z" fill="#000000" fill-rule="nonzero" fill-opacity="1" /><path clip-path="url(#clip720)" d="M1387.98 68.9057 L1406.33 68.9057 L1406.33 72.8408 L1392.26 72.8408 L1392.26 81.313 Q1393.28 80.9658 1394.29 80.8038 Q1395.31 80.6186 1396.33 80.6186 Q1402.12 80.6186 1405.5 83.7899 Q1408.88 86.9611 1408.88 92.3778 Q1408.88 97.9564 1405.41 101.058 Q1401.93 104.137 1395.61 104.137 Q1393.44 104.137 1391.17 103.767 Q1388.92 103.396 1386.52 102.655 L1386.52 97.9564 Q1388.6 99.0907 1390.82 99.6462 Q1393.04 100.202 1395.52 100.202 Q1399.53 100.202 1401.86 98.0953 Q1404.2 95.9889 1404.2 92.3778 Q1404.2 88.7667 1401.86 86.6602 Q1399.53 84.5537 1395.52 84.5537 Q1393.65 84.5537 1391.77 84.9704 Q1389.92 85.3871 1387.98 86.2667 L1387.98 68.9057 Z" fill="#000000" fill-rule="nonzero" fill-opacity="1" /><path clip-path="url(#clip720)" d="M1224.25 817.002 Q1226.5 817.002 1226.5 820.255 L1226.5 831.334 L1249.08 835.746 Q1249.66 835.843 1249.98 835.972 Q1250.3 836.068 1250.85 836.358 Q1251.37 836.616 1251.62 837.163 Q1251.91 837.679 1251.91 838.452 Q1251.91 839.418 1251.33 839.901 Q1250.79 840.352 1250.11 840.352 Q1249.69 840.352 1247.7 839.708 L1226.5 833.234 L1226.5 838.709 Q1226.5 843.862 1231.59 847.083 Q1232.27 847.598 1232.33 847.888 Q1232.37 848.017 1232.37 848.146 Q1232.37 848.5 1232.2 848.725 Q1232.04 848.918 1231.88 848.918 L1231.72 848.951 Q1231.5 848.951 1230.59 848.435 Q1229.66 847.888 1228.28 846.922 Q1226.89 845.923 1225.8 844.925 Q1224.38 843.605 1223.64 842.123 Q1222.86 840.642 1222.77 839.901 Q1222.67 839.128 1222.67 838.13 L1222.67 819.643 Q1222.67 818.806 1222.74 818.355 Q1222.77 817.904 1223.15 817.453 Q1223.51 817.002 1224.25 817.002 Z" fill="#000000" fill-rule="nonzero" fill-opacity="1" /><path clip-path="url(#clip720)" d="M1201.65 779.502 Q1208.97 783.767 1216.13 785.836 Q1223.29 787.905 1230.64 787.905 Q1238 787.905 1245.22 785.836 Q1252.41 783.735 1259.7 779.502 L1259.7 784.594 Q1252.22 789.369 1245 791.756 Q1237.77 794.111 1230.64 794.111 Q1223.55 794.111 1216.35 791.756 Q1209.16 789.401 1201.65 784.594 L1201.65 779.502 Z" fill="#000000" fill-rule="nonzero" fill-opacity="1" /><path clip-path="url(#clip720)" d="M1203.59 767.885 L1203.59 759.227 L1243.34 738.157 L1203.59 738.157 L1203.59 731.918 L1251.11 731.918 L1251.11 740.576 L1211.36 761.646 L1251.11 761.646 L1251.11 767.885 L1203.59 767.885 Z" fill="#000000" fill-rule="nonzero" fill-opacity="1" /><path clip-path="url(#clip720)" d="M1222.3 670.903 Q1218.36 668.707 1216.48 665.651 Q1214.6 662.596 1214.6 658.458 Q1214.6 652.888 1218.52 649.864 Q1222.4 646.841 1229.59 646.841 L1251.11 646.841 L1251.11 652.729 L1229.78 652.729 Q1224.66 652.729 1222.18 654.543 Q1219.69 656.357 1219.69 660.081 Q1219.69 664.633 1222.72 667.275 Q1225.74 669.916 1230.96 669.916 L1251.11 669.916 L1251.11 675.805 L1229.78 675.805 Q1224.63 675.805 1222.18 677.619 Q1219.69 679.433 1219.69 683.221 Q1219.69 687.708 1222.75 690.35 Q1225.77 692.992 1230.96 692.992 L1251.11 692.992 L1251.11 698.88 L1215.46 698.88 L1215.46 692.992 L1221 692.992 Q1217.72 690.987 1216.16 688.186 Q1214.6 685.385 1214.6 681.534 Q1214.6 677.651 1216.58 674.945 Q1218.55 672.208 1222.3 670.903 Z" fill="#000000" fill-rule="nonzero" fill-opacity="1" /><path clip-path="url(#clip720)" d="M1201.65 636.083 L1201.65 630.99 Q1209.16 626.216 1216.35 623.86 Q1223.55 621.473 1230.64 621.473 Q1237.77 621.473 1245 623.86 Q1252.22 626.216 1259.7 630.99 L1259.7 636.083 Q1252.41 631.849 1245.22 629.781 Q1238 627.68 1230.64 627.68 Q1223.29 627.68 1216.13 629.781 Q1208.97 631.849 1201.65 636.083 Z" fill="#000000" fill-rule="nonzero" fill-opacity="1" /><polyline clip-path="url(#clip723)" style="stroke:#009af9; stroke-linecap:round; stroke-linejoin:round; stroke-width:4; stroke-opacity:1; fill:none" points="1470.57,735.212 1495.76,735.212 1495.76,1185.29 1520.95,1185.29 1520.95,524.029 1546.14,524.029 1546.14,463.725 1571.34,463.725 1571.34,664.961 1596.53,664.961 1596.53,650.553 1621.72,650.553 1621.72,618.443 1646.91,618.443 1646.91,617.112 1672.1,617.112 1672.1,623.567 1697.29,623.567 1697.29,627.37 1722.48,627.37 1722.48,629.853 1747.67,629.853 1747.67,632.584 1772.86,632.584 1772.86,635.468 1798.05,635.468 1798.05,638.103 1823.24,638.103 1823.24,640.345 1848.44,640.345 1848.44,642.2 1873.63,642.2 1873.63,643.699 1898.82,643.699 1898.82,644.87 1924.01,644.87 1924.01,645.754 1949.2,645.754 1949.2,646.394 1974.39,646.394 1974.39,646.836 1999.58,646.836 1999.58,647.121 2024.77,647.121 2024.77,647.287 2049.96,647.287 2049.96,647.366 2075.15,647.366 2075.15,647.383 2100.34,647.383 2100.34,647.359 2125.53,647.359 2125.53,647.311 2150.73,647.311 2150.73,647.25 2175.92,647.25 2175.92,647.184 2201.11,647.184 2201.11,647.121 2226.3,647.121 2226.3,647.062 2251.49,647.062 2251.49,647.011 2276.68,647.011 2276.68,646.968 2301.87,646.968 2301.87,646.932 2327.06,646.932 2327.06,646.904 "/>
<polyline clip-path="url(#clip723)" style="stroke:#c271d2; stroke-linecap:round; stroke-linejoin:round; stroke-width:6; stroke-opacity:1; fill:none" stroke-dasharray="3, 6" points="1470.57,1384.24 1495.76,1384.24 1520.95,1384.24 1546.14,1384.24 1571.34,1384.24 1596.53,1384.24 1621.72,1384.24 1646.91,1384.24 1672.1,1384.24 1697.29,1384.24 1722.48,1384.24 1747.67,1384.24 1772.86,1384.24 1798.05,1384.24 1823.24,1384.24 1848.44,1384.24 1873.63,1384.24 1898.82,1384.24 1924.01,1384.24 1949.2,1384.24 1974.39,1384.24 1999.58,1384.24 2024.77,1384.24 2049.96,1384.24 2075.15,1384.24 2100.34,1384.24 2125.53,1384.24 2150.73,1384.24 2175.92,1384.24 2201.11,1384.24 2226.3,1384.24 2251.49,1384.24 2276.68,1384.24 2301.87,1384.24 2327.06,1384.24 "/>
<polyline clip-path="url(#clip723)" style="stroke:#ac8d18; stroke-linecap:round; stroke-linejoin:round; stroke-width:6; stroke-opacity:1; fill:none" stroke-dasharray="3, 6" points="1470.57,86.1857 1495.76,86.1857 1520.95,86.1857 1546.14,86.1857 1571.34,86.1857 1596.53,86.1857 1621.72,86.1857 1646.91,86.1857 1672.1,86.1857 1697.29,86.1857 1722.48,86.1857 1747.67,86.1857 1772.86,86.1857 1798.05,86.1857 1823.24,86.1857 1848.44,86.1857 1873.63,86.1857 1898.82,86.1857 1924.01,86.1857 1949.2,86.1857 1974.39,86.1857 1999.58,86.1857 2024.77,86.1857 2049.96,86.1857 2075.15,86.1857 2100.34,86.1857 2125.53,86.1857 2150.73,86.1857 2175.92,86.1857 2201.11,86.1857 2226.3,86.1857 2251.49,86.1857 2276.68,86.1857 2301.87,86.1857 2327.06,86.1857 "/>
<path clip-path="url(#clip720)" d="M2124.2 300.469 L2322.49 300.469 L2322.49 93.1086 L2124.2 93.1086  Z" fill="#ffffff" fill-rule="evenodd" fill-opacity="1"/>
<polyline clip-path="url(#clip720)" style="stroke:#000000; stroke-linecap:round; stroke-linejoin:round; stroke-width:4; stroke-opacity:1; fill:none" points="2124.2,300.469 2322.49,300.469 2322.49,93.1086 2124.2,93.1086 2124.2,300.469 "/>
<polyline clip-path="url(#clip720)" style="stroke:#009af9; stroke-linecap:round; stroke-linejoin:round; stroke-width:4; stroke-opacity:1; fill:none" points="2134.29,144.949 2194.81,144.949 "/>
<path clip-path="url(#clip720)" d="M2232.26 155.503 L2223.75 155.784 L2223.75 152.06 Q2221.58 155.784 2216.84 155.784 Q2214.9 155.784 2213.45 155.527 Q2212.02 155.269 2210.76 154.637 Q2209.51 153.981 2208.86 152.716 Q2208.2 151.451 2208.2 149.601 L2208.2 138.428 Q2208.2 137.07 2207.71 136.812 Q2207.22 136.555 2204.9 136.555 L2204.9 134.306 L2213.68 133.908 L2213.68 150.28 Q2213.68 151.428 2213.75 152.013 Q2213.85 152.576 2214.2 153.138 Q2214.57 153.676 2215.37 153.887 Q2216.17 154.075 2217.52 154.075 Q2220.17 154.075 2221.81 152.294 Q2223.47 150.514 2223.47 147.587 L2223.47 138.428 Q2223.47 137.07 2222.96 136.812 Q2222.47 136.555 2220.15 136.555 L2220.15 134.306 L2228.93 133.908 L2228.93 151.381 Q2228.93 152.739 2229.42 152.997 Q2229.94 153.255 2232.26 153.255 L2232.26 155.503 Z" fill="#000000" fill-rule="nonzero" fill-opacity="1" /><polyline clip-path="url(#clip720)" style="stroke:#c271d2; stroke-linecap:round; stroke-linejoin:round; stroke-width:6; stroke-opacity:1; fill:none" stroke-dasharray="3, 6" points="2134.29,196.789 2194.81,196.789 "/>
<path clip-path="url(#clip720)" d="M2232.26 200.508 L2223.75 200.79 L2223.75 197.065 Q2221.58 200.79 2216.84 200.79 Q2214.9 200.79 2213.45 200.532 Q2212.02 200.274 2210.76 199.642 Q2209.51 198.986 2208.86 197.721 Q2208.2 196.456 2208.2 194.606 L2208.2 183.434 Q2208.2 182.075 2207.71 181.817 Q2207.22 181.56 2204.9 181.56 L2204.9 179.311 L2213.68 178.913 L2213.68 195.285 Q2213.68 196.433 2213.75 197.019 Q2213.85 197.581 2214.2 198.143 Q2214.57 198.682 2215.37 198.892 Q2216.17 199.08 2217.52 199.08 Q2220.17 199.08 2221.81 197.3 Q2223.47 195.519 2223.47 192.592 L2223.47 183.434 Q2223.47 182.075 2222.96 181.817 Q2222.47 181.56 2220.15 181.56 L2220.15 179.311 L2228.93 178.913 L2228.93 196.386 Q2228.93 197.745 2229.42 198.002 Q2229.94 198.26 2232.26 198.26 L2232.26 200.508 Z" fill="#000000" fill-rule="nonzero" fill-opacity="1" /><path clip-path="url(#clip720)" d="M2266.99 214.459 L2262.76 214.361 L2258.53 214.459 L2258.53 212.885 L2260.84 212.885 L2260.84 203.819 Q2260.84 201.982 2260.36 201.277 Q2259.89 200.556 2258.95 200.556 Q2258.13 200.556 2257.28 200.884 Q2256.44 201.212 2255.67 201.835 Q2254.92 202.458 2254.43 203.507 Q2253.95 204.556 2253.95 205.868 L2253.95 212.885 L2256.28 212.885 L2256.28 214.459 L2252.05 214.361 L2247.8 214.459 L2247.8 212.885 L2250.13 212.885 L2250.13 203.819 Q2250.13 201.982 2249.66 201.277 Q2249.18 200.556 2248.25 200.556 Q2247.43 200.556 2246.57 200.884 Q2245.74 201.212 2244.97 201.835 Q2244.21 202.458 2243.72 203.507 Q2243.25 204.556 2243.25 205.868 L2243.25 212.885 L2245.56 212.885 L2245.56 214.459 L2241.33 214.361 L2237.1 214.459 L2237.1 212.885 L2239.41 212.885 L2239.41 202.507 Q2239.41 201.556 2239.07 201.376 Q2238.72 201.195 2237.1 201.195 L2237.1 199.621 L2242.87 199.343 L2242.87 202.982 Q2243.74 201.294 2245.21 200.326 Q2246.71 199.343 2248.79 199.343 Q2253.12 199.343 2253.82 202.573 Q2254.59 201.212 2256 200.277 Q2257.41 199.343 2259.49 199.343 Q2262.13 199.343 2263.4 200.49 Q2264.68 201.622 2264.68 204.179 L2264.68 212.885 L2266.99 212.885 L2266.99 214.459 Z" fill="#000000" fill-rule="nonzero" fill-opacity="1" /><path clip-path="url(#clip720)" d="M2276.83 214.459 L2272.9 214.361 L2268.8 214.459 L2268.8 212.885 L2271.13 212.885 L2271.13 202.507 Q2271.13 201.556 2270.78 201.376 Q2270.44 201.195 2268.9 201.195 L2268.9 199.621 L2274.75 199.343 L2274.75 212.885 L2276.83 212.885 L2276.83 214.459 M2274.44 192.227 Q2275.21 192.997 2275.21 194.08 Q2275.21 195.162 2274.44 195.932 Q2273.69 196.703 2272.6 196.703 Q2271.52 196.703 2270.75 195.932 Q2269.98 195.162 2269.98 194.08 Q2269.98 192.997 2270.75 192.227 Q2271.52 191.456 2272.6 191.456 Q2273.69 191.456 2274.44 192.227 Z" fill="#000000" fill-rule="nonzero" fill-opacity="1" /><path clip-path="url(#clip720)" d="M2298.82 214.459 L2294.57 214.361 L2290.34 214.459 L2290.34 212.885 L2292.67 212.885 L2292.67 203.819 Q2292.67 201.999 2292.2 201.277 Q2291.74 200.556 2290.82 200.556 Q2289.98 200.556 2289.13 200.884 Q2288.3 201.212 2287.52 201.835 Q2286.77 202.458 2286.3 203.507 Q2285.82 204.556 2285.82 205.868 L2285.82 212.885 L2288.13 212.885 L2288.13 214.459 L2283.9 214.361 L2279.67 214.459 L2279.67 212.885 L2281.98 212.885 L2281.98 202.507 Q2281.98 201.556 2281.64 201.376 Q2281.29 201.195 2279.67 201.195 L2279.67 199.621 L2285.44 199.343 L2285.44 202.982 Q2285.8 202.277 2286.3 201.687 Q2286.79 201.081 2287.49 200.539 Q2288.2 199.982 2289.18 199.67 Q2290.18 199.343 2291.33 199.343 Q2293.94 199.343 2295.21 200.474 Q2296.49 201.605 2296.49 204.179 L2296.49 212.885 L2298.82 212.885 L2298.82 214.459 Z" fill="#000000" fill-rule="nonzero" fill-opacity="1" /><polyline clip-path="url(#clip720)" style="stroke:#ac8d18; stroke-linecap:round; stroke-linejoin:round; stroke-width:6; stroke-opacity:1; fill:none" stroke-dasharray="3, 6" points="2134.29,248.629 2194.81,248.629 "/>
<path clip-path="url(#clip720)" d="M2232.26 254.563 L2223.75 254.844 L2223.75 251.12 Q2221.58 254.844 2216.84 254.844 Q2214.9 254.844 2213.45 254.587 Q2212.02 254.329 2210.76 253.697 Q2209.51 253.041 2208.86 251.776 Q2208.2 250.511 2208.2 248.661 L2208.2 237.488 Q2208.2 236.13 2207.71 235.872 Q2207.22 235.615 2204.9 235.615 L2204.9 233.366 L2213.68 232.968 L2213.68 249.34 Q2213.68 250.488 2213.75 251.073 Q2213.85 251.636 2214.2 252.198 Q2214.57 252.736 2215.37 252.947 Q2216.17 253.135 2217.52 253.135 Q2220.17 253.135 2221.81 251.354 Q2223.47 249.574 2223.47 246.647 L2223.47 237.488 Q2223.47 236.13 2222.96 235.872 Q2222.47 235.615 2220.15 235.615 L2220.15 233.366 L2228.93 232.968 L2228.93 250.441 Q2228.93 251.799 2229.42 252.057 Q2229.94 252.315 2232.26 252.315 L2232.26 254.563 Z" fill="#000000" fill-rule="nonzero" fill-opacity="1" /><path clip-path="url(#clip720)" d="M2266.99 263.888 L2262.76 263.789 L2258.53 263.888 L2258.53 262.314 L2260.84 262.314 L2260.84 253.247 Q2260.84 251.411 2260.36 250.706 Q2259.89 249.984 2258.95 249.984 Q2258.13 249.984 2257.28 250.312 Q2256.44 250.64 2255.67 251.263 Q2254.92 251.886 2254.43 252.935 Q2253.95 253.985 2253.95 255.296 L2253.95 262.314 L2256.28 262.314 L2256.28 263.888 L2252.05 263.789 L2247.8 263.888 L2247.8 262.314 L2250.13 262.314 L2250.13 253.247 Q2250.13 251.411 2249.66 250.706 Q2249.18 249.984 2248.25 249.984 Q2247.43 249.984 2246.57 250.312 Q2245.74 250.64 2244.97 251.263 Q2244.21 251.886 2243.72 252.935 Q2243.25 253.985 2243.25 255.296 L2243.25 262.314 L2245.56 262.314 L2245.56 263.888 L2241.33 263.789 L2237.1 263.888 L2237.1 262.314 L2239.41 262.314 L2239.41 251.935 Q2239.41 250.984 2239.07 250.804 Q2238.72 250.624 2237.1 250.624 L2237.1 249.05 L2242.87 248.771 L2242.87 252.411 Q2243.74 250.722 2245.21 249.755 Q2246.71 248.771 2248.79 248.771 Q2253.12 248.771 2253.82 252.001 Q2254.59 250.64 2256 249.705 Q2257.41 248.771 2259.49 248.771 Q2262.13 248.771 2263.4 249.919 Q2264.68 251.05 2264.68 253.608 L2264.68 262.314 L2266.99 262.314 L2266.99 263.888 Z" fill="#000000" fill-rule="nonzero" fill-opacity="1" /><path clip-path="url(#clip720)" d="M2287.01 263.084 Q2287.01 263.379 2286.95 263.56 Q2286.88 263.724 2286.7 263.789 Q2286.54 263.855 2286.39 263.871 Q2286.24 263.888 2285.93 263.888 L2284.32 263.888 Q2283.32 263.888 2282.62 263.707 Q2281.93 263.511 2281.59 263.281 Q2281.24 263.052 2281.06 262.642 Q2280.88 262.232 2280.85 261.986 Q2280.83 261.723 2280.83 261.297 Q2280.21 262.494 2278.95 263.297 Q2277.7 264.084 2275.83 264.084 Q2275.04 264.084 2274.26 264.002 Q2273.47 263.92 2272.55 263.675 Q2271.63 263.412 2270.95 263.019 Q2270.26 262.609 2269.8 261.904 Q2269.34 261.182 2269.34 260.264 Q2269.34 255.444 2280.26 254.985 L2280.26 253.854 Q2280.26 249.886 2276.57 249.886 Q2275.22 249.886 2274.14 250.115 Q2274.24 250.181 2274.39 250.345 Q2274.54 250.509 2274.7 250.919 Q2274.88 251.329 2274.88 251.771 Q2274.88 252.771 2274.24 253.329 Q2273.62 253.886 2272.77 253.886 Q2271.98 253.886 2271.32 253.345 Q2270.68 252.788 2270.68 251.771 Q2270.68 248.672 2276.7 248.672 Q2280.32 248.672 2282.19 250.099 Q2284.08 251.509 2284.08 253.854 L2284.08 261.068 Q2284.08 261.428 2284.11 261.592 Q2284.14 261.756 2284.32 261.953 Q2284.5 262.15 2284.93 262.232 Q2285.37 262.297 2286.13 262.314 Q2286.42 262.314 2286.57 262.346 Q2286.72 262.363 2286.87 262.543 Q2287.01 262.724 2287.01 263.084 M2280.26 259.215 L2280.26 256.034 Q2279.68 256.067 2279.14 256.133 Q2278.6 256.198 2277.72 256.362 Q2276.83 256.51 2276.11 256.821 Q2275.4 257.116 2274.72 257.559 Q2274.04 257.985 2273.65 258.674 Q2273.27 259.362 2273.27 260.231 Q2273.27 261.346 2274.16 262.117 Q2275.04 262.888 2276.32 262.888 Q2276.65 262.888 2277.06 262.822 Q2277.47 262.756 2278.06 262.527 Q2278.65 262.281 2279.11 261.904 Q2279.59 261.527 2279.91 260.838 Q2280.26 260.133 2280.26 259.215 Z" fill="#000000" fill-rule="nonzero" fill-opacity="1" /><path clip-path="url(#clip720)" d="M2306.01 263.888 L2302.32 263.789 L2298.29 263.888 L2298.29 262.314 L2299.6 262.314 L2295.91 257.952 L2292.65 261.609 L2292.42 261.937 Q2292.42 262.084 2292.79 262.199 Q2293.19 262.314 2293.65 262.314 L2293.65 263.888 L2290.19 263.789 L2287.11 263.888 L2287.11 262.314 Q2288.14 262.314 2288.61 262.297 Q2289.11 262.265 2289.66 262.117 Q2290.22 261.969 2290.5 261.674 L2294.89 256.739 L2289.66 250.558 L2287.27 250.558 L2287.27 248.984 L2290.97 249.082 L2295.02 248.984 L2295.02 250.558 L2293.68 250.558 L2296.98 254.411 L2299.8 251.263 Q2299.81 251.247 2300.07 250.853 Q2299.55 250.558 2298.8 250.558 L2298.8 248.984 L2302.25 249.082 L2305.34 248.984 L2305.34 250.558 Q2303.99 250.558 2303.29 250.656 Q2302.6 250.738 2302.39 250.853 Q2302.19 250.968 2301.91 251.263 L2297.99 255.624 L2303.63 262.314 L2306.01 262.314 L2306.01 263.888 Z" fill="#000000" fill-rule="nonzero" fill-opacity="1" /></svg>
