<?xml version="1.0" encoding="utf-8"?>
<svg xmlns="http://www.w3.org/2000/svg" xmlns:xlink="http://www.w3.org/1999/xlink" width="600" height="400" viewBox="0 0 2400 1600">
<defs>
  <clipPath id="clip330">
    <rect x="0" y="0" width="2400" height="1600"/>
  </clipPath>
</defs>
<path clip-path="url(#clip330)" d="M0 1600 L2400 1600 L2400 0 L0 0  Z" fill="#ffffff" fill-rule="evenodd" fill-opacity="1"/>
<defs>
  <clipPath id="clip331">
    <rect x="480" y="0" width="1681" height="1600"/>
  </clipPath>
</defs>
<path clip-path="url(#clip330)" d="M203.964 1423.18 L1110.81 1423.18 L1110.81 47.2441 L203.964 47.2441  Z" fill="#ffffff" fill-rule="evenodd" fill-opacity="1"/>
<defs>
  <clipPath id="clip332">
    <rect x="203" y="47" width="908" height="1377"/>
  </clipPath>
</defs>
<polyline clip-path="url(#clip332)" style="stroke:#000000; stroke-linecap:round; stroke-linejoin:round; stroke-width:2; stroke-opacity:0.1; fill:none" points="229.629,1423.18 229.629,47.2441 "/>
<polyline clip-path="url(#clip332)" style="stroke:#000000; stroke-linecap:round; stroke-linejoin:round; stroke-width:2; stroke-opacity:0.1; fill:none" points="481.252,1423.18 481.252,47.2441 "/>
<polyline clip-path="url(#clip332)" style="stroke:#000000; stroke-linecap:round; stroke-linejoin:round; stroke-width:2; stroke-opacity:0.1; fill:none" points="732.874,1423.18 732.874,47.2441 "/>
<polyline clip-path="url(#clip332)" style="stroke:#000000; stroke-linecap:round; stroke-linejoin:round; stroke-width:2; stroke-opacity:0.1; fill:none" points="984.497,1423.18 984.497,47.2441 "/>
<polyline clip-path="url(#clip332)" style="stroke:#000000; stroke-linecap:round; stroke-linejoin:round; stroke-width:2; stroke-opacity:0.1; fill:none" points="203.964,1421.29 1110.81,1421.29 "/>
<polyline clip-path="url(#clip332)" style="stroke:#000000; stroke-linecap:round; stroke-linejoin:round; stroke-width:2; stroke-opacity:0.1; fill:none" points="203.964,965.129 1110.81,965.129 "/>
<polyline clip-path="url(#clip332)" style="stroke:#000000; stroke-linecap:round; stroke-linejoin:round; stroke-width:2; stroke-opacity:0.1; fill:none" points="203.964,508.972 1110.81,508.972 "/>
<polyline clip-path="url(#clip332)" style="stroke:#000000; stroke-linecap:round; stroke-linejoin:round; stroke-width:2; stroke-opacity:0.1; fill:none" points="203.964,52.8144 1110.81,52.8144 "/>
<polyline clip-path="url(#clip330)" style="stroke:#000000; stroke-linecap:round; stroke-linejoin:round; stroke-width:4; stroke-opacity:1; fill:none" points="203.964,1423.18 1110.81,1423.18 "/>
<polyline clip-path="url(#clip330)" style="stroke:#000000; stroke-linecap:round; stroke-linejoin:round; stroke-width:4; stroke-opacity:1; fill:none" points="229.629,1423.18 229.629,1404.28 "/>
<polyline clip-path="url(#clip330)" style="stroke:#000000; stroke-linecap:round; stroke-linejoin:round; stroke-width:4; stroke-opacity:1; fill:none" points="481.252,1423.18 481.252,1404.28 "/>
<polyline clip-path="url(#clip330)" style="stroke:#000000; stroke-linecap:round; stroke-linejoin:round; stroke-width:4; stroke-opacity:1; fill:none" points="732.874,1423.18 732.874,1404.28 "/>
<polyline clip-path="url(#clip330)" style="stroke:#000000; stroke-linecap:round; stroke-linejoin:round; stroke-width:4; stroke-opacity:1; fill:none" points="984.497,1423.18 984.497,1404.28 "/>
<path clip-path="url(#clip330)" d="M229.629 1454.1 Q226.018 1454.1 224.189 1457.66 Q222.384 1461.2 222.384 1468.33 Q222.384 1475.44 224.189 1479.01 Q226.018 1482.55 229.629 1482.55 Q233.263 1482.55 235.069 1479.01 Q236.898 1475.44 236.898 1468.33 Q236.898 1461.2 235.069 1457.66 Q233.263 1454.1 229.629 1454.1 M229.629 1450.39 Q235.439 1450.39 238.495 1455 Q241.573 1459.58 241.573 1468.33 Q241.573 1477.06 238.495 1481.67 Q235.439 1486.25 229.629 1486.25 Q223.819 1486.25 220.74 1481.67 Q217.685 1477.06 217.685 1468.33 Q217.685 1459.58 220.74 1455 Q223.819 1450.39 229.629 1450.39 Z" fill="#000000" fill-rule="nonzero" fill-opacity="1" /><path clip-path="url(#clip330)" d="M471.634 1481.64 L479.273 1481.64 L479.273 1455.28 L470.962 1456.95 L470.962 1452.69 L479.226 1451.02 L483.902 1451.02 L483.902 1481.64 L491.541 1481.64 L491.541 1485.58 L471.634 1485.58 L471.634 1481.64 Z" fill="#000000" fill-rule="nonzero" fill-opacity="1" /><path clip-path="url(#clip330)" d="M727.527 1481.64 L743.847 1481.64 L743.847 1485.58 L721.902 1485.58 L721.902 1481.64 Q724.564 1478.89 729.148 1474.26 Q733.754 1469.61 734.935 1468.27 Q737.18 1465.74 738.06 1464.01 Q738.962 1462.25 738.962 1460.56 Q738.962 1457.8 737.018 1456.07 Q735.097 1454.33 731.995 1454.33 Q729.796 1454.33 727.342 1455.09 Q724.912 1455.86 722.134 1457.41 L722.134 1452.69 Q724.958 1451.55 727.411 1450.97 Q729.865 1450.39 731.902 1450.39 Q737.273 1450.39 740.467 1453.08 Q743.661 1455.77 743.661 1460.26 Q743.661 1462.39 742.851 1464.31 Q742.064 1466.2 739.958 1468.8 Q739.379 1469.47 736.277 1472.69 Q733.175 1475.88 727.527 1481.64 Z" fill="#000000" fill-rule="nonzero" fill-opacity="1" /><path clip-path="url(#clip330)" d="M988.745 1466.95 Q992.101 1467.66 993.976 1469.93 Q995.874 1472.2 995.874 1475.53 Q995.874 1480.65 992.356 1483.45 Q988.837 1486.25 982.356 1486.25 Q980.18 1486.25 977.865 1485.81 Q975.574 1485.39 973.12 1484.54 L973.12 1480.02 Q975.064 1481.16 977.379 1481.74 Q979.694 1482.32 982.217 1482.32 Q986.615 1482.32 988.907 1480.58 Q991.222 1478.84 991.222 1475.53 Q991.222 1472.48 989.069 1470.77 Q986.939 1469.03 983.12 1469.03 L979.092 1469.03 L979.092 1465.19 L983.305 1465.19 Q986.754 1465.19 988.583 1463.82 Q990.411 1462.43 990.411 1459.84 Q990.411 1457.18 988.513 1455.77 Q986.638 1454.33 983.12 1454.33 Q981.199 1454.33 978.999 1454.75 Q976.8 1455.16 974.162 1456.04 L974.162 1451.88 Q976.824 1451.14 979.138 1450.77 Q981.476 1450.39 983.536 1450.39 Q988.861 1450.39 991.962 1452.83 Q995.064 1455.23 995.064 1459.35 Q995.064 1462.22 993.421 1464.21 Q991.777 1466.18 988.745 1466.95 Z" fill="#000000" fill-rule="nonzero" fill-opacity="1" /><path clip-path="url(#clip330)" d="M527.559 1520.52 L567.758 1520.52 L567.758 1525.93 L550.889 1525.93 L550.889 1568.04 L544.428 1568.04 L544.428 1525.93 L527.559 1525.93 L527.559 1520.52 Z" fill="#000000" fill-rule="nonzero" fill-opacity="1" /><path clip-path="url(#clip330)" d="M571.705 1532.4 L577.562 1532.4 L577.562 1568.04 L571.705 1568.04 L571.705 1532.4 M571.705 1518.52 L577.562 1518.52 L577.562 1525.93 L571.705 1525.93 L571.705 1518.52 Z" fill="#000000" fill-rule="nonzero" fill-opacity="1" /><path clip-path="url(#clip330)" d="M617.57 1539.24 Q619.766 1535.29 622.822 1533.41 Q625.877 1531.54 630.015 1531.54 Q635.585 1531.54 638.609 1535.45 Q641.633 1539.33 641.633 1546.53 L641.633 1568.04 L635.744 1568.04 L635.744 1546.72 Q635.744 1541.59 633.93 1539.11 Q632.116 1536.63 628.392 1536.63 Q623.84 1536.63 621.199 1539.65 Q618.557 1542.68 618.557 1547.9 L618.557 1568.04 L612.669 1568.04 L612.669 1546.72 Q612.669 1541.56 610.854 1539.11 Q609.04 1536.63 605.252 1536.63 Q600.765 1536.63 598.123 1539.68 Q595.481 1542.71 595.481 1547.9 L595.481 1568.04 L589.593 1568.04 L589.593 1532.4 L595.481 1532.4 L595.481 1537.93 Q597.486 1534.66 600.287 1533.1 Q603.088 1531.54 606.939 1531.54 Q610.822 1531.54 613.528 1533.51 Q616.265 1535.48 617.57 1539.24 Z" fill="#000000" fill-rule="nonzero" fill-opacity="1" /><path clip-path="url(#clip330)" d="M683.805 1548.76 L683.805 1551.62 L656.878 1551.62 Q657.26 1557.67 660.507 1560.85 Q663.785 1564 669.61 1564 Q672.984 1564 676.135 1563.17 Q679.317 1562.35 682.437 1560.69 L682.437 1566.23 Q679.286 1567.57 675.975 1568.27 Q672.665 1568.97 669.26 1568.97 Q660.73 1568.97 655.733 1564 Q650.767 1559.04 650.767 1550.57 Q650.767 1541.82 655.478 1536.69 Q660.22 1531.54 668.241 1531.54 Q675.434 1531.54 679.604 1536.18 Q683.805 1540.8 683.805 1548.76 M677.949 1547.04 Q677.885 1542.23 675.243 1539.37 Q672.633 1536.5 668.305 1536.5 Q663.403 1536.5 660.443 1539.27 Q657.515 1542.04 657.069 1547.07 L677.949 1547.04 Z" fill="#000000" fill-rule="nonzero" fill-opacity="1" /><path clip-path="url(#clip330)" d="M728.206 1518.58 Q723.941 1525.9 721.872 1533.06 Q719.803 1540.23 719.803 1547.58 Q719.803 1554.93 721.872 1562.16 Q723.973 1569.35 728.206 1576.64 L723.114 1576.64 Q718.339 1569.16 715.952 1561.93 Q713.597 1554.71 713.597 1547.58 Q713.597 1540.48 715.952 1533.29 Q718.307 1526.09 723.114 1518.58 L728.206 1518.58 Z" fill="#000000" fill-rule="nonzero" fill-opacity="1" /><path clip-path="url(#clip330)" d="M762.294 1533.45 L762.294 1538.98 Q759.812 1537.71 757.138 1537.07 Q754.465 1536.44 751.6 1536.44 Q747.24 1536.44 745.043 1537.77 Q742.879 1539.11 742.879 1541.79 Q742.879 1543.82 744.439 1545 Q745.998 1546.15 750.709 1547.2 L752.714 1547.64 Q758.952 1548.98 761.562 1551.43 Q764.204 1553.85 764.204 1558.21 Q764.204 1563.17 760.257 1566.07 Q756.343 1568.97 749.468 1568.97 Q746.603 1568.97 743.484 1568.39 Q740.396 1567.85 736.959 1566.74 L736.959 1560.69 Q740.205 1562.38 743.356 1563.24 Q746.508 1564.07 749.595 1564.07 Q753.733 1564.07 755.961 1562.66 Q758.189 1561.23 758.189 1558.65 Q758.189 1556.27 756.565 1554.99 Q754.974 1553.72 749.531 1552.54 L747.494 1552.07 Q742.052 1550.92 739.633 1548.56 Q737.214 1546.18 737.214 1542.04 Q737.214 1537.01 740.778 1534.27 Q744.343 1531.54 750.9 1531.54 Q754.146 1531.54 757.011 1532.01 Q759.876 1532.49 762.294 1533.45 Z" fill="#000000" fill-rule="nonzero" fill-opacity="1" /><path clip-path="url(#clip330)" d="M772.607 1518.58 L777.699 1518.58 Q782.474 1526.09 784.829 1533.29 Q787.216 1540.48 787.216 1547.58 Q787.216 1554.71 784.829 1561.93 Q782.474 1569.16 777.699 1576.64 L772.607 1576.64 Q776.84 1569.35 778.909 1562.16 Q781.01 1554.93 781.01 1547.58 Q781.01 1540.23 778.909 1533.06 Q776.84 1525.9 772.607 1518.58 Z" fill="#000000" fill-rule="nonzero" fill-opacity="1" /><polyline clip-path="url(#clip330)" style="stroke:#000000; stroke-linecap:round; stroke-linejoin:round; stroke-width:4; stroke-opacity:1; fill:none" points="203.964,1423.18 203.964,47.2441 "/>
<polyline clip-path="url(#clip330)" style="stroke:#000000; stroke-linecap:round; stroke-linejoin:round; stroke-width:4; stroke-opacity:1; fill:none" points="203.964,1421.29 222.861,1421.29 "/>
<polyline clip-path="url(#clip330)" style="stroke:#000000; stroke-linecap:round; stroke-linejoin:round; stroke-width:4; stroke-opacity:1; fill:none" points="203.964,965.129 222.861,965.129 "/>
<polyline clip-path="url(#clip330)" style="stroke:#000000; stroke-linecap:round; stroke-linejoin:round; stroke-width:4; stroke-opacity:1; fill:none" points="203.964,508.972 222.861,508.972 "/>
<polyline clip-path="url(#clip330)" style="stroke:#000000; stroke-linecap:round; stroke-linejoin:round; stroke-width:4; stroke-opacity:1; fill:none" points="203.964,52.8144 222.861,52.8144 "/>
<path clip-path="url(#clip330)" d="M156.019 1407.09 Q152.408 1407.09 150.579 1410.65 Q148.774 1414.19 148.774 1421.32 Q148.774 1428.43 150.579 1431.99 Q152.408 1435.53 156.019 1435.53 Q159.653 1435.53 161.459 1431.99 Q163.288 1428.43 163.288 1421.32 Q163.288 1414.19 161.459 1410.65 Q159.653 1407.09 156.019 1407.09 M156.019 1403.38 Q161.829 1403.38 164.885 1407.99 Q167.964 1412.57 167.964 1421.32 Q167.964 1430.05 164.885 1434.65 Q161.829 1439.24 156.019 1439.24 Q150.209 1439.24 147.13 1434.65 Q144.075 1430.05 144.075 1421.32 Q144.075 1412.57 147.13 1407.99 Q150.209 1403.38 156.019 1403.38 Z" fill="#000000" fill-rule="nonzero" fill-opacity="1" /><path clip-path="url(#clip330)" d="M116.668 978.474 L124.306 978.474 L124.306 952.109 L115.996 953.775 L115.996 949.516 L124.26 947.849 L128.936 947.849 L128.936 978.474 L136.575 978.474 L136.575 982.409 L116.668 982.409 L116.668 978.474 Z" fill="#000000" fill-rule="nonzero" fill-opacity="1" /><path clip-path="url(#clip330)" d="M156.019 950.928 Q152.408 950.928 150.579 954.493 Q148.774 958.034 148.774 965.164 Q148.774 972.27 150.579 975.835 Q152.408 979.377 156.019 979.377 Q159.653 979.377 161.459 975.835 Q163.288 972.27 163.288 965.164 Q163.288 958.034 161.459 954.493 Q159.653 950.928 156.019 950.928 M156.019 947.224 Q161.829 947.224 164.885 951.831 Q167.964 956.414 167.964 965.164 Q167.964 973.891 164.885 978.497 Q161.829 983.081 156.019 983.081 Q150.209 983.081 147.13 978.497 Q144.075 973.891 144.075 965.164 Q144.075 956.414 147.13 951.831 Q150.209 947.224 156.019 947.224 Z" fill="#000000" fill-rule="nonzero" fill-opacity="1" /><path clip-path="url(#clip330)" d="M119.885 522.317 L136.204 522.317 L136.204 526.252 L114.26 526.252 L114.26 522.317 Q116.922 519.562 121.505 514.932 Q126.112 510.28 127.292 508.937 Q129.538 506.414 130.417 504.678 Q131.32 502.919 131.32 501.229 Q131.32 498.474 129.376 496.738 Q127.455 495.002 124.353 495.002 Q122.154 495.002 119.7 495.766 Q117.269 496.53 114.492 498.081 L114.492 493.359 Q117.316 492.224 119.769 491.646 Q122.223 491.067 124.26 491.067 Q129.63 491.067 132.825 493.752 Q136.019 496.437 136.019 500.928 Q136.019 503.058 135.209 504.979 Q134.422 506.877 132.316 509.47 Q131.737 510.141 128.635 513.358 Q125.533 516.553 119.885 522.317 Z" fill="#000000" fill-rule="nonzero" fill-opacity="1" /><path clip-path="url(#clip330)" d="M156.019 494.771 Q152.408 494.771 150.579 498.335 Q148.774 501.877 148.774 509.007 Q148.774 516.113 150.579 519.678 Q152.408 523.219 156.019 523.219 Q159.653 523.219 161.459 519.678 Q163.288 516.113 163.288 509.007 Q163.288 501.877 161.459 498.335 Q159.653 494.771 156.019 494.771 M156.019 491.067 Q161.829 491.067 164.885 495.673 Q167.964 500.257 167.964 509.007 Q167.964 517.733 164.885 522.34 Q161.829 526.923 156.019 526.923 Q150.209 526.923 147.13 522.34 Q144.075 517.733 144.075 509.007 Q144.075 500.257 147.13 495.673 Q150.209 491.067 156.019 491.067 Z" fill="#000000" fill-rule="nonzero" fill-opacity="1" /><path clip-path="url(#clip330)" d="M130.024 51.4603 Q133.38 52.1778 135.255 54.4464 Q137.154 56.7149 137.154 60.0482 Q137.154 65.1639 133.635 67.9648 Q130.117 70.7657 123.635 70.7657 Q121.459 70.7657 119.144 70.3259 Q116.853 69.9092 114.399 69.0528 L114.399 64.5389 Q116.343 65.6731 118.658 66.2518 Q120.973 66.8305 123.496 66.8305 Q127.894 66.8305 130.186 65.0944 Q132.501 63.3583 132.501 60.0482 Q132.501 56.9926 130.348 55.2797 Q128.218 53.5436 124.399 53.5436 L120.371 53.5436 L120.371 49.701 L124.584 49.701 Q128.033 49.701 129.862 48.3353 Q131.691 46.9464 131.691 44.3538 Q131.691 41.6918 129.792 40.2798 Q127.917 38.8446 124.399 38.8446 Q122.478 38.8446 120.279 39.2612 Q118.08 39.6779 115.441 40.5575 L115.441 36.3909 Q118.103 35.6502 120.418 35.2798 Q122.755 34.9094 124.816 34.9094 Q130.14 34.9094 133.242 37.34 Q136.343 39.7474 136.343 43.8677 Q136.343 46.7381 134.7 48.7288 Q133.056 50.6964 130.024 51.4603 Z" fill="#000000" fill-rule="nonzero" fill-opacity="1" /><path clip-path="url(#clip330)" d="M156.019 38.6131 Q152.408 38.6131 150.579 42.1779 Q148.774 45.7195 148.774 52.8491 Q148.774 59.9556 150.579 63.5204 Q152.408 67.062 156.019 67.062 Q159.653 67.062 161.459 63.5204 Q163.288 59.9556 163.288 52.8491 Q163.288 45.7195 161.459 42.1779 Q159.653 38.6131 156.019 38.6131 M156.019 34.9094 Q161.829 34.9094 164.885 39.5159 Q167.964 44.0992 167.964 52.8491 Q167.964 61.5759 164.885 66.1824 Q161.829 70.7657 156.019 70.7657 Q150.209 70.7657 147.13 66.1824 Q144.075 61.5759 144.075 52.8491 Q144.075 44.0992 147.13 39.5159 Q150.209 34.9094 156.019 34.9094 Z" fill="#000000" fill-rule="nonzero" fill-opacity="1" /><path clip-path="url(#clip330)" d="M39.4334 772.564 Q44.844 772.564 50.9309 774.303 Q56.9856 776.01 61.8809 778.715 Q66.744 781.42 69.9646 784.963 Q73.153 788.505 73.153 791.887 Q73.153 794.045 71.9613 795.655 Q70.7375 797.233 68.7085 798.103 Q66.6474 798.972 64.393 799.391 Q62.1063 799.81 59.6265 799.81 Q55.9228 799.81 51.8971 799.005 Q47.8391 798.199 44.1677 796.847 Q40.464 795.494 37.1146 793.594 Q33.733 791.694 31.2853 789.6 Q28.8055 787.475 27.3562 785.092 Q25.907 782.708 25.907 780.486 Q25.907 778.876 26.6155 777.588 Q27.2918 776.267 28.4834 775.43 Q29.6428 774.593 31.0277 774.013 Q32.4125 773.401 34.0228 773.111 Q35.6009 772.821 36.9214 772.692 Q38.2096 772.564 39.4334 772.564 M35.3433 776.911 Q33.7008 776.911 32.477 777.04 Q31.2209 777.169 29.9649 777.523 Q28.7089 777.878 28.0325 778.65 Q27.3562 779.391 27.3562 780.551 Q27.3562 783.932 34.2805 787.733 Q36.4383 788.956 39.369 790.051 Q42.2997 791.146 43.6846 791.533 Q45.0694 791.919 48.4833 792.821 L48.4833 779.037 Q39.6911 776.911 35.3433 776.911 M50.5766 779.617 L50.5766 793.336 Q58.6281 795.462 63.6522 795.462 Q68.0322 795.462 69.868 794.56 Q71.6715 793.626 71.6715 791.887 Q71.6715 789.89 69.6747 788.022 Q67.6458 786.154 63.9743 784.254 Q59.2078 781.742 50.5766 779.617 Z" fill="#000000" fill-rule="nonzero" fill-opacity="1" /><path clip-path="url(#clip330)" d="M22.9507 728.256 Q30.2712 732.521 37.4327 734.59 Q44.5941 736.658 51.9465 736.658 Q59.2989 736.658 66.5239 734.59 Q73.7172 732.489 81.0059 728.256 L81.0059 733.348 Q73.5262 738.123 66.3011 740.51 Q59.0761 742.865 51.9465 742.865 Q44.8487 742.865 37.6555 740.51 Q30.4622 738.154 22.9507 733.348 L22.9507 728.256 Z" fill="#000000" fill-rule="nonzero" fill-opacity="1" /><path clip-path="url(#clip330)" d="M28.1387 706.74 Q28.1387 709.286 29.9211 711.036 Q31.6717 712.787 34.218 712.787 Q36.7324 712.787 38.483 711.036 Q40.2017 709.286 40.2017 706.74 Q40.2017 704.193 38.483 702.443 Q36.7324 700.692 34.218 700.692 Q31.7035 700.692 29.9211 702.475 Q28.1387 704.225 28.1387 706.74 M24.0328 706.74 Q24.0328 704.703 24.8286 702.825 Q25.5924 700.947 27.0566 699.578 Q28.4888 698.114 30.3031 697.382 Q32.1173 696.65 34.218 696.65 Q38.4193 696.65 41.3476 699.61 Q44.244 702.538 44.244 706.803 Q44.244 711.1 41.3794 713.965 Q38.5148 716.829 34.218 716.829 Q29.953 716.829 26.9929 713.901 Q24.0328 710.973 24.0328 706.74 Z" fill="#000000" fill-rule="nonzero" fill-opacity="1" /><path clip-path="url(#clip330)" d="M22.9507 685.224 L22.9507 680.131 Q30.4622 675.357 37.6555 673.001 Q44.8487 670.614 51.9465 670.614 Q59.0761 670.614 66.3011 673.001 Q73.5262 675.357 81.0059 680.131 L81.0059 685.224 Q73.7172 680.99 66.5239 678.921 Q59.2989 676.821 51.9465 676.821 Q44.5941 676.821 37.4327 678.921 Q30.2712 680.99 22.9507 685.224 Z" fill="#000000" fill-rule="nonzero" fill-opacity="1" /><polyline clip-path="url(#clip332)" style="stroke:#009af9; stroke-linecap:round; stroke-linejoin:round; stroke-width:4; stroke-opacity:1; fill:none" points="229.629,1383.11 254.791,1299.54 279.954,1044.55 305.116,737.054 330.278,509.206 355.44,278.36 380.603,148.983 405.765,115.878 430.927,86.1857 456.089,147.315 481.252,160.653 506.414,183.36 531.576,272.323 556.739,266.334 581.901,295.73 607.063,286.778 632.225,299.907 657.388,336.399 682.55,287.521 707.712,281.215 732.874,293.907 758.037,243.601 783.199,280.242 808.361,289.653 833.524,231.871 858.686,217.704 883.848,245.63 909.01,289.878 934.173,302.633 959.335,289.115 984.497,295.41 1009.66,268.563 1034.82,271.51 1059.98,269.4 1085.15,293.5 "/>
<polyline clip-path="url(#clip332)" style="stroke:#e26f46; stroke-linecap:round; stroke-linejoin:round; stroke-width:3; stroke-opacity:1; fill:none" stroke-dasharray="12, 6, 2, 6" points="229.629,1384.24 254.791,1293 279.954,1044.21 305.116,737.975 330.278,501.604 355.44,283.482 380.603,150.777 405.765,113.07 430.927,94.0306 456.089,145.244 481.252,170.544 506.414,192.076 531.576,265.664 556.739,275.612 581.901,296.278 607.063,291.267 632.225,298.399 657.388,328.935 682.55,296.524 707.712,281.883 732.874,289.665 758.037,252.351 783.199,272.857 808.361,287.371 833.524,244.059 858.686,221.174 883.848,239.886 909.01,281.835 934.173,301.913 959.335,293.525 984.497,294.583 1009.66,272.984 1034.82,270.023 1059.98,268.751 1085.15,288.451 "/>
<path clip-path="url(#clip330)" d="M961.069 1377.32 L1080.58 1377.32 L1080.58 1221.8 L961.069 1221.8  Z" fill="#ffffff" fill-rule="evenodd" fill-opacity="1"/>
<polyline clip-path="url(#clip330)" style="stroke:#000000; stroke-linecap:round; stroke-linejoin:round; stroke-width:4; stroke-opacity:1; fill:none" points="961.069,1377.32 1080.58,1377.32 1080.58,1221.8 961.069,1221.8 961.069,1377.32 "/>
<polyline clip-path="url(#clip330)" style="stroke:#009af9; stroke-linecap:round; stroke-linejoin:round; stroke-width:4; stroke-opacity:1; fill:none" points="971.145,1273.64 1031.6,1273.64 "/>
<path clip-path="url(#clip330)" d="M1068.45 1260.37 Q1066.97 1260.37 1066.22 1260.51 Q1065.48 1260.63 1065.29 1260.8 Q1065.1 1260.96 1064.89 1261.38 L1054.58 1283.3 Q1053.48 1285.65 1051.42 1287.33 Q1049.38 1289.02 1046.81 1289.02 Q1044.65 1289.02 1043.15 1287.71 Q1041.68 1286.42 1041.68 1284.59 Q1041.68 1283.28 1042.5 1282.53 Q1043.32 1281.81 1044.42 1281.81 Q1045.64 1281.81 1046.41 1282.58 Q1047.21 1283.35 1047.21 1284.55 Q1047.21 1285.32 1046.88 1285.9 Q1046.55 1286.51 1046.25 1286.72 Q1045.96 1286.96 1045.66 1287.1 Q1046.15 1287.29 1046.81 1287.29 Q1047.79 1287.29 1048.63 1286.89 Q1049.5 1286.51 1050.06 1286 Q1050.65 1285.51 1051.23 1284.62 Q1051.82 1283.75 1052.1 1283.19 Q1052.38 1282.65 1052.8 1281.71 L1053.9 1279.42 L1044.93 1260.37 L1041.87 1260.37 L1041.87 1258.13 L1047.35 1258.27 L1053.3 1258.13 L1053.3 1260.37 L1050.7 1260.37 L1056.79 1273.33 L1062.31 1261.52 L1062.55 1260.96 Q1062.55 1260.7 1061.99 1260.56 Q1061.42 1260.4 1060.86 1260.4 L1060.3 1260.37 L1060.3 1258.13 L1064.66 1258.27 Q1066.72 1258.27 1068.45 1258.13 L1068.45 1260.37 Z" fill="#000000" fill-rule="nonzero" fill-opacity="1" /><polyline clip-path="url(#clip330)" style="stroke:#e26f46; stroke-linecap:round; stroke-linejoin:round; stroke-width:3; stroke-opacity:1; fill:none" stroke-dasharray="12, 6, 2, 6" points="971.145,1325.48 1031.6,1325.48 "/>
<path clip-path="url(#clip330)" d="M1064.26 1309.2 L1063.85 1309.87 Q1061.31 1308.77 1058.15 1307.01 Q1054.98 1308.77 1052.44 1309.87 L1052.05 1309.2 Q1054.82 1306.79 1058.15 1304.93 Q1061.51 1306.8 1064.26 1309.2 Z" fill="#000000" fill-rule="nonzero" fill-opacity="1" /><path clip-path="url(#clip330)" d="M1068.45 1317.22 Q1066.97 1317.22 1066.22 1317.36 Q1065.48 1317.48 1065.29 1317.64 Q1065.1 1317.8 1064.89 1318.23 L1054.58 1340.15 Q1053.48 1342.49 1051.42 1344.18 Q1049.38 1345.86 1046.81 1345.86 Q1044.65 1345.86 1043.15 1344.55 Q1041.68 1343.26 1041.68 1341.44 Q1041.68 1340.13 1042.5 1339.38 Q1043.32 1338.65 1044.42 1338.65 Q1045.64 1338.65 1046.41 1339.42 Q1047.21 1340.2 1047.21 1341.39 Q1047.21 1342.16 1046.88 1342.75 Q1046.55 1343.36 1046.25 1343.57 Q1045.96 1343.8 1045.66 1343.94 Q1046.15 1344.13 1046.81 1344.13 Q1047.79 1344.13 1048.63 1343.73 Q1049.5 1343.36 1050.06 1342.84 Q1050.65 1342.35 1051.23 1341.46 Q1051.82 1340.59 1052.1 1340.03 Q1052.38 1339.49 1052.8 1338.56 L1053.9 1336.26 L1044.93 1317.22 L1041.87 1317.22 L1041.87 1314.97 L1047.35 1315.11 L1053.3 1314.97 L1053.3 1317.22 L1050.7 1317.22 L1056.79 1330.17 L1062.31 1318.37 L1062.55 1317.8 Q1062.55 1317.55 1061.99 1317.41 Q1061.42 1317.24 1060.86 1317.24 L1060.3 1317.22 L1060.3 1314.97 L1064.66 1315.11 Q1066.72 1315.11 1068.45 1314.97 L1068.45 1317.22 Z" fill="#000000" fill-rule="nonzero" fill-opacity="1" /><path clip-path="url(#clip330)" d="M1445.91 398.692 L2352.76 398.692 L2352.76 47.2441 L1445.91 47.2441  Z" fill="#ffffff" fill-rule="evenodd" fill-opacity="1"/>
<defs>
  <clipPath id="clip333">
    <rect x="1445" y="47" width="908" height="352"/>
  </clipPath>
</defs>
<polyline clip-path="url(#clip333)" style="stroke:#000000; stroke-linecap:round; stroke-linejoin:round; stroke-width:2; stroke-opacity:0.1; fill:none" points="1471.57,398.692 1471.57,47.2441 "/>
<polyline clip-path="url(#clip333)" style="stroke:#000000; stroke-linecap:round; stroke-linejoin:round; stroke-width:2; stroke-opacity:0.1; fill:none" points="1723.2,398.692 1723.2,47.2441 "/>
<polyline clip-path="url(#clip333)" style="stroke:#000000; stroke-linecap:round; stroke-linejoin:round; stroke-width:2; stroke-opacity:0.1; fill:none" points="1974.82,398.692 1974.82,47.2441 "/>
<polyline clip-path="url(#clip333)" style="stroke:#000000; stroke-linecap:round; stroke-linejoin:round; stroke-width:2; stroke-opacity:0.1; fill:none" points="2226.44,398.692 2226.44,47.2441 "/>
<polyline clip-path="url(#clip333)" style="stroke:#000000; stroke-linecap:round; stroke-linejoin:round; stroke-width:2; stroke-opacity:0.1; fill:none" points="1445.91,388.745 2352.76,388.745 "/>
<polyline clip-path="url(#clip333)" style="stroke:#000000; stroke-linecap:round; stroke-linejoin:round; stroke-width:2; stroke-opacity:0.1; fill:none" points="1445.91,323.457 2352.76,323.457 "/>
<polyline clip-path="url(#clip333)" style="stroke:#000000; stroke-linecap:round; stroke-linejoin:round; stroke-width:2; stroke-opacity:0.1; fill:none" points="1445.91,258.168 2352.76,258.168 "/>
<polyline clip-path="url(#clip333)" style="stroke:#000000; stroke-linecap:round; stroke-linejoin:round; stroke-width:2; stroke-opacity:0.1; fill:none" points="1445.91,192.879 2352.76,192.879 "/>
<polyline clip-path="url(#clip333)" style="stroke:#000000; stroke-linecap:round; stroke-linejoin:round; stroke-width:2; stroke-opacity:0.1; fill:none" points="1445.91,127.591 2352.76,127.591 "/>
<polyline clip-path="url(#clip333)" style="stroke:#000000; stroke-linecap:round; stroke-linejoin:round; stroke-width:2; stroke-opacity:0.1; fill:none" points="1445.91,62.3021 2352.76,62.3021 "/>
<polyline clip-path="url(#clip330)" style="stroke:#000000; stroke-linecap:round; stroke-linejoin:round; stroke-width:4; stroke-opacity:1; fill:none" points="1445.91,398.692 2352.76,398.692 "/>
<polyline clip-path="url(#clip330)" style="stroke:#000000; stroke-linecap:round; stroke-linejoin:round; stroke-width:4; stroke-opacity:1; fill:none" points="1471.57,398.692 1471.57,379.794 "/>
<polyline clip-path="url(#clip330)" style="stroke:#000000; stroke-linecap:round; stroke-linejoin:round; stroke-width:4; stroke-opacity:1; fill:none" points="1723.2,398.692 1723.2,379.794 "/>
<polyline clip-path="url(#clip330)" style="stroke:#000000; stroke-linecap:round; stroke-linejoin:round; stroke-width:4; stroke-opacity:1; fill:none" points="1974.82,398.692 1974.82,379.794 "/>
<polyline clip-path="url(#clip330)" style="stroke:#000000; stroke-linecap:round; stroke-linejoin:round; stroke-width:4; stroke-opacity:1; fill:none" points="2226.44,398.692 2226.44,379.794 "/>
<path clip-path="url(#clip330)" d="M1471.57 429.611 Q1467.96 429.611 1466.13 433.175 Q1464.33 436.717 1464.33 443.847 Q1464.33 450.953 1466.13 454.518 Q1467.96 458.059 1471.57 458.059 Q1475.21 458.059 1477.01 454.518 Q1478.84 450.953 1478.84 443.847 Q1478.84 436.717 1477.01 433.175 Q1475.21 429.611 1471.57 429.611 M1471.57 425.907 Q1477.38 425.907 1480.44 430.513 Q1483.52 435.097 1483.52 443.847 Q1483.52 452.573 1480.44 457.18 Q1477.38 461.763 1471.57 461.763 Q1465.76 461.763 1462.68 457.18 Q1459.63 452.573 1459.63 443.847 Q1459.63 435.097 1462.68 430.513 Q1465.76 425.907 1471.57 425.907 Z" fill="#000000" fill-rule="nonzero" fill-opacity="1" /><path clip-path="url(#clip330)" d="M1713.58 457.157 L1721.22 457.157 L1721.22 430.791 L1712.91 432.458 L1712.91 428.199 L1721.17 426.532 L1725.85 426.532 L1725.85 457.157 L1733.49 457.157 L1733.49 461.092 L1713.58 461.092 L1713.58 457.157 Z" fill="#000000" fill-rule="nonzero" fill-opacity="1" /><path clip-path="url(#clip330)" d="M1969.47 457.157 L1985.79 457.157 L1985.79 461.092 L1963.85 461.092 L1963.85 457.157 Q1966.51 454.402 1971.09 449.772 Q1975.7 445.12 1976.88 443.777 Q1979.12 441.254 1980 439.518 Q1980.91 437.759 1980.91 436.069 Q1980.91 433.314 1978.96 431.578 Q1977.04 429.842 1973.94 429.842 Q1971.74 429.842 1969.29 430.606 Q1966.86 431.37 1964.08 432.921 L1964.08 428.199 Q1966.9 427.064 1969.36 426.486 Q1971.81 425.907 1973.85 425.907 Q1979.22 425.907 1982.41 428.592 Q1985.61 431.277 1985.61 435.768 Q1985.61 437.898 1984.8 439.819 Q1984.01 441.717 1981.9 444.31 Q1981.32 444.981 1978.22 448.198 Q1975.12 451.393 1969.47 457.157 Z" fill="#000000" fill-rule="nonzero" fill-opacity="1" /><path clip-path="url(#clip330)" d="M2230.69 442.458 Q2234.05 443.175 2235.92 445.444 Q2237.82 447.712 2237.82 451.046 Q2237.82 456.161 2234.3 458.962 Q2230.78 461.763 2224.3 461.763 Q2222.12 461.763 2219.81 461.323 Q2217.52 460.907 2215.06 460.05 L2215.06 455.536 Q2217.01 456.671 2219.32 457.249 Q2221.64 457.828 2224.16 457.828 Q2228.56 457.828 2230.85 456.092 Q2233.17 454.356 2233.17 451.046 Q2233.17 447.99 2231.01 446.277 Q2228.88 444.541 2225.06 444.541 L2221.04 444.541 L2221.04 440.698 L2225.25 440.698 Q2228.7 440.698 2230.53 439.333 Q2232.36 437.944 2232.36 435.351 Q2232.36 432.689 2230.46 431.277 Q2228.58 429.842 2225.06 429.842 Q2223.14 429.842 2220.94 430.259 Q2218.74 430.675 2216.11 431.555 L2216.11 427.388 Q2218.77 426.648 2221.08 426.277 Q2223.42 425.907 2225.48 425.907 Q2230.8 425.907 2233.91 428.337 Q2237.01 430.745 2237.01 434.865 Q2237.01 437.736 2235.36 439.726 Q2233.72 441.694 2230.69 442.458 Z" fill="#000000" fill-rule="nonzero" fill-opacity="1" /><polyline clip-path="url(#clip330)" style="stroke:#000000; stroke-linecap:round; stroke-linejoin:round; stroke-width:4; stroke-opacity:1; fill:none" points="1445.91,398.692 1445.91,47.2441 "/>
<polyline clip-path="url(#clip330)" style="stroke:#000000; stroke-linecap:round; stroke-linejoin:round; stroke-width:4; stroke-opacity:1; fill:none" points="1445.91,388.745 1464.81,388.745 "/>
<polyline clip-path="url(#clip330)" style="stroke:#000000; stroke-linecap:round; stroke-linejoin:round; stroke-width:4; stroke-opacity:1; fill:none" points="1445.91,323.457 1464.81,323.457 "/>
<polyline clip-path="url(#clip330)" style="stroke:#000000; stroke-linecap:round; stroke-linejoin:round; stroke-width:4; stroke-opacity:1; fill:none" points="1445.91,258.168 1464.81,258.168 "/>
<polyline clip-path="url(#clip330)" style="stroke:#000000; stroke-linecap:round; stroke-linejoin:round; stroke-width:4; stroke-opacity:1; fill:none" points="1445.91,192.879 1464.81,192.879 "/>
<polyline clip-path="url(#clip330)" style="stroke:#000000; stroke-linecap:round; stroke-linejoin:round; stroke-width:4; stroke-opacity:1; fill:none" points="1445.91,127.591 1464.81,127.591 "/>
<polyline clip-path="url(#clip330)" style="stroke:#000000; stroke-linecap:round; stroke-linejoin:round; stroke-width:4; stroke-opacity:1; fill:none" points="1445.91,62.3021 1464.81,62.3021 "/>
<path clip-path="url(#clip330)" d="M1352.73 374.544 Q1349.12 374.544 1347.29 378.109 Q1345.49 381.65 1345.49 388.78 Q1345.49 395.886 1347.29 399.451 Q1349.12 402.993 1352.73 402.993 Q1356.37 402.993 1358.17 399.451 Q1360 395.886 1360 388.78 Q1360 381.65 1358.17 378.109 Q1356.37 374.544 1352.73 374.544 M1352.73 370.84 Q1358.54 370.84 1361.6 375.447 Q1364.68 380.03 1364.68 388.78 Q1364.68 397.507 1361.6 402.113 Q1358.54 406.697 1352.73 406.697 Q1346.92 406.697 1343.84 402.113 Q1340.79 397.507 1340.79 388.78 Q1340.79 380.03 1343.84 375.447 Q1346.92 370.84 1352.73 370.84 Z" fill="#000000" fill-rule="nonzero" fill-opacity="1" /><path clip-path="url(#clip330)" d="M1372.89 400.146 L1377.78 400.146 L1377.78 406.025 L1372.89 406.025 L1372.89 400.146 Z" fill="#000000" fill-rule="nonzero" fill-opacity="1" /><path clip-path="url(#clip330)" d="M1397.96 374.544 Q1394.35 374.544 1392.52 378.109 Q1390.72 381.65 1390.72 388.78 Q1390.72 395.886 1392.52 399.451 Q1394.35 402.993 1397.96 402.993 Q1401.6 402.993 1403.4 399.451 Q1405.23 395.886 1405.23 388.78 Q1405.23 381.65 1403.4 378.109 Q1401.6 374.544 1397.96 374.544 M1397.96 370.84 Q1403.77 370.84 1406.83 375.447 Q1409.91 380.03 1409.91 388.78 Q1409.91 397.507 1406.83 402.113 Q1403.77 406.697 1397.96 406.697 Q1392.15 406.697 1389.07 402.113 Q1386.02 397.507 1386.02 388.78 Q1386.02 380.03 1389.07 375.447 Q1392.15 370.84 1397.96 370.84 Z" fill="#000000" fill-rule="nonzero" fill-opacity="1" /><path clip-path="url(#clip330)" d="M1353.96 309.255 Q1350.35 309.255 1348.52 312.82 Q1346.71 316.362 1346.71 323.491 Q1346.71 330.598 1348.52 334.163 Q1350.35 337.704 1353.96 337.704 Q1357.59 337.704 1359.4 334.163 Q1361.23 330.598 1361.23 323.491 Q1361.23 316.362 1359.4 312.82 Q1357.59 309.255 1353.96 309.255 M1353.96 305.552 Q1359.77 305.552 1362.82 310.158 Q1365.9 314.741 1365.9 323.491 Q1365.9 332.218 1362.82 336.825 Q1359.77 341.408 1353.96 341.408 Q1348.15 341.408 1345.07 336.825 Q1342.01 332.218 1342.01 323.491 Q1342.01 314.741 1345.07 310.158 Q1348.15 305.552 1353.96 305.552 Z" fill="#000000" fill-rule="nonzero" fill-opacity="1" /><path clip-path="url(#clip330)" d="M1374.12 334.857 L1379.01 334.857 L1379.01 340.737 L1374.12 340.737 L1374.12 334.857 Z" fill="#000000" fill-rule="nonzero" fill-opacity="1" /><path clip-path="url(#clip330)" d="M1390 336.801 L1397.64 336.801 L1397.64 310.436 L1389.33 312.102 L1389.33 307.843 L1397.59 306.177 L1402.27 306.177 L1402.27 336.801 L1409.91 336.801 L1409.91 340.737 L1390 340.737 L1390 336.801 Z" fill="#000000" fill-rule="nonzero" fill-opacity="1" /><path clip-path="url(#clip330)" d="M1354.33 243.967 Q1350.72 243.967 1348.89 247.531 Q1347.08 251.073 1347.08 258.203 Q1347.08 265.309 1348.89 268.874 Q1350.72 272.416 1354.33 272.416 Q1357.96 272.416 1359.77 268.874 Q1361.6 265.309 1361.6 258.203 Q1361.6 251.073 1359.77 247.531 Q1357.96 243.967 1354.33 243.967 M1354.33 240.263 Q1360.14 240.263 1363.2 244.869 Q1366.27 249.453 1366.27 258.203 Q1366.27 266.929 1363.2 271.536 Q1360.14 276.119 1354.33 276.119 Q1348.52 276.119 1345.44 271.536 Q1342.39 266.929 1342.39 258.203 Q1342.39 249.453 1345.44 244.869 Q1348.52 240.263 1354.33 240.263 Z" fill="#000000" fill-rule="nonzero" fill-opacity="1" /><path clip-path="url(#clip330)" d="M1374.49 269.568 L1379.38 269.568 L1379.38 275.448 L1374.49 275.448 L1374.49 269.568 Z" fill="#000000" fill-rule="nonzero" fill-opacity="1" /><path clip-path="url(#clip330)" d="M1393.59 271.513 L1409.91 271.513 L1409.91 275.448 L1387.96 275.448 L1387.96 271.513 Q1390.63 268.758 1395.21 264.129 Q1399.82 259.476 1401 258.133 Q1403.24 255.61 1404.12 253.874 Q1405.02 252.115 1405.02 250.425 Q1405.02 247.67 1403.08 245.934 Q1401.16 244.198 1398.06 244.198 Q1395.86 244.198 1393.4 244.962 Q1390.97 245.726 1388.19 247.277 L1388.19 242.555 Q1391.02 241.42 1393.47 240.842 Q1395.93 240.263 1397.96 240.263 Q1403.33 240.263 1406.53 242.948 Q1409.72 245.633 1409.72 250.124 Q1409.72 252.254 1408.91 254.175 Q1408.13 256.073 1406.02 258.666 Q1405.44 259.337 1402.34 262.555 Q1399.24 265.749 1393.59 271.513 Z" fill="#000000" fill-rule="nonzero" fill-opacity="1" /><path clip-path="url(#clip330)" d="M1353.38 178.678 Q1349.77 178.678 1347.94 182.243 Q1346.13 185.784 1346.13 192.914 Q1346.13 200.021 1347.94 203.585 Q1349.77 207.127 1353.38 207.127 Q1357.01 207.127 1358.82 203.585 Q1360.65 200.021 1360.65 192.914 Q1360.65 185.784 1358.82 182.243 Q1357.01 178.678 1353.38 178.678 M1353.38 174.974 Q1359.19 174.974 1362.25 179.581 Q1365.32 184.164 1365.32 192.914 Q1365.32 201.641 1362.25 206.247 Q1359.19 210.831 1353.38 210.831 Q1347.57 210.831 1344.49 206.247 Q1341.44 201.641 1341.44 192.914 Q1341.44 184.164 1344.49 179.581 Q1347.57 174.974 1353.38 174.974 Z" fill="#000000" fill-rule="nonzero" fill-opacity="1" /><path clip-path="url(#clip330)" d="M1373.54 204.28 L1378.43 204.28 L1378.43 210.159 L1373.54 210.159 L1373.54 204.28 Z" fill="#000000" fill-rule="nonzero" fill-opacity="1" /><path clip-path="url(#clip330)" d="M1402.78 191.525 Q1406.13 192.243 1408.01 194.511 Q1409.91 196.78 1409.91 200.113 Q1409.91 205.229 1406.39 208.03 Q1402.87 210.831 1396.39 210.831 Q1394.21 210.831 1391.9 210.391 Q1389.61 209.974 1387.15 209.118 L1387.15 204.604 Q1389.1 205.738 1391.41 206.317 Q1393.73 206.895 1396.25 206.895 Q1400.65 206.895 1402.94 205.159 Q1405.26 203.423 1405.26 200.113 Q1405.26 197.058 1403.1 195.345 Q1400.97 193.608 1397.15 193.608 L1393.13 193.608 L1393.13 189.766 L1397.34 189.766 Q1400.79 189.766 1402.62 188.4 Q1404.44 187.011 1404.44 184.419 Q1404.44 181.757 1402.55 180.345 Q1400.67 178.91 1397.15 178.91 Q1395.23 178.91 1393.03 179.326 Q1390.83 179.743 1388.19 180.622 L1388.19 176.456 Q1390.86 175.715 1393.17 175.345 Q1395.51 174.974 1397.57 174.974 Q1402.89 174.974 1406 177.405 Q1409.1 179.812 1409.1 183.933 Q1409.1 186.803 1407.45 188.794 Q1405.81 190.761 1402.78 191.525 Z" fill="#000000" fill-rule="nonzero" fill-opacity="1" /><path clip-path="url(#clip330)" d="M1352.25 113.389 Q1348.63 113.389 1346.81 116.954 Q1345 120.496 1345 127.625 Q1345 134.732 1346.81 138.297 Q1348.63 141.838 1352.25 141.838 Q1355.88 141.838 1357.69 138.297 Q1359.51 134.732 1359.51 127.625 Q1359.51 120.496 1357.69 116.954 Q1355.88 113.389 1352.25 113.389 M1352.25 109.686 Q1358.06 109.686 1361.11 114.292 Q1364.19 118.875 1364.19 127.625 Q1364.19 136.352 1361.11 140.959 Q1358.06 145.542 1352.25 145.542 Q1346.44 145.542 1343.36 140.959 Q1340.3 136.352 1340.3 127.625 Q1340.3 118.875 1343.36 114.292 Q1346.44 109.686 1352.25 109.686 Z" fill="#000000" fill-rule="nonzero" fill-opacity="1" /><path clip-path="url(#clip330)" d="M1372.41 138.991 L1377.29 138.991 L1377.29 144.871 L1372.41 144.871 L1372.41 138.991 Z" fill="#000000" fill-rule="nonzero" fill-opacity="1" /><path clip-path="url(#clip330)" d="M1400.32 114.385 L1388.52 132.834 L1400.32 132.834 L1400.32 114.385 M1399.1 110.311 L1404.98 110.311 L1404.98 132.834 L1409.91 132.834 L1409.91 136.723 L1404.98 136.723 L1404.98 144.871 L1400.32 144.871 L1400.32 136.723 L1384.72 136.723 L1384.72 132.209 L1399.1 110.311 Z" fill="#000000" fill-rule="nonzero" fill-opacity="1" /><path clip-path="url(#clip330)" d="M1353.73 48.1008 Q1350.12 48.1008 1348.29 51.6656 Q1346.48 55.2072 1346.48 62.3368 Q1346.48 69.4432 1348.29 73.008 Q1350.12 76.5497 1353.73 76.5497 Q1357.36 76.5497 1359.17 73.008 Q1361 69.4432 1361 62.3368 Q1361 55.2072 1359.17 51.6656 Q1357.36 48.1008 1353.73 48.1008 M1353.73 44.3971 Q1359.54 44.3971 1362.59 49.0035 Q1365.67 53.5868 1365.67 62.3368 Q1365.67 71.0636 1362.59 75.6701 Q1359.54 80.2534 1353.73 80.2534 Q1347.92 80.2534 1344.84 75.6701 Q1341.78 71.0636 1341.78 62.3368 Q1341.78 53.5868 1344.84 49.0035 Q1347.92 44.3971 1353.73 44.3971 Z" fill="#000000" fill-rule="nonzero" fill-opacity="1" /><path clip-path="url(#clip330)" d="M1373.89 73.7025 L1378.77 73.7025 L1378.77 79.5821 L1373.89 79.5821 L1373.89 73.7025 Z" fill="#000000" fill-rule="nonzero" fill-opacity="1" /><path clip-path="url(#clip330)" d="M1389.01 45.0221 L1407.36 45.0221 L1407.36 48.9572 L1393.29 48.9572 L1393.29 57.4294 Q1394.31 57.0822 1395.32 56.9202 Q1396.34 56.735 1397.36 56.735 Q1403.15 56.735 1406.53 59.9063 Q1409.91 63.0775 1409.91 68.4942 Q1409.91 74.0728 1406.44 77.1747 Q1402.96 80.2534 1396.64 80.2534 Q1394.47 80.2534 1392.2 79.883 Q1389.95 79.5126 1387.55 78.7719 L1387.55 74.0728 Q1389.63 75.2071 1391.85 75.7626 Q1394.07 76.3182 1396.55 76.3182 Q1400.56 76.3182 1402.89 74.2117 Q1405.23 72.1053 1405.23 68.4942 Q1405.23 64.8831 1402.89 62.7766 Q1400.56 60.6701 1396.55 60.6701 Q1394.68 60.6701 1392.8 61.0868 Q1390.95 61.5035 1389.01 62.3831 L1389.01 45.0221 Z" fill="#000000" fill-rule="nonzero" fill-opacity="1" /><path clip-path="url(#clip330)" d="M1265.47 298.084 Q1270.89 298.084 1276.97 299.823 Q1283.03 301.53 1287.92 304.235 Q1292.79 306.941 1296.01 310.483 Q1299.19 314.026 1299.19 317.408 Q1299.19 319.565 1298 321.176 Q1296.78 322.754 1294.75 323.623 Q1292.69 324.493 1290.43 324.912 Q1288.15 325.33 1285.67 325.33 Q1281.96 325.33 1277.94 324.525 Q1273.88 323.72 1270.21 322.367 Q1266.51 321.015 1263.16 319.115 Q1259.77 317.214 1257.33 315.121 Q1254.85 312.995 1253.4 310.612 Q1251.95 308.229 1251.95 306.007 Q1251.95 304.396 1252.66 303.108 Q1253.33 301.788 1254.52 300.95 Q1255.68 300.113 1257.07 299.533 Q1258.45 298.921 1260.06 298.632 Q1261.64 298.342 1262.96 298.213 Q1264.25 298.084 1265.47 298.084 M1261.38 302.432 Q1259.74 302.432 1258.52 302.561 Q1257.26 302.69 1256.01 303.044 Q1254.75 303.398 1254.07 304.171 Q1253.4 304.912 1253.4 306.071 Q1253.4 309.453 1260.32 313.253 Q1262.48 314.477 1265.41 315.572 Q1268.34 316.667 1269.73 317.053 Q1271.11 317.44 1274.52 318.342 L1274.52 304.558 Q1265.73 302.432 1261.38 302.432 M1276.62 305.137 L1276.62 318.857 Q1284.67 320.983 1289.69 320.983 Q1294.07 320.983 1295.91 320.081 Q1297.71 319.147 1297.71 317.408 Q1297.71 315.411 1295.72 313.543 Q1293.69 311.675 1290.02 309.775 Q1285.25 307.263 1276.62 305.137 Z" fill="#000000" fill-rule="nonzero" fill-opacity="1" /><path clip-path="url(#clip330)" d="M1248.99 253.776 Q1256.31 258.041 1263.47 260.11 Q1270.64 262.179 1277.99 262.179 Q1285.34 262.179 1292.57 260.11 Q1299.76 258.009 1307.05 253.776 L1307.05 258.869 Q1299.57 263.643 1292.34 266.03 Q1285.12 268.386 1277.99 268.386 Q1270.89 268.386 1263.7 266.03 Q1256.5 263.675 1248.99 258.869 L1248.99 253.776 Z" fill="#000000" fill-rule="nonzero" fill-opacity="1" /><path clip-path="url(#clip330)" d="M1268.28 221.757 Q1267.71 222.743 1267.45 223.921 Q1267.17 225.067 1267.17 226.467 Q1267.17 231.433 1270.41 234.106 Q1273.63 236.748 1279.67 236.748 L1298.45 236.748 L1298.45 242.636 L1262.81 242.636 L1262.81 236.748 L1268.34 236.748 Q1265.1 234.902 1263.54 231.942 Q1261.95 228.982 1261.95 224.749 Q1261.95 224.144 1262.04 223.412 Q1262.11 222.68 1262.26 221.789 L1268.28 221.757 Z" fill="#000000" fill-rule="nonzero" fill-opacity="1" /><path clip-path="url(#clip330)" d="M1280.53 199.413 Q1280.53 206.511 1282.16 209.248 Q1283.78 211.985 1287.7 211.985 Q1290.81 211.985 1292.66 209.948 Q1294.48 207.879 1294.48 204.347 Q1294.48 199.477 1291.04 196.549 Q1287.57 193.588 1281.84 193.588 L1280.53 193.588 L1280.53 199.413 M1278.12 187.732 L1298.45 187.732 L1298.45 193.588 L1293.04 193.588 Q1296.29 195.594 1297.85 198.586 Q1299.38 201.577 1299.38 205.906 Q1299.38 211.381 1296.32 214.627 Q1293.23 217.842 1288.08 217.842 Q1282.06 217.842 1279.01 213.831 Q1275.95 209.789 1275.95 201.8 L1275.95 193.588 L1275.38 193.588 Q1271.34 193.588 1269.14 196.262 Q1266.91 198.904 1266.91 203.71 Q1266.91 206.766 1267.64 209.662 Q1268.38 212.558 1269.84 215.232 L1264.43 215.232 Q1263.19 212.017 1262.58 208.993 Q1261.95 205.97 1261.95 203.105 Q1261.95 195.371 1265.96 191.551 Q1269.97 187.732 1278.12 187.732 Z" fill="#000000" fill-rule="nonzero" fill-opacity="1" /><path clip-path="url(#clip330)" d="M1268.22 152.211 L1248.93 152.211 L1248.93 146.355 L1298.45 146.355 L1298.45 152.211 L1293.11 152.211 Q1296.29 154.057 1297.85 156.89 Q1299.38 159.691 1299.38 163.638 Q1299.38 170.099 1294.22 174.173 Q1289.06 178.215 1280.66 178.215 Q1272.26 178.215 1267.1 174.173 Q1261.95 170.099 1261.95 163.638 Q1261.95 159.691 1263.51 156.89 Q1265.03 154.057 1268.22 152.211 M1280.66 172.168 Q1287.12 172.168 1290.81 169.526 Q1294.48 166.853 1294.48 162.206 Q1294.48 157.559 1290.81 154.885 Q1287.12 152.211 1280.66 152.211 Q1274.2 152.211 1270.54 154.885 Q1266.85 157.559 1266.85 162.206 Q1266.85 166.853 1270.54 169.526 Q1274.2 172.168 1280.66 172.168 Z" fill="#000000" fill-rule="nonzero" fill-opacity="1" /><path clip-path="url(#clip330)" d="M1248.99 135.215 L1248.99 130.122 Q1256.5 125.348 1263.7 122.993 Q1270.89 120.606 1277.99 120.606 Q1285.12 120.606 1292.34 122.993 Q1299.57 125.348 1307.05 130.122 L1307.05 135.215 Q1299.76 130.982 1292.57 128.913 Q1285.34 126.812 1277.99 126.812 Q1270.64 126.812 1263.47 128.913 Q1256.31 130.982 1248.99 135.215 Z" fill="#000000" fill-rule="nonzero" fill-opacity="1" /><polyline clip-path="url(#clip333)" style="stroke:#009af9; stroke-linecap:round; stroke-linejoin:round; stroke-width:4; stroke-opacity:1; fill:none" points="1471.57,388.745 1496.74,360.394 1521.9,296.079 1547.06,222.019 1572.22,155.742 1597.38,106.132 1622.55,75.3136 1647.71,61.1461 1672.87,59.454 1698.03,65.6121 1723.2,75.5073 1748.36,86.0125 1773.52,95.1148 1798.68,101.819 1823.85,105.922 1849.01,107.744 1874.17,107.868 1899.33,106.941 1924.49,105.535 1949.66,104.081 1974.82,102.847 1999.98,101.958 2025.14,101.431 2050.31,101.214 2075.47,101.223 2100.63,101.366 2125.79,101.567 2150.95,101.768 2176.12,101.935 2201.28,102.053 2226.44,102.12 2251.6,102.146 2276.77,102.142 2301.93,102.12 2327.09,102.091 "/>
<polyline clip-path="url(#clip333)" style="stroke:#e26f46; stroke-linecap:round; stroke-linejoin:round; stroke-width:3; stroke-opacity:1; fill:none" stroke-dasharray="12, 6, 2, 6" points="1471.57,379.49 1496.74,356.698 1521.9,294.551 1547.06,218.051 1572.22,159.004 1597.38,104.517 1622.55,71.3663 1647.71,61.9469 1672.87,57.1907 1698.03,69.9841 1723.2,76.3041 1748.36,81.6829 1773.52,100.066 1798.68,102.551 1823.85,107.713 1849.01,106.461 1874.17,108.243 1899.33,115.871 1924.49,107.775 1949.66,104.117 1974.82,106.061 1999.98,96.7399 2025.14,101.862 2050.31,105.488 2075.47,94.6686 2100.63,88.9516 2125.79,93.626 2150.95,104.105 2176.12,109.121 2201.28,107.025 2226.44,107.29 2251.6,101.894 2276.77,101.154 2301.93,100.837 2327.09,105.758 "/>
<path clip-path="url(#clip330)" d="M2203.01 386.977 L2322.53 386.977 L2322.53 231.457 L2203.01 231.457  Z" fill="#ffffff" fill-rule="evenodd" fill-opacity="1"/>
<polyline clip-path="url(#clip330)" style="stroke:#000000; stroke-linecap:round; stroke-linejoin:round; stroke-width:4; stroke-opacity:1; fill:none" points="2203.01,386.977 2322.53,386.977 2322.53,231.457 2203.01,231.457 2203.01,386.977 "/>
<polyline clip-path="url(#clip330)" style="stroke:#009af9; stroke-linecap:round; stroke-linejoin:round; stroke-width:4; stroke-opacity:1; fill:none" points="2213.09,283.297 2273.55,283.297 "/>
<path clip-path="url(#clip330)" d="M2310.63 293.836 L2305.36 293.695 L2299.6 293.836 L2299.6 291.587 L2301.47 291.587 L2296.2 285.357 L2291.54 290.58 L2291.21 291.049 Q2291.21 291.26 2291.75 291.423 Q2292.31 291.587 2292.97 291.587 L2292.97 293.836 L2288.03 293.695 L2283.62 293.836 L2283.62 291.587 Q2285.1 291.587 2285.78 291.564 Q2286.48 291.517 2287.28 291.306 Q2288.07 291.096 2288.47 290.674 L2294.75 283.624 L2287.28 274.794 L2283.86 274.794 L2283.86 272.545 L2289.15 272.686 L2294.94 272.545 L2294.94 274.794 L2293.01 274.794 L2297.72 280.298 L2301.75 275.801 Q2301.77 275.777 2302.15 275.215 Q2301.4 274.794 2300.32 274.794 L2300.32 272.545 L2305.26 272.686 L2309.67 272.545 L2309.67 274.794 Q2307.75 274.794 2306.74 274.934 Q2305.76 275.051 2305.45 275.215 Q2305.17 275.379 2304.77 275.801 L2299.17 282.031 L2307.23 291.587 L2310.63 291.587 L2310.63 293.836 Z" fill="#000000" fill-rule="nonzero" fill-opacity="1" /><polyline clip-path="url(#clip330)" style="stroke:#e26f46; stroke-linecap:round; stroke-linejoin:round; stroke-width:3; stroke-opacity:1; fill:none" stroke-dasharray="12, 6, 2, 6" points="2213.09,335.137 2273.55,335.137 "/>
<path clip-path="url(#clip330)" d="M2306.21 323.615 L2305.8 324.287 Q2303.26 323.189 2300.09 321.434 Q2296.93 323.189 2294.39 324.287 L2293.99 323.615 Q2296.76 321.205 2300.09 319.352 Q2303.45 321.221 2306.21 323.615 Z" fill="#000000" fill-rule="nonzero" fill-opacity="1" /><path clip-path="url(#clip330)" d="M2310.63 350.681 L2305.36 350.54 L2299.6 350.681 L2299.6 348.432 L2301.47 348.432 L2296.2 342.202 L2291.54 347.425 L2291.21 347.893 Q2291.21 348.104 2291.75 348.268 Q2292.31 348.432 2292.97 348.432 L2292.97 350.681 L2288.03 350.54 L2283.62 350.681 L2283.62 348.432 Q2285.1 348.432 2285.78 348.409 Q2286.48 348.362 2287.28 348.151 Q2288.07 347.94 2288.47 347.519 L2294.75 340.468 L2287.28 331.638 L2283.86 331.638 L2283.86 329.39 L2289.15 329.53 L2294.94 329.39 L2294.94 331.638 L2293.01 331.638 L2297.72 337.142 L2301.75 332.645 Q2301.77 332.622 2302.15 332.06 Q2301.4 331.638 2300.32 331.638 L2300.32 329.39 L2305.26 329.53 L2309.67 329.39 L2309.67 331.638 Q2307.75 331.638 2306.74 331.779 Q2305.76 331.896 2305.45 332.06 Q2305.17 332.224 2304.77 332.645 L2299.17 338.876 L2307.23 348.432 L2310.63 348.432 L2310.63 350.681 Z" fill="#000000" fill-rule="nonzero" fill-opacity="1" /><path clip-path="url(#clip330)" d="M1445.91 910.936 L2352.76 910.936 L2352.76 559.488 L1445.91 559.488  Z" fill="#ffffff" fill-rule="evenodd" fill-opacity="1"/>
<defs>
  <clipPath id="clip334">
    <rect x="1445" y="559" width="908" height="352"/>
  </clipPath>
</defs>
<polyline clip-path="url(#clip334)" style="stroke:#000000; stroke-linecap:round; stroke-linejoin:round; stroke-width:2; stroke-opacity:0.1; fill:none" points="1471.57,910.936 1471.57,559.488 "/>
<polyline clip-path="url(#clip334)" style="stroke:#000000; stroke-linecap:round; stroke-linejoin:round; stroke-width:2; stroke-opacity:0.1; fill:none" points="1723.2,910.936 1723.2,559.488 "/>
<polyline clip-path="url(#clip334)" style="stroke:#000000; stroke-linecap:round; stroke-linejoin:round; stroke-width:2; stroke-opacity:0.1; fill:none" points="1974.82,910.936 1974.82,559.488 "/>
<polyline clip-path="url(#clip334)" style="stroke:#000000; stroke-linecap:round; stroke-linejoin:round; stroke-width:2; stroke-opacity:0.1; fill:none" points="2226.44,910.936 2226.44,559.488 "/>
<polyline clip-path="url(#clip334)" style="stroke:#000000; stroke-linecap:round; stroke-linejoin:round; stroke-width:2; stroke-opacity:0.1; fill:none" points="1445.91,845.89 2352.76,845.89 "/>
<polyline clip-path="url(#clip334)" style="stroke:#000000; stroke-linecap:round; stroke-linejoin:round; stroke-width:2; stroke-opacity:0.1; fill:none" points="1445.91,774.047 2352.76,774.047 "/>
<polyline clip-path="url(#clip334)" style="stroke:#000000; stroke-linecap:round; stroke-linejoin:round; stroke-width:2; stroke-opacity:0.1; fill:none" points="1445.91,702.204 2352.76,702.204 "/>
<polyline clip-path="url(#clip334)" style="stroke:#000000; stroke-linecap:round; stroke-linejoin:round; stroke-width:2; stroke-opacity:0.1; fill:none" points="1445.91,630.36 2352.76,630.36 "/>
<polyline clip-path="url(#clip330)" style="stroke:#000000; stroke-linecap:round; stroke-linejoin:round; stroke-width:4; stroke-opacity:1; fill:none" points="1445.91,910.936 2352.76,910.936 "/>
<polyline clip-path="url(#clip330)" style="stroke:#000000; stroke-linecap:round; stroke-linejoin:round; stroke-width:4; stroke-opacity:1; fill:none" points="1471.57,910.936 1471.57,892.038 "/>
<polyline clip-path="url(#clip330)" style="stroke:#000000; stroke-linecap:round; stroke-linejoin:round; stroke-width:4; stroke-opacity:1; fill:none" points="1723.2,910.936 1723.2,892.038 "/>
<polyline clip-path="url(#clip330)" style="stroke:#000000; stroke-linecap:round; stroke-linejoin:round; stroke-width:4; stroke-opacity:1; fill:none" points="1974.82,910.936 1974.82,892.038 "/>
<polyline clip-path="url(#clip330)" style="stroke:#000000; stroke-linecap:round; stroke-linejoin:round; stroke-width:4; stroke-opacity:1; fill:none" points="2226.44,910.936 2226.44,892.038 "/>
<path clip-path="url(#clip330)" d="M1471.57 941.855 Q1467.96 941.855 1466.13 945.419 Q1464.33 948.961 1464.33 956.091 Q1464.33 963.197 1466.13 966.762 Q1467.96 970.303 1471.57 970.303 Q1475.21 970.303 1477.01 966.762 Q1478.84 963.197 1478.84 956.091 Q1478.84 948.961 1477.01 945.419 Q1475.21 941.855 1471.57 941.855 M1471.57 938.151 Q1477.38 938.151 1480.44 942.757 Q1483.52 947.341 1483.52 956.091 Q1483.52 964.817 1480.44 969.424 Q1477.38 974.007 1471.57 974.007 Q1465.76 974.007 1462.68 969.424 Q1459.63 964.817 1459.63 956.091 Q1459.63 947.341 1462.68 942.757 Q1465.76 938.151 1471.57 938.151 Z" fill="#000000" fill-rule="nonzero" fill-opacity="1" /><path clip-path="url(#clip330)" d="M1713.58 969.401 L1721.22 969.401 L1721.22 943.035 L1712.91 944.702 L1712.91 940.443 L1721.17 938.776 L1725.85 938.776 L1725.85 969.401 L1733.49 969.401 L1733.49 973.336 L1713.58 973.336 L1713.58 969.401 Z" fill="#000000" fill-rule="nonzero" fill-opacity="1" /><path clip-path="url(#clip330)" d="M1969.47 969.401 L1985.79 969.401 L1985.79 973.336 L1963.85 973.336 L1963.85 969.401 Q1966.51 966.646 1971.09 962.016 Q1975.7 957.364 1976.88 956.021 Q1979.12 953.498 1980 951.762 Q1980.91 950.003 1980.91 948.313 Q1980.91 945.558 1978.96 943.822 Q1977.04 942.086 1973.94 942.086 Q1971.74 942.086 1969.29 942.85 Q1966.86 943.614 1964.08 945.165 L1964.08 940.443 Q1966.9 939.308 1969.36 938.73 Q1971.81 938.151 1973.85 938.151 Q1979.22 938.151 1982.41 940.836 Q1985.61 943.521 1985.61 948.012 Q1985.61 950.142 1984.8 952.063 Q1984.01 953.961 1981.9 956.554 Q1981.32 957.225 1978.22 960.442 Q1975.12 963.637 1969.47 969.401 Z" fill="#000000" fill-rule="nonzero" fill-opacity="1" /><path clip-path="url(#clip330)" d="M2230.69 954.702 Q2234.05 955.419 2235.92 957.688 Q2237.82 959.956 2237.82 963.29 Q2237.82 968.405 2234.3 971.206 Q2230.78 974.007 2224.3 974.007 Q2222.12 974.007 2219.81 973.567 Q2217.52 973.151 2215.06 972.294 L2215.06 967.78 Q2217.01 968.915 2219.32 969.493 Q2221.64 970.072 2224.16 970.072 Q2228.56 970.072 2230.85 968.336 Q2233.17 966.6 2233.17 963.29 Q2233.17 960.234 2231.01 958.521 Q2228.88 956.785 2225.06 956.785 L2221.04 956.785 L2221.04 952.942 L2225.25 952.942 Q2228.7 952.942 2230.53 951.577 Q2232.36 950.188 2232.36 947.595 Q2232.36 944.933 2230.46 943.521 Q2228.58 942.086 2225.06 942.086 Q2223.14 942.086 2220.94 942.503 Q2218.74 942.919 2216.11 943.799 L2216.11 939.632 Q2218.77 938.892 2221.08 938.521 Q2223.42 938.151 2225.48 938.151 Q2230.8 938.151 2233.91 940.581 Q2237.01 942.989 2237.01 947.109 Q2237.01 949.979 2235.36 951.97 Q2233.72 953.938 2230.69 954.702 Z" fill="#000000" fill-rule="nonzero" fill-opacity="1" /><polyline clip-path="url(#clip330)" style="stroke:#000000; stroke-linecap:round; stroke-linejoin:round; stroke-width:4; stroke-opacity:1; fill:none" points="1445.91,910.936 1445.91,559.488 "/>
<polyline clip-path="url(#clip330)" style="stroke:#000000; stroke-linecap:round; stroke-linejoin:round; stroke-width:4; stroke-opacity:1; fill:none" points="1445.91,845.89 1464.81,845.89 "/>
<polyline clip-path="url(#clip330)" style="stroke:#000000; stroke-linecap:round; stroke-linejoin:round; stroke-width:4; stroke-opacity:1; fill:none" points="1445.91,774.047 1464.81,774.047 "/>
<polyline clip-path="url(#clip330)" style="stroke:#000000; stroke-linecap:round; stroke-linejoin:round; stroke-width:4; stroke-opacity:1; fill:none" points="1445.91,702.204 1464.81,702.204 "/>
<polyline clip-path="url(#clip330)" style="stroke:#000000; stroke-linecap:round; stroke-linejoin:round; stroke-width:4; stroke-opacity:1; fill:none" points="1445.91,630.36 1464.81,630.36 "/>
<path clip-path="url(#clip330)" d="M1352.73 831.689 Q1349.12 831.689 1347.29 835.254 Q1345.49 838.795 1345.49 845.925 Q1345.49 853.031 1347.29 856.596 Q1349.12 860.138 1352.73 860.138 Q1356.37 860.138 1358.17 856.596 Q1360 853.031 1360 845.925 Q1360 838.795 1358.17 835.254 Q1356.37 831.689 1352.73 831.689 M1352.73 827.985 Q1358.54 827.985 1361.6 832.592 Q1364.68 837.175 1364.68 845.925 Q1364.68 854.652 1361.6 859.258 Q1358.54 863.841 1352.73 863.841 Q1346.92 863.841 1343.84 859.258 Q1340.79 854.652 1340.79 845.925 Q1340.79 837.175 1343.84 832.592 Q1346.92 827.985 1352.73 827.985 Z" fill="#000000" fill-rule="nonzero" fill-opacity="1" /><path clip-path="url(#clip330)" d="M1372.89 857.291 L1377.78 857.291 L1377.78 863.17 L1372.89 863.17 L1372.89 857.291 Z" fill="#000000" fill-rule="nonzero" fill-opacity="1" /><path clip-path="url(#clip330)" d="M1397.96 831.689 Q1394.35 831.689 1392.52 835.254 Q1390.72 838.795 1390.72 845.925 Q1390.72 853.031 1392.52 856.596 Q1394.35 860.138 1397.96 860.138 Q1401.6 860.138 1403.4 856.596 Q1405.23 853.031 1405.23 845.925 Q1405.23 838.795 1403.4 835.254 Q1401.6 831.689 1397.96 831.689 M1397.96 827.985 Q1403.77 827.985 1406.83 832.592 Q1409.91 837.175 1409.91 845.925 Q1409.91 854.652 1406.83 859.258 Q1403.77 863.841 1397.96 863.841 Q1392.15 863.841 1389.07 859.258 Q1386.02 854.652 1386.02 845.925 Q1386.02 837.175 1389.07 832.592 Q1392.15 827.985 1397.96 827.985 Z" fill="#000000" fill-rule="nonzero" fill-opacity="1" /><path clip-path="url(#clip330)" d="M1353.38 759.846 Q1349.77 759.846 1347.94 763.41 Q1346.13 766.952 1346.13 774.082 Q1346.13 781.188 1347.94 784.753 Q1349.77 788.295 1353.38 788.295 Q1357.01 788.295 1358.82 784.753 Q1360.65 781.188 1360.65 774.082 Q1360.65 766.952 1358.82 763.41 Q1357.01 759.846 1353.38 759.846 M1353.38 756.142 Q1359.19 756.142 1362.25 760.748 Q1365.32 765.332 1365.32 774.082 Q1365.32 782.808 1362.25 787.415 Q1359.19 791.998 1353.38 791.998 Q1347.57 791.998 1344.49 787.415 Q1341.44 782.808 1341.44 774.082 Q1341.44 765.332 1344.49 760.748 Q1347.57 756.142 1353.38 756.142 Z" fill="#000000" fill-rule="nonzero" fill-opacity="1" /><path clip-path="url(#clip330)" d="M1373.54 785.447 L1378.43 785.447 L1378.43 791.327 L1373.54 791.327 L1373.54 785.447 Z" fill="#000000" fill-rule="nonzero" fill-opacity="1" /><path clip-path="url(#clip330)" d="M1402.78 772.693 Q1406.13 773.41 1408.01 775.679 Q1409.91 777.947 1409.91 781.281 Q1409.91 786.396 1406.39 789.197 Q1402.87 791.998 1396.39 791.998 Q1394.21 791.998 1391.9 791.558 Q1389.61 791.142 1387.15 790.285 L1387.15 785.771 Q1389.1 786.906 1391.41 787.484 Q1393.73 788.063 1396.25 788.063 Q1400.65 788.063 1402.94 786.327 Q1405.26 784.591 1405.26 781.281 Q1405.26 778.225 1403.1 776.512 Q1400.97 774.776 1397.15 774.776 L1393.13 774.776 L1393.13 770.934 L1397.34 770.934 Q1400.79 770.934 1402.62 769.568 Q1404.44 768.179 1404.44 765.586 Q1404.44 762.924 1402.55 761.512 Q1400.67 760.077 1397.15 760.077 Q1395.23 760.077 1393.03 760.494 Q1390.83 760.91 1388.19 761.79 L1388.19 757.623 Q1390.86 756.883 1393.17 756.512 Q1395.51 756.142 1397.57 756.142 Q1402.89 756.142 1406 758.572 Q1409.1 760.98 1409.1 765.1 Q1409.1 767.971 1407.45 769.961 Q1405.81 771.929 1402.78 772.693 Z" fill="#000000" fill-rule="nonzero" fill-opacity="1" /><path clip-path="url(#clip330)" d="M1352.57 688.002 Q1348.96 688.002 1347.13 691.567 Q1345.32 695.109 1345.32 702.238 Q1345.32 709.345 1347.13 712.91 Q1348.96 716.451 1352.57 716.451 Q1356.2 716.451 1358.01 712.91 Q1359.84 709.345 1359.84 702.238 Q1359.84 695.109 1358.01 691.567 Q1356.2 688.002 1352.57 688.002 M1352.57 684.299 Q1358.38 684.299 1361.44 688.905 Q1364.51 693.488 1364.51 702.238 Q1364.51 710.965 1361.44 715.572 Q1358.38 720.155 1352.57 720.155 Q1346.76 720.155 1343.68 715.572 Q1340.63 710.965 1340.63 702.238 Q1340.63 693.488 1343.68 688.905 Q1346.76 684.299 1352.57 684.299 Z" fill="#000000" fill-rule="nonzero" fill-opacity="1" /><path clip-path="url(#clip330)" d="M1372.73 713.604 L1377.62 713.604 L1377.62 719.484 L1372.73 719.484 L1372.73 713.604 Z" fill="#000000" fill-rule="nonzero" fill-opacity="1" /><path clip-path="url(#clip330)" d="M1398.38 700.34 Q1395.23 700.34 1393.38 702.493 Q1391.55 704.646 1391.55 708.396 Q1391.55 712.123 1393.38 714.299 Q1395.23 716.451 1398.38 716.451 Q1401.53 716.451 1403.36 714.299 Q1405.21 712.123 1405.21 708.396 Q1405.21 704.646 1403.36 702.493 Q1401.53 700.34 1398.38 700.34 M1407.66 685.688 L1407.66 689.947 Q1405.9 689.114 1404.1 688.674 Q1402.32 688.234 1400.56 688.234 Q1395.93 688.234 1393.47 691.359 Q1391.04 694.484 1390.69 700.803 Q1392.06 698.789 1394.12 697.725 Q1396.18 696.637 1398.66 696.637 Q1403.87 696.637 1406.88 699.808 Q1409.91 702.956 1409.91 708.396 Q1409.91 713.72 1406.76 716.937 Q1403.61 720.155 1398.38 720.155 Q1392.38 720.155 1389.21 715.572 Q1386.04 710.965 1386.04 702.238 Q1386.04 694.044 1389.93 689.183 Q1393.82 684.299 1400.37 684.299 Q1402.13 684.299 1403.91 684.646 Q1405.72 684.993 1407.66 685.688 Z" fill="#000000" fill-rule="nonzero" fill-opacity="1" /><path clip-path="url(#clip330)" d="M1352.92 616.159 Q1349.31 616.159 1347.48 619.724 Q1345.67 623.266 1345.67 630.395 Q1345.67 637.502 1347.48 641.066 Q1349.31 644.608 1352.92 644.608 Q1356.55 644.608 1358.36 641.066 Q1360.19 637.502 1360.19 630.395 Q1360.19 623.266 1358.36 619.724 Q1356.55 616.159 1352.92 616.159 M1352.92 612.455 Q1358.73 612.455 1361.78 617.062 Q1364.86 621.645 1364.86 630.395 Q1364.86 639.122 1361.78 643.728 Q1358.73 648.312 1352.92 648.312 Q1347.11 648.312 1344.03 643.728 Q1340.97 639.122 1340.97 630.395 Q1340.97 621.645 1344.03 617.062 Q1347.11 612.455 1352.92 612.455 Z" fill="#000000" fill-rule="nonzero" fill-opacity="1" /><path clip-path="url(#clip330)" d="M1373.08 641.761 L1377.96 641.761 L1377.96 647.64 L1373.08 647.64 L1373.08 641.761 Z" fill="#000000" fill-rule="nonzero" fill-opacity="1" /><path clip-path="url(#clip330)" d="M1388.29 646.923 L1388.29 642.664 Q1390.05 643.497 1391.85 643.937 Q1393.66 644.377 1395.39 644.377 Q1400.02 644.377 1402.45 641.275 Q1404.91 638.15 1405.26 631.807 Q1403.91 633.798 1401.85 634.863 Q1399.79 635.928 1397.29 635.928 Q1392.11 635.928 1389.07 632.803 Q1386.07 629.654 1386.07 624.215 Q1386.07 618.891 1389.21 615.673 Q1392.36 612.455 1397.59 612.455 Q1403.59 612.455 1406.74 617.062 Q1409.91 621.645 1409.91 630.395 Q1409.91 638.566 1406.02 643.451 Q1402.15 648.312 1395.6 648.312 Q1393.84 648.312 1392.04 647.965 Q1390.23 647.617 1388.29 646.923 M1397.59 632.27 Q1400.74 632.27 1402.57 630.117 Q1404.42 627.965 1404.42 624.215 Q1404.42 620.488 1402.57 618.335 Q1400.74 616.159 1397.59 616.159 Q1394.44 616.159 1392.59 618.335 Q1390.76 620.488 1390.76 624.215 Q1390.76 627.965 1392.59 630.117 Q1394.44 632.27 1397.59 632.27 Z" fill="#000000" fill-rule="nonzero" fill-opacity="1" /><path clip-path="url(#clip330)" d="M1265.64 831.559 Q1268.64 831.559 1274.44 833.072 Q1276.95 833.684 1279.23 834.522 Q1281.49 835.327 1283.68 836.518 Q1285.87 837.71 1287.45 839.095 Q1288.99 840.48 1289.96 842.283 Q1290.92 844.087 1290.92 846.084 Q1290.92 849.24 1289.06 851.108 Q1287.16 852.943 1283.9 853.523 Q1290.92 857.839 1290.92 863.604 Q1290.92 867.178 1288.38 868.853 Q1285.8 870.528 1281.49 870.528 Q1277.85 870.528 1274.08 869.562 Q1266.93 867.726 1261.94 864.151 Q1261.36 863.668 1261.36 862.959 Q1261.36 862.541 1261.49 862.347 Q1261.84 861.768 1262.42 861.768 Q1262.84 861.768 1263.26 862.09 Q1266.38 864.344 1269.06 865.826 Q1271.73 867.307 1274.44 867.984 Q1276.75 868.499 1278.72 868.499 Q1282.04 868.499 1284.1 867.082 Q1286.16 865.632 1286.16 862.766 Q1286.16 860.125 1284.52 857.806 Q1282.84 855.488 1280.04 853.781 Q1276.98 853.684 1274.08 852.943 Q1270.99 852.267 1270.99 850.689 Q1270.99 849.433 1272.7 849.433 Q1273.28 849.433 1274.44 849.691 Q1277.49 850.399 1280.23 851.687 Q1282.91 851.236 1284.55 849.562 Q1286.16 847.887 1286.16 845.214 Q1286.16 842.734 1284.35 840.544 Q1282.55 838.322 1279.91 836.905 Q1277.24 835.456 1274.08 834.65 Q1273.02 834.393 1271.67 834.393 Q1268.06 834.393 1265.84 836.905 Q1265.13 837.613 1264.19 837.613 Q1263.1 837.613 1262.1 836.712 Q1261.04 835.649 1261.04 834.393 Q1261.04 833.459 1261.62 832.879 Q1262.78 831.559 1265.64 831.559 Z" fill="#000000" fill-rule="nonzero" fill-opacity="1" /><path clip-path="url(#clip330)" d="M1240.72 788.989 Q1248.04 793.255 1255.2 795.323 Q1262.37 797.392 1269.72 797.392 Q1277.07 797.392 1284.3 795.323 Q1291.49 793.223 1298.78 788.989 L1298.78 794.082 Q1291.3 798.856 1284.07 801.243 Q1276.85 803.599 1269.72 803.599 Q1262.62 803.599 1255.43 801.243 Q1248.23 798.888 1240.72 794.082 L1240.72 788.989 Z" fill="#000000" fill-rule="nonzero" fill-opacity="1" /><path clip-path="url(#clip330)" d="M1260.01 756.97 Q1259.44 757.957 1259.18 759.134 Q1258.9 760.28 1258.9 761.681 Q1258.9 766.646 1262.14 769.319 Q1265.36 771.961 1271.41 771.961 L1290.18 771.961 L1290.18 777.85 L1254.54 777.85 L1254.54 771.961 L1260.07 771.961 Q1256.83 770.115 1255.27 767.155 Q1253.68 764.195 1253.68 759.962 Q1253.68 759.357 1253.77 758.625 Q1253.84 757.893 1254 757.002 L1260.01 756.97 Z" fill="#000000" fill-rule="nonzero" fill-opacity="1" /><path clip-path="url(#clip330)" d="M1272.26 734.626 Q1272.26 741.724 1273.89 744.461 Q1275.51 747.199 1279.43 747.199 Q1282.55 747.199 1284.39 745.162 Q1286.21 743.093 1286.21 739.56 Q1286.21 734.69 1282.77 731.762 Q1279.3 728.802 1273.57 728.802 L1272.26 728.802 L1272.26 734.626 M1269.85 722.945 L1290.18 722.945 L1290.18 728.802 L1284.77 728.802 Q1288.02 730.807 1289.58 733.799 Q1291.11 736.791 1291.11 741.119 Q1291.11 746.594 1288.05 749.84 Q1284.96 753.055 1279.81 753.055 Q1273.79 753.055 1270.74 749.045 Q1267.68 745.002 1267.68 737.013 L1267.68 728.802 L1267.11 728.802 Q1263.07 728.802 1260.87 731.475 Q1258.64 734.117 1258.64 738.923 Q1258.64 741.979 1259.37 744.875 Q1260.11 747.772 1261.57 750.445 L1256.16 750.445 Q1254.92 747.23 1254.31 744.207 Q1253.68 741.183 1253.68 738.318 Q1253.68 730.584 1257.69 726.765 Q1261.7 722.945 1269.85 722.945 Z" fill="#000000" fill-rule="nonzero" fill-opacity="1" /><path clip-path="url(#clip330)" d="M1259.95 687.425 L1240.66 687.425 L1240.66 681.568 L1290.18 681.568 L1290.18 687.425 L1284.84 687.425 Q1288.02 689.271 1289.58 692.103 Q1291.11 694.904 1291.11 698.851 Q1291.11 705.312 1285.95 709.386 Q1280.79 713.429 1272.39 713.429 Q1263.99 713.429 1258.83 709.386 Q1253.68 705.312 1253.68 698.851 Q1253.68 694.904 1255.24 692.103 Q1256.76 689.271 1259.95 687.425 M1272.39 707.381 Q1278.85 707.381 1282.55 704.739 Q1286.21 702.066 1286.21 697.419 Q1286.21 692.772 1282.55 690.098 Q1278.85 687.425 1272.39 687.425 Q1265.93 687.425 1262.27 690.098 Q1258.58 692.772 1258.58 697.419 Q1258.58 702.066 1262.27 704.739 Q1265.93 707.381 1272.39 707.381 Z" fill="#000000" fill-rule="nonzero" fill-opacity="1" /><path clip-path="url(#clip330)" d="M1242.66 659.097 L1242.66 653.686 L1296.23 670.237 L1296.23 675.648 L1242.66 659.097 Z" fill="#000000" fill-rule="nonzero" fill-opacity="1" /><path clip-path="url(#clip330)" d="M1255.59 624.818 L1261.12 624.818 Q1259.85 627.301 1259.21 629.974 Q1258.58 632.648 1258.58 635.512 Q1258.58 639.873 1259.92 642.069 Q1261.25 644.233 1263.93 644.233 Q1265.96 644.233 1267.14 642.674 Q1268.29 641.114 1269.34 636.404 L1269.78 634.398 Q1271.12 628.16 1273.57 625.55 Q1275.99 622.908 1280.35 622.908 Q1285.31 622.908 1288.21 626.855 Q1291.11 630.77 1291.11 637.645 Q1291.11 640.509 1290.53 643.629 Q1289.99 646.716 1288.88 650.153 L1282.83 650.153 Q1284.52 646.907 1285.38 643.756 Q1286.21 640.605 1286.21 637.517 Q1286.21 633.38 1284.81 631.152 Q1283.37 628.924 1280.79 628.924 Q1278.41 628.924 1277.13 630.547 Q1275.86 632.138 1274.68 637.581 L1274.21 639.618 Q1273.06 645.061 1270.71 647.48 Q1268.32 649.899 1264.18 649.899 Q1259.15 649.899 1256.41 646.334 Q1253.68 642.769 1253.68 636.213 Q1253.68 632.966 1254.15 630.101 Q1254.63 627.237 1255.59 624.818 Z" fill="#000000" fill-rule="nonzero" fill-opacity="1" /><path clip-path="url(#clip330)" d="M1240.72 614.505 L1240.72 609.413 Q1248.23 604.639 1255.43 602.283 Q1262.62 599.896 1269.72 599.896 Q1276.85 599.896 1284.07 602.283 Q1291.3 604.639 1298.78 609.413 L1298.78 614.505 Q1291.49 610.272 1284.3 608.203 Q1277.07 606.103 1269.72 606.103 Q1262.37 606.103 1255.2 608.203 Q1248.04 610.272 1240.72 614.505 Z" fill="#000000" fill-rule="nonzero" fill-opacity="1" /><polyline clip-path="url(#clip334)" style="stroke:#009af9; stroke-linecap:round; stroke-linejoin:round; stroke-width:4; stroke-opacity:1; fill:none" points="1471.57,845.89 1496.74,657.342 1521.9,578.486 1547.06,580.576 1572.22,630.334 1597.38,698.762 1622.55,765.614 1647.71,819.696 1672.87,856.868 1698.03,877.597 1723.2,884.881 1748.36,882.746 1773.52,875.206 1798.68,865.633 1823.85,856.443 1849.01,849.054 1874.17,844.027 1899.33,841.297 1924.49,840.431 1949.66,840.843 1974.82,841.96 1999.98,843.311 2025.14,844.573 2050.31,845.564 2075.47,846.222 2100.63,846.564 2125.79,846.656 2150.95,846.58 2176.12,846.416 2201.28,846.227 2226.44,846.054 2251.6,845.921 2276.77,845.835 2301.93,845.792 2327.09,845.783 "/>
<polyline clip-path="url(#clip334)" style="stroke:#e26f46; stroke-linecap:round; stroke-linejoin:round; stroke-width:3; stroke-opacity:1; fill:none" stroke-dasharray="12, 6, 2, 6" points="1471.57,845.89 1496.74,666.495 1521.9,580.539 1547.06,569.435 1572.22,636.215 1597.38,693.672 1622.55,765.743 1647.71,835.618 1672.87,867.822 1698.03,900.989 1723.2,896.253 1748.36,887.095 1773.52,896.185 1798.68,870.454 1823.85,862.022 1849.01,848.152 1874.17,847.21 1899.33,854.207 1924.49,833.967 1949.66,835.075 1974.82,844.485 1999.98,832.789 2025.14,850.377 2050.31,853.391 2075.47,834.089 2100.63,836.711 2125.79,853.072 2150.95,865.093 2176.12,858.629 2201.28,844.931 2226.44,843.606 2251.6,835.866 2276.77,841.066 2301.93,844.043 2327.09,852.227 "/>
<path clip-path="url(#clip330)" d="M2203.01 726.723 L2322.53 726.723 L2322.53 571.203 L2203.01 571.203  Z" fill="#ffffff" fill-rule="evenodd" fill-opacity="1"/>
<polyline clip-path="url(#clip330)" style="stroke:#000000; stroke-linecap:round; stroke-linejoin:round; stroke-width:4; stroke-opacity:1; fill:none" points="2203.01,726.723 2322.53,726.723 2322.53,571.203 2203.01,571.203 2203.01,726.723 "/>
<polyline clip-path="url(#clip330)" style="stroke:#009af9; stroke-linecap:round; stroke-linejoin:round; stroke-width:4; stroke-opacity:1; fill:none" points="2213.09,623.043 2273.55,623.043 "/>
<path clip-path="url(#clip330)" d="M2310.63 633.582 L2305.36 633.442 L2299.6 633.582 L2299.6 631.334 L2301.47 631.334 L2296.2 625.103 L2291.54 630.326 L2291.21 630.795 Q2291.21 631.006 2291.75 631.17 Q2292.31 631.334 2292.97 631.334 L2292.97 633.582 L2288.03 633.442 L2283.62 633.582 L2283.62 631.334 Q2285.1 631.334 2285.78 631.31 Q2286.48 631.263 2287.28 631.052 Q2288.07 630.842 2288.47 630.42 L2294.75 623.37 L2287.28 614.54 L2283.86 614.54 L2283.86 612.291 L2289.15 612.432 L2294.94 612.291 L2294.94 614.54 L2293.01 614.54 L2297.72 620.044 L2301.75 615.547 Q2301.77 615.523 2302.15 614.961 Q2301.4 614.54 2300.32 614.54 L2300.32 612.291 L2305.26 612.432 L2309.67 612.291 L2309.67 614.54 Q2307.75 614.54 2306.74 614.68 Q2305.76 614.797 2305.45 614.961 Q2305.17 615.125 2304.77 615.547 L2299.17 621.777 L2307.23 631.334 L2310.63 631.334 L2310.63 633.582 Z" fill="#000000" fill-rule="nonzero" fill-opacity="1" /><polyline clip-path="url(#clip330)" style="stroke:#e26f46; stroke-linecap:round; stroke-linejoin:round; stroke-width:3; stroke-opacity:1; fill:none" stroke-dasharray="12, 6, 2, 6" points="2213.09,674.883 2273.55,674.883 "/>
<path clip-path="url(#clip330)" d="M2306.21 663.361 L2305.8 664.033 Q2303.26 662.935 2300.09 661.18 Q2296.93 662.935 2294.39 664.033 L2293.99 663.361 Q2296.76 660.951 2300.09 659.098 Q2303.45 660.967 2306.21 663.361 Z" fill="#000000" fill-rule="nonzero" fill-opacity="1" /><path clip-path="url(#clip330)" d="M2310.63 690.427 L2305.36 690.286 L2299.6 690.427 L2299.6 688.178 L2301.47 688.178 L2296.2 681.948 L2291.54 687.171 L2291.21 687.639 Q2291.21 687.85 2291.75 688.014 Q2292.31 688.178 2292.97 688.178 L2292.97 690.427 L2288.03 690.286 L2283.62 690.427 L2283.62 688.178 Q2285.1 688.178 2285.78 688.155 Q2286.48 688.108 2287.28 687.897 Q2288.07 687.686 2288.47 687.265 L2294.75 680.214 L2287.28 671.384 L2283.86 671.384 L2283.86 669.136 L2289.15 669.276 L2294.94 669.136 L2294.94 671.384 L2293.01 671.384 L2297.72 676.888 L2301.75 672.391 Q2301.77 672.368 2302.15 671.806 Q2301.4 671.384 2300.32 671.384 L2300.32 669.136 L2305.26 669.276 L2309.67 669.136 L2309.67 671.384 Q2307.75 671.384 2306.74 671.525 Q2305.76 671.642 2305.45 671.806 Q2305.17 671.97 2304.77 672.391 L2299.17 678.622 L2307.23 688.178 L2310.63 688.178 L2310.63 690.427 Z" fill="#000000" fill-rule="nonzero" fill-opacity="1" /><path clip-path="url(#clip330)" d="M1445.91 1423.18 L2352.76 1423.18 L2352.76 1071.73 L1445.91 1071.73  Z" fill="#ffffff" fill-rule="evenodd" fill-opacity="1"/>
<defs>
  <clipPath id="clip335">
    <rect x="1445" y="1071" width="908" height="352"/>
  </clipPath>
</defs>
<polyline clip-path="url(#clip335)" style="stroke:#000000; stroke-linecap:round; stroke-linejoin:round; stroke-width:2; stroke-opacity:0.1; fill:none" points="1471.57,1423.18 1471.57,1071.73 "/>
<polyline clip-path="url(#clip335)" style="stroke:#000000; stroke-linecap:round; stroke-linejoin:round; stroke-width:2; stroke-opacity:0.1; fill:none" points="1723.2,1423.18 1723.2,1071.73 "/>
<polyline clip-path="url(#clip335)" style="stroke:#000000; stroke-linecap:round; stroke-linejoin:round; stroke-width:2; stroke-opacity:0.1; fill:none" points="1974.82,1423.18 1974.82,1071.73 "/>
<polyline clip-path="url(#clip335)" style="stroke:#000000; stroke-linecap:round; stroke-linejoin:round; stroke-width:2; stroke-opacity:0.1; fill:none" points="2226.44,1423.18 2226.44,1071.73 "/>
<polyline clip-path="url(#clip335)" style="stroke:#000000; stroke-linecap:round; stroke-linejoin:round; stroke-width:2; stroke-opacity:0.1; fill:none" points="1445.91,1420.84 2352.76,1420.84 "/>
<polyline clip-path="url(#clip335)" style="stroke:#000000; stroke-linecap:round; stroke-linejoin:round; stroke-width:2; stroke-opacity:0.1; fill:none" points="1445.91,1360.15 2352.76,1360.15 "/>
<polyline clip-path="url(#clip335)" style="stroke:#000000; stroke-linecap:round; stroke-linejoin:round; stroke-width:2; stroke-opacity:0.1; fill:none" points="1445.91,1299.45 2352.76,1299.45 "/>
<polyline clip-path="url(#clip335)" style="stroke:#000000; stroke-linecap:round; stroke-linejoin:round; stroke-width:2; stroke-opacity:0.1; fill:none" points="1445.91,1238.75 2352.76,1238.75 "/>
<polyline clip-path="url(#clip335)" style="stroke:#000000; stroke-linecap:round; stroke-linejoin:round; stroke-width:2; stroke-opacity:0.1; fill:none" points="1445.91,1178.05 2352.76,1178.05 "/>
<polyline clip-path="url(#clip335)" style="stroke:#000000; stroke-linecap:round; stroke-linejoin:round; stroke-width:2; stroke-opacity:0.1; fill:none" points="1445.91,1117.35 2352.76,1117.35 "/>
<polyline clip-path="url(#clip330)" style="stroke:#000000; stroke-linecap:round; stroke-linejoin:round; stroke-width:4; stroke-opacity:1; fill:none" points="1445.91,1423.18 2352.76,1423.18 "/>
<polyline clip-path="url(#clip330)" style="stroke:#000000; stroke-linecap:round; stroke-linejoin:round; stroke-width:4; stroke-opacity:1; fill:none" points="1471.57,1423.18 1471.57,1404.28 "/>
<polyline clip-path="url(#clip330)" style="stroke:#000000; stroke-linecap:round; stroke-linejoin:round; stroke-width:4; stroke-opacity:1; fill:none" points="1723.2,1423.18 1723.2,1404.28 "/>
<polyline clip-path="url(#clip330)" style="stroke:#000000; stroke-linecap:round; stroke-linejoin:round; stroke-width:4; stroke-opacity:1; fill:none" points="1974.82,1423.18 1974.82,1404.28 "/>
<polyline clip-path="url(#clip330)" style="stroke:#000000; stroke-linecap:round; stroke-linejoin:round; stroke-width:4; stroke-opacity:1; fill:none" points="2226.44,1423.18 2226.44,1404.28 "/>
<path clip-path="url(#clip330)" d="M1471.57 1454.1 Q1467.96 1454.1 1466.13 1457.66 Q1464.33 1461.2 1464.33 1468.33 Q1464.33 1475.44 1466.13 1479.01 Q1467.96 1482.55 1471.57 1482.55 Q1475.21 1482.55 1477.01 1479.01 Q1478.84 1475.44 1478.84 1468.33 Q1478.84 1461.2 1477.01 1457.66 Q1475.21 1454.1 1471.57 1454.1 M1471.57 1450.39 Q1477.38 1450.39 1480.44 1455 Q1483.52 1459.58 1483.52 1468.33 Q1483.52 1477.06 1480.44 1481.67 Q1477.38 1486.25 1471.57 1486.25 Q1465.76 1486.25 1462.68 1481.67 Q1459.63 1477.06 1459.63 1468.33 Q1459.63 1459.58 1462.68 1455 Q1465.76 1450.39 1471.57 1450.39 Z" fill="#000000" fill-rule="nonzero" fill-opacity="1" /><path clip-path="url(#clip330)" d="M1713.58 1481.64 L1721.22 1481.64 L1721.22 1455.28 L1712.91 1456.95 L1712.91 1452.69 L1721.17 1451.02 L1725.85 1451.02 L1725.85 1481.64 L1733.49 1481.64 L1733.49 1485.58 L1713.58 1485.58 L1713.58 1481.64 Z" fill="#000000" fill-rule="nonzero" fill-opacity="1" /><path clip-path="url(#clip330)" d="M1969.47 1481.64 L1985.79 1481.64 L1985.79 1485.58 L1963.85 1485.58 L1963.85 1481.64 Q1966.51 1478.89 1971.09 1474.26 Q1975.7 1469.61 1976.88 1468.27 Q1979.12 1465.74 1980 1464.01 Q1980.91 1462.25 1980.91 1460.56 Q1980.91 1457.8 1978.96 1456.07 Q1977.04 1454.33 1973.94 1454.33 Q1971.74 1454.33 1969.29 1455.09 Q1966.86 1455.86 1964.08 1457.41 L1964.08 1452.69 Q1966.9 1451.55 1969.36 1450.97 Q1971.81 1450.39 1973.85 1450.39 Q1979.22 1450.39 1982.41 1453.08 Q1985.61 1455.77 1985.61 1460.26 Q1985.61 1462.39 1984.8 1464.31 Q1984.01 1466.2 1981.9 1468.8 Q1981.32 1469.47 1978.22 1472.69 Q1975.12 1475.88 1969.47 1481.64 Z" fill="#000000" fill-rule="nonzero" fill-opacity="1" /><path clip-path="url(#clip330)" d="M2230.69 1466.95 Q2234.05 1467.66 2235.92 1469.93 Q2237.82 1472.2 2237.82 1475.53 Q2237.82 1480.65 2234.3 1483.45 Q2230.78 1486.25 2224.3 1486.25 Q2222.12 1486.25 2219.81 1485.81 Q2217.52 1485.39 2215.06 1484.54 L2215.06 1480.02 Q2217.01 1481.16 2219.32 1481.74 Q2221.64 1482.32 2224.16 1482.32 Q2228.56 1482.32 2230.85 1480.58 Q2233.17 1478.84 2233.17 1475.53 Q2233.17 1472.48 2231.01 1470.77 Q2228.88 1469.03 2225.06 1469.03 L2221.04 1469.03 L2221.04 1465.19 L2225.25 1465.19 Q2228.7 1465.19 2230.53 1463.82 Q2232.36 1462.43 2232.36 1459.84 Q2232.36 1457.18 2230.46 1455.77 Q2228.58 1454.33 2225.06 1454.33 Q2223.14 1454.33 2220.94 1454.75 Q2218.74 1455.16 2216.11 1456.04 L2216.11 1451.88 Q2218.77 1451.14 2221.08 1450.77 Q2223.42 1450.39 2225.48 1450.39 Q2230.8 1450.39 2233.91 1452.83 Q2237.01 1455.23 2237.01 1459.35 Q2237.01 1462.22 2235.36 1464.21 Q2233.72 1466.18 2230.69 1466.95 Z" fill="#000000" fill-rule="nonzero" fill-opacity="1" /><path clip-path="url(#clip330)" d="M1769.5 1520.52 L1809.7 1520.52 L1809.7 1525.93 L1792.83 1525.93 L1792.83 1568.04 L1786.37 1568.04 L1786.37 1525.93 L1769.5 1525.93 L1769.5 1520.52 Z" fill="#000000" fill-rule="nonzero" fill-opacity="1" /><path clip-path="url(#clip330)" d="M1813.65 1532.4 L1819.51 1532.4 L1819.51 1568.04 L1813.65 1568.04 L1813.65 1532.4 M1813.65 1518.52 L1819.51 1518.52 L1819.51 1525.93 L1813.65 1525.93 L1813.65 1518.52 Z" fill="#000000" fill-rule="nonzero" fill-opacity="1" /><path clip-path="url(#clip330)" d="M1859.51 1539.24 Q1861.71 1535.29 1864.77 1533.41 Q1867.82 1531.54 1871.96 1531.54 Q1877.53 1531.54 1880.55 1535.45 Q1883.58 1539.33 1883.58 1546.53 L1883.58 1568.04 L1877.69 1568.04 L1877.69 1546.72 Q1877.69 1541.59 1875.87 1539.11 Q1874.06 1536.63 1870.34 1536.63 Q1865.78 1536.63 1863.14 1539.65 Q1860.5 1542.68 1860.5 1547.9 L1860.5 1568.04 L1854.61 1568.04 L1854.61 1546.72 Q1854.61 1541.56 1852.8 1539.11 Q1850.98 1536.63 1847.2 1536.63 Q1842.71 1536.63 1840.07 1539.68 Q1837.43 1542.71 1837.43 1547.9 L1837.43 1568.04 L1831.54 1568.04 L1831.54 1532.4 L1837.43 1532.4 L1837.43 1537.93 Q1839.43 1534.66 1842.23 1533.1 Q1845.03 1531.54 1848.88 1531.54 Q1852.77 1531.54 1855.47 1533.51 Q1858.21 1535.48 1859.51 1539.24 Z" fill="#000000" fill-rule="nonzero" fill-opacity="1" /><path clip-path="url(#clip330)" d="M1925.75 1548.76 L1925.75 1551.62 L1898.82 1551.62 Q1899.2 1557.67 1902.45 1560.85 Q1905.73 1564 1911.55 1564 Q1914.93 1564 1918.08 1563.17 Q1921.26 1562.35 1924.38 1560.69 L1924.38 1566.23 Q1921.23 1567.57 1917.92 1568.27 Q1914.61 1568.97 1911.2 1568.97 Q1902.67 1568.97 1897.68 1564 Q1892.71 1559.04 1892.71 1550.57 Q1892.71 1541.82 1897.42 1536.69 Q1902.16 1531.54 1910.19 1531.54 Q1917.38 1531.54 1921.55 1536.18 Q1925.75 1540.8 1925.75 1548.76 M1919.89 1547.04 Q1919.83 1542.23 1917.19 1539.37 Q1914.58 1536.5 1910.25 1536.5 Q1905.35 1536.5 1902.39 1539.27 Q1899.46 1542.04 1899.01 1547.07 L1919.89 1547.04 Z" fill="#000000" fill-rule="nonzero" fill-opacity="1" /><path clip-path="url(#clip330)" d="M1970.15 1518.58 Q1965.89 1525.9 1963.82 1533.06 Q1961.75 1540.23 1961.75 1547.58 Q1961.75 1554.93 1963.82 1562.16 Q1965.92 1569.35 1970.15 1576.64 L1965.06 1576.64 Q1960.28 1569.16 1957.9 1561.93 Q1955.54 1554.71 1955.54 1547.58 Q1955.54 1540.48 1957.9 1533.29 Q1960.25 1526.09 1965.06 1518.58 L1970.15 1518.58 Z" fill="#000000" fill-rule="nonzero" fill-opacity="1" /><path clip-path="url(#clip330)" d="M2004.24 1533.45 L2004.24 1538.98 Q2001.76 1537.71 1999.08 1537.07 Q1996.41 1536.44 1993.54 1536.44 Q1989.18 1536.44 1986.99 1537.77 Q1984.82 1539.11 1984.82 1541.79 Q1984.82 1543.82 1986.38 1545 Q1987.94 1546.15 1992.65 1547.2 L1994.66 1547.64 Q2000.9 1548.98 2003.51 1551.43 Q2006.15 1553.85 2006.15 1558.21 Q2006.15 1563.17 2002.2 1566.07 Q1998.29 1568.97 1991.41 1568.97 Q1988.55 1568.97 1985.43 1568.39 Q1982.34 1567.85 1978.9 1566.74 L1978.9 1560.69 Q1982.15 1562.38 1985.3 1563.24 Q1988.45 1564.07 1991.54 1564.07 Q1995.68 1564.07 1997.9 1562.66 Q2000.13 1561.23 2000.13 1558.65 Q2000.13 1556.27 1998.51 1554.99 Q1996.92 1553.72 1991.48 1552.54 L1989.44 1552.07 Q1984 1550.92 1981.58 1548.56 Q1979.16 1546.18 1979.16 1542.04 Q1979.16 1537.01 1982.72 1534.27 Q1986.29 1531.54 1992.84 1531.54 Q1996.09 1531.54 1998.96 1532.01 Q2001.82 1532.49 2004.24 1533.45 Z" fill="#000000" fill-rule="nonzero" fill-opacity="1" /><path clip-path="url(#clip330)" d="M2014.55 1518.58 L2019.64 1518.58 Q2024.42 1526.09 2026.77 1533.29 Q2029.16 1540.48 2029.16 1547.58 Q2029.16 1554.71 2026.77 1561.93 Q2024.42 1569.16 2019.64 1576.64 L2014.55 1576.64 Q2018.78 1569.35 2020.85 1562.16 Q2022.95 1554.93 2022.95 1547.58 Q2022.95 1540.23 2020.85 1533.06 Q2018.78 1525.9 2014.55 1518.58 Z" fill="#000000" fill-rule="nonzero" fill-opacity="1" /><polyline clip-path="url(#clip330)" style="stroke:#000000; stroke-linecap:round; stroke-linejoin:round; stroke-width:4; stroke-opacity:1; fill:none" points="1445.91,1423.18 1445.91,1071.73 "/>
<polyline clip-path="url(#clip330)" style="stroke:#000000; stroke-linecap:round; stroke-linejoin:round; stroke-width:4; stroke-opacity:1; fill:none" points="1445.91,1420.84 1464.81,1420.84 "/>
<polyline clip-path="url(#clip330)" style="stroke:#000000; stroke-linecap:round; stroke-linejoin:round; stroke-width:4; stroke-opacity:1; fill:none" points="1445.91,1360.15 1464.81,1360.15 "/>
<polyline clip-path="url(#clip330)" style="stroke:#000000; stroke-linecap:round; stroke-linejoin:round; stroke-width:4; stroke-opacity:1; fill:none" points="1445.91,1299.45 1464.81,1299.45 "/>
<polyline clip-path="url(#clip330)" style="stroke:#000000; stroke-linecap:round; stroke-linejoin:round; stroke-width:4; stroke-opacity:1; fill:none" points="1445.91,1238.75 1464.81,1238.75 "/>
<polyline clip-path="url(#clip330)" style="stroke:#000000; stroke-linecap:round; stroke-linejoin:round; stroke-width:4; stroke-opacity:1; fill:none" points="1445.91,1178.05 1464.81,1178.05 "/>
<polyline clip-path="url(#clip330)" style="stroke:#000000; stroke-linecap:round; stroke-linejoin:round; stroke-width:4; stroke-opacity:1; fill:none" points="1445.91,1117.35 1464.81,1117.35 "/>
<path clip-path="url(#clip330)" d="M1273.8 1421.3 L1303.47 1421.3 L1303.47 1425.23 L1273.8 1425.23 L1273.8 1421.3 Z" fill="#000000" fill-rule="nonzero" fill-opacity="1" /><path clip-path="url(#clip330)" d="M1323.57 1406.64 Q1319.95 1406.64 1318.13 1410.21 Q1316.32 1413.75 1316.32 1420.88 Q1316.32 1427.98 1318.13 1431.55 Q1319.95 1435.09 1323.57 1435.09 Q1327.2 1435.09 1329.01 1431.55 Q1330.83 1427.98 1330.83 1420.88 Q1330.83 1413.75 1329.01 1410.21 Q1327.2 1406.64 1323.57 1406.64 M1323.57 1402.94 Q1329.38 1402.94 1332.43 1407.55 Q1335.51 1412.13 1335.51 1420.88 Q1335.51 1429.61 1332.43 1434.21 Q1329.38 1438.8 1323.57 1438.8 Q1317.76 1438.8 1314.68 1434.21 Q1311.62 1429.61 1311.62 1420.88 Q1311.62 1412.13 1314.68 1407.55 Q1317.76 1402.94 1323.57 1402.94 Z" fill="#000000" fill-rule="nonzero" fill-opacity="1" /><path clip-path="url(#clip330)" d="M1343.73 1432.24 L1348.61 1432.24 L1348.61 1438.12 L1343.73 1438.12 L1343.73 1432.24 Z" fill="#000000" fill-rule="nonzero" fill-opacity="1" /><path clip-path="url(#clip330)" d="M1368.8 1406.64 Q1365.19 1406.64 1363.36 1410.21 Q1361.55 1413.75 1361.55 1420.88 Q1361.55 1427.98 1363.36 1431.55 Q1365.19 1435.09 1368.8 1435.09 Q1372.43 1435.09 1374.24 1431.55 Q1376.07 1427.98 1376.07 1420.88 Q1376.07 1413.75 1374.24 1410.21 Q1372.43 1406.64 1368.8 1406.64 M1368.8 1402.94 Q1374.61 1402.94 1377.66 1407.55 Q1380.74 1412.13 1380.74 1420.88 Q1380.74 1429.61 1377.66 1434.21 Q1374.61 1438.8 1368.8 1438.8 Q1362.99 1438.8 1359.91 1434.21 Q1356.85 1429.61 1356.85 1420.88 Q1356.85 1412.13 1359.91 1407.55 Q1362.99 1402.94 1368.8 1402.94 Z" fill="#000000" fill-rule="nonzero" fill-opacity="1" /><path clip-path="url(#clip330)" d="M1389.01 1403.56 L1407.36 1403.56 L1407.36 1407.5 L1393.29 1407.5 L1393.29 1415.97 Q1394.31 1415.62 1395.32 1415.46 Q1396.34 1415.28 1397.36 1415.28 Q1403.15 1415.28 1406.53 1418.45 Q1409.91 1421.62 1409.91 1427.04 Q1409.91 1432.61 1406.44 1435.72 Q1402.96 1438.8 1396.64 1438.8 Q1394.47 1438.8 1392.2 1438.42 Q1389.95 1438.05 1387.55 1437.31 L1387.55 1432.61 Q1389.63 1433.75 1391.85 1434.3 Q1394.07 1434.86 1396.55 1434.86 Q1400.56 1434.86 1402.89 1432.75 Q1405.23 1430.65 1405.23 1427.04 Q1405.23 1423.42 1402.89 1421.32 Q1400.56 1419.21 1396.55 1419.21 Q1394.68 1419.21 1392.8 1419.63 Q1390.95 1420.05 1389.01 1420.92 L1389.01 1403.56 Z" fill="#000000" fill-rule="nonzero" fill-opacity="1" /><path clip-path="url(#clip330)" d="M1272.32 1360.6 L1301.99 1360.6 L1301.99 1364.53 L1272.32 1364.53 L1272.32 1360.6 Z" fill="#000000" fill-rule="nonzero" fill-opacity="1" /><path clip-path="url(#clip330)" d="M1322.08 1345.94 Q1318.47 1345.94 1316.64 1349.51 Q1314.84 1353.05 1314.84 1360.18 Q1314.84 1367.29 1316.64 1370.85 Q1318.47 1374.39 1322.08 1374.39 Q1325.72 1374.39 1327.52 1370.85 Q1329.35 1367.29 1329.35 1360.18 Q1329.35 1353.05 1327.52 1349.51 Q1325.72 1345.94 1322.08 1345.94 M1322.08 1342.24 Q1327.89 1342.24 1330.95 1346.85 Q1334.03 1351.43 1334.03 1360.18 Q1334.03 1368.91 1330.95 1373.51 Q1327.89 1378.1 1322.08 1378.1 Q1316.27 1378.1 1313.2 1373.51 Q1310.14 1368.91 1310.14 1360.18 Q1310.14 1351.43 1313.2 1346.85 Q1316.27 1342.24 1322.08 1342.24 Z" fill="#000000" fill-rule="nonzero" fill-opacity="1" /><path clip-path="url(#clip330)" d="M1342.25 1371.55 L1347.13 1371.55 L1347.13 1377.43 L1342.25 1377.43 L1342.25 1371.55 Z" fill="#000000" fill-rule="nonzero" fill-opacity="1" /><path clip-path="url(#clip330)" d="M1367.32 1345.94 Q1363.7 1345.94 1361.88 1349.51 Q1360.07 1353.05 1360.07 1360.18 Q1360.07 1367.29 1361.88 1370.85 Q1363.7 1374.39 1367.32 1374.39 Q1370.95 1374.39 1372.76 1370.85 Q1374.58 1367.29 1374.58 1360.18 Q1374.58 1353.05 1372.76 1349.51 Q1370.95 1345.94 1367.32 1345.94 M1367.32 1342.24 Q1373.13 1342.24 1376.18 1346.85 Q1379.26 1351.43 1379.26 1360.18 Q1379.26 1368.91 1376.18 1373.51 Q1373.13 1378.1 1367.32 1378.1 Q1361.51 1378.1 1358.43 1373.51 Q1355.37 1368.91 1355.37 1360.18 Q1355.37 1351.43 1358.43 1346.85 Q1361.51 1342.24 1367.32 1342.24 Z" fill="#000000" fill-rule="nonzero" fill-opacity="1" /><path clip-path="url(#clip330)" d="M1400.32 1346.94 L1388.52 1365.39 L1400.32 1365.39 L1400.32 1346.94 M1399.1 1342.87 L1404.98 1342.87 L1404.98 1365.39 L1409.91 1365.39 L1409.91 1369.28 L1404.98 1369.28 L1404.98 1377.43 L1400.32 1377.43 L1400.32 1369.28 L1384.72 1369.28 L1384.72 1364.76 L1399.1 1342.87 Z" fill="#000000" fill-rule="nonzero" fill-opacity="1" /><path clip-path="url(#clip330)" d="M1273.45 1299.9 L1303.13 1299.9 L1303.13 1303.83 L1273.45 1303.83 L1273.45 1299.9 Z" fill="#000000" fill-rule="nonzero" fill-opacity="1" /><path clip-path="url(#clip330)" d="M1323.22 1285.25 Q1319.61 1285.25 1317.78 1288.81 Q1315.97 1292.35 1315.97 1299.48 Q1315.97 1306.59 1317.78 1310.15 Q1319.61 1313.69 1323.22 1313.69 Q1326.85 1313.69 1328.66 1310.15 Q1330.49 1306.59 1330.49 1299.48 Q1330.49 1292.35 1328.66 1288.81 Q1326.85 1285.25 1323.22 1285.25 M1323.22 1281.54 Q1329.03 1281.54 1332.08 1286.15 Q1335.16 1290.73 1335.16 1299.48 Q1335.16 1308.21 1332.08 1312.82 Q1329.03 1317.4 1323.22 1317.4 Q1317.41 1317.4 1314.33 1312.82 Q1311.27 1308.21 1311.27 1299.48 Q1311.27 1290.73 1314.33 1286.15 Q1317.41 1281.54 1323.22 1281.54 Z" fill="#000000" fill-rule="nonzero" fill-opacity="1" /><path clip-path="url(#clip330)" d="M1343.38 1310.85 L1348.26 1310.85 L1348.26 1316.73 L1343.38 1316.73 L1343.38 1310.85 Z" fill="#000000" fill-rule="nonzero" fill-opacity="1" /><path clip-path="url(#clip330)" d="M1368.45 1285.25 Q1364.84 1285.25 1363.01 1288.81 Q1361.2 1292.35 1361.2 1299.48 Q1361.2 1306.59 1363.01 1310.15 Q1364.84 1313.69 1368.45 1313.69 Q1372.08 1313.69 1373.89 1310.15 Q1375.72 1306.59 1375.72 1299.48 Q1375.72 1292.35 1373.89 1288.81 Q1372.08 1285.25 1368.45 1285.25 M1368.45 1281.54 Q1374.26 1281.54 1377.32 1286.15 Q1380.39 1290.73 1380.39 1299.48 Q1380.39 1308.21 1377.32 1312.82 Q1374.26 1317.4 1368.45 1317.4 Q1362.64 1317.4 1359.56 1312.82 Q1356.51 1308.21 1356.51 1299.48 Q1356.51 1290.73 1359.56 1286.15 Q1362.64 1281.54 1368.45 1281.54 Z" fill="#000000" fill-rule="nonzero" fill-opacity="1" /><path clip-path="url(#clip330)" d="M1402.78 1298.09 Q1406.13 1298.81 1408.01 1301.08 Q1409.91 1303.35 1409.91 1306.68 Q1409.91 1311.8 1406.39 1314.6 Q1402.87 1317.4 1396.39 1317.4 Q1394.21 1317.4 1391.9 1316.96 Q1389.61 1316.54 1387.15 1315.69 L1387.15 1311.17 Q1389.1 1312.31 1391.41 1312.88 Q1393.73 1313.46 1396.25 1313.46 Q1400.65 1313.46 1402.94 1311.73 Q1405.26 1309.99 1405.26 1306.68 Q1405.26 1303.63 1403.1 1301.91 Q1400.97 1300.18 1397.15 1300.18 L1393.13 1300.18 L1393.13 1296.33 L1397.34 1296.33 Q1400.79 1296.33 1402.62 1294.97 Q1404.44 1293.58 1404.44 1290.99 Q1404.44 1288.32 1402.55 1286.91 Q1400.67 1285.48 1397.15 1285.48 Q1395.23 1285.48 1393.03 1285.89 Q1390.83 1286.31 1388.19 1287.19 L1388.19 1283.02 Q1390.86 1282.28 1393.17 1281.91 Q1395.51 1281.54 1397.57 1281.54 Q1402.89 1281.54 1406 1283.97 Q1409.1 1286.38 1409.1 1290.5 Q1409.1 1293.37 1407.45 1295.36 Q1405.81 1297.33 1402.78 1298.09 Z" fill="#000000" fill-rule="nonzero" fill-opacity="1" /><path clip-path="url(#clip330)" d="M1274.4 1239.2 L1304.08 1239.2 L1304.08 1243.14 L1274.4 1243.14 L1274.4 1239.2 Z" fill="#000000" fill-rule="nonzero" fill-opacity="1" /><path clip-path="url(#clip330)" d="M1324.17 1224.55 Q1320.56 1224.55 1318.73 1228.11 Q1316.92 1231.65 1316.92 1238.78 Q1316.92 1245.89 1318.73 1249.46 Q1320.56 1253 1324.17 1253 Q1327.8 1253 1329.61 1249.46 Q1331.44 1245.89 1331.44 1238.78 Q1331.44 1231.65 1329.61 1228.11 Q1327.8 1224.55 1324.17 1224.55 M1324.17 1220.84 Q1329.98 1220.84 1333.03 1225.45 Q1336.11 1230.03 1336.11 1238.78 Q1336.11 1247.51 1333.03 1252.12 Q1329.98 1256.7 1324.17 1256.7 Q1318.36 1256.7 1315.28 1252.12 Q1312.22 1247.51 1312.22 1238.78 Q1312.22 1230.03 1315.28 1225.45 Q1318.36 1220.84 1324.17 1220.84 Z" fill="#000000" fill-rule="nonzero" fill-opacity="1" /><path clip-path="url(#clip330)" d="M1344.33 1250.15 L1349.21 1250.15 L1349.21 1256.03 L1344.33 1256.03 L1344.33 1250.15 Z" fill="#000000" fill-rule="nonzero" fill-opacity="1" /><path clip-path="url(#clip330)" d="M1369.4 1224.55 Q1365.79 1224.55 1363.96 1228.11 Q1362.15 1231.65 1362.15 1238.78 Q1362.15 1245.89 1363.96 1249.46 Q1365.79 1253 1369.4 1253 Q1373.03 1253 1374.84 1249.46 Q1376.67 1245.89 1376.67 1238.78 Q1376.67 1231.65 1374.84 1228.11 Q1373.03 1224.55 1369.4 1224.55 M1369.4 1220.84 Q1375.21 1220.84 1378.26 1225.45 Q1381.34 1230.03 1381.34 1238.78 Q1381.34 1247.51 1378.26 1252.12 Q1375.21 1256.7 1369.4 1256.7 Q1363.59 1256.7 1360.51 1252.12 Q1357.45 1247.51 1357.45 1238.78 Q1357.45 1230.03 1360.51 1225.45 Q1363.59 1220.84 1369.4 1220.84 Z" fill="#000000" fill-rule="nonzero" fill-opacity="1" /><path clip-path="url(#clip330)" d="M1393.59 1252.09 L1409.91 1252.09 L1409.91 1256.03 L1387.96 1256.03 L1387.96 1252.09 Q1390.63 1249.34 1395.21 1244.71 Q1399.82 1240.06 1401 1238.71 Q1403.24 1236.19 1404.12 1234.46 Q1405.02 1232.7 1405.02 1231.01 Q1405.02 1228.25 1403.08 1226.52 Q1401.16 1224.78 1398.06 1224.78 Q1395.86 1224.78 1393.4 1225.54 Q1390.97 1226.31 1388.19 1227.86 L1388.19 1223.14 Q1391.02 1222 1393.47 1221.42 Q1395.93 1220.84 1397.96 1220.84 Q1403.33 1220.84 1406.53 1223.53 Q1409.72 1226.21 1409.72 1230.71 Q1409.72 1232.83 1408.91 1234.76 Q1408.13 1236.65 1406.02 1239.25 Q1405.44 1239.92 1402.34 1243.14 Q1399.24 1246.33 1393.59 1252.09 Z" fill="#000000" fill-rule="nonzero" fill-opacity="1" /><path clip-path="url(#clip330)" d="M1274.03 1178.5 L1303.7 1178.5 L1303.7 1182.44 L1274.03 1182.44 L1274.03 1178.5 Z" fill="#000000" fill-rule="nonzero" fill-opacity="1" /><path clip-path="url(#clip330)" d="M1323.8 1163.85 Q1320.19 1163.85 1318.36 1167.41 Q1316.55 1170.96 1316.55 1178.09 Q1316.55 1185.19 1318.36 1188.76 Q1320.19 1192.3 1323.8 1192.3 Q1327.43 1192.3 1329.24 1188.76 Q1331.07 1185.19 1331.07 1178.09 Q1331.07 1170.96 1329.24 1167.41 Q1327.43 1163.85 1323.8 1163.85 M1323.8 1160.15 Q1329.61 1160.15 1332.66 1164.75 Q1335.74 1169.34 1335.74 1178.09 Q1335.74 1186.81 1332.66 1191.42 Q1329.61 1196 1323.8 1196 Q1317.99 1196 1314.91 1191.42 Q1311.85 1186.81 1311.85 1178.09 Q1311.85 1169.34 1314.91 1164.75 Q1317.99 1160.15 1323.8 1160.15 Z" fill="#000000" fill-rule="nonzero" fill-opacity="1" /><path clip-path="url(#clip330)" d="M1343.96 1189.45 L1348.84 1189.45 L1348.84 1195.33 L1343.96 1195.33 L1343.96 1189.45 Z" fill="#000000" fill-rule="nonzero" fill-opacity="1" /><path clip-path="url(#clip330)" d="M1369.03 1163.85 Q1365.42 1163.85 1363.59 1167.41 Q1361.78 1170.96 1361.78 1178.09 Q1361.78 1185.19 1363.59 1188.76 Q1365.42 1192.3 1369.03 1192.3 Q1372.66 1192.3 1374.47 1188.76 Q1376.3 1185.19 1376.3 1178.09 Q1376.3 1170.96 1374.47 1167.41 Q1372.66 1163.85 1369.03 1163.85 M1369.03 1160.15 Q1374.84 1160.15 1377.89 1164.75 Q1380.97 1169.34 1380.97 1178.09 Q1380.97 1186.81 1377.89 1191.42 Q1374.84 1196 1369.03 1196 Q1363.22 1196 1360.14 1191.42 Q1357.08 1186.81 1357.08 1178.09 Q1357.08 1169.34 1360.14 1164.75 Q1363.22 1160.15 1369.03 1160.15 Z" fill="#000000" fill-rule="nonzero" fill-opacity="1" /><path clip-path="url(#clip330)" d="M1390 1191.4 L1397.64 1191.4 L1397.64 1165.03 L1389.33 1166.7 L1389.33 1162.44 L1397.59 1160.77 L1402.27 1160.77 L1402.27 1191.4 L1409.91 1191.4 L1409.91 1195.33 L1390 1195.33 L1390 1191.4 Z" fill="#000000" fill-rule="nonzero" fill-opacity="1" /><path clip-path="url(#clip330)" d="M1322.57 1103.15 Q1318.96 1103.15 1317.13 1106.72 Q1315.32 1110.26 1315.32 1117.39 Q1315.32 1124.49 1317.13 1128.06 Q1318.96 1131.6 1322.57 1131.6 Q1326.2 1131.6 1328.01 1128.06 Q1329.84 1124.49 1329.84 1117.39 Q1329.84 1110.26 1328.01 1106.72 Q1326.2 1103.15 1322.57 1103.15 M1322.57 1099.45 Q1328.38 1099.45 1331.44 1104.05 Q1334.51 1108.64 1334.51 1117.39 Q1334.51 1126.11 1331.44 1130.72 Q1328.38 1135.3 1322.57 1135.3 Q1316.76 1135.3 1313.68 1130.72 Q1310.63 1126.11 1310.63 1117.39 Q1310.63 1108.64 1313.68 1104.05 Q1316.76 1099.45 1322.57 1099.45 Z" fill="#000000" fill-rule="nonzero" fill-opacity="1" /><path clip-path="url(#clip330)" d="M1342.73 1128.75 L1347.62 1128.75 L1347.62 1134.63 L1342.73 1134.63 L1342.73 1128.75 Z" fill="#000000" fill-rule="nonzero" fill-opacity="1" /><path clip-path="url(#clip330)" d="M1367.8 1103.15 Q1364.19 1103.15 1362.36 1106.72 Q1360.56 1110.26 1360.56 1117.39 Q1360.56 1124.49 1362.36 1128.06 Q1364.19 1131.6 1367.8 1131.6 Q1371.44 1131.6 1373.24 1128.06 Q1375.07 1124.49 1375.07 1117.39 Q1375.07 1110.26 1373.24 1106.72 Q1371.44 1103.15 1367.8 1103.15 M1367.8 1099.45 Q1373.61 1099.45 1376.67 1104.05 Q1379.75 1108.64 1379.75 1117.39 Q1379.75 1126.11 1376.67 1130.72 Q1373.61 1135.3 1367.8 1135.3 Q1361.99 1135.3 1358.91 1130.72 Q1355.86 1126.11 1355.86 1117.39 Q1355.86 1108.64 1358.91 1104.05 Q1361.99 1099.45 1367.8 1099.45 Z" fill="#000000" fill-rule="nonzero" fill-opacity="1" /><path clip-path="url(#clip330)" d="M1397.96 1103.15 Q1394.35 1103.15 1392.52 1106.72 Q1390.72 1110.26 1390.72 1117.39 Q1390.72 1124.49 1392.52 1128.06 Q1394.35 1131.6 1397.96 1131.6 Q1401.6 1131.6 1403.4 1128.06 Q1405.23 1124.49 1405.23 1117.39 Q1405.23 1110.26 1403.4 1106.72 Q1401.6 1103.15 1397.96 1103.15 M1397.96 1099.45 Q1403.77 1099.45 1406.83 1104.05 Q1409.91 1108.64 1409.91 1117.39 Q1409.91 1126.11 1406.83 1130.72 Q1403.77 1135.3 1397.96 1135.3 Q1392.15 1135.3 1389.07 1130.72 Q1386.02 1126.11 1386.02 1117.39 Q1386.02 1108.64 1389.07 1104.05 Q1392.15 1099.45 1397.96 1099.45 Z" fill="#000000" fill-rule="nonzero" fill-opacity="1" /><path clip-path="url(#clip330)" d="M1182.01 1252.88 L1182.94 1253.44 Q1181.43 1256.93 1179.02 1261.28 Q1181.43 1265.63 1182.94 1269.13 L1182.01 1269.67 Q1178.7 1265.86 1176.15 1261.28 Q1178.72 1256.66 1182.01 1252.88 Z" fill="#000000" fill-rule="nonzero" fill-opacity="1" /><path clip-path="url(#clip330)" d="M1194.31 1249.71 Q1196.12 1249.71 1197.15 1250.84 Q1198.14 1251.97 1198.14 1253.26 Q1198.14 1254.48 1197.44 1255.12 Q1196.73 1255.77 1195.83 1255.77 Q1194.6 1255.77 1193.54 1254.87 Q1192.48 1253.96 1192.25 1252.61 Q1191.41 1253.93 1191.41 1255.9 Q1191.41 1257.18 1192.09 1258.31 Q1192.77 1259.41 1193.64 1260.08 Q1194.51 1260.73 1195.76 1261.31 Q1196.99 1261.85 1197.73 1262.08 Q1198.43 1262.27 1199.21 1262.43 L1208.23 1264.69 Q1212.51 1265.78 1214.02 1265.78 Q1215.89 1265.78 1217.15 1264.88 Q1218.37 1263.98 1218.37 1262.18 Q1218.37 1261.47 1218.18 1260.66 Q1217.95 1259.86 1217.37 1258.83 Q1216.76 1257.76 1215.86 1256.83 Q1214.92 1255.86 1213.35 1254.93 Q1211.77 1254 1209.74 1253.38 Q1209.03 1253.19 1209.03 1252.55 Q1209.03 1251.74 1209.67 1251.74 Q1210.22 1251.74 1211.38 1252.19 Q1212.51 1252.61 1213.99 1253.55 Q1215.44 1254.45 1216.76 1255.64 Q1218.05 1256.83 1218.95 1258.6 Q1219.85 1260.37 1219.85 1262.31 Q1219.85 1265.08 1218.37 1266.91 Q1216.89 1268.75 1214.83 1269.42 Q1215.12 1269.58 1215.5 1269.81 Q1215.89 1270.03 1216.76 1270.71 Q1217.6 1271.36 1218.24 1272.1 Q1218.85 1272.84 1219.34 1274 Q1219.85 1275.12 1219.85 1276.35 Q1219.85 1277.89 1219.4 1279.28 Q1218.95 1280.63 1217.92 1281.6 Q1216.89 1282.56 1215.47 1282.56 Q1213.89 1282.56 1212.8 1281.5 Q1211.67 1280.41 1211.67 1278.92 Q1211.67 1277.99 1212.22 1277.25 Q1212.77 1276.48 1213.96 1276.48 Q1215.28 1276.48 1216.28 1277.38 Q1217.27 1278.28 1217.53 1279.57 Q1218.37 1278.25 1218.37 1276.28 Q1218.37 1274.16 1216.5 1272.48 Q1214.63 1270.81 1211.51 1270 Q1204.01 1268.01 1200.66 1267.23 Q1197.28 1266.46 1195.83 1266.46 Q1194.47 1266.46 1193.54 1266.81 Q1192.61 1267.17 1192.19 1267.78 Q1191.74 1268.36 1191.57 1268.91 Q1191.41 1269.42 1191.41 1270 Q1191.41 1270.97 1191.8 1272.06 Q1192.19 1273.13 1193.09 1274.41 Q1193.96 1275.67 1195.76 1276.86 Q1197.56 1278.05 1200.04 1278.86 Q1200.79 1279.02 1200.79 1279.73 Q1200.75 1280.5 1200.11 1280.5 Q1199.56 1280.5 1198.43 1280.08 Q1197.28 1279.63 1195.83 1278.73 Q1194.38 1277.8 1193.09 1276.6 Q1191.77 1275.38 1190.87 1273.61 Q1189.96 1271.81 1189.96 1269.87 Q1189.96 1269 1190.16 1268.17 Q1190.32 1267.3 1190.8 1266.27 Q1191.28 1265.2 1192.35 1264.27 Q1193.41 1263.34 1194.96 1262.76 Q1194.22 1262.37 1193.51 1261.85 Q1192.8 1261.31 1191.93 1260.47 Q1191.03 1259.6 1190.51 1258.41 Q1189.96 1257.18 1189.96 1255.83 Q1189.96 1254.51 1190.32 1253.22 Q1190.64 1251.94 1191.7 1250.84 Q1192.73 1249.71 1194.31 1249.71 Z" fill="#000000" fill-rule="nonzero" fill-opacity="1" /><path clip-path="url(#clip330)" d="M1231.9 1242.25 Q1230.52 1242.25 1229.87 1241.46 Q1229.22 1240.68 1229.22 1239.66 Q1229.22 1238.6 1229.92 1237.86 Q1230.59 1237.09 1231.79 1237.09 Q1233.07 1237.09 1233.79 1237.99 Q1234.51 1238.87 1234.33 1240.13 Q1236.18 1239.03 1237.02 1237 Q1237.85 1234.95 1237.85 1233.06 Q1237.85 1231.07 1236.14 1229.47 Q1234.42 1227.85 1230.23 1227.85 Q1226.67 1227.85 1224.62 1229.25 Q1222.57 1230.62 1222.57 1233.35 L1222.57 1235.38 Q1222.57 1236.08 1222.5 1236.28 Q1222.43 1236.48 1222.05 1236.48 Q1221.6 1236.48 1221.51 1235.78 Q1221.51 1235.08 1221.37 1233.98 Q1221.28 1231.3 1218.96 1229.88 Q1216.79 1228.59 1213.71 1228.59 Q1210.89 1228.59 1209.72 1229.94 Q1208.52 1231.27 1208.52 1233.01 Q1208.52 1234.63 1209.2 1236.41 Q1209.87 1238.2 1211.38 1239.17 Q1211.38 1236.3 1213.71 1236.3 Q1214.72 1236.3 1215.4 1236.96 Q1216.05 1237.59 1216.05 1238.65 Q1216.05 1239.66 1215.42 1240.34 Q1214.77 1241.01 1213.66 1241.01 Q1211.02 1241.01 1209.2 1238.67 Q1207.37 1236.3 1207.37 1232.83 Q1207.37 1229.4 1209.17 1226.88 Q1210.98 1224.33 1213.75 1224.33 Q1216.48 1224.33 1218.71 1226.13 Q1220.94 1227.94 1221.87 1230.8 Q1222.57 1227.28 1224.96 1225.19 Q1227.32 1223.09 1230.23 1223.09 Q1233.84 1223.09 1236.5 1225.93 Q1239.14 1228.77 1239.14 1232.92 Q1239.14 1236.75 1237.06 1239.5 Q1234.99 1242.25 1231.9 1242.25 Z" fill="#000000" fill-rule="nonzero" fill-opacity="1" /><polyline clip-path="url(#clip335)" style="stroke:#e26f46; stroke-linecap:round; stroke-linejoin:round; stroke-width:3; stroke-opacity:1; fill:none" stroke-dasharray="12, 6, 2, 6" points="1471.57,1117.35 1496.74,1295.96 1521.9,1315.35 1547.06,1288.18 1572.22,1413.23 1597.38,1354.16 1622.55,1337.51 1647.71,1360.17 1672.87,1302.47 1698.03,1316.78 1723.2,1251.34 1748.36,1195.37 1773.52,1237.27 1798.68,1179.72 1823.85,1176.35 1849.01,1148.95 1874.17,1158.12 1899.33,1203.34 1924.49,1148.92 1949.66,1144.88 1974.82,1170.47 1999.98,1117.72 2025.14,1162.23 2050.31,1175.99 2075.47,1102.58 2100.63,1081.68 2125.79,1116.29 2150.95,1164.74 2176.12,1169.08 2201.28,1142.54 2226.44,1147.51 2251.6,1120.89 2276.77,1129.85 2301.93,1133.75 2327.09,1164.15 "/>
</svg>
