<?xml version="1.0" encoding="utf-8"?>
<svg xmlns="http://www.w3.org/2000/svg" xmlns:xlink="http://www.w3.org/1999/xlink" width="600" height="400" viewBox="0 0 2400 1600">
<defs>
  <clipPath id="clip100">
    <rect x="0" y="0" width="2400" height="1600"/>
  </clipPath>
</defs>
<path clip-path="url(#clip100)" d="M0 1600 L2400 1600 L2400 0 L0 0  Z" fill="#ffffff" fill-rule="evenodd" fill-opacity="1"/>
<defs>
  <clipPath id="clip101">
    <rect x="480" y="0" width="1681" height="1600"/>
  </clipPath>
</defs>
<path clip-path="url(#clip100)" d="M277.621 654.814 L1162.96 654.814 L1162.96 47.2441 L277.621 47.2441  Z" fill="#ffffff" fill-rule="evenodd" fill-opacity="1"/>
<defs>
  <clipPath id="clip102">
    <rect x="277" y="47" width="886" height="609"/>
  </clipPath>
</defs>
<polyline clip-path="url(#clip102)" style="stroke:#000000; stroke-linecap:round; stroke-linejoin:round; stroke-width:2; stroke-opacity:0.1; fill:none" points="302.677,654.814 302.677,47.2441 "/>
<polyline clip-path="url(#clip102)" style="stroke:#000000; stroke-linecap:round; stroke-linejoin:round; stroke-width:2; stroke-opacity:0.1; fill:none" points="548.333,654.814 548.333,47.2441 "/>
<polyline clip-path="url(#clip102)" style="stroke:#000000; stroke-linecap:round; stroke-linejoin:round; stroke-width:2; stroke-opacity:0.1; fill:none" points="793.989,654.814 793.989,47.2441 "/>
<polyline clip-path="url(#clip102)" style="stroke:#000000; stroke-linecap:round; stroke-linejoin:round; stroke-width:2; stroke-opacity:0.1; fill:none" points="1039.64,654.814 1039.64,47.2441 "/>
<polyline clip-path="url(#clip100)" style="stroke:#000000; stroke-linecap:round; stroke-linejoin:round; stroke-width:4; stroke-opacity:1; fill:none" points="277.621,654.814 1162.96,654.814 "/>
<polyline clip-path="url(#clip100)" style="stroke:#000000; stroke-linecap:round; stroke-linejoin:round; stroke-width:4; stroke-opacity:1; fill:none" points="302.677,654.814 302.677,635.916 "/>
<polyline clip-path="url(#clip100)" style="stroke:#000000; stroke-linecap:round; stroke-linejoin:round; stroke-width:4; stroke-opacity:1; fill:none" points="548.333,654.814 548.333,635.916 "/>
<polyline clip-path="url(#clip100)" style="stroke:#000000; stroke-linecap:round; stroke-linejoin:round; stroke-width:4; stroke-opacity:1; fill:none" points="793.989,654.814 793.989,635.916 "/>
<polyline clip-path="url(#clip100)" style="stroke:#000000; stroke-linecap:round; stroke-linejoin:round; stroke-width:4; stroke-opacity:1; fill:none" points="1039.64,654.814 1039.64,635.916 "/>
<path clip-path="url(#clip100)" d="M302.677 685.733 Q299.066 685.733 297.238 689.297 Q295.432 692.839 295.432 699.969 Q295.432 707.075 297.238 710.64 Q299.066 714.181 302.677 714.181 Q306.312 714.181 308.117 710.64 Q309.946 707.075 309.946 699.969 Q309.946 692.839 308.117 689.297 Q306.312 685.733 302.677 685.733 M302.677 682.029 Q308.488 682.029 311.543 686.635 Q314.622 691.219 314.622 699.969 Q314.622 708.695 311.543 713.302 Q308.488 717.885 302.677 717.885 Q296.867 717.885 293.789 713.302 Q290.733 708.695 290.733 699.969 Q290.733 691.219 293.789 686.635 Q296.867 682.029 302.677 682.029 Z" fill="#000000" fill-rule="nonzero" fill-opacity="1" /><path clip-path="url(#clip100)" d="M538.715 713.279 L546.354 713.279 L546.354 686.913 L538.044 688.58 L538.044 684.321 L546.308 682.654 L550.984 682.654 L550.984 713.279 L558.623 713.279 L558.623 717.214 L538.715 717.214 L538.715 713.279 Z" fill="#000000" fill-rule="nonzero" fill-opacity="1" /><path clip-path="url(#clip100)" d="M788.642 713.279 L804.961 713.279 L804.961 717.214 L783.017 717.214 L783.017 713.279 Q785.679 710.524 790.262 705.894 Q794.869 701.242 796.049 699.899 Q798.295 697.376 799.174 695.64 Q800.077 693.881 800.077 692.191 Q800.077 689.436 798.133 687.7 Q796.211 685.964 793.11 685.964 Q790.91 685.964 788.457 686.728 Q786.026 687.492 783.248 689.043 L783.248 684.321 Q786.073 683.186 788.526 682.608 Q790.98 682.029 793.017 682.029 Q798.387 682.029 801.582 684.714 Q804.776 687.399 804.776 691.89 Q804.776 694.02 803.966 695.941 Q803.179 697.839 801.072 700.432 Q800.494 701.103 797.392 704.32 Q794.29 707.515 788.642 713.279 Z" fill="#000000" fill-rule="nonzero" fill-opacity="1" /><path clip-path="url(#clip100)" d="M1043.89 698.58 Q1047.25 699.297 1049.12 701.566 Q1051.02 703.834 1051.02 707.168 Q1051.02 712.283 1047.5 715.084 Q1043.99 717.885 1037.5 717.885 Q1035.33 717.885 1033.01 717.445 Q1030.72 717.029 1028.27 716.172 L1028.27 711.658 Q1030.21 712.793 1032.53 713.371 Q1034.84 713.95 1037.36 713.95 Q1041.76 713.95 1044.05 712.214 Q1046.37 710.478 1046.37 707.168 Q1046.37 704.112 1044.22 702.399 Q1042.09 700.663 1038.27 700.663 L1034.24 700.663 L1034.24 696.82 L1038.45 696.82 Q1041.9 696.82 1043.73 695.455 Q1045.56 694.066 1045.56 691.473 Q1045.56 688.811 1043.66 687.399 Q1041.79 685.964 1038.27 685.964 Q1036.35 685.964 1034.15 686.381 Q1031.95 686.797 1029.31 687.677 L1029.31 683.51 Q1031.97 682.77 1034.29 682.399 Q1036.62 682.029 1038.68 682.029 Q1044.01 682.029 1047.11 684.459 Q1050.21 686.867 1050.21 690.987 Q1050.21 693.858 1048.57 695.848 Q1046.93 697.816 1043.89 698.58 Z" fill="#000000" fill-rule="nonzero" fill-opacity="1" /><polyline clip-path="url(#clip102)" style="stroke:#000000; stroke-linecap:round; stroke-linejoin:round; stroke-width:2; stroke-opacity:0.1; fill:none" points="277.621,538.158 1162.96,538.158 "/>
<polyline clip-path="url(#clip102)" style="stroke:#000000; stroke-linecap:round; stroke-linejoin:round; stroke-width:2; stroke-opacity:0.1; fill:none" points="277.621,419.729 1162.96,419.729 "/>
<polyline clip-path="url(#clip102)" style="stroke:#000000; stroke-linecap:round; stroke-linejoin:round; stroke-width:2; stroke-opacity:0.1; fill:none" points="277.621,301.299 1162.96,301.299 "/>
<polyline clip-path="url(#clip102)" style="stroke:#000000; stroke-linecap:round; stroke-linejoin:round; stroke-width:2; stroke-opacity:0.1; fill:none" points="277.621,182.869 1162.96,182.869 "/>
<polyline clip-path="url(#clip102)" style="stroke:#000000; stroke-linecap:round; stroke-linejoin:round; stroke-width:2; stroke-opacity:0.1; fill:none" points="277.621,64.4395 1162.96,64.4395 "/>
<polyline clip-path="url(#clip100)" style="stroke:#000000; stroke-linecap:round; stroke-linejoin:round; stroke-width:4; stroke-opacity:1; fill:none" points="277.621,654.814 277.621,47.2441 "/>
<polyline clip-path="url(#clip100)" style="stroke:#000000; stroke-linecap:round; stroke-linejoin:round; stroke-width:4; stroke-opacity:1; fill:none" points="277.621,538.158 296.518,538.158 "/>
<polyline clip-path="url(#clip100)" style="stroke:#000000; stroke-linecap:round; stroke-linejoin:round; stroke-width:4; stroke-opacity:1; fill:none" points="277.621,419.729 296.518,419.729 "/>
<polyline clip-path="url(#clip100)" style="stroke:#000000; stroke-linecap:round; stroke-linejoin:round; stroke-width:4; stroke-opacity:1; fill:none" points="277.621,301.299 296.518,301.299 "/>
<polyline clip-path="url(#clip100)" style="stroke:#000000; stroke-linecap:round; stroke-linejoin:round; stroke-width:4; stroke-opacity:1; fill:none" points="277.621,182.869 296.518,182.869 "/>
<polyline clip-path="url(#clip100)" style="stroke:#000000; stroke-linecap:round; stroke-linejoin:round; stroke-width:4; stroke-opacity:1; fill:none" points="277.621,64.4395 296.518,64.4395 "/>
<path clip-path="url(#clip100)" d="M114.931 551.503 L122.57 551.503 L122.57 525.138 L114.26 526.804 L114.26 522.545 L122.524 520.878 L127.2 520.878 L127.2 551.503 L134.839 551.503 L134.839 555.438 L114.931 555.438 L114.931 551.503 Z" fill="#000000" fill-rule="nonzero" fill-opacity="1" /><path clip-path="url(#clip100)" d="M154.283 539.027 Q150.95 539.027 149.028 540.809 Q147.13 542.591 147.13 545.716 Q147.13 548.841 149.028 550.624 Q150.95 552.406 154.283 552.406 Q157.616 552.406 159.538 550.624 Q161.459 548.818 161.459 545.716 Q161.459 542.591 159.538 540.809 Q157.64 539.027 154.283 539.027 M149.607 537.036 Q146.598 536.295 144.908 534.235 Q143.241 532.175 143.241 529.212 Q143.241 525.068 146.181 522.661 Q149.144 520.253 154.283 520.253 Q159.445 520.253 162.385 522.661 Q165.325 525.068 165.325 529.212 Q165.325 532.175 163.635 534.235 Q161.968 536.295 158.982 537.036 Q162.362 537.823 164.237 540.114 Q166.135 542.406 166.135 545.716 Q166.135 550.739 163.056 553.425 Q160.001 556.11 154.283 556.11 Q148.566 556.11 145.487 553.425 Q142.431 550.739 142.431 545.716 Q142.431 542.406 144.329 540.114 Q146.228 537.823 149.607 537.036 M147.894 529.652 Q147.894 532.337 149.561 533.841 Q151.251 535.346 154.283 535.346 Q157.292 535.346 158.982 533.841 Q160.695 532.337 160.695 529.652 Q160.695 526.966 158.982 525.462 Q157.292 523.957 154.283 523.957 Q151.251 523.957 149.561 525.462 Q147.894 526.966 147.894 529.652 Z" fill="#000000" fill-rule="nonzero" fill-opacity="1" /><path clip-path="url(#clip100)" d="M184.445 523.957 Q180.834 523.957 179.005 527.522 Q177.2 531.064 177.2 538.193 Q177.2 545.3 179.005 548.864 Q180.834 552.406 184.445 552.406 Q188.079 552.406 189.885 548.864 Q191.713 545.3 191.713 538.193 Q191.713 531.064 189.885 527.522 Q188.079 523.957 184.445 523.957 M184.445 520.253 Q190.255 520.253 193.311 524.86 Q196.389 529.443 196.389 538.193 Q196.389 546.92 193.311 551.526 Q190.255 556.11 184.445 556.11 Q178.635 556.11 175.556 551.526 Q172.501 546.92 172.501 538.193 Q172.501 529.443 175.556 524.86 Q178.635 520.253 184.445 520.253 Z" fill="#000000" fill-rule="nonzero" fill-opacity="1" /><path clip-path="url(#clip100)" d="M204.607 549.559 L209.491 549.559 L209.491 555.438 L204.607 555.438 L204.607 549.559 Z" fill="#000000" fill-rule="nonzero" fill-opacity="1" /><path clip-path="url(#clip100)" d="M229.676 523.957 Q226.065 523.957 224.236 527.522 Q222.431 531.064 222.431 538.193 Q222.431 545.3 224.236 548.864 Q226.065 552.406 229.676 552.406 Q233.31 552.406 235.116 548.864 Q236.945 545.3 236.945 538.193 Q236.945 531.064 235.116 527.522 Q233.31 523.957 229.676 523.957 M229.676 520.253 Q235.486 520.253 238.542 524.86 Q241.621 529.443 241.621 538.193 Q241.621 546.92 238.542 551.526 Q235.486 556.11 229.676 556.11 Q223.866 556.11 220.787 551.526 Q217.732 546.92 217.732 538.193 Q217.732 529.443 220.787 524.86 Q223.866 520.253 229.676 520.253 Z" fill="#000000" fill-rule="nonzero" fill-opacity="1" /><path clip-path="url(#clip100)" d="M115.927 433.074 L123.566 433.074 L123.566 406.708 L115.256 408.375 L115.256 404.115 L123.519 402.449 L128.195 402.449 L128.195 433.074 L135.834 433.074 L135.834 437.009 L115.927 437.009 L115.927 433.074 Z" fill="#000000" fill-rule="nonzero" fill-opacity="1" /><path clip-path="url(#clip100)" d="M155.278 420.597 Q151.945 420.597 150.024 422.379 Q148.126 424.162 148.126 427.287 Q148.126 430.412 150.024 432.194 Q151.945 433.976 155.278 433.976 Q158.612 433.976 160.533 432.194 Q162.454 430.388 162.454 427.287 Q162.454 424.162 160.533 422.379 Q158.635 420.597 155.278 420.597 M150.603 418.606 Q147.593 417.865 145.904 415.805 Q144.237 413.745 144.237 410.782 Q144.237 406.639 147.177 404.231 Q150.14 401.824 155.278 401.824 Q160.44 401.824 163.38 404.231 Q166.32 406.639 166.32 410.782 Q166.32 413.745 164.63 415.805 Q162.964 417.865 159.978 418.606 Q163.357 419.393 165.232 421.685 Q167.13 423.976 167.13 427.287 Q167.13 432.31 164.052 434.995 Q160.996 437.68 155.278 437.68 Q149.561 437.68 146.482 434.995 Q143.427 432.31 143.427 427.287 Q143.427 423.976 145.325 421.685 Q147.223 419.393 150.603 418.606 M148.89 411.222 Q148.89 413.907 150.556 415.412 Q152.246 416.916 155.278 416.916 Q158.288 416.916 159.978 415.412 Q161.69 413.907 161.69 411.222 Q161.69 408.537 159.978 407.032 Q158.288 405.527 155.278 405.527 Q152.246 405.527 150.556 407.032 Q148.89 408.537 148.89 411.222 Z" fill="#000000" fill-rule="nonzero" fill-opacity="1" /><path clip-path="url(#clip100)" d="M179.468 433.074 L195.787 433.074 L195.787 437.009 L173.843 437.009 L173.843 433.074 Q176.505 430.319 181.089 425.689 Q185.695 421.037 186.876 419.694 Q189.121 417.171 190 415.435 Q190.903 413.676 190.903 411.986 Q190.903 409.231 188.959 407.495 Q187.038 405.759 183.936 405.759 Q181.737 405.759 179.283 406.523 Q176.852 407.287 174.075 408.838 L174.075 404.115 Q176.899 402.981 179.352 402.402 Q181.806 401.824 183.843 401.824 Q189.213 401.824 192.408 404.509 Q195.602 407.194 195.602 411.685 Q195.602 413.814 194.792 415.736 Q194.005 417.634 191.899 420.226 Q191.32 420.898 188.218 424.115 Q185.116 427.31 179.468 433.074 Z" fill="#000000" fill-rule="nonzero" fill-opacity="1" /><path clip-path="url(#clip100)" d="M205.602 431.129 L210.486 431.129 L210.486 437.009 L205.602 437.009 L205.602 431.129 Z" fill="#000000" fill-rule="nonzero" fill-opacity="1" /><path clip-path="url(#clip100)" d="M220.718 402.449 L239.074 402.449 L239.074 406.384 L225 406.384 L225 414.856 Q226.019 414.509 227.037 414.347 Q228.056 414.162 229.074 414.162 Q234.861 414.162 238.241 417.333 Q241.621 420.504 241.621 425.921 Q241.621 431.499 238.148 434.601 Q234.676 437.68 228.357 437.68 Q226.181 437.68 223.912 437.31 Q221.667 436.939 219.26 436.199 L219.26 431.499 Q221.343 432.634 223.565 433.189 Q225.787 433.745 228.264 433.745 Q232.269 433.745 234.607 431.638 Q236.945 429.532 236.945 425.921 Q236.945 422.31 234.607 420.203 Q232.269 418.097 228.264 418.097 Q226.389 418.097 224.514 418.513 Q222.662 418.93 220.718 419.81 L220.718 402.449 Z" fill="#000000" fill-rule="nonzero" fill-opacity="1" /><path clip-path="url(#clip100)" d="M114.931 314.644 L122.57 314.644 L122.57 288.278 L114.26 289.945 L114.26 285.686 L122.524 284.019 L127.2 284.019 L127.2 314.644 L134.839 314.644 L134.839 318.579 L114.931 318.579 L114.931 314.644 Z" fill="#000000" fill-rule="nonzero" fill-opacity="1" /><path clip-path="url(#clip100)" d="M154.283 302.167 Q150.95 302.167 149.028 303.949 Q147.13 305.732 147.13 308.857 Q147.13 311.982 149.028 313.764 Q150.95 315.547 154.283 315.547 Q157.616 315.547 159.538 313.764 Q161.459 311.959 161.459 308.857 Q161.459 305.732 159.538 303.949 Q157.64 302.167 154.283 302.167 M149.607 300.176 Q146.598 299.436 144.908 297.375 Q143.241 295.315 143.241 292.352 Q143.241 288.209 146.181 285.801 Q149.144 283.394 154.283 283.394 Q159.445 283.394 162.385 285.801 Q165.325 288.209 165.325 292.352 Q165.325 295.315 163.635 297.375 Q161.968 299.436 158.982 300.176 Q162.362 300.963 164.237 303.255 Q166.135 305.547 166.135 308.857 Q166.135 313.88 163.056 316.565 Q160.001 319.25 154.283 319.25 Q148.566 319.25 145.487 316.565 Q142.431 313.88 142.431 308.857 Q142.431 305.547 144.329 303.255 Q146.228 300.963 149.607 300.176 M147.894 292.792 Q147.894 295.477 149.561 296.982 Q151.251 298.486 154.283 298.486 Q157.292 298.486 158.982 296.982 Q160.695 295.477 160.695 292.792 Q160.695 290.107 158.982 288.602 Q157.292 287.098 154.283 287.098 Q151.251 287.098 149.561 288.602 Q147.894 290.107 147.894 292.792 Z" fill="#000000" fill-rule="nonzero" fill-opacity="1" /><path clip-path="url(#clip100)" d="M174.491 284.019 L192.848 284.019 L192.848 287.954 L178.774 287.954 L178.774 296.426 Q179.792 296.079 180.811 295.917 Q181.829 295.732 182.848 295.732 Q188.635 295.732 192.014 298.903 Q195.394 302.074 195.394 307.491 Q195.394 313.07 191.922 316.172 Q188.45 319.25 182.13 319.25 Q179.954 319.25 177.686 318.88 Q175.44 318.51 173.033 317.769 L173.033 313.07 Q175.116 314.204 177.339 314.76 Q179.561 315.315 182.038 315.315 Q186.042 315.315 188.38 313.209 Q190.718 311.102 190.718 307.491 Q190.718 303.88 188.38 301.774 Q186.042 299.667 182.038 299.667 Q180.163 299.667 178.288 300.084 Q176.436 300.5 174.491 301.38 L174.491 284.019 Z" fill="#000000" fill-rule="nonzero" fill-opacity="1" /><path clip-path="url(#clip100)" d="M204.607 312.699 L209.491 312.699 L209.491 318.579 L204.607 318.579 L204.607 312.699 Z" fill="#000000" fill-rule="nonzero" fill-opacity="1" /><path clip-path="url(#clip100)" d="M229.676 287.098 Q226.065 287.098 224.236 290.662 Q222.431 294.204 222.431 301.334 Q222.431 308.44 224.236 312.005 Q226.065 315.547 229.676 315.547 Q233.31 315.547 235.116 312.005 Q236.945 308.44 236.945 301.334 Q236.945 294.204 235.116 290.662 Q233.31 287.098 229.676 287.098 M229.676 283.394 Q235.486 283.394 238.542 288 Q241.621 292.584 241.621 301.334 Q241.621 310.06 238.542 314.667 Q235.486 319.25 229.676 319.25 Q223.866 319.25 220.787 314.667 Q217.732 310.06 217.732 301.334 Q217.732 292.584 220.787 288 Q223.866 283.394 229.676 283.394 Z" fill="#000000" fill-rule="nonzero" fill-opacity="1" /><path clip-path="url(#clip100)" d="M115.927 196.214 L123.566 196.214 L123.566 169.848 L115.256 171.515 L115.256 167.256 L123.519 165.589 L128.195 165.589 L128.195 196.214 L135.834 196.214 L135.834 200.149 L115.927 200.149 L115.927 196.214 Z" fill="#000000" fill-rule="nonzero" fill-opacity="1" /><path clip-path="url(#clip100)" d="M155.278 183.737 Q151.945 183.737 150.024 185.52 Q148.126 187.302 148.126 190.427 Q148.126 193.552 150.024 195.334 Q151.945 197.117 155.278 197.117 Q158.612 197.117 160.533 195.334 Q162.454 193.529 162.454 190.427 Q162.454 187.302 160.533 185.52 Q158.635 183.737 155.278 183.737 M150.603 181.747 Q147.593 181.006 145.904 178.946 Q144.237 176.885 144.237 173.923 Q144.237 169.779 147.177 167.372 Q150.14 164.964 155.278 164.964 Q160.44 164.964 163.38 167.372 Q166.32 169.779 166.32 173.923 Q166.32 176.885 164.63 178.946 Q162.964 181.006 159.978 181.747 Q163.357 182.534 165.232 184.825 Q167.13 187.117 167.13 190.427 Q167.13 195.45 164.052 198.135 Q160.996 200.821 155.278 200.821 Q149.561 200.821 146.482 198.135 Q143.427 195.45 143.427 190.427 Q143.427 187.117 145.325 184.825 Q147.223 182.534 150.603 181.747 M148.89 174.362 Q148.89 177.047 150.556 178.552 Q152.246 180.057 155.278 180.057 Q158.288 180.057 159.978 178.552 Q161.69 177.047 161.69 174.362 Q161.69 171.677 159.978 170.173 Q158.288 168.668 155.278 168.668 Q152.246 168.668 150.556 170.173 Q148.89 171.677 148.89 174.362 Z" fill="#000000" fill-rule="nonzero" fill-opacity="1" /><path clip-path="url(#clip100)" d="M174.26 165.589 L196.482 165.589 L196.482 167.58 L183.936 200.149 L179.051 200.149 L190.857 169.524 L174.26 169.524 L174.26 165.589 Z" fill="#000000" fill-rule="nonzero" fill-opacity="1" /><path clip-path="url(#clip100)" d="M205.602 194.27 L210.486 194.27 L210.486 200.149 L205.602 200.149 L205.602 194.27 Z" fill="#000000" fill-rule="nonzero" fill-opacity="1" /><path clip-path="url(#clip100)" d="M220.718 165.589 L239.074 165.589 L239.074 169.524 L225 169.524 L225 177.997 Q226.019 177.649 227.037 177.487 Q228.056 177.302 229.074 177.302 Q234.861 177.302 238.241 180.473 Q241.621 183.645 241.621 189.061 Q241.621 194.64 238.148 197.742 Q234.676 200.821 228.357 200.821 Q226.181 200.821 223.912 200.45 Q221.667 200.08 219.26 199.339 L219.26 194.64 Q221.343 195.774 223.565 196.33 Q225.787 196.885 228.264 196.885 Q232.269 196.885 234.607 194.779 Q236.945 192.672 236.945 189.061 Q236.945 185.45 234.607 183.344 Q232.269 181.237 228.264 181.237 Q226.389 181.237 224.514 181.654 Q222.662 182.071 220.718 182.95 L220.718 165.589 Z" fill="#000000" fill-rule="nonzero" fill-opacity="1" /><path clip-path="url(#clip100)" d="M114.931 77.7843 L122.57 77.7843 L122.57 51.4187 L114.26 53.0854 L114.26 48.8261 L122.524 47.1595 L127.2 47.1595 L127.2 77.7843 L134.839 77.7843 L134.839 81.7195 L114.931 81.7195 L114.931 77.7843 Z" fill="#000000" fill-rule="nonzero" fill-opacity="1" /><path clip-path="url(#clip100)" d="M144.422 81.0019 L144.422 76.7426 Q146.181 77.576 147.987 78.0158 Q149.792 78.4556 151.528 78.4556 Q156.158 78.4556 158.589 75.3538 Q161.042 72.2288 161.39 65.8862 Q160.047 67.8769 157.987 68.9418 Q155.927 70.0066 153.427 70.0066 Q148.241 70.0066 145.209 66.8816 Q142.2 63.7335 142.2 58.2937 Q142.2 52.9696 145.348 49.752 Q148.496 46.5345 153.728 46.5345 Q159.723 46.5345 162.871 51.1409 Q166.042 55.7242 166.042 64.4742 Q166.042 72.6454 162.153 77.5297 Q158.288 82.3908 151.737 82.3908 Q149.978 82.3908 148.172 82.0435 Q146.366 81.6963 144.422 81.0019 M153.728 66.3492 Q156.876 66.3492 158.704 64.1964 Q160.556 62.0436 160.556 58.2937 Q160.556 54.5668 158.704 52.4141 Q156.876 50.2382 153.728 50.2382 Q150.579 50.2382 148.728 52.4141 Q146.899 54.5668 146.899 58.2937 Q146.899 62.0436 148.728 64.1964 Q150.579 66.3492 153.728 66.3492 Z" fill="#000000" fill-rule="nonzero" fill-opacity="1" /><path clip-path="url(#clip100)" d="M184.445 50.2382 Q180.834 50.2382 179.005 53.8029 Q177.2 57.3446 177.2 64.4742 Q177.2 71.5806 179.005 75.1454 Q180.834 78.6871 184.445 78.6871 Q188.079 78.6871 189.885 75.1454 Q191.713 71.5806 191.713 64.4742 Q191.713 57.3446 189.885 53.8029 Q188.079 50.2382 184.445 50.2382 M184.445 46.5345 Q190.255 46.5345 193.311 51.1409 Q196.389 55.7242 196.389 64.4742 Q196.389 73.201 193.311 77.8074 Q190.255 82.3908 184.445 82.3908 Q178.635 82.3908 175.556 77.8074 Q172.501 73.201 172.501 64.4742 Q172.501 55.7242 175.556 51.1409 Q178.635 46.5345 184.445 46.5345 Z" fill="#000000" fill-rule="nonzero" fill-opacity="1" /><path clip-path="url(#clip100)" d="M204.607 75.8399 L209.491 75.8399 L209.491 81.7195 L204.607 81.7195 L204.607 75.8399 Z" fill="#000000" fill-rule="nonzero" fill-opacity="1" /><path clip-path="url(#clip100)" d="M229.676 50.2382 Q226.065 50.2382 224.236 53.8029 Q222.431 57.3446 222.431 64.4742 Q222.431 71.5806 224.236 75.1454 Q226.065 78.6871 229.676 78.6871 Q233.31 78.6871 235.116 75.1454 Q236.945 71.5806 236.945 64.4742 Q236.945 57.3446 235.116 53.8029 Q233.31 50.2382 229.676 50.2382 M229.676 46.5345 Q235.486 46.5345 238.542 51.1409 Q241.621 55.7242 241.621 64.4742 Q241.621 73.201 238.542 77.8074 Q235.486 82.3908 229.676 82.3908 Q223.866 82.3908 220.787 77.8074 Q217.732 73.201 217.732 64.4742 Q217.732 55.7242 220.787 51.1409 Q223.866 46.5345 229.676 46.5345 Z" fill="#000000" fill-rule="nonzero" fill-opacity="1" /><path clip-path="url(#clip100)" d="M21.7178 350.252 Q22.1687 350.252 23.2315 350.541 L48.4165 356.854 Q54.0203 358.239 57.9494 362.747 Q61.8785 367.224 61.8785 372.313 Q61.8785 375.372 60.236 377.337 Q58.6257 379.301 56.1459 379.301 Q53.9559 379.301 52.8931 378.142 Q51.8625 376.982 51.8625 375.598 Q51.8625 375.147 51.9913 374.664 Q52.1201 374.181 52.6676 373.665 Q53.2151 373.15 54.1491 373.15 Q55.6628 373.15 56.8544 374.47 Q57.4019 375.115 57.5307 375.726 Q57.6596 376.306 57.6596 377.305 Q58.5613 376.918 59.1732 376.21 Q59.7851 375.501 60.0106 374.696 Q60.2682 373.891 60.3326 373.375 Q60.4293 372.828 60.4293 372.313 Q60.4293 368.19 56.2747 365.034 Q55.0187 364.1 53.7626 363.424 Q52.5388 362.715 51.0252 362.2 Q49.5437 361.685 48.7385 361.459 Q47.9334 361.202 46.0977 360.751 Q49.0928 363.746 49.0928 367.417 Q49.0928 368.963 48.6741 370.348 Q48.2554 371.701 47.3859 372.892 Q46.4841 374.084 44.906 374.792 Q43.3279 375.469 41.2346 375.469 Q39.0124 375.469 35.985 374.599 Q32.9577 373.73 27.386 371.636 Q24.2621 370.509 22.7484 370.509 Q22.0077 370.509 21.5568 370.67 Q21.0737 370.831 20.9127 371.153 Q20.7194 371.475 20.6872 371.669 Q20.655 371.83 20.655 372.152 Q20.655 374.052 22.5874 375.823 Q24.5197 377.594 28.8353 378.818 Q29.6405 379.076 29.8337 379.237 Q30.0269 379.398 30.0269 379.881 Q29.9947 380.686 29.3506 380.686 Q29.093 380.686 28.0946 380.396 Q27.064 380.106 25.5503 379.43 Q24.0044 378.722 22.6196 377.755 Q21.2025 376.789 20.2041 375.276 Q19.2058 373.73 19.2058 371.958 Q19.2058 369.543 20.7838 368.061 Q22.3297 366.548 24.6163 366.548 Q25.5503 366.548 26.3877 366.805 Q27.1928 367.031 29.3506 367.868 Q38.0462 371.25 42.2974 371.25 Q43.3279 371.25 44.1975 371.089 Q45.0349 370.896 45.8722 370.477 Q46.6774 370.058 47.1604 369.221 Q47.6113 368.351 47.6113 367.16 Q47.6113 365.646 46.9028 364.229 Q46.1621 362.78 45.1637 361.878 Q44.1653 360.944 43.3279 360.396 Q42.4584 359.817 42.0075 359.688 L30.1558 356.725 L24.874 355.405 Q22.0077 354.793 21.2991 354.503 Q20.6228 354.116 20.2686 353.44 Q19.9143 352.764 19.9143 352.184 Q19.9143 351.379 20.3974 350.831 Q20.8805 350.252 21.7178 350.252 Z" fill="#000000" fill-rule="nonzero" fill-opacity="1" /><path clip-path="url(#clip100)" d="M53.6652 343.506 L52.2224 343.506 Q52.2224 337.96 49.2691 335.097 Q49.2691 334.308 49.4494 334.172 Q49.6298 334.037 50.4639 334.037 L76.3671 334.037 Q77.7423 334.037 78.1706 333.361 Q78.599 332.684 78.599 329.731 L78.599 328.266 L80.0193 328.266 Q79.884 329.889 79.884 335.75 Q79.884 341.612 80.0193 343.212 L78.599 343.212 L78.599 341.747 Q78.599 338.839 78.1932 338.14 Q77.7648 337.441 76.3671 337.441 L52.4478 337.441 Q53.6652 339.853 53.6652 343.506 Z" fill="#000000" fill-rule="nonzero" fill-opacity="1" /><polyline clip-path="url(#clip102)" style="stroke:#009af9; stroke-linecap:round; stroke-linejoin:round; stroke-width:4; stroke-opacity:1; fill:none" points="302.677,64.4395 327.243,64.4395 351.809,343.928 376.374,618.94 400.94,623.986 425.505,613.828 450.071,633.68 474.637,637.618 499.202,631.398 523.768,621.886 548.333,610.988 572.899,599.522 597.464,588.311 622.03,577.97 646.596,568.846 671.161,561.084 695.727,554.69 720.292,549.586 744.858,545.638 769.424,542.687 793.989,540.566 818.555,539.115 843.12,538.189 867.686,537.66 892.251,537.421 916.817,537.383 941.383,537.477 965.948,537.651 990.514,537.864 1015.08,538.088 1039.64,538.306 1064.21,538.506 1088.78,538.681 1113.34,538.828 1137.91,538.949 "/>
<polyline clip-path="url(#clip102)" style="stroke:#3da44d; stroke-linecap:round; stroke-linejoin:round; stroke-width:3; stroke-opacity:1; fill:none" stroke-dasharray="12, 8" points="302.677,538.158 327.243,538.158 351.809,538.158 376.374,538.158 400.94,538.158 425.505,538.158 450.071,538.158 474.637,538.158 499.202,538.158 523.768,538.158 548.333,538.158 572.899,538.158 597.464,538.158 622.03,538.158 646.596,538.158 671.161,538.158 695.727,538.158 720.292,538.158 744.858,538.158 769.424,538.158 793.989,538.158 818.555,538.158 843.12,538.158 867.686,538.158 892.251,538.158 916.817,538.158 941.383,538.158 965.948,538.158 990.514,538.158 1015.08,538.158 1039.64,538.158 1064.21,538.158 1088.78,538.158 1113.34,538.158 1137.91,538.158 "/>
<path clip-path="url(#clip100)" d="M996.91 223.016 L1133.45 223.016 L1133.45 67.4964 L996.91 67.4964  Z" fill="#ffffff" fill-rule="evenodd" fill-opacity="1"/>
<polyline clip-path="url(#clip100)" style="stroke:#000000; stroke-linecap:round; stroke-linejoin:round; stroke-width:4; stroke-opacity:1; fill:none" points="996.91,223.016 1133.45,223.016 1133.45,67.4964 996.91,67.4964 996.91,223.016 "/>
<polyline clip-path="url(#clip100)" style="stroke:#009af9; stroke-linecap:round; stroke-linejoin:round; stroke-width:4; stroke-opacity:1; fill:none" points="1006.75,119.336 1065.77,119.336 "/>
<path clip-path="url(#clip100)" d="M1102.38 106.075 Q1100.9 106.075 1100.15 106.216 Q1099.4 106.333 1099.22 106.497 Q1099.03 106.661 1098.82 107.082 L1088.51 129.006 Q1087.41 131.348 1085.35 133.034 Q1083.31 134.721 1080.74 134.721 Q1078.58 134.721 1077.08 133.409 Q1075.61 132.121 1075.61 130.294 Q1075.61 128.982 1076.43 128.233 Q1077.25 127.507 1078.35 127.507 Q1079.57 127.507 1080.34 128.28 Q1081.13 129.053 1081.13 130.247 Q1081.13 131.02 1080.81 131.606 Q1080.48 132.215 1080.17 132.425 Q1079.89 132.66 1079.59 132.8 Q1080.08 132.988 1080.74 132.988 Q1081.72 132.988 1082.56 132.589 Q1083.43 132.215 1083.99 131.699 Q1084.58 131.208 1085.16 130.317 Q1085.75 129.451 1086.03 128.889 Q1086.31 128.35 1086.73 127.413 L1087.83 125.118 L1078.86 106.075 L1075.79 106.075 L1075.79 103.827 L1081.28 103.967 L1087.22 103.827 L1087.22 106.075 L1084.62 106.075 L1090.71 119.028 L1096.24 107.223 L1096.48 106.661 Q1096.48 106.403 1095.91 106.263 Q1095.35 106.099 1094.79 106.099 L1094.23 106.075 L1094.23 103.827 L1098.58 103.967 Q1100.65 103.967 1102.38 103.827 L1102.38 106.075 Z" fill="#000000" fill-rule="nonzero" fill-opacity="1" /><polyline clip-path="url(#clip100)" style="stroke:#3da44d; stroke-linecap:round; stroke-linejoin:round; stroke-width:3; stroke-opacity:1; fill:none" stroke-dasharray="12, 8" points="1006.75,171.176 1065.77,171.176 "/>
<path clip-path="url(#clip100)" d="M1095.02 156.454 Q1095.02 157.813 1094.13 158.609 Q1093.24 159.382 1092.1 159.382 Q1090.95 159.382 1090.06 158.609 Q1089.17 157.836 1089.17 156.454 Q1089.17 155.845 1089.38 155.307 Q1089.61 154.744 1089.85 154.487 L1090.08 154.253 Q1088.7 154.253 1087.62 154.908 Q1086.55 155.541 1085.89 156.525 Q1085.23 157.508 1084.81 158.797 Q1084.39 160.061 1084.23 161.209 Q1084.09 162.357 1084.09 163.458 L1084.09 171.866 L1088.25 171.866 L1088.25 174.115 Q1086.52 173.974 1081.65 173.974 L1075.61 174.115 L1075.61 171.866 L1078.91 171.866 L1078.91 157.04 Q1078.91 155.681 1078.42 155.424 Q1077.93 155.166 1075.61 155.166 L1075.61 152.918 L1083.57 152.519 L1083.57 157.953 Q1085.56 152.519 1089.94 152.519 Q1091.96 152.519 1093.48 153.597 Q1095.02 154.651 1095.02 156.454 Z" fill="#000000" fill-rule="nonzero" fill-opacity="1" /><path clip-path="url(#clip100)" d="M1118.69 169.638 Q1117.65 169.638 1117.13 169.736 Q1116.6 169.818 1116.47 169.933 Q1116.34 170.048 1116.19 170.343 L1108.98 185.689 Q1108.21 187.329 1106.77 188.509 Q1105.34 189.69 1103.54 189.69 Q1102.03 189.69 1100.98 188.772 Q1099.95 187.87 1099.95 186.591 Q1099.95 185.673 1100.52 185.148 Q1101.09 184.64 1101.86 184.64 Q1102.72 184.64 1103.26 185.181 Q1103.81 185.722 1103.81 186.558 Q1103.81 187.099 1103.59 187.509 Q1103.36 187.936 1103.14 188.083 Q1102.95 188.247 1102.73 188.345 Q1103.08 188.477 1103.54 188.477 Q1104.22 188.477 1104.82 188.198 Q1105.42 187.936 1105.82 187.575 Q1106.23 187.231 1106.64 186.608 Q1107.04 186.001 1107.24 185.607 Q1107.44 185.23 1107.73 184.574 L1108.5 182.968 L1102.22 169.638 L1100.08 169.638 L1100.08 168.064 L1103.91 168.162 L1108.08 168.064 L1108.08 169.638 L1106.26 169.638 L1110.52 178.705 L1114.39 170.441 L1114.55 170.048 Q1114.55 169.867 1114.16 169.769 Q1113.77 169.654 1113.37 169.654 L1112.98 169.638 L1112.98 168.064 L1116.03 168.162 Q1117.47 168.162 1118.69 168.064 L1118.69 169.638 Z" fill="#000000" fill-rule="nonzero" fill-opacity="1" /><path clip-path="url(#clip100)" d="M277.621 1423.18 L1162.96 1423.18 L1162.96 815.61 L277.621 815.61  Z" fill="#ffffff" fill-rule="evenodd" fill-opacity="1"/>
<defs>
  <clipPath id="clip103">
    <rect x="277" y="815" width="886" height="609"/>
  </clipPath>
</defs>
<polyline clip-path="url(#clip103)" style="stroke:#000000; stroke-linecap:round; stroke-linejoin:round; stroke-width:2; stroke-opacity:0.1; fill:none" points="302.677,1423.18 302.677,815.61 "/>
<polyline clip-path="url(#clip103)" style="stroke:#000000; stroke-linecap:round; stroke-linejoin:round; stroke-width:2; stroke-opacity:0.1; fill:none" points="548.333,1423.18 548.333,815.61 "/>
<polyline clip-path="url(#clip103)" style="stroke:#000000; stroke-linecap:round; stroke-linejoin:round; stroke-width:2; stroke-opacity:0.1; fill:none" points="793.989,1423.18 793.989,815.61 "/>
<polyline clip-path="url(#clip103)" style="stroke:#000000; stroke-linecap:round; stroke-linejoin:round; stroke-width:2; stroke-opacity:0.1; fill:none" points="1039.64,1423.18 1039.64,815.61 "/>
<polyline clip-path="url(#clip100)" style="stroke:#000000; stroke-linecap:round; stroke-linejoin:round; stroke-width:4; stroke-opacity:1; fill:none" points="277.621,1423.18 1162.96,1423.18 "/>
<polyline clip-path="url(#clip100)" style="stroke:#000000; stroke-linecap:round; stroke-linejoin:round; stroke-width:4; stroke-opacity:1; fill:none" points="302.677,1423.18 302.677,1404.28 "/>
<polyline clip-path="url(#clip100)" style="stroke:#000000; stroke-linecap:round; stroke-linejoin:round; stroke-width:4; stroke-opacity:1; fill:none" points="548.333,1423.18 548.333,1404.28 "/>
<polyline clip-path="url(#clip100)" style="stroke:#000000; stroke-linecap:round; stroke-linejoin:round; stroke-width:4; stroke-opacity:1; fill:none" points="793.989,1423.18 793.989,1404.28 "/>
<polyline clip-path="url(#clip100)" style="stroke:#000000; stroke-linecap:round; stroke-linejoin:round; stroke-width:4; stroke-opacity:1; fill:none" points="1039.64,1423.18 1039.64,1404.28 "/>
<path clip-path="url(#clip100)" d="M302.677 1454.1 Q299.066 1454.1 297.238 1457.66 Q295.432 1461.2 295.432 1468.33 Q295.432 1475.44 297.238 1479.01 Q299.066 1482.55 302.677 1482.55 Q306.312 1482.55 308.117 1479.01 Q309.946 1475.44 309.946 1468.33 Q309.946 1461.2 308.117 1457.66 Q306.312 1454.1 302.677 1454.1 M302.677 1450.39 Q308.488 1450.39 311.543 1455 Q314.622 1459.58 314.622 1468.33 Q314.622 1477.06 311.543 1481.67 Q308.488 1486.25 302.677 1486.25 Q296.867 1486.25 293.789 1481.67 Q290.733 1477.06 290.733 1468.33 Q290.733 1459.58 293.789 1455 Q296.867 1450.39 302.677 1450.39 Z" fill="#000000" fill-rule="nonzero" fill-opacity="1" /><path clip-path="url(#clip100)" d="M538.715 1481.64 L546.354 1481.64 L546.354 1455.28 L538.044 1456.95 L538.044 1452.69 L546.308 1451.02 L550.984 1451.02 L550.984 1481.64 L558.623 1481.64 L558.623 1485.58 L538.715 1485.58 L538.715 1481.64 Z" fill="#000000" fill-rule="nonzero" fill-opacity="1" /><path clip-path="url(#clip100)" d="M788.642 1481.64 L804.961 1481.64 L804.961 1485.58 L783.017 1485.58 L783.017 1481.64 Q785.679 1478.89 790.262 1474.26 Q794.869 1469.61 796.049 1468.27 Q798.295 1465.74 799.174 1464.01 Q800.077 1462.25 800.077 1460.56 Q800.077 1457.8 798.133 1456.07 Q796.211 1454.33 793.11 1454.33 Q790.91 1454.33 788.457 1455.09 Q786.026 1455.86 783.248 1457.41 L783.248 1452.69 Q786.073 1451.55 788.526 1450.97 Q790.98 1450.39 793.017 1450.39 Q798.387 1450.39 801.582 1453.08 Q804.776 1455.77 804.776 1460.26 Q804.776 1462.39 803.966 1464.31 Q803.179 1466.2 801.072 1468.8 Q800.494 1469.47 797.392 1472.69 Q794.29 1475.88 788.642 1481.64 Z" fill="#000000" fill-rule="nonzero" fill-opacity="1" /><path clip-path="url(#clip100)" d="M1043.89 1466.95 Q1047.25 1467.66 1049.12 1469.93 Q1051.02 1472.2 1051.02 1475.53 Q1051.02 1480.65 1047.5 1483.45 Q1043.99 1486.25 1037.5 1486.25 Q1035.33 1486.25 1033.01 1485.81 Q1030.72 1485.39 1028.27 1484.54 L1028.27 1480.02 Q1030.21 1481.16 1032.53 1481.74 Q1034.84 1482.32 1037.36 1482.32 Q1041.76 1482.32 1044.05 1480.58 Q1046.37 1478.84 1046.37 1475.53 Q1046.37 1472.48 1044.22 1470.77 Q1042.09 1469.03 1038.27 1469.03 L1034.24 1469.03 L1034.24 1465.19 L1038.45 1465.19 Q1041.9 1465.19 1043.73 1463.82 Q1045.56 1462.43 1045.56 1459.84 Q1045.56 1457.18 1043.66 1455.77 Q1041.79 1454.33 1038.27 1454.33 Q1036.35 1454.33 1034.15 1454.75 Q1031.95 1455.16 1029.31 1456.04 L1029.31 1451.88 Q1031.97 1451.14 1034.29 1450.77 Q1036.62 1450.39 1038.68 1450.39 Q1044.01 1450.39 1047.11 1452.83 Q1050.21 1455.23 1050.21 1459.35 Q1050.21 1462.22 1048.57 1464.21 Q1046.93 1466.18 1043.89 1466.95 Z" fill="#000000" fill-rule="nonzero" fill-opacity="1" /><path clip-path="url(#clip100)" d="M590.464 1520.52 L630.663 1520.52 L630.663 1525.93 L613.794 1525.93 L613.794 1568.04 L607.333 1568.04 L607.333 1525.93 L590.464 1525.93 L590.464 1520.52 Z" fill="#000000" fill-rule="nonzero" fill-opacity="1" /><path clip-path="url(#clip100)" d="M634.61 1532.4 L640.466 1532.4 L640.466 1568.04 L634.61 1568.04 L634.61 1532.4 M634.61 1518.52 L640.466 1518.52 L640.466 1525.93 L634.61 1525.93 L634.61 1518.52 Z" fill="#000000" fill-rule="nonzero" fill-opacity="1" /><path clip-path="url(#clip100)" d="M680.475 1539.24 Q682.671 1535.29 685.727 1533.41 Q688.782 1531.54 692.92 1531.54 Q698.49 1531.54 701.514 1535.45 Q704.537 1539.33 704.537 1546.53 L704.537 1568.04 L698.649 1568.04 L698.649 1546.72 Q698.649 1541.59 696.835 1539.11 Q695.021 1536.63 691.297 1536.63 Q686.745 1536.63 684.103 1539.65 Q681.462 1542.68 681.462 1547.9 L681.462 1568.04 L675.573 1568.04 L675.573 1546.72 Q675.573 1541.56 673.759 1539.11 Q671.945 1536.63 668.157 1536.63 Q663.669 1536.63 661.028 1539.68 Q658.386 1542.71 658.386 1547.9 L658.386 1568.04 L652.498 1568.04 L652.498 1532.4 L658.386 1532.4 L658.386 1537.93 Q660.391 1534.66 663.192 1533.1 Q665.993 1531.54 669.844 1531.54 Q673.727 1531.54 676.433 1533.51 Q679.17 1535.48 680.475 1539.24 Z" fill="#000000" fill-rule="nonzero" fill-opacity="1" /><path clip-path="url(#clip100)" d="M746.71 1548.76 L746.71 1551.62 L719.783 1551.62 Q720.165 1557.67 723.412 1560.85 Q726.69 1564 732.515 1564 Q735.888 1564 739.039 1563.17 Q742.222 1562.35 745.341 1560.69 L745.341 1566.23 Q742.19 1567.57 738.88 1568.27 Q735.57 1568.97 732.164 1568.97 Q723.634 1568.97 718.637 1564 Q713.672 1559.04 713.672 1550.57 Q713.672 1541.82 718.383 1536.69 Q723.125 1531.54 731.146 1531.54 Q738.339 1531.54 742.509 1536.18 Q746.71 1540.8 746.71 1548.76 M740.854 1547.04 Q740.79 1542.23 738.148 1539.37 Q735.538 1536.5 731.21 1536.5 Q726.308 1536.5 723.348 1539.27 Q720.42 1542.04 719.974 1547.07 L740.854 1547.04 Z" fill="#000000" fill-rule="nonzero" fill-opacity="1" /><path clip-path="url(#clip100)" d="M791.111 1518.58 Q786.846 1525.9 784.777 1533.06 Q782.708 1540.23 782.708 1547.58 Q782.708 1554.93 784.777 1562.16 Q786.878 1569.35 791.111 1576.64 L786.018 1576.64 Q781.244 1569.16 778.857 1561.93 Q776.502 1554.71 776.502 1547.58 Q776.502 1540.48 778.857 1533.29 Q781.212 1526.09 786.018 1518.58 L791.111 1518.58 Z" fill="#000000" fill-rule="nonzero" fill-opacity="1" /><path clip-path="url(#clip100)" d="M825.199 1533.45 L825.199 1538.98 Q822.717 1537.71 820.043 1537.07 Q817.369 1536.44 814.505 1536.44 Q810.144 1536.44 807.948 1537.77 Q805.784 1539.11 805.784 1541.79 Q805.784 1543.82 807.343 1545 Q808.903 1546.15 813.614 1547.2 L815.619 1547.64 Q821.857 1548.98 824.467 1551.43 Q827.109 1553.85 827.109 1558.21 Q827.109 1563.17 823.162 1566.07 Q819.247 1568.97 812.372 1568.97 Q809.508 1568.97 806.389 1568.39 Q803.301 1567.85 799.864 1566.74 L799.864 1560.69 Q803.11 1562.38 806.261 1563.24 Q809.412 1564.07 812.5 1564.07 Q816.637 1564.07 818.865 1562.66 Q821.093 1561.23 821.093 1558.65 Q821.093 1556.27 819.47 1554.99 Q817.879 1553.72 812.436 1552.54 L810.399 1552.07 Q804.956 1550.92 802.537 1548.56 Q800.118 1546.18 800.118 1542.04 Q800.118 1537.01 803.683 1534.27 Q807.248 1531.54 813.805 1531.54 Q817.051 1531.54 819.916 1532.01 Q822.78 1532.49 825.199 1533.45 Z" fill="#000000" fill-rule="nonzero" fill-opacity="1" /><path clip-path="url(#clip100)" d="M835.512 1518.58 L840.604 1518.58 Q845.379 1526.09 847.734 1533.29 Q850.121 1540.48 850.121 1547.58 Q850.121 1554.71 847.734 1561.93 Q845.379 1569.16 840.604 1576.64 L835.512 1576.64 Q839.745 1569.35 841.814 1562.16 Q843.914 1554.93 843.914 1547.58 Q843.914 1540.23 841.814 1533.06 Q839.745 1525.9 835.512 1518.58 Z" fill="#000000" fill-rule="nonzero" fill-opacity="1" /><polyline clip-path="url(#clip103)" style="stroke:#000000; stroke-linecap:round; stroke-linejoin:round; stroke-width:2; stroke-opacity:0.1; fill:none" points="277.621,1292.26 1162.96,1292.26 "/>
<polyline clip-path="url(#clip103)" style="stroke:#000000; stroke-linecap:round; stroke-linejoin:round; stroke-width:2; stroke-opacity:0.1; fill:none" points="277.621,1158.16 1162.96,1158.16 "/>
<polyline clip-path="url(#clip103)" style="stroke:#000000; stroke-linecap:round; stroke-linejoin:round; stroke-width:2; stroke-opacity:0.1; fill:none" points="277.621,1024.06 1162.96,1024.06 "/>
<polyline clip-path="url(#clip103)" style="stroke:#000000; stroke-linecap:round; stroke-linejoin:round; stroke-width:2; stroke-opacity:0.1; fill:none" points="277.621,889.952 1162.96,889.952 "/>
<polyline clip-path="url(#clip100)" style="stroke:#000000; stroke-linecap:round; stroke-linejoin:round; stroke-width:4; stroke-opacity:1; fill:none" points="277.621,1423.18 277.621,815.61 "/>
<polyline clip-path="url(#clip100)" style="stroke:#000000; stroke-linecap:round; stroke-linejoin:round; stroke-width:4; stroke-opacity:1; fill:none" points="277.621,1292.26 296.518,1292.26 "/>
<polyline clip-path="url(#clip100)" style="stroke:#000000; stroke-linecap:round; stroke-linejoin:round; stroke-width:4; stroke-opacity:1; fill:none" points="277.621,1158.16 296.518,1158.16 "/>
<polyline clip-path="url(#clip100)" style="stroke:#000000; stroke-linecap:round; stroke-linejoin:round; stroke-width:4; stroke-opacity:1; fill:none" points="277.621,1024.06 296.518,1024.06 "/>
<polyline clip-path="url(#clip100)" style="stroke:#000000; stroke-linecap:round; stroke-linejoin:round; stroke-width:4; stroke-opacity:1; fill:none" points="277.621,889.952 296.518,889.952 "/>
<path clip-path="url(#clip100)" d="M135.672 1292.71 L165.348 1292.71 L165.348 1296.65 L135.672 1296.65 L135.672 1292.71 Z" fill="#000000" fill-rule="nonzero" fill-opacity="1" /><path clip-path="url(#clip100)" d="M176.251 1305.61 L183.889 1305.61 L183.889 1279.24 L175.579 1280.91 L175.579 1276.65 L183.843 1274.98 L188.519 1274.98 L188.519 1305.61 L196.158 1305.61 L196.158 1309.54 L176.251 1309.54 L176.251 1305.61 Z" fill="#000000" fill-rule="nonzero" fill-opacity="1" /><path clip-path="url(#clip100)" d="M205.602 1303.66 L210.486 1303.66 L210.486 1309.54 L205.602 1309.54 L205.602 1303.66 Z" fill="#000000" fill-rule="nonzero" fill-opacity="1" /><path clip-path="url(#clip100)" d="M220.718 1274.98 L239.074 1274.98 L239.074 1278.92 L225 1278.92 L225 1287.39 Q226.019 1287.04 227.037 1286.88 Q228.056 1286.7 229.074 1286.7 Q234.861 1286.7 238.241 1289.87 Q241.621 1293.04 241.621 1298.45 Q241.621 1304.03 238.148 1307.14 Q234.676 1310.21 228.357 1310.21 Q226.181 1310.21 223.912 1309.84 Q221.667 1309.47 219.26 1308.73 L219.26 1304.03 Q221.343 1305.17 223.565 1305.72 Q225.787 1306.28 228.264 1306.28 Q232.269 1306.28 234.607 1304.17 Q236.945 1302.07 236.945 1298.45 Q236.945 1294.84 234.607 1292.74 Q232.269 1290.63 228.264 1290.63 Q226.389 1290.63 224.514 1291.05 Q222.662 1291.46 220.718 1292.34 L220.718 1274.98 Z" fill="#000000" fill-rule="nonzero" fill-opacity="1" /><path clip-path="url(#clip100)" d="M134.677 1158.61 L164.352 1158.61 L164.352 1162.55 L134.677 1162.55 L134.677 1158.61 Z" fill="#000000" fill-rule="nonzero" fill-opacity="1" /><path clip-path="url(#clip100)" d="M175.255 1171.5 L182.894 1171.5 L182.894 1145.14 L174.584 1146.81 L174.584 1142.55 L182.848 1140.88 L187.524 1140.88 L187.524 1171.5 L195.163 1171.5 L195.163 1175.44 L175.255 1175.44 L175.255 1171.5 Z" fill="#000000" fill-rule="nonzero" fill-opacity="1" /><path clip-path="url(#clip100)" d="M204.607 1169.56 L209.491 1169.56 L209.491 1175.44 L204.607 1175.44 L204.607 1169.56 Z" fill="#000000" fill-rule="nonzero" fill-opacity="1" /><path clip-path="url(#clip100)" d="M229.676 1143.96 Q226.065 1143.96 224.236 1147.52 Q222.431 1151.06 222.431 1158.19 Q222.431 1165.3 224.236 1168.87 Q226.065 1172.41 229.676 1172.41 Q233.31 1172.41 235.116 1168.87 Q236.945 1165.3 236.945 1158.19 Q236.945 1151.06 235.116 1147.52 Q233.31 1143.96 229.676 1143.96 M229.676 1140.25 Q235.486 1140.25 238.542 1144.86 Q241.621 1149.44 241.621 1158.19 Q241.621 1166.92 238.542 1171.53 Q235.486 1176.11 229.676 1176.11 Q223.866 1176.11 220.787 1171.53 Q217.732 1166.92 217.732 1158.19 Q217.732 1149.44 220.787 1144.86 Q223.866 1140.25 229.676 1140.25 Z" fill="#000000" fill-rule="nonzero" fill-opacity="1" /><path clip-path="url(#clip100)" d="M135.672 1024.51 L165.348 1024.51 L165.348 1028.44 L135.672 1028.44 L135.672 1024.51 Z" fill="#000000" fill-rule="nonzero" fill-opacity="1" /><path clip-path="url(#clip100)" d="M185.44 1009.85 Q181.829 1009.85 180.001 1013.42 Q178.195 1016.96 178.195 1024.09 Q178.195 1031.2 180.001 1034.76 Q181.829 1038.3 185.44 1038.3 Q189.075 1038.3 190.88 1034.76 Q192.709 1031.2 192.709 1024.09 Q192.709 1016.96 190.88 1013.42 Q189.075 1009.85 185.44 1009.85 M185.44 1006.15 Q191.25 1006.15 194.306 1010.76 Q197.385 1015.34 197.385 1024.09 Q197.385 1032.82 194.306 1037.42 Q191.25 1042.01 185.44 1042.01 Q179.63 1042.01 176.551 1037.42 Q173.496 1032.82 173.496 1024.09 Q173.496 1015.34 176.551 1010.76 Q179.63 1006.15 185.44 1006.15 Z" fill="#000000" fill-rule="nonzero" fill-opacity="1" /><path clip-path="url(#clip100)" d="M205.602 1035.46 L210.486 1035.46 L210.486 1041.34 L205.602 1041.34 L205.602 1035.46 Z" fill="#000000" fill-rule="nonzero" fill-opacity="1" /><path clip-path="url(#clip100)" d="M220.718 1006.78 L239.074 1006.78 L239.074 1010.71 L225 1010.71 L225 1019.18 Q226.019 1018.84 227.037 1018.67 Q228.056 1018.49 229.074 1018.49 Q234.861 1018.49 238.241 1021.66 Q241.621 1024.83 241.621 1030.25 Q241.621 1035.83 238.148 1038.93 Q234.676 1042.01 228.357 1042.01 Q226.181 1042.01 223.912 1041.64 Q221.667 1041.27 219.26 1040.53 L219.26 1035.83 Q221.343 1036.96 223.565 1037.52 Q225.787 1038.07 228.264 1038.07 Q232.269 1038.07 234.607 1035.97 Q236.945 1033.86 236.945 1030.25 Q236.945 1026.64 234.607 1024.53 Q232.269 1022.42 228.264 1022.42 Q226.389 1022.42 224.514 1022.84 Q222.662 1023.26 220.718 1024.14 L220.718 1006.78 Z" fill="#000000" fill-rule="nonzero" fill-opacity="1" /><path clip-path="url(#clip100)" d="M184.445 875.751 Q180.834 875.751 179.005 879.316 Q177.2 882.857 177.2 889.987 Q177.2 897.093 179.005 900.658 Q180.834 904.2 184.445 904.2 Q188.079 904.2 189.885 900.658 Q191.713 897.093 191.713 889.987 Q191.713 882.857 189.885 879.316 Q188.079 875.751 184.445 875.751 M184.445 872.047 Q190.255 872.047 193.311 876.654 Q196.389 881.237 196.389 889.987 Q196.389 898.714 193.311 903.32 Q190.255 907.904 184.445 907.904 Q178.635 907.904 175.556 903.32 Q172.501 898.714 172.501 889.987 Q172.501 881.237 175.556 876.654 Q178.635 872.047 184.445 872.047 Z" fill="#000000" fill-rule="nonzero" fill-opacity="1" /><path clip-path="url(#clip100)" d="M204.607 901.353 L209.491 901.353 L209.491 907.232 L204.607 907.232 L204.607 901.353 Z" fill="#000000" fill-rule="nonzero" fill-opacity="1" /><path clip-path="url(#clip100)" d="M229.676 875.751 Q226.065 875.751 224.236 879.316 Q222.431 882.857 222.431 889.987 Q222.431 897.093 224.236 900.658 Q226.065 904.2 229.676 904.2 Q233.31 904.2 235.116 900.658 Q236.945 897.093 236.945 889.987 Q236.945 882.857 235.116 879.316 Q233.31 875.751 229.676 875.751 M229.676 872.047 Q235.486 872.047 238.542 876.654 Q241.621 881.237 241.621 889.987 Q241.621 898.714 238.542 903.32 Q235.486 907.904 229.676 907.904 Q223.866 907.904 220.787 903.32 Q217.732 898.714 217.732 889.987 Q217.732 881.237 220.787 876.654 Q223.866 872.047 229.676 872.047 Z" fill="#000000" fill-rule="nonzero" fill-opacity="1" /><path clip-path="url(#clip100)" d="M42.1344 1120.2 Q42.5853 1120.2 43.648 1120.49 L68.833 1126.8 Q74.4369 1128.19 78.366 1132.69 Q82.2951 1137.17 82.2951 1142.26 Q82.2951 1145.32 80.6526 1147.28 Q79.0423 1149.25 76.5624 1149.25 Q74.3724 1149.25 73.3096 1148.09 Q72.2791 1146.93 72.2791 1145.54 Q72.2791 1145.09 72.4079 1144.61 Q72.5367 1144.13 73.0842 1143.61 Q73.6317 1143.1 74.5657 1143.1 Q76.0794 1143.1 77.271 1144.42 Q77.8185 1145.06 77.9473 1145.67 Q78.0761 1146.25 78.0761 1147.25 Q78.9779 1146.86 79.5898 1146.16 Q80.2017 1145.45 80.4271 1144.64 Q80.6848 1143.84 80.7492 1143.32 Q80.8458 1142.77 80.8458 1142.26 Q80.8458 1138.14 76.6913 1134.98 Q75.4352 1134.05 74.1792 1133.37 Q72.9554 1132.66 71.4417 1132.15 Q69.9602 1131.63 69.1551 1131.41 Q68.3499 1131.15 66.5142 1130.7 Q69.5094 1133.69 69.5094 1137.36 Q69.5094 1138.91 69.0907 1140.29 Q68.672 1141.65 67.8024 1142.84 Q66.9007 1144.03 65.3226 1144.74 Q63.7445 1145.42 61.6511 1145.42 Q59.4289 1145.42 56.4016 1144.55 Q53.3742 1143.68 47.8026 1141.58 Q44.6786 1140.46 43.165 1140.46 Q42.4242 1140.46 41.9733 1140.62 Q41.4903 1140.78 41.3292 1141.1 Q41.136 1141.42 41.1038 1141.61 Q41.0716 1141.78 41.0716 1142.1 Q41.0716 1144 43.0039 1145.77 Q44.9363 1147.54 49.2519 1148.76 Q50.057 1149.02 50.2503 1149.18 Q50.4435 1149.34 50.4435 1149.83 Q50.4113 1150.63 49.7672 1150.63 Q49.5095 1150.63 48.5111 1150.34 Q47.4805 1150.05 45.9669 1149.38 Q44.421 1148.67 43.0361 1147.7 Q41.6191 1146.74 40.6207 1145.22 Q39.6223 1143.68 39.6223 1141.9 Q39.6223 1139.49 41.2004 1138.01 Q42.7463 1136.49 45.0329 1136.49 Q45.9669 1136.49 46.8042 1136.75 Q47.6094 1136.98 49.7672 1137.81 Q58.4627 1141.2 62.7139 1141.2 Q63.7445 1141.2 64.6141 1141.04 Q65.4514 1140.84 66.2888 1140.42 Q67.0939 1140 67.577 1139.17 Q68.0279 1138.3 68.0279 1137.11 Q68.0279 1135.59 67.3194 1134.18 Q66.5786 1132.73 65.5802 1131.82 Q64.5819 1130.89 63.7445 1130.34 Q62.8749 1129.76 62.4241 1129.63 L50.5723 1126.67 L45.2905 1125.35 Q42.4242 1124.74 41.7157 1124.45 Q41.0394 1124.06 40.6851 1123.39 Q40.3308 1122.71 40.3308 1122.13 Q40.3308 1121.33 40.8139 1120.78 Q41.297 1120.2 42.1344 1120.2 Z" fill="#000000" fill-rule="nonzero" fill-opacity="1" /><path clip-path="url(#clip100)" d="M100.436 1113.45 Q99.6017 1113.45 99.3537 1113.38 Q99.1057 1113.29 98.7225 1112.93 L88.8481 1104.07 Q83.3925 1099.23 78.6357 1099.23 Q75.5471 1099.23 73.3378 1100.85 Q71.1285 1102.45 71.1285 1105.4 Q71.1285 1107.43 72.3684 1109.15 Q73.6083 1110.86 75.8176 1111.65 Q75.7726 1111.51 75.7726 1111.04 Q75.7726 1109.89 76.494 1109.26 Q77.2154 1108.61 78.1848 1108.61 Q79.4247 1108.61 80.0334 1109.42 Q80.6195 1110.21 80.6195 1110.99 Q80.6195 1111.31 80.5519 1111.74 Q80.4843 1112.14 79.853 1112.8 Q79.1993 1113.45 78.0495 1113.45 Q74.8257 1113.45 72.2557 1111.02 Q69.6857 1108.56 69.6857 1104.82 Q69.6857 1100.58 72.2106 1097.81 Q74.713 1095.01 78.6357 1095.01 Q80.0109 1095.01 81.2733 1095.44 Q82.5132 1095.85 83.4826 1096.41 Q84.452 1096.95 86.0076 1098.44 Q87.5631 1099.93 88.6678 1101.12 Q89.7724 1102.32 92.117 1105 L96.8738 1109.89 L96.8738 1101.57 Q96.8738 1097.51 96.5131 1097.2 Q95.8594 1096.75 92.4101 1096.18 L92.4101 1095.01 L100.436 1096.32 L100.436 1113.45 Z" fill="#000000" fill-rule="nonzero" fill-opacity="1" /><polyline clip-path="url(#clip103)" style="stroke:#009af9; stroke-linecap:round; stroke-linejoin:round; stroke-width:4; stroke-opacity:1; fill:none" points="302.677,889.952 327.243,889.952 351.809,1405.98 376.374,970.174 400.94,832.805 425.505,918.544 450.071,902.909 474.637,886.487 499.202,881.341 523.768,879.529 548.333,878.471 572.899,878.299 597.464,878.912 622.03,880.01 646.596,881.346 671.161,882.752 695.727,884.115 720.292,885.366 744.858,886.464 769.424,887.394 793.989,888.156 818.555,888.762 843.12,889.229 867.686,889.575 892.251,889.822 916.817,889.99 941.383,890.095 965.948,890.154 990.514,890.178 1015.08,890.18 1039.64,890.166 1064.21,890.143 1088.78,890.116 1113.34,890.089 1137.91,890.062 "/>
<path clip-path="url(#clip100)" d="M1467.41 1423.18 L2352.76 1423.18 L2352.76 47.2441 L1467.41 47.2441  Z" fill="#ffffff" fill-rule="evenodd" fill-opacity="1"/>
<defs>
  <clipPath id="clip104">
    <rect x="1467" y="47" width="886" height="1377"/>
  </clipPath>
</defs>
<polyline clip-path="url(#clip104)" style="stroke:#000000; stroke-linecap:round; stroke-linejoin:round; stroke-width:2; stroke-opacity:0.1; fill:none" points="1492.47,1423.18 1492.47,47.2441 "/>
<polyline clip-path="url(#clip104)" style="stroke:#000000; stroke-linecap:round; stroke-linejoin:round; stroke-width:2; stroke-opacity:0.1; fill:none" points="1738.13,1423.18 1738.13,47.2441 "/>
<polyline clip-path="url(#clip104)" style="stroke:#000000; stroke-linecap:round; stroke-linejoin:round; stroke-width:2; stroke-opacity:0.1; fill:none" points="1983.78,1423.18 1983.78,47.2441 "/>
<polyline clip-path="url(#clip104)" style="stroke:#000000; stroke-linecap:round; stroke-linejoin:round; stroke-width:2; stroke-opacity:0.1; fill:none" points="2229.44,1423.18 2229.44,47.2441 "/>
<polyline clip-path="url(#clip100)" style="stroke:#000000; stroke-linecap:round; stroke-linejoin:round; stroke-width:4; stroke-opacity:1; fill:none" points="1467.41,1423.18 2352.76,1423.18 "/>
<polyline clip-path="url(#clip100)" style="stroke:#000000; stroke-linecap:round; stroke-linejoin:round; stroke-width:4; stroke-opacity:1; fill:none" points="1492.47,1423.18 1492.47,1404.28 "/>
<polyline clip-path="url(#clip100)" style="stroke:#000000; stroke-linecap:round; stroke-linejoin:round; stroke-width:4; stroke-opacity:1; fill:none" points="1738.13,1423.18 1738.13,1404.28 "/>
<polyline clip-path="url(#clip100)" style="stroke:#000000; stroke-linecap:round; stroke-linejoin:round; stroke-width:4; stroke-opacity:1; fill:none" points="1983.78,1423.18 1983.78,1404.28 "/>
<polyline clip-path="url(#clip100)" style="stroke:#000000; stroke-linecap:round; stroke-linejoin:round; stroke-width:4; stroke-opacity:1; fill:none" points="2229.44,1423.18 2229.44,1404.28 "/>
<path clip-path="url(#clip100)" d="M1492.47 1454.1 Q1488.86 1454.1 1487.03 1457.66 Q1485.22 1461.2 1485.22 1468.33 Q1485.22 1475.44 1487.03 1479.01 Q1488.86 1482.55 1492.47 1482.55 Q1496.1 1482.55 1497.91 1479.01 Q1499.74 1475.44 1499.74 1468.33 Q1499.74 1461.2 1497.91 1457.66 Q1496.1 1454.1 1492.47 1454.1 M1492.47 1450.39 Q1498.28 1450.39 1501.33 1455 Q1504.41 1459.58 1504.41 1468.33 Q1504.41 1477.06 1501.33 1481.67 Q1498.28 1486.25 1492.47 1486.25 Q1486.66 1486.25 1483.58 1481.67 Q1480.52 1477.06 1480.52 1468.33 Q1480.52 1459.58 1483.58 1455 Q1486.66 1450.39 1492.47 1450.39 Z" fill="#000000" fill-rule="nonzero" fill-opacity="1" /><path clip-path="url(#clip100)" d="M1728.51 1481.64 L1736.15 1481.64 L1736.15 1455.28 L1727.84 1456.95 L1727.84 1452.69 L1736.1 1451.02 L1740.78 1451.02 L1740.78 1481.64 L1748.41 1481.64 L1748.41 1485.58 L1728.51 1485.58 L1728.51 1481.64 Z" fill="#000000" fill-rule="nonzero" fill-opacity="1" /><path clip-path="url(#clip100)" d="M1978.43 1481.64 L1994.75 1481.64 L1994.75 1485.58 L1972.81 1485.58 L1972.81 1481.64 Q1975.47 1478.89 1980.05 1474.26 Q1984.66 1469.61 1985.84 1468.27 Q1988.09 1465.74 1988.97 1464.01 Q1989.87 1462.25 1989.87 1460.56 Q1989.87 1457.8 1987.92 1456.07 Q1986 1454.33 1982.9 1454.33 Q1980.7 1454.33 1978.25 1455.09 Q1975.82 1455.86 1973.04 1457.41 L1973.04 1452.69 Q1975.86 1451.55 1978.32 1450.97 Q1980.77 1450.39 1982.81 1450.39 Q1988.18 1450.39 1991.37 1453.08 Q1994.57 1455.77 1994.57 1460.26 Q1994.57 1462.39 1993.76 1464.31 Q1992.97 1466.2 1990.86 1468.8 Q1990.29 1469.47 1987.18 1472.69 Q1984.08 1475.88 1978.43 1481.64 Z" fill="#000000" fill-rule="nonzero" fill-opacity="1" /><path clip-path="url(#clip100)" d="M2233.68 1466.95 Q2237.04 1467.66 2238.92 1469.93 Q2240.81 1472.2 2240.81 1475.53 Q2240.81 1480.65 2237.3 1483.45 Q2233.78 1486.25 2227.3 1486.25 Q2225.12 1486.25 2222.8 1485.81 Q2220.51 1485.39 2218.06 1484.54 L2218.06 1480.02 Q2220 1481.16 2222.32 1481.74 Q2224.63 1482.32 2227.16 1482.32 Q2231.55 1482.32 2233.85 1480.58 Q2236.16 1478.84 2236.16 1475.53 Q2236.16 1472.48 2234.01 1470.77 Q2231.88 1469.03 2228.06 1469.03 L2224.03 1469.03 L2224.03 1465.19 L2228.24 1465.19 Q2231.69 1465.19 2233.52 1463.82 Q2235.35 1462.43 2235.35 1459.84 Q2235.35 1457.18 2233.45 1455.77 Q2231.58 1454.33 2228.06 1454.33 Q2226.14 1454.33 2223.94 1454.75 Q2221.74 1455.16 2219.1 1456.04 L2219.1 1451.88 Q2221.76 1451.14 2224.08 1450.77 Q2226.42 1450.39 2228.48 1450.39 Q2233.8 1450.39 2236.9 1452.83 Q2240 1455.23 2240 1459.35 Q2240 1462.22 2238.36 1464.21 Q2236.72 1466.18 2233.68 1466.95 Z" fill="#000000" fill-rule="nonzero" fill-opacity="1" /><path clip-path="url(#clip100)" d="M1780.26 1520.52 L1820.45 1520.52 L1820.45 1525.93 L1803.59 1525.93 L1803.59 1568.04 L1797.12 1568.04 L1797.12 1525.93 L1780.26 1525.93 L1780.26 1520.52 Z" fill="#000000" fill-rule="nonzero" fill-opacity="1" /><path clip-path="url(#clip100)" d="M1824.4 1532.4 L1830.26 1532.4 L1830.26 1568.04 L1824.4 1568.04 L1824.4 1532.4 M1824.4 1518.52 L1830.26 1518.52 L1830.26 1525.93 L1824.4 1525.93 L1824.4 1518.52 Z" fill="#000000" fill-rule="nonzero" fill-opacity="1" /><path clip-path="url(#clip100)" d="M1870.27 1539.24 Q1872.46 1535.29 1875.52 1533.41 Q1878.57 1531.54 1882.71 1531.54 Q1888.28 1531.54 1891.31 1535.45 Q1894.33 1539.33 1894.33 1546.53 L1894.33 1568.04 L1888.44 1568.04 L1888.44 1546.72 Q1888.44 1541.59 1886.63 1539.11 Q1884.81 1536.63 1881.09 1536.63 Q1876.54 1536.63 1873.9 1539.65 Q1871.25 1542.68 1871.25 1547.9 L1871.25 1568.04 L1865.37 1568.04 L1865.37 1546.72 Q1865.37 1541.56 1863.55 1539.11 Q1861.74 1536.63 1857.95 1536.63 Q1853.46 1536.63 1850.82 1539.68 Q1848.18 1542.71 1848.18 1547.9 L1848.18 1568.04 L1842.29 1568.04 L1842.29 1532.4 L1848.18 1532.4 L1848.18 1537.93 Q1850.18 1534.66 1852.98 1533.1 Q1855.78 1531.54 1859.64 1531.54 Q1863.52 1531.54 1866.22 1533.51 Q1868.96 1535.48 1870.27 1539.24 Z" fill="#000000" fill-rule="nonzero" fill-opacity="1" /><path clip-path="url(#clip100)" d="M1936.5 1548.76 L1936.5 1551.62 L1909.57 1551.62 Q1909.96 1557.67 1913.2 1560.85 Q1916.48 1564 1922.31 1564 Q1925.68 1564 1928.83 1563.17 Q1932.01 1562.35 1935.13 1560.69 L1935.13 1566.23 Q1931.98 1567.57 1928.67 1568.27 Q1925.36 1568.97 1921.96 1568.97 Q1913.43 1568.97 1908.43 1564 Q1903.46 1559.04 1903.46 1550.57 Q1903.46 1541.82 1908.17 1536.69 Q1912.92 1531.54 1920.94 1531.54 Q1928.13 1531.54 1932.3 1536.18 Q1936.5 1540.8 1936.5 1548.76 M1930.65 1547.04 Q1930.58 1542.23 1927.94 1539.37 Q1925.33 1536.5 1921 1536.5 Q1916.1 1536.5 1913.14 1539.27 Q1910.21 1542.04 1909.77 1547.07 L1930.65 1547.04 Z" fill="#000000" fill-rule="nonzero" fill-opacity="1" /><path clip-path="url(#clip100)" d="M1980.9 1518.58 Q1976.64 1525.9 1974.57 1533.06 Q1972.5 1540.23 1972.5 1547.58 Q1972.5 1554.93 1974.57 1562.16 Q1976.67 1569.35 1980.9 1576.64 L1975.81 1576.64 Q1971.04 1569.16 1968.65 1561.93 Q1966.29 1554.71 1966.29 1547.58 Q1966.29 1540.48 1968.65 1533.29 Q1971 1526.09 1975.81 1518.58 L1980.9 1518.58 Z" fill="#000000" fill-rule="nonzero" fill-opacity="1" /><path clip-path="url(#clip100)" d="M2014.99 1533.45 L2014.99 1538.98 Q2012.51 1537.71 2009.83 1537.07 Q2007.16 1536.44 2004.3 1536.44 Q1999.94 1536.44 1997.74 1537.77 Q1995.58 1539.11 1995.58 1541.79 Q1995.58 1543.82 1997.14 1545 Q1998.69 1546.15 2003.41 1547.2 L2005.41 1547.64 Q2011.65 1548.98 2014.26 1551.43 Q2016.9 1553.85 2016.9 1558.21 Q2016.9 1563.17 2012.95 1566.07 Q2009.04 1568.97 2002.16 1568.97 Q1999.3 1568.97 1996.18 1568.39 Q1993.09 1567.85 1989.66 1566.74 L1989.66 1560.69 Q1992.9 1562.38 1996.05 1563.24 Q1999.2 1564.07 2002.29 1564.07 Q2006.43 1564.07 2008.66 1562.66 Q2010.89 1561.23 2010.89 1558.65 Q2010.89 1556.27 2009.26 1554.99 Q2007.67 1553.72 2002.23 1552.54 L2000.19 1552.07 Q1994.75 1550.92 1992.33 1548.56 Q1989.91 1546.18 1989.91 1542.04 Q1989.91 1537.01 1993.47 1534.27 Q1997.04 1531.54 2003.6 1531.54 Q2006.84 1531.54 2009.71 1532.01 Q2012.57 1532.49 2014.99 1533.45 Z" fill="#000000" fill-rule="nonzero" fill-opacity="1" /><path clip-path="url(#clip100)" d="M2025.3 1518.58 L2030.4 1518.58 Q2035.17 1526.09 2037.53 1533.29 Q2039.91 1540.48 2039.91 1547.58 Q2039.91 1554.71 2037.53 1561.93 Q2035.17 1569.16 2030.4 1576.64 L2025.3 1576.64 Q2029.54 1569.35 2031.61 1562.16 Q2033.71 1554.93 2033.71 1547.58 Q2033.71 1540.23 2031.61 1533.06 Q2029.54 1525.9 2025.3 1518.58 Z" fill="#000000" fill-rule="nonzero" fill-opacity="1" /><polyline clip-path="url(#clip104)" style="stroke:#000000; stroke-linecap:round; stroke-linejoin:round; stroke-width:2; stroke-opacity:0.1; fill:none" points="1467.41,1384.24 2352.76,1384.24 "/>
<polyline clip-path="url(#clip104)" style="stroke:#000000; stroke-linecap:round; stroke-linejoin:round; stroke-width:2; stroke-opacity:0.1; fill:none" points="1467.41,1167.9 2352.76,1167.9 "/>
<polyline clip-path="url(#clip104)" style="stroke:#000000; stroke-linecap:round; stroke-linejoin:round; stroke-width:2; stroke-opacity:0.1; fill:none" points="1467.41,951.554 2352.76,951.554 "/>
<polyline clip-path="url(#clip104)" style="stroke:#000000; stroke-linecap:round; stroke-linejoin:round; stroke-width:2; stroke-opacity:0.1; fill:none" points="1467.41,735.212 2352.76,735.212 "/>
<polyline clip-path="url(#clip104)" style="stroke:#000000; stroke-linecap:round; stroke-linejoin:round; stroke-width:2; stroke-opacity:0.1; fill:none" points="1467.41,518.87 2352.76,518.87 "/>
<polyline clip-path="url(#clip104)" style="stroke:#000000; stroke-linecap:round; stroke-linejoin:round; stroke-width:2; stroke-opacity:0.1; fill:none" points="1467.41,302.528 2352.76,302.528 "/>
<polyline clip-path="url(#clip104)" style="stroke:#000000; stroke-linecap:round; stroke-linejoin:round; stroke-width:2; stroke-opacity:0.1; fill:none" points="1467.41,86.1857 2352.76,86.1857 "/>
<polyline clip-path="url(#clip100)" style="stroke:#000000; stroke-linecap:round; stroke-linejoin:round; stroke-width:4; stroke-opacity:1; fill:none" points="1467.41,1423.18 1467.41,47.2441 "/>
<polyline clip-path="url(#clip100)" style="stroke:#000000; stroke-linecap:round; stroke-linejoin:round; stroke-width:4; stroke-opacity:1; fill:none" points="1467.41,1384.24 1486.31,1384.24 "/>
<polyline clip-path="url(#clip100)" style="stroke:#000000; stroke-linecap:round; stroke-linejoin:round; stroke-width:4; stroke-opacity:1; fill:none" points="1467.41,1167.9 1486.31,1167.9 "/>
<polyline clip-path="url(#clip100)" style="stroke:#000000; stroke-linecap:round; stroke-linejoin:round; stroke-width:4; stroke-opacity:1; fill:none" points="1467.41,951.554 1486.31,951.554 "/>
<polyline clip-path="url(#clip100)" style="stroke:#000000; stroke-linecap:round; stroke-linejoin:round; stroke-width:4; stroke-opacity:1; fill:none" points="1467.41,735.212 1486.31,735.212 "/>
<polyline clip-path="url(#clip100)" style="stroke:#000000; stroke-linecap:round; stroke-linejoin:round; stroke-width:4; stroke-opacity:1; fill:none" points="1467.41,518.87 1486.31,518.87 "/>
<polyline clip-path="url(#clip100)" style="stroke:#000000; stroke-linecap:round; stroke-linejoin:round; stroke-width:4; stroke-opacity:1; fill:none" points="1467.41,302.528 1486.31,302.528 "/>
<polyline clip-path="url(#clip100)" style="stroke:#000000; stroke-linecap:round; stroke-linejoin:round; stroke-width:4; stroke-opacity:1; fill:none" points="1467.41,86.1857 1486.31,86.1857 "/>
<path clip-path="url(#clip100)" d="M1325.46 1384.69 L1355.14 1384.69 L1355.14 1388.62 L1325.46 1388.62 L1325.46 1384.69 Z" fill="#000000" fill-rule="nonzero" fill-opacity="1" /><path clip-path="url(#clip100)" d="M1366.04 1397.58 L1373.68 1397.58 L1373.68 1371.22 L1365.37 1372.88 L1365.37 1368.62 L1373.63 1366.96 L1378.31 1366.96 L1378.31 1397.58 L1385.95 1397.58 L1385.95 1401.52 L1366.04 1401.52 L1366.04 1397.58 Z" fill="#000000" fill-rule="nonzero" fill-opacity="1" /><path clip-path="url(#clip100)" d="M1395.39 1395.64 L1400.28 1395.64 L1400.28 1401.52 L1395.39 1401.52 L1395.39 1395.64 Z" fill="#000000" fill-rule="nonzero" fill-opacity="1" /><path clip-path="url(#clip100)" d="M1410.51 1366.96 L1428.87 1366.96 L1428.87 1370.89 L1414.79 1370.89 L1414.79 1379.37 Q1415.81 1379.02 1416.83 1378.86 Q1417.85 1378.67 1418.87 1378.67 Q1424.65 1378.67 1428.03 1381.84 Q1431.41 1385.01 1431.41 1390.43 Q1431.41 1396.01 1427.94 1399.11 Q1424.47 1402.19 1418.15 1402.19 Q1415.97 1402.19 1413.7 1401.82 Q1411.46 1401.45 1409.05 1400.71 L1409.05 1396.01 Q1411.13 1397.14 1413.36 1397.7 Q1415.58 1398.25 1418.06 1398.25 Q1422.06 1398.25 1424.4 1396.15 Q1426.74 1394.04 1426.74 1390.43 Q1426.74 1386.82 1424.4 1384.71 Q1422.06 1382.61 1418.06 1382.61 Q1416.18 1382.61 1414.31 1383.02 Q1412.45 1383.44 1410.51 1384.32 L1410.51 1366.96 Z" fill="#000000" fill-rule="nonzero" fill-opacity="1" /><path clip-path="url(#clip100)" d="M1324.47 1168.35 L1354.14 1168.35 L1354.14 1172.28 L1324.47 1172.28 L1324.47 1168.35 Z" fill="#000000" fill-rule="nonzero" fill-opacity="1" /><path clip-path="url(#clip100)" d="M1365.05 1181.24 L1372.69 1181.24 L1372.69 1154.88 L1364.38 1156.54 L1364.38 1152.28 L1372.64 1150.62 L1377.32 1150.62 L1377.32 1181.24 L1384.95 1181.24 L1384.95 1185.18 L1365.05 1185.18 L1365.05 1181.24 Z" fill="#000000" fill-rule="nonzero" fill-opacity="1" /><path clip-path="url(#clip100)" d="M1394.4 1179.3 L1399.28 1179.3 L1399.28 1185.18 L1394.4 1185.18 L1394.4 1179.3 Z" fill="#000000" fill-rule="nonzero" fill-opacity="1" /><path clip-path="url(#clip100)" d="M1419.47 1153.69 Q1415.86 1153.69 1414.03 1157.26 Q1412.22 1160.8 1412.22 1167.93 Q1412.22 1175.04 1414.03 1178.6 Q1415.86 1182.14 1419.47 1182.14 Q1423.1 1182.14 1424.91 1178.6 Q1426.74 1175.04 1426.74 1167.93 Q1426.74 1160.8 1424.91 1157.26 Q1423.1 1153.69 1419.47 1153.69 M1419.47 1149.99 Q1425.28 1149.99 1428.33 1154.6 Q1431.41 1159.18 1431.41 1167.93 Q1431.41 1176.66 1428.33 1181.26 Q1425.28 1185.85 1419.47 1185.85 Q1413.66 1185.85 1410.58 1181.26 Q1407.52 1176.66 1407.52 1167.93 Q1407.52 1159.18 1410.58 1154.6 Q1413.66 1149.99 1419.47 1149.99 Z" fill="#000000" fill-rule="nonzero" fill-opacity="1" /><path clip-path="url(#clip100)" d="M1325.46 952.005 L1355.14 952.005 L1355.14 955.941 L1325.46 955.941 L1325.46 952.005 Z" fill="#000000" fill-rule="nonzero" fill-opacity="1" /><path clip-path="url(#clip100)" d="M1375.23 937.353 Q1371.62 937.353 1369.79 940.918 Q1367.99 944.459 1367.99 951.589 Q1367.99 958.695 1369.79 962.26 Q1371.62 965.802 1375.23 965.802 Q1378.87 965.802 1380.67 962.26 Q1382.5 958.695 1382.5 951.589 Q1382.5 944.459 1380.67 940.918 Q1378.87 937.353 1375.23 937.353 M1375.23 933.649 Q1381.04 933.649 1384.1 938.256 Q1387.18 942.839 1387.18 951.589 Q1387.18 960.316 1384.1 964.922 Q1381.04 969.505 1375.23 969.505 Q1369.42 969.505 1366.34 964.922 Q1363.29 960.316 1363.29 951.589 Q1363.29 942.839 1366.34 938.256 Q1369.42 933.649 1375.23 933.649 Z" fill="#000000" fill-rule="nonzero" fill-opacity="1" /><path clip-path="url(#clip100)" d="M1395.39 962.954 L1400.28 962.954 L1400.28 968.834 L1395.39 968.834 L1395.39 962.954 Z" fill="#000000" fill-rule="nonzero" fill-opacity="1" /><path clip-path="url(#clip100)" d="M1410.51 934.274 L1428.87 934.274 L1428.87 938.209 L1414.79 938.209 L1414.79 946.681 Q1415.81 946.334 1416.83 946.172 Q1417.85 945.987 1418.87 945.987 Q1424.65 945.987 1428.03 949.158 Q1431.41 952.33 1431.41 957.746 Q1431.41 963.325 1427.94 966.427 Q1424.47 969.505 1418.15 969.505 Q1415.97 969.505 1413.7 969.135 Q1411.46 968.765 1409.05 968.024 L1409.05 963.325 Q1411.13 964.459 1413.36 965.015 Q1415.58 965.57 1418.06 965.57 Q1422.06 965.57 1424.4 963.464 Q1426.74 961.357 1426.74 957.746 Q1426.74 954.135 1424.4 952.029 Q1422.06 949.922 1418.06 949.922 Q1416.18 949.922 1414.31 950.339 Q1412.45 950.755 1410.51 951.635 L1410.51 934.274 Z" fill="#000000" fill-rule="nonzero" fill-opacity="1" /><path clip-path="url(#clip100)" d="M1374.24 721.011 Q1370.63 721.011 1368.8 724.575 Q1366.99 728.117 1366.99 735.247 Q1366.99 742.353 1368.8 745.918 Q1370.63 749.46 1374.24 749.46 Q1377.87 749.46 1379.68 745.918 Q1381.51 742.353 1381.51 735.247 Q1381.51 728.117 1379.68 724.575 Q1377.87 721.011 1374.24 721.011 M1374.24 717.307 Q1380.05 717.307 1383.1 721.913 Q1386.18 726.497 1386.18 735.247 Q1386.18 743.973 1383.1 748.58 Q1380.05 753.163 1374.24 753.163 Q1368.43 753.163 1365.35 748.58 Q1362.29 743.973 1362.29 735.247 Q1362.29 726.497 1365.35 721.913 Q1368.43 717.307 1374.24 717.307 Z" fill="#000000" fill-rule="nonzero" fill-opacity="1" /><path clip-path="url(#clip100)" d="M1394.4 746.612 L1399.28 746.612 L1399.28 752.492 L1394.4 752.492 L1394.4 746.612 Z" fill="#000000" fill-rule="nonzero" fill-opacity="1" /><path clip-path="url(#clip100)" d="M1419.47 721.011 Q1415.86 721.011 1414.03 724.575 Q1412.22 728.117 1412.22 735.247 Q1412.22 742.353 1414.03 745.918 Q1415.86 749.46 1419.47 749.46 Q1423.1 749.46 1424.91 745.918 Q1426.74 742.353 1426.74 735.247 Q1426.74 728.117 1424.91 724.575 Q1423.1 721.011 1419.47 721.011 M1419.47 717.307 Q1425.28 717.307 1428.33 721.913 Q1431.41 726.497 1431.41 735.247 Q1431.41 743.973 1428.33 748.58 Q1425.28 753.163 1419.47 753.163 Q1413.66 753.163 1410.58 748.58 Q1407.52 743.973 1407.52 735.247 Q1407.52 726.497 1410.58 721.913 Q1413.66 717.307 1419.47 717.307 Z" fill="#000000" fill-rule="nonzero" fill-opacity="1" /><path clip-path="url(#clip100)" d="M1375.23 504.669 Q1371.62 504.669 1369.79 508.233 Q1367.99 511.775 1367.99 518.905 Q1367.99 526.011 1369.79 529.576 Q1371.62 533.117 1375.23 533.117 Q1378.87 533.117 1380.67 529.576 Q1382.5 526.011 1382.5 518.905 Q1382.5 511.775 1380.67 508.233 Q1378.87 504.669 1375.23 504.669 M1375.23 500.965 Q1381.04 500.965 1384.1 505.571 Q1387.18 510.155 1387.18 518.905 Q1387.18 527.631 1384.1 532.238 Q1381.04 536.821 1375.23 536.821 Q1369.42 536.821 1366.34 532.238 Q1363.29 527.631 1363.29 518.905 Q1363.29 510.155 1366.34 505.571 Q1369.42 500.965 1375.23 500.965 Z" fill="#000000" fill-rule="nonzero" fill-opacity="1" /><path clip-path="url(#clip100)" d="M1395.39 530.27 L1400.28 530.27 L1400.28 536.15 L1395.39 536.15 L1395.39 530.27 Z" fill="#000000" fill-rule="nonzero" fill-opacity="1" /><path clip-path="url(#clip100)" d="M1410.51 501.59 L1428.87 501.59 L1428.87 505.525 L1414.79 505.525 L1414.79 513.997 Q1415.81 513.65 1416.83 513.488 Q1417.85 513.303 1418.87 513.303 Q1424.65 513.303 1428.03 516.474 Q1431.41 519.645 1431.41 525.062 Q1431.41 530.641 1427.94 533.742 Q1424.47 536.821 1418.15 536.821 Q1415.97 536.821 1413.7 536.451 Q1411.46 536.08 1409.05 535.34 L1409.05 530.641 Q1411.13 531.775 1413.36 532.33 Q1415.58 532.886 1418.06 532.886 Q1422.06 532.886 1424.4 530.78 Q1426.74 528.673 1426.74 525.062 Q1426.74 521.451 1424.4 519.344 Q1422.06 517.238 1418.06 517.238 Q1416.18 517.238 1414.31 517.655 Q1412.45 518.071 1410.51 518.951 L1410.51 501.59 Z" fill="#000000" fill-rule="nonzero" fill-opacity="1" /><path clip-path="url(#clip100)" d="M1365.05 315.873 L1372.69 315.873 L1372.69 289.507 L1364.38 291.174 L1364.38 286.914 L1372.64 285.248 L1377.32 285.248 L1377.32 315.873 L1384.95 315.873 L1384.95 319.808 L1365.05 319.808 L1365.05 315.873 Z" fill="#000000" fill-rule="nonzero" fill-opacity="1" /><path clip-path="url(#clip100)" d="M1394.4 313.928 L1399.28 313.928 L1399.28 319.808 L1394.4 319.808 L1394.4 313.928 Z" fill="#000000" fill-rule="nonzero" fill-opacity="1" /><path clip-path="url(#clip100)" d="M1419.47 288.326 Q1415.86 288.326 1414.03 291.891 Q1412.22 295.433 1412.22 302.562 Q1412.22 309.669 1414.03 313.234 Q1415.86 316.775 1419.47 316.775 Q1423.1 316.775 1424.91 313.234 Q1426.74 309.669 1426.74 302.562 Q1426.74 295.433 1424.91 291.891 Q1423.1 288.326 1419.47 288.326 M1419.47 284.623 Q1425.28 284.623 1428.33 289.229 Q1431.41 293.813 1431.41 302.562 Q1431.41 311.289 1428.33 315.896 Q1425.28 320.479 1419.47 320.479 Q1413.66 320.479 1410.58 315.896 Q1407.52 311.289 1407.52 302.562 Q1407.52 293.813 1410.58 289.229 Q1413.66 284.623 1419.47 284.623 Z" fill="#000000" fill-rule="nonzero" fill-opacity="1" /><path clip-path="url(#clip100)" d="M1366.04 99.5305 L1373.68 99.5305 L1373.68 73.1649 L1365.37 74.8316 L1365.37 70.5723 L1373.63 68.9057 L1378.31 68.9057 L1378.31 99.5305 L1385.95 99.5305 L1385.95 103.466 L1366.04 103.466 L1366.04 99.5305 Z" fill="#000000" fill-rule="nonzero" fill-opacity="1" /><path clip-path="url(#clip100)" d="M1395.39 97.5861 L1400.28 97.5861 L1400.28 103.466 L1395.39 103.466 L1395.39 97.5861 Z" fill="#000000" fill-rule="nonzero" fill-opacity="1" /><path clip-path="url(#clip100)" d="M1410.51 68.9057 L1428.87 68.9057 L1428.87 72.8408 L1414.79 72.8408 L1414.79 81.313 Q1415.81 80.9658 1416.83 80.8038 Q1417.85 80.6186 1418.87 80.6186 Q1424.65 80.6186 1428.03 83.7899 Q1431.41 86.9611 1431.41 92.3778 Q1431.41 97.9564 1427.94 101.058 Q1424.47 104.137 1418.15 104.137 Q1415.97 104.137 1413.7 103.767 Q1411.46 103.396 1409.05 102.655 L1409.05 97.9564 Q1411.13 99.0907 1413.36 99.6462 Q1415.58 100.202 1418.06 100.202 Q1422.06 100.202 1424.4 98.0953 Q1426.74 95.9889 1426.74 92.3778 Q1426.74 88.7667 1424.4 86.6602 Q1422.06 84.5537 1418.06 84.5537 Q1416.18 84.5537 1414.31 84.9704 Q1412.45 85.3871 1410.51 86.2667 L1410.51 68.9057 Z" fill="#000000" fill-rule="nonzero" fill-opacity="1" /><path clip-path="url(#clip100)" d="M1255.45 732.675 Q1259.61 733.512 1261.99 734.64 Q1265.63 736.475 1265.63 739.535 Q1265.63 741.661 1264.44 743.271 Q1263.21 744.849 1261.18 745.396 Q1261.99 746.008 1262.54 746.556 Q1263.08 747.071 1263.92 748.07 Q1264.73 749.068 1265.18 750.421 Q1265.63 751.741 1265.63 753.255 Q1265.63 754.414 1265.4 755.477 Q1265.21 756.54 1264.66 757.667 Q1264.08 758.762 1263.21 759.567 Q1262.34 760.34 1260.93 760.855 Q1259.51 761.371 1257.71 761.371 Q1255.45 761.371 1252.39 760.501 Q1249.33 759.599 1243.86 757.538 Q1240.96 756.411 1239.35 756.411 Q1238.61 756.411 1238.13 756.572 Q1237.64 756.733 1237.48 757.055 Q1237.29 757.345 1237.26 757.538 Q1237.19 757.731 1237.19 758.053 Q1237.19 760.05 1239.22 761.789 Q1241.25 763.528 1245.37 764.72 Q1246.18 764.978 1246.37 765.139 Q1246.56 765.3 1246.56 765.783 Q1246.53 766.588 1245.89 766.588 Q1245.63 766.588 1244.63 766.298 Q1243.6 766.008 1242.09 765.332 Q1240.54 764.623 1239.16 763.657 Q1237.74 762.691 1236.74 761.177 Q1235.74 759.631 1235.74 757.86 Q1235.74 755.445 1237.32 753.963 Q1238.87 752.45 1241.15 752.45 Q1242.57 752.45 1245.31 753.577 Q1254.81 757.152 1258.77 757.152 Q1264.15 757.152 1264.15 753.061 Q1264.15 751.709 1263.6 750.453 Q1263.05 749.165 1262.28 748.327 Q1261.51 747.49 1260.67 746.846 Q1259.83 746.169 1259.28 745.88 Q1258.74 745.557 1258.61 745.525 L1238.77 740.598 Q1238 740.405 1237.48 740.05 Q1236.93 739.664 1236.74 739.213 Q1236.55 738.762 1236.52 738.504 Q1236.45 738.247 1236.45 738.021 Q1236.45 737.216 1236.93 736.669 Q1237.42 736.089 1238.25 736.089 Q1238.42 736.089 1239.19 736.282 Q1239.93 736.443 1241.02 736.701 Q1242.09 736.959 1242.67 737.087 Q1246.72 738.118 1247.14 738.215 L1254.26 740.05 Q1254.68 740.147 1256.03 740.469 Q1257.38 740.759 1258.09 740.92 Q1258.77 741.081 1259.7 741.242 Q1260.61 741.371 1261.12 741.371 Q1262.73 741.371 1263.44 740.888 Q1264.15 740.405 1264.15 739.342 Q1264.15 738.343 1263.47 737.57 Q1262.76 736.765 1261.41 736.153 Q1260.03 735.541 1258.9 735.187 Q1257.77 734.833 1256 734.382 Q1255.23 734.221 1255.03 734.092 Q1254.81 733.931 1254.81 733.48 Q1254.81 732.675 1255.45 732.675 Z" fill="#000000" fill-rule="nonzero" fill-opacity="1" /><path clip-path="url(#clip100)" d="M1257.55 725.97 L1256.1 725.97 Q1256.1 720.424 1253.15 717.561 Q1253.15 716.772 1253.33 716.637 Q1253.51 716.501 1254.34 716.501 L1280.25 716.501 Q1281.62 716.501 1282.05 715.825 Q1282.48 715.149 1282.48 712.195 L1282.48 710.73 L1283.9 710.73 Q1283.76 712.353 1283.76 718.215 Q1283.76 724.076 1283.9 725.677 L1282.48 725.677 L1282.48 724.211 Q1282.48 721.303 1282.07 720.604 Q1281.64 719.905 1280.25 719.905 L1256.33 719.905 Q1257.55 722.318 1257.55 725.97 Z" fill="#000000" fill-rule="nonzero" fill-opacity="1" /><polyline clip-path="url(#clip104)" style="stroke:#009af9; stroke-linecap:round; stroke-linejoin:round; stroke-width:4; stroke-opacity:1; fill:none" points="1492.47,735.212 1517.03,735.212 1517.03,1224.28 1541.6,1224.28 1541.6,417.714 1566.17,417.714 1566.17,524.78 1590.73,524.78 1590.73,695.932 1615.3,695.932 1615.3,626.317 1639.86,626.317 1639.86,617.43 1664.43,617.43 1664.43,622.675 1688.99,622.675 1688.99,625.498 1713.56,625.498 1713.56,627.438 1738.13,627.438 1738.13,629.975 1762.69,629.975 1762.69,632.778 1787.26,632.778 1787.26,635.478 1811.82,635.478 1811.82,637.922 1836.39,637.922 1836.39,640.053 1860.95,640.053 1860.95,641.848 1885.52,641.848 1885.52,643.312 1910.08,643.312 1910.08,644.468 1934.65,644.468 1934.65,645.353 1959.22,645.353 1959.22,646.006 1983.78,646.006 1983.78,646.468 2008.35,646.468 2008.35,646.777 2032.91,646.777 2032.91,646.969 2057.48,646.969 2057.48,647.072 2082.04,647.072 2082.04,647.111 2106.61,647.111 2106.61,647.107 2131.17,647.107 2131.17,647.076 2155.74,647.076 2155.74,647.028 2180.31,647.028 2180.31,646.974 2204.87,646.974 2204.87,646.919 2229.44,646.919 2229.44,646.866 2254,646.866 2254,646.819 2278.57,646.819 2278.57,646.778 2303.13,646.778 2303.13,646.744 2327.7,646.744 2327.7,646.716 "/>
<polyline clip-path="url(#clip104)" style="stroke:#c271d2; stroke-linecap:round; stroke-linejoin:round; stroke-width:6; stroke-opacity:1; fill:none" stroke-dasharray="3, 6" points="1492.47,1384.24 1517.03,1384.24 1541.6,1384.24 1566.17,1384.24 1590.73,1384.24 1615.3,1384.24 1639.86,1384.24 1664.43,1384.24 1688.99,1384.24 1713.56,1384.24 1738.13,1384.24 1762.69,1384.24 1787.26,1384.24 1811.82,1384.24 1836.39,1384.24 1860.95,1384.24 1885.52,1384.24 1910.08,1384.24 1934.65,1384.24 1959.22,1384.24 1983.78,1384.24 2008.35,1384.24 2032.91,1384.24 2057.48,1384.24 2082.04,1384.24 2106.61,1384.24 2131.17,1384.24 2155.74,1384.24 2180.31,1384.24 2204.87,1384.24 2229.44,1384.24 2254,1384.24 2278.57,1384.24 2303.13,1384.24 2327.7,1384.24 "/>
<polyline clip-path="url(#clip104)" style="stroke:#ac8d18; stroke-linecap:round; stroke-linejoin:round; stroke-width:6; stroke-opacity:1; fill:none" stroke-dasharray="3, 6" points="1492.47,86.1857 1517.03,86.1857 1541.6,86.1857 1566.17,86.1857 1590.73,86.1857 1615.3,86.1857 1639.86,86.1857 1664.43,86.1857 1688.99,86.1857 1713.56,86.1857 1738.13,86.1857 1762.69,86.1857 1787.26,86.1857 1811.82,86.1857 1836.39,86.1857 1860.95,86.1857 1885.52,86.1857 1910.08,86.1857 1934.65,86.1857 1959.22,86.1857 1983.78,86.1857 2008.35,86.1857 2032.91,86.1857 2057.48,86.1857 2082.04,86.1857 2106.61,86.1857 2131.17,86.1857 2155.74,86.1857 2180.31,86.1857 2204.87,86.1857 2229.44,86.1857 2254,86.1857 2278.57,86.1857 2303.13,86.1857 2327.7,86.1857 "/>
<path clip-path="url(#clip100)" d="M2127.2 300.469 L2323.24 300.469 L2323.24 93.1086 L2127.2 93.1086  Z" fill="#ffffff" fill-rule="evenodd" fill-opacity="1"/>
<polyline clip-path="url(#clip100)" style="stroke:#000000; stroke-linecap:round; stroke-linejoin:round; stroke-width:4; stroke-opacity:1; fill:none" points="2127.2,300.469 2323.24,300.469 2323.24,93.1086 2127.2,93.1086 2127.2,300.469 "/>
<polyline clip-path="url(#clip100)" style="stroke:#009af9; stroke-linecap:round; stroke-linejoin:round; stroke-width:4; stroke-opacity:1; fill:none" points="2137.04,144.949 2196.06,144.949 "/>
<path clip-path="url(#clip100)" d="M2233.26 155.503 L2224.76 155.784 L2224.76 152.06 Q2222.58 155.784 2217.85 155.784 Q2215.9 155.784 2214.45 155.527 Q2213.02 155.269 2211.76 154.637 Q2210.52 153.981 2209.86 152.716 Q2209.2 151.451 2209.2 149.601 L2209.2 138.428 Q2209.2 137.07 2208.71 136.812 Q2208.22 136.555 2205.9 136.555 L2205.9 134.306 L2214.68 133.908 L2214.68 150.28 Q2214.68 151.428 2214.75 152.013 Q2214.85 152.576 2215.2 153.138 Q2215.57 153.676 2216.37 153.887 Q2217.17 154.075 2218.53 154.075 Q2221.17 154.075 2222.81 152.294 Q2224.48 150.514 2224.48 147.587 L2224.48 138.428 Q2224.48 137.07 2223.96 136.812 Q2223.47 136.555 2221.15 136.555 L2221.15 134.306 L2229.93 133.908 L2229.93 151.381 Q2229.93 152.739 2230.42 152.997 Q2230.94 153.255 2233.26 153.255 L2233.26 155.503 Z" fill="#000000" fill-rule="nonzero" fill-opacity="1" /><polyline clip-path="url(#clip100)" style="stroke:#c271d2; stroke-linecap:round; stroke-linejoin:round; stroke-width:6; stroke-opacity:1; fill:none" stroke-dasharray="3, 6" points="2137.04,196.789 2196.06,196.789 "/>
<path clip-path="url(#clip100)" d="M2233.26 200.508 L2224.76 200.79 L2224.76 197.065 Q2222.58 200.79 2217.85 200.79 Q2215.9 200.79 2214.45 200.532 Q2213.02 200.274 2211.76 199.642 Q2210.52 198.986 2209.86 197.721 Q2209.2 196.456 2209.2 194.606 L2209.2 183.434 Q2209.2 182.075 2208.71 181.817 Q2208.22 181.56 2205.9 181.56 L2205.9 179.311 L2214.68 178.913 L2214.68 195.285 Q2214.68 196.433 2214.75 197.019 Q2214.85 197.581 2215.2 198.143 Q2215.57 198.682 2216.37 198.892 Q2217.17 199.08 2218.53 199.08 Q2221.17 199.08 2222.81 197.3 Q2224.48 195.519 2224.48 192.592 L2224.48 183.434 Q2224.48 182.075 2223.96 181.817 Q2223.47 181.56 2221.15 181.56 L2221.15 179.311 L2229.93 178.913 L2229.93 196.386 Q2229.93 197.745 2230.42 198.002 Q2230.94 198.26 2233.26 198.26 L2233.26 200.508 Z" fill="#000000" fill-rule="nonzero" fill-opacity="1" /><path clip-path="url(#clip100)" d="M2267.99 214.459 L2263.76 214.361 L2259.53 214.459 L2259.53 212.885 L2261.84 212.885 L2261.84 203.819 Q2261.84 201.982 2261.36 201.277 Q2260.89 200.556 2259.95 200.556 Q2259.13 200.556 2258.28 200.884 Q2257.45 201.212 2256.68 201.835 Q2255.92 202.458 2255.43 203.507 Q2254.95 204.556 2254.95 205.868 L2254.95 212.885 L2257.28 212.885 L2257.28 214.459 L2253.05 214.361 L2248.81 214.459 L2248.81 212.885 L2251.13 212.885 L2251.13 203.819 Q2251.13 201.982 2250.66 201.277 Q2250.18 200.556 2249.25 200.556 Q2248.43 200.556 2247.58 200.884 Q2246.74 201.212 2245.97 201.835 Q2245.21 202.458 2244.72 203.507 Q2244.25 204.556 2244.25 205.868 L2244.25 212.885 L2246.56 212.885 L2246.56 214.459 L2242.33 214.361 L2238.1 214.459 L2238.1 212.885 L2240.41 212.885 L2240.41 202.507 Q2240.41 201.556 2240.07 201.376 Q2239.72 201.195 2238.1 201.195 L2238.1 199.621 L2243.87 199.343 L2243.87 202.982 Q2244.74 201.294 2246.22 200.326 Q2247.71 199.343 2249.79 199.343 Q2254.12 199.343 2254.82 202.573 Q2255.59 201.212 2257 200.277 Q2258.41 199.343 2260.5 199.343 Q2263.14 199.343 2264.4 200.49 Q2265.68 201.622 2265.68 204.179 L2265.68 212.885 L2267.99 212.885 L2267.99 214.459 Z" fill="#000000" fill-rule="nonzero" fill-opacity="1" /><path clip-path="url(#clip100)" d="M2277.84 214.459 L2273.9 214.361 L2269.8 214.459 L2269.8 212.885 L2272.13 212.885 L2272.13 202.507 Q2272.13 201.556 2271.79 201.376 Q2271.44 201.195 2269.9 201.195 L2269.9 199.621 L2275.75 199.343 L2275.75 212.885 L2277.84 212.885 L2277.84 214.459 M2275.44 192.227 Q2276.21 192.997 2276.21 194.08 Q2276.21 195.162 2275.44 195.932 Q2274.69 196.703 2273.61 196.703 Q2272.52 196.703 2271.75 195.932 Q2270.98 195.162 2270.98 194.08 Q2270.98 192.997 2271.75 192.227 Q2272.52 191.456 2273.61 191.456 Q2274.69 191.456 2275.44 192.227 Z" fill="#000000" fill-rule="nonzero" fill-opacity="1" /><path clip-path="url(#clip100)" d="M2299.82 214.459 L2295.58 214.361 L2291.35 214.459 L2291.35 212.885 L2293.67 212.885 L2293.67 203.819 Q2293.67 201.999 2293.2 201.277 Q2292.74 200.556 2291.82 200.556 Q2290.99 200.556 2290.13 200.884 Q2289.3 201.212 2288.53 201.835 Q2287.77 202.458 2287.3 203.507 Q2286.82 204.556 2286.82 205.868 L2286.82 212.885 L2289.13 212.885 L2289.13 214.459 L2284.9 214.361 L2280.67 214.459 L2280.67 212.885 L2282.98 212.885 L2282.98 202.507 Q2282.98 201.556 2282.64 201.376 Q2282.3 201.195 2280.67 201.195 L2280.67 199.621 L2286.44 199.343 L2286.44 202.982 Q2286.8 202.277 2287.3 201.687 Q2287.79 201.081 2288.49 200.539 Q2289.2 199.982 2290.18 199.67 Q2291.18 199.343 2292.33 199.343 Q2294.94 199.343 2296.22 200.474 Q2297.49 201.605 2297.49 204.179 L2297.49 212.885 L2299.82 212.885 L2299.82 214.459 Z" fill="#000000" fill-rule="nonzero" fill-opacity="1" /><polyline clip-path="url(#clip100)" style="stroke:#ac8d18; stroke-linecap:round; stroke-linejoin:round; stroke-width:6; stroke-opacity:1; fill:none" stroke-dasharray="3, 6" points="2137.04,248.629 2196.06,248.629 "/>
<path clip-path="url(#clip100)" d="M2233.26 254.563 L2224.76 254.844 L2224.76 251.12 Q2222.58 254.844 2217.85 254.844 Q2215.9 254.844 2214.45 254.587 Q2213.02 254.329 2211.76 253.697 Q2210.52 253.041 2209.86 251.776 Q2209.2 250.511 2209.2 248.661 L2209.2 237.488 Q2209.2 236.13 2208.71 235.872 Q2208.22 235.615 2205.9 235.615 L2205.9 233.366 L2214.68 232.968 L2214.68 249.34 Q2214.68 250.488 2214.75 251.073 Q2214.85 251.636 2215.2 252.198 Q2215.57 252.736 2216.37 252.947 Q2217.17 253.135 2218.53 253.135 Q2221.17 253.135 2222.81 251.354 Q2224.48 249.574 2224.48 246.647 L2224.48 237.488 Q2224.48 236.13 2223.96 235.872 Q2223.47 235.615 2221.15 235.615 L2221.15 233.366 L2229.93 232.968 L2229.93 250.441 Q2229.93 251.799 2230.42 252.057 Q2230.94 252.315 2233.26 252.315 L2233.26 254.563 Z" fill="#000000" fill-rule="nonzero" fill-opacity="1" /><path clip-path="url(#clip100)" d="M2267.99 263.888 L2263.76 263.789 L2259.53 263.888 L2259.53 262.314 L2261.84 262.314 L2261.84 253.247 Q2261.84 251.411 2261.36 250.706 Q2260.89 249.984 2259.95 249.984 Q2259.13 249.984 2258.28 250.312 Q2257.45 250.64 2256.68 251.263 Q2255.92 251.886 2255.43 252.935 Q2254.95 253.985 2254.95 255.296 L2254.95 262.314 L2257.28 262.314 L2257.28 263.888 L2253.05 263.789 L2248.81 263.888 L2248.81 262.314 L2251.13 262.314 L2251.13 253.247 Q2251.13 251.411 2250.66 250.706 Q2250.18 249.984 2249.25 249.984 Q2248.43 249.984 2247.58 250.312 Q2246.74 250.64 2245.97 251.263 Q2245.21 251.886 2244.72 252.935 Q2244.25 253.985 2244.25 255.296 L2244.25 262.314 L2246.56 262.314 L2246.56 263.888 L2242.33 263.789 L2238.1 263.888 L2238.1 262.314 L2240.41 262.314 L2240.41 251.935 Q2240.41 250.984 2240.07 250.804 Q2239.72 250.624 2238.1 250.624 L2238.1 249.05 L2243.87 248.771 L2243.87 252.411 Q2244.74 250.722 2246.22 249.755 Q2247.71 248.771 2249.79 248.771 Q2254.12 248.771 2254.82 252.001 Q2255.59 250.64 2257 249.705 Q2258.41 248.771 2260.5 248.771 Q2263.14 248.771 2264.4 249.919 Q2265.68 251.05 2265.68 253.608 L2265.68 262.314 L2267.99 262.314 L2267.99 263.888 Z" fill="#000000" fill-rule="nonzero" fill-opacity="1" /><path clip-path="url(#clip100)" d="M2288.01 263.084 Q2288.01 263.379 2287.95 263.56 Q2287.88 263.724 2287.7 263.789 Q2287.54 263.855 2287.39 263.871 Q2287.24 263.888 2286.93 263.888 L2285.33 263.888 Q2284.33 263.888 2283.62 263.707 Q2282.93 263.511 2282.59 263.281 Q2282.24 263.052 2282.06 262.642 Q2281.88 262.232 2281.85 261.986 Q2281.83 261.723 2281.83 261.297 Q2281.21 262.494 2279.95 263.297 Q2278.7 264.084 2276.83 264.084 Q2276.05 264.084 2275.26 264.002 Q2274.47 263.92 2273.55 263.675 Q2272.64 263.412 2271.95 263.019 Q2271.26 262.609 2270.8 261.904 Q2270.34 261.182 2270.34 260.264 Q2270.34 255.444 2281.26 254.985 L2281.26 253.854 Q2281.26 249.886 2277.57 249.886 Q2276.23 249.886 2275.14 250.115 Q2275.24 250.181 2275.39 250.345 Q2275.54 250.509 2275.7 250.919 Q2275.88 251.329 2275.88 251.771 Q2275.88 252.771 2275.24 253.329 Q2274.62 253.886 2273.77 253.886 Q2272.98 253.886 2272.32 253.345 Q2271.68 252.788 2271.68 251.771 Q2271.68 248.672 2277.7 248.672 Q2281.33 248.672 2283.19 250.099 Q2285.08 251.509 2285.08 253.854 L2285.08 261.068 Q2285.08 261.428 2285.11 261.592 Q2285.15 261.756 2285.33 261.953 Q2285.51 262.15 2285.93 262.232 Q2286.37 262.297 2287.13 262.314 Q2287.42 262.314 2287.57 262.346 Q2287.72 262.363 2287.87 262.543 Q2288.01 262.724 2288.01 263.084 M2281.26 259.215 L2281.26 256.034 Q2280.69 256.067 2280.14 256.133 Q2279.6 256.198 2278.72 256.362 Q2277.83 256.51 2277.11 256.821 Q2276.41 257.116 2275.72 257.559 Q2275.05 257.985 2274.65 258.674 Q2274.27 259.362 2274.27 260.231 Q2274.27 261.346 2275.16 262.117 Q2276.05 262.888 2277.32 262.888 Q2277.65 262.888 2278.06 262.822 Q2278.47 262.756 2279.06 262.527 Q2279.65 262.281 2280.11 261.904 Q2280.59 261.527 2280.92 260.838 Q2281.26 260.133 2281.26 259.215 Z" fill="#000000" fill-rule="nonzero" fill-opacity="1" /><path clip-path="url(#clip100)" d="M2307.01 263.888 L2303.32 263.789 L2299.29 263.888 L2299.29 262.314 L2300.6 262.314 L2296.91 257.952 L2293.65 261.609 L2293.42 261.937 Q2293.42 262.084 2293.8 262.199 Q2294.19 262.314 2294.65 262.314 L2294.65 263.888 L2291.19 263.789 L2288.11 263.888 L2288.11 262.314 Q2289.14 262.314 2289.62 262.297 Q2290.11 262.265 2290.66 262.117 Q2291.22 261.969 2291.5 261.674 L2295.89 256.739 L2290.66 250.558 L2288.27 250.558 L2288.27 248.984 L2291.98 249.082 L2296.03 248.984 L2296.03 250.558 L2294.68 250.558 L2297.98 254.411 L2300.8 251.263 Q2300.81 251.247 2301.08 250.853 Q2300.55 250.558 2299.8 250.558 L2299.8 248.984 L2303.26 249.082 L2306.34 248.984 L2306.34 250.558 Q2304.99 250.558 2304.29 250.656 Q2303.6 250.738 2303.39 250.853 Q2303.19 250.968 2302.91 251.263 L2298.99 255.624 L2304.63 262.314 L2307.01 262.314 L2307.01 263.888 Z" fill="#000000" fill-rule="nonzero" fill-opacity="1" /></svg>
