<?xml version="1.0" encoding="utf-8"?>
<svg xmlns="http://www.w3.org/2000/svg" xmlns:xlink="http://www.w3.org/1999/xlink" width="600" height="400" viewBox="0 0 2400 1600">
<defs>
  <clipPath id="clip980">
    <rect x="0" y="0" width="2400" height="1600"/>
  </clipPath>
</defs>
<path clip-path="url(#clip980)" d="M0 1600 L2400 1600 L2400 0 L0 0  Z" fill="#ffffff" fill-rule="evenodd" fill-opacity="1"/>
<defs>
  <clipPath id="clip981">
    <rect x="480" y="0" width="1681" height="1600"/>
  </clipPath>
</defs>
<path clip-path="url(#clip980)" d="M203.964 1423.18 L1111.05 1423.18 L1111.05 47.2441 L203.964 47.2441  Z" fill="#ffffff" fill-rule="evenodd" fill-opacity="1"/>
<defs>
  <clipPath id="clip982">
    <rect x="203" y="47" width="908" height="1377"/>
  </clipPath>
</defs>
<polyline clip-path="url(#clip982)" style="stroke:#000000; stroke-linecap:round; stroke-linejoin:round; stroke-width:2; stroke-opacity:0.1; fill:none" points="229.636,1423.18 229.636,47.2441 "/>
<polyline clip-path="url(#clip982)" style="stroke:#000000; stroke-linecap:round; stroke-linejoin:round; stroke-width:2; stroke-opacity:0.1; fill:none" points="481.326,1423.18 481.326,47.2441 "/>
<polyline clip-path="url(#clip982)" style="stroke:#000000; stroke-linecap:round; stroke-linejoin:round; stroke-width:2; stroke-opacity:0.1; fill:none" points="733.016,1423.18 733.016,47.2441 "/>
<polyline clip-path="url(#clip982)" style="stroke:#000000; stroke-linecap:round; stroke-linejoin:round; stroke-width:2; stroke-opacity:0.1; fill:none" points="984.706,1423.18 984.706,47.2441 "/>
<polyline clip-path="url(#clip980)" style="stroke:#000000; stroke-linecap:round; stroke-linejoin:round; stroke-width:4; stroke-opacity:1; fill:none" points="203.964,1423.18 1111.05,1423.18 "/>
<polyline clip-path="url(#clip980)" style="stroke:#000000; stroke-linecap:round; stroke-linejoin:round; stroke-width:4; stroke-opacity:1; fill:none" points="229.636,1423.18 229.636,1404.28 "/>
<polyline clip-path="url(#clip980)" style="stroke:#000000; stroke-linecap:round; stroke-linejoin:round; stroke-width:4; stroke-opacity:1; fill:none" points="481.326,1423.18 481.326,1404.28 "/>
<polyline clip-path="url(#clip980)" style="stroke:#000000; stroke-linecap:round; stroke-linejoin:round; stroke-width:4; stroke-opacity:1; fill:none" points="733.016,1423.18 733.016,1404.28 "/>
<polyline clip-path="url(#clip980)" style="stroke:#000000; stroke-linecap:round; stroke-linejoin:round; stroke-width:4; stroke-opacity:1; fill:none" points="984.706,1423.18 984.706,1404.28 "/>
<path clip-path="url(#clip980)" d="M229.636 1454.1 Q226.025 1454.1 224.196 1457.66 Q222.391 1461.2 222.391 1468.33 Q222.391 1475.44 224.196 1479.01 Q226.025 1482.55 229.636 1482.55 Q233.27 1482.55 235.076 1479.01 Q236.904 1475.44 236.904 1468.33 Q236.904 1461.2 235.076 1457.66 Q233.27 1454.1 229.636 1454.1 M229.636 1450.39 Q235.446 1450.39 238.502 1455 Q241.58 1459.58 241.58 1468.33 Q241.58 1477.06 238.502 1481.67 Q235.446 1486.25 229.636 1486.25 Q223.826 1486.25 220.747 1481.67 Q217.692 1477.06 217.692 1468.33 Q217.692 1459.58 220.747 1455 Q223.826 1450.39 229.636 1450.39 Z" fill="#000000" fill-rule="nonzero" fill-opacity="1" /><path clip-path="url(#clip980)" d="M471.708 1481.64 L479.347 1481.64 L479.347 1455.28 L471.037 1456.95 L471.037 1452.69 L479.301 1451.02 L483.977 1451.02 L483.977 1481.64 L491.615 1481.64 L491.615 1485.58 L471.708 1485.58 L471.708 1481.64 Z" fill="#000000" fill-rule="nonzero" fill-opacity="1" /><path clip-path="url(#clip980)" d="M727.669 1481.64 L743.988 1481.64 L743.988 1485.58 L722.044 1485.58 L722.044 1481.64 Q724.706 1478.89 729.289 1474.26 Q733.896 1469.61 735.076 1468.27 Q737.322 1465.74 738.201 1464.01 Q739.104 1462.25 739.104 1460.56 Q739.104 1457.8 737.16 1456.07 Q735.238 1454.33 732.137 1454.33 Q729.938 1454.33 727.484 1455.09 Q725.053 1455.86 722.276 1457.41 L722.276 1452.69 Q725.1 1451.55 727.553 1450.97 Q730.007 1450.39 732.044 1450.39 Q737.414 1450.39 740.609 1453.08 Q743.803 1455.77 743.803 1460.26 Q743.803 1462.39 742.993 1464.31 Q742.206 1466.2 740.099 1468.8 Q739.521 1469.47 736.419 1472.69 Q733.317 1475.88 727.669 1481.64 Z" fill="#000000" fill-rule="nonzero" fill-opacity="1" /><path clip-path="url(#clip980)" d="M988.954 1466.95 Q992.31 1467.66 994.185 1469.93 Q996.084 1472.2 996.084 1475.53 Q996.084 1480.65 992.565 1483.45 Q989.047 1486.25 982.565 1486.25 Q980.389 1486.25 978.074 1485.81 Q975.783 1485.39 973.329 1484.54 L973.329 1480.02 Q975.273 1481.16 977.588 1481.74 Q979.903 1482.32 982.426 1482.32 Q986.824 1482.32 989.116 1480.58 Q991.431 1478.84 991.431 1475.53 Q991.431 1472.48 989.278 1470.77 Q987.148 1469.03 983.329 1469.03 L979.301 1469.03 L979.301 1465.19 L983.514 1465.19 Q986.963 1465.19 988.792 1463.82 Q990.621 1462.43 990.621 1459.84 Q990.621 1457.18 988.722 1455.77 Q986.847 1454.33 983.329 1454.33 Q981.408 1454.33 979.209 1454.75 Q977.01 1455.16 974.371 1456.04 L974.371 1451.88 Q977.033 1451.14 979.348 1450.77 Q981.685 1450.39 983.746 1450.39 Q989.07 1450.39 992.172 1452.83 Q995.273 1455.23 995.273 1459.35 Q995.273 1462.22 993.63 1464.21 Q991.986 1466.18 988.954 1466.95 Z" fill="#000000" fill-rule="nonzero" fill-opacity="1" /><path clip-path="url(#clip980)" d="M527.681 1520.52 L567.88 1520.52 L567.88 1525.93 L551.011 1525.93 L551.011 1568.04 L544.55 1568.04 L544.55 1525.93 L527.681 1525.93 L527.681 1520.52 Z" fill="#000000" fill-rule="nonzero" fill-opacity="1" /><path clip-path="url(#clip980)" d="M571.827 1532.4 L577.683 1532.4 L577.683 1568.04 L571.827 1568.04 L571.827 1532.4 M571.827 1518.52 L577.683 1518.52 L577.683 1525.93 L571.827 1525.93 L571.827 1518.52 Z" fill="#000000" fill-rule="nonzero" fill-opacity="1" /><path clip-path="url(#clip980)" d="M617.692 1539.24 Q619.888 1535.29 622.943 1533.41 Q625.999 1531.54 630.137 1531.54 Q635.707 1531.54 638.73 1535.45 Q641.754 1539.33 641.754 1546.53 L641.754 1568.04 L635.866 1568.04 L635.866 1546.72 Q635.866 1541.59 634.052 1539.11 Q632.237 1536.63 628.513 1536.63 Q623.962 1536.63 621.32 1539.65 Q618.678 1542.68 618.678 1547.9 L618.678 1568.04 L612.79 1568.04 L612.79 1546.72 Q612.79 1541.56 610.976 1539.11 Q609.162 1536.63 605.374 1536.63 Q600.886 1536.63 598.244 1539.68 Q595.603 1542.71 595.603 1547.9 L595.603 1568.04 L589.714 1568.04 L589.714 1532.4 L595.603 1532.4 L595.603 1537.93 Q597.608 1534.66 600.409 1533.1 Q603.21 1531.54 607.061 1531.54 Q610.944 1531.54 613.649 1533.51 Q616.387 1535.48 617.692 1539.24 Z" fill="#000000" fill-rule="nonzero" fill-opacity="1" /><path clip-path="url(#clip980)" d="M683.927 1548.76 L683.927 1551.62 L657 1551.62 Q657.382 1557.67 660.628 1560.85 Q663.907 1564 669.731 1564 Q673.105 1564 676.256 1563.17 Q679.439 1562.35 682.558 1560.69 L682.558 1566.23 Q679.407 1567.57 676.097 1568.27 Q672.787 1568.97 669.381 1568.97 Q660.851 1568.97 655.854 1564 Q650.889 1559.04 650.889 1550.57 Q650.889 1541.82 655.599 1536.69 Q660.342 1531.54 668.363 1531.54 Q675.556 1531.54 679.725 1536.18 Q683.927 1540.8 683.927 1548.76 M678.07 1547.04 Q678.007 1542.23 675.365 1539.37 Q672.755 1536.5 668.426 1536.5 Q663.525 1536.5 660.565 1539.27 Q657.636 1542.04 657.191 1547.07 L678.07 1547.04 Z" fill="#000000" fill-rule="nonzero" fill-opacity="1" /><path clip-path="url(#clip980)" d="M728.328 1518.58 Q724.063 1525.9 721.994 1533.06 Q719.925 1540.23 719.925 1547.58 Q719.925 1554.93 721.994 1562.16 Q724.094 1569.35 728.328 1576.64 L723.235 1576.64 Q718.461 1569.16 716.074 1561.93 Q713.718 1554.71 713.718 1547.58 Q713.718 1540.48 716.074 1533.29 Q718.429 1526.09 723.235 1518.58 L728.328 1518.58 Z" fill="#000000" fill-rule="nonzero" fill-opacity="1" /><path clip-path="url(#clip980)" d="M762.416 1533.45 L762.416 1538.98 Q759.933 1537.71 757.26 1537.07 Q754.586 1536.44 751.722 1536.44 Q747.361 1536.44 745.165 1537.77 Q743.001 1539.11 743.001 1541.79 Q743.001 1543.82 744.56 1545 Q746.12 1546.15 750.83 1547.2 L752.836 1547.64 Q759.074 1548.98 761.684 1551.43 Q764.326 1553.85 764.326 1558.21 Q764.326 1563.17 760.379 1566.07 Q756.464 1568.97 749.589 1568.97 Q746.725 1568.97 743.605 1568.39 Q740.518 1567.85 737.08 1566.74 L737.08 1560.69 Q740.327 1562.38 743.478 1563.24 Q746.629 1564.07 749.716 1564.07 Q753.854 1564.07 756.082 1562.66 Q758.31 1561.23 758.31 1558.65 Q758.31 1556.27 756.687 1554.99 Q755.095 1553.72 749.653 1552.54 L747.616 1552.07 Q742.173 1550.92 739.754 1548.56 Q737.335 1546.18 737.335 1542.04 Q737.335 1537.01 740.9 1534.27 Q744.465 1531.54 751.021 1531.54 Q754.268 1531.54 757.132 1532.01 Q759.997 1532.49 762.416 1533.45 Z" fill="#000000" fill-rule="nonzero" fill-opacity="1" /><path clip-path="url(#clip980)" d="M772.728 1518.58 L777.821 1518.58 Q782.595 1526.09 784.951 1533.29 Q787.338 1540.48 787.338 1547.58 Q787.338 1554.71 784.951 1561.93 Q782.595 1569.16 777.821 1576.64 L772.728 1576.64 Q776.962 1569.35 779.03 1562.16 Q781.131 1554.93 781.131 1547.58 Q781.131 1540.23 779.03 1533.06 Q776.962 1525.9 772.728 1518.58 Z" fill="#000000" fill-rule="nonzero" fill-opacity="1" /><polyline clip-path="url(#clip982)" style="stroke:#000000; stroke-linecap:round; stroke-linejoin:round; stroke-width:2; stroke-opacity:0.1; fill:none" points="203.964,1384.24 1111.05,1384.24 "/>
<polyline clip-path="url(#clip982)" style="stroke:#000000; stroke-linecap:round; stroke-linejoin:round; stroke-width:2; stroke-opacity:0.1; fill:none" points="203.964,1161.3 1111.05,1161.3 "/>
<polyline clip-path="url(#clip982)" style="stroke:#000000; stroke-linecap:round; stroke-linejoin:round; stroke-width:2; stroke-opacity:0.1; fill:none" points="203.964,938.364 1111.05,938.364 "/>
<polyline clip-path="url(#clip982)" style="stroke:#000000; stroke-linecap:round; stroke-linejoin:round; stroke-width:2; stroke-opacity:0.1; fill:none" points="203.964,715.427 1111.05,715.427 "/>
<polyline clip-path="url(#clip982)" style="stroke:#000000; stroke-linecap:round; stroke-linejoin:round; stroke-width:2; stroke-opacity:0.1; fill:none" points="203.964,492.489 1111.05,492.489 "/>
<polyline clip-path="url(#clip982)" style="stroke:#000000; stroke-linecap:round; stroke-linejoin:round; stroke-width:2; stroke-opacity:0.1; fill:none" points="203.964,269.552 1111.05,269.552 "/>
<polyline clip-path="url(#clip980)" style="stroke:#000000; stroke-linecap:round; stroke-linejoin:round; stroke-width:4; stroke-opacity:1; fill:none" points="203.964,1423.18 203.964,47.2441 "/>
<polyline clip-path="url(#clip980)" style="stroke:#000000; stroke-linecap:round; stroke-linejoin:round; stroke-width:4; stroke-opacity:1; fill:none" points="203.964,1384.24 222.861,1384.24 "/>
<polyline clip-path="url(#clip980)" style="stroke:#000000; stroke-linecap:round; stroke-linejoin:round; stroke-width:4; stroke-opacity:1; fill:none" points="203.964,1161.3 222.861,1161.3 "/>
<polyline clip-path="url(#clip980)" style="stroke:#000000; stroke-linecap:round; stroke-linejoin:round; stroke-width:4; stroke-opacity:1; fill:none" points="203.964,938.364 222.861,938.364 "/>
<polyline clip-path="url(#clip980)" style="stroke:#000000; stroke-linecap:round; stroke-linejoin:round; stroke-width:4; stroke-opacity:1; fill:none" points="203.964,715.427 222.861,715.427 "/>
<polyline clip-path="url(#clip980)" style="stroke:#000000; stroke-linecap:round; stroke-linejoin:round; stroke-width:4; stroke-opacity:1; fill:none" points="203.964,492.489 222.861,492.489 "/>
<polyline clip-path="url(#clip980)" style="stroke:#000000; stroke-linecap:round; stroke-linejoin:round; stroke-width:4; stroke-opacity:1; fill:none" points="203.964,269.552 222.861,269.552 "/>
<path clip-path="url(#clip980)" d="M156.019 1370.04 Q152.408 1370.04 150.579 1373.6 Q148.774 1377.14 148.774 1384.27 Q148.774 1391.38 150.579 1394.94 Q152.408 1398.49 156.019 1398.49 Q159.653 1398.49 161.459 1394.94 Q163.288 1391.38 163.288 1384.27 Q163.288 1377.14 161.459 1373.6 Q159.653 1370.04 156.019 1370.04 M156.019 1366.33 Q161.829 1366.33 164.885 1370.94 Q167.964 1375.52 167.964 1384.27 Q167.964 1393 164.885 1397.61 Q161.829 1402.19 156.019 1402.19 Q150.209 1402.19 147.13 1397.61 Q144.075 1393 144.075 1384.27 Q144.075 1375.52 147.13 1370.94 Q150.209 1366.33 156.019 1366.33 Z" fill="#000000" fill-rule="nonzero" fill-opacity="1" /><path clip-path="url(#clip980)" d="M147.061 1144.02 L165.417 1144.02 L165.417 1147.96 L151.343 1147.96 L151.343 1156.43 Q152.362 1156.08 153.38 1155.92 Q154.399 1155.73 155.417 1155.73 Q161.204 1155.73 164.584 1158.91 Q167.964 1162.08 167.964 1167.49 Q167.964 1173.07 164.491 1176.17 Q161.019 1179.25 154.7 1179.25 Q152.524 1179.25 150.255 1178.88 Q148.01 1178.51 145.603 1177.77 L145.603 1173.07 Q147.686 1174.21 149.908 1174.76 Q152.13 1175.32 154.607 1175.32 Q158.612 1175.32 160.95 1173.21 Q163.288 1171.1 163.288 1167.49 Q163.288 1163.88 160.95 1161.78 Q158.612 1159.67 154.607 1159.67 Q152.732 1159.67 150.857 1160.09 Q149.005 1160.5 147.061 1161.38 L147.061 1144.02 Z" fill="#000000" fill-rule="nonzero" fill-opacity="1" /><path clip-path="url(#clip980)" d="M116.668 951.709 L124.306 951.709 L124.306 925.343 L115.996 927.01 L115.996 922.75 L124.26 921.084 L128.936 921.084 L128.936 951.709 L136.575 951.709 L136.575 955.644 L116.668 955.644 L116.668 951.709 Z" fill="#000000" fill-rule="nonzero" fill-opacity="1" /><path clip-path="url(#clip980)" d="M156.019 924.162 Q152.408 924.162 150.579 927.727 Q148.774 931.269 148.774 938.398 Q148.774 945.505 150.579 949.07 Q152.408 952.611 156.019 952.611 Q159.653 952.611 161.459 949.07 Q163.288 945.505 163.288 938.398 Q163.288 931.269 161.459 927.727 Q159.653 924.162 156.019 924.162 M156.019 920.459 Q161.829 920.459 164.885 925.065 Q167.964 929.649 167.964 938.398 Q167.964 947.125 164.885 951.732 Q161.829 956.315 156.019 956.315 Q150.209 956.315 147.13 951.732 Q144.075 947.125 144.075 938.398 Q144.075 929.649 147.13 925.065 Q150.209 920.459 156.019 920.459 Z" fill="#000000" fill-rule="nonzero" fill-opacity="1" /><path clip-path="url(#clip980)" d="M117.663 728.771 L125.302 728.771 L125.302 702.406 L116.992 704.072 L116.992 699.813 L125.255 698.147 L129.931 698.147 L129.931 728.771 L137.57 728.771 L137.57 732.707 L117.663 732.707 L117.663 728.771 Z" fill="#000000" fill-rule="nonzero" fill-opacity="1" /><path clip-path="url(#clip980)" d="M147.061 698.147 L165.417 698.147 L165.417 702.082 L151.343 702.082 L151.343 710.554 Q152.362 710.207 153.38 710.045 Q154.399 709.859 155.417 709.859 Q161.204 709.859 164.584 713.031 Q167.964 716.202 167.964 721.619 Q167.964 727.197 164.491 730.299 Q161.019 733.378 154.7 733.378 Q152.524 733.378 150.255 733.007 Q148.01 732.637 145.603 731.896 L145.603 727.197 Q147.686 728.332 149.908 728.887 Q152.13 729.443 154.607 729.443 Q158.612 729.443 160.95 727.336 Q163.288 725.23 163.288 721.619 Q163.288 718.008 160.95 715.901 Q158.612 713.795 154.607 713.795 Q152.732 713.795 150.857 714.211 Q149.005 714.628 147.061 715.508 L147.061 698.147 Z" fill="#000000" fill-rule="nonzero" fill-opacity="1" /><path clip-path="url(#clip980)" d="M119.885 505.834 L136.204 505.834 L136.204 509.769 L114.26 509.769 L114.26 505.834 Q116.922 503.08 121.505 498.45 Q126.112 493.797 127.292 492.455 Q129.538 489.931 130.417 488.195 Q131.32 486.436 131.32 484.746 Q131.32 481.992 129.376 480.256 Q127.455 478.519 124.353 478.519 Q122.154 478.519 119.7 479.283 Q117.269 480.047 114.492 481.598 L114.492 476.876 Q117.316 475.742 119.769 475.163 Q122.223 474.584 124.26 474.584 Q129.63 474.584 132.825 477.269 Q136.019 479.955 136.019 484.445 Q136.019 486.575 135.209 488.496 Q134.422 490.394 132.316 492.987 Q131.737 493.658 128.635 496.876 Q125.533 500.07 119.885 505.834 Z" fill="#000000" fill-rule="nonzero" fill-opacity="1" /><path clip-path="url(#clip980)" d="M156.019 478.288 Q152.408 478.288 150.579 481.853 Q148.774 485.394 148.774 492.524 Q148.774 499.63 150.579 503.195 Q152.408 506.737 156.019 506.737 Q159.653 506.737 161.459 503.195 Q163.288 499.63 163.288 492.524 Q163.288 485.394 161.459 481.853 Q159.653 478.288 156.019 478.288 M156.019 474.584 Q161.829 474.584 164.885 479.191 Q167.964 483.774 167.964 492.524 Q167.964 501.251 164.885 505.857 Q161.829 510.441 156.019 510.441 Q150.209 510.441 147.13 505.857 Q144.075 501.251 144.075 492.524 Q144.075 483.774 147.13 479.191 Q150.209 474.584 156.019 474.584 Z" fill="#000000" fill-rule="nonzero" fill-opacity="1" /><path clip-path="url(#clip980)" d="M120.88 282.897 L137.2 282.897 L137.2 286.832 L115.256 286.832 L115.256 282.897 Q117.918 280.142 122.501 275.513 Q127.107 270.86 128.288 269.517 Q130.533 266.994 131.413 265.258 Q132.316 263.499 132.316 261.809 Q132.316 259.054 130.371 257.318 Q128.45 255.582 125.348 255.582 Q123.149 255.582 120.695 256.346 Q118.265 257.11 115.487 258.661 L115.487 253.939 Q118.311 252.804 120.765 252.226 Q123.218 251.647 125.255 251.647 Q130.626 251.647 133.82 254.332 Q137.015 257.017 137.015 261.508 Q137.015 263.638 136.204 265.559 Q135.417 267.457 133.311 270.05 Q132.732 270.721 129.63 273.939 Q126.529 277.133 120.88 282.897 Z" fill="#000000" fill-rule="nonzero" fill-opacity="1" /><path clip-path="url(#clip980)" d="M147.061 252.272 L165.417 252.272 L165.417 256.207 L151.343 256.207 L151.343 264.679 Q152.362 264.332 153.38 264.17 Q154.399 263.985 155.417 263.985 Q161.204 263.985 164.584 267.156 Q167.964 270.328 167.964 275.744 Q167.964 281.323 164.491 284.425 Q161.019 287.503 154.7 287.503 Q152.524 287.503 150.255 287.133 Q148.01 286.763 145.603 286.022 L145.603 281.323 Q147.686 282.457 149.908 283.013 Q152.13 283.568 154.607 283.568 Q158.612 283.568 160.95 281.462 Q163.288 279.355 163.288 275.744 Q163.288 272.133 160.95 270.027 Q158.612 267.92 154.607 267.92 Q152.732 267.92 150.857 268.337 Q149.005 268.753 147.061 269.633 L147.061 252.272 Z" fill="#000000" fill-rule="nonzero" fill-opacity="1" /><path clip-path="url(#clip980)" d="M21.7178 734.435 Q22.1687 734.435 23.2315 734.724 L48.4165 741.037 Q54.0203 742.422 57.9494 746.93 Q61.8785 751.407 61.8785 756.496 Q61.8785 759.555 60.236 761.52 Q58.6257 763.484 56.1459 763.484 Q53.9559 763.484 52.8931 762.325 Q51.8625 761.165 51.8625 759.781 Q51.8625 759.33 51.9913 758.847 Q52.1201 758.364 52.6676 757.848 Q53.2151 757.333 54.1491 757.333 Q55.6628 757.333 56.8544 758.653 Q57.4019 759.298 57.5307 759.909 Q57.6596 760.489 57.6596 761.488 Q58.5613 761.101 59.1732 760.393 Q59.7851 759.684 60.0106 758.879 Q60.2682 758.074 60.3326 757.558 Q60.4293 757.011 60.4293 756.496 Q60.4293 752.373 56.2747 749.217 Q55.0187 748.283 53.7626 747.607 Q52.5388 746.898 51.0252 746.383 Q49.5437 745.868 48.7385 745.642 Q47.9334 745.385 46.0977 744.934 Q49.0928 747.929 49.0928 751.6 Q49.0928 753.146 48.6741 754.531 Q48.2554 755.884 47.3859 757.075 Q46.4841 758.267 44.906 758.975 Q43.3279 759.652 41.2346 759.652 Q39.0124 759.652 35.985 758.782 Q32.9577 757.913 27.386 755.819 Q24.2621 754.692 22.7484 754.692 Q22.0077 754.692 21.5568 754.853 Q21.0737 755.014 20.9127 755.336 Q20.7194 755.658 20.6872 755.852 Q20.655 756.013 20.655 756.335 Q20.655 758.235 22.5874 760.006 Q24.5197 761.777 28.8353 763.001 Q29.6405 763.259 29.8337 763.42 Q30.0269 763.581 30.0269 764.064 Q29.9947 764.869 29.3506 764.869 Q29.093 764.869 28.0946 764.579 Q27.064 764.289 25.5503 763.613 Q24.0044 762.905 22.6196 761.938 Q21.2025 760.972 20.2041 759.459 Q19.2058 757.913 19.2058 756.141 Q19.2058 753.726 20.7838 752.244 Q22.3297 750.731 24.6163 750.731 Q25.5503 750.731 26.3877 750.988 Q27.1928 751.214 29.3506 752.051 Q38.0462 755.433 42.2974 755.433 Q43.3279 755.433 44.1975 755.272 Q45.0349 755.079 45.8722 754.66 Q46.6774 754.241 47.1604 753.404 Q47.6113 752.534 47.6113 751.343 Q47.6113 749.829 46.9028 748.412 Q46.1621 746.963 45.1637 746.061 Q44.1653 745.127 43.3279 744.579 Q42.4584 744 42.0075 743.871 L30.1558 740.908 L24.874 739.588 Q22.0077 738.976 21.2991 738.686 Q20.6228 738.299 20.2686 737.623 Q19.9143 736.947 19.9143 736.367 Q19.9143 735.562 20.3974 735.014 Q20.8805 734.435 21.7178 734.435 Z" fill="#000000" fill-rule="nonzero" fill-opacity="1" /><path clip-path="url(#clip980)" d="M53.6652 727.689 L52.2224 727.689 Q52.2224 722.143 49.2691 719.28 Q49.2691 718.491 49.4494 718.355 Q49.6298 718.22 50.4639 718.22 L76.3671 718.22 Q77.7423 718.22 78.1706 717.544 Q78.599 716.867 78.599 713.914 L78.599 712.449 L80.0193 712.449 Q79.884 714.072 79.884 719.933 Q79.884 725.795 80.0193 727.395 L78.599 727.395 L78.599 725.93 Q78.599 723.022 78.1932 722.323 Q77.7648 721.624 76.3671 721.624 L52.4478 721.624 Q53.6652 724.036 53.6652 727.689 Z" fill="#000000" fill-rule="nonzero" fill-opacity="1" /><polyline clip-path="url(#clip982)" style="stroke:#009af9; stroke-linecap:round; stroke-linejoin:round; stroke-width:4; stroke-opacity:1; fill:none" points="229.636,1337.48 254.805,1310.16 279.974,1054.82 305.143,765.602 330.312,484.279 355.481,244.46 380.65,157.096 405.819,86.1857 430.988,91.5957 456.157,113.251 481.326,188.433 506.495,194.783 531.664,223.608 556.833,255.955 582.002,264.484 607.171,288.559 632.34,311.581 657.509,267.333 682.678,294.265 707.847,270.24 733.016,274.964 758.185,239.37 783.354,243.755 808.523,260.372 833.692,267.826 858.861,292.299 884.03,255.352 909.199,269.566 934.368,251.464 959.537,306.326 984.706,293.111 1009.88,255.11 1035.04,248.351 1060.21,238.716 1085.38,284.084 "/>
<polyline clip-path="url(#clip982)" style="stroke:#e26f46; stroke-linecap:round; stroke-linejoin:round; stroke-width:3; stroke-opacity:1; fill:none" stroke-dasharray="12, 6, 2, 6" points="229.636,1384.24 254.805,1228.03 279.974,1129.52 305.143,766.906 330.312,499.202 355.481,277.023 380.65,109.151 405.819,119.584 430.988,96.6057 456.157,140.925 481.326,174.556 506.495,258.52 531.664,238.653 556.833,256.64 582.002,280.166 607.171,274.86 632.34,295.618 657.509,315.151 682.678,251.687 707.847,292.53 733.016,260.699 758.185,271.614 783.354,228.901 808.523,243.18 833.692,266.592 858.861,272.825 884.03,299.912 909.199,246.929 934.368,270.093 959.537,247.03 984.706,319.051 1009.88,291.841 1035.04,242.978 1060.21,242.999 1085.38,236.404 "/>
<path clip-path="url(#clip980)" d="M961.28 1377.32 L1080.82 1377.32 L1080.82 1221.8 L961.28 1221.8  Z" fill="#ffffff" fill-rule="evenodd" fill-opacity="1"/>
<polyline clip-path="url(#clip980)" style="stroke:#000000; stroke-linecap:round; stroke-linejoin:round; stroke-width:4; stroke-opacity:1; fill:none" points="961.28,1377.32 1080.82,1377.32 1080.82,1221.8 961.28,1221.8 961.28,1377.32 "/>
<polyline clip-path="url(#clip980)" style="stroke:#009af9; stroke-linecap:round; stroke-linejoin:round; stroke-width:4; stroke-opacity:1; fill:none" points="971.359,1273.64 1031.83,1273.64 "/>
<path clip-path="url(#clip980)" d="M1068.68 1260.37 Q1067.21 1260.37 1066.46 1260.51 Q1065.71 1260.63 1065.52 1260.8 Q1065.33 1260.96 1065.12 1261.38 L1054.82 1283.3 Q1053.72 1285.65 1051.65 1287.33 Q1049.62 1289.02 1047.04 1289.02 Q1044.88 1289.02 1043.39 1287.71 Q1041.91 1286.42 1041.91 1284.59 Q1041.91 1283.28 1042.73 1282.53 Q1043.55 1281.81 1044.65 1281.81 Q1045.87 1281.81 1046.64 1282.58 Q1047.44 1283.35 1047.44 1284.55 Q1047.44 1285.32 1047.11 1285.9 Q1046.78 1286.51 1046.48 1286.72 Q1046.2 1286.96 1045.89 1287.1 Q1046.38 1287.29 1047.04 1287.29 Q1048.02 1287.29 1048.87 1286.89 Q1049.73 1286.51 1050.3 1286 Q1050.88 1285.51 1051.47 1284.62 Q1052.05 1283.75 1052.33 1283.19 Q1052.61 1282.65 1053.04 1281.71 L1054.14 1279.42 L1045.17 1260.37 L1042.1 1260.37 L1042.1 1258.13 L1047.58 1258.27 L1053.53 1258.13 L1053.53 1260.37 L1050.93 1260.37 L1057.02 1273.33 L1062.55 1261.52 L1062.78 1260.96 Q1062.78 1260.7 1062.22 1260.56 Q1061.66 1260.4 1061.09 1260.4 L1060.53 1260.37 L1060.53 1258.13 L1064.89 1258.27 Q1066.95 1258.27 1068.68 1258.13 L1068.68 1260.37 Z" fill="#000000" fill-rule="nonzero" fill-opacity="1" /><polyline clip-path="url(#clip980)" style="stroke:#e26f46; stroke-linecap:round; stroke-linejoin:round; stroke-width:3; stroke-opacity:1; fill:none" stroke-dasharray="12, 6, 2, 6" points="971.359,1325.48 1031.83,1325.48 "/>
<path clip-path="url(#clip980)" d="M1064.5 1309.2 L1064.09 1309.87 Q1061.54 1308.77 1058.38 1307.01 Q1055.22 1308.77 1052.67 1309.87 L1052.28 1309.2 Q1055.05 1306.79 1058.38 1304.93 Q1061.74 1306.8 1064.5 1309.2 Z" fill="#000000" fill-rule="nonzero" fill-opacity="1" /><path clip-path="url(#clip980)" d="M1068.68 1317.22 Q1067.21 1317.22 1066.46 1317.36 Q1065.71 1317.48 1065.52 1317.64 Q1065.33 1317.8 1065.12 1318.23 L1054.82 1340.15 Q1053.72 1342.49 1051.65 1344.18 Q1049.62 1345.86 1047.04 1345.86 Q1044.88 1345.86 1043.39 1344.55 Q1041.91 1343.26 1041.91 1341.44 Q1041.91 1340.13 1042.73 1339.38 Q1043.55 1338.65 1044.65 1338.65 Q1045.87 1338.65 1046.64 1339.42 Q1047.44 1340.2 1047.44 1341.39 Q1047.44 1342.16 1047.11 1342.75 Q1046.78 1343.36 1046.48 1343.57 Q1046.2 1343.8 1045.89 1343.94 Q1046.38 1344.13 1047.04 1344.13 Q1048.02 1344.13 1048.87 1343.73 Q1049.73 1343.36 1050.3 1342.84 Q1050.88 1342.35 1051.47 1341.46 Q1052.05 1340.59 1052.33 1340.03 Q1052.61 1339.49 1053.04 1338.56 L1054.14 1336.26 L1045.17 1317.22 L1042.1 1317.22 L1042.1 1314.97 L1047.58 1315.11 L1053.53 1314.97 L1053.53 1317.22 L1050.93 1317.22 L1057.02 1330.17 L1062.55 1318.37 L1062.78 1317.8 Q1062.78 1317.55 1062.22 1317.41 Q1061.66 1317.24 1061.09 1317.24 L1060.53 1317.22 L1060.53 1314.97 L1064.89 1315.11 Q1066.95 1315.11 1068.68 1314.97 L1068.68 1317.22 Z" fill="#000000" fill-rule="nonzero" fill-opacity="1" /><path clip-path="url(#clip980)" d="M1445.66 398.692 L2352.76 398.692 L2352.76 47.2441 L1445.66 47.2441  Z" fill="#ffffff" fill-rule="evenodd" fill-opacity="1"/>
<defs>
  <clipPath id="clip983">
    <rect x="1445" y="47" width="908" height="352"/>
  </clipPath>
</defs>
<polyline clip-path="url(#clip983)" style="stroke:#000000; stroke-linecap:round; stroke-linejoin:round; stroke-width:2; stroke-opacity:0.1; fill:none" points="1471.34,398.692 1471.34,47.2441 "/>
<polyline clip-path="url(#clip983)" style="stroke:#000000; stroke-linecap:round; stroke-linejoin:round; stroke-width:2; stroke-opacity:0.1; fill:none" points="1723.03,398.692 1723.03,47.2441 "/>
<polyline clip-path="url(#clip983)" style="stroke:#000000; stroke-linecap:round; stroke-linejoin:round; stroke-width:2; stroke-opacity:0.1; fill:none" points="1974.72,398.692 1974.72,47.2441 "/>
<polyline clip-path="url(#clip983)" style="stroke:#000000; stroke-linecap:round; stroke-linejoin:round; stroke-width:2; stroke-opacity:0.1; fill:none" points="2226.41,398.692 2226.41,47.2441 "/>
<polyline clip-path="url(#clip980)" style="stroke:#000000; stroke-linecap:round; stroke-linejoin:round; stroke-width:4; stroke-opacity:1; fill:none" points="1445.66,398.692 2352.76,398.692 "/>
<polyline clip-path="url(#clip980)" style="stroke:#000000; stroke-linecap:round; stroke-linejoin:round; stroke-width:4; stroke-opacity:1; fill:none" points="1471.34,398.692 1471.34,379.794 "/>
<polyline clip-path="url(#clip980)" style="stroke:#000000; stroke-linecap:round; stroke-linejoin:round; stroke-width:4; stroke-opacity:1; fill:none" points="1723.03,398.692 1723.03,379.794 "/>
<polyline clip-path="url(#clip980)" style="stroke:#000000; stroke-linecap:round; stroke-linejoin:round; stroke-width:4; stroke-opacity:1; fill:none" points="1974.72,398.692 1974.72,379.794 "/>
<polyline clip-path="url(#clip980)" style="stroke:#000000; stroke-linecap:round; stroke-linejoin:round; stroke-width:4; stroke-opacity:1; fill:none" points="2226.41,398.692 2226.41,379.794 "/>
<path clip-path="url(#clip980)" d="M1471.34 429.611 Q1467.73 429.611 1465.9 433.175 Q1464.09 436.717 1464.09 443.847 Q1464.09 450.953 1465.9 454.518 Q1467.73 458.059 1471.34 458.059 Q1474.97 458.059 1476.78 454.518 Q1478.61 450.953 1478.61 443.847 Q1478.61 436.717 1476.78 433.175 Q1474.97 429.611 1471.34 429.611 M1471.34 425.907 Q1477.15 425.907 1480.2 430.513 Q1483.28 435.097 1483.28 443.847 Q1483.28 452.573 1480.2 457.18 Q1477.15 461.763 1471.34 461.763 Q1465.53 461.763 1462.45 457.18 Q1459.39 452.573 1459.39 443.847 Q1459.39 435.097 1462.45 430.513 Q1465.53 425.907 1471.34 425.907 Z" fill="#000000" fill-rule="nonzero" fill-opacity="1" /><path clip-path="url(#clip980)" d="M1713.41 457.157 L1721.05 457.157 L1721.05 430.791 L1712.74 432.458 L1712.74 428.199 L1721 426.532 L1725.68 426.532 L1725.68 457.157 L1733.32 457.157 L1733.32 461.092 L1713.41 461.092 L1713.41 457.157 Z" fill="#000000" fill-rule="nonzero" fill-opacity="1" /><path clip-path="url(#clip980)" d="M1969.37 457.157 L1985.69 457.157 L1985.69 461.092 L1963.75 461.092 L1963.75 457.157 Q1966.41 454.402 1970.99 449.772 Q1975.6 445.12 1976.78 443.777 Q1979.02 441.254 1979.9 439.518 Q1980.81 437.759 1980.81 436.069 Q1980.81 433.314 1978.86 431.578 Q1976.94 429.842 1973.84 429.842 Q1971.64 429.842 1969.18 430.606 Q1966.75 431.37 1963.98 432.921 L1963.98 428.199 Q1966.8 427.064 1969.25 426.486 Q1971.71 425.907 1973.75 425.907 Q1979.12 425.907 1982.31 428.592 Q1985.5 431.277 1985.5 435.768 Q1985.5 437.898 1984.69 439.819 Q1983.91 441.717 1981.8 444.31 Q1981.22 444.981 1978.12 448.198 Q1975.02 451.393 1969.37 457.157 Z" fill="#000000" fill-rule="nonzero" fill-opacity="1" /><path clip-path="url(#clip980)" d="M2230.66 442.458 Q2234.01 443.175 2235.89 445.444 Q2237.78 447.712 2237.78 451.046 Q2237.78 456.161 2234.27 458.962 Q2230.75 461.763 2224.27 461.763 Q2222.09 461.763 2219.78 461.323 Q2217.48 460.907 2215.03 460.05 L2215.03 455.536 Q2216.97 456.671 2219.29 457.249 Q2221.6 457.828 2224.13 457.828 Q2228.53 457.828 2230.82 456.092 Q2233.13 454.356 2233.13 451.046 Q2233.13 447.99 2230.98 446.277 Q2228.85 444.541 2225.03 444.541 L2221 444.541 L2221 440.698 L2225.22 440.698 Q2228.66 440.698 2230.49 439.333 Q2232.32 437.944 2232.32 435.351 Q2232.32 432.689 2230.42 431.277 Q2228.55 429.842 2225.03 429.842 Q2223.11 429.842 2220.91 430.259 Q2218.71 430.675 2216.07 431.555 L2216.07 427.388 Q2218.73 426.648 2221.05 426.277 Q2223.39 425.907 2225.45 425.907 Q2230.77 425.907 2233.87 428.337 Q2236.97 430.745 2236.97 434.865 Q2236.97 437.736 2235.33 439.726 Q2233.69 441.694 2230.66 442.458 Z" fill="#000000" fill-rule="nonzero" fill-opacity="1" /><polyline clip-path="url(#clip983)" style="stroke:#000000; stroke-linecap:round; stroke-linejoin:round; stroke-width:2; stroke-opacity:0.1; fill:none" points="1445.66,388.745 2352.76,388.745 "/>
<polyline clip-path="url(#clip983)" style="stroke:#000000; stroke-linecap:round; stroke-linejoin:round; stroke-width:2; stroke-opacity:0.1; fill:none" points="1445.66,323.008 2352.76,323.008 "/>
<polyline clip-path="url(#clip983)" style="stroke:#000000; stroke-linecap:round; stroke-linejoin:round; stroke-width:2; stroke-opacity:0.1; fill:none" points="1445.66,257.27 2352.76,257.27 "/>
<polyline clip-path="url(#clip983)" style="stroke:#000000; stroke-linecap:round; stroke-linejoin:round; stroke-width:2; stroke-opacity:0.1; fill:none" points="1445.66,191.533 2352.76,191.533 "/>
<polyline clip-path="url(#clip983)" style="stroke:#000000; stroke-linecap:round; stroke-linejoin:round; stroke-width:2; stroke-opacity:0.1; fill:none" points="1445.66,125.796 2352.76,125.796 "/>
<polyline clip-path="url(#clip983)" style="stroke:#000000; stroke-linecap:round; stroke-linejoin:round; stroke-width:2; stroke-opacity:0.1; fill:none" points="1445.66,60.0584 2352.76,60.0584 "/>
<polyline clip-path="url(#clip980)" style="stroke:#000000; stroke-linecap:round; stroke-linejoin:round; stroke-width:4; stroke-opacity:1; fill:none" points="1445.66,398.692 1445.66,47.2441 "/>
<polyline clip-path="url(#clip980)" style="stroke:#000000; stroke-linecap:round; stroke-linejoin:round; stroke-width:4; stroke-opacity:1; fill:none" points="1445.66,388.745 1464.56,388.745 "/>
<polyline clip-path="url(#clip980)" style="stroke:#000000; stroke-linecap:round; stroke-linejoin:round; stroke-width:4; stroke-opacity:1; fill:none" points="1445.66,323.008 1464.56,323.008 "/>
<polyline clip-path="url(#clip980)" style="stroke:#000000; stroke-linecap:round; stroke-linejoin:round; stroke-width:4; stroke-opacity:1; fill:none" points="1445.66,257.27 1464.56,257.27 "/>
<polyline clip-path="url(#clip980)" style="stroke:#000000; stroke-linecap:round; stroke-linejoin:round; stroke-width:4; stroke-opacity:1; fill:none" points="1445.66,191.533 1464.56,191.533 "/>
<polyline clip-path="url(#clip980)" style="stroke:#000000; stroke-linecap:round; stroke-linejoin:round; stroke-width:4; stroke-opacity:1; fill:none" points="1445.66,125.796 1464.56,125.796 "/>
<polyline clip-path="url(#clip980)" style="stroke:#000000; stroke-linecap:round; stroke-linejoin:round; stroke-width:4; stroke-opacity:1; fill:none" points="1445.66,60.0584 1464.56,60.0584 "/>
<path clip-path="url(#clip980)" d="M1352.49 374.544 Q1348.88 374.544 1347.05 378.109 Q1345.24 381.65 1345.24 388.78 Q1345.24 395.886 1347.05 399.451 Q1348.88 402.993 1352.49 402.993 Q1356.12 402.993 1357.93 399.451 Q1359.76 395.886 1359.76 388.78 Q1359.76 381.65 1357.93 378.109 Q1356.12 374.544 1352.49 374.544 M1352.49 370.84 Q1358.3 370.84 1361.35 375.447 Q1364.43 380.03 1364.43 388.78 Q1364.43 397.507 1361.35 402.113 Q1358.3 406.697 1352.49 406.697 Q1346.68 406.697 1343.6 402.113 Q1340.54 397.507 1340.54 388.78 Q1340.54 380.03 1343.6 375.447 Q1346.68 370.84 1352.49 370.84 Z" fill="#000000" fill-rule="nonzero" fill-opacity="1" /><path clip-path="url(#clip980)" d="M1372.65 400.146 L1377.54 400.146 L1377.54 406.025 L1372.65 406.025 L1372.65 400.146 Z" fill="#000000" fill-rule="nonzero" fill-opacity="1" /><path clip-path="url(#clip980)" d="M1397.72 374.544 Q1394.11 374.544 1392.28 378.109 Q1390.48 381.65 1390.48 388.78 Q1390.48 395.886 1392.28 399.451 Q1394.11 402.993 1397.72 402.993 Q1401.35 402.993 1403.16 399.451 Q1404.99 395.886 1404.99 388.78 Q1404.99 381.65 1403.16 378.109 Q1401.35 374.544 1397.72 374.544 M1397.72 370.84 Q1403.53 370.84 1406.59 375.447 Q1409.66 380.03 1409.66 388.78 Q1409.66 397.507 1406.59 402.113 Q1403.53 406.697 1397.72 406.697 Q1391.91 406.697 1388.83 402.113 Q1385.78 397.507 1385.78 388.78 Q1385.78 380.03 1388.83 375.447 Q1391.91 370.84 1397.72 370.84 Z" fill="#000000" fill-rule="nonzero" fill-opacity="1" /><path clip-path="url(#clip980)" d="M1353.72 308.807 Q1350.1 308.807 1348.28 312.371 Q1346.47 315.913 1346.47 323.043 Q1346.47 330.149 1348.28 333.714 Q1350.1 337.255 1353.72 337.255 Q1357.35 337.255 1359.16 333.714 Q1360.98 330.149 1360.98 323.043 Q1360.98 315.913 1359.16 312.371 Q1357.35 308.807 1353.72 308.807 M1353.72 305.103 Q1359.53 305.103 1362.58 309.709 Q1365.66 314.293 1365.66 323.043 Q1365.66 331.769 1362.58 336.376 Q1359.53 340.959 1353.72 340.959 Q1347.91 340.959 1344.83 336.376 Q1341.77 331.769 1341.77 323.043 Q1341.77 314.293 1344.83 309.709 Q1347.91 305.103 1353.72 305.103 Z" fill="#000000" fill-rule="nonzero" fill-opacity="1" /><path clip-path="url(#clip980)" d="M1373.88 334.408 L1378.76 334.408 L1378.76 340.288 L1373.88 340.288 L1373.88 334.408 Z" fill="#000000" fill-rule="nonzero" fill-opacity="1" /><path clip-path="url(#clip980)" d="M1389.76 336.353 L1397.4 336.353 L1397.4 309.987 L1389.09 311.654 L1389.09 307.395 L1397.35 305.728 L1402.03 305.728 L1402.03 336.353 L1409.66 336.353 L1409.66 340.288 L1389.76 340.288 L1389.76 336.353 Z" fill="#000000" fill-rule="nonzero" fill-opacity="1" /><path clip-path="url(#clip980)" d="M1354.09 243.069 Q1350.48 243.069 1348.65 246.634 Q1346.84 250.176 1346.84 257.305 Q1346.84 264.412 1348.65 267.976 Q1350.48 271.518 1354.09 271.518 Q1357.72 271.518 1359.53 267.976 Q1361.35 264.412 1361.35 257.305 Q1361.35 250.176 1359.53 246.634 Q1357.72 243.069 1354.09 243.069 M1354.09 239.365 Q1359.9 239.365 1362.95 243.972 Q1366.03 248.555 1366.03 257.305 Q1366.03 266.032 1362.95 270.638 Q1359.9 275.222 1354.09 275.222 Q1348.28 275.222 1345.2 270.638 Q1342.14 266.032 1342.14 257.305 Q1342.14 248.555 1345.2 243.972 Q1348.28 239.365 1354.09 239.365 Z" fill="#000000" fill-rule="nonzero" fill-opacity="1" /><path clip-path="url(#clip980)" d="M1374.25 268.671 L1379.13 268.671 L1379.13 274.55 L1374.25 274.55 L1374.25 268.671 Z" fill="#000000" fill-rule="nonzero" fill-opacity="1" /><path clip-path="url(#clip980)" d="M1393.35 270.615 L1409.66 270.615 L1409.66 274.55 L1387.72 274.55 L1387.72 270.615 Q1390.38 267.861 1394.97 263.231 Q1399.57 258.578 1400.75 257.236 Q1403 254.713 1403.88 252.977 Q1404.78 251.217 1404.78 249.527 Q1404.78 246.773 1402.84 245.037 Q1400.91 243.301 1397.81 243.301 Q1395.61 243.301 1393.16 244.065 Q1390.73 244.828 1387.95 246.379 L1387.95 241.657 Q1390.78 240.523 1393.23 239.944 Q1395.68 239.365 1397.72 239.365 Q1403.09 239.365 1406.29 242.051 Q1409.48 244.736 1409.48 249.227 Q1409.48 251.356 1408.67 253.277 Q1407.88 255.176 1405.78 257.768 Q1405.2 258.439 1402.1 261.657 Q1398.99 264.851 1393.35 270.615 Z" fill="#000000" fill-rule="nonzero" fill-opacity="1" /><path clip-path="url(#clip980)" d="M1353.14 177.332 Q1349.53 177.332 1347.7 180.897 Q1345.89 184.438 1345.89 191.568 Q1345.89 198.674 1347.7 202.239 Q1349.53 205.781 1353.14 205.781 Q1356.77 205.781 1358.58 202.239 Q1360.41 198.674 1360.41 191.568 Q1360.41 184.438 1358.58 180.897 Q1356.77 177.332 1353.14 177.332 M1353.14 173.628 Q1358.95 173.628 1362 178.235 Q1365.08 182.818 1365.08 191.568 Q1365.08 200.295 1362 204.901 Q1358.95 209.484 1353.14 209.484 Q1347.33 209.484 1344.25 204.901 Q1341.19 200.295 1341.19 191.568 Q1341.19 182.818 1344.25 178.235 Q1347.33 173.628 1353.14 173.628 Z" fill="#000000" fill-rule="nonzero" fill-opacity="1" /><path clip-path="url(#clip980)" d="M1373.3 202.934 L1378.18 202.934 L1378.18 208.813 L1373.3 208.813 L1373.3 202.934 Z" fill="#000000" fill-rule="nonzero" fill-opacity="1" /><path clip-path="url(#clip980)" d="M1402.54 190.179 Q1405.89 190.897 1407.77 193.165 Q1409.66 195.434 1409.66 198.767 Q1409.66 203.883 1406.15 206.683 Q1402.63 209.484 1396.15 209.484 Q1393.97 209.484 1391.66 209.045 Q1389.36 208.628 1386.91 207.771 L1386.91 203.258 Q1388.85 204.392 1391.17 204.971 Q1393.48 205.549 1396.01 205.549 Q1400.41 205.549 1402.7 203.813 Q1405.01 202.077 1405.01 198.767 Q1405.01 195.711 1402.86 193.998 Q1400.73 192.262 1396.91 192.262 L1392.88 192.262 L1392.88 188.42 L1397.1 188.42 Q1400.54 188.42 1402.37 187.054 Q1404.2 185.665 1404.2 183.073 Q1404.2 180.41 1402.3 178.998 Q1400.43 177.563 1396.91 177.563 Q1394.99 177.563 1392.79 177.98 Q1390.59 178.397 1387.95 179.276 L1387.95 175.11 Q1390.61 174.369 1392.93 173.998 Q1395.27 173.628 1397.33 173.628 Q1402.65 173.628 1405.75 176.059 Q1408.85 178.466 1408.85 182.586 Q1408.85 185.457 1407.21 187.447 Q1405.57 189.415 1402.54 190.179 Z" fill="#000000" fill-rule="nonzero" fill-opacity="1" /><path clip-path="url(#clip980)" d="M1352 111.594 Q1348.39 111.594 1346.56 115.159 Q1344.76 118.701 1344.76 125.83 Q1344.76 132.937 1346.56 136.502 Q1348.39 140.043 1352 140.043 Q1355.64 140.043 1357.44 136.502 Q1359.27 132.937 1359.27 125.83 Q1359.27 118.701 1357.44 115.159 Q1355.64 111.594 1352 111.594 M1352 107.891 Q1357.81 107.891 1360.87 112.497 Q1363.95 117.08 1363.95 125.83 Q1363.95 134.557 1360.87 139.164 Q1357.81 143.747 1352 143.747 Q1346.19 143.747 1343.11 139.164 Q1340.06 134.557 1340.06 125.83 Q1340.06 117.08 1343.11 112.497 Q1346.19 107.891 1352 107.891 Z" fill="#000000" fill-rule="nonzero" fill-opacity="1" /><path clip-path="url(#clip980)" d="M1372.16 137.196 L1377.05 137.196 L1377.05 143.076 L1372.16 143.076 L1372.16 137.196 Z" fill="#000000" fill-rule="nonzero" fill-opacity="1" /><path clip-path="url(#clip980)" d="M1400.08 112.59 L1388.28 131.039 L1400.08 131.039 L1400.08 112.59 M1398.85 108.516 L1404.73 108.516 L1404.73 131.039 L1409.66 131.039 L1409.66 134.928 L1404.73 134.928 L1404.73 143.076 L1400.08 143.076 L1400.08 134.928 L1384.48 134.928 L1384.48 130.414 L1398.85 108.516 Z" fill="#000000" fill-rule="nonzero" fill-opacity="1" /><path clip-path="url(#clip980)" d="M1353.48 45.857 Q1349.87 45.857 1348.04 49.4218 Q1346.24 52.9635 1346.24 60.0931 Q1346.24 67.1995 1348.04 70.7643 Q1349.87 74.306 1353.48 74.306 Q1357.12 74.306 1358.92 70.7643 Q1360.75 67.1995 1360.75 60.0931 Q1360.75 52.9635 1358.92 49.4218 Q1357.12 45.857 1353.48 45.857 M1353.48 42.1534 Q1359.29 42.1534 1362.35 46.7598 Q1365.43 51.3431 1365.43 60.0931 Q1365.43 68.8199 1362.35 73.4263 Q1359.29 78.0096 1353.48 78.0096 Q1347.67 78.0096 1344.6 73.4263 Q1341.54 68.8199 1341.54 60.0931 Q1341.54 51.3431 1344.6 46.7598 Q1347.67 42.1534 1353.48 42.1534 Z" fill="#000000" fill-rule="nonzero" fill-opacity="1" /><path clip-path="url(#clip980)" d="M1373.65 71.4588 L1378.53 71.4588 L1378.53 77.3384 L1373.65 77.3384 L1373.65 71.4588 Z" fill="#000000" fill-rule="nonzero" fill-opacity="1" /><path clip-path="url(#clip980)" d="M1388.76 42.7784 L1407.12 42.7784 L1407.12 46.7135 L1393.04 46.7135 L1393.04 55.1857 Q1394.06 54.8385 1395.08 54.6764 Q1396.1 54.4913 1397.12 54.4913 Q1402.91 54.4913 1406.29 57.6625 Q1409.66 60.8338 1409.66 66.2505 Q1409.66 71.8291 1406.19 74.931 Q1402.72 78.0096 1396.4 78.0096 Q1394.23 78.0096 1391.96 77.6393 Q1389.71 77.2689 1387.3 76.5282 L1387.3 71.8291 Q1389.39 72.9634 1391.61 73.5189 Q1393.83 74.0745 1396.31 74.0745 Q1400.31 74.0745 1402.65 71.968 Q1404.99 69.8615 1404.99 66.2505 Q1404.99 62.6394 1402.65 60.5329 Q1400.31 58.4264 1396.31 58.4264 Q1394.43 58.4264 1392.56 58.8431 Q1390.71 59.2597 1388.76 60.1394 L1388.76 42.7784 Z" fill="#000000" fill-rule="nonzero" fill-opacity="1" /><path clip-path="url(#clip980)" d="M1255.68 220.971 Q1257.48 220.971 1258.51 222.098 Q1259.51 223.225 1259.51 224.513 Q1259.51 225.737 1258.8 226.381 Q1258.1 227.025 1257.19 227.025 Q1255.97 227.025 1254.91 226.123 Q1253.84 225.222 1253.62 223.869 Q1252.78 225.189 1252.78 227.154 Q1252.78 228.442 1253.46 229.569 Q1254.13 230.664 1255 231.341 Q1255.87 231.985 1257.13 232.565 Q1258.35 233.112 1259.09 233.338 Q1259.8 233.531 1260.58 233.692 L1269.59 235.946 Q1273.88 237.041 1275.39 237.041 Q1277.26 237.041 1278.51 236.139 Q1279.74 235.238 1279.74 233.434 Q1279.74 232.726 1279.54 231.92 Q1279.32 231.115 1278.74 230.085 Q1278.13 229.022 1277.23 228.088 Q1276.29 227.122 1274.71 226.188 Q1273.14 225.254 1271.11 224.642 Q1270.4 224.449 1270.4 223.805 Q1270.4 222.999 1271.04 222.999 Q1271.59 222.999 1272.75 223.45 Q1273.88 223.869 1275.36 224.803 Q1276.81 225.705 1278.13 226.896 Q1279.42 228.088 1280.32 229.859 Q1281.22 231.631 1281.22 233.563 Q1281.22 236.333 1279.74 238.168 Q1278.26 240.004 1276.2 240.68 Q1276.49 240.842 1276.87 241.067 Q1277.26 241.292 1278.13 241.969 Q1278.96 242.613 1279.61 243.354 Q1280.22 244.094 1280.7 245.254 Q1281.22 246.381 1281.22 247.605 Q1281.22 249.151 1280.77 250.535 Q1280.32 251.888 1279.29 252.854 Q1278.26 253.82 1276.84 253.82 Q1275.26 253.82 1274.17 252.758 Q1273.04 251.663 1273.04 250.181 Q1273.04 249.247 1273.59 248.507 Q1274.13 247.734 1275.33 247.734 Q1276.65 247.734 1277.64 248.635 Q1278.64 249.537 1278.9 250.825 Q1279.74 249.505 1279.74 247.54 Q1279.74 245.415 1277.87 243.74 Q1276 242.065 1272.88 241.26 Q1265.37 239.263 1262.02 238.49 Q1258.64 237.718 1257.19 237.718 Q1255.84 237.718 1254.91 238.072 Q1253.97 238.426 1253.55 239.038 Q1253.1 239.618 1252.94 240.165 Q1252.78 240.68 1252.78 241.26 Q1252.78 242.226 1253.17 243.321 Q1253.55 244.384 1254.46 245.672 Q1255.33 246.928 1257.13 248.12 Q1258.93 249.312 1261.41 250.117 Q1262.15 250.278 1262.15 250.986 Q1262.12 251.759 1261.48 251.759 Q1260.93 251.759 1259.8 251.341 Q1258.64 250.89 1257.19 249.988 Q1255.74 249.054 1254.46 247.862 Q1253.14 246.639 1252.23 244.867 Q1251.33 243.064 1251.33 241.131 Q1251.33 240.262 1251.53 239.424 Q1251.69 238.555 1252.17 237.524 Q1252.65 236.462 1253.72 235.528 Q1254.78 234.594 1256.32 234.014 Q1255.58 233.627 1254.88 233.112 Q1254.17 232.565 1253.3 231.727 Q1252.4 230.858 1251.88 229.666 Q1251.33 228.442 1251.33 227.09 Q1251.33 225.769 1251.69 224.481 Q1252.01 223.193 1253.07 222.098 Q1254.1 220.971 1255.68 220.971 Z" fill="#000000" fill-rule="nonzero" fill-opacity="1" /><path clip-path="url(#clip980)" d="M1273.14 214.249 L1271.69 214.249 Q1271.69 208.703 1268.74 205.84 Q1268.74 205.051 1268.92 204.916 Q1269.1 204.781 1269.93 204.781 L1295.84 204.781 Q1297.21 204.781 1297.64 204.104 Q1298.07 203.428 1298.07 200.475 L1298.07 199.009 L1299.49 199.009 Q1299.35 200.633 1299.35 206.494 Q1299.35 212.356 1299.49 213.956 L1298.07 213.956 L1298.07 212.491 Q1298.07 209.583 1297.66 208.884 Q1297.24 208.185 1295.84 208.185 L1271.92 208.185 Q1273.14 210.597 1273.14 214.249 Z" fill="#000000" fill-rule="nonzero" fill-opacity="1" /><polyline clip-path="url(#clip983)" style="stroke:#009af9; stroke-linecap:round; stroke-linejoin:round; stroke-width:4; stroke-opacity:1; fill:none" points="1471.34,388.745 1496.51,360.199 1521.68,295.443 1546.84,220.873 1572.01,154.14 1597.18,104.19 1622.35,73.1593 1647.52,58.8945 1672.69,57.1907 1697.86,63.3911 1723.03,73.3544 1748.2,83.9317 1773.37,93.0966 1798.53,99.8469 1823.7,103.979 1848.87,105.813 1874.04,105.937 1899.21,105.004 1924.38,103.588 1949.55,102.124 1974.72,100.882 1999.89,99.9868 2025.06,99.4565 2050.22,99.2381 2075.39,99.2463 2100.56,99.3907 2125.73,99.593 2150.9,99.7956 2176.07,99.9639 2201.24,100.082 2226.41,100.15 2251.58,100.176 2276.75,100.172 2301.91,100.15 2327.08,100.121 "/>
<polyline clip-path="url(#clip983)" style="stroke:#e26f46; stroke-linecap:round; stroke-linejoin:round; stroke-width:3; stroke-opacity:1; fill:none" stroke-dasharray="12, 6, 2, 6" points="1471.34,388.745 1496.51,348.55 1521.68,323.201 1546.84,229.892 1572.01,161.006 1597.18,103.834 1622.35,60.637 1647.52,63.3218 1672.69,57.4089 1697.86,68.8133 1723.03,77.4673 1748.2,99.0731 1773.37,93.9609 1798.53,98.5893 1823.7,104.643 1848.87,103.278 1874.04,108.619 1899.21,113.645 1924.38,97.3147 1949.55,107.825 1974.72,99.6337 1999.89,102.442 2025.06,91.4514 2050.22,95.1256 2075.39,101.15 2100.56,102.754 2125.73,109.724 2150.9,96.0904 2176.07,102.051 2201.24,96.1164 2226.41,114.649 2251.58,107.647 2276.75,95.0738 2301.91,95.0791 2327.08,93.382 "/>
<path clip-path="url(#clip980)" d="M2202.98 386.977 L2322.52 386.977 L2322.52 231.457 L2202.98 231.457  Z" fill="#ffffff" fill-rule="evenodd" fill-opacity="1"/>
<polyline clip-path="url(#clip980)" style="stroke:#000000; stroke-linecap:round; stroke-linejoin:round; stroke-width:4; stroke-opacity:1; fill:none" points="2202.98,386.977 2322.52,386.977 2322.52,231.457 2202.98,231.457 2202.98,386.977 "/>
<polyline clip-path="url(#clip980)" style="stroke:#009af9; stroke-linecap:round; stroke-linejoin:round; stroke-width:4; stroke-opacity:1; fill:none" points="2213.06,283.297 2273.53,283.297 "/>
<path clip-path="url(#clip980)" d="M2310.62 293.836 L2305.35 293.695 L2299.59 293.836 L2299.59 291.587 L2301.46 291.587 L2296.19 285.357 L2291.53 290.58 L2291.2 291.049 Q2291.2 291.26 2291.74 291.423 Q2292.3 291.587 2292.96 291.587 L2292.96 293.836 L2288.01 293.695 L2283.61 293.836 L2283.61 291.587 Q2285.09 291.587 2285.77 291.564 Q2286.47 291.517 2287.27 291.306 Q2288.06 291.096 2288.46 290.674 L2294.74 283.624 L2287.27 274.794 L2283.85 274.794 L2283.85 272.545 L2289.14 272.686 L2294.92 272.545 L2294.92 274.794 L2293 274.794 L2297.71 280.298 L2301.74 275.801 Q2301.76 275.777 2302.14 275.215 Q2301.39 274.794 2300.31 274.794 L2300.31 272.545 L2305.25 272.686 L2309.66 272.545 L2309.66 274.794 Q2307.74 274.794 2306.73 274.934 Q2305.75 275.051 2305.44 275.215 Q2305.16 275.379 2304.76 275.801 L2299.16 282.031 L2307.22 291.587 L2310.62 291.587 L2310.62 293.836 Z" fill="#000000" fill-rule="nonzero" fill-opacity="1" /><polyline clip-path="url(#clip980)" style="stroke:#e26f46; stroke-linecap:round; stroke-linejoin:round; stroke-width:3; stroke-opacity:1; fill:none" stroke-dasharray="12, 6, 2, 6" points="2213.06,335.137 2273.53,335.137 "/>
<path clip-path="url(#clip980)" d="M2306.2 323.615 L2305.79 324.287 Q2303.25 323.189 2300.08 321.434 Q2296.92 323.189 2294.38 324.287 L2293.98 323.615 Q2296.75 321.205 2300.08 319.352 Q2303.44 321.221 2306.2 323.615 Z" fill="#000000" fill-rule="nonzero" fill-opacity="1" /><path clip-path="url(#clip980)" d="M2310.62 350.681 L2305.35 350.54 L2299.59 350.681 L2299.59 348.432 L2301.46 348.432 L2296.19 342.202 L2291.53 347.425 L2291.2 347.893 Q2291.2 348.104 2291.74 348.268 Q2292.3 348.432 2292.96 348.432 L2292.96 350.681 L2288.01 350.54 L2283.61 350.681 L2283.61 348.432 Q2285.09 348.432 2285.77 348.409 Q2286.47 348.362 2287.27 348.151 Q2288.06 347.94 2288.46 347.519 L2294.74 340.468 L2287.27 331.638 L2283.85 331.638 L2283.85 329.39 L2289.14 329.53 L2294.92 329.39 L2294.92 331.638 L2293 331.638 L2297.71 337.142 L2301.74 332.645 Q2301.76 332.622 2302.14 332.06 Q2301.39 331.638 2300.31 331.638 L2300.31 329.39 L2305.25 329.53 L2309.66 329.39 L2309.66 331.638 Q2307.74 331.638 2306.73 331.779 Q2305.75 331.896 2305.44 332.06 Q2305.16 332.224 2304.76 332.645 L2299.16 338.876 L2307.22 348.432 L2310.62 348.432 L2310.62 350.681 Z" fill="#000000" fill-rule="nonzero" fill-opacity="1" /><path clip-path="url(#clip980)" d="M1445.66 910.936 L2352.76 910.936 L2352.76 559.488 L1445.66 559.488  Z" fill="#ffffff" fill-rule="evenodd" fill-opacity="1"/>
<defs>
  <clipPath id="clip984">
    <rect x="1445" y="559" width="908" height="352"/>
  </clipPath>
</defs>
<polyline clip-path="url(#clip984)" style="stroke:#000000; stroke-linecap:round; stroke-linejoin:round; stroke-width:2; stroke-opacity:0.1; fill:none" points="1471.34,910.936 1471.34,559.488 "/>
<polyline clip-path="url(#clip984)" style="stroke:#000000; stroke-linecap:round; stroke-linejoin:round; stroke-width:2; stroke-opacity:0.1; fill:none" points="1723.03,910.936 1723.03,559.488 "/>
<polyline clip-path="url(#clip984)" style="stroke:#000000; stroke-linecap:round; stroke-linejoin:round; stroke-width:2; stroke-opacity:0.1; fill:none" points="1974.72,910.936 1974.72,559.488 "/>
<polyline clip-path="url(#clip984)" style="stroke:#000000; stroke-linecap:round; stroke-linejoin:round; stroke-width:2; stroke-opacity:0.1; fill:none" points="2226.41,910.936 2226.41,559.488 "/>
<polyline clip-path="url(#clip980)" style="stroke:#000000; stroke-linecap:round; stroke-linejoin:round; stroke-width:4; stroke-opacity:1; fill:none" points="1445.66,910.936 2352.76,910.936 "/>
<polyline clip-path="url(#clip980)" style="stroke:#000000; stroke-linecap:round; stroke-linejoin:round; stroke-width:4; stroke-opacity:1; fill:none" points="1471.34,910.936 1471.34,892.038 "/>
<polyline clip-path="url(#clip980)" style="stroke:#000000; stroke-linecap:round; stroke-linejoin:round; stroke-width:4; stroke-opacity:1; fill:none" points="1723.03,910.936 1723.03,892.038 "/>
<polyline clip-path="url(#clip980)" style="stroke:#000000; stroke-linecap:round; stroke-linejoin:round; stroke-width:4; stroke-opacity:1; fill:none" points="1974.72,910.936 1974.72,892.038 "/>
<polyline clip-path="url(#clip980)" style="stroke:#000000; stroke-linecap:round; stroke-linejoin:round; stroke-width:4; stroke-opacity:1; fill:none" points="2226.41,910.936 2226.41,892.038 "/>
<path clip-path="url(#clip980)" d="M1471.34 941.855 Q1467.73 941.855 1465.9 945.419 Q1464.09 948.961 1464.09 956.091 Q1464.09 963.197 1465.9 966.762 Q1467.73 970.303 1471.34 970.303 Q1474.97 970.303 1476.78 966.762 Q1478.61 963.197 1478.61 956.091 Q1478.61 948.961 1476.78 945.419 Q1474.97 941.855 1471.34 941.855 M1471.34 938.151 Q1477.15 938.151 1480.2 942.757 Q1483.28 947.341 1483.28 956.091 Q1483.28 964.817 1480.2 969.424 Q1477.15 974.007 1471.34 974.007 Q1465.53 974.007 1462.45 969.424 Q1459.39 964.817 1459.39 956.091 Q1459.39 947.341 1462.45 942.757 Q1465.53 938.151 1471.34 938.151 Z" fill="#000000" fill-rule="nonzero" fill-opacity="1" /><path clip-path="url(#clip980)" d="M1713.41 969.401 L1721.05 969.401 L1721.05 943.035 L1712.74 944.702 L1712.74 940.443 L1721 938.776 L1725.68 938.776 L1725.68 969.401 L1733.32 969.401 L1733.32 973.336 L1713.41 973.336 L1713.41 969.401 Z" fill="#000000" fill-rule="nonzero" fill-opacity="1" /><path clip-path="url(#clip980)" d="M1969.37 969.401 L1985.69 969.401 L1985.69 973.336 L1963.75 973.336 L1963.75 969.401 Q1966.41 966.646 1970.99 962.016 Q1975.6 957.364 1976.78 956.021 Q1979.02 953.498 1979.9 951.762 Q1980.81 950.003 1980.81 948.313 Q1980.81 945.558 1978.86 943.822 Q1976.94 942.086 1973.84 942.086 Q1971.64 942.086 1969.18 942.85 Q1966.75 943.614 1963.98 945.165 L1963.98 940.443 Q1966.8 939.308 1969.25 938.73 Q1971.71 938.151 1973.75 938.151 Q1979.12 938.151 1982.31 940.836 Q1985.5 943.521 1985.5 948.012 Q1985.5 950.142 1984.69 952.063 Q1983.91 953.961 1981.8 956.554 Q1981.22 957.225 1978.12 960.442 Q1975.02 963.637 1969.37 969.401 Z" fill="#000000" fill-rule="nonzero" fill-opacity="1" /><path clip-path="url(#clip980)" d="M2230.66 954.702 Q2234.01 955.419 2235.89 957.688 Q2237.78 959.956 2237.78 963.29 Q2237.78 968.405 2234.27 971.206 Q2230.75 974.007 2224.27 974.007 Q2222.09 974.007 2219.78 973.567 Q2217.48 973.151 2215.03 972.294 L2215.03 967.78 Q2216.97 968.915 2219.29 969.493 Q2221.6 970.072 2224.13 970.072 Q2228.53 970.072 2230.82 968.336 Q2233.13 966.6 2233.13 963.29 Q2233.13 960.234 2230.98 958.521 Q2228.85 956.785 2225.03 956.785 L2221 956.785 L2221 952.942 L2225.22 952.942 Q2228.66 952.942 2230.49 951.577 Q2232.32 950.188 2232.32 947.595 Q2232.32 944.933 2230.42 943.521 Q2228.55 942.086 2225.03 942.086 Q2223.11 942.086 2220.91 942.503 Q2218.71 942.919 2216.07 943.799 L2216.07 939.632 Q2218.73 938.892 2221.05 938.521 Q2223.39 938.151 2225.45 938.151 Q2230.77 938.151 2233.87 940.581 Q2236.97 942.989 2236.97 947.109 Q2236.97 949.979 2235.33 951.97 Q2233.69 953.938 2230.66 954.702 Z" fill="#000000" fill-rule="nonzero" fill-opacity="1" /><polyline clip-path="url(#clip984)" style="stroke:#000000; stroke-linecap:round; stroke-linejoin:round; stroke-width:2; stroke-opacity:0.1; fill:none" points="1445.66,886.445 2352.76,886.445 "/>
<polyline clip-path="url(#clip984)" style="stroke:#000000; stroke-linecap:round; stroke-linejoin:round; stroke-width:2; stroke-opacity:0.1; fill:none" points="1445.66,838.495 2352.76,838.495 "/>
<polyline clip-path="url(#clip984)" style="stroke:#000000; stroke-linecap:round; stroke-linejoin:round; stroke-width:2; stroke-opacity:0.1; fill:none" points="1445.66,790.545 2352.76,790.545 "/>
<polyline clip-path="url(#clip984)" style="stroke:#000000; stroke-linecap:round; stroke-linejoin:round; stroke-width:2; stroke-opacity:0.1; fill:none" points="1445.66,742.594 2352.76,742.594 "/>
<polyline clip-path="url(#clip984)" style="stroke:#000000; stroke-linecap:round; stroke-linejoin:round; stroke-width:2; stroke-opacity:0.1; fill:none" points="1445.66,694.644 2352.76,694.644 "/>
<polyline clip-path="url(#clip984)" style="stroke:#000000; stroke-linecap:round; stroke-linejoin:round; stroke-width:2; stroke-opacity:0.1; fill:none" points="1445.66,646.694 2352.76,646.694 "/>
<polyline clip-path="url(#clip984)" style="stroke:#000000; stroke-linecap:round; stroke-linejoin:round; stroke-width:2; stroke-opacity:0.1; fill:none" points="1445.66,598.743 2352.76,598.743 "/>
<polyline clip-path="url(#clip980)" style="stroke:#000000; stroke-linecap:round; stroke-linejoin:round; stroke-width:4; stroke-opacity:1; fill:none" points="1445.66,910.936 1445.66,559.488 "/>
<polyline clip-path="url(#clip980)" style="stroke:#000000; stroke-linecap:round; stroke-linejoin:round; stroke-width:4; stroke-opacity:1; fill:none" points="1445.66,886.445 1464.56,886.445 "/>
<polyline clip-path="url(#clip980)" style="stroke:#000000; stroke-linecap:round; stroke-linejoin:round; stroke-width:4; stroke-opacity:1; fill:none" points="1445.66,838.495 1464.56,838.495 "/>
<polyline clip-path="url(#clip980)" style="stroke:#000000; stroke-linecap:round; stroke-linejoin:round; stroke-width:4; stroke-opacity:1; fill:none" points="1445.66,790.545 1464.56,790.545 "/>
<polyline clip-path="url(#clip980)" style="stroke:#000000; stroke-linecap:round; stroke-linejoin:round; stroke-width:4; stroke-opacity:1; fill:none" points="1445.66,742.594 1464.56,742.594 "/>
<polyline clip-path="url(#clip980)" style="stroke:#000000; stroke-linecap:round; stroke-linejoin:round; stroke-width:4; stroke-opacity:1; fill:none" points="1445.66,694.644 1464.56,694.644 "/>
<polyline clip-path="url(#clip980)" style="stroke:#000000; stroke-linecap:round; stroke-linejoin:round; stroke-width:4; stroke-opacity:1; fill:none" points="1445.66,646.694 1464.56,646.694 "/>
<polyline clip-path="url(#clip980)" style="stroke:#000000; stroke-linecap:round; stroke-linejoin:round; stroke-width:4; stroke-opacity:1; fill:none" points="1445.66,598.743 1464.56,598.743 "/>
<path clip-path="url(#clip980)" d="M1304.32 886.897 L1333.99 886.897 L1333.99 890.832 L1304.32 890.832 L1304.32 886.897 Z" fill="#000000" fill-rule="nonzero" fill-opacity="1" /><path clip-path="url(#clip980)" d="M1354.09 872.244 Q1350.48 872.244 1348.65 875.809 Q1346.84 879.351 1346.84 886.48 Q1346.84 893.587 1348.65 897.151 Q1350.48 900.693 1354.09 900.693 Q1357.72 900.693 1359.53 897.151 Q1361.35 893.587 1361.35 886.48 Q1361.35 879.351 1359.53 875.809 Q1357.72 872.244 1354.09 872.244 M1354.09 868.54 Q1359.9 868.54 1362.95 873.147 Q1366.03 877.73 1366.03 886.48 Q1366.03 895.207 1362.95 899.813 Q1359.9 904.397 1354.09 904.397 Q1348.28 904.397 1345.2 899.813 Q1342.14 895.207 1342.14 886.48 Q1342.14 877.73 1345.2 873.147 Q1348.28 868.54 1354.09 868.54 Z" fill="#000000" fill-rule="nonzero" fill-opacity="1" /><path clip-path="url(#clip980)" d="M1374.25 897.846 L1379.13 897.846 L1379.13 903.725 L1374.25 903.725 L1374.25 897.846 Z" fill="#000000" fill-rule="nonzero" fill-opacity="1" /><path clip-path="url(#clip980)" d="M1393.35 899.79 L1409.66 899.79 L1409.66 903.725 L1387.72 903.725 L1387.72 899.79 Q1390.38 897.036 1394.97 892.406 Q1399.57 887.753 1400.75 886.411 Q1403 883.888 1403.88 882.152 Q1404.78 880.392 1404.78 878.702 Q1404.78 875.948 1402.84 874.212 Q1400.91 872.476 1397.81 872.476 Q1395.61 872.476 1393.16 873.24 Q1390.73 874.003 1387.95 875.554 L1387.95 870.832 Q1390.78 869.698 1393.23 869.119 Q1395.68 868.54 1397.72 868.54 Q1403.09 868.54 1406.29 871.226 Q1409.48 873.911 1409.48 878.402 Q1409.48 880.531 1408.67 882.452 Q1407.88 884.351 1405.78 886.943 Q1405.2 887.614 1402.1 890.832 Q1398.99 894.026 1393.35 899.79 Z" fill="#000000" fill-rule="nonzero" fill-opacity="1" /><path clip-path="url(#clip980)" d="M1352.49 824.294 Q1348.88 824.294 1347.05 827.859 Q1345.24 831.4 1345.24 838.53 Q1345.24 845.636 1347.05 849.201 Q1348.88 852.743 1352.49 852.743 Q1356.12 852.743 1357.93 849.201 Q1359.76 845.636 1359.76 838.53 Q1359.76 831.4 1357.93 827.859 Q1356.12 824.294 1352.49 824.294 M1352.49 820.59 Q1358.3 820.59 1361.35 825.197 Q1364.43 829.78 1364.43 838.53 Q1364.43 847.257 1361.35 851.863 Q1358.3 856.446 1352.49 856.446 Q1346.68 856.446 1343.6 851.863 Q1340.54 847.257 1340.54 838.53 Q1340.54 829.78 1343.6 825.197 Q1346.68 820.59 1352.49 820.59 Z" fill="#000000" fill-rule="nonzero" fill-opacity="1" /><path clip-path="url(#clip980)" d="M1372.65 849.896 L1377.54 849.896 L1377.54 855.775 L1372.65 855.775 L1372.65 849.896 Z" fill="#000000" fill-rule="nonzero" fill-opacity="1" /><path clip-path="url(#clip980)" d="M1397.72 824.294 Q1394.11 824.294 1392.28 827.859 Q1390.48 831.4 1390.48 838.53 Q1390.48 845.636 1392.28 849.201 Q1394.11 852.743 1397.72 852.743 Q1401.35 852.743 1403.16 849.201 Q1404.99 845.636 1404.99 838.53 Q1404.99 831.4 1403.16 827.859 Q1401.35 824.294 1397.72 824.294 M1397.72 820.59 Q1403.53 820.59 1406.59 825.197 Q1409.66 829.78 1409.66 838.53 Q1409.66 847.257 1406.59 851.863 Q1403.53 856.446 1397.72 856.446 Q1391.91 856.446 1388.83 851.863 Q1385.78 847.257 1385.78 838.53 Q1385.78 829.78 1388.83 825.197 Q1391.91 820.59 1397.72 820.59 Z" fill="#000000" fill-rule="nonzero" fill-opacity="1" /><path clip-path="url(#clip980)" d="M1354.09 776.343 Q1350.48 776.343 1348.65 779.908 Q1346.84 783.45 1346.84 790.58 Q1346.84 797.686 1348.65 801.251 Q1350.48 804.792 1354.09 804.792 Q1357.72 804.792 1359.53 801.251 Q1361.35 797.686 1361.35 790.58 Q1361.35 783.45 1359.53 779.908 Q1357.72 776.343 1354.09 776.343 M1354.09 772.64 Q1359.9 772.64 1362.95 777.246 Q1366.03 781.83 1366.03 790.58 Q1366.03 799.306 1362.95 803.913 Q1359.9 808.496 1354.09 808.496 Q1348.28 808.496 1345.2 803.913 Q1342.14 799.306 1342.14 790.58 Q1342.14 781.83 1345.2 777.246 Q1348.28 772.64 1354.09 772.64 Z" fill="#000000" fill-rule="nonzero" fill-opacity="1" /><path clip-path="url(#clip980)" d="M1374.25 801.945 L1379.13 801.945 L1379.13 807.825 L1374.25 807.825 L1374.25 801.945 Z" fill="#000000" fill-rule="nonzero" fill-opacity="1" /><path clip-path="url(#clip980)" d="M1393.35 803.89 L1409.66 803.89 L1409.66 807.825 L1387.72 807.825 L1387.72 803.89 Q1390.38 801.135 1394.97 796.505 Q1399.57 791.853 1400.75 790.51 Q1403 787.987 1403.88 786.251 Q1404.78 784.492 1404.78 782.802 Q1404.78 780.047 1402.84 778.311 Q1400.91 776.575 1397.81 776.575 Q1395.61 776.575 1393.16 777.339 Q1390.73 778.103 1387.95 779.654 L1387.95 774.931 Q1390.78 773.797 1393.23 773.218 Q1395.68 772.64 1397.72 772.64 Q1403.09 772.64 1406.29 775.325 Q1409.48 778.01 1409.48 782.501 Q1409.48 784.63 1408.67 786.552 Q1407.88 788.45 1405.78 791.042 Q1405.2 791.714 1402.1 794.931 Q1398.99 798.126 1393.35 803.89 Z" fill="#000000" fill-rule="nonzero" fill-opacity="1" /><path clip-path="url(#clip980)" d="M1352 728.393 Q1348.39 728.393 1346.56 731.958 Q1344.76 735.5 1344.76 742.629 Q1344.76 749.736 1346.56 753.3 Q1348.39 756.842 1352 756.842 Q1355.64 756.842 1357.44 753.3 Q1359.27 749.736 1359.27 742.629 Q1359.27 735.5 1357.44 731.958 Q1355.64 728.393 1352 728.393 M1352 724.689 Q1357.81 724.689 1360.87 729.296 Q1363.95 733.879 1363.95 742.629 Q1363.95 751.356 1360.87 755.962 Q1357.81 760.546 1352 760.546 Q1346.19 760.546 1343.11 755.962 Q1340.06 751.356 1340.06 742.629 Q1340.06 733.879 1343.11 729.296 Q1346.19 724.689 1352 724.689 Z" fill="#000000" fill-rule="nonzero" fill-opacity="1" /><path clip-path="url(#clip980)" d="M1372.16 753.995 L1377.05 753.995 L1377.05 759.874 L1372.16 759.874 L1372.16 753.995 Z" fill="#000000" fill-rule="nonzero" fill-opacity="1" /><path clip-path="url(#clip980)" d="M1400.08 729.388 L1388.28 747.837 L1400.08 747.837 L1400.08 729.388 M1398.85 725.314 L1404.73 725.314 L1404.73 747.837 L1409.66 747.837 L1409.66 751.726 L1404.73 751.726 L1404.73 759.874 L1400.08 759.874 L1400.08 751.726 L1384.48 751.726 L1384.48 747.212 L1398.85 725.314 Z" fill="#000000" fill-rule="nonzero" fill-opacity="1" /><path clip-path="url(#clip980)" d="M1352.33 680.443 Q1348.72 680.443 1346.89 684.008 Q1345.08 687.549 1345.08 694.679 Q1345.08 701.785 1346.89 705.35 Q1348.72 708.892 1352.33 708.892 Q1355.96 708.892 1357.77 705.35 Q1359.6 701.785 1359.6 694.679 Q1359.6 687.549 1357.77 684.008 Q1355.96 680.443 1352.33 680.443 M1352.33 676.739 Q1358.14 676.739 1361.19 681.346 Q1364.27 685.929 1364.27 694.679 Q1364.27 703.406 1361.19 708.012 Q1358.14 712.595 1352.33 712.595 Q1346.52 712.595 1343.44 708.012 Q1340.38 703.406 1340.38 694.679 Q1340.38 685.929 1343.44 681.346 Q1346.52 676.739 1352.33 676.739 Z" fill="#000000" fill-rule="nonzero" fill-opacity="1" /><path clip-path="url(#clip980)" d="M1372.49 706.045 L1377.37 706.045 L1377.37 711.924 L1372.49 711.924 L1372.49 706.045 Z" fill="#000000" fill-rule="nonzero" fill-opacity="1" /><path clip-path="url(#clip980)" d="M1398.14 692.781 Q1394.99 692.781 1393.14 694.933 Q1391.31 697.086 1391.31 700.836 Q1391.31 704.563 1393.14 706.739 Q1394.99 708.892 1398.14 708.892 Q1401.29 708.892 1403.11 706.739 Q1404.97 704.563 1404.97 700.836 Q1404.97 697.086 1403.11 694.933 Q1401.29 692.781 1398.14 692.781 M1407.42 678.128 L1407.42 682.387 Q1405.66 681.554 1403.85 681.114 Q1402.07 680.674 1400.31 680.674 Q1395.68 680.674 1393.23 683.799 Q1390.8 686.924 1390.45 693.244 Q1391.82 691.23 1393.88 690.165 Q1395.94 689.077 1398.41 689.077 Q1403.62 689.077 1406.63 692.248 Q1409.66 695.396 1409.66 700.836 Q1409.66 706.16 1406.52 709.378 Q1403.37 712.595 1398.14 712.595 Q1392.14 712.595 1388.97 708.012 Q1385.8 703.406 1385.8 694.679 Q1385.8 686.484 1389.69 681.623 Q1393.58 676.739 1400.13 676.739 Q1401.89 676.739 1403.67 677.086 Q1405.47 677.434 1407.42 678.128 Z" fill="#000000" fill-rule="nonzero" fill-opacity="1" /><path clip-path="url(#clip980)" d="M1352.58 632.492 Q1348.97 632.492 1347.14 636.057 Q1345.34 639.599 1345.34 646.728 Q1345.34 653.835 1347.14 657.4 Q1348.97 660.941 1352.58 660.941 Q1356.22 660.941 1358.02 657.4 Q1359.85 653.835 1359.85 646.728 Q1359.85 639.599 1358.02 636.057 Q1356.22 632.492 1352.58 632.492 M1352.58 628.789 Q1358.39 628.789 1361.45 633.395 Q1364.53 637.979 1364.53 646.728 Q1364.53 655.455 1361.45 660.062 Q1358.39 664.645 1352.58 664.645 Q1346.77 664.645 1343.69 660.062 Q1340.64 655.455 1340.64 646.728 Q1340.64 637.979 1343.69 633.395 Q1346.77 628.789 1352.58 628.789 Z" fill="#000000" fill-rule="nonzero" fill-opacity="1" /><path clip-path="url(#clip980)" d="M1372.74 658.094 L1377.63 658.094 L1377.63 663.974 L1372.74 663.974 L1372.74 658.094 Z" fill="#000000" fill-rule="nonzero" fill-opacity="1" /><path clip-path="url(#clip980)" d="M1397.81 647.562 Q1394.48 647.562 1392.56 649.344 Q1390.66 651.127 1390.66 654.252 Q1390.66 657.377 1392.56 659.159 Q1394.48 660.941 1397.81 660.941 Q1401.15 660.941 1403.07 659.159 Q1404.99 657.353 1404.99 654.252 Q1404.99 651.127 1403.07 649.344 Q1401.17 647.562 1397.81 647.562 M1393.14 645.571 Q1390.13 644.83 1388.44 642.77 Q1386.77 640.71 1386.77 637.747 Q1386.77 633.604 1389.71 631.196 Q1392.67 628.789 1397.81 628.789 Q1402.97 628.789 1405.91 631.196 Q1408.85 633.604 1408.85 637.747 Q1408.85 640.71 1407.16 642.77 Q1405.5 644.83 1402.51 645.571 Q1405.89 646.358 1407.77 648.65 Q1409.66 650.941 1409.66 654.252 Q1409.66 659.275 1406.59 661.96 Q1403.53 664.645 1397.81 664.645 Q1392.1 664.645 1389.02 661.96 Q1385.96 659.275 1385.96 654.252 Q1385.96 650.941 1387.86 648.65 Q1389.76 646.358 1393.14 645.571 M1391.42 638.187 Q1391.42 640.872 1393.09 642.377 Q1394.78 643.881 1397.81 643.881 Q1400.82 643.881 1402.51 642.377 Q1404.22 640.872 1404.22 638.187 Q1404.22 635.502 1402.51 633.997 Q1400.82 632.492 1397.81 632.492 Q1394.78 632.492 1393.09 633.997 Q1391.42 635.502 1391.42 638.187 Z" fill="#000000" fill-rule="nonzero" fill-opacity="1" /><path clip-path="url(#clip980)" d="M1343.3 612.088 L1350.94 612.088 L1350.94 585.723 L1342.63 587.389 L1342.63 583.13 L1350.89 581.463 L1355.57 581.463 L1355.57 612.088 L1363.21 612.088 L1363.21 616.023 L1343.3 616.023 L1343.3 612.088 Z" fill="#000000" fill-rule="nonzero" fill-opacity="1" /><path clip-path="url(#clip980)" d="M1372.65 610.144 L1377.54 610.144 L1377.54 616.023 L1372.65 616.023 L1372.65 610.144 Z" fill="#000000" fill-rule="nonzero" fill-opacity="1" /><path clip-path="url(#clip980)" d="M1397.72 584.542 Q1394.11 584.542 1392.28 588.107 Q1390.48 591.649 1390.48 598.778 Q1390.48 605.885 1392.28 609.449 Q1394.11 612.991 1397.72 612.991 Q1401.35 612.991 1403.16 609.449 Q1404.99 605.885 1404.99 598.778 Q1404.99 591.649 1403.16 588.107 Q1401.35 584.542 1397.72 584.542 M1397.72 580.838 Q1403.53 580.838 1406.59 585.445 Q1409.66 590.028 1409.66 598.778 Q1409.66 607.505 1406.59 612.111 Q1403.53 616.695 1397.72 616.695 Q1391.91 616.695 1388.83 612.111 Q1385.78 607.505 1385.78 598.778 Q1385.78 590.028 1388.83 585.445 Q1391.91 580.838 1397.72 580.838 Z" fill="#000000" fill-rule="nonzero" fill-opacity="1" /><path clip-path="url(#clip980)" d="M1219.94 734.795 Q1221.74 734.795 1222.77 735.922 Q1223.77 737.049 1223.77 738.338 Q1223.77 739.561 1223.06 740.206 Q1222.36 740.85 1221.45 740.85 Q1220.23 740.85 1219.17 739.948 Q1218.1 739.046 1217.88 737.693 Q1217.04 739.014 1217.04 740.978 Q1217.04 742.267 1217.72 743.394 Q1218.39 744.489 1219.26 745.165 Q1220.13 745.809 1221.39 746.389 Q1222.61 746.937 1223.35 747.162 Q1224.06 747.355 1224.83 747.516 L1233.85 749.771 Q1238.14 750.866 1239.65 750.866 Q1241.52 750.866 1242.77 749.964 Q1244 749.062 1244 747.259 Q1244 746.55 1243.8 745.745 Q1243.58 744.94 1243 743.909 Q1242.39 742.846 1241.49 741.912 Q1240.55 740.946 1238.97 740.012 Q1237.4 739.078 1235.37 738.466 Q1234.66 738.273 1234.66 737.629 Q1234.66 736.824 1235.3 736.824 Q1235.85 736.824 1237.01 737.275 Q1238.14 737.693 1239.62 738.627 Q1241.07 739.529 1242.39 740.721 Q1243.68 741.912 1244.58 743.684 Q1245.48 745.455 1245.48 747.387 Q1245.48 750.157 1244 751.993 Q1242.52 753.829 1240.45 754.505 Q1240.74 754.666 1241.13 754.891 Q1241.52 755.117 1242.39 755.793 Q1243.22 756.437 1243.87 757.178 Q1244.48 757.919 1244.96 759.078 Q1245.48 760.205 1245.48 761.429 Q1245.48 762.975 1245.03 764.36 Q1244.58 765.713 1243.55 766.679 Q1242.52 767.645 1241.1 767.645 Q1239.52 767.645 1238.43 766.582 Q1237.3 765.487 1237.3 764.006 Q1237.3 763.072 1237.85 762.331 Q1238.39 761.558 1239.59 761.558 Q1240.91 761.558 1241.9 762.46 Q1242.9 763.362 1243.16 764.65 Q1244 763.329 1244 761.365 Q1244 759.239 1242.13 757.565 Q1240.26 755.89 1237.14 755.085 Q1229.63 753.088 1226.28 752.315 Q1222.9 751.542 1221.45 751.542 Q1220.1 751.542 1219.17 751.896 Q1218.23 752.251 1217.81 752.862 Q1217.36 753.442 1217.2 753.99 Q1217.04 754.505 1217.04 755.085 Q1217.04 756.051 1217.43 757.146 Q1217.81 758.209 1218.72 759.497 Q1219.59 760.753 1221.39 761.944 Q1223.19 763.136 1225.67 763.941 Q1226.41 764.102 1226.41 764.811 Q1226.38 765.584 1225.74 765.584 Q1225.19 765.584 1224.06 765.165 Q1222.9 764.714 1221.45 763.812 Q1220 762.878 1218.72 761.687 Q1217.4 760.463 1216.49 758.692 Q1215.59 756.888 1215.59 754.956 Q1215.59 754.086 1215.79 753.249 Q1215.95 752.379 1216.43 751.349 Q1216.91 750.286 1217.98 749.352 Q1219.04 748.418 1220.58 747.838 Q1219.84 747.452 1219.13 746.937 Q1218.43 746.389 1217.56 745.552 Q1216.65 744.682 1216.14 743.491 Q1215.59 742.267 1215.59 740.914 Q1215.59 739.594 1215.95 738.305 Q1216.27 737.017 1217.33 735.922 Q1218.36 734.795 1219.94 734.795 Z" fill="#000000" fill-rule="nonzero" fill-opacity="1" /><path clip-path="url(#clip980)" d="M1263.75 728.074 Q1262.91 728.074 1262.67 728.006 Q1262.42 727.916 1262.04 727.555 L1252.16 718.695 Q1246.71 713.848 1241.95 713.848 Q1238.86 713.848 1236.65 715.472 Q1234.44 717.072 1234.44 720.025 Q1234.44 722.054 1235.68 723.768 Q1236.92 725.481 1239.13 726.27 Q1239.09 726.135 1239.09 725.661 Q1239.09 724.512 1239.81 723.88 Q1240.53 723.227 1241.5 723.227 Q1242.74 723.227 1243.35 724.038 Q1243.93 724.827 1243.93 725.616 Q1243.93 725.932 1243.87 726.36 Q1243.8 726.766 1243.17 727.42 Q1242.51 728.074 1241.36 728.074 Q1238.14 728.074 1235.57 725.639 Q1233 723.182 1233 719.439 Q1233 715.201 1235.52 712.428 Q1238.03 709.633 1241.95 709.633 Q1243.32 709.633 1244.59 710.061 Q1245.83 710.467 1246.8 711.03 Q1247.77 711.571 1249.32 713.059 Q1250.88 714.547 1251.98 715.742 Q1253.09 716.937 1255.43 719.62 L1260.19 724.512 L1260.19 716.193 Q1260.19 712.135 1259.83 711.819 Q1259.17 711.369 1255.72 710.805 L1255.72 709.633 L1263.75 710.94 L1263.75 728.074 Z" fill="#000000" fill-rule="nonzero" fill-opacity="1" /><polyline clip-path="url(#clip984)" style="stroke:#009af9; stroke-linecap:round; stroke-linejoin:round; stroke-width:4; stroke-opacity:1; fill:none" points="1471.34,838.495 1496.51,649.731 1521.68,570.785 1546.84,572.877 1572.01,622.692 1597.18,691.198 1622.35,758.127 1647.52,812.271 1672.69,849.486 1697.86,870.238 1723.03,877.531 1748.2,875.393 1773.37,867.845 1798.53,858.261 1823.7,849.06 1848.87,841.663 1874.04,836.63 1899.21,833.897 1924.38,833.03 1949.55,833.443 1974.72,834.56 1999.89,835.913 2025.06,837.177 2050.22,838.169 2075.39,838.827 2100.56,839.169 2125.73,839.262 2150.9,839.186 2176.07,839.022 2201.24,838.832 2226.41,838.659 2251.58,838.526 2276.75,838.44 2301.91,838.397 2327.08,838.388 "/>
<polyline clip-path="url(#clip984)" style="stroke:#e26f46; stroke-linecap:round; stroke-linejoin:round; stroke-width:3; stroke-opacity:1; fill:none" stroke-dasharray="12, 6, 2, 6" points="1471.34,838.495 1496.51,649.33 1521.68,638.426 1546.84,569.435 1572.01,614.76 1597.18,682.465 1622.35,752.6 1647.52,833.597 1672.69,870.697 1697.86,896.951 1723.03,900.989 1748.2,900.943 1773.37,877.09 1798.53,865.803 1823.7,856.493 1848.87,844.84 1874.04,841.275 1899.21,837.752 1924.38,825.055 1949.55,835.518 1974.72,830.598 1999.89,835.615 2025.06,831.633 2050.22,839.341 2075.39,843.691 2100.56,842.137 2125.73,843.025 2150.9,832.036 2176.07,838.766 2201.24,835.581 2226.41,846.706 2251.58,836.087 2276.75,829.566 2301.91,835.492 2327.08,838.196 "/>
<path clip-path="url(#clip980)" d="M2202.98 726.723 L2322.52 726.723 L2322.52 571.203 L2202.98 571.203  Z" fill="#ffffff" fill-rule="evenodd" fill-opacity="1"/>
<polyline clip-path="url(#clip980)" style="stroke:#000000; stroke-linecap:round; stroke-linejoin:round; stroke-width:4; stroke-opacity:1; fill:none" points="2202.98,726.723 2322.52,726.723 2322.52,571.203 2202.98,571.203 2202.98,726.723 "/>
<polyline clip-path="url(#clip980)" style="stroke:#009af9; stroke-linecap:round; stroke-linejoin:round; stroke-width:4; stroke-opacity:1; fill:none" points="2213.06,623.043 2273.53,623.043 "/>
<path clip-path="url(#clip980)" d="M2310.62 633.582 L2305.35 633.442 L2299.59 633.582 L2299.59 631.334 L2301.46 631.334 L2296.19 625.103 L2291.53 630.326 L2291.2 630.795 Q2291.2 631.006 2291.74 631.17 Q2292.3 631.334 2292.96 631.334 L2292.96 633.582 L2288.01 633.442 L2283.61 633.582 L2283.61 631.334 Q2285.09 631.334 2285.77 631.31 Q2286.47 631.263 2287.27 631.052 Q2288.06 630.842 2288.46 630.42 L2294.74 623.37 L2287.27 614.54 L2283.85 614.54 L2283.85 612.291 L2289.14 612.432 L2294.92 612.291 L2294.92 614.54 L2293 614.54 L2297.71 620.044 L2301.74 615.547 Q2301.76 615.523 2302.14 614.961 Q2301.39 614.54 2300.31 614.54 L2300.31 612.291 L2305.25 612.432 L2309.66 612.291 L2309.66 614.54 Q2307.74 614.54 2306.73 614.68 Q2305.75 614.797 2305.44 614.961 Q2305.16 615.125 2304.76 615.547 L2299.16 621.777 L2307.22 631.334 L2310.62 631.334 L2310.62 633.582 Z" fill="#000000" fill-rule="nonzero" fill-opacity="1" /><polyline clip-path="url(#clip980)" style="stroke:#e26f46; stroke-linecap:round; stroke-linejoin:round; stroke-width:3; stroke-opacity:1; fill:none" stroke-dasharray="12, 6, 2, 6" points="2213.06,674.883 2273.53,674.883 "/>
<path clip-path="url(#clip980)" d="M2306.2 663.361 L2305.79 664.033 Q2303.25 662.935 2300.08 661.18 Q2296.92 662.935 2294.38 664.033 L2293.98 663.361 Q2296.75 660.951 2300.08 659.098 Q2303.44 660.967 2306.2 663.361 Z" fill="#000000" fill-rule="nonzero" fill-opacity="1" /><path clip-path="url(#clip980)" d="M2310.62 690.427 L2305.35 690.286 L2299.59 690.427 L2299.59 688.178 L2301.46 688.178 L2296.19 681.948 L2291.53 687.171 L2291.2 687.639 Q2291.2 687.85 2291.74 688.014 Q2292.3 688.178 2292.96 688.178 L2292.96 690.427 L2288.01 690.286 L2283.61 690.427 L2283.61 688.178 Q2285.09 688.178 2285.77 688.155 Q2286.47 688.108 2287.27 687.897 Q2288.06 687.686 2288.46 687.265 L2294.74 680.214 L2287.27 671.384 L2283.85 671.384 L2283.85 669.136 L2289.14 669.276 L2294.92 669.136 L2294.92 671.384 L2293 671.384 L2297.71 676.888 L2301.74 672.391 Q2301.76 672.368 2302.14 671.806 Q2301.39 671.384 2300.31 671.384 L2300.31 669.136 L2305.25 669.276 L2309.66 669.136 L2309.66 671.384 Q2307.74 671.384 2306.73 671.525 Q2305.75 671.642 2305.44 671.806 Q2305.16 671.97 2304.76 672.391 L2299.16 678.622 L2307.22 688.178 L2310.62 688.178 L2310.62 690.427 Z" fill="#000000" fill-rule="nonzero" fill-opacity="1" /><path clip-path="url(#clip980)" d="M1445.66 1423.18 L2352.76 1423.18 L2352.76 1071.73 L1445.66 1071.73  Z" fill="#ffffff" fill-rule="evenodd" fill-opacity="1"/>
<defs>
  <clipPath id="clip985">
    <rect x="1445" y="1071" width="908" height="352"/>
  </clipPath>
</defs>
<polyline clip-path="url(#clip985)" style="stroke:#000000; stroke-linecap:round; stroke-linejoin:round; stroke-width:2; stroke-opacity:0.1; fill:none" points="1471.34,1423.18 1471.34,1071.73 "/>
<polyline clip-path="url(#clip985)" style="stroke:#000000; stroke-linecap:round; stroke-linejoin:round; stroke-width:2; stroke-opacity:0.1; fill:none" points="1723.03,1423.18 1723.03,1071.73 "/>
<polyline clip-path="url(#clip985)" style="stroke:#000000; stroke-linecap:round; stroke-linejoin:round; stroke-width:2; stroke-opacity:0.1; fill:none" points="1974.72,1423.18 1974.72,1071.73 "/>
<polyline clip-path="url(#clip985)" style="stroke:#000000; stroke-linecap:round; stroke-linejoin:round; stroke-width:2; stroke-opacity:0.1; fill:none" points="2226.41,1423.18 2226.41,1071.73 "/>
<polyline clip-path="url(#clip980)" style="stroke:#000000; stroke-linecap:round; stroke-linejoin:round; stroke-width:4; stroke-opacity:1; fill:none" points="1445.66,1423.18 2352.76,1423.18 "/>
<polyline clip-path="url(#clip980)" style="stroke:#000000; stroke-linecap:round; stroke-linejoin:round; stroke-width:4; stroke-opacity:1; fill:none" points="1471.34,1423.18 1471.34,1404.28 "/>
<polyline clip-path="url(#clip980)" style="stroke:#000000; stroke-linecap:round; stroke-linejoin:round; stroke-width:4; stroke-opacity:1; fill:none" points="1723.03,1423.18 1723.03,1404.28 "/>
<polyline clip-path="url(#clip980)" style="stroke:#000000; stroke-linecap:round; stroke-linejoin:round; stroke-width:4; stroke-opacity:1; fill:none" points="1974.72,1423.18 1974.72,1404.28 "/>
<polyline clip-path="url(#clip980)" style="stroke:#000000; stroke-linecap:round; stroke-linejoin:round; stroke-width:4; stroke-opacity:1; fill:none" points="2226.41,1423.18 2226.41,1404.28 "/>
<path clip-path="url(#clip980)" d="M1471.34 1454.1 Q1467.73 1454.1 1465.9 1457.66 Q1464.09 1461.2 1464.09 1468.33 Q1464.09 1475.44 1465.9 1479.01 Q1467.73 1482.55 1471.34 1482.55 Q1474.97 1482.55 1476.78 1479.01 Q1478.61 1475.44 1478.61 1468.33 Q1478.61 1461.2 1476.78 1457.66 Q1474.97 1454.1 1471.34 1454.1 M1471.34 1450.39 Q1477.15 1450.39 1480.2 1455 Q1483.28 1459.58 1483.28 1468.33 Q1483.28 1477.06 1480.2 1481.67 Q1477.15 1486.25 1471.34 1486.25 Q1465.53 1486.25 1462.45 1481.67 Q1459.39 1477.06 1459.39 1468.33 Q1459.39 1459.58 1462.45 1455 Q1465.53 1450.39 1471.34 1450.39 Z" fill="#000000" fill-rule="nonzero" fill-opacity="1" /><path clip-path="url(#clip980)" d="M1713.41 1481.64 L1721.05 1481.64 L1721.05 1455.28 L1712.74 1456.95 L1712.74 1452.69 L1721 1451.02 L1725.68 1451.02 L1725.68 1481.64 L1733.32 1481.64 L1733.32 1485.58 L1713.41 1485.58 L1713.41 1481.64 Z" fill="#000000" fill-rule="nonzero" fill-opacity="1" /><path clip-path="url(#clip980)" d="M1969.37 1481.64 L1985.69 1481.64 L1985.69 1485.58 L1963.75 1485.58 L1963.75 1481.64 Q1966.41 1478.89 1970.99 1474.26 Q1975.6 1469.61 1976.78 1468.27 Q1979.02 1465.74 1979.9 1464.01 Q1980.81 1462.25 1980.81 1460.56 Q1980.81 1457.8 1978.86 1456.07 Q1976.94 1454.33 1973.84 1454.33 Q1971.64 1454.33 1969.18 1455.09 Q1966.75 1455.86 1963.98 1457.41 L1963.98 1452.69 Q1966.8 1451.55 1969.25 1450.97 Q1971.71 1450.39 1973.75 1450.39 Q1979.12 1450.39 1982.31 1453.08 Q1985.5 1455.77 1985.5 1460.26 Q1985.5 1462.39 1984.69 1464.31 Q1983.91 1466.2 1981.8 1468.8 Q1981.22 1469.47 1978.12 1472.69 Q1975.02 1475.88 1969.37 1481.64 Z" fill="#000000" fill-rule="nonzero" fill-opacity="1" /><path clip-path="url(#clip980)" d="M2230.66 1466.95 Q2234.01 1467.66 2235.89 1469.93 Q2237.78 1472.2 2237.78 1475.53 Q2237.78 1480.65 2234.27 1483.45 Q2230.75 1486.25 2224.27 1486.25 Q2222.09 1486.25 2219.78 1485.81 Q2217.48 1485.39 2215.03 1484.54 L2215.03 1480.02 Q2216.97 1481.16 2219.29 1481.74 Q2221.6 1482.32 2224.13 1482.32 Q2228.53 1482.32 2230.82 1480.58 Q2233.13 1478.84 2233.13 1475.53 Q2233.13 1472.48 2230.98 1470.77 Q2228.85 1469.03 2225.03 1469.03 L2221 1469.03 L2221 1465.19 L2225.22 1465.19 Q2228.66 1465.19 2230.49 1463.82 Q2232.32 1462.43 2232.32 1459.84 Q2232.32 1457.18 2230.42 1455.77 Q2228.55 1454.33 2225.03 1454.33 Q2223.11 1454.33 2220.91 1454.75 Q2218.71 1455.16 2216.07 1456.04 L2216.07 1451.88 Q2218.73 1451.14 2221.05 1450.77 Q2223.39 1450.39 2225.45 1450.39 Q2230.77 1450.39 2233.87 1452.83 Q2236.97 1455.23 2236.97 1459.35 Q2236.97 1462.22 2235.33 1464.21 Q2233.69 1466.18 2230.66 1466.95 Z" fill="#000000" fill-rule="nonzero" fill-opacity="1" /><path clip-path="url(#clip980)" d="M1769.38 1520.52 L1809.58 1520.52 L1809.58 1525.93 L1792.71 1525.93 L1792.71 1568.04 L1786.25 1568.04 L1786.25 1525.93 L1769.38 1525.93 L1769.38 1520.52 Z" fill="#000000" fill-rule="nonzero" fill-opacity="1" /><path clip-path="url(#clip980)" d="M1813.53 1532.4 L1819.38 1532.4 L1819.38 1568.04 L1813.53 1568.04 L1813.53 1532.4 M1813.53 1518.52 L1819.38 1518.52 L1819.38 1525.93 L1813.53 1525.93 L1813.53 1518.52 Z" fill="#000000" fill-rule="nonzero" fill-opacity="1" /><path clip-path="url(#clip980)" d="M1859.39 1539.24 Q1861.59 1535.29 1864.64 1533.41 Q1867.7 1531.54 1871.84 1531.54 Q1877.41 1531.54 1880.43 1535.45 Q1883.46 1539.33 1883.46 1546.53 L1883.46 1568.04 L1877.57 1568.04 L1877.57 1546.72 Q1877.57 1541.59 1875.75 1539.11 Q1873.94 1536.63 1870.21 1536.63 Q1865.66 1536.63 1863.02 1539.65 Q1860.38 1542.68 1860.38 1547.9 L1860.38 1568.04 L1854.49 1568.04 L1854.49 1546.72 Q1854.49 1541.56 1852.68 1539.11 Q1850.86 1536.63 1847.08 1536.63 Q1842.59 1536.63 1839.95 1539.68 Q1837.3 1542.71 1837.3 1547.9 L1837.3 1568.04 L1831.42 1568.04 L1831.42 1532.4 L1837.3 1532.4 L1837.3 1537.93 Q1839.31 1534.66 1842.11 1533.1 Q1844.91 1531.54 1848.76 1531.54 Q1852.65 1531.54 1855.35 1533.51 Q1858.09 1535.48 1859.39 1539.24 Z" fill="#000000" fill-rule="nonzero" fill-opacity="1" /><path clip-path="url(#clip980)" d="M1925.63 1548.76 L1925.63 1551.62 L1898.7 1551.62 Q1899.08 1557.67 1902.33 1560.85 Q1905.61 1564 1911.43 1564 Q1914.81 1564 1917.96 1563.17 Q1921.14 1562.35 1924.26 1560.69 L1924.26 1566.23 Q1921.11 1567.57 1917.8 1568.27 Q1914.49 1568.97 1911.08 1568.97 Q1902.55 1568.97 1897.56 1564 Q1892.59 1559.04 1892.59 1550.57 Q1892.59 1541.82 1897.3 1536.69 Q1902.04 1531.54 1910.06 1531.54 Q1917.26 1531.54 1921.43 1536.18 Q1925.63 1540.8 1925.63 1548.76 M1919.77 1547.04 Q1919.71 1542.23 1917.07 1539.37 Q1914.46 1536.5 1910.13 1536.5 Q1905.23 1536.5 1902.27 1539.27 Q1899.34 1542.04 1898.89 1547.07 L1919.77 1547.04 Z" fill="#000000" fill-rule="nonzero" fill-opacity="1" /><path clip-path="url(#clip980)" d="M1970.03 1518.58 Q1965.76 1525.9 1963.69 1533.06 Q1961.63 1540.23 1961.63 1547.58 Q1961.63 1554.93 1963.69 1562.16 Q1965.8 1569.35 1970.03 1576.64 L1964.94 1576.64 Q1960.16 1569.16 1957.77 1561.93 Q1955.42 1554.71 1955.42 1547.58 Q1955.42 1540.48 1957.77 1533.29 Q1960.13 1526.09 1964.94 1518.58 L1970.03 1518.58 Z" fill="#000000" fill-rule="nonzero" fill-opacity="1" /><path clip-path="url(#clip980)" d="M2004.12 1533.45 L2004.12 1538.98 Q2001.63 1537.71 1998.96 1537.07 Q1996.29 1536.44 1993.42 1536.44 Q1989.06 1536.44 1986.87 1537.77 Q1984.7 1539.11 1984.7 1541.79 Q1984.7 1543.82 1986.26 1545 Q1987.82 1546.15 1992.53 1547.2 L1994.54 1547.64 Q2000.78 1548.98 2003.39 1551.43 Q2006.03 1553.85 2006.03 1558.21 Q2006.03 1563.17 2002.08 1566.07 Q1998.17 1568.97 1991.29 1568.97 Q1988.43 1568.97 1985.31 1568.39 Q1982.22 1567.85 1978.78 1566.74 L1978.78 1560.69 Q1982.03 1562.38 1985.18 1563.24 Q1988.33 1564.07 1991.42 1564.07 Q1995.56 1564.07 1997.78 1562.66 Q2000.01 1561.23 2000.01 1558.65 Q2000.01 1556.27 1998.39 1554.99 Q1996.8 1553.72 1991.35 1552.54 L1989.32 1552.07 Q1983.87 1550.92 1981.46 1548.56 Q1979.04 1546.18 1979.04 1542.04 Q1979.04 1537.01 1982.6 1534.27 Q1986.17 1531.54 1992.72 1531.54 Q1995.97 1531.54 1998.83 1532.01 Q2001.7 1532.49 2004.12 1533.45 Z" fill="#000000" fill-rule="nonzero" fill-opacity="1" /><path clip-path="url(#clip980)" d="M2014.43 1518.58 L2019.52 1518.58 Q2024.3 1526.09 2026.65 1533.29 Q2029.04 1540.48 2029.04 1547.58 Q2029.04 1554.71 2026.65 1561.93 Q2024.3 1569.16 2019.52 1576.64 L2014.43 1576.64 Q2018.66 1569.35 2020.73 1562.16 Q2022.83 1554.93 2022.83 1547.58 Q2022.83 1540.23 2020.73 1533.06 Q2018.66 1525.9 2014.43 1518.58 Z" fill="#000000" fill-rule="nonzero" fill-opacity="1" /><polyline clip-path="url(#clip985)" style="stroke:#000000; stroke-linecap:round; stroke-linejoin:round; stroke-width:2; stroke-opacity:0.1; fill:none" points="1445.66,1421.94 2352.76,1421.94 "/>
<polyline clip-path="url(#clip985)" style="stroke:#000000; stroke-linecap:round; stroke-linejoin:round; stroke-width:2; stroke-opacity:0.1; fill:none" points="1445.66,1313.8 2352.76,1313.8 "/>
<polyline clip-path="url(#clip985)" style="stroke:#000000; stroke-linecap:round; stroke-linejoin:round; stroke-width:2; stroke-opacity:0.1; fill:none" points="1445.66,1205.66 2352.76,1205.66 "/>
<polyline clip-path="url(#clip985)" style="stroke:#000000; stroke-linecap:round; stroke-linejoin:round; stroke-width:2; stroke-opacity:0.1; fill:none" points="1445.66,1097.52 2352.76,1097.52 "/>
<polyline clip-path="url(#clip980)" style="stroke:#000000; stroke-linecap:round; stroke-linejoin:round; stroke-width:4; stroke-opacity:1; fill:none" points="1445.66,1423.18 1445.66,1071.73 "/>
<polyline clip-path="url(#clip980)" style="stroke:#000000; stroke-linecap:round; stroke-linejoin:round; stroke-width:4; stroke-opacity:1; fill:none" points="1445.66,1421.94 1464.56,1421.94 "/>
<polyline clip-path="url(#clip980)" style="stroke:#000000; stroke-linecap:round; stroke-linejoin:round; stroke-width:4; stroke-opacity:1; fill:none" points="1445.66,1313.8 1464.56,1313.8 "/>
<polyline clip-path="url(#clip980)" style="stroke:#000000; stroke-linecap:round; stroke-linejoin:round; stroke-width:4; stroke-opacity:1; fill:none" points="1445.66,1205.66 1464.56,1205.66 "/>
<polyline clip-path="url(#clip980)" style="stroke:#000000; stroke-linecap:round; stroke-linejoin:round; stroke-width:4; stroke-opacity:1; fill:none" points="1445.66,1097.52 1464.56,1097.52 "/>
<path clip-path="url(#clip980)" d="M1273.55 1422.39 L1303.23 1422.39 L1303.23 1426.33 L1273.55 1426.33 L1273.55 1422.39 Z" fill="#000000" fill-rule="nonzero" fill-opacity="1" /><path clip-path="url(#clip980)" d="M1323.32 1407.74 Q1319.71 1407.74 1317.88 1411.31 Q1316.08 1414.85 1316.08 1421.98 Q1316.08 1429.08 1317.88 1432.65 Q1319.71 1436.19 1323.32 1436.19 Q1326.96 1436.19 1328.76 1432.65 Q1330.59 1429.08 1330.59 1421.98 Q1330.59 1414.85 1328.76 1411.31 Q1326.96 1407.74 1323.32 1407.74 M1323.32 1404.04 Q1329.13 1404.04 1332.19 1408.64 Q1335.27 1413.23 1335.27 1421.98 Q1335.27 1430.7 1332.19 1435.31 Q1329.13 1439.89 1323.32 1439.89 Q1317.51 1439.89 1314.43 1435.31 Q1311.38 1430.7 1311.38 1421.98 Q1311.38 1413.23 1314.43 1408.64 Q1317.51 1404.04 1323.32 1404.04 Z" fill="#000000" fill-rule="nonzero" fill-opacity="1" /><path clip-path="url(#clip980)" d="M1343.48 1433.34 L1348.37 1433.34 L1348.37 1439.22 L1343.48 1439.22 L1343.48 1433.34 Z" fill="#000000" fill-rule="nonzero" fill-opacity="1" /><path clip-path="url(#clip980)" d="M1359.36 1435.29 L1367 1435.29 L1367 1408.92 L1358.69 1410.59 L1358.69 1406.33 L1366.96 1404.66 L1371.63 1404.66 L1371.63 1435.29 L1379.27 1435.29 L1379.27 1439.22 L1359.36 1439.22 L1359.36 1435.29 Z" fill="#000000" fill-rule="nonzero" fill-opacity="1" /><path clip-path="url(#clip980)" d="M1388.76 1404.66 L1407.12 1404.66 L1407.12 1408.6 L1393.04 1408.6 L1393.04 1417.07 Q1394.06 1416.72 1395.08 1416.56 Q1396.1 1416.38 1397.12 1416.38 Q1402.91 1416.38 1406.29 1419.55 Q1409.66 1422.72 1409.66 1428.13 Q1409.66 1433.71 1406.19 1436.82 Q1402.72 1439.89 1396.4 1439.89 Q1394.23 1439.89 1391.96 1439.52 Q1389.71 1439.15 1387.3 1438.41 L1387.3 1433.71 Q1389.39 1434.85 1391.61 1435.4 Q1393.83 1435.96 1396.31 1435.96 Q1400.31 1435.96 1402.65 1433.85 Q1404.99 1431.75 1404.99 1428.13 Q1404.99 1424.52 1402.65 1422.42 Q1400.31 1420.31 1396.31 1420.31 Q1394.43 1420.31 1392.56 1420.73 Q1390.71 1421.14 1388.76 1422.02 L1388.76 1404.66 Z" fill="#000000" fill-rule="nonzero" fill-opacity="1" /><path clip-path="url(#clip980)" d="M1272.56 1314.25 L1302.23 1314.25 L1302.23 1318.19 L1272.56 1318.19 L1272.56 1314.25 Z" fill="#000000" fill-rule="nonzero" fill-opacity="1" /><path clip-path="url(#clip980)" d="M1322.33 1299.6 Q1318.72 1299.6 1316.89 1303.17 Q1315.08 1306.71 1315.08 1313.84 Q1315.08 1320.94 1316.89 1324.51 Q1318.72 1328.05 1322.33 1328.05 Q1325.96 1328.05 1327.77 1324.51 Q1329.6 1320.94 1329.6 1313.84 Q1329.6 1306.71 1327.77 1303.17 Q1325.96 1299.6 1322.33 1299.6 M1322.33 1295.9 Q1328.14 1295.9 1331.19 1300.5 Q1334.27 1305.09 1334.27 1313.84 Q1334.27 1322.56 1331.19 1327.17 Q1328.14 1331.75 1322.33 1331.75 Q1316.52 1331.75 1313.44 1327.17 Q1310.38 1322.56 1310.38 1313.84 Q1310.38 1305.09 1313.44 1300.5 Q1316.52 1295.9 1322.33 1295.9 Z" fill="#000000" fill-rule="nonzero" fill-opacity="1" /><path clip-path="url(#clip980)" d="M1342.49 1325.2 L1347.37 1325.2 L1347.37 1331.08 L1342.49 1331.08 L1342.49 1325.2 Z" fill="#000000" fill-rule="nonzero" fill-opacity="1" /><path clip-path="url(#clip980)" d="M1358.37 1327.15 L1366.01 1327.15 L1366.01 1300.78 L1357.7 1302.45 L1357.7 1298.19 L1365.96 1296.52 L1370.64 1296.52 L1370.64 1327.15 L1378.28 1327.15 L1378.28 1331.08 L1358.37 1331.08 L1358.37 1327.15 Z" fill="#000000" fill-rule="nonzero" fill-opacity="1" /><path clip-path="url(#clip980)" d="M1397.72 1299.6 Q1394.11 1299.6 1392.28 1303.17 Q1390.48 1306.71 1390.48 1313.84 Q1390.48 1320.94 1392.28 1324.51 Q1394.11 1328.05 1397.72 1328.05 Q1401.35 1328.05 1403.16 1324.51 Q1404.99 1320.94 1404.99 1313.84 Q1404.99 1306.71 1403.16 1303.17 Q1401.35 1299.6 1397.72 1299.6 M1397.72 1295.9 Q1403.53 1295.9 1406.59 1300.5 Q1409.66 1305.09 1409.66 1313.84 Q1409.66 1322.56 1406.59 1327.17 Q1403.53 1331.75 1397.72 1331.75 Q1391.91 1331.75 1388.83 1327.17 Q1385.78 1322.56 1385.78 1313.84 Q1385.78 1305.09 1388.83 1300.5 Q1391.91 1295.9 1397.72 1295.9 Z" fill="#000000" fill-rule="nonzero" fill-opacity="1" /><path clip-path="url(#clip980)" d="M1273.55 1206.11 L1303.23 1206.11 L1303.23 1210.05 L1273.55 1210.05 L1273.55 1206.11 Z" fill="#000000" fill-rule="nonzero" fill-opacity="1" /><path clip-path="url(#clip980)" d="M1323.32 1191.46 Q1319.71 1191.46 1317.88 1195.02 Q1316.08 1198.57 1316.08 1205.7 Q1316.08 1212.8 1317.88 1216.37 Q1319.71 1219.91 1323.32 1219.91 Q1326.96 1219.91 1328.76 1216.37 Q1330.59 1212.8 1330.59 1205.7 Q1330.59 1198.57 1328.76 1195.02 Q1326.96 1191.46 1323.32 1191.46 M1323.32 1187.76 Q1329.13 1187.76 1332.19 1192.36 Q1335.27 1196.95 1335.27 1205.7 Q1335.27 1214.42 1332.19 1219.03 Q1329.13 1223.61 1323.32 1223.61 Q1317.51 1223.61 1314.43 1219.03 Q1311.38 1214.42 1311.38 1205.7 Q1311.38 1196.95 1314.43 1192.36 Q1317.51 1187.76 1323.32 1187.76 Z" fill="#000000" fill-rule="nonzero" fill-opacity="1" /><path clip-path="url(#clip980)" d="M1343.48 1217.06 L1348.37 1217.06 L1348.37 1222.94 L1343.48 1222.94 L1343.48 1217.06 Z" fill="#000000" fill-rule="nonzero" fill-opacity="1" /><path clip-path="url(#clip980)" d="M1368.55 1191.46 Q1364.94 1191.46 1363.11 1195.02 Q1361.31 1198.57 1361.31 1205.7 Q1361.31 1212.8 1363.11 1216.37 Q1364.94 1219.91 1368.55 1219.91 Q1372.19 1219.91 1373.99 1216.37 Q1375.82 1212.8 1375.82 1205.7 Q1375.82 1198.57 1373.99 1195.02 Q1372.19 1191.46 1368.55 1191.46 M1368.55 1187.76 Q1374.36 1187.76 1377.42 1192.36 Q1380.5 1196.95 1380.5 1205.7 Q1380.5 1214.42 1377.42 1219.03 Q1374.36 1223.61 1368.55 1223.61 Q1362.74 1223.61 1359.67 1219.03 Q1356.61 1214.42 1356.61 1205.7 Q1356.61 1196.95 1359.67 1192.36 Q1362.74 1187.76 1368.55 1187.76 Z" fill="#000000" fill-rule="nonzero" fill-opacity="1" /><path clip-path="url(#clip980)" d="M1388.76 1188.38 L1407.12 1188.38 L1407.12 1192.32 L1393.04 1192.32 L1393.04 1200.79 Q1394.06 1200.44 1395.08 1200.28 Q1396.1 1200.09 1397.12 1200.09 Q1402.91 1200.09 1406.29 1203.26 Q1409.66 1206.44 1409.66 1211.85 Q1409.66 1217.43 1406.19 1220.53 Q1402.72 1223.61 1396.4 1223.61 Q1394.23 1223.61 1391.96 1223.24 Q1389.71 1222.87 1387.3 1222.13 L1387.3 1217.43 Q1389.39 1218.57 1391.61 1219.12 Q1393.83 1219.68 1396.31 1219.68 Q1400.31 1219.68 1402.65 1217.57 Q1404.99 1215.46 1404.99 1211.85 Q1404.99 1208.24 1402.65 1206.14 Q1400.31 1204.03 1396.31 1204.03 Q1394.43 1204.03 1392.56 1204.45 Q1390.71 1204.86 1388.76 1205.74 L1388.76 1188.38 Z" fill="#000000" fill-rule="nonzero" fill-opacity="1" /><path clip-path="url(#clip980)" d="M1322.33 1083.32 Q1318.72 1083.32 1316.89 1086.88 Q1315.08 1090.42 1315.08 1097.55 Q1315.08 1104.66 1316.89 1108.23 Q1318.72 1111.77 1322.33 1111.77 Q1325.96 1111.77 1327.77 1108.23 Q1329.6 1104.66 1329.6 1097.55 Q1329.6 1090.42 1327.77 1086.88 Q1325.96 1083.32 1322.33 1083.32 M1322.33 1079.61 Q1328.14 1079.61 1331.19 1084.22 Q1334.27 1088.8 1334.27 1097.55 Q1334.27 1106.28 1331.19 1110.89 Q1328.14 1115.47 1322.33 1115.47 Q1316.52 1115.47 1313.44 1110.89 Q1310.38 1106.28 1310.38 1097.55 Q1310.38 1088.8 1313.44 1084.22 Q1316.52 1079.61 1322.33 1079.61 Z" fill="#000000" fill-rule="nonzero" fill-opacity="1" /><path clip-path="url(#clip980)" d="M1342.49 1108.92 L1347.37 1108.92 L1347.37 1114.8 L1342.49 1114.8 L1342.49 1108.92 Z" fill="#000000" fill-rule="nonzero" fill-opacity="1" /><path clip-path="url(#clip980)" d="M1367.56 1083.32 Q1363.95 1083.32 1362.12 1086.88 Q1360.31 1090.42 1360.31 1097.55 Q1360.31 1104.66 1362.12 1108.23 Q1363.95 1111.77 1367.56 1111.77 Q1371.19 1111.77 1373 1108.23 Q1374.83 1104.66 1374.83 1097.55 Q1374.83 1090.42 1373 1086.88 Q1371.19 1083.32 1367.56 1083.32 M1367.56 1079.61 Q1373.37 1079.61 1376.42 1084.22 Q1379.5 1088.8 1379.5 1097.55 Q1379.5 1106.28 1376.42 1110.89 Q1373.37 1115.47 1367.56 1115.47 Q1361.75 1115.47 1358.67 1110.89 Q1355.61 1106.28 1355.61 1097.55 Q1355.61 1088.8 1358.67 1084.22 Q1361.75 1079.61 1367.56 1079.61 Z" fill="#000000" fill-rule="nonzero" fill-opacity="1" /><path clip-path="url(#clip980)" d="M1397.72 1083.32 Q1394.11 1083.32 1392.28 1086.88 Q1390.48 1090.42 1390.48 1097.55 Q1390.48 1104.66 1392.28 1108.23 Q1394.11 1111.77 1397.72 1111.77 Q1401.35 1111.77 1403.16 1108.23 Q1404.99 1104.66 1404.99 1097.55 Q1404.99 1090.42 1403.16 1086.88 Q1401.35 1083.32 1397.72 1083.32 M1397.72 1079.61 Q1403.53 1079.61 1406.59 1084.22 Q1409.66 1088.8 1409.66 1097.55 Q1409.66 1106.28 1406.59 1110.89 Q1403.53 1115.47 1397.72 1115.47 Q1391.91 1115.47 1388.83 1110.89 Q1385.78 1106.28 1385.78 1097.55 Q1385.78 1088.8 1388.83 1084.22 Q1391.91 1079.61 1397.72 1079.61 Z" fill="#000000" fill-rule="nonzero" fill-opacity="1" /><path clip-path="url(#clip980)" d="M1182.26 1250.93 L1183.18 1251.49 Q1181.67 1254.99 1179.26 1259.34 Q1181.67 1263.69 1183.18 1267.19 L1182.26 1267.73 Q1178.94 1263.92 1176.4 1259.34 Q1178.97 1254.72 1182.26 1250.93 Z" fill="#000000" fill-rule="nonzero" fill-opacity="1" /><path clip-path="url(#clip980)" d="M1194.56 1247.77 Q1196.36 1247.77 1197.39 1248.9 Q1198.39 1250.02 1198.39 1251.31 Q1198.39 1252.54 1197.68 1253.18 Q1196.97 1253.82 1196.07 1253.82 Q1194.85 1253.82 1193.78 1252.92 Q1192.72 1252.02 1192.49 1250.67 Q1191.66 1251.99 1191.66 1253.95 Q1191.66 1255.24 1192.33 1256.37 Q1193.01 1257.46 1193.88 1258.14 Q1194.75 1258.78 1196 1259.36 Q1197.23 1259.91 1197.97 1260.14 Q1198.68 1260.33 1199.45 1260.49 L1208.47 1262.74 Q1212.75 1263.84 1214.27 1263.84 Q1216.13 1263.84 1217.39 1262.94 Q1218.61 1262.04 1218.61 1260.23 Q1218.61 1259.52 1218.42 1258.72 Q1218.19 1257.91 1217.61 1256.88 Q1217 1255.82 1216.1 1254.89 Q1215.17 1253.92 1213.59 1252.99 Q1212.01 1252.05 1209.98 1251.44 Q1209.27 1251.25 1209.27 1250.6 Q1209.27 1249.8 1209.92 1249.8 Q1210.46 1249.8 1211.62 1250.25 Q1212.75 1250.67 1214.23 1251.6 Q1215.68 1252.5 1217 1253.69 Q1218.29 1254.89 1219.19 1256.66 Q1220.09 1258.43 1220.09 1260.36 Q1220.09 1263.13 1218.61 1264.97 Q1217.13 1266.8 1215.07 1267.48 Q1215.36 1267.64 1215.75 1267.87 Q1216.13 1268.09 1217 1268.77 Q1217.84 1269.41 1218.48 1270.15 Q1219.1 1270.89 1219.58 1272.05 Q1220.09 1273.18 1220.09 1274.4 Q1220.09 1275.95 1219.64 1277.33 Q1219.19 1278.69 1218.16 1279.65 Q1217.13 1280.62 1215.71 1280.62 Q1214.14 1280.62 1213.04 1279.56 Q1211.91 1278.46 1211.91 1276.98 Q1211.91 1276.05 1212.46 1275.3 Q1213.01 1274.53 1214.2 1274.53 Q1215.52 1274.53 1216.52 1275.43 Q1217.52 1276.34 1217.78 1277.62 Q1218.61 1276.3 1218.61 1274.34 Q1218.61 1272.21 1216.75 1270.54 Q1214.88 1268.86 1211.75 1268.06 Q1204.25 1266.06 1200.9 1265.29 Q1197.52 1264.52 1196.07 1264.52 Q1194.72 1264.52 1193.78 1264.87 Q1192.85 1265.22 1192.43 1265.84 Q1191.98 1266.42 1191.82 1266.96 Q1191.66 1267.48 1191.66 1268.06 Q1191.66 1269.02 1192.04 1270.12 Q1192.43 1271.18 1193.33 1272.47 Q1194.2 1273.73 1196 1274.92 Q1197.81 1276.11 1200.29 1276.92 Q1201.03 1277.08 1201.03 1277.78 Q1201 1278.56 1200.35 1278.56 Q1199.8 1278.56 1198.68 1278.14 Q1197.52 1277.69 1196.07 1276.79 Q1194.62 1275.85 1193.33 1274.66 Q1192.01 1273.44 1191.11 1271.67 Q1190.21 1269.86 1190.21 1267.93 Q1190.21 1267.06 1190.4 1266.22 Q1190.56 1265.35 1191.04 1264.32 Q1191.53 1263.26 1192.59 1262.33 Q1193.65 1261.39 1195.2 1260.81 Q1194.46 1260.43 1193.75 1259.91 Q1193.04 1259.36 1192.17 1258.53 Q1191.27 1257.66 1190.75 1256.46 Q1190.21 1255.24 1190.21 1253.89 Q1190.21 1252.57 1190.56 1251.28 Q1190.88 1249.99 1191.95 1248.9 Q1192.98 1247.77 1194.56 1247.77 Z" fill="#000000" fill-rule="nonzero" fill-opacity="1" /><path clip-path="url(#clip980)" d="M1232.14 1240.31 Q1230.77 1240.31 1230.11 1239.52 Q1229.46 1238.73 1229.46 1237.72 Q1229.46 1236.66 1230.16 1235.91 Q1230.83 1235.15 1232.03 1235.15 Q1233.31 1235.15 1234.04 1236.05 Q1234.76 1236.93 1234.58 1238.19 Q1236.43 1237.09 1237.26 1235.06 Q1238.09 1233.01 1238.09 1231.11 Q1238.09 1229.13 1236.38 1227.53 Q1234.67 1225.9 1230.47 1225.9 Q1226.91 1225.9 1224.86 1227.3 Q1222.81 1228.68 1222.81 1231.4 L1222.81 1233.43 Q1222.81 1234.13 1222.74 1234.34 Q1222.67 1234.54 1222.29 1234.54 Q1221.84 1234.54 1221.75 1233.84 Q1221.75 1233.14 1221.61 1232.04 Q1221.52 1229.35 1219.2 1227.93 Q1217.04 1226.65 1213.95 1226.65 Q1211.13 1226.65 1209.96 1228 Q1208.76 1229.33 1208.76 1231.07 Q1208.76 1232.69 1209.44 1234.47 Q1210.12 1236.25 1211.63 1237.22 Q1211.63 1234.36 1213.95 1234.36 Q1214.96 1234.36 1215.64 1235.01 Q1216.29 1235.64 1216.29 1236.7 Q1216.29 1237.72 1215.66 1238.39 Q1215.01 1239.07 1213.9 1239.07 Q1211.27 1239.07 1209.44 1236.73 Q1207.61 1234.36 1207.61 1230.89 Q1207.61 1227.46 1209.42 1224.93 Q1211.22 1222.39 1213.99 1222.39 Q1216.72 1222.39 1218.95 1224.19 Q1221.19 1225.99 1222.11 1228.86 Q1222.81 1225.34 1225.2 1223.24 Q1227.57 1221.15 1230.47 1221.15 Q1234.08 1221.15 1236.74 1223.99 Q1239.38 1226.83 1239.38 1230.98 Q1239.38 1234.81 1237.31 1237.56 Q1235.23 1240.31 1232.14 1240.31 Z" fill="#000000" fill-rule="nonzero" fill-opacity="1" /><polyline clip-path="url(#clip985)" style="stroke:#e26f46; stroke-linecap:round; stroke-linejoin:round; stroke-width:3; stroke-opacity:1; fill:none" stroke-dasharray="12, 6, 2, 6" points="1471.34,1097.52 1496.51,1097.52 1521.68,1413.23 1546.84,1207.96 1572.01,1205.77 1597.18,1188.1 1622.35,1157.45 1647.52,1196.56 1672.69,1171.55 1697.86,1167.97 1723.03,1148.78 1748.2,1158.26 1773.37,1115.06 1798.53,1104.9 1823.7,1104.44 1848.87,1093.89 1874.04,1103.1 1899.21,1113.84 1924.38,1081.68 1949.55,1110.32 1974.72,1095.32 1999.89,1104.92 2025.06,1083.23 2050.22,1093.22 2075.39,1104.79 2100.56,1105.62 2125.73,1118.71 2150.9,1088.75 2176.07,1103.97 2201.24,1091.44 2226.41,1131.32 2251.58,1113.88 2276.75,1089.18 2301.91,1092.79 2327.08,1089.91 "/>
</svg>
