<?xml version="1.0" encoding="utf-8"?>
<svg xmlns="http://www.w3.org/2000/svg" xmlns:xlink="http://www.w3.org/1999/xlink" width="600" height="400" viewBox="0 0 2400 1600">
<defs>
  <clipPath id="clip530">
    <rect x="0" y="0" width="2400" height="1600"/>
  </clipPath>
</defs>
<path clip-path="url(#clip530)" d="M0 1600 L2400 1600 L2400 0 L0 0  Z" fill="#ffffff" fill-rule="evenodd" fill-opacity="1"/>
<defs>
  <clipPath id="clip531">
    <rect x="480" y="0" width="1681" height="1600"/>
  </clipPath>
</defs>
<path clip-path="url(#clip530)" d="M232.389 1423.18 L1140.35 1423.18 L1140.35 47.2441 L232.389 47.2441  Z" fill="#ffffff" fill-rule="evenodd" fill-opacity="1"/>
<defs>
  <clipPath id="clip532">
    <rect x="232" y="47" width="909" height="1377"/>
  </clipPath>
</defs>
<polyline clip-path="url(#clip532)" style="stroke:#000000; stroke-linecap:round; stroke-linejoin:round; stroke-width:2; stroke-opacity:0.1; fill:none" points="258.086,1423.18 258.086,47.2441 "/>
<polyline clip-path="url(#clip532)" style="stroke:#000000; stroke-linecap:round; stroke-linejoin:round; stroke-width:2; stroke-opacity:0.1; fill:none" points="510.017,1423.18 510.017,47.2441 "/>
<polyline clip-path="url(#clip532)" style="stroke:#000000; stroke-linecap:round; stroke-linejoin:round; stroke-width:2; stroke-opacity:0.1; fill:none" points="761.948,1423.18 761.948,47.2441 "/>
<polyline clip-path="url(#clip532)" style="stroke:#000000; stroke-linecap:round; stroke-linejoin:round; stroke-width:2; stroke-opacity:0.1; fill:none" points="1013.88,1423.18 1013.88,47.2441 "/>
<polyline clip-path="url(#clip530)" style="stroke:#000000; stroke-linecap:round; stroke-linejoin:round; stroke-width:4; stroke-opacity:1; fill:none" points="232.389,1423.18 1140.35,1423.18 "/>
<polyline clip-path="url(#clip530)" style="stroke:#000000; stroke-linecap:round; stroke-linejoin:round; stroke-width:4; stroke-opacity:1; fill:none" points="258.086,1423.18 258.086,1404.28 "/>
<polyline clip-path="url(#clip530)" style="stroke:#000000; stroke-linecap:round; stroke-linejoin:round; stroke-width:4; stroke-opacity:1; fill:none" points="510.017,1423.18 510.017,1404.28 "/>
<polyline clip-path="url(#clip530)" style="stroke:#000000; stroke-linecap:round; stroke-linejoin:round; stroke-width:4; stroke-opacity:1; fill:none" points="761.948,1423.18 761.948,1404.28 "/>
<polyline clip-path="url(#clip530)" style="stroke:#000000; stroke-linecap:round; stroke-linejoin:round; stroke-width:4; stroke-opacity:1; fill:none" points="1013.88,1423.18 1013.88,1404.28 "/>
<path clip-path="url(#clip530)" d="M258.086 1454.1 Q254.475 1454.1 252.647 1457.66 Q250.841 1461.2 250.841 1468.33 Q250.841 1475.44 252.647 1479.01 Q254.475 1482.55 258.086 1482.55 Q261.721 1482.55 263.526 1479.01 Q265.355 1475.44 265.355 1468.33 Q265.355 1461.2 263.526 1457.66 Q261.721 1454.1 258.086 1454.1 M258.086 1450.39 Q263.896 1450.39 266.952 1455 Q270.031 1459.58 270.031 1468.33 Q270.031 1477.06 266.952 1481.67 Q263.896 1486.25 258.086 1486.25 Q252.276 1486.25 249.197 1481.67 Q246.142 1477.06 246.142 1468.33 Q246.142 1459.58 249.197 1455 Q252.276 1450.39 258.086 1450.39 Z" fill="#000000" fill-rule="nonzero" fill-opacity="1" /><path clip-path="url(#clip530)" d="M500.399 1481.64 L508.038 1481.64 L508.038 1455.28 L499.728 1456.95 L499.728 1452.69 L507.992 1451.02 L512.668 1451.02 L512.668 1481.64 L520.307 1481.64 L520.307 1485.58 L500.399 1485.58 L500.399 1481.64 Z" fill="#000000" fill-rule="nonzero" fill-opacity="1" /><path clip-path="url(#clip530)" d="M756.601 1481.64 L772.92 1481.64 L772.92 1485.58 L750.976 1485.58 L750.976 1481.64 Q753.638 1478.89 758.221 1474.26 Q762.828 1469.61 764.008 1468.27 Q766.254 1465.74 767.133 1464.01 Q768.036 1462.25 768.036 1460.56 Q768.036 1457.8 766.092 1456.07 Q764.17 1454.33 761.069 1454.33 Q758.87 1454.33 756.416 1455.09 Q753.985 1455.86 751.208 1457.41 L751.208 1452.69 Q754.032 1451.55 756.485 1450.97 Q758.939 1450.39 760.976 1450.39 Q766.346 1450.39 769.541 1453.08 Q772.735 1455.77 772.735 1460.26 Q772.735 1462.39 771.925 1464.31 Q771.138 1466.2 769.032 1468.8 Q768.453 1469.47 765.351 1472.69 Q762.249 1475.88 756.601 1481.64 Z" fill="#000000" fill-rule="nonzero" fill-opacity="1" /><path clip-path="url(#clip530)" d="M1018.13 1466.95 Q1021.48 1467.66 1023.36 1469.93 Q1025.26 1472.2 1025.26 1475.53 Q1025.26 1480.65 1021.74 1483.45 Q1018.22 1486.25 1011.74 1486.25 Q1009.56 1486.25 1007.25 1485.81 Q1004.96 1485.39 1002.5 1484.54 L1002.5 1480.02 Q1004.45 1481.16 1006.76 1481.74 Q1009.08 1482.32 1011.6 1482.32 Q1016 1482.32 1018.29 1480.58 Q1020.6 1478.84 1020.6 1475.53 Q1020.6 1472.48 1018.45 1470.77 Q1016.32 1469.03 1012.5 1469.03 L1008.47 1469.03 L1008.47 1465.19 L1012.69 1465.19 Q1016.14 1465.19 1017.96 1463.82 Q1019.79 1462.43 1019.79 1459.84 Q1019.79 1457.18 1017.9 1455.77 Q1016.02 1454.33 1012.5 1454.33 Q1010.58 1454.33 1008.38 1454.75 Q1006.18 1455.16 1003.54 1456.04 L1003.54 1451.88 Q1006.21 1451.14 1008.52 1450.77 Q1010.86 1450.39 1012.92 1450.39 Q1018.24 1450.39 1021.34 1452.83 Q1024.45 1455.23 1024.45 1459.35 Q1024.45 1462.22 1022.8 1464.21 Q1021.16 1466.18 1018.13 1466.95 Z" fill="#000000" fill-rule="nonzero" fill-opacity="1" /><path clip-path="url(#clip530)" d="M556.54 1520.52 L596.74 1520.52 L596.74 1525.93 L579.871 1525.93 L579.871 1568.04 L573.409 1568.04 L573.409 1525.93 L556.54 1525.93 L556.54 1520.52 Z" fill="#000000" fill-rule="nonzero" fill-opacity="1" /><path clip-path="url(#clip530)" d="M600.687 1532.4 L606.543 1532.4 L606.543 1568.04 L600.687 1568.04 L600.687 1532.4 M600.687 1518.52 L606.543 1518.52 L606.543 1525.93 L600.687 1525.93 L600.687 1518.52 Z" fill="#000000" fill-rule="nonzero" fill-opacity="1" /><path clip-path="url(#clip530)" d="M646.551 1539.24 Q648.748 1535.29 651.803 1533.41 Q654.859 1531.54 658.996 1531.54 Q664.566 1531.54 667.59 1535.45 Q670.614 1539.33 670.614 1546.53 L670.614 1568.04 L664.726 1568.04 L664.726 1546.72 Q664.726 1541.59 662.911 1539.11 Q661.097 1536.63 657.373 1536.63 Q652.822 1536.63 650.18 1539.65 Q647.538 1542.68 647.538 1547.9 L647.538 1568.04 L641.65 1568.04 L641.65 1546.72 Q641.65 1541.56 639.836 1539.11 Q638.021 1536.63 634.234 1536.63 Q629.746 1536.63 627.104 1539.68 Q624.462 1542.71 624.462 1547.9 L624.462 1568.04 L618.574 1568.04 L618.574 1532.4 L624.462 1532.4 L624.462 1537.93 Q626.468 1534.66 629.269 1533.1 Q632.069 1531.54 635.921 1531.54 Q639.804 1531.54 642.509 1533.51 Q645.246 1535.48 646.551 1539.24 Z" fill="#000000" fill-rule="nonzero" fill-opacity="1" /><path clip-path="url(#clip530)" d="M712.787 1548.76 L712.787 1551.62 L685.86 1551.62 Q686.242 1557.67 689.488 1560.85 Q692.766 1564 698.591 1564 Q701.965 1564 705.116 1563.17 Q708.299 1562.35 711.418 1560.69 L711.418 1566.23 Q708.267 1567.57 704.957 1568.27 Q701.647 1568.97 698.241 1568.97 Q689.711 1568.97 684.714 1564 Q679.749 1559.04 679.749 1550.57 Q679.749 1541.82 684.459 1536.69 Q689.202 1531.54 697.222 1531.54 Q704.416 1531.54 708.585 1536.18 Q712.787 1540.8 712.787 1548.76 M706.93 1547.04 Q706.867 1542.23 704.225 1539.37 Q701.615 1536.5 697.286 1536.5 Q692.385 1536.5 689.424 1539.27 Q686.496 1542.04 686.051 1547.07 L706.93 1547.04 Z" fill="#000000" fill-rule="nonzero" fill-opacity="1" /><path clip-path="url(#clip530)" d="M757.187 1518.58 Q752.922 1525.9 750.854 1533.06 Q748.785 1540.23 748.785 1547.58 Q748.785 1554.93 750.854 1562.16 Q752.954 1569.35 757.187 1576.64 L752.095 1576.64 Q747.321 1569.16 744.933 1561.93 Q742.578 1554.71 742.578 1547.58 Q742.578 1540.48 744.933 1533.29 Q747.289 1526.09 752.095 1518.58 L757.187 1518.58 Z" fill="#000000" fill-rule="nonzero" fill-opacity="1" /><path clip-path="url(#clip530)" d="M791.276 1533.45 L791.276 1538.98 Q788.793 1537.71 786.12 1537.07 Q783.446 1536.44 780.581 1536.44 Q776.221 1536.44 774.025 1537.77 Q771.86 1539.11 771.86 1541.79 Q771.86 1543.82 773.42 1545 Q774.98 1546.15 779.69 1547.2 L781.695 1547.64 Q787.934 1548.98 790.544 1551.43 Q793.186 1553.85 793.186 1558.21 Q793.186 1563.17 789.239 1566.07 Q785.324 1568.97 778.449 1568.97 Q775.584 1568.97 772.465 1568.39 Q769.378 1567.85 765.94 1566.74 L765.94 1560.69 Q769.187 1562.38 772.338 1563.24 Q775.489 1564.07 778.576 1564.07 Q782.714 1564.07 784.942 1562.66 Q787.17 1561.23 787.17 1558.65 Q787.17 1556.27 785.547 1554.99 Q783.955 1553.72 778.513 1552.54 L776.476 1552.07 Q771.033 1550.92 768.614 1548.56 Q766.195 1546.18 766.195 1542.04 Q766.195 1537.01 769.76 1534.27 Q773.325 1531.54 779.881 1531.54 Q783.128 1531.54 785.992 1532.01 Q788.857 1532.49 791.276 1533.45 Z" fill="#000000" fill-rule="nonzero" fill-opacity="1" /><path clip-path="url(#clip530)" d="M801.588 1518.58 L806.681 1518.58 Q811.455 1526.09 813.81 1533.29 Q816.198 1540.48 816.198 1547.58 Q816.198 1554.71 813.81 1561.93 Q811.455 1569.16 806.681 1576.64 L801.588 1576.64 Q805.821 1569.35 807.89 1562.16 Q809.991 1554.93 809.991 1547.58 Q809.991 1540.23 807.89 1533.06 Q805.821 1525.9 801.588 1518.58 Z" fill="#000000" fill-rule="nonzero" fill-opacity="1" /><polyline clip-path="url(#clip532)" style="stroke:#000000; stroke-linecap:round; stroke-linejoin:round; stroke-width:2; stroke-opacity:0.1; fill:none" points="232.389,1384.24 1140.35,1384.24 "/>
<polyline clip-path="url(#clip532)" style="stroke:#000000; stroke-linecap:round; stroke-linejoin:round; stroke-width:2; stroke-opacity:0.1; fill:none" points="232.389,1023.67 1140.35,1023.67 "/>
<polyline clip-path="url(#clip532)" style="stroke:#000000; stroke-linecap:round; stroke-linejoin:round; stroke-width:2; stroke-opacity:0.1; fill:none" points="232.389,663.098 1140.35,663.098 "/>
<polyline clip-path="url(#clip532)" style="stroke:#000000; stroke-linecap:round; stroke-linejoin:round; stroke-width:2; stroke-opacity:0.1; fill:none" points="232.389,302.528 1140.35,302.528 "/>
<polyline clip-path="url(#clip530)" style="stroke:#000000; stroke-linecap:round; stroke-linejoin:round; stroke-width:4; stroke-opacity:1; fill:none" points="232.389,1423.18 232.389,47.2441 "/>
<polyline clip-path="url(#clip530)" style="stroke:#000000; stroke-linecap:round; stroke-linejoin:round; stroke-width:4; stroke-opacity:1; fill:none" points="232.389,1384.24 251.287,1384.24 "/>
<polyline clip-path="url(#clip530)" style="stroke:#000000; stroke-linecap:round; stroke-linejoin:round; stroke-width:4; stroke-opacity:1; fill:none" points="232.389,1023.67 251.287,1023.67 "/>
<polyline clip-path="url(#clip530)" style="stroke:#000000; stroke-linecap:round; stroke-linejoin:round; stroke-width:4; stroke-opacity:1; fill:none" points="232.389,663.098 251.287,663.098 "/>
<polyline clip-path="url(#clip530)" style="stroke:#000000; stroke-linecap:round; stroke-linejoin:round; stroke-width:4; stroke-opacity:1; fill:none" points="232.389,302.528 251.287,302.528 "/>
<path clip-path="url(#clip530)" d="M184.445 1370.04 Q180.834 1370.04 179.005 1373.6 Q177.2 1377.14 177.2 1384.27 Q177.2 1391.38 179.005 1394.94 Q180.834 1398.49 184.445 1398.49 Q188.079 1398.49 189.885 1394.94 Q191.713 1391.38 191.713 1384.27 Q191.713 1377.14 189.885 1373.6 Q188.079 1370.04 184.445 1370.04 M184.445 1366.33 Q190.255 1366.33 193.311 1370.94 Q196.389 1375.52 196.389 1384.27 Q196.389 1393 193.311 1397.61 Q190.255 1402.19 184.445 1402.19 Q178.635 1402.19 175.556 1397.61 Q172.501 1393 172.501 1384.27 Q172.501 1375.52 175.556 1370.94 Q178.635 1366.33 184.445 1366.33 Z" fill="#000000" fill-rule="nonzero" fill-opacity="1" /><path clip-path="url(#clip530)" d="M144.329 1006.39 L162.686 1006.39 L162.686 1010.32 L148.612 1010.32 L148.612 1018.8 Q149.63 1018.45 150.649 1018.29 Q151.667 1018.1 152.686 1018.1 Q158.473 1018.1 161.852 1021.27 Q165.232 1024.44 165.232 1029.86 Q165.232 1035.44 161.76 1038.54 Q158.288 1041.62 151.968 1041.62 Q149.792 1041.62 147.524 1041.25 Q145.279 1040.88 142.871 1040.14 L142.871 1035.44 Q144.954 1036.57 147.177 1037.13 Q149.399 1037.68 151.876 1037.68 Q155.88 1037.68 158.218 1035.58 Q160.556 1033.47 160.556 1029.86 Q160.556 1026.25 158.218 1024.14 Q155.88 1022.04 151.876 1022.04 Q150.001 1022.04 148.126 1022.45 Q146.274 1022.87 144.329 1023.75 L144.329 1006.39 Z" fill="#000000" fill-rule="nonzero" fill-opacity="1" /><path clip-path="url(#clip530)" d="M184.445 1009.47 Q180.834 1009.47 179.005 1013.03 Q177.2 1016.57 177.2 1023.7 Q177.2 1030.81 179.005 1034.37 Q180.834 1037.92 184.445 1037.92 Q188.079 1037.92 189.885 1034.37 Q191.713 1030.81 191.713 1023.7 Q191.713 1016.57 189.885 1013.03 Q188.079 1009.47 184.445 1009.47 M184.445 1005.76 Q190.255 1005.76 193.311 1010.37 Q196.389 1014.95 196.389 1023.7 Q196.389 1032.43 193.311 1037.04 Q190.255 1041.62 184.445 1041.62 Q178.635 1041.62 175.556 1037.04 Q172.501 1032.43 172.501 1023.7 Q172.501 1014.95 175.556 1010.37 Q178.635 1005.76 184.445 1005.76 Z" fill="#000000" fill-rule="nonzero" fill-opacity="1" /><path clip-path="url(#clip530)" d="M114.931 676.443 L122.57 676.443 L122.57 650.077 L114.26 651.744 L114.26 647.485 L122.524 645.818 L127.2 645.818 L127.2 676.443 L134.839 676.443 L134.839 680.378 L114.931 680.378 L114.931 676.443 Z" fill="#000000" fill-rule="nonzero" fill-opacity="1" /><path clip-path="url(#clip530)" d="M154.283 648.897 Q150.672 648.897 148.843 652.461 Q147.038 656.003 147.038 663.133 Q147.038 670.239 148.843 673.804 Q150.672 677.346 154.283 677.346 Q157.917 677.346 159.723 673.804 Q161.552 670.239 161.552 663.133 Q161.552 656.003 159.723 652.461 Q157.917 648.897 154.283 648.897 M154.283 645.193 Q160.093 645.193 163.149 649.799 Q166.227 654.383 166.227 663.133 Q166.227 671.859 163.149 676.466 Q160.093 681.049 154.283 681.049 Q148.473 681.049 145.394 676.466 Q142.339 671.859 142.339 663.133 Q142.339 654.383 145.394 649.799 Q148.473 645.193 154.283 645.193 Z" fill="#000000" fill-rule="nonzero" fill-opacity="1" /><path clip-path="url(#clip530)" d="M184.445 648.897 Q180.834 648.897 179.005 652.461 Q177.2 656.003 177.2 663.133 Q177.2 670.239 179.005 673.804 Q180.834 677.346 184.445 677.346 Q188.079 677.346 189.885 673.804 Q191.713 670.239 191.713 663.133 Q191.713 656.003 189.885 652.461 Q188.079 648.897 184.445 648.897 M184.445 645.193 Q190.255 645.193 193.311 649.799 Q196.389 654.383 196.389 663.133 Q196.389 671.859 193.311 676.466 Q190.255 681.049 184.445 681.049 Q178.635 681.049 175.556 676.466 Q172.501 671.859 172.501 663.133 Q172.501 654.383 175.556 649.799 Q178.635 645.193 184.445 645.193 Z" fill="#000000" fill-rule="nonzero" fill-opacity="1" /><path clip-path="url(#clip530)" d="M114.931 315.873 L122.57 315.873 L122.57 289.507 L114.26 291.174 L114.26 286.914 L122.524 285.248 L127.2 285.248 L127.2 315.873 L134.839 315.873 L134.839 319.808 L114.931 319.808 L114.931 315.873 Z" fill="#000000" fill-rule="nonzero" fill-opacity="1" /><path clip-path="url(#clip530)" d="M144.329 285.248 L162.686 285.248 L162.686 289.183 L148.612 289.183 L148.612 297.655 Q149.63 297.308 150.649 297.146 Q151.667 296.961 152.686 296.961 Q158.473 296.961 161.852 300.132 Q165.232 303.303 165.232 308.72 Q165.232 314.299 161.76 317.4 Q158.288 320.479 151.968 320.479 Q149.792 320.479 147.524 320.109 Q145.279 319.738 142.871 318.998 L142.871 314.299 Q144.954 315.433 147.177 315.988 Q149.399 316.544 151.876 316.544 Q155.88 316.544 158.218 314.437 Q160.556 312.331 160.556 308.72 Q160.556 305.109 158.218 303.002 Q155.88 300.896 151.876 300.896 Q150.001 300.896 148.126 301.312 Q146.274 301.729 144.329 302.609 L144.329 285.248 Z" fill="#000000" fill-rule="nonzero" fill-opacity="1" /><path clip-path="url(#clip530)" d="M184.445 288.326 Q180.834 288.326 179.005 291.891 Q177.2 295.433 177.2 302.562 Q177.2 309.669 179.005 313.234 Q180.834 316.775 184.445 316.775 Q188.079 316.775 189.885 313.234 Q191.713 309.669 191.713 302.562 Q191.713 295.433 189.885 291.891 Q188.079 288.326 184.445 288.326 M184.445 284.623 Q190.255 284.623 193.311 289.229 Q196.389 293.813 196.389 302.562 Q196.389 311.289 193.311 315.896 Q190.255 320.479 184.445 320.479 Q178.635 320.479 175.556 315.896 Q172.501 311.289 172.501 302.562 Q172.501 293.813 175.556 289.229 Q178.635 284.623 184.445 284.623 Z" fill="#000000" fill-rule="nonzero" fill-opacity="1" /><path clip-path="url(#clip530)" d="M39.4334 772.564 Q44.844 772.564 50.9309 774.303 Q56.9856 776.01 61.8809 778.715 Q66.744 781.42 69.9646 784.963 Q73.153 788.505 73.153 791.887 Q73.153 794.045 71.9613 795.655 Q70.7375 797.233 68.7085 798.103 Q66.6474 798.972 64.393 799.391 Q62.1063 799.81 59.6265 799.81 Q55.9228 799.81 51.8971 799.005 Q47.8391 798.199 44.1677 796.847 Q40.464 795.494 37.1146 793.594 Q33.733 791.694 31.2853 789.6 Q28.8055 787.475 27.3562 785.092 Q25.907 782.708 25.907 780.486 Q25.907 778.876 26.6155 777.588 Q27.2918 776.267 28.4834 775.43 Q29.6428 774.593 31.0277 774.013 Q32.4125 773.401 34.0228 773.111 Q35.6009 772.821 36.9214 772.692 Q38.2096 772.564 39.4334 772.564 M35.3433 776.911 Q33.7008 776.911 32.477 777.04 Q31.2209 777.169 29.9649 777.523 Q28.7089 777.878 28.0325 778.65 Q27.3562 779.391 27.3562 780.551 Q27.3562 783.932 34.2805 787.733 Q36.4383 788.956 39.369 790.051 Q42.2997 791.146 43.6846 791.533 Q45.0694 791.919 48.4833 792.821 L48.4833 779.037 Q39.6911 776.911 35.3433 776.911 M50.5766 779.617 L50.5766 793.336 Q58.6281 795.462 63.6522 795.462 Q68.0322 795.462 69.868 794.56 Q71.6715 793.626 71.6715 791.887 Q71.6715 789.89 69.6747 788.022 Q67.6458 786.154 63.9743 784.254 Q59.2078 781.742 50.5766 779.617 Z" fill="#000000" fill-rule="nonzero" fill-opacity="1" /><path clip-path="url(#clip530)" d="M22.9507 728.256 Q30.2712 732.521 37.4327 734.59 Q44.5941 736.658 51.9465 736.658 Q59.2989 736.658 66.5239 734.59 Q73.7172 732.489 81.0059 728.256 L81.0059 733.348 Q73.5262 738.123 66.3011 740.51 Q59.0761 742.865 51.9465 742.865 Q44.8487 742.865 37.6555 740.51 Q30.4622 738.154 22.9507 733.348 L22.9507 728.256 Z" fill="#000000" fill-rule="nonzero" fill-opacity="1" /><path clip-path="url(#clip530)" d="M28.1387 706.74 Q28.1387 709.286 29.9211 711.036 Q31.6717 712.787 34.218 712.787 Q36.7324 712.787 38.483 711.036 Q40.2017 709.286 40.2017 706.74 Q40.2017 704.193 38.483 702.443 Q36.7324 700.692 34.218 700.692 Q31.7035 700.692 29.9211 702.475 Q28.1387 704.225 28.1387 706.74 M24.0328 706.74 Q24.0328 704.703 24.8286 702.825 Q25.5924 700.947 27.0566 699.578 Q28.4888 698.114 30.3031 697.382 Q32.1173 696.65 34.218 696.65 Q38.4193 696.65 41.3476 699.61 Q44.244 702.538 44.244 706.803 Q44.244 711.1 41.3794 713.965 Q38.5148 716.829 34.218 716.829 Q29.953 716.829 26.9929 713.901 Q24.0328 710.973 24.0328 706.74 Z" fill="#000000" fill-rule="nonzero" fill-opacity="1" /><path clip-path="url(#clip530)" d="M22.9507 685.224 L22.9507 680.131 Q30.4622 675.357 37.6555 673.001 Q44.8487 670.614 51.9465 670.614 Q59.0761 670.614 66.3011 673.001 Q73.5262 675.357 81.0059 680.131 L81.0059 685.224 Q73.7172 680.99 66.5239 678.921 Q59.2989 676.821 51.9465 676.821 Q44.5941 676.821 37.4327 678.921 Q30.2712 680.99 22.9507 685.224 Z" fill="#000000" fill-rule="nonzero" fill-opacity="1" /><polyline clip-path="url(#clip532)" style="stroke:#009af9; stroke-linecap:round; stroke-linejoin:round; stroke-width:4; stroke-opacity:1; fill:none" points="258.086,1384.24 283.279,1330.41 308.473,1208.21 333.666,1158.98 358.859,1217.52 384.052,1251.07 409.245,1203.77 434.438,1108.26 459.631,1044.55 484.824,1046.67 510.017,1053.67 535.21,1023.35 560.403,964.855 585.597,895.646 610.79,841.516 635.983,809.137 661.176,776.21 686.369,733.89 711.562,686.197 736.755,634.616 761.948,578.808 787.141,528.415 812.334,488.896 837.528,452.305 862.721,413.412 887.914,373.206 913.107,334.14 938.3,297.474 963.493,263.474 988.686,232.229 1013.88,203.939 1039.07,178.824 1064.27,157.01 1089.46,138.502 1114.65,123.192 "/>
<polyline clip-path="url(#clip532)" style="stroke:#3da44d; stroke-linecap:round; stroke-linejoin:round; stroke-width:3; stroke-opacity:1; fill:none" stroke-dasharray="12, 8" points="258.086,86.1857 283.279,86.1857 308.473,86.1857 333.666,86.1857 358.859,86.1857 384.052,86.1857 409.245,86.1857 434.438,86.1857 459.631,86.1857 484.824,86.1857 510.017,86.1857 535.21,86.1857 560.403,86.1857 585.597,86.1857 610.79,86.1857 635.983,86.1857 661.176,86.1857 686.369,86.1857 711.562,86.1857 736.755,86.1857 761.948,86.1857 787.141,86.1857 812.334,86.1857 837.528,86.1857 862.721,86.1857 887.914,86.1857 913.107,86.1857 938.3,86.1857 963.493,86.1857 988.686,86.1857 1013.88,86.1857 1039.07,86.1857 1064.27,86.1857 1089.46,86.1857 1114.65,86.1857 "/>
<path clip-path="url(#clip530)" d="M971.279 1377.32 L1110.08 1377.32 L1110.08 1221.8 L971.279 1221.8  Z" fill="#ffffff" fill-rule="evenodd" fill-opacity="1"/>
<polyline clip-path="url(#clip530)" style="stroke:#000000; stroke-linecap:round; stroke-linejoin:round; stroke-width:4; stroke-opacity:1; fill:none" points="971.279,1377.32 1110.08,1377.32 1110.08,1221.8 971.279,1221.8 971.279,1377.32 "/>
<polyline clip-path="url(#clip530)" style="stroke:#009af9; stroke-linecap:round; stroke-linejoin:round; stroke-width:4; stroke-opacity:1; fill:none" points="981.367,1273.64 1041.9,1273.64 "/>
<path clip-path="url(#clip530)" d="M1078.76 1260.37 Q1077.28 1260.37 1076.53 1260.51 Q1075.78 1260.63 1075.6 1260.8 Q1075.41 1260.96 1075.2 1261.38 L1064.89 1283.3 Q1063.79 1285.65 1061.73 1287.33 Q1059.69 1289.02 1057.12 1289.02 Q1054.96 1289.02 1053.46 1287.71 Q1051.99 1286.42 1051.99 1284.59 Q1051.99 1283.28 1052.81 1282.53 Q1053.63 1281.81 1054.73 1281.81 Q1055.94 1281.81 1056.72 1282.58 Q1057.51 1283.35 1057.51 1284.55 Q1057.51 1285.32 1057.19 1285.9 Q1056.86 1286.51 1056.55 1286.72 Q1056.27 1286.96 1055.97 1287.1 Q1056.46 1287.29 1057.12 1287.29 Q1058.1 1287.29 1058.94 1286.89 Q1059.81 1286.51 1060.37 1286 Q1060.96 1285.51 1061.54 1284.62 Q1062.13 1283.75 1062.41 1283.19 Q1062.69 1282.65 1063.11 1281.71 L1064.21 1279.42 L1055.24 1260.37 L1052.17 1260.37 L1052.17 1258.13 L1057.65 1258.27 L1063.6 1258.13 L1063.6 1260.37 L1061 1260.37 L1067.09 1273.33 L1072.62 1261.52 L1072.86 1260.96 Q1072.86 1260.7 1072.29 1260.56 Q1071.73 1260.4 1071.17 1260.4 L1070.61 1260.37 L1070.61 1258.13 L1074.96 1258.27 Q1077.02 1258.27 1078.76 1258.13 L1078.76 1260.37 Z" fill="#000000" fill-rule="nonzero" fill-opacity="1" /><polyline clip-path="url(#clip530)" style="stroke:#3da44d; stroke-linecap:round; stroke-linejoin:round; stroke-width:3; stroke-opacity:1; fill:none" stroke-dasharray="12, 8" points="981.367,1325.48 1041.9,1325.48 "/>
<path clip-path="url(#clip530)" d="M1071.4 1310.75 Q1071.4 1312.11 1070.51 1312.91 Q1069.62 1313.68 1068.48 1313.68 Q1067.33 1313.68 1066.44 1312.91 Q1065.55 1312.14 1065.55 1310.75 Q1065.55 1310.14 1065.76 1309.61 Q1065.99 1309.04 1066.23 1308.79 L1066.46 1308.55 Q1065.08 1308.55 1064 1309.21 Q1062.92 1309.84 1062.27 1310.82 Q1061.61 1311.81 1061.19 1313.1 Q1060.77 1314.36 1060.61 1315.51 Q1060.46 1316.66 1060.46 1317.76 L1060.46 1326.17 L1064.63 1326.17 L1064.63 1328.41 Q1062.9 1328.27 1058.03 1328.27 L1051.99 1328.41 L1051.99 1326.17 L1055.29 1326.17 L1055.29 1311.34 Q1055.29 1309.98 1054.8 1309.72 Q1054.3 1309.46 1051.99 1309.46 L1051.99 1307.22 L1059.95 1306.82 L1059.95 1312.25 Q1061.94 1306.82 1066.32 1306.82 Q1068.33 1306.82 1069.86 1307.9 Q1071.4 1308.95 1071.4 1310.75 Z" fill="#000000" fill-rule="nonzero" fill-opacity="1" /><path clip-path="url(#clip530)" d="M1095.07 1323.94 Q1094.03 1323.94 1093.51 1324.04 Q1092.98 1324.12 1092.85 1324.23 Q1092.72 1324.35 1092.57 1324.64 L1085.36 1339.99 Q1084.59 1341.63 1083.15 1342.81 Q1081.72 1343.99 1079.92 1343.99 Q1078.41 1343.99 1077.36 1343.07 Q1076.32 1342.17 1076.32 1340.89 Q1076.32 1339.97 1076.9 1339.45 Q1077.47 1338.94 1078.24 1338.94 Q1079.1 1338.94 1079.64 1339.48 Q1080.19 1340.02 1080.19 1340.86 Q1080.19 1341.4 1079.96 1341.81 Q1079.74 1342.23 1079.52 1342.38 Q1079.33 1342.55 1079.11 1342.64 Q1079.46 1342.78 1079.92 1342.78 Q1080.6 1342.78 1081.19 1342.5 Q1081.8 1342.23 1082.19 1341.87 Q1082.6 1341.53 1083.01 1340.91 Q1083.42 1340.3 1083.62 1339.91 Q1083.82 1339.53 1084.11 1338.87 L1084.88 1337.27 L1078.6 1323.94 L1076.46 1323.94 L1076.46 1322.36 L1080.29 1322.46 L1084.46 1322.36 L1084.46 1323.94 L1082.64 1323.94 L1086.9 1333 L1090.77 1324.74 L1090.93 1324.35 Q1090.93 1324.17 1090.54 1324.07 Q1090.15 1323.95 1089.75 1323.95 L1089.36 1323.94 L1089.36 1322.36 L1092.41 1322.46 Q1093.85 1322.46 1095.07 1322.36 L1095.07 1323.94 Z" fill="#000000" fill-rule="nonzero" fill-opacity="1" /><path clip-path="url(#clip530)" d="M1444.8 1423.18 L2352.76 1423.18 L2352.76 47.2441 L1444.8 47.2441  Z" fill="#ffffff" fill-rule="evenodd" fill-opacity="1"/>
<defs>
  <clipPath id="clip533">
    <rect x="1444" y="47" width="909" height="1377"/>
  </clipPath>
</defs>
<polyline clip-path="url(#clip533)" style="stroke:#000000; stroke-linecap:round; stroke-linejoin:round; stroke-width:2; stroke-opacity:0.1; fill:none" points="1470.49,1423.18 1470.49,47.2441 "/>
<polyline clip-path="url(#clip533)" style="stroke:#000000; stroke-linecap:round; stroke-linejoin:round; stroke-width:2; stroke-opacity:0.1; fill:none" points="1722.42,1423.18 1722.42,47.2441 "/>
<polyline clip-path="url(#clip533)" style="stroke:#000000; stroke-linecap:round; stroke-linejoin:round; stroke-width:2; stroke-opacity:0.1; fill:none" points="1974.36,1423.18 1974.36,47.2441 "/>
<polyline clip-path="url(#clip533)" style="stroke:#000000; stroke-linecap:round; stroke-linejoin:round; stroke-width:2; stroke-opacity:0.1; fill:none" points="2226.29,1423.18 2226.29,47.2441 "/>
<polyline clip-path="url(#clip530)" style="stroke:#000000; stroke-linecap:round; stroke-linejoin:round; stroke-width:4; stroke-opacity:1; fill:none" points="1444.8,1423.18 2352.76,1423.18 "/>
<polyline clip-path="url(#clip530)" style="stroke:#000000; stroke-linecap:round; stroke-linejoin:round; stroke-width:4; stroke-opacity:1; fill:none" points="1470.49,1423.18 1470.49,1404.28 "/>
<polyline clip-path="url(#clip530)" style="stroke:#000000; stroke-linecap:round; stroke-linejoin:round; stroke-width:4; stroke-opacity:1; fill:none" points="1722.42,1423.18 1722.42,1404.28 "/>
<polyline clip-path="url(#clip530)" style="stroke:#000000; stroke-linecap:round; stroke-linejoin:round; stroke-width:4; stroke-opacity:1; fill:none" points="1974.36,1423.18 1974.36,1404.28 "/>
<polyline clip-path="url(#clip530)" style="stroke:#000000; stroke-linecap:round; stroke-linejoin:round; stroke-width:4; stroke-opacity:1; fill:none" points="2226.29,1423.18 2226.29,1404.28 "/>
<path clip-path="url(#clip530)" d="M1470.49 1454.1 Q1466.88 1454.1 1465.05 1457.66 Q1463.25 1461.2 1463.25 1468.33 Q1463.25 1475.44 1465.05 1479.01 Q1466.88 1482.55 1470.49 1482.55 Q1474.13 1482.55 1475.93 1479.01 Q1477.76 1475.44 1477.76 1468.33 Q1477.76 1461.2 1475.93 1457.66 Q1474.13 1454.1 1470.49 1454.1 M1470.49 1450.39 Q1476.3 1450.39 1479.36 1455 Q1482.44 1459.58 1482.44 1468.33 Q1482.44 1477.06 1479.36 1481.67 Q1476.3 1486.25 1470.49 1486.25 Q1464.68 1486.25 1461.6 1481.67 Q1458.55 1477.06 1458.55 1468.33 Q1458.55 1459.58 1461.6 1455 Q1464.68 1450.39 1470.49 1450.39 Z" fill="#000000" fill-rule="nonzero" fill-opacity="1" /><path clip-path="url(#clip530)" d="M1712.81 1481.64 L1720.45 1481.64 L1720.45 1455.28 L1712.14 1456.95 L1712.14 1452.69 L1720.4 1451.02 L1725.08 1451.02 L1725.08 1481.64 L1732.71 1481.64 L1732.71 1485.58 L1712.81 1485.58 L1712.81 1481.64 Z" fill="#000000" fill-rule="nonzero" fill-opacity="1" /><path clip-path="url(#clip530)" d="M1969.01 1481.64 L1985.33 1481.64 L1985.33 1485.58 L1963.38 1485.58 L1963.38 1481.64 Q1966.05 1478.89 1970.63 1474.26 Q1975.24 1469.61 1976.42 1468.27 Q1978.66 1465.74 1979.54 1464.01 Q1980.44 1462.25 1980.44 1460.56 Q1980.44 1457.8 1978.5 1456.07 Q1976.58 1454.33 1973.48 1454.33 Q1971.28 1454.33 1968.82 1455.09 Q1966.39 1455.86 1963.61 1457.41 L1963.61 1452.69 Q1966.44 1451.55 1968.89 1450.97 Q1971.35 1450.39 1973.38 1450.39 Q1978.75 1450.39 1981.95 1453.08 Q1985.14 1455.77 1985.14 1460.26 Q1985.14 1462.39 1984.33 1464.31 Q1983.55 1466.2 1981.44 1468.8 Q1980.86 1469.47 1977.76 1472.69 Q1974.66 1475.88 1969.01 1481.64 Z" fill="#000000" fill-rule="nonzero" fill-opacity="1" /><path clip-path="url(#clip530)" d="M2230.53 1466.95 Q2233.89 1467.66 2235.77 1469.93 Q2237.66 1472.2 2237.66 1475.53 Q2237.66 1480.65 2234.15 1483.45 Q2230.63 1486.25 2224.15 1486.25 Q2221.97 1486.25 2219.65 1485.81 Q2217.36 1485.39 2214.91 1484.54 L2214.91 1480.02 Q2216.85 1481.16 2219.17 1481.74 Q2221.48 1482.32 2224.01 1482.32 Q2228.4 1482.32 2230.7 1480.58 Q2233.01 1478.84 2233.01 1475.53 Q2233.01 1472.48 2230.86 1470.77 Q2228.73 1469.03 2224.91 1469.03 L2220.88 1469.03 L2220.88 1465.19 L2225.09 1465.19 Q2228.54 1465.19 2230.37 1463.82 Q2232.2 1462.43 2232.2 1459.84 Q2232.2 1457.18 2230.3 1455.77 Q2228.43 1454.33 2224.91 1454.33 Q2222.99 1454.33 2220.79 1454.75 Q2218.59 1455.16 2215.95 1456.04 L2215.95 1451.88 Q2218.61 1451.14 2220.93 1450.77 Q2223.27 1450.39 2225.33 1450.39 Q2230.65 1450.39 2233.75 1452.83 Q2236.85 1455.23 2236.85 1459.35 Q2236.85 1462.22 2235.21 1464.21 Q2233.57 1466.18 2230.53 1466.95 Z" fill="#000000" fill-rule="nonzero" fill-opacity="1" /><path clip-path="url(#clip530)" d="M1768.95 1520.52 L1809.15 1520.52 L1809.15 1525.93 L1792.28 1525.93 L1792.28 1568.04 L1785.82 1568.04 L1785.82 1525.93 L1768.95 1525.93 L1768.95 1520.52 Z" fill="#000000" fill-rule="nonzero" fill-opacity="1" /><path clip-path="url(#clip530)" d="M1813.09 1532.4 L1818.95 1532.4 L1818.95 1568.04 L1813.09 1568.04 L1813.09 1532.4 M1813.09 1518.52 L1818.95 1518.52 L1818.95 1525.93 L1813.09 1525.93 L1813.09 1518.52 Z" fill="#000000" fill-rule="nonzero" fill-opacity="1" /><path clip-path="url(#clip530)" d="M1858.96 1539.24 Q1861.15 1535.29 1864.21 1533.41 Q1867.27 1531.54 1871.4 1531.54 Q1876.97 1531.54 1880 1535.45 Q1883.02 1539.33 1883.02 1546.53 L1883.02 1568.04 L1877.13 1568.04 L1877.13 1546.72 Q1877.13 1541.59 1875.32 1539.11 Q1873.5 1536.63 1869.78 1536.63 Q1865.23 1536.63 1862.59 1539.65 Q1859.95 1542.68 1859.95 1547.9 L1859.95 1568.04 L1854.06 1568.04 L1854.06 1546.72 Q1854.06 1541.56 1852.24 1539.11 Q1850.43 1536.63 1846.64 1536.63 Q1842.15 1536.63 1839.51 1539.68 Q1836.87 1542.71 1836.87 1547.9 L1836.87 1568.04 L1830.98 1568.04 L1830.98 1532.4 L1836.87 1532.4 L1836.87 1537.93 Q1838.87 1534.66 1841.68 1533.1 Q1844.48 1531.54 1848.33 1531.54 Q1852.21 1531.54 1854.92 1533.51 Q1857.65 1535.48 1858.96 1539.24 Z" fill="#000000" fill-rule="nonzero" fill-opacity="1" /><path clip-path="url(#clip530)" d="M1925.19 1548.76 L1925.19 1551.62 L1898.27 1551.62 Q1898.65 1557.67 1901.9 1560.85 Q1905.17 1564 1911 1564 Q1914.37 1564 1917.52 1563.17 Q1920.71 1562.35 1923.83 1560.69 L1923.83 1566.23 Q1920.67 1567.57 1917.36 1568.27 Q1914.05 1568.97 1910.65 1568.97 Q1902.12 1568.97 1897.12 1564 Q1892.16 1559.04 1892.16 1550.57 Q1892.16 1541.82 1896.87 1536.69 Q1901.61 1531.54 1909.63 1531.54 Q1916.82 1531.54 1920.99 1536.18 Q1925.19 1540.8 1925.19 1548.76 M1919.34 1547.04 Q1919.27 1542.23 1916.63 1539.37 Q1914.02 1536.5 1909.69 1536.5 Q1904.79 1536.5 1901.83 1539.27 Q1898.9 1542.04 1898.46 1547.07 L1919.34 1547.04 Z" fill="#000000" fill-rule="nonzero" fill-opacity="1" /><path clip-path="url(#clip530)" d="M1969.59 1518.58 Q1965.33 1525.9 1963.26 1533.06 Q1961.19 1540.23 1961.19 1547.58 Q1961.19 1554.93 1963.26 1562.16 Q1965.36 1569.35 1969.59 1576.64 L1964.5 1576.64 Q1959.73 1569.16 1957.34 1561.93 Q1954.99 1554.71 1954.99 1547.58 Q1954.99 1540.48 1957.34 1533.29 Q1959.7 1526.09 1964.5 1518.58 L1969.59 1518.58 Z" fill="#000000" fill-rule="nonzero" fill-opacity="1" /><path clip-path="url(#clip530)" d="M2003.68 1533.45 L2003.68 1538.98 Q2001.2 1537.71 1998.53 1537.07 Q1995.85 1536.44 1992.99 1536.44 Q1988.63 1536.44 1986.43 1537.77 Q1984.27 1539.11 1984.27 1541.79 Q1984.27 1543.82 1985.83 1545 Q1987.39 1546.15 1992.1 1547.2 L1994.1 1547.64 Q2000.34 1548.98 2002.95 1551.43 Q2005.59 1553.85 2005.59 1558.21 Q2005.59 1563.17 2001.65 1566.07 Q1997.73 1568.97 1990.86 1568.97 Q1987.99 1568.97 1984.87 1568.39 Q1981.79 1567.85 1978.35 1566.74 L1978.35 1560.69 Q1981.59 1562.38 1984.75 1563.24 Q1987.9 1564.07 1990.98 1564.07 Q1995.12 1564.07 1997.35 1562.66 Q1999.58 1561.23 1999.58 1558.65 Q1999.58 1556.27 1997.95 1554.99 Q1996.36 1553.72 1990.92 1552.54 L1988.88 1552.07 Q1983.44 1550.92 1981.02 1548.56 Q1978.6 1546.18 1978.6 1542.04 Q1978.6 1537.01 1982.17 1534.27 Q1985.73 1531.54 1992.29 1531.54 Q1995.54 1531.54 1998.4 1532.01 Q2001.26 1532.49 2003.68 1533.45 Z" fill="#000000" fill-rule="nonzero" fill-opacity="1" /><path clip-path="url(#clip530)" d="M2014 1518.58 L2019.09 1518.58 Q2023.86 1526.09 2026.22 1533.29 Q2028.6 1540.48 2028.6 1547.58 Q2028.6 1554.71 2026.22 1561.93 Q2023.86 1569.16 2019.09 1576.64 L2014 1576.64 Q2018.23 1569.35 2020.3 1562.16 Q2022.4 1554.93 2022.4 1547.58 Q2022.4 1540.23 2020.3 1533.06 Q2018.23 1525.9 2014 1518.58 Z" fill="#000000" fill-rule="nonzero" fill-opacity="1" /><polyline clip-path="url(#clip533)" style="stroke:#000000; stroke-linecap:round; stroke-linejoin:round; stroke-width:2; stroke-opacity:0.1; fill:none" points="1444.8,1384.24 2352.76,1384.24 "/>
<polyline clip-path="url(#clip533)" style="stroke:#000000; stroke-linecap:round; stroke-linejoin:round; stroke-width:2; stroke-opacity:0.1; fill:none" points="1444.8,1167.9 2352.76,1167.9 "/>
<polyline clip-path="url(#clip533)" style="stroke:#000000; stroke-linecap:round; stroke-linejoin:round; stroke-width:2; stroke-opacity:0.1; fill:none" points="1444.8,951.554 2352.76,951.554 "/>
<polyline clip-path="url(#clip533)" style="stroke:#000000; stroke-linecap:round; stroke-linejoin:round; stroke-width:2; stroke-opacity:0.1; fill:none" points="1444.8,735.212 2352.76,735.212 "/>
<polyline clip-path="url(#clip533)" style="stroke:#000000; stroke-linecap:round; stroke-linejoin:round; stroke-width:2; stroke-opacity:0.1; fill:none" points="1444.8,518.87 2352.76,518.87 "/>
<polyline clip-path="url(#clip533)" style="stroke:#000000; stroke-linecap:round; stroke-linejoin:round; stroke-width:2; stroke-opacity:0.1; fill:none" points="1444.8,302.528 2352.76,302.528 "/>
<polyline clip-path="url(#clip533)" style="stroke:#000000; stroke-linecap:round; stroke-linejoin:round; stroke-width:2; stroke-opacity:0.1; fill:none" points="1444.8,86.1857 2352.76,86.1857 "/>
<polyline clip-path="url(#clip530)" style="stroke:#000000; stroke-linecap:round; stroke-linejoin:round; stroke-width:4; stroke-opacity:1; fill:none" points="1444.8,1423.18 1444.8,47.2441 "/>
<polyline clip-path="url(#clip530)" style="stroke:#000000; stroke-linecap:round; stroke-linejoin:round; stroke-width:4; stroke-opacity:1; fill:none" points="1444.8,1384.24 1463.69,1384.24 "/>
<polyline clip-path="url(#clip530)" style="stroke:#000000; stroke-linecap:round; stroke-linejoin:round; stroke-width:4; stroke-opacity:1; fill:none" points="1444.8,1167.9 1463.69,1167.9 "/>
<polyline clip-path="url(#clip530)" style="stroke:#000000; stroke-linecap:round; stroke-linejoin:round; stroke-width:4; stroke-opacity:1; fill:none" points="1444.8,951.554 1463.69,951.554 "/>
<polyline clip-path="url(#clip530)" style="stroke:#000000; stroke-linecap:round; stroke-linejoin:round; stroke-width:4; stroke-opacity:1; fill:none" points="1444.8,735.212 1463.69,735.212 "/>
<polyline clip-path="url(#clip530)" style="stroke:#000000; stroke-linecap:round; stroke-linejoin:round; stroke-width:4; stroke-opacity:1; fill:none" points="1444.8,518.87 1463.69,518.87 "/>
<polyline clip-path="url(#clip530)" style="stroke:#000000; stroke-linecap:round; stroke-linejoin:round; stroke-width:4; stroke-opacity:1; fill:none" points="1444.8,302.528 1463.69,302.528 "/>
<polyline clip-path="url(#clip530)" style="stroke:#000000; stroke-linecap:round; stroke-linejoin:round; stroke-width:4; stroke-opacity:1; fill:none" points="1444.8,86.1857 1463.69,86.1857 "/>
<path clip-path="url(#clip530)" d="M1302.85 1384.69 L1332.52 1384.69 L1332.52 1388.62 L1302.85 1388.62 L1302.85 1384.69 Z" fill="#000000" fill-rule="nonzero" fill-opacity="1" /><path clip-path="url(#clip530)" d="M1343.43 1397.58 L1351.07 1397.58 L1351.07 1371.22 L1342.76 1372.88 L1342.76 1368.62 L1351.02 1366.96 L1355.7 1366.96 L1355.7 1397.58 L1363.33 1397.58 L1363.33 1401.52 L1343.43 1401.52 L1343.43 1397.58 Z" fill="#000000" fill-rule="nonzero" fill-opacity="1" /><path clip-path="url(#clip530)" d="M1372.78 1395.64 L1377.66 1395.64 L1377.66 1401.52 L1372.78 1401.52 L1372.78 1395.64 Z" fill="#000000" fill-rule="nonzero" fill-opacity="1" /><path clip-path="url(#clip530)" d="M1387.89 1366.96 L1406.25 1366.96 L1406.25 1370.89 L1392.18 1370.89 L1392.18 1379.37 Q1393.19 1379.02 1394.21 1378.86 Q1395.23 1378.67 1396.25 1378.67 Q1402.04 1378.67 1405.42 1381.84 Q1408.8 1385.01 1408.8 1390.43 Q1408.8 1396.01 1405.32 1399.11 Q1401.85 1402.19 1395.53 1402.19 Q1393.36 1402.19 1391.09 1401.82 Q1388.84 1401.45 1386.44 1400.71 L1386.44 1396.01 Q1388.52 1397.14 1390.74 1397.7 Q1392.96 1398.25 1395.44 1398.25 Q1399.44 1398.25 1401.78 1396.15 Q1404.12 1394.04 1404.12 1390.43 Q1404.12 1386.82 1401.78 1384.71 Q1399.44 1382.61 1395.44 1382.61 Q1393.57 1382.61 1391.69 1383.02 Q1389.84 1383.44 1387.89 1384.32 L1387.89 1366.96 Z" fill="#000000" fill-rule="nonzero" fill-opacity="1" /><path clip-path="url(#clip530)" d="M1301.85 1168.35 L1331.53 1168.35 L1331.53 1172.28 L1301.85 1172.28 L1301.85 1168.35 Z" fill="#000000" fill-rule="nonzero" fill-opacity="1" /><path clip-path="url(#clip530)" d="M1342.43 1181.24 L1350.07 1181.24 L1350.07 1154.88 L1341.76 1156.54 L1341.76 1152.28 L1350.02 1150.62 L1354.7 1150.62 L1354.7 1181.24 L1362.34 1181.24 L1362.34 1185.18 L1342.43 1185.18 L1342.43 1181.24 Z" fill="#000000" fill-rule="nonzero" fill-opacity="1" /><path clip-path="url(#clip530)" d="M1371.78 1179.3 L1376.67 1179.3 L1376.67 1185.18 L1371.78 1185.18 L1371.78 1179.3 Z" fill="#000000" fill-rule="nonzero" fill-opacity="1" /><path clip-path="url(#clip530)" d="M1396.85 1153.69 Q1393.24 1153.69 1391.41 1157.26 Q1389.61 1160.8 1389.61 1167.93 Q1389.61 1175.04 1391.41 1178.6 Q1393.24 1182.14 1396.85 1182.14 Q1400.49 1182.14 1402.29 1178.6 Q1404.12 1175.04 1404.12 1167.93 Q1404.12 1160.8 1402.29 1157.26 Q1400.49 1153.69 1396.85 1153.69 M1396.85 1149.99 Q1402.66 1149.99 1405.72 1154.6 Q1408.8 1159.18 1408.8 1167.93 Q1408.8 1176.66 1405.72 1181.26 Q1402.66 1185.85 1396.85 1185.85 Q1391.04 1185.85 1387.96 1181.26 Q1384.91 1176.66 1384.91 1167.93 Q1384.91 1159.18 1387.96 1154.6 Q1391.04 1149.99 1396.85 1149.99 Z" fill="#000000" fill-rule="nonzero" fill-opacity="1" /><path clip-path="url(#clip530)" d="M1302.85 952.005 L1332.52 952.005 L1332.52 955.941 L1302.85 955.941 L1302.85 952.005 Z" fill="#000000" fill-rule="nonzero" fill-opacity="1" /><path clip-path="url(#clip530)" d="M1352.62 937.353 Q1349.01 937.353 1347.18 940.918 Q1345.37 944.459 1345.37 951.589 Q1345.37 958.695 1347.18 962.26 Q1349.01 965.802 1352.62 965.802 Q1356.25 965.802 1358.06 962.26 Q1359.88 958.695 1359.88 951.589 Q1359.88 944.459 1358.06 940.918 Q1356.25 937.353 1352.62 937.353 M1352.62 933.649 Q1358.43 933.649 1361.48 938.256 Q1364.56 942.839 1364.56 951.589 Q1364.56 960.316 1361.48 964.922 Q1358.43 969.505 1352.62 969.505 Q1346.81 969.505 1343.73 964.922 Q1340.67 960.316 1340.67 951.589 Q1340.67 942.839 1343.73 938.256 Q1346.81 933.649 1352.62 933.649 Z" fill="#000000" fill-rule="nonzero" fill-opacity="1" /><path clip-path="url(#clip530)" d="M1372.78 962.954 L1377.66 962.954 L1377.66 968.834 L1372.78 968.834 L1372.78 962.954 Z" fill="#000000" fill-rule="nonzero" fill-opacity="1" /><path clip-path="url(#clip530)" d="M1387.89 934.274 L1406.25 934.274 L1406.25 938.209 L1392.18 938.209 L1392.18 946.681 Q1393.19 946.334 1394.21 946.172 Q1395.23 945.987 1396.25 945.987 Q1402.04 945.987 1405.42 949.158 Q1408.8 952.33 1408.8 957.746 Q1408.8 963.325 1405.32 966.427 Q1401.85 969.505 1395.53 969.505 Q1393.36 969.505 1391.09 969.135 Q1388.84 968.765 1386.44 968.024 L1386.44 963.325 Q1388.52 964.459 1390.74 965.015 Q1392.96 965.57 1395.44 965.57 Q1399.44 965.57 1401.78 963.464 Q1404.12 961.357 1404.12 957.746 Q1404.12 954.135 1401.78 952.029 Q1399.44 949.922 1395.44 949.922 Q1393.57 949.922 1391.69 950.339 Q1389.84 950.755 1387.89 951.635 L1387.89 934.274 Z" fill="#000000" fill-rule="nonzero" fill-opacity="1" /><path clip-path="url(#clip530)" d="M1351.62 721.011 Q1348.01 721.011 1346.18 724.575 Q1344.38 728.117 1344.38 735.247 Q1344.38 742.353 1346.18 745.918 Q1348.01 749.46 1351.62 749.46 Q1355.26 749.46 1357.06 745.918 Q1358.89 742.353 1358.89 735.247 Q1358.89 728.117 1357.06 724.575 Q1355.26 721.011 1351.62 721.011 M1351.62 717.307 Q1357.43 717.307 1360.49 721.913 Q1363.57 726.497 1363.57 735.247 Q1363.57 743.973 1360.49 748.58 Q1357.43 753.163 1351.62 753.163 Q1345.81 753.163 1342.73 748.58 Q1339.68 743.973 1339.68 735.247 Q1339.68 726.497 1342.73 721.913 Q1345.81 717.307 1351.62 717.307 Z" fill="#000000" fill-rule="nonzero" fill-opacity="1" /><path clip-path="url(#clip530)" d="M1371.78 746.612 L1376.67 746.612 L1376.67 752.492 L1371.78 752.492 L1371.78 746.612 Z" fill="#000000" fill-rule="nonzero" fill-opacity="1" /><path clip-path="url(#clip530)" d="M1396.85 721.011 Q1393.24 721.011 1391.41 724.575 Q1389.61 728.117 1389.61 735.247 Q1389.61 742.353 1391.41 745.918 Q1393.24 749.46 1396.85 749.46 Q1400.49 749.46 1402.29 745.918 Q1404.12 742.353 1404.12 735.247 Q1404.12 728.117 1402.29 724.575 Q1400.49 721.011 1396.85 721.011 M1396.85 717.307 Q1402.66 717.307 1405.72 721.913 Q1408.8 726.497 1408.8 735.247 Q1408.8 743.973 1405.72 748.58 Q1402.66 753.163 1396.85 753.163 Q1391.04 753.163 1387.96 748.58 Q1384.91 743.973 1384.91 735.247 Q1384.91 726.497 1387.96 721.913 Q1391.04 717.307 1396.85 717.307 Z" fill="#000000" fill-rule="nonzero" fill-opacity="1" /><path clip-path="url(#clip530)" d="M1352.62 504.669 Q1349.01 504.669 1347.18 508.233 Q1345.37 511.775 1345.37 518.905 Q1345.37 526.011 1347.18 529.576 Q1349.01 533.117 1352.62 533.117 Q1356.25 533.117 1358.06 529.576 Q1359.88 526.011 1359.88 518.905 Q1359.88 511.775 1358.06 508.233 Q1356.25 504.669 1352.62 504.669 M1352.62 500.965 Q1358.43 500.965 1361.48 505.571 Q1364.56 510.155 1364.56 518.905 Q1364.56 527.631 1361.48 532.238 Q1358.43 536.821 1352.62 536.821 Q1346.81 536.821 1343.73 532.238 Q1340.67 527.631 1340.67 518.905 Q1340.67 510.155 1343.73 505.571 Q1346.81 500.965 1352.62 500.965 Z" fill="#000000" fill-rule="nonzero" fill-opacity="1" /><path clip-path="url(#clip530)" d="M1372.78 530.27 L1377.66 530.27 L1377.66 536.15 L1372.78 536.15 L1372.78 530.27 Z" fill="#000000" fill-rule="nonzero" fill-opacity="1" /><path clip-path="url(#clip530)" d="M1387.89 501.59 L1406.25 501.59 L1406.25 505.525 L1392.18 505.525 L1392.18 513.997 Q1393.19 513.65 1394.21 513.488 Q1395.23 513.303 1396.25 513.303 Q1402.04 513.303 1405.42 516.474 Q1408.8 519.645 1408.8 525.062 Q1408.8 530.641 1405.32 533.742 Q1401.85 536.821 1395.53 536.821 Q1393.36 536.821 1391.09 536.451 Q1388.84 536.08 1386.44 535.34 L1386.44 530.641 Q1388.52 531.775 1390.74 532.33 Q1392.96 532.886 1395.44 532.886 Q1399.44 532.886 1401.78 530.78 Q1404.12 528.673 1404.12 525.062 Q1404.12 521.451 1401.78 519.344 Q1399.44 517.238 1395.44 517.238 Q1393.57 517.238 1391.69 517.655 Q1389.84 518.071 1387.89 518.951 L1387.89 501.59 Z" fill="#000000" fill-rule="nonzero" fill-opacity="1" /><path clip-path="url(#clip530)" d="M1342.43 315.873 L1350.07 315.873 L1350.07 289.507 L1341.76 291.174 L1341.76 286.914 L1350.02 285.248 L1354.7 285.248 L1354.7 315.873 L1362.34 315.873 L1362.34 319.808 L1342.43 319.808 L1342.43 315.873 Z" fill="#000000" fill-rule="nonzero" fill-opacity="1" /><path clip-path="url(#clip530)" d="M1371.78 313.928 L1376.67 313.928 L1376.67 319.808 L1371.78 319.808 L1371.78 313.928 Z" fill="#000000" fill-rule="nonzero" fill-opacity="1" /><path clip-path="url(#clip530)" d="M1396.85 288.326 Q1393.24 288.326 1391.41 291.891 Q1389.61 295.433 1389.61 302.562 Q1389.61 309.669 1391.41 313.234 Q1393.24 316.775 1396.85 316.775 Q1400.49 316.775 1402.29 313.234 Q1404.12 309.669 1404.12 302.562 Q1404.12 295.433 1402.29 291.891 Q1400.49 288.326 1396.85 288.326 M1396.85 284.623 Q1402.66 284.623 1405.72 289.229 Q1408.8 293.813 1408.8 302.562 Q1408.8 311.289 1405.72 315.896 Q1402.66 320.479 1396.85 320.479 Q1391.04 320.479 1387.96 315.896 Q1384.91 311.289 1384.91 302.562 Q1384.91 293.813 1387.96 289.229 Q1391.04 284.623 1396.85 284.623 Z" fill="#000000" fill-rule="nonzero" fill-opacity="1" /><path clip-path="url(#clip530)" d="M1343.43 99.5305 L1351.07 99.5305 L1351.07 73.1649 L1342.76 74.8316 L1342.76 70.5723 L1351.02 68.9057 L1355.7 68.9057 L1355.7 99.5305 L1363.33 99.5305 L1363.33 103.466 L1343.43 103.466 L1343.43 99.5305 Z" fill="#000000" fill-rule="nonzero" fill-opacity="1" /><path clip-path="url(#clip530)" d="M1372.78 97.5861 L1377.66 97.5861 L1377.66 103.466 L1372.78 103.466 L1372.78 97.5861 Z" fill="#000000" fill-rule="nonzero" fill-opacity="1" /><path clip-path="url(#clip530)" d="M1387.89 68.9057 L1406.25 68.9057 L1406.25 72.8408 L1392.18 72.8408 L1392.18 81.313 Q1393.19 80.9658 1394.21 80.8038 Q1395.23 80.6186 1396.25 80.6186 Q1402.04 80.6186 1405.42 83.7899 Q1408.8 86.9611 1408.8 92.3778 Q1408.8 97.9564 1405.32 101.058 Q1401.85 104.137 1395.53 104.137 Q1393.36 104.137 1391.09 103.767 Q1388.84 103.396 1386.44 102.655 L1386.44 97.9564 Q1388.52 99.0907 1390.74 99.6462 Q1392.96 100.202 1395.44 100.202 Q1399.44 100.202 1401.78 98.0953 Q1404.12 95.9889 1404.12 92.3778 Q1404.12 88.7667 1401.78 86.6602 Q1399.44 84.5537 1395.44 84.5537 Q1393.57 84.5537 1391.69 84.9704 Q1389.84 85.3871 1387.89 86.2667 L1387.89 68.9057 Z" fill="#000000" fill-rule="nonzero" fill-opacity="1" /><path clip-path="url(#clip530)" d="M1224.17 806.642 Q1226.42 806.642 1226.42 809.895 L1226.42 820.974 L1249 825.386 Q1249.58 825.483 1249.9 825.612 Q1250.22 825.708 1250.77 825.998 Q1251.29 826.256 1251.54 826.803 Q1251.83 827.318 1251.83 828.091 Q1251.83 829.058 1251.25 829.541 Q1250.71 829.992 1250.03 829.992 Q1249.61 829.992 1247.61 829.347 L1226.42 822.874 L1226.42 828.349 Q1226.42 833.502 1231.51 836.723 Q1232.19 837.238 1232.25 837.528 Q1232.28 837.657 1232.28 837.785 Q1232.28 838.14 1232.12 838.365 Q1231.96 838.558 1231.8 838.558 L1231.64 838.59 Q1231.41 838.59 1230.51 838.075 Q1229.58 837.528 1228.19 836.562 Q1226.81 835.563 1225.71 834.565 Q1224.3 833.244 1223.56 831.763 Q1222.78 830.281 1222.69 829.541 Q1222.59 828.768 1222.59 827.769 L1222.59 809.283 Q1222.59 808.446 1222.65 807.995 Q1222.69 807.544 1223.07 807.093 Q1223.43 806.642 1224.17 806.642 Z" fill="#000000" fill-rule="nonzero" fill-opacity="1" /><path clip-path="url(#clip530)" d="M1201.57 769.142 Q1208.89 773.407 1216.05 775.476 Q1223.21 777.544 1230.56 777.544 Q1237.91 777.544 1245.14 775.476 Q1252.33 773.375 1259.62 769.142 L1259.62 774.234 Q1252.14 779.009 1244.92 781.396 Q1237.69 783.751 1230.56 783.751 Q1223.46 783.751 1216.27 781.396 Q1209.08 779.04 1201.57 774.234 L1201.57 769.142 Z" fill="#000000" fill-rule="nonzero" fill-opacity="1" /><path clip-path="url(#clip530)" d="M1203.51 757.524 L1203.51 748.867 L1243.26 727.796 L1203.51 727.796 L1203.51 721.558 L1251.03 721.558 L1251.03 730.215 L1211.27 751.286 L1251.03 751.286 L1251.03 757.524 L1203.51 757.524 Z" fill="#000000" fill-rule="nonzero" fill-opacity="1" /><path clip-path="url(#clip530)" d="M1222.22 681.263 Q1218.28 679.067 1216.4 676.011 Q1214.52 672.956 1214.52 668.818 Q1214.52 663.248 1218.44 660.224 Q1222.32 657.201 1229.51 657.201 L1251.03 657.201 L1251.03 663.089 L1229.7 663.089 Q1224.58 663.089 1222.1 664.903 Q1219.61 666.718 1219.61 670.441 Q1219.61 674.993 1222.64 677.635 Q1225.66 680.276 1230.88 680.276 L1251.03 680.276 L1251.03 686.165 L1229.7 686.165 Q1224.55 686.165 1222.1 687.979 Q1219.61 689.793 1219.61 693.581 Q1219.61 698.069 1222.67 700.71 Q1225.69 703.352 1230.88 703.352 L1251.03 703.352 L1251.03 709.24 L1215.38 709.24 L1215.38 703.352 L1220.92 703.352 Q1217.64 701.347 1216.08 698.546 Q1214.52 695.745 1214.52 691.894 Q1214.52 688.011 1216.49 685.305 Q1218.47 682.568 1222.22 681.263 Z" fill="#000000" fill-rule="nonzero" fill-opacity="1" /><path clip-path="url(#clip530)" d="M1201.57 646.443 L1201.57 641.35 Q1209.08 636.576 1216.27 634.221 Q1223.46 631.833 1230.56 631.833 Q1237.69 631.833 1244.92 634.221 Q1252.14 636.576 1259.62 641.35 L1259.62 646.443 Q1252.33 642.21 1245.14 640.141 Q1237.91 638.04 1230.56 638.04 Q1223.21 638.04 1216.05 640.141 Q1208.89 642.21 1201.57 646.443 Z" fill="#000000" fill-rule="nonzero" fill-opacity="1" /><polyline clip-path="url(#clip533)" style="stroke:#009af9; stroke-linecap:round; stroke-linejoin:round; stroke-width:4; stroke-opacity:1; fill:none" points="1470.49,86.1857 1495.69,86.1857 1495.69,86.1857 1520.88,86.1857 1520.88,1199.89 1546.07,1199.89 1546.07,915.369 1571.27,915.369 1571.27,189.686 1596.46,189.686 1596.46,86.1857 1621.65,86.1857 1621.65,86.1857 1646.85,86.1857 1646.85,636.681 1672.04,636.681 1672.04,617.967 1697.23,617.967 1697.23,217.512 1722.42,217.512 1722.42,86.1857 1747.62,86.1857 1772.81,86.1857 1772.81,86.1857 1798,86.1857 1798,272.211 1823.2,272.211 1823.2,224.627 1848.39,224.627 1848.39,86.1857 1873.58,86.1857 1873.58,86.1857 1898.78,86.1857 1923.97,86.1857 1923.97,86.1857 1949.16,86.1857 1949.16,86.1857 1974.36,86.1857 1974.36,218.705 1999.55,218.705 1999.55,244.583 2024.74,244.583 2024.74,226.76 2049.93,226.76 2049.93,243.918 2075.13,243.918 2075.13,289.61 2100.32,289.61 2100.32,340.992 2125.51,340.992 2125.51,388.394 2150.71,388.394 2150.71,433.18 2175.9,433.18 2175.9,477.393 2201.09,477.393 2201.09,520.523 2226.29,520.523 2226.29,561.073 2251.48,561.073 2251.48,597.912 2276.67,597.912 2276.67,630.418 2301.87,630.418 2301.87,658.284 2327.06,658.284 2327.06,681.446 "/>
<polyline clip-path="url(#clip533)" style="stroke:#c271d2; stroke-linecap:round; stroke-linejoin:round; stroke-width:6; stroke-opacity:1; fill:none" stroke-dasharray="3, 6" points="1470.49,1384.24 1495.69,1384.24 1520.88,1384.24 1546.07,1384.24 1571.27,1384.24 1596.46,1384.24 1621.65,1384.24 1646.85,1384.24 1672.04,1384.24 1697.23,1384.24 1722.42,1384.24 1747.62,1384.24 1772.81,1384.24 1798,1384.24 1823.2,1384.24 1848.39,1384.24 1873.58,1384.24 1898.78,1384.24 1923.97,1384.24 1949.16,1384.24 1974.36,1384.24 1999.55,1384.24 2024.74,1384.24 2049.93,1384.24 2075.13,1384.24 2100.32,1384.24 2125.51,1384.24 2150.71,1384.24 2175.9,1384.24 2201.09,1384.24 2226.29,1384.24 2251.48,1384.24 2276.67,1384.24 2301.87,1384.24 2327.06,1384.24 "/>
<polyline clip-path="url(#clip533)" style="stroke:#ac8d18; stroke-linecap:round; stroke-linejoin:round; stroke-width:6; stroke-opacity:1; fill:none" stroke-dasharray="3, 6" points="1470.49,86.1857 1495.69,86.1857 1520.88,86.1857 1546.07,86.1857 1571.27,86.1857 1596.46,86.1857 1621.65,86.1857 1646.85,86.1857 1672.04,86.1857 1697.23,86.1857 1722.42,86.1857 1747.62,86.1857 1772.81,86.1857 1798,86.1857 1823.2,86.1857 1848.39,86.1857 1873.58,86.1857 1898.78,86.1857 1923.97,86.1857 1949.16,86.1857 1974.36,86.1857 1999.55,86.1857 2024.74,86.1857 2049.93,86.1857 2075.13,86.1857 2100.32,86.1857 2125.51,86.1857 2150.71,86.1857 2175.9,86.1857 2201.09,86.1857 2226.29,86.1857 2251.48,86.1857 2276.67,86.1857 2301.87,86.1857 2327.06,86.1857 "/>
<path clip-path="url(#clip530)" d="M2124.19 1377.32 L2322.49 1377.32 L2322.49 1169.96 L2124.19 1169.96  Z" fill="#ffffff" fill-rule="evenodd" fill-opacity="1"/>
<polyline clip-path="url(#clip530)" style="stroke:#000000; stroke-linecap:round; stroke-linejoin:round; stroke-width:4; stroke-opacity:1; fill:none" points="2124.19,1377.32 2322.49,1377.32 2322.49,1169.96 2124.19,1169.96 2124.19,1377.32 "/>
<polyline clip-path="url(#clip530)" style="stroke:#009af9; stroke-linecap:round; stroke-linejoin:round; stroke-width:4; stroke-opacity:1; fill:none" points="2134.28,1221.8 2194.81,1221.8 "/>
<path clip-path="url(#clip530)" d="M2232.25 1232.35 L2223.75 1232.63 L2223.75 1228.91 Q2221.57 1232.63 2216.84 1232.63 Q2214.9 1232.63 2213.45 1232.37 Q2212.02 1232.12 2210.75 1231.48 Q2209.51 1230.83 2208.85 1229.56 Q2208.2 1228.3 2208.2 1226.45 L2208.2 1215.28 Q2208.2 1213.92 2207.71 1213.66 Q2207.21 1213.4 2204.9 1213.4 L2204.9 1211.15 L2213.68 1210.75 L2213.68 1227.13 Q2213.68 1228.27 2213.75 1228.86 Q2213.84 1229.42 2214.19 1229.98 Q2214.57 1230.52 2215.37 1230.73 Q2216.16 1230.92 2217.52 1230.92 Q2220.17 1230.92 2221.81 1229.14 Q2223.47 1227.36 2223.47 1224.43 L2223.47 1215.28 Q2223.47 1213.92 2222.95 1213.66 Q2222.46 1213.4 2220.14 1213.4 L2220.14 1211.15 L2228.93 1210.75 L2228.93 1228.23 Q2228.93 1229.59 2229.42 1229.84 Q2229.93 1230.1 2232.25 1230.1 L2232.25 1232.35 Z" fill="#000000" fill-rule="nonzero" fill-opacity="1" /><polyline clip-path="url(#clip530)" style="stroke:#c271d2; stroke-linecap:round; stroke-linejoin:round; stroke-width:6; stroke-opacity:1; fill:none" stroke-dasharray="3, 6" points="2134.28,1273.64 2194.81,1273.64 "/>
<path clip-path="url(#clip530)" d="M2232.25 1277.36 L2223.75 1277.64 L2223.75 1273.91 Q2221.57 1277.64 2216.84 1277.64 Q2214.9 1277.64 2213.45 1277.38 Q2212.02 1277.12 2210.75 1276.49 Q2209.51 1275.83 2208.85 1274.57 Q2208.2 1273.3 2208.2 1271.45 L2208.2 1260.28 Q2208.2 1258.92 2207.71 1258.66 Q2207.21 1258.41 2204.9 1258.41 L2204.9 1256.16 L2213.68 1255.76 L2213.68 1272.13 Q2213.68 1273.28 2213.75 1273.87 Q2213.84 1274.43 2214.19 1274.99 Q2214.57 1275.53 2215.37 1275.74 Q2216.16 1275.93 2217.52 1275.93 Q2220.17 1275.93 2221.81 1274.15 Q2223.47 1272.37 2223.47 1269.44 L2223.47 1260.28 Q2223.47 1258.92 2222.95 1258.66 Q2222.46 1258.41 2220.14 1258.41 L2220.14 1256.16 L2228.93 1255.76 L2228.93 1273.23 Q2228.93 1274.59 2229.42 1274.85 Q2229.93 1275.11 2232.25 1275.11 L2232.25 1277.36 Z" fill="#000000" fill-rule="nonzero" fill-opacity="1" /><path clip-path="url(#clip530)" d="M2266.98 1291.31 L2262.75 1291.21 L2258.52 1291.31 L2258.52 1289.73 L2260.84 1289.73 L2260.84 1280.67 Q2260.84 1278.83 2260.36 1278.12 Q2259.88 1277.4 2258.95 1277.4 Q2258.13 1277.4 2257.28 1277.73 Q2256.44 1278.06 2255.67 1278.68 Q2254.92 1279.3 2254.42 1280.35 Q2253.95 1281.4 2253.95 1282.71 L2253.95 1289.73 L2256.28 1289.73 L2256.28 1291.31 L2252.05 1291.21 L2247.8 1291.31 L2247.8 1289.73 L2250.13 1289.73 L2250.13 1280.67 Q2250.13 1278.83 2249.65 1278.12 Q2249.18 1277.4 2248.24 1277.4 Q2247.42 1277.4 2246.57 1277.73 Q2245.73 1278.06 2244.96 1278.68 Q2244.21 1279.3 2243.72 1280.35 Q2243.24 1281.4 2243.24 1282.71 L2243.24 1289.73 L2245.55 1289.73 L2245.55 1291.31 L2241.32 1291.21 L2237.09 1291.31 L2237.09 1289.73 L2239.41 1289.73 L2239.41 1279.35 Q2239.41 1278.4 2239.06 1278.22 Q2238.72 1278.04 2237.09 1278.04 L2237.09 1276.47 L2242.87 1276.19 L2242.87 1279.83 Q2243.73 1278.14 2245.21 1277.17 Q2246.7 1276.19 2248.78 1276.19 Q2253.11 1276.19 2253.82 1279.42 Q2254.59 1278.06 2256 1277.12 Q2257.41 1276.19 2259.49 1276.19 Q2262.13 1276.19 2263.39 1277.34 Q2264.67 1278.47 2264.67 1281.03 L2264.67 1289.73 L2266.98 1289.73 L2266.98 1291.31 Z" fill="#000000" fill-rule="nonzero" fill-opacity="1" /><path clip-path="url(#clip530)" d="M2276.83 1291.31 L2272.9 1291.21 L2268.8 1291.31 L2268.8 1289.73 L2271.13 1289.73 L2271.13 1279.35 Q2271.13 1278.4 2270.78 1278.22 Q2270.44 1278.04 2268.9 1278.04 L2268.9 1276.47 L2274.75 1276.19 L2274.75 1289.73 L2276.83 1289.73 L2276.83 1291.31 M2274.44 1269.07 Q2275.21 1269.84 2275.21 1270.93 Q2275.21 1272.01 2274.44 1272.78 Q2273.68 1273.55 2272.6 1273.55 Q2271.52 1273.55 2270.75 1272.78 Q2269.98 1272.01 2269.98 1270.93 Q2269.98 1269.84 2270.75 1269.07 Q2271.52 1268.3 2272.6 1268.3 Q2273.68 1268.3 2274.44 1269.07 Z" fill="#000000" fill-rule="nonzero" fill-opacity="1" /><path clip-path="url(#clip530)" d="M2298.82 1291.31 L2294.57 1291.21 L2290.34 1291.31 L2290.34 1289.73 L2292.67 1289.73 L2292.67 1280.67 Q2292.67 1278.85 2292.19 1278.12 Q2291.73 1277.4 2290.82 1277.4 Q2289.98 1277.4 2289.13 1277.73 Q2288.29 1278.06 2287.52 1278.68 Q2286.77 1279.3 2286.29 1280.35 Q2285.82 1281.4 2285.82 1282.71 L2285.82 1289.73 L2288.13 1289.73 L2288.13 1291.31 L2283.9 1291.21 L2279.67 1291.31 L2279.67 1289.73 L2281.98 1289.73 L2281.98 1279.35 Q2281.98 1278.4 2281.64 1278.22 Q2281.29 1278.04 2279.67 1278.04 L2279.67 1276.47 L2285.44 1276.19 L2285.44 1279.83 Q2285.8 1279.12 2286.29 1278.53 Q2286.78 1277.93 2287.49 1277.39 Q2288.19 1276.83 2289.18 1276.52 Q2290.18 1276.19 2291.33 1276.19 Q2293.93 1276.19 2295.21 1277.32 Q2296.49 1278.45 2296.49 1281.03 L2296.49 1289.73 L2298.82 1289.73 L2298.82 1291.31 Z" fill="#000000" fill-rule="nonzero" fill-opacity="1" /><polyline clip-path="url(#clip530)" style="stroke:#ac8d18; stroke-linecap:round; stroke-linejoin:round; stroke-width:6; stroke-opacity:1; fill:none" stroke-dasharray="3, 6" points="2134.28,1325.48 2194.81,1325.48 "/>
<path clip-path="url(#clip530)" d="M2232.25 1331.41 L2223.75 1331.69 L2223.75 1327.97 Q2221.57 1331.69 2216.84 1331.69 Q2214.9 1331.69 2213.45 1331.43 Q2212.02 1331.18 2210.75 1330.54 Q2209.51 1329.89 2208.85 1328.62 Q2208.2 1327.36 2208.2 1325.51 L2208.2 1314.34 Q2208.2 1312.98 2207.71 1312.72 Q2207.21 1312.46 2204.9 1312.46 L2204.9 1310.21 L2213.68 1309.81 L2213.68 1326.19 Q2213.68 1327.33 2213.75 1327.92 Q2213.84 1328.48 2214.19 1329.04 Q2214.57 1329.58 2215.37 1329.79 Q2216.16 1329.98 2217.52 1329.98 Q2220.17 1329.98 2221.81 1328.2 Q2223.47 1326.42 2223.47 1323.49 L2223.47 1314.34 Q2223.47 1312.98 2222.95 1312.72 Q2222.46 1312.46 2220.14 1312.46 L2220.14 1310.21 L2228.93 1309.81 L2228.93 1327.29 Q2228.93 1328.65 2229.42 1328.9 Q2229.93 1329.16 2232.25 1329.16 L2232.25 1331.41 Z" fill="#000000" fill-rule="nonzero" fill-opacity="1" /><path clip-path="url(#clip530)" d="M2266.98 1340.73 L2262.75 1340.64 L2258.52 1340.73 L2258.52 1339.16 L2260.84 1339.16 L2260.84 1330.09 Q2260.84 1328.26 2260.36 1327.55 Q2259.88 1326.83 2258.95 1326.83 Q2258.13 1326.83 2257.28 1327.16 Q2256.44 1327.49 2255.67 1328.11 Q2254.92 1328.73 2254.42 1329.78 Q2253.95 1330.83 2253.95 1332.14 L2253.95 1339.16 L2256.28 1339.16 L2256.28 1340.73 L2252.05 1340.64 L2247.8 1340.73 L2247.8 1339.16 L2250.13 1339.16 L2250.13 1330.09 Q2250.13 1328.26 2249.65 1327.55 Q2249.18 1326.83 2248.24 1326.83 Q2247.42 1326.83 2246.57 1327.16 Q2245.73 1327.49 2244.96 1328.11 Q2244.21 1328.73 2243.72 1329.78 Q2243.24 1330.83 2243.24 1332.14 L2243.24 1339.16 L2245.55 1339.16 L2245.55 1340.73 L2241.32 1340.64 L2237.09 1340.73 L2237.09 1339.16 L2239.41 1339.16 L2239.41 1328.78 Q2239.41 1327.83 2239.06 1327.65 Q2238.72 1327.47 2237.09 1327.47 L2237.09 1325.9 L2242.87 1325.62 L2242.87 1329.26 Q2243.73 1327.57 2245.21 1326.6 Q2246.7 1325.62 2248.78 1325.62 Q2253.11 1325.62 2253.82 1328.85 Q2254.59 1327.49 2256 1326.55 Q2257.41 1325.62 2259.49 1325.62 Q2262.13 1325.62 2263.39 1326.77 Q2264.67 1327.9 2264.67 1330.45 L2264.67 1339.16 L2266.98 1339.16 L2266.98 1340.73 Z" fill="#000000" fill-rule="nonzero" fill-opacity="1" /><path clip-path="url(#clip530)" d="M2287.01 1339.93 Q2287.01 1340.23 2286.94 1340.41 Q2286.88 1340.57 2286.7 1340.64 Q2286.53 1340.7 2286.39 1340.72 Q2286.24 1340.73 2285.93 1340.73 L2284.32 1340.73 Q2283.32 1340.73 2282.62 1340.55 Q2281.93 1340.36 2281.58 1340.13 Q2281.24 1339.9 2281.06 1339.49 Q2280.88 1339.08 2280.84 1338.83 Q2280.83 1338.57 2280.83 1338.14 Q2280.21 1339.34 2278.94 1340.14 Q2277.7 1340.93 2275.83 1340.93 Q2275.04 1340.93 2274.25 1340.85 Q2273.47 1340.77 2272.55 1340.52 Q2271.63 1340.26 2270.94 1339.87 Q2270.25 1339.46 2269.79 1338.75 Q2269.33 1338.03 2269.33 1337.11 Q2269.33 1332.29 2280.25 1331.83 L2280.25 1330.7 Q2280.25 1326.73 2276.57 1326.73 Q2275.22 1326.73 2274.14 1326.96 Q2274.24 1327.03 2274.38 1327.19 Q2274.53 1327.36 2274.7 1327.77 Q2274.88 1328.18 2274.88 1328.62 Q2274.88 1329.62 2274.24 1330.18 Q2273.61 1330.73 2272.76 1330.73 Q2271.97 1330.73 2271.32 1330.19 Q2270.68 1329.63 2270.68 1328.62 Q2270.68 1325.52 2276.7 1325.52 Q2280.32 1325.52 2282.19 1326.95 Q2284.07 1328.36 2284.07 1330.7 L2284.07 1337.91 Q2284.07 1338.28 2284.11 1338.44 Q2284.14 1338.6 2284.32 1338.8 Q2284.5 1339 2284.93 1339.08 Q2285.37 1339.14 2286.12 1339.16 Q2286.42 1339.16 2286.57 1339.19 Q2286.71 1339.21 2286.86 1339.39 Q2287.01 1339.57 2287.01 1339.93 M2280.25 1336.06 L2280.25 1332.88 Q2279.68 1332.91 2279.14 1332.98 Q2278.6 1333.04 2277.71 1333.21 Q2276.83 1333.36 2276.11 1333.67 Q2275.4 1333.96 2274.71 1334.41 Q2274.04 1334.83 2273.65 1335.52 Q2273.27 1336.21 2273.27 1337.08 Q2273.27 1338.19 2274.16 1338.96 Q2275.04 1339.73 2276.32 1339.73 Q2276.65 1339.73 2277.06 1339.67 Q2277.47 1339.6 2278.06 1339.37 Q2278.65 1339.13 2279.11 1338.75 Q2279.58 1338.37 2279.91 1337.68 Q2280.25 1336.98 2280.25 1336.06 Z" fill="#000000" fill-rule="nonzero" fill-opacity="1" /><path clip-path="url(#clip530)" d="M2306.01 1340.73 L2302.32 1340.64 L2298.28 1340.73 L2298.28 1339.16 L2299.6 1339.16 L2295.91 1334.8 L2292.64 1338.46 L2292.41 1338.78 Q2292.41 1338.93 2292.79 1339.05 Q2293.18 1339.16 2293.64 1339.16 L2293.64 1340.73 L2290.18 1340.64 L2287.1 1340.73 L2287.1 1339.16 Q2288.13 1339.16 2288.61 1339.14 Q2289.1 1339.11 2289.66 1338.96 Q2290.22 1338.82 2290.5 1338.52 L2294.89 1333.59 L2289.66 1327.4 L2287.27 1327.4 L2287.27 1325.83 L2290.97 1325.93 L2295.02 1325.83 L2295.02 1327.4 L2293.68 1327.4 L2296.97 1331.26 L2299.79 1328.11 Q2299.81 1328.09 2300.07 1327.7 Q2299.55 1327.4 2298.79 1327.4 L2298.79 1325.83 L2302.25 1325.93 L2305.33 1325.83 L2305.33 1327.4 Q2303.99 1327.4 2303.28 1327.5 Q2302.6 1327.59 2302.38 1327.7 Q2302.19 1327.81 2301.91 1328.11 L2297.99 1332.47 L2303.63 1339.16 L2306.01 1339.16 L2306.01 1340.73 Z" fill="#000000" fill-rule="nonzero" fill-opacity="1" /></svg>
