<svg xmlns="http://www.w3.org/2000/svg" xmlns:xlink="http://www.w3.org/1999/xlink" width="600" height="400" viewBox="0 0 2400 1600">
<defs>
  <clipPath id="clip810">
    <rect x="0" y="0" width="2400" height="1600"></rect>
  </clipPath>
</defs>
<path clip-path="url(#clip810)" d="M0 1600 L2400 1600 L2400 0 L0 0  Z" fill="#ffffff" fill-rule="evenodd" fill-opacity="1"></path>
<defs>
  <clipPath id="clip811">
    <rect x="480" y="0" width="1681" height="1600"></rect>
  </clipPath>
</defs>
<path clip-path="url(#clip810)" d="M257.69 1423.18 L1156.83 1423.18 L1156.83 47.2441 L257.69 47.2441  Z" fill="#ffffff" fill-rule="evenodd" fill-opacity="1"></path>
<defs>
  <clipPath id="clip812">
    <rect x="257" y="47" width="900" height="1377"></rect>
  </clipPath>
</defs>
<polyline clip-path="url(#clip812)" style="stroke:#000000; stroke-linecap:round; stroke-linejoin:round; stroke-width:2; stroke-opacity:0.1; fill:none" points="283.137,1423.18 283.137,47.2441 "></polyline>
<polyline clip-path="url(#clip812)" style="stroke:#000000; stroke-linecap:round; stroke-linejoin:round; stroke-width:2; stroke-opacity:0.1; fill:none" points="429.387,1423.18 429.387,47.2441 "></polyline>
<polyline clip-path="url(#clip812)" style="stroke:#000000; stroke-linecap:round; stroke-linejoin:round; stroke-width:2; stroke-opacity:0.1; fill:none" points="575.636,1423.18 575.636,47.2441 "></polyline>
<polyline clip-path="url(#clip812)" style="stroke:#000000; stroke-linecap:round; stroke-linejoin:round; stroke-width:2; stroke-opacity:0.1; fill:none" points="721.885,1423.18 721.885,47.2441 "></polyline>
<polyline clip-path="url(#clip812)" style="stroke:#000000; stroke-linecap:round; stroke-linejoin:round; stroke-width:2; stroke-opacity:0.1; fill:none" points="868.134,1423.18 868.134,47.2441 "></polyline>
<polyline clip-path="url(#clip812)" style="stroke:#000000; stroke-linecap:round; stroke-linejoin:round; stroke-width:2; stroke-opacity:0.1; fill:none" points="1014.38,1423.18 1014.38,47.2441 "></polyline>
<polyline clip-path="url(#clip810)" style="stroke:#000000; stroke-linecap:round; stroke-linejoin:round; stroke-width:4; stroke-opacity:1; fill:none" points="257.69,1423.18 1156.83,1423.18 "></polyline>
<polyline clip-path="url(#clip810)" style="stroke:#000000; stroke-linecap:round; stroke-linejoin:round; stroke-width:4; stroke-opacity:1; fill:none" points="283.137,1423.18 283.137,1404.28 "></polyline>
<polyline clip-path="url(#clip810)" style="stroke:#000000; stroke-linecap:round; stroke-linejoin:round; stroke-width:4; stroke-opacity:1; fill:none" points="429.387,1423.18 429.387,1404.28 "></polyline>
<polyline clip-path="url(#clip810)" style="stroke:#000000; stroke-linecap:round; stroke-linejoin:round; stroke-width:4; stroke-opacity:1; fill:none" points="575.636,1423.18 575.636,1404.28 "></polyline>
<polyline clip-path="url(#clip810)" style="stroke:#000000; stroke-linecap:round; stroke-linejoin:round; stroke-width:4; stroke-opacity:1; fill:none" points="721.885,1423.18 721.885,1404.28 "></polyline>
<polyline clip-path="url(#clip810)" style="stroke:#000000; stroke-linecap:round; stroke-linejoin:round; stroke-width:4; stroke-opacity:1; fill:none" points="868.134,1423.18 868.134,1404.28 "></polyline>
<polyline clip-path="url(#clip810)" style="stroke:#000000; stroke-linecap:round; stroke-linejoin:round; stroke-width:4; stroke-opacity:1; fill:none" points="1014.38,1423.18 1014.38,1404.28 "></polyline>
<path clip-path="url(#clip810)" d="M283.137 1454.1 Q279.526 1454.1 277.698 1457.66 Q275.892 1461.2 275.892 1468.33 Q275.892 1475.44 277.698 1479.01 Q279.526 1482.55 283.137 1482.55 Q286.772 1482.55 288.577 1479.01 Q290.406 1475.44 290.406 1468.33 Q290.406 1461.2 288.577 1457.66 Q286.772 1454.1 283.137 1454.1 M283.137 1450.39 Q288.948 1450.39 292.003 1455 Q295.082 1459.58 295.082 1468.33 Q295.082 1477.06 292.003 1481.67 Q288.948 1486.25 283.137 1486.25 Q277.327 1486.25 274.249 1481.67 Q271.193 1477.06 271.193 1468.33 Q271.193 1459.58 274.249 1455 Q277.327 1450.39 283.137 1450.39 Z" fill="#000000" fill-rule="nonzero" fill-opacity="1"></path><path clip-path="url(#clip810)" d="M419.664 1451.02 L438.021 1451.02 L438.021 1454.96 L423.947 1454.96 L423.947 1463.43 Q424.965 1463.08 425.984 1462.92 Q427.002 1462.73 428.021 1462.73 Q433.808 1462.73 437.188 1465.9 Q440.567 1469.08 440.567 1474.49 Q440.567 1480.07 437.095 1483.17 Q433.623 1486.25 427.303 1486.25 Q425.127 1486.25 422.859 1485.88 Q420.614 1485.51 418.206 1484.77 L418.206 1480.07 Q420.289 1481.2 422.512 1481.76 Q424.734 1482.32 427.211 1482.32 Q431.215 1482.32 433.553 1480.21 Q435.891 1478.1 435.891 1474.49 Q435.891 1470.88 433.553 1468.77 Q431.215 1466.67 427.211 1466.67 Q425.336 1466.67 423.461 1467.08 Q421.609 1467.5 419.664 1468.38 L419.664 1451.02 Z" fill="#000000" fill-rule="nonzero" fill-opacity="1"></path><path clip-path="url(#clip810)" d="M550.323 1481.64 L557.962 1481.64 L557.962 1455.28 L549.652 1456.95 L549.652 1452.69 L557.916 1451.02 L562.592 1451.02 L562.592 1481.64 L570.231 1481.64 L570.231 1485.58 L550.323 1485.58 L550.323 1481.64 Z" fill="#000000" fill-rule="nonzero" fill-opacity="1"></path><path clip-path="url(#clip810)" d="M589.675 1454.1 Q586.064 1454.1 584.235 1457.66 Q582.43 1461.2 582.43 1468.33 Q582.43 1475.44 584.235 1479.01 Q586.064 1482.55 589.675 1482.55 Q593.309 1482.55 595.115 1479.01 Q596.944 1475.44 596.944 1468.33 Q596.944 1461.2 595.115 1457.66 Q593.309 1454.1 589.675 1454.1 M589.675 1450.39 Q595.485 1450.39 598.541 1455 Q601.619 1459.58 601.619 1468.33 Q601.619 1477.06 598.541 1481.67 Q595.485 1486.25 589.675 1486.25 Q583.865 1486.25 580.786 1481.67 Q577.731 1477.06 577.731 1468.33 Q577.731 1459.58 580.786 1455 Q583.865 1450.39 589.675 1450.39 Z" fill="#000000" fill-rule="nonzero" fill-opacity="1"></path><path clip-path="url(#clip810)" d="M697.07 1481.64 L704.709 1481.64 L704.709 1455.28 L696.399 1456.95 L696.399 1452.69 L704.663 1451.02 L709.339 1451.02 L709.339 1481.64 L716.978 1481.64 L716.978 1485.58 L697.07 1485.58 L697.07 1481.64 Z" fill="#000000" fill-rule="nonzero" fill-opacity="1"></path><path clip-path="url(#clip810)" d="M726.468 1451.02 L744.825 1451.02 L744.825 1454.96 L730.751 1454.96 L730.751 1463.43 Q731.769 1463.08 732.788 1462.92 Q733.806 1462.73 734.825 1462.73 Q740.612 1462.73 743.991 1465.9 Q747.371 1469.08 747.371 1474.49 Q747.371 1480.07 743.899 1483.17 Q740.427 1486.25 734.107 1486.25 Q731.931 1486.25 729.663 1485.88 Q727.417 1485.51 725.01 1484.77 L725.01 1480.07 Q727.093 1481.2 729.315 1481.76 Q731.538 1482.32 734.015 1482.32 Q738.019 1482.32 740.357 1480.21 Q742.695 1478.1 742.695 1474.49 Q742.695 1470.88 740.357 1468.77 Q738.019 1466.67 734.015 1466.67 Q732.14 1466.67 730.265 1467.08 Q728.413 1467.5 726.468 1468.38 L726.468 1451.02 Z" fill="#000000" fill-rule="nonzero" fill-opacity="1"></path><path clip-path="url(#clip810)" d="M846.907 1481.64 L863.227 1481.64 L863.227 1485.58 L841.282 1485.58 L841.282 1481.64 Q843.944 1478.89 848.528 1474.26 Q853.134 1469.61 854.315 1468.27 Q856.56 1465.74 857.44 1464.01 Q858.343 1462.25 858.343 1460.56 Q858.343 1457.8 856.398 1456.07 Q854.477 1454.33 851.375 1454.33 Q849.176 1454.33 846.722 1455.09 Q844.292 1455.86 841.514 1457.41 L841.514 1452.69 Q844.338 1451.55 846.792 1450.97 Q849.245 1450.39 851.282 1450.39 Q856.653 1450.39 859.847 1453.08 Q863.042 1455.77 863.042 1460.26 Q863.042 1462.39 862.231 1464.31 Q861.444 1466.2 859.338 1468.8 Q858.759 1469.47 855.657 1472.69 Q852.556 1475.88 846.907 1481.64 Z" fill="#000000" fill-rule="nonzero" fill-opacity="1"></path><path clip-path="url(#clip810)" d="M883.041 1454.1 Q879.43 1454.1 877.602 1457.66 Q875.796 1461.2 875.796 1468.33 Q875.796 1475.44 877.602 1479.01 Q879.43 1482.55 883.041 1482.55 Q886.676 1482.55 888.481 1479.01 Q890.31 1475.44 890.31 1468.33 Q890.31 1461.2 888.481 1457.66 Q886.676 1454.1 883.041 1454.1 M883.041 1450.39 Q888.852 1450.39 891.907 1455 Q894.986 1459.58 894.986 1468.33 Q894.986 1477.06 891.907 1481.67 Q888.852 1486.25 883.041 1486.25 Q877.231 1486.25 874.153 1481.67 Q871.097 1477.06 871.097 1468.33 Q871.097 1459.58 874.153 1455 Q877.231 1450.39 883.041 1450.39 Z" fill="#000000" fill-rule="nonzero" fill-opacity="1"></path><path clip-path="url(#clip810)" d="M993.654 1481.64 L1009.97 1481.64 L1009.97 1485.58 L988.029 1485.58 L988.029 1481.64 Q990.691 1478.89 995.275 1474.26 Q999.881 1469.61 1001.06 1468.27 Q1003.31 1465.74 1004.19 1464.01 Q1005.09 1462.25 1005.09 1460.56 Q1005.09 1457.8 1003.14 1456.07 Q1001.22 1454.33 998.122 1454.33 Q995.923 1454.33 993.469 1455.09 Q991.038 1455.86 988.261 1457.41 L988.261 1452.69 Q991.085 1451.55 993.538 1450.97 Q995.992 1450.39 998.029 1450.39 Q1003.4 1450.39 1006.59 1453.08 Q1009.79 1455.77 1009.79 1460.26 Q1009.79 1462.39 1008.98 1464.31 Q1008.19 1466.2 1006.08 1468.8 Q1005.51 1469.47 1002.4 1472.69 Q999.302 1475.88 993.654 1481.64 Z" fill="#000000" fill-rule="nonzero" fill-opacity="1"></path><path clip-path="url(#clip810)" d="M1019.83 1451.02 L1038.19 1451.02 L1038.19 1454.96 L1024.12 1454.96 L1024.12 1463.43 Q1025.14 1463.08 1026.15 1462.92 Q1027.17 1462.73 1028.19 1462.73 Q1033.98 1462.73 1037.36 1465.9 Q1040.74 1469.08 1040.74 1474.49 Q1040.74 1480.07 1037.27 1483.17 Q1033.79 1486.25 1027.47 1486.25 Q1025.3 1486.25 1023.03 1485.88 Q1020.78 1485.51 1018.38 1484.77 L1018.38 1480.07 Q1020.46 1481.2 1022.68 1481.76 Q1024.9 1482.32 1027.38 1482.32 Q1031.39 1482.32 1033.72 1480.21 Q1036.06 1478.1 1036.06 1474.49 Q1036.06 1470.88 1033.72 1468.77 Q1031.39 1466.67 1027.38 1466.67 Q1025.51 1466.67 1023.63 1467.08 Q1021.78 1467.5 1019.83 1468.38 L1019.83 1451.02 Z" fill="#000000" fill-rule="nonzero" fill-opacity="1"></path><path clip-path="url(#clip810)" d="M577.431 1520.52 L617.631 1520.52 L617.631 1525.93 L600.762 1525.93 L600.762 1568.04 L594.301 1568.04 L594.301 1525.93 L577.431 1525.93 L577.431 1520.52 Z" fill="#000000" fill-rule="nonzero" fill-opacity="1"></path><path clip-path="url(#clip810)" d="M621.578 1532.4 L627.434 1532.4 L627.434 1568.04 L621.578 1568.04 L621.578 1532.4 M621.578 1518.52 L627.434 1518.52 L627.434 1525.93 L621.578 1525.93 L621.578 1518.52 Z" fill="#000000" fill-rule="nonzero" fill-opacity="1"></path><path clip-path="url(#clip810)" d="M667.443 1539.24 Q669.639 1535.29 672.694 1533.41 Q675.75 1531.54 679.888 1531.54 Q685.458 1531.54 688.481 1535.45 Q691.505 1539.33 691.505 1546.53 L691.505 1568.04 L685.617 1568.04 L685.617 1546.72 Q685.617 1541.59 683.802 1539.11 Q681.988 1536.63 678.264 1536.63 Q673.713 1536.63 671.071 1539.65 Q668.429 1542.68 668.429 1547.9 L668.429 1568.04 L662.541 1568.04 L662.541 1546.72 Q662.541 1541.56 660.727 1539.11 Q658.913 1536.63 655.125 1536.63 Q650.637 1536.63 647.995 1539.68 Q645.354 1542.71 645.354 1547.9 L645.354 1568.04 L639.465 1568.04 L639.465 1532.4 L645.354 1532.4 L645.354 1537.93 Q647.359 1534.66 650.16 1533.1 Q652.961 1531.54 656.812 1531.54 Q660.695 1531.54 663.4 1533.51 Q666.138 1535.48 667.443 1539.24 Z" fill="#000000" fill-rule="nonzero" fill-opacity="1"></path><path clip-path="url(#clip810)" d="M733.678 1548.76 L733.678 1551.62 L706.751 1551.62 Q707.133 1557.67 710.379 1560.85 Q713.658 1564 719.482 1564 Q722.856 1564 726.007 1563.17 Q729.19 1562.35 732.309 1560.69 L732.309 1566.23 Q729.158 1567.57 725.848 1568.27 Q722.538 1568.97 719.132 1568.97 Q710.602 1568.97 705.605 1564 Q700.64 1559.04 700.64 1550.57 Q700.64 1541.82 705.35 1536.69 Q710.093 1531.54 718.114 1531.54 Q725.307 1531.54 729.476 1536.18 Q733.678 1540.8 733.678 1548.76 M727.821 1547.04 Q727.758 1542.23 725.116 1539.37 Q722.506 1536.5 718.177 1536.5 Q713.276 1536.5 710.316 1539.27 Q707.387 1542.04 706.942 1547.07 L727.821 1547.04 Z" fill="#000000" fill-rule="nonzero" fill-opacity="1"></path><path clip-path="url(#clip810)" d="M778.079 1518.58 Q773.814 1525.9 771.745 1533.06 Q769.676 1540.23 769.676 1547.58 Q769.676 1554.93 771.745 1562.16 Q773.845 1569.35 778.079 1576.64 L772.986 1576.64 Q768.212 1569.16 765.825 1561.93 Q763.469 1554.71 763.469 1547.58 Q763.469 1540.48 765.825 1533.29 Q768.18 1526.09 772.986 1518.58 L778.079 1518.58 Z" fill="#000000" fill-rule="nonzero" fill-opacity="1"></path><path clip-path="url(#clip810)" d="M812.167 1533.45 L812.167 1538.98 Q809.684 1537.71 807.011 1537.07 Q804.337 1536.44 801.473 1536.44 Q797.112 1536.44 794.916 1537.77 Q792.751 1539.11 792.751 1541.79 Q792.751 1543.82 794.311 1545 Q795.871 1546.15 800.581 1547.2 L802.587 1547.64 Q808.825 1548.98 811.435 1551.43 Q814.077 1553.85 814.077 1558.21 Q814.077 1563.17 810.13 1566.07 Q806.215 1568.97 799.34 1568.97 Q796.475 1568.97 793.356 1568.39 Q790.269 1567.85 786.831 1566.74 L786.831 1560.69 Q790.078 1562.38 793.229 1563.24 Q796.38 1564.07 799.467 1564.07 Q803.605 1564.07 805.833 1562.66 Q808.061 1561.23 808.061 1558.65 Q808.061 1556.27 806.438 1554.99 Q804.846 1553.72 799.404 1552.54 L797.367 1552.07 Q791.924 1550.92 789.505 1548.56 Q787.086 1546.18 787.086 1542.04 Q787.086 1537.01 790.651 1534.27 Q794.216 1531.54 800.772 1531.54 Q804.019 1531.54 806.883 1532.01 Q809.748 1532.49 812.167 1533.45 Z" fill="#000000" fill-rule="nonzero" fill-opacity="1"></path><path clip-path="url(#clip810)" d="M822.479 1518.58 L827.572 1518.58 Q832.346 1526.09 834.701 1533.29 Q837.089 1540.48 837.089 1547.58 Q837.089 1554.71 834.701 1561.93 Q832.346 1569.16 827.572 1576.64 L822.479 1576.64 Q826.713 1569.35 828.781 1562.16 Q830.882 1554.93 830.882 1547.58 Q830.882 1540.23 828.781 1533.06 Q826.713 1525.9 822.479 1518.58 Z" fill="#000000" fill-rule="nonzero" fill-opacity="1"></path><polyline clip-path="url(#clip812)" style="stroke:#000000; stroke-linecap:round; stroke-linejoin:round; stroke-width:2; stroke-opacity:0.1; fill:none" points="257.69,1111.51 1156.83,1111.51 "></polyline>
<polyline clip-path="url(#clip812)" style="stroke:#000000; stroke-linecap:round; stroke-linejoin:round; stroke-width:2; stroke-opacity:0.1; fill:none" points="257.69,769.734 1156.83,769.734 "></polyline>
<polyline clip-path="url(#clip812)" style="stroke:#000000; stroke-linecap:round; stroke-linejoin:round; stroke-width:2; stroke-opacity:0.1; fill:none" points="257.69,427.96 1156.83,427.96 "></polyline>
<polyline clip-path="url(#clip812)" style="stroke:#000000; stroke-linecap:round; stroke-linejoin:round; stroke-width:2; stroke-opacity:0.1; fill:none" points="257.69,86.1857 1156.83,86.1857 "></polyline>
<polyline clip-path="url(#clip810)" style="stroke:#000000; stroke-linecap:round; stroke-linejoin:round; stroke-width:4; stroke-opacity:1; fill:none" points="257.69,1423.18 257.69,47.2441 "></polyline>
<polyline clip-path="url(#clip810)" style="stroke:#000000; stroke-linecap:round; stroke-linejoin:round; stroke-width:4; stroke-opacity:1; fill:none" points="257.69,1111.51 276.588,1111.51 "></polyline>
<polyline clip-path="url(#clip810)" style="stroke:#000000; stroke-linecap:round; stroke-linejoin:round; stroke-width:4; stroke-opacity:1; fill:none" points="257.69,769.734 276.588,769.734 "></polyline>
<polyline clip-path="url(#clip810)" style="stroke:#000000; stroke-linecap:round; stroke-linejoin:round; stroke-width:4; stroke-opacity:1; fill:none" points="257.69,427.96 276.588,427.96 "></polyline>
<polyline clip-path="url(#clip810)" style="stroke:#000000; stroke-linecap:round; stroke-linejoin:round; stroke-width:4; stroke-opacity:1; fill:none" points="257.69,86.1857 276.588,86.1857 "></polyline>
<path clip-path="url(#clip810)" d="M114.584 1111.96 L144.26 1111.96 L144.26 1115.9 L114.584 1115.9 L114.584 1111.96 Z" fill="#000000" fill-rule="nonzero" fill-opacity="1"></path><path clip-path="url(#clip810)" d="M164.352 1097.31 Q160.741 1097.31 158.913 1100.87 Q157.107 1104.41 157.107 1111.54 Q157.107 1118.65 158.913 1122.21 Q160.741 1125.76 164.352 1125.76 Q167.987 1125.76 169.792 1122.21 Q171.621 1118.65 171.621 1111.54 Q171.621 1104.41 169.792 1100.87 Q167.987 1097.31 164.352 1097.31 M164.352 1093.6 Q170.163 1093.6 173.218 1098.21 Q176.297 1102.79 176.297 1111.54 Q176.297 1120.27 173.218 1124.88 Q170.163 1129.46 164.352 1129.46 Q158.542 1129.46 155.464 1124.88 Q152.408 1120.27 152.408 1111.54 Q152.408 1102.79 155.464 1098.21 Q158.542 1093.6 164.352 1093.6 Z" fill="#000000" fill-rule="nonzero" fill-opacity="1"></path><path clip-path="url(#clip810)" d="M184.514 1122.91 L189.399 1122.91 L189.399 1128.79 L184.514 1128.79 L184.514 1122.91 Z" fill="#000000" fill-rule="nonzero" fill-opacity="1"></path><path clip-path="url(#clip810)" d="M210.162 1109.65 Q207.014 1109.65 205.162 1111.8 Q203.334 1113.95 203.334 1117.7 Q203.334 1121.43 205.162 1123.6 Q207.014 1125.76 210.162 1125.76 Q213.311 1125.76 215.139 1123.6 Q216.991 1121.43 216.991 1117.7 Q216.991 1113.95 215.139 1111.8 Q213.311 1109.65 210.162 1109.65 M219.445 1094.99 L219.445 1099.25 Q217.686 1098.42 215.88 1097.98 Q214.098 1097.54 212.338 1097.54 Q207.709 1097.54 205.255 1100.66 Q202.824 1103.79 202.477 1110.11 Q203.843 1108.09 205.903 1107.03 Q207.963 1105.94 210.44 1105.94 Q215.649 1105.94 218.658 1109.11 Q221.69 1112.26 221.69 1117.7 Q221.69 1123.02 218.542 1126.24 Q215.394 1129.46 210.162 1129.46 Q204.167 1129.46 200.996 1124.88 Q197.825 1120.27 197.825 1111.54 Q197.825 1103.35 201.713 1098.49 Q205.602 1093.6 212.153 1093.6 Q213.912 1093.6 215.695 1093.95 Q217.5 1094.3 219.445 1094.99 Z" fill="#000000" fill-rule="nonzero" fill-opacity="1"></path><path clip-path="url(#clip810)" d="M114.26 770.186 L143.936 770.186 L143.936 774.121 L114.26 774.121 L114.26 770.186 Z" fill="#000000" fill-rule="nonzero" fill-opacity="1"></path><path clip-path="url(#clip810)" d="M164.028 755.533 Q160.417 755.533 158.589 759.098 Q156.783 762.639 156.783 769.769 Q156.783 776.875 158.589 780.44 Q160.417 783.982 164.028 783.982 Q167.663 783.982 169.468 780.44 Q171.297 776.875 171.297 769.769 Q171.297 762.639 169.468 759.098 Q167.663 755.533 164.028 755.533 M164.028 751.829 Q169.839 751.829 172.894 756.436 Q175.973 761.019 175.973 769.769 Q175.973 778.496 172.894 783.102 Q169.839 787.686 164.028 787.686 Q158.218 787.686 155.14 783.102 Q152.084 778.496 152.084 769.769 Q152.084 761.019 155.14 756.436 Q158.218 751.829 164.028 751.829 Z" fill="#000000" fill-rule="nonzero" fill-opacity="1"></path><path clip-path="url(#clip810)" d="M184.19 781.135 L189.075 781.135 L189.075 787.014 L184.19 787.014 L184.19 781.135 Z" fill="#000000" fill-rule="nonzero" fill-opacity="1"></path><path clip-path="url(#clip810)" d="M212.107 756.528 L200.301 774.977 L212.107 774.977 L212.107 756.528 M210.88 752.454 L216.76 752.454 L216.76 774.977 L221.69 774.977 L221.69 778.866 L216.76 778.866 L216.76 787.014 L212.107 787.014 L212.107 778.866 L196.505 778.866 L196.505 774.352 L210.88 752.454 Z" fill="#000000" fill-rule="nonzero" fill-opacity="1"></path><path clip-path="url(#clip810)" d="M116.343 428.411 L146.019 428.411 L146.019 432.347 L116.343 432.347 L116.343 428.411 Z" fill="#000000" fill-rule="nonzero" fill-opacity="1"></path><path clip-path="url(#clip810)" d="M166.112 413.759 Q162.501 413.759 160.672 417.323 Q158.866 420.865 158.866 427.995 Q158.866 435.101 160.672 438.666 Q162.501 442.208 166.112 442.208 Q169.746 442.208 171.552 438.666 Q173.38 435.101 173.38 427.995 Q173.38 420.865 171.552 417.323 Q169.746 413.759 166.112 413.759 M166.112 410.055 Q171.922 410.055 174.977 414.661 Q178.056 419.245 178.056 427.995 Q178.056 436.722 174.977 441.328 Q171.922 445.911 166.112 445.911 Q160.302 445.911 157.223 441.328 Q154.167 436.722 154.167 427.995 Q154.167 419.245 157.223 414.661 Q160.302 410.055 166.112 410.055 Z" fill="#000000" fill-rule="nonzero" fill-opacity="1"></path><path clip-path="url(#clip810)" d="M186.274 439.36 L191.158 439.36 L191.158 445.24 L186.274 445.24 L186.274 439.36 Z" fill="#000000" fill-rule="nonzero" fill-opacity="1"></path><path clip-path="url(#clip810)" d="M205.371 441.305 L221.69 441.305 L221.69 445.24 L199.746 445.24 L199.746 441.305 Q202.408 438.55 206.991 433.921 Q211.598 429.268 212.778 427.925 Q215.024 425.402 215.903 423.666 Q216.806 421.907 216.806 420.217 Q216.806 417.462 214.861 415.726 Q212.94 413.99 209.838 413.99 Q207.639 413.99 205.186 414.754 Q202.755 415.518 199.977 417.069 L199.977 412.347 Q202.801 411.212 205.255 410.634 Q207.709 410.055 209.746 410.055 Q215.116 410.055 218.311 412.74 Q221.505 415.425 221.505 419.916 Q221.505 422.046 220.695 423.967 Q219.908 425.865 217.801 428.458 Q217.223 429.129 214.121 432.347 Q211.019 435.541 205.371 441.305 Z" fill="#000000" fill-rule="nonzero" fill-opacity="1"></path><path clip-path="url(#clip810)" d="M164.515 71.9844 Q160.903 71.9844 159.075 75.5492 Q157.269 79.0908 157.269 86.2204 Q157.269 93.3268 159.075 96.8916 Q160.903 100.433 164.515 100.433 Q168.149 100.433 169.954 96.8916 Q171.783 93.3268 171.783 86.2204 Q171.783 79.0908 169.954 75.5492 Q168.149 71.9844 164.515 71.9844 M164.515 68.2807 Q170.325 68.2807 173.38 72.8871 Q176.459 77.4704 176.459 86.2204 Q176.459 94.9472 173.38 99.5537 Q170.325 104.137 164.515 104.137 Q158.704 104.137 155.626 99.5537 Q152.57 94.9472 152.57 86.2204 Q152.57 77.4704 155.626 72.8871 Q158.704 68.2807 164.515 68.2807 Z" fill="#000000" fill-rule="nonzero" fill-opacity="1"></path><path clip-path="url(#clip810)" d="M184.676 97.5861 L189.561 97.5861 L189.561 103.466 L184.676 103.466 L184.676 97.5861 Z" fill="#000000" fill-rule="nonzero" fill-opacity="1"></path><path clip-path="url(#clip810)" d="M209.746 71.9844 Q206.135 71.9844 204.306 75.5492 Q202.5 79.0908 202.5 86.2204 Q202.5 93.3268 204.306 96.8916 Q206.135 100.433 209.746 100.433 Q213.38 100.433 215.186 96.8916 Q217.014 93.3268 217.014 86.2204 Q217.014 79.0908 215.186 75.5492 Q213.38 71.9844 209.746 71.9844 M209.746 68.2807 Q215.556 68.2807 218.611 72.8871 Q221.69 77.4704 221.69 86.2204 Q221.69 94.9472 218.611 99.5537 Q215.556 104.137 209.746 104.137 Q203.936 104.137 200.857 99.5537 Q197.801 94.9472 197.801 86.2204 Q197.801 77.4704 200.857 72.8871 Q203.936 68.2807 209.746 68.2807 Z" fill="#000000" fill-rule="nonzero" fill-opacity="1"></path><path clip-path="url(#clip810)" d="M21.7178 738.32 Q22.1687 738.32 23.2315 738.61 L48.4165 744.922 Q54.0203 746.307 57.9494 750.816 Q61.8785 755.293 61.8785 760.381 Q61.8785 763.441 60.236 765.405 Q58.6257 767.37 56.1459 767.37 Q53.9559 767.37 52.8931 766.21 Q51.8625 765.051 51.8625 763.666 Q51.8625 763.215 51.9913 762.732 Q52.1201 762.249 52.6676 761.734 Q53.2151 761.219 54.1491 761.219 Q55.6628 761.219 56.8544 762.539 Q57.4019 763.183 57.5307 763.795 Q57.6596 764.375 57.6596 765.373 Q58.5613 764.987 59.1732 764.278 Q59.7851 763.57 60.0106 762.764 Q60.2682 761.959 60.3326 761.444 Q60.4293 760.896 60.4293 760.381 Q60.4293 756.259 56.2747 753.103 Q55.0187 752.169 53.7626 751.492 Q52.5388 750.784 51.0252 750.269 Q49.5437 749.753 48.7385 749.528 Q47.9334 749.27 46.0977 748.819 Q49.0928 751.814 49.0928 755.486 Q49.0928 757.032 48.6741 758.417 Q48.2554 759.769 47.3859 760.961 Q46.4841 762.153 44.906 762.861 Q43.3279 763.537 41.2346 763.537 Q39.0124 763.537 35.985 762.668 Q32.9577 761.798 27.386 759.705 Q24.2621 758.578 22.7484 758.578 Q22.0077 758.578 21.5568 758.739 Q21.0737 758.9 20.9127 759.222 Q20.7194 759.544 20.6872 759.737 Q20.655 759.898 20.655 760.22 Q20.655 762.12 22.5874 763.892 Q24.5197 765.663 28.8353 766.887 Q29.6405 767.144 29.8337 767.305 Q30.0269 767.466 30.0269 767.95 Q29.9947 768.755 29.3506 768.755 Q29.093 768.755 28.0946 768.465 Q27.064 768.175 25.5503 767.499 Q24.0044 766.79 22.6196 765.824 Q21.2025 764.858 20.2041 763.344 Q19.2058 761.798 19.2058 760.027 Q19.2058 757.611 20.7838 756.13 Q22.3297 754.616 24.6163 754.616 Q25.5503 754.616 26.3877 754.874 Q27.1928 755.099 29.3506 755.937 Q38.0462 759.318 42.2974 759.318 Q43.3279 759.318 44.1975 759.157 Q45.0349 758.964 45.8722 758.545 Q46.6774 758.127 47.1604 757.289 Q47.6113 756.42 47.6113 755.228 Q47.6113 753.715 46.9028 752.298 Q46.1621 750.848 45.1637 749.946 Q44.1653 749.013 43.3279 748.465 Q42.4584 747.885 42.0075 747.756 L30.1558 744.794 L24.874 743.473 Q22.0077 742.861 21.2991 742.571 Q20.6228 742.185 20.2686 741.509 Q19.9143 740.832 19.9143 740.253 Q19.9143 739.447 20.3974 738.9 Q20.8805 738.32 21.7178 738.32 Z" fill="#000000" fill-rule="nonzero" fill-opacity="1"></path><path clip-path="url(#clip810)" d="M53.6652 731.574 L52.2224 731.574 Q52.2224 726.028 49.2691 723.165 Q49.2691 722.376 49.4494 722.241 Q49.6298 722.106 50.4639 722.106 L76.3671 722.106 Q77.7423 722.106 78.1706 721.429 Q78.599 720.753 78.599 717.8 L78.599 716.334 L80.0193 716.334 Q79.884 717.957 79.884 723.819 Q79.884 729.68 80.0193 731.281 L78.599 731.281 L78.599 729.816 Q78.599 726.907 78.1932 726.209 Q77.7648 725.51 76.3671 725.51 L52.4478 725.51 Q53.6652 727.922 53.6652 731.574 Z" fill="#000000" fill-rule="nonzero" fill-opacity="1"></path><polyline clip-path="url(#clip812)" style="stroke:#009af9; stroke-linecap:round; stroke-linejoin:round; stroke-width:4; stroke-opacity:1; fill:none" points="283.137,86.1857 312.387,705.717 341.637,1212.95 370.887,1384.24 400.137,1315.69 429.387,1160.43 458.636,1003.6 487.886,870.154 517.136,759.523 546.386,666.21 575.636,586.171 604.886,517.07 634.135,457.4 663.385,405.944 692.635,361.613 721.885,323.433 751.135,290.548 780.385,262.223 809.634,237.824 838.884,216.806 868.134,198.702 897.384,183.107 926.634,169.673 955.884,158.101 985.133,148.134 1014.38,139.547 1043.63,132.151 1072.88,125.78 1102.13,120.292 1131.38,115.565 "></polyline>
<polyline clip-path="url(#clip812)" style="stroke:#e26f46; stroke-linecap:round; stroke-linejoin:round; stroke-width:3; stroke-opacity:1; fill:none" stroke-dasharray="12, 6, 2, 6" points="283.137,86.1857 312.387,86.1857 341.637,503.033 370.887,722.579 400.137,731.476 429.387,653.126 458.636,565.455 487.886,492.413 517.136,434.045 546.386,385.818 575.636,344.635 604.886,309.009 634.135,278.177 663.385,251.562 692.635,228.629 721.885,208.88 751.135,191.873 780.385,177.225 809.634,164.607 838.884,153.738 868.134,144.375 897.384,136.309 926.634,129.362 955.884,123.378 985.133,118.223 1014.38,113.782 1043.63,109.957 1072.88,106.662 1102.13,103.824 1131.38,101.379 "></polyline>
<polyline clip-path="url(#clip812)" style="stroke:#3da44d; stroke-linecap:round; stroke-linejoin:round; stroke-width:3; stroke-opacity:1; fill:none" stroke-dasharray="12, 8" points="283.137,86.1857 312.387,86.1857 341.637,86.1857 370.887,86.1857 400.137,86.1857 429.387,86.1857 458.636,86.1857 487.886,86.1857 517.136,86.1857 546.386,86.1857 575.636,86.1857 604.886,86.1857 634.135,86.1857 663.385,86.1857 692.635,86.1857 721.885,86.1857 751.135,86.1857 780.385,86.1857 809.634,86.1857 838.884,86.1857 868.134,86.1857 897.384,86.1857 926.634,86.1857 955.884,86.1857 985.133,86.1857 1014.38,86.1857 1043.63,86.1857 1072.88,86.1857 1102.13,86.1857 1131.38,86.1857 "></polyline>
<path clip-path="url(#clip810)" d="M988.936 1377.32 L1126.86 1377.32 L1126.86 1169.96 L988.936 1169.96  Z" fill="#ffffff" fill-rule="evenodd" fill-opacity="1"></path>
<polyline clip-path="url(#clip810)" style="stroke:#000000; stroke-linecap:round; stroke-linejoin:round; stroke-width:4; stroke-opacity:1; fill:none" points="988.936,1377.32 1126.86,1377.32 1126.86,1169.96 988.936,1169.96 988.936,1377.32 "></polyline>
<polyline clip-path="url(#clip810)" style="stroke:#009af9; stroke-linecap:round; stroke-linejoin:round; stroke-width:4; stroke-opacity:1; fill:none" points="998.926,1221.8 1058.87,1221.8 "></polyline>
<path clip-path="url(#clip810)" d="M1095.63 1208.53 Q1094.16 1208.53 1093.41 1208.67 Q1092.66 1208.79 1092.47 1208.96 Q1092.28 1209.12 1092.07 1209.54 L1081.77 1231.46 Q1080.66 1233.81 1078.6 1235.49 Q1076.57 1237.18 1073.99 1237.18 Q1071.83 1237.18 1070.34 1235.87 Q1068.86 1234.58 1068.86 1232.75 Q1068.86 1231.44 1069.68 1230.69 Q1070.5 1229.97 1071.6 1229.97 Q1072.82 1229.97 1073.59 1230.74 Q1074.39 1231.51 1074.39 1232.71 Q1074.39 1233.48 1074.06 1234.06 Q1073.73 1234.67 1073.43 1234.88 Q1073.15 1235.12 1072.84 1235.26 Q1073.33 1235.45 1073.99 1235.45 Q1074.97 1235.45 1075.82 1235.05 Q1076.68 1234.67 1077.24 1234.16 Q1077.83 1233.67 1078.42 1232.78 Q1079 1231.91 1079.28 1231.35 Q1079.56 1230.81 1079.99 1229.87 L1081.09 1227.58 L1072.12 1208.53 L1069.05 1208.53 L1069.05 1206.29 L1074.53 1206.43 L1080.48 1206.29 L1080.48 1208.53 L1077.88 1208.53 L1083.97 1221.49 L1089.49 1209.68 L1089.73 1209.12 Q1089.73 1208.86 1089.17 1208.72 Q1088.6 1208.56 1088.04 1208.56 L1087.48 1208.53 L1087.48 1206.29 L1091.84 1206.43 Q1093.9 1206.43 1095.63 1206.29 L1095.63 1208.53 Z" fill="#000000" fill-rule="nonzero" fill-opacity="1"></path><polyline clip-path="url(#clip810)" style="stroke:#e26f46; stroke-linecap:round; stroke-linejoin:round; stroke-width:3; stroke-opacity:1; fill:none" stroke-dasharray="12, 6, 2, 6" points="998.926,1273.64 1058.87,1273.64 "></polyline>
<path clip-path="url(#clip810)" d="M1091.44 1257.36 L1091.04 1258.03 Q1088.49 1256.93 1085.33 1255.17 Q1082.16 1256.93 1079.62 1258.03 L1079.23 1257.36 Q1082 1254.95 1085.33 1253.09 Q1088.69 1254.96 1091.44 1257.36 Z" fill="#000000" fill-rule="nonzero" fill-opacity="1"></path><path clip-path="url(#clip810)" d="M1095.63 1265.38 Q1094.16 1265.38 1093.41 1265.52 Q1092.66 1265.64 1092.47 1265.8 Q1092.28 1265.96 1092.07 1266.39 L1081.77 1288.31 Q1080.66 1290.65 1078.6 1292.34 Q1076.57 1294.02 1073.99 1294.02 Q1071.83 1294.02 1070.34 1292.71 Q1068.86 1291.42 1068.86 1289.6 Q1068.86 1288.29 1069.68 1287.54 Q1070.5 1286.81 1071.6 1286.81 Q1072.82 1286.81 1073.59 1287.58 Q1074.39 1288.36 1074.39 1289.55 Q1074.39 1290.32 1074.06 1290.91 Q1073.73 1291.52 1073.43 1291.73 Q1073.15 1291.96 1072.84 1292.1 Q1073.33 1292.29 1073.99 1292.29 Q1074.97 1292.29 1075.82 1291.89 Q1076.68 1291.52 1077.24 1291 Q1077.83 1290.51 1078.42 1289.62 Q1079 1288.75 1079.28 1288.19 Q1079.56 1287.65 1079.99 1286.72 L1081.09 1284.42 L1072.12 1265.38 L1069.05 1265.38 L1069.05 1263.13 L1074.53 1263.27 L1080.48 1263.13 L1080.48 1265.38 L1077.88 1265.38 L1083.97 1278.33 L1089.49 1266.53 L1089.73 1265.96 Q1089.73 1265.71 1089.17 1265.57 Q1088.6 1265.4 1088.04 1265.4 L1087.48 1265.38 L1087.48 1263.13 L1091.84 1263.27 Q1093.9 1263.27 1095.63 1263.13 L1095.63 1265.38 Z" fill="#000000" fill-rule="nonzero" fill-opacity="1"></path><polyline clip-path="url(#clip810)" style="stroke:#3da44d; stroke-linecap:round; stroke-linejoin:round; stroke-width:3; stroke-opacity:1; fill:none" stroke-dasharray="12, 8" points="998.926,1325.48 1058.87,1325.48 "></polyline>
<path clip-path="url(#clip810)" d="M1088.28 1310.75 Q1088.28 1312.11 1087.39 1312.91 Q1086.5 1313.68 1085.35 1313.68 Q1084.2 1313.68 1083.31 1312.91 Q1082.42 1312.14 1082.42 1310.75 Q1082.42 1310.14 1082.63 1309.61 Q1082.87 1309.04 1083.1 1308.79 L1083.33 1308.55 Q1081.95 1308.55 1080.88 1309.21 Q1079.8 1309.84 1079.14 1310.82 Q1078.49 1311.81 1078.06 1313.1 Q1077.64 1314.36 1077.48 1315.51 Q1077.34 1316.66 1077.34 1317.76 L1077.34 1326.17 L1081.51 1326.17 L1081.51 1328.41 Q1079.77 1328.27 1074.9 1328.27 L1068.86 1328.41 L1068.86 1326.17 L1072.16 1326.17 L1072.16 1311.34 Q1072.16 1309.98 1071.67 1309.72 Q1071.18 1309.46 1068.86 1309.46 L1068.86 1307.22 L1076.82 1306.82 L1076.82 1312.25 Q1078.81 1306.82 1083.19 1306.82 Q1085.21 1306.82 1086.73 1307.9 Q1088.28 1308.95 1088.28 1310.75 Z" fill="#000000" fill-rule="nonzero" fill-opacity="1"></path><path clip-path="url(#clip810)" d="M1111.94 1323.94 Q1110.91 1323.94 1110.38 1324.04 Q1109.86 1324.12 1109.73 1324.23 Q1109.59 1324.35 1109.45 1324.64 L1102.23 1339.99 Q1101.46 1341.63 1100.02 1342.81 Q1098.59 1343.99 1096.79 1343.99 Q1095.28 1343.99 1094.23 1343.07 Q1093.2 1342.17 1093.2 1340.89 Q1093.2 1339.97 1093.77 1339.45 Q1094.35 1338.94 1095.12 1338.94 Q1095.97 1338.94 1096.51 1339.48 Q1097.07 1340.02 1097.07 1340.86 Q1097.07 1341.4 1096.84 1341.81 Q1096.61 1342.23 1096.4 1342.38 Q1096.2 1342.55 1095.99 1342.64 Q1096.33 1342.78 1096.79 1342.78 Q1097.48 1342.78 1098.07 1342.5 Q1098.67 1342.23 1099.07 1341.87 Q1099.48 1341.53 1099.89 1340.91 Q1100.3 1340.3 1100.49 1339.91 Q1100.69 1339.53 1100.99 1338.87 L1101.76 1337.27 L1095.48 1323.94 L1093.33 1323.94 L1093.33 1322.36 L1097.17 1322.46 L1101.33 1322.36 L1101.33 1323.94 L1099.51 1323.94 L1103.77 1333 L1107.64 1324.74 L1107.81 1324.35 Q1107.81 1324.17 1107.41 1324.07 Q1107.02 1323.95 1106.63 1323.95 L1106.23 1323.94 L1106.23 1322.36 L1109.28 1322.46 Q1110.73 1322.46 1111.94 1322.36 L1111.94 1323.94 Z" fill="#000000" fill-rule="nonzero" fill-opacity="1"></path><path clip-path="url(#clip810)" d="M1453.62 1423.18 L2352.76 1423.18 L2352.76 47.2441 L1453.62 47.2441  Z" fill="#ffffff" fill-rule="evenodd" fill-opacity="1"></path>
<defs>
  <clipPath id="clip813">
    <rect x="1453" y="47" width="900" height="1377"></rect>
  </clipPath>
</defs>
<polyline clip-path="url(#clip813)" style="stroke:#000000; stroke-linecap:round; stroke-linejoin:round; stroke-width:2; stroke-opacity:0.1; fill:none" points="1479.06,1423.18 1479.06,47.2441 "></polyline>
<polyline clip-path="url(#clip813)" style="stroke:#000000; stroke-linecap:round; stroke-linejoin:round; stroke-width:2; stroke-opacity:0.1; fill:none" points="1625.31,1423.18 1625.31,47.2441 "></polyline>
<polyline clip-path="url(#clip813)" style="stroke:#000000; stroke-linecap:round; stroke-linejoin:round; stroke-width:2; stroke-opacity:0.1; fill:none" points="1771.56,1423.18 1771.56,47.2441 "></polyline>
<polyline clip-path="url(#clip813)" style="stroke:#000000; stroke-linecap:round; stroke-linejoin:round; stroke-width:2; stroke-opacity:0.1; fill:none" points="1917.81,1423.18 1917.81,47.2441 "></polyline>
<polyline clip-path="url(#clip813)" style="stroke:#000000; stroke-linecap:round; stroke-linejoin:round; stroke-width:2; stroke-opacity:0.1; fill:none" points="2064.06,1423.18 2064.06,47.2441 "></polyline>
<polyline clip-path="url(#clip813)" style="stroke:#000000; stroke-linecap:round; stroke-linejoin:round; stroke-width:2; stroke-opacity:0.1; fill:none" points="2210.31,1423.18 2210.31,47.2441 "></polyline>
<polyline clip-path="url(#clip810)" style="stroke:#000000; stroke-linecap:round; stroke-linejoin:round; stroke-width:4; stroke-opacity:1; fill:none" points="1453.62,1423.18 2352.76,1423.18 "></polyline>
<polyline clip-path="url(#clip810)" style="stroke:#000000; stroke-linecap:round; stroke-linejoin:round; stroke-width:4; stroke-opacity:1; fill:none" points="1479.06,1423.18 1479.06,1404.28 "></polyline>
<polyline clip-path="url(#clip810)" style="stroke:#000000; stroke-linecap:round; stroke-linejoin:round; stroke-width:4; stroke-opacity:1; fill:none" points="1625.31,1423.18 1625.31,1404.28 "></polyline>
<polyline clip-path="url(#clip810)" style="stroke:#000000; stroke-linecap:round; stroke-linejoin:round; stroke-width:4; stroke-opacity:1; fill:none" points="1771.56,1423.18 1771.56,1404.28 "></polyline>
<polyline clip-path="url(#clip810)" style="stroke:#000000; stroke-linecap:round; stroke-linejoin:round; stroke-width:4; stroke-opacity:1; fill:none" points="1917.81,1423.18 1917.81,1404.28 "></polyline>
<polyline clip-path="url(#clip810)" style="stroke:#000000; stroke-linecap:round; stroke-linejoin:round; stroke-width:4; stroke-opacity:1; fill:none" points="2064.06,1423.18 2064.06,1404.28 "></polyline>
<polyline clip-path="url(#clip810)" style="stroke:#000000; stroke-linecap:round; stroke-linejoin:round; stroke-width:4; stroke-opacity:1; fill:none" points="2210.31,1423.18 2210.31,1404.28 "></polyline>
<path clip-path="url(#clip810)" d="M1479.06 1454.1 Q1475.45 1454.1 1473.62 1457.66 Q1471.82 1461.2 1471.82 1468.33 Q1471.82 1475.44 1473.62 1479.01 Q1475.45 1482.55 1479.06 1482.55 Q1482.7 1482.55 1484.5 1479.01 Q1486.33 1475.44 1486.33 1468.33 Q1486.33 1461.2 1484.5 1457.66 Q1482.7 1454.1 1479.06 1454.1 M1479.06 1450.39 Q1484.87 1450.39 1487.93 1455 Q1491.01 1459.58 1491.01 1468.33 Q1491.01 1477.06 1487.93 1481.67 Q1484.87 1486.25 1479.06 1486.25 Q1473.25 1486.25 1470.17 1481.67 Q1467.12 1477.06 1467.12 1468.33 Q1467.12 1459.58 1470.17 1455 Q1473.25 1450.39 1479.06 1450.39 Z" fill="#000000" fill-rule="nonzero" fill-opacity="1"></path><path clip-path="url(#clip810)" d="M1615.59 1451.02 L1633.95 1451.02 L1633.95 1454.96 L1619.87 1454.96 L1619.87 1463.43 Q1620.89 1463.08 1621.91 1462.92 Q1622.93 1462.73 1623.95 1462.73 Q1629.73 1462.73 1633.11 1465.9 Q1636.49 1469.08 1636.49 1474.49 Q1636.49 1480.07 1633.02 1483.17 Q1629.55 1486.25 1623.23 1486.25 Q1621.05 1486.25 1618.78 1485.88 Q1616.54 1485.51 1614.13 1484.77 L1614.13 1480.07 Q1616.22 1481.2 1618.44 1481.76 Q1620.66 1482.32 1623.14 1482.32 Q1627.14 1482.32 1629.48 1480.21 Q1631.82 1478.1 1631.82 1474.49 Q1631.82 1470.88 1629.48 1468.77 Q1627.14 1466.67 1623.14 1466.67 Q1621.26 1466.67 1619.39 1467.08 Q1617.53 1467.5 1615.59 1468.38 L1615.59 1451.02 Z" fill="#000000" fill-rule="nonzero" fill-opacity="1"></path><path clip-path="url(#clip810)" d="M1746.25 1481.64 L1753.89 1481.64 L1753.89 1455.28 L1745.58 1456.95 L1745.58 1452.69 L1753.84 1451.02 L1758.52 1451.02 L1758.52 1481.64 L1766.16 1481.64 L1766.16 1485.58 L1746.25 1485.58 L1746.25 1481.64 Z" fill="#000000" fill-rule="nonzero" fill-opacity="1"></path><path clip-path="url(#clip810)" d="M1785.6 1454.1 Q1781.99 1454.1 1780.16 1457.66 Q1778.36 1461.2 1778.36 1468.33 Q1778.36 1475.44 1780.16 1479.01 Q1781.99 1482.55 1785.6 1482.55 Q1789.24 1482.55 1791.04 1479.01 Q1792.87 1475.44 1792.87 1468.33 Q1792.87 1461.2 1791.04 1457.66 Q1789.24 1454.1 1785.6 1454.1 M1785.6 1450.39 Q1791.41 1450.39 1794.47 1455 Q1797.55 1459.58 1797.55 1468.33 Q1797.55 1477.06 1794.47 1481.67 Q1791.41 1486.25 1785.6 1486.25 Q1779.79 1486.25 1776.71 1481.67 Q1773.66 1477.06 1773.66 1468.33 Q1773.66 1459.58 1776.71 1455 Q1779.79 1450.39 1785.6 1450.39 Z" fill="#000000" fill-rule="nonzero" fill-opacity="1"></path><path clip-path="url(#clip810)" d="M1893 1481.64 L1900.64 1481.64 L1900.64 1455.28 L1892.32 1456.95 L1892.32 1452.69 L1900.59 1451.02 L1905.26 1451.02 L1905.26 1481.64 L1912.9 1481.64 L1912.9 1485.58 L1893 1485.58 L1893 1481.64 Z" fill="#000000" fill-rule="nonzero" fill-opacity="1"></path><path clip-path="url(#clip810)" d="M1922.39 1451.02 L1940.75 1451.02 L1940.75 1454.96 L1926.68 1454.96 L1926.68 1463.43 Q1927.7 1463.08 1928.71 1462.92 Q1929.73 1462.73 1930.75 1462.73 Q1936.54 1462.73 1939.92 1465.9 Q1943.3 1469.08 1943.3 1474.49 Q1943.3 1480.07 1939.82 1483.17 Q1936.35 1486.25 1930.03 1486.25 Q1927.86 1486.25 1925.59 1485.88 Q1923.34 1485.51 1920.94 1484.77 L1920.94 1480.07 Q1923.02 1481.2 1925.24 1481.76 Q1927.46 1482.32 1929.94 1482.32 Q1933.95 1482.32 1936.28 1480.21 Q1938.62 1478.1 1938.62 1474.49 Q1938.62 1470.88 1936.28 1468.77 Q1933.95 1466.67 1929.94 1466.67 Q1928.07 1466.67 1926.19 1467.08 Q1924.34 1467.5 1922.39 1468.38 L1922.39 1451.02 Z" fill="#000000" fill-rule="nonzero" fill-opacity="1"></path><path clip-path="url(#clip810)" d="M2042.83 1481.64 L2059.15 1481.64 L2059.15 1485.58 L2037.21 1485.58 L2037.21 1481.64 Q2039.87 1478.89 2044.45 1474.26 Q2049.06 1469.61 2050.24 1468.27 Q2052.49 1465.74 2053.37 1464.01 Q2054.27 1462.25 2054.27 1460.56 Q2054.27 1457.8 2052.32 1456.07 Q2050.4 1454.33 2047.3 1454.33 Q2045.1 1454.33 2042.65 1455.09 Q2040.22 1455.86 2037.44 1457.41 L2037.44 1452.69 Q2040.26 1451.55 2042.72 1450.97 Q2045.17 1450.39 2047.21 1450.39 Q2052.58 1450.39 2055.77 1453.08 Q2058.97 1455.77 2058.97 1460.26 Q2058.97 1462.39 2058.16 1464.31 Q2057.37 1466.2 2055.26 1468.8 Q2054.69 1469.47 2051.58 1472.69 Q2048.48 1475.88 2042.83 1481.64 Z" fill="#000000" fill-rule="nonzero" fill-opacity="1"></path><path clip-path="url(#clip810)" d="M2078.97 1454.1 Q2075.36 1454.1 2073.53 1457.66 Q2071.72 1461.2 2071.72 1468.33 Q2071.72 1475.44 2073.53 1479.01 Q2075.36 1482.55 2078.97 1482.55 Q2082.6 1482.55 2084.41 1479.01 Q2086.24 1475.44 2086.24 1468.33 Q2086.24 1461.2 2084.41 1457.66 Q2082.6 1454.1 2078.97 1454.1 M2078.97 1450.39 Q2084.78 1450.39 2087.83 1455 Q2090.91 1459.58 2090.91 1468.33 Q2090.91 1477.06 2087.83 1481.67 Q2084.78 1486.25 2078.97 1486.25 Q2073.16 1486.25 2070.08 1481.67 Q2067.02 1477.06 2067.02 1468.33 Q2067.02 1459.58 2070.08 1455 Q2073.16 1450.39 2078.97 1450.39 Z" fill="#000000" fill-rule="nonzero" fill-opacity="1"></path><path clip-path="url(#clip810)" d="M2189.58 1481.64 L2205.9 1481.64 L2205.9 1485.58 L2183.96 1485.58 L2183.96 1481.64 Q2186.62 1478.89 2191.2 1474.26 Q2195.81 1469.61 2196.99 1468.27 Q2199.23 1465.74 2200.11 1464.01 Q2201.02 1462.25 2201.02 1460.56 Q2201.02 1457.8 2199.07 1456.07 Q2197.15 1454.33 2194.05 1454.33 Q2191.85 1454.33 2189.39 1455.09 Q2186.96 1455.86 2184.19 1457.41 L2184.19 1452.69 Q2187.01 1451.55 2189.46 1450.97 Q2191.92 1450.39 2193.96 1450.39 Q2199.33 1450.39 2202.52 1453.08 Q2205.71 1455.77 2205.71 1460.26 Q2205.71 1462.39 2204.9 1464.31 Q2204.12 1466.2 2202.01 1468.8 Q2201.43 1469.47 2198.33 1472.69 Q2195.23 1475.88 2189.58 1481.64 Z" fill="#000000" fill-rule="nonzero" fill-opacity="1"></path><path clip-path="url(#clip810)" d="M2215.76 1451.02 L2234.12 1451.02 L2234.12 1454.96 L2220.04 1454.96 L2220.04 1463.43 Q2221.06 1463.08 2222.08 1462.92 Q2223.1 1462.73 2224.12 1462.73 Q2229.9 1462.73 2233.28 1465.9 Q2236.66 1469.08 2236.66 1474.49 Q2236.66 1480.07 2233.19 1483.17 Q2229.72 1486.25 2223.4 1486.25 Q2221.22 1486.25 2218.96 1485.88 Q2216.71 1485.51 2214.3 1484.77 L2214.3 1480.07 Q2216.39 1481.2 2218.61 1481.76 Q2220.83 1482.32 2223.31 1482.32 Q2227.31 1482.32 2229.65 1480.21 Q2231.99 1478.1 2231.99 1474.49 Q2231.99 1470.88 2229.65 1468.77 Q2227.31 1466.67 2223.31 1466.67 Q2221.43 1466.67 2219.56 1467.08 Q2217.71 1467.5 2215.76 1468.38 L2215.76 1451.02 Z" fill="#000000" fill-rule="nonzero" fill-opacity="1"></path><path clip-path="url(#clip810)" d="M1773.36 1520.52 L1813.56 1520.52 L1813.56 1525.93 L1796.69 1525.93 L1796.69 1568.04 L1790.23 1568.04 L1790.23 1525.93 L1773.36 1525.93 L1773.36 1520.52 Z" fill="#000000" fill-rule="nonzero" fill-opacity="1"></path><path clip-path="url(#clip810)" d="M1817.5 1532.4 L1823.36 1532.4 L1823.36 1568.04 L1817.5 1568.04 L1817.5 1532.4 M1817.5 1518.52 L1823.36 1518.52 L1823.36 1525.93 L1817.5 1525.93 L1817.5 1518.52 Z" fill="#000000" fill-rule="nonzero" fill-opacity="1"></path><path clip-path="url(#clip810)" d="M1863.37 1539.24 Q1865.56 1535.29 1868.62 1533.41 Q1871.68 1531.54 1875.81 1531.54 Q1881.38 1531.54 1884.41 1535.45 Q1887.43 1539.33 1887.43 1546.53 L1887.43 1568.04 L1881.54 1568.04 L1881.54 1546.72 Q1881.54 1541.59 1879.73 1539.11 Q1877.91 1536.63 1874.19 1536.63 Q1869.64 1536.63 1867 1539.65 Q1864.36 1542.68 1864.36 1547.9 L1864.36 1568.04 L1858.47 1568.04 L1858.47 1546.72 Q1858.47 1541.56 1856.65 1539.11 Q1854.84 1536.63 1851.05 1536.63 Q1846.56 1536.63 1843.92 1539.68 Q1841.28 1542.71 1841.28 1547.9 L1841.28 1568.04 L1835.39 1568.04 L1835.39 1532.4 L1841.28 1532.4 L1841.28 1537.93 Q1843.28 1534.66 1846.09 1533.1 Q1848.89 1531.54 1852.74 1531.54 Q1856.62 1531.54 1859.33 1533.51 Q1862.06 1535.48 1863.37 1539.24 Z" fill="#000000" fill-rule="nonzero" fill-opacity="1"></path><path clip-path="url(#clip810)" d="M1929.6 1548.76 L1929.6 1551.62 L1902.68 1551.62 Q1903.06 1557.67 1906.31 1560.85 Q1909.58 1564 1915.41 1564 Q1918.78 1564 1921.93 1563.17 Q1925.12 1562.35 1928.24 1560.69 L1928.24 1566.23 Q1925.08 1567.57 1921.77 1568.27 Q1918.46 1568.97 1915.06 1568.97 Q1906.53 1568.97 1901.53 1564 Q1896.57 1559.04 1896.57 1550.57 Q1896.57 1541.82 1901.28 1536.69 Q1906.02 1531.54 1914.04 1531.54 Q1921.23 1531.54 1925.4 1536.18 Q1929.6 1540.8 1929.6 1548.76 M1923.75 1547.04 Q1923.68 1542.23 1921.04 1539.37 Q1918.43 1536.5 1914.1 1536.5 Q1909.2 1536.5 1906.24 1539.27 Q1903.31 1542.04 1902.87 1547.07 L1923.75 1547.04 Z" fill="#000000" fill-rule="nonzero" fill-opacity="1"></path><path clip-path="url(#clip810)" d="M1974 1518.58 Q1969.74 1525.9 1967.67 1533.06 Q1965.6 1540.23 1965.6 1547.58 Q1965.6 1554.93 1967.67 1562.16 Q1969.77 1569.35 1974 1576.64 L1968.91 1576.64 Q1964.14 1569.16 1961.75 1561.93 Q1959.4 1554.71 1959.4 1547.58 Q1959.4 1540.48 1961.75 1533.29 Q1964.11 1526.09 1968.91 1518.58 L1974 1518.58 Z" fill="#000000" fill-rule="nonzero" fill-opacity="1"></path><path clip-path="url(#clip810)" d="M2008.09 1533.45 L2008.09 1538.98 Q2005.61 1537.71 2002.94 1537.07 Q2000.26 1536.44 1997.4 1536.44 Q1993.04 1536.44 1990.84 1537.77 Q1988.68 1539.11 1988.68 1541.79 Q1988.68 1543.82 1990.24 1545 Q1991.8 1546.15 1996.51 1547.2 L1998.51 1547.64 Q2004.75 1548.98 2007.36 1551.43 Q2010 1553.85 2010 1558.21 Q2010 1563.17 2006.06 1566.07 Q2002.14 1568.97 1995.27 1568.97 Q1992.4 1568.97 1989.28 1568.39 Q1986.19 1567.85 1982.76 1566.74 L1982.76 1560.69 Q1986 1562.38 1989.15 1563.24 Q1992.31 1564.07 1995.39 1564.07 Q1999.53 1564.07 2001.76 1562.66 Q2003.99 1561.23 2003.99 1558.65 Q2003.99 1556.27 2002.36 1554.99 Q2000.77 1553.72 1995.33 1552.54 L1993.29 1552.07 Q1987.85 1550.92 1985.43 1548.56 Q1983.01 1546.18 1983.01 1542.04 Q1983.01 1537.01 1986.58 1534.27 Q1990.14 1531.54 1996.7 1531.54 Q1999.94 1531.54 2002.81 1532.01 Q2005.67 1532.49 2008.09 1533.45 Z" fill="#000000" fill-rule="nonzero" fill-opacity="1"></path><path clip-path="url(#clip810)" d="M2018.41 1518.58 L2023.5 1518.58 Q2028.27 1526.09 2030.63 1533.29 Q2033.01 1540.48 2033.01 1547.58 Q2033.01 1554.71 2030.63 1561.93 Q2028.27 1569.16 2023.5 1576.64 L2018.41 1576.64 Q2022.64 1569.35 2024.71 1562.16 Q2026.81 1554.93 2026.81 1547.58 Q2026.81 1540.23 2024.71 1533.06 Q2022.64 1525.9 2018.41 1518.58 Z" fill="#000000" fill-rule="nonzero" fill-opacity="1"></path><polyline clip-path="url(#clip813)" style="stroke:#000000; stroke-linecap:round; stroke-linejoin:round; stroke-width:2; stroke-opacity:0.1; fill:none" points="1453.62,1384.24 2352.76,1384.24 "></polyline>
<polyline clip-path="url(#clip813)" style="stroke:#000000; stroke-linecap:round; stroke-linejoin:round; stroke-width:2; stroke-opacity:0.1; fill:none" points="1453.62,1059.73 2352.76,1059.73 "></polyline>
<polyline clip-path="url(#clip813)" style="stroke:#000000; stroke-linecap:round; stroke-linejoin:round; stroke-width:2; stroke-opacity:0.1; fill:none" points="1453.62,735.212 2352.76,735.212 "></polyline>
<polyline clip-path="url(#clip813)" style="stroke:#000000; stroke-linecap:round; stroke-linejoin:round; stroke-width:2; stroke-opacity:0.1; fill:none" points="1453.62,410.699 2352.76,410.699 "></polyline>
<polyline clip-path="url(#clip813)" style="stroke:#000000; stroke-linecap:round; stroke-linejoin:round; stroke-width:2; stroke-opacity:0.1; fill:none" points="1453.62,86.1857 2352.76,86.1857 "></polyline>
<polyline clip-path="url(#clip810)" style="stroke:#000000; stroke-linecap:round; stroke-linejoin:round; stroke-width:4; stroke-opacity:1; fill:none" points="1453.62,1423.18 1453.62,47.2441 "></polyline>
<polyline clip-path="url(#clip810)" style="stroke:#000000; stroke-linecap:round; stroke-linejoin:round; stroke-width:4; stroke-opacity:1; fill:none" points="1453.62,1384.24 1472.51,1384.24 "></polyline>
<polyline clip-path="url(#clip810)" style="stroke:#000000; stroke-linecap:round; stroke-linejoin:round; stroke-width:4; stroke-opacity:1; fill:none" points="1453.62,1059.73 1472.51,1059.73 "></polyline>
<polyline clip-path="url(#clip810)" style="stroke:#000000; stroke-linecap:round; stroke-linejoin:round; stroke-width:4; stroke-opacity:1; fill:none" points="1453.62,735.212 1472.51,735.212 "></polyline>
<polyline clip-path="url(#clip810)" style="stroke:#000000; stroke-linecap:round; stroke-linejoin:round; stroke-width:4; stroke-opacity:1; fill:none" points="1453.62,410.699 1472.51,410.699 "></polyline>
<polyline clip-path="url(#clip810)" style="stroke:#000000; stroke-linecap:round; stroke-linejoin:round; stroke-width:4; stroke-opacity:1; fill:none" points="1453.62,86.1857 1472.51,86.1857 "></polyline>
<path clip-path="url(#clip810)" d="M1330.28 1370.04 Q1326.67 1370.04 1324.84 1373.6 Q1323.03 1377.14 1323.03 1384.27 Q1323.03 1391.38 1324.84 1394.94 Q1326.67 1398.49 1330.28 1398.49 Q1333.91 1398.49 1335.72 1394.94 Q1337.55 1391.38 1337.55 1384.27 Q1337.55 1377.14 1335.72 1373.6 Q1333.91 1370.04 1330.28 1370.04 M1330.28 1366.33 Q1336.09 1366.33 1339.14 1370.94 Q1342.22 1375.52 1342.22 1384.27 Q1342.22 1393 1339.14 1397.61 Q1336.09 1402.19 1330.28 1402.19 Q1324.47 1402.19 1321.39 1397.61 Q1318.33 1393 1318.33 1384.27 Q1318.33 1375.52 1321.39 1370.94 Q1324.47 1366.33 1330.28 1366.33 Z" fill="#000000" fill-rule="nonzero" fill-opacity="1"></path><path clip-path="url(#clip810)" d="M1350.44 1395.64 L1355.32 1395.64 L1355.32 1401.52 L1350.44 1401.52 L1350.44 1395.64 Z" fill="#000000" fill-rule="nonzero" fill-opacity="1"></path><path clip-path="url(#clip810)" d="M1375.51 1370.04 Q1371.9 1370.04 1370.07 1373.6 Q1368.26 1377.14 1368.26 1384.27 Q1368.26 1391.38 1370.07 1394.94 Q1371.9 1398.49 1375.51 1398.49 Q1379.14 1398.49 1380.95 1394.94 Q1382.78 1391.38 1382.78 1384.27 Q1382.78 1377.14 1380.95 1373.6 Q1379.14 1370.04 1375.51 1370.04 M1375.51 1366.33 Q1381.32 1366.33 1384.38 1370.94 Q1387.45 1375.52 1387.45 1384.27 Q1387.45 1393 1384.38 1397.61 Q1381.32 1402.19 1375.51 1402.19 Q1369.7 1402.19 1366.62 1397.61 Q1363.57 1393 1363.57 1384.27 Q1363.57 1375.52 1366.62 1370.94 Q1369.7 1366.33 1375.51 1366.33 Z" fill="#000000" fill-rule="nonzero" fill-opacity="1"></path><path clip-path="url(#clip810)" d="M1405.67 1370.04 Q1402.06 1370.04 1400.23 1373.6 Q1398.43 1377.14 1398.43 1384.27 Q1398.43 1391.38 1400.23 1394.94 Q1402.06 1398.49 1405.67 1398.49 Q1409.31 1398.49 1411.11 1394.94 Q1412.94 1391.38 1412.94 1384.27 Q1412.94 1377.14 1411.11 1373.6 Q1409.31 1370.04 1405.67 1370.04 M1405.67 1366.33 Q1411.48 1366.33 1414.54 1370.94 Q1417.62 1375.52 1417.62 1384.27 Q1417.62 1393 1414.54 1397.61 Q1411.48 1402.19 1405.67 1402.19 Q1399.86 1402.19 1396.78 1397.61 Q1393.73 1393 1393.73 1384.27 Q1393.73 1375.52 1396.78 1370.94 Q1399.86 1366.33 1405.67 1366.33 Z" fill="#000000" fill-rule="nonzero" fill-opacity="1"></path><path clip-path="url(#clip810)" d="M1331.27 1045.52 Q1327.66 1045.52 1325.83 1049.09 Q1324.03 1052.63 1324.03 1059.76 Q1324.03 1066.87 1325.83 1070.43 Q1327.66 1073.97 1331.27 1073.97 Q1334.91 1073.97 1336.71 1070.43 Q1338.54 1066.87 1338.54 1059.76 Q1338.54 1052.63 1336.71 1049.09 Q1334.91 1045.52 1331.27 1045.52 M1331.27 1041.82 Q1337.08 1041.82 1340.14 1046.43 Q1343.22 1051.01 1343.22 1059.76 Q1343.22 1068.49 1340.14 1073.09 Q1337.08 1077.68 1331.27 1077.68 Q1325.46 1077.68 1322.39 1073.09 Q1319.33 1068.49 1319.33 1059.76 Q1319.33 1051.01 1322.39 1046.43 Q1325.46 1041.82 1331.27 1041.82 Z" fill="#000000" fill-rule="nonzero" fill-opacity="1"></path><path clip-path="url(#clip810)" d="M1351.44 1071.13 L1356.32 1071.13 L1356.32 1077.01 L1351.44 1077.01 L1351.44 1071.13 Z" fill="#000000" fill-rule="nonzero" fill-opacity="1"></path><path clip-path="url(#clip810)" d="M1370.53 1073.07 L1386.85 1073.07 L1386.85 1077.01 L1364.91 1077.01 L1364.91 1073.07 Q1367.57 1070.32 1372.15 1065.69 Q1376.76 1061.03 1377.94 1059.69 Q1380.19 1057.17 1381.07 1055.43 Q1381.97 1053.67 1381.97 1051.98 Q1381.97 1049.23 1380.02 1047.49 Q1378.1 1045.76 1375 1045.76 Q1372.8 1045.76 1370.35 1046.52 Q1367.92 1047.28 1365.14 1048.83 L1365.14 1044.11 Q1367.96 1042.98 1370.42 1042.4 Q1372.87 1041.82 1374.91 1041.82 Q1380.28 1041.82 1383.47 1044.51 Q1386.67 1047.19 1386.67 1051.68 Q1386.67 1053.81 1385.86 1055.73 Q1385.07 1057.63 1382.96 1060.22 Q1382.38 1060.89 1379.28 1064.11 Q1376.18 1067.31 1370.53 1073.07 Z" fill="#000000" fill-rule="nonzero" fill-opacity="1"></path><path clip-path="url(#clip810)" d="M1396.71 1042.45 L1415.07 1042.45 L1415.07 1046.38 L1401 1046.38 L1401 1054.85 Q1402.01 1054.51 1403.03 1054.34 Q1404.05 1054.16 1405.07 1054.16 Q1410.86 1054.16 1414.24 1057.33 Q1417.62 1060.5 1417.62 1065.92 Q1417.62 1071.5 1414.14 1074.6 Q1410.67 1077.68 1404.35 1077.68 Q1402.18 1077.68 1399.91 1077.31 Q1397.66 1076.94 1395.26 1076.19 L1395.26 1071.5 Q1397.34 1072.63 1399.56 1073.19 Q1401.78 1073.74 1404.26 1073.74 Q1408.26 1073.74 1410.6 1071.63 Q1412.94 1069.53 1412.94 1065.92 Q1412.94 1062.31 1410.6 1060.2 Q1408.26 1058.09 1404.26 1058.09 Q1402.38 1058.09 1400.51 1058.51 Q1398.66 1058.93 1396.71 1059.81 L1396.71 1042.45 Z" fill="#000000" fill-rule="nonzero" fill-opacity="1"></path><path clip-path="url(#clip810)" d="M1330.28 721.011 Q1326.67 721.011 1324.84 724.575 Q1323.03 728.117 1323.03 735.247 Q1323.03 742.353 1324.84 745.918 Q1326.67 749.46 1330.28 749.46 Q1333.91 749.46 1335.72 745.918 Q1337.55 742.353 1337.55 735.247 Q1337.55 728.117 1335.72 724.575 Q1333.91 721.011 1330.28 721.011 M1330.28 717.307 Q1336.09 717.307 1339.14 721.913 Q1342.22 726.497 1342.22 735.247 Q1342.22 743.973 1339.14 748.58 Q1336.09 753.163 1330.28 753.163 Q1324.47 753.163 1321.39 748.58 Q1318.33 743.973 1318.33 735.247 Q1318.33 726.497 1321.39 721.913 Q1324.47 717.307 1330.28 717.307 Z" fill="#000000" fill-rule="nonzero" fill-opacity="1"></path><path clip-path="url(#clip810)" d="M1350.44 746.612 L1355.32 746.612 L1355.32 752.492 L1350.44 752.492 L1350.44 746.612 Z" fill="#000000" fill-rule="nonzero" fill-opacity="1"></path><path clip-path="url(#clip810)" d="M1365.56 717.932 L1383.91 717.932 L1383.91 721.867 L1369.84 721.867 L1369.84 730.339 Q1370.86 729.992 1371.88 729.83 Q1372.89 729.645 1373.91 729.645 Q1379.7 729.645 1383.08 732.816 Q1386.46 735.987 1386.46 741.404 Q1386.46 746.983 1382.99 750.085 Q1379.51 753.163 1373.2 753.163 Q1371.02 753.163 1368.75 752.793 Q1366.51 752.423 1364.1 751.682 L1364.1 746.983 Q1366.18 748.117 1368.4 748.673 Q1370.63 749.228 1373.1 749.228 Q1377.11 749.228 1379.44 747.122 Q1381.78 745.015 1381.78 741.404 Q1381.78 737.793 1379.44 735.687 Q1377.11 733.58 1373.1 733.58 Q1371.23 733.58 1369.35 733.997 Q1367.5 734.413 1365.56 735.293 L1365.56 717.932 Z" fill="#000000" fill-rule="nonzero" fill-opacity="1"></path><path clip-path="url(#clip810)" d="M1405.67 721.011 Q1402.06 721.011 1400.23 724.575 Q1398.43 728.117 1398.43 735.247 Q1398.43 742.353 1400.23 745.918 Q1402.06 749.46 1405.67 749.46 Q1409.31 749.46 1411.11 745.918 Q1412.94 742.353 1412.94 735.247 Q1412.94 728.117 1411.11 724.575 Q1409.31 721.011 1405.67 721.011 M1405.67 717.307 Q1411.48 717.307 1414.54 721.913 Q1417.62 726.497 1417.62 735.247 Q1417.62 743.973 1414.54 748.58 Q1411.48 753.163 1405.67 753.163 Q1399.86 753.163 1396.78 748.58 Q1393.73 743.973 1393.73 735.247 Q1393.73 726.497 1396.78 721.913 Q1399.86 717.307 1405.67 717.307 Z" fill="#000000" fill-rule="nonzero" fill-opacity="1"></path><path clip-path="url(#clip810)" d="M1331.27 396.498 Q1327.66 396.498 1325.83 400.062 Q1324.03 403.604 1324.03 410.734 Q1324.03 417.84 1325.83 421.405 Q1327.66 424.946 1331.27 424.946 Q1334.91 424.946 1336.71 421.405 Q1338.54 417.84 1338.54 410.734 Q1338.54 403.604 1336.71 400.062 Q1334.91 396.498 1331.27 396.498 M1331.27 392.794 Q1337.08 392.794 1340.14 397.4 Q1343.22 401.984 1343.22 410.734 Q1343.22 419.46 1340.14 424.067 Q1337.08 428.65 1331.27 428.65 Q1325.46 428.65 1322.39 424.067 Q1319.33 419.46 1319.33 410.734 Q1319.33 401.984 1322.39 397.4 Q1325.46 392.794 1331.27 392.794 Z" fill="#000000" fill-rule="nonzero" fill-opacity="1"></path><path clip-path="url(#clip810)" d="M1351.44 422.099 L1356.32 422.099 L1356.32 427.979 L1351.44 427.979 L1351.44 422.099 Z" fill="#000000" fill-rule="nonzero" fill-opacity="1"></path><path clip-path="url(#clip810)" d="M1365.32 393.419 L1387.55 393.419 L1387.55 395.41 L1375 427.979 L1370.12 427.979 L1381.92 397.354 L1365.32 397.354 L1365.32 393.419 Z" fill="#000000" fill-rule="nonzero" fill-opacity="1"></path><path clip-path="url(#clip810)" d="M1396.71 393.419 L1415.07 393.419 L1415.07 397.354 L1401 397.354 L1401 405.826 Q1402.01 405.479 1403.03 405.317 Q1404.05 405.132 1405.07 405.132 Q1410.86 405.132 1414.24 408.303 Q1417.62 411.474 1417.62 416.891 Q1417.62 422.47 1414.14 425.571 Q1410.67 428.65 1404.35 428.65 Q1402.18 428.65 1399.91 428.28 Q1397.66 427.909 1395.26 427.169 L1395.26 422.47 Q1397.34 423.604 1399.56 424.159 Q1401.78 424.715 1404.26 424.715 Q1408.26 424.715 1410.6 422.608 Q1412.94 420.502 1412.94 416.891 Q1412.94 413.28 1410.6 411.173 Q1408.26 409.067 1404.26 409.067 Q1402.38 409.067 1400.51 409.484 Q1398.66 409.9 1396.71 410.78 L1396.71 393.419 Z" fill="#000000" fill-rule="nonzero" fill-opacity="1"></path><path clip-path="url(#clip810)" d="M1321.09 99.5305 L1328.73 99.5305 L1328.73 73.1649 L1320.42 74.8316 L1320.42 70.5723 L1328.68 68.9057 L1333.36 68.9057 L1333.36 99.5305 L1341 99.5305 L1341 103.466 L1321.09 103.466 L1321.09 99.5305 Z" fill="#000000" fill-rule="nonzero" fill-opacity="1"></path><path clip-path="url(#clip810)" d="M1350.44 97.5861 L1355.32 97.5861 L1355.32 103.466 L1350.44 103.466 L1350.44 97.5861 Z" fill="#000000" fill-rule="nonzero" fill-opacity="1"></path><path clip-path="url(#clip810)" d="M1375.51 71.9844 Q1371.9 71.9844 1370.07 75.5492 Q1368.26 79.0908 1368.26 86.2204 Q1368.26 93.3268 1370.07 96.8916 Q1371.9 100.433 1375.51 100.433 Q1379.14 100.433 1380.95 96.8916 Q1382.78 93.3268 1382.78 86.2204 Q1382.78 79.0908 1380.95 75.5492 Q1379.14 71.9844 1375.51 71.9844 M1375.51 68.2807 Q1381.32 68.2807 1384.38 72.8871 Q1387.45 77.4704 1387.45 86.2204 Q1387.45 94.9472 1384.38 99.5537 Q1381.32 104.137 1375.51 104.137 Q1369.7 104.137 1366.62 99.5537 Q1363.57 94.9472 1363.57 86.2204 Q1363.57 77.4704 1366.62 72.8871 Q1369.7 68.2807 1375.51 68.2807 Z" fill="#000000" fill-rule="nonzero" fill-opacity="1"></path><path clip-path="url(#clip810)" d="M1405.67 71.9844 Q1402.06 71.9844 1400.23 75.5492 Q1398.43 79.0908 1398.43 86.2204 Q1398.43 93.3268 1400.23 96.8916 Q1402.06 100.433 1405.67 100.433 Q1409.31 100.433 1411.11 96.8916 Q1412.94 93.3268 1412.94 86.2204 Q1412.94 79.0908 1411.11 75.5492 Q1409.31 71.9844 1405.67 71.9844 M1405.67 68.2807 Q1411.48 68.2807 1414.54 72.8871 Q1417.62 77.4704 1417.62 86.2204 Q1417.62 94.9472 1414.54 99.5537 Q1411.48 104.137 1405.67 104.137 Q1399.86 104.137 1396.78 99.5537 Q1393.73 94.9472 1393.73 86.2204 Q1393.73 77.4704 1396.78 72.8871 Q1399.86 68.2807 1405.67 68.2807 Z" fill="#000000" fill-rule="nonzero" fill-opacity="1"></path><path clip-path="url(#clip810)" d="M1249.32 736.561 Q1253.47 737.398 1255.86 738.525 Q1259.49 740.361 1259.49 743.421 Q1259.49 745.546 1258.3 747.156 Q1257.08 748.734 1255.05 749.282 Q1255.86 749.894 1256.4 750.441 Q1256.95 750.957 1257.79 751.955 Q1258.59 752.953 1259.04 754.306 Q1259.49 755.627 1259.49 757.14 Q1259.49 758.3 1259.27 759.362 Q1259.08 760.425 1258.53 761.552 Q1257.95 762.647 1257.08 763.453 Q1256.21 764.226 1254.79 764.741 Q1253.38 765.256 1251.57 765.256 Q1249.32 765.256 1246.26 764.387 Q1243.2 763.485 1237.72 761.424 Q1234.83 760.296 1233.21 760.296 Q1232.47 760.296 1231.99 760.457 Q1231.51 760.618 1231.35 760.941 Q1231.15 761.23 1231.12 761.424 Q1231.06 761.617 1231.06 761.939 Q1231.06 763.936 1233.09 765.675 Q1235.12 767.414 1239.24 768.606 Q1240.04 768.863 1240.24 769.024 Q1240.43 769.185 1240.43 769.668 Q1240.4 770.473 1239.75 770.473 Q1239.5 770.473 1238.5 770.184 Q1237.47 769.894 1235.95 769.217 Q1234.41 768.509 1233.02 767.543 Q1231.6 766.577 1230.61 765.063 Q1229.61 763.517 1229.61 761.746 Q1229.61 759.33 1231.19 757.849 Q1232.73 756.335 1235.02 756.335 Q1236.44 756.335 1239.17 757.462 Q1248.67 761.037 1252.64 761.037 Q1258.01 761.037 1258.01 756.947 Q1258.01 755.594 1257.47 754.338 Q1256.92 753.05 1256.15 752.213 Q1255.37 751.375 1254.54 750.731 Q1253.7 750.055 1253.15 749.765 Q1252.6 749.443 1252.47 749.411 L1232.64 744.483 Q1231.86 744.29 1231.35 743.936 Q1230.8 743.549 1230.61 743.098 Q1230.41 742.648 1230.38 742.39 Q1230.32 742.132 1230.32 741.907 Q1230.32 741.102 1230.8 740.554 Q1231.28 739.975 1232.12 739.975 Q1232.28 739.975 1233.05 740.168 Q1233.79 740.329 1234.89 740.586 Q1235.95 740.844 1236.53 740.973 Q1240.59 742.003 1241.01 742.1 L1248.13 743.936 Q1248.54 744.032 1249.9 744.354 Q1251.25 744.644 1251.96 744.805 Q1252.64 744.966 1253.57 745.127 Q1254.47 745.256 1254.99 745.256 Q1256.6 745.256 1257.3 744.773 Q1258.01 744.29 1258.01 743.227 Q1258.01 742.229 1257.34 741.456 Q1256.63 740.651 1255.28 740.039 Q1253.89 739.427 1252.76 739.073 Q1251.64 738.718 1249.87 738.268 Q1249.09 738.107 1248.9 737.978 Q1248.67 737.817 1248.67 737.366 Q1248.67 736.561 1249.32 736.561 Z" fill="#000000" fill-rule="nonzero" fill-opacity="1"></path><path clip-path="url(#clip810)" d="M1251.41 729.855 L1249.97 729.855 Q1249.97 724.309 1247.02 721.446 Q1247.02 720.657 1247.2 720.522 Q1247.38 720.387 1248.21 720.387 L1274.11 720.387 Q1275.49 720.387 1275.92 719.71 Q1276.34 719.034 1276.34 716.081 L1276.34 714.616 L1277.77 714.616 Q1277.63 716.239 1277.63 722.1 Q1277.63 727.962 1277.77 729.562 L1276.34 729.562 L1276.34 728.097 Q1276.34 725.189 1275.94 724.49 Q1275.51 723.791 1274.11 723.791 L1250.19 723.791 Q1251.41 726.203 1251.41 729.855 Z" fill="#000000" fill-rule="nonzero" fill-opacity="1"></path><polyline clip-path="url(#clip813)" style="stroke:#009af9; stroke-linecap:round; stroke-linejoin:round; stroke-width:4; stroke-opacity:1; fill:none" points="1479.06,1384.24 1508.31,1384.24 1537.56,1384.24 1537.56,873.02 1566.81,873.02 1566.81,435.564 1596.06,435.564 1596.06,227.833 1625.31,227.833 1625.31,165.588 1654.56,165.588 1654.56,155.027 1683.81,155.027 1683.81,152.139 1713.06,152.139 1713.06,146.408 1742.31,146.408 1742.31,138.778 1771.56,138.778 1771.56,131.297 1800.81,131.297 1800.81,124.813 1830.06,124.813 1830.06,119.361 1859.31,119.361 1859.31,114.747 1888.56,114.747 1888.56,110.796 1917.81,110.796 1917.81,107.392 1947.06,107.392 1947.06,104.455 1976.31,104.455 1976.31,101.923 2005.56,101.923 2005.56,99.7414 2034.81,99.7414 2034.81,97.8623 2064.06,97.8623 2064.06,96.2438 2093.31,96.2438 2093.31,94.8497 2122.56,94.8497 2122.56,93.6488 2151.81,93.6488 2151.81,92.6144 2181.06,92.6144 2181.06,91.7234 2210.31,91.7234 2210.31,90.9558 2239.56,90.9558 2239.56,90.2947 2268.81,90.2947 2268.81,89.7251 2298.06,89.7251 2298.06,89.2346 2327.31,89.2346 2327.31,88.812 "></polyline>
<polyline clip-path="url(#clip813)" style="stroke:#ac8d18; stroke-linecap:round; stroke-linejoin:round; stroke-width:6; stroke-opacity:1; fill:none" stroke-dasharray="3, 6" points="1479.06,86.1857 1508.31,86.1857 1537.56,86.1857 1566.81,86.1857 1596.06,86.1857 1625.31,86.1857 1654.56,86.1857 1683.81,86.1857 1713.06,86.1857 1742.31,86.1857 1771.56,86.1857 1800.81,86.1857 1830.06,86.1857 1859.31,86.1857 1888.56,86.1857 1917.81,86.1857 1947.06,86.1857 1976.31,86.1857 2005.56,86.1857 2034.81,86.1857 2064.06,86.1857 2093.31,86.1857 2122.56,86.1857 2151.81,86.1857 2181.06,86.1857 2210.31,86.1857 2239.56,86.1857 2268.81,86.1857 2298.06,86.1857 2327.31,86.1857 "></polyline>
<path clip-path="url(#clip810)" d="M2125.36 1377.32 L2322.78 1377.32 L2322.78 1221.8 L2125.36 1221.8  Z" fill="#ffffff" fill-rule="evenodd" fill-opacity="1"></path>
<polyline clip-path="url(#clip810)" style="stroke:#000000; stroke-linecap:round; stroke-linejoin:round; stroke-width:4; stroke-opacity:1; fill:none" points="2125.36,1377.32 2322.78,1377.32 2322.78,1221.8 2125.36,1221.8 2125.36,1377.32 "></polyline>
<polyline clip-path="url(#clip810)" style="stroke:#009af9; stroke-linecap:round; stroke-linejoin:round; stroke-width:4; stroke-opacity:1; fill:none" points="2135.35,1273.64 2195.3,1273.64 "></polyline>
<path clip-path="url(#clip810)" d="M2232.65 1284.19 L2224.14 1284.47 L2224.14 1280.75 Q2221.96 1284.47 2217.23 1284.47 Q2215.29 1284.47 2213.84 1284.21 Q2212.41 1283.96 2211.14 1283.32 Q2209.9 1282.67 2209.25 1281.4 Q2208.59 1280.14 2208.59 1278.29 L2208.59 1267.12 Q2208.59 1265.76 2208.1 1265.5 Q2207.61 1265.24 2205.29 1265.24 L2205.29 1262.99 L2214.07 1262.59 L2214.07 1278.97 Q2214.07 1280.11 2214.14 1280.7 Q2214.24 1281.26 2214.59 1281.82 Q2214.96 1282.36 2215.76 1282.57 Q2216.55 1282.76 2217.91 1282.76 Q2220.56 1282.76 2222.2 1280.98 Q2223.86 1279.2 2223.86 1276.27 L2223.86 1267.12 Q2223.86 1265.76 2223.35 1265.5 Q2222.85 1265.24 2220.54 1265.24 L2220.54 1262.99 L2229.32 1262.59 L2229.32 1280.07 Q2229.32 1281.43 2229.81 1281.68 Q2230.33 1281.94 2232.65 1281.94 L2232.65 1284.19 Z" fill="#000000" fill-rule="nonzero" fill-opacity="1"></path><polyline clip-path="url(#clip810)" style="stroke:#ac8d18; stroke-linecap:round; stroke-linejoin:round; stroke-width:6; stroke-opacity:1; fill:none" stroke-dasharray="3, 6" points="2135.35,1325.48 2195.3,1325.48 "></polyline>
<path clip-path="url(#clip810)" d="M2232.65 1331.41 L2224.14 1331.69 L2224.14 1327.97 Q2221.96 1331.69 2217.23 1331.69 Q2215.29 1331.69 2213.84 1331.43 Q2212.41 1331.18 2211.14 1330.54 Q2209.9 1329.89 2209.25 1328.62 Q2208.59 1327.36 2208.59 1325.51 L2208.59 1314.34 Q2208.59 1312.98 2208.1 1312.72 Q2207.61 1312.46 2205.29 1312.46 L2205.29 1310.21 L2214.07 1309.81 L2214.07 1326.19 Q2214.07 1327.33 2214.14 1327.92 Q2214.24 1328.48 2214.59 1329.04 Q2214.96 1329.58 2215.76 1329.79 Q2216.55 1329.98 2217.91 1329.98 Q2220.56 1329.98 2222.2 1328.2 Q2223.86 1326.42 2223.86 1323.49 L2223.86 1314.34 Q2223.86 1312.98 2223.35 1312.72 Q2222.85 1312.46 2220.54 1312.46 L2220.54 1310.21 L2229.32 1309.81 L2229.32 1327.29 Q2229.32 1328.65 2229.81 1328.9 Q2230.33 1329.16 2232.65 1329.16 L2232.65 1331.41 Z" fill="#000000" fill-rule="nonzero" fill-opacity="1"></path><path clip-path="url(#clip810)" d="M2267.38 1340.73 L2263.15 1340.64 L2258.92 1340.73 L2258.92 1339.16 L2261.23 1339.16 L2261.23 1330.09 Q2261.23 1328.26 2260.75 1327.55 Q2260.28 1326.83 2259.34 1326.83 Q2258.52 1326.83 2257.67 1327.16 Q2256.83 1327.49 2256.06 1328.11 Q2255.31 1328.73 2254.82 1329.78 Q2254.34 1330.83 2254.34 1332.14 L2254.34 1339.16 L2256.67 1339.16 L2256.67 1340.73 L2252.44 1340.64 L2248.19 1340.73 L2248.19 1339.16 L2250.52 1339.16 L2250.52 1330.09 Q2250.52 1328.26 2250.05 1327.55 Q2249.57 1326.83 2248.64 1326.83 Q2247.82 1326.83 2246.96 1327.16 Q2246.13 1327.49 2245.36 1328.11 Q2244.6 1328.73 2244.11 1329.78 Q2243.63 1330.83 2243.63 1332.14 L2243.63 1339.16 L2245.95 1339.16 L2245.95 1340.73 L2241.72 1340.64 L2237.49 1340.73 L2237.49 1339.16 L2239.8 1339.16 L2239.8 1328.78 Q2239.8 1327.83 2239.45 1327.65 Q2239.11 1327.47 2237.49 1327.47 L2237.49 1325.9 L2243.26 1325.62 L2243.26 1329.26 Q2244.13 1327.57 2245.6 1326.6 Q2247.09 1325.62 2249.18 1325.62 Q2253.5 1325.62 2254.21 1328.85 Q2254.98 1327.49 2256.39 1326.55 Q2257.8 1325.62 2259.88 1325.62 Q2262.52 1325.62 2263.78 1326.77 Q2265.06 1327.9 2265.06 1330.45 L2265.06 1339.16 L2267.38 1339.16 L2267.38 1340.73 Z" fill="#000000" fill-rule="nonzero" fill-opacity="1"></path><path clip-path="url(#clip810)" d="M2287.4 1339.93 Q2287.4 1340.23 2287.34 1340.41 Q2287.27 1340.57 2287.09 1340.64 Q2286.93 1340.7 2286.78 1340.72 Q2286.63 1340.73 2286.32 1340.73 L2284.71 1340.73 Q2283.71 1340.73 2283.01 1340.55 Q2282.32 1340.36 2281.97 1340.13 Q2281.63 1339.9 2281.45 1339.49 Q2281.27 1339.08 2281.24 1338.83 Q2281.22 1338.57 2281.22 1338.14 Q2280.6 1339.34 2279.33 1340.14 Q2278.09 1340.93 2276.22 1340.93 Q2275.43 1340.93 2274.65 1340.85 Q2273.86 1340.77 2272.94 1340.52 Q2272.02 1340.26 2271.33 1339.87 Q2270.64 1339.46 2270.19 1338.75 Q2269.73 1338.03 2269.73 1337.11 Q2269.73 1332.29 2280.65 1331.83 L2280.65 1330.7 Q2280.65 1326.73 2276.96 1326.73 Q2275.61 1326.73 2274.53 1326.96 Q2274.63 1327.03 2274.78 1327.19 Q2274.92 1327.36 2275.09 1327.77 Q2275.27 1328.18 2275.27 1328.62 Q2275.27 1329.62 2274.63 1330.18 Q2274.01 1330.73 2273.15 1330.73 Q2272.37 1330.73 2271.71 1330.19 Q2271.07 1329.63 2271.07 1328.62 Q2271.07 1325.52 2277.09 1325.52 Q2280.71 1325.52 2282.58 1326.95 Q2284.47 1328.36 2284.47 1330.7 L2284.47 1337.91 Q2284.47 1338.28 2284.5 1338.44 Q2284.53 1338.6 2284.71 1338.8 Q2284.89 1339 2285.32 1339.08 Q2285.76 1339.14 2286.52 1339.16 Q2286.81 1339.16 2286.96 1339.19 Q2287.11 1339.21 2287.25 1339.39 Q2287.4 1339.57 2287.4 1339.93 M2280.65 1336.06 L2280.65 1332.88 Q2280.07 1332.91 2279.53 1332.98 Q2278.99 1333.04 2278.1 1333.21 Q2277.22 1333.36 2276.5 1333.67 Q2275.79 1333.96 2275.1 1334.41 Q2274.43 1334.83 2274.04 1335.52 Q2273.66 1336.21 2273.66 1337.08 Q2273.66 1338.19 2274.55 1338.96 Q2275.43 1339.73 2276.71 1339.73 Q2277.04 1339.73 2277.45 1339.67 Q2277.86 1339.6 2278.45 1339.37 Q2279.04 1339.13 2279.5 1338.75 Q2279.97 1338.37 2280.3 1337.68 Q2280.65 1336.98 2280.65 1336.06 Z" fill="#000000" fill-rule="nonzero" fill-opacity="1"></path><path clip-path="url(#clip810)" d="M2306.4 1340.73 L2302.71 1340.64 L2298.68 1340.73 L2298.68 1339.16 L2299.99 1339.16 L2296.3 1334.8 L2293.04 1338.46 L2292.81 1338.78 Q2292.81 1338.93 2293.18 1339.05 Q2293.58 1339.16 2294.04 1339.16 L2294.04 1340.73 L2290.58 1340.64 L2287.49 1340.73 L2287.49 1339.16 Q2288.53 1339.16 2289 1339.14 Q2289.49 1339.11 2290.05 1338.96 Q2290.61 1338.82 2290.89 1338.52 L2295.28 1333.59 L2290.05 1327.4 L2287.66 1327.4 L2287.66 1325.83 L2291.36 1325.93 L2295.41 1325.83 L2295.41 1327.4 L2294.07 1327.4 L2297.36 1331.26 L2300.18 1328.11 Q2300.2 1328.09 2300.46 1327.7 Q2299.94 1327.4 2299.18 1327.4 L2299.18 1325.83 L2302.64 1325.93 L2305.73 1325.83 L2305.73 1327.4 Q2304.38 1327.4 2303.68 1327.5 Q2302.99 1327.59 2302.77 1327.7 Q2302.58 1327.81 2302.3 1328.11 L2298.38 1332.47 L2304.02 1339.16 L2306.4 1339.16 L2306.4 1340.73 Z" fill="#000000" fill-rule="nonzero" fill-opacity="1"></path></svg>