<svg xmlns="http://www.w3.org/2000/svg" xmlns:xlink="http://www.w3.org/1999/xlink" width="600" height="400" viewBox="0 0 2400 1600">
<defs>
  <clipPath id="clip730">
    <rect x="0" y="0" width="2400" height="1600"></rect>
  </clipPath>
</defs>
<path clip-path="url(#clip730)" d="M0 1600 L2400 1600 L2400 0 L0 0  Z" fill="#ffffff" fill-rule="evenodd" fill-opacity="1"></path>
<defs>
  <clipPath id="clip731">
    <rect x="480" y="0" width="1681" height="1600"></rect>
  </clipPath>
</defs>
<path clip-path="url(#clip730)" d="M219.38 1423.18 L2352.76 1423.18 L2352.76 47.2441 L219.38 47.2441  Z" fill="#ffffff" fill-rule="evenodd" fill-opacity="1"></path>
<defs>
  <clipPath id="clip732">
    <rect x="219" y="47" width="2134" height="1377"></rect>
  </clipPath>
</defs>
<polyline clip-path="url(#clip732)" style="stroke:#000000; stroke-linecap:round; stroke-linejoin:round; stroke-width:2; stroke-opacity:0.1; fill:none" points="279.759,1423.18 279.759,47.2441 "></polyline>
<polyline clip-path="url(#clip732)" style="stroke:#000000; stroke-linecap:round; stroke-linejoin:round; stroke-width:2; stroke-opacity:0.1; fill:none" points="699.054,1423.18 699.054,47.2441 "></polyline>
<polyline clip-path="url(#clip732)" style="stroke:#000000; stroke-linecap:round; stroke-linejoin:round; stroke-width:2; stroke-opacity:0.1; fill:none" points="1118.35,1423.18 1118.35,47.2441 "></polyline>
<polyline clip-path="url(#clip732)" style="stroke:#000000; stroke-linecap:round; stroke-linejoin:round; stroke-width:2; stroke-opacity:0.1; fill:none" points="1537.65,1423.18 1537.65,47.2441 "></polyline>
<polyline clip-path="url(#clip732)" style="stroke:#000000; stroke-linecap:round; stroke-linejoin:round; stroke-width:2; stroke-opacity:0.1; fill:none" points="1956.94,1423.18 1956.94,47.2441 "></polyline>
<polyline clip-path="url(#clip730)" style="stroke:#000000; stroke-linecap:round; stroke-linejoin:round; stroke-width:4; stroke-opacity:1; fill:none" points="219.38,1423.18 2352.76,1423.18 "></polyline>
<polyline clip-path="url(#clip730)" style="stroke:#000000; stroke-linecap:round; stroke-linejoin:round; stroke-width:4; stroke-opacity:1; fill:none" points="279.759,1423.18 279.759,1404.28 "></polyline>
<polyline clip-path="url(#clip730)" style="stroke:#000000; stroke-linecap:round; stroke-linejoin:round; stroke-width:4; stroke-opacity:1; fill:none" points="699.054,1423.18 699.054,1404.28 "></polyline>
<polyline clip-path="url(#clip730)" style="stroke:#000000; stroke-linecap:round; stroke-linejoin:round; stroke-width:4; stroke-opacity:1; fill:none" points="1118.35,1423.18 1118.35,1404.28 "></polyline>
<polyline clip-path="url(#clip730)" style="stroke:#000000; stroke-linecap:round; stroke-linejoin:round; stroke-width:4; stroke-opacity:1; fill:none" points="1537.65,1423.18 1537.65,1404.28 "></polyline>
<polyline clip-path="url(#clip730)" style="stroke:#000000; stroke-linecap:round; stroke-linejoin:round; stroke-width:4; stroke-opacity:1; fill:none" points="1956.94,1423.18 1956.94,1404.28 "></polyline>
<path clip-path="url(#clip730)" d="M279.759 1454.1 Q276.148 1454.1 274.319 1457.66 Q272.513 1461.2 272.513 1468.33 Q272.513 1475.44 274.319 1479.01 Q276.148 1482.55 279.759 1482.55 Q283.393 1482.55 285.199 1479.01 Q287.027 1475.44 287.027 1468.33 Q287.027 1461.2 285.199 1457.66 Q283.393 1454.1 279.759 1454.1 M279.759 1450.39 Q285.569 1450.39 288.624 1455 Q291.703 1459.58 291.703 1468.33 Q291.703 1477.06 288.624 1481.67 Q285.569 1486.25 279.759 1486.25 Q273.949 1486.25 270.87 1481.67 Q267.814 1477.06 267.814 1468.33 Q267.814 1459.58 270.87 1455 Q273.949 1450.39 279.759 1450.39 Z" fill="#000000" fill-rule="nonzero" fill-opacity="1"></path><path clip-path="url(#clip730)" d="M673.742 1481.64 L681.381 1481.64 L681.381 1455.28 L673.071 1456.95 L673.071 1452.69 L681.334 1451.02 L686.01 1451.02 L686.01 1481.64 L693.649 1481.64 L693.649 1485.58 L673.742 1485.58 L673.742 1481.64 Z" fill="#000000" fill-rule="nonzero" fill-opacity="1"></path><path clip-path="url(#clip730)" d="M713.094 1454.1 Q709.482 1454.1 707.654 1457.66 Q705.848 1461.2 705.848 1468.33 Q705.848 1475.44 707.654 1479.01 Q709.482 1482.55 713.094 1482.55 Q716.728 1482.55 718.533 1479.01 Q720.362 1475.44 720.362 1468.33 Q720.362 1461.2 718.533 1457.66 Q716.728 1454.1 713.094 1454.1 M713.094 1450.39 Q718.904 1450.39 721.959 1455 Q725.038 1459.58 725.038 1468.33 Q725.038 1477.06 721.959 1481.67 Q718.904 1486.25 713.094 1486.25 Q707.283 1486.25 704.205 1481.67 Q701.149 1477.06 701.149 1468.33 Q701.149 1459.58 704.205 1455 Q707.283 1450.39 713.094 1450.39 Z" fill="#000000" fill-rule="nonzero" fill-opacity="1"></path><path clip-path="url(#clip730)" d="M1097.12 1481.64 L1113.44 1481.64 L1113.44 1485.58 L1091.5 1485.58 L1091.5 1481.64 Q1094.16 1478.89 1098.74 1474.26 Q1103.35 1469.61 1104.53 1468.27 Q1106.78 1465.74 1107.66 1464.01 Q1108.56 1462.25 1108.56 1460.56 Q1108.56 1457.8 1106.61 1456.07 Q1104.69 1454.33 1101.59 1454.33 Q1099.39 1454.33 1096.94 1455.09 Q1094.51 1455.86 1091.73 1457.41 L1091.73 1452.69 Q1094.55 1451.55 1097.01 1450.97 Q1099.46 1450.39 1101.5 1450.39 Q1106.87 1450.39 1110.06 1453.08 Q1113.26 1455.77 1113.26 1460.26 Q1113.26 1462.39 1112.45 1464.31 Q1111.66 1466.2 1109.55 1468.8 Q1108.97 1469.47 1105.87 1472.69 Q1102.77 1475.88 1097.12 1481.64 Z" fill="#000000" fill-rule="nonzero" fill-opacity="1"></path><path clip-path="url(#clip730)" d="M1133.26 1454.1 Q1129.65 1454.1 1127.82 1457.66 Q1126.01 1461.2 1126.01 1468.33 Q1126.01 1475.44 1127.82 1479.01 Q1129.65 1482.55 1133.26 1482.55 Q1136.89 1482.55 1138.7 1479.01 Q1140.53 1475.44 1140.53 1468.33 Q1140.53 1461.2 1138.7 1457.66 Q1136.89 1454.1 1133.26 1454.1 M1133.26 1450.39 Q1139.07 1450.39 1142.12 1455 Q1145.2 1459.58 1145.2 1468.33 Q1145.2 1477.06 1142.12 1481.67 Q1139.07 1486.25 1133.26 1486.25 Q1127.45 1486.25 1124.37 1481.67 Q1121.31 1477.06 1121.31 1468.33 Q1121.31 1459.58 1124.37 1455 Q1127.45 1450.39 1133.26 1450.39 Z" fill="#000000" fill-rule="nonzero" fill-opacity="1"></path><path clip-path="url(#clip730)" d="M1526.49 1466.95 Q1529.84 1467.66 1531.72 1469.93 Q1533.62 1472.2 1533.62 1475.53 Q1533.62 1480.65 1530.1 1483.45 Q1526.58 1486.25 1520.1 1486.25 Q1517.92 1486.25 1515.61 1485.81 Q1513.32 1485.39 1510.86 1484.54 L1510.86 1480.02 Q1512.81 1481.16 1515.12 1481.74 Q1517.44 1482.32 1519.96 1482.32 Q1524.36 1482.32 1526.65 1480.58 Q1528.96 1478.84 1528.96 1475.53 Q1528.96 1472.48 1526.81 1470.77 Q1524.68 1469.03 1520.86 1469.03 L1516.84 1469.03 L1516.84 1465.19 L1521.05 1465.19 Q1524.5 1465.19 1526.33 1463.82 Q1528.15 1462.43 1528.15 1459.84 Q1528.15 1457.18 1526.26 1455.77 Q1524.38 1454.33 1520.86 1454.33 Q1518.94 1454.33 1516.74 1454.75 Q1514.54 1455.16 1511.9 1456.04 L1511.9 1451.88 Q1514.57 1451.14 1516.88 1450.77 Q1519.22 1450.39 1521.28 1450.39 Q1526.6 1450.39 1529.71 1452.83 Q1532.81 1455.23 1532.81 1459.35 Q1532.81 1462.22 1531.16 1464.21 Q1529.52 1466.18 1526.49 1466.95 Z" fill="#000000" fill-rule="nonzero" fill-opacity="1"></path><path clip-path="url(#clip730)" d="M1552.48 1454.1 Q1548.87 1454.1 1547.04 1457.66 Q1545.24 1461.2 1545.24 1468.33 Q1545.24 1475.44 1547.04 1479.01 Q1548.87 1482.55 1552.48 1482.55 Q1556.12 1482.55 1557.92 1479.01 Q1559.75 1475.44 1559.75 1468.33 Q1559.75 1461.2 1557.92 1457.66 Q1556.12 1454.1 1552.48 1454.1 M1552.48 1450.39 Q1558.29 1450.39 1561.35 1455 Q1564.43 1459.58 1564.43 1468.33 Q1564.43 1477.06 1561.35 1481.67 Q1558.29 1486.25 1552.48 1486.25 Q1546.67 1486.25 1543.59 1481.67 Q1540.54 1477.06 1540.54 1468.33 Q1540.54 1459.58 1543.59 1455 Q1546.67 1450.39 1552.48 1450.39 Z" fill="#000000" fill-rule="nonzero" fill-opacity="1"></path><path clip-path="url(#clip730)" d="M1945.11 1455.09 L1933.31 1473.54 L1945.11 1473.54 L1945.11 1455.09 M1943.89 1451.02 L1949.77 1451.02 L1949.77 1473.54 L1954.7 1473.54 L1954.7 1477.43 L1949.77 1477.43 L1949.77 1485.58 L1945.11 1485.58 L1945.11 1477.43 L1929.51 1477.43 L1929.51 1472.92 L1943.89 1451.02 Z" fill="#000000" fill-rule="nonzero" fill-opacity="1"></path><path clip-path="url(#clip730)" d="M1972.43 1454.1 Q1968.82 1454.1 1966.99 1457.66 Q1965.18 1461.2 1965.18 1468.33 Q1965.18 1475.44 1966.99 1479.01 Q1968.82 1482.55 1972.43 1482.55 Q1976.06 1482.55 1977.87 1479.01 Q1979.7 1475.44 1979.7 1468.33 Q1979.7 1461.2 1977.87 1457.66 Q1976.06 1454.1 1972.43 1454.1 M1972.43 1450.39 Q1978.24 1450.39 1981.29 1455 Q1984.37 1459.58 1984.37 1468.33 Q1984.37 1477.06 1981.29 1481.67 Q1978.24 1486.25 1972.43 1486.25 Q1966.62 1486.25 1963.54 1481.67 Q1960.48 1477.06 1960.48 1468.33 Q1960.48 1459.58 1963.54 1455 Q1966.62 1450.39 1972.43 1450.39 Z" fill="#000000" fill-rule="nonzero" fill-opacity="1"></path><path clip-path="url(#clip730)" d="M1156.24 1520.52 L1196.44 1520.52 L1196.44 1525.93 L1179.57 1525.93 L1179.57 1568.04 L1173.11 1568.04 L1173.11 1525.93 L1156.24 1525.93 L1156.24 1520.52 Z" fill="#000000" fill-rule="nonzero" fill-opacity="1"></path><path clip-path="url(#clip730)" d="M1200.39 1532.4 L1206.24 1532.4 L1206.24 1568.04 L1200.39 1568.04 L1200.39 1532.4 M1200.39 1518.52 L1206.24 1518.52 L1206.24 1525.93 L1200.39 1525.93 L1200.39 1518.52 Z" fill="#000000" fill-rule="nonzero" fill-opacity="1"></path><path clip-path="url(#clip730)" d="M1246.25 1539.24 Q1248.45 1535.29 1251.5 1533.41 Q1254.56 1531.54 1258.7 1531.54 Q1264.27 1531.54 1267.29 1535.45 Q1270.31 1539.33 1270.31 1546.53 L1270.31 1568.04 L1264.42 1568.04 L1264.42 1546.72 Q1264.42 1541.59 1262.61 1539.11 Q1260.8 1536.63 1257.07 1536.63 Q1252.52 1536.63 1249.88 1539.65 Q1247.24 1542.68 1247.24 1547.9 L1247.24 1568.04 L1241.35 1568.04 L1241.35 1546.72 Q1241.35 1541.56 1239.53 1539.11 Q1237.72 1536.63 1233.93 1536.63 Q1229.45 1536.63 1226.8 1539.68 Q1224.16 1542.71 1224.16 1547.9 L1224.16 1568.04 L1218.27 1568.04 L1218.27 1532.4 L1224.16 1532.4 L1224.16 1537.93 Q1226.17 1534.66 1228.97 1533.1 Q1231.77 1531.54 1235.62 1531.54 Q1239.5 1531.54 1242.21 1533.51 Q1244.95 1535.48 1246.25 1539.24 Z" fill="#000000" fill-rule="nonzero" fill-opacity="1"></path><path clip-path="url(#clip730)" d="M1312.49 1548.76 L1312.49 1551.62 L1285.56 1551.62 Q1285.94 1557.67 1289.19 1560.85 Q1292.47 1564 1298.29 1564 Q1301.66 1564 1304.82 1563.17 Q1308 1562.35 1311.12 1560.69 L1311.12 1566.23 Q1307.97 1567.57 1304.66 1568.27 Q1301.35 1568.97 1297.94 1568.97 Q1289.41 1568.97 1284.41 1564 Q1279.45 1559.04 1279.45 1550.57 Q1279.45 1541.82 1284.16 1536.69 Q1288.9 1531.54 1296.92 1531.54 Q1304.11 1531.54 1308.28 1536.18 Q1312.49 1540.8 1312.49 1548.76 M1306.63 1547.04 Q1306.57 1542.23 1303.92 1539.37 Q1301.31 1536.5 1296.99 1536.5 Q1292.08 1536.5 1289.12 1539.27 Q1286.2 1542.04 1285.75 1547.07 L1306.63 1547.04 Z" fill="#000000" fill-rule="nonzero" fill-opacity="1"></path><path clip-path="url(#clip730)" d="M1356.89 1518.58 Q1352.62 1525.9 1350.55 1533.06 Q1348.48 1540.23 1348.48 1547.58 Q1348.48 1554.93 1350.55 1562.16 Q1352.65 1569.35 1356.89 1576.64 L1351.79 1576.64 Q1347.02 1569.16 1344.63 1561.93 Q1342.28 1554.71 1342.28 1547.58 Q1342.28 1540.48 1344.63 1533.29 Q1346.99 1526.09 1351.79 1518.58 L1356.89 1518.58 Z" fill="#000000" fill-rule="nonzero" fill-opacity="1"></path><path clip-path="url(#clip730)" d="M1390.97 1533.45 L1390.97 1538.98 Q1388.49 1537.71 1385.82 1537.07 Q1383.15 1536.44 1380.28 1536.44 Q1375.92 1536.44 1373.72 1537.77 Q1371.56 1539.11 1371.56 1541.79 Q1371.56 1543.82 1373.12 1545 Q1374.68 1546.15 1379.39 1547.2 L1381.39 1547.64 Q1387.63 1548.98 1390.24 1551.43 Q1392.88 1553.85 1392.88 1558.21 Q1392.88 1563.17 1388.94 1566.07 Q1385.02 1568.97 1378.15 1568.97 Q1375.28 1568.97 1372.16 1568.39 Q1369.08 1567.85 1365.64 1566.74 L1365.64 1560.69 Q1368.89 1562.38 1372.04 1563.24 Q1375.19 1564.07 1378.28 1564.07 Q1382.41 1564.07 1384.64 1562.66 Q1386.87 1561.23 1386.87 1558.65 Q1386.87 1556.27 1385.25 1554.99 Q1383.65 1553.72 1378.21 1552.54 L1376.17 1552.07 Q1370.73 1550.92 1368.31 1548.56 Q1365.89 1546.18 1365.89 1542.04 Q1365.89 1537.01 1369.46 1534.27 Q1373.02 1531.54 1379.58 1531.54 Q1382.83 1531.54 1385.69 1532.01 Q1388.56 1532.49 1390.97 1533.45 Z" fill="#000000" fill-rule="nonzero" fill-opacity="1"></path><path clip-path="url(#clip730)" d="M1401.29 1518.58 L1406.38 1518.58 Q1411.15 1526.09 1413.51 1533.29 Q1415.9 1540.48 1415.9 1547.58 Q1415.9 1554.71 1413.51 1561.93 Q1411.15 1569.16 1406.38 1576.64 L1401.29 1576.64 Q1405.52 1569.35 1407.59 1562.16 Q1409.69 1554.93 1409.69 1547.58 Q1409.69 1540.23 1407.59 1533.06 Q1405.52 1525.9 1401.29 1518.58 Z" fill="#000000" fill-rule="nonzero" fill-opacity="1"></path><polyline clip-path="url(#clip732)" style="stroke:#000000; stroke-linecap:round; stroke-linejoin:round; stroke-width:2; stroke-opacity:0.1; fill:none" points="219.38,1384.24 2352.76,1384.24 "></polyline>
<polyline clip-path="url(#clip732)" style="stroke:#000000; stroke-linecap:round; stroke-linejoin:round; stroke-width:2; stroke-opacity:0.1; fill:none" points="219.38,1057.03 2352.76,1057.03 "></polyline>
<polyline clip-path="url(#clip732)" style="stroke:#000000; stroke-linecap:round; stroke-linejoin:round; stroke-width:2; stroke-opacity:0.1; fill:none" points="219.38,729.826 2352.76,729.826 "></polyline>
<polyline clip-path="url(#clip732)" style="stroke:#000000; stroke-linecap:round; stroke-linejoin:round; stroke-width:2; stroke-opacity:0.1; fill:none" points="219.38,402.62 2352.76,402.62 "></polyline>
<polyline clip-path="url(#clip732)" style="stroke:#000000; stroke-linecap:round; stroke-linejoin:round; stroke-width:2; stroke-opacity:0.1; fill:none" points="219.38,75.4144 2352.76,75.4144 "></polyline>
<polyline clip-path="url(#clip730)" style="stroke:#000000; stroke-linecap:round; stroke-linejoin:round; stroke-width:4; stroke-opacity:1; fill:none" points="219.38,1423.18 219.38,47.2441 "></polyline>
<polyline clip-path="url(#clip730)" style="stroke:#000000; stroke-linecap:round; stroke-linejoin:round; stroke-width:4; stroke-opacity:1; fill:none" points="219.38,1384.24 238.278,1384.24 "></polyline>
<polyline clip-path="url(#clip730)" style="stroke:#000000; stroke-linecap:round; stroke-linejoin:round; stroke-width:4; stroke-opacity:1; fill:none" points="219.38,1057.03 238.278,1057.03 "></polyline>
<polyline clip-path="url(#clip730)" style="stroke:#000000; stroke-linecap:round; stroke-linejoin:round; stroke-width:4; stroke-opacity:1; fill:none" points="219.38,729.826 238.278,729.826 "></polyline>
<polyline clip-path="url(#clip730)" style="stroke:#000000; stroke-linecap:round; stroke-linejoin:round; stroke-width:4; stroke-opacity:1; fill:none" points="219.38,402.62 238.278,402.62 "></polyline>
<polyline clip-path="url(#clip730)" style="stroke:#000000; stroke-linecap:round; stroke-linejoin:round; stroke-width:4; stroke-opacity:1; fill:none" points="219.38,75.4144 238.278,75.4144 "></polyline>
<path clip-path="url(#clip730)" d="M126.205 1370.04 Q122.593 1370.04 120.765 1373.6 Q118.959 1377.14 118.959 1384.27 Q118.959 1391.38 120.765 1394.94 Q122.593 1398.49 126.205 1398.49 Q129.839 1398.49 131.644 1394.94 Q133.473 1391.38 133.473 1384.27 Q133.473 1377.14 131.644 1373.6 Q129.839 1370.04 126.205 1370.04 M126.205 1366.33 Q132.015 1366.33 135.07 1370.94 Q138.149 1375.52 138.149 1384.27 Q138.149 1393 135.07 1397.61 Q132.015 1402.19 126.205 1402.19 Q120.394 1402.19 117.316 1397.61 Q114.26 1393 114.26 1384.27 Q114.26 1375.52 117.316 1370.94 Q120.394 1366.33 126.205 1366.33 Z" fill="#000000" fill-rule="nonzero" fill-opacity="1"></path><path clip-path="url(#clip730)" d="M146.366 1395.64 L151.251 1395.64 L151.251 1401.52 L146.366 1401.52 L146.366 1395.64 Z" fill="#000000" fill-rule="nonzero" fill-opacity="1"></path><path clip-path="url(#clip730)" d="M171.436 1370.04 Q167.825 1370.04 165.996 1373.6 Q164.19 1377.14 164.19 1384.27 Q164.19 1391.38 165.996 1394.94 Q167.825 1398.49 171.436 1398.49 Q175.07 1398.49 176.876 1394.94 Q178.704 1391.38 178.704 1384.27 Q178.704 1377.14 176.876 1373.6 Q175.07 1370.04 171.436 1370.04 M171.436 1366.33 Q177.246 1366.33 180.301 1370.94 Q183.38 1375.52 183.38 1384.27 Q183.38 1393 180.301 1397.61 Q177.246 1402.19 171.436 1402.19 Q165.626 1402.19 162.547 1397.61 Q159.491 1393 159.491 1384.27 Q159.491 1375.52 162.547 1370.94 Q165.626 1366.33 171.436 1366.33 Z" fill="#000000" fill-rule="nonzero" fill-opacity="1"></path><path clip-path="url(#clip730)" d="M127.2 1042.83 Q123.589 1042.83 121.76 1046.4 Q119.955 1049.94 119.955 1057.07 Q119.955 1064.17 121.76 1067.74 Q123.589 1071.28 127.2 1071.28 Q130.834 1071.28 132.64 1067.74 Q134.468 1064.17 134.468 1057.07 Q134.468 1049.94 132.64 1046.4 Q130.834 1042.83 127.2 1042.83 M127.2 1039.13 Q133.01 1039.13 136.066 1043.73 Q139.144 1048.32 139.144 1057.07 Q139.144 1065.79 136.066 1070.4 Q133.01 1074.98 127.2 1074.98 Q121.39 1074.98 118.311 1070.4 Q115.256 1065.79 115.256 1057.07 Q115.256 1048.32 118.311 1043.73 Q121.39 1039.13 127.2 1039.13 Z" fill="#000000" fill-rule="nonzero" fill-opacity="1"></path><path clip-path="url(#clip730)" d="M147.362 1068.43 L152.246 1068.43 L152.246 1074.31 L147.362 1074.31 L147.362 1068.43 Z" fill="#000000" fill-rule="nonzero" fill-opacity="1"></path><path clip-path="url(#clip730)" d="M162.477 1039.75 L180.834 1039.75 L180.834 1043.69 L166.76 1043.69 L166.76 1052.16 Q167.778 1051.81 168.797 1051.65 Q169.815 1051.47 170.834 1051.47 Q176.621 1051.47 180.001 1054.64 Q183.38 1057.81 183.38 1063.22 Q183.38 1068.8 179.908 1071.9 Q176.436 1074.98 170.116 1074.98 Q167.94 1074.98 165.672 1074.61 Q163.427 1074.24 161.019 1073.5 L161.019 1068.8 Q163.102 1069.94 165.325 1070.49 Q167.547 1071.05 170.024 1071.05 Q174.028 1071.05 176.366 1068.94 Q178.704 1066.84 178.704 1063.22 Q178.704 1059.61 176.366 1057.51 Q174.028 1055.4 170.024 1055.4 Q168.149 1055.4 166.274 1055.82 Q164.422 1056.23 162.477 1057.11 L162.477 1039.75 Z" fill="#000000" fill-rule="nonzero" fill-opacity="1"></path><path clip-path="url(#clip730)" d="M117.015 743.171 L124.654 743.171 L124.654 716.806 L116.343 718.472 L116.343 714.213 L124.607 712.546 L129.283 712.546 L129.283 743.171 L136.922 743.171 L136.922 747.106 L117.015 747.106 L117.015 743.171 Z" fill="#000000" fill-rule="nonzero" fill-opacity="1"></path><path clip-path="url(#clip730)" d="M146.366 741.227 L151.251 741.227 L151.251 747.106 L146.366 747.106 L146.366 741.227 Z" fill="#000000" fill-rule="nonzero" fill-opacity="1"></path><path clip-path="url(#clip730)" d="M171.436 715.625 Q167.825 715.625 165.996 719.19 Q164.19 722.731 164.19 729.861 Q164.19 736.967 165.996 740.532 Q167.825 744.074 171.436 744.074 Q175.07 744.074 176.876 740.532 Q178.704 736.967 178.704 729.861 Q178.704 722.731 176.876 719.19 Q175.07 715.625 171.436 715.625 M171.436 711.921 Q177.246 711.921 180.301 716.528 Q183.38 721.111 183.38 729.861 Q183.38 738.588 180.301 743.194 Q177.246 747.778 171.436 747.778 Q165.626 747.778 162.547 743.194 Q159.491 738.588 159.491 729.861 Q159.491 721.111 162.547 716.528 Q165.626 711.921 171.436 711.921 Z" fill="#000000" fill-rule="nonzero" fill-opacity="1"></path><path clip-path="url(#clip730)" d="M118.01 415.965 L125.649 415.965 L125.649 389.6 L117.339 391.266 L117.339 387.007 L125.603 385.34 L130.279 385.34 L130.279 415.965 L137.917 415.965 L137.917 419.9 L118.01 419.9 L118.01 415.965 Z" fill="#000000" fill-rule="nonzero" fill-opacity="1"></path><path clip-path="url(#clip730)" d="M147.362 414.021 L152.246 414.021 L152.246 419.9 L147.362 419.9 L147.362 414.021 Z" fill="#000000" fill-rule="nonzero" fill-opacity="1"></path><path clip-path="url(#clip730)" d="M162.477 385.34 L180.834 385.34 L180.834 389.276 L166.76 389.276 L166.76 397.748 Q167.778 397.4 168.797 397.238 Q169.815 397.053 170.834 397.053 Q176.621 397.053 180.001 400.225 Q183.38 403.396 183.38 408.812 Q183.38 414.391 179.908 417.493 Q176.436 420.572 170.116 420.572 Q167.94 420.572 165.672 420.201 Q163.427 419.831 161.019 419.09 L161.019 414.391 Q163.102 415.525 165.325 416.081 Q167.547 416.636 170.024 416.636 Q174.028 416.636 176.366 414.53 Q178.704 412.424 178.704 408.812 Q178.704 405.201 176.366 403.095 Q174.028 400.988 170.024 400.988 Q168.149 400.988 166.274 401.405 Q164.422 401.822 162.477 402.701 L162.477 385.34 Z" fill="#000000" fill-rule="nonzero" fill-opacity="1"></path><path clip-path="url(#clip730)" d="M120.232 88.7592 L136.552 88.7592 L136.552 92.6944 L114.607 92.6944 L114.607 88.7592 Q117.269 86.0046 121.853 81.375 Q126.459 76.7222 127.64 75.3797 Q129.885 72.8565 130.765 71.1204 Q131.667 69.3612 131.667 67.6714 Q131.667 64.9168 129.723 63.1807 Q127.802 61.4446 124.7 61.4446 Q122.501 61.4446 120.047 62.2084 Q117.617 62.9723 114.839 64.5232 L114.839 59.801 Q117.663 58.6668 120.117 58.0881 Q122.57 57.5094 124.607 57.5094 Q129.978 57.5094 133.172 60.1946 Q136.367 62.8797 136.367 67.3704 Q136.367 69.5001 135.556 71.4213 Q134.769 73.3195 132.663 75.9121 Q132.084 76.5834 128.982 79.8009 Q125.88 82.9954 120.232 88.7592 Z" fill="#000000" fill-rule="nonzero" fill-opacity="1"></path><path clip-path="url(#clip730)" d="M146.366 86.8148 L151.251 86.8148 L151.251 92.6944 L146.366 92.6944 L146.366 86.8148 Z" fill="#000000" fill-rule="nonzero" fill-opacity="1"></path><path clip-path="url(#clip730)" d="M171.436 61.2131 Q167.825 61.2131 165.996 64.7779 Q164.19 68.3195 164.19 75.4491 Q164.19 82.5555 165.996 86.1203 Q167.825 89.662 171.436 89.662 Q175.07 89.662 176.876 86.1203 Q178.704 82.5555 178.704 75.4491 Q178.704 68.3195 176.876 64.7779 Q175.07 61.2131 171.436 61.2131 M171.436 57.5094 Q177.246 57.5094 180.301 62.1158 Q183.38 66.6992 183.38 75.4491 Q183.38 84.1759 180.301 88.7824 Q177.246 93.3657 171.436 93.3657 Q165.626 93.3657 162.547 88.7824 Q159.491 84.1759 159.491 75.4491 Q159.491 66.6992 162.547 62.1158 Q165.626 57.5094 171.436 57.5094 Z" fill="#000000" fill-rule="nonzero" fill-opacity="1"></path><path clip-path="url(#clip730)" d="M21.7178 738.32 Q22.1687 738.32 23.2315 738.61 L48.4165 744.922 Q54.0203 746.307 57.9494 750.816 Q61.8785 755.293 61.8785 760.381 Q61.8785 763.441 60.236 765.405 Q58.6257 767.37 56.1459 767.37 Q53.9559 767.37 52.8931 766.21 Q51.8625 765.051 51.8625 763.666 Q51.8625 763.215 51.9913 762.732 Q52.1201 762.249 52.6676 761.734 Q53.2151 761.219 54.1491 761.219 Q55.6628 761.219 56.8544 762.539 Q57.4019 763.183 57.5307 763.795 Q57.6596 764.375 57.6596 765.373 Q58.5613 764.987 59.1732 764.278 Q59.7851 763.57 60.0106 762.764 Q60.2682 761.959 60.3326 761.444 Q60.4293 760.896 60.4293 760.381 Q60.4293 756.259 56.2747 753.103 Q55.0187 752.169 53.7626 751.492 Q52.5388 750.784 51.0252 750.269 Q49.5437 749.753 48.7385 749.528 Q47.9334 749.27 46.0977 748.819 Q49.0928 751.814 49.0928 755.486 Q49.0928 757.032 48.6741 758.417 Q48.2554 759.769 47.3859 760.961 Q46.4841 762.153 44.906 762.861 Q43.3279 763.537 41.2346 763.537 Q39.0124 763.537 35.985 762.668 Q32.9577 761.798 27.386 759.705 Q24.2621 758.578 22.7484 758.578 Q22.0077 758.578 21.5568 758.739 Q21.0737 758.9 20.9127 759.222 Q20.7194 759.544 20.6872 759.737 Q20.655 759.898 20.655 760.22 Q20.655 762.12 22.5874 763.892 Q24.5197 765.663 28.8353 766.887 Q29.6405 767.144 29.8337 767.305 Q30.0269 767.466 30.0269 767.95 Q29.9947 768.755 29.3506 768.755 Q29.093 768.755 28.0946 768.465 Q27.064 768.175 25.5503 767.499 Q24.0044 766.79 22.6196 765.824 Q21.2025 764.858 20.2041 763.344 Q19.2058 761.798 19.2058 760.027 Q19.2058 757.611 20.7838 756.13 Q22.3297 754.616 24.6163 754.616 Q25.5503 754.616 26.3877 754.874 Q27.1928 755.099 29.3506 755.937 Q38.0462 759.318 42.2974 759.318 Q43.3279 759.318 44.1975 759.157 Q45.0349 758.964 45.8722 758.545 Q46.6774 758.127 47.1604 757.289 Q47.6113 756.42 47.6113 755.228 Q47.6113 753.715 46.9028 752.298 Q46.1621 750.848 45.1637 749.946 Q44.1653 749.013 43.3279 748.465 Q42.4584 747.885 42.0075 747.756 L30.1558 744.794 L24.874 743.473 Q22.0077 742.861 21.2991 742.571 Q20.6228 742.185 20.2686 741.509 Q19.9143 740.832 19.9143 740.253 Q19.9143 739.447 20.3974 738.9 Q20.8805 738.32 21.7178 738.32 Z" fill="#000000" fill-rule="nonzero" fill-opacity="1"></path><path clip-path="url(#clip730)" d="M53.6652 731.574 L52.2224 731.574 Q52.2224 726.028 49.2691 723.165 Q49.2691 722.376 49.4494 722.241 Q49.6298 722.106 50.4639 722.106 L76.3671 722.106 Q77.7423 722.106 78.1706 721.429 Q78.599 720.753 78.599 717.8 L78.599 716.334 L80.0193 716.334 Q79.884 717.957 79.884 723.819 Q79.884 729.68 80.0193 731.281 L78.599 731.281 L78.599 729.816 Q78.599 726.907 78.1932 726.209 Q77.7648 725.51 76.3671 725.51 L52.4478 725.51 Q53.6652 727.922 53.6652 731.574 Z" fill="#000000" fill-rule="nonzero" fill-opacity="1"></path><polyline clip-path="url(#clip732)" style="stroke:#009af9; stroke-linecap:round; stroke-linejoin:round; stroke-width:4; stroke-opacity:1; fill:none" points="279.759,1384.24 363.618,1146.99 447.477,952.745 531.336,793.712 615.195,663.507 699.054,556.904 782.913,469.625 866.772,398.166 950.632,339.661 1034.49,291.762 1118.35,252.544 1202.21,220.436 1286.07,194.148 1369.93,172.625 1453.79,155.004 1537.65,140.577 1621.5,128.765 1705.36,119.094 1789.22,111.176 1873.08,104.694 1956.94,99.3863 2040.8,95.041 2124.66,91.4833 2208.52,88.5705 2292.38,86.1857 "></polyline>
</svg>