<svg xmlns="http://www.w3.org/2000/svg" xmlns:xlink="http://www.w3.org/1999/xlink" width="600" height="400" viewBox="0 0 2400 1600">
<defs>
  <clipPath id="clip850">
    <rect x="0" y="0" width="2400" height="1600"></rect>
  </clipPath>
</defs>
<path clip-path="url(#clip850)" d="M0 1600 L2400 1600 L2400 0 L0 0  Z" fill="#ffffff" fill-rule="evenodd" fill-opacity="1"></path>
<defs>
  <clipPath id="clip851">
    <rect x="480" y="0" width="1681" height="1600"></rect>
  </clipPath>
</defs>
<path clip-path="url(#clip850)" d="M249.542 1423.18 L1167.59 1423.18 L1167.59 47.2441 L249.542 47.2441  Z" fill="#ffffff" fill-rule="evenodd" fill-opacity="1"></path>
<defs>
  <clipPath id="clip852">
    <rect x="249" y="47" width="919" height="1377"></rect>
  </clipPath>
</defs>
<polyline clip-path="url(#clip852)" style="stroke:#000000; stroke-linecap:round; stroke-linejoin:round; stroke-width:2; stroke-opacity:0.1; fill:none" points="275.525,1423.18 275.525,47.2441 "></polyline>
<polyline clip-path="url(#clip852)" style="stroke:#000000; stroke-linecap:round; stroke-linejoin:round; stroke-width:2; stroke-opacity:0.1; fill:none" points="455.959,1423.18 455.959,47.2441 "></polyline>
<polyline clip-path="url(#clip852)" style="stroke:#000000; stroke-linecap:round; stroke-linejoin:round; stroke-width:2; stroke-opacity:0.1; fill:none" points="636.394,1423.18 636.394,47.2441 "></polyline>
<polyline clip-path="url(#clip852)" style="stroke:#000000; stroke-linecap:round; stroke-linejoin:round; stroke-width:2; stroke-opacity:0.1; fill:none" points="816.829,1423.18 816.829,47.2441 "></polyline>
<polyline clip-path="url(#clip852)" style="stroke:#000000; stroke-linecap:round; stroke-linejoin:round; stroke-width:2; stroke-opacity:0.1; fill:none" points="997.263,1423.18 997.263,47.2441 "></polyline>
<polyline clip-path="url(#clip850)" style="stroke:#000000; stroke-linecap:round; stroke-linejoin:round; stroke-width:4; stroke-opacity:1; fill:none" points="249.542,1423.18 1167.59,1423.18 "></polyline>
<polyline clip-path="url(#clip850)" style="stroke:#000000; stroke-linecap:round; stroke-linejoin:round; stroke-width:4; stroke-opacity:1; fill:none" points="275.525,1423.18 275.525,1404.28 "></polyline>
<polyline clip-path="url(#clip850)" style="stroke:#000000; stroke-linecap:round; stroke-linejoin:round; stroke-width:4; stroke-opacity:1; fill:none" points="455.959,1423.18 455.959,1404.28 "></polyline>
<polyline clip-path="url(#clip850)" style="stroke:#000000; stroke-linecap:round; stroke-linejoin:round; stroke-width:4; stroke-opacity:1; fill:none" points="636.394,1423.18 636.394,1404.28 "></polyline>
<polyline clip-path="url(#clip850)" style="stroke:#000000; stroke-linecap:round; stroke-linejoin:round; stroke-width:4; stroke-opacity:1; fill:none" points="816.829,1423.18 816.829,1404.28 "></polyline>
<polyline clip-path="url(#clip850)" style="stroke:#000000; stroke-linecap:round; stroke-linejoin:round; stroke-width:4; stroke-opacity:1; fill:none" points="997.263,1423.18 997.263,1404.28 "></polyline>
<path clip-path="url(#clip850)" d="M275.525 1454.1 Q271.914 1454.1 270.085 1457.66 Q268.279 1461.2 268.279 1468.33 Q268.279 1475.44 270.085 1479.01 Q271.914 1482.55 275.525 1482.55 Q279.159 1482.55 280.964 1479.01 Q282.793 1475.44 282.793 1468.33 Q282.793 1461.2 280.964 1457.66 Q279.159 1454.1 275.525 1454.1 M275.525 1450.39 Q281.335 1450.39 284.39 1455 Q287.469 1459.58 287.469 1468.33 Q287.469 1477.06 284.39 1481.67 Q281.335 1486.25 275.525 1486.25 Q269.714 1486.25 266.636 1481.67 Q263.58 1477.06 263.58 1468.33 Q263.58 1459.58 266.636 1455 Q269.714 1450.39 275.525 1450.39 Z" fill="#000000" fill-rule="nonzero" fill-opacity="1"></path><path clip-path="url(#clip850)" d="M446.237 1451.02 L464.594 1451.02 L464.594 1454.96 L450.52 1454.96 L450.52 1463.43 Q451.538 1463.08 452.557 1462.92 Q453.575 1462.73 454.594 1462.73 Q460.381 1462.73 463.76 1465.9 Q467.14 1469.08 467.14 1474.49 Q467.14 1480.07 463.668 1483.17 Q460.195 1486.25 453.876 1486.25 Q451.7 1486.25 449.432 1485.88 Q447.186 1485.51 444.779 1484.77 L444.779 1480.07 Q446.862 1481.2 449.084 1481.76 Q451.307 1482.32 453.783 1482.32 Q457.788 1482.32 460.126 1480.21 Q462.464 1478.1 462.464 1474.49 Q462.464 1470.88 460.126 1468.77 Q457.788 1466.67 453.783 1466.67 Q451.908 1466.67 450.033 1467.08 Q448.182 1467.5 446.237 1468.38 L446.237 1451.02 Z" fill="#000000" fill-rule="nonzero" fill-opacity="1"></path><path clip-path="url(#clip850)" d="M611.082 1481.64 L618.721 1481.64 L618.721 1455.28 L610.41 1456.95 L610.41 1452.69 L618.674 1451.02 L623.35 1451.02 L623.35 1481.64 L630.989 1481.64 L630.989 1485.58 L611.082 1485.58 L611.082 1481.64 Z" fill="#000000" fill-rule="nonzero" fill-opacity="1"></path><path clip-path="url(#clip850)" d="M650.433 1454.1 Q646.822 1454.1 644.994 1457.66 Q643.188 1461.2 643.188 1468.33 Q643.188 1475.44 644.994 1479.01 Q646.822 1482.55 650.433 1482.55 Q654.068 1482.55 655.873 1479.01 Q657.702 1475.44 657.702 1468.33 Q657.702 1461.2 655.873 1457.66 Q654.068 1454.1 650.433 1454.1 M650.433 1450.39 Q656.243 1450.39 659.299 1455 Q662.378 1459.58 662.378 1468.33 Q662.378 1477.06 659.299 1481.67 Q656.243 1486.25 650.433 1486.25 Q644.623 1486.25 641.544 1481.67 Q638.489 1477.06 638.489 1468.33 Q638.489 1459.58 641.544 1455 Q644.623 1450.39 650.433 1450.39 Z" fill="#000000" fill-rule="nonzero" fill-opacity="1"></path><path clip-path="url(#clip850)" d="M792.014 1481.64 L799.653 1481.64 L799.653 1455.28 L791.343 1456.95 L791.343 1452.69 L799.607 1451.02 L804.283 1451.02 L804.283 1481.64 L811.921 1481.64 L811.921 1485.58 L792.014 1485.58 L792.014 1481.64 Z" fill="#000000" fill-rule="nonzero" fill-opacity="1"></path><path clip-path="url(#clip850)" d="M821.412 1451.02 L839.768 1451.02 L839.768 1454.96 L825.694 1454.96 L825.694 1463.43 Q826.713 1463.08 827.731 1462.92 Q828.75 1462.73 829.768 1462.73 Q835.555 1462.73 838.935 1465.9 Q842.315 1469.08 842.315 1474.49 Q842.315 1480.07 838.843 1483.17 Q835.37 1486.25 829.051 1486.25 Q826.875 1486.25 824.606 1485.88 Q822.361 1485.51 819.954 1484.77 L819.954 1480.07 Q822.037 1481.2 824.259 1481.76 Q826.481 1482.32 828.958 1482.32 Q832.963 1482.32 835.301 1480.21 Q837.639 1478.1 837.639 1474.49 Q837.639 1470.88 835.301 1468.77 Q832.963 1466.67 828.958 1466.67 Q827.083 1466.67 825.208 1467.08 Q823.356 1467.5 821.412 1468.38 L821.412 1451.02 Z" fill="#000000" fill-rule="nonzero" fill-opacity="1"></path><path clip-path="url(#clip850)" d="M976.037 1481.64 L992.356 1481.64 L992.356 1485.58 L970.412 1485.58 L970.412 1481.64 Q973.074 1478.89 977.657 1474.26 Q982.264 1469.61 983.444 1468.27 Q985.689 1465.74 986.569 1464.01 Q987.472 1462.25 987.472 1460.56 Q987.472 1457.8 985.527 1456.07 Q983.606 1454.33 980.504 1454.33 Q978.305 1454.33 975.852 1455.09 Q973.421 1455.86 970.643 1457.41 L970.643 1452.69 Q973.467 1451.55 975.921 1450.97 Q978.375 1450.39 980.412 1450.39 Q985.782 1450.39 988.976 1453.08 Q992.171 1455.77 992.171 1460.26 Q992.171 1462.39 991.361 1464.31 Q990.574 1466.2 988.467 1468.8 Q987.888 1469.47 984.787 1472.69 Q981.685 1475.88 976.037 1481.64 Z" fill="#000000" fill-rule="nonzero" fill-opacity="1"></path><path clip-path="url(#clip850)" d="M1012.17 1454.1 Q1008.56 1454.1 1006.73 1457.66 Q1004.93 1461.2 1004.93 1468.33 Q1004.93 1475.44 1006.73 1479.01 Q1008.56 1482.55 1012.17 1482.55 Q1015.8 1482.55 1017.61 1479.01 Q1019.44 1475.44 1019.44 1468.33 Q1019.44 1461.2 1017.61 1457.66 Q1015.8 1454.1 1012.17 1454.1 M1012.17 1450.39 Q1017.98 1450.39 1021.04 1455 Q1024.12 1459.58 1024.12 1468.33 Q1024.12 1477.06 1021.04 1481.67 Q1017.98 1486.25 1012.17 1486.25 Q1006.36 1486.25 1003.28 1481.67 Q1000.23 1477.06 1000.23 1468.33 Q1000.23 1459.58 1003.28 1455 Q1006.36 1450.39 1012.17 1450.39 Z" fill="#000000" fill-rule="nonzero" fill-opacity="1"></path><path clip-path="url(#clip850)" d="M578.739 1520.52 L618.939 1520.52 L618.939 1525.93 L602.07 1525.93 L602.07 1568.04 L595.608 1568.04 L595.608 1525.93 L578.739 1525.93 L578.739 1520.52 Z" fill="#000000" fill-rule="nonzero" fill-opacity="1"></path><path clip-path="url(#clip850)" d="M622.885 1532.4 L628.742 1532.4 L628.742 1568.04 L622.885 1568.04 L622.885 1532.4 M622.885 1518.52 L628.742 1518.52 L628.742 1525.93 L622.885 1525.93 L622.885 1518.52 Z" fill="#000000" fill-rule="nonzero" fill-opacity="1"></path><path clip-path="url(#clip850)" d="M668.75 1539.24 Q670.947 1535.29 674.002 1533.41 Q677.058 1531.54 681.195 1531.54 Q686.765 1531.54 689.789 1535.45 Q692.813 1539.33 692.813 1546.53 L692.813 1568.04 L686.925 1568.04 L686.925 1546.72 Q686.925 1541.59 685.11 1539.11 Q683.296 1536.63 679.572 1536.63 Q675.021 1536.63 672.379 1539.65 Q669.737 1542.68 669.737 1547.9 L669.737 1568.04 L663.849 1568.04 L663.849 1546.72 Q663.849 1541.56 662.035 1539.11 Q660.22 1536.63 656.433 1536.63 Q651.945 1536.63 649.303 1539.68 Q646.661 1542.71 646.661 1547.9 L646.661 1568.04 L640.773 1568.04 L640.773 1532.4 L646.661 1532.4 L646.661 1537.93 Q648.667 1534.66 651.468 1533.1 Q654.268 1531.54 658.12 1531.54 Q662.003 1531.54 664.708 1533.51 Q667.445 1535.48 668.75 1539.24 Z" fill="#000000" fill-rule="nonzero" fill-opacity="1"></path><path clip-path="url(#clip850)" d="M734.986 1548.76 L734.986 1551.62 L708.059 1551.62 Q708.441 1557.67 711.687 1560.85 Q714.965 1564 720.79 1564 Q724.164 1564 727.315 1563.17 Q730.498 1562.35 733.617 1560.69 L733.617 1566.23 Q730.466 1567.57 727.156 1568.27 Q723.846 1568.97 720.44 1568.97 Q711.91 1568.97 706.913 1564 Q701.948 1559.04 701.948 1550.57 Q701.948 1541.82 706.658 1536.69 Q711.401 1531.54 719.421 1531.54 Q726.615 1531.54 730.784 1536.18 Q734.986 1540.8 734.986 1548.76 M729.129 1547.04 Q729.065 1542.23 726.424 1539.37 Q723.814 1536.5 719.485 1536.5 Q714.584 1536.5 711.623 1539.27 Q708.695 1542.04 708.25 1547.07 L729.129 1547.04 Z" fill="#000000" fill-rule="nonzero" fill-opacity="1"></path><path clip-path="url(#clip850)" d="M779.386 1518.58 Q775.121 1525.9 773.053 1533.06 Q770.984 1540.23 770.984 1547.58 Q770.984 1554.93 773.053 1562.16 Q775.153 1569.35 779.386 1576.64 L774.294 1576.64 Q769.52 1569.16 767.132 1561.93 Q764.777 1554.71 764.777 1547.58 Q764.777 1540.48 767.132 1533.29 Q769.488 1526.09 774.294 1518.58 L779.386 1518.58 Z" fill="#000000" fill-rule="nonzero" fill-opacity="1"></path><path clip-path="url(#clip850)" d="M813.475 1533.45 L813.475 1538.98 Q810.992 1537.71 808.319 1537.07 Q805.645 1536.44 802.78 1536.44 Q798.42 1536.44 796.224 1537.77 Q794.059 1539.11 794.059 1541.79 Q794.059 1543.82 795.619 1545 Q797.179 1546.15 801.889 1547.2 L803.894 1547.64 Q810.133 1548.98 812.743 1551.43 Q815.384 1553.85 815.384 1558.21 Q815.384 1563.17 811.438 1566.07 Q807.523 1568.97 800.648 1568.97 Q797.783 1568.97 794.664 1568.39 Q791.577 1567.85 788.139 1566.74 L788.139 1560.69 Q791.386 1562.38 794.537 1563.24 Q797.688 1564.07 800.775 1564.07 Q804.913 1564.07 807.141 1562.66 Q809.369 1561.23 809.369 1558.65 Q809.369 1556.27 807.746 1554.99 Q806.154 1553.72 800.712 1552.54 L798.674 1552.07 Q793.232 1550.92 790.813 1548.56 Q788.394 1546.18 788.394 1542.04 Q788.394 1537.01 791.959 1534.27 Q795.523 1531.54 802.08 1531.54 Q805.327 1531.54 808.191 1532.01 Q811.056 1532.49 813.475 1533.45 Z" fill="#000000" fill-rule="nonzero" fill-opacity="1"></path><path clip-path="url(#clip850)" d="M823.787 1518.58 L828.88 1518.58 Q833.654 1526.09 836.009 1533.29 Q838.396 1540.48 838.396 1547.58 Q838.396 1554.71 836.009 1561.93 Q833.654 1569.16 828.88 1576.64 L823.787 1576.64 Q828.02 1569.35 830.089 1562.16 Q832.19 1554.93 832.19 1547.58 Q832.19 1540.23 830.089 1533.06 Q828.02 1525.9 823.787 1518.58 Z" fill="#000000" fill-rule="nonzero" fill-opacity="1"></path><polyline clip-path="url(#clip852)" style="stroke:#000000; stroke-linecap:round; stroke-linejoin:round; stroke-width:2; stroke-opacity:0.1; fill:none" points="249.542,1189.53 1167.59,1189.53 "></polyline>
<polyline clip-path="url(#clip852)" style="stroke:#000000; stroke-linecap:round; stroke-linejoin:round; stroke-width:2; stroke-opacity:0.1; fill:none" points="249.542,913.694 1167.59,913.694 "></polyline>
<polyline clip-path="url(#clip852)" style="stroke:#000000; stroke-linecap:round; stroke-linejoin:round; stroke-width:2; stroke-opacity:0.1; fill:none" points="249.542,637.858 1167.59,637.858 "></polyline>
<polyline clip-path="url(#clip852)" style="stroke:#000000; stroke-linecap:round; stroke-linejoin:round; stroke-width:2; stroke-opacity:0.1; fill:none" points="249.542,362.022 1167.59,362.022 "></polyline>
<polyline clip-path="url(#clip852)" style="stroke:#000000; stroke-linecap:round; stroke-linejoin:round; stroke-width:2; stroke-opacity:0.1; fill:none" points="249.542,86.1857 1167.59,86.1857 "></polyline>
<polyline clip-path="url(#clip850)" style="stroke:#000000; stroke-linecap:round; stroke-linejoin:round; stroke-width:4; stroke-opacity:1; fill:none" points="249.542,1423.18 249.542,47.2441 "></polyline>
<polyline clip-path="url(#clip850)" style="stroke:#000000; stroke-linecap:round; stroke-linejoin:round; stroke-width:4; stroke-opacity:1; fill:none" points="249.542,1189.53 268.44,1189.53 "></polyline>
<polyline clip-path="url(#clip850)" style="stroke:#000000; stroke-linecap:round; stroke-linejoin:round; stroke-width:4; stroke-opacity:1; fill:none" points="249.542,913.694 268.44,913.694 "></polyline>
<polyline clip-path="url(#clip850)" style="stroke:#000000; stroke-linecap:round; stroke-linejoin:round; stroke-width:4; stroke-opacity:1; fill:none" points="249.542,637.858 268.44,637.858 "></polyline>
<polyline clip-path="url(#clip850)" style="stroke:#000000; stroke-linecap:round; stroke-linejoin:round; stroke-width:4; stroke-opacity:1; fill:none" points="249.542,362.022 268.44,362.022 "></polyline>
<polyline clip-path="url(#clip850)" style="stroke:#000000; stroke-linecap:round; stroke-linejoin:round; stroke-width:4; stroke-opacity:1; fill:none" points="249.542,86.1857 268.44,86.1857 "></polyline>
<path clip-path="url(#clip850)" d="M126.205 1175.33 Q122.593 1175.33 120.765 1178.89 Q118.959 1182.44 118.959 1189.57 Q118.959 1196.67 120.765 1200.24 Q122.593 1203.78 126.205 1203.78 Q129.839 1203.78 131.644 1200.24 Q133.473 1196.67 133.473 1189.57 Q133.473 1182.44 131.644 1178.89 Q129.839 1175.33 126.205 1175.33 M126.205 1171.63 Q132.015 1171.63 135.07 1176.23 Q138.149 1180.82 138.149 1189.57 Q138.149 1198.29 135.07 1202.9 Q132.015 1207.48 126.205 1207.48 Q120.394 1207.48 117.316 1202.9 Q114.26 1198.29 114.26 1189.57 Q114.26 1180.82 117.316 1176.23 Q120.394 1171.63 126.205 1171.63 Z" fill="#000000" fill-rule="nonzero" fill-opacity="1"></path><path clip-path="url(#clip850)" d="M146.366 1200.93 L151.251 1200.93 L151.251 1206.81 L146.366 1206.81 L146.366 1200.93 Z" fill="#000000" fill-rule="nonzero" fill-opacity="1"></path><path clip-path="url(#clip850)" d="M171.436 1190.4 Q168.102 1190.4 166.181 1192.18 Q164.283 1193.96 164.283 1197.09 Q164.283 1200.21 166.181 1202 Q168.102 1203.78 171.436 1203.78 Q174.769 1203.78 176.69 1202 Q178.612 1200.19 178.612 1197.09 Q178.612 1193.96 176.69 1192.18 Q174.792 1190.4 171.436 1190.4 M166.76 1188.41 Q163.751 1187.67 162.061 1185.61 Q160.394 1183.55 160.394 1180.58 Q160.394 1176.44 163.334 1174.03 Q166.297 1171.63 171.436 1171.63 Q176.598 1171.63 179.538 1174.03 Q182.477 1176.44 182.477 1180.58 Q182.477 1183.55 180.788 1185.61 Q179.121 1187.67 176.135 1188.41 Q179.514 1189.19 181.389 1191.49 Q183.288 1193.78 183.288 1197.09 Q183.288 1202.11 180.209 1204.8 Q177.153 1207.48 171.436 1207.48 Q165.718 1207.48 162.64 1204.8 Q159.584 1202.11 159.584 1197.09 Q159.584 1193.78 161.482 1191.49 Q163.38 1189.19 166.76 1188.41 M165.047 1181.02 Q165.047 1183.71 166.714 1185.21 Q168.403 1186.72 171.436 1186.72 Q174.445 1186.72 176.135 1185.21 Q177.848 1183.71 177.848 1181.02 Q177.848 1178.34 176.135 1176.83 Q174.445 1175.33 171.436 1175.33 Q168.403 1175.33 166.714 1176.83 Q165.047 1178.34 165.047 1181.02 Z" fill="#000000" fill-rule="nonzero" fill-opacity="1"></path><path clip-path="url(#clip850)" d="M201.598 1175.33 Q197.987 1175.33 196.158 1178.89 Q194.352 1182.44 194.352 1189.57 Q194.352 1196.67 196.158 1200.24 Q197.987 1203.78 201.598 1203.78 Q205.232 1203.78 207.037 1200.24 Q208.866 1196.67 208.866 1189.57 Q208.866 1182.44 207.037 1178.89 Q205.232 1175.33 201.598 1175.33 M201.598 1171.63 Q207.408 1171.63 210.463 1176.23 Q213.542 1180.82 213.542 1189.57 Q213.542 1198.29 210.463 1202.9 Q207.408 1207.48 201.598 1207.48 Q195.787 1207.48 192.709 1202.9 Q189.653 1198.29 189.653 1189.57 Q189.653 1180.82 192.709 1176.23 Q195.787 1171.63 201.598 1171.63 Z" fill="#000000" fill-rule="nonzero" fill-opacity="1"></path><path clip-path="url(#clip850)" d="M127.2 899.493 Q123.589 899.493 121.76 903.058 Q119.955 906.599 119.955 913.729 Q119.955 920.835 121.76 924.4 Q123.589 927.942 127.2 927.942 Q130.834 927.942 132.64 924.4 Q134.468 920.835 134.468 913.729 Q134.468 906.599 132.64 903.058 Q130.834 899.493 127.2 899.493 M127.2 895.789 Q133.01 895.789 136.066 900.396 Q139.144 904.979 139.144 913.729 Q139.144 922.456 136.066 927.062 Q133.01 931.645 127.2 931.645 Q121.39 931.645 118.311 927.062 Q115.256 922.456 115.256 913.729 Q115.256 904.979 118.311 900.396 Q121.39 895.789 127.2 895.789 Z" fill="#000000" fill-rule="nonzero" fill-opacity="1"></path><path clip-path="url(#clip850)" d="M147.362 925.095 L152.246 925.095 L152.246 930.974 L147.362 930.974 L147.362 925.095 Z" fill="#000000" fill-rule="nonzero" fill-opacity="1"></path><path clip-path="url(#clip850)" d="M172.431 914.562 Q169.098 914.562 167.177 916.345 Q165.278 918.127 165.278 921.252 Q165.278 924.377 167.177 926.159 Q169.098 927.942 172.431 927.942 Q175.764 927.942 177.686 926.159 Q179.607 924.354 179.607 921.252 Q179.607 918.127 177.686 916.345 Q175.788 914.562 172.431 914.562 M167.755 912.572 Q164.746 911.831 163.056 909.771 Q161.39 907.71 161.39 904.747 Q161.39 900.604 164.329 898.197 Q167.292 895.789 172.431 895.789 Q177.593 895.789 180.533 898.197 Q183.473 900.604 183.473 904.747 Q183.473 907.71 181.783 909.771 Q180.116 911.831 177.13 912.572 Q180.51 913.359 182.385 915.65 Q184.283 917.942 184.283 921.252 Q184.283 926.275 181.204 928.96 Q178.149 931.645 172.431 931.645 Q166.714 931.645 163.635 928.96 Q160.579 926.275 160.579 921.252 Q160.579 917.942 162.477 915.65 Q164.376 913.359 167.755 912.572 M166.042 905.187 Q166.042 907.872 167.709 909.377 Q169.399 910.882 172.431 910.882 Q175.44 910.882 177.13 909.377 Q178.843 907.872 178.843 905.187 Q178.843 902.502 177.13 900.998 Q175.44 899.493 172.431 899.493 Q169.399 899.493 167.709 900.998 Q166.042 902.502 166.042 905.187 Z" fill="#000000" fill-rule="nonzero" fill-opacity="1"></path><path clip-path="url(#clip850)" d="M192.639 896.414 L210.996 896.414 L210.996 900.349 L196.922 900.349 L196.922 908.822 Q197.94 908.474 198.959 908.312 Q199.977 908.127 200.996 908.127 Q206.783 908.127 210.162 911.298 Q213.542 914.47 213.542 919.886 Q213.542 925.465 210.07 928.567 Q206.598 931.645 200.278 931.645 Q198.102 931.645 195.834 931.275 Q193.588 930.905 191.181 930.164 L191.181 925.465 Q193.264 926.599 195.487 927.155 Q197.709 927.71 200.186 927.71 Q204.19 927.71 206.528 925.604 Q208.866 923.497 208.866 919.886 Q208.866 916.275 206.528 914.169 Q204.19 912.062 200.186 912.062 Q198.311 912.062 196.436 912.479 Q194.584 912.896 192.639 913.775 L192.639 896.414 Z" fill="#000000" fill-rule="nonzero" fill-opacity="1"></path><path clip-path="url(#clip850)" d="M126.205 623.657 Q122.593 623.657 120.765 627.222 Q118.959 630.763 118.959 637.893 Q118.959 644.999 120.765 648.564 Q122.593 652.106 126.205 652.106 Q129.839 652.106 131.644 648.564 Q133.473 644.999 133.473 637.893 Q133.473 630.763 131.644 627.222 Q129.839 623.657 126.205 623.657 M126.205 619.953 Q132.015 619.953 135.07 624.559 Q138.149 629.143 138.149 637.893 Q138.149 646.62 135.07 651.226 Q132.015 655.809 126.205 655.809 Q120.394 655.809 117.316 651.226 Q114.26 646.62 114.26 637.893 Q114.26 629.143 117.316 624.559 Q120.394 619.953 126.205 619.953 Z" fill="#000000" fill-rule="nonzero" fill-opacity="1"></path><path clip-path="url(#clip850)" d="M146.366 649.258 L151.251 649.258 L151.251 655.138 L146.366 655.138 L146.366 649.258 Z" fill="#000000" fill-rule="nonzero" fill-opacity="1"></path><path clip-path="url(#clip850)" d="M161.575 654.42 L161.575 650.161 Q163.334 650.995 165.14 651.434 Q166.945 651.874 168.681 651.874 Q173.311 651.874 175.741 648.772 Q178.195 645.647 178.542 639.305 Q177.2 641.296 175.139 642.36 Q173.079 643.425 170.579 643.425 Q165.394 643.425 162.362 640.3 Q159.353 637.152 159.353 631.712 Q159.353 626.388 162.501 623.171 Q165.649 619.953 170.88 619.953 Q176.876 619.953 180.024 624.559 Q183.195 629.143 183.195 637.893 Q183.195 646.064 179.306 650.948 Q175.44 655.809 168.889 655.809 Q167.13 655.809 165.325 655.462 Q163.519 655.115 161.575 654.42 M170.88 639.768 Q174.028 639.768 175.857 637.615 Q177.709 635.462 177.709 631.712 Q177.709 627.985 175.857 625.833 Q174.028 623.657 170.88 623.657 Q167.732 623.657 165.88 625.833 Q164.052 627.985 164.052 631.712 Q164.052 635.462 165.88 637.615 Q167.732 639.768 170.88 639.768 Z" fill="#000000" fill-rule="nonzero" fill-opacity="1"></path><path clip-path="url(#clip850)" d="M201.598 623.657 Q197.987 623.657 196.158 627.222 Q194.352 630.763 194.352 637.893 Q194.352 644.999 196.158 648.564 Q197.987 652.106 201.598 652.106 Q205.232 652.106 207.037 648.564 Q208.866 644.999 208.866 637.893 Q208.866 630.763 207.037 627.222 Q205.232 623.657 201.598 623.657 M201.598 619.953 Q207.408 619.953 210.463 624.559 Q213.542 629.143 213.542 637.893 Q213.542 646.62 210.463 651.226 Q207.408 655.809 201.598 655.809 Q195.787 655.809 192.709 651.226 Q189.653 646.62 189.653 637.893 Q189.653 629.143 192.709 624.559 Q195.787 619.953 201.598 619.953 Z" fill="#000000" fill-rule="nonzero" fill-opacity="1"></path><path clip-path="url(#clip850)" d="M127.2 347.821 Q123.589 347.821 121.76 351.385 Q119.955 354.927 119.955 362.057 Q119.955 369.163 121.76 372.728 Q123.589 376.269 127.2 376.269 Q130.834 376.269 132.64 372.728 Q134.468 369.163 134.468 362.057 Q134.468 354.927 132.64 351.385 Q130.834 347.821 127.2 347.821 M127.2 344.117 Q133.01 344.117 136.066 348.723 Q139.144 353.307 139.144 362.057 Q139.144 370.783 136.066 375.39 Q133.01 379.973 127.2 379.973 Q121.39 379.973 118.311 375.39 Q115.256 370.783 115.256 362.057 Q115.256 353.307 118.311 348.723 Q121.39 344.117 127.2 344.117 Z" fill="#000000" fill-rule="nonzero" fill-opacity="1"></path><path clip-path="url(#clip850)" d="M147.362 373.422 L152.246 373.422 L152.246 379.302 L147.362 379.302 L147.362 373.422 Z" fill="#000000" fill-rule="nonzero" fill-opacity="1"></path><path clip-path="url(#clip850)" d="M162.57 378.584 L162.57 374.325 Q164.329 375.158 166.135 375.598 Q167.94 376.038 169.677 376.038 Q174.306 376.038 176.737 372.936 Q179.19 369.811 179.538 363.469 Q178.195 365.459 176.135 366.524 Q174.075 367.589 171.575 367.589 Q166.39 367.589 163.357 364.464 Q160.348 361.316 160.348 355.876 Q160.348 350.552 163.496 347.334 Q166.644 344.117 171.876 344.117 Q177.871 344.117 181.019 348.723 Q184.19 353.307 184.19 362.057 Q184.19 370.228 180.301 375.112 Q176.436 379.973 169.885 379.973 Q168.126 379.973 166.32 379.626 Q164.515 379.279 162.57 378.584 M171.876 363.932 Q175.024 363.932 176.852 361.779 Q178.704 359.626 178.704 355.876 Q178.704 352.149 176.852 349.996 Q175.024 347.821 171.876 347.821 Q168.727 347.821 166.876 349.996 Q165.047 352.149 165.047 355.876 Q165.047 359.626 166.876 361.779 Q168.727 363.932 171.876 363.932 Z" fill="#000000" fill-rule="nonzero" fill-opacity="1"></path><path clip-path="url(#clip850)" d="M192.639 344.742 L210.996 344.742 L210.996 348.677 L196.922 348.677 L196.922 357.149 Q197.94 356.802 198.959 356.64 Q199.977 356.455 200.996 356.455 Q206.783 356.455 210.162 359.626 Q213.542 362.797 213.542 368.214 Q213.542 373.793 210.07 376.894 Q206.598 379.973 200.278 379.973 Q198.102 379.973 195.834 379.603 Q193.588 379.232 191.181 378.492 L191.181 373.793 Q193.264 374.927 195.487 375.482 Q197.709 376.038 200.186 376.038 Q204.19 376.038 206.528 373.932 Q208.866 371.825 208.866 368.214 Q208.866 364.603 206.528 362.496 Q204.19 360.39 200.186 360.39 Q198.311 360.39 196.436 360.807 Q194.584 361.223 192.639 362.103 L192.639 344.742 Z" fill="#000000" fill-rule="nonzero" fill-opacity="1"></path><path clip-path="url(#clip850)" d="M117.015 99.5305 L124.654 99.5305 L124.654 73.1649 L116.343 74.8316 L116.343 70.5723 L124.607 68.9057 L129.283 68.9057 L129.283 99.5305 L136.922 99.5305 L136.922 103.466 L117.015 103.466 L117.015 99.5305 Z" fill="#000000" fill-rule="nonzero" fill-opacity="1"></path><path clip-path="url(#clip850)" d="M146.366 97.5861 L151.251 97.5861 L151.251 103.466 L146.366 103.466 L146.366 97.5861 Z" fill="#000000" fill-rule="nonzero" fill-opacity="1"></path><path clip-path="url(#clip850)" d="M171.436 71.9844 Q167.825 71.9844 165.996 75.5492 Q164.19 79.0908 164.19 86.2204 Q164.19 93.3268 165.996 96.8916 Q167.825 100.433 171.436 100.433 Q175.07 100.433 176.876 96.8916 Q178.704 93.3268 178.704 86.2204 Q178.704 79.0908 176.876 75.5492 Q175.07 71.9844 171.436 71.9844 M171.436 68.2807 Q177.246 68.2807 180.301 72.8871 Q183.38 77.4704 183.38 86.2204 Q183.38 94.9472 180.301 99.5537 Q177.246 104.137 171.436 104.137 Q165.626 104.137 162.547 99.5537 Q159.491 94.9472 159.491 86.2204 Q159.491 77.4704 162.547 72.8871 Q165.626 68.2807 171.436 68.2807 Z" fill="#000000" fill-rule="nonzero" fill-opacity="1"></path><path clip-path="url(#clip850)" d="M201.598 71.9844 Q197.987 71.9844 196.158 75.5492 Q194.352 79.0908 194.352 86.2204 Q194.352 93.3268 196.158 96.8916 Q197.987 100.433 201.598 100.433 Q205.232 100.433 207.037 96.8916 Q208.866 93.3268 208.866 86.2204 Q208.866 79.0908 207.037 75.5492 Q205.232 71.9844 201.598 71.9844 M201.598 68.2807 Q207.408 68.2807 210.463 72.8871 Q213.542 77.4704 213.542 86.2204 Q213.542 94.9472 210.463 99.5537 Q207.408 104.137 201.598 104.137 Q195.787 104.137 192.709 99.5537 Q189.653 94.9472 189.653 86.2204 Q189.653 77.4704 192.709 72.8871 Q195.787 68.2807 201.598 68.2807 Z" fill="#000000" fill-rule="nonzero" fill-opacity="1"></path><path clip-path="url(#clip850)" d="M21.7178 738.32 Q22.1687 738.32 23.2315 738.61 L48.4165 744.922 Q54.0203 746.307 57.9494 750.816 Q61.8785 755.293 61.8785 760.381 Q61.8785 763.441 60.236 765.405 Q58.6257 767.37 56.1459 767.37 Q53.9559 767.37 52.8931 766.21 Q51.8625 765.051 51.8625 763.666 Q51.8625 763.215 51.9913 762.732 Q52.1201 762.249 52.6676 761.734 Q53.2151 761.219 54.1491 761.219 Q55.6628 761.219 56.8544 762.539 Q57.4019 763.183 57.5307 763.795 Q57.6596 764.375 57.6596 765.373 Q58.5613 764.987 59.1732 764.278 Q59.7851 763.57 60.0106 762.764 Q60.2682 761.959 60.3326 761.444 Q60.4293 760.896 60.4293 760.381 Q60.4293 756.259 56.2747 753.103 Q55.0187 752.169 53.7626 751.492 Q52.5388 750.784 51.0252 750.269 Q49.5437 749.753 48.7385 749.528 Q47.9334 749.27 46.0977 748.819 Q49.0928 751.814 49.0928 755.486 Q49.0928 757.032 48.6741 758.417 Q48.2554 759.769 47.3859 760.961 Q46.4841 762.153 44.906 762.861 Q43.3279 763.537 41.2346 763.537 Q39.0124 763.537 35.985 762.668 Q32.9577 761.798 27.386 759.705 Q24.2621 758.578 22.7484 758.578 Q22.0077 758.578 21.5568 758.739 Q21.0737 758.9 20.9127 759.222 Q20.7194 759.544 20.6872 759.737 Q20.655 759.898 20.655 760.22 Q20.655 762.12 22.5874 763.892 Q24.5197 765.663 28.8353 766.887 Q29.6405 767.144 29.8337 767.305 Q30.0269 767.466 30.0269 767.95 Q29.9947 768.755 29.3506 768.755 Q29.093 768.755 28.0946 768.465 Q27.064 768.175 25.5503 767.499 Q24.0044 766.79 22.6196 765.824 Q21.2025 764.858 20.2041 763.344 Q19.2058 761.798 19.2058 760.027 Q19.2058 757.611 20.7838 756.13 Q22.3297 754.616 24.6163 754.616 Q25.5503 754.616 26.3877 754.874 Q27.1928 755.099 29.3506 755.937 Q38.0462 759.318 42.2974 759.318 Q43.3279 759.318 44.1975 759.157 Q45.0349 758.964 45.8722 758.545 Q46.6774 758.127 47.1604 757.289 Q47.6113 756.42 47.6113 755.228 Q47.6113 753.715 46.9028 752.298 Q46.1621 750.848 45.1637 749.946 Q44.1653 749.013 43.3279 748.465 Q42.4584 747.885 42.0075 747.756 L30.1558 744.794 L24.874 743.473 Q22.0077 742.861 21.2991 742.571 Q20.6228 742.185 20.2686 741.509 Q19.9143 740.832 19.9143 740.253 Q19.9143 739.447 20.3974 738.9 Q20.8805 738.32 21.7178 738.32 Z" fill="#000000" fill-rule="nonzero" fill-opacity="1"></path><path clip-path="url(#clip850)" d="M53.6652 731.574 L52.2224 731.574 Q52.2224 726.028 49.2691 723.165 Q49.2691 722.376 49.4494 722.241 Q49.6298 722.106 50.4639 722.106 L76.3671 722.106 Q77.7423 722.106 78.1706 721.429 Q78.599 720.753 78.599 717.8 L78.599 716.334 L80.0193 716.334 Q79.884 717.957 79.884 723.819 Q79.884 729.68 80.0193 731.281 L78.599 731.281 L78.599 729.816 Q78.599 726.907 78.1932 726.209 Q77.7648 725.51 76.3671 725.51 L52.4478 725.51 Q53.6652 727.922 53.6652 731.574 Z" fill="#000000" fill-rule="nonzero" fill-opacity="1"></path><polyline clip-path="url(#clip852)" style="stroke:#009af9; stroke-linecap:round; stroke-linejoin:round; stroke-width:4; stroke-opacity:1; fill:none" points="275.525,86.1857 311.612,86.1857 347.699,86.1857 383.785,86.1857 419.872,86.1857 455.959,86.1857 492.046,86.1857 528.133,86.1857 564.22,86.1857 600.307,86.1857 636.394,86.1857 672.481,86.1857 708.568,86.1857 744.655,86.1857 780.742,86.1857 816.829,86.1857 852.916,86.1857 889.003,86.1857 925.09,86.1857 961.176,86.1857 997.263,86.1857 1033.35,86.1857 1069.44,86.1857 1105.52,86.1857 1141.61,86.1857 "></polyline>
<polyline clip-path="url(#clip852)" style="stroke:#e26f46; stroke-linecap:round; stroke-linejoin:round; stroke-width:3; stroke-opacity:1; fill:none" stroke-dasharray="12, 6, 2, 6" points="275.525,1384.24 311.612,600.091 347.699,429.631 383.785,356.569 419.872,304.583 455.959,262.419 492.046,227.839 528.133,199.689 564.22,176.941 600.307,158.653 636.394,143.999 672.481,132.283 708.568,122.928 744.655,115.465 780.742,109.514 816.829,104.771 852.916,100.992 889.003,97.9804 925.09,95.5813 961.176,93.6701 997.263,92.1476 1033.35,90.9348 1069.44,89.9687 1105.52,89.1991 1141.61,88.5861 "></polyline>
<path clip-path="url(#clip850)" d="M1016.36 1377.32 L1136.99 1377.32 L1136.99 1221.8 L1016.36 1221.8  Z" fill="#ffffff" fill-rule="evenodd" fill-opacity="1"></path>
<polyline clip-path="url(#clip850)" style="stroke:#000000; stroke-linecap:round; stroke-linejoin:round; stroke-width:4; stroke-opacity:1; fill:none" points="1016.36,1377.32 1136.99,1377.32 1136.99,1221.8 1016.36,1221.8 1016.36,1377.32 "></polyline>
<polyline clip-path="url(#clip850)" style="stroke:#009af9; stroke-linecap:round; stroke-linejoin:round; stroke-width:4; stroke-opacity:1; fill:none" points="1026.56,1273.64 1087.76,1273.64 "></polyline>
<path clip-path="url(#clip850)" d="M1124.73 1260.37 Q1123.26 1260.37 1122.51 1260.51 Q1121.76 1260.63 1121.57 1260.8 Q1121.38 1260.96 1121.17 1261.38 L1110.87 1283.3 Q1109.77 1285.65 1107.71 1287.33 Q1105.67 1289.02 1103.09 1289.02 Q1100.94 1289.02 1099.44 1287.71 Q1097.96 1286.42 1097.96 1284.59 Q1097.96 1283.28 1098.78 1282.53 Q1099.6 1281.81 1100.7 1281.81 Q1101.92 1281.81 1102.69 1282.58 Q1103.49 1283.35 1103.49 1284.55 Q1103.49 1285.32 1103.16 1285.9 Q1102.83 1286.51 1102.53 1286.72 Q1102.25 1286.96 1101.94 1287.1 Q1102.44 1287.29 1103.09 1287.29 Q1104.08 1287.29 1104.92 1286.89 Q1105.79 1286.51 1106.35 1286 Q1106.93 1285.51 1107.52 1284.62 Q1108.1 1283.75 1108.39 1283.19 Q1108.67 1282.65 1109.09 1281.71 L1110.19 1279.42 L1101.22 1260.37 L1098.15 1260.37 L1098.15 1258.13 L1103.63 1258.27 L1109.58 1258.13 L1109.58 1260.37 L1106.98 1260.37 L1113.07 1273.33 L1118.6 1261.52 L1118.83 1260.96 Q1118.83 1260.7 1118.27 1260.56 Q1117.71 1260.4 1117.15 1260.4 L1116.58 1260.37 L1116.58 1258.13 L1120.94 1258.27 Q1123 1258.27 1124.73 1258.13 L1124.73 1260.37 Z" fill="#000000" fill-rule="nonzero" fill-opacity="1"></path><polyline clip-path="url(#clip850)" style="stroke:#e26f46; stroke-linecap:round; stroke-linejoin:round; stroke-width:3; stroke-opacity:1; fill:none" stroke-dasharray="12, 6, 2, 6" points="1026.56,1325.48 1087.76,1325.48 "></polyline>
<path clip-path="url(#clip850)" d="M1120.55 1309.2 L1120.14 1309.87 Q1117.6 1308.77 1114.43 1307.01 Q1111.27 1308.77 1108.73 1309.87 L1108.33 1309.2 Q1111.1 1306.79 1114.43 1304.93 Q1117.79 1306.8 1120.55 1309.2 Z" fill="#000000" fill-rule="nonzero" fill-opacity="1"></path><path clip-path="url(#clip850)" d="M1124.73 1317.22 Q1123.26 1317.22 1122.51 1317.36 Q1121.76 1317.48 1121.57 1317.64 Q1121.38 1317.8 1121.17 1318.23 L1110.87 1340.15 Q1109.77 1342.49 1107.71 1344.18 Q1105.67 1345.86 1103.09 1345.86 Q1100.94 1345.86 1099.44 1344.55 Q1097.96 1343.26 1097.96 1341.44 Q1097.96 1340.13 1098.78 1339.38 Q1099.6 1338.65 1100.7 1338.65 Q1101.92 1338.65 1102.69 1339.42 Q1103.49 1340.2 1103.49 1341.39 Q1103.49 1342.16 1103.16 1342.75 Q1102.83 1343.36 1102.53 1343.57 Q1102.25 1343.8 1101.94 1343.94 Q1102.44 1344.13 1103.09 1344.13 Q1104.08 1344.13 1104.92 1343.73 Q1105.79 1343.36 1106.35 1342.84 Q1106.93 1342.35 1107.52 1341.46 Q1108.1 1340.59 1108.39 1340.03 Q1108.67 1339.49 1109.09 1338.56 L1110.19 1336.26 L1101.22 1317.22 L1098.15 1317.22 L1098.15 1314.97 L1103.63 1315.11 L1109.58 1314.97 L1109.58 1317.22 L1106.98 1317.22 L1113.07 1330.17 L1118.6 1318.37 L1118.83 1317.8 Q1118.83 1317.55 1118.27 1317.41 Q1117.71 1317.24 1117.15 1317.24 L1116.58 1317.22 L1116.58 1314.97 L1120.94 1315.11 Q1123 1315.11 1124.73 1314.97 L1124.73 1317.22 Z" fill="#000000" fill-rule="nonzero" fill-opacity="1"></path><path clip-path="url(#clip850)" d="M1434.7 654.814 L2352.76 654.814 L2352.76 47.2441 L1434.7 47.2441  Z" fill="#ffffff" fill-rule="evenodd" fill-opacity="1"></path>
<defs>
  <clipPath id="clip853">
    <rect x="1434" y="47" width="919" height="609"></rect>
  </clipPath>
</defs>
<polyline clip-path="url(#clip853)" style="stroke:#000000; stroke-linecap:round; stroke-linejoin:round; stroke-width:2; stroke-opacity:0.1; fill:none" points="1460.69,654.814 1460.69,47.2441 "></polyline>
<polyline clip-path="url(#clip853)" style="stroke:#000000; stroke-linecap:round; stroke-linejoin:round; stroke-width:2; stroke-opacity:0.1; fill:none" points="1641.12,654.814 1641.12,47.2441 "></polyline>
<polyline clip-path="url(#clip853)" style="stroke:#000000; stroke-linecap:round; stroke-linejoin:round; stroke-width:2; stroke-opacity:0.1; fill:none" points="1821.56,654.814 1821.56,47.2441 "></polyline>
<polyline clip-path="url(#clip853)" style="stroke:#000000; stroke-linecap:round; stroke-linejoin:round; stroke-width:2; stroke-opacity:0.1; fill:none" points="2001.99,654.814 2001.99,47.2441 "></polyline>
<polyline clip-path="url(#clip853)" style="stroke:#000000; stroke-linecap:round; stroke-linejoin:round; stroke-width:2; stroke-opacity:0.1; fill:none" points="2182.43,654.814 2182.43,47.2441 "></polyline>
<polyline clip-path="url(#clip850)" style="stroke:#000000; stroke-linecap:round; stroke-linejoin:round; stroke-width:4; stroke-opacity:1; fill:none" points="1434.7,654.814 2352.76,654.814 "></polyline>
<polyline clip-path="url(#clip850)" style="stroke:#000000; stroke-linecap:round; stroke-linejoin:round; stroke-width:4; stroke-opacity:1; fill:none" points="1460.69,654.814 1460.69,635.916 "></polyline>
<polyline clip-path="url(#clip850)" style="stroke:#000000; stroke-linecap:round; stroke-linejoin:round; stroke-width:4; stroke-opacity:1; fill:none" points="1641.12,654.814 1641.12,635.916 "></polyline>
<polyline clip-path="url(#clip850)" style="stroke:#000000; stroke-linecap:round; stroke-linejoin:round; stroke-width:4; stroke-opacity:1; fill:none" points="1821.56,654.814 1821.56,635.916 "></polyline>
<polyline clip-path="url(#clip850)" style="stroke:#000000; stroke-linecap:round; stroke-linejoin:round; stroke-width:4; stroke-opacity:1; fill:none" points="2001.99,654.814 2001.99,635.916 "></polyline>
<polyline clip-path="url(#clip850)" style="stroke:#000000; stroke-linecap:round; stroke-linejoin:round; stroke-width:4; stroke-opacity:1; fill:none" points="2182.43,654.814 2182.43,635.916 "></polyline>
<path clip-path="url(#clip850)" d="M1460.69 685.733 Q1457.08 685.733 1455.25 689.297 Q1453.44 692.839 1453.44 699.969 Q1453.44 707.075 1455.25 710.64 Q1457.08 714.181 1460.69 714.181 Q1464.32 714.181 1466.13 710.64 Q1467.96 707.075 1467.96 699.969 Q1467.96 692.839 1466.13 689.297 Q1464.32 685.733 1460.69 685.733 M1460.69 682.029 Q1466.5 682.029 1469.55 686.635 Q1472.63 691.219 1472.63 699.969 Q1472.63 708.695 1469.55 713.302 Q1466.5 717.885 1460.69 717.885 Q1454.88 717.885 1451.8 713.302 Q1448.74 708.695 1448.74 699.969 Q1448.74 691.219 1451.8 686.635 Q1454.88 682.029 1460.69 682.029 Z" fill="#000000" fill-rule="nonzero" fill-opacity="1"></path><path clip-path="url(#clip850)" d="M1631.4 682.654 L1649.76 682.654 L1649.76 686.589 L1635.68 686.589 L1635.68 695.061 Q1636.7 694.714 1637.72 694.552 Q1638.74 694.367 1639.76 694.367 Q1645.54 694.367 1648.92 697.538 Q1652.3 700.709 1652.3 706.126 Q1652.3 711.705 1648.83 714.806 Q1645.36 717.885 1639.04 717.885 Q1636.86 717.885 1634.59 717.515 Q1632.35 717.144 1629.94 716.404 L1629.94 711.705 Q1632.02 712.839 1634.25 713.394 Q1636.47 713.95 1638.95 713.95 Q1642.95 713.95 1645.29 711.844 Q1647.63 709.737 1647.63 706.126 Q1647.63 702.515 1645.29 700.408 Q1642.95 698.302 1638.95 698.302 Q1637.07 698.302 1635.2 698.719 Q1633.34 699.135 1631.4 700.015 L1631.4 682.654 Z" fill="#000000" fill-rule="nonzero" fill-opacity="1"></path><path clip-path="url(#clip850)" d="M1796.24 713.279 L1803.88 713.279 L1803.88 686.913 L1795.57 688.58 L1795.57 684.321 L1803.84 682.654 L1808.51 682.654 L1808.51 713.279 L1816.15 713.279 L1816.15 717.214 L1796.24 717.214 L1796.24 713.279 Z" fill="#000000" fill-rule="nonzero" fill-opacity="1"></path><path clip-path="url(#clip850)" d="M1835.6 685.733 Q1831.98 685.733 1830.16 689.297 Q1828.35 692.839 1828.35 699.969 Q1828.35 707.075 1830.16 710.64 Q1831.98 714.181 1835.6 714.181 Q1839.23 714.181 1841.04 710.64 Q1842.86 707.075 1842.86 699.969 Q1842.86 692.839 1841.04 689.297 Q1839.23 685.733 1835.6 685.733 M1835.6 682.029 Q1841.41 682.029 1844.46 686.635 Q1847.54 691.219 1847.54 699.969 Q1847.54 708.695 1844.46 713.302 Q1841.41 717.885 1835.6 717.885 Q1829.79 717.885 1826.71 713.302 Q1823.65 708.695 1823.65 699.969 Q1823.65 691.219 1826.71 686.635 Q1829.79 682.029 1835.6 682.029 Z" fill="#000000" fill-rule="nonzero" fill-opacity="1"></path><path clip-path="url(#clip850)" d="M1977.18 713.279 L1984.82 713.279 L1984.82 686.913 L1976.5 688.58 L1976.5 684.321 L1984.77 682.654 L1989.44 682.654 L1989.44 713.279 L1997.08 713.279 L1997.08 717.214 L1977.18 717.214 L1977.18 713.279 Z" fill="#000000" fill-rule="nonzero" fill-opacity="1"></path><path clip-path="url(#clip850)" d="M2006.57 682.654 L2024.93 682.654 L2024.93 686.589 L2010.86 686.589 L2010.86 695.061 Q2011.88 694.714 2012.89 694.552 Q2013.91 694.367 2014.93 694.367 Q2020.72 694.367 2024.1 697.538 Q2027.48 700.709 2027.48 706.126 Q2027.48 711.705 2024 714.806 Q2020.53 717.885 2014.21 717.885 Q2012.04 717.885 2009.77 717.515 Q2007.52 717.144 2005.12 716.404 L2005.12 711.705 Q2007.2 712.839 2009.42 713.394 Q2011.64 713.95 2014.12 713.95 Q2018.13 713.95 2020.46 711.844 Q2022.8 709.737 2022.8 706.126 Q2022.8 702.515 2020.46 700.408 Q2018.13 698.302 2014.12 698.302 Q2012.25 698.302 2010.37 698.719 Q2008.52 699.135 2006.57 700.015 L2006.57 682.654 Z" fill="#000000" fill-rule="nonzero" fill-opacity="1"></path><path clip-path="url(#clip850)" d="M2161.2 713.279 L2177.52 713.279 L2177.52 717.214 L2155.57 717.214 L2155.57 713.279 Q2158.24 710.524 2162.82 705.894 Q2167.43 701.242 2168.61 699.899 Q2170.85 697.376 2171.73 695.64 Q2172.63 693.881 2172.63 692.191 Q2172.63 689.436 2170.69 687.7 Q2168.77 685.964 2165.67 685.964 Q2163.47 685.964 2161.01 686.728 Q2158.58 687.492 2155.81 689.043 L2155.81 684.321 Q2158.63 683.186 2161.08 682.608 Q2163.54 682.029 2165.57 682.029 Q2170.94 682.029 2174.14 684.714 Q2177.33 687.399 2177.33 691.89 Q2177.33 694.02 2176.52 695.941 Q2175.74 697.839 2173.63 700.432 Q2173.05 701.103 2169.95 704.32 Q2166.85 707.515 2161.2 713.279 Z" fill="#000000" fill-rule="nonzero" fill-opacity="1"></path><path clip-path="url(#clip850)" d="M2197.33 685.733 Q2193.72 685.733 2191.89 689.297 Q2190.09 692.839 2190.09 699.969 Q2190.09 707.075 2191.89 710.64 Q2193.72 714.181 2197.33 714.181 Q2200.97 714.181 2202.77 710.64 Q2204.6 707.075 2204.6 699.969 Q2204.6 692.839 2202.77 689.297 Q2200.97 685.733 2197.33 685.733 M2197.33 682.029 Q2203.14 682.029 2206.2 686.635 Q2209.28 691.219 2209.28 699.969 Q2209.28 708.695 2206.2 713.302 Q2203.14 717.885 2197.33 717.885 Q2191.52 717.885 2188.44 713.302 Q2185.39 708.695 2185.39 699.969 Q2185.39 691.219 2188.44 686.635 Q2191.52 682.029 2197.33 682.029 Z" fill="#000000" fill-rule="nonzero" fill-opacity="1"></path><polyline clip-path="url(#clip853)" style="stroke:#000000; stroke-linecap:round; stroke-linejoin:round; stroke-width:2; stroke-opacity:0.1; fill:none" points="1434.7,637.618 2352.76,637.618 "></polyline>
<polyline clip-path="url(#clip853)" style="stroke:#000000; stroke-linecap:round; stroke-linejoin:round; stroke-width:2; stroke-opacity:0.1; fill:none" points="1434.7,477.535 2352.76,477.535 "></polyline>
<polyline clip-path="url(#clip853)" style="stroke:#000000; stroke-linecap:round; stroke-linejoin:round; stroke-width:2; stroke-opacity:0.1; fill:none" points="1434.7,317.451 2352.76,317.451 "></polyline>
<polyline clip-path="url(#clip853)" style="stroke:#000000; stroke-linecap:round; stroke-linejoin:round; stroke-width:2; stroke-opacity:0.1; fill:none" points="1434.7,157.367 2352.76,157.367 "></polyline>
<polyline clip-path="url(#clip850)" style="stroke:#000000; stroke-linecap:round; stroke-linejoin:round; stroke-width:4; stroke-opacity:1; fill:none" points="1434.7,654.814 1434.7,47.2441 "></polyline>
<polyline clip-path="url(#clip850)" style="stroke:#000000; stroke-linecap:round; stroke-linejoin:round; stroke-width:4; stroke-opacity:1; fill:none" points="1434.7,637.618 1453.6,637.618 "></polyline>
<polyline clip-path="url(#clip850)" style="stroke:#000000; stroke-linecap:round; stroke-linejoin:round; stroke-width:4; stroke-opacity:1; fill:none" points="1434.7,477.535 1453.6,477.535 "></polyline>
<polyline clip-path="url(#clip850)" style="stroke:#000000; stroke-linecap:round; stroke-linejoin:round; stroke-width:4; stroke-opacity:1; fill:none" points="1434.7,317.451 1453.6,317.451 "></polyline>
<polyline clip-path="url(#clip850)" style="stroke:#000000; stroke-linecap:round; stroke-linejoin:round; stroke-width:4; stroke-opacity:1; fill:none" points="1434.7,157.367 1453.6,157.367 "></polyline>
<path clip-path="url(#clip850)" d="M1341.53 623.417 Q1337.92 623.417 1336.09 626.982 Q1334.28 630.524 1334.28 637.653 Q1334.28 644.76 1336.09 648.324 Q1337.92 651.866 1341.53 651.866 Q1345.16 651.866 1346.97 648.324 Q1348.8 644.76 1348.8 637.653 Q1348.8 630.524 1346.97 626.982 Q1345.16 623.417 1341.53 623.417 M1341.53 619.713 Q1347.34 619.713 1350.39 624.32 Q1353.47 628.903 1353.47 637.653 Q1353.47 646.38 1350.39 650.986 Q1347.34 655.57 1341.53 655.57 Q1335.72 655.57 1332.64 650.986 Q1329.58 646.38 1329.58 637.653 Q1329.58 628.903 1332.64 624.32 Q1335.72 619.713 1341.53 619.713 Z" fill="#000000" fill-rule="nonzero" fill-opacity="1"></path><path clip-path="url(#clip850)" d="M1361.69 649.019 L1366.57 649.019 L1366.57 654.898 L1361.69 654.898 L1361.69 649.019 Z" fill="#000000" fill-rule="nonzero" fill-opacity="1"></path><path clip-path="url(#clip850)" d="M1386.76 623.417 Q1383.15 623.417 1381.32 626.982 Q1379.51 630.524 1379.51 637.653 Q1379.51 644.76 1381.32 648.324 Q1383.15 651.866 1386.76 651.866 Q1390.39 651.866 1392.2 648.324 Q1394.03 644.76 1394.03 637.653 Q1394.03 630.524 1392.2 626.982 Q1390.39 623.417 1386.76 623.417 M1386.76 619.713 Q1392.57 619.713 1395.63 624.32 Q1398.7 628.903 1398.7 637.653 Q1398.7 646.38 1395.63 650.986 Q1392.57 655.57 1386.76 655.57 Q1380.95 655.57 1377.87 650.986 Q1374.82 646.38 1374.82 637.653 Q1374.82 628.903 1377.87 624.32 Q1380.95 619.713 1386.76 619.713 Z" fill="#000000" fill-rule="nonzero" fill-opacity="1"></path><path clip-path="url(#clip850)" d="M1342.76 463.333 Q1339.14 463.333 1337.32 466.898 Q1335.51 470.44 1335.51 477.57 Q1335.51 484.676 1337.32 488.241 Q1339.14 491.782 1342.76 491.782 Q1346.39 491.782 1348.2 488.241 Q1350.02 484.676 1350.02 477.57 Q1350.02 470.44 1348.2 466.898 Q1346.39 463.333 1342.76 463.333 M1342.76 459.63 Q1348.57 459.63 1351.62 464.236 Q1354.7 468.82 1354.7 477.57 Q1354.7 486.296 1351.62 490.903 Q1348.57 495.486 1342.76 495.486 Q1336.95 495.486 1333.87 490.903 Q1330.81 486.296 1330.81 477.57 Q1330.81 468.82 1333.87 464.236 Q1336.95 459.63 1342.76 459.63 Z" fill="#000000" fill-rule="nonzero" fill-opacity="1"></path><path clip-path="url(#clip850)" d="M1362.92 488.935 L1367.8 488.935 L1367.8 494.815 L1362.92 494.815 L1362.92 488.935 Z" fill="#000000" fill-rule="nonzero" fill-opacity="1"></path><path clip-path="url(#clip850)" d="M1378.8 490.88 L1386.44 490.88 L1386.44 464.514 L1378.13 466.181 L1378.13 461.921 L1386.39 460.255 L1391.07 460.255 L1391.07 490.88 L1398.7 490.88 L1398.7 494.815 L1378.8 494.815 L1378.8 490.88 Z" fill="#000000" fill-rule="nonzero" fill-opacity="1"></path><path clip-path="url(#clip850)" d="M1343.13 303.25 Q1339.51 303.25 1337.69 306.815 Q1335.88 310.356 1335.88 317.486 Q1335.88 324.592 1337.69 328.157 Q1339.51 331.699 1343.13 331.699 Q1346.76 331.699 1348.57 328.157 Q1350.39 324.592 1350.39 317.486 Q1350.39 310.356 1348.57 306.815 Q1346.76 303.25 1343.13 303.25 M1343.13 299.546 Q1348.94 299.546 1351.99 304.153 Q1355.07 308.736 1355.07 317.486 Q1355.07 326.213 1351.99 330.819 Q1348.94 335.402 1343.13 335.402 Q1337.32 335.402 1334.24 330.819 Q1331.18 326.213 1331.18 317.486 Q1331.18 308.736 1334.24 304.153 Q1337.32 299.546 1343.13 299.546 Z" fill="#000000" fill-rule="nonzero" fill-opacity="1"></path><path clip-path="url(#clip850)" d="M1363.29 328.851 L1368.17 328.851 L1368.17 334.731 L1363.29 334.731 L1363.29 328.851 Z" fill="#000000" fill-rule="nonzero" fill-opacity="1"></path><path clip-path="url(#clip850)" d="M1382.38 330.796 L1398.7 330.796 L1398.7 334.731 L1376.76 334.731 L1376.76 330.796 Q1379.42 328.041 1384.01 323.412 Q1388.61 318.759 1389.79 317.416 Q1392.04 314.893 1392.92 313.157 Q1393.82 311.398 1393.82 309.708 Q1393.82 306.953 1391.88 305.217 Q1389.95 303.481 1386.85 303.481 Q1384.65 303.481 1382.2 304.245 Q1379.77 305.009 1376.99 306.56 L1376.99 301.838 Q1379.82 300.703 1382.27 300.125 Q1384.72 299.546 1386.76 299.546 Q1392.13 299.546 1395.32 302.231 Q1398.52 304.916 1398.52 309.407 Q1398.52 311.537 1397.71 313.458 Q1396.92 315.356 1394.82 317.949 Q1394.24 318.62 1391.13 321.838 Q1388.03 325.032 1382.38 330.796 Z" fill="#000000" fill-rule="nonzero" fill-opacity="1"></path><path clip-path="url(#clip850)" d="M1342.18 143.166 Q1338.57 143.166 1336.74 146.731 Q1334.93 150.273 1334.93 157.402 Q1334.93 164.509 1336.74 168.073 Q1338.57 171.615 1342.18 171.615 Q1345.81 171.615 1347.62 168.073 Q1349.45 164.509 1349.45 157.402 Q1349.45 150.273 1347.62 146.731 Q1345.81 143.166 1342.18 143.166 M1342.18 139.462 Q1347.99 139.462 1351.04 144.069 Q1354.12 148.652 1354.12 157.402 Q1354.12 166.129 1351.04 170.735 Q1347.99 175.319 1342.18 175.319 Q1336.37 175.319 1333.29 170.735 Q1330.23 166.129 1330.23 157.402 Q1330.23 148.652 1333.29 144.069 Q1336.37 139.462 1342.18 139.462 Z" fill="#000000" fill-rule="nonzero" fill-opacity="1"></path><path clip-path="url(#clip850)" d="M1362.34 168.768 L1367.22 168.768 L1367.22 174.647 L1362.34 174.647 L1362.34 168.768 Z" fill="#000000" fill-rule="nonzero" fill-opacity="1"></path><path clip-path="url(#clip850)" d="M1391.57 156.013 Q1394.93 156.731 1396.81 158.999 Q1398.7 161.268 1398.7 164.601 Q1398.7 169.717 1395.19 172.518 Q1391.67 175.319 1385.19 175.319 Q1383.01 175.319 1380.69 174.879 Q1378.4 174.462 1375.95 173.606 L1375.95 169.092 Q1377.89 170.226 1380.21 170.805 Q1382.52 171.383 1385.05 171.383 Q1389.44 171.383 1391.74 169.647 Q1394.05 167.911 1394.05 164.601 Q1394.05 161.546 1391.9 159.833 Q1389.77 158.097 1385.95 158.097 L1381.92 158.097 L1381.92 154.254 L1386.13 154.254 Q1389.58 154.254 1391.41 152.888 Q1393.24 151.499 1393.24 148.907 Q1393.24 146.245 1391.34 144.833 Q1389.47 143.398 1385.95 143.398 Q1384.03 143.398 1381.83 143.814 Q1379.63 144.231 1376.99 145.11 L1376.99 140.944 Q1379.65 140.203 1381.97 139.833 Q1384.31 139.462 1386.37 139.462 Q1391.69 139.462 1394.79 141.893 Q1397.89 144.3 1397.89 148.421 Q1397.89 151.291 1396.25 153.282 Q1394.61 155.249 1391.57 156.013 Z" fill="#000000" fill-rule="nonzero" fill-opacity="1"></path><path clip-path="url(#clip850)" d="M1245.21 352.917 Q1247.01 352.917 1248.04 354.044 Q1249.04 355.171 1249.04 356.46 Q1249.04 357.684 1248.33 358.328 Q1247.62 358.972 1246.72 358.972 Q1245.5 358.972 1244.43 358.07 Q1243.37 357.168 1243.14 355.816 Q1242.31 357.136 1242.31 359.101 Q1242.31 360.389 1242.98 361.516 Q1243.66 362.611 1244.53 363.287 Q1245.4 363.931 1246.65 364.511 Q1247.88 365.059 1248.62 365.284 Q1249.33 365.477 1250.1 365.638 L1259.12 367.893 Q1263.4 368.988 1264.92 368.988 Q1266.78 368.988 1268.04 368.086 Q1269.26 367.184 1269.26 365.381 Q1269.26 364.672 1269.07 363.867 Q1268.84 363.062 1268.27 362.031 Q1267.65 360.969 1266.75 360.035 Q1265.82 359.068 1264.24 358.134 Q1262.66 357.2 1260.63 356.589 Q1259.92 356.395 1259.92 355.751 Q1259.92 354.946 1260.57 354.946 Q1261.12 354.946 1262.27 355.397 Q1263.4 355.816 1264.88 356.75 Q1266.33 357.651 1267.65 358.843 Q1268.94 360.035 1269.84 361.806 Q1270.74 363.577 1270.74 365.51 Q1270.74 368.279 1269.26 370.115 Q1267.78 371.951 1265.72 372.627 Q1266.01 372.788 1266.4 373.014 Q1266.78 373.239 1267.65 373.915 Q1268.49 374.559 1269.13 375.3 Q1269.75 376.041 1270.23 377.2 Q1270.74 378.327 1270.74 379.551 Q1270.74 381.097 1270.29 382.482 Q1269.84 383.835 1268.81 384.801 Q1267.78 385.767 1266.36 385.767 Q1264.79 385.767 1263.69 384.704 Q1262.56 383.609 1262.56 382.128 Q1262.56 381.194 1263.11 380.453 Q1263.66 379.68 1264.85 379.68 Q1266.17 379.68 1267.17 380.582 Q1268.17 381.484 1268.43 382.772 Q1269.26 381.451 1269.26 379.487 Q1269.26 377.361 1267.4 375.687 Q1265.53 374.012 1262.4 373.207 Q1254.9 371.21 1251.55 370.437 Q1248.17 369.664 1246.72 369.664 Q1245.37 369.664 1244.43 370.018 Q1243.5 370.373 1243.08 370.985 Q1242.63 371.564 1242.47 372.112 Q1242.31 372.627 1242.31 373.207 Q1242.31 374.173 1242.69 375.268 Q1243.08 376.331 1243.98 377.619 Q1244.85 378.875 1246.65 380.067 Q1248.46 381.258 1250.94 382.063 Q1251.68 382.224 1251.68 382.933 Q1251.65 383.706 1251 383.706 Q1250.46 383.706 1249.33 383.287 Q1248.17 382.836 1246.72 381.935 Q1245.27 381.001 1243.98 379.809 Q1242.66 378.585 1241.76 376.814 Q1240.86 375.01 1240.86 373.078 Q1240.86 372.208 1241.05 371.371 Q1241.21 370.501 1241.7 369.471 Q1242.18 368.408 1243.24 367.474 Q1244.3 366.54 1245.85 365.96 Q1245.11 365.574 1244.4 365.059 Q1243.69 364.511 1242.82 363.674 Q1241.92 362.804 1241.41 361.613 Q1240.86 360.389 1240.86 359.036 Q1240.86 357.716 1241.21 356.427 Q1241.53 355.139 1242.6 354.044 Q1243.63 352.917 1245.21 352.917 Z" fill="#000000" fill-rule="nonzero" fill-opacity="1"></path><path clip-path="url(#clip850)" d="M1262.66 346.196 L1261.22 346.196 Q1261.22 340.65 1258.26 337.787 Q1258.26 336.998 1258.45 336.863 Q1258.63 336.727 1259.46 336.727 L1285.36 336.727 Q1286.74 336.727 1287.17 336.051 Q1287.59 335.375 1287.59 332.421 L1287.59 330.956 L1289.02 330.956 Q1288.88 332.579 1288.88 338.441 Q1288.88 344.302 1289.02 345.903 L1287.59 345.903 L1287.59 344.437 Q1287.59 341.529 1287.19 340.83 Q1286.76 340.131 1285.36 340.131 L1261.44 340.131 Q1262.66 342.544 1262.66 346.196 Z" fill="#000000" fill-rule="nonzero" fill-opacity="1"></path><polyline clip-path="url(#clip853)" style="stroke:#009af9; stroke-linecap:round; stroke-linejoin:round; stroke-width:4; stroke-opacity:1; fill:none" points="1460.69,637.618 1496.77,637.618 1532.86,637.618 1568.95,637.618 1605.03,637.618 1641.12,637.618 1677.21,637.618 1713.3,637.618 1749.38,637.618 1785.47,637.618 1821.56,637.618 1857.64,637.618 1893.73,637.618 1929.82,637.618 1965.9,637.618 2001.99,637.618 2038.08,637.618 2074.16,637.618 2110.25,637.618 2146.34,637.618 2182.43,637.618 2218.51,637.618 2254.6,637.618 2290.69,637.618 2326.77,637.618 "></polyline>
<polyline clip-path="url(#clip853)" style="stroke:#e26f46; stroke-linecap:round; stroke-linejoin:round; stroke-width:3; stroke-opacity:1; fill:none" stroke-dasharray="12, 6, 2, 6" points="1460.69,72.6172 1496.77,64.4395 1532.86,144.813 1568.95,229.697 1605.03,305.083 1641.12,368.834 1677.21,421.508 1713.3,464.445 1749.38,499.15 1785.47,527.053 1821.56,549.411 1857.64,567.287 1893.73,581.56 1929.82,592.947 1965.9,602.025 2001.99,609.262 2038.08,615.028 2074.16,619.623 2110.25,623.283 2146.34,626.199 2182.43,628.522 2218.51,630.373 2254.6,631.847 2290.69,633.021 2326.77,633.956 "></polyline>
<path clip-path="url(#clip850)" d="M2201.52 223.016 L2322.15 223.016 L2322.15 67.4964 L2201.52 67.4964  Z" fill="#ffffff" fill-rule="evenodd" fill-opacity="1"></path>
<polyline clip-path="url(#clip850)" style="stroke:#000000; stroke-linecap:round; stroke-linejoin:round; stroke-width:4; stroke-opacity:1; fill:none" points="2201.52,223.016 2322.15,223.016 2322.15,67.4964 2201.52,67.4964 2201.52,223.016 "></polyline>
<polyline clip-path="url(#clip850)" style="stroke:#009af9; stroke-linecap:round; stroke-linejoin:round; stroke-width:4; stroke-opacity:1; fill:none" points="2211.72,119.336 2272.92,119.336 "></polyline>
<path clip-path="url(#clip850)" d="M2310.13 129.875 L2304.86 129.735 L2299.1 129.875 L2299.1 127.627 L2300.97 127.627 L2295.7 121.397 L2291.04 126.62 L2290.71 127.088 Q2290.71 127.299 2291.25 127.463 Q2291.81 127.627 2292.47 127.627 L2292.47 129.875 L2287.53 129.735 L2283.12 129.875 L2283.12 127.627 Q2284.6 127.627 2285.28 127.604 Q2285.98 127.557 2286.78 127.346 Q2287.57 127.135 2287.97 126.713 L2294.25 119.663 L2286.78 110.833 L2283.36 110.833 L2283.36 108.584 L2288.65 108.725 L2294.44 108.584 L2294.44 110.833 L2292.52 110.833 L2297.22 116.337 L2301.25 111.84 Q2301.28 111.817 2301.65 111.255 Q2300.9 110.833 2299.82 110.833 L2299.82 108.584 L2304.77 108.725 L2309.17 108.584 L2309.17 110.833 Q2307.25 110.833 2306.24 110.974 Q2305.26 111.091 2304.95 111.255 Q2304.67 111.419 2304.27 111.84 L2298.68 118.071 L2306.73 127.627 L2310.13 127.627 L2310.13 129.875 Z" fill="#000000" fill-rule="nonzero" fill-opacity="1"></path><polyline clip-path="url(#clip850)" style="stroke:#e26f46; stroke-linecap:round; stroke-linejoin:round; stroke-width:3; stroke-opacity:1; fill:none" stroke-dasharray="12, 6, 2, 6" points="2211.72,171.176 2272.92,171.176 "></polyline>
<path clip-path="url(#clip850)" d="M2305.71 159.655 L2305.3 160.327 Q2302.76 159.228 2299.59 157.474 Q2296.43 159.228 2293.89 160.327 L2293.49 159.655 Q2296.27 157.244 2299.59 155.392 Q2302.96 157.261 2305.71 159.655 Z" fill="#000000" fill-rule="nonzero" fill-opacity="1"></path><path clip-path="url(#clip850)" d="M2310.13 186.72 L2304.86 186.579 L2299.1 186.72 L2299.1 184.471 L2300.97 184.471 L2295.7 178.241 L2291.04 183.464 L2290.71 183.933 Q2290.71 184.144 2291.25 184.308 Q2291.81 184.471 2292.47 184.471 L2292.47 186.72 L2287.53 186.579 L2283.12 186.72 L2283.12 184.471 Q2284.6 184.471 2285.28 184.448 Q2285.98 184.401 2286.78 184.19 Q2287.57 183.98 2287.97 183.558 L2294.25 176.508 L2286.78 167.678 L2283.36 167.678 L2283.36 165.429 L2288.65 165.57 L2294.44 165.429 L2294.44 167.678 L2292.52 167.678 L2297.22 173.182 L2301.25 168.685 Q2301.28 168.661 2301.65 168.099 Q2300.9 167.678 2299.82 167.678 L2299.82 165.429 L2304.77 165.57 L2309.17 165.429 L2309.17 167.678 Q2307.25 167.678 2306.24 167.818 Q2305.26 167.935 2304.95 168.099 Q2304.67 168.263 2304.27 168.685 L2298.68 174.915 L2306.73 184.471 L2310.13 184.471 L2310.13 186.72 Z" fill="#000000" fill-rule="nonzero" fill-opacity="1"></path><path clip-path="url(#clip850)" d="M1434.7 1423.18 L2352.76 1423.18 L2352.76 815.61 L1434.7 815.61  Z" fill="#ffffff" fill-rule="evenodd" fill-opacity="1"></path>
<defs>
  <clipPath id="clip854">
    <rect x="1434" y="815" width="919" height="609"></rect>
  </clipPath>
</defs>
<polyline clip-path="url(#clip854)" style="stroke:#000000; stroke-linecap:round; stroke-linejoin:round; stroke-width:2; stroke-opacity:0.1; fill:none" points="1460.69,1423.18 1460.69,815.61 "></polyline>
<polyline clip-path="url(#clip854)" style="stroke:#000000; stroke-linecap:round; stroke-linejoin:round; stroke-width:2; stroke-opacity:0.1; fill:none" points="1641.12,1423.18 1641.12,815.61 "></polyline>
<polyline clip-path="url(#clip854)" style="stroke:#000000; stroke-linecap:round; stroke-linejoin:round; stroke-width:2; stroke-opacity:0.1; fill:none" points="1821.56,1423.18 1821.56,815.61 "></polyline>
<polyline clip-path="url(#clip854)" style="stroke:#000000; stroke-linecap:round; stroke-linejoin:round; stroke-width:2; stroke-opacity:0.1; fill:none" points="2001.99,1423.18 2001.99,815.61 "></polyline>
<polyline clip-path="url(#clip854)" style="stroke:#000000; stroke-linecap:round; stroke-linejoin:round; stroke-width:2; stroke-opacity:0.1; fill:none" points="2182.43,1423.18 2182.43,815.61 "></polyline>
<polyline clip-path="url(#clip850)" style="stroke:#000000; stroke-linecap:round; stroke-linejoin:round; stroke-width:4; stroke-opacity:1; fill:none" points="1434.7,1423.18 2352.76,1423.18 "></polyline>
<polyline clip-path="url(#clip850)" style="stroke:#000000; stroke-linecap:round; stroke-linejoin:round; stroke-width:4; stroke-opacity:1; fill:none" points="1460.69,1423.18 1460.69,1404.28 "></polyline>
<polyline clip-path="url(#clip850)" style="stroke:#000000; stroke-linecap:round; stroke-linejoin:round; stroke-width:4; stroke-opacity:1; fill:none" points="1641.12,1423.18 1641.12,1404.28 "></polyline>
<polyline clip-path="url(#clip850)" style="stroke:#000000; stroke-linecap:round; stroke-linejoin:round; stroke-width:4; stroke-opacity:1; fill:none" points="1821.56,1423.18 1821.56,1404.28 "></polyline>
<polyline clip-path="url(#clip850)" style="stroke:#000000; stroke-linecap:round; stroke-linejoin:round; stroke-width:4; stroke-opacity:1; fill:none" points="2001.99,1423.18 2001.99,1404.28 "></polyline>
<polyline clip-path="url(#clip850)" style="stroke:#000000; stroke-linecap:round; stroke-linejoin:round; stroke-width:4; stroke-opacity:1; fill:none" points="2182.43,1423.18 2182.43,1404.28 "></polyline>
<path clip-path="url(#clip850)" d="M1460.69 1454.1 Q1457.08 1454.1 1455.25 1457.66 Q1453.44 1461.2 1453.44 1468.33 Q1453.44 1475.44 1455.25 1479.01 Q1457.08 1482.55 1460.69 1482.55 Q1464.32 1482.55 1466.13 1479.01 Q1467.96 1475.44 1467.96 1468.33 Q1467.96 1461.2 1466.13 1457.66 Q1464.32 1454.1 1460.69 1454.1 M1460.69 1450.39 Q1466.5 1450.39 1469.55 1455 Q1472.63 1459.58 1472.63 1468.33 Q1472.63 1477.06 1469.55 1481.67 Q1466.5 1486.25 1460.69 1486.25 Q1454.88 1486.25 1451.8 1481.67 Q1448.74 1477.06 1448.74 1468.33 Q1448.74 1459.58 1451.8 1455 Q1454.88 1450.39 1460.69 1450.39 Z" fill="#000000" fill-rule="nonzero" fill-opacity="1"></path><path clip-path="url(#clip850)" d="M1631.4 1451.02 L1649.76 1451.02 L1649.76 1454.96 L1635.68 1454.96 L1635.68 1463.43 Q1636.7 1463.08 1637.72 1462.92 Q1638.74 1462.73 1639.76 1462.73 Q1645.54 1462.73 1648.92 1465.9 Q1652.3 1469.08 1652.3 1474.49 Q1652.3 1480.07 1648.83 1483.17 Q1645.36 1486.25 1639.04 1486.25 Q1636.86 1486.25 1634.59 1485.88 Q1632.35 1485.51 1629.94 1484.77 L1629.94 1480.07 Q1632.02 1481.2 1634.25 1481.76 Q1636.47 1482.32 1638.95 1482.32 Q1642.95 1482.32 1645.29 1480.21 Q1647.63 1478.1 1647.63 1474.49 Q1647.63 1470.88 1645.29 1468.77 Q1642.95 1466.67 1638.95 1466.67 Q1637.07 1466.67 1635.2 1467.08 Q1633.34 1467.5 1631.4 1468.38 L1631.4 1451.02 Z" fill="#000000" fill-rule="nonzero" fill-opacity="1"></path><path clip-path="url(#clip850)" d="M1796.24 1481.64 L1803.88 1481.64 L1803.88 1455.28 L1795.57 1456.95 L1795.57 1452.69 L1803.84 1451.02 L1808.51 1451.02 L1808.51 1481.64 L1816.15 1481.64 L1816.15 1485.58 L1796.24 1485.58 L1796.24 1481.64 Z" fill="#000000" fill-rule="nonzero" fill-opacity="1"></path><path clip-path="url(#clip850)" d="M1835.6 1454.1 Q1831.98 1454.1 1830.16 1457.66 Q1828.35 1461.2 1828.35 1468.33 Q1828.35 1475.44 1830.16 1479.01 Q1831.98 1482.55 1835.6 1482.55 Q1839.23 1482.55 1841.04 1479.01 Q1842.86 1475.44 1842.86 1468.33 Q1842.86 1461.2 1841.04 1457.66 Q1839.23 1454.1 1835.6 1454.1 M1835.6 1450.39 Q1841.41 1450.39 1844.46 1455 Q1847.54 1459.58 1847.54 1468.33 Q1847.54 1477.06 1844.46 1481.67 Q1841.41 1486.25 1835.6 1486.25 Q1829.79 1486.25 1826.71 1481.67 Q1823.65 1477.06 1823.65 1468.33 Q1823.65 1459.58 1826.71 1455 Q1829.79 1450.39 1835.6 1450.39 Z" fill="#000000" fill-rule="nonzero" fill-opacity="1"></path><path clip-path="url(#clip850)" d="M1977.18 1481.64 L1984.82 1481.64 L1984.82 1455.28 L1976.5 1456.95 L1976.5 1452.69 L1984.77 1451.02 L1989.44 1451.02 L1989.44 1481.64 L1997.08 1481.64 L1997.08 1485.58 L1977.18 1485.58 L1977.18 1481.64 Z" fill="#000000" fill-rule="nonzero" fill-opacity="1"></path><path clip-path="url(#clip850)" d="M2006.57 1451.02 L2024.93 1451.02 L2024.93 1454.96 L2010.86 1454.96 L2010.86 1463.43 Q2011.88 1463.08 2012.89 1462.92 Q2013.91 1462.73 2014.93 1462.73 Q2020.72 1462.73 2024.1 1465.9 Q2027.48 1469.08 2027.48 1474.49 Q2027.48 1480.07 2024 1483.17 Q2020.53 1486.25 2014.21 1486.25 Q2012.04 1486.25 2009.77 1485.88 Q2007.52 1485.51 2005.12 1484.77 L2005.12 1480.07 Q2007.2 1481.2 2009.42 1481.76 Q2011.64 1482.32 2014.12 1482.32 Q2018.13 1482.32 2020.46 1480.21 Q2022.8 1478.1 2022.8 1474.49 Q2022.8 1470.88 2020.46 1468.77 Q2018.13 1466.67 2014.12 1466.67 Q2012.25 1466.67 2010.37 1467.08 Q2008.52 1467.5 2006.57 1468.38 L2006.57 1451.02 Z" fill="#000000" fill-rule="nonzero" fill-opacity="1"></path><path clip-path="url(#clip850)" d="M2161.2 1481.64 L2177.52 1481.64 L2177.52 1485.58 L2155.57 1485.58 L2155.57 1481.64 Q2158.24 1478.89 2162.82 1474.26 Q2167.43 1469.61 2168.61 1468.27 Q2170.85 1465.74 2171.73 1464.01 Q2172.63 1462.25 2172.63 1460.56 Q2172.63 1457.8 2170.69 1456.07 Q2168.77 1454.33 2165.67 1454.33 Q2163.47 1454.33 2161.01 1455.09 Q2158.58 1455.86 2155.81 1457.41 L2155.81 1452.69 Q2158.63 1451.55 2161.08 1450.97 Q2163.54 1450.39 2165.57 1450.39 Q2170.94 1450.39 2174.14 1453.08 Q2177.33 1455.77 2177.33 1460.26 Q2177.33 1462.39 2176.52 1464.31 Q2175.74 1466.2 2173.63 1468.8 Q2173.05 1469.47 2169.95 1472.69 Q2166.85 1475.88 2161.2 1481.64 Z" fill="#000000" fill-rule="nonzero" fill-opacity="1"></path><path clip-path="url(#clip850)" d="M2197.33 1454.1 Q2193.72 1454.1 2191.89 1457.66 Q2190.09 1461.2 2190.09 1468.33 Q2190.09 1475.44 2191.89 1479.01 Q2193.72 1482.55 2197.33 1482.55 Q2200.97 1482.55 2202.77 1479.01 Q2204.6 1475.44 2204.6 1468.33 Q2204.6 1461.2 2202.77 1457.66 Q2200.97 1454.1 2197.33 1454.1 M2197.33 1450.39 Q2203.14 1450.39 2206.2 1455 Q2209.28 1459.58 2209.28 1468.33 Q2209.28 1477.06 2206.2 1481.67 Q2203.14 1486.25 2197.33 1486.25 Q2191.52 1486.25 2188.44 1481.67 Q2185.39 1477.06 2185.39 1468.33 Q2185.39 1459.58 2188.44 1455 Q2191.52 1450.39 2197.33 1450.39 Z" fill="#000000" fill-rule="nonzero" fill-opacity="1"></path><path clip-path="url(#clip850)" d="M1763.9 1520.52 L1804.1 1520.52 L1804.1 1525.93 L1787.23 1525.93 L1787.23 1568.04 L1780.77 1568.04 L1780.77 1525.93 L1763.9 1525.93 L1763.9 1520.52 Z" fill="#000000" fill-rule="nonzero" fill-opacity="1"></path><path clip-path="url(#clip850)" d="M1808.05 1532.4 L1813.9 1532.4 L1813.9 1568.04 L1808.05 1568.04 L1808.05 1532.4 M1808.05 1518.52 L1813.9 1518.52 L1813.9 1525.93 L1808.05 1525.93 L1808.05 1518.52 Z" fill="#000000" fill-rule="nonzero" fill-opacity="1"></path><path clip-path="url(#clip850)" d="M1853.91 1539.24 Q1856.11 1535.29 1859.16 1533.41 Q1862.22 1531.54 1866.36 1531.54 Q1871.93 1531.54 1874.95 1535.45 Q1877.97 1539.33 1877.97 1546.53 L1877.97 1568.04 L1872.09 1568.04 L1872.09 1546.72 Q1872.09 1541.59 1870.27 1539.11 Q1868.46 1536.63 1864.73 1536.63 Q1860.18 1536.63 1857.54 1539.65 Q1854.9 1542.68 1854.9 1547.9 L1854.9 1568.04 L1849.01 1568.04 L1849.01 1546.72 Q1849.01 1541.56 1847.2 1539.11 Q1845.38 1536.63 1841.59 1536.63 Q1837.11 1536.63 1834.47 1539.68 Q1831.82 1542.71 1831.82 1547.9 L1831.82 1568.04 L1825.94 1568.04 L1825.94 1532.4 L1831.82 1532.4 L1831.82 1537.93 Q1833.83 1534.66 1836.63 1533.1 Q1839.43 1531.54 1843.28 1531.54 Q1847.16 1531.54 1849.87 1533.51 Q1852.61 1535.48 1853.91 1539.24 Z" fill="#000000" fill-rule="nonzero" fill-opacity="1"></path><path clip-path="url(#clip850)" d="M1920.15 1548.76 L1920.15 1551.62 L1893.22 1551.62 Q1893.6 1557.67 1896.85 1560.85 Q1900.13 1564 1905.95 1564 Q1909.33 1564 1912.48 1563.17 Q1915.66 1562.35 1918.78 1560.69 L1918.78 1566.23 Q1915.63 1567.57 1912.32 1568.27 Q1909.01 1568.97 1905.6 1568.97 Q1897.07 1568.97 1892.07 1564 Q1887.11 1559.04 1887.11 1550.57 Q1887.11 1541.82 1891.82 1536.69 Q1896.56 1531.54 1904.58 1531.54 Q1911.78 1531.54 1915.95 1536.18 Q1920.15 1540.8 1920.15 1548.76 M1914.29 1547.04 Q1914.23 1542.23 1911.59 1539.37 Q1908.98 1536.5 1904.65 1536.5 Q1899.75 1536.5 1896.79 1539.27 Q1893.86 1542.04 1893.41 1547.07 L1914.29 1547.04 Z" fill="#000000" fill-rule="nonzero" fill-opacity="1"></path><path clip-path="url(#clip850)" d="M1964.55 1518.58 Q1960.28 1525.9 1958.21 1533.06 Q1956.15 1540.23 1956.15 1547.58 Q1956.15 1554.93 1958.21 1562.16 Q1960.32 1569.35 1964.55 1576.64 L1959.46 1576.64 Q1954.68 1569.16 1952.29 1561.93 Q1949.94 1554.71 1949.94 1547.58 Q1949.94 1540.48 1952.29 1533.29 Q1954.65 1526.09 1959.46 1518.58 L1964.55 1518.58 Z" fill="#000000" fill-rule="nonzero" fill-opacity="1"></path><path clip-path="url(#clip850)" d="M1998.64 1533.45 L1998.64 1538.98 Q1996.15 1537.71 1993.48 1537.07 Q1990.81 1536.44 1987.94 1536.44 Q1983.58 1536.44 1981.39 1537.77 Q1979.22 1539.11 1979.22 1541.79 Q1979.22 1543.82 1980.78 1545 Q1982.34 1546.15 1987.05 1547.2 L1989.06 1547.64 Q1995.29 1548.98 1997.9 1551.43 Q2000.55 1553.85 2000.55 1558.21 Q2000.55 1563.17 1996.6 1566.07 Q1992.68 1568.97 1985.81 1568.97 Q1982.95 1568.97 1979.83 1568.39 Q1976.74 1567.85 1973.3 1566.74 L1973.3 1560.69 Q1976.55 1562.38 1979.7 1563.24 Q1982.85 1564.07 1985.94 1564.07 Q1990.07 1564.07 1992.3 1562.66 Q1994.53 1561.23 1994.53 1558.65 Q1994.53 1556.27 1992.91 1554.99 Q1991.32 1553.72 1985.87 1552.54 L1983.84 1552.07 Q1978.39 1550.92 1975.97 1548.56 Q1973.56 1546.18 1973.56 1542.04 Q1973.56 1537.01 1977.12 1534.27 Q1980.69 1531.54 1987.24 1531.54 Q1990.49 1531.54 1993.35 1532.01 Q1996.22 1532.49 1998.64 1533.45 Z" fill="#000000" fill-rule="nonzero" fill-opacity="1"></path><path clip-path="url(#clip850)" d="M2008.95 1518.58 L2014.04 1518.58 Q2018.82 1526.09 2021.17 1533.29 Q2023.56 1540.48 2023.56 1547.58 Q2023.56 1554.71 2021.17 1561.93 Q2018.82 1569.16 2014.04 1576.64 L2008.95 1576.64 Q2013.18 1569.35 2015.25 1562.16 Q2017.35 1554.93 2017.35 1547.58 Q2017.35 1540.23 2015.25 1533.06 Q2013.18 1525.9 2008.95 1518.58 Z" fill="#000000" fill-rule="nonzero" fill-opacity="1"></path><polyline clip-path="url(#clip854)" style="stroke:#000000; stroke-linecap:round; stroke-linejoin:round; stroke-width:2; stroke-opacity:0.1; fill:none" points="1434.7,1281.9 2352.76,1281.9 "></polyline>
<polyline clip-path="url(#clip854)" style="stroke:#000000; stroke-linecap:round; stroke-linejoin:round; stroke-width:2; stroke-opacity:0.1; fill:none" points="1434.7,1131.23 2352.76,1131.23 "></polyline>
<polyline clip-path="url(#clip854)" style="stroke:#000000; stroke-linecap:round; stroke-linejoin:round; stroke-width:2; stroke-opacity:0.1; fill:none" points="1434.7,980.563 2352.76,980.563 "></polyline>
<polyline clip-path="url(#clip854)" style="stroke:#000000; stroke-linecap:round; stroke-linejoin:round; stroke-width:2; stroke-opacity:0.1; fill:none" points="1434.7,829.892 2352.76,829.892 "></polyline>
<polyline clip-path="url(#clip850)" style="stroke:#000000; stroke-linecap:round; stroke-linejoin:round; stroke-width:4; stroke-opacity:1; fill:none" points="1434.7,1423.18 1434.7,815.61 "></polyline>
<polyline clip-path="url(#clip850)" style="stroke:#000000; stroke-linecap:round; stroke-linejoin:round; stroke-width:4; stroke-opacity:1; fill:none" points="1434.7,1281.9 1453.6,1281.9 "></polyline>
<polyline clip-path="url(#clip850)" style="stroke:#000000; stroke-linecap:round; stroke-linejoin:round; stroke-width:4; stroke-opacity:1; fill:none" points="1434.7,1131.23 1453.6,1131.23 "></polyline>
<polyline clip-path="url(#clip850)" style="stroke:#000000; stroke-linecap:round; stroke-linejoin:round; stroke-width:4; stroke-opacity:1; fill:none" points="1434.7,980.563 1453.6,980.563 "></polyline>
<polyline clip-path="url(#clip850)" style="stroke:#000000; stroke-linecap:round; stroke-linejoin:round; stroke-width:4; stroke-opacity:1; fill:none" points="1434.7,829.892 1453.6,829.892 "></polyline>
<path clip-path="url(#clip850)" d="M1341.04 1267.7 Q1337.43 1267.7 1335.6 1271.27 Q1333.8 1274.81 1333.8 1281.94 Q1333.8 1289.04 1335.6 1292.61 Q1337.43 1296.15 1341.04 1296.15 Q1344.68 1296.15 1346.48 1292.61 Q1348.31 1289.04 1348.31 1281.94 Q1348.31 1274.81 1346.48 1271.27 Q1344.68 1267.7 1341.04 1267.7 M1341.04 1264 Q1346.85 1264 1349.91 1268.6 Q1352.99 1273.19 1352.99 1281.94 Q1352.99 1290.66 1349.91 1295.27 Q1346.85 1299.85 1341.04 1299.85 Q1335.23 1299.85 1332.15 1295.27 Q1329.1 1290.66 1329.1 1281.94 Q1329.1 1273.19 1332.15 1268.6 Q1335.23 1264 1341.04 1264 Z" fill="#000000" fill-rule="nonzero" fill-opacity="1"></path><path clip-path="url(#clip850)" d="M1361.2 1293.3 L1366.09 1293.3 L1366.09 1299.18 L1361.2 1299.18 L1361.2 1293.3 Z" fill="#000000" fill-rule="nonzero" fill-opacity="1"></path><path clip-path="url(#clip850)" d="M1389.12 1268.7 L1377.32 1287.15 L1389.12 1287.15 L1389.12 1268.7 M1387.89 1264.62 L1393.77 1264.62 L1393.77 1287.15 L1398.7 1287.15 L1398.7 1291.03 L1393.77 1291.03 L1393.77 1299.18 L1389.12 1299.18 L1389.12 1291.03 L1373.52 1291.03 L1373.52 1286.52 L1387.89 1264.62 Z" fill="#000000" fill-rule="nonzero" fill-opacity="1"></path><path clip-path="url(#clip850)" d="M1341.37 1117.03 Q1337.76 1117.03 1335.93 1120.6 Q1334.12 1124.14 1334.12 1131.27 Q1334.12 1138.37 1335.93 1141.94 Q1337.76 1145.48 1341.37 1145.48 Q1345 1145.48 1346.81 1141.94 Q1348.63 1138.37 1348.63 1131.27 Q1348.63 1124.14 1346.81 1120.6 Q1345 1117.03 1341.37 1117.03 M1341.37 1113.33 Q1347.18 1113.33 1350.23 1117.93 Q1353.31 1122.52 1353.31 1131.27 Q1353.31 1139.99 1350.23 1144.6 Q1347.18 1149.18 1341.37 1149.18 Q1335.56 1149.18 1332.48 1144.6 Q1329.42 1139.99 1329.42 1131.27 Q1329.42 1122.52 1332.48 1117.93 Q1335.56 1113.33 1341.37 1113.33 Z" fill="#000000" fill-rule="nonzero" fill-opacity="1"></path><path clip-path="url(#clip850)" d="M1361.53 1142.63 L1366.41 1142.63 L1366.41 1148.51 L1361.53 1148.51 L1361.53 1142.63 Z" fill="#000000" fill-rule="nonzero" fill-opacity="1"></path><path clip-path="url(#clip850)" d="M1387.18 1129.37 Q1384.03 1129.37 1382.18 1131.52 Q1380.35 1133.67 1380.35 1137.42 Q1380.35 1141.15 1382.18 1143.33 Q1384.03 1145.48 1387.18 1145.48 Q1390.32 1145.48 1392.15 1143.33 Q1394.01 1141.15 1394.01 1137.42 Q1394.01 1133.67 1392.15 1131.52 Q1390.32 1129.37 1387.18 1129.37 M1396.46 1114.72 L1396.46 1118.98 Q1394.7 1118.14 1392.89 1117.7 Q1391.11 1117.26 1389.35 1117.26 Q1384.72 1117.26 1382.27 1120.39 Q1379.84 1123.51 1379.49 1129.83 Q1380.86 1127.82 1382.92 1126.75 Q1384.98 1125.67 1387.45 1125.67 Q1392.66 1125.67 1395.67 1128.84 Q1398.7 1131.99 1398.7 1137.42 Q1398.7 1142.75 1395.56 1145.97 Q1392.41 1149.18 1387.18 1149.18 Q1381.18 1149.18 1378.01 1144.6 Q1374.84 1139.99 1374.84 1131.27 Q1374.84 1123.07 1378.73 1118.21 Q1382.62 1113.33 1389.17 1113.33 Q1390.93 1113.33 1392.71 1113.68 Q1394.51 1114.02 1396.46 1114.72 Z" fill="#000000" fill-rule="nonzero" fill-opacity="1"></path><path clip-path="url(#clip850)" d="M1341.62 966.361 Q1338.01 966.361 1336.18 969.926 Q1334.38 973.468 1334.38 980.597 Q1334.38 987.704 1336.18 991.269 Q1338.01 994.81 1341.62 994.81 Q1345.26 994.81 1347.06 991.269 Q1348.89 987.704 1348.89 980.597 Q1348.89 973.468 1347.06 969.926 Q1345.26 966.361 1341.62 966.361 M1341.62 962.658 Q1347.43 962.658 1350.49 967.264 Q1353.57 971.847 1353.57 980.597 Q1353.57 989.324 1350.49 993.931 Q1347.43 998.514 1341.62 998.514 Q1335.81 998.514 1332.73 993.931 Q1329.68 989.324 1329.68 980.597 Q1329.68 971.847 1332.73 967.264 Q1335.81 962.658 1341.62 962.658 Z" fill="#000000" fill-rule="nonzero" fill-opacity="1"></path><path clip-path="url(#clip850)" d="M1361.78 991.963 L1366.67 991.963 L1366.67 997.843 L1361.78 997.843 L1361.78 991.963 Z" fill="#000000" fill-rule="nonzero" fill-opacity="1"></path><path clip-path="url(#clip850)" d="M1386.85 981.431 Q1383.52 981.431 1381.6 983.213 Q1379.7 984.995 1379.7 988.12 Q1379.7 991.245 1381.6 993.028 Q1383.52 994.81 1386.85 994.81 Q1390.19 994.81 1392.11 993.028 Q1394.03 991.222 1394.03 988.12 Q1394.03 984.995 1392.11 983.213 Q1390.21 981.431 1386.85 981.431 M1382.18 979.44 Q1379.17 978.699 1377.48 976.639 Q1375.81 974.579 1375.81 971.616 Q1375.81 967.472 1378.75 965.065 Q1381.71 962.658 1386.85 962.658 Q1392.01 962.658 1394.95 965.065 Q1397.89 967.472 1397.89 971.616 Q1397.89 974.579 1396.2 976.639 Q1394.54 978.699 1391.55 979.44 Q1394.93 980.227 1396.81 982.519 Q1398.7 984.81 1398.7 988.12 Q1398.7 993.144 1395.63 995.829 Q1392.57 998.514 1386.85 998.514 Q1381.13 998.514 1378.06 995.829 Q1375 993.144 1375 988.12 Q1375 984.81 1376.9 982.519 Q1378.8 980.227 1382.18 979.44 M1380.46 972.056 Q1380.46 974.741 1382.13 976.246 Q1383.82 977.75 1386.85 977.75 Q1389.86 977.75 1391.55 976.246 Q1393.26 974.741 1393.26 972.056 Q1393.26 969.371 1391.55 967.866 Q1389.86 966.361 1386.85 966.361 Q1383.82 966.361 1382.13 967.866 Q1380.46 969.371 1380.46 972.056 Z" fill="#000000" fill-rule="nonzero" fill-opacity="1"></path><path clip-path="url(#clip850)" d="M1332.34 843.237 L1339.98 843.237 L1339.98 816.872 L1331.67 818.538 L1331.67 814.279 L1339.93 812.612 L1344.61 812.612 L1344.61 843.237 L1352.25 843.237 L1352.25 847.172 L1332.34 847.172 L1332.34 843.237 Z" fill="#000000" fill-rule="nonzero" fill-opacity="1"></path><path clip-path="url(#clip850)" d="M1361.69 841.293 L1366.57 841.293 L1366.57 847.172 L1361.69 847.172 L1361.69 841.293 Z" fill="#000000" fill-rule="nonzero" fill-opacity="1"></path><path clip-path="url(#clip850)" d="M1386.76 815.691 Q1383.15 815.691 1381.32 819.256 Q1379.51 822.798 1379.51 829.927 Q1379.51 837.034 1381.32 840.598 Q1383.15 844.14 1386.76 844.14 Q1390.39 844.14 1392.2 840.598 Q1394.03 837.034 1394.03 829.927 Q1394.03 822.798 1392.2 819.256 Q1390.39 815.691 1386.76 815.691 M1386.76 811.987 Q1392.57 811.987 1395.63 816.594 Q1398.7 821.177 1398.7 829.927 Q1398.7 838.654 1395.63 843.26 Q1392.57 847.844 1386.76 847.844 Q1380.95 847.844 1377.87 843.26 Q1374.82 838.654 1374.82 829.927 Q1374.82 821.177 1377.87 816.594 Q1380.95 811.987 1386.76 811.987 Z" fill="#000000" fill-rule="nonzero" fill-opacity="1"></path><path clip-path="url(#clip850)" d="M1239.3 1124.81 L1240.22 1125.38 Q1238.71 1128.87 1236.3 1133.22 Q1238.71 1137.57 1240.22 1141.07 L1239.3 1141.61 Q1235.99 1137.8 1233.44 1133.22 Q1236.01 1128.6 1239.3 1124.81 Z" fill="#000000" fill-rule="nonzero" fill-opacity="1"></path><path clip-path="url(#clip850)" d="M1251.6 1121.65 Q1253.4 1121.65 1254.43 1122.78 Q1255.43 1123.91 1255.43 1125.19 Q1255.43 1126.42 1254.72 1127.06 Q1254.01 1127.71 1253.11 1127.71 Q1251.89 1127.71 1250.82 1126.8 Q1249.76 1125.9 1249.54 1124.55 Q1248.7 1125.87 1248.7 1127.84 Q1248.7 1129.12 1249.38 1130.25 Q1250.05 1131.35 1250.92 1132.02 Q1251.79 1132.67 1253.05 1133.25 Q1254.27 1133.79 1255.01 1134.02 Q1255.72 1134.21 1256.49 1134.37 L1265.51 1136.63 Q1269.79 1137.72 1271.31 1137.72 Q1273.18 1137.72 1274.43 1136.82 Q1275.66 1135.92 1275.66 1134.12 Q1275.66 1133.41 1275.46 1132.6 Q1275.24 1131.8 1274.66 1130.77 Q1274.04 1129.7 1273.14 1128.77 Q1272.21 1127.8 1270.63 1126.87 Q1269.05 1125.94 1267.02 1125.32 Q1266.32 1125.13 1266.32 1124.49 Q1266.32 1123.68 1266.96 1123.68 Q1267.51 1123.68 1268.67 1124.13 Q1269.79 1124.55 1271.28 1125.48 Q1272.72 1126.39 1274.04 1127.58 Q1275.33 1128.77 1276.23 1130.54 Q1277.14 1132.31 1277.14 1134.24 Q1277.14 1137.01 1275.66 1138.85 Q1274.17 1140.69 1272.11 1141.36 Q1272.4 1141.52 1272.79 1141.75 Q1273.18 1141.97 1274.04 1142.65 Q1274.88 1143.29 1275.53 1144.04 Q1276.14 1144.78 1276.62 1145.94 Q1277.14 1147.06 1277.14 1148.29 Q1277.14 1149.83 1276.69 1151.22 Q1276.23 1152.57 1275.2 1153.54 Q1274.17 1154.5 1272.76 1154.5 Q1271.18 1154.5 1270.08 1153.44 Q1268.96 1152.34 1268.96 1150.86 Q1268.96 1149.93 1269.5 1149.19 Q1270.05 1148.42 1271.24 1148.42 Q1272.56 1148.42 1273.56 1149.32 Q1274.56 1150.22 1274.82 1151.51 Q1275.66 1150.19 1275.66 1148.22 Q1275.66 1146.1 1273.79 1144.42 Q1271.92 1142.75 1268.8 1141.94 Q1261.29 1139.94 1257.94 1139.17 Q1254.56 1138.4 1253.11 1138.4 Q1251.76 1138.4 1250.82 1138.75 Q1249.89 1139.11 1249.47 1139.72 Q1249.02 1140.3 1248.86 1140.85 Q1248.7 1141.36 1248.7 1141.94 Q1248.7 1142.91 1249.09 1144 Q1249.47 1145.07 1250.37 1146.35 Q1251.24 1147.61 1253.05 1148.8 Q1254.85 1149.99 1257.33 1150.8 Q1258.07 1150.96 1258.07 1151.67 Q1258.04 1152.44 1257.39 1152.44 Q1256.85 1152.44 1255.72 1152.02 Q1254.56 1151.57 1253.11 1150.67 Q1251.66 1149.74 1250.37 1148.54 Q1249.05 1147.32 1248.15 1145.55 Q1247.25 1143.75 1247.25 1141.81 Q1247.25 1140.94 1247.44 1140.11 Q1247.6 1139.24 1248.09 1138.21 Q1248.57 1137.14 1249.63 1136.21 Q1250.7 1135.28 1252.24 1134.7 Q1251.5 1134.31 1250.79 1133.79 Q1250.08 1133.25 1249.21 1132.41 Q1248.31 1131.54 1247.8 1130.35 Q1247.25 1129.12 1247.25 1127.77 Q1247.25 1126.45 1247.6 1125.16 Q1247.93 1123.87 1248.99 1122.78 Q1250.02 1121.65 1251.6 1121.65 Z" fill="#000000" fill-rule="nonzero" fill-opacity="1"></path><path clip-path="url(#clip850)" d="M1295.41 1114.19 Q1294.57 1114.19 1294.32 1114.13 Q1294.08 1114.04 1293.69 1113.67 L1283.82 1104.81 Q1278.36 1099.97 1273.61 1099.97 Q1270.52 1099.97 1268.31 1101.59 Q1266.1 1103.19 1266.1 1106.14 Q1266.1 1108.17 1267.34 1109.89 Q1268.58 1111.6 1270.79 1112.39 Q1270.74 1112.25 1270.74 1111.78 Q1270.74 1110.63 1271.46 1110 Q1272.19 1109.35 1273.16 1109.35 Q1274.4 1109.35 1275 1110.16 Q1275.59 1110.95 1275.59 1111.74 Q1275.59 1112.05 1275.52 1112.48 Q1275.46 1112.89 1274.82 1113.54 Q1274.17 1114.19 1273.02 1114.19 Q1269.8 1114.19 1267.23 1111.76 Q1264.66 1109.3 1264.66 1105.56 Q1264.66 1101.32 1267.18 1098.55 Q1269.68 1095.75 1273.61 1095.75 Q1274.98 1095.75 1276.24 1096.18 Q1277.48 1096.59 1278.45 1097.15 Q1279.42 1097.69 1280.98 1099.18 Q1282.53 1100.67 1283.64 1101.86 Q1284.74 1103.06 1287.09 1105.74 L1291.84 1110.63 L1291.84 1102.31 Q1291.84 1098.25 1291.48 1097.94 Q1290.83 1097.49 1287.38 1096.92 L1287.38 1095.75 L1295.41 1097.06 L1295.41 1114.19 Z" fill="#000000" fill-rule="nonzero" fill-opacity="1"></path><polyline clip-path="url(#clip854)" style="stroke:#e26f46; stroke-linecap:round; stroke-linejoin:round; stroke-width:3; stroke-opacity:1; fill:none" stroke-dasharray="12, 6, 2, 6" points="1460.69,1405.98 1496.77,1304.68 1532.86,1224.66 1568.95,1154.77 1605.03,1094.45 1641.12,1043.69 1677.21,1001.79 1713.3,967.635 1749.38,940.03 1785.47,917.836 1821.56,900.053 1857.64,885.834 1893.73,874.481 1929.82,865.424 1965.9,858.203 2001.99,852.447 2038.08,847.861 2074.16,844.206 2110.25,841.295 2146.34,838.975 2182.43,837.128 2218.51,835.656 2254.6,834.483 2290.69,833.549 2326.77,832.805 "></polyline>
</svg>