<svg xmlns="http://www.w3.org/2000/svg" xmlns:xlink="http://www.w3.org/1999/xlink" width="600" height="400" viewBox="0 0 2400 1600">
<defs>
  <clipPath id="clip770">
    <rect x="0" y="0" width="2400" height="1600"></rect>
  </clipPath>
</defs>
<path clip-path="url(#clip770)" d="M0 1600 L2400 1600 L2400 0 L0 0  Z" fill="#ffffff" fill-rule="evenodd" fill-opacity="1"></path>
<defs>
  <clipPath id="clip771">
    <rect x="480" y="0" width="1681" height="1600"></rect>
  </clipPath>
</defs>
<path clip-path="url(#clip770)" d="M249.542 1423.18 L1152.76 1423.18 L1152.76 47.2441 L249.542 47.2441  Z" fill="#ffffff" fill-rule="evenodd" fill-opacity="1"></path>
<defs>
  <clipPath id="clip772">
    <rect x="249" y="47" width="904" height="1377"></rect>
  </clipPath>
</defs>
<polyline clip-path="url(#clip772)" style="stroke:#000000; stroke-linecap:round; stroke-linejoin:round; stroke-width:2; stroke-opacity:0.1; fill:none" points="275.105,1423.18 275.105,47.2441 "></polyline>
<polyline clip-path="url(#clip772)" style="stroke:#000000; stroke-linecap:round; stroke-linejoin:round; stroke-width:2; stroke-opacity:0.1; fill:none" points="452.623,1423.18 452.623,47.2441 "></polyline>
<polyline clip-path="url(#clip772)" style="stroke:#000000; stroke-linecap:round; stroke-linejoin:round; stroke-width:2; stroke-opacity:0.1; fill:none" points="630.142,1423.18 630.142,47.2441 "></polyline>
<polyline clip-path="url(#clip772)" style="stroke:#000000; stroke-linecap:round; stroke-linejoin:round; stroke-width:2; stroke-opacity:0.1; fill:none" points="807.66,1423.18 807.66,47.2441 "></polyline>
<polyline clip-path="url(#clip772)" style="stroke:#000000; stroke-linecap:round; stroke-linejoin:round; stroke-width:2; stroke-opacity:0.1; fill:none" points="985.178,1423.18 985.178,47.2441 "></polyline>
<polyline clip-path="url(#clip770)" style="stroke:#000000; stroke-linecap:round; stroke-linejoin:round; stroke-width:4; stroke-opacity:1; fill:none" points="249.542,1423.18 1152.76,1423.18 "></polyline>
<polyline clip-path="url(#clip770)" style="stroke:#000000; stroke-linecap:round; stroke-linejoin:round; stroke-width:4; stroke-opacity:1; fill:none" points="275.105,1423.18 275.105,1404.28 "></polyline>
<polyline clip-path="url(#clip770)" style="stroke:#000000; stroke-linecap:round; stroke-linejoin:round; stroke-width:4; stroke-opacity:1; fill:none" points="452.623,1423.18 452.623,1404.28 "></polyline>
<polyline clip-path="url(#clip770)" style="stroke:#000000; stroke-linecap:round; stroke-linejoin:round; stroke-width:4; stroke-opacity:1; fill:none" points="630.142,1423.18 630.142,1404.28 "></polyline>
<polyline clip-path="url(#clip770)" style="stroke:#000000; stroke-linecap:round; stroke-linejoin:round; stroke-width:4; stroke-opacity:1; fill:none" points="807.66,1423.18 807.66,1404.28 "></polyline>
<polyline clip-path="url(#clip770)" style="stroke:#000000; stroke-linecap:round; stroke-linejoin:round; stroke-width:4; stroke-opacity:1; fill:none" points="985.178,1423.18 985.178,1404.28 "></polyline>
<path clip-path="url(#clip770)" d="M275.105 1454.1 Q271.494 1454.1 269.665 1457.66 Q267.859 1461.2 267.859 1468.33 Q267.859 1475.44 269.665 1479.01 Q271.494 1482.55 275.105 1482.55 Q278.739 1482.55 280.544 1479.01 Q282.373 1475.44 282.373 1468.33 Q282.373 1461.2 280.544 1457.66 Q278.739 1454.1 275.105 1454.1 M275.105 1450.39 Q280.915 1450.39 283.97 1455 Q287.049 1459.58 287.049 1468.33 Q287.049 1477.06 283.97 1481.67 Q280.915 1486.25 275.105 1486.25 Q269.295 1486.25 266.216 1481.67 Q263.16 1477.06 263.16 1468.33 Q263.16 1459.58 266.216 1455 Q269.295 1450.39 275.105 1450.39 Z" fill="#000000" fill-rule="nonzero" fill-opacity="1"></path><path clip-path="url(#clip770)" d="M442.901 1451.02 L461.257 1451.02 L461.257 1454.96 L447.183 1454.96 L447.183 1463.43 Q448.202 1463.08 449.22 1462.92 Q450.239 1462.73 451.257 1462.73 Q457.044 1462.73 460.424 1465.9 Q463.804 1469.08 463.804 1474.49 Q463.804 1480.07 460.331 1483.17 Q456.859 1486.25 450.54 1486.25 Q448.364 1486.25 446.095 1485.88 Q443.85 1485.51 441.443 1484.77 L441.443 1480.07 Q443.526 1481.2 445.748 1481.76 Q447.97 1482.32 450.447 1482.32 Q454.452 1482.32 456.79 1480.21 Q459.128 1478.1 459.128 1474.49 Q459.128 1470.88 456.79 1468.77 Q454.452 1466.67 450.447 1466.67 Q448.572 1466.67 446.697 1467.08 Q444.845 1467.5 442.901 1468.38 L442.901 1451.02 Z" fill="#000000" fill-rule="nonzero" fill-opacity="1"></path><path clip-path="url(#clip770)" d="M604.829 1481.64 L612.468 1481.64 L612.468 1455.28 L604.158 1456.95 L604.158 1452.69 L612.422 1451.02 L617.098 1451.02 L617.098 1481.64 L624.737 1481.64 L624.737 1485.58 L604.829 1485.58 L604.829 1481.64 Z" fill="#000000" fill-rule="nonzero" fill-opacity="1"></path><path clip-path="url(#clip770)" d="M644.181 1454.1 Q640.57 1454.1 638.741 1457.66 Q636.936 1461.2 636.936 1468.33 Q636.936 1475.44 638.741 1479.01 Q640.57 1482.55 644.181 1482.55 Q647.815 1482.55 649.621 1479.01 Q651.449 1475.44 651.449 1468.33 Q651.449 1461.2 649.621 1457.66 Q647.815 1454.1 644.181 1454.1 M644.181 1450.39 Q649.991 1450.39 653.047 1455 Q656.125 1459.58 656.125 1468.33 Q656.125 1477.06 653.047 1481.67 Q649.991 1486.25 644.181 1486.25 Q638.371 1486.25 635.292 1481.67 Q632.236 1477.06 632.236 1468.33 Q632.236 1459.58 635.292 1455 Q638.371 1450.39 644.181 1450.39 Z" fill="#000000" fill-rule="nonzero" fill-opacity="1"></path><path clip-path="url(#clip770)" d="M782.845 1481.64 L790.484 1481.64 L790.484 1455.28 L782.174 1456.95 L782.174 1452.69 L790.438 1451.02 L795.114 1451.02 L795.114 1481.64 L802.753 1481.64 L802.753 1485.58 L782.845 1485.58 L782.845 1481.64 Z" fill="#000000" fill-rule="nonzero" fill-opacity="1"></path><path clip-path="url(#clip770)" d="M812.243 1451.02 L830.6 1451.02 L830.6 1454.96 L816.526 1454.96 L816.526 1463.43 Q817.544 1463.08 818.563 1462.92 Q819.581 1462.73 820.6 1462.73 Q826.387 1462.73 829.766 1465.9 Q833.146 1469.08 833.146 1474.49 Q833.146 1480.07 829.674 1483.17 Q826.202 1486.25 819.882 1486.25 Q817.706 1486.25 815.438 1485.88 Q813.192 1485.51 810.785 1484.77 L810.785 1480.07 Q812.868 1481.2 815.091 1481.76 Q817.313 1482.32 819.79 1482.32 Q823.794 1482.32 826.132 1480.21 Q828.47 1478.1 828.47 1474.49 Q828.47 1470.88 826.132 1468.77 Q823.794 1466.67 819.79 1466.67 Q817.915 1466.67 816.04 1467.08 Q814.188 1467.5 812.243 1468.38 L812.243 1451.02 Z" fill="#000000" fill-rule="nonzero" fill-opacity="1"></path><path clip-path="url(#clip770)" d="M963.952 1481.64 L980.271 1481.64 L980.271 1485.58 L958.327 1485.58 L958.327 1481.64 Q960.989 1478.89 965.572 1474.26 Q970.179 1469.61 971.359 1468.27 Q973.604 1465.74 974.484 1464.01 Q975.387 1462.25 975.387 1460.56 Q975.387 1457.8 973.442 1456.07 Q971.521 1454.33 968.419 1454.33 Q966.22 1454.33 963.767 1455.09 Q961.336 1455.86 958.558 1457.41 L958.558 1452.69 Q961.382 1451.55 963.836 1450.97 Q966.29 1450.39 968.327 1450.39 Q973.697 1450.39 976.891 1453.08 Q980.086 1455.77 980.086 1460.26 Q980.086 1462.39 979.276 1464.31 Q978.489 1466.2 976.382 1468.8 Q975.804 1469.47 972.702 1472.69 Q969.6 1475.88 963.952 1481.64 Z" fill="#000000" fill-rule="nonzero" fill-opacity="1"></path><path clip-path="url(#clip770)" d="M1000.09 1454.1 Q996.475 1454.1 994.646 1457.66 Q992.84 1461.2 992.84 1468.33 Q992.84 1475.44 994.646 1479.01 Q996.475 1482.55 1000.09 1482.55 Q1003.72 1482.55 1005.53 1479.01 Q1007.35 1475.44 1007.35 1468.33 Q1007.35 1461.2 1005.53 1457.66 Q1003.72 1454.1 1000.09 1454.1 M1000.09 1450.39 Q1005.9 1450.39 1008.95 1455 Q1012.03 1459.58 1012.03 1468.33 Q1012.03 1477.06 1008.95 1481.67 Q1005.9 1486.25 1000.09 1486.25 Q994.276 1486.25 991.197 1481.67 Q988.141 1477.06 988.141 1468.33 Q988.141 1459.58 991.197 1455 Q994.276 1450.39 1000.09 1450.39 Z" fill="#000000" fill-rule="nonzero" fill-opacity="1"></path><path clip-path="url(#clip770)" d="M571.32 1520.52 L611.52 1520.52 L611.52 1525.93 L594.651 1525.93 L594.651 1568.04 L588.19 1568.04 L588.19 1525.93 L571.32 1525.93 L571.32 1520.52 Z" fill="#000000" fill-rule="nonzero" fill-opacity="1"></path><path clip-path="url(#clip770)" d="M615.467 1532.4 L621.323 1532.4 L621.323 1568.04 L615.467 1568.04 L615.467 1532.4 M615.467 1518.52 L621.323 1518.52 L621.323 1525.93 L615.467 1525.93 L615.467 1518.52 Z" fill="#000000" fill-rule="nonzero" fill-opacity="1"></path><path clip-path="url(#clip770)" d="M661.331 1539.24 Q663.528 1535.29 666.583 1533.41 Q669.639 1531.54 673.776 1531.54 Q679.346 1531.54 682.37 1535.45 Q685.394 1539.33 685.394 1546.53 L685.394 1568.04 L679.506 1568.04 L679.506 1546.72 Q679.506 1541.59 677.691 1539.11 Q675.877 1536.63 672.153 1536.63 Q667.602 1536.63 664.96 1539.65 Q662.318 1542.68 662.318 1547.9 L662.318 1568.04 L656.43 1568.04 L656.43 1546.72 Q656.43 1541.56 654.616 1539.11 Q652.801 1536.63 649.014 1536.63 Q644.526 1536.63 641.884 1539.68 Q639.242 1542.71 639.242 1547.9 L639.242 1568.04 L633.354 1568.04 L633.354 1532.4 L639.242 1532.4 L639.242 1537.93 Q641.248 1534.66 644.049 1533.1 Q646.849 1531.54 650.701 1531.54 Q654.584 1531.54 657.289 1533.51 Q660.027 1535.48 661.331 1539.24 Z" fill="#000000" fill-rule="nonzero" fill-opacity="1"></path><path clip-path="url(#clip770)" d="M727.567 1548.76 L727.567 1551.62 L700.64 1551.62 Q701.022 1557.67 704.268 1560.85 Q707.547 1564 713.371 1564 Q716.745 1564 719.896 1563.17 Q723.079 1562.35 726.198 1560.69 L726.198 1566.23 Q723.047 1567.57 719.737 1568.27 Q716.427 1568.97 713.021 1568.97 Q704.491 1568.97 699.494 1564 Q694.529 1559.04 694.529 1550.57 Q694.529 1541.82 699.239 1536.69 Q703.982 1531.54 712.002 1531.54 Q719.196 1531.54 723.365 1536.18 Q727.567 1540.8 727.567 1548.76 M721.71 1547.04 Q721.647 1542.23 719.005 1539.37 Q716.395 1536.5 712.066 1536.5 Q707.165 1536.5 704.205 1539.27 Q701.276 1542.04 700.831 1547.07 L721.71 1547.04 Z" fill="#000000" fill-rule="nonzero" fill-opacity="1"></path><path clip-path="url(#clip770)" d="M771.967 1518.58 Q767.702 1525.9 765.634 1533.06 Q763.565 1540.23 763.565 1547.58 Q763.565 1554.93 765.634 1562.16 Q767.734 1569.35 771.967 1576.64 L766.875 1576.64 Q762.101 1569.16 759.713 1561.93 Q757.358 1554.71 757.358 1547.58 Q757.358 1540.48 759.713 1533.29 Q762.069 1526.09 766.875 1518.58 L771.967 1518.58 Z" fill="#000000" fill-rule="nonzero" fill-opacity="1"></path><path clip-path="url(#clip770)" d="M806.056 1533.45 L806.056 1538.98 Q803.573 1537.71 800.9 1537.07 Q798.226 1536.44 795.361 1536.44 Q791.001 1536.44 788.805 1537.77 Q786.64 1539.11 786.64 1541.79 Q786.64 1543.82 788.2 1545 Q789.76 1546.15 794.47 1547.2 L796.475 1547.64 Q802.714 1548.98 805.324 1551.43 Q807.966 1553.85 807.966 1558.21 Q807.966 1563.17 804.019 1566.07 Q800.104 1568.97 793.229 1568.97 Q790.364 1568.97 787.245 1568.39 Q784.158 1567.85 780.72 1566.74 L780.72 1560.69 Q783.967 1562.38 787.118 1563.24 Q790.269 1564.07 793.356 1564.07 Q797.494 1564.07 799.722 1562.66 Q801.95 1561.23 801.95 1558.65 Q801.95 1556.27 800.327 1554.99 Q798.735 1553.72 793.293 1552.54 L791.256 1552.07 Q785.813 1550.92 783.394 1548.56 Q780.975 1546.18 780.975 1542.04 Q780.975 1537.01 784.54 1534.27 Q788.105 1531.54 794.661 1531.54 Q797.908 1531.54 800.772 1532.01 Q803.637 1532.49 806.056 1533.45 Z" fill="#000000" fill-rule="nonzero" fill-opacity="1"></path><path clip-path="url(#clip770)" d="M816.368 1518.58 L821.461 1518.58 Q826.235 1526.09 828.59 1533.29 Q830.978 1540.48 830.978 1547.58 Q830.978 1554.71 828.59 1561.93 Q826.235 1569.16 821.461 1576.64 L816.368 1576.64 Q820.601 1569.35 822.67 1562.16 Q824.771 1554.93 824.771 1547.58 Q824.771 1540.23 822.67 1533.06 Q820.601 1525.9 816.368 1518.58 Z" fill="#000000" fill-rule="nonzero" fill-opacity="1"></path><polyline clip-path="url(#clip772)" style="stroke:#000000; stroke-linecap:round; stroke-linejoin:round; stroke-width:2; stroke-opacity:0.1; fill:none" points="249.542,1384.24 1152.76,1384.24 "></polyline>
<polyline clip-path="url(#clip772)" style="stroke:#000000; stroke-linecap:round; stroke-linejoin:round; stroke-width:2; stroke-opacity:0.1; fill:none" points="249.542,1059.73 1152.76,1059.73 "></polyline>
<polyline clip-path="url(#clip772)" style="stroke:#000000; stroke-linecap:round; stroke-linejoin:round; stroke-width:2; stroke-opacity:0.1; fill:none" points="249.542,735.212 1152.76,735.212 "></polyline>
<polyline clip-path="url(#clip772)" style="stroke:#000000; stroke-linecap:round; stroke-linejoin:round; stroke-width:2; stroke-opacity:0.1; fill:none" points="249.542,410.699 1152.76,410.699 "></polyline>
<polyline clip-path="url(#clip772)" style="stroke:#000000; stroke-linecap:round; stroke-linejoin:round; stroke-width:2; stroke-opacity:0.1; fill:none" points="249.542,86.1857 1152.76,86.1857 "></polyline>
<polyline clip-path="url(#clip770)" style="stroke:#000000; stroke-linecap:round; stroke-linejoin:round; stroke-width:4; stroke-opacity:1; fill:none" points="249.542,1423.18 249.542,47.2441 "></polyline>
<polyline clip-path="url(#clip770)" style="stroke:#000000; stroke-linecap:round; stroke-linejoin:round; stroke-width:4; stroke-opacity:1; fill:none" points="249.542,1384.24 268.44,1384.24 "></polyline>
<polyline clip-path="url(#clip770)" style="stroke:#000000; stroke-linecap:round; stroke-linejoin:round; stroke-width:4; stroke-opacity:1; fill:none" points="249.542,1059.73 268.44,1059.73 "></polyline>
<polyline clip-path="url(#clip770)" style="stroke:#000000; stroke-linecap:round; stroke-linejoin:round; stroke-width:4; stroke-opacity:1; fill:none" points="249.542,735.212 268.44,735.212 "></polyline>
<polyline clip-path="url(#clip770)" style="stroke:#000000; stroke-linecap:round; stroke-linejoin:round; stroke-width:4; stroke-opacity:1; fill:none" points="249.542,410.699 268.44,410.699 "></polyline>
<polyline clip-path="url(#clip770)" style="stroke:#000000; stroke-linecap:round; stroke-linejoin:round; stroke-width:4; stroke-opacity:1; fill:none" points="249.542,86.1857 268.44,86.1857 "></polyline>
<path clip-path="url(#clip770)" d="M126.205 1370.04 Q122.593 1370.04 120.765 1373.6 Q118.959 1377.14 118.959 1384.27 Q118.959 1391.38 120.765 1394.94 Q122.593 1398.49 126.205 1398.49 Q129.839 1398.49 131.644 1394.94 Q133.473 1391.38 133.473 1384.27 Q133.473 1377.14 131.644 1373.6 Q129.839 1370.04 126.205 1370.04 M126.205 1366.33 Q132.015 1366.33 135.07 1370.94 Q138.149 1375.52 138.149 1384.27 Q138.149 1393 135.07 1397.61 Q132.015 1402.19 126.205 1402.19 Q120.394 1402.19 117.316 1397.61 Q114.26 1393 114.26 1384.27 Q114.26 1375.52 117.316 1370.94 Q120.394 1366.33 126.205 1366.33 Z" fill="#000000" fill-rule="nonzero" fill-opacity="1"></path><path clip-path="url(#clip770)" d="M146.366 1395.64 L151.251 1395.64 L151.251 1401.52 L146.366 1401.52 L146.366 1395.64 Z" fill="#000000" fill-rule="nonzero" fill-opacity="1"></path><path clip-path="url(#clip770)" d="M171.436 1370.04 Q167.825 1370.04 165.996 1373.6 Q164.19 1377.14 164.19 1384.27 Q164.19 1391.38 165.996 1394.94 Q167.825 1398.49 171.436 1398.49 Q175.07 1398.49 176.876 1394.94 Q178.704 1391.38 178.704 1384.27 Q178.704 1377.14 176.876 1373.6 Q175.07 1370.04 171.436 1370.04 M171.436 1366.33 Q177.246 1366.33 180.301 1370.94 Q183.38 1375.52 183.38 1384.27 Q183.38 1393 180.301 1397.61 Q177.246 1402.19 171.436 1402.19 Q165.626 1402.19 162.547 1397.61 Q159.491 1393 159.491 1384.27 Q159.491 1375.52 162.547 1370.94 Q165.626 1366.33 171.436 1366.33 Z" fill="#000000" fill-rule="nonzero" fill-opacity="1"></path><path clip-path="url(#clip770)" d="M201.598 1370.04 Q197.987 1370.04 196.158 1373.6 Q194.352 1377.14 194.352 1384.27 Q194.352 1391.38 196.158 1394.94 Q197.987 1398.49 201.598 1398.49 Q205.232 1398.49 207.037 1394.94 Q208.866 1391.38 208.866 1384.27 Q208.866 1377.14 207.037 1373.6 Q205.232 1370.04 201.598 1370.04 M201.598 1366.33 Q207.408 1366.33 210.463 1370.94 Q213.542 1375.52 213.542 1384.27 Q213.542 1393 210.463 1397.61 Q207.408 1402.19 201.598 1402.19 Q195.787 1402.19 192.709 1397.61 Q189.653 1393 189.653 1384.27 Q189.653 1375.52 192.709 1370.94 Q195.787 1366.33 201.598 1366.33 Z" fill="#000000" fill-rule="nonzero" fill-opacity="1"></path><path clip-path="url(#clip770)" d="M127.2 1045.52 Q123.589 1045.52 121.76 1049.09 Q119.955 1052.63 119.955 1059.76 Q119.955 1066.87 121.76 1070.43 Q123.589 1073.97 127.2 1073.97 Q130.834 1073.97 132.64 1070.43 Q134.468 1066.87 134.468 1059.76 Q134.468 1052.63 132.64 1049.09 Q130.834 1045.52 127.2 1045.52 M127.2 1041.82 Q133.01 1041.82 136.066 1046.43 Q139.144 1051.01 139.144 1059.76 Q139.144 1068.49 136.066 1073.09 Q133.01 1077.68 127.2 1077.68 Q121.39 1077.68 118.311 1073.09 Q115.256 1068.49 115.256 1059.76 Q115.256 1051.01 118.311 1046.43 Q121.39 1041.82 127.2 1041.82 Z" fill="#000000" fill-rule="nonzero" fill-opacity="1"></path><path clip-path="url(#clip770)" d="M147.362 1071.13 L152.246 1071.13 L152.246 1077.01 L147.362 1077.01 L147.362 1071.13 Z" fill="#000000" fill-rule="nonzero" fill-opacity="1"></path><path clip-path="url(#clip770)" d="M166.459 1073.07 L182.778 1073.07 L182.778 1077.01 L160.834 1077.01 L160.834 1073.07 Q163.496 1070.32 168.079 1065.69 Q172.686 1061.03 173.866 1059.69 Q176.112 1057.17 176.991 1055.43 Q177.894 1053.67 177.894 1051.98 Q177.894 1049.23 175.95 1047.49 Q174.028 1045.76 170.927 1045.76 Q168.727 1045.76 166.274 1046.52 Q163.843 1047.28 161.065 1048.83 L161.065 1044.11 Q163.89 1042.98 166.343 1042.4 Q168.797 1041.82 170.834 1041.82 Q176.204 1041.82 179.399 1044.51 Q182.593 1047.19 182.593 1051.68 Q182.593 1053.81 181.783 1055.73 Q180.996 1057.63 178.889 1060.22 Q178.311 1060.89 175.209 1064.11 Q172.107 1067.31 166.459 1073.07 Z" fill="#000000" fill-rule="nonzero" fill-opacity="1"></path><path clip-path="url(#clip770)" d="M192.639 1042.45 L210.996 1042.45 L210.996 1046.38 L196.922 1046.38 L196.922 1054.85 Q197.94 1054.51 198.959 1054.34 Q199.977 1054.16 200.996 1054.16 Q206.783 1054.16 210.162 1057.33 Q213.542 1060.5 213.542 1065.92 Q213.542 1071.5 210.07 1074.6 Q206.598 1077.68 200.278 1077.68 Q198.102 1077.68 195.834 1077.31 Q193.588 1076.94 191.181 1076.19 L191.181 1071.5 Q193.264 1072.63 195.487 1073.19 Q197.709 1073.74 200.186 1073.74 Q204.19 1073.74 206.528 1071.63 Q208.866 1069.53 208.866 1065.92 Q208.866 1062.31 206.528 1060.2 Q204.19 1058.09 200.186 1058.09 Q198.311 1058.09 196.436 1058.51 Q194.584 1058.93 192.639 1059.81 L192.639 1042.45 Z" fill="#000000" fill-rule="nonzero" fill-opacity="1"></path><path clip-path="url(#clip770)" d="M126.205 721.011 Q122.593 721.011 120.765 724.575 Q118.959 728.117 118.959 735.247 Q118.959 742.353 120.765 745.918 Q122.593 749.46 126.205 749.46 Q129.839 749.46 131.644 745.918 Q133.473 742.353 133.473 735.247 Q133.473 728.117 131.644 724.575 Q129.839 721.011 126.205 721.011 M126.205 717.307 Q132.015 717.307 135.07 721.913 Q138.149 726.497 138.149 735.247 Q138.149 743.973 135.07 748.58 Q132.015 753.163 126.205 753.163 Q120.394 753.163 117.316 748.58 Q114.26 743.973 114.26 735.247 Q114.26 726.497 117.316 721.913 Q120.394 717.307 126.205 717.307 Z" fill="#000000" fill-rule="nonzero" fill-opacity="1"></path><path clip-path="url(#clip770)" d="M146.366 746.612 L151.251 746.612 L151.251 752.492 L146.366 752.492 L146.366 746.612 Z" fill="#000000" fill-rule="nonzero" fill-opacity="1"></path><path clip-path="url(#clip770)" d="M161.482 717.932 L179.839 717.932 L179.839 721.867 L165.765 721.867 L165.765 730.339 Q166.783 729.992 167.802 729.83 Q168.82 729.645 169.839 729.645 Q175.626 729.645 179.005 732.816 Q182.385 735.987 182.385 741.404 Q182.385 746.983 178.913 750.085 Q175.44 753.163 169.121 753.163 Q166.945 753.163 164.677 752.793 Q162.431 752.423 160.024 751.682 L160.024 746.983 Q162.107 748.117 164.329 748.673 Q166.552 749.228 169.028 749.228 Q173.033 749.228 175.371 747.122 Q177.709 745.015 177.709 741.404 Q177.709 737.793 175.371 735.687 Q173.033 733.58 169.028 733.58 Q167.153 733.58 165.278 733.997 Q163.427 734.413 161.482 735.293 L161.482 717.932 Z" fill="#000000" fill-rule="nonzero" fill-opacity="1"></path><path clip-path="url(#clip770)" d="M201.598 721.011 Q197.987 721.011 196.158 724.575 Q194.352 728.117 194.352 735.247 Q194.352 742.353 196.158 745.918 Q197.987 749.46 201.598 749.46 Q205.232 749.46 207.037 745.918 Q208.866 742.353 208.866 735.247 Q208.866 728.117 207.037 724.575 Q205.232 721.011 201.598 721.011 M201.598 717.307 Q207.408 717.307 210.463 721.913 Q213.542 726.497 213.542 735.247 Q213.542 743.973 210.463 748.58 Q207.408 753.163 201.598 753.163 Q195.787 753.163 192.709 748.58 Q189.653 743.973 189.653 735.247 Q189.653 726.497 192.709 721.913 Q195.787 717.307 201.598 717.307 Z" fill="#000000" fill-rule="nonzero" fill-opacity="1"></path><path clip-path="url(#clip770)" d="M127.2 396.498 Q123.589 396.498 121.76 400.062 Q119.955 403.604 119.955 410.734 Q119.955 417.84 121.76 421.405 Q123.589 424.946 127.2 424.946 Q130.834 424.946 132.64 421.405 Q134.468 417.84 134.468 410.734 Q134.468 403.604 132.64 400.062 Q130.834 396.498 127.2 396.498 M127.2 392.794 Q133.01 392.794 136.066 397.4 Q139.144 401.984 139.144 410.734 Q139.144 419.46 136.066 424.067 Q133.01 428.65 127.2 428.65 Q121.39 428.65 118.311 424.067 Q115.256 419.46 115.256 410.734 Q115.256 401.984 118.311 397.4 Q121.39 392.794 127.2 392.794 Z" fill="#000000" fill-rule="nonzero" fill-opacity="1"></path><path clip-path="url(#clip770)" d="M147.362 422.099 L152.246 422.099 L152.246 427.979 L147.362 427.979 L147.362 422.099 Z" fill="#000000" fill-rule="nonzero" fill-opacity="1"></path><path clip-path="url(#clip770)" d="M161.251 393.419 L183.473 393.419 L183.473 395.41 L170.927 427.979 L166.042 427.979 L177.848 397.354 L161.251 397.354 L161.251 393.419 Z" fill="#000000" fill-rule="nonzero" fill-opacity="1"></path><path clip-path="url(#clip770)" d="M192.639 393.419 L210.996 393.419 L210.996 397.354 L196.922 397.354 L196.922 405.826 Q197.94 405.479 198.959 405.317 Q199.977 405.132 200.996 405.132 Q206.783 405.132 210.162 408.303 Q213.542 411.474 213.542 416.891 Q213.542 422.47 210.07 425.571 Q206.598 428.65 200.278 428.65 Q198.102 428.65 195.834 428.28 Q193.588 427.909 191.181 427.169 L191.181 422.47 Q193.264 423.604 195.487 424.159 Q197.709 424.715 200.186 424.715 Q204.19 424.715 206.528 422.608 Q208.866 420.502 208.866 416.891 Q208.866 413.28 206.528 411.173 Q204.19 409.067 200.186 409.067 Q198.311 409.067 196.436 409.484 Q194.584 409.9 192.639 410.78 L192.639 393.419 Z" fill="#000000" fill-rule="nonzero" fill-opacity="1"></path><path clip-path="url(#clip770)" d="M117.015 99.5305 L124.654 99.5305 L124.654 73.1649 L116.343 74.8316 L116.343 70.5723 L124.607 68.9057 L129.283 68.9057 L129.283 99.5305 L136.922 99.5305 L136.922 103.466 L117.015 103.466 L117.015 99.5305 Z" fill="#000000" fill-rule="nonzero" fill-opacity="1"></path><path clip-path="url(#clip770)" d="M146.366 97.5861 L151.251 97.5861 L151.251 103.466 L146.366 103.466 L146.366 97.5861 Z" fill="#000000" fill-rule="nonzero" fill-opacity="1"></path><path clip-path="url(#clip770)" d="M171.436 71.9844 Q167.825 71.9844 165.996 75.5492 Q164.19 79.0908 164.19 86.2204 Q164.19 93.3268 165.996 96.8916 Q167.825 100.433 171.436 100.433 Q175.07 100.433 176.876 96.8916 Q178.704 93.3268 178.704 86.2204 Q178.704 79.0908 176.876 75.5492 Q175.07 71.9844 171.436 71.9844 M171.436 68.2807 Q177.246 68.2807 180.301 72.8871 Q183.38 77.4704 183.38 86.2204 Q183.38 94.9472 180.301 99.5537 Q177.246 104.137 171.436 104.137 Q165.626 104.137 162.547 99.5537 Q159.491 94.9472 159.491 86.2204 Q159.491 77.4704 162.547 72.8871 Q165.626 68.2807 171.436 68.2807 Z" fill="#000000" fill-rule="nonzero" fill-opacity="1"></path><path clip-path="url(#clip770)" d="M201.598 71.9844 Q197.987 71.9844 196.158 75.5492 Q194.352 79.0908 194.352 86.2204 Q194.352 93.3268 196.158 96.8916 Q197.987 100.433 201.598 100.433 Q205.232 100.433 207.037 96.8916 Q208.866 93.3268 208.866 86.2204 Q208.866 79.0908 207.037 75.5492 Q205.232 71.9844 201.598 71.9844 M201.598 68.2807 Q207.408 68.2807 210.463 72.8871 Q213.542 77.4704 213.542 86.2204 Q213.542 94.9472 210.463 99.5537 Q207.408 104.137 201.598 104.137 Q195.787 104.137 192.709 99.5537 Q189.653 94.9472 189.653 86.2204 Q189.653 77.4704 192.709 72.8871 Q195.787 68.2807 201.598 68.2807 Z" fill="#000000" fill-rule="nonzero" fill-opacity="1"></path><path clip-path="url(#clip770)" d="M21.7178 738.32 Q22.1687 738.32 23.2315 738.61 L48.4165 744.922 Q54.0203 746.307 57.9494 750.816 Q61.8785 755.293 61.8785 760.381 Q61.8785 763.441 60.236 765.405 Q58.6257 767.37 56.1459 767.37 Q53.9559 767.37 52.8931 766.21 Q51.8625 765.051 51.8625 763.666 Q51.8625 763.215 51.9913 762.732 Q52.1201 762.249 52.6676 761.734 Q53.2151 761.219 54.1491 761.219 Q55.6628 761.219 56.8544 762.539 Q57.4019 763.183 57.5307 763.795 Q57.6596 764.375 57.6596 765.373 Q58.5613 764.987 59.1732 764.278 Q59.7851 763.57 60.0106 762.764 Q60.2682 761.959 60.3326 761.444 Q60.4293 760.896 60.4293 760.381 Q60.4293 756.259 56.2747 753.103 Q55.0187 752.169 53.7626 751.492 Q52.5388 750.784 51.0252 750.269 Q49.5437 749.753 48.7385 749.528 Q47.9334 749.27 46.0977 748.819 Q49.0928 751.814 49.0928 755.486 Q49.0928 757.032 48.6741 758.417 Q48.2554 759.769 47.3859 760.961 Q46.4841 762.153 44.906 762.861 Q43.3279 763.537 41.2346 763.537 Q39.0124 763.537 35.985 762.668 Q32.9577 761.798 27.386 759.705 Q24.2621 758.578 22.7484 758.578 Q22.0077 758.578 21.5568 758.739 Q21.0737 758.9 20.9127 759.222 Q20.7194 759.544 20.6872 759.737 Q20.655 759.898 20.655 760.22 Q20.655 762.12 22.5874 763.892 Q24.5197 765.663 28.8353 766.887 Q29.6405 767.144 29.8337 767.305 Q30.0269 767.466 30.0269 767.95 Q29.9947 768.755 29.3506 768.755 Q29.093 768.755 28.0946 768.465 Q27.064 768.175 25.5503 767.499 Q24.0044 766.79 22.6196 765.824 Q21.2025 764.858 20.2041 763.344 Q19.2058 761.798 19.2058 760.027 Q19.2058 757.611 20.7838 756.13 Q22.3297 754.616 24.6163 754.616 Q25.5503 754.616 26.3877 754.874 Q27.1928 755.099 29.3506 755.937 Q38.0462 759.318 42.2974 759.318 Q43.3279 759.318 44.1975 759.157 Q45.0349 758.964 45.8722 758.545 Q46.6774 758.127 47.1604 757.289 Q47.6113 756.42 47.6113 755.228 Q47.6113 753.715 46.9028 752.298 Q46.1621 750.848 45.1637 749.946 Q44.1653 749.013 43.3279 748.465 Q42.4584 747.885 42.0075 747.756 L30.1558 744.794 L24.874 743.473 Q22.0077 742.861 21.2991 742.571 Q20.6228 742.185 20.2686 741.509 Q19.9143 740.832 19.9143 740.253 Q19.9143 739.447 20.3974 738.9 Q20.8805 738.32 21.7178 738.32 Z" fill="#000000" fill-rule="nonzero" fill-opacity="1"></path><path clip-path="url(#clip770)" d="M53.6652 731.574 L52.2224 731.574 Q52.2224 726.028 49.2691 723.165 Q49.2691 722.376 49.4494 722.241 Q49.6298 722.106 50.4639 722.106 L76.3671 722.106 Q77.7423 722.106 78.1706 721.429 Q78.599 720.753 78.599 717.8 L78.599 716.334 L80.0193 716.334 Q79.884 717.957 79.884 723.819 Q79.884 729.68 80.0193 731.281 L78.599 731.281 L78.599 729.816 Q78.599 726.907 78.1932 726.209 Q77.7648 725.51 76.3671 725.51 L52.4478 725.51 Q53.6652 727.922 53.6652 731.574 Z" fill="#000000" fill-rule="nonzero" fill-opacity="1"></path><polyline clip-path="url(#clip772)" style="stroke:#009af9; stroke-linecap:round; stroke-linejoin:round; stroke-width:4; stroke-opacity:1; fill:none" points="275.105,86.1857 310.608,86.1857 346.112,86.1857 381.616,86.1857 417.119,86.1857 452.623,86.1857 488.127,86.1857 523.631,86.1857 559.134,86.1857 594.638,86.1857 630.142,86.1857 665.645,86.1857 701.149,86.1857 736.653,86.1857 772.156,86.1857 807.66,86.1857 843.164,86.1857 878.667,86.1857 914.171,86.1857 949.675,86.1857 985.178,86.1857 1020.68,86.1857 1056.19,86.1857 1091.69,86.1857 1127.19,86.1857 "></polyline>
<polyline clip-path="url(#clip772)" style="stroke:#e26f46; stroke-linecap:round; stroke-linejoin:round; stroke-width:3; stroke-opacity:1; fill:none" stroke-dasharray="12, 6, 2, 6" points="275.105,1384.24 310.608,662.004 346.112,481.412 381.616,402.839 417.119,345.025 452.623,296.715 488.127,256.285 523.631,222.94 559.134,195.768 594.638,173.807 630.142,156.15 665.645,142.003 701.149,130.691 736.653,121.659 772.156,114.454 807.66,108.709 843.164,104.129 878.667,100.48 914.171,97.5731 949.675,95.2569 985.178,93.4117 1020.68,91.9418 1056.19,90.7708 1091.69,89.8381 1127.19,89.095 "></polyline>
<path clip-path="url(#clip770)" d="M1003.5 1377.32 L1122.65 1377.32 L1122.65 1221.8 L1003.5 1221.8  Z" fill="#ffffff" fill-rule="evenodd" fill-opacity="1"></path>
<polyline clip-path="url(#clip770)" style="stroke:#000000; stroke-linecap:round; stroke-linejoin:round; stroke-width:4; stroke-opacity:1; fill:none" points="1003.5,1377.32 1122.65,1377.32 1122.65,1221.8 1003.5,1221.8 1003.5,1377.32 "></polyline>
<polyline clip-path="url(#clip770)" style="stroke:#009af9; stroke-linecap:round; stroke-linejoin:round; stroke-width:4; stroke-opacity:1; fill:none" points="1013.53,1273.64 1073.75,1273.64 "></polyline>
<path clip-path="url(#clip770)" d="M1110.56 1260.37 Q1109.08 1260.37 1108.33 1260.51 Q1107.58 1260.63 1107.39 1260.8 Q1107.21 1260.96 1107 1261.38 L1096.69 1283.3 Q1095.59 1285.65 1093.53 1287.33 Q1091.49 1289.02 1088.91 1289.02 Q1086.76 1289.02 1085.26 1287.71 Q1083.78 1286.42 1083.78 1284.59 Q1083.78 1283.28 1084.6 1282.53 Q1085.42 1281.81 1086.52 1281.81 Q1087.74 1281.81 1088.52 1282.58 Q1089.31 1283.35 1089.31 1284.55 Q1089.31 1285.32 1088.98 1285.9 Q1088.66 1286.51 1088.35 1286.72 Q1088.07 1286.96 1087.77 1287.1 Q1088.26 1287.29 1088.91 1287.29 Q1089.9 1287.29 1090.74 1286.89 Q1091.61 1286.51 1092.17 1286 Q1092.75 1285.51 1093.34 1284.62 Q1093.93 1283.75 1094.21 1283.19 Q1094.49 1282.65 1094.91 1281.71 L1096.01 1279.42 L1087.04 1260.37 L1083.97 1260.37 L1083.97 1258.13 L1089.45 1258.27 L1095.4 1258.13 L1095.4 1260.37 L1092.8 1260.37 L1098.89 1273.33 L1104.42 1261.52 L1104.65 1260.96 Q1104.65 1260.7 1104.09 1260.56 Q1103.53 1260.4 1102.97 1260.4 L1102.4 1260.37 L1102.4 1258.13 L1106.76 1258.27 Q1108.82 1258.27 1110.56 1258.13 L1110.56 1260.37 Z" fill="#000000" fill-rule="nonzero" fill-opacity="1"></path><polyline clip-path="url(#clip770)" style="stroke:#e26f46; stroke-linecap:round; stroke-linejoin:round; stroke-width:3; stroke-opacity:1; fill:none" stroke-dasharray="12, 6, 2, 6" points="1013.53,1325.48 1073.75,1325.48 "></polyline>
<path clip-path="url(#clip770)" d="M1106.37 1309.2 L1105.96 1309.87 Q1103.42 1308.77 1100.25 1307.01 Q1097.09 1308.77 1094.55 1309.87 L1094.15 1309.2 Q1096.93 1306.79 1100.25 1304.93 Q1103.61 1306.8 1106.37 1309.2 Z" fill="#000000" fill-rule="nonzero" fill-opacity="1"></path><path clip-path="url(#clip770)" d="M1110.56 1317.22 Q1109.08 1317.22 1108.33 1317.36 Q1107.58 1317.48 1107.39 1317.64 Q1107.21 1317.8 1107 1318.23 L1096.69 1340.15 Q1095.59 1342.49 1093.53 1344.18 Q1091.49 1345.86 1088.91 1345.86 Q1086.76 1345.86 1085.26 1344.55 Q1083.78 1343.26 1083.78 1341.44 Q1083.78 1340.13 1084.6 1339.38 Q1085.42 1338.65 1086.52 1338.65 Q1087.74 1338.65 1088.52 1339.42 Q1089.31 1340.2 1089.31 1341.39 Q1089.31 1342.16 1088.98 1342.75 Q1088.66 1343.36 1088.35 1343.57 Q1088.07 1343.8 1087.77 1343.94 Q1088.26 1344.13 1088.91 1344.13 Q1089.9 1344.13 1090.74 1343.73 Q1091.61 1343.36 1092.17 1342.84 Q1092.75 1342.35 1093.34 1341.46 Q1093.93 1340.59 1094.21 1340.03 Q1094.49 1339.49 1094.91 1338.56 L1096.01 1336.26 L1087.04 1317.22 L1083.97 1317.22 L1083.97 1314.97 L1089.45 1315.11 L1095.4 1314.97 L1095.4 1317.22 L1092.8 1317.22 L1098.89 1330.17 L1104.42 1318.37 L1104.65 1317.8 Q1104.65 1317.55 1104.09 1317.41 Q1103.53 1317.24 1102.97 1317.24 L1102.4 1317.22 L1102.4 1314.97 L1106.76 1315.11 Q1108.82 1315.11 1110.56 1314.97 L1110.56 1317.22 Z" fill="#000000" fill-rule="nonzero" fill-opacity="1"></path><path clip-path="url(#clip770)" d="M1449.54 654.814 L2352.76 654.814 L2352.76 47.2441 L1449.54 47.2441  Z" fill="#ffffff" fill-rule="evenodd" fill-opacity="1"></path>
<defs>
  <clipPath id="clip773">
    <rect x="1449" y="47" width="904" height="609"></rect>
  </clipPath>
</defs>
<polyline clip-path="url(#clip773)" style="stroke:#000000; stroke-linecap:round; stroke-linejoin:round; stroke-width:2; stroke-opacity:0.1; fill:none" points="1475.1,654.814 1475.1,47.2441 "></polyline>
<polyline clip-path="url(#clip773)" style="stroke:#000000; stroke-linecap:round; stroke-linejoin:round; stroke-width:2; stroke-opacity:0.1; fill:none" points="1652.62,654.814 1652.62,47.2441 "></polyline>
<polyline clip-path="url(#clip773)" style="stroke:#000000; stroke-linecap:round; stroke-linejoin:round; stroke-width:2; stroke-opacity:0.1; fill:none" points="1830.14,654.814 1830.14,47.2441 "></polyline>
<polyline clip-path="url(#clip773)" style="stroke:#000000; stroke-linecap:round; stroke-linejoin:round; stroke-width:2; stroke-opacity:0.1; fill:none" points="2007.66,654.814 2007.66,47.2441 "></polyline>
<polyline clip-path="url(#clip773)" style="stroke:#000000; stroke-linecap:round; stroke-linejoin:round; stroke-width:2; stroke-opacity:0.1; fill:none" points="2185.18,654.814 2185.18,47.2441 "></polyline>
<polyline clip-path="url(#clip770)" style="stroke:#000000; stroke-linecap:round; stroke-linejoin:round; stroke-width:4; stroke-opacity:1; fill:none" points="1449.54,654.814 2352.76,654.814 "></polyline>
<polyline clip-path="url(#clip770)" style="stroke:#000000; stroke-linecap:round; stroke-linejoin:round; stroke-width:4; stroke-opacity:1; fill:none" points="1475.1,654.814 1475.1,635.916 "></polyline>
<polyline clip-path="url(#clip770)" style="stroke:#000000; stroke-linecap:round; stroke-linejoin:round; stroke-width:4; stroke-opacity:1; fill:none" points="1652.62,654.814 1652.62,635.916 "></polyline>
<polyline clip-path="url(#clip770)" style="stroke:#000000; stroke-linecap:round; stroke-linejoin:round; stroke-width:4; stroke-opacity:1; fill:none" points="1830.14,654.814 1830.14,635.916 "></polyline>
<polyline clip-path="url(#clip770)" style="stroke:#000000; stroke-linecap:round; stroke-linejoin:round; stroke-width:4; stroke-opacity:1; fill:none" points="2007.66,654.814 2007.66,635.916 "></polyline>
<polyline clip-path="url(#clip770)" style="stroke:#000000; stroke-linecap:round; stroke-linejoin:round; stroke-width:4; stroke-opacity:1; fill:none" points="2185.18,654.814 2185.18,635.916 "></polyline>
<path clip-path="url(#clip770)" d="M1475.1 685.733 Q1471.49 685.733 1469.66 689.297 Q1467.86 692.839 1467.86 699.969 Q1467.86 707.075 1469.66 710.64 Q1471.49 714.181 1475.1 714.181 Q1478.74 714.181 1480.54 710.64 Q1482.37 707.075 1482.37 699.969 Q1482.37 692.839 1480.54 689.297 Q1478.74 685.733 1475.1 685.733 M1475.1 682.029 Q1480.91 682.029 1483.97 686.635 Q1487.05 691.219 1487.05 699.969 Q1487.05 708.695 1483.97 713.302 Q1480.91 717.885 1475.1 717.885 Q1469.29 717.885 1466.22 713.302 Q1463.16 708.695 1463.16 699.969 Q1463.16 691.219 1466.22 686.635 Q1469.29 682.029 1475.1 682.029 Z" fill="#000000" fill-rule="nonzero" fill-opacity="1"></path><path clip-path="url(#clip770)" d="M1642.9 682.654 L1661.26 682.654 L1661.26 686.589 L1647.18 686.589 L1647.18 695.061 Q1648.2 694.714 1649.22 694.552 Q1650.24 694.367 1651.26 694.367 Q1657.04 694.367 1660.42 697.538 Q1663.8 700.709 1663.8 706.126 Q1663.8 711.705 1660.33 714.806 Q1656.86 717.885 1650.54 717.885 Q1648.36 717.885 1646.1 717.515 Q1643.85 717.144 1641.44 716.404 L1641.44 711.705 Q1643.53 712.839 1645.75 713.394 Q1647.97 713.95 1650.45 713.95 Q1654.45 713.95 1656.79 711.844 Q1659.13 709.737 1659.13 706.126 Q1659.13 702.515 1656.79 700.408 Q1654.45 698.302 1650.45 698.302 Q1648.57 698.302 1646.7 698.719 Q1644.85 699.135 1642.9 700.015 L1642.9 682.654 Z" fill="#000000" fill-rule="nonzero" fill-opacity="1"></path><path clip-path="url(#clip770)" d="M1804.83 713.279 L1812.47 713.279 L1812.47 686.913 L1804.16 688.58 L1804.16 684.321 L1812.42 682.654 L1817.1 682.654 L1817.1 713.279 L1824.74 713.279 L1824.74 717.214 L1804.83 717.214 L1804.83 713.279 Z" fill="#000000" fill-rule="nonzero" fill-opacity="1"></path><path clip-path="url(#clip770)" d="M1844.18 685.733 Q1840.57 685.733 1838.74 689.297 Q1836.94 692.839 1836.94 699.969 Q1836.94 707.075 1838.74 710.64 Q1840.57 714.181 1844.18 714.181 Q1847.82 714.181 1849.62 710.64 Q1851.45 707.075 1851.45 699.969 Q1851.45 692.839 1849.62 689.297 Q1847.82 685.733 1844.18 685.733 M1844.18 682.029 Q1849.99 682.029 1853.05 686.635 Q1856.13 691.219 1856.13 699.969 Q1856.13 708.695 1853.05 713.302 Q1849.99 717.885 1844.18 717.885 Q1838.37 717.885 1835.29 713.302 Q1832.24 708.695 1832.24 699.969 Q1832.24 691.219 1835.29 686.635 Q1838.37 682.029 1844.18 682.029 Z" fill="#000000" fill-rule="nonzero" fill-opacity="1"></path><path clip-path="url(#clip770)" d="M1982.85 713.279 L1990.48 713.279 L1990.48 686.913 L1982.17 688.58 L1982.17 684.321 L1990.44 682.654 L1995.11 682.654 L1995.11 713.279 L2002.75 713.279 L2002.75 717.214 L1982.85 717.214 L1982.85 713.279 Z" fill="#000000" fill-rule="nonzero" fill-opacity="1"></path><path clip-path="url(#clip770)" d="M2012.24 682.654 L2030.6 682.654 L2030.6 686.589 L2016.53 686.589 L2016.53 695.061 Q2017.54 694.714 2018.56 694.552 Q2019.58 694.367 2020.6 694.367 Q2026.39 694.367 2029.77 697.538 Q2033.15 700.709 2033.15 706.126 Q2033.15 711.705 2029.67 714.806 Q2026.2 717.885 2019.88 717.885 Q2017.71 717.885 2015.44 717.515 Q2013.19 717.144 2010.79 716.404 L2010.79 711.705 Q2012.87 712.839 2015.09 713.394 Q2017.31 713.95 2019.79 713.95 Q2023.79 713.95 2026.13 711.844 Q2028.47 709.737 2028.47 706.126 Q2028.47 702.515 2026.13 700.408 Q2023.79 698.302 2019.79 698.302 Q2017.91 698.302 2016.04 698.719 Q2014.19 699.135 2012.24 700.015 L2012.24 682.654 Z" fill="#000000" fill-rule="nonzero" fill-opacity="1"></path><path clip-path="url(#clip770)" d="M2163.95 713.279 L2180.27 713.279 L2180.27 717.214 L2158.33 717.214 L2158.33 713.279 Q2160.99 710.524 2165.57 705.894 Q2170.18 701.242 2171.36 699.899 Q2173.6 697.376 2174.48 695.64 Q2175.39 693.881 2175.39 692.191 Q2175.39 689.436 2173.44 687.7 Q2171.52 685.964 2168.42 685.964 Q2166.22 685.964 2163.77 686.728 Q2161.34 687.492 2158.56 689.043 L2158.56 684.321 Q2161.38 683.186 2163.84 682.608 Q2166.29 682.029 2168.33 682.029 Q2173.7 682.029 2176.89 684.714 Q2180.09 687.399 2180.09 691.89 Q2180.09 694.02 2179.28 695.941 Q2178.49 697.839 2176.38 700.432 Q2175.8 701.103 2172.7 704.32 Q2169.6 707.515 2163.95 713.279 Z" fill="#000000" fill-rule="nonzero" fill-opacity="1"></path><path clip-path="url(#clip770)" d="M2200.09 685.733 Q2196.47 685.733 2194.65 689.297 Q2192.84 692.839 2192.84 699.969 Q2192.84 707.075 2194.65 710.64 Q2196.47 714.181 2200.09 714.181 Q2203.72 714.181 2205.53 710.64 Q2207.35 707.075 2207.35 699.969 Q2207.35 692.839 2205.53 689.297 Q2203.72 685.733 2200.09 685.733 M2200.09 682.029 Q2205.9 682.029 2208.95 686.635 Q2212.03 691.219 2212.03 699.969 Q2212.03 708.695 2208.95 713.302 Q2205.9 717.885 2200.09 717.885 Q2194.28 717.885 2191.2 713.302 Q2188.14 708.695 2188.14 699.969 Q2188.14 691.219 2191.2 686.635 Q2194.28 682.029 2200.09 682.029 Z" fill="#000000" fill-rule="nonzero" fill-opacity="1"></path><polyline clip-path="url(#clip773)" style="stroke:#000000; stroke-linecap:round; stroke-linejoin:round; stroke-width:2; stroke-opacity:0.1; fill:none" points="1449.54,637.618 2352.76,637.618 "></polyline>
<polyline clip-path="url(#clip773)" style="stroke:#000000; stroke-linecap:round; stroke-linejoin:round; stroke-width:2; stroke-opacity:0.1; fill:none" points="1449.54,505.652 2352.76,505.652 "></polyline>
<polyline clip-path="url(#clip773)" style="stroke:#000000; stroke-linecap:round; stroke-linejoin:round; stroke-width:2; stroke-opacity:0.1; fill:none" points="1449.54,373.685 2352.76,373.685 "></polyline>
<polyline clip-path="url(#clip773)" style="stroke:#000000; stroke-linecap:round; stroke-linejoin:round; stroke-width:2; stroke-opacity:0.1; fill:none" points="1449.54,241.718 2352.76,241.718 "></polyline>
<polyline clip-path="url(#clip773)" style="stroke:#000000; stroke-linecap:round; stroke-linejoin:round; stroke-width:2; stroke-opacity:0.1; fill:none" points="1449.54,109.752 2352.76,109.752 "></polyline>
<polyline clip-path="url(#clip770)" style="stroke:#000000; stroke-linecap:round; stroke-linejoin:round; stroke-width:4; stroke-opacity:1; fill:none" points="1449.54,654.814 1449.54,47.2441 "></polyline>
<polyline clip-path="url(#clip770)" style="stroke:#000000; stroke-linecap:round; stroke-linejoin:round; stroke-width:4; stroke-opacity:1; fill:none" points="1449.54,637.618 1468.44,637.618 "></polyline>
<polyline clip-path="url(#clip770)" style="stroke:#000000; stroke-linecap:round; stroke-linejoin:round; stroke-width:4; stroke-opacity:1; fill:none" points="1449.54,505.652 1468.44,505.652 "></polyline>
<polyline clip-path="url(#clip770)" style="stroke:#000000; stroke-linecap:round; stroke-linejoin:round; stroke-width:4; stroke-opacity:1; fill:none" points="1449.54,373.685 1468.44,373.685 "></polyline>
<polyline clip-path="url(#clip770)" style="stroke:#000000; stroke-linecap:round; stroke-linejoin:round; stroke-width:4; stroke-opacity:1; fill:none" points="1449.54,241.718 1468.44,241.718 "></polyline>
<polyline clip-path="url(#clip770)" style="stroke:#000000; stroke-linecap:round; stroke-linejoin:round; stroke-width:4; stroke-opacity:1; fill:none" points="1449.54,109.752 1468.44,109.752 "></polyline>
<path clip-path="url(#clip770)" d="M1326.2 623.417 Q1322.59 623.417 1320.76 626.982 Q1318.96 630.524 1318.96 637.653 Q1318.96 644.76 1320.76 648.324 Q1322.59 651.866 1326.2 651.866 Q1329.84 651.866 1331.64 648.324 Q1333.47 644.76 1333.47 637.653 Q1333.47 630.524 1331.64 626.982 Q1329.84 623.417 1326.2 623.417 M1326.2 619.713 Q1332.01 619.713 1335.07 624.32 Q1338.15 628.903 1338.15 637.653 Q1338.15 646.38 1335.07 650.986 Q1332.01 655.57 1326.2 655.57 Q1320.39 655.57 1317.32 650.986 Q1314.26 646.38 1314.26 637.653 Q1314.26 628.903 1317.32 624.32 Q1320.39 619.713 1326.2 619.713 Z" fill="#000000" fill-rule="nonzero" fill-opacity="1"></path><path clip-path="url(#clip770)" d="M1346.37 649.019 L1351.25 649.019 L1351.25 654.898 L1346.37 654.898 L1346.37 649.019 Z" fill="#000000" fill-rule="nonzero" fill-opacity="1"></path><path clip-path="url(#clip770)" d="M1371.44 623.417 Q1367.82 623.417 1366 626.982 Q1364.19 630.524 1364.19 637.653 Q1364.19 644.76 1366 648.324 Q1367.82 651.866 1371.44 651.866 Q1375.07 651.866 1376.88 648.324 Q1378.7 644.76 1378.7 637.653 Q1378.7 630.524 1376.88 626.982 Q1375.07 623.417 1371.44 623.417 M1371.44 619.713 Q1377.25 619.713 1380.3 624.32 Q1383.38 628.903 1383.38 637.653 Q1383.38 646.38 1380.3 650.986 Q1377.25 655.57 1371.44 655.57 Q1365.63 655.57 1362.55 650.986 Q1359.49 646.38 1359.49 637.653 Q1359.49 628.903 1362.55 624.32 Q1365.63 619.713 1371.44 619.713 Z" fill="#000000" fill-rule="nonzero" fill-opacity="1"></path><path clip-path="url(#clip770)" d="M1401.6 623.417 Q1397.99 623.417 1396.16 626.982 Q1394.35 630.524 1394.35 637.653 Q1394.35 644.76 1396.16 648.324 Q1397.99 651.866 1401.6 651.866 Q1405.23 651.866 1407.04 648.324 Q1408.87 644.76 1408.87 637.653 Q1408.87 630.524 1407.04 626.982 Q1405.23 623.417 1401.6 623.417 M1401.6 619.713 Q1407.41 619.713 1410.46 624.32 Q1413.54 628.903 1413.54 637.653 Q1413.54 646.38 1410.46 650.986 Q1407.41 655.57 1401.6 655.57 Q1395.79 655.57 1392.71 650.986 Q1389.65 646.38 1389.65 637.653 Q1389.65 628.903 1392.71 624.32 Q1395.79 619.713 1401.6 619.713 Z" fill="#000000" fill-rule="nonzero" fill-opacity="1"></path><path clip-path="url(#clip770)" d="M1327.2 491.45 Q1323.59 491.45 1321.76 495.015 Q1319.95 498.557 1319.95 505.687 Q1319.95 512.793 1321.76 516.358 Q1323.59 519.899 1327.2 519.899 Q1330.83 519.899 1332.64 516.358 Q1334.47 512.793 1334.47 505.687 Q1334.47 498.557 1332.64 495.015 Q1330.83 491.45 1327.2 491.45 M1327.2 487.747 Q1333.01 487.747 1336.07 492.353 Q1339.14 496.937 1339.14 505.687 Q1339.14 514.413 1336.07 519.02 Q1333.01 523.603 1327.2 523.603 Q1321.39 523.603 1318.31 519.02 Q1315.26 514.413 1315.26 505.687 Q1315.26 496.937 1318.31 492.353 Q1321.39 487.747 1327.2 487.747 Z" fill="#000000" fill-rule="nonzero" fill-opacity="1"></path><path clip-path="url(#clip770)" d="M1347.36 517.052 L1352.25 517.052 L1352.25 522.932 L1347.36 522.932 L1347.36 517.052 Z" fill="#000000" fill-rule="nonzero" fill-opacity="1"></path><path clip-path="url(#clip770)" d="M1372.43 491.45 Q1368.82 491.45 1366.99 495.015 Q1365.19 498.557 1365.19 505.687 Q1365.19 512.793 1366.99 516.358 Q1368.82 519.899 1372.43 519.899 Q1376.07 519.899 1377.87 516.358 Q1379.7 512.793 1379.7 505.687 Q1379.7 498.557 1377.87 495.015 Q1376.07 491.45 1372.43 491.45 M1372.43 487.747 Q1378.24 487.747 1381.3 492.353 Q1384.38 496.937 1384.38 505.687 Q1384.38 514.413 1381.3 519.02 Q1378.24 523.603 1372.43 523.603 Q1366.62 523.603 1363.54 519.02 Q1360.49 514.413 1360.49 505.687 Q1360.49 496.937 1363.54 492.353 Q1366.62 487.747 1372.43 487.747 Z" fill="#000000" fill-rule="nonzero" fill-opacity="1"></path><path clip-path="url(#clip770)" d="M1392.64 488.372 L1411 488.372 L1411 492.307 L1396.92 492.307 L1396.92 500.779 Q1397.94 500.432 1398.96 500.27 Q1399.98 500.085 1401 500.085 Q1406.78 500.085 1410.16 503.256 Q1413.54 506.427 1413.54 511.844 Q1413.54 517.423 1410.07 520.524 Q1406.6 523.603 1400.28 523.603 Q1398.1 523.603 1395.83 523.233 Q1393.59 522.862 1391.18 522.122 L1391.18 517.423 Q1393.26 518.557 1395.49 519.112 Q1397.71 519.668 1400.19 519.668 Q1404.19 519.668 1406.53 517.561 Q1408.87 515.455 1408.87 511.844 Q1408.87 508.233 1406.53 506.126 Q1404.19 504.02 1400.19 504.02 Q1398.31 504.02 1396.44 504.437 Q1394.58 504.853 1392.64 505.733 L1392.64 488.372 Z" fill="#000000" fill-rule="nonzero" fill-opacity="1"></path><path clip-path="url(#clip770)" d="M1326.2 359.484 Q1322.59 359.484 1320.76 363.049 Q1318.96 366.59 1318.96 373.72 Q1318.96 380.826 1320.76 384.391 Q1322.59 387.933 1326.2 387.933 Q1329.84 387.933 1331.64 384.391 Q1333.47 380.826 1333.47 373.72 Q1333.47 366.59 1331.64 363.049 Q1329.84 359.484 1326.2 359.484 M1326.2 355.78 Q1332.01 355.78 1335.07 360.387 Q1338.15 364.97 1338.15 373.72 Q1338.15 382.447 1335.07 387.053 Q1332.01 391.636 1326.2 391.636 Q1320.39 391.636 1317.32 387.053 Q1314.26 382.447 1314.26 373.72 Q1314.26 364.97 1317.32 360.387 Q1320.39 355.78 1326.2 355.78 Z" fill="#000000" fill-rule="nonzero" fill-opacity="1"></path><path clip-path="url(#clip770)" d="M1346.37 385.085 L1351.25 385.085 L1351.25 390.965 L1346.37 390.965 L1346.37 385.085 Z" fill="#000000" fill-rule="nonzero" fill-opacity="1"></path><path clip-path="url(#clip770)" d="M1362.25 387.03 L1369.88 387.03 L1369.88 360.664 L1361.57 362.331 L1361.57 358.072 L1369.84 356.405 L1374.51 356.405 L1374.51 387.03 L1382.15 387.03 L1382.15 390.965 L1362.25 390.965 L1362.25 387.03 Z" fill="#000000" fill-rule="nonzero" fill-opacity="1"></path><path clip-path="url(#clip770)" d="M1401.6 359.484 Q1397.99 359.484 1396.16 363.049 Q1394.35 366.59 1394.35 373.72 Q1394.35 380.826 1396.16 384.391 Q1397.99 387.933 1401.6 387.933 Q1405.23 387.933 1407.04 384.391 Q1408.87 380.826 1408.87 373.72 Q1408.87 366.59 1407.04 363.049 Q1405.23 359.484 1401.6 359.484 M1401.6 355.78 Q1407.41 355.78 1410.46 360.387 Q1413.54 364.97 1413.54 373.72 Q1413.54 382.447 1410.46 387.053 Q1407.41 391.636 1401.6 391.636 Q1395.79 391.636 1392.71 387.053 Q1389.65 382.447 1389.65 373.72 Q1389.65 364.97 1392.71 360.387 Q1395.79 355.78 1401.6 355.78 Z" fill="#000000" fill-rule="nonzero" fill-opacity="1"></path><path clip-path="url(#clip770)" d="M1327.2 227.517 Q1323.59 227.517 1321.76 231.082 Q1319.95 234.624 1319.95 241.753 Q1319.95 248.86 1321.76 252.424 Q1323.59 255.966 1327.2 255.966 Q1330.83 255.966 1332.64 252.424 Q1334.47 248.86 1334.47 241.753 Q1334.47 234.624 1332.64 231.082 Q1330.83 227.517 1327.2 227.517 M1327.2 223.813 Q1333.01 223.813 1336.07 228.42 Q1339.14 233.003 1339.14 241.753 Q1339.14 250.48 1336.07 255.086 Q1333.01 259.67 1327.2 259.67 Q1321.39 259.67 1318.31 255.086 Q1315.26 250.48 1315.26 241.753 Q1315.26 233.003 1318.31 228.42 Q1321.39 223.813 1327.2 223.813 Z" fill="#000000" fill-rule="nonzero" fill-opacity="1"></path><path clip-path="url(#clip770)" d="M1347.36 253.119 L1352.25 253.119 L1352.25 258.998 L1347.36 258.998 L1347.36 253.119 Z" fill="#000000" fill-rule="nonzero" fill-opacity="1"></path><path clip-path="url(#clip770)" d="M1363.24 255.063 L1370.88 255.063 L1370.88 228.698 L1362.57 230.364 L1362.57 226.105 L1370.83 224.438 L1375.51 224.438 L1375.51 255.063 L1383.15 255.063 L1383.15 258.998 L1363.24 258.998 L1363.24 255.063 Z" fill="#000000" fill-rule="nonzero" fill-opacity="1"></path><path clip-path="url(#clip770)" d="M1392.64 224.438 L1411 224.438 L1411 228.374 L1396.92 228.374 L1396.92 236.846 Q1397.94 236.498 1398.96 236.336 Q1399.98 236.151 1401 236.151 Q1406.78 236.151 1410.16 239.323 Q1413.54 242.494 1413.54 247.91 Q1413.54 253.489 1410.07 256.591 Q1406.6 259.67 1400.28 259.67 Q1398.1 259.67 1395.83 259.299 Q1393.59 258.929 1391.18 258.188 L1391.18 253.489 Q1393.26 254.623 1395.49 255.179 Q1397.71 255.734 1400.19 255.734 Q1404.19 255.734 1406.53 253.628 Q1408.87 251.522 1408.87 247.91 Q1408.87 244.299 1406.53 242.193 Q1404.19 240.086 1400.19 240.086 Q1398.31 240.086 1396.44 240.503 Q1394.58 240.92 1392.64 241.799 L1392.64 224.438 Z" fill="#000000" fill-rule="nonzero" fill-opacity="1"></path><path clip-path="url(#clip770)" d="M1326.2 95.5504 Q1322.59 95.5504 1320.76 99.1151 Q1318.96 102.657 1318.96 109.786 Q1318.96 116.893 1320.76 120.458 Q1322.59 123.999 1326.2 123.999 Q1329.84 123.999 1331.64 120.458 Q1333.47 116.893 1333.47 109.786 Q1333.47 102.657 1331.64 99.1151 Q1329.84 95.5504 1326.2 95.5504 M1326.2 91.8467 Q1332.01 91.8467 1335.07 96.4531 Q1338.15 101.036 1338.15 109.786 Q1338.15 118.513 1335.07 123.12 Q1332.01 127.703 1326.2 127.703 Q1320.39 127.703 1317.32 123.12 Q1314.26 118.513 1314.26 109.786 Q1314.26 101.036 1317.32 96.4531 Q1320.39 91.8467 1326.2 91.8467 Z" fill="#000000" fill-rule="nonzero" fill-opacity="1"></path><path clip-path="url(#clip770)" d="M1346.37 121.152 L1351.25 121.152 L1351.25 127.032 L1346.37 127.032 L1346.37 121.152 Z" fill="#000000" fill-rule="nonzero" fill-opacity="1"></path><path clip-path="url(#clip770)" d="M1365.46 123.097 L1381.78 123.097 L1381.78 127.032 L1359.84 127.032 L1359.84 123.097 Q1362.5 120.342 1367.08 115.712 Q1371.69 111.06 1372.87 109.717 Q1375.12 107.194 1376 105.458 Q1376.9 103.698 1376.9 102.009 Q1376.9 99.254 1374.95 97.5179 Q1373.03 95.7818 1369.93 95.7818 Q1367.73 95.7818 1365.28 96.5457 Q1362.85 97.3096 1360.07 98.8605 L1360.07 94.1383 Q1362.89 93.0041 1365.35 92.4254 Q1367.8 91.8467 1369.84 91.8467 Q1375.21 91.8467 1378.4 94.5318 Q1381.6 97.217 1381.6 101.708 Q1381.6 103.837 1380.79 105.759 Q1380 107.657 1377.89 110.249 Q1377.32 110.921 1374.21 114.138 Q1371.11 117.333 1365.46 123.097 Z" fill="#000000" fill-rule="nonzero" fill-opacity="1"></path><path clip-path="url(#clip770)" d="M1401.6 95.5504 Q1397.99 95.5504 1396.16 99.1151 Q1394.35 102.657 1394.35 109.786 Q1394.35 116.893 1396.16 120.458 Q1397.99 123.999 1401.6 123.999 Q1405.23 123.999 1407.04 120.458 Q1408.87 116.893 1408.87 109.786 Q1408.87 102.657 1407.04 99.1151 Q1405.23 95.5504 1401.6 95.5504 M1401.6 91.8467 Q1407.41 91.8467 1410.46 96.4531 Q1413.54 101.036 1413.54 109.786 Q1413.54 118.513 1410.46 123.12 Q1407.41 127.703 1401.6 127.703 Q1395.79 127.703 1392.71 123.12 Q1389.65 118.513 1389.65 109.786 Q1389.65 101.036 1392.71 96.4531 Q1395.79 91.8467 1401.6 91.8467 Z" fill="#000000" fill-rule="nonzero" fill-opacity="1"></path><path clip-path="url(#clip770)" d="M1229.88 352.917 Q1231.69 352.917 1232.72 354.044 Q1233.71 355.171 1233.71 356.46 Q1233.71 357.684 1233.01 358.328 Q1232.3 358.972 1231.4 358.972 Q1230.17 358.972 1229.11 358.07 Q1228.05 357.168 1227.82 355.816 Q1226.98 357.136 1226.98 359.101 Q1226.98 360.389 1227.66 361.516 Q1228.34 362.611 1229.21 363.287 Q1230.07 363.931 1231.33 364.511 Q1232.55 365.059 1233.3 365.284 Q1234 365.477 1234.78 365.638 L1243.79 367.893 Q1248.08 368.988 1249.59 368.988 Q1251.46 368.988 1252.72 368.086 Q1253.94 367.184 1253.94 365.381 Q1253.94 364.672 1253.75 363.867 Q1253.52 363.062 1252.94 362.031 Q1252.33 360.969 1251.43 360.035 Q1250.49 359.068 1248.92 358.134 Q1247.34 357.2 1245.31 356.589 Q1244.6 356.395 1244.6 355.751 Q1244.6 354.946 1245.24 354.946 Q1245.79 354.946 1246.95 355.397 Q1248.08 355.816 1249.56 356.75 Q1251.01 357.651 1252.33 358.843 Q1253.62 360.035 1254.52 361.806 Q1255.42 363.577 1255.42 365.51 Q1255.42 368.279 1253.94 370.115 Q1252.46 371.951 1250.4 372.627 Q1250.69 372.788 1251.07 373.014 Q1251.46 373.239 1252.33 373.915 Q1253.17 374.559 1253.81 375.3 Q1254.42 376.041 1254.91 377.2 Q1255.42 378.327 1255.42 379.551 Q1255.42 381.097 1254.97 382.482 Q1254.52 383.835 1253.49 384.801 Q1252.46 385.767 1251.04 385.767 Q1249.46 385.767 1248.37 384.704 Q1247.24 383.609 1247.24 382.128 Q1247.24 381.194 1247.79 380.453 Q1248.34 379.68 1249.53 379.68 Q1250.85 379.68 1251.85 380.582 Q1252.84 381.484 1253.1 382.772 Q1253.94 381.451 1253.94 379.487 Q1253.94 377.361 1252.07 375.687 Q1250.2 374.012 1247.08 373.207 Q1239.58 371.21 1236.23 370.437 Q1232.84 369.664 1231.4 369.664 Q1230.04 369.664 1229.11 370.018 Q1228.17 370.373 1227.76 370.985 Q1227.31 371.564 1227.14 372.112 Q1226.98 372.627 1226.98 373.207 Q1226.98 374.173 1227.37 375.268 Q1227.76 376.331 1228.66 377.619 Q1229.53 378.875 1231.33 380.067 Q1233.13 381.258 1235.61 382.063 Q1236.36 382.224 1236.36 382.933 Q1236.32 383.706 1235.68 383.706 Q1235.13 383.706 1234 383.287 Q1232.84 382.836 1231.4 381.935 Q1229.95 381.001 1228.66 379.809 Q1227.34 378.585 1226.44 376.814 Q1225.53 375.01 1225.53 373.078 Q1225.53 372.208 1225.73 371.371 Q1225.89 370.501 1226.37 369.471 Q1226.85 368.408 1227.92 367.474 Q1228.98 366.54 1230.53 365.96 Q1229.79 365.574 1229.08 365.059 Q1228.37 364.511 1227.5 363.674 Q1226.6 362.804 1226.08 361.613 Q1225.53 360.389 1225.53 359.036 Q1225.53 357.716 1225.89 356.427 Q1226.21 355.139 1227.27 354.044 Q1228.3 352.917 1229.88 352.917 Z" fill="#000000" fill-rule="nonzero" fill-opacity="1"></path><path clip-path="url(#clip770)" d="M1247.34 346.196 L1245.89 346.196 Q1245.89 340.65 1242.94 337.787 Q1242.94 336.998 1243.12 336.863 Q1243.3 336.727 1244.14 336.727 L1270.04 336.727 Q1271.41 336.727 1271.84 336.051 Q1272.27 335.375 1272.27 332.421 L1272.27 330.956 L1273.69 330.956 Q1273.56 332.579 1273.56 338.441 Q1273.56 344.302 1273.69 345.903 L1272.27 345.903 L1272.27 344.437 Q1272.27 341.529 1271.87 340.83 Q1271.44 340.131 1270.04 340.131 L1246.12 340.131 Q1247.34 342.544 1247.34 346.196 Z" fill="#000000" fill-rule="nonzero" fill-opacity="1"></path><polyline clip-path="url(#clip773)" style="stroke:#009af9; stroke-linecap:round; stroke-linejoin:round; stroke-width:4; stroke-opacity:1; fill:none" points="1475.1,637.618 1510.61,637.618 1546.11,637.618 1581.62,637.618 1617.12,637.618 1652.62,637.618 1688.13,637.618 1723.63,637.618 1759.13,637.618 1794.64,637.618 1830.14,637.618 1865.65,637.618 1901.15,637.618 1936.65,637.618 1972.16,637.618 2007.66,637.618 2043.16,637.618 2078.67,637.618 2114.17,637.618 2149.67,637.618 2185.18,637.618 2220.68,637.618 2256.19,637.618 2291.69,637.618 2327.19,637.618 "></polyline>
<polyline clip-path="url(#clip773)" style="stroke:#e26f46; stroke-linecap:round; stroke-linejoin:round; stroke-width:3; stroke-opacity:1; fill:none" stroke-dasharray="12, 6, 2, 6" points="1475.1,637.618 1510.61,72.6172 1546.11,64.4395 1581.62,144.813 1617.12,229.697 1652.62,305.083 1688.13,368.834 1723.63,421.508 1759.13,464.445 1794.64,499.15 1830.14,527.053 1865.65,549.411 1901.15,567.287 1936.65,581.56 1972.16,592.947 2007.66,602.025 2043.16,609.262 2078.67,615.028 2114.17,619.623 2149.67,623.283 2185.18,626.199 2220.68,628.522 2256.19,630.373 2291.69,631.847 2327.19,633.021 "></polyline>
<path clip-path="url(#clip770)" d="M2203.5 223.016 L2322.65 223.016 L2322.65 67.4964 L2203.5 67.4964  Z" fill="#ffffff" fill-rule="evenodd" fill-opacity="1"></path>
<polyline clip-path="url(#clip770)" style="stroke:#000000; stroke-linecap:round; stroke-linejoin:round; stroke-width:4; stroke-opacity:1; fill:none" points="2203.5,223.016 2322.65,223.016 2322.65,67.4964 2203.5,67.4964 2203.5,223.016 "></polyline>
<polyline clip-path="url(#clip770)" style="stroke:#009af9; stroke-linecap:round; stroke-linejoin:round; stroke-width:4; stroke-opacity:1; fill:none" points="2213.53,119.336 2273.75,119.336 "></polyline>
<path clip-path="url(#clip770)" d="M2310.79 129.875 L2305.52 129.735 L2299.76 129.875 L2299.76 127.627 L2301.63 127.627 L2296.36 121.397 L2291.7 126.62 L2291.37 127.088 Q2291.37 127.299 2291.91 127.463 Q2292.47 127.627 2293.13 127.627 L2293.13 129.875 L2288.19 129.735 L2283.78 129.875 L2283.78 127.627 Q2285.26 127.627 2285.94 127.604 Q2286.64 127.557 2287.44 127.346 Q2288.23 127.135 2288.63 126.713 L2294.91 119.663 L2287.44 110.833 L2284.02 110.833 L2284.02 108.584 L2289.31 108.725 L2295.1 108.584 L2295.1 110.833 L2293.18 110.833 L2297.88 116.337 L2301.91 111.84 Q2301.94 111.817 2302.31 111.255 Q2301.56 110.833 2300.48 110.833 L2300.48 108.584 L2305.43 108.725 L2309.83 108.584 L2309.83 110.833 Q2307.91 110.833 2306.9 110.974 Q2305.92 111.091 2305.61 111.255 Q2305.33 111.419 2304.93 111.84 L2299.34 118.071 L2307.39 127.627 L2310.79 127.627 L2310.79 129.875 Z" fill="#000000" fill-rule="nonzero" fill-opacity="1"></path><polyline clip-path="url(#clip770)" style="stroke:#e26f46; stroke-linecap:round; stroke-linejoin:round; stroke-width:3; stroke-opacity:1; fill:none" stroke-dasharray="12, 6, 2, 6" points="2213.53,171.176 2273.75,171.176 "></polyline>
<path clip-path="url(#clip770)" d="M2306.37 159.655 L2305.96 160.327 Q2303.42 159.228 2300.25 157.474 Q2297.09 159.228 2294.55 160.327 L2294.15 159.655 Q2296.93 157.244 2300.25 155.392 Q2303.61 157.261 2306.37 159.655 Z" fill="#000000" fill-rule="nonzero" fill-opacity="1"></path><path clip-path="url(#clip770)" d="M2310.79 186.72 L2305.52 186.579 L2299.76 186.72 L2299.76 184.471 L2301.63 184.471 L2296.36 178.241 L2291.7 183.464 L2291.37 183.933 Q2291.37 184.144 2291.91 184.308 Q2292.47 184.471 2293.13 184.471 L2293.13 186.72 L2288.19 186.579 L2283.78 186.72 L2283.78 184.471 Q2285.26 184.471 2285.94 184.448 Q2286.64 184.401 2287.44 184.19 Q2288.23 183.98 2288.63 183.558 L2294.91 176.508 L2287.44 167.678 L2284.02 167.678 L2284.02 165.429 L2289.31 165.57 L2295.1 165.429 L2295.1 167.678 L2293.18 167.678 L2297.88 173.182 L2301.91 168.685 Q2301.94 168.661 2302.31 168.099 Q2301.56 167.678 2300.48 167.678 L2300.48 165.429 L2305.43 165.57 L2309.83 165.429 L2309.83 167.678 Q2307.91 167.678 2306.9 167.818 Q2305.92 167.935 2305.61 168.099 Q2305.33 168.263 2304.93 168.685 L2299.34 174.915 L2307.39 184.471 L2310.79 184.471 L2310.79 186.72 Z" fill="#000000" fill-rule="nonzero" fill-opacity="1"></path><path clip-path="url(#clip770)" d="M1449.54 1423.18 L2352.76 1423.18 L2352.76 815.61 L1449.54 815.61  Z" fill="#ffffff" fill-rule="evenodd" fill-opacity="1"></path>
<defs>
  <clipPath id="clip774">
    <rect x="1449" y="815" width="904" height="609"></rect>
  </clipPath>
</defs>
<polyline clip-path="url(#clip774)" style="stroke:#000000; stroke-linecap:round; stroke-linejoin:round; stroke-width:2; stroke-opacity:0.1; fill:none" points="1475.1,1423.18 1475.1,815.61 "></polyline>
<polyline clip-path="url(#clip774)" style="stroke:#000000; stroke-linecap:round; stroke-linejoin:round; stroke-width:2; stroke-opacity:0.1; fill:none" points="1652.62,1423.18 1652.62,815.61 "></polyline>
<polyline clip-path="url(#clip774)" style="stroke:#000000; stroke-linecap:round; stroke-linejoin:round; stroke-width:2; stroke-opacity:0.1; fill:none" points="1830.14,1423.18 1830.14,815.61 "></polyline>
<polyline clip-path="url(#clip774)" style="stroke:#000000; stroke-linecap:round; stroke-linejoin:round; stroke-width:2; stroke-opacity:0.1; fill:none" points="2007.66,1423.18 2007.66,815.61 "></polyline>
<polyline clip-path="url(#clip774)" style="stroke:#000000; stroke-linecap:round; stroke-linejoin:round; stroke-width:2; stroke-opacity:0.1; fill:none" points="2185.18,1423.18 2185.18,815.61 "></polyline>
<polyline clip-path="url(#clip770)" style="stroke:#000000; stroke-linecap:round; stroke-linejoin:round; stroke-width:4; stroke-opacity:1; fill:none" points="1449.54,1423.18 2352.76,1423.18 "></polyline>
<polyline clip-path="url(#clip770)" style="stroke:#000000; stroke-linecap:round; stroke-linejoin:round; stroke-width:4; stroke-opacity:1; fill:none" points="1475.1,1423.18 1475.1,1404.28 "></polyline>
<polyline clip-path="url(#clip770)" style="stroke:#000000; stroke-linecap:round; stroke-linejoin:round; stroke-width:4; stroke-opacity:1; fill:none" points="1652.62,1423.18 1652.62,1404.28 "></polyline>
<polyline clip-path="url(#clip770)" style="stroke:#000000; stroke-linecap:round; stroke-linejoin:round; stroke-width:4; stroke-opacity:1; fill:none" points="1830.14,1423.18 1830.14,1404.28 "></polyline>
<polyline clip-path="url(#clip770)" style="stroke:#000000; stroke-linecap:round; stroke-linejoin:round; stroke-width:4; stroke-opacity:1; fill:none" points="2007.66,1423.18 2007.66,1404.28 "></polyline>
<polyline clip-path="url(#clip770)" style="stroke:#000000; stroke-linecap:round; stroke-linejoin:round; stroke-width:4; stroke-opacity:1; fill:none" points="2185.18,1423.18 2185.18,1404.28 "></polyline>
<path clip-path="url(#clip770)" d="M1475.1 1454.1 Q1471.49 1454.1 1469.66 1457.66 Q1467.86 1461.2 1467.86 1468.33 Q1467.86 1475.44 1469.66 1479.01 Q1471.49 1482.55 1475.1 1482.55 Q1478.74 1482.55 1480.54 1479.01 Q1482.37 1475.44 1482.37 1468.33 Q1482.37 1461.2 1480.54 1457.66 Q1478.74 1454.1 1475.1 1454.1 M1475.1 1450.39 Q1480.91 1450.39 1483.97 1455 Q1487.05 1459.58 1487.05 1468.33 Q1487.05 1477.06 1483.97 1481.67 Q1480.91 1486.25 1475.1 1486.25 Q1469.29 1486.25 1466.22 1481.67 Q1463.16 1477.06 1463.16 1468.33 Q1463.16 1459.58 1466.22 1455 Q1469.29 1450.39 1475.1 1450.39 Z" fill="#000000" fill-rule="nonzero" fill-opacity="1"></path><path clip-path="url(#clip770)" d="M1642.9 1451.02 L1661.26 1451.02 L1661.26 1454.96 L1647.18 1454.96 L1647.18 1463.43 Q1648.2 1463.08 1649.22 1462.92 Q1650.24 1462.73 1651.26 1462.73 Q1657.04 1462.73 1660.42 1465.9 Q1663.8 1469.08 1663.8 1474.49 Q1663.8 1480.07 1660.33 1483.17 Q1656.86 1486.25 1650.54 1486.25 Q1648.36 1486.25 1646.1 1485.88 Q1643.85 1485.51 1641.44 1484.77 L1641.44 1480.07 Q1643.53 1481.2 1645.75 1481.76 Q1647.97 1482.32 1650.45 1482.32 Q1654.45 1482.32 1656.79 1480.21 Q1659.13 1478.1 1659.13 1474.49 Q1659.13 1470.88 1656.79 1468.77 Q1654.45 1466.67 1650.45 1466.67 Q1648.57 1466.67 1646.7 1467.08 Q1644.85 1467.5 1642.9 1468.38 L1642.9 1451.02 Z" fill="#000000" fill-rule="nonzero" fill-opacity="1"></path><path clip-path="url(#clip770)" d="M1804.83 1481.64 L1812.47 1481.64 L1812.47 1455.28 L1804.16 1456.95 L1804.16 1452.69 L1812.42 1451.02 L1817.1 1451.02 L1817.1 1481.64 L1824.74 1481.64 L1824.74 1485.58 L1804.83 1485.58 L1804.83 1481.64 Z" fill="#000000" fill-rule="nonzero" fill-opacity="1"></path><path clip-path="url(#clip770)" d="M1844.18 1454.1 Q1840.57 1454.1 1838.74 1457.66 Q1836.94 1461.2 1836.94 1468.33 Q1836.94 1475.44 1838.74 1479.01 Q1840.57 1482.55 1844.18 1482.55 Q1847.82 1482.55 1849.62 1479.01 Q1851.45 1475.44 1851.45 1468.33 Q1851.45 1461.2 1849.62 1457.66 Q1847.82 1454.1 1844.18 1454.1 M1844.18 1450.39 Q1849.99 1450.39 1853.05 1455 Q1856.13 1459.58 1856.13 1468.33 Q1856.13 1477.06 1853.05 1481.67 Q1849.99 1486.25 1844.18 1486.25 Q1838.37 1486.25 1835.29 1481.67 Q1832.24 1477.06 1832.24 1468.33 Q1832.24 1459.58 1835.29 1455 Q1838.37 1450.39 1844.18 1450.39 Z" fill="#000000" fill-rule="nonzero" fill-opacity="1"></path><path clip-path="url(#clip770)" d="M1982.85 1481.64 L1990.48 1481.64 L1990.48 1455.28 L1982.17 1456.95 L1982.17 1452.69 L1990.44 1451.02 L1995.11 1451.02 L1995.11 1481.64 L2002.75 1481.64 L2002.75 1485.58 L1982.85 1485.58 L1982.85 1481.64 Z" fill="#000000" fill-rule="nonzero" fill-opacity="1"></path><path clip-path="url(#clip770)" d="M2012.24 1451.02 L2030.6 1451.02 L2030.6 1454.96 L2016.53 1454.96 L2016.53 1463.43 Q2017.54 1463.08 2018.56 1462.92 Q2019.58 1462.73 2020.6 1462.73 Q2026.39 1462.73 2029.77 1465.9 Q2033.15 1469.08 2033.15 1474.49 Q2033.15 1480.07 2029.67 1483.17 Q2026.2 1486.25 2019.88 1486.25 Q2017.71 1486.25 2015.44 1485.88 Q2013.19 1485.51 2010.79 1484.77 L2010.79 1480.07 Q2012.87 1481.2 2015.09 1481.76 Q2017.31 1482.32 2019.79 1482.32 Q2023.79 1482.32 2026.13 1480.21 Q2028.47 1478.1 2028.47 1474.49 Q2028.47 1470.88 2026.13 1468.77 Q2023.79 1466.67 2019.79 1466.67 Q2017.91 1466.67 2016.04 1467.08 Q2014.19 1467.5 2012.24 1468.38 L2012.24 1451.02 Z" fill="#000000" fill-rule="nonzero" fill-opacity="1"></path><path clip-path="url(#clip770)" d="M2163.95 1481.64 L2180.27 1481.64 L2180.27 1485.58 L2158.33 1485.58 L2158.33 1481.64 Q2160.99 1478.89 2165.57 1474.26 Q2170.18 1469.61 2171.36 1468.27 Q2173.6 1465.74 2174.48 1464.01 Q2175.39 1462.25 2175.39 1460.56 Q2175.39 1457.8 2173.44 1456.07 Q2171.52 1454.33 2168.42 1454.33 Q2166.22 1454.33 2163.77 1455.09 Q2161.34 1455.86 2158.56 1457.41 L2158.56 1452.69 Q2161.38 1451.55 2163.84 1450.97 Q2166.29 1450.39 2168.33 1450.39 Q2173.7 1450.39 2176.89 1453.08 Q2180.09 1455.77 2180.09 1460.26 Q2180.09 1462.39 2179.28 1464.31 Q2178.49 1466.2 2176.38 1468.8 Q2175.8 1469.47 2172.7 1472.69 Q2169.6 1475.88 2163.95 1481.64 Z" fill="#000000" fill-rule="nonzero" fill-opacity="1"></path><path clip-path="url(#clip770)" d="M2200.09 1454.1 Q2196.47 1454.1 2194.65 1457.66 Q2192.84 1461.2 2192.84 1468.33 Q2192.84 1475.44 2194.65 1479.01 Q2196.47 1482.55 2200.09 1482.55 Q2203.72 1482.55 2205.53 1479.01 Q2207.35 1475.44 2207.35 1468.33 Q2207.35 1461.2 2205.53 1457.66 Q2203.72 1454.1 2200.09 1454.1 M2200.09 1450.39 Q2205.9 1450.39 2208.95 1455 Q2212.03 1459.58 2212.03 1468.33 Q2212.03 1477.06 2208.95 1481.67 Q2205.9 1486.25 2200.09 1486.25 Q2194.28 1486.25 2191.2 1481.67 Q2188.14 1477.06 2188.14 1468.33 Q2188.14 1459.58 2191.2 1455 Q2194.28 1450.39 2200.09 1450.39 Z" fill="#000000" fill-rule="nonzero" fill-opacity="1"></path><path clip-path="url(#clip770)" d="M1771.32 1520.52 L1811.52 1520.52 L1811.52 1525.93 L1794.65 1525.93 L1794.65 1568.04 L1788.19 1568.04 L1788.19 1525.93 L1771.32 1525.93 L1771.32 1520.52 Z" fill="#000000" fill-rule="nonzero" fill-opacity="1"></path><path clip-path="url(#clip770)" d="M1815.47 1532.4 L1821.32 1532.4 L1821.32 1568.04 L1815.47 1568.04 L1815.47 1532.4 M1815.47 1518.52 L1821.32 1518.52 L1821.32 1525.93 L1815.47 1525.93 L1815.47 1518.52 Z" fill="#000000" fill-rule="nonzero" fill-opacity="1"></path><path clip-path="url(#clip770)" d="M1861.33 1539.24 Q1863.53 1535.29 1866.58 1533.41 Q1869.64 1531.54 1873.78 1531.54 Q1879.35 1531.54 1882.37 1535.45 Q1885.39 1539.33 1885.39 1546.53 L1885.39 1568.04 L1879.51 1568.04 L1879.51 1546.72 Q1879.51 1541.59 1877.69 1539.11 Q1875.88 1536.63 1872.15 1536.63 Q1867.6 1536.63 1864.96 1539.65 Q1862.32 1542.68 1862.32 1547.9 L1862.32 1568.04 L1856.43 1568.04 L1856.43 1546.72 Q1856.43 1541.56 1854.62 1539.11 Q1852.8 1536.63 1849.01 1536.63 Q1844.53 1536.63 1841.88 1539.68 Q1839.24 1542.71 1839.24 1547.9 L1839.24 1568.04 L1833.35 1568.04 L1833.35 1532.4 L1839.24 1532.4 L1839.24 1537.93 Q1841.25 1534.66 1844.05 1533.1 Q1846.85 1531.54 1850.7 1531.54 Q1854.58 1531.54 1857.29 1533.51 Q1860.03 1535.48 1861.33 1539.24 Z" fill="#000000" fill-rule="nonzero" fill-opacity="1"></path><path clip-path="url(#clip770)" d="M1927.57 1548.76 L1927.57 1551.62 L1900.64 1551.62 Q1901.02 1557.67 1904.27 1560.85 Q1907.55 1564 1913.37 1564 Q1916.74 1564 1919.9 1563.17 Q1923.08 1562.35 1926.2 1560.69 L1926.2 1566.23 Q1923.05 1567.57 1919.74 1568.27 Q1916.43 1568.97 1913.02 1568.97 Q1904.49 1568.97 1899.49 1564 Q1894.53 1559.04 1894.53 1550.57 Q1894.53 1541.82 1899.24 1536.69 Q1903.98 1531.54 1912 1531.54 Q1919.2 1531.54 1923.37 1536.18 Q1927.57 1540.8 1927.57 1548.76 M1921.71 1547.04 Q1921.65 1542.23 1919 1539.37 Q1916.39 1536.5 1912.07 1536.5 Q1907.16 1536.5 1904.2 1539.27 Q1901.28 1542.04 1900.83 1547.07 L1921.71 1547.04 Z" fill="#000000" fill-rule="nonzero" fill-opacity="1"></path><path clip-path="url(#clip770)" d="M1971.97 1518.58 Q1967.7 1525.9 1965.63 1533.06 Q1963.56 1540.23 1963.56 1547.58 Q1963.56 1554.93 1965.63 1562.16 Q1967.73 1569.35 1971.97 1576.64 L1966.87 1576.64 Q1962.1 1569.16 1959.71 1561.93 Q1957.36 1554.71 1957.36 1547.58 Q1957.36 1540.48 1959.71 1533.29 Q1962.07 1526.09 1966.87 1518.58 L1971.97 1518.58 Z" fill="#000000" fill-rule="nonzero" fill-opacity="1"></path><path clip-path="url(#clip770)" d="M2006.06 1533.45 L2006.06 1538.98 Q2003.57 1537.71 2000.9 1537.07 Q1998.23 1536.44 1995.36 1536.44 Q1991 1536.44 1988.8 1537.77 Q1986.64 1539.11 1986.64 1541.79 Q1986.64 1543.82 1988.2 1545 Q1989.76 1546.15 1994.47 1547.2 L1996.48 1547.64 Q2002.71 1548.98 2005.32 1551.43 Q2007.97 1553.85 2007.97 1558.21 Q2007.97 1563.17 2004.02 1566.07 Q2000.1 1568.97 1993.23 1568.97 Q1990.36 1568.97 1987.25 1568.39 Q1984.16 1567.85 1980.72 1566.74 L1980.72 1560.69 Q1983.97 1562.38 1987.12 1563.24 Q1990.27 1564.07 1993.36 1564.07 Q1997.49 1564.07 1999.72 1562.66 Q2001.95 1561.23 2001.95 1558.65 Q2001.95 1556.27 2000.33 1554.99 Q1998.74 1553.72 1993.29 1552.54 L1991.26 1552.07 Q1985.81 1550.92 1983.39 1548.56 Q1980.97 1546.18 1980.97 1542.04 Q1980.97 1537.01 1984.54 1534.27 Q1988.1 1531.54 1994.66 1531.54 Q1997.91 1531.54 2000.77 1532.01 Q2003.64 1532.49 2006.06 1533.45 Z" fill="#000000" fill-rule="nonzero" fill-opacity="1"></path><path clip-path="url(#clip770)" d="M2016.37 1518.58 L2021.46 1518.58 Q2026.24 1526.09 2028.59 1533.29 Q2030.98 1540.48 2030.98 1547.58 Q2030.98 1554.71 2028.59 1561.93 Q2026.24 1569.16 2021.46 1576.64 L2016.37 1576.64 Q2020.6 1569.35 2022.67 1562.16 Q2024.77 1554.93 2024.77 1547.58 Q2024.77 1540.23 2022.67 1533.06 Q2020.6 1525.9 2016.37 1518.58 Z" fill="#000000" fill-rule="nonzero" fill-opacity="1"></path><polyline clip-path="url(#clip774)" style="stroke:#000000; stroke-linecap:round; stroke-linejoin:round; stroke-width:2; stroke-opacity:0.1; fill:none" points="1449.54,1405.98 2352.76,1405.98 "></polyline>
<polyline clip-path="url(#clip774)" style="stroke:#000000; stroke-linecap:round; stroke-linejoin:round; stroke-width:2; stroke-opacity:0.1; fill:none" points="1449.54,1261.99 2352.76,1261.99 "></polyline>
<polyline clip-path="url(#clip774)" style="stroke:#000000; stroke-linecap:round; stroke-linejoin:round; stroke-width:2; stroke-opacity:0.1; fill:none" points="1449.54,1118 2352.76,1118 "></polyline>
<polyline clip-path="url(#clip774)" style="stroke:#000000; stroke-linecap:round; stroke-linejoin:round; stroke-width:2; stroke-opacity:0.1; fill:none" points="1449.54,974.003 2352.76,974.003 "></polyline>
<polyline clip-path="url(#clip774)" style="stroke:#000000; stroke-linecap:round; stroke-linejoin:round; stroke-width:2; stroke-opacity:0.1; fill:none" points="1449.54,830.009 2352.76,830.009 "></polyline>
<polyline clip-path="url(#clip770)" style="stroke:#000000; stroke-linecap:round; stroke-linejoin:round; stroke-width:4; stroke-opacity:1; fill:none" points="1449.54,1423.18 1449.54,815.61 "></polyline>
<polyline clip-path="url(#clip770)" style="stroke:#000000; stroke-linecap:round; stroke-linejoin:round; stroke-width:4; stroke-opacity:1; fill:none" points="1449.54,1405.98 1468.44,1405.98 "></polyline>
<polyline clip-path="url(#clip770)" style="stroke:#000000; stroke-linecap:round; stroke-linejoin:round; stroke-width:4; stroke-opacity:1; fill:none" points="1449.54,1261.99 1468.44,1261.99 "></polyline>
<polyline clip-path="url(#clip770)" style="stroke:#000000; stroke-linecap:round; stroke-linejoin:round; stroke-width:4; stroke-opacity:1; fill:none" points="1449.54,1118 1468.44,1118 "></polyline>
<polyline clip-path="url(#clip770)" style="stroke:#000000; stroke-linecap:round; stroke-linejoin:round; stroke-width:4; stroke-opacity:1; fill:none" points="1449.54,974.003 1468.44,974.003 "></polyline>
<polyline clip-path="url(#clip770)" style="stroke:#000000; stroke-linecap:round; stroke-linejoin:round; stroke-width:4; stroke-opacity:1; fill:none" points="1449.54,830.009 1468.44,830.009 "></polyline>
<path clip-path="url(#clip770)" d="M1326.2 1391.78 Q1322.59 1391.78 1320.76 1395.35 Q1318.96 1398.89 1318.96 1406.02 Q1318.96 1413.13 1320.76 1416.69 Q1322.59 1420.23 1326.2 1420.23 Q1329.84 1420.23 1331.64 1416.69 Q1333.47 1413.13 1333.47 1406.02 Q1333.47 1398.89 1331.64 1395.35 Q1329.84 1391.78 1326.2 1391.78 M1326.2 1388.08 Q1332.01 1388.08 1335.07 1392.69 Q1338.15 1397.27 1338.15 1406.02 Q1338.15 1414.75 1335.07 1419.35 Q1332.01 1423.94 1326.2 1423.94 Q1320.39 1423.94 1317.32 1419.35 Q1314.26 1414.75 1314.26 1406.02 Q1314.26 1397.27 1317.32 1392.69 Q1320.39 1388.08 1326.2 1388.08 Z" fill="#000000" fill-rule="nonzero" fill-opacity="1"></path><path clip-path="url(#clip770)" d="M1346.37 1417.38 L1351.25 1417.38 L1351.25 1423.26 L1346.37 1423.26 L1346.37 1417.38 Z" fill="#000000" fill-rule="nonzero" fill-opacity="1"></path><path clip-path="url(#clip770)" d="M1371.44 1391.78 Q1367.82 1391.78 1366 1395.35 Q1364.19 1398.89 1364.19 1406.02 Q1364.19 1413.13 1366 1416.69 Q1367.82 1420.23 1371.44 1420.23 Q1375.07 1420.23 1376.88 1416.69 Q1378.7 1413.13 1378.7 1406.02 Q1378.7 1398.89 1376.88 1395.35 Q1375.07 1391.78 1371.44 1391.78 M1371.44 1388.08 Q1377.25 1388.08 1380.3 1392.69 Q1383.38 1397.27 1383.38 1406.02 Q1383.38 1414.75 1380.3 1419.35 Q1377.25 1423.94 1371.44 1423.94 Q1365.63 1423.94 1362.55 1419.35 Q1359.49 1414.75 1359.49 1406.02 Q1359.49 1397.27 1362.55 1392.69 Q1365.63 1388.08 1371.44 1388.08 Z" fill="#000000" fill-rule="nonzero" fill-opacity="1"></path><path clip-path="url(#clip770)" d="M1401.6 1391.78 Q1397.99 1391.78 1396.16 1395.35 Q1394.35 1398.89 1394.35 1406.02 Q1394.35 1413.13 1396.16 1416.69 Q1397.99 1420.23 1401.6 1420.23 Q1405.23 1420.23 1407.04 1416.69 Q1408.87 1413.13 1408.87 1406.02 Q1408.87 1398.89 1407.04 1395.35 Q1405.23 1391.78 1401.6 1391.78 M1401.6 1388.08 Q1407.41 1388.08 1410.46 1392.69 Q1413.54 1397.27 1413.54 1406.02 Q1413.54 1414.75 1410.46 1419.35 Q1407.41 1423.94 1401.6 1423.94 Q1395.79 1423.94 1392.71 1419.35 Q1389.65 1414.75 1389.65 1406.02 Q1389.65 1397.27 1392.71 1392.69 Q1395.79 1388.08 1401.6 1388.08 Z" fill="#000000" fill-rule="nonzero" fill-opacity="1"></path><path clip-path="url(#clip770)" d="M1327.2 1247.79 Q1323.59 1247.79 1321.76 1251.35 Q1319.95 1254.9 1319.95 1262.03 Q1319.95 1269.13 1321.76 1272.7 Q1323.59 1276.24 1327.2 1276.24 Q1330.83 1276.24 1332.64 1272.7 Q1334.47 1269.13 1334.47 1262.03 Q1334.47 1254.9 1332.64 1251.35 Q1330.83 1247.79 1327.2 1247.79 M1327.2 1244.09 Q1333.01 1244.09 1336.07 1248.69 Q1339.14 1253.28 1339.14 1262.03 Q1339.14 1270.75 1336.07 1275.36 Q1333.01 1279.94 1327.2 1279.94 Q1321.39 1279.94 1318.31 1275.36 Q1315.26 1270.75 1315.26 1262.03 Q1315.26 1253.28 1318.31 1248.69 Q1321.39 1244.09 1327.2 1244.09 Z" fill="#000000" fill-rule="nonzero" fill-opacity="1"></path><path clip-path="url(#clip770)" d="M1347.36 1273.39 L1352.25 1273.39 L1352.25 1279.27 L1347.36 1279.27 L1347.36 1273.39 Z" fill="#000000" fill-rule="nonzero" fill-opacity="1"></path><path clip-path="url(#clip770)" d="M1366.46 1275.34 L1382.78 1275.34 L1382.78 1279.27 L1360.83 1279.27 L1360.83 1275.34 Q1363.5 1272.58 1368.08 1267.95 Q1372.69 1263.3 1373.87 1261.96 Q1376.11 1259.43 1376.99 1257.7 Q1377.89 1255.94 1377.89 1254.25 Q1377.89 1251.49 1375.95 1249.76 Q1374.03 1248.02 1370.93 1248.02 Q1368.73 1248.02 1366.27 1248.78 Q1363.84 1249.55 1361.07 1251.1 L1361.07 1246.38 Q1363.89 1245.24 1366.34 1244.66 Q1368.8 1244.09 1370.83 1244.09 Q1376.2 1244.09 1379.4 1246.77 Q1382.59 1249.46 1382.59 1253.95 Q1382.59 1256.08 1381.78 1258 Q1381 1259.9 1378.89 1262.49 Q1378.31 1263.16 1375.21 1266.38 Q1372.11 1269.57 1366.46 1275.34 Z" fill="#000000" fill-rule="nonzero" fill-opacity="1"></path><path clip-path="url(#clip770)" d="M1392.64 1244.71 L1411 1244.71 L1411 1248.65 L1396.92 1248.65 L1396.92 1257.12 Q1397.94 1256.77 1398.96 1256.61 Q1399.98 1256.42 1401 1256.42 Q1406.78 1256.42 1410.16 1259.59 Q1413.54 1262.77 1413.54 1268.18 Q1413.54 1273.76 1410.07 1276.86 Q1406.6 1279.94 1400.28 1279.94 Q1398.1 1279.94 1395.83 1279.57 Q1393.59 1279.2 1391.18 1278.46 L1391.18 1273.76 Q1393.26 1274.9 1395.49 1275.45 Q1397.71 1276.01 1400.19 1276.01 Q1404.19 1276.01 1406.53 1273.9 Q1408.87 1271.79 1408.87 1268.18 Q1408.87 1264.57 1406.53 1262.47 Q1404.19 1260.36 1400.19 1260.36 Q1398.31 1260.36 1396.44 1260.78 Q1394.58 1261.19 1392.64 1262.07 L1392.64 1244.71 Z" fill="#000000" fill-rule="nonzero" fill-opacity="1"></path><path clip-path="url(#clip770)" d="M1326.2 1103.8 Q1322.59 1103.8 1320.76 1107.36 Q1318.96 1110.9 1318.96 1118.03 Q1318.96 1125.14 1320.76 1128.7 Q1322.59 1132.24 1326.2 1132.24 Q1329.84 1132.24 1331.64 1128.7 Q1333.47 1125.14 1333.47 1118.03 Q1333.47 1110.9 1331.64 1107.36 Q1329.84 1103.8 1326.2 1103.8 M1326.2 1100.09 Q1332.01 1100.09 1335.07 1104.7 Q1338.15 1109.28 1338.15 1118.03 Q1338.15 1126.76 1335.07 1131.36 Q1332.01 1135.95 1326.2 1135.95 Q1320.39 1135.95 1317.32 1131.36 Q1314.26 1126.76 1314.26 1118.03 Q1314.26 1109.28 1317.32 1104.7 Q1320.39 1100.09 1326.2 1100.09 Z" fill="#000000" fill-rule="nonzero" fill-opacity="1"></path><path clip-path="url(#clip770)" d="M1346.37 1129.4 L1351.25 1129.4 L1351.25 1135.28 L1346.37 1135.28 L1346.37 1129.4 Z" fill="#000000" fill-rule="nonzero" fill-opacity="1"></path><path clip-path="url(#clip770)" d="M1361.48 1100.72 L1379.84 1100.72 L1379.84 1104.65 L1365.76 1104.65 L1365.76 1113.12 Q1366.78 1112.78 1367.8 1112.62 Q1368.82 1112.43 1369.84 1112.43 Q1375.63 1112.43 1379.01 1115.6 Q1382.38 1118.77 1382.38 1124.19 Q1382.38 1129.77 1378.91 1132.87 Q1375.44 1135.95 1369.12 1135.95 Q1366.95 1135.95 1364.68 1135.58 Q1362.43 1135.21 1360.02 1134.47 L1360.02 1129.77 Q1362.11 1130.9 1364.33 1131.46 Q1366.55 1132.01 1369.03 1132.01 Q1373.03 1132.01 1375.37 1129.91 Q1377.71 1127.8 1377.71 1124.19 Q1377.71 1120.58 1375.37 1118.47 Q1373.03 1116.37 1369.03 1116.37 Q1367.15 1116.37 1365.28 1116.78 Q1363.43 1117.2 1361.48 1118.08 L1361.48 1100.72 Z" fill="#000000" fill-rule="nonzero" fill-opacity="1"></path><path clip-path="url(#clip770)" d="M1401.6 1103.8 Q1397.99 1103.8 1396.16 1107.36 Q1394.35 1110.9 1394.35 1118.03 Q1394.35 1125.14 1396.16 1128.7 Q1397.99 1132.24 1401.6 1132.24 Q1405.23 1132.24 1407.04 1128.7 Q1408.87 1125.14 1408.87 1118.03 Q1408.87 1110.9 1407.04 1107.36 Q1405.23 1103.8 1401.6 1103.8 M1401.6 1100.09 Q1407.41 1100.09 1410.46 1104.7 Q1413.54 1109.28 1413.54 1118.03 Q1413.54 1126.76 1410.46 1131.36 Q1407.41 1135.95 1401.6 1135.95 Q1395.79 1135.95 1392.71 1131.36 Q1389.65 1126.76 1389.65 1118.03 Q1389.65 1109.28 1392.71 1104.7 Q1395.79 1100.09 1401.6 1100.09 Z" fill="#000000" fill-rule="nonzero" fill-opacity="1"></path><path clip-path="url(#clip770)" d="M1327.2 959.802 Q1323.59 959.802 1321.76 963.367 Q1319.95 966.908 1319.95 974.038 Q1319.95 981.144 1321.76 984.709 Q1323.59 988.251 1327.2 988.251 Q1330.83 988.251 1332.64 984.709 Q1334.47 981.144 1334.47 974.038 Q1334.47 966.908 1332.64 963.367 Q1330.83 959.802 1327.2 959.802 M1327.2 956.098 Q1333.01 956.098 1336.07 960.705 Q1339.14 965.288 1339.14 974.038 Q1339.14 982.765 1336.07 987.371 Q1333.01 991.955 1327.2 991.955 Q1321.39 991.955 1318.31 987.371 Q1315.26 982.765 1315.26 974.038 Q1315.26 965.288 1318.31 960.705 Q1321.39 956.098 1327.2 956.098 Z" fill="#000000" fill-rule="nonzero" fill-opacity="1"></path><path clip-path="url(#clip770)" d="M1347.36 985.404 L1352.25 985.404 L1352.25 991.283 L1347.36 991.283 L1347.36 985.404 Z" fill="#000000" fill-rule="nonzero" fill-opacity="1"></path><path clip-path="url(#clip770)" d="M1361.25 956.723 L1383.47 956.723 L1383.47 958.714 L1370.93 991.283 L1366.04 991.283 L1377.85 960.658 L1361.25 960.658 L1361.25 956.723 Z" fill="#000000" fill-rule="nonzero" fill-opacity="1"></path><path clip-path="url(#clip770)" d="M1392.64 956.723 L1411 956.723 L1411 960.658 L1396.92 960.658 L1396.92 969.131 Q1397.94 968.783 1398.96 968.621 Q1399.98 968.436 1401 968.436 Q1406.78 968.436 1410.16 971.607 Q1413.54 974.779 1413.54 980.195 Q1413.54 985.774 1410.07 988.876 Q1406.6 991.955 1400.28 991.955 Q1398.1 991.955 1395.83 991.584 Q1393.59 991.214 1391.18 990.473 L1391.18 985.774 Q1393.26 986.908 1395.49 987.464 Q1397.71 988.019 1400.19 988.019 Q1404.19 988.019 1406.53 985.913 Q1408.87 983.806 1408.87 980.195 Q1408.87 976.584 1406.53 974.478 Q1404.19 972.371 1400.19 972.371 Q1398.31 972.371 1396.44 972.788 Q1394.58 973.205 1392.64 974.084 L1392.64 956.723 Z" fill="#000000" fill-rule="nonzero" fill-opacity="1"></path><path clip-path="url(#clip770)" d="M1317.01 843.354 L1324.65 843.354 L1324.65 816.989 L1316.34 818.655 L1316.34 814.396 L1324.61 812.729 L1329.28 812.729 L1329.28 843.354 L1336.92 843.354 L1336.92 847.289 L1317.01 847.289 L1317.01 843.354 Z" fill="#000000" fill-rule="nonzero" fill-opacity="1"></path><path clip-path="url(#clip770)" d="M1346.37 841.41 L1351.25 841.41 L1351.25 847.289 L1346.37 847.289 L1346.37 841.41 Z" fill="#000000" fill-rule="nonzero" fill-opacity="1"></path><path clip-path="url(#clip770)" d="M1371.44 815.808 Q1367.82 815.808 1366 819.373 Q1364.19 822.915 1364.19 830.044 Q1364.19 837.151 1366 840.715 Q1367.82 844.257 1371.44 844.257 Q1375.07 844.257 1376.88 840.715 Q1378.7 837.151 1378.7 830.044 Q1378.7 822.915 1376.88 819.373 Q1375.07 815.808 1371.44 815.808 M1371.44 812.104 Q1377.25 812.104 1380.3 816.711 Q1383.38 821.294 1383.38 830.044 Q1383.38 838.771 1380.3 843.377 Q1377.25 847.961 1371.44 847.961 Q1365.63 847.961 1362.55 843.377 Q1359.49 838.771 1359.49 830.044 Q1359.49 821.294 1362.55 816.711 Q1365.63 812.104 1371.44 812.104 Z" fill="#000000" fill-rule="nonzero" fill-opacity="1"></path><path clip-path="url(#clip770)" d="M1401.6 815.808 Q1397.99 815.808 1396.16 819.373 Q1394.35 822.915 1394.35 830.044 Q1394.35 837.151 1396.16 840.715 Q1397.99 844.257 1401.6 844.257 Q1405.23 844.257 1407.04 840.715 Q1408.87 837.151 1408.87 830.044 Q1408.87 822.915 1407.04 819.373 Q1405.23 815.808 1401.6 815.808 M1401.6 812.104 Q1407.41 812.104 1410.46 816.711 Q1413.54 821.294 1413.54 830.044 Q1413.54 838.771 1410.46 843.377 Q1407.41 847.961 1401.6 847.961 Q1395.79 847.961 1392.71 843.377 Q1389.65 838.771 1389.65 830.044 Q1389.65 821.294 1392.71 816.711 Q1395.79 812.104 1401.6 812.104 Z" fill="#000000" fill-rule="nonzero" fill-opacity="1"></path><path clip-path="url(#clip770)" d="M1224.46 1124.81 L1225.39 1125.38 Q1223.88 1128.87 1221.46 1133.22 Q1223.88 1137.57 1225.39 1141.07 L1224.46 1141.61 Q1221.15 1137.8 1218.6 1133.22 Q1221.17 1128.6 1224.46 1124.81 Z" fill="#000000" fill-rule="nonzero" fill-opacity="1"></path><path clip-path="url(#clip770)" d="M1236.76 1121.65 Q1238.56 1121.65 1239.59 1122.78 Q1240.59 1123.91 1240.59 1125.19 Q1240.59 1126.42 1239.88 1127.06 Q1239.17 1127.71 1238.27 1127.71 Q1237.05 1127.71 1235.99 1126.8 Q1234.92 1125.9 1234.7 1124.55 Q1233.86 1125.87 1233.86 1127.84 Q1233.86 1129.12 1234.54 1130.25 Q1235.21 1131.35 1236.08 1132.02 Q1236.95 1132.67 1238.21 1133.25 Q1239.43 1133.79 1240.17 1134.02 Q1240.88 1134.21 1241.65 1134.37 L1250.67 1136.63 Q1254.96 1137.72 1256.47 1137.72 Q1258.34 1137.72 1259.59 1136.82 Q1260.82 1135.92 1260.82 1134.12 Q1260.82 1133.41 1260.62 1132.6 Q1260.4 1131.8 1259.82 1130.77 Q1259.21 1129.7 1258.31 1128.77 Q1257.37 1127.8 1255.79 1126.87 Q1254.22 1125.94 1252.19 1125.32 Q1251.48 1125.13 1251.48 1124.49 Q1251.48 1123.68 1252.12 1123.68 Q1252.67 1123.68 1253.83 1124.13 Q1254.96 1124.55 1256.44 1125.48 Q1257.89 1126.39 1259.21 1127.58 Q1260.5 1128.77 1261.4 1130.54 Q1262.3 1132.31 1262.3 1134.24 Q1262.3 1137.01 1260.82 1138.85 Q1259.34 1140.69 1257.27 1141.36 Q1257.56 1141.52 1257.95 1141.75 Q1258.34 1141.97 1259.21 1142.65 Q1260.04 1143.29 1260.69 1144.04 Q1261.3 1144.78 1261.78 1145.94 Q1262.3 1147.06 1262.3 1148.29 Q1262.3 1149.83 1261.85 1151.22 Q1261.4 1152.57 1260.37 1153.54 Q1259.34 1154.5 1257.92 1154.5 Q1256.34 1154.5 1255.25 1153.44 Q1254.12 1152.34 1254.12 1150.86 Q1254.12 1149.93 1254.67 1149.19 Q1255.21 1148.42 1256.41 1148.42 Q1257.73 1148.42 1258.72 1149.32 Q1259.72 1150.22 1259.98 1151.51 Q1260.82 1150.19 1260.82 1148.22 Q1260.82 1146.1 1258.95 1144.42 Q1257.08 1142.75 1253.96 1141.94 Q1246.45 1139.94 1243.1 1139.17 Q1239.72 1138.4 1238.27 1138.4 Q1236.92 1138.4 1235.99 1138.75 Q1235.05 1139.11 1234.63 1139.72 Q1234.18 1140.3 1234.02 1140.85 Q1233.86 1141.36 1233.86 1141.94 Q1233.86 1142.91 1234.25 1144 Q1234.63 1145.07 1235.54 1146.35 Q1236.41 1147.61 1238.21 1148.8 Q1240.01 1149.99 1242.49 1150.8 Q1243.23 1150.96 1243.23 1151.67 Q1243.2 1152.44 1242.56 1152.44 Q1242.01 1152.44 1240.88 1152.02 Q1239.72 1151.57 1238.27 1150.67 Q1236.82 1149.74 1235.54 1148.54 Q1234.22 1147.32 1233.31 1145.55 Q1232.41 1143.75 1232.41 1141.81 Q1232.41 1140.94 1232.6 1140.11 Q1232.77 1139.24 1233.25 1138.21 Q1233.73 1137.14 1234.79 1136.21 Q1235.86 1135.28 1237.4 1134.7 Q1236.66 1134.31 1235.95 1133.79 Q1235.25 1133.25 1234.38 1132.41 Q1233.47 1131.54 1232.96 1130.35 Q1232.41 1129.12 1232.41 1127.77 Q1232.41 1126.45 1232.77 1125.16 Q1233.09 1123.87 1234.15 1122.78 Q1235.18 1121.65 1236.76 1121.65 Z" fill="#000000" fill-rule="nonzero" fill-opacity="1"></path><path clip-path="url(#clip770)" d="M1280.57 1114.19 Q1279.73 1114.19 1279.49 1114.13 Q1279.24 1114.04 1278.86 1113.67 L1268.98 1104.81 Q1263.53 1099.97 1258.77 1099.97 Q1255.68 1099.97 1253.47 1101.59 Q1251.26 1103.19 1251.26 1106.14 Q1251.26 1108.17 1252.5 1109.89 Q1253.74 1111.6 1255.95 1112.39 Q1255.91 1112.25 1255.91 1111.78 Q1255.91 1110.63 1256.63 1110 Q1257.35 1109.35 1258.32 1109.35 Q1259.56 1109.35 1260.17 1110.16 Q1260.75 1110.95 1260.75 1111.74 Q1260.75 1112.05 1260.69 1112.48 Q1260.62 1112.89 1259.99 1113.54 Q1259.33 1114.19 1258.18 1114.19 Q1254.96 1114.19 1252.39 1111.76 Q1249.82 1109.3 1249.82 1105.56 Q1249.82 1101.32 1252.34 1098.55 Q1254.85 1095.75 1258.77 1095.75 Q1260.14 1095.75 1261.41 1096.18 Q1262.65 1096.59 1263.62 1097.15 Q1264.59 1097.69 1266.14 1099.18 Q1267.7 1100.67 1268.8 1101.86 Q1269.91 1103.06 1272.25 1105.74 L1277.01 1110.63 L1277.01 1102.31 Q1277.01 1098.25 1276.65 1097.94 Q1275.99 1097.49 1272.54 1096.92 L1272.54 1095.75 L1280.57 1097.06 L1280.57 1114.19 Z" fill="#000000" fill-rule="nonzero" fill-opacity="1"></path><polyline clip-path="url(#clip774)" style="stroke:#e26f46; stroke-linecap:round; stroke-linejoin:round; stroke-width:3; stroke-opacity:1; fill:none" stroke-dasharray="12, 6, 2, 6" points="1475.1,1405.98 1510.61,1270.46 1546.11,1193.01 1581.62,1131.83 1617.12,1078.39 1652.62,1032.28 1688.13,993.471 1723.63,961.432 1759.13,935.321 1794.64,914.215 1830.14,897.247 1865.65,883.651 1901.15,872.78 1936.65,864.1 1972.16,857.176 2007.66,851.654 2043.16,847.254 2078.67,843.747 2114.17,840.953 2149.67,838.727 2185.18,836.954 2220.68,835.541 2256.19,834.416 2291.69,833.519 2327.19,832.805 "></polyline>
</svg>