<?xml version="1.0" encoding="utf-8"?>
<svg xmlns="http://www.w3.org/2000/svg" xmlns:xlink="http://www.w3.org/1999/xlink" width="600" height="400" viewBox="0 0 2400 1600">
<defs>
  <clipPath id="clip900">
    <rect x="0" y="0" width="2400" height="1600"/>
  </clipPath>
</defs>
<path clip-path="url(#clip900)" d="M0 1600 L2400 1600 L2400 0 L0 0  Z" fill="#ffffff" fill-rule="evenodd" fill-opacity="1"/>
<defs>
  <clipPath id="clip901">
    <rect x="480" y="0" width="1681" height="1600"/>
  </clipPath>
</defs>
<path clip-path="url(#clip900)" d="M203.964 1423.18 L1110.81 1423.18 L1110.81 47.2441 L203.964 47.2441  Z" fill="#ffffff" fill-rule="evenodd" fill-opacity="1"/>
<defs>
  <clipPath id="clip902">
    <rect x="203" y="47" width="908" height="1377"/>
  </clipPath>
</defs>
<polyline clip-path="url(#clip902)" style="stroke:#000000; stroke-linecap:round; stroke-linejoin:round; stroke-width:2; stroke-opacity:0.1; fill:none" points="229.629,1423.18 229.629,47.2441 "/>
<polyline clip-path="url(#clip902)" style="stroke:#000000; stroke-linecap:round; stroke-linejoin:round; stroke-width:2; stroke-opacity:0.1; fill:none" points="481.252,1423.18 481.252,47.2441 "/>
<polyline clip-path="url(#clip902)" style="stroke:#000000; stroke-linecap:round; stroke-linejoin:round; stroke-width:2; stroke-opacity:0.1; fill:none" points="732.874,1423.18 732.874,47.2441 "/>
<polyline clip-path="url(#clip902)" style="stroke:#000000; stroke-linecap:round; stroke-linejoin:round; stroke-width:2; stroke-opacity:0.1; fill:none" points="984.497,1423.18 984.497,47.2441 "/>
<polyline clip-path="url(#clip902)" style="stroke:#000000; stroke-linecap:round; stroke-linejoin:round; stroke-width:2; stroke-opacity:0.1; fill:none" points="203.964,1421.31 1110.81,1421.31 "/>
<polyline clip-path="url(#clip902)" style="stroke:#000000; stroke-linecap:round; stroke-linejoin:round; stroke-width:2; stroke-opacity:0.1; fill:none" points="203.964,964.095 1110.81,964.095 "/>
<polyline clip-path="url(#clip902)" style="stroke:#000000; stroke-linecap:round; stroke-linejoin:round; stroke-width:2; stroke-opacity:0.1; fill:none" points="203.964,506.883 1110.81,506.883 "/>
<polyline clip-path="url(#clip902)" style="stroke:#000000; stroke-linecap:round; stroke-linejoin:round; stroke-width:2; stroke-opacity:0.1; fill:none" points="203.964,49.6709 1110.81,49.6709 "/>
<polyline clip-path="url(#clip900)" style="stroke:#000000; stroke-linecap:round; stroke-linejoin:round; stroke-width:4; stroke-opacity:1; fill:none" points="203.964,1423.18 1110.81,1423.18 "/>
<polyline clip-path="url(#clip900)" style="stroke:#000000; stroke-linecap:round; stroke-linejoin:round; stroke-width:4; stroke-opacity:1; fill:none" points="229.629,1423.18 229.629,1404.28 "/>
<polyline clip-path="url(#clip900)" style="stroke:#000000; stroke-linecap:round; stroke-linejoin:round; stroke-width:4; stroke-opacity:1; fill:none" points="481.252,1423.18 481.252,1404.28 "/>
<polyline clip-path="url(#clip900)" style="stroke:#000000; stroke-linecap:round; stroke-linejoin:round; stroke-width:4; stroke-opacity:1; fill:none" points="732.874,1423.18 732.874,1404.28 "/>
<polyline clip-path="url(#clip900)" style="stroke:#000000; stroke-linecap:round; stroke-linejoin:round; stroke-width:4; stroke-opacity:1; fill:none" points="984.497,1423.18 984.497,1404.28 "/>
<path clip-path="url(#clip900)" d="M229.629 1454.1 Q226.018 1454.1 224.189 1457.66 Q222.384 1461.2 222.384 1468.33 Q222.384 1475.44 224.189 1479.01 Q226.018 1482.55 229.629 1482.55 Q233.263 1482.55 235.069 1479.01 Q236.898 1475.44 236.898 1468.33 Q236.898 1461.2 235.069 1457.66 Q233.263 1454.1 229.629 1454.1 M229.629 1450.39 Q235.439 1450.39 238.495 1455 Q241.573 1459.58 241.573 1468.33 Q241.573 1477.06 238.495 1481.67 Q235.439 1486.25 229.629 1486.25 Q223.819 1486.25 220.74 1481.67 Q217.685 1477.06 217.685 1468.33 Q217.685 1459.58 220.74 1455 Q223.819 1450.39 229.629 1450.39 Z" fill="#000000" fill-rule="nonzero" fill-opacity="1" /><path clip-path="url(#clip900)" d="M471.634 1481.64 L479.273 1481.64 L479.273 1455.28 L470.962 1456.95 L470.962 1452.69 L479.226 1451.02 L483.902 1451.02 L483.902 1481.64 L491.541 1481.64 L491.541 1485.58 L471.634 1485.58 L471.634 1481.64 Z" fill="#000000" fill-rule="nonzero" fill-opacity="1" /><path clip-path="url(#clip900)" d="M727.527 1481.64 L743.847 1481.64 L743.847 1485.58 L721.902 1485.58 L721.902 1481.64 Q724.564 1478.89 729.148 1474.26 Q733.754 1469.61 734.935 1468.27 Q737.18 1465.74 738.06 1464.01 Q738.962 1462.25 738.962 1460.56 Q738.962 1457.8 737.018 1456.07 Q735.097 1454.33 731.995 1454.33 Q729.796 1454.33 727.342 1455.09 Q724.912 1455.86 722.134 1457.41 L722.134 1452.69 Q724.958 1451.55 727.411 1450.97 Q729.865 1450.39 731.902 1450.39 Q737.273 1450.39 740.467 1453.08 Q743.661 1455.77 743.661 1460.26 Q743.661 1462.39 742.851 1464.31 Q742.064 1466.2 739.958 1468.8 Q739.379 1469.47 736.277 1472.69 Q733.175 1475.88 727.527 1481.64 Z" fill="#000000" fill-rule="nonzero" fill-opacity="1" /><path clip-path="url(#clip900)" d="M988.745 1466.95 Q992.101 1467.66 993.976 1469.93 Q995.874 1472.2 995.874 1475.53 Q995.874 1480.65 992.356 1483.45 Q988.837 1486.25 982.356 1486.25 Q980.18 1486.25 977.865 1485.81 Q975.574 1485.39 973.12 1484.54 L973.12 1480.02 Q975.064 1481.16 977.379 1481.74 Q979.694 1482.32 982.217 1482.32 Q986.615 1482.32 988.907 1480.58 Q991.222 1478.84 991.222 1475.53 Q991.222 1472.48 989.069 1470.77 Q986.939 1469.03 983.12 1469.03 L979.092 1469.03 L979.092 1465.19 L983.305 1465.19 Q986.754 1465.19 988.583 1463.82 Q990.411 1462.43 990.411 1459.84 Q990.411 1457.18 988.513 1455.77 Q986.638 1454.33 983.12 1454.33 Q981.199 1454.33 978.999 1454.75 Q976.8 1455.16 974.162 1456.04 L974.162 1451.88 Q976.824 1451.14 979.138 1450.77 Q981.476 1450.39 983.536 1450.39 Q988.861 1450.39 991.962 1452.83 Q995.064 1455.23 995.064 1459.35 Q995.064 1462.22 993.421 1464.21 Q991.777 1466.18 988.745 1466.95 Z" fill="#000000" fill-rule="nonzero" fill-opacity="1" /><path clip-path="url(#clip900)" d="M527.559 1520.52 L567.758 1520.52 L567.758 1525.93 L550.889 1525.93 L550.889 1568.04 L544.428 1568.04 L544.428 1525.93 L527.559 1525.93 L527.559 1520.52 Z" fill="#000000" fill-rule="nonzero" fill-opacity="1" /><path clip-path="url(#clip900)" d="M571.705 1532.4 L577.562 1532.4 L577.562 1568.04 L571.705 1568.04 L571.705 1532.4 M571.705 1518.52 L577.562 1518.52 L577.562 1525.93 L571.705 1525.93 L571.705 1518.52 Z" fill="#000000" fill-rule="nonzero" fill-opacity="1" /><path clip-path="url(#clip900)" d="M617.57 1539.24 Q619.766 1535.29 622.822 1533.41 Q625.877 1531.54 630.015 1531.54 Q635.585 1531.54 638.609 1535.45 Q641.633 1539.33 641.633 1546.53 L641.633 1568.04 L635.744 1568.04 L635.744 1546.72 Q635.744 1541.59 633.93 1539.11 Q632.116 1536.63 628.392 1536.63 Q623.84 1536.63 621.199 1539.65 Q618.557 1542.68 618.557 1547.9 L618.557 1568.04 L612.669 1568.04 L612.669 1546.72 Q612.669 1541.56 610.854 1539.11 Q609.04 1536.63 605.252 1536.63 Q600.765 1536.63 598.123 1539.68 Q595.481 1542.71 595.481 1547.9 L595.481 1568.04 L589.593 1568.04 L589.593 1532.4 L595.481 1532.4 L595.481 1537.93 Q597.486 1534.66 600.287 1533.1 Q603.088 1531.54 606.939 1531.54 Q610.822 1531.54 613.528 1533.51 Q616.265 1535.48 617.57 1539.24 Z" fill="#000000" fill-rule="nonzero" fill-opacity="1" /><path clip-path="url(#clip900)" d="M683.805 1548.76 L683.805 1551.62 L656.878 1551.62 Q657.26 1557.67 660.507 1560.85 Q663.785 1564 669.61 1564 Q672.984 1564 676.135 1563.17 Q679.317 1562.35 682.437 1560.69 L682.437 1566.23 Q679.286 1567.57 675.975 1568.27 Q672.665 1568.97 669.26 1568.97 Q660.73 1568.97 655.733 1564 Q650.767 1559.04 650.767 1550.57 Q650.767 1541.82 655.478 1536.69 Q660.22 1531.54 668.241 1531.54 Q675.434 1531.54 679.604 1536.18 Q683.805 1540.8 683.805 1548.76 M677.949 1547.04 Q677.885 1542.23 675.243 1539.37 Q672.633 1536.5 668.305 1536.5 Q663.403 1536.5 660.443 1539.27 Q657.515 1542.04 657.069 1547.07 L677.949 1547.04 Z" fill="#000000" fill-rule="nonzero" fill-opacity="1" /><path clip-path="url(#clip900)" d="M728.206 1518.58 Q723.941 1525.9 721.872 1533.06 Q719.803 1540.23 719.803 1547.58 Q719.803 1554.93 721.872 1562.16 Q723.973 1569.35 728.206 1576.64 L723.114 1576.64 Q718.339 1569.16 715.952 1561.93 Q713.597 1554.71 713.597 1547.58 Q713.597 1540.48 715.952 1533.29 Q718.307 1526.09 723.114 1518.58 L728.206 1518.58 Z" fill="#000000" fill-rule="nonzero" fill-opacity="1" /><path clip-path="url(#clip900)" d="M762.294 1533.45 L762.294 1538.98 Q759.812 1537.71 757.138 1537.07 Q754.465 1536.44 751.6 1536.44 Q747.24 1536.44 745.043 1537.77 Q742.879 1539.11 742.879 1541.79 Q742.879 1543.82 744.439 1545 Q745.998 1546.15 750.709 1547.2 L752.714 1547.64 Q758.952 1548.98 761.562 1551.43 Q764.204 1553.85 764.204 1558.21 Q764.204 1563.17 760.257 1566.07 Q756.343 1568.97 749.468 1568.97 Q746.603 1568.97 743.484 1568.39 Q740.396 1567.85 736.959 1566.74 L736.959 1560.69 Q740.205 1562.38 743.356 1563.24 Q746.508 1564.07 749.595 1564.07 Q753.733 1564.07 755.961 1562.66 Q758.189 1561.23 758.189 1558.65 Q758.189 1556.27 756.565 1554.99 Q754.974 1553.72 749.531 1552.54 L747.494 1552.07 Q742.052 1550.92 739.633 1548.56 Q737.214 1546.18 737.214 1542.04 Q737.214 1537.01 740.778 1534.27 Q744.343 1531.54 750.9 1531.54 Q754.146 1531.54 757.011 1532.01 Q759.876 1532.49 762.294 1533.45 Z" fill="#000000" fill-rule="nonzero" fill-opacity="1" /><path clip-path="url(#clip900)" d="M772.607 1518.58 L777.699 1518.58 Q782.474 1526.09 784.829 1533.29 Q787.216 1540.48 787.216 1547.58 Q787.216 1554.71 784.829 1561.93 Q782.474 1569.16 777.699 1576.64 L772.607 1576.64 Q776.84 1569.35 778.909 1562.16 Q781.01 1554.93 781.01 1547.58 Q781.01 1540.23 778.909 1533.06 Q776.84 1525.9 772.607 1518.58 Z" fill="#000000" fill-rule="nonzero" fill-opacity="1" /><polyline clip-path="url(#clip900)" style="stroke:#000000; stroke-linecap:round; stroke-linejoin:round; stroke-width:4; stroke-opacity:1; fill:none" points="203.964,1423.18 203.964,47.2441 "/>
<polyline clip-path="url(#clip900)" style="stroke:#000000; stroke-linecap:round; stroke-linejoin:round; stroke-width:4; stroke-opacity:1; fill:none" points="203.964,1421.31 222.861,1421.31 "/>
<polyline clip-path="url(#clip900)" style="stroke:#000000; stroke-linecap:round; stroke-linejoin:round; stroke-width:4; stroke-opacity:1; fill:none" points="203.964,964.095 222.861,964.095 "/>
<polyline clip-path="url(#clip900)" style="stroke:#000000; stroke-linecap:round; stroke-linejoin:round; stroke-width:4; stroke-opacity:1; fill:none" points="203.964,506.883 222.861,506.883 "/>
<polyline clip-path="url(#clip900)" style="stroke:#000000; stroke-linecap:round; stroke-linejoin:round; stroke-width:4; stroke-opacity:1; fill:none" points="203.964,49.6709 222.861,49.6709 "/>
<path clip-path="url(#clip900)" d="M156.019 1407.11 Q152.408 1407.11 150.579 1410.67 Q148.774 1414.21 148.774 1421.34 Q148.774 1428.45 150.579 1432.01 Q152.408 1435.56 156.019 1435.56 Q159.653 1435.56 161.459 1432.01 Q163.288 1428.45 163.288 1421.34 Q163.288 1414.21 161.459 1410.67 Q159.653 1407.11 156.019 1407.11 M156.019 1403.4 Q161.829 1403.4 164.885 1408.01 Q167.964 1412.59 167.964 1421.34 Q167.964 1430.07 164.885 1434.68 Q161.829 1439.26 156.019 1439.26 Q150.209 1439.26 147.13 1434.68 Q144.075 1430.07 144.075 1421.34 Q144.075 1412.59 147.13 1408.01 Q150.209 1403.4 156.019 1403.4 Z" fill="#000000" fill-rule="nonzero" fill-opacity="1" /><path clip-path="url(#clip900)" d="M116.668 977.44 L124.306 977.44 L124.306 951.075 L115.996 952.741 L115.996 948.482 L124.26 946.815 L128.936 946.815 L128.936 977.44 L136.575 977.44 L136.575 981.375 L116.668 981.375 L116.668 977.44 Z" fill="#000000" fill-rule="nonzero" fill-opacity="1" /><path clip-path="url(#clip900)" d="M156.019 949.894 Q152.408 949.894 150.579 953.459 Q148.774 957 148.774 964.13 Q148.774 971.237 150.579 974.801 Q152.408 978.343 156.019 978.343 Q159.653 978.343 161.459 974.801 Q163.288 971.237 163.288 964.13 Q163.288 957 161.459 953.459 Q159.653 949.894 156.019 949.894 M156.019 946.19 Q161.829 946.19 164.885 950.797 Q167.964 955.38 167.964 964.13 Q167.964 972.857 164.885 977.463 Q161.829 982.047 156.019 982.047 Q150.209 982.047 147.13 977.463 Q144.075 972.857 144.075 964.13 Q144.075 955.38 147.13 950.797 Q150.209 946.19 156.019 946.19 Z" fill="#000000" fill-rule="nonzero" fill-opacity="1" /><path clip-path="url(#clip900)" d="M119.885 520.228 L136.204 520.228 L136.204 524.163 L114.26 524.163 L114.26 520.228 Q116.922 517.473 121.505 512.844 Q126.112 508.191 127.292 506.848 Q129.538 504.325 130.417 502.589 Q131.32 500.83 131.32 499.14 Q131.32 496.385 129.376 494.649 Q127.455 492.913 124.353 492.913 Q122.154 492.913 119.7 493.677 Q117.269 494.441 114.492 495.992 L114.492 491.27 Q117.316 490.136 119.769 489.557 Q122.223 488.978 124.26 488.978 Q129.63 488.978 132.825 491.663 Q136.019 494.348 136.019 498.839 Q136.019 500.969 135.209 502.89 Q134.422 504.788 132.316 507.381 Q131.737 508.052 128.635 511.27 Q125.533 514.464 119.885 520.228 Z" fill="#000000" fill-rule="nonzero" fill-opacity="1" /><path clip-path="url(#clip900)" d="M156.019 492.682 Q152.408 492.682 150.579 496.247 Q148.774 499.788 148.774 506.918 Q148.774 514.024 150.579 517.589 Q152.408 521.131 156.019 521.131 Q159.653 521.131 161.459 517.589 Q163.288 514.024 163.288 506.918 Q163.288 499.788 161.459 496.247 Q159.653 492.682 156.019 492.682 M156.019 488.978 Q161.829 488.978 164.885 493.585 Q167.964 498.168 167.964 506.918 Q167.964 515.645 164.885 520.251 Q161.829 524.834 156.019 524.834 Q150.209 524.834 147.13 520.251 Q144.075 515.645 144.075 506.918 Q144.075 498.168 147.13 493.585 Q150.209 488.978 156.019 488.978 Z" fill="#000000" fill-rule="nonzero" fill-opacity="1" /><path clip-path="url(#clip900)" d="M130.024 48.3167 Q133.38 49.0343 135.255 51.3028 Q137.154 53.5713 137.154 56.9046 Q137.154 62.0204 133.635 64.8213 Q130.117 67.6222 123.635 67.6222 Q121.459 67.6222 119.144 67.1824 Q116.853 66.7657 114.399 65.9092 L114.399 61.3954 Q116.343 62.5296 118.658 63.1083 Q120.973 63.687 123.496 63.687 Q127.894 63.687 130.186 61.9509 Q132.501 60.2148 132.501 56.9046 Q132.501 53.8491 130.348 52.1362 Q128.218 50.4001 124.399 50.4001 L120.371 50.4001 L120.371 46.5575 L124.584 46.5575 Q128.033 46.5575 129.862 45.1917 Q131.691 43.8029 131.691 41.2103 Q131.691 38.5483 129.792 37.1362 Q127.917 35.7011 124.399 35.7011 Q122.478 35.7011 120.279 36.1177 Q118.08 36.5344 115.441 37.414 L115.441 33.2474 Q118.103 32.5066 120.418 32.1363 Q122.755 31.7659 124.816 31.7659 Q130.14 31.7659 133.242 34.1964 Q136.343 36.6038 136.343 40.7242 Q136.343 43.5945 134.7 45.5853 Q133.056 47.5528 130.024 48.3167 Z" fill="#000000" fill-rule="nonzero" fill-opacity="1" /><path clip-path="url(#clip900)" d="M156.019 35.4696 Q152.408 35.4696 150.579 39.0344 Q148.774 42.576 148.774 49.7056 Q148.774 56.8121 150.579 60.3768 Q152.408 63.9185 156.019 63.9185 Q159.653 63.9185 161.459 60.3768 Q163.288 56.8121 163.288 49.7056 Q163.288 42.576 161.459 39.0344 Q159.653 35.4696 156.019 35.4696 M156.019 31.7659 Q161.829 31.7659 164.885 36.3723 Q167.964 40.9557 167.964 49.7056 Q167.964 58.4324 164.885 63.0389 Q161.829 67.6222 156.019 67.6222 Q150.209 67.6222 147.13 63.0389 Q144.075 58.4324 144.075 49.7056 Q144.075 40.9557 147.13 36.3723 Q150.209 31.7659 156.019 31.7659 Z" fill="#000000" fill-rule="nonzero" fill-opacity="1" /><path clip-path="url(#clip900)" d="M39.4334 772.564 Q44.844 772.564 50.9309 774.303 Q56.9856 776.01 61.8809 778.715 Q66.744 781.42 69.9646 784.963 Q73.153 788.505 73.153 791.887 Q73.153 794.045 71.9613 795.655 Q70.7375 797.233 68.7085 798.103 Q66.6474 798.972 64.393 799.391 Q62.1063 799.81 59.6265 799.81 Q55.9228 799.81 51.8971 799.005 Q47.8391 798.199 44.1677 796.847 Q40.464 795.494 37.1146 793.594 Q33.733 791.694 31.2853 789.6 Q28.8055 787.475 27.3562 785.092 Q25.907 782.708 25.907 780.486 Q25.907 778.876 26.6155 777.588 Q27.2918 776.267 28.4834 775.43 Q29.6428 774.593 31.0277 774.013 Q32.4125 773.401 34.0228 773.111 Q35.6009 772.821 36.9214 772.692 Q38.2096 772.564 39.4334 772.564 M35.3433 776.911 Q33.7008 776.911 32.477 777.04 Q31.2209 777.169 29.9649 777.523 Q28.7089 777.878 28.0325 778.65 Q27.3562 779.391 27.3562 780.551 Q27.3562 783.932 34.2805 787.733 Q36.4383 788.956 39.369 790.051 Q42.2997 791.146 43.6846 791.533 Q45.0694 791.919 48.4833 792.821 L48.4833 779.037 Q39.6911 776.911 35.3433 776.911 M50.5766 779.617 L50.5766 793.336 Q58.6281 795.462 63.6522 795.462 Q68.0322 795.462 69.868 794.56 Q71.6715 793.626 71.6715 791.887 Q71.6715 789.89 69.6747 788.022 Q67.6458 786.154 63.9743 784.254 Q59.2078 781.742 50.5766 779.617 Z" fill="#000000" fill-rule="nonzero" fill-opacity="1" /><path clip-path="url(#clip900)" d="M22.9507 728.256 Q30.2712 732.521 37.4327 734.59 Q44.5941 736.658 51.9465 736.658 Q59.2989 736.658 66.5239 734.59 Q73.7172 732.489 81.0059 728.256 L81.0059 733.348 Q73.5262 738.123 66.3011 740.51 Q59.0761 742.865 51.9465 742.865 Q44.8487 742.865 37.6555 740.51 Q30.4622 738.154 22.9507 733.348 L22.9507 728.256 Z" fill="#000000" fill-rule="nonzero" fill-opacity="1" /><path clip-path="url(#clip900)" d="M28.1387 706.74 Q28.1387 709.286 29.9211 711.036 Q31.6717 712.787 34.218 712.787 Q36.7324 712.787 38.483 711.036 Q40.2017 709.286 40.2017 706.74 Q40.2017 704.193 38.483 702.443 Q36.7324 700.692 34.218 700.692 Q31.7035 700.692 29.9211 702.475 Q28.1387 704.225 28.1387 706.74 M24.0328 706.74 Q24.0328 704.703 24.8286 702.825 Q25.5924 700.947 27.0566 699.578 Q28.4888 698.114 30.3031 697.382 Q32.1173 696.65 34.218 696.65 Q38.4193 696.65 41.3476 699.61 Q44.244 702.538 44.244 706.803 Q44.244 711.1 41.3794 713.965 Q38.5148 716.829 34.218 716.829 Q29.953 716.829 26.9929 713.901 Q24.0328 710.973 24.0328 706.74 Z" fill="#000000" fill-rule="nonzero" fill-opacity="1" /><path clip-path="url(#clip900)" d="M22.9507 685.224 L22.9507 680.131 Q30.4622 675.357 37.6555 673.001 Q44.8487 670.614 51.9465 670.614 Q59.0761 670.614 66.3011 673.001 Q73.5262 675.357 81.0059 680.131 L81.0059 685.224 Q73.7172 680.99 66.5239 678.921 Q59.2989 676.821 51.9465 676.821 Q44.5941 676.821 37.4327 678.921 Q30.2712 680.99 22.9507 685.224 Z" fill="#000000" fill-rule="nonzero" fill-opacity="1" /><polyline clip-path="url(#clip902)" style="stroke:#009af9; stroke-linecap:round; stroke-linejoin:round; stroke-width:4; stroke-opacity:1; fill:none" points="229.629,1383.11 254.791,1327.89 279.954,1081.79 305.116,792.364 330.278,471.912 355.44,276.002 380.603,186.591 405.765,127.99 430.927,86.1857 456.089,113.625 481.252,136.242 506.414,190.314 531.576,242.716 556.739,292.558 581.901,264.715 607.063,280.3 632.225,295.725 657.388,286.507 682.55,273 707.712,293.318 732.874,276.005 758.037,233.701 783.199,279.795 808.361,292.946 833.524,259.38 858.686,260.565 883.848,262.801 909.01,272.07 934.173,272.234 959.335,269.135 984.497,271.324 1009.66,295.974 1034.82,210.528 1059.98,311.106 1085.15,236.609 "/>
<polyline clip-path="url(#clip902)" style="stroke:#e26f46; stroke-linecap:round; stroke-linejoin:round; stroke-width:3; stroke-opacity:1; fill:none" stroke-dasharray="12, 6, 2, 6" points="229.629,1384.24 254.791,1314.77 279.954,1081.3 305.116,793.015 330.278,480.526 355.44,273.602 380.603,179.568 405.765,130.861 430.927,97.6357 456.089,118.001 481.252,143.999 506.414,192.794 531.576,244.092 556.739,292.352 581.901,276.831 607.063,280.992 632.225,293.362 657.388,288.342 682.55,275.418 707.712,288.618 732.874,278.618 758.037,241.778 783.199,270.291 808.361,289.856 833.524,266.893 858.686,260.941 883.848,261.965 909.01,270.231 934.173,272.512 959.335,270.175 984.497,271.082 1009.66,291.146 1034.82,227.246 1059.98,291.573 1085.15,250.184 "/>
<path clip-path="url(#clip900)" d="M961.069 1377.32 L1080.58 1377.32 L1080.58 1221.8 L961.069 1221.8  Z" fill="#ffffff" fill-rule="evenodd" fill-opacity="1"/>
<polyline clip-path="url(#clip900)" style="stroke:#000000; stroke-linecap:round; stroke-linejoin:round; stroke-width:4; stroke-opacity:1; fill:none" points="961.069,1377.32 1080.58,1377.32 1080.58,1221.8 961.069,1221.8 961.069,1377.32 "/>
<polyline clip-path="url(#clip900)" style="stroke:#009af9; stroke-linecap:round; stroke-linejoin:round; stroke-width:4; stroke-opacity:1; fill:none" points="971.145,1273.64 1031.6,1273.64 "/>
<path clip-path="url(#clip900)" d="M1068.45 1260.37 Q1066.97 1260.37 1066.22 1260.51 Q1065.48 1260.63 1065.29 1260.8 Q1065.1 1260.96 1064.89 1261.38 L1054.58 1283.3 Q1053.48 1285.65 1051.42 1287.33 Q1049.38 1289.02 1046.81 1289.02 Q1044.65 1289.02 1043.15 1287.71 Q1041.68 1286.42 1041.68 1284.59 Q1041.68 1283.28 1042.5 1282.53 Q1043.32 1281.81 1044.42 1281.81 Q1045.64 1281.81 1046.41 1282.58 Q1047.21 1283.35 1047.21 1284.55 Q1047.21 1285.32 1046.88 1285.9 Q1046.55 1286.51 1046.25 1286.72 Q1045.96 1286.96 1045.66 1287.1 Q1046.15 1287.29 1046.81 1287.29 Q1047.79 1287.29 1048.63 1286.89 Q1049.5 1286.51 1050.06 1286 Q1050.65 1285.51 1051.23 1284.62 Q1051.82 1283.75 1052.1 1283.19 Q1052.38 1282.65 1052.8 1281.71 L1053.9 1279.42 L1044.93 1260.37 L1041.87 1260.37 L1041.87 1258.13 L1047.35 1258.27 L1053.3 1258.13 L1053.3 1260.37 L1050.7 1260.37 L1056.79 1273.33 L1062.31 1261.52 L1062.55 1260.96 Q1062.55 1260.7 1061.99 1260.56 Q1061.42 1260.4 1060.86 1260.4 L1060.3 1260.37 L1060.3 1258.13 L1064.66 1258.27 Q1066.72 1258.27 1068.45 1258.13 L1068.45 1260.37 Z" fill="#000000" fill-rule="nonzero" fill-opacity="1" /><polyline clip-path="url(#clip900)" style="stroke:#e26f46; stroke-linecap:round; stroke-linejoin:round; stroke-width:3; stroke-opacity:1; fill:none" stroke-dasharray="12, 6, 2, 6" points="971.145,1325.48 1031.6,1325.48 "/>
<path clip-path="url(#clip900)" d="M1064.26 1309.2 L1063.85 1309.87 Q1061.31 1308.77 1058.15 1307.01 Q1054.98 1308.77 1052.44 1309.87 L1052.05 1309.2 Q1054.82 1306.79 1058.15 1304.93 Q1061.51 1306.8 1064.26 1309.2 Z" fill="#000000" fill-rule="nonzero" fill-opacity="1" /><path clip-path="url(#clip900)" d="M1068.45 1317.22 Q1066.97 1317.22 1066.22 1317.36 Q1065.48 1317.48 1065.29 1317.64 Q1065.1 1317.8 1064.89 1318.23 L1054.58 1340.15 Q1053.48 1342.49 1051.42 1344.18 Q1049.38 1345.86 1046.81 1345.86 Q1044.65 1345.86 1043.15 1344.55 Q1041.68 1343.26 1041.68 1341.44 Q1041.68 1340.13 1042.5 1339.38 Q1043.32 1338.65 1044.42 1338.65 Q1045.64 1338.65 1046.41 1339.42 Q1047.21 1340.2 1047.21 1341.39 Q1047.21 1342.16 1046.88 1342.75 Q1046.55 1343.36 1046.25 1343.57 Q1045.96 1343.8 1045.66 1343.94 Q1046.15 1344.13 1046.81 1344.13 Q1047.79 1344.13 1048.63 1343.73 Q1049.5 1343.36 1050.06 1342.84 Q1050.65 1342.35 1051.23 1341.46 Q1051.82 1340.59 1052.1 1340.03 Q1052.38 1339.49 1052.8 1338.56 L1053.9 1336.26 L1044.93 1317.22 L1041.87 1317.22 L1041.87 1314.97 L1047.35 1315.11 L1053.3 1314.97 L1053.3 1317.22 L1050.7 1317.22 L1056.79 1330.17 L1062.31 1318.37 L1062.55 1317.8 Q1062.55 1317.55 1061.99 1317.41 Q1061.42 1317.24 1060.86 1317.24 L1060.3 1317.22 L1060.3 1314.97 L1064.66 1315.11 Q1066.72 1315.11 1068.45 1314.97 L1068.45 1317.22 Z" fill="#000000" fill-rule="nonzero" fill-opacity="1" /><path clip-path="url(#clip900)" d="M1445.91 398.692 L2352.76 398.692 L2352.76 47.2441 L1445.91 47.2441  Z" fill="#ffffff" fill-rule="evenodd" fill-opacity="1"/>
<defs>
  <clipPath id="clip903">
    <rect x="1445" y="47" width="908" height="352"/>
  </clipPath>
</defs>
<polyline clip-path="url(#clip903)" style="stroke:#000000; stroke-linecap:round; stroke-linejoin:round; stroke-width:2; stroke-opacity:0.1; fill:none" points="1471.57,398.692 1471.57,47.2441 "/>
<polyline clip-path="url(#clip903)" style="stroke:#000000; stroke-linecap:round; stroke-linejoin:round; stroke-width:2; stroke-opacity:0.1; fill:none" points="1723.2,398.692 1723.2,47.2441 "/>
<polyline clip-path="url(#clip903)" style="stroke:#000000; stroke-linecap:round; stroke-linejoin:round; stroke-width:2; stroke-opacity:0.1; fill:none" points="1974.82,398.692 1974.82,47.2441 "/>
<polyline clip-path="url(#clip903)" style="stroke:#000000; stroke-linecap:round; stroke-linejoin:round; stroke-width:2; stroke-opacity:0.1; fill:none" points="2226.44,398.692 2226.44,47.2441 "/>
<polyline clip-path="url(#clip903)" style="stroke:#000000; stroke-linecap:round; stroke-linejoin:round; stroke-width:2; stroke-opacity:0.1; fill:none" points="1445.91,388.745 2352.76,388.745 "/>
<polyline clip-path="url(#clip903)" style="stroke:#000000; stroke-linecap:round; stroke-linejoin:round; stroke-width:2; stroke-opacity:0.1; fill:none" points="1445.91,323.128 2352.76,323.128 "/>
<polyline clip-path="url(#clip903)" style="stroke:#000000; stroke-linecap:round; stroke-linejoin:round; stroke-width:2; stroke-opacity:0.1; fill:none" points="1445.91,257.512 2352.76,257.512 "/>
<polyline clip-path="url(#clip903)" style="stroke:#000000; stroke-linecap:round; stroke-linejoin:round; stroke-width:2; stroke-opacity:0.1; fill:none" points="1445.91,191.895 2352.76,191.895 "/>
<polyline clip-path="url(#clip903)" style="stroke:#000000; stroke-linecap:round; stroke-linejoin:round; stroke-width:2; stroke-opacity:0.1; fill:none" points="1445.91,126.278 2352.76,126.278 "/>
<polyline clip-path="url(#clip903)" style="stroke:#000000; stroke-linecap:round; stroke-linejoin:round; stroke-width:2; stroke-opacity:0.1; fill:none" points="1445.91,60.6612 2352.76,60.6612 "/>
<polyline clip-path="url(#clip900)" style="stroke:#000000; stroke-linecap:round; stroke-linejoin:round; stroke-width:4; stroke-opacity:1; fill:none" points="1445.91,398.692 2352.76,398.692 "/>
<polyline clip-path="url(#clip900)" style="stroke:#000000; stroke-linecap:round; stroke-linejoin:round; stroke-width:4; stroke-opacity:1; fill:none" points="1471.57,398.692 1471.57,379.794 "/>
<polyline clip-path="url(#clip900)" style="stroke:#000000; stroke-linecap:round; stroke-linejoin:round; stroke-width:4; stroke-opacity:1; fill:none" points="1723.2,398.692 1723.2,379.794 "/>
<polyline clip-path="url(#clip900)" style="stroke:#000000; stroke-linecap:round; stroke-linejoin:round; stroke-width:4; stroke-opacity:1; fill:none" points="1974.82,398.692 1974.82,379.794 "/>
<polyline clip-path="url(#clip900)" style="stroke:#000000; stroke-linecap:round; stroke-linejoin:round; stroke-width:4; stroke-opacity:1; fill:none" points="2226.44,398.692 2226.44,379.794 "/>
<path clip-path="url(#clip900)" d="M1471.57 429.611 Q1467.96 429.611 1466.13 433.175 Q1464.33 436.717 1464.33 443.847 Q1464.33 450.953 1466.13 454.518 Q1467.96 458.059 1471.57 458.059 Q1475.21 458.059 1477.01 454.518 Q1478.84 450.953 1478.84 443.847 Q1478.84 436.717 1477.01 433.175 Q1475.21 429.611 1471.57 429.611 M1471.57 425.907 Q1477.38 425.907 1480.44 430.513 Q1483.52 435.097 1483.52 443.847 Q1483.52 452.573 1480.44 457.18 Q1477.38 461.763 1471.57 461.763 Q1465.76 461.763 1462.68 457.18 Q1459.63 452.573 1459.63 443.847 Q1459.63 435.097 1462.68 430.513 Q1465.76 425.907 1471.57 425.907 Z" fill="#000000" fill-rule="nonzero" fill-opacity="1" /><path clip-path="url(#clip900)" d="M1713.58 457.157 L1721.22 457.157 L1721.22 430.791 L1712.91 432.458 L1712.91 428.199 L1721.17 426.532 L1725.85 426.532 L1725.85 457.157 L1733.49 457.157 L1733.49 461.092 L1713.58 461.092 L1713.58 457.157 Z" fill="#000000" fill-rule="nonzero" fill-opacity="1" /><path clip-path="url(#clip900)" d="M1969.47 457.157 L1985.79 457.157 L1985.79 461.092 L1963.85 461.092 L1963.85 457.157 Q1966.51 454.402 1971.09 449.772 Q1975.7 445.12 1976.88 443.777 Q1979.12 441.254 1980 439.518 Q1980.91 437.759 1980.91 436.069 Q1980.91 433.314 1978.96 431.578 Q1977.04 429.842 1973.94 429.842 Q1971.74 429.842 1969.29 430.606 Q1966.86 431.37 1964.08 432.921 L1964.08 428.199 Q1966.9 427.064 1969.36 426.486 Q1971.81 425.907 1973.85 425.907 Q1979.22 425.907 1982.41 428.592 Q1985.61 431.277 1985.61 435.768 Q1985.61 437.898 1984.8 439.819 Q1984.01 441.717 1981.9 444.31 Q1981.32 444.981 1978.22 448.198 Q1975.12 451.393 1969.47 457.157 Z" fill="#000000" fill-rule="nonzero" fill-opacity="1" /><path clip-path="url(#clip900)" d="M2230.69 442.458 Q2234.05 443.175 2235.92 445.444 Q2237.82 447.712 2237.82 451.046 Q2237.82 456.161 2234.3 458.962 Q2230.78 461.763 2224.3 461.763 Q2222.12 461.763 2219.81 461.323 Q2217.52 460.907 2215.06 460.05 L2215.06 455.536 Q2217.01 456.671 2219.32 457.249 Q2221.64 457.828 2224.16 457.828 Q2228.56 457.828 2230.85 456.092 Q2233.17 454.356 2233.17 451.046 Q2233.17 447.99 2231.01 446.277 Q2228.88 444.541 2225.06 444.541 L2221.04 444.541 L2221.04 440.698 L2225.25 440.698 Q2228.7 440.698 2230.53 439.333 Q2232.36 437.944 2232.36 435.351 Q2232.36 432.689 2230.46 431.277 Q2228.58 429.842 2225.06 429.842 Q2223.14 429.842 2220.94 430.259 Q2218.74 430.675 2216.11 431.555 L2216.11 427.388 Q2218.77 426.648 2221.08 426.277 Q2223.42 425.907 2225.48 425.907 Q2230.8 425.907 2233.91 428.337 Q2237.01 430.745 2237.01 434.865 Q2237.01 437.736 2235.36 439.726 Q2233.72 441.694 2230.69 442.458 Z" fill="#000000" fill-rule="nonzero" fill-opacity="1" /><polyline clip-path="url(#clip900)" style="stroke:#000000; stroke-linecap:round; stroke-linejoin:round; stroke-width:4; stroke-opacity:1; fill:none" points="1445.91,398.692 1445.91,47.2441 "/>
<polyline clip-path="url(#clip900)" style="stroke:#000000; stroke-linecap:round; stroke-linejoin:round; stroke-width:4; stroke-opacity:1; fill:none" points="1445.91,388.745 1464.81,388.745 "/>
<polyline clip-path="url(#clip900)" style="stroke:#000000; stroke-linecap:round; stroke-linejoin:round; stroke-width:4; stroke-opacity:1; fill:none" points="1445.91,323.128 1464.81,323.128 "/>
<polyline clip-path="url(#clip900)" style="stroke:#000000; stroke-linecap:round; stroke-linejoin:round; stroke-width:4; stroke-opacity:1; fill:none" points="1445.91,257.512 1464.81,257.512 "/>
<polyline clip-path="url(#clip900)" style="stroke:#000000; stroke-linecap:round; stroke-linejoin:round; stroke-width:4; stroke-opacity:1; fill:none" points="1445.91,191.895 1464.81,191.895 "/>
<polyline clip-path="url(#clip900)" style="stroke:#000000; stroke-linecap:round; stroke-linejoin:round; stroke-width:4; stroke-opacity:1; fill:none" points="1445.91,126.278 1464.81,126.278 "/>
<polyline clip-path="url(#clip900)" style="stroke:#000000; stroke-linecap:round; stroke-linejoin:round; stroke-width:4; stroke-opacity:1; fill:none" points="1445.91,60.6612 1464.81,60.6612 "/>
<path clip-path="url(#clip900)" d="M1352.73 374.544 Q1349.12 374.544 1347.29 378.109 Q1345.49 381.65 1345.49 388.78 Q1345.49 395.886 1347.29 399.451 Q1349.12 402.993 1352.73 402.993 Q1356.37 402.993 1358.17 399.451 Q1360 395.886 1360 388.78 Q1360 381.65 1358.17 378.109 Q1356.37 374.544 1352.73 374.544 M1352.73 370.84 Q1358.54 370.84 1361.6 375.447 Q1364.68 380.03 1364.68 388.78 Q1364.68 397.507 1361.6 402.113 Q1358.54 406.697 1352.73 406.697 Q1346.92 406.697 1343.84 402.113 Q1340.79 397.507 1340.79 388.78 Q1340.79 380.03 1343.84 375.447 Q1346.92 370.84 1352.73 370.84 Z" fill="#000000" fill-rule="nonzero" fill-opacity="1" /><path clip-path="url(#clip900)" d="M1372.89 400.146 L1377.78 400.146 L1377.78 406.025 L1372.89 406.025 L1372.89 400.146 Z" fill="#000000" fill-rule="nonzero" fill-opacity="1" /><path clip-path="url(#clip900)" d="M1397.96 374.544 Q1394.35 374.544 1392.52 378.109 Q1390.72 381.65 1390.72 388.78 Q1390.72 395.886 1392.52 399.451 Q1394.35 402.993 1397.96 402.993 Q1401.6 402.993 1403.4 399.451 Q1405.23 395.886 1405.23 388.78 Q1405.23 381.65 1403.4 378.109 Q1401.6 374.544 1397.96 374.544 M1397.96 370.84 Q1403.77 370.84 1406.83 375.447 Q1409.91 380.03 1409.91 388.78 Q1409.91 397.507 1406.83 402.113 Q1403.77 406.697 1397.96 406.697 Q1392.15 406.697 1389.07 402.113 Q1386.02 397.507 1386.02 388.78 Q1386.02 380.03 1389.07 375.447 Q1392.15 370.84 1397.96 370.84 Z" fill="#000000" fill-rule="nonzero" fill-opacity="1" /><path clip-path="url(#clip900)" d="M1353.96 308.927 Q1350.35 308.927 1348.52 312.492 Q1346.71 316.034 1346.71 323.163 Q1346.71 330.27 1348.52 333.834 Q1350.35 337.376 1353.96 337.376 Q1357.59 337.376 1359.4 333.834 Q1361.23 330.27 1361.23 323.163 Q1361.23 316.034 1359.4 312.492 Q1357.59 308.927 1353.96 308.927 M1353.96 305.223 Q1359.77 305.223 1362.82 309.83 Q1365.9 314.413 1365.9 323.163 Q1365.9 331.89 1362.82 336.496 Q1359.77 341.08 1353.96 341.08 Q1348.15 341.08 1345.07 336.496 Q1342.01 331.89 1342.01 323.163 Q1342.01 314.413 1345.07 309.83 Q1348.15 305.223 1353.96 305.223 Z" fill="#000000" fill-rule="nonzero" fill-opacity="1" /><path clip-path="url(#clip900)" d="M1374.12 334.529 L1379.01 334.529 L1379.01 340.408 L1374.12 340.408 L1374.12 334.529 Z" fill="#000000" fill-rule="nonzero" fill-opacity="1" /><path clip-path="url(#clip900)" d="M1390 336.473 L1397.64 336.473 L1397.64 310.108 L1389.33 311.774 L1389.33 307.515 L1397.59 305.848 L1402.27 305.848 L1402.27 336.473 L1409.91 336.473 L1409.91 340.408 L1390 340.408 L1390 336.473 Z" fill="#000000" fill-rule="nonzero" fill-opacity="1" /><path clip-path="url(#clip900)" d="M1354.33 243.31 Q1350.72 243.31 1348.89 246.875 Q1347.08 250.417 1347.08 257.546 Q1347.08 264.653 1348.89 268.218 Q1350.72 271.759 1354.33 271.759 Q1357.96 271.759 1359.77 268.218 Q1361.6 264.653 1361.6 257.546 Q1361.6 250.417 1359.77 246.875 Q1357.96 243.31 1354.33 243.31 M1354.33 239.607 Q1360.14 239.607 1363.2 244.213 Q1366.27 248.796 1366.27 257.546 Q1366.27 266.273 1363.2 270.88 Q1360.14 275.463 1354.33 275.463 Q1348.52 275.463 1345.44 270.88 Q1342.39 266.273 1342.39 257.546 Q1342.39 248.796 1345.44 244.213 Q1348.52 239.607 1354.33 239.607 Z" fill="#000000" fill-rule="nonzero" fill-opacity="1" /><path clip-path="url(#clip900)" d="M1374.49 268.912 L1379.38 268.912 L1379.38 274.792 L1374.49 274.792 L1374.49 268.912 Z" fill="#000000" fill-rule="nonzero" fill-opacity="1" /><path clip-path="url(#clip900)" d="M1393.59 270.856 L1409.91 270.856 L1409.91 274.792 L1387.96 274.792 L1387.96 270.856 Q1390.63 268.102 1395.21 263.472 Q1399.82 258.819 1401 257.477 Q1403.24 254.954 1404.12 253.218 Q1405.02 251.458 1405.02 249.769 Q1405.02 247.014 1403.08 245.278 Q1401.16 243.542 1398.06 243.542 Q1395.86 243.542 1393.4 244.306 Q1390.97 245.07 1388.19 246.62 L1388.19 241.898 Q1391.02 240.764 1393.47 240.185 Q1395.93 239.607 1397.96 239.607 Q1403.33 239.607 1406.53 242.292 Q1409.72 244.977 1409.72 249.468 Q1409.72 251.597 1408.91 253.519 Q1408.13 255.417 1406.02 258.009 Q1405.44 258.681 1402.34 261.898 Q1399.24 265.093 1393.59 270.856 Z" fill="#000000" fill-rule="nonzero" fill-opacity="1" /><path clip-path="url(#clip900)" d="M1353.38 177.694 Q1349.77 177.694 1347.94 181.258 Q1346.13 184.8 1346.13 191.93 Q1346.13 199.036 1347.94 202.601 Q1349.77 206.142 1353.38 206.142 Q1357.01 206.142 1358.82 202.601 Q1360.65 199.036 1360.65 191.93 Q1360.65 184.8 1358.82 181.258 Q1357.01 177.694 1353.38 177.694 M1353.38 173.99 Q1359.19 173.99 1362.25 178.596 Q1365.32 183.18 1365.32 191.93 Q1365.32 200.656 1362.25 205.263 Q1359.19 209.846 1353.38 209.846 Q1347.57 209.846 1344.49 205.263 Q1341.44 200.656 1341.44 191.93 Q1341.44 183.18 1344.49 178.596 Q1347.57 173.99 1353.38 173.99 Z" fill="#000000" fill-rule="nonzero" fill-opacity="1" /><path clip-path="url(#clip900)" d="M1373.54 203.295 L1378.43 203.295 L1378.43 209.175 L1373.54 209.175 L1373.54 203.295 Z" fill="#000000" fill-rule="nonzero" fill-opacity="1" /><path clip-path="url(#clip900)" d="M1402.78 190.541 Q1406.13 191.258 1408.01 193.527 Q1409.91 195.795 1409.91 199.129 Q1409.91 204.244 1406.39 207.045 Q1402.87 209.846 1396.39 209.846 Q1394.21 209.846 1391.9 209.406 Q1389.61 208.99 1387.15 208.133 L1387.15 203.619 Q1389.1 204.754 1391.41 205.332 Q1393.73 205.911 1396.25 205.911 Q1400.65 205.911 1402.94 204.175 Q1405.26 202.439 1405.26 199.129 Q1405.26 196.073 1403.1 194.36 Q1400.97 192.624 1397.15 192.624 L1393.13 192.624 L1393.13 188.781 L1397.34 188.781 Q1400.79 188.781 1402.62 187.416 Q1404.44 186.027 1404.44 183.434 Q1404.44 180.772 1402.55 179.36 Q1400.67 177.925 1397.15 177.925 Q1395.23 177.925 1393.03 178.342 Q1390.83 178.758 1388.19 179.638 L1388.19 175.471 Q1390.86 174.731 1393.17 174.36 Q1395.51 173.99 1397.57 173.99 Q1402.89 173.99 1406 176.42 Q1409.1 178.828 1409.1 182.948 Q1409.1 185.818 1407.45 187.809 Q1405.81 189.777 1402.78 190.541 Z" fill="#000000" fill-rule="nonzero" fill-opacity="1" /><path clip-path="url(#clip900)" d="M1352.25 112.077 Q1348.63 112.077 1346.81 115.642 Q1345 119.183 1345 126.313 Q1345 133.419 1346.81 136.984 Q1348.63 140.526 1352.25 140.526 Q1355.88 140.526 1357.69 136.984 Q1359.51 133.419 1359.51 126.313 Q1359.51 119.183 1357.69 115.642 Q1355.88 112.077 1352.25 112.077 M1352.25 108.373 Q1358.06 108.373 1361.11 112.979 Q1364.19 117.563 1364.19 126.313 Q1364.19 135.04 1361.11 139.646 Q1358.06 144.229 1352.25 144.229 Q1346.44 144.229 1343.36 139.646 Q1340.3 135.04 1340.3 126.313 Q1340.3 117.563 1343.36 112.979 Q1346.44 108.373 1352.25 108.373 Z" fill="#000000" fill-rule="nonzero" fill-opacity="1" /><path clip-path="url(#clip900)" d="M1372.41 137.678 L1377.29 137.678 L1377.29 143.558 L1372.41 143.558 L1372.41 137.678 Z" fill="#000000" fill-rule="nonzero" fill-opacity="1" /><path clip-path="url(#clip900)" d="M1400.32 113.072 L1388.52 131.521 L1400.32 131.521 L1400.32 113.072 M1399.1 108.998 L1404.98 108.998 L1404.98 131.521 L1409.91 131.521 L1409.91 135.41 L1404.98 135.41 L1404.98 143.558 L1400.32 143.558 L1400.32 135.41 L1384.72 135.41 L1384.72 130.896 L1399.1 108.998 Z" fill="#000000" fill-rule="nonzero" fill-opacity="1" /><path clip-path="url(#clip900)" d="M1353.73 46.4599 Q1350.12 46.4599 1348.29 50.0247 Q1346.48 53.5664 1346.48 60.6959 Q1346.48 67.8024 1348.29 71.3672 Q1350.12 74.9088 1353.73 74.9088 Q1357.36 74.9088 1359.17 71.3672 Q1361 67.8024 1361 60.6959 Q1361 53.5664 1359.17 50.0247 Q1357.36 46.4599 1353.73 46.4599 M1353.73 42.7562 Q1359.54 42.7562 1362.59 47.3627 Q1365.67 51.946 1365.67 60.6959 Q1365.67 69.4228 1362.59 74.0292 Q1359.54 78.6125 1353.73 78.6125 Q1347.92 78.6125 1344.84 74.0292 Q1341.78 69.4228 1341.78 60.6959 Q1341.78 51.946 1344.84 47.3627 Q1347.92 42.7562 1353.73 42.7562 Z" fill="#000000" fill-rule="nonzero" fill-opacity="1" /><path clip-path="url(#clip900)" d="M1373.89 72.0616 L1378.77 72.0616 L1378.77 77.9412 L1373.89 77.9412 L1373.89 72.0616 Z" fill="#000000" fill-rule="nonzero" fill-opacity="1" /><path clip-path="url(#clip900)" d="M1389.01 43.3812 L1407.36 43.3812 L1407.36 47.3164 L1393.29 47.3164 L1393.29 55.7886 Q1394.31 55.4413 1395.32 55.2793 Q1396.34 55.0941 1397.36 55.0941 Q1403.15 55.0941 1406.53 58.2654 Q1409.91 61.4367 1409.91 66.8533 Q1409.91 72.432 1406.44 75.5338 Q1402.96 78.6125 1396.64 78.6125 Q1394.47 78.6125 1392.2 78.2422 Q1389.95 77.8718 1387.55 77.131 L1387.55 72.432 Q1389.63 73.5663 1391.85 74.1218 Q1394.07 74.6774 1396.55 74.6774 Q1400.56 74.6774 1402.89 72.5709 Q1405.23 70.4644 1405.23 66.8533 Q1405.23 63.2422 1402.89 61.1358 Q1400.56 59.0293 1396.55 59.0293 Q1394.68 59.0293 1392.8 59.446 Q1390.95 59.8626 1389.01 60.7422 L1389.01 43.3812 Z" fill="#000000" fill-rule="nonzero" fill-opacity="1" /><path clip-path="url(#clip900)" d="M1265.47 298.084 Q1270.89 298.084 1276.97 299.823 Q1283.03 301.53 1287.92 304.235 Q1292.79 306.941 1296.01 310.483 Q1299.19 314.026 1299.19 317.408 Q1299.19 319.565 1298 321.176 Q1296.78 322.754 1294.75 323.623 Q1292.69 324.493 1290.43 324.912 Q1288.15 325.33 1285.67 325.33 Q1281.96 325.33 1277.94 324.525 Q1273.88 323.72 1270.21 322.367 Q1266.51 321.015 1263.16 319.115 Q1259.77 317.214 1257.33 315.121 Q1254.85 312.995 1253.4 310.612 Q1251.95 308.229 1251.95 306.007 Q1251.95 304.396 1252.66 303.108 Q1253.33 301.788 1254.52 300.95 Q1255.68 300.113 1257.07 299.533 Q1258.45 298.921 1260.06 298.632 Q1261.64 298.342 1262.96 298.213 Q1264.25 298.084 1265.47 298.084 M1261.38 302.432 Q1259.74 302.432 1258.52 302.561 Q1257.26 302.69 1256.01 303.044 Q1254.75 303.398 1254.07 304.171 Q1253.4 304.912 1253.4 306.071 Q1253.4 309.453 1260.32 313.253 Q1262.48 314.477 1265.41 315.572 Q1268.34 316.667 1269.73 317.053 Q1271.11 317.44 1274.52 318.342 L1274.52 304.558 Q1265.73 302.432 1261.38 302.432 M1276.62 305.137 L1276.62 318.857 Q1284.67 320.983 1289.69 320.983 Q1294.07 320.983 1295.91 320.081 Q1297.71 319.147 1297.71 317.408 Q1297.71 315.411 1295.72 313.543 Q1293.69 311.675 1290.02 309.775 Q1285.25 307.263 1276.62 305.137 Z" fill="#000000" fill-rule="nonzero" fill-opacity="1" /><path clip-path="url(#clip900)" d="M1248.99 253.776 Q1256.31 258.041 1263.47 260.11 Q1270.64 262.179 1277.99 262.179 Q1285.34 262.179 1292.57 260.11 Q1299.76 258.009 1307.05 253.776 L1307.05 258.869 Q1299.57 263.643 1292.34 266.03 Q1285.12 268.386 1277.99 268.386 Q1270.89 268.386 1263.7 266.03 Q1256.5 263.675 1248.99 258.869 L1248.99 253.776 Z" fill="#000000" fill-rule="nonzero" fill-opacity="1" /><path clip-path="url(#clip900)" d="M1268.28 221.757 Q1267.71 222.743 1267.45 223.921 Q1267.17 225.067 1267.17 226.467 Q1267.17 231.433 1270.41 234.106 Q1273.63 236.748 1279.67 236.748 L1298.45 236.748 L1298.45 242.636 L1262.81 242.636 L1262.81 236.748 L1268.34 236.748 Q1265.1 234.902 1263.54 231.942 Q1261.95 228.982 1261.95 224.749 Q1261.95 224.144 1262.04 223.412 Q1262.11 222.68 1262.26 221.789 L1268.28 221.757 Z" fill="#000000" fill-rule="nonzero" fill-opacity="1" /><path clip-path="url(#clip900)" d="M1280.53 199.413 Q1280.53 206.511 1282.16 209.248 Q1283.78 211.985 1287.7 211.985 Q1290.81 211.985 1292.66 209.948 Q1294.48 207.879 1294.48 204.347 Q1294.48 199.477 1291.04 196.549 Q1287.57 193.588 1281.84 193.588 L1280.53 193.588 L1280.53 199.413 M1278.12 187.732 L1298.45 187.732 L1298.45 193.588 L1293.04 193.588 Q1296.29 195.594 1297.85 198.586 Q1299.38 201.577 1299.38 205.906 Q1299.38 211.381 1296.32 214.627 Q1293.23 217.842 1288.08 217.842 Q1282.06 217.842 1279.01 213.831 Q1275.95 209.789 1275.95 201.8 L1275.95 193.588 L1275.38 193.588 Q1271.34 193.588 1269.14 196.262 Q1266.91 198.904 1266.91 203.71 Q1266.91 206.766 1267.64 209.662 Q1268.38 212.558 1269.84 215.232 L1264.43 215.232 Q1263.19 212.017 1262.58 208.993 Q1261.95 205.97 1261.95 203.105 Q1261.95 195.371 1265.96 191.551 Q1269.97 187.732 1278.12 187.732 Z" fill="#000000" fill-rule="nonzero" fill-opacity="1" /><path clip-path="url(#clip900)" d="M1268.22 152.211 L1248.93 152.211 L1248.93 146.355 L1298.45 146.355 L1298.45 152.211 L1293.11 152.211 Q1296.29 154.057 1297.85 156.89 Q1299.38 159.691 1299.38 163.638 Q1299.38 170.099 1294.22 174.173 Q1289.06 178.215 1280.66 178.215 Q1272.26 178.215 1267.1 174.173 Q1261.95 170.099 1261.95 163.638 Q1261.95 159.691 1263.51 156.89 Q1265.03 154.057 1268.22 152.211 M1280.66 172.168 Q1287.12 172.168 1290.81 169.526 Q1294.48 166.853 1294.48 162.206 Q1294.48 157.559 1290.81 154.885 Q1287.12 152.211 1280.66 152.211 Q1274.2 152.211 1270.54 154.885 Q1266.85 157.559 1266.85 162.206 Q1266.85 166.853 1270.54 169.526 Q1274.2 172.168 1280.66 172.168 Z" fill="#000000" fill-rule="nonzero" fill-opacity="1" /><path clip-path="url(#clip900)" d="M1248.99 135.215 L1248.99 130.122 Q1256.5 125.348 1263.7 122.993 Q1270.89 120.606 1277.99 120.606 Q1285.12 120.606 1292.34 122.993 Q1299.57 125.348 1307.05 130.122 L1307.05 135.215 Q1299.76 130.982 1292.57 128.913 Q1285.34 126.812 1277.99 126.812 Q1270.64 126.812 1263.47 128.913 Q1256.31 130.982 1248.99 135.215 Z" fill="#000000" fill-rule="nonzero" fill-opacity="1" /><polyline clip-path="url(#clip903)" style="stroke:#009af9; stroke-linecap:round; stroke-linejoin:round; stroke-width:4; stroke-opacity:1; fill:none" points="1471.57,388.745 1496.74,360.251 1521.9,295.614 1547.06,221.181 1572.22,154.57 1597.38,104.712 1622.55,73.7381 1647.71,59.4995 1672.87,57.7989 1698.03,63.9879 1723.2,73.9329 1748.36,84.4908 1773.52,93.6389 1798.68,100.377 1823.85,104.501 1849.01,106.332 1874.17,106.456 1899.33,105.524 1924.49,104.111 1949.66,102.65 1974.82,101.41 1999.98,100.516 2025.14,99.9871 2050.31,99.7691 2075.47,99.7773 2100.63,99.9214 2125.79,100.123 2150.95,100.326 2176.12,100.494 2201.28,100.612 2226.44,100.68 2251.6,100.705 2276.77,100.701 2301.93,100.679 2327.09,100.651 "/>
<polyline clip-path="url(#clip903)" style="stroke:#e26f46; stroke-linecap:round; stroke-linejoin:round; stroke-width:3; stroke-opacity:1; fill:none" stroke-dasharray="12, 6, 2, 6" points="1471.57,379.46 1496.74,362.059 1521.9,303.58 1547.06,231.37 1572.22,153.097 1597.38,101.267 1622.55,77.7133 1647.71,65.5131 1672.87,57.1907 1698.03,62.2918 1723.2,68.8039 1748.36,81.0261 1773.52,93.8751 1798.68,105.963 1823.85,102.076 1849.01,103.118 1874.17,106.217 1899.33,104.959 1924.49,101.722 1949.66,105.028 1974.82,102.523 1999.98,93.2955 2025.14,100.437 2050.31,105.338 2075.47,99.5866 2100.63,98.0955 2125.79,98.3521 2150.95,100.422 2176.12,100.994 2201.28,100.409 2226.44,100.636 2251.6,105.661 2276.77,89.6556 2301.93,105.768 2327.09,95.4011 "/>
<path clip-path="url(#clip900)" d="M2203.01 386.977 L2322.53 386.977 L2322.53 231.457 L2203.01 231.457  Z" fill="#ffffff" fill-rule="evenodd" fill-opacity="1"/>
<polyline clip-path="url(#clip900)" style="stroke:#000000; stroke-linecap:round; stroke-linejoin:round; stroke-width:4; stroke-opacity:1; fill:none" points="2203.01,386.977 2322.53,386.977 2322.53,231.457 2203.01,231.457 2203.01,386.977 "/>
<polyline clip-path="url(#clip900)" style="stroke:#009af9; stroke-linecap:round; stroke-linejoin:round; stroke-width:4; stroke-opacity:1; fill:none" points="2213.09,283.297 2273.55,283.297 "/>
<path clip-path="url(#clip900)" d="M2310.63 293.836 L2305.36 293.695 L2299.6 293.836 L2299.6 291.587 L2301.47 291.587 L2296.2 285.357 L2291.54 290.58 L2291.21 291.049 Q2291.21 291.26 2291.75 291.423 Q2292.31 291.587 2292.97 291.587 L2292.97 293.836 L2288.03 293.695 L2283.62 293.836 L2283.62 291.587 Q2285.1 291.587 2285.78 291.564 Q2286.48 291.517 2287.28 291.306 Q2288.07 291.096 2288.47 290.674 L2294.75 283.624 L2287.28 274.794 L2283.86 274.794 L2283.86 272.545 L2289.15 272.686 L2294.94 272.545 L2294.94 274.794 L2293.01 274.794 L2297.72 280.298 L2301.75 275.801 Q2301.77 275.777 2302.15 275.215 Q2301.4 274.794 2300.32 274.794 L2300.32 272.545 L2305.26 272.686 L2309.67 272.545 L2309.67 274.794 Q2307.75 274.794 2306.74 274.934 Q2305.76 275.051 2305.45 275.215 Q2305.17 275.379 2304.77 275.801 L2299.17 282.031 L2307.23 291.587 L2310.63 291.587 L2310.63 293.836 Z" fill="#000000" fill-rule="nonzero" fill-opacity="1" /><polyline clip-path="url(#clip900)" style="stroke:#e26f46; stroke-linecap:round; stroke-linejoin:round; stroke-width:3; stroke-opacity:1; fill:none" stroke-dasharray="12, 6, 2, 6" points="2213.09,335.137 2273.55,335.137 "/>
<path clip-path="url(#clip900)" d="M2306.21 323.615 L2305.8 324.287 Q2303.26 323.189 2300.09 321.434 Q2296.93 323.189 2294.39 324.287 L2293.99 323.615 Q2296.76 321.205 2300.09 319.352 Q2303.45 321.221 2306.21 323.615 Z" fill="#000000" fill-rule="nonzero" fill-opacity="1" /><path clip-path="url(#clip900)" d="M2310.63 350.681 L2305.36 350.54 L2299.6 350.681 L2299.6 348.432 L2301.47 348.432 L2296.2 342.202 L2291.54 347.425 L2291.21 347.893 Q2291.21 348.104 2291.75 348.268 Q2292.31 348.432 2292.97 348.432 L2292.97 350.681 L2288.03 350.54 L2283.62 350.681 L2283.62 348.432 Q2285.1 348.432 2285.78 348.409 Q2286.48 348.362 2287.28 348.151 Q2288.07 347.94 2288.47 347.519 L2294.75 340.468 L2287.28 331.638 L2283.86 331.638 L2283.86 329.39 L2289.15 329.53 L2294.94 329.39 L2294.94 331.638 L2293.01 331.638 L2297.72 337.142 L2301.75 332.645 Q2301.77 332.622 2302.15 332.06 Q2301.4 331.638 2300.32 331.638 L2300.32 329.39 L2305.26 329.53 L2309.67 329.39 L2309.67 331.638 Q2307.75 331.638 2306.74 331.779 Q2305.76 331.896 2305.45 332.06 Q2305.17 332.224 2304.77 332.645 L2299.17 338.876 L2307.23 348.432 L2310.63 348.432 L2310.63 350.681 Z" fill="#000000" fill-rule="nonzero" fill-opacity="1" /><path clip-path="url(#clip900)" d="M1445.91 910.936 L2352.76 910.936 L2352.76 559.488 L1445.91 559.488  Z" fill="#ffffff" fill-rule="evenodd" fill-opacity="1"/>
<defs>
  <clipPath id="clip904">
    <rect x="1445" y="559" width="908" height="352"/>
  </clipPath>
</defs>
<polyline clip-path="url(#clip904)" style="stroke:#000000; stroke-linecap:round; stroke-linejoin:round; stroke-width:2; stroke-opacity:0.1; fill:none" points="1471.57,910.936 1471.57,559.488 "/>
<polyline clip-path="url(#clip904)" style="stroke:#000000; stroke-linecap:round; stroke-linejoin:round; stroke-width:2; stroke-opacity:0.1; fill:none" points="1723.2,910.936 1723.2,559.488 "/>
<polyline clip-path="url(#clip904)" style="stroke:#000000; stroke-linecap:round; stroke-linejoin:round; stroke-width:2; stroke-opacity:0.1; fill:none" points="1974.82,910.936 1974.82,559.488 "/>
<polyline clip-path="url(#clip904)" style="stroke:#000000; stroke-linecap:round; stroke-linejoin:round; stroke-width:2; stroke-opacity:0.1; fill:none" points="2226.44,910.936 2226.44,559.488 "/>
<polyline clip-path="url(#clip904)" style="stroke:#000000; stroke-linecap:round; stroke-linejoin:round; stroke-width:2; stroke-opacity:0.1; fill:none" points="1445.91,846.375 2352.76,846.375 "/>
<polyline clip-path="url(#clip904)" style="stroke:#000000; stroke-linecap:round; stroke-linejoin:round; stroke-width:2; stroke-opacity:0.1; fill:none" points="1445.91,771.97 2352.76,771.97 "/>
<polyline clip-path="url(#clip904)" style="stroke:#000000; stroke-linecap:round; stroke-linejoin:round; stroke-width:2; stroke-opacity:0.1; fill:none" points="1445.91,697.565 2352.76,697.565 "/>
<polyline clip-path="url(#clip904)" style="stroke:#000000; stroke-linecap:round; stroke-linejoin:round; stroke-width:2; stroke-opacity:0.1; fill:none" points="1445.91,623.159 2352.76,623.159 "/>
<polyline clip-path="url(#clip900)" style="stroke:#000000; stroke-linecap:round; stroke-linejoin:round; stroke-width:4; stroke-opacity:1; fill:none" points="1445.91,910.936 2352.76,910.936 "/>
<polyline clip-path="url(#clip900)" style="stroke:#000000; stroke-linecap:round; stroke-linejoin:round; stroke-width:4; stroke-opacity:1; fill:none" points="1471.57,910.936 1471.57,892.038 "/>
<polyline clip-path="url(#clip900)" style="stroke:#000000; stroke-linecap:round; stroke-linejoin:round; stroke-width:4; stroke-opacity:1; fill:none" points="1723.2,910.936 1723.2,892.038 "/>
<polyline clip-path="url(#clip900)" style="stroke:#000000; stroke-linecap:round; stroke-linejoin:round; stroke-width:4; stroke-opacity:1; fill:none" points="1974.82,910.936 1974.82,892.038 "/>
<polyline clip-path="url(#clip900)" style="stroke:#000000; stroke-linecap:round; stroke-linejoin:round; stroke-width:4; stroke-opacity:1; fill:none" points="2226.44,910.936 2226.44,892.038 "/>
<path clip-path="url(#clip900)" d="M1471.57 941.855 Q1467.96 941.855 1466.13 945.419 Q1464.33 948.961 1464.33 956.091 Q1464.33 963.197 1466.13 966.762 Q1467.96 970.303 1471.57 970.303 Q1475.21 970.303 1477.01 966.762 Q1478.84 963.197 1478.84 956.091 Q1478.84 948.961 1477.01 945.419 Q1475.21 941.855 1471.57 941.855 M1471.57 938.151 Q1477.38 938.151 1480.44 942.757 Q1483.52 947.341 1483.52 956.091 Q1483.52 964.817 1480.44 969.424 Q1477.38 974.007 1471.57 974.007 Q1465.76 974.007 1462.68 969.424 Q1459.63 964.817 1459.63 956.091 Q1459.63 947.341 1462.68 942.757 Q1465.76 938.151 1471.57 938.151 Z" fill="#000000" fill-rule="nonzero" fill-opacity="1" /><path clip-path="url(#clip900)" d="M1713.58 969.401 L1721.22 969.401 L1721.22 943.035 L1712.91 944.702 L1712.91 940.443 L1721.17 938.776 L1725.85 938.776 L1725.85 969.401 L1733.49 969.401 L1733.49 973.336 L1713.58 973.336 L1713.58 969.401 Z" fill="#000000" fill-rule="nonzero" fill-opacity="1" /><path clip-path="url(#clip900)" d="M1969.47 969.401 L1985.79 969.401 L1985.79 973.336 L1963.85 973.336 L1963.85 969.401 Q1966.51 966.646 1971.09 962.016 Q1975.7 957.364 1976.88 956.021 Q1979.12 953.498 1980 951.762 Q1980.91 950.003 1980.91 948.313 Q1980.91 945.558 1978.96 943.822 Q1977.04 942.086 1973.94 942.086 Q1971.74 942.086 1969.29 942.85 Q1966.86 943.614 1964.08 945.165 L1964.08 940.443 Q1966.9 939.308 1969.36 938.73 Q1971.81 938.151 1973.85 938.151 Q1979.22 938.151 1982.41 940.836 Q1985.61 943.521 1985.61 948.012 Q1985.61 950.142 1984.8 952.063 Q1984.01 953.961 1981.9 956.554 Q1981.32 957.225 1978.22 960.442 Q1975.12 963.637 1969.47 969.401 Z" fill="#000000" fill-rule="nonzero" fill-opacity="1" /><path clip-path="url(#clip900)" d="M2230.69 954.702 Q2234.05 955.419 2235.92 957.688 Q2237.82 959.956 2237.82 963.29 Q2237.82 968.405 2234.3 971.206 Q2230.78 974.007 2224.3 974.007 Q2222.12 974.007 2219.81 973.567 Q2217.52 973.151 2215.06 972.294 L2215.06 967.78 Q2217.01 968.915 2219.32 969.493 Q2221.64 970.072 2224.16 970.072 Q2228.56 970.072 2230.85 968.336 Q2233.17 966.6 2233.17 963.29 Q2233.17 960.234 2231.01 958.521 Q2228.88 956.785 2225.06 956.785 L2221.04 956.785 L2221.04 952.942 L2225.25 952.942 Q2228.7 952.942 2230.53 951.577 Q2232.36 950.188 2232.36 947.595 Q2232.36 944.933 2230.46 943.521 Q2228.58 942.086 2225.06 942.086 Q2223.14 942.086 2220.94 942.503 Q2218.74 942.919 2216.11 943.799 L2216.11 939.632 Q2218.77 938.892 2221.08 938.521 Q2223.42 938.151 2225.48 938.151 Q2230.8 938.151 2233.91 940.581 Q2237.01 942.989 2237.01 947.109 Q2237.01 949.979 2235.36 951.97 Q2233.72 953.938 2230.69 954.702 Z" fill="#000000" fill-rule="nonzero" fill-opacity="1" /><polyline clip-path="url(#clip900)" style="stroke:#000000; stroke-linecap:round; stroke-linejoin:round; stroke-width:4; stroke-opacity:1; fill:none" points="1445.91,910.936 1445.91,559.488 "/>
<polyline clip-path="url(#clip900)" style="stroke:#000000; stroke-linecap:round; stroke-linejoin:round; stroke-width:4; stroke-opacity:1; fill:none" points="1445.91,846.375 1464.81,846.375 "/>
<polyline clip-path="url(#clip900)" style="stroke:#000000; stroke-linecap:round; stroke-linejoin:round; stroke-width:4; stroke-opacity:1; fill:none" points="1445.91,771.97 1464.81,771.97 "/>
<polyline clip-path="url(#clip900)" style="stroke:#000000; stroke-linecap:round; stroke-linejoin:round; stroke-width:4; stroke-opacity:1; fill:none" points="1445.91,697.565 1464.81,697.565 "/>
<polyline clip-path="url(#clip900)" style="stroke:#000000; stroke-linecap:round; stroke-linejoin:round; stroke-width:4; stroke-opacity:1; fill:none" points="1445.91,623.159 1464.81,623.159 "/>
<path clip-path="url(#clip900)" d="M1352.73 832.174 Q1349.12 832.174 1347.29 835.739 Q1345.49 839.281 1345.49 846.41 Q1345.49 853.517 1347.29 857.081 Q1349.12 860.623 1352.73 860.623 Q1356.37 860.623 1358.17 857.081 Q1360 853.517 1360 846.41 Q1360 839.281 1358.17 835.739 Q1356.37 832.174 1352.73 832.174 M1352.73 828.47 Q1358.54 828.47 1361.6 833.077 Q1364.68 837.66 1364.68 846.41 Q1364.68 855.137 1361.6 859.743 Q1358.54 864.327 1352.73 864.327 Q1346.92 864.327 1343.84 859.743 Q1340.79 855.137 1340.79 846.41 Q1340.79 837.66 1343.84 833.077 Q1346.92 828.47 1352.73 828.47 Z" fill="#000000" fill-rule="nonzero" fill-opacity="1" /><path clip-path="url(#clip900)" d="M1372.89 857.776 L1377.78 857.776 L1377.78 863.655 L1372.89 863.655 L1372.89 857.776 Z" fill="#000000" fill-rule="nonzero" fill-opacity="1" /><path clip-path="url(#clip900)" d="M1397.96 832.174 Q1394.35 832.174 1392.52 835.739 Q1390.72 839.281 1390.72 846.41 Q1390.72 853.517 1392.52 857.081 Q1394.35 860.623 1397.96 860.623 Q1401.6 860.623 1403.4 857.081 Q1405.23 853.517 1405.23 846.41 Q1405.23 839.281 1403.4 835.739 Q1401.6 832.174 1397.96 832.174 M1397.96 828.47 Q1403.77 828.47 1406.83 833.077 Q1409.91 837.66 1409.91 846.41 Q1409.91 855.137 1406.83 859.743 Q1403.77 864.327 1397.96 864.327 Q1392.15 864.327 1389.07 859.743 Q1386.02 855.137 1386.02 846.41 Q1386.02 837.66 1389.07 833.077 Q1392.15 828.47 1397.96 828.47 Z" fill="#000000" fill-rule="nonzero" fill-opacity="1" /><path clip-path="url(#clip900)" d="M1353.38 757.769 Q1349.77 757.769 1347.94 761.334 Q1346.13 764.875 1346.13 772.005 Q1346.13 779.111 1347.94 782.676 Q1349.77 786.218 1353.38 786.218 Q1357.01 786.218 1358.82 782.676 Q1360.65 779.111 1360.65 772.005 Q1360.65 764.875 1358.82 761.334 Q1357.01 757.769 1353.38 757.769 M1353.38 754.065 Q1359.19 754.065 1362.25 758.671 Q1365.32 763.255 1365.32 772.005 Q1365.32 780.732 1362.25 785.338 Q1359.19 789.921 1353.38 789.921 Q1347.57 789.921 1344.49 785.338 Q1341.44 780.732 1341.44 772.005 Q1341.44 763.255 1344.49 758.671 Q1347.57 754.065 1353.38 754.065 Z" fill="#000000" fill-rule="nonzero" fill-opacity="1" /><path clip-path="url(#clip900)" d="M1373.54 783.37 L1378.43 783.37 L1378.43 789.25 L1373.54 789.25 L1373.54 783.37 Z" fill="#000000" fill-rule="nonzero" fill-opacity="1" /><path clip-path="url(#clip900)" d="M1402.78 770.616 Q1406.13 771.333 1408.01 773.602 Q1409.91 775.87 1409.91 779.204 Q1409.91 784.319 1406.39 787.12 Q1402.87 789.921 1396.39 789.921 Q1394.21 789.921 1391.9 789.482 Q1389.61 789.065 1387.15 788.208 L1387.15 783.694 Q1389.1 784.829 1391.41 785.407 Q1393.73 785.986 1396.25 785.986 Q1400.65 785.986 1402.94 784.25 Q1405.26 782.514 1405.26 779.204 Q1405.26 776.148 1403.1 774.435 Q1400.97 772.699 1397.15 772.699 L1393.13 772.699 L1393.13 768.857 L1397.34 768.857 Q1400.79 768.857 1402.62 767.491 Q1404.44 766.102 1404.44 763.509 Q1404.44 760.847 1402.55 759.435 Q1400.67 758 1397.15 758 Q1395.23 758 1393.03 758.417 Q1390.83 758.834 1388.19 759.713 L1388.19 755.546 Q1390.86 754.806 1393.17 754.435 Q1395.51 754.065 1397.57 754.065 Q1402.89 754.065 1406 756.496 Q1409.1 758.903 1409.1 763.023 Q1409.1 765.894 1407.45 767.884 Q1405.81 769.852 1402.78 770.616 Z" fill="#000000" fill-rule="nonzero" fill-opacity="1" /><path clip-path="url(#clip900)" d="M1352.57 683.363 Q1348.96 683.363 1347.13 686.928 Q1345.32 690.47 1345.32 697.599 Q1345.32 704.706 1347.13 708.271 Q1348.96 711.812 1352.57 711.812 Q1356.2 711.812 1358.01 708.271 Q1359.84 704.706 1359.84 697.599 Q1359.84 690.47 1358.01 686.928 Q1356.2 683.363 1352.57 683.363 M1352.57 679.66 Q1358.38 679.66 1361.44 684.266 Q1364.51 688.849 1364.51 697.599 Q1364.51 706.326 1361.44 710.933 Q1358.38 715.516 1352.57 715.516 Q1346.76 715.516 1343.68 710.933 Q1340.63 706.326 1340.63 697.599 Q1340.63 688.849 1343.68 684.266 Q1346.76 679.66 1352.57 679.66 Z" fill="#000000" fill-rule="nonzero" fill-opacity="1" /><path clip-path="url(#clip900)" d="M1372.73 708.965 L1377.62 708.965 L1377.62 714.845 L1372.73 714.845 L1372.73 708.965 Z" fill="#000000" fill-rule="nonzero" fill-opacity="1" /><path clip-path="url(#clip900)" d="M1398.38 695.701 Q1395.23 695.701 1393.38 697.854 Q1391.55 700.007 1391.55 703.757 Q1391.55 707.484 1393.38 709.659 Q1395.23 711.812 1398.38 711.812 Q1401.53 711.812 1403.36 709.659 Q1405.21 707.484 1405.21 703.757 Q1405.21 700.007 1403.36 697.854 Q1401.53 695.701 1398.38 695.701 M1407.66 681.048 L1407.66 685.308 Q1405.9 684.474 1404.1 684.035 Q1402.32 683.595 1400.56 683.595 Q1395.93 683.595 1393.47 686.72 Q1391.04 689.845 1390.69 696.164 Q1392.06 694.15 1394.12 693.085 Q1396.18 691.998 1398.66 691.998 Q1403.87 691.998 1406.88 695.169 Q1409.91 698.317 1409.91 703.757 Q1409.91 709.081 1406.76 712.298 Q1403.61 715.516 1398.38 715.516 Q1392.38 715.516 1389.21 710.933 Q1386.04 706.326 1386.04 697.599 Q1386.04 689.405 1389.93 684.544 Q1393.82 679.66 1400.37 679.66 Q1402.13 679.66 1403.91 680.007 Q1405.72 680.354 1407.66 681.048 Z" fill="#000000" fill-rule="nonzero" fill-opacity="1" /><path clip-path="url(#clip900)" d="M1352.92 608.958 Q1349.31 608.958 1347.48 612.523 Q1345.67 616.064 1345.67 623.194 Q1345.67 630.3 1347.48 633.865 Q1349.31 637.407 1352.92 637.407 Q1356.55 637.407 1358.36 633.865 Q1360.19 630.3 1360.19 623.194 Q1360.19 616.064 1358.36 612.523 Q1356.55 608.958 1352.92 608.958 M1352.92 605.254 Q1358.73 605.254 1361.78 609.861 Q1364.86 614.444 1364.86 623.194 Q1364.86 631.921 1361.78 636.527 Q1358.73 641.11 1352.92 641.11 Q1347.11 641.11 1344.03 636.527 Q1340.97 631.921 1340.97 623.194 Q1340.97 614.444 1344.03 609.861 Q1347.11 605.254 1352.92 605.254 Z" fill="#000000" fill-rule="nonzero" fill-opacity="1" /><path clip-path="url(#clip900)" d="M1373.08 634.56 L1377.96 634.56 L1377.96 640.439 L1373.08 640.439 L1373.08 634.56 Z" fill="#000000" fill-rule="nonzero" fill-opacity="1" /><path clip-path="url(#clip900)" d="M1388.29 639.722 L1388.29 635.462 Q1390.05 636.296 1391.85 636.736 Q1393.66 637.175 1395.39 637.175 Q1400.02 637.175 1402.45 634.073 Q1404.91 630.949 1405.26 624.606 Q1403.91 626.597 1401.85 627.661 Q1399.79 628.726 1397.29 628.726 Q1392.11 628.726 1389.07 625.601 Q1386.07 622.453 1386.07 617.013 Q1386.07 611.689 1389.21 608.472 Q1392.36 605.254 1397.59 605.254 Q1403.59 605.254 1406.74 609.861 Q1409.91 614.444 1409.91 623.194 Q1409.91 631.365 1406.02 636.249 Q1402.15 641.11 1395.6 641.11 Q1393.84 641.11 1392.04 640.763 Q1390.23 640.416 1388.29 639.722 M1397.59 625.069 Q1400.74 625.069 1402.57 622.916 Q1404.42 620.763 1404.42 617.013 Q1404.42 613.287 1402.57 611.134 Q1400.74 608.958 1397.59 608.958 Q1394.44 608.958 1392.59 611.134 Q1390.76 613.287 1390.76 617.013 Q1390.76 620.763 1392.59 622.916 Q1394.44 625.069 1397.59 625.069 Z" fill="#000000" fill-rule="nonzero" fill-opacity="1" /><path clip-path="url(#clip900)" d="M1265.64 831.559 Q1268.64 831.559 1274.44 833.072 Q1276.95 833.684 1279.23 834.522 Q1281.49 835.327 1283.68 836.518 Q1285.87 837.71 1287.45 839.095 Q1288.99 840.48 1289.96 842.283 Q1290.92 844.087 1290.92 846.084 Q1290.92 849.24 1289.06 851.108 Q1287.16 852.943 1283.9 853.523 Q1290.92 857.839 1290.92 863.604 Q1290.92 867.178 1288.38 868.853 Q1285.8 870.528 1281.49 870.528 Q1277.85 870.528 1274.08 869.562 Q1266.93 867.726 1261.94 864.151 Q1261.36 863.668 1261.36 862.959 Q1261.36 862.541 1261.49 862.347 Q1261.84 861.768 1262.42 861.768 Q1262.84 861.768 1263.26 862.09 Q1266.38 864.344 1269.06 865.826 Q1271.73 867.307 1274.44 867.984 Q1276.75 868.499 1278.72 868.499 Q1282.04 868.499 1284.1 867.082 Q1286.16 865.632 1286.16 862.766 Q1286.16 860.125 1284.52 857.806 Q1282.84 855.488 1280.04 853.781 Q1276.98 853.684 1274.08 852.943 Q1270.99 852.267 1270.99 850.689 Q1270.99 849.433 1272.7 849.433 Q1273.28 849.433 1274.44 849.691 Q1277.49 850.399 1280.23 851.687 Q1282.91 851.236 1284.55 849.562 Q1286.16 847.887 1286.16 845.214 Q1286.16 842.734 1284.35 840.544 Q1282.55 838.322 1279.91 836.905 Q1277.24 835.456 1274.08 834.65 Q1273.02 834.393 1271.67 834.393 Q1268.06 834.393 1265.84 836.905 Q1265.13 837.613 1264.19 837.613 Q1263.1 837.613 1262.1 836.712 Q1261.04 835.649 1261.04 834.393 Q1261.04 833.459 1261.62 832.879 Q1262.78 831.559 1265.64 831.559 Z" fill="#000000" fill-rule="nonzero" fill-opacity="1" /><path clip-path="url(#clip900)" d="M1240.72 788.989 Q1248.04 793.255 1255.2 795.323 Q1262.37 797.392 1269.72 797.392 Q1277.07 797.392 1284.3 795.323 Q1291.49 793.223 1298.78 788.989 L1298.78 794.082 Q1291.3 798.856 1284.07 801.243 Q1276.85 803.599 1269.72 803.599 Q1262.62 803.599 1255.43 801.243 Q1248.23 798.888 1240.72 794.082 L1240.72 788.989 Z" fill="#000000" fill-rule="nonzero" fill-opacity="1" /><path clip-path="url(#clip900)" d="M1260.01 756.97 Q1259.44 757.957 1259.18 759.134 Q1258.9 760.28 1258.9 761.681 Q1258.9 766.646 1262.14 769.319 Q1265.36 771.961 1271.41 771.961 L1290.18 771.961 L1290.18 777.85 L1254.54 777.85 L1254.54 771.961 L1260.07 771.961 Q1256.83 770.115 1255.27 767.155 Q1253.68 764.195 1253.68 759.962 Q1253.68 759.357 1253.77 758.625 Q1253.84 757.893 1254 757.002 L1260.01 756.97 Z" fill="#000000" fill-rule="nonzero" fill-opacity="1" /><path clip-path="url(#clip900)" d="M1272.26 734.626 Q1272.26 741.724 1273.89 744.461 Q1275.51 747.199 1279.43 747.199 Q1282.55 747.199 1284.39 745.162 Q1286.21 743.093 1286.21 739.56 Q1286.21 734.69 1282.77 731.762 Q1279.3 728.802 1273.57 728.802 L1272.26 728.802 L1272.26 734.626 M1269.85 722.945 L1290.18 722.945 L1290.18 728.802 L1284.77 728.802 Q1288.02 730.807 1289.58 733.799 Q1291.11 736.791 1291.11 741.119 Q1291.11 746.594 1288.05 749.84 Q1284.96 753.055 1279.81 753.055 Q1273.79 753.055 1270.74 749.045 Q1267.68 745.002 1267.68 737.013 L1267.68 728.802 L1267.11 728.802 Q1263.07 728.802 1260.87 731.475 Q1258.64 734.117 1258.64 738.923 Q1258.64 741.979 1259.37 744.875 Q1260.11 747.772 1261.57 750.445 L1256.16 750.445 Q1254.92 747.23 1254.31 744.207 Q1253.68 741.183 1253.68 738.318 Q1253.68 730.584 1257.69 726.765 Q1261.7 722.945 1269.85 722.945 Z" fill="#000000" fill-rule="nonzero" fill-opacity="1" /><path clip-path="url(#clip900)" d="M1259.95 687.425 L1240.66 687.425 L1240.66 681.568 L1290.18 681.568 L1290.18 687.425 L1284.84 687.425 Q1288.02 689.271 1289.58 692.103 Q1291.11 694.904 1291.11 698.851 Q1291.11 705.312 1285.95 709.386 Q1280.79 713.429 1272.39 713.429 Q1263.99 713.429 1258.83 709.386 Q1253.68 705.312 1253.68 698.851 Q1253.68 694.904 1255.24 692.103 Q1256.76 689.271 1259.95 687.425 M1272.39 707.381 Q1278.85 707.381 1282.55 704.739 Q1286.21 702.066 1286.21 697.419 Q1286.21 692.772 1282.55 690.098 Q1278.85 687.425 1272.39 687.425 Q1265.93 687.425 1262.27 690.098 Q1258.58 692.772 1258.58 697.419 Q1258.58 702.066 1262.27 704.739 Q1265.93 707.381 1272.39 707.381 Z" fill="#000000" fill-rule="nonzero" fill-opacity="1" /><path clip-path="url(#clip900)" d="M1242.66 659.097 L1242.66 653.686 L1296.23 670.237 L1296.23 675.648 L1242.66 659.097 Z" fill="#000000" fill-rule="nonzero" fill-opacity="1" /><path clip-path="url(#clip900)" d="M1255.59 624.818 L1261.12 624.818 Q1259.85 627.301 1259.21 629.974 Q1258.58 632.648 1258.58 635.512 Q1258.58 639.873 1259.92 642.069 Q1261.25 644.233 1263.93 644.233 Q1265.96 644.233 1267.14 642.674 Q1268.29 641.114 1269.34 636.404 L1269.78 634.398 Q1271.12 628.16 1273.57 625.55 Q1275.99 622.908 1280.35 622.908 Q1285.31 622.908 1288.21 626.855 Q1291.11 630.77 1291.11 637.645 Q1291.11 640.509 1290.53 643.629 Q1289.99 646.716 1288.88 650.153 L1282.83 650.153 Q1284.52 646.907 1285.38 643.756 Q1286.21 640.605 1286.21 637.517 Q1286.21 633.38 1284.81 631.152 Q1283.37 628.924 1280.79 628.924 Q1278.41 628.924 1277.13 630.547 Q1275.86 632.138 1274.68 637.581 L1274.21 639.618 Q1273.06 645.061 1270.71 647.48 Q1268.32 649.899 1264.18 649.899 Q1259.15 649.899 1256.41 646.334 Q1253.68 642.769 1253.68 636.213 Q1253.68 632.966 1254.15 630.101 Q1254.63 627.237 1255.59 624.818 Z" fill="#000000" fill-rule="nonzero" fill-opacity="1" /><path clip-path="url(#clip900)" d="M1240.72 614.505 L1240.72 609.413 Q1248.23 604.639 1255.43 602.283 Q1262.62 599.896 1269.72 599.896 Q1276.85 599.896 1284.07 602.283 Q1291.3 604.639 1298.78 609.413 L1298.78 614.505 Q1291.49 610.272 1284.3 608.203 Q1277.07 606.103 1269.72 606.103 Q1262.37 606.103 1255.2 608.203 Q1248.04 610.272 1240.72 614.505 Z" fill="#000000" fill-rule="nonzero" fill-opacity="1" /><polyline clip-path="url(#clip904)" style="stroke:#009af9; stroke-linecap:round; stroke-linejoin:round; stroke-width:4; stroke-opacity:1; fill:none" points="1471.57,846.375 1496.74,651.103 1521.9,569.435 1547.06,571.599 1572.22,623.132 1597.38,694 1622.55,763.237 1647.71,819.247 1672.87,857.745 1698.03,879.213 1723.2,886.757 1748.36,884.545 1773.52,876.737 1798.68,866.823 1823.85,857.305 1849.01,849.652 1874.17,844.446 1899.33,841.619 1924.49,840.722 1949.66,841.149 1974.82,842.305 1999.98,843.705 2025.14,845.012 2050.31,846.038 2075.47,846.719 2100.63,847.073 2125.79,847.168 2150.95,847.09 2176.12,846.92 2201.28,846.724 2226.44,846.545 2251.6,846.407 2276.77,846.318 2301.93,846.274 2327.09,846.265 "/>
<polyline clip-path="url(#clip904)" style="stroke:#e26f46; stroke-linecap:round; stroke-linejoin:round; stroke-width:3; stroke-opacity:1; fill:none" stroke-dasharray="12, 6, 2, 6" points="1471.57,846.375 1496.74,672.508 1521.9,587.518 1547.06,576.32 1572.22,600.127 1597.38,685.341 1622.55,779.348 1647.71,837.246 1672.87,864.514 1698.03,891.589 1723.2,897.378 1748.36,900.989 1773.52,895.697 1798.68,885.814 1823.85,854.651 1849.01,850.081 1874.17,850.727 1899.33,844.113 1924.49,839.498 1949.66,847.946 1974.82,842.362 1999.98,832.013 2025.14,853.436 2050.31,856.148 2075.47,840.88 2100.63,842.676 2125.79,846.264 2150.95,849.951 2176.12,848.523 2201.28,846.124 2226.44,846.477 2251.6,853.068 2276.77,825.366 2301.93,863.763 2327.09,837.12 "/>
<path clip-path="url(#clip900)" d="M2203.01 726.723 L2322.53 726.723 L2322.53 571.203 L2203.01 571.203  Z" fill="#ffffff" fill-rule="evenodd" fill-opacity="1"/>
<polyline clip-path="url(#clip900)" style="stroke:#000000; stroke-linecap:round; stroke-linejoin:round; stroke-width:4; stroke-opacity:1; fill:none" points="2203.01,726.723 2322.53,726.723 2322.53,571.203 2203.01,571.203 2203.01,726.723 "/>
<polyline clip-path="url(#clip900)" style="stroke:#009af9; stroke-linecap:round; stroke-linejoin:round; stroke-width:4; stroke-opacity:1; fill:none" points="2213.09,623.043 2273.55,623.043 "/>
<path clip-path="url(#clip900)" d="M2310.63 633.582 L2305.36 633.442 L2299.6 633.582 L2299.6 631.334 L2301.47 631.334 L2296.2 625.103 L2291.54 630.326 L2291.21 630.795 Q2291.21 631.006 2291.75 631.17 Q2292.31 631.334 2292.97 631.334 L2292.97 633.582 L2288.03 633.442 L2283.62 633.582 L2283.62 631.334 Q2285.1 631.334 2285.78 631.31 Q2286.48 631.263 2287.28 631.052 Q2288.07 630.842 2288.47 630.42 L2294.75 623.37 L2287.28 614.54 L2283.86 614.54 L2283.86 612.291 L2289.15 612.432 L2294.94 612.291 L2294.94 614.54 L2293.01 614.54 L2297.72 620.044 L2301.75 615.547 Q2301.77 615.523 2302.15 614.961 Q2301.4 614.54 2300.32 614.54 L2300.32 612.291 L2305.26 612.432 L2309.67 612.291 L2309.67 614.54 Q2307.75 614.54 2306.74 614.68 Q2305.76 614.797 2305.45 614.961 Q2305.17 615.125 2304.77 615.547 L2299.17 621.777 L2307.23 631.334 L2310.63 631.334 L2310.63 633.582 Z" fill="#000000" fill-rule="nonzero" fill-opacity="1" /><polyline clip-path="url(#clip900)" style="stroke:#e26f46; stroke-linecap:round; stroke-linejoin:round; stroke-width:3; stroke-opacity:1; fill:none" stroke-dasharray="12, 6, 2, 6" points="2213.09,674.883 2273.55,674.883 "/>
<path clip-path="url(#clip900)" d="M2306.21 663.361 L2305.8 664.033 Q2303.26 662.935 2300.09 661.18 Q2296.93 662.935 2294.39 664.033 L2293.99 663.361 Q2296.76 660.951 2300.09 659.098 Q2303.45 660.967 2306.21 663.361 Z" fill="#000000" fill-rule="nonzero" fill-opacity="1" /><path clip-path="url(#clip900)" d="M2310.63 690.427 L2305.36 690.286 L2299.6 690.427 L2299.6 688.178 L2301.47 688.178 L2296.2 681.948 L2291.54 687.171 L2291.21 687.639 Q2291.21 687.85 2291.75 688.014 Q2292.31 688.178 2292.97 688.178 L2292.97 690.427 L2288.03 690.286 L2283.62 690.427 L2283.62 688.178 Q2285.1 688.178 2285.78 688.155 Q2286.48 688.108 2287.28 687.897 Q2288.07 687.686 2288.47 687.265 L2294.75 680.214 L2287.28 671.384 L2283.86 671.384 L2283.86 669.136 L2289.15 669.276 L2294.94 669.136 L2294.94 671.384 L2293.01 671.384 L2297.72 676.888 L2301.75 672.391 Q2301.77 672.368 2302.15 671.806 Q2301.4 671.384 2300.32 671.384 L2300.32 669.136 L2305.26 669.276 L2309.67 669.136 L2309.67 671.384 Q2307.75 671.384 2306.74 671.525 Q2305.76 671.642 2305.45 671.806 Q2305.17 671.97 2304.77 672.391 L2299.17 678.622 L2307.23 688.178 L2310.63 688.178 L2310.63 690.427 Z" fill="#000000" fill-rule="nonzero" fill-opacity="1" /><path clip-path="url(#clip900)" d="M1445.91 1423.18 L2352.76 1423.18 L2352.76 1071.73 L1445.91 1071.73  Z" fill="#ffffff" fill-rule="evenodd" fill-opacity="1"/>
<defs>
  <clipPath id="clip905">
    <rect x="1445" y="1071" width="908" height="352"/>
  </clipPath>
</defs>
<polyline clip-path="url(#clip905)" style="stroke:#000000; stroke-linecap:round; stroke-linejoin:round; stroke-width:2; stroke-opacity:0.1; fill:none" points="1471.57,1423.18 1471.57,1071.73 "/>
<polyline clip-path="url(#clip905)" style="stroke:#000000; stroke-linecap:round; stroke-linejoin:round; stroke-width:2; stroke-opacity:0.1; fill:none" points="1723.2,1423.18 1723.2,1071.73 "/>
<polyline clip-path="url(#clip905)" style="stroke:#000000; stroke-linecap:round; stroke-linejoin:round; stroke-width:2; stroke-opacity:0.1; fill:none" points="1974.82,1423.18 1974.82,1071.73 "/>
<polyline clip-path="url(#clip905)" style="stroke:#000000; stroke-linecap:round; stroke-linejoin:round; stroke-width:2; stroke-opacity:0.1; fill:none" points="2226.44,1423.18 2226.44,1071.73 "/>
<polyline clip-path="url(#clip905)" style="stroke:#000000; stroke-linecap:round; stroke-linejoin:round; stroke-width:2; stroke-opacity:0.1; fill:none" points="1445.91,1397.27 2352.76,1397.27 "/>
<polyline clip-path="url(#clip905)" style="stroke:#000000; stroke-linecap:round; stroke-linejoin:round; stroke-width:2; stroke-opacity:0.1; fill:none" points="1445.91,1305.55 2352.76,1305.55 "/>
<polyline clip-path="url(#clip905)" style="stroke:#000000; stroke-linecap:round; stroke-linejoin:round; stroke-width:2; stroke-opacity:0.1; fill:none" points="1445.91,1213.84 2352.76,1213.84 "/>
<polyline clip-path="url(#clip905)" style="stroke:#000000; stroke-linecap:round; stroke-linejoin:round; stroke-width:2; stroke-opacity:0.1; fill:none" points="1445.91,1122.12 2352.76,1122.12 "/>
<polyline clip-path="url(#clip900)" style="stroke:#000000; stroke-linecap:round; stroke-linejoin:round; stroke-width:4; stroke-opacity:1; fill:none" points="1445.91,1423.18 2352.76,1423.18 "/>
<polyline clip-path="url(#clip900)" style="stroke:#000000; stroke-linecap:round; stroke-linejoin:round; stroke-width:4; stroke-opacity:1; fill:none" points="1471.57,1423.18 1471.57,1404.28 "/>
<polyline clip-path="url(#clip900)" style="stroke:#000000; stroke-linecap:round; stroke-linejoin:round; stroke-width:4; stroke-opacity:1; fill:none" points="1723.2,1423.18 1723.2,1404.28 "/>
<polyline clip-path="url(#clip900)" style="stroke:#000000; stroke-linecap:round; stroke-linejoin:round; stroke-width:4; stroke-opacity:1; fill:none" points="1974.82,1423.18 1974.82,1404.28 "/>
<polyline clip-path="url(#clip900)" style="stroke:#000000; stroke-linecap:round; stroke-linejoin:round; stroke-width:4; stroke-opacity:1; fill:none" points="2226.44,1423.18 2226.44,1404.28 "/>
<path clip-path="url(#clip900)" d="M1471.57 1454.1 Q1467.96 1454.1 1466.13 1457.66 Q1464.33 1461.2 1464.33 1468.33 Q1464.33 1475.44 1466.13 1479.01 Q1467.96 1482.55 1471.57 1482.55 Q1475.21 1482.55 1477.01 1479.01 Q1478.84 1475.44 1478.84 1468.33 Q1478.84 1461.2 1477.01 1457.66 Q1475.21 1454.1 1471.57 1454.1 M1471.57 1450.39 Q1477.38 1450.39 1480.44 1455 Q1483.52 1459.58 1483.52 1468.33 Q1483.52 1477.06 1480.44 1481.67 Q1477.38 1486.25 1471.57 1486.25 Q1465.76 1486.25 1462.68 1481.67 Q1459.63 1477.06 1459.63 1468.33 Q1459.63 1459.58 1462.68 1455 Q1465.76 1450.39 1471.57 1450.39 Z" fill="#000000" fill-rule="nonzero" fill-opacity="1" /><path clip-path="url(#clip900)" d="M1713.58 1481.64 L1721.22 1481.64 L1721.22 1455.28 L1712.91 1456.95 L1712.91 1452.69 L1721.17 1451.02 L1725.85 1451.02 L1725.85 1481.64 L1733.49 1481.64 L1733.49 1485.58 L1713.58 1485.58 L1713.58 1481.64 Z" fill="#000000" fill-rule="nonzero" fill-opacity="1" /><path clip-path="url(#clip900)" d="M1969.47 1481.64 L1985.79 1481.64 L1985.79 1485.58 L1963.85 1485.58 L1963.85 1481.64 Q1966.51 1478.89 1971.09 1474.26 Q1975.7 1469.61 1976.88 1468.27 Q1979.12 1465.74 1980 1464.01 Q1980.91 1462.25 1980.91 1460.56 Q1980.91 1457.8 1978.96 1456.07 Q1977.04 1454.33 1973.94 1454.33 Q1971.74 1454.33 1969.29 1455.09 Q1966.86 1455.86 1964.08 1457.41 L1964.08 1452.69 Q1966.9 1451.55 1969.36 1450.97 Q1971.81 1450.39 1973.85 1450.39 Q1979.22 1450.39 1982.41 1453.08 Q1985.61 1455.77 1985.61 1460.26 Q1985.61 1462.39 1984.8 1464.31 Q1984.01 1466.2 1981.9 1468.8 Q1981.32 1469.47 1978.22 1472.69 Q1975.12 1475.88 1969.47 1481.64 Z" fill="#000000" fill-rule="nonzero" fill-opacity="1" /><path clip-path="url(#clip900)" d="M2230.69 1466.95 Q2234.05 1467.66 2235.92 1469.93 Q2237.82 1472.2 2237.82 1475.53 Q2237.82 1480.65 2234.3 1483.45 Q2230.78 1486.25 2224.3 1486.25 Q2222.12 1486.25 2219.81 1485.81 Q2217.52 1485.39 2215.06 1484.54 L2215.06 1480.02 Q2217.01 1481.16 2219.32 1481.74 Q2221.64 1482.32 2224.16 1482.32 Q2228.56 1482.32 2230.85 1480.58 Q2233.17 1478.84 2233.17 1475.53 Q2233.17 1472.48 2231.01 1470.77 Q2228.88 1469.03 2225.06 1469.03 L2221.04 1469.03 L2221.04 1465.19 L2225.25 1465.19 Q2228.7 1465.19 2230.53 1463.82 Q2232.36 1462.43 2232.36 1459.84 Q2232.36 1457.18 2230.46 1455.77 Q2228.58 1454.33 2225.06 1454.33 Q2223.14 1454.33 2220.94 1454.75 Q2218.74 1455.16 2216.11 1456.04 L2216.11 1451.88 Q2218.77 1451.14 2221.08 1450.77 Q2223.42 1450.39 2225.48 1450.39 Q2230.8 1450.39 2233.91 1452.83 Q2237.01 1455.23 2237.01 1459.35 Q2237.01 1462.22 2235.36 1464.21 Q2233.72 1466.18 2230.69 1466.95 Z" fill="#000000" fill-rule="nonzero" fill-opacity="1" /><path clip-path="url(#clip900)" d="M1769.5 1520.52 L1809.7 1520.52 L1809.7 1525.93 L1792.83 1525.93 L1792.83 1568.04 L1786.37 1568.04 L1786.37 1525.93 L1769.5 1525.93 L1769.5 1520.52 Z" fill="#000000" fill-rule="nonzero" fill-opacity="1" /><path clip-path="url(#clip900)" d="M1813.65 1532.4 L1819.51 1532.4 L1819.51 1568.04 L1813.65 1568.04 L1813.65 1532.4 M1813.65 1518.52 L1819.51 1518.52 L1819.51 1525.93 L1813.65 1525.93 L1813.65 1518.52 Z" fill="#000000" fill-rule="nonzero" fill-opacity="1" /><path clip-path="url(#clip900)" d="M1859.51 1539.24 Q1861.71 1535.29 1864.77 1533.41 Q1867.82 1531.54 1871.96 1531.54 Q1877.53 1531.54 1880.55 1535.45 Q1883.58 1539.33 1883.58 1546.53 L1883.58 1568.04 L1877.69 1568.04 L1877.69 1546.72 Q1877.69 1541.59 1875.87 1539.11 Q1874.06 1536.63 1870.34 1536.63 Q1865.78 1536.63 1863.14 1539.65 Q1860.5 1542.68 1860.5 1547.9 L1860.5 1568.04 L1854.61 1568.04 L1854.61 1546.72 Q1854.61 1541.56 1852.8 1539.11 Q1850.98 1536.63 1847.2 1536.63 Q1842.71 1536.63 1840.07 1539.68 Q1837.43 1542.71 1837.43 1547.9 L1837.43 1568.04 L1831.54 1568.04 L1831.54 1532.4 L1837.43 1532.4 L1837.43 1537.93 Q1839.43 1534.66 1842.23 1533.1 Q1845.03 1531.54 1848.88 1531.54 Q1852.77 1531.54 1855.47 1533.51 Q1858.21 1535.48 1859.51 1539.24 Z" fill="#000000" fill-rule="nonzero" fill-opacity="1" /><path clip-path="url(#clip900)" d="M1925.75 1548.76 L1925.75 1551.62 L1898.82 1551.62 Q1899.2 1557.67 1902.45 1560.85 Q1905.73 1564 1911.55 1564 Q1914.93 1564 1918.08 1563.17 Q1921.26 1562.35 1924.38 1560.69 L1924.38 1566.23 Q1921.23 1567.57 1917.92 1568.27 Q1914.61 1568.97 1911.2 1568.97 Q1902.67 1568.97 1897.68 1564 Q1892.71 1559.04 1892.71 1550.57 Q1892.71 1541.82 1897.42 1536.69 Q1902.16 1531.54 1910.19 1531.54 Q1917.38 1531.54 1921.55 1536.18 Q1925.75 1540.8 1925.75 1548.76 M1919.89 1547.04 Q1919.83 1542.23 1917.19 1539.37 Q1914.58 1536.5 1910.25 1536.5 Q1905.35 1536.5 1902.39 1539.27 Q1899.46 1542.04 1899.01 1547.07 L1919.89 1547.04 Z" fill="#000000" fill-rule="nonzero" fill-opacity="1" /><path clip-path="url(#clip900)" d="M1970.15 1518.58 Q1965.89 1525.9 1963.82 1533.06 Q1961.75 1540.23 1961.75 1547.58 Q1961.75 1554.93 1963.82 1562.16 Q1965.92 1569.35 1970.15 1576.64 L1965.06 1576.64 Q1960.28 1569.16 1957.9 1561.93 Q1955.54 1554.71 1955.54 1547.58 Q1955.54 1540.48 1957.9 1533.29 Q1960.25 1526.09 1965.06 1518.58 L1970.15 1518.58 Z" fill="#000000" fill-rule="nonzero" fill-opacity="1" /><path clip-path="url(#clip900)" d="M2004.24 1533.45 L2004.24 1538.98 Q2001.76 1537.71 1999.08 1537.07 Q1996.41 1536.44 1993.54 1536.44 Q1989.18 1536.44 1986.99 1537.77 Q1984.82 1539.11 1984.82 1541.79 Q1984.82 1543.82 1986.38 1545 Q1987.94 1546.15 1992.65 1547.2 L1994.66 1547.64 Q2000.9 1548.98 2003.51 1551.43 Q2006.15 1553.85 2006.15 1558.21 Q2006.15 1563.17 2002.2 1566.07 Q1998.29 1568.97 1991.41 1568.97 Q1988.55 1568.97 1985.43 1568.39 Q1982.34 1567.85 1978.9 1566.74 L1978.9 1560.69 Q1982.15 1562.38 1985.3 1563.24 Q1988.45 1564.07 1991.54 1564.07 Q1995.68 1564.07 1997.9 1562.66 Q2000.13 1561.23 2000.13 1558.65 Q2000.13 1556.27 1998.51 1554.99 Q1996.92 1553.72 1991.48 1552.54 L1989.44 1552.07 Q1984 1550.92 1981.58 1548.56 Q1979.16 1546.18 1979.16 1542.04 Q1979.16 1537.01 1982.72 1534.27 Q1986.29 1531.54 1992.84 1531.54 Q1996.09 1531.54 1998.96 1532.01 Q2001.82 1532.49 2004.24 1533.45 Z" fill="#000000" fill-rule="nonzero" fill-opacity="1" /><path clip-path="url(#clip900)" d="M2014.55 1518.58 L2019.64 1518.58 Q2024.42 1526.09 2026.77 1533.29 Q2029.16 1540.48 2029.16 1547.58 Q2029.16 1554.71 2026.77 1561.93 Q2024.42 1569.16 2019.64 1576.64 L2014.55 1576.64 Q2018.78 1569.35 2020.85 1562.16 Q2022.95 1554.93 2022.95 1547.58 Q2022.95 1540.23 2020.85 1533.06 Q2018.78 1525.9 2014.55 1518.58 Z" fill="#000000" fill-rule="nonzero" fill-opacity="1" /><polyline clip-path="url(#clip900)" style="stroke:#000000; stroke-linecap:round; stroke-linejoin:round; stroke-width:4; stroke-opacity:1; fill:none" points="1445.91,1423.18 1445.91,1071.73 "/>
<polyline clip-path="url(#clip900)" style="stroke:#000000; stroke-linecap:round; stroke-linejoin:round; stroke-width:4; stroke-opacity:1; fill:none" points="1445.91,1397.27 1464.81,1397.27 "/>
<polyline clip-path="url(#clip900)" style="stroke:#000000; stroke-linecap:round; stroke-linejoin:round; stroke-width:4; stroke-opacity:1; fill:none" points="1445.91,1305.55 1464.81,1305.55 "/>
<polyline clip-path="url(#clip900)" style="stroke:#000000; stroke-linecap:round; stroke-linejoin:round; stroke-width:4; stroke-opacity:1; fill:none" points="1445.91,1213.84 1464.81,1213.84 "/>
<polyline clip-path="url(#clip900)" style="stroke:#000000; stroke-linecap:round; stroke-linejoin:round; stroke-width:4; stroke-opacity:1; fill:none" points="1445.91,1122.12 1464.81,1122.12 "/>
<path clip-path="url(#clip900)" d="M1272.64 1397.72 L1302.32 1397.72 L1302.32 1401.65 L1272.64 1401.65 L1272.64 1397.72 Z" fill="#000000" fill-rule="nonzero" fill-opacity="1" /><path clip-path="url(#clip900)" d="M1322.41 1383.07 Q1318.8 1383.07 1316.97 1386.63 Q1315.16 1390.17 1315.16 1397.3 Q1315.16 1404.41 1316.97 1407.97 Q1318.8 1411.51 1322.41 1411.51 Q1326.04 1411.51 1327.85 1407.97 Q1329.68 1404.41 1329.68 1397.3 Q1329.68 1390.17 1327.85 1386.63 Q1326.04 1383.07 1322.41 1383.07 M1322.41 1379.36 Q1328.22 1379.36 1331.27 1383.97 Q1334.35 1388.55 1334.35 1397.3 Q1334.35 1406.03 1331.27 1410.64 Q1328.22 1415.22 1322.41 1415.22 Q1316.6 1415.22 1313.52 1410.64 Q1310.46 1406.03 1310.46 1397.3 Q1310.46 1388.55 1313.52 1383.97 Q1316.6 1379.36 1322.41 1379.36 Z" fill="#000000" fill-rule="nonzero" fill-opacity="1" /><path clip-path="url(#clip900)" d="M1342.57 1408.67 L1347.45 1408.67 L1347.45 1414.55 L1342.57 1414.55 L1342.57 1408.67 Z" fill="#000000" fill-rule="nonzero" fill-opacity="1" /><path clip-path="url(#clip900)" d="M1367.64 1383.07 Q1364.03 1383.07 1362.2 1386.63 Q1360.39 1390.17 1360.39 1397.3 Q1360.39 1404.41 1362.2 1407.97 Q1364.03 1411.51 1367.64 1411.51 Q1371.27 1411.51 1373.08 1407.97 Q1374.91 1404.41 1374.91 1397.3 Q1374.91 1390.17 1373.08 1386.63 Q1371.27 1383.07 1367.64 1383.07 M1367.64 1379.36 Q1373.45 1379.36 1376.51 1383.97 Q1379.58 1388.55 1379.58 1397.3 Q1379.58 1406.03 1376.51 1410.64 Q1373.45 1415.22 1367.64 1415.22 Q1361.83 1415.22 1358.75 1410.64 Q1355.7 1406.03 1355.7 1397.3 Q1355.7 1388.55 1358.75 1383.97 Q1361.83 1379.36 1367.64 1379.36 Z" fill="#000000" fill-rule="nonzero" fill-opacity="1" /><path clip-path="url(#clip900)" d="M1398.38 1395.4 Q1395.23 1395.4 1393.38 1397.56 Q1391.55 1399.71 1391.55 1403.46 Q1391.55 1407.19 1393.38 1409.36 Q1395.23 1411.51 1398.38 1411.51 Q1401.53 1411.51 1403.36 1409.36 Q1405.21 1407.19 1405.21 1403.46 Q1405.21 1399.71 1403.36 1397.56 Q1401.53 1395.4 1398.38 1395.4 M1407.66 1380.75 L1407.66 1385.01 Q1405.9 1384.18 1404.1 1383.74 Q1402.32 1383.3 1400.56 1383.3 Q1395.93 1383.3 1393.47 1386.42 Q1391.04 1389.55 1390.69 1395.87 Q1392.06 1393.85 1394.12 1392.79 Q1396.18 1391.7 1398.66 1391.7 Q1403.87 1391.7 1406.88 1394.87 Q1409.91 1398.02 1409.91 1403.46 Q1409.91 1408.78 1406.76 1412 Q1403.61 1415.22 1398.38 1415.22 Q1392.38 1415.22 1389.21 1410.64 Q1386.04 1406.03 1386.04 1397.3 Q1386.04 1389.11 1389.93 1384.25 Q1393.82 1379.36 1400.37 1379.36 Q1402.13 1379.36 1403.91 1379.71 Q1405.72 1380.06 1407.66 1380.75 Z" fill="#000000" fill-rule="nonzero" fill-opacity="1" /><path clip-path="url(#clip900)" d="M1272.32 1306 L1301.99 1306 L1301.99 1309.94 L1272.32 1309.94 L1272.32 1306 Z" fill="#000000" fill-rule="nonzero" fill-opacity="1" /><path clip-path="url(#clip900)" d="M1322.08 1291.35 Q1318.47 1291.35 1316.64 1294.92 Q1314.84 1298.46 1314.84 1305.59 Q1314.84 1312.69 1316.64 1316.26 Q1318.47 1319.8 1322.08 1319.8 Q1325.72 1319.8 1327.52 1316.26 Q1329.35 1312.69 1329.35 1305.59 Q1329.35 1298.46 1327.52 1294.92 Q1325.72 1291.35 1322.08 1291.35 M1322.08 1287.65 Q1327.89 1287.65 1330.95 1292.25 Q1334.03 1296.84 1334.03 1305.59 Q1334.03 1314.31 1330.95 1318.92 Q1327.89 1323.5 1322.08 1323.5 Q1316.27 1323.5 1313.2 1318.92 Q1310.14 1314.31 1310.14 1305.59 Q1310.14 1296.84 1313.2 1292.25 Q1316.27 1287.65 1322.08 1287.65 Z" fill="#000000" fill-rule="nonzero" fill-opacity="1" /><path clip-path="url(#clip900)" d="M1342.25 1316.95 L1347.13 1316.95 L1347.13 1322.83 L1342.25 1322.83 L1342.25 1316.95 Z" fill="#000000" fill-rule="nonzero" fill-opacity="1" /><path clip-path="url(#clip900)" d="M1367.32 1291.35 Q1363.7 1291.35 1361.88 1294.92 Q1360.07 1298.46 1360.07 1305.59 Q1360.07 1312.69 1361.88 1316.26 Q1363.7 1319.8 1367.32 1319.8 Q1370.95 1319.8 1372.76 1316.26 Q1374.58 1312.69 1374.58 1305.59 Q1374.58 1298.46 1372.76 1294.92 Q1370.95 1291.35 1367.32 1291.35 M1367.32 1287.65 Q1373.13 1287.65 1376.18 1292.25 Q1379.26 1296.84 1379.26 1305.59 Q1379.26 1314.31 1376.18 1318.92 Q1373.13 1323.5 1367.32 1323.5 Q1361.51 1323.5 1358.43 1318.92 Q1355.37 1314.31 1355.37 1305.59 Q1355.37 1296.84 1358.43 1292.25 Q1361.51 1287.65 1367.32 1287.65 Z" fill="#000000" fill-rule="nonzero" fill-opacity="1" /><path clip-path="url(#clip900)" d="M1400.32 1292.35 L1388.52 1310.79 L1400.32 1310.79 L1400.32 1292.35 M1399.1 1288.27 L1404.98 1288.27 L1404.98 1310.79 L1409.91 1310.79 L1409.91 1314.68 L1404.98 1314.68 L1404.98 1322.83 L1400.32 1322.83 L1400.32 1314.68 L1384.72 1314.68 L1384.72 1310.17 L1399.1 1288.27 Z" fill="#000000" fill-rule="nonzero" fill-opacity="1" /><path clip-path="url(#clip900)" d="M1274.4 1214.29 L1304.08 1214.29 L1304.08 1218.22 L1274.4 1218.22 L1274.4 1214.29 Z" fill="#000000" fill-rule="nonzero" fill-opacity="1" /><path clip-path="url(#clip900)" d="M1324.17 1199.64 Q1320.56 1199.64 1318.73 1203.2 Q1316.92 1206.74 1316.92 1213.87 Q1316.92 1220.98 1318.73 1224.54 Q1320.56 1228.08 1324.17 1228.08 Q1327.8 1228.08 1329.61 1224.54 Q1331.44 1220.98 1331.44 1213.87 Q1331.44 1206.74 1329.61 1203.2 Q1327.8 1199.64 1324.17 1199.64 M1324.17 1195.93 Q1329.98 1195.93 1333.03 1200.54 Q1336.11 1205.12 1336.11 1213.87 Q1336.11 1222.6 1333.03 1227.2 Q1329.98 1231.79 1324.17 1231.79 Q1318.36 1231.79 1315.28 1227.2 Q1312.22 1222.6 1312.22 1213.87 Q1312.22 1205.12 1315.28 1200.54 Q1318.36 1195.93 1324.17 1195.93 Z" fill="#000000" fill-rule="nonzero" fill-opacity="1" /><path clip-path="url(#clip900)" d="M1344.33 1225.24 L1349.21 1225.24 L1349.21 1231.12 L1344.33 1231.12 L1344.33 1225.24 Z" fill="#000000" fill-rule="nonzero" fill-opacity="1" /><path clip-path="url(#clip900)" d="M1369.4 1199.64 Q1365.79 1199.64 1363.96 1203.2 Q1362.15 1206.74 1362.15 1213.87 Q1362.15 1220.98 1363.96 1224.54 Q1365.79 1228.08 1369.4 1228.08 Q1373.03 1228.08 1374.84 1224.54 Q1376.67 1220.98 1376.67 1213.87 Q1376.67 1206.74 1374.84 1203.2 Q1373.03 1199.64 1369.4 1199.64 M1369.4 1195.93 Q1375.21 1195.93 1378.26 1200.54 Q1381.34 1205.12 1381.34 1213.87 Q1381.34 1222.6 1378.26 1227.2 Q1375.21 1231.79 1369.4 1231.79 Q1363.59 1231.79 1360.51 1227.2 Q1357.45 1222.6 1357.45 1213.87 Q1357.45 1205.12 1360.51 1200.54 Q1363.59 1195.93 1369.4 1195.93 Z" fill="#000000" fill-rule="nonzero" fill-opacity="1" /><path clip-path="url(#clip900)" d="M1393.59 1227.18 L1409.91 1227.18 L1409.91 1231.12 L1387.96 1231.12 L1387.96 1227.18 Q1390.63 1224.43 1395.21 1219.8 Q1399.82 1215.14 1401 1213.8 Q1403.24 1211.28 1404.12 1209.54 Q1405.02 1207.78 1405.02 1206.09 Q1405.02 1203.34 1403.08 1201.6 Q1401.16 1199.87 1398.06 1199.87 Q1395.86 1199.87 1393.4 1200.63 Q1390.97 1201.39 1388.19 1202.95 L1388.19 1198.22 Q1391.02 1197.09 1393.47 1196.51 Q1395.93 1195.93 1397.96 1195.93 Q1403.33 1195.93 1406.53 1198.62 Q1409.72 1201.3 1409.72 1205.79 Q1409.72 1207.92 1408.91 1209.84 Q1408.13 1211.74 1406.02 1214.33 Q1405.44 1215.01 1402.34 1218.22 Q1399.24 1221.42 1393.59 1227.18 Z" fill="#000000" fill-rule="nonzero" fill-opacity="1" /><path clip-path="url(#clip900)" d="M1322.57 1107.92 Q1318.96 1107.92 1317.13 1111.48 Q1315.32 1115.03 1315.32 1122.16 Q1315.32 1129.26 1317.13 1132.83 Q1318.96 1136.37 1322.57 1136.37 Q1326.2 1136.37 1328.01 1132.83 Q1329.84 1129.26 1329.84 1122.16 Q1329.84 1115.03 1328.01 1111.48 Q1326.2 1107.92 1322.57 1107.92 M1322.57 1104.22 Q1328.38 1104.22 1331.44 1108.82 Q1334.51 1113.41 1334.51 1122.16 Q1334.51 1130.88 1331.44 1135.49 Q1328.38 1140.07 1322.57 1140.07 Q1316.76 1140.07 1313.68 1135.49 Q1310.63 1130.88 1310.63 1122.16 Q1310.63 1113.41 1313.68 1108.82 Q1316.76 1104.22 1322.57 1104.22 Z" fill="#000000" fill-rule="nonzero" fill-opacity="1" /><path clip-path="url(#clip900)" d="M1342.73 1133.52 L1347.62 1133.52 L1347.62 1139.4 L1342.73 1139.4 L1342.73 1133.52 Z" fill="#000000" fill-rule="nonzero" fill-opacity="1" /><path clip-path="url(#clip900)" d="M1367.8 1107.92 Q1364.19 1107.92 1362.36 1111.48 Q1360.56 1115.03 1360.56 1122.16 Q1360.56 1129.26 1362.36 1132.83 Q1364.19 1136.37 1367.8 1136.37 Q1371.44 1136.37 1373.24 1132.83 Q1375.07 1129.26 1375.07 1122.16 Q1375.07 1115.03 1373.24 1111.48 Q1371.44 1107.92 1367.8 1107.92 M1367.8 1104.22 Q1373.61 1104.22 1376.67 1108.82 Q1379.75 1113.41 1379.75 1122.16 Q1379.75 1130.88 1376.67 1135.49 Q1373.61 1140.07 1367.8 1140.07 Q1361.99 1140.07 1358.91 1135.49 Q1355.86 1130.88 1355.86 1122.16 Q1355.86 1113.41 1358.91 1108.82 Q1361.99 1104.22 1367.8 1104.22 Z" fill="#000000" fill-rule="nonzero" fill-opacity="1" /><path clip-path="url(#clip900)" d="M1397.96 1107.92 Q1394.35 1107.92 1392.52 1111.48 Q1390.72 1115.03 1390.72 1122.16 Q1390.72 1129.26 1392.52 1132.83 Q1394.35 1136.37 1397.96 1136.37 Q1401.6 1136.37 1403.4 1132.83 Q1405.23 1129.26 1405.23 1122.16 Q1405.23 1115.03 1403.4 1111.48 Q1401.6 1107.92 1397.96 1107.92 M1397.96 1104.22 Q1403.77 1104.22 1406.83 1108.82 Q1409.91 1113.41 1409.91 1122.16 Q1409.91 1130.88 1406.83 1135.49 Q1403.77 1140.07 1397.96 1140.07 Q1392.15 1140.07 1389.07 1135.49 Q1386.02 1130.88 1386.02 1122.16 Q1386.02 1113.41 1389.07 1108.82 Q1392.15 1104.22 1397.96 1104.22 Z" fill="#000000" fill-rule="nonzero" fill-opacity="1" /><path clip-path="url(#clip900)" d="M1182.01 1252.88 L1182.94 1253.44 Q1181.43 1256.93 1179.02 1261.28 Q1181.43 1265.63 1182.94 1269.13 L1182.01 1269.67 Q1178.7 1265.86 1176.15 1261.28 Q1178.72 1256.66 1182.01 1252.88 Z" fill="#000000" fill-rule="nonzero" fill-opacity="1" /><path clip-path="url(#clip900)" d="M1194.31 1249.71 Q1196.12 1249.71 1197.15 1250.84 Q1198.14 1251.97 1198.14 1253.26 Q1198.14 1254.48 1197.44 1255.12 Q1196.73 1255.77 1195.83 1255.77 Q1194.6 1255.77 1193.54 1254.87 Q1192.48 1253.96 1192.25 1252.61 Q1191.41 1253.93 1191.41 1255.9 Q1191.41 1257.18 1192.09 1258.31 Q1192.77 1259.41 1193.64 1260.08 Q1194.51 1260.73 1195.76 1261.31 Q1196.99 1261.85 1197.73 1262.08 Q1198.43 1262.27 1199.21 1262.43 L1208.23 1264.69 Q1212.51 1265.78 1214.02 1265.78 Q1215.89 1265.78 1217.15 1264.88 Q1218.37 1263.98 1218.37 1262.18 Q1218.37 1261.47 1218.18 1260.66 Q1217.95 1259.86 1217.37 1258.83 Q1216.76 1257.76 1215.86 1256.83 Q1214.92 1255.86 1213.35 1254.93 Q1211.77 1254 1209.74 1253.38 Q1209.03 1253.19 1209.03 1252.55 Q1209.03 1251.74 1209.67 1251.74 Q1210.22 1251.74 1211.38 1252.19 Q1212.51 1252.61 1213.99 1253.55 Q1215.44 1254.45 1216.76 1255.64 Q1218.05 1256.83 1218.95 1258.6 Q1219.85 1260.37 1219.85 1262.31 Q1219.85 1265.08 1218.37 1266.91 Q1216.89 1268.75 1214.83 1269.42 Q1215.12 1269.58 1215.5 1269.81 Q1215.89 1270.03 1216.76 1270.71 Q1217.6 1271.36 1218.24 1272.1 Q1218.85 1272.84 1219.34 1274 Q1219.85 1275.12 1219.85 1276.35 Q1219.85 1277.89 1219.4 1279.28 Q1218.95 1280.63 1217.92 1281.6 Q1216.89 1282.56 1215.47 1282.56 Q1213.89 1282.56 1212.8 1281.5 Q1211.67 1280.41 1211.67 1278.92 Q1211.67 1277.99 1212.22 1277.25 Q1212.77 1276.48 1213.96 1276.48 Q1215.28 1276.48 1216.28 1277.38 Q1217.27 1278.28 1217.53 1279.57 Q1218.37 1278.25 1218.37 1276.28 Q1218.37 1274.16 1216.5 1272.48 Q1214.63 1270.81 1211.51 1270 Q1204.01 1268.01 1200.66 1267.23 Q1197.28 1266.46 1195.83 1266.46 Q1194.47 1266.46 1193.54 1266.81 Q1192.61 1267.17 1192.19 1267.78 Q1191.74 1268.36 1191.57 1268.91 Q1191.41 1269.42 1191.41 1270 Q1191.41 1270.97 1191.8 1272.06 Q1192.19 1273.13 1193.09 1274.41 Q1193.96 1275.67 1195.76 1276.86 Q1197.56 1278.05 1200.04 1278.86 Q1200.79 1279.02 1200.79 1279.73 Q1200.75 1280.5 1200.11 1280.5 Q1199.56 1280.5 1198.43 1280.08 Q1197.28 1279.63 1195.83 1278.73 Q1194.38 1277.8 1193.09 1276.6 Q1191.77 1275.38 1190.87 1273.61 Q1189.96 1271.81 1189.96 1269.87 Q1189.96 1269 1190.16 1268.17 Q1190.32 1267.3 1190.8 1266.27 Q1191.28 1265.2 1192.35 1264.27 Q1193.41 1263.34 1194.96 1262.76 Q1194.22 1262.37 1193.51 1261.85 Q1192.8 1261.31 1191.93 1260.47 Q1191.03 1259.6 1190.51 1258.41 Q1189.96 1257.18 1189.96 1255.83 Q1189.96 1254.51 1190.32 1253.22 Q1190.64 1251.94 1191.7 1250.84 Q1192.73 1249.71 1194.31 1249.71 Z" fill="#000000" fill-rule="nonzero" fill-opacity="1" /><path clip-path="url(#clip900)" d="M1231.9 1242.25 Q1230.52 1242.25 1229.87 1241.46 Q1229.22 1240.68 1229.22 1239.66 Q1229.22 1238.6 1229.92 1237.86 Q1230.59 1237.09 1231.79 1237.09 Q1233.07 1237.09 1233.79 1237.99 Q1234.51 1238.87 1234.33 1240.13 Q1236.18 1239.03 1237.02 1237 Q1237.85 1234.95 1237.85 1233.06 Q1237.85 1231.07 1236.14 1229.47 Q1234.42 1227.85 1230.23 1227.85 Q1226.67 1227.85 1224.62 1229.25 Q1222.57 1230.62 1222.57 1233.35 L1222.57 1235.38 Q1222.57 1236.08 1222.5 1236.28 Q1222.43 1236.48 1222.05 1236.48 Q1221.6 1236.48 1221.51 1235.78 Q1221.51 1235.08 1221.37 1233.98 Q1221.28 1231.3 1218.96 1229.88 Q1216.79 1228.59 1213.71 1228.59 Q1210.89 1228.59 1209.72 1229.94 Q1208.52 1231.27 1208.52 1233.01 Q1208.52 1234.63 1209.2 1236.41 Q1209.87 1238.2 1211.38 1239.17 Q1211.38 1236.3 1213.71 1236.3 Q1214.72 1236.3 1215.4 1236.96 Q1216.05 1237.59 1216.05 1238.65 Q1216.05 1239.66 1215.42 1240.34 Q1214.77 1241.01 1213.66 1241.01 Q1211.02 1241.01 1209.2 1238.67 Q1207.37 1236.3 1207.37 1232.83 Q1207.37 1229.4 1209.17 1226.88 Q1210.98 1224.33 1213.75 1224.33 Q1216.48 1224.33 1218.71 1226.13 Q1220.94 1227.94 1221.87 1230.8 Q1222.57 1227.28 1224.96 1225.19 Q1227.32 1223.09 1230.23 1223.09 Q1233.84 1223.09 1236.5 1225.93 Q1239.14 1228.77 1239.14 1232.92 Q1239.14 1236.75 1237.06 1239.5 Q1234.99 1242.25 1231.9 1242.25 Z" fill="#000000" fill-rule="nonzero" fill-opacity="1" /><polyline clip-path="url(#clip905)" style="stroke:#e26f46; stroke-linecap:round; stroke-linejoin:round; stroke-width:3; stroke-opacity:1; fill:none" stroke-dasharray="12, 6, 2, 6" points="1471.57,1122.12 1496.74,1392.2 1521.9,1413.23 1547.06,1398.74 1572.22,1291.99 1597.38,1312.85 1622.55,1361.97 1647.71,1344.51 1672.87,1281.05 1698.03,1258.26 1723.2,1219.57 1748.36,1207.56 1773.52,1201.04 1798.68,1202 1823.85,1145.91 1849.01,1142.73 1874.17,1153.55 1899.33,1145.17 1924.49,1134.15 1949.66,1155.54 1974.82,1143.66 1999.98,1106.96 2025.14,1150.15 2050.31,1164.18 2075.47,1130.07 2100.63,1128.36 2125.79,1132.16 2150.95,1140.51 2176.12,1139.25 2201.28,1134.53 2226.44,1135.62 2251.6,1157.53 2276.77,1081.68 2301.93,1170.36 2327.09,1108.75 "/>
</svg>
