<?xml version="1.0" encoding="utf-8"?>
<svg xmlns="http://www.w3.org/2000/svg" xmlns:xlink="http://www.w3.org/1999/xlink" width="600" height="400" viewBox="0 0 2400 1600">
<defs>
  <clipPath id="clip680">
    <rect x="0" y="0" width="2400" height="1600"/>
  </clipPath>
</defs>
<path clip-path="url(#clip680)" d="M0 1600 L2400 1600 L2400 0 L0 0  Z" fill="#ffffff" fill-rule="evenodd" fill-opacity="1"/>
<defs>
  <clipPath id="clip681">
    <rect x="203" y="47" width="2150" height="1377"/>
  </clipPath>
</defs>
<path clip-path="url(#clip680)" d="M203.964 1423.18 L1110.81 1423.18 L1110.81 47.2441 L203.964 47.2441  Z" fill="#ffffff" fill-rule="evenodd" fill-opacity="1"/>
<defs>
  <clipPath id="clip682">
    <rect x="203" y="47" width="908" height="1377"/>
  </clipPath>
</defs>
<polyline clip-path="url(#clip682)" style="stroke:#000000; stroke-linecap:round; stroke-linejoin:round; stroke-width:2; stroke-opacity:0.1; fill:none" points="229.629,1423.18 229.629,47.2441 "/>
<polyline clip-path="url(#clip682)" style="stroke:#000000; stroke-linecap:round; stroke-linejoin:round; stroke-width:2; stroke-opacity:0.1; fill:none" points="481.252,1423.18 481.252,47.2441 "/>
<polyline clip-path="url(#clip682)" style="stroke:#000000; stroke-linecap:round; stroke-linejoin:round; stroke-width:2; stroke-opacity:0.1; fill:none" points="732.874,1423.18 732.874,47.2441 "/>
<polyline clip-path="url(#clip682)" style="stroke:#000000; stroke-linecap:round; stroke-linejoin:round; stroke-width:2; stroke-opacity:0.1; fill:none" points="984.497,1423.18 984.497,47.2441 "/>
<polyline clip-path="url(#clip682)" style="stroke:#000000; stroke-linecap:round; stroke-linejoin:round; stroke-width:2; stroke-opacity:0.1; fill:none" points="203.964,1372.22 1110.81,1372.22 "/>
<polyline clip-path="url(#clip682)" style="stroke:#000000; stroke-linecap:round; stroke-linejoin:round; stroke-width:2; stroke-opacity:0.1; fill:none" points="203.964,933.157 1110.81,933.157 "/>
<polyline clip-path="url(#clip682)" style="stroke:#000000; stroke-linecap:round; stroke-linejoin:round; stroke-width:2; stroke-opacity:0.1; fill:none" points="203.964,494.098 1110.81,494.098 "/>
<polyline clip-path="url(#clip682)" style="stroke:#000000; stroke-linecap:round; stroke-linejoin:round; stroke-width:2; stroke-opacity:0.1; fill:none" points="203.964,55.0393 1110.81,55.0393 "/>
<polyline clip-path="url(#clip680)" style="stroke:#000000; stroke-linecap:round; stroke-linejoin:round; stroke-width:4; stroke-opacity:1; fill:none" points="203.964,1423.18 1110.81,1423.18 "/>
<polyline clip-path="url(#clip680)" style="stroke:#000000; stroke-linecap:round; stroke-linejoin:round; stroke-width:4; stroke-opacity:1; fill:none" points="229.629,1423.18 229.629,1404.28 "/>
<polyline clip-path="url(#clip680)" style="stroke:#000000; stroke-linecap:round; stroke-linejoin:round; stroke-width:4; stroke-opacity:1; fill:none" points="481.252,1423.18 481.252,1404.28 "/>
<polyline clip-path="url(#clip680)" style="stroke:#000000; stroke-linecap:round; stroke-linejoin:round; stroke-width:4; stroke-opacity:1; fill:none" points="732.874,1423.18 732.874,1404.28 "/>
<polyline clip-path="url(#clip680)" style="stroke:#000000; stroke-linecap:round; stroke-linejoin:round; stroke-width:4; stroke-opacity:1; fill:none" points="984.497,1423.18 984.497,1404.28 "/>
<path clip-path="url(#clip680)" d="M229.629 1454.1 Q226.018 1454.1 224.189 1457.66 Q222.384 1461.2 222.384 1468.33 Q222.384 1475.44 224.189 1479.01 Q226.018 1482.55 229.629 1482.55 Q233.263 1482.55 235.069 1479.01 Q236.898 1475.44 236.898 1468.33 Q236.898 1461.2 235.069 1457.66 Q233.263 1454.1 229.629 1454.1 M229.629 1450.39 Q235.439 1450.39 238.495 1455 Q241.573 1459.58 241.573 1468.33 Q241.573 1477.06 238.495 1481.67 Q235.439 1486.25 229.629 1486.25 Q223.819 1486.25 220.74 1481.67 Q217.685 1477.06 217.685 1468.33 Q217.685 1459.58 220.74 1455 Q223.819 1450.39 229.629 1450.39 Z" fill="#000000" fill-rule="nonzero" fill-opacity="1" /><path clip-path="url(#clip680)" d="M471.634 1481.64 L479.273 1481.64 L479.273 1455.28 L470.962 1456.95 L470.962 1452.69 L479.226 1451.02 L483.902 1451.02 L483.902 1481.64 L491.541 1481.64 L491.541 1485.58 L471.634 1485.58 L471.634 1481.64 Z" fill="#000000" fill-rule="nonzero" fill-opacity="1" /><path clip-path="url(#clip680)" d="M727.527 1481.64 L743.847 1481.64 L743.847 1485.58 L721.902 1485.58 L721.902 1481.64 Q724.564 1478.89 729.148 1474.26 Q733.754 1469.61 734.935 1468.27 Q737.18 1465.74 738.06 1464.01 Q738.962 1462.25 738.962 1460.56 Q738.962 1457.8 737.018 1456.07 Q735.097 1454.33 731.995 1454.33 Q729.796 1454.33 727.342 1455.09 Q724.912 1455.86 722.134 1457.41 L722.134 1452.69 Q724.958 1451.55 727.411 1450.97 Q729.865 1450.39 731.902 1450.39 Q737.273 1450.39 740.467 1453.08 Q743.661 1455.77 743.661 1460.26 Q743.661 1462.39 742.851 1464.31 Q742.064 1466.2 739.958 1468.8 Q739.379 1469.47 736.277 1472.69 Q733.175 1475.88 727.527 1481.64 Z" fill="#000000" fill-rule="nonzero" fill-opacity="1" /><path clip-path="url(#clip680)" d="M988.745 1466.95 Q992.101 1467.66 993.976 1469.93 Q995.874 1472.2 995.874 1475.53 Q995.874 1480.65 992.356 1483.45 Q988.837 1486.25 982.356 1486.25 Q980.18 1486.25 977.865 1485.81 Q975.574 1485.39 973.12 1484.54 L973.12 1480.02 Q975.064 1481.16 977.379 1481.74 Q979.694 1482.32 982.217 1482.32 Q986.615 1482.32 988.907 1480.58 Q991.222 1478.84 991.222 1475.53 Q991.222 1472.48 989.069 1470.77 Q986.939 1469.03 983.12 1469.03 L979.092 1469.03 L979.092 1465.19 L983.305 1465.19 Q986.754 1465.19 988.583 1463.82 Q990.411 1462.43 990.411 1459.84 Q990.411 1457.18 988.513 1455.77 Q986.638 1454.33 983.12 1454.33 Q981.199 1454.33 978.999 1454.75 Q976.8 1455.16 974.162 1456.04 L974.162 1451.88 Q976.824 1451.14 979.138 1450.77 Q981.476 1450.39 983.536 1450.39 Q988.861 1450.39 991.962 1452.83 Q995.064 1455.23 995.064 1459.35 Q995.064 1462.22 993.421 1464.21 Q991.777 1466.18 988.745 1466.95 Z" fill="#000000" fill-rule="nonzero" fill-opacity="1" /><path clip-path="url(#clip680)" d="M527.559 1520.52 L567.758 1520.52 L567.758 1525.93 L550.889 1525.93 L550.889 1568.04 L544.428 1568.04 L544.428 1525.93 L527.559 1525.93 L527.559 1520.52 Z" fill="#000000" fill-rule="nonzero" fill-opacity="1" /><path clip-path="url(#clip680)" d="M571.705 1532.4 L577.562 1532.4 L577.562 1568.04 L571.705 1568.04 L571.705 1532.4 M571.705 1518.52 L577.562 1518.52 L577.562 1525.93 L571.705 1525.93 L571.705 1518.52 Z" fill="#000000" fill-rule="nonzero" fill-opacity="1" /><path clip-path="url(#clip680)" d="M617.57 1539.24 Q619.766 1535.29 622.822 1533.41 Q625.877 1531.54 630.015 1531.54 Q635.585 1531.54 638.609 1535.45 Q641.633 1539.33 641.633 1546.53 L641.633 1568.04 L635.744 1568.04 L635.744 1546.72 Q635.744 1541.59 633.93 1539.11 Q632.116 1536.63 628.392 1536.63 Q623.84 1536.63 621.199 1539.65 Q618.557 1542.68 618.557 1547.9 L618.557 1568.04 L612.669 1568.04 L612.669 1546.72 Q612.669 1541.56 610.854 1539.11 Q609.04 1536.63 605.252 1536.63 Q600.765 1536.63 598.123 1539.68 Q595.481 1542.71 595.481 1547.9 L595.481 1568.04 L589.593 1568.04 L589.593 1532.4 L595.481 1532.4 L595.481 1537.93 Q597.486 1534.66 600.287 1533.1 Q603.088 1531.54 606.939 1531.54 Q610.822 1531.54 613.528 1533.51 Q616.265 1535.48 617.57 1539.24 Z" fill="#000000" fill-rule="nonzero" fill-opacity="1" /><path clip-path="url(#clip680)" d="M683.805 1548.76 L683.805 1551.62 L656.878 1551.62 Q657.26 1557.67 660.507 1560.85 Q663.785 1564 669.61 1564 Q672.984 1564 676.135 1563.17 Q679.317 1562.35 682.437 1560.69 L682.437 1566.23 Q679.286 1567.57 675.975 1568.27 Q672.665 1568.97 669.26 1568.97 Q660.73 1568.97 655.733 1564 Q650.767 1559.04 650.767 1550.57 Q650.767 1541.82 655.478 1536.69 Q660.22 1531.54 668.241 1531.54 Q675.434 1531.54 679.604 1536.18 Q683.805 1540.8 683.805 1548.76 M677.949 1547.04 Q677.885 1542.23 675.243 1539.37 Q672.633 1536.5 668.305 1536.5 Q663.403 1536.5 660.443 1539.27 Q657.515 1542.04 657.069 1547.07 L677.949 1547.04 Z" fill="#000000" fill-rule="nonzero" fill-opacity="1" /><path clip-path="url(#clip680)" d="M728.206 1518.58 Q723.941 1525.9 721.872 1533.06 Q719.803 1540.23 719.803 1547.58 Q719.803 1554.93 721.872 1562.16 Q723.973 1569.35 728.206 1576.64 L723.114 1576.64 Q718.339 1569.16 715.952 1561.93 Q713.597 1554.71 713.597 1547.58 Q713.597 1540.48 715.952 1533.29 Q718.307 1526.09 723.114 1518.58 L728.206 1518.58 Z" fill="#000000" fill-rule="nonzero" fill-opacity="1" /><path clip-path="url(#clip680)" d="M762.294 1533.45 L762.294 1538.98 Q759.812 1537.71 757.138 1537.07 Q754.465 1536.44 751.6 1536.44 Q747.24 1536.44 745.043 1537.77 Q742.879 1539.11 742.879 1541.79 Q742.879 1543.82 744.439 1545 Q745.998 1546.15 750.709 1547.2 L752.714 1547.64 Q758.952 1548.98 761.562 1551.43 Q764.204 1553.85 764.204 1558.21 Q764.204 1563.17 760.257 1566.07 Q756.343 1568.97 749.468 1568.97 Q746.603 1568.97 743.484 1568.39 Q740.396 1567.85 736.959 1566.74 L736.959 1560.69 Q740.205 1562.38 743.356 1563.24 Q746.508 1564.07 749.595 1564.07 Q753.733 1564.07 755.961 1562.66 Q758.189 1561.23 758.189 1558.65 Q758.189 1556.27 756.565 1554.99 Q754.974 1553.72 749.531 1552.54 L747.494 1552.07 Q742.052 1550.92 739.633 1548.56 Q737.214 1546.18 737.214 1542.04 Q737.214 1537.01 740.778 1534.27 Q744.343 1531.54 750.9 1531.54 Q754.146 1531.54 757.011 1532.01 Q759.876 1532.49 762.294 1533.45 Z" fill="#000000" fill-rule="nonzero" fill-opacity="1" /><path clip-path="url(#clip680)" d="M772.607 1518.58 L777.699 1518.58 Q782.474 1526.09 784.829 1533.29 Q787.216 1540.48 787.216 1547.58 Q787.216 1554.71 784.829 1561.93 Q782.474 1569.16 777.699 1576.64 L772.607 1576.64 Q776.84 1569.35 778.909 1562.16 Q781.01 1554.93 781.01 1547.58 Q781.01 1540.23 778.909 1533.06 Q776.84 1525.9 772.607 1518.58 Z" fill="#000000" fill-rule="nonzero" fill-opacity="1" /><polyline clip-path="url(#clip680)" style="stroke:#000000; stroke-linecap:round; stroke-linejoin:round; stroke-width:4; stroke-opacity:1; fill:none" points="203.964,1423.18 203.964,47.2441 "/>
<polyline clip-path="url(#clip680)" style="stroke:#000000; stroke-linecap:round; stroke-linejoin:round; stroke-width:4; stroke-opacity:1; fill:none" points="203.964,1372.22 222.861,1372.22 "/>
<polyline clip-path="url(#clip680)" style="stroke:#000000; stroke-linecap:round; stroke-linejoin:round; stroke-width:4; stroke-opacity:1; fill:none" points="203.964,933.157 222.861,933.157 "/>
<polyline clip-path="url(#clip680)" style="stroke:#000000; stroke-linecap:round; stroke-linejoin:round; stroke-width:4; stroke-opacity:1; fill:none" points="203.964,494.098 222.861,494.098 "/>
<polyline clip-path="url(#clip680)" style="stroke:#000000; stroke-linecap:round; stroke-linejoin:round; stroke-width:4; stroke-opacity:1; fill:none" points="203.964,55.0393 222.861,55.0393 "/>
<path clip-path="url(#clip680)" d="M156.019 1358.01 Q152.408 1358.01 150.579 1361.58 Q148.774 1365.12 148.774 1372.25 Q148.774 1379.36 150.579 1382.92 Q152.408 1386.46 156.019 1386.46 Q159.653 1386.46 161.459 1382.92 Q163.288 1379.36 163.288 1372.25 Q163.288 1365.12 161.459 1361.58 Q159.653 1358.01 156.019 1358.01 M156.019 1354.31 Q161.829 1354.31 164.885 1358.92 Q167.964 1363.5 167.964 1372.25 Q167.964 1380.98 164.885 1385.58 Q161.829 1390.17 156.019 1390.17 Q150.209 1390.17 147.13 1385.58 Q144.075 1380.98 144.075 1372.25 Q144.075 1363.5 147.13 1358.92 Q150.209 1354.31 156.019 1354.31 Z" fill="#000000" fill-rule="nonzero" fill-opacity="1" /><path clip-path="url(#clip680)" d="M116.668 946.502 L124.306 946.502 L124.306 920.136 L115.996 921.803 L115.996 917.544 L124.26 915.877 L128.936 915.877 L128.936 946.502 L136.575 946.502 L136.575 950.437 L116.668 950.437 L116.668 946.502 Z" fill="#000000" fill-rule="nonzero" fill-opacity="1" /><path clip-path="url(#clip680)" d="M156.019 918.956 Q152.408 918.956 150.579 922.521 Q148.774 926.062 148.774 933.192 Q148.774 940.298 150.579 943.863 Q152.408 947.405 156.019 947.405 Q159.653 947.405 161.459 943.863 Q163.288 940.298 163.288 933.192 Q163.288 926.062 161.459 922.521 Q159.653 918.956 156.019 918.956 M156.019 915.252 Q161.829 915.252 164.885 919.859 Q167.964 924.442 167.964 933.192 Q167.964 941.919 164.885 946.525 Q161.829 951.109 156.019 951.109 Q150.209 951.109 147.13 946.525 Q144.075 941.919 144.075 933.192 Q144.075 924.442 147.13 919.859 Q150.209 915.252 156.019 915.252 Z" fill="#000000" fill-rule="nonzero" fill-opacity="1" /><path clip-path="url(#clip680)" d="M119.885 507.443 L136.204 507.443 L136.204 511.378 L114.26 511.378 L114.26 507.443 Q116.922 504.688 121.505 500.059 Q126.112 495.406 127.292 494.064 Q129.538 491.54 130.417 489.804 Q131.32 488.045 131.32 486.355 Q131.32 483.601 129.376 481.865 Q127.455 480.128 124.353 480.128 Q122.154 480.128 119.7 480.892 Q117.269 481.656 114.492 483.207 L114.492 478.485 Q117.316 477.351 119.769 476.772 Q122.223 476.193 124.26 476.193 Q129.63 476.193 132.825 478.878 Q136.019 481.564 136.019 486.054 Q136.019 488.184 135.209 490.105 Q134.422 492.003 132.316 494.596 Q131.737 495.267 128.635 498.485 Q125.533 501.679 119.885 507.443 Z" fill="#000000" fill-rule="nonzero" fill-opacity="1" /><path clip-path="url(#clip680)" d="M156.019 479.897 Q152.408 479.897 150.579 483.462 Q148.774 487.003 148.774 494.133 Q148.774 501.239 150.579 504.804 Q152.408 508.346 156.019 508.346 Q159.653 508.346 161.459 504.804 Q163.288 501.239 163.288 494.133 Q163.288 487.003 161.459 483.462 Q159.653 479.897 156.019 479.897 M156.019 476.193 Q161.829 476.193 164.885 480.8 Q167.964 485.383 167.964 494.133 Q167.964 502.86 164.885 507.466 Q161.829 512.05 156.019 512.05 Q150.209 512.05 147.13 507.466 Q144.075 502.86 144.075 494.133 Q144.075 485.383 147.13 480.8 Q150.209 476.193 156.019 476.193 Z" fill="#000000" fill-rule="nonzero" fill-opacity="1" /><path clip-path="url(#clip680)" d="M130.024 53.6851 Q133.38 54.4027 135.255 56.6712 Q137.154 58.9397 137.154 62.2731 Q137.154 67.3888 133.635 70.1897 Q130.117 72.9906 123.635 72.9906 Q121.459 72.9906 119.144 72.5508 Q116.853 72.1341 114.399 71.2776 L114.399 66.7638 Q116.343 67.898 118.658 68.4767 Q120.973 69.0554 123.496 69.0554 Q127.894 69.0554 130.186 67.3193 Q132.501 65.5832 132.501 62.2731 Q132.501 59.2175 130.348 57.5046 Q128.218 55.7685 124.399 55.7685 L120.371 55.7685 L120.371 51.9259 L124.584 51.9259 Q128.033 51.9259 129.862 50.5602 Q131.691 49.1713 131.691 46.5787 Q131.691 43.9167 129.792 42.5046 Q127.917 41.0695 124.399 41.0695 Q122.478 41.0695 120.279 41.4861 Q118.08 41.9028 115.441 42.7824 L115.441 38.6158 Q118.103 37.875 120.418 37.5047 Q122.755 37.1343 124.816 37.1343 Q130.14 37.1343 133.242 39.5648 Q136.343 41.9722 136.343 46.0926 Q136.343 48.9629 134.7 50.9537 Q133.056 52.9213 130.024 53.6851 Z" fill="#000000" fill-rule="nonzero" fill-opacity="1" /><path clip-path="url(#clip680)" d="M156.019 40.838 Q152.408 40.838 150.579 44.4028 Q148.774 47.9444 148.774 55.074 Q148.774 62.1805 150.579 65.7453 Q152.408 69.2869 156.019 69.2869 Q159.653 69.2869 161.459 65.7453 Q163.288 62.1805 163.288 55.074 Q163.288 47.9444 161.459 44.4028 Q159.653 40.838 156.019 40.838 M156.019 37.1343 Q161.829 37.1343 164.885 41.7408 Q167.964 46.3241 167.964 55.074 Q167.964 63.8008 164.885 68.4073 Q161.829 72.9906 156.019 72.9906 Q150.209 72.9906 147.13 68.4073 Q144.075 63.8008 144.075 55.074 Q144.075 46.3241 147.13 41.7408 Q150.209 37.1343 156.019 37.1343 Z" fill="#000000" fill-rule="nonzero" fill-opacity="1" /><path clip-path="url(#clip680)" d="M39.4334 772.564 Q44.844 772.564 50.9309 774.303 Q56.9856 776.01 61.8809 778.715 Q66.744 781.42 69.9646 784.963 Q73.153 788.505 73.153 791.887 Q73.153 794.045 71.9613 795.655 Q70.7375 797.233 68.7085 798.103 Q66.6474 798.972 64.393 799.391 Q62.1063 799.81 59.6265 799.81 Q55.9228 799.81 51.8971 799.005 Q47.8391 798.199 44.1677 796.847 Q40.464 795.494 37.1146 793.594 Q33.733 791.694 31.2853 789.6 Q28.8055 787.475 27.3562 785.092 Q25.907 782.708 25.907 780.486 Q25.907 778.876 26.6155 777.588 Q27.2918 776.267 28.4834 775.43 Q29.6428 774.593 31.0277 774.013 Q32.4125 773.401 34.0228 773.111 Q35.6009 772.821 36.9214 772.692 Q38.2096 772.564 39.4334 772.564 M35.3433 776.911 Q33.7008 776.911 32.477 777.04 Q31.2209 777.169 29.9649 777.523 Q28.7089 777.878 28.0325 778.65 Q27.3562 779.391 27.3562 780.551 Q27.3562 783.932 34.2805 787.733 Q36.4383 788.956 39.369 790.051 Q42.2997 791.146 43.6846 791.533 Q45.0694 791.919 48.4833 792.821 L48.4833 779.037 Q39.6911 776.911 35.3433 776.911 M50.5766 779.617 L50.5766 793.336 Q58.6281 795.462 63.6522 795.462 Q68.0322 795.462 69.868 794.56 Q71.6715 793.626 71.6715 791.887 Q71.6715 789.89 69.6747 788.022 Q67.6458 786.154 63.9743 784.254 Q59.2078 781.742 50.5766 779.617 Z" fill="#000000" fill-rule="nonzero" fill-opacity="1" /><path clip-path="url(#clip680)" d="M22.9507 728.256 Q30.2712 732.521 37.4327 734.59 Q44.5941 736.658 51.9465 736.658 Q59.2989 736.658 66.5239 734.59 Q73.7172 732.489 81.0059 728.256 L81.0059 733.348 Q73.5262 738.123 66.3011 740.51 Q59.0761 742.865 51.9465 742.865 Q44.8487 742.865 37.6555 740.51 Q30.4622 738.154 22.9507 733.348 L22.9507 728.256 Z" fill="#000000" fill-rule="nonzero" fill-opacity="1" /><path clip-path="url(#clip680)" d="M28.1387 706.74 Q28.1387 709.286 29.9211 711.036 Q31.6717 712.787 34.218 712.787 Q36.7324 712.787 38.483 711.036 Q40.2017 709.286 40.2017 706.74 Q40.2017 704.193 38.483 702.443 Q36.7324 700.692 34.218 700.692 Q31.7035 700.692 29.9211 702.475 Q28.1387 704.225 28.1387 706.74 M24.0328 706.74 Q24.0328 704.703 24.8286 702.825 Q25.5924 700.947 27.0566 699.578 Q28.4888 698.114 30.3031 697.382 Q32.1173 696.65 34.218 696.65 Q38.4193 696.65 41.3476 699.61 Q44.244 702.538 44.244 706.803 Q44.244 711.1 41.3794 713.965 Q38.5148 716.829 34.218 716.829 Q29.953 716.829 26.9929 713.901 Q24.0328 710.973 24.0328 706.74 Z" fill="#000000" fill-rule="nonzero" fill-opacity="1" /><path clip-path="url(#clip680)" d="M22.9507 685.224 L22.9507 680.131 Q30.4622 675.357 37.6555 673.001 Q44.8487 670.614 51.9465 670.614 Q59.0761 670.614 66.3011 673.001 Q73.5262 675.357 81.0059 680.131 L81.0059 685.224 Q73.7172 680.99 66.5239 678.921 Q59.2989 676.821 51.9465 676.821 Q44.5941 676.821 37.4327 678.921 Q30.2712 680.99 22.9507 685.224 Z" fill="#000000" fill-rule="nonzero" fill-opacity="1" /><polyline clip-path="url(#clip682)" style="stroke:#009af9; stroke-linecap:round; stroke-linejoin:round; stroke-width:4; stroke-opacity:1; fill:none" points="229.629,1384.24 254.791,1243.01 279.954,1045.29 305.116,741.475 330.278,458.762 355.44,282.376 380.603,157.047 405.765,86.1857 430.927,101.889 456.089,99.3207 481.252,195.7 506.414,211.095 531.576,210.538 556.739,301.428 581.901,258.709 607.063,272.056 632.225,303.398 657.388,276.28 682.55,292.496 707.712,261.819 732.874,326.26 758.037,278.413 783.199,290.66 808.361,269.659 833.524,293.974 858.686,274.622 883.848,271.791 909.01,282.156 934.173,282.562 959.335,252.467 984.497,239.119 1009.66,251.631 1034.82,253.315 1059.98,234.196 1085.15,265.21 "/>
<polyline clip-path="url(#clip682)" style="stroke:#e26f46; stroke-linecap:round; stroke-linejoin:round; stroke-width:3; stroke-opacity:1; fill:none" stroke-dasharray="12, 6, 2, 6" points="229.629,1383.88 254.791,1249.22 279.954,1037.3 305.116,743.277 330.278,461.41 355.44,277.491 380.603,157.722 405.765,91.2401 430.927,101.169 456.089,108.815 481.252,189.698 506.414,220.606 531.576,222.173 556.739,291.424 581.901,271.686 607.063,273.015 632.225,297.733 657.388,281.549 682.55,289.282 707.712,266.851 732.874,313.052 758.037,286.937 783.199,288.53 808.361,272.695 833.524,288.633 858.686,277.874 883.848,272.521 909.01,279.934 934.173,282.48 959.335,258.649 984.497,241.867 1009.66,248.959 1034.82,253.277 1059.98,238.97 1085.15,260.141 "/>
<path clip-path="url(#clip680)" d="M961.069 1377.32 L1080.58 1377.32 L1080.58 1221.8 L961.069 1221.8  Z" fill="#ffffff" fill-rule="evenodd" fill-opacity="1"/>
<polyline clip-path="url(#clip680)" style="stroke:#000000; stroke-linecap:round; stroke-linejoin:round; stroke-width:4; stroke-opacity:1; fill:none" points="961.069,1377.32 1080.58,1377.32 1080.58,1221.8 961.069,1221.8 961.069,1377.32 "/>
<polyline clip-path="url(#clip680)" style="stroke:#009af9; stroke-linecap:round; stroke-linejoin:round; stroke-width:4; stroke-opacity:1; fill:none" points="971.145,1273.64 1031.6,1273.64 "/>
<path clip-path="url(#clip680)" d="M1068.45 1260.37 Q1066.97 1260.37 1066.22 1260.51 Q1065.48 1260.63 1065.29 1260.8 Q1065.1 1260.96 1064.89 1261.38 L1054.58 1283.3 Q1053.48 1285.65 1051.42 1287.33 Q1049.38 1289.02 1046.81 1289.02 Q1044.65 1289.02 1043.15 1287.71 Q1041.68 1286.42 1041.68 1284.59 Q1041.68 1283.28 1042.5 1282.53 Q1043.32 1281.81 1044.42 1281.81 Q1045.64 1281.81 1046.41 1282.58 Q1047.21 1283.35 1047.21 1284.55 Q1047.21 1285.32 1046.88 1285.9 Q1046.55 1286.51 1046.25 1286.72 Q1045.96 1286.96 1045.66 1287.1 Q1046.15 1287.29 1046.81 1287.29 Q1047.79 1287.29 1048.63 1286.89 Q1049.5 1286.51 1050.06 1286 Q1050.65 1285.51 1051.23 1284.62 Q1051.82 1283.75 1052.1 1283.19 Q1052.38 1282.65 1052.8 1281.71 L1053.9 1279.42 L1044.93 1260.37 L1041.87 1260.37 L1041.87 1258.13 L1047.35 1258.27 L1053.3 1258.13 L1053.3 1260.37 L1050.7 1260.37 L1056.79 1273.33 L1062.31 1261.52 L1062.55 1260.96 Q1062.55 1260.7 1061.99 1260.56 Q1061.42 1260.4 1060.86 1260.4 L1060.3 1260.37 L1060.3 1258.13 L1064.66 1258.27 Q1066.72 1258.27 1068.45 1258.13 L1068.45 1260.37 Z" fill="#000000" fill-rule="nonzero" fill-opacity="1" /><polyline clip-path="url(#clip680)" style="stroke:#e26f46; stroke-linecap:round; stroke-linejoin:round; stroke-width:3; stroke-opacity:1; fill:none" stroke-dasharray="12, 6, 2, 6" points="971.145,1325.48 1031.6,1325.48 "/>
<path clip-path="url(#clip680)" d="M1064.26 1309.2 L1063.85 1309.87 Q1061.31 1308.77 1058.15 1307.01 Q1054.98 1308.77 1052.44 1309.87 L1052.05 1309.2 Q1054.82 1306.79 1058.15 1304.93 Q1061.51 1306.8 1064.26 1309.2 Z" fill="#000000" fill-rule="nonzero" fill-opacity="1" /><path clip-path="url(#clip680)" d="M1068.45 1317.22 Q1066.97 1317.22 1066.22 1317.36 Q1065.48 1317.48 1065.29 1317.64 Q1065.1 1317.8 1064.89 1318.23 L1054.58 1340.15 Q1053.48 1342.49 1051.42 1344.18 Q1049.38 1345.86 1046.81 1345.86 Q1044.65 1345.86 1043.15 1344.55 Q1041.68 1343.26 1041.68 1341.44 Q1041.68 1340.13 1042.5 1339.38 Q1043.32 1338.65 1044.42 1338.65 Q1045.64 1338.65 1046.41 1339.42 Q1047.21 1340.2 1047.21 1341.39 Q1047.21 1342.16 1046.88 1342.75 Q1046.55 1343.36 1046.25 1343.57 Q1045.96 1343.8 1045.66 1343.94 Q1046.15 1344.13 1046.81 1344.13 Q1047.79 1344.13 1048.63 1343.73 Q1049.5 1343.36 1050.06 1342.84 Q1050.65 1342.35 1051.23 1341.46 Q1051.82 1340.59 1052.1 1340.03 Q1052.38 1339.49 1052.8 1338.56 L1053.9 1336.26 L1044.93 1317.22 L1041.87 1317.22 L1041.87 1314.97 L1047.35 1315.11 L1053.3 1314.97 L1053.3 1317.22 L1050.7 1317.22 L1056.79 1330.17 L1062.31 1318.37 L1062.55 1317.8 Q1062.55 1317.55 1061.99 1317.41 Q1061.42 1317.24 1060.86 1317.24 L1060.3 1317.22 L1060.3 1314.97 L1064.66 1315.11 Q1066.72 1315.11 1068.45 1314.97 L1068.45 1317.22 Z" fill="#000000" fill-rule="nonzero" fill-opacity="1" /><path clip-path="url(#clip680)" d="M1445.91 398.692 L2352.76 398.692 L2352.76 47.2441 L1445.91 47.2441  Z" fill="#ffffff" fill-rule="evenodd" fill-opacity="1"/>
<defs>
  <clipPath id="clip683">
    <rect x="1445" y="47" width="908" height="352"/>
  </clipPath>
</defs>
<polyline clip-path="url(#clip683)" style="stroke:#000000; stroke-linecap:round; stroke-linejoin:round; stroke-width:2; stroke-opacity:0.1; fill:none" points="1471.57,398.692 1471.57,47.2441 "/>
<polyline clip-path="url(#clip683)" style="stroke:#000000; stroke-linecap:round; stroke-linejoin:round; stroke-width:2; stroke-opacity:0.1; fill:none" points="1723.2,398.692 1723.2,47.2441 "/>
<polyline clip-path="url(#clip683)" style="stroke:#000000; stroke-linecap:round; stroke-linejoin:round; stroke-width:2; stroke-opacity:0.1; fill:none" points="1974.82,398.692 1974.82,47.2441 "/>
<polyline clip-path="url(#clip683)" style="stroke:#000000; stroke-linecap:round; stroke-linejoin:round; stroke-width:2; stroke-opacity:0.1; fill:none" points="2226.44,398.692 2226.44,47.2441 "/>
<polyline clip-path="url(#clip683)" style="stroke:#000000; stroke-linecap:round; stroke-linejoin:round; stroke-width:2; stroke-opacity:0.1; fill:none" points="1445.91,385.753 2352.76,385.753 "/>
<polyline clip-path="url(#clip683)" style="stroke:#000000; stroke-linecap:round; stroke-linejoin:round; stroke-width:2; stroke-opacity:0.1; fill:none" points="1445.91,321.229 2352.76,321.229 "/>
<polyline clip-path="url(#clip683)" style="stroke:#000000; stroke-linecap:round; stroke-linejoin:round; stroke-width:2; stroke-opacity:0.1; fill:none" points="1445.91,256.705 2352.76,256.705 "/>
<polyline clip-path="url(#clip683)" style="stroke:#000000; stroke-linecap:round; stroke-linejoin:round; stroke-width:2; stroke-opacity:0.1; fill:none" points="1445.91,192.181 2352.76,192.181 "/>
<polyline clip-path="url(#clip683)" style="stroke:#000000; stroke-linecap:round; stroke-linejoin:round; stroke-width:2; stroke-opacity:0.1; fill:none" points="1445.91,127.656 2352.76,127.656 "/>
<polyline clip-path="url(#clip683)" style="stroke:#000000; stroke-linecap:round; stroke-linejoin:round; stroke-width:2; stroke-opacity:0.1; fill:none" points="1445.91,63.1324 2352.76,63.1324 "/>
<polyline clip-path="url(#clip680)" style="stroke:#000000; stroke-linecap:round; stroke-linejoin:round; stroke-width:4; stroke-opacity:1; fill:none" points="1445.91,398.692 2352.76,398.692 "/>
<polyline clip-path="url(#clip680)" style="stroke:#000000; stroke-linecap:round; stroke-linejoin:round; stroke-width:4; stroke-opacity:1; fill:none" points="1471.57,398.692 1471.57,379.794 "/>
<polyline clip-path="url(#clip680)" style="stroke:#000000; stroke-linecap:round; stroke-linejoin:round; stroke-width:4; stroke-opacity:1; fill:none" points="1723.2,398.692 1723.2,379.794 "/>
<polyline clip-path="url(#clip680)" style="stroke:#000000; stroke-linecap:round; stroke-linejoin:round; stroke-width:4; stroke-opacity:1; fill:none" points="1974.82,398.692 1974.82,379.794 "/>
<polyline clip-path="url(#clip680)" style="stroke:#000000; stroke-linecap:round; stroke-linejoin:round; stroke-width:4; stroke-opacity:1; fill:none" points="2226.44,398.692 2226.44,379.794 "/>
<path clip-path="url(#clip680)" d="M1471.57 429.611 Q1467.96 429.611 1466.13 433.175 Q1464.33 436.717 1464.33 443.847 Q1464.33 450.953 1466.13 454.518 Q1467.96 458.059 1471.57 458.059 Q1475.21 458.059 1477.01 454.518 Q1478.84 450.953 1478.84 443.847 Q1478.84 436.717 1477.01 433.175 Q1475.21 429.611 1471.57 429.611 M1471.57 425.907 Q1477.38 425.907 1480.44 430.513 Q1483.52 435.097 1483.52 443.847 Q1483.52 452.573 1480.44 457.18 Q1477.38 461.763 1471.57 461.763 Q1465.76 461.763 1462.68 457.18 Q1459.63 452.573 1459.63 443.847 Q1459.63 435.097 1462.68 430.513 Q1465.76 425.907 1471.57 425.907 Z" fill="#000000" fill-rule="nonzero" fill-opacity="1" /><path clip-path="url(#clip680)" d="M1713.58 457.157 L1721.22 457.157 L1721.22 430.791 L1712.91 432.458 L1712.91 428.199 L1721.17 426.532 L1725.85 426.532 L1725.85 457.157 L1733.49 457.157 L1733.49 461.092 L1713.58 461.092 L1713.58 457.157 Z" fill="#000000" fill-rule="nonzero" fill-opacity="1" /><path clip-path="url(#clip680)" d="M1969.47 457.157 L1985.79 457.157 L1985.79 461.092 L1963.85 461.092 L1963.85 457.157 Q1966.51 454.402 1971.09 449.772 Q1975.7 445.12 1976.88 443.777 Q1979.12 441.254 1980 439.518 Q1980.91 437.759 1980.91 436.069 Q1980.91 433.314 1978.96 431.578 Q1977.04 429.842 1973.94 429.842 Q1971.74 429.842 1969.29 430.606 Q1966.86 431.37 1964.08 432.921 L1964.08 428.199 Q1966.9 427.064 1969.36 426.486 Q1971.81 425.907 1973.85 425.907 Q1979.22 425.907 1982.41 428.592 Q1985.61 431.277 1985.61 435.768 Q1985.61 437.898 1984.8 439.819 Q1984.01 441.717 1981.9 444.31 Q1981.32 444.981 1978.22 448.198 Q1975.12 451.393 1969.47 457.157 Z" fill="#000000" fill-rule="nonzero" fill-opacity="1" /><path clip-path="url(#clip680)" d="M2230.69 442.458 Q2234.05 443.175 2235.92 445.444 Q2237.82 447.712 2237.82 451.046 Q2237.82 456.161 2234.3 458.962 Q2230.78 461.763 2224.3 461.763 Q2222.12 461.763 2219.81 461.323 Q2217.52 460.907 2215.06 460.05 L2215.06 455.536 Q2217.01 456.671 2219.32 457.249 Q2221.64 457.828 2224.16 457.828 Q2228.56 457.828 2230.85 456.092 Q2233.17 454.356 2233.17 451.046 Q2233.17 447.99 2231.01 446.277 Q2228.88 444.541 2225.06 444.541 L2221.04 444.541 L2221.04 440.698 L2225.25 440.698 Q2228.7 440.698 2230.53 439.333 Q2232.36 437.944 2232.36 435.351 Q2232.36 432.689 2230.46 431.277 Q2228.58 429.842 2225.06 429.842 Q2223.14 429.842 2220.94 430.259 Q2218.74 430.675 2216.11 431.555 L2216.11 427.388 Q2218.77 426.648 2221.08 426.277 Q2223.42 425.907 2225.48 425.907 Q2230.8 425.907 2233.91 428.337 Q2237.01 430.745 2237.01 434.865 Q2237.01 437.736 2235.36 439.726 Q2233.72 441.694 2230.69 442.458 Z" fill="#000000" fill-rule="nonzero" fill-opacity="1" /><polyline clip-path="url(#clip680)" style="stroke:#000000; stroke-linecap:round; stroke-linejoin:round; stroke-width:4; stroke-opacity:1; fill:none" points="1445.91,398.692 1445.91,47.2441 "/>
<polyline clip-path="url(#clip680)" style="stroke:#000000; stroke-linecap:round; stroke-linejoin:round; stroke-width:4; stroke-opacity:1; fill:none" points="1445.91,385.753 1464.81,385.753 "/>
<polyline clip-path="url(#clip680)" style="stroke:#000000; stroke-linecap:round; stroke-linejoin:round; stroke-width:4; stroke-opacity:1; fill:none" points="1445.91,321.229 1464.81,321.229 "/>
<polyline clip-path="url(#clip680)" style="stroke:#000000; stroke-linecap:round; stroke-linejoin:round; stroke-width:4; stroke-opacity:1; fill:none" points="1445.91,256.705 1464.81,256.705 "/>
<polyline clip-path="url(#clip680)" style="stroke:#000000; stroke-linecap:round; stroke-linejoin:round; stroke-width:4; stroke-opacity:1; fill:none" points="1445.91,192.181 1464.81,192.181 "/>
<polyline clip-path="url(#clip680)" style="stroke:#000000; stroke-linecap:round; stroke-linejoin:round; stroke-width:4; stroke-opacity:1; fill:none" points="1445.91,127.656 1464.81,127.656 "/>
<polyline clip-path="url(#clip680)" style="stroke:#000000; stroke-linecap:round; stroke-linejoin:round; stroke-width:4; stroke-opacity:1; fill:none" points="1445.91,63.1324 1464.81,63.1324 "/>
<path clip-path="url(#clip680)" d="M1352.73 371.551 Q1349.12 371.551 1347.29 375.116 Q1345.49 378.658 1345.49 385.788 Q1345.49 392.894 1347.29 396.459 Q1349.12 400 1352.73 400 Q1356.37 400 1358.17 396.459 Q1360 392.894 1360 385.788 Q1360 378.658 1358.17 375.116 Q1356.37 371.551 1352.73 371.551 M1352.73 367.848 Q1358.54 367.848 1361.6 372.454 Q1364.68 377.038 1364.68 385.788 Q1364.68 394.514 1361.6 399.121 Q1358.54 403.704 1352.73 403.704 Q1346.92 403.704 1343.84 399.121 Q1340.79 394.514 1340.79 385.788 Q1340.79 377.038 1343.84 372.454 Q1346.92 367.848 1352.73 367.848 Z" fill="#000000" fill-rule="nonzero" fill-opacity="1" /><path clip-path="url(#clip680)" d="M1372.89 397.153 L1377.78 397.153 L1377.78 403.033 L1372.89 403.033 L1372.89 397.153 Z" fill="#000000" fill-rule="nonzero" fill-opacity="1" /><path clip-path="url(#clip680)" d="M1397.96 371.551 Q1394.35 371.551 1392.52 375.116 Q1390.72 378.658 1390.72 385.788 Q1390.72 392.894 1392.52 396.459 Q1394.35 400 1397.96 400 Q1401.6 400 1403.4 396.459 Q1405.23 392.894 1405.23 385.788 Q1405.23 378.658 1403.4 375.116 Q1401.6 371.551 1397.96 371.551 M1397.96 367.848 Q1403.77 367.848 1406.83 372.454 Q1409.91 377.038 1409.91 385.788 Q1409.91 394.514 1406.83 399.121 Q1403.77 403.704 1397.96 403.704 Q1392.15 403.704 1389.07 399.121 Q1386.02 394.514 1386.02 385.788 Q1386.02 377.038 1389.07 372.454 Q1392.15 367.848 1397.96 367.848 Z" fill="#000000" fill-rule="nonzero" fill-opacity="1" /><path clip-path="url(#clip680)" d="M1353.96 307.027 Q1350.35 307.027 1348.52 310.592 Q1346.71 314.134 1346.71 321.263 Q1346.71 328.37 1348.52 331.935 Q1350.35 335.476 1353.96 335.476 Q1357.59 335.476 1359.4 331.935 Q1361.23 328.37 1361.23 321.263 Q1361.23 314.134 1359.4 310.592 Q1357.59 307.027 1353.96 307.027 M1353.96 303.324 Q1359.77 303.324 1362.82 307.93 Q1365.9 312.513 1365.9 321.263 Q1365.9 329.99 1362.82 334.597 Q1359.77 339.18 1353.96 339.18 Q1348.15 339.18 1345.07 334.597 Q1342.01 329.99 1342.01 321.263 Q1342.01 312.513 1345.07 307.93 Q1348.15 303.324 1353.96 303.324 Z" fill="#000000" fill-rule="nonzero" fill-opacity="1" /><path clip-path="url(#clip680)" d="M1374.12 332.629 L1379.01 332.629 L1379.01 338.509 L1374.12 338.509 L1374.12 332.629 Z" fill="#000000" fill-rule="nonzero" fill-opacity="1" /><path clip-path="url(#clip680)" d="M1390 334.574 L1397.64 334.574 L1397.64 308.208 L1389.33 309.875 L1389.33 305.615 L1397.59 303.949 L1402.27 303.949 L1402.27 334.574 L1409.91 334.574 L1409.91 338.509 L1390 338.509 L1390 334.574 Z" fill="#000000" fill-rule="nonzero" fill-opacity="1" /><path clip-path="url(#clip680)" d="M1354.33 242.503 Q1350.72 242.503 1348.89 246.068 Q1347.08 249.61 1347.08 256.739 Q1347.08 263.846 1348.89 267.411 Q1350.72 270.952 1354.33 270.952 Q1357.96 270.952 1359.77 267.411 Q1361.6 263.846 1361.6 256.739 Q1361.6 249.61 1359.77 246.068 Q1357.96 242.503 1354.33 242.503 M1354.33 238.8 Q1360.14 238.8 1363.2 243.406 Q1366.27 247.989 1366.27 256.739 Q1366.27 265.466 1363.2 270.073 Q1360.14 274.656 1354.33 274.656 Q1348.52 274.656 1345.44 270.073 Q1342.39 265.466 1342.39 256.739 Q1342.39 247.989 1345.44 243.406 Q1348.52 238.8 1354.33 238.8 Z" fill="#000000" fill-rule="nonzero" fill-opacity="1" /><path clip-path="url(#clip680)" d="M1374.49 268.105 L1379.38 268.105 L1379.38 273.985 L1374.49 273.985 L1374.49 268.105 Z" fill="#000000" fill-rule="nonzero" fill-opacity="1" /><path clip-path="url(#clip680)" d="M1393.59 270.049 L1409.91 270.049 L1409.91 273.985 L1387.96 273.985 L1387.96 270.049 Q1390.63 267.295 1395.21 262.665 Q1399.82 258.012 1401 256.67 Q1403.24 254.147 1404.12 252.411 Q1405.02 250.651 1405.02 248.962 Q1405.02 246.207 1403.08 244.471 Q1401.16 242.735 1398.06 242.735 Q1395.86 242.735 1393.4 243.499 Q1390.97 244.263 1388.19 245.813 L1388.19 241.091 Q1391.02 239.957 1393.47 239.378 Q1395.93 238.8 1397.96 238.8 Q1403.33 238.8 1406.53 241.485 Q1409.72 244.17 1409.72 248.661 Q1409.72 250.79 1408.91 252.712 Q1408.13 254.61 1406.02 257.202 Q1405.44 257.874 1402.34 261.091 Q1399.24 264.286 1393.59 270.049 Z" fill="#000000" fill-rule="nonzero" fill-opacity="1" /><path clip-path="url(#clip680)" d="M1353.38 177.979 Q1349.77 177.979 1347.94 181.544 Q1346.13 185.086 1346.13 192.215 Q1346.13 199.322 1347.94 202.886 Q1349.77 206.428 1353.38 206.428 Q1357.01 206.428 1358.82 202.886 Q1360.65 199.322 1360.65 192.215 Q1360.65 185.086 1358.82 181.544 Q1357.01 177.979 1353.38 177.979 M1353.38 174.276 Q1359.19 174.276 1362.25 178.882 Q1365.32 183.465 1365.32 192.215 Q1365.32 200.942 1362.25 205.549 Q1359.19 210.132 1353.38 210.132 Q1347.57 210.132 1344.49 205.549 Q1341.44 200.942 1341.44 192.215 Q1341.44 183.465 1344.49 178.882 Q1347.57 174.276 1353.38 174.276 Z" fill="#000000" fill-rule="nonzero" fill-opacity="1" /><path clip-path="url(#clip680)" d="M1373.54 203.581 L1378.43 203.581 L1378.43 209.461 L1373.54 209.461 L1373.54 203.581 Z" fill="#000000" fill-rule="nonzero" fill-opacity="1" /><path clip-path="url(#clip680)" d="M1402.78 190.826 Q1406.13 191.544 1408.01 193.812 Q1409.91 196.081 1409.91 199.414 Q1409.91 204.53 1406.39 207.331 Q1402.87 210.132 1396.39 210.132 Q1394.21 210.132 1391.9 209.692 Q1389.61 209.275 1387.15 208.419 L1387.15 203.905 Q1389.1 205.039 1391.41 205.618 Q1393.73 206.197 1396.25 206.197 Q1400.65 206.197 1402.94 204.461 Q1405.26 202.724 1405.26 199.414 Q1405.26 196.359 1403.1 194.646 Q1400.97 192.91 1397.15 192.91 L1393.13 192.91 L1393.13 189.067 L1397.34 189.067 Q1400.79 189.067 1402.62 187.701 Q1404.44 186.313 1404.44 183.72 Q1404.44 181.058 1402.55 179.646 Q1400.67 178.211 1397.15 178.211 Q1395.23 178.211 1393.03 178.627 Q1390.83 179.044 1388.19 179.924 L1388.19 175.757 Q1390.86 175.016 1393.17 174.646 Q1395.51 174.276 1397.57 174.276 Q1402.89 174.276 1406 176.706 Q1409.1 179.113 1409.1 183.234 Q1409.1 186.104 1407.45 188.095 Q1405.81 190.062 1402.78 190.826 Z" fill="#000000" fill-rule="nonzero" fill-opacity="1" /><path clip-path="url(#clip680)" d="M1352.25 113.455 Q1348.63 113.455 1346.81 117.02 Q1345 120.562 1345 127.691 Q1345 134.798 1346.81 138.362 Q1348.63 141.904 1352.25 141.904 Q1355.88 141.904 1357.69 138.362 Q1359.51 134.798 1359.51 127.691 Q1359.51 120.562 1357.69 117.02 Q1355.88 113.455 1352.25 113.455 M1352.25 109.751 Q1358.06 109.751 1361.11 114.358 Q1364.19 118.941 1364.19 127.691 Q1364.19 136.418 1361.11 141.024 Q1358.06 145.608 1352.25 145.608 Q1346.44 145.608 1343.36 141.024 Q1340.3 136.418 1340.3 127.691 Q1340.3 118.941 1343.36 114.358 Q1346.44 109.751 1352.25 109.751 Z" fill="#000000" fill-rule="nonzero" fill-opacity="1" /><path clip-path="url(#clip680)" d="M1372.41 139.057 L1377.29 139.057 L1377.29 144.936 L1372.41 144.936 L1372.41 139.057 Z" fill="#000000" fill-rule="nonzero" fill-opacity="1" /><path clip-path="url(#clip680)" d="M1400.32 114.45 L1388.52 132.899 L1400.32 132.899 L1400.32 114.45 M1399.1 110.376 L1404.98 110.376 L1404.98 132.899 L1409.91 132.899 L1409.91 136.788 L1404.98 136.788 L1404.98 144.936 L1400.32 144.936 L1400.32 136.788 L1384.72 136.788 L1384.72 132.274 L1399.1 110.376 Z" fill="#000000" fill-rule="nonzero" fill-opacity="1" /><path clip-path="url(#clip680)" d="M1353.73 48.931 Q1350.12 48.931 1348.29 52.4958 Q1346.48 56.0375 1346.48 63.1671 Q1346.48 70.2735 1348.29 73.8383 Q1350.12 77.38 1353.73 77.38 Q1357.36 77.38 1359.17 73.8383 Q1361 70.2735 1361 63.1671 Q1361 56.0375 1359.17 52.4958 Q1357.36 48.931 1353.73 48.931 M1353.73 45.2274 Q1359.54 45.2274 1362.59 49.8338 Q1365.67 54.4171 1365.67 63.1671 Q1365.67 71.8939 1362.59 76.5003 Q1359.54 81.0837 1353.73 81.0837 Q1347.92 81.0837 1344.84 76.5003 Q1341.78 71.8939 1341.78 63.1671 Q1341.78 54.4171 1344.84 49.8338 Q1347.92 45.2274 1353.73 45.2274 Z" fill="#000000" fill-rule="nonzero" fill-opacity="1" /><path clip-path="url(#clip680)" d="M1373.89 74.5328 L1378.77 74.5328 L1378.77 80.4124 L1373.89 80.4124 L1373.89 74.5328 Z" fill="#000000" fill-rule="nonzero" fill-opacity="1" /><path clip-path="url(#clip680)" d="M1389.01 45.8524 L1407.36 45.8524 L1407.36 49.7875 L1393.29 49.7875 L1393.29 58.2597 Q1394.31 57.9125 1395.32 57.7504 Q1396.34 57.5653 1397.36 57.5653 Q1403.15 57.5653 1406.53 60.7365 Q1409.91 63.9078 1409.91 69.3245 Q1409.91 74.9031 1406.44 78.005 Q1402.96 81.0837 1396.64 81.0837 Q1394.47 81.0837 1392.2 80.7133 Q1389.95 80.3429 1387.55 79.6022 L1387.55 74.9031 Q1389.63 76.0374 1391.85 76.5929 Q1394.07 77.1485 1396.55 77.1485 Q1400.56 77.1485 1402.89 75.042 Q1405.23 72.9355 1405.23 69.3245 Q1405.23 65.7134 1402.89 63.6069 Q1400.56 61.5004 1396.55 61.5004 Q1394.68 61.5004 1392.8 61.9171 Q1390.95 62.3338 1389.01 63.2134 L1389.01 45.8524 Z" fill="#000000" fill-rule="nonzero" fill-opacity="1" /><path clip-path="url(#clip680)" d="M1265.47 298.084 Q1270.89 298.084 1276.97 299.823 Q1283.03 301.53 1287.92 304.235 Q1292.79 306.941 1296.01 310.483 Q1299.19 314.026 1299.19 317.408 Q1299.19 319.565 1298 321.176 Q1296.78 322.754 1294.75 323.623 Q1292.69 324.493 1290.43 324.912 Q1288.15 325.33 1285.67 325.33 Q1281.96 325.33 1277.94 324.525 Q1273.88 323.72 1270.21 322.367 Q1266.51 321.015 1263.16 319.115 Q1259.77 317.214 1257.33 315.121 Q1254.85 312.995 1253.4 310.612 Q1251.95 308.229 1251.95 306.007 Q1251.95 304.396 1252.66 303.108 Q1253.33 301.788 1254.52 300.95 Q1255.68 300.113 1257.07 299.533 Q1258.45 298.921 1260.06 298.632 Q1261.64 298.342 1262.96 298.213 Q1264.25 298.084 1265.47 298.084 M1261.38 302.432 Q1259.74 302.432 1258.52 302.561 Q1257.26 302.69 1256.01 303.044 Q1254.75 303.398 1254.07 304.171 Q1253.4 304.912 1253.4 306.071 Q1253.4 309.453 1260.32 313.253 Q1262.48 314.477 1265.41 315.572 Q1268.34 316.667 1269.73 317.053 Q1271.11 317.44 1274.52 318.342 L1274.52 304.558 Q1265.73 302.432 1261.38 302.432 M1276.62 305.137 L1276.62 318.857 Q1284.67 320.983 1289.69 320.983 Q1294.07 320.983 1295.91 320.081 Q1297.71 319.147 1297.71 317.408 Q1297.71 315.411 1295.72 313.543 Q1293.69 311.675 1290.02 309.775 Q1285.25 307.263 1276.62 305.137 Z" fill="#000000" fill-rule="nonzero" fill-opacity="1" /><path clip-path="url(#clip680)" d="M1248.99 253.776 Q1256.31 258.041 1263.47 260.11 Q1270.64 262.179 1277.99 262.179 Q1285.34 262.179 1292.57 260.11 Q1299.76 258.009 1307.05 253.776 L1307.05 258.869 Q1299.57 263.643 1292.34 266.03 Q1285.12 268.386 1277.99 268.386 Q1270.89 268.386 1263.7 266.03 Q1256.5 263.675 1248.99 258.869 L1248.99 253.776 Z" fill="#000000" fill-rule="nonzero" fill-opacity="1" /><path clip-path="url(#clip680)" d="M1268.28 221.757 Q1267.71 222.743 1267.45 223.921 Q1267.17 225.067 1267.17 226.467 Q1267.17 231.433 1270.41 234.106 Q1273.63 236.748 1279.67 236.748 L1298.45 236.748 L1298.45 242.636 L1262.81 242.636 L1262.81 236.748 L1268.34 236.748 Q1265.1 234.902 1263.54 231.942 Q1261.95 228.982 1261.95 224.749 Q1261.95 224.144 1262.04 223.412 Q1262.11 222.68 1262.26 221.789 L1268.28 221.757 Z" fill="#000000" fill-rule="nonzero" fill-opacity="1" /><path clip-path="url(#clip680)" d="M1280.53 199.413 Q1280.53 206.511 1282.16 209.248 Q1283.78 211.985 1287.7 211.985 Q1290.81 211.985 1292.66 209.948 Q1294.48 207.879 1294.48 204.347 Q1294.48 199.477 1291.04 196.549 Q1287.57 193.588 1281.84 193.588 L1280.53 193.588 L1280.53 199.413 M1278.12 187.732 L1298.45 187.732 L1298.45 193.588 L1293.04 193.588 Q1296.29 195.594 1297.85 198.586 Q1299.38 201.577 1299.38 205.906 Q1299.38 211.381 1296.32 214.627 Q1293.23 217.842 1288.08 217.842 Q1282.06 217.842 1279.01 213.831 Q1275.95 209.789 1275.95 201.8 L1275.95 193.588 L1275.38 193.588 Q1271.34 193.588 1269.14 196.262 Q1266.91 198.904 1266.91 203.71 Q1266.91 206.766 1267.64 209.662 Q1268.38 212.558 1269.84 215.232 L1264.43 215.232 Q1263.19 212.017 1262.58 208.993 Q1261.95 205.97 1261.95 203.105 Q1261.95 195.371 1265.96 191.551 Q1269.97 187.732 1278.12 187.732 Z" fill="#000000" fill-rule="nonzero" fill-opacity="1" /><path clip-path="url(#clip680)" d="M1268.22 152.211 L1248.93 152.211 L1248.93 146.355 L1298.45 146.355 L1298.45 152.211 L1293.11 152.211 Q1296.29 154.057 1297.85 156.89 Q1299.38 159.691 1299.38 163.638 Q1299.38 170.099 1294.22 174.173 Q1289.06 178.215 1280.66 178.215 Q1272.26 178.215 1267.1 174.173 Q1261.95 170.099 1261.95 163.638 Q1261.95 159.691 1263.51 156.89 Q1265.03 154.057 1268.22 152.211 M1280.66 172.168 Q1287.12 172.168 1290.81 169.526 Q1294.48 166.853 1294.48 162.206 Q1294.48 157.559 1290.81 154.885 Q1287.12 152.211 1280.66 152.211 Q1274.2 152.211 1270.54 154.885 Q1266.85 157.559 1266.85 162.206 Q1266.85 166.853 1270.54 169.526 Q1274.2 172.168 1280.66 172.168 Z" fill="#000000" fill-rule="nonzero" fill-opacity="1" /><path clip-path="url(#clip680)" d="M1248.99 135.215 L1248.99 130.122 Q1256.5 125.348 1263.7 122.993 Q1270.89 120.606 1277.99 120.606 Q1285.12 120.606 1292.34 122.993 Q1299.57 125.348 1307.05 130.122 L1307.05 135.215 Q1299.76 130.982 1292.57 128.913 Q1285.34 126.812 1277.99 126.812 Q1270.64 126.812 1263.47 128.913 Q1256.31 130.982 1248.99 135.215 Z" fill="#000000" fill-rule="nonzero" fill-opacity="1" /><polyline clip-path="url(#clip683)" style="stroke:#009af9; stroke-linecap:round; stroke-linejoin:round; stroke-width:4; stroke-opacity:1; fill:none" points="1471.57,385.753 1496.74,357.733 1521.9,294.172 1547.06,220.979 1572.22,155.478 1597.38,106.449 1622.55,75.9915 1647.71,61.99 1672.87,60.3177 1698.03,66.4036 1723.2,76.183 1748.36,86.5651 1773.52,95.5608 1798.68,102.187 1823.85,106.242 1849.01,108.042 1874.17,108.165 1899.33,107.248 1924.49,105.859 1949.66,104.422 1974.82,103.202 1999.98,102.324 2025.14,101.803 2050.31,101.589 2075.47,101.597 2100.63,101.739 2125.79,101.937 2150.95,102.136 2176.12,102.301 2201.28,102.418 2226.44,102.484 2251.6,102.51 2276.77,102.505 2301.93,102.484 2327.09,102.456 "/>
<polyline clip-path="url(#clip683)" style="stroke:#e26f46; stroke-linecap:round; stroke-linejoin:round; stroke-width:3; stroke-opacity:1; fill:none" stroke-dasharray="12, 6, 2, 6" points="1471.57,388.745 1496.74,354.206 1521.9,299.849 1547.06,224.434 1572.22,152.137 1597.38,104.963 1622.55,74.2429 1647.71,57.1907 1672.87,59.7373 1698.03,61.6987 1723.2,82.4444 1748.36,90.3722 1773.52,90.7741 1798.68,108.537 1823.85,103.474 1849.01,103.815 1874.17,110.155 1899.33,106.004 1924.49,107.987 1949.66,102.234 1974.82,114.084 1999.98,107.386 2025.14,107.794 2050.31,103.733 2075.47,107.821 2100.63,105.061 2125.79,103.688 2150.95,105.59 2176.12,106.243 2201.28,100.13 2226.44,95.8255 2251.6,97.6445 2276.77,98.7521 2301.93,95.0825 2327.09,100.513 "/>
<path clip-path="url(#clip680)" d="M2203.01 386.977 L2322.53 386.977 L2322.53 231.457 L2203.01 231.457  Z" fill="#ffffff" fill-rule="evenodd" fill-opacity="1"/>
<polyline clip-path="url(#clip680)" style="stroke:#000000; stroke-linecap:round; stroke-linejoin:round; stroke-width:4; stroke-opacity:1; fill:none" points="2203.01,386.977 2322.53,386.977 2322.53,231.457 2203.01,231.457 2203.01,386.977 "/>
<polyline clip-path="url(#clip680)" style="stroke:#009af9; stroke-linecap:round; stroke-linejoin:round; stroke-width:4; stroke-opacity:1; fill:none" points="2213.09,283.297 2273.55,283.297 "/>
<path clip-path="url(#clip680)" d="M2310.63 293.836 L2305.36 293.695 L2299.6 293.836 L2299.6 291.587 L2301.47 291.587 L2296.2 285.357 L2291.54 290.58 L2291.21 291.049 Q2291.21 291.26 2291.75 291.423 Q2292.31 291.587 2292.97 291.587 L2292.97 293.836 L2288.03 293.695 L2283.62 293.836 L2283.62 291.587 Q2285.1 291.587 2285.78 291.564 Q2286.48 291.517 2287.28 291.306 Q2288.07 291.096 2288.47 290.674 L2294.75 283.624 L2287.28 274.794 L2283.86 274.794 L2283.86 272.545 L2289.15 272.686 L2294.94 272.545 L2294.94 274.794 L2293.01 274.794 L2297.72 280.298 L2301.75 275.801 Q2301.77 275.777 2302.15 275.215 Q2301.4 274.794 2300.32 274.794 L2300.32 272.545 L2305.26 272.686 L2309.67 272.545 L2309.67 274.794 Q2307.75 274.794 2306.74 274.934 Q2305.76 275.051 2305.45 275.215 Q2305.17 275.379 2304.77 275.801 L2299.17 282.031 L2307.23 291.587 L2310.63 291.587 L2310.63 293.836 Z" fill="#000000" fill-rule="nonzero" fill-opacity="1" /><polyline clip-path="url(#clip680)" style="stroke:#e26f46; stroke-linecap:round; stroke-linejoin:round; stroke-width:3; stroke-opacity:1; fill:none" stroke-dasharray="12, 6, 2, 6" points="2213.09,335.137 2273.55,335.137 "/>
<path clip-path="url(#clip680)" d="M2306.21 323.615 L2305.8 324.287 Q2303.26 323.189 2300.09 321.434 Q2296.93 323.189 2294.39 324.287 L2293.99 323.615 Q2296.76 321.205 2300.09 319.352 Q2303.45 321.221 2306.21 323.615 Z" fill="#000000" fill-rule="nonzero" fill-opacity="1" /><path clip-path="url(#clip680)" d="M2310.63 350.681 L2305.36 350.54 L2299.6 350.681 L2299.6 348.432 L2301.47 348.432 L2296.2 342.202 L2291.54 347.425 L2291.21 347.893 Q2291.21 348.104 2291.75 348.268 Q2292.31 348.432 2292.97 348.432 L2292.97 350.681 L2288.03 350.54 L2283.62 350.681 L2283.62 348.432 Q2285.1 348.432 2285.78 348.409 Q2286.48 348.362 2287.28 348.151 Q2288.07 347.94 2288.47 347.519 L2294.75 340.468 L2287.28 331.638 L2283.86 331.638 L2283.86 329.39 L2289.15 329.53 L2294.94 329.39 L2294.94 331.638 L2293.01 331.638 L2297.72 337.142 L2301.75 332.645 Q2301.77 332.622 2302.15 332.06 Q2301.4 331.638 2300.32 331.638 L2300.32 329.39 L2305.26 329.53 L2309.67 329.39 L2309.67 331.638 Q2307.75 331.638 2306.74 331.779 Q2305.76 331.896 2305.45 332.06 Q2305.17 332.224 2304.77 332.645 L2299.17 338.876 L2307.23 348.432 L2310.63 348.432 L2310.63 350.681 Z" fill="#000000" fill-rule="nonzero" fill-opacity="1" /><path clip-path="url(#clip680)" d="M1445.91 910.936 L2352.76 910.936 L2352.76 559.488 L1445.91 559.488  Z" fill="#ffffff" fill-rule="evenodd" fill-opacity="1"/>
<defs>
  <clipPath id="clip684">
    <rect x="1445" y="559" width="908" height="352"/>
  </clipPath>
</defs>
<polyline clip-path="url(#clip684)" style="stroke:#000000; stroke-linecap:round; stroke-linejoin:round; stroke-width:2; stroke-opacity:0.1; fill:none" points="1471.57,910.936 1471.57,559.488 "/>
<polyline clip-path="url(#clip684)" style="stroke:#000000; stroke-linecap:round; stroke-linejoin:round; stroke-width:2; stroke-opacity:0.1; fill:none" points="1723.2,910.936 1723.2,559.488 "/>
<polyline clip-path="url(#clip684)" style="stroke:#000000; stroke-linecap:round; stroke-linejoin:round; stroke-width:2; stroke-opacity:0.1; fill:none" points="1974.82,910.936 1974.82,559.488 "/>
<polyline clip-path="url(#clip684)" style="stroke:#000000; stroke-linecap:round; stroke-linejoin:round; stroke-width:2; stroke-opacity:0.1; fill:none" points="2226.44,910.936 2226.44,559.488 "/>
<polyline clip-path="url(#clip684)" style="stroke:#000000; stroke-linecap:round; stroke-linejoin:round; stroke-width:2; stroke-opacity:0.1; fill:none" points="1445.91,881.166 2352.76,881.166 "/>
<polyline clip-path="url(#clip684)" style="stroke:#000000; stroke-linecap:round; stroke-linejoin:round; stroke-width:2; stroke-opacity:0.1; fill:none" points="1445.91,834.813 2352.76,834.813 "/>
<polyline clip-path="url(#clip684)" style="stroke:#000000; stroke-linecap:round; stroke-linejoin:round; stroke-width:2; stroke-opacity:0.1; fill:none" points="1445.91,788.46 2352.76,788.46 "/>
<polyline clip-path="url(#clip684)" style="stroke:#000000; stroke-linecap:round; stroke-linejoin:round; stroke-width:2; stroke-opacity:0.1; fill:none" points="1445.91,742.107 2352.76,742.107 "/>
<polyline clip-path="url(#clip684)" style="stroke:#000000; stroke-linecap:round; stroke-linejoin:round; stroke-width:2; stroke-opacity:0.1; fill:none" points="1445.91,695.754 2352.76,695.754 "/>
<polyline clip-path="url(#clip684)" style="stroke:#000000; stroke-linecap:round; stroke-linejoin:round; stroke-width:2; stroke-opacity:0.1; fill:none" points="1445.91,649.401 2352.76,649.401 "/>
<polyline clip-path="url(#clip684)" style="stroke:#000000; stroke-linecap:round; stroke-linejoin:round; stroke-width:2; stroke-opacity:0.1; fill:none" points="1445.91,603.048 2352.76,603.048 "/>
<polyline clip-path="url(#clip680)" style="stroke:#000000; stroke-linecap:round; stroke-linejoin:round; stroke-width:4; stroke-opacity:1; fill:none" points="1445.91,910.936 2352.76,910.936 "/>
<polyline clip-path="url(#clip680)" style="stroke:#000000; stroke-linecap:round; stroke-linejoin:round; stroke-width:4; stroke-opacity:1; fill:none" points="1471.57,910.936 1471.57,892.038 "/>
<polyline clip-path="url(#clip680)" style="stroke:#000000; stroke-linecap:round; stroke-linejoin:round; stroke-width:4; stroke-opacity:1; fill:none" points="1723.2,910.936 1723.2,892.038 "/>
<polyline clip-path="url(#clip680)" style="stroke:#000000; stroke-linecap:round; stroke-linejoin:round; stroke-width:4; stroke-opacity:1; fill:none" points="1974.82,910.936 1974.82,892.038 "/>
<polyline clip-path="url(#clip680)" style="stroke:#000000; stroke-linecap:round; stroke-linejoin:round; stroke-width:4; stroke-opacity:1; fill:none" points="2226.44,910.936 2226.44,892.038 "/>
<path clip-path="url(#clip680)" d="M1471.57 941.855 Q1467.96 941.855 1466.13 945.419 Q1464.33 948.961 1464.33 956.091 Q1464.33 963.197 1466.13 966.762 Q1467.96 970.303 1471.57 970.303 Q1475.21 970.303 1477.01 966.762 Q1478.84 963.197 1478.84 956.091 Q1478.84 948.961 1477.01 945.419 Q1475.21 941.855 1471.57 941.855 M1471.57 938.151 Q1477.38 938.151 1480.44 942.757 Q1483.52 947.341 1483.52 956.091 Q1483.52 964.817 1480.44 969.424 Q1477.38 974.007 1471.57 974.007 Q1465.76 974.007 1462.68 969.424 Q1459.63 964.817 1459.63 956.091 Q1459.63 947.341 1462.68 942.757 Q1465.76 938.151 1471.57 938.151 Z" fill="#000000" fill-rule="nonzero" fill-opacity="1" /><path clip-path="url(#clip680)" d="M1713.58 969.401 L1721.22 969.401 L1721.22 943.035 L1712.91 944.702 L1712.91 940.443 L1721.17 938.776 L1725.85 938.776 L1725.85 969.401 L1733.49 969.401 L1733.49 973.336 L1713.58 973.336 L1713.58 969.401 Z" fill="#000000" fill-rule="nonzero" fill-opacity="1" /><path clip-path="url(#clip680)" d="M1969.47 969.401 L1985.79 969.401 L1985.79 973.336 L1963.85 973.336 L1963.85 969.401 Q1966.51 966.646 1971.09 962.016 Q1975.7 957.364 1976.88 956.021 Q1979.12 953.498 1980 951.762 Q1980.91 950.003 1980.91 948.313 Q1980.91 945.558 1978.96 943.822 Q1977.04 942.086 1973.94 942.086 Q1971.74 942.086 1969.29 942.85 Q1966.86 943.614 1964.08 945.165 L1964.08 940.443 Q1966.9 939.308 1969.36 938.73 Q1971.81 938.151 1973.85 938.151 Q1979.22 938.151 1982.41 940.836 Q1985.61 943.521 1985.61 948.012 Q1985.61 950.142 1984.8 952.063 Q1984.01 953.961 1981.9 956.554 Q1981.32 957.225 1978.22 960.442 Q1975.12 963.637 1969.47 969.401 Z" fill="#000000" fill-rule="nonzero" fill-opacity="1" /><path clip-path="url(#clip680)" d="M2230.69 954.702 Q2234.05 955.419 2235.92 957.688 Q2237.82 959.956 2237.82 963.29 Q2237.82 968.405 2234.3 971.206 Q2230.78 974.007 2224.3 974.007 Q2222.12 974.007 2219.81 973.567 Q2217.52 973.151 2215.06 972.294 L2215.06 967.78 Q2217.01 968.915 2219.32 969.493 Q2221.64 970.072 2224.16 970.072 Q2228.56 970.072 2230.85 968.336 Q2233.17 966.6 2233.17 963.29 Q2233.17 960.234 2231.01 958.521 Q2228.88 956.785 2225.06 956.785 L2221.04 956.785 L2221.04 952.942 L2225.25 952.942 Q2228.7 952.942 2230.53 951.577 Q2232.36 950.188 2232.36 947.595 Q2232.36 944.933 2230.46 943.521 Q2228.58 942.086 2225.06 942.086 Q2223.14 942.086 2220.94 942.503 Q2218.74 942.919 2216.11 943.799 L2216.11 939.632 Q2218.77 938.892 2221.08 938.521 Q2223.42 938.151 2225.48 938.151 Q2230.8 938.151 2233.91 940.581 Q2237.01 942.989 2237.01 947.109 Q2237.01 949.979 2235.36 951.97 Q2233.72 953.938 2230.69 954.702 Z" fill="#000000" fill-rule="nonzero" fill-opacity="1" /><polyline clip-path="url(#clip680)" style="stroke:#000000; stroke-linecap:round; stroke-linejoin:round; stroke-width:4; stroke-opacity:1; fill:none" points="1445.91,910.936 1445.91,559.488 "/>
<polyline clip-path="url(#clip680)" style="stroke:#000000; stroke-linecap:round; stroke-linejoin:round; stroke-width:4; stroke-opacity:1; fill:none" points="1445.91,881.166 1464.81,881.166 "/>
<polyline clip-path="url(#clip680)" style="stroke:#000000; stroke-linecap:round; stroke-linejoin:round; stroke-width:4; stroke-opacity:1; fill:none" points="1445.91,834.813 1464.81,834.813 "/>
<polyline clip-path="url(#clip680)" style="stroke:#000000; stroke-linecap:round; stroke-linejoin:round; stroke-width:4; stroke-opacity:1; fill:none" points="1445.91,788.46 1464.81,788.46 "/>
<polyline clip-path="url(#clip680)" style="stroke:#000000; stroke-linecap:round; stroke-linejoin:round; stroke-width:4; stroke-opacity:1; fill:none" points="1445.91,742.107 1464.81,742.107 "/>
<polyline clip-path="url(#clip680)" style="stroke:#000000; stroke-linecap:round; stroke-linejoin:round; stroke-width:4; stroke-opacity:1; fill:none" points="1445.91,695.754 1464.81,695.754 "/>
<polyline clip-path="url(#clip680)" style="stroke:#000000; stroke-linecap:round; stroke-linejoin:round; stroke-width:4; stroke-opacity:1; fill:none" points="1445.91,649.401 1464.81,649.401 "/>
<polyline clip-path="url(#clip680)" style="stroke:#000000; stroke-linecap:round; stroke-linejoin:round; stroke-width:4; stroke-opacity:1; fill:none" points="1445.91,603.048 1464.81,603.048 "/>
<path clip-path="url(#clip680)" d="M1304.56 881.617 L1334.24 881.617 L1334.24 885.552 L1304.56 885.552 L1304.56 881.617 Z" fill="#000000" fill-rule="nonzero" fill-opacity="1" /><path clip-path="url(#clip680)" d="M1354.33 866.964 Q1350.72 866.964 1348.89 870.529 Q1347.08 874.071 1347.08 881.2 Q1347.08 888.307 1348.89 891.872 Q1350.72 895.413 1354.33 895.413 Q1357.96 895.413 1359.77 891.872 Q1361.6 888.307 1361.6 881.2 Q1361.6 874.071 1359.77 870.529 Q1357.96 866.964 1354.33 866.964 M1354.33 863.261 Q1360.14 863.261 1363.2 867.867 Q1366.27 872.45 1366.27 881.2 Q1366.27 889.927 1363.2 894.534 Q1360.14 899.117 1354.33 899.117 Q1348.52 899.117 1345.44 894.534 Q1342.39 889.927 1342.39 881.2 Q1342.39 872.45 1345.44 867.867 Q1348.52 863.261 1354.33 863.261 Z" fill="#000000" fill-rule="nonzero" fill-opacity="1" /><path clip-path="url(#clip680)" d="M1374.49 892.566 L1379.38 892.566 L1379.38 898.446 L1374.49 898.446 L1374.49 892.566 Z" fill="#000000" fill-rule="nonzero" fill-opacity="1" /><path clip-path="url(#clip680)" d="M1393.59 894.51 L1409.91 894.51 L1409.91 898.446 L1387.96 898.446 L1387.96 894.51 Q1390.63 891.756 1395.21 887.126 Q1399.82 882.473 1401 881.131 Q1403.24 878.608 1404.12 876.872 Q1405.02 875.112 1405.02 873.423 Q1405.02 870.668 1403.08 868.932 Q1401.16 867.196 1398.06 867.196 Q1395.86 867.196 1393.4 867.96 Q1390.97 868.724 1388.19 870.274 L1388.19 865.552 Q1391.02 864.418 1393.47 863.839 Q1395.93 863.261 1397.96 863.261 Q1403.33 863.261 1406.53 865.946 Q1409.72 868.631 1409.72 873.122 Q1409.72 875.251 1408.91 877.173 Q1408.13 879.071 1406.02 881.663 Q1405.44 882.335 1402.34 885.552 Q1399.24 888.747 1393.59 894.51 Z" fill="#000000" fill-rule="nonzero" fill-opacity="1" /><path clip-path="url(#clip680)" d="M1352.73 820.611 Q1349.12 820.611 1347.29 824.176 Q1345.49 827.718 1345.49 834.847 Q1345.49 841.954 1347.29 845.519 Q1349.12 849.06 1352.73 849.06 Q1356.37 849.06 1358.17 845.519 Q1360 841.954 1360 834.847 Q1360 827.718 1358.17 824.176 Q1356.37 820.611 1352.73 820.611 M1352.73 816.908 Q1358.54 816.908 1361.6 821.514 Q1364.68 826.097 1364.68 834.847 Q1364.68 843.574 1361.6 848.181 Q1358.54 852.764 1352.73 852.764 Q1346.92 852.764 1343.84 848.181 Q1340.79 843.574 1340.79 834.847 Q1340.79 826.097 1343.84 821.514 Q1346.92 816.908 1352.73 816.908 Z" fill="#000000" fill-rule="nonzero" fill-opacity="1" /><path clip-path="url(#clip680)" d="M1372.89 846.213 L1377.78 846.213 L1377.78 852.093 L1372.89 852.093 L1372.89 846.213 Z" fill="#000000" fill-rule="nonzero" fill-opacity="1" /><path clip-path="url(#clip680)" d="M1397.96 820.611 Q1394.35 820.611 1392.52 824.176 Q1390.72 827.718 1390.72 834.847 Q1390.72 841.954 1392.52 845.519 Q1394.35 849.06 1397.96 849.06 Q1401.6 849.06 1403.4 845.519 Q1405.23 841.954 1405.23 834.847 Q1405.23 827.718 1403.4 824.176 Q1401.6 820.611 1397.96 820.611 M1397.96 816.908 Q1403.77 816.908 1406.83 821.514 Q1409.91 826.097 1409.91 834.847 Q1409.91 843.574 1406.83 848.181 Q1403.77 852.764 1397.96 852.764 Q1392.15 852.764 1389.07 848.181 Q1386.02 843.574 1386.02 834.847 Q1386.02 826.097 1389.07 821.514 Q1392.15 816.908 1397.96 816.908 Z" fill="#000000" fill-rule="nonzero" fill-opacity="1" /><path clip-path="url(#clip680)" d="M1354.33 774.258 Q1350.72 774.258 1348.89 777.823 Q1347.08 781.365 1347.08 788.494 Q1347.08 795.601 1348.89 799.166 Q1350.72 802.707 1354.33 802.707 Q1357.96 802.707 1359.77 799.166 Q1361.6 795.601 1361.6 788.494 Q1361.6 781.365 1359.77 777.823 Q1357.96 774.258 1354.33 774.258 M1354.33 770.555 Q1360.14 770.555 1363.2 775.161 Q1366.27 779.745 1366.27 788.494 Q1366.27 797.221 1363.2 801.828 Q1360.14 806.411 1354.33 806.411 Q1348.52 806.411 1345.44 801.828 Q1342.39 797.221 1342.39 788.494 Q1342.39 779.745 1345.44 775.161 Q1348.52 770.555 1354.33 770.555 Z" fill="#000000" fill-rule="nonzero" fill-opacity="1" /><path clip-path="url(#clip680)" d="M1374.49 799.86 L1379.38 799.86 L1379.38 805.74 L1374.49 805.74 L1374.49 799.86 Z" fill="#000000" fill-rule="nonzero" fill-opacity="1" /><path clip-path="url(#clip680)" d="M1393.59 801.805 L1409.91 801.805 L1409.91 805.74 L1387.96 805.74 L1387.96 801.805 Q1390.63 799.05 1395.21 794.42 Q1399.82 789.768 1401 788.425 Q1403.24 785.902 1404.12 784.166 Q1405.02 782.407 1405.02 780.717 Q1405.02 777.962 1403.08 776.226 Q1401.16 774.49 1398.06 774.49 Q1395.86 774.49 1393.4 775.254 Q1390.97 776.018 1388.19 777.569 L1388.19 772.846 Q1391.02 771.712 1393.47 771.133 Q1395.93 770.555 1397.96 770.555 Q1403.33 770.555 1406.53 773.24 Q1409.72 775.925 1409.72 780.416 Q1409.72 782.545 1408.91 784.467 Q1408.13 786.365 1406.02 788.957 Q1405.44 789.629 1402.34 792.846 Q1399.24 796.041 1393.59 801.805 Z" fill="#000000" fill-rule="nonzero" fill-opacity="1" /><path clip-path="url(#clip680)" d="M1352.25 727.906 Q1348.63 727.906 1346.81 731.47 Q1345 735.012 1345 742.142 Q1345 749.248 1346.81 752.813 Q1348.63 756.354 1352.25 756.354 Q1355.88 756.354 1357.69 752.813 Q1359.51 749.248 1359.51 742.142 Q1359.51 735.012 1357.69 731.47 Q1355.88 727.906 1352.25 727.906 M1352.25 724.202 Q1358.06 724.202 1361.11 728.808 Q1364.19 733.392 1364.19 742.142 Q1364.19 750.868 1361.11 755.475 Q1358.06 760.058 1352.25 760.058 Q1346.44 760.058 1343.36 755.475 Q1340.3 750.868 1340.3 742.142 Q1340.3 733.392 1343.36 728.808 Q1346.44 724.202 1352.25 724.202 Z" fill="#000000" fill-rule="nonzero" fill-opacity="1" /><path clip-path="url(#clip680)" d="M1372.41 753.507 L1377.29 753.507 L1377.29 759.387 L1372.41 759.387 L1372.41 753.507 Z" fill="#000000" fill-rule="nonzero" fill-opacity="1" /><path clip-path="url(#clip680)" d="M1400.32 728.901 L1388.52 747.35 L1400.32 747.35 L1400.32 728.901 M1399.1 724.827 L1404.98 724.827 L1404.98 747.35 L1409.91 747.35 L1409.91 751.239 L1404.98 751.239 L1404.98 759.387 L1400.32 759.387 L1400.32 751.239 L1384.72 751.239 L1384.72 746.725 L1399.1 724.827 Z" fill="#000000" fill-rule="nonzero" fill-opacity="1" /><path clip-path="url(#clip680)" d="M1352.57 681.553 Q1348.96 681.553 1347.13 685.117 Q1345.32 688.659 1345.32 695.789 Q1345.32 702.895 1347.13 706.46 Q1348.96 710.002 1352.57 710.002 Q1356.2 710.002 1358.01 706.46 Q1359.84 702.895 1359.84 695.789 Q1359.84 688.659 1358.01 685.117 Q1356.2 681.553 1352.57 681.553 M1352.57 677.849 Q1358.38 677.849 1361.44 682.455 Q1364.51 687.039 1364.51 695.789 Q1364.51 704.515 1361.44 709.122 Q1358.38 713.705 1352.57 713.705 Q1346.76 713.705 1343.68 709.122 Q1340.63 704.515 1340.63 695.789 Q1340.63 687.039 1343.68 682.455 Q1346.76 677.849 1352.57 677.849 Z" fill="#000000" fill-rule="nonzero" fill-opacity="1" /><path clip-path="url(#clip680)" d="M1372.73 707.154 L1377.62 707.154 L1377.62 713.034 L1372.73 713.034 L1372.73 707.154 Z" fill="#000000" fill-rule="nonzero" fill-opacity="1" /><path clip-path="url(#clip680)" d="M1398.38 693.891 Q1395.23 693.891 1393.38 696.043 Q1391.55 698.196 1391.55 701.946 Q1391.55 705.673 1393.38 707.849 Q1395.23 710.002 1398.38 710.002 Q1401.53 710.002 1403.36 707.849 Q1405.21 705.673 1405.21 701.946 Q1405.21 698.196 1403.36 696.043 Q1401.53 693.891 1398.38 693.891 M1407.66 679.238 L1407.66 683.497 Q1405.9 682.664 1404.1 682.224 Q1402.32 681.784 1400.56 681.784 Q1395.93 681.784 1393.47 684.909 Q1391.04 688.034 1390.69 694.353 Q1392.06 692.34 1394.12 691.275 Q1396.18 690.187 1398.66 690.187 Q1403.87 690.187 1406.88 693.358 Q1409.91 696.506 1409.91 701.946 Q1409.91 707.27 1406.76 710.488 Q1403.61 713.705 1398.38 713.705 Q1392.38 713.705 1389.21 709.122 Q1386.04 704.515 1386.04 695.789 Q1386.04 687.594 1389.93 682.733 Q1393.82 677.849 1400.37 677.849 Q1402.13 677.849 1403.91 678.196 Q1405.72 678.543 1407.66 679.238 Z" fill="#000000" fill-rule="nonzero" fill-opacity="1" /><path clip-path="url(#clip680)" d="M1352.82 635.2 Q1349.21 635.2 1347.38 638.764 Q1345.58 642.306 1345.58 649.436 Q1345.58 656.542 1347.38 660.107 Q1349.21 663.649 1352.82 663.649 Q1356.46 663.649 1358.26 660.107 Q1360.09 656.542 1360.09 649.436 Q1360.09 642.306 1358.26 638.764 Q1356.46 635.2 1352.82 635.2 M1352.82 631.496 Q1358.63 631.496 1361.69 636.102 Q1364.77 640.686 1364.77 649.436 Q1364.77 658.163 1361.69 662.769 Q1358.63 667.352 1352.82 667.352 Q1347.01 667.352 1343.94 662.769 Q1340.88 658.163 1340.88 649.436 Q1340.88 640.686 1343.94 636.102 Q1347.01 631.496 1352.82 631.496 Z" fill="#000000" fill-rule="nonzero" fill-opacity="1" /><path clip-path="url(#clip680)" d="M1372.99 660.801 L1377.87 660.801 L1377.87 666.681 L1372.99 666.681 L1372.99 660.801 Z" fill="#000000" fill-rule="nonzero" fill-opacity="1" /><path clip-path="url(#clip680)" d="M1398.06 650.269 Q1394.72 650.269 1392.8 652.051 Q1390.9 653.834 1390.9 656.959 Q1390.9 660.084 1392.8 661.866 Q1394.72 663.649 1398.06 663.649 Q1401.39 663.649 1403.31 661.866 Q1405.23 660.061 1405.23 656.959 Q1405.23 653.834 1403.31 652.051 Q1401.41 650.269 1398.06 650.269 M1393.38 648.278 Q1390.37 647.538 1388.68 645.477 Q1387.01 643.417 1387.01 640.454 Q1387.01 636.311 1389.95 633.903 Q1392.92 631.496 1398.06 631.496 Q1403.22 631.496 1406.16 633.903 Q1409.1 636.311 1409.1 640.454 Q1409.1 643.417 1407.41 645.477 Q1405.74 647.538 1402.76 648.278 Q1406.13 649.065 1408.01 651.357 Q1409.91 653.649 1409.91 656.959 Q1409.91 661.982 1406.83 664.667 Q1403.77 667.352 1398.06 667.352 Q1392.34 667.352 1389.26 664.667 Q1386.2 661.982 1386.2 656.959 Q1386.2 653.649 1388.1 651.357 Q1390 649.065 1393.38 648.278 M1391.67 640.894 Q1391.67 643.579 1393.33 645.084 Q1395.02 646.589 1398.06 646.589 Q1401.07 646.589 1402.76 645.084 Q1404.47 643.579 1404.47 640.894 Q1404.47 638.209 1402.76 636.704 Q1401.07 635.2 1398.06 635.2 Q1395.02 635.2 1393.33 636.704 Q1391.67 638.209 1391.67 640.894 Z" fill="#000000" fill-rule="nonzero" fill-opacity="1" /><path clip-path="url(#clip680)" d="M1343.54 616.393 L1351.18 616.393 L1351.18 590.027 L1342.87 591.694 L1342.87 587.435 L1351.13 585.768 L1355.81 585.768 L1355.81 616.393 L1363.45 616.393 L1363.45 620.328 L1343.54 620.328 L1343.54 616.393 Z" fill="#000000" fill-rule="nonzero" fill-opacity="1" /><path clip-path="url(#clip680)" d="M1372.89 614.448 L1377.78 614.448 L1377.78 620.328 L1372.89 620.328 L1372.89 614.448 Z" fill="#000000" fill-rule="nonzero" fill-opacity="1" /><path clip-path="url(#clip680)" d="M1397.96 588.847 Q1394.35 588.847 1392.52 592.412 Q1390.72 595.953 1390.72 603.083 Q1390.72 610.189 1392.52 613.754 Q1394.35 617.296 1397.96 617.296 Q1401.6 617.296 1403.4 613.754 Q1405.23 610.189 1405.23 603.083 Q1405.23 595.953 1403.4 592.412 Q1401.6 588.847 1397.96 588.847 M1397.96 585.143 Q1403.77 585.143 1406.83 589.75 Q1409.91 594.333 1409.91 603.083 Q1409.91 611.81 1406.83 616.416 Q1403.77 620.999 1397.96 620.999 Q1392.15 620.999 1389.07 616.416 Q1386.02 611.81 1386.02 603.083 Q1386.02 594.333 1389.07 589.75 Q1392.15 585.143 1397.96 585.143 Z" fill="#000000" fill-rule="nonzero" fill-opacity="1" /><path clip-path="url(#clip680)" d="M1229.58 831.559 Q1232.57 831.559 1238.37 833.072 Q1240.88 833.684 1243.17 834.522 Q1245.42 835.327 1247.61 836.518 Q1249.8 837.71 1251.38 839.095 Q1252.93 840.48 1253.89 842.283 Q1254.86 844.087 1254.86 846.084 Q1254.86 849.24 1252.99 851.108 Q1251.09 852.943 1247.84 853.523 Q1254.86 857.839 1254.86 863.604 Q1254.86 867.178 1252.32 868.853 Q1249.74 870.528 1245.42 870.528 Q1241.78 870.528 1238.02 869.562 Q1230.87 867.726 1225.87 864.151 Q1225.3 863.668 1225.3 862.959 Q1225.3 862.541 1225.42 862.347 Q1225.78 861.768 1226.36 861.768 Q1226.78 861.768 1227.2 862.09 Q1230.32 864.344 1232.99 865.826 Q1235.67 867.307 1238.37 867.984 Q1240.69 868.499 1242.65 868.499 Q1245.97 868.499 1248.03 867.082 Q1250.09 865.632 1250.09 862.766 Q1250.09 860.125 1248.45 857.806 Q1246.78 855.488 1243.97 853.781 Q1240.92 853.684 1238.02 852.943 Q1234.92 852.267 1234.92 850.689 Q1234.92 849.433 1236.63 849.433 Q1237.21 849.433 1238.37 849.691 Q1241.43 850.399 1244.17 851.687 Q1246.84 851.236 1248.48 849.562 Q1250.09 847.887 1250.09 845.214 Q1250.09 842.734 1248.29 840.544 Q1246.49 838.322 1243.85 836.905 Q1241.17 835.456 1238.02 834.65 Q1236.95 834.393 1235.6 834.393 Q1231.99 834.393 1229.77 836.905 Q1229.06 837.613 1228.13 837.613 Q1227.03 837.613 1226.04 836.712 Q1224.97 835.649 1224.97 834.393 Q1224.97 833.459 1225.55 832.879 Q1226.71 831.559 1229.58 831.559 Z" fill="#000000" fill-rule="nonzero" fill-opacity="1" /><path clip-path="url(#clip680)" d="M1204.66 788.989 Q1211.98 793.255 1219.14 795.323 Q1226.3 797.392 1233.65 797.392 Q1241.01 797.392 1248.23 795.323 Q1255.42 793.223 1262.71 788.989 L1262.71 794.082 Q1255.23 798.856 1248.01 801.243 Q1240.78 803.599 1233.65 803.599 Q1226.56 803.599 1219.36 801.243 Q1212.17 798.888 1204.66 794.082 L1204.66 788.989 Z" fill="#000000" fill-rule="nonzero" fill-opacity="1" /><path clip-path="url(#clip680)" d="M1223.95 756.97 Q1223.37 757.957 1223.12 759.134 Q1222.83 760.28 1222.83 761.681 Q1222.83 766.646 1226.08 769.319 Q1229.29 771.961 1235.34 771.961 L1254.12 771.961 L1254.12 777.85 L1218.47 777.85 L1218.47 771.961 L1224.01 771.961 Q1220.76 770.115 1219.2 767.155 Q1217.61 764.195 1217.61 759.962 Q1217.61 759.357 1217.71 758.625 Q1217.77 757.893 1217.93 757.002 L1223.95 756.97 Z" fill="#000000" fill-rule="nonzero" fill-opacity="1" /><path clip-path="url(#clip680)" d="M1236.2 734.626 Q1236.2 741.724 1237.82 744.461 Q1239.45 747.199 1243.36 747.199 Q1246.48 747.199 1248.33 745.162 Q1250.14 743.093 1250.14 739.56 Q1250.14 734.69 1246.7 731.762 Q1243.23 728.802 1237.5 728.802 L1236.2 728.802 L1236.2 734.626 M1233.78 722.945 L1254.12 722.945 L1254.12 728.802 L1248.71 728.802 Q1251.96 730.807 1253.51 733.799 Q1255.04 736.791 1255.04 741.119 Q1255.04 746.594 1251.99 749.84 Q1248.9 753.055 1243.74 753.055 Q1237.73 753.055 1234.67 749.045 Q1231.62 745.002 1231.62 737.013 L1231.62 728.802 L1231.04 728.802 Q1227 728.802 1224.81 731.475 Q1222.58 734.117 1222.58 738.923 Q1222.58 741.979 1223.31 744.875 Q1224.04 747.772 1225.51 750.445 L1220.09 750.445 Q1218.85 747.23 1218.25 744.207 Q1217.61 741.183 1217.61 738.318 Q1217.61 730.584 1221.62 726.765 Q1225.63 722.945 1233.78 722.945 Z" fill="#000000" fill-rule="nonzero" fill-opacity="1" /><path clip-path="url(#clip680)" d="M1223.88 687.425 L1204.59 687.425 L1204.59 681.568 L1254.12 681.568 L1254.12 687.425 L1248.77 687.425 Q1251.96 689.271 1253.51 692.103 Q1255.04 694.904 1255.04 698.851 Q1255.04 705.312 1249.89 709.386 Q1244.73 713.429 1236.33 713.429 Q1227.92 713.429 1222.77 709.386 Q1217.61 705.312 1217.61 698.851 Q1217.61 694.904 1219.17 692.103 Q1220.7 689.271 1223.88 687.425 M1236.33 707.381 Q1242.79 707.381 1246.48 704.739 Q1250.14 702.066 1250.14 697.419 Q1250.14 692.772 1246.48 690.098 Q1242.79 687.425 1236.33 687.425 Q1229.87 687.425 1226.21 690.098 Q1222.51 692.772 1222.51 697.419 Q1222.51 702.066 1226.21 704.739 Q1229.87 707.381 1236.33 707.381 Z" fill="#000000" fill-rule="nonzero" fill-opacity="1" /><path clip-path="url(#clip680)" d="M1206.6 659.097 L1206.6 653.686 L1260.17 670.237 L1260.17 675.648 L1206.6 659.097 Z" fill="#000000" fill-rule="nonzero" fill-opacity="1" /><path clip-path="url(#clip680)" d="M1219.52 624.818 L1225.06 624.818 Q1223.79 627.301 1223.15 629.974 Q1222.51 632.648 1222.51 635.512 Q1222.51 639.873 1223.85 642.069 Q1225.19 644.233 1227.86 644.233 Q1229.9 644.233 1231.08 642.674 Q1232.22 641.114 1233.27 636.404 L1233.72 634.398 Q1235.05 628.16 1237.5 625.55 Q1239.92 622.908 1244.28 622.908 Q1249.25 622.908 1252.15 626.855 Q1255.04 630.77 1255.04 637.645 Q1255.04 640.509 1254.47 643.629 Q1253.93 646.716 1252.81 650.153 L1246.77 650.153 Q1248.45 646.907 1249.31 643.756 Q1250.14 640.605 1250.14 637.517 Q1250.14 633.38 1248.74 631.152 Q1247.31 628.924 1244.73 628.924 Q1242.34 628.924 1241.07 630.547 Q1239.8 632.138 1238.62 637.581 L1238.14 639.618 Q1237 645.061 1234.64 647.48 Q1232.25 649.899 1228.12 649.899 Q1223.09 649.899 1220.35 646.334 Q1217.61 642.769 1217.61 636.213 Q1217.61 632.966 1218.09 630.101 Q1218.57 627.237 1219.52 624.818 Z" fill="#000000" fill-rule="nonzero" fill-opacity="1" /><path clip-path="url(#clip680)" d="M1204.66 614.505 L1204.66 609.413 Q1212.17 604.639 1219.36 602.283 Q1226.56 599.896 1233.65 599.896 Q1240.78 599.896 1248.01 602.283 Q1255.23 604.639 1262.71 609.413 L1262.71 614.505 Q1255.42 610.272 1248.23 608.203 Q1241.01 606.103 1233.65 606.103 Q1226.3 606.103 1219.14 608.203 Q1211.98 610.272 1204.66 614.505 Z" fill="#000000" fill-rule="nonzero" fill-opacity="1" /><polyline clip-path="url(#clip684)" style="stroke:#009af9; stroke-linecap:round; stroke-linejoin:round; stroke-width:4; stroke-opacity:1; fill:none" points="1471.57,834.813 1496.74,652.337 1521.9,576.021 1547.06,578.044 1572.22,626.199 1597.38,692.423 1622.55,757.122 1647.71,809.462 1672.87,845.437 1698.03,865.498 1723.2,872.548 1748.36,870.481 1773.52,863.185 1798.68,853.92 1823.85,845.026 1849.01,837.875 1874.17,833.009 1899.33,830.368 1924.49,829.529 1949.66,829.929 1974.82,831.009 1999.98,832.317 2025.14,833.538 2050.31,834.497 2075.47,835.134 2100.63,835.464 2125.79,835.554 2150.95,835.481 2176.12,835.322 2201.28,835.138 2226.44,834.971 2251.6,834.843 2276.77,834.759 2301.93,834.718 2327.09,834.709 "/>
<polyline clip-path="url(#clip684)" style="stroke:#e26f46; stroke-linecap:round; stroke-linejoin:round; stroke-width:3; stroke-opacity:1; fill:none" stroke-dasharray="12, 6, 2, 6" points="1471.57,834.813 1496.74,630.655 1521.9,585.728 1547.06,569.435 1572.22,607.606 1597.38,690.453 1622.55,761.796 1647.71,815.478 1672.87,864.116 1698.03,876.503 1723.2,900.989 1748.36,883.078 1773.52,860.785 1798.68,872.768 1823.85,840.959 1849.01,836.797 1874.17,842.839 1899.33,829.677 1924.49,834.073 1949.66,825.414 1974.82,846.882 1999.98,827.566 2025.14,831.615 2050.31,827.53 2075.47,837.924 2100.63,831.835 2125.79,832.155 2150.95,836.947 2176.12,836.52 2201.28,827.347 2226.44,828.039 2251.6,837.464 2276.77,839.317 2301.93,833.152 2327.09,843.395 "/>
<path clip-path="url(#clip680)" d="M2203.01 726.723 L2322.53 726.723 L2322.53 571.203 L2203.01 571.203  Z" fill="#ffffff" fill-rule="evenodd" fill-opacity="1"/>
<polyline clip-path="url(#clip680)" style="stroke:#000000; stroke-linecap:round; stroke-linejoin:round; stroke-width:4; stroke-opacity:1; fill:none" points="2203.01,726.723 2322.53,726.723 2322.53,571.203 2203.01,571.203 2203.01,726.723 "/>
<polyline clip-path="url(#clip680)" style="stroke:#009af9; stroke-linecap:round; stroke-linejoin:round; stroke-width:4; stroke-opacity:1; fill:none" points="2213.09,623.043 2273.55,623.043 "/>
<path clip-path="url(#clip680)" d="M2310.63 633.582 L2305.36 633.442 L2299.6 633.582 L2299.6 631.334 L2301.47 631.334 L2296.2 625.103 L2291.54 630.326 L2291.21 630.795 Q2291.21 631.006 2291.75 631.17 Q2292.31 631.334 2292.97 631.334 L2292.97 633.582 L2288.03 633.442 L2283.62 633.582 L2283.62 631.334 Q2285.1 631.334 2285.78 631.31 Q2286.48 631.263 2287.28 631.052 Q2288.07 630.842 2288.47 630.42 L2294.75 623.37 L2287.28 614.54 L2283.86 614.54 L2283.86 612.291 L2289.15 612.432 L2294.94 612.291 L2294.94 614.54 L2293.01 614.54 L2297.72 620.044 L2301.75 615.547 Q2301.77 615.523 2302.15 614.961 Q2301.4 614.54 2300.32 614.54 L2300.32 612.291 L2305.26 612.432 L2309.67 612.291 L2309.67 614.54 Q2307.75 614.54 2306.74 614.68 Q2305.76 614.797 2305.45 614.961 Q2305.17 615.125 2304.77 615.547 L2299.17 621.777 L2307.23 631.334 L2310.63 631.334 L2310.63 633.582 Z" fill="#000000" fill-rule="nonzero" fill-opacity="1" /><polyline clip-path="url(#clip680)" style="stroke:#e26f46; stroke-linecap:round; stroke-linejoin:round; stroke-width:3; stroke-opacity:1; fill:none" stroke-dasharray="12, 6, 2, 6" points="2213.09,674.883 2273.55,674.883 "/>
<path clip-path="url(#clip680)" d="M2306.21 663.361 L2305.8 664.033 Q2303.26 662.935 2300.09 661.18 Q2296.93 662.935 2294.39 664.033 L2293.99 663.361 Q2296.76 660.951 2300.09 659.098 Q2303.45 660.967 2306.21 663.361 Z" fill="#000000" fill-rule="nonzero" fill-opacity="1" /><path clip-path="url(#clip680)" d="M2310.63 690.427 L2305.36 690.286 L2299.6 690.427 L2299.6 688.178 L2301.47 688.178 L2296.2 681.948 L2291.54 687.171 L2291.21 687.639 Q2291.21 687.85 2291.75 688.014 Q2292.31 688.178 2292.97 688.178 L2292.97 690.427 L2288.03 690.286 L2283.62 690.427 L2283.62 688.178 Q2285.1 688.178 2285.78 688.155 Q2286.48 688.108 2287.28 687.897 Q2288.07 687.686 2288.47 687.265 L2294.75 680.214 L2287.28 671.384 L2283.86 671.384 L2283.86 669.136 L2289.15 669.276 L2294.94 669.136 L2294.94 671.384 L2293.01 671.384 L2297.72 676.888 L2301.75 672.391 Q2301.77 672.368 2302.15 671.806 Q2301.4 671.384 2300.32 671.384 L2300.32 669.136 L2305.26 669.276 L2309.67 669.136 L2309.67 671.384 Q2307.75 671.384 2306.74 671.525 Q2305.76 671.642 2305.45 671.806 Q2305.17 671.97 2304.77 672.391 L2299.17 678.622 L2307.23 688.178 L2310.63 688.178 L2310.63 690.427 Z" fill="#000000" fill-rule="nonzero" fill-opacity="1" /><path clip-path="url(#clip680)" d="M1445.91 1423.18 L2352.76 1423.18 L2352.76 1071.73 L1445.91 1071.73  Z" fill="#ffffff" fill-rule="evenodd" fill-opacity="1"/>
<defs>
  <clipPath id="clip685">
    <rect x="1445" y="1071" width="908" height="352"/>
  </clipPath>
</defs>
<polyline clip-path="url(#clip685)" style="stroke:#000000; stroke-linecap:round; stroke-linejoin:round; stroke-width:2; stroke-opacity:0.1; fill:none" points="1471.57,1423.18 1471.57,1071.73 "/>
<polyline clip-path="url(#clip685)" style="stroke:#000000; stroke-linecap:round; stroke-linejoin:round; stroke-width:2; stroke-opacity:0.1; fill:none" points="1723.2,1423.18 1723.2,1071.73 "/>
<polyline clip-path="url(#clip685)" style="stroke:#000000; stroke-linecap:round; stroke-linejoin:round; stroke-width:2; stroke-opacity:0.1; fill:none" points="1974.82,1423.18 1974.82,1071.73 "/>
<polyline clip-path="url(#clip685)" style="stroke:#000000; stroke-linecap:round; stroke-linejoin:round; stroke-width:2; stroke-opacity:0.1; fill:none" points="2226.44,1423.18 2226.44,1071.73 "/>
<polyline clip-path="url(#clip685)" style="stroke:#000000; stroke-linecap:round; stroke-linejoin:round; stroke-width:2; stroke-opacity:0.1; fill:none" points="1445.91,1376.23 2352.76,1376.23 "/>
<polyline clip-path="url(#clip685)" style="stroke:#000000; stroke-linecap:round; stroke-linejoin:round; stroke-width:2; stroke-opacity:0.1; fill:none" points="1445.91,1290.9 2352.76,1290.9 "/>
<polyline clip-path="url(#clip685)" style="stroke:#000000; stroke-linecap:round; stroke-linejoin:round; stroke-width:2; stroke-opacity:0.1; fill:none" points="1445.91,1205.56 2352.76,1205.56 "/>
<polyline clip-path="url(#clip685)" style="stroke:#000000; stroke-linecap:round; stroke-linejoin:round; stroke-width:2; stroke-opacity:0.1; fill:none" points="1445.91,1120.23 2352.76,1120.23 "/>
<polyline clip-path="url(#clip680)" style="stroke:#000000; stroke-linecap:round; stroke-linejoin:round; stroke-width:4; stroke-opacity:1; fill:none" points="1445.91,1423.18 2352.76,1423.18 "/>
<polyline clip-path="url(#clip680)" style="stroke:#000000; stroke-linecap:round; stroke-linejoin:round; stroke-width:4; stroke-opacity:1; fill:none" points="1471.57,1423.18 1471.57,1404.28 "/>
<polyline clip-path="url(#clip680)" style="stroke:#000000; stroke-linecap:round; stroke-linejoin:round; stroke-width:4; stroke-opacity:1; fill:none" points="1723.2,1423.18 1723.2,1404.28 "/>
<polyline clip-path="url(#clip680)" style="stroke:#000000; stroke-linecap:round; stroke-linejoin:round; stroke-width:4; stroke-opacity:1; fill:none" points="1974.82,1423.18 1974.82,1404.28 "/>
<polyline clip-path="url(#clip680)" style="stroke:#000000; stroke-linecap:round; stroke-linejoin:round; stroke-width:4; stroke-opacity:1; fill:none" points="2226.44,1423.18 2226.44,1404.28 "/>
<path clip-path="url(#clip680)" d="M1471.57 1454.1 Q1467.96 1454.1 1466.13 1457.66 Q1464.33 1461.2 1464.33 1468.33 Q1464.33 1475.44 1466.13 1479.01 Q1467.96 1482.55 1471.57 1482.55 Q1475.21 1482.55 1477.01 1479.01 Q1478.84 1475.44 1478.84 1468.33 Q1478.84 1461.2 1477.01 1457.66 Q1475.21 1454.1 1471.57 1454.1 M1471.57 1450.39 Q1477.38 1450.39 1480.44 1455 Q1483.52 1459.58 1483.52 1468.33 Q1483.52 1477.06 1480.44 1481.67 Q1477.38 1486.25 1471.57 1486.25 Q1465.76 1486.25 1462.68 1481.67 Q1459.63 1477.06 1459.63 1468.33 Q1459.63 1459.58 1462.68 1455 Q1465.76 1450.39 1471.57 1450.39 Z" fill="#000000" fill-rule="nonzero" fill-opacity="1" /><path clip-path="url(#clip680)" d="M1713.58 1481.64 L1721.22 1481.64 L1721.22 1455.28 L1712.91 1456.95 L1712.91 1452.69 L1721.17 1451.02 L1725.85 1451.02 L1725.85 1481.64 L1733.49 1481.64 L1733.49 1485.58 L1713.58 1485.58 L1713.58 1481.64 Z" fill="#000000" fill-rule="nonzero" fill-opacity="1" /><path clip-path="url(#clip680)" d="M1969.47 1481.64 L1985.79 1481.64 L1985.79 1485.58 L1963.85 1485.58 L1963.85 1481.64 Q1966.51 1478.89 1971.09 1474.26 Q1975.7 1469.61 1976.88 1468.27 Q1979.12 1465.74 1980 1464.01 Q1980.91 1462.25 1980.91 1460.56 Q1980.91 1457.8 1978.96 1456.07 Q1977.04 1454.33 1973.94 1454.33 Q1971.74 1454.33 1969.29 1455.09 Q1966.86 1455.86 1964.08 1457.41 L1964.08 1452.69 Q1966.9 1451.55 1969.36 1450.97 Q1971.81 1450.39 1973.85 1450.39 Q1979.22 1450.39 1982.41 1453.08 Q1985.61 1455.77 1985.61 1460.26 Q1985.61 1462.39 1984.8 1464.31 Q1984.01 1466.2 1981.9 1468.8 Q1981.32 1469.47 1978.22 1472.69 Q1975.12 1475.88 1969.47 1481.64 Z" fill="#000000" fill-rule="nonzero" fill-opacity="1" /><path clip-path="url(#clip680)" d="M2230.69 1466.95 Q2234.05 1467.66 2235.92 1469.93 Q2237.82 1472.2 2237.82 1475.53 Q2237.82 1480.65 2234.3 1483.45 Q2230.78 1486.25 2224.3 1486.25 Q2222.12 1486.25 2219.81 1485.81 Q2217.52 1485.39 2215.06 1484.54 L2215.06 1480.02 Q2217.01 1481.16 2219.32 1481.74 Q2221.64 1482.32 2224.16 1482.32 Q2228.56 1482.32 2230.85 1480.58 Q2233.17 1478.84 2233.17 1475.53 Q2233.17 1472.48 2231.01 1470.77 Q2228.88 1469.03 2225.06 1469.03 L2221.04 1469.03 L2221.04 1465.19 L2225.25 1465.19 Q2228.7 1465.19 2230.53 1463.82 Q2232.36 1462.43 2232.36 1459.84 Q2232.36 1457.18 2230.46 1455.77 Q2228.58 1454.33 2225.06 1454.33 Q2223.14 1454.33 2220.94 1454.75 Q2218.74 1455.16 2216.11 1456.04 L2216.11 1451.88 Q2218.77 1451.14 2221.08 1450.77 Q2223.42 1450.39 2225.48 1450.39 Q2230.8 1450.39 2233.91 1452.83 Q2237.01 1455.23 2237.01 1459.35 Q2237.01 1462.22 2235.36 1464.21 Q2233.72 1466.18 2230.69 1466.95 Z" fill="#000000" fill-rule="nonzero" fill-opacity="1" /><path clip-path="url(#clip680)" d="M1769.5 1520.52 L1809.7 1520.52 L1809.7 1525.93 L1792.83 1525.93 L1792.83 1568.04 L1786.37 1568.04 L1786.37 1525.93 L1769.5 1525.93 L1769.5 1520.52 Z" fill="#000000" fill-rule="nonzero" fill-opacity="1" /><path clip-path="url(#clip680)" d="M1813.65 1532.4 L1819.51 1532.4 L1819.51 1568.04 L1813.65 1568.04 L1813.65 1532.4 M1813.65 1518.52 L1819.51 1518.52 L1819.51 1525.93 L1813.65 1525.93 L1813.65 1518.52 Z" fill="#000000" fill-rule="nonzero" fill-opacity="1" /><path clip-path="url(#clip680)" d="M1859.51 1539.24 Q1861.71 1535.29 1864.77 1533.41 Q1867.82 1531.54 1871.96 1531.54 Q1877.53 1531.54 1880.55 1535.45 Q1883.58 1539.33 1883.58 1546.53 L1883.58 1568.04 L1877.69 1568.04 L1877.69 1546.72 Q1877.69 1541.59 1875.87 1539.11 Q1874.06 1536.63 1870.34 1536.63 Q1865.78 1536.63 1863.14 1539.65 Q1860.5 1542.68 1860.5 1547.9 L1860.5 1568.04 L1854.61 1568.04 L1854.61 1546.72 Q1854.61 1541.56 1852.8 1539.11 Q1850.98 1536.63 1847.2 1536.63 Q1842.71 1536.63 1840.07 1539.68 Q1837.43 1542.71 1837.43 1547.9 L1837.43 1568.04 L1831.54 1568.04 L1831.54 1532.4 L1837.43 1532.4 L1837.43 1537.93 Q1839.43 1534.66 1842.23 1533.1 Q1845.03 1531.54 1848.88 1531.54 Q1852.77 1531.54 1855.47 1533.51 Q1858.21 1535.48 1859.51 1539.24 Z" fill="#000000" fill-rule="nonzero" fill-opacity="1" /><path clip-path="url(#clip680)" d="M1925.75 1548.76 L1925.75 1551.62 L1898.82 1551.62 Q1899.2 1557.67 1902.45 1560.85 Q1905.73 1564 1911.55 1564 Q1914.93 1564 1918.08 1563.17 Q1921.26 1562.35 1924.38 1560.69 L1924.38 1566.23 Q1921.23 1567.57 1917.92 1568.27 Q1914.61 1568.97 1911.2 1568.97 Q1902.67 1568.97 1897.68 1564 Q1892.71 1559.04 1892.71 1550.57 Q1892.71 1541.82 1897.42 1536.69 Q1902.16 1531.54 1910.19 1531.54 Q1917.38 1531.54 1921.55 1536.18 Q1925.75 1540.8 1925.75 1548.76 M1919.89 1547.04 Q1919.83 1542.23 1917.19 1539.37 Q1914.58 1536.5 1910.25 1536.5 Q1905.35 1536.5 1902.39 1539.27 Q1899.46 1542.04 1899.01 1547.07 L1919.89 1547.04 Z" fill="#000000" fill-rule="nonzero" fill-opacity="1" /><path clip-path="url(#clip680)" d="M1970.15 1518.58 Q1965.89 1525.9 1963.82 1533.06 Q1961.75 1540.23 1961.75 1547.58 Q1961.75 1554.93 1963.82 1562.16 Q1965.92 1569.35 1970.15 1576.64 L1965.06 1576.64 Q1960.28 1569.16 1957.9 1561.93 Q1955.54 1554.71 1955.54 1547.58 Q1955.54 1540.48 1957.9 1533.29 Q1960.25 1526.09 1965.06 1518.58 L1970.15 1518.58 Z" fill="#000000" fill-rule="nonzero" fill-opacity="1" /><path clip-path="url(#clip680)" d="M2004.24 1533.45 L2004.24 1538.98 Q2001.76 1537.71 1999.08 1537.07 Q1996.41 1536.44 1993.54 1536.44 Q1989.18 1536.44 1986.99 1537.77 Q1984.82 1539.11 1984.82 1541.79 Q1984.82 1543.82 1986.38 1545 Q1987.94 1546.15 1992.65 1547.2 L1994.66 1547.64 Q2000.9 1548.98 2003.51 1551.43 Q2006.15 1553.85 2006.15 1558.21 Q2006.15 1563.17 2002.2 1566.07 Q1998.29 1568.97 1991.41 1568.97 Q1988.55 1568.97 1985.43 1568.39 Q1982.34 1567.85 1978.9 1566.74 L1978.9 1560.69 Q1982.15 1562.38 1985.3 1563.24 Q1988.45 1564.07 1991.54 1564.07 Q1995.68 1564.07 1997.9 1562.66 Q2000.13 1561.23 2000.13 1558.65 Q2000.13 1556.27 1998.51 1554.99 Q1996.92 1553.72 1991.48 1552.54 L1989.44 1552.07 Q1984 1550.92 1981.58 1548.56 Q1979.16 1546.18 1979.16 1542.04 Q1979.16 1537.01 1982.72 1534.27 Q1986.29 1531.54 1992.84 1531.54 Q1996.09 1531.54 1998.96 1532.01 Q2001.82 1532.49 2004.24 1533.45 Z" fill="#000000" fill-rule="nonzero" fill-opacity="1" /><path clip-path="url(#clip680)" d="M2014.55 1518.58 L2019.64 1518.58 Q2024.42 1526.09 2026.77 1533.29 Q2029.16 1540.48 2029.16 1547.58 Q2029.16 1554.71 2026.77 1561.93 Q2024.42 1569.16 2019.64 1576.64 L2014.55 1576.64 Q2018.78 1569.35 2020.85 1562.16 Q2022.95 1554.93 2022.95 1547.58 Q2022.95 1540.23 2020.85 1533.06 Q2018.78 1525.9 2014.55 1518.58 Z" fill="#000000" fill-rule="nonzero" fill-opacity="1" /><polyline clip-path="url(#clip680)" style="stroke:#000000; stroke-linecap:round; stroke-linejoin:round; stroke-width:4; stroke-opacity:1; fill:none" points="1445.91,1423.18 1445.91,1071.73 "/>
<polyline clip-path="url(#clip680)" style="stroke:#000000; stroke-linecap:round; stroke-linejoin:round; stroke-width:4; stroke-opacity:1; fill:none" points="1445.91,1376.23 1464.81,1376.23 "/>
<polyline clip-path="url(#clip680)" style="stroke:#000000; stroke-linecap:round; stroke-linejoin:round; stroke-width:4; stroke-opacity:1; fill:none" points="1445.91,1290.9 1464.81,1290.9 "/>
<polyline clip-path="url(#clip680)" style="stroke:#000000; stroke-linecap:round; stroke-linejoin:round; stroke-width:4; stroke-opacity:1; fill:none" points="1445.91,1205.56 1464.81,1205.56 "/>
<polyline clip-path="url(#clip680)" style="stroke:#000000; stroke-linecap:round; stroke-linejoin:round; stroke-width:4; stroke-opacity:1; fill:none" points="1445.91,1120.23 1464.81,1120.23 "/>
<path clip-path="url(#clip680)" d="M1272.32 1376.68 L1301.99 1376.68 L1301.99 1380.62 L1272.32 1380.62 L1272.32 1376.68 Z" fill="#000000" fill-rule="nonzero" fill-opacity="1" /><path clip-path="url(#clip680)" d="M1322.08 1362.03 Q1318.47 1362.03 1316.64 1365.6 Q1314.84 1369.14 1314.84 1376.27 Q1314.84 1383.37 1316.64 1386.94 Q1318.47 1390.48 1322.08 1390.48 Q1325.72 1390.48 1327.52 1386.94 Q1329.35 1383.37 1329.35 1376.27 Q1329.35 1369.14 1327.52 1365.6 Q1325.72 1362.03 1322.08 1362.03 M1322.08 1358.33 Q1327.89 1358.33 1330.95 1362.93 Q1334.03 1367.52 1334.03 1376.27 Q1334.03 1384.99 1330.95 1389.6 Q1327.89 1394.18 1322.08 1394.18 Q1316.27 1394.18 1313.2 1389.6 Q1310.14 1384.99 1310.14 1376.27 Q1310.14 1367.52 1313.2 1362.93 Q1316.27 1358.33 1322.08 1358.33 Z" fill="#000000" fill-rule="nonzero" fill-opacity="1" /><path clip-path="url(#clip680)" d="M1342.25 1387.63 L1347.13 1387.63 L1347.13 1393.51 L1342.25 1393.51 L1342.25 1387.63 Z" fill="#000000" fill-rule="nonzero" fill-opacity="1" /><path clip-path="url(#clip680)" d="M1367.32 1362.03 Q1363.7 1362.03 1361.88 1365.6 Q1360.07 1369.14 1360.07 1376.27 Q1360.07 1383.37 1361.88 1386.94 Q1363.7 1390.48 1367.32 1390.48 Q1370.95 1390.48 1372.76 1386.94 Q1374.58 1383.37 1374.58 1376.27 Q1374.58 1369.14 1372.76 1365.6 Q1370.95 1362.03 1367.32 1362.03 M1367.32 1358.33 Q1373.13 1358.33 1376.18 1362.93 Q1379.26 1367.52 1379.26 1376.27 Q1379.26 1384.99 1376.18 1389.6 Q1373.13 1394.18 1367.32 1394.18 Q1361.51 1394.18 1358.43 1389.6 Q1355.37 1384.99 1355.37 1376.27 Q1355.37 1367.52 1358.43 1362.93 Q1361.51 1358.33 1367.32 1358.33 Z" fill="#000000" fill-rule="nonzero" fill-opacity="1" /><path clip-path="url(#clip680)" d="M1400.32 1363.03 L1388.52 1381.48 L1400.32 1381.48 L1400.32 1363.03 M1399.1 1358.95 L1404.98 1358.95 L1404.98 1381.48 L1409.91 1381.48 L1409.91 1385.36 L1404.98 1385.36 L1404.98 1393.51 L1400.32 1393.51 L1400.32 1385.36 L1384.72 1385.36 L1384.72 1380.85 L1399.1 1358.95 Z" fill="#000000" fill-rule="nonzero" fill-opacity="1" /><path clip-path="url(#clip680)" d="M1274.4 1291.35 L1304.08 1291.35 L1304.08 1295.28 L1274.4 1295.28 L1274.4 1291.35 Z" fill="#000000" fill-rule="nonzero" fill-opacity="1" /><path clip-path="url(#clip680)" d="M1324.17 1276.7 Q1320.56 1276.7 1318.73 1280.26 Q1316.92 1283.8 1316.92 1290.93 Q1316.92 1298.04 1318.73 1301.6 Q1320.56 1305.14 1324.17 1305.14 Q1327.8 1305.14 1329.61 1301.6 Q1331.44 1298.04 1331.44 1290.93 Q1331.44 1283.8 1329.61 1280.26 Q1327.8 1276.7 1324.17 1276.7 M1324.17 1272.99 Q1329.98 1272.99 1333.03 1277.6 Q1336.11 1282.18 1336.11 1290.93 Q1336.11 1299.66 1333.03 1304.27 Q1329.98 1308.85 1324.17 1308.85 Q1318.36 1308.85 1315.28 1304.27 Q1312.22 1299.66 1312.22 1290.93 Q1312.22 1282.18 1315.28 1277.6 Q1318.36 1272.99 1324.17 1272.99 Z" fill="#000000" fill-rule="nonzero" fill-opacity="1" /><path clip-path="url(#clip680)" d="M1344.33 1302.3 L1349.21 1302.3 L1349.21 1308.18 L1344.33 1308.18 L1344.33 1302.3 Z" fill="#000000" fill-rule="nonzero" fill-opacity="1" /><path clip-path="url(#clip680)" d="M1369.4 1276.7 Q1365.79 1276.7 1363.96 1280.26 Q1362.15 1283.8 1362.15 1290.93 Q1362.15 1298.04 1363.96 1301.6 Q1365.79 1305.14 1369.4 1305.14 Q1373.03 1305.14 1374.84 1301.6 Q1376.67 1298.04 1376.67 1290.93 Q1376.67 1283.8 1374.84 1280.26 Q1373.03 1276.7 1369.4 1276.7 M1369.4 1272.99 Q1375.21 1272.99 1378.26 1277.6 Q1381.34 1282.18 1381.34 1290.93 Q1381.34 1299.66 1378.26 1304.27 Q1375.21 1308.85 1369.4 1308.85 Q1363.59 1308.85 1360.51 1304.27 Q1357.45 1299.66 1357.45 1290.93 Q1357.45 1282.18 1360.51 1277.6 Q1363.59 1272.99 1369.4 1272.99 Z" fill="#000000" fill-rule="nonzero" fill-opacity="1" /><path clip-path="url(#clip680)" d="M1393.59 1304.24 L1409.91 1304.24 L1409.91 1308.18 L1387.96 1308.18 L1387.96 1304.24 Q1390.63 1301.49 1395.21 1296.86 Q1399.82 1292.21 1401 1290.86 Q1403.24 1288.34 1404.12 1286.6 Q1405.02 1284.84 1405.02 1283.15 Q1405.02 1280.4 1403.08 1278.66 Q1401.16 1276.93 1398.06 1276.93 Q1395.86 1276.93 1393.4 1277.69 Q1390.97 1278.46 1388.19 1280.01 L1388.19 1275.28 Q1391.02 1274.15 1393.47 1273.57 Q1395.93 1272.99 1397.96 1272.99 Q1403.33 1272.99 1406.53 1275.68 Q1409.72 1278.36 1409.72 1282.85 Q1409.72 1284.98 1408.91 1286.9 Q1408.13 1288.8 1406.02 1291.4 Q1405.44 1292.07 1402.34 1295.28 Q1399.24 1298.48 1393.59 1304.24 Z" fill="#000000" fill-rule="nonzero" fill-opacity="1" /><path clip-path="url(#clip680)" d="M1322.57 1191.36 Q1318.96 1191.36 1317.13 1194.93 Q1315.32 1198.47 1315.32 1205.6 Q1315.32 1212.7 1317.13 1216.27 Q1318.96 1219.81 1322.57 1219.81 Q1326.2 1219.81 1328.01 1216.27 Q1329.84 1212.7 1329.84 1205.6 Q1329.84 1198.47 1328.01 1194.93 Q1326.2 1191.36 1322.57 1191.36 M1322.57 1187.66 Q1328.38 1187.66 1331.44 1192.26 Q1334.51 1196.85 1334.51 1205.6 Q1334.51 1214.32 1331.44 1218.93 Q1328.38 1223.51 1322.57 1223.51 Q1316.76 1223.51 1313.68 1218.93 Q1310.63 1214.32 1310.63 1205.6 Q1310.63 1196.85 1313.68 1192.26 Q1316.76 1187.66 1322.57 1187.66 Z" fill="#000000" fill-rule="nonzero" fill-opacity="1" /><path clip-path="url(#clip680)" d="M1342.73 1216.96 L1347.62 1216.96 L1347.62 1222.84 L1342.73 1222.84 L1342.73 1216.96 Z" fill="#000000" fill-rule="nonzero" fill-opacity="1" /><path clip-path="url(#clip680)" d="M1367.8 1191.36 Q1364.19 1191.36 1362.36 1194.93 Q1360.56 1198.47 1360.56 1205.6 Q1360.56 1212.7 1362.36 1216.27 Q1364.19 1219.81 1367.8 1219.81 Q1371.44 1219.81 1373.24 1216.27 Q1375.07 1212.7 1375.07 1205.6 Q1375.07 1198.47 1373.24 1194.93 Q1371.44 1191.36 1367.8 1191.36 M1367.8 1187.66 Q1373.61 1187.66 1376.67 1192.26 Q1379.75 1196.85 1379.75 1205.6 Q1379.75 1214.32 1376.67 1218.93 Q1373.61 1223.51 1367.8 1223.51 Q1361.99 1223.51 1358.91 1218.93 Q1355.86 1214.32 1355.86 1205.6 Q1355.86 1196.85 1358.91 1192.26 Q1361.99 1187.66 1367.8 1187.66 Z" fill="#000000" fill-rule="nonzero" fill-opacity="1" /><path clip-path="url(#clip680)" d="M1397.96 1191.36 Q1394.35 1191.36 1392.52 1194.93 Q1390.72 1198.47 1390.72 1205.6 Q1390.72 1212.7 1392.52 1216.27 Q1394.35 1219.81 1397.96 1219.81 Q1401.6 1219.81 1403.4 1216.27 Q1405.23 1212.7 1405.23 1205.6 Q1405.23 1198.47 1403.4 1194.93 Q1401.6 1191.36 1397.96 1191.36 M1397.96 1187.66 Q1403.77 1187.66 1406.83 1192.26 Q1409.91 1196.85 1409.91 1205.6 Q1409.91 1214.32 1406.83 1218.93 Q1403.77 1223.51 1397.96 1223.51 Q1392.15 1223.51 1389.07 1218.93 Q1386.02 1214.32 1386.02 1205.6 Q1386.02 1196.85 1389.07 1192.26 Q1392.15 1187.66 1397.96 1187.66 Z" fill="#000000" fill-rule="nonzero" fill-opacity="1" /><path clip-path="url(#clip680)" d="M1324.17 1106.03 Q1320.56 1106.03 1318.73 1109.59 Q1316.92 1113.13 1316.92 1120.26 Q1316.92 1127.37 1318.73 1130.93 Q1320.56 1134.47 1324.17 1134.47 Q1327.8 1134.47 1329.61 1130.93 Q1331.44 1127.37 1331.44 1120.26 Q1331.44 1113.13 1329.61 1109.59 Q1327.8 1106.03 1324.17 1106.03 M1324.17 1102.32 Q1329.98 1102.32 1333.03 1106.93 Q1336.11 1111.51 1336.11 1120.26 Q1336.11 1128.99 1333.03 1133.6 Q1329.98 1138.18 1324.17 1138.18 Q1318.36 1138.18 1315.28 1133.6 Q1312.22 1128.99 1312.22 1120.26 Q1312.22 1111.51 1315.28 1106.93 Q1318.36 1102.32 1324.17 1102.32 Z" fill="#000000" fill-rule="nonzero" fill-opacity="1" /><path clip-path="url(#clip680)" d="M1344.33 1131.63 L1349.21 1131.63 L1349.21 1137.51 L1344.33 1137.51 L1344.33 1131.63 Z" fill="#000000" fill-rule="nonzero" fill-opacity="1" /><path clip-path="url(#clip680)" d="M1369.4 1106.03 Q1365.79 1106.03 1363.96 1109.59 Q1362.15 1113.13 1362.15 1120.26 Q1362.15 1127.37 1363.96 1130.93 Q1365.79 1134.47 1369.4 1134.47 Q1373.03 1134.47 1374.84 1130.93 Q1376.67 1127.37 1376.67 1120.26 Q1376.67 1113.13 1374.84 1109.59 Q1373.03 1106.03 1369.4 1106.03 M1369.4 1102.32 Q1375.21 1102.32 1378.26 1106.93 Q1381.34 1111.51 1381.34 1120.26 Q1381.34 1128.99 1378.26 1133.6 Q1375.21 1138.18 1369.4 1138.18 Q1363.59 1138.18 1360.51 1133.6 Q1357.45 1128.99 1357.45 1120.26 Q1357.45 1111.51 1360.51 1106.93 Q1363.59 1102.32 1369.4 1102.32 Z" fill="#000000" fill-rule="nonzero" fill-opacity="1" /><path clip-path="url(#clip680)" d="M1393.59 1133.57 L1409.91 1133.57 L1409.91 1137.51 L1387.96 1137.51 L1387.96 1133.57 Q1390.63 1130.82 1395.21 1126.19 Q1399.82 1121.54 1401 1120.19 Q1403.24 1117.67 1404.12 1115.93 Q1405.02 1114.17 1405.02 1112.48 Q1405.02 1109.73 1403.08 1107.99 Q1401.16 1106.26 1398.06 1106.26 Q1395.86 1106.26 1393.4 1107.02 Q1390.97 1107.79 1388.19 1109.34 L1388.19 1104.61 Q1391.02 1103.48 1393.47 1102.9 Q1395.93 1102.32 1397.96 1102.32 Q1403.33 1102.32 1406.53 1105.01 Q1409.72 1107.69 1409.72 1112.18 Q1409.72 1114.31 1408.91 1116.23 Q1408.13 1118.13 1406.02 1120.72 Q1405.44 1121.4 1402.34 1124.61 Q1399.24 1127.81 1393.59 1133.57 Z" fill="#000000" fill-rule="nonzero" fill-opacity="1" /><path clip-path="url(#clip680)" d="M1182.01 1252.88 L1182.94 1253.44 Q1181.43 1256.93 1179.02 1261.28 Q1181.43 1265.63 1182.94 1269.13 L1182.01 1269.67 Q1178.7 1265.86 1176.15 1261.28 Q1178.72 1256.66 1182.01 1252.88 Z" fill="#000000" fill-rule="nonzero" fill-opacity="1" /><path clip-path="url(#clip680)" d="M1194.31 1249.71 Q1196.12 1249.71 1197.15 1250.84 Q1198.14 1251.97 1198.14 1253.26 Q1198.14 1254.48 1197.44 1255.12 Q1196.73 1255.77 1195.83 1255.77 Q1194.6 1255.77 1193.54 1254.87 Q1192.48 1253.96 1192.25 1252.61 Q1191.41 1253.93 1191.41 1255.9 Q1191.41 1257.18 1192.09 1258.31 Q1192.77 1259.41 1193.64 1260.08 Q1194.51 1260.73 1195.76 1261.31 Q1196.99 1261.85 1197.73 1262.08 Q1198.43 1262.27 1199.21 1262.43 L1208.23 1264.69 Q1212.51 1265.78 1214.02 1265.78 Q1215.89 1265.78 1217.15 1264.88 Q1218.37 1263.98 1218.37 1262.18 Q1218.37 1261.47 1218.18 1260.66 Q1217.95 1259.86 1217.37 1258.83 Q1216.76 1257.76 1215.86 1256.83 Q1214.92 1255.86 1213.35 1254.93 Q1211.77 1254 1209.74 1253.38 Q1209.03 1253.19 1209.03 1252.55 Q1209.03 1251.74 1209.67 1251.74 Q1210.22 1251.74 1211.38 1252.19 Q1212.51 1252.61 1213.99 1253.55 Q1215.44 1254.45 1216.76 1255.64 Q1218.05 1256.83 1218.95 1258.6 Q1219.85 1260.37 1219.85 1262.31 Q1219.85 1265.08 1218.37 1266.91 Q1216.89 1268.75 1214.83 1269.42 Q1215.12 1269.58 1215.5 1269.81 Q1215.89 1270.03 1216.76 1270.71 Q1217.6 1271.36 1218.24 1272.1 Q1218.85 1272.84 1219.34 1274 Q1219.85 1275.12 1219.85 1276.35 Q1219.85 1277.89 1219.4 1279.28 Q1218.95 1280.63 1217.92 1281.6 Q1216.89 1282.56 1215.47 1282.56 Q1213.89 1282.56 1212.8 1281.5 Q1211.67 1280.41 1211.67 1278.92 Q1211.67 1277.99 1212.22 1277.25 Q1212.77 1276.48 1213.96 1276.48 Q1215.28 1276.48 1216.28 1277.38 Q1217.27 1278.28 1217.53 1279.57 Q1218.37 1278.25 1218.37 1276.28 Q1218.37 1274.16 1216.5 1272.48 Q1214.63 1270.81 1211.51 1270 Q1204.01 1268.01 1200.66 1267.23 Q1197.28 1266.46 1195.83 1266.46 Q1194.47 1266.46 1193.54 1266.81 Q1192.61 1267.17 1192.19 1267.78 Q1191.74 1268.36 1191.57 1268.91 Q1191.41 1269.42 1191.41 1270 Q1191.41 1270.97 1191.8 1272.06 Q1192.19 1273.13 1193.09 1274.41 Q1193.96 1275.67 1195.76 1276.86 Q1197.56 1278.05 1200.04 1278.86 Q1200.79 1279.02 1200.79 1279.73 Q1200.75 1280.5 1200.11 1280.5 Q1199.56 1280.5 1198.43 1280.08 Q1197.28 1279.63 1195.83 1278.73 Q1194.38 1277.8 1193.09 1276.6 Q1191.77 1275.38 1190.87 1273.61 Q1189.96 1271.81 1189.96 1269.87 Q1189.96 1269 1190.16 1268.17 Q1190.32 1267.3 1190.8 1266.27 Q1191.28 1265.2 1192.35 1264.27 Q1193.41 1263.34 1194.96 1262.76 Q1194.22 1262.37 1193.51 1261.85 Q1192.8 1261.31 1191.93 1260.47 Q1191.03 1259.6 1190.51 1258.41 Q1189.96 1257.18 1189.96 1255.83 Q1189.96 1254.51 1190.32 1253.22 Q1190.64 1251.94 1191.7 1250.84 Q1192.73 1249.71 1194.31 1249.71 Z" fill="#000000" fill-rule="nonzero" fill-opacity="1" /><path clip-path="url(#clip680)" d="M1231.9 1242.25 Q1230.52 1242.25 1229.87 1241.46 Q1229.22 1240.68 1229.22 1239.66 Q1229.22 1238.6 1229.92 1237.86 Q1230.59 1237.09 1231.79 1237.09 Q1233.07 1237.09 1233.79 1237.99 Q1234.51 1238.87 1234.33 1240.13 Q1236.18 1239.03 1237.02 1237 Q1237.85 1234.95 1237.85 1233.06 Q1237.85 1231.07 1236.14 1229.47 Q1234.42 1227.85 1230.23 1227.85 Q1226.67 1227.85 1224.62 1229.25 Q1222.57 1230.62 1222.57 1233.35 L1222.57 1235.38 Q1222.57 1236.08 1222.5 1236.28 Q1222.43 1236.48 1222.05 1236.48 Q1221.6 1236.48 1221.51 1235.78 Q1221.51 1235.08 1221.37 1233.98 Q1221.28 1231.3 1218.96 1229.88 Q1216.79 1228.59 1213.71 1228.59 Q1210.89 1228.59 1209.72 1229.94 Q1208.52 1231.27 1208.52 1233.01 Q1208.52 1234.63 1209.2 1236.41 Q1209.87 1238.2 1211.38 1239.17 Q1211.38 1236.3 1213.71 1236.3 Q1214.72 1236.3 1215.4 1236.96 Q1216.05 1237.59 1216.05 1238.65 Q1216.05 1239.66 1215.42 1240.34 Q1214.77 1241.01 1213.66 1241.01 Q1211.02 1241.01 1209.2 1238.67 Q1207.37 1236.3 1207.37 1232.83 Q1207.37 1229.4 1209.17 1226.88 Q1210.98 1224.33 1213.75 1224.33 Q1216.48 1224.33 1218.71 1226.13 Q1220.94 1227.94 1221.87 1230.8 Q1222.57 1227.28 1224.96 1225.19 Q1227.32 1223.09 1230.23 1223.09 Q1233.84 1223.09 1236.5 1225.93 Q1239.14 1228.77 1239.14 1232.92 Q1239.14 1236.75 1237.06 1239.5 Q1234.99 1242.25 1231.9 1242.25 Z" fill="#000000" fill-rule="nonzero" fill-opacity="1" /><polyline clip-path="url(#clip685)" style="stroke:#e26f46; stroke-linecap:round; stroke-linejoin:round; stroke-width:3; stroke-opacity:1; fill:none" stroke-dasharray="12, 6, 2, 6" points="1471.57,1205.56 1496.74,1081.68 1521.9,1413.23 1547.06,1374.4 1572.22,1342.6 1597.38,1383.75 1622.55,1379.18 1647.71,1349.39 1672.87,1353.26 1698.03,1305.36 1723.2,1334.37 1748.36,1289.77 1773.52,1236.32 1798.68,1281.65 1823.85,1223.43 1849.01,1219.16 1874.17,1244.3 1899.33,1220.99 1924.49,1235.19 1949.66,1213 1974.82,1271.19 1999.98,1233.68 2025.14,1243.04 2050.31,1229.69 2075.47,1253.18 2100.63,1238.88 2125.79,1235.67 2150.95,1245.44 2176.12,1245.81 2201.28,1218.63 2226.44,1206.54 2251.6,1218.3 2276.77,1218.47 2301.93,1197.47 2327.09,1219.77 "/>
</svg>
