<?xml version="1.0" encoding="utf-8"?>
<svg xmlns="http://www.w3.org/2000/svg" xmlns:xlink="http://www.w3.org/1999/xlink" width="600" height="400" viewBox="0 0 2400 1600">
<defs>
  <clipPath id="clip470">
    <rect x="0" y="0" width="2400" height="1600"/>
  </clipPath>
</defs>
<path clip-path="url(#clip470)" d="M0 1600 L2400 1600 L2400 0 L0 0  Z" fill="#ffffff" fill-rule="evenodd" fill-opacity="1"/>
<defs>
  <clipPath id="clip471">
    <rect x="480" y="0" width="1681" height="1600"/>
  </clipPath>
</defs>
<path clip-path="url(#clip470)" d="M232.389 623.18 L1159.26 623.18 L1159.26 47.2441 L232.389 47.2441  Z" fill="#ffffff" fill-rule="evenodd" fill-opacity="1"/>
<defs>
  <clipPath id="clip472">
    <rect x="232" y="47" width="928" height="577"/>
  </clipPath>
</defs>
<polyline clip-path="url(#clip472)" style="stroke:#000000; stroke-linecap:round; stroke-linejoin:round; stroke-width:2; stroke-opacity:0.1; fill:none" points="258.622,623.18 258.622,47.2441 "/>
<polyline clip-path="url(#clip472)" style="stroke:#000000; stroke-linecap:round; stroke-linejoin:round; stroke-width:2; stroke-opacity:0.1; fill:none" points="515.8,623.18 515.8,47.2441 "/>
<polyline clip-path="url(#clip472)" style="stroke:#000000; stroke-linecap:round; stroke-linejoin:round; stroke-width:2; stroke-opacity:0.1; fill:none" points="772.978,623.18 772.978,47.2441 "/>
<polyline clip-path="url(#clip472)" style="stroke:#000000; stroke-linecap:round; stroke-linejoin:round; stroke-width:2; stroke-opacity:0.1; fill:none" points="1030.16,623.18 1030.16,47.2441 "/>
<polyline clip-path="url(#clip472)" style="stroke:#000000; stroke-linecap:round; stroke-linejoin:round; stroke-width:2; stroke-opacity:0.1; fill:none" points="232.389,606.88 1159.26,606.88 "/>
<polyline clip-path="url(#clip472)" style="stroke:#000000; stroke-linecap:round; stroke-linejoin:round; stroke-width:2; stroke-opacity:0.1; fill:none" points="232.389,458.321 1159.26,458.321 "/>
<polyline clip-path="url(#clip472)" style="stroke:#000000; stroke-linecap:round; stroke-linejoin:round; stroke-width:2; stroke-opacity:0.1; fill:none" points="232.389,309.762 1159.26,309.762 "/>
<polyline clip-path="url(#clip472)" style="stroke:#000000; stroke-linecap:round; stroke-linejoin:round; stroke-width:2; stroke-opacity:0.1; fill:none" points="232.389,161.204 1159.26,161.204 "/>
<polyline clip-path="url(#clip470)" style="stroke:#000000; stroke-linecap:round; stroke-linejoin:round; stroke-width:4; stroke-opacity:1; fill:none" points="232.389,623.18 1159.26,623.18 "/>
<polyline clip-path="url(#clip470)" style="stroke:#000000; stroke-linecap:round; stroke-linejoin:round; stroke-width:4; stroke-opacity:1; fill:none" points="258.622,623.18 258.622,604.282 "/>
<polyline clip-path="url(#clip470)" style="stroke:#000000; stroke-linecap:round; stroke-linejoin:round; stroke-width:4; stroke-opacity:1; fill:none" points="515.8,623.18 515.8,604.282 "/>
<polyline clip-path="url(#clip470)" style="stroke:#000000; stroke-linecap:round; stroke-linejoin:round; stroke-width:4; stroke-opacity:1; fill:none" points="772.978,623.18 772.978,604.282 "/>
<polyline clip-path="url(#clip470)" style="stroke:#000000; stroke-linecap:round; stroke-linejoin:round; stroke-width:4; stroke-opacity:1; fill:none" points="1030.16,623.18 1030.16,604.282 "/>
<path clip-path="url(#clip470)" d="M258.622 654.099 Q255.01 654.099 253.182 657.663 Q251.376 661.205 251.376 668.335 Q251.376 675.441 253.182 679.006 Q255.01 682.547 258.622 682.547 Q262.256 682.547 264.061 679.006 Q265.89 675.441 265.89 668.335 Q265.89 661.205 264.061 657.663 Q262.256 654.099 258.622 654.099 M258.622 650.395 Q264.432 650.395 267.487 655.001 Q270.566 659.585 270.566 668.335 Q270.566 677.061 267.487 681.668 Q264.432 686.251 258.622 686.251 Q252.811 686.251 249.733 681.668 Q246.677 677.061 246.677 668.335 Q246.677 659.585 249.733 655.001 Q252.811 650.395 258.622 650.395 Z" fill="#000000" fill-rule="nonzero" fill-opacity="1" /><path clip-path="url(#clip470)" d="M506.182 681.645 L513.821 681.645 L513.821 655.279 L505.511 656.946 L505.511 652.687 L513.775 651.02 L518.45 651.02 L518.45 681.645 L526.089 681.645 L526.089 685.58 L506.182 685.58 L506.182 681.645 Z" fill="#000000" fill-rule="nonzero" fill-opacity="1" /><path clip-path="url(#clip470)" d="M767.631 681.645 L783.951 681.645 L783.951 685.58 L762.006 685.58 L762.006 681.645 Q764.668 678.89 769.252 674.26 Q773.858 669.608 775.039 668.265 Q777.284 665.742 778.164 664.006 Q779.066 662.247 779.066 660.557 Q779.066 657.802 777.122 656.066 Q775.201 654.33 772.099 654.33 Q769.9 654.33 767.446 655.094 Q765.016 655.858 762.238 657.409 L762.238 652.687 Q765.062 651.552 767.516 650.974 Q769.969 650.395 772.006 650.395 Q777.377 650.395 780.571 653.08 Q783.765 655.765 783.765 660.256 Q783.765 662.386 782.955 664.307 Q782.168 666.205 780.062 668.798 Q779.483 669.469 776.381 672.686 Q773.279 675.881 767.631 681.645 Z" fill="#000000" fill-rule="nonzero" fill-opacity="1" /><path clip-path="url(#clip470)" d="M1034.4 666.946 Q1037.76 667.663 1039.64 669.932 Q1041.53 672.2 1041.53 675.534 Q1041.53 680.649 1038.02 683.45 Q1034.5 686.251 1028.02 686.251 Q1025.84 686.251 1023.53 685.811 Q1021.23 685.395 1018.78 684.538 L1018.78 680.024 Q1020.72 681.159 1023.04 681.737 Q1025.35 682.316 1027.88 682.316 Q1032.27 682.316 1034.57 680.58 Q1036.88 678.844 1036.88 675.534 Q1036.88 672.478 1034.73 670.765 Q1032.6 669.029 1028.78 669.029 L1024.75 669.029 L1024.75 665.186 L1028.96 665.186 Q1032.41 665.186 1034.24 663.821 Q1036.07 662.432 1036.07 659.839 Q1036.07 657.177 1034.17 655.765 Q1032.3 654.33 1028.78 654.33 Q1026.86 654.33 1024.66 654.747 Q1022.46 655.163 1019.82 656.043 L1019.82 651.876 Q1022.48 651.136 1024.8 650.765 Q1027.14 650.395 1029.2 650.395 Q1034.52 650.395 1037.62 652.825 Q1040.72 655.233 1040.72 659.353 Q1040.72 662.223 1039.08 664.214 Q1037.44 666.182 1034.4 666.946 Z" fill="#000000" fill-rule="nonzero" fill-opacity="1" /><path clip-path="url(#clip470)" d="M565.996 720.524 L606.196 720.524 L606.196 725.935 L589.327 725.935 L589.327 768.044 L582.865 768.044 L582.865 725.935 L565.996 725.935 L565.996 720.524 Z" fill="#000000" fill-rule="nonzero" fill-opacity="1" /><path clip-path="url(#clip470)" d="M610.143 732.396 L615.999 732.396 L615.999 768.044 L610.143 768.044 L610.143 732.396 M610.143 718.519 L615.999 718.519 L615.999 725.935 L610.143 725.935 L610.143 718.519 Z" fill="#000000" fill-rule="nonzero" fill-opacity="1" /><path clip-path="url(#clip470)" d="M656.007 739.239 Q658.204 735.292 661.259 733.414 Q664.315 731.537 668.452 731.537 Q674.022 731.537 677.046 735.451 Q680.07 739.335 680.07 746.528 L680.07 768.044 L674.182 768.044 L674.182 746.719 Q674.182 741.594 672.367 739.112 Q670.553 736.629 666.829 736.629 Q662.278 736.629 659.636 739.653 Q656.994 742.677 656.994 747.896 L656.994 768.044 L651.106 768.044 L651.106 746.719 Q651.106 741.563 649.292 739.112 Q647.477 736.629 643.69 736.629 Q639.202 736.629 636.56 739.685 Q633.918 742.708 633.918 747.896 L633.918 768.044 L628.03 768.044 L628.03 732.396 L633.918 732.396 L633.918 737.934 Q635.924 734.656 638.725 733.096 Q641.525 731.537 645.377 731.537 Q649.26 731.537 651.965 733.51 Q654.702 735.483 656.007 739.239 Z" fill="#000000" fill-rule="nonzero" fill-opacity="1" /><path clip-path="url(#clip470)" d="M722.243 748.756 L722.243 751.62 L695.316 751.62 Q695.698 757.668 698.944 760.851 Q702.222 764.002 708.047 764.002 Q711.421 764.002 714.572 763.174 Q717.755 762.347 720.874 760.691 L720.874 766.23 Q717.723 767.566 714.413 768.267 Q711.103 768.967 707.697 768.967 Q699.167 768.967 694.17 764.002 Q689.205 759.036 689.205 750.57 Q689.205 741.817 693.915 736.693 Q698.658 731.537 706.678 731.537 Q713.872 731.537 718.041 736.183 Q722.243 740.799 722.243 748.756 M716.386 747.037 Q716.322 742.231 713.681 739.366 Q711.071 736.502 706.742 736.502 Q701.841 736.502 698.88 739.271 Q695.952 742.04 695.507 747.069 L716.386 747.037 Z" fill="#000000" fill-rule="nonzero" fill-opacity="1" /><path clip-path="url(#clip470)" d="M766.643 718.582 Q762.378 725.903 760.31 733.064 Q758.241 740.226 758.241 747.578 Q758.241 754.93 760.31 762.156 Q762.41 769.349 766.643 776.638 L761.551 776.638 Q756.777 769.158 754.389 761.933 Q752.034 754.708 752.034 747.578 Q752.034 740.48 754.389 733.287 Q756.745 726.094 761.551 718.582 L766.643 718.582 Z" fill="#000000" fill-rule="nonzero" fill-opacity="1" /><path clip-path="url(#clip470)" d="M800.732 733.446 L800.732 738.984 Q798.249 737.711 795.576 737.075 Q792.902 736.438 790.037 736.438 Q785.677 736.438 783.481 737.775 Q781.316 739.112 781.316 741.785 Q781.316 743.822 782.876 745 Q784.436 746.146 789.146 747.196 L791.151 747.642 Q797.39 748.979 800 751.429 Q802.641 753.848 802.641 758.209 Q802.641 763.174 798.695 766.07 Q794.78 768.967 787.905 768.967 Q785.04 768.967 781.921 768.394 Q778.834 767.853 775.396 766.739 L775.396 760.691 Q778.643 762.378 781.794 763.238 Q784.945 764.065 788.032 764.065 Q792.17 764.065 794.398 762.665 Q796.626 761.233 796.626 758.654 Q796.626 756.267 795.003 754.994 Q793.411 753.721 787.969 752.543 L785.932 752.066 Q780.489 750.92 778.07 748.565 Q775.651 746.178 775.651 742.04 Q775.651 737.011 779.216 734.274 Q782.78 731.537 789.337 731.537 Q792.584 731.537 795.448 732.014 Q798.313 732.491 800.732 733.446 Z" fill="#000000" fill-rule="nonzero" fill-opacity="1" /><path clip-path="url(#clip470)" d="M811.044 718.582 L816.137 718.582 Q820.911 726.094 823.266 733.287 Q825.654 740.48 825.654 747.578 Q825.654 754.708 823.266 761.933 Q820.911 769.158 816.137 776.638 L811.044 776.638 Q815.277 769.349 817.346 762.156 Q819.447 754.93 819.447 747.578 Q819.447 740.226 817.346 733.064 Q815.277 725.903 811.044 718.582 Z" fill="#000000" fill-rule="nonzero" fill-opacity="1" /><polyline clip-path="url(#clip470)" style="stroke:#000000; stroke-linecap:round; stroke-linejoin:round; stroke-width:4; stroke-opacity:1; fill:none" points="232.389,623.18 232.389,47.2441 "/>
<polyline clip-path="url(#clip470)" style="stroke:#000000; stroke-linecap:round; stroke-linejoin:round; stroke-width:4; stroke-opacity:1; fill:none" points="232.389,606.88 251.287,606.88 "/>
<polyline clip-path="url(#clip470)" style="stroke:#000000; stroke-linecap:round; stroke-linejoin:round; stroke-width:4; stroke-opacity:1; fill:none" points="232.389,458.321 251.287,458.321 "/>
<polyline clip-path="url(#clip470)" style="stroke:#000000; stroke-linecap:round; stroke-linejoin:round; stroke-width:4; stroke-opacity:1; fill:none" points="232.389,309.762 251.287,309.762 "/>
<polyline clip-path="url(#clip470)" style="stroke:#000000; stroke-linecap:round; stroke-linejoin:round; stroke-width:4; stroke-opacity:1; fill:none" points="232.389,161.204 251.287,161.204 "/>
<path clip-path="url(#clip470)" d="M184.445 592.678 Q180.834 592.678 179.005 596.243 Q177.2 599.785 177.2 606.914 Q177.2 614.021 179.005 617.586 Q180.834 621.127 184.445 621.127 Q188.079 621.127 189.885 617.586 Q191.713 614.021 191.713 606.914 Q191.713 599.785 189.885 596.243 Q188.079 592.678 184.445 592.678 M184.445 588.975 Q190.255 588.975 193.311 593.581 Q196.389 598.165 196.389 606.914 Q196.389 615.641 193.311 620.248 Q190.255 624.831 184.445 624.831 Q178.635 624.831 175.556 620.248 Q172.501 615.641 172.501 606.914 Q172.501 598.165 175.556 593.581 Q178.635 588.975 184.445 588.975 Z" fill="#000000" fill-rule="nonzero" fill-opacity="1" /><path clip-path="url(#clip470)" d="M144.329 441.041 L162.686 441.041 L162.686 444.976 L148.612 444.976 L148.612 453.448 Q149.63 453.101 150.649 452.939 Q151.667 452.754 152.686 452.754 Q158.473 452.754 161.852 455.925 Q165.232 459.097 165.232 464.513 Q165.232 470.092 161.76 473.194 Q158.288 476.272 151.968 476.272 Q149.792 476.272 147.524 475.902 Q145.279 475.532 142.871 474.791 L142.871 470.092 Q144.954 471.226 147.177 471.782 Q149.399 472.337 151.876 472.337 Q155.88 472.337 158.218 470.231 Q160.556 468.124 160.556 464.513 Q160.556 460.902 158.218 458.796 Q155.88 456.689 151.876 456.689 Q150.001 456.689 148.126 457.106 Q146.274 457.523 144.329 458.402 L144.329 441.041 Z" fill="#000000" fill-rule="nonzero" fill-opacity="1" /><path clip-path="url(#clip470)" d="M184.445 444.12 Q180.834 444.12 179.005 447.685 Q177.2 451.226 177.2 458.356 Q177.2 465.462 179.005 469.027 Q180.834 472.569 184.445 472.569 Q188.079 472.569 189.885 469.027 Q191.713 465.462 191.713 458.356 Q191.713 451.226 189.885 447.685 Q188.079 444.12 184.445 444.12 M184.445 440.416 Q190.255 440.416 193.311 445.023 Q196.389 449.606 196.389 458.356 Q196.389 467.083 193.311 471.689 Q190.255 476.272 184.445 476.272 Q178.635 476.272 175.556 471.689 Q172.501 467.083 172.501 458.356 Q172.501 449.606 175.556 445.023 Q178.635 440.416 184.445 440.416 Z" fill="#000000" fill-rule="nonzero" fill-opacity="1" /><path clip-path="url(#clip470)" d="M114.931 323.107 L122.57 323.107 L122.57 296.742 L114.26 298.408 L114.26 294.149 L122.524 292.482 L127.2 292.482 L127.2 323.107 L134.839 323.107 L134.839 327.042 L114.931 327.042 L114.931 323.107 Z" fill="#000000" fill-rule="nonzero" fill-opacity="1" /><path clip-path="url(#clip470)" d="M154.283 295.561 Q150.672 295.561 148.843 299.126 Q147.038 302.668 147.038 309.797 Q147.038 316.904 148.843 320.468 Q150.672 324.01 154.283 324.01 Q157.917 324.01 159.723 320.468 Q161.552 316.904 161.552 309.797 Q161.552 302.668 159.723 299.126 Q157.917 295.561 154.283 295.561 M154.283 291.858 Q160.093 291.858 163.149 296.464 Q166.227 301.047 166.227 309.797 Q166.227 318.524 163.149 323.13 Q160.093 327.714 154.283 327.714 Q148.473 327.714 145.394 323.13 Q142.339 318.524 142.339 309.797 Q142.339 301.047 145.394 296.464 Q148.473 291.858 154.283 291.858 Z" fill="#000000" fill-rule="nonzero" fill-opacity="1" /><path clip-path="url(#clip470)" d="M184.445 295.561 Q180.834 295.561 179.005 299.126 Q177.2 302.668 177.2 309.797 Q177.2 316.904 179.005 320.468 Q180.834 324.01 184.445 324.01 Q188.079 324.01 189.885 320.468 Q191.713 316.904 191.713 309.797 Q191.713 302.668 189.885 299.126 Q188.079 295.561 184.445 295.561 M184.445 291.858 Q190.255 291.858 193.311 296.464 Q196.389 301.047 196.389 309.797 Q196.389 318.524 193.311 323.13 Q190.255 327.714 184.445 327.714 Q178.635 327.714 175.556 323.13 Q172.501 318.524 172.501 309.797 Q172.501 301.047 175.556 296.464 Q178.635 291.858 184.445 291.858 Z" fill="#000000" fill-rule="nonzero" fill-opacity="1" /><path clip-path="url(#clip470)" d="M114.931 174.549 L122.57 174.549 L122.57 148.183 L114.26 149.85 L114.26 145.591 L122.524 143.924 L127.2 143.924 L127.2 174.549 L134.839 174.549 L134.839 178.484 L114.931 178.484 L114.931 174.549 Z" fill="#000000" fill-rule="nonzero" fill-opacity="1" /><path clip-path="url(#clip470)" d="M144.329 143.924 L162.686 143.924 L162.686 147.859 L148.612 147.859 L148.612 156.331 Q149.63 155.984 150.649 155.822 Q151.667 155.637 152.686 155.637 Q158.473 155.637 161.852 158.808 Q165.232 161.979 165.232 167.396 Q165.232 172.975 161.76 176.076 Q158.288 179.155 151.968 179.155 Q149.792 179.155 147.524 178.785 Q145.279 178.414 142.871 177.674 L142.871 172.975 Q144.954 174.109 147.177 174.664 Q149.399 175.22 151.876 175.22 Q155.88 175.22 158.218 173.114 Q160.556 171.007 160.556 167.396 Q160.556 163.785 158.218 161.678 Q155.88 159.572 151.876 159.572 Q150.001 159.572 148.126 159.989 Q146.274 160.405 144.329 161.285 L144.329 143.924 Z" fill="#000000" fill-rule="nonzero" fill-opacity="1" /><path clip-path="url(#clip470)" d="M184.445 147.003 Q180.834 147.003 179.005 150.567 Q177.2 154.109 177.2 161.239 Q177.2 168.345 179.005 171.91 Q180.834 175.451 184.445 175.451 Q188.079 175.451 189.885 171.91 Q191.713 168.345 191.713 161.239 Q191.713 154.109 189.885 150.567 Q188.079 147.003 184.445 147.003 M184.445 143.299 Q190.255 143.299 193.311 147.905 Q196.389 152.489 196.389 161.239 Q196.389 169.965 193.311 174.572 Q190.255 179.155 184.445 179.155 Q178.635 179.155 175.556 174.572 Q172.501 169.965 172.501 161.239 Q172.501 152.489 175.556 147.905 Q178.635 143.299 184.445 143.299 Z" fill="#000000" fill-rule="nonzero" fill-opacity="1" /><path clip-path="url(#clip470)" d="M39.4334 372.564 Q44.844 372.564 50.9309 374.303 Q56.9856 376.01 61.8809 378.715 Q66.744 381.42 69.9646 384.963 Q73.153 388.505 73.153 391.887 Q73.153 394.045 71.9613 395.655 Q70.7375 397.233 68.7085 398.103 Q66.6474 398.972 64.393 399.391 Q62.1063 399.81 59.6265 399.81 Q55.9228 399.81 51.8971 399.005 Q47.8391 398.199 44.1677 396.847 Q40.464 395.494 37.1146 393.594 Q33.733 391.694 31.2853 389.6 Q28.8055 387.475 27.3562 385.092 Q25.907 382.708 25.907 380.486 Q25.907 378.876 26.6155 377.588 Q27.2918 376.267 28.4834 375.43 Q29.6428 374.593 31.0277 374.013 Q32.4125 373.401 34.0228 373.111 Q35.6009 372.821 36.9214 372.692 Q38.2096 372.564 39.4334 372.564 M35.3433 376.911 Q33.7008 376.911 32.477 377.04 Q31.2209 377.169 29.9649 377.523 Q28.7089 377.878 28.0325 378.65 Q27.3562 379.391 27.3562 380.551 Q27.3562 383.932 34.2805 387.733 Q36.4383 388.956 39.369 390.051 Q42.2997 391.146 43.6846 391.533 Q45.0694 391.919 48.4833 392.821 L48.4833 379.037 Q39.6911 376.911 35.3433 376.911 M50.5766 379.617 L50.5766 393.336 Q58.6281 395.462 63.6522 395.462 Q68.0322 395.462 69.868 394.56 Q71.6715 393.626 71.6715 391.887 Q71.6715 389.89 69.6747 388.022 Q67.6458 386.154 63.9743 384.254 Q59.2078 381.742 50.5766 379.617 Z" fill="#000000" fill-rule="nonzero" fill-opacity="1" /><path clip-path="url(#clip470)" d="M22.9507 328.256 Q30.2712 332.521 37.4327 334.59 Q44.5941 336.658 51.9465 336.658 Q59.2989 336.658 66.5239 334.59 Q73.7172 332.489 81.0059 328.256 L81.0059 333.348 Q73.5262 338.123 66.3011 340.51 Q59.0761 342.865 51.9465 342.865 Q44.8487 342.865 37.6555 340.51 Q30.4622 338.154 22.9507 333.348 L22.9507 328.256 Z" fill="#000000" fill-rule="nonzero" fill-opacity="1" /><path clip-path="url(#clip470)" d="M28.1387 306.74 Q28.1387 309.286 29.9211 311.036 Q31.6717 312.787 34.218 312.787 Q36.7324 312.787 38.483 311.036 Q40.2017 309.286 40.2017 306.74 Q40.2017 304.193 38.483 302.443 Q36.7324 300.692 34.218 300.692 Q31.7035 300.692 29.9211 302.475 Q28.1387 304.225 28.1387 306.74 M24.0328 306.74 Q24.0328 304.703 24.8286 302.825 Q25.5924 300.947 27.0566 299.578 Q28.4888 298.114 30.3031 297.382 Q32.1173 296.65 34.218 296.65 Q38.4193 296.65 41.3476 299.61 Q44.244 302.538 44.244 306.803 Q44.244 311.1 41.3794 313.965 Q38.5148 316.829 34.218 316.829 Q29.953 316.829 26.9929 313.901 Q24.0328 310.973 24.0328 306.74 Z" fill="#000000" fill-rule="nonzero" fill-opacity="1" /><path clip-path="url(#clip470)" d="M22.9507 285.224 L22.9507 280.131 Q30.4622 275.357 37.6555 273.001 Q44.8487 270.614 51.9465 270.614 Q59.0761 270.614 66.3011 273.001 Q73.5262 275.357 81.0059 280.131 L81.0059 285.224 Q73.7172 280.99 66.5239 278.921 Q59.2989 276.821 51.9465 276.821 Q44.5941 276.821 37.4327 278.921 Q30.2712 280.99 22.9507 285.224 Z" fill="#000000" fill-rule="nonzero" fill-opacity="1" /><polyline clip-path="url(#clip472)" style="stroke:#009af9; stroke-linecap:round; stroke-linejoin:round; stroke-width:4; stroke-opacity:1; fill:none" points="258.622,606.88 284.339,588.078 310.057,555.488 335.775,522.518 361.493,485.604 387.211,448.278 412.929,413.76 438.646,381.005 464.364,348.987 490.082,317.168 515.8,285.014 541.518,251.974 567.236,217.304 592.954,180.091 618.671,139.062 644.389,105.688 670.107,86.8245 695.825,76.2662 721.543,69.855 747.261,66.1097 772.978,64.2107 798.696,63.5442 824.414,63.6462 850.132,64.2002 875.85,64.9891 901.568,65.8664 927.286,66.7449 953.003,67.5731 978.721,68.3233 1004.44,68.9838 1030.16,69.5529 1055.87,70.0349 1081.59,70.4375 1107.31,70.7699 1133.03,71.0414 "/>
<polyline clip-path="url(#clip472)" style="stroke:#3da44d; stroke-linecap:round; stroke-linejoin:round; stroke-width:3; stroke-opacity:1; fill:none" stroke-dasharray="12, 8" points="258.622,72.0687 284.339,72.0687 310.057,72.0687 335.775,72.0687 361.493,72.0687 387.211,72.0687 412.929,72.0687 438.646,72.0687 464.364,72.0687 490.082,72.0687 515.8,72.0687 541.518,72.0687 567.236,72.0687 592.954,72.0687 618.671,72.0687 644.389,72.0687 670.107,72.0687 695.825,72.0687 721.543,72.0687 747.261,72.0687 772.978,72.0687 798.696,72.0687 824.414,72.0687 850.132,72.0687 875.85,72.0687 901.568,72.0687 927.286,72.0687 953.003,72.0687 978.721,72.0687 1004.44,72.0687 1030.16,72.0687 1055.87,72.0687 1081.59,72.0687 1107.31,72.0687 1133.03,72.0687 "/>
<path clip-path="url(#clip470)" d="M987.669 603.982 L1128.36 603.982 L1128.36 448.462 L987.669 448.462  Z" fill="#ffffff" fill-rule="evenodd" fill-opacity="1"/>
<polyline clip-path="url(#clip470)" style="stroke:#000000; stroke-linecap:round; stroke-linejoin:round; stroke-width:4; stroke-opacity:1; fill:none" points="987.669,603.982 1128.36,603.982 1128.36,448.462 987.669,448.462 987.669,603.982 "/>
<polyline clip-path="url(#clip470)" style="stroke:#009af9; stroke-linecap:round; stroke-linejoin:round; stroke-width:4; stroke-opacity:1; fill:none" points="997.967,500.302 1059.76,500.302 "/>
<path clip-path="url(#clip470)" d="M1096.83 487.041 Q1095.35 487.041 1094.6 487.181 Q1093.85 487.298 1093.67 487.462 Q1093.48 487.626 1093.27 488.048 L1082.96 509.971 Q1081.86 512.314 1079.8 514 Q1077.76 515.686 1075.19 515.686 Q1073.03 515.686 1071.53 514.375 Q1070.06 513.087 1070.06 511.26 Q1070.06 509.948 1070.88 509.198 Q1071.7 508.472 1072.8 508.472 Q1074.02 508.472 1074.79 509.245 Q1075.59 510.018 1075.59 511.213 Q1075.59 511.986 1075.26 512.571 Q1074.93 513.18 1074.62 513.391 Q1074.34 513.625 1074.04 513.766 Q1074.53 513.953 1075.19 513.953 Q1076.17 513.953 1077.01 513.555 Q1077.88 513.18 1078.44 512.665 Q1079.03 512.173 1079.61 511.283 Q1080.2 510.416 1080.48 509.854 Q1080.76 509.316 1081.18 508.379 L1082.28 506.083 L1073.31 487.041 L1070.24 487.041 L1070.24 484.792 L1075.73 484.933 L1081.68 484.792 L1081.68 487.041 L1079.08 487.041 L1085.16 499.993 L1090.69 488.188 L1090.93 487.626 Q1090.93 487.369 1090.36 487.228 Q1089.8 487.064 1089.24 487.064 L1088.68 487.041 L1088.68 484.792 L1093.03 484.933 Q1095.1 484.933 1096.83 484.792 L1096.83 487.041 Z" fill="#000000" fill-rule="nonzero" fill-opacity="1" /><polyline clip-path="url(#clip470)" style="stroke:#3da44d; stroke-linecap:round; stroke-linejoin:round; stroke-width:3; stroke-opacity:1; fill:none" stroke-dasharray="12, 8" points="997.967,552.142 1059.76,552.142 "/>
<path clip-path="url(#clip470)" d="M1089.47 537.42 Q1089.47 538.778 1088.58 539.575 Q1087.69 540.348 1086.55 540.348 Q1085.4 540.348 1084.51 539.575 Q1083.62 538.802 1083.62 537.42 Q1083.62 536.811 1083.83 536.272 Q1084.06 535.71 1084.3 535.452 L1084.53 535.218 Q1083.15 535.218 1082.07 535.874 Q1081 536.506 1080.34 537.49 Q1079.68 538.474 1079.26 539.762 Q1078.84 541.027 1078.68 542.175 Q1078.54 543.322 1078.54 544.423 L1078.54 552.832 L1082.71 552.832 L1082.71 555.08 Q1080.97 554.94 1076.1 554.94 L1070.06 555.08 L1070.06 552.832 L1073.36 552.832 L1073.36 538.005 Q1073.36 536.647 1072.87 536.389 Q1072.38 536.132 1070.06 536.132 L1070.06 533.883 L1078.02 533.485 L1078.02 538.919 Q1080.01 533.485 1084.39 533.485 Q1086.41 533.485 1087.93 534.562 Q1089.47 535.616 1089.47 537.42 Z" fill="#000000" fill-rule="nonzero" fill-opacity="1" /><path clip-path="url(#clip470)" d="M1113.14 550.604 Q1112.1 550.604 1111.58 550.702 Q1111.05 550.784 1110.92 550.899 Q1110.79 551.013 1110.64 551.309 L1103.43 566.655 Q1102.66 568.294 1101.22 569.475 Q1099.79 570.655 1097.99 570.655 Q1096.48 570.655 1095.43 569.737 Q1094.4 568.836 1094.4 567.557 Q1094.4 566.639 1094.97 566.114 Q1095.54 565.606 1096.31 565.606 Q1097.17 565.606 1097.71 566.147 Q1098.27 566.688 1098.27 567.524 Q1098.27 568.065 1098.04 568.475 Q1097.81 568.901 1097.59 569.049 Q1097.4 569.213 1097.18 569.311 Q1097.53 569.442 1097.99 569.442 Q1098.68 569.442 1099.27 569.163 Q1099.87 568.901 1100.27 568.54 Q1100.68 568.196 1101.09 567.573 Q1101.5 566.966 1101.69 566.573 Q1101.89 566.196 1102.18 565.54 L1102.95 563.933 L1096.68 550.604 L1094.53 550.604 L1094.53 549.03 L1098.36 549.128 L1102.53 549.03 L1102.53 550.604 L1100.71 550.604 L1104.97 559.67 L1108.84 551.407 L1109 551.013 Q1109 550.833 1108.61 550.735 Q1108.22 550.62 1107.82 550.62 L1107.43 550.604 L1107.43 549.03 L1110.48 549.128 Q1111.92 549.128 1113.14 549.03 L1113.14 550.604 Z" fill="#000000" fill-rule="nonzero" fill-opacity="1" /><path clip-path="url(#clip470)" d="M1425.88 623.18 L2352.76 623.18 L2352.76 47.2441 L1425.88 47.2441  Z" fill="#ffffff" fill-rule="evenodd" fill-opacity="1"/>
<defs>
  <clipPath id="clip473">
    <rect x="1425" y="47" width="928" height="577"/>
  </clipPath>
</defs>
<polyline clip-path="url(#clip473)" style="stroke:#000000; stroke-linecap:round; stroke-linejoin:round; stroke-width:2; stroke-opacity:0.1; fill:none" points="1452.12,623.18 1452.12,47.2441 "/>
<polyline clip-path="url(#clip473)" style="stroke:#000000; stroke-linecap:round; stroke-linejoin:round; stroke-width:2; stroke-opacity:0.1; fill:none" points="1709.3,623.18 1709.3,47.2441 "/>
<polyline clip-path="url(#clip473)" style="stroke:#000000; stroke-linecap:round; stroke-linejoin:round; stroke-width:2; stroke-opacity:0.1; fill:none" points="1966.47,623.18 1966.47,47.2441 "/>
<polyline clip-path="url(#clip473)" style="stroke:#000000; stroke-linecap:round; stroke-linejoin:round; stroke-width:2; stroke-opacity:0.1; fill:none" points="2223.65,623.18 2223.65,47.2441 "/>
<polyline clip-path="url(#clip473)" style="stroke:#000000; stroke-linecap:round; stroke-linejoin:round; stroke-width:2; stroke-opacity:0.1; fill:none" points="1425.88,582.367 2352.76,582.367 "/>
<polyline clip-path="url(#clip473)" style="stroke:#000000; stroke-linecap:round; stroke-linejoin:round; stroke-width:2; stroke-opacity:0.1; fill:none" points="1425.88,423.745 2352.76,423.745 "/>
<polyline clip-path="url(#clip473)" style="stroke:#000000; stroke-linecap:round; stroke-linejoin:round; stroke-width:2; stroke-opacity:0.1; fill:none" points="1425.88,265.122 2352.76,265.122 "/>
<polyline clip-path="url(#clip473)" style="stroke:#000000; stroke-linecap:round; stroke-linejoin:round; stroke-width:2; stroke-opacity:0.1; fill:none" points="1425.88,106.5 2352.76,106.5 "/>
<polyline clip-path="url(#clip470)" style="stroke:#000000; stroke-linecap:round; stroke-linejoin:round; stroke-width:4; stroke-opacity:1; fill:none" points="1425.88,623.18 2352.76,623.18 "/>
<polyline clip-path="url(#clip470)" style="stroke:#000000; stroke-linecap:round; stroke-linejoin:round; stroke-width:4; stroke-opacity:1; fill:none" points="1452.12,623.18 1452.12,604.282 "/>
<polyline clip-path="url(#clip470)" style="stroke:#000000; stroke-linecap:round; stroke-linejoin:round; stroke-width:4; stroke-opacity:1; fill:none" points="1709.3,623.18 1709.3,604.282 "/>
<polyline clip-path="url(#clip470)" style="stroke:#000000; stroke-linecap:round; stroke-linejoin:round; stroke-width:4; stroke-opacity:1; fill:none" points="1966.47,623.18 1966.47,604.282 "/>
<polyline clip-path="url(#clip470)" style="stroke:#000000; stroke-linecap:round; stroke-linejoin:round; stroke-width:4; stroke-opacity:1; fill:none" points="2223.65,623.18 2223.65,604.282 "/>
<path clip-path="url(#clip470)" d="M1452.12 654.099 Q1448.51 654.099 1446.68 657.663 Q1444.87 661.205 1444.87 668.335 Q1444.87 675.441 1446.68 679.006 Q1448.51 682.547 1452.12 682.547 Q1455.75 682.547 1457.56 679.006 Q1459.39 675.441 1459.39 668.335 Q1459.39 661.205 1457.56 657.663 Q1455.75 654.099 1452.12 654.099 M1452.12 650.395 Q1457.93 650.395 1460.98 655.001 Q1464.06 659.585 1464.06 668.335 Q1464.06 677.061 1460.98 681.668 Q1457.93 686.251 1452.12 686.251 Q1446.31 686.251 1443.23 681.668 Q1440.17 677.061 1440.17 668.335 Q1440.17 659.585 1443.23 655.001 Q1446.31 650.395 1452.12 650.395 Z" fill="#000000" fill-rule="nonzero" fill-opacity="1" /><path clip-path="url(#clip470)" d="M1699.68 681.645 L1707.32 681.645 L1707.32 655.279 L1699.01 656.946 L1699.01 652.687 L1707.27 651.02 L1711.95 651.02 L1711.95 681.645 L1719.58 681.645 L1719.58 685.58 L1699.68 685.58 L1699.68 681.645 Z" fill="#000000" fill-rule="nonzero" fill-opacity="1" /><path clip-path="url(#clip470)" d="M1961.13 681.645 L1977.45 681.645 L1977.45 685.58 L1955.5 685.58 L1955.5 681.645 Q1958.16 678.89 1962.75 674.26 Q1967.35 669.608 1968.53 668.265 Q1970.78 665.742 1971.66 664.006 Q1972.56 662.247 1972.56 660.557 Q1972.56 657.802 1970.62 656.066 Q1968.7 654.33 1965.59 654.33 Q1963.4 654.33 1960.94 655.094 Q1958.51 655.858 1955.73 657.409 L1955.73 652.687 Q1958.56 651.552 1961.01 650.974 Q1963.46 650.395 1965.5 650.395 Q1970.87 650.395 1974.07 653.08 Q1977.26 655.765 1977.26 660.256 Q1977.26 662.386 1976.45 664.307 Q1975.66 666.205 1973.56 668.798 Q1972.98 669.469 1969.88 672.686 Q1966.77 675.881 1961.13 681.645 Z" fill="#000000" fill-rule="nonzero" fill-opacity="1" /><path clip-path="url(#clip470)" d="M2227.9 666.946 Q2231.26 667.663 2233.13 669.932 Q2235.03 672.2 2235.03 675.534 Q2235.03 680.649 2231.51 683.45 Q2227.99 686.251 2221.51 686.251 Q2219.34 686.251 2217.02 685.811 Q2214.73 685.395 2212.28 684.538 L2212.28 680.024 Q2214.22 681.159 2216.53 681.737 Q2218.85 682.316 2221.37 682.316 Q2225.77 682.316 2228.06 680.58 Q2230.38 678.844 2230.38 675.534 Q2230.38 672.478 2228.22 670.765 Q2226.09 669.029 2222.28 669.029 L2218.25 669.029 L2218.25 665.186 L2222.46 665.186 Q2225.91 665.186 2227.74 663.821 Q2229.57 662.432 2229.57 659.839 Q2229.57 657.177 2227.67 655.765 Q2225.79 654.33 2222.28 654.33 Q2220.35 654.33 2218.15 654.747 Q2215.96 655.163 2213.32 656.043 L2213.32 651.876 Q2215.98 651.136 2218.29 650.765 Q2220.63 650.395 2222.69 650.395 Q2228.02 650.395 2231.12 652.825 Q2234.22 655.233 2234.22 659.353 Q2234.22 662.223 2232.58 664.214 Q2230.93 666.182 2227.9 666.946 Z" fill="#000000" fill-rule="nonzero" fill-opacity="1" /><path clip-path="url(#clip470)" d="M1759.49 720.524 L1799.69 720.524 L1799.69 725.935 L1782.82 725.935 L1782.82 768.044 L1776.36 768.044 L1776.36 725.935 L1759.49 725.935 L1759.49 720.524 Z" fill="#000000" fill-rule="nonzero" fill-opacity="1" /><path clip-path="url(#clip470)" d="M1803.64 732.396 L1809.49 732.396 L1809.49 768.044 L1803.64 768.044 L1803.64 732.396 M1803.64 718.519 L1809.49 718.519 L1809.49 725.935 L1803.64 725.935 L1803.64 718.519 Z" fill="#000000" fill-rule="nonzero" fill-opacity="1" /><path clip-path="url(#clip470)" d="M1849.5 739.239 Q1851.7 735.292 1854.75 733.414 Q1857.81 731.537 1861.95 731.537 Q1867.52 731.537 1870.54 735.451 Q1873.57 739.335 1873.57 746.528 L1873.57 768.044 L1867.68 768.044 L1867.68 746.719 Q1867.68 741.594 1865.86 739.112 Q1864.05 736.629 1860.32 736.629 Q1855.77 736.629 1853.13 739.653 Q1850.49 742.677 1850.49 747.896 L1850.49 768.044 L1844.6 768.044 L1844.6 746.719 Q1844.6 741.563 1842.79 739.112 Q1840.97 736.629 1837.19 736.629 Q1832.7 736.629 1830.06 739.685 Q1827.41 742.708 1827.41 747.896 L1827.41 768.044 L1821.53 768.044 L1821.53 732.396 L1827.41 732.396 L1827.41 737.934 Q1829.42 734.656 1832.22 733.096 Q1835.02 731.537 1838.87 731.537 Q1842.76 731.537 1845.46 733.51 Q1848.2 735.483 1849.5 739.239 Z" fill="#000000" fill-rule="nonzero" fill-opacity="1" /><path clip-path="url(#clip470)" d="M1915.74 748.756 L1915.74 751.62 L1888.81 751.62 Q1889.19 757.668 1892.44 760.851 Q1895.72 764.002 1901.54 764.002 Q1904.92 764.002 1908.07 763.174 Q1911.25 762.347 1914.37 760.691 L1914.37 766.23 Q1911.22 767.566 1907.91 768.267 Q1904.6 768.967 1901.19 768.967 Q1892.66 768.967 1887.67 764.002 Q1882.7 759.036 1882.7 750.57 Q1882.7 741.817 1887.41 736.693 Q1892.15 731.537 1900.17 731.537 Q1907.37 731.537 1911.54 736.183 Q1915.74 740.799 1915.74 748.756 M1909.88 747.037 Q1909.82 742.231 1907.18 739.366 Q1904.57 736.502 1900.24 736.502 Q1895.34 736.502 1892.38 739.271 Q1889.45 742.04 1889 747.069 L1909.88 747.037 Z" fill="#000000" fill-rule="nonzero" fill-opacity="1" /><path clip-path="url(#clip470)" d="M1960.14 718.582 Q1955.87 725.903 1953.8 733.064 Q1951.74 740.226 1951.74 747.578 Q1951.74 754.93 1953.8 762.156 Q1955.91 769.349 1960.14 776.638 L1955.05 776.638 Q1950.27 769.158 1947.88 761.933 Q1945.53 754.708 1945.53 747.578 Q1945.53 740.48 1947.88 733.287 Q1950.24 726.094 1955.05 718.582 L1960.14 718.582 Z" fill="#000000" fill-rule="nonzero" fill-opacity="1" /><path clip-path="url(#clip470)" d="M1994.23 733.446 L1994.23 738.984 Q1991.74 737.711 1989.07 737.075 Q1986.4 736.438 1983.53 736.438 Q1979.17 736.438 1976.98 737.775 Q1974.81 739.112 1974.81 741.785 Q1974.81 743.822 1976.37 745 Q1977.93 746.146 1982.64 747.196 L1984.65 747.642 Q1990.89 748.979 1993.5 751.429 Q1996.14 753.848 1996.14 758.209 Q1996.14 763.174 1992.19 766.07 Q1988.28 768.967 1981.4 768.967 Q1978.54 768.967 1975.42 768.394 Q1972.33 767.853 1968.89 766.739 L1968.89 760.691 Q1972.14 762.378 1975.29 763.238 Q1978.44 764.065 1981.53 764.065 Q1985.67 764.065 1987.89 762.665 Q1990.12 761.233 1990.12 758.654 Q1990.12 756.267 1988.5 754.994 Q1986.91 753.721 1981.46 752.543 L1979.43 752.066 Q1973.98 750.92 1971.57 748.565 Q1969.15 746.178 1969.15 742.04 Q1969.15 737.011 1972.71 734.274 Q1976.28 731.537 1982.83 731.537 Q1986.08 731.537 1988.94 732.014 Q1991.81 732.491 1994.23 733.446 Z" fill="#000000" fill-rule="nonzero" fill-opacity="1" /><path clip-path="url(#clip470)" d="M2004.54 718.582 L2009.63 718.582 Q2014.41 726.094 2016.76 733.287 Q2019.15 740.48 2019.15 747.578 Q2019.15 754.708 2016.76 761.933 Q2014.41 769.158 2009.63 776.638 L2004.54 776.638 Q2008.77 769.349 2010.84 762.156 Q2012.94 754.93 2012.94 747.578 Q2012.94 740.226 2010.84 733.064 Q2008.77 725.903 2004.54 718.582 Z" fill="#000000" fill-rule="nonzero" fill-opacity="1" /><polyline clip-path="url(#clip470)" style="stroke:#000000; stroke-linecap:round; stroke-linejoin:round; stroke-width:4; stroke-opacity:1; fill:none" points="1425.88,623.18 1425.88,47.2441 "/>
<polyline clip-path="url(#clip470)" style="stroke:#000000; stroke-linecap:round; stroke-linejoin:round; stroke-width:4; stroke-opacity:1; fill:none" points="1425.88,582.367 1444.78,582.367 "/>
<polyline clip-path="url(#clip470)" style="stroke:#000000; stroke-linecap:round; stroke-linejoin:round; stroke-width:4; stroke-opacity:1; fill:none" points="1425.88,423.745 1444.78,423.745 "/>
<polyline clip-path="url(#clip470)" style="stroke:#000000; stroke-linecap:round; stroke-linejoin:round; stroke-width:4; stroke-opacity:1; fill:none" points="1425.88,265.122 1444.78,265.122 "/>
<polyline clip-path="url(#clip470)" style="stroke:#000000; stroke-linecap:round; stroke-linejoin:round; stroke-width:4; stroke-opacity:1; fill:none" points="1425.88,106.5 1444.78,106.5 "/>
<path clip-path="url(#clip470)" d="M1332.71 568.166 Q1329.1 568.166 1327.27 571.73 Q1325.46 575.272 1325.46 582.402 Q1325.46 589.508 1327.27 593.073 Q1329.1 596.615 1332.71 596.615 Q1336.34 596.615 1338.15 593.073 Q1339.98 589.508 1339.98 582.402 Q1339.98 575.272 1338.15 571.73 Q1336.34 568.166 1332.71 568.166 M1332.71 564.462 Q1338.52 564.462 1341.57 569.068 Q1344.65 573.652 1344.65 582.402 Q1344.65 591.128 1341.57 595.735 Q1338.52 600.318 1332.71 600.318 Q1326.9 600.318 1323.82 595.735 Q1320.76 591.128 1320.76 582.402 Q1320.76 573.652 1323.82 569.068 Q1326.9 564.462 1332.71 564.462 Z" fill="#000000" fill-rule="nonzero" fill-opacity="1" /><path clip-path="url(#clip470)" d="M1352.87 593.767 L1357.76 593.767 L1357.76 599.647 L1352.87 599.647 L1352.87 593.767 Z" fill="#000000" fill-rule="nonzero" fill-opacity="1" /><path clip-path="url(#clip470)" d="M1377.94 568.166 Q1374.33 568.166 1372.5 571.73 Q1370.7 575.272 1370.7 582.402 Q1370.7 589.508 1372.5 593.073 Q1374.33 596.615 1377.94 596.615 Q1381.57 596.615 1383.38 593.073 Q1385.21 589.508 1385.21 582.402 Q1385.21 575.272 1383.38 571.73 Q1381.57 568.166 1377.94 568.166 M1377.94 564.462 Q1383.75 564.462 1386.81 569.068 Q1389.88 573.652 1389.88 582.402 Q1389.88 591.128 1386.81 595.735 Q1383.75 600.318 1377.94 600.318 Q1372.13 600.318 1369.05 595.735 Q1366 591.128 1366 582.402 Q1366 573.652 1369.05 569.068 Q1372.13 564.462 1377.94 564.462 Z" fill="#000000" fill-rule="nonzero" fill-opacity="1" /><path clip-path="url(#clip470)" d="M1333.7 409.543 Q1330.09 409.543 1328.26 413.108 Q1326.46 416.65 1326.46 423.779 Q1326.46 430.886 1328.26 434.451 Q1330.09 437.992 1333.7 437.992 Q1337.34 437.992 1339.14 434.451 Q1340.97 430.886 1340.97 423.779 Q1340.97 416.65 1339.14 413.108 Q1337.34 409.543 1333.7 409.543 M1333.7 405.84 Q1339.51 405.84 1342.57 410.446 Q1345.65 415.029 1345.65 423.779 Q1345.65 432.506 1342.57 437.113 Q1339.51 441.696 1333.7 441.696 Q1327.89 441.696 1324.82 437.113 Q1321.76 432.506 1321.76 423.779 Q1321.76 415.029 1324.82 410.446 Q1327.89 405.84 1333.7 405.84 Z" fill="#000000" fill-rule="nonzero" fill-opacity="1" /><path clip-path="url(#clip470)" d="M1353.87 435.145 L1358.75 435.145 L1358.75 441.025 L1353.87 441.025 L1353.87 435.145 Z" fill="#000000" fill-rule="nonzero" fill-opacity="1" /><path clip-path="url(#clip470)" d="M1368.98 406.465 L1387.34 406.465 L1387.34 410.4 L1373.26 410.4 L1373.26 418.872 Q1374.28 418.525 1375.3 418.363 Q1376.32 418.178 1377.34 418.178 Q1383.13 418.178 1386.51 421.349 Q1389.88 424.52 1389.88 429.937 Q1389.88 435.515 1386.41 438.617 Q1382.94 441.696 1376.62 441.696 Q1374.45 441.696 1372.18 441.326 Q1369.93 440.955 1367.52 440.214 L1367.52 435.515 Q1369.61 436.65 1371.83 437.205 Q1374.05 437.761 1376.53 437.761 Q1380.53 437.761 1382.87 435.654 Q1385.21 433.548 1385.21 429.937 Q1385.21 426.326 1382.87 424.219 Q1380.53 422.113 1376.53 422.113 Q1374.65 422.113 1372.78 422.529 Q1370.93 422.946 1368.98 423.826 L1368.98 406.465 Z" fill="#000000" fill-rule="nonzero" fill-opacity="1" /><path clip-path="url(#clip470)" d="M1323.52 278.467 L1331.16 278.467 L1331.16 252.102 L1322.85 253.768 L1322.85 249.509 L1331.11 247.842 L1335.79 247.842 L1335.79 278.467 L1343.43 278.467 L1343.43 282.402 L1323.52 282.402 L1323.52 278.467 Z" fill="#000000" fill-rule="nonzero" fill-opacity="1" /><path clip-path="url(#clip470)" d="M1352.87 276.523 L1357.76 276.523 L1357.76 282.402 L1352.87 282.402 L1352.87 276.523 Z" fill="#000000" fill-rule="nonzero" fill-opacity="1" /><path clip-path="url(#clip470)" d="M1377.94 250.921 Q1374.33 250.921 1372.5 254.486 Q1370.7 258.028 1370.7 265.157 Q1370.7 272.264 1372.5 275.828 Q1374.33 279.37 1377.94 279.37 Q1381.57 279.37 1383.38 275.828 Q1385.21 272.264 1385.21 265.157 Q1385.21 258.028 1383.38 254.486 Q1381.57 250.921 1377.94 250.921 M1377.94 247.217 Q1383.75 247.217 1386.81 251.824 Q1389.88 256.407 1389.88 265.157 Q1389.88 273.884 1386.81 278.49 Q1383.75 283.074 1377.94 283.074 Q1372.13 283.074 1369.05 278.49 Q1366 273.884 1366 265.157 Q1366 256.407 1369.05 251.824 Q1372.13 247.217 1377.94 247.217 Z" fill="#000000" fill-rule="nonzero" fill-opacity="1" /><path clip-path="url(#clip470)" d="M1324.51 119.845 L1332.15 119.845 L1332.15 93.4793 L1323.84 95.146 L1323.84 90.8868 L1332.11 89.2201 L1336.78 89.2201 L1336.78 119.845 L1344.42 119.845 L1344.42 123.78 L1324.51 123.78 L1324.51 119.845 Z" fill="#000000" fill-rule="nonzero" fill-opacity="1" /><path clip-path="url(#clip470)" d="M1353.87 117.9 L1358.75 117.9 L1358.75 123.78 L1353.87 123.78 L1353.87 117.9 Z" fill="#000000" fill-rule="nonzero" fill-opacity="1" /><path clip-path="url(#clip470)" d="M1368.98 89.2201 L1387.34 89.2201 L1387.34 93.1553 L1373.26 93.1553 L1373.26 101.627 Q1374.28 101.28 1375.3 101.118 Q1376.32 100.933 1377.34 100.933 Q1383.13 100.933 1386.51 104.104 Q1389.88 107.276 1389.88 112.692 Q1389.88 118.271 1386.41 121.373 Q1382.94 124.451 1376.62 124.451 Q1374.45 124.451 1372.18 124.081 Q1369.93 123.711 1367.52 122.97 L1367.52 118.271 Q1369.61 119.405 1371.83 119.961 Q1374.05 120.516 1376.53 120.516 Q1380.53 120.516 1382.87 118.41 Q1385.21 116.303 1385.21 112.692 Q1385.21 109.081 1382.87 106.975 Q1380.53 104.868 1376.53 104.868 Q1374.65 104.868 1372.78 105.285 Q1370.93 105.701 1368.98 106.581 L1368.98 89.2201 Z" fill="#000000" fill-rule="nonzero" fill-opacity="1" /><path clip-path="url(#clip470)" d="M1243.08 406.642 Q1245.33 406.642 1245.33 409.895 L1245.33 420.974 L1267.91 425.386 Q1268.49 425.483 1268.81 425.612 Q1269.14 425.708 1269.68 425.998 Q1270.2 426.256 1270.46 426.803 Q1270.75 427.318 1270.75 428.091 Q1270.75 429.058 1270.17 429.541 Q1269.62 429.992 1268.94 429.992 Q1268.52 429.992 1266.53 429.347 L1245.33 422.874 L1245.33 428.349 Q1245.33 433.502 1250.42 436.723 Q1251.1 437.238 1251.16 437.528 Q1251.2 437.657 1251.2 437.785 Q1251.2 438.14 1251.04 438.365 Q1250.87 438.558 1250.71 438.558 L1250.55 438.59 Q1250.33 438.59 1249.43 438.075 Q1248.49 437.528 1247.11 436.562 Q1245.72 435.563 1244.63 434.565 Q1243.21 433.244 1242.47 431.763 Q1241.7 430.281 1241.6 429.541 Q1241.5 428.768 1241.5 427.769 L1241.5 409.283 Q1241.5 408.446 1241.57 407.995 Q1241.6 407.544 1241.99 407.093 Q1242.34 406.642 1243.08 406.642 Z" fill="#000000" fill-rule="nonzero" fill-opacity="1" /><path clip-path="url(#clip470)" d="M1220.48 369.142 Q1227.8 373.407 1234.96 375.476 Q1242.12 377.544 1249.47 377.544 Q1256.83 377.544 1264.05 375.476 Q1271.25 373.375 1278.53 369.142 L1278.53 374.234 Q1271.05 379.009 1263.83 381.396 Q1256.6 383.751 1249.47 383.751 Q1242.38 383.751 1235.18 381.396 Q1227.99 379.04 1220.48 374.234 L1220.48 369.142 Z" fill="#000000" fill-rule="nonzero" fill-opacity="1" /><path clip-path="url(#clip470)" d="M1222.42 357.524 L1222.42 348.867 L1262.17 327.796 L1222.42 327.796 L1222.42 321.558 L1269.94 321.558 L1269.94 330.215 L1230.19 351.286 L1269.94 351.286 L1269.94 357.524 L1222.42 357.524 Z" fill="#000000" fill-rule="nonzero" fill-opacity="1" /><path clip-path="url(#clip470)" d="M1241.14 281.263 Q1237.19 279.067 1235.31 276.011 Q1233.43 272.956 1233.43 268.818 Q1233.43 263.248 1237.35 260.224 Q1241.23 257.201 1248.42 257.201 L1269.94 257.201 L1269.94 263.089 L1248.62 263.089 Q1243.49 263.089 1241.01 264.903 Q1238.53 266.718 1238.53 270.441 Q1238.53 274.993 1241.55 277.635 Q1244.57 280.276 1249.79 280.276 L1269.94 280.276 L1269.94 286.165 L1248.62 286.165 Q1243.46 286.165 1241.01 287.979 Q1238.53 289.793 1238.53 293.581 Q1238.53 298.069 1241.58 300.71 Q1244.6 303.352 1249.79 303.352 L1269.94 303.352 L1269.94 309.24 L1234.29 309.24 L1234.29 303.352 L1239.83 303.352 Q1236.55 301.347 1234.99 298.546 Q1233.43 295.745 1233.43 291.894 Q1233.43 288.011 1235.41 285.305 Q1237.38 282.568 1241.14 281.263 Z" fill="#000000" fill-rule="nonzero" fill-opacity="1" /><path clip-path="url(#clip470)" d="M1220.48 246.443 L1220.48 241.35 Q1227.99 236.576 1235.18 234.221 Q1242.38 231.833 1249.47 231.833 Q1256.6 231.833 1263.83 234.221 Q1271.05 236.576 1278.53 241.35 L1278.53 246.443 Q1271.25 242.21 1264.05 240.141 Q1256.83 238.04 1249.47 238.04 Q1242.12 238.04 1234.96 240.141 Q1227.8 242.21 1220.48 246.443 Z" fill="#000000" fill-rule="nonzero" fill-opacity="1" /><polyline clip-path="url(#clip473)" style="stroke:#009af9; stroke-linecap:round; stroke-linejoin:round; stroke-width:4; stroke-opacity:1; fill:none" points="1452.12,178.925 1477.83,178.925 1477.83,395.205 1503.55,395.205 1503.55,254.049 1529.27,254.049 1529.27,172.587 1554.99,172.587 1554.99,162.649 1580.71,162.649 1580.71,134.498 1606.42,134.498 1606.42,88.9531 1632.14,88.9531 1632.14,77.2413 1657.86,77.2413 1657.86,63.5442 1683.58,63.5442 1683.58,71.3922 1709.3,71.3922 1709.3,80.5763 1735.01,80.5763 1735.01,105.141 1760.73,105.141 1760.73,134.072 1786.45,134.072 1786.45,174.134 1812.17,174.134 1812.17,488.771 1837.88,488.771 1837.88,556.71 1863.6,556.71 1863.6,563.935 1889.32,563.935 1889.32,581.391 1915.04,581.391 1915.04,595.414 1940.76,595.414 1940.76,603.309 1966.47,603.309 1966.47,606.552 1992.19,606.552 1992.19,606.88 2017.91,606.88 2017.91,605.856 2043.63,605.856 2043.63,603.656 2069.35,603.656 2069.35,601.195 2095.06,601.195 2095.06,598.646 2120.78,598.646 2120.78,596.193 2146.5,596.193 2146.5,593.941 2172.22,593.941 2172.22,591.938 2197.93,591.938 2197.93,590.2 2223.65,590.2 2223.65,588.72 2249.37,588.72 2249.37,587.476 2275.09,587.476 2275.09,586.446 2300.81,586.446 2300.81,585.601 2326.52,585.601 2326.52,584.915 "/>
<path clip-path="url(#clip470)" d="M232.389 1423.18 L2352.76 1423.18 L2352.76 847.244 L232.389 847.244  Z" fill="#ffffff" fill-rule="evenodd" fill-opacity="1"/>
<defs>
  <clipPath id="clip474">
    <rect x="232" y="847" width="2121" height="577"/>
  </clipPath>
</defs>
<polyline clip-path="url(#clip474)" style="stroke:#000000; stroke-linecap:round; stroke-linejoin:round; stroke-width:2; stroke-opacity:0.1; fill:none" points="292.4,1423.18 292.4,847.244 "/>
<polyline clip-path="url(#clip474)" style="stroke:#000000; stroke-linecap:round; stroke-linejoin:round; stroke-width:2; stroke-opacity:0.1; fill:none" points="880.737,1423.18 880.737,847.244 "/>
<polyline clip-path="url(#clip474)" style="stroke:#000000; stroke-linecap:round; stroke-linejoin:round; stroke-width:2; stroke-opacity:0.1; fill:none" points="1469.07,1423.18 1469.07,847.244 "/>
<polyline clip-path="url(#clip474)" style="stroke:#000000; stroke-linecap:round; stroke-linejoin:round; stroke-width:2; stroke-opacity:0.1; fill:none" points="2057.41,1423.18 2057.41,847.244 "/>
<polyline clip-path="url(#clip474)" style="stroke:#000000; stroke-linecap:round; stroke-linejoin:round; stroke-width:2; stroke-opacity:0.1; fill:none" points="232.389,1404.69 2352.76,1404.69 "/>
<polyline clip-path="url(#clip474)" style="stroke:#000000; stroke-linecap:round; stroke-linejoin:round; stroke-width:2; stroke-opacity:0.1; fill:none" points="232.389,1226.37 2352.76,1226.37 "/>
<polyline clip-path="url(#clip474)" style="stroke:#000000; stroke-linecap:round; stroke-linejoin:round; stroke-width:2; stroke-opacity:0.1; fill:none" points="232.389,1048.05 2352.76,1048.05 "/>
<polyline clip-path="url(#clip474)" style="stroke:#000000; stroke-linecap:round; stroke-linejoin:round; stroke-width:2; stroke-opacity:0.1; fill:none" points="232.389,869.729 2352.76,869.729 "/>
<polyline clip-path="url(#clip470)" style="stroke:#000000; stroke-linecap:round; stroke-linejoin:round; stroke-width:4; stroke-opacity:1; fill:none" points="232.389,1423.18 2352.76,1423.18 "/>
<polyline clip-path="url(#clip470)" style="stroke:#000000; stroke-linecap:round; stroke-linejoin:round; stroke-width:4; stroke-opacity:1; fill:none" points="292.4,1423.18 292.4,1404.28 "/>
<polyline clip-path="url(#clip470)" style="stroke:#000000; stroke-linecap:round; stroke-linejoin:round; stroke-width:4; stroke-opacity:1; fill:none" points="880.737,1423.18 880.737,1404.28 "/>
<polyline clip-path="url(#clip470)" style="stroke:#000000; stroke-linecap:round; stroke-linejoin:round; stroke-width:4; stroke-opacity:1; fill:none" points="1469.07,1423.18 1469.07,1404.28 "/>
<polyline clip-path="url(#clip470)" style="stroke:#000000; stroke-linecap:round; stroke-linejoin:round; stroke-width:4; stroke-opacity:1; fill:none" points="2057.41,1423.18 2057.41,1404.28 "/>
<path clip-path="url(#clip470)" d="M292.4 1454.1 Q288.789 1454.1 286.96 1457.66 Q285.154 1461.2 285.154 1468.33 Q285.154 1475.44 286.96 1479.01 Q288.789 1482.55 292.4 1482.55 Q296.034 1482.55 297.84 1479.01 Q299.668 1475.44 299.668 1468.33 Q299.668 1461.2 297.84 1457.66 Q296.034 1454.1 292.4 1454.1 M292.4 1450.39 Q298.21 1450.39 301.265 1455 Q304.344 1459.58 304.344 1468.33 Q304.344 1477.06 301.265 1481.67 Q298.21 1486.25 292.4 1486.25 Q286.59 1486.25 283.511 1481.67 Q280.455 1477.06 280.455 1468.33 Q280.455 1459.58 283.511 1455 Q286.59 1450.39 292.4 1450.39 Z" fill="#000000" fill-rule="nonzero" fill-opacity="1" /><path clip-path="url(#clip470)" d="M871.119 1481.64 L878.758 1481.64 L878.758 1455.28 L870.447 1456.95 L870.447 1452.69 L878.711 1451.02 L883.387 1451.02 L883.387 1481.64 L891.026 1481.64 L891.026 1485.58 L871.119 1485.58 L871.119 1481.64 Z" fill="#000000" fill-rule="nonzero" fill-opacity="1" /><path clip-path="url(#clip470)" d="M1463.73 1481.64 L1480.05 1481.64 L1480.05 1485.58 L1458.1 1485.58 L1458.1 1481.64 Q1460.76 1478.89 1465.35 1474.26 Q1469.95 1469.61 1471.13 1468.27 Q1473.38 1465.74 1474.26 1464.01 Q1475.16 1462.25 1475.16 1460.56 Q1475.16 1457.8 1473.22 1456.07 Q1471.3 1454.33 1468.19 1454.33 Q1466 1454.33 1463.54 1455.09 Q1461.11 1455.86 1458.33 1457.41 L1458.33 1452.69 Q1461.16 1451.55 1463.61 1450.97 Q1466.06 1450.39 1468.1 1450.39 Q1473.47 1450.39 1476.67 1453.08 Q1479.86 1455.77 1479.86 1460.26 Q1479.86 1462.39 1479.05 1464.31 Q1478.26 1466.2 1476.16 1468.8 Q1475.58 1469.47 1472.48 1472.69 Q1469.37 1475.88 1463.73 1481.64 Z" fill="#000000" fill-rule="nonzero" fill-opacity="1" /><path clip-path="url(#clip470)" d="M2061.66 1466.95 Q2065.01 1467.66 2066.89 1469.93 Q2068.79 1472.2 2068.79 1475.53 Q2068.79 1480.65 2065.27 1483.45 Q2061.75 1486.25 2055.27 1486.25 Q2053.09 1486.25 2050.78 1485.81 Q2048.49 1485.39 2046.03 1484.54 L2046.03 1480.02 Q2047.98 1481.16 2050.29 1481.74 Q2052.61 1482.32 2055.13 1482.32 Q2059.53 1482.32 2061.82 1480.58 Q2064.14 1478.84 2064.14 1475.53 Q2064.14 1472.48 2061.98 1470.77 Q2059.85 1469.03 2056.03 1469.03 L2052.01 1469.03 L2052.01 1465.19 L2056.22 1465.19 Q2059.67 1465.19 2061.5 1463.82 Q2063.33 1462.43 2063.33 1459.84 Q2063.33 1457.18 2061.43 1455.77 Q2059.55 1454.33 2056.03 1454.33 Q2054.11 1454.33 2051.91 1454.75 Q2049.71 1455.16 2047.08 1456.04 L2047.08 1451.88 Q2049.74 1451.14 2052.05 1450.77 Q2054.39 1450.39 2056.45 1450.39 Q2061.77 1450.39 2064.88 1452.83 Q2067.98 1455.23 2067.98 1459.35 Q2067.98 1462.22 2066.33 1464.21 Q2064.69 1466.18 2061.66 1466.95 Z" fill="#000000" fill-rule="nonzero" fill-opacity="1" /><path clip-path="url(#clip470)" d="M1162.74 1520.52 L1202.94 1520.52 L1202.94 1525.93 L1186.07 1525.93 L1186.07 1568.04 L1179.61 1568.04 L1179.61 1525.93 L1162.74 1525.93 L1162.74 1520.52 Z" fill="#000000" fill-rule="nonzero" fill-opacity="1" /><path clip-path="url(#clip470)" d="M1206.89 1532.4 L1212.75 1532.4 L1212.75 1568.04 L1206.89 1568.04 L1206.89 1532.4 M1206.89 1518.52 L1212.75 1518.52 L1212.75 1525.93 L1206.89 1525.93 L1206.89 1518.52 Z" fill="#000000" fill-rule="nonzero" fill-opacity="1" /><path clip-path="url(#clip470)" d="M1252.76 1539.24 Q1254.95 1535.29 1258.01 1533.41 Q1261.06 1531.54 1265.2 1531.54 Q1270.77 1531.54 1273.79 1535.45 Q1276.82 1539.33 1276.82 1546.53 L1276.82 1568.04 L1270.93 1568.04 L1270.93 1546.72 Q1270.93 1541.59 1269.11 1539.11 Q1267.3 1536.63 1263.58 1536.63 Q1259.03 1536.63 1256.38 1539.65 Q1253.74 1542.68 1253.74 1547.9 L1253.74 1568.04 L1247.85 1568.04 L1247.85 1546.72 Q1247.85 1541.56 1246.04 1539.11 Q1244.23 1536.63 1240.44 1536.63 Q1235.95 1536.63 1233.31 1539.68 Q1230.67 1542.71 1230.67 1547.9 L1230.67 1568.04 L1224.78 1568.04 L1224.78 1532.4 L1230.67 1532.4 L1230.67 1537.93 Q1232.67 1534.66 1235.47 1533.1 Q1238.27 1531.54 1242.12 1531.54 Q1246.01 1531.54 1248.71 1533.51 Q1251.45 1535.48 1252.76 1539.24 Z" fill="#000000" fill-rule="nonzero" fill-opacity="1" /><path clip-path="url(#clip470)" d="M1318.99 1548.76 L1318.99 1551.62 L1292.06 1551.62 Q1292.45 1557.67 1295.69 1560.85 Q1298.97 1564 1304.79 1564 Q1308.17 1564 1311.32 1563.17 Q1314.5 1562.35 1317.62 1560.69 L1317.62 1566.23 Q1314.47 1567.57 1311.16 1568.27 Q1307.85 1568.97 1304.44 1568.97 Q1295.91 1568.97 1290.92 1564 Q1285.95 1559.04 1285.95 1550.57 Q1285.95 1541.82 1290.66 1536.69 Q1295.41 1531.54 1303.43 1531.54 Q1310.62 1531.54 1314.79 1536.18 Q1318.99 1540.8 1318.99 1548.76 M1313.13 1547.04 Q1313.07 1542.23 1310.43 1539.37 Q1307.82 1536.5 1303.49 1536.5 Q1298.59 1536.5 1295.63 1539.27 Q1292.7 1542.04 1292.25 1547.07 L1313.13 1547.04 Z" fill="#000000" fill-rule="nonzero" fill-opacity="1" /><path clip-path="url(#clip470)" d="M1363.39 1518.58 Q1359.13 1525.9 1357.06 1533.06 Q1354.99 1540.23 1354.99 1547.58 Q1354.99 1554.93 1357.06 1562.16 Q1359.16 1569.35 1363.39 1576.64 L1358.3 1576.64 Q1353.52 1569.16 1351.14 1561.93 Q1348.78 1554.71 1348.78 1547.58 Q1348.78 1540.48 1351.14 1533.29 Q1353.49 1526.09 1358.3 1518.58 L1363.39 1518.58 Z" fill="#000000" fill-rule="nonzero" fill-opacity="1" /><path clip-path="url(#clip470)" d="M1397.48 1533.45 L1397.48 1538.98 Q1395 1537.71 1392.32 1537.07 Q1389.65 1536.44 1386.79 1536.44 Q1382.42 1536.44 1380.23 1537.77 Q1378.06 1539.11 1378.06 1541.79 Q1378.06 1543.82 1379.62 1545 Q1381.18 1546.15 1385.89 1547.2 L1387.9 1547.64 Q1394.14 1548.98 1396.75 1551.43 Q1399.39 1553.85 1399.39 1558.21 Q1399.39 1563.17 1395.44 1566.07 Q1391.53 1568.97 1384.65 1568.97 Q1381.79 1568.97 1378.67 1568.39 Q1375.58 1567.85 1372.14 1566.74 L1372.14 1560.69 Q1375.39 1562.38 1378.54 1563.24 Q1381.69 1564.07 1384.78 1564.07 Q1388.92 1564.07 1391.15 1562.66 Q1393.37 1561.23 1393.37 1558.65 Q1393.37 1556.27 1391.75 1554.99 Q1390.16 1553.72 1384.72 1552.54 L1382.68 1552.07 Q1377.24 1550.92 1374.82 1548.56 Q1372.4 1546.18 1372.4 1542.04 Q1372.4 1537.01 1375.96 1534.27 Q1379.53 1531.54 1386.08 1531.54 Q1389.33 1531.54 1392.2 1532.01 Q1395.06 1532.49 1397.48 1533.45 Z" fill="#000000" fill-rule="nonzero" fill-opacity="1" /><path clip-path="url(#clip470)" d="M1407.79 1518.58 L1412.88 1518.58 Q1417.66 1526.09 1420.01 1533.29 Q1422.4 1540.48 1422.4 1547.58 Q1422.4 1554.71 1420.01 1561.93 Q1417.66 1569.16 1412.88 1576.64 L1407.79 1576.64 Q1412.03 1569.35 1414.09 1562.16 Q1416.19 1554.93 1416.19 1547.58 Q1416.19 1540.23 1414.09 1533.06 Q1412.03 1525.9 1407.79 1518.58 Z" fill="#000000" fill-rule="nonzero" fill-opacity="1" /><polyline clip-path="url(#clip470)" style="stroke:#000000; stroke-linecap:round; stroke-linejoin:round; stroke-width:4; stroke-opacity:1; fill:none" points="232.389,1423.18 232.389,847.244 "/>
<polyline clip-path="url(#clip470)" style="stroke:#000000; stroke-linecap:round; stroke-linejoin:round; stroke-width:4; stroke-opacity:1; fill:none" points="232.389,1404.69 251.287,1404.69 "/>
<polyline clip-path="url(#clip470)" style="stroke:#000000; stroke-linecap:round; stroke-linejoin:round; stroke-width:4; stroke-opacity:1; fill:none" points="232.389,1226.37 251.287,1226.37 "/>
<polyline clip-path="url(#clip470)" style="stroke:#000000; stroke-linecap:round; stroke-linejoin:round; stroke-width:4; stroke-opacity:1; fill:none" points="232.389,1048.05 251.287,1048.05 "/>
<polyline clip-path="url(#clip470)" style="stroke:#000000; stroke-linecap:round; stroke-linejoin:round; stroke-width:4; stroke-opacity:1; fill:none" points="232.389,869.729 251.287,869.729 "/>
<path clip-path="url(#clip470)" d="M184.445 1390.49 Q180.834 1390.49 179.005 1394.06 Q177.2 1397.6 177.2 1404.73 Q177.2 1411.84 179.005 1415.4 Q180.834 1418.94 184.445 1418.94 Q188.079 1418.94 189.885 1415.4 Q191.713 1411.84 191.713 1404.73 Q191.713 1397.6 189.885 1394.06 Q188.079 1390.49 184.445 1390.49 M184.445 1386.79 Q190.255 1386.79 193.311 1391.4 Q196.389 1395.98 196.389 1404.73 Q196.389 1413.46 193.311 1418.06 Q190.255 1422.65 184.445 1422.65 Q178.635 1422.65 175.556 1418.06 Q172.501 1413.46 172.501 1404.73 Q172.501 1395.98 175.556 1391.4 Q178.635 1386.79 184.445 1386.79 Z" fill="#000000" fill-rule="nonzero" fill-opacity="1" /><path clip-path="url(#clip470)" d="M176.482 1239.72 L184.121 1239.72 L184.121 1213.35 L175.811 1215.02 L175.811 1210.76 L184.075 1209.09 L188.75 1209.09 L188.75 1239.72 L196.389 1239.72 L196.389 1243.65 L176.482 1243.65 L176.482 1239.72 Z" fill="#000000" fill-rule="nonzero" fill-opacity="1" /><path clip-path="url(#clip470)" d="M180.07 1061.4 L196.389 1061.4 L196.389 1065.33 L174.445 1065.33 L174.445 1061.4 Q177.107 1058.64 181.69 1054.01 Q186.297 1049.36 187.477 1048.02 Q189.723 1045.49 190.602 1043.76 Q191.505 1042 191.505 1040.31 Q191.505 1037.55 189.561 1035.82 Q187.639 1034.08 184.538 1034.08 Q182.338 1034.08 179.885 1034.84 Q177.454 1035.61 174.677 1037.16 L174.677 1032.44 Q177.501 1031.3 179.954 1030.72 Q182.408 1030.15 184.445 1030.15 Q189.815 1030.15 193.01 1032.83 Q196.204 1035.52 196.204 1040.01 Q196.204 1042.14 195.394 1044.06 Q194.607 1045.96 192.5 1048.55 Q191.922 1049.22 188.82 1052.44 Q185.718 1055.63 180.07 1061.4 Z" fill="#000000" fill-rule="nonzero" fill-opacity="1" /><path clip-path="url(#clip470)" d="M189.26 868.375 Q192.616 869.092 194.491 871.361 Q196.389 873.629 196.389 876.963 Q196.389 882.078 192.871 884.879 Q189.352 887.68 182.871 887.68 Q180.695 887.68 178.38 887.24 Q176.089 886.824 173.635 885.967 L173.635 881.453 Q175.579 882.587 177.894 883.166 Q180.209 883.745 182.732 883.745 Q187.13 883.745 189.422 882.009 Q191.737 880.273 191.737 876.963 Q191.737 873.907 189.584 872.194 Q187.454 870.458 183.635 870.458 L179.607 870.458 L179.607 866.615 L183.82 866.615 Q187.269 866.615 189.098 865.25 Q190.926 863.861 190.926 861.268 Q190.926 858.606 189.028 857.194 Q187.153 855.759 183.635 855.759 Q181.713 855.759 179.514 856.176 Q177.315 856.592 174.677 857.472 L174.677 853.305 Q177.339 852.565 179.653 852.194 Q181.991 851.824 184.051 851.824 Q189.375 851.824 192.477 854.254 Q195.579 856.662 195.579 860.782 Q195.579 863.652 193.936 865.643 Q192.292 867.611 189.26 868.375 Z" fill="#000000" fill-rule="nonzero" fill-opacity="1" /><path clip-path="url(#clip470)" d="M95.1967 1174.3 Q98.8038 1174.3 102.121 1176.97 Q105.438 1179.61 107.467 1183.93 Q109.464 1188.21 109.464 1192.82 L109.464 1204.03 L125.953 1208.12 Q126.05 1208.15 126.469 1208.25 Q126.855 1208.34 127.081 1208.34 Q127.886 1208.34 128.079 1207.34 Q128.272 1206.31 128.272 1204.03 Q128.272 1202.55 128.53 1202.32 Q128.691 1202.19 128.981 1202.19 Q129.432 1202.19 129.754 1202.32 Q130.043 1202.45 130.14 1202.71 Q130.237 1202.93 130.269 1203.09 Q130.301 1203.25 130.301 1203.51 Q130.301 1204.19 130.237 1205.64 Q130.172 1207.05 130.172 1207.8 L130.108 1212.01 L130.301 1220.39 Q130.301 1221.39 129.496 1221.39 Q128.884 1221.39 128.626 1221.13 Q128.337 1220.87 128.304 1220.58 Q128.272 1220.29 128.272 1219.55 Q128.272 1217.94 128.175 1216.97 Q128.079 1216.01 127.95 1215.4 Q127.789 1214.75 127.338 1214.43 Q126.887 1214.08 126.501 1213.91 Q126.082 1213.75 125.148 1213.53 L89.7217 1204.7 Q88.6589 1204.45 88.4979 1204.45 Q87.9504 1204.45 87.7571 1204.77 Q87.5317 1205.06 87.4351 1205.89 Q87.3063 1207.51 87.3063 1208.73 Q87.3063 1209.53 87.2741 1209.86 Q87.2418 1210.15 87.0808 1210.4 Q86.8876 1210.63 86.5011 1210.63 Q85.8892 1210.63 85.6316 1210.37 Q85.3417 1210.08 85.3095 1209.76 Q85.2451 1209.44 85.2451 1208.66 L85.2451 1187.28 Q85.2451 1181.13 88.1758 1177.71 Q91.1066 1174.3 95.1967 1174.3 M93.6186 1180.42 Q87.3063 1180.42 87.3063 1189.41 L87.3063 1195.72 Q87.3063 1197.81 87.6927 1198.33 Q88.047 1198.84 89.8183 1199.29 L107.757 1203.77 L107.757 1194.46 Q107.757 1188.21 104.247 1184.32 Q102.636 1182.55 99.2868 1181.48 Q95.9374 1180.42 93.6186 1180.42 Z" fill="#000000" fill-rule="nonzero" fill-opacity="1" /><path clip-path="url(#clip470)" d="M80.8395 1138.54 Q88.1601 1142.8 95.3215 1144.87 Q102.483 1146.94 109.835 1146.94 Q117.188 1146.94 124.413 1144.87 Q131.606 1142.77 138.895 1138.54 L138.895 1143.63 Q131.415 1148.41 124.19 1150.79 Q116.965 1153.15 109.835 1153.15 Q102.738 1153.15 95.5443 1150.79 Q88.3511 1148.44 80.8395 1143.63 L80.8395 1138.54 Z" fill="#000000" fill-rule="nonzero" fill-opacity="1" /><path clip-path="url(#clip470)" d="M82.7811 1131.16 L82.7811 1124.66 L122.949 1114.67 L82.7811 1104.71 L82.7811 1097.48 L122.949 1087.49 L82.7811 1077.52 L82.7811 1071 L130.301 1082.94 L130.301 1091.02 L89.0513 1101.05 L130.301 1111.17 L130.301 1119.25 L82.7811 1131.16 Z" fill="#000000" fill-rule="nonzero" fill-opacity="1" /><path clip-path="url(#clip470)" d="M80.8395 1063.65 L80.8395 1058.55 Q88.3511 1053.78 95.5443 1051.43 Q102.738 1049.04 109.835 1049.04 Q116.965 1049.04 124.19 1051.43 Q131.415 1053.78 138.895 1058.55 L138.895 1063.65 Q131.606 1059.41 124.413 1057.35 Q117.188 1055.24 109.835 1055.24 Q102.483 1055.24 95.3215 1057.35 Q88.1601 1059.41 80.8395 1063.65 Z" fill="#000000" fill-rule="nonzero" fill-opacity="1" /><polyline clip-path="url(#clip474)" style="stroke:#009af9; stroke-linecap:round; stroke-linejoin:round; stroke-width:4; stroke-opacity:1; fill:none" points="292.4,1404.69 351.233,1194.02 410.067,1078.16 468.901,941.222 527.735,877.613 586.568,875.726 645.402,870.505 704.236,865.803 763.069,863.544 821.903,863.75 880.737,865.954 939.57,868.809 998.404,871.54 1057.24,874.931 1116.07,1269.04 1174.91,1382.72 1233.74,1396.32 1292.57,1404.43 1351.41,1406.88 1410.24,1406.63 1469.07,1405.68 1527.91,1404.88 1586.74,1404.4 1645.57,1404.19 1704.41,1404.15 1763.24,1404.2 1822.08,1404.29 1880.91,1404.38 1939.74,1404.46 1998.58,1404.53 2057.41,1404.58 2116.24,1404.62 2175.08,1404.64 2233.91,1404.66 2292.75,1404.67 "/>
<polyline clip-path="url(#clip474)" style="stroke:#e26f46; stroke-linecap:round; stroke-linejoin:round; stroke-width:6; stroke-opacity:1; fill:none" stroke-dasharray="3, 6" points="292.4,869.729 351.233,869.729 410.067,869.729 468.901,869.729 527.735,869.729 586.568,869.729 645.402,869.729 704.236,869.729 763.069,869.729 821.903,869.729 880.737,869.729 939.57,869.729 998.404,869.729 1057.24,869.729 1116.07,869.729 1174.91,869.729 1233.74,869.729 1292.57,869.729 1351.41,869.729 1410.24,869.729 1469.07,869.729 1527.91,869.729 1586.74,869.729 1645.57,869.729 1704.41,869.729 1763.24,869.729 1822.08,869.729 1880.91,869.729 1939.74,869.729 1998.58,869.729 2057.41,869.729 2116.24,869.729 2175.08,869.729 2233.91,869.729 2292.75,869.729 "/>
<path clip-path="url(#clip470)" d="M1964.47 1206.25 L2282.08 1206.25 L2282.08 1050.73 L1964.47 1050.73  Z" fill="#ffffff" fill-rule="evenodd" fill-opacity="1"/>
<polyline clip-path="url(#clip470)" style="stroke:#000000; stroke-linecap:round; stroke-linejoin:round; stroke-width:4; stroke-opacity:1; fill:none" points="1964.47,1206.25 2282.08,1206.25 2282.08,1050.73 1964.47,1050.73 1964.47,1206.25 "/>
<polyline clip-path="url(#clip470)" style="stroke:#009af9; stroke-linecap:round; stroke-linejoin:round; stroke-width:4; stroke-opacity:1; fill:none" points="1988.03,1102.57 2129.39,1102.57 "/>
<path clip-path="url(#clip470)" d="M2187.19 1093.27 Q2187.19 1095.89 2185.25 1098.3 Q2183.33 1100.71 2180.19 1102.19 Q2177.08 1103.64 2173.73 1103.64 L2165.57 1103.64 L2162.6 1115.63 Q2162.58 1115.7 2162.51 1116.01 Q2162.44 1116.29 2162.44 1116.45 Q2162.44 1117.04 2163.16 1117.18 Q2163.91 1117.32 2165.57 1117.32 Q2166.65 1117.32 2166.82 1117.51 Q2166.91 1117.63 2166.91 1117.84 Q2166.91 1118.16 2166.82 1118.4 Q2166.72 1118.61 2166.54 1118.68 Q2166.37 1118.75 2166.25 1118.77 Q2166.14 1118.8 2165.95 1118.8 Q2165.46 1118.8 2164.4 1118.75 Q2163.37 1118.7 2162.83 1118.7 L2159.77 1118.66 L2153.68 1118.8 Q2152.95 1118.8 2152.95 1118.21 Q2152.95 1117.77 2153.14 1117.58 Q2153.32 1117.37 2153.54 1117.34 Q2153.75 1117.32 2154.29 1117.32 Q2155.46 1117.32 2156.16 1117.25 Q2156.86 1117.18 2157.31 1117.09 Q2157.78 1116.97 2158.01 1116.64 Q2158.27 1116.31 2158.38 1116.03 Q2158.5 1115.73 2158.67 1115.05 L2165.08 1089.28 Q2165.27 1088.51 2165.27 1088.39 Q2165.27 1088 2165.04 1087.86 Q2164.83 1087.69 2164.22 1087.62 Q2163.05 1087.53 2162.16 1087.53 Q2161.57 1087.53 2161.34 1087.5 Q2161.12 1087.48 2160.94 1087.36 Q2160.77 1087.22 2160.77 1086.94 Q2160.77 1086.5 2160.96 1086.31 Q2161.17 1086.1 2161.41 1086.08 Q2161.64 1086.03 2162.2 1086.03 L2177.75 1086.03 Q2182.23 1086.03 2184.71 1088.16 Q2187.19 1090.29 2187.19 1093.27 M2182.74 1092.12 Q2182.74 1087.53 2176.21 1087.53 L2171.62 1087.53 Q2170.1 1087.53 2169.72 1087.81 Q2169.35 1088.07 2169.02 1089.35 L2165.76 1102.4 L2172.53 1102.4 Q2177.08 1102.4 2179.91 1099.85 Q2181.2 1098.68 2181.97 1096.24 Q2182.74 1093.8 2182.74 1092.12 Z" fill="#000000" fill-rule="nonzero" fill-opacity="1" /><polyline clip-path="url(#clip470)" style="stroke:#e26f46; stroke-linecap:round; stroke-linejoin:round; stroke-width:6; stroke-opacity:1; fill:none" stroke-dasharray="3, 6" points="1988.03,1154.41 2129.39,1154.41 "/>
<path clip-path="url(#clip470)" d="M2187.19 1140.45 Q2187.19 1143.07 2185.25 1145.48 Q2183.33 1147.9 2180.19 1149.37 Q2177.08 1150.82 2173.73 1150.82 L2165.57 1150.82 L2162.6 1162.82 Q2162.58 1162.89 2162.51 1163.19 Q2162.44 1163.47 2162.44 1163.64 Q2162.44 1164.22 2163.16 1164.36 Q2163.91 1164.5 2165.57 1164.5 Q2166.65 1164.5 2166.82 1164.69 Q2166.91 1164.81 2166.91 1165.02 Q2166.91 1165.35 2166.82 1165.58 Q2166.72 1165.79 2166.54 1165.86 Q2166.37 1165.93 2166.25 1165.95 Q2166.14 1165.98 2165.95 1165.98 Q2165.46 1165.98 2164.4 1165.93 Q2163.37 1165.88 2162.83 1165.88 L2159.77 1165.84 L2153.68 1165.98 Q2152.95 1165.98 2152.95 1165.39 Q2152.95 1164.95 2153.14 1164.76 Q2153.32 1164.55 2153.54 1164.53 Q2153.75 1164.5 2154.29 1164.5 Q2155.46 1164.5 2156.16 1164.43 Q2156.86 1164.36 2157.31 1164.27 Q2157.78 1164.15 2158.01 1163.82 Q2158.27 1163.5 2158.38 1163.21 Q2158.5 1162.91 2158.67 1162.23 L2165.08 1136.47 Q2165.27 1135.69 2165.27 1135.58 Q2165.27 1135.18 2165.04 1135.04 Q2164.83 1134.87 2164.22 1134.8 Q2163.05 1134.71 2162.16 1134.71 Q2161.57 1134.71 2161.34 1134.69 Q2161.12 1134.66 2160.94 1134.55 Q2160.77 1134.4 2160.77 1134.12 Q2160.77 1133.68 2160.96 1133.49 Q2161.17 1133.28 2161.41 1133.26 Q2161.64 1133.21 2162.2 1133.21 L2177.75 1133.21 Q2182.23 1133.21 2184.71 1135.34 Q2187.19 1137.47 2187.19 1140.45 M2182.74 1139.3 Q2182.74 1134.71 2176.21 1134.71 L2171.62 1134.71 Q2170.1 1134.71 2169.72 1134.99 Q2169.35 1135.25 2169.02 1136.54 L2165.76 1149.58 L2172.53 1149.58 Q2177.08 1149.58 2179.91 1147.03 Q2181.2 1145.86 2181.97 1143.42 Q2182.74 1140.99 2182.74 1139.3 Z" fill="#000000" fill-rule="nonzero" fill-opacity="1" /><path clip-path="url(#clip470)" d="M2191.98 1174.92 L2191.98 1173.89 Q2193.76 1173.89 2194.17 1173.68 Q2194.58 1173.45 2194.58 1172.37 L2194.58 1163.36 Q2194.58 1162.12 2194.14 1161.81 Q2193.71 1161.49 2191.98 1161.49 L2191.98 1160.45 L2196.7 1160.08 L2196.7 1163.61 Q2198.27 1160.08 2201.67 1160.08 Q2205.6 1160.08 2206.14 1163.36 Q2206.72 1162.08 2207.91 1161.08 Q2209.13 1160.08 2211.01 1160.08 Q2213.54 1160.08 2214.54 1161.33 Q2215.27 1162.17 2215.42 1163.1 Q2215.57 1164.04 2215.57 1166.46 L2215.57 1172.87 Q2215.6 1173.58 2216.14 1173.74 Q2216.68 1173.89 2218.19 1173.89 L2218.19 1174.92 Q2214.77 1174.82 2214.44 1174.82 Q2214.18 1174.82 2210.63 1174.92 L2210.63 1173.89 Q2212.42 1173.89 2212.83 1173.68 Q2213.26 1173.45 2213.26 1172.37 L2213.26 1164.54 Q2213.26 1162.84 2212.73 1161.84 Q2212.21 1160.82 2210.77 1160.82 Q2209.03 1160.82 2207.63 1162.28 Q2206.24 1163.74 2206.24 1166.2 L2206.24 1172.37 Q2206.24 1173.45 2206.65 1173.68 Q2207.08 1173.89 2208.86 1173.89 L2208.86 1174.92 Q2205.44 1174.82 2205.09 1174.82 Q2204.83 1174.82 2201.31 1174.92 L2201.31 1173.89 Q2203.09 1173.89 2203.5 1173.68 Q2203.93 1173.45 2203.93 1172.37 L2203.93 1164.54 Q2203.93 1162.84 2203.4 1161.84 Q2202.88 1160.82 2201.44 1160.82 Q2199.7 1160.82 2198.31 1162.28 Q2196.91 1163.74 2196.91 1166.2 L2196.91 1172.37 Q2196.91 1173.45 2197.32 1173.68 Q2197.75 1173.89 2199.52 1173.89 L2199.52 1174.92 Q2196.09 1174.82 2195.76 1174.82 Q2195.5 1174.82 2191.98 1174.92 Z" fill="#000000" fill-rule="nonzero" fill-opacity="1" /><path clip-path="url(#clip470)" d="M2220.06 1171.73 Q2220.06 1168.87 2223.42 1167.36 Q2225.44 1166.4 2229.6 1166.15 L2229.6 1164.92 Q2229.6 1162.84 2228.5 1161.74 Q2227.42 1160.63 2226.05 1160.63 Q2223.59 1160.63 2222.41 1162.17 Q2223.41 1162.2 2223.77 1162.71 Q2224.13 1163.2 2224.13 1163.71 Q2224.13 1164.38 2223.7 1164.82 Q2223.29 1165.25 2222.59 1165.25 Q2221.91 1165.25 2221.47 1164.84 Q2221.03 1164.41 2221.03 1163.68 Q2221.03 1162.04 2222.5 1160.95 Q2224 1159.87 2226.11 1159.87 Q2228.87 1159.87 2230.7 1161.72 Q2231.28 1162.3 2231.55 1163.04 Q2231.85 1163.77 2231.88 1164.27 Q2231.91 1164.74 2231.91 1165.69 L2231.91 1172.4 Q2231.91 1172.59 2231.98 1172.92 Q2232.05 1173.25 2232.34 1173.68 Q2232.65 1174.09 2233.16 1174.09 Q2234.37 1174.09 2234.36 1171.94 L2234.36 1170.05 L2235.21 1170.05 L2235.21 1171.94 Q2235.21 1173.73 2234.26 1174.43 Q2233.32 1175.12 2232.46 1175.12 Q2231.34 1175.12 2230.64 1174.3 Q2229.93 1173.48 2229.83 1172.37 Q2229.32 1173.64 2228.16 1174.48 Q2227.01 1175.3 2225.44 1175.3 Q2224.23 1175.3 2223.08 1174.99 Q2221.95 1174.69 2221 1173.86 Q2220.06 1173 2220.06 1171.73 M2222.65 1171.69 Q2222.65 1172.94 2223.54 1173.74 Q2224.42 1174.55 2225.67 1174.55 Q2227.08 1174.55 2228.34 1173.46 Q2229.6 1172.37 2229.6 1170.22 L2229.6 1166.86 Q2225.88 1166.99 2224.26 1168.48 Q2222.65 1169.95 2222.65 1171.69 Z" fill="#000000" fill-rule="nonzero" fill-opacity="1" /><path clip-path="url(#clip470)" d="M2235.88 1174.92 L2235.88 1173.89 Q2238.5 1173.89 2240.18 1171.87 Q2240.18 1171.87 2243.32 1167.87 L2239.99 1163.54 Q2238.81 1162.04 2238.29 1161.77 Q2237.78 1161.49 2236.04 1161.49 L2236.04 1160.45 Q2237.42 1160.54 2239.22 1160.54 Q2240.22 1160.54 2242.86 1160.45 L2242.86 1161.49 Q2241.68 1161.56 2241.68 1162.33 Q2241.68 1162.59 2241.98 1162.94 L2244.6 1166.33 L2246.68 1163.71 Q2247.19 1163.1 2247.19 1162.53 Q2247.19 1161.59 2246.21 1161.49 L2246.21 1160.45 Q2247.52 1160.54 2249.44 1160.54 Q2250.88 1160.54 2252.19 1160.45 L2252.19 1161.49 Q2249.64 1161.56 2248.19 1163.23 Q2247.55 1163.94 2245.11 1167.04 L2249.6 1172.84 Q2250.14 1173.55 2250.75 1173.73 Q2251.36 1173.89 2252.8 1173.89 L2252.8 1174.92 Q2251.29 1174.82 2249.57 1174.82 Q2248.96 1174.82 2245.95 1174.92 L2245.95 1173.89 Q2246.55 1173.86 2246.85 1173.59 Q2247.16 1173.32 2247.16 1173.04 Q2247.16 1172.91 2246.45 1171.94 L2243.9 1168.58 Q2241.34 1171.59 2241.01 1172.3 Q2240.88 1172.59 2240.88 1172.84 Q2240.88 1173.74 2241.85 1173.89 L2241.85 1174.92 Q2239.44 1174.82 2238.67 1174.82 Q2237.19 1174.82 2235.88 1174.92 Z" fill="#000000" fill-rule="nonzero" fill-opacity="1" /></svg>
