<?xml version="1.0" encoding="utf-8"?>
<svg xmlns="http://www.w3.org/2000/svg" xmlns:xlink="http://www.w3.org/1999/xlink" width="600" height="400" viewBox="0 0 2400 1600">
<defs>
  <clipPath id="clip630">
    <rect x="0" y="0" width="2400" height="1600"/>
  </clipPath>
</defs>
<path clip-path="url(#clip630)" d="M0 1600 L2400 1600 L2400 0 L0 0  Z" fill="#ffffff" fill-rule="evenodd" fill-opacity="1"/>
<defs>
  <clipPath id="clip631">
    <rect x="203" y="47" width="2150" height="1377"/>
  </clipPath>
</defs>
<path clip-path="url(#clip630)" d="M203.964 1423.18 L1110.81 1423.18 L1110.81 47.2441 L203.964 47.2441  Z" fill="#ffffff" fill-rule="evenodd" fill-opacity="1"/>
<defs>
  <clipPath id="clip632">
    <rect x="203" y="47" width="908" height="1377"/>
  </clipPath>
</defs>
<polyline clip-path="url(#clip632)" style="stroke:#000000; stroke-linecap:round; stroke-linejoin:round; stroke-width:2; stroke-opacity:0.1; fill:none" points="229.629,1423.18 229.629,47.2441 "/>
<polyline clip-path="url(#clip632)" style="stroke:#000000; stroke-linecap:round; stroke-linejoin:round; stroke-width:2; stroke-opacity:0.1; fill:none" points="481.252,1423.18 481.252,47.2441 "/>
<polyline clip-path="url(#clip632)" style="stroke:#000000; stroke-linecap:round; stroke-linejoin:round; stroke-width:2; stroke-opacity:0.1; fill:none" points="732.874,1423.18 732.874,47.2441 "/>
<polyline clip-path="url(#clip632)" style="stroke:#000000; stroke-linecap:round; stroke-linejoin:round; stroke-width:2; stroke-opacity:0.1; fill:none" points="984.497,1423.18 984.497,47.2441 "/>
<polyline clip-path="url(#clip632)" style="stroke:#000000; stroke-linecap:round; stroke-linejoin:round; stroke-width:2; stroke-opacity:0.1; fill:none" points="203.964,1391.51 1110.81,1391.51 "/>
<polyline clip-path="url(#clip632)" style="stroke:#000000; stroke-linecap:round; stroke-linejoin:round; stroke-width:2; stroke-opacity:0.1; fill:none" points="203.964,945.447 1110.81,945.447 "/>
<polyline clip-path="url(#clip632)" style="stroke:#000000; stroke-linecap:round; stroke-linejoin:round; stroke-width:2; stroke-opacity:0.1; fill:none" points="203.964,499.387 1110.81,499.387 "/>
<polyline clip-path="url(#clip632)" style="stroke:#000000; stroke-linecap:round; stroke-linejoin:round; stroke-width:2; stroke-opacity:0.1; fill:none" points="203.964,53.327 1110.81,53.327 "/>
<polyline clip-path="url(#clip630)" style="stroke:#000000; stroke-linecap:round; stroke-linejoin:round; stroke-width:4; stroke-opacity:1; fill:none" points="203.964,1423.18 1110.81,1423.18 "/>
<polyline clip-path="url(#clip630)" style="stroke:#000000; stroke-linecap:round; stroke-linejoin:round; stroke-width:4; stroke-opacity:1; fill:none" points="229.629,1423.18 229.629,1404.28 "/>
<polyline clip-path="url(#clip630)" style="stroke:#000000; stroke-linecap:round; stroke-linejoin:round; stroke-width:4; stroke-opacity:1; fill:none" points="481.252,1423.18 481.252,1404.28 "/>
<polyline clip-path="url(#clip630)" style="stroke:#000000; stroke-linecap:round; stroke-linejoin:round; stroke-width:4; stroke-opacity:1; fill:none" points="732.874,1423.18 732.874,1404.28 "/>
<polyline clip-path="url(#clip630)" style="stroke:#000000; stroke-linecap:round; stroke-linejoin:round; stroke-width:4; stroke-opacity:1; fill:none" points="984.497,1423.18 984.497,1404.28 "/>
<path clip-path="url(#clip630)" d="M229.629 1454.1 Q226.018 1454.1 224.189 1457.66 Q222.384 1461.2 222.384 1468.33 Q222.384 1475.44 224.189 1479.01 Q226.018 1482.55 229.629 1482.55 Q233.263 1482.55 235.069 1479.01 Q236.898 1475.44 236.898 1468.33 Q236.898 1461.2 235.069 1457.66 Q233.263 1454.1 229.629 1454.1 M229.629 1450.39 Q235.439 1450.39 238.495 1455 Q241.573 1459.58 241.573 1468.33 Q241.573 1477.06 238.495 1481.67 Q235.439 1486.25 229.629 1486.25 Q223.819 1486.25 220.74 1481.67 Q217.685 1477.06 217.685 1468.33 Q217.685 1459.58 220.74 1455 Q223.819 1450.39 229.629 1450.39 Z" fill="#000000" fill-rule="nonzero" fill-opacity="1" /><path clip-path="url(#clip630)" d="M471.634 1481.64 L479.273 1481.64 L479.273 1455.28 L470.962 1456.95 L470.962 1452.69 L479.226 1451.02 L483.902 1451.02 L483.902 1481.64 L491.541 1481.64 L491.541 1485.58 L471.634 1485.58 L471.634 1481.64 Z" fill="#000000" fill-rule="nonzero" fill-opacity="1" /><path clip-path="url(#clip630)" d="M727.527 1481.64 L743.847 1481.64 L743.847 1485.58 L721.902 1485.58 L721.902 1481.64 Q724.564 1478.89 729.148 1474.26 Q733.754 1469.61 734.935 1468.27 Q737.18 1465.74 738.06 1464.01 Q738.962 1462.25 738.962 1460.56 Q738.962 1457.8 737.018 1456.07 Q735.097 1454.33 731.995 1454.33 Q729.796 1454.33 727.342 1455.09 Q724.912 1455.86 722.134 1457.41 L722.134 1452.69 Q724.958 1451.55 727.411 1450.97 Q729.865 1450.39 731.902 1450.39 Q737.273 1450.39 740.467 1453.08 Q743.661 1455.77 743.661 1460.26 Q743.661 1462.39 742.851 1464.31 Q742.064 1466.2 739.958 1468.8 Q739.379 1469.47 736.277 1472.69 Q733.175 1475.88 727.527 1481.64 Z" fill="#000000" fill-rule="nonzero" fill-opacity="1" /><path clip-path="url(#clip630)" d="M988.745 1466.95 Q992.101 1467.66 993.976 1469.93 Q995.874 1472.2 995.874 1475.53 Q995.874 1480.65 992.356 1483.45 Q988.837 1486.25 982.356 1486.25 Q980.18 1486.25 977.865 1485.81 Q975.574 1485.39 973.12 1484.54 L973.12 1480.02 Q975.064 1481.16 977.379 1481.74 Q979.694 1482.32 982.217 1482.32 Q986.615 1482.32 988.907 1480.58 Q991.222 1478.84 991.222 1475.53 Q991.222 1472.48 989.069 1470.77 Q986.939 1469.03 983.12 1469.03 L979.092 1469.03 L979.092 1465.19 L983.305 1465.19 Q986.754 1465.19 988.583 1463.82 Q990.411 1462.43 990.411 1459.84 Q990.411 1457.18 988.513 1455.77 Q986.638 1454.33 983.12 1454.33 Q981.199 1454.33 978.999 1454.75 Q976.8 1455.16 974.162 1456.04 L974.162 1451.88 Q976.824 1451.14 979.138 1450.77 Q981.476 1450.39 983.536 1450.39 Q988.861 1450.39 991.962 1452.83 Q995.064 1455.23 995.064 1459.35 Q995.064 1462.22 993.421 1464.21 Q991.777 1466.18 988.745 1466.95 Z" fill="#000000" fill-rule="nonzero" fill-opacity="1" /><path clip-path="url(#clip630)" d="M527.559 1520.52 L567.758 1520.52 L567.758 1525.93 L550.889 1525.93 L550.889 1568.04 L544.428 1568.04 L544.428 1525.93 L527.559 1525.93 L527.559 1520.52 Z" fill="#000000" fill-rule="nonzero" fill-opacity="1" /><path clip-path="url(#clip630)" d="M571.705 1532.4 L577.562 1532.4 L577.562 1568.04 L571.705 1568.04 L571.705 1532.4 M571.705 1518.52 L577.562 1518.52 L577.562 1525.93 L571.705 1525.93 L571.705 1518.52 Z" fill="#000000" fill-rule="nonzero" fill-opacity="1" /><path clip-path="url(#clip630)" d="M617.57 1539.24 Q619.766 1535.29 622.822 1533.41 Q625.877 1531.54 630.015 1531.54 Q635.585 1531.54 638.609 1535.45 Q641.633 1539.33 641.633 1546.53 L641.633 1568.04 L635.744 1568.04 L635.744 1546.72 Q635.744 1541.59 633.93 1539.11 Q632.116 1536.63 628.392 1536.63 Q623.84 1536.63 621.199 1539.65 Q618.557 1542.68 618.557 1547.9 L618.557 1568.04 L612.669 1568.04 L612.669 1546.72 Q612.669 1541.56 610.854 1539.11 Q609.04 1536.63 605.252 1536.63 Q600.765 1536.63 598.123 1539.68 Q595.481 1542.71 595.481 1547.9 L595.481 1568.04 L589.593 1568.04 L589.593 1532.4 L595.481 1532.4 L595.481 1537.93 Q597.486 1534.66 600.287 1533.1 Q603.088 1531.54 606.939 1531.54 Q610.822 1531.54 613.528 1533.51 Q616.265 1535.48 617.57 1539.24 Z" fill="#000000" fill-rule="nonzero" fill-opacity="1" /><path clip-path="url(#clip630)" d="M683.805 1548.76 L683.805 1551.62 L656.878 1551.62 Q657.26 1557.67 660.507 1560.85 Q663.785 1564 669.61 1564 Q672.984 1564 676.135 1563.17 Q679.317 1562.35 682.437 1560.69 L682.437 1566.23 Q679.286 1567.57 675.975 1568.27 Q672.665 1568.97 669.26 1568.97 Q660.73 1568.97 655.733 1564 Q650.767 1559.04 650.767 1550.57 Q650.767 1541.82 655.478 1536.69 Q660.22 1531.54 668.241 1531.54 Q675.434 1531.54 679.604 1536.18 Q683.805 1540.8 683.805 1548.76 M677.949 1547.04 Q677.885 1542.23 675.243 1539.37 Q672.633 1536.5 668.305 1536.5 Q663.403 1536.5 660.443 1539.27 Q657.515 1542.04 657.069 1547.07 L677.949 1547.04 Z" fill="#000000" fill-rule="nonzero" fill-opacity="1" /><path clip-path="url(#clip630)" d="M728.206 1518.58 Q723.941 1525.9 721.872 1533.06 Q719.803 1540.23 719.803 1547.58 Q719.803 1554.93 721.872 1562.16 Q723.973 1569.35 728.206 1576.64 L723.114 1576.64 Q718.339 1569.16 715.952 1561.93 Q713.597 1554.71 713.597 1547.58 Q713.597 1540.48 715.952 1533.29 Q718.307 1526.09 723.114 1518.58 L728.206 1518.58 Z" fill="#000000" fill-rule="nonzero" fill-opacity="1" /><path clip-path="url(#clip630)" d="M762.294 1533.45 L762.294 1538.98 Q759.812 1537.71 757.138 1537.07 Q754.465 1536.44 751.6 1536.44 Q747.24 1536.44 745.043 1537.77 Q742.879 1539.11 742.879 1541.79 Q742.879 1543.82 744.439 1545 Q745.998 1546.15 750.709 1547.2 L752.714 1547.64 Q758.952 1548.98 761.562 1551.43 Q764.204 1553.85 764.204 1558.21 Q764.204 1563.17 760.257 1566.07 Q756.343 1568.97 749.468 1568.97 Q746.603 1568.97 743.484 1568.39 Q740.396 1567.85 736.959 1566.74 L736.959 1560.69 Q740.205 1562.38 743.356 1563.24 Q746.508 1564.07 749.595 1564.07 Q753.733 1564.07 755.961 1562.66 Q758.189 1561.23 758.189 1558.65 Q758.189 1556.27 756.565 1554.99 Q754.974 1553.72 749.531 1552.54 L747.494 1552.07 Q742.052 1550.92 739.633 1548.56 Q737.214 1546.18 737.214 1542.04 Q737.214 1537.01 740.778 1534.27 Q744.343 1531.54 750.9 1531.54 Q754.146 1531.54 757.011 1532.01 Q759.876 1532.49 762.294 1533.45 Z" fill="#000000" fill-rule="nonzero" fill-opacity="1" /><path clip-path="url(#clip630)" d="M772.607 1518.58 L777.699 1518.58 Q782.474 1526.09 784.829 1533.29 Q787.216 1540.48 787.216 1547.58 Q787.216 1554.71 784.829 1561.93 Q782.474 1569.16 777.699 1576.64 L772.607 1576.64 Q776.84 1569.35 778.909 1562.16 Q781.01 1554.93 781.01 1547.58 Q781.01 1540.23 778.909 1533.06 Q776.84 1525.9 772.607 1518.58 Z" fill="#000000" fill-rule="nonzero" fill-opacity="1" /><polyline clip-path="url(#clip630)" style="stroke:#000000; stroke-linecap:round; stroke-linejoin:round; stroke-width:4; stroke-opacity:1; fill:none" points="203.964,1423.18 203.964,47.2441 "/>
<polyline clip-path="url(#clip630)" style="stroke:#000000; stroke-linecap:round; stroke-linejoin:round; stroke-width:4; stroke-opacity:1; fill:none" points="203.964,1391.51 222.861,1391.51 "/>
<polyline clip-path="url(#clip630)" style="stroke:#000000; stroke-linecap:round; stroke-linejoin:round; stroke-width:4; stroke-opacity:1; fill:none" points="203.964,945.447 222.861,945.447 "/>
<polyline clip-path="url(#clip630)" style="stroke:#000000; stroke-linecap:round; stroke-linejoin:round; stroke-width:4; stroke-opacity:1; fill:none" points="203.964,499.387 222.861,499.387 "/>
<polyline clip-path="url(#clip630)" style="stroke:#000000; stroke-linecap:round; stroke-linejoin:round; stroke-width:4; stroke-opacity:1; fill:none" points="203.964,53.327 222.861,53.327 "/>
<path clip-path="url(#clip630)" d="M156.019 1377.3 Q152.408 1377.3 150.579 1380.87 Q148.774 1384.41 148.774 1391.54 Q148.774 1398.65 150.579 1402.21 Q152.408 1405.75 156.019 1405.75 Q159.653 1405.75 161.459 1402.21 Q163.288 1398.65 163.288 1391.54 Q163.288 1384.41 161.459 1380.87 Q159.653 1377.3 156.019 1377.3 M156.019 1373.6 Q161.829 1373.6 164.885 1378.21 Q167.964 1382.79 167.964 1391.54 Q167.964 1400.27 164.885 1404.87 Q161.829 1409.46 156.019 1409.46 Q150.209 1409.46 147.13 1404.87 Q144.075 1400.27 144.075 1391.54 Q144.075 1382.79 147.13 1378.21 Q150.209 1373.6 156.019 1373.6 Z" fill="#000000" fill-rule="nonzero" fill-opacity="1" /><path clip-path="url(#clip630)" d="M116.668 958.791 L124.306 958.791 L124.306 932.426 L115.996 934.092 L115.996 929.833 L124.26 928.167 L128.936 928.167 L128.936 958.791 L136.575 958.791 L136.575 962.727 L116.668 962.727 L116.668 958.791 Z" fill="#000000" fill-rule="nonzero" fill-opacity="1" /><path clip-path="url(#clip630)" d="M156.019 931.245 Q152.408 931.245 150.579 934.81 Q148.774 938.352 148.774 945.481 Q148.774 952.588 150.579 956.152 Q152.408 959.694 156.019 959.694 Q159.653 959.694 161.459 956.152 Q163.288 952.588 163.288 945.481 Q163.288 938.352 161.459 934.81 Q159.653 931.245 156.019 931.245 M156.019 927.542 Q161.829 927.542 164.885 932.148 Q167.964 936.731 167.964 945.481 Q167.964 954.208 164.885 958.815 Q161.829 963.398 156.019 963.398 Q150.209 963.398 147.13 958.815 Q144.075 954.208 144.075 945.481 Q144.075 936.731 147.13 932.148 Q150.209 927.542 156.019 927.542 Z" fill="#000000" fill-rule="nonzero" fill-opacity="1" /><path clip-path="url(#clip630)" d="M119.885 512.732 L136.204 512.732 L136.204 516.667 L114.26 516.667 L114.26 512.732 Q116.922 509.977 121.505 505.347 Q126.112 500.695 127.292 499.352 Q129.538 496.829 130.417 495.093 Q131.32 493.334 131.32 491.644 Q131.32 488.889 129.376 487.153 Q127.455 485.417 124.353 485.417 Q122.154 485.417 119.7 486.181 Q117.269 486.945 114.492 488.496 L114.492 483.773 Q117.316 482.639 119.769 482.06 Q122.223 481.482 124.26 481.482 Q129.63 481.482 132.825 484.167 Q136.019 486.852 136.019 491.343 Q136.019 493.472 135.209 495.394 Q134.422 497.292 132.316 499.884 Q131.737 500.556 128.635 503.773 Q125.533 506.968 119.885 512.732 Z" fill="#000000" fill-rule="nonzero" fill-opacity="1" /><path clip-path="url(#clip630)" d="M156.019 485.185 Q152.408 485.185 150.579 488.75 Q148.774 492.292 148.774 499.421 Q148.774 506.528 150.579 510.093 Q152.408 513.634 156.019 513.634 Q159.653 513.634 161.459 510.093 Q163.288 506.528 163.288 499.421 Q163.288 492.292 161.459 488.75 Q159.653 485.185 156.019 485.185 M156.019 481.482 Q161.829 481.482 164.885 486.088 Q167.964 490.672 167.964 499.421 Q167.964 508.148 164.885 512.755 Q161.829 517.338 156.019 517.338 Q150.209 517.338 147.13 512.755 Q144.075 508.148 144.075 499.421 Q144.075 490.672 147.13 486.088 Q150.209 481.482 156.019 481.482 Z" fill="#000000" fill-rule="nonzero" fill-opacity="1" /><path clip-path="url(#clip630)" d="M130.024 51.9728 Q133.38 52.6904 135.255 54.9589 Q137.154 57.2274 137.154 60.5607 Q137.154 65.6765 133.635 68.4774 Q130.117 71.2783 123.635 71.2783 Q121.459 71.2783 119.144 70.8385 Q116.853 70.4218 114.399 69.5653 L114.399 65.0515 Q116.343 66.1857 118.658 66.7644 Q120.973 67.3431 123.496 67.3431 Q127.894 67.3431 130.186 65.607 Q132.501 63.8709 132.501 60.5607 Q132.501 57.5052 130.348 55.7923 Q128.218 54.0562 124.399 54.0562 L120.371 54.0562 L120.371 50.2136 L124.584 50.2136 Q128.033 50.2136 129.862 48.8478 Q131.691 47.459 131.691 44.8664 Q131.691 42.2044 129.792 40.7923 Q127.917 39.3572 124.399 39.3572 Q122.478 39.3572 120.279 39.7738 Q118.08 40.1905 115.441 41.0701 L115.441 36.9035 Q118.103 36.1627 120.418 35.7924 Q122.755 35.422 124.816 35.422 Q130.14 35.422 133.242 37.8525 Q136.343 40.2599 136.343 44.3803 Q136.343 47.2506 134.7 49.2414 Q133.056 51.2089 130.024 51.9728 Z" fill="#000000" fill-rule="nonzero" fill-opacity="1" /><path clip-path="url(#clip630)" d="M156.019 39.1257 Q152.408 39.1257 150.579 42.6905 Q148.774 46.2321 148.774 53.3617 Q148.774 60.4682 150.579 64.033 Q152.408 67.5746 156.019 67.5746 Q159.653 67.5746 161.459 64.033 Q163.288 60.4682 163.288 53.3617 Q163.288 46.2321 161.459 42.6905 Q159.653 39.1257 156.019 39.1257 M156.019 35.422 Q161.829 35.422 164.885 40.0285 Q167.964 44.6118 167.964 53.3617 Q167.964 62.0885 164.885 66.695 Q161.829 71.2783 156.019 71.2783 Q150.209 71.2783 147.13 66.695 Q144.075 62.0885 144.075 53.3617 Q144.075 44.6118 147.13 40.0285 Q150.209 35.422 156.019 35.422 Z" fill="#000000" fill-rule="nonzero" fill-opacity="1" /><path clip-path="url(#clip630)" d="M39.4334 772.564 Q44.844 772.564 50.9309 774.303 Q56.9856 776.01 61.8809 778.715 Q66.744 781.42 69.9646 784.963 Q73.153 788.505 73.153 791.887 Q73.153 794.045 71.9613 795.655 Q70.7375 797.233 68.7085 798.103 Q66.6474 798.972 64.393 799.391 Q62.1063 799.81 59.6265 799.81 Q55.9228 799.81 51.8971 799.005 Q47.8391 798.199 44.1677 796.847 Q40.464 795.494 37.1146 793.594 Q33.733 791.694 31.2853 789.6 Q28.8055 787.475 27.3562 785.092 Q25.907 782.708 25.907 780.486 Q25.907 778.876 26.6155 777.588 Q27.2918 776.267 28.4834 775.43 Q29.6428 774.593 31.0277 774.013 Q32.4125 773.401 34.0228 773.111 Q35.6009 772.821 36.9214 772.692 Q38.2096 772.564 39.4334 772.564 M35.3433 776.911 Q33.7008 776.911 32.477 777.04 Q31.2209 777.169 29.9649 777.523 Q28.7089 777.878 28.0325 778.65 Q27.3562 779.391 27.3562 780.551 Q27.3562 783.932 34.2805 787.733 Q36.4383 788.956 39.369 790.051 Q42.2997 791.146 43.6846 791.533 Q45.0694 791.919 48.4833 792.821 L48.4833 779.037 Q39.6911 776.911 35.3433 776.911 M50.5766 779.617 L50.5766 793.336 Q58.6281 795.462 63.6522 795.462 Q68.0322 795.462 69.868 794.56 Q71.6715 793.626 71.6715 791.887 Q71.6715 789.89 69.6747 788.022 Q67.6458 786.154 63.9743 784.254 Q59.2078 781.742 50.5766 779.617 Z" fill="#000000" fill-rule="nonzero" fill-opacity="1" /><path clip-path="url(#clip630)" d="M22.9507 728.256 Q30.2712 732.521 37.4327 734.59 Q44.5941 736.658 51.9465 736.658 Q59.2989 736.658 66.5239 734.59 Q73.7172 732.489 81.0059 728.256 L81.0059 733.348 Q73.5262 738.123 66.3011 740.51 Q59.0761 742.865 51.9465 742.865 Q44.8487 742.865 37.6555 740.51 Q30.4622 738.154 22.9507 733.348 L22.9507 728.256 Z" fill="#000000" fill-rule="nonzero" fill-opacity="1" /><path clip-path="url(#clip630)" d="M28.1387 706.74 Q28.1387 709.286 29.9211 711.036 Q31.6717 712.787 34.218 712.787 Q36.7324 712.787 38.483 711.036 Q40.2017 709.286 40.2017 706.74 Q40.2017 704.193 38.483 702.443 Q36.7324 700.692 34.218 700.692 Q31.7035 700.692 29.9211 702.475 Q28.1387 704.225 28.1387 706.74 M24.0328 706.74 Q24.0328 704.703 24.8286 702.825 Q25.5924 700.947 27.0566 699.578 Q28.4888 698.114 30.3031 697.382 Q32.1173 696.65 34.218 696.65 Q38.4193 696.65 41.3476 699.61 Q44.244 702.538 44.244 706.803 Q44.244 711.1 41.3794 713.965 Q38.5148 716.829 34.218 716.829 Q29.953 716.829 26.9929 713.901 Q24.0328 710.973 24.0328 706.74 Z" fill="#000000" fill-rule="nonzero" fill-opacity="1" /><path clip-path="url(#clip630)" d="M22.9507 685.224 L22.9507 680.131 Q30.4622 675.357 37.6555 673.001 Q44.8487 670.614 51.9465 670.614 Q59.0761 670.614 66.3011 673.001 Q73.5262 675.357 81.0059 680.131 L81.0059 685.224 Q73.7172 680.99 66.5239 678.921 Q59.2989 676.821 51.9465 676.821 Q44.5941 676.821 37.4327 678.921 Q30.2712 680.99 22.9507 685.224 Z" fill="#000000" fill-rule="nonzero" fill-opacity="1" /><polyline clip-path="url(#clip632)" style="stroke:#009af9; stroke-linecap:round; stroke-linejoin:round; stroke-width:4; stroke-opacity:1; fill:none" points="229.629,1384.02 254.791,1268.75 279.954,1057.75 305.116,761.739 330.278,458.481 355.44,289.981 380.603,162.435 405.765,86.1857 430.927,107.245 456.089,97.3748 481.252,161.638 506.414,225.075 531.576,250.421 556.739,278.303 581.901,255.321 607.063,277.324 632.225,297.737 657.388,268.363 682.55,265.891 707.712,244.729 732.874,275.227 758.037,279.714 783.199,256.444 808.361,260.92 833.524,255.383 858.686,217.378 883.848,289.383 909.01,214.844 934.173,236.912 959.335,267.655 984.497,224.196 1009.66,280.248 1034.82,266.559 1059.98,249.883 1085.15,256.139 "/>
<polyline clip-path="url(#clip632)" style="stroke:#e26f46; stroke-linecap:round; stroke-linejoin:round; stroke-width:3; stroke-opacity:1; fill:none" stroke-dasharray="12, 6, 2, 6" points="229.629,1384.24 254.791,1269.17 279.954,1051.89 305.116,762.867 330.278,464.567 355.44,283.403 380.603,163.177 405.765,92.3397 430.927,105.643 456.089,108.41 481.252,162.046 506.414,225.32 531.576,257.046 556.739,281.705 581.901,265.019 607.063,275.598 632.225,294.212 657.388,274.403 682.55,266.389 707.712,248.011 732.874,268.752 758.037,278.612 783.199,261.659 808.361,260.363 833.524,256.169 858.686,224.847 883.848,275.456 909.01,229.48 934.173,234.021 959.335,261.401 984.497,233.403 1009.66,270.339 1034.82,269.206 1059.98,253.94 1085.15,254.723 "/>
<path clip-path="url(#clip630)" d="M961.069 1377.32 L1080.58 1377.32 L1080.58 1221.8 L961.069 1221.8  Z" fill="#ffffff" fill-rule="evenodd" fill-opacity="1"/>
<polyline clip-path="url(#clip630)" style="stroke:#000000; stroke-linecap:round; stroke-linejoin:round; stroke-width:4; stroke-opacity:1; fill:none" points="961.069,1377.32 1080.58,1377.32 1080.58,1221.8 961.069,1221.8 961.069,1377.32 "/>
<polyline clip-path="url(#clip630)" style="stroke:#009af9; stroke-linecap:round; stroke-linejoin:round; stroke-width:4; stroke-opacity:1; fill:none" points="971.145,1273.64 1031.6,1273.64 "/>
<path clip-path="url(#clip630)" d="M1068.45 1260.37 Q1066.97 1260.37 1066.22 1260.51 Q1065.48 1260.63 1065.29 1260.8 Q1065.1 1260.96 1064.89 1261.38 L1054.58 1283.3 Q1053.48 1285.65 1051.42 1287.33 Q1049.38 1289.02 1046.81 1289.02 Q1044.65 1289.02 1043.15 1287.71 Q1041.68 1286.42 1041.68 1284.59 Q1041.68 1283.28 1042.5 1282.53 Q1043.32 1281.81 1044.42 1281.81 Q1045.64 1281.81 1046.41 1282.58 Q1047.21 1283.35 1047.21 1284.55 Q1047.21 1285.32 1046.88 1285.9 Q1046.55 1286.51 1046.25 1286.72 Q1045.96 1286.96 1045.66 1287.1 Q1046.15 1287.29 1046.81 1287.29 Q1047.79 1287.29 1048.63 1286.89 Q1049.5 1286.51 1050.06 1286 Q1050.65 1285.51 1051.23 1284.62 Q1051.82 1283.75 1052.1 1283.19 Q1052.38 1282.65 1052.8 1281.71 L1053.9 1279.42 L1044.93 1260.37 L1041.87 1260.37 L1041.87 1258.13 L1047.35 1258.27 L1053.3 1258.13 L1053.3 1260.37 L1050.7 1260.37 L1056.79 1273.33 L1062.31 1261.52 L1062.55 1260.96 Q1062.55 1260.7 1061.99 1260.56 Q1061.42 1260.4 1060.86 1260.4 L1060.3 1260.37 L1060.3 1258.13 L1064.66 1258.27 Q1066.72 1258.27 1068.45 1258.13 L1068.45 1260.37 Z" fill="#000000" fill-rule="nonzero" fill-opacity="1" /><polyline clip-path="url(#clip630)" style="stroke:#e26f46; stroke-linecap:round; stroke-linejoin:round; stroke-width:3; stroke-opacity:1; fill:none" stroke-dasharray="12, 6, 2, 6" points="971.145,1325.48 1031.6,1325.48 "/>
<path clip-path="url(#clip630)" d="M1064.26 1309.2 L1063.85 1309.87 Q1061.31 1308.77 1058.15 1307.01 Q1054.98 1308.77 1052.44 1309.87 L1052.05 1309.2 Q1054.82 1306.79 1058.15 1304.93 Q1061.51 1306.8 1064.26 1309.2 Z" fill="#000000" fill-rule="nonzero" fill-opacity="1" /><path clip-path="url(#clip630)" d="M1068.45 1317.22 Q1066.97 1317.22 1066.22 1317.36 Q1065.48 1317.48 1065.29 1317.64 Q1065.1 1317.8 1064.89 1318.23 L1054.58 1340.15 Q1053.48 1342.49 1051.42 1344.18 Q1049.38 1345.86 1046.81 1345.86 Q1044.65 1345.86 1043.15 1344.55 Q1041.68 1343.26 1041.68 1341.44 Q1041.68 1340.13 1042.5 1339.38 Q1043.32 1338.65 1044.42 1338.65 Q1045.64 1338.65 1046.41 1339.42 Q1047.21 1340.2 1047.21 1341.39 Q1047.21 1342.16 1046.88 1342.75 Q1046.55 1343.36 1046.25 1343.57 Q1045.96 1343.8 1045.66 1343.94 Q1046.15 1344.13 1046.81 1344.13 Q1047.79 1344.13 1048.63 1343.73 Q1049.5 1343.36 1050.06 1342.84 Q1050.65 1342.35 1051.23 1341.46 Q1051.82 1340.59 1052.1 1340.03 Q1052.38 1339.49 1052.8 1338.56 L1053.9 1336.26 L1044.93 1317.22 L1041.87 1317.22 L1041.87 1314.97 L1047.35 1315.11 L1053.3 1314.97 L1053.3 1317.22 L1050.7 1317.22 L1056.79 1330.17 L1062.31 1318.37 L1062.55 1317.8 Q1062.55 1317.55 1061.99 1317.41 Q1061.42 1317.24 1060.86 1317.24 L1060.3 1317.22 L1060.3 1314.97 L1064.66 1315.11 Q1066.72 1315.11 1068.45 1314.97 L1068.45 1317.22 Z" fill="#000000" fill-rule="nonzero" fill-opacity="1" /><path clip-path="url(#clip630)" d="M1445.91 398.692 L2352.76 398.692 L2352.76 47.2441 L1445.91 47.2441  Z" fill="#ffffff" fill-rule="evenodd" fill-opacity="1"/>
<defs>
  <clipPath id="clip633">
    <rect x="1445" y="47" width="908" height="352"/>
  </clipPath>
</defs>
<polyline clip-path="url(#clip633)" style="stroke:#000000; stroke-linecap:round; stroke-linejoin:round; stroke-width:2; stroke-opacity:0.1; fill:none" points="1471.57,398.692 1471.57,47.2441 "/>
<polyline clip-path="url(#clip633)" style="stroke:#000000; stroke-linecap:round; stroke-linejoin:round; stroke-width:2; stroke-opacity:0.1; fill:none" points="1723.2,398.692 1723.2,47.2441 "/>
<polyline clip-path="url(#clip633)" style="stroke:#000000; stroke-linecap:round; stroke-linejoin:round; stroke-width:2; stroke-opacity:0.1; fill:none" points="1974.82,398.692 1974.82,47.2441 "/>
<polyline clip-path="url(#clip633)" style="stroke:#000000; stroke-linecap:round; stroke-linejoin:round; stroke-width:2; stroke-opacity:0.1; fill:none" points="2226.44,398.692 2226.44,47.2441 "/>
<polyline clip-path="url(#clip633)" style="stroke:#000000; stroke-linecap:round; stroke-linejoin:round; stroke-width:2; stroke-opacity:0.1; fill:none" points="1445.91,388.745 2352.76,388.745 "/>
<polyline clip-path="url(#clip633)" style="stroke:#000000; stroke-linecap:round; stroke-linejoin:round; stroke-width:2; stroke-opacity:0.1; fill:none" points="1445.91,323.521 2352.76,323.521 "/>
<polyline clip-path="url(#clip633)" style="stroke:#000000; stroke-linecap:round; stroke-linejoin:round; stroke-width:2; stroke-opacity:0.1; fill:none" points="1445.91,258.298 2352.76,258.298 "/>
<polyline clip-path="url(#clip633)" style="stroke:#000000; stroke-linecap:round; stroke-linejoin:round; stroke-width:2; stroke-opacity:0.1; fill:none" points="1445.91,193.074 2352.76,193.074 "/>
<polyline clip-path="url(#clip633)" style="stroke:#000000; stroke-linecap:round; stroke-linejoin:round; stroke-width:2; stroke-opacity:0.1; fill:none" points="1445.91,127.85 2352.76,127.85 "/>
<polyline clip-path="url(#clip633)" style="stroke:#000000; stroke-linecap:round; stroke-linejoin:round; stroke-width:2; stroke-opacity:0.1; fill:none" points="1445.91,62.6265 2352.76,62.6265 "/>
<polyline clip-path="url(#clip630)" style="stroke:#000000; stroke-linecap:round; stroke-linejoin:round; stroke-width:4; stroke-opacity:1; fill:none" points="1445.91,398.692 2352.76,398.692 "/>
<polyline clip-path="url(#clip630)" style="stroke:#000000; stroke-linecap:round; stroke-linejoin:round; stroke-width:4; stroke-opacity:1; fill:none" points="1471.57,398.692 1471.57,379.794 "/>
<polyline clip-path="url(#clip630)" style="stroke:#000000; stroke-linecap:round; stroke-linejoin:round; stroke-width:4; stroke-opacity:1; fill:none" points="1723.2,398.692 1723.2,379.794 "/>
<polyline clip-path="url(#clip630)" style="stroke:#000000; stroke-linecap:round; stroke-linejoin:round; stroke-width:4; stroke-opacity:1; fill:none" points="1974.82,398.692 1974.82,379.794 "/>
<polyline clip-path="url(#clip630)" style="stroke:#000000; stroke-linecap:round; stroke-linejoin:round; stroke-width:4; stroke-opacity:1; fill:none" points="2226.44,398.692 2226.44,379.794 "/>
<path clip-path="url(#clip630)" d="M1471.57 429.611 Q1467.96 429.611 1466.13 433.175 Q1464.33 436.717 1464.33 443.847 Q1464.33 450.953 1466.13 454.518 Q1467.96 458.059 1471.57 458.059 Q1475.21 458.059 1477.01 454.518 Q1478.84 450.953 1478.84 443.847 Q1478.84 436.717 1477.01 433.175 Q1475.21 429.611 1471.57 429.611 M1471.57 425.907 Q1477.38 425.907 1480.44 430.513 Q1483.52 435.097 1483.52 443.847 Q1483.52 452.573 1480.44 457.18 Q1477.38 461.763 1471.57 461.763 Q1465.76 461.763 1462.68 457.18 Q1459.63 452.573 1459.63 443.847 Q1459.63 435.097 1462.68 430.513 Q1465.76 425.907 1471.57 425.907 Z" fill="#000000" fill-rule="nonzero" fill-opacity="1" /><path clip-path="url(#clip630)" d="M1713.58 457.157 L1721.22 457.157 L1721.22 430.791 L1712.91 432.458 L1712.91 428.199 L1721.17 426.532 L1725.85 426.532 L1725.85 457.157 L1733.49 457.157 L1733.49 461.092 L1713.58 461.092 L1713.58 457.157 Z" fill="#000000" fill-rule="nonzero" fill-opacity="1" /><path clip-path="url(#clip630)" d="M1969.47 457.157 L1985.79 457.157 L1985.79 461.092 L1963.85 461.092 L1963.85 457.157 Q1966.51 454.402 1971.09 449.772 Q1975.7 445.12 1976.88 443.777 Q1979.12 441.254 1980 439.518 Q1980.91 437.759 1980.91 436.069 Q1980.91 433.314 1978.96 431.578 Q1977.04 429.842 1973.94 429.842 Q1971.74 429.842 1969.29 430.606 Q1966.86 431.37 1964.08 432.921 L1964.08 428.199 Q1966.9 427.064 1969.36 426.486 Q1971.81 425.907 1973.85 425.907 Q1979.22 425.907 1982.41 428.592 Q1985.61 431.277 1985.61 435.768 Q1985.61 437.898 1984.8 439.819 Q1984.01 441.717 1981.9 444.31 Q1981.32 444.981 1978.22 448.198 Q1975.12 451.393 1969.47 457.157 Z" fill="#000000" fill-rule="nonzero" fill-opacity="1" /><path clip-path="url(#clip630)" d="M2230.69 442.458 Q2234.05 443.175 2235.92 445.444 Q2237.82 447.712 2237.82 451.046 Q2237.82 456.161 2234.3 458.962 Q2230.78 461.763 2224.3 461.763 Q2222.12 461.763 2219.81 461.323 Q2217.52 460.907 2215.06 460.05 L2215.06 455.536 Q2217.01 456.671 2219.32 457.249 Q2221.64 457.828 2224.16 457.828 Q2228.56 457.828 2230.85 456.092 Q2233.17 454.356 2233.17 451.046 Q2233.17 447.99 2231.01 446.277 Q2228.88 444.541 2225.06 444.541 L2221.04 444.541 L2221.04 440.698 L2225.25 440.698 Q2228.7 440.698 2230.53 439.333 Q2232.36 437.944 2232.36 435.351 Q2232.36 432.689 2230.46 431.277 Q2228.58 429.842 2225.06 429.842 Q2223.14 429.842 2220.94 430.259 Q2218.74 430.675 2216.11 431.555 L2216.11 427.388 Q2218.77 426.648 2221.08 426.277 Q2223.42 425.907 2225.48 425.907 Q2230.8 425.907 2233.91 428.337 Q2237.01 430.745 2237.01 434.865 Q2237.01 437.736 2235.36 439.726 Q2233.72 441.694 2230.69 442.458 Z" fill="#000000" fill-rule="nonzero" fill-opacity="1" /><polyline clip-path="url(#clip630)" style="stroke:#000000; stroke-linecap:round; stroke-linejoin:round; stroke-width:4; stroke-opacity:1; fill:none" points="1445.91,398.692 1445.91,47.2441 "/>
<polyline clip-path="url(#clip630)" style="stroke:#000000; stroke-linecap:round; stroke-linejoin:round; stroke-width:4; stroke-opacity:1; fill:none" points="1445.91,388.745 1464.81,388.745 "/>
<polyline clip-path="url(#clip630)" style="stroke:#000000; stroke-linecap:round; stroke-linejoin:round; stroke-width:4; stroke-opacity:1; fill:none" points="1445.91,323.521 1464.81,323.521 "/>
<polyline clip-path="url(#clip630)" style="stroke:#000000; stroke-linecap:round; stroke-linejoin:round; stroke-width:4; stroke-opacity:1; fill:none" points="1445.91,258.298 1464.81,258.298 "/>
<polyline clip-path="url(#clip630)" style="stroke:#000000; stroke-linecap:round; stroke-linejoin:round; stroke-width:4; stroke-opacity:1; fill:none" points="1445.91,193.074 1464.81,193.074 "/>
<polyline clip-path="url(#clip630)" style="stroke:#000000; stroke-linecap:round; stroke-linejoin:round; stroke-width:4; stroke-opacity:1; fill:none" points="1445.91,127.85 1464.81,127.85 "/>
<polyline clip-path="url(#clip630)" style="stroke:#000000; stroke-linecap:round; stroke-linejoin:round; stroke-width:4; stroke-opacity:1; fill:none" points="1445.91,62.6265 1464.81,62.6265 "/>
<path clip-path="url(#clip630)" d="M1352.73 374.544 Q1349.12 374.544 1347.29 378.109 Q1345.49 381.65 1345.49 388.78 Q1345.49 395.886 1347.29 399.451 Q1349.12 402.993 1352.73 402.993 Q1356.37 402.993 1358.17 399.451 Q1360 395.886 1360 388.78 Q1360 381.65 1358.17 378.109 Q1356.37 374.544 1352.73 374.544 M1352.73 370.84 Q1358.54 370.84 1361.6 375.447 Q1364.68 380.03 1364.68 388.78 Q1364.68 397.507 1361.6 402.113 Q1358.54 406.697 1352.73 406.697 Q1346.92 406.697 1343.84 402.113 Q1340.79 397.507 1340.79 388.78 Q1340.79 380.03 1343.84 375.447 Q1346.92 370.84 1352.73 370.84 Z" fill="#000000" fill-rule="nonzero" fill-opacity="1" /><path clip-path="url(#clip630)" d="M1372.89 400.146 L1377.78 400.146 L1377.78 406.025 L1372.89 406.025 L1372.89 400.146 Z" fill="#000000" fill-rule="nonzero" fill-opacity="1" /><path clip-path="url(#clip630)" d="M1397.96 374.544 Q1394.35 374.544 1392.52 378.109 Q1390.72 381.65 1390.72 388.78 Q1390.72 395.886 1392.52 399.451 Q1394.35 402.993 1397.96 402.993 Q1401.6 402.993 1403.4 399.451 Q1405.23 395.886 1405.23 388.78 Q1405.23 381.65 1403.4 378.109 Q1401.6 374.544 1397.96 374.544 M1397.96 370.84 Q1403.77 370.84 1406.83 375.447 Q1409.91 380.03 1409.91 388.78 Q1409.91 397.507 1406.83 402.113 Q1403.77 406.697 1397.96 406.697 Q1392.15 406.697 1389.07 402.113 Q1386.02 397.507 1386.02 388.78 Q1386.02 380.03 1389.07 375.447 Q1392.15 370.84 1397.96 370.84 Z" fill="#000000" fill-rule="nonzero" fill-opacity="1" /><path clip-path="url(#clip630)" d="M1353.96 309.32 Q1350.35 309.32 1348.52 312.885 Q1346.71 316.427 1346.71 323.556 Q1346.71 330.663 1348.52 334.227 Q1350.35 337.769 1353.96 337.769 Q1357.59 337.769 1359.4 334.227 Q1361.23 330.663 1361.23 323.556 Q1361.23 316.427 1359.4 312.885 Q1357.59 309.32 1353.96 309.32 M1353.96 305.616 Q1359.77 305.616 1362.82 310.223 Q1365.9 314.806 1365.9 323.556 Q1365.9 332.283 1362.82 336.889 Q1359.77 341.473 1353.96 341.473 Q1348.15 341.473 1345.07 336.889 Q1342.01 332.283 1342.01 323.556 Q1342.01 314.806 1345.07 310.223 Q1348.15 305.616 1353.96 305.616 Z" fill="#000000" fill-rule="nonzero" fill-opacity="1" /><path clip-path="url(#clip630)" d="M1374.12 334.922 L1379.01 334.922 L1379.01 340.801 L1374.12 340.801 L1374.12 334.922 Z" fill="#000000" fill-rule="nonzero" fill-opacity="1" /><path clip-path="url(#clip630)" d="M1390 336.866 L1397.64 336.866 L1397.64 310.501 L1389.33 312.167 L1389.33 307.908 L1397.59 306.241 L1402.27 306.241 L1402.27 336.866 L1409.91 336.866 L1409.91 340.801 L1390 340.801 L1390 336.866 Z" fill="#000000" fill-rule="nonzero" fill-opacity="1" /><path clip-path="url(#clip630)" d="M1354.33 244.096 Q1350.72 244.096 1348.89 247.661 Q1347.08 251.203 1347.08 258.332 Q1347.08 265.439 1348.89 269.004 Q1350.72 272.545 1354.33 272.545 Q1357.96 272.545 1359.77 269.004 Q1361.6 265.439 1361.6 258.332 Q1361.6 251.203 1359.77 247.661 Q1357.96 244.096 1354.33 244.096 M1354.33 240.393 Q1360.14 240.393 1363.2 244.999 Q1366.27 249.582 1366.27 258.332 Q1366.27 267.059 1363.2 271.666 Q1360.14 276.249 1354.33 276.249 Q1348.52 276.249 1345.44 271.666 Q1342.39 267.059 1342.39 258.332 Q1342.39 249.582 1345.44 244.999 Q1348.52 240.393 1354.33 240.393 Z" fill="#000000" fill-rule="nonzero" fill-opacity="1" /><path clip-path="url(#clip630)" d="M1374.49 269.698 L1379.38 269.698 L1379.38 275.578 L1374.49 275.578 L1374.49 269.698 Z" fill="#000000" fill-rule="nonzero" fill-opacity="1" /><path clip-path="url(#clip630)" d="M1393.59 271.643 L1409.91 271.643 L1409.91 275.578 L1387.96 275.578 L1387.96 271.643 Q1390.63 268.888 1395.21 264.258 Q1399.82 259.606 1401 258.263 Q1403.24 255.74 1404.12 254.004 Q1405.02 252.245 1405.02 250.555 Q1405.02 247.8 1403.08 246.064 Q1401.16 244.328 1398.06 244.328 Q1395.86 244.328 1393.4 245.092 Q1390.97 245.856 1388.19 247.407 L1388.19 242.684 Q1391.02 241.55 1393.47 240.971 Q1395.93 240.393 1397.96 240.393 Q1403.33 240.393 1406.53 243.078 Q1409.72 245.763 1409.72 250.254 Q1409.72 252.383 1408.91 254.305 Q1408.13 256.203 1406.02 258.795 Q1405.44 259.467 1402.34 262.684 Q1399.24 265.879 1393.59 271.643 Z" fill="#000000" fill-rule="nonzero" fill-opacity="1" /><path clip-path="url(#clip630)" d="M1353.38 178.873 Q1349.77 178.873 1347.94 182.437 Q1346.13 185.979 1346.13 193.109 Q1346.13 200.215 1347.94 203.78 Q1349.77 207.322 1353.38 207.322 Q1357.01 207.322 1358.82 203.78 Q1360.65 200.215 1360.65 193.109 Q1360.65 185.979 1358.82 182.437 Q1357.01 178.873 1353.38 178.873 M1353.38 175.169 Q1359.19 175.169 1362.25 179.775 Q1365.32 184.359 1365.32 193.109 Q1365.32 201.835 1362.25 206.442 Q1359.19 211.025 1353.38 211.025 Q1347.57 211.025 1344.49 206.442 Q1341.44 201.835 1341.44 193.109 Q1341.44 184.359 1344.49 179.775 Q1347.57 175.169 1353.38 175.169 Z" fill="#000000" fill-rule="nonzero" fill-opacity="1" /><path clip-path="url(#clip630)" d="M1373.54 204.474 L1378.43 204.474 L1378.43 210.354 L1373.54 210.354 L1373.54 204.474 Z" fill="#000000" fill-rule="nonzero" fill-opacity="1" /><path clip-path="url(#clip630)" d="M1402.78 191.72 Q1406.13 192.437 1408.01 194.706 Q1409.91 196.974 1409.91 200.308 Q1409.91 205.423 1406.39 208.224 Q1402.87 211.025 1396.39 211.025 Q1394.21 211.025 1391.9 210.585 Q1389.61 210.169 1387.15 209.312 L1387.15 204.798 Q1389.1 205.933 1391.41 206.511 Q1393.73 207.09 1396.25 207.09 Q1400.65 207.09 1402.94 205.354 Q1405.26 203.618 1405.26 200.308 Q1405.26 197.252 1403.1 195.539 Q1400.97 193.803 1397.15 193.803 L1393.13 193.803 L1393.13 189.961 L1397.34 189.961 Q1400.79 189.961 1402.62 188.595 Q1404.44 187.206 1404.44 184.613 Q1404.44 181.951 1402.55 180.539 Q1400.67 179.104 1397.15 179.104 Q1395.23 179.104 1393.03 179.521 Q1390.83 179.937 1388.19 180.817 L1388.19 176.65 Q1390.86 175.91 1393.17 175.539 Q1395.51 175.169 1397.57 175.169 Q1402.89 175.169 1406 177.6 Q1409.1 180.007 1409.1 184.127 Q1409.1 186.998 1407.45 188.988 Q1405.81 190.956 1402.78 191.72 Z" fill="#000000" fill-rule="nonzero" fill-opacity="1" /><path clip-path="url(#clip630)" d="M1352.25 113.649 Q1348.63 113.649 1346.81 117.214 Q1345 120.755 1345 127.885 Q1345 134.991 1346.81 138.556 Q1348.63 142.098 1352.25 142.098 Q1355.88 142.098 1357.69 138.556 Q1359.51 134.991 1359.51 127.885 Q1359.51 120.755 1357.69 117.214 Q1355.88 113.649 1352.25 113.649 M1352.25 109.945 Q1358.06 109.945 1361.11 114.552 Q1364.19 119.135 1364.19 127.885 Q1364.19 136.612 1361.11 141.218 Q1358.06 145.802 1352.25 145.802 Q1346.44 145.802 1343.36 141.218 Q1340.3 136.612 1340.3 127.885 Q1340.3 119.135 1343.36 114.552 Q1346.44 109.945 1352.25 109.945 Z" fill="#000000" fill-rule="nonzero" fill-opacity="1" /><path clip-path="url(#clip630)" d="M1372.41 139.251 L1377.29 139.251 L1377.29 145.13 L1372.41 145.13 L1372.41 139.251 Z" fill="#000000" fill-rule="nonzero" fill-opacity="1" /><path clip-path="url(#clip630)" d="M1400.32 114.644 L1388.52 133.093 L1400.32 133.093 L1400.32 114.644 M1399.1 110.57 L1404.98 110.57 L1404.98 133.093 L1409.91 133.093 L1409.91 136.982 L1404.98 136.982 L1404.98 145.13 L1400.32 145.13 L1400.32 136.982 L1384.72 136.982 L1384.72 132.468 L1399.1 110.57 Z" fill="#000000" fill-rule="nonzero" fill-opacity="1" /><path clip-path="url(#clip630)" d="M1353.73 48.4252 Q1350.12 48.4252 1348.29 51.9899 Q1346.48 55.5316 1346.48 62.6612 Q1346.48 69.7676 1348.29 73.3324 Q1350.12 76.8741 1353.73 76.8741 Q1357.36 76.8741 1359.17 73.3324 Q1361 69.7676 1361 62.6612 Q1361 55.5316 1359.17 51.9899 Q1357.36 48.4252 1353.73 48.4252 M1353.73 44.7215 Q1359.54 44.7215 1362.59 49.3279 Q1365.67 53.9112 1365.67 62.6612 Q1365.67 71.388 1362.59 75.9944 Q1359.54 80.5778 1353.73 80.5778 Q1347.92 80.5778 1344.84 75.9944 Q1341.78 71.388 1341.78 62.6612 Q1341.78 53.9112 1344.84 49.3279 Q1347.92 44.7215 1353.73 44.7215 Z" fill="#000000" fill-rule="nonzero" fill-opacity="1" /><path clip-path="url(#clip630)" d="M1373.89 74.0269 L1378.77 74.0269 L1378.77 79.9065 L1373.89 79.9065 L1373.89 74.0269 Z" fill="#000000" fill-rule="nonzero" fill-opacity="1" /><path clip-path="url(#clip630)" d="M1389.01 45.3465 L1407.36 45.3465 L1407.36 49.2816 L1393.29 49.2816 L1393.29 57.7538 Q1394.31 57.4066 1395.32 57.2445 Q1396.34 57.0594 1397.36 57.0594 Q1403.15 57.0594 1406.53 60.2306 Q1409.91 63.4019 1409.91 68.8186 Q1409.91 74.3972 1406.44 77.4991 Q1402.96 80.5778 1396.64 80.5778 Q1394.47 80.5778 1392.2 80.2074 Q1389.95 79.837 1387.55 79.0963 L1387.55 74.3972 Q1389.63 75.5315 1391.85 76.087 Q1394.07 76.6426 1396.55 76.6426 Q1400.56 76.6426 1402.89 74.5361 Q1405.23 72.4297 1405.23 68.8186 Q1405.23 65.2075 1402.89 63.101 Q1400.56 60.9945 1396.55 60.9945 Q1394.68 60.9945 1392.8 61.4112 Q1390.95 61.8279 1389.01 62.7075 L1389.01 45.3465 Z" fill="#000000" fill-rule="nonzero" fill-opacity="1" /><path clip-path="url(#clip630)" d="M1265.47 298.084 Q1270.89 298.084 1276.97 299.823 Q1283.03 301.53 1287.92 304.235 Q1292.79 306.941 1296.01 310.483 Q1299.19 314.026 1299.19 317.408 Q1299.19 319.565 1298 321.176 Q1296.78 322.754 1294.75 323.623 Q1292.69 324.493 1290.43 324.912 Q1288.15 325.33 1285.67 325.33 Q1281.96 325.33 1277.94 324.525 Q1273.88 323.72 1270.21 322.367 Q1266.51 321.015 1263.16 319.115 Q1259.77 317.214 1257.33 315.121 Q1254.85 312.995 1253.4 310.612 Q1251.95 308.229 1251.95 306.007 Q1251.95 304.396 1252.66 303.108 Q1253.33 301.788 1254.52 300.95 Q1255.68 300.113 1257.07 299.533 Q1258.45 298.921 1260.06 298.632 Q1261.64 298.342 1262.96 298.213 Q1264.25 298.084 1265.47 298.084 M1261.38 302.432 Q1259.74 302.432 1258.52 302.561 Q1257.26 302.69 1256.01 303.044 Q1254.75 303.398 1254.07 304.171 Q1253.4 304.912 1253.4 306.071 Q1253.4 309.453 1260.32 313.253 Q1262.48 314.477 1265.41 315.572 Q1268.34 316.667 1269.73 317.053 Q1271.11 317.44 1274.52 318.342 L1274.52 304.558 Q1265.73 302.432 1261.38 302.432 M1276.62 305.137 L1276.62 318.857 Q1284.67 320.983 1289.69 320.983 Q1294.07 320.983 1295.91 320.081 Q1297.71 319.147 1297.71 317.408 Q1297.71 315.411 1295.72 313.543 Q1293.69 311.675 1290.02 309.775 Q1285.25 307.263 1276.62 305.137 Z" fill="#000000" fill-rule="nonzero" fill-opacity="1" /><path clip-path="url(#clip630)" d="M1248.99 253.776 Q1256.31 258.041 1263.47 260.11 Q1270.64 262.179 1277.99 262.179 Q1285.34 262.179 1292.57 260.11 Q1299.76 258.009 1307.05 253.776 L1307.05 258.869 Q1299.57 263.643 1292.34 266.03 Q1285.12 268.386 1277.99 268.386 Q1270.89 268.386 1263.7 266.03 Q1256.5 263.675 1248.99 258.869 L1248.99 253.776 Z" fill="#000000" fill-rule="nonzero" fill-opacity="1" /><path clip-path="url(#clip630)" d="M1268.28 221.757 Q1267.71 222.743 1267.45 223.921 Q1267.17 225.067 1267.17 226.467 Q1267.17 231.433 1270.41 234.106 Q1273.63 236.748 1279.67 236.748 L1298.45 236.748 L1298.45 242.636 L1262.81 242.636 L1262.81 236.748 L1268.34 236.748 Q1265.1 234.902 1263.54 231.942 Q1261.95 228.982 1261.95 224.749 Q1261.95 224.144 1262.04 223.412 Q1262.11 222.68 1262.26 221.789 L1268.28 221.757 Z" fill="#000000" fill-rule="nonzero" fill-opacity="1" /><path clip-path="url(#clip630)" d="M1280.53 199.413 Q1280.53 206.511 1282.16 209.248 Q1283.78 211.985 1287.7 211.985 Q1290.81 211.985 1292.66 209.948 Q1294.48 207.879 1294.48 204.347 Q1294.48 199.477 1291.04 196.549 Q1287.57 193.588 1281.84 193.588 L1280.53 193.588 L1280.53 199.413 M1278.12 187.732 L1298.45 187.732 L1298.45 193.588 L1293.04 193.588 Q1296.29 195.594 1297.85 198.586 Q1299.38 201.577 1299.38 205.906 Q1299.38 211.381 1296.32 214.627 Q1293.23 217.842 1288.08 217.842 Q1282.06 217.842 1279.01 213.831 Q1275.95 209.789 1275.95 201.8 L1275.95 193.588 L1275.38 193.588 Q1271.34 193.588 1269.14 196.262 Q1266.91 198.904 1266.91 203.71 Q1266.91 206.766 1267.64 209.662 Q1268.38 212.558 1269.84 215.232 L1264.43 215.232 Q1263.19 212.017 1262.58 208.993 Q1261.95 205.97 1261.95 203.105 Q1261.95 195.371 1265.96 191.551 Q1269.97 187.732 1278.12 187.732 Z" fill="#000000" fill-rule="nonzero" fill-opacity="1" /><path clip-path="url(#clip630)" d="M1268.22 152.211 L1248.93 152.211 L1248.93 146.355 L1298.45 146.355 L1298.45 152.211 L1293.11 152.211 Q1296.29 154.057 1297.85 156.89 Q1299.38 159.691 1299.38 163.638 Q1299.38 170.099 1294.22 174.173 Q1289.06 178.215 1280.66 178.215 Q1272.26 178.215 1267.1 174.173 Q1261.95 170.099 1261.95 163.638 Q1261.95 159.691 1263.51 156.89 Q1265.03 154.057 1268.22 152.211 M1280.66 172.168 Q1287.12 172.168 1290.81 169.526 Q1294.48 166.853 1294.48 162.206 Q1294.48 157.559 1290.81 154.885 Q1287.12 152.211 1280.66 152.211 Q1274.2 152.211 1270.54 154.885 Q1266.85 157.559 1266.85 162.206 Q1266.85 166.853 1270.54 169.526 Q1274.2 172.168 1280.66 172.168 Z" fill="#000000" fill-rule="nonzero" fill-opacity="1" /><path clip-path="url(#clip630)" d="M1248.99 135.215 L1248.99 130.122 Q1256.5 125.348 1263.7 122.993 Q1270.89 120.606 1277.99 120.606 Q1285.12 120.606 1292.34 122.993 Q1299.57 125.348 1307.05 130.122 L1307.05 135.215 Q1299.76 130.982 1292.57 128.913 Q1285.34 126.812 1277.99 126.812 Q1270.64 126.812 1263.47 128.913 Q1256.31 130.982 1248.99 135.215 Z" fill="#000000" fill-rule="nonzero" fill-opacity="1" /><polyline clip-path="url(#clip633)" style="stroke:#009af9; stroke-linecap:round; stroke-linejoin:round; stroke-width:4; stroke-opacity:1; fill:none" points="1471.57,388.745 1496.74,360.422 1521.9,296.172 1547.06,222.185 1572.22,155.973 1597.38,106.413 1622.55,75.625 1647.71,61.4717 1672.87,59.7812 1698.03,65.9332 1723.2,75.8186 1748.36,86.3133 1773.52,95.4066 1798.68,102.104 1823.85,106.203 1849.01,108.023 1874.17,108.147 1899.33,107.221 1924.49,105.816 1949.66,104.363 1974.82,103.131 1999.98,102.243 2025.14,101.717 2050.31,101.5 2075.47,101.508 2100.63,101.652 2125.79,101.852 2150.95,102.053 2176.12,102.22 2201.28,102.338 2226.44,102.405 2251.6,102.431 2276.77,102.426 2301.93,102.405 2327.09,102.376 "/>
<polyline clip-path="url(#clip633)" style="stroke:#e26f46; stroke-linecap:round; stroke-linejoin:round; stroke-width:3; stroke-opacity:1; fill:none" stroke-dasharray="12, 6, 2, 6" points="1471.57,386.89 1496.74,357.524 1521.9,302.074 1547.06,228.313 1572.22,152.185 1597.38,105.951 1622.55,75.2687 1647.71,57.1907 1672.87,60.5858 1698.03,61.2919 1723.2,74.9802 1748.36,91.128 1773.52,99.2246 1798.68,105.518 1823.85,101.259 1849.01,103.959 1874.17,108.71 1899.33,103.654 1924.49,101.609 1949.66,96.9189 1974.82,102.212 1999.98,104.729 2025.14,100.402 2050.31,100.071 2075.47,99.0009 2100.63,91.0072 2125.79,103.923 2150.95,92.1897 2176.12,93.3485 2201.28,100.336 2226.44,93.191 2251.6,102.617 2276.77,102.328 2301.93,98.4321 2327.09,98.6318 "/>
<path clip-path="url(#clip630)" d="M2203.01 386.977 L2322.53 386.977 L2322.53 231.457 L2203.01 231.457  Z" fill="#ffffff" fill-rule="evenodd" fill-opacity="1"/>
<polyline clip-path="url(#clip630)" style="stroke:#000000; stroke-linecap:round; stroke-linejoin:round; stroke-width:4; stroke-opacity:1; fill:none" points="2203.01,386.977 2322.53,386.977 2322.53,231.457 2203.01,231.457 2203.01,386.977 "/>
<polyline clip-path="url(#clip630)" style="stroke:#009af9; stroke-linecap:round; stroke-linejoin:round; stroke-width:4; stroke-opacity:1; fill:none" points="2213.09,283.297 2273.55,283.297 "/>
<path clip-path="url(#clip630)" d="M2310.63 293.836 L2305.36 293.695 L2299.6 293.836 L2299.6 291.587 L2301.47 291.587 L2296.2 285.357 L2291.54 290.58 L2291.21 291.049 Q2291.21 291.26 2291.75 291.423 Q2292.31 291.587 2292.97 291.587 L2292.97 293.836 L2288.03 293.695 L2283.62 293.836 L2283.62 291.587 Q2285.1 291.587 2285.78 291.564 Q2286.48 291.517 2287.28 291.306 Q2288.07 291.096 2288.47 290.674 L2294.75 283.624 L2287.28 274.794 L2283.86 274.794 L2283.86 272.545 L2289.15 272.686 L2294.94 272.545 L2294.94 274.794 L2293.01 274.794 L2297.72 280.298 L2301.75 275.801 Q2301.77 275.777 2302.15 275.215 Q2301.4 274.794 2300.32 274.794 L2300.32 272.545 L2305.26 272.686 L2309.67 272.545 L2309.67 274.794 Q2307.75 274.794 2306.74 274.934 Q2305.76 275.051 2305.45 275.215 Q2305.17 275.379 2304.77 275.801 L2299.17 282.031 L2307.23 291.587 L2310.63 291.587 L2310.63 293.836 Z" fill="#000000" fill-rule="nonzero" fill-opacity="1" /><polyline clip-path="url(#clip630)" style="stroke:#e26f46; stroke-linecap:round; stroke-linejoin:round; stroke-width:3; stroke-opacity:1; fill:none" stroke-dasharray="12, 6, 2, 6" points="2213.09,335.137 2273.55,335.137 "/>
<path clip-path="url(#clip630)" d="M2306.21 323.615 L2305.8 324.287 Q2303.26 323.189 2300.09 321.434 Q2296.93 323.189 2294.39 324.287 L2293.99 323.615 Q2296.76 321.205 2300.09 319.352 Q2303.45 321.221 2306.21 323.615 Z" fill="#000000" fill-rule="nonzero" fill-opacity="1" /><path clip-path="url(#clip630)" d="M2310.63 350.681 L2305.36 350.54 L2299.6 350.681 L2299.6 348.432 L2301.47 348.432 L2296.2 342.202 L2291.54 347.425 L2291.21 347.893 Q2291.21 348.104 2291.75 348.268 Q2292.31 348.432 2292.97 348.432 L2292.97 350.681 L2288.03 350.54 L2283.62 350.681 L2283.62 348.432 Q2285.1 348.432 2285.78 348.409 Q2286.48 348.362 2287.28 348.151 Q2288.07 347.94 2288.47 347.519 L2294.75 340.468 L2287.28 331.638 L2283.86 331.638 L2283.86 329.39 L2289.15 329.53 L2294.94 329.39 L2294.94 331.638 L2293.01 331.638 L2297.72 337.142 L2301.75 332.645 Q2301.77 332.622 2302.15 332.06 Q2301.4 331.638 2300.32 331.638 L2300.32 329.39 L2305.26 329.53 L2309.67 329.39 L2309.67 331.638 Q2307.75 331.638 2306.74 331.779 Q2305.76 331.896 2305.45 332.06 Q2305.17 332.224 2304.77 332.645 L2299.17 338.876 L2307.23 348.432 L2310.63 348.432 L2310.63 350.681 Z" fill="#000000" fill-rule="nonzero" fill-opacity="1" /><path clip-path="url(#clip630)" d="M1445.91 910.936 L2352.76 910.936 L2352.76 559.488 L1445.91 559.488  Z" fill="#ffffff" fill-rule="evenodd" fill-opacity="1"/>
<defs>
  <clipPath id="clip634">
    <rect x="1445" y="559" width="908" height="352"/>
  </clipPath>
</defs>
<polyline clip-path="url(#clip634)" style="stroke:#000000; stroke-linecap:round; stroke-linejoin:round; stroke-width:2; stroke-opacity:0.1; fill:none" points="1471.57,910.936 1471.57,559.488 "/>
<polyline clip-path="url(#clip634)" style="stroke:#000000; stroke-linecap:round; stroke-linejoin:round; stroke-width:2; stroke-opacity:0.1; fill:none" points="1723.2,910.936 1723.2,559.488 "/>
<polyline clip-path="url(#clip634)" style="stroke:#000000; stroke-linecap:round; stroke-linejoin:round; stroke-width:2; stroke-opacity:0.1; fill:none" points="1974.82,910.936 1974.82,559.488 "/>
<polyline clip-path="url(#clip634)" style="stroke:#000000; stroke-linecap:round; stroke-linejoin:round; stroke-width:2; stroke-opacity:0.1; fill:none" points="2226.44,910.936 2226.44,559.488 "/>
<polyline clip-path="url(#clip634)" style="stroke:#000000; stroke-linecap:round; stroke-linejoin:round; stroke-width:2; stroke-opacity:0.1; fill:none" points="1445.91,840.752 2352.76,840.752 "/>
<polyline clip-path="url(#clip634)" style="stroke:#000000; stroke-linecap:round; stroke-linejoin:round; stroke-width:2; stroke-opacity:0.1; fill:none" points="1445.91,767.857 2352.76,767.857 "/>
<polyline clip-path="url(#clip634)" style="stroke:#000000; stroke-linecap:round; stroke-linejoin:round; stroke-width:2; stroke-opacity:0.1; fill:none" points="1445.91,694.963 2352.76,694.963 "/>
<polyline clip-path="url(#clip634)" style="stroke:#000000; stroke-linecap:round; stroke-linejoin:round; stroke-width:2; stroke-opacity:0.1; fill:none" points="1445.91,622.068 2352.76,622.068 "/>
<polyline clip-path="url(#clip630)" style="stroke:#000000; stroke-linecap:round; stroke-linejoin:round; stroke-width:4; stroke-opacity:1; fill:none" points="1445.91,910.936 2352.76,910.936 "/>
<polyline clip-path="url(#clip630)" style="stroke:#000000; stroke-linecap:round; stroke-linejoin:round; stroke-width:4; stroke-opacity:1; fill:none" points="1471.57,910.936 1471.57,892.038 "/>
<polyline clip-path="url(#clip630)" style="stroke:#000000; stroke-linecap:round; stroke-linejoin:round; stroke-width:4; stroke-opacity:1; fill:none" points="1723.2,910.936 1723.2,892.038 "/>
<polyline clip-path="url(#clip630)" style="stroke:#000000; stroke-linecap:round; stroke-linejoin:round; stroke-width:4; stroke-opacity:1; fill:none" points="1974.82,910.936 1974.82,892.038 "/>
<polyline clip-path="url(#clip630)" style="stroke:#000000; stroke-linecap:round; stroke-linejoin:round; stroke-width:4; stroke-opacity:1; fill:none" points="2226.44,910.936 2226.44,892.038 "/>
<path clip-path="url(#clip630)" d="M1471.57 941.855 Q1467.96 941.855 1466.13 945.419 Q1464.33 948.961 1464.33 956.091 Q1464.33 963.197 1466.13 966.762 Q1467.96 970.303 1471.57 970.303 Q1475.21 970.303 1477.01 966.762 Q1478.84 963.197 1478.84 956.091 Q1478.84 948.961 1477.01 945.419 Q1475.21 941.855 1471.57 941.855 M1471.57 938.151 Q1477.38 938.151 1480.44 942.757 Q1483.52 947.341 1483.52 956.091 Q1483.52 964.817 1480.44 969.424 Q1477.38 974.007 1471.57 974.007 Q1465.76 974.007 1462.68 969.424 Q1459.63 964.817 1459.63 956.091 Q1459.63 947.341 1462.68 942.757 Q1465.76 938.151 1471.57 938.151 Z" fill="#000000" fill-rule="nonzero" fill-opacity="1" /><path clip-path="url(#clip630)" d="M1713.58 969.401 L1721.22 969.401 L1721.22 943.035 L1712.91 944.702 L1712.91 940.443 L1721.17 938.776 L1725.85 938.776 L1725.85 969.401 L1733.49 969.401 L1733.49 973.336 L1713.58 973.336 L1713.58 969.401 Z" fill="#000000" fill-rule="nonzero" fill-opacity="1" /><path clip-path="url(#clip630)" d="M1969.47 969.401 L1985.79 969.401 L1985.79 973.336 L1963.85 973.336 L1963.85 969.401 Q1966.51 966.646 1971.09 962.016 Q1975.7 957.364 1976.88 956.021 Q1979.12 953.498 1980 951.762 Q1980.91 950.003 1980.91 948.313 Q1980.91 945.558 1978.96 943.822 Q1977.04 942.086 1973.94 942.086 Q1971.74 942.086 1969.29 942.85 Q1966.86 943.614 1964.08 945.165 L1964.08 940.443 Q1966.9 939.308 1969.36 938.73 Q1971.81 938.151 1973.85 938.151 Q1979.22 938.151 1982.41 940.836 Q1985.61 943.521 1985.61 948.012 Q1985.61 950.142 1984.8 952.063 Q1984.01 953.961 1981.9 956.554 Q1981.32 957.225 1978.22 960.442 Q1975.12 963.637 1969.47 969.401 Z" fill="#000000" fill-rule="nonzero" fill-opacity="1" /><path clip-path="url(#clip630)" d="M2230.69 954.702 Q2234.05 955.419 2235.92 957.688 Q2237.82 959.956 2237.82 963.29 Q2237.82 968.405 2234.3 971.206 Q2230.78 974.007 2224.3 974.007 Q2222.12 974.007 2219.81 973.567 Q2217.52 973.151 2215.06 972.294 L2215.06 967.78 Q2217.01 968.915 2219.32 969.493 Q2221.64 970.072 2224.16 970.072 Q2228.56 970.072 2230.85 968.336 Q2233.17 966.6 2233.17 963.29 Q2233.17 960.234 2231.01 958.521 Q2228.88 956.785 2225.06 956.785 L2221.04 956.785 L2221.04 952.942 L2225.25 952.942 Q2228.7 952.942 2230.53 951.577 Q2232.36 950.188 2232.36 947.595 Q2232.36 944.933 2230.46 943.521 Q2228.58 942.086 2225.06 942.086 Q2223.14 942.086 2220.94 942.503 Q2218.74 942.919 2216.11 943.799 L2216.11 939.632 Q2218.77 938.892 2221.08 938.521 Q2223.42 938.151 2225.48 938.151 Q2230.8 938.151 2233.91 940.581 Q2237.01 942.989 2237.01 947.109 Q2237.01 949.979 2235.36 951.97 Q2233.72 953.938 2230.69 954.702 Z" fill="#000000" fill-rule="nonzero" fill-opacity="1" /><polyline clip-path="url(#clip630)" style="stroke:#000000; stroke-linecap:round; stroke-linejoin:round; stroke-width:4; stroke-opacity:1; fill:none" points="1445.91,910.936 1445.91,559.488 "/>
<polyline clip-path="url(#clip630)" style="stroke:#000000; stroke-linecap:round; stroke-linejoin:round; stroke-width:4; stroke-opacity:1; fill:none" points="1445.91,840.752 1464.81,840.752 "/>
<polyline clip-path="url(#clip630)" style="stroke:#000000; stroke-linecap:round; stroke-linejoin:round; stroke-width:4; stroke-opacity:1; fill:none" points="1445.91,767.857 1464.81,767.857 "/>
<polyline clip-path="url(#clip630)" style="stroke:#000000; stroke-linecap:round; stroke-linejoin:round; stroke-width:4; stroke-opacity:1; fill:none" points="1445.91,694.963 1464.81,694.963 "/>
<polyline clip-path="url(#clip630)" style="stroke:#000000; stroke-linecap:round; stroke-linejoin:round; stroke-width:4; stroke-opacity:1; fill:none" points="1445.91,622.068 1464.81,622.068 "/>
<path clip-path="url(#clip630)" d="M1352.73 826.551 Q1349.12 826.551 1347.29 830.115 Q1345.49 833.657 1345.49 840.787 Q1345.49 847.893 1347.29 851.458 Q1349.12 854.999 1352.73 854.999 Q1356.37 854.999 1358.17 851.458 Q1360 847.893 1360 840.787 Q1360 833.657 1358.17 830.115 Q1356.37 826.551 1352.73 826.551 M1352.73 822.847 Q1358.54 822.847 1361.6 827.453 Q1364.68 832.037 1364.68 840.787 Q1364.68 849.513 1361.6 854.12 Q1358.54 858.703 1352.73 858.703 Q1346.92 858.703 1343.84 854.12 Q1340.79 849.513 1340.79 840.787 Q1340.79 832.037 1343.84 827.453 Q1346.92 822.847 1352.73 822.847 Z" fill="#000000" fill-rule="nonzero" fill-opacity="1" /><path clip-path="url(#clip630)" d="M1372.89 852.152 L1377.78 852.152 L1377.78 858.032 L1372.89 858.032 L1372.89 852.152 Z" fill="#000000" fill-rule="nonzero" fill-opacity="1" /><path clip-path="url(#clip630)" d="M1397.96 826.551 Q1394.35 826.551 1392.52 830.115 Q1390.72 833.657 1390.72 840.787 Q1390.72 847.893 1392.52 851.458 Q1394.35 854.999 1397.96 854.999 Q1401.6 854.999 1403.4 851.458 Q1405.23 847.893 1405.23 840.787 Q1405.23 833.657 1403.4 830.115 Q1401.6 826.551 1397.96 826.551 M1397.96 822.847 Q1403.77 822.847 1406.83 827.453 Q1409.91 832.037 1409.91 840.787 Q1409.91 849.513 1406.83 854.12 Q1403.77 858.703 1397.96 858.703 Q1392.15 858.703 1389.07 854.12 Q1386.02 849.513 1386.02 840.787 Q1386.02 832.037 1389.07 827.453 Q1392.15 822.847 1397.96 822.847 Z" fill="#000000" fill-rule="nonzero" fill-opacity="1" /><path clip-path="url(#clip630)" d="M1353.38 753.656 Q1349.77 753.656 1347.94 757.221 Q1346.13 760.762 1346.13 767.892 Q1346.13 774.999 1347.94 778.563 Q1349.77 782.105 1353.38 782.105 Q1357.01 782.105 1358.82 778.563 Q1360.65 774.999 1360.65 767.892 Q1360.65 760.762 1358.82 757.221 Q1357.01 753.656 1353.38 753.656 M1353.38 749.952 Q1359.19 749.952 1362.25 754.559 Q1365.32 759.142 1365.32 767.892 Q1365.32 776.619 1362.25 781.225 Q1359.19 785.809 1353.38 785.809 Q1347.57 785.809 1344.49 781.225 Q1341.44 776.619 1341.44 767.892 Q1341.44 759.142 1344.49 754.559 Q1347.57 749.952 1353.38 749.952 Z" fill="#000000" fill-rule="nonzero" fill-opacity="1" /><path clip-path="url(#clip630)" d="M1373.54 779.258 L1378.43 779.258 L1378.43 785.137 L1373.54 785.137 L1373.54 779.258 Z" fill="#000000" fill-rule="nonzero" fill-opacity="1" /><path clip-path="url(#clip630)" d="M1402.78 766.503 Q1406.13 767.221 1408.01 769.489 Q1409.91 771.758 1409.91 775.091 Q1409.91 780.207 1406.39 783.008 Q1402.87 785.809 1396.39 785.809 Q1394.21 785.809 1391.9 785.369 Q1389.61 784.952 1387.15 784.096 L1387.15 779.582 Q1389.1 780.716 1391.41 781.295 Q1393.73 781.873 1396.25 781.873 Q1400.65 781.873 1402.94 780.137 Q1405.26 778.401 1405.26 775.091 Q1405.26 772.036 1403.1 770.323 Q1400.97 768.587 1397.15 768.587 L1393.13 768.587 L1393.13 764.744 L1397.34 764.744 Q1400.79 764.744 1402.62 763.378 Q1404.44 761.989 1404.44 759.397 Q1404.44 756.735 1402.55 755.323 Q1400.67 753.888 1397.15 753.888 Q1395.23 753.888 1393.03 754.304 Q1390.83 754.721 1388.19 755.6 L1388.19 751.434 Q1390.86 750.693 1393.17 750.323 Q1395.51 749.952 1397.57 749.952 Q1402.89 749.952 1406 752.383 Q1409.1 754.79 1409.1 758.911 Q1409.1 761.781 1407.45 763.772 Q1405.81 765.739 1402.78 766.503 Z" fill="#000000" fill-rule="nonzero" fill-opacity="1" /><path clip-path="url(#clip630)" d="M1352.57 680.761 Q1348.96 680.761 1347.13 684.326 Q1345.32 687.868 1345.32 694.998 Q1345.32 702.104 1347.13 705.669 Q1348.96 709.21 1352.57 709.21 Q1356.2 709.21 1358.01 705.669 Q1359.84 702.104 1359.84 694.998 Q1359.84 687.868 1358.01 684.326 Q1356.2 680.761 1352.57 680.761 M1352.57 677.058 Q1358.38 677.058 1361.44 681.664 Q1364.51 686.248 1364.51 694.998 Q1364.51 703.724 1361.44 708.331 Q1358.38 712.914 1352.57 712.914 Q1346.76 712.914 1343.68 708.331 Q1340.63 703.724 1340.63 694.998 Q1340.63 686.248 1343.68 681.664 Q1346.76 677.058 1352.57 677.058 Z" fill="#000000" fill-rule="nonzero" fill-opacity="1" /><path clip-path="url(#clip630)" d="M1372.73 706.363 L1377.62 706.363 L1377.62 712.243 L1372.73 712.243 L1372.73 706.363 Z" fill="#000000" fill-rule="nonzero" fill-opacity="1" /><path clip-path="url(#clip630)" d="M1398.38 693.099 Q1395.23 693.099 1393.38 695.252 Q1391.55 697.405 1391.55 701.155 Q1391.55 704.882 1393.38 707.058 Q1395.23 709.21 1398.38 709.21 Q1401.53 709.21 1403.36 707.058 Q1405.21 704.882 1405.21 701.155 Q1405.21 697.405 1403.36 695.252 Q1401.53 693.099 1398.38 693.099 M1407.66 678.447 L1407.66 682.706 Q1405.9 681.873 1404.1 681.433 Q1402.32 680.993 1400.56 680.993 Q1395.93 680.993 1393.47 684.118 Q1391.04 687.243 1390.69 693.562 Q1392.06 691.548 1394.12 690.484 Q1396.18 689.396 1398.66 689.396 Q1403.87 689.396 1406.88 692.567 Q1409.91 695.715 1409.91 701.155 Q1409.91 706.479 1406.76 709.697 Q1403.61 712.914 1398.38 712.914 Q1392.38 712.914 1389.21 708.331 Q1386.04 703.724 1386.04 694.998 Q1386.04 686.803 1389.93 681.942 Q1393.82 677.058 1400.37 677.058 Q1402.13 677.058 1403.91 677.405 Q1405.72 677.752 1407.66 678.447 Z" fill="#000000" fill-rule="nonzero" fill-opacity="1" /><path clip-path="url(#clip630)" d="M1352.92 607.867 Q1349.31 607.867 1347.48 611.432 Q1345.67 614.973 1345.67 622.103 Q1345.67 629.209 1347.48 632.774 Q1349.31 636.316 1352.92 636.316 Q1356.55 636.316 1358.36 632.774 Q1360.19 629.209 1360.19 622.103 Q1360.19 614.973 1358.36 611.432 Q1356.55 607.867 1352.92 607.867 M1352.92 604.163 Q1358.73 604.163 1361.78 608.77 Q1364.86 613.353 1364.86 622.103 Q1364.86 630.83 1361.78 635.436 Q1358.73 640.02 1352.92 640.02 Q1347.11 640.02 1344.03 635.436 Q1340.97 630.83 1340.97 622.103 Q1340.97 613.353 1344.03 608.77 Q1347.11 604.163 1352.92 604.163 Z" fill="#000000" fill-rule="nonzero" fill-opacity="1" /><path clip-path="url(#clip630)" d="M1373.08 633.469 L1377.96 633.469 L1377.96 639.348 L1373.08 639.348 L1373.08 633.469 Z" fill="#000000" fill-rule="nonzero" fill-opacity="1" /><path clip-path="url(#clip630)" d="M1388.29 638.631 L1388.29 634.371 Q1390.05 635.205 1391.85 635.645 Q1393.66 636.084 1395.39 636.084 Q1400.02 636.084 1402.45 632.983 Q1404.91 629.858 1405.26 623.515 Q1403.91 625.506 1401.85 626.571 Q1399.79 627.635 1397.29 627.635 Q1392.11 627.635 1389.07 624.51 Q1386.07 621.362 1386.07 615.922 Q1386.07 610.598 1389.21 607.381 Q1392.36 604.163 1397.59 604.163 Q1403.59 604.163 1406.74 608.77 Q1409.91 613.353 1409.91 622.103 Q1409.91 630.274 1406.02 635.158 Q1402.15 640.02 1395.6 640.02 Q1393.84 640.02 1392.04 639.672 Q1390.23 639.325 1388.29 638.631 M1397.59 623.978 Q1400.74 623.978 1402.57 621.825 Q1404.42 619.672 1404.42 615.922 Q1404.42 612.196 1402.57 610.043 Q1400.74 607.867 1397.59 607.867 Q1394.44 607.867 1392.59 610.043 Q1390.76 612.196 1390.76 615.922 Q1390.76 619.672 1392.59 621.825 Q1394.44 623.978 1397.59 623.978 Z" fill="#000000" fill-rule="nonzero" fill-opacity="1" /><path clip-path="url(#clip630)" d="M1265.64 831.559 Q1268.64 831.559 1274.44 833.072 Q1276.95 833.684 1279.23 834.522 Q1281.49 835.327 1283.68 836.518 Q1285.87 837.71 1287.45 839.095 Q1288.99 840.48 1289.96 842.283 Q1290.92 844.087 1290.92 846.084 Q1290.92 849.24 1289.06 851.108 Q1287.16 852.943 1283.9 853.523 Q1290.92 857.839 1290.92 863.604 Q1290.92 867.178 1288.38 868.853 Q1285.8 870.528 1281.49 870.528 Q1277.85 870.528 1274.08 869.562 Q1266.93 867.726 1261.94 864.151 Q1261.36 863.668 1261.36 862.959 Q1261.36 862.541 1261.49 862.347 Q1261.84 861.768 1262.42 861.768 Q1262.84 861.768 1263.26 862.09 Q1266.38 864.344 1269.06 865.826 Q1271.73 867.307 1274.44 867.984 Q1276.75 868.499 1278.72 868.499 Q1282.04 868.499 1284.1 867.082 Q1286.16 865.632 1286.16 862.766 Q1286.16 860.125 1284.52 857.806 Q1282.84 855.488 1280.04 853.781 Q1276.98 853.684 1274.08 852.943 Q1270.99 852.267 1270.99 850.689 Q1270.99 849.433 1272.7 849.433 Q1273.28 849.433 1274.44 849.691 Q1277.49 850.399 1280.23 851.687 Q1282.91 851.236 1284.55 849.562 Q1286.16 847.887 1286.16 845.214 Q1286.16 842.734 1284.35 840.544 Q1282.55 838.322 1279.91 836.905 Q1277.24 835.456 1274.08 834.65 Q1273.02 834.393 1271.67 834.393 Q1268.06 834.393 1265.84 836.905 Q1265.13 837.613 1264.19 837.613 Q1263.1 837.613 1262.1 836.712 Q1261.04 835.649 1261.04 834.393 Q1261.04 833.459 1261.62 832.879 Q1262.78 831.559 1265.64 831.559 Z" fill="#000000" fill-rule="nonzero" fill-opacity="1" /><path clip-path="url(#clip630)" d="M1240.72 788.989 Q1248.04 793.255 1255.2 795.323 Q1262.37 797.392 1269.72 797.392 Q1277.07 797.392 1284.3 795.323 Q1291.49 793.223 1298.78 788.989 L1298.78 794.082 Q1291.3 798.856 1284.07 801.243 Q1276.85 803.599 1269.72 803.599 Q1262.62 803.599 1255.43 801.243 Q1248.23 798.888 1240.72 794.082 L1240.72 788.989 Z" fill="#000000" fill-rule="nonzero" fill-opacity="1" /><path clip-path="url(#clip630)" d="M1260.01 756.97 Q1259.44 757.957 1259.18 759.134 Q1258.9 760.28 1258.9 761.681 Q1258.9 766.646 1262.14 769.319 Q1265.36 771.961 1271.41 771.961 L1290.18 771.961 L1290.18 777.85 L1254.54 777.85 L1254.54 771.961 L1260.07 771.961 Q1256.83 770.115 1255.27 767.155 Q1253.68 764.195 1253.68 759.962 Q1253.68 759.357 1253.77 758.625 Q1253.84 757.893 1254 757.002 L1260.01 756.97 Z" fill="#000000" fill-rule="nonzero" fill-opacity="1" /><path clip-path="url(#clip630)" d="M1272.26 734.626 Q1272.26 741.724 1273.89 744.461 Q1275.51 747.199 1279.43 747.199 Q1282.55 747.199 1284.39 745.162 Q1286.21 743.093 1286.21 739.56 Q1286.21 734.69 1282.77 731.762 Q1279.3 728.802 1273.57 728.802 L1272.26 728.802 L1272.26 734.626 M1269.85 722.945 L1290.18 722.945 L1290.18 728.802 L1284.77 728.802 Q1288.02 730.807 1289.58 733.799 Q1291.11 736.791 1291.11 741.119 Q1291.11 746.594 1288.05 749.84 Q1284.96 753.055 1279.81 753.055 Q1273.79 753.055 1270.74 749.045 Q1267.68 745.002 1267.68 737.013 L1267.68 728.802 L1267.11 728.802 Q1263.07 728.802 1260.87 731.475 Q1258.64 734.117 1258.64 738.923 Q1258.64 741.979 1259.37 744.875 Q1260.11 747.772 1261.57 750.445 L1256.16 750.445 Q1254.92 747.23 1254.31 744.207 Q1253.68 741.183 1253.68 738.318 Q1253.68 730.584 1257.69 726.765 Q1261.7 722.945 1269.85 722.945 Z" fill="#000000" fill-rule="nonzero" fill-opacity="1" /><path clip-path="url(#clip630)" d="M1259.95 687.425 L1240.66 687.425 L1240.66 681.568 L1290.18 681.568 L1290.18 687.425 L1284.84 687.425 Q1288.02 689.271 1289.58 692.103 Q1291.11 694.904 1291.11 698.851 Q1291.11 705.312 1285.95 709.386 Q1280.79 713.429 1272.39 713.429 Q1263.99 713.429 1258.83 709.386 Q1253.68 705.312 1253.68 698.851 Q1253.68 694.904 1255.24 692.103 Q1256.76 689.271 1259.95 687.425 M1272.39 707.381 Q1278.85 707.381 1282.55 704.739 Q1286.21 702.066 1286.21 697.419 Q1286.21 692.772 1282.55 690.098 Q1278.85 687.425 1272.39 687.425 Q1265.93 687.425 1262.27 690.098 Q1258.58 692.772 1258.58 697.419 Q1258.58 702.066 1262.27 704.739 Q1265.93 707.381 1272.39 707.381 Z" fill="#000000" fill-rule="nonzero" fill-opacity="1" /><path clip-path="url(#clip630)" d="M1242.66 659.097 L1242.66 653.686 L1296.23 670.237 L1296.23 675.648 L1242.66 659.097 Z" fill="#000000" fill-rule="nonzero" fill-opacity="1" /><path clip-path="url(#clip630)" d="M1255.59 624.818 L1261.12 624.818 Q1259.85 627.301 1259.21 629.974 Q1258.58 632.648 1258.58 635.512 Q1258.58 639.873 1259.92 642.069 Q1261.25 644.233 1263.93 644.233 Q1265.96 644.233 1267.14 642.674 Q1268.29 641.114 1269.34 636.404 L1269.78 634.398 Q1271.12 628.16 1273.57 625.55 Q1275.99 622.908 1280.35 622.908 Q1285.31 622.908 1288.21 626.855 Q1291.11 630.77 1291.11 637.645 Q1291.11 640.509 1290.53 643.629 Q1289.99 646.716 1288.88 650.153 L1282.83 650.153 Q1284.52 646.907 1285.38 643.756 Q1286.21 640.605 1286.21 637.517 Q1286.21 633.38 1284.81 631.152 Q1283.37 628.924 1280.79 628.924 Q1278.41 628.924 1277.13 630.547 Q1275.86 632.138 1274.68 637.581 L1274.21 639.618 Q1273.06 645.061 1270.71 647.48 Q1268.32 649.899 1264.18 649.899 Q1259.15 649.899 1256.41 646.334 Q1253.68 642.769 1253.68 636.213 Q1253.68 632.966 1254.15 630.101 Q1254.63 627.237 1255.59 624.818 Z" fill="#000000" fill-rule="nonzero" fill-opacity="1" /><path clip-path="url(#clip630)" d="M1240.72 614.505 L1240.72 609.413 Q1248.23 604.639 1255.43 602.283 Q1262.62 599.896 1269.72 599.896 Q1276.85 599.896 1284.07 602.283 Q1291.3 604.639 1298.78 609.413 L1298.78 614.505 Q1291.49 610.272 1284.3 608.203 Q1277.07 606.103 1269.72 606.103 Q1262.37 606.103 1255.2 608.203 Q1248.04 610.272 1240.72 614.505 Z" fill="#000000" fill-rule="nonzero" fill-opacity="1" /><polyline clip-path="url(#clip634)" style="stroke:#009af9; stroke-linecap:round; stroke-linejoin:round; stroke-width:4; stroke-opacity:1; fill:none" points="1471.57,840.752 1496.74,649.444 1521.9,569.435 1547.06,571.555 1572.22,622.041 1597.38,691.47 1622.55,759.301 1647.71,814.174 1672.87,851.891 1698.03,872.923 1723.2,880.313 1748.36,878.147 1773.52,870.497 1798.68,860.784 1823.85,851.459 1849.01,843.962 1874.17,838.861 1899.33,836.092 1924.49,835.213 1949.66,835.631 1974.82,836.764 1999.98,838.135 2025.14,839.416 2050.31,840.421 2075.47,841.088 2100.63,841.435 2125.79,841.529 2150.95,841.452 2176.12,841.286 2201.28,841.093 2226.44,840.918 2251.6,840.783 2276.77,840.696 2301.93,840.653 2327.09,840.643 "/>
<polyline clip-path="url(#clip634)" style="stroke:#e26f46; stroke-linecap:round; stroke-linejoin:round; stroke-width:3; stroke-opacity:1; fill:none" stroke-dasharray="12, 6, 2, 6" points="1471.57,840.752 1496.74,640.979 1521.9,583.693 1547.06,569.834 1572.22,599.8 1597.38,691.173 1622.55,765.55 1647.71,819.741 1672.87,872.537 1698.03,883.014 1723.2,899.791 1748.36,900.989 1773.52,881.955 1798.68,867.365 1823.85,844.34 1849.01,845.797 1874.17,848.146 1899.33,834.358 1924.49,834.911 1949.66,832.436 1974.82,846.466 1999.98,846.32 2025.14,836.143 2050.31,838.99 2075.47,839.211 2100.63,830.293 2125.79,857.394 2150.95,830.315 2176.12,840.762 2201.28,852.081 2226.44,834.936 2251.6,852.712 2276.77,843.352 2301.93,834.98 2327.09,838.655 "/>
<path clip-path="url(#clip630)" d="M2203.01 726.723 L2322.53 726.723 L2322.53 571.203 L2203.01 571.203  Z" fill="#ffffff" fill-rule="evenodd" fill-opacity="1"/>
<polyline clip-path="url(#clip630)" style="stroke:#000000; stroke-linecap:round; stroke-linejoin:round; stroke-width:4; stroke-opacity:1; fill:none" points="2203.01,726.723 2322.53,726.723 2322.53,571.203 2203.01,571.203 2203.01,726.723 "/>
<polyline clip-path="url(#clip630)" style="stroke:#009af9; stroke-linecap:round; stroke-linejoin:round; stroke-width:4; stroke-opacity:1; fill:none" points="2213.09,623.043 2273.55,623.043 "/>
<path clip-path="url(#clip630)" d="M2310.63 633.582 L2305.36 633.442 L2299.6 633.582 L2299.6 631.334 L2301.47 631.334 L2296.2 625.103 L2291.54 630.326 L2291.21 630.795 Q2291.21 631.006 2291.75 631.17 Q2292.31 631.334 2292.97 631.334 L2292.97 633.582 L2288.03 633.442 L2283.62 633.582 L2283.62 631.334 Q2285.1 631.334 2285.78 631.31 Q2286.48 631.263 2287.28 631.052 Q2288.07 630.842 2288.47 630.42 L2294.75 623.37 L2287.28 614.54 L2283.86 614.54 L2283.86 612.291 L2289.15 612.432 L2294.94 612.291 L2294.94 614.54 L2293.01 614.54 L2297.72 620.044 L2301.75 615.547 Q2301.77 615.523 2302.15 614.961 Q2301.4 614.54 2300.32 614.54 L2300.32 612.291 L2305.26 612.432 L2309.67 612.291 L2309.67 614.54 Q2307.75 614.54 2306.74 614.68 Q2305.76 614.797 2305.45 614.961 Q2305.17 615.125 2304.77 615.547 L2299.17 621.777 L2307.23 631.334 L2310.63 631.334 L2310.63 633.582 Z" fill="#000000" fill-rule="nonzero" fill-opacity="1" /><polyline clip-path="url(#clip630)" style="stroke:#e26f46; stroke-linecap:round; stroke-linejoin:round; stroke-width:3; stroke-opacity:1; fill:none" stroke-dasharray="12, 6, 2, 6" points="2213.09,674.883 2273.55,674.883 "/>
<path clip-path="url(#clip630)" d="M2306.21 663.361 L2305.8 664.033 Q2303.26 662.935 2300.09 661.18 Q2296.93 662.935 2294.39 664.033 L2293.99 663.361 Q2296.76 660.951 2300.09 659.098 Q2303.45 660.967 2306.21 663.361 Z" fill="#000000" fill-rule="nonzero" fill-opacity="1" /><path clip-path="url(#clip630)" d="M2310.63 690.427 L2305.36 690.286 L2299.6 690.427 L2299.6 688.178 L2301.47 688.178 L2296.2 681.948 L2291.54 687.171 L2291.21 687.639 Q2291.21 687.85 2291.75 688.014 Q2292.31 688.178 2292.97 688.178 L2292.97 690.427 L2288.03 690.286 L2283.62 690.427 L2283.62 688.178 Q2285.1 688.178 2285.78 688.155 Q2286.48 688.108 2287.28 687.897 Q2288.07 687.686 2288.47 687.265 L2294.75 680.214 L2287.28 671.384 L2283.86 671.384 L2283.86 669.136 L2289.15 669.276 L2294.94 669.136 L2294.94 671.384 L2293.01 671.384 L2297.72 676.888 L2301.75 672.391 Q2301.77 672.368 2302.15 671.806 Q2301.4 671.384 2300.32 671.384 L2300.32 669.136 L2305.26 669.276 L2309.67 669.136 L2309.67 671.384 Q2307.75 671.384 2306.74 671.525 Q2305.76 671.642 2305.45 671.806 Q2305.17 671.97 2304.77 672.391 L2299.17 678.622 L2307.23 688.178 L2310.63 688.178 L2310.63 690.427 Z" fill="#000000" fill-rule="nonzero" fill-opacity="1" /><path clip-path="url(#clip630)" d="M1445.91 1423.18 L2352.76 1423.18 L2352.76 1071.73 L1445.91 1071.73  Z" fill="#ffffff" fill-rule="evenodd" fill-opacity="1"/>
<defs>
  <clipPath id="clip635">
    <rect x="1445" y="1071" width="908" height="352"/>
  </clipPath>
</defs>
<polyline clip-path="url(#clip635)" style="stroke:#000000; stroke-linecap:round; stroke-linejoin:round; stroke-width:2; stroke-opacity:0.1; fill:none" points="1471.57,1423.18 1471.57,1071.73 "/>
<polyline clip-path="url(#clip635)" style="stroke:#000000; stroke-linecap:round; stroke-linejoin:round; stroke-width:2; stroke-opacity:0.1; fill:none" points="1723.2,1423.18 1723.2,1071.73 "/>
<polyline clip-path="url(#clip635)" style="stroke:#000000; stroke-linecap:round; stroke-linejoin:round; stroke-width:2; stroke-opacity:0.1; fill:none" points="1974.82,1423.18 1974.82,1071.73 "/>
<polyline clip-path="url(#clip635)" style="stroke:#000000; stroke-linecap:round; stroke-linejoin:round; stroke-width:2; stroke-opacity:0.1; fill:none" points="2226.44,1423.18 2226.44,1071.73 "/>
<polyline clip-path="url(#clip635)" style="stroke:#000000; stroke-linecap:round; stroke-linejoin:round; stroke-width:2; stroke-opacity:0.1; fill:none" points="1445.91,1391.24 2352.76,1391.24 "/>
<polyline clip-path="url(#clip635)" style="stroke:#000000; stroke-linecap:round; stroke-linejoin:round; stroke-width:2; stroke-opacity:0.1; fill:none" points="1445.91,1337.93 2352.76,1337.93 "/>
<polyline clip-path="url(#clip635)" style="stroke:#000000; stroke-linecap:round; stroke-linejoin:round; stroke-width:2; stroke-opacity:0.1; fill:none" points="1445.91,1284.63 2352.76,1284.63 "/>
<polyline clip-path="url(#clip635)" style="stroke:#000000; stroke-linecap:round; stroke-linejoin:round; stroke-width:2; stroke-opacity:0.1; fill:none" points="1445.91,1231.33 2352.76,1231.33 "/>
<polyline clip-path="url(#clip635)" style="stroke:#000000; stroke-linecap:round; stroke-linejoin:round; stroke-width:2; stroke-opacity:0.1; fill:none" points="1445.91,1178.02 2352.76,1178.02 "/>
<polyline clip-path="url(#clip635)" style="stroke:#000000; stroke-linecap:round; stroke-linejoin:round; stroke-width:2; stroke-opacity:0.1; fill:none" points="1445.91,1124.72 2352.76,1124.72 "/>
<polyline clip-path="url(#clip630)" style="stroke:#000000; stroke-linecap:round; stroke-linejoin:round; stroke-width:4; stroke-opacity:1; fill:none" points="1445.91,1423.18 2352.76,1423.18 "/>
<polyline clip-path="url(#clip630)" style="stroke:#000000; stroke-linecap:round; stroke-linejoin:round; stroke-width:4; stroke-opacity:1; fill:none" points="1471.57,1423.18 1471.57,1404.28 "/>
<polyline clip-path="url(#clip630)" style="stroke:#000000; stroke-linecap:round; stroke-linejoin:round; stroke-width:4; stroke-opacity:1; fill:none" points="1723.2,1423.18 1723.2,1404.28 "/>
<polyline clip-path="url(#clip630)" style="stroke:#000000; stroke-linecap:round; stroke-linejoin:round; stroke-width:4; stroke-opacity:1; fill:none" points="1974.82,1423.18 1974.82,1404.28 "/>
<polyline clip-path="url(#clip630)" style="stroke:#000000; stroke-linecap:round; stroke-linejoin:round; stroke-width:4; stroke-opacity:1; fill:none" points="2226.44,1423.18 2226.44,1404.28 "/>
<path clip-path="url(#clip630)" d="M1471.57 1454.1 Q1467.96 1454.1 1466.13 1457.66 Q1464.33 1461.2 1464.33 1468.33 Q1464.33 1475.44 1466.13 1479.01 Q1467.96 1482.55 1471.57 1482.55 Q1475.21 1482.55 1477.01 1479.01 Q1478.84 1475.44 1478.84 1468.33 Q1478.84 1461.2 1477.01 1457.66 Q1475.21 1454.1 1471.57 1454.1 M1471.57 1450.39 Q1477.38 1450.39 1480.44 1455 Q1483.52 1459.58 1483.52 1468.33 Q1483.52 1477.06 1480.44 1481.67 Q1477.38 1486.25 1471.57 1486.25 Q1465.76 1486.25 1462.68 1481.67 Q1459.63 1477.06 1459.63 1468.33 Q1459.63 1459.58 1462.68 1455 Q1465.76 1450.39 1471.57 1450.39 Z" fill="#000000" fill-rule="nonzero" fill-opacity="1" /><path clip-path="url(#clip630)" d="M1713.58 1481.64 L1721.22 1481.64 L1721.22 1455.28 L1712.91 1456.95 L1712.91 1452.69 L1721.17 1451.02 L1725.85 1451.02 L1725.85 1481.64 L1733.49 1481.64 L1733.49 1485.58 L1713.58 1485.58 L1713.58 1481.64 Z" fill="#000000" fill-rule="nonzero" fill-opacity="1" /><path clip-path="url(#clip630)" d="M1969.47 1481.64 L1985.79 1481.64 L1985.79 1485.58 L1963.85 1485.58 L1963.85 1481.64 Q1966.51 1478.89 1971.09 1474.26 Q1975.7 1469.61 1976.88 1468.27 Q1979.12 1465.74 1980 1464.01 Q1980.91 1462.25 1980.91 1460.56 Q1980.91 1457.8 1978.96 1456.07 Q1977.04 1454.33 1973.94 1454.33 Q1971.74 1454.33 1969.29 1455.09 Q1966.86 1455.86 1964.08 1457.41 L1964.08 1452.69 Q1966.9 1451.55 1969.36 1450.97 Q1971.81 1450.39 1973.85 1450.39 Q1979.22 1450.39 1982.41 1453.08 Q1985.61 1455.77 1985.61 1460.26 Q1985.61 1462.39 1984.8 1464.31 Q1984.01 1466.2 1981.9 1468.8 Q1981.32 1469.47 1978.22 1472.69 Q1975.12 1475.88 1969.47 1481.64 Z" fill="#000000" fill-rule="nonzero" fill-opacity="1" /><path clip-path="url(#clip630)" d="M2230.69 1466.95 Q2234.05 1467.66 2235.92 1469.93 Q2237.82 1472.2 2237.82 1475.53 Q2237.82 1480.65 2234.3 1483.45 Q2230.78 1486.25 2224.3 1486.25 Q2222.12 1486.25 2219.81 1485.81 Q2217.52 1485.39 2215.06 1484.54 L2215.06 1480.02 Q2217.01 1481.16 2219.32 1481.74 Q2221.64 1482.32 2224.16 1482.32 Q2228.56 1482.32 2230.85 1480.58 Q2233.17 1478.84 2233.17 1475.53 Q2233.17 1472.48 2231.01 1470.77 Q2228.88 1469.03 2225.06 1469.03 L2221.04 1469.03 L2221.04 1465.19 L2225.25 1465.19 Q2228.7 1465.19 2230.53 1463.82 Q2232.36 1462.43 2232.36 1459.84 Q2232.36 1457.18 2230.46 1455.77 Q2228.58 1454.33 2225.06 1454.33 Q2223.14 1454.33 2220.94 1454.75 Q2218.74 1455.16 2216.11 1456.04 L2216.11 1451.88 Q2218.77 1451.14 2221.08 1450.77 Q2223.42 1450.39 2225.48 1450.39 Q2230.8 1450.39 2233.91 1452.83 Q2237.01 1455.23 2237.01 1459.35 Q2237.01 1462.22 2235.36 1464.21 Q2233.72 1466.18 2230.69 1466.95 Z" fill="#000000" fill-rule="nonzero" fill-opacity="1" /><path clip-path="url(#clip630)" d="M1769.5 1520.52 L1809.7 1520.52 L1809.7 1525.93 L1792.83 1525.93 L1792.83 1568.04 L1786.37 1568.04 L1786.37 1525.93 L1769.5 1525.93 L1769.5 1520.52 Z" fill="#000000" fill-rule="nonzero" fill-opacity="1" /><path clip-path="url(#clip630)" d="M1813.65 1532.4 L1819.51 1532.4 L1819.51 1568.04 L1813.65 1568.04 L1813.65 1532.4 M1813.65 1518.52 L1819.51 1518.52 L1819.51 1525.93 L1813.65 1525.93 L1813.65 1518.52 Z" fill="#000000" fill-rule="nonzero" fill-opacity="1" /><path clip-path="url(#clip630)" d="M1859.51 1539.24 Q1861.71 1535.29 1864.77 1533.41 Q1867.82 1531.54 1871.96 1531.54 Q1877.53 1531.54 1880.55 1535.45 Q1883.58 1539.33 1883.58 1546.53 L1883.58 1568.04 L1877.69 1568.04 L1877.69 1546.72 Q1877.69 1541.59 1875.87 1539.11 Q1874.06 1536.63 1870.34 1536.63 Q1865.78 1536.63 1863.14 1539.65 Q1860.5 1542.68 1860.5 1547.9 L1860.5 1568.04 L1854.61 1568.04 L1854.61 1546.72 Q1854.61 1541.56 1852.8 1539.11 Q1850.98 1536.63 1847.2 1536.63 Q1842.71 1536.63 1840.07 1539.68 Q1837.43 1542.71 1837.43 1547.9 L1837.43 1568.04 L1831.54 1568.04 L1831.54 1532.4 L1837.43 1532.4 L1837.43 1537.93 Q1839.43 1534.66 1842.23 1533.1 Q1845.03 1531.54 1848.88 1531.54 Q1852.77 1531.54 1855.47 1533.51 Q1858.21 1535.48 1859.51 1539.24 Z" fill="#000000" fill-rule="nonzero" fill-opacity="1" /><path clip-path="url(#clip630)" d="M1925.75 1548.76 L1925.75 1551.62 L1898.82 1551.62 Q1899.2 1557.67 1902.45 1560.85 Q1905.73 1564 1911.55 1564 Q1914.93 1564 1918.08 1563.17 Q1921.26 1562.35 1924.38 1560.69 L1924.38 1566.23 Q1921.23 1567.57 1917.92 1568.27 Q1914.61 1568.97 1911.2 1568.97 Q1902.67 1568.97 1897.68 1564 Q1892.71 1559.04 1892.71 1550.57 Q1892.71 1541.82 1897.42 1536.69 Q1902.16 1531.54 1910.19 1531.54 Q1917.38 1531.54 1921.55 1536.18 Q1925.75 1540.8 1925.75 1548.76 M1919.89 1547.04 Q1919.83 1542.23 1917.19 1539.37 Q1914.58 1536.5 1910.25 1536.5 Q1905.35 1536.5 1902.39 1539.27 Q1899.46 1542.04 1899.01 1547.07 L1919.89 1547.04 Z" fill="#000000" fill-rule="nonzero" fill-opacity="1" /><path clip-path="url(#clip630)" d="M1970.15 1518.58 Q1965.89 1525.9 1963.82 1533.06 Q1961.75 1540.23 1961.75 1547.58 Q1961.75 1554.93 1963.82 1562.16 Q1965.92 1569.35 1970.15 1576.64 L1965.06 1576.64 Q1960.28 1569.16 1957.9 1561.93 Q1955.54 1554.71 1955.54 1547.58 Q1955.54 1540.48 1957.9 1533.29 Q1960.25 1526.09 1965.06 1518.58 L1970.15 1518.58 Z" fill="#000000" fill-rule="nonzero" fill-opacity="1" /><path clip-path="url(#clip630)" d="M2004.24 1533.45 L2004.24 1538.98 Q2001.76 1537.71 1999.08 1537.07 Q1996.41 1536.44 1993.54 1536.44 Q1989.18 1536.44 1986.99 1537.77 Q1984.82 1539.11 1984.82 1541.79 Q1984.82 1543.82 1986.38 1545 Q1987.94 1546.15 1992.65 1547.2 L1994.66 1547.64 Q2000.9 1548.98 2003.51 1551.43 Q2006.15 1553.85 2006.15 1558.21 Q2006.15 1563.17 2002.2 1566.07 Q1998.29 1568.97 1991.41 1568.97 Q1988.55 1568.97 1985.43 1568.39 Q1982.34 1567.85 1978.9 1566.74 L1978.9 1560.69 Q1982.15 1562.38 1985.3 1563.24 Q1988.45 1564.07 1991.54 1564.07 Q1995.68 1564.07 1997.9 1562.66 Q2000.13 1561.23 2000.13 1558.65 Q2000.13 1556.27 1998.51 1554.99 Q1996.92 1553.72 1991.48 1552.54 L1989.44 1552.07 Q1984 1550.92 1981.58 1548.56 Q1979.16 1546.18 1979.16 1542.04 Q1979.16 1537.01 1982.72 1534.27 Q1986.29 1531.54 1992.84 1531.54 Q1996.09 1531.54 1998.96 1532.01 Q2001.82 1532.49 2004.24 1533.45 Z" fill="#000000" fill-rule="nonzero" fill-opacity="1" /><path clip-path="url(#clip630)" d="M2014.55 1518.58 L2019.64 1518.58 Q2024.42 1526.09 2026.77 1533.29 Q2029.16 1540.48 2029.16 1547.58 Q2029.16 1554.71 2026.77 1561.93 Q2024.42 1569.16 2019.64 1576.64 L2014.55 1576.64 Q2018.78 1569.35 2020.85 1562.16 Q2022.95 1554.93 2022.95 1547.58 Q2022.95 1540.23 2020.85 1533.06 Q2018.78 1525.9 2014.55 1518.58 Z" fill="#000000" fill-rule="nonzero" fill-opacity="1" /><polyline clip-path="url(#clip630)" style="stroke:#000000; stroke-linecap:round; stroke-linejoin:round; stroke-width:4; stroke-opacity:1; fill:none" points="1445.91,1423.18 1445.91,1071.73 "/>
<polyline clip-path="url(#clip630)" style="stroke:#000000; stroke-linecap:round; stroke-linejoin:round; stroke-width:4; stroke-opacity:1; fill:none" points="1445.91,1391.24 1464.81,1391.24 "/>
<polyline clip-path="url(#clip630)" style="stroke:#000000; stroke-linecap:round; stroke-linejoin:round; stroke-width:4; stroke-opacity:1; fill:none" points="1445.91,1337.93 1464.81,1337.93 "/>
<polyline clip-path="url(#clip630)" style="stroke:#000000; stroke-linecap:round; stroke-linejoin:round; stroke-width:4; stroke-opacity:1; fill:none" points="1445.91,1284.63 1464.81,1284.63 "/>
<polyline clip-path="url(#clip630)" style="stroke:#000000; stroke-linecap:round; stroke-linejoin:round; stroke-width:4; stroke-opacity:1; fill:none" points="1445.91,1231.33 1464.81,1231.33 "/>
<polyline clip-path="url(#clip630)" style="stroke:#000000; stroke-linecap:round; stroke-linejoin:round; stroke-width:4; stroke-opacity:1; fill:none" points="1445.91,1178.02 1464.81,1178.02 "/>
<polyline clip-path="url(#clip630)" style="stroke:#000000; stroke-linecap:round; stroke-linejoin:round; stroke-width:4; stroke-opacity:1; fill:none" points="1445.91,1124.72 1464.81,1124.72 "/>
<path clip-path="url(#clip630)" d="M1273.8 1391.69 L1303.47 1391.69 L1303.47 1395.62 L1273.8 1395.62 L1273.8 1391.69 Z" fill="#000000" fill-rule="nonzero" fill-opacity="1" /><path clip-path="url(#clip630)" d="M1323.57 1377.04 Q1319.95 1377.04 1318.13 1380.6 Q1316.32 1384.14 1316.32 1391.27 Q1316.32 1398.38 1318.13 1401.94 Q1319.95 1405.48 1323.57 1405.48 Q1327.2 1405.48 1329.01 1401.94 Q1330.83 1398.38 1330.83 1391.27 Q1330.83 1384.14 1329.01 1380.6 Q1327.2 1377.04 1323.57 1377.04 M1323.57 1373.33 Q1329.38 1373.33 1332.43 1377.94 Q1335.51 1382.52 1335.51 1391.27 Q1335.51 1400 1332.43 1404.6 Q1329.38 1409.19 1323.57 1409.19 Q1317.76 1409.19 1314.68 1404.6 Q1311.62 1400 1311.62 1391.27 Q1311.62 1382.52 1314.68 1377.94 Q1317.76 1373.33 1323.57 1373.33 Z" fill="#000000" fill-rule="nonzero" fill-opacity="1" /><path clip-path="url(#clip630)" d="M1343.73 1402.64 L1348.61 1402.64 L1348.61 1408.52 L1343.73 1408.52 L1343.73 1402.64 Z" fill="#000000" fill-rule="nonzero" fill-opacity="1" /><path clip-path="url(#clip630)" d="M1368.8 1377.04 Q1365.19 1377.04 1363.36 1380.6 Q1361.55 1384.14 1361.55 1391.27 Q1361.55 1398.38 1363.36 1401.94 Q1365.19 1405.48 1368.8 1405.48 Q1372.43 1405.48 1374.24 1401.94 Q1376.07 1398.38 1376.07 1391.27 Q1376.07 1384.14 1374.24 1380.6 Q1372.43 1377.04 1368.8 1377.04 M1368.8 1373.33 Q1374.61 1373.33 1377.66 1377.94 Q1380.74 1382.52 1380.74 1391.27 Q1380.74 1400 1377.66 1404.6 Q1374.61 1409.19 1368.8 1409.19 Q1362.99 1409.19 1359.91 1404.6 Q1356.85 1400 1356.85 1391.27 Q1356.85 1382.52 1359.91 1377.94 Q1362.99 1373.33 1368.8 1373.33 Z" fill="#000000" fill-rule="nonzero" fill-opacity="1" /><path clip-path="url(#clip630)" d="M1389.01 1373.96 L1407.36 1373.96 L1407.36 1377.89 L1393.29 1377.89 L1393.29 1386.36 Q1394.31 1386.02 1395.32 1385.85 Q1396.34 1385.67 1397.36 1385.67 Q1403.15 1385.67 1406.53 1388.84 Q1409.91 1392.01 1409.91 1397.43 Q1409.91 1403.01 1406.44 1406.11 Q1402.96 1409.19 1396.64 1409.19 Q1394.47 1409.19 1392.2 1408.82 Q1389.95 1408.45 1387.55 1407.71 L1387.55 1403.01 Q1389.63 1404.14 1391.85 1404.7 Q1394.07 1405.25 1396.55 1405.25 Q1400.56 1405.25 1402.89 1403.15 Q1405.23 1401.04 1405.23 1397.43 Q1405.23 1393.82 1402.89 1391.71 Q1400.56 1389.6 1396.55 1389.6 Q1394.68 1389.6 1392.8 1390.02 Q1390.95 1390.44 1389.01 1391.32 L1389.01 1373.96 Z" fill="#000000" fill-rule="nonzero" fill-opacity="1" /><path clip-path="url(#clip630)" d="M1272.32 1338.38 L1301.99 1338.38 L1301.99 1342.32 L1272.32 1342.32 L1272.32 1338.38 Z" fill="#000000" fill-rule="nonzero" fill-opacity="1" /><path clip-path="url(#clip630)" d="M1322.08 1323.73 Q1318.47 1323.73 1316.64 1327.3 Q1314.84 1330.84 1314.84 1337.97 Q1314.84 1345.07 1316.64 1348.64 Q1318.47 1352.18 1322.08 1352.18 Q1325.72 1352.18 1327.52 1348.64 Q1329.35 1345.07 1329.35 1337.97 Q1329.35 1330.84 1327.52 1327.3 Q1325.72 1323.73 1322.08 1323.73 M1322.08 1320.03 Q1327.89 1320.03 1330.95 1324.63 Q1334.03 1329.22 1334.03 1337.97 Q1334.03 1346.69 1330.95 1351.3 Q1327.89 1355.88 1322.08 1355.88 Q1316.27 1355.88 1313.2 1351.3 Q1310.14 1346.69 1310.14 1337.97 Q1310.14 1329.22 1313.2 1324.63 Q1316.27 1320.03 1322.08 1320.03 Z" fill="#000000" fill-rule="nonzero" fill-opacity="1" /><path clip-path="url(#clip630)" d="M1342.25 1349.33 L1347.13 1349.33 L1347.13 1355.21 L1342.25 1355.21 L1342.25 1349.33 Z" fill="#000000" fill-rule="nonzero" fill-opacity="1" /><path clip-path="url(#clip630)" d="M1367.32 1323.73 Q1363.7 1323.73 1361.88 1327.3 Q1360.07 1330.84 1360.07 1337.97 Q1360.07 1345.07 1361.88 1348.64 Q1363.7 1352.18 1367.32 1352.18 Q1370.95 1352.18 1372.76 1348.64 Q1374.58 1345.07 1374.58 1337.97 Q1374.58 1330.84 1372.76 1327.3 Q1370.95 1323.73 1367.32 1323.73 M1367.32 1320.03 Q1373.13 1320.03 1376.18 1324.63 Q1379.26 1329.22 1379.26 1337.97 Q1379.26 1346.69 1376.18 1351.3 Q1373.13 1355.88 1367.32 1355.88 Q1361.51 1355.88 1358.43 1351.3 Q1355.37 1346.69 1355.37 1337.97 Q1355.37 1329.22 1358.43 1324.63 Q1361.51 1320.03 1367.32 1320.03 Z" fill="#000000" fill-rule="nonzero" fill-opacity="1" /><path clip-path="url(#clip630)" d="M1400.32 1324.73 L1388.52 1343.18 L1400.32 1343.18 L1400.32 1324.73 M1399.1 1320.65 L1404.98 1320.65 L1404.98 1343.18 L1409.91 1343.18 L1409.91 1347.07 L1404.98 1347.07 L1404.98 1355.21 L1400.32 1355.21 L1400.32 1347.07 L1384.72 1347.07 L1384.72 1342.55 L1399.1 1320.65 Z" fill="#000000" fill-rule="nonzero" fill-opacity="1" /><path clip-path="url(#clip630)" d="M1273.45 1285.08 L1303.13 1285.08 L1303.13 1289.02 L1273.45 1289.02 L1273.45 1285.08 Z" fill="#000000" fill-rule="nonzero" fill-opacity="1" /><path clip-path="url(#clip630)" d="M1323.22 1270.43 Q1319.61 1270.43 1317.78 1273.99 Q1315.97 1277.53 1315.97 1284.66 Q1315.97 1291.77 1317.78 1295.34 Q1319.61 1298.88 1323.22 1298.88 Q1326.85 1298.88 1328.66 1295.34 Q1330.49 1291.77 1330.49 1284.66 Q1330.49 1277.53 1328.66 1273.99 Q1326.85 1270.43 1323.22 1270.43 M1323.22 1266.72 Q1329.03 1266.72 1332.08 1271.33 Q1335.16 1275.91 1335.16 1284.66 Q1335.16 1293.39 1332.08 1298 Q1329.03 1302.58 1323.22 1302.58 Q1317.41 1302.58 1314.33 1298 Q1311.27 1293.39 1311.27 1284.66 Q1311.27 1275.91 1314.33 1271.33 Q1317.41 1266.72 1323.22 1266.72 Z" fill="#000000" fill-rule="nonzero" fill-opacity="1" /><path clip-path="url(#clip630)" d="M1343.38 1296.03 L1348.26 1296.03 L1348.26 1301.91 L1343.38 1301.91 L1343.38 1296.03 Z" fill="#000000" fill-rule="nonzero" fill-opacity="1" /><path clip-path="url(#clip630)" d="M1368.45 1270.43 Q1364.84 1270.43 1363.01 1273.99 Q1361.2 1277.53 1361.2 1284.66 Q1361.2 1291.77 1363.01 1295.34 Q1364.84 1298.88 1368.45 1298.88 Q1372.08 1298.88 1373.89 1295.34 Q1375.72 1291.77 1375.72 1284.66 Q1375.72 1277.53 1373.89 1273.99 Q1372.08 1270.43 1368.45 1270.43 M1368.45 1266.72 Q1374.26 1266.72 1377.32 1271.33 Q1380.39 1275.91 1380.39 1284.66 Q1380.39 1293.39 1377.32 1298 Q1374.26 1302.58 1368.45 1302.58 Q1362.64 1302.58 1359.56 1298 Q1356.51 1293.39 1356.51 1284.66 Q1356.51 1275.91 1359.56 1271.33 Q1362.64 1266.72 1368.45 1266.72 Z" fill="#000000" fill-rule="nonzero" fill-opacity="1" /><path clip-path="url(#clip630)" d="M1402.78 1283.28 Q1406.13 1283.99 1408.01 1286.26 Q1409.91 1288.53 1409.91 1291.86 Q1409.91 1296.98 1406.39 1299.78 Q1402.87 1302.58 1396.39 1302.58 Q1394.21 1302.58 1391.9 1302.14 Q1389.61 1301.72 1387.15 1300.87 L1387.15 1296.35 Q1389.1 1297.49 1391.41 1298.07 Q1393.73 1298.65 1396.25 1298.65 Q1400.65 1298.65 1402.94 1296.91 Q1405.26 1295.17 1405.26 1291.86 Q1405.26 1288.81 1403.1 1287.1 Q1400.97 1285.36 1397.15 1285.36 L1393.13 1285.36 L1393.13 1281.52 L1397.34 1281.52 Q1400.79 1281.52 1402.62 1280.15 Q1404.44 1278.76 1404.44 1276.17 Q1404.44 1273.51 1402.55 1272.1 Q1400.67 1270.66 1397.15 1270.66 Q1395.23 1270.66 1393.03 1271.08 Q1390.83 1271.49 1388.19 1272.37 L1388.19 1268.21 Q1390.86 1267.47 1393.17 1267.1 Q1395.51 1266.72 1397.57 1266.72 Q1402.89 1266.72 1406 1269.16 Q1409.1 1271.56 1409.1 1275.68 Q1409.1 1278.55 1407.45 1280.54 Q1405.81 1282.51 1402.78 1283.28 Z" fill="#000000" fill-rule="nonzero" fill-opacity="1" /><path clip-path="url(#clip630)" d="M1274.4 1231.78 L1304.08 1231.78 L1304.08 1235.71 L1274.4 1235.71 L1274.4 1231.78 Z" fill="#000000" fill-rule="nonzero" fill-opacity="1" /><path clip-path="url(#clip630)" d="M1324.17 1217.12 Q1320.56 1217.12 1318.73 1220.69 Q1316.92 1224.23 1316.92 1231.36 Q1316.92 1238.47 1318.73 1242.03 Q1320.56 1245.57 1324.17 1245.57 Q1327.8 1245.57 1329.61 1242.03 Q1331.44 1238.47 1331.44 1231.36 Q1331.44 1224.23 1329.61 1220.69 Q1327.8 1217.12 1324.17 1217.12 M1324.17 1213.42 Q1329.98 1213.42 1333.03 1218.03 Q1336.11 1222.61 1336.11 1231.36 Q1336.11 1240.09 1333.03 1244.69 Q1329.98 1249.28 1324.17 1249.28 Q1318.36 1249.28 1315.28 1244.69 Q1312.22 1240.09 1312.22 1231.36 Q1312.22 1222.61 1315.28 1218.03 Q1318.36 1213.42 1324.17 1213.42 Z" fill="#000000" fill-rule="nonzero" fill-opacity="1" /><path clip-path="url(#clip630)" d="M1344.33 1242.73 L1349.21 1242.73 L1349.21 1248.61 L1344.33 1248.61 L1344.33 1242.73 Z" fill="#000000" fill-rule="nonzero" fill-opacity="1" /><path clip-path="url(#clip630)" d="M1369.4 1217.12 Q1365.79 1217.12 1363.96 1220.69 Q1362.15 1224.23 1362.15 1231.36 Q1362.15 1238.47 1363.96 1242.03 Q1365.79 1245.57 1369.4 1245.57 Q1373.03 1245.57 1374.84 1242.03 Q1376.67 1238.47 1376.67 1231.36 Q1376.67 1224.23 1374.84 1220.69 Q1373.03 1217.12 1369.4 1217.12 M1369.4 1213.42 Q1375.21 1213.42 1378.26 1218.03 Q1381.34 1222.61 1381.34 1231.36 Q1381.34 1240.09 1378.26 1244.69 Q1375.21 1249.28 1369.4 1249.28 Q1363.59 1249.28 1360.51 1244.69 Q1357.45 1240.09 1357.45 1231.36 Q1357.45 1222.61 1360.51 1218.03 Q1363.59 1213.42 1369.4 1213.42 Z" fill="#000000" fill-rule="nonzero" fill-opacity="1" /><path clip-path="url(#clip630)" d="M1393.59 1244.67 L1409.91 1244.67 L1409.91 1248.61 L1387.96 1248.61 L1387.96 1244.67 Q1390.63 1241.92 1395.21 1237.29 Q1399.82 1232.63 1401 1231.29 Q1403.24 1228.77 1404.12 1227.03 Q1405.02 1225.27 1405.02 1223.58 Q1405.02 1220.83 1403.08 1219.09 Q1401.16 1217.36 1398.06 1217.36 Q1395.86 1217.36 1393.4 1218.12 Q1390.97 1218.88 1388.19 1220.44 L1388.19 1215.71 Q1391.02 1214.58 1393.47 1214 Q1395.93 1213.42 1397.96 1213.42 Q1403.33 1213.42 1406.53 1216.11 Q1409.72 1218.79 1409.72 1223.28 Q1409.72 1225.41 1408.91 1227.33 Q1408.13 1229.23 1406.02 1231.82 Q1405.44 1232.5 1402.34 1235.71 Q1399.24 1238.91 1393.59 1244.67 Z" fill="#000000" fill-rule="nonzero" fill-opacity="1" /><path clip-path="url(#clip630)" d="M1274.03 1178.47 L1303.7 1178.47 L1303.7 1182.41 L1274.03 1182.41 L1274.03 1178.47 Z" fill="#000000" fill-rule="nonzero" fill-opacity="1" /><path clip-path="url(#clip630)" d="M1323.8 1163.82 Q1320.19 1163.82 1318.36 1167.39 Q1316.55 1170.93 1316.55 1178.06 Q1316.55 1185.16 1318.36 1188.73 Q1320.19 1192.27 1323.8 1192.27 Q1327.43 1192.27 1329.24 1188.73 Q1331.07 1185.16 1331.07 1178.06 Q1331.07 1170.93 1329.24 1167.39 Q1327.43 1163.82 1323.8 1163.82 M1323.8 1160.12 Q1329.61 1160.12 1332.66 1164.72 Q1335.74 1169.31 1335.74 1178.06 Q1335.74 1186.78 1332.66 1191.39 Q1329.61 1195.97 1323.8 1195.97 Q1317.99 1195.97 1314.91 1191.39 Q1311.85 1186.78 1311.85 1178.06 Q1311.85 1169.31 1314.91 1164.72 Q1317.99 1160.12 1323.8 1160.12 Z" fill="#000000" fill-rule="nonzero" fill-opacity="1" /><path clip-path="url(#clip630)" d="M1343.96 1189.42 L1348.84 1189.42 L1348.84 1195.3 L1343.96 1195.3 L1343.96 1189.42 Z" fill="#000000" fill-rule="nonzero" fill-opacity="1" /><path clip-path="url(#clip630)" d="M1369.03 1163.82 Q1365.42 1163.82 1363.59 1167.39 Q1361.78 1170.93 1361.78 1178.06 Q1361.78 1185.16 1363.59 1188.73 Q1365.42 1192.27 1369.03 1192.27 Q1372.66 1192.27 1374.47 1188.73 Q1376.3 1185.16 1376.3 1178.06 Q1376.3 1170.93 1374.47 1167.39 Q1372.66 1163.82 1369.03 1163.82 M1369.03 1160.12 Q1374.84 1160.12 1377.89 1164.72 Q1380.97 1169.31 1380.97 1178.06 Q1380.97 1186.78 1377.89 1191.39 Q1374.84 1195.97 1369.03 1195.97 Q1363.22 1195.97 1360.14 1191.39 Q1357.08 1186.78 1357.08 1178.06 Q1357.08 1169.31 1360.14 1164.72 Q1363.22 1160.12 1369.03 1160.12 Z" fill="#000000" fill-rule="nonzero" fill-opacity="1" /><path clip-path="url(#clip630)" d="M1390 1191.37 L1397.64 1191.37 L1397.64 1165 L1389.33 1166.67 L1389.33 1162.41 L1397.59 1160.74 L1402.27 1160.74 L1402.27 1191.37 L1409.91 1191.37 L1409.91 1195.3 L1390 1195.3 L1390 1191.37 Z" fill="#000000" fill-rule="nonzero" fill-opacity="1" /><path clip-path="url(#clip630)" d="M1322.57 1110.52 Q1318.96 1110.52 1317.13 1114.08 Q1315.32 1117.62 1315.32 1124.75 Q1315.32 1131.86 1317.13 1135.43 Q1318.96 1138.97 1322.57 1138.97 Q1326.2 1138.97 1328.01 1135.43 Q1329.84 1131.86 1329.84 1124.75 Q1329.84 1117.62 1328.01 1114.08 Q1326.2 1110.52 1322.57 1110.52 M1322.57 1106.81 Q1328.38 1106.81 1331.44 1111.42 Q1334.51 1116 1334.51 1124.75 Q1334.51 1133.48 1331.44 1138.09 Q1328.38 1142.67 1322.57 1142.67 Q1316.76 1142.67 1313.68 1138.09 Q1310.63 1133.48 1310.63 1124.75 Q1310.63 1116 1313.68 1111.42 Q1316.76 1106.81 1322.57 1106.81 Z" fill="#000000" fill-rule="nonzero" fill-opacity="1" /><path clip-path="url(#clip630)" d="M1342.73 1136.12 L1347.62 1136.12 L1347.62 1142 L1342.73 1142 L1342.73 1136.12 Z" fill="#000000" fill-rule="nonzero" fill-opacity="1" /><path clip-path="url(#clip630)" d="M1367.8 1110.52 Q1364.19 1110.52 1362.36 1114.08 Q1360.56 1117.62 1360.56 1124.75 Q1360.56 1131.86 1362.36 1135.43 Q1364.19 1138.97 1367.8 1138.97 Q1371.44 1138.97 1373.24 1135.43 Q1375.07 1131.86 1375.07 1124.75 Q1375.07 1117.62 1373.24 1114.08 Q1371.44 1110.52 1367.8 1110.52 M1367.8 1106.81 Q1373.61 1106.81 1376.67 1111.42 Q1379.75 1116 1379.75 1124.75 Q1379.75 1133.48 1376.67 1138.09 Q1373.61 1142.67 1367.8 1142.67 Q1361.99 1142.67 1358.91 1138.09 Q1355.86 1133.48 1355.86 1124.75 Q1355.86 1116 1358.91 1111.42 Q1361.99 1106.81 1367.8 1106.81 Z" fill="#000000" fill-rule="nonzero" fill-opacity="1" /><path clip-path="url(#clip630)" d="M1397.96 1110.52 Q1394.35 1110.52 1392.52 1114.08 Q1390.72 1117.62 1390.72 1124.75 Q1390.72 1131.86 1392.52 1135.43 Q1394.35 1138.97 1397.96 1138.97 Q1401.6 1138.97 1403.4 1135.43 Q1405.23 1131.86 1405.23 1124.75 Q1405.23 1117.62 1403.4 1114.08 Q1401.6 1110.52 1397.96 1110.52 M1397.96 1106.81 Q1403.77 1106.81 1406.83 1111.42 Q1409.91 1116 1409.91 1124.75 Q1409.91 1133.48 1406.83 1138.09 Q1403.77 1142.67 1397.96 1142.67 Q1392.15 1142.67 1389.07 1138.09 Q1386.02 1133.48 1386.02 1124.75 Q1386.02 1116 1389.07 1111.42 Q1392.15 1106.81 1397.96 1106.81 Z" fill="#000000" fill-rule="nonzero" fill-opacity="1" /><path clip-path="url(#clip630)" d="M1182.01 1252.88 L1182.94 1253.44 Q1181.43 1256.93 1179.02 1261.28 Q1181.43 1265.63 1182.94 1269.13 L1182.01 1269.67 Q1178.7 1265.86 1176.15 1261.28 Q1178.72 1256.66 1182.01 1252.88 Z" fill="#000000" fill-rule="nonzero" fill-opacity="1" /><path clip-path="url(#clip630)" d="M1194.31 1249.71 Q1196.12 1249.71 1197.15 1250.84 Q1198.14 1251.97 1198.14 1253.26 Q1198.14 1254.48 1197.44 1255.12 Q1196.73 1255.77 1195.83 1255.77 Q1194.6 1255.77 1193.54 1254.87 Q1192.48 1253.96 1192.25 1252.61 Q1191.41 1253.93 1191.41 1255.9 Q1191.41 1257.18 1192.09 1258.31 Q1192.77 1259.41 1193.64 1260.08 Q1194.51 1260.73 1195.76 1261.31 Q1196.99 1261.85 1197.73 1262.08 Q1198.43 1262.27 1199.21 1262.43 L1208.23 1264.69 Q1212.51 1265.78 1214.02 1265.78 Q1215.89 1265.78 1217.15 1264.88 Q1218.37 1263.98 1218.37 1262.18 Q1218.37 1261.47 1218.18 1260.66 Q1217.95 1259.86 1217.37 1258.83 Q1216.76 1257.76 1215.86 1256.83 Q1214.92 1255.86 1213.35 1254.93 Q1211.77 1254 1209.74 1253.38 Q1209.03 1253.19 1209.03 1252.55 Q1209.03 1251.74 1209.67 1251.74 Q1210.22 1251.74 1211.38 1252.19 Q1212.51 1252.61 1213.99 1253.55 Q1215.44 1254.45 1216.76 1255.64 Q1218.05 1256.83 1218.95 1258.6 Q1219.85 1260.37 1219.85 1262.31 Q1219.85 1265.08 1218.37 1266.91 Q1216.89 1268.75 1214.83 1269.42 Q1215.12 1269.58 1215.5 1269.81 Q1215.89 1270.03 1216.76 1270.71 Q1217.6 1271.36 1218.24 1272.1 Q1218.85 1272.84 1219.34 1274 Q1219.85 1275.12 1219.85 1276.35 Q1219.85 1277.89 1219.4 1279.28 Q1218.95 1280.63 1217.92 1281.6 Q1216.89 1282.56 1215.47 1282.56 Q1213.89 1282.56 1212.8 1281.5 Q1211.67 1280.41 1211.67 1278.92 Q1211.67 1277.99 1212.22 1277.25 Q1212.77 1276.48 1213.96 1276.48 Q1215.28 1276.48 1216.28 1277.38 Q1217.27 1278.28 1217.53 1279.57 Q1218.37 1278.25 1218.37 1276.28 Q1218.37 1274.16 1216.5 1272.48 Q1214.63 1270.81 1211.51 1270 Q1204.01 1268.01 1200.66 1267.23 Q1197.28 1266.46 1195.83 1266.46 Q1194.47 1266.46 1193.54 1266.81 Q1192.61 1267.17 1192.19 1267.78 Q1191.74 1268.36 1191.57 1268.91 Q1191.41 1269.42 1191.41 1270 Q1191.41 1270.97 1191.8 1272.06 Q1192.19 1273.13 1193.09 1274.41 Q1193.96 1275.67 1195.76 1276.86 Q1197.56 1278.05 1200.04 1278.86 Q1200.79 1279.02 1200.79 1279.73 Q1200.75 1280.5 1200.11 1280.5 Q1199.56 1280.5 1198.43 1280.08 Q1197.28 1279.63 1195.83 1278.73 Q1194.38 1277.8 1193.09 1276.6 Q1191.77 1275.38 1190.87 1273.61 Q1189.96 1271.81 1189.96 1269.87 Q1189.96 1269 1190.16 1268.17 Q1190.32 1267.3 1190.8 1266.27 Q1191.28 1265.2 1192.35 1264.27 Q1193.41 1263.34 1194.96 1262.76 Q1194.22 1262.37 1193.51 1261.85 Q1192.8 1261.31 1191.93 1260.47 Q1191.03 1259.6 1190.51 1258.41 Q1189.96 1257.18 1189.96 1255.83 Q1189.96 1254.51 1190.32 1253.22 Q1190.64 1251.94 1191.7 1250.84 Q1192.73 1249.71 1194.31 1249.71 Z" fill="#000000" fill-rule="nonzero" fill-opacity="1" /><path clip-path="url(#clip630)" d="M1231.9 1242.25 Q1230.52 1242.25 1229.87 1241.46 Q1229.22 1240.68 1229.22 1239.66 Q1229.22 1238.6 1229.92 1237.86 Q1230.59 1237.09 1231.79 1237.09 Q1233.07 1237.09 1233.79 1237.99 Q1234.51 1238.87 1234.33 1240.13 Q1236.18 1239.03 1237.02 1237 Q1237.85 1234.95 1237.85 1233.06 Q1237.85 1231.07 1236.14 1229.47 Q1234.42 1227.85 1230.23 1227.85 Q1226.67 1227.85 1224.62 1229.25 Q1222.57 1230.62 1222.57 1233.35 L1222.57 1235.38 Q1222.57 1236.08 1222.5 1236.28 Q1222.43 1236.48 1222.05 1236.48 Q1221.6 1236.48 1221.51 1235.78 Q1221.51 1235.08 1221.37 1233.98 Q1221.28 1231.3 1218.96 1229.88 Q1216.79 1228.59 1213.71 1228.59 Q1210.89 1228.59 1209.72 1229.94 Q1208.52 1231.27 1208.52 1233.01 Q1208.52 1234.63 1209.2 1236.41 Q1209.87 1238.2 1211.38 1239.17 Q1211.38 1236.3 1213.71 1236.3 Q1214.72 1236.3 1215.4 1236.96 Q1216.05 1237.59 1216.05 1238.65 Q1216.05 1239.66 1215.42 1240.34 Q1214.77 1241.01 1213.66 1241.01 Q1211.02 1241.01 1209.2 1238.67 Q1207.37 1236.3 1207.37 1232.83 Q1207.37 1229.4 1209.17 1226.88 Q1210.98 1224.33 1213.75 1224.33 Q1216.48 1224.33 1218.71 1226.13 Q1220.94 1227.94 1221.87 1230.8 Q1222.57 1227.28 1224.96 1225.19 Q1227.32 1223.09 1230.23 1223.09 Q1233.84 1223.09 1236.5 1225.93 Q1239.14 1228.77 1239.14 1232.92 Q1239.14 1236.75 1237.06 1239.5 Q1234.99 1242.25 1231.9 1242.25 Z" fill="#000000" fill-rule="nonzero" fill-opacity="1" /><polyline clip-path="url(#clip635)" style="stroke:#e26f46; stroke-linecap:round; stroke-linejoin:round; stroke-width:3; stroke-opacity:1; fill:none" stroke-dasharray="12, 6, 2, 6" points="1471.57,1124.72 1496.74,1114.47 1521.9,1413.23 1547.06,1383.36 1572.22,1293.49 1597.38,1361.62 1622.55,1355.44 1647.71,1310.85 1672.87,1321.43 1698.03,1252.97 1723.2,1250.55 1748.36,1249.13 1773.52,1211.71 1798.68,1192.76 1823.85,1139.26 1849.01,1148.73 1874.17,1167.97 1899.33,1135.1 1924.49,1132.4 1949.66,1114.6 1974.82,1149.7 1999.98,1155.66 2025.14,1127.44 2050.31,1130.45 2075.47,1126.2 2100.63,1085.8 2125.79,1161.15 2150.95,1082 2176.12,1097.64 2201.28,1131.47 2226.44,1081.68 2251.6,1135.27 2276.77,1120.96 2301.93,1099.02 2327.09,1106.68 "/>
</svg>
