<?xml version="1.0" encoding="utf-8"?>
<svg xmlns="http://www.w3.org/2000/svg" xmlns:xlink="http://www.w3.org/1999/xlink" width="600" height="400" viewBox="0 0 2400 1600">
<defs>
  <clipPath id="clip140">
    <rect x="0" y="0" width="2400" height="1600"/>
  </clipPath>
</defs>
<path clip-path="url(#clip140)" d="M0 1600 L2400 1600 L2400 0 L0 0  Z" fill="#ffffff" fill-rule="evenodd" fill-opacity="1"/>
<defs>
  <clipPath id="clip141">
    <rect x="480" y="0" width="1681" height="1600"/>
  </clipPath>
</defs>
<path clip-path="url(#clip140)" d="M203.964 1423.18 L1110.81 1423.18 L1110.81 47.2441 L203.964 47.2441  Z" fill="#ffffff" fill-rule="evenodd" fill-opacity="1"/>
<defs>
  <clipPath id="clip142">
    <rect x="203" y="47" width="908" height="1377"/>
  </clipPath>
</defs>
<polyline clip-path="url(#clip142)" style="stroke:#000000; stroke-linecap:round; stroke-linejoin:round; stroke-width:2; stroke-opacity:0.1; fill:none" points="229.629,1423.18 229.629,47.2441 "/>
<polyline clip-path="url(#clip142)" style="stroke:#000000; stroke-linecap:round; stroke-linejoin:round; stroke-width:2; stroke-opacity:0.1; fill:none" points="481.252,1423.18 481.252,47.2441 "/>
<polyline clip-path="url(#clip142)" style="stroke:#000000; stroke-linecap:round; stroke-linejoin:round; stroke-width:2; stroke-opacity:0.1; fill:none" points="732.874,1423.18 732.874,47.2441 "/>
<polyline clip-path="url(#clip142)" style="stroke:#000000; stroke-linecap:round; stroke-linejoin:round; stroke-width:2; stroke-opacity:0.1; fill:none" points="984.497,1423.18 984.497,47.2441 "/>
<polyline clip-path="url(#clip142)" style="stroke:#000000; stroke-linecap:round; stroke-linejoin:round; stroke-width:2; stroke-opacity:0.1; fill:none" points="203.964,1353.74 1110.81,1353.74 "/>
<polyline clip-path="url(#clip142)" style="stroke:#000000; stroke-linecap:round; stroke-linejoin:round; stroke-width:2; stroke-opacity:0.1; fill:none" points="203.964,1133.36 1110.81,1133.36 "/>
<polyline clip-path="url(#clip142)" style="stroke:#000000; stroke-linecap:round; stroke-linejoin:round; stroke-width:2; stroke-opacity:0.1; fill:none" points="203.964,912.969 1110.81,912.969 "/>
<polyline clip-path="url(#clip142)" style="stroke:#000000; stroke-linecap:round; stroke-linejoin:round; stroke-width:2; stroke-opacity:0.1; fill:none" points="203.964,692.582 1110.81,692.582 "/>
<polyline clip-path="url(#clip142)" style="stroke:#000000; stroke-linecap:round; stroke-linejoin:round; stroke-width:2; stroke-opacity:0.1; fill:none" points="203.964,472.195 1110.81,472.195 "/>
<polyline clip-path="url(#clip142)" style="stroke:#000000; stroke-linecap:round; stroke-linejoin:round; stroke-width:2; stroke-opacity:0.1; fill:none" points="203.964,251.808 1110.81,251.808 "/>
<polyline clip-path="url(#clip140)" style="stroke:#000000; stroke-linecap:round; stroke-linejoin:round; stroke-width:4; stroke-opacity:1; fill:none" points="203.964,1423.18 1110.81,1423.18 "/>
<polyline clip-path="url(#clip140)" style="stroke:#000000; stroke-linecap:round; stroke-linejoin:round; stroke-width:4; stroke-opacity:1; fill:none" points="229.629,1423.18 229.629,1404.28 "/>
<polyline clip-path="url(#clip140)" style="stroke:#000000; stroke-linecap:round; stroke-linejoin:round; stroke-width:4; stroke-opacity:1; fill:none" points="481.252,1423.18 481.252,1404.28 "/>
<polyline clip-path="url(#clip140)" style="stroke:#000000; stroke-linecap:round; stroke-linejoin:round; stroke-width:4; stroke-opacity:1; fill:none" points="732.874,1423.18 732.874,1404.28 "/>
<polyline clip-path="url(#clip140)" style="stroke:#000000; stroke-linecap:round; stroke-linejoin:round; stroke-width:4; stroke-opacity:1; fill:none" points="984.497,1423.18 984.497,1404.28 "/>
<path clip-path="url(#clip140)" d="M229.629 1454.1 Q226.018 1454.1 224.189 1457.66 Q222.384 1461.2 222.384 1468.33 Q222.384 1475.44 224.189 1479.01 Q226.018 1482.55 229.629 1482.55 Q233.263 1482.55 235.069 1479.01 Q236.898 1475.44 236.898 1468.33 Q236.898 1461.2 235.069 1457.66 Q233.263 1454.1 229.629 1454.1 M229.629 1450.39 Q235.439 1450.39 238.495 1455 Q241.573 1459.58 241.573 1468.33 Q241.573 1477.06 238.495 1481.67 Q235.439 1486.25 229.629 1486.25 Q223.819 1486.25 220.74 1481.67 Q217.685 1477.06 217.685 1468.33 Q217.685 1459.58 220.74 1455 Q223.819 1450.39 229.629 1450.39 Z" fill="#000000" fill-rule="nonzero" fill-opacity="1" /><path clip-path="url(#clip140)" d="M471.634 1481.64 L479.273 1481.64 L479.273 1455.28 L470.962 1456.95 L470.962 1452.69 L479.226 1451.02 L483.902 1451.02 L483.902 1481.64 L491.541 1481.64 L491.541 1485.58 L471.634 1485.58 L471.634 1481.64 Z" fill="#000000" fill-rule="nonzero" fill-opacity="1" /><path clip-path="url(#clip140)" d="M727.527 1481.64 L743.847 1481.64 L743.847 1485.58 L721.902 1485.58 L721.902 1481.64 Q724.564 1478.89 729.148 1474.26 Q733.754 1469.61 734.935 1468.27 Q737.18 1465.74 738.06 1464.01 Q738.962 1462.25 738.962 1460.56 Q738.962 1457.8 737.018 1456.07 Q735.097 1454.33 731.995 1454.33 Q729.796 1454.33 727.342 1455.09 Q724.912 1455.86 722.134 1457.41 L722.134 1452.69 Q724.958 1451.55 727.411 1450.97 Q729.865 1450.39 731.902 1450.39 Q737.273 1450.39 740.467 1453.08 Q743.661 1455.77 743.661 1460.26 Q743.661 1462.39 742.851 1464.31 Q742.064 1466.2 739.958 1468.8 Q739.379 1469.47 736.277 1472.69 Q733.175 1475.88 727.527 1481.64 Z" fill="#000000" fill-rule="nonzero" fill-opacity="1" /><path clip-path="url(#clip140)" d="M988.745 1466.95 Q992.101 1467.66 993.976 1469.93 Q995.874 1472.2 995.874 1475.53 Q995.874 1480.65 992.356 1483.45 Q988.837 1486.25 982.356 1486.25 Q980.18 1486.25 977.865 1485.81 Q975.574 1485.39 973.12 1484.54 L973.12 1480.02 Q975.064 1481.16 977.379 1481.74 Q979.694 1482.32 982.217 1482.32 Q986.615 1482.32 988.907 1480.58 Q991.222 1478.84 991.222 1475.53 Q991.222 1472.48 989.069 1470.77 Q986.939 1469.03 983.12 1469.03 L979.092 1469.03 L979.092 1465.19 L983.305 1465.19 Q986.754 1465.19 988.583 1463.82 Q990.411 1462.43 990.411 1459.84 Q990.411 1457.18 988.513 1455.77 Q986.638 1454.33 983.12 1454.33 Q981.199 1454.33 978.999 1454.75 Q976.8 1455.16 974.162 1456.04 L974.162 1451.88 Q976.824 1451.14 979.138 1450.77 Q981.476 1450.39 983.536 1450.39 Q988.861 1450.39 991.962 1452.83 Q995.064 1455.23 995.064 1459.35 Q995.064 1462.22 993.421 1464.21 Q991.777 1466.18 988.745 1466.95 Z" fill="#000000" fill-rule="nonzero" fill-opacity="1" /><path clip-path="url(#clip140)" d="M527.559 1520.52 L567.758 1520.52 L567.758 1525.93 L550.889 1525.93 L550.889 1568.04 L544.428 1568.04 L544.428 1525.93 L527.559 1525.93 L527.559 1520.52 Z" fill="#000000" fill-rule="nonzero" fill-opacity="1" /><path clip-path="url(#clip140)" d="M571.705 1532.4 L577.562 1532.4 L577.562 1568.04 L571.705 1568.04 L571.705 1532.4 M571.705 1518.52 L577.562 1518.52 L577.562 1525.93 L571.705 1525.93 L571.705 1518.52 Z" fill="#000000" fill-rule="nonzero" fill-opacity="1" /><path clip-path="url(#clip140)" d="M617.57 1539.24 Q619.766 1535.29 622.822 1533.41 Q625.877 1531.54 630.015 1531.54 Q635.585 1531.54 638.609 1535.45 Q641.633 1539.33 641.633 1546.53 L641.633 1568.04 L635.744 1568.04 L635.744 1546.72 Q635.744 1541.59 633.93 1539.11 Q632.116 1536.63 628.392 1536.63 Q623.84 1536.63 621.199 1539.65 Q618.557 1542.68 618.557 1547.9 L618.557 1568.04 L612.669 1568.04 L612.669 1546.72 Q612.669 1541.56 610.854 1539.11 Q609.04 1536.63 605.252 1536.63 Q600.765 1536.63 598.123 1539.68 Q595.481 1542.71 595.481 1547.9 L595.481 1568.04 L589.593 1568.04 L589.593 1532.4 L595.481 1532.4 L595.481 1537.93 Q597.486 1534.66 600.287 1533.1 Q603.088 1531.54 606.939 1531.54 Q610.822 1531.54 613.528 1533.51 Q616.265 1535.48 617.57 1539.24 Z" fill="#000000" fill-rule="nonzero" fill-opacity="1" /><path clip-path="url(#clip140)" d="M683.805 1548.76 L683.805 1551.62 L656.878 1551.62 Q657.26 1557.67 660.507 1560.85 Q663.785 1564 669.61 1564 Q672.984 1564 676.135 1563.17 Q679.317 1562.35 682.437 1560.69 L682.437 1566.23 Q679.286 1567.57 675.975 1568.27 Q672.665 1568.97 669.26 1568.97 Q660.73 1568.97 655.733 1564 Q650.767 1559.04 650.767 1550.57 Q650.767 1541.82 655.478 1536.69 Q660.22 1531.54 668.241 1531.54 Q675.434 1531.54 679.604 1536.18 Q683.805 1540.8 683.805 1548.76 M677.949 1547.04 Q677.885 1542.23 675.243 1539.37 Q672.633 1536.5 668.305 1536.5 Q663.403 1536.5 660.443 1539.27 Q657.515 1542.04 657.069 1547.07 L677.949 1547.04 Z" fill="#000000" fill-rule="nonzero" fill-opacity="1" /><path clip-path="url(#clip140)" d="M728.206 1518.58 Q723.941 1525.9 721.872 1533.06 Q719.803 1540.23 719.803 1547.58 Q719.803 1554.93 721.872 1562.16 Q723.973 1569.35 728.206 1576.64 L723.114 1576.64 Q718.339 1569.16 715.952 1561.93 Q713.597 1554.71 713.597 1547.58 Q713.597 1540.48 715.952 1533.29 Q718.307 1526.09 723.114 1518.58 L728.206 1518.58 Z" fill="#000000" fill-rule="nonzero" fill-opacity="1" /><path clip-path="url(#clip140)" d="M762.294 1533.45 L762.294 1538.98 Q759.812 1537.71 757.138 1537.07 Q754.465 1536.44 751.6 1536.44 Q747.24 1536.44 745.043 1537.77 Q742.879 1539.11 742.879 1541.79 Q742.879 1543.82 744.439 1545 Q745.998 1546.15 750.709 1547.2 L752.714 1547.64 Q758.952 1548.98 761.562 1551.43 Q764.204 1553.85 764.204 1558.21 Q764.204 1563.17 760.257 1566.07 Q756.343 1568.97 749.468 1568.97 Q746.603 1568.97 743.484 1568.39 Q740.396 1567.85 736.959 1566.74 L736.959 1560.69 Q740.205 1562.38 743.356 1563.24 Q746.508 1564.07 749.595 1564.07 Q753.733 1564.07 755.961 1562.66 Q758.189 1561.23 758.189 1558.65 Q758.189 1556.27 756.565 1554.99 Q754.974 1553.72 749.531 1552.54 L747.494 1552.07 Q742.052 1550.92 739.633 1548.56 Q737.214 1546.18 737.214 1542.04 Q737.214 1537.01 740.778 1534.27 Q744.343 1531.54 750.9 1531.54 Q754.146 1531.54 757.011 1532.01 Q759.876 1532.49 762.294 1533.45 Z" fill="#000000" fill-rule="nonzero" fill-opacity="1" /><path clip-path="url(#clip140)" d="M772.607 1518.58 L777.699 1518.58 Q782.474 1526.09 784.829 1533.29 Q787.216 1540.48 787.216 1547.58 Q787.216 1554.71 784.829 1561.93 Q782.474 1569.16 777.699 1576.64 L772.607 1576.64 Q776.84 1569.35 778.909 1562.16 Q781.01 1554.93 781.01 1547.58 Q781.01 1540.23 778.909 1533.06 Q776.84 1525.9 772.607 1518.58 Z" fill="#000000" fill-rule="nonzero" fill-opacity="1" /><polyline clip-path="url(#clip140)" style="stroke:#000000; stroke-linecap:round; stroke-linejoin:round; stroke-width:4; stroke-opacity:1; fill:none" points="203.964,1423.18 203.964,47.2441 "/>
<polyline clip-path="url(#clip140)" style="stroke:#000000; stroke-linecap:round; stroke-linejoin:round; stroke-width:4; stroke-opacity:1; fill:none" points="203.964,1353.74 222.861,1353.74 "/>
<polyline clip-path="url(#clip140)" style="stroke:#000000; stroke-linecap:round; stroke-linejoin:round; stroke-width:4; stroke-opacity:1; fill:none" points="203.964,1133.36 222.861,1133.36 "/>
<polyline clip-path="url(#clip140)" style="stroke:#000000; stroke-linecap:round; stroke-linejoin:round; stroke-width:4; stroke-opacity:1; fill:none" points="203.964,912.969 222.861,912.969 "/>
<polyline clip-path="url(#clip140)" style="stroke:#000000; stroke-linecap:round; stroke-linejoin:round; stroke-width:4; stroke-opacity:1; fill:none" points="203.964,692.582 222.861,692.582 "/>
<polyline clip-path="url(#clip140)" style="stroke:#000000; stroke-linecap:round; stroke-linejoin:round; stroke-width:4; stroke-opacity:1; fill:none" points="203.964,472.195 222.861,472.195 "/>
<polyline clip-path="url(#clip140)" style="stroke:#000000; stroke-linecap:round; stroke-linejoin:round; stroke-width:4; stroke-opacity:1; fill:none" points="203.964,251.808 222.861,251.808 "/>
<path clip-path="url(#clip140)" d="M156.019 1339.54 Q152.408 1339.54 150.579 1343.11 Q148.774 1346.65 148.774 1353.78 Q148.774 1360.88 150.579 1364.45 Q152.408 1367.99 156.019 1367.99 Q159.653 1367.99 161.459 1364.45 Q163.288 1360.88 163.288 1353.78 Q163.288 1346.65 161.459 1343.11 Q159.653 1339.54 156.019 1339.54 M156.019 1335.84 Q161.829 1335.84 164.885 1340.44 Q167.964 1345.03 167.964 1353.78 Q167.964 1362.5 164.885 1367.11 Q161.829 1371.69 156.019 1371.69 Q150.209 1371.69 147.13 1367.11 Q144.075 1362.5 144.075 1353.78 Q144.075 1345.03 147.13 1340.44 Q150.209 1335.84 156.019 1335.84 Z" fill="#000000" fill-rule="nonzero" fill-opacity="1" /><path clip-path="url(#clip140)" d="M147.061 1116.08 L165.417 1116.08 L165.417 1120.01 L151.343 1120.01 L151.343 1128.48 Q152.362 1128.14 153.38 1127.97 Q154.399 1127.79 155.417 1127.79 Q161.204 1127.79 164.584 1130.96 Q167.964 1134.13 167.964 1139.55 Q167.964 1145.13 164.491 1148.23 Q161.019 1151.31 154.7 1151.31 Q152.524 1151.31 150.255 1150.94 Q148.01 1150.57 145.603 1149.83 L145.603 1145.13 Q147.686 1146.26 149.908 1146.82 Q152.13 1147.37 154.607 1147.37 Q158.612 1147.37 160.95 1145.27 Q163.288 1143.16 163.288 1139.55 Q163.288 1135.94 160.95 1133.83 Q158.612 1131.72 154.607 1131.72 Q152.732 1131.72 150.857 1132.14 Q149.005 1132.56 147.061 1133.44 L147.061 1116.08 Z" fill="#000000" fill-rule="nonzero" fill-opacity="1" /><path clip-path="url(#clip140)" d="M116.668 926.314 L124.306 926.314 L124.306 899.949 L115.996 901.615 L115.996 897.356 L124.26 895.689 L128.936 895.689 L128.936 926.314 L136.575 926.314 L136.575 930.249 L116.668 930.249 L116.668 926.314 Z" fill="#000000" fill-rule="nonzero" fill-opacity="1" /><path clip-path="url(#clip140)" d="M156.019 898.768 Q152.408 898.768 150.579 902.333 Q148.774 905.874 148.774 913.004 Q148.774 920.11 150.579 923.675 Q152.408 927.217 156.019 927.217 Q159.653 927.217 161.459 923.675 Q163.288 920.11 163.288 913.004 Q163.288 905.874 161.459 902.333 Q159.653 898.768 156.019 898.768 M156.019 895.064 Q161.829 895.064 164.885 899.671 Q167.964 904.254 167.964 913.004 Q167.964 921.731 164.885 926.337 Q161.829 930.921 156.019 930.921 Q150.209 930.921 147.13 926.337 Q144.075 921.731 144.075 913.004 Q144.075 904.254 147.13 899.671 Q150.209 895.064 156.019 895.064 Z" fill="#000000" fill-rule="nonzero" fill-opacity="1" /><path clip-path="url(#clip140)" d="M117.663 705.927 L125.302 705.927 L125.302 679.562 L116.992 681.228 L116.992 676.969 L125.255 675.302 L129.931 675.302 L129.931 705.927 L137.57 705.927 L137.57 709.862 L117.663 709.862 L117.663 705.927 Z" fill="#000000" fill-rule="nonzero" fill-opacity="1" /><path clip-path="url(#clip140)" d="M147.061 675.302 L165.417 675.302 L165.417 679.238 L151.343 679.238 L151.343 687.71 Q152.362 687.362 153.38 687.2 Q154.399 687.015 155.417 687.015 Q161.204 687.015 164.584 690.187 Q167.964 693.358 167.964 698.774 Q167.964 704.353 164.491 707.455 Q161.019 710.534 154.7 710.534 Q152.524 710.534 150.255 710.163 Q148.01 709.793 145.603 709.052 L145.603 704.353 Q147.686 705.487 149.908 706.043 Q152.13 706.598 154.607 706.598 Q158.612 706.598 160.95 704.492 Q163.288 702.386 163.288 698.774 Q163.288 695.163 160.95 693.057 Q158.612 690.95 154.607 690.95 Q152.732 690.95 150.857 691.367 Q149.005 691.784 147.061 692.663 L147.061 675.302 Z" fill="#000000" fill-rule="nonzero" fill-opacity="1" /><path clip-path="url(#clip140)" d="M119.885 485.54 L136.204 485.54 L136.204 489.475 L114.26 489.475 L114.26 485.54 Q116.922 482.786 121.505 478.156 Q126.112 473.503 127.292 472.161 Q129.538 469.638 130.417 467.901 Q131.32 466.142 131.32 464.452 Q131.32 461.698 129.376 459.962 Q127.455 458.226 124.353 458.226 Q122.154 458.226 119.7 458.989 Q117.269 459.753 114.492 461.304 L114.492 456.582 Q117.316 455.448 119.769 454.869 Q122.223 454.29 124.26 454.29 Q129.63 454.29 132.825 456.976 Q136.019 459.661 136.019 464.151 Q136.019 466.281 135.209 468.202 Q134.422 470.101 132.316 472.693 Q131.737 473.364 128.635 476.582 Q125.533 479.776 119.885 485.54 Z" fill="#000000" fill-rule="nonzero" fill-opacity="1" /><path clip-path="url(#clip140)" d="M156.019 457.994 Q152.408 457.994 150.579 461.559 Q148.774 465.101 148.774 472.23 Q148.774 479.337 150.579 482.901 Q152.408 486.443 156.019 486.443 Q159.653 486.443 161.459 482.901 Q163.288 479.337 163.288 472.23 Q163.288 465.101 161.459 461.559 Q159.653 457.994 156.019 457.994 M156.019 454.29 Q161.829 454.29 164.885 458.897 Q167.964 463.48 167.964 472.23 Q167.964 480.957 164.885 485.563 Q161.829 490.147 156.019 490.147 Q150.209 490.147 147.13 485.563 Q144.075 480.957 144.075 472.23 Q144.075 463.48 147.13 458.897 Q150.209 454.29 156.019 454.29 Z" fill="#000000" fill-rule="nonzero" fill-opacity="1" /><path clip-path="url(#clip140)" d="M120.88 265.153 L137.2 265.153 L137.2 269.088 L115.256 269.088 L115.256 265.153 Q117.918 262.399 122.501 257.769 Q127.107 253.116 128.288 251.774 Q130.533 249.251 131.413 247.514 Q132.316 245.755 132.316 244.065 Q132.316 241.311 130.371 239.575 Q128.45 237.839 125.348 237.839 Q123.149 237.839 120.695 238.602 Q118.265 239.366 115.487 240.917 L115.487 236.195 Q118.311 235.061 120.765 234.482 Q123.218 233.903 125.255 233.903 Q130.626 233.903 133.82 236.589 Q137.015 239.274 137.015 243.764 Q137.015 245.894 136.204 247.815 Q135.417 249.714 133.311 252.306 Q132.732 252.977 129.63 256.195 Q126.529 259.389 120.88 265.153 Z" fill="#000000" fill-rule="nonzero" fill-opacity="1" /><path clip-path="url(#clip140)" d="M147.061 234.528 L165.417 234.528 L165.417 238.464 L151.343 238.464 L151.343 246.936 Q152.362 246.589 153.38 246.427 Q154.399 246.241 155.417 246.241 Q161.204 246.241 164.584 249.413 Q167.964 252.584 167.964 258.001 Q167.964 263.579 164.491 266.681 Q161.019 269.76 154.7 269.76 Q152.524 269.76 150.255 269.389 Q148.01 269.019 145.603 268.278 L145.603 263.579 Q147.686 264.713 149.908 265.269 Q152.13 265.825 154.607 265.825 Q158.612 265.825 160.95 263.718 Q163.288 261.612 163.288 258.001 Q163.288 254.389 160.95 252.283 Q158.612 250.177 154.607 250.177 Q152.732 250.177 150.857 250.593 Q149.005 251.01 147.061 251.889 L147.061 234.528 Z" fill="#000000" fill-rule="nonzero" fill-opacity="1" /><path clip-path="url(#clip140)" d="M39.4334 772.564 Q44.844 772.564 50.9309 774.303 Q56.9856 776.01 61.8809 778.715 Q66.744 781.42 69.9646 784.963 Q73.153 788.505 73.153 791.887 Q73.153 794.045 71.9613 795.655 Q70.7375 797.233 68.7085 798.103 Q66.6474 798.972 64.393 799.391 Q62.1063 799.81 59.6265 799.81 Q55.9228 799.81 51.8971 799.005 Q47.8391 798.199 44.1677 796.847 Q40.464 795.494 37.1146 793.594 Q33.733 791.694 31.2853 789.6 Q28.8055 787.475 27.3562 785.092 Q25.907 782.708 25.907 780.486 Q25.907 778.876 26.6155 777.588 Q27.2918 776.267 28.4834 775.43 Q29.6428 774.593 31.0277 774.013 Q32.4125 773.401 34.0228 773.111 Q35.6009 772.821 36.9214 772.692 Q38.2096 772.564 39.4334 772.564 M35.3433 776.911 Q33.7008 776.911 32.477 777.04 Q31.2209 777.169 29.9649 777.523 Q28.7089 777.878 28.0325 778.65 Q27.3562 779.391 27.3562 780.551 Q27.3562 783.932 34.2805 787.733 Q36.4383 788.956 39.369 790.051 Q42.2997 791.146 43.6846 791.533 Q45.0694 791.919 48.4833 792.821 L48.4833 779.037 Q39.6911 776.911 35.3433 776.911 M50.5766 779.617 L50.5766 793.336 Q58.6281 795.462 63.6522 795.462 Q68.0322 795.462 69.868 794.56 Q71.6715 793.626 71.6715 791.887 Q71.6715 789.89 69.6747 788.022 Q67.6458 786.154 63.9743 784.254 Q59.2078 781.742 50.5766 779.617 Z" fill="#000000" fill-rule="nonzero" fill-opacity="1" /><path clip-path="url(#clip140)" d="M22.9507 728.256 Q30.2712 732.521 37.4327 734.59 Q44.5941 736.658 51.9465 736.658 Q59.2989 736.658 66.5239 734.59 Q73.7172 732.489 81.0059 728.256 L81.0059 733.348 Q73.5262 738.123 66.3011 740.51 Q59.0761 742.865 51.9465 742.865 Q44.8487 742.865 37.6555 740.51 Q30.4622 738.154 22.9507 733.348 L22.9507 728.256 Z" fill="#000000" fill-rule="nonzero" fill-opacity="1" /><path clip-path="url(#clip140)" d="M28.1387 706.74 Q28.1387 709.286 29.9211 711.036 Q31.6717 712.787 34.218 712.787 Q36.7324 712.787 38.483 711.036 Q40.2017 709.286 40.2017 706.74 Q40.2017 704.193 38.483 702.443 Q36.7324 700.692 34.218 700.692 Q31.7035 700.692 29.9211 702.475 Q28.1387 704.225 28.1387 706.74 M24.0328 706.74 Q24.0328 704.703 24.8286 702.825 Q25.5924 700.947 27.0566 699.578 Q28.4888 698.114 30.3031 697.382 Q32.1173 696.65 34.218 696.65 Q38.4193 696.65 41.3476 699.61 Q44.244 702.538 44.244 706.803 Q44.244 711.1 41.3794 713.965 Q38.5148 716.829 34.218 716.829 Q29.953 716.829 26.9929 713.901 Q24.0328 710.973 24.0328 706.74 Z" fill="#000000" fill-rule="nonzero" fill-opacity="1" /><path clip-path="url(#clip140)" d="M22.9507 685.224 L22.9507 680.131 Q30.4622 675.357 37.6555 673.001 Q44.8487 670.614 51.9465 670.614 Q59.0761 670.614 66.3011 673.001 Q73.5262 675.357 81.0059 680.131 L81.0059 685.224 Q73.7172 680.99 66.5239 678.921 Q59.2989 676.821 51.9465 676.821 Q44.5941 676.821 37.4327 678.921 Q30.2712 680.99 22.9507 685.224 Z" fill="#000000" fill-rule="nonzero" fill-opacity="1" /><polyline clip-path="url(#clip142)" style="stroke:#009af9; stroke-linecap:round; stroke-linejoin:round; stroke-width:4; stroke-opacity:1; fill:none" points="229.629,1384.24 254.791,1246.16 279.954,993.743 305.116,713.314 330.278,430.065 355.44,309.334 380.603,134.002 405.765,139.453 430.927,86.1857 456.089,133.263 481.252,123.995 506.414,168.417 531.576,176.2 556.739,253.592 581.901,223.147 607.063,303.319 632.225,247.891 657.388,211.411 682.55,266.256 707.712,263.154 732.874,220.563 758.037,232.4 783.199,256.44 808.361,287.572 833.524,257.311 858.686,226.994 883.848,222.336 909.01,294.864 934.173,228.882 959.335,246.569 984.497,255.084 1009.66,244.027 1034.82,234.281 1059.98,257.678 1085.15,233.886 "/>
<polyline clip-path="url(#clip142)" style="stroke:#e26f46; stroke-linecap:round; stroke-linejoin:round; stroke-width:3; stroke-opacity:1; fill:none" stroke-dasharray="12, 6, 2, 6" points="229.629,1383.34 254.791,1250.99 279.954,990.981 305.116,708.311 330.278,430.74 355.44,294.562 380.603,144.672 405.765,130.987 430.927,98.1194 456.089,133.346 481.252,136.822 506.414,171.608 531.576,184.496 556.739,246.796 581.901,235.018 607.063,292.251 632.225,260.308 657.388,219.724 682.55,254.348 707.712,262.562 732.874,229.398 758.037,230.085 783.199,251.024 808.361,281.674 833.524,263.885 858.686,233.251 883.848,222.278 909.01,279.676 934.173,241.78 959.335,244.271 984.497,252.719 1009.66,246.141 1034.82,236.36 1059.98,253.008 1085.15,238.493 "/>
<path clip-path="url(#clip140)" d="M961.069 1377.32 L1080.58 1377.32 L1080.58 1221.8 L961.069 1221.8  Z" fill="#ffffff" fill-rule="evenodd" fill-opacity="1"/>
<polyline clip-path="url(#clip140)" style="stroke:#000000; stroke-linecap:round; stroke-linejoin:round; stroke-width:4; stroke-opacity:1; fill:none" points="961.069,1377.32 1080.58,1377.32 1080.58,1221.8 961.069,1221.8 961.069,1377.32 "/>
<polyline clip-path="url(#clip140)" style="stroke:#009af9; stroke-linecap:round; stroke-linejoin:round; stroke-width:4; stroke-opacity:1; fill:none" points="971.145,1273.64 1031.6,1273.64 "/>
<path clip-path="url(#clip140)" d="M1068.45 1260.37 Q1066.97 1260.37 1066.22 1260.51 Q1065.48 1260.63 1065.29 1260.8 Q1065.1 1260.96 1064.89 1261.38 L1054.58 1283.3 Q1053.48 1285.65 1051.42 1287.33 Q1049.38 1289.02 1046.81 1289.02 Q1044.65 1289.02 1043.15 1287.71 Q1041.68 1286.42 1041.68 1284.59 Q1041.68 1283.28 1042.5 1282.53 Q1043.32 1281.81 1044.42 1281.81 Q1045.64 1281.81 1046.41 1282.58 Q1047.21 1283.35 1047.21 1284.55 Q1047.21 1285.32 1046.88 1285.9 Q1046.55 1286.51 1046.25 1286.72 Q1045.96 1286.96 1045.66 1287.1 Q1046.15 1287.29 1046.81 1287.29 Q1047.79 1287.29 1048.63 1286.89 Q1049.5 1286.51 1050.06 1286 Q1050.65 1285.51 1051.23 1284.62 Q1051.82 1283.75 1052.1 1283.19 Q1052.38 1282.65 1052.8 1281.71 L1053.9 1279.42 L1044.93 1260.37 L1041.87 1260.37 L1041.87 1258.13 L1047.35 1258.27 L1053.3 1258.13 L1053.3 1260.37 L1050.7 1260.37 L1056.79 1273.33 L1062.31 1261.52 L1062.55 1260.96 Q1062.55 1260.7 1061.99 1260.56 Q1061.42 1260.4 1060.86 1260.4 L1060.3 1260.37 L1060.3 1258.13 L1064.66 1258.27 Q1066.72 1258.27 1068.45 1258.13 L1068.45 1260.37 Z" fill="#000000" fill-rule="nonzero" fill-opacity="1" /><polyline clip-path="url(#clip140)" style="stroke:#e26f46; stroke-linecap:round; stroke-linejoin:round; stroke-width:3; stroke-opacity:1; fill:none" stroke-dasharray="12, 6, 2, 6" points="971.145,1325.48 1031.6,1325.48 "/>
<path clip-path="url(#clip140)" d="M1064.26 1309.2 L1063.85 1309.87 Q1061.31 1308.77 1058.15 1307.01 Q1054.98 1308.77 1052.44 1309.87 L1052.05 1309.2 Q1054.82 1306.79 1058.15 1304.93 Q1061.51 1306.8 1064.26 1309.2 Z" fill="#000000" fill-rule="nonzero" fill-opacity="1" /><path clip-path="url(#clip140)" d="M1068.45 1317.22 Q1066.97 1317.22 1066.22 1317.36 Q1065.48 1317.48 1065.29 1317.64 Q1065.1 1317.8 1064.89 1318.23 L1054.58 1340.15 Q1053.48 1342.49 1051.42 1344.18 Q1049.38 1345.86 1046.81 1345.86 Q1044.65 1345.86 1043.15 1344.55 Q1041.68 1343.26 1041.68 1341.44 Q1041.68 1340.13 1042.5 1339.38 Q1043.32 1338.65 1044.42 1338.65 Q1045.64 1338.65 1046.41 1339.42 Q1047.21 1340.2 1047.21 1341.39 Q1047.21 1342.16 1046.88 1342.75 Q1046.55 1343.36 1046.25 1343.57 Q1045.96 1343.8 1045.66 1343.94 Q1046.15 1344.13 1046.81 1344.13 Q1047.79 1344.13 1048.63 1343.73 Q1049.5 1343.36 1050.06 1342.84 Q1050.65 1342.35 1051.23 1341.46 Q1051.82 1340.59 1052.1 1340.03 Q1052.38 1339.49 1052.8 1338.56 L1053.9 1336.26 L1044.93 1317.22 L1041.87 1317.22 L1041.87 1314.97 L1047.35 1315.11 L1053.3 1314.97 L1053.3 1317.22 L1050.7 1317.22 L1056.79 1330.17 L1062.31 1318.37 L1062.55 1317.8 Q1062.55 1317.55 1061.99 1317.41 Q1061.42 1317.24 1060.86 1317.24 L1060.3 1317.22 L1060.3 1314.97 L1064.66 1315.11 Q1066.72 1315.11 1068.45 1314.97 L1068.45 1317.22 Z" fill="#000000" fill-rule="nonzero" fill-opacity="1" /><path clip-path="url(#clip140)" d="M1445.91 398.692 L2352.76 398.692 L2352.76 47.2441 L1445.91 47.2441  Z" fill="#ffffff" fill-rule="evenodd" fill-opacity="1"/>
<defs>
  <clipPath id="clip143">
    <rect x="1445" y="47" width="908" height="352"/>
  </clipPath>
</defs>
<polyline clip-path="url(#clip143)" style="stroke:#000000; stroke-linecap:round; stroke-linejoin:round; stroke-width:2; stroke-opacity:0.1; fill:none" points="1471.57,398.692 1471.57,47.2441 "/>
<polyline clip-path="url(#clip143)" style="stroke:#000000; stroke-linecap:round; stroke-linejoin:round; stroke-width:2; stroke-opacity:0.1; fill:none" points="1723.2,398.692 1723.2,47.2441 "/>
<polyline clip-path="url(#clip143)" style="stroke:#000000; stroke-linecap:round; stroke-linejoin:round; stroke-width:2; stroke-opacity:0.1; fill:none" points="1974.82,398.692 1974.82,47.2441 "/>
<polyline clip-path="url(#clip143)" style="stroke:#000000; stroke-linecap:round; stroke-linejoin:round; stroke-width:2; stroke-opacity:0.1; fill:none" points="2226.44,398.692 2226.44,47.2441 "/>
<polyline clip-path="url(#clip143)" style="stroke:#000000; stroke-linecap:round; stroke-linejoin:round; stroke-width:2; stroke-opacity:0.1; fill:none" points="1445.91,381.217 2352.76,381.217 "/>
<polyline clip-path="url(#clip143)" style="stroke:#000000; stroke-linecap:round; stroke-linejoin:round; stroke-width:2; stroke-opacity:0.1; fill:none" points="1445.91,316.972 2352.76,316.972 "/>
<polyline clip-path="url(#clip143)" style="stroke:#000000; stroke-linecap:round; stroke-linejoin:round; stroke-width:2; stroke-opacity:0.1; fill:none" points="1445.91,252.727 2352.76,252.727 "/>
<polyline clip-path="url(#clip143)" style="stroke:#000000; stroke-linecap:round; stroke-linejoin:round; stroke-width:2; stroke-opacity:0.1; fill:none" points="1445.91,188.483 2352.76,188.483 "/>
<polyline clip-path="url(#clip143)" style="stroke:#000000; stroke-linecap:round; stroke-linejoin:round; stroke-width:2; stroke-opacity:0.1; fill:none" points="1445.91,124.238 2352.76,124.238 "/>
<polyline clip-path="url(#clip143)" style="stroke:#000000; stroke-linecap:round; stroke-linejoin:round; stroke-width:2; stroke-opacity:0.1; fill:none" points="1445.91,59.9932 2352.76,59.9932 "/>
<polyline clip-path="url(#clip140)" style="stroke:#000000; stroke-linecap:round; stroke-linejoin:round; stroke-width:4; stroke-opacity:1; fill:none" points="1445.91,398.692 2352.76,398.692 "/>
<polyline clip-path="url(#clip140)" style="stroke:#000000; stroke-linecap:round; stroke-linejoin:round; stroke-width:4; stroke-opacity:1; fill:none" points="1471.57,398.692 1471.57,379.794 "/>
<polyline clip-path="url(#clip140)" style="stroke:#000000; stroke-linecap:round; stroke-linejoin:round; stroke-width:4; stroke-opacity:1; fill:none" points="1723.2,398.692 1723.2,379.794 "/>
<polyline clip-path="url(#clip140)" style="stroke:#000000; stroke-linecap:round; stroke-linejoin:round; stroke-width:4; stroke-opacity:1; fill:none" points="1974.82,398.692 1974.82,379.794 "/>
<polyline clip-path="url(#clip140)" style="stroke:#000000; stroke-linecap:round; stroke-linejoin:round; stroke-width:4; stroke-opacity:1; fill:none" points="2226.44,398.692 2226.44,379.794 "/>
<path clip-path="url(#clip140)" d="M1471.57 429.611 Q1467.96 429.611 1466.13 433.175 Q1464.33 436.717 1464.33 443.847 Q1464.33 450.953 1466.13 454.518 Q1467.96 458.059 1471.57 458.059 Q1475.21 458.059 1477.01 454.518 Q1478.84 450.953 1478.84 443.847 Q1478.84 436.717 1477.01 433.175 Q1475.21 429.611 1471.57 429.611 M1471.57 425.907 Q1477.38 425.907 1480.44 430.513 Q1483.52 435.097 1483.52 443.847 Q1483.52 452.573 1480.44 457.18 Q1477.38 461.763 1471.57 461.763 Q1465.76 461.763 1462.68 457.18 Q1459.63 452.573 1459.63 443.847 Q1459.63 435.097 1462.68 430.513 Q1465.76 425.907 1471.57 425.907 Z" fill="#000000" fill-rule="nonzero" fill-opacity="1" /><path clip-path="url(#clip140)" d="M1713.58 457.157 L1721.22 457.157 L1721.22 430.791 L1712.91 432.458 L1712.91 428.199 L1721.17 426.532 L1725.85 426.532 L1725.85 457.157 L1733.49 457.157 L1733.49 461.092 L1713.58 461.092 L1713.58 457.157 Z" fill="#000000" fill-rule="nonzero" fill-opacity="1" /><path clip-path="url(#clip140)" d="M1969.47 457.157 L1985.79 457.157 L1985.79 461.092 L1963.85 461.092 L1963.85 457.157 Q1966.51 454.402 1971.09 449.772 Q1975.7 445.12 1976.88 443.777 Q1979.12 441.254 1980 439.518 Q1980.91 437.759 1980.91 436.069 Q1980.91 433.314 1978.96 431.578 Q1977.04 429.842 1973.94 429.842 Q1971.74 429.842 1969.29 430.606 Q1966.86 431.37 1964.08 432.921 L1964.08 428.199 Q1966.9 427.064 1969.36 426.486 Q1971.81 425.907 1973.85 425.907 Q1979.22 425.907 1982.41 428.592 Q1985.61 431.277 1985.61 435.768 Q1985.61 437.898 1984.8 439.819 Q1984.01 441.717 1981.9 444.31 Q1981.32 444.981 1978.22 448.198 Q1975.12 451.393 1969.47 457.157 Z" fill="#000000" fill-rule="nonzero" fill-opacity="1" /><path clip-path="url(#clip140)" d="M2230.69 442.458 Q2234.05 443.175 2235.92 445.444 Q2237.82 447.712 2237.82 451.046 Q2237.82 456.161 2234.3 458.962 Q2230.78 461.763 2224.3 461.763 Q2222.12 461.763 2219.81 461.323 Q2217.52 460.907 2215.06 460.05 L2215.06 455.536 Q2217.01 456.671 2219.32 457.249 Q2221.64 457.828 2224.16 457.828 Q2228.56 457.828 2230.85 456.092 Q2233.17 454.356 2233.17 451.046 Q2233.17 447.99 2231.01 446.277 Q2228.88 444.541 2225.06 444.541 L2221.04 444.541 L2221.04 440.698 L2225.25 440.698 Q2228.7 440.698 2230.53 439.333 Q2232.36 437.944 2232.36 435.351 Q2232.36 432.689 2230.46 431.277 Q2228.58 429.842 2225.06 429.842 Q2223.14 429.842 2220.94 430.259 Q2218.74 430.675 2216.11 431.555 L2216.11 427.388 Q2218.77 426.648 2221.08 426.277 Q2223.42 425.907 2225.48 425.907 Q2230.8 425.907 2233.91 428.337 Q2237.01 430.745 2237.01 434.865 Q2237.01 437.736 2235.36 439.726 Q2233.72 441.694 2230.69 442.458 Z" fill="#000000" fill-rule="nonzero" fill-opacity="1" /><polyline clip-path="url(#clip140)" style="stroke:#000000; stroke-linecap:round; stroke-linejoin:round; stroke-width:4; stroke-opacity:1; fill:none" points="1445.91,398.692 1445.91,47.2441 "/>
<polyline clip-path="url(#clip140)" style="stroke:#000000; stroke-linecap:round; stroke-linejoin:round; stroke-width:4; stroke-opacity:1; fill:none" points="1445.91,381.217 1464.81,381.217 "/>
<polyline clip-path="url(#clip140)" style="stroke:#000000; stroke-linecap:round; stroke-linejoin:round; stroke-width:4; stroke-opacity:1; fill:none" points="1445.91,316.972 1464.81,316.972 "/>
<polyline clip-path="url(#clip140)" style="stroke:#000000; stroke-linecap:round; stroke-linejoin:round; stroke-width:4; stroke-opacity:1; fill:none" points="1445.91,252.727 1464.81,252.727 "/>
<polyline clip-path="url(#clip140)" style="stroke:#000000; stroke-linecap:round; stroke-linejoin:round; stroke-width:4; stroke-opacity:1; fill:none" points="1445.91,188.483 1464.81,188.483 "/>
<polyline clip-path="url(#clip140)" style="stroke:#000000; stroke-linecap:round; stroke-linejoin:round; stroke-width:4; stroke-opacity:1; fill:none" points="1445.91,124.238 1464.81,124.238 "/>
<polyline clip-path="url(#clip140)" style="stroke:#000000; stroke-linecap:round; stroke-linejoin:round; stroke-width:4; stroke-opacity:1; fill:none" points="1445.91,59.9932 1464.81,59.9932 "/>
<path clip-path="url(#clip140)" d="M1352.73 367.016 Q1349.12 367.016 1347.29 370.58 Q1345.49 374.122 1345.49 381.252 Q1345.49 388.358 1347.29 391.923 Q1349.12 395.465 1352.73 395.465 Q1356.37 395.465 1358.17 391.923 Q1360 388.358 1360 381.252 Q1360 374.122 1358.17 370.58 Q1356.37 367.016 1352.73 367.016 M1352.73 363.312 Q1358.54 363.312 1361.6 367.918 Q1364.68 372.502 1364.68 381.252 Q1364.68 389.978 1361.6 394.585 Q1358.54 399.168 1352.73 399.168 Q1346.92 399.168 1343.84 394.585 Q1340.79 389.978 1340.79 381.252 Q1340.79 372.502 1343.84 367.918 Q1346.92 363.312 1352.73 363.312 Z" fill="#000000" fill-rule="nonzero" fill-opacity="1" /><path clip-path="url(#clip140)" d="M1372.89 392.617 L1377.78 392.617 L1377.78 398.497 L1372.89 398.497 L1372.89 392.617 Z" fill="#000000" fill-rule="nonzero" fill-opacity="1" /><path clip-path="url(#clip140)" d="M1397.96 367.016 Q1394.35 367.016 1392.52 370.58 Q1390.72 374.122 1390.72 381.252 Q1390.72 388.358 1392.52 391.923 Q1394.35 395.465 1397.96 395.465 Q1401.6 395.465 1403.4 391.923 Q1405.23 388.358 1405.23 381.252 Q1405.23 374.122 1403.4 370.58 Q1401.6 367.016 1397.96 367.016 M1397.96 363.312 Q1403.77 363.312 1406.83 367.918 Q1409.91 372.502 1409.91 381.252 Q1409.91 389.978 1406.83 394.585 Q1403.77 399.168 1397.96 399.168 Q1392.15 399.168 1389.07 394.585 Q1386.02 389.978 1386.02 381.252 Q1386.02 372.502 1389.07 367.918 Q1392.15 363.312 1397.96 363.312 Z" fill="#000000" fill-rule="nonzero" fill-opacity="1" /><path clip-path="url(#clip140)" d="M1353.96 302.771 Q1350.35 302.771 1348.52 306.336 Q1346.71 309.877 1346.71 317.007 Q1346.71 324.113 1348.52 327.678 Q1350.35 331.22 1353.96 331.22 Q1357.59 331.22 1359.4 327.678 Q1361.23 324.113 1361.23 317.007 Q1361.23 309.877 1359.4 306.336 Q1357.59 302.771 1353.96 302.771 M1353.96 299.067 Q1359.77 299.067 1362.82 303.674 Q1365.9 308.257 1365.9 317.007 Q1365.9 325.734 1362.82 330.34 Q1359.77 334.923 1353.96 334.923 Q1348.15 334.923 1345.07 330.34 Q1342.01 325.734 1342.01 317.007 Q1342.01 308.257 1345.07 303.674 Q1348.15 299.067 1353.96 299.067 Z" fill="#000000" fill-rule="nonzero" fill-opacity="1" /><path clip-path="url(#clip140)" d="M1374.12 328.373 L1379.01 328.373 L1379.01 334.252 L1374.12 334.252 L1374.12 328.373 Z" fill="#000000" fill-rule="nonzero" fill-opacity="1" /><path clip-path="url(#clip140)" d="M1390 330.317 L1397.64 330.317 L1397.64 303.951 L1389.33 305.618 L1389.33 301.359 L1397.59 299.692 L1402.27 299.692 L1402.27 330.317 L1409.91 330.317 L1409.91 334.252 L1390 334.252 L1390 330.317 Z" fill="#000000" fill-rule="nonzero" fill-opacity="1" /><path clip-path="url(#clip140)" d="M1354.33 238.526 Q1350.72 238.526 1348.89 242.091 Q1347.08 245.633 1347.08 252.762 Q1347.08 259.869 1348.89 263.433 Q1350.72 266.975 1354.33 266.975 Q1357.96 266.975 1359.77 263.433 Q1361.6 259.869 1361.6 252.762 Q1361.6 245.633 1359.77 242.091 Q1357.96 238.526 1354.33 238.526 M1354.33 234.822 Q1360.14 234.822 1363.2 239.429 Q1366.27 244.012 1366.27 252.762 Q1366.27 261.489 1363.2 266.095 Q1360.14 270.679 1354.33 270.679 Q1348.52 270.679 1345.44 266.095 Q1342.39 261.489 1342.39 252.762 Q1342.39 244.012 1345.44 239.429 Q1348.52 234.822 1354.33 234.822 Z" fill="#000000" fill-rule="nonzero" fill-opacity="1" /><path clip-path="url(#clip140)" d="M1374.49 264.128 L1379.38 264.128 L1379.38 270.007 L1374.49 270.007 L1374.49 264.128 Z" fill="#000000" fill-rule="nonzero" fill-opacity="1" /><path clip-path="url(#clip140)" d="M1393.59 266.072 L1409.91 266.072 L1409.91 270.007 L1387.96 270.007 L1387.96 266.072 Q1390.63 263.318 1395.21 258.688 Q1399.82 254.035 1401 252.693 Q1403.24 250.17 1404.12 248.434 Q1405.02 246.674 1405.02 244.984 Q1405.02 242.23 1403.08 240.494 Q1401.16 238.758 1398.06 238.758 Q1395.86 238.758 1393.4 239.522 Q1390.97 240.285 1388.19 241.836 L1388.19 237.114 Q1391.02 235.98 1393.47 235.401 Q1395.93 234.822 1397.96 234.822 Q1403.33 234.822 1406.53 237.508 Q1409.72 240.193 1409.72 244.684 Q1409.72 246.813 1408.91 248.734 Q1408.13 250.633 1406.02 253.225 Q1405.44 253.896 1402.34 257.114 Q1399.24 260.308 1393.59 266.072 Z" fill="#000000" fill-rule="nonzero" fill-opacity="1" /><path clip-path="url(#clip140)" d="M1353.38 174.281 Q1349.77 174.281 1347.94 177.846 Q1346.13 181.388 1346.13 188.517 Q1346.13 195.624 1347.94 199.189 Q1349.77 202.73 1353.38 202.73 Q1357.01 202.73 1358.82 199.189 Q1360.65 195.624 1360.65 188.517 Q1360.65 181.388 1358.82 177.846 Q1357.01 174.281 1353.38 174.281 M1353.38 170.578 Q1359.19 170.578 1362.25 175.184 Q1365.32 179.767 1365.32 188.517 Q1365.32 197.244 1362.25 201.851 Q1359.19 206.434 1353.38 206.434 Q1347.57 206.434 1344.49 201.851 Q1341.44 197.244 1341.44 188.517 Q1341.44 179.767 1344.49 175.184 Q1347.57 170.578 1353.38 170.578 Z" fill="#000000" fill-rule="nonzero" fill-opacity="1" /><path clip-path="url(#clip140)" d="M1373.54 199.883 L1378.43 199.883 L1378.43 205.763 L1373.54 205.763 L1373.54 199.883 Z" fill="#000000" fill-rule="nonzero" fill-opacity="1" /><path clip-path="url(#clip140)" d="M1402.78 187.129 Q1406.13 187.846 1408.01 190.115 Q1409.91 192.383 1409.91 195.716 Q1409.91 200.832 1406.39 203.633 Q1402.87 206.434 1396.39 206.434 Q1394.21 206.434 1391.9 205.994 Q1389.61 205.578 1387.15 204.721 L1387.15 200.207 Q1389.1 201.341 1391.41 201.92 Q1393.73 202.499 1396.25 202.499 Q1400.65 202.499 1402.94 200.763 Q1405.26 199.027 1405.26 195.716 Q1405.26 192.661 1403.1 190.948 Q1400.97 189.212 1397.15 189.212 L1393.13 189.212 L1393.13 185.369 L1397.34 185.369 Q1400.79 185.369 1402.62 184.004 Q1404.44 182.615 1404.44 180.022 Q1404.44 177.36 1402.55 175.948 Q1400.67 174.513 1397.15 174.513 Q1395.23 174.513 1393.03 174.93 Q1390.83 175.346 1388.19 176.226 L1388.19 172.059 Q1390.86 171.318 1393.17 170.948 Q1395.51 170.578 1397.57 170.578 Q1402.89 170.578 1406 173.008 Q1409.1 175.416 1409.1 179.536 Q1409.1 182.406 1407.45 184.397 Q1405.81 186.365 1402.78 187.129 Z" fill="#000000" fill-rule="nonzero" fill-opacity="1" /><path clip-path="url(#clip140)" d="M1352.25 110.037 Q1348.63 110.037 1346.81 113.601 Q1345 117.143 1345 124.273 Q1345 131.379 1346.81 134.944 Q1348.63 138.486 1352.25 138.486 Q1355.88 138.486 1357.69 134.944 Q1359.51 131.379 1359.51 124.273 Q1359.51 117.143 1357.69 113.601 Q1355.88 110.037 1352.25 110.037 M1352.25 106.333 Q1358.06 106.333 1361.11 110.939 Q1364.19 115.523 1364.19 124.273 Q1364.19 133 1361.11 137.606 Q1358.06 142.189 1352.25 142.189 Q1346.44 142.189 1343.36 137.606 Q1340.3 133 1340.3 124.273 Q1340.3 115.523 1343.36 110.939 Q1346.44 106.333 1352.25 106.333 Z" fill="#000000" fill-rule="nonzero" fill-opacity="1" /><path clip-path="url(#clip140)" d="M1372.41 135.638 L1377.29 135.638 L1377.29 141.518 L1372.41 141.518 L1372.41 135.638 Z" fill="#000000" fill-rule="nonzero" fill-opacity="1" /><path clip-path="url(#clip140)" d="M1400.32 111.032 L1388.52 129.481 L1400.32 129.481 L1400.32 111.032 M1399.1 106.958 L1404.98 106.958 L1404.98 129.481 L1409.91 129.481 L1409.91 133.37 L1404.98 133.37 L1404.98 141.518 L1400.32 141.518 L1400.32 133.37 L1384.72 133.37 L1384.72 128.856 L1399.1 106.958 Z" fill="#000000" fill-rule="nonzero" fill-opacity="1" /><path clip-path="url(#clip140)" d="M1353.73 45.7919 Q1350.12 45.7919 1348.29 49.3567 Q1346.48 52.8984 1346.48 60.028 Q1346.48 67.1344 1348.29 70.6992 Q1350.12 74.2409 1353.73 74.2409 Q1357.36 74.2409 1359.17 70.6992 Q1361 67.1344 1361 60.028 Q1361 52.8984 1359.17 49.3567 Q1357.36 45.7919 1353.73 45.7919 M1353.73 42.0882 Q1359.54 42.0882 1362.59 46.6947 Q1365.67 51.278 1365.67 60.028 Q1365.67 68.7548 1362.59 73.3612 Q1359.54 77.9445 1353.73 77.9445 Q1347.92 77.9445 1344.84 73.3612 Q1341.78 68.7548 1341.78 60.028 Q1341.78 51.278 1344.84 46.6947 Q1347.92 42.0882 1353.73 42.0882 Z" fill="#000000" fill-rule="nonzero" fill-opacity="1" /><path clip-path="url(#clip140)" d="M1373.89 71.3936 L1378.77 71.3936 L1378.77 77.2732 L1373.89 77.2732 L1373.89 71.3936 Z" fill="#000000" fill-rule="nonzero" fill-opacity="1" /><path clip-path="url(#clip140)" d="M1389.01 42.7132 L1407.36 42.7132 L1407.36 46.6484 L1393.29 46.6484 L1393.29 55.1206 Q1394.31 54.7734 1395.32 54.6113 Q1396.34 54.4261 1397.36 54.4261 Q1403.15 54.4261 1406.53 57.5974 Q1409.91 60.7687 1409.91 66.1853 Q1409.91 71.764 1406.44 74.8658 Q1402.96 77.9445 1396.64 77.9445 Q1394.47 77.9445 1392.2 77.5742 Q1389.95 77.2038 1387.55 76.4631 L1387.55 71.764 Q1389.63 72.8983 1391.85 73.4538 Q1394.07 74.0094 1396.55 74.0094 Q1400.56 74.0094 1402.89 71.9029 Q1405.23 69.7964 1405.23 66.1853 Q1405.23 62.5742 1402.89 60.4678 Q1400.56 58.3613 1396.55 58.3613 Q1394.68 58.3613 1392.8 58.778 Q1390.95 59.1946 1389.01 60.0743 L1389.01 42.7132 Z" fill="#000000" fill-rule="nonzero" fill-opacity="1" /><path clip-path="url(#clip140)" d="M1265.47 298.084 Q1270.89 298.084 1276.97 299.823 Q1283.03 301.53 1287.92 304.235 Q1292.79 306.941 1296.01 310.483 Q1299.19 314.026 1299.19 317.408 Q1299.19 319.565 1298 321.176 Q1296.78 322.754 1294.75 323.623 Q1292.69 324.493 1290.43 324.912 Q1288.15 325.33 1285.67 325.33 Q1281.96 325.33 1277.94 324.525 Q1273.88 323.72 1270.21 322.367 Q1266.51 321.015 1263.16 319.115 Q1259.77 317.214 1257.33 315.121 Q1254.85 312.995 1253.4 310.612 Q1251.95 308.229 1251.95 306.007 Q1251.95 304.396 1252.66 303.108 Q1253.33 301.788 1254.52 300.95 Q1255.68 300.113 1257.07 299.533 Q1258.45 298.921 1260.06 298.632 Q1261.64 298.342 1262.96 298.213 Q1264.25 298.084 1265.47 298.084 M1261.38 302.432 Q1259.74 302.432 1258.52 302.561 Q1257.26 302.69 1256.01 303.044 Q1254.75 303.398 1254.07 304.171 Q1253.4 304.912 1253.4 306.071 Q1253.4 309.453 1260.32 313.253 Q1262.48 314.477 1265.41 315.572 Q1268.34 316.667 1269.73 317.053 Q1271.11 317.44 1274.52 318.342 L1274.52 304.558 Q1265.73 302.432 1261.38 302.432 M1276.62 305.137 L1276.62 318.857 Q1284.67 320.983 1289.69 320.983 Q1294.07 320.983 1295.91 320.081 Q1297.71 319.147 1297.71 317.408 Q1297.71 315.411 1295.72 313.543 Q1293.69 311.675 1290.02 309.775 Q1285.25 307.263 1276.62 305.137 Z" fill="#000000" fill-rule="nonzero" fill-opacity="1" /><path clip-path="url(#clip140)" d="M1248.99 253.776 Q1256.31 258.041 1263.47 260.11 Q1270.64 262.179 1277.99 262.179 Q1285.34 262.179 1292.57 260.11 Q1299.76 258.009 1307.05 253.776 L1307.05 258.869 Q1299.57 263.643 1292.34 266.03 Q1285.12 268.386 1277.99 268.386 Q1270.89 268.386 1263.7 266.03 Q1256.5 263.675 1248.99 258.869 L1248.99 253.776 Z" fill="#000000" fill-rule="nonzero" fill-opacity="1" /><path clip-path="url(#clip140)" d="M1268.28 221.757 Q1267.71 222.743 1267.45 223.921 Q1267.17 225.067 1267.17 226.467 Q1267.17 231.433 1270.41 234.106 Q1273.63 236.748 1279.67 236.748 L1298.45 236.748 L1298.45 242.636 L1262.81 242.636 L1262.81 236.748 L1268.34 236.748 Q1265.1 234.902 1263.54 231.942 Q1261.95 228.982 1261.95 224.749 Q1261.95 224.144 1262.04 223.412 Q1262.11 222.68 1262.26 221.789 L1268.28 221.757 Z" fill="#000000" fill-rule="nonzero" fill-opacity="1" /><path clip-path="url(#clip140)" d="M1280.53 199.413 Q1280.53 206.511 1282.16 209.248 Q1283.78 211.985 1287.7 211.985 Q1290.81 211.985 1292.66 209.948 Q1294.48 207.879 1294.48 204.347 Q1294.48 199.477 1291.04 196.549 Q1287.57 193.588 1281.84 193.588 L1280.53 193.588 L1280.53 199.413 M1278.12 187.732 L1298.45 187.732 L1298.45 193.588 L1293.04 193.588 Q1296.29 195.594 1297.85 198.586 Q1299.38 201.577 1299.38 205.906 Q1299.38 211.381 1296.32 214.627 Q1293.23 217.842 1288.08 217.842 Q1282.06 217.842 1279.01 213.831 Q1275.95 209.789 1275.95 201.8 L1275.95 193.588 L1275.38 193.588 Q1271.34 193.588 1269.14 196.262 Q1266.91 198.904 1266.91 203.71 Q1266.91 206.766 1267.64 209.662 Q1268.38 212.558 1269.84 215.232 L1264.43 215.232 Q1263.19 212.017 1262.58 208.993 Q1261.95 205.97 1261.95 203.105 Q1261.95 195.371 1265.96 191.551 Q1269.97 187.732 1278.12 187.732 Z" fill="#000000" fill-rule="nonzero" fill-opacity="1" /><path clip-path="url(#clip140)" d="M1268.22 152.211 L1248.93 152.211 L1248.93 146.355 L1298.45 146.355 L1298.45 152.211 L1293.11 152.211 Q1296.29 154.057 1297.85 156.89 Q1299.38 159.691 1299.38 163.638 Q1299.38 170.099 1294.22 174.173 Q1289.06 178.215 1280.66 178.215 Q1272.26 178.215 1267.1 174.173 Q1261.95 170.099 1261.95 163.638 Q1261.95 159.691 1263.51 156.89 Q1265.03 154.057 1268.22 152.211 M1280.66 172.168 Q1287.12 172.168 1290.81 169.526 Q1294.48 166.853 1294.48 162.206 Q1294.48 157.559 1290.81 154.885 Q1287.12 152.211 1280.66 152.211 Q1274.2 152.211 1270.54 154.885 Q1266.85 157.559 1266.85 162.206 Q1266.85 166.853 1270.54 169.526 Q1274.2 172.168 1280.66 172.168 Z" fill="#000000" fill-rule="nonzero" fill-opacity="1" /><path clip-path="url(#clip140)" d="M1248.99 135.215 L1248.99 130.122 Q1256.5 125.348 1263.7 122.993 Q1270.89 120.606 1277.99 120.606 Q1285.12 120.606 1292.34 122.993 Q1299.57 125.348 1307.05 130.122 L1307.05 135.215 Q1299.76 130.982 1292.57 128.913 Q1285.34 126.812 1277.99 126.812 Q1270.64 126.812 1263.47 128.913 Q1256.31 130.982 1248.99 135.215 Z" fill="#000000" fill-rule="nonzero" fill-opacity="1" /><polyline clip-path="url(#clip143)" style="stroke:#009af9; stroke-linecap:round; stroke-linejoin:round; stroke-width:4; stroke-opacity:1; fill:none" points="1471.57,381.217 1496.74,353.319 1521.9,290.033 1547.06,217.157 1572.22,151.939 1597.38,103.123 1622.55,72.7967 1647.71,58.8558 1672.87,57.1907 1698.03,63.2503 1723.2,72.9874 1748.36,83.3245 1773.52,92.2813 1798.68,98.8783 1823.85,102.916 1849.01,104.709 1874.17,104.831 1899.33,103.918 1924.49,102.535 1949.66,101.104 1974.82,99.8895 1999.98,99.0151 2025.14,98.4968 2050.31,98.2833 2075.47,98.2914 2100.63,98.4325 2125.79,98.6302 2150.95,98.8283 2176.12,98.9927 2201.28,99.1085 2226.44,99.1749 2251.6,99.2001 2276.77,99.1958 2301.93,99.1745 2327.09,99.1464 "/>
<polyline clip-path="url(#clip143)" style="stroke:#e26f46; stroke-linecap:round; stroke-linejoin:round; stroke-width:3; stroke-opacity:1; fill:none" stroke-dasharray="12, 6, 2, 6" points="1471.57,388.745 1496.74,355.077 1521.9,288.934 1547.06,217.026 1572.22,146.415 1597.38,111.773 1622.55,73.642 1647.71,70.1608 1672.87,61.7995 1698.03,70.7608 1723.2,71.6451 1748.36,80.4942 1773.52,83.7729 1798.68,99.6212 1823.85,96.6251 1849.01,111.184 1874.17,103.059 1899.33,92.7345 1924.49,101.542 1949.66,103.632 1974.82,95.1953 1999.98,95.3702 2025.14,100.697 2050.31,108.494 2075.47,103.969 2100.63,96.1756 2125.79,93.3841 2150.95,107.985 2176.12,98.3453 2201.28,98.9788 2226.44,101.128 2251.6,99.4547 2276.77,96.9665 2301.93,101.201 2327.09,97.509 "/>
<path clip-path="url(#clip140)" d="M2203.01 386.977 L2322.53 386.977 L2322.53 231.457 L2203.01 231.457  Z" fill="#ffffff" fill-rule="evenodd" fill-opacity="1"/>
<polyline clip-path="url(#clip140)" style="stroke:#000000; stroke-linecap:round; stroke-linejoin:round; stroke-width:4; stroke-opacity:1; fill:none" points="2203.01,386.977 2322.53,386.977 2322.53,231.457 2203.01,231.457 2203.01,386.977 "/>
<polyline clip-path="url(#clip140)" style="stroke:#009af9; stroke-linecap:round; stroke-linejoin:round; stroke-width:4; stroke-opacity:1; fill:none" points="2213.09,283.297 2273.55,283.297 "/>
<path clip-path="url(#clip140)" d="M2310.63 293.836 L2305.36 293.695 L2299.6 293.836 L2299.6 291.587 L2301.47 291.587 L2296.2 285.357 L2291.54 290.58 L2291.21 291.049 Q2291.21 291.26 2291.75 291.423 Q2292.31 291.587 2292.97 291.587 L2292.97 293.836 L2288.03 293.695 L2283.62 293.836 L2283.62 291.587 Q2285.1 291.587 2285.78 291.564 Q2286.48 291.517 2287.28 291.306 Q2288.07 291.096 2288.47 290.674 L2294.75 283.624 L2287.28 274.794 L2283.86 274.794 L2283.86 272.545 L2289.15 272.686 L2294.94 272.545 L2294.94 274.794 L2293.01 274.794 L2297.72 280.298 L2301.75 275.801 Q2301.77 275.777 2302.15 275.215 Q2301.4 274.794 2300.32 274.794 L2300.32 272.545 L2305.26 272.686 L2309.67 272.545 L2309.67 274.794 Q2307.75 274.794 2306.74 274.934 Q2305.76 275.051 2305.45 275.215 Q2305.17 275.379 2304.77 275.801 L2299.17 282.031 L2307.23 291.587 L2310.63 291.587 L2310.63 293.836 Z" fill="#000000" fill-rule="nonzero" fill-opacity="1" /><polyline clip-path="url(#clip140)" style="stroke:#e26f46; stroke-linecap:round; stroke-linejoin:round; stroke-width:3; stroke-opacity:1; fill:none" stroke-dasharray="12, 6, 2, 6" points="2213.09,335.137 2273.55,335.137 "/>
<path clip-path="url(#clip140)" d="M2306.21 323.615 L2305.8 324.287 Q2303.26 323.189 2300.09 321.434 Q2296.93 323.189 2294.39 324.287 L2293.99 323.615 Q2296.76 321.205 2300.09 319.352 Q2303.45 321.221 2306.21 323.615 Z" fill="#000000" fill-rule="nonzero" fill-opacity="1" /><path clip-path="url(#clip140)" d="M2310.63 350.681 L2305.36 350.54 L2299.6 350.681 L2299.6 348.432 L2301.47 348.432 L2296.2 342.202 L2291.54 347.425 L2291.21 347.893 Q2291.21 348.104 2291.75 348.268 Q2292.31 348.432 2292.97 348.432 L2292.97 350.681 L2288.03 350.54 L2283.62 350.681 L2283.62 348.432 Q2285.1 348.432 2285.78 348.409 Q2286.48 348.362 2287.28 348.151 Q2288.07 347.94 2288.47 347.519 L2294.75 340.468 L2287.28 331.638 L2283.86 331.638 L2283.86 329.39 L2289.15 329.53 L2294.94 329.39 L2294.94 331.638 L2293.01 331.638 L2297.72 337.142 L2301.75 332.645 Q2301.77 332.622 2302.15 332.06 Q2301.4 331.638 2300.32 331.638 L2300.32 329.39 L2305.26 329.53 L2309.67 329.39 L2309.67 331.638 Q2307.75 331.638 2306.74 331.779 Q2305.76 331.896 2305.45 332.06 Q2305.17 332.224 2304.77 332.645 L2299.17 338.876 L2307.23 348.432 L2310.63 348.432 L2310.63 350.681 Z" fill="#000000" fill-rule="nonzero" fill-opacity="1" /><path clip-path="url(#clip140)" d="M1445.91 910.936 L2352.76 910.936 L2352.76 559.488 L1445.91 559.488  Z" fill="#ffffff" fill-rule="evenodd" fill-opacity="1"/>
<defs>
  <clipPath id="clip144">
    <rect x="1445" y="559" width="908" height="352"/>
  </clipPath>
</defs>
<polyline clip-path="url(#clip144)" style="stroke:#000000; stroke-linecap:round; stroke-linejoin:round; stroke-width:2; stroke-opacity:0.1; fill:none" points="1471.57,910.936 1471.57,559.488 "/>
<polyline clip-path="url(#clip144)" style="stroke:#000000; stroke-linecap:round; stroke-linejoin:round; stroke-width:2; stroke-opacity:0.1; fill:none" points="1723.2,910.936 1723.2,559.488 "/>
<polyline clip-path="url(#clip144)" style="stroke:#000000; stroke-linecap:round; stroke-linejoin:round; stroke-width:2; stroke-opacity:0.1; fill:none" points="1974.82,910.936 1974.82,559.488 "/>
<polyline clip-path="url(#clip144)" style="stroke:#000000; stroke-linecap:round; stroke-linejoin:round; stroke-width:2; stroke-opacity:0.1; fill:none" points="2226.44,910.936 2226.44,559.488 "/>
<polyline clip-path="url(#clip144)" style="stroke:#000000; stroke-linecap:round; stroke-linejoin:round; stroke-width:2; stroke-opacity:0.1; fill:none" points="1445.91,855.157 2352.76,855.157 "/>
<polyline clip-path="url(#clip144)" style="stroke:#000000; stroke-linecap:round; stroke-linejoin:round; stroke-width:2; stroke-opacity:0.1; fill:none" points="1445.91,785.043 2352.76,785.043 "/>
<polyline clip-path="url(#clip144)" style="stroke:#000000; stroke-linecap:round; stroke-linejoin:round; stroke-width:2; stroke-opacity:0.1; fill:none" points="1445.91,714.928 2352.76,714.928 "/>
<polyline clip-path="url(#clip144)" style="stroke:#000000; stroke-linecap:round; stroke-linejoin:round; stroke-width:2; stroke-opacity:0.1; fill:none" points="1445.91,644.814 2352.76,644.814 "/>
<polyline clip-path="url(#clip144)" style="stroke:#000000; stroke-linecap:round; stroke-linejoin:round; stroke-width:2; stroke-opacity:0.1; fill:none" points="1445.91,574.7 2352.76,574.7 "/>
<polyline clip-path="url(#clip140)" style="stroke:#000000; stroke-linecap:round; stroke-linejoin:round; stroke-width:4; stroke-opacity:1; fill:none" points="1445.91,910.936 2352.76,910.936 "/>
<polyline clip-path="url(#clip140)" style="stroke:#000000; stroke-linecap:round; stroke-linejoin:round; stroke-width:4; stroke-opacity:1; fill:none" points="1471.57,910.936 1471.57,892.038 "/>
<polyline clip-path="url(#clip140)" style="stroke:#000000; stroke-linecap:round; stroke-linejoin:round; stroke-width:4; stroke-opacity:1; fill:none" points="1723.2,910.936 1723.2,892.038 "/>
<polyline clip-path="url(#clip140)" style="stroke:#000000; stroke-linecap:round; stroke-linejoin:round; stroke-width:4; stroke-opacity:1; fill:none" points="1974.82,910.936 1974.82,892.038 "/>
<polyline clip-path="url(#clip140)" style="stroke:#000000; stroke-linecap:round; stroke-linejoin:round; stroke-width:4; stroke-opacity:1; fill:none" points="2226.44,910.936 2226.44,892.038 "/>
<path clip-path="url(#clip140)" d="M1471.57 941.855 Q1467.96 941.855 1466.13 945.419 Q1464.33 948.961 1464.33 956.091 Q1464.33 963.197 1466.13 966.762 Q1467.96 970.303 1471.57 970.303 Q1475.21 970.303 1477.01 966.762 Q1478.84 963.197 1478.84 956.091 Q1478.84 948.961 1477.01 945.419 Q1475.21 941.855 1471.57 941.855 M1471.57 938.151 Q1477.38 938.151 1480.44 942.757 Q1483.52 947.341 1483.52 956.091 Q1483.52 964.817 1480.44 969.424 Q1477.38 974.007 1471.57 974.007 Q1465.76 974.007 1462.68 969.424 Q1459.63 964.817 1459.63 956.091 Q1459.63 947.341 1462.68 942.757 Q1465.76 938.151 1471.57 938.151 Z" fill="#000000" fill-rule="nonzero" fill-opacity="1" /><path clip-path="url(#clip140)" d="M1713.58 969.401 L1721.22 969.401 L1721.22 943.035 L1712.91 944.702 L1712.91 940.443 L1721.17 938.776 L1725.85 938.776 L1725.85 969.401 L1733.49 969.401 L1733.49 973.336 L1713.58 973.336 L1713.58 969.401 Z" fill="#000000" fill-rule="nonzero" fill-opacity="1" /><path clip-path="url(#clip140)" d="M1969.47 969.401 L1985.79 969.401 L1985.79 973.336 L1963.85 973.336 L1963.85 969.401 Q1966.51 966.646 1971.09 962.016 Q1975.7 957.364 1976.88 956.021 Q1979.12 953.498 1980 951.762 Q1980.91 950.003 1980.91 948.313 Q1980.91 945.558 1978.96 943.822 Q1977.04 942.086 1973.94 942.086 Q1971.74 942.086 1969.29 942.85 Q1966.86 943.614 1964.08 945.165 L1964.08 940.443 Q1966.9 939.308 1969.36 938.73 Q1971.81 938.151 1973.85 938.151 Q1979.22 938.151 1982.41 940.836 Q1985.61 943.521 1985.61 948.012 Q1985.61 950.142 1984.8 952.063 Q1984.01 953.961 1981.9 956.554 Q1981.32 957.225 1978.22 960.442 Q1975.12 963.637 1969.47 969.401 Z" fill="#000000" fill-rule="nonzero" fill-opacity="1" /><path clip-path="url(#clip140)" d="M2230.69 954.702 Q2234.05 955.419 2235.92 957.688 Q2237.82 959.956 2237.82 963.29 Q2237.82 968.405 2234.3 971.206 Q2230.78 974.007 2224.3 974.007 Q2222.12 974.007 2219.81 973.567 Q2217.52 973.151 2215.06 972.294 L2215.06 967.78 Q2217.01 968.915 2219.32 969.493 Q2221.64 970.072 2224.16 970.072 Q2228.56 970.072 2230.85 968.336 Q2233.17 966.6 2233.17 963.29 Q2233.17 960.234 2231.01 958.521 Q2228.88 956.785 2225.06 956.785 L2221.04 956.785 L2221.04 952.942 L2225.25 952.942 Q2228.7 952.942 2230.53 951.577 Q2232.36 950.188 2232.36 947.595 Q2232.36 944.933 2230.46 943.521 Q2228.58 942.086 2225.06 942.086 Q2223.14 942.086 2220.94 942.503 Q2218.74 942.919 2216.11 943.799 L2216.11 939.632 Q2218.77 938.892 2221.08 938.521 Q2223.42 938.151 2225.48 938.151 Q2230.8 938.151 2233.91 940.581 Q2237.01 942.989 2237.01 947.109 Q2237.01 949.979 2235.36 951.97 Q2233.72 953.938 2230.69 954.702 Z" fill="#000000" fill-rule="nonzero" fill-opacity="1" /><polyline clip-path="url(#clip140)" style="stroke:#000000; stroke-linecap:round; stroke-linejoin:round; stroke-width:4; stroke-opacity:1; fill:none" points="1445.91,910.936 1445.91,559.488 "/>
<polyline clip-path="url(#clip140)" style="stroke:#000000; stroke-linecap:round; stroke-linejoin:round; stroke-width:4; stroke-opacity:1; fill:none" points="1445.91,855.157 1464.81,855.157 "/>
<polyline clip-path="url(#clip140)" style="stroke:#000000; stroke-linecap:round; stroke-linejoin:round; stroke-width:4; stroke-opacity:1; fill:none" points="1445.91,785.043 1464.81,785.043 "/>
<polyline clip-path="url(#clip140)" style="stroke:#000000; stroke-linecap:round; stroke-linejoin:round; stroke-width:4; stroke-opacity:1; fill:none" points="1445.91,714.928 1464.81,714.928 "/>
<polyline clip-path="url(#clip140)" style="stroke:#000000; stroke-linecap:round; stroke-linejoin:round; stroke-width:4; stroke-opacity:1; fill:none" points="1445.91,644.814 1464.81,644.814 "/>
<polyline clip-path="url(#clip140)" style="stroke:#000000; stroke-linecap:round; stroke-linejoin:round; stroke-width:4; stroke-opacity:1; fill:none" points="1445.91,574.7 1464.81,574.7 "/>
<path clip-path="url(#clip140)" d="M1352.73 840.956 Q1349.12 840.956 1347.29 844.521 Q1345.49 848.063 1345.49 855.192 Q1345.49 862.299 1347.29 865.863 Q1349.12 869.405 1352.73 869.405 Q1356.37 869.405 1358.17 865.863 Q1360 862.299 1360 855.192 Q1360 848.063 1358.17 844.521 Q1356.37 840.956 1352.73 840.956 M1352.73 837.252 Q1358.54 837.252 1361.6 841.859 Q1364.68 846.442 1364.68 855.192 Q1364.68 863.919 1361.6 868.525 Q1358.54 873.109 1352.73 873.109 Q1346.92 873.109 1343.84 868.525 Q1340.79 863.919 1340.79 855.192 Q1340.79 846.442 1343.84 841.859 Q1346.92 837.252 1352.73 837.252 Z" fill="#000000" fill-rule="nonzero" fill-opacity="1" /><path clip-path="url(#clip140)" d="M1372.89 866.558 L1377.78 866.558 L1377.78 872.437 L1372.89 872.437 L1372.89 866.558 Z" fill="#000000" fill-rule="nonzero" fill-opacity="1" /><path clip-path="url(#clip140)" d="M1397.96 840.956 Q1394.35 840.956 1392.52 844.521 Q1390.72 848.063 1390.72 855.192 Q1390.72 862.299 1392.52 865.863 Q1394.35 869.405 1397.96 869.405 Q1401.6 869.405 1403.4 865.863 Q1405.23 862.299 1405.23 855.192 Q1405.23 848.063 1403.4 844.521 Q1401.6 840.956 1397.96 840.956 M1397.96 837.252 Q1403.77 837.252 1406.83 841.859 Q1409.91 846.442 1409.91 855.192 Q1409.91 863.919 1406.83 868.525 Q1403.77 873.109 1397.96 873.109 Q1392.15 873.109 1389.07 868.525 Q1386.02 863.919 1386.02 855.192 Q1386.02 846.442 1389.07 841.859 Q1392.15 837.252 1397.96 837.252 Z" fill="#000000" fill-rule="nonzero" fill-opacity="1" /><path clip-path="url(#clip140)" d="M1353.38 770.842 Q1349.77 770.842 1347.94 774.406 Q1346.13 777.948 1346.13 785.078 Q1346.13 792.184 1347.94 795.749 Q1349.77 799.291 1353.38 799.291 Q1357.01 799.291 1358.82 795.749 Q1360.65 792.184 1360.65 785.078 Q1360.65 777.948 1358.82 774.406 Q1357.01 770.842 1353.38 770.842 M1353.38 767.138 Q1359.19 767.138 1362.25 771.744 Q1365.32 776.328 1365.32 785.078 Q1365.32 793.804 1362.25 798.411 Q1359.19 802.994 1353.38 802.994 Q1347.57 802.994 1344.49 798.411 Q1341.44 793.804 1341.44 785.078 Q1341.44 776.328 1344.49 771.744 Q1347.57 767.138 1353.38 767.138 Z" fill="#000000" fill-rule="nonzero" fill-opacity="1" /><path clip-path="url(#clip140)" d="M1373.54 796.443 L1378.43 796.443 L1378.43 802.323 L1373.54 802.323 L1373.54 796.443 Z" fill="#000000" fill-rule="nonzero" fill-opacity="1" /><path clip-path="url(#clip140)" d="M1402.78 783.689 Q1406.13 784.406 1408.01 786.675 Q1409.91 788.943 1409.91 792.277 Q1409.91 797.392 1406.39 800.193 Q1402.87 802.994 1396.39 802.994 Q1394.21 802.994 1391.9 802.554 Q1389.61 802.138 1387.15 801.281 L1387.15 796.767 Q1389.1 797.902 1391.41 798.48 Q1393.73 799.059 1396.25 799.059 Q1400.65 799.059 1402.94 797.323 Q1405.26 795.587 1405.26 792.277 Q1405.26 789.221 1403.1 787.508 Q1400.97 785.772 1397.15 785.772 L1393.13 785.772 L1393.13 781.93 L1397.34 781.93 Q1400.79 781.93 1402.62 780.564 Q1404.44 779.175 1404.44 776.582 Q1404.44 773.92 1402.55 772.508 Q1400.67 771.073 1397.15 771.073 Q1395.23 771.073 1393.03 771.49 Q1390.83 771.906 1388.19 772.786 L1388.19 768.619 Q1390.86 767.879 1393.17 767.508 Q1395.51 767.138 1397.57 767.138 Q1402.89 767.138 1406 769.568 Q1409.1 771.976 1409.1 776.096 Q1409.1 778.967 1407.45 780.957 Q1405.81 782.925 1402.78 783.689 Z" fill="#000000" fill-rule="nonzero" fill-opacity="1" /><path clip-path="url(#clip140)" d="M1352.57 700.727 Q1348.96 700.727 1347.13 704.292 Q1345.32 707.834 1345.32 714.963 Q1345.32 722.07 1347.13 725.634 Q1348.96 729.176 1352.57 729.176 Q1356.2 729.176 1358.01 725.634 Q1359.84 722.07 1359.84 714.963 Q1359.84 707.834 1358.01 704.292 Q1356.2 700.727 1352.57 700.727 M1352.57 697.023 Q1358.38 697.023 1361.44 701.63 Q1364.51 706.213 1364.51 714.963 Q1364.51 723.69 1361.44 728.296 Q1358.38 732.88 1352.57 732.88 Q1346.76 732.88 1343.68 728.296 Q1340.63 723.69 1340.63 714.963 Q1340.63 706.213 1343.68 701.63 Q1346.76 697.023 1352.57 697.023 Z" fill="#000000" fill-rule="nonzero" fill-opacity="1" /><path clip-path="url(#clip140)" d="M1372.73 726.329 L1377.62 726.329 L1377.62 732.208 L1372.73 732.208 L1372.73 726.329 Z" fill="#000000" fill-rule="nonzero" fill-opacity="1" /><path clip-path="url(#clip140)" d="M1398.38 713.065 Q1395.23 713.065 1393.38 715.218 Q1391.55 717.371 1391.55 721.121 Q1391.55 724.847 1393.38 727.023 Q1395.23 729.176 1398.38 729.176 Q1401.53 729.176 1403.36 727.023 Q1405.21 724.847 1405.21 721.121 Q1405.21 717.371 1403.36 715.218 Q1401.53 713.065 1398.38 713.065 M1407.66 698.412 L1407.66 702.672 Q1405.9 701.838 1404.1 701.398 Q1402.32 700.959 1400.56 700.959 Q1395.93 700.959 1393.47 704.084 Q1391.04 707.209 1390.69 713.528 Q1392.06 711.514 1394.12 710.449 Q1396.18 709.361 1398.66 709.361 Q1403.87 709.361 1406.88 712.533 Q1409.91 715.681 1409.91 721.121 Q1409.91 726.445 1406.76 729.662 Q1403.61 732.88 1398.38 732.88 Q1392.38 732.88 1389.21 728.296 Q1386.04 723.69 1386.04 714.963 Q1386.04 706.769 1389.93 701.908 Q1393.82 697.023 1400.37 697.023 Q1402.13 697.023 1403.91 697.371 Q1405.72 697.718 1407.66 698.412 Z" fill="#000000" fill-rule="nonzero" fill-opacity="1" /><path clip-path="url(#clip140)" d="M1352.92 630.613 Q1349.31 630.613 1347.48 634.177 Q1345.67 637.719 1345.67 644.849 Q1345.67 651.955 1347.48 655.52 Q1349.31 659.062 1352.92 659.062 Q1356.55 659.062 1358.36 655.52 Q1360.19 651.955 1360.19 644.849 Q1360.19 637.719 1358.36 634.177 Q1356.55 630.613 1352.92 630.613 M1352.92 626.909 Q1358.73 626.909 1361.78 631.515 Q1364.86 636.099 1364.86 644.849 Q1364.86 653.576 1361.78 658.182 Q1358.73 662.765 1352.92 662.765 Q1347.11 662.765 1344.03 658.182 Q1340.97 653.576 1340.97 644.849 Q1340.97 636.099 1344.03 631.515 Q1347.11 626.909 1352.92 626.909 Z" fill="#000000" fill-rule="nonzero" fill-opacity="1" /><path clip-path="url(#clip140)" d="M1373.08 656.214 L1377.96 656.214 L1377.96 662.094 L1373.08 662.094 L1373.08 656.214 Z" fill="#000000" fill-rule="nonzero" fill-opacity="1" /><path clip-path="url(#clip140)" d="M1388.29 661.376 L1388.29 657.117 Q1390.05 657.951 1391.85 658.39 Q1393.66 658.83 1395.39 658.83 Q1400.02 658.83 1402.45 655.728 Q1404.91 652.603 1405.26 646.261 Q1403.91 648.251 1401.85 649.316 Q1399.79 650.381 1397.29 650.381 Q1392.11 650.381 1389.07 647.256 Q1386.07 644.108 1386.07 638.668 Q1386.07 633.344 1389.21 630.127 Q1392.36 626.909 1397.59 626.909 Q1403.59 626.909 1406.74 631.515 Q1409.91 636.099 1409.91 644.849 Q1409.91 653.02 1406.02 657.904 Q1402.15 662.765 1395.6 662.765 Q1393.84 662.765 1392.04 662.418 Q1390.23 662.071 1388.29 661.376 M1397.59 646.724 Q1400.74 646.724 1402.57 644.571 Q1404.42 642.418 1404.42 638.668 Q1404.42 634.941 1402.57 632.789 Q1400.74 630.613 1397.59 630.613 Q1394.44 630.613 1392.59 632.789 Q1390.76 634.941 1390.76 638.668 Q1390.76 642.418 1392.59 644.571 Q1394.44 646.724 1397.59 646.724 Z" fill="#000000" fill-rule="nonzero" fill-opacity="1" /><path clip-path="url(#clip140)" d="M1345.14 588.044 L1352.78 588.044 L1352.78 561.679 L1344.47 563.345 L1344.47 559.086 L1352.73 557.42 L1357.41 557.42 L1357.41 588.044 L1365.05 588.044 L1365.05 591.98 L1345.14 591.98 L1345.14 588.044 Z" fill="#000000" fill-rule="nonzero" fill-opacity="1" /><path clip-path="url(#clip140)" d="M1374.49 586.1 L1379.38 586.1 L1379.38 591.98 L1374.49 591.98 L1374.49 586.1 Z" fill="#000000" fill-rule="nonzero" fill-opacity="1" /><path clip-path="url(#clip140)" d="M1393.59 588.044 L1409.91 588.044 L1409.91 591.98 L1387.96 591.98 L1387.96 588.044 Q1390.63 585.29 1395.21 580.66 Q1399.82 576.007 1401 574.665 Q1403.24 572.142 1404.12 570.406 Q1405.02 568.646 1405.02 566.957 Q1405.02 564.202 1403.08 562.466 Q1401.16 560.73 1398.06 560.73 Q1395.86 560.73 1393.4 561.494 Q1390.97 562.257 1388.19 563.808 L1388.19 559.086 Q1391.02 557.952 1393.47 557.373 Q1395.93 556.795 1397.96 556.795 Q1403.33 556.795 1406.53 559.48 Q1409.72 562.165 1409.72 566.656 Q1409.72 568.785 1408.91 570.707 Q1408.13 572.605 1406.02 575.197 Q1405.44 575.869 1402.34 579.086 Q1399.24 582.281 1393.59 588.044 Z" fill="#000000" fill-rule="nonzero" fill-opacity="1" /><path clip-path="url(#clip140)" d="M1265.64 831.559 Q1268.64 831.559 1274.44 833.072 Q1276.95 833.684 1279.23 834.522 Q1281.49 835.327 1283.68 836.518 Q1285.87 837.71 1287.45 839.095 Q1288.99 840.48 1289.96 842.283 Q1290.92 844.087 1290.92 846.084 Q1290.92 849.24 1289.06 851.108 Q1287.16 852.943 1283.9 853.523 Q1290.92 857.839 1290.92 863.604 Q1290.92 867.178 1288.38 868.853 Q1285.8 870.528 1281.49 870.528 Q1277.85 870.528 1274.08 869.562 Q1266.93 867.726 1261.94 864.151 Q1261.36 863.668 1261.36 862.959 Q1261.36 862.541 1261.49 862.347 Q1261.84 861.768 1262.42 861.768 Q1262.84 861.768 1263.26 862.09 Q1266.38 864.344 1269.06 865.826 Q1271.73 867.307 1274.44 867.984 Q1276.75 868.499 1278.72 868.499 Q1282.04 868.499 1284.1 867.082 Q1286.16 865.632 1286.16 862.766 Q1286.16 860.125 1284.52 857.806 Q1282.84 855.488 1280.04 853.781 Q1276.98 853.684 1274.08 852.943 Q1270.99 852.267 1270.99 850.689 Q1270.99 849.433 1272.7 849.433 Q1273.28 849.433 1274.44 849.691 Q1277.49 850.399 1280.23 851.687 Q1282.91 851.236 1284.55 849.562 Q1286.16 847.887 1286.16 845.214 Q1286.16 842.734 1284.35 840.544 Q1282.55 838.322 1279.91 836.905 Q1277.24 835.456 1274.08 834.65 Q1273.02 834.393 1271.67 834.393 Q1268.06 834.393 1265.84 836.905 Q1265.13 837.613 1264.19 837.613 Q1263.1 837.613 1262.1 836.712 Q1261.04 835.649 1261.04 834.393 Q1261.04 833.459 1261.62 832.879 Q1262.78 831.559 1265.64 831.559 Z" fill="#000000" fill-rule="nonzero" fill-opacity="1" /><path clip-path="url(#clip140)" d="M1240.72 788.989 Q1248.04 793.255 1255.2 795.323 Q1262.37 797.392 1269.72 797.392 Q1277.07 797.392 1284.3 795.323 Q1291.49 793.223 1298.78 788.989 L1298.78 794.082 Q1291.3 798.856 1284.07 801.243 Q1276.85 803.599 1269.72 803.599 Q1262.62 803.599 1255.43 801.243 Q1248.23 798.888 1240.72 794.082 L1240.72 788.989 Z" fill="#000000" fill-rule="nonzero" fill-opacity="1" /><path clip-path="url(#clip140)" d="M1260.01 756.97 Q1259.44 757.957 1259.18 759.134 Q1258.9 760.28 1258.9 761.681 Q1258.9 766.646 1262.14 769.319 Q1265.36 771.961 1271.41 771.961 L1290.18 771.961 L1290.18 777.85 L1254.54 777.85 L1254.54 771.961 L1260.07 771.961 Q1256.83 770.115 1255.27 767.155 Q1253.68 764.195 1253.68 759.962 Q1253.68 759.357 1253.77 758.625 Q1253.84 757.893 1254 757.002 L1260.01 756.97 Z" fill="#000000" fill-rule="nonzero" fill-opacity="1" /><path clip-path="url(#clip140)" d="M1272.26 734.626 Q1272.26 741.724 1273.89 744.461 Q1275.51 747.199 1279.43 747.199 Q1282.55 747.199 1284.39 745.162 Q1286.21 743.093 1286.21 739.56 Q1286.21 734.69 1282.77 731.762 Q1279.3 728.802 1273.57 728.802 L1272.26 728.802 L1272.26 734.626 M1269.85 722.945 L1290.18 722.945 L1290.18 728.802 L1284.77 728.802 Q1288.02 730.807 1289.58 733.799 Q1291.11 736.791 1291.11 741.119 Q1291.11 746.594 1288.05 749.84 Q1284.96 753.055 1279.81 753.055 Q1273.79 753.055 1270.74 749.045 Q1267.68 745.002 1267.68 737.013 L1267.68 728.802 L1267.11 728.802 Q1263.07 728.802 1260.87 731.475 Q1258.64 734.117 1258.64 738.923 Q1258.64 741.979 1259.37 744.875 Q1260.11 747.772 1261.57 750.445 L1256.16 750.445 Q1254.92 747.23 1254.31 744.207 Q1253.68 741.183 1253.68 738.318 Q1253.68 730.584 1257.69 726.765 Q1261.7 722.945 1269.85 722.945 Z" fill="#000000" fill-rule="nonzero" fill-opacity="1" /><path clip-path="url(#clip140)" d="M1259.95 687.425 L1240.66 687.425 L1240.66 681.568 L1290.18 681.568 L1290.18 687.425 L1284.84 687.425 Q1288.02 689.271 1289.58 692.103 Q1291.11 694.904 1291.11 698.851 Q1291.11 705.312 1285.95 709.386 Q1280.79 713.429 1272.39 713.429 Q1263.99 713.429 1258.83 709.386 Q1253.68 705.312 1253.68 698.851 Q1253.68 694.904 1255.24 692.103 Q1256.76 689.271 1259.95 687.425 M1272.39 707.381 Q1278.85 707.381 1282.55 704.739 Q1286.21 702.066 1286.21 697.419 Q1286.21 692.772 1282.55 690.098 Q1278.85 687.425 1272.39 687.425 Q1265.93 687.425 1262.27 690.098 Q1258.58 692.772 1258.58 697.419 Q1258.58 702.066 1262.27 704.739 Q1265.93 707.381 1272.39 707.381 Z" fill="#000000" fill-rule="nonzero" fill-opacity="1" /><path clip-path="url(#clip140)" d="M1242.66 659.097 L1242.66 653.686 L1296.23 670.237 L1296.23 675.648 L1242.66 659.097 Z" fill="#000000" fill-rule="nonzero" fill-opacity="1" /><path clip-path="url(#clip140)" d="M1255.59 624.818 L1261.12 624.818 Q1259.85 627.301 1259.21 629.974 Q1258.58 632.648 1258.58 635.512 Q1258.58 639.873 1259.92 642.069 Q1261.25 644.233 1263.93 644.233 Q1265.96 644.233 1267.14 642.674 Q1268.29 641.114 1269.34 636.404 L1269.78 634.398 Q1271.12 628.16 1273.57 625.55 Q1275.99 622.908 1280.35 622.908 Q1285.31 622.908 1288.21 626.855 Q1291.11 630.77 1291.11 637.645 Q1291.11 640.509 1290.53 643.629 Q1289.99 646.716 1288.88 650.153 L1282.83 650.153 Q1284.52 646.907 1285.38 643.756 Q1286.21 640.605 1286.21 637.517 Q1286.21 633.38 1284.81 631.152 Q1283.37 628.924 1280.79 628.924 Q1278.41 628.924 1277.13 630.547 Q1275.86 632.138 1274.68 637.581 L1274.21 639.618 Q1273.06 645.061 1270.71 647.48 Q1268.32 649.899 1264.18 649.899 Q1259.15 649.899 1256.41 646.334 Q1253.68 642.769 1253.68 636.213 Q1253.68 632.966 1254.15 630.101 Q1254.63 627.237 1255.59 624.818 Z" fill="#000000" fill-rule="nonzero" fill-opacity="1" /><path clip-path="url(#clip140)" d="M1240.72 614.505 L1240.72 609.413 Q1248.23 604.639 1255.43 602.283 Q1262.62 599.896 1269.72 599.896 Q1276.85 599.896 1284.07 602.283 Q1291.3 604.639 1298.78 609.413 L1298.78 614.505 Q1291.49 610.272 1284.3 608.203 Q1277.07 606.103 1269.72 606.103 Q1262.37 606.103 1255.2 608.203 Q1248.04 610.272 1240.72 614.505 Z" fill="#000000" fill-rule="nonzero" fill-opacity="1" /><polyline clip-path="url(#clip144)" style="stroke:#009af9; stroke-linecap:round; stroke-linejoin:round; stroke-width:4; stroke-opacity:1; fill:none" points="1471.57,855.157 1496.74,671.146 1521.9,594.188 1547.06,596.228 1572.22,644.788 1597.38,711.569 1622.55,776.813 1647.71,829.593 1672.87,865.871 1698.03,886.101 1723.2,893.21 1748.36,891.126 1773.52,883.768 1798.68,874.426 1823.85,865.456 1849.01,858.245 1874.17,853.339 1899.33,850.675 1924.49,849.83 1949.66,850.232 1974.82,851.322 1999.98,852.641 2025.14,853.872 2050.31,854.84 2075.47,855.481 2100.63,855.815 2125.79,855.904 2150.95,855.831 2176.12,855.671 2201.28,855.486 2226.44,855.317 2251.6,855.188 2276.77,855.104 2301.93,855.062 2327.09,855.053 "/>
<polyline clip-path="url(#clip144)" style="stroke:#e26f46; stroke-linecap:round; stroke-linejoin:round; stroke-width:3; stroke-opacity:1; fill:none" stroke-dasharray="12, 6, 2, 6" points="1471.57,855.157 1496.74,648.591 1521.9,569.435 1547.06,581.896 1572.22,626.218 1597.38,728.944 1622.55,774.899 1647.71,851.608 1672.87,871.623 1698.03,900.989 1723.2,894.255 1748.36,898.143 1773.52,886.394 1798.68,895.121 1823.85,867.045 1849.01,879.374 1874.17,849.412 1899.33,837.698 1924.49,861.873 1949.66,859.647 1974.82,844.314 1999.98,852.461 2025.14,862.317 2050.31,867.519 2075.47,850.842 2100.63,841.767 2125.79,847.565 2150.95,873.549 2176.12,847.011 2201.28,853.275 2226.44,857.557 2251.6,853.499 2276.77,851.39 2301.93,860.168 2327.09,851.758 "/>
<path clip-path="url(#clip140)" d="M2203.01 726.723 L2322.53 726.723 L2322.53 571.203 L2203.01 571.203  Z" fill="#ffffff" fill-rule="evenodd" fill-opacity="1"/>
<polyline clip-path="url(#clip140)" style="stroke:#000000; stroke-linecap:round; stroke-linejoin:round; stroke-width:4; stroke-opacity:1; fill:none" points="2203.01,726.723 2322.53,726.723 2322.53,571.203 2203.01,571.203 2203.01,726.723 "/>
<polyline clip-path="url(#clip140)" style="stroke:#009af9; stroke-linecap:round; stroke-linejoin:round; stroke-width:4; stroke-opacity:1; fill:none" points="2213.09,623.043 2273.55,623.043 "/>
<path clip-path="url(#clip140)" d="M2310.63 633.582 L2305.36 633.442 L2299.6 633.582 L2299.6 631.334 L2301.47 631.334 L2296.2 625.103 L2291.54 630.326 L2291.21 630.795 Q2291.21 631.006 2291.75 631.17 Q2292.31 631.334 2292.97 631.334 L2292.97 633.582 L2288.03 633.442 L2283.62 633.582 L2283.62 631.334 Q2285.1 631.334 2285.78 631.31 Q2286.48 631.263 2287.28 631.052 Q2288.07 630.842 2288.47 630.42 L2294.75 623.37 L2287.28 614.54 L2283.86 614.54 L2283.86 612.291 L2289.15 612.432 L2294.94 612.291 L2294.94 614.54 L2293.01 614.54 L2297.72 620.044 L2301.75 615.547 Q2301.77 615.523 2302.15 614.961 Q2301.4 614.54 2300.32 614.54 L2300.32 612.291 L2305.26 612.432 L2309.67 612.291 L2309.67 614.54 Q2307.75 614.54 2306.74 614.68 Q2305.76 614.797 2305.45 614.961 Q2305.17 615.125 2304.77 615.547 L2299.17 621.777 L2307.23 631.334 L2310.63 631.334 L2310.63 633.582 Z" fill="#000000" fill-rule="nonzero" fill-opacity="1" /><polyline clip-path="url(#clip140)" style="stroke:#e26f46; stroke-linecap:round; stroke-linejoin:round; stroke-width:3; stroke-opacity:1; fill:none" stroke-dasharray="12, 6, 2, 6" points="2213.09,674.883 2273.55,674.883 "/>
<path clip-path="url(#clip140)" d="M2306.21 663.361 L2305.8 664.033 Q2303.26 662.935 2300.09 661.18 Q2296.93 662.935 2294.39 664.033 L2293.99 663.361 Q2296.76 660.951 2300.09 659.098 Q2303.45 660.967 2306.21 663.361 Z" fill="#000000" fill-rule="nonzero" fill-opacity="1" /><path clip-path="url(#clip140)" d="M2310.63 690.427 L2305.36 690.286 L2299.6 690.427 L2299.6 688.178 L2301.47 688.178 L2296.2 681.948 L2291.54 687.171 L2291.21 687.639 Q2291.21 687.85 2291.75 688.014 Q2292.31 688.178 2292.97 688.178 L2292.97 690.427 L2288.03 690.286 L2283.62 690.427 L2283.62 688.178 Q2285.1 688.178 2285.78 688.155 Q2286.48 688.108 2287.28 687.897 Q2288.07 687.686 2288.47 687.265 L2294.75 680.214 L2287.28 671.384 L2283.86 671.384 L2283.86 669.136 L2289.15 669.276 L2294.94 669.136 L2294.94 671.384 L2293.01 671.384 L2297.72 676.888 L2301.75 672.391 Q2301.77 672.368 2302.15 671.806 Q2301.4 671.384 2300.32 671.384 L2300.32 669.136 L2305.26 669.276 L2309.67 669.136 L2309.67 671.384 Q2307.75 671.384 2306.74 671.525 Q2305.76 671.642 2305.45 671.806 Q2305.17 671.97 2304.77 672.391 L2299.17 678.622 L2307.23 688.178 L2310.63 688.178 L2310.63 690.427 Z" fill="#000000" fill-rule="nonzero" fill-opacity="1" /><path clip-path="url(#clip140)" d="M1445.91 1423.18 L2352.76 1423.18 L2352.76 1071.73 L1445.91 1071.73  Z" fill="#ffffff" fill-rule="evenodd" fill-opacity="1"/>
<defs>
  <clipPath id="clip145">
    <rect x="1445" y="1071" width="908" height="352"/>
  </clipPath>
</defs>
<polyline clip-path="url(#clip145)" style="stroke:#000000; stroke-linecap:round; stroke-linejoin:round; stroke-width:2; stroke-opacity:0.1; fill:none" points="1471.57,1423.18 1471.57,1071.73 "/>
<polyline clip-path="url(#clip145)" style="stroke:#000000; stroke-linecap:round; stroke-linejoin:round; stroke-width:2; stroke-opacity:0.1; fill:none" points="1723.2,1423.18 1723.2,1071.73 "/>
<polyline clip-path="url(#clip145)" style="stroke:#000000; stroke-linecap:round; stroke-linejoin:round; stroke-width:2; stroke-opacity:0.1; fill:none" points="1974.82,1423.18 1974.82,1071.73 "/>
<polyline clip-path="url(#clip145)" style="stroke:#000000; stroke-linecap:round; stroke-linejoin:round; stroke-width:2; stroke-opacity:0.1; fill:none" points="2226.44,1423.18 2226.44,1071.73 "/>
<polyline clip-path="url(#clip145)" style="stroke:#000000; stroke-linecap:round; stroke-linejoin:round; stroke-width:2; stroke-opacity:0.1; fill:none" points="1445.91,1343.6 2352.76,1343.6 "/>
<polyline clip-path="url(#clip145)" style="stroke:#000000; stroke-linecap:round; stroke-linejoin:round; stroke-width:2; stroke-opacity:0.1; fill:none" points="1445.91,1259.76 2352.76,1259.76 "/>
<polyline clip-path="url(#clip145)" style="stroke:#000000; stroke-linecap:round; stroke-linejoin:round; stroke-width:2; stroke-opacity:0.1; fill:none" points="1445.91,1175.92 2352.76,1175.92 "/>
<polyline clip-path="url(#clip145)" style="stroke:#000000; stroke-linecap:round; stroke-linejoin:round; stroke-width:2; stroke-opacity:0.1; fill:none" points="1445.91,1092.08 2352.76,1092.08 "/>
<polyline clip-path="url(#clip140)" style="stroke:#000000; stroke-linecap:round; stroke-linejoin:round; stroke-width:4; stroke-opacity:1; fill:none" points="1445.91,1423.18 2352.76,1423.18 "/>
<polyline clip-path="url(#clip140)" style="stroke:#000000; stroke-linecap:round; stroke-linejoin:round; stroke-width:4; stroke-opacity:1; fill:none" points="1471.57,1423.18 1471.57,1404.28 "/>
<polyline clip-path="url(#clip140)" style="stroke:#000000; stroke-linecap:round; stroke-linejoin:round; stroke-width:4; stroke-opacity:1; fill:none" points="1723.2,1423.18 1723.2,1404.28 "/>
<polyline clip-path="url(#clip140)" style="stroke:#000000; stroke-linecap:round; stroke-linejoin:round; stroke-width:4; stroke-opacity:1; fill:none" points="1974.82,1423.18 1974.82,1404.28 "/>
<polyline clip-path="url(#clip140)" style="stroke:#000000; stroke-linecap:round; stroke-linejoin:round; stroke-width:4; stroke-opacity:1; fill:none" points="2226.44,1423.18 2226.44,1404.28 "/>
<path clip-path="url(#clip140)" d="M1471.57 1454.1 Q1467.96 1454.1 1466.13 1457.66 Q1464.33 1461.2 1464.33 1468.33 Q1464.33 1475.44 1466.13 1479.01 Q1467.96 1482.55 1471.57 1482.55 Q1475.21 1482.55 1477.01 1479.01 Q1478.84 1475.44 1478.84 1468.33 Q1478.84 1461.2 1477.01 1457.66 Q1475.21 1454.1 1471.57 1454.1 M1471.57 1450.39 Q1477.38 1450.39 1480.44 1455 Q1483.52 1459.58 1483.52 1468.33 Q1483.52 1477.06 1480.44 1481.67 Q1477.38 1486.25 1471.57 1486.25 Q1465.76 1486.25 1462.68 1481.67 Q1459.63 1477.06 1459.63 1468.33 Q1459.63 1459.58 1462.68 1455 Q1465.76 1450.39 1471.57 1450.39 Z" fill="#000000" fill-rule="nonzero" fill-opacity="1" /><path clip-path="url(#clip140)" d="M1713.58 1481.64 L1721.22 1481.64 L1721.22 1455.28 L1712.91 1456.95 L1712.91 1452.69 L1721.17 1451.02 L1725.85 1451.02 L1725.85 1481.64 L1733.49 1481.64 L1733.49 1485.58 L1713.58 1485.58 L1713.58 1481.64 Z" fill="#000000" fill-rule="nonzero" fill-opacity="1" /><path clip-path="url(#clip140)" d="M1969.47 1481.64 L1985.79 1481.64 L1985.79 1485.58 L1963.85 1485.58 L1963.85 1481.64 Q1966.51 1478.89 1971.09 1474.26 Q1975.7 1469.61 1976.88 1468.27 Q1979.12 1465.74 1980 1464.01 Q1980.91 1462.25 1980.91 1460.56 Q1980.91 1457.8 1978.96 1456.07 Q1977.04 1454.33 1973.94 1454.33 Q1971.74 1454.33 1969.29 1455.09 Q1966.86 1455.86 1964.08 1457.41 L1964.08 1452.69 Q1966.9 1451.55 1969.36 1450.97 Q1971.81 1450.39 1973.85 1450.39 Q1979.22 1450.39 1982.41 1453.08 Q1985.61 1455.77 1985.61 1460.26 Q1985.61 1462.39 1984.8 1464.31 Q1984.01 1466.2 1981.9 1468.8 Q1981.32 1469.47 1978.22 1472.69 Q1975.12 1475.88 1969.47 1481.64 Z" fill="#000000" fill-rule="nonzero" fill-opacity="1" /><path clip-path="url(#clip140)" d="M2230.69 1466.95 Q2234.05 1467.66 2235.92 1469.93 Q2237.82 1472.2 2237.82 1475.53 Q2237.82 1480.65 2234.3 1483.45 Q2230.78 1486.25 2224.3 1486.25 Q2222.12 1486.25 2219.81 1485.81 Q2217.52 1485.39 2215.06 1484.54 L2215.06 1480.02 Q2217.01 1481.16 2219.32 1481.74 Q2221.64 1482.32 2224.16 1482.32 Q2228.56 1482.32 2230.85 1480.58 Q2233.17 1478.84 2233.17 1475.53 Q2233.17 1472.48 2231.01 1470.77 Q2228.88 1469.03 2225.06 1469.03 L2221.04 1469.03 L2221.04 1465.19 L2225.25 1465.19 Q2228.7 1465.19 2230.53 1463.82 Q2232.36 1462.43 2232.36 1459.84 Q2232.36 1457.18 2230.46 1455.77 Q2228.58 1454.33 2225.06 1454.33 Q2223.14 1454.33 2220.94 1454.75 Q2218.74 1455.16 2216.11 1456.04 L2216.11 1451.88 Q2218.77 1451.14 2221.08 1450.77 Q2223.42 1450.39 2225.48 1450.39 Q2230.8 1450.39 2233.91 1452.83 Q2237.01 1455.23 2237.01 1459.35 Q2237.01 1462.22 2235.36 1464.21 Q2233.72 1466.18 2230.69 1466.95 Z" fill="#000000" fill-rule="nonzero" fill-opacity="1" /><path clip-path="url(#clip140)" d="M1769.5 1520.52 L1809.7 1520.52 L1809.7 1525.93 L1792.83 1525.93 L1792.83 1568.04 L1786.37 1568.04 L1786.37 1525.93 L1769.5 1525.93 L1769.5 1520.52 Z" fill="#000000" fill-rule="nonzero" fill-opacity="1" /><path clip-path="url(#clip140)" d="M1813.65 1532.4 L1819.51 1532.4 L1819.51 1568.04 L1813.65 1568.04 L1813.65 1532.4 M1813.65 1518.52 L1819.51 1518.52 L1819.51 1525.93 L1813.65 1525.93 L1813.65 1518.52 Z" fill="#000000" fill-rule="nonzero" fill-opacity="1" /><path clip-path="url(#clip140)" d="M1859.51 1539.24 Q1861.71 1535.29 1864.77 1533.41 Q1867.82 1531.54 1871.96 1531.54 Q1877.53 1531.54 1880.55 1535.45 Q1883.58 1539.33 1883.58 1546.53 L1883.58 1568.04 L1877.69 1568.04 L1877.69 1546.72 Q1877.69 1541.59 1875.87 1539.11 Q1874.06 1536.63 1870.34 1536.63 Q1865.78 1536.63 1863.14 1539.65 Q1860.5 1542.68 1860.5 1547.9 L1860.5 1568.04 L1854.61 1568.04 L1854.61 1546.72 Q1854.61 1541.56 1852.8 1539.11 Q1850.98 1536.63 1847.2 1536.63 Q1842.71 1536.63 1840.07 1539.68 Q1837.43 1542.71 1837.43 1547.9 L1837.43 1568.04 L1831.54 1568.04 L1831.54 1532.4 L1837.43 1532.4 L1837.43 1537.93 Q1839.43 1534.66 1842.23 1533.1 Q1845.03 1531.54 1848.88 1531.54 Q1852.77 1531.54 1855.47 1533.51 Q1858.21 1535.48 1859.51 1539.24 Z" fill="#000000" fill-rule="nonzero" fill-opacity="1" /><path clip-path="url(#clip140)" d="M1925.75 1548.76 L1925.75 1551.62 L1898.82 1551.62 Q1899.2 1557.67 1902.45 1560.85 Q1905.73 1564 1911.55 1564 Q1914.93 1564 1918.08 1563.17 Q1921.26 1562.35 1924.38 1560.69 L1924.38 1566.23 Q1921.23 1567.57 1917.92 1568.27 Q1914.61 1568.97 1911.2 1568.97 Q1902.67 1568.97 1897.68 1564 Q1892.71 1559.04 1892.71 1550.57 Q1892.71 1541.82 1897.42 1536.69 Q1902.16 1531.54 1910.19 1531.54 Q1917.38 1531.54 1921.55 1536.18 Q1925.75 1540.8 1925.75 1548.76 M1919.89 1547.04 Q1919.83 1542.23 1917.19 1539.37 Q1914.58 1536.5 1910.25 1536.5 Q1905.35 1536.5 1902.39 1539.27 Q1899.46 1542.04 1899.01 1547.07 L1919.89 1547.04 Z" fill="#000000" fill-rule="nonzero" fill-opacity="1" /><path clip-path="url(#clip140)" d="M1970.15 1518.58 Q1965.89 1525.9 1963.82 1533.06 Q1961.75 1540.23 1961.75 1547.58 Q1961.75 1554.93 1963.82 1562.16 Q1965.92 1569.35 1970.15 1576.64 L1965.06 1576.64 Q1960.28 1569.16 1957.9 1561.93 Q1955.54 1554.71 1955.54 1547.58 Q1955.54 1540.48 1957.9 1533.29 Q1960.25 1526.09 1965.06 1518.58 L1970.15 1518.58 Z" fill="#000000" fill-rule="nonzero" fill-opacity="1" /><path clip-path="url(#clip140)" d="M2004.24 1533.45 L2004.24 1538.98 Q2001.76 1537.71 1999.08 1537.07 Q1996.41 1536.44 1993.54 1536.44 Q1989.18 1536.44 1986.99 1537.77 Q1984.82 1539.11 1984.82 1541.79 Q1984.82 1543.82 1986.38 1545 Q1987.94 1546.15 1992.65 1547.2 L1994.66 1547.64 Q2000.9 1548.98 2003.51 1551.43 Q2006.15 1553.85 2006.15 1558.21 Q2006.15 1563.17 2002.2 1566.07 Q1998.29 1568.97 1991.41 1568.97 Q1988.55 1568.97 1985.43 1568.39 Q1982.34 1567.85 1978.9 1566.74 L1978.9 1560.69 Q1982.15 1562.38 1985.3 1563.24 Q1988.45 1564.07 1991.54 1564.07 Q1995.68 1564.07 1997.9 1562.66 Q2000.13 1561.23 2000.13 1558.65 Q2000.13 1556.27 1998.51 1554.99 Q1996.92 1553.72 1991.48 1552.54 L1989.44 1552.07 Q1984 1550.92 1981.58 1548.56 Q1979.16 1546.18 1979.16 1542.04 Q1979.16 1537.01 1982.72 1534.27 Q1986.29 1531.54 1992.84 1531.54 Q1996.09 1531.54 1998.96 1532.01 Q2001.82 1532.49 2004.24 1533.45 Z" fill="#000000" fill-rule="nonzero" fill-opacity="1" /><path clip-path="url(#clip140)" d="M2014.55 1518.58 L2019.64 1518.58 Q2024.42 1526.09 2026.77 1533.29 Q2029.16 1540.48 2029.16 1547.58 Q2029.16 1554.71 2026.77 1561.93 Q2024.42 1569.16 2019.64 1576.64 L2014.55 1576.64 Q2018.78 1569.35 2020.85 1562.16 Q2022.95 1554.93 2022.95 1547.58 Q2022.95 1540.23 2020.85 1533.06 Q2018.78 1525.9 2014.55 1518.58 Z" fill="#000000" fill-rule="nonzero" fill-opacity="1" /><polyline clip-path="url(#clip140)" style="stroke:#000000; stroke-linecap:round; stroke-linejoin:round; stroke-width:4; stroke-opacity:1; fill:none" points="1445.91,1423.18 1445.91,1071.73 "/>
<polyline clip-path="url(#clip140)" style="stroke:#000000; stroke-linecap:round; stroke-linejoin:round; stroke-width:4; stroke-opacity:1; fill:none" points="1445.91,1343.6 1464.81,1343.6 "/>
<polyline clip-path="url(#clip140)" style="stroke:#000000; stroke-linecap:round; stroke-linejoin:round; stroke-width:4; stroke-opacity:1; fill:none" points="1445.91,1259.76 1464.81,1259.76 "/>
<polyline clip-path="url(#clip140)" style="stroke:#000000; stroke-linecap:round; stroke-linejoin:round; stroke-width:4; stroke-opacity:1; fill:none" points="1445.91,1175.92 1464.81,1175.92 "/>
<polyline clip-path="url(#clip140)" style="stroke:#000000; stroke-linecap:round; stroke-linejoin:round; stroke-width:4; stroke-opacity:1; fill:none" points="1445.91,1092.08 1464.81,1092.08 "/>
<path clip-path="url(#clip140)" d="M1272.32 1344.05 L1301.99 1344.05 L1301.99 1347.98 L1272.32 1347.98 L1272.32 1344.05 Z" fill="#000000" fill-rule="nonzero" fill-opacity="1" /><path clip-path="url(#clip140)" d="M1322.08 1329.4 Q1318.47 1329.4 1316.64 1332.96 Q1314.84 1336.5 1314.84 1343.63 Q1314.84 1350.74 1316.64 1354.3 Q1318.47 1357.84 1322.08 1357.84 Q1325.72 1357.84 1327.52 1354.3 Q1329.35 1350.74 1329.35 1343.63 Q1329.35 1336.5 1327.52 1332.96 Q1325.72 1329.4 1322.08 1329.4 M1322.08 1325.69 Q1327.89 1325.69 1330.95 1330.3 Q1334.03 1334.88 1334.03 1343.63 Q1334.03 1352.36 1330.95 1356.97 Q1327.89 1361.55 1322.08 1361.55 Q1316.27 1361.55 1313.2 1356.97 Q1310.14 1352.36 1310.14 1343.63 Q1310.14 1334.88 1313.2 1330.3 Q1316.27 1325.69 1322.08 1325.69 Z" fill="#000000" fill-rule="nonzero" fill-opacity="1" /><path clip-path="url(#clip140)" d="M1342.25 1355 L1347.13 1355 L1347.13 1360.88 L1342.25 1360.88 L1342.25 1355 Z" fill="#000000" fill-rule="nonzero" fill-opacity="1" /><path clip-path="url(#clip140)" d="M1367.32 1329.4 Q1363.7 1329.4 1361.88 1332.96 Q1360.07 1336.5 1360.07 1343.63 Q1360.07 1350.74 1361.88 1354.3 Q1363.7 1357.84 1367.32 1357.84 Q1370.95 1357.84 1372.76 1354.3 Q1374.58 1350.74 1374.58 1343.63 Q1374.58 1336.5 1372.76 1332.96 Q1370.95 1329.4 1367.32 1329.4 M1367.32 1325.69 Q1373.13 1325.69 1376.18 1330.3 Q1379.26 1334.88 1379.26 1343.63 Q1379.26 1352.36 1376.18 1356.97 Q1373.13 1361.55 1367.32 1361.55 Q1361.51 1361.55 1358.43 1356.97 Q1355.37 1352.36 1355.37 1343.63 Q1355.37 1334.88 1358.43 1330.3 Q1361.51 1325.69 1367.32 1325.69 Z" fill="#000000" fill-rule="nonzero" fill-opacity="1" /><path clip-path="url(#clip140)" d="M1400.32 1330.39 L1388.52 1348.84 L1400.32 1348.84 L1400.32 1330.39 M1399.1 1326.32 L1404.98 1326.32 L1404.98 1348.84 L1409.91 1348.84 L1409.91 1352.73 L1404.98 1352.73 L1404.98 1360.88 L1400.32 1360.88 L1400.32 1352.73 L1384.72 1352.73 L1384.72 1348.22 L1399.1 1326.32 Z" fill="#000000" fill-rule="nonzero" fill-opacity="1" /><path clip-path="url(#clip140)" d="M1274.4 1260.21 L1304.08 1260.21 L1304.08 1264.14 L1274.4 1264.14 L1274.4 1260.21 Z" fill="#000000" fill-rule="nonzero" fill-opacity="1" /><path clip-path="url(#clip140)" d="M1324.17 1245.56 Q1320.56 1245.56 1318.73 1249.12 Q1316.92 1252.66 1316.92 1259.79 Q1316.92 1266.9 1318.73 1270.46 Q1320.56 1274 1324.17 1274 Q1327.8 1274 1329.61 1270.46 Q1331.44 1266.9 1331.44 1259.79 Q1331.44 1252.66 1329.61 1249.12 Q1327.8 1245.56 1324.17 1245.56 M1324.17 1241.85 Q1329.98 1241.85 1333.03 1246.46 Q1336.11 1251.04 1336.11 1259.79 Q1336.11 1268.52 1333.03 1273.13 Q1329.98 1277.71 1324.17 1277.71 Q1318.36 1277.71 1315.28 1273.13 Q1312.22 1268.52 1312.22 1259.79 Q1312.22 1251.04 1315.28 1246.46 Q1318.36 1241.85 1324.17 1241.85 Z" fill="#000000" fill-rule="nonzero" fill-opacity="1" /><path clip-path="url(#clip140)" d="M1344.33 1271.16 L1349.21 1271.16 L1349.21 1277.04 L1344.33 1277.04 L1344.33 1271.16 Z" fill="#000000" fill-rule="nonzero" fill-opacity="1" /><path clip-path="url(#clip140)" d="M1369.4 1245.56 Q1365.79 1245.56 1363.96 1249.12 Q1362.15 1252.66 1362.15 1259.79 Q1362.15 1266.9 1363.96 1270.46 Q1365.79 1274 1369.4 1274 Q1373.03 1274 1374.84 1270.46 Q1376.67 1266.9 1376.67 1259.79 Q1376.67 1252.66 1374.84 1249.12 Q1373.03 1245.56 1369.4 1245.56 M1369.4 1241.85 Q1375.21 1241.85 1378.26 1246.46 Q1381.34 1251.04 1381.34 1259.79 Q1381.34 1268.52 1378.26 1273.13 Q1375.21 1277.71 1369.4 1277.71 Q1363.59 1277.71 1360.51 1273.13 Q1357.45 1268.52 1357.45 1259.79 Q1357.45 1251.04 1360.51 1246.46 Q1363.59 1241.85 1369.4 1241.85 Z" fill="#000000" fill-rule="nonzero" fill-opacity="1" /><path clip-path="url(#clip140)" d="M1393.59 1273.1 L1409.91 1273.1 L1409.91 1277.04 L1387.96 1277.04 L1387.96 1273.1 Q1390.63 1270.35 1395.21 1265.72 Q1399.82 1261.07 1401 1259.72 Q1403.24 1257.2 1404.12 1255.46 Q1405.02 1253.7 1405.02 1252.01 Q1405.02 1249.26 1403.08 1247.52 Q1401.16 1245.79 1398.06 1245.79 Q1395.86 1245.79 1393.4 1246.55 Q1390.97 1247.32 1388.19 1248.87 L1388.19 1244.14 Q1391.02 1243.01 1393.47 1242.43 Q1395.93 1241.85 1397.96 1241.85 Q1403.33 1241.85 1406.53 1244.54 Q1409.72 1247.22 1409.72 1251.71 Q1409.72 1253.84 1408.91 1255.76 Q1408.13 1257.66 1406.02 1260.25 Q1405.44 1260.93 1402.34 1264.14 Q1399.24 1267.34 1393.59 1273.1 Z" fill="#000000" fill-rule="nonzero" fill-opacity="1" /><path clip-path="url(#clip140)" d="M1322.57 1161.72 Q1318.96 1161.72 1317.13 1165.28 Q1315.32 1168.82 1315.32 1175.95 Q1315.32 1183.06 1317.13 1186.62 Q1318.96 1190.16 1322.57 1190.16 Q1326.2 1190.16 1328.01 1186.62 Q1329.84 1183.06 1329.84 1175.95 Q1329.84 1168.82 1328.01 1165.28 Q1326.2 1161.72 1322.57 1161.72 M1322.57 1158.01 Q1328.38 1158.01 1331.44 1162.62 Q1334.51 1167.2 1334.51 1175.95 Q1334.51 1184.68 1331.44 1189.29 Q1328.38 1193.87 1322.57 1193.87 Q1316.76 1193.87 1313.68 1189.29 Q1310.63 1184.68 1310.63 1175.95 Q1310.63 1167.2 1313.68 1162.62 Q1316.76 1158.01 1322.57 1158.01 Z" fill="#000000" fill-rule="nonzero" fill-opacity="1" /><path clip-path="url(#clip140)" d="M1342.73 1187.32 L1347.62 1187.32 L1347.62 1193.2 L1342.73 1193.2 L1342.73 1187.32 Z" fill="#000000" fill-rule="nonzero" fill-opacity="1" /><path clip-path="url(#clip140)" d="M1367.8 1161.72 Q1364.19 1161.72 1362.36 1165.28 Q1360.56 1168.82 1360.56 1175.95 Q1360.56 1183.06 1362.36 1186.62 Q1364.19 1190.16 1367.8 1190.16 Q1371.44 1190.16 1373.24 1186.62 Q1375.07 1183.06 1375.07 1175.95 Q1375.07 1168.82 1373.24 1165.28 Q1371.44 1161.72 1367.8 1161.72 M1367.8 1158.01 Q1373.61 1158.01 1376.67 1162.62 Q1379.75 1167.2 1379.75 1175.95 Q1379.75 1184.68 1376.67 1189.29 Q1373.61 1193.87 1367.8 1193.87 Q1361.99 1193.87 1358.91 1189.29 Q1355.86 1184.68 1355.86 1175.95 Q1355.86 1167.2 1358.91 1162.62 Q1361.99 1158.01 1367.8 1158.01 Z" fill="#000000" fill-rule="nonzero" fill-opacity="1" /><path clip-path="url(#clip140)" d="M1397.96 1161.72 Q1394.35 1161.72 1392.52 1165.28 Q1390.72 1168.82 1390.72 1175.95 Q1390.72 1183.06 1392.52 1186.62 Q1394.35 1190.16 1397.96 1190.16 Q1401.6 1190.16 1403.4 1186.62 Q1405.23 1183.06 1405.23 1175.95 Q1405.23 1168.82 1403.4 1165.28 Q1401.6 1161.72 1397.96 1161.72 M1397.96 1158.01 Q1403.77 1158.01 1406.83 1162.62 Q1409.91 1167.2 1409.91 1175.95 Q1409.91 1184.68 1406.83 1189.29 Q1403.77 1193.87 1397.96 1193.87 Q1392.15 1193.87 1389.07 1189.29 Q1386.02 1184.68 1386.02 1175.95 Q1386.02 1167.2 1389.07 1162.62 Q1392.15 1158.01 1397.96 1158.01 Z" fill="#000000" fill-rule="nonzero" fill-opacity="1" /><path clip-path="url(#clip140)" d="M1324.17 1077.88 Q1320.56 1077.88 1318.73 1081.44 Q1316.92 1084.98 1316.92 1092.11 Q1316.92 1099.22 1318.73 1102.78 Q1320.56 1106.32 1324.17 1106.32 Q1327.8 1106.32 1329.61 1102.78 Q1331.44 1099.22 1331.44 1092.11 Q1331.44 1084.98 1329.61 1081.44 Q1327.8 1077.88 1324.17 1077.88 M1324.17 1074.17 Q1329.98 1074.17 1333.03 1078.78 Q1336.11 1083.36 1336.11 1092.11 Q1336.11 1100.84 1333.03 1105.45 Q1329.98 1110.03 1324.17 1110.03 Q1318.36 1110.03 1315.28 1105.45 Q1312.22 1100.84 1312.22 1092.11 Q1312.22 1083.36 1315.28 1078.78 Q1318.36 1074.17 1324.17 1074.17 Z" fill="#000000" fill-rule="nonzero" fill-opacity="1" /><path clip-path="url(#clip140)" d="M1344.33 1103.48 L1349.21 1103.48 L1349.21 1109.36 L1344.33 1109.36 L1344.33 1103.48 Z" fill="#000000" fill-rule="nonzero" fill-opacity="1" /><path clip-path="url(#clip140)" d="M1369.4 1077.88 Q1365.79 1077.88 1363.96 1081.44 Q1362.15 1084.98 1362.15 1092.11 Q1362.15 1099.22 1363.96 1102.78 Q1365.79 1106.32 1369.4 1106.32 Q1373.03 1106.32 1374.84 1102.78 Q1376.67 1099.22 1376.67 1092.11 Q1376.67 1084.98 1374.84 1081.44 Q1373.03 1077.88 1369.4 1077.88 M1369.4 1074.17 Q1375.21 1074.17 1378.26 1078.78 Q1381.34 1083.36 1381.34 1092.11 Q1381.34 1100.84 1378.26 1105.45 Q1375.21 1110.03 1369.4 1110.03 Q1363.59 1110.03 1360.51 1105.45 Q1357.45 1100.84 1357.45 1092.11 Q1357.45 1083.36 1360.51 1078.78 Q1363.59 1074.17 1369.4 1074.17 Z" fill="#000000" fill-rule="nonzero" fill-opacity="1" /><path clip-path="url(#clip140)" d="M1393.59 1105.42 L1409.91 1105.42 L1409.91 1109.36 L1387.96 1109.36 L1387.96 1105.42 Q1390.63 1102.67 1395.21 1098.04 Q1399.82 1093.38 1401 1092.04 Q1403.24 1089.52 1404.12 1087.78 Q1405.02 1086.02 1405.02 1084.33 Q1405.02 1081.58 1403.08 1079.84 Q1401.16 1078.11 1398.06 1078.11 Q1395.86 1078.11 1393.4 1078.87 Q1390.97 1079.64 1388.19 1081.19 L1388.19 1076.46 Q1391.02 1075.33 1393.47 1074.75 Q1395.93 1074.17 1397.96 1074.17 Q1403.33 1074.17 1406.53 1076.86 Q1409.72 1079.54 1409.72 1084.03 Q1409.72 1086.16 1408.91 1088.08 Q1408.13 1089.98 1406.02 1092.57 Q1405.44 1093.25 1402.34 1096.46 Q1399.24 1099.66 1393.59 1105.42 Z" fill="#000000" fill-rule="nonzero" fill-opacity="1" /><path clip-path="url(#clip140)" d="M1182.01 1252.88 L1182.94 1253.44 Q1181.43 1256.93 1179.02 1261.28 Q1181.43 1265.63 1182.94 1269.13 L1182.01 1269.67 Q1178.7 1265.86 1176.15 1261.28 Q1178.72 1256.66 1182.01 1252.88 Z" fill="#000000" fill-rule="nonzero" fill-opacity="1" /><path clip-path="url(#clip140)" d="M1194.31 1249.71 Q1196.12 1249.71 1197.15 1250.84 Q1198.14 1251.97 1198.14 1253.26 Q1198.14 1254.48 1197.44 1255.12 Q1196.73 1255.77 1195.83 1255.77 Q1194.6 1255.77 1193.54 1254.87 Q1192.48 1253.96 1192.25 1252.61 Q1191.41 1253.93 1191.41 1255.9 Q1191.41 1257.18 1192.09 1258.31 Q1192.77 1259.41 1193.64 1260.08 Q1194.51 1260.73 1195.76 1261.31 Q1196.99 1261.85 1197.73 1262.08 Q1198.43 1262.27 1199.21 1262.43 L1208.23 1264.69 Q1212.51 1265.78 1214.02 1265.78 Q1215.89 1265.78 1217.15 1264.88 Q1218.37 1263.98 1218.37 1262.18 Q1218.37 1261.47 1218.18 1260.66 Q1217.95 1259.86 1217.37 1258.83 Q1216.76 1257.76 1215.86 1256.83 Q1214.92 1255.86 1213.35 1254.93 Q1211.77 1254 1209.74 1253.38 Q1209.03 1253.19 1209.03 1252.55 Q1209.03 1251.74 1209.67 1251.74 Q1210.22 1251.74 1211.38 1252.19 Q1212.51 1252.61 1213.99 1253.55 Q1215.44 1254.45 1216.76 1255.64 Q1218.05 1256.83 1218.95 1258.6 Q1219.85 1260.37 1219.85 1262.31 Q1219.85 1265.08 1218.37 1266.91 Q1216.89 1268.75 1214.83 1269.42 Q1215.12 1269.58 1215.5 1269.81 Q1215.89 1270.03 1216.76 1270.71 Q1217.6 1271.36 1218.24 1272.1 Q1218.85 1272.84 1219.34 1274 Q1219.85 1275.12 1219.85 1276.35 Q1219.85 1277.89 1219.4 1279.28 Q1218.95 1280.63 1217.92 1281.6 Q1216.89 1282.56 1215.47 1282.56 Q1213.89 1282.56 1212.8 1281.5 Q1211.67 1280.41 1211.67 1278.92 Q1211.67 1277.99 1212.22 1277.25 Q1212.77 1276.48 1213.96 1276.48 Q1215.28 1276.48 1216.28 1277.38 Q1217.27 1278.28 1217.53 1279.57 Q1218.37 1278.25 1218.37 1276.28 Q1218.37 1274.16 1216.5 1272.48 Q1214.63 1270.81 1211.51 1270 Q1204.01 1268.01 1200.66 1267.23 Q1197.28 1266.46 1195.83 1266.46 Q1194.47 1266.46 1193.54 1266.81 Q1192.61 1267.17 1192.19 1267.78 Q1191.74 1268.36 1191.57 1268.91 Q1191.41 1269.42 1191.41 1270 Q1191.41 1270.97 1191.8 1272.06 Q1192.19 1273.13 1193.09 1274.41 Q1193.96 1275.67 1195.76 1276.86 Q1197.56 1278.05 1200.04 1278.86 Q1200.79 1279.02 1200.79 1279.73 Q1200.75 1280.5 1200.11 1280.5 Q1199.56 1280.5 1198.43 1280.08 Q1197.28 1279.63 1195.83 1278.73 Q1194.38 1277.8 1193.09 1276.6 Q1191.77 1275.38 1190.87 1273.61 Q1189.96 1271.81 1189.96 1269.87 Q1189.96 1269 1190.16 1268.17 Q1190.32 1267.3 1190.8 1266.27 Q1191.28 1265.2 1192.35 1264.27 Q1193.41 1263.34 1194.96 1262.76 Q1194.22 1262.37 1193.51 1261.85 Q1192.8 1261.31 1191.93 1260.47 Q1191.03 1259.6 1190.51 1258.41 Q1189.96 1257.18 1189.96 1255.83 Q1189.96 1254.51 1190.32 1253.22 Q1190.64 1251.94 1191.7 1250.84 Q1192.73 1249.71 1194.31 1249.71 Z" fill="#000000" fill-rule="nonzero" fill-opacity="1" /><path clip-path="url(#clip140)" d="M1231.9 1242.25 Q1230.52 1242.25 1229.87 1241.46 Q1229.22 1240.68 1229.22 1239.66 Q1229.22 1238.6 1229.92 1237.86 Q1230.59 1237.09 1231.79 1237.09 Q1233.07 1237.09 1233.79 1237.99 Q1234.51 1238.87 1234.33 1240.13 Q1236.18 1239.03 1237.02 1237 Q1237.85 1234.95 1237.85 1233.06 Q1237.85 1231.07 1236.14 1229.47 Q1234.42 1227.85 1230.23 1227.85 Q1226.67 1227.85 1224.62 1229.25 Q1222.57 1230.62 1222.57 1233.35 L1222.57 1235.38 Q1222.57 1236.08 1222.5 1236.28 Q1222.43 1236.48 1222.05 1236.48 Q1221.6 1236.48 1221.51 1235.78 Q1221.51 1235.08 1221.37 1233.98 Q1221.28 1231.3 1218.96 1229.88 Q1216.79 1228.59 1213.71 1228.59 Q1210.89 1228.59 1209.72 1229.94 Q1208.52 1231.27 1208.52 1233.01 Q1208.52 1234.63 1209.2 1236.41 Q1209.87 1238.2 1211.38 1239.17 Q1211.38 1236.3 1213.71 1236.3 Q1214.72 1236.3 1215.4 1236.96 Q1216.05 1237.59 1216.05 1238.65 Q1216.05 1239.66 1215.42 1240.34 Q1214.77 1241.01 1213.66 1241.01 Q1211.02 1241.01 1209.2 1238.67 Q1207.37 1236.3 1207.37 1232.83 Q1207.37 1229.4 1209.17 1226.88 Q1210.98 1224.33 1213.75 1224.33 Q1216.48 1224.33 1218.71 1226.13 Q1220.94 1227.94 1221.87 1230.8 Q1222.57 1227.28 1224.96 1225.19 Q1227.32 1223.09 1230.23 1223.09 Q1233.84 1223.09 1236.5 1225.93 Q1239.14 1228.77 1239.14 1232.92 Q1239.14 1236.75 1237.06 1239.5 Q1234.99 1242.25 1231.9 1242.25 Z" fill="#000000" fill-rule="nonzero" fill-opacity="1" /><polyline clip-path="url(#clip145)" style="stroke:#e26f46; stroke-linecap:round; stroke-linejoin:round; stroke-width:3; stroke-opacity:1; fill:none" stroke-dasharray="12, 6, 2, 6" points="1471.57,1175.92 1496.74,1081.68 1521.9,1193.88 1547.06,1299.39 1572.22,1291.45 1597.38,1413.23 1622.55,1342.52 1647.71,1391.32 1672.87,1328.62 1698.03,1328.21 1723.2,1267.57 1748.36,1252.92 1773.52,1215.6 1798.68,1245.75 1823.85,1193.61 1849.01,1241.91 1874.17,1187.99 1899.33,1152 1924.49,1203.48 1949.66,1206.03 1974.82,1167.94 1999.98,1177.92 2025.14,1201.26 2050.31,1226.66 2075.47,1198.36 2100.63,1171.43 2125.79,1171.69 2150.95,1237.07 2176.12,1181.58 2201.28,1191.47 2226.44,1201.65 2251.6,1192.55 2276.77,1183.6 2301.93,1203.7 2327.09,1183.88 "/>
</svg>
