<?xml version="1.0" encoding="utf-8"?>
<svg xmlns="http://www.w3.org/2000/svg" xmlns:xlink="http://www.w3.org/1999/xlink" width="600" height="400" viewBox="0 0 2400 1600">
<defs>
  <clipPath id="clip160">
    <rect x="0" y="0" width="2400" height="1600"/>
  </clipPath>
</defs>
<path clip-path="url(#clip160)" d="M0 1600 L2400 1600 L2400 0 L0 0  Z" fill="#ffffff" fill-rule="evenodd" fill-opacity="1"/>
<defs>
  <clipPath id="clip161">
    <rect x="480" y="0" width="1681" height="1600"/>
  </clipPath>
</defs>
<path clip-path="url(#clip160)" d="M205.121 1423.18 L2352.76 1423.18 L2352.76 47.2441 L205.121 47.2441  Z" fill="#ffffff" fill-rule="evenodd" fill-opacity="1"/>
<defs>
  <clipPath id="clip162">
    <rect x="205" y="47" width="2149" height="1377"/>
  </clipPath>
</defs>
<polyline clip-path="url(#clip162)" style="stroke:#000000; stroke-linecap:round; stroke-linejoin:round; stroke-width:2; stroke-opacity:0.1; fill:none" points="265.903,1423.18 265.903,47.2441 "/>
<polyline clip-path="url(#clip162)" style="stroke:#000000; stroke-linecap:round; stroke-linejoin:round; stroke-width:2; stroke-opacity:0.1; fill:none" points="861.806,1423.18 861.806,47.2441 "/>
<polyline clip-path="url(#clip162)" style="stroke:#000000; stroke-linecap:round; stroke-linejoin:round; stroke-width:2; stroke-opacity:0.1; fill:none" points="1457.71,1423.18 1457.71,47.2441 "/>
<polyline clip-path="url(#clip162)" style="stroke:#000000; stroke-linecap:round; stroke-linejoin:round; stroke-width:2; stroke-opacity:0.1; fill:none" points="2053.61,1423.18 2053.61,47.2441 "/>
<polyline clip-path="url(#clip160)" style="stroke:#000000; stroke-linecap:round; stroke-linejoin:round; stroke-width:4; stroke-opacity:1; fill:none" points="205.121,1423.18 2352.76,1423.18 "/>
<polyline clip-path="url(#clip160)" style="stroke:#000000; stroke-linecap:round; stroke-linejoin:round; stroke-width:4; stroke-opacity:1; fill:none" points="265.903,1423.18 265.903,1404.28 "/>
<polyline clip-path="url(#clip160)" style="stroke:#000000; stroke-linecap:round; stroke-linejoin:round; stroke-width:4; stroke-opacity:1; fill:none" points="861.806,1423.18 861.806,1404.28 "/>
<polyline clip-path="url(#clip160)" style="stroke:#000000; stroke-linecap:round; stroke-linejoin:round; stroke-width:4; stroke-opacity:1; fill:none" points="1457.71,1423.18 1457.71,1404.28 "/>
<polyline clip-path="url(#clip160)" style="stroke:#000000; stroke-linecap:round; stroke-linejoin:round; stroke-width:4; stroke-opacity:1; fill:none" points="2053.61,1423.18 2053.61,1404.28 "/>
<path clip-path="url(#clip160)" d="M265.903 1454.1 Q262.292 1454.1 260.463 1457.66 Q258.658 1461.2 258.658 1468.33 Q258.658 1475.44 260.463 1479.01 Q262.292 1482.55 265.903 1482.55 Q269.537 1482.55 271.343 1479.01 Q273.172 1475.44 273.172 1468.33 Q273.172 1461.2 271.343 1457.66 Q269.537 1454.1 265.903 1454.1 M265.903 1450.39 Q271.713 1450.39 274.769 1455 Q277.847 1459.58 277.847 1468.33 Q277.847 1477.06 274.769 1481.67 Q271.713 1486.25 265.903 1486.25 Q260.093 1486.25 257.014 1481.67 Q253.959 1477.06 253.959 1468.33 Q253.959 1459.58 257.014 1455 Q260.093 1450.39 265.903 1450.39 Z" fill="#000000" fill-rule="nonzero" fill-opacity="1" /><path clip-path="url(#clip160)" d="M852.188 1481.64 L859.827 1481.64 L859.827 1455.28 L851.517 1456.95 L851.517 1452.69 L859.781 1451.02 L864.457 1451.02 L864.457 1481.64 L872.096 1481.64 L872.096 1485.58 L852.188 1485.58 L852.188 1481.64 Z" fill="#000000" fill-rule="nonzero" fill-opacity="1" /><path clip-path="url(#clip160)" d="M1452.36 1481.64 L1468.68 1481.64 L1468.68 1485.58 L1446.74 1485.58 L1446.74 1481.64 Q1449.4 1478.89 1453.98 1474.26 Q1458.59 1469.61 1459.77 1468.27 Q1462.01 1465.74 1462.89 1464.01 Q1463.8 1462.25 1463.8 1460.56 Q1463.8 1457.8 1461.85 1456.07 Q1459.93 1454.33 1456.83 1454.33 Q1454.63 1454.33 1452.18 1455.09 Q1449.75 1455.86 1446.97 1457.41 L1446.97 1452.69 Q1449.79 1451.55 1452.25 1450.97 Q1454.7 1450.39 1456.74 1450.39 Q1462.11 1450.39 1465.3 1453.08 Q1468.5 1455.77 1468.5 1460.26 Q1468.5 1462.39 1467.69 1464.31 Q1466.9 1466.2 1464.79 1468.8 Q1464.21 1469.47 1461.11 1472.69 Q1458.01 1475.88 1452.36 1481.64 Z" fill="#000000" fill-rule="nonzero" fill-opacity="1" /><path clip-path="url(#clip160)" d="M2057.86 1466.95 Q2061.22 1467.66 2063.09 1469.93 Q2064.99 1472.2 2064.99 1475.53 Q2064.99 1480.65 2061.47 1483.45 Q2057.95 1486.25 2051.47 1486.25 Q2049.3 1486.25 2046.98 1485.81 Q2044.69 1485.39 2042.24 1484.54 L2042.24 1480.02 Q2044.18 1481.16 2046.49 1481.74 Q2048.81 1482.32 2051.33 1482.32 Q2055.73 1482.32 2058.02 1480.58 Q2060.34 1478.84 2060.34 1475.53 Q2060.34 1472.48 2058.18 1470.77 Q2056.05 1469.03 2052.24 1469.03 L2048.21 1469.03 L2048.21 1465.19 L2052.42 1465.19 Q2055.87 1465.19 2057.7 1463.82 Q2059.53 1462.43 2059.53 1459.84 Q2059.53 1457.18 2057.63 1455.77 Q2055.75 1454.33 2052.24 1454.33 Q2050.31 1454.33 2048.11 1454.75 Q2045.92 1455.16 2043.28 1456.04 L2043.28 1451.88 Q2045.94 1451.14 2048.25 1450.77 Q2050.59 1450.39 2052.65 1450.39 Q2057.98 1450.39 2061.08 1452.83 Q2064.18 1455.23 2064.18 1459.35 Q2064.18 1462.22 2062.54 1464.21 Q2060.89 1466.18 2057.86 1466.95 Z" fill="#000000" fill-rule="nonzero" fill-opacity="1" /><path clip-path="url(#clip160)" d="M1149.11 1520.52 L1189.31 1520.52 L1189.31 1525.93 L1172.44 1525.93 L1172.44 1568.04 L1165.98 1568.04 L1165.98 1525.93 L1149.11 1525.93 L1149.11 1520.52 Z" fill="#000000" fill-rule="nonzero" fill-opacity="1" /><path clip-path="url(#clip160)" d="M1193.26 1532.4 L1199.11 1532.4 L1199.11 1568.04 L1193.26 1568.04 L1193.26 1532.4 M1193.26 1518.52 L1199.11 1518.52 L1199.11 1525.93 L1193.26 1525.93 L1193.26 1518.52 Z" fill="#000000" fill-rule="nonzero" fill-opacity="1" /><path clip-path="url(#clip160)" d="M1239.12 1539.24 Q1241.32 1535.29 1244.37 1533.41 Q1247.43 1531.54 1251.57 1531.54 Q1257.14 1531.54 1260.16 1535.45 Q1263.18 1539.33 1263.18 1546.53 L1263.18 1568.04 L1257.3 1568.04 L1257.3 1546.72 Q1257.3 1541.59 1255.48 1539.11 Q1253.67 1536.63 1249.94 1536.63 Q1245.39 1536.63 1242.75 1539.65 Q1240.11 1542.68 1240.11 1547.9 L1240.11 1568.04 L1234.22 1568.04 L1234.22 1546.72 Q1234.22 1541.56 1232.41 1539.11 Q1230.59 1536.63 1226.8 1536.63 Q1222.32 1536.63 1219.67 1539.68 Q1217.03 1542.71 1217.03 1547.9 L1217.03 1568.04 L1211.14 1568.04 L1211.14 1532.4 L1217.03 1532.4 L1217.03 1537.93 Q1219.04 1534.66 1221.84 1533.1 Q1224.64 1531.54 1228.49 1531.54 Q1232.37 1531.54 1235.08 1533.51 Q1237.82 1535.48 1239.12 1539.24 Z" fill="#000000" fill-rule="nonzero" fill-opacity="1" /><path clip-path="url(#clip160)" d="M1305.36 1548.76 L1305.36 1551.62 L1278.43 1551.62 Q1278.81 1557.67 1282.06 1560.85 Q1285.34 1564 1291.16 1564 Q1294.53 1564 1297.69 1563.17 Q1300.87 1562.35 1303.99 1560.69 L1303.99 1566.23 Q1300.84 1567.57 1297.53 1568.27 Q1294.22 1568.97 1290.81 1568.97 Q1282.28 1568.97 1277.28 1564 Q1272.32 1559.04 1272.32 1550.57 Q1272.32 1541.82 1277.03 1536.69 Q1281.77 1531.54 1289.79 1531.54 Q1296.99 1531.54 1301.15 1536.18 Q1305.36 1540.8 1305.36 1548.76 M1299.5 1547.04 Q1299.44 1542.23 1296.79 1539.37 Q1294.18 1536.5 1289.86 1536.5 Q1284.95 1536.5 1281.99 1539.27 Q1279.07 1542.04 1278.62 1547.07 L1299.5 1547.04 Z" fill="#000000" fill-rule="nonzero" fill-opacity="1" /><path clip-path="url(#clip160)" d="M1349.76 1518.58 Q1345.49 1525.9 1343.42 1533.06 Q1341.35 1540.23 1341.35 1547.58 Q1341.35 1554.93 1343.42 1562.16 Q1345.52 1569.35 1349.76 1576.64 L1344.66 1576.64 Q1339.89 1569.16 1337.5 1561.93 Q1335.15 1554.71 1335.15 1547.58 Q1335.15 1540.48 1337.5 1533.29 Q1339.86 1526.09 1344.66 1518.58 L1349.76 1518.58 Z" fill="#000000" fill-rule="nonzero" fill-opacity="1" /><path clip-path="url(#clip160)" d="M1383.85 1533.45 L1383.85 1538.98 Q1381.36 1537.71 1378.69 1537.07 Q1376.02 1536.44 1373.15 1536.44 Q1368.79 1536.44 1366.59 1537.77 Q1364.43 1539.11 1364.43 1541.79 Q1364.43 1543.82 1365.99 1545 Q1367.55 1546.15 1372.26 1547.2 L1374.26 1547.64 Q1380.5 1548.98 1383.11 1551.43 Q1385.75 1553.85 1385.75 1558.21 Q1385.75 1563.17 1381.81 1566.07 Q1377.89 1568.97 1371.02 1568.97 Q1368.15 1568.97 1365.03 1568.39 Q1361.95 1567.85 1358.51 1566.74 L1358.51 1560.69 Q1361.76 1562.38 1364.91 1563.24 Q1368.06 1564.07 1371.15 1564.07 Q1375.28 1564.07 1377.51 1562.66 Q1379.74 1561.23 1379.74 1558.65 Q1379.74 1556.27 1378.12 1554.99 Q1376.52 1553.72 1371.08 1552.54 L1369.05 1552.07 Q1363.6 1550.92 1361.18 1548.56 Q1358.76 1546.18 1358.76 1542.04 Q1358.76 1537.01 1362.33 1534.27 Q1365.89 1531.54 1372.45 1531.54 Q1375.7 1531.54 1378.56 1532.01 Q1381.43 1532.49 1383.85 1533.45 Z" fill="#000000" fill-rule="nonzero" fill-opacity="1" /><path clip-path="url(#clip160)" d="M1394.16 1518.58 L1399.25 1518.58 Q1404.02 1526.09 1406.38 1533.29 Q1408.77 1540.48 1408.77 1547.58 Q1408.77 1554.71 1406.38 1561.93 Q1404.02 1569.16 1399.25 1576.64 L1394.16 1576.64 Q1398.39 1569.35 1400.46 1562.16 Q1402.56 1554.93 1402.56 1547.58 Q1402.56 1540.23 1400.46 1533.06 Q1398.39 1525.9 1394.16 1518.58 Z" fill="#000000" fill-rule="nonzero" fill-opacity="1" /><polyline clip-path="url(#clip162)" style="stroke:#000000; stroke-linecap:round; stroke-linejoin:round; stroke-width:2; stroke-opacity:0.1; fill:none" points="205.121,1384.24 2352.76,1384.24 "/>
<polyline clip-path="url(#clip162)" style="stroke:#000000; stroke-linecap:round; stroke-linejoin:round; stroke-width:2; stroke-opacity:0.1; fill:none" points="205.121,1059.88 2352.76,1059.88 "/>
<polyline clip-path="url(#clip162)" style="stroke:#000000; stroke-linecap:round; stroke-linejoin:round; stroke-width:2; stroke-opacity:0.1; fill:none" points="205.121,735.517 2352.76,735.517 "/>
<polyline clip-path="url(#clip162)" style="stroke:#000000; stroke-linecap:round; stroke-linejoin:round; stroke-width:2; stroke-opacity:0.1; fill:none" points="205.121,411.157 2352.76,411.157 "/>
<polyline clip-path="url(#clip162)" style="stroke:#000000; stroke-linecap:round; stroke-linejoin:round; stroke-width:2; stroke-opacity:0.1; fill:none" points="205.121,86.7961 2352.76,86.7961 "/>
<polyline clip-path="url(#clip160)" style="stroke:#000000; stroke-linecap:round; stroke-linejoin:round; stroke-width:4; stroke-opacity:1; fill:none" points="205.121,1423.18 205.121,47.2441 "/>
<polyline clip-path="url(#clip160)" style="stroke:#000000; stroke-linecap:round; stroke-linejoin:round; stroke-width:4; stroke-opacity:1; fill:none" points="205.121,1384.24 224.019,1384.24 "/>
<polyline clip-path="url(#clip160)" style="stroke:#000000; stroke-linecap:round; stroke-linejoin:round; stroke-width:4; stroke-opacity:1; fill:none" points="205.121,1059.88 224.019,1059.88 "/>
<polyline clip-path="url(#clip160)" style="stroke:#000000; stroke-linecap:round; stroke-linejoin:round; stroke-width:4; stroke-opacity:1; fill:none" points="205.121,735.517 224.019,735.517 "/>
<polyline clip-path="url(#clip160)" style="stroke:#000000; stroke-linecap:round; stroke-linejoin:round; stroke-width:4; stroke-opacity:1; fill:none" points="205.121,411.157 224.019,411.157 "/>
<polyline clip-path="url(#clip160)" style="stroke:#000000; stroke-linecap:round; stroke-linejoin:round; stroke-width:4; stroke-opacity:1; fill:none" points="205.121,86.7961 224.019,86.7961 "/>
<path clip-path="url(#clip160)" d="M157.177 1370.04 Q153.566 1370.04 151.737 1373.6 Q149.931 1377.14 149.931 1384.27 Q149.931 1391.38 151.737 1394.94 Q153.566 1398.49 157.177 1398.49 Q160.811 1398.49 162.616 1394.94 Q164.445 1391.38 164.445 1384.27 Q164.445 1377.14 162.616 1373.6 Q160.811 1370.04 157.177 1370.04 M157.177 1366.33 Q162.987 1366.33 166.042 1370.94 Q169.121 1375.52 169.121 1384.27 Q169.121 1393 166.042 1397.61 Q162.987 1402.19 157.177 1402.19 Q151.366 1402.19 148.288 1397.61 Q145.232 1393 145.232 1384.27 Q145.232 1375.52 148.288 1370.94 Q151.366 1366.33 157.177 1366.33 Z" fill="#000000" fill-rule="nonzero" fill-opacity="1" /><path clip-path="url(#clip160)" d="M117.825 1073.22 L125.464 1073.22 L125.464 1046.86 L117.154 1048.52 L117.154 1044.26 L125.418 1042.6 L130.093 1042.6 L130.093 1073.22 L137.732 1073.22 L137.732 1077.16 L117.825 1077.16 L117.825 1073.22 Z" fill="#000000" fill-rule="nonzero" fill-opacity="1" /><path clip-path="url(#clip160)" d="M157.177 1045.68 Q153.566 1045.68 151.737 1049.24 Q149.931 1052.78 149.931 1059.91 Q149.931 1067.02 151.737 1070.58 Q153.566 1074.13 157.177 1074.13 Q160.811 1074.13 162.616 1070.58 Q164.445 1067.02 164.445 1059.91 Q164.445 1052.78 162.616 1049.24 Q160.811 1045.68 157.177 1045.68 M157.177 1041.97 Q162.987 1041.97 166.042 1046.58 Q169.121 1051.16 169.121 1059.91 Q169.121 1068.64 166.042 1073.25 Q162.987 1077.83 157.177 1077.83 Q151.366 1077.83 148.288 1073.25 Q145.232 1068.64 145.232 1059.91 Q145.232 1051.16 148.288 1046.58 Q151.366 1041.97 157.177 1041.97 Z" fill="#000000" fill-rule="nonzero" fill-opacity="1" /><path clip-path="url(#clip160)" d="M121.043 748.862 L137.362 748.862 L137.362 752.797 L115.418 752.797 L115.418 748.862 Q118.08 746.107 122.663 741.478 Q127.269 736.825 128.45 735.482 Q130.695 732.959 131.575 731.223 Q132.478 729.464 132.478 727.774 Q132.478 725.02 130.533 723.283 Q128.612 721.547 125.51 721.547 Q123.311 721.547 120.857 722.311 Q118.427 723.075 115.649 724.626 L115.649 719.904 Q118.473 718.77 120.927 718.191 Q123.38 717.612 125.418 717.612 Q130.788 717.612 133.982 720.297 Q137.177 722.983 137.177 727.473 Q137.177 729.603 136.367 731.524 Q135.579 733.422 133.473 736.015 Q132.894 736.686 129.792 739.904 Q126.691 743.098 121.043 748.862 Z" fill="#000000" fill-rule="nonzero" fill-opacity="1" /><path clip-path="url(#clip160)" d="M157.177 721.316 Q153.566 721.316 151.737 724.881 Q149.931 728.422 149.931 735.552 Q149.931 742.658 151.737 746.223 Q153.566 749.765 157.177 749.765 Q160.811 749.765 162.616 746.223 Q164.445 742.658 164.445 735.552 Q164.445 728.422 162.616 724.881 Q160.811 721.316 157.177 721.316 M157.177 717.612 Q162.987 717.612 166.042 722.219 Q169.121 726.802 169.121 735.552 Q169.121 744.279 166.042 748.885 Q162.987 753.468 157.177 753.468 Q151.366 753.468 148.288 748.885 Q145.232 744.279 145.232 735.552 Q145.232 726.802 148.288 722.219 Q151.366 717.612 157.177 717.612 Z" fill="#000000" fill-rule="nonzero" fill-opacity="1" /><path clip-path="url(#clip160)" d="M131.181 409.802 Q134.538 410.52 136.413 412.789 Q138.311 415.057 138.311 418.39 Q138.311 423.506 134.792 426.307 Q131.274 429.108 124.793 429.108 Q122.617 429.108 120.302 428.668 Q118.01 428.251 115.556 427.395 L115.556 422.881 Q117.501 424.015 119.816 424.594 Q122.13 425.173 124.654 425.173 Q129.052 425.173 131.343 423.437 Q133.658 421.701 133.658 418.39 Q133.658 415.335 131.505 413.622 Q129.376 411.886 125.556 411.886 L121.529 411.886 L121.529 408.043 L125.742 408.043 Q129.191 408.043 131.019 406.677 Q132.848 405.289 132.848 402.696 Q132.848 400.034 130.95 398.622 Q129.075 397.187 125.556 397.187 Q123.635 397.187 121.436 397.603 Q119.237 398.02 116.598 398.9 L116.598 394.733 Q119.26 393.992 121.575 393.622 Q123.913 393.252 125.973 393.252 Q131.297 393.252 134.399 395.682 Q137.501 398.09 137.501 402.21 Q137.501 405.08 135.857 407.071 Q134.214 409.039 131.181 409.802 Z" fill="#000000" fill-rule="nonzero" fill-opacity="1" /><path clip-path="url(#clip160)" d="M157.177 396.955 Q153.566 396.955 151.737 400.52 Q149.931 404.062 149.931 411.191 Q149.931 418.298 151.737 421.863 Q153.566 425.404 157.177 425.404 Q160.811 425.404 162.616 421.863 Q164.445 418.298 164.445 411.191 Q164.445 404.062 162.616 400.52 Q160.811 396.955 157.177 396.955 M157.177 393.252 Q162.987 393.252 166.042 397.858 Q169.121 402.441 169.121 411.191 Q169.121 419.918 166.042 424.525 Q162.987 429.108 157.177 429.108 Q151.366 429.108 148.288 424.525 Q145.232 419.918 145.232 411.191 Q145.232 402.441 148.288 397.858 Q151.366 393.252 157.177 393.252 Z" fill="#000000" fill-rule="nonzero" fill-opacity="1" /><path clip-path="url(#clip160)" d="M129.862 73.5901 L118.056 92.0391 L129.862 92.0391 L129.862 73.5901 M128.635 69.5161 L134.515 69.5161 L134.515 92.0391 L139.445 92.0391 L139.445 95.928 L134.515 95.928 L134.515 104.076 L129.862 104.076 L129.862 95.928 L114.26 95.928 L114.26 91.4141 L128.635 69.5161 Z" fill="#000000" fill-rule="nonzero" fill-opacity="1" /><path clip-path="url(#clip160)" d="M157.177 72.5948 Q153.566 72.5948 151.737 76.1596 Q149.931 79.7012 149.931 86.8308 Q149.931 93.9372 151.737 97.502 Q153.566 101.044 157.177 101.044 Q160.811 101.044 162.616 97.502 Q164.445 93.9372 164.445 86.8308 Q164.445 79.7012 162.616 76.1596 Q160.811 72.5948 157.177 72.5948 M157.177 68.8911 Q162.987 68.8911 166.042 73.4975 Q169.121 78.0808 169.121 86.8308 Q169.121 95.5576 166.042 100.164 Q162.987 104.747 157.177 104.747 Q151.366 104.747 148.288 100.164 Q145.232 95.5576 145.232 86.8308 Q145.232 78.0808 148.288 73.4975 Q151.366 68.8911 157.177 68.8911 Z" fill="#000000" fill-rule="nonzero" fill-opacity="1" /><path clip-path="url(#clip160)" d="M21.7178 734.435 Q22.1687 734.435 23.2315 734.724 L48.4165 741.037 Q54.0203 742.422 57.9494 746.93 Q61.8785 751.407 61.8785 756.496 Q61.8785 759.555 60.236 761.52 Q58.6257 763.484 56.1459 763.484 Q53.9559 763.484 52.8931 762.325 Q51.8625 761.165 51.8625 759.781 Q51.8625 759.33 51.9913 758.847 Q52.1201 758.364 52.6676 757.848 Q53.2151 757.333 54.1491 757.333 Q55.6628 757.333 56.8544 758.653 Q57.4019 759.298 57.5307 759.909 Q57.6596 760.489 57.6596 761.488 Q58.5613 761.101 59.1732 760.393 Q59.7851 759.684 60.0106 758.879 Q60.2682 758.074 60.3326 757.558 Q60.4293 757.011 60.4293 756.496 Q60.4293 752.373 56.2747 749.217 Q55.0187 748.283 53.7626 747.607 Q52.5388 746.898 51.0252 746.383 Q49.5437 745.868 48.7385 745.642 Q47.9334 745.385 46.0977 744.934 Q49.0928 747.929 49.0928 751.6 Q49.0928 753.146 48.6741 754.531 Q48.2554 755.884 47.3859 757.075 Q46.4841 758.267 44.906 758.975 Q43.3279 759.652 41.2346 759.652 Q39.0124 759.652 35.985 758.782 Q32.9577 757.913 27.386 755.819 Q24.2621 754.692 22.7484 754.692 Q22.0077 754.692 21.5568 754.853 Q21.0737 755.014 20.9127 755.336 Q20.7194 755.658 20.6872 755.852 Q20.655 756.013 20.655 756.335 Q20.655 758.235 22.5874 760.006 Q24.5197 761.777 28.8353 763.001 Q29.6405 763.259 29.8337 763.42 Q30.0269 763.581 30.0269 764.064 Q29.9947 764.869 29.3506 764.869 Q29.093 764.869 28.0946 764.579 Q27.064 764.289 25.5503 763.613 Q24.0044 762.905 22.6196 761.938 Q21.2025 760.972 20.2041 759.459 Q19.2058 757.913 19.2058 756.141 Q19.2058 753.726 20.7838 752.244 Q22.3297 750.731 24.6163 750.731 Q25.5503 750.731 26.3877 750.988 Q27.1928 751.214 29.3506 752.051 Q38.0462 755.433 42.2974 755.433 Q43.3279 755.433 44.1975 755.272 Q45.0349 755.079 45.8722 754.66 Q46.6774 754.241 47.1604 753.404 Q47.6113 752.534 47.6113 751.343 Q47.6113 749.829 46.9028 748.412 Q46.1621 746.963 45.1637 746.061 Q44.1653 745.127 43.3279 744.579 Q42.4584 744 42.0075 743.871 L30.1558 740.908 L24.874 739.588 Q22.0077 738.976 21.2991 738.686 Q20.6228 738.299 20.2686 737.623 Q19.9143 736.947 19.9143 736.367 Q19.9143 735.562 20.3974 735.014 Q20.8805 734.435 21.7178 734.435 Z" fill="#000000" fill-rule="nonzero" fill-opacity="1" /><path clip-path="url(#clip160)" d="M53.6652 727.689 L52.2224 727.689 Q52.2224 722.143 49.2691 719.28 Q49.2691 718.491 49.4494 718.355 Q49.6298 718.22 50.4639 718.22 L76.3671 718.22 Q77.7423 718.22 78.1706 717.544 Q78.599 716.867 78.599 713.914 L78.599 712.449 L80.0193 712.449 Q79.884 714.072 79.884 719.933 Q79.884 725.795 80.0193 727.395 L78.599 727.395 L78.599 725.93 Q78.599 723.022 78.1932 722.323 Q77.7648 721.624 76.3671 721.624 L52.4478 721.624 Q53.6652 724.036 53.6652 727.689 Z" fill="#000000" fill-rule="nonzero" fill-opacity="1" /><polyline clip-path="url(#clip162)" style="stroke:#009af9; stroke-linecap:round; stroke-linejoin:round; stroke-width:4; stroke-opacity:1; fill:none" points="265.903,1384.24 325.493,1384.24 385.084,1190.65 444.674,880.908 504.264,548.818 563.855,277.79 623.445,119.438 683.035,86.1857 742.626,159.149 802.216,302.127 861.806,473.202 921.397,632.647 980.987,749.096 1040.58,804.539 1100.17,796.815 1159.76,738.326 1219.35,651.178 1278.94,560.383 1338.53,487.296 1398.12,445.154 1457.71,437.598 1517.3,459.886 1576.89,501.696 1636.48,550.438 1696.07,594.282 1755.66,624.496 1815.25,636.8 1874.84,631.589 1934.43,613.1 1994.02,587.817 2053.61,562.613 2113.2,543.108 2172.79,532.621 2232.38,531.853 2291.97,539.224 "/>
</svg>
