<?xml version="1.0" encoding="utf-8"?>
<svg xmlns="http://www.w3.org/2000/svg" xmlns:xlink="http://www.w3.org/1999/xlink" width="600" height="400" viewBox="0 0 2400 1600">
<defs>
  <clipPath id="clip690">
    <rect x="0" y="0" width="2400" height="1600"/>
  </clipPath>
</defs>
<path clip-path="url(#clip690)" d="M0 1600 L2400 1600 L2400 0 L0 0  Z" fill="#ffffff" fill-rule="evenodd" fill-opacity="1"/>
<defs>
  <clipPath id="clip691">
    <rect x="480" y="0" width="1681" height="1600"/>
  </clipPath>
</defs>
<path clip-path="url(#clip690)" d="M203.964 1423.18 L1110.81 1423.18 L1110.81 47.2441 L203.964 47.2441  Z" fill="#ffffff" fill-rule="evenodd" fill-opacity="1"/>
<defs>
  <clipPath id="clip692">
    <rect x="203" y="47" width="908" height="1377"/>
  </clipPath>
</defs>
<polyline clip-path="url(#clip692)" style="stroke:#000000; stroke-linecap:round; stroke-linejoin:round; stroke-width:2; stroke-opacity:0.1; fill:none" points="229.629,1423.18 229.629,47.2441 "/>
<polyline clip-path="url(#clip692)" style="stroke:#000000; stroke-linecap:round; stroke-linejoin:round; stroke-width:2; stroke-opacity:0.1; fill:none" points="481.252,1423.18 481.252,47.2441 "/>
<polyline clip-path="url(#clip692)" style="stroke:#000000; stroke-linecap:round; stroke-linejoin:round; stroke-width:2; stroke-opacity:0.1; fill:none" points="732.874,1423.18 732.874,47.2441 "/>
<polyline clip-path="url(#clip692)" style="stroke:#000000; stroke-linecap:round; stroke-linejoin:round; stroke-width:2; stroke-opacity:0.1; fill:none" points="984.497,1423.18 984.497,47.2441 "/>
<polyline clip-path="url(#clip692)" style="stroke:#000000; stroke-linecap:round; stroke-linejoin:round; stroke-width:2; stroke-opacity:0.1; fill:none" points="203.964,1379.17 1110.81,1379.17 "/>
<polyline clip-path="url(#clip692)" style="stroke:#000000; stroke-linecap:round; stroke-linejoin:round; stroke-width:2; stroke-opacity:0.1; fill:none" points="203.964,1154.95 1110.81,1154.95 "/>
<polyline clip-path="url(#clip692)" style="stroke:#000000; stroke-linecap:round; stroke-linejoin:round; stroke-width:2; stroke-opacity:0.1; fill:none" points="203.964,930.736 1110.81,930.736 "/>
<polyline clip-path="url(#clip692)" style="stroke:#000000; stroke-linecap:round; stroke-linejoin:round; stroke-width:2; stroke-opacity:0.1; fill:none" points="203.964,706.517 1110.81,706.517 "/>
<polyline clip-path="url(#clip692)" style="stroke:#000000; stroke-linecap:round; stroke-linejoin:round; stroke-width:2; stroke-opacity:0.1; fill:none" points="203.964,482.299 1110.81,482.299 "/>
<polyline clip-path="url(#clip692)" style="stroke:#000000; stroke-linecap:round; stroke-linejoin:round; stroke-width:2; stroke-opacity:0.1; fill:none" points="203.964,258.08 1110.81,258.08 "/>
<polyline clip-path="url(#clip690)" style="stroke:#000000; stroke-linecap:round; stroke-linejoin:round; stroke-width:4; stroke-opacity:1; fill:none" points="203.964,1423.18 1110.81,1423.18 "/>
<polyline clip-path="url(#clip690)" style="stroke:#000000; stroke-linecap:round; stroke-linejoin:round; stroke-width:4; stroke-opacity:1; fill:none" points="229.629,1423.18 229.629,1404.28 "/>
<polyline clip-path="url(#clip690)" style="stroke:#000000; stroke-linecap:round; stroke-linejoin:round; stroke-width:4; stroke-opacity:1; fill:none" points="481.252,1423.18 481.252,1404.28 "/>
<polyline clip-path="url(#clip690)" style="stroke:#000000; stroke-linecap:round; stroke-linejoin:round; stroke-width:4; stroke-opacity:1; fill:none" points="732.874,1423.18 732.874,1404.28 "/>
<polyline clip-path="url(#clip690)" style="stroke:#000000; stroke-linecap:round; stroke-linejoin:round; stroke-width:4; stroke-opacity:1; fill:none" points="984.497,1423.18 984.497,1404.28 "/>
<path clip-path="url(#clip690)" d="M229.629 1454.1 Q226.018 1454.1 224.189 1457.66 Q222.384 1461.2 222.384 1468.33 Q222.384 1475.44 224.189 1479.01 Q226.018 1482.55 229.629 1482.55 Q233.263 1482.55 235.069 1479.01 Q236.898 1475.44 236.898 1468.33 Q236.898 1461.2 235.069 1457.66 Q233.263 1454.1 229.629 1454.1 M229.629 1450.39 Q235.439 1450.39 238.495 1455 Q241.573 1459.58 241.573 1468.33 Q241.573 1477.06 238.495 1481.67 Q235.439 1486.25 229.629 1486.25 Q223.819 1486.25 220.74 1481.67 Q217.685 1477.06 217.685 1468.33 Q217.685 1459.58 220.74 1455 Q223.819 1450.39 229.629 1450.39 Z" fill="#000000" fill-rule="nonzero" fill-opacity="1" /><path clip-path="url(#clip690)" d="M471.634 1481.64 L479.273 1481.64 L479.273 1455.28 L470.962 1456.95 L470.962 1452.69 L479.226 1451.02 L483.902 1451.02 L483.902 1481.64 L491.541 1481.64 L491.541 1485.58 L471.634 1485.58 L471.634 1481.64 Z" fill="#000000" fill-rule="nonzero" fill-opacity="1" /><path clip-path="url(#clip690)" d="M727.527 1481.64 L743.847 1481.64 L743.847 1485.58 L721.902 1485.58 L721.902 1481.64 Q724.564 1478.89 729.148 1474.26 Q733.754 1469.61 734.935 1468.27 Q737.18 1465.74 738.06 1464.01 Q738.962 1462.25 738.962 1460.56 Q738.962 1457.8 737.018 1456.07 Q735.097 1454.33 731.995 1454.33 Q729.796 1454.33 727.342 1455.09 Q724.912 1455.86 722.134 1457.41 L722.134 1452.69 Q724.958 1451.55 727.411 1450.97 Q729.865 1450.39 731.902 1450.39 Q737.273 1450.39 740.467 1453.08 Q743.661 1455.77 743.661 1460.26 Q743.661 1462.39 742.851 1464.31 Q742.064 1466.2 739.958 1468.8 Q739.379 1469.47 736.277 1472.69 Q733.175 1475.88 727.527 1481.64 Z" fill="#000000" fill-rule="nonzero" fill-opacity="1" /><path clip-path="url(#clip690)" d="M988.745 1466.95 Q992.101 1467.66 993.976 1469.93 Q995.874 1472.2 995.874 1475.53 Q995.874 1480.65 992.356 1483.45 Q988.837 1486.25 982.356 1486.25 Q980.18 1486.25 977.865 1485.81 Q975.574 1485.39 973.12 1484.54 L973.12 1480.02 Q975.064 1481.16 977.379 1481.74 Q979.694 1482.32 982.217 1482.32 Q986.615 1482.32 988.907 1480.58 Q991.222 1478.84 991.222 1475.53 Q991.222 1472.48 989.069 1470.77 Q986.939 1469.03 983.12 1469.03 L979.092 1469.03 L979.092 1465.19 L983.305 1465.19 Q986.754 1465.19 988.583 1463.82 Q990.411 1462.43 990.411 1459.84 Q990.411 1457.18 988.513 1455.77 Q986.638 1454.33 983.12 1454.33 Q981.199 1454.33 978.999 1454.75 Q976.8 1455.16 974.162 1456.04 L974.162 1451.88 Q976.824 1451.14 979.138 1450.77 Q981.476 1450.39 983.536 1450.39 Q988.861 1450.39 991.962 1452.83 Q995.064 1455.23 995.064 1459.35 Q995.064 1462.22 993.421 1464.21 Q991.777 1466.18 988.745 1466.95 Z" fill="#000000" fill-rule="nonzero" fill-opacity="1" /><path clip-path="url(#clip690)" d="M527.559 1520.52 L567.758 1520.52 L567.758 1525.93 L550.889 1525.93 L550.889 1568.04 L544.428 1568.04 L544.428 1525.93 L527.559 1525.93 L527.559 1520.52 Z" fill="#000000" fill-rule="nonzero" fill-opacity="1" /><path clip-path="url(#clip690)" d="M571.705 1532.4 L577.562 1532.4 L577.562 1568.04 L571.705 1568.04 L571.705 1532.4 M571.705 1518.52 L577.562 1518.52 L577.562 1525.93 L571.705 1525.93 L571.705 1518.52 Z" fill="#000000" fill-rule="nonzero" fill-opacity="1" /><path clip-path="url(#clip690)" d="M617.57 1539.24 Q619.766 1535.29 622.822 1533.41 Q625.877 1531.54 630.015 1531.54 Q635.585 1531.54 638.609 1535.45 Q641.633 1539.33 641.633 1546.53 L641.633 1568.04 L635.744 1568.04 L635.744 1546.72 Q635.744 1541.59 633.93 1539.11 Q632.116 1536.63 628.392 1536.63 Q623.84 1536.63 621.199 1539.65 Q618.557 1542.68 618.557 1547.9 L618.557 1568.04 L612.669 1568.04 L612.669 1546.72 Q612.669 1541.56 610.854 1539.11 Q609.04 1536.63 605.252 1536.63 Q600.765 1536.63 598.123 1539.68 Q595.481 1542.71 595.481 1547.9 L595.481 1568.04 L589.593 1568.04 L589.593 1532.4 L595.481 1532.4 L595.481 1537.93 Q597.486 1534.66 600.287 1533.1 Q603.088 1531.54 606.939 1531.54 Q610.822 1531.54 613.528 1533.51 Q616.265 1535.48 617.57 1539.24 Z" fill="#000000" fill-rule="nonzero" fill-opacity="1" /><path clip-path="url(#clip690)" d="M683.805 1548.76 L683.805 1551.62 L656.878 1551.62 Q657.26 1557.67 660.507 1560.85 Q663.785 1564 669.61 1564 Q672.984 1564 676.135 1563.17 Q679.317 1562.35 682.437 1560.69 L682.437 1566.23 Q679.286 1567.57 675.975 1568.27 Q672.665 1568.97 669.26 1568.97 Q660.73 1568.97 655.733 1564 Q650.767 1559.04 650.767 1550.57 Q650.767 1541.82 655.478 1536.69 Q660.22 1531.54 668.241 1531.54 Q675.434 1531.54 679.604 1536.18 Q683.805 1540.8 683.805 1548.76 M677.949 1547.04 Q677.885 1542.23 675.243 1539.37 Q672.633 1536.5 668.305 1536.5 Q663.403 1536.5 660.443 1539.27 Q657.515 1542.04 657.069 1547.07 L677.949 1547.04 Z" fill="#000000" fill-rule="nonzero" fill-opacity="1" /><path clip-path="url(#clip690)" d="M728.206 1518.58 Q723.941 1525.9 721.872 1533.06 Q719.803 1540.23 719.803 1547.58 Q719.803 1554.93 721.872 1562.16 Q723.973 1569.35 728.206 1576.64 L723.114 1576.64 Q718.339 1569.16 715.952 1561.93 Q713.597 1554.71 713.597 1547.58 Q713.597 1540.48 715.952 1533.29 Q718.307 1526.09 723.114 1518.58 L728.206 1518.58 Z" fill="#000000" fill-rule="nonzero" fill-opacity="1" /><path clip-path="url(#clip690)" d="M762.294 1533.45 L762.294 1538.98 Q759.812 1537.71 757.138 1537.07 Q754.465 1536.44 751.6 1536.44 Q747.24 1536.44 745.043 1537.77 Q742.879 1539.11 742.879 1541.79 Q742.879 1543.82 744.439 1545 Q745.998 1546.15 750.709 1547.2 L752.714 1547.64 Q758.952 1548.98 761.562 1551.43 Q764.204 1553.85 764.204 1558.21 Q764.204 1563.17 760.257 1566.07 Q756.343 1568.97 749.468 1568.97 Q746.603 1568.97 743.484 1568.39 Q740.396 1567.85 736.959 1566.74 L736.959 1560.69 Q740.205 1562.38 743.356 1563.24 Q746.508 1564.07 749.595 1564.07 Q753.733 1564.07 755.961 1562.66 Q758.189 1561.23 758.189 1558.65 Q758.189 1556.27 756.565 1554.99 Q754.974 1553.72 749.531 1552.54 L747.494 1552.07 Q742.052 1550.92 739.633 1548.56 Q737.214 1546.18 737.214 1542.04 Q737.214 1537.01 740.778 1534.27 Q744.343 1531.54 750.9 1531.54 Q754.146 1531.54 757.011 1532.01 Q759.876 1532.49 762.294 1533.45 Z" fill="#000000" fill-rule="nonzero" fill-opacity="1" /><path clip-path="url(#clip690)" d="M772.607 1518.58 L777.699 1518.58 Q782.474 1526.09 784.829 1533.29 Q787.216 1540.48 787.216 1547.58 Q787.216 1554.71 784.829 1561.93 Q782.474 1569.16 777.699 1576.64 L772.607 1576.64 Q776.84 1569.35 778.909 1562.16 Q781.01 1554.93 781.01 1547.58 Q781.01 1540.23 778.909 1533.06 Q776.84 1525.9 772.607 1518.58 Z" fill="#000000" fill-rule="nonzero" fill-opacity="1" /><polyline clip-path="url(#clip690)" style="stroke:#000000; stroke-linecap:round; stroke-linejoin:round; stroke-width:4; stroke-opacity:1; fill:none" points="203.964,1423.18 203.964,47.2441 "/>
<polyline clip-path="url(#clip690)" style="stroke:#000000; stroke-linecap:round; stroke-linejoin:round; stroke-width:4; stroke-opacity:1; fill:none" points="203.964,1379.17 222.861,1379.17 "/>
<polyline clip-path="url(#clip690)" style="stroke:#000000; stroke-linecap:round; stroke-linejoin:round; stroke-width:4; stroke-opacity:1; fill:none" points="203.964,1154.95 222.861,1154.95 "/>
<polyline clip-path="url(#clip690)" style="stroke:#000000; stroke-linecap:round; stroke-linejoin:round; stroke-width:4; stroke-opacity:1; fill:none" points="203.964,930.736 222.861,930.736 "/>
<polyline clip-path="url(#clip690)" style="stroke:#000000; stroke-linecap:round; stroke-linejoin:round; stroke-width:4; stroke-opacity:1; fill:none" points="203.964,706.517 222.861,706.517 "/>
<polyline clip-path="url(#clip690)" style="stroke:#000000; stroke-linecap:round; stroke-linejoin:round; stroke-width:4; stroke-opacity:1; fill:none" points="203.964,482.299 222.861,482.299 "/>
<polyline clip-path="url(#clip690)" style="stroke:#000000; stroke-linecap:round; stroke-linejoin:round; stroke-width:4; stroke-opacity:1; fill:none" points="203.964,258.08 222.861,258.08 "/>
<path clip-path="url(#clip690)" d="M156.019 1364.97 Q152.408 1364.97 150.579 1368.54 Q148.774 1372.08 148.774 1379.21 Q148.774 1386.31 150.579 1389.88 Q152.408 1393.42 156.019 1393.42 Q159.653 1393.42 161.459 1389.88 Q163.288 1386.31 163.288 1379.21 Q163.288 1372.08 161.459 1368.54 Q159.653 1364.97 156.019 1364.97 M156.019 1361.27 Q161.829 1361.27 164.885 1365.87 Q167.964 1370.46 167.964 1379.21 Q167.964 1387.93 164.885 1392.54 Q161.829 1397.12 156.019 1397.12 Q150.209 1397.12 147.13 1392.54 Q144.075 1387.93 144.075 1379.21 Q144.075 1370.46 147.13 1365.87 Q150.209 1361.27 156.019 1361.27 Z" fill="#000000" fill-rule="nonzero" fill-opacity="1" /><path clip-path="url(#clip690)" d="M147.061 1137.67 L165.417 1137.67 L165.417 1141.61 L151.343 1141.61 L151.343 1150.08 Q152.362 1149.73 153.38 1149.57 Q154.399 1149.39 155.417 1149.39 Q161.204 1149.39 164.584 1152.56 Q167.964 1155.73 167.964 1161.15 Q167.964 1166.73 164.491 1169.83 Q161.019 1172.91 154.7 1172.91 Q152.524 1172.91 150.255 1172.54 Q148.01 1172.17 145.603 1171.42 L145.603 1166.73 Q147.686 1167.86 149.908 1168.42 Q152.13 1168.97 154.607 1168.97 Q158.612 1168.97 160.95 1166.86 Q163.288 1164.76 163.288 1161.15 Q163.288 1157.54 160.95 1155.43 Q158.612 1153.32 154.607 1153.32 Q152.732 1153.32 150.857 1153.74 Q149.005 1154.16 147.061 1155.04 L147.061 1137.67 Z" fill="#000000" fill-rule="nonzero" fill-opacity="1" /><path clip-path="url(#clip690)" d="M116.668 944.081 L124.306 944.081 L124.306 917.715 L115.996 919.382 L115.996 915.123 L124.26 913.456 L128.936 913.456 L128.936 944.081 L136.575 944.081 L136.575 948.016 L116.668 948.016 L116.668 944.081 Z" fill="#000000" fill-rule="nonzero" fill-opacity="1" /><path clip-path="url(#clip690)" d="M156.019 916.535 Q152.408 916.535 150.579 920.099 Q148.774 923.641 148.774 930.771 Q148.774 937.877 150.579 941.442 Q152.408 944.984 156.019 944.984 Q159.653 944.984 161.459 941.442 Q163.288 937.877 163.288 930.771 Q163.288 923.641 161.459 920.099 Q159.653 916.535 156.019 916.535 M156.019 912.831 Q161.829 912.831 164.885 917.437 Q167.964 922.021 167.964 930.771 Q167.964 939.498 164.885 944.104 Q161.829 948.687 156.019 948.687 Q150.209 948.687 147.13 944.104 Q144.075 939.498 144.075 930.771 Q144.075 922.021 147.13 917.437 Q150.209 912.831 156.019 912.831 Z" fill="#000000" fill-rule="nonzero" fill-opacity="1" /><path clip-path="url(#clip690)" d="M117.663 719.862 L125.302 719.862 L125.302 693.497 L116.992 695.163 L116.992 690.904 L125.255 689.237 L129.931 689.237 L129.931 719.862 L137.57 719.862 L137.57 723.797 L117.663 723.797 L117.663 719.862 Z" fill="#000000" fill-rule="nonzero" fill-opacity="1" /><path clip-path="url(#clip690)" d="M147.061 689.237 L165.417 689.237 L165.417 693.173 L151.343 693.173 L151.343 701.645 Q152.362 701.298 153.38 701.136 Q154.399 700.95 155.417 700.95 Q161.204 700.95 164.584 704.122 Q167.964 707.293 167.964 712.71 Q167.964 718.288 164.491 721.39 Q161.019 724.469 154.7 724.469 Q152.524 724.469 150.255 724.098 Q148.01 723.728 145.603 722.987 L145.603 718.288 Q147.686 719.422 149.908 719.978 Q152.13 720.534 154.607 720.534 Q158.612 720.534 160.95 718.427 Q163.288 716.321 163.288 712.71 Q163.288 709.098 160.95 706.992 Q158.612 704.885 154.607 704.885 Q152.732 704.885 150.857 705.302 Q149.005 705.719 147.061 706.598 L147.061 689.237 Z" fill="#000000" fill-rule="nonzero" fill-opacity="1" /><path clip-path="url(#clip690)" d="M119.885 495.644 L136.204 495.644 L136.204 499.579 L114.26 499.579 L114.26 495.644 Q116.922 492.889 121.505 488.259 Q126.112 483.607 127.292 482.264 Q129.538 479.741 130.417 478.005 Q131.32 476.246 131.32 474.556 Q131.32 471.801 129.376 470.065 Q127.455 468.329 124.353 468.329 Q122.154 468.329 119.7 469.093 Q117.269 469.857 114.492 471.408 L114.492 466.686 Q117.316 465.551 119.769 464.973 Q122.223 464.394 124.26 464.394 Q129.63 464.394 132.825 467.079 Q136.019 469.764 136.019 474.255 Q136.019 476.385 135.209 478.306 Q134.422 480.204 132.316 482.797 Q131.737 483.468 128.635 486.685 Q125.533 489.88 119.885 495.644 Z" fill="#000000" fill-rule="nonzero" fill-opacity="1" /><path clip-path="url(#clip690)" d="M156.019 468.098 Q152.408 468.098 150.579 471.662 Q148.774 475.204 148.774 482.334 Q148.774 489.44 150.579 493.005 Q152.408 496.546 156.019 496.546 Q159.653 496.546 161.459 493.005 Q163.288 489.44 163.288 482.334 Q163.288 475.204 161.459 471.662 Q159.653 468.098 156.019 468.098 M156.019 464.394 Q161.829 464.394 164.885 469 Q167.964 473.584 167.964 482.334 Q167.964 491.06 164.885 495.667 Q161.829 500.25 156.019 500.25 Q150.209 500.25 147.13 495.667 Q144.075 491.06 144.075 482.334 Q144.075 473.584 147.13 469 Q150.209 464.394 156.019 464.394 Z" fill="#000000" fill-rule="nonzero" fill-opacity="1" /><path clip-path="url(#clip690)" d="M120.88 271.425 L137.2 271.425 L137.2 275.36 L115.256 275.36 L115.256 271.425 Q117.918 268.671 122.501 264.041 Q127.107 259.388 128.288 258.046 Q130.533 255.522 131.413 253.786 Q132.316 252.027 132.316 250.337 Q132.316 247.583 130.371 245.847 Q128.45 244.11 125.348 244.11 Q123.149 244.11 120.695 244.874 Q118.265 245.638 115.487 247.189 L115.487 242.467 Q118.311 241.333 120.765 240.754 Q123.218 240.175 125.255 240.175 Q130.626 240.175 133.82 242.86 Q137.015 245.546 137.015 250.036 Q137.015 252.166 136.204 254.087 Q135.417 255.985 133.311 258.578 Q132.732 259.249 129.63 262.467 Q126.529 265.661 120.88 271.425 Z" fill="#000000" fill-rule="nonzero" fill-opacity="1" /><path clip-path="url(#clip690)" d="M147.061 240.8 L165.417 240.8 L165.417 244.735 L151.343 244.735 L151.343 253.208 Q152.362 252.86 153.38 252.698 Q154.399 252.513 155.417 252.513 Q161.204 252.513 164.584 255.684 Q167.964 258.856 167.964 264.272 Q167.964 269.851 164.491 272.953 Q161.019 276.032 154.7 276.032 Q152.524 276.032 150.255 275.661 Q148.01 275.291 145.603 274.55 L145.603 269.851 Q147.686 270.985 149.908 271.541 Q152.13 272.096 154.607 272.096 Q158.612 272.096 160.95 269.99 Q163.288 267.883 163.288 264.272 Q163.288 260.661 160.95 258.555 Q158.612 256.448 154.607 256.448 Q152.732 256.448 150.857 256.865 Q149.005 257.282 147.061 258.161 L147.061 240.8 Z" fill="#000000" fill-rule="nonzero" fill-opacity="1" /><path clip-path="url(#clip690)" d="M39.4334 772.564 Q44.844 772.564 50.9309 774.303 Q56.9856 776.01 61.8809 778.715 Q66.744 781.42 69.9646 784.963 Q73.153 788.505 73.153 791.887 Q73.153 794.045 71.9613 795.655 Q70.7375 797.233 68.7085 798.103 Q66.6474 798.972 64.393 799.391 Q62.1063 799.81 59.6265 799.81 Q55.9228 799.81 51.8971 799.005 Q47.8391 798.199 44.1677 796.847 Q40.464 795.494 37.1146 793.594 Q33.733 791.694 31.2853 789.6 Q28.8055 787.475 27.3562 785.092 Q25.907 782.708 25.907 780.486 Q25.907 778.876 26.6155 777.588 Q27.2918 776.267 28.4834 775.43 Q29.6428 774.593 31.0277 774.013 Q32.4125 773.401 34.0228 773.111 Q35.6009 772.821 36.9214 772.692 Q38.2096 772.564 39.4334 772.564 M35.3433 776.911 Q33.7008 776.911 32.477 777.04 Q31.2209 777.169 29.9649 777.523 Q28.7089 777.878 28.0325 778.65 Q27.3562 779.391 27.3562 780.551 Q27.3562 783.932 34.2805 787.733 Q36.4383 788.956 39.369 790.051 Q42.2997 791.146 43.6846 791.533 Q45.0694 791.919 48.4833 792.821 L48.4833 779.037 Q39.6911 776.911 35.3433 776.911 M50.5766 779.617 L50.5766 793.336 Q58.6281 795.462 63.6522 795.462 Q68.0322 795.462 69.868 794.56 Q71.6715 793.626 71.6715 791.887 Q71.6715 789.89 69.6747 788.022 Q67.6458 786.154 63.9743 784.254 Q59.2078 781.742 50.5766 779.617 Z" fill="#000000" fill-rule="nonzero" fill-opacity="1" /><path clip-path="url(#clip690)" d="M22.9507 728.256 Q30.2712 732.521 37.4327 734.59 Q44.5941 736.658 51.9465 736.658 Q59.2989 736.658 66.5239 734.59 Q73.7172 732.489 81.0059 728.256 L81.0059 733.348 Q73.5262 738.123 66.3011 740.51 Q59.0761 742.865 51.9465 742.865 Q44.8487 742.865 37.6555 740.51 Q30.4622 738.154 22.9507 733.348 L22.9507 728.256 Z" fill="#000000" fill-rule="nonzero" fill-opacity="1" /><path clip-path="url(#clip690)" d="M28.1387 706.74 Q28.1387 709.286 29.9211 711.036 Q31.6717 712.787 34.218 712.787 Q36.7324 712.787 38.483 711.036 Q40.2017 709.286 40.2017 706.74 Q40.2017 704.193 38.483 702.443 Q36.7324 700.692 34.218 700.692 Q31.7035 700.692 29.9211 702.475 Q28.1387 704.225 28.1387 706.74 M24.0328 706.74 Q24.0328 704.703 24.8286 702.825 Q25.5924 700.947 27.0566 699.578 Q28.4888 698.114 30.3031 697.382 Q32.1173 696.65 34.218 696.65 Q38.4193 696.65 41.3476 699.61 Q44.244 702.538 44.244 706.803 Q44.244 711.1 41.3794 713.965 Q38.5148 716.829 34.218 716.829 Q29.953 716.829 26.9929 713.901 Q24.0328 710.973 24.0328 706.74 Z" fill="#000000" fill-rule="nonzero" fill-opacity="1" /><path clip-path="url(#clip690)" d="M22.9507 685.224 L22.9507 680.131 Q30.4622 675.357 37.6555 673.001 Q44.8487 670.614 51.9465 670.614 Q59.0761 670.614 66.3011 673.001 Q73.5262 675.357 81.0059 680.131 L81.0059 685.224 Q73.7172 680.99 66.5239 678.921 Q59.2989 676.821 51.9465 676.821 Q44.5941 676.821 37.4327 678.921 Q30.2712 680.99 22.9507 685.224 Z" fill="#000000" fill-rule="nonzero" fill-opacity="1" /><polyline clip-path="url(#clip692)" style="stroke:#009af9; stroke-linecap:round; stroke-linejoin:round; stroke-width:4; stroke-opacity:1; fill:none" points="229.629,1384.24 254.791,1222.73 279.954,1026.19 305.116,739.302 330.278,474.047 355.44,274.338 380.603,144.085 405.765,97.6206 430.927,86.1857 456.089,122.044 481.252,145.916 506.414,196.738 531.576,220.006 556.739,228.218 581.901,281.681 607.063,259.145 632.225,232.128 657.388,241.532 682.55,261.485 707.712,239.652 732.874,255.019 758.037,232.793 783.199,243.123 808.361,285.111 833.524,257.203 858.686,231.665 883.848,218.81 909.01,280.709 934.173,224.339 959.335,209.828 984.497,261.21 1009.66,254.247 1034.82,244.305 1059.98,289.427 1085.15,211.286 "/>
<polyline clip-path="url(#clip692)" style="stroke:#e26f46; stroke-linecap:round; stroke-linejoin:round; stroke-width:3; stroke-opacity:1; fill:none" stroke-dasharray="12, 6, 2, 6" points="229.629,1384.09 254.791,1233.26 279.954,1017.13 305.116,737.958 330.278,474.286 355.44,274.38 380.603,145.793 405.765,97.535 430.927,90.3872 456.089,124.386 481.252,153.624 506.414,199.527 531.576,226.146 556.739,234.924 581.901,276.637 607.063,266.594 632.225,239.358 657.388,239.626 682.55,256.911 707.712,243.981 732.874,252.459 758.037,237.012 783.199,241.265 808.361,276.757 833.524,262.97 858.686,237.248 883.848,220.681 909.01,267.823 934.173,235.311 959.335,213.781 984.497,250.788 1009.66,255.623 1034.82,247.401 1059.98,280.897 1085.15,226.316 "/>
<path clip-path="url(#clip690)" d="M961.069 1377.32 L1080.58 1377.32 L1080.58 1221.8 L961.069 1221.8  Z" fill="#ffffff" fill-rule="evenodd" fill-opacity="1"/>
<polyline clip-path="url(#clip690)" style="stroke:#000000; stroke-linecap:round; stroke-linejoin:round; stroke-width:4; stroke-opacity:1; fill:none" points="961.069,1377.32 1080.58,1377.32 1080.58,1221.8 961.069,1221.8 961.069,1377.32 "/>
<polyline clip-path="url(#clip690)" style="stroke:#009af9; stroke-linecap:round; stroke-linejoin:round; stroke-width:4; stroke-opacity:1; fill:none" points="971.145,1273.64 1031.6,1273.64 "/>
<path clip-path="url(#clip690)" d="M1068.45 1260.37 Q1066.97 1260.37 1066.22 1260.51 Q1065.48 1260.63 1065.29 1260.8 Q1065.1 1260.96 1064.89 1261.38 L1054.58 1283.3 Q1053.48 1285.65 1051.42 1287.33 Q1049.38 1289.02 1046.81 1289.02 Q1044.65 1289.02 1043.15 1287.71 Q1041.68 1286.42 1041.68 1284.59 Q1041.68 1283.28 1042.5 1282.53 Q1043.32 1281.81 1044.42 1281.81 Q1045.64 1281.81 1046.41 1282.58 Q1047.21 1283.35 1047.21 1284.55 Q1047.21 1285.32 1046.88 1285.9 Q1046.55 1286.51 1046.25 1286.72 Q1045.96 1286.96 1045.66 1287.1 Q1046.15 1287.29 1046.81 1287.29 Q1047.79 1287.29 1048.63 1286.89 Q1049.5 1286.51 1050.06 1286 Q1050.65 1285.51 1051.23 1284.62 Q1051.82 1283.75 1052.1 1283.19 Q1052.38 1282.65 1052.8 1281.71 L1053.9 1279.42 L1044.93 1260.37 L1041.87 1260.37 L1041.87 1258.13 L1047.35 1258.27 L1053.3 1258.13 L1053.3 1260.37 L1050.7 1260.37 L1056.79 1273.33 L1062.31 1261.52 L1062.55 1260.96 Q1062.55 1260.7 1061.99 1260.56 Q1061.42 1260.4 1060.86 1260.4 L1060.3 1260.37 L1060.3 1258.13 L1064.66 1258.27 Q1066.72 1258.27 1068.45 1258.13 L1068.45 1260.37 Z" fill="#000000" fill-rule="nonzero" fill-opacity="1" /><polyline clip-path="url(#clip690)" style="stroke:#e26f46; stroke-linecap:round; stroke-linejoin:round; stroke-width:3; stroke-opacity:1; fill:none" stroke-dasharray="12, 6, 2, 6" points="971.145,1325.48 1031.6,1325.48 "/>
<path clip-path="url(#clip690)" d="M1064.26 1309.2 L1063.85 1309.87 Q1061.31 1308.77 1058.15 1307.01 Q1054.98 1308.77 1052.44 1309.87 L1052.05 1309.2 Q1054.82 1306.79 1058.15 1304.93 Q1061.51 1306.8 1064.26 1309.2 Z" fill="#000000" fill-rule="nonzero" fill-opacity="1" /><path clip-path="url(#clip690)" d="M1068.45 1317.22 Q1066.97 1317.22 1066.22 1317.36 Q1065.48 1317.48 1065.29 1317.64 Q1065.1 1317.8 1064.89 1318.23 L1054.58 1340.15 Q1053.48 1342.49 1051.42 1344.18 Q1049.38 1345.86 1046.81 1345.86 Q1044.65 1345.86 1043.15 1344.55 Q1041.68 1343.26 1041.68 1341.44 Q1041.68 1340.13 1042.5 1339.38 Q1043.32 1338.65 1044.42 1338.65 Q1045.64 1338.65 1046.41 1339.42 Q1047.21 1340.2 1047.21 1341.39 Q1047.21 1342.16 1046.88 1342.75 Q1046.55 1343.36 1046.25 1343.57 Q1045.96 1343.8 1045.66 1343.94 Q1046.15 1344.13 1046.81 1344.13 Q1047.79 1344.13 1048.63 1343.73 Q1049.5 1343.36 1050.06 1342.84 Q1050.65 1342.35 1051.23 1341.46 Q1051.82 1340.59 1052.1 1340.03 Q1052.38 1339.49 1052.8 1338.56 L1053.9 1336.26 L1044.93 1317.22 L1041.87 1317.22 L1041.87 1314.97 L1047.35 1315.11 L1053.3 1314.97 L1053.3 1317.22 L1050.7 1317.22 L1056.79 1330.17 L1062.31 1318.37 L1062.55 1317.8 Q1062.55 1317.55 1061.99 1317.41 Q1061.42 1317.24 1060.86 1317.24 L1060.3 1317.22 L1060.3 1314.97 L1064.66 1315.11 Q1066.72 1315.11 1068.45 1314.97 L1068.45 1317.22 Z" fill="#000000" fill-rule="nonzero" fill-opacity="1" /><path clip-path="url(#clip690)" d="M1445.91 398.692 L2352.76 398.692 L2352.76 47.2441 L1445.91 47.2441  Z" fill="#ffffff" fill-rule="evenodd" fill-opacity="1"/>
<defs>
  <clipPath id="clip693">
    <rect x="1445" y="47" width="908" height="352"/>
  </clipPath>
</defs>
<polyline clip-path="url(#clip693)" style="stroke:#000000; stroke-linecap:round; stroke-linejoin:round; stroke-width:2; stroke-opacity:0.1; fill:none" points="1471.57,398.692 1471.57,47.2441 "/>
<polyline clip-path="url(#clip693)" style="stroke:#000000; stroke-linecap:round; stroke-linejoin:round; stroke-width:2; stroke-opacity:0.1; fill:none" points="1723.2,398.692 1723.2,47.2441 "/>
<polyline clip-path="url(#clip693)" style="stroke:#000000; stroke-linecap:round; stroke-linejoin:round; stroke-width:2; stroke-opacity:0.1; fill:none" points="1974.82,398.692 1974.82,47.2441 "/>
<polyline clip-path="url(#clip693)" style="stroke:#000000; stroke-linecap:round; stroke-linejoin:round; stroke-width:2; stroke-opacity:0.1; fill:none" points="2226.44,398.692 2226.44,47.2441 "/>
<polyline clip-path="url(#clip693)" style="stroke:#000000; stroke-linecap:round; stroke-linejoin:round; stroke-width:2; stroke-opacity:0.1; fill:none" points="1445.91,387.492 2352.76,387.492 "/>
<polyline clip-path="url(#clip693)" style="stroke:#000000; stroke-linecap:round; stroke-linejoin:round; stroke-width:2; stroke-opacity:0.1; fill:none" points="1445.91,322.003 2352.76,322.003 "/>
<polyline clip-path="url(#clip693)" style="stroke:#000000; stroke-linecap:round; stroke-linejoin:round; stroke-width:2; stroke-opacity:0.1; fill:none" points="1445.91,256.514 2352.76,256.514 "/>
<polyline clip-path="url(#clip693)" style="stroke:#000000; stroke-linecap:round; stroke-linejoin:round; stroke-width:2; stroke-opacity:0.1; fill:none" points="1445.91,191.025 2352.76,191.025 "/>
<polyline clip-path="url(#clip693)" style="stroke:#000000; stroke-linecap:round; stroke-linejoin:round; stroke-width:2; stroke-opacity:0.1; fill:none" points="1445.91,125.536 2352.76,125.536 "/>
<polyline clip-path="url(#clip693)" style="stroke:#000000; stroke-linecap:round; stroke-linejoin:round; stroke-width:2; stroke-opacity:0.1; fill:none" points="1445.91,60.0475 2352.76,60.0475 "/>
<polyline clip-path="url(#clip690)" style="stroke:#000000; stroke-linecap:round; stroke-linejoin:round; stroke-width:4; stroke-opacity:1; fill:none" points="1445.91,398.692 2352.76,398.692 "/>
<polyline clip-path="url(#clip690)" style="stroke:#000000; stroke-linecap:round; stroke-linejoin:round; stroke-width:4; stroke-opacity:1; fill:none" points="1471.57,398.692 1471.57,379.794 "/>
<polyline clip-path="url(#clip690)" style="stroke:#000000; stroke-linecap:round; stroke-linejoin:round; stroke-width:4; stroke-opacity:1; fill:none" points="1723.2,398.692 1723.2,379.794 "/>
<polyline clip-path="url(#clip690)" style="stroke:#000000; stroke-linecap:round; stroke-linejoin:round; stroke-width:4; stroke-opacity:1; fill:none" points="1974.82,398.692 1974.82,379.794 "/>
<polyline clip-path="url(#clip690)" style="stroke:#000000; stroke-linecap:round; stroke-linejoin:round; stroke-width:4; stroke-opacity:1; fill:none" points="2226.44,398.692 2226.44,379.794 "/>
<path clip-path="url(#clip690)" d="M1471.57 429.611 Q1467.96 429.611 1466.13 433.175 Q1464.33 436.717 1464.33 443.847 Q1464.33 450.953 1466.13 454.518 Q1467.96 458.059 1471.57 458.059 Q1475.21 458.059 1477.01 454.518 Q1478.84 450.953 1478.84 443.847 Q1478.84 436.717 1477.01 433.175 Q1475.21 429.611 1471.57 429.611 M1471.57 425.907 Q1477.38 425.907 1480.44 430.513 Q1483.52 435.097 1483.52 443.847 Q1483.52 452.573 1480.44 457.18 Q1477.38 461.763 1471.57 461.763 Q1465.76 461.763 1462.68 457.18 Q1459.63 452.573 1459.63 443.847 Q1459.63 435.097 1462.68 430.513 Q1465.76 425.907 1471.57 425.907 Z" fill="#000000" fill-rule="nonzero" fill-opacity="1" /><path clip-path="url(#clip690)" d="M1713.58 457.157 L1721.22 457.157 L1721.22 430.791 L1712.91 432.458 L1712.91 428.199 L1721.17 426.532 L1725.85 426.532 L1725.85 457.157 L1733.49 457.157 L1733.49 461.092 L1713.58 461.092 L1713.58 457.157 Z" fill="#000000" fill-rule="nonzero" fill-opacity="1" /><path clip-path="url(#clip690)" d="M1969.47 457.157 L1985.79 457.157 L1985.79 461.092 L1963.85 461.092 L1963.85 457.157 Q1966.51 454.402 1971.09 449.772 Q1975.7 445.12 1976.88 443.777 Q1979.12 441.254 1980 439.518 Q1980.91 437.759 1980.91 436.069 Q1980.91 433.314 1978.96 431.578 Q1977.04 429.842 1973.94 429.842 Q1971.74 429.842 1969.29 430.606 Q1966.86 431.37 1964.08 432.921 L1964.08 428.199 Q1966.9 427.064 1969.36 426.486 Q1971.81 425.907 1973.85 425.907 Q1979.22 425.907 1982.41 428.592 Q1985.61 431.277 1985.61 435.768 Q1985.61 437.898 1984.8 439.819 Q1984.01 441.717 1981.9 444.31 Q1981.32 444.981 1978.22 448.198 Q1975.12 451.393 1969.47 457.157 Z" fill="#000000" fill-rule="nonzero" fill-opacity="1" /><path clip-path="url(#clip690)" d="M2230.69 442.458 Q2234.05 443.175 2235.92 445.444 Q2237.82 447.712 2237.82 451.046 Q2237.82 456.161 2234.3 458.962 Q2230.78 461.763 2224.3 461.763 Q2222.12 461.763 2219.81 461.323 Q2217.52 460.907 2215.06 460.05 L2215.06 455.536 Q2217.01 456.671 2219.32 457.249 Q2221.64 457.828 2224.16 457.828 Q2228.56 457.828 2230.85 456.092 Q2233.17 454.356 2233.17 451.046 Q2233.17 447.99 2231.01 446.277 Q2228.88 444.541 2225.06 444.541 L2221.04 444.541 L2221.04 440.698 L2225.25 440.698 Q2228.7 440.698 2230.53 439.333 Q2232.36 437.944 2232.36 435.351 Q2232.36 432.689 2230.46 431.277 Q2228.58 429.842 2225.06 429.842 Q2223.14 429.842 2220.94 430.259 Q2218.74 430.675 2216.11 431.555 L2216.11 427.388 Q2218.77 426.648 2221.08 426.277 Q2223.42 425.907 2225.48 425.907 Q2230.8 425.907 2233.91 428.337 Q2237.01 430.745 2237.01 434.865 Q2237.01 437.736 2235.36 439.726 Q2233.72 441.694 2230.69 442.458 Z" fill="#000000" fill-rule="nonzero" fill-opacity="1" /><polyline clip-path="url(#clip690)" style="stroke:#000000; stroke-linecap:round; stroke-linejoin:round; stroke-width:4; stroke-opacity:1; fill:none" points="1445.91,398.692 1445.91,47.2441 "/>
<polyline clip-path="url(#clip690)" style="stroke:#000000; stroke-linecap:round; stroke-linejoin:round; stroke-width:4; stroke-opacity:1; fill:none" points="1445.91,387.492 1464.81,387.492 "/>
<polyline clip-path="url(#clip690)" style="stroke:#000000; stroke-linecap:round; stroke-linejoin:round; stroke-width:4; stroke-opacity:1; fill:none" points="1445.91,322.003 1464.81,322.003 "/>
<polyline clip-path="url(#clip690)" style="stroke:#000000; stroke-linecap:round; stroke-linejoin:round; stroke-width:4; stroke-opacity:1; fill:none" points="1445.91,256.514 1464.81,256.514 "/>
<polyline clip-path="url(#clip690)" style="stroke:#000000; stroke-linecap:round; stroke-linejoin:round; stroke-width:4; stroke-opacity:1; fill:none" points="1445.91,191.025 1464.81,191.025 "/>
<polyline clip-path="url(#clip690)" style="stroke:#000000; stroke-linecap:round; stroke-linejoin:round; stroke-width:4; stroke-opacity:1; fill:none" points="1445.91,125.536 1464.81,125.536 "/>
<polyline clip-path="url(#clip690)" style="stroke:#000000; stroke-linecap:round; stroke-linejoin:round; stroke-width:4; stroke-opacity:1; fill:none" points="1445.91,60.0475 1464.81,60.0475 "/>
<path clip-path="url(#clip690)" d="M1352.73 373.291 Q1349.12 373.291 1347.29 376.856 Q1345.49 380.398 1345.49 387.527 Q1345.49 394.634 1347.29 398.198 Q1349.12 401.74 1352.73 401.74 Q1356.37 401.74 1358.17 398.198 Q1360 394.634 1360 387.527 Q1360 380.398 1358.17 376.856 Q1356.37 373.291 1352.73 373.291 M1352.73 369.587 Q1358.54 369.587 1361.6 374.194 Q1364.68 378.777 1364.68 387.527 Q1364.68 396.254 1361.6 400.86 Q1358.54 405.444 1352.73 405.444 Q1346.92 405.444 1343.84 400.86 Q1340.79 396.254 1340.79 387.527 Q1340.79 378.777 1343.84 374.194 Q1346.92 369.587 1352.73 369.587 Z" fill="#000000" fill-rule="nonzero" fill-opacity="1" /><path clip-path="url(#clip690)" d="M1372.89 398.893 L1377.78 398.893 L1377.78 404.772 L1372.89 404.772 L1372.89 398.893 Z" fill="#000000" fill-rule="nonzero" fill-opacity="1" /><path clip-path="url(#clip690)" d="M1397.96 373.291 Q1394.35 373.291 1392.52 376.856 Q1390.72 380.398 1390.72 387.527 Q1390.72 394.634 1392.52 398.198 Q1394.35 401.74 1397.96 401.74 Q1401.6 401.74 1403.4 398.198 Q1405.23 394.634 1405.23 387.527 Q1405.23 380.398 1403.4 376.856 Q1401.6 373.291 1397.96 373.291 M1397.96 369.587 Q1403.77 369.587 1406.83 374.194 Q1409.91 378.777 1409.91 387.527 Q1409.91 396.254 1406.83 400.86 Q1403.77 405.444 1397.96 405.444 Q1392.15 405.444 1389.07 400.86 Q1386.02 396.254 1386.02 387.527 Q1386.02 378.777 1389.07 374.194 Q1392.15 369.587 1397.96 369.587 Z" fill="#000000" fill-rule="nonzero" fill-opacity="1" /><path clip-path="url(#clip690)" d="M1353.96 307.802 Q1350.35 307.802 1348.52 311.367 Q1346.71 314.909 1346.71 322.038 Q1346.71 329.145 1348.52 332.709 Q1350.35 336.251 1353.96 336.251 Q1357.59 336.251 1359.4 332.709 Q1361.23 329.145 1361.23 322.038 Q1361.23 314.909 1359.4 311.367 Q1357.59 307.802 1353.96 307.802 M1353.96 304.098 Q1359.77 304.098 1362.82 308.705 Q1365.9 313.288 1365.9 322.038 Q1365.9 330.765 1362.82 335.371 Q1359.77 339.955 1353.96 339.955 Q1348.15 339.955 1345.07 335.371 Q1342.01 330.765 1342.01 322.038 Q1342.01 313.288 1345.07 308.705 Q1348.15 304.098 1353.96 304.098 Z" fill="#000000" fill-rule="nonzero" fill-opacity="1" /><path clip-path="url(#clip690)" d="M1374.12 333.404 L1379.01 333.404 L1379.01 339.283 L1374.12 339.283 L1374.12 333.404 Z" fill="#000000" fill-rule="nonzero" fill-opacity="1" /><path clip-path="url(#clip690)" d="M1390 335.348 L1397.64 335.348 L1397.64 308.983 L1389.33 310.649 L1389.33 306.39 L1397.59 304.723 L1402.27 304.723 L1402.27 335.348 L1409.91 335.348 L1409.91 339.283 L1390 339.283 L1390 335.348 Z" fill="#000000" fill-rule="nonzero" fill-opacity="1" /><path clip-path="url(#clip690)" d="M1354.33 242.313 Q1350.72 242.313 1348.89 245.878 Q1347.08 249.42 1347.08 256.549 Q1347.08 263.656 1348.89 267.22 Q1350.72 270.762 1354.33 270.762 Q1357.96 270.762 1359.77 267.22 Q1361.6 263.656 1361.6 256.549 Q1361.6 249.42 1359.77 245.878 Q1357.96 242.313 1354.33 242.313 M1354.33 238.609 Q1360.14 238.609 1363.2 243.216 Q1366.27 247.799 1366.27 256.549 Q1366.27 265.276 1363.2 269.882 Q1360.14 274.466 1354.33 274.466 Q1348.52 274.466 1345.44 269.882 Q1342.39 265.276 1342.39 256.549 Q1342.39 247.799 1345.44 243.216 Q1348.52 238.609 1354.33 238.609 Z" fill="#000000" fill-rule="nonzero" fill-opacity="1" /><path clip-path="url(#clip690)" d="M1374.49 267.915 L1379.38 267.915 L1379.38 273.794 L1374.49 273.794 L1374.49 267.915 Z" fill="#000000" fill-rule="nonzero" fill-opacity="1" /><path clip-path="url(#clip690)" d="M1393.59 269.859 L1409.91 269.859 L1409.91 273.794 L1387.96 273.794 L1387.96 269.859 Q1390.63 267.105 1395.21 262.475 Q1399.82 257.822 1401 256.48 Q1403.24 253.957 1404.12 252.22 Q1405.02 250.461 1405.02 248.771 Q1405.02 246.017 1403.08 244.281 Q1401.16 242.545 1398.06 242.545 Q1395.86 242.545 1393.4 243.308 Q1390.97 244.072 1388.19 245.623 L1388.19 240.901 Q1391.02 239.767 1393.47 239.188 Q1395.93 238.609 1397.96 238.609 Q1403.33 238.609 1406.53 241.295 Q1409.72 243.98 1409.72 248.47 Q1409.72 250.6 1408.91 252.521 Q1408.13 254.42 1406.02 257.012 Q1405.44 257.683 1402.34 260.901 Q1399.24 264.095 1393.59 269.859 Z" fill="#000000" fill-rule="nonzero" fill-opacity="1" /><path clip-path="url(#clip690)" d="M1353.38 176.824 Q1349.77 176.824 1347.94 180.389 Q1346.13 183.931 1346.13 191.06 Q1346.13 198.167 1347.94 201.731 Q1349.77 205.273 1353.38 205.273 Q1357.01 205.273 1358.82 201.731 Q1360.65 198.167 1360.65 191.06 Q1360.65 183.931 1358.82 180.389 Q1357.01 176.824 1353.38 176.824 M1353.38 173.12 Q1359.19 173.12 1362.25 177.727 Q1365.32 182.31 1365.32 191.06 Q1365.32 199.787 1362.25 204.393 Q1359.19 208.977 1353.38 208.977 Q1347.57 208.977 1344.49 204.393 Q1341.44 199.787 1341.44 191.06 Q1341.44 182.31 1344.49 177.727 Q1347.57 173.12 1353.38 173.12 Z" fill="#000000" fill-rule="nonzero" fill-opacity="1" /><path clip-path="url(#clip690)" d="M1373.54 202.426 L1378.43 202.426 L1378.43 208.305 L1373.54 208.305 L1373.54 202.426 Z" fill="#000000" fill-rule="nonzero" fill-opacity="1" /><path clip-path="url(#clip690)" d="M1402.78 189.671 Q1406.13 190.389 1408.01 192.657 Q1409.91 194.926 1409.91 198.259 Q1409.91 203.375 1406.39 206.176 Q1402.87 208.977 1396.39 208.977 Q1394.21 208.977 1391.9 208.537 Q1389.61 208.12 1387.15 207.264 L1387.15 202.75 Q1389.1 203.884 1391.41 204.463 Q1393.73 205.042 1396.25 205.042 Q1400.65 205.042 1402.94 203.305 Q1405.26 201.569 1405.26 198.259 Q1405.26 195.204 1403.1 193.491 Q1400.97 191.755 1397.15 191.755 L1393.13 191.755 L1393.13 187.912 L1397.34 187.912 Q1400.79 187.912 1402.62 186.546 Q1404.44 185.157 1404.44 182.565 Q1404.44 179.903 1402.55 178.491 Q1400.67 177.056 1397.15 177.056 Q1395.23 177.056 1393.03 177.472 Q1390.83 177.889 1388.19 178.769 L1388.19 174.602 Q1390.86 173.861 1393.17 173.491 Q1395.51 173.12 1397.57 173.12 Q1402.89 173.12 1406 175.551 Q1409.1 177.958 1409.1 182.079 Q1409.1 184.949 1407.45 186.94 Q1405.81 188.907 1402.78 189.671 Z" fill="#000000" fill-rule="nonzero" fill-opacity="1" /><path clip-path="url(#clip690)" d="M1352.25 111.335 Q1348.63 111.335 1346.81 114.9 Q1345 118.442 1345 125.571 Q1345 132.678 1346.81 136.242 Q1348.63 139.784 1352.25 139.784 Q1355.88 139.784 1357.69 136.242 Q1359.51 132.678 1359.51 125.571 Q1359.51 118.442 1357.69 114.9 Q1355.88 111.335 1352.25 111.335 M1352.25 107.631 Q1358.06 107.631 1361.11 112.238 Q1364.19 116.821 1364.19 125.571 Q1364.19 134.298 1361.11 138.904 Q1358.06 143.488 1352.25 143.488 Q1346.44 143.488 1343.36 138.904 Q1340.3 134.298 1340.3 125.571 Q1340.3 116.821 1343.36 112.238 Q1346.44 107.631 1352.25 107.631 Z" fill="#000000" fill-rule="nonzero" fill-opacity="1" /><path clip-path="url(#clip690)" d="M1372.41 136.937 L1377.29 136.937 L1377.29 142.816 L1372.41 142.816 L1372.41 136.937 Z" fill="#000000" fill-rule="nonzero" fill-opacity="1" /><path clip-path="url(#clip690)" d="M1400.32 112.331 L1388.52 130.78 L1400.32 130.78 L1400.32 112.331 M1399.1 108.256 L1404.98 108.256 L1404.98 130.78 L1409.91 130.78 L1409.91 134.668 L1404.98 134.668 L1404.98 142.816 L1400.32 142.816 L1400.32 134.668 L1384.72 134.668 L1384.72 130.155 L1399.1 108.256 Z" fill="#000000" fill-rule="nonzero" fill-opacity="1" /><path clip-path="url(#clip690)" d="M1353.73 45.8462 Q1350.12 45.8462 1348.29 49.411 Q1346.48 52.9526 1346.48 60.0822 Q1346.48 67.1887 1348.29 70.7535 Q1350.12 74.2951 1353.73 74.2951 Q1357.36 74.2951 1359.17 70.7535 Q1361 67.1887 1361 60.0822 Q1361 52.9526 1359.17 49.411 Q1357.36 45.8462 1353.73 45.8462 M1353.73 42.1425 Q1359.54 42.1425 1362.59 46.749 Q1365.67 51.3323 1365.67 60.0822 Q1365.67 68.809 1362.59 73.4155 Q1359.54 77.9988 1353.73 77.9988 Q1347.92 77.9988 1344.84 73.4155 Q1341.78 68.809 1341.78 60.0822 Q1341.78 51.3323 1344.84 46.749 Q1347.92 42.1425 1353.73 42.1425 Z" fill="#000000" fill-rule="nonzero" fill-opacity="1" /><path clip-path="url(#clip690)" d="M1373.89 71.4479 L1378.77 71.4479 L1378.77 77.3275 L1373.89 77.3275 L1373.89 71.4479 Z" fill="#000000" fill-rule="nonzero" fill-opacity="1" /><path clip-path="url(#clip690)" d="M1389.01 42.7675 L1407.36 42.7675 L1407.36 46.7027 L1393.29 46.7027 L1393.29 55.1749 Q1394.31 54.8276 1395.32 54.6656 Q1396.34 54.4804 1397.36 54.4804 Q1403.15 54.4804 1406.53 57.6517 Q1409.91 60.823 1409.91 66.2396 Q1409.91 71.8183 1406.44 74.9201 Q1402.96 77.9988 1396.64 77.9988 Q1394.47 77.9988 1392.2 77.6284 Q1389.95 77.2581 1387.55 76.5173 L1387.55 71.8183 Q1389.63 72.9525 1391.85 73.5081 Q1394.07 74.0636 1396.55 74.0636 Q1400.56 74.0636 1402.89 71.9572 Q1405.23 69.8507 1405.23 66.2396 Q1405.23 62.6285 1402.89 60.5221 Q1400.56 58.4156 1396.55 58.4156 Q1394.68 58.4156 1392.8 58.8322 Q1390.95 59.2489 1389.01 60.1285 L1389.01 42.7675 Z" fill="#000000" fill-rule="nonzero" fill-opacity="1" /><path clip-path="url(#clip690)" d="M1265.47 298.084 Q1270.89 298.084 1276.97 299.823 Q1283.03 301.53 1287.92 304.235 Q1292.79 306.941 1296.01 310.483 Q1299.19 314.026 1299.19 317.408 Q1299.19 319.565 1298 321.176 Q1296.78 322.754 1294.75 323.623 Q1292.69 324.493 1290.43 324.912 Q1288.15 325.33 1285.67 325.33 Q1281.96 325.33 1277.94 324.525 Q1273.88 323.72 1270.21 322.367 Q1266.51 321.015 1263.16 319.115 Q1259.77 317.214 1257.33 315.121 Q1254.85 312.995 1253.4 310.612 Q1251.95 308.229 1251.95 306.007 Q1251.95 304.396 1252.66 303.108 Q1253.33 301.788 1254.52 300.95 Q1255.68 300.113 1257.07 299.533 Q1258.45 298.921 1260.06 298.632 Q1261.64 298.342 1262.96 298.213 Q1264.25 298.084 1265.47 298.084 M1261.38 302.432 Q1259.74 302.432 1258.52 302.561 Q1257.26 302.69 1256.01 303.044 Q1254.75 303.398 1254.07 304.171 Q1253.4 304.912 1253.4 306.071 Q1253.4 309.453 1260.32 313.253 Q1262.48 314.477 1265.41 315.572 Q1268.34 316.667 1269.73 317.053 Q1271.11 317.44 1274.52 318.342 L1274.52 304.558 Q1265.73 302.432 1261.38 302.432 M1276.62 305.137 L1276.62 318.857 Q1284.67 320.983 1289.69 320.983 Q1294.07 320.983 1295.91 320.081 Q1297.71 319.147 1297.71 317.408 Q1297.71 315.411 1295.72 313.543 Q1293.69 311.675 1290.02 309.775 Q1285.25 307.263 1276.62 305.137 Z" fill="#000000" fill-rule="nonzero" fill-opacity="1" /><path clip-path="url(#clip690)" d="M1248.99 253.776 Q1256.31 258.041 1263.47 260.11 Q1270.64 262.179 1277.99 262.179 Q1285.34 262.179 1292.57 260.11 Q1299.76 258.009 1307.05 253.776 L1307.05 258.869 Q1299.57 263.643 1292.34 266.03 Q1285.12 268.386 1277.99 268.386 Q1270.89 268.386 1263.7 266.03 Q1256.5 263.675 1248.99 258.869 L1248.99 253.776 Z" fill="#000000" fill-rule="nonzero" fill-opacity="1" /><path clip-path="url(#clip690)" d="M1268.28 221.757 Q1267.71 222.743 1267.45 223.921 Q1267.17 225.067 1267.17 226.467 Q1267.17 231.433 1270.41 234.106 Q1273.63 236.748 1279.67 236.748 L1298.45 236.748 L1298.45 242.636 L1262.81 242.636 L1262.81 236.748 L1268.34 236.748 Q1265.1 234.902 1263.54 231.942 Q1261.95 228.982 1261.95 224.749 Q1261.95 224.144 1262.04 223.412 Q1262.11 222.68 1262.26 221.789 L1268.28 221.757 Z" fill="#000000" fill-rule="nonzero" fill-opacity="1" /><path clip-path="url(#clip690)" d="M1280.53 199.413 Q1280.53 206.511 1282.16 209.248 Q1283.78 211.985 1287.7 211.985 Q1290.81 211.985 1292.66 209.948 Q1294.48 207.879 1294.48 204.347 Q1294.48 199.477 1291.04 196.549 Q1287.57 193.588 1281.84 193.588 L1280.53 193.588 L1280.53 199.413 M1278.12 187.732 L1298.45 187.732 L1298.45 193.588 L1293.04 193.588 Q1296.29 195.594 1297.85 198.586 Q1299.38 201.577 1299.38 205.906 Q1299.38 211.381 1296.32 214.627 Q1293.23 217.842 1288.08 217.842 Q1282.06 217.842 1279.01 213.831 Q1275.95 209.789 1275.95 201.8 L1275.95 193.588 L1275.38 193.588 Q1271.34 193.588 1269.14 196.262 Q1266.91 198.904 1266.91 203.71 Q1266.91 206.766 1267.64 209.662 Q1268.38 212.558 1269.84 215.232 L1264.43 215.232 Q1263.19 212.017 1262.58 208.993 Q1261.95 205.97 1261.95 203.105 Q1261.95 195.371 1265.96 191.551 Q1269.97 187.732 1278.12 187.732 Z" fill="#000000" fill-rule="nonzero" fill-opacity="1" /><path clip-path="url(#clip690)" d="M1268.22 152.211 L1248.93 152.211 L1248.93 146.355 L1298.45 146.355 L1298.45 152.211 L1293.11 152.211 Q1296.29 154.057 1297.85 156.89 Q1299.38 159.691 1299.38 163.638 Q1299.38 170.099 1294.22 174.173 Q1289.06 178.215 1280.66 178.215 Q1272.26 178.215 1267.1 174.173 Q1261.95 170.099 1261.95 163.638 Q1261.95 159.691 1263.51 156.89 Q1265.03 154.057 1268.22 152.211 M1280.66 172.168 Q1287.12 172.168 1290.81 169.526 Q1294.48 166.853 1294.48 162.206 Q1294.48 157.559 1290.81 154.885 Q1287.12 152.211 1280.66 152.211 Q1274.2 152.211 1270.54 154.885 Q1266.85 157.559 1266.85 162.206 Q1266.85 166.853 1270.54 169.526 Q1274.2 172.168 1280.66 172.168 Z" fill="#000000" fill-rule="nonzero" fill-opacity="1" /><path clip-path="url(#clip690)" d="M1248.99 135.215 L1248.99 130.122 Q1256.5 125.348 1263.7 122.993 Q1270.89 120.606 1277.99 120.606 Q1285.12 120.606 1292.34 122.993 Q1299.57 125.348 1307.05 130.122 L1307.05 135.215 Q1299.76 130.982 1292.57 128.913 Q1285.34 126.812 1277.99 126.812 Q1270.64 126.812 1263.47 128.913 Q1256.31 130.982 1248.99 135.215 Z" fill="#000000" fill-rule="nonzero" fill-opacity="1" /><polyline clip-path="url(#clip693)" style="stroke:#009af9; stroke-linecap:round; stroke-linejoin:round; stroke-width:4; stroke-opacity:1; fill:none" points="1471.57,387.492 1496.74,359.054 1521.9,294.542 1547.06,220.255 1572.22,153.774 1597.38,104.012 1622.55,73.0989 1647.71,58.888 1672.87,57.1907 1698.03,63.3677 1723.2,73.2933 1748.36,83.8307 1773.52,92.9609 1798.68,99.6857 1823.85,103.802 1849.01,105.629 1874.17,105.753 1899.33,104.823 1924.49,103.413 1949.66,101.954 1974.82,100.716 1999.98,99.8251 2025.14,99.2968 2050.31,99.0792 2075.47,99.0874 2100.63,99.2313 2125.79,99.4327 2150.95,99.6346 2176.12,99.8022 2201.28,99.9203 2226.44,99.988 2251.6,100.014 2276.77,100.009 2301.93,99.9876 2327.09,99.959 "/>
<polyline clip-path="url(#clip693)" style="stroke:#e26f46; stroke-linecap:round; stroke-linejoin:round; stroke-width:3; stroke-opacity:1; fill:none" stroke-dasharray="12, 6, 2, 6" points="1471.57,388.745 1496.74,350.302 1521.9,295.213 1547.06,224.056 1572.22,156.85 1597.38,105.897 1622.55,73.1225 1647.71,60.8223 1672.87,59.0004 1698.03,67.6662 1723.2,75.1185 1748.36,86.8185 1773.52,93.6032 1798.68,95.8406 1823.85,106.473 1849.01,103.913 1874.17,96.9709 1899.33,97.0391 1924.49,101.445 1949.66,98.1492 1974.82,100.31 1999.98,96.3729 2025.14,97.4569 2050.31,106.503 2075.47,102.989 2100.63,96.433 2125.79,92.2103 2150.95,104.226 2176.12,95.9392 2201.28,90.4516 2226.44,99.8841 2251.6,101.117 2276.77,99.021 2301.93,107.559 2327.09,93.6467 "/>
<path clip-path="url(#clip690)" d="M2203.01 386.977 L2322.53 386.977 L2322.53 231.457 L2203.01 231.457  Z" fill="#ffffff" fill-rule="evenodd" fill-opacity="1"/>
<polyline clip-path="url(#clip690)" style="stroke:#000000; stroke-linecap:round; stroke-linejoin:round; stroke-width:4; stroke-opacity:1; fill:none" points="2203.01,386.977 2322.53,386.977 2322.53,231.457 2203.01,231.457 2203.01,386.977 "/>
<polyline clip-path="url(#clip690)" style="stroke:#009af9; stroke-linecap:round; stroke-linejoin:round; stroke-width:4; stroke-opacity:1; fill:none" points="2213.09,283.297 2273.55,283.297 "/>
<path clip-path="url(#clip690)" d="M2310.63 293.836 L2305.36 293.695 L2299.6 293.836 L2299.6 291.587 L2301.47 291.587 L2296.2 285.357 L2291.54 290.58 L2291.21 291.049 Q2291.21 291.26 2291.75 291.423 Q2292.31 291.587 2292.97 291.587 L2292.97 293.836 L2288.03 293.695 L2283.62 293.836 L2283.62 291.587 Q2285.1 291.587 2285.78 291.564 Q2286.48 291.517 2287.28 291.306 Q2288.07 291.096 2288.47 290.674 L2294.75 283.624 L2287.28 274.794 L2283.86 274.794 L2283.86 272.545 L2289.15 272.686 L2294.94 272.545 L2294.94 274.794 L2293.01 274.794 L2297.72 280.298 L2301.75 275.801 Q2301.77 275.777 2302.15 275.215 Q2301.4 274.794 2300.32 274.794 L2300.32 272.545 L2305.26 272.686 L2309.67 272.545 L2309.67 274.794 Q2307.75 274.794 2306.74 274.934 Q2305.76 275.051 2305.45 275.215 Q2305.17 275.379 2304.77 275.801 L2299.17 282.031 L2307.23 291.587 L2310.63 291.587 L2310.63 293.836 Z" fill="#000000" fill-rule="nonzero" fill-opacity="1" /><polyline clip-path="url(#clip690)" style="stroke:#e26f46; stroke-linecap:round; stroke-linejoin:round; stroke-width:3; stroke-opacity:1; fill:none" stroke-dasharray="12, 6, 2, 6" points="2213.09,335.137 2273.55,335.137 "/>
<path clip-path="url(#clip690)" d="M2306.21 323.615 L2305.8 324.287 Q2303.26 323.189 2300.09 321.434 Q2296.93 323.189 2294.39 324.287 L2293.99 323.615 Q2296.76 321.205 2300.09 319.352 Q2303.45 321.221 2306.21 323.615 Z" fill="#000000" fill-rule="nonzero" fill-opacity="1" /><path clip-path="url(#clip690)" d="M2310.63 350.681 L2305.36 350.54 L2299.6 350.681 L2299.6 348.432 L2301.47 348.432 L2296.2 342.202 L2291.54 347.425 L2291.21 347.893 Q2291.21 348.104 2291.75 348.268 Q2292.31 348.432 2292.97 348.432 L2292.97 350.681 L2288.03 350.54 L2283.62 350.681 L2283.62 348.432 Q2285.1 348.432 2285.78 348.409 Q2286.48 348.362 2287.28 348.151 Q2288.07 347.94 2288.47 347.519 L2294.75 340.468 L2287.28 331.638 L2283.86 331.638 L2283.86 329.39 L2289.15 329.53 L2294.94 329.39 L2294.94 331.638 L2293.01 331.638 L2297.72 337.142 L2301.75 332.645 Q2301.77 332.622 2302.15 332.06 Q2301.4 331.638 2300.32 331.638 L2300.32 329.39 L2305.26 329.53 L2309.67 329.39 L2309.67 331.638 Q2307.75 331.638 2306.74 331.779 Q2305.76 331.896 2305.45 332.06 Q2305.17 332.224 2304.77 332.645 L2299.17 338.876 L2307.23 348.432 L2310.63 348.432 L2310.63 350.681 Z" fill="#000000" fill-rule="nonzero" fill-opacity="1" /><path clip-path="url(#clip690)" d="M1445.91 910.936 L2352.76 910.936 L2352.76 559.488 L1445.91 559.488  Z" fill="#ffffff" fill-rule="evenodd" fill-opacity="1"/>
<defs>
  <clipPath id="clip694">
    <rect x="1445" y="559" width="908" height="352"/>
  </clipPath>
</defs>
<polyline clip-path="url(#clip694)" style="stroke:#000000; stroke-linecap:round; stroke-linejoin:round; stroke-width:2; stroke-opacity:0.1; fill:none" points="1471.57,910.936 1471.57,559.488 "/>
<polyline clip-path="url(#clip694)" style="stroke:#000000; stroke-linecap:round; stroke-linejoin:round; stroke-width:2; stroke-opacity:0.1; fill:none" points="1723.2,910.936 1723.2,559.488 "/>
<polyline clip-path="url(#clip694)" style="stroke:#000000; stroke-linecap:round; stroke-linejoin:round; stroke-width:2; stroke-opacity:0.1; fill:none" points="1974.82,910.936 1974.82,559.488 "/>
<polyline clip-path="url(#clip694)" style="stroke:#000000; stroke-linecap:round; stroke-linejoin:round; stroke-width:2; stroke-opacity:0.1; fill:none" points="2226.44,910.936 2226.44,559.488 "/>
<polyline clip-path="url(#clip694)" style="stroke:#000000; stroke-linecap:round; stroke-linejoin:round; stroke-width:2; stroke-opacity:0.1; fill:none" points="1445.91,848.184 2352.76,848.184 "/>
<polyline clip-path="url(#clip694)" style="stroke:#000000; stroke-linecap:round; stroke-linejoin:round; stroke-width:2; stroke-opacity:0.1; fill:none" points="1445.91,773.293 2352.76,773.293 "/>
<polyline clip-path="url(#clip694)" style="stroke:#000000; stroke-linecap:round; stroke-linejoin:round; stroke-width:2; stroke-opacity:0.1; fill:none" points="1445.91,698.402 2352.76,698.402 "/>
<polyline clip-path="url(#clip694)" style="stroke:#000000; stroke-linecap:round; stroke-linejoin:round; stroke-width:2; stroke-opacity:0.1; fill:none" points="1445.91,623.51 2352.76,623.51 "/>
<polyline clip-path="url(#clip690)" style="stroke:#000000; stroke-linecap:round; stroke-linejoin:round; stroke-width:4; stroke-opacity:1; fill:none" points="1445.91,910.936 2352.76,910.936 "/>
<polyline clip-path="url(#clip690)" style="stroke:#000000; stroke-linecap:round; stroke-linejoin:round; stroke-width:4; stroke-opacity:1; fill:none" points="1471.57,910.936 1471.57,892.038 "/>
<polyline clip-path="url(#clip690)" style="stroke:#000000; stroke-linecap:round; stroke-linejoin:round; stroke-width:4; stroke-opacity:1; fill:none" points="1723.2,910.936 1723.2,892.038 "/>
<polyline clip-path="url(#clip690)" style="stroke:#000000; stroke-linecap:round; stroke-linejoin:round; stroke-width:4; stroke-opacity:1; fill:none" points="1974.82,910.936 1974.82,892.038 "/>
<polyline clip-path="url(#clip690)" style="stroke:#000000; stroke-linecap:round; stroke-linejoin:round; stroke-width:4; stroke-opacity:1; fill:none" points="2226.44,910.936 2226.44,892.038 "/>
<path clip-path="url(#clip690)" d="M1471.57 941.855 Q1467.96 941.855 1466.13 945.419 Q1464.33 948.961 1464.33 956.091 Q1464.33 963.197 1466.13 966.762 Q1467.96 970.303 1471.57 970.303 Q1475.21 970.303 1477.01 966.762 Q1478.84 963.197 1478.84 956.091 Q1478.84 948.961 1477.01 945.419 Q1475.21 941.855 1471.57 941.855 M1471.57 938.151 Q1477.38 938.151 1480.44 942.757 Q1483.52 947.341 1483.52 956.091 Q1483.52 964.817 1480.44 969.424 Q1477.38 974.007 1471.57 974.007 Q1465.76 974.007 1462.68 969.424 Q1459.63 964.817 1459.63 956.091 Q1459.63 947.341 1462.68 942.757 Q1465.76 938.151 1471.57 938.151 Z" fill="#000000" fill-rule="nonzero" fill-opacity="1" /><path clip-path="url(#clip690)" d="M1713.58 969.401 L1721.22 969.401 L1721.22 943.035 L1712.91 944.702 L1712.91 940.443 L1721.17 938.776 L1725.85 938.776 L1725.85 969.401 L1733.49 969.401 L1733.49 973.336 L1713.58 973.336 L1713.58 969.401 Z" fill="#000000" fill-rule="nonzero" fill-opacity="1" /><path clip-path="url(#clip690)" d="M1969.47 969.401 L1985.79 969.401 L1985.79 973.336 L1963.85 973.336 L1963.85 969.401 Q1966.51 966.646 1971.09 962.016 Q1975.7 957.364 1976.88 956.021 Q1979.12 953.498 1980 951.762 Q1980.91 950.003 1980.91 948.313 Q1980.91 945.558 1978.96 943.822 Q1977.04 942.086 1973.94 942.086 Q1971.74 942.086 1969.29 942.85 Q1966.86 943.614 1964.08 945.165 L1964.08 940.443 Q1966.9 939.308 1969.36 938.73 Q1971.81 938.151 1973.85 938.151 Q1979.22 938.151 1982.41 940.836 Q1985.61 943.521 1985.61 948.012 Q1985.61 950.142 1984.8 952.063 Q1984.01 953.961 1981.9 956.554 Q1981.32 957.225 1978.22 960.442 Q1975.12 963.637 1969.47 969.401 Z" fill="#000000" fill-rule="nonzero" fill-opacity="1" /><path clip-path="url(#clip690)" d="M2230.69 954.702 Q2234.05 955.419 2235.92 957.688 Q2237.82 959.956 2237.82 963.29 Q2237.82 968.405 2234.3 971.206 Q2230.78 974.007 2224.3 974.007 Q2222.12 974.007 2219.81 973.567 Q2217.52 973.151 2215.06 972.294 L2215.06 967.78 Q2217.01 968.915 2219.32 969.493 Q2221.64 970.072 2224.16 970.072 Q2228.56 970.072 2230.85 968.336 Q2233.17 966.6 2233.17 963.29 Q2233.17 960.234 2231.01 958.521 Q2228.88 956.785 2225.06 956.785 L2221.04 956.785 L2221.04 952.942 L2225.25 952.942 Q2228.7 952.942 2230.53 951.577 Q2232.36 950.188 2232.36 947.595 Q2232.36 944.933 2230.46 943.521 Q2228.58 942.086 2225.06 942.086 Q2223.14 942.086 2220.94 942.503 Q2218.74 942.919 2216.11 943.799 L2216.11 939.632 Q2218.77 938.892 2221.08 938.521 Q2223.42 938.151 2225.48 938.151 Q2230.8 938.151 2233.91 940.581 Q2237.01 942.989 2237.01 947.109 Q2237.01 949.979 2235.36 951.97 Q2233.72 953.938 2230.69 954.702 Z" fill="#000000" fill-rule="nonzero" fill-opacity="1" /><polyline clip-path="url(#clip690)" style="stroke:#000000; stroke-linecap:round; stroke-linejoin:round; stroke-width:4; stroke-opacity:1; fill:none" points="1445.91,910.936 1445.91,559.488 "/>
<polyline clip-path="url(#clip690)" style="stroke:#000000; stroke-linecap:round; stroke-linejoin:round; stroke-width:4; stroke-opacity:1; fill:none" points="1445.91,848.184 1464.81,848.184 "/>
<polyline clip-path="url(#clip690)" style="stroke:#000000; stroke-linecap:round; stroke-linejoin:round; stroke-width:4; stroke-opacity:1; fill:none" points="1445.91,773.293 1464.81,773.293 "/>
<polyline clip-path="url(#clip690)" style="stroke:#000000; stroke-linecap:round; stroke-linejoin:round; stroke-width:4; stroke-opacity:1; fill:none" points="1445.91,698.402 1464.81,698.402 "/>
<polyline clip-path="url(#clip690)" style="stroke:#000000; stroke-linecap:round; stroke-linejoin:round; stroke-width:4; stroke-opacity:1; fill:none" points="1445.91,623.51 1464.81,623.51 "/>
<path clip-path="url(#clip690)" d="M1352.73 833.983 Q1349.12 833.983 1347.29 837.548 Q1345.49 841.09 1345.49 848.219 Q1345.49 855.326 1347.29 858.89 Q1349.12 862.432 1352.73 862.432 Q1356.37 862.432 1358.17 858.89 Q1360 855.326 1360 848.219 Q1360 841.09 1358.17 837.548 Q1356.37 833.983 1352.73 833.983 M1352.73 830.279 Q1358.54 830.279 1361.6 834.886 Q1364.68 839.469 1364.68 848.219 Q1364.68 856.946 1361.6 861.552 Q1358.54 866.136 1352.73 866.136 Q1346.92 866.136 1343.84 861.552 Q1340.79 856.946 1340.79 848.219 Q1340.79 839.469 1343.84 834.886 Q1346.92 830.279 1352.73 830.279 Z" fill="#000000" fill-rule="nonzero" fill-opacity="1" /><path clip-path="url(#clip690)" d="M1372.89 859.585 L1377.78 859.585 L1377.78 865.464 L1372.89 865.464 L1372.89 859.585 Z" fill="#000000" fill-rule="nonzero" fill-opacity="1" /><path clip-path="url(#clip690)" d="M1397.96 833.983 Q1394.35 833.983 1392.52 837.548 Q1390.72 841.09 1390.72 848.219 Q1390.72 855.326 1392.52 858.89 Q1394.35 862.432 1397.96 862.432 Q1401.6 862.432 1403.4 858.89 Q1405.23 855.326 1405.23 848.219 Q1405.23 841.09 1403.4 837.548 Q1401.6 833.983 1397.96 833.983 M1397.96 830.279 Q1403.77 830.279 1406.83 834.886 Q1409.91 839.469 1409.91 848.219 Q1409.91 856.946 1406.83 861.552 Q1403.77 866.136 1397.96 866.136 Q1392.15 866.136 1389.07 861.552 Q1386.02 856.946 1386.02 848.219 Q1386.02 839.469 1389.07 834.886 Q1392.15 830.279 1397.96 830.279 Z" fill="#000000" fill-rule="nonzero" fill-opacity="1" /><path clip-path="url(#clip690)" d="M1353.38 759.092 Q1349.77 759.092 1347.94 762.656 Q1346.13 766.198 1346.13 773.328 Q1346.13 780.434 1347.94 783.999 Q1349.77 787.541 1353.38 787.541 Q1357.01 787.541 1358.82 783.999 Q1360.65 780.434 1360.65 773.328 Q1360.65 766.198 1358.82 762.656 Q1357.01 759.092 1353.38 759.092 M1353.38 755.388 Q1359.19 755.388 1362.25 759.994 Q1365.32 764.578 1365.32 773.328 Q1365.32 782.055 1362.25 786.661 Q1359.19 791.244 1353.38 791.244 Q1347.57 791.244 1344.49 786.661 Q1341.44 782.055 1341.44 773.328 Q1341.44 764.578 1344.49 759.994 Q1347.57 755.388 1353.38 755.388 Z" fill="#000000" fill-rule="nonzero" fill-opacity="1" /><path clip-path="url(#clip690)" d="M1373.54 784.693 L1378.43 784.693 L1378.43 790.573 L1373.54 790.573 L1373.54 784.693 Z" fill="#000000" fill-rule="nonzero" fill-opacity="1" /><path clip-path="url(#clip690)" d="M1402.78 771.939 Q1406.13 772.656 1408.01 774.925 Q1409.91 777.193 1409.91 780.527 Q1409.91 785.642 1406.39 788.443 Q1402.87 791.244 1396.39 791.244 Q1394.21 791.244 1391.9 790.804 Q1389.61 790.388 1387.15 789.531 L1387.15 785.017 Q1389.1 786.152 1391.41 786.73 Q1393.73 787.309 1396.25 787.309 Q1400.65 787.309 1402.94 785.573 Q1405.26 783.837 1405.26 780.527 Q1405.26 777.471 1403.1 775.758 Q1400.97 774.022 1397.15 774.022 L1393.13 774.022 L1393.13 770.18 L1397.34 770.18 Q1400.79 770.18 1402.62 768.814 Q1404.44 767.425 1404.44 764.832 Q1404.44 762.17 1402.55 760.758 Q1400.67 759.323 1397.15 759.323 Q1395.23 759.323 1393.03 759.74 Q1390.83 760.157 1388.19 761.036 L1388.19 756.869 Q1390.86 756.129 1393.17 755.758 Q1395.51 755.388 1397.57 755.388 Q1402.89 755.388 1406 757.819 Q1409.1 760.226 1409.1 764.346 Q1409.1 767.217 1407.45 769.207 Q1405.81 771.175 1402.78 771.939 Z" fill="#000000" fill-rule="nonzero" fill-opacity="1" /><path clip-path="url(#clip690)" d="M1352.57 684.2 Q1348.96 684.2 1347.13 687.765 Q1345.32 691.307 1345.32 698.436 Q1345.32 705.543 1347.13 709.108 Q1348.96 712.649 1352.57 712.649 Q1356.2 712.649 1358.01 709.108 Q1359.84 705.543 1359.84 698.436 Q1359.84 691.307 1358.01 687.765 Q1356.2 684.2 1352.57 684.2 M1352.57 680.497 Q1358.38 680.497 1361.44 685.103 Q1364.51 689.686 1364.51 698.436 Q1364.51 707.163 1361.44 711.77 Q1358.38 716.353 1352.57 716.353 Q1346.76 716.353 1343.68 711.77 Q1340.63 707.163 1340.63 698.436 Q1340.63 689.686 1343.68 685.103 Q1346.76 680.497 1352.57 680.497 Z" fill="#000000" fill-rule="nonzero" fill-opacity="1" /><path clip-path="url(#clip690)" d="M1372.73 709.802 L1377.62 709.802 L1377.62 715.682 L1372.73 715.682 L1372.73 709.802 Z" fill="#000000" fill-rule="nonzero" fill-opacity="1" /><path clip-path="url(#clip690)" d="M1398.38 696.538 Q1395.23 696.538 1393.38 698.691 Q1391.55 700.844 1391.55 704.594 Q1391.55 708.321 1393.38 710.496 Q1395.23 712.649 1398.38 712.649 Q1401.53 712.649 1403.36 710.496 Q1405.21 708.321 1405.21 704.594 Q1405.21 700.844 1403.36 698.691 Q1401.53 696.538 1398.38 696.538 M1407.66 681.885 L1407.66 686.145 Q1405.9 685.311 1404.1 684.872 Q1402.32 684.432 1400.56 684.432 Q1395.93 684.432 1393.47 687.557 Q1391.04 690.682 1390.69 697.001 Q1392.06 694.987 1394.12 693.922 Q1396.18 692.834 1398.66 692.834 Q1403.87 692.834 1406.88 696.006 Q1409.91 699.154 1409.91 704.594 Q1409.91 709.918 1406.76 713.135 Q1403.61 716.353 1398.38 716.353 Q1392.38 716.353 1389.21 711.77 Q1386.04 707.163 1386.04 698.436 Q1386.04 690.242 1389.93 685.381 Q1393.82 680.497 1400.37 680.497 Q1402.13 680.497 1403.91 680.844 Q1405.72 681.191 1407.66 681.885 Z" fill="#000000" fill-rule="nonzero" fill-opacity="1" /><path clip-path="url(#clip690)" d="M1352.92 609.309 Q1349.31 609.309 1347.48 612.874 Q1345.67 616.415 1345.67 623.545 Q1345.67 630.651 1347.48 634.216 Q1349.31 637.758 1352.92 637.758 Q1356.55 637.758 1358.36 634.216 Q1360.19 630.651 1360.19 623.545 Q1360.19 616.415 1358.36 612.874 Q1356.55 609.309 1352.92 609.309 M1352.92 605.605 Q1358.73 605.605 1361.78 610.212 Q1364.86 614.795 1364.86 623.545 Q1364.86 632.272 1361.78 636.878 Q1358.73 641.461 1352.92 641.461 Q1347.11 641.461 1344.03 636.878 Q1340.97 632.272 1340.97 623.545 Q1340.97 614.795 1344.03 610.212 Q1347.11 605.605 1352.92 605.605 Z" fill="#000000" fill-rule="nonzero" fill-opacity="1" /><path clip-path="url(#clip690)" d="M1373.08 634.911 L1377.96 634.911 L1377.96 640.79 L1373.08 640.79 L1373.08 634.911 Z" fill="#000000" fill-rule="nonzero" fill-opacity="1" /><path clip-path="url(#clip690)" d="M1388.29 640.073 L1388.29 635.813 Q1390.05 636.647 1391.85 637.086 Q1393.66 637.526 1395.39 637.526 Q1400.02 637.526 1402.45 634.424 Q1404.91 631.299 1405.26 624.957 Q1403.91 626.948 1401.85 628.012 Q1399.79 629.077 1397.29 629.077 Q1392.11 629.077 1389.07 625.952 Q1386.07 622.804 1386.07 617.364 Q1386.07 612.04 1389.21 608.823 Q1392.36 605.605 1397.59 605.605 Q1403.59 605.605 1406.74 610.212 Q1409.91 614.795 1409.91 623.545 Q1409.91 631.716 1406.02 636.6 Q1402.15 641.461 1395.6 641.461 Q1393.84 641.461 1392.04 641.114 Q1390.23 640.767 1388.29 640.073 M1397.59 625.42 Q1400.74 625.42 1402.57 623.267 Q1404.42 621.114 1404.42 617.364 Q1404.42 613.638 1402.57 611.485 Q1400.74 609.309 1397.59 609.309 Q1394.44 609.309 1392.59 611.485 Q1390.76 613.638 1390.76 617.364 Q1390.76 621.114 1392.59 623.267 Q1394.44 625.42 1397.59 625.42 Z" fill="#000000" fill-rule="nonzero" fill-opacity="1" /><path clip-path="url(#clip690)" d="M1265.64 831.559 Q1268.64 831.559 1274.44 833.072 Q1276.95 833.684 1279.23 834.522 Q1281.49 835.327 1283.68 836.518 Q1285.87 837.71 1287.45 839.095 Q1288.99 840.48 1289.96 842.283 Q1290.92 844.087 1290.92 846.084 Q1290.92 849.24 1289.06 851.108 Q1287.16 852.943 1283.9 853.523 Q1290.92 857.839 1290.92 863.604 Q1290.92 867.178 1288.38 868.853 Q1285.8 870.528 1281.49 870.528 Q1277.85 870.528 1274.08 869.562 Q1266.93 867.726 1261.94 864.151 Q1261.36 863.668 1261.36 862.959 Q1261.36 862.541 1261.49 862.347 Q1261.84 861.768 1262.42 861.768 Q1262.84 861.768 1263.26 862.09 Q1266.38 864.344 1269.06 865.826 Q1271.73 867.307 1274.44 867.984 Q1276.75 868.499 1278.72 868.499 Q1282.04 868.499 1284.1 867.082 Q1286.16 865.632 1286.16 862.766 Q1286.16 860.125 1284.52 857.806 Q1282.84 855.488 1280.04 853.781 Q1276.98 853.684 1274.08 852.943 Q1270.99 852.267 1270.99 850.689 Q1270.99 849.433 1272.7 849.433 Q1273.28 849.433 1274.44 849.691 Q1277.49 850.399 1280.23 851.687 Q1282.91 851.236 1284.55 849.562 Q1286.16 847.887 1286.16 845.214 Q1286.16 842.734 1284.35 840.544 Q1282.55 838.322 1279.91 836.905 Q1277.24 835.456 1274.08 834.65 Q1273.02 834.393 1271.67 834.393 Q1268.06 834.393 1265.84 836.905 Q1265.13 837.613 1264.19 837.613 Q1263.1 837.613 1262.1 836.712 Q1261.04 835.649 1261.04 834.393 Q1261.04 833.459 1261.62 832.879 Q1262.78 831.559 1265.64 831.559 Z" fill="#000000" fill-rule="nonzero" fill-opacity="1" /><path clip-path="url(#clip690)" d="M1240.72 788.989 Q1248.04 793.255 1255.2 795.323 Q1262.37 797.392 1269.72 797.392 Q1277.07 797.392 1284.3 795.323 Q1291.49 793.223 1298.78 788.989 L1298.78 794.082 Q1291.3 798.856 1284.07 801.243 Q1276.85 803.599 1269.72 803.599 Q1262.62 803.599 1255.43 801.243 Q1248.23 798.888 1240.72 794.082 L1240.72 788.989 Z" fill="#000000" fill-rule="nonzero" fill-opacity="1" /><path clip-path="url(#clip690)" d="M1260.01 756.97 Q1259.44 757.957 1259.18 759.134 Q1258.9 760.28 1258.9 761.681 Q1258.9 766.646 1262.14 769.319 Q1265.36 771.961 1271.41 771.961 L1290.18 771.961 L1290.18 777.85 L1254.54 777.85 L1254.54 771.961 L1260.07 771.961 Q1256.83 770.115 1255.27 767.155 Q1253.68 764.195 1253.68 759.962 Q1253.68 759.357 1253.77 758.625 Q1253.84 757.893 1254 757.002 L1260.01 756.97 Z" fill="#000000" fill-rule="nonzero" fill-opacity="1" /><path clip-path="url(#clip690)" d="M1272.26 734.626 Q1272.26 741.724 1273.89 744.461 Q1275.51 747.199 1279.43 747.199 Q1282.55 747.199 1284.39 745.162 Q1286.21 743.093 1286.21 739.56 Q1286.21 734.69 1282.77 731.762 Q1279.3 728.802 1273.57 728.802 L1272.26 728.802 L1272.26 734.626 M1269.85 722.945 L1290.18 722.945 L1290.18 728.802 L1284.77 728.802 Q1288.02 730.807 1289.58 733.799 Q1291.11 736.791 1291.11 741.119 Q1291.11 746.594 1288.05 749.84 Q1284.96 753.055 1279.81 753.055 Q1273.79 753.055 1270.74 749.045 Q1267.68 745.002 1267.68 737.013 L1267.68 728.802 L1267.11 728.802 Q1263.07 728.802 1260.87 731.475 Q1258.64 734.117 1258.64 738.923 Q1258.64 741.979 1259.37 744.875 Q1260.11 747.772 1261.57 750.445 L1256.16 750.445 Q1254.92 747.23 1254.31 744.207 Q1253.68 741.183 1253.68 738.318 Q1253.68 730.584 1257.69 726.765 Q1261.7 722.945 1269.85 722.945 Z" fill="#000000" fill-rule="nonzero" fill-opacity="1" /><path clip-path="url(#clip690)" d="M1259.95 687.425 L1240.66 687.425 L1240.66 681.568 L1290.18 681.568 L1290.18 687.425 L1284.84 687.425 Q1288.02 689.271 1289.58 692.103 Q1291.11 694.904 1291.11 698.851 Q1291.11 705.312 1285.95 709.386 Q1280.79 713.429 1272.39 713.429 Q1263.99 713.429 1258.83 709.386 Q1253.68 705.312 1253.68 698.851 Q1253.68 694.904 1255.24 692.103 Q1256.76 689.271 1259.95 687.425 M1272.39 707.381 Q1278.85 707.381 1282.55 704.739 Q1286.21 702.066 1286.21 697.419 Q1286.21 692.772 1282.55 690.098 Q1278.85 687.425 1272.39 687.425 Q1265.93 687.425 1262.27 690.098 Q1258.58 692.772 1258.58 697.419 Q1258.58 702.066 1262.27 704.739 Q1265.93 707.381 1272.39 707.381 Z" fill="#000000" fill-rule="nonzero" fill-opacity="1" /><path clip-path="url(#clip690)" d="M1242.66 659.097 L1242.66 653.686 L1296.23 670.237 L1296.23 675.648 L1242.66 659.097 Z" fill="#000000" fill-rule="nonzero" fill-opacity="1" /><path clip-path="url(#clip690)" d="M1255.59 624.818 L1261.12 624.818 Q1259.85 627.301 1259.21 629.974 Q1258.58 632.648 1258.58 635.512 Q1258.58 639.873 1259.92 642.069 Q1261.25 644.233 1263.93 644.233 Q1265.96 644.233 1267.14 642.674 Q1268.29 641.114 1269.34 636.404 L1269.78 634.398 Q1271.12 628.16 1273.57 625.55 Q1275.99 622.908 1280.35 622.908 Q1285.31 622.908 1288.21 626.855 Q1291.11 630.77 1291.11 637.645 Q1291.11 640.509 1290.53 643.629 Q1289.99 646.716 1288.88 650.153 L1282.83 650.153 Q1284.52 646.907 1285.38 643.756 Q1286.21 640.605 1286.21 637.517 Q1286.21 633.38 1284.81 631.152 Q1283.37 628.924 1280.79 628.924 Q1278.41 628.924 1277.13 630.547 Q1275.86 632.138 1274.68 637.581 L1274.21 639.618 Q1273.06 645.061 1270.71 647.48 Q1268.32 649.899 1264.18 649.899 Q1259.15 649.899 1256.41 646.334 Q1253.68 642.769 1253.68 636.213 Q1253.68 632.966 1254.15 630.101 Q1254.63 627.237 1255.59 624.818 Z" fill="#000000" fill-rule="nonzero" fill-opacity="1" /><path clip-path="url(#clip690)" d="M1240.72 614.505 L1240.72 609.413 Q1248.23 604.639 1255.43 602.283 Q1262.62 599.896 1269.72 599.896 Q1276.85 599.896 1284.07 602.283 Q1291.3 604.639 1298.78 609.413 L1298.78 614.505 Q1291.49 610.272 1284.3 608.203 Q1277.07 606.103 1269.72 606.103 Q1262.37 606.103 1255.2 608.203 Q1248.04 610.272 1240.72 614.505 Z" fill="#000000" fill-rule="nonzero" fill-opacity="1" /><polyline clip-path="url(#clip694)" style="stroke:#009af9; stroke-linecap:round; stroke-linejoin:round; stroke-width:4; stroke-opacity:1; fill:none" points="1471.57,848.184 1496.74,651.636 1521.9,569.435 1547.06,571.613 1572.22,623.482 1597.38,694.813 1622.55,764.503 1647.71,820.879 1672.87,859.628 1698.03,881.236 1723.2,888.83 1748.36,886.604 1773.52,878.744 1798.68,868.765 1823.85,859.185 1849.01,851.483 1874.17,846.242 1899.33,843.397 1924.49,842.494 1949.66,842.924 1974.82,844.087 1999.98,845.496 2025.14,846.812 2050.31,847.845 2075.47,848.53 2100.63,848.886 2125.79,848.982 2150.95,848.904 2176.12,848.733 2201.28,848.535 2226.44,848.355 2251.6,848.217 2276.77,848.127 2301.93,848.083 2327.09,848.073 "/>
<polyline clip-path="url(#clip694)" style="stroke:#e26f46; stroke-linecap:round; stroke-linejoin:round; stroke-width:3; stroke-opacity:1; fill:none" stroke-dasharray="12, 6, 2, 6" points="1471.57,848.184 1496.74,621.779 1521.9,577.946 1547.06,573.737 1572.22,618.585 1597.38,691.654 1622.55,765.763 1647.71,833.135 1672.87,874.024 1698.03,900.319 1723.2,900.989 1748.36,900.5 1773.52,886.351 1798.68,870.099 1823.85,873.322 1849.01,852.133 1874.17,838.599 1899.33,845.441 1924.49,854.067 1949.66,845.266 1974.82,850.417 1999.98,843.302 2025.14,848.742 2050.31,861.353 2075.47,845.863 2100.63,836.979 2125.79,839.14 2150.95,863.722 2176.12,841.151 2201.28,838.942 2226.44,860.374 2251.6,854.016 2276.77,846.412 2301.93,858.793 2327.09,830.02 "/>
<path clip-path="url(#clip690)" d="M2203.01 726.723 L2322.53 726.723 L2322.53 571.203 L2203.01 571.203  Z" fill="#ffffff" fill-rule="evenodd" fill-opacity="1"/>
<polyline clip-path="url(#clip690)" style="stroke:#000000; stroke-linecap:round; stroke-linejoin:round; stroke-width:4; stroke-opacity:1; fill:none" points="2203.01,726.723 2322.53,726.723 2322.53,571.203 2203.01,571.203 2203.01,726.723 "/>
<polyline clip-path="url(#clip690)" style="stroke:#009af9; stroke-linecap:round; stroke-linejoin:round; stroke-width:4; stroke-opacity:1; fill:none" points="2213.09,623.043 2273.55,623.043 "/>
<path clip-path="url(#clip690)" d="M2310.63 633.582 L2305.36 633.442 L2299.6 633.582 L2299.6 631.334 L2301.47 631.334 L2296.2 625.103 L2291.54 630.326 L2291.21 630.795 Q2291.21 631.006 2291.75 631.17 Q2292.31 631.334 2292.97 631.334 L2292.97 633.582 L2288.03 633.442 L2283.62 633.582 L2283.62 631.334 Q2285.1 631.334 2285.78 631.31 Q2286.48 631.263 2287.28 631.052 Q2288.07 630.842 2288.47 630.42 L2294.75 623.37 L2287.28 614.54 L2283.86 614.54 L2283.86 612.291 L2289.15 612.432 L2294.94 612.291 L2294.94 614.54 L2293.01 614.54 L2297.72 620.044 L2301.75 615.547 Q2301.77 615.523 2302.15 614.961 Q2301.4 614.54 2300.32 614.54 L2300.32 612.291 L2305.26 612.432 L2309.67 612.291 L2309.67 614.54 Q2307.75 614.54 2306.74 614.68 Q2305.76 614.797 2305.45 614.961 Q2305.17 615.125 2304.77 615.547 L2299.17 621.777 L2307.23 631.334 L2310.63 631.334 L2310.63 633.582 Z" fill="#000000" fill-rule="nonzero" fill-opacity="1" /><polyline clip-path="url(#clip690)" style="stroke:#e26f46; stroke-linecap:round; stroke-linejoin:round; stroke-width:3; stroke-opacity:1; fill:none" stroke-dasharray="12, 6, 2, 6" points="2213.09,674.883 2273.55,674.883 "/>
<path clip-path="url(#clip690)" d="M2306.21 663.361 L2305.8 664.033 Q2303.26 662.935 2300.09 661.18 Q2296.93 662.935 2294.39 664.033 L2293.99 663.361 Q2296.76 660.951 2300.09 659.098 Q2303.45 660.967 2306.21 663.361 Z" fill="#000000" fill-rule="nonzero" fill-opacity="1" /><path clip-path="url(#clip690)" d="M2310.63 690.427 L2305.36 690.286 L2299.6 690.427 L2299.6 688.178 L2301.47 688.178 L2296.2 681.948 L2291.54 687.171 L2291.21 687.639 Q2291.21 687.85 2291.75 688.014 Q2292.31 688.178 2292.97 688.178 L2292.97 690.427 L2288.03 690.286 L2283.62 690.427 L2283.62 688.178 Q2285.1 688.178 2285.78 688.155 Q2286.48 688.108 2287.28 687.897 Q2288.07 687.686 2288.47 687.265 L2294.75 680.214 L2287.28 671.384 L2283.86 671.384 L2283.86 669.136 L2289.15 669.276 L2294.94 669.136 L2294.94 671.384 L2293.01 671.384 L2297.72 676.888 L2301.75 672.391 Q2301.77 672.368 2302.15 671.806 Q2301.4 671.384 2300.32 671.384 L2300.32 669.136 L2305.26 669.276 L2309.67 669.136 L2309.67 671.384 Q2307.75 671.384 2306.74 671.525 Q2305.76 671.642 2305.45 671.806 Q2305.17 671.97 2304.77 672.391 L2299.17 678.622 L2307.23 688.178 L2310.63 688.178 L2310.63 690.427 Z" fill="#000000" fill-rule="nonzero" fill-opacity="1" /><path clip-path="url(#clip690)" d="M1445.91 1423.18 L2352.76 1423.18 L2352.76 1071.73 L1445.91 1071.73  Z" fill="#ffffff" fill-rule="evenodd" fill-opacity="1"/>
<defs>
  <clipPath id="clip695">
    <rect x="1445" y="1071" width="908" height="352"/>
  </clipPath>
</defs>
<polyline clip-path="url(#clip695)" style="stroke:#000000; stroke-linecap:round; stroke-linejoin:round; stroke-width:2; stroke-opacity:0.1; fill:none" points="1471.57,1423.18 1471.57,1071.73 "/>
<polyline clip-path="url(#clip695)" style="stroke:#000000; stroke-linecap:round; stroke-linejoin:round; stroke-width:2; stroke-opacity:0.1; fill:none" points="1723.2,1423.18 1723.2,1071.73 "/>
<polyline clip-path="url(#clip695)" style="stroke:#000000; stroke-linecap:round; stroke-linejoin:round; stroke-width:2; stroke-opacity:0.1; fill:none" points="1974.82,1423.18 1974.82,1071.73 "/>
<polyline clip-path="url(#clip695)" style="stroke:#000000; stroke-linecap:round; stroke-linejoin:round; stroke-width:2; stroke-opacity:0.1; fill:none" points="2226.44,1423.18 2226.44,1071.73 "/>
<polyline clip-path="url(#clip695)" style="stroke:#000000; stroke-linecap:round; stroke-linejoin:round; stroke-width:2; stroke-opacity:0.1; fill:none" points="1445.91,1396.23 2352.76,1396.23 "/>
<polyline clip-path="url(#clip695)" style="stroke:#000000; stroke-linecap:round; stroke-linejoin:round; stroke-width:2; stroke-opacity:0.1; fill:none" points="1445.91,1324.9 2352.76,1324.9 "/>
<polyline clip-path="url(#clip695)" style="stroke:#000000; stroke-linecap:round; stroke-linejoin:round; stroke-width:2; stroke-opacity:0.1; fill:none" points="1445.91,1253.58 2352.76,1253.58 "/>
<polyline clip-path="url(#clip695)" style="stroke:#000000; stroke-linecap:round; stroke-linejoin:round; stroke-width:2; stroke-opacity:0.1; fill:none" points="1445.91,1182.25 2352.76,1182.25 "/>
<polyline clip-path="url(#clip695)" style="stroke:#000000; stroke-linecap:round; stroke-linejoin:round; stroke-width:2; stroke-opacity:0.1; fill:none" points="1445.91,1110.93 2352.76,1110.93 "/>
<polyline clip-path="url(#clip690)" style="stroke:#000000; stroke-linecap:round; stroke-linejoin:round; stroke-width:4; stroke-opacity:1; fill:none" points="1445.91,1423.18 2352.76,1423.18 "/>
<polyline clip-path="url(#clip690)" style="stroke:#000000; stroke-linecap:round; stroke-linejoin:round; stroke-width:4; stroke-opacity:1; fill:none" points="1471.57,1423.18 1471.57,1404.28 "/>
<polyline clip-path="url(#clip690)" style="stroke:#000000; stroke-linecap:round; stroke-linejoin:round; stroke-width:4; stroke-opacity:1; fill:none" points="1723.2,1423.18 1723.2,1404.28 "/>
<polyline clip-path="url(#clip690)" style="stroke:#000000; stroke-linecap:round; stroke-linejoin:round; stroke-width:4; stroke-opacity:1; fill:none" points="1974.82,1423.18 1974.82,1404.28 "/>
<polyline clip-path="url(#clip690)" style="stroke:#000000; stroke-linecap:round; stroke-linejoin:round; stroke-width:4; stroke-opacity:1; fill:none" points="2226.44,1423.18 2226.44,1404.28 "/>
<path clip-path="url(#clip690)" d="M1471.57 1454.1 Q1467.96 1454.1 1466.13 1457.66 Q1464.33 1461.2 1464.33 1468.33 Q1464.33 1475.44 1466.13 1479.01 Q1467.96 1482.55 1471.57 1482.55 Q1475.21 1482.55 1477.01 1479.01 Q1478.84 1475.44 1478.84 1468.33 Q1478.84 1461.2 1477.01 1457.66 Q1475.21 1454.1 1471.57 1454.1 M1471.57 1450.39 Q1477.38 1450.39 1480.44 1455 Q1483.52 1459.58 1483.52 1468.33 Q1483.52 1477.06 1480.44 1481.67 Q1477.38 1486.25 1471.57 1486.25 Q1465.76 1486.25 1462.68 1481.67 Q1459.63 1477.06 1459.63 1468.33 Q1459.63 1459.58 1462.68 1455 Q1465.76 1450.39 1471.57 1450.39 Z" fill="#000000" fill-rule="nonzero" fill-opacity="1" /><path clip-path="url(#clip690)" d="M1713.58 1481.64 L1721.22 1481.64 L1721.22 1455.28 L1712.91 1456.95 L1712.91 1452.69 L1721.17 1451.02 L1725.85 1451.02 L1725.85 1481.64 L1733.49 1481.64 L1733.49 1485.58 L1713.58 1485.58 L1713.58 1481.64 Z" fill="#000000" fill-rule="nonzero" fill-opacity="1" /><path clip-path="url(#clip690)" d="M1969.47 1481.64 L1985.79 1481.64 L1985.79 1485.58 L1963.85 1485.58 L1963.85 1481.64 Q1966.51 1478.89 1971.09 1474.26 Q1975.7 1469.61 1976.88 1468.27 Q1979.12 1465.74 1980 1464.01 Q1980.91 1462.25 1980.91 1460.56 Q1980.91 1457.8 1978.96 1456.07 Q1977.04 1454.33 1973.94 1454.33 Q1971.74 1454.33 1969.29 1455.09 Q1966.86 1455.86 1964.08 1457.41 L1964.08 1452.69 Q1966.9 1451.55 1969.36 1450.97 Q1971.81 1450.39 1973.85 1450.39 Q1979.22 1450.39 1982.41 1453.08 Q1985.61 1455.77 1985.61 1460.26 Q1985.61 1462.39 1984.8 1464.31 Q1984.01 1466.2 1981.9 1468.8 Q1981.32 1469.47 1978.22 1472.69 Q1975.12 1475.88 1969.47 1481.64 Z" fill="#000000" fill-rule="nonzero" fill-opacity="1" /><path clip-path="url(#clip690)" d="M2230.69 1466.95 Q2234.05 1467.66 2235.92 1469.93 Q2237.82 1472.2 2237.82 1475.53 Q2237.82 1480.65 2234.3 1483.45 Q2230.78 1486.25 2224.3 1486.25 Q2222.12 1486.25 2219.81 1485.81 Q2217.52 1485.39 2215.06 1484.54 L2215.06 1480.02 Q2217.01 1481.16 2219.32 1481.74 Q2221.64 1482.32 2224.16 1482.32 Q2228.56 1482.32 2230.85 1480.58 Q2233.17 1478.84 2233.17 1475.53 Q2233.17 1472.48 2231.01 1470.77 Q2228.88 1469.03 2225.06 1469.03 L2221.04 1469.03 L2221.04 1465.19 L2225.25 1465.19 Q2228.7 1465.19 2230.53 1463.82 Q2232.36 1462.43 2232.36 1459.84 Q2232.36 1457.18 2230.46 1455.77 Q2228.58 1454.33 2225.06 1454.33 Q2223.14 1454.33 2220.94 1454.75 Q2218.74 1455.16 2216.11 1456.04 L2216.11 1451.88 Q2218.77 1451.14 2221.08 1450.77 Q2223.42 1450.39 2225.48 1450.39 Q2230.8 1450.39 2233.91 1452.83 Q2237.01 1455.23 2237.01 1459.35 Q2237.01 1462.22 2235.36 1464.21 Q2233.72 1466.18 2230.69 1466.95 Z" fill="#000000" fill-rule="nonzero" fill-opacity="1" /><path clip-path="url(#clip690)" d="M1769.5 1520.52 L1809.7 1520.52 L1809.7 1525.93 L1792.83 1525.93 L1792.83 1568.04 L1786.37 1568.04 L1786.37 1525.93 L1769.5 1525.93 L1769.5 1520.52 Z" fill="#000000" fill-rule="nonzero" fill-opacity="1" /><path clip-path="url(#clip690)" d="M1813.65 1532.4 L1819.51 1532.4 L1819.51 1568.04 L1813.65 1568.04 L1813.65 1532.4 M1813.65 1518.52 L1819.51 1518.52 L1819.51 1525.93 L1813.65 1525.93 L1813.65 1518.52 Z" fill="#000000" fill-rule="nonzero" fill-opacity="1" /><path clip-path="url(#clip690)" d="M1859.51 1539.24 Q1861.71 1535.29 1864.77 1533.41 Q1867.82 1531.54 1871.96 1531.54 Q1877.53 1531.54 1880.55 1535.45 Q1883.58 1539.33 1883.58 1546.53 L1883.58 1568.04 L1877.69 1568.04 L1877.69 1546.72 Q1877.69 1541.59 1875.87 1539.11 Q1874.06 1536.63 1870.34 1536.63 Q1865.78 1536.63 1863.14 1539.65 Q1860.5 1542.68 1860.5 1547.9 L1860.5 1568.04 L1854.61 1568.04 L1854.61 1546.72 Q1854.61 1541.56 1852.8 1539.11 Q1850.98 1536.63 1847.2 1536.63 Q1842.71 1536.63 1840.07 1539.68 Q1837.43 1542.71 1837.43 1547.9 L1837.43 1568.04 L1831.54 1568.04 L1831.54 1532.4 L1837.43 1532.4 L1837.43 1537.93 Q1839.43 1534.66 1842.23 1533.1 Q1845.03 1531.54 1848.88 1531.54 Q1852.77 1531.54 1855.47 1533.51 Q1858.21 1535.48 1859.51 1539.24 Z" fill="#000000" fill-rule="nonzero" fill-opacity="1" /><path clip-path="url(#clip690)" d="M1925.75 1548.76 L1925.75 1551.62 L1898.82 1551.62 Q1899.2 1557.67 1902.45 1560.85 Q1905.73 1564 1911.55 1564 Q1914.93 1564 1918.08 1563.17 Q1921.26 1562.35 1924.38 1560.69 L1924.38 1566.23 Q1921.23 1567.57 1917.92 1568.27 Q1914.61 1568.97 1911.2 1568.97 Q1902.67 1568.97 1897.68 1564 Q1892.71 1559.04 1892.71 1550.57 Q1892.71 1541.82 1897.42 1536.69 Q1902.16 1531.54 1910.19 1531.54 Q1917.38 1531.54 1921.55 1536.18 Q1925.75 1540.8 1925.75 1548.76 M1919.89 1547.04 Q1919.83 1542.23 1917.19 1539.37 Q1914.58 1536.5 1910.25 1536.5 Q1905.35 1536.5 1902.39 1539.27 Q1899.46 1542.04 1899.01 1547.07 L1919.89 1547.04 Z" fill="#000000" fill-rule="nonzero" fill-opacity="1" /><path clip-path="url(#clip690)" d="M1970.15 1518.58 Q1965.89 1525.9 1963.82 1533.06 Q1961.75 1540.23 1961.75 1547.58 Q1961.75 1554.93 1963.82 1562.16 Q1965.92 1569.35 1970.15 1576.64 L1965.06 1576.64 Q1960.28 1569.16 1957.9 1561.93 Q1955.54 1554.71 1955.54 1547.58 Q1955.54 1540.48 1957.9 1533.29 Q1960.25 1526.09 1965.06 1518.58 L1970.15 1518.58 Z" fill="#000000" fill-rule="nonzero" fill-opacity="1" /><path clip-path="url(#clip690)" d="M2004.24 1533.45 L2004.24 1538.98 Q2001.76 1537.71 1999.08 1537.07 Q1996.41 1536.44 1993.54 1536.44 Q1989.18 1536.44 1986.99 1537.77 Q1984.82 1539.11 1984.82 1541.79 Q1984.82 1543.82 1986.38 1545 Q1987.94 1546.15 1992.65 1547.2 L1994.66 1547.64 Q2000.9 1548.98 2003.51 1551.43 Q2006.15 1553.85 2006.15 1558.21 Q2006.15 1563.17 2002.2 1566.07 Q1998.29 1568.97 1991.41 1568.97 Q1988.55 1568.97 1985.43 1568.39 Q1982.34 1567.85 1978.9 1566.74 L1978.9 1560.69 Q1982.15 1562.38 1985.3 1563.24 Q1988.45 1564.07 1991.54 1564.07 Q1995.68 1564.07 1997.9 1562.66 Q2000.13 1561.23 2000.13 1558.65 Q2000.13 1556.27 1998.51 1554.99 Q1996.92 1553.72 1991.48 1552.54 L1989.44 1552.07 Q1984 1550.92 1981.58 1548.56 Q1979.16 1546.18 1979.16 1542.04 Q1979.16 1537.01 1982.72 1534.27 Q1986.29 1531.54 1992.84 1531.54 Q1996.09 1531.54 1998.96 1532.01 Q2001.82 1532.49 2004.24 1533.45 Z" fill="#000000" fill-rule="nonzero" fill-opacity="1" /><path clip-path="url(#clip690)" d="M2014.55 1518.58 L2019.64 1518.58 Q2024.42 1526.09 2026.77 1533.29 Q2029.16 1540.48 2029.16 1547.58 Q2029.16 1554.71 2026.77 1561.93 Q2024.42 1569.16 2019.64 1576.64 L2014.55 1576.64 Q2018.78 1569.35 2020.85 1562.16 Q2022.95 1554.93 2022.95 1547.58 Q2022.95 1540.23 2020.85 1533.06 Q2018.78 1525.9 2014.55 1518.58 Z" fill="#000000" fill-rule="nonzero" fill-opacity="1" /><polyline clip-path="url(#clip690)" style="stroke:#000000; stroke-linecap:round; stroke-linejoin:round; stroke-width:4; stroke-opacity:1; fill:none" points="1445.91,1423.18 1445.91,1071.73 "/>
<polyline clip-path="url(#clip690)" style="stroke:#000000; stroke-linecap:round; stroke-linejoin:round; stroke-width:4; stroke-opacity:1; fill:none" points="1445.91,1396.23 1464.81,1396.23 "/>
<polyline clip-path="url(#clip690)" style="stroke:#000000; stroke-linecap:round; stroke-linejoin:round; stroke-width:4; stroke-opacity:1; fill:none" points="1445.91,1324.9 1464.81,1324.9 "/>
<polyline clip-path="url(#clip690)" style="stroke:#000000; stroke-linecap:round; stroke-linejoin:round; stroke-width:4; stroke-opacity:1; fill:none" points="1445.91,1253.58 1464.81,1253.58 "/>
<polyline clip-path="url(#clip690)" style="stroke:#000000; stroke-linecap:round; stroke-linejoin:round; stroke-width:4; stroke-opacity:1; fill:none" points="1445.91,1182.25 1464.81,1182.25 "/>
<polyline clip-path="url(#clip690)" style="stroke:#000000; stroke-linecap:round; stroke-linejoin:round; stroke-width:4; stroke-opacity:1; fill:none" points="1445.91,1110.93 1464.81,1110.93 "/>
<path clip-path="url(#clip690)" d="M1272.32 1396.68 L1301.99 1396.68 L1301.99 1400.61 L1272.32 1400.61 L1272.32 1396.68 Z" fill="#000000" fill-rule="nonzero" fill-opacity="1" /><path clip-path="url(#clip690)" d="M1322.08 1382.03 Q1318.47 1382.03 1316.64 1385.59 Q1314.84 1389.13 1314.84 1396.26 Q1314.84 1403.37 1316.64 1406.93 Q1318.47 1410.48 1322.08 1410.48 Q1325.72 1410.48 1327.52 1406.93 Q1329.35 1403.37 1329.35 1396.26 Q1329.35 1389.13 1327.52 1385.59 Q1325.72 1382.03 1322.08 1382.03 M1322.08 1378.32 Q1327.89 1378.32 1330.95 1382.93 Q1334.03 1387.51 1334.03 1396.26 Q1334.03 1404.99 1330.95 1409.6 Q1327.89 1414.18 1322.08 1414.18 Q1316.27 1414.18 1313.2 1409.6 Q1310.14 1404.99 1310.14 1396.26 Q1310.14 1387.51 1313.2 1382.93 Q1316.27 1378.32 1322.08 1378.32 Z" fill="#000000" fill-rule="nonzero" fill-opacity="1" /><path clip-path="url(#clip690)" d="M1342.25 1407.63 L1347.13 1407.63 L1347.13 1413.51 L1342.25 1413.51 L1342.25 1407.63 Z" fill="#000000" fill-rule="nonzero" fill-opacity="1" /><path clip-path="url(#clip690)" d="M1367.32 1382.03 Q1363.7 1382.03 1361.88 1385.59 Q1360.07 1389.13 1360.07 1396.26 Q1360.07 1403.37 1361.88 1406.93 Q1363.7 1410.48 1367.32 1410.48 Q1370.95 1410.48 1372.76 1406.93 Q1374.58 1403.37 1374.58 1396.26 Q1374.58 1389.13 1372.76 1385.59 Q1370.95 1382.03 1367.32 1382.03 M1367.32 1378.32 Q1373.13 1378.32 1376.18 1382.93 Q1379.26 1387.51 1379.26 1396.26 Q1379.26 1404.99 1376.18 1409.6 Q1373.13 1414.18 1367.32 1414.18 Q1361.51 1414.18 1358.43 1409.6 Q1355.37 1404.99 1355.37 1396.26 Q1355.37 1387.51 1358.43 1382.93 Q1361.51 1378.32 1367.32 1378.32 Z" fill="#000000" fill-rule="nonzero" fill-opacity="1" /><path clip-path="url(#clip690)" d="M1400.32 1383.02 L1388.52 1401.47 L1400.32 1401.47 L1400.32 1383.02 M1399.1 1378.95 L1404.98 1378.95 L1404.98 1401.47 L1409.91 1401.47 L1409.91 1405.36 L1404.98 1405.36 L1404.98 1413.51 L1400.32 1413.51 L1400.32 1405.36 L1384.72 1405.36 L1384.72 1400.85 L1399.1 1378.95 Z" fill="#000000" fill-rule="nonzero" fill-opacity="1" /><path clip-path="url(#clip690)" d="M1274.4 1325.35 L1304.08 1325.35 L1304.08 1329.29 L1274.4 1329.29 L1274.4 1325.35 Z" fill="#000000" fill-rule="nonzero" fill-opacity="1" /><path clip-path="url(#clip690)" d="M1324.17 1310.7 Q1320.56 1310.7 1318.73 1314.27 Q1316.92 1317.81 1316.92 1324.94 Q1316.92 1332.04 1318.73 1335.61 Q1320.56 1339.15 1324.17 1339.15 Q1327.8 1339.15 1329.61 1335.61 Q1331.44 1332.04 1331.44 1324.94 Q1331.44 1317.81 1329.61 1314.27 Q1327.8 1310.7 1324.17 1310.7 M1324.17 1307 Q1329.98 1307 1333.03 1311.6 Q1336.11 1316.19 1336.11 1324.94 Q1336.11 1333.66 1333.03 1338.27 Q1329.98 1342.85 1324.17 1342.85 Q1318.36 1342.85 1315.28 1338.27 Q1312.22 1333.66 1312.22 1324.94 Q1312.22 1316.19 1315.28 1311.6 Q1318.36 1307 1324.17 1307 Z" fill="#000000" fill-rule="nonzero" fill-opacity="1" /><path clip-path="url(#clip690)" d="M1344.33 1336.3 L1349.21 1336.3 L1349.21 1342.18 L1344.33 1342.18 L1344.33 1336.3 Z" fill="#000000" fill-rule="nonzero" fill-opacity="1" /><path clip-path="url(#clip690)" d="M1369.4 1310.7 Q1365.79 1310.7 1363.96 1314.27 Q1362.15 1317.81 1362.15 1324.94 Q1362.15 1332.04 1363.96 1335.61 Q1365.79 1339.15 1369.4 1339.15 Q1373.03 1339.15 1374.84 1335.61 Q1376.67 1332.04 1376.67 1324.94 Q1376.67 1317.81 1374.84 1314.27 Q1373.03 1310.7 1369.4 1310.7 M1369.4 1307 Q1375.21 1307 1378.26 1311.6 Q1381.34 1316.19 1381.34 1324.94 Q1381.34 1333.66 1378.26 1338.27 Q1375.21 1342.85 1369.4 1342.85 Q1363.59 1342.85 1360.51 1338.27 Q1357.45 1333.66 1357.45 1324.94 Q1357.45 1316.19 1360.51 1311.6 Q1363.59 1307 1369.4 1307 Z" fill="#000000" fill-rule="nonzero" fill-opacity="1" /><path clip-path="url(#clip690)" d="M1393.59 1338.25 L1409.91 1338.25 L1409.91 1342.18 L1387.96 1342.18 L1387.96 1338.25 Q1390.63 1335.49 1395.21 1330.86 Q1399.82 1326.21 1401 1324.87 Q1403.24 1322.34 1404.12 1320.61 Q1405.02 1318.85 1405.02 1317.16 Q1405.02 1314.41 1403.08 1312.67 Q1401.16 1310.93 1398.06 1310.93 Q1395.86 1310.93 1393.4 1311.7 Q1390.97 1312.46 1388.19 1314.01 L1388.19 1309.29 Q1391.02 1308.16 1393.47 1307.58 Q1395.93 1307 1397.96 1307 Q1403.33 1307 1406.53 1309.68 Q1409.72 1312.37 1409.72 1316.86 Q1409.72 1318.99 1408.91 1320.91 Q1408.13 1322.81 1406.02 1325.4 Q1405.44 1326.07 1402.34 1329.29 Q1399.24 1332.48 1393.59 1338.25 Z" fill="#000000" fill-rule="nonzero" fill-opacity="1" /><path clip-path="url(#clip690)" d="M1322.57 1239.38 Q1318.96 1239.38 1317.13 1242.94 Q1315.32 1246.48 1315.32 1253.61 Q1315.32 1260.72 1317.13 1264.28 Q1318.96 1267.82 1322.57 1267.82 Q1326.2 1267.82 1328.01 1264.28 Q1329.84 1260.72 1329.84 1253.61 Q1329.84 1246.48 1328.01 1242.94 Q1326.2 1239.38 1322.57 1239.38 M1322.57 1235.67 Q1328.38 1235.67 1331.44 1240.28 Q1334.51 1244.86 1334.51 1253.61 Q1334.51 1262.34 1331.44 1266.95 Q1328.38 1271.53 1322.57 1271.53 Q1316.76 1271.53 1313.68 1266.95 Q1310.63 1262.34 1310.63 1253.61 Q1310.63 1244.86 1313.68 1240.28 Q1316.76 1235.67 1322.57 1235.67 Z" fill="#000000" fill-rule="nonzero" fill-opacity="1" /><path clip-path="url(#clip690)" d="M1342.73 1264.98 L1347.62 1264.98 L1347.62 1270.86 L1342.73 1270.86 L1342.73 1264.98 Z" fill="#000000" fill-rule="nonzero" fill-opacity="1" /><path clip-path="url(#clip690)" d="M1367.8 1239.38 Q1364.19 1239.38 1362.36 1242.94 Q1360.56 1246.48 1360.56 1253.61 Q1360.56 1260.72 1362.36 1264.28 Q1364.19 1267.82 1367.8 1267.82 Q1371.44 1267.82 1373.24 1264.28 Q1375.07 1260.72 1375.07 1253.61 Q1375.07 1246.48 1373.24 1242.94 Q1371.44 1239.38 1367.8 1239.38 M1367.8 1235.67 Q1373.61 1235.67 1376.67 1240.28 Q1379.75 1244.86 1379.75 1253.61 Q1379.75 1262.34 1376.67 1266.95 Q1373.61 1271.53 1367.8 1271.53 Q1361.99 1271.53 1358.91 1266.95 Q1355.86 1262.34 1355.86 1253.61 Q1355.86 1244.86 1358.91 1240.28 Q1361.99 1235.67 1367.8 1235.67 Z" fill="#000000" fill-rule="nonzero" fill-opacity="1" /><path clip-path="url(#clip690)" d="M1397.96 1239.38 Q1394.35 1239.38 1392.52 1242.94 Q1390.72 1246.48 1390.72 1253.61 Q1390.72 1260.72 1392.52 1264.28 Q1394.35 1267.82 1397.96 1267.82 Q1401.6 1267.82 1403.4 1264.28 Q1405.23 1260.72 1405.23 1253.61 Q1405.23 1246.48 1403.4 1242.94 Q1401.6 1239.38 1397.96 1239.38 M1397.96 1235.67 Q1403.77 1235.67 1406.83 1240.28 Q1409.91 1244.86 1409.91 1253.61 Q1409.91 1262.34 1406.83 1266.95 Q1403.77 1271.53 1397.96 1271.53 Q1392.15 1271.53 1389.07 1266.95 Q1386.02 1262.34 1386.02 1253.61 Q1386.02 1244.86 1389.07 1240.28 Q1392.15 1235.67 1397.96 1235.67 Z" fill="#000000" fill-rule="nonzero" fill-opacity="1" /><path clip-path="url(#clip690)" d="M1324.17 1168.05 Q1320.56 1168.05 1318.73 1171.62 Q1316.92 1175.16 1316.92 1182.29 Q1316.92 1189.39 1318.73 1192.96 Q1320.56 1196.5 1324.17 1196.5 Q1327.8 1196.5 1329.61 1192.96 Q1331.44 1189.39 1331.44 1182.29 Q1331.44 1175.16 1329.61 1171.62 Q1327.8 1168.05 1324.17 1168.05 M1324.17 1164.35 Q1329.98 1164.35 1333.03 1168.95 Q1336.11 1173.54 1336.11 1182.29 Q1336.11 1191.01 1333.03 1195.62 Q1329.98 1200.2 1324.17 1200.2 Q1318.36 1200.2 1315.28 1195.62 Q1312.22 1191.01 1312.22 1182.29 Q1312.22 1173.54 1315.28 1168.95 Q1318.36 1164.35 1324.17 1164.35 Z" fill="#000000" fill-rule="nonzero" fill-opacity="1" /><path clip-path="url(#clip690)" d="M1344.33 1193.65 L1349.21 1193.65 L1349.21 1199.53 L1344.33 1199.53 L1344.33 1193.65 Z" fill="#000000" fill-rule="nonzero" fill-opacity="1" /><path clip-path="url(#clip690)" d="M1369.4 1168.05 Q1365.79 1168.05 1363.96 1171.62 Q1362.15 1175.16 1362.15 1182.29 Q1362.15 1189.39 1363.96 1192.96 Q1365.79 1196.5 1369.4 1196.5 Q1373.03 1196.5 1374.84 1192.96 Q1376.67 1189.39 1376.67 1182.29 Q1376.67 1175.16 1374.84 1171.62 Q1373.03 1168.05 1369.4 1168.05 M1369.4 1164.35 Q1375.21 1164.35 1378.26 1168.95 Q1381.34 1173.54 1381.34 1182.29 Q1381.34 1191.01 1378.26 1195.62 Q1375.21 1200.2 1369.4 1200.2 Q1363.59 1200.2 1360.51 1195.62 Q1357.45 1191.01 1357.45 1182.29 Q1357.45 1173.54 1360.51 1168.95 Q1363.59 1164.35 1369.4 1164.35 Z" fill="#000000" fill-rule="nonzero" fill-opacity="1" /><path clip-path="url(#clip690)" d="M1393.59 1195.6 L1409.91 1195.6 L1409.91 1199.53 L1387.96 1199.53 L1387.96 1195.6 Q1390.63 1192.84 1395.21 1188.21 Q1399.82 1183.56 1401 1182.22 Q1403.24 1179.69 1404.12 1177.96 Q1405.02 1176.2 1405.02 1174.51 Q1405.02 1171.75 1403.08 1170.02 Q1401.16 1168.28 1398.06 1168.28 Q1395.86 1168.28 1393.4 1169.05 Q1390.97 1169.81 1388.19 1171.36 L1388.19 1166.64 Q1391.02 1165.5 1393.47 1164.93 Q1395.93 1164.35 1397.96 1164.35 Q1403.33 1164.35 1406.53 1167.03 Q1409.72 1169.72 1409.72 1174.21 Q1409.72 1176.34 1408.91 1178.26 Q1408.13 1180.16 1406.02 1182.75 Q1405.44 1183.42 1402.34 1186.64 Q1399.24 1189.83 1393.59 1195.6 Z" fill="#000000" fill-rule="nonzero" fill-opacity="1" /><path clip-path="url(#clip690)" d="M1322.08 1096.73 Q1318.47 1096.73 1316.64 1100.29 Q1314.84 1103.83 1314.84 1110.96 Q1314.84 1118.07 1316.64 1121.63 Q1318.47 1125.17 1322.08 1125.17 Q1325.72 1125.17 1327.52 1121.63 Q1329.35 1118.07 1329.35 1110.96 Q1329.35 1103.83 1327.52 1100.29 Q1325.72 1096.73 1322.08 1096.73 M1322.08 1093.02 Q1327.89 1093.02 1330.95 1097.63 Q1334.03 1102.21 1334.03 1110.96 Q1334.03 1119.69 1330.95 1124.29 Q1327.89 1128.88 1322.08 1128.88 Q1316.27 1128.88 1313.2 1124.29 Q1310.14 1119.69 1310.14 1110.96 Q1310.14 1102.21 1313.2 1097.63 Q1316.27 1093.02 1322.08 1093.02 Z" fill="#000000" fill-rule="nonzero" fill-opacity="1" /><path clip-path="url(#clip690)" d="M1342.25 1122.33 L1347.13 1122.33 L1347.13 1128.21 L1342.25 1128.21 L1342.25 1122.33 Z" fill="#000000" fill-rule="nonzero" fill-opacity="1" /><path clip-path="url(#clip690)" d="M1367.32 1096.73 Q1363.7 1096.73 1361.88 1100.29 Q1360.07 1103.83 1360.07 1110.96 Q1360.07 1118.07 1361.88 1121.63 Q1363.7 1125.17 1367.32 1125.17 Q1370.95 1125.17 1372.76 1121.63 Q1374.58 1118.07 1374.58 1110.96 Q1374.58 1103.83 1372.76 1100.29 Q1370.95 1096.73 1367.32 1096.73 M1367.32 1093.02 Q1373.13 1093.02 1376.18 1097.63 Q1379.26 1102.21 1379.26 1110.96 Q1379.26 1119.69 1376.18 1124.29 Q1373.13 1128.88 1367.32 1128.88 Q1361.51 1128.88 1358.43 1124.29 Q1355.37 1119.69 1355.37 1110.96 Q1355.37 1102.21 1358.43 1097.63 Q1361.51 1093.02 1367.32 1093.02 Z" fill="#000000" fill-rule="nonzero" fill-opacity="1" /><path clip-path="url(#clip690)" d="M1400.32 1097.72 L1388.52 1116.17 L1400.32 1116.17 L1400.32 1097.72 M1399.1 1093.65 L1404.98 1093.65 L1404.98 1116.17 L1409.91 1116.17 L1409.91 1120.06 L1404.98 1120.06 L1404.98 1128.21 L1400.32 1128.21 L1400.32 1120.06 L1384.72 1120.06 L1384.72 1115.54 L1399.1 1093.65 Z" fill="#000000" fill-rule="nonzero" fill-opacity="1" /><path clip-path="url(#clip690)" d="M1182.01 1252.88 L1182.94 1253.44 Q1181.43 1256.93 1179.02 1261.28 Q1181.43 1265.63 1182.94 1269.13 L1182.01 1269.67 Q1178.7 1265.86 1176.15 1261.28 Q1178.72 1256.66 1182.01 1252.88 Z" fill="#000000" fill-rule="nonzero" fill-opacity="1" /><path clip-path="url(#clip690)" d="M1194.31 1249.71 Q1196.12 1249.71 1197.15 1250.84 Q1198.14 1251.97 1198.14 1253.26 Q1198.14 1254.48 1197.44 1255.12 Q1196.73 1255.77 1195.83 1255.77 Q1194.6 1255.77 1193.54 1254.87 Q1192.48 1253.96 1192.25 1252.61 Q1191.41 1253.93 1191.41 1255.9 Q1191.41 1257.18 1192.09 1258.31 Q1192.77 1259.41 1193.64 1260.08 Q1194.51 1260.73 1195.76 1261.31 Q1196.99 1261.85 1197.73 1262.08 Q1198.43 1262.27 1199.21 1262.43 L1208.23 1264.69 Q1212.51 1265.78 1214.02 1265.78 Q1215.89 1265.78 1217.15 1264.88 Q1218.37 1263.98 1218.37 1262.18 Q1218.37 1261.47 1218.18 1260.66 Q1217.95 1259.86 1217.37 1258.83 Q1216.76 1257.76 1215.86 1256.83 Q1214.92 1255.86 1213.35 1254.93 Q1211.77 1254 1209.74 1253.38 Q1209.03 1253.19 1209.03 1252.55 Q1209.03 1251.74 1209.67 1251.74 Q1210.22 1251.74 1211.38 1252.19 Q1212.51 1252.61 1213.99 1253.55 Q1215.44 1254.45 1216.76 1255.64 Q1218.05 1256.83 1218.95 1258.6 Q1219.85 1260.37 1219.85 1262.31 Q1219.85 1265.08 1218.37 1266.91 Q1216.89 1268.75 1214.83 1269.42 Q1215.12 1269.58 1215.5 1269.81 Q1215.89 1270.03 1216.76 1270.71 Q1217.6 1271.36 1218.24 1272.1 Q1218.85 1272.84 1219.34 1274 Q1219.85 1275.12 1219.85 1276.35 Q1219.85 1277.89 1219.4 1279.28 Q1218.95 1280.63 1217.92 1281.6 Q1216.89 1282.56 1215.47 1282.56 Q1213.89 1282.56 1212.8 1281.5 Q1211.67 1280.41 1211.67 1278.92 Q1211.67 1277.99 1212.22 1277.25 Q1212.77 1276.48 1213.96 1276.48 Q1215.28 1276.48 1216.28 1277.38 Q1217.27 1278.28 1217.53 1279.57 Q1218.37 1278.25 1218.37 1276.28 Q1218.37 1274.16 1216.5 1272.48 Q1214.63 1270.81 1211.51 1270 Q1204.01 1268.01 1200.66 1267.23 Q1197.28 1266.46 1195.83 1266.46 Q1194.47 1266.46 1193.54 1266.81 Q1192.61 1267.17 1192.19 1267.78 Q1191.74 1268.36 1191.57 1268.91 Q1191.41 1269.42 1191.41 1270 Q1191.41 1270.97 1191.8 1272.06 Q1192.19 1273.13 1193.09 1274.41 Q1193.96 1275.67 1195.76 1276.86 Q1197.56 1278.05 1200.04 1278.86 Q1200.79 1279.02 1200.79 1279.73 Q1200.75 1280.5 1200.11 1280.5 Q1199.56 1280.5 1198.43 1280.08 Q1197.28 1279.63 1195.83 1278.73 Q1194.38 1277.8 1193.09 1276.6 Q1191.77 1275.38 1190.87 1273.61 Q1189.96 1271.81 1189.96 1269.87 Q1189.96 1269 1190.16 1268.17 Q1190.32 1267.3 1190.8 1266.27 Q1191.28 1265.2 1192.35 1264.27 Q1193.41 1263.34 1194.96 1262.76 Q1194.22 1262.37 1193.51 1261.85 Q1192.8 1261.31 1191.93 1260.47 Q1191.03 1259.6 1190.51 1258.41 Q1189.96 1257.18 1189.96 1255.83 Q1189.96 1254.51 1190.32 1253.22 Q1190.64 1251.94 1191.7 1250.84 Q1192.73 1249.71 1194.31 1249.71 Z" fill="#000000" fill-rule="nonzero" fill-opacity="1" /><path clip-path="url(#clip690)" d="M1231.9 1242.25 Q1230.52 1242.25 1229.87 1241.46 Q1229.22 1240.68 1229.22 1239.66 Q1229.22 1238.6 1229.92 1237.86 Q1230.59 1237.09 1231.79 1237.09 Q1233.07 1237.09 1233.79 1237.99 Q1234.51 1238.87 1234.33 1240.13 Q1236.18 1239.03 1237.02 1237 Q1237.85 1234.95 1237.85 1233.06 Q1237.85 1231.07 1236.14 1229.47 Q1234.42 1227.85 1230.23 1227.85 Q1226.67 1227.85 1224.62 1229.25 Q1222.57 1230.62 1222.57 1233.35 L1222.57 1235.38 Q1222.57 1236.08 1222.5 1236.28 Q1222.43 1236.48 1222.05 1236.48 Q1221.6 1236.48 1221.51 1235.78 Q1221.51 1235.08 1221.37 1233.98 Q1221.28 1231.3 1218.96 1229.88 Q1216.79 1228.59 1213.71 1228.59 Q1210.89 1228.59 1209.72 1229.94 Q1208.52 1231.27 1208.52 1233.01 Q1208.52 1234.63 1209.2 1236.41 Q1209.87 1238.2 1211.38 1239.17 Q1211.38 1236.3 1213.71 1236.3 Q1214.72 1236.3 1215.4 1236.96 Q1216.05 1237.59 1216.05 1238.65 Q1216.05 1239.66 1215.42 1240.34 Q1214.77 1241.01 1213.66 1241.01 Q1211.02 1241.01 1209.2 1238.67 Q1207.37 1236.3 1207.37 1232.83 Q1207.37 1229.4 1209.17 1226.88 Q1210.98 1224.33 1213.75 1224.33 Q1216.48 1224.33 1218.71 1226.13 Q1220.94 1227.94 1221.87 1230.8 Q1222.57 1227.28 1224.96 1225.19 Q1227.32 1223.09 1230.23 1223.09 Q1233.84 1223.09 1236.5 1225.93 Q1239.14 1228.77 1239.14 1232.92 Q1239.14 1236.75 1237.06 1239.5 Q1234.99 1242.25 1231.9 1242.25 Z" fill="#000000" fill-rule="nonzero" fill-opacity="1" /><polyline clip-path="url(#clip695)" style="stroke:#e26f46; stroke-linecap:round; stroke-linejoin:round; stroke-width:3; stroke-opacity:1; fill:none" stroke-dasharray="12, 6, 2, 6" points="1471.57,1253.58 1496.74,1081.68 1521.9,1389.52 1547.06,1413.23 1572.22,1410.89 1597.38,1410.59 1622.55,1401.13 1647.71,1401.54 1672.87,1383.07 1698.03,1373.4 1723.2,1342.93 1748.36,1332.22 1773.52,1309.14 1798.68,1284.28 1823.85,1302.8 1849.01,1275.63 1874.17,1249.37 1899.33,1256.27 1924.49,1272.81 1949.66,1257.18 1974.82,1266.42 1999.98,1251.21 2025.14,1257.91 2050.31,1287.99 2075.47,1267.24 2100.63,1247.15 2125.79,1240.41 2150.95,1286.8 2176.12,1247.32 2201.28,1233.1 2226.44,1270.62 2251.6,1265.66 2276.77,1254.52 2301.93,1285.22 2327.09,1231.15 "/>
</svg>
